<?xml version='1.0' encoding='ASCII' standalone='yes'?>
<svg xmlns="http://www.w3.org/2000/svg" xmlns:rdkit="http://www.rdkit.org/xml" xmlns:xlink="http://www.w3.org/1999/xlink" version="1.1" baseProfile="full" xml:space="preserve" width="500px" height="500px" viewBox="0 0 500 500">
<!-- END OF HEADER -->
<rect style="opacity:1.0;fill:#FFFFFF;stroke:none" width="500.0" height="500.0" x="0.0" y="0.0"> </rect>
<path class="bond-3 atom-1 atom-2" d="M 107.0,241.1 L 165.8,228.7" style="fill:none;fill-rule:evenodd;stroke:#FF7F7F;stroke-width:12.8px;stroke-linecap:butt;stroke-linejoin:miter;stroke-opacity:1"/>
<path class="bond-0 atom-1 atom-4" d="M 109.8,254.5 L 117.2,289.4" style="fill:none;fill-rule:evenodd;stroke:#000000;stroke-width:2.0px;stroke-linecap:butt;stroke-linejoin:miter;stroke-opacity:1"/>
<path class="bond-1 atom-1 atom-5" d="M 90.1,244.6 L 56.1,251.8" style="fill:none;fill-rule:evenodd;stroke:#000000;stroke-width:2.0px;stroke-linecap:butt;stroke-linejoin:miter;stroke-opacity:1"/>
<path class="bond-2 atom-1 atom-0" d="M 104.8,230.5 L 96.8,192.8" style="fill:none;fill-rule:evenodd;stroke:#000000;stroke-width:2.0px;stroke-linecap:butt;stroke-linejoin:miter;stroke-opacity:1"/>
<path class="bond-3 atom-2 atom-1" d="M 147.6,232.5 L 135.7,235.0" style="fill:none;fill-rule:evenodd;stroke:#FF0000;stroke-width:2.0px;stroke-linecap:butt;stroke-linejoin:miter;stroke-opacity:1"/>
<path class="bond-3 atom-2 atom-1" d="M 135.7,235.0 L 123.8,237.5" style="fill:none;fill-rule:evenodd;stroke:#000000;stroke-width:2.0px;stroke-linecap:butt;stroke-linejoin:miter;stroke-opacity:1"/>
<path class="bond-4 atom-3 atom-2" d="M 196.4,262.8 L 185.9,251.2" style="fill:none;fill-rule:evenodd;stroke:#000000;stroke-width:2.0px;stroke-linecap:butt;stroke-linejoin:miter;stroke-opacity:1"/>
<path class="bond-4 atom-3 atom-2" d="M 185.9,251.2 L 175.5,239.5" style="fill:none;fill-rule:evenodd;stroke:#FF0000;stroke-width:2.0px;stroke-linecap:butt;stroke-linejoin:miter;stroke-opacity:1"/>
<path class="bond-5 atom-3 atom-12" d="M 208.0,286.3 L 202.2,304.0" style="fill:none;fill-rule:evenodd;stroke:#000000;stroke-width:2.0px;stroke-linecap:butt;stroke-linejoin:miter;stroke-opacity:1"/>
<path class="bond-5 atom-3 atom-12" d="M 202.2,304.0 L 196.4,321.8" style="fill:none;fill-rule:evenodd;stroke:#FF0000;stroke-width:2.0px;stroke-linecap:butt;stroke-linejoin:miter;stroke-opacity:1"/>
<path class="bond-5 atom-3 atom-12" d="M 196.6,282.5 L 190.8,300.3" style="fill:none;fill-rule:evenodd;stroke:#000000;stroke-width:2.0px;stroke-linecap:butt;stroke-linejoin:miter;stroke-opacity:1"/>
<path class="bond-5 atom-3 atom-12" d="M 190.8,300.3 L 185.0,318.1" style="fill:none;fill-rule:evenodd;stroke:#FF0000;stroke-width:2.0px;stroke-linecap:butt;stroke-linejoin:miter;stroke-opacity:1"/>
<path class="bond-6 atom-6 atom-11" d="M 268.1,250.6 L 279.0,217.3" style="fill:none;fill-rule:evenodd;stroke:#000000;stroke-width:2.0px;stroke-linecap:butt;stroke-linejoin:miter;stroke-opacity:1"/>
<path class="bond-6 atom-6 atom-11" d="M 281.2,249.4 L 288.8,226.0" style="fill:none;fill-rule:evenodd;stroke:#000000;stroke-width:2.0px;stroke-linecap:butt;stroke-linejoin:miter;stroke-opacity:1"/>
<path class="bond-7 atom-6 atom-3" d="M 247.9,264.5 L 223.6,269.7" style="fill:none;fill-rule:evenodd;stroke:#000000;stroke-width:2.0px;stroke-linecap:butt;stroke-linejoin:miter;stroke-opacity:1"/>
<path class="bond-8 atom-7 atom-8" d="M 367.1,282.8 L 378.8,247.0" style="fill:none;fill-rule:evenodd;stroke:#000000;stroke-width:2.0px;stroke-linecap:butt;stroke-linejoin:miter;stroke-opacity:1"/>
<path class="bond-9 atom-7 atom-9" d="M 346.5,297.0 L 327.8,300.9" style="fill:none;fill-rule:evenodd;stroke:#000000;stroke-width:2.0px;stroke-linecap:butt;stroke-linejoin:miter;stroke-opacity:1"/>
<path class="bond-9 atom-7 atom-9" d="M 341.2,285.8 L 328.1,288.5" style="fill:none;fill-rule:evenodd;stroke:#000000;stroke-width:2.0px;stroke-linecap:butt;stroke-linejoin:miter;stroke-opacity:1"/>
<path class="bond-10 atom-7 atom-16" d="M 373.3,304.2 L 395.1,328.4" style="fill:none;fill-rule:evenodd;stroke:#000000;stroke-width:2.0px;stroke-linecap:butt;stroke-linejoin:miter;stroke-opacity:1"/>
<path class="bond-11 atom-8 atom-10" d="M 372.8,225.6 L 351.7,202.1" style="fill:none;fill-rule:evenodd;stroke:#000000;stroke-width:2.0px;stroke-linecap:butt;stroke-linejoin:miter;stroke-opacity:1"/>
<path class="bond-11 atom-8 atom-10" d="M 360.7,230.1 L 345.9,213.7" style="fill:none;fill-rule:evenodd;stroke:#000000;stroke-width:2.0px;stroke-linecap:butt;stroke-linejoin:miter;stroke-opacity:1"/>
<path class="bond-12 atom-8 atom-17" d="M 399.3,232.6 L 432.4,225.7" style="fill:none;fill-rule:evenodd;stroke:#000000;stroke-width:2.0px;stroke-linecap:butt;stroke-linejoin:miter;stroke-opacity:1"/>
<path class="bond-13 atom-9 atom-6" d="M 295.3,295.1 L 274.2,271.6" style="fill:none;fill-rule:evenodd;stroke:#000000;stroke-width:2.0px;stroke-linecap:butt;stroke-linejoin:miter;stroke-opacity:1"/>
<path class="bond-14 atom-9 atom-13" d="M 300.4,319.1 L 289.6,352.4" style="fill:none;fill-rule:evenodd;stroke:#000000;stroke-width:2.0px;stroke-linecap:butt;stroke-linejoin:miter;stroke-opacity:1"/>
<path class="bond-15 atom-10 atom-11" d="M 320.3,196.1 L 305.9,199.2" style="fill:none;fill-rule:evenodd;stroke:#000000;stroke-width:2.0px;stroke-linecap:butt;stroke-linejoin:miter;stroke-opacity:1"/>
<path class="bond-16 atom-10 atom-14" d="M 345.6,181.0 L 357.4,144.9" style="fill:none;fill-rule:evenodd;stroke:#000000;stroke-width:2.0px;stroke-linecap:butt;stroke-linejoin:miter;stroke-opacity:1"/>
<path class="bond-17 atom-11 atom-15" d="M 273.9,193.3 L 251.1,168.0" style="fill:none;fill-rule:evenodd;stroke:#000000;stroke-width:2.0px;stroke-linecap:butt;stroke-linejoin:miter;stroke-opacity:1"/>
<path class="atom-0" d="M 87.9 173.8 L 90.2 173.8 L 90.2 181.1 L 98.9 181.1 L 98.9 173.8 L 101.2 173.8 L 101.2 190.8 L 98.9 190.8 L 98.9 183.0 L 90.2 183.0 L 90.2 190.8 L 87.9 190.8 L 87.9 173.8 " fill="#000000"/>
<path class="atom-0" d="M 103.3 188.0 L 105.7 188.0 L 105.7 190.4 L 103.3 190.4 L 103.3 188.0 M 103.3 179.8 L 105.7 179.8 L 105.7 182.2 L 103.3 182.2 L 103.3 179.8 " fill="#000000"/>
<path class="atom-0" d="M 108.4 188.9 L 112.2 188.9 L 112.2 176.2 L 108.1 177.5 L 107.5 176.1 L 112.7 173.7 L 114.4 174.0 L 114.4 188.9 L 117.8 188.9 L 117.8 190.8 L 108.4 190.8 L 108.4 188.9 " fill="#000000"/>
<path class="atom-1" d="M 92.1 241.1 Q 92.1 236.9, 94.1 234.7 Q 96.1 232.5, 99.8 232.5 Q 103.4 232.5, 105.2 234.9 L 103.6 236.2 Q 102.3 234.4, 99.8 234.4 Q 97.3 234.4, 95.9 236.2 Q 94.6 237.9, 94.6 241.1 Q 94.6 244.5, 96.0 246.2 Q 97.4 248.0, 100.1 248.0 Q 102.0 248.0, 104.2 246.8 L 104.8 248.6 Q 104.0 249.2, 102.6 249.6 Q 101.3 249.9, 99.8 249.9 Q 96.1 249.9, 94.1 247.6 Q 92.1 245.4, 92.1 241.1 " fill="#000000"/>
<path class="atom-1" d="M 106.2 246.9 L 108.6 246.9 L 108.6 249.3 L 106.2 249.3 L 106.2 246.9 M 106.2 238.6 L 108.6 238.6 L 108.6 241.0 L 106.2 241.0 L 106.2 238.6 " fill="#000000"/>
<path class="atom-1" d="M 110.4 235.9 Q 111.1 234.3, 112.6 233.4 Q 114.1 232.5, 116.1 232.5 Q 118.7 232.5, 120.1 233.9 Q 121.6 235.3, 121.6 237.7 Q 121.6 240.3, 119.7 242.6 Q 117.8 245.0, 114.0 247.8 L 121.9 247.8 L 121.9 249.7 L 110.4 249.7 L 110.4 248.1 Q 113.6 245.8, 115.4 244.1 Q 117.3 242.4, 118.3 240.9 Q 119.2 239.4, 119.2 237.9 Q 119.2 236.2, 118.4 235.3 Q 117.5 234.4, 116.1 234.4 Q 114.7 234.4, 113.8 234.9 Q 112.9 235.5, 112.3 236.7 L 110.4 235.9 " fill="#000000"/>
<path class="atom-2" d="M 149.5 228.7 Q 149.5 224.6, 151.6 222.4 Q 153.6 220.1, 157.4 220.1 Q 161.1 220.1, 163.1 222.4 Q 165.2 224.6, 165.2 228.7 Q 165.2 232.9, 163.1 235.2 Q 161.1 237.5, 157.4 237.5 Q 153.6 237.5, 151.6 235.2 Q 149.5 232.9, 149.5 228.7 M 157.4 235.6 Q 159.9 235.6, 161.3 233.9 Q 162.8 232.1, 162.8 228.7 Q 162.8 225.4, 161.3 223.7 Q 159.9 222.0, 157.4 222.0 Q 154.8 222.0, 153.3 223.7 Q 151.9 225.4, 151.9 228.7 Q 151.9 232.2, 153.3 233.9 Q 154.8 235.6, 157.4 235.6 " fill="#FF0000"/>
<path class="atom-2" d="M 166.4 234.5 L 168.8 234.5 L 168.8 236.9 L 166.4 236.9 L 166.4 234.5 M 166.4 226.2 L 168.8 226.2 L 168.8 228.6 L 166.4 228.6 L 166.4 226.2 " fill="#FF0000"/>
<path class="atom-2" d="M 178.7 228.3 Q 180.4 228.8, 181.2 229.9 Q 182.0 230.9, 182.0 232.6 Q 182.0 234.1, 181.3 235.2 Q 180.6 236.3, 179.2 236.9 Q 177.9 237.5, 176.2 237.5 Q 174.4 237.5, 173.0 236.9 Q 171.7 236.3, 170.6 235.0 L 171.9 233.6 Q 173.0 234.7, 173.9 235.2 Q 174.8 235.6, 176.2 235.6 Q 177.7 235.6, 178.7 234.8 Q 179.6 233.9, 179.6 232.6 Q 179.6 230.9, 178.6 230.1 Q 177.7 229.3, 175.6 229.3 L 174.3 229.3 L 174.3 227.6 L 175.4 227.6 Q 177.3 227.6, 178.3 226.8 Q 179.2 225.9, 179.2 224.4 Q 179.2 223.3, 178.4 222.7 Q 177.6 222.0, 176.2 222.0 Q 174.8 222.0, 173.9 222.5 Q 173.0 223.0, 172.4 224.3 L 170.7 223.4 Q 171.3 222.0, 172.8 221.0 Q 174.2 220.1, 176.2 220.1 Q 178.7 220.1, 180.2 221.3 Q 181.7 222.4, 181.7 224.4 Q 181.7 225.8, 180.9 226.8 Q 180.2 227.8, 178.7 228.3 " fill="#FF0000"/>
<path class="atom-3" d="M 190.2 273.5 Q 190.2 269.2, 192.2 267.0 Q 194.2 264.8, 198.0 264.8 Q 201.5 264.8, 203.3 267.3 L 201.7 268.6 Q 200.4 266.8, 198.0 266.8 Q 195.4 266.8, 194.0 268.5 Q 192.7 270.2, 192.7 273.5 Q 192.7 276.8, 194.1 278.6 Q 195.5 280.3, 198.2 280.3 Q 200.1 280.3, 202.3 279.2 L 202.9 281.0 Q 202.1 281.5, 200.7 281.9 Q 199.4 282.2, 197.9 282.2 Q 194.2 282.2, 192.2 280.0 Q 190.2 277.7, 190.2 273.5 " fill="#000000"/>
<path class="atom-3" d="M 204.3 279.2 L 206.7 279.2 L 206.7 281.6 L 204.3 281.6 L 204.3 279.2 M 204.3 270.9 L 206.7 270.9 L 206.7 273.3 L 204.3 273.3 L 204.3 270.9 " fill="#000000"/>
<path class="atom-3" d="M 219.6 276.2 L 221.6 276.2 L 221.6 278.1 L 219.6 278.1 L 219.6 282.0 L 217.3 282.0 L 217.3 278.1 L 208.5 278.1 L 208.5 276.6 L 216.0 265.0 L 219.6 265.0 L 219.6 276.2 M 211.3 276.2 L 217.3 276.2 L 217.3 266.5 L 211.3 276.2 " fill="#000000"/>
<path class="atom-4" d="M 112.7 291.4 L 115.0 291.4 L 115.0 298.6 L 123.7 298.6 L 123.7 291.4 L 126.0 291.4 L 126.0 308.4 L 123.7 308.4 L 123.7 300.5 L 115.0 300.5 L 115.0 308.4 L 112.7 308.4 L 112.7 291.4 " fill="#000000"/>
<path class="atom-4" d="M 128.1 305.6 L 130.5 305.6 L 130.5 308.0 L 128.1 308.0 L 128.1 305.6 M 128.1 297.3 L 130.5 297.3 L 130.5 299.7 L 128.1 299.7 L 128.1 297.3 " fill="#000000"/>
<path class="atom-4" d="M 138.5 297.7 Q 139.9 297.7, 141.2 298.4 Q 142.4 299.0, 143.1 300.2 Q 143.8 301.4, 143.8 303.0 Q 143.8 304.7, 142.9 306.0 Q 142.1 307.3, 140.7 307.9 Q 139.3 308.6, 137.7 308.6 Q 136.2 308.6, 134.7 308.0 Q 133.3 307.4, 132.3 306.3 L 133.7 304.8 Q 134.5 305.7, 135.6 306.2 Q 136.7 306.6, 137.8 306.6 Q 139.3 306.6, 140.3 305.7 Q 141.4 304.7, 141.4 303.0 Q 141.4 301.2, 140.3 300.4 Q 139.3 299.5, 137.6 299.5 Q 136.2 299.5, 134.5 300.2 L 133.2 299.6 L 134.0 291.4 L 142.7 291.4 L 142.5 293.3 L 136.0 293.3 L 135.5 298.3 Q 137.0 297.7, 138.5 297.7 " fill="#000000"/>
<path class="atom-5" d="M 22.7 245.1 L 25.0 245.1 L 25.0 252.3 L 33.7 252.3 L 33.7 245.1 L 36.0 245.1 L 36.0 262.1 L 33.7 262.1 L 33.7 254.2 L 25.0 254.2 L 25.0 262.1 L 22.7 262.1 L 22.7 245.1 " fill="#000000"/>
<path class="atom-5" d="M 38.1 259.3 L 40.5 259.3 L 40.5 261.7 L 38.1 261.7 L 38.1 259.3 M 38.1 251.0 L 40.5 251.0 L 40.5 253.4 L 38.1 253.4 L 38.1 251.0 " fill="#000000"/>
<path class="atom-5" d="M 48.9 251.4 Q 50.4 251.4, 51.6 252.1 Q 52.8 252.7, 53.4 253.9 Q 54.1 255.1, 54.1 256.6 Q 54.1 258.2, 53.3 259.5 Q 52.6 260.8, 51.3 261.5 Q 50.0 262.3, 48.4 262.3 Q 45.3 262.3, 43.8 260.2 Q 42.3 258.2, 42.3 254.1 Q 42.3 249.5, 44.2 247.2 Q 46.1 244.9, 49.7 244.9 Q 50.8 244.9, 51.6 245.1 Q 52.6 245.3, 53.4 245.8 L 52.5 247.5 Q 51.2 246.8, 49.7 246.8 Q 47.3 246.8, 46.1 248.3 Q 44.9 249.9, 44.7 253.1 Q 45.6 252.3, 46.7 251.9 Q 47.8 251.4, 48.9 251.4 M 48.4 260.3 Q 49.3 260.3, 50.1 259.8 Q 50.8 259.3, 51.3 258.5 Q 51.7 257.6, 51.7 256.6 Q 51.7 255.1, 50.8 254.2 Q 50.0 253.4, 48.5 253.4 Q 47.5 253.4, 46.4 253.8 Q 45.4 254.2, 44.7 254.9 Q 44.8 257.7, 45.7 259.0 Q 46.6 260.3, 48.4 260.3 " fill="#000000"/>
<path class="atom-6" d="M 249.9 261.1 Q 249.9 256.9, 251.9 254.6 Q 253.9 252.4, 257.6 252.4 Q 261.2 252.4, 263.0 254.9 L 261.4 256.2 Q 260.1 254.4, 257.6 254.4 Q 255.1 254.4, 253.7 256.1 Q 252.4 257.8, 252.4 261.1 Q 252.4 264.4, 253.8 266.2 Q 255.2 267.9, 257.9 267.9 Q 259.8 267.9, 262.0 266.8 L 262.6 268.6 Q 261.8 269.2, 260.4 269.5 Q 259.1 269.8, 257.6 269.8 Q 253.9 269.8, 251.9 267.6 Q 249.9 265.3, 249.9 261.1 " fill="#000000"/>
<path class="atom-6" d="M 264.0 266.8 L 266.4 266.8 L 266.4 269.2 L 264.0 269.2 L 264.0 266.8 M 264.0 258.5 L 266.4 258.5 L 266.4 260.9 L 264.0 260.9 L 264.0 258.5 " fill="#000000"/>
<path class="atom-6" d="M 277.1 254.5 L 268.2 254.5 L 268.2 252.6 L 279.5 252.6 L 279.5 254.3 L 272.6 269.6 L 270.3 269.6 L 277.1 254.5 " fill="#000000"/>
<path class="atom-7" d="M 348.5 293.4 Q 348.5 289.2, 350.4 287.0 Q 352.4 284.7, 356.2 284.7 Q 359.7 284.7, 361.6 287.2 L 360.0 288.5 Q 358.6 286.7, 356.2 286.7 Q 353.6 286.7, 352.3 288.4 Q 350.9 290.1, 350.9 293.4 Q 350.9 296.8, 352.3 298.5 Q 353.7 300.2, 356.5 300.2 Q 358.3 300.2, 360.5 299.1 L 361.2 300.9 Q 360.3 301.5, 359.0 301.8 Q 357.6 302.2, 356.1 302.2 Q 352.4 302.2, 350.4 299.9 Q 348.5 297.6, 348.5 293.4 " fill="#000000"/>
<path class="atom-7" d="M 362.6 299.1 L 365.0 299.1 L 365.0 301.5 L 362.6 301.5 L 362.6 299.1 M 362.6 290.9 L 365.0 290.9 L 365.0 293.3 L 362.6 293.3 L 362.6 290.9 " fill="#000000"/>
<path class="atom-7" d="M 375.4 292.9 Q 377.0 293.6, 377.9 294.6 Q 378.8 295.6, 378.8 297.3 Q 378.8 298.7, 378.0 299.9 Q 377.3 301.0, 375.9 301.6 Q 374.6 302.2, 372.9 302.2 Q 370.0 302.2, 368.4 300.9 Q 366.8 299.6, 366.8 297.3 Q 366.8 295.9, 367.5 294.9 Q 368.2 293.8, 369.7 293.0 Q 368.6 292.4, 368.0 291.5 Q 367.4 290.5, 367.4 289.1 Q 367.4 287.1, 368.8 285.9 Q 370.3 284.7, 372.8 284.7 Q 375.2 284.7, 376.7 285.9 Q 378.1 287.1, 378.1 289.1 Q 378.1 290.3, 377.5 291.3 Q 376.8 292.2, 375.4 292.9 M 372.8 286.5 Q 371.3 286.5, 370.6 287.2 Q 369.8 287.9, 369.8 289.1 Q 369.8 290.0, 370.3 290.6 Q 370.8 291.2, 371.6 291.5 Q 372.4 291.8, 373.8 292.3 Q 374.9 291.6, 375.3 290.8 Q 375.7 290.1, 375.7 289.1 Q 375.7 287.9, 375.0 287.2 Q 374.2 286.5, 372.8 286.5 M 372.9 300.4 Q 374.4 300.4, 375.4 299.5 Q 376.4 298.7, 376.4 297.3 Q 376.4 296.3, 375.9 295.8 Q 375.4 295.2, 374.6 294.9 Q 373.8 294.5, 372.5 294.1 L 371.4 293.7 Q 370.2 294.4, 369.7 295.3 Q 369.2 296.2, 369.2 297.3 Q 369.2 298.7, 370.2 299.5 Q 371.2 300.4, 372.9 300.4 " fill="#000000"/>
<path class="atom-8" d="M 367.2 236.3 Q 367.2 232.1, 369.2 229.9 Q 371.2 227.6, 375.0 227.6 Q 378.5 227.6, 380.4 230.1 L 378.8 231.4 Q 377.4 229.6, 375.0 229.6 Q 372.4 229.6, 371.0 231.3 Q 369.7 233.0, 369.7 236.3 Q 369.7 239.7, 371.1 241.4 Q 372.5 243.1, 375.2 243.1 Q 377.1 243.1, 379.3 242.0 L 380.0 243.8 Q 379.1 244.4, 377.7 244.7 Q 376.4 245.0, 374.9 245.0 Q 371.2 245.0, 369.2 242.8 Q 367.2 240.5, 367.2 236.3 " fill="#000000"/>
<path class="atom-8" d="M 381.3 242.0 L 383.7 242.0 L 383.7 244.4 L 381.3 244.4 L 381.3 242.0 M 381.3 233.8 L 383.7 233.8 L 383.7 236.2 L 381.3 236.2 L 381.3 233.8 " fill="#000000"/>
<path class="atom-8" d="M 391.2 227.6 Q 394.3 227.6, 395.8 229.7 Q 397.3 231.7, 397.3 235.8 Q 397.3 240.3, 395.4 242.7 Q 393.6 245.0, 389.9 245.0 Q 388.9 245.0, 388.0 244.8 Q 387.1 244.5, 386.2 244.0 L 387.1 242.4 Q 388.4 243.1, 389.9 243.1 Q 392.3 243.1, 393.5 241.6 Q 394.8 240.0, 394.9 236.8 Q 394.0 237.6, 392.9 238.0 Q 391.9 238.4, 390.7 238.4 Q 389.2 238.4, 388.0 237.8 Q 386.8 237.1, 386.2 236.0 Q 385.5 234.8, 385.5 233.3 Q 385.5 231.6, 386.3 230.4 Q 387.0 229.1, 388.3 228.3 Q 389.6 227.6, 391.2 227.6 M 387.9 233.3 Q 387.9 234.8, 388.8 235.6 Q 389.6 236.5, 391.1 236.5 Q 392.1 236.5, 393.1 236.1 Q 394.2 235.7, 394.9 235.0 Q 394.8 232.1, 393.9 230.9 Q 393.0 229.6, 391.2 229.6 Q 390.3 229.6, 389.5 230.1 Q 388.8 230.6, 388.4 231.4 Q 387.9 232.2, 387.9 233.3 " fill="#000000"/>
<path class="atom-9" d="M 283.8 305.8 Q 283.8 301.6, 285.8 299.4 Q 287.8 297.1, 291.6 297.1 Q 295.1 297.1, 296.9 299.6 L 295.4 300.9 Q 294.0 299.1, 291.6 299.1 Q 289.0 299.1, 287.6 300.8 Q 286.3 302.5, 286.3 305.8 Q 286.3 309.2, 287.7 310.9 Q 289.1 312.6, 291.8 312.6 Q 293.7 312.6, 295.9 311.5 L 296.6 313.3 Q 295.7 313.9, 294.3 314.2 Q 293.0 314.6, 291.5 314.6 Q 287.8 314.6, 285.8 312.3 Q 283.8 310.0, 283.8 305.8 " fill="#000000"/>
<path class="atom-9" d="M 297.9 311.5 L 300.3 311.5 L 300.3 313.9 L 297.9 313.9 L 297.9 311.5 M 297.9 303.3 L 300.3 303.3 L 300.3 305.7 L 297.9 305.7 L 297.9 303.3 " fill="#000000"/>
<path class="atom-9" d="M 303.0 312.4 L 306.8 312.4 L 306.8 299.7 L 302.7 301.0 L 302.1 299.6 L 307.3 297.2 L 309.0 297.5 L 309.0 312.4 L 312.4 312.4 L 312.4 314.3 L 303.0 314.3 L 303.0 312.4 " fill="#000000"/>
<path class="atom-9" d="M 319.6 314.5 Q 316.5 314.5, 314.9 312.2 Q 313.4 309.9, 313.4 305.8 Q 313.4 301.7, 314.9 299.4 Q 316.5 297.1, 319.6 297.1 Q 322.8 297.1, 324.3 299.4 Q 325.8 301.7, 325.8 305.8 Q 325.8 309.9, 324.3 312.2 Q 322.7 314.5, 319.6 314.5 M 319.6 312.6 Q 321.5 312.6, 322.4 310.9 Q 323.4 309.2, 323.4 305.8 Q 323.4 302.5, 322.4 300.8 Q 321.5 299.0, 319.6 299.0 Q 317.8 299.0, 316.8 300.8 Q 315.8 302.5, 315.8 305.8 Q 315.8 309.2, 316.8 310.9 Q 317.8 312.6, 319.6 312.6 " fill="#000000"/>
<path class="atom-10" d="M 322.2 191.6 Q 322.2 187.3, 324.2 185.1 Q 326.2 182.9, 330.0 182.9 Q 333.5 182.9, 335.4 185.4 L 333.8 186.7 Q 332.4 184.9, 330.0 184.9 Q 327.4 184.9, 326.0 186.6 Q 324.7 188.3, 324.7 191.6 Q 324.7 194.9, 326.1 196.7 Q 327.5 198.4, 330.2 198.4 Q 332.1 198.4, 334.3 197.3 L 335.0 199.1 Q 334.1 199.7, 332.7 200.0 Q 331.4 200.3, 329.9 200.3 Q 326.2 200.3, 324.2 198.1 Q 322.2 195.8, 322.2 191.6 " fill="#000000"/>
<path class="atom-10" d="M 336.3 197.3 L 338.7 197.3 L 338.7 199.7 L 336.3 199.7 L 336.3 197.3 M 336.3 189.0 L 338.7 189.0 L 338.7 191.4 L 336.3 191.4 L 336.3 189.0 " fill="#000000"/>
<path class="atom-10" d="M 341.5 198.2 L 345.2 198.2 L 345.2 185.5 L 341.1 186.7 L 340.5 185.3 L 345.7 183.0 L 347.5 183.3 L 347.5 198.2 L 350.8 198.2 L 350.8 200.1 L 341.5 200.1 L 341.5 198.2 " fill="#000000"/>
<path class="atom-10" d="M 352.7 198.2 L 356.5 198.2 L 356.5 185.5 L 352.4 186.7 L 351.8 185.3 L 357.0 183.0 L 358.7 183.3 L 358.7 198.2 L 362.1 198.2 L 362.1 200.1 L 352.7 200.1 L 352.7 198.2 " fill="#000000"/>
<path class="atom-11" d="M 262.9 204.0 Q 262.9 199.7, 264.8 197.5 Q 266.8 195.3, 270.6 195.3 Q 274.1 195.3, 276.0 197.8 L 274.4 199.1 Q 273.0 197.3, 270.6 197.3 Q 268.0 197.3, 266.6 199.0 Q 265.3 200.7, 265.3 204.0 Q 265.3 207.3, 266.7 209.1 Q 268.1 210.8, 270.9 210.8 Q 272.7 210.8, 274.9 209.7 L 275.6 211.5 Q 274.7 212.0, 273.4 212.4 Q 272.0 212.7, 270.5 212.7 Q 266.8 212.7, 264.8 210.5 Q 262.9 208.2, 262.9 204.0 " fill="#000000"/>
<path class="atom-11" d="M 276.9 209.7 L 279.3 209.7 L 279.3 212.1 L 276.9 212.1 L 276.9 209.7 M 276.9 201.4 L 279.3 201.4 L 279.3 203.8 L 276.9 203.8 L 276.9 201.4 " fill="#000000"/>
<path class="atom-11" d="M 282.1 210.6 L 285.8 210.6 L 285.8 197.9 L 281.7 199.1 L 281.1 197.7 L 286.4 195.4 L 288.1 195.7 L 288.1 210.6 L 291.4 210.6 L 291.4 212.5 L 282.1 212.5 L 282.1 210.6 " fill="#000000"/>
<path class="atom-11" d="M 292.5 198.7 Q 293.1 197.1, 294.6 196.2 Q 296.1 195.3, 298.1 195.3 Q 300.7 195.3, 302.1 196.7 Q 303.6 198.1, 303.6 200.6 Q 303.6 203.1, 301.7 205.4 Q 299.9 207.8, 296.0 210.6 L 303.9 210.6 L 303.9 212.5 L 292.4 212.5 L 292.4 210.9 Q 295.6 208.6, 297.5 207.0 Q 299.4 205.3, 300.3 203.8 Q 301.2 202.2, 301.2 200.7 Q 301.2 199.0, 300.4 198.1 Q 299.6 197.2, 298.1 197.2 Q 296.8 197.2, 295.8 197.8 Q 294.9 198.3, 294.3 199.5 L 292.5 198.7 " fill="#000000"/>
<path class="atom-12" d="M 179.4 330.6 Q 179.4 326.5, 181.4 324.2 Q 183.5 321.9, 187.2 321.9 Q 191.0 321.9, 193.0 324.2 Q 195.1 326.5, 195.1 330.6 Q 195.1 334.7, 193.0 337.1 Q 191.0 339.4, 187.2 339.4 Q 183.5 339.4, 181.4 337.1 Q 179.4 334.7, 179.4 330.6 M 187.2 337.5 Q 189.8 337.5, 191.2 335.7 Q 192.6 334.0, 192.6 330.6 Q 192.6 327.2, 191.2 325.5 Q 189.8 323.8, 187.2 323.8 Q 184.6 323.8, 183.2 325.5 Q 181.8 327.2, 181.8 330.6 Q 181.8 334.0, 183.2 335.7 Q 184.6 337.5, 187.2 337.5 " fill="#FF0000"/>
<path class="atom-12" d="M 196.3 336.3 L 198.7 336.3 L 198.7 338.7 L 196.3 338.7 L 196.3 336.3 M 196.3 328.0 L 198.7 328.0 L 198.7 330.4 L 196.3 330.4 L 196.3 328.0 " fill="#FF0000"/>
<path class="atom-12" d="M 201.4 337.2 L 205.1 337.2 L 205.1 324.5 L 201.0 325.8 L 200.5 324.3 L 205.7 322.0 L 207.4 322.3 L 207.4 337.2 L 210.7 337.2 L 210.7 339.1 L 201.4 339.1 L 201.4 337.2 " fill="#FF0000"/>
<path class="atom-12" d="M 219.9 330.2 Q 221.6 330.6, 222.4 331.7 Q 223.2 332.8, 223.2 334.5 Q 223.2 335.9, 222.5 337.0 Q 221.7 338.1, 220.4 338.8 Q 219.1 339.4, 217.4 339.4 Q 215.5 339.4, 214.2 338.7 Q 212.8 338.1, 211.7 336.8 L 213.1 335.4 Q 214.2 336.5, 215.0 337.0 Q 215.9 337.4, 217.4 337.4 Q 218.9 337.4, 219.8 336.6 Q 220.8 335.8, 220.8 334.4 Q 220.8 332.7, 219.8 331.9 Q 218.8 331.1, 216.7 331.1 L 215.5 331.1 L 215.5 329.4 L 216.6 329.4 Q 218.4 329.4, 219.4 328.6 Q 220.4 327.8, 220.4 326.3 Q 220.4 325.2, 219.6 324.5 Q 218.8 323.8, 217.4 323.8 Q 216.0 323.8, 215.1 324.3 Q 214.2 324.8, 213.5 326.1 L 211.9 325.2 Q 212.5 323.8, 213.9 322.9 Q 215.4 321.9, 217.4 321.9 Q 219.9 321.9, 221.3 323.1 Q 222.8 324.3, 222.8 326.3 Q 222.8 327.6, 222.1 328.6 Q 221.3 329.6, 219.9 330.2 " fill="#FF0000"/>
<path class="atom-13" d="M 279.5 354.4 L 281.8 354.4 L 281.8 361.6 L 290.5 361.6 L 290.5 354.4 L 292.8 354.4 L 292.8 371.4 L 290.5 371.4 L 290.5 363.5 L 281.8 363.5 L 281.8 371.4 L 279.5 371.4 L 279.5 354.4 " fill="#000000"/>
<path class="atom-13" d="M 294.9 368.6 L 297.3 368.6 L 297.3 371.0 L 294.9 371.0 L 294.9 368.6 M 294.9 360.3 L 297.3 360.3 L 297.3 362.7 L 294.9 362.7 L 294.9 360.3 " fill="#000000"/>
<path class="atom-13" d="M 300.0 369.5 L 303.7 369.5 L 303.7 356.8 L 299.6 358.0 L 299.1 356.6 L 304.3 354.3 L 306.0 354.6 L 306.0 369.5 L 309.3 369.5 L 309.3 371.4 L 300.0 371.4 L 300.0 369.5 " fill="#000000"/>
<path class="atom-13" d="M 321.4 365.6 L 323.4 365.6 L 323.4 367.5 L 321.4 367.5 L 321.4 371.4 L 319.1 371.4 L 319.1 367.5 L 310.3 367.5 L 310.3 366.0 L 317.8 354.4 L 321.4 354.4 L 321.4 365.6 M 313.1 365.6 L 319.1 365.6 L 319.1 355.9 L 313.1 365.6 " fill="#000000"/>
<path class="atom-14" d="M 354.2 125.9 L 356.5 125.9 L 356.5 133.2 L 365.2 133.2 L 365.2 125.9 L 367.5 125.9 L 367.5 142.9 L 365.2 142.9 L 365.2 135.1 L 356.5 135.1 L 356.5 142.9 L 354.2 142.9 L 354.2 125.9 " fill="#000000"/>
<path class="atom-14" d="M 369.5 140.1 L 371.9 140.1 L 371.9 142.5 L 369.5 142.5 L 369.5 140.1 M 369.5 131.9 L 371.9 131.9 L 371.9 134.3 L 369.5 134.3 L 369.5 131.9 " fill="#000000"/>
<path class="atom-14" d="M 374.7 141.0 L 378.4 141.0 L 378.4 128.3 L 374.3 129.6 L 373.7 128.2 L 378.9 125.8 L 380.6 126.1 L 380.6 141.0 L 384.0 141.0 L 384.0 142.9 L 374.7 142.9 L 374.7 141.0 " fill="#000000"/>
<path class="atom-14" d="M 391.2 132.3 Q 392.7 132.3, 393.9 133.0 Q 395.1 133.6, 395.8 134.8 Q 396.5 136.0, 396.5 137.6 Q 396.5 139.3, 395.6 140.6 Q 394.8 141.8, 393.4 142.5 Q 392.0 143.1, 390.4 143.1 Q 388.9 143.1, 387.4 142.6 Q 386.0 142.0, 385.0 140.9 L 386.4 139.4 Q 387.2 140.3, 388.3 140.7 Q 389.4 141.2, 390.5 141.2 Q 392.0 141.2, 393.1 140.3 Q 394.1 139.3, 394.1 137.6 Q 394.1 135.8, 393.1 135.0 Q 392.0 134.1, 390.4 134.1 Q 388.9 134.1, 387.2 134.8 L 385.9 134.1 L 386.7 125.9 L 395.5 125.9 L 395.2 127.9 L 388.7 127.9 L 388.2 132.9 Q 389.7 132.3, 391.2 132.3 " fill="#000000"/>
<path class="atom-15" d="M 206.5 150.8 L 208.8 150.8 L 208.8 158.0 L 217.5 158.0 L 217.5 150.8 L 219.8 150.8 L 219.8 167.8 L 217.5 167.8 L 217.5 159.9 L 208.8 159.9 L 208.8 167.8 L 206.5 167.8 L 206.5 150.8 " fill="#000000"/>
<path class="atom-15" d="M 221.9 165.0 L 224.3 165.0 L 224.3 167.4 L 221.9 167.4 L 221.9 165.0 M 221.9 156.7 L 224.3 156.7 L 224.3 159.1 L 221.9 159.1 L 221.9 156.7 " fill="#000000"/>
<path class="atom-15" d="M 227.0 165.9 L 230.7 165.9 L 230.7 153.1 L 226.6 154.4 L 226.1 153.0 L 231.3 150.7 L 233.0 151.0 L 233.0 165.9 L 236.3 165.9 L 236.3 167.8 L 227.0 167.8 L 227.0 165.9 " fill="#000000"/>
<path class="atom-15" d="M 244.0 157.2 Q 245.5 157.2, 246.7 157.8 Q 247.8 158.5, 248.5 159.6 Q 249.1 160.8, 249.1 162.3 Q 249.1 164.0, 248.4 165.3 Q 247.7 166.5, 246.4 167.3 Q 245.1 168.0, 243.4 168.0 Q 240.4 168.0, 238.8 165.9 Q 237.3 163.9, 237.3 159.8 Q 237.3 155.3, 239.2 152.9 Q 241.1 150.6, 244.7 150.6 Q 245.8 150.6, 246.7 150.8 Q 247.6 151.1, 248.5 151.6 L 247.5 153.2 Q 246.3 152.5, 244.8 152.5 Q 242.4 152.5, 241.1 154.1 Q 239.9 155.6, 239.8 158.8 Q 240.6 158.0, 241.7 157.6 Q 242.8 157.2, 244.0 157.2 M 243.4 166.0 Q 244.4 166.0, 245.1 165.5 Q 245.9 165.0, 246.3 164.2 Q 246.7 163.4, 246.7 162.3 Q 246.7 160.8, 245.9 159.9 Q 245.0 159.1, 243.6 159.1 Q 242.5 159.1, 241.5 159.5 Q 240.5 159.9, 239.8 160.6 Q 239.9 163.5, 240.7 164.7 Q 241.6 166.0, 243.4 166.0 " fill="#000000"/>
<path class="atom-16" d="M 397.1 329.6 L 399.4 329.6 L 399.4 336.8 L 408.1 336.8 L 408.1 329.6 L 410.4 329.6 L 410.4 346.6 L 408.1 346.6 L 408.1 338.8 L 399.4 338.8 L 399.4 346.6 L 397.1 346.6 L 397.1 329.6 " fill="#000000"/>
<path class="atom-16" d="M 412.4 343.8 L 414.9 343.8 L 414.9 346.2 L 412.4 346.2 L 412.4 343.8 M 412.4 335.5 L 414.9 335.5 L 414.9 337.9 L 412.4 337.9 L 412.4 335.5 " fill="#000000"/>
<path class="atom-16" d="M 417.6 344.7 L 421.3 344.7 L 421.3 332.0 L 417.2 333.3 L 416.7 331.8 L 421.9 329.5 L 423.6 329.8 L 423.6 344.7 L 426.9 344.7 L 426.9 346.6 L 417.6 346.6 L 417.6 344.7 " fill="#000000"/>
<path class="atom-16" d="M 436.8 331.5 L 427.9 331.5 L 427.9 329.6 L 439.2 329.6 L 439.2 331.3 L 432.3 346.6 L 430.0 346.6 L 436.8 331.5 " fill="#000000"/>
<path class="atom-17" d="M 434.4 215.4 L 436.7 215.4 L 436.7 222.7 L 445.4 222.7 L 445.4 215.4 L 447.7 215.4 L 447.7 232.4 L 445.4 232.4 L 445.4 224.6 L 436.7 224.6 L 436.7 232.4 L 434.4 232.4 L 434.4 215.4 " fill="#000000"/>
<path class="atom-17" d="M 449.8 229.6 L 452.2 229.6 L 452.2 232.0 L 449.8 232.0 L 449.8 229.6 M 449.8 221.4 L 452.2 221.4 L 452.2 223.8 L 449.8 223.8 L 449.8 221.4 " fill="#000000"/>
<path class="atom-17" d="M 454.9 230.5 L 458.6 230.5 L 458.6 217.8 L 454.5 219.1 L 454.0 217.7 L 459.2 215.3 L 460.9 215.6 L 460.9 230.5 L 464.2 230.5 L 464.2 232.4 L 454.9 232.4 L 454.9 230.5 " fill="#000000"/>
<path class="atom-17" d="M 473.9 223.4 Q 475.5 224.1, 476.4 225.1 Q 477.3 226.1, 477.3 227.8 Q 477.3 229.2, 476.5 230.3 Q 475.8 231.5, 474.4 232.1 Q 473.1 232.7, 471.4 232.7 Q 468.5 232.7, 466.9 231.4 Q 465.3 230.1, 465.3 227.8 Q 465.3 226.4, 466.0 225.3 Q 466.7 224.3, 468.2 223.5 Q 467.1 222.9, 466.5 222.0 Q 465.9 221.0, 465.9 219.6 Q 465.9 217.6, 467.3 216.4 Q 468.8 215.2, 471.3 215.2 Q 473.7 215.2, 475.2 216.4 Q 476.6 217.6, 476.6 219.6 Q 476.6 220.8, 476.0 221.8 Q 475.3 222.7, 473.9 223.4 M 471.3 217.0 Q 469.8 217.0, 469.1 217.7 Q 468.3 218.4, 468.3 219.6 Q 468.3 220.5, 468.8 221.1 Q 469.3 221.6, 470.1 222.0 Q 470.9 222.3, 472.3 222.8 Q 473.4 222.1, 473.8 221.3 Q 474.2 220.6, 474.2 219.6 Q 474.2 218.4, 473.5 217.7 Q 472.7 217.0, 471.3 217.0 M 471.4 230.9 Q 472.9 230.9, 473.9 230.0 Q 474.9 229.2, 474.9 227.8 Q 474.9 226.8, 474.4 226.3 Q 473.9 225.7, 473.1 225.3 Q 472.3 225.0, 471.0 224.6 L 469.9 224.2 Q 468.7 224.9, 468.2 225.8 Q 467.7 226.6, 467.7 227.8 Q 467.7 229.2, 468.7 230.0 Q 469.7 230.9, 471.4 230.9 " fill="#000000"/>
<text x="136.3807684828646" y="234.87735448221258" font-size="12" font-family="Verdana" font-weight="bold" letter-spacing="0" text-anchor="start" fill="black" transform=" rotate(78.097928 136.380768 234.877354)">0.0076</text><text x="25" y="490" font-size="12" font-family="Verdana" font-weight="bold" letter-spacing="0" text-anchor="start" fill="black">[H:1]-[#6:2](-[#8:3]-[#6:4](-[#6:7]1:[#6:10](:[#6:8](:[#6:9](:[#6:11](:[#6:12]:1-[H:16])-[H:15])-[H:18])-[H:17])-[H:14])=[#8:13])(-[H:5])-[H:6]</text></svg>
