<?xml version='1.0' encoding='ASCII' standalone='yes'?>
<svg xmlns="http://www.w3.org/2000/svg" xmlns:rdkit="http://www.rdkit.org/xml" xmlns:xlink="http://www.w3.org/1999/xlink" version="1.1" baseProfile="full" xml:space="preserve" width="500px" height="500px" viewBox="0 0 500 500">
<!-- END OF HEADER -->
<rect style="opacity:1.0;fill:#FFFFFF;stroke:none" width="500" height="500" x="0" y="0"> </rect>
<path d="M 115.278,242.619 L 172.795,230.496" style="fill:none;fill-rule:evenodd;stroke:#FF7F7F;stroke-width:12.5px;stroke-linecap:butt;stroke-linejoin:miter;stroke-opacity:1"/>
<path class="bond-0 atom-1 atom-0" d="M 113.194,232.732 L 105.176,194.689" style="fill:none;fill-rule:evenodd;stroke:#000000;stroke-width:2.0px;stroke-linecap:butt;stroke-linejoin:miter;stroke-opacity:1"/>
<path class="bond-1 atom-1 atom-11" d="M 117.362,252.506 L 125.41,290.69" style="fill:none;fill-rule:evenodd;stroke:#000000;stroke-width:2.0px;stroke-linecap:butt;stroke-linejoin:miter;stroke-opacity:1"/>
<path class="bond-2 atom-1 atom-12" d="M 94.1345,247.075 L 64.286,253.367" style="fill:none;fill-rule:evenodd;stroke:#000000;stroke-width:2.0px;stroke-linecap:butt;stroke-linejoin:miter;stroke-opacity:1"/>
<path class="bond-3 atom-2 atom-1" d="M 149.483,235.41 L 137.652,237.903" style="fill:none;fill-rule:evenodd;stroke:#FF0000;stroke-width:2.0px;stroke-linecap:butt;stroke-linejoin:miter;stroke-opacity:1"/>
<path class="bond-3 atom-2 atom-1" d="M 137.652,237.903 L 125.821,240.397" style="fill:none;fill-rule:evenodd;stroke:#000000;stroke-width:2.0px;stroke-linecap:butt;stroke-linejoin:miter;stroke-opacity:1"/>
<path class="bond-4 atom-3 atom-2" d="M 203.181,264.359 L 192.38,252.322" style="fill:none;fill-rule:evenodd;stroke:#000000;stroke-width:2.0px;stroke-linecap:butt;stroke-linejoin:miter;stroke-opacity:1"/>
<path class="bond-4 atom-3 atom-2" d="M 192.38,252.322 L 181.58,240.286" style="fill:none;fill-rule:evenodd;stroke:#FF0000;stroke-width:2.0px;stroke-linecap:butt;stroke-linejoin:miter;stroke-opacity:1"/>
<path class="bond-5 atom-3 atom-10" d="M 203.234,282.307 L 197.293,300.486" style="fill:none;fill-rule:evenodd;stroke:#000000;stroke-width:2.0px;stroke-linecap:butt;stroke-linejoin:miter;stroke-opacity:1"/>
<path class="bond-5 atom-3 atom-10" d="M 197.293,300.486 L 191.352,318.666" style="fill:none;fill-rule:evenodd;stroke:#FF0000;stroke-width:2.0px;stroke-linecap:butt;stroke-linejoin:miter;stroke-opacity:1"/>
<path class="bond-5 atom-3 atom-10" d="M 214.409,285.959 L 208.468,304.138" style="fill:none;fill-rule:evenodd;stroke:#000000;stroke-width:2.0px;stroke-linecap:butt;stroke-linejoin:miter;stroke-opacity:1"/>
<path class="bond-5 atom-3 atom-10" d="M 208.468,304.138 L 202.526,322.318" style="fill:none;fill-rule:evenodd;stroke:#FF0000;stroke-width:2.0px;stroke-linecap:butt;stroke-linejoin:miter;stroke-opacity:1"/>
<path class="bond-7 atom-4 atom-3" d="M 248.438,266.577 L 223.271,271.881" style="fill:none;fill-rule:evenodd;stroke:#000000;stroke-width:2.0px;stroke-linecap:butt;stroke-linejoin:miter;stroke-opacity:1"/>
<path class="bond-6 atom-4 atom-9" d="M 272.74,252.424 L 284.682,215.882" style="fill:none;fill-rule:evenodd;stroke:#000000;stroke-width:2.0px;stroke-linecap:butt;stroke-linejoin:miter;stroke-opacity:1"/>
<path class="bond-6 atom-4 atom-9" d="M 285.706,250.595 L 294.065,225.015" style="fill:none;fill-rule:evenodd;stroke:#000000;stroke-width:2.0px;stroke-linecap:butt;stroke-linejoin:miter;stroke-opacity:1"/>
<path class="bond-13 atom-7 atom-4" d="M 299.956,295.986 L 278.312,271.866" style="fill:none;fill-rule:evenodd;stroke:#000000;stroke-width:2.0px;stroke-linecap:butt;stroke-linejoin:miter;stroke-opacity:1"/>
<path class="bond-8 atom-5 atom-6" d="M 369.576,283.863 L 381.458,247.504" style="fill:none;fill-rule:evenodd;stroke:#000000;stroke-width:2.0px;stroke-linecap:butt;stroke-linejoin:miter;stroke-opacity:1"/>
<path class="bond-9 atom-5 atom-7" d="M 344.923,298.265 L 319.923,303.534" style="fill:none;fill-rule:evenodd;stroke:#000000;stroke-width:2.0px;stroke-linecap:butt;stroke-linejoin:miter;stroke-opacity:1"/>
<path class="bond-9 atom-5 atom-7" d="M 338.748,287.552 L 321.248,291.24" style="fill:none;fill-rule:evenodd;stroke:#000000;stroke-width:2.0px;stroke-linecap:butt;stroke-linejoin:miter;stroke-opacity:1"/>
<path class="bond-10 atom-5 atom-16" d="M 375.385,303.825 L 397.958,328.981" style="fill:none;fill-rule:evenodd;stroke:#000000;stroke-width:2.0px;stroke-linecap:butt;stroke-linejoin:miter;stroke-opacity:1"/>
<path class="bond-11 atom-6 atom-8" d="M 375.733,227.99 L 354.09,203.87" style="fill:none;fill-rule:evenodd;stroke:#000000;stroke-width:2.0px;stroke-linecap:butt;stroke-linejoin:miter;stroke-opacity:1"/>
<path class="bond-11 atom-6 atom-8" d="M 363.736,232.224 L 348.586,215.34" style="fill:none;fill-rule:evenodd;stroke:#000000;stroke-width:2.0px;stroke-linecap:butt;stroke-linejoin:miter;stroke-opacity:1"/>
<path class="bond-12 atom-6 atom-17" d="M 395.146,235.655 L 434.409,227.38" style="fill:none;fill-rule:evenodd;stroke:#000000;stroke-width:2.0px;stroke-linecap:butt;stroke-linejoin:miter;stroke-opacity:1"/>
<path class="bond-14 atom-7 atom-13" d="M 305.727,315.36 L 293.671,352.249" style="fill:none;fill-rule:evenodd;stroke:#000000;stroke-width:2.0px;stroke-linecap:butt;stroke-linejoin:miter;stroke-opacity:1"/>
<path class="bond-15 atom-8 atom-9" d="M 324.027,198.621 L 304.746,202.685" style="fill:none;fill-rule:evenodd;stroke:#000000;stroke-width:2.0px;stroke-linecap:butt;stroke-linejoin:miter;stroke-opacity:1"/>
<path class="bond-16 atom-8 atom-14" d="M 348.578,184.24 L 360.476,147.834" style="fill:none;fill-rule:evenodd;stroke:#000000;stroke-width:2.0px;stroke-linecap:butt;stroke-linejoin:miter;stroke-opacity:1"/>
<path class="bond-17 atom-9 atom-15" d="M 279.042,196.457 L 255.485,170.204" style="fill:none;fill-rule:evenodd;stroke:#000000;stroke-width:2.0px;stroke-linecap:butt;stroke-linejoin:miter;stroke-opacity:1"/>
<path class="atom-0" d="M 96.6421 176.825 L 98.8993 176.825 L 98.8993 183.903 L 107.411 183.903 L 107.411 176.825 L 109.668 176.825 L 109.668 193.472 L 107.411 193.472 L 107.411 185.784 L 98.8993 185.784 L 98.8993 193.472 L 96.6421 193.472 L 96.6421 176.825 " fill="#000000"/>
<path class="atom-0" d="M 111.431 190.721 L 113.783 190.721 L 113.783 193.072 L 111.431 193.072 L 111.431 190.721 M 111.431 182.633 L 113.783 182.633 L 113.783 184.984 L 111.431 184.984 L 111.431 182.633 " fill="#000000"/>
<path class="atom-0" d="M 115.969 191.591 L 119.614 191.591 L 119.614 179.153 L 115.593 180.399 L 115.052 179.012 L 120.154 176.731 L 121.824 177.013 L 121.824 191.591 L 125.092 191.591 L 125.092 193.472 L 115.969 193.472 L 115.969 191.591 " fill="#000000"/>
<path class="atom-1" d="M 95.604 242.689 Q 95.604 238.551, 97.532 236.388 Q 99.4835 234.202, 103.175 234.202 Q 106.608 234.202, 108.442 236.623 L 106.89 237.893 Q 105.55 236.13, 103.175 236.13 Q 100.659 236.13, 99.319 237.822 Q 98.0023 239.492, 98.0023 242.689 Q 98.0023 245.981, 99.366 247.674 Q 100.753 249.367, 103.434 249.367 Q 105.268 249.367, 107.407 248.262 L 108.066 250.025 Q 107.196 250.59, 105.879 250.919 Q 104.562 251.248, 103.104 251.248 Q 99.4835 251.248, 97.532 249.038 Q 95.604 246.828, 95.604 242.689 " fill="#000000"/>
<path class="atom-1" d="M 110.205 248.285 L 112.556 248.285 L 112.556 250.637 L 110.205 250.637 L 110.205 248.285 M 110.205 240.197 L 112.556 240.197 L 112.556 242.548 L 110.205 242.548 L 110.205 240.197 " fill="#000000"/>
<path class="atom-1" d="M 113.779 237.54 Q 114.39 235.965, 115.848 235.095 Q 117.306 234.202, 119.328 234.202 Q 121.844 234.202, 123.255 235.565 Q 124.665 236.929, 124.665 239.351 Q 124.665 241.82, 122.831 244.124 Q 121.021 246.428, 117.259 249.155 L 124.947 249.155 L 124.947 251.036 L 113.732 251.036 L 113.732 249.461 Q 116.836 247.251, 118.67 245.605 Q 120.527 243.959, 121.421 242.478 Q 122.314 240.997, 122.314 239.468 Q 122.314 237.869, 121.515 236.976 Q 120.715 236.083, 119.328 236.083 Q 117.988 236.083, 117.094 236.623 Q 116.201 237.164, 115.566 238.363 L 113.779 237.54 " fill="#000000"/>
<path class="atom-2" d="M 150.952 230.543 Q 150.952 226.546, 152.927 224.312 Q 154.902 222.079, 158.594 222.079 Q 162.285 222.079, 164.26 224.312 Q 166.235 226.546, 166.235 230.543 Q 166.235 234.587, 164.237 236.891 Q 162.238 239.172, 158.594 239.172 Q 154.926 239.172, 152.927 236.891 Q 150.952 234.611, 150.952 230.543 M 158.594 237.291 Q 161.133 237.291, 162.497 235.598 Q 163.884 233.882, 163.884 230.543 Q 163.884 227.275, 162.497 225.629 Q 161.133 223.96, 158.594 223.96 Q 156.054 223.96, 154.667 225.605 Q 153.303 227.251, 153.303 230.543 Q 153.303 233.905, 154.667 235.598 Q 156.054 237.291, 158.594 237.291 " fill="#FF0000"/>
<path class="atom-2" d="M 167.999 236.162 L 170.35 236.162 L 170.35 238.514 L 167.999 238.514 L 167.999 236.162 M 167.999 228.074 L 170.35 228.074 L 170.35 230.425 L 167.999 230.425 L 167.999 228.074 " fill="#FF0000"/>
<path class="atom-2" d="M 179.332 230.143 Q 180.954 230.614, 181.73 231.672 Q 182.529 232.706, 182.529 234.352 Q 182.529 235.763, 181.824 236.868 Q 181.119 237.949, 179.825 238.561 Q 178.532 239.149, 176.839 239.149 Q 175.052 239.149, 173.712 238.537 Q 172.396 237.902, 171.337 236.633 L 172.678 235.269 Q 173.712 236.398, 174.582 236.844 Q 175.452 237.268, 176.839 237.268 Q 178.344 237.268, 179.261 236.468 Q 180.178 235.645, 180.178 234.329 Q 180.178 232.636, 179.214 231.883 Q 178.274 231.107, 176.228 231.107 L 175.029 231.107 L 175.029 229.414 L 176.087 229.414 Q 177.897 229.391, 178.861 228.615 Q 179.825 227.816, 179.825 226.334 Q 179.825 225.253, 179.026 224.618 Q 178.227 223.96, 176.863 223.96 Q 175.476 223.96, 174.606 224.453 Q 173.759 224.947, 173.101 226.193 L 171.479 225.323 Q 172.066 223.936, 173.477 223.019 Q 174.888 222.079, 176.863 222.079 Q 179.308 222.079, 180.742 223.231 Q 182.177 224.383, 182.177 226.334 Q 182.177 227.675, 181.448 228.639 Q 180.719 229.603, 179.332 230.143 " fill="#FF0000"/>
<path class="atom-3" d="M 191.869 274.316 Q 191.869 270.178, 193.797 268.015 Q 195.749 265.828, 199.44 265.828 Q 202.873 265.828, 204.707 268.25 L 203.155 269.52 Q 201.815 267.757, 199.44 267.757 Q 196.924 267.757, 195.584 269.449 Q 194.268 271.119, 194.268 274.316 Q 194.268 277.608, 195.631 279.301 Q 197.018 280.994, 199.699 280.994 Q 201.533 280.994, 203.672 279.889 L 204.331 281.652 Q 203.461 282.217, 202.144 282.546 Q 200.827 282.875, 199.37 282.875 Q 195.749 282.875, 193.797 280.665 Q 191.869 278.455, 191.869 274.316 " fill="#000000"/>
<path class="atom-3" d="M 206.47 279.912 L 208.822 279.912 L 208.822 282.264 L 206.47 282.264 L 206.47 279.912 M 206.47 271.824 L 208.822 271.824 L 208.822 274.175 L 206.47 274.175 L 206.47 271.824 " fill="#000000"/>
<path class="atom-3" d="M 220.343 276.95 L 222.341 276.95 L 222.341 278.831 L 220.343 278.831 L 220.343 282.663 L 218.133 282.663 L 218.133 278.831 L 209.527 278.831 L 209.527 277.35 L 216.816 266.017 L 220.343 266.017 L 220.343 276.95 M 212.254 276.95 L 218.133 276.95 L 218.133 267.521 L 212.254 276.95 " fill="#000000"/>
<path class="atom-4" d="M 249.908 262.193 Q 249.908 258.055, 251.836 255.892 Q 253.787 253.706, 257.479 253.706 Q 260.911 253.706, 262.745 256.127 L 261.194 257.397 Q 259.853 255.634, 257.479 255.634 Q 254.963 255.634, 253.623 257.326 Q 252.306 258.996, 252.306 262.193 Q 252.306 265.485, 253.67 267.178 Q 255.057 268.871, 257.737 268.871 Q 259.571 268.871, 261.711 267.766 L 262.369 269.529 Q 261.499 270.094, 260.183 270.423 Q 258.866 270.752, 257.408 270.752 Q 253.787 270.752, 251.836 268.542 Q 249.908 266.332, 249.908 262.193 " fill="#000000"/>
<path class="atom-4" d="M 264.509 267.789 L 266.86 267.789 L 266.86 270.141 L 264.509 270.141 L 264.509 267.789 M 264.509 259.701 L 266.86 259.701 L 266.86 262.052 L 264.509 262.052 L 264.509 259.701 " fill="#000000"/>
<path class="atom-4" d="M 273.984 260.124 Q 275.442 260.124, 276.641 260.759 Q 277.84 261.371, 278.522 262.546 Q 279.204 263.698, 279.204 265.274 Q 279.204 266.99, 278.358 268.236 Q 277.535 269.459, 276.171 270.094 Q 274.807 270.728, 273.255 270.728 Q 271.727 270.728, 270.316 270.164 Q 268.906 269.6, 267.942 268.518 L 269.352 267.061 Q 270.128 267.907, 271.186 268.377 Q 272.244 268.824, 273.326 268.824 Q 274.807 268.824, 275.818 267.907 Q 276.853 266.99, 276.853 265.321 Q 276.853 263.557, 275.818 262.734 Q 274.807 261.888, 273.185 261.888 Q 271.727 261.888, 270.105 262.523 L 268.812 261.911 L 269.611 253.894 L 278.17 253.894 L 277.934 255.775 L 271.539 255.775 L 271.045 260.712 Q 272.527 260.124, 273.984 260.124 " fill="#000000"/>
<path class="atom-5" d="M 346.392 293.82 Q 346.392 289.682, 348.32 287.519 Q 350.272 285.332, 353.963 285.332 Q 357.396 285.332, 359.23 287.754 L 357.678 289.024 Q 356.338 287.261, 353.963 287.261 Q 351.448 287.261, 350.107 288.953 Q 348.791 290.623, 348.791 293.82 Q 348.791 297.112, 350.154 298.805 Q 351.542 300.498, 354.222 300.498 Q 356.056 300.498, 358.196 299.393 L 358.854 301.156 Q 357.984 301.721, 356.667 302.05 Q 355.351 302.379, 353.893 302.379 Q 350.272 302.379, 348.32 300.169 Q 346.392 297.959, 346.392 293.82 " fill="#000000"/>
<path class="atom-5" d="M 360.994 299.416 L 363.345 299.416 L 363.345 301.768 L 360.994 301.768 L 360.994 299.416 M 360.994 291.328 L 363.345 291.328 L 363.345 293.679 L 360.994 293.679 L 360.994 291.328 " fill="#000000"/>
<path class="atom-5" d="M 371.457 291.775 Q 372.914 291.775, 374.066 292.41 Q 375.219 293.045, 375.853 294.197 Q 376.488 295.349, 376.488 296.807 Q 376.488 298.429, 375.759 299.699 Q 375.054 300.945, 373.784 301.65 Q 372.515 302.355, 370.892 302.355 Q 367.93 302.355, 366.425 300.357 Q 364.944 298.335, 364.944 294.338 Q 364.944 289.917, 366.778 287.637 Q 368.635 285.332, 372.185 285.332 Q 373.22 285.332, 374.09 285.568 Q 374.983 285.803, 375.83 286.297 L 374.913 287.872 Q 373.69 287.213, 372.209 287.213 Q 369.858 287.213, 368.659 288.742 Q 367.459 290.247, 367.318 293.374 Q 368.165 292.598, 369.223 292.198 Q 370.304 291.775, 371.457 291.775 M 370.916 300.427 Q 371.809 300.427, 372.538 299.957 Q 373.291 299.487, 373.714 298.664 Q 374.137 297.841, 374.137 296.83 Q 374.137 295.349, 373.314 294.502 Q 372.491 293.656, 371.033 293.656 Q 370.022 293.656, 369.011 294.079 Q 368.024 294.479, 367.318 295.184 Q 367.412 297.935, 368.282 299.181 Q 369.152 300.427, 370.916 300.427 " fill="#000000"/>
<path class="atom-6" d="M 365.25 237.948 Q 365.25 233.809, 367.178 231.646 Q 369.129 229.46, 372.821 229.46 Q 376.254 229.46, 378.088 231.881 L 376.536 233.151 Q 375.196 231.388, 372.821 231.388 Q 370.305 231.388, 368.965 233.081 Q 367.648 234.75, 367.648 237.948 Q 367.648 241.239, 369.012 242.932 Q 370.399 244.625, 373.079 244.625 Q 374.913 244.625, 377.053 243.52 L 377.711 245.283 Q 376.841 245.848, 375.525 246.177 Q 374.208 246.506, 372.75 246.506 Q 369.129 246.506, 367.178 244.296 Q 365.25 242.086, 365.25 237.948 " fill="#000000"/>
<path class="atom-6" d="M 379.851 243.544 L 382.202 243.544 L 382.202 245.895 L 379.851 245.895 L 379.851 243.544 M 379.851 235.455 L 382.202 235.455 L 382.202 237.807 L 379.851 237.807 L 379.851 235.455 " fill="#000000"/>
<path class="atom-6" d="M 391.349 231.529 L 382.625 231.529 L 382.625 229.648 L 393.676 229.648 L 393.676 231.317 L 386.952 246.294 L 384.695 246.294 L 391.349 231.529 " fill="#000000"/>
<path class="atom-7" d="M 288.834 305.943 Q 288.834 301.805, 290.762 299.642 Q 292.714 297.455, 296.405 297.455 Q 299.838 297.455, 301.672 299.877 L 300.12 301.147 Q 298.78 299.383, 296.405 299.383 Q 293.889 299.383, 292.549 301.076 Q 291.232 302.746, 291.232 305.943 Q 291.232 309.235, 292.596 310.928 Q 293.983 312.621, 296.664 312.621 Q 298.498 312.621, 300.637 311.516 L 301.296 313.279 Q 300.426 313.844, 299.109 314.173 Q 297.792 314.502, 296.334 314.502 Q 292.714 314.502, 290.762 312.292 Q 288.834 310.082, 288.834 305.943 " fill="#000000"/>
<path class="atom-7" d="M 303.435 311.539 L 305.786 311.539 L 305.786 313.891 L 303.435 313.891 L 303.435 311.539 M 303.435 303.451 L 305.786 303.451 L 305.786 305.802 L 303.435 305.802 L 303.435 303.451 " fill="#000000"/>
<path class="atom-7" d="M 315.732 305.473 Q 317.26 306.132, 318.13 307.119 Q 319 308.083, 319 309.729 Q 319 311.14, 318.271 312.245 Q 317.543 313.326, 316.226 313.938 Q 314.933 314.525, 313.216 314.525 Q 310.442 314.525, 308.843 313.256 Q 307.244 311.963, 307.244 309.729 Q 307.244 308.365, 307.95 307.354 Q 308.655 306.32, 310.113 305.544 Q 309.031 304.932, 308.443 304.039 Q 307.856 303.122, 307.856 301.711 Q 307.856 299.76, 309.266 298.608 Q 310.701 297.455, 313.122 297.455 Q 315.544 297.455, 316.955 298.608 Q 318.389 299.76, 318.389 301.711 Q 318.389 302.934, 317.707 303.851 Q 317.049 304.744, 315.732 305.473 M 313.122 299.219 Q 311.735 299.219, 310.959 299.877 Q 310.207 300.536, 310.207 301.711 Q 310.207 302.581, 310.724 303.169 Q 311.241 303.733, 311.97 304.062 Q 312.723 304.392, 314.157 304.885 Q 315.168 304.18, 315.591 303.428 Q 316.038 302.675, 316.038 301.711 Q 316.038 300.536, 315.262 299.877 Q 314.51 299.219, 313.122 299.219 M 313.216 312.762 Q 314.768 312.762, 315.709 311.939 Q 316.649 311.093, 316.649 309.705 Q 316.649 308.812, 316.155 308.248 Q 315.662 307.683, 314.909 307.354 Q 314.18 307.025, 312.864 306.602 L 311.806 306.249 Q 310.63 306.954, 310.113 307.801 Q 309.595 308.624, 309.595 309.705 Q 309.595 311.093, 310.583 311.939 Q 311.57 312.762, 313.216 312.762 " fill="#000000"/>
<path class="atom-8" d="M 325.497 194.198 Q 325.497 190.059, 327.425 187.896 Q 329.376 185.71, 333.068 185.71 Q 336.5 185.71, 338.334 188.131 L 336.783 189.401 Q 335.442 187.638, 333.068 187.638 Q 330.552 187.638, 329.212 189.331 Q 327.895 191, 327.895 194.198 Q 327.895 197.489, 329.259 199.182 Q 330.646 200.875, 333.326 200.875 Q 335.16 200.875, 337.3 199.77 L 337.958 201.534 Q 337.088 202.098, 335.772 202.427 Q 334.455 202.756, 332.997 202.756 Q 329.376 202.756, 327.425 200.546 Q 325.497 198.336, 325.497 194.198 " fill="#000000"/>
<path class="atom-8" d="M 340.098 199.794 L 342.449 199.794 L 342.449 202.145 L 340.098 202.145 L 340.098 199.794 M 340.098 191.705 L 342.449 191.705 L 342.449 194.057 L 340.098 194.057 L 340.098 191.705 " fill="#000000"/>
<path class="atom-8" d="M 349.338 185.71 Q 352.301 185.71, 353.782 187.732 Q 355.287 189.73, 355.287 193.727 Q 355.287 198.148, 353.429 200.452 Q 351.595 202.733, 348.045 202.733 Q 347.011 202.733, 346.117 202.498 Q 345.247 202.262, 344.401 201.769 L 345.318 200.193 Q 346.54 200.852, 348.022 200.852 Q 350.373 200.852, 351.572 199.347 Q 352.771 197.819, 352.912 194.691 Q 352.066 195.467, 350.984 195.891 Q 349.926 196.29, 348.774 196.29 Q 347.316 196.29, 346.164 195.655 Q 345.012 195.021, 344.377 193.868 Q 343.742 192.716, 343.742 191.259 Q 343.742 189.636, 344.448 188.39 Q 345.177 187.12, 346.446 186.415 Q 347.716 185.71, 349.338 185.71 M 346.094 191.235 Q 346.094 192.716, 346.916 193.563 Q 347.739 194.409, 349.197 194.409 Q 350.208 194.409, 351.196 194.01 Q 352.207 193.586, 352.912 192.881 Q 352.818 190.13, 351.948 188.884 Q 351.078 187.638, 349.315 187.638 Q 348.421 187.638, 347.669 188.108 Q 346.94 188.578, 346.517 189.401 Q 346.094 190.224, 346.094 191.235 " fill="#000000"/>
<path class="atom-9" d="M 261.946 206.321 Q 261.946 202.182, 263.874 200.019 Q 265.825 197.833, 269.517 197.833 Q 272.949 197.833, 274.783 200.254 L 273.232 201.524 Q 271.891 199.761, 269.517 199.761 Q 267.001 199.761, 265.661 201.454 Q 264.344 203.123, 264.344 206.321 Q 264.344 209.612, 265.708 211.305 Q 267.095 212.998, 269.775 212.998 Q 271.609 212.998, 273.749 211.893 L 274.407 213.656 Q 273.537 214.221, 272.22 214.55 Q 270.904 214.879, 269.446 214.879 Q 265.825 214.879, 263.874 212.669 Q 261.946 210.459, 261.946 206.321 " fill="#000000"/>
<path class="atom-9" d="M 276.547 211.917 L 278.898 211.917 L 278.898 214.268 L 276.547 214.268 L 276.547 211.917 M 276.547 203.828 L 278.898 203.828 L 278.898 206.18 L 276.547 206.18 L 276.547 203.828 " fill="#000000"/>
<path class="atom-9" d="M 281.085 212.787 L 284.729 212.787 L 284.729 200.348 L 280.708 201.595 L 280.168 200.207 L 285.27 197.927 L 286.939 198.209 L 286.939 212.787 L 290.207 212.787 L 290.207 214.668 L 281.085 214.668 L 281.085 212.787 " fill="#000000"/>
<path class="atom-9" d="M 297.731 214.856 Q 294.675 214.856, 293.147 212.598 Q 291.642 210.341, 291.642 206.321 Q 291.642 202.3, 293.147 200.066 Q 294.651 197.833, 297.731 197.833 Q 300.812 197.833, 302.316 200.066 Q 303.821 202.3, 303.821 206.321 Q 303.821 210.341, 302.293 212.598 Q 300.788 214.856, 297.731 214.856 M 297.731 212.975 Q 299.542 212.975, 300.506 211.305 Q 301.47 209.612, 301.47 206.321 Q 301.47 203.052, 300.506 201.383 Q 299.542 199.714, 297.731 199.714 Q 295.944 199.714, 294.957 201.383 Q 293.993 203.052, 293.993 206.321 Q 293.993 209.612, 294.957 211.305 Q 295.944 212.975, 297.731 212.975 " fill="#000000"/>
<path class="atom-10" d="M 186.151 330.166 Q 186.151 326.169, 188.126 323.935 Q 190.101 321.701, 193.793 321.701 Q 197.484 321.701, 199.459 323.935 Q 201.434 326.169, 201.434 330.166 Q 201.434 334.21, 199.436 336.514 Q 197.437 338.795, 193.793 338.795 Q 190.125 338.795, 188.126 336.514 Q 186.151 334.233, 186.151 330.166 M 193.793 336.914 Q 196.332 336.914, 197.696 335.221 Q 199.083 333.505, 199.083 330.166 Q 199.083 326.898, 197.696 325.252 Q 196.332 323.582, 193.793 323.582 Q 191.253 323.582, 189.866 325.228 Q 188.503 326.874, 188.503 330.166 Q 188.503 333.528, 189.866 335.221 Q 191.253 336.914, 193.793 336.914 " fill="#FF0000"/>
<path class="atom-10" d="M 203.198 335.785 L 205.549 335.785 L 205.549 338.137 L 203.198 338.137 L 203.198 335.785 M 203.198 327.697 L 205.549 327.697 L 205.549 330.048 L 203.198 330.048 L 203.198 327.697 " fill="#FF0000"/>
<path class="atom-10" d="M 207.736 336.655 L 211.38 336.655 L 211.38 324.217 L 207.359 325.463 L 206.819 324.076 L 211.921 321.795 L 213.59 322.078 L 213.59 336.655 L 216.858 336.655 L 216.858 338.536 L 207.736 338.536 L 207.736 336.655 " fill="#FF0000"/>
<path class="atom-10" d="M 219.045 336.655 L 222.69 336.655 L 222.69 324.217 L 218.669 325.463 L 218.128 324.076 L 223.23 321.795 L 224.9 322.078 L 224.9 336.655 L 228.168 336.655 L 228.168 338.536 L 219.045 338.536 L 219.045 336.655 " fill="#FF0000"/>
<path class="atom-11" d="M 120.888 291.907 L 123.145 291.907 L 123.145 298.984 L 131.657 298.984 L 131.657 291.907 L 133.914 291.907 L 133.914 308.554 L 131.657 308.554 L 131.657 300.865 L 123.145 300.865 L 123.145 308.554 L 120.888 308.554 L 120.888 291.907 " fill="#000000"/>
<path class="atom-11" d="M 135.677 305.803 L 138.029 305.803 L 138.029 308.154 L 135.677 308.154 L 135.677 305.803 M 135.677 297.714 L 138.029 297.714 L 138.029 300.066 L 135.677 300.066 L 135.677 297.714 " fill="#000000"/>
<path class="atom-11" d="M 140.215 306.673 L 143.86 306.673 L 143.86 294.235 L 139.839 295.481 L 139.298 294.094 L 144.4 291.813 L 146.07 292.095 L 146.07 306.673 L 149.338 306.673 L 149.338 308.554 L 140.215 308.554 L 140.215 306.673 " fill="#000000"/>
<path class="atom-11" d="M 150.561 295.058 Q 151.172 293.482, 152.63 292.612 Q 154.088 291.719, 156.11 291.719 Q 158.625 291.719, 160.036 293.082 Q 161.447 294.446, 161.447 296.868 Q 161.447 299.337, 159.613 301.641 Q 157.802 303.945, 154.04 306.673 L 161.729 306.673 L 161.729 308.554 L 150.514 308.554 L 150.514 306.978 Q 153.617 304.768, 155.451 303.122 Q 157.309 301.476, 158.202 299.995 Q 159.096 298.514, 159.096 296.986 Q 159.096 295.387, 158.296 294.493 Q 157.497 293.6, 156.11 293.6 Q 154.769 293.6, 153.876 294.141 Q 152.982 294.681, 152.348 295.88 L 150.561 295.058 " fill="#000000"/>
<path class="atom-12" d="M 22.7273 246.513 L 24.9845 246.513 L 24.9845 253.59 L 33.4959 253.59 L 33.4959 246.513 L 35.7531 246.513 L 35.7531 263.159 L 33.4959 263.159 L 33.4959 255.471 L 24.9845 255.471 L 24.9845 263.159 L 22.7273 263.159 L 22.7273 246.513 " fill="#000000"/>
<path class="atom-12" d="M 37.5166 260.408 L 39.8678 260.408 L 39.8678 262.76 L 37.5166 262.76 L 37.5166 260.408 M 37.5166 252.32 L 39.8678 252.32 L 39.8678 254.671 L 37.5166 254.671 L 37.5166 252.32 " fill="#000000"/>
<path class="atom-12" d="M 42.0545 261.278 L 45.6989 261.278 L 45.6989 248.84 L 41.6783 250.086 L 41.1375 248.699 L 46.2397 246.419 L 47.909 246.701 L 47.909 261.278 L 51.1773 261.278 L 51.1773 263.159 L 42.0545 263.159 L 42.0545 261.278 " fill="#000000"/>
<path class="atom-12" d="M 60.159 254.389 Q 61.7813 254.859, 62.5573 255.918 Q 63.3567 256.952, 63.3567 258.598 Q 63.3567 260.009, 62.6513 261.114 Q 61.9459 262.195, 60.6527 262.807 Q 59.3596 263.394, 57.6667 263.394 Q 55.8797 263.394, 54.5395 262.783 Q 53.2228 262.148, 52.1648 260.879 L 53.505 259.515 Q 54.5395 260.644, 55.4095 261.09 Q 56.2794 261.513, 57.6667 261.513 Q 59.1715 261.513, 60.0885 260.714 Q 61.0054 259.891, 61.0054 258.574 Q 61.0054 256.882, 60.0414 256.129 Q 59.1009 255.353, 57.0554 255.353 L 55.8562 255.353 L 55.8562 253.66 L 56.9143 253.66 Q 58.7247 253.637, 59.6887 252.861 Q 60.6527 252.062, 60.6527 250.58 Q 60.6527 249.499, 59.8533 248.864 Q 59.0539 248.205, 57.6902 248.205 Q 56.303 248.205, 55.433 248.699 Q 54.5866 249.193, 53.9282 250.439 L 52.3059 249.569 Q 52.8937 248.182, 54.3044 247.265 Q 55.7151 246.324, 57.6902 246.324 Q 60.1355 246.324, 61.5697 247.477 Q 63.004 248.629, 63.004 250.58 Q 63.004 251.92, 62.2751 252.884 Q 61.5462 253.848, 60.159 254.389 " fill="#000000"/>
<path class="atom-13" d="M 284.055 353.469 L 286.312 353.469 L 286.312 360.547 L 294.823 360.547 L 294.823 353.469 L 297.08 353.469 L 297.08 370.116 L 294.823 370.116 L 294.823 362.428 L 286.312 362.428 L 286.312 370.116 L 284.055 370.116 L 284.055 353.469 " fill="#000000"/>
<path class="atom-13" d="M 298.844 367.365 L 301.195 367.365 L 301.195 369.716 L 298.844 369.716 L 298.844 367.365 M 298.844 359.277 L 301.195 359.277 L 301.195 361.628 L 298.844 361.628 L 298.844 359.277 " fill="#000000"/>
<path class="atom-13" d="M 303.382 368.235 L 307.026 368.235 L 307.026 355.797 L 303.006 357.043 L 302.465 355.656 L 307.567 353.375 L 309.236 353.658 L 309.236 368.235 L 312.505 368.235 L 312.505 370.116 L 303.382 370.116 L 303.382 368.235 " fill="#000000"/>
<path class="atom-13" d="M 324.026 364.403 L 326.024 364.403 L 326.024 366.284 L 324.026 366.284 L 324.026 370.116 L 321.815 370.116 L 321.815 366.284 L 313.21 366.284 L 313.21 364.802 L 320.499 353.469 L 324.026 353.469 L 324.026 364.403 M 315.937 364.403 L 321.815 364.403 L 321.815 354.974 L 315.937 364.403 " fill="#000000"/>
<path class="atom-14" d="M 357.094 129.978 L 359.351 129.978 L 359.351 137.055 L 367.863 137.055 L 367.863 129.978 L 370.12 129.978 L 370.12 146.625 L 367.863 146.625 L 367.863 138.936 L 359.351 138.936 L 359.351 146.625 L 357.094 146.625 L 357.094 129.978 " fill="#000000"/>
<path class="atom-14" d="M 371.883 143.874 L 374.234 143.874 L 374.234 146.225 L 371.883 146.225 L 371.883 143.874 M 371.883 135.785 L 374.234 135.785 L 374.234 138.137 L 371.883 138.137 L 371.883 135.785 " fill="#000000"/>
<path class="atom-14" d="M 376.421 144.744 L 380.066 144.744 L 380.066 132.306 L 376.045 133.552 L 375.504 132.165 L 380.606 129.884 L 382.276 130.166 L 382.276 144.744 L 385.544 144.744 L 385.544 146.625 L 376.421 146.625 L 376.421 144.744 " fill="#000000"/>
<path class="atom-14" d="M 392.668 136.209 Q 394.126 136.209, 395.325 136.843 Q 396.524 137.455, 397.206 138.63 Q 397.888 139.783, 397.888 141.358 Q 397.888 143.074, 397.041 144.32 Q 396.219 145.543, 394.855 146.178 Q 393.491 146.813, 391.939 146.813 Q 390.411 146.813, 389 146.248 Q 387.59 145.684, 386.625 144.603 L 388.036 143.145 Q 388.812 143.991, 389.87 144.461 Q 390.928 144.908, 392.01 144.908 Q 393.491 144.908, 394.502 143.991 Q 395.537 143.074, 395.537 141.405 Q 395.537 139.641, 394.502 138.819 Q 393.491 137.972, 391.869 137.972 Q 390.411 137.972, 388.789 138.607 L 387.495 137.996 L 388.295 129.978 L 396.853 129.978 L 396.618 131.859 L 390.223 131.859 L 389.729 136.796 Q 391.21 136.209, 392.668 136.209 " fill="#000000"/>
<path class="atom-15" d="M 212.751 154.271 L 215.008 154.271 L 215.008 161.348 L 223.52 161.348 L 223.52 154.271 L 225.777 154.271 L 225.777 170.918 L 223.52 170.918 L 223.52 163.229 L 215.008 163.229 L 215.008 170.918 L 212.751 170.918 L 212.751 154.271 " fill="#000000"/>
<path class="atom-15" d="M 227.541 168.167 L 229.892 168.167 L 229.892 170.518 L 227.541 170.518 L 227.541 168.167 M 227.541 160.078 L 229.892 160.078 L 229.892 162.43 L 227.541 162.43 L 227.541 160.078 " fill="#000000"/>
<path class="atom-15" d="M 232.078 169.037 L 235.723 169.037 L 235.723 156.599 L 231.702 157.845 L 231.161 156.457 L 236.264 154.177 L 237.933 154.459 L 237.933 169.037 L 241.201 169.037 L 241.201 170.918 L 232.078 170.918 L 232.078 169.037 " fill="#000000"/>
<path class="atom-15" d="M 249.313 160.525 Q 250.771 160.525, 251.923 161.16 Q 253.075 161.795, 253.71 162.947 Q 254.345 164.099, 254.345 165.557 Q 254.345 167.179, 253.616 168.449 Q 252.91 169.695, 251.641 170.4 Q 250.371 171.106, 248.749 171.106 Q 245.786 171.106, 244.281 169.107 Q 242.8 167.085, 242.8 163.088 Q 242.8 158.668, 244.634 156.387 Q 246.492 154.083, 250.042 154.083 Q 251.076 154.083, 251.946 154.318 Q 252.84 154.553, 253.686 155.047 L 252.769 156.622 Q 251.547 155.964, 250.065 155.964 Q 247.714 155.964, 246.515 157.492 Q 245.316 158.997, 245.175 162.124 Q 246.021 161.348, 247.079 160.948 Q 248.161 160.525, 249.313 160.525 M 248.772 169.178 Q 249.666 169.178, 250.395 168.707 Q 251.147 168.237, 251.57 167.414 Q 251.993 166.591, 251.993 165.58 Q 251.993 164.099, 251.17 163.253 Q 250.348 162.406, 248.89 162.406 Q 247.879 162.406, 246.868 162.829 Q 245.88 163.229, 245.175 163.934 Q 245.269 166.685, 246.139 167.932 Q 247.009 169.178, 248.772 169.178 " fill="#000000"/>
<path class="atom-16" d="M 399.089 329.223 L 401.346 329.223 L 401.346 336.301 L 409.858 336.301 L 409.858 329.223 L 412.115 329.223 L 412.115 345.87 L 409.858 345.87 L 409.858 338.182 L 401.346 338.182 L 401.346 345.87 L 399.089 345.87 L 399.089 329.223 " fill="#000000"/>
<path class="atom-16" d="M 413.878 343.119 L 416.23 343.119 L 416.23 345.471 L 413.878 345.471 L 413.878 343.119 M 413.878 335.031 L 416.23 335.031 L 416.23 337.382 L 413.878 337.382 L 413.878 335.031 " fill="#000000"/>
<path class="atom-16" d="M 418.416 343.989 L 422.061 343.989 L 422.061 331.551 L 418.04 332.797 L 417.499 331.41 L 422.601 329.129 L 424.271 329.412 L 424.271 343.989 L 427.539 343.989 L 427.539 345.87 L 418.416 345.87 L 418.416 343.989 " fill="#000000"/>
<path class="atom-16" d="M 436.685 331.104 L 427.962 331.104 L 427.962 329.223 L 439.013 329.223 L 439.013 330.893 L 432.289 345.87 L 430.031 345.87 L 436.685 331.104 " fill="#000000"/>
<path class="atom-17" d="M 435.609 217.525 L 437.866 217.525 L 437.866 224.602 L 446.377 224.602 L 446.377 217.525 L 448.635 217.525 L 448.635 234.172 L 446.377 234.172 L 446.377 226.483 L 437.866 226.483 L 437.866 234.172 L 435.609 234.172 L 435.609 217.525 " fill="#000000"/>
<path class="atom-17" d="M 450.398 231.421 L 452.749 231.421 L 452.749 233.772 L 450.398 233.772 L 450.398 231.421 M 450.398 223.332 L 452.749 223.332 L 452.749 225.684 L 450.398 225.684 L 450.398 223.332 " fill="#000000"/>
<path class="atom-17" d="M 454.936 232.291 L 458.58 232.291 L 458.58 219.852 L 454.56 221.099 L 454.019 219.711 L 459.121 217.431 L 460.791 217.713 L 460.791 232.291 L 464.059 232.291 L 464.059 234.172 L 454.936 234.172 L 454.936 232.291 " fill="#000000"/>
<path class="atom-17" d="M 474.005 225.354 Q 475.533 226.013, 476.403 227 Q 477.273 227.964, 477.273 229.61 Q 477.273 231.021, 476.544 232.126 Q 475.815 233.208, 474.498 233.819 Q 473.205 234.407, 471.489 234.407 Q 468.714 234.407, 467.115 233.137 Q 465.517 231.844, 465.517 229.61 Q 465.517 228.246, 466.222 227.235 Q 466.927 226.201, 468.385 225.425 Q 467.303 224.814, 466.716 223.92 Q 466.128 223.003, 466.128 221.592 Q 466.128 219.641, 467.539 218.489 Q 468.973 217.337, 471.395 217.337 Q 473.816 217.337, 475.227 218.489 Q 476.661 219.641, 476.661 221.592 Q 476.661 222.815, 475.98 223.732 Q 475.321 224.625, 474.005 225.354 M 471.395 219.1 Q 470.007 219.1, 469.231 219.758 Q 468.479 220.417, 468.479 221.592 Q 468.479 222.462, 468.996 223.05 Q 469.514 223.614, 470.243 223.944 Q 470.995 224.273, 472.429 224.767 Q 473.44 224.061, 473.863 223.309 Q 474.31 222.556, 474.31 221.592 Q 474.31 220.417, 473.534 219.758 Q 472.782 219.1, 471.395 219.1 M 471.489 232.643 Q 473.04 232.643, 473.981 231.82 Q 474.921 230.974, 474.921 229.587 Q 474.921 228.693, 474.428 228.129 Q 473.934 227.565, 473.182 227.235 Q 472.453 226.906, 471.136 226.483 L 470.078 226.13 Q 468.902 226.836, 468.385 227.682 Q 467.868 228.505, 467.868 229.587 Q 467.868 230.974, 468.855 231.82 Q 469.843 232.643, 471.489 232.643 " fill="#000000"/>
<text x="144.0366169732986" y="236.55747165237466" font-size="12" font-family="Verdana" font-weight="bold" letter-spacing="0" text-anchor="start" fill="black" transform=" rotate(78.097928 144.036617 236.557472)">0.019</text><text x="25" y="490" font-size="12" font-family="Verdana" font-weight="bold" letter-spacing="0" text-anchor="start" fill="black">[H:1]-[#6:2](-[#8:3]-[#6:4](-[#6:5]1:[#6:8](:[#6:6](:[#6:7](:[#6:9](:[#6:10]:1-[H:16])-[H:15])-[H:18])-[H:17])-[H:14])=[#8:11])(-[H:12])-[H:13]</text></svg>
