<?xml version='1.0' encoding='ASCII' standalone='yes'?>
<svg xmlns="http://www.w3.org/2000/svg" xmlns:rdkit="http://www.rdkit.org/xml" xmlns:xlink="http://www.w3.org/1999/xlink" version="1.1" baseProfile="full" xml:space="preserve" width="500px" height="500px" viewBox="0 0 500 500">
<!-- END OF HEADER -->
<rect style="opacity:1.0;fill:#FFFFFF;stroke:none" width="500" height="500" x="0" y="0"> </rect>
<path d="M 287.945,326.935 L 345.173,291.986" style="fill:none;fill-rule:evenodd;stroke:#FF7F7F;stroke-width:14.3px;stroke-linecap:butt;stroke-linejoin:miter;stroke-opacity:1"/>
<path class="bond-0 atom-0 atom-6" d="M 161.902,280.68 L 138.145,249.622" style="fill:none;fill-rule:evenodd;stroke:#000000;stroke-width:2.0px;stroke-linecap:butt;stroke-linejoin:miter;stroke-opacity:1"/>
<path class="bond-0 atom-0 atom-6" d="M 168.99,267.874 L 152.361,246.133" style="fill:none;fill-rule:evenodd;stroke:#000000;stroke-width:2.0px;stroke-linecap:butt;stroke-linejoin:miter;stroke-opacity:1"/>
<path class="bond-1 atom-0 atom-9" d="M 166.027,302.781 L 149.343,342.884" style="fill:none;fill-rule:evenodd;stroke:#000000;stroke-width:2.0px;stroke-linecap:butt;stroke-linejoin:miter;stroke-opacity:1"/>
<path class="bond-2 atom-1 atom-0" d="M 208.27,287.049 L 181.8,290.492" style="fill:none;fill-rule:evenodd;stroke:#000000;stroke-width:2.0px;stroke-linecap:butt;stroke-linejoin:miter;stroke-opacity:1"/>
<path class="bond-4 atom-2 atom-1" d="M 275.031,315.871 L 259.851,302.866" style="fill:none;fill-rule:evenodd;stroke:#0000FF;stroke-width:2.0px;stroke-linecap:butt;stroke-linejoin:miter;stroke-opacity:1"/>
<path class="bond-4 atom-2 atom-1" d="M 259.851,302.866 L 244.672,289.861" style="fill:none;fill-rule:evenodd;stroke:#000000;stroke-width:2.0px;stroke-linecap:butt;stroke-linejoin:miter;stroke-opacity:1"/>
<path class="bond-9 atom-4 atom-1" d="M 258.277,232.22 L 241.593,272.323" style="fill:none;fill-rule:evenodd;stroke:#000000;stroke-width:2.0px;stroke-linecap:butt;stroke-linejoin:miter;stroke-opacity:1"/>
<path class="bond-9 atom-4 atom-1" d="M 243.392,233.084 L 231.714,261.156" style="fill:none;fill-rule:evenodd;stroke:#000000;stroke-width:2.0px;stroke-linecap:butt;stroke-linejoin:miter;stroke-opacity:1"/>
<path class="bond-3 atom-2 atom-5" d="M 300.621,319.194 L 318.583,308.225" style="fill:none;fill-rule:evenodd;stroke:#0000FF;stroke-width:2.0px;stroke-linecap:butt;stroke-linejoin:miter;stroke-opacity:1"/>
<path class="bond-3 atom-2 atom-5" d="M 318.583,308.225 L 336.545,297.255" style="fill:none;fill-rule:evenodd;stroke:#000000;stroke-width:2.0px;stroke-linecap:butt;stroke-linejoin:miter;stroke-opacity:1"/>
<path class="bond-5 atom-2 atom-10" d="M 287.019,338.482 L 285.235,360.714" style="fill:none;fill-rule:evenodd;stroke:#0000FF;stroke-width:2.0px;stroke-linecap:butt;stroke-linejoin:miter;stroke-opacity:1"/>
<path class="bond-5 atom-2 atom-10" d="M 285.235,360.714 L 283.451,382.947" style="fill:none;fill-rule:evenodd;stroke:#000000;stroke-width:2.0px;stroke-linecap:butt;stroke-linejoin:miter;stroke-opacity:1"/>
<path class="bond-6 atom-3 atom-4" d="M 320.62,226.038 L 275.22,222.395" style="fill:none;fill-rule:evenodd;stroke:#000000;stroke-width:2.0px;stroke-linecap:butt;stroke-linejoin:miter;stroke-opacity:1"/>
<path class="bond-7 atom-3 atom-11" d="M 338.618,216.257 L 363.879,186.771" style="fill:none;fill-rule:evenodd;stroke:#000000;stroke-width:2.0px;stroke-linecap:butt;stroke-linejoin:miter;stroke-opacity:1"/>
<path class="bond-7 atom-3 atom-11" d="M 332.222,203.109 L 349.905,182.469" style="fill:none;fill-rule:evenodd;stroke:#000000;stroke-width:2.0px;stroke-linecap:butt;stroke-linejoin:miter;stroke-opacity:1"/>
<path class="bond-8 atom-3 atom-5" d="M 332.366,238.28 L 342.554,281.004" style="fill:none;fill-rule:evenodd;stroke:#000000;stroke-width:2.0px;stroke-linecap:butt;stroke-linejoin:miter;stroke-opacity:1"/>
<path class="bond-10 atom-4 atom-7" d="M 254.152,210.118 L 230.601,179.328" style="fill:none;fill-rule:evenodd;stroke:#000000;stroke-width:2.0px;stroke-linecap:butt;stroke-linejoin:miter;stroke-opacity:1"/>
<path class="bond-11 atom-5 atom-12" d="M 370.224,309.671 L 382.544,314.796" style="fill:none;fill-rule:evenodd;stroke:#000000;stroke-width:2.0px;stroke-linecap:butt;stroke-linejoin:miter;stroke-opacity:1"/>
<path class="bond-11 atom-5 atom-12" d="M 382.544,314.796 L 394.863,319.921" style="fill:none;fill-rule:evenodd;stroke:#FF0000;stroke-width:2.0px;stroke-linecap:butt;stroke-linejoin:miter;stroke-opacity:1"/>
<path class="bond-11 atom-5 atom-12" d="M 375.376,297.288 L 387.695,302.413" style="fill:none;fill-rule:evenodd;stroke:#000000;stroke-width:2.0px;stroke-linecap:butt;stroke-linejoin:miter;stroke-opacity:1"/>
<path class="bond-11 atom-5 atom-12" d="M 387.695,302.413 L 400.014,307.538" style="fill:none;fill-rule:evenodd;stroke:#FF0000;stroke-width:2.0px;stroke-linecap:butt;stroke-linejoin:miter;stroke-opacity:1"/>
<path class="bond-12 atom-6 atom-13" d="M 106.035,241.789 L 71.6819,246.258" style="fill:none;fill-rule:evenodd;stroke:#000000;stroke-width:2.0px;stroke-linecap:butt;stroke-linejoin:miter;stroke-opacity:1"/>
<path class="bond-15 atom-8 atom-6" d="M 151.043,187.61 L 134.271,227.927" style="fill:none;fill-rule:evenodd;stroke:#000000;stroke-width:2.0px;stroke-linecap:butt;stroke-linejoin:miter;stroke-opacity:1"/>
<path class="bond-13 atom-7 atom-8" d="M 197.556,171.322 L 167.944,175.174" style="fill:none;fill-rule:evenodd;stroke:#000000;stroke-width:2.0px;stroke-linecap:butt;stroke-linejoin:miter;stroke-opacity:1"/>
<path class="bond-13 atom-7 atom-8" d="M 194.844,185.198 L 174.116,187.895" style="fill:none;fill-rule:evenodd;stroke:#000000;stroke-width:2.0px;stroke-linecap:butt;stroke-linejoin:miter;stroke-opacity:1"/>
<path class="bond-14 atom-7 atom-14" d="M 226.732,156.858 L 243.253,117.145" style="fill:none;fill-rule:evenodd;stroke:#000000;stroke-width:2.0px;stroke-linecap:butt;stroke-linejoin:miter;stroke-opacity:1"/>
<path class="bond-16 atom-8 atom-15" d="M 146.919,165.508 L 122.713,133.863" style="fill:none;fill-rule:evenodd;stroke:#000000;stroke-width:2.0px;stroke-linecap:butt;stroke-linejoin:miter;stroke-opacity:1"/>
<path class="bond-17 atom-11 atom-16" d="M 392.256,179.392 L 430.536,186.547" style="fill:none;fill-rule:evenodd;stroke:#000000;stroke-width:2.0px;stroke-linecap:butt;stroke-linejoin:miter;stroke-opacity:1"/>
<path class="bond-18 atom-11 atom-17" d="M 369.309,164.667 L 354.829,123.578" style="fill:none;fill-rule:evenodd;stroke:#000000;stroke-width:2.0px;stroke-linecap:butt;stroke-linejoin:miter;stroke-opacity:1"/>
<path class="atom-0" d="M 148.609 292.039 Q 148.609 287.319, 150.808 284.851 Q 153.034 282.357, 157.245 282.357 Q 161.161 282.357, 163.253 285.119 L 161.483 286.568 Q 159.954 284.556, 157.245 284.556 Q 154.375 284.556, 152.846 286.487 Q 151.344 288.391, 151.344 292.039 Q 151.344 295.794, 152.9 297.726 Q 154.483 299.657, 157.54 299.657 Q 159.632 299.657, 162.073 298.396 L 162.824 300.408 Q 161.832 301.051, 160.33 301.427 Q 158.828 301.802, 157.165 301.802 Q 153.034 301.802, 150.808 299.281 Q 148.609 296.76, 148.609 292.039 " fill="#000000"/>
<path class="atom-0" d="M 165.265 298.423 L 167.947 298.423 L 167.947 301.105 L 165.265 301.105 L 165.265 298.423 M 165.265 289.196 L 167.947 289.196 L 167.947 291.878 L 165.265 291.878 L 165.265 289.196 " fill="#000000"/>
<path class="atom-0" d="M 170.442 299.415 L 174.599 299.415 L 174.599 285.227 L 170.012 286.648 L 169.396 285.066 L 175.216 282.464 L 177.12 282.786 L 177.12 299.415 L 180.849 299.415 L 180.849 301.561 L 170.442 301.561 L 170.442 299.415 " fill="#000000"/>
<path class="atom-1" d="M 209.947 283.389 Q 209.947 278.668, 212.146 276.2 Q 214.372 273.706, 218.583 273.706 Q 222.499 273.706, 224.591 276.469 L 222.821 277.917 Q 221.292 275.905, 218.583 275.905 Q 215.713 275.905, 214.184 277.837 Q 212.682 279.741, 212.682 283.389 Q 212.682 287.144, 214.238 289.075 Q 215.821 291.006, 218.878 291.006 Q 220.97 291.006, 223.411 289.745 L 224.162 291.757 Q 223.17 292.401, 221.668 292.776 Q 220.166 293.152, 218.503 293.152 Q 214.372 293.152, 212.146 290.631 Q 209.947 288.109, 209.947 283.389 " fill="#000000"/>
<path class="atom-1" d="M 226.603 289.772 L 229.285 289.772 L 229.285 292.454 L 226.603 292.454 L 226.603 289.772 M 226.603 280.546 L 229.285 280.546 L 229.285 283.228 L 226.603 283.228 L 226.603 280.546 " fill="#000000"/>
<path class="atom-1" d="M 230.68 277.515 Q 231.377 275.718, 233.04 274.725 Q 234.703 273.706, 237.01 273.706 Q 239.88 273.706, 241.489 275.262 Q 243.098 276.817, 243.098 279.58 Q 243.098 282.396, 241.006 285.025 Q 238.941 287.653, 234.65 290.765 L 243.42 290.765 L 243.42 292.91 L 230.626 292.91 L 230.626 291.113 Q 234.167 288.592, 236.259 286.715 Q 238.378 284.837, 239.397 283.147 Q 240.416 281.457, 240.416 279.714 Q 240.416 277.89, 239.504 276.871 Q 238.592 275.852, 237.01 275.852 Q 235.481 275.852, 234.462 276.469 Q 233.443 277.086, 232.718 278.453 L 230.68 277.515 " fill="#000000"/>
<path class="atom-2" d="M 268.958 317.547 L 275.18 327.605 Q 275.797 328.598, 276.79 330.395 Q 277.782 332.192, 277.836 332.299 L 277.836 317.547 L 280.357 317.547 L 280.357 336.537 L 277.755 336.537 L 271.077 325.54 Q 270.299 324.253, 269.467 322.777 Q 268.663 321.302, 268.421 320.846 L 268.421 336.537 L 265.954 336.537 L 265.954 317.547 L 268.958 317.547 " fill="#0000FF"/>
<path class="atom-2" d="M 282.369 333.399 L 285.051 333.399 L 285.051 336.081 L 282.369 336.081 L 282.369 333.399 M 282.369 324.172 L 285.051 324.172 L 285.051 326.854 L 282.369 326.854 L 282.369 324.172 " fill="#0000FF"/>
<path class="atom-2" d="M 295.297 326.533 Q 297.148 327.069, 298.033 328.276 Q 298.945 329.456, 298.945 331.334 Q 298.945 332.943, 298.14 334.204 Q 297.335 335.437, 295.86 336.135 Q 294.385 336.805, 292.454 336.805 Q 290.415 336.805, 288.886 336.108 Q 287.384 335.384, 286.177 333.935 L 287.706 332.38 Q 288.886 333.667, 289.879 334.177 Q 290.871 334.66, 292.454 334.66 Q 294.17 334.66, 295.216 333.748 Q 296.262 332.809, 296.262 331.307 Q 296.262 329.376, 295.163 328.517 Q 294.09 327.632, 291.756 327.632 L 290.388 327.632 L 290.388 325.701 L 291.595 325.701 Q 293.661 325.674, 294.76 324.789 Q 295.86 323.877, 295.86 322.187 Q 295.86 320.954, 294.948 320.229 Q 294.036 319.478, 292.481 319.478 Q 290.898 319.478, 289.906 320.042 Q 288.94 320.605, 288.189 322.026 L 286.338 321.034 Q 287.009 319.452, 288.618 318.405 Q 290.228 317.333, 292.481 317.333 Q 295.27 317.333, 296.906 318.647 Q 298.542 319.961, 298.542 322.187 Q 298.542 323.716, 297.711 324.816 Q 296.879 325.916, 295.297 326.533 " fill="#0000FF"/>
<path class="atom-3" d="M 322.297 226.841 Q 322.297 222.12, 324.496 219.653 Q 326.722 217.158, 330.933 217.158 Q 334.849 217.158, 336.941 219.921 L 335.171 221.369 Q 333.642 219.358, 330.933 219.358 Q 328.063 219.358, 326.534 221.289 Q 325.032 223.193, 325.032 226.841 Q 325.032 230.596, 326.588 232.527 Q 328.171 234.458, 331.228 234.458 Q 333.32 234.458, 335.761 233.198 L 336.512 235.209 Q 335.52 235.853, 334.018 236.229 Q 332.516 236.604, 330.853 236.604 Q 326.722 236.604, 324.496 234.083 Q 322.297 231.562, 322.297 226.841 " fill="#000000"/>
<path class="atom-3" d="M 338.953 233.224 L 341.635 233.224 L 341.635 235.907 L 338.953 235.907 L 338.953 233.224 M 338.953 223.998 L 341.635 223.998 L 341.635 226.68 L 338.953 226.68 L 338.953 223.998 " fill="#000000"/>
<path class="atom-3" d="M 354.778 229.845 L 357.058 229.845 L 357.058 231.991 L 354.778 231.991 L 354.778 236.363 L 352.257 236.363 L 352.257 231.991 L 342.44 231.991 L 342.44 230.301 L 350.755 217.373 L 354.778 217.373 L 354.778 229.845 M 345.551 229.845 L 352.257 229.845 L 352.257 219.089 L 345.551 229.845 " fill="#000000"/>
<path class="atom-4" d="M 240.349 221.477 Q 240.349 216.757, 242.548 214.289 Q 244.775 211.795, 248.986 211.795 Q 252.902 211.795, 254.994 214.557 L 253.224 216.006 Q 251.695 213.994, 248.986 213.994 Q 246.116 213.994, 244.587 215.925 Q 243.085 217.83, 243.085 221.477 Q 243.085 225.233, 244.641 227.164 Q 246.223 229.095, 249.281 229.095 Q 251.373 229.095, 253.814 227.834 L 254.565 229.846 Q 253.572 230.49, 252.07 230.865 Q 250.568 231.241, 248.905 231.241 Q 244.775 231.241, 242.548 228.719 Q 240.349 226.198, 240.349 221.477 " fill="#000000"/>
<path class="atom-4" d="M 257.005 227.861 L 259.688 227.861 L 259.688 230.543 L 257.005 230.543 L 257.005 227.861 M 257.005 218.634 L 259.688 218.634 L 259.688 221.317 L 257.005 221.317 L 257.005 218.634 " fill="#000000"/>
<path class="atom-4" d="M 267.815 219.117 Q 269.478 219.117, 270.846 219.841 Q 272.214 220.539, 272.991 221.88 Q 273.769 223.194, 273.769 224.991 Q 273.769 226.949, 272.804 228.371 Q 271.865 229.765, 270.309 230.49 Q 268.754 231.214, 266.983 231.214 Q 265.24 231.214, 263.631 230.57 Q 262.021 229.926, 260.921 228.693 L 262.531 227.03 Q 263.416 227.995, 264.623 228.532 Q 265.83 229.041, 267.064 229.041 Q 268.754 229.041, 269.907 227.995 Q 271.087 226.949, 271.087 225.045 Q 271.087 223.033, 269.907 222.094 Q 268.754 221.129, 266.903 221.129 Q 265.24 221.129, 263.389 221.853 L 261.914 221.156 L 262.826 212.009 L 272.589 212.009 L 272.321 214.155 L 265.025 214.155 L 264.462 219.788 Q 266.152 219.117, 267.815 219.117 " fill="#000000"/>
<path class="atom-5" d="M 337.85 292.067 Q 337.85 287.346, 340.05 284.879 Q 342.276 282.384, 346.487 282.384 Q 350.403 282.384, 352.495 285.147 L 350.725 286.595 Q 349.196 284.584, 346.487 284.584 Q 343.617 284.584, 342.088 286.515 Q 340.586 288.419, 340.586 292.067 Q 340.586 295.822, 342.142 297.753 Q 343.724 299.684, 346.782 299.684 Q 348.874 299.684, 351.315 298.424 L 352.066 300.435 Q 351.074 301.079, 349.571 301.455 Q 348.069 301.83, 346.406 301.83 Q 342.276 301.83, 340.05 299.309 Q 337.85 296.788, 337.85 292.067 " fill="#000000"/>
<path class="atom-5" d="M 354.507 298.45 L 357.189 298.45 L 357.189 301.133 L 354.507 301.133 L 354.507 298.45 M 354.507 289.224 L 357.189 289.224 L 357.189 291.906 L 354.507 291.906 L 354.507 289.224 " fill="#000000"/>
<path class="atom-5" d="M 366.442 289.733 Q 368.105 289.733, 369.42 290.458 Q 370.734 291.182, 371.458 292.496 Q 372.182 293.81, 372.182 295.473 Q 372.182 297.324, 371.351 298.772 Q 370.546 300.194, 369.098 300.999 Q 367.649 301.803, 365.799 301.803 Q 362.419 301.803, 360.703 299.523 Q 359.013 297.217, 359.013 292.657 Q 359.013 287.614, 361.105 285.013 Q 363.224 282.384, 367.274 282.384 Q 368.454 282.384, 369.447 282.652 Q 370.466 282.921, 371.431 283.484 L 370.385 285.281 Q 368.991 284.53, 367.301 284.53 Q 364.619 284.53, 363.251 286.273 Q 361.883 287.99, 361.722 291.557 Q 362.687 290.672, 363.894 290.216 Q 365.128 289.733, 366.442 289.733 M 365.826 299.604 Q 366.845 299.604, 367.676 299.067 Q 368.535 298.531, 369.017 297.592 Q 369.5 296.653, 369.5 295.5 Q 369.5 293.81, 368.561 292.845 Q 367.623 291.879, 365.96 291.879 Q 364.806 291.879, 363.653 292.362 Q 362.526 292.818, 361.722 293.623 Q 361.829 296.761, 362.822 298.182 Q 363.814 299.604, 365.826 299.604 " fill="#000000"/>
<path class="atom-6" d="M 107.711 238.779 Q 107.711 234.058, 109.91 231.59 Q 112.137 229.096, 116.348 229.096 Q 120.264 229.096, 122.356 231.859 L 120.586 233.307 Q 119.057 231.295, 116.348 231.295 Q 113.478 231.295, 111.949 233.227 Q 110.447 235.131, 110.447 238.779 Q 110.447 242.534, 112.003 244.465 Q 113.585 246.396, 116.643 246.396 Q 118.735 246.396, 121.176 245.135 L 121.927 247.147 Q 120.934 247.791, 119.432 248.166 Q 117.93 248.542, 116.267 248.542 Q 112.137 248.542, 109.91 246.021 Q 107.711 243.499, 107.711 238.779 " fill="#000000"/>
<path class="atom-6" d="M 124.367 245.162 L 127.05 245.162 L 127.05 247.844 L 124.367 247.844 L 124.367 245.162 M 124.367 235.936 L 127.05 235.936 L 127.05 238.618 L 124.367 238.618 L 124.367 235.936 " fill="#000000"/>
<path class="atom-6" d="M 137.483 231.456 L 127.532 231.456 L 127.532 229.311 L 140.139 229.311 L 140.139 231.215 L 132.468 248.3 L 129.893 248.3 L 137.483 231.456 " fill="#000000"/>
<path class="atom-7" d="M 199.232 168.217 Q 199.232 163.496, 201.432 161.029 Q 203.658 158.534, 207.869 158.534 Q 211.785 158.534, 213.877 161.297 L 212.107 162.745 Q 210.578 160.734, 207.869 160.734 Q 204.999 160.734, 203.47 162.665 Q 201.968 164.569, 201.968 168.217 Q 201.968 171.972, 203.524 173.903 Q 205.106 175.834, 208.164 175.834 Q 210.256 175.834, 212.697 174.574 L 213.448 176.585 Q 212.456 177.229, 210.954 177.605 Q 209.452 177.98, 207.789 177.98 Q 203.658 177.98, 201.432 175.459 Q 199.232 172.937, 199.232 168.217 " fill="#000000"/>
<path class="atom-7" d="M 215.889 174.6 L 218.571 174.6 L 218.571 177.283 L 215.889 177.283 L 215.889 174.6 M 215.889 165.374 L 218.571 165.374 L 218.571 168.056 L 215.889 168.056 L 215.889 165.374 " fill="#000000"/>
<path class="atom-7" d="M 229.917 167.68 Q 231.66 168.431, 232.653 169.558 Q 233.645 170.658, 233.645 172.535 Q 233.645 174.144, 232.814 175.405 Q 231.982 176.639, 230.48 177.336 Q 229.005 178.007, 227.047 178.007 Q 223.882 178.007, 222.058 176.558 Q 220.234 175.083, 220.234 172.535 Q 220.234 170.979, 221.039 169.826 Q 221.843 168.646, 223.506 167.761 Q 222.272 167.063, 221.602 166.044 Q 220.931 164.998, 220.931 163.389 Q 220.931 161.163, 222.541 159.848 Q 224.177 158.534, 226.94 158.534 Q 229.702 158.534, 231.311 159.848 Q 232.948 161.163, 232.948 163.389 Q 232.948 164.784, 232.17 165.83 Q 231.419 166.849, 229.917 167.68 M 226.94 160.546 Q 225.357 160.546, 224.472 161.297 Q 223.614 162.048, 223.614 163.389 Q 223.614 164.381, 224.204 165.052 Q 224.794 165.696, 225.625 166.071 Q 226.484 166.447, 228.12 167.01 Q 229.273 166.205, 229.756 165.347 Q 230.265 164.489, 230.265 163.389 Q 230.265 162.048, 229.38 161.297 Q 228.522 160.546, 226.94 160.546 M 227.047 175.995 Q 228.817 175.995, 229.89 175.056 Q 230.963 174.091, 230.963 172.508 Q 230.963 171.489, 230.4 170.845 Q 229.836 170.202, 228.978 169.826 Q 228.146 169.451, 226.644 168.968 L 225.437 168.566 Q 224.096 169.37, 223.506 170.336 Q 222.916 171.275, 222.916 172.508 Q 222.916 174.091, 224.043 175.056 Q 225.169 175.995, 227.047 175.995 " fill="#000000"/>
<path class="atom-8" d="M 132.901 176.867 Q 132.901 172.147, 135.101 169.679 Q 137.327 167.185, 141.538 167.185 Q 145.454 167.185, 147.546 169.947 L 145.776 171.396 Q 144.247 169.384, 141.538 169.384 Q 138.668 169.384, 137.139 171.315 Q 135.637 173.22, 135.637 176.867 Q 135.637 180.623, 137.193 182.554 Q 138.775 184.485, 141.833 184.485 Q 143.925 184.485, 146.366 183.224 L 147.117 185.236 Q 146.124 185.88, 144.622 186.255 Q 143.12 186.631, 141.457 186.631 Q 137.327 186.631, 135.101 184.109 Q 132.901 181.588, 132.901 176.867 " fill="#000000"/>
<path class="atom-8" d="M 149.558 183.251 L 152.24 183.251 L 152.24 185.933 L 149.558 185.933 L 149.558 183.251 M 149.558 174.024 L 152.24 174.024 L 152.24 176.707 L 149.558 176.707 L 149.558 174.024 " fill="#000000"/>
<path class="atom-8" d="M 160.099 167.185 Q 163.478 167.185, 165.168 169.491 Q 166.885 171.771, 166.885 176.331 Q 166.885 181.374, 164.766 184.002 Q 162.673 186.604, 158.623 186.604 Q 157.443 186.604, 156.424 186.336 Q 155.432 186.067, 154.466 185.504 L 155.512 183.707 Q 156.907 184.458, 158.597 184.458 Q 161.279 184.458, 162.647 182.741 Q 164.015 180.998, 164.175 177.431 Q 163.21 178.316, 161.976 178.799 Q 160.769 179.255, 159.455 179.255 Q 157.792 179.255, 156.478 178.53 Q 155.163 177.806, 154.439 176.492 Q 153.715 175.178, 153.715 173.515 Q 153.715 171.664, 154.52 170.242 Q 155.351 168.794, 156.799 167.989 Q 158.248 167.185, 160.099 167.185 M 156.397 173.488 Q 156.397 175.178, 157.336 176.143 Q 158.275 177.109, 159.938 177.109 Q 161.091 177.109, 162.217 176.653 Q 163.371 176.17, 164.175 175.365 Q 164.068 172.227, 163.076 170.806 Q 162.083 169.384, 160.072 169.384 Q 159.053 169.384, 158.194 169.921 Q 157.363 170.457, 156.88 171.396 Q 156.397 172.335, 156.397 173.488 " fill="#000000"/>
<path class="atom-9" d="M 103.736 344.482 L 106.311 344.482 L 106.311 352.556 L 116.02 352.556 L 116.02 344.482 L 118.595 344.482 L 118.595 363.472 L 116.02 363.472 L 116.02 354.702 L 106.311 354.702 L 106.311 363.472 L 103.736 363.472 L 103.736 344.482 " fill="#000000"/>
<path class="atom-9" d="M 120.607 360.334 L 123.289 360.334 L 123.289 363.016 L 120.607 363.016 L 120.607 360.334 M 120.607 351.107 L 123.289 351.107 L 123.289 353.79 L 120.607 353.79 L 120.607 351.107 " fill="#000000"/>
<path class="atom-9" d="M 125.783 361.327 L 129.941 361.327 L 129.941 347.138 L 125.354 348.559 L 124.737 346.977 L 130.558 344.375 L 132.462 344.697 L 132.462 361.327 L 136.19 361.327 L 136.19 363.472 L 125.783 363.472 L 125.783 361.327 " fill="#000000"/>
<path class="atom-9" d="M 144.773 363.687 Q 141.286 363.687, 139.543 361.112 Q 137.826 358.537, 137.826 353.95 Q 137.826 349.364, 139.543 346.816 Q 141.26 344.268, 144.773 344.268 Q 148.287 344.268, 150.003 346.816 Q 151.72 349.364, 151.72 353.95 Q 151.72 358.537, 149.977 361.112 Q 148.26 363.687, 144.773 363.687 M 144.773 361.541 Q 146.839 361.541, 147.938 359.637 Q 149.038 357.706, 149.038 353.95 Q 149.038 350.222, 147.938 348.318 Q 146.839 346.414, 144.773 346.414 Q 142.735 346.414, 141.608 348.318 Q 140.509 350.222, 140.509 353.95 Q 140.509 357.706, 141.608 359.637 Q 142.735 361.541, 144.773 361.541 " fill="#000000"/>
<path class="atom-10" d="M 275.152 384.334 L 277.727 384.334 L 277.727 392.407 L 287.437 392.407 L 287.437 384.334 L 290.012 384.334 L 290.012 403.323 L 287.437 403.323 L 287.437 394.553 L 277.727 394.553 L 277.727 403.323 L 275.152 403.323 L 275.152 384.334 " fill="#000000"/>
<path class="atom-10" d="M 292.023 400.185 L 294.706 400.185 L 294.706 402.867 L 292.023 402.867 L 292.023 400.185 M 292.023 390.959 L 294.706 390.959 L 294.706 393.641 L 292.023 393.641 L 292.023 390.959 " fill="#000000"/>
<path class="atom-10" d="M 297.2 401.178 L 301.357 401.178 L 301.357 386.989 L 296.771 388.41 L 296.154 386.828 L 301.974 384.226 L 303.879 384.548 L 303.879 401.178 L 307.607 401.178 L 307.607 403.323 L 297.2 403.323 L 297.2 401.178 " fill="#000000"/>
<path class="atom-10" d="M 310.101 401.178 L 314.259 401.178 L 314.259 386.989 L 309.672 388.41 L 309.055 386.828 L 314.876 384.226 L 316.78 384.548 L 316.78 401.178 L 320.508 401.178 L 320.508 403.323 L 310.101 403.323 L 310.101 401.178 " fill="#000000"/>
<path class="atom-11" d="M 344.204 175.919 Q 344.204 171.198, 346.404 168.73 Q 348.63 166.236, 352.841 166.236 Q 356.757 166.236, 358.849 168.999 L 357.079 170.447 Q 355.55 168.435, 352.841 168.435 Q 349.971 168.435, 348.442 170.367 Q 346.94 172.271, 346.94 175.919 Q 346.94 179.674, 348.496 181.605 Q 350.078 183.536, 353.136 183.536 Q 355.228 183.536, 357.669 182.276 L 358.42 184.287 Q 357.427 184.931, 355.925 185.306 Q 354.423 185.682, 352.76 185.682 Q 348.63 185.682, 346.404 183.161 Q 344.204 180.639, 344.204 175.919 " fill="#000000"/>
<path class="atom-11" d="M 360.861 182.302 L 363.543 182.302 L 363.543 184.985 L 360.861 184.985 L 360.861 182.302 M 360.861 173.076 L 363.543 173.076 L 363.543 175.758 L 360.861 175.758 L 360.861 173.076 " fill="#000000"/>
<path class="atom-11" d="M 366.037 183.295 L 370.195 183.295 L 370.195 169.106 L 365.608 170.528 L 364.991 168.945 L 370.811 166.343 L 372.716 166.665 L 372.716 183.295 L 376.444 183.295 L 376.444 185.441 L 366.037 185.441 L 366.037 183.295 " fill="#000000"/>
<path class="atom-11" d="M 377.839 170.045 Q 378.536 168.248, 380.199 167.255 Q 381.862 166.236, 384.169 166.236 Q 387.039 166.236, 388.648 167.792 Q 390.257 169.347, 390.257 172.11 Q 390.257 174.926, 388.165 177.555 Q 386.1 180.183, 381.808 183.295 L 390.579 183.295 L 390.579 185.441 L 377.785 185.441 L 377.785 183.643 Q 381.326 181.122, 383.418 179.245 Q 385.537 177.367, 386.556 175.677 Q 387.575 173.988, 387.575 172.244 Q 387.575 170.42, 386.663 169.401 Q 385.751 168.382, 384.169 168.382 Q 382.64 168.382, 381.621 168.999 Q 380.601 169.616, 379.877 170.983 L 377.839 170.045 " fill="#000000"/>
<path class="atom-12" d="M 398.367 317.796 Q 398.367 313.236, 400.62 310.688 Q 402.873 308.14, 407.084 308.14 Q 411.295 308.14, 413.548 310.688 Q 415.801 313.236, 415.801 317.796 Q 415.801 322.409, 413.521 325.038 Q 411.241 327.639, 407.084 327.639 Q 402.9 327.639, 400.62 325.038 Q 398.367 322.436, 398.367 317.796 M 407.084 325.494 Q 409.981 325.494, 411.536 323.562 Q 413.119 321.604, 413.119 317.796 Q 413.119 314.067, 411.536 312.19 Q 409.981 310.286, 407.084 310.286 Q 404.187 310.286, 402.605 312.163 Q 401.049 314.041, 401.049 317.796 Q 401.049 321.631, 402.605 323.562 Q 404.187 325.494, 407.084 325.494 " fill="#FF0000"/>
<path class="atom-12" d="M 417.813 324.206 L 420.495 324.206 L 420.495 326.888 L 417.813 326.888 L 417.813 324.206 M 417.813 314.979 L 420.495 314.979 L 420.495 317.662 L 417.813 317.662 L 417.813 314.979 " fill="#FF0000"/>
<path class="atom-12" d="M 422.989 325.198 L 427.147 325.198 L 427.147 311.01 L 422.56 312.431 L 421.943 310.849 L 427.764 308.247 L 429.668 308.569 L 429.668 325.198 L 433.396 325.198 L 433.396 327.344 L 422.989 327.344 L 422.989 325.198 " fill="#FF0000"/>
<path class="atom-12" d="M 443.642 317.34 Q 445.493 317.876, 446.378 319.083 Q 447.29 320.263, 447.29 322.141 Q 447.29 323.75, 446.485 325.011 Q 445.681 326.245, 444.205 326.942 Q 442.73 327.612, 440.799 327.612 Q 438.761 327.612, 437.232 326.915 Q 435.73 326.191, 434.523 324.743 L 436.052 323.187 Q 437.232 324.474, 438.224 324.984 Q 439.217 325.467, 440.799 325.467 Q 442.516 325.467, 443.562 324.555 Q 444.608 323.616, 444.608 322.114 Q 444.608 320.183, 443.508 319.324 Q 442.435 318.439, 440.102 318.439 L 438.734 318.439 L 438.734 316.508 L 439.941 316.508 Q 442.006 316.481, 443.106 315.596 Q 444.205 314.684, 444.205 312.995 Q 444.205 311.761, 443.294 311.037 Q 442.382 310.286, 440.826 310.286 Q 439.243 310.286, 438.251 310.849 Q 437.285 311.412, 436.534 312.834 L 434.684 311.841 Q 435.354 310.259, 436.964 309.213 Q 438.573 308.14, 440.826 308.14 Q 443.615 308.14, 445.252 309.454 Q 446.888 310.768, 446.888 312.995 Q 446.888 314.523, 446.056 315.623 Q 445.225 316.723, 443.642 317.34 " fill="#FF0000"/>
<path class="atom-13" d="M 22.7273 237.907 L 25.3022 237.907 L 25.3022 245.981 L 35.0117 245.981 L 35.0117 237.907 L 37.5866 237.907 L 37.5866 256.897 L 35.0117 256.897 L 35.0117 248.127 L 25.3022 248.127 L 25.3022 256.897 L 22.7273 256.897 L 22.7273 237.907 " fill="#000000"/>
<path class="atom-13" d="M 39.5983 253.759 L 42.2805 253.759 L 42.2805 256.441 L 39.5983 256.441 L 39.5983 253.759 M 39.5983 244.532 L 42.2805 244.532 L 42.2805 247.215 L 39.5983 247.215 L 39.5983 244.532 " fill="#000000"/>
<path class="atom-13" d="M 44.7749 254.752 L 48.9323 254.752 L 48.9323 240.563 L 44.3457 241.984 L 43.7288 240.402 L 49.5492 237.8 L 51.4536 238.122 L 51.4536 254.752 L 55.1818 254.752 L 55.1818 256.897 L 44.7749 256.897 L 44.7749 254.752 " fill="#000000"/>
<path class="atom-13" d="M 68.3246 250.38 L 70.6044 250.38 L 70.6044 252.525 L 68.3246 252.525 L 68.3246 256.897 L 65.8033 256.897 L 65.8033 252.525 L 55.9865 252.525 L 55.9865 250.836 L 64.3013 237.907 L 68.3246 237.907 L 68.3246 250.38 M 59.0978 250.38 L 65.8033 250.38 L 65.8033 239.624 L 59.0978 250.38 " fill="#000000"/>
<path class="atom-14" d="M 240.366 96.7838 L 242.941 96.7838 L 242.941 104.857 L 252.65 104.857 L 252.65 96.7838 L 255.225 96.7838 L 255.225 115.774 L 252.65 115.774 L 252.65 107.003 L 242.941 107.003 L 242.941 115.774 L 240.366 115.774 L 240.366 96.7838 " fill="#000000"/>
<path class="atom-14" d="M 257.237 112.636 L 259.919 112.636 L 259.919 115.318 L 257.237 115.318 L 257.237 112.636 M 257.237 103.409 L 259.919 103.409 L 259.919 106.091 L 257.237 106.091 L 257.237 103.409 " fill="#000000"/>
<path class="atom-14" d="M 262.414 113.628 L 266.571 113.628 L 266.571 99.4392 L 261.984 100.861 L 261.368 99.2783 L 267.188 96.6765 L 269.092 96.9984 L 269.092 113.628 L 272.82 113.628 L 272.82 115.774 L 262.414 115.774 L 262.414 113.628 " fill="#000000"/>
<path class="atom-14" d="M 280.948 103.892 Q 282.611 103.892, 283.978 104.616 Q 285.346 105.313, 286.124 106.654 Q 286.902 107.969, 286.902 109.766 Q 286.902 111.724, 285.936 113.145 Q 284.998 114.54, 283.442 115.264 Q 281.886 115.988, 280.116 115.988 Q 278.373 115.988, 276.763 115.345 Q 275.154 114.701, 274.054 113.467 L 275.664 111.804 Q 276.549 112.77, 277.756 113.306 Q 278.963 113.816, 280.197 113.816 Q 281.886 113.816, 283.04 112.77 Q 284.22 111.724, 284.22 109.819 Q 284.22 107.808, 283.04 106.869 Q 281.886 105.903, 280.036 105.903 Q 278.373 105.903, 276.522 106.627 L 275.047 105.93 L 275.959 96.7838 L 285.722 96.7838 L 285.454 98.9296 L 278.158 98.9296 L 277.595 104.562 Q 279.285 103.892, 280.948 103.892 " fill="#000000"/>
<path class="atom-15" d="M 73.9434 114.139 L 76.5183 114.139 L 76.5183 122.212 L 86.2279 122.212 L 86.2279 114.139 L 88.8028 114.139 L 88.8028 133.129 L 86.2279 133.129 L 86.2279 124.358 L 76.5183 124.358 L 76.5183 133.129 L 73.9434 133.129 L 73.9434 114.139 " fill="#000000"/>
<path class="atom-15" d="M 90.8144 129.99 L 93.4966 129.99 L 93.4966 132.673 L 90.8144 132.673 L 90.8144 129.99 M 90.8144 120.764 L 93.4966 120.764 L 93.4966 123.446 L 90.8144 123.446 L 90.8144 120.764 " fill="#000000"/>
<path class="atom-15" d="M 95.9911 130.983 L 100.148 130.983 L 100.148 116.794 L 95.5619 118.216 L 94.945 116.633 L 100.765 114.031 L 102.67 114.353 L 102.67 130.983 L 106.398 130.983 L 106.398 133.129 L 95.9911 133.129 L 95.9911 130.983 " fill="#000000"/>
<path class="atom-15" d="M 115.652 121.273 Q 117.315 121.273, 118.629 121.998 Q 119.943 122.722, 120.667 124.036 Q 121.391 125.35, 121.391 127.013 Q 121.391 128.864, 120.56 130.312 Q 119.755 131.734, 118.307 132.539 Q 116.859 133.343, 115.008 133.343 Q 111.628 133.343, 109.912 131.063 Q 108.222 128.757, 108.222 124.197 Q 108.222 119.154, 110.314 116.553 Q 112.433 113.924, 116.483 113.924 Q 117.663 113.924, 118.656 114.192 Q 119.675 114.461, 120.64 115.024 L 119.594 116.821 Q 118.2 116.07, 116.51 116.07 Q 113.828 116.07, 112.46 117.813 Q 111.092 119.53, 110.931 123.097 Q 111.896 122.212, 113.103 121.756 Q 114.337 121.273, 115.652 121.273 M 115.035 131.144 Q 116.054 131.144, 116.885 130.607 Q 117.744 130.071, 118.226 129.132 Q 118.709 128.193, 118.709 127.04 Q 118.709 125.35, 117.77 124.385 Q 116.832 123.419, 115.169 123.419 Q 114.015 123.419, 112.862 123.902 Q 111.736 124.358, 110.931 125.162 Q 111.038 128.301, 112.031 129.722 Q 113.023 131.144, 115.035 131.144 " fill="#000000"/>
<path class="atom-16" d="M 431.729 178.718 L 434.304 178.718 L 434.304 186.791 L 444.014 186.791 L 444.014 178.718 L 446.588 178.718 L 446.588 197.708 L 444.014 197.708 L 444.014 188.937 L 434.304 188.937 L 434.304 197.708 L 431.729 197.708 L 431.729 178.718 " fill="#000000"/>
<path class="atom-16" d="M 448.6 194.569 L 451.282 194.569 L 451.282 197.252 L 448.6 197.252 L 448.6 194.569 M 448.6 185.343 L 451.282 185.343 L 451.282 188.025 L 448.6 188.025 L 448.6 185.343 " fill="#000000"/>
<path class="atom-16" d="M 453.777 195.562 L 457.934 195.562 L 457.934 181.373 L 453.348 182.795 L 452.731 181.212 L 458.551 178.61 L 460.455 178.932 L 460.455 195.562 L 464.184 195.562 L 464.184 197.708 L 453.777 197.708 L 453.777 195.562 " fill="#000000"/>
<path class="atom-16" d="M 474.617 180.863 L 464.666 180.863 L 464.666 178.718 L 477.273 178.718 L 477.273 180.622 L 469.602 197.708 L 467.027 197.708 L 474.617 180.863 " fill="#000000"/>
<path class="atom-17" d="M 343.529 103.208 L 346.104 103.208 L 346.104 111.281 L 355.814 111.281 L 355.814 103.208 L 358.389 103.208 L 358.389 122.198 L 355.814 122.198 L 355.814 113.427 L 346.104 113.427 L 346.104 122.198 L 343.529 122.198 L 343.529 103.208 " fill="#000000"/>
<path class="atom-17" d="M 360.4 119.059 L 363.083 119.059 L 363.083 121.742 L 360.4 121.742 L 360.4 119.059 M 360.4 109.833 L 363.083 109.833 L 363.083 112.515 L 360.4 112.515 L 360.4 109.833 " fill="#000000"/>
<path class="atom-17" d="M 365.577 120.052 L 369.734 120.052 L 369.734 105.863 L 365.148 107.285 L 364.531 105.702 L 370.351 103.1 L 372.256 103.422 L 372.256 120.052 L 375.984 120.052 L 375.984 122.198 L 365.577 122.198 L 365.577 120.052 " fill="#000000"/>
<path class="atom-17" d="M 387.33 112.139 Q 389.073 112.89, 390.065 114.017 Q 391.058 115.117, 391.058 116.994 Q 391.058 118.604, 390.226 119.864 Q 389.395 121.098, 387.893 121.795 Q 386.418 122.466, 384.46 122.466 Q 381.295 122.466, 379.471 121.017 Q 377.647 119.542, 377.647 116.994 Q 377.647 115.439, 378.451 114.285 Q 379.256 113.105, 380.919 112.22 Q 379.685 111.523, 379.015 110.503 Q 378.344 109.457, 378.344 107.848 Q 378.344 105.622, 379.954 104.307 Q 381.59 102.993, 384.352 102.993 Q 387.115 102.993, 388.724 104.307 Q 390.36 105.622, 390.36 107.848 Q 390.36 109.243, 389.583 110.289 Q 388.832 111.308, 387.33 112.139 M 384.352 105.005 Q 382.77 105.005, 381.885 105.756 Q 381.026 106.507, 381.026 107.848 Q 381.026 108.84, 381.616 109.511 Q 382.207 110.155, 383.038 110.53 Q 383.896 110.906, 385.532 111.469 Q 386.686 110.664, 387.169 109.806 Q 387.678 108.948, 387.678 107.848 Q 387.678 106.507, 386.793 105.756 Q 385.935 105.005, 384.352 105.005 M 384.46 120.454 Q 386.23 120.454, 387.303 119.515 Q 388.376 118.55, 388.376 116.967 Q 388.376 115.948, 387.812 115.304 Q 387.249 114.661, 386.391 114.285 Q 385.559 113.91, 384.057 113.427 L 382.85 113.025 Q 381.509 113.829, 380.919 114.795 Q 380.329 115.734, 380.329 116.967 Q 380.329 118.55, 381.456 119.515 Q 382.582 120.454, 384.46 120.454 " fill="#000000"/>
<text x="316.5590737572087" y="309.4606291767073" font-size="12" font-family="Verdana" font-weight="bold" letter-spacing="0" text-anchor="start" fill="black" transform=" rotate(58.587734 316.559074 309.460629)">1.095</text><text x="25" y="490" font-size="12" font-family="Verdana" font-weight="bold" letter-spacing="0" text-anchor="start" fill="black">[#6:1]1(:[#6:2]2-[#7:3](-[#6:6](-[#6:4](-[#6:5]:2:[#6:8](:[#6:9](:[#6:7]:1-[H:14])-[H:16])-[H:15])=[#6:12](-[H:17])-[H:18])=[#8:13])-[H:11])-[H:10]</text></svg>
