<?xml version='1.0' encoding='ASCII' standalone='yes'?>
<svg xmlns="http://www.w3.org/2000/svg" xmlns:rdkit="http://www.rdkit.org/xml" xmlns:xlink="http://www.w3.org/1999/xlink" version="1.1" baseProfile="full" xml:space="preserve" width="500px" height="500px" viewBox="0 0 500 500">
<!-- END OF HEADER -->
<rect style="opacity:1.0;fill:#FFFFFF;stroke:none" width="500" height="500" x="0" y="0"> </rect>
<path d="M 382.649,224.995 L 334.583,275.06" style="fill:none;fill-rule:evenodd;stroke:#FF7F7F;stroke-width:14.8px;stroke-linecap:butt;stroke-linejoin:miter;stroke-opacity:1"/>
<path class="bond-1 atom-1 atom-0" d="M 394.141,234.972 L 416.051,240.367" style="fill:none;fill-rule:evenodd;stroke:#000000;stroke-width:2.0px;stroke-linecap:butt;stroke-linejoin:miter;stroke-opacity:1"/>
<path class="bond-1 atom-1 atom-0" d="M 416.051,240.367 L 437.961,245.762" style="fill:none;fill-rule:evenodd;stroke:#FF0000;stroke-width:2.0px;stroke-linecap:butt;stroke-linejoin:miter;stroke-opacity:1"/>
<path class="bond-1 atom-1 atom-0" d="M 397.46,221.494 L 419.37,226.889" style="fill:none;fill-rule:evenodd;stroke:#000000;stroke-width:2.0px;stroke-linecap:butt;stroke-linejoin:miter;stroke-opacity:1"/>
<path class="bond-1 atom-1 atom-0" d="M 419.37,226.889 L 441.279,232.284" style="fill:none;fill-rule:evenodd;stroke:#FF0000;stroke-width:2.0px;stroke-linecap:butt;stroke-linejoin:miter;stroke-opacity:1"/>
<path class="bond-0 atom-1 atom-10" d="M 379.264,213.322 L 366.62,169.707" style="fill:none;fill-rule:evenodd;stroke:#000000;stroke-width:2.0px;stroke-linecap:butt;stroke-linejoin:miter;stroke-opacity:1"/>
<path class="bond-3 atom-2 atom-1" d="M 345.791,263.387 L 358.69,249.95" style="fill:none;fill-rule:evenodd;stroke:#0000FF;stroke-width:2.0px;stroke-linecap:butt;stroke-linejoin:miter;stroke-opacity:1"/>
<path class="bond-3 atom-2 atom-1" d="M 358.69,249.95 L 371.59,236.514" style="fill:none;fill-rule:evenodd;stroke:#000000;stroke-width:2.0px;stroke-linecap:butt;stroke-linejoin:miter;stroke-opacity:1"/>
<path class="bond-2 atom-2 atom-4" d="M 310.086,269.029 L 294.879,265.284" style="fill:none;fill-rule:evenodd;stroke:#0000FF;stroke-width:2.0px;stroke-linecap:butt;stroke-linejoin:miter;stroke-opacity:1"/>
<path class="bond-2 atom-2 atom-4" d="M 294.879,265.284 L 279.672,261.54" style="fill:none;fill-rule:evenodd;stroke:#000000;stroke-width:2.0px;stroke-linecap:butt;stroke-linejoin:miter;stroke-opacity:1"/>
<path class="bond-4 atom-2 atom-3" d="M 338.048,287.012 L 344.363,308.795" style="fill:none;fill-rule:evenodd;stroke:#0000FF;stroke-width:2.0px;stroke-linecap:butt;stroke-linejoin:miter;stroke-opacity:1"/>
<path class="bond-4 atom-2 atom-3" d="M 344.363,308.795 L 350.679,330.578" style="fill:none;fill-rule:evenodd;stroke:#000000;stroke-width:2.0px;stroke-linecap:butt;stroke-linejoin:miter;stroke-opacity:1"/>
<path class="bond-5 atom-3 atom-11" d="M 367.791,337.694 L 411.503,325.021" style="fill:none;fill-rule:evenodd;stroke:#000000;stroke-width:2.0px;stroke-linecap:butt;stroke-linejoin:miter;stroke-opacity:1"/>
<path class="bond-6 atom-3 atom-12" d="M 328.343,349.131 L 294.927,358.818" style="fill:none;fill-rule:evenodd;stroke:#000000;stroke-width:2.0px;stroke-linecap:butt;stroke-linejoin:miter;stroke-opacity:1"/>
<path class="bond-7 atom-3 atom-13" d="M 357.293,353.392 L 369.986,397.174" style="fill:none;fill-rule:evenodd;stroke:#000000;stroke-width:2.0px;stroke-linecap:butt;stroke-linejoin:miter;stroke-opacity:1"/>
<path class="bond-15 atom-8 atom-4" d="M 251.324,203.732 L 263.963,247.326" style="fill:none;fill-rule:evenodd;stroke:#000000;stroke-width:2.0px;stroke-linecap:butt;stroke-linejoin:miter;stroke-opacity:1"/>
<path class="bond-15 atom-8 atom-4" d="M 239.889,214.136 L 248.735,244.652" style="fill:none;fill-rule:evenodd;stroke:#000000;stroke-width:2.0px;stroke-linecap:butt;stroke-linejoin:miter;stroke-opacity:1"/>
<path class="bond-17 atom-9 atom-4" d="M 230.335,296.859 L 256.134,269.986" style="fill:none;fill-rule:evenodd;stroke:#000000;stroke-width:2.0px;stroke-linecap:butt;stroke-linejoin:miter;stroke-opacity:1"/>
<path class="bond-8 atom-5 atom-6" d="M 143.619,213.607 L 169.419,186.735" style="fill:none;fill-rule:evenodd;stroke:#000000;stroke-width:2.0px;stroke-linecap:butt;stroke-linejoin:miter;stroke-opacity:1"/>
<path class="bond-8 atom-5 atom-6" d="M 157.502,219.19 L 175.562,200.379" style="fill:none;fill-rule:evenodd;stroke:#000000;stroke-width:2.0px;stroke-linecap:butt;stroke-linejoin:miter;stroke-opacity:1"/>
<path class="bond-9 atom-5 atom-7" d="M 135.861,237.177 L 148.443,280.575" style="fill:none;fill-rule:evenodd;stroke:#000000;stroke-width:2.0px;stroke-linecap:butt;stroke-linejoin:miter;stroke-opacity:1"/>
<path class="bond-10 atom-5 atom-20" d="M 107.119,219.053 L 72.0325,210.414" style="fill:none;fill-rule:evenodd;stroke:#000000;stroke-width:2.0px;stroke-linecap:butt;stroke-linejoin:miter;stroke-opacity:1"/>
<path class="bond-11 atom-6 atom-8" d="M 192.924,178.28 L 238.874,189.594" style="fill:none;fill-rule:evenodd;stroke:#000000;stroke-width:2.0px;stroke-linecap:butt;stroke-linejoin:miter;stroke-opacity:1"/>
<path class="bond-12 atom-6 atom-14" d="M 177.157,163.764 L 164.434,119.877" style="fill:none;fill-rule:evenodd;stroke:#000000;stroke-width:2.0px;stroke-linecap:butt;stroke-linejoin:miter;stroke-opacity:1"/>
<path class="bond-13 atom-7 atom-9" d="M 165.484,295.324 L 187.185,300.667" style="fill:none;fill-rule:evenodd;stroke:#000000;stroke-width:2.0px;stroke-linecap:butt;stroke-linejoin:miter;stroke-opacity:1"/>
<path class="bond-13 atom-7 atom-9" d="M 172.057,282.648 L 187.248,286.388" style="fill:none;fill-rule:evenodd;stroke:#000000;stroke-width:2.0px;stroke-linecap:butt;stroke-linejoin:miter;stroke-opacity:1"/>
<path class="bond-14 atom-7 atom-15" d="M 140.29,303.863 L 111.809,333.529" style="fill:none;fill-rule:evenodd;stroke:#000000;stroke-width:2.0px;stroke-linecap:butt;stroke-linejoin:miter;stroke-opacity:1"/>
<path class="bond-16 atom-8 atom-16" d="M 261.326,180.846 L 271.361,172.671" style="fill:none;fill-rule:evenodd;stroke:#000000;stroke-width:2.0px;stroke-linecap:butt;stroke-linejoin:miter;stroke-opacity:1"/>
<path class="bond-18 atom-9 atom-17" d="M 222.576,320.428 L 235.223,364.049" style="fill:none;fill-rule:evenodd;stroke:#000000;stroke-width:2.0px;stroke-linecap:butt;stroke-linejoin:miter;stroke-opacity:1"/>
<path class="bond-19 atom-10 atom-18" d="M 337.123,169.55 L 332.774,171.411" style="fill:none;fill-rule:evenodd;stroke:#000000;stroke-width:2.0px;stroke-linecap:butt;stroke-linejoin:miter;stroke-opacity:1"/>
<path class="bond-20 atom-10 atom-19" d="M 370.985,156.115 L 420.756,141.686" style="fill:none;fill-rule:evenodd;stroke:#000000;stroke-width:2.0px;stroke-linecap:butt;stroke-linejoin:miter;stroke-opacity:1"/>
<path class="bond-21 atom-10 atom-21" d="M 359.971,146.774 L 347.295,103.051" style="fill:none;fill-rule:evenodd;stroke:#000000;stroke-width:2.0px;stroke-linecap:butt;stroke-linejoin:miter;stroke-opacity:1"/>
<path class="atom-0" d="M 441.017 241.644 Q 441.017 236.924, 443.348 234.287 Q 445.68 231.65, 450.039 231.65 Q 454.397 231.65, 456.729 234.287 Q 459.061 236.924, 459.061 241.644 Q 459.061 246.419, 456.702 249.139 Q 454.342 251.832, 450.039 251.832 Q 445.708 251.832, 443.348 249.139 Q 441.017 246.446, 441.017 241.644 M 450.039 249.611 Q 453.037 249.611, 454.647 247.612 Q 456.285 245.586, 456.285 241.644 Q 456.285 237.785, 454.647 235.842 Q 453.037 233.871, 450.039 233.871 Q 447.041 233.871, 445.403 235.814 Q 443.793 237.757, 443.793 241.644 Q 443.793 245.614, 445.403 247.612 Q 447.041 249.611, 450.039 249.611 " fill="#FF0000"/>
<path class="atom-0" d="M 461.143 248.279 L 463.92 248.279 L 463.92 251.055 L 461.143 251.055 L 461.143 248.279 M 461.143 238.729 L 463.92 238.729 L 463.92 241.505 L 461.143 241.505 L 461.143 238.729 " fill="#FF0000"/>
<path class="atom-0" d="M 466.501 249.306 L 470.804 249.306 L 470.804 234.62 L 466.057 236.092 L 465.419 234.454 L 471.443 231.761 L 473.414 232.094 L 473.414 249.306 L 477.273 249.306 L 477.273 251.527 L 466.501 251.527 L 466.501 249.306 " fill="#FF0000"/>
<path class="atom-1" d="M 359.419 225.078 Q 359.419 220.192, 361.696 217.638 Q 364 215.057, 368.358 215.057 Q 372.412 215.057, 374.577 217.916 L 372.745 219.415 Q 371.162 217.333, 368.358 217.333 Q 365.388 217.333, 363.806 219.332 Q 362.251 221.303, 362.251 225.078 Q 362.251 228.965, 363.861 230.964 Q 365.499 232.963, 368.664 232.963 Q 370.829 232.963, 373.355 231.658 L 374.133 233.74 Q 373.106 234.406, 371.551 234.795 Q 369.996 235.184, 368.275 235.184 Q 364 235.184, 361.696 232.574 Q 359.419 229.964, 359.419 225.078 " fill="#000000"/>
<path class="atom-1" d="M 376.659 231.686 L 379.435 231.686 L 379.435 234.462 L 376.659 234.462 L 376.659 231.686 M 376.659 222.136 L 379.435 222.136 L 379.435 224.912 L 376.659 224.912 L 376.659 222.136 " fill="#000000"/>
<path class="atom-1" d="M 380.879 218.999 Q 381.601 217.139, 383.322 216.112 Q 385.043 215.057, 387.43 215.057 Q 390.401 215.057, 392.067 216.667 Q 393.732 218.277, 393.732 221.136 Q 393.732 224.051, 391.567 226.772 Q 389.429 229.492, 384.987 232.713 L 394.065 232.713 L 394.065 234.934 L 380.823 234.934 L 380.823 233.074 Q 384.488 230.464, 386.653 228.521 Q 388.846 226.578, 389.901 224.829 Q 390.956 223.08, 390.956 221.275 Q 390.956 219.387, 390.012 218.332 Q 389.068 217.278, 387.43 217.278 Q 385.848 217.278, 384.793 217.916 Q 383.738 218.555, 382.989 219.97 L 380.879 218.999 " fill="#000000"/>
<path class="atom-2" d="M 314.931 265.344 L 321.371 275.754 Q 322.01 276.782, 323.037 278.642 Q 324.064 280.502, 324.12 280.613 L 324.12 265.344 L 326.729 265.344 L 326.729 284.999 L 324.036 284.999 L 317.124 273.617 Q 316.319 272.284, 315.458 270.757 Q 314.625 269.231, 314.375 268.759 L 314.375 284.999 L 311.821 284.999 L 311.821 265.344 L 314.931 265.344 " fill="#0000FF"/>
<path class="atom-2" d="M 328.811 281.751 L 331.587 281.751 L 331.587 284.527 L 328.811 284.527 L 328.811 281.751 M 328.811 272.201 L 331.587 272.201 L 331.587 274.977 L 328.811 274.977 L 328.811 272.201 " fill="#0000FF"/>
<path class="atom-2" d="M 342.192 274.644 Q 344.108 275.199, 345.024 276.448 Q 345.968 277.67, 345.968 279.613 Q 345.968 281.279, 345.135 282.584 Q 344.302 283.861, 342.775 284.583 Q 341.248 285.277, 339.249 285.277 Q 337.14 285.277, 335.557 284.555 Q 334.003 283.805, 332.753 282.306 L 334.336 280.696 Q 335.557 282.028, 336.584 282.556 Q 337.612 283.056, 339.249 283.056 Q 341.026 283.056, 342.109 282.112 Q 343.192 281.14, 343.192 279.585 Q 343.192 277.587, 342.053 276.698 Q 340.943 275.782, 338.528 275.782 L 337.112 275.782 L 337.112 273.783 L 338.361 273.783 Q 340.499 273.756, 341.637 272.839 Q 342.775 271.896, 342.775 270.147 Q 342.775 268.87, 341.831 268.12 Q 340.887 267.343, 339.277 267.343 Q 337.639 267.343, 336.612 267.926 Q 335.613 268.509, 334.835 269.98 L 332.92 268.953 Q 333.614 267.315, 335.28 266.232 Q 336.945 265.122, 339.277 265.122 Q 342.164 265.122, 343.858 266.482 Q 345.551 267.842, 345.551 270.147 Q 345.551 271.729, 344.691 272.867 Q 343.83 274.005, 342.192 274.644 " fill="#0000FF"/>
<path class="atom-3" d="M 330.078 341.802 Q 330.078 336.916, 332.354 334.362 Q 334.658 331.78, 339.017 331.78 Q 343.07 331.78, 345.235 334.64 L 343.403 336.139 Q 341.821 334.057, 339.017 334.057 Q 336.046 334.057, 334.464 336.055 Q 332.909 338.027, 332.909 341.802 Q 332.909 345.689, 334.519 347.687 Q 336.157 349.686, 339.322 349.686 Q 341.488 349.686, 344.014 348.381 L 344.791 350.464 Q 343.764 351.13, 342.209 351.518 Q 340.655 351.907, 338.933 351.907 Q 334.658 351.907, 332.354 349.298 Q 330.078 346.688, 330.078 341.802 " fill="#000000"/>
<path class="atom-3" d="M 347.317 348.409 L 350.094 348.409 L 350.094 351.185 L 347.317 351.185 L 347.317 348.409 M 347.317 338.859 L 350.094 338.859 L 350.094 341.635 L 347.317 341.635 L 347.317 338.859 " fill="#000000"/>
<path class="atom-3" d="M 363.697 344.911 L 366.056 344.911 L 366.056 347.132 L 363.697 347.132 L 363.697 351.657 L 361.087 351.657 L 361.087 347.132 L 350.926 347.132 L 350.926 345.383 L 359.532 332.002 L 363.697 332.002 L 363.697 344.911 M 354.147 344.911 L 361.087 344.911 L 361.087 333.779 L 354.147 344.911 " fill="#000000"/>
<path class="atom-4" d="M 243.977 258.551 Q 243.977 253.665, 246.254 251.111 Q 248.558 248.529, 252.917 248.529 Q 256.97 248.529, 259.135 251.388 L 257.303 252.887 Q 255.72 250.805, 252.917 250.805 Q 249.946 250.805, 248.364 252.804 Q 246.809 254.775, 246.809 258.551 Q 246.809 262.437, 248.419 264.436 Q 250.057 266.435, 253.222 266.435 Q 255.387 266.435, 257.914 265.13 L 258.691 267.212 Q 257.664 267.878, 256.109 268.267 Q 254.555 268.656, 252.833 268.656 Q 248.558 268.656, 246.254 266.046 Q 243.977 263.437, 243.977 258.551 " fill="#000000"/>
<path class="atom-4" d="M 261.217 265.158 L 263.993 265.158 L 263.993 267.934 L 261.217 267.934 L 261.217 265.158 M 261.217 255.608 L 263.993 255.608 L 263.993 258.384 L 261.217 258.384 L 261.217 255.608 " fill="#000000"/>
<path class="atom-4" d="M 272.405 256.108 Q 274.126 256.108, 275.542 256.857 Q 276.958 257.579, 277.763 258.967 Q 278.568 260.327, 278.568 262.187 Q 278.568 264.214, 277.569 265.685 Q 276.597 267.129, 274.987 267.878 Q 273.377 268.628, 271.544 268.628 Q 269.74 268.628, 268.074 267.962 Q 266.409 267.295, 265.27 266.018 L 266.936 264.297 Q 267.852 265.297, 269.101 265.852 Q 270.351 266.379, 271.628 266.379 Q 273.377 266.379, 274.57 265.297 Q 275.792 264.214, 275.792 262.243 Q 275.792 260.161, 274.57 259.189 Q 273.377 258.19, 271.461 258.19 Q 269.74 258.19, 267.824 258.939 L 266.298 258.217 L 267.241 248.751 L 277.347 248.751 L 277.069 250.972 L 269.518 250.972 L 268.935 256.802 Q 270.684 256.108, 272.405 256.108 " fill="#000000"/>
<path class="atom-5" d="M 108.854 225.364 Q 108.854 220.478, 111.131 217.924 Q 113.435 215.342, 117.793 215.342 Q 121.847 215.342, 124.012 218.202 L 122.18 219.701 Q 120.597 217.619, 117.793 217.619 Q 114.823 217.619, 113.241 219.618 Q 111.686 221.589, 111.686 225.364 Q 111.686 229.251, 113.296 231.25 Q 114.934 233.249, 118.099 233.249 Q 120.264 233.249, 122.79 231.944 L 123.568 234.026 Q 122.541 234.692, 120.986 235.081 Q 119.431 235.469, 117.71 235.469 Q 113.435 235.469, 111.131 232.86 Q 108.854 230.25, 108.854 225.364 " fill="#000000"/>
<path class="atom-5" d="M 126.094 231.971 L 128.87 231.971 L 128.87 234.748 L 126.094 234.748 L 126.094 231.971 M 126.094 222.422 L 128.87 222.422 L 128.87 225.198 L 126.094 225.198 L 126.094 222.422 " fill="#000000"/>
<path class="atom-5" d="M 138.448 222.949 Q 140.169 222.949, 141.529 223.699 Q 142.89 224.448, 143.639 225.808 Q 144.389 227.169, 144.389 228.89 Q 144.389 230.806, 143.528 232.305 Q 142.695 233.776, 141.196 234.609 Q 139.697 235.442, 137.781 235.442 Q 134.284 235.442, 132.507 233.082 Q 130.758 230.694, 130.758 225.975 Q 130.758 220.756, 132.923 218.063 Q 135.116 215.342, 139.308 215.342 Q 140.53 215.342, 141.557 215.62 Q 142.612 215.898, 143.611 216.481 L 142.529 218.341 Q 141.085 217.563, 139.336 217.563 Q 136.56 217.563, 135.144 219.368 Q 133.728 221.145, 133.562 224.837 Q 134.561 223.921, 135.81 223.449 Q 137.087 222.949, 138.448 222.949 M 137.809 233.165 Q 138.864 233.165, 139.725 232.61 Q 140.613 232.055, 141.113 231.083 Q 141.613 230.111, 141.613 228.918 Q 141.613 227.169, 140.641 226.169 Q 139.669 225.17, 137.948 225.17 Q 136.754 225.17, 135.561 225.67 Q 134.395 226.142, 133.562 226.974 Q 133.673 230.223, 134.7 231.694 Q 135.727 233.165, 137.809 233.165 " fill="#000000"/>
<path class="atom-6" d="M 157.625 175.299 Q 157.625 170.413, 159.902 167.859 Q 162.206 165.277, 166.564 165.277 Q 170.617 165.277, 172.783 168.137 L 170.951 169.636 Q 169.368 167.554, 166.564 167.554 Q 163.594 167.554, 162.011 169.552 Q 160.457 171.524, 160.457 175.299 Q 160.457 179.186, 162.067 181.184 Q 163.705 183.183, 166.87 183.183 Q 169.035 183.183, 171.561 181.878 L 172.339 183.961 Q 171.311 184.627, 169.757 185.016 Q 168.202 185.404, 166.481 185.404 Q 162.206 185.404, 159.902 182.795 Q 157.625 180.185, 157.625 175.299 " fill="#000000"/>
<path class="atom-6" d="M 174.865 181.906 L 177.641 181.906 L 177.641 184.682 L 174.865 184.682 L 174.865 181.906 M 174.865 172.356 L 177.641 172.356 L 177.641 175.132 L 174.865 175.132 L 174.865 172.356 " fill="#000000"/>
<path class="atom-6" d="M 188.44 167.72 L 178.141 167.72 L 178.141 165.499 L 191.188 165.499 L 191.188 167.47 L 183.249 185.154 L 180.584 185.154 L 188.44 167.72 " fill="#000000"/>
<path class="atom-7" d="M 128.131 292.023 Q 128.131 287.137, 130.407 284.583 Q 132.711 282.001, 137.07 282.001 Q 141.123 282.001, 143.288 284.86 L 141.456 286.359 Q 139.874 284.277, 137.07 284.277 Q 134.099 284.277, 132.517 286.276 Q 130.962 288.247, 130.962 292.023 Q 130.962 295.909, 132.573 297.908 Q 134.211 299.907, 137.375 299.907 Q 139.541 299.907, 142.067 298.602 L 142.844 300.684 Q 141.817 301.35, 140.262 301.739 Q 138.708 302.128, 136.987 302.128 Q 132.711 302.128, 130.407 299.518 Q 128.131 296.909, 128.131 292.023 " fill="#000000"/>
<path class="atom-7" d="M 145.371 298.63 L 148.147 298.63 L 148.147 301.406 L 145.371 301.406 L 145.371 298.63 M 145.371 289.08 L 148.147 289.08 L 148.147 291.856 L 145.371 291.856 L 145.371 289.08 " fill="#000000"/>
<path class="atom-7" d="M 159.89 291.467 Q 161.694 292.245, 162.721 293.411 Q 163.749 294.549, 163.749 296.492 Q 163.749 298.158, 162.888 299.463 Q 162.027 300.74, 160.473 301.462 Q 158.946 302.156, 156.919 302.156 Q 153.643 302.156, 151.756 300.656 Q 149.868 299.13, 149.868 296.492 Q 149.868 294.882, 150.701 293.688 Q 151.534 292.467, 153.255 291.551 Q 151.978 290.829, 151.284 289.774 Q 150.59 288.691, 150.59 287.026 Q 150.59 284.721, 152.255 283.361 Q 153.949 282.001, 156.808 282.001 Q 159.668 282.001, 161.333 283.361 Q 163.027 284.721, 163.027 287.026 Q 163.027 288.469, 162.222 289.552 Q 161.444 290.607, 159.89 291.467 M 156.808 284.083 Q 155.17 284.083, 154.254 284.86 Q 153.366 285.638, 153.366 287.026 Q 153.366 288.053, 153.977 288.747 Q 154.587 289.413, 155.448 289.802 Q 156.336 290.19, 158.03 290.773 Q 159.223 289.941, 159.723 289.052 Q 160.251 288.164, 160.251 287.026 Q 160.251 285.638, 159.334 284.86 Q 158.446 284.083, 156.808 284.083 M 156.919 300.073 Q 158.751 300.073, 159.862 299.102 Q 160.972 298.102, 160.972 296.464 Q 160.972 295.41, 160.389 294.743 Q 159.806 294.077, 158.918 293.688 Q 158.057 293.3, 156.503 292.8 L 155.254 292.384 Q 153.865 293.216, 153.255 294.216 Q 152.644 295.187, 152.644 296.464 Q 152.644 298.102, 153.81 299.102 Q 154.976 300.073, 156.919 300.073 " fill="#000000"/>
<path class="atom-8" d="M 240.289 191.892 Q 240.289 187.006, 242.565 184.452 Q 244.869 181.87, 249.228 181.87 Q 253.281 181.87, 255.446 184.73 L 253.614 186.229 Q 252.032 184.147, 249.228 184.147 Q 246.258 184.147, 244.675 186.146 Q 243.12 188.117, 243.12 191.892 Q 243.12 195.779, 244.731 197.778 Q 246.369 199.776, 249.533 199.776 Q 251.699 199.776, 254.225 198.472 L 255.002 200.554 Q 253.975 201.22, 252.421 201.609 Q 250.866 201.997, 249.145 201.997 Q 244.869 201.997, 242.565 199.388 Q 240.289 196.778, 240.289 191.892 " fill="#000000"/>
<path class="atom-8" d="M 257.529 198.499 L 260.305 198.499 L 260.305 201.275 L 257.529 201.275 L 257.529 198.499 M 257.529 188.949 L 260.305 188.949 L 260.305 191.726 L 257.529 191.726 L 257.529 188.949 " fill="#000000"/>
<path class="atom-8" d="M 268.439 181.87 Q 271.937 181.87, 273.686 184.258 Q 275.462 186.618, 275.462 191.337 Q 275.462 196.556, 273.269 199.277 Q 271.104 201.97, 266.912 201.97 Q 265.69 201.97, 264.635 201.692 Q 263.608 201.414, 262.609 200.831 L 263.692 198.971 Q 265.135 199.749, 266.884 199.749 Q 269.66 199.749, 271.076 197.972 Q 272.492 196.167, 272.658 192.475 Q 271.659 193.391, 270.382 193.891 Q 269.133 194.363, 267.772 194.363 Q 266.051 194.363, 264.691 193.613 Q 263.331 192.864, 262.581 191.504 Q 261.832 190.143, 261.832 188.422 Q 261.832 186.506, 262.664 185.035 Q 263.525 183.536, 265.024 182.703 Q 266.523 181.87, 268.439 181.87 M 264.608 188.394 Q 264.608 190.143, 265.579 191.143 Q 266.551 192.142, 268.272 192.142 Q 269.466 192.142, 270.632 191.67 Q 271.826 191.17, 272.658 190.338 Q 272.547 187.089, 271.52 185.618 Q 270.493 184.147, 268.411 184.147 Q 267.356 184.147, 266.468 184.702 Q 265.607 185.257, 265.107 186.229 Q 264.608 187.201, 264.608 188.394 " fill="#000000"/>
<path class="atom-9" d="M 188.566 308.616 Q 188.566 303.73, 190.842 301.176 Q 193.146 298.594, 197.505 298.594 Q 201.558 298.594, 203.724 301.453 L 201.891 302.953 Q 200.309 300.87, 197.505 300.87 Q 194.535 300.87, 192.952 302.869 Q 191.398 304.84, 191.398 308.616 Q 191.398 312.502, 193.008 314.501 Q 194.646 316.5, 197.81 316.5 Q 199.976 316.5, 202.502 315.195 L 203.279 317.277 Q 202.252 317.944, 200.698 318.332 Q 199.143 318.721, 197.422 318.721 Q 193.146 318.721, 190.842 316.111 Q 188.566 313.502, 188.566 308.616 " fill="#000000"/>
<path class="atom-9" d="M 205.806 315.223 L 208.582 315.223 L 208.582 317.999 L 205.806 317.999 L 205.806 315.223 M 205.806 305.673 L 208.582 305.673 L 208.582 308.449 L 205.806 308.449 L 205.806 305.673 " fill="#000000"/>
<path class="atom-9" d="M 211.164 316.25 L 215.467 316.25 L 215.467 301.564 L 210.719 303.036 L 210.081 301.398 L 216.105 298.705 L 218.076 299.038 L 218.076 316.25 L 221.935 316.25 L 221.935 318.471 L 211.164 318.471 L 211.164 316.25 " fill="#000000"/>
<path class="atom-9" d="M 230.819 318.693 Q 227.21 318.693, 225.405 316.028 Q 223.628 313.363, 223.628 308.616 Q 223.628 303.869, 225.405 301.231 Q 227.182 298.594, 230.819 298.594 Q 234.455 298.594, 236.232 301.231 Q 238.009 303.869, 238.009 308.616 Q 238.009 313.363, 236.204 316.028 Q 234.427 318.693, 230.819 318.693 M 230.819 316.472 Q 232.956 316.472, 234.094 314.501 Q 235.233 312.502, 235.233 308.616 Q 235.233 304.757, 234.094 302.786 Q 232.956 300.815, 230.819 300.815 Q 228.709 300.815, 227.543 302.786 Q 226.404 304.757, 226.404 308.616 Q 226.404 312.502, 227.543 314.501 Q 228.709 316.472, 230.819 316.472 " fill="#000000"/>
<path class="atom-10" d="M 322.528 158.42 Q 322.528 153.534, 324.805 150.98 Q 327.109 148.398, 331.467 148.398 Q 335.52 148.398, 337.686 151.258 L 335.854 152.757 Q 334.271 150.675, 331.467 150.675 Q 328.497 150.675, 326.914 152.673 Q 325.36 154.645, 325.36 158.42 Q 325.36 162.307, 326.97 164.305 Q 328.608 166.304, 331.773 166.304 Q 333.938 166.304, 336.464 164.999 L 337.242 167.082 Q 336.214 167.748, 334.66 168.136 Q 333.105 168.525, 331.384 168.525 Q 327.109 168.525, 324.805 165.916 Q 322.528 163.306, 322.528 158.42 " fill="#000000"/>
<path class="atom-10" d="M 339.768 165.027 L 342.544 165.027 L 342.544 167.803 L 339.768 167.803 L 339.768 165.027 M 339.768 155.477 L 342.544 155.477 L 342.544 158.253 L 339.768 158.253 L 339.768 155.477 " fill="#000000"/>
<path class="atom-10" d="M 345.126 166.054 L 349.429 166.054 L 349.429 151.369 L 344.682 152.84 L 344.043 151.202 L 350.067 148.509 L 352.038 148.842 L 352.038 166.054 L 355.897 166.054 L 355.897 168.275 L 345.126 168.275 L 345.126 166.054 " fill="#000000"/>
<path class="atom-10" d="M 358.479 166.054 L 362.782 166.054 L 362.782 151.369 L 358.035 152.84 L 357.396 151.202 L 363.421 148.509 L 365.392 148.842 L 365.392 166.054 L 369.25 166.054 L 369.25 168.275 L 358.479 168.275 L 358.479 166.054 " fill="#000000"/>
<path class="atom-11" d="M 412.877 312.677 L 415.542 312.677 L 415.542 321.033 L 425.592 321.033 L 425.592 312.677 L 428.257 312.677 L 428.257 332.332 L 425.592 332.332 L 425.592 323.254 L 415.542 323.254 L 415.542 332.332 L 412.877 332.332 L 412.877 312.677 " fill="#000000"/>
<path class="atom-11" d="M 430.339 329.084 L 433.115 329.084 L 433.115 331.86 L 430.339 331.86 L 430.339 329.084 M 430.339 319.534 L 433.115 319.534 L 433.115 322.31 L 430.339 322.31 L 430.339 319.534 " fill="#000000"/>
<path class="atom-11" d="M 435.697 330.111 L 440 330.111 L 440 315.426 L 435.252 316.897 L 434.614 315.259 L 440.638 312.566 L 442.609 312.899 L 442.609 330.111 L 446.468 330.111 L 446.468 332.332 L 435.697 332.332 L 435.697 330.111 " fill="#000000"/>
<path class="atom-11" d="M 447.912 316.397 Q 448.633 314.537, 450.355 313.51 Q 452.076 312.455, 454.463 312.455 Q 457.434 312.455, 459.099 314.065 Q 460.765 315.675, 460.765 318.535 Q 460.765 321.45, 458.6 324.17 Q 456.462 326.891, 452.02 330.111 L 461.098 330.111 L 461.098 332.332 L 447.856 332.332 L 447.856 330.472 Q 451.521 327.863, 453.686 325.919 Q 455.879 323.976, 456.934 322.227 Q 457.989 320.478, 457.989 318.674 Q 457.989 316.786, 457.045 315.731 Q 456.101 314.676, 454.463 314.676 Q 452.881 314.676, 451.826 315.314 Q 450.771 315.953, 450.021 317.369 L 447.912 316.397 " fill="#000000"/>
<path class="atom-12" d="M 245.886 351.327 L 248.551 351.327 L 248.551 359.684 L 258.6 359.684 L 258.6 351.327 L 261.265 351.327 L 261.265 370.982 L 258.6 370.982 L 258.6 361.905 L 248.551 361.905 L 248.551 370.982 L 245.886 370.982 L 245.886 351.327 " fill="#000000"/>
<path class="atom-12" d="M 263.348 367.734 L 266.124 367.734 L 266.124 370.511 L 263.348 370.511 L 263.348 367.734 M 263.348 358.184 L 266.124 358.184 L 266.124 360.961 L 263.348 360.961 L 263.348 358.184 " fill="#000000"/>
<path class="atom-12" d="M 268.705 368.762 L 273.008 368.762 L 273.008 354.076 L 268.261 355.547 L 267.623 353.909 L 273.647 351.216 L 275.618 351.55 L 275.618 368.762 L 279.477 368.762 L 279.477 370.982 L 268.705 370.982 L 268.705 368.762 " fill="#000000"/>
<path class="atom-12" d="M 290.082 360.627 Q 291.997 361.183, 292.913 362.432 Q 293.857 363.653, 293.857 365.597 Q 293.857 367.262, 293.024 368.567 Q 292.192 369.844, 290.665 370.566 Q 289.138 371.26, 287.139 371.26 Q 285.029 371.26, 283.447 370.538 Q 281.892 369.789, 280.643 368.29 L 282.225 366.679 Q 283.447 368.012, 284.474 368.539 Q 285.501 369.039, 287.139 369.039 Q 288.916 369.039, 289.998 368.095 Q 291.081 367.124, 291.081 365.569 Q 291.081 363.57, 289.943 362.682 Q 288.832 361.766, 286.417 361.766 L 285.001 361.766 L 285.001 359.767 L 286.251 359.767 Q 288.388 359.739, 289.526 358.823 Q 290.665 357.879, 290.665 356.13 Q 290.665 354.853, 289.721 354.104 Q 288.777 353.326, 287.167 353.326 Q 285.529 353.326, 284.502 353.909 Q 283.502 354.492, 282.725 355.964 L 280.809 354.936 Q 281.503 353.299, 283.169 352.216 Q 284.835 351.105, 287.167 351.105 Q 290.054 351.105, 291.747 352.466 Q 293.441 353.826, 293.441 356.13 Q 293.441 357.713, 292.58 358.851 Q 291.72 359.989, 290.082 360.627 " fill="#000000"/>
<path class="atom-13" d="M 365.544 398.605 L 368.209 398.605 L 368.209 406.961 L 378.258 406.961 L 378.258 398.605 L 380.923 398.605 L 380.923 418.26 L 378.258 418.26 L 378.258 409.182 L 368.209 409.182 L 368.209 418.26 L 365.544 418.26 L 365.544 398.605 " fill="#000000"/>
<path class="atom-13" d="M 383.005 415.012 L 385.782 415.012 L 385.782 417.788 L 383.005 417.788 L 383.005 415.012 M 383.005 405.462 L 385.782 405.462 L 385.782 408.238 L 383.005 408.238 L 383.005 405.462 " fill="#000000"/>
<path class="atom-13" d="M 388.363 416.039 L 392.666 416.039 L 392.666 401.354 L 387.919 402.825 L 387.281 401.187 L 393.305 398.494 L 395.276 398.827 L 395.276 416.039 L 399.135 416.039 L 399.135 418.26 L 388.363 418.26 L 388.363 416.039 " fill="#000000"/>
<path class="atom-13" d="M 412.738 411.514 L 415.098 411.514 L 415.098 413.735 L 412.738 413.735 L 412.738 418.26 L 410.128 418.26 L 410.128 413.735 L 399.968 413.735 L 399.968 411.986 L 408.574 398.605 L 412.738 398.605 L 412.738 411.514 M 403.188 411.514 L 410.128 411.514 L 410.128 400.382 L 403.188 411.514 " fill="#000000"/>
<path class="atom-14" d="M 153.462 98.7854 L 156.127 98.7854 L 156.127 107.142 L 166.177 107.142 L 166.177 98.7854 L 168.842 98.7854 L 168.842 118.44 L 166.177 118.44 L 166.177 109.362 L 156.127 109.362 L 156.127 118.44 L 153.462 118.44 L 153.462 98.7854 " fill="#000000"/>
<path class="atom-14" d="M 170.924 115.192 L 173.7 115.192 L 173.7 117.968 L 170.924 117.968 L 170.924 115.192 M 170.924 105.642 L 173.7 105.642 L 173.7 108.419 L 170.924 108.419 L 170.924 105.642 " fill="#000000"/>
<path class="atom-14" d="M 176.282 116.22 L 180.585 116.22 L 180.585 101.534 L 175.838 103.005 L 175.199 101.367 L 181.224 98.6744 L 183.195 99.0075 L 183.195 116.22 L 187.053 116.22 L 187.053 118.44 L 176.282 118.44 L 176.282 116.22 " fill="#000000"/>
<path class="atom-14" d="M 195.465 106.142 Q 197.186 106.142, 198.602 106.892 Q 200.018 107.614, 200.823 109.002 Q 201.628 110.362, 201.628 112.222 Q 201.628 114.248, 200.629 115.72 Q 199.657 117.163, 198.047 117.913 Q 196.437 118.663, 194.604 118.663 Q 192.8 118.663, 191.134 117.996 Q 189.469 117.33, 188.33 116.053 L 189.996 114.332 Q 190.912 115.331, 192.161 115.886 Q 193.411 116.414, 194.688 116.414 Q 196.437 116.414, 197.63 115.331 Q 198.852 114.248, 198.852 112.277 Q 198.852 110.195, 197.63 109.224 Q 196.437 108.224, 194.521 108.224 Q 192.8 108.224, 190.884 108.974 L 189.358 108.252 L 190.301 98.7854 L 200.407 98.7854 L 200.129 101.006 L 192.578 101.006 L 191.995 106.836 Q 193.744 106.142, 195.465 106.142 " fill="#000000"/>
<path class="atom-15" d="M 61.3776 332.288 L 64.0426 332.288 L 64.0426 340.644 L 74.0922 340.644 L 74.0922 332.288 L 76.7573 332.288 L 76.7573 351.943 L 74.0922 351.943 L 74.0922 342.865 L 64.0426 342.865 L 64.0426 351.943 L 61.3776 351.943 L 61.3776 332.288 " fill="#000000"/>
<path class="atom-15" d="M 78.8394 348.695 L 81.6155 348.695 L 81.6155 351.471 L 78.8394 351.471 L 78.8394 348.695 M 78.8394 339.145 L 81.6155 339.145 L 81.6155 341.921 L 78.8394 341.921 L 78.8394 339.145 " fill="#000000"/>
<path class="atom-15" d="M 84.1973 349.722 L 88.5003 349.722 L 88.5003 335.037 L 83.7531 336.508 L 83.1146 334.87 L 89.1388 332.177 L 91.1099 332.51 L 91.1099 349.722 L 94.9687 349.722 L 94.9687 351.943 L 84.1973 351.943 L 84.1973 349.722 " fill="#000000"/>
<path class="atom-15" d="M 104.546 339.673 Q 106.268 339.673, 107.628 340.422 Q 108.988 341.172, 109.738 342.532 Q 110.487 343.892, 110.487 345.614 Q 110.487 347.529, 109.627 349.028 Q 108.794 350.5, 107.295 351.332 Q 105.796 352.165, 103.88 352.165 Q 100.382 352.165, 98.6054 349.806 Q 96.8565 347.418, 96.8565 342.699 Q 96.8565 337.48, 99.0218 334.787 Q 101.215 332.066, 105.407 332.066 Q 106.628 332.066, 107.656 332.344 Q 108.711 332.621, 109.71 333.204 L 108.627 335.064 Q 107.184 334.287, 105.435 334.287 Q 102.659 334.287, 101.243 336.092 Q 99.8269 337.868, 99.6604 341.56 Q 100.66 340.644, 101.909 340.172 Q 103.186 339.673, 104.546 339.673 M 103.908 349.889 Q 104.963 349.889, 105.823 349.334 Q 106.712 348.778, 107.211 347.807 Q 107.711 346.835, 107.711 345.641 Q 107.711 343.892, 106.739 342.893 Q 105.768 341.894, 104.047 341.894 Q 102.853 341.894, 101.659 342.393 Q 100.493 342.865, 99.6604 343.698 Q 99.7714 346.946, 100.799 348.418 Q 101.826 349.889, 103.908 349.889 " fill="#000000"/>
<path class="atom-16" d="M 271.952 156.154 L 274.617 156.154 L 274.617 164.51 L 284.666 164.51 L 284.666 156.154 L 287.332 156.154 L 287.332 175.809 L 284.666 175.809 L 284.666 166.731 L 274.617 166.731 L 274.617 175.809 L 271.952 175.809 L 271.952 156.154 " fill="#000000"/>
<path class="atom-16" d="M 289.414 172.561 L 292.19 172.561 L 292.19 175.337 L 289.414 175.337 L 289.414 172.561 M 289.414 163.011 L 292.19 163.011 L 292.19 165.787 L 289.414 165.787 L 289.414 163.011 " fill="#000000"/>
<path class="atom-16" d="M 294.772 173.588 L 299.075 173.588 L 299.075 158.902 L 294.327 160.374 L 293.689 158.736 L 299.713 156.043 L 301.684 156.376 L 301.684 173.588 L 305.543 173.588 L 305.543 175.809 L 294.772 175.809 L 294.772 173.588 " fill="#000000"/>
<path class="atom-16" d="M 316.342 158.375 L 306.043 158.375 L 306.043 156.154 L 319.09 156.154 L 319.09 158.125 L 311.151 175.809 L 308.486 175.809 L 316.342 158.375 " fill="#000000"/>
<path class="atom-17" d="M 230.763 365.474 L 233.428 365.474 L 233.428 373.831 L 243.477 373.831 L 243.477 365.474 L 246.143 365.474 L 246.143 385.129 L 243.477 385.129 L 243.477 376.051 L 233.428 376.051 L 233.428 385.129 L 230.763 385.129 L 230.763 365.474 " fill="#000000"/>
<path class="atom-17" d="M 248.225 381.881 L 251.001 381.881 L 251.001 384.657 L 248.225 384.657 L 248.225 381.881 M 248.225 372.331 L 251.001 372.331 L 251.001 375.108 L 248.225 375.108 L 248.225 372.331 " fill="#000000"/>
<path class="atom-17" d="M 253.583 382.909 L 257.886 382.909 L 257.886 368.223 L 253.138 369.694 L 252.5 368.056 L 258.524 365.363 L 260.495 365.697 L 260.495 382.909 L 264.354 382.909 L 264.354 385.129 L 253.583 385.129 L 253.583 382.909 " fill="#000000"/>
<path class="atom-17" d="M 276.097 374.719 Q 277.901 375.496, 278.929 376.662 Q 279.956 377.8, 279.956 379.744 Q 279.956 381.409, 279.095 382.714 Q 278.235 383.991, 276.68 384.713 Q 275.153 385.407, 273.127 385.407 Q 269.851 385.407, 267.963 383.908 Q 266.075 382.381, 266.075 379.744 Q 266.075 378.134, 266.908 376.94 Q 267.741 375.718, 269.462 374.802 Q 268.185 374.08, 267.491 373.026 Q 266.797 371.943, 266.797 370.277 Q 266.797 367.973, 268.463 366.613 Q 270.156 365.252, 273.015 365.252 Q 275.875 365.252, 277.541 366.613 Q 279.234 367.973, 279.234 370.277 Q 279.234 371.721, 278.429 372.803 Q 277.652 373.858, 276.097 374.719 M 273.015 367.334 Q 271.378 367.334, 270.461 368.112 Q 269.573 368.889, 269.573 370.277 Q 269.573 371.304, 270.184 371.998 Q 270.795 372.665, 271.655 373.053 Q 272.544 373.442, 274.237 374.025 Q 275.431 373.192, 275.93 372.304 Q 276.458 371.415, 276.458 370.277 Q 276.458 368.889, 275.542 368.112 Q 274.653 367.334, 273.015 367.334 M 273.127 383.325 Q 274.959 383.325, 276.069 382.353 Q 277.18 381.354, 277.18 379.716 Q 277.18 378.661, 276.597 377.995 Q 276.014 377.329, 275.125 376.94 Q 274.265 376.551, 272.71 376.051 L 271.461 375.635 Q 270.073 376.468, 269.462 377.467 Q 268.851 378.439, 268.851 379.716 Q 268.851 381.354, 270.017 382.353 Q 271.183 383.325, 273.127 383.325 " fill="#000000"/>
<path class="atom-18" d="M 283.713 164.744 L 286.378 164.744 L 286.378 173.101 L 296.428 173.101 L 296.428 164.744 L 299.093 164.744 L 299.093 184.399 L 296.428 184.399 L 296.428 175.322 L 286.378 175.322 L 286.378 184.399 L 283.713 184.399 L 283.713 164.744 " fill="#000000"/>
<path class="atom-18" d="M 301.175 181.151 L 303.951 181.151 L 303.951 183.928 L 301.175 183.928 L 301.175 181.151 M 301.175 171.602 L 303.951 171.602 L 303.951 174.378 L 301.175 174.378 L 301.175 171.602 " fill="#000000"/>
<path class="atom-18" d="M 306.533 182.179 L 310.836 182.179 L 310.836 167.493 L 306.089 168.964 L 305.45 167.326 L 311.475 164.633 L 313.446 164.967 L 313.446 182.179 L 317.305 182.179 L 317.305 184.399 L 306.533 184.399 L 306.533 182.179 " fill="#000000"/>
<path class="atom-18" d="M 325.439 164.522 Q 328.936 164.522, 330.685 166.91 Q 332.462 169.27, 332.462 173.989 Q 332.462 179.208, 330.269 181.929 Q 328.104 184.622, 323.912 184.622 Q 322.69 184.622, 321.635 184.344 Q 320.608 184.066, 319.609 183.483 L 320.691 181.623 Q 322.135 182.401, 323.884 182.401 Q 326.66 182.401, 328.076 180.624 Q 329.492 178.819, 329.658 175.127 Q 328.659 176.043, 327.382 176.543 Q 326.133 177.015, 324.772 177.015 Q 323.051 177.015, 321.691 176.265 Q 320.33 175.516, 319.581 174.156 Q 318.831 172.795, 318.831 171.074 Q 318.831 169.159, 319.664 167.687 Q 320.525 166.188, 322.024 165.355 Q 323.523 164.522, 325.439 164.522 M 321.608 171.046 Q 321.608 172.795, 322.579 173.795 Q 323.551 174.794, 325.272 174.794 Q 326.466 174.794, 327.632 174.322 Q 328.825 173.822, 329.658 172.99 Q 329.547 169.742, 328.52 168.27 Q 327.493 166.799, 325.411 166.799 Q 324.356 166.799, 323.468 167.354 Q 322.607 167.909, 322.107 168.881 Q 321.608 169.853, 321.608 171.046 " fill="#000000"/>
<path class="atom-19" d="M 422.292 129.295 L 424.957 129.295 L 424.957 137.651 L 435.007 137.651 L 435.007 129.295 L 437.672 129.295 L 437.672 148.95 L 435.007 148.95 L 435.007 139.872 L 424.957 139.872 L 424.957 148.95 L 422.292 148.95 L 422.292 129.295 " fill="#000000"/>
<path class="atom-19" d="M 439.754 145.702 L 442.53 145.702 L 442.53 148.478 L 439.754 148.478 L 439.754 145.702 M 439.754 136.152 L 442.53 136.152 L 442.53 138.928 L 439.754 138.928 L 439.754 136.152 " fill="#000000"/>
<path class="atom-19" d="M 443.973 133.015 Q 444.695 131.155, 446.416 130.128 Q 448.138 129.073, 450.525 129.073 Q 453.496 129.073, 455.161 130.683 Q 456.827 132.293, 456.827 135.153 Q 456.827 138.068, 454.661 140.788 Q 452.524 143.509, 448.082 146.729 L 457.16 146.729 L 457.16 148.95 L 443.918 148.95 L 443.918 147.09 Q 447.582 144.481, 449.748 142.537 Q 451.941 140.594, 452.996 138.845 Q 454.051 137.096, 454.051 135.292 Q 454.051 133.404, 453.107 132.349 Q 452.163 131.294, 450.525 131.294 Q 448.943 131.294, 447.888 131.932 Q 446.833 132.571, 446.083 133.987 L 443.973 133.015 " fill="#000000"/>
<path class="atom-19" d="M 466.044 149.172 Q 462.435 149.172, 460.63 146.507 Q 458.853 143.842, 458.853 139.095 Q 458.853 134.348, 460.63 131.71 Q 462.407 129.073, 466.044 129.073 Q 469.68 129.073, 471.457 131.71 Q 473.234 134.348, 473.234 139.095 Q 473.234 143.842, 471.429 146.507 Q 469.653 149.172, 466.044 149.172 M 466.044 146.951 Q 468.181 146.951, 469.319 144.98 Q 470.458 142.981, 470.458 139.095 Q 470.458 135.236, 469.319 133.265 Q 468.181 131.294, 466.044 131.294 Q 463.934 131.294, 462.768 133.265 Q 461.63 135.236, 461.63 139.095 Q 461.63 142.981, 462.768 144.98 Q 463.934 146.951, 466.044 146.951 " fill="#000000"/>
<path class="atom-20" d="M 22.7273 198.971 L 25.3924 198.971 L 25.3924 207.328 L 35.4419 207.328 L 35.4419 198.971 L 38.107 198.971 L 38.107 218.626 L 35.4419 218.626 L 35.4419 209.549 L 25.3924 209.549 L 25.3924 218.626 L 22.7273 218.626 L 22.7273 198.971 " fill="#000000"/>
<path class="atom-20" d="M 40.1891 215.378 L 42.9652 215.378 L 42.9652 218.155 L 40.1891 218.155 L 40.1891 215.378 M 40.1891 205.829 L 42.9652 205.829 L 42.9652 208.605 L 40.1891 208.605 L 40.1891 205.829 " fill="#000000"/>
<path class="atom-20" d="M 44.4088 202.691 Q 45.1306 200.831, 46.8518 199.804 Q 48.573 198.749, 50.9605 198.749 Q 53.9309 198.749, 55.5966 200.36 Q 57.2623 201.97, 57.2623 204.829 Q 57.2623 207.744, 55.0969 210.465 Q 52.9593 213.185, 48.5175 216.406 L 57.5954 216.406 L 57.5954 218.626 L 44.3533 218.626 L 44.3533 216.766 Q 48.0178 214.157, 50.1832 212.214 Q 52.3763 210.27, 53.4312 208.521 Q 54.4862 206.772, 54.4862 204.968 Q 54.4862 203.08, 53.5423 202.025 Q 52.5984 200.97, 50.9605 200.97 Q 49.3781 200.97, 48.3232 201.609 Q 47.2682 202.247, 46.5187 203.663 L 44.4088 202.691 " fill="#000000"/>
<path class="atom-20" d="M 60.1772 216.406 L 64.4802 216.406 L 64.4802 201.72 L 59.733 203.191 L 59.0945 201.553 L 65.1187 198.86 L 67.0898 199.194 L 67.0898 216.406 L 70.9486 216.406 L 70.9486 218.626 L 60.1772 218.626 L 60.1772 216.406 " fill="#000000"/>
<path class="atom-21" d="M 336.308 81.9619 L 338.973 81.9619 L 338.973 90.3181 L 349.023 90.3181 L 349.023 81.9619 L 351.688 81.9619 L 351.688 101.617 L 349.023 101.617 L 349.023 92.539 L 338.973 92.539 L 338.973 101.617 L 336.308 101.617 L 336.308 81.9619 " fill="#000000"/>
<path class="atom-21" d="M 353.77 98.3689 L 356.546 98.3689 L 356.546 101.145 L 353.77 101.145 L 353.77 98.3689 M 353.77 88.819 L 356.546 88.819 L 356.546 91.5951 L 353.77 91.5951 L 353.77 88.819 " fill="#000000"/>
<path class="atom-21" d="M 357.99 85.682 Q 358.712 83.8219, 360.433 82.7948 Q 362.154 81.7399, 364.542 81.7399 Q 367.512 81.7399, 369.178 83.35 Q 370.843 84.9602, 370.843 87.8196 Q 370.843 90.7345, 368.678 93.4551 Q 366.54 96.1757, 362.099 99.396 L 371.176 99.396 L 371.176 101.617 L 357.934 101.617 L 357.934 99.7569 Q 361.599 97.1474, 363.764 95.2041 Q 365.957 93.2608, 367.012 91.5118 Q 368.067 89.7629, 368.067 87.9584 Q 368.067 86.0706, 367.123 85.0157 Q 366.179 83.9608, 364.542 83.9608 Q 362.959 83.9608, 361.904 84.5993 Q 360.849 85.2378, 360.1 86.6536 L 357.99 85.682 " fill="#000000"/>
<path class="atom-21" d="M 372.62 85.682 Q 373.342 83.8219, 375.063 82.7948 Q 376.784 81.7399, 379.172 81.7399 Q 382.142 81.7399, 383.808 83.35 Q 385.474 84.9602, 385.474 87.8196 Q 385.474 90.7345, 383.308 93.4551 Q 381.171 96.1757, 376.729 99.396 L 385.807 99.396 L 385.807 101.617 L 372.565 101.617 L 372.565 99.7569 Q 376.229 97.1474, 378.394 95.2041 Q 380.588 93.2608, 381.642 91.5118 Q 382.697 89.7629, 382.697 87.9584 Q 382.697 86.0706, 381.754 85.0157 Q 380.81 83.9608, 379.172 83.9608 Q 377.589 83.9608, 376.534 84.5993 Q 375.479 85.2378, 374.73 86.6536 L 372.62 85.682 " fill="#000000"/>
<text x="358.6158703869033" y="250.0277612678917" font-size="12" font-family="Verdana" font-weight="bold" letter-spacing="0" text-anchor="start" fill="black" transform=" rotate(43.832425 358.615870 250.027761)">1.1131</text><text x="25" y="490" font-size="12" font-family="Verdana" font-weight="bold" letter-spacing="0" text-anchor="start" fill="black">[#8:1]=[#6:2](-[#7:3](-[#6:4](-[H:12])(-[H:13])-[H:14])-[#6:5]1:[#6:9](:[#6:7](:[#6:6](:[#6:8](:[#6:10]:1-[H:18])-[H:16])-[H:21])-[H:15])-[H:17])-[#6:11](-[H:19])(-[H:20])-[H:22]</text></svg>
