<?xml version='1.0' encoding='ASCII' standalone='yes'?>
<svg xmlns="http://www.w3.org/2000/svg" xmlns:rdkit="http://www.rdkit.org/xml" xmlns:xlink="http://www.w3.org/1999/xlink" version="1.1" baseProfile="full" xml:space="preserve" width="500px" height="500px" viewBox="0 0 500 500">
<!-- END OF HEADER -->
<rect style="opacity:1.0;fill:#FFFFFF;stroke:none" width="500.0" height="500.0" x="0.0" y="0.0"> </rect>
<path class="bond-3 atom-1 atom-2" d="M 231.2,273.6 L 179.5,267.3" style="fill:none;fill-rule:evenodd;stroke:#FF7F7F;stroke-width:11.1px;stroke-linecap:butt;stroke-linejoin:miter;stroke-opacity:1"/>
<path class="bond-0 atom-0 atom-1" d="M 255.4,241.3 L 238.0,264.4" style="fill:none;fill-rule:evenodd;stroke:#000000;stroke-width:2.0px;stroke-linecap:butt;stroke-linejoin:miter;stroke-opacity:1"/>
<path class="bond-0 atom-0 atom-1" d="M 261.1,251.0 L 249.0,267.2" style="fill:none;fill-rule:evenodd;stroke:#000000;stroke-width:2.0px;stroke-linecap:butt;stroke-linejoin:miter;stroke-opacity:1"/>
<path class="bond-1 atom-0 atom-11" d="M 258.5,222.8 L 245.8,193.3" style="fill:none;fill-rule:evenodd;stroke:#000000;stroke-width:2.0px;stroke-linecap:butt;stroke-linejoin:miter;stroke-opacity:1"/>
<path class="bond-2 atom-1 atom-4" d="M 235.1,282.7 L 247.7,312.2" style="fill:none;fill-rule:evenodd;stroke:#000000;stroke-width:2.0px;stroke-linecap:butt;stroke-linejoin:miter;stroke-opacity:1"/>
<path class="bond-3 atom-1 atom-2" d="M 216.6,271.8 L 194.1,269.1" style="fill:none;fill-rule:evenodd;stroke:#000000;stroke-width:2.0px;stroke-linecap:butt;stroke-linejoin:miter;stroke-opacity:1"/>
<path class="bond-4 atom-2 atom-3" d="M 175.6,258.2 L 169.4,243.5" style="fill:none;fill-rule:evenodd;stroke:#000000;stroke-width:2.0px;stroke-linecap:butt;stroke-linejoin:miter;stroke-opacity:1"/>
<path class="bond-4 atom-2 atom-3" d="M 169.4,243.5 L 163.1,228.9" style="fill:none;fill-rule:evenodd;stroke:#FF0000;stroke-width:2.0px;stroke-linecap:butt;stroke-linejoin:miter;stroke-opacity:1"/>
<path class="bond-5 atom-2 atom-5" d="M 176.7,279.8 L 168.0,291.4" style="fill:none;fill-rule:evenodd;stroke:#000000;stroke-width:2.0px;stroke-linecap:butt;stroke-linejoin:miter;stroke-opacity:1"/>
<path class="bond-5 atom-2 atom-5" d="M 168.0,291.4 L 159.3,303.0" style="fill:none;fill-rule:evenodd;stroke:#FF0000;stroke-width:2.0px;stroke-linecap:butt;stroke-linejoin:miter;stroke-opacity:1"/>
<path class="bond-5 atom-2 atom-5" d="M 168.4,273.6 L 159.7,285.2" style="fill:none;fill-rule:evenodd;stroke:#000000;stroke-width:2.0px;stroke-linecap:butt;stroke-linejoin:miter;stroke-opacity:1"/>
<path class="bond-5 atom-2 atom-5" d="M 159.7,285.2 L 151.0,296.7" style="fill:none;fill-rule:evenodd;stroke:#FF0000;stroke-width:2.0px;stroke-linecap:butt;stroke-linejoin:miter;stroke-opacity:1"/>
<path class="bond-6 atom-3 atom-14" d="M 150.6,218.5 L 138.8,217.1" style="fill:none;fill-rule:evenodd;stroke:#FF0000;stroke-width:2.0px;stroke-linecap:butt;stroke-linejoin:miter;stroke-opacity:1"/>
<path class="bond-6 atom-3 atom-14" d="M 138.8,217.1 L 126.9,215.6" style="fill:none;fill-rule:evenodd;stroke:#000000;stroke-width:2.0px;stroke-linecap:butt;stroke-linejoin:miter;stroke-opacity:1"/>
<path class="bond-7 atom-4 atom-13" d="M 244.6,330.7 L 227.2,354.0" style="fill:none;fill-rule:evenodd;stroke:#000000;stroke-width:2.0px;stroke-linecap:butt;stroke-linejoin:miter;stroke-opacity:1"/>
<path class="bond-8 atom-6 atom-10" d="M 317.9,247.3 L 331.3,278.7" style="fill:none;fill-rule:evenodd;stroke:#000000;stroke-width:2.0px;stroke-linecap:butt;stroke-linejoin:miter;stroke-opacity:1"/>
<path class="bond-8 atom-6 atom-10" d="M 310.4,256.1 L 319.8,278.1" style="fill:none;fill-rule:evenodd;stroke:#000000;stroke-width:2.0px;stroke-linecap:butt;stroke-linejoin:miter;stroke-opacity:1"/>
<path class="bond-9 atom-6 atom-0" d="M 291.6,235.4 L 276.4,233.6" style="fill:none;fill-rule:evenodd;stroke:#000000;stroke-width:2.0px;stroke-linecap:butt;stroke-linejoin:miter;stroke-opacity:1"/>
<path class="bond-10 atom-7 atom-9" d="M 388.3,272.3 L 392.0,256.1" style="fill:none;fill-rule:evenodd;stroke:#0000FF;stroke-width:2.0px;stroke-linecap:butt;stroke-linejoin:miter;stroke-opacity:1"/>
<path class="bond-10 atom-7 atom-9" d="M 392.0,256.1 L 395.7,240.0" style="fill:none;fill-rule:evenodd;stroke:#000000;stroke-width:2.0px;stroke-linecap:butt;stroke-linejoin:miter;stroke-opacity:1"/>
<path class="bond-11 atom-7 atom-10" d="M 379.0,282.0 L 366.2,283.1" style="fill:none;fill-rule:evenodd;stroke:#0000FF;stroke-width:2.0px;stroke-linecap:butt;stroke-linejoin:miter;stroke-opacity:1"/>
<path class="bond-11 atom-7 atom-10" d="M 366.2,283.1 L 353.4,284.3" style="fill:none;fill-rule:evenodd;stroke:#000000;stroke-width:2.0px;stroke-linecap:butt;stroke-linejoin:miter;stroke-opacity:1"/>
<path class="bond-12 atom-7 atom-15" d="M 396.4,292.9 L 404.7,302.4" style="fill:none;fill-rule:evenodd;stroke:#0000FF;stroke-width:2.0px;stroke-linecap:butt;stroke-linejoin:miter;stroke-opacity:1"/>
<path class="bond-12 atom-7 atom-15" d="M 404.7,302.4 L 413.0,311.9" style="fill:none;fill-rule:evenodd;stroke:#000000;stroke-width:2.0px;stroke-linecap:butt;stroke-linejoin:miter;stroke-opacity:1"/>
<path class="bond-13 atom-8 atom-6" d="M 342.5,213.3 L 320.6,232.4" style="fill:none;fill-rule:evenodd;stroke:#000000;stroke-width:2.0px;stroke-linecap:butt;stroke-linejoin:miter;stroke-opacity:1"/>
<path class="bond-14 atom-8 atom-16" d="M 352.4,194.8 L 349.4,161.3" style="fill:none;fill-rule:evenodd;stroke:#000000;stroke-width:2.0px;stroke-linecap:butt;stroke-linejoin:miter;stroke-opacity:1"/>
<path class="bond-14 atom-8 atom-16" d="M 341.5,190.7 L 339.4,167.2" style="fill:none;fill-rule:evenodd;stroke:#000000;stroke-width:2.0px;stroke-linecap:butt;stroke-linejoin:miter;stroke-opacity:1"/>
<path class="bond-15 atom-8 atom-9" d="M 367.9,212.7 L 390.4,226.2" style="fill:none;fill-rule:evenodd;stroke:#000000;stroke-width:2.0px;stroke-linecap:butt;stroke-linejoin:miter;stroke-opacity:1"/>
<path class="bond-16 atom-9 atom-17" d="M 417.2,216.7 L 426.2,212.8" style="fill:none;fill-rule:evenodd;stroke:#000000;stroke-width:2.0px;stroke-linecap:butt;stroke-linejoin:miter;stroke-opacity:1"/>
<path class="bond-16 atom-9 atom-17" d="M 426.2,212.8 L 435.1,209.0" style="fill:none;fill-rule:evenodd;stroke:#FF0000;stroke-width:2.0px;stroke-linecap:butt;stroke-linejoin:miter;stroke-opacity:1"/>
<path class="bond-16 atom-9 atom-17" d="M 421.3,226.2 L 430.3,222.4" style="fill:none;fill-rule:evenodd;stroke:#000000;stroke-width:2.0px;stroke-linecap:butt;stroke-linejoin:miter;stroke-opacity:1"/>
<path class="bond-16 atom-9 atom-17" d="M 430.3,222.4 L 439.2,218.6" style="fill:none;fill-rule:evenodd;stroke:#FF0000;stroke-width:2.0px;stroke-linecap:butt;stroke-linejoin:miter;stroke-opacity:1"/>
<path class="bond-17 atom-10 atom-12" d="M 327.4,295.3 L 310.1,318.4" style="fill:none;fill-rule:evenodd;stroke:#000000;stroke-width:2.0px;stroke-linecap:butt;stroke-linejoin:miter;stroke-opacity:1"/>
<path class="bond-18 atom-12 atom-4" d="M 283.8,325.3 L 266.2,323.1" style="fill:none;fill-rule:evenodd;stroke:#000000;stroke-width:2.0px;stroke-linecap:butt;stroke-linejoin:miter;stroke-opacity:1"/>
<path class="bond-18 atom-12 atom-4" d="M 282.4,314.6 L 270.1,313.1" style="fill:none;fill-rule:evenodd;stroke:#000000;stroke-width:2.0px;stroke-linecap:butt;stroke-linejoin:miter;stroke-opacity:1"/>
<path class="bond-19 atom-12 atom-18" d="M 307.2,336.8 L 319.8,366.4" style="fill:none;fill-rule:evenodd;stroke:#000000;stroke-width:2.0px;stroke-linecap:butt;stroke-linejoin:miter;stroke-opacity:1"/>
<path class="bond-20 atom-14 atom-19" d="M 108.5,204.2 L 112.6,170.8" style="fill:none;fill-rule:evenodd;stroke:#000000;stroke-width:2.0px;stroke-linecap:butt;stroke-linejoin:miter;stroke-opacity:1"/>
<path class="bond-21 atom-14 atom-20" d="M 106.3,222.5 L 102.3,255.9" style="fill:none;fill-rule:evenodd;stroke:#000000;stroke-width:2.0px;stroke-linecap:butt;stroke-linejoin:miter;stroke-opacity:1"/>
<path class="bond-22 atom-14 atom-21" d="M 87.9,211.0 L 62.5,207.9" style="fill:none;fill-rule:evenodd;stroke:#000000;stroke-width:2.0px;stroke-linecap:butt;stroke-linejoin:miter;stroke-opacity:1"/>
<path class="bond-23 atom-16 atom-22" d="M 361.3,143.1 L 383.6,127.4" style="fill:none;fill-rule:evenodd;stroke:#000000;stroke-width:2.0px;stroke-linecap:butt;stroke-linejoin:miter;stroke-opacity:1"/>
<path class="bond-24 atom-16 atom-23" d="M 329.1,143.1 L 308.7,133.7" style="fill:none;fill-rule:evenodd;stroke:#000000;stroke-width:2.0px;stroke-linecap:butt;stroke-linejoin:miter;stroke-opacity:1"/>
<path class="atom-0" d="M 250.0 232.0 Q 250.0 228.3, 251.7 226.4 Q 253.4 224.5, 256.7 224.5 Q 259.7 224.5, 261.4 226.6 L 260.0 227.8 Q 258.8 226.2, 256.7 226.2 Q 254.5 226.2, 253.3 227.7 Q 252.1 229.2, 252.1 232.0 Q 252.1 234.9, 253.3 236.4 Q 254.6 237.9, 256.9 237.9 Q 258.6 237.9, 260.5 236.9 L 261.0 238.5 Q 260.3 239.0, 259.1 239.3 Q 257.9 239.6, 256.6 239.6 Q 253.4 239.6, 251.7 237.6 Q 250.0 235.7, 250.0 232.0 " fill="#000000"/>
<path class="atom-0" d="M 262.2 236.9 L 264.3 236.9 L 264.3 239.0 L 262.2 239.0 L 262.2 236.9 M 262.2 229.8 L 264.3 229.8 L 264.3 231.9 L 262.2 231.9 L 262.2 229.8 " fill="#000000"/>
<path class="atom-0" d="M 266.7 237.7 L 269.9 237.7 L 269.9 226.7 L 266.3 227.8 L 265.8 226.6 L 270.4 224.6 L 271.8 224.8 L 271.8 237.7 L 274.7 237.7 L 274.7 239.4 L 266.7 239.4 L 266.7 237.7 " fill="#000000"/>
<path class="atom-1" d="M 218.3 273.6 Q 218.3 270.0, 220.0 268.0 Q 221.7 266.1, 225.0 266.1 Q 228.0 266.1, 229.7 268.2 L 228.3 269.4 Q 227.1 267.8, 225.0 267.8 Q 222.8 267.8, 221.6 269.3 Q 220.4 270.8, 220.4 273.6 Q 220.4 276.5, 221.6 278.0 Q 222.8 279.5, 225.2 279.5 Q 226.8 279.5, 228.7 278.5 L 229.3 280.1 Q 228.5 280.6, 227.4 280.9 Q 226.2 281.2, 224.9 281.2 Q 221.7 281.2, 220.0 279.2 Q 218.3 277.3, 218.3 273.6 " fill="#000000"/>
<path class="atom-1" d="M 230.5 278.6 L 232.6 278.6 L 232.6 280.6 L 230.5 280.6 L 230.5 278.6 M 230.5 271.4 L 232.6 271.4 L 232.6 273.5 L 230.5 273.5 L 230.5 271.4 " fill="#000000"/>
<path class="atom-1" d="M 234.2 269.1 Q 234.7 267.7, 236.0 266.9 Q 237.3 266.1, 239.1 266.1 Q 241.3 266.1, 242.6 267.3 Q 243.8 268.5, 243.8 270.7 Q 243.8 272.8, 242.2 274.9 Q 240.6 276.9, 237.2 279.3 L 244.0 279.3 L 244.0 281.0 L 234.1 281.0 L 234.1 279.6 Q 236.9 277.7, 238.5 276.2 Q 240.1 274.7, 240.9 273.4 Q 241.7 272.1, 241.7 270.8 Q 241.7 269.4, 241.0 268.6 Q 240.3 267.8, 239.1 267.8 Q 237.9 267.8, 237.1 268.2 Q 236.3 268.7, 235.7 269.8 L 234.2 269.1 " fill="#000000"/>
<path class="atom-2" d="M 166.7 267.4 Q 166.7 263.7, 168.4 261.8 Q 170.1 259.9, 173.4 259.9 Q 176.4 259.9, 178.0 262.0 L 176.6 263.2 Q 175.5 261.6, 173.4 261.6 Q 171.1 261.6, 169.9 263.1 Q 168.8 264.6, 168.8 267.4 Q 168.8 270.3, 170.0 271.8 Q 171.2 273.3, 173.6 273.3 Q 175.2 273.3, 177.1 272.3 L 177.7 273.9 Q 176.9 274.4, 175.8 274.7 Q 174.6 275.0, 173.3 275.0 Q 170.1 275.0, 168.4 273.0 Q 166.7 271.1, 166.7 267.4 " fill="#000000"/>
<path class="atom-2" d="M 178.9 272.4 L 180.9 272.4 L 180.9 274.4 L 178.9 274.4 L 178.9 272.4 M 178.9 265.2 L 180.9 265.2 L 180.9 267.3 L 178.9 267.3 L 178.9 265.2 " fill="#000000"/>
<path class="atom-2" d="M 189.6 267.0 Q 191.0 267.4, 191.7 268.4 Q 192.4 269.3, 192.4 270.8 Q 192.4 272.0, 191.8 273.0 Q 191.1 273.9, 190.0 274.5 Q 188.9 275.0, 187.4 275.0 Q 185.8 275.0, 184.6 274.5 Q 183.4 273.9, 182.5 272.8 L 183.7 271.6 Q 184.6 272.6, 185.4 273.0 Q 186.1 273.3, 187.4 273.3 Q 188.7 273.3, 189.5 272.6 Q 190.3 271.9, 190.3 270.7 Q 190.3 269.2, 189.5 268.6 Q 188.6 267.9, 186.8 267.9 L 185.8 267.9 L 185.8 266.4 L 186.7 266.4 Q 188.3 266.4, 189.1 265.7 Q 190.0 265.0, 190.0 263.7 Q 190.0 262.7, 189.3 262.1 Q 188.6 261.6, 187.4 261.6 Q 186.2 261.6, 185.4 262.0 Q 184.6 262.4, 184.1 263.5 L 182.6 262.8 Q 183.1 261.5, 184.4 260.7 Q 185.6 259.9, 187.4 259.9 Q 189.5 259.9, 190.8 260.9 Q 192.1 261.9, 192.1 263.7 Q 192.1 264.8, 191.4 265.7 Q 190.8 266.6, 189.6 267.0 " fill="#000000"/>
<path class="atom-3" d="M 152.3 219.6 Q 152.3 216.0, 154.1 214.0 Q 155.8 212.1, 159.1 212.1 Q 162.4 212.1, 164.1 214.0 Q 165.8 216.0, 165.8 219.6 Q 165.8 223.1, 164.1 225.2 Q 162.3 227.2, 159.1 227.2 Q 155.8 227.2, 154.1 225.2 Q 152.3 223.2, 152.3 219.6 M 159.1 225.5 Q 161.3 225.5, 162.5 224.0 Q 163.8 222.5, 163.8 219.6 Q 163.8 216.7, 162.5 215.2 Q 161.3 213.7, 159.1 213.7 Q 156.8 213.7, 155.6 215.2 Q 154.4 216.6, 154.4 219.6 Q 154.4 222.5, 155.6 224.0 Q 156.8 225.5, 159.1 225.5 " fill="#FF0000"/>
<path class="atom-3" d="M 166.9 224.5 L 169.0 224.5 L 169.0 226.6 L 166.9 226.6 L 166.9 224.5 M 166.9 217.4 L 169.0 217.4 L 169.0 219.4 L 166.9 219.4 L 166.9 217.4 " fill="#FF0000"/>
<path class="atom-3" d="M 180.1 221.9 L 181.9 221.9 L 181.9 223.6 L 180.1 223.6 L 180.1 227.0 L 178.1 227.0 L 178.1 223.6 L 170.5 223.6 L 170.5 222.3 L 177.0 212.2 L 180.1 212.2 L 180.1 221.9 M 172.9 221.9 L 178.1 221.9 L 178.1 213.6 L 172.9 221.9 " fill="#FF0000"/>
<path class="atom-4" d="M 238.7 321.4 Q 238.7 317.8, 240.4 315.9 Q 242.1 313.9, 245.4 313.9 Q 248.4 313.9, 250.1 316.1 L 248.7 317.2 Q 247.5 315.6, 245.4 315.6 Q 243.2 315.6, 242.0 317.1 Q 240.8 318.6, 240.8 321.4 Q 240.8 324.4, 242.0 325.9 Q 243.3 327.4, 245.6 327.4 Q 247.3 327.4, 249.2 326.4 L 249.7 327.9 Q 249.0 328.4, 247.8 328.7 Q 246.6 329.0, 245.3 329.0 Q 242.1 329.0, 240.4 327.1 Q 238.7 325.1, 238.7 321.4 " fill="#000000"/>
<path class="atom-4" d="M 250.9 326.4 L 253.0 326.4 L 253.0 328.5 L 250.9 328.5 L 250.9 326.4 M 250.9 319.2 L 253.0 319.2 L 253.0 321.3 L 250.9 321.3 L 250.9 319.2 " fill="#000000"/>
<path class="atom-4" d="M 259.9 319.6 Q 261.2 319.6, 262.2 320.2 Q 263.3 320.7, 263.9 321.8 Q 264.5 322.8, 264.5 324.2 Q 264.5 325.7, 263.8 326.8 Q 263.0 327.9, 261.8 328.4 Q 260.6 329.0, 259.2 329.0 Q 257.9 329.0, 256.6 328.5 Q 255.4 328.0, 254.5 327.0 L 255.8 325.8 Q 256.5 326.5, 257.4 326.9 Q 258.4 327.3, 259.3 327.3 Q 260.6 327.3, 261.5 326.5 Q 262.4 325.7, 262.4 324.2 Q 262.4 322.7, 261.5 321.9 Q 260.6 321.2, 259.2 321.2 Q 257.9 321.2, 256.5 321.7 L 255.3 321.2 L 256.0 314.1 L 263.6 314.1 L 263.4 315.8 L 257.7 315.8 L 257.3 320.1 Q 258.6 319.6, 259.9 319.6 " fill="#000000"/>
<path class="atom-5" d="M 125.0 309.0 Q 125.0 305.5, 126.8 303.5 Q 128.5 301.5, 131.8 301.5 Q 135.0 301.5, 136.8 303.5 Q 138.5 305.5, 138.5 309.0 Q 138.5 312.6, 136.8 314.6 Q 135.0 316.6, 131.8 316.6 Q 128.5 316.6, 126.8 314.6 Q 125.0 312.6, 125.0 309.0 M 131.8 315.0 Q 134.0 315.0, 135.2 313.5 Q 136.5 312.0, 136.5 309.0 Q 136.5 306.1, 135.2 304.7 Q 134.0 303.2, 131.8 303.2 Q 129.5 303.2, 128.3 304.6 Q 127.1 306.1, 127.1 309.0 Q 127.1 312.0, 128.3 313.5 Q 129.5 315.0, 131.8 315.0 " fill="#FF0000"/>
<path class="atom-5" d="M 139.6 314.0 L 141.7 314.0 L 141.7 316.1 L 139.6 316.1 L 139.6 314.0 M 139.6 306.8 L 141.7 306.8 L 141.7 308.9 L 139.6 308.9 L 139.6 306.8 " fill="#FF0000"/>
<path class="atom-5" d="M 149.0 307.2 Q 150.3 307.2, 151.3 307.8 Q 152.3 308.3, 152.9 309.4 Q 153.4 310.4, 153.4 311.7 Q 153.4 313.1, 152.8 314.2 Q 152.2 315.3, 151.0 316.0 Q 149.9 316.6, 148.5 316.6 Q 145.9 316.6, 144.5 314.8 Q 143.2 313.0, 143.2 309.5 Q 143.2 305.6, 144.8 303.5 Q 146.5 301.5, 149.6 301.5 Q 150.5 301.5, 151.3 301.7 Q 152.1 301.9, 152.9 302.4 L 152.0 303.8 Q 151.0 303.2, 149.6 303.2 Q 147.6 303.2, 146.5 304.5 Q 145.4 305.9, 145.3 308.6 Q 146.1 307.9, 147.0 307.6 Q 148.0 307.2, 149.0 307.2 M 148.5 314.9 Q 149.3 314.9, 149.9 314.5 Q 150.6 314.0, 151.0 313.3 Q 151.4 312.6, 151.4 311.7 Q 151.4 310.4, 150.6 309.6 Q 149.9 308.9, 148.6 308.9 Q 147.7 308.9, 146.8 309.3 Q 145.9 309.6, 145.3 310.2 Q 145.4 312.7, 146.2 313.8 Q 146.9 314.9, 148.5 314.9 " fill="#FF0000"/>
<path class="atom-6" d="M 293.3 238.2 Q 293.3 234.5, 295.0 232.6 Q 296.7 230.7, 300.0 230.7 Q 303.0 230.7, 304.7 232.8 L 303.3 234.0 Q 302.1 232.4, 300.0 232.4 Q 297.8 232.4, 296.6 233.9 Q 295.4 235.4, 295.4 238.2 Q 295.4 241.1, 296.6 242.6 Q 297.8 244.1, 300.2 244.1 Q 301.8 244.1, 303.7 243.1 L 304.3 244.7 Q 303.5 245.2, 302.4 245.5 Q 301.2 245.8, 299.9 245.8 Q 296.7 245.8, 295.0 243.8 Q 293.3 241.9, 293.3 238.2 " fill="#000000"/>
<path class="atom-6" d="M 305.5 243.2 L 307.6 243.2 L 307.6 245.2 L 305.5 245.2 L 305.5 243.2 M 305.5 236.0 L 307.6 236.0 L 307.6 238.1 L 305.5 238.1 L 305.5 236.0 " fill="#000000"/>
<path class="atom-6" d="M 316.8 232.5 L 309.1 232.5 L 309.1 230.9 L 318.9 230.9 L 318.9 232.3 L 313.0 245.6 L 311.0 245.6 L 316.8 232.5 " fill="#000000"/>
<path class="atom-7" d="M 383.0 274.0 L 387.8 281.8 Q 388.3 282.6, 389.1 284.0 Q 389.9 285.4, 389.9 285.5 L 389.9 274.0 L 391.8 274.0 L 391.8 288.8 L 389.8 288.8 L 384.6 280.2 Q 384.0 279.2, 383.4 278.1 Q 382.8 276.9, 382.6 276.6 L 382.6 288.8 L 380.7 288.8 L 380.7 274.0 L 383.0 274.0 " fill="#0000FF"/>
<path class="atom-7" d="M 393.6 286.3 L 395.7 286.3 L 395.7 288.4 L 393.6 288.4 L 393.6 286.3 M 393.6 279.2 L 395.7 279.2 L 395.7 281.3 L 393.6 281.3 L 393.6 279.2 " fill="#0000FF"/>
<path class="atom-7" d="M 404.7 281.0 Q 406.1 281.5, 406.8 282.4 Q 407.6 283.3, 407.6 284.7 Q 407.6 286.0, 407.0 287.0 Q 406.3 287.9, 405.2 288.5 Q 404.0 289.0, 402.5 289.0 Q 400.0 289.0, 398.6 287.9 Q 397.2 286.7, 397.2 284.7 Q 397.2 283.5, 397.8 282.6 Q 398.5 281.7, 399.8 281.0 Q 398.8 280.5, 398.3 279.7 Q 397.8 278.9, 397.8 277.6 Q 397.8 275.9, 399.0 274.9 Q 400.3 273.9, 402.4 273.9 Q 404.6 273.9, 405.8 274.9 Q 407.1 275.9, 407.1 277.6 Q 407.1 278.7, 406.5 279.5 Q 405.9 280.3, 404.7 281.0 M 402.4 275.4 Q 401.2 275.4, 400.5 276.0 Q 399.8 276.6, 399.8 277.6 Q 399.8 278.4, 400.3 278.9 Q 400.8 279.4, 401.4 279.7 Q 402.1 280.0, 403.3 280.4 Q 404.2 279.8, 404.6 279.2 Q 405.0 278.5, 405.0 277.6 Q 405.0 276.6, 404.3 276.0 Q 403.6 275.4, 402.4 275.4 M 402.5 287.4 Q 403.9 287.4, 404.7 286.7 Q 405.5 285.9, 405.5 284.7 Q 405.5 283.9, 405.1 283.4 Q 404.7 282.9, 404.0 282.6 Q 403.4 282.3, 402.2 282.0 L 401.3 281.7 Q 400.2 282.3, 399.8 283.0 Q 399.3 283.8, 399.3 284.7 Q 399.3 285.9, 400.2 286.7 Q 401.0 287.4, 402.5 287.4 " fill="#0000FF"/>
<path class="atom-8" d="M 340.2 204.0 Q 340.2 200.3, 341.9 198.4 Q 343.6 196.5, 346.9 196.5 Q 349.9 196.5, 351.5 198.6 L 350.1 199.7 Q 349.0 198.2, 346.9 198.2 Q 344.6 198.2, 343.4 199.7 Q 342.3 201.2, 342.3 204.0 Q 342.3 206.9, 343.5 208.4 Q 344.7 209.9, 347.1 209.9 Q 348.7 209.9, 350.6 208.9 L 351.2 210.5 Q 350.4 211.0, 349.3 211.3 Q 348.1 211.6, 346.8 211.6 Q 343.6 211.6, 341.9 209.6 Q 340.2 207.7, 340.2 204.0 " fill="#000000"/>
<path class="atom-8" d="M 352.4 208.9 L 354.4 208.9 L 354.4 211.0 L 352.4 211.0 L 352.4 208.9 M 352.4 201.8 L 354.4 201.8 L 354.4 203.9 L 352.4 203.9 L 352.4 201.8 " fill="#000000"/>
<path class="atom-8" d="M 360.9 196.5 Q 363.6 196.5, 364.9 198.3 Q 366.2 200.0, 366.2 203.6 Q 366.2 207.5, 364.6 209.5 Q 362.9 211.5, 359.8 211.5 Q 358.9 211.5, 358.1 211.3 Q 357.3 211.1, 356.6 210.7 L 357.4 209.3 Q 358.5 209.9, 359.8 209.9 Q 361.9 209.9, 362.9 208.5 Q 364.0 207.2, 364.1 204.4 Q 363.4 205.1, 362.4 205.5 Q 361.5 205.8, 360.4 205.8 Q 359.2 205.8, 358.1 205.3 Q 357.1 204.7, 356.6 203.7 Q 356.0 202.7, 356.0 201.4 Q 356.0 200.0, 356.6 198.8 Q 357.3 197.7, 358.4 197.1 Q 359.5 196.5, 360.9 196.5 M 358.1 201.4 Q 358.1 202.7, 358.8 203.4 Q 359.5 204.2, 360.8 204.2 Q 361.7 204.2, 362.6 203.8 Q 363.5 203.4, 364.1 202.8 Q 364.0 200.4, 363.3 199.3 Q 362.5 198.2, 360.9 198.2 Q 360.1 198.2, 359.5 198.6 Q 358.8 199.0, 358.5 199.7 Q 358.1 200.5, 358.1 201.4 " fill="#000000"/>
<path class="atom-9" d="M 392.2 230.7 Q 392.2 227.0, 393.9 225.1 Q 395.6 223.2, 398.9 223.2 Q 401.9 223.2, 403.5 225.3 L 402.1 226.4 Q 401.0 224.9, 398.9 224.9 Q 396.6 224.9, 395.4 226.4 Q 394.3 227.8, 394.3 230.7 Q 394.3 233.6, 395.5 235.1 Q 396.7 236.6, 399.1 236.6 Q 400.7 236.6, 402.6 235.6 L 403.2 237.2 Q 402.4 237.7, 401.3 238.0 Q 400.1 238.2, 398.8 238.2 Q 395.6 238.2, 393.9 236.3 Q 392.2 234.3, 392.2 230.7 " fill="#000000"/>
<path class="atom-9" d="M 404.4 235.6 L 406.4 235.6 L 406.4 237.7 L 404.4 237.7 L 404.4 235.6 M 404.4 228.5 L 406.4 228.5 L 406.4 230.5 L 404.4 230.5 L 404.4 228.5 " fill="#000000"/>
<path class="atom-9" d="M 408.8 236.4 L 412.0 236.4 L 412.0 225.4 L 408.5 226.5 L 408.0 225.3 L 412.5 223.2 L 414.0 223.5 L 414.0 236.4 L 416.9 236.4 L 416.9 238.1 L 408.8 238.1 L 408.8 236.4 " fill="#000000"/>
<path class="atom-9" d="M 423.1 238.2 Q 420.4 238.2, 419.1 236.2 Q 417.7 234.2, 417.7 230.7 Q 417.7 227.1, 419.1 225.1 Q 420.4 223.2, 423.1 223.2 Q 425.9 223.2, 427.2 225.1 Q 428.5 227.1, 428.5 230.7 Q 428.5 234.2, 427.2 236.2 Q 425.8 238.2, 423.1 238.2 M 423.1 236.6 Q 424.7 236.6, 425.6 235.1 Q 426.4 233.6, 426.4 230.7 Q 426.4 227.8, 425.6 226.3 Q 424.7 224.8, 423.1 224.8 Q 421.6 224.8, 420.7 226.3 Q 419.8 227.8, 419.8 230.7 Q 419.8 233.6, 420.7 235.1 Q 421.6 236.6, 423.1 236.6 " fill="#000000"/>
<path class="atom-10" d="M 317.2 286.0 Q 317.2 282.4, 318.9 280.5 Q 320.7 278.5, 323.9 278.5 Q 327.0 278.5, 328.6 280.7 L 327.2 281.8 Q 326.0 280.2, 323.9 280.2 Q 321.7 280.2, 320.5 281.7 Q 319.3 283.2, 319.3 286.0 Q 319.3 289.0, 320.5 290.5 Q 321.8 291.9, 324.1 291.9 Q 325.8 291.9, 327.7 291.0 L 328.2 292.5 Q 327.5 293.0, 326.3 293.3 Q 325.1 293.6, 323.9 293.6 Q 320.7 293.6, 318.9 291.7 Q 317.2 289.7, 317.2 286.0 " fill="#000000"/>
<path class="atom-10" d="M 329.4 291.0 L 331.5 291.0 L 331.5 293.1 L 329.4 293.1 L 329.4 291.0 M 329.4 283.8 L 331.5 283.8 L 331.5 285.9 L 329.4 285.9 L 329.4 283.8 " fill="#000000"/>
<path class="atom-10" d="M 333.9 291.8 L 337.1 291.8 L 337.1 280.8 L 333.5 281.9 L 333.1 280.6 L 337.6 278.6 L 339.0 278.9 L 339.0 291.8 L 341.9 291.8 L 341.9 293.4 L 333.9 293.4 L 333.9 291.8 " fill="#000000"/>
<path class="atom-10" d="M 343.6 291.8 L 346.8 291.8 L 346.8 280.8 L 343.3 281.9 L 342.8 280.6 L 347.3 278.6 L 348.8 278.9 L 348.8 291.8 L 351.7 291.8 L 351.7 293.4 L 343.6 293.4 L 343.6 291.8 " fill="#000000"/>
<path class="atom-11" d="M 210.3 176.8 L 212.3 176.8 L 212.3 183.1 L 219.8 183.1 L 219.8 176.8 L 221.8 176.8 L 221.8 191.6 L 219.8 191.6 L 219.8 184.8 L 212.3 184.8 L 212.3 191.6 L 210.3 191.6 L 210.3 176.8 " fill="#000000"/>
<path class="atom-11" d="M 223.6 189.1 L 225.6 189.1 L 225.6 191.2 L 223.6 191.2 L 223.6 189.1 M 223.6 182.0 L 225.6 182.0 L 225.6 184.0 L 223.6 184.0 L 223.6 182.0 " fill="#000000"/>
<path class="atom-11" d="M 228.0 189.9 L 231.2 189.9 L 231.2 178.9 L 227.7 180.0 L 227.2 178.8 L 231.7 176.7 L 233.2 177.0 L 233.2 189.9 L 236.1 189.9 L 236.1 191.6 L 228.0 191.6 L 228.0 189.9 " fill="#000000"/>
<path class="atom-11" d="M 237.0 179.6 Q 237.5 178.2, 238.8 177.4 Q 240.1 176.7, 241.9 176.7 Q 244.1 176.7, 245.4 177.9 Q 246.6 179.1, 246.6 181.2 Q 246.6 183.4, 245.0 185.4 Q 243.4 187.5, 240.1 189.9 L 246.9 189.9 L 246.9 191.6 L 237.0 191.6 L 237.0 190.2 Q 239.7 188.2, 241.3 186.7 Q 243.0 185.3, 243.8 184.0 Q 244.6 182.7, 244.6 181.3 Q 244.6 179.9, 243.9 179.1 Q 243.1 178.3, 241.9 178.3 Q 240.7 178.3, 239.9 178.8 Q 239.2 179.3, 238.6 180.3 L 237.0 179.6 " fill="#000000"/>
<path class="atom-12" d="M 285.5 327.7 Q 285.5 324.0, 287.2 322.1 Q 288.9 320.1, 292.2 320.1 Q 295.2 320.1, 296.9 322.3 L 295.5 323.4 Q 294.3 321.9, 292.2 321.9 Q 290.0 321.9, 288.8 323.4 Q 287.6 324.8, 287.6 327.7 Q 287.6 330.6, 288.8 332.1 Q 290.1 333.6, 292.4 333.6 Q 294.1 333.6, 296.0 332.6 L 296.5 334.2 Q 295.8 334.6, 294.6 334.9 Q 293.4 335.2, 292.1 335.2 Q 288.9 335.2, 287.2 333.3 Q 285.5 331.3, 285.5 327.7 " fill="#000000"/>
<path class="atom-12" d="M 297.7 332.6 L 299.8 332.6 L 299.8 334.7 L 297.7 334.7 L 297.7 332.6 M 297.7 325.5 L 299.8 325.5 L 299.8 327.5 L 297.7 327.5 L 297.7 325.5 " fill="#000000"/>
<path class="atom-12" d="M 302.2 333.4 L 305.4 333.4 L 305.4 322.4 L 301.8 323.5 L 301.3 322.2 L 305.9 320.2 L 307.3 320.5 L 307.3 333.4 L 310.2 333.4 L 310.2 335.0 L 302.2 335.0 L 302.2 333.4 " fill="#000000"/>
<path class="atom-12" d="M 318.2 327.3 Q 319.6 327.7, 320.3 328.6 Q 321.0 329.6, 321.0 331.0 Q 321.0 332.3, 320.4 333.2 Q 319.8 334.2, 318.6 334.7 Q 317.5 335.3, 316.0 335.3 Q 314.4 335.3, 313.2 334.7 Q 312.0 334.2, 311.1 333.0 L 312.3 331.8 Q 313.2 332.8, 314.0 333.2 Q 314.7 333.6, 316.0 333.6 Q 317.3 333.6, 318.1 332.9 Q 318.9 332.2, 318.9 331.0 Q 318.9 329.5, 318.1 328.8 Q 317.2 328.1, 315.4 328.1 L 314.4 328.1 L 314.4 326.6 L 315.3 326.6 Q 316.9 326.6, 317.8 325.9 Q 318.6 325.2, 318.6 323.9 Q 318.6 323.0, 317.9 322.4 Q 317.2 321.8, 316.0 321.8 Q 314.8 321.8, 314.0 322.2 Q 313.2 322.7, 312.7 323.8 L 311.2 323.0 Q 311.7 321.8, 313.0 321.0 Q 314.2 320.1, 316.0 320.1 Q 318.2 320.1, 319.4 321.2 Q 320.7 322.2, 320.7 323.9 Q 320.7 325.1, 320.0 326.0 Q 319.4 326.8, 318.2 327.3 " fill="#000000"/>
<path class="atom-13" d="M 188.0 355.7 L 190.0 355.7 L 190.0 361.9 L 197.6 361.9 L 197.6 355.7 L 199.6 355.7 L 199.6 370.4 L 197.6 370.4 L 197.6 363.6 L 190.0 363.6 L 190.0 370.4 L 188.0 370.4 L 188.0 355.7 " fill="#000000"/>
<path class="atom-13" d="M 201.3 368.0 L 203.4 368.0 L 203.4 370.1 L 201.3 370.1 L 201.3 368.0 M 201.3 360.8 L 203.4 360.8 L 203.4 362.9 L 201.3 362.9 L 201.3 360.8 " fill="#000000"/>
<path class="atom-13" d="M 205.8 368.7 L 209.0 368.7 L 209.0 357.7 L 205.5 358.8 L 205.0 357.6 L 209.5 355.6 L 211.0 355.8 L 211.0 368.7 L 213.9 368.7 L 213.9 370.4 L 205.8 370.4 L 205.8 368.7 " fill="#000000"/>
<path class="atom-13" d="M 224.3 365.4 L 226.1 365.4 L 226.1 367.0 L 224.3 367.0 L 224.3 370.4 L 222.4 370.4 L 222.4 367.0 L 214.7 367.0 L 214.7 365.7 L 221.2 355.7 L 224.3 355.7 L 224.3 365.4 M 217.2 365.4 L 222.4 365.4 L 222.4 357.0 L 217.2 365.4 " fill="#000000"/>
<path class="atom-14" d="M 89.7 213.4 Q 89.7 209.7, 91.4 207.8 Q 93.1 205.9, 96.4 205.9 Q 99.4 205.9, 101.0 208.0 L 99.6 209.1 Q 98.5 207.6, 96.4 207.6 Q 94.1 207.6, 93.0 209.1 Q 91.8 210.5, 91.8 213.4 Q 91.8 216.3, 93.0 217.8 Q 94.2 219.3, 96.6 219.3 Q 98.2 219.3, 100.1 218.3 L 100.7 219.9 Q 99.9 220.4, 98.8 220.6 Q 97.6 220.9, 96.3 220.9 Q 93.1 220.9, 91.4 219.0 Q 89.7 217.0, 89.7 213.4 " fill="#000000"/>
<path class="atom-14" d="M 101.9 218.3 L 103.9 218.3 L 103.9 220.4 L 101.9 220.4 L 101.9 218.3 M 101.9 211.2 L 103.9 211.2 L 103.9 213.2 L 101.9 213.2 L 101.9 211.2 " fill="#000000"/>
<path class="atom-14" d="M 106.3 219.1 L 109.5 219.1 L 109.5 208.1 L 106.0 209.2 L 105.5 208.0 L 110.0 205.9 L 111.5 206.2 L 111.5 219.1 L 114.4 219.1 L 114.4 220.7 L 106.3 220.7 L 106.3 219.1 " fill="#000000"/>
<path class="atom-14" d="M 120.6 211.5 Q 121.9 211.5, 123.0 212.1 Q 124.0 212.6, 124.6 213.7 Q 125.2 214.7, 125.2 216.1 Q 125.2 217.6, 124.5 218.7 Q 123.7 219.8, 122.5 220.4 Q 121.3 220.9, 120.0 220.9 Q 118.6 220.9, 117.4 220.4 Q 116.1 219.9, 115.3 219.0 L 116.5 217.7 Q 117.2 218.4, 118.1 218.8 Q 119.1 219.2, 120.0 219.2 Q 121.3 219.2, 122.2 218.4 Q 123.1 217.6, 123.1 216.1 Q 123.1 214.6, 122.2 213.8 Q 121.3 213.1, 119.9 213.1 Q 118.6 213.1, 117.2 213.7 L 116.0 213.1 L 116.7 206.0 L 124.3 206.0 L 124.1 207.7 L 118.4 207.7 L 118.0 212.1 Q 119.3 211.5, 120.6 211.5 " fill="#000000"/>
<path class="atom-15" d="M 414.7 313.2 L 416.7 313.2 L 416.7 319.5 L 424.2 319.5 L 424.2 313.2 L 426.2 313.2 L 426.2 327.9 L 424.2 327.9 L 424.2 321.1 L 416.7 321.1 L 416.7 327.9 L 414.7 327.9 L 414.7 313.2 " fill="#000000"/>
<path class="atom-15" d="M 428.0 325.5 L 430.1 325.5 L 430.1 327.6 L 428.0 327.6 L 428.0 325.5 M 428.0 318.3 L 430.1 318.3 L 430.1 320.4 L 428.0 320.4 L 428.0 318.3 " fill="#000000"/>
<path class="atom-15" d="M 432.5 326.3 L 435.7 326.3 L 435.7 315.3 L 432.1 316.4 L 431.7 315.1 L 436.2 313.1 L 437.6 313.4 L 437.6 326.3 L 440.5 326.3 L 440.5 327.9 L 432.5 327.9 L 432.5 326.3 " fill="#000000"/>
<path class="atom-15" d="M 447.2 318.7 Q 448.5 318.7, 449.5 319.3 Q 450.5 319.9, 451.1 320.9 Q 451.6 321.9, 451.6 323.2 Q 451.6 324.6, 451.0 325.8 Q 450.4 326.9, 449.2 327.5 Q 448.1 328.1, 446.7 328.1 Q 444.1 328.1, 442.7 326.3 Q 441.4 324.5, 441.4 321.0 Q 441.4 317.1, 443.0 315.1 Q 444.7 313.0, 447.8 313.0 Q 448.7 313.0, 449.5 313.2 Q 450.3 313.5, 451.0 313.9 L 450.2 315.3 Q 449.2 314.7, 447.8 314.7 Q 445.8 314.7, 444.7 316.1 Q 443.6 317.4, 443.5 320.2 Q 444.3 319.5, 445.2 319.1 Q 446.2 318.7, 447.2 318.7 M 446.7 326.4 Q 447.5 326.4, 448.1 326.0 Q 448.8 325.6, 449.2 324.8 Q 449.5 324.1, 449.5 323.2 Q 449.5 321.9, 448.8 321.2 Q 448.1 320.4, 446.8 320.4 Q 445.9 320.4, 445.0 320.8 Q 444.1 321.1, 443.5 321.8 Q 443.6 324.2, 444.4 325.3 Q 445.1 326.4, 446.7 326.4 " fill="#000000"/>
<path class="atom-16" d="M 330.8 152.2 Q 330.8 148.5, 332.5 146.6 Q 334.3 144.7, 337.5 144.7 Q 340.6 144.7, 342.2 146.8 L 340.8 147.9 Q 339.6 146.4, 337.5 146.4 Q 335.3 146.4, 334.1 147.9 Q 333.0 149.4, 333.0 152.2 Q 333.0 155.1, 334.2 156.6 Q 335.4 158.1, 337.8 158.1 Q 339.4 158.1, 341.3 157.1 L 341.9 158.7 Q 341.1 159.2, 339.9 159.5 Q 338.8 159.8, 337.5 159.8 Q 334.3 159.8, 332.5 157.8 Q 330.8 155.8, 330.8 152.2 " fill="#000000"/>
<path class="atom-16" d="M 343.0 157.1 L 345.1 157.1 L 345.1 159.2 L 343.0 159.2 L 343.0 157.1 M 343.0 150.0 L 345.1 150.0 L 345.1 152.1 L 343.0 152.1 L 343.0 150.0 " fill="#000000"/>
<path class="atom-16" d="M 347.5 157.9 L 350.7 157.9 L 350.7 146.9 L 347.2 148.0 L 346.7 146.8 L 351.2 144.8 L 352.7 145.0 L 352.7 157.9 L 355.6 157.9 L 355.6 159.6 L 347.5 159.6 L 347.5 157.9 " fill="#000000"/>
<path class="atom-16" d="M 364.2 146.5 L 356.4 146.5 L 356.4 144.8 L 366.2 144.8 L 366.2 146.3 L 360.3 159.6 L 358.3 159.6 L 364.2 146.5 " fill="#000000"/>
<path class="atom-17" d="M 438.9 210.2 Q 438.9 206.7, 440.7 204.7 Q 442.4 202.7, 445.7 202.7 Q 448.9 202.7, 450.7 204.7 Q 452.4 206.7, 452.4 210.2 Q 452.4 213.8, 450.7 215.8 Q 448.9 217.8, 445.7 217.8 Q 442.4 217.8, 440.7 215.8 Q 438.9 213.8, 438.9 210.2 M 445.7 216.2 Q 447.9 216.2, 449.1 214.7 Q 450.3 213.2, 450.3 210.2 Q 450.3 207.3, 449.1 205.9 Q 447.9 204.4, 445.7 204.4 Q 443.4 204.4, 442.2 205.8 Q 441.0 207.3, 441.0 210.2 Q 441.0 213.2, 442.2 214.7 Q 443.4 216.2, 445.7 216.2 " fill="#FF0000"/>
<path class="atom-17" d="M 453.5 215.2 L 455.6 215.2 L 455.6 217.3 L 453.5 217.3 L 453.5 215.2 M 453.5 208.0 L 455.6 208.0 L 455.6 210.1 L 453.5 210.1 L 453.5 208.0 " fill="#FF0000"/>
<path class="atom-17" d="M 457.9 215.9 L 461.1 215.9 L 461.1 204.9 L 457.6 206.0 L 457.1 204.8 L 461.6 202.8 L 463.1 203.0 L 463.1 215.9 L 466.0 215.9 L 466.0 217.6 L 457.9 217.6 L 457.9 215.9 " fill="#FF0000"/>
<path class="atom-17" d="M 474.4 209.8 Q 475.7 210.4, 476.5 211.3 Q 477.3 212.1, 477.3 213.6 Q 477.3 214.8, 476.6 215.8 Q 476.0 216.8, 474.8 217.3 Q 473.7 217.8, 472.2 217.8 Q 469.7 217.8, 468.3 216.7 Q 466.9 215.6, 466.9 213.6 Q 466.9 212.4, 467.5 211.5 Q 468.1 210.6, 469.4 209.9 Q 468.5 209.3, 467.9 208.5 Q 467.4 207.7, 467.4 206.5 Q 467.4 204.8, 468.7 203.7 Q 469.9 202.7, 472.1 202.7 Q 474.2 202.7, 475.5 203.7 Q 476.7 204.8, 476.7 206.5 Q 476.7 207.6, 476.1 208.4 Q 475.5 209.2, 474.4 209.8 M 472.1 204.3 Q 470.8 204.3, 470.2 204.9 Q 469.5 205.4, 469.5 206.5 Q 469.5 207.3, 469.9 207.8 Q 470.4 208.3, 471.1 208.6 Q 471.7 208.9, 473.0 209.3 Q 473.9 208.7, 474.3 208.0 Q 474.7 207.3, 474.7 206.5 Q 474.7 205.4, 474.0 204.9 Q 473.3 204.3, 472.1 204.3 M 472.2 216.3 Q 473.5 216.3, 474.4 215.5 Q 475.2 214.8, 475.2 213.6 Q 475.2 212.8, 474.8 212.3 Q 474.3 211.8, 473.7 211.5 Q 473.0 211.2, 471.8 210.8 L 470.9 210.5 Q 469.9 211.1, 469.4 211.9 Q 469.0 212.6, 469.0 213.6 Q 469.0 214.8, 469.8 215.5 Q 470.7 216.3, 472.2 216.3 " fill="#FF0000"/>
<path class="atom-18" d="M 317.9 368.1 L 319.9 368.1 L 319.9 374.4 L 327.5 374.4 L 327.5 368.1 L 329.5 368.1 L 329.5 382.9 L 327.5 382.9 L 327.5 376.1 L 319.9 376.1 L 319.9 382.9 L 317.9 382.9 L 317.9 368.1 " fill="#000000"/>
<path class="atom-18" d="M 331.2 380.4 L 333.3 380.4 L 333.3 382.5 L 331.2 382.5 L 331.2 380.4 M 331.2 373.3 L 333.3 373.3 L 333.3 375.4 L 331.2 375.4 L 331.2 373.3 " fill="#000000"/>
<path class="atom-18" d="M 335.7 381.2 L 338.9 381.2 L 338.9 370.2 L 335.3 371.3 L 334.9 370.1 L 339.4 368.1 L 340.9 368.3 L 340.9 381.2 L 343.8 381.2 L 343.8 382.9 L 335.7 382.9 L 335.7 381.2 " fill="#000000"/>
<path class="atom-18" d="M 349.6 368.0 Q 352.2 368.0, 353.5 369.8 Q 354.8 371.5, 354.8 375.1 Q 354.8 379.0, 353.2 381.0 Q 351.6 383.0, 348.4 383.0 Q 347.5 383.0, 346.7 382.8 Q 346.0 382.6, 345.2 382.2 L 346.0 380.8 Q 347.1 381.4, 348.4 381.4 Q 350.5 381.4, 351.6 380.0 Q 352.6 378.7, 352.7 375.9 Q 352.0 376.6, 351.0 377.0 Q 350.1 377.3, 349.1 377.3 Q 347.8 377.3, 346.8 376.8 Q 345.8 376.2, 345.2 375.2 Q 344.6 374.2, 344.6 372.9 Q 344.6 371.5, 345.3 370.3 Q 345.9 369.2, 347.0 368.6 Q 348.1 368.0, 349.6 368.0 M 346.7 372.9 Q 346.7 374.2, 347.4 374.9 Q 348.2 375.7, 349.5 375.7 Q 350.3 375.7, 351.2 375.3 Q 352.1 374.9, 352.7 374.3 Q 352.7 371.9, 351.9 370.8 Q 351.1 369.7, 349.6 369.7 Q 348.8 369.7, 348.1 370.1 Q 347.5 370.5, 347.1 371.2 Q 346.7 372.0, 346.7 372.9 " fill="#000000"/>
<path class="atom-19" d="M 107.9 154.4 L 109.9 154.4 L 109.9 160.6 L 117.4 160.6 L 117.4 154.4 L 119.4 154.4 L 119.4 169.1 L 117.4 169.1 L 117.4 162.3 L 109.9 162.3 L 109.9 169.1 L 107.9 169.1 L 107.9 154.4 " fill="#000000"/>
<path class="atom-19" d="M 121.2 166.7 L 123.3 166.7 L 123.3 168.8 L 121.2 168.8 L 121.2 166.7 M 121.2 159.5 L 123.3 159.5 L 123.3 161.6 L 121.2 161.6 L 121.2 159.5 " fill="#000000"/>
<path class="atom-19" d="M 124.9 157.2 Q 125.4 155.8, 126.7 155.0 Q 128.0 154.2, 129.8 154.2 Q 132.0 154.2, 133.3 155.4 Q 134.5 156.6, 134.5 158.8 Q 134.5 160.9, 132.9 163.0 Q 131.3 165.0, 127.9 167.4 L 134.8 167.4 L 134.8 169.1 L 124.8 169.1 L 124.8 167.7 Q 127.6 165.8, 129.2 164.3 Q 130.8 162.8, 131.6 161.5 Q 132.4 160.2, 132.4 158.9 Q 132.4 157.5, 131.7 156.7 Q 131.0 155.9, 129.8 155.9 Q 128.6 155.9, 127.8 156.4 Q 127.0 156.8, 126.4 157.9 L 124.9 157.2 " fill="#000000"/>
<path class="atom-19" d="M 141.4 169.3 Q 138.7 169.3, 137.3 167.3 Q 136.0 165.3, 136.0 161.7 Q 136.0 158.2, 137.3 156.2 Q 138.7 154.2, 141.4 154.2 Q 144.1 154.2, 145.4 156.2 Q 146.8 158.2, 146.8 161.7 Q 146.8 165.3, 145.4 167.3 Q 144.1 169.3, 141.4 169.3 M 141.4 167.6 Q 143.0 167.6, 143.8 166.1 Q 144.7 164.6, 144.7 161.7 Q 144.7 158.8, 143.8 157.3 Q 143.0 155.9, 141.4 155.9 Q 139.8 155.9, 138.9 157.3 Q 138.1 158.8, 138.1 161.7 Q 138.1 164.6, 138.9 166.1 Q 139.8 167.6, 141.4 167.6 " fill="#000000"/>
<path class="atom-20" d="M 95.5 257.7 L 97.5 257.7 L 97.5 263.9 L 105.0 263.9 L 105.0 257.7 L 107.0 257.7 L 107.0 272.4 L 105.0 272.4 L 105.0 265.6 L 97.5 265.6 L 97.5 272.4 L 95.5 272.4 L 95.5 257.7 " fill="#000000"/>
<path class="atom-20" d="M 108.8 270.0 L 110.8 270.0 L 110.8 272.0 L 108.8 272.0 L 108.8 270.0 M 108.8 262.8 L 110.8 262.8 L 110.8 264.9 L 108.8 264.9 L 108.8 262.8 " fill="#000000"/>
<path class="atom-20" d="M 112.4 260.4 Q 113.0 259.1, 114.3 258.3 Q 115.6 257.5, 117.4 257.5 Q 119.6 257.5, 120.8 258.7 Q 122.1 259.9, 122.1 262.1 Q 122.1 264.2, 120.5 266.3 Q 118.9 268.3, 115.5 270.7 L 122.3 270.7 L 122.3 272.4 L 112.4 272.4 L 112.4 271.0 Q 115.1 269.0, 116.8 267.6 Q 118.4 266.1, 119.2 264.8 Q 120.0 263.5, 120.0 262.2 Q 120.0 260.7, 119.3 259.9 Q 118.6 259.2, 117.4 259.2 Q 116.2 259.2, 115.4 259.6 Q 114.6 260.1, 114.0 261.2 L 112.4 260.4 " fill="#000000"/>
<path class="atom-20" d="M 124.4 270.7 L 127.6 270.7 L 127.6 259.7 L 124.1 260.8 L 123.6 259.6 L 128.1 257.6 L 129.6 257.8 L 129.6 270.7 L 132.5 270.7 L 132.5 272.4 L 124.4 272.4 L 124.4 270.7 " fill="#000000"/>
<path class="atom-21" d="M 22.7 199.8 L 24.7 199.8 L 24.7 206.1 L 32.3 206.1 L 32.3 199.8 L 34.3 199.8 L 34.3 214.5 L 32.3 214.5 L 32.3 207.7 L 24.7 207.7 L 24.7 214.5 L 22.7 214.5 L 22.7 199.8 " fill="#000000"/>
<path class="atom-21" d="M 36.0 212.1 L 38.1 212.1 L 38.1 214.2 L 36.0 214.2 L 36.0 212.1 M 36.0 204.9 L 38.1 204.9 L 38.1 207.0 L 36.0 207.0 L 36.0 204.9 " fill="#000000"/>
<path class="atom-21" d="M 39.7 202.6 Q 40.2 201.2, 41.5 200.4 Q 42.8 199.6, 44.6 199.6 Q 46.8 199.6, 48.1 200.8 Q 49.3 202.1, 49.3 204.2 Q 49.3 206.4, 47.7 208.4 Q 46.1 210.5, 42.8 212.9 L 49.6 212.9 L 49.6 214.5 L 39.7 214.5 L 39.7 213.1 Q 42.4 211.2, 44.0 209.7 Q 45.7 208.3, 46.5 207.0 Q 47.3 205.7, 47.3 204.3 Q 47.3 202.9, 46.6 202.1 Q 45.8 201.3, 44.6 201.3 Q 43.4 201.3, 42.6 201.8 Q 41.8 202.3, 41.3 203.3 L 39.7 202.6 " fill="#000000"/>
<path class="atom-21" d="M 50.9 202.6 Q 51.4 201.2, 52.7 200.4 Q 54.0 199.6, 55.8 199.6 Q 58.0 199.6, 59.3 200.8 Q 60.5 202.1, 60.5 204.2 Q 60.5 206.4, 58.9 208.4 Q 57.3 210.5, 54.0 212.9 L 60.8 212.9 L 60.8 214.5 L 50.8 214.5 L 50.8 213.1 Q 53.6 211.2, 55.2 209.7 Q 56.8 208.3, 57.6 207.0 Q 58.4 205.7, 58.4 204.3 Q 58.4 202.9, 57.7 202.1 Q 57.0 201.3, 55.8 201.3 Q 54.6 201.3, 53.8 201.8 Q 53.0 202.3, 52.5 203.3 L 50.9 202.6 " fill="#000000"/>
<path class="atom-22" d="M 385.3 114.9 L 387.3 114.9 L 387.3 121.2 L 394.8 121.2 L 394.8 114.9 L 396.8 114.9 L 396.8 129.6 L 394.8 129.6 L 394.8 122.8 L 387.3 122.8 L 387.3 129.6 L 385.3 129.6 L 385.3 114.9 " fill="#000000"/>
<path class="atom-22" d="M 398.6 127.2 L 400.7 127.2 L 400.7 129.3 L 398.6 129.3 L 398.6 127.2 M 398.6 120.0 L 400.7 120.0 L 400.7 122.1 L 398.6 122.1 L 398.6 120.0 " fill="#000000"/>
<path class="atom-22" d="M 402.3 117.7 Q 402.8 116.3, 404.1 115.5 Q 405.4 114.7, 407.2 114.7 Q 409.4 114.7, 410.7 115.9 Q 411.9 117.1, 411.9 119.3 Q 411.9 121.5, 410.3 123.5 Q 408.7 125.6, 405.4 128.0 L 412.2 128.0 L 412.2 129.6 L 402.2 129.6 L 402.2 128.2 Q 405.0 126.3, 406.6 124.8 Q 408.2 123.4, 409.0 122.1 Q 409.8 120.7, 409.8 119.4 Q 409.8 118.0, 409.1 117.2 Q 408.4 116.4, 407.2 116.4 Q 406.0 116.4, 405.2 116.9 Q 404.4 117.4, 403.9 118.4 L 402.3 117.7 " fill="#000000"/>
<path class="atom-22" d="M 420.5 121.9 Q 421.9 122.3, 422.6 123.2 Q 423.3 124.1, 423.3 125.6 Q 423.3 126.8, 422.7 127.8 Q 422.1 128.8, 420.9 129.3 Q 419.8 129.8, 418.3 129.8 Q 416.7 129.8, 415.5 129.3 Q 414.3 128.7, 413.4 127.6 L 414.6 126.4 Q 415.5 127.4, 416.3 127.8 Q 417.0 128.2, 418.3 128.2 Q 419.6 128.2, 420.4 127.5 Q 421.2 126.7, 421.2 125.6 Q 421.2 124.1, 420.4 123.4 Q 419.5 122.7, 417.7 122.7 L 416.7 122.7 L 416.7 121.2 L 417.6 121.2 Q 419.2 121.2, 420.1 120.5 Q 420.9 119.8, 420.9 118.5 Q 420.9 117.5, 420.2 117.0 Q 419.5 116.4, 418.3 116.4 Q 417.1 116.4, 416.3 116.8 Q 415.5 117.3, 415.0 118.4 L 413.5 117.6 Q 414.1 116.4, 415.3 115.6 Q 416.5 114.7, 418.3 114.7 Q 420.5 114.7, 421.7 115.8 Q 423.0 116.8, 423.0 118.5 Q 423.0 119.7, 422.4 120.5 Q 421.7 121.4, 420.5 121.9 " fill="#000000"/>
<path class="atom-23" d="M 267.6 123.0 L 269.5 123.0 L 269.5 129.2 L 277.1 129.2 L 277.1 123.0 L 279.1 123.0 L 279.1 137.7 L 277.1 137.7 L 277.1 130.9 L 269.5 130.9 L 269.5 137.7 L 267.6 137.7 L 267.6 123.0 " fill="#000000"/>
<path class="atom-23" d="M 280.8 135.3 L 282.9 135.3 L 282.9 137.3 L 280.8 137.3 L 280.8 135.3 M 280.8 128.1 L 282.9 128.1 L 282.9 130.2 L 280.8 130.2 L 280.8 128.1 " fill="#000000"/>
<path class="atom-23" d="M 284.5 125.8 Q 285.1 124.4, 286.4 123.6 Q 287.6 122.8, 289.4 122.8 Q 291.7 122.8, 292.9 124.0 Q 294.2 125.2, 294.2 127.4 Q 294.2 129.5, 292.5 131.6 Q 290.9 133.6, 287.6 136.0 L 294.4 136.0 L 294.4 137.7 L 284.5 137.7 L 284.5 136.3 Q 287.2 134.4, 288.9 132.9 Q 290.5 131.4, 291.3 130.1 Q 292.1 128.8, 292.1 127.5 Q 292.1 126.1, 291.4 125.3 Q 290.7 124.5, 289.4 124.5 Q 288.3 124.5, 287.5 124.9 Q 286.7 125.4, 286.1 126.5 L 284.5 125.8 " fill="#000000"/>
<path class="atom-23" d="M 305.2 132.6 L 307.0 132.6 L 307.0 134.3 L 305.2 134.3 L 305.2 137.7 L 303.3 137.7 L 303.3 134.3 L 295.7 134.3 L 295.7 133.0 L 302.1 123.0 L 305.2 123.0 L 305.2 132.6 M 298.1 132.6 L 303.3 132.6 L 303.3 124.3 L 298.1 132.6 " fill="#000000"/>
<text x="205.34784920402902" y="270.4475990994806" font-size="12" font-family="Verdana" font-weight="bold" letter-spacing="0" text-anchor="start" fill="black" transform=" rotate(-83.140787 205.347849 270.447599)">1.0076</text><text x="25" y="490" font-size="12" font-family="Verdana" font-weight="bold" letter-spacing="0" text-anchor="start" fill="black">[#6:1]1(:[#6:2](-[#6:3](-[#8:4]-[#6:15](-[H:20])(-[H:21])-[H:22])=[#8:6]):[#6:5](:[#6:13](:[#6:11]2:[#6:7]:1-[#6:9](-[#6:10](-[#7:8]-2-[H:16])=[#8:18])=[#6:17](-[H:23])-[H:24])-[H:19])-[H:14])-[H:12]</text></svg>
