<?xml version='1.0' encoding='ASCII' standalone='yes'?>
<svg xmlns="http://www.w3.org/2000/svg" xmlns:rdkit="http://www.rdkit.org/xml" xmlns:xlink="http://www.w3.org/1999/xlink" version="1.1" baseProfile="full" xml:space="preserve" width="500px" height="500px" viewBox="0 0 500 500">
<!-- END OF HEADER -->
<rect style="opacity:1.0;fill:#FFFFFF;stroke:none" width="500.0" height="500.0" x="0.0" y="0.0"> </rect>
<path class="bond-1 atom-1 atom-2" d="M 263.4,256.3 L 292.5,220.5" style="fill:none;fill-rule:evenodd;stroke:#FF7F7F;stroke-width:9.8px;stroke-linecap:butt;stroke-linejoin:miter;stroke-opacity:1"/>
<path class="bond-0 atom-1 atom-0" d="M 250.2,254.1 L 240.3,252.5" style="fill:none;fill-rule:evenodd;stroke:#0000FF;stroke-width:2.0px;stroke-linecap:butt;stroke-linejoin:miter;stroke-opacity:1"/>
<path class="bond-0 atom-1 atom-0" d="M 240.3,252.5 L 230.4,251.0" style="fill:none;fill-rule:evenodd;stroke:#000000;stroke-width:2.0px;stroke-linecap:butt;stroke-linejoin:miter;stroke-opacity:1"/>
<path class="bond-1 atom-1 atom-2" d="M 270.0,248.2 L 277.9,238.5" style="fill:none;fill-rule:evenodd;stroke:#0000FF;stroke-width:2.0px;stroke-linecap:butt;stroke-linejoin:miter;stroke-opacity:1"/>
<path class="bond-1 atom-1 atom-2" d="M 277.9,238.5 L 285.7,228.8" style="fill:none;fill-rule:evenodd;stroke:#000000;stroke-width:2.0px;stroke-linecap:butt;stroke-linejoin:miter;stroke-opacity:1"/>
<path class="bond-2 atom-1 atom-4" d="M 266.5,264.4 L 271.6,277.8" style="fill:none;fill-rule:evenodd;stroke:#0000FF;stroke-width:2.0px;stroke-linecap:butt;stroke-linejoin:miter;stroke-opacity:1"/>
<path class="bond-2 atom-1 atom-4" d="M 271.6,277.8 L 276.7,291.2" style="fill:none;fill-rule:evenodd;stroke:#000000;stroke-width:2.0px;stroke-linecap:butt;stroke-linejoin:miter;stroke-opacity:1"/>
<path class="bond-3 atom-2 atom-3" d="M 305.4,222.6 L 317.4,224.5" style="fill:none;fill-rule:evenodd;stroke:#000000;stroke-width:2.0px;stroke-linecap:butt;stroke-linejoin:miter;stroke-opacity:1"/>
<path class="bond-4 atom-2 atom-5" d="M 285.1,214.1 L 280.0,200.7" style="fill:none;fill-rule:evenodd;stroke:#000000;stroke-width:2.0px;stroke-linecap:butt;stroke-linejoin:miter;stroke-opacity:1"/>
<path class="bond-4 atom-2 atom-5" d="M 280.0,200.7 L 274.9,187.4" style="fill:none;fill-rule:evenodd;stroke:#FF0000;stroke-width:2.0px;stroke-linecap:butt;stroke-linejoin:miter;stroke-opacity:1"/>
<path class="bond-4 atom-2 atom-5" d="M 293.7,210.8 L 288.6,197.4" style="fill:none;fill-rule:evenodd;stroke:#000000;stroke-width:2.0px;stroke-linecap:butt;stroke-linejoin:miter;stroke-opacity:1"/>
<path class="bond-4 atom-2 atom-5" d="M 288.6,197.4 L 283.5,184.1" style="fill:none;fill-rule:evenodd;stroke:#FF0000;stroke-width:2.0px;stroke-linecap:butt;stroke-linejoin:miter;stroke-opacity:1"/>
<path class="bond-5 atom-3 atom-15" d="M 337.7,235.9 L 336.9,257.2" style="fill:none;fill-rule:evenodd;stroke:#000000;stroke-width:2.0px;stroke-linecap:butt;stroke-linejoin:miter;stroke-opacity:1"/>
<path class="bond-6 atom-3 atom-16" d="M 339.2,219.9 L 344.0,190.4" style="fill:none;fill-rule:evenodd;stroke:#000000;stroke-width:2.0px;stroke-linecap:butt;stroke-linejoin:miter;stroke-opacity:1"/>
<path class="bond-7 atom-4 atom-11" d="M 273.3,301.8 L 242.7,313.5" style="fill:none;fill-rule:evenodd;stroke:#000000;stroke-width:2.0px;stroke-linecap:butt;stroke-linejoin:miter;stroke-opacity:1"/>
<path class="bond-8 atom-4 atom-12" d="M 299.1,294.5 L 309.4,292.0" style="fill:none;fill-rule:evenodd;stroke:#000000;stroke-width:2.0px;stroke-linecap:butt;stroke-linejoin:miter;stroke-opacity:1"/>
<path class="bond-9 atom-4 atom-13" d="M 283.0,307.6 L 293.2,334.4" style="fill:none;fill-rule:evenodd;stroke:#000000;stroke-width:2.0px;stroke-linecap:butt;stroke-linejoin:miter;stroke-opacity:1"/>
<path class="bond-10 atom-6 atom-0" d="M 195.3,276.7 L 211.2,257.2" style="fill:none;fill-rule:evenodd;stroke:#000000;stroke-width:2.0px;stroke-linecap:butt;stroke-linejoin:miter;stroke-opacity:1"/>
<path class="bond-10 atom-6 atom-0" d="M 190.5,268.0 L 201.7,254.3" style="fill:none;fill-rule:evenodd;stroke:#000000;stroke-width:2.0px;stroke-linecap:butt;stroke-linejoin:miter;stroke-opacity:1"/>
<path class="bond-11 atom-6 atom-17" d="M 191.9,292.8 L 202.2,319.8" style="fill:none;fill-rule:evenodd;stroke:#000000;stroke-width:2.0px;stroke-linecap:butt;stroke-linejoin:miter;stroke-opacity:1"/>
<path class="bond-12 atom-7 atom-8" d="M 130.1,242.6 L 140.3,269.3" style="fill:none;fill-rule:evenodd;stroke:#000000;stroke-width:2.0px;stroke-linecap:butt;stroke-linejoin:miter;stroke-opacity:1"/>
<path class="bond-12 atom-7 atom-8" d="M 140.2,243.3 L 147.3,262.0" style="fill:none;fill-rule:evenodd;stroke:#000000;stroke-width:2.0px;stroke-linecap:butt;stroke-linejoin:miter;stroke-opacity:1"/>
<path class="bond-13 atom-7 atom-9" d="M 133.5,226.2 L 149.2,207.0" style="fill:none;fill-rule:evenodd;stroke:#000000;stroke-width:2.0px;stroke-linecap:butt;stroke-linejoin:miter;stroke-opacity:1"/>
<path class="bond-14 atom-8 atom-6" d="M 156.4,279.5 L 176.0,282.6" style="fill:none;fill-rule:evenodd;stroke:#000000;stroke-width:2.0px;stroke-linecap:butt;stroke-linejoin:miter;stroke-opacity:1"/>
<path class="bond-15 atom-8 atom-18" d="M 136.6,285.7 L 120.3,305.7" style="fill:none;fill-rule:evenodd;stroke:#000000;stroke-width:2.0px;stroke-linecap:butt;stroke-linejoin:miter;stroke-opacity:1"/>
<path class="bond-16 atom-9 atom-10" d="M 173.6,201.4 L 184.7,203.2" style="fill:none;fill-rule:evenodd;stroke:#000000;stroke-width:2.0px;stroke-linecap:butt;stroke-linejoin:miter;stroke-opacity:1"/>
<path class="bond-16 atom-9 atom-10" d="M 173.8,210.8 L 181.6,212.0" style="fill:none;fill-rule:evenodd;stroke:#000000;stroke-width:2.0px;stroke-linecap:butt;stroke-linejoin:miter;stroke-opacity:1"/>
<path class="bond-17 atom-9 atom-19" d="M 152.9,190.6 L 142.7,163.8" style="fill:none;fill-rule:evenodd;stroke:#000000;stroke-width:2.0px;stroke-linecap:butt;stroke-linejoin:miter;stroke-opacity:1"/>
<path class="bond-18 atom-10 atom-0" d="M 204.6,214.0 L 214.8,240.9" style="fill:none;fill-rule:evenodd;stroke:#000000;stroke-width:2.0px;stroke-linecap:butt;stroke-linejoin:miter;stroke-opacity:1"/>
<path class="bond-19 atom-10 atom-20" d="M 208.0,197.9 L 224.0,178.3" style="fill:none;fill-rule:evenodd;stroke:#000000;stroke-width:2.0px;stroke-linecap:butt;stroke-linejoin:miter;stroke-opacity:1"/>
<path class="bond-20 atom-14 atom-3" d="M 365.9,232.3 L 355.2,230.6" style="fill:none;fill-rule:evenodd;stroke:#0000FF;stroke-width:2.0px;stroke-linecap:butt;stroke-linejoin:miter;stroke-opacity:1"/>
<path class="bond-20 atom-14 atom-3" d="M 355.2,230.6 L 344.5,228.9" style="fill:none;fill-rule:evenodd;stroke:#000000;stroke-width:2.0px;stroke-linecap:butt;stroke-linejoin:miter;stroke-opacity:1"/>
<path class="bond-21 atom-14 atom-22" d="M 386.5,243.2 L 391.7,256.6" style="fill:none;fill-rule:evenodd;stroke:#0000FF;stroke-width:2.0px;stroke-linecap:butt;stroke-linejoin:miter;stroke-opacity:1"/>
<path class="bond-21 atom-14 atom-22" d="M 391.7,256.6 L 396.8,270.1" style="fill:none;fill-rule:evenodd;stroke:#000000;stroke-width:2.0px;stroke-linecap:butt;stroke-linejoin:miter;stroke-opacity:1"/>
<path class="bond-22 atom-14 atom-23" d="M 390.0,227.1 L 397.4,218.0" style="fill:none;fill-rule:evenodd;stroke:#0000FF;stroke-width:2.0px;stroke-linecap:butt;stroke-linejoin:miter;stroke-opacity:1"/>
<path class="bond-22 atom-14 atom-23" d="M 397.4,218.0 L 404.8,208.8" style="fill:none;fill-rule:evenodd;stroke:#000000;stroke-width:2.0px;stroke-linecap:butt;stroke-linejoin:miter;stroke-opacity:1"/>
<path class="bond-23 atom-21 atom-7" d="M 99.6,230.0 L 106.7,231.1" style="fill:none;fill-rule:evenodd;stroke:#0000FF;stroke-width:2.0px;stroke-linecap:butt;stroke-linejoin:miter;stroke-opacity:1"/>
<path class="bond-23 atom-21 atom-7" d="M 106.7,231.1 L 113.8,232.2" style="fill:none;fill-rule:evenodd;stroke:#000000;stroke-width:2.0px;stroke-linecap:butt;stroke-linejoin:miter;stroke-opacity:1"/>
<path class="bond-24 atom-21 atom-24" d="M 78.3,218.9 L 73.3,205.6" style="fill:none;fill-rule:evenodd;stroke:#0000FF;stroke-width:2.0px;stroke-linecap:butt;stroke-linejoin:miter;stroke-opacity:1"/>
<path class="bond-24 atom-21 atom-24" d="M 73.3,205.6 L 68.2,192.2" style="fill:none;fill-rule:evenodd;stroke:#000000;stroke-width:2.0px;stroke-linecap:butt;stroke-linejoin:miter;stroke-opacity:1"/>
<path class="bond-25 atom-21 atom-29" d="M 74.7,235.3 L 66.7,245.2" style="fill:none;fill-rule:evenodd;stroke:#0000FF;stroke-width:2.0px;stroke-linecap:butt;stroke-linejoin:miter;stroke-opacity:1"/>
<path class="bond-25 atom-21 atom-29" d="M 66.7,245.2 L 58.6,255.1" style="fill:none;fill-rule:evenodd;stroke:#000000;stroke-width:2.0px;stroke-linecap:butt;stroke-linejoin:miter;stroke-opacity:1"/>
<path class="bond-26 atom-22 atom-25" d="M 417.7,271.4 L 436.3,264.3" style="fill:none;fill-rule:evenodd;stroke:#000000;stroke-width:2.0px;stroke-linecap:butt;stroke-linejoin:miter;stroke-opacity:1"/>
<path class="bond-27 atom-22 atom-26" d="M 382.0,285.0 L 362.7,292.4" style="fill:none;fill-rule:evenodd;stroke:#000000;stroke-width:2.0px;stroke-linecap:butt;stroke-linejoin:miter;stroke-opacity:1"/>
<path class="bond-28 atom-22 atom-30" d="M 403.0,286.3 L 413.3,313.3" style="fill:none;fill-rule:evenodd;stroke:#000000;stroke-width:2.0px;stroke-linecap:butt;stroke-linejoin:miter;stroke-opacity:1"/>
<path class="bond-29 atom-23 atom-27" d="M 422.5,207.5 L 441.7,223.1" style="fill:none;fill-rule:evenodd;stroke:#000000;stroke-width:2.0px;stroke-linecap:butt;stroke-linejoin:miter;stroke-opacity:1"/>
<path class="bond-30 atom-23 atom-28" d="M 402.6,191.3 L 382.8,175.2" style="fill:none;fill-rule:evenodd;stroke:#000000;stroke-width:2.0px;stroke-linecap:butt;stroke-linejoin:miter;stroke-opacity:1"/>
<path class="bond-31 atom-23 atom-31" d="M 419.1,191.3 L 435.0,171.7" style="fill:none;fill-rule:evenodd;stroke:#000000;stroke-width:2.0px;stroke-linecap:butt;stroke-linejoin:miter;stroke-opacity:1"/>
<path class="atom-0" d="M 207.0 249.0 Q 207.0 245.8, 208.5 244.1 Q 210.0 242.4, 212.9 242.4 Q 215.6 242.4, 217.0 244.3 L 215.8 245.3 Q 214.8 243.9, 212.9 243.9 Q 210.9 243.9, 209.9 245.2 Q 208.8 246.5, 208.8 249.0 Q 208.8 251.6, 209.9 252.9 Q 211.0 254.2, 213.1 254.2 Q 214.5 254.2, 216.2 253.4 L 216.7 254.8 Q 216.0 255.2, 215.0 255.5 Q 214.0 255.7, 212.8 255.7 Q 210.0 255.7, 208.5 254.0 Q 207.0 252.3, 207.0 249.0 " fill="#000000"/>
<path class="atom-0" d="M 217.8 253.4 L 219.6 253.4 L 219.6 255.2 L 217.8 255.2 L 217.8 253.4 M 217.8 247.1 L 219.6 247.1 L 219.6 248.9 L 217.8 248.9 L 217.8 247.1 " fill="#000000"/>
<path class="atom-0" d="M 221.7 254.1 L 224.6 254.1 L 224.6 244.3 L 221.4 245.3 L 221.0 244.2 L 225.0 242.4 L 226.3 242.7 L 226.3 254.1 L 228.9 254.1 L 228.9 255.6 L 221.7 255.6 L 221.7 254.1 " fill="#000000"/>
<path class="atom-1" d="M 253.7 249.8 L 258.0 256.7 Q 258.4 257.4, 259.1 258.6 Q 259.8 259.9, 259.8 259.9 L 259.8 249.8 L 261.6 249.8 L 261.6 262.9 L 259.8 262.9 L 255.2 255.3 Q 254.7 254.4, 254.1 253.4 Q 253.5 252.4, 253.4 252.1 L 253.4 262.9 L 251.7 262.9 L 251.7 249.8 L 253.7 249.8 " fill="#0000FF"/>
<path class="atom-1" d="M 263.1 260.7 L 264.9 260.7 L 264.9 262.5 L 263.1 262.5 L 263.1 260.7 M 263.1 254.4 L 264.9 254.4 L 264.9 256.2 L 263.1 256.2 L 263.1 254.4 " fill="#0000FF"/>
<path class="atom-1" d="M 266.4 252.3 Q 266.8 251.0, 268.0 250.4 Q 269.1 249.7, 270.7 249.7 Q 272.7 249.7, 273.8 250.7 Q 274.9 251.8, 274.9 253.7 Q 274.9 255.6, 273.5 257.4 Q 272.0 259.2, 269.1 261.4 L 275.1 261.4 L 275.1 262.9 L 266.3 262.9 L 266.3 261.6 Q 268.8 259.9, 270.2 258.6 Q 271.7 257.3, 272.4 256.2 Q 273.1 255.0, 273.1 253.8 Q 273.1 252.5, 272.4 251.8 Q 271.8 251.1, 270.7 251.1 Q 269.7 251.1, 269.0 251.6 Q 268.3 252.0, 267.8 252.9 L 266.4 252.3 " fill="#0000FF"/>
<path class="atom-2" d="M 281.1 220.6 Q 281.1 217.3, 282.6 215.6 Q 284.1 213.9, 287.0 213.9 Q 289.7 213.9, 291.1 215.8 L 289.9 216.8 Q 288.9 215.4, 287.0 215.4 Q 285.0 215.4, 284.0 216.8 Q 282.9 218.1, 282.9 220.6 Q 282.9 223.2, 284.0 224.5 Q 285.1 225.8, 287.2 225.8 Q 288.6 225.8, 290.3 224.9 L 290.8 226.3 Q 290.2 226.8, 289.1 227.0 Q 288.1 227.3, 286.9 227.3 Q 284.1 227.3, 282.6 225.6 Q 281.1 223.8, 281.1 220.6 " fill="#000000"/>
<path class="atom-2" d="M 291.9 225.0 L 293.7 225.0 L 293.7 226.8 L 291.9 226.8 L 291.9 225.0 M 291.9 218.6 L 293.7 218.6 L 293.7 220.5 L 291.9 220.5 L 291.9 218.6 " fill="#000000"/>
<path class="atom-2" d="M 301.4 220.2 Q 302.6 220.6, 303.2 221.4 Q 303.9 222.3, 303.9 223.5 Q 303.9 224.6, 303.3 225.5 Q 302.8 226.4, 301.7 226.8 Q 300.7 227.3, 299.4 227.3 Q 298.0 227.3, 297.0 226.8 Q 295.9 226.3, 295.1 225.3 L 296.1 224.3 Q 297.0 225.1, 297.6 225.5 Q 298.3 225.8, 299.4 225.8 Q 300.6 225.8, 301.3 225.2 Q 302.0 224.6, 302.0 223.5 Q 302.0 222.2, 301.3 221.6 Q 300.5 221.0, 298.9 221.0 L 298.0 221.0 L 298.0 219.7 L 298.8 219.7 Q 300.2 219.7, 301.0 219.0 Q 301.7 218.4, 301.7 217.3 Q 301.7 216.4, 301.1 215.9 Q 300.5 215.4, 299.4 215.4 Q 298.3 215.4, 297.7 215.8 Q 297.0 216.2, 296.5 217.1 L 295.2 216.5 Q 295.7 215.4, 296.8 214.7 Q 297.9 213.9, 299.4 213.9 Q 301.3 213.9, 302.5 214.8 Q 303.6 215.7, 303.6 217.3 Q 303.6 218.3, 303.0 219.1 Q 302.4 219.8, 301.4 220.2 " fill="#000000"/>
<path class="atom-3" d="M 318.9 227.9 Q 318.9 224.6, 320.4 222.9 Q 322.0 221.2, 324.8 221.2 Q 327.5 221.2, 329.0 223.1 L 327.8 224.1 Q 326.7 222.7, 324.8 222.7 Q 322.9 222.7, 321.8 224.1 Q 320.8 225.4, 320.8 227.9 Q 320.8 230.5, 321.9 231.8 Q 322.9 233.1, 325.0 233.1 Q 326.5 233.1, 328.2 232.2 L 328.7 233.6 Q 328.0 234.1, 327.0 234.3 Q 325.9 234.6, 324.8 234.6 Q 322.0 234.6, 320.4 232.9 Q 318.9 231.1, 318.9 227.9 " fill="#000000"/>
<path class="atom-3" d="M 329.7 232.3 L 331.6 232.3 L 331.6 234.1 L 329.7 234.1 L 329.7 232.3 M 329.7 225.9 L 331.6 225.9 L 331.6 227.8 L 329.7 227.8 L 329.7 225.9 " fill="#000000"/>
<path class="atom-3" d="M 341.4 229.9 L 343.0 229.9 L 343.0 231.4 L 341.4 231.4 L 341.4 234.4 L 339.7 234.4 L 339.7 231.4 L 332.9 231.4 L 332.9 230.3 L 338.6 221.4 L 341.4 221.4 L 341.4 229.9 M 335.1 229.9 L 339.7 229.9 L 339.7 222.6 L 335.1 229.9 " fill="#000000"/>
<path class="atom-4" d="M 274.8 299.4 Q 274.8 296.1, 276.3 294.4 Q 277.8 292.7, 280.7 292.7 Q 283.4 292.7, 284.8 294.6 L 283.6 295.6 Q 282.6 294.2, 280.7 294.2 Q 278.7 294.2, 277.7 295.6 Q 276.7 296.9, 276.7 299.4 Q 276.7 301.9, 277.7 303.3 Q 278.8 304.6, 280.9 304.6 Q 282.4 304.6, 284.0 303.7 L 284.6 305.1 Q 283.9 305.6, 282.8 305.8 Q 281.8 306.1, 280.7 306.1 Q 277.8 306.1, 276.3 304.3 Q 274.8 302.6, 274.8 299.4 " fill="#000000"/>
<path class="atom-4" d="M 285.6 303.8 L 287.4 303.8 L 287.4 305.6 L 285.6 305.6 L 285.6 303.8 M 285.6 297.4 L 287.4 297.4 L 287.4 299.3 L 285.6 299.3 L 285.6 297.4 " fill="#000000"/>
<path class="atom-4" d="M 293.5 297.7 Q 294.7 297.7, 295.6 298.2 Q 296.6 298.7, 297.1 299.6 Q 297.6 300.5, 297.6 301.8 Q 297.6 303.1, 297.0 304.1 Q 296.3 305.1, 295.3 305.6 Q 294.2 306.1, 293.0 306.1 Q 291.8 306.1, 290.7 305.6 Q 289.6 305.2, 288.8 304.3 L 289.9 303.2 Q 290.5 303.8, 291.4 304.2 Q 292.2 304.6, 293.0 304.6 Q 294.2 304.6, 295.0 303.8 Q 295.8 303.1, 295.8 301.8 Q 295.8 300.4, 295.0 299.8 Q 294.2 299.1, 292.9 299.1 Q 291.8 299.1, 290.5 299.6 L 289.5 299.1 L 290.1 292.9 L 296.8 292.9 L 296.6 294.3 L 291.6 294.3 L 291.2 298.2 Q 292.4 297.7, 293.5 297.7 " fill="#000000"/>
<path class="atom-5" d="M 255.4 177.5 Q 255.4 174.4, 256.9 172.6 Q 258.5 170.9, 261.4 170.9 Q 264.3 170.9, 265.8 172.6 Q 267.4 174.4, 267.4 177.5 Q 267.4 180.7, 265.8 182.5 Q 264.2 184.3, 261.4 184.3 Q 258.5 184.3, 256.9 182.5 Q 255.4 180.7, 255.4 177.5 M 261.4 182.8 Q 263.4 182.8, 264.4 181.5 Q 265.5 180.1, 265.5 177.5 Q 265.5 174.9, 264.4 173.7 Q 263.4 172.3, 261.4 172.3 Q 259.4 172.3, 258.3 173.6 Q 257.2 174.9, 257.2 177.5 Q 257.2 180.1, 258.3 181.5 Q 259.4 182.8, 261.4 182.8 " fill="#FF0000"/>
<path class="atom-5" d="M 268.3 181.9 L 270.1 181.9 L 270.1 183.8 L 268.3 183.8 L 268.3 181.9 M 268.3 175.6 L 270.1 175.6 L 270.1 177.4 L 268.3 177.4 L 268.3 175.6 " fill="#FF0000"/>
<path class="atom-5" d="M 276.6 175.9 Q 277.8 175.9, 278.7 176.4 Q 279.6 176.9, 280.1 177.8 Q 280.6 178.7, 280.6 179.9 Q 280.6 181.1, 280.0 182.1 Q 279.4 183.1, 278.5 183.7 Q 277.5 184.2, 276.2 184.2 Q 273.9 184.2, 272.7 182.7 Q 271.5 181.1, 271.5 177.9 Q 271.5 174.5, 273.0 172.7 Q 274.4 170.9, 277.2 170.9 Q 278.0 170.9, 278.7 171.1 Q 279.4 171.2, 280.1 171.6 L 279.3 172.9 Q 278.4 172.3, 277.2 172.3 Q 275.4 172.3, 274.4 173.5 Q 273.5 174.7, 273.4 177.2 Q 274.0 176.6, 274.9 176.3 Q 275.7 175.9, 276.6 175.9 M 276.2 182.7 Q 276.9 182.7, 277.5 182.3 Q 278.1 182.0, 278.4 181.3 Q 278.7 180.7, 278.7 179.9 Q 278.7 178.7, 278.1 178.1 Q 277.4 177.4, 276.3 177.4 Q 275.5 177.4, 274.7 177.7 Q 273.9 178.0, 273.4 178.6 Q 273.5 180.8, 274.1 181.7 Q 274.8 182.7, 276.2 182.7 " fill="#FF0000"/>
<path class="atom-6" d="M 177.5 284.8 Q 177.5 281.5, 179.0 279.8 Q 180.5 278.1, 183.4 278.1 Q 186.1 278.1, 187.6 280.0 L 186.3 281.0 Q 185.3 279.6, 183.4 279.6 Q 181.5 279.6, 180.4 280.9 Q 179.4 282.3, 179.4 284.8 Q 179.4 287.3, 180.4 288.7 Q 181.5 290.0, 183.6 290.0 Q 185.1 290.0, 186.7 289.1 L 187.3 290.5 Q 186.6 290.9, 185.5 291.2 Q 184.5 291.5, 183.4 291.5 Q 180.5 291.5, 179.0 289.7 Q 177.5 288.0, 177.5 284.8 " fill="#000000"/>
<path class="atom-6" d="M 188.3 289.1 L 190.1 289.1 L 190.1 291.0 L 188.3 291.0 L 188.3 289.1 M 188.3 282.8 L 190.1 282.8 L 190.1 284.6 L 188.3 284.6 L 188.3 282.8 " fill="#000000"/>
<path class="atom-6" d="M 198.4 279.7 L 191.5 279.7 L 191.5 278.3 L 200.2 278.3 L 200.2 279.6 L 194.9 291.3 L 193.1 291.3 L 198.4 279.7 " fill="#000000"/>
<path class="atom-7" d="M 115.3 234.4 Q 115.3 231.2, 116.8 229.5 Q 118.3 227.8, 121.2 227.8 Q 123.9 227.8, 125.4 229.6 L 124.2 230.6 Q 123.1 229.3, 121.2 229.3 Q 119.3 229.3, 118.2 230.6 Q 117.2 231.9, 117.2 234.4 Q 117.2 237.0, 118.3 238.3 Q 119.3 239.6, 121.4 239.6 Q 122.9 239.6, 124.6 238.8 L 125.1 240.2 Q 124.4 240.6, 123.4 240.9 Q 122.3 241.1, 121.2 241.1 Q 118.3 241.1, 116.8 239.4 Q 115.3 237.6, 115.3 234.4 " fill="#000000"/>
<path class="atom-7" d="M 126.1 238.8 L 127.9 238.8 L 127.9 240.6 L 126.1 240.6 L 126.1 238.8 M 126.1 232.5 L 127.9 232.5 L 127.9 234.3 L 126.1 234.3 L 126.1 232.5 " fill="#000000"/>
<path class="atom-7" d="M 136.0 234.0 Q 137.2 234.6, 137.9 235.3 Q 138.5 236.1, 138.5 237.4 Q 138.5 238.5, 138.0 239.3 Q 137.4 240.2, 136.4 240.7 Q 135.4 241.1, 134.0 241.1 Q 131.8 241.1, 130.6 240.1 Q 129.3 239.1, 129.3 237.4 Q 129.3 236.3, 129.9 235.5 Q 130.4 234.7, 131.6 234.1 Q 130.7 233.6, 130.3 232.9 Q 129.8 232.2, 129.8 231.1 Q 129.8 229.6, 130.9 228.7 Q 132.0 227.8, 133.9 227.8 Q 135.8 227.8, 136.9 228.7 Q 138.1 229.6, 138.1 231.1 Q 138.1 232.0, 137.5 232.8 Q 137.0 233.5, 136.0 234.0 M 133.9 229.1 Q 132.8 229.1, 132.2 229.6 Q 131.7 230.2, 131.7 231.1 Q 131.7 231.8, 132.1 232.2 Q 132.5 232.7, 133.0 232.9 Q 133.6 233.2, 134.7 233.6 Q 135.5 233.0, 135.9 232.4 Q 136.2 231.8, 136.2 231.1 Q 136.2 230.2, 135.6 229.6 Q 135.0 229.1, 133.9 229.1 M 134.0 239.7 Q 135.2 239.7, 136.0 239.1 Q 136.7 238.4, 136.7 237.4 Q 136.7 236.7, 136.3 236.2 Q 135.9 235.8, 135.3 235.5 Q 134.8 235.3, 133.7 234.9 L 132.9 234.6 Q 132.0 235.2, 131.6 235.9 Q 131.2 236.5, 131.2 237.4 Q 131.2 238.4, 131.9 239.1 Q 132.7 239.7, 134.0 239.7 " fill="#000000"/>
<path class="atom-8" d="M 131.8 277.5 Q 131.8 274.2, 133.3 272.5 Q 134.8 270.8, 137.7 270.8 Q 140.4 270.8, 141.9 272.7 L 140.7 273.7 Q 139.6 272.3, 137.7 272.3 Q 135.8 272.3, 134.7 273.6 Q 133.7 274.9, 133.7 277.5 Q 133.7 280.0, 134.8 281.4 Q 135.8 282.7, 137.9 282.7 Q 139.4 282.7, 141.1 281.8 L 141.6 283.2 Q 140.9 283.6, 139.9 283.9 Q 138.8 284.2, 137.7 284.2 Q 134.8 284.2, 133.3 282.4 Q 131.8 280.7, 131.8 277.5 " fill="#000000"/>
<path class="atom-8" d="M 142.6 281.8 L 144.4 281.8 L 144.4 283.7 L 142.6 283.7 L 142.6 281.8 M 142.6 275.5 L 144.4 275.5 L 144.4 277.3 L 142.6 277.3 L 142.6 275.5 " fill="#000000"/>
<path class="atom-8" d="M 150.2 270.8 Q 152.5 270.8, 153.7 272.4 Q 154.9 274.0, 154.9 277.1 Q 154.9 280.5, 153.4 282.4 Q 152.0 284.1, 149.2 284.1 Q 148.4 284.1, 147.7 284.0 Q 147.0 283.8, 146.3 283.4 L 147.1 282.2 Q 148.0 282.7, 149.2 282.7 Q 151.0 282.7, 152.0 281.5 Q 152.9 280.3, 153.0 277.8 Q 152.4 278.4, 151.5 278.8 Q 150.7 279.1, 149.8 279.1 Q 148.6 279.1, 147.7 278.6 Q 146.8 278.1, 146.3 277.2 Q 145.8 276.3, 145.8 275.1 Q 145.8 273.9, 146.4 272.9 Q 147.0 271.9, 148.0 271.4 Q 148.9 270.8, 150.2 270.8 M 147.7 275.1 Q 147.7 276.3, 148.3 277.0 Q 149.0 277.6, 150.1 277.6 Q 150.9 277.6, 151.7 277.3 Q 152.5 277.0, 153.0 276.4 Q 152.9 274.3, 152.3 273.3 Q 151.6 272.3, 150.2 272.3 Q 149.5 272.3, 148.9 272.7 Q 148.3 273.0, 148.0 273.7 Q 147.7 274.3, 147.7 275.1 " fill="#000000"/>
<path class="atom-9" d="M 139.9 198.7 Q 139.9 195.4, 141.4 193.7 Q 142.9 192.0, 145.8 192.0 Q 148.5 192.0, 150.0 193.9 L 148.7 194.9 Q 147.7 193.5, 145.8 193.5 Q 143.9 193.5, 142.8 194.8 Q 141.8 196.2, 141.8 198.7 Q 141.8 201.2, 142.8 202.6 Q 143.9 203.9, 146.0 203.9 Q 147.5 203.9, 149.1 203.0 L 149.7 204.4 Q 149.0 204.9, 147.9 205.1 Q 146.9 205.4, 145.8 205.4 Q 142.9 205.4, 141.4 203.6 Q 139.9 201.9, 139.9 198.7 " fill="#000000"/>
<path class="atom-9" d="M 150.7 203.0 L 152.5 203.0 L 152.5 204.9 L 150.7 204.9 L 150.7 203.0 M 150.7 196.7 L 152.5 196.7 L 152.5 198.5 L 150.7 198.5 L 150.7 196.7 " fill="#000000"/>
<path class="atom-9" d="M 154.6 203.7 L 157.5 203.7 L 157.5 194.0 L 154.3 195.0 L 153.9 193.9 L 157.9 192.1 L 159.2 192.3 L 159.2 203.7 L 161.8 203.7 L 161.8 205.2 L 154.6 205.2 L 154.6 203.7 " fill="#000000"/>
<path class="atom-9" d="M 167.3 205.4 Q 164.9 205.4, 163.7 203.6 Q 162.6 201.8, 162.6 198.7 Q 162.6 195.5, 163.7 193.8 Q 164.9 192.0, 167.3 192.0 Q 169.7 192.0, 170.9 193.8 Q 172.1 195.5, 172.1 198.7 Q 172.1 201.8, 170.9 203.6 Q 169.7 205.4, 167.3 205.4 M 167.3 203.9 Q 168.7 203.9, 169.5 202.6 Q 170.3 201.2, 170.3 198.7 Q 170.3 196.1, 169.5 194.8 Q 168.7 193.5, 167.3 193.5 Q 165.9 193.5, 165.2 194.8 Q 164.4 196.1, 164.4 198.7 Q 164.4 201.2, 165.2 202.6 Q 165.9 203.9, 167.3 203.9 " fill="#000000"/>
<path class="atom-10" d="M 186.2 206.0 Q 186.2 202.7, 187.7 201.0 Q 189.3 199.3, 192.2 199.3 Q 194.8 199.3, 196.3 201.2 L 195.1 202.2 Q 194.0 200.8, 192.2 200.8 Q 190.2 200.8, 189.1 202.2 Q 188.1 203.5, 188.1 206.0 Q 188.1 208.5, 189.2 209.9 Q 190.3 211.2, 192.4 211.2 Q 193.8 211.2, 195.5 210.3 L 196.0 211.7 Q 195.3 212.2, 194.3 212.4 Q 193.2 212.7, 192.1 212.7 Q 189.3 212.7, 187.7 210.9 Q 186.2 209.2, 186.2 206.0 " fill="#000000"/>
<path class="atom-10" d="M 197.0 210.4 L 198.9 210.4 L 198.9 212.2 L 197.0 212.2 L 197.0 210.4 M 197.0 204.0 L 198.9 204.0 L 198.9 205.9 L 197.0 205.9 L 197.0 204.0 " fill="#000000"/>
<path class="atom-10" d="M 201.0 211.0 L 203.8 211.0 L 203.8 201.3 L 200.7 202.3 L 200.2 201.2 L 204.2 199.4 L 205.6 199.6 L 205.6 211.0 L 208.1 211.0 L 208.1 212.5 L 201.0 212.5 L 201.0 211.0 " fill="#000000"/>
<path class="atom-10" d="M 209.6 211.0 L 212.5 211.0 L 212.5 201.3 L 209.3 202.3 L 208.9 201.2 L 212.9 199.4 L 214.2 199.6 L 214.2 211.0 L 216.8 211.0 L 216.8 212.5 L 209.6 212.5 L 209.6 211.0 " fill="#000000"/>
<path class="atom-11" d="M 208.7 309.3 L 210.5 309.3 L 210.5 314.8 L 217.2 314.8 L 217.2 309.3 L 218.9 309.3 L 218.9 322.3 L 217.2 322.3 L 217.2 316.3 L 210.5 316.3 L 210.5 322.3 L 208.7 322.3 L 208.7 309.3 " fill="#000000"/>
<path class="atom-11" d="M 220.5 320.2 L 222.3 320.2 L 222.3 322.0 L 220.5 322.0 L 220.5 320.2 M 220.5 313.8 L 222.3 313.8 L 222.3 315.7 L 220.5 315.7 L 220.5 313.8 " fill="#000000"/>
<path class="atom-11" d="M 224.4 320.9 L 227.3 320.9 L 227.3 311.1 L 224.2 312.1 L 223.7 311.0 L 227.7 309.2 L 229.0 309.4 L 229.0 320.9 L 231.6 320.9 L 231.6 322.3 L 224.4 322.3 L 224.4 320.9 " fill="#000000"/>
<path class="atom-11" d="M 232.4 311.8 Q 232.9 310.5, 234.0 309.8 Q 235.2 309.1, 236.8 309.1 Q 238.7 309.1, 239.8 310.2 Q 240.9 311.3, 240.9 313.2 Q 240.9 315.1, 239.5 316.9 Q 238.1 318.7, 235.1 320.9 L 241.2 320.9 L 241.2 322.3 L 232.4 322.3 L 232.4 321.1 Q 234.8 319.4, 236.2 318.1 Q 237.7 316.8, 238.4 315.6 Q 239.1 314.5, 239.1 313.3 Q 239.1 312.0, 238.5 311.3 Q 237.8 310.6, 236.8 310.6 Q 235.7 310.6, 235.0 311.0 Q 234.3 311.5, 233.8 312.4 L 232.4 311.8 " fill="#000000"/>
<path class="atom-12" d="M 310.9 283.9 L 312.7 283.9 L 312.7 289.5 L 319.4 289.5 L 319.4 283.9 L 321.2 283.9 L 321.2 297.0 L 319.4 297.0 L 319.4 290.9 L 312.7 290.9 L 312.7 297.0 L 310.9 297.0 L 310.9 283.9 " fill="#000000"/>
<path class="atom-12" d="M 322.7 294.8 L 324.6 294.8 L 324.6 296.6 L 322.7 296.6 L 322.7 294.8 M 322.7 288.5 L 324.6 288.5 L 324.6 290.3 L 322.7 290.3 L 322.7 288.5 " fill="#000000"/>
<path class="atom-12" d="M 326.7 295.5 L 329.5 295.5 L 329.5 285.7 L 326.4 286.7 L 325.9 285.6 L 329.9 283.8 L 331.3 284.1 L 331.3 295.5 L 333.8 295.5 L 333.8 297.0 L 326.7 297.0 L 326.7 295.5 " fill="#000000"/>
<path class="atom-12" d="M 340.9 290.1 Q 342.1 290.5, 342.7 291.3 Q 343.4 292.1, 343.4 293.4 Q 343.4 294.5, 342.8 295.4 Q 342.3 296.2, 341.2 296.7 Q 340.2 297.1, 338.9 297.1 Q 337.5 297.1, 336.4 296.7 Q 335.4 296.2, 334.6 295.2 L 335.6 294.1 Q 336.4 295.0, 337.1 295.3 Q 337.8 295.7, 338.9 295.7 Q 340.1 295.7, 340.8 295.0 Q 341.5 294.4, 341.5 293.4 Q 341.5 292.0, 340.8 291.5 Q 340.0 290.8, 338.4 290.8 L 337.5 290.8 L 337.5 289.5 L 338.3 289.5 Q 339.7 289.5, 340.5 288.9 Q 341.2 288.3, 341.2 287.1 Q 341.2 286.3, 340.6 285.8 Q 340.0 285.2, 338.9 285.2 Q 337.8 285.2, 337.1 285.6 Q 336.5 286.0, 336.0 287.0 L 334.7 286.3 Q 335.2 285.2, 336.3 284.5 Q 337.4 283.8, 338.9 283.8 Q 340.8 283.8, 342.0 284.7 Q 343.1 285.6, 343.1 287.1 Q 343.1 288.2, 342.5 288.9 Q 341.9 289.7, 340.9 290.1 " fill="#000000"/>
<path class="atom-13" d="M 291.1 335.9 L 292.9 335.9 L 292.9 341.4 L 299.6 341.4 L 299.6 335.9 L 301.3 335.9 L 301.3 348.9 L 299.6 348.9 L 299.6 342.9 L 292.9 342.9 L 292.9 348.9 L 291.1 348.9 L 291.1 335.9 " fill="#000000"/>
<path class="atom-13" d="M 302.9 346.8 L 304.7 346.8 L 304.7 348.6 L 302.9 348.6 L 302.9 346.8 M 302.9 340.4 L 304.7 340.4 L 304.7 342.3 L 302.9 342.3 L 302.9 340.4 " fill="#000000"/>
<path class="atom-13" d="M 306.8 347.4 L 309.7 347.4 L 309.7 337.7 L 306.6 338.7 L 306.1 337.6 L 310.1 335.8 L 311.4 336.0 L 311.4 347.4 L 314.0 347.4 L 314.0 348.9 L 306.8 348.9 L 306.8 347.4 " fill="#000000"/>
<path class="atom-13" d="M 323.3 344.4 L 324.8 344.4 L 324.8 345.9 L 323.3 345.9 L 323.3 348.9 L 321.5 348.9 L 321.5 345.9 L 314.8 345.9 L 314.8 344.8 L 320.5 335.9 L 323.3 335.9 L 323.3 344.4 M 316.9 344.4 L 321.5 344.4 L 321.5 337.1 L 316.9 344.4 " fill="#000000"/>
<path class="atom-14" d="M 369.5 228.6 L 373.7 235.6 Q 374.2 236.2, 374.8 237.5 Q 375.5 238.7, 375.6 238.8 L 375.6 228.6 L 377.3 228.6 L 377.3 241.7 L 375.5 241.7 L 370.9 234.1 Q 370.4 233.3, 369.8 232.2 Q 369.2 231.2, 369.1 230.9 L 369.1 241.7 L 367.4 241.7 L 367.4 228.6 L 369.5 228.6 " fill="#0000FF"/>
<path class="atom-14" d="M 378.8 239.5 L 380.7 239.5 L 380.7 241.4 L 378.8 241.4 L 378.8 239.5 M 378.8 233.2 L 380.7 233.2 L 380.7 235.0 L 378.8 235.0 L 378.8 233.2 " fill="#0000FF"/>
<path class="atom-14" d="M 382.8 240.2 L 385.6 240.2 L 385.6 230.5 L 382.5 231.4 L 382.0 230.4 L 386.0 228.6 L 387.3 228.8 L 387.3 240.2 L 389.9 240.2 L 389.9 241.7 L 382.8 241.7 L 382.8 240.2 " fill="#0000FF"/>
<path class="atom-14" d="M 395.4 233.5 Q 396.6 233.5, 397.5 234.0 Q 398.4 234.5, 399.0 235.4 Q 399.5 236.3, 399.5 237.6 Q 399.5 238.9, 398.8 239.9 Q 398.2 240.8, 397.1 241.3 Q 396.1 241.8, 394.8 241.8 Q 393.7 241.8, 392.5 241.4 Q 391.4 241.0, 390.7 240.1 L 391.8 239.0 Q 392.4 239.6, 393.2 240.0 Q 394.1 240.3, 394.9 240.3 Q 396.1 240.3, 396.9 239.6 Q 397.7 238.9, 397.7 237.6 Q 397.7 236.2, 396.9 235.6 Q 396.1 234.9, 394.8 234.9 Q 393.7 234.9, 392.4 235.4 L 391.4 234.9 L 392.0 228.6 L 398.7 228.6 L 398.5 230.1 L 393.5 230.1 L 393.1 234.0 Q 394.3 233.5, 395.4 233.5 " fill="#0000FF"/>
<path class="atom-15" d="M 331.5 258.7 L 333.2 258.7 L 333.2 264.2 L 339.9 264.2 L 339.9 258.7 L 341.7 258.7 L 341.7 271.7 L 339.9 271.7 L 339.9 265.7 L 333.2 265.7 L 333.2 271.7 L 331.5 271.7 L 331.5 258.7 " fill="#000000"/>
<path class="atom-15" d="M 343.2 269.6 L 345.1 269.6 L 345.1 271.4 L 343.2 271.4 L 343.2 269.6 M 343.2 263.2 L 345.1 263.2 L 345.1 265.1 L 343.2 265.1 L 343.2 263.2 " fill="#000000"/>
<path class="atom-15" d="M 347.2 270.2 L 350.0 270.2 L 350.0 260.5 L 346.9 261.5 L 346.5 260.4 L 350.5 258.6 L 351.8 258.8 L 351.8 270.2 L 354.3 270.2 L 354.3 271.7 L 347.2 271.7 L 347.2 270.2 " fill="#000000"/>
<path class="atom-15" d="M 360.2 263.6 Q 361.4 263.6, 362.3 264.1 Q 363.2 264.6, 363.7 265.5 Q 364.2 266.4, 364.2 267.5 Q 364.2 268.8, 363.6 269.8 Q 363.0 270.8, 362.0 271.3 Q 361.1 271.9, 359.8 271.9 Q 357.5 271.9, 356.3 270.3 Q 355.1 268.7, 355.1 265.6 Q 355.1 262.1, 356.6 260.3 Q 358.0 258.5, 360.8 258.5 Q 361.6 258.5, 362.3 258.7 Q 363.0 258.9, 363.7 259.3 L 362.9 260.5 Q 362.0 260.0, 360.8 260.0 Q 359.0 260.0, 358.0 261.2 Q 357.1 262.4, 357.0 264.8 Q 357.6 264.2, 358.5 263.9 Q 359.3 263.6, 360.2 263.6 M 359.8 270.4 Q 360.5 270.4, 361.1 270.0 Q 361.7 269.6, 362.0 269.0 Q 362.3 268.3, 362.3 267.5 Q 362.3 266.4, 361.7 265.7 Q 361.0 265.0, 359.9 265.0 Q 359.1 265.0, 358.3 265.4 Q 357.5 265.7, 357.0 266.2 Q 357.1 268.4, 357.7 269.4 Q 358.4 270.4, 359.8 270.4 " fill="#000000"/>
<path class="atom-16" d="M 340.2 175.8 L 341.9 175.8 L 341.9 181.4 L 348.6 181.4 L 348.6 175.8 L 350.4 175.8 L 350.4 188.9 L 348.6 188.9 L 348.6 182.9 L 341.9 182.9 L 341.9 188.9 L 340.2 188.9 L 340.2 175.8 " fill="#000000"/>
<path class="atom-16" d="M 351.9 186.7 L 353.8 186.7 L 353.8 188.6 L 351.9 188.6 L 351.9 186.7 M 351.9 180.4 L 353.8 180.4 L 353.8 182.2 L 351.9 182.2 L 351.9 180.4 " fill="#000000"/>
<path class="atom-16" d="M 355.9 187.4 L 358.7 187.4 L 358.7 177.7 L 355.6 178.6 L 355.2 177.6 L 359.2 175.8 L 360.5 176.0 L 360.5 187.4 L 363.0 187.4 L 363.0 188.9 L 355.9 188.9 L 355.9 187.4 " fill="#000000"/>
<path class="atom-16" d="M 370.6 177.3 L 363.8 177.3 L 363.8 175.8 L 372.5 175.8 L 372.5 177.2 L 367.2 188.9 L 365.4 188.9 L 370.6 177.3 " fill="#000000"/>
<path class="atom-17" d="M 200.1 321.3 L 201.9 321.3 L 201.9 326.8 L 208.6 326.8 L 208.6 321.3 L 210.4 321.3 L 210.4 334.3 L 208.6 334.3 L 208.6 328.3 L 201.9 328.3 L 201.9 334.3 L 200.1 334.3 L 200.1 321.3 " fill="#000000"/>
<path class="atom-17" d="M 211.9 332.2 L 213.8 332.2 L 213.8 334.0 L 211.9 334.0 L 211.9 332.2 M 211.9 325.9 L 213.8 325.9 L 213.8 327.7 L 211.9 327.7 L 211.9 325.9 " fill="#000000"/>
<path class="atom-17" d="M 215.9 332.9 L 218.7 332.9 L 218.7 323.1 L 215.6 324.1 L 215.1 323.0 L 219.1 321.2 L 220.5 321.4 L 220.5 332.9 L 223.0 332.9 L 223.0 334.3 L 215.9 334.3 L 215.9 332.9 " fill="#000000"/>
<path class="atom-17" d="M 230.4 327.4 Q 231.6 328.0, 232.3 328.7 Q 233.0 329.5, 233.0 330.8 Q 233.0 331.9, 232.4 332.7 Q 231.9 333.6, 230.8 334.1 Q 229.8 334.5, 228.5 334.5 Q 226.3 334.5, 225.0 333.5 Q 223.8 332.5, 223.8 330.8 Q 223.8 329.7, 224.3 328.9 Q 224.9 328.1, 226.0 327.5 Q 225.2 327.0, 224.7 326.3 Q 224.3 325.6, 224.3 324.5 Q 224.3 323.0, 225.4 322.1 Q 226.5 321.2, 228.4 321.2 Q 230.3 321.2, 231.4 322.1 Q 232.5 323.0, 232.5 324.5 Q 232.5 325.4, 232.0 326.2 Q 231.5 326.9, 230.4 327.4 M 228.4 322.5 Q 227.3 322.5, 226.7 323.1 Q 226.1 323.6, 226.1 324.5 Q 226.1 325.2, 226.5 325.6 Q 226.9 326.1, 227.5 326.3 Q 228.1 326.6, 229.2 327.0 Q 230.0 326.4, 230.3 325.8 Q 230.7 325.2, 230.7 324.5 Q 230.7 323.6, 230.1 323.1 Q 229.5 322.5, 228.4 322.5 M 228.5 333.2 Q 229.7 333.2, 230.4 332.5 Q 231.2 331.8, 231.2 330.8 Q 231.2 330.1, 230.8 329.6 Q 230.4 329.2, 229.8 328.9 Q 229.2 328.7, 228.2 328.3 L 227.4 328.0 Q 226.4 328.6, 226.0 329.3 Q 225.6 329.9, 225.6 330.8 Q 225.6 331.8, 226.4 332.5 Q 227.2 333.2, 228.5 333.2 " fill="#000000"/>
<path class="atom-18" d="M 86.1 306.7 L 87.9 306.7 L 87.9 312.2 L 94.5 312.2 L 94.5 306.7 L 96.3 306.7 L 96.3 319.7 L 94.5 319.7 L 94.5 313.7 L 87.9 313.7 L 87.9 319.7 L 86.1 319.7 L 86.1 306.7 " fill="#000000"/>
<path class="atom-18" d="M 97.9 317.6 L 99.7 317.6 L 99.7 319.4 L 97.9 319.4 L 97.9 317.6 M 97.9 311.2 L 99.7 311.2 L 99.7 313.1 L 97.9 313.1 L 97.9 311.2 " fill="#000000"/>
<path class="atom-18" d="M 101.8 318.3 L 104.7 318.3 L 104.7 308.5 L 101.5 309.5 L 101.1 308.4 L 105.1 306.6 L 106.4 306.8 L 106.4 318.3 L 109.0 318.3 L 109.0 319.7 L 101.8 319.7 L 101.8 318.3 " fill="#000000"/>
<path class="atom-18" d="M 114.1 306.5 Q 116.5 306.5, 117.6 308.1 Q 118.8 309.7, 118.8 312.8 Q 118.8 316.3, 117.3 318.1 Q 115.9 319.9, 113.1 319.9 Q 112.3 319.9, 111.6 319.7 Q 110.9 319.5, 110.3 319.1 L 111.0 317.9 Q 111.9 318.4, 113.1 318.4 Q 114.9 318.4, 115.9 317.2 Q 116.8 316.0, 116.9 313.6 Q 116.3 314.2, 115.4 314.5 Q 114.6 314.8, 113.7 314.8 Q 112.5 314.8, 111.6 314.3 Q 110.7 313.8, 110.2 312.9 Q 109.7 312.0, 109.7 310.9 Q 109.7 309.6, 110.3 308.6 Q 110.9 307.6, 111.9 307.1 Q 112.9 306.5, 114.1 306.5 M 111.6 310.9 Q 111.6 312.0, 112.2 312.7 Q 112.9 313.4, 114.0 313.4 Q 114.8 313.4, 115.6 313.0 Q 116.4 312.7, 116.9 312.2 Q 116.9 310.0, 116.2 309.0 Q 115.5 308.1, 114.1 308.1 Q 113.4 308.1, 112.8 308.4 Q 112.3 308.8, 111.9 309.4 Q 111.6 310.1, 111.6 310.9 " fill="#000000"/>
<path class="atom-19" d="M 109.9 149.1 L 111.7 149.1 L 111.7 154.7 L 118.3 154.7 L 118.3 149.1 L 120.1 149.1 L 120.1 162.2 L 118.3 162.2 L 118.3 156.1 L 111.7 156.1 L 111.7 162.2 L 109.9 162.2 L 109.9 149.1 " fill="#000000"/>
<path class="atom-19" d="M 121.7 160.0 L 123.5 160.0 L 123.5 161.8 L 121.7 161.8 L 121.7 160.0 M 121.7 153.7 L 123.5 153.7 L 123.5 155.5 L 121.7 155.5 L 121.7 153.7 " fill="#000000"/>
<path class="atom-19" d="M 124.9 151.6 Q 125.4 150.3, 126.6 149.7 Q 127.7 149.0, 129.3 149.0 Q 131.3 149.0, 132.4 150.0 Q 133.5 151.1, 133.5 153.0 Q 133.5 154.9, 132.0 156.7 Q 130.6 158.5, 127.7 160.7 L 133.7 160.7 L 133.7 162.2 L 124.9 162.2 L 124.9 160.9 Q 127.3 159.2, 128.8 157.9 Q 130.2 156.6, 130.9 155.4 Q 131.6 154.3, 131.6 153.1 Q 131.6 151.8, 131.0 151.1 Q 130.4 150.4, 129.3 150.4 Q 128.2 150.4, 127.5 150.9 Q 126.8 151.3, 126.3 152.2 L 124.9 151.6 " fill="#000000"/>
<path class="atom-19" d="M 139.6 162.3 Q 137.2 162.3, 136.0 160.5 Q 134.8 158.8, 134.8 155.6 Q 134.8 152.5, 136.0 150.7 Q 137.2 149.0, 139.6 149.0 Q 142.0 149.0, 143.2 150.7 Q 144.4 152.5, 144.4 155.6 Q 144.4 158.8, 143.2 160.5 Q 142.0 162.3, 139.6 162.3 M 139.6 160.8 Q 141.0 160.8, 141.8 159.5 Q 142.5 158.2, 142.5 155.6 Q 142.5 153.0, 141.8 151.7 Q 141.0 150.4, 139.6 150.4 Q 138.2 150.4, 137.4 151.7 Q 136.6 153.0, 136.6 155.6 Q 136.6 158.2, 137.4 159.5 Q 138.2 160.8, 139.6 160.8 " fill="#000000"/>
<path class="atom-20" d="M 225.5 163.7 L 227.2 163.7 L 227.2 169.3 L 233.9 169.3 L 233.9 163.7 L 235.7 163.7 L 235.7 176.8 L 233.9 176.8 L 233.9 170.7 L 227.2 170.7 L 227.2 176.8 L 225.5 176.8 L 225.5 163.7 " fill="#000000"/>
<path class="atom-20" d="M 237.2 174.6 L 239.1 174.6 L 239.1 176.5 L 237.2 176.5 L 237.2 174.6 M 237.2 168.3 L 239.1 168.3 L 239.1 170.1 L 237.2 170.1 L 237.2 168.3 " fill="#000000"/>
<path class="atom-20" d="M 240.5 166.2 Q 241.0 165.0, 242.1 164.3 Q 243.3 163.6, 244.8 163.6 Q 246.8 163.6, 247.9 164.6 Q 249.0 165.7, 249.0 167.6 Q 249.0 169.5, 247.6 171.3 Q 246.2 173.2, 243.2 175.3 L 249.2 175.3 L 249.2 176.8 L 240.5 176.8 L 240.5 175.5 Q 242.9 173.8, 244.3 172.5 Q 245.8 171.2, 246.5 170.1 Q 247.2 168.9, 247.2 167.7 Q 247.2 166.4, 246.6 165.7 Q 245.9 165.0, 244.8 165.0 Q 243.8 165.0, 243.1 165.5 Q 242.4 165.9, 241.9 166.8 L 240.5 166.2 " fill="#000000"/>
<path class="atom-20" d="M 251.1 175.3 L 253.9 175.3 L 253.9 165.5 L 250.8 166.5 L 250.4 165.4 L 254.4 163.6 L 255.7 163.9 L 255.7 175.3 L 258.2 175.3 L 258.2 176.8 L 251.1 176.8 L 251.1 175.3 " fill="#000000"/>
<path class="atom-21" d="M 66.8 220.6 L 71.1 227.5 Q 71.5 228.2, 72.2 229.4 Q 72.9 230.7, 72.9 230.7 L 72.9 220.6 L 74.7 220.6 L 74.7 233.6 L 72.9 233.6 L 68.3 226.1 Q 67.7 225.2, 67.2 224.2 Q 66.6 223.2, 66.5 222.9 L 66.5 233.6 L 64.8 233.6 L 64.8 220.6 L 66.8 220.6 " fill="#0000FF"/>
<path class="atom-21" d="M 76.2 231.5 L 78.0 231.5 L 78.0 233.3 L 76.2 233.3 L 76.2 231.5 M 76.2 225.1 L 78.0 225.1 L 78.0 227.0 L 76.2 227.0 L 76.2 225.1 " fill="#0000FF"/>
<path class="atom-21" d="M 79.5 223.1 Q 79.9 221.8, 81.1 221.1 Q 82.2 220.4, 83.8 220.4 Q 85.8 220.4, 86.9 221.5 Q 88.0 222.6, 88.0 224.5 Q 88.0 226.4, 86.5 228.2 Q 85.1 230.0, 82.2 232.2 L 88.2 232.2 L 88.2 233.6 L 79.4 233.6 L 79.4 232.4 Q 81.8 230.7, 83.3 229.4 Q 84.7 228.1, 85.4 226.9 Q 86.1 225.8, 86.1 224.6 Q 86.1 223.3, 85.5 222.6 Q 84.9 221.9, 83.8 221.9 Q 82.8 221.9, 82.1 222.3 Q 81.4 222.8, 80.9 223.7 L 79.5 223.1 " fill="#0000FF"/>
<path class="atom-21" d="M 89.3 223.1 Q 89.8 221.8, 91.0 221.1 Q 92.1 220.4, 93.7 220.4 Q 95.7 220.4, 96.8 221.5 Q 97.9 222.6, 97.9 224.5 Q 97.9 226.4, 96.4 228.2 Q 95.0 230.0, 92.1 232.2 L 98.1 232.2 L 98.1 233.6 L 89.3 233.6 L 89.3 232.4 Q 91.7 230.7, 93.2 229.4 Q 94.6 228.1, 95.3 226.9 Q 96.0 225.8, 96.0 224.6 Q 96.0 223.3, 95.4 222.6 Q 94.8 221.9, 93.7 221.9 Q 92.6 221.9, 91.9 222.3 Q 91.2 222.8, 90.7 223.7 L 89.3 223.1 " fill="#0000FF"/>
<path class="atom-22" d="M 383.5 278.2 Q 383.5 275.0, 385.0 273.3 Q 386.6 271.6, 389.5 271.6 Q 392.1 271.6, 393.6 273.5 L 392.4 274.5 Q 391.3 273.1, 389.5 273.1 Q 387.5 273.1, 386.4 274.4 Q 385.4 275.7, 385.4 278.2 Q 385.4 280.8, 386.5 282.1 Q 387.6 283.5, 389.7 283.5 Q 391.1 283.5, 392.8 282.6 L 393.3 284.0 Q 392.6 284.4, 391.6 284.7 Q 390.5 284.9, 389.4 284.9 Q 386.6 284.9, 385.0 283.2 Q 383.5 281.5, 383.5 278.2 " fill="#000000"/>
<path class="atom-22" d="M 394.3 282.6 L 396.2 282.6 L 396.2 284.5 L 394.3 284.5 L 394.3 282.6 M 394.3 276.3 L 396.2 276.3 L 396.2 278.1 L 394.3 278.1 L 394.3 276.3 " fill="#000000"/>
<path class="atom-22" d="M 397.6 274.2 Q 398.1 273.0, 399.2 272.3 Q 400.3 271.6, 401.9 271.6 Q 403.9 271.6, 405.0 272.7 Q 406.1 273.7, 406.1 275.6 Q 406.1 277.6, 404.7 279.4 Q 403.3 281.2, 400.3 283.3 L 406.3 283.3 L 406.3 284.8 L 397.5 284.8 L 397.5 283.5 Q 400.0 281.8, 401.4 280.5 Q 402.9 279.2, 403.6 278.1 Q 404.3 276.9, 404.3 275.7 Q 404.3 274.5, 403.6 273.8 Q 403.0 273.1, 401.9 273.1 Q 400.9 273.1, 400.2 273.5 Q 399.5 273.9, 399.0 274.8 L 397.6 274.2 " fill="#000000"/>
<path class="atom-22" d="M 413.7 277.9 Q 415.0 278.3, 415.6 279.1 Q 416.2 279.9, 416.2 281.2 Q 416.2 282.3, 415.7 283.2 Q 415.1 284.0, 414.1 284.5 Q 413.1 285.0, 411.8 285.0 Q 410.4 285.0, 409.3 284.5 Q 408.3 284.0, 407.4 283.0 L 408.5 281.9 Q 409.3 282.8, 410.0 283.2 Q 410.7 283.5, 411.8 283.5 Q 412.9 283.5, 413.7 282.9 Q 414.4 282.2, 414.4 281.2 Q 414.4 279.9, 413.6 279.3 Q 412.9 278.7, 411.3 278.7 L 410.3 278.7 L 410.3 277.3 L 411.2 277.3 Q 412.6 277.3, 413.3 276.7 Q 414.1 276.1, 414.1 274.9 Q 414.1 274.1, 413.5 273.6 Q 412.8 273.1, 411.8 273.1 Q 410.7 273.1, 410.0 273.4 Q 409.3 273.8, 408.8 274.8 L 407.6 274.1 Q 408.0 273.0, 409.1 272.3 Q 410.2 271.6, 411.8 271.6 Q 413.7 271.6, 414.8 272.5 Q 415.9 273.4, 415.9 274.9 Q 415.9 276.0, 415.4 276.7 Q 414.8 277.5, 413.7 277.9 " fill="#000000"/>
<path class="atom-23" d="M 395.5 199.4 Q 395.5 196.2, 397.0 194.5 Q 398.6 192.8, 401.5 192.8 Q 404.2 192.8, 405.6 194.7 L 404.4 195.7 Q 403.3 194.3, 401.5 194.3 Q 399.5 194.3, 398.5 195.6 Q 397.4 196.9, 397.4 199.4 Q 397.4 202.0, 398.5 203.3 Q 399.6 204.7, 401.7 204.7 Q 403.1 204.7, 404.8 203.8 L 405.3 205.2 Q 404.6 205.6, 403.6 205.9 Q 402.6 206.2, 401.4 206.2 Q 398.6 206.2, 397.0 204.4 Q 395.5 202.7, 395.5 199.4 " fill="#000000"/>
<path class="atom-23" d="M 406.3 203.8 L 408.2 203.8 L 408.2 205.7 L 406.3 205.7 L 406.3 203.8 M 406.3 197.5 L 408.2 197.5 L 408.2 199.3 L 406.3 199.3 L 406.3 197.5 " fill="#000000"/>
<path class="atom-23" d="M 409.6 195.4 Q 410.1 194.2, 411.2 193.5 Q 412.4 192.8, 413.9 192.8 Q 415.9 192.8, 417.0 193.9 Q 418.1 194.9, 418.1 196.8 Q 418.1 198.8, 416.7 200.6 Q 415.3 202.4, 412.3 204.5 L 418.4 204.5 L 418.4 206.0 L 409.6 206.0 L 409.6 204.7 Q 412.0 203.0, 413.4 201.7 Q 414.9 200.4, 415.6 199.3 Q 416.3 198.1, 416.3 196.9 Q 416.3 195.7, 415.7 195.0 Q 415.0 194.3, 413.9 194.3 Q 412.9 194.3, 412.2 194.7 Q 411.5 195.1, 411.0 196.1 L 409.6 195.4 " fill="#000000"/>
<path class="atom-23" d="M 427.9 201.5 L 429.5 201.5 L 429.5 203.0 L 427.9 203.0 L 427.9 206.0 L 426.2 206.0 L 426.2 203.0 L 419.5 203.0 L 419.5 201.8 L 425.2 192.9 L 427.9 192.9 L 427.9 201.5 M 421.6 201.5 L 426.2 201.5 L 426.2 194.1 L 421.6 201.5 " fill="#000000"/>
<path class="atom-24" d="M 35.7 177.5 L 37.5 177.5 L 37.5 183.1 L 44.1 183.1 L 44.1 177.5 L 45.9 177.5 L 45.9 190.6 L 44.1 190.6 L 44.1 184.6 L 37.5 184.6 L 37.5 190.6 L 35.7 190.6 L 35.7 177.5 " fill="#000000"/>
<path class="atom-24" d="M 47.5 188.4 L 49.3 188.4 L 49.3 190.3 L 47.5 190.3 L 47.5 188.4 M 47.5 182.1 L 49.3 182.1 L 49.3 183.9 L 47.5 183.9 L 47.5 182.1 " fill="#000000"/>
<path class="atom-24" d="M 50.7 180.0 Q 51.2 178.8, 52.4 178.1 Q 53.5 177.4, 55.1 177.4 Q 57.1 177.4, 58.2 178.5 Q 59.3 179.5, 59.3 181.4 Q 59.3 183.4, 57.8 185.2 Q 56.4 187.0, 53.5 189.1 L 59.5 189.1 L 59.5 190.6 L 50.7 190.6 L 50.7 189.4 Q 53.1 187.6, 54.6 186.3 Q 56.0 185.0, 56.7 183.9 Q 57.4 182.7, 57.4 181.5 Q 57.4 180.3, 56.8 179.6 Q 56.2 178.9, 55.1 178.9 Q 54.0 178.9, 53.3 179.3 Q 52.6 179.7, 52.1 180.7 L 50.7 180.0 " fill="#000000"/>
<path class="atom-24" d="M 65.3 182.4 Q 66.5 182.4, 67.4 182.9 Q 68.4 183.4, 68.9 184.3 Q 69.4 185.2, 69.4 186.5 Q 69.4 187.8, 68.8 188.8 Q 68.1 189.7, 67.1 190.2 Q 66.0 190.7, 64.8 190.7 Q 63.6 190.7, 62.5 190.3 Q 61.4 189.9, 60.6 189.0 L 61.7 187.9 Q 62.3 188.5, 63.1 188.9 Q 64.0 189.2, 64.8 189.2 Q 66.0 189.2, 66.8 188.5 Q 67.6 187.8, 67.6 186.5 Q 67.6 185.1, 66.8 184.5 Q 66.0 183.8, 64.7 183.8 Q 63.6 183.8, 62.3 184.3 L 61.3 183.8 L 61.9 177.5 L 68.6 177.5 L 68.4 179.0 L 63.4 179.0 L 63.0 182.9 Q 64.2 182.4, 65.3 182.4 " fill="#000000"/>
<path class="atom-25" d="M 437.8 255.3 L 439.6 255.3 L 439.6 260.9 L 446.3 260.9 L 446.3 255.3 L 448.0 255.3 L 448.0 268.4 L 446.3 268.4 L 446.3 262.3 L 439.6 262.3 L 439.6 268.4 L 437.8 268.4 L 437.8 255.3 " fill="#000000"/>
<path class="atom-25" d="M 449.6 266.2 L 451.4 266.2 L 451.4 268.0 L 449.6 268.0 L 449.6 266.2 M 449.6 259.9 L 451.4 259.9 L 451.4 261.7 L 449.6 261.7 L 449.6 259.9 " fill="#000000"/>
<path class="atom-25" d="M 452.9 257.8 Q 453.3 256.5, 454.5 255.9 Q 455.6 255.2, 457.2 255.2 Q 459.2 255.2, 460.3 256.2 Q 461.4 257.3, 461.4 259.2 Q 461.4 261.1, 459.9 262.9 Q 458.5 264.7, 455.6 266.9 L 461.6 266.9 L 461.6 268.4 L 452.8 268.4 L 452.8 267.1 Q 455.2 265.4, 456.7 264.1 Q 458.1 262.8, 458.8 261.6 Q 459.5 260.5, 459.5 259.3 Q 459.5 258.0, 458.9 257.3 Q 458.3 256.6, 457.2 256.6 Q 456.1 256.6, 455.4 257.1 Q 454.7 257.5, 454.3 258.4 L 452.9 257.8 " fill="#000000"/>
<path class="atom-25" d="M 467.8 260.2 Q 469.0 260.2, 469.9 260.7 Q 470.8 261.2, 471.3 262.1 Q 471.8 263.0, 471.8 264.2 Q 471.8 265.4, 471.2 266.4 Q 470.6 267.4, 469.6 268.0 Q 468.6 268.5, 467.4 268.5 Q 465.1 268.5, 463.9 266.9 Q 462.7 265.4, 462.7 262.2 Q 462.7 258.8, 464.1 257.0 Q 465.6 255.2, 468.4 255.2 Q 469.2 255.2, 469.9 255.3 Q 470.6 255.5, 471.2 255.9 L 470.5 257.2 Q 469.6 256.6, 468.4 256.6 Q 466.6 256.6, 465.6 257.8 Q 464.7 259.0, 464.6 261.5 Q 465.2 260.9, 466.1 260.5 Q 466.9 260.2, 467.8 260.2 M 467.4 267.0 Q 468.1 267.0, 468.7 266.6 Q 469.3 266.3, 469.6 265.6 Q 469.9 265.0, 469.9 264.2 Q 469.9 263.0, 469.3 262.3 Q 468.6 261.7, 467.5 261.7 Q 466.7 261.7, 465.9 262.0 Q 465.1 262.3, 464.6 262.9 Q 464.6 265.0, 465.3 266.0 Q 466.0 267.0, 467.4 267.0 " fill="#000000"/>
<path class="atom-26" d="M 327.6 288.1 L 329.4 288.1 L 329.4 293.7 L 336.0 293.7 L 336.0 288.1 L 337.8 288.1 L 337.8 301.2 L 336.0 301.2 L 336.0 295.2 L 329.4 295.2 L 329.4 301.2 L 327.6 301.2 L 327.6 288.1 " fill="#000000"/>
<path class="atom-26" d="M 339.4 299.0 L 341.2 299.0 L 341.2 300.9 L 339.4 300.9 L 339.4 299.0 M 339.4 292.7 L 341.2 292.7 L 341.2 294.5 L 339.4 294.5 L 339.4 292.7 " fill="#000000"/>
<path class="atom-26" d="M 342.6 290.6 Q 343.1 289.4, 344.3 288.7 Q 345.4 288.0, 347.0 288.0 Q 349.0 288.0, 350.1 289.1 Q 351.2 290.1, 351.2 292.0 Q 351.2 294.0, 349.7 295.8 Q 348.3 297.6, 345.4 299.7 L 351.4 299.7 L 351.4 301.2 L 342.6 301.2 L 342.6 300.0 Q 345.0 298.2, 346.5 296.9 Q 347.9 295.6, 348.6 294.5 Q 349.3 293.3, 349.3 292.1 Q 349.3 290.9, 348.7 290.2 Q 348.1 289.5, 347.0 289.5 Q 345.9 289.5, 345.2 289.9 Q 344.5 290.3, 344.0 291.3 L 342.6 290.6 " fill="#000000"/>
<path class="atom-26" d="M 359.3 289.6 L 352.5 289.6 L 352.5 288.1 L 361.2 288.1 L 361.2 289.5 L 355.9 301.2 L 354.1 301.2 L 359.3 289.6 " fill="#000000"/>
<path class="atom-27" d="M 443.2 222.0 L 444.9 222.0 L 444.9 227.6 L 451.6 227.6 L 451.6 222.0 L 453.4 222.0 L 453.4 235.1 L 451.6 235.1 L 451.6 229.0 L 444.9 229.0 L 444.9 235.1 L 443.2 235.1 L 443.2 222.0 " fill="#000000"/>
<path class="atom-27" d="M 454.9 232.9 L 456.8 232.9 L 456.8 234.7 L 454.9 234.7 L 454.9 232.9 M 454.9 226.6 L 456.8 226.6 L 456.8 228.4 L 454.9 228.4 L 454.9 226.6 " fill="#000000"/>
<path class="atom-27" d="M 458.2 224.5 Q 458.7 223.2, 459.8 222.6 Q 461.0 221.9, 462.5 221.9 Q 464.5 221.9, 465.6 222.9 Q 466.7 224.0, 466.7 225.9 Q 466.7 227.8, 465.3 229.6 Q 463.9 231.4, 460.9 233.6 L 467.0 233.6 L 467.0 235.1 L 458.2 235.1 L 458.2 233.8 Q 460.6 232.1, 462.0 230.8 Q 463.5 229.5, 464.2 228.3 Q 464.9 227.2, 464.9 226.0 Q 464.9 224.7, 464.3 224.0 Q 463.6 223.3, 462.5 223.3 Q 461.5 223.3, 460.8 223.8 Q 460.1 224.2, 459.6 225.1 L 458.2 224.5 " fill="#000000"/>
<path class="atom-27" d="M 474.7 228.1 Q 475.9 228.7, 476.6 229.4 Q 477.3 230.2, 477.3 231.5 Q 477.3 232.6, 476.7 233.5 Q 476.1 234.3, 475.1 234.8 Q 474.1 235.2, 472.7 235.2 Q 470.6 235.2, 469.3 234.2 Q 468.1 233.2, 468.1 231.5 Q 468.1 230.4, 468.6 229.6 Q 469.2 228.8, 470.3 228.2 Q 469.5 227.7, 469.0 227.0 Q 468.5 226.3, 468.5 225.2 Q 468.5 223.7, 469.6 222.8 Q 470.8 221.9, 472.7 221.9 Q 474.6 221.9, 475.7 222.8 Q 476.8 223.7, 476.8 225.2 Q 476.8 226.2, 476.3 226.9 Q 475.7 227.6, 474.7 228.1 M 472.7 223.2 Q 471.6 223.2, 471.0 223.8 Q 470.4 224.3, 470.4 225.2 Q 470.4 225.9, 470.8 226.3 Q 471.2 226.8, 471.8 227.0 Q 472.4 227.3, 473.5 227.7 Q 474.3 227.1, 474.6 226.5 Q 475.0 226.0, 475.0 225.2 Q 475.0 224.3, 474.3 223.8 Q 473.8 223.2, 472.7 223.2 M 472.7 233.9 Q 474.0 233.9, 474.7 233.2 Q 475.4 232.5, 475.4 231.5 Q 475.4 230.8, 475.0 230.3 Q 474.7 229.9, 474.1 229.6 Q 473.5 229.4, 472.5 229.0 L 471.6 228.8 Q 470.7 229.3, 470.3 230.0 Q 469.9 230.6, 469.9 231.5 Q 469.9 232.5, 470.7 233.2 Q 471.4 233.9, 472.7 233.9 " fill="#000000"/>
<path class="atom-28" d="M 347.4 163.9 L 349.1 163.9 L 349.1 169.4 L 355.8 169.4 L 355.8 163.9 L 357.6 163.9 L 357.6 176.9 L 355.8 176.9 L 355.8 170.9 L 349.1 170.9 L 349.1 176.9 L 347.4 176.9 L 347.4 163.9 " fill="#000000"/>
<path class="atom-28" d="M 359.1 174.8 L 361.0 174.8 L 361.0 176.6 L 359.1 176.6 L 359.1 174.8 M 359.1 168.4 L 361.0 168.4 L 361.0 170.3 L 359.1 170.3 L 359.1 168.4 " fill="#000000"/>
<path class="atom-28" d="M 362.4 166.3 Q 362.9 165.1, 364.0 164.4 Q 365.2 163.7, 366.7 163.7 Q 368.7 163.7, 369.8 164.8 Q 370.9 165.9, 370.9 167.8 Q 370.9 169.7, 369.5 171.5 Q 368.1 173.3, 365.1 175.4 L 371.1 175.4 L 371.1 176.9 L 362.4 176.9 L 362.4 175.7 Q 364.8 173.9, 366.2 172.7 Q 367.7 171.4, 368.4 170.2 Q 369.1 169.0, 369.1 167.8 Q 369.1 166.6, 368.5 165.9 Q 367.8 165.2, 366.7 165.2 Q 365.7 165.2, 365.0 165.6 Q 364.3 166.0, 363.8 167.0 L 362.4 166.3 " fill="#000000"/>
<path class="atom-28" d="M 376.6 163.7 Q 379.0 163.7, 380.1 165.3 Q 381.3 166.9, 381.3 170.0 Q 381.3 173.5, 379.8 175.3 Q 378.4 177.1, 375.6 177.1 Q 374.8 177.1, 374.1 176.9 Q 373.4 176.7, 372.8 176.3 L 373.5 175.1 Q 374.4 175.6, 375.6 175.6 Q 377.5 175.6, 378.4 174.4 Q 379.3 173.2, 379.4 170.8 Q 378.8 171.4, 377.9 171.7 Q 377.1 172.0, 376.2 172.0 Q 375.1 172.0, 374.2 171.5 Q 373.2 171.0, 372.8 170.1 Q 372.3 169.2, 372.3 168.1 Q 372.3 166.8, 372.8 165.8 Q 373.4 164.8, 374.4 164.3 Q 375.4 163.7, 376.6 163.7 M 374.1 168.0 Q 374.1 169.2, 374.7 169.9 Q 375.4 170.5, 376.5 170.5 Q 377.3 170.5, 378.1 170.2 Q 378.9 169.9, 379.4 169.3 Q 379.4 167.2, 378.7 166.2 Q 378.0 165.2, 376.6 165.2 Q 375.9 165.2, 375.3 165.6 Q 374.8 166.0, 374.4 166.6 Q 374.1 167.3, 374.1 168.0 " fill="#000000"/>
<path class="atom-29" d="M 22.7 256.3 L 24.5 256.3 L 24.5 261.9 L 31.2 261.9 L 31.2 256.3 L 32.9 256.3 L 32.9 269.4 L 31.2 269.4 L 31.2 263.4 L 24.5 263.4 L 24.5 269.4 L 22.7 269.4 L 22.7 256.3 " fill="#000000"/>
<path class="atom-29" d="M 34.5 267.2 L 36.3 267.2 L 36.3 269.1 L 34.5 269.1 L 34.5 267.2 M 34.5 260.9 L 36.3 260.9 L 36.3 262.7 L 34.5 262.7 L 34.5 260.9 " fill="#000000"/>
<path class="atom-29" d="M 44.0 262.5 Q 45.3 262.9, 45.9 263.7 Q 46.5 264.5, 46.5 265.8 Q 46.5 266.9, 45.9 267.8 Q 45.4 268.6, 44.4 269.1 Q 43.4 269.6, 42.0 269.6 Q 40.6 269.6, 39.6 269.1 Q 38.6 268.6, 37.7 267.6 L 38.8 266.5 Q 39.6 267.4, 40.3 267.8 Q 41.0 268.1, 42.0 268.1 Q 43.2 268.1, 43.9 267.5 Q 44.7 266.8, 44.7 265.8 Q 44.7 264.5, 43.9 263.9 Q 43.2 263.3, 41.6 263.3 L 40.6 263.3 L 40.6 261.9 L 41.5 261.9 Q 42.9 261.9, 43.6 261.3 Q 44.4 260.7, 44.4 259.5 Q 44.4 258.7, 43.8 258.2 Q 43.1 257.7, 42.1 257.7 Q 41.0 257.7, 40.3 258.1 Q 39.6 258.4, 39.1 259.4 L 37.8 258.7 Q 38.3 257.6, 39.4 256.9 Q 40.5 256.2, 42.1 256.2 Q 44.0 256.2, 45.1 257.1 Q 46.2 258.0, 46.2 259.5 Q 46.2 260.6, 45.7 261.3 Q 45.1 262.1, 44.0 262.5 " fill="#000000"/>
<path class="atom-29" d="M 52.4 269.5 Q 50.0 269.5, 48.8 267.8 Q 47.6 266.0, 47.6 262.8 Q 47.6 259.7, 48.8 257.9 Q 49.9 256.2, 52.4 256.2 Q 54.8 256.2, 56.0 257.9 Q 57.1 259.7, 57.1 262.8 Q 57.1 266.0, 55.9 267.8 Q 54.8 269.5, 52.4 269.5 M 52.4 268.1 Q 53.8 268.1, 54.5 266.7 Q 55.3 265.4, 55.3 262.8 Q 55.3 260.3, 54.5 259.0 Q 53.8 257.7, 52.4 257.7 Q 51.0 257.7, 50.2 259.0 Q 49.4 260.3, 49.4 262.8 Q 49.4 265.4, 50.2 266.7 Q 51.0 268.1, 52.4 268.1 " fill="#000000"/>
<path class="atom-30" d="M 411.2 314.8 L 413.0 314.8 L 413.0 320.3 L 419.6 320.3 L 419.6 314.8 L 421.4 314.8 L 421.4 327.8 L 419.6 327.8 L 419.6 321.8 L 413.0 321.8 L 413.0 327.8 L 411.2 327.8 L 411.2 314.8 " fill="#000000"/>
<path class="atom-30" d="M 423.0 325.7 L 424.8 325.7 L 424.8 327.5 L 423.0 327.5 L 423.0 325.7 M 423.0 319.3 L 424.8 319.3 L 424.8 321.2 L 423.0 321.2 L 423.0 319.3 " fill="#000000"/>
<path class="atom-30" d="M 432.5 321.0 Q 433.7 321.3, 434.3 322.1 Q 435.0 323.0, 435.0 324.3 Q 435.0 325.4, 434.4 326.2 Q 433.9 327.1, 432.8 327.5 Q 431.8 328.0, 430.5 328.0 Q 429.1 328.0, 428.0 327.5 Q 427.0 327.0, 426.2 326.0 L 427.2 325.0 Q 428.0 325.9, 428.7 326.2 Q 429.4 326.5, 430.5 326.5 Q 431.7 326.5, 432.4 325.9 Q 433.1 325.3, 433.1 324.2 Q 433.1 322.9, 432.4 322.3 Q 431.6 321.7, 430.0 321.7 L 429.1 321.7 L 429.1 320.4 L 429.9 320.4 Q 431.3 320.4, 432.1 319.8 Q 432.8 319.1, 432.8 318.0 Q 432.8 317.1, 432.2 316.6 Q 431.6 316.1, 430.5 316.1 Q 429.4 316.1, 428.7 316.5 Q 428.1 316.9, 427.6 317.9 L 426.3 317.2 Q 426.8 316.1, 427.9 315.4 Q 429.0 314.6, 430.5 314.6 Q 432.4 314.6, 433.6 315.5 Q 434.7 316.4, 434.7 318.0 Q 434.7 319.0, 434.1 319.8 Q 433.5 320.5, 432.5 321.0 " fill="#000000"/>
<path class="atom-30" d="M 436.8 326.4 L 439.6 326.4 L 439.6 316.6 L 436.5 317.6 L 436.0 316.5 L 440.0 314.7 L 441.4 314.9 L 441.4 326.4 L 443.9 326.4 L 443.9 327.8 L 436.8 327.8 L 436.8 326.4 " fill="#000000"/>
<path class="atom-31" d="M 436.5 157.2 L 438.3 157.2 L 438.3 162.7 L 444.9 162.7 L 444.9 157.2 L 446.7 157.2 L 446.7 170.2 L 444.9 170.2 L 444.9 164.2 L 438.3 164.2 L 438.3 170.2 L 436.5 170.2 L 436.5 157.2 " fill="#000000"/>
<path class="atom-31" d="M 448.3 168.1 L 450.1 168.1 L 450.1 169.9 L 448.3 169.9 L 448.3 168.1 M 448.3 161.7 L 450.1 161.7 L 450.1 163.6 L 448.3 163.6 L 448.3 161.7 " fill="#000000"/>
<path class="atom-31" d="M 457.8 163.4 Q 459.0 163.7, 459.6 164.6 Q 460.3 165.4, 460.3 166.7 Q 460.3 167.8, 459.7 168.6 Q 459.2 169.5, 458.1 170.0 Q 457.1 170.4, 455.8 170.4 Q 454.4 170.4, 453.4 169.9 Q 452.3 169.4, 451.5 168.5 L 452.5 167.4 Q 453.4 168.3, 454.0 168.6 Q 454.7 169.0, 455.8 169.0 Q 457.0 169.0, 457.7 168.3 Q 458.4 167.7, 458.4 166.6 Q 458.4 165.3, 457.7 164.7 Q 456.9 164.1, 455.3 164.1 L 454.4 164.1 L 454.4 162.8 L 455.2 162.8 Q 456.6 162.8, 457.4 162.2 Q 458.1 161.5, 458.1 160.4 Q 458.1 159.5, 457.5 159.0 Q 456.9 158.5, 455.8 158.5 Q 454.7 158.5, 454.1 158.9 Q 453.4 159.3, 452.9 160.3 L 451.6 159.6 Q 452.1 158.5, 453.2 157.8 Q 454.3 157.0, 455.8 157.0 Q 457.7 157.0, 458.9 157.9 Q 460.0 158.9, 460.0 160.4 Q 460.0 161.4, 459.4 162.2 Q 458.8 162.9, 457.8 163.4 " fill="#000000"/>
<path class="atom-31" d="M 461.4 159.7 Q 461.9 158.4, 463.0 157.7 Q 464.2 157.0, 465.7 157.0 Q 467.7 157.0, 468.8 158.1 Q 469.9 159.2, 469.9 161.1 Q 469.9 163.0, 468.5 164.8 Q 467.1 166.6, 464.1 168.8 L 470.1 168.8 L 470.1 170.2 L 461.3 170.2 L 461.3 169.0 Q 463.8 167.3, 465.2 166.0 Q 466.7 164.7, 467.4 163.5 Q 468.1 162.4, 468.1 161.2 Q 468.1 159.9, 467.4 159.2 Q 466.8 158.5, 465.7 158.5 Q 464.7 158.5, 464.0 158.9 Q 463.3 159.4, 462.8 160.3 L 461.4 159.7 " fill="#000000"/>
<text x="277.93222771461245" y="238.3920445374462" font-size="12" font-family="Verdana" font-weight="bold" letter-spacing="0" text-anchor="start" fill="black" transform=" rotate(39.122911 277.932228 238.392045)">0.1514</text><text x="25" y="490" font-size="12" font-family="Verdana" font-weight="bold" letter-spacing="0" text-anchor="start" fill="black">[#6:1]1(-[#7:2](-[#6:3](-[#6:4](-[#7:15](-[#6:23](-[H:26])(-[H:27])-[H:31])-[#6:24](-[H:28])(-[H:29])-[H:32])(-[H:16])-[H:17])=[#8:6])-[#6:5](-[H:12])(-[H:13])-[H:14]):[#6:7](:[#6:9](:[#6:8](:[#6:10](:[#6:11]:1-[H:21])-[H:20])-[#7:22](-[H:25])-[H:30])-[H:19])-[H:18]</text></svg>
