<?xml version='1.0' encoding='ASCII' standalone='yes'?>
<svg xmlns="http://www.w3.org/2000/svg" xmlns:rdkit="http://www.rdkit.org/xml" xmlns:xlink="http://www.w3.org/1999/xlink" version="1.1" baseProfile="full" xml:space="preserve" width="500px" height="500px" viewBox="0 0 500 500">
<!-- END OF HEADER -->
<rect style="opacity:1.0;fill:#FFFFFF;stroke:none" width="500.0" height="500.0" x="0.0" y="0.0"> </rect>
<path class="bond-1 atom-1 atom-2" d="M 215.3,303.2 L 270.3,307.8" style="fill:none;fill-rule:evenodd;stroke:#FF7F7F;stroke-width:11.8px;stroke-linecap:butt;stroke-linejoin:miter;stroke-opacity:1"/>
<path class="bond-0 atom-1 atom-0" d="M 210.9,293.7 L 203.6,278.3" style="fill:none;fill-rule:evenodd;stroke:#0000FF;stroke-width:2.0px;stroke-linecap:butt;stroke-linejoin:miter;stroke-opacity:1"/>
<path class="bond-0 atom-1 atom-0" d="M 203.6,278.3 L 196.4,263.0" style="fill:none;fill-rule:evenodd;stroke:#000000;stroke-width:2.0px;stroke-linecap:butt;stroke-linejoin:miter;stroke-opacity:1"/>
<path class="bond-1 atom-1 atom-2" d="M 231.2,304.5 L 243.0,305.5" style="fill:none;fill-rule:evenodd;stroke:#0000FF;stroke-width:2.0px;stroke-linecap:butt;stroke-linejoin:miter;stroke-opacity:1"/>
<path class="bond-1 atom-1 atom-2" d="M 243.0,305.5 L 254.9,306.5" style="fill:none;fill-rule:evenodd;stroke:#000000;stroke-width:2.0px;stroke-linecap:butt;stroke-linejoin:miter;stroke-opacity:1"/>
<path class="bond-2 atom-1 atom-4" d="M 208.6,312.9 L 199.6,326.0" style="fill:none;fill-rule:evenodd;stroke:#0000FF;stroke-width:2.0px;stroke-linecap:butt;stroke-linejoin:miter;stroke-opacity:1"/>
<path class="bond-2 atom-1 atom-4" d="M 199.6,326.0 L 190.5,339.1" style="fill:none;fill-rule:evenodd;stroke:#000000;stroke-width:2.0px;stroke-linecap:butt;stroke-linejoin:miter;stroke-opacity:1"/>
<path class="bond-3 atom-2 atom-3" d="M 277.0,298.1 L 293.3,274.6" style="fill:none;fill-rule:evenodd;stroke:#000000;stroke-width:2.0px;stroke-linecap:butt;stroke-linejoin:miter;stroke-opacity:1"/>
<path class="bond-4 atom-2 atom-5" d="M 280.0,315.3 L 287.2,330.5" style="fill:none;fill-rule:evenodd;stroke:#000000;stroke-width:2.0px;stroke-linecap:butt;stroke-linejoin:miter;stroke-opacity:1"/>
<path class="bond-4 atom-2 atom-5" d="M 287.2,330.5 L 294.3,345.6" style="fill:none;fill-rule:evenodd;stroke:#FF0000;stroke-width:2.0px;stroke-linecap:butt;stroke-linejoin:miter;stroke-opacity:1"/>
<path class="bond-4 atom-2 atom-5" d="M 270.0,320.0 L 277.2,335.2" style="fill:none;fill-rule:evenodd;stroke:#000000;stroke-width:2.0px;stroke-linecap:butt;stroke-linejoin:miter;stroke-opacity:1"/>
<path class="bond-4 atom-2 atom-5" d="M 277.2,335.2 L 284.3,350.3" style="fill:none;fill-rule:evenodd;stroke:#FF0000;stroke-width:2.0px;stroke-linecap:butt;stroke-linejoin:miter;stroke-opacity:1"/>
<path class="bond-5 atom-3 atom-15" d="M 290.9,252.7 L 282.0,244.7" style="fill:none;fill-rule:evenodd;stroke:#000000;stroke-width:2.0px;stroke-linecap:butt;stroke-linejoin:miter;stroke-opacity:1"/>
<path class="bond-6 atom-3 atom-16" d="M 309.6,267.8 L 339.2,288.4" style="fill:none;fill-rule:evenodd;stroke:#000000;stroke-width:2.0px;stroke-linecap:butt;stroke-linejoin:miter;stroke-opacity:1"/>
<path class="bond-7 atom-4 atom-11" d="M 198.1,358.4 L 221.4,374.5" style="fill:none;fill-rule:evenodd;stroke:#000000;stroke-width:2.0px;stroke-linecap:butt;stroke-linejoin:miter;stroke-opacity:1"/>
<path class="bond-8 atom-4 atom-12" d="M 170.0,338.9 L 145.6,322.0" style="fill:none;fill-rule:evenodd;stroke:#000000;stroke-width:2.0px;stroke-linecap:butt;stroke-linejoin:miter;stroke-opacity:1"/>
<path class="bond-9 atom-4 atom-13" d="M 177.1,358.4 L 159.1,384.4" style="fill:none;fill-rule:evenodd;stroke:#000000;stroke-width:2.0px;stroke-linecap:butt;stroke-linejoin:miter;stroke-opacity:1"/>
<path class="bond-10 atom-6 atom-0" d="M 216.4,217.8 L 198.4,243.7" style="fill:none;fill-rule:evenodd;stroke:#000000;stroke-width:2.0px;stroke-linecap:butt;stroke-linejoin:miter;stroke-opacity:1"/>
<path class="bond-10 atom-6 atom-0" d="M 204.6,215.4 L 192.1,233.5" style="fill:none;fill-rule:evenodd;stroke:#000000;stroke-width:2.0px;stroke-linecap:butt;stroke-linejoin:miter;stroke-opacity:1"/>
<path class="bond-11 atom-6 atom-17" d="M 246.2,207.1 L 251.5,206.8" style="fill:none;fill-rule:evenodd;stroke:#000000;stroke-width:2.0px;stroke-linecap:butt;stroke-linejoin:miter;stroke-opacity:1"/>
<path class="bond-12 atom-7 atom-8" d="M 160.4,154.8 L 184.1,156.8" style="fill:none;fill-rule:evenodd;stroke:#000000;stroke-width:2.0px;stroke-linecap:butt;stroke-linejoin:miter;stroke-opacity:1"/>
<path class="bond-12 atom-7 atom-8" d="M 163.0,166.1 L 179.6,167.5" style="fill:none;fill-rule:evenodd;stroke:#000000;stroke-width:2.0px;stroke-linecap:butt;stroke-linejoin:miter;stroke-opacity:1"/>
<path class="bond-13 atom-7 atom-9" d="M 137.8,163.4 L 120.0,189.2" style="fill:none;fill-rule:evenodd;stroke:#000000;stroke-width:2.0px;stroke-linecap:butt;stroke-linejoin:miter;stroke-opacity:1"/>
<path class="bond-14 atom-7 atom-24" d="M 140.1,143.8 L 125.8,113.5" style="fill:none;fill-rule:evenodd;stroke:#000000;stroke-width:2.0px;stroke-linecap:butt;stroke-linejoin:miter;stroke-opacity:1"/>
<path class="bond-15 atom-8 atom-6" d="M 204.3,167.9 L 218.7,198.3" style="fill:none;fill-rule:evenodd;stroke:#000000;stroke-width:2.0px;stroke-linecap:butt;stroke-linejoin:miter;stroke-opacity:1"/>
<path class="bond-16 atom-8 atom-18" d="M 206.4,148.4 L 224.4,122.4" style="fill:none;fill-rule:evenodd;stroke:#000000;stroke-width:2.0px;stroke-linecap:butt;stroke-linejoin:miter;stroke-opacity:1"/>
<path class="bond-17 atom-9 atom-10" d="M 117.8,208.5 L 132.2,239.1" style="fill:none;fill-rule:evenodd;stroke:#000000;stroke-width:2.0px;stroke-linecap:butt;stroke-linejoin:miter;stroke-opacity:1"/>
<path class="bond-17 atom-9 atom-10" d="M 130.0,208.4 L 140.1,229.8" style="fill:none;fill-rule:evenodd;stroke:#000000;stroke-width:2.0px;stroke-linecap:butt;stroke-linejoin:miter;stroke-opacity:1"/>
<path class="bond-18 atom-9 atom-19" d="M 92.2,197.1 L 65.8,194.9" style="fill:none;fill-rule:evenodd;stroke:#000000;stroke-width:2.0px;stroke-linecap:butt;stroke-linejoin:miter;stroke-opacity:1"/>
<path class="bond-19 atom-10 atom-0" d="M 156.9,250.4 L 176.9,252.1" style="fill:none;fill-rule:evenodd;stroke:#000000;stroke-width:2.0px;stroke-linecap:butt;stroke-linejoin:miter;stroke-opacity:1"/>
<path class="bond-20 atom-10 atom-20" d="M 129.7,259.0 L 111.9,284.7" style="fill:none;fill-rule:evenodd;stroke:#000000;stroke-width:2.0px;stroke-linecap:butt;stroke-linejoin:miter;stroke-opacity:1"/>
<path class="bond-21 atom-14 atom-3" d="M 325.9,227.6 L 317.1,240.3" style="fill:none;fill-rule:evenodd;stroke:#0000FF;stroke-width:2.0px;stroke-linecap:butt;stroke-linejoin:miter;stroke-opacity:1"/>
<path class="bond-21 atom-14 atom-3" d="M 317.1,240.3 L 308.4,252.9" style="fill:none;fill-rule:evenodd;stroke:#000000;stroke-width:2.0px;stroke-linecap:butt;stroke-linejoin:miter;stroke-opacity:1"/>
<path class="bond-22 atom-14 atom-21" d="M 354.2,218.8 L 360.5,219.3" style="fill:none;fill-rule:evenodd;stroke:#0000FF;stroke-width:2.0px;stroke-linecap:butt;stroke-linejoin:miter;stroke-opacity:1"/>
<path class="bond-22 atom-14 atom-21" d="M 360.5,219.3 L 366.8,219.9" style="fill:none;fill-rule:evenodd;stroke:#000000;stroke-width:2.0px;stroke-linecap:butt;stroke-linejoin:miter;stroke-opacity:1"/>
<path class="bond-23 atom-14 atom-25" d="M 329.8,209.7 L 322.0,193.4" style="fill:none;fill-rule:evenodd;stroke:#0000FF;stroke-width:2.0px;stroke-linecap:butt;stroke-linejoin:miter;stroke-opacity:1"/>
<path class="bond-23 atom-14 atom-25" d="M 322.0,193.4 L 314.3,177.0" style="fill:none;fill-rule:evenodd;stroke:#000000;stroke-width:2.0px;stroke-linecap:butt;stroke-linejoin:miter;stroke-opacity:1"/>
<path class="bond-24 atom-21 atom-22" d="M 389.0,211.9 L 392.0,176.3" style="fill:none;fill-rule:evenodd;stroke:#000000;stroke-width:2.0px;stroke-linecap:butt;stroke-linejoin:miter;stroke-opacity:1"/>
<path class="bond-25 atom-21 atom-23" d="M 387.4,231.3 L 384.4,267.1" style="fill:none;fill-rule:evenodd;stroke:#000000;stroke-width:2.0px;stroke-linecap:butt;stroke-linejoin:miter;stroke-opacity:1"/>
<path class="bond-26 atom-21 atom-26" d="M 409.6,223.4 L 435.3,225.5" style="fill:none;fill-rule:evenodd;stroke:#000000;stroke-width:2.0px;stroke-linecap:butt;stroke-linejoin:miter;stroke-opacity:1"/>
<path class="atom-0" d="M 178.7 253.4 Q 178.7 249.5, 180.5 247.5 Q 182.3 245.4, 185.8 245.4 Q 189.0 245.4, 190.7 247.7 L 189.3 248.9 Q 188.0 247.2, 185.8 247.2 Q 183.4 247.2, 182.2 248.8 Q 180.9 250.4, 180.9 253.4 Q 180.9 256.5, 182.2 258.1 Q 183.5 259.6, 186.0 259.6 Q 187.8 259.6, 189.8 258.6 L 190.4 260.3 Q 189.6 260.8, 188.3 261.1 Q 187.1 261.4, 185.7 261.4 Q 182.3 261.4, 180.5 259.3 Q 178.7 257.3, 178.7 253.4 " fill="#000000"/>
<path class="atom-0" d="M 191.6 258.6 L 193.8 258.6 L 193.8 260.8 L 191.6 260.8 L 191.6 258.6 M 191.6 251.0 L 193.8 251.0 L 193.8 253.2 L 191.6 253.2 L 191.6 251.0 " fill="#000000"/>
<path class="atom-0" d="M 196.3 259.4 L 199.8 259.4 L 199.8 247.8 L 196.0 248.9 L 195.5 247.6 L 200.3 245.5 L 201.8 245.8 L 201.8 259.4 L 204.9 259.4 L 204.9 261.2 L 196.3 261.2 L 196.3 259.4 " fill="#000000"/>
<path class="atom-1" d="M 203.8 295.5 L 208.9 303.8 Q 209.4 304.6, 210.2 306.1 Q 211.0 307.5, 211.1 307.6 L 211.1 295.5 L 213.2 295.5 L 213.2 311.1 L 211.0 311.1 L 205.5 302.1 Q 204.9 301.0, 204.2 299.8 Q 203.5 298.6, 203.3 298.2 L 203.3 311.1 L 201.3 311.1 L 201.3 295.5 L 203.8 295.5 " fill="#0000FF"/>
<path class="atom-1" d="M 215.0 308.5 L 217.2 308.5 L 217.2 310.7 L 215.0 310.7 L 215.0 308.5 M 215.0 300.9 L 217.2 300.9 L 217.2 303.1 L 215.0 303.1 L 215.0 300.9 " fill="#0000FF"/>
<path class="atom-1" d="M 218.9 298.4 Q 219.5 297.0, 220.8 296.1 Q 222.2 295.3, 224.1 295.3 Q 226.5 295.3, 227.8 296.6 Q 229.1 297.9, 229.1 300.1 Q 229.1 302.5, 227.4 304.6 Q 225.7 306.8, 222.2 309.3 L 229.4 309.3 L 229.4 311.1 L 218.9 311.1 L 218.9 309.6 Q 221.8 307.6, 223.5 306.0 Q 225.2 304.5, 226.1 303.1 Q 226.9 301.7, 226.9 300.2 Q 226.9 298.7, 226.2 297.9 Q 225.4 297.1, 224.1 297.1 Q 222.9 297.1, 222.0 297.6 Q 221.2 298.1, 220.6 299.2 L 218.9 298.4 " fill="#0000FF"/>
<path class="atom-2" d="M 256.7 307.8 Q 256.7 303.9, 258.5 301.9 Q 260.3 299.9, 263.8 299.9 Q 267.0 299.9, 268.7 302.1 L 267.3 303.3 Q 266.0 301.7, 263.8 301.7 Q 261.4 301.7, 260.2 303.3 Q 258.9 304.8, 258.9 307.8 Q 258.9 310.9, 260.2 312.5 Q 261.5 314.1, 264.0 314.1 Q 265.8 314.1, 267.8 313.1 L 268.4 314.7 Q 267.6 315.2, 266.3 315.6 Q 265.1 315.9, 263.7 315.9 Q 260.3 315.9, 258.5 313.8 Q 256.7 311.7, 256.7 307.8 " fill="#000000"/>
<path class="atom-2" d="M 269.6 313.1 L 271.8 313.1 L 271.8 315.3 L 269.6 315.3 L 269.6 313.1 M 269.6 305.5 L 271.8 305.5 L 271.8 307.7 L 269.6 307.7 L 269.6 305.5 " fill="#000000"/>
<path class="atom-2" d="M 281.0 307.4 Q 282.5 307.9, 283.2 308.9 Q 284.0 309.8, 284.0 311.4 Q 284.0 312.7, 283.3 313.7 Q 282.7 314.8, 281.5 315.3 Q 280.2 315.9, 278.6 315.9 Q 277.0 315.9, 275.7 315.3 Q 274.5 314.7, 273.5 313.5 L 274.7 312.2 Q 275.7 313.3, 276.5 313.7 Q 277.3 314.1, 278.6 314.1 Q 280.1 314.1, 280.9 313.4 Q 281.8 312.6, 281.8 311.4 Q 281.8 309.8, 280.9 309.1 Q 280.0 308.3, 278.1 308.3 L 276.9 308.3 L 276.9 306.7 L 277.9 306.7 Q 279.6 306.7, 280.5 306.0 Q 281.5 305.2, 281.5 303.9 Q 281.5 302.8, 280.7 302.2 Q 279.9 301.6, 278.7 301.6 Q 277.4 301.6, 276.6 302.1 Q 275.8 302.6, 275.1 303.7 L 273.6 302.9 Q 274.2 301.6, 275.5 300.7 Q 276.8 299.9, 278.7 299.9 Q 281.0 299.9, 282.3 300.9 Q 283.7 302.0, 283.7 303.9 Q 283.7 305.1, 283.0 306.0 Q 282.3 306.9, 281.0 307.4 " fill="#000000"/>
<path class="atom-3" d="M 279.0 262.5 Q 279.0 258.6, 280.8 256.6 Q 282.6 254.5, 286.1 254.5 Q 289.3 254.5, 291.0 256.8 L 289.6 258.0 Q 288.3 256.3, 286.1 256.3 Q 283.7 256.3, 282.5 257.9 Q 281.2 259.5, 281.2 262.5 Q 281.2 265.6, 282.5 267.2 Q 283.8 268.7, 286.3 268.7 Q 288.0 268.7, 290.0 267.7 L 290.7 269.4 Q 289.8 269.9, 288.6 270.2 Q 287.4 270.5, 286.0 270.5 Q 282.6 270.5, 280.8 268.4 Q 279.0 266.4, 279.0 262.5 " fill="#000000"/>
<path class="atom-3" d="M 291.9 267.7 L 294.1 267.7 L 294.1 269.9 L 291.9 269.9 L 291.9 267.7 M 291.9 260.1 L 294.1 260.1 L 294.1 262.3 L 291.9 262.3 L 291.9 260.1 " fill="#000000"/>
<path class="atom-3" d="M 305.9 265.0 L 307.8 265.0 L 307.8 266.7 L 305.9 266.7 L 305.9 270.3 L 303.8 270.3 L 303.8 266.7 L 295.8 266.7 L 295.8 265.3 L 302.6 254.7 L 305.9 254.7 L 305.9 265.0 M 298.3 265.0 L 303.8 265.0 L 303.8 256.1 L 298.3 265.0 " fill="#000000"/>
<path class="atom-4" d="M 170.2 348.6 Q 170.2 344.7, 172.0 342.7 Q 173.9 340.7, 177.3 340.7 Q 180.6 340.7, 182.3 342.9 L 180.8 344.1 Q 179.6 342.5, 177.3 342.5 Q 175.0 342.5, 173.7 344.0 Q 172.5 345.6, 172.5 348.6 Q 172.5 351.7, 173.8 353.3 Q 175.1 354.9, 177.6 354.9 Q 179.3 354.9, 181.3 353.8 L 181.9 355.5 Q 181.1 356.0, 179.9 356.3 Q 178.6 356.7, 177.3 356.7 Q 173.9 356.7, 172.0 354.6 Q 170.2 352.5, 170.2 348.6 " fill="#000000"/>
<path class="atom-4" d="M 183.2 353.9 L 185.4 353.9 L 185.4 356.1 L 183.2 356.1 L 183.2 353.9 M 183.2 346.3 L 185.4 346.3 L 185.4 348.5 L 183.2 348.5 L 183.2 346.3 " fill="#000000"/>
<path class="atom-4" d="M 192.7 346.7 Q 194.1 346.7, 195.2 347.3 Q 196.3 347.8, 197.0 348.9 Q 197.6 350.0, 197.6 351.5 Q 197.6 353.1, 196.8 354.3 Q 196.0 355.4, 194.7 356.0 Q 193.5 356.6, 192.0 356.6 Q 190.6 356.6, 189.2 356.1 Q 187.9 355.6, 187.0 354.6 L 188.3 353.2 Q 189.1 354.0, 190.1 354.4 Q 191.1 354.8, 192.1 354.8 Q 193.5 354.8, 194.4 354.0 Q 195.4 353.1, 195.4 351.6 Q 195.4 349.9, 194.4 349.1 Q 193.5 348.3, 191.9 348.3 Q 190.6 348.3, 189.1 348.9 L 187.8 348.4 L 188.6 340.8 L 196.6 340.8 L 196.4 342.6 L 190.4 342.6 L 189.9 347.2 Q 191.3 346.7, 192.7 346.7 " fill="#000000"/>
<path class="atom-5" d="M 286.7 357.7 Q 286.7 354.0, 288.6 351.9 Q 290.4 349.8, 293.9 349.8 Q 297.4 349.8, 299.2 351.9 Q 301.1 354.0, 301.1 357.7 Q 301.1 361.5, 299.2 363.7 Q 297.3 365.8, 293.9 365.8 Q 290.4 365.8, 288.6 363.7 Q 286.7 361.5, 286.7 357.7 M 293.9 364.0 Q 296.3 364.0, 297.6 362.4 Q 298.9 360.8, 298.9 357.7 Q 298.9 354.6, 297.6 353.1 Q 296.3 351.5, 293.9 351.5 Q 291.5 351.5, 290.2 353.1 Q 288.9 354.6, 288.9 357.7 Q 288.9 360.9, 290.2 362.4 Q 291.5 364.0, 293.9 364.0 " fill="#FF0000"/>
<path class="atom-5" d="M 302.2 363.0 L 304.4 363.0 L 304.4 365.2 L 302.2 365.2 L 302.2 363.0 M 302.2 355.4 L 304.4 355.4 L 304.4 357.6 L 302.2 357.6 L 302.2 355.4 " fill="#FF0000"/>
<path class="atom-5" d="M 312.1 355.8 Q 313.5 355.8, 314.6 356.4 Q 315.7 357.0, 316.3 358.1 Q 316.9 359.2, 316.9 360.5 Q 316.9 362.1, 316.2 363.2 Q 315.5 364.4, 314.3 365.1 Q 313.1 365.7, 311.6 365.7 Q 308.8 365.7, 307.4 363.9 Q 306.0 362.0, 306.0 358.2 Q 306.0 354.1, 307.7 351.9 Q 309.5 349.8, 312.8 349.8 Q 313.8 349.8, 314.6 350.0 Q 315.5 350.2, 316.2 350.7 L 315.4 352.1 Q 314.2 351.5, 312.8 351.5 Q 310.6 351.5, 309.5 353.0 Q 308.4 354.4, 308.3 357.3 Q 309.1 356.6, 310.0 356.2 Q 311.1 355.8, 312.1 355.8 M 311.6 363.9 Q 312.5 363.9, 313.2 363.5 Q 313.9 363.0, 314.3 362.3 Q 314.7 361.5, 314.7 360.6 Q 314.7 359.2, 313.9 358.4 Q 313.1 357.6, 311.7 357.6 Q 310.8 357.6, 309.8 358.0 Q 308.9 358.3, 308.3 359.0 Q 308.3 361.6, 309.2 362.8 Q 310.0 363.9, 311.6 363.9 " fill="#FF0000"/>
<path class="atom-6" d="M 217.2 208.0 Q 217.2 204.1, 219.0 202.1 Q 220.8 200.1, 224.3 200.1 Q 227.5 200.1, 229.3 202.3 L 227.8 203.5 Q 226.5 201.9, 224.3 201.9 Q 222.0 201.9, 220.7 203.5 Q 219.5 205.0, 219.5 208.0 Q 219.5 211.1, 220.7 212.7 Q 222.0 214.3, 224.6 214.3 Q 226.3 214.3, 228.3 213.3 L 228.9 214.9 Q 228.1 215.4, 226.9 215.8 Q 225.6 216.1, 224.2 216.1 Q 220.8 216.1, 219.0 214.0 Q 217.2 211.9, 217.2 208.0 " fill="#000000"/>
<path class="atom-6" d="M 230.1 213.3 L 232.3 213.3 L 232.3 215.5 L 230.1 215.5 L 230.1 213.3 M 230.1 205.7 L 232.3 205.7 L 232.3 207.9 L 230.1 207.9 L 230.1 205.7 " fill="#000000"/>
<path class="atom-6" d="M 242.2 202.0 L 234.0 202.0 L 234.0 200.2 L 244.4 200.2 L 244.4 201.8 L 238.1 215.9 L 235.9 215.9 L 242.2 202.0 " fill="#000000"/>
<path class="atom-7" d="M 130.8 153.6 Q 130.8 149.7, 132.6 147.7 Q 134.4 145.6, 137.9 145.6 Q 141.1 145.6, 142.8 147.9 L 141.4 149.1 Q 140.1 147.4, 137.9 147.4 Q 135.5 147.4, 134.3 149.0 Q 133.0 150.6, 133.0 153.6 Q 133.0 156.7, 134.3 158.3 Q 135.6 159.8, 138.1 159.8 Q 139.8 159.8, 141.9 158.8 L 142.5 160.5 Q 141.7 161.0, 140.4 161.3 Q 139.2 161.6, 137.8 161.6 Q 134.4 161.6, 132.6 159.5 Q 130.8 157.5, 130.8 153.6 " fill="#000000"/>
<path class="atom-7" d="M 143.7 158.8 L 145.9 158.8 L 145.9 161.0 L 143.7 161.0 L 143.7 158.8 M 143.7 151.2 L 145.9 151.2 L 145.9 153.4 L 143.7 153.4 L 143.7 151.2 " fill="#000000"/>
<path class="atom-7" d="M 155.5 153.1 Q 157.0 153.7, 157.8 154.7 Q 158.6 155.6, 158.6 157.1 Q 158.6 158.5, 157.9 159.5 Q 157.2 160.5, 156.0 161.1 Q 154.8 161.6, 153.2 161.6 Q 150.6 161.6, 149.1 160.4 Q 147.6 159.2, 147.6 157.1 Q 147.6 155.8, 148.2 154.9 Q 148.9 153.9, 150.3 153.2 Q 149.2 152.6, 148.7 151.8 Q 148.1 150.9, 148.1 149.6 Q 148.1 147.8, 149.5 146.7 Q 150.8 145.6, 153.1 145.6 Q 155.4 145.6, 156.7 146.7 Q 158.0 147.8, 158.0 149.6 Q 158.0 150.7, 157.4 151.6 Q 156.8 152.4, 155.5 153.1 M 153.1 147.3 Q 151.8 147.3, 151.1 147.9 Q 150.4 148.5, 150.4 149.6 Q 150.4 150.4, 150.8 151.0 Q 151.3 151.5, 152.0 151.8 Q 152.7 152.1, 154.1 152.6 Q 155.0 151.9, 155.4 151.2 Q 155.8 150.5, 155.8 149.6 Q 155.8 148.5, 155.1 147.9 Q 154.4 147.3, 153.1 147.3 M 153.2 160.0 Q 154.6 160.0, 155.5 159.2 Q 156.4 158.4, 156.4 157.1 Q 156.4 156.3, 155.9 155.7 Q 155.5 155.2, 154.8 154.9 Q 154.1 154.6, 152.8 154.2 L 151.9 153.9 Q 150.7 154.5, 150.3 155.3 Q 149.8 156.1, 149.8 157.1 Q 149.8 158.4, 150.7 159.2 Q 151.6 160.0, 153.2 160.0 " fill="#000000"/>
<path class="atom-8" d="M 185.9 158.1 Q 185.9 154.2, 187.7 152.2 Q 189.5 150.2, 193.0 150.2 Q 196.2 150.2, 197.9 152.4 L 196.5 153.6 Q 195.2 152.0, 193.0 152.0 Q 190.6 152.0, 189.4 153.6 Q 188.1 155.1, 188.1 158.1 Q 188.1 161.2, 189.4 162.8 Q 190.7 164.4, 193.2 164.4 Q 194.9 164.4, 196.9 163.4 L 197.6 165.0 Q 196.7 165.5, 195.5 165.9 Q 194.3 166.2, 192.9 166.2 Q 189.5 166.2, 187.7 164.1 Q 185.9 162.0, 185.9 158.1 " fill="#000000"/>
<path class="atom-8" d="M 198.8 163.4 L 201.0 163.4 L 201.0 165.6 L 198.8 165.6 L 198.8 163.4 M 198.8 155.8 L 201.0 155.8 L 201.0 158.0 L 198.8 158.0 L 198.8 155.8 " fill="#000000"/>
<path class="atom-8" d="M 207.9 150.2 Q 210.7 150.2, 212.1 152.1 Q 213.5 153.9, 213.5 157.7 Q 213.5 161.8, 211.8 164.0 Q 210.0 166.1, 206.7 166.1 Q 205.7 166.1, 204.9 165.9 Q 204.1 165.7, 203.3 165.2 L 204.1 163.8 Q 205.3 164.4, 206.7 164.4 Q 208.9 164.4, 210.0 163.0 Q 211.1 161.5, 211.3 158.6 Q 210.5 159.3, 209.5 159.7 Q 208.5 160.1, 207.4 160.1 Q 206.0 160.1, 204.9 159.5 Q 203.9 158.9, 203.3 157.8 Q 202.7 156.7, 202.7 155.4 Q 202.7 153.8, 203.3 152.7 Q 204.0 151.5, 205.2 150.8 Q 206.4 150.2, 207.9 150.2 M 204.9 155.3 Q 204.9 156.7, 205.6 157.5 Q 206.4 158.3, 207.8 158.3 Q 208.7 158.3, 209.7 157.9 Q 210.6 157.6, 211.3 156.9 Q 211.2 154.3, 210.4 153.1 Q 209.5 152.0, 207.9 152.0 Q 207.1 152.0, 206.3 152.4 Q 205.7 152.9, 205.3 153.6 Q 204.9 154.4, 204.9 155.3 " fill="#000000"/>
<path class="atom-9" d="M 94.0 198.9 Q 94.0 195.0, 95.8 193.0 Q 97.6 191.0, 101.1 191.0 Q 104.3 191.0, 106.0 193.2 L 104.6 194.4 Q 103.3 192.8, 101.1 192.8 Q 98.7 192.8, 97.4 194.4 Q 96.2 195.9, 96.2 198.9 Q 96.2 202.0, 97.5 203.6 Q 98.8 205.2, 101.3 205.2 Q 103.0 205.2, 105.0 204.2 L 105.7 205.8 Q 104.8 206.3, 103.6 206.6 Q 102.4 207.0, 101.0 207.0 Q 97.6 207.0, 95.8 204.9 Q 94.0 202.8, 94.0 198.9 " fill="#000000"/>
<path class="atom-9" d="M 106.9 204.2 L 109.1 204.2 L 109.1 206.4 L 106.9 206.4 L 106.9 204.2 M 106.9 196.6 L 109.1 196.6 L 109.1 198.8 L 106.9 198.8 L 106.9 196.6 " fill="#000000"/>
<path class="atom-9" d="M 111.6 205.0 L 115.0 205.0 L 115.0 193.3 L 111.3 194.5 L 110.8 193.2 L 115.5 191.0 L 117.1 191.3 L 117.1 205.0 L 120.2 205.0 L 120.2 206.8 L 111.6 206.8 L 111.6 205.0 " fill="#000000"/>
<path class="atom-9" d="M 126.8 206.9 Q 124.0 206.9, 122.5 204.8 Q 121.1 202.7, 121.1 198.9 Q 121.1 195.1, 122.5 193.0 Q 123.9 191.0, 126.8 191.0 Q 129.7 191.0, 131.1 193.0 Q 132.5 195.1, 132.5 198.9 Q 132.5 202.7, 131.1 204.8 Q 129.7 206.9, 126.8 206.9 M 126.8 205.2 Q 128.5 205.2, 129.4 203.6 Q 130.3 202.0, 130.3 198.9 Q 130.3 195.9, 129.4 194.3 Q 128.5 192.7, 126.8 192.7 Q 125.1 192.7, 124.2 194.3 Q 123.3 195.9, 123.3 198.9 Q 123.3 202.0, 124.2 203.6 Q 125.1 205.2, 126.8 205.2 " fill="#000000"/>
<path class="atom-10" d="M 118.5 248.8 Q 118.5 244.9, 120.3 242.9 Q 122.2 240.9, 125.6 240.9 Q 128.8 240.9, 130.6 243.1 L 129.1 244.3 Q 127.9 242.7, 125.6 242.7 Q 123.3 242.7, 122.0 244.3 Q 120.8 245.8, 120.8 248.8 Q 120.8 251.9, 122.0 253.5 Q 123.4 255.1, 125.9 255.1 Q 127.6 255.1, 129.6 254.1 L 130.2 255.7 Q 129.4 256.2, 128.2 256.5 Q 126.9 256.9, 125.6 256.9 Q 122.2 256.9, 120.3 254.8 Q 118.5 252.7, 118.5 248.8 " fill="#000000"/>
<path class="atom-10" d="M 131.5 254.1 L 133.7 254.1 L 133.7 256.3 L 131.5 256.3 L 131.5 254.1 M 131.5 246.5 L 133.7 246.5 L 133.7 248.7 L 131.5 248.7 L 131.5 246.5 " fill="#000000"/>
<path class="atom-10" d="M 136.2 254.9 L 139.6 254.9 L 139.6 243.2 L 135.8 244.4 L 135.3 243.1 L 140.1 240.9 L 141.7 241.2 L 141.7 254.9 L 144.7 254.9 L 144.7 256.7 L 136.2 256.7 L 136.2 254.9 " fill="#000000"/>
<path class="atom-10" d="M 146.5 254.9 L 149.9 254.9 L 149.9 243.2 L 146.2 244.4 L 145.7 243.1 L 150.5 240.9 L 152.0 241.2 L 152.0 254.9 L 155.1 254.9 L 155.1 256.7 L 146.5 256.7 L 146.5 254.9 " fill="#000000"/>
<path class="atom-11" d="M 223.1 372.3 L 225.3 372.3 L 225.3 378.9 L 233.2 378.9 L 233.2 372.3 L 235.4 372.3 L 235.4 387.9 L 233.2 387.9 L 233.2 380.7 L 225.3 380.7 L 225.3 387.9 L 223.1 387.9 L 223.1 372.3 " fill="#000000"/>
<path class="atom-11" d="M 237.2 385.3 L 239.5 385.3 L 239.5 387.5 L 237.2 387.5 L 237.2 385.3 M 237.2 377.7 L 239.5 377.7 L 239.5 379.9 L 237.2 379.9 L 237.2 377.7 " fill="#000000"/>
<path class="atom-11" d="M 242.0 386.1 L 245.4 386.1 L 245.4 374.5 L 241.6 375.6 L 241.1 374.3 L 245.9 372.2 L 247.5 372.4 L 247.5 386.1 L 250.5 386.1 L 250.5 387.9 L 242.0 387.9 L 242.0 386.1 " fill="#000000"/>
<path class="atom-11" d="M 251.5 375.2 Q 252.1 373.7, 253.4 372.9 Q 254.8 372.1, 256.7 372.1 Q 259.1 372.1, 260.4 373.4 Q 261.7 374.6, 261.7 376.9 Q 261.7 379.2, 260.0 381.4 Q 258.3 383.6, 254.8 386.1 L 262.0 386.1 L 262.0 387.9 L 251.5 387.9 L 251.5 386.4 Q 254.4 384.3, 256.1 382.8 Q 257.8 381.2, 258.7 379.9 Q 259.5 378.5, 259.5 377.0 Q 259.5 375.5, 258.8 374.7 Q 258.0 373.9, 256.7 373.9 Q 255.5 373.9, 254.6 374.4 Q 253.8 374.9, 253.2 376.0 L 251.5 375.2 " fill="#000000"/>
<path class="atom-12" d="M 105.0 309.4 L 107.1 309.4 L 107.1 316.0 L 115.1 316.0 L 115.1 309.4 L 117.2 309.4 L 117.2 325.0 L 115.1 325.0 L 115.1 317.8 L 107.1 317.8 L 107.1 325.0 L 105.0 325.0 L 105.0 309.4 " fill="#000000"/>
<path class="atom-12" d="M 119.1 322.4 L 121.3 322.4 L 121.3 324.6 L 119.1 324.6 L 119.1 322.4 M 119.1 314.8 L 121.3 314.8 L 121.3 317.0 L 119.1 317.0 L 119.1 314.8 " fill="#000000"/>
<path class="atom-12" d="M 123.8 323.2 L 127.2 323.2 L 127.2 311.6 L 123.5 312.7 L 123.0 311.4 L 127.7 309.3 L 129.3 309.6 L 129.3 323.2 L 132.4 323.2 L 132.4 325.0 L 123.8 325.0 L 123.8 323.2 " fill="#000000"/>
<path class="atom-12" d="M 140.8 316.8 Q 142.3 317.2, 143.1 318.2 Q 143.8 319.2, 143.8 320.7 Q 143.8 322.1, 143.2 323.1 Q 142.5 324.1, 141.3 324.7 Q 140.1 325.2, 138.5 325.2 Q 136.8 325.2, 135.5 324.7 Q 134.3 324.1, 133.3 322.9 L 134.6 321.6 Q 135.5 322.7, 136.4 323.1 Q 137.2 323.5, 138.5 323.5 Q 139.9 323.5, 140.7 322.7 Q 141.6 321.9, 141.6 320.7 Q 141.6 319.1, 140.7 318.4 Q 139.8 317.7, 137.9 317.7 L 136.8 317.7 L 136.8 316.1 L 137.8 316.1 Q 139.5 316.1, 140.4 315.3 Q 141.3 314.6, 141.3 313.2 Q 141.3 312.2, 140.5 311.6 Q 139.8 311.0, 138.5 311.0 Q 137.2 311.0, 136.4 311.4 Q 135.6 311.9, 135.0 313.1 L 133.4 312.3 Q 134.0 311.0, 135.3 310.1 Q 136.6 309.2, 138.5 309.2 Q 140.8 309.2, 142.1 310.3 Q 143.5 311.4, 143.5 313.2 Q 143.5 314.5, 142.8 315.4 Q 142.1 316.3, 140.8 316.8 " fill="#000000"/>
<path class="atom-13" d="M 118.1 386.1 L 120.3 386.1 L 120.3 392.8 L 128.2 392.8 L 128.2 386.1 L 130.4 386.1 L 130.4 401.8 L 128.2 401.8 L 128.2 394.5 L 120.3 394.5 L 120.3 401.8 L 118.1 401.8 L 118.1 386.1 " fill="#000000"/>
<path class="atom-13" d="M 132.2 399.2 L 134.4 399.2 L 134.4 401.4 L 132.2 401.4 L 132.2 399.2 M 132.2 391.6 L 134.4 391.6 L 134.4 393.8 L 132.2 393.8 L 132.2 391.6 " fill="#000000"/>
<path class="atom-13" d="M 137.0 400.0 L 140.4 400.0 L 140.4 388.3 L 136.6 389.5 L 136.1 388.2 L 140.9 386.0 L 142.5 386.3 L 142.5 400.0 L 145.5 400.0 L 145.5 401.8 L 137.0 401.8 L 137.0 400.0 " fill="#000000"/>
<path class="atom-13" d="M 156.6 396.4 L 158.5 396.4 L 158.5 398.2 L 156.6 398.2 L 156.6 401.8 L 154.5 401.8 L 154.5 398.2 L 146.5 398.2 L 146.5 396.8 L 153.3 386.1 L 156.6 386.1 L 156.6 396.4 M 149.0 396.4 L 154.5 396.4 L 154.5 387.5 L 149.0 396.4 " fill="#000000"/>
<path class="atom-14" d="M 316.5 209.3 L 321.6 217.6 Q 322.1 218.4, 322.9 219.9 Q 323.7 221.3, 323.8 221.4 L 323.8 209.3 L 325.8 209.3 L 325.8 224.9 L 323.7 224.9 L 318.2 215.9 Q 317.6 214.8, 316.9 213.6 Q 316.2 212.4, 316.0 212.0 L 316.0 224.9 L 314.0 224.9 L 314.0 209.3 L 316.5 209.3 " fill="#0000FF"/>
<path class="atom-14" d="M 327.7 222.3 L 329.9 222.3 L 329.9 224.5 L 327.7 224.5 L 327.7 222.3 M 327.7 214.7 L 329.9 214.7 L 329.9 217.0 L 327.7 217.0 L 327.7 214.7 " fill="#0000FF"/>
<path class="atom-14" d="M 332.4 223.2 L 335.8 223.2 L 335.8 211.5 L 332.0 212.7 L 331.5 211.3 L 336.3 209.2 L 337.9 209.5 L 337.9 223.2 L 340.9 223.2 L 340.9 224.9 L 332.4 224.9 L 332.4 223.2 " fill="#0000FF"/>
<path class="atom-14" d="M 347.5 215.1 Q 348.9 215.1, 350.0 215.7 Q 351.2 216.3, 351.8 217.4 Q 352.4 218.5, 352.4 220.0 Q 352.4 221.6, 351.7 222.8 Q 350.9 223.9, 349.6 224.5 Q 348.3 225.1, 346.9 225.1 Q 345.4 225.1, 344.1 224.6 Q 342.8 224.0, 341.9 223.0 L 343.2 221.7 Q 343.9 222.5, 344.9 222.9 Q 345.9 223.3, 346.9 223.3 Q 348.3 223.3, 349.3 222.5 Q 350.2 221.6, 350.2 220.0 Q 350.2 218.4, 349.3 217.6 Q 348.3 216.8, 346.8 216.8 Q 345.4 216.8, 343.9 217.4 L 342.7 216.8 L 343.4 209.3 L 351.5 209.3 L 351.3 211.1 L 345.3 211.1 L 344.8 215.7 Q 346.2 215.1, 347.5 215.1 " fill="#0000FF"/>
<path class="atom-15" d="M 241.0 230.6 L 243.1 230.6 L 243.1 237.2 L 251.1 237.2 L 251.1 230.6 L 253.3 230.6 L 253.3 246.2 L 251.1 246.2 L 251.1 239.0 L 243.1 239.0 L 243.1 246.2 L 241.0 246.2 L 241.0 230.6 " fill="#000000"/>
<path class="atom-15" d="M 255.1 243.6 L 257.3 243.6 L 257.3 245.8 L 255.1 245.8 L 255.1 243.6 M 255.1 236.0 L 257.3 236.0 L 257.3 238.2 L 255.1 238.2 L 255.1 236.0 " fill="#000000"/>
<path class="atom-15" d="M 259.9 244.4 L 263.3 244.4 L 263.3 232.8 L 259.5 233.9 L 259.0 232.6 L 263.8 230.5 L 265.3 230.8 L 265.3 244.4 L 268.4 244.4 L 268.4 246.2 L 259.9 246.2 L 259.9 244.4 " fill="#000000"/>
<path class="atom-15" d="M 275.5 236.5 Q 276.8 236.5, 277.9 237.1 Q 279.0 237.7, 279.6 238.7 Q 280.2 239.8, 280.2 241.2 Q 280.2 242.7, 279.5 243.9 Q 278.8 245.1, 277.6 245.7 Q 276.4 246.4, 274.9 246.4 Q 272.1 246.4, 270.7 244.5 Q 269.3 242.6, 269.3 238.9 Q 269.3 234.7, 271.1 232.6 Q 272.8 230.4, 276.1 230.4 Q 277.1 230.4, 277.9 230.6 Q 278.8 230.9, 279.6 231.3 L 278.7 232.8 Q 277.6 232.2, 276.2 232.2 Q 274.0 232.2, 272.8 233.6 Q 271.7 235.0, 271.6 238.0 Q 272.4 237.2, 273.4 236.9 Q 274.4 236.5, 275.5 236.5 M 274.9 244.6 Q 275.8 244.6, 276.5 244.1 Q 277.2 243.7, 277.6 242.9 Q 278.0 242.2, 278.0 241.2 Q 278.0 239.8, 277.2 239.0 Q 276.4 238.2, 275.1 238.2 Q 274.1 238.2, 273.2 238.6 Q 272.2 239.0, 271.6 239.7 Q 271.7 242.2, 272.5 243.4 Q 273.3 244.6, 274.9 244.6 " fill="#000000"/>
<path class="atom-16" d="M 341.0 286.1 L 343.1 286.1 L 343.1 292.7 L 351.1 292.7 L 351.1 286.1 L 353.2 286.1 L 353.2 301.7 L 351.1 301.7 L 351.1 294.5 L 343.1 294.5 L 343.1 301.7 L 341.0 301.7 L 341.0 286.1 " fill="#000000"/>
<path class="atom-16" d="M 355.1 299.1 L 357.3 299.1 L 357.3 301.3 L 355.1 301.3 L 355.1 299.1 M 355.1 291.5 L 357.3 291.5 L 357.3 293.7 L 355.1 293.7 L 355.1 291.5 " fill="#000000"/>
<path class="atom-16" d="M 359.8 299.9 L 363.3 299.9 L 363.3 288.3 L 359.5 289.4 L 359.0 288.1 L 363.8 286.0 L 365.3 286.3 L 365.3 299.9 L 368.4 299.9 L 368.4 301.7 L 359.8 301.7 L 359.8 299.9 " fill="#000000"/>
<path class="atom-16" d="M 377.5 287.8 L 369.3 287.8 L 369.3 286.1 L 379.7 286.1 L 379.7 287.6 L 373.4 301.7 L 371.3 301.7 L 377.5 287.8 " fill="#000000"/>
<path class="atom-17" d="M 253.3 198.8 L 255.4 198.8 L 255.4 205.4 L 263.4 205.4 L 263.4 198.8 L 265.5 198.8 L 265.5 214.4 L 263.4 214.4 L 263.4 207.2 L 255.4 207.2 L 255.4 214.4 L 253.3 214.4 L 253.3 198.8 " fill="#000000"/>
<path class="atom-17" d="M 267.4 211.8 L 269.6 211.8 L 269.6 214.1 L 267.4 214.1 L 267.4 211.8 M 267.4 204.3 L 269.6 204.3 L 269.6 206.5 L 267.4 206.5 L 267.4 204.3 " fill="#000000"/>
<path class="atom-17" d="M 272.1 212.7 L 275.5 212.7 L 275.5 201.0 L 271.8 202.2 L 271.3 200.9 L 276.0 198.7 L 277.6 199.0 L 277.6 212.7 L 280.7 212.7 L 280.7 214.4 L 272.1 214.4 L 272.1 212.7 " fill="#000000"/>
<path class="atom-17" d="M 289.6 206.2 Q 291.0 206.8, 291.8 207.7 Q 292.6 208.6, 292.6 210.1 Q 292.6 211.5, 292.0 212.5 Q 291.3 213.5, 290.0 214.1 Q 288.8 214.6, 287.2 214.6 Q 284.6 214.6, 283.1 213.5 Q 281.6 212.2, 281.6 210.1 Q 281.6 208.9, 282.3 207.9 Q 282.9 206.9, 284.3 206.2 Q 283.3 205.6, 282.7 204.8 Q 282.2 203.9, 282.2 202.6 Q 282.2 200.8, 283.5 199.7 Q 284.9 198.6, 287.1 198.6 Q 289.4 198.6, 290.7 199.7 Q 292.1 200.8, 292.1 202.6 Q 292.1 203.8, 291.4 204.6 Q 290.8 205.5, 289.6 206.2 M 287.1 200.3 Q 285.8 200.3, 285.1 200.9 Q 284.4 201.5, 284.4 202.6 Q 284.4 203.4, 284.9 204.0 Q 285.4 204.5, 286.0 204.8 Q 286.8 205.1, 288.1 205.6 Q 289.0 204.9, 289.4 204.2 Q 289.9 203.5, 289.9 202.6 Q 289.9 201.5, 289.1 200.9 Q 288.4 200.3, 287.1 200.3 M 287.2 213.0 Q 288.7 213.0, 289.6 212.2 Q 290.4 211.4, 290.4 210.1 Q 290.4 209.3, 290.0 208.8 Q 289.5 208.2, 288.8 207.9 Q 288.1 207.6, 286.9 207.2 L 285.9 206.9 Q 284.8 207.5, 284.3 208.3 Q 283.8 209.1, 283.8 210.1 Q 283.8 211.4, 284.7 212.2 Q 285.7 213.0, 287.2 213.0 " fill="#000000"/>
<path class="atom-18" d="M 225.0 105.0 L 227.1 105.0 L 227.1 111.6 L 235.1 111.6 L 235.1 105.0 L 237.2 105.0 L 237.2 120.6 L 235.1 120.6 L 235.1 113.4 L 227.1 113.4 L 227.1 120.6 L 225.0 120.6 L 225.0 105.0 " fill="#000000"/>
<path class="atom-18" d="M 239.1 118.0 L 241.3 118.0 L 241.3 120.2 L 239.1 120.2 L 239.1 118.0 M 239.1 110.4 L 241.3 110.4 L 241.3 112.6 L 239.1 112.6 L 239.1 110.4 " fill="#000000"/>
<path class="atom-18" d="M 243.8 118.8 L 247.3 118.8 L 247.3 107.2 L 243.5 108.3 L 243.0 107.0 L 247.8 104.9 L 249.3 105.2 L 249.3 118.8 L 252.4 118.8 L 252.4 120.6 L 243.8 120.6 L 243.8 118.8 " fill="#000000"/>
<path class="atom-18" d="M 258.6 104.8 Q 261.4 104.8, 262.7 106.7 Q 264.2 108.6, 264.2 112.3 Q 264.2 116.5, 262.4 118.7 Q 260.7 120.8, 257.4 120.8 Q 256.4 120.8, 255.6 120.6 Q 254.7 120.4, 253.9 119.9 L 254.8 118.4 Q 255.9 119.0, 257.3 119.0 Q 259.5 119.0, 260.7 117.6 Q 261.8 116.2, 261.9 113.2 Q 261.1 114.0, 260.1 114.4 Q 259.1 114.7, 258.0 114.7 Q 256.7 114.7, 255.6 114.1 Q 254.5 113.6, 253.9 112.5 Q 253.3 111.4, 253.3 110.0 Q 253.3 108.5, 254.0 107.3 Q 254.7 106.1, 255.9 105.5 Q 257.1 104.8, 258.6 104.8 M 255.5 110.0 Q 255.5 111.4, 256.3 112.2 Q 257.1 113.0, 258.4 113.0 Q 259.4 113.0, 260.3 112.6 Q 261.3 112.2, 261.9 111.5 Q 261.8 109.0, 261.0 107.8 Q 260.2 106.6, 258.6 106.6 Q 257.7 106.6, 257.0 107.1 Q 256.3 107.5, 255.9 108.3 Q 255.5 109.0, 255.5 110.0 " fill="#000000"/>
<path class="atom-19" d="M 22.7 186.6 L 24.8 186.6 L 24.8 193.2 L 32.8 193.2 L 32.8 186.6 L 35.0 186.6 L 35.0 202.2 L 32.8 202.2 L 32.8 195.0 L 24.8 195.0 L 24.8 202.2 L 22.7 202.2 L 22.7 186.6 " fill="#000000"/>
<path class="atom-19" d="M 36.8 199.6 L 39.0 199.6 L 39.0 201.8 L 36.8 201.8 L 36.8 199.6 M 36.8 192.0 L 39.0 192.0 L 39.0 194.2 L 36.8 194.2 L 36.8 192.0 " fill="#000000"/>
<path class="atom-19" d="M 40.7 189.5 Q 41.3 188.1, 42.7 187.2 Q 44.0 186.4, 45.9 186.4 Q 48.3 186.4, 49.6 187.7 Q 51.0 189.0, 51.0 191.2 Q 51.0 193.5, 49.2 195.7 Q 47.5 197.9, 44.0 200.4 L 51.2 200.4 L 51.2 202.2 L 40.7 202.2 L 40.7 200.7 Q 43.6 198.6, 45.3 197.1 Q 47.1 195.6, 47.9 194.2 Q 48.7 192.8, 48.7 191.3 Q 48.7 189.8, 48.0 189.0 Q 47.2 188.2, 45.9 188.2 Q 44.7 188.2, 43.8 188.7 Q 43.0 189.2, 42.4 190.3 L 40.7 189.5 " fill="#000000"/>
<path class="atom-19" d="M 58.3 202.4 Q 55.4 202.4, 54.0 200.3 Q 52.5 198.1, 52.5 194.4 Q 52.5 190.6, 54.0 188.5 Q 55.4 186.4, 58.3 186.4 Q 61.2 186.4, 62.6 188.5 Q 64.0 190.6, 64.0 194.4 Q 64.0 198.1, 62.5 200.3 Q 61.1 202.4, 58.3 202.4 M 58.3 200.6 Q 60.0 200.6, 60.9 199.0 Q 61.8 197.5, 61.8 194.4 Q 61.8 191.3, 60.9 189.7 Q 60.0 188.2, 58.3 188.2 Q 56.6 188.2, 55.7 189.7 Q 54.8 191.3, 54.8 194.4 Q 54.8 197.5, 55.7 199.0 Q 56.6 200.6, 58.3 200.6 " fill="#000000"/>
<path class="atom-20" d="M 70.8 286.4 L 73.0 286.4 L 73.0 293.0 L 80.9 293.0 L 80.9 286.4 L 83.1 286.4 L 83.1 302.0 L 80.9 302.0 L 80.9 294.8 L 73.0 294.8 L 73.0 302.0 L 70.8 302.0 L 70.8 286.4 " fill="#000000"/>
<path class="atom-20" d="M 84.9 299.4 L 87.1 299.4 L 87.1 301.6 L 84.9 301.6 L 84.9 299.4 M 84.9 291.8 L 87.1 291.8 L 87.1 294.0 L 84.9 294.0 L 84.9 291.8 " fill="#000000"/>
<path class="atom-20" d="M 88.8 289.3 Q 89.4 287.9, 90.8 287.0 Q 92.2 286.2, 94.1 286.2 Q 96.4 286.2, 97.7 287.5 Q 99.1 288.8, 99.1 291.0 Q 99.1 293.3, 97.3 295.5 Q 95.6 297.7, 92.1 300.2 L 99.3 300.2 L 99.3 302.0 L 88.8 302.0 L 88.8 300.5 Q 91.7 298.4, 93.4 296.9 Q 95.2 295.4, 96.0 294.0 Q 96.9 292.6, 96.9 291.1 Q 96.9 289.6, 96.1 288.8 Q 95.4 288.0, 94.1 288.0 Q 92.8 288.0, 92.0 288.5 Q 91.1 289.0, 90.5 290.1 L 88.8 289.3 " fill="#000000"/>
<path class="atom-20" d="M 101.5 300.2 L 104.9 300.2 L 104.9 288.6 L 101.2 289.7 L 100.7 288.4 L 105.4 286.3 L 107.0 286.6 L 107.0 300.2 L 110.1 300.2 L 110.1 302.0 L 101.5 302.0 L 101.5 300.2 " fill="#000000"/>
<path class="atom-21" d="M 368.6 221.7 Q 368.6 217.8, 370.4 215.8 Q 372.3 213.7, 375.7 213.7 Q 378.9 213.7, 380.7 216.0 L 379.2 217.2 Q 378.0 215.5, 375.7 215.5 Q 373.4 215.5, 372.1 217.1 Q 370.9 218.7, 370.9 221.7 Q 370.9 224.8, 372.1 226.4 Q 373.4 228.0, 376.0 228.0 Q 377.7 228.0, 379.7 226.9 L 380.3 228.6 Q 379.5 229.1, 378.3 229.4 Q 377.0 229.7, 375.7 229.7 Q 372.3 229.7, 370.4 227.6 Q 368.6 225.6, 368.6 221.7 " fill="#000000"/>
<path class="atom-21" d="M 381.5 226.9 L 383.8 226.9 L 383.8 229.1 L 381.5 229.1 L 381.5 226.9 M 381.5 219.3 L 383.8 219.3 L 383.8 221.6 L 381.5 221.6 L 381.5 219.3 " fill="#000000"/>
<path class="atom-21" d="M 385.5 216.9 Q 386.0 215.4, 387.4 214.6 Q 388.8 213.7, 390.7 213.7 Q 393.0 213.7, 394.4 215.0 Q 395.7 216.3, 395.7 218.6 Q 395.7 220.9, 394.0 223.0 Q 392.3 225.2, 388.7 227.8 L 395.9 227.8 L 395.9 229.5 L 385.4 229.5 L 385.4 228.0 Q 388.3 226.0, 390.0 224.4 Q 391.8 222.9, 392.6 221.5 Q 393.5 220.1, 393.5 218.7 Q 393.5 217.2, 392.7 216.3 Q 392.0 215.5, 390.7 215.5 Q 389.4 215.5, 388.6 216.0 Q 387.7 216.5, 387.1 217.6 L 385.5 216.9 " fill="#000000"/>
<path class="atom-21" d="M 397.3 216.9 Q 397.9 215.4, 399.3 214.6 Q 400.6 213.7, 402.5 213.7 Q 404.9 213.7, 406.2 215.0 Q 407.5 216.3, 407.5 218.6 Q 407.5 220.9, 405.8 223.0 Q 404.1 225.2, 400.6 227.8 L 407.8 227.8 L 407.8 229.5 L 397.3 229.5 L 397.3 228.0 Q 400.2 226.0, 401.9 224.4 Q 403.6 222.9, 404.5 221.5 Q 405.3 220.1, 405.3 218.7 Q 405.3 217.2, 404.6 216.3 Q 403.8 215.5, 402.5 215.5 Q 401.3 215.5, 400.4 216.0 Q 399.6 216.5, 399.0 217.6 L 397.3 216.9 " fill="#000000"/>
<path class="atom-22" d="M 386.6 158.9 L 388.8 158.9 L 388.8 165.5 L 396.8 165.5 L 396.8 158.9 L 398.9 158.9 L 398.9 174.5 L 396.8 174.5 L 396.8 167.3 L 388.8 167.3 L 388.8 174.5 L 386.6 174.5 L 386.6 158.9 " fill="#000000"/>
<path class="atom-22" d="M 400.7 171.9 L 403.0 171.9 L 403.0 174.2 L 400.7 174.2 L 400.7 171.9 M 400.7 164.4 L 403.0 164.4 L 403.0 166.6 L 400.7 166.6 L 400.7 164.4 " fill="#000000"/>
<path class="atom-22" d="M 404.7 161.9 Q 405.2 160.4, 406.6 159.6 Q 408.0 158.7, 409.9 158.7 Q 412.2 158.7, 413.5 160.0 Q 414.9 161.3, 414.9 163.6 Q 414.9 165.9, 413.2 168.0 Q 411.5 170.2, 407.9 172.8 L 415.1 172.8 L 415.1 174.5 L 404.6 174.5 L 404.6 173.1 Q 407.5 171.0, 409.2 169.4 Q 411.0 167.9, 411.8 166.5 Q 412.7 165.1, 412.7 163.7 Q 412.7 162.2, 411.9 161.3 Q 411.2 160.5, 409.9 160.5 Q 408.6 160.5, 407.8 161.0 Q 406.9 161.5, 406.3 162.6 L 404.7 161.9 " fill="#000000"/>
<path class="atom-22" d="M 424.0 166.3 Q 425.5 166.7, 426.2 167.7 Q 427.0 168.7, 427.0 170.2 Q 427.0 171.6, 426.3 172.6 Q 425.6 173.6, 424.4 174.2 Q 423.2 174.8, 421.6 174.8 Q 419.9 174.8, 418.7 174.2 Q 417.5 173.6, 416.5 172.4 L 417.7 171.1 Q 418.7 172.2, 419.5 172.6 Q 420.3 173.0, 421.6 173.0 Q 423.0 173.0, 423.9 172.2 Q 424.8 171.5, 424.8 170.2 Q 424.8 168.6, 423.9 167.9 Q 423.0 167.2, 421.1 167.2 L 419.9 167.2 L 419.9 165.6 L 420.9 165.6 Q 422.6 165.6, 423.5 164.9 Q 424.4 164.1, 424.4 162.7 Q 424.4 161.7, 423.7 161.1 Q 422.9 160.5, 421.6 160.5 Q 420.3 160.5, 419.5 161.0 Q 418.7 161.4, 418.1 162.6 L 416.6 161.8 Q 417.1 160.5, 418.5 159.6 Q 419.8 158.7, 421.6 158.7 Q 423.9 158.7, 425.3 159.8 Q 426.6 160.9, 426.6 162.7 Q 426.6 164.0, 426.0 164.9 Q 425.3 165.8, 424.0 166.3 " fill="#000000"/>
<path class="atom-23" d="M 377.5 268.9 L 379.7 268.9 L 379.7 275.5 L 387.6 275.5 L 387.6 268.9 L 389.8 268.9 L 389.8 284.5 L 387.6 284.5 L 387.6 277.3 L 379.7 277.3 L 379.7 284.5 L 377.5 284.5 L 377.5 268.9 " fill="#000000"/>
<path class="atom-23" d="M 391.6 281.9 L 393.8 281.9 L 393.8 284.1 L 391.6 284.1 L 391.6 281.9 M 391.6 274.3 L 393.8 274.3 L 393.8 276.5 L 391.6 276.5 L 391.6 274.3 " fill="#000000"/>
<path class="atom-23" d="M 395.5 271.8 Q 396.1 270.4, 397.5 269.5 Q 398.9 268.7, 400.8 268.7 Q 403.1 268.7, 404.4 270.0 Q 405.8 271.3, 405.8 273.5 Q 405.8 275.9, 404.0 278.0 Q 402.3 280.2, 398.8 282.7 L 406.0 282.7 L 406.0 284.5 L 395.5 284.5 L 395.5 283.0 Q 398.4 281.0, 400.1 279.4 Q 401.9 277.9, 402.7 276.5 Q 403.6 275.1, 403.6 273.7 Q 403.6 272.2, 402.8 271.3 Q 402.1 270.5, 400.8 270.5 Q 399.5 270.5, 398.7 271.0 Q 397.8 271.5, 397.2 272.6 L 395.5 271.8 " fill="#000000"/>
<path class="atom-23" d="M 417.5 279.1 L 419.4 279.1 L 419.4 280.9 L 417.5 280.9 L 417.5 284.5 L 415.4 284.5 L 415.4 280.9 L 407.4 280.9 L 407.4 279.5 L 414.2 268.9 L 417.5 268.9 L 417.5 279.1 M 409.9 279.1 L 415.4 279.1 L 415.4 270.3 L 409.9 279.1 " fill="#000000"/>
<path class="atom-24" d="M 86.0 95.9 L 88.2 95.9 L 88.2 102.5 L 96.1 102.5 L 96.1 95.9 L 98.3 95.9 L 98.3 111.5 L 96.1 111.5 L 96.1 104.3 L 88.2 104.3 L 88.2 111.5 L 86.0 111.5 L 86.0 95.9 " fill="#000000"/>
<path class="atom-24" d="M 100.1 108.9 L 102.3 108.9 L 102.3 111.1 L 100.1 111.1 L 100.1 108.9 M 100.1 101.3 L 102.3 101.3 L 102.3 103.5 L 100.1 103.5 L 100.1 101.3 " fill="#000000"/>
<path class="atom-24" d="M 104.0 98.8 Q 104.6 97.4, 106.0 96.5 Q 107.4 95.7, 109.3 95.7 Q 111.6 95.7, 112.9 97.0 Q 114.3 98.3, 114.3 100.5 Q 114.3 102.9, 112.5 105.0 Q 110.8 107.2, 107.3 109.7 L 114.5 109.7 L 114.5 111.5 L 104.0 111.5 L 104.0 110.0 Q 106.9 108.0, 108.6 106.4 Q 110.4 104.9, 111.2 103.5 Q 112.1 102.1, 112.1 100.6 Q 112.1 99.1, 111.3 98.3 Q 110.6 97.5, 109.3 97.5 Q 108.0 97.5, 107.2 98.0 Q 106.3 98.5, 105.7 99.6 L 104.0 98.8 " fill="#000000"/>
<path class="atom-24" d="M 121.5 101.7 Q 122.9 101.7, 124.0 102.3 Q 125.1 102.9, 125.8 104.0 Q 126.4 105.1, 126.4 106.6 Q 126.4 108.2, 125.6 109.3 Q 124.9 110.5, 123.6 111.1 Q 122.3 111.7, 120.8 111.7 Q 119.4 111.7, 118.1 111.2 Q 116.8 110.6, 115.9 109.6 L 117.2 108.2 Q 117.9 109.0, 118.9 109.5 Q 119.9 109.9, 120.9 109.9 Q 122.3 109.9, 123.2 109.0 Q 124.2 108.2, 124.2 106.6 Q 124.2 105.0, 123.2 104.2 Q 122.3 103.4, 120.8 103.4 Q 119.4 103.4, 117.9 104.0 L 116.7 103.4 L 117.4 95.9 L 125.5 95.9 L 125.2 97.6 L 119.2 97.6 L 118.8 102.3 Q 120.2 101.7, 121.5 101.7 " fill="#000000"/>
<path class="atom-25" d="M 274.4 159.4 L 276.5 159.4 L 276.5 166.1 L 284.5 166.1 L 284.5 159.4 L 286.7 159.4 L 286.7 175.1 L 284.5 175.1 L 284.5 167.9 L 276.5 167.9 L 276.5 175.1 L 274.4 175.1 L 274.4 159.4 " fill="#000000"/>
<path class="atom-25" d="M 288.5 172.5 L 290.7 172.5 L 290.7 174.7 L 288.5 174.7 L 288.5 172.5 M 288.5 164.9 L 290.7 164.9 L 290.7 167.1 L 288.5 167.1 L 288.5 164.9 " fill="#000000"/>
<path class="atom-25" d="M 292.4 162.4 Q 293.0 160.9, 294.4 160.1 Q 295.7 159.3, 297.6 159.3 Q 300.0 159.3, 301.3 160.5 Q 302.7 161.8, 302.7 164.1 Q 302.7 166.4, 300.9 168.6 Q 299.2 170.7, 295.7 173.3 L 302.9 173.3 L 302.9 175.1 L 292.4 175.1 L 292.4 173.6 Q 295.3 171.5, 297.0 170.0 Q 298.8 168.4, 299.6 167.0 Q 300.4 165.6, 300.4 164.2 Q 300.4 162.7, 299.7 161.9 Q 298.9 161.0, 297.6 161.0 Q 296.4 161.0, 295.5 161.5 Q 294.7 162.0, 294.1 163.2 L 292.4 162.4 " fill="#000000"/>
<path class="atom-25" d="M 310.4 165.3 Q 311.7 165.3, 312.8 165.9 Q 313.9 166.5, 314.5 167.6 Q 315.1 168.7, 315.1 170.0 Q 315.1 171.6, 314.4 172.8 Q 313.7 173.9, 312.5 174.6 Q 311.4 175.2, 309.8 175.2 Q 307.0 175.2, 305.6 173.4 Q 304.2 171.5, 304.2 167.7 Q 304.2 163.6, 306.0 161.4 Q 307.7 159.3, 311.0 159.3 Q 312.0 159.3, 312.8 159.5 Q 313.7 159.7, 314.5 160.2 L 313.6 161.6 Q 312.5 161.0, 311.1 161.0 Q 308.9 161.0, 307.7 162.5 Q 306.6 163.9, 306.5 166.8 Q 307.3 166.1, 308.3 165.7 Q 309.3 165.3, 310.4 165.3 M 309.8 173.4 Q 310.7 173.4, 311.4 173.0 Q 312.1 172.6, 312.5 171.8 Q 312.9 171.0, 312.9 170.1 Q 312.9 168.7, 312.1 167.9 Q 311.3 167.1, 310.0 167.1 Q 309.0 167.1, 308.1 167.5 Q 307.1 167.9, 306.5 168.5 Q 306.6 171.1, 307.4 172.3 Q 308.2 173.4, 309.8 173.4 " fill="#000000"/>
<path class="atom-26" d="M 437.1 218.4 L 439.2 218.4 L 439.2 225.1 L 447.2 225.1 L 447.2 218.4 L 449.3 218.4 L 449.3 234.1 L 447.2 234.1 L 447.2 226.9 L 439.2 226.9 L 439.2 234.1 L 437.1 234.1 L 437.1 218.4 " fill="#000000"/>
<path class="atom-26" d="M 451.2 231.5 L 453.4 231.5 L 453.4 233.7 L 451.2 233.7 L 451.2 231.5 M 451.2 223.9 L 453.4 223.9 L 453.4 226.1 L 451.2 226.1 L 451.2 223.9 " fill="#000000"/>
<path class="atom-26" d="M 455.1 221.4 Q 455.7 219.9, 457.0 219.1 Q 458.4 218.3, 460.3 218.3 Q 462.7 218.3, 464.0 219.6 Q 465.3 220.8, 465.3 223.1 Q 465.3 225.4, 463.6 227.6 Q 461.9 229.7, 458.4 232.3 L 465.6 232.3 L 465.6 234.1 L 455.0 234.1 L 455.0 232.6 Q 458.0 230.5, 459.7 229.0 Q 461.4 227.4, 462.3 226.0 Q 463.1 224.6, 463.1 223.2 Q 463.1 221.7, 462.4 220.9 Q 461.6 220.0, 460.3 220.0 Q 459.0 220.0, 458.2 220.5 Q 457.4 221.1, 456.8 222.2 L 455.1 221.4 " fill="#000000"/>
<path class="atom-26" d="M 475.1 220.2 L 466.9 220.2 L 466.9 218.4 L 477.3 218.4 L 477.3 220.0 L 471.0 234.1 L 468.8 234.1 L 475.1 220.2 " fill="#000000"/>
<text x="242.84194494400953" y="305.4824249500936" font-size="12" font-family="Verdana" font-weight="bold" letter-spacing="0" text-anchor="start" fill="black" transform=" rotate(-85.266683 242.841945 305.482425)">0.1593</text><text x="25" y="490" font-size="12" font-family="Verdana" font-weight="bold" letter-spacing="0" text-anchor="start" fill="black">[#6:1]1(-[#7:2](-[#6:3](-[#6:4](-[#7:15](-[#6:22](-[H:23])(-[H:24])-[H:27])-[H:26])(-[H:16])-[H:17])=[#8:6])-[#6:5](-[H:12])(-[H:13])-[H:14]):[#6:7](:[#6:9](:[#6:8](:[#6:10](:[#6:11]:1-[H:21])-[H:20])-[H:25])-[H:19])-[H:18]</text></svg>
