<?xml version='1.0' encoding='ASCII' standalone='yes'?>
<svg xmlns="http://www.w3.org/2000/svg" xmlns:rdkit="http://www.rdkit.org/xml" xmlns:xlink="http://www.w3.org/1999/xlink" version="1.1" baseProfile="full" xml:space="preserve" width="500px" height="500px" viewBox="0 0 500 500">
<!-- END OF HEADER -->
<rect style="opacity:1.0;fill:#FFFFFF;stroke:none" width="500" height="500" x="0" y="0"> </rect>
<path d="M 181.78,274.431 L 221.159,303.791" style="fill:none;fill-rule:evenodd;stroke:#FF7F7F;stroke-width:10.5px;stroke-linecap:butt;stroke-linejoin:miter;stroke-opacity:1"/>
<path class="bond-0 atom-0 atom-6" d="M 125.583,285.592 L 105.749,270.803" style="fill:none;fill-rule:evenodd;stroke:#000000;stroke-width:2.0px;stroke-linecap:butt;stroke-linejoin:miter;stroke-opacity:1"/>
<path class="bond-0 atom-0 atom-6" d="M 128.48,275.498 L 114.596,265.146" style="fill:none;fill-rule:evenodd;stroke:#000000;stroke-width:2.0px;stroke-linecap:butt;stroke-linejoin:miter;stroke-opacity:1"/>
<path class="bond-1 atom-0 atom-9" d="M 135.693,302.115 L 131.856,334.74" style="fill:none;fill-rule:evenodd;stroke:#000000;stroke-width:2.0px;stroke-linecap:butt;stroke-linejoin:miter;stroke-opacity:1"/>
<path class="bond-2 atom-1 atom-0" d="M 164.112,282.037 L 144.971,290.278" style="fill:none;fill-rule:evenodd;stroke:#000000;stroke-width:2.0px;stroke-linecap:butt;stroke-linejoin:miter;stroke-opacity:1"/>
<path class="bond-3 atom-1 atom-5" d="M 182.752,266.169 L 186.552,233.859" style="fill:none;fill-rule:evenodd;stroke:#000000;stroke-width:2.0px;stroke-linecap:butt;stroke-linejoin:miter;stroke-opacity:1"/>
<path class="bond-3 atom-1 atom-5" d="M 173.566,260.175 L 176.226,237.558" style="fill:none;fill-rule:evenodd;stroke:#000000;stroke-width:2.0px;stroke-linecap:butt;stroke-linejoin:miter;stroke-opacity:1"/>
<path class="bond-5 atom-2 atom-1" d="M 210.289,295.687 L 200.519,288.402" style="fill:none;fill-rule:evenodd;stroke:#0000FF;stroke-width:2.0px;stroke-linecap:butt;stroke-linejoin:miter;stroke-opacity:1"/>
<path class="bond-5 atom-2 atom-1" d="M 200.519,288.402 L 190.75,281.118" style="fill:none;fill-rule:evenodd;stroke:#000000;stroke-width:2.0px;stroke-linecap:butt;stroke-linejoin:miter;stroke-opacity:1"/>
<path class="bond-4 atom-2 atom-4" d="M 230.444,299.794 L 239.657,295.828" style="fill:none;fill-rule:evenodd;stroke:#0000FF;stroke-width:2.0px;stroke-linecap:butt;stroke-linejoin:miter;stroke-opacity:1"/>
<path class="bond-4 atom-2 atom-4" d="M 239.657,295.828 L 248.87,291.862" style="fill:none;fill-rule:evenodd;stroke:#000000;stroke-width:2.0px;stroke-linecap:butt;stroke-linejoin:miter;stroke-opacity:1"/>
<path class="bond-6 atom-2 atom-3" d="M 220.164,312.25 L 218.262,328.427" style="fill:none;fill-rule:evenodd;stroke:#0000FF;stroke-width:2.0px;stroke-linecap:butt;stroke-linejoin:miter;stroke-opacity:1"/>
<path class="bond-6 atom-2 atom-3" d="M 218.262,328.427 L 216.359,344.604" style="fill:none;fill-rule:evenodd;stroke:#000000;stroke-width:2.0px;stroke-linecap:butt;stroke-linejoin:miter;stroke-opacity:1"/>
<path class="bond-7 atom-4 atom-13" d="M 275.554,280.374 L 292.376,273.132" style="fill:none;fill-rule:evenodd;stroke:#000000;stroke-width:2.0px;stroke-linecap:butt;stroke-linejoin:miter;stroke-opacity:1"/>
<path class="bond-8 atom-4 atom-24" d="M 269.9,292.788 L 282.308,321.609" style="fill:none;fill-rule:evenodd;stroke:#000000;stroke-width:2.0px;stroke-linecap:butt;stroke-linejoin:miter;stroke-opacity:1"/>
<path class="bond-9 atom-4 atom-25" d="M 263.687,278.356 L 250.407,247.508" style="fill:none;fill-rule:evenodd;stroke:#000000;stroke-width:2.0px;stroke-linecap:butt;stroke-linejoin:miter;stroke-opacity:1"/>
<path class="bond-10 atom-5 atom-7" d="M 176.437,217.386 L 157.523,203.283" style="fill:none;fill-rule:evenodd;stroke:#000000;stroke-width:2.0px;stroke-linecap:butt;stroke-linejoin:miter;stroke-opacity:1"/>
<path class="bond-11 atom-5 atom-10" d="M 197.222,221.47 L 226.228,208.983" style="fill:none;fill-rule:evenodd;stroke:#000000;stroke-width:2.0px;stroke-linecap:butt;stroke-linejoin:miter;stroke-opacity:1"/>
<path class="bond-12 atom-6 atom-8" d="M 98.2388,256.389 L 102.057,223.925" style="fill:none;fill-rule:evenodd;stroke:#000000;stroke-width:2.0px;stroke-linecap:butt;stroke-linejoin:miter;stroke-opacity:1"/>
<path class="bond-13 atom-6 atom-11" d="M 79.8843,271.985 L 57.6098,281.574" style="fill:none;fill-rule:evenodd;stroke:#000000;stroke-width:2.0px;stroke-linecap:butt;stroke-linejoin:miter;stroke-opacity:1"/>
<path class="bond-14 atom-7 atom-8" d="M 130.204,204.009 L 112.069,211.816" style="fill:none;fill-rule:evenodd;stroke:#000000;stroke-width:2.0px;stroke-linecap:butt;stroke-linejoin:miter;stroke-opacity:1"/>
<path class="bond-14 atom-7 atom-8" d="M 131.368,214.203 L 118.674,219.668" style="fill:none;fill-rule:evenodd;stroke:#000000;stroke-width:2.0px;stroke-linecap:butt;stroke-linejoin:miter;stroke-opacity:1"/>
<path class="bond-15 atom-7 atom-12" d="M 149.111,188.025 L 152.93,155.558" style="fill:none;fill-rule:evenodd;stroke:#000000;stroke-width:2.0px;stroke-linecap:butt;stroke-linejoin:miter;stroke-opacity:1"/>
<path class="bond-16 atom-8 atom-26" d="M 91.9421,207.448 L 69.1441,190.45" style="fill:none;fill-rule:evenodd;stroke:#000000;stroke-width:2.0px;stroke-linecap:butt;stroke-linejoin:miter;stroke-opacity:1"/>
<path class="bond-17 atom-13 atom-14" d="M 322.473,273.208 L 340.153,286.39" style="fill:none;fill-rule:evenodd;stroke:#000000;stroke-width:2.0px;stroke-linecap:butt;stroke-linejoin:miter;stroke-opacity:1"/>
<path class="bond-17 atom-13 atom-14" d="M 330.997,267.309 L 343.373,276.537" style="fill:none;fill-rule:evenodd;stroke:#000000;stroke-width:2.0px;stroke-linecap:butt;stroke-linejoin:miter;stroke-opacity:1"/>
<path class="bond-18 atom-13 atom-15" d="M 312.354,256.762 L 316.182,224.218" style="fill:none;fill-rule:evenodd;stroke:#000000;stroke-width:2.0px;stroke-linecap:butt;stroke-linejoin:miter;stroke-opacity:1"/>
<path class="bond-19 atom-14 atom-16" d="M 364.661,288.326 L 377.163,282.944" style="fill:none;fill-rule:evenodd;stroke:#000000;stroke-width:2.0px;stroke-linecap:butt;stroke-linejoin:miter;stroke-opacity:1"/>
<path class="bond-20 atom-14 atom-19" d="M 349.799,302.568 L 345.962,335.193" style="fill:none;fill-rule:evenodd;stroke:#000000;stroke-width:2.0px;stroke-linecap:butt;stroke-linejoin:miter;stroke-opacity:1"/>
<path class="bond-21 atom-15 atom-17" d="M 331.492,209.979 L 343.551,204.788" style="fill:none;fill-rule:evenodd;stroke:#000000;stroke-width:2.0px;stroke-linecap:butt;stroke-linejoin:miter;stroke-opacity:1"/>
<path class="bond-21 atom-15 atom-17" d="M 337.185,218.224 L 345.627,214.59" style="fill:none;fill-rule:evenodd;stroke:#000000;stroke-width:2.0px;stroke-linecap:butt;stroke-linejoin:miter;stroke-opacity:1"/>
<path class="bond-22 atom-15 atom-20" d="M 306.048,207.901 L 282.828,190.588" style="fill:none;fill-rule:evenodd;stroke:#000000;stroke-width:2.0px;stroke-linecap:butt;stroke-linejoin:miter;stroke-opacity:1"/>
<path class="bond-23 atom-16 atom-18" d="M 396.849,266.7 L 400.676,234.156" style="fill:none;fill-rule:evenodd;stroke:#000000;stroke-width:2.0px;stroke-linecap:butt;stroke-linejoin:miter;stroke-opacity:1"/>
<path class="bond-23 atom-16 atom-18" d="M 387.666,260.671 L 390.346,237.89" style="fill:none;fill-rule:evenodd;stroke:#000000;stroke-width:2.0px;stroke-linecap:butt;stroke-linejoin:miter;stroke-opacity:1"/>
<path class="bond-24 atom-16 atom-21" d="M 406.967,283.145 L 428.94,299.528" style="fill:none;fill-rule:evenodd;stroke:#000000;stroke-width:2.0px;stroke-linecap:butt;stroke-linejoin:miter;stroke-opacity:1"/>
<path class="bond-25 atom-17 atom-18" d="M 373.59,205.198 L 391.017,218.192" style="fill:none;fill-rule:evenodd;stroke:#000000;stroke-width:2.0px;stroke-linecap:butt;stroke-linejoin:miter;stroke-opacity:1"/>
<path class="bond-26 atom-17 atom-22" d="M 363.208,188.557 L 367.035,156.013" style="fill:none;fill-rule:evenodd;stroke:#000000;stroke-width:2.0px;stroke-linecap:butt;stroke-linejoin:miter;stroke-opacity:1"/>
<path class="bond-27 atom-18 atom-23" d="M 415.795,220 L 440.455,209.383" style="fill:none;fill-rule:evenodd;stroke:#000000;stroke-width:2.0px;stroke-linecap:butt;stroke-linejoin:miter;stroke-opacity:1"/>
<path class="atom-0" d="M 120.607 293.913 Q 120.607 290.455, 122.218 288.647 Q 123.849 286.82, 126.934 286.82 Q 129.802 286.82, 131.335 288.843 L 130.038 289.904 Q 128.918 288.431, 126.934 288.431 Q 124.831 288.431, 123.712 289.845 Q 122.611 291.24, 122.611 293.913 Q 122.611 296.663, 123.751 298.078 Q 124.91 299.493, 127.15 299.493 Q 128.682 299.493, 130.47 298.569 L 131.02 300.043 Q 130.294 300.514, 129.193 300.789 Q 128.093 301.064, 126.875 301.064 Q 123.849 301.064, 122.218 299.217 Q 120.607 297.371, 120.607 293.913 " fill="#000000"/>
<path class="atom-0" d="M 132.808 298.589 L 134.773 298.589 L 134.773 300.554 L 132.808 300.554 L 132.808 298.589 M 132.808 291.83 L 134.773 291.83 L 134.773 293.795 L 132.808 293.795 L 132.808 291.83 " fill="#000000"/>
<path class="atom-0" d="M 136.6 299.316 L 139.646 299.316 L 139.646 288.922 L 136.286 289.963 L 135.834 288.804 L 140.098 286.898 L 141.493 287.134 L 141.493 299.316 L 144.224 299.316 L 144.224 300.888 L 136.6 300.888 L 136.6 299.316 " fill="#000000"/>
<path class="atom-1" d="M 165.34 274.49 Q 165.34 271.032, 166.951 269.224 Q 168.582 267.397, 171.667 267.397 Q 174.535 267.397, 176.068 269.421 L 174.771 270.482 Q 173.651 269.008, 171.667 269.008 Q 169.565 269.008, 168.445 270.423 Q 167.344 271.818, 167.344 274.49 Q 167.344 277.24, 168.484 278.655 Q 169.643 280.07, 171.883 280.07 Q 173.415 280.07, 175.203 279.146 L 175.754 280.62 Q 175.027 281.091, 173.926 281.367 Q 172.826 281.642, 171.608 281.642 Q 168.582 281.642, 166.951 279.795 Q 165.34 277.948, 165.34 274.49 " fill="#000000"/>
<path class="atom-1" d="M 177.541 279.166 L 179.506 279.166 L 179.506 281.131 L 177.541 281.131 L 177.541 279.166 M 177.541 272.407 L 179.506 272.407 L 179.506 274.372 L 177.541 274.372 L 177.541 272.407 " fill="#000000"/>
<path class="atom-1" d="M 180.528 270.187 Q 181.039 268.871, 182.257 268.144 Q 183.475 267.397, 185.165 267.397 Q 187.267 267.397, 188.446 268.537 Q 189.625 269.676, 189.625 271.7 Q 189.625 273.763, 188.092 275.688 Q 186.579 277.614, 183.436 279.893 L 189.861 279.893 L 189.861 281.465 L 180.489 281.465 L 180.489 280.148 Q 183.082 278.301, 184.615 276.926 Q 186.167 275.551, 186.913 274.313 Q 187.66 273.075, 187.66 271.798 Q 187.66 270.462, 186.992 269.715 Q 186.324 268.969, 185.165 268.969 Q 184.045 268.969, 183.298 269.421 Q 182.552 269.873, 182.021 270.875 L 180.528 270.187 " fill="#000000"/>
<path class="atom-2" d="M 207.25 296.915 L 211.808 304.282 Q 212.26 305.009, 212.987 306.326 Q 213.714 307.642, 213.754 307.721 L 213.754 296.915 L 215.601 296.915 L 215.601 310.825 L 213.695 310.825 L 208.802 302.77 Q 208.233 301.826, 207.624 300.746 Q 207.034 299.665, 206.857 299.331 L 206.857 310.825 L 205.05 310.825 L 205.05 296.915 L 207.25 296.915 " fill="#0000FF"/>
<path class="atom-2" d="M 217.074 308.526 L 219.039 308.526 L 219.039 310.491 L 217.074 310.491 L 217.074 308.526 M 217.074 301.768 L 219.039 301.768 L 219.039 303.732 L 217.074 303.732 L 217.074 301.768 " fill="#0000FF"/>
<path class="atom-2" d="M 226.544 303.497 Q 227.9 303.889, 228.548 304.774 Q 229.216 305.638, 229.216 307.013 Q 229.216 308.192, 228.627 309.116 Q 228.038 310.02, 226.957 310.53 Q 225.876 311.022, 224.462 311.022 Q 222.968 311.022, 221.848 310.511 Q 220.748 309.98, 219.864 308.919 L 220.984 307.78 Q 221.848 308.723, 222.575 309.096 Q 223.302 309.45, 224.462 309.45 Q 225.719 309.45, 226.485 308.782 Q 227.252 308.094, 227.252 306.994 Q 227.252 305.579, 226.446 304.95 Q 225.66 304.302, 223.951 304.302 L 222.949 304.302 L 222.949 302.887 L 223.833 302.887 Q 225.346 302.868, 226.151 302.219 Q 226.957 301.551, 226.957 300.314 Q 226.957 299.41, 226.289 298.879 Q 225.621 298.329, 224.481 298.329 Q 223.322 298.329, 222.595 298.742 Q 221.888 299.154, 221.338 300.196 L 219.982 299.469 Q 220.473 298.31, 221.652 297.543 Q 222.831 296.757, 224.481 296.757 Q 226.525 296.757, 227.723 297.72 Q 228.922 298.683, 228.922 300.314 Q 228.922 301.434, 228.313 302.239 Q 227.704 303.045, 226.544 303.497 " fill="#0000FF"/>
<path class="atom-3" d="M 209.979 345.619 L 211.865 345.619 L 211.865 351.533 L 218.978 351.533 L 218.978 345.619 L 220.864 345.619 L 220.864 359.53 L 218.978 359.53 L 218.978 353.105 L 211.865 353.105 L 211.865 359.53 L 209.979 359.53 L 209.979 345.619 " fill="#000000"/>
<path class="atom-3" d="M 222.338 357.231 L 224.302 357.231 L 224.302 359.196 L 222.338 359.196 L 222.338 357.231 M 222.338 350.472 L 224.302 350.472 L 224.302 352.437 L 222.338 352.437 L 222.338 350.472 " fill="#000000"/>
<path class="atom-3" d="M 233.93 354.755 L 235.6 354.755 L 235.6 356.327 L 233.93 356.327 L 233.93 359.53 L 232.083 359.53 L 232.083 356.327 L 224.892 356.327 L 224.892 355.089 L 230.983 345.619 L 233.93 345.619 L 233.93 354.755 M 227.171 354.755 L 232.083 354.755 L 232.083 346.877 L 227.171 354.755 " fill="#000000"/>
<path class="atom-4" d="M 249.845 284.427 Q 249.845 280.969, 251.456 279.162 Q 253.087 277.335, 256.172 277.335 Q 259.04 277.335, 260.573 279.358 L 259.276 280.419 Q 258.156 278.946, 256.172 278.946 Q 254.069 278.946, 252.949 280.36 Q 251.849 281.755, 251.849 284.427 Q 251.849 287.178, 252.989 288.593 Q 254.148 290.007, 256.388 290.007 Q 257.92 290.007, 259.708 289.084 L 260.258 290.558 Q 259.531 291.029, 258.431 291.304 Q 257.331 291.579, 256.113 291.579 Q 253.087 291.579, 251.456 289.732 Q 249.845 287.885, 249.845 284.427 " fill="#000000"/>
<path class="atom-4" d="M 262.046 289.104 L 264.011 289.104 L 264.011 291.068 L 262.046 291.068 L 262.046 289.104 M 262.046 282.345 L 264.011 282.345 L 264.011 284.31 L 262.046 284.31 L 262.046 282.345 " fill="#000000"/>
<path class="atom-4" d="M 269.964 282.698 Q 271.182 282.698, 272.184 283.229 Q 273.186 283.74, 273.756 284.722 Q 274.326 285.685, 274.326 287.001 Q 274.326 288.436, 273.619 289.477 Q 272.931 290.499, 271.791 291.029 Q 270.652 291.56, 269.355 291.56 Q 268.078 291.56, 266.899 291.088 Q 265.72 290.616, 264.915 289.713 L 266.094 288.495 Q 266.742 289.202, 267.626 289.595 Q 268.51 289.968, 269.414 289.968 Q 270.652 289.968, 271.497 289.202 Q 272.361 288.436, 272.361 287.041 Q 272.361 285.567, 271.497 284.879 Q 270.652 284.172, 269.296 284.172 Q 268.078 284.172, 266.722 284.703 L 265.642 284.192 L 266.31 277.492 L 273.462 277.492 L 273.265 279.064 L 267.921 279.064 L 267.508 283.19 Q 268.746 282.698, 269.964 282.698 " fill="#000000"/>
<path class="atom-5" d="M 170.845 225.707 Q 170.845 222.249, 172.456 220.441 Q 174.087 218.614, 177.172 218.614 Q 180.04 218.614, 181.573 220.638 L 180.276 221.699 Q 179.156 220.225, 177.172 220.225 Q 175.07 220.225, 173.95 221.64 Q 172.849 223.035, 172.849 225.707 Q 172.849 228.457, 173.989 229.872 Q 175.148 231.287, 177.388 231.287 Q 178.92 231.287, 180.708 230.363 L 181.259 231.837 Q 180.532 232.308, 179.431 232.583 Q 178.331 232.858, 177.113 232.858 Q 174.087 232.858, 172.456 231.012 Q 170.845 229.165, 170.845 225.707 " fill="#000000"/>
<path class="atom-5" d="M 183.046 230.383 L 185.011 230.383 L 185.011 232.348 L 183.046 232.348 L 183.046 230.383 M 183.046 223.624 L 185.011 223.624 L 185.011 225.589 L 183.046 225.589 L 183.046 223.624 " fill="#000000"/>
<path class="atom-5" d="M 191.79 223.997 Q 193.008 223.997, 193.971 224.528 Q 194.933 225.058, 195.464 226.021 Q 195.994 226.984, 195.994 228.202 Q 195.994 229.558, 195.385 230.619 Q 194.796 231.66, 193.735 232.249 Q 192.674 232.839, 191.318 232.839 Q 188.843 232.839, 187.585 231.169 Q 186.347 229.479, 186.347 226.139 Q 186.347 222.445, 187.88 220.539 Q 189.432 218.614, 192.399 218.614 Q 193.263 218.614, 193.99 218.81 Q 194.737 219.007, 195.444 219.419 L 194.678 220.736 Q 193.656 220.186, 192.418 220.186 Q 190.454 220.186, 189.452 221.463 Q 188.45 222.72, 188.332 225.333 Q 189.039 224.685, 189.923 224.351 Q 190.827 223.997, 191.79 223.997 M 191.338 231.228 Q 192.084 231.228, 192.694 230.835 Q 193.322 230.442, 193.676 229.754 Q 194.03 229.066, 194.03 228.222 Q 194.03 226.984, 193.342 226.276 Q 192.654 225.569, 191.436 225.569 Q 190.591 225.569, 189.746 225.923 Q 188.921 226.257, 188.332 226.846 Q 188.41 229.145, 189.137 230.186 Q 189.864 231.228, 191.338 231.228 " fill="#000000"/>
<path class="atom-6" d="M 81.1122 264.552 Q 81.1122 261.094, 82.7234 259.287 Q 84.3541 257.459, 87.4388 257.459 Q 90.3074 257.459, 91.8399 259.483 L 90.5432 260.544 Q 89.4232 259.07, 87.4388 259.07 Q 85.3365 259.07, 84.2166 260.485 Q 83.1163 261.88, 83.1163 264.552 Q 83.1163 267.303, 84.2559 268.717 Q 85.4151 270.132, 87.6549 270.132 Q 89.1875 270.132, 90.9754 269.209 L 91.5256 270.682 Q 90.7986 271.154, 89.6983 271.429 Q 88.598 271.704, 87.3799 271.704 Q 84.3541 271.704, 82.7234 269.857 Q 81.1122 268.01, 81.1122 264.552 " fill="#000000"/>
<path class="atom-6" d="M 93.3135 269.228 L 95.2783 269.228 L 95.2783 271.193 L 93.3135 271.193 L 93.3135 269.228 M 93.3135 262.47 L 95.2783 262.47 L 95.2783 264.434 L 93.3135 264.434 L 93.3135 262.47 " fill="#000000"/>
<path class="atom-6" d="M 102.921 259.188 L 95.6319 259.188 L 95.6319 257.617 L 104.866 257.617 L 104.866 259.012 L 99.2471 271.527 L 97.3609 271.527 L 102.921 259.188 " fill="#000000"/>
<path class="atom-7" d="M 131.432 196.346 Q 131.432 192.888, 133.043 191.081 Q 134.674 189.253, 137.759 189.253 Q 140.627 189.253, 142.16 191.277 L 140.863 192.338 Q 139.743 190.865, 137.759 190.865 Q 135.656 190.865, 134.537 192.279 Q 133.436 193.674, 133.436 196.346 Q 133.436 199.097, 134.576 200.512 Q 135.735 201.926, 137.975 201.926 Q 139.507 201.926, 141.295 201.003 L 141.845 202.476 Q 141.119 202.948, 140.018 203.223 Q 138.918 203.498, 137.7 203.498 Q 134.674 203.498, 133.043 201.651 Q 131.432 199.804, 131.432 196.346 " fill="#000000"/>
<path class="atom-7" d="M 143.633 201.022 L 145.598 201.022 L 145.598 202.987 L 143.633 202.987 L 143.633 201.022 M 143.633 194.264 L 145.598 194.264 L 145.598 196.228 L 143.633 196.228 L 143.633 194.264 " fill="#000000"/>
<path class="atom-7" d="M 153.909 195.953 Q 155.186 196.503, 155.913 197.329 Q 156.64 198.134, 156.64 199.51 Q 156.64 200.688, 156.031 201.612 Q 155.422 202.516, 154.322 203.027 Q 153.241 203.518, 151.807 203.518 Q 149.488 203.518, 148.152 202.457 Q 146.816 201.376, 146.816 199.51 Q 146.816 198.37, 147.406 197.525 Q 147.995 196.661, 149.213 196.012 Q 148.31 195.501, 147.818 194.755 Q 147.327 193.989, 147.327 192.81 Q 147.327 191.179, 148.506 190.216 Q 149.705 189.253, 151.728 189.253 Q 153.752 189.253, 154.931 190.216 Q 156.129 191.179, 156.129 192.81 Q 156.129 193.831, 155.56 194.598 Q 155.009 195.344, 153.909 195.953 M 151.728 190.727 Q 150.569 190.727, 149.921 191.277 Q 149.292 191.827, 149.292 192.81 Q 149.292 193.537, 149.724 194.028 Q 150.156 194.499, 150.766 194.774 Q 151.394 195.05, 152.593 195.462 Q 153.438 194.873, 153.791 194.244 Q 154.165 193.615, 154.165 192.81 Q 154.165 191.827, 153.516 191.277 Q 152.888 190.727, 151.728 190.727 M 151.807 202.044 Q 153.104 202.044, 153.89 201.356 Q 154.675 200.649, 154.675 199.49 Q 154.675 198.743, 154.263 198.272 Q 153.85 197.8, 153.222 197.525 Q 152.612 197.25, 151.512 196.896 L 150.628 196.602 Q 149.646 197.191, 149.213 197.898 Q 148.781 198.586, 148.781 199.49 Q 148.781 200.649, 149.606 201.356 Q 150.432 202.044, 151.807 202.044 " fill="#000000"/>
<path class="atom-8" d="M 86.4355 215.769 Q 86.4355 212.311, 88.0466 210.503 Q 89.6774 208.676, 92.7621 208.676 Q 95.6306 208.676, 97.1632 210.7 L 95.8664 211.761 Q 94.7465 210.287, 92.7621 210.287 Q 90.6598 210.287, 89.5398 211.702 Q 88.4396 213.097, 88.4396 215.769 Q 88.4396 218.52, 89.5791 219.934 Q 90.7384 221.349, 92.9782 221.349 Q 94.5107 221.349, 96.2987 220.426 L 96.8488 221.899 Q 96.1218 222.371, 95.0216 222.646 Q 93.9213 222.921, 92.7031 222.921 Q 89.6774 222.921, 88.0466 221.074 Q 86.4355 219.227, 86.4355 215.769 " fill="#000000"/>
<path class="atom-8" d="M 98.6368 220.445 L 100.602 220.445 L 100.602 222.41 L 98.6368 222.41 L 98.6368 220.445 M 98.6368 213.686 L 100.602 213.686 L 100.602 215.651 L 98.6368 215.651 L 98.6368 213.686 " fill="#000000"/>
<path class="atom-8" d="M 106.358 208.676 Q 108.834 208.676, 110.072 210.366 Q 111.329 212.036, 111.329 215.376 Q 111.329 219.07, 109.777 220.995 Q 108.245 222.901, 105.278 222.901 Q 104.413 222.901, 103.667 222.705 Q 102.94 222.508, 102.232 222.096 L 102.999 220.779 Q 104.02 221.329, 105.258 221.329 Q 107.223 221.329, 108.225 220.072 Q 109.227 218.795, 109.345 216.182 Q 108.637 216.83, 107.734 217.184 Q 106.85 217.518, 105.887 217.518 Q 104.669 217.518, 103.706 216.987 Q 102.743 216.457, 102.213 215.494 Q 101.682 214.531, 101.682 213.313 Q 101.682 211.957, 102.272 210.916 Q 102.881 209.855, 103.942 209.266 Q 105.003 208.676, 106.358 208.676 M 103.647 213.293 Q 103.647 214.531, 104.335 215.239 Q 105.022 215.946, 106.24 215.946 Q 107.085 215.946, 107.91 215.612 Q 108.755 215.258, 109.345 214.669 Q 109.266 212.37, 108.539 211.329 Q 107.812 210.287, 106.339 210.287 Q 105.592 210.287, 104.963 210.68 Q 104.354 211.073, 104.001 211.761 Q 103.647 212.449, 103.647 213.293 " fill="#000000"/>
<path class="atom-9" d="M 125.484 335.76 L 127.371 335.76 L 127.371 341.674 L 134.483 341.674 L 134.483 335.76 L 136.369 335.76 L 136.369 349.671 L 134.483 349.671 L 134.483 343.246 L 127.371 343.246 L 127.371 349.671 L 125.484 349.671 L 125.484 335.76 " fill="#000000"/>
<path class="atom-9" d="M 137.843 347.372 L 139.808 347.372 L 139.808 349.337 L 137.843 349.337 L 137.843 347.372 M 137.843 340.613 L 139.808 340.613 L 139.808 342.578 L 137.843 342.578 L 137.843 340.613 " fill="#000000"/>
<path class="atom-9" d="M 141.635 348.099 L 144.68 348.099 L 144.68 337.705 L 141.32 338.747 L 140.869 337.587 L 145.132 335.681 L 146.527 335.917 L 146.527 348.099 L 149.258 348.099 L 149.258 349.671 L 141.635 349.671 L 141.635 348.099 " fill="#000000"/>
<path class="atom-9" d="M 155.545 349.828 Q 152.991 349.828, 151.714 347.942 Q 150.457 346.055, 150.457 342.696 Q 150.457 339.336, 151.714 337.469 Q 152.972 335.603, 155.545 335.603 Q 158.119 335.603, 159.377 337.469 Q 160.634 339.336, 160.634 342.696 Q 160.634 346.055, 159.357 347.942 Q 158.1 349.828, 155.545 349.828 M 155.545 348.256 Q 157.058 348.256, 157.864 346.861 Q 158.669 345.446, 158.669 342.696 Q 158.669 339.965, 157.864 338.57 Q 157.058 337.175, 155.545 337.175 Q 154.052 337.175, 153.227 338.57 Q 152.421 339.965, 152.421 342.696 Q 152.421 345.446, 153.227 346.861 Q 154.052 348.256, 155.545 348.256 " fill="#000000"/>
<path class="atom-10" d="M 227.192 199.309 L 229.078 199.309 L 229.078 205.223 L 236.19 205.223 L 236.19 199.309 L 238.077 199.309 L 238.077 213.22 L 236.19 213.22 L 236.19 206.795 L 229.078 206.795 L 229.078 213.22 L 227.192 213.22 L 227.192 199.309 " fill="#000000"/>
<path class="atom-10" d="M 239.55 210.921 L 241.515 210.921 L 241.515 212.886 L 239.55 212.886 L 239.55 210.921 M 239.55 204.162 L 241.515 204.162 L 241.515 206.127 L 239.55 206.127 L 239.55 204.162 " fill="#000000"/>
<path class="atom-10" d="M 243.342 211.648 L 246.388 211.648 L 246.388 201.254 L 243.028 202.295 L 242.576 201.136 L 246.84 199.23 L 248.234 199.466 L 248.234 211.648 L 250.966 211.648 L 250.966 213.22 L 243.342 213.22 L 243.342 211.648 " fill="#000000"/>
<path class="atom-10" d="M 252.793 211.648 L 255.838 211.648 L 255.838 201.254 L 252.478 202.295 L 252.027 201.136 L 256.29 199.23 L 257.685 199.466 L 257.685 211.648 L 260.416 211.648 L 260.416 213.22 L 252.793 213.22 L 252.793 211.648 " fill="#000000"/>
<path class="atom-11" d="M 22.7273 277.039 L 24.6135 277.039 L 24.6135 282.953 L 31.7259 282.953 L 31.7259 277.039 L 33.6121 277.039 L 33.6121 290.95 L 31.7259 290.95 L 31.7259 284.525 L 24.6135 284.525 L 24.6135 290.95 L 22.7273 290.95 L 22.7273 277.039 " fill="#000000"/>
<path class="atom-11" d="M 35.0857 288.651 L 37.0505 288.651 L 37.0505 290.616 L 35.0857 290.616 L 35.0857 288.651 M 35.0857 281.892 L 37.0505 281.892 L 37.0505 283.857 L 35.0857 283.857 L 35.0857 281.892 " fill="#000000"/>
<path class="atom-11" d="M 38.8777 289.378 L 41.9231 289.378 L 41.9231 278.984 L 38.5634 280.026 L 38.1115 278.867 L 42.375 276.961 L 43.77 277.196 L 43.77 289.378 L 46.5011 289.378 L 46.5011 290.95 L 38.8777 290.95 L 38.8777 289.378 " fill="#000000"/>
<path class="atom-11" d="M 47.5227 279.672 Q 48.0336 278.356, 49.2517 277.629 Q 50.4699 276.882, 52.1596 276.882 Q 54.2619 276.882, 55.4408 278.022 Q 56.6196 279.161, 56.6196 281.185 Q 56.6196 283.248, 55.0871 285.173 Q 53.5742 287.099, 50.4306 289.378 L 56.8554 289.378 L 56.8554 290.95 L 47.4834 290.95 L 47.4834 289.633 Q 50.0769 287.787, 51.6095 286.411 Q 53.1616 285.036, 53.9083 283.798 Q 54.6549 282.56, 54.6549 281.283 Q 54.6549 279.947, 53.9868 279.201 Q 53.3188 278.454, 52.1596 278.454 Q 51.0397 278.454, 50.2931 278.906 Q 49.5465 279.358, 49.016 280.36 L 47.5227 279.672 " fill="#000000"/>
<path class="atom-12" d="M 148.434 140.627 L 150.321 140.627 L 150.321 146.541 L 157.433 146.541 L 157.433 140.627 L 159.319 140.627 L 159.319 154.538 L 157.433 154.538 L 157.433 148.113 L 150.321 148.113 L 150.321 154.538 L 148.434 154.538 L 148.434 140.627 " fill="#000000"/>
<path class="atom-12" d="M 160.793 152.239 L 162.758 152.239 L 162.758 154.204 L 160.793 154.204 L 160.793 152.239 M 160.793 145.48 L 162.758 145.48 L 162.758 147.445 L 160.793 147.445 L 160.793 145.48 " fill="#000000"/>
<path class="atom-12" d="M 164.585 152.966 L 167.63 152.966 L 167.63 142.573 L 164.27 143.614 L 163.819 142.455 L 168.082 140.549 L 169.477 140.785 L 169.477 152.966 L 172.208 152.966 L 172.208 154.538 L 164.585 154.538 L 164.585 152.966 " fill="#000000"/>
<path class="atom-12" d="M 179.714 147.209 Q 181.069 147.602, 181.718 148.487 Q 182.386 149.351, 182.386 150.726 Q 182.386 151.905, 181.796 152.829 Q 181.207 153.733, 180.126 154.243 Q 179.046 154.735, 177.631 154.735 Q 176.138 154.735, 175.018 154.224 Q 173.918 153.693, 173.033 152.632 L 174.153 151.493 Q 175.018 152.436, 175.745 152.809 Q 176.472 153.163, 177.631 153.163 Q 178.888 153.163, 179.655 152.495 Q 180.421 151.807, 180.421 150.707 Q 180.421 149.292, 179.615 148.663 Q 178.829 148.015, 177.12 148.015 L 176.118 148.015 L 176.118 146.6 L 177.002 146.6 Q 178.515 146.581, 179.321 145.932 Q 180.126 145.264, 180.126 144.027 Q 180.126 143.123, 179.458 142.592 Q 178.79 142.042, 177.651 142.042 Q 176.491 142.042, 175.764 142.455 Q 175.057 142.867, 174.507 143.909 L 173.151 143.182 Q 173.642 142.022, 174.821 141.256 Q 176 140.47, 177.651 140.47 Q 179.694 140.47, 180.892 141.433 Q 182.091 142.396, 182.091 144.027 Q 182.091 145.146, 181.482 145.952 Q 180.873 146.758, 179.714 147.209 " fill="#000000"/>
<path class="atom-13" d="M 289.715 265.005 Q 289.715 261.547, 291.326 259.739 Q 292.957 257.912, 296.042 257.912 Q 298.91 257.912, 300.443 259.936 L 299.146 260.997 Q 298.026 259.523, 296.042 259.523 Q 293.939 259.523, 292.82 260.938 Q 291.719 262.333, 291.719 265.005 Q 291.719 267.755, 292.859 269.17 Q 294.018 270.585, 296.258 270.585 Q 297.79 270.585, 299.578 269.661 L 300.128 271.135 Q 299.402 271.606, 298.301 271.881 Q 297.201 272.156, 295.983 272.156 Q 292.957 272.156, 291.326 270.31 Q 289.715 268.463, 289.715 265.005 " fill="#000000"/>
<path class="atom-13" d="M 301.916 269.681 L 303.881 269.681 L 303.881 271.646 L 301.916 271.646 L 301.916 269.681 M 301.916 262.922 L 303.881 262.922 L 303.881 264.887 L 301.916 264.887 L 301.916 262.922 " fill="#000000"/>
<path class="atom-13" d="M 305.708 270.408 L 308.754 270.408 L 308.754 260.014 L 305.394 261.055 L 304.942 259.896 L 309.206 257.99 L 310.601 258.226 L 310.601 270.408 L 313.332 270.408 L 313.332 271.98 L 305.708 271.98 L 305.708 270.408 " fill="#000000"/>
<path class="atom-13" d="M 322.959 267.205 L 324.629 267.205 L 324.629 268.777 L 322.959 268.777 L 322.959 271.98 L 321.112 271.98 L 321.112 268.777 L 313.921 268.777 L 313.921 267.539 L 320.012 258.069 L 322.959 258.069 L 322.959 267.205 M 316.2 267.205 L 321.112 267.205 L 321.112 259.326 L 316.2 267.205 " fill="#000000"/>
<path class="atom-14" d="M 329.502 294.365 Q 329.502 290.907, 331.113 289.099 Q 332.743 287.272, 335.828 287.272 Q 338.697 287.272, 340.229 289.296 L 338.932 290.357 Q 337.813 288.883, 335.828 288.883 Q 333.726 288.883, 332.606 290.298 Q 331.506 291.693, 331.506 294.365 Q 331.506 297.116, 332.645 298.53 Q 333.804 299.945, 336.044 299.945 Q 337.577 299.945, 339.365 299.022 L 339.915 300.495 Q 339.188 300.967, 338.088 301.242 Q 336.987 301.517, 335.769 301.517 Q 332.743 301.517, 331.113 299.67 Q 329.502 297.823, 329.502 294.365 " fill="#000000"/>
<path class="atom-14" d="M 341.703 299.041 L 343.668 299.041 L 343.668 301.006 L 341.703 301.006 L 341.703 299.041 M 341.703 292.282 L 343.668 292.282 L 343.668 294.247 L 341.703 294.247 L 341.703 292.282 " fill="#000000"/>
<path class="atom-14" d="M 345.495 299.768 L 348.54 299.768 L 348.54 289.375 L 345.18 290.416 L 344.729 289.257 L 348.992 287.351 L 350.387 287.587 L 350.387 299.768 L 353.118 299.768 L 353.118 301.34 L 345.495 301.34 L 345.495 299.768 " fill="#000000"/>
<path class="atom-14" d="M 359.071 292.636 Q 360.29 292.636, 361.292 293.167 Q 362.294 293.677, 362.863 294.66 Q 363.433 295.623, 363.433 296.939 Q 363.433 298.373, 362.726 299.415 Q 362.038 300.436, 360.899 300.967 Q 359.759 301.497, 358.462 301.497 Q 357.185 301.497, 356.006 301.026 Q 354.828 300.554, 354.022 299.65 L 355.201 298.432 Q 355.849 299.139, 356.733 299.532 Q 357.617 299.906, 358.521 299.906 Q 359.759 299.906, 360.604 299.139 Q 361.468 298.373, 361.468 296.978 Q 361.468 295.505, 360.604 294.817 Q 359.759 294.11, 358.403 294.11 Q 357.185 294.11, 355.83 294.64 L 354.749 294.129 L 355.417 287.429 L 362.569 287.429 L 362.372 289.001 L 357.028 289.001 L 356.615 293.127 Q 357.853 292.636, 359.071 292.636 " fill="#000000"/>
<path class="atom-15" d="M 295.664 216.222 Q 295.664 212.764, 297.275 210.956 Q 298.906 209.129, 301.99 209.129 Q 304.859 209.129, 306.392 211.152 L 305.095 212.213 Q 303.975 210.74, 301.99 210.74 Q 299.888 210.74, 298.768 212.154 Q 297.668 213.549, 297.668 216.222 Q 297.668 218.972, 298.808 220.387 Q 299.967 221.802, 302.207 221.802 Q 303.739 221.802, 305.527 220.878 L 306.077 222.352 Q 305.35 222.823, 304.25 223.098 Q 303.15 223.373, 301.932 223.373 Q 298.906 223.373, 297.275 221.526 Q 295.664 219.68, 295.664 216.222 " fill="#000000"/>
<path class="atom-15" d="M 307.865 220.898 L 309.83 220.898 L 309.83 222.862 L 307.865 222.862 L 307.865 220.898 M 307.865 214.139 L 309.83 214.139 L 309.83 216.104 L 307.865 216.104 L 307.865 214.139 " fill="#000000"/>
<path class="atom-15" d="M 311.657 221.625 L 314.703 221.625 L 314.703 211.231 L 311.343 212.272 L 310.891 211.113 L 315.154 209.207 L 316.549 209.443 L 316.549 221.625 L 319.28 221.625 L 319.28 223.197 L 311.657 223.197 L 311.657 221.625 " fill="#000000"/>
<path class="atom-15" d="M 326.059 214.512 Q 327.277 214.512, 328.24 215.043 Q 329.203 215.573, 329.733 216.536 Q 330.264 217.499, 330.264 218.717 Q 330.264 220.073, 329.654 221.133 Q 329.065 222.175, 328.004 222.764 Q 326.943 223.354, 325.587 223.354 Q 323.112 223.354, 321.854 221.684 Q 320.617 219.994, 320.617 216.654 Q 320.617 212.96, 322.149 211.054 Q 323.701 209.129, 326.668 209.129 Q 327.533 209.129, 328.26 209.325 Q 329.006 209.522, 329.713 209.934 L 328.947 211.251 Q 327.925 210.701, 326.688 210.701 Q 324.723 210.701, 323.721 211.978 Q 322.719 213.235, 322.601 215.848 Q 323.308 215.2, 324.192 214.866 Q 325.096 214.512, 326.059 214.512 M 325.607 221.743 Q 326.354 221.743, 326.963 221.35 Q 327.591 220.957, 327.945 220.269 Q 328.299 219.581, 328.299 218.736 Q 328.299 217.499, 327.611 216.791 Q 326.923 216.084, 325.705 216.084 Q 324.86 216.084, 324.016 216.438 Q 323.19 216.772, 322.601 217.361 Q 322.68 219.66, 323.407 220.701 Q 324.133 221.743, 325.607 221.743 " fill="#000000"/>
<path class="atom-16" d="M 374.822 274.942 Q 374.822 271.484, 376.433 269.677 Q 378.063 267.849, 381.148 267.849 Q 384.017 267.849, 385.549 269.873 L 384.253 270.934 Q 383.133 269.461, 381.148 269.461 Q 379.046 269.461, 377.926 270.875 Q 376.826 272.27, 376.826 274.942 Q 376.826 277.693, 377.965 279.108 Q 379.124 280.522, 381.364 280.522 Q 382.897 280.522, 384.685 279.599 L 385.235 281.072 Q 384.508 281.544, 383.408 281.819 Q 382.307 282.094, 381.089 282.094 Q 378.063 282.094, 376.433 280.247 Q 374.822 278.4, 374.822 274.942 " fill="#000000"/>
<path class="atom-16" d="M 387.023 279.618 L 388.988 279.618 L 388.988 281.583 L 387.023 281.583 L 387.023 279.618 M 387.023 272.86 L 388.988 272.86 L 388.988 274.824 L 387.023 274.824 L 387.023 272.86 " fill="#000000"/>
<path class="atom-16" d="M 390.815 280.345 L 393.86 280.345 L 393.86 269.952 L 390.5 270.993 L 390.049 269.834 L 394.312 267.928 L 395.707 268.164 L 395.707 280.345 L 398.438 280.345 L 398.438 281.917 L 390.815 281.917 L 390.815 280.345 " fill="#000000"/>
<path class="atom-16" d="M 406.081 269.578 L 398.792 269.578 L 398.792 268.007 L 408.026 268.007 L 408.026 269.402 L 402.407 281.917 L 400.521 281.917 L 406.081 269.578 " fill="#000000"/>
<path class="atom-17" d="M 340.743 196.799 Q 340.743 193.341, 342.354 191.533 Q 343.985 189.706, 347.07 189.706 Q 349.938 189.706, 351.471 191.73 L 350.174 192.791 Q 349.054 191.317, 347.07 191.317 Q 344.967 191.317, 343.848 192.732 Q 342.747 194.127, 342.747 196.799 Q 342.747 199.549, 343.887 200.964 Q 345.046 202.379, 347.286 202.379 Q 348.818 202.379, 350.606 201.455 L 351.157 202.929 Q 350.43 203.4, 349.329 203.676 Q 348.229 203.951, 347.011 203.951 Q 343.985 203.951, 342.354 202.104 Q 340.743 200.257, 340.743 196.799 " fill="#000000"/>
<path class="atom-17" d="M 352.944 201.475 L 354.909 201.475 L 354.909 203.44 L 352.944 203.44 L 352.944 201.475 M 352.944 194.716 L 354.909 194.716 L 354.909 196.681 L 352.944 196.681 L 352.944 194.716 " fill="#000000"/>
<path class="atom-17" d="M 356.737 202.202 L 359.782 202.202 L 359.782 191.808 L 356.422 192.85 L 355.97 191.69 L 360.234 189.785 L 361.629 190.02 L 361.629 202.202 L 364.36 202.202 L 364.36 203.774 L 356.737 203.774 L 356.737 202.202 " fill="#000000"/>
<path class="atom-17" d="M 372.671 196.406 Q 373.948 196.956, 374.675 197.781 Q 375.402 198.587, 375.402 199.962 Q 375.402 201.141, 374.793 202.064 Q 374.184 202.968, 373.083 203.479 Q 372.003 203.97, 370.569 203.97 Q 368.25 203.97, 366.914 202.909 Q 365.578 201.829, 365.578 199.962 Q 365.578 198.823, 366.167 197.978 Q 366.757 197.113, 367.975 196.465 Q 367.071 195.954, 366.58 195.207 Q 366.089 194.441, 366.089 193.262 Q 366.089 191.631, 367.268 190.669 Q 368.466 189.706, 370.49 189.706 Q 372.514 189.706, 373.693 190.669 Q 374.891 191.631, 374.891 193.262 Q 374.891 194.284, 374.321 195.05 Q 373.771 195.797, 372.671 196.406 M 370.49 191.18 Q 369.331 191.18, 368.682 191.73 Q 368.054 192.28, 368.054 193.262 Q 368.054 193.989, 368.486 194.48 Q 368.918 194.952, 369.527 195.227 Q 370.156 195.502, 371.354 195.915 Q 372.199 195.325, 372.553 194.696 Q 372.926 194.068, 372.926 193.262 Q 372.926 192.28, 372.278 191.73 Q 371.649 191.18, 370.49 191.18 M 370.569 202.497 Q 371.865 202.497, 372.651 201.809 Q 373.437 201.102, 373.437 199.942 Q 373.437 199.196, 373.024 198.724 Q 372.612 198.253, 371.983 197.978 Q 371.374 197.703, 370.274 197.349 L 369.39 197.054 Q 368.407 197.644, 367.975 198.351 Q 367.543 199.039, 367.543 199.942 Q 367.543 201.102, 368.368 201.809 Q 369.193 202.497, 370.569 202.497 " fill="#000000"/>
<path class="atom-18" d="M 380.223 226.159 Q 380.223 222.701, 381.834 220.894 Q 383.464 219.066, 386.549 219.066 Q 389.418 219.066, 390.95 221.09 L 389.654 222.151 Q 388.534 220.677, 386.549 220.677 Q 384.447 220.677, 383.327 222.092 Q 382.227 223.487, 382.227 226.159 Q 382.227 228.91, 383.366 230.325 Q 384.525 231.739, 386.765 231.739 Q 388.298 231.739, 390.086 230.816 L 390.636 232.289 Q 389.909 232.761, 388.809 233.036 Q 387.708 233.311, 386.49 233.311 Q 383.464 233.311, 381.834 231.464 Q 380.223 229.617, 380.223 226.159 " fill="#000000"/>
<path class="atom-18" d="M 392.424 230.835 L 394.389 230.835 L 394.389 232.8 L 392.424 232.8 L 392.424 230.835 M 392.424 224.077 L 394.389 224.077 L 394.389 226.041 L 392.424 226.041 L 392.424 224.077 " fill="#000000"/>
<path class="atom-18" d="M 396.216 231.562 L 399.261 231.562 L 399.261 221.169 L 395.902 222.21 L 395.45 221.051 L 399.713 219.145 L 401.108 219.381 L 401.108 231.562 L 403.839 231.562 L 403.839 233.134 L 396.216 233.134 L 396.216 231.562 " fill="#000000"/>
<path class="atom-18" d="M 409.596 219.066 Q 412.072 219.066, 413.309 220.756 Q 414.567 222.426, 414.567 225.766 Q 414.567 229.46, 413.015 231.385 Q 411.482 233.291, 408.515 233.291 Q 407.651 233.291, 406.904 233.095 Q 406.177 232.898, 405.47 232.486 L 406.236 231.169 Q 407.258 231.719, 408.496 231.719 Q 410.461 231.719, 411.463 230.462 Q 412.465 229.185, 412.582 226.572 Q 411.875 227.22, 410.971 227.574 Q 410.087 227.908, 409.124 227.908 Q 407.906 227.908, 406.944 227.377 Q 405.981 226.847, 405.45 225.884 Q 404.92 224.921, 404.92 223.703 Q 404.92 222.348, 405.509 221.306 Q 406.118 220.245, 407.179 219.656 Q 408.24 219.066, 409.596 219.066 M 406.885 223.684 Q 406.885 224.921, 407.572 225.629 Q 408.26 226.336, 409.478 226.336 Q 410.323 226.336, 411.148 226.002 Q 411.993 225.648, 412.582 225.059 Q 412.504 222.76, 411.777 221.719 Q 411.05 220.677, 409.576 220.677 Q 408.83 220.677, 408.201 221.07 Q 407.592 221.463, 407.238 222.151 Q 406.885 222.839, 406.885 223.684 " fill="#000000"/>
<path class="atom-19" d="M 339.59 336.213 L 341.477 336.213 L 341.477 342.127 L 348.589 342.127 L 348.589 336.213 L 350.475 336.213 L 350.475 350.123 L 348.589 350.123 L 348.589 343.698 L 341.477 343.698 L 341.477 350.123 L 339.59 350.123 L 339.59 336.213 " fill="#000000"/>
<path class="atom-19" d="M 351.949 347.824 L 353.914 347.824 L 353.914 349.789 L 351.949 349.789 L 351.949 347.824 M 351.949 341.066 L 353.914 341.066 L 353.914 343.03 L 351.949 343.03 L 351.949 341.066 " fill="#000000"/>
<path class="atom-19" d="M 354.935 338.845 Q 355.446 337.529, 356.664 336.802 Q 357.882 336.055, 359.572 336.055 Q 361.674 336.055, 362.853 337.195 Q 364.032 338.335, 364.032 340.358 Q 364.032 342.421, 362.5 344.347 Q 360.987 346.272, 357.843 348.551 L 364.268 348.551 L 364.268 350.123 L 354.896 350.123 L 354.896 348.807 Q 357.489 346.96, 359.022 345.585 Q 360.574 344.209, 361.321 342.971 Q 362.067 341.734, 362.067 340.456 Q 362.067 339.12, 361.399 338.374 Q 360.731 337.627, 359.572 337.627 Q 358.452 337.627, 357.706 338.079 Q 356.959 338.531, 356.428 339.533 L 354.935 338.845 " fill="#000000"/>
<path class="atom-19" d="M 370.555 350.28 Q 368.001 350.28, 366.724 348.394 Q 365.466 346.508, 365.466 343.148 Q 365.466 339.788, 366.724 337.922 Q 367.981 336.055, 370.555 336.055 Q 373.129 336.055, 374.386 337.922 Q 375.644 339.788, 375.644 343.148 Q 375.644 346.508, 374.367 348.394 Q 373.109 350.28, 370.555 350.28 M 370.555 348.709 Q 372.068 348.709, 372.874 347.314 Q 373.679 345.899, 373.679 343.148 Q 373.679 340.417, 372.874 339.022 Q 372.068 337.627, 370.555 337.627 Q 369.062 337.627, 368.237 339.022 Q 367.431 340.417, 367.431 343.148 Q 367.431 345.899, 368.237 347.314 Q 369.062 348.709, 370.555 348.709 " fill="#000000"/>
<path class="atom-20" d="M 247.817 179.926 L 249.703 179.926 L 249.703 185.839 L 256.816 185.839 L 256.816 179.926 L 258.702 179.926 L 258.702 193.836 L 256.816 193.836 L 256.816 187.411 L 249.703 187.411 L 249.703 193.836 L 247.817 193.836 L 247.817 179.926 " fill="#000000"/>
<path class="atom-20" d="M 260.175 191.537 L 262.14 191.537 L 262.14 193.502 L 260.175 193.502 L 260.175 191.537 M 260.175 184.779 L 262.14 184.779 L 262.14 186.743 L 260.175 186.743 L 260.175 184.779 " fill="#000000"/>
<path class="atom-20" d="M 263.162 182.558 Q 263.673 181.242, 264.891 180.515 Q 266.109 179.768, 267.799 179.768 Q 269.901 179.768, 271.08 180.908 Q 272.259 182.047, 272.259 184.071 Q 272.259 186.134, 270.726 188.06 Q 269.213 189.985, 266.07 192.264 L 272.495 192.264 L 272.495 193.836 L 263.123 193.836 L 263.123 192.52 Q 265.716 190.673, 267.249 189.297 Q 268.801 187.922, 269.547 186.684 Q 270.294 185.447, 270.294 184.169 Q 270.294 182.833, 269.626 182.087 Q 268.958 181.34, 267.799 181.34 Q 266.679 181.34, 265.932 181.792 Q 265.186 182.244, 264.655 183.246 L 263.162 182.558 " fill="#000000"/>
<path class="atom-20" d="M 274.322 192.264 L 277.367 192.264 L 277.367 181.871 L 274.007 182.912 L 273.556 181.753 L 277.819 179.847 L 279.214 180.083 L 279.214 192.264 L 281.945 192.264 L 281.945 193.836 L 274.322 193.836 L 274.322 192.264 " fill="#000000"/>
<path class="atom-21" d="M 429.823 297.367 L 431.709 297.367 L 431.709 303.281 L 438.821 303.281 L 438.821 297.367 L 440.708 297.367 L 440.708 311.278 L 438.821 311.278 L 438.821 304.853 L 431.709 304.853 L 431.709 311.278 L 429.823 311.278 L 429.823 297.367 " fill="#000000"/>
<path class="atom-21" d="M 442.181 308.979 L 444.146 308.979 L 444.146 310.944 L 442.181 310.944 L 442.181 308.979 M 442.181 302.22 L 444.146 302.22 L 444.146 304.185 L 442.181 304.185 L 442.181 302.22 " fill="#000000"/>
<path class="atom-21" d="M 445.168 300 Q 445.678 298.683, 446.897 297.956 Q 448.115 297.21, 449.804 297.21 Q 451.907 297.21, 453.086 298.349 Q 454.265 299.489, 454.265 301.513 Q 454.265 303.576, 452.732 305.501 Q 451.219 307.427, 448.075 309.706 L 454.5 309.706 L 454.5 311.278 L 445.128 311.278 L 445.128 309.961 Q 447.722 308.114, 449.254 306.739 Q 450.807 305.364, 451.553 304.126 Q 452.3 302.888, 452.3 301.611 Q 452.3 300.275, 451.632 299.528 Q 450.964 298.782, 449.804 298.782 Q 448.685 298.782, 447.938 299.234 Q 447.191 299.685, 446.661 300.688 L 445.168 300 " fill="#000000"/>
<path class="atom-21" d="M 455.522 300 Q 456.033 298.683, 457.251 297.956 Q 458.469 297.21, 460.159 297.21 Q 462.261 297.21, 463.44 298.349 Q 464.619 299.489, 464.619 301.513 Q 464.619 303.576, 463.086 305.501 Q 461.573 307.427, 458.43 309.706 L 464.855 309.706 L 464.855 311.278 L 455.483 311.278 L 455.483 309.961 Q 458.076 308.114, 459.609 306.739 Q 461.161 305.364, 461.907 304.126 Q 462.654 302.888, 462.654 301.611 Q 462.654 300.275, 461.986 299.528 Q 461.318 298.782, 460.159 298.782 Q 459.039 298.782, 458.292 299.234 Q 457.546 299.685, 457.015 300.688 L 455.522 300 " fill="#000000"/>
<path class="atom-22" d="M 362.54 141.08 L 364.426 141.08 L 364.426 146.994 L 371.539 146.994 L 371.539 141.08 L 373.425 141.08 L 373.425 154.991 L 371.539 154.991 L 371.539 148.566 L 364.426 148.566 L 364.426 154.991 L 362.54 154.991 L 362.54 141.08 " fill="#000000"/>
<path class="atom-22" d="M 374.899 152.692 L 376.864 152.692 L 376.864 154.657 L 374.899 154.657 L 374.899 152.692 M 374.899 145.933 L 376.864 145.933 L 376.864 147.898 L 374.899 147.898 L 374.899 145.933 " fill="#000000"/>
<path class="atom-22" d="M 377.885 143.713 Q 378.396 142.396, 379.614 141.669 Q 380.832 140.923, 382.522 140.923 Q 384.624 140.923, 385.803 142.062 Q 386.982 143.202, 386.982 145.226 Q 386.982 147.289, 385.45 149.214 Q 383.937 151.14, 380.793 153.419 L 387.218 153.419 L 387.218 154.991 L 377.846 154.991 L 377.846 153.674 Q 380.439 151.827, 381.972 150.452 Q 383.524 149.077, 384.271 147.839 Q 385.017 146.601, 385.017 145.324 Q 385.017 143.988, 384.349 143.241 Q 383.681 142.495, 382.522 142.495 Q 381.402 142.495, 380.656 142.947 Q 379.909 143.398, 379.378 144.4 L 377.885 143.713 " fill="#000000"/>
<path class="atom-22" d="M 394.723 147.662 Q 396.079 148.055, 396.727 148.939 Q 397.395 149.804, 397.395 151.179 Q 397.395 152.358, 396.806 153.281 Q 396.217 154.185, 395.136 154.696 Q 394.055 155.187, 392.641 155.187 Q 391.147 155.187, 390.028 154.676 Q 388.927 154.146, 388.043 153.085 L 389.163 151.945 Q 390.028 152.888, 390.754 153.262 Q 391.481 153.615, 392.641 153.615 Q 393.898 153.615, 394.664 152.947 Q 395.431 152.26, 395.431 151.159 Q 395.431 149.745, 394.625 149.116 Q 393.839 148.468, 392.13 148.468 L 391.128 148.468 L 391.128 147.053 L 392.012 147.053 Q 393.525 147.033, 394.33 146.385 Q 395.136 145.717, 395.136 144.479 Q 395.136 143.575, 394.468 143.045 Q 393.8 142.495, 392.66 142.495 Q 391.501 142.495, 390.774 142.907 Q 390.067 143.32, 389.517 144.361 L 388.161 143.634 Q 388.652 142.475, 389.831 141.709 Q 391.01 140.923, 392.66 140.923 Q 394.704 140.923, 395.902 141.886 Q 397.101 142.848, 397.101 144.479 Q 397.101 145.599, 396.492 146.405 Q 395.883 147.21, 394.723 147.662 " fill="#000000"/>
<path class="atom-23" d="M 441.298 199.801 L 443.184 199.801 L 443.184 205.715 L 450.296 205.715 L 450.296 199.801 L 452.183 199.801 L 452.183 213.711 L 450.296 213.711 L 450.296 207.287 L 443.184 207.287 L 443.184 213.711 L 441.298 213.711 L 441.298 199.801 " fill="#000000"/>
<path class="atom-23" d="M 453.656 211.413 L 455.621 211.413 L 455.621 213.377 L 453.656 213.377 L 453.656 211.413 M 453.656 204.654 L 455.621 204.654 L 455.621 206.619 L 453.656 206.619 L 453.656 204.654 " fill="#000000"/>
<path class="atom-23" d="M 456.643 202.434 Q 457.153 201.117, 458.372 200.39 Q 459.59 199.644, 461.279 199.644 Q 463.382 199.644, 464.561 200.783 Q 465.739 201.923, 465.739 203.946 Q 465.739 206.009, 464.207 207.935 Q 462.694 209.86, 459.55 212.14 L 465.975 212.14 L 465.975 213.711 L 456.603 213.711 L 456.603 212.395 Q 459.197 210.548, 460.729 209.173 Q 462.281 207.797, 463.028 206.56 Q 463.775 205.322, 463.775 204.045 Q 463.775 202.709, 463.107 201.962 Q 462.439 201.215, 461.279 201.215 Q 460.16 201.215, 459.413 201.667 Q 458.666 202.119, 458.136 203.121 L 456.643 202.434 " fill="#000000"/>
<path class="atom-23" d="M 475.603 208.937 L 477.273 208.937 L 477.273 210.509 L 475.603 210.509 L 475.603 213.711 L 473.756 213.711 L 473.756 210.509 L 466.565 210.509 L 466.565 209.271 L 472.656 199.801 L 475.603 199.801 L 475.603 208.937 M 468.844 208.937 L 473.756 208.937 L 473.756 201.058 L 468.844 208.937 " fill="#000000"/>
<path class="atom-24" d="M 280.256 322.608 L 282.142 322.608 L 282.142 328.522 L 289.254 328.522 L 289.254 322.608 L 291.141 322.608 L 291.141 336.519 L 289.254 336.519 L 289.254 330.094 L 282.142 330.094 L 282.142 336.519 L 280.256 336.519 L 280.256 322.608 " fill="#000000"/>
<path class="atom-24" d="M 292.614 334.22 L 294.579 334.22 L 294.579 336.185 L 292.614 336.185 L 292.614 334.22 M 292.614 327.461 L 294.579 327.461 L 294.579 329.426 L 292.614 329.426 L 292.614 327.461 " fill="#000000"/>
<path class="atom-24" d="M 295.601 325.241 Q 296.111 323.924, 297.33 323.197 Q 298.548 322.451, 300.237 322.451 Q 302.34 322.451, 303.519 323.59 Q 304.698 324.73, 304.698 326.754 Q 304.698 328.817, 303.165 330.742 Q 301.652 332.668, 298.508 334.947 L 304.933 334.947 L 304.933 336.519 L 295.561 336.519 L 295.561 335.202 Q 298.155 333.355, 299.687 331.98 Q 301.239 330.605, 301.986 329.367 Q 302.733 328.129, 302.733 326.852 Q 302.733 325.516, 302.065 324.769 Q 301.397 324.023, 300.237 324.023 Q 299.118 324.023, 298.371 324.475 Q 297.624 324.926, 297.094 325.928 L 295.601 325.241 " fill="#000000"/>
<path class="atom-24" d="M 310.887 327.815 Q 312.105 327.815, 313.107 328.345 Q 314.109 328.856, 314.679 329.838 Q 315.248 330.801, 315.248 332.117 Q 315.248 333.552, 314.541 334.593 Q 313.853 335.615, 312.714 336.145 Q 311.574 336.676, 310.277 336.676 Q 309 336.676, 307.821 336.204 Q 306.643 335.733, 305.837 334.829 L 307.016 333.611 Q 307.664 334.318, 308.548 334.711 Q 309.433 335.084, 310.336 335.084 Q 311.574 335.084, 312.419 334.318 Q 313.284 333.552, 313.284 332.157 Q 313.284 330.683, 312.419 329.996 Q 311.574 329.288, 310.219 329.288 Q 309 329.288, 307.645 329.819 L 306.564 329.308 L 307.232 322.608 L 314.384 322.608 L 314.187 324.18 L 308.843 324.18 L 308.431 328.306 Q 309.668 327.815, 310.887 327.815 " fill="#000000"/>
<path class="atom-25" d="M 216.015 232.376 L 217.902 232.376 L 217.902 238.29 L 225.014 238.29 L 225.014 232.376 L 226.9 232.376 L 226.9 246.286 L 225.014 246.286 L 225.014 239.861 L 217.902 239.861 L 217.902 246.286 L 216.015 246.286 L 216.015 232.376 " fill="#000000"/>
<path class="atom-25" d="M 228.374 243.987 L 230.339 243.987 L 230.339 245.952 L 228.374 245.952 L 228.374 243.987 M 228.374 237.229 L 230.339 237.229 L 230.339 239.193 L 228.374 239.193 L 228.374 237.229 " fill="#000000"/>
<path class="atom-25" d="M 231.36 235.008 Q 231.871 233.692, 233.089 232.965 Q 234.308 232.218, 235.997 232.218 Q 238.1 232.218, 239.278 233.358 Q 240.457 234.498, 240.457 236.521 Q 240.457 238.584, 238.925 240.51 Q 237.412 242.435, 234.268 244.714 L 240.693 244.714 L 240.693 246.286 L 231.321 246.286 L 231.321 244.97 Q 233.915 243.123, 235.447 241.748 Q 236.999 240.372, 237.746 239.134 Q 238.493 237.897, 238.493 236.62 Q 238.493 235.283, 237.824 234.537 Q 237.156 233.79, 235.997 233.79 Q 234.877 233.79, 234.131 234.242 Q 233.384 234.694, 232.854 235.696 L 231.36 235.008 " fill="#000000"/>
<path class="atom-25" d="M 247.472 237.602 Q 248.69 237.602, 249.652 238.132 Q 250.615 238.663, 251.146 239.626 Q 251.676 240.588, 251.676 241.807 Q 251.676 243.162, 251.067 244.223 Q 250.478 245.265, 249.417 245.854 Q 248.356 246.443, 247 246.443 Q 244.524 246.443, 243.267 244.773 Q 242.029 243.084, 242.029 239.744 Q 242.029 236.05, 243.562 234.144 Q 245.114 232.218, 248.081 232.218 Q 248.945 232.218, 249.672 232.415 Q 250.419 232.611, 251.126 233.024 L 250.36 234.34 Q 249.338 233.79, 248.1 233.79 Q 246.135 233.79, 245.133 235.067 Q 244.131 236.325, 244.014 238.938 Q 244.721 238.29, 245.605 237.956 Q 246.509 237.602, 247.472 237.602 M 247.02 244.832 Q 247.766 244.832, 248.375 244.439 Q 249.004 244.046, 249.358 243.359 Q 249.711 242.671, 249.711 241.826 Q 249.711 240.588, 249.024 239.881 Q 248.336 239.174, 247.118 239.174 Q 246.273 239.174, 245.428 239.527 Q 244.603 239.861, 244.014 240.451 Q 244.092 242.75, 244.819 243.791 Q 245.546 244.832, 247.02 244.832 " fill="#000000"/>
<path class="atom-26" d="M 33.996 179.473 L 35.8821 179.473 L 35.8821 185.387 L 42.9946 185.387 L 42.9946 179.473 L 44.8808 179.473 L 44.8808 193.384 L 42.9946 193.384 L 42.9946 186.959 L 35.8821 186.959 L 35.8821 193.384 L 33.996 193.384 L 33.996 179.473 " fill="#000000"/>
<path class="atom-26" d="M 46.3544 191.085 L 48.3192 191.085 L 48.3192 193.05 L 46.3544 193.05 L 46.3544 191.085 M 46.3544 184.326 L 48.3192 184.326 L 48.3192 186.291 L 46.3544 186.291 L 46.3544 184.326 " fill="#000000"/>
<path class="atom-26" d="M 49.3409 182.106 Q 49.8517 180.789, 51.0699 180.062 Q 52.288 179.316, 53.9777 179.316 Q 56.08 179.316, 57.2589 180.455 Q 58.4378 181.595, 58.4378 183.619 Q 58.4378 185.682, 56.9052 187.607 Q 55.3924 189.533, 52.2487 191.812 L 58.6735 191.812 L 58.6735 193.384 L 49.3016 193.384 L 49.3016 192.067 Q 51.8951 190.22, 53.4276 188.845 Q 54.9798 187.47, 55.7264 186.232 Q 56.473 184.994, 56.473 183.717 Q 56.473 182.381, 55.805 181.634 Q 55.1369 180.888, 53.9777 180.888 Q 52.8578 180.888, 52.1112 181.34 Q 51.3646 181.791, 50.8341 182.793 L 49.3409 182.106 " fill="#000000"/>
<path class="atom-26" d="M 66.3165 181.045 L 59.0272 181.045 L 59.0272 179.473 L 68.2616 179.473 L 68.2616 180.868 L 62.6424 193.384 L 60.7562 193.384 L 66.3165 181.045 " fill="#000000"/>
<text x="201.4698402964869" y="289.11105935824304" font-size="12" font-family="Verdana" font-weight="bold" letter-spacing="0" text-anchor="start" fill="black" transform=" rotate(-53.292130 201.469840 289.111059)">1.1028</text><text x="25" y="490" font-size="12" font-family="Verdana" font-weight="bold" letter-spacing="0" text-anchor="start" fill="black">[#6:1]1(:[#6:2](-[#7:3](-[H:4])-[#6:5](-[#6:14]2:[#6:15](:[#6:17](:[#6:19](:[#6:18](:[#6:16]:2-[H:21])-[H:23])-[H:24])-[H:22])-[H:20])(-[H:25])-[H:26]):[#6:6](:[#6:8](:[#6:9](:[#6:7]:1-[H:12])-[H:27])-[H:13])-[H:11])-[H:10]</text></svg>
