<?xml version='1.0' encoding='ASCII' standalone='yes'?>
<svg xmlns="http://www.w3.org/2000/svg" xmlns:rdkit="http://www.rdkit.org/xml" xmlns:xlink="http://www.w3.org/1999/xlink" version="1.1" baseProfile="full" xml:space="preserve" width="500px" height="500px" viewBox="0 0 500 500">
<!-- END OF HEADER -->
<rect style="opacity:1.0;fill:#FFFFFF;stroke:none" width="500.0" height="500.0" x="0.0" y="0.0"> </rect>
<path d="M 250.8,310.1 L 278.7,276.3" style="fill:none;fill-rule:evenodd;stroke:#FF7F7F;stroke-width:9.3px;stroke-linecap:butt;stroke-linejoin:miter;stroke-opacity:1"/>
<path class="bond-0 atom-0 atom-15" d="M 205.8,297.9 L 195.1,269.2" style="fill:none;fill-rule:evenodd;stroke:#000000;stroke-width:2.0px;stroke-linecap:butt;stroke-linejoin:miter;stroke-opacity:1"/>
<path class="bond-0 atom-0 atom-15" d="M 196.0,296.7 L 188.5,276.5" style="fill:none;fill-rule:evenodd;stroke:#000000;stroke-width:2.0px;stroke-linecap:butt;stroke-linejoin:miter;stroke-opacity:1"/>
<path class="bond-1 atom-0 atom-16" d="M 201.4,310.3 L 185.5,329.6" style="fill:none;fill-rule:evenodd;stroke:#000000;stroke-width:2.0px;stroke-linecap:butt;stroke-linejoin:miter;stroke-opacity:1"/>
<path class="bond-3 atom-1 atom-0" d="M 235.3,307.5 L 225.2,305.8" style="fill:none;fill-rule:evenodd;stroke:#0000FF;stroke-width:2.0px;stroke-linecap:butt;stroke-linejoin:miter;stroke-opacity:1"/>
<path class="bond-3 atom-1 atom-0" d="M 225.2,305.8 L 215.1,304.1" style="fill:none;fill-rule:evenodd;stroke:#000000;stroke-width:2.0px;stroke-linecap:butt;stroke-linejoin:miter;stroke-opacity:1"/>
<path class="bond-2 atom-1 atom-2" d="M 256.9,302.7 L 264.8,293.2" style="fill:none;fill-rule:evenodd;stroke:#0000FF;stroke-width:2.0px;stroke-linecap:butt;stroke-linejoin:miter;stroke-opacity:1"/>
<path class="bond-2 atom-1 atom-2" d="M 264.8,293.2 L 272.7,283.6" style="fill:none;fill-rule:evenodd;stroke:#000000;stroke-width:2.0px;stroke-linecap:butt;stroke-linejoin:miter;stroke-opacity:1"/>
<path class="bond-4 atom-1 atom-4" d="M 253.6,317.5 L 258.5,330.7" style="fill:none;fill-rule:evenodd;stroke:#0000FF;stroke-width:2.0px;stroke-linecap:butt;stroke-linejoin:miter;stroke-opacity:1"/>
<path class="bond-4 atom-1 atom-4" d="M 258.5,330.7 L 263.5,344.0" style="fill:none;fill-rule:evenodd;stroke:#000000;stroke-width:2.0px;stroke-linecap:butt;stroke-linejoin:miter;stroke-opacity:1"/>
<path class="bond-5 atom-2 atom-5" d="M 286.9,277.7 L 306.2,280.9" style="fill:none;fill-rule:evenodd;stroke:#000000;stroke-width:2.0px;stroke-linecap:butt;stroke-linejoin:miter;stroke-opacity:1"/>
<path class="bond-7 atom-3 atom-2" d="M 266.2,242.8 L 276.6,270.6" style="fill:none;fill-rule:evenodd;stroke:#000000;stroke-width:2.0px;stroke-linecap:butt;stroke-linejoin:miter;stroke-opacity:1"/>
<path class="bond-7 atom-3 atom-2" d="M 276.0,243.9 L 283.2,263.3" style="fill:none;fill-rule:evenodd;stroke:#000000;stroke-width:2.0px;stroke-linecap:butt;stroke-linejoin:miter;stroke-opacity:1"/>
<path class="bond-6 atom-3 atom-6" d="M 268.3,227.9 L 282.8,206.0" style="fill:none;fill-rule:evenodd;stroke:#000000;stroke-width:2.0px;stroke-linecap:butt;stroke-linejoin:miter;stroke-opacity:1"/>
<path class="bond-8 atom-3 atom-8" d="M 257.5,233.6 L 226.4,225.0" style="fill:none;fill-rule:evenodd;stroke:#000000;stroke-width:2.0px;stroke-linecap:butt;stroke-linejoin:miter;stroke-opacity:1"/>
<path class="bond-9 atom-5 atom-10" d="M 324.7,291.1 L 334.6,317.5" style="fill:none;fill-rule:evenodd;stroke:#000000;stroke-width:2.0px;stroke-linecap:butt;stroke-linejoin:miter;stroke-opacity:1"/>
<path class="bond-9 atom-5 atom-10" d="M 334.4,292.0 L 341.3,310.5" style="fill:none;fill-rule:evenodd;stroke:#000000;stroke-width:2.0px;stroke-linecap:butt;stroke-linejoin:miter;stroke-opacity:1"/>
<path class="bond-10 atom-5 atom-11" d="M 328.0,276.2 L 343.9,256.9" style="fill:none;fill-rule:evenodd;stroke:#000000;stroke-width:2.0px;stroke-linecap:butt;stroke-linejoin:miter;stroke-opacity:1"/>
<path class="bond-11 atom-6 atom-9" d="M 281.8,191.4 L 266.1,171.7" style="fill:none;fill-rule:evenodd;stroke:#000000;stroke-width:2.0px;stroke-linecap:butt;stroke-linejoin:miter;stroke-opacity:1"/>
<path class="bond-11 atom-6 atom-9" d="M 272.6,193.9 L 261.6,180.1" style="fill:none;fill-rule:evenodd;stroke:#000000;stroke-width:2.0px;stroke-linecap:butt;stroke-linejoin:miter;stroke-opacity:1"/>
<path class="bond-12 atom-6 atom-32" d="M 305.1,195.8 L 325.3,192.4" style="fill:none;fill-rule:evenodd;stroke:#000000;stroke-width:2.0px;stroke-linecap:butt;stroke-linejoin:miter;stroke-opacity:1"/>
<path class="bond-13 atom-7 atom-8" d="M 219.6,187.3 L 220.3,201.8" style="fill:none;fill-rule:evenodd;stroke:#0000FF;stroke-width:2.0px;stroke-linecap:butt;stroke-linejoin:miter;stroke-opacity:1"/>
<path class="bond-13 atom-7 atom-8" d="M 220.3,201.8 L 220.9,216.3" style="fill:none;fill-rule:evenodd;stroke:#000000;stroke-width:2.0px;stroke-linecap:butt;stroke-linejoin:miter;stroke-opacity:1"/>
<path class="bond-14 atom-7 atom-9" d="M 224.8,177.7 L 232.7,174.7" style="fill:none;fill-rule:evenodd;stroke:#0000FF;stroke-width:2.0px;stroke-linecap:butt;stroke-linejoin:miter;stroke-opacity:1"/>
<path class="bond-14 atom-7 atom-9" d="M 232.7,174.7 L 240.6,171.8" style="fill:none;fill-rule:evenodd;stroke:#000000;stroke-width:2.0px;stroke-linecap:butt;stroke-linejoin:miter;stroke-opacity:1"/>
<path class="bond-15 atom-7 atom-20" d="M 208.4,172.5 L 197.9,165.5" style="fill:none;fill-rule:evenodd;stroke:#0000FF;stroke-width:2.0px;stroke-linecap:butt;stroke-linejoin:miter;stroke-opacity:1"/>
<path class="bond-15 atom-7 atom-20" d="M 197.9,165.5 L 187.3,158.5" style="fill:none;fill-rule:evenodd;stroke:#000000;stroke-width:2.0px;stroke-linecap:butt;stroke-linejoin:miter;stroke-opacity:1"/>
<path class="bond-16 atom-8 atom-21" d="M 203.3,226.8 L 197.5,229.5" style="fill:none;fill-rule:evenodd;stroke:#000000;stroke-width:2.0px;stroke-linecap:butt;stroke-linejoin:miter;stroke-opacity:1"/>
<path class="bond-16 atom-8 atom-21" d="M 197.5,229.5 L 191.7,232.1" style="fill:none;fill-rule:evenodd;stroke:#FF0000;stroke-width:2.0px;stroke-linecap:butt;stroke-linejoin:miter;stroke-opacity:1"/>
<path class="bond-16 atom-8 atom-21" d="M 206.9,234.8 L 201.1,237.4" style="fill:none;fill-rule:evenodd;stroke:#000000;stroke-width:2.0px;stroke-linecap:butt;stroke-linejoin:miter;stroke-opacity:1"/>
<path class="bond-16 atom-8 atom-21" d="M 201.1,237.4 L 195.3,240.1" style="fill:none;fill-rule:evenodd;stroke:#FF0000;stroke-width:2.0px;stroke-linecap:butt;stroke-linejoin:miter;stroke-opacity:1"/>
<path class="bond-17 atom-9 atom-33" d="M 262.4,157.0 L 270.1,129.4" style="fill:none;fill-rule:evenodd;stroke:#000000;stroke-width:2.0px;stroke-linecap:butt;stroke-linejoin:miter;stroke-opacity:1"/>
<path class="bond-18 atom-10 atom-12" d="M 349.2,326.6 L 360.7,328.6" style="fill:none;fill-rule:evenodd;stroke:#000000;stroke-width:2.0px;stroke-linecap:butt;stroke-linejoin:miter;stroke-opacity:1"/>
<path class="bond-19 atom-10 atom-22" d="M 331.2,332.0 L 314.4,352.3" style="fill:none;fill-rule:evenodd;stroke:#000000;stroke-width:2.0px;stroke-linecap:butt;stroke-linejoin:miter;stroke-opacity:1"/>
<path class="bond-20 atom-11 atom-13" d="M 355.1,250.7 L 372.7,253.6" style="fill:none;fill-rule:evenodd;stroke:#000000;stroke-width:2.0px;stroke-linecap:butt;stroke-linejoin:miter;stroke-opacity:1"/>
<path class="bond-20 atom-11 atom-13" d="M 356.3,259.7 L 368.6,261.8" style="fill:none;fill-rule:evenodd;stroke:#000000;stroke-width:2.0px;stroke-linecap:butt;stroke-linejoin:miter;stroke-opacity:1"/>
<path class="bond-21 atom-11 atom-23" d="M 348.1,242.4 L 341.3,214.3" style="fill:none;fill-rule:evenodd;stroke:#000000;stroke-width:2.0px;stroke-linecap:butt;stroke-linejoin:miter;stroke-opacity:1"/>
<path class="bond-22 atom-12 atom-14" d="M 386.5,324.5 L 402.5,305.2" style="fill:none;fill-rule:evenodd;stroke:#000000;stroke-width:2.0px;stroke-linecap:butt;stroke-linejoin:miter;stroke-opacity:1"/>
<path class="bond-22 atom-12 atom-14" d="M 382.2,316.0 L 393.3,302.5" style="fill:none;fill-rule:evenodd;stroke:#000000;stroke-width:2.0px;stroke-linecap:butt;stroke-linejoin:miter;stroke-opacity:1"/>
<path class="bond-23 atom-12 atom-24" d="M 383.3,339.4 L 393.1,365.9" style="fill:none;fill-rule:evenodd;stroke:#000000;stroke-width:2.0px;stroke-linecap:butt;stroke-linejoin:miter;stroke-opacity:1"/>
<path class="bond-24 atom-13 atom-14" d="M 395.8,264.4 L 405.7,291.0" style="fill:none;fill-rule:evenodd;stroke:#000000;stroke-width:2.0px;stroke-linecap:butt;stroke-linejoin:miter;stroke-opacity:1"/>
<path class="bond-25 atom-13 atom-25" d="M 399.0,249.8 L 415.2,230.2" style="fill:none;fill-rule:evenodd;stroke:#000000;stroke-width:2.0px;stroke-linecap:butt;stroke-linejoin:miter;stroke-opacity:1"/>
<path class="bond-26 atom-14 atom-26" d="M 420.7,300.2 L 445.9,304.4" style="fill:none;fill-rule:evenodd;stroke:#000000;stroke-width:2.0px;stroke-linecap:butt;stroke-linejoin:miter;stroke-opacity:1"/>
<path class="bond-27 atom-15 atom-17" d="M 186.4,260.8 L 161.8,256.6" style="fill:none;fill-rule:evenodd;stroke:#000000;stroke-width:2.0px;stroke-linecap:butt;stroke-linejoin:miter;stroke-opacity:1"/>
<path class="bond-28 atom-15 atom-27" d="M 195.6,254.9 L 199.1,247.4" style="fill:none;fill-rule:evenodd;stroke:#000000;stroke-width:2.0px;stroke-linecap:butt;stroke-linejoin:miter;stroke-opacity:1"/>
<path class="bond-29 atom-16 atom-18" d="M 159.8,333.3 L 148.6,331.4" style="fill:none;fill-rule:evenodd;stroke:#000000;stroke-width:2.0px;stroke-linecap:butt;stroke-linejoin:miter;stroke-opacity:1"/>
<path class="bond-29 atom-16 atom-18" d="M 159.6,324.3 L 151.8,323.0" style="fill:none;fill-rule:evenodd;stroke:#000000;stroke-width:2.0px;stroke-linecap:butt;stroke-linejoin:miter;stroke-opacity:1"/>
<path class="bond-30 atom-16 atom-28" d="M 182.5,344.0 L 192.4,370.6" style="fill:none;fill-rule:evenodd;stroke:#000000;stroke-width:2.0px;stroke-linecap:butt;stroke-linejoin:miter;stroke-opacity:1"/>
<path class="bond-31 atom-17 atom-19" d="M 143.0,261.9 L 127.1,281.2" style="fill:none;fill-rule:evenodd;stroke:#000000;stroke-width:2.0px;stroke-linecap:butt;stroke-linejoin:miter;stroke-opacity:1"/>
<path class="bond-31 atom-17 atom-19" d="M 147.4,270.3 L 136.2,283.8" style="fill:none;fill-rule:evenodd;stroke:#000000;stroke-width:2.0px;stroke-linecap:butt;stroke-linejoin:miter;stroke-opacity:1"/>
<path class="bond-32 atom-17 atom-29" d="M 146.4,247.2 L 136.5,220.8" style="fill:none;fill-rule:evenodd;stroke:#000000;stroke-width:2.0px;stroke-linecap:butt;stroke-linejoin:miter;stroke-opacity:1"/>
<path class="bond-33 atom-18 atom-19" d="M 133.8,322.0 L 123.9,295.6" style="fill:none;fill-rule:evenodd;stroke:#000000;stroke-width:2.0px;stroke-linecap:butt;stroke-linejoin:miter;stroke-opacity:1"/>
<path class="bond-34 atom-18 atom-30" d="M 130.4,336.7 L 113.2,357.6" style="fill:none;fill-rule:evenodd;stroke:#000000;stroke-width:2.0px;stroke-linecap:butt;stroke-linejoin:miter;stroke-opacity:1"/>
<path class="bond-35 atom-31 atom-19" d="M 90.8,283.2 L 95.7,284.0" style="fill:none;fill-rule:evenodd;stroke:#0000FF;stroke-width:2.0px;stroke-linecap:butt;stroke-linejoin:miter;stroke-opacity:1"/>
<path class="bond-35 atom-31 atom-19" d="M 95.7,284.0 L 100.6,284.8" style="fill:none;fill-rule:evenodd;stroke:#000000;stroke-width:2.0px;stroke-linecap:butt;stroke-linejoin:miter;stroke-opacity:1"/>
<path class="bond-36 atom-31 atom-34" d="M 75.2,273.7 L 70.3,260.5" style="fill:none;fill-rule:evenodd;stroke:#0000FF;stroke-width:2.0px;stroke-linecap:butt;stroke-linejoin:miter;stroke-opacity:1"/>
<path class="bond-36 atom-31 atom-34" d="M 70.3,260.5 L 65.4,247.3" style="fill:none;fill-rule:evenodd;stroke:#000000;stroke-width:2.0px;stroke-linecap:butt;stroke-linejoin:miter;stroke-opacity:1"/>
<path class="bond-37 atom-31 atom-35" d="M 71.7,288.6 L 63.5,298.6" style="fill:none;fill-rule:evenodd;stroke:#0000FF;stroke-width:2.0px;stroke-linecap:butt;stroke-linejoin:miter;stroke-opacity:1"/>
<path class="bond-37 atom-31 atom-35" d="M 63.5,298.6 L 55.2,308.6" style="fill:none;fill-rule:evenodd;stroke:#000000;stroke-width:2.0px;stroke-linecap:butt;stroke-linejoin:miter;stroke-opacity:1"/>
<path class="atom-0" d="M 193.3 302.9 Q 193.3 299.8, 194.7 298.2 Q 196.2 296.5, 198.9 296.5 Q 201.5 296.5, 202.9 298.4 L 201.7 299.3 Q 200.7 298.0, 198.9 298.0 Q 197.1 298.0, 196.1 299.2 Q 195.1 300.5, 195.1 302.9 Q 195.1 305.3, 196.1 306.6 Q 197.1 307.9, 199.1 307.9 Q 200.5 307.9, 202.1 307.0 L 202.6 308.3 Q 201.9 308.8, 200.9 309.0 Q 200.0 309.3, 198.9 309.3 Q 196.2 309.3, 194.7 307.6 Q 193.3 306.0, 193.3 302.9 " fill="#000000"/>
<path class="atom-0" d="M 204.2 307.0 L 205.9 307.0 L 205.9 308.8 L 204.2 308.8 L 204.2 307.0 M 204.2 301.0 L 205.9 301.0 L 205.9 302.8 L 204.2 302.8 L 204.2 301.0 " fill="#000000"/>
<path class="atom-0" d="M 207.6 307.7 L 210.3 307.7 L 210.3 298.4 L 207.3 299.4 L 206.9 298.3 L 210.7 296.6 L 211.9 296.8 L 211.9 307.7 L 214.4 307.7 L 214.4 309.1 L 207.6 309.1 L 207.6 307.7 " fill="#000000"/>
<path class="atom-1" d="M 238.4 304.0 L 242.4 310.5 Q 242.8 311.2, 243.5 312.3 Q 244.1 313.5, 244.2 313.6 L 244.2 304.0 L 245.8 304.0 L 245.8 316.4 L 244.1 316.4 L 239.7 309.2 Q 239.2 308.3, 238.7 307.4 Q 238.2 306.4, 238.0 306.1 L 238.0 316.4 L 236.4 316.4 L 236.4 304.0 L 238.4 304.0 " fill="#0000FF"/>
<path class="atom-1" d="M 247.1 314.3 L 248.9 314.3 L 248.9 316.1 L 247.1 316.1 L 247.1 314.3 M 247.1 308.3 L 248.9 308.3 L 248.9 310.0 L 247.1 310.0 L 247.1 308.3 " fill="#0000FF"/>
<path class="atom-1" d="M 249.8 306.3 Q 250.2 305.1, 251.3 304.5 Q 252.4 303.8, 253.9 303.8 Q 255.8 303.8, 256.8 304.8 Q 257.9 305.8, 257.9 307.7 Q 257.9 309.5, 256.5 311.2 Q 255.2 312.9, 252.4 315.0 L 258.1 315.0 L 258.1 316.4 L 249.8 316.4 L 249.8 315.2 Q 252.1 313.5, 253.4 312.3 Q 254.8 311.1, 255.5 310.0 Q 256.1 308.9, 256.1 307.7 Q 256.1 306.5, 255.6 305.9 Q 255.0 305.2, 253.9 305.2 Q 252.9 305.2, 252.3 305.6 Q 251.6 306.0, 251.1 306.9 L 249.8 306.3 " fill="#0000FF"/>
<path class="atom-2" d="M 264.1 276.3 Q 264.1 273.3, 265.5 271.7 Q 267.0 270.0, 269.7 270.0 Q 272.3 270.0, 273.7 271.8 L 272.5 272.8 Q 271.5 271.5, 269.7 271.5 Q 267.9 271.5, 266.9 272.7 Q 265.9 274.0, 265.9 276.3 Q 265.9 278.8, 266.9 280.1 Q 267.9 281.3, 269.9 281.3 Q 271.3 281.3, 272.9 280.5 L 273.4 281.8 Q 272.7 282.2, 271.8 282.5 Q 270.8 282.7, 269.7 282.7 Q 267.0 282.7, 265.5 281.1 Q 264.1 279.4, 264.1 276.3 " fill="#000000"/>
<path class="atom-2" d="M 275.0 280.5 L 276.7 280.5 L 276.7 282.3 L 275.0 282.3 L 275.0 280.5 M 275.0 274.5 L 276.7 274.5 L 276.7 276.2 L 275.0 276.2 L 275.0 274.5 " fill="#000000"/>
<path class="atom-2" d="M 283.4 276.0 Q 284.6 276.4, 285.2 277.2 Q 285.8 277.9, 285.8 279.2 Q 285.8 280.2, 285.3 281.0 Q 284.8 281.9, 283.8 282.3 Q 282.8 282.7, 281.6 282.7 Q 280.2 282.7, 279.2 282.3 Q 278.3 281.8, 277.5 280.9 L 278.5 279.9 Q 279.2 280.7, 279.9 281.0 Q 280.5 281.3, 281.6 281.3 Q 282.7 281.3, 283.4 280.7 Q 284.1 280.1, 284.1 279.2 Q 284.1 277.9, 283.3 277.3 Q 282.6 276.8, 281.1 276.8 L 280.2 276.8 L 280.2 275.5 L 281.0 275.5 Q 282.4 275.5, 283.1 274.9 Q 283.8 274.3, 283.8 273.2 Q 283.8 272.4, 283.2 271.9 Q 282.6 271.4, 281.6 271.4 Q 280.6 271.4, 279.9 271.8 Q 279.3 272.2, 278.8 273.1 L 277.6 272.4 Q 278.0 271.4, 279.1 270.7 Q 280.1 270.0, 281.6 270.0 Q 283.4 270.0, 284.5 270.9 Q 285.6 271.7, 285.6 273.2 Q 285.6 274.2, 285.0 274.9 Q 284.5 275.6, 283.4 276.0 " fill="#000000"/>
<path class="atom-3" d="M 258.6 235.3 Q 258.6 232.2, 260.1 230.6 Q 261.5 229.0, 264.3 229.0 Q 266.8 229.0, 268.2 230.8 L 267.0 231.7 Q 266.0 230.4, 264.3 230.4 Q 262.4 230.4, 261.4 231.7 Q 260.4 232.9, 260.4 235.3 Q 260.4 237.7, 261.4 239.0 Q 262.5 240.3, 264.5 240.3 Q 265.8 240.3, 267.4 239.4 L 267.9 240.8 Q 267.3 241.2, 266.3 241.4 Q 265.3 241.7, 264.2 241.7 Q 261.5 241.7, 260.1 240.0 Q 258.6 238.4, 258.6 235.3 " fill="#000000"/>
<path class="atom-3" d="M 269.5 239.5 L 271.3 239.5 L 271.3 241.2 L 269.5 241.2 L 269.5 239.5 M 269.5 233.4 L 271.3 233.4 L 271.3 235.2 L 269.5 235.2 L 269.5 233.4 " fill="#000000"/>
<path class="atom-3" d="M 279.8 237.3 L 281.3 237.3 L 281.3 238.7 L 279.8 238.7 L 279.8 241.5 L 278.2 241.5 L 278.2 238.7 L 271.8 238.7 L 271.8 237.6 L 277.2 229.1 L 279.8 229.1 L 279.8 237.3 M 273.8 237.3 L 278.2 237.3 L 278.2 230.2 L 273.8 237.3 " fill="#000000"/>
<path class="atom-4" d="M 261.3 344.9 L 263.0 344.9 L 263.0 350.2 L 269.3 350.2 L 269.3 344.9 L 271.0 344.9 L 271.0 357.3 L 269.3 357.3 L 269.3 351.6 L 263.0 351.6 L 263.0 357.3 L 261.3 357.3 L 261.3 344.9 " fill="#000000"/>
<path class="atom-4" d="M 272.3 355.3 L 274.1 355.3 L 274.1 357.0 L 272.3 357.0 L 272.3 355.3 M 272.3 349.3 L 274.1 349.3 L 274.1 351.0 L 272.3 351.0 L 272.3 349.3 " fill="#000000"/>
<path class="atom-4" d="M 279.4 349.6 Q 280.5 349.6, 281.3 350.1 Q 282.2 350.5, 282.7 351.4 Q 283.3 352.2, 283.3 353.4 Q 283.3 354.7, 282.6 355.6 Q 282.0 356.5, 281.0 357.0 Q 280.0 357.5, 278.8 357.5 Q 277.7 357.5, 276.6 357.1 Q 275.6 356.6, 274.9 355.8 L 275.9 354.8 Q 276.5 355.4, 277.3 355.7 Q 278.1 356.1, 278.9 356.1 Q 280.0 356.1, 280.7 355.4 Q 281.5 354.7, 281.5 353.5 Q 281.5 352.1, 280.7 351.5 Q 280.0 350.9, 278.8 350.9 Q 277.7 350.9, 276.5 351.4 L 275.5 350.9 L 276.1 344.9 L 282.5 344.9 L 282.3 346.3 L 277.5 346.3 L 277.2 350.0 Q 278.3 349.6, 279.4 349.6 " fill="#000000"/>
<path class="atom-5" d="M 307.1 283.6 Q 307.1 280.5, 308.5 278.9 Q 309.9 277.3, 312.7 277.3 Q 315.3 277.3, 316.6 279.1 L 315.5 280.0 Q 314.5 278.7, 312.7 278.7 Q 310.8 278.7, 309.8 280.0 Q 308.8 281.2, 308.8 283.6 Q 308.8 286.1, 309.9 287.3 Q 310.9 288.6, 312.9 288.6 Q 314.3 288.6, 315.9 287.8 L 316.3 289.1 Q 315.7 289.5, 314.7 289.7 Q 313.7 290.0, 312.6 290.0 Q 309.9 290.0, 308.5 288.3 Q 307.1 286.7, 307.1 283.6 " fill="#000000"/>
<path class="atom-5" d="M 317.9 287.8 L 319.7 287.8 L 319.7 289.5 L 317.9 289.5 L 317.9 287.8 M 317.9 281.8 L 319.7 281.8 L 319.7 283.5 L 317.9 283.5 L 317.9 281.8 " fill="#000000"/>
<path class="atom-5" d="M 325.7 282.1 Q 326.8 282.1, 327.7 282.6 Q 328.5 283.0, 329.0 283.9 Q 329.5 284.8, 329.5 285.8 Q 329.5 287.1, 328.9 288.0 Q 328.4 288.9, 327.5 289.5 Q 326.5 290.0, 325.3 290.0 Q 323.1 290.0, 322.0 288.5 Q 320.9 287.0, 320.9 284.0 Q 320.9 280.7, 322.3 279.0 Q 323.6 277.3, 326.3 277.3 Q 327.1 277.3, 327.7 277.5 Q 328.4 277.6, 329.0 278.0 L 328.3 279.2 Q 327.4 278.7, 326.3 278.7 Q 324.5 278.7, 323.7 279.8 Q 322.8 281.0, 322.7 283.3 Q 323.3 282.7, 324.1 282.4 Q 324.9 282.1, 325.7 282.1 M 325.3 288.5 Q 326.0 288.5, 326.5 288.2 Q 327.1 287.8, 327.4 287.2 Q 327.7 286.6, 327.7 285.9 Q 327.7 284.8, 327.1 284.1 Q 326.5 283.5, 325.4 283.5 Q 324.7 283.5, 323.9 283.8 Q 323.2 284.1, 322.7 284.6 Q 322.7 286.7, 323.4 287.6 Q 324.0 288.5, 325.3 288.5 " fill="#000000"/>
<path class="atom-6" d="M 282.8 198.8 Q 282.8 195.7, 284.3 194.1 Q 285.7 192.4, 288.5 192.4 Q 291.0 192.4, 292.4 194.3 L 291.2 195.2 Q 290.2 193.9, 288.5 193.9 Q 286.6 193.9, 285.6 195.1 Q 284.6 196.4, 284.6 198.8 Q 284.6 201.2, 285.6 202.5 Q 286.7 203.8, 288.7 203.8 Q 290.0 203.8, 291.6 202.9 L 292.1 204.2 Q 291.5 204.7, 290.5 204.9 Q 289.5 205.2, 288.4 205.2 Q 285.7 205.2, 284.3 203.5 Q 282.8 201.9, 282.8 198.8 " fill="#000000"/>
<path class="atom-6" d="M 293.7 202.9 L 295.5 202.9 L 295.5 204.7 L 293.7 204.7 L 293.7 202.9 M 293.7 196.9 L 295.5 196.9 L 295.5 198.7 L 293.7 198.7 L 293.7 196.9 " fill="#000000"/>
<path class="atom-6" d="M 302.3 194.0 L 295.8 194.0 L 295.8 192.6 L 304.0 192.6 L 304.0 193.8 L 299.0 205.0 L 297.3 205.0 L 302.3 194.0 " fill="#000000"/>
<path class="atom-7" d="M 203.3 173.6 L 207.4 180.2 Q 207.8 180.8, 208.4 182.0 Q 209.1 183.2, 209.1 183.2 L 209.1 173.6 L 210.8 173.6 L 210.8 186.0 L 209.1 186.0 L 204.7 178.8 Q 204.2 178.0, 203.7 177.0 Q 203.1 176.0, 203.0 175.7 L 203.0 186.0 L 201.4 186.0 L 201.4 173.6 L 203.3 173.6 " fill="#0000FF"/>
<path class="atom-7" d="M 212.1 183.9 L 213.8 183.9 L 213.8 185.7 L 212.1 185.7 L 212.1 183.9 M 212.1 177.9 L 213.8 177.9 L 213.8 179.7 L 212.1 179.7 L 212.1 177.9 " fill="#0000FF"/>
<path class="atom-7" d="M 221.3 179.4 Q 222.4 179.9, 223.0 180.7 Q 223.7 181.4, 223.7 182.6 Q 223.7 183.6, 223.1 184.5 Q 222.6 185.3, 221.6 185.7 Q 220.7 186.2, 219.4 186.2 Q 217.3 186.2, 216.1 185.2 Q 214.9 184.3, 214.9 182.6 Q 214.9 181.6, 215.5 180.8 Q 216.0 180.1, 217.1 179.5 Q 216.3 179.0, 215.8 178.4 Q 215.4 177.7, 215.4 176.6 Q 215.4 175.2, 216.4 174.3 Q 217.5 173.4, 219.3 173.4 Q 221.1 173.4, 222.2 174.3 Q 223.2 175.2, 223.2 176.6 Q 223.2 177.5, 222.7 178.2 Q 222.2 178.9, 221.3 179.4 M 219.3 174.8 Q 218.3 174.8, 217.7 175.3 Q 217.1 175.7, 217.1 176.6 Q 217.1 177.3, 217.5 177.7 Q 217.9 178.1, 218.5 178.4 Q 219.0 178.6, 220.1 179.0 Q 220.8 178.5, 221.2 177.9 Q 221.5 177.3, 221.5 176.6 Q 221.5 175.7, 220.9 175.3 Q 220.3 174.8, 219.3 174.8 M 219.4 184.9 Q 220.5 184.9, 221.2 184.2 Q 221.9 183.6, 221.9 182.6 Q 221.9 181.9, 221.6 181.5 Q 221.2 181.1, 220.6 180.8 Q 220.1 180.6, 219.1 180.3 L 218.3 180.0 Q 217.5 180.5, 217.1 181.2 Q 216.7 181.8, 216.7 182.6 Q 216.7 183.6, 217.4 184.2 Q 218.2 184.9, 219.4 184.9 " fill="#0000FF"/>
<path class="atom-8" d="M 203.3 223.6 Q 203.3 220.5, 204.7 218.9 Q 206.2 217.2, 208.9 217.2 Q 211.5 217.2, 212.9 219.0 L 211.7 220.0 Q 210.7 218.7, 208.9 218.7 Q 207.1 218.7, 206.1 219.9 Q 205.1 221.2, 205.1 223.6 Q 205.1 226.0, 206.1 227.3 Q 207.1 228.5, 209.1 228.5 Q 210.5 228.5, 212.1 227.7 L 212.6 229.0 Q 211.9 229.4, 210.9 229.7 Q 210.0 229.9, 208.9 229.9 Q 206.2 229.9, 204.7 228.3 Q 203.3 226.6, 203.3 223.6 " fill="#000000"/>
<path class="atom-8" d="M 214.2 227.7 L 215.9 227.7 L 215.9 229.5 L 214.2 229.5 L 214.2 227.7 M 214.2 221.7 L 215.9 221.7 L 215.9 223.4 L 214.2 223.4 L 214.2 221.7 " fill="#000000"/>
<path class="atom-8" d="M 221.1 217.2 Q 223.3 217.2, 224.4 218.7 Q 225.5 220.2, 225.5 223.2 Q 225.5 226.5, 224.1 228.2 Q 222.7 229.9, 220.1 229.9 Q 219.3 229.9, 218.7 229.7 Q 218.0 229.6, 217.4 229.2 L 218.1 228.0 Q 219.0 228.5, 220.1 228.5 Q 221.8 228.5, 222.7 227.4 Q 223.6 226.3, 223.7 223.9 Q 223.1 224.5, 222.3 224.8 Q 221.5 225.1, 220.6 225.1 Q 219.5 225.1, 218.7 224.6 Q 217.8 224.2, 217.4 223.3 Q 216.9 222.4, 216.9 221.4 Q 216.9 220.2, 217.4 219.2 Q 218.0 218.3, 218.9 217.8 Q 219.8 217.2, 221.1 217.2 M 218.6 221.3 Q 218.6 222.4, 219.3 223.1 Q 219.9 223.7, 221.0 223.7 Q 221.7 223.7, 222.4 223.4 Q 223.2 223.1, 223.7 222.6 Q 223.7 220.5, 223.0 219.6 Q 222.4 218.7, 221.0 218.7 Q 220.4 218.7, 219.8 219.0 Q 219.3 219.4, 219.0 220.0 Q 218.6 220.6, 218.6 221.3 " fill="#000000"/>
<path class="atom-9" d="M 241.1 164.5 Q 241.1 161.4, 242.5 159.8 Q 244.0 158.1, 246.7 158.1 Q 249.3 158.1, 250.6 159.9 L 249.5 160.9 Q 248.5 159.6, 246.7 159.6 Q 244.8 159.6, 243.8 160.8 Q 242.9 162.1, 242.9 164.5 Q 242.9 166.9, 243.9 168.2 Q 244.9 169.4, 246.9 169.4 Q 248.3 169.4, 249.9 168.6 L 250.4 169.9 Q 249.7 170.4, 248.7 170.6 Q 247.7 170.8, 246.7 170.8 Q 244.0 170.8, 242.5 169.2 Q 241.1 167.5, 241.1 164.5 " fill="#000000"/>
<path class="atom-9" d="M 252.0 168.6 L 253.7 168.6 L 253.7 170.4 L 252.0 170.4 L 252.0 168.6 M 252.0 162.6 L 253.7 162.6 L 253.7 164.4 L 252.0 164.4 L 252.0 162.6 " fill="#000000"/>
<path class="atom-9" d="M 255.3 169.3 L 258.1 169.3 L 258.1 160.0 L 255.1 160.9 L 254.7 159.9 L 258.5 158.2 L 259.7 158.4 L 259.7 169.3 L 262.1 169.3 L 262.1 170.7 L 255.3 170.7 L 255.3 169.3 " fill="#000000"/>
<path class="atom-9" d="M 267.7 170.8 Q 265.5 170.8, 264.3 169.1 Q 263.2 167.5, 263.2 164.5 Q 263.2 161.5, 264.3 159.8 Q 265.5 158.1, 267.7 158.1 Q 270.0 158.1, 271.2 159.8 Q 272.3 161.5, 272.3 164.5 Q 272.3 167.5, 271.1 169.1 Q 270.0 170.8, 267.7 170.8 M 267.7 169.4 Q 269.1 169.4, 269.8 168.2 Q 270.5 166.9, 270.5 164.5 Q 270.5 162.0, 269.8 160.8 Q 269.1 159.5, 267.7 159.5 Q 266.4 159.5, 265.7 160.8 Q 265.0 162.0, 265.0 164.5 Q 265.0 166.9, 265.7 168.2 Q 266.4 169.4, 267.7 169.4 " fill="#000000"/>
<path class="atom-10" d="M 318.6 324.7 Q 318.6 321.6, 320.0 320.0 Q 321.5 318.3, 324.2 318.3 Q 326.8 318.3, 328.1 320.1 L 327.0 321.1 Q 326.0 319.8, 324.2 319.8 Q 322.3 319.8, 321.3 321.0 Q 320.4 322.3, 320.4 324.7 Q 320.4 327.1, 321.4 328.4 Q 322.4 329.6, 324.4 329.6 Q 325.8 329.6, 327.4 328.8 L 327.9 330.1 Q 327.2 330.6, 326.2 330.8 Q 325.3 331.0, 324.2 331.0 Q 321.5 331.0, 320.0 329.4 Q 318.6 327.8, 318.6 324.7 " fill="#000000"/>
<path class="atom-10" d="M 329.5 328.8 L 331.2 328.8 L 331.2 330.6 L 329.5 330.6 L 329.5 328.8 M 329.5 322.8 L 331.2 322.8 L 331.2 324.6 L 329.5 324.6 L 329.5 322.8 " fill="#000000"/>
<path class="atom-10" d="M 332.8 329.5 L 335.6 329.5 L 335.6 320.2 L 332.6 321.1 L 332.2 320.1 L 336.0 318.4 L 337.2 318.6 L 337.2 329.5 L 339.6 329.5 L 339.6 330.9 L 332.8 330.9 L 332.8 329.5 " fill="#000000"/>
<path class="atom-10" d="M 341.3 329.5 L 344.0 329.5 L 344.0 320.2 L 341.0 321.1 L 340.6 320.1 L 344.4 318.4 L 345.6 318.6 L 345.6 329.5 L 348.1 329.5 L 348.1 330.9 L 341.3 330.9 L 341.3 329.5 " fill="#000000"/>
<path class="atom-11" d="M 323.7 249.8 Q 323.7 246.7, 325.1 245.1 Q 326.6 243.5, 329.3 243.5 Q 331.9 243.5, 333.3 245.3 L 332.1 246.3 Q 331.1 244.9, 329.3 244.9 Q 327.5 244.9, 326.5 246.2 Q 325.5 247.4, 325.5 249.8 Q 325.5 252.3, 326.5 253.5 Q 327.5 254.8, 329.5 254.8 Q 330.9 254.8, 332.5 254.0 L 333.0 255.3 Q 332.3 255.7, 331.4 256.0 Q 330.4 256.2, 329.3 256.2 Q 326.6 256.2, 325.1 254.6 Q 323.7 252.9, 323.7 249.8 " fill="#000000"/>
<path class="atom-11" d="M 334.6 254.0 L 336.3 254.0 L 336.3 255.8 L 334.6 255.8 L 334.6 254.0 M 334.6 248.0 L 336.3 248.0 L 336.3 249.7 L 334.6 249.7 L 334.6 248.0 " fill="#000000"/>
<path class="atom-11" d="M 338.0 254.6 L 340.7 254.6 L 340.7 245.4 L 337.7 246.3 L 337.3 245.3 L 341.1 243.6 L 342.3 243.8 L 342.3 254.6 L 344.8 254.6 L 344.8 256.0 L 338.0 256.0 L 338.0 254.6 " fill="#000000"/>
<path class="atom-11" d="M 345.7 246.0 Q 346.1 244.8, 347.2 244.2 Q 348.3 243.5, 349.8 243.5 Q 351.7 243.5, 352.7 244.5 Q 353.8 245.5, 353.8 247.3 Q 353.8 249.2, 352.4 250.9 Q 351.1 252.6, 348.3 254.6 L 354.0 254.6 L 354.0 256.0 L 345.6 256.0 L 345.6 254.9 Q 348.0 253.2, 349.3 252.0 Q 350.7 250.8, 351.4 249.7 Q 352.0 248.6, 352.0 247.4 Q 352.0 246.2, 351.4 245.6 Q 350.9 244.9, 349.8 244.9 Q 348.8 244.9, 348.2 245.3 Q 347.5 245.7, 347.0 246.6 L 345.7 246.0 " fill="#000000"/>
<path class="atom-12" d="M 361.5 331.9 Q 361.5 328.8, 363.0 327.2 Q 364.4 325.6, 367.2 325.6 Q 369.7 325.6, 371.1 327.4 L 369.9 328.4 Q 368.9 327.0, 367.2 327.0 Q 365.3 327.0, 364.3 328.3 Q 363.3 329.6, 363.3 331.9 Q 363.3 334.4, 364.3 335.7 Q 365.4 336.9, 367.4 336.9 Q 368.7 336.9, 370.3 336.1 L 370.8 337.4 Q 370.2 337.8, 369.2 338.1 Q 368.2 338.3, 367.1 338.3 Q 364.4 338.3, 363.0 336.7 Q 361.5 335.0, 361.5 331.9 " fill="#000000"/>
<path class="atom-12" d="M 372.4 336.1 L 374.2 336.1 L 374.2 337.9 L 372.4 337.9 L 372.4 336.1 M 372.4 330.1 L 374.2 330.1 L 374.2 331.8 L 372.4 331.8 L 372.4 330.1 " fill="#000000"/>
<path class="atom-12" d="M 375.8 336.8 L 378.5 336.8 L 378.5 327.5 L 375.5 328.4 L 375.1 327.4 L 378.9 325.7 L 380.1 325.9 L 380.1 336.8 L 382.6 336.8 L 382.6 338.2 L 375.8 338.2 L 375.8 336.8 " fill="#000000"/>
<path class="atom-12" d="M 389.3 331.6 Q 390.5 332.0, 391.1 332.8 Q 391.7 333.5, 391.7 334.8 Q 391.7 335.8, 391.1 336.6 Q 390.6 337.4, 389.6 337.9 Q 388.7 338.3, 387.4 338.3 Q 386.1 338.3, 385.1 337.9 Q 384.1 337.4, 383.3 336.5 L 384.3 335.4 Q 385.1 336.3, 385.7 336.6 Q 386.4 336.9, 387.4 336.9 Q 388.5 336.9, 389.2 336.3 Q 389.9 335.7, 389.9 334.7 Q 389.9 333.5, 389.2 332.9 Q 388.5 332.3, 387.0 332.3 L 386.1 332.3 L 386.1 331.1 L 386.9 331.1 Q 388.2 331.1, 388.9 330.5 Q 389.6 329.9, 389.6 328.8 Q 389.6 328.0, 389.1 327.5 Q 388.5 327.0, 387.4 327.0 Q 386.4 327.0, 385.8 327.4 Q 385.1 327.7, 384.6 328.7 L 383.4 328.0 Q 383.9 327.0, 384.9 326.3 Q 386.0 325.6, 387.4 325.6 Q 389.3 325.6, 390.3 326.5 Q 391.4 327.3, 391.4 328.8 Q 391.4 329.8, 390.9 330.5 Q 390.3 331.2, 389.3 331.6 " fill="#000000"/>
<path class="atom-13" d="M 373.7 257.1 Q 373.7 254.0, 375.1 252.4 Q 376.6 250.8, 379.3 250.8 Q 381.9 250.8, 383.3 252.6 L 382.1 253.5 Q 381.1 252.2, 379.3 252.2 Q 377.5 252.2, 376.5 253.5 Q 375.5 254.7, 375.5 257.1 Q 375.5 259.5, 376.5 260.8 Q 377.5 262.1, 379.5 262.1 Q 380.9 262.1, 382.5 261.2 L 383.0 262.6 Q 382.3 263.0, 381.4 263.2 Q 380.4 263.5, 379.3 263.5 Q 376.6 263.5, 375.1 261.8 Q 373.7 260.2, 373.7 257.1 " fill="#000000"/>
<path class="atom-13" d="M 384.6 261.3 L 386.3 261.3 L 386.3 263.0 L 384.6 263.0 L 384.6 261.3 M 384.6 255.2 L 386.3 255.2 L 386.3 257.0 L 384.6 257.0 L 384.6 255.2 " fill="#000000"/>
<path class="atom-13" d="M 388.0 261.9 L 390.7 261.9 L 390.7 252.6 L 387.7 253.6 L 387.3 252.5 L 391.1 250.8 L 392.3 251.0 L 392.3 261.9 L 394.8 261.9 L 394.8 263.3 L 388.0 263.3 L 388.0 261.9 " fill="#000000"/>
<path class="atom-13" d="M 403.4 259.1 L 404.8 259.1 L 404.8 260.5 L 403.4 260.5 L 403.4 263.3 L 401.7 263.3 L 401.7 260.5 L 395.3 260.5 L 395.3 259.4 L 400.7 250.9 L 403.4 250.9 L 403.4 259.1 M 397.3 259.1 L 401.7 259.1 L 401.7 252.0 L 397.3 259.1 " fill="#000000"/>
<path class="atom-14" d="M 389.4 298.1 Q 389.4 295.1, 390.8 293.4 Q 392.3 291.8, 395.0 291.8 Q 397.6 291.8, 398.9 293.6 L 397.8 294.6 Q 396.8 293.3, 395.0 293.3 Q 393.1 293.3, 392.1 294.5 Q 391.2 295.8, 391.2 298.1 Q 391.2 300.6, 392.2 301.9 Q 393.2 303.1, 395.2 303.1 Q 396.6 303.1, 398.2 302.3 L 398.7 303.6 Q 398.0 304.0, 397.0 304.3 Q 396.1 304.5, 395.0 304.5 Q 392.3 304.5, 390.8 302.9 Q 389.4 301.2, 389.4 298.1 " fill="#000000"/>
<path class="atom-14" d="M 400.3 302.3 L 402.0 302.3 L 402.0 304.1 L 400.3 304.1 L 400.3 302.3 M 400.3 296.3 L 402.0 296.3 L 402.0 298.0 L 400.3 298.0 L 400.3 296.3 " fill="#000000"/>
<path class="atom-14" d="M 403.6 303.0 L 406.4 303.0 L 406.4 293.7 L 403.4 294.6 L 403.0 293.6 L 406.8 291.9 L 408.0 292.1 L 408.0 303.0 L 410.4 303.0 L 410.4 304.4 L 403.6 304.4 L 403.6 303.0 " fill="#000000"/>
<path class="atom-14" d="M 415.8 296.6 Q 416.8 296.6, 417.7 297.1 Q 418.6 297.5, 419.1 298.4 Q 419.6 299.3, 419.6 300.4 Q 419.6 301.7, 419.0 302.6 Q 418.4 303.6, 417.4 304.0 Q 416.4 304.5, 415.2 304.5 Q 414.1 304.5, 413.0 304.1 Q 412.0 303.7, 411.3 302.9 L 412.3 301.8 Q 412.9 302.4, 413.7 302.8 Q 414.5 303.1, 415.3 303.1 Q 416.4 303.1, 417.1 302.4 Q 417.9 301.7, 417.9 300.5 Q 417.9 299.2, 417.1 298.5 Q 416.4 297.9, 415.2 297.9 Q 414.1 297.9, 412.9 298.4 L 411.9 297.9 L 412.5 292.0 L 418.9 292.0 L 418.7 293.4 L 413.9 293.4 L 413.6 297.0 Q 414.7 296.6, 415.8 296.6 " fill="#000000"/>
<path class="atom-15" d="M 187.5 261.8 Q 187.5 258.7, 188.9 257.1 Q 190.4 255.5, 193.2 255.5 Q 195.7 255.5, 197.1 257.3 L 195.9 258.2 Q 194.9 256.9, 193.2 256.9 Q 191.3 256.9, 190.3 258.2 Q 189.3 259.4, 189.3 261.8 Q 189.3 264.3, 190.3 265.5 Q 191.3 266.8, 193.3 266.8 Q 194.7 266.8, 196.3 266.0 L 196.8 267.3 Q 196.2 267.7, 195.2 268.0 Q 194.2 268.2, 193.1 268.2 Q 190.4 268.2, 188.9 266.6 Q 187.5 264.9, 187.5 261.8 " fill="#000000"/>
<path class="atom-15" d="M 198.4 266.0 L 200.1 266.0 L 200.1 267.7 L 198.4 267.7 L 198.4 266.0 M 198.4 260.0 L 200.1 260.0 L 200.1 261.7 L 198.4 261.7 L 198.4 260.0 " fill="#000000"/>
<path class="atom-15" d="M 201.8 266.6 L 204.5 266.6 L 204.5 257.4 L 201.5 258.3 L 201.1 257.3 L 204.9 255.6 L 206.1 255.8 L 206.1 266.6 L 208.6 266.6 L 208.6 268.0 L 201.8 268.0 L 201.8 266.6 " fill="#000000"/>
<path class="atom-15" d="M 214.6 260.3 Q 215.7 260.3, 216.6 260.8 Q 217.4 261.2, 217.9 262.1 Q 218.4 263.0, 218.4 264.0 Q 218.4 265.3, 217.8 266.2 Q 217.3 267.1, 216.4 267.7 Q 215.4 268.2, 214.2 268.2 Q 212.0 268.2, 210.9 266.7 Q 209.8 265.2, 209.8 262.2 Q 209.8 258.9, 211.1 257.2 Q 212.5 255.5, 215.2 255.5 Q 215.9 255.5, 216.6 255.7 Q 217.3 255.8, 217.9 256.2 L 217.2 257.4 Q 216.3 256.9, 215.2 256.9 Q 213.4 256.9, 212.5 258.0 Q 211.6 259.2, 211.5 261.5 Q 212.2 260.9, 213.0 260.6 Q 213.8 260.3, 214.6 260.3 M 214.2 266.7 Q 214.9 266.7, 215.4 266.4 Q 216.0 266.0, 216.3 265.4 Q 216.6 264.8, 216.6 264.1 Q 216.6 263.0, 216.0 262.3 Q 215.4 261.7, 214.3 261.7 Q 213.6 261.7, 212.8 262.0 Q 212.1 262.3, 211.5 262.8 Q 211.6 264.9, 212.3 265.8 Q 212.9 266.7, 214.2 266.7 " fill="#000000"/>
<path class="atom-16" d="M 160.9 336.7 Q 160.9 333.6, 162.4 332.0 Q 163.8 330.3, 166.6 330.3 Q 169.1 330.3, 170.5 332.1 L 169.3 333.1 Q 168.3 331.8, 166.6 331.8 Q 164.7 331.8, 163.7 333.0 Q 162.7 334.3, 162.7 336.7 Q 162.7 339.1, 163.7 340.4 Q 164.8 341.6, 166.8 341.6 Q 168.1 341.6, 169.7 340.8 L 170.2 342.1 Q 169.6 342.6, 168.6 342.8 Q 167.6 343.0, 166.5 343.0 Q 163.8 343.0, 162.4 341.4 Q 160.9 339.7, 160.9 336.7 " fill="#000000"/>
<path class="atom-16" d="M 171.8 340.8 L 173.6 340.8 L 173.6 342.6 L 171.8 342.6 L 171.8 340.8 M 171.8 334.8 L 173.6 334.8 L 173.6 336.6 L 171.8 336.6 L 171.8 334.8 " fill="#000000"/>
<path class="atom-16" d="M 175.2 341.5 L 177.9 341.5 L 177.9 332.2 L 174.9 333.1 L 174.5 332.1 L 178.3 330.4 L 179.6 330.6 L 179.6 341.5 L 182.0 341.5 L 182.0 342.9 L 175.2 342.9 L 175.2 341.5 " fill="#000000"/>
<path class="atom-16" d="M 188.8 331.9 L 182.3 331.9 L 182.3 330.5 L 190.5 330.5 L 190.5 331.7 L 185.5 342.9 L 183.8 342.9 L 188.8 331.9 " fill="#000000"/>
<path class="atom-17" d="M 129.9 254.6 Q 129.9 251.5, 131.3 249.9 Q 132.8 248.2, 135.5 248.2 Q 138.1 248.2, 139.5 250.0 L 138.3 251.0 Q 137.3 249.7, 135.5 249.7 Q 133.7 249.7, 132.7 250.9 Q 131.7 252.2, 131.7 254.6 Q 131.7 257.0, 132.7 258.3 Q 133.7 259.5, 135.7 259.5 Q 137.1 259.5, 138.7 258.7 L 139.2 260.0 Q 138.5 260.4, 137.6 260.7 Q 136.6 260.9, 135.5 260.9 Q 132.8 260.9, 131.3 259.3 Q 129.9 257.6, 129.9 254.6 " fill="#000000"/>
<path class="atom-17" d="M 140.8 258.7 L 142.5 258.7 L 142.5 260.5 L 140.8 260.5 L 140.8 258.7 M 140.8 252.7 L 142.5 252.7 L 142.5 254.4 L 140.8 254.4 L 140.8 252.7 " fill="#000000"/>
<path class="atom-17" d="M 144.2 259.4 L 146.9 259.4 L 146.9 250.1 L 143.9 251.0 L 143.5 250.0 L 147.3 248.3 L 148.5 248.5 L 148.5 259.4 L 151.0 259.4 L 151.0 260.8 L 144.2 260.8 L 144.2 259.4 " fill="#000000"/>
<path class="atom-17" d="M 158.4 254.2 Q 159.5 254.7, 160.2 255.4 Q 160.8 256.1, 160.8 257.4 Q 160.8 258.4, 160.3 259.3 Q 159.7 260.1, 158.8 260.5 Q 157.8 261.0, 156.5 261.0 Q 154.4 261.0, 153.2 260.0 Q 152.1 259.0, 152.1 257.4 Q 152.1 256.4, 152.6 255.6 Q 153.1 254.8, 154.2 254.3 Q 153.4 253.8, 153.0 253.1 Q 152.5 252.5, 152.5 251.4 Q 152.5 249.9, 153.6 249.1 Q 154.6 248.2, 156.4 248.2 Q 158.2 248.2, 159.3 249.1 Q 160.4 249.9, 160.4 251.4 Q 160.4 252.3, 159.9 253.0 Q 159.4 253.7, 158.4 254.2 M 156.4 249.5 Q 155.4 249.5, 154.8 250.0 Q 154.3 250.5, 154.3 251.4 Q 154.3 252.0, 154.7 252.5 Q 155.0 252.9, 155.6 253.2 Q 156.1 253.4, 157.2 253.8 Q 158.0 253.2, 158.3 252.7 Q 158.6 252.1, 158.6 251.4 Q 158.6 250.5, 158.0 250.0 Q 157.5 249.5, 156.4 249.5 M 156.5 259.6 Q 157.7 259.6, 158.4 259.0 Q 159.1 258.4, 159.1 257.4 Q 159.1 256.7, 158.7 256.3 Q 158.3 255.9, 157.8 255.6 Q 157.2 255.4, 156.2 255.0 L 155.5 254.8 Q 154.6 255.3, 154.2 255.9 Q 153.8 256.6, 153.8 257.4 Q 153.8 258.4, 154.5 259.0 Q 155.3 259.6, 156.5 259.6 " fill="#000000"/>
<path class="atom-18" d="M 117.4 329.4 Q 117.4 326.3, 118.8 324.7 Q 120.3 323.1, 123.1 323.1 Q 125.6 323.1, 127.0 324.9 L 125.8 325.8 Q 124.8 324.5, 123.1 324.5 Q 121.2 324.5, 120.2 325.8 Q 119.2 327.0, 119.2 329.4 Q 119.2 331.9, 120.2 333.1 Q 121.2 334.4, 123.2 334.4 Q 124.6 334.4, 126.2 333.6 L 126.7 334.9 Q 126.0 335.3, 125.1 335.5 Q 124.1 335.8, 123.0 335.8 Q 120.3 335.8, 118.8 334.1 Q 117.4 332.5, 117.4 329.4 " fill="#000000"/>
<path class="atom-18" d="M 128.3 333.6 L 130.0 333.6 L 130.0 335.3 L 128.3 335.3 L 128.3 333.6 M 128.3 327.5 L 130.0 327.5 L 130.0 329.3 L 128.3 329.3 L 128.3 327.5 " fill="#000000"/>
<path class="atom-18" d="M 131.7 334.2 L 134.4 334.2 L 134.4 324.9 L 131.4 325.9 L 131.0 324.8 L 134.8 323.1 L 136.0 323.4 L 136.0 334.2 L 138.5 334.2 L 138.5 335.6 L 131.7 335.6 L 131.7 334.2 " fill="#000000"/>
<path class="atom-18" d="M 143.6 323.1 Q 145.8 323.1, 146.9 324.6 Q 148.0 326.1, 148.0 329.0 Q 148.0 332.3, 146.7 334.1 Q 145.3 335.8, 142.6 335.8 Q 141.9 335.8, 141.2 335.6 Q 140.6 335.4, 139.9 335.0 L 140.6 333.9 Q 141.5 334.4, 142.6 334.4 Q 144.4 334.4, 145.3 333.2 Q 146.2 332.1, 146.3 329.8 Q 145.6 330.3, 144.8 330.7 Q 144.0 331.0, 143.2 331.0 Q 142.1 331.0, 141.2 330.5 Q 140.4 330.0, 139.9 329.2 Q 139.4 328.3, 139.4 327.2 Q 139.4 326.0, 140.0 325.1 Q 140.5 324.1, 141.5 323.6 Q 142.4 323.1, 143.6 323.1 M 141.2 327.2 Q 141.2 328.3, 141.8 328.9 Q 142.4 329.6, 143.5 329.6 Q 144.3 329.6, 145.0 329.3 Q 145.7 328.9, 146.3 328.4 Q 146.2 326.4, 145.6 325.4 Q 144.9 324.5, 143.6 324.5 Q 142.9 324.5, 142.4 324.9 Q 141.8 325.2, 141.5 325.8 Q 141.2 326.4, 141.2 327.2 " fill="#000000"/>
<path class="atom-19" d="M 101.4 288.3 Q 101.4 285.3, 102.8 283.6 Q 104.3 282.0, 107.0 282.0 Q 109.6 282.0, 111.0 283.8 L 109.8 284.8 Q 108.8 283.5, 107.0 283.5 Q 105.2 283.5, 104.2 284.7 Q 103.2 286.0, 103.2 288.3 Q 103.2 290.8, 104.2 292.1 Q 105.2 293.3, 107.2 293.3 Q 108.6 293.3, 110.2 292.5 L 110.7 293.8 Q 110.0 294.2, 109.1 294.5 Q 108.1 294.7, 107.0 294.7 Q 104.3 294.7, 102.8 293.1 Q 101.4 291.4, 101.4 288.3 " fill="#000000"/>
<path class="atom-19" d="M 112.3 292.5 L 114.0 292.5 L 114.0 294.3 L 112.3 294.3 L 112.3 292.5 M 112.3 286.5 L 114.0 286.5 L 114.0 288.2 L 112.3 288.2 L 112.3 286.5 " fill="#000000"/>
<path class="atom-19" d="M 114.9 284.5 Q 115.4 283.3, 116.5 282.7 Q 117.6 282.0, 119.1 282.0 Q 121.0 282.0, 122.0 283.0 Q 123.1 284.0, 123.1 285.9 Q 123.1 287.7, 121.7 289.4 Q 120.3 291.1, 117.5 293.2 L 123.3 293.2 L 123.3 294.6 L 114.9 294.6 L 114.9 293.4 Q 117.2 291.7, 118.6 290.5 Q 120.0 289.3, 120.6 288.2 Q 121.3 287.1, 121.3 285.9 Q 121.3 284.8, 120.7 284.1 Q 120.1 283.4, 119.1 283.4 Q 118.1 283.4, 117.4 283.8 Q 116.7 284.2, 116.3 285.1 L 114.9 284.5 " fill="#000000"/>
<path class="atom-19" d="M 128.9 294.7 Q 126.6 294.7, 125.5 293.0 Q 124.3 291.3, 124.3 288.3 Q 124.3 285.3, 125.5 283.7 Q 126.6 282.0, 128.9 282.0 Q 131.2 282.0, 132.3 283.7 Q 133.4 285.3, 133.4 288.3 Q 133.4 291.3, 132.3 293.0 Q 131.2 294.7, 128.9 294.7 M 128.9 293.3 Q 130.2 293.3, 130.9 292.1 Q 131.7 290.8, 131.7 288.3 Q 131.7 285.9, 130.9 284.7 Q 130.2 283.4, 128.9 283.4 Q 127.5 283.4, 126.8 284.7 Q 126.1 285.9, 126.1 288.3 Q 126.1 290.8, 126.8 292.1 Q 127.5 293.3, 128.9 293.3 " fill="#000000"/>
<path class="atom-20" d="M 156.1 149.4 L 157.8 149.4 L 157.8 154.7 L 164.1 154.7 L 164.1 149.4 L 165.8 149.4 L 165.8 161.8 L 164.1 161.8 L 164.1 156.1 L 157.8 156.1 L 157.8 161.8 L 156.1 161.8 L 156.1 149.4 " fill="#000000"/>
<path class="atom-20" d="M 167.1 159.7 L 168.9 159.7 L 168.9 161.5 L 167.1 161.5 L 167.1 159.7 M 167.1 153.7 L 168.9 153.7 L 168.9 155.5 L 167.1 155.5 L 167.1 153.7 " fill="#000000"/>
<path class="atom-20" d="M 169.8 151.7 Q 170.2 150.6, 171.3 149.9 Q 172.4 149.2, 173.9 149.2 Q 175.8 149.2, 176.8 150.3 Q 177.9 151.3, 177.9 153.1 Q 177.9 154.9, 176.5 156.6 Q 175.2 158.4, 172.4 160.4 L 178.1 160.4 L 178.1 161.8 L 169.7 161.8 L 169.7 160.6 Q 172.1 159.0, 173.4 157.7 Q 174.8 156.5, 175.5 155.4 Q 176.1 154.3, 176.1 153.2 Q 176.1 152.0, 175.5 151.3 Q 174.9 150.6, 173.9 150.6 Q 172.9 150.6, 172.2 151.0 Q 171.6 151.4, 171.1 152.3 L 169.8 151.7 " fill="#000000"/>
<path class="atom-20" d="M 179.7 160.4 L 182.4 160.4 L 182.4 151.1 L 179.5 152.0 L 179.0 151.0 L 182.9 149.3 L 184.1 149.5 L 184.1 160.4 L 186.5 160.4 L 186.5 161.8 L 179.7 161.8 L 179.7 160.4 " fill="#000000"/>
<path class="atom-21" d="M 160.1 238.2 Q 160.1 235.2, 161.6 233.6 Q 163.1 231.9, 165.8 231.9 Q 168.6 231.9, 170.0 233.6 Q 171.5 235.2, 171.5 238.2 Q 171.5 241.2, 170.0 243.0 Q 168.5 244.7, 165.8 244.7 Q 163.1 244.7, 161.6 243.0 Q 160.1 241.3, 160.1 238.2 M 165.8 243.3 Q 167.7 243.3, 168.7 242.0 Q 169.8 240.7, 169.8 238.2 Q 169.8 235.8, 168.7 234.6 Q 167.7 233.3, 165.8 233.3 Q 163.9 233.3, 162.9 234.5 Q 161.9 235.8, 161.9 238.2 Q 161.9 240.7, 162.9 242.0 Q 163.9 243.3, 165.8 243.3 " fill="#FF0000"/>
<path class="atom-21" d="M 172.8 242.4 L 174.6 242.4 L 174.6 244.2 L 172.8 244.2 L 172.8 242.4 M 172.8 236.4 L 174.6 236.4 L 174.6 238.1 L 172.8 238.1 L 172.8 236.4 " fill="#FF0000"/>
<path class="atom-21" d="M 175.5 234.4 Q 176.0 233.2, 177.0 232.6 Q 178.1 231.9, 179.6 231.9 Q 181.5 231.9, 182.6 232.9 Q 183.6 234.0, 183.6 235.8 Q 183.6 237.6, 182.2 239.3 Q 180.9 241.0, 178.1 243.1 L 183.8 243.1 L 183.8 244.5 L 175.5 244.5 L 175.5 243.3 Q 177.8 241.6, 179.1 240.4 Q 180.5 239.2, 181.2 238.1 Q 181.9 237.0, 181.9 235.8 Q 181.9 234.7, 181.3 234.0 Q 180.7 233.3, 179.6 233.3 Q 178.6 233.3, 178.0 233.7 Q 177.3 234.1, 176.8 235.0 L 175.5 234.4 " fill="#FF0000"/>
<path class="atom-21" d="M 184.7 234.4 Q 185.2 233.2, 186.3 232.6 Q 187.4 231.9, 188.9 231.9 Q 190.7 231.9, 191.8 232.9 Q 192.8 234.0, 192.8 235.8 Q 192.8 237.6, 191.5 239.3 Q 190.1 241.0, 187.3 243.1 L 193.1 243.1 L 193.1 244.5 L 184.7 244.5 L 184.7 243.3 Q 187.0 241.6, 188.4 240.4 Q 189.8 239.2, 190.4 238.1 Q 191.1 237.0, 191.1 235.8 Q 191.1 234.7, 190.5 234.0 Q 189.9 233.3, 188.9 233.3 Q 187.9 233.3, 187.2 233.7 Q 186.5 234.1, 186.1 235.0 L 184.7 234.4 " fill="#FF0000"/>
<path class="atom-22" d="M 282.4 352.3 L 284.1 352.3 L 284.1 357.5 L 290.4 357.5 L 290.4 352.3 L 292.1 352.3 L 292.1 364.7 L 290.4 364.7 L 290.4 358.9 L 284.1 358.9 L 284.1 364.7 L 282.4 364.7 L 282.4 352.3 " fill="#000000"/>
<path class="atom-22" d="M 293.4 362.6 L 295.2 362.6 L 295.2 364.4 L 293.4 364.4 L 293.4 362.6 M 293.4 356.6 L 295.2 356.6 L 295.2 358.4 L 293.4 358.4 L 293.4 356.6 " fill="#000000"/>
<path class="atom-22" d="M 296.1 354.6 Q 296.6 353.4, 297.7 352.8 Q 298.7 352.1, 300.2 352.1 Q 302.1 352.1, 303.2 353.1 Q 304.2 354.2, 304.2 356.0 Q 304.2 357.8, 302.9 359.5 Q 301.5 361.2, 298.7 363.3 L 304.4 363.3 L 304.4 364.7 L 296.1 364.7 L 296.1 363.5 Q 298.4 361.9, 299.8 360.6 Q 301.1 359.4, 301.8 358.3 Q 302.5 357.2, 302.5 356.1 Q 302.5 354.9, 301.9 354.2 Q 301.3 353.5, 300.2 353.5 Q 299.2 353.5, 298.6 353.9 Q 297.9 354.3, 297.4 355.2 L 296.1 354.6 " fill="#000000"/>
<path class="atom-22" d="M 311.1 358.1 Q 312.3 358.5, 312.9 359.3 Q 313.5 360.1, 313.5 361.3 Q 313.5 362.3, 313.0 363.2 Q 312.5 364.0, 311.5 364.4 Q 310.5 364.9, 309.3 364.9 Q 307.9 364.9, 306.9 364.4 Q 306.0 363.9, 305.2 363.0 L 306.2 362.0 Q 306.9 362.8, 307.6 363.1 Q 308.2 363.5, 309.3 363.5 Q 310.4 363.5, 311.1 362.9 Q 311.8 362.2, 311.8 361.3 Q 311.8 360.0, 311.0 359.4 Q 310.3 358.9, 308.8 358.9 L 307.9 358.9 L 307.9 357.6 L 308.7 357.6 Q 310.1 357.6, 310.8 357.0 Q 311.5 356.4, 311.5 355.3 Q 311.5 354.5, 310.9 354.0 Q 310.3 353.5, 309.3 353.5 Q 308.3 353.5, 307.6 353.9 Q 307.0 354.3, 306.5 355.2 L 305.3 354.6 Q 305.7 353.5, 306.8 352.8 Q 307.8 352.1, 309.3 352.1 Q 311.1 352.1, 312.2 353.0 Q 313.3 353.8, 313.3 355.3 Q 313.3 356.3, 312.7 357.0 Q 312.2 357.7, 311.1 358.1 " fill="#000000"/>
<path class="atom-23" d="M 334.8 201.0 L 336.5 201.0 L 336.5 206.3 L 342.8 206.3 L 342.8 201.0 L 344.5 201.0 L 344.5 213.4 L 342.8 213.4 L 342.8 207.7 L 336.5 207.7 L 336.5 213.4 L 334.8 213.4 L 334.8 201.0 " fill="#000000"/>
<path class="atom-23" d="M 345.8 211.4 L 347.6 211.4 L 347.6 213.1 L 345.8 213.1 L 345.8 211.4 M 345.8 205.4 L 347.6 205.4 L 347.6 207.1 L 345.8 207.1 L 345.8 205.4 " fill="#000000"/>
<path class="atom-23" d="M 348.5 203.4 Q 348.9 202.2, 350.0 201.5 Q 351.1 200.9, 352.6 200.9 Q 354.5 200.9, 355.5 201.9 Q 356.6 202.9, 356.6 204.7 Q 356.6 206.6, 355.2 208.3 Q 353.9 210.0, 351.1 212.0 L 356.8 212.0 L 356.8 213.4 L 348.4 213.4 L 348.4 212.3 Q 350.7 210.6, 352.1 209.4 Q 353.5 208.2, 354.2 207.1 Q 354.8 205.9, 354.8 204.8 Q 354.8 203.6, 354.2 203.0 Q 353.6 202.3, 352.6 202.3 Q 351.6 202.3, 350.9 202.7 Q 350.3 203.1, 349.8 204.0 L 348.5 203.4 " fill="#000000"/>
<path class="atom-23" d="M 365.4 209.2 L 366.9 209.2 L 366.9 210.6 L 365.4 210.6 L 365.4 213.4 L 363.7 213.4 L 363.7 210.6 L 357.3 210.6 L 357.3 209.5 L 362.7 201.0 L 365.4 201.0 L 365.4 209.2 M 359.3 209.2 L 363.7 209.2 L 363.7 202.1 L 359.3 209.2 " fill="#000000"/>
<path class="atom-24" d="M 390.9 366.8 L 392.6 366.8 L 392.6 372.1 L 398.9 372.1 L 398.9 366.8 L 400.6 366.8 L 400.6 379.2 L 398.9 379.2 L 398.9 373.5 L 392.6 373.5 L 392.6 379.2 L 390.9 379.2 L 390.9 366.8 " fill="#000000"/>
<path class="atom-24" d="M 401.9 377.2 L 403.7 377.2 L 403.7 378.9 L 401.9 378.9 L 401.9 377.2 M 401.9 371.1 L 403.7 371.1 L 403.7 372.9 L 401.9 372.9 L 401.9 371.1 " fill="#000000"/>
<path class="atom-24" d="M 404.6 369.2 Q 405.1 368.0, 406.1 367.3 Q 407.2 366.7, 408.7 366.7 Q 410.6 366.7, 411.7 367.7 Q 412.7 368.7, 412.7 370.5 Q 412.7 372.3, 411.3 374.1 Q 410.0 375.8, 407.2 377.8 L 412.9 377.8 L 412.9 379.2 L 404.6 379.2 L 404.6 378.0 Q 406.9 376.4, 408.2 375.2 Q 409.6 373.9, 410.3 372.8 Q 411.0 371.7, 411.0 370.6 Q 411.0 369.4, 410.4 368.7 Q 409.8 368.1, 408.7 368.1 Q 407.7 368.1, 407.1 368.5 Q 406.4 368.9, 405.9 369.8 L 404.6 369.2 " fill="#000000"/>
<path class="atom-24" d="M 418.2 371.4 Q 419.3 371.4, 420.2 371.9 Q 421.1 372.4, 421.6 373.3 Q 422.1 374.1, 422.1 375.3 Q 422.1 376.6, 421.5 377.5 Q 420.9 378.4, 419.9 378.9 Q 418.8 379.4, 417.7 379.4 Q 416.6 379.4, 415.5 378.9 Q 414.4 378.5, 413.7 377.7 L 414.8 376.6 Q 415.4 377.2, 416.1 377.6 Q 416.9 377.9, 417.7 377.9 Q 418.8 377.9, 419.6 377.2 Q 420.4 376.6, 420.4 375.3 Q 420.4 374.0, 419.6 373.4 Q 418.8 372.8, 417.6 372.8 Q 416.6 372.8, 415.3 373.2 L 414.4 372.8 L 415.0 366.8 L 421.4 366.8 L 421.2 368.2 L 416.4 368.2 L 416.0 371.9 Q 417.1 371.4, 418.2 371.4 " fill="#000000"/>
<path class="atom-25" d="M 416.1 217.1 L 417.8 217.1 L 417.8 222.4 L 424.1 222.4 L 424.1 217.1 L 425.8 217.1 L 425.8 229.5 L 424.1 229.5 L 424.1 223.8 L 417.8 223.8 L 417.8 229.5 L 416.1 229.5 L 416.1 217.1 " fill="#000000"/>
<path class="atom-25" d="M 427.1 227.5 L 428.9 227.5 L 428.9 229.2 L 427.1 229.2 L 427.1 227.5 M 427.1 221.4 L 428.9 221.4 L 428.9 223.2 L 427.1 223.2 L 427.1 221.4 " fill="#000000"/>
<path class="atom-25" d="M 429.8 219.5 Q 430.2 218.3, 431.3 217.6 Q 432.4 217.0, 433.9 217.0 Q 435.8 217.0, 436.8 218.0 Q 437.9 219.0, 437.9 220.8 Q 437.9 222.7, 436.5 224.4 Q 435.2 226.1, 432.4 228.1 L 438.1 228.1 L 438.1 229.5 L 429.7 229.5 L 429.7 228.3 Q 432.0 226.7, 433.4 225.5 Q 434.8 224.2, 435.5 223.1 Q 436.1 222.0, 436.1 220.9 Q 436.1 219.7, 435.5 219.0 Q 434.9 218.4, 433.9 218.4 Q 432.9 218.4, 432.2 218.8 Q 431.6 219.2, 431.1 220.1 L 429.8 219.5 " fill="#000000"/>
<path class="atom-25" d="M 444.1 221.8 Q 445.2 221.8, 446.1 222.3 Q 446.9 222.7, 447.4 223.6 Q 447.9 224.4, 447.9 225.5 Q 447.9 226.7, 447.3 227.7 Q 446.8 228.6, 445.9 229.1 Q 444.9 229.7, 443.7 229.7 Q 441.5 229.7, 440.4 228.2 Q 439.3 226.7, 439.3 223.7 Q 439.3 220.4, 440.7 218.7 Q 442.0 217.0, 444.7 217.0 Q 445.5 217.0, 446.1 217.1 Q 446.8 217.3, 447.4 217.7 L 446.7 218.9 Q 445.8 218.4, 444.7 218.4 Q 442.9 218.4, 442.1 219.5 Q 441.2 220.6, 441.1 223.0 Q 441.7 222.4, 442.5 222.1 Q 443.3 221.8, 444.1 221.8 M 443.7 228.2 Q 444.4 228.2, 444.9 227.9 Q 445.5 227.5, 445.8 226.9 Q 446.1 226.3, 446.1 225.5 Q 446.1 224.4, 445.5 223.8 Q 444.9 223.2, 443.8 223.2 Q 443.1 223.2, 442.3 223.5 Q 441.6 223.8, 441.1 224.3 Q 441.1 226.4, 441.8 227.3 Q 442.4 228.2, 443.7 228.2 " fill="#000000"/>
<path class="atom-26" d="M 446.7 299.2 L 448.4 299.2 L 448.4 304.5 L 454.7 304.5 L 454.7 299.2 L 456.4 299.2 L 456.4 311.6 L 454.7 311.6 L 454.7 305.9 L 448.4 305.9 L 448.4 311.6 L 446.7 311.6 L 446.7 299.2 " fill="#000000"/>
<path class="atom-26" d="M 457.7 309.6 L 459.5 309.6 L 459.5 311.3 L 457.7 311.3 L 457.7 309.6 M 457.7 303.6 L 459.5 303.6 L 459.5 305.3 L 457.7 305.3 L 457.7 303.6 " fill="#000000"/>
<path class="atom-26" d="M 460.4 301.6 Q 460.8 300.4, 461.9 299.7 Q 463.0 299.1, 464.5 299.1 Q 466.4 299.1, 467.5 300.1 Q 468.5 301.1, 468.5 302.9 Q 468.5 304.8, 467.1 306.5 Q 465.8 308.2, 463.0 310.2 L 468.7 310.2 L 468.7 311.6 L 460.4 311.6 L 460.4 310.5 Q 462.7 308.8, 464.0 307.6 Q 465.4 306.4, 466.1 305.3 Q 466.8 304.1, 466.8 303.0 Q 466.8 301.8, 466.2 301.2 Q 465.6 300.5, 464.5 300.5 Q 463.5 300.5, 462.9 300.9 Q 462.2 301.3, 461.7 302.2 L 460.4 301.6 " fill="#000000"/>
<path class="atom-26" d="M 475.5 300.6 L 469.0 300.6 L 469.0 299.2 L 477.3 299.2 L 477.3 300.5 L 472.3 311.6 L 470.6 311.6 L 475.5 300.6 " fill="#000000"/>
<path class="atom-27" d="M 197.5 234.6 L 199.2 234.6 L 199.2 239.9 L 205.5 239.9 L 205.5 234.6 L 207.2 234.6 L 207.2 247.0 L 205.5 247.0 L 205.5 241.3 L 199.2 241.3 L 199.2 247.0 L 197.5 247.0 L 197.5 234.6 " fill="#000000"/>
<path class="atom-27" d="M 208.5 245.0 L 210.3 245.0 L 210.3 246.7 L 208.5 246.7 L 208.5 245.0 M 208.5 239.0 L 210.3 239.0 L 210.3 240.7 L 208.5 240.7 L 208.5 239.0 " fill="#000000"/>
<path class="atom-27" d="M 211.2 237.0 Q 211.6 235.8, 212.7 235.1 Q 213.8 234.5, 215.3 234.5 Q 217.2 234.5, 218.2 235.5 Q 219.3 236.5, 219.3 238.3 Q 219.3 240.2, 217.9 241.9 Q 216.6 243.6, 213.8 245.6 L 219.5 245.6 L 219.5 247.0 L 211.1 247.0 L 211.1 245.9 Q 213.4 244.2, 214.8 243.0 Q 216.2 241.8, 216.9 240.7 Q 217.5 239.5, 217.5 238.4 Q 217.5 237.2, 216.9 236.5 Q 216.3 235.9, 215.3 235.9 Q 214.3 235.9, 213.6 236.3 Q 213.0 236.7, 212.5 237.6 L 211.2 237.0 " fill="#000000"/>
<path class="atom-27" d="M 226.9 240.5 Q 228.0 240.9, 228.7 241.7 Q 229.3 242.4, 229.3 243.6 Q 229.3 244.7, 228.8 245.5 Q 228.3 246.3, 227.3 246.8 Q 226.3 247.2, 225.0 247.2 Q 223.0 247.2, 221.8 246.3 Q 220.6 245.3, 220.6 243.6 Q 220.6 242.6, 221.1 241.9 Q 221.6 241.1, 222.7 240.5 Q 221.9 240.1, 221.5 239.4 Q 221.0 238.7, 221.0 237.7 Q 221.0 236.2, 222.1 235.3 Q 223.2 234.5, 225.0 234.5 Q 226.8 234.5, 227.8 235.3 Q 228.9 236.2, 228.9 237.7 Q 228.9 238.6, 228.4 239.2 Q 227.9 239.9, 226.9 240.5 M 225.0 235.8 Q 223.9 235.8, 223.3 236.3 Q 222.8 236.8, 222.8 237.7 Q 222.8 238.3, 223.2 238.7 Q 223.6 239.2, 224.1 239.4 Q 224.7 239.7, 225.7 240.0 Q 226.5 239.5, 226.8 238.9 Q 227.1 238.4, 227.1 237.7 Q 227.1 236.8, 226.6 236.3 Q 226.0 235.8, 225.0 235.8 M 225.0 245.9 Q 226.2 245.9, 226.9 245.3 Q 227.6 244.6, 227.6 243.6 Q 227.6 242.9, 227.2 242.5 Q 226.9 242.1, 226.3 241.9 Q 225.8 241.6, 224.8 241.3 L 224.0 241.0 Q 223.1 241.6, 222.7 242.2 Q 222.3 242.8, 222.3 243.6 Q 222.3 244.6, 223.1 245.3 Q 223.8 245.9, 225.0 245.9 " fill="#000000"/>
<path class="atom-28" d="M 190.2 371.5 L 191.9 371.5 L 191.9 376.8 L 198.2 376.8 L 198.2 371.5 L 199.9 371.5 L 199.9 383.9 L 198.2 383.9 L 198.2 378.2 L 191.9 378.2 L 191.9 383.9 L 190.2 383.9 L 190.2 371.5 " fill="#000000"/>
<path class="atom-28" d="M 201.2 381.9 L 202.9 381.9 L 202.9 383.6 L 201.2 383.6 L 201.2 381.9 M 201.2 375.9 L 202.9 375.9 L 202.9 377.6 L 201.2 377.6 L 201.2 375.9 " fill="#000000"/>
<path class="atom-28" d="M 203.9 373.9 Q 204.3 372.7, 205.4 372.1 Q 206.5 371.4, 208.0 371.4 Q 209.9 371.4, 210.9 372.4 Q 212.0 373.4, 212.0 375.2 Q 212.0 377.1, 210.6 378.8 Q 209.3 380.5, 206.5 382.5 L 212.2 382.5 L 212.2 383.9 L 203.8 383.9 L 203.8 382.8 Q 206.1 381.1, 207.5 379.9 Q 208.9 378.7, 209.6 377.6 Q 210.2 376.5, 210.2 375.3 Q 210.2 374.1, 209.6 373.5 Q 209.0 372.8, 208.0 372.8 Q 207.0 372.8, 206.3 373.2 Q 205.7 373.6, 205.2 374.5 L 203.9 373.9 " fill="#000000"/>
<path class="atom-28" d="M 217.3 371.4 Q 219.5 371.4, 220.6 372.9 Q 221.8 374.4, 221.8 377.4 Q 221.8 380.7, 220.4 382.4 Q 219.0 384.1, 216.4 384.1 Q 215.6 384.1, 214.9 383.9 Q 214.3 383.7, 213.6 383.4 L 214.3 382.2 Q 215.2 382.7, 216.3 382.7 Q 218.1 382.7, 219.0 381.6 Q 219.9 380.4, 220.0 378.1 Q 219.4 378.7, 218.5 379.0 Q 217.8 379.3, 216.9 379.3 Q 215.8 379.3, 215.0 378.8 Q 214.1 378.3, 213.6 377.5 Q 213.1 376.6, 213.1 375.5 Q 213.1 374.3, 213.7 373.4 Q 214.2 372.4, 215.2 371.9 Q 216.1 371.4, 217.3 371.4 M 214.9 375.5 Q 214.9 376.6, 215.5 377.2 Q 216.1 377.9, 217.2 377.9 Q 218.0 377.9, 218.7 377.6 Q 219.5 377.3, 220.0 376.7 Q 219.9 374.7, 219.3 373.8 Q 218.6 372.8, 217.3 372.8 Q 216.6 372.8, 216.1 373.2 Q 215.5 373.5, 215.2 374.1 Q 214.9 374.8, 214.9 375.5 " fill="#000000"/>
<path class="atom-29" d="M 106.3 207.3 L 108.0 207.3 L 108.0 212.6 L 114.3 212.6 L 114.3 207.3 L 116.0 207.3 L 116.0 219.7 L 114.3 219.7 L 114.3 214.0 L 108.0 214.0 L 108.0 219.7 L 106.3 219.7 L 106.3 207.3 " fill="#000000"/>
<path class="atom-29" d="M 117.3 217.7 L 119.1 217.7 L 119.1 219.4 L 117.3 219.4 L 117.3 217.7 M 117.3 211.6 L 119.1 211.6 L 119.1 213.4 L 117.3 213.4 L 117.3 211.6 " fill="#000000"/>
<path class="atom-29" d="M 125.8 213.2 Q 127.0 213.5, 127.6 214.3 Q 128.2 215.1, 128.2 216.3 Q 128.2 217.4, 127.6 218.2 Q 127.1 219.0, 126.1 219.5 Q 125.2 219.9, 123.9 219.9 Q 122.6 219.9, 121.6 219.4 Q 120.6 219.0, 119.8 218.0 L 120.8 217.0 Q 121.6 217.8, 122.2 218.2 Q 122.9 218.5, 123.9 218.5 Q 125.0 218.5, 125.7 217.9 Q 126.4 217.3, 126.4 216.3 Q 126.4 215.0, 125.7 214.5 Q 125.0 213.9, 123.5 213.9 L 122.6 213.9 L 122.6 212.6 L 123.4 212.6 Q 124.7 212.6, 125.4 212.0 Q 126.1 211.4, 126.1 210.3 Q 126.1 209.5, 125.6 209.1 Q 125.0 208.6, 123.9 208.6 Q 122.9 208.6, 122.3 208.9 Q 121.6 209.3, 121.1 210.2 L 119.9 209.6 Q 120.4 208.6, 121.4 207.9 Q 122.5 207.2, 123.9 207.2 Q 125.8 207.2, 126.8 208.0 Q 127.9 208.9, 127.9 210.3 Q 127.9 211.3, 127.4 212.1 Q 126.8 212.8, 125.8 213.2 " fill="#000000"/>
<path class="atom-29" d="M 133.8 219.9 Q 131.5 219.9, 130.4 218.2 Q 129.2 216.5, 129.2 213.5 Q 129.2 210.5, 130.4 208.8 Q 131.5 207.2, 133.8 207.2 Q 136.1 207.2, 137.2 208.8 Q 138.3 210.5, 138.3 213.5 Q 138.3 216.5, 137.2 218.2 Q 136.0 219.9, 133.8 219.9 M 133.8 218.5 Q 135.1 218.5, 135.8 217.2 Q 136.6 216.0, 136.6 213.5 Q 136.6 211.1, 135.8 209.8 Q 135.1 208.6, 133.8 208.6 Q 132.4 208.6, 131.7 209.8 Q 131.0 211.1, 131.0 213.5 Q 131.0 216.0, 131.7 217.2 Q 132.4 218.5, 133.8 218.5 " fill="#000000"/>
<path class="atom-30" d="M 82.1 357.0 L 83.7 357.0 L 83.7 362.3 L 90.1 362.3 L 90.1 357.0 L 91.8 357.0 L 91.8 369.4 L 90.1 369.4 L 90.1 363.7 L 83.7 363.7 L 83.7 369.4 L 82.1 369.4 L 82.1 357.0 " fill="#000000"/>
<path class="atom-30" d="M 93.1 367.4 L 94.8 367.4 L 94.8 369.1 L 93.1 369.1 L 93.1 367.4 M 93.1 361.3 L 94.8 361.3 L 94.8 363.1 L 93.1 363.1 L 93.1 361.3 " fill="#000000"/>
<path class="atom-30" d="M 101.5 362.9 Q 102.7 363.2, 103.3 364.0 Q 103.9 364.8, 103.9 366.0 Q 103.9 367.1, 103.4 367.9 Q 102.9 368.7, 101.9 369.1 Q 100.9 369.6, 99.7 369.6 Q 98.3 369.6, 97.3 369.1 Q 96.4 368.7, 95.6 367.7 L 96.6 366.7 Q 97.3 367.5, 98.0 367.9 Q 98.6 368.2, 99.7 368.2 Q 100.8 368.2, 101.5 367.6 Q 102.2 367.0, 102.2 366.0 Q 102.2 364.7, 101.4 364.2 Q 100.7 363.6, 99.2 363.6 L 98.3 363.6 L 98.3 362.3 L 99.1 362.3 Q 100.5 362.3, 101.2 361.7 Q 101.9 361.1, 101.9 360.0 Q 101.9 359.2, 101.3 358.8 Q 100.7 358.3, 99.7 358.3 Q 98.7 358.3, 98.0 358.6 Q 97.4 359.0, 96.9 359.9 L 95.7 359.3 Q 96.1 358.2, 97.2 357.6 Q 98.2 356.9, 99.7 356.9 Q 101.5 356.9, 102.6 357.7 Q 103.7 358.6, 103.7 360.0 Q 103.7 361.0, 103.1 361.7 Q 102.6 362.5, 101.5 362.9 " fill="#000000"/>
<path class="atom-30" d="M 105.5 368.0 L 108.3 368.0 L 108.3 358.7 L 105.3 359.7 L 104.9 358.6 L 108.7 356.9 L 109.9 357.1 L 109.9 368.0 L 112.3 368.0 L 112.3 369.4 L 105.5 369.4 L 105.5 368.0 " fill="#000000"/>
<path class="atom-31" d="M 60.9 274.9 L 64.9 281.5 Q 65.3 282.1, 66.0 283.3 Q 66.6 284.5, 66.7 284.5 L 66.7 274.9 L 68.3 274.9 L 68.3 287.3 L 66.6 287.3 L 62.2 280.1 Q 61.7 279.3, 61.2 278.3 Q 60.7 277.3, 60.5 277.0 L 60.5 287.3 L 58.9 287.3 L 58.9 274.9 L 60.9 274.9 " fill="#0000FF"/>
<path class="atom-31" d="M 69.6 285.2 L 71.4 285.2 L 71.4 287.0 L 69.6 287.0 L 69.6 285.2 M 69.6 279.2 L 71.4 279.2 L 71.4 281.0 L 69.6 281.0 L 69.6 279.2 " fill="#0000FF"/>
<path class="atom-31" d="M 78.1 280.8 Q 79.3 281.1, 79.9 281.9 Q 80.5 282.7, 80.5 283.9 Q 80.5 285.0, 79.9 285.8 Q 79.4 286.6, 78.4 287.0 Q 77.5 287.5, 76.2 287.5 Q 74.9 287.5, 73.9 287.0 Q 72.9 286.5, 72.1 285.6 L 73.1 284.6 Q 73.9 285.4, 74.5 285.8 Q 75.2 286.1, 76.2 286.1 Q 77.3 286.1, 78.0 285.5 Q 78.7 284.9, 78.7 283.9 Q 78.7 282.6, 78.0 282.1 Q 77.3 281.5, 75.8 281.5 L 74.9 281.5 L 74.9 280.2 L 75.7 280.2 Q 77.0 280.2, 77.7 279.6 Q 78.4 279.0, 78.4 277.9 Q 78.4 277.1, 77.8 276.6 Q 77.3 276.2, 76.2 276.2 Q 75.2 276.2, 74.6 276.5 Q 73.9 276.9, 73.4 277.8 L 72.2 277.2 Q 72.7 276.1, 73.7 275.5 Q 74.8 274.8, 76.2 274.8 Q 78.1 274.8, 79.1 275.6 Q 80.2 276.5, 80.2 277.9 Q 80.2 278.9, 79.7 279.6 Q 79.1 280.4, 78.1 280.8 " fill="#0000FF"/>
<path class="atom-31" d="M 81.4 277.2 Q 81.8 276.1, 82.9 275.4 Q 84.0 274.8, 85.5 274.8 Q 87.4 274.8, 88.4 275.8 Q 89.5 276.8, 89.5 278.6 Q 89.5 280.4, 88.1 282.1 Q 86.8 283.9, 84.0 285.9 L 89.7 285.9 L 89.7 287.3 L 81.3 287.3 L 81.3 286.1 Q 83.6 284.5, 85.0 283.3 Q 86.4 282.0, 87.1 280.9 Q 87.7 279.8, 87.7 278.7 Q 87.7 277.5, 87.1 276.8 Q 86.5 276.2, 85.5 276.2 Q 84.5 276.2, 83.8 276.6 Q 83.2 277.0, 82.7 277.9 L 81.4 277.2 " fill="#0000FF"/>
<path class="atom-32" d="M 326.0 185.4 L 327.7 185.4 L 327.7 190.7 L 334.0 190.7 L 334.0 185.4 L 335.7 185.4 L 335.7 197.8 L 334.0 197.8 L 334.0 192.1 L 327.7 192.1 L 327.7 197.8 L 326.0 197.8 L 326.0 185.4 " fill="#000000"/>
<path class="atom-32" d="M 337.0 195.7 L 338.8 195.7 L 338.8 197.5 L 337.0 197.5 L 337.0 195.7 M 337.0 189.7 L 338.8 189.7 L 338.8 191.5 L 337.0 191.5 L 337.0 189.7 " fill="#000000"/>
<path class="atom-32" d="M 345.5 191.3 Q 346.7 191.6, 347.2 192.4 Q 347.8 193.2, 347.8 194.4 Q 347.8 195.4, 347.3 196.3 Q 346.8 197.1, 345.8 197.5 Q 344.9 198.0, 343.6 198.0 Q 342.3 198.0, 341.3 197.5 Q 340.3 197.0, 339.5 196.1 L 340.5 195.1 Q 341.3 195.9, 341.9 196.3 Q 342.6 196.6, 343.6 196.6 Q 344.7 196.6, 345.4 196.0 Q 346.1 195.4, 346.1 194.4 Q 346.1 193.1, 345.4 192.6 Q 344.7 192.0, 343.1 192.0 L 342.2 192.0 L 342.2 190.7 L 343.0 190.7 Q 344.4 190.7, 345.1 190.1 Q 345.8 189.5, 345.8 188.4 Q 345.8 187.6, 345.2 187.1 Q 344.6 186.7, 343.6 186.7 Q 342.6 186.7, 341.9 187.0 Q 341.3 187.4, 340.8 188.3 L 339.6 187.7 Q 340.0 186.6, 341.1 185.9 Q 342.1 185.2, 343.6 185.2 Q 345.4 185.2, 346.5 186.1 Q 347.6 187.0, 347.6 188.4 Q 347.6 189.4, 347.0 190.1 Q 346.5 190.9, 345.5 191.3 " fill="#000000"/>
<path class="atom-32" d="M 354.5 191.3 Q 355.7 191.6, 356.3 192.4 Q 356.9 193.2, 356.9 194.4 Q 356.9 195.4, 356.4 196.3 Q 355.9 197.1, 354.9 197.5 Q 353.9 198.0, 352.7 198.0 Q 351.3 198.0, 350.3 197.5 Q 349.4 197.0, 348.6 196.1 L 349.6 195.1 Q 350.3 195.9, 351.0 196.3 Q 351.6 196.6, 352.7 196.6 Q 353.8 196.6, 354.5 196.0 Q 355.2 195.4, 355.2 194.4 Q 355.2 193.1, 354.4 192.6 Q 353.7 192.0, 352.2 192.0 L 351.3 192.0 L 351.3 190.7 L 352.1 190.7 Q 353.5 190.7, 354.2 190.1 Q 354.9 189.5, 354.9 188.4 Q 354.9 187.6, 354.3 187.1 Q 353.7 186.7, 352.7 186.7 Q 351.7 186.7, 351.0 187.0 Q 350.4 187.4, 349.9 188.3 L 348.7 187.7 Q 349.1 186.6, 350.2 185.9 Q 351.2 185.2, 352.7 185.2 Q 354.5 185.2, 355.6 186.1 Q 356.7 187.0, 356.7 188.4 Q 356.7 189.4, 356.1 190.1 Q 355.6 190.9, 354.5 191.3 " fill="#000000"/>
<path class="atom-33" d="M 267.3 116.1 L 268.9 116.1 L 268.9 121.3 L 275.3 121.3 L 275.3 116.1 L 277.0 116.1 L 277.0 128.5 L 275.3 128.5 L 275.3 122.7 L 268.9 122.7 L 268.9 128.5 L 267.3 128.5 L 267.3 116.1 " fill="#000000"/>
<path class="atom-33" d="M 278.3 126.4 L 280.0 126.4 L 280.0 128.2 L 278.3 128.2 L 278.3 126.4 M 278.3 120.4 L 280.0 120.4 L 280.0 122.1 L 278.3 122.1 L 278.3 120.4 " fill="#000000"/>
<path class="atom-33" d="M 286.7 121.9 Q 287.9 122.3, 288.5 123.1 Q 289.1 123.8, 289.1 125.1 Q 289.1 126.1, 288.6 126.9 Q 288.1 127.8, 287.1 128.2 Q 286.1 128.6, 284.9 128.6 Q 283.5 128.6, 282.5 128.2 Q 281.6 127.7, 280.8 126.8 L 281.8 125.8 Q 282.5 126.6, 283.2 126.9 Q 283.8 127.2, 284.9 127.2 Q 286.0 127.2, 286.7 126.6 Q 287.4 126.0, 287.4 125.1 Q 287.4 123.8, 286.6 123.2 Q 285.9 122.7, 284.4 122.7 L 283.5 122.7 L 283.5 121.4 L 284.3 121.4 Q 285.7 121.4, 286.4 120.8 Q 287.1 120.2, 287.1 119.1 Q 287.1 118.3, 286.5 117.8 Q 285.9 117.3, 284.9 117.3 Q 283.9 117.3, 283.2 117.7 Q 282.6 118.1, 282.1 119.0 L 280.9 118.3 Q 281.3 117.3, 282.4 116.6 Q 283.4 115.9, 284.9 115.9 Q 286.7 115.9, 287.8 116.8 Q 288.8 117.6, 288.8 119.1 Q 288.8 120.1, 288.3 120.8 Q 287.8 121.5, 286.7 121.9 " fill="#000000"/>
<path class="atom-33" d="M 297.7 124.2 L 299.2 124.2 L 299.2 125.6 L 297.7 125.6 L 297.7 128.5 L 296.0 128.5 L 296.0 125.6 L 289.6 125.6 L 289.6 124.5 L 295.1 116.1 L 297.7 116.1 L 297.7 124.2 M 291.7 124.2 L 296.0 124.2 L 296.0 117.2 L 291.7 124.2 " fill="#000000"/>
<path class="atom-34" d="M 35.8 233.8 L 37.5 233.8 L 37.5 239.1 L 43.8 239.1 L 43.8 233.8 L 45.5 233.8 L 45.5 246.2 L 43.8 246.2 L 43.8 240.5 L 37.5 240.5 L 37.5 246.2 L 35.8 246.2 L 35.8 233.8 " fill="#000000"/>
<path class="atom-34" d="M 46.8 244.2 L 48.6 244.2 L 48.6 245.9 L 46.8 245.9 L 46.8 244.2 M 46.8 238.2 L 48.6 238.2 L 48.6 239.9 L 46.8 239.9 L 46.8 238.2 " fill="#000000"/>
<path class="atom-34" d="M 55.3 239.7 Q 56.5 240.1, 57.1 240.8 Q 57.7 241.6, 57.7 242.8 Q 57.7 243.9, 57.1 244.7 Q 56.6 245.5, 55.6 246.0 Q 54.7 246.4, 53.4 246.4 Q 52.1 246.4, 51.1 246.0 Q 50.1 245.5, 49.3 244.5 L 50.3 243.5 Q 51.1 244.4, 51.7 244.7 Q 52.4 245.0, 53.4 245.0 Q 54.5 245.0, 55.2 244.4 Q 55.9 243.8, 55.9 242.8 Q 55.9 241.6, 55.2 241.0 Q 54.5 240.4, 53.0 240.4 L 52.1 240.4 L 52.1 239.2 L 52.9 239.2 Q 54.2 239.1, 54.9 238.6 Q 55.6 238.0, 55.6 236.9 Q 55.6 236.1, 55.0 235.6 Q 54.5 235.1, 53.4 235.1 Q 52.4 235.1, 51.8 235.5 Q 51.1 235.8, 50.6 236.8 L 49.4 236.1 Q 49.9 235.1, 50.9 234.4 Q 52.0 233.7, 53.4 233.7 Q 55.3 233.7, 56.3 234.6 Q 57.4 235.4, 57.4 236.9 Q 57.4 237.9, 56.9 238.6 Q 56.3 239.3, 55.3 239.7 " fill="#000000"/>
<path class="atom-34" d="M 63.0 238.5 Q 64.1 238.5, 64.9 239.0 Q 65.8 239.4, 66.4 240.3 Q 66.9 241.1, 66.9 242.3 Q 66.9 243.6, 66.2 244.5 Q 65.6 245.4, 64.6 245.9 Q 63.6 246.4, 62.4 246.4 Q 61.3 246.4, 60.2 246.0 Q 59.2 245.5, 58.5 244.7 L 59.5 243.7 Q 60.1 244.3, 60.9 244.6 Q 61.7 245.0, 62.5 245.0 Q 63.6 245.0, 64.3 244.3 Q 65.1 243.6, 65.1 242.4 Q 65.1 241.0, 64.3 240.4 Q 63.6 239.8, 62.4 239.8 Q 61.3 239.8, 60.1 240.3 L 59.1 239.8 L 59.7 233.8 L 66.1 233.8 L 65.9 235.2 L 61.1 235.2 L 60.8 238.9 Q 61.9 238.5, 63.0 238.5 " fill="#000000"/>
<path class="atom-35" d="M 22.7 308.7 L 24.4 308.7 L 24.4 314.0 L 30.8 314.0 L 30.8 308.7 L 32.4 308.7 L 32.4 321.1 L 30.8 321.1 L 30.8 315.4 L 24.4 315.4 L 24.4 321.1 L 22.7 321.1 L 22.7 308.7 " fill="#000000"/>
<path class="atom-35" d="M 33.8 319.0 L 35.5 319.0 L 35.5 320.8 L 33.8 320.8 L 33.8 319.0 M 33.8 313.0 L 35.5 313.0 L 35.5 314.8 L 33.8 314.8 L 33.8 313.0 " fill="#000000"/>
<path class="atom-35" d="M 42.2 314.6 Q 43.4 314.9, 44.0 315.7 Q 44.6 316.5, 44.6 317.7 Q 44.6 318.7, 44.1 319.6 Q 43.5 320.4, 42.6 320.8 Q 41.6 321.3, 40.3 321.3 Q 39.0 321.3, 38.0 320.8 Q 37.0 320.3, 36.2 319.4 L 37.2 318.4 Q 38.0 319.2, 38.7 319.5 Q 39.3 319.9, 40.3 319.9 Q 41.5 319.9, 42.1 319.3 Q 42.8 318.7, 42.8 317.7 Q 42.8 316.4, 42.1 315.8 Q 41.4 315.3, 39.9 315.3 L 39.0 315.3 L 39.0 314.0 L 39.8 314.0 Q 41.1 314.0, 41.8 313.4 Q 42.6 312.8, 42.6 311.7 Q 42.6 310.9, 42.0 310.4 Q 41.4 309.9, 40.4 309.9 Q 39.3 309.9, 38.7 310.3 Q 38.0 310.7, 37.6 311.6 L 36.3 311.0 Q 36.8 309.9, 37.8 309.2 Q 38.9 308.5, 40.4 308.5 Q 42.2 308.5, 43.3 309.4 Q 44.3 310.3, 44.3 311.7 Q 44.3 312.7, 43.8 313.4 Q 43.2 314.1, 42.2 314.6 " fill="#000000"/>
<path class="atom-35" d="M 50.6 313.3 Q 51.7 313.3, 52.6 313.8 Q 53.4 314.3, 53.9 315.1 Q 54.4 316.0, 54.4 317.1 Q 54.4 318.3, 53.8 319.2 Q 53.3 320.2, 52.4 320.7 Q 51.4 321.2, 50.2 321.2 Q 48.0 321.2, 46.9 319.7 Q 45.8 318.2, 45.8 315.3 Q 45.8 312.0, 47.1 310.3 Q 48.5 308.5, 51.2 308.5 Q 51.9 308.5, 52.6 308.7 Q 53.3 308.9, 53.9 309.3 L 53.2 310.4 Q 52.3 309.9, 51.2 309.9 Q 49.4 309.9, 48.5 311.1 Q 47.7 312.2, 47.5 314.5 Q 48.2 314.0, 49.0 313.7 Q 49.8 313.3, 50.6 313.3 M 50.2 319.8 Q 50.9 319.8, 51.4 319.4 Q 52.0 319.1, 52.3 318.5 Q 52.6 317.9, 52.6 317.1 Q 52.6 316.0, 52.0 315.4 Q 51.4 314.7, 50.3 314.7 Q 49.6 314.7, 48.8 315.1 Q 48.1 315.4, 47.5 315.9 Q 47.6 317.9, 48.3 318.9 Q 48.9 319.8, 50.2 319.8 " fill="#000000"/>
<text x="264.7680683328249" y="293.1918614340211" font-size="12" font-family="Verdana" font-weight="bold" letter-spacing="0" text-anchor="start" fill="black" transform=" rotate(39.544104 264.768068 293.191861)">1.1845</text><text x="25" y="490" font-size="12" font-family="Verdana" font-weight="bold" letter-spacing="0" text-anchor="start" fill="black">[#6:1]1(-[#7:2](/[#6:3](=[#6:4]2/[#6:7](=[#6:10](-[#7:8](-[#6:9]-2=[#8:22])-[H:21])-[H:34])-[H:33])-[#6:6]2:[#6:11](:[#6:13](:[#6:15](:[#6:14](:[#6:12]:2-[H:24])-[H:26])-[H:27])-[H:25])-[H:23])-[H:5]):[#6:16](:[#6:18](:[#6:20](:[#6:19](:[#6:17]:1-[H:29])-[H:31])-[#7:32](-[H:35])-[H:36])-[H:30])-[H:28]</text></svg>
