<?xml version='1.0' encoding='ASCII' standalone='yes'?>
<svg xmlns="http://www.w3.org/2000/svg" xmlns:rdkit="http://www.rdkit.org/xml" xmlns:xlink="http://www.w3.org/1999/xlink" version="1.1" baseProfile="full" xml:space="preserve" width="500px" height="500px" viewBox="0 0 500 500">
<!-- END OF HEADER -->
<rect style="opacity:1.0;fill:#FFFFFF;stroke:none" width="500" height="500" x="0" y="0"> </rect>
<path d="M 150.787,294.861 L 236.495,322.709" style="fill:none;fill-rule:evenodd;stroke:#FF7F7F;stroke-width:19.2px;stroke-linecap:butt;stroke-linejoin:miter;stroke-opacity:1"/>
<path class="bond-2 atom-1 atom-0" d="M 129.924,310.019 L 108.554,325.545" style="fill:none;fill-rule:evenodd;stroke:#0000FF;stroke-width:2.0px;stroke-linecap:butt;stroke-linejoin:miter;stroke-opacity:1"/>
<path class="bond-2 atom-1 atom-0" d="M 108.554,325.545 L 87.1842,341.071" style="fill:none;fill-rule:evenodd;stroke:#000000;stroke-width:2.0px;stroke-linecap:butt;stroke-linejoin:miter;stroke-opacity:1"/>
<path class="bond-0 atom-1 atom-4" d="M 161.638,298.387 L 183.01,305.331" style="fill:none;fill-rule:evenodd;stroke:#0000FF;stroke-width:2.0px;stroke-linecap:butt;stroke-linejoin:miter;stroke-opacity:1"/>
<path class="bond-0 atom-1 atom-4" d="M 183.01,305.331 L 204.383,312.275" style="fill:none;fill-rule:evenodd;stroke:#000000;stroke-width:2.0px;stroke-linecap:butt;stroke-linejoin:miter;stroke-opacity:1"/>
<path class="bond-1 atom-1 atom-5" d="M 150.787,279.703 L 150.787,249.756" style="fill:none;fill-rule:evenodd;stroke:#0000FF;stroke-width:2.0px;stroke-linecap:butt;stroke-linejoin:miter;stroke-opacity:1"/>
<path class="bond-1 atom-1 atom-5" d="M 150.787,249.756 L 150.787,219.81" style="fill:none;fill-rule:evenodd;stroke:#000000;stroke-width:2.0px;stroke-linecap:butt;stroke-linejoin:miter;stroke-opacity:1"/>
<path class="bond-3 atom-2 atom-3" d="M 278.453,234.644 L 247.168,191.584" style="fill:none;fill-rule:evenodd;stroke:#000000;stroke-width:2.0px;stroke-linecap:butt;stroke-linejoin:miter;stroke-opacity:1"/>
<path class="bond-4 atom-2 atom-6" d="M 326.54,249.802 L 348.585,249.802" style="fill:none;fill-rule:evenodd;stroke:#000000;stroke-width:2.0px;stroke-linecap:butt;stroke-linejoin:miter;stroke-opacity:1"/>
<path class="bond-4 atom-2 atom-6" d="M 329.847,231.778 L 345.278,231.778" style="fill:none;fill-rule:evenodd;stroke:#000000;stroke-width:2.0px;stroke-linecap:butt;stroke-linejoin:miter;stroke-opacity:1"/>
<path class="bond-5 atom-2 atom-4" d="M 278.217,265.284 L 246.951,308.318" style="fill:none;fill-rule:evenodd;stroke:#000000;stroke-width:2.0px;stroke-linecap:butt;stroke-linejoin:miter;stroke-opacity:1"/>
<path class="bond-6 atom-3 atom-5" d="M 203.299,187.681 L 161.017,201.419" style="fill:none;fill-rule:evenodd;stroke:#000000;stroke-width:2.0px;stroke-linecap:butt;stroke-linejoin:miter;stroke-opacity:1"/>
<path class="bond-6 atom-3 atom-5" d="M 202.526,206.883 L 172.929,216.499" style="fill:none;fill-rule:evenodd;stroke:#000000;stroke-width:2.0px;stroke-linecap:butt;stroke-linejoin:miter;stroke-opacity:1"/>
<path class="bond-7 atom-3 atom-8" d="M 241.327,162.025 L 259.545,105.953" style="fill:none;fill-rule:evenodd;stroke:#000000;stroke-width:2.0px;stroke-linecap:butt;stroke-linejoin:miter;stroke-opacity:1"/>
<path class="bond-8 atom-4 atom-7" d="M 232.943,340.94 L 241.961,368.695" style="fill:none;fill-rule:evenodd;stroke:#000000;stroke-width:2.0px;stroke-linecap:butt;stroke-linejoin:miter;stroke-opacity:1"/>
<path class="bond-8 atom-4 atom-7" d="M 241.961,368.695 L 250.979,396.45" style="fill:none;fill-rule:evenodd;stroke:#FF0000;stroke-width:2.0px;stroke-linecap:butt;stroke-linejoin:miter;stroke-opacity:1"/>
<path class="bond-8 atom-4 atom-7" d="M 250.085,335.371 L 259.103,363.126" style="fill:none;fill-rule:evenodd;stroke:#000000;stroke-width:2.0px;stroke-linecap:butt;stroke-linejoin:miter;stroke-opacity:1"/>
<path class="bond-8 atom-4 atom-7" d="M 259.103,363.126 L 268.121,390.88" style="fill:none;fill-rule:evenodd;stroke:#FF0000;stroke-width:2.0px;stroke-linecap:butt;stroke-linejoin:miter;stroke-opacity:1"/>
<path class="bond-9 atom-5 atom-9" d="M 129.924,189.584 L 88.8244,159.724" style="fill:none;fill-rule:evenodd;stroke:#000000;stroke-width:2.0px;stroke-linecap:butt;stroke-linejoin:miter;stroke-opacity:1"/>
<path class="bond-10 atom-6 atom-10" d="M 388.336,264.96 L 416.27,313.343" style="fill:none;fill-rule:evenodd;stroke:#000000;stroke-width:2.0px;stroke-linecap:butt;stroke-linejoin:miter;stroke-opacity:1"/>
<path class="bond-11 atom-6 atom-11" d="M 388.169,234.932 L 416.14,186.485" style="fill:none;fill-rule:evenodd;stroke:#000000;stroke-width:2.0px;stroke-linecap:butt;stroke-linejoin:miter;stroke-opacity:1"/>
<path class="atom-0" d="M 41.9586 335.143 L 45.4191 335.143 L 45.4191 345.993 L 58.4683 345.993 L 58.4683 335.143 L 61.9289 335.143 L 61.9289 360.664 L 58.4683 360.664 L 58.4683 348.877 L 45.4191 348.877 L 45.4191 360.664 L 41.9586 360.664 L 41.9586 335.143 " fill="#000000"/>
<path class="atom-0" d="M 64.6324 356.447 L 68.2372 356.447 L 68.2372 360.051 L 64.6324 360.051 L 64.6324 356.447 M 64.6324 344.046 L 68.2372 344.046 L 68.2372 347.651 L 64.6324 347.651 L 64.6324 344.046 " fill="#000000"/>
<path class="atom-0" d="M 71.5896 357.781 L 77.1769 357.781 L 77.1769 338.711 L 71.0128 340.622 L 70.1837 338.495 L 78.006 334.999 L 80.5654 335.431 L 80.5654 357.781 L 85.576 357.781 L 85.576 360.664 L 71.5896 360.664 L 71.5896 357.781 " fill="#000000"/>
<path class="atom-1" d="M 118.759 282.244 L 127.122 295.762 Q 127.951 297.096, 129.285 299.511 Q 130.619 301.926, 130.691 302.071 L 130.691 282.244 L 134.079 282.244 L 134.079 307.766 L 130.583 307.766 L 121.607 292.987 Q 120.562 291.256, 119.444 289.274 Q 118.363 287.291, 118.038 286.678 L 118.038 307.766 L 114.722 307.766 L 114.722 282.244 L 118.759 282.244 " fill="#0000FF"/>
<path class="atom-1" d="M 136.783 303.548 L 140.388 303.548 L 140.388 307.153 L 136.783 307.153 L 136.783 303.548 M 136.783 291.148 L 140.388 291.148 L 140.388 294.753 L 136.783 294.753 L 136.783 291.148 " fill="#0000FF"/>
<path class="atom-1" d="M 142.262 287.075 Q 143.199 284.66, 145.434 283.326 Q 147.669 281.956, 150.769 281.956 Q 154.626 281.956, 156.789 284.047 Q 158.952 286.138, 158.952 289.85 Q 158.952 293.635, 156.14 297.168 Q 153.365 300.701, 147.597 304.882 L 159.385 304.882 L 159.385 307.766 L 142.19 307.766 L 142.19 305.351 Q 146.948 301.962, 149.76 299.439 Q 152.608 296.916, 153.978 294.645 Q 155.347 292.374, 155.347 290.031 Q 155.347 287.579, 154.122 286.21 Q 152.896 284.84, 150.769 284.84 Q 148.715 284.84, 147.345 285.669 Q 145.975 286.498, 145.002 288.336 L 142.262 287.075 " fill="#0000FF"/>
<path class="atom-2" d="M 279.625 249.91 Q 279.625 243.566, 282.581 240.249 Q 285.572 236.897, 291.232 236.897 Q 296.495 236.897, 299.307 240.61 L 296.927 242.556 Q 294.873 239.853, 291.232 239.853 Q 287.375 239.853, 285.32 242.448 Q 283.301 245.007, 283.301 249.91 Q 283.301 254.957, 285.392 257.552 Q 287.519 260.147, 291.628 260.147 Q 294.44 260.147, 297.72 258.453 L 298.73 261.157 Q 297.396 262.022, 295.377 262.526 Q 293.359 263.031, 291.124 263.031 Q 285.572 263.031, 282.581 259.643 Q 279.625 256.254, 279.625 249.91 " fill="#000000"/>
<path class="atom-2" d="M 302.01 258.489 L 305.615 258.489 L 305.615 262.094 L 302.01 262.094 L 302.01 258.489 M 302.01 246.089 L 305.615 246.089 L 305.615 249.694 L 302.01 249.694 L 302.01 246.089 " fill="#000000"/>
<path class="atom-2" d="M 319.385 249.261 Q 321.872 249.982, 323.062 251.604 Q 324.287 253.19, 324.287 255.714 Q 324.287 257.876, 323.206 259.571 Q 322.125 261.229, 320.142 262.166 Q 318.159 263.067, 315.564 263.067 Q 312.824 263.067, 310.77 262.13 Q 308.751 261.157, 307.129 259.21 L 309.184 257.119 Q 310.77 258.85, 312.103 259.535 Q 313.437 260.183, 315.564 260.183 Q 317.871 260.183, 319.277 258.958 Q 320.683 257.696, 320.683 255.677 Q 320.683 253.082, 319.205 251.929 Q 317.763 250.739, 314.627 250.739 L 312.788 250.739 L 312.788 248.144 L 314.41 248.144 Q 317.186 248.108, 318.664 246.918 Q 320.142 245.692, 320.142 243.421 Q 320.142 241.763, 318.916 240.79 Q 317.691 239.781, 315.6 239.781 Q 313.473 239.781, 312.139 240.538 Q 310.842 241.295, 309.832 243.205 L 307.345 241.871 Q 308.246 239.745, 310.409 238.339 Q 312.572 236.897, 315.6 236.897 Q 319.349 236.897, 321.548 238.663 Q 323.747 240.429, 323.747 243.421 Q 323.747 245.476, 322.629 246.954 Q 321.512 248.432, 319.385 249.261 " fill="#000000"/>
<path class="atom-3" d="M 205.551 177.002 Q 205.551 170.658, 208.507 167.342 Q 211.499 163.989, 217.159 163.989 Q 222.422 163.989, 225.233 167.702 L 222.854 169.649 Q 220.8 166.945, 217.159 166.945 Q 213.302 166.945, 211.247 169.541 Q 209.228 172.1, 209.228 177.002 Q 209.228 182.049, 211.319 184.644 Q 213.446 187.24, 217.555 187.24 Q 220.367 187.24, 223.647 185.546 L 224.657 188.249 Q 223.323 189.114, 221.304 189.619 Q 219.286 190.124, 217.051 190.124 Q 211.499 190.124, 208.507 186.735 Q 205.551 183.347, 205.551 177.002 " fill="#000000"/>
<path class="atom-3" d="M 227.937 185.582 L 231.542 185.582 L 231.542 189.186 L 227.937 189.186 L 227.937 185.582 M 227.937 173.181 L 231.542 173.181 L 231.542 176.786 L 227.937 176.786 L 227.937 173.181 " fill="#000000"/>
<path class="atom-3" d="M 249.205 181.04 L 252.269 181.04 L 252.269 183.924 L 249.205 183.924 L 249.205 189.799 L 245.816 189.799 L 245.816 183.924 L 232.623 183.924 L 232.623 181.653 L 243.798 164.278 L 249.205 164.278 L 249.205 181.04 M 236.805 181.04 L 245.816 181.04 L 245.816 166.585 L 236.805 181.04 " fill="#000000"/>
<path class="atom-4" d="M 206.351 322.817 Q 206.351 316.473, 209.306 313.157 Q 212.298 309.804, 217.958 309.804 Q 223.221 309.804, 226.032 313.517 L 223.653 315.464 Q 221.599 312.76, 217.958 312.76 Q 214.101 312.76, 212.046 315.356 Q 210.027 317.915, 210.027 322.817 Q 210.027 327.864, 212.118 330.459 Q 214.245 333.055, 218.354 333.055 Q 221.166 333.055, 224.446 331.361 L 225.456 334.064 Q 224.122 334.929, 222.103 335.434 Q 220.085 335.939, 217.85 335.939 Q 212.298 335.939, 209.306 332.55 Q 206.351 329.162, 206.351 322.817 " fill="#000000"/>
<path class="atom-4" d="M 228.736 331.397 L 232.341 331.397 L 232.341 335.001 L 228.736 335.001 L 228.736 331.397 M 228.736 318.996 L 232.341 318.996 L 232.341 322.601 L 228.736 322.601 L 228.736 318.996 " fill="#000000"/>
<path class="atom-4" d="M 243.263 319.645 Q 245.498 319.645, 247.336 320.618 Q 249.175 321.556, 250.22 323.358 Q 251.266 325.124, 251.266 327.54 Q 251.266 330.171, 249.968 332.082 Q 248.706 333.956, 246.616 334.929 Q 244.525 335.903, 242.146 335.903 Q 239.803 335.903, 237.64 335.037 Q 235.477 334.172, 233.999 332.514 L 236.162 330.279 Q 237.351 331.577, 238.973 332.298 Q 240.596 332.983, 242.254 332.983 Q 244.525 332.983, 246.075 331.577 Q 247.661 330.171, 247.661 327.612 Q 247.661 324.908, 246.075 323.646 Q 244.525 322.349, 242.037 322.349 Q 239.803 322.349, 237.315 323.322 L 235.333 322.385 L 236.558 310.093 L 249.68 310.093 L 249.319 312.976 L 239.514 312.976 L 238.757 320.546 Q 241.028 319.645, 243.263 319.645 " fill="#000000"/>
<path class="atom-5" d="M 113.496 204.851 Q 113.496 198.506, 116.452 195.19 Q 119.444 191.837, 125.104 191.837 Q 130.366 191.837, 133.178 195.55 L 130.799 197.497 Q 128.744 194.793, 125.104 194.793 Q 121.246 194.793, 119.192 197.389 Q 117.173 199.948, 117.173 204.851 Q 117.173 209.897, 119.264 212.493 Q 121.391 215.088, 125.5 215.088 Q 128.312 215.088, 131.592 213.394 L 132.601 216.097 Q 131.268 216.963, 129.249 217.467 Q 127.23 217.972, 124.995 217.972 Q 119.444 217.972, 116.452 214.583 Q 113.496 211.195, 113.496 204.851 " fill="#000000"/>
<path class="atom-5" d="M 135.882 213.43 L 139.486 213.43 L 139.486 217.035 L 135.882 217.035 L 135.882 213.43 M 135.882 201.03 L 139.486 201.03 L 139.486 204.634 L 135.882 204.634 L 135.882 201.03 " fill="#000000"/>
<path class="atom-5" d="M 151.923 201.714 Q 154.158 201.714, 155.924 202.688 Q 157.69 203.661, 158.664 205.427 Q 159.637 207.194, 159.637 209.429 Q 159.637 211.916, 158.52 213.862 Q 157.438 215.773, 155.492 216.854 Q 153.545 217.936, 151.058 217.936 Q 146.516 217.936, 144.209 214.872 Q 141.938 211.772, 141.938 205.644 Q 141.938 198.867, 144.749 195.37 Q 147.597 191.837, 153.04 191.837 Q 154.626 191.837, 155.96 192.198 Q 157.33 192.558, 158.628 193.315 L 157.222 195.731 Q 155.347 194.721, 153.076 194.721 Q 149.472 194.721, 147.633 197.064 Q 145.795 199.371, 145.578 204.166 Q 146.876 202.976, 148.498 202.363 Q 150.156 201.714, 151.923 201.714 M 151.094 214.98 Q 152.464 214.98, 153.581 214.259 Q 154.735 213.538, 155.383 212.276 Q 156.032 211.015, 156.032 209.465 Q 156.032 207.194, 154.771 205.896 Q 153.509 204.598, 151.274 204.598 Q 149.724 204.598, 148.174 205.247 Q 146.66 205.86, 145.578 206.941 Q 145.723 211.159, 147.056 213.069 Q 148.39 214.98, 151.094 214.98 " fill="#000000"/>
<path class="atom-6" d="M 349.911 249.91 Q 349.911 243.566, 352.867 240.249 Q 355.859 236.897, 361.518 236.897 Q 366.781 236.897, 369.593 240.61 L 367.214 242.556 Q 365.159 239.853, 361.518 239.853 Q 357.661 239.853, 355.607 242.448 Q 353.588 245.007, 353.588 249.91 Q 353.588 254.957, 355.679 257.552 Q 357.806 260.147, 361.915 260.147 Q 364.727 260.147, 368.007 258.453 L 369.016 261.157 Q 367.683 262.022, 365.664 262.526 Q 363.645 263.031, 361.41 263.031 Q 355.859 263.031, 352.867 259.643 Q 349.911 256.254, 349.911 249.91 " fill="#000000"/>
<path class="atom-6" d="M 372.297 258.489 L 375.901 258.489 L 375.901 262.094 L 372.297 262.094 L 372.297 258.489 M 372.297 246.089 L 375.901 246.089 L 375.901 249.694 L 372.297 249.694 L 372.297 246.089 " fill="#000000"/>
<path class="atom-6" d="M 389.924 240.069 L 376.55 240.069 L 376.55 237.185 L 393.492 237.185 L 393.492 239.745 L 383.183 262.707 L 379.722 262.707 L 389.924 240.069 " fill="#000000"/>
<path class="atom-7" d="M 252.628 408.489 Q 252.628 402.361, 255.656 398.937 Q 258.684 395.512, 264.343 395.512 Q 270.003 395.512, 273.031 398.937 Q 276.059 402.361, 276.059 408.489 Q 276.059 414.689, 272.995 418.222 Q 269.931 421.719, 264.343 421.719 Q 258.72 421.719, 255.656 418.222 Q 252.628 414.725, 252.628 408.489 M 264.343 418.835 Q 268.236 418.835, 270.327 416.239 Q 272.454 413.608, 272.454 408.489 Q 272.454 403.479, 270.327 400.955 Q 268.236 398.396, 264.343 398.396 Q 260.45 398.396, 258.323 400.919 Q 256.233 403.443, 256.233 408.489 Q 256.233 413.644, 258.323 416.239 Q 260.45 418.835, 264.343 418.835 " fill="#FF0000"/>
<path class="atom-7" d="M 278.762 417.105 L 282.367 417.105 L 282.367 420.709 L 278.762 420.709 L 278.762 417.105 M 278.762 404.704 L 282.367 404.704 L 282.367 408.309 L 278.762 408.309 L 278.762 404.704 " fill="#FF0000"/>
<path class="atom-7" d="M 297.615 407.804 Q 299.958 408.814, 301.292 410.328 Q 302.626 411.806, 302.626 414.329 Q 302.626 416.492, 301.508 418.186 Q 300.391 419.844, 298.372 420.781 Q 296.39 421.683, 293.758 421.683 Q 289.504 421.683, 287.053 419.736 Q 284.602 417.753, 284.602 414.329 Q 284.602 412.238, 285.683 410.688 Q 286.765 409.102, 289 407.912 Q 287.342 406.975, 286.44 405.605 Q 285.539 404.2, 285.539 402.037 Q 285.539 399.045, 287.702 397.278 Q 289.901 395.512, 293.614 395.512 Q 297.327 395.512, 299.49 397.278 Q 301.689 399.045, 301.689 402.037 Q 301.689 403.911, 300.643 405.317 Q 299.634 406.687, 297.615 407.804 M 293.614 398.216 Q 291.487 398.216, 290.298 399.225 Q 289.144 400.234, 289.144 402.037 Q 289.144 403.37, 289.937 404.272 Q 290.73 405.137, 291.848 405.641 Q 293.001 406.146, 295.2 406.903 Q 296.75 405.822, 297.399 404.668 Q 298.084 403.515, 298.084 402.037 Q 298.084 400.234, 296.894 399.225 Q 295.741 398.216, 293.614 398.216 M 293.758 418.979 Q 296.137 418.979, 297.579 417.717 Q 299.021 416.42, 299.021 414.293 Q 299.021 412.923, 298.264 412.058 Q 297.507 411.193, 296.354 410.688 Q 295.236 410.183, 293.217 409.535 L 291.595 408.994 Q 289.793 410.075, 289 411.373 Q 288.207 412.635, 288.207 414.293 Q 288.207 416.42, 289.721 417.717 Q 291.235 418.979, 293.758 418.979 " fill="#FF0000"/>
<path class="atom-8" d="M 254.358 78.5698 L 257.819 78.5698 L 257.819 89.4201 L 270.868 89.4201 L 270.868 78.5698 L 274.329 78.5698 L 274.329 104.091 L 270.868 104.091 L 270.868 92.3039 L 257.819 92.3039 L 257.819 104.091 L 254.358 104.091 L 254.358 78.5698 " fill="#000000"/>
<path class="atom-8" d="M 277.032 99.8738 L 280.637 99.8738 L 280.637 103.479 L 277.032 103.479 L 277.032 99.8738 M 277.032 87.4735 L 280.637 87.4735 L 280.637 91.0782 L 277.032 91.0782 L 277.032 87.4735 " fill="#000000"/>
<path class="atom-8" d="M 291.199 78.2814 Q 295.741 78.2814, 298.012 81.3815 Q 300.319 84.4455, 300.319 90.5736 Q 300.319 97.3505, 297.471 100.883 Q 294.659 104.38, 289.216 104.38 Q 287.63 104.38, 286.26 104.019 Q 284.926 103.659, 283.629 102.902 L 285.035 100.487 Q 286.909 101.496, 289.18 101.496 Q 292.785 101.496, 294.623 99.1889 Q 296.462 96.8458, 296.678 92.0515 Q 295.38 93.2411, 293.722 93.8899 Q 292.1 94.5028, 290.334 94.5028 Q 288.099 94.5028, 286.332 93.5295 Q 284.566 92.5562, 283.593 90.7899 Q 282.619 89.0235, 282.619 86.7886 Q 282.619 84.3013, 283.701 82.3908 Q 284.818 80.4443, 286.765 79.3628 Q 288.711 78.2814, 291.199 78.2814 M 286.224 86.7526 Q 286.224 89.0235, 287.486 90.3213 Q 288.747 91.619, 290.982 91.619 Q 292.532 91.619, 294.046 91.0062 Q 295.597 90.3573, 296.678 89.2759 Q 296.534 85.0583, 295.2 83.1478 Q 293.866 81.2373, 291.163 81.2373 Q 289.793 81.2373, 288.639 81.9582 Q 287.522 82.6792, 286.873 83.9409 Q 286.224 85.2025, 286.224 86.7526 " fill="#000000"/>
<path class="atom-9" d="M 22.7273 139.155 L 26.1878 139.155 L 26.1878 150.006 L 39.237 150.006 L 39.237 139.155 L 42.6976 139.155 L 42.6976 164.677 L 39.237 164.677 L 39.237 152.89 L 26.1878 152.89 L 26.1878 164.677 L 22.7273 164.677 L 22.7273 139.155 " fill="#000000"/>
<path class="atom-9" d="M 45.4011 160.459 L 49.0059 160.459 L 49.0059 164.064 L 45.4011 164.064 L 45.4011 160.459 M 45.4011 148.059 L 49.0059 148.059 L 49.0059 151.664 L 45.4011 151.664 L 45.4011 148.059 " fill="#000000"/>
<path class="atom-9" d="M 52.3583 161.793 L 57.9456 161.793 L 57.9456 142.724 L 51.7815 144.635 L 50.9524 142.508 L 58.7747 139.011 L 61.3341 139.444 L 61.3341 161.793 L 66.3447 161.793 L 66.3447 164.677 L 52.3583 164.677 L 52.3583 161.793 " fill="#000000"/>
<path class="atom-9" d="M 77.8799 164.965 Q 73.1937 164.965, 70.8506 161.505 Q 68.5436 158.044, 68.5436 151.88 Q 68.5436 145.716, 70.8506 142.292 Q 73.1576 138.867, 77.8799 138.867 Q 82.6021 138.867, 84.9091 142.292 Q 87.2161 145.716, 87.2161 151.88 Q 87.2161 158.044, 84.8731 161.505 Q 82.566 164.965, 77.8799 164.965 M 77.8799 162.082 Q 80.6555 162.082, 82.1334 159.522 Q 83.6114 156.927, 83.6114 151.88 Q 83.6114 146.87, 82.1334 144.31 Q 80.6555 141.751, 77.8799 141.751 Q 75.1402 141.751, 73.6263 144.31 Q 72.1483 146.87, 72.1483 151.88 Q 72.1483 156.927, 73.6263 159.522 Q 75.1402 162.082, 77.8799 162.082 " fill="#000000"/>
<path class="atom-10" d="M 414.658 315.158 L 418.119 315.158 L 418.119 326.008 L 431.168 326.008 L 431.168 315.158 L 434.629 315.158 L 434.629 340.68 L 431.168 340.68 L 431.168 328.892 L 418.119 328.892 L 418.119 340.68 L 414.658 340.68 L 414.658 315.158 " fill="#000000"/>
<path class="atom-10" d="M 437.332 336.462 L 440.937 336.462 L 440.937 340.067 L 437.332 340.067 L 437.332 336.462 M 437.332 324.062 L 440.937 324.062 L 440.937 327.666 L 437.332 327.666 L 437.332 324.062 " fill="#000000"/>
<path class="atom-10" d="M 444.289 337.796 L 449.877 337.796 L 449.877 318.727 L 443.713 320.637 L 442.883 318.51 L 450.706 315.014 L 453.265 315.446 L 453.265 337.796 L 458.276 337.796 L 458.276 340.68 L 444.289 340.68 L 444.289 337.796 " fill="#000000"/>
<path class="atom-10" d="M 461.628 337.796 L 467.215 337.796 L 467.215 318.727 L 461.051 320.637 L 460.222 318.51 L 468.045 315.014 L 470.604 315.446 L 470.604 337.796 L 475.615 337.796 L 475.615 340.68 L 461.628 340.68 L 461.628 337.796 " fill="#000000"/>
<path class="atom-11" d="M 414.658 159.14 L 418.119 159.14 L 418.119 169.99 L 431.168 169.99 L 431.168 159.14 L 434.629 159.14 L 434.629 184.662 L 431.168 184.662 L 431.168 172.874 L 418.119 172.874 L 418.119 184.662 L 414.658 184.662 L 414.658 159.14 " fill="#000000"/>
<path class="atom-11" d="M 437.332 180.444 L 440.937 180.444 L 440.937 184.049 L 437.332 184.049 L 437.332 180.444 M 437.332 168.044 L 440.937 168.044 L 440.937 171.649 L 437.332 171.649 L 437.332 168.044 " fill="#000000"/>
<path class="atom-11" d="M 444.289 181.778 L 449.877 181.778 L 449.877 162.709 L 443.713 164.619 L 442.883 162.493 L 450.706 158.996 L 453.265 159.429 L 453.265 181.778 L 458.276 181.778 L 458.276 184.662 L 444.289 184.662 L 444.289 181.778 " fill="#000000"/>
<path class="atom-11" d="M 460.15 163.971 Q 461.087 161.555, 463.322 160.222 Q 465.557 158.852, 468.657 158.852 Q 472.514 158.852, 474.677 160.943 Q 476.84 163.033, 476.84 166.746 Q 476.84 170.531, 474.028 174.064 Q 471.253 177.596, 465.485 181.778 L 477.273 181.778 L 477.273 184.662 L 460.078 184.662 L 460.078 182.247 Q 464.836 178.858, 467.648 176.335 Q 470.496 173.811, 471.866 171.54 Q 473.235 169.269, 473.235 166.926 Q 473.235 164.475, 472.01 163.105 Q 470.784 161.736, 468.657 161.736 Q 466.603 161.736, 465.233 162.565 Q 463.863 163.394, 462.89 165.232 L 460.15 163.971 " fill="#000000"/>
<text x="193.64126227116896" y="308.7851239085425" font-size="12" font-family="Verdana" font-weight="bold" letter-spacing="0" text-anchor="start" fill="black" transform=" rotate(-72.000000 193.641262 308.785124)">0.0213</text><text x="25" y="490" font-size="12" font-family="Verdana" font-weight="bold" letter-spacing="0" text-anchor="start" fill="black">[H:1]-[#7:2]1-[#6:5](-[#6:3](-[#6:4](=[#6:6]-1-[H:10])-[H:9])=[#6:7](-[H:11])-[H:12])=[#8:8]</text></svg>
