<?xml version='1.0' encoding='ASCII' standalone='yes'?>
<svg xmlns="http://www.w3.org/2000/svg" xmlns:rdkit="http://www.rdkit.org/xml" xmlns:xlink="http://www.w3.org/1999/xlink" version="1.1" baseProfile="full" xml:space="preserve" width="500px" height="500px" viewBox="0 0 500 500">
<!-- END OF HEADER -->
<rect style="opacity:1.0;fill:#FFFFFF;stroke:none" width="500" height="500" x="0" y="0"> </rect>
<path d="M 299.813,166.976 L 204.112,166.976" style="fill:none;fill-rule:evenodd;stroke:#FF7F7F;stroke-width:20.4px;stroke-linecap:butt;stroke-linejoin:miter;stroke-opacity:1"/>
<path class="bond-1 atom-1 atom-0" d="M 365.798,249.855 L 430.821,249.855" style="fill:none;fill-rule:evenodd;stroke:#000000;stroke-width:2.0px;stroke-linecap:butt;stroke-linejoin:miter;stroke-opacity:1"/>
<path class="bond-0 atom-1 atom-5" d="M 338.171,266.296 L 308.832,317.111" style="fill:none;fill-rule:evenodd;stroke:#000000;stroke-width:2.0px;stroke-linecap:butt;stroke-linejoin:miter;stroke-opacity:1"/>
<path class="bond-0 atom-1 atom-5" d="M 317.194,264.348 L 296.657,299.919" style="fill:none;fill-rule:evenodd;stroke:#000000;stroke-width:2.0px;stroke-linecap:butt;stroke-linejoin:miter;stroke-opacity:1"/>
<path class="bond-3 atom-2 atom-1" d="M 309.327,183.455 L 343.229,242.175" style="fill:none;fill-rule:evenodd;stroke:#000000;stroke-width:2.0px;stroke-linecap:butt;stroke-linejoin:miter;stroke-opacity:1"/>
<path class="bond-2 atom-2 atom-3" d="M 265.507,166.976 L 222.398,166.976" style="fill:none;fill-rule:evenodd;stroke:#000000;stroke-width:2.0px;stroke-linecap:butt;stroke-linejoin:miter;stroke-opacity:1"/>
<path class="bond-2 atom-2 atom-3" d="M 259.041,186.116 L 228.864,186.116" style="fill:none;fill-rule:evenodd;stroke:#000000;stroke-width:2.0px;stroke-linecap:butt;stroke-linejoin:miter;stroke-opacity:1"/>
<path class="bond-4 atom-2 atom-9" d="M 309.106,150.879 L 338.638,99.7289" style="fill:none;fill-rule:evenodd;stroke:#000000;stroke-width:2.0px;stroke-linecap:butt;stroke-linejoin:miter;stroke-opacity:1"/>
<path class="bond-5 atom-3 atom-4" d="M 195.195,182.422 L 165.122,234.51" style="fill:none;fill-rule:evenodd;stroke:#000000;stroke-width:2.0px;stroke-linecap:butt;stroke-linejoin:miter;stroke-opacity:1"/>
<path class="bond-6 atom-3 atom-10" d="M 197.608,155.71 L 165.324,99.7918" style="fill:none;fill-rule:evenodd;stroke:#000000;stroke-width:2.0px;stroke-linecap:butt;stroke-linejoin:miter;stroke-opacity:1"/>
<path class="bond-7 atom-4 atom-6" d="M 165.733,266.258 L 195.092,317.11" style="fill:none;fill-rule:evenodd;stroke:#000000;stroke-width:2.0px;stroke-linecap:butt;stroke-linejoin:miter;stroke-opacity:1"/>
<path class="bond-7 atom-4 atom-6" d="M 186.712,264.316 L 207.264,299.912" style="fill:none;fill-rule:evenodd;stroke:#000000;stroke-width:2.0px;stroke-linecap:butt;stroke-linejoin:miter;stroke-opacity:1"/>
<path class="bond-8 atom-4 atom-7" d="M 121.858,249.855 L 71.6644,249.855" style="fill:none;fill-rule:evenodd;stroke:#000000;stroke-width:2.0px;stroke-linecap:butt;stroke-linejoin:miter;stroke-opacity:1"/>
<path class="bond-9 atom-5 atom-6" d="M 264.936,332.734 L 220.403,332.734" style="fill:none;fill-rule:evenodd;stroke:#000000;stroke-width:2.0px;stroke-linecap:butt;stroke-linejoin:miter;stroke-opacity:1"/>
<path class="bond-10 atom-5 atom-11" d="M 309.283,349.137 L 338.82,400.295" style="fill:none;fill-rule:evenodd;stroke:#000000;stroke-width:2.0px;stroke-linecap:butt;stroke-linejoin:miter;stroke-opacity:1"/>
<path class="bond-11 atom-6 atom-8" d="M 194.62,349.175 L 165.282,399.99" style="fill:none;fill-rule:evenodd;stroke:#000000;stroke-width:2.0px;stroke-linecap:butt;stroke-linejoin:miter;stroke-opacity:1"/>
<path class="atom-0" d="M 432.76 236.38 L 436.435 236.38 L 436.435 247.902 L 450.292 247.902 L 450.292 236.38 L 453.967 236.38 L 453.967 263.482 L 450.292 263.482 L 450.292 250.965 L 436.435 250.965 L 436.435 263.482 L 432.76 263.482 L 432.76 236.38 " fill="#000000"/>
<path class="atom-0" d="M 456.838 259.004 L 460.666 259.004 L 460.666 262.832 L 456.838 262.832 L 456.838 259.004 M 456.838 245.835 L 460.666 245.835 L 460.666 249.663 L 456.838 249.663 L 456.838 245.835 " fill="#000000"/>
<path class="atom-0" d="M 464.226 260.42 L 470.159 260.42 L 470.159 240.17 L 463.613 242.199 L 462.733 239.94 L 471.04 236.227 L 473.758 236.686 L 473.758 260.42 L 479.079 260.42 L 479.079 263.482 L 464.226 263.482 L 464.226 260.42 " fill="#000000"/>
<path class="atom-1" d="M 315.632 249.969 Q 315.632 243.232, 318.771 239.71 Q 321.948 236.15, 327.958 236.15 Q 333.547 236.15, 336.533 240.093 L 334.006 242.16 Q 331.825 239.289, 327.958 239.289 Q 323.862 239.289, 321.68 242.045 Q 319.537 244.763, 319.537 249.969 Q 319.537 255.329, 321.757 258.085 Q 324.015 260.841, 328.379 260.841 Q 331.365 260.841, 334.849 259.042 L 335.92 261.913 Q 334.504 262.832, 332.36 263.368 Q 330.217 263.903, 327.843 263.903 Q 321.948 263.903, 318.771 260.305 Q 315.632 256.707, 315.632 249.969 " fill="#000000"/>
<path class="atom-1" d="M 339.404 259.08 L 343.232 259.08 L 343.232 262.908 L 339.404 262.908 L 339.404 259.08 M 339.404 245.912 L 343.232 245.912 L 343.232 249.74 L 339.404 249.74 L 339.404 245.912 " fill="#000000"/>
<path class="atom-1" d="M 345.223 241.586 Q 346.218 239.021, 348.591 237.605 Q 350.965 236.15, 354.257 236.15 Q 358.353 236.15, 360.649 238.371 Q 362.946 240.591, 362.946 244.534 Q 362.946 248.553, 359.96 252.305 Q 357.013 256.056, 350.888 260.496 L 363.406 260.496 L 363.406 263.559 L 345.146 263.559 L 345.146 260.994 Q 350.199 257.396, 353.185 254.716 Q 356.209 252.037, 357.664 249.625 Q 359.118 247.213, 359.118 244.725 Q 359.118 242.122, 357.817 240.667 Q 356.515 239.213, 354.257 239.213 Q 352.075 239.213, 350.62 240.093 Q 349.165 240.974, 348.132 242.926 L 345.223 241.586 " fill="#000000"/>
<path class="atom-2" d="M 267.9 167.091 Q 267.9 160.353, 271.039 156.831 Q 274.216 153.271, 280.226 153.271 Q 285.815 153.271, 288.801 157.214 L 286.274 159.281 Q 284.092 156.41, 280.226 156.41 Q 276.13 156.41, 273.948 159.167 Q 271.804 161.884, 271.804 167.091 Q 271.804 172.45, 274.025 175.206 Q 276.283 177.962, 280.647 177.962 Q 283.633 177.962, 287.117 176.163 L 288.188 179.034 Q 286.772 179.953, 284.628 180.489 Q 282.485 181.025, 280.111 181.025 Q 274.216 181.025, 271.039 177.426 Q 267.9 173.828, 267.9 167.091 " fill="#000000"/>
<path class="atom-2" d="M 291.672 176.201 L 295.5 176.201 L 295.5 180.029 L 291.672 180.029 L 291.672 176.201 M 291.672 163.033 L 295.5 163.033 L 295.5 166.861 L 291.672 166.861 L 291.672 163.033 " fill="#000000"/>
<path class="atom-2" d="M 310.123 166.402 Q 312.764 167.167, 314.027 168.89 Q 315.329 170.574, 315.329 173.254 Q 315.329 175.55, 314.181 177.35 Q 313.032 179.111, 310.927 180.106 Q 308.821 181.063, 306.065 181.063 Q 303.156 181.063, 300.974 180.068 Q 298.83 179.034, 297.108 176.967 L 299.29 174.747 Q 300.974 176.584, 302.39 177.311 Q 303.807 178, 306.065 178 Q 308.515 178, 310.008 176.699 Q 311.501 175.359, 311.501 173.215 Q 311.501 170.459, 309.931 169.234 Q 308.4 167.971, 305.07 167.971 L 303.118 167.971 L 303.118 165.215 L 304.84 165.215 Q 307.788 165.177, 309.357 163.913 Q 310.927 162.612, 310.927 160.2 Q 310.927 158.439, 309.625 157.406 Q 308.324 156.334, 306.103 156.334 Q 303.845 156.334, 302.429 157.138 Q 301.05 157.942, 299.979 159.97 L 297.337 158.554 Q 298.294 156.296, 300.591 154.803 Q 302.888 153.271, 306.103 153.271 Q 310.085 153.271, 312.42 155.147 Q 314.755 157.023, 314.755 160.2 Q 314.755 162.382, 313.568 163.952 Q 312.381 165.521, 310.123 166.402 " fill="#000000"/>
<path class="atom-3" d="M 171.252 167.091 Q 171.252 160.353, 174.391 156.831 Q 177.568 153.271, 183.578 153.271 Q 189.167 153.271, 192.153 157.214 L 189.627 159.281 Q 187.445 156.41, 183.578 156.41 Q 179.482 156.41, 177.3 159.167 Q 175.157 161.884, 175.157 167.091 Q 175.157 172.45, 177.377 175.206 Q 179.636 177.962, 183.999 177.962 Q 186.985 177.962, 190.469 176.163 L 191.541 179.034 Q 190.124 179.953, 187.981 180.489 Q 185.837 181.025, 183.464 181.025 Q 177.568 181.025, 174.391 177.426 Q 171.252 173.828, 171.252 167.091 " fill="#000000"/>
<path class="atom-3" d="M 195.024 176.201 L 198.852 176.201 L 198.852 180.029 L 195.024 180.029 L 195.024 176.201 M 195.024 163.033 L 198.852 163.033 L 198.852 166.861 L 195.024 166.861 L 195.024 163.033 " fill="#000000"/>
<path class="atom-3" d="M 217.609 171.378 L 220.863 171.378 L 220.863 174.44 L 217.609 174.44 L 217.609 180.68 L 214.011 180.68 L 214.011 174.44 L 200.001 174.44 L 200.001 172.029 L 211.867 153.578 L 217.609 153.578 L 217.609 171.378 M 204.441 171.378 L 214.011 171.378 L 214.011 156.028 L 204.441 171.378 " fill="#000000"/>
<path class="atom-4" d="M 124.251 249.969 Q 124.251 243.232, 127.39 239.71 Q 130.567 236.15, 136.577 236.15 Q 142.166 236.15, 145.151 240.093 L 142.625 242.16 Q 140.443 239.289, 136.577 239.289 Q 132.481 239.289, 130.299 242.045 Q 128.155 244.763, 128.155 249.969 Q 128.155 255.329, 130.375 258.085 Q 132.634 260.841, 136.998 260.841 Q 139.984 260.841, 143.467 259.042 L 144.539 261.913 Q 143.123 262.832, 140.979 263.368 Q 138.835 263.903, 136.462 263.903 Q 130.567 263.903, 127.39 260.305 Q 124.251 256.707, 124.251 249.969 " fill="#000000"/>
<path class="atom-4" d="M 148.023 259.08 L 151.851 259.08 L 151.851 262.908 L 148.023 262.908 L 148.023 259.08 M 148.023 245.912 L 151.851 245.912 L 151.851 249.74 L 148.023 249.74 L 148.023 245.912 " fill="#000000"/>
<path class="atom-4" d="M 163.449 246.601 Q 165.823 246.601, 167.775 247.634 Q 169.727 248.63, 170.837 250.544 Q 171.948 252.419, 171.948 254.984 Q 171.948 257.779, 170.569 259.807 Q 169.23 261.798, 167.009 262.832 Q 164.789 263.865, 162.263 263.865 Q 159.775 263.865, 157.478 262.946 Q 155.181 262.028, 153.611 260.267 L 155.908 257.893 Q 157.171 259.272, 158.894 260.037 Q 160.617 260.764, 162.378 260.764 Q 164.789 260.764, 166.435 259.272 Q 168.12 257.779, 168.12 255.061 Q 168.12 252.19, 166.435 250.85 Q 164.789 249.472, 162.148 249.472 Q 159.775 249.472, 157.133 250.505 L 155.028 249.51 L 156.329 236.457 L 170.263 236.457 L 169.88 239.519 L 159.468 239.519 L 158.664 247.558 Q 161.076 246.601, 163.449 246.601 " fill="#000000"/>
<path class="atom-5" d="M 267.329 332.848 Q 267.329 326.111, 270.468 322.589 Q 273.645 319.029, 279.655 319.029 Q 285.244 319.029, 288.23 322.972 L 285.703 325.039 Q 283.521 322.168, 279.655 322.168 Q 275.559 322.168, 273.377 324.924 Q 271.233 327.642, 271.233 332.848 Q 271.233 338.208, 273.454 340.964 Q 275.712 343.72, 280.076 343.72 Q 283.062 343.72, 286.546 341.921 L 287.617 344.792 Q 286.201 345.71, 284.057 346.246 Q 281.914 346.782, 279.54 346.782 Q 273.645 346.782, 270.468 343.184 Q 267.329 339.586, 267.329 332.848 " fill="#000000"/>
<path class="atom-5" d="M 291.101 341.959 L 294.929 341.959 L 294.929 345.787 L 291.101 345.787 L 291.101 341.959 M 291.101 328.791 L 294.929 328.791 L 294.929 332.619 L 291.101 332.619 L 291.101 328.791 " fill="#000000"/>
<path class="atom-5" d="M 308.135 329.518 Q 310.509 329.518, 312.385 330.552 Q 314.26 331.585, 315.294 333.461 Q 316.327 335.337, 316.327 337.71 Q 316.327 340.351, 315.141 342.418 Q 313.992 344.447, 311.925 345.596 Q 309.858 346.744, 307.217 346.744 Q 302.393 346.744, 299.944 343.49 Q 297.532 340.198, 297.532 333.691 Q 297.532 326.494, 300.518 322.781 Q 303.542 319.029, 309.322 319.029 Q 311.007 319.029, 312.423 319.412 Q 313.878 319.795, 315.256 320.599 L 313.763 323.163 Q 311.772 322.092, 309.36 322.092 Q 305.532 322.092, 303.58 324.58 Q 301.628 327.03, 301.398 332.121 Q 302.776 330.858, 304.499 330.207 Q 306.26 329.518, 308.135 329.518 M 307.255 343.605 Q 308.71 343.605, 309.896 342.839 Q 311.121 342.074, 311.81 340.734 Q 312.499 339.394, 312.499 337.748 Q 312.499 335.337, 311.16 333.958 Q 309.82 332.58, 307.446 332.58 Q 305.8 332.58, 304.154 333.269 Q 302.547 333.92, 301.398 335.069 Q 301.551 339.547, 302.968 341.576 Q 304.384 343.605, 307.255 343.605 " fill="#000000"/>
<path class="atom-6" d="M 172.602 332.848 Q 172.602 326.111, 175.741 322.589 Q 178.918 319.029, 184.928 319.029 Q 190.517 319.029, 193.502 322.972 L 190.976 325.039 Q 188.794 322.168, 184.928 322.168 Q 180.832 322.168, 178.65 324.924 Q 176.506 327.642, 176.506 332.848 Q 176.506 338.208, 178.726 340.964 Q 180.985 343.72, 185.349 343.72 Q 188.335 343.72, 191.818 341.921 L 192.89 344.792 Q 191.474 345.71, 189.33 346.246 Q 187.186 346.782, 184.813 346.782 Q 178.918 346.782, 175.741 343.184 Q 172.602 339.586, 172.602 332.848 " fill="#000000"/>
<path class="atom-6" d="M 196.373 341.959 L 200.202 341.959 L 200.202 345.787 L 196.373 345.787 L 196.373 341.959 M 196.373 328.791 L 200.202 328.791 L 200.202 332.619 L 196.373 332.619 L 196.373 328.791 " fill="#000000"/>
<path class="atom-6" d="M 215.092 322.398 L 200.891 322.398 L 200.891 319.335 L 218.882 319.335 L 218.882 322.053 L 207.934 346.438 L 204.259 346.438 L 215.092 322.398 " fill="#000000"/>
<path class="atom-7" d="M 20.7124 236.457 L 24.3873 236.457 L 24.3873 247.979 L 38.2447 247.979 L 38.2447 236.457 L 41.9196 236.457 L 41.9196 263.559 L 38.2447 263.559 L 38.2447 251.041 L 24.3873 251.041 L 24.3873 263.559 L 20.7124 263.559 L 20.7124 236.457 " fill="#000000"/>
<path class="atom-7" d="M 44.7906 259.08 L 48.6186 259.08 L 48.6186 262.908 L 44.7906 262.908 L 44.7906 259.08 M 44.7906 245.912 L 48.6186 245.912 L 48.6186 249.74 L 44.7906 249.74 L 44.7906 245.912 " fill="#000000"/>
<path class="atom-7" d="M 64.8111 249.204 Q 67.2993 250.276, 68.7157 251.883 Q 70.132 253.453, 70.132 256.133 Q 70.132 258.429, 68.9453 260.229 Q 67.7587 261.989, 65.615 262.985 Q 63.5096 263.942, 60.7151 263.942 Q 56.1981 263.942, 53.595 261.875 Q 50.992 259.769, 50.992 256.133 Q 50.992 253.912, 52.1404 252.266 Q 53.2888 250.582, 55.6621 249.319 Q 53.9012 248.323, 52.9442 246.869 Q 51.9872 245.376, 51.9872 243.079 Q 51.9872 239.902, 54.2841 238.026 Q 56.6191 236.15, 60.562 236.15 Q 64.5048 236.15, 66.8017 238.026 Q 69.1367 239.902, 69.1367 243.079 Q 69.1367 245.07, 68.0266 246.563 Q 66.9548 248.017, 64.8111 249.204 M 60.562 239.021 Q 58.3035 239.021, 57.0402 240.093 Q 55.8153 241.165, 55.8153 243.079 Q 55.8153 244.495, 56.6574 245.452 Q 57.4996 246.371, 58.6863 246.907 Q 59.9112 247.443, 62.2463 248.247 Q 63.8924 247.098, 64.5814 245.873 Q 65.3087 244.649, 65.3087 243.079 Q 65.3087 241.165, 64.0455 240.093 Q 62.8205 239.021, 60.562 239.021 M 60.7151 261.071 Q 63.2416 261.071, 64.7728 259.731 Q 66.304 258.353, 66.304 256.094 Q 66.304 254.64, 65.5001 253.721 Q 64.6962 252.802, 63.4713 252.266 Q 62.2846 251.73, 60.1409 251.041 L 58.4183 250.467 Q 56.5043 251.616, 55.6621 252.994 Q 54.82 254.333, 54.82 256.094 Q 54.82 258.353, 56.4277 259.731 Q 58.0355 261.071, 60.7151 261.071 " fill="#000000"/>
<path class="atom-8" d="M 116.853 402.214 L 120.528 402.214 L 120.528 413.737 L 134.385 413.737 L 134.385 402.214 L 138.06 402.214 L 138.06 429.317 L 134.385 429.317 L 134.385 416.799 L 120.528 416.799 L 120.528 429.317 L 116.853 429.317 L 116.853 402.214 " fill="#000000"/>
<path class="atom-8" d="M 140.931 424.838 L 144.759 424.838 L 144.759 428.666 L 140.931 428.666 L 140.931 424.838 M 140.931 411.67 L 144.759 411.67 L 144.759 415.498 L 140.931 415.498 L 140.931 411.67 " fill="#000000"/>
<path class="atom-8" d="M 155.975 401.908 Q 160.798 401.908, 163.21 405.2 Q 165.66 408.454, 165.66 414.962 Q 165.66 422.158, 162.636 425.91 Q 159.65 429.623, 153.87 429.623 Q 152.185 429.623, 150.731 429.24 Q 149.314 428.857, 147.936 428.053 L 149.429 425.489 Q 151.42 426.561, 153.832 426.561 Q 157.66 426.561, 159.612 424.111 Q 161.564 421.622, 161.794 416.531 Q 160.416 417.794, 158.655 418.483 Q 156.932 419.134, 155.056 419.134 Q 152.683 419.134, 150.807 418.101 Q 148.932 417.067, 147.898 415.191 Q 146.865 413.316, 146.865 410.942 Q 146.865 408.301, 148.013 406.272 Q 149.2 404.205, 151.267 403.057 Q 153.334 401.908, 155.975 401.908 M 150.693 410.904 Q 150.693 413.316, 152.032 414.694 Q 153.372 416.072, 155.746 416.072 Q 157.392 416.072, 158.999 415.421 Q 160.645 414.732, 161.794 413.584 Q 161.641 409.105, 160.224 407.076 Q 158.808 405.047, 155.937 405.047 Q 154.482 405.047, 153.257 405.813 Q 152.071 406.578, 151.382 407.918 Q 150.693 409.258, 150.693 410.904 " fill="#000000"/>
<path class="atom-9" d="M 337.059 70.6988 L 340.734 70.6988 L 340.734 82.2211 L 354.592 82.2211 L 354.592 70.6988 L 358.267 70.6988 L 358.267 97.8011 L 354.592 97.8011 L 354.592 85.2835 L 340.734 85.2835 L 340.734 97.8011 L 337.059 97.8011 L 337.059 70.6988 " fill="#000000"/>
<path class="atom-9" d="M 361.138 93.3223 L 364.966 93.3223 L 364.966 97.1503 L 361.138 97.1503 L 361.138 93.3223 M 361.138 80.154 L 364.966 80.154 L 364.966 83.982 L 361.138 83.982 L 361.138 80.154 " fill="#000000"/>
<path class="atom-9" d="M 368.526 94.7387 L 374.459 94.7387 L 374.459 74.4885 L 367.913 76.5174 L 367.033 74.2588 L 375.339 70.5457 L 378.057 71.005 L 378.057 94.7387 L 383.378 94.7387 L 383.378 97.8011 L 368.526 97.8011 L 368.526 94.7387 " fill="#000000"/>
<path class="atom-9" d="M 395.628 98.1074 Q 390.651 98.1074, 388.163 94.4325 Q 385.713 90.7576, 385.713 84.2117 Q 385.713 77.6658, 388.163 74.0292 Q 390.613 70.3925, 395.628 70.3925 Q 400.643 70.3925, 403.093 74.0292 Q 405.542 77.6658, 405.542 84.2117 Q 405.542 90.7576, 403.054 94.4325 Q 400.604 98.1074, 395.628 98.1074 M 395.628 95.0449 Q 398.575 95.0449, 400.145 92.3271 Q 401.714 89.5709, 401.714 84.2117 Q 401.714 78.8907, 400.145 76.1728 Q 398.575 73.455, 395.628 73.455 Q 392.719 73.455, 391.111 76.1728 Q 389.541 78.8907, 389.541 84.2117 Q 389.541 89.5709, 391.111 92.3271 Q 392.719 95.0449, 395.628 95.0449 " fill="#000000"/>
<path class="atom-10" d="M 99.7034 70.6222 L 103.378 70.6222 L 103.378 82.1445 L 117.236 82.1445 L 117.236 70.6222 L 120.911 70.6222 L 120.911 97.7245 L 117.236 97.7245 L 117.236 85.2069 L 103.378 85.2069 L 103.378 97.7245 L 99.7034 97.7245 L 99.7034 70.6222 " fill="#000000"/>
<path class="atom-10" d="M 123.782 93.2458 L 127.61 93.2458 L 127.61 97.0738 L 123.782 97.0738 L 123.782 93.2458 M 123.782 80.0774 L 127.61 80.0774 L 127.61 83.9054 L 123.782 83.9054 L 123.782 80.0774 " fill="#000000"/>
<path class="atom-10" d="M 131.17 94.6621 L 137.103 94.6621 L 137.103 74.412 L 130.557 76.4408 L 129.677 74.1823 L 137.984 70.4691 L 140.701 70.9285 L 140.701 94.6621 L 146.022 94.6621 L 146.022 97.7245 L 131.17 97.7245 L 131.17 94.6621 " fill="#000000"/>
<path class="atom-10" d="M 149.582 94.6621 L 155.516 94.6621 L 155.516 74.412 L 148.97 76.4408 L 148.089 74.1823 L 156.396 70.4691 L 159.114 70.9285 L 159.114 94.6621 L 164.435 94.6621 L 164.435 97.7245 L 149.582 97.7245 L 149.582 94.6621 " fill="#000000"/>
<path class="atom-11" d="M 337.059 402.214 L 340.734 402.214 L 340.734 413.737 L 354.592 413.737 L 354.592 402.214 L 358.267 402.214 L 358.267 429.317 L 354.592 429.317 L 354.592 416.799 L 340.734 416.799 L 340.734 429.317 L 337.059 429.317 L 337.059 402.214 " fill="#000000"/>
<path class="atom-11" d="M 361.138 424.838 L 364.966 424.838 L 364.966 428.666 L 361.138 428.666 L 361.138 424.838 M 361.138 411.67 L 364.966 411.67 L 364.966 415.498 L 361.138 415.498 L 361.138 411.67 " fill="#000000"/>
<path class="atom-11" d="M 368.526 426.254 L 374.459 426.254 L 374.459 406.004 L 367.913 408.033 L 367.033 405.774 L 375.339 402.061 L 378.057 402.521 L 378.057 426.254 L 383.378 426.254 L 383.378 429.317 L 368.526 429.317 L 368.526 426.254 " fill="#000000"/>
<path class="atom-11" d="M 385.369 407.344 Q 386.364 404.779, 388.737 403.363 Q 391.111 401.908, 394.403 401.908 Q 398.499 401.908, 400.796 404.128 Q 403.093 406.349, 403.093 410.291 Q 403.093 414.311, 400.107 418.062 Q 397.159 421.814, 391.034 426.254 L 403.552 426.254 L 403.552 429.317 L 385.292 429.317 L 385.292 426.752 Q 390.345 423.154, 393.331 420.474 Q 396.355 417.794, 397.81 415.383 Q 399.265 412.971, 399.265 410.483 Q 399.265 407.88, 397.963 406.425 Q 396.661 404.971, 394.403 404.971 Q 392.221 404.971, 390.766 405.851 Q 389.312 406.731, 388.278 408.684 L 385.369 407.344 " fill="#000000"/>
<text x="251.9626078605079" y="166.97572335777392" font-size="12" font-family="Verdana" font-weight="bold" letter-spacing="0" text-anchor="start" fill="black" transform=" rotate(-90.000000 251.962608 166.975723)">1.4201</text><text x="25" y="490" font-size="12" font-family="Verdana" font-weight="bold" letter-spacing="0" text-anchor="start" fill="black">[H:1]-[#6:2]1:[#6:3](:[#6:4](:[#6:5](:[#6:7](:[#6:6]:1-[H:12])-[H:9])-[H:8])-[H:11])-[H:10]</text></svg>
