<?xml version='1.0' encoding='ASCII' standalone='yes'?>
<svg xmlns="http://www.w3.org/2000/svg" xmlns:rdkit="http://www.rdkit.org/xml" xmlns:xlink="http://www.w3.org/1999/xlink" version="1.1" baseProfile="full" xml:space="preserve" width="500px" height="500px" viewBox="0 0 500 500">
<!-- END OF HEADER -->
<rect style="opacity:1.0;fill:#FFFFFF;stroke:none" width="500" height="500" x="0" y="0"> </rect>
<path d="M 443.362,249.855 L 251.381,249.855" style="fill:none;fill-rule:evenodd;stroke:#FF7F7F;stroke-width:41.0px;stroke-linecap:butt;stroke-linejoin:miter;stroke-opacity:1"/>
<path class="bond-0 atom-1 atom-0" d="M 272.631,249.855 L 428.014,249.855" style="fill:none;fill-rule:evenodd;stroke:#000000;stroke-width:2.0px;stroke-linecap:butt;stroke-linejoin:miter;stroke-opacity:1"/>
<path class="bond-1 atom-1 atom-2" d="M 213.112,249.855 L 72.7629,249.855" style="fill:none;fill-rule:evenodd;stroke:#000000;stroke-width:2.0px;stroke-linecap:butt;stroke-linejoin:miter;stroke-opacity:1"/>
<path class="bond-2 atom-1 atom-3" d="M 251.381,230.735 L 251.381,76.3551" style="fill:none;fill-rule:evenodd;stroke:#000000;stroke-width:2.0px;stroke-linecap:butt;stroke-linejoin:miter;stroke-opacity:1"/>
<path class="bond-3 atom-1 atom-4" d="M 251.381,268.974 L 251.381,423.354" style="fill:none;fill-rule:evenodd;stroke:#000000;stroke-width:2.0px;stroke-linecap:butt;stroke-linejoin:miter;stroke-opacity:1"/>
<path class="atom-0" d="M 432.282 235.775 L 436.122 235.775 L 436.122 247.815 L 450.602 247.815 L 450.602 235.775 L 454.442 235.775 L 454.442 264.095 L 450.602 264.095 L 450.602 251.015 L 436.122 251.015 L 436.122 264.095 L 432.282 264.095 L 432.282 235.775 " fill="#000000"/>
<path class="atom-0" d="M 457.442 259.415 L 461.442 259.415 L 461.442 263.415 L 457.442 263.415 L 457.442 259.415 M 457.442 245.655 L 461.442 245.655 L 461.442 249.655 L 457.442 249.655 L 457.442 245.655 " fill="#000000"/>
<path class="atom-0" d="M 465.162 260.895 L 471.362 260.895 L 471.362 239.735 L 464.522 241.855 L 463.602 239.495 L 472.282 235.615 L 475.122 236.095 L 475.122 260.895 L 480.682 260.895 L 480.682 264.095 L 465.162 264.095 L 465.162 260.895 " fill="#000000"/>
<path class="atom-1" d="M 217.911 249.975 Q 217.911 242.935, 221.191 239.255 Q 224.511 235.535, 230.791 235.535 Q 236.631 235.535, 239.751 239.655 L 237.111 241.815 Q 234.831 238.815, 230.791 238.815 Q 226.511 238.815, 224.231 241.695 Q 221.991 244.535, 221.991 249.975 Q 221.991 255.575, 224.311 258.455 Q 226.671 261.335, 231.231 261.335 Q 234.351 261.335, 237.991 259.455 L 239.111 262.455 Q 237.631 263.415, 235.391 263.975 Q 233.151 264.535, 230.671 264.535 Q 224.511 264.535, 221.191 260.775 Q 217.911 257.015, 217.911 249.975 " fill="#000000"/>
<path class="atom-1" d="M 242.751 259.495 L 246.751 259.495 L 246.751 263.495 L 242.751 263.495 L 242.751 259.495 M 242.751 245.735 L 246.751 245.735 L 246.751 249.735 L 242.751 249.735 L 242.751 245.735 " fill="#000000"/>
<path class="atom-1" d="M 248.831 241.215 Q 249.871 238.535, 252.351 237.055 Q 254.831 235.535, 258.271 235.535 Q 262.551 235.535, 264.951 237.855 Q 267.351 240.175, 267.351 244.295 Q 267.351 248.495, 264.231 252.415 Q 261.151 256.335, 254.751 260.975 L 267.831 260.975 L 267.831 264.175 L 248.751 264.175 L 248.751 261.495 Q 254.031 257.735, 257.151 254.935 Q 260.311 252.135, 261.831 249.615 Q 263.351 247.095, 263.351 244.495 Q 263.351 241.775, 261.991 240.255 Q 260.631 238.735, 258.271 238.735 Q 255.991 238.735, 254.471 239.655 Q 252.951 240.575, 251.871 242.615 L 248.831 241.215 " fill="#000000"/>
<path class="atom-2" d="M 19.0401 235.855 L 22.8801 235.855 L 22.8801 247.895 L 37.3601 247.895 L 37.3601 235.855 L 41.2001 235.855 L 41.2001 264.175 L 37.3601 264.175 L 37.3601 251.095 L 22.8801 251.095 L 22.8801 264.175 L 19.0401 264.175 L 19.0401 235.855 " fill="#000000"/>
<path class="atom-2" d="M 44.2001 259.495 L 48.2001 259.495 L 48.2001 263.495 L 44.2001 263.495 L 44.2001 259.495 M 44.2001 245.735 L 48.2001 245.735 L 48.2001 249.735 L 44.2001 249.735 L 44.2001 245.735 " fill="#000000"/>
<path class="atom-2" d="M 63.4801 249.255 Q 66.2401 250.055, 67.5601 251.855 Q 68.9201 253.615, 68.9201 256.415 Q 68.9201 258.815, 67.7201 260.695 Q 66.5201 262.535, 64.3201 263.575 Q 62.1201 264.575, 59.2401 264.575 Q 56.2001 264.575, 53.9201 263.535 Q 51.6801 262.455, 49.8801 260.295 L 52.1601 257.975 Q 53.9201 259.895, 55.4001 260.655 Q 56.8801 261.375, 59.2401 261.375 Q 61.8001 261.375, 63.3601 260.015 Q 64.9201 258.615, 64.9201 256.375 Q 64.9201 253.495, 63.2801 252.215 Q 61.6801 250.895, 58.2001 250.895 L 56.1601 250.895 L 56.1601 248.015 L 57.9601 248.015 Q 61.0401 247.975, 62.6801 246.655 Q 64.3201 245.295, 64.3201 242.775 Q 64.3201 240.935, 62.9601 239.855 Q 61.6001 238.735, 59.2801 238.735 Q 56.9201 238.735, 55.4401 239.575 Q 54.0001 240.415, 52.8801 242.535 L 50.1201 241.055 Q 51.1201 238.695, 53.5201 237.135 Q 55.9201 235.535, 59.2801 235.535 Q 63.4401 235.535, 65.8801 237.495 Q 68.3201 239.455, 68.3201 242.775 Q 68.3201 245.055, 67.0801 246.695 Q 65.8401 248.335, 63.4801 249.255 " fill="#000000"/>
<path class="atom-3" d="M 240.301 43.7136 L 244.141 43.7136 L 244.141 55.7536 L 258.621 55.7536 L 258.621 43.7136 L 262.461 43.7136 L 262.461 72.0336 L 258.621 72.0336 L 258.621 58.9536 L 244.141 58.9536 L 244.141 72.0336 L 240.301 72.0336 L 240.301 43.7136 " fill="#000000"/>
<path class="atom-3" d="M 265.461 67.3536 L 269.461 67.3536 L 269.461 71.3536 L 265.461 71.3536 L 265.461 67.3536 M 265.461 53.5936 L 269.461 53.5936 L 269.461 57.5936 L 265.461 57.5936 L 265.461 53.5936 " fill="#000000"/>
<path class="atom-3" d="M 289.061 62.3136 L 292.461 62.3136 L 292.461 65.5136 L 289.061 65.5136 L 289.061 72.0336 L 285.301 72.0336 L 285.301 65.5136 L 270.661 65.5136 L 270.661 62.9936 L 283.061 43.7136 L 289.061 43.7136 L 289.061 62.3136 M 275.301 62.3136 L 285.301 62.3136 L 285.301 46.2736 L 275.301 62.3136 " fill="#000000"/>
<path class="atom-4" d="M 240.301 427.676 L 244.141 427.676 L 244.141 439.716 L 258.621 439.716 L 258.621 427.676 L 262.461 427.676 L 262.461 455.996 L 258.621 455.996 L 258.621 442.916 L 244.141 442.916 L 244.141 455.996 L 240.301 455.996 L 240.301 427.676 " fill="#000000"/>
<path class="atom-4" d="M 265.461 451.316 L 269.461 451.316 L 269.461 455.316 L 265.461 455.316 L 265.461 451.316 M 265.461 437.556 L 269.461 437.556 L 269.461 441.556 L 265.461 441.556 L 265.461 437.556 " fill="#000000"/>
<path class="atom-4" d="M 281.581 438.276 Q 284.061 438.276, 286.101 439.356 Q 288.141 440.396, 289.301 442.396 Q 290.461 444.356, 290.461 447.036 Q 290.461 449.956, 289.021 452.076 Q 287.621 454.156, 285.301 455.236 Q 282.981 456.316, 280.341 456.316 Q 277.741 456.316, 275.341 455.356 Q 272.941 454.396, 271.301 452.556 L 273.701 450.076 Q 275.021 451.516, 276.821 452.316 Q 278.621 453.076, 280.461 453.076 Q 282.981 453.076, 284.701 451.516 Q 286.461 449.956, 286.461 447.116 Q 286.461 444.116, 284.701 442.716 Q 282.981 441.276, 280.221 441.276 Q 277.741 441.276, 274.981 442.356 L 272.781 441.316 L 274.141 427.676 L 288.701 427.676 L 288.301 430.876 L 277.421 430.876 L 276.581 439.276 Q 279.101 438.276, 281.581 438.276 " fill="#000000"/>
<text x="347.37164443897865" y="249.85461703510722" font-size="12" font-family="Verdana" font-weight="bold" letter-spacing="0" text-anchor="start" fill="black" transform=" rotate(-90.000000 347.371644 249.854617)">0.0288</text><text x="25" y="490" font-size="12" font-family="Verdana" font-weight="bold" letter-spacing="0" text-anchor="start" fill="black">[H:1]-[#6:2](-[H:3])(-[H:4])-[H:5]</text></svg>
