<?xml version='1.0' encoding='ASCII' standalone='yes'?>
<svg xmlns="http://www.w3.org/2000/svg" xmlns:rdkit="http://www.rdkit.org/xml" xmlns:xlink="http://www.w3.org/1999/xlink" version="1.1" baseProfile="full" xml:space="preserve" width="500px" height="500px" viewBox="0 0 500 500">
<!-- END OF HEADER -->
<rect style="opacity:1.0;fill:#FFFFFF;stroke:none" width="500.0" height="500.0" x="0.0" y="0.0"> </rect>
<path class="bond-2 atom-1 atom-2" d="M 176.7,272.6 L 241.8,256.6" style="fill:none;fill-rule:evenodd;stroke:#FF7F7F;stroke-width:14.3px;stroke-linecap:butt;stroke-linejoin:miter;stroke-opacity:1"/>
<path class="bond-0 atom-0 atom-11" d="M 133.6,212.7 L 145.4,171.9" style="fill:none;fill-rule:evenodd;stroke:#000000;stroke-width:2.0px;stroke-linecap:butt;stroke-linejoin:miter;stroke-opacity:1"/>
<path class="bond-1 atom-0 atom-12" d="M 113.8,235.2 L 94.5,240.0" style="fill:none;fill-rule:evenodd;stroke:#000000;stroke-width:2.0px;stroke-linecap:butt;stroke-linejoin:miter;stroke-opacity:1"/>
<path class="bond-1 atom-0 atom-12" d="M 94.5,240.0 L 75.3,244.7" style="fill:none;fill-rule:evenodd;stroke:#FF0000;stroke-width:2.0px;stroke-linecap:butt;stroke-linejoin:miter;stroke-opacity:1"/>
<path class="bond-1 atom-0 atom-12" d="M 110.6,222.2 L 91.3,227.0" style="fill:none;fill-rule:evenodd;stroke:#000000;stroke-width:2.0px;stroke-linecap:butt;stroke-linejoin:miter;stroke-opacity:1"/>
<path class="bond-1 atom-0 atom-12" d="M 91.3,227.0 L 72.1,231.7" style="fill:none;fill-rule:evenodd;stroke:#FF0000;stroke-width:2.0px;stroke-linecap:butt;stroke-linejoin:miter;stroke-opacity:1"/>
<path class="bond-2 atom-1 atom-2" d="M 195.8,267.9 L 209.4,264.6" style="fill:none;fill-rule:evenodd;stroke:#0000FF;stroke-width:2.0px;stroke-linecap:butt;stroke-linejoin:miter;stroke-opacity:1"/>
<path class="bond-2 atom-1 atom-2" d="M 209.4,264.6 L 223.0,261.2" style="fill:none;fill-rule:evenodd;stroke:#000000;stroke-width:2.0px;stroke-linecap:butt;stroke-linejoin:miter;stroke-opacity:1"/>
<path class="bond-3 atom-1 atom-0" d="M 165.6,261.1 L 153.6,248.6" style="fill:none;fill-rule:evenodd;stroke:#0000FF;stroke-width:2.0px;stroke-linecap:butt;stroke-linejoin:miter;stroke-opacity:1"/>
<path class="bond-3 atom-1 atom-0" d="M 153.6,248.6 L 141.5,236.0" style="fill:none;fill-rule:evenodd;stroke:#000000;stroke-width:2.0px;stroke-linecap:butt;stroke-linejoin:miter;stroke-opacity:1"/>
<path class="bond-4 atom-1 atom-4" d="M 173.3,284.4 L 167.3,304.9" style="fill:none;fill-rule:evenodd;stroke:#0000FF;stroke-width:2.0px;stroke-linecap:butt;stroke-linejoin:miter;stroke-opacity:1"/>
<path class="bond-4 atom-1 atom-4" d="M 167.3,304.9 L 161.3,325.5" style="fill:none;fill-rule:evenodd;stroke:#000000;stroke-width:2.0px;stroke-linecap:butt;stroke-linejoin:miter;stroke-opacity:1"/>
<path class="bond-5 atom-3 atom-2" d="M 257.0,204.0 L 245.2,244.9" style="fill:none;fill-rule:evenodd;stroke:#000000;stroke-width:2.0px;stroke-linecap:butt;stroke-linejoin:miter;stroke-opacity:1"/>
<path class="bond-5 atom-3 atom-2" d="M 268.1,213.8 L 259.8,242.5" style="fill:none;fill-rule:evenodd;stroke:#000000;stroke-width:2.0px;stroke-linecap:butt;stroke-linejoin:miter;stroke-opacity:1"/>
<path class="bond-6 atom-3 atom-10" d="M 246.0,180.5 L 237.6,173.6" style="fill:none;fill-rule:evenodd;stroke:#000000;stroke-width:2.0px;stroke-linecap:butt;stroke-linejoin:miter;stroke-opacity:1"/>
<path class="bond-7 atom-4 atom-13" d="M 139.2,331.6 L 103.0,321.1" style="fill:none;fill-rule:evenodd;stroke:#000000;stroke-width:2.0px;stroke-linecap:butt;stroke-linejoin:miter;stroke-opacity:1"/>
<path class="bond-8 atom-4 atom-14" d="M 176.8,342.5 L 212.8,352.9" style="fill:none;fill-rule:evenodd;stroke:#000000;stroke-width:2.0px;stroke-linecap:butt;stroke-linejoin:miter;stroke-opacity:1"/>
<path class="bond-9 atom-4 atom-15" d="M 154.5,349.0 L 142.7,389.9" style="fill:none;fill-rule:evenodd;stroke:#000000;stroke-width:2.0px;stroke-linecap:butt;stroke-linejoin:miter;stroke-opacity:1"/>
<path class="bond-10 atom-5 atom-2" d="M 276.9,293.2 L 253.3,268.6" style="fill:none;fill-rule:evenodd;stroke:#000000;stroke-width:2.0px;stroke-linecap:butt;stroke-linejoin:miter;stroke-opacity:1"/>
<path class="bond-11 atom-5 atom-9" d="M 284.7,316.9 L 272.9,357.8" style="fill:none;fill-rule:evenodd;stroke:#000000;stroke-width:2.0px;stroke-linecap:butt;stroke-linejoin:miter;stroke-opacity:1"/>
<path class="bond-12 atom-6 atom-5" d="M 334.6,293.5 L 307.1,300.3" style="fill:none;fill-rule:evenodd;stroke:#000000;stroke-width:2.0px;stroke-linecap:butt;stroke-linejoin:miter;stroke-opacity:1"/>
<path class="bond-12 atom-6 atom-5" d="M 327.3,281.5 L 308.0,286.3" style="fill:none;fill-rule:evenodd;stroke:#000000;stroke-width:2.0px;stroke-linecap:butt;stroke-linejoin:miter;stroke-opacity:1"/>
<path class="bond-13 atom-6 atom-16" d="M 364.5,300.7 L 390.1,327.3" style="fill:none;fill-rule:evenodd;stroke:#000000;stroke-width:2.0px;stroke-linecap:butt;stroke-linejoin:miter;stroke-opacity:1"/>
<path class="bond-14 atom-7 atom-6" d="M 368.5,236.5 L 356.6,277.4" style="fill:none;fill-rule:evenodd;stroke:#000000;stroke-width:2.0px;stroke-linecap:butt;stroke-linejoin:miter;stroke-opacity:1"/>
<path class="bond-15 atom-7 atom-8" d="M 360.7,212.8 L 337.0,188.1" style="fill:none;fill-rule:evenodd;stroke:#000000;stroke-width:2.0px;stroke-linecap:butt;stroke-linejoin:miter;stroke-opacity:1"/>
<path class="bond-15 atom-7 atom-8" d="M 347.4,218.4 L 330.9,201.1" style="fill:none;fill-rule:evenodd;stroke:#000000;stroke-width:2.0px;stroke-linecap:butt;stroke-linejoin:miter;stroke-opacity:1"/>
<path class="bond-16 atom-7 atom-20" d="M 391.0,219.9 L 427.5,210.9" style="fill:none;fill-rule:evenodd;stroke:#000000;stroke-width:2.0px;stroke-linecap:butt;stroke-linejoin:miter;stroke-opacity:1"/>
<path class="bond-17 atom-8 atom-3" d="M 306.6,180.9 L 269.9,189.9" style="fill:none;fill-rule:evenodd;stroke:#000000;stroke-width:2.0px;stroke-linecap:butt;stroke-linejoin:miter;stroke-opacity:1"/>
<path class="bond-18 atom-8 atom-17" d="M 328.9,164.5 L 340.8,123.5" style="fill:none;fill-rule:evenodd;stroke:#000000;stroke-width:2.0px;stroke-linecap:butt;stroke-linejoin:miter;stroke-opacity:1"/>
<path class="bond-19 atom-11 atom-18" d="M 176.3,171.6 L 185.3,175.5" style="fill:none;fill-rule:evenodd;stroke:#000000;stroke-width:2.0px;stroke-linecap:butt;stroke-linejoin:miter;stroke-opacity:1"/>
<path class="bond-20 atom-11 atom-19" d="M 139.5,157.2 L 93.6,143.9" style="fill:none;fill-rule:evenodd;stroke:#000000;stroke-width:2.0px;stroke-linecap:butt;stroke-linejoin:miter;stroke-opacity:1"/>
<path class="bond-21 atom-11 atom-21" d="M 152.3,148.2 L 164.2,107.2" style="fill:none;fill-rule:evenodd;stroke:#000000;stroke-width:2.0px;stroke-linecap:butt;stroke-linejoin:miter;stroke-opacity:1"/>
<path class="atom-0" d="M 114.3 224.4 Q 114.3 219.6, 116.5 217.2 Q 118.7 214.7, 122.9 214.7 Q 126.9 214.7, 129.0 217.4 L 127.2 218.9 Q 125.7 216.9, 122.9 216.9 Q 120.1 216.9, 118.5 218.8 Q 117.0 220.7, 117.0 224.4 Q 117.0 228.1, 118.6 230.0 Q 120.2 232.0, 123.2 232.0 Q 125.3 232.0, 127.8 230.7 L 128.5 232.7 Q 127.5 233.4, 126.0 233.7 Q 124.5 234.1, 122.9 234.1 Q 118.7 234.1, 116.5 231.6 Q 114.3 229.1, 114.3 224.4 " fill="#000000"/>
<path class="atom-0" d="M 130.0 230.7 L 132.7 230.7 L 132.7 233.4 L 130.0 233.4 L 130.0 230.7 M 130.0 221.5 L 132.7 221.5 L 132.7 224.2 L 130.0 224.2 L 130.0 221.5 " fill="#000000"/>
<path class="atom-0" d="M 135.8 231.7 L 139.9 231.7 L 139.9 217.5 L 135.3 219.0 L 134.7 217.4 L 140.5 214.8 L 142.4 215.1 L 142.4 231.7 L 146.2 231.7 L 146.2 233.9 L 135.8 233.9 L 135.8 231.7 " fill="#000000"/>
<path class="atom-1" d="M 162.6 263.3 L 168.8 273.3 Q 169.4 274.3, 170.4 276.1 Q 171.4 277.9, 171.5 278.0 L 171.5 263.3 L 174.0 263.3 L 174.0 282.2 L 171.4 282.2 L 164.7 271.2 Q 164.0 270.0, 163.1 268.5 Q 162.3 267.0, 162.1 266.5 L 162.1 282.2 L 159.6 282.2 L 159.6 263.3 L 162.6 263.3 " fill="#0000FF"/>
<path class="atom-1" d="M 176.2 279.1 L 178.9 279.1 L 178.9 281.8 L 176.2 281.8 L 176.2 279.1 M 176.2 269.9 L 178.9 269.9 L 178.9 272.6 L 176.2 272.6 L 176.2 269.9 " fill="#0000FF"/>
<path class="atom-1" d="M 181.0 266.8 Q 181.7 265.0, 183.3 264.1 Q 185.0 263.0, 187.3 263.0 Q 190.2 263.0, 191.8 264.6 Q 193.4 266.1, 193.4 268.9 Q 193.4 271.7, 191.3 274.4 Q 189.2 277.0, 184.9 280.1 L 193.7 280.1 L 193.7 282.2 L 180.9 282.2 L 180.9 280.4 Q 184.5 277.9, 186.6 276.0 Q 188.7 274.2, 189.7 272.5 Q 190.7 270.8, 190.7 269.0 Q 190.7 267.2, 189.8 266.2 Q 188.9 265.2, 187.3 265.2 Q 185.8 265.2, 184.8 265.8 Q 183.7 266.4, 183.0 267.8 L 181.0 266.8 " fill="#0000FF"/>
<path class="atom-2" d="M 225.2 256.7 Q 225.2 252.0, 227.4 249.5 Q 229.6 247.0, 233.8 247.0 Q 237.7 247.0, 239.8 249.8 L 238.0 251.2 Q 236.5 249.2, 233.8 249.2 Q 230.9 249.2, 229.4 251.1 Q 227.9 253.0, 227.9 256.7 Q 227.9 260.4, 229.5 262.4 Q 231.0 264.3, 234.1 264.3 Q 236.2 264.3, 238.6 263.0 L 239.4 265.1 Q 238.4 265.7, 236.9 266.1 Q 235.4 266.5, 233.7 266.5 Q 229.6 266.5, 227.4 263.9 Q 225.2 261.4, 225.2 256.7 " fill="#000000"/>
<path class="atom-2" d="M 240.9 263.1 L 243.6 263.1 L 243.6 265.8 L 240.9 265.8 L 240.9 263.1 M 240.9 253.8 L 243.6 253.8 L 243.6 256.5 L 240.9 256.5 L 240.9 253.8 " fill="#000000"/>
<path class="atom-2" d="M 254.7 256.2 Q 256.5 256.7, 257.4 258.0 Q 258.3 259.1, 258.3 261.0 Q 258.3 262.6, 257.5 263.9 Q 256.7 265.1, 255.3 265.8 Q 253.8 266.5, 251.8 266.5 Q 249.8 266.5, 248.3 265.8 Q 246.8 265.1, 245.6 263.6 L 247.1 262.1 Q 248.3 263.3, 249.3 263.8 Q 250.3 264.3, 251.8 264.3 Q 253.6 264.3, 254.6 263.4 Q 255.7 262.5, 255.7 261.0 Q 255.7 259.0, 254.6 258.2 Q 253.5 257.3, 251.2 257.3 L 249.8 257.3 L 249.8 255.4 L 251.0 255.4 Q 253.1 255.3, 254.2 254.5 Q 255.3 253.6, 255.3 251.9 Q 255.3 250.6, 254.3 249.9 Q 253.4 249.2, 251.9 249.2 Q 250.3 249.2, 249.3 249.7 Q 248.3 250.3, 247.6 251.7 L 245.7 250.7 Q 246.4 249.1, 248.0 248.1 Q 249.6 247.0, 251.9 247.0 Q 254.7 247.0, 256.3 248.3 Q 257.9 249.6, 257.9 251.9 Q 257.9 253.4, 257.1 254.5 Q 256.3 255.6, 254.7 256.2 " fill="#000000"/>
<path class="atom-3" d="M 232.7 192.3 Q 232.7 187.6, 234.9 185.1 Q 237.1 182.6, 241.3 182.6 Q 245.3 182.6, 247.3 185.4 L 245.6 186.8 Q 244.0 184.8, 241.3 184.8 Q 238.5 184.8, 236.9 186.8 Q 235.4 188.7, 235.4 192.3 Q 235.4 196.1, 237.0 198.0 Q 238.6 199.9, 241.6 199.9 Q 243.7 199.9, 246.2 198.7 L 246.9 200.7 Q 245.9 201.3, 244.4 201.7 Q 242.9 202.1, 241.3 202.1 Q 237.1 202.1, 234.9 199.5 Q 232.7 197.0, 232.7 192.3 " fill="#000000"/>
<path class="atom-3" d="M 248.4 198.7 L 251.1 198.7 L 251.1 201.4 L 248.4 201.4 L 248.4 198.7 M 248.4 189.5 L 251.1 189.5 L 251.1 192.1 L 248.4 192.1 L 248.4 189.5 " fill="#000000"/>
<path class="atom-3" d="M 265.4 195.3 L 267.7 195.3 L 267.7 197.5 L 265.4 197.5 L 265.4 201.8 L 262.9 201.8 L 262.9 197.5 L 253.1 197.5 L 253.1 195.8 L 261.4 182.8 L 265.4 182.8 L 265.4 195.3 M 256.2 195.3 L 262.9 195.3 L 262.9 184.6 L 256.2 195.3 " fill="#000000"/>
<path class="atom-4" d="M 141.4 337.1 Q 141.4 332.4, 143.6 329.9 Q 145.8 327.4, 150.0 327.4 Q 153.9 327.4, 156.0 330.2 L 154.2 331.6 Q 152.7 329.6, 150.0 329.6 Q 147.1 329.6, 145.6 331.6 Q 144.1 333.5, 144.1 337.1 Q 144.1 340.9, 145.7 342.8 Q 147.2 344.7, 150.3 344.7 Q 152.4 344.7, 154.8 343.5 L 155.6 345.5 Q 154.6 346.1, 153.1 346.5 Q 151.6 346.9, 149.9 346.9 Q 145.8 346.9, 143.6 344.3 Q 141.4 341.8, 141.4 337.1 " fill="#000000"/>
<path class="atom-4" d="M 157.1 343.5 L 159.8 343.5 L 159.8 346.2 L 157.1 346.2 L 157.1 343.5 M 157.1 334.3 L 159.8 334.3 L 159.8 336.9 L 157.1 336.9 L 157.1 334.3 " fill="#000000"/>
<path class="atom-4" d="M 168.7 334.7 Q 170.3 334.7, 171.7 335.5 Q 173.1 336.2, 173.8 337.5 Q 174.6 338.8, 174.6 340.6 Q 174.6 342.6, 173.7 344.0 Q 172.7 345.4, 171.2 346.1 Q 169.6 346.8, 167.8 346.8 Q 166.1 346.8, 164.5 346.2 Q 162.9 345.5, 161.8 344.3 L 163.4 342.7 Q 164.3 343.6, 165.5 344.2 Q 166.7 344.7, 167.9 344.7 Q 169.6 344.7, 170.8 343.6 Q 171.9 342.6, 171.9 340.7 Q 171.9 338.7, 170.8 337.7 Q 169.6 336.8, 167.8 336.8 Q 166.1 336.8, 164.2 337.5 L 162.8 336.8 L 163.7 327.6 L 173.4 327.6 L 173.2 329.8 L 165.9 329.8 L 165.3 335.4 Q 167.0 334.7, 168.7 334.7 " fill="#000000"/>
<path class="atom-5" d="M 271.4 305.0 Q 271.4 300.3, 273.6 297.9 Q 275.8 295.4, 280.0 295.4 Q 283.9 295.4, 286.0 298.1 L 284.3 299.6 Q 282.7 297.6, 280.0 297.6 Q 277.2 297.6, 275.6 299.5 Q 274.1 301.4, 274.1 305.0 Q 274.1 308.8, 275.7 310.7 Q 277.3 312.7, 280.3 312.7 Q 282.4 312.7, 284.9 311.4 L 285.6 313.4 Q 284.6 314.1, 283.1 314.4 Q 281.6 314.8, 279.9 314.8 Q 275.8 314.8, 273.6 312.3 Q 271.4 309.8, 271.4 305.0 " fill="#000000"/>
<path class="atom-5" d="M 287.1 311.4 L 289.8 311.4 L 289.8 314.1 L 287.1 314.1 L 287.1 311.4 M 287.1 302.2 L 289.8 302.2 L 289.8 304.9 L 287.1 304.9 L 287.1 302.2 " fill="#000000"/>
<path class="atom-5" d="M 299.2 302.7 Q 300.9 302.7, 302.2 303.4 Q 303.5 304.2, 304.2 305.5 Q 305.0 306.8, 305.0 308.5 Q 305.0 310.3, 304.1 311.8 Q 303.3 313.2, 301.9 314.0 Q 300.4 314.8, 298.6 314.8 Q 295.2 314.8, 293.5 312.5 Q 291.8 310.2, 291.8 305.6 Q 291.8 300.6, 293.9 298.0 Q 296.0 295.4, 300.1 295.4 Q 301.2 295.4, 302.2 295.6 Q 303.2 295.9, 304.2 296.5 L 303.2 298.3 Q 301.8 297.5, 300.1 297.5 Q 297.4 297.5, 296.0 299.3 Q 294.7 301.0, 294.5 304.5 Q 295.5 303.7, 296.7 303.2 Q 297.9 302.7, 299.2 302.7 M 298.6 312.6 Q 299.6 312.6, 300.5 312.0 Q 301.3 311.5, 301.8 310.6 Q 302.3 309.6, 302.3 308.5 Q 302.3 306.8, 301.3 305.8 Q 300.4 304.9, 298.7 304.9 Q 297.6 304.9, 296.4 305.3 Q 295.3 305.8, 294.5 306.6 Q 294.6 309.7, 295.6 311.2 Q 296.6 312.6, 298.6 312.6 " fill="#000000"/>
<path class="atom-6" d="M 336.8 289.0 Q 336.8 284.3, 339.0 281.8 Q 341.2 279.3, 345.4 279.3 Q 349.3 279.3, 351.4 282.1 L 349.6 283.5 Q 348.1 281.5, 345.4 281.5 Q 342.5 281.5, 341.0 283.5 Q 339.5 285.4, 339.5 289.0 Q 339.5 292.8, 341.1 294.7 Q 342.6 296.6, 345.7 296.6 Q 347.8 296.6, 350.2 295.4 L 351.0 297.4 Q 350.0 298.0, 348.5 298.4 Q 347.0 298.8, 345.3 298.8 Q 341.2 298.8, 339.0 296.3 Q 336.8 293.7, 336.8 289.0 " fill="#000000"/>
<path class="atom-6" d="M 352.5 295.4 L 355.2 295.4 L 355.2 298.1 L 352.5 298.1 L 352.5 295.4 M 352.5 286.2 L 355.2 286.2 L 355.2 288.9 L 352.5 288.9 L 352.5 286.2 " fill="#000000"/>
<path class="atom-6" d="M 367.1 281.7 L 357.2 281.7 L 357.2 279.6 L 369.8 279.6 L 369.8 281.5 L 362.1 298.5 L 359.5 298.5 L 367.1 281.7 " fill="#000000"/>
<path class="atom-7" d="M 355.0 224.6 Q 355.0 219.9, 357.2 217.5 Q 359.5 215.0, 363.7 215.0 Q 367.6 215.0, 369.7 217.7 L 367.9 219.2 Q 366.4 217.2, 363.7 217.2 Q 360.8 217.2, 359.3 219.1 Q 357.8 221.0, 357.8 224.6 Q 357.8 228.4, 359.3 230.3 Q 360.9 232.3, 364.0 232.3 Q 366.0 232.3, 368.5 231.0 L 369.2 233.0 Q 368.2 233.6, 366.7 234.0 Q 365.2 234.4, 363.6 234.4 Q 359.5 234.4, 357.2 231.9 Q 355.0 229.4, 355.0 224.6 " fill="#000000"/>
<path class="atom-7" d="M 370.7 231.0 L 373.4 231.0 L 373.4 233.7 L 370.7 233.7 L 370.7 231.0 M 370.7 221.8 L 373.4 221.8 L 373.4 224.5 L 370.7 224.5 L 370.7 221.8 " fill="#000000"/>
<path class="atom-7" d="M 385.1 224.1 Q 386.9 224.9, 387.8 226.0 Q 388.8 227.1, 388.8 229.0 Q 388.8 230.6, 388.0 231.8 Q 387.2 233.1, 385.7 233.8 Q 384.2 234.4, 382.2 234.4 Q 379.1 234.4, 377.3 233.0 Q 375.4 231.5, 375.4 229.0 Q 375.4 227.4, 376.2 226.2 Q 377.0 225.1, 378.7 224.2 Q 377.5 223.5, 376.8 222.5 Q 376.1 221.4, 376.1 219.8 Q 376.1 217.6, 377.7 216.3 Q 379.4 215.0, 382.1 215.0 Q 384.9 215.0, 386.5 216.3 Q 388.1 217.6, 388.1 219.8 Q 388.1 221.2, 387.4 222.2 Q 386.6 223.3, 385.1 224.1 M 382.1 217.0 Q 380.6 217.0, 379.7 217.7 Q 378.8 218.5, 378.8 219.8 Q 378.8 220.8, 379.4 221.5 Q 380.0 222.1, 380.8 222.5 Q 381.7 222.9, 383.3 223.4 Q 384.5 222.6, 385.0 221.8 Q 385.5 220.9, 385.5 219.8 Q 385.5 218.5, 384.6 217.7 Q 383.7 217.0, 382.1 217.0 M 382.2 232.4 Q 384.0 232.4, 385.1 231.5 Q 386.2 230.5, 386.2 228.9 Q 386.2 227.9, 385.6 227.3 Q 385.0 226.6, 384.2 226.2 Q 383.3 225.9, 381.8 225.4 L 380.6 225.0 Q 379.3 225.8, 378.7 226.8 Q 378.1 227.7, 378.1 228.9 Q 378.1 230.5, 379.2 231.5 Q 380.4 232.4, 382.2 232.4 " fill="#000000"/>
<path class="atom-8" d="M 308.7 176.3 Q 308.7 171.6, 310.9 169.1 Q 313.1 166.6, 317.4 166.6 Q 321.3 166.6, 323.4 169.4 L 321.6 170.8 Q 320.1 168.8, 317.4 168.8 Q 314.5 168.8, 313.0 170.7 Q 311.5 172.6, 311.5 176.3 Q 311.5 180.0, 313.0 182.0 Q 314.6 183.9, 317.7 183.9 Q 319.7 183.9, 322.2 182.6 L 322.9 184.6 Q 321.9 185.3, 320.4 185.7 Q 318.9 186.0, 317.3 186.0 Q 313.1 186.0, 310.9 183.5 Q 308.7 181.0, 308.7 176.3 " fill="#000000"/>
<path class="atom-8" d="M 324.4 182.7 L 327.1 182.7 L 327.1 185.3 L 324.4 185.3 L 324.4 182.7 M 324.4 173.4 L 327.1 173.4 L 327.1 176.1 L 324.4 176.1 L 324.4 173.4 " fill="#000000"/>
<path class="atom-8" d="M 335.5 166.6 Q 338.9 166.6, 340.6 168.9 Q 342.3 171.2, 342.3 175.7 Q 342.3 180.8, 340.2 183.4 Q 338.1 186.0, 334.0 186.0 Q 332.9 186.0, 331.8 185.7 Q 330.8 185.5, 329.9 184.9 L 330.9 183.1 Q 332.3 183.9, 334.0 183.9 Q 336.7 183.9, 338.1 182.2 Q 339.4 180.4, 339.6 176.8 Q 338.6 177.7, 337.4 178.2 Q 336.2 178.7, 334.9 178.7 Q 333.2 178.7, 331.9 177.9 Q 330.6 177.2, 329.9 175.9 Q 329.1 174.6, 329.1 172.9 Q 329.1 171.1, 329.9 169.7 Q 330.8 168.2, 332.2 167.4 Q 333.7 166.6, 335.5 166.6 M 331.8 172.9 Q 331.8 174.6, 332.7 175.6 Q 333.7 176.5, 335.4 176.5 Q 336.5 176.5, 337.6 176.1 Q 338.8 175.6, 339.6 174.8 Q 339.5 171.6, 338.5 170.2 Q 337.5 168.8, 335.5 168.8 Q 334.5 168.8, 333.6 169.3 Q 332.8 169.9, 332.3 170.8 Q 331.8 171.7, 331.8 172.9 " fill="#000000"/>
<path class="atom-9" d="M 262.1 360.0 L 264.7 360.0 L 264.7 368.0 L 274.4 368.0 L 274.4 360.0 L 276.9 360.0 L 276.9 378.9 L 274.4 378.9 L 274.4 370.2 L 264.7 370.2 L 264.7 378.9 L 262.1 378.9 L 262.1 360.0 " fill="#000000"/>
<path class="atom-9" d="M 279.2 375.8 L 281.9 375.8 L 281.9 378.5 L 279.2 378.5 L 279.2 375.8 M 279.2 366.6 L 281.9 366.6 L 281.9 369.3 L 279.2 369.3 L 279.2 366.6 " fill="#000000"/>
<path class="atom-9" d="M 285.0 376.8 L 289.1 376.8 L 289.1 362.6 L 284.5 364.0 L 283.9 362.5 L 289.7 359.9 L 291.6 360.2 L 291.6 376.8 L 295.4 376.8 L 295.4 378.9 L 285.0 378.9 L 285.0 376.8 " fill="#000000"/>
<path class="atom-9" d="M 303.4 379.2 Q 299.9 379.2, 298.2 376.6 Q 296.5 374.0, 296.5 369.4 Q 296.5 364.8, 298.2 362.3 Q 299.9 359.8, 303.4 359.8 Q 306.9 359.8, 308.7 362.3 Q 310.4 364.8, 310.4 369.4 Q 310.4 374.0, 308.6 376.6 Q 306.9 379.2, 303.4 379.2 M 303.4 377.0 Q 305.5 377.0, 306.6 375.1 Q 307.7 373.2, 307.7 369.4 Q 307.7 365.7, 306.6 363.8 Q 305.5 361.9, 303.4 361.9 Q 301.4 361.9, 300.3 363.8 Q 299.2 365.7, 299.2 369.4 Q 299.2 373.2, 300.3 375.1 Q 301.4 377.0, 303.4 377.0 " fill="#000000"/>
<path class="atom-10" d="M 189.6 157.8 L 192.2 157.8 L 192.2 165.9 L 201.9 165.9 L 201.9 157.8 L 204.5 157.8 L 204.5 176.8 L 201.9 176.8 L 201.9 168.0 L 192.2 168.0 L 192.2 176.8 L 189.6 176.8 L 189.6 157.8 " fill="#000000"/>
<path class="atom-10" d="M 206.7 173.6 L 209.4 173.6 L 209.4 176.3 L 206.7 176.3 L 206.7 173.6 M 206.7 164.4 L 209.4 164.4 L 209.4 167.1 L 206.7 167.1 L 206.7 164.4 " fill="#000000"/>
<path class="atom-10" d="M 212.5 174.6 L 216.6 174.6 L 216.6 160.4 L 212.0 161.9 L 211.4 160.3 L 217.2 157.7 L 219.2 158.0 L 219.2 174.6 L 222.9 174.6 L 222.9 176.8 L 212.5 176.8 L 212.5 174.6 " fill="#000000"/>
<path class="atom-10" d="M 225.1 174.6 L 229.2 174.6 L 229.2 160.4 L 224.6 161.9 L 224.0 160.3 L 229.8 157.7 L 231.7 158.0 L 231.7 174.6 L 235.5 174.6 L 235.5 176.8 L 225.1 176.8 L 225.1 174.6 " fill="#000000"/>
<path class="atom-11" d="M 141.6 160.0 Q 141.6 155.3, 143.8 152.8 Q 146.0 150.3, 150.2 150.3 Q 154.1 150.3, 156.2 153.1 L 154.5 154.5 Q 152.9 152.5, 150.2 152.5 Q 147.3 152.5, 145.8 154.4 Q 144.3 156.3, 144.3 160.0 Q 144.3 163.7, 145.9 165.7 Q 147.5 167.6, 150.5 167.6 Q 152.6 167.6, 155.0 166.3 L 155.8 168.3 Q 154.8 169.0, 153.3 169.4 Q 151.8 169.7, 150.1 169.7 Q 146.0 169.7, 143.8 167.2 Q 141.6 164.7, 141.6 160.0 " fill="#000000"/>
<path class="atom-11" d="M 157.3 166.4 L 160.0 166.4 L 160.0 169.0 L 157.3 169.0 L 157.3 166.4 M 157.3 157.1 L 160.0 157.1 L 160.0 159.8 L 157.3 159.8 L 157.3 157.1 " fill="#000000"/>
<path class="atom-11" d="M 163.0 167.4 L 167.2 167.4 L 167.2 153.2 L 162.6 154.6 L 162.0 153.0 L 167.8 150.4 L 169.7 150.7 L 169.7 167.4 L 173.4 167.4 L 173.4 169.5 L 163.0 169.5 L 163.0 167.4 " fill="#000000"/>
<path class="atom-11" d="M 174.6 154.1 Q 175.3 152.3, 177.0 151.3 Q 178.6 150.3, 180.9 150.3 Q 183.8 150.3, 185.4 151.9 Q 187.0 153.4, 187.0 156.2 Q 187.0 159.0, 184.9 161.6 Q 182.9 164.2, 178.6 167.4 L 187.4 167.4 L 187.4 169.5 L 174.6 169.5 L 174.6 167.7 Q 178.1 165.2, 180.2 163.3 Q 182.3 161.4, 183.3 159.7 Q 184.4 158.0, 184.4 156.3 Q 184.4 154.5, 183.4 153.5 Q 182.5 152.4, 180.9 152.4 Q 179.4 152.4, 178.4 153.1 Q 177.4 153.7, 176.7 155.0 L 174.6 154.1 " fill="#000000"/>
<path class="atom-12" d="M 22.7 240.4 Q 22.7 235.8, 25.0 233.3 Q 27.2 230.7, 31.4 230.7 Q 35.7 230.7, 37.9 233.3 Q 40.2 235.8, 40.2 240.4 Q 40.2 245.0, 37.9 247.6 Q 35.6 250.2, 31.4 250.2 Q 27.3 250.2, 25.0 247.6 Q 22.7 245.0, 22.7 240.4 M 31.4 248.1 Q 34.3 248.1, 35.9 246.1 Q 37.5 244.2, 37.5 240.4 Q 37.5 236.6, 35.9 234.8 Q 34.3 232.9, 31.4 232.9 Q 28.5 232.9, 27.0 234.7 Q 25.4 236.6, 25.4 240.4 Q 25.4 244.2, 27.0 246.1 Q 28.5 248.1, 31.4 248.1 " fill="#FF0000"/>
<path class="atom-12" d="M 41.5 246.8 L 44.2 246.8 L 44.2 249.5 L 41.5 249.5 L 41.5 246.8 M 41.5 237.5 L 44.2 237.5 L 44.2 240.2 L 41.5 240.2 L 41.5 237.5 " fill="#FF0000"/>
<path class="atom-12" d="M 47.2 247.8 L 51.4 247.8 L 51.4 233.6 L 46.8 235.0 L 46.2 233.4 L 52.0 230.8 L 53.9 231.1 L 53.9 247.8 L 57.6 247.8 L 57.6 249.9 L 47.2 249.9 L 47.2 247.8 " fill="#FF0000"/>
<path class="atom-12" d="M 67.9 239.9 Q 69.7 240.4, 70.6 241.6 Q 71.5 242.8, 71.5 244.7 Q 71.5 246.3, 70.7 247.6 Q 69.9 248.8, 68.4 249.5 Q 67.0 250.2, 65.0 250.2 Q 63.0 250.2, 61.5 249.5 Q 60.0 248.8, 58.8 247.3 L 60.3 245.7 Q 61.5 247.0, 62.5 247.5 Q 63.5 248.0, 65.0 248.0 Q 66.8 248.0, 67.8 247.1 Q 68.8 246.2, 68.8 244.7 Q 68.8 242.7, 67.7 241.9 Q 66.7 241.0, 64.3 241.0 L 63.0 241.0 L 63.0 239.1 L 64.2 239.1 Q 66.2 239.0, 67.3 238.2 Q 68.4 237.2, 68.4 235.6 Q 68.4 234.3, 67.5 233.6 Q 66.6 232.9, 65.1 232.9 Q 63.5 232.9, 62.5 233.4 Q 61.5 234.0, 60.8 235.4 L 58.9 234.4 Q 59.6 232.8, 61.2 231.8 Q 62.8 230.7, 65.1 230.7 Q 67.9 230.7, 69.5 232.0 Q 71.1 233.3, 71.1 235.6 Q 71.1 237.1, 70.3 238.2 Q 69.5 239.3, 67.9 239.9 " fill="#FF0000"/>
<path class="atom-13" d="M 51.9 308.9 L 54.5 308.9 L 54.5 317.0 L 64.2 317.0 L 64.2 308.9 L 66.8 308.9 L 66.8 327.9 L 64.2 327.9 L 64.2 319.1 L 54.5 319.1 L 54.5 327.9 L 51.9 327.9 L 51.9 308.9 " fill="#000000"/>
<path class="atom-13" d="M 69.0 324.8 L 71.7 324.8 L 71.7 327.4 L 69.0 327.4 L 69.0 324.8 M 69.0 315.5 L 71.7 315.5 L 71.7 318.2 L 69.0 318.2 L 69.0 315.5 " fill="#000000"/>
<path class="atom-13" d="M 74.8 325.8 L 78.9 325.8 L 78.9 311.6 L 74.3 313.0 L 73.7 311.4 L 79.5 308.8 L 81.5 309.1 L 81.5 325.8 L 85.2 325.8 L 85.2 327.9 L 74.8 327.9 L 74.8 325.8 " fill="#000000"/>
<path class="atom-13" d="M 98.6 321.4 L 100.9 321.4 L 100.9 323.5 L 98.6 323.5 L 98.6 327.9 L 96.1 327.9 L 96.1 323.5 L 86.3 323.5 L 86.3 321.8 L 94.6 308.9 L 98.6 308.9 L 98.6 321.4 M 89.4 321.4 L 96.1 321.4 L 96.1 310.6 L 89.4 321.4 " fill="#000000"/>
<path class="atom-14" d="M 215.0 346.2 L 217.5 346.2 L 217.5 354.3 L 227.2 354.3 L 227.2 346.2 L 229.8 346.2 L 229.8 365.2 L 227.2 365.2 L 227.2 356.5 L 217.5 356.5 L 217.5 365.2 L 215.0 365.2 L 215.0 346.2 " fill="#000000"/>
<path class="atom-14" d="M 232.1 362.1 L 234.8 362.1 L 234.8 364.8 L 232.1 364.8 L 232.1 362.1 M 232.1 352.9 L 234.8 352.9 L 234.8 355.6 L 232.1 355.6 L 232.1 352.9 " fill="#000000"/>
<path class="atom-14" d="M 237.8 363.1 L 242.0 363.1 L 242.0 348.9 L 237.4 350.3 L 236.8 348.7 L 242.6 346.1 L 244.5 346.5 L 244.5 363.1 L 248.2 363.1 L 248.2 365.2 L 237.8 365.2 L 237.8 363.1 " fill="#000000"/>
<path class="atom-14" d="M 256.2 353.4 Q 257.9 353.4, 259.3 354.1 Q 260.6 354.8, 261.4 356.1 Q 262.2 357.4, 262.2 359.2 Q 262.2 361.2, 261.2 362.6 Q 260.3 364.0, 258.7 364.7 Q 257.2 365.4, 255.4 365.4 Q 253.7 365.4, 252.1 364.8 Q 250.5 364.2, 249.4 362.9 L 251.0 361.3 Q 251.8 362.2, 253.1 362.8 Q 254.3 363.3, 255.5 363.3 Q 257.2 363.3, 258.3 362.2 Q 259.5 361.2, 259.5 359.3 Q 259.5 357.3, 258.3 356.3 Q 257.2 355.4, 255.3 355.4 Q 253.7 355.4, 251.8 356.1 L 250.3 355.4 L 251.3 346.2 L 261.0 346.2 L 260.8 348.4 L 253.5 348.4 L 252.9 354.0 Q 254.6 353.4, 256.2 353.4 " fill="#000000"/>
<path class="atom-15" d="M 131.9 392.0 L 134.5 392.0 L 134.5 400.1 L 144.2 400.1 L 144.2 392.0 L 146.8 392.0 L 146.8 411.0 L 144.2 411.0 L 144.2 402.2 L 134.5 402.2 L 134.5 411.0 L 131.9 411.0 L 131.9 392.0 " fill="#000000"/>
<path class="atom-15" d="M 149.0 407.9 L 151.7 407.9 L 151.7 410.5 L 149.0 410.5 L 149.0 407.9 M 149.0 398.6 L 151.7 398.6 L 151.7 401.3 L 149.0 401.3 L 149.0 398.6 " fill="#000000"/>
<path class="atom-15" d="M 154.8 408.9 L 158.9 408.9 L 158.9 394.7 L 154.3 396.1 L 153.7 394.5 L 159.5 391.9 L 161.5 392.2 L 161.5 408.9 L 165.2 408.9 L 165.2 411.0 L 154.8 411.0 L 154.8 408.9 " fill="#000000"/>
<path class="atom-15" d="M 173.7 399.2 Q 175.4 399.2, 176.7 399.9 Q 178.0 400.6, 178.7 401.9 Q 179.5 403.2, 179.5 404.9 Q 179.5 406.7, 178.6 408.2 Q 177.8 409.6, 176.4 410.4 Q 174.9 411.2, 173.1 411.2 Q 169.7 411.2, 168.0 408.9 Q 166.3 406.6, 166.3 402.1 Q 166.3 397.0, 168.4 394.4 Q 170.5 391.8, 174.6 391.8 Q 175.7 391.8, 176.7 392.1 Q 177.8 392.3, 178.7 392.9 L 177.7 394.7 Q 176.3 393.9, 174.6 393.9 Q 171.9 393.9, 170.5 395.7 Q 169.2 397.4, 169.0 401.0 Q 170.0 400.1, 171.2 399.6 Q 172.4 399.2, 173.7 399.2 M 173.1 409.0 Q 174.1 409.0, 175.0 408.5 Q 175.8 407.9, 176.3 407.0 Q 176.8 406.1, 176.8 404.9 Q 176.8 403.2, 175.9 402.3 Q 174.9 401.3, 173.3 401.3 Q 172.1 401.3, 170.9 401.8 Q 169.8 402.2, 169.0 403.0 Q 169.1 406.2, 170.1 407.6 Q 171.1 409.0, 173.1 409.0 " fill="#000000"/>
<path class="atom-16" d="M 392.3 327.9 L 394.8 327.9 L 394.8 335.9 L 404.5 335.9 L 404.5 327.9 L 407.1 327.9 L 407.1 346.8 L 404.5 346.8 L 404.5 338.1 L 394.8 338.1 L 394.8 346.8 L 392.3 346.8 L 392.3 327.9 " fill="#000000"/>
<path class="atom-16" d="M 409.4 343.7 L 412.1 343.7 L 412.1 346.4 L 409.4 346.4 L 409.4 343.7 M 409.4 334.5 L 412.1 334.5 L 412.1 337.2 L 409.4 337.2 L 409.4 334.5 " fill="#000000"/>
<path class="atom-16" d="M 415.1 344.7 L 419.3 344.7 L 419.3 330.5 L 414.7 331.9 L 414.1 330.4 L 419.9 327.8 L 421.8 328.1 L 421.8 344.7 L 425.5 344.7 L 425.5 346.8 L 415.1 346.8 L 415.1 344.7 " fill="#000000"/>
<path class="atom-16" d="M 436.6 330.0 L 426.7 330.0 L 426.7 327.9 L 439.3 327.9 L 439.3 329.8 L 431.6 346.8 L 429.0 346.8 L 436.6 330.0 " fill="#000000"/>
<path class="atom-17" d="M 336.7 102.4 L 339.3 102.4 L 339.3 110.5 L 349.0 110.5 L 349.0 102.4 L 351.6 102.4 L 351.6 121.4 L 349.0 121.4 L 349.0 112.6 L 339.3 112.6 L 339.3 121.4 L 336.7 121.4 L 336.7 102.4 " fill="#000000"/>
<path class="atom-17" d="M 353.9 118.3 L 356.6 118.3 L 356.6 121.0 L 353.9 121.0 L 353.9 118.3 M 353.9 109.1 L 356.6 109.1 L 356.6 111.7 L 353.9 111.7 L 353.9 109.1 " fill="#000000"/>
<path class="atom-17" d="M 359.6 119.3 L 363.8 119.3 L 363.8 105.1 L 359.2 106.5 L 358.6 104.9 L 364.4 102.3 L 366.3 102.6 L 366.3 119.3 L 370.0 119.3 L 370.0 121.4 L 359.6 121.4 L 359.6 119.3 " fill="#000000"/>
<path class="atom-17" d="M 380.8 111.4 Q 382.6 112.1, 383.6 113.2 Q 384.6 114.3, 384.6 116.2 Q 384.6 117.8, 383.7 119.1 Q 382.9 120.3, 381.4 121.0 Q 379.9 121.7, 378.0 121.7 Q 374.8 121.7, 373.0 120.2 Q 371.1 118.8, 371.1 116.2 Q 371.1 114.7, 372.0 113.5 Q 372.8 112.3, 374.4 111.4 Q 373.2 110.7, 372.5 109.7 Q 371.8 108.7, 371.8 107.1 Q 371.8 104.8, 373.5 103.5 Q 375.1 102.2, 377.9 102.2 Q 380.6 102.2, 382.2 103.5 Q 383.9 104.8, 383.9 107.1 Q 383.9 108.5, 383.1 109.5 Q 382.3 110.5, 380.8 111.4 M 377.9 104.2 Q 376.3 104.2, 375.4 105.0 Q 374.5 105.7, 374.5 107.1 Q 374.5 108.1, 375.1 108.7 Q 375.7 109.4, 376.5 109.8 Q 377.4 110.1, 379.0 110.7 Q 380.2 109.9, 380.7 109.0 Q 381.2 108.2, 381.2 107.1 Q 381.2 105.7, 380.3 105.0 Q 379.4 104.2, 377.9 104.2 M 378.0 119.7 Q 379.7 119.7, 380.8 118.7 Q 381.9 117.8, 381.9 116.2 Q 381.9 115.2, 381.3 114.5 Q 380.7 113.9, 379.9 113.5 Q 379.1 113.1, 377.6 112.6 L 376.4 112.2 Q 375.0 113.0, 374.4 114.0 Q 373.8 115.0, 373.8 116.2 Q 373.8 117.8, 375.0 118.7 Q 376.1 119.7, 378.0 119.7 " fill="#000000"/>
<path class="atom-18" d="M 177.9 166.1 L 180.4 166.1 L 180.4 174.2 L 190.1 174.2 L 190.1 166.1 L 192.7 166.1 L 192.7 185.1 L 190.1 185.1 L 190.1 176.3 L 180.4 176.3 L 180.4 185.1 L 177.9 185.1 L 177.9 166.1 " fill="#000000"/>
<path class="atom-18" d="M 195.0 181.9 L 197.7 181.9 L 197.7 184.6 L 195.0 184.6 L 195.0 181.9 M 195.0 172.7 L 197.7 172.7 L 197.7 175.4 L 195.0 175.4 L 195.0 172.7 " fill="#000000"/>
<path class="atom-18" d="M 200.7 182.9 L 204.9 182.9 L 204.9 168.7 L 200.3 170.2 L 199.7 168.6 L 205.5 166.0 L 207.4 166.3 L 207.4 182.9 L 211.1 182.9 L 211.1 185.1 L 200.7 185.1 L 200.7 182.9 " fill="#000000"/>
<path class="atom-18" d="M 218.7 165.9 Q 222.0 165.9, 223.7 168.2 Q 225.4 170.5, 225.4 175.0 Q 225.4 180.1, 223.3 182.7 Q 221.2 185.3, 217.2 185.3 Q 216.0 185.3, 215.0 185.0 Q 214.0 184.7, 213.0 184.2 L 214.1 182.4 Q 215.5 183.1, 217.1 183.1 Q 219.8 183.1, 221.2 181.4 Q 222.6 179.7, 222.7 176.1 Q 221.8 177.0, 220.5 177.5 Q 219.3 177.9, 218.0 177.9 Q 216.3 177.9, 215.0 177.2 Q 213.7 176.5, 213.0 175.2 Q 212.3 173.9, 212.3 172.2 Q 212.3 170.3, 213.1 168.9 Q 213.9 167.5, 215.4 166.7 Q 216.8 165.9, 218.7 165.9 M 215.0 172.2 Q 215.0 173.9, 215.9 174.8 Q 216.8 175.8, 218.5 175.8 Q 219.6 175.8, 220.8 175.3 Q 221.9 174.9, 222.7 174.0 Q 222.6 170.9, 221.6 169.5 Q 220.6 168.1, 218.6 168.1 Q 217.6 168.1, 216.7 168.6 Q 215.9 169.1, 215.4 170.1 Q 215.0 171.0, 215.0 172.2 " fill="#000000"/>
<path class="atom-19" d="M 41.3 131.8 L 43.9 131.8 L 43.9 139.9 L 53.6 139.9 L 53.6 131.8 L 56.2 131.8 L 56.2 150.8 L 53.6 150.8 L 53.6 142.1 L 43.9 142.1 L 43.9 150.8 L 41.3 150.8 L 41.3 131.8 " fill="#000000"/>
<path class="atom-19" d="M 58.5 147.7 L 61.2 147.7 L 61.2 150.4 L 58.5 150.4 L 58.5 147.7 M 58.5 138.5 L 61.2 138.5 L 61.2 141.2 L 58.5 141.2 L 58.5 138.5 " fill="#000000"/>
<path class="atom-19" d="M 63.2 135.4 Q 63.9 133.6, 65.6 132.7 Q 67.3 131.6, 69.6 131.6 Q 72.4 131.6, 74.0 133.2 Q 75.6 134.7, 75.6 137.5 Q 75.6 140.3, 73.6 142.9 Q 71.5 145.6, 67.2 148.7 L 76.0 148.7 L 76.0 150.8 L 63.2 150.8 L 63.2 149.0 Q 66.7 146.5, 68.8 144.6 Q 70.9 142.8, 71.9 141.1 Q 73.0 139.4, 73.0 137.6 Q 73.0 135.8, 72.1 134.8 Q 71.1 133.8, 69.6 133.8 Q 68.0 133.8, 67.0 134.4 Q 66.0 135.0, 65.3 136.4 L 63.2 135.4 " fill="#000000"/>
<path class="atom-19" d="M 84.5 151.0 Q 81.0 151.0, 79.3 148.5 Q 77.6 145.9, 77.6 141.3 Q 77.6 136.7, 79.3 134.2 Q 81.0 131.6, 84.5 131.6 Q 88.0 131.6, 89.7 134.2 Q 91.5 136.7, 91.5 141.3 Q 91.5 145.9, 89.7 148.5 Q 88.0 151.0, 84.5 151.0 M 84.5 148.9 Q 86.6 148.9, 87.7 147.0 Q 88.8 145.1, 88.8 141.3 Q 88.8 137.6, 87.7 135.7 Q 86.6 133.8, 84.5 133.8 Q 82.5 133.8, 81.4 135.7 Q 80.3 137.6, 80.3 141.3 Q 80.3 145.1, 81.4 147.0 Q 82.5 148.9, 84.5 148.9 " fill="#000000"/>
<path class="atom-20" d="M 429.6 199.1 L 432.2 199.1 L 432.2 207.2 L 441.9 207.2 L 441.9 199.1 L 444.5 199.1 L 444.5 218.1 L 441.9 218.1 L 441.9 209.4 L 432.2 209.4 L 432.2 218.1 L 429.6 218.1 L 429.6 199.1 " fill="#000000"/>
<path class="atom-20" d="M 446.7 215.0 L 449.4 215.0 L 449.4 217.7 L 446.7 217.7 L 446.7 215.0 M 446.7 205.8 L 449.4 205.8 L 449.4 208.4 L 446.7 208.4 L 446.7 205.8 " fill="#000000"/>
<path class="atom-20" d="M 451.5 202.7 Q 452.2 200.9, 453.8 199.9 Q 455.5 198.9, 457.8 198.9 Q 460.7 198.9, 462.3 200.5 Q 463.9 202.0, 463.9 204.8 Q 463.9 207.6, 461.8 210.2 Q 459.7 212.9, 455.4 216.0 L 464.2 216.0 L 464.2 218.1 L 451.4 218.1 L 451.4 216.3 Q 455.0 213.8, 457.1 211.9 Q 459.2 210.1, 460.2 208.4 Q 461.2 206.7, 461.2 204.9 Q 461.2 203.1, 460.3 202.1 Q 459.4 201.1, 457.8 201.1 Q 456.3 201.1, 455.3 201.7 Q 454.2 202.3, 453.5 203.7 L 451.5 202.7 " fill="#000000"/>
<path class="atom-20" d="M 466.9 216.0 L 471.0 216.0 L 471.0 201.8 L 466.4 203.2 L 465.8 201.6 L 471.6 199.0 L 473.5 199.4 L 473.5 216.0 L 477.3 216.0 L 477.3 218.1 L 466.9 218.1 L 466.9 216.0 " fill="#000000"/>
<path class="atom-21" d="M 160.1 86.1 L 162.7 86.1 L 162.7 94.2 L 172.4 94.2 L 172.4 86.1 L 175.0 86.1 L 175.0 105.1 L 172.4 105.1 L 172.4 96.3 L 162.7 96.3 L 162.7 105.1 L 160.1 105.1 L 160.1 86.1 " fill="#000000"/>
<path class="atom-21" d="M 177.3 102.0 L 180.0 102.0 L 180.0 104.7 L 177.3 104.7 L 177.3 102.0 M 177.3 92.8 L 180.0 92.8 L 180.0 95.4 L 177.3 95.4 L 177.3 92.8 " fill="#000000"/>
<path class="atom-21" d="M 182.0 89.7 Q 182.7 87.9, 184.4 86.9 Q 186.0 85.9, 188.3 85.9 Q 191.2 85.9, 192.8 87.5 Q 194.4 89.0, 194.4 91.8 Q 194.4 94.6, 192.3 97.2 Q 190.3 99.9, 186.0 103.0 L 194.8 103.0 L 194.8 105.1 L 182.0 105.1 L 182.0 103.3 Q 185.5 100.8, 187.6 98.9 Q 189.7 97.0, 190.7 95.4 Q 191.8 93.7, 191.8 91.9 Q 191.8 90.1, 190.8 89.1 Q 189.9 88.1, 188.3 88.1 Q 186.8 88.1, 185.8 88.7 Q 184.8 89.3, 184.1 90.7 L 182.0 89.7 " fill="#000000"/>
<path class="atom-21" d="M 196.4 89.7 Q 197.1 87.9, 198.8 86.9 Q 200.4 85.9, 202.7 85.9 Q 205.6 85.9, 207.2 87.5 Q 208.8 89.0, 208.8 91.8 Q 208.8 94.6, 206.7 97.2 Q 204.7 99.9, 200.4 103.0 L 209.2 103.0 L 209.2 105.1 L 196.4 105.1 L 196.4 103.3 Q 199.9 100.8, 202.0 98.9 Q 204.1 97.0, 205.1 95.4 Q 206.2 93.7, 206.2 91.9 Q 206.2 90.1, 205.2 89.1 Q 204.3 88.1, 202.7 88.1 Q 201.2 88.1, 200.2 88.7 Q 199.2 89.3, 198.5 90.7 L 196.4 89.7 " fill="#000000"/>
<text x="209.20780926200268" y="264.6231339914847" font-size="12" font-family="Verdana" font-weight="bold" letter-spacing="0" text-anchor="start" fill="black" transform=" rotate(76.167575 209.207809 264.623134)">0.0427</text><text x="25" y="490" font-size="12" font-family="Verdana" font-weight="bold" letter-spacing="0" text-anchor="start" fill="black">[#6:1](-[#7:2](-[#6:3]1:[#6:4](:[#6:9](:[#6:8](:[#6:7](:[#6:6]:1-[H:10])-[H:17])-[H:21])-[H:18])-[H:11])-[#6:5](-[H:14])(-[H:15])-[H:16])(-[#6:12](-[H:19])(-[H:20])-[H:22])=[#8:13]</text></svg>
