<?xml version='1.0' encoding='ASCII' standalone='yes'?>
<svg xmlns="http://www.w3.org/2000/svg" xmlns:rdkit="http://www.rdkit.org/xml" xmlns:xlink="http://www.w3.org/1999/xlink" version="1.1" baseProfile="full" xml:space="preserve" width="500px" height="500px" viewBox="0 0 500 500">
<!-- END OF HEADER -->
<rect style="opacity:1.0;fill:#FFFFFF;stroke:none" width="500" height="500" x="0" y="0"> </rect>
<path d="M 353.741,268.29 L 291.317,292.155" style="fill:none;fill-rule:evenodd;stroke:#FF7F7F;stroke-width:14.3px;stroke-linecap:butt;stroke-linejoin:miter;stroke-opacity:1"/>
<path class="bond-1 atom-1 atom-0" d="M 362.193,283.762 L 376.825,295.644" style="fill:none;fill-rule:evenodd;stroke:#000000;stroke-width:2.0px;stroke-linecap:butt;stroke-linejoin:miter;stroke-opacity:1"/>
<path class="bond-1 atom-1 atom-0" d="M 376.825,295.644 L 391.458,307.526" style="fill:none;fill-rule:evenodd;stroke:#FF0000;stroke-width:2.0px;stroke-linecap:butt;stroke-linejoin:miter;stroke-opacity:1"/>
<path class="bond-1 atom-1 atom-0" d="M 370.619,273.386 L 385.251,285.268" style="fill:none;fill-rule:evenodd;stroke:#000000;stroke-width:2.0px;stroke-linecap:butt;stroke-linejoin:miter;stroke-opacity:1"/>
<path class="bond-1 atom-1 atom-0" d="M 385.251,285.268 L 399.884,297.15" style="fill:none;fill-rule:evenodd;stroke:#FF0000;stroke-width:2.0px;stroke-linecap:butt;stroke-linejoin:miter;stroke-opacity:1"/>
<path class="bond-0 atom-1 atom-10" d="M 355.537,257.049 L 362.535,213.252" style="fill:none;fill-rule:evenodd;stroke:#000000;stroke-width:2.0px;stroke-linecap:butt;stroke-linejoin:miter;stroke-opacity:1"/>
<path class="bond-3 atom-2 atom-1" d="M 303.95,287.325 L 316.995,282.338" style="fill:none;fill-rule:evenodd;stroke:#0000FF;stroke-width:2.0px;stroke-linecap:butt;stroke-linejoin:miter;stroke-opacity:1"/>
<path class="bond-3 atom-2 atom-1" d="M 316.995,282.338 L 330.04,277.351" style="fill:none;fill-rule:evenodd;stroke:#000000;stroke-width:2.0px;stroke-linecap:butt;stroke-linejoin:miter;stroke-opacity:1"/>
<path class="bond-2 atom-2 atom-4" d="M 277.737,281.128 L 264.68,270.526" style="fill:none;fill-rule:evenodd;stroke:#0000FF;stroke-width:2.0px;stroke-linecap:butt;stroke-linejoin:miter;stroke-opacity:1"/>
<path class="bond-2 atom-2 atom-4" d="M 264.68,270.526 L 251.623,259.923" style="fill:none;fill-rule:evenodd;stroke:#000000;stroke-width:2.0px;stroke-linecap:butt;stroke-linejoin:miter;stroke-opacity:1"/>
<path class="bond-4 atom-2 atom-3" d="M 289.478,303.664 L 285.983,325.539" style="fill:none;fill-rule:evenodd;stroke:#0000FF;stroke-width:2.0px;stroke-linecap:butt;stroke-linejoin:miter;stroke-opacity:1"/>
<path class="bond-4 atom-2 atom-3" d="M 285.983,325.539 L 282.488,347.414" style="fill:none;fill-rule:evenodd;stroke:#000000;stroke-width:2.0px;stroke-linecap:butt;stroke-linejoin:miter;stroke-opacity:1"/>
<path class="bond-5 atom-3 atom-11" d="M 294.141,360.285 L 338.029,367.298" style="fill:none;fill-rule:evenodd;stroke:#000000;stroke-width:2.0px;stroke-linecap:butt;stroke-linejoin:miter;stroke-opacity:1"/>
<path class="bond-6 atom-3 atom-12" d="M 256.154,354.216 L 222.188,348.789" style="fill:none;fill-rule:evenodd;stroke:#000000;stroke-width:2.0px;stroke-linecap:butt;stroke-linejoin:miter;stroke-opacity:1"/>
<path class="bond-7 atom-3 atom-13" d="M 278.976,369.391 L 271.953,413.348" style="fill:none;fill-rule:evenodd;stroke:#000000;stroke-width:2.0px;stroke-linecap:butt;stroke-linejoin:miter;stroke-opacity:1"/>
<path class="bond-15 atom-8 atom-4" d="M 189.983,268.933 L 215.757,259.079" style="fill:none;fill-rule:evenodd;stroke:#000000;stroke-width:2.0px;stroke-linecap:butt;stroke-linejoin:miter;stroke-opacity:1"/>
<path class="bond-15 atom-8 atom-4" d="M 189.076,254.97 L 207.118,248.072" style="fill:none;fill-rule:evenodd;stroke:#000000;stroke-width:2.0px;stroke-linecap:butt;stroke-linejoin:miter;stroke-opacity:1"/>
<path class="bond-17 atom-9 atom-4" d="M 248.146,195.514 L 241.151,239.29" style="fill:none;fill-rule:evenodd;stroke:#000000;stroke-width:2.0px;stroke-linecap:butt;stroke-linejoin:miter;stroke-opacity:1"/>
<path class="bond-8 atom-5 atom-6" d="M 133.844,177.224 L 126.846,221.027" style="fill:none;fill-rule:evenodd;stroke:#000000;stroke-width:2.0px;stroke-linecap:butt;stroke-linejoin:miter;stroke-opacity:1"/>
<path class="bond-8 atom-5 atom-6" d="M 145.993,185.904 L 141.095,216.565" style="fill:none;fill-rule:evenodd;stroke:#000000;stroke-width:2.0px;stroke-linecap:butt;stroke-linejoin:miter;stroke-opacity:1"/>
<path class="bond-9 atom-5 atom-7" d="M 148.878,160.722 L 174.05,151.098" style="fill:none;fill-rule:evenodd;stroke:#000000;stroke-width:2.0px;stroke-linecap:butt;stroke-linejoin:miter;stroke-opacity:1"/>
<path class="bond-10 atom-5 atom-21" d="M 121.831,154.529 L 91.3946,129.813" style="fill:none;fill-rule:evenodd;stroke:#000000;stroke-width:2.0px;stroke-linecap:butt;stroke-linejoin:miter;stroke-opacity:1"/>
<path class="bond-11 atom-6 atom-8" d="M 137.116,241.496 L 163.643,263.037" style="fill:none;fill-rule:evenodd;stroke:#000000;stroke-width:2.0px;stroke-linecap:butt;stroke-linejoin:miter;stroke-opacity:1"/>
<path class="bond-12 atom-6 atom-14" d="M 101.454,240.815 L 70.1453,252.785" style="fill:none;fill-rule:evenodd;stroke:#000000;stroke-width:2.0px;stroke-linecap:butt;stroke-linejoin:miter;stroke-opacity:1"/>
<path class="bond-13 atom-7 atom-9" d="M 211.336,152.653 L 241.437,177.096" style="fill:none;fill-rule:evenodd;stroke:#000000;stroke-width:2.0px;stroke-linecap:butt;stroke-linejoin:miter;stroke-opacity:1"/>
<path class="bond-13 atom-7 atom-9" d="M 207.426,166.695 L 228.497,183.805" style="fill:none;fill-rule:evenodd;stroke:#000000;stroke-width:2.0px;stroke-linecap:butt;stroke-linejoin:miter;stroke-opacity:1"/>
<path class="bond-14 atom-7 atom-15" d="M 199.895,130.663 L 206.893,86.8661" style="fill:none;fill-rule:evenodd;stroke:#000000;stroke-width:2.0px;stroke-linecap:butt;stroke-linejoin:miter;stroke-opacity:1"/>
<path class="bond-16 atom-8 atom-16" d="M 175.181,285.347 L 168.191,329.096" style="fill:none;fill-rule:evenodd;stroke:#000000;stroke-width:2.0px;stroke-linecap:butt;stroke-linejoin:miter;stroke-opacity:1"/>
<path class="bond-18 atom-9 atom-17" d="M 275.801,177.632 L 280.558,176.453" style="fill:none;fill-rule:evenodd;stroke:#000000;stroke-width:2.0px;stroke-linecap:butt;stroke-linejoin:miter;stroke-opacity:1"/>
<path class="bond-19 atom-10 atom-18" d="M 371.664,203.474 L 421.391,211.419" style="fill:none;fill-rule:evenodd;stroke:#000000;stroke-width:2.0px;stroke-linecap:butt;stroke-linejoin:miter;stroke-opacity:1"/>
<path class="bond-20 atom-10 atom-19" d="M 340.584,201.436 L 332.165,201.131" style="fill:none;fill-rule:evenodd;stroke:#000000;stroke-width:2.0px;stroke-linecap:butt;stroke-linejoin:miter;stroke-opacity:1"/>
<path class="bond-21 atom-20 atom-10" d="M 373.033,147.542 L 369.526,169.494" style="fill:none;fill-rule:evenodd;stroke:#0000FF;stroke-width:2.0px;stroke-linecap:butt;stroke-linejoin:miter;stroke-opacity:1"/>
<path class="bond-21 atom-20 atom-10" d="M 369.526,169.494 L 366.019,191.446" style="fill:none;fill-rule:evenodd;stroke:#000000;stroke-width:2.0px;stroke-linecap:butt;stroke-linejoin:miter;stroke-opacity:1"/>
<path class="bond-22 atom-20 atom-22" d="M 393.686,129.092 L 411.185,122.402" style="fill:none;fill-rule:evenodd;stroke:#0000FF;stroke-width:2.0px;stroke-linecap:butt;stroke-linejoin:miter;stroke-opacity:1"/>
<path class="bond-22 atom-20 atom-22" d="M 411.185,122.402 L 428.683,115.712" style="fill:none;fill-rule:evenodd;stroke:#000000;stroke-width:2.0px;stroke-linecap:butt;stroke-linejoin:miter;stroke-opacity:1"/>
<path class="bond-23 atom-20 atom-23" d="M 361.25,125.274 L 346.358,113.182" style="fill:none;fill-rule:evenodd;stroke:#0000FF;stroke-width:2.0px;stroke-linecap:butt;stroke-linejoin:miter;stroke-opacity:1"/>
<path class="bond-23 atom-20 atom-23" d="M 346.358,113.182 L 331.467,101.089" style="fill:none;fill-rule:evenodd;stroke:#000000;stroke-width:2.0px;stroke-linecap:butt;stroke-linejoin:miter;stroke-opacity:1"/>
<path class="atom-0" d="M 396.934 310.472 Q 396.934 305.927, 399.179 303.388 Q 401.425 300.848, 405.622 300.848 Q 409.819 300.848, 412.064 303.388 Q 414.31 305.927, 414.31 310.472 Q 414.31 315.07, 412.038 317.689 Q 409.765 320.282, 405.622 320.282 Q 401.452 320.282, 399.179 317.689 Q 396.934 315.096, 396.934 310.472 M 405.622 318.144 Q 408.509 318.144, 410.06 316.219 Q 411.637 314.268, 411.637 310.472 Q 411.637 306.756, 410.06 304.885 Q 408.509 302.987, 405.622 302.987 Q 402.735 302.987, 401.158 304.858 Q 399.607 306.729, 399.607 310.472 Q 399.607 314.294, 401.158 316.219 Q 402.735 318.144, 405.622 318.144 " fill="#FF0000"/>
<path class="atom-0" d="M 416.315 316.861 L 418.988 316.861 L 418.988 319.534 L 416.315 319.534 L 416.315 316.861 M 416.315 307.665 L 418.988 307.665 L 418.988 310.338 L 416.315 310.338 L 416.315 307.665 " fill="#FF0000"/>
<path class="atom-0" d="M 421.474 317.85 L 425.618 317.85 L 425.618 303.708 L 421.047 305.125 L 420.432 303.548 L 426.233 300.955 L 428.131 301.276 L 428.131 317.85 L 431.847 317.85 L 431.847 319.988 L 421.474 319.988 L 421.474 317.85 " fill="#FF0000"/>
<path class="atom-1" d="M 331.373 268.37 Q 331.373 263.665, 333.565 261.206 Q 335.784 258.719, 339.981 258.719 Q 343.884 258.719, 345.969 261.473 L 344.204 262.916 Q 342.681 260.911, 339.981 260.911 Q 337.12 260.911, 335.597 262.836 Q 334.1 264.734, 334.1 268.37 Q 334.1 272.112, 335.65 274.037 Q 337.227 275.962, 340.275 275.962 Q 342.36 275.962, 344.793 274.705 L 345.541 276.71 Q 344.552 277.352, 343.055 277.726 Q 341.558 278.1, 339.901 278.1 Q 335.784 278.1, 333.565 275.588 Q 331.373 273.075, 331.373 268.37 " fill="#000000"/>
<path class="atom-1" d="M 347.974 274.732 L 350.647 274.732 L 350.647 277.405 L 347.974 277.405 L 347.974 274.732 M 347.974 265.536 L 350.647 265.536 L 350.647 268.209 L 347.974 268.209 L 347.974 265.536 " fill="#000000"/>
<path class="atom-1" d="M 352.037 262.515 Q 352.732 260.724, 354.39 259.735 Q 356.047 258.719, 358.346 258.719 Q 361.206 258.719, 362.81 260.27 Q 364.414 261.82, 364.414 264.574 Q 364.414 267.381, 362.329 270 Q 360.271 272.62, 355.993 275.721 L 364.735 275.721 L 364.735 277.86 L 351.984 277.86 L 351.984 276.069 Q 355.512 273.556, 357.597 271.685 Q 359.709 269.813, 360.725 268.129 Q 361.741 266.445, 361.741 264.707 Q 361.741 262.89, 360.832 261.874 Q 359.923 260.858, 358.346 260.858 Q 356.822 260.858, 355.806 261.473 Q 354.791 262.088, 354.069 263.451 L 352.037 262.515 " fill="#000000"/>
<path class="atom-2" d="M 272.392 282.799 L 278.594 292.824 Q 279.209 293.813, 280.198 295.604 Q 281.187 297.395, 281.241 297.502 L 281.241 282.799 L 283.753 282.799 L 283.753 301.726 L 281.16 301.726 L 274.504 290.765 Q 273.729 289.482, 272.9 288.012 Q 272.098 286.541, 271.857 286.087 L 271.857 301.726 L 269.398 301.726 L 269.398 282.799 L 272.392 282.799 " fill="#0000FF"/>
<path class="atom-2" d="M 285.758 298.598 L 288.432 298.598 L 288.432 301.271 L 285.758 301.271 L 285.758 298.598 M 285.758 289.402 L 288.432 289.402 L 288.432 292.075 L 285.758 292.075 L 285.758 289.402 " fill="#0000FF"/>
<path class="atom-2" d="M 298.643 291.754 Q 300.488 292.289, 301.37 293.492 Q 302.279 294.668, 302.279 296.539 Q 302.279 298.143, 301.477 299.4 Q 300.675 300.63, 299.205 301.325 Q 297.735 301.993, 295.81 301.993 Q 293.778 301.993, 292.254 301.298 Q 290.757 300.576, 289.554 299.132 L 291.078 297.582 Q 292.254 298.865, 293.243 299.373 Q 294.233 299.854, 295.81 299.854 Q 297.521 299.854, 298.563 298.945 Q 299.606 298.01, 299.606 296.513 Q 299.606 294.588, 298.51 293.733 Q 297.44 292.85, 295.115 292.85 L 293.751 292.85 L 293.751 290.926 L 294.954 290.926 Q 297.013 290.899, 298.109 290.017 Q 299.205 289.108, 299.205 287.424 Q 299.205 286.194, 298.296 285.472 Q 297.387 284.724, 295.837 284.724 Q 294.259 284.724, 293.27 285.285 Q 292.308 285.846, 291.559 287.263 L 289.715 286.274 Q 290.383 284.697, 291.987 283.654 Q 293.591 282.585, 295.837 282.585 Q 298.617 282.585, 300.247 283.895 Q 301.878 285.205, 301.878 287.424 Q 301.878 288.947, 301.049 290.043 Q 300.221 291.139, 298.643 291.754 " fill="#0000FF"/>
<path class="atom-3" d="M 257.825 358.23 Q 257.825 353.525, 260.017 351.065 Q 262.236 348.579, 266.433 348.579 Q 270.336 348.579, 272.421 351.333 L 270.656 352.776 Q 269.133 350.771, 266.433 350.771 Q 263.572 350.771, 262.049 352.696 Q 260.552 354.594, 260.552 358.23 Q 260.552 361.972, 262.102 363.897 Q 263.679 365.822, 266.727 365.822 Q 268.812 365.822, 271.245 364.565 L 271.993 366.57 Q 271.004 367.212, 269.507 367.586 Q 268.01 367.96, 266.352 367.96 Q 262.236 367.96, 260.017 365.448 Q 257.825 362.935, 257.825 358.23 " fill="#000000"/>
<path class="atom-3" d="M 274.426 364.592 L 277.099 364.592 L 277.099 367.265 L 274.426 367.265 L 274.426 364.592 M 274.426 355.396 L 277.099 355.396 L 277.099 358.069 L 274.426 358.069 L 274.426 355.396 " fill="#000000"/>
<path class="atom-3" d="M 290.198 361.224 L 292.47 361.224 L 292.47 363.362 L 290.198 363.362 L 290.198 367.72 L 287.685 367.72 L 287.685 363.362 L 277.901 363.362 L 277.901 361.678 L 286.188 348.793 L 290.198 348.793 L 290.198 361.224 M 281.002 361.224 L 287.685 361.224 L 287.685 350.504 L 281.002 361.224 " fill="#000000"/>
<path class="atom-4" d="M 217.081 250.107 Q 217.081 245.402, 219.273 242.943 Q 221.492 240.456, 225.689 240.456 Q 229.592 240.456, 231.677 243.21 L 229.912 244.653 Q 228.389 242.649, 225.689 242.649 Q 222.828 242.649, 221.305 244.573 Q 219.808 246.471, 219.808 250.107 Q 219.808 253.849, 221.358 255.774 Q 222.935 257.699, 225.983 257.699 Q 228.068 257.699, 230.501 256.443 L 231.249 258.447 Q 230.26 259.089, 228.763 259.463 Q 227.266 259.838, 225.608 259.838 Q 221.492 259.838, 219.273 257.325 Q 217.081 254.812, 217.081 250.107 " fill="#000000"/>
<path class="atom-4" d="M 233.682 256.469 L 236.355 256.469 L 236.355 259.143 L 233.682 259.143 L 233.682 256.469 M 233.682 247.273 L 236.355 247.273 L 236.355 249.947 L 233.682 249.947 L 233.682 247.273 " fill="#000000"/>
<path class="atom-4" d="M 244.455 247.754 Q 246.112 247.754, 247.476 248.476 Q 248.839 249.171, 249.614 250.508 Q 250.39 251.818, 250.39 253.609 Q 250.39 255.56, 249.427 256.977 Q 248.492 258.367, 246.941 259.089 Q 245.391 259.811, 243.626 259.811 Q 241.889 259.811, 240.285 259.169 Q 238.681 258.528, 237.585 257.298 L 239.189 255.641 Q 240.071 256.603, 241.274 257.138 Q 242.477 257.645, 243.706 257.645 Q 245.391 257.645, 246.54 256.603 Q 247.716 255.56, 247.716 253.662 Q 247.716 251.657, 246.54 250.722 Q 245.391 249.759, 243.546 249.759 Q 241.889 249.759, 240.044 250.481 L 238.574 249.786 L 239.483 240.67 L 249.213 240.67 L 248.946 242.809 L 241.675 242.809 L 241.113 248.423 Q 242.797 247.754, 244.455 247.754 " fill="#000000"/>
<path class="atom-5" d="M 112.99 165.85 Q 112.99 161.145, 115.182 158.685 Q 117.401 156.199, 121.598 156.199 Q 125.501 156.199, 127.586 158.953 L 125.821 160.396 Q 124.298 158.391, 121.598 158.391 Q 118.737 158.391, 117.214 160.316 Q 115.717 162.214, 115.717 165.85 Q 115.717 169.592, 117.267 171.517 Q 118.844 173.442, 121.892 173.442 Q 123.977 173.442, 126.41 172.185 L 127.158 174.19 Q 126.169 174.832, 124.672 175.206 Q 123.175 175.58, 121.517 175.58 Q 117.401 175.58, 115.182 173.068 Q 112.99 170.555, 112.99 165.85 " fill="#000000"/>
<path class="atom-5" d="M 129.591 172.212 L 132.264 172.212 L 132.264 174.885 L 129.591 174.885 L 129.591 172.212 M 129.591 163.016 L 132.264 163.016 L 132.264 165.689 L 129.591 165.689 L 129.591 163.016 " fill="#000000"/>
<path class="atom-5" d="M 141.487 163.524 Q 143.144 163.524, 144.454 164.246 Q 145.764 164.968, 146.486 166.278 Q 147.207 167.587, 147.207 169.245 Q 147.207 171.089, 146.379 172.533 Q 145.577 173.95, 144.133 174.752 Q 142.69 175.554, 140.845 175.554 Q 137.477 175.554, 135.766 173.281 Q 134.082 170.982, 134.082 166.438 Q 134.082 161.412, 136.167 158.819 Q 138.279 156.199, 142.315 156.199 Q 143.492 156.199, 144.481 156.467 Q 145.497 156.734, 146.459 157.295 L 145.416 159.086 Q 144.026 158.338, 142.342 158.338 Q 139.669 158.338, 138.305 160.076 Q 136.942 161.786, 136.782 165.342 Q 137.744 164.46, 138.947 164.005 Q 140.177 163.524, 141.487 163.524 M 140.872 173.362 Q 141.888 173.362, 142.716 172.827 Q 143.572 172.292, 144.053 171.357 Q 144.534 170.421, 144.534 169.272 Q 144.534 167.587, 143.599 166.625 Q 142.663 165.663, 141.005 165.663 Q 139.856 165.663, 138.706 166.144 Q 137.584 166.598, 136.782 167.4 Q 136.889 170.528, 137.878 171.945 Q 138.867 173.362, 140.872 173.362 " fill="#000000"/>
<path class="atom-6" d="M 103.125 231.844 Q 103.125 227.139, 105.317 224.68 Q 107.536 222.194, 111.733 222.194 Q 115.636 222.194, 117.721 224.947 L 115.957 226.391 Q 114.433 224.386, 111.733 224.386 Q 108.873 224.386, 107.349 226.31 Q 105.852 228.208, 105.852 231.844 Q 105.852 235.587, 107.402 237.511 Q 108.98 239.436, 112.027 239.436 Q 114.112 239.436, 116.545 238.18 L 117.293 240.185 Q 116.304 240.826, 114.807 241.2 Q 113.31 241.575, 111.653 241.575 Q 107.536 241.575, 105.317 239.062 Q 103.125 236.549, 103.125 231.844 " fill="#000000"/>
<path class="atom-6" d="M 119.726 238.206 L 122.399 238.206 L 122.399 240.88 L 119.726 240.88 L 119.726 238.206 M 119.726 229.01 L 122.399 229.01 L 122.399 231.684 L 119.726 231.684 L 119.726 229.01 " fill="#000000"/>
<path class="atom-6" d="M 132.798 224.546 L 122.88 224.546 L 122.88 222.407 L 135.445 222.407 L 135.445 224.305 L 127.799 241.334 L 125.233 241.334 L 132.798 224.546 " fill="#000000"/>
<path class="atom-7" d="M 175.368 141.984 Q 175.368 137.279, 177.56 134.82 Q 179.779 132.334, 183.976 132.334 Q 187.879 132.334, 189.964 135.087 L 188.199 136.531 Q 186.676 134.526, 183.976 134.526 Q 181.115 134.526, 179.591 136.45 Q 178.094 138.348, 178.094 141.984 Q 178.094 145.727, 179.645 147.651 Q 181.222 149.576, 184.27 149.576 Q 186.355 149.576, 188.787 148.32 L 189.536 150.325 Q 188.547 150.966, 187.05 151.34 Q 185.553 151.715, 183.895 151.715 Q 179.779 151.715, 177.56 149.202 Q 175.368 146.689, 175.368 141.984 " fill="#000000"/>
<path class="atom-7" d="M 191.969 148.346 L 194.642 148.346 L 194.642 151.02 L 191.969 151.02 L 191.969 148.346 M 191.969 139.15 L 194.642 139.15 L 194.642 141.824 L 191.969 141.824 L 191.969 139.15 " fill="#000000"/>
<path class="atom-7" d="M 205.95 141.449 Q 207.687 142.198, 208.676 143.321 Q 209.666 144.417, 209.666 146.288 Q 209.666 147.892, 208.837 149.148 Q 208.008 150.378, 206.511 151.073 Q 205.041 151.741, 203.089 151.741 Q 199.935 151.741, 198.117 150.298 Q 196.299 148.828, 196.299 146.288 Q 196.299 144.738, 197.101 143.588 Q 197.903 142.412, 199.561 141.53 Q 198.331 140.835, 197.663 139.819 Q 196.994 138.776, 196.994 137.172 Q 196.994 134.953, 198.598 133.644 Q 200.229 132.334, 202.982 132.334 Q 205.736 132.334, 207.34 133.644 Q 208.971 134.953, 208.971 137.172 Q 208.971 138.562, 208.195 139.605 Q 207.447 140.621, 205.95 141.449 M 202.982 134.339 Q 201.405 134.339, 200.523 135.087 Q 199.668 135.836, 199.668 137.172 Q 199.668 138.161, 200.256 138.83 Q 200.844 139.471, 201.673 139.846 Q 202.528 140.22, 204.159 140.781 Q 205.308 139.979, 205.789 139.124 Q 206.297 138.268, 206.297 137.172 Q 206.297 135.836, 205.415 135.087 Q 204.56 134.339, 202.982 134.339 M 203.089 149.737 Q 204.854 149.737, 205.923 148.801 Q 206.992 147.839, 206.992 146.261 Q 206.992 145.245, 206.431 144.604 Q 205.87 143.962, 205.014 143.588 Q 204.185 143.214, 202.688 142.733 L 201.485 142.332 Q 200.149 143.134, 199.561 144.096 Q 198.973 145.032, 198.973 146.261 Q 198.973 147.839, 200.095 148.801 Q 201.218 149.737, 203.089 149.737 " fill="#000000"/>
<path class="atom-8" d="M 154.442 273.973 Q 154.442 269.268, 156.634 266.808 Q 158.853 264.322, 163.05 264.322 Q 166.953 264.322, 169.038 267.076 L 167.274 268.519 Q 165.75 266.514, 163.05 266.514 Q 160.19 266.514, 158.666 268.439 Q 157.169 270.337, 157.169 273.973 Q 157.169 277.715, 158.719 279.64 Q 160.297 281.565, 163.344 281.565 Q 165.429 281.565, 167.862 280.308 L 168.61 282.313 Q 167.621 282.955, 166.124 283.329 Q 164.627 283.703, 162.97 283.703 Q 158.853 283.703, 156.634 281.19 Q 154.442 278.678, 154.442 273.973 " fill="#000000"/>
<path class="atom-8" d="M 171.043 280.335 L 173.716 280.335 L 173.716 283.008 L 171.043 283.008 L 171.043 280.335 M 171.043 271.139 L 173.716 271.139 L 173.716 273.812 L 171.043 273.812 L 171.043 271.139 " fill="#000000"/>
<path class="atom-8" d="M 181.549 264.322 Q 184.917 264.322, 186.601 266.621 Q 188.312 268.893, 188.312 273.438 Q 188.312 278.464, 186.2 281.083 Q 184.115 283.677, 180.079 283.677 Q 178.902 283.677, 177.887 283.409 Q 176.898 283.142, 175.935 282.58 L 176.978 280.789 Q 178.368 281.538, 180.052 281.538 Q 182.725 281.538, 184.089 279.827 Q 185.452 278.089, 185.612 274.534 Q 184.65 275.416, 183.42 275.897 Q 182.217 276.352, 180.907 276.352 Q 179.25 276.352, 177.94 275.63 Q 176.63 274.908, 175.908 273.598 Q 175.187 272.288, 175.187 270.631 Q 175.187 268.787, 175.989 267.37 Q 176.817 265.926, 178.261 265.124 Q 179.704 264.322, 181.549 264.322 M 177.86 270.604 Q 177.86 272.288, 178.796 273.251 Q 179.731 274.213, 181.389 274.213 Q 182.538 274.213, 183.661 273.759 Q 184.81 273.278, 185.612 272.476 Q 185.505 269.348, 184.516 267.931 Q 183.527 266.514, 181.522 266.514 Q 180.506 266.514, 179.651 267.049 Q 178.822 267.584, 178.341 268.519 Q 177.86 269.455, 177.86 270.604 " fill="#000000"/>
<path class="atom-9" d="M 242.682 184.113 Q 242.682 179.408, 244.874 176.948 Q 247.093 174.462, 251.29 174.462 Q 255.193 174.462, 257.278 177.216 L 255.514 178.659 Q 253.99 176.654, 251.29 176.654 Q 248.429 176.654, 246.906 178.579 Q 245.409 180.477, 245.409 184.113 Q 245.409 187.855, 246.959 189.78 Q 248.536 191.705, 251.584 191.705 Q 253.669 191.705, 256.102 190.448 L 256.85 192.453 Q 255.861 193.095, 254.364 193.469 Q 252.867 193.843, 251.21 193.843 Q 247.093 193.843, 244.874 191.33 Q 242.682 188.818, 242.682 184.113 " fill="#000000"/>
<path class="atom-9" d="M 259.283 190.475 L 261.956 190.475 L 261.956 193.148 L 259.283 193.148 L 259.283 190.475 M 259.283 181.279 L 261.956 181.279 L 261.956 183.952 L 259.283 183.952 L 259.283 181.279 " fill="#000000"/>
<path class="atom-9" d="M 264.442 191.464 L 268.586 191.464 L 268.586 177.323 L 264.015 178.739 L 263.4 177.162 L 269.201 174.569 L 271.099 174.89 L 271.099 191.464 L 274.814 191.464 L 274.814 193.603 L 264.442 193.603 L 264.442 191.464 " fill="#000000"/>
<path class="atom-9" d="M 283.369 193.817 Q 279.894 193.817, 278.156 191.25 Q 276.445 188.684, 276.445 184.113 Q 276.445 179.541, 278.156 177.002 Q 279.867 174.462, 283.369 174.462 Q 286.871 174.462, 288.582 177.002 Q 290.293 179.541, 290.293 184.113 Q 290.293 188.684, 288.555 191.25 Q 286.844 193.817, 283.369 193.817 M 283.369 191.678 Q 285.427 191.678, 286.523 189.78 Q 287.619 187.855, 287.619 184.113 Q 287.619 180.397, 286.523 178.499 Q 285.427 176.601, 283.369 176.601 Q 281.337 176.601, 280.214 178.499 Q 279.118 180.397, 279.118 184.113 Q 279.118 187.855, 280.214 189.78 Q 281.337 191.678, 283.369 191.678 " fill="#000000"/>
<path class="atom-10" d="M 325.002 202.376 Q 325.002 197.671, 327.194 195.211 Q 329.413 192.725, 333.61 192.725 Q 337.513 192.725, 339.598 195.479 L 337.834 196.922 Q 336.31 194.917, 333.61 194.917 Q 330.749 194.917, 329.226 196.842 Q 327.729 198.74, 327.729 202.376 Q 327.729 206.118, 329.279 208.043 Q 330.856 209.968, 333.904 209.968 Q 335.989 209.968, 338.422 208.711 L 339.17 210.716 Q 338.181 211.358, 336.684 211.732 Q 335.187 212.106, 333.53 212.106 Q 329.413 212.106, 327.194 209.593 Q 325.002 207.08, 325.002 202.376 " fill="#000000"/>
<path class="atom-10" d="M 341.603 208.738 L 344.276 208.738 L 344.276 211.411 L 341.603 211.411 L 341.603 208.738 M 341.603 199.542 L 344.276 199.542 L 344.276 202.215 L 341.603 202.215 L 341.603 199.542 " fill="#000000"/>
<path class="atom-10" d="M 346.762 209.727 L 350.906 209.727 L 350.906 195.586 L 346.334 197.002 L 345.72 195.425 L 351.521 192.832 L 353.419 193.153 L 353.419 209.727 L 357.134 209.727 L 357.134 211.866 L 346.762 211.866 L 346.762 209.727 " fill="#000000"/>
<path class="atom-10" d="M 359.621 209.727 L 363.764 209.727 L 363.764 195.586 L 359.193 197.002 L 358.578 195.425 L 364.379 192.832 L 366.277 193.153 L 366.277 209.727 L 369.993 209.727 L 369.993 211.866 L 359.621 211.866 L 359.621 209.727 " fill="#000000"/>
<path class="atom-11" d="M 339.362 359.337 L 341.928 359.337 L 341.928 367.384 L 351.605 367.384 L 351.605 359.337 L 354.172 359.337 L 354.172 378.264 L 351.605 378.264 L 351.605 369.522 L 341.928 369.522 L 341.928 378.264 L 339.362 378.264 L 339.362 359.337 " fill="#000000"/>
<path class="atom-11" d="M 356.177 375.136 L 358.85 375.136 L 358.85 377.809 L 356.177 377.809 L 356.177 375.136 M 356.177 365.94 L 358.85 365.94 L 358.85 368.613 L 356.177 368.613 L 356.177 365.94 " fill="#000000"/>
<path class="atom-11" d="M 361.336 376.125 L 365.479 376.125 L 365.479 361.984 L 360.908 363.401 L 360.293 361.823 L 366.094 359.23 L 367.992 359.551 L 367.992 376.125 L 371.708 376.125 L 371.708 378.264 L 361.336 378.264 L 361.336 376.125 " fill="#000000"/>
<path class="atom-11" d="M 373.098 362.919 Q 373.793 361.128, 375.451 360.139 Q 377.108 359.123, 379.407 359.123 Q 382.267 359.123, 383.871 360.674 Q 385.475 362.224, 385.475 364.978 Q 385.475 367.785, 383.39 370.405 Q 381.332 373.024, 377.055 376.125 L 385.796 376.125 L 385.796 378.264 L 373.045 378.264 L 373.045 376.473 Q 376.573 373.96, 378.659 372.089 Q 380.77 370.217, 381.786 368.533 Q 382.802 366.849, 382.802 365.111 Q 382.802 363.294, 381.893 362.278 Q 380.984 361.262, 379.407 361.262 Q 377.883 361.262, 376.867 361.877 Q 375.852 362.492, 375.13 363.855 L 373.098 362.919 " fill="#000000"/>
<path class="atom-12" d="M 174.947 338.249 L 177.513 338.249 L 177.513 346.296 L 187.19 346.296 L 187.19 338.249 L 189.757 338.249 L 189.757 357.176 L 187.19 357.176 L 187.19 348.434 L 177.513 348.434 L 177.513 357.176 L 174.947 357.176 L 174.947 338.249 " fill="#000000"/>
<path class="atom-12" d="M 191.762 354.048 L 194.435 354.048 L 194.435 356.721 L 191.762 356.721 L 191.762 354.048 M 191.762 344.852 L 194.435 344.852 L 194.435 347.525 L 191.762 347.525 L 191.762 344.852 " fill="#000000"/>
<path class="atom-12" d="M 196.921 355.037 L 201.064 355.037 L 201.064 340.896 L 196.493 342.312 L 195.878 340.735 L 201.679 338.142 L 203.577 338.463 L 203.577 355.037 L 207.293 355.037 L 207.293 357.176 L 196.921 357.176 L 196.921 355.037 " fill="#000000"/>
<path class="atom-12" d="M 217.505 347.204 Q 219.349 347.739, 220.232 348.942 Q 221.141 350.118, 221.141 351.99 Q 221.141 353.594, 220.339 354.85 Q 219.537 356.08, 218.066 356.775 Q 216.596 357.443, 214.671 357.443 Q 212.64 357.443, 211.116 356.748 Q 209.619 356.026, 208.416 354.583 L 209.94 353.032 Q 211.116 354.315, 212.105 354.823 Q 213.094 355.304, 214.671 355.304 Q 216.382 355.304, 217.425 354.396 Q 218.467 353.46, 218.467 351.963 Q 218.467 350.038, 217.371 349.183 Q 216.302 348.301, 213.976 348.301 L 212.613 348.301 L 212.613 346.376 L 213.816 346.376 Q 215.874 346.349, 216.97 345.467 Q 218.066 344.558, 218.066 342.874 Q 218.066 341.644, 217.157 340.922 Q 216.248 340.174, 214.698 340.174 Q 213.121 340.174, 212.132 340.735 Q 211.169 341.297, 210.421 342.713 L 208.576 341.724 Q 209.245 340.147, 210.849 339.105 Q 212.452 338.035, 214.698 338.035 Q 217.478 338.035, 219.109 339.345 Q 220.74 340.655, 220.74 342.874 Q 220.74 344.398, 219.911 345.494 Q 219.082 346.59, 217.505 347.204 " fill="#000000"/>
<path class="atom-13" d="M 262.823 414.734 L 265.39 414.734 L 265.39 422.78 L 275.067 422.78 L 275.067 414.734 L 277.633 414.734 L 277.633 433.661 L 275.067 433.661 L 275.067 424.919 L 265.39 424.919 L 265.39 433.661 L 262.823 433.661 L 262.823 414.734 " fill="#000000"/>
<path class="atom-13" d="M 279.638 430.533 L 282.311 430.533 L 282.311 433.206 L 279.638 433.206 L 279.638 430.533 M 279.638 421.337 L 282.311 421.337 L 282.311 424.01 L 279.638 424.01 L 279.638 421.337 " fill="#000000"/>
<path class="atom-13" d="M 284.798 431.522 L 288.941 431.522 L 288.941 417.38 L 284.37 418.797 L 283.755 417.22 L 289.556 414.627 L 291.454 414.948 L 291.454 431.522 L 295.17 431.522 L 295.17 433.661 L 284.798 433.661 L 284.798 431.522 " fill="#000000"/>
<path class="atom-13" d="M 308.269 427.165 L 310.541 427.165 L 310.541 429.303 L 308.269 429.303 L 308.269 433.661 L 305.756 433.661 L 305.756 429.303 L 295.972 429.303 L 295.972 427.619 L 304.259 414.734 L 308.269 414.734 L 308.269 427.165 M 299.073 427.165 L 305.756 427.165 L 305.756 416.445 L 299.073 427.165 " fill="#000000"/>
<path class="atom-14" d="M 22.7273 246.22 L 25.2936 246.22 L 25.2936 254.266 L 34.9708 254.266 L 34.9708 246.22 L 37.5371 246.22 L 37.5371 265.146 L 34.9708 265.146 L 34.9708 256.405 L 25.2936 256.405 L 25.2936 265.146 L 22.7273 265.146 L 22.7273 246.22 " fill="#000000"/>
<path class="atom-14" d="M 39.542 262.019 L 42.2153 262.019 L 42.2153 264.692 L 39.542 264.692 L 39.542 262.019 M 39.542 252.823 L 42.2153 252.823 L 42.2153 255.496 L 39.542 255.496 L 39.542 252.823 " fill="#000000"/>
<path class="atom-14" d="M 44.7014 263.008 L 48.8449 263.008 L 48.8449 248.866 L 44.2737 250.283 L 43.6588 248.706 L 49.4598 246.113 L 51.3578 246.434 L 51.3578 263.008 L 55.0736 263.008 L 55.0736 265.146 L 44.7014 265.146 L 44.7014 263.008 " fill="#000000"/>
<path class="atom-14" d="M 63.1736 253.304 Q 64.831 253.304, 66.1943 254.026 Q 67.5577 254.721, 68.3329 256.057 Q 69.1082 257.367, 69.1082 259.158 Q 69.1082 261.11, 68.1458 262.527 Q 67.2102 263.917, 65.6597 264.638 Q 64.1092 265.36, 62.3448 265.36 Q 60.6072 265.36, 59.0033 264.719 Q 57.3993 264.077, 56.3033 262.847 L 57.9073 261.19 Q 58.7894 262.152, 59.9924 262.687 Q 61.1954 263.195, 62.425 263.195 Q 64.1092 263.195, 65.2587 262.152 Q 66.4349 261.11, 66.4349 259.212 Q 66.4349 257.207, 65.2587 256.271 Q 64.1092 255.309, 62.2647 255.309 Q 60.6072 255.309, 58.7627 256.031 L 57.2924 255.335 L 58.2013 246.22 L 67.9319 246.22 L 67.6646 248.358 L 60.3934 248.358 L 59.832 253.972 Q 61.5161 253.304, 63.1736 253.304 " fill="#000000"/>
<path class="atom-15" d="M 201.238 66.5533 L 203.805 66.5533 L 203.805 74.5998 L 213.482 74.5998 L 213.482 66.5533 L 216.048 66.5533 L 216.048 85.4799 L 213.482 85.4799 L 213.482 76.7384 L 203.805 76.7384 L 203.805 85.4799 L 201.238 85.4799 L 201.238 66.5533 " fill="#000000"/>
<path class="atom-15" d="M 218.053 82.3522 L 220.726 82.3522 L 220.726 85.0255 L 218.053 85.0255 L 218.053 82.3522 M 218.053 73.1562 L 220.726 73.1562 L 220.726 75.8295 L 218.053 75.8295 L 218.053 73.1562 " fill="#000000"/>
<path class="atom-15" d="M 223.213 83.3413 L 227.356 83.3413 L 227.356 69.1998 L 222.785 70.6166 L 222.17 69.0394 L 227.971 66.4464 L 229.869 66.7671 L 229.869 83.3413 L 233.585 83.3413 L 233.585 85.4799 L 223.213 85.4799 L 223.213 83.3413 " fill="#000000"/>
<path class="atom-15" d="M 242.808 73.6641 Q 244.465 73.6641, 245.775 74.3859 Q 247.085 75.1077, 247.807 76.4176 Q 248.528 77.7275, 248.528 79.3849 Q 248.528 81.2294, 247.7 82.673 Q 246.898 84.0898, 245.454 84.8918 Q 244.01 85.6938, 242.166 85.6938 Q 238.798 85.6938, 237.087 83.4215 Q 235.403 81.1225, 235.403 76.578 Q 235.403 71.5523, 237.488 68.9592 Q 239.6 66.3394, 243.636 66.3394 Q 244.812 66.3394, 245.802 66.6068 Q 246.817 66.8741, 247.78 67.4355 L 246.737 69.2265 Q 245.347 68.478, 243.663 68.478 Q 240.99 68.478, 239.626 70.2156 Q 238.263 71.9265, 238.103 75.4819 Q 239.065 74.5998, 240.268 74.1453 Q 241.498 73.6641, 242.808 73.6641 M 242.193 83.5017 Q 243.209 83.5017, 244.037 82.967 Q 244.893 82.4324, 245.374 81.4968 Q 245.855 80.5611, 245.855 79.4116 Q 245.855 77.7275, 244.919 76.7651 Q 243.984 75.8027, 242.326 75.8027 Q 241.177 75.8027, 240.027 76.2839 Q 238.905 76.7384, 238.103 77.5403 Q 238.21 80.6681, 239.199 82.0849 Q 240.188 83.5017, 242.193 83.5017 " fill="#000000"/>
<path class="atom-16" d="M 159.062 330.477 L 161.628 330.477 L 161.628 338.523 L 171.306 338.523 L 171.306 330.477 L 173.872 330.477 L 173.872 349.403 L 171.306 349.403 L 171.306 340.662 L 161.628 340.662 L 161.628 349.403 L 159.062 349.403 L 159.062 330.477 " fill="#000000"/>
<path class="atom-16" d="M 175.877 346.276 L 178.55 346.276 L 178.55 348.949 L 175.877 348.949 L 175.877 346.276 M 175.877 337.08 L 178.55 337.08 L 178.55 339.753 L 175.877 339.753 L 175.877 337.08 " fill="#000000"/>
<path class="atom-16" d="M 181.036 347.265 L 185.18 347.265 L 185.18 333.123 L 180.609 334.54 L 179.994 332.963 L 185.795 330.37 L 187.693 330.691 L 187.693 347.265 L 191.408 347.265 L 191.408 349.403 L 181.036 349.403 L 181.036 347.265 " fill="#000000"/>
<path class="atom-16" d="M 201.807 332.615 L 191.89 332.615 L 191.89 330.477 L 204.454 330.477 L 204.454 332.375 L 196.808 349.403 L 194.242 349.403 L 201.807 332.615 " fill="#000000"/>
<path class="atom-17" d="M 280.879 165.182 L 283.445 165.182 L 283.445 173.228 L 293.123 173.228 L 293.123 165.182 L 295.689 165.182 L 295.689 184.109 L 293.123 184.109 L 293.123 175.367 L 283.445 175.367 L 283.445 184.109 L 280.879 184.109 L 280.879 165.182 " fill="#000000"/>
<path class="atom-17" d="M 297.694 180.981 L 300.367 180.981 L 300.367 183.654 L 297.694 183.654 L 297.694 180.981 M 297.694 171.785 L 300.367 171.785 L 300.367 174.458 L 297.694 174.458 L 297.694 171.785 " fill="#000000"/>
<path class="atom-17" d="M 302.853 181.97 L 306.997 181.97 L 306.997 167.829 L 302.426 169.245 L 301.811 167.668 L 307.612 165.075 L 309.51 165.396 L 309.51 181.97 L 313.225 181.97 L 313.225 184.109 L 302.853 184.109 L 302.853 181.97 " fill="#000000"/>
<path class="atom-17" d="M 324.533 174.084 Q 326.271 174.832, 327.26 175.955 Q 328.249 177.051, 328.249 178.922 Q 328.249 180.526, 327.42 181.783 Q 326.592 183.013, 325.095 183.708 Q 323.624 184.376, 321.673 184.376 Q 318.519 184.376, 316.701 182.932 Q 314.883 181.462, 314.883 178.922 Q 314.883 177.372, 315.685 176.223 Q 316.487 175.046, 318.144 174.164 Q 316.915 173.469, 316.246 172.453 Q 315.578 171.411, 315.578 169.807 Q 315.578 167.588, 317.182 166.278 Q 318.813 164.968, 321.566 164.968 Q 324.319 164.968, 325.923 166.278 Q 327.554 167.588, 327.554 169.807 Q 327.554 171.197, 326.779 172.239 Q 326.03 173.255, 324.533 174.084 M 321.566 166.973 Q 319.989 166.973, 319.107 167.722 Q 318.251 168.47, 318.251 169.807 Q 318.251 170.796, 318.839 171.464 Q 319.427 172.106, 320.256 172.48 Q 321.112 172.854, 322.742 173.416 Q 323.892 172.614, 324.373 171.758 Q 324.881 170.903, 324.881 169.807 Q 324.881 168.47, 323.999 167.722 Q 323.143 166.973, 321.566 166.973 M 321.673 182.371 Q 323.437 182.371, 324.507 181.435 Q 325.576 180.473, 325.576 178.896 Q 325.576 177.88, 325.015 177.238 Q 324.453 176.597, 323.598 176.223 Q 322.769 175.848, 321.272 175.367 L 320.069 174.966 Q 318.732 175.768, 318.144 176.73 Q 317.556 177.666, 317.556 178.896 Q 317.556 180.473, 318.679 181.435 Q 319.802 182.371, 321.673 182.371 " fill="#000000"/>
<path class="atom-18" d="M 422.875 203.483 L 425.441 203.483 L 425.441 211.53 L 435.118 211.53 L 435.118 203.483 L 437.684 203.483 L 437.684 222.41 L 435.118 222.41 L 435.118 213.668 L 425.441 213.668 L 425.441 222.41 L 422.875 222.41 L 422.875 203.483 " fill="#000000"/>
<path class="atom-18" d="M 439.689 219.282 L 442.363 219.282 L 442.363 221.955 L 439.689 221.955 L 439.689 219.282 M 439.689 210.086 L 442.363 210.086 L 442.363 212.759 L 439.689 212.759 L 439.689 210.086 " fill="#000000"/>
<path class="atom-18" d="M 444.849 220.271 L 448.992 220.271 L 448.992 206.13 L 444.421 207.546 L 443.806 205.969 L 449.607 203.376 L 451.505 203.697 L 451.505 220.271 L 455.221 220.271 L 455.221 222.41 L 444.849 222.41 L 444.849 220.271 " fill="#000000"/>
<path class="atom-18" d="M 463.054 203.269 Q 466.422 203.269, 468.106 205.568 Q 469.817 207.84, 469.817 212.385 Q 469.817 217.411, 467.705 220.03 Q 465.62 222.624, 461.583 222.624 Q 460.407 222.624, 459.391 222.356 Q 458.402 222.089, 457.44 221.528 L 458.482 219.736 Q 459.872 220.485, 461.557 220.485 Q 464.23 220.485, 465.593 218.774 Q 466.957 217.036, 467.117 213.481 Q 466.155 214.363, 464.925 214.844 Q 463.722 215.299, 462.412 215.299 Q 460.755 215.299, 459.445 214.577 Q 458.135 213.855, 457.413 212.545 Q 456.691 211.236, 456.691 209.578 Q 456.691 207.734, 457.493 206.317 Q 458.322 204.873, 459.766 204.071 Q 461.209 203.269, 463.054 203.269 M 459.365 209.551 Q 459.365 211.236, 460.3 212.198 Q 461.236 213.16, 462.893 213.16 Q 464.043 213.16, 465.166 212.706 Q 466.315 212.225, 467.117 211.423 Q 467.01 208.295, 466.021 206.878 Q 465.032 205.461, 463.027 205.461 Q 462.011 205.461, 461.156 205.996 Q 460.327 206.531, 459.846 207.466 Q 459.365 208.402, 459.365 209.551 " fill="#000000"/>
<path class="atom-19" d="M 282.718 191.509 L 285.284 191.509 L 285.284 199.556 L 294.961 199.556 L 294.961 191.509 L 297.527 191.509 L 297.527 210.436 L 294.961 210.436 L 294.961 201.694 L 285.284 201.694 L 285.284 210.436 L 282.718 210.436 L 282.718 191.509 " fill="#000000"/>
<path class="atom-19" d="M 299.532 207.308 L 302.206 207.308 L 302.206 209.982 L 299.532 209.982 L 299.532 207.308 M 299.532 198.112 L 302.206 198.112 L 302.206 200.786 L 299.532 200.786 L 299.532 198.112 " fill="#000000"/>
<path class="atom-19" d="M 303.596 195.092 Q 304.291 193.3, 305.948 192.311 Q 307.606 191.296, 309.905 191.296 Q 312.765 191.296, 314.369 192.846 Q 315.973 194.397, 315.973 197.15 Q 315.973 199.957, 313.888 202.577 Q 311.829 205.196, 307.552 208.297 L 316.294 208.297 L 316.294 210.436 L 303.542 210.436 L 303.542 208.645 Q 307.071 206.132, 309.156 204.261 Q 311.268 202.39, 312.284 200.705 Q 313.3 199.021, 313.3 197.284 Q 313.3 195.466, 312.391 194.45 Q 311.482 193.434, 309.905 193.434 Q 308.381 193.434, 307.365 194.049 Q 306.349 194.664, 305.627 196.027 L 303.596 195.092 " fill="#000000"/>
<path class="atom-19" d="M 324.848 210.65 Q 321.373 210.65, 319.635 208.084 Q 317.924 205.517, 317.924 200.946 Q 317.924 196.375, 319.635 193.835 Q 321.346 191.296, 324.848 191.296 Q 328.35 191.296, 330.061 193.835 Q 331.772 196.375, 331.772 200.946 Q 331.772 205.517, 330.034 208.084 Q 328.323 210.65, 324.848 210.65 M 324.848 208.511 Q 326.906 208.511, 328.002 206.613 Q 329.099 204.689, 329.099 200.946 Q 329.099 197.23, 328.002 195.332 Q 326.906 193.434, 324.848 193.434 Q 322.816 193.434, 321.694 195.332 Q 320.598 197.23, 320.598 200.946 Q 320.598 204.689, 321.694 206.613 Q 322.816 208.511, 324.848 208.511 " fill="#000000"/>
<path class="atom-20" d="M 349.029 126.945 L 355.231 136.969 Q 355.846 137.959, 356.835 139.75 Q 357.824 141.541, 357.878 141.648 L 357.878 126.945 L 360.391 126.945 L 360.391 145.871 L 357.797 145.871 L 351.141 134.911 Q 350.366 133.628, 349.537 132.158 Q 348.735 130.687, 348.495 130.233 L 348.495 145.871 L 346.035 145.871 L 346.035 126.945 L 349.029 126.945 " fill="#0000FF"/>
<path class="atom-20" d="M 362.395 142.744 L 365.069 142.744 L 365.069 145.417 L 362.395 145.417 L 362.395 142.744 M 362.395 133.548 L 365.069 133.548 L 365.069 136.221 L 362.395 136.221 L 362.395 133.548 " fill="#0000FF"/>
<path class="atom-20" d="M 366.459 130.527 Q 367.154 128.736, 368.811 127.747 Q 370.469 126.731, 372.768 126.731 Q 375.628 126.731, 377.232 128.281 Q 378.836 129.832, 378.836 132.585 Q 378.836 135.392, 376.751 138.012 Q 374.692 140.632, 370.415 143.733 L 379.157 143.733 L 379.157 145.871 L 366.405 145.871 L 366.405 144.08 Q 369.934 141.567, 372.019 139.696 Q 374.131 137.825, 375.147 136.141 Q 376.163 134.457, 376.163 132.719 Q 376.163 130.901, 375.254 129.885 Q 374.345 128.869, 372.768 128.869 Q 371.244 128.869, 370.228 129.484 Q 369.212 130.099, 368.49 131.463 L 366.459 130.527 " fill="#0000FF"/>
<path class="atom-20" d="M 381.643 143.733 L 385.786 143.733 L 385.786 129.591 L 381.215 131.008 L 380.6 129.431 L 386.401 126.838 L 388.299 127.159 L 388.299 143.733 L 392.015 143.733 L 392.015 145.871 L 381.643 145.871 L 381.643 143.733 " fill="#0000FF"/>
<path class="atom-21" d="M 42.5055 114.285 L 45.0719 114.285 L 45.0719 122.331 L 54.749 122.331 L 54.749 114.285 L 57.3154 114.285 L 57.3154 133.211 L 54.749 133.211 L 54.749 124.47 L 45.0719 124.47 L 45.0719 133.211 L 42.5055 133.211 L 42.5055 114.285 " fill="#000000"/>
<path class="atom-21" d="M 59.3203 130.084 L 61.9935 130.084 L 61.9935 132.757 L 59.3203 132.757 L 59.3203 130.084 M 59.3203 120.888 L 61.9935 120.888 L 61.9935 123.561 L 59.3203 123.561 L 59.3203 120.888 " fill="#000000"/>
<path class="atom-21" d="M 63.3836 117.867 Q 64.0787 116.076, 65.7361 115.087 Q 67.3935 114.071, 69.6925 114.071 Q 72.5529 114.071, 74.1568 115.621 Q 75.7608 117.172, 75.7608 119.925 Q 75.7608 122.732, 73.6756 125.352 Q 71.6172 127.972, 67.34 131.073 L 76.0816 131.073 L 76.0816 133.211 L 63.3302 133.211 L 63.3302 131.42 Q 66.8589 128.907, 68.944 127.036 Q 71.0559 125.165, 72.0717 123.481 Q 73.0875 121.796, 73.0875 120.059 Q 73.0875 118.241, 72.1786 117.225 Q 71.2697 116.209, 69.6925 116.209 Q 68.1688 116.209, 67.1529 116.824 Q 66.1371 117.439, 65.4153 118.802 L 63.3836 117.867 " fill="#000000"/>
<path class="atom-21" d="M 77.4717 117.867 Q 78.1667 116.076, 79.8241 115.087 Q 81.4815 114.071, 83.7805 114.071 Q 86.6409 114.071, 88.2449 115.621 Q 89.8488 117.172, 89.8488 119.925 Q 89.8488 122.732, 87.7637 125.352 Q 85.7053 127.972, 81.4281 131.073 L 90.1696 131.073 L 90.1696 133.211 L 77.4182 133.211 L 77.4182 131.42 Q 80.9469 128.907, 83.032 127.036 Q 85.1439 125.165, 86.1597 123.481 Q 87.1756 121.796, 87.1756 120.059 Q 87.1756 118.241, 86.2667 117.225 Q 85.3578 116.209, 83.7805 116.209 Q 82.2568 116.209, 81.2409 116.824 Q 80.2251 117.439, 79.5033 118.802 L 77.4717 117.867 " fill="#000000"/>
<path class="atom-22" d="M 429.849 103.079 L 432.416 103.079 L 432.416 111.126 L 442.093 111.126 L 442.093 103.079 L 444.659 103.079 L 444.659 122.006 L 442.093 122.006 L 442.093 113.264 L 432.416 113.264 L 432.416 122.006 L 429.849 122.006 L 429.849 103.079 " fill="#000000"/>
<path class="atom-22" d="M 446.664 118.878 L 449.337 118.878 L 449.337 121.551 L 446.664 121.551 L 446.664 118.878 M 446.664 109.682 L 449.337 109.682 L 449.337 112.355 L 446.664 112.355 L 446.664 109.682 " fill="#000000"/>
<path class="atom-22" d="M 450.727 106.661 Q 451.422 104.87, 453.08 103.881 Q 454.737 102.865, 457.036 102.865 Q 459.897 102.865, 461.501 104.416 Q 463.104 105.966, 463.104 108.72 Q 463.104 111.527, 461.019 114.146 Q 458.961 116.766, 454.684 119.867 L 463.425 119.867 L 463.425 122.006 L 450.674 122.006 L 450.674 120.215 Q 454.203 117.702, 456.288 115.83 Q 458.4 113.959, 459.415 112.275 Q 460.431 110.591, 460.431 108.853 Q 460.431 107.035, 459.522 106.02 Q 458.613 105.004, 457.036 105.004 Q 455.512 105.004, 454.497 105.619 Q 453.481 106.233, 452.759 107.597 L 450.727 106.661 " fill="#000000"/>
<path class="atom-22" d="M 473.637 112.034 Q 475.482 112.569, 476.364 113.772 Q 477.273 114.948, 477.273 116.82 Q 477.273 118.424, 476.471 119.68 Q 475.669 120.91, 474.198 121.605 Q 472.728 122.273, 470.803 122.273 Q 468.772 122.273, 467.248 121.578 Q 465.751 120.856, 464.548 119.413 L 466.072 117.862 Q 467.248 119.145, 468.237 119.653 Q 469.226 120.134, 470.803 120.134 Q 472.514 120.134, 473.557 119.225 Q 474.599 118.29, 474.599 116.793 Q 474.599 114.868, 473.503 114.013 Q 472.434 113.13, 470.108 113.13 L 468.745 113.13 L 468.745 111.206 L 469.948 111.206 Q 472.006 111.179, 473.102 110.297 Q 474.198 109.388, 474.198 107.704 Q 474.198 106.474, 473.29 105.752 Q 472.381 105.004, 470.83 105.004 Q 469.253 105.004, 468.264 105.565 Q 467.302 106.127, 466.553 107.543 L 464.708 106.554 Q 465.377 104.977, 466.981 103.935 Q 468.585 102.865, 470.83 102.865 Q 473.61 102.865, 475.241 104.175 Q 476.872 105.485, 476.872 107.704 Q 476.872 109.228, 476.043 110.324 Q 475.214 111.42, 473.637 112.034 " fill="#000000"/>
<path class="atom-23" d="M 281.286 84.8162 L 283.852 84.8162 L 283.852 92.8627 L 293.53 92.8627 L 293.53 84.8162 L 296.096 84.8162 L 296.096 103.743 L 293.53 103.743 L 293.53 95.0013 L 283.852 95.0013 L 283.852 103.743 L 281.286 103.743 L 281.286 84.8162 " fill="#000000"/>
<path class="atom-23" d="M 298.101 100.615 L 300.774 100.615 L 300.774 103.288 L 298.101 103.288 L 298.101 100.615 M 298.101 91.4191 L 300.774 91.4191 L 300.774 94.0924 L 298.101 94.0924 L 298.101 91.4191 " fill="#000000"/>
<path class="atom-23" d="M 302.164 88.3983 Q 302.859 86.6073, 304.517 85.6181 Q 306.174 84.6023, 308.473 84.6023 Q 311.333 84.6023, 312.937 86.1528 Q 314.541 87.7033, 314.541 90.4567 Q 314.541 93.2636, 312.456 95.8834 Q 310.398 98.5032, 306.121 101.604 L 314.862 101.604 L 314.862 103.743 L 302.111 103.743 L 302.111 101.952 Q 305.639 99.4389, 307.725 97.5676 Q 309.836 95.6963, 310.852 94.0122 Q 311.868 92.328, 311.868 90.5904 Q 311.868 88.7726, 310.959 87.7568 Q 310.05 86.7409, 308.473 86.7409 Q 306.949 86.7409, 305.934 87.3558 Q 304.918 87.9706, 304.196 89.334 L 302.164 88.3983 " fill="#000000"/>
<path class="atom-23" d="M 327.961 97.2468 L 330.233 97.2468 L 330.233 99.3854 L 327.961 99.3854 L 327.961 103.743 L 325.448 103.743 L 325.448 99.3854 L 315.664 99.3854 L 315.664 97.7012 L 323.951 84.8162 L 327.961 84.8162 L 327.961 97.2468 M 318.765 97.2468 L 325.448 97.2468 L 325.448 86.5271 L 318.765 97.2468 " fill="#000000"/>
<text x="322.52889242921435" y="280.22245937715684" font-size="12" font-family="Verdana" font-weight="bold" letter-spacing="0" text-anchor="start" fill="black" transform=" rotate(69.077581 322.528892 280.222459)">1.112</text><text x="25" y="490" font-size="12" font-family="Verdana" font-weight="bold" letter-spacing="0" text-anchor="start" fill="black">[#8:1]=[#6:2](-[#7:3](-[#6:4](-[H:12])(-[H:13])-[H:14])-[#6:5]1:[#6:9](:[#6:7](:[#6:6](:[#6:8](:[#6:10]:1-[H:18])-[H:16])-[H:22])-[H:15])-[H:17])-[#6:11](-[H:19])(-[H:20])-[#7:21](-[H:23])-[H:24]</text></svg>
