<?xml version='1.0' encoding='ASCII' standalone='yes'?>
<svg xmlns="http://www.w3.org/2000/svg" xmlns:rdkit="http://www.rdkit.org/xml" xmlns:xlink="http://www.w3.org/1999/xlink" version="1.1" baseProfile="full" xml:space="preserve" width="500px" height="500px" viewBox="0 0 500 500">
<!-- END OF HEADER -->
<rect style="opacity:1.0;fill:#FFFFFF;stroke:none" width="500" height="500" x="0" y="0"> </rect>
<path d="M 345.095,302.791 L 370.259,240.527" style="fill:none;fill-rule:evenodd;stroke:#FF7F7F;stroke-width:14.3px;stroke-linecap:butt;stroke-linejoin:miter;stroke-opacity:1"/>
<path class="bond-0 atom-0 atom-7" d="M 161.922,257.248 L 150.051,242.05" style="fill:none;fill-rule:evenodd;stroke:#000000;stroke-width:2.0px;stroke-linecap:butt;stroke-linejoin:miter;stroke-opacity:1"/>
<path class="bond-0 atom-0 atom-7" d="M 150.051,242.05 L 138.179,226.852" style="fill:none;fill-rule:evenodd;stroke:#FF0000;stroke-width:2.0px;stroke-linecap:butt;stroke-linejoin:miter;stroke-opacity:1"/>
<path class="bond-1 atom-0 atom-8" d="M 160.138,276.867 L 151.97,297.077" style="fill:none;fill-rule:evenodd;stroke:#000000;stroke-width:2.0px;stroke-linecap:butt;stroke-linejoin:miter;stroke-opacity:1"/>
<path class="bond-1 atom-0 atom-8" d="M 151.97,297.077 L 143.802,317.288" style="fill:none;fill-rule:evenodd;stroke:#FF0000;stroke-width:2.0px;stroke-linecap:butt;stroke-linejoin:miter;stroke-opacity:1"/>
<path class="bond-1 atom-0 atom-8" d="M 172.591,281.899 L 164.423,302.11" style="fill:none;fill-rule:evenodd;stroke:#000000;stroke-width:2.0px;stroke-linecap:butt;stroke-linejoin:miter;stroke-opacity:1"/>
<path class="bond-1 atom-0 atom-8" d="M 164.423,302.11 L 156.254,322.321" style="fill:none;fill-rule:evenodd;stroke:#FF0000;stroke-width:2.0px;stroke-linecap:butt;stroke-linejoin:miter;stroke-opacity:1"/>
<path class="bond-3 atom-1 atom-0" d="M 213.093,262.597 L 182.15,266.942" style="fill:none;fill-rule:evenodd;stroke:#000000;stroke-width:2.0px;stroke-linecap:butt;stroke-linejoin:miter;stroke-opacity:1"/>
<path class="bond-2 atom-1 atom-6" d="M 241.815,247.909 L 258.157,207.475" style="fill:none;fill-rule:evenodd;stroke:#000000;stroke-width:2.0px;stroke-linecap:butt;stroke-linejoin:miter;stroke-opacity:1"/>
<path class="bond-2 atom-1 atom-6" d="M 256.719,246.877 L 268.158,218.573" style="fill:none;fill-rule:evenodd;stroke:#000000;stroke-width:2.0px;stroke-linecap:butt;stroke-linejoin:miter;stroke-opacity:1"/>
<path class="bond-9 atom-4 atom-1" d="M 269.767,300.834 L 245.793,270.142" style="fill:none;fill-rule:evenodd;stroke:#000000;stroke-width:2.0px;stroke-linecap:butt;stroke-linejoin:miter;stroke-opacity:1"/>
<path class="bond-4 atom-2 atom-3" d="M 349.66,291.495 L 365.999,251.067" style="fill:none;fill-rule:evenodd;stroke:#000000;stroke-width:2.0px;stroke-linecap:butt;stroke-linejoin:miter;stroke-opacity:1"/>
<path class="bond-5 atom-2 atom-4" d="M 321.021,306.171 L 290.668,310.434" style="fill:none;fill-rule:evenodd;stroke:#000000;stroke-width:2.0px;stroke-linecap:butt;stroke-linejoin:miter;stroke-opacity:1"/>
<path class="bond-5 atom-2 atom-4" d="M 314.6,293.51 L 293.353,296.493" style="fill:none;fill-rule:evenodd;stroke:#000000;stroke-width:2.0px;stroke-linecap:butt;stroke-linejoin:miter;stroke-opacity:1"/>
<path class="bond-6 atom-2 atom-12" d="M 354.128,314.355 L 378.066,345.002" style="fill:none;fill-rule:evenodd;stroke:#000000;stroke-width:2.0px;stroke-linecap:butt;stroke-linejoin:miter;stroke-opacity:1"/>
<path class="bond-7 atom-3 atom-5" d="M 361.436,229.231 L 337.63,198.754" style="fill:none;fill-rule:evenodd;stroke:#000000;stroke-width:2.0px;stroke-linecap:butt;stroke-linejoin:miter;stroke-opacity:1"/>
<path class="bond-7 atom-3 atom-5" d="M 347.28,232.927 L 330.616,211.593" style="fill:none;fill-rule:evenodd;stroke:#000000;stroke-width:2.0px;stroke-linecap:butt;stroke-linejoin:miter;stroke-opacity:1"/>
<path class="bond-8 atom-3 atom-13" d="M 383.693,238.64 L 427.983,232.421" style="fill:none;fill-rule:evenodd;stroke:#000000;stroke-width:2.0px;stroke-linecap:butt;stroke-linejoin:miter;stroke-opacity:1"/>
<path class="bond-10 atom-4 atom-9" d="M 274.209,322.969 L 257.873,363.39" style="fill:none;fill-rule:evenodd;stroke:#000000;stroke-width:2.0px;stroke-linecap:butt;stroke-linejoin:miter;stroke-opacity:1"/>
<path class="bond-11 atom-5 atom-6" d="M 304.445,191.038 L 273.84,195.336" style="fill:none;fill-rule:evenodd;stroke:#000000;stroke-width:2.0px;stroke-linecap:butt;stroke-linejoin:miter;stroke-opacity:1"/>
<path class="bond-12 atom-5 atom-10" d="M 333.484,176.306 L 349.663,136.275" style="fill:none;fill-rule:evenodd;stroke:#000000;stroke-width:2.0px;stroke-linecap:butt;stroke-linejoin:miter;stroke-opacity:1"/>
<path class="bond-13 atom-6 atom-11" d="M 253.591,185.645 L 228.802,153.908" style="fill:none;fill-rule:evenodd;stroke:#000000;stroke-width:2.0px;stroke-linecap:butt;stroke-linejoin:miter;stroke-opacity:1"/>
<path class="bond-14 atom-7 atom-14" d="M 118.996,217.08 L 94.8731,220.468" style="fill:none;fill-rule:evenodd;stroke:#FF0000;stroke-width:2.0px;stroke-linecap:butt;stroke-linejoin:miter;stroke-opacity:1"/>
<path class="bond-14 atom-7 atom-14" d="M 94.8731,220.468 L 70.7504,223.855" style="fill:none;fill-rule:evenodd;stroke:#000000;stroke-width:2.0px;stroke-linecap:butt;stroke-linejoin:miter;stroke-opacity:1"/>
<path class="atom-0" d="M 148.792 268.624 Q 148.792 263.897, 150.994 261.425 Q 153.224 258.927, 157.442 258.927 Q 161.363 258.927, 163.459 261.694 L 161.686 263.144 Q 160.155 261.13, 157.442 261.13 Q 154.567 261.13, 153.036 263.064 Q 151.532 264.971, 151.532 268.624 Q 151.532 272.385, 153.09 274.319 Q 154.675 276.253, 157.737 276.253 Q 159.832 276.253, 162.277 274.991 L 163.029 277.006 Q 162.035 277.65, 160.531 278.026 Q 159.026 278.402, 157.361 278.402 Q 153.224 278.402, 150.994 275.877 Q 148.792 273.352, 148.792 268.624 " fill="#000000"/>
<path class="atom-0" d="M 165.474 275.018 L 168.16 275.018 L 168.16 277.704 L 165.474 277.704 L 165.474 275.018 M 165.474 265.777 L 168.16 265.777 L 168.16 268.463 L 165.474 268.463 L 165.474 265.777 " fill="#000000"/>
<path class="atom-0" d="M 170.658 276.012 L 174.822 276.012 L 174.822 261.801 L 170.228 263.225 L 169.61 261.64 L 175.44 259.034 L 177.347 259.357 L 177.347 276.012 L 181.081 276.012 L 181.081 278.161 L 170.658 278.161 L 170.658 276.012 " fill="#000000"/>
<path class="atom-1" d="M 214.772 259.285 Q 214.772 254.557, 216.975 252.086 Q 219.205 249.588, 223.422 249.588 Q 227.344 249.588, 229.44 252.355 L 227.667 253.805 Q 226.135 251.791, 223.422 251.791 Q 220.548 251.791, 219.017 253.725 Q 217.512 255.632, 217.512 259.285 Q 217.512 263.046, 219.07 264.98 Q 220.655 266.914, 223.718 266.914 Q 225.813 266.914, 228.258 265.652 L 229.01 267.667 Q 228.016 268.311, 226.511 268.687 Q 225.007 269.063, 223.342 269.063 Q 219.205 269.063, 216.975 266.538 Q 214.772 264.013, 214.772 259.285 " fill="#000000"/>
<path class="atom-1" d="M 231.454 265.679 L 234.141 265.679 L 234.141 268.365 L 231.454 268.365 L 231.454 265.679 M 231.454 256.438 L 234.141 256.438 L 234.141 259.124 L 231.454 259.124 L 231.454 256.438 " fill="#000000"/>
<path class="atom-1" d="M 235.537 253.402 Q 236.236 251.603, 237.901 250.609 Q 239.567 249.588, 241.877 249.588 Q 244.751 249.588, 246.363 251.146 Q 247.975 252.704, 247.975 255.471 Q 247.975 258.291, 245.88 260.924 Q 243.811 263.557, 239.513 266.673 L 248.297 266.673 L 248.297 268.822 L 235.484 268.822 L 235.484 267.022 Q 239.03 264.497, 241.125 262.616 Q 243.247 260.736, 244.268 259.044 Q 245.289 257.351, 245.289 255.605 Q 245.289 253.778, 244.375 252.758 Q 243.462 251.737, 241.877 251.737 Q 240.346 251.737, 239.325 252.355 Q 238.304 252.973, 237.579 254.343 L 235.537 253.402 " fill="#000000"/>
<path class="atom-2" d="M 322.7 302.871 Q 322.7 298.144, 324.903 295.672 Q 327.132 293.174, 331.35 293.174 Q 335.272 293.174, 337.367 295.941 L 335.594 297.391 Q 334.063 295.377, 331.35 295.377 Q 328.475 295.377, 326.944 297.311 Q 325.44 299.218, 325.44 302.871 Q 325.44 306.632, 326.998 308.566 Q 328.583 310.5, 331.645 310.5 Q 333.741 310.5, 336.185 309.238 L 336.937 311.253 Q 335.943 311.897, 334.439 312.273 Q 332.935 312.649, 331.269 312.649 Q 327.132 312.649, 324.903 310.124 Q 322.7 307.599, 322.7 302.871 " fill="#000000"/>
<path class="atom-2" d="M 339.382 309.265 L 342.068 309.265 L 342.068 311.951 L 339.382 311.951 L 339.382 309.265 M 339.382 300.024 L 342.068 300.024 L 342.068 302.71 L 339.382 302.71 L 339.382 300.024 " fill="#000000"/>
<path class="atom-2" d="M 352.33 302.388 Q 354.183 302.925, 355.07 304.134 Q 355.983 305.316, 355.983 307.196 Q 355.983 308.808, 355.177 310.071 Q 354.371 311.306, 352.894 312.005 Q 351.416 312.676, 349.482 312.676 Q 347.441 312.676, 345.909 311.978 Q 344.405 311.253, 343.196 309.802 L 344.727 308.244 Q 345.909 309.533, 346.903 310.044 Q 347.897 310.527, 349.482 310.527 Q 351.201 310.527, 352.249 309.614 Q 353.297 308.674, 353.297 307.169 Q 353.297 305.235, 352.195 304.376 Q 351.121 303.489, 348.784 303.489 L 347.414 303.489 L 347.414 301.555 L 348.623 301.555 Q 350.691 301.528, 351.792 300.642 Q 352.894 299.728, 352.894 298.036 Q 352.894 296.8, 351.98 296.075 Q 351.067 295.323, 349.509 295.323 Q 347.924 295.323, 346.93 295.887 Q 345.963 296.451, 345.211 297.875 L 343.357 296.881 Q 344.029 295.296, 345.641 294.248 Q 347.253 293.174, 349.509 293.174 Q 352.303 293.174, 353.941 294.49 Q 355.58 295.806, 355.58 298.036 Q 355.58 299.567, 354.747 300.669 Q 353.915 301.77, 352.33 302.388 " fill="#000000"/>
<path class="atom-3" d="M 347.2 240.607 Q 347.2 235.879, 349.402 233.408 Q 351.632 230.91, 355.849 230.91 Q 359.771 230.91, 361.867 233.677 L 360.094 235.127 Q 358.562 233.112, 355.849 233.112 Q 352.975 233.112, 351.444 235.047 Q 349.94 236.954, 349.94 240.607 Q 349.94 244.368, 351.498 246.302 Q 353.082 248.236, 356.145 248.236 Q 358.24 248.236, 360.685 246.974 L 361.437 248.988 Q 360.443 249.633, 358.939 250.009 Q 357.434 250.385, 355.769 250.385 Q 351.632 250.385, 349.402 247.86 Q 347.2 245.335, 347.2 240.607 " fill="#000000"/>
<path class="atom-3" d="M 363.881 247.001 L 366.568 247.001 L 366.568 249.687 L 363.881 249.687 L 363.881 247.001 M 363.881 237.76 L 366.568 237.76 L 366.568 240.446 L 363.881 240.446 L 363.881 237.76 " fill="#000000"/>
<path class="atom-3" d="M 379.73 243.616 L 382.014 243.616 L 382.014 245.765 L 379.73 245.765 L 379.73 250.144 L 377.205 250.144 L 377.205 245.765 L 367.373 245.765 L 367.373 244.073 L 375.701 231.125 L 379.73 231.125 L 379.73 243.616 M 370.49 243.616 L 377.205 243.616 L 377.205 232.844 L 370.49 243.616 " fill="#000000"/>
<path class="atom-4" d="M 256.126 312.21 Q 256.126 307.483, 258.329 305.011 Q 260.558 302.513, 264.776 302.513 Q 268.698 302.513, 270.793 305.28 L 269.02 306.73 Q 267.489 304.716, 264.776 304.716 Q 261.902 304.716, 260.37 306.65 Q 258.866 308.557, 258.866 312.21 Q 258.866 315.971, 260.424 317.905 Q 262.009 319.839, 265.071 319.839 Q 267.167 319.839, 269.611 318.577 L 270.363 320.592 Q 269.369 321.236, 267.865 321.612 Q 266.361 321.989, 264.695 321.989 Q 260.558 321.989, 258.329 319.463 Q 256.126 316.938, 256.126 312.21 " fill="#000000"/>
<path class="atom-4" d="M 272.808 318.604 L 275.494 318.604 L 275.494 321.29 L 272.808 321.29 L 272.808 318.604 M 272.808 309.363 L 275.494 309.363 L 275.494 312.049 L 272.808 312.049 L 272.808 309.363 " fill="#000000"/>
<path class="atom-4" d="M 283.634 309.847 Q 285.299 309.847, 286.669 310.572 Q 288.039 311.27, 288.818 312.613 Q 289.597 313.93, 289.597 315.729 Q 289.597 317.69, 288.63 319.114 Q 287.69 320.511, 286.132 321.236 Q 284.574 321.962, 282.801 321.962 Q 281.055 321.962, 279.443 321.317 Q 277.831 320.672, 276.73 319.437 L 278.342 317.771 Q 279.228 318.738, 280.437 319.275 Q 281.646 319.786, 282.881 319.786 Q 284.574 319.786, 285.729 318.738 Q 286.911 317.69, 286.911 315.783 Q 286.911 313.768, 285.729 312.828 Q 284.574 311.861, 282.72 311.861 Q 281.055 311.861, 279.201 312.587 L 277.724 311.888 L 278.637 302.728 L 288.415 302.728 L 288.146 304.877 L 280.84 304.877 L 280.276 310.518 Q 281.968 309.847, 283.634 309.847 " fill="#000000"/>
<path class="atom-5" d="M 306.124 187.682 Q 306.124 182.954, 308.326 180.483 Q 310.556 177.985, 314.773 177.985 Q 318.695 177.985, 320.791 180.751 L 319.018 182.202 Q 317.486 180.187, 314.773 180.187 Q 311.899 180.187, 310.368 182.122 Q 308.864 184.029, 308.864 187.682 Q 308.864 191.443, 310.422 193.377 Q 312.006 195.311, 315.069 195.311 Q 317.164 195.311, 319.609 194.049 L 320.361 196.063 Q 319.367 196.708, 317.863 197.084 Q 316.358 197.46, 314.693 197.46 Q 310.556 197.46, 308.326 194.935 Q 306.124 192.41, 306.124 187.682 " fill="#000000"/>
<path class="atom-5" d="M 322.805 194.075 L 325.492 194.075 L 325.492 196.762 L 322.805 196.762 L 322.805 194.075 M 322.805 184.835 L 325.492 184.835 L 325.492 187.521 L 322.805 187.521 L 322.805 184.835 " fill="#000000"/>
<path class="atom-5" d="M 334.759 185.345 Q 336.425 185.345, 337.741 186.07 Q 339.057 186.796, 339.783 188.112 Q 340.508 189.428, 340.508 191.094 Q 340.508 192.947, 339.675 194.398 Q 338.869 195.822, 337.419 196.627 Q 335.968 197.433, 334.115 197.433 Q 330.73 197.433, 329.011 195.15 Q 327.318 192.84, 327.318 188.273 Q 327.318 183.223, 329.414 180.617 Q 331.536 177.985, 335.592 177.985 Q 336.774 177.985, 337.768 178.253 Q 338.789 178.522, 339.756 179.086 L 338.708 180.886 Q 337.311 180.134, 335.619 180.134 Q 332.933 180.134, 331.563 181.88 Q 330.193 183.599, 330.031 187.172 Q 330.999 186.285, 332.207 185.829 Q 333.443 185.345, 334.759 185.345 M 334.141 195.231 Q 335.162 195.231, 335.995 194.693 Q 336.855 194.156, 337.338 193.216 Q 337.822 192.276, 337.822 191.121 Q 337.822 189.428, 336.881 188.461 Q 335.941 187.494, 334.276 187.494 Q 333.121 187.494, 331.966 187.978 Q 330.837 188.434, 330.031 189.24 Q 330.139 192.383, 331.133 193.807 Q 332.127 195.231, 334.141 195.231 " fill="#000000"/>
<path class="atom-6" d="M 240.302 197.021 Q 240.302 192.293, 242.504 189.822 Q 244.734 187.324, 248.952 187.324 Q 252.874 187.324, 254.969 190.091 L 253.196 191.541 Q 251.665 189.526, 248.952 189.526 Q 246.077 189.526, 244.546 191.461 Q 243.042 193.368, 243.042 197.021 Q 243.042 200.782, 244.6 202.716 Q 246.185 204.65, 249.247 204.65 Q 251.342 204.65, 253.787 203.388 L 254.539 205.402 Q 253.545 206.047, 252.041 206.423 Q 250.536 206.799, 248.871 206.799 Q 244.734 206.799, 242.504 204.274 Q 240.302 201.749, 240.302 197.021 " fill="#000000"/>
<path class="atom-6" d="M 256.984 203.415 L 259.67 203.415 L 259.67 206.101 L 256.984 206.101 L 256.984 203.415 M 256.984 194.174 L 259.67 194.174 L 259.67 196.86 L 256.984 196.86 L 256.984 194.174 " fill="#000000"/>
<path class="atom-6" d="M 270.119 189.688 L 260.153 189.688 L 260.153 187.539 L 272.779 187.539 L 272.779 189.446 L 265.096 206.557 L 262.517 206.557 L 270.119 189.688 " fill="#000000"/>
<path class="atom-7" d="M 120.675 215.672 Q 120.675 211.106, 122.931 208.554 Q 125.188 206.002, 129.405 206.002 Q 133.623 206.002, 135.879 208.554 Q 138.136 211.106, 138.136 215.672 Q 138.136 220.293, 135.852 222.925 Q 133.569 225.531, 129.405 225.531 Q 125.215 225.531, 122.931 222.925 Q 120.675 220.32, 120.675 215.672 M 129.405 223.382 Q 132.306 223.382, 133.864 221.448 Q 135.449 219.487, 135.449 215.672 Q 135.449 211.938, 133.864 210.058 Q 132.306 208.151, 129.405 208.151 Q 126.504 208.151, 124.919 210.031 Q 123.361 211.912, 123.361 215.672 Q 123.361 219.514, 124.919 221.448 Q 126.504 223.382, 129.405 223.382 " fill="#FF0000"/>
<path class="atom-7" d="M 140.15 222.093 L 142.837 222.093 L 142.837 224.779 L 140.15 224.779 L 140.15 222.093 M 140.15 212.852 L 142.837 212.852 L 142.837 215.538 L 140.15 215.538 L 140.15 212.852 " fill="#FF0000"/>
<path class="atom-7" d="M 154.2 215.162 Q 155.946 215.914, 156.94 217.042 Q 157.934 218.144, 157.934 220.024 Q 157.934 221.636, 157.101 222.899 Q 156.268 224.134, 154.764 224.833 Q 153.286 225.504, 151.325 225.504 Q 148.155 225.504, 146.329 224.054 Q 144.502 222.576, 144.502 220.024 Q 144.502 218.466, 145.308 217.311 Q 146.114 216.129, 147.779 215.243 Q 146.544 214.544, 145.872 213.523 Q 145.201 212.476, 145.201 210.864 Q 145.201 208.634, 146.812 207.318 Q 148.451 206.002, 151.218 206.002 Q 153.985 206.002, 155.596 207.318 Q 157.235 208.634, 157.235 210.864 Q 157.235 212.261, 156.456 213.309 Q 155.704 214.329, 154.2 215.162 M 151.218 208.017 Q 149.633 208.017, 148.746 208.769 Q 147.887 209.521, 147.887 210.864 Q 147.887 211.858, 148.478 212.529 Q 149.069 213.174, 149.902 213.55 Q 150.761 213.926, 152.4 214.49 Q 153.555 213.685, 154.038 212.825 Q 154.549 211.965, 154.549 210.864 Q 154.549 209.521, 153.662 208.769 Q 152.803 208.017, 151.218 208.017 M 151.325 223.49 Q 153.098 223.49, 154.173 222.549 Q 155.247 221.582, 155.247 219.997 Q 155.247 218.977, 154.683 218.332 Q 154.119 217.687, 153.259 217.311 Q 152.427 216.935, 150.922 216.451 L 149.714 216.049 Q 148.37 216.854, 147.779 217.821 Q 147.188 218.762, 147.188 219.997 Q 147.188 221.582, 148.317 222.549 Q 149.445 223.49, 151.325 223.49 " fill="#FF0000"/>
<path class="atom-8" d="M 115.347 330.862 Q 115.347 326.295, 117.603 323.743 Q 119.86 321.191, 124.077 321.191 Q 128.295 321.191, 130.551 323.743 Q 132.808 326.295, 132.808 330.862 Q 132.808 335.482, 130.524 338.115 Q 128.241 340.72, 124.077 340.72 Q 119.887 340.72, 117.603 338.115 Q 115.347 335.509, 115.347 330.862 M 124.077 338.571 Q 126.978 338.571, 128.536 336.637 Q 130.121 334.676, 130.121 330.862 Q 130.121 327.128, 128.536 325.247 Q 126.978 323.34, 124.077 323.34 Q 121.176 323.34, 119.591 325.221 Q 118.033 327.101, 118.033 330.862 Q 118.033 334.703, 119.591 336.637 Q 121.176 338.571, 124.077 338.571 " fill="#FF0000"/>
<path class="atom-8" d="M 134.822 337.282 L 137.509 337.282 L 137.509 339.968 L 134.822 339.968 L 134.822 337.282 M 134.822 328.041 L 137.509 328.041 L 137.509 330.727 L 134.822 330.727 L 134.822 328.041 " fill="#FF0000"/>
<path class="atom-8" d="M 145.379 321.191 Q 148.764 321.191, 150.457 323.501 Q 152.176 325.785, 152.176 330.351 Q 152.176 335.402, 150.054 338.034 Q 147.958 340.64, 143.902 340.64 Q 142.72 340.64, 141.699 340.371 Q 140.705 340.103, 139.738 339.538 L 140.786 337.739 Q 142.183 338.491, 143.875 338.491 Q 146.561 338.491, 147.931 336.772 Q 149.301 335.025, 149.463 331.453 Q 148.496 332.339, 147.26 332.823 Q 146.051 333.279, 144.735 333.279 Q 143.069 333.279, 141.753 332.554 Q 140.437 331.829, 139.711 330.512 Q 138.986 329.196, 138.986 327.531 Q 138.986 325.677, 139.792 324.253 Q 140.625 322.803, 142.075 321.997 Q 143.526 321.191, 145.379 321.191 M 141.672 327.504 Q 141.672 329.196, 142.613 330.163 Q 143.553 331.13, 145.218 331.13 Q 146.373 331.13, 147.502 330.674 Q 148.657 330.19, 149.463 329.384 Q 149.355 326.241, 148.361 324.818 Q 147.367 323.394, 145.353 323.394 Q 144.332 323.394, 143.472 323.931 Q 142.639 324.468, 142.156 325.409 Q 141.672 326.349, 141.672 327.504 " fill="#FF0000"/>
<path class="atom-9" d="M 212.325 364.992 L 214.904 364.992 L 214.904 373.078 L 224.629 373.078 L 224.629 364.992 L 227.208 364.992 L 227.208 384.011 L 224.629 384.011 L 224.629 375.227 L 214.904 375.227 L 214.904 384.011 L 212.325 384.011 L 212.325 364.992 " fill="#000000"/>
<path class="atom-9" d="M 229.222 380.868 L 231.909 380.868 L 231.909 383.554 L 229.222 383.554 L 229.222 380.868 M 229.222 371.627 L 231.909 371.627 L 231.909 374.313 L 229.222 374.313 L 229.222 371.627 " fill="#000000"/>
<path class="atom-9" d="M 234.407 381.862 L 238.57 381.862 L 238.57 367.651 L 233.977 369.075 L 233.359 367.49 L 239.188 364.885 L 241.096 365.207 L 241.096 381.862 L 244.83 381.862 L 244.83 384.011 L 234.407 384.011 L 234.407 381.862 " fill="#000000"/>
<path class="atom-9" d="M 253.426 384.226 Q 249.933 384.226, 248.187 381.647 Q 246.468 379.068, 246.468 374.475 Q 246.468 369.881, 248.187 367.329 Q 249.907 364.777, 253.426 364.777 Q 256.945 364.777, 258.664 367.329 Q 260.383 369.881, 260.383 374.475 Q 260.383 379.068, 258.637 381.647 Q 256.918 384.226, 253.426 384.226 M 253.426 382.077 Q 255.494 382.077, 256.595 380.17 Q 257.697 378.235, 257.697 374.475 Q 257.697 370.741, 256.595 368.833 Q 255.494 366.926, 253.426 366.926 Q 251.384 366.926, 250.256 368.833 Q 249.154 370.741, 249.154 374.475 Q 249.154 378.235, 250.256 380.17 Q 251.384 382.077, 253.426 382.077 " fill="#000000"/>
<path class="atom-10" d="M 346.642 115.882 L 349.221 115.882 L 349.221 123.967 L 358.945 123.967 L 358.945 115.882 L 361.524 115.882 L 361.524 134.901 L 358.945 134.901 L 358.945 126.116 L 349.221 126.116 L 349.221 134.901 L 346.642 134.901 L 346.642 115.882 " fill="#000000"/>
<path class="atom-10" d="M 363.539 131.758 L 366.225 131.758 L 366.225 134.444 L 363.539 134.444 L 363.539 131.758 M 363.539 122.517 L 366.225 122.517 L 366.225 125.203 L 363.539 125.203 L 363.539 122.517 " fill="#000000"/>
<path class="atom-10" d="M 368.724 132.751 L 372.887 132.751 L 372.887 118.541 L 368.294 119.965 L 367.676 118.38 L 373.505 115.774 L 375.412 116.097 L 375.412 132.751 L 379.146 132.751 L 379.146 134.901 L 368.724 134.901 L 368.724 132.751 " fill="#000000"/>
<path class="atom-10" d="M 381.645 132.751 L 385.808 132.751 L 385.808 118.541 L 381.215 119.965 L 380.597 118.38 L 386.426 115.774 L 388.333 116.097 L 388.333 132.751 L 392.067 132.751 L 392.067 134.901 L 381.645 134.901 L 381.645 132.751 " fill="#000000"/>
<path class="atom-11" d="M 180.82 134.613 L 183.399 134.613 L 183.399 142.699 L 193.123 142.699 L 193.123 134.613 L 195.702 134.613 L 195.702 153.632 L 193.123 153.632 L 193.123 144.848 L 183.399 144.848 L 183.399 153.632 L 180.82 153.632 L 180.82 134.613 " fill="#000000"/>
<path class="atom-11" d="M 197.717 150.489 L 200.403 150.489 L 200.403 153.176 L 197.717 153.176 L 197.717 150.489 M 197.717 141.249 L 200.403 141.249 L 200.403 143.935 L 197.717 143.935 L 197.717 141.249 " fill="#000000"/>
<path class="atom-11" d="M 202.901 151.483 L 207.065 151.483 L 207.065 137.273 L 202.472 138.697 L 201.854 137.112 L 207.683 134.506 L 209.59 134.828 L 209.59 151.483 L 213.324 151.483 L 213.324 153.632 L 202.901 153.632 L 202.901 151.483 " fill="#000000"/>
<path class="atom-11" d="M 214.721 138.213 Q 215.42 136.413, 217.085 135.419 Q 218.751 134.399, 221.061 134.399 Q 223.935 134.399, 225.547 135.957 Q 227.159 137.515, 227.159 140.282 Q 227.159 143.102, 225.063 145.735 Q 222.995 148.367, 218.697 151.483 L 227.481 151.483 L 227.481 153.632 L 214.667 153.632 L 214.667 151.833 Q 218.213 149.307, 220.309 147.427 Q 222.431 145.547, 223.452 143.854 Q 224.472 142.162, 224.472 140.416 Q 224.472 138.589, 223.559 137.568 Q 222.646 136.548, 221.061 136.548 Q 219.53 136.548, 218.509 137.165 Q 217.488 137.783, 216.763 139.153 L 214.721 138.213 " fill="#000000"/>
<path class="atom-12" d="M 378.994 346.314 L 381.573 346.314 L 381.573 354.4 L 391.297 354.4 L 391.297 346.314 L 393.876 346.314 L 393.876 365.333 L 391.297 365.333 L 391.297 356.549 L 381.573 356.549 L 381.573 365.333 L 378.994 365.333 L 378.994 346.314 " fill="#000000"/>
<path class="atom-12" d="M 395.89 362.19 L 398.577 362.19 L 398.577 364.876 L 395.89 364.876 L 395.89 362.19 M 395.89 352.949 L 398.577 352.949 L 398.577 355.635 L 395.89 355.635 L 395.89 352.949 " fill="#000000"/>
<path class="atom-12" d="M 401.075 363.184 L 405.239 363.184 L 405.239 348.973 L 400.645 350.397 L 400.027 348.812 L 405.857 346.206 L 407.764 346.529 L 407.764 363.184 L 411.498 363.184 L 411.498 365.333 L 401.075 365.333 L 401.075 363.184 " fill="#000000"/>
<path class="atom-12" d="M 421.759 355.313 Q 423.613 355.85, 424.499 357.059 Q 425.413 358.241, 425.413 360.121 Q 425.413 361.733, 424.607 362.996 Q 423.801 364.231, 422.323 364.93 Q 420.846 365.601, 418.912 365.601 Q 416.87 365.601, 415.339 364.903 Q 413.835 364.178, 412.626 362.727 L 414.157 361.169 Q 415.339 362.458, 416.333 362.969 Q 417.327 363.452, 418.912 363.452 Q 420.631 363.452, 421.679 362.539 Q 422.726 361.599, 422.726 360.095 Q 422.726 358.16, 421.625 357.301 Q 420.551 356.414, 418.213 356.414 L 416.843 356.414 L 416.843 354.48 L 418.052 354.48 Q 420.121 354.453, 421.222 353.567 Q 422.323 352.654, 422.323 350.961 Q 422.323 349.725, 421.41 349 Q 420.497 348.248, 418.939 348.248 Q 417.354 348.248, 416.36 348.812 Q 415.393 349.376, 414.641 350.8 L 412.787 349.806 Q 413.459 348.221, 415.071 347.174 Q 416.682 346.099, 418.939 346.099 Q 421.733 346.099, 423.371 347.415 Q 425.01 348.732, 425.01 350.961 Q 425.01 352.492, 424.177 353.594 Q 423.344 354.695, 421.759 355.313 " fill="#000000"/>
<path class="atom-13" d="M 429.323 221.732 L 431.901 221.732 L 431.901 229.818 L 441.626 229.818 L 441.626 221.732 L 444.205 221.732 L 444.205 240.751 L 441.626 240.751 L 441.626 231.967 L 431.901 231.967 L 431.901 240.751 L 429.323 240.751 L 429.323 221.732 " fill="#000000"/>
<path class="atom-13" d="M 446.219 237.608 L 448.906 237.608 L 448.906 240.294 L 446.219 240.294 L 446.219 237.608 M 446.219 228.367 L 448.906 228.367 L 448.906 231.053 L 446.219 231.053 L 446.219 228.367 " fill="#000000"/>
<path class="atom-13" d="M 451.404 238.602 L 455.568 238.602 L 455.568 224.391 L 450.974 225.815 L 450.356 224.23 L 456.185 221.624 L 458.093 221.947 L 458.093 238.602 L 461.827 238.602 L 461.827 240.751 L 451.404 240.751 L 451.404 238.602 " fill="#000000"/>
<path class="atom-13" d="M 474.989 234.223 L 477.273 234.223 L 477.273 236.372 L 474.989 236.372 L 474.989 240.751 L 472.464 240.751 L 472.464 236.372 L 462.632 236.372 L 462.632 234.68 L 470.96 221.732 L 474.989 221.732 L 474.989 234.223 M 465.749 234.223 L 472.464 234.223 L 472.464 223.451 L 465.749 234.223 " fill="#000000"/>
<path class="atom-14" d="M 22.7273 215.502 L 25.3061 215.502 L 25.3061 223.588 L 35.0305 223.588 L 35.0305 215.502 L 37.6093 215.502 L 37.6093 234.521 L 35.0305 234.521 L 35.0305 225.737 L 25.3061 225.737 L 25.3061 234.521 L 22.7273 234.521 L 22.7273 215.502 " fill="#000000"/>
<path class="atom-14" d="M 39.624 231.378 L 42.3103 231.378 L 42.3103 234.064 L 39.624 234.064 L 39.624 231.378 M 39.624 222.137 L 42.3103 222.137 L 42.3103 224.823 L 39.624 224.823 L 39.624 222.137 " fill="#000000"/>
<path class="atom-14" d="M 44.8085 232.372 L 48.9723 232.372 L 48.9723 218.161 L 44.3787 219.585 L 43.7609 218 L 49.5901 215.395 L 51.4974 215.717 L 51.4974 232.372 L 55.2313 232.372 L 55.2313 234.521 L 44.8085 234.521 L 44.8085 232.372 " fill="#000000"/>
<path class="atom-14" d="M 63.3707 222.621 Q 65.0362 222.621, 66.4062 223.346 Q 67.7762 224.044, 68.5553 225.388 Q 69.3343 226.704, 69.3343 228.504 Q 69.3343 230.465, 68.3672 231.888 Q 67.427 233.285, 65.869 234.011 Q 64.3109 234.736, 62.538 234.736 Q 60.7919 234.736, 59.1801 234.091 Q 57.5684 233.446, 56.467 232.211 L 58.0788 230.545 Q 58.9652 231.512, 60.1741 232.05 Q 61.3829 232.56, 62.6186 232.56 Q 64.3109 232.56, 65.466 231.512 Q 66.648 230.465, 66.648 228.557 Q 66.648 226.543, 65.466 225.602 Q 64.3109 224.635, 62.4574 224.635 Q 60.7919 224.635, 58.9384 225.361 L 57.4609 224.662 L 58.3743 215.502 L 68.1523 215.502 L 67.8837 217.651 L 60.577 217.651 L 60.0129 223.292 Q 61.7052 222.621, 63.3707 222.621 " fill="#000000"/>
<text x="357.67680878577914" y="271.6587069904808" font-size="12" font-family="Verdana" font-weight="bold" letter-spacing="0" text-anchor="start" fill="black" transform=" rotate(22.006373 357.676809 271.658707)">0.1079</text><text x="25" y="490" font-size="12" font-family="Verdana" font-weight="bold" letter-spacing="0" text-anchor="start" fill="black">[#6:1](-[#6:2]1:[#6:5](:[#6:3](:[#6:4](:[#6:6](:[#6:7]:1-[H:12])-[H:11])-[H:14])-[H:13])-[H:10])(-[#8:8]-[H:15])=[#8:9]</text></svg>
