<?xml version='1.0' encoding='ASCII' standalone='yes'?>
<svg xmlns="http://www.w3.org/2000/svg" xmlns:rdkit="http://www.rdkit.org/xml" xmlns:xlink="http://www.w3.org/1999/xlink" version="1.1" baseProfile="full" xml:space="preserve" width="500px" height="500px" viewBox="0 0 500 500">
<!-- END OF HEADER -->
<rect style="opacity:1.0;fill:#FFFFFF;stroke:none" width="500.0" height="500.0" x="0.0" y="0.0"> </rect>
<path d="M 265.2,277.0 L 311.5,283.7" style="fill:none;fill-rule:evenodd;stroke:#FF7F7F;stroke-width:10.0px;stroke-linecap:butt;stroke-linejoin:miter;stroke-opacity:1"/>
<path class="bond-0 atom-0 atom-1" d="M 242.5,305.9 L 250.8,295.3" style="fill:none;fill-rule:evenodd;stroke:#0000FF;stroke-width:2.0px;stroke-linecap:butt;stroke-linejoin:miter;stroke-opacity:1"/>
<path class="bond-0 atom-0 atom-1" d="M 250.8,295.3 L 259.1,284.8" style="fill:none;fill-rule:evenodd;stroke:#000000;stroke-width:2.0px;stroke-linecap:butt;stroke-linejoin:miter;stroke-opacity:1"/>
<path class="bond-1 atom-0 atom-6" d="M 220.2,311.3 L 209.1,309.8" style="fill:none;fill-rule:evenodd;stroke:#0000FF;stroke-width:2.0px;stroke-linecap:butt;stroke-linejoin:miter;stroke-opacity:1"/>
<path class="bond-1 atom-0 atom-6" d="M 209.1,309.8 L 198.1,308.2" style="fill:none;fill-rule:evenodd;stroke:#000000;stroke-width:2.0px;stroke-linecap:butt;stroke-linejoin:miter;stroke-opacity:1"/>
<path class="bond-2 atom-0 atom-12" d="M 239.5,321.5 L 245.1,335.5" style="fill:none;fill-rule:evenodd;stroke:#0000FF;stroke-width:2.0px;stroke-linecap:butt;stroke-linejoin:miter;stroke-opacity:1"/>
<path class="bond-2 atom-0 atom-12" d="M 245.1,335.5 L 250.7,349.6" style="fill:none;fill-rule:evenodd;stroke:#000000;stroke-width:2.0px;stroke-linecap:butt;stroke-linejoin:miter;stroke-opacity:1"/>
<path class="bond-3 atom-1 atom-2" d="M 274.1,278.3 L 295.0,281.3" style="fill:none;fill-rule:evenodd;stroke:#000000;stroke-width:2.0px;stroke-linecap:butt;stroke-linejoin:miter;stroke-opacity:1"/>
<path class="bond-9 atom-4 atom-1" d="M 251.1,241.6 L 263.1,271.5" style="fill:none;fill-rule:evenodd;stroke:#000000;stroke-width:2.0px;stroke-linecap:butt;stroke-linejoin:miter;stroke-opacity:1"/>
<path class="bond-9 atom-4 atom-1" d="M 261.6,242.7 L 269.9,263.6" style="fill:none;fill-rule:evenodd;stroke:#000000;stroke-width:2.0px;stroke-linecap:butt;stroke-linejoin:miter;stroke-opacity:1"/>
<path class="bond-4 atom-2 atom-3" d="M 314.7,291.7 L 325.8,319.7" style="fill:none;fill-rule:evenodd;stroke:#000000;stroke-width:2.0px;stroke-linecap:butt;stroke-linejoin:miter;stroke-opacity:1"/>
<path class="bond-4 atom-2 atom-3" d="M 325.0,292.5 L 332.8,312.0" style="fill:none;fill-rule:evenodd;stroke:#000000;stroke-width:2.0px;stroke-linecap:butt;stroke-linejoin:miter;stroke-opacity:1"/>
<path class="bond-5 atom-2 atom-5" d="M 317.7,275.8 L 334.6,254.3" style="fill:none;fill-rule:evenodd;stroke:#000000;stroke-width:2.0px;stroke-linecap:butt;stroke-linejoin:miter;stroke-opacity:1"/>
<path class="bond-6 atom-3 atom-17" d="M 338.1,328.4 L 353.6,330.7" style="fill:none;fill-rule:evenodd;stroke:#000000;stroke-width:2.0px;stroke-linecap:butt;stroke-linejoin:miter;stroke-opacity:1"/>
<path class="bond-7 atom-3 atom-20" d="M 322.5,335.1 L 304.8,357.5" style="fill:none;fill-rule:evenodd;stroke:#000000;stroke-width:2.0px;stroke-linecap:butt;stroke-linejoin:miter;stroke-opacity:1"/>
<path class="bond-8 atom-4 atom-13" d="M 252.9,225.8 L 267.9,201.9" style="fill:none;fill-rule:evenodd;stroke:#000000;stroke-width:2.0px;stroke-linecap:butt;stroke-linejoin:miter;stroke-opacity:1"/>
<path class="bond-10 atom-4 atom-15" d="M 241.6,232.0 L 216.1,225.6" style="fill:none;fill-rule:evenodd;stroke:#000000;stroke-width:2.0px;stroke-linecap:butt;stroke-linejoin:miter;stroke-opacity:1"/>
<path class="bond-11 atom-5 atom-18" d="M 346.1,247.8 L 365.2,250.6" style="fill:none;fill-rule:evenodd;stroke:#000000;stroke-width:2.0px;stroke-linecap:butt;stroke-linejoin:miter;stroke-opacity:1"/>
<path class="bond-11 atom-5 atom-18" d="M 347.7,257.5 L 361.0,259.4" style="fill:none;fill-rule:evenodd;stroke:#000000;stroke-width:2.0px;stroke-linecap:butt;stroke-linejoin:miter;stroke-opacity:1"/>
<path class="bond-12 atom-5 atom-21" d="M 338.3,239.1 L 330.5,209.5" style="fill:none;fill-rule:evenodd;stroke:#000000;stroke-width:2.0px;stroke-linecap:butt;stroke-linejoin:miter;stroke-opacity:1"/>
<path class="bond-13 atom-6 atom-7" d="M 187.4,300.1 L 175.9,271.5" style="fill:none;fill-rule:evenodd;stroke:#000000;stroke-width:2.0px;stroke-linecap:butt;stroke-linejoin:miter;stroke-opacity:1"/>
<path class="bond-13 atom-6 atom-7" d="M 177.0,299.3 L 169.0,279.2" style="fill:none;fill-rule:evenodd;stroke:#000000;stroke-width:2.0px;stroke-linecap:butt;stroke-linejoin:miter;stroke-opacity:1"/>
<path class="bond-14 atom-6 atom-8" d="M 183.8,315.0 L 167.2,336.1" style="fill:none;fill-rule:evenodd;stroke:#000000;stroke-width:2.0px;stroke-linecap:butt;stroke-linejoin:miter;stroke-opacity:1"/>
<path class="bond-15 atom-7 atom-9" d="M 166.5,262.7 L 140.3,258.9" style="fill:none;fill-rule:evenodd;stroke:#000000;stroke-width:2.0px;stroke-linecap:butt;stroke-linejoin:miter;stroke-opacity:1"/>
<path class="bond-16 atom-7 atom-22" d="M 176.1,256.3 L 179.8,248.1" style="fill:none;fill-rule:evenodd;stroke:#000000;stroke-width:2.0px;stroke-linecap:butt;stroke-linejoin:miter;stroke-opacity:1"/>
<path class="bond-17 atom-8 atom-10" d="M 144.3,341.2 L 127.3,338.8" style="fill:none;fill-rule:evenodd;stroke:#000000;stroke-width:2.0px;stroke-linecap:butt;stroke-linejoin:miter;stroke-opacity:1"/>
<path class="bond-17 atom-8 atom-10" d="M 143.0,331.6 L 131.1,329.9" style="fill:none;fill-rule:evenodd;stroke:#000000;stroke-width:2.0px;stroke-linecap:butt;stroke-linejoin:miter;stroke-opacity:1"/>
<path class="bond-18 atom-8 atom-23" d="M 164.4,351.7 L 175.5,379.6" style="fill:none;fill-rule:evenodd;stroke:#000000;stroke-width:2.0px;stroke-linecap:butt;stroke-linejoin:miter;stroke-opacity:1"/>
<path class="bond-19 atom-9 atom-11" d="M 120.4,264.8 L 103.6,286.0" style="fill:none;fill-rule:evenodd;stroke:#000000;stroke-width:2.0px;stroke-linecap:butt;stroke-linejoin:miter;stroke-opacity:1"/>
<path class="bond-19 atom-9 atom-11" d="M 125.2,273.8 L 113.5,288.6" style="fill:none;fill-rule:evenodd;stroke:#000000;stroke-width:2.0px;stroke-linecap:butt;stroke-linejoin:miter;stroke-opacity:1"/>
<path class="bond-20 atom-9 atom-24" d="M 123.4,249.2 L 112.3,221.4" style="fill:none;fill-rule:evenodd;stroke:#000000;stroke-width:2.0px;stroke-linecap:butt;stroke-linejoin:miter;stroke-opacity:1"/>
<path class="bond-21 atom-10 atom-11" d="M 111.9,329.2 L 100.7,301.3" style="fill:none;fill-rule:evenodd;stroke:#000000;stroke-width:2.0px;stroke-linecap:butt;stroke-linejoin:miter;stroke-opacity:1"/>
<path class="bond-22 atom-10 atom-25" d="M 108.8,344.9 L 91.6,366.7" style="fill:none;fill-rule:evenodd;stroke:#000000;stroke-width:2.0px;stroke-linecap:butt;stroke-linejoin:miter;stroke-opacity:1"/>
<path class="bond-23 atom-11 atom-31" d="M 76.2,290.5 L 56.5,287.7" style="fill:none;fill-rule:evenodd;stroke:#000000;stroke-width:2.0px;stroke-linecap:butt;stroke-linejoin:miter;stroke-opacity:1"/>
<path class="bond-24 atom-13 atom-16" d="M 266.6,186.6 L 249.3,165.8" style="fill:none;fill-rule:evenodd;stroke:#000000;stroke-width:2.0px;stroke-linecap:butt;stroke-linejoin:miter;stroke-opacity:1"/>
<path class="bond-24 atom-13 atom-16" d="M 256.8,189.4 L 244.7,174.9" style="fill:none;fill-rule:evenodd;stroke:#000000;stroke-width:2.0px;stroke-linecap:butt;stroke-linejoin:miter;stroke-opacity:1"/>
<path class="bond-25 atom-13 atom-32" d="M 302.1,188.5 L 313.1,186.4" style="fill:none;fill-rule:evenodd;stroke:#000000;stroke-width:2.0px;stroke-linecap:butt;stroke-linejoin:miter;stroke-opacity:1"/>
<path class="bond-26 atom-14 atom-15" d="M 200.1,183.5 L 201.1,199.0" style="fill:none;fill-rule:evenodd;stroke:#0000FF;stroke-width:2.0px;stroke-linecap:butt;stroke-linejoin:miter;stroke-opacity:1"/>
<path class="bond-26 atom-14 atom-15" d="M 201.1,199.0 L 202.1,214.6" style="fill:none;fill-rule:evenodd;stroke:#000000;stroke-width:2.0px;stroke-linecap:butt;stroke-linejoin:miter;stroke-opacity:1"/>
<path class="bond-27 atom-14 atom-16" d="M 205.2,173.3 L 214.2,169.7" style="fill:none;fill-rule:evenodd;stroke:#0000FF;stroke-width:2.0px;stroke-linecap:butt;stroke-linejoin:miter;stroke-opacity:1"/>
<path class="bond-27 atom-14 atom-16" d="M 214.2,169.7 L 223.2,166.1" style="fill:none;fill-rule:evenodd;stroke:#000000;stroke-width:2.0px;stroke-linecap:butt;stroke-linejoin:miter;stroke-opacity:1"/>
<path class="bond-28 atom-14 atom-26" d="M 187.2,167.7 L 176.2,160.8" style="fill:none;fill-rule:evenodd;stroke:#0000FF;stroke-width:2.0px;stroke-linecap:butt;stroke-linejoin:miter;stroke-opacity:1"/>
<path class="bond-28 atom-14 atom-26" d="M 176.2,160.8 L 165.2,153.9" style="fill:none;fill-rule:evenodd;stroke:#000000;stroke-width:2.0px;stroke-linecap:butt;stroke-linejoin:miter;stroke-opacity:1"/>
<path class="bond-29 atom-15 atom-27" d="M 184.0,226.0 L 174.0,230.8" style="fill:none;fill-rule:evenodd;stroke:#000000;stroke-width:2.0px;stroke-linecap:butt;stroke-linejoin:miter;stroke-opacity:1"/>
<path class="bond-29 atom-15 atom-27" d="M 174.0,230.8 L 163.9,235.6" style="fill:none;fill-rule:evenodd;stroke:#FF0000;stroke-width:2.0px;stroke-linecap:butt;stroke-linejoin:miter;stroke-opacity:1"/>
<path class="bond-29 atom-15 atom-27" d="M 188.0,234.4 L 178.0,239.2" style="fill:none;fill-rule:evenodd;stroke:#000000;stroke-width:2.0px;stroke-linecap:butt;stroke-linejoin:miter;stroke-opacity:1"/>
<path class="bond-29 atom-15 atom-27" d="M 178.0,239.2 L 168.0,244.1" style="fill:none;fill-rule:evenodd;stroke:#FF0000;stroke-width:2.0px;stroke-linecap:butt;stroke-linejoin:miter;stroke-opacity:1"/>
<path class="bond-30 atom-16 atom-33" d="M 244.9,150.4 L 252.5,120.6" style="fill:none;fill-rule:evenodd;stroke:#000000;stroke-width:2.0px;stroke-linecap:butt;stroke-linejoin:miter;stroke-opacity:1"/>
<path class="bond-31 atom-17 atom-19" d="M 381.2,325.9 L 397.9,304.7" style="fill:none;fill-rule:evenodd;stroke:#000000;stroke-width:2.0px;stroke-linecap:butt;stroke-linejoin:miter;stroke-opacity:1"/>
<path class="bond-31 atom-17 atom-19" d="M 376.4,316.9 L 388.1,302.1" style="fill:none;fill-rule:evenodd;stroke:#000000;stroke-width:2.0px;stroke-linecap:butt;stroke-linejoin:miter;stroke-opacity:1"/>
<path class="bond-32 atom-17 atom-28" d="M 378.2,341.8 L 389.4,369.6" style="fill:none;fill-rule:evenodd;stroke:#000000;stroke-width:2.0px;stroke-linecap:butt;stroke-linejoin:miter;stroke-opacity:1"/>
<path class="bond-33 atom-18 atom-19" d="M 389.8,261.7 L 400.9,289.4" style="fill:none;fill-rule:evenodd;stroke:#000000;stroke-width:2.0px;stroke-linecap:butt;stroke-linejoin:miter;stroke-opacity:1"/>
<path class="bond-34 atom-18 atom-29" d="M 392.8,245.8 L 409.5,224.6" style="fill:none;fill-rule:evenodd;stroke:#000000;stroke-width:2.0px;stroke-linecap:butt;stroke-linejoin:miter;stroke-opacity:1"/>
<path class="bond-35 atom-19 atom-30" d="M 418.1,299.1 L 444.2,302.9" style="fill:none;fill-rule:evenodd;stroke:#000000;stroke-width:2.0px;stroke-linecap:butt;stroke-linejoin:miter;stroke-opacity:1"/>
<path class="atom-0" d="M 223.4 307.1 L 227.8 314.1 Q 228.2 314.8, 228.9 316.1 Q 229.6 317.3, 229.6 317.4 L 229.6 307.1 L 231.4 307.1 L 231.4 320.3 L 229.5 320.3 L 224.9 312.7 Q 224.4 311.8, 223.8 310.8 Q 223.2 309.7, 223.0 309.4 L 223.0 320.3 L 221.3 320.3 L 221.3 307.1 L 223.4 307.1 " fill="#0000FF"/>
<path class="atom-0" d="M 232.8 318.2 L 234.6 318.2 L 234.6 320.0 L 232.8 320.0 L 232.8 318.2 M 232.8 311.7 L 234.6 311.7 L 234.6 313.6 L 232.8 313.6 L 232.8 311.7 " fill="#0000FF"/>
<path class="atom-0" d="M 236.4 318.8 L 239.3 318.8 L 239.3 309.0 L 236.1 310.0 L 235.6 308.9 L 239.7 307.0 L 241.0 307.3 L 241.0 318.8 L 243.6 318.8 L 243.6 320.3 L 236.4 320.3 L 236.4 318.8 " fill="#0000FF"/>
<path class="atom-1" d="M 249.6 277.1 Q 249.6 273.8, 251.1 272.0 Q 252.7 270.3, 255.6 270.3 Q 258.4 270.3, 259.8 272.2 L 258.6 273.2 Q 257.5 271.8, 255.6 271.8 Q 253.6 271.8, 252.6 273.2 Q 251.5 274.5, 251.5 277.1 Q 251.5 279.7, 252.6 281.0 Q 253.7 282.4, 255.8 282.4 Q 257.3 282.4, 259.0 281.5 L 259.5 282.9 Q 258.8 283.3, 257.8 283.6 Q 256.7 283.9, 255.6 283.9 Q 252.7 283.9, 251.1 282.1 Q 249.6 280.3, 249.6 277.1 " fill="#000000"/>
<path class="atom-1" d="M 261.2 281.5 L 263.1 281.5 L 263.1 283.4 L 261.2 283.4 L 261.2 281.5 M 261.2 275.1 L 263.1 275.1 L 263.1 276.9 L 261.2 276.9 L 261.2 275.1 " fill="#000000"/>
<path class="atom-1" d="M 264.1 273.0 Q 264.5 271.7, 265.7 271.0 Q 266.9 270.3, 268.5 270.3 Q 270.5 270.3, 271.6 271.4 Q 272.7 272.5, 272.7 274.4 Q 272.7 276.4, 271.2 278.2 Q 269.8 280.0, 266.8 282.2 L 272.9 282.2 L 272.9 283.7 L 264.0 283.7 L 264.0 282.4 Q 266.5 280.7, 267.9 279.4 Q 269.4 278.1, 270.1 276.9 Q 270.8 275.7, 270.8 274.5 Q 270.8 273.2, 270.2 272.5 Q 269.6 271.8, 268.5 271.8 Q 267.4 271.8, 266.7 272.2 Q 266.0 272.7, 265.5 273.6 L 264.1 273.0 " fill="#000000"/>
<path class="atom-2" d="M 295.9 283.7 Q 295.9 280.5, 297.4 278.7 Q 299.0 277.0, 301.9 277.0 Q 304.6 277.0, 306.1 278.9 L 304.9 279.9 Q 303.8 278.5, 301.9 278.5 Q 299.9 278.5, 298.8 279.9 Q 297.8 281.2, 297.8 283.7 Q 297.8 286.4, 298.9 287.7 Q 300.0 289.0, 302.1 289.0 Q 303.6 289.0, 305.3 288.2 L 305.8 289.6 Q 305.1 290.0, 304.1 290.3 Q 303.0 290.5, 301.9 290.5 Q 299.0 290.5, 297.4 288.8 Q 295.9 287.0, 295.9 283.7 " fill="#000000"/>
<path class="atom-2" d="M 307.5 288.2 L 309.4 288.2 L 309.4 290.1 L 307.5 290.1 L 307.5 288.2 M 307.5 281.8 L 309.4 281.8 L 309.4 283.6 L 307.5 283.6 L 307.5 281.8 " fill="#000000"/>
<path class="atom-2" d="M 316.5 283.4 Q 317.8 283.8, 318.4 284.6 Q 319.0 285.4, 319.0 286.7 Q 319.0 287.9, 318.5 288.7 Q 317.9 289.6, 316.9 290.1 Q 315.9 290.6, 314.5 290.6 Q 313.1 290.6, 312.0 290.1 Q 311.0 289.6, 310.2 288.6 L 311.2 287.5 Q 312.0 288.4, 312.7 288.7 Q 313.4 289.1, 314.5 289.1 Q 315.7 289.1, 316.4 288.4 Q 317.2 287.8, 317.2 286.7 Q 317.2 285.4, 316.4 284.8 Q 315.7 284.2, 314.0 284.2 L 313.1 284.2 L 313.1 282.8 L 313.9 282.8 Q 315.4 282.8, 316.1 282.2 Q 316.9 281.6, 316.9 280.4 Q 316.9 279.5, 316.3 279.0 Q 315.6 278.5, 314.5 278.5 Q 313.4 278.5, 312.7 278.9 Q 312.1 279.3, 311.6 280.3 L 310.3 279.6 Q 310.7 278.5, 311.9 277.7 Q 313.0 277.0, 314.5 277.0 Q 316.5 277.0, 317.6 277.9 Q 318.8 278.8, 318.8 280.4 Q 318.8 281.4, 318.2 282.2 Q 317.6 283.0, 316.5 283.4 " fill="#000000"/>
<path class="atom-3" d="M 312.8 327.1 Q 312.8 323.8, 314.3 322.1 Q 315.8 320.4, 318.8 320.4 Q 321.5 320.4, 323.0 322.3 L 321.7 323.3 Q 320.7 321.9, 318.8 321.9 Q 316.8 321.9, 315.7 323.3 Q 314.7 324.6, 314.7 327.1 Q 314.7 329.7, 315.7 331.1 Q 316.8 332.4, 319.0 332.4 Q 320.4 332.4, 322.1 331.5 L 322.7 332.9 Q 322.0 333.4, 320.9 333.7 Q 319.9 333.9, 318.7 333.9 Q 315.8 333.9, 314.3 332.2 Q 312.8 330.4, 312.8 327.1 " fill="#000000"/>
<path class="atom-3" d="M 324.4 331.6 L 326.2 331.6 L 326.2 333.4 L 324.4 333.4 L 324.4 331.6 M 324.4 325.1 L 326.2 325.1 L 326.2 327.0 L 324.4 327.0 L 324.4 325.1 " fill="#000000"/>
<path class="atom-3" d="M 335.4 329.2 L 337.0 329.2 L 337.0 330.7 L 335.4 330.7 L 335.4 333.8 L 333.6 333.8 L 333.6 330.7 L 326.8 330.7 L 326.8 329.5 L 332.6 320.5 L 335.4 320.5 L 335.4 329.2 M 329.0 329.2 L 333.6 329.2 L 333.6 321.7 L 329.0 329.2 " fill="#000000"/>
<path class="atom-4" d="M 242.8 233.7 Q 242.8 230.4, 244.3 228.7 Q 245.9 226.9, 248.8 226.9 Q 251.6 226.9, 253.0 228.9 L 251.8 229.9 Q 250.7 228.5, 248.8 228.5 Q 246.8 228.5, 245.8 229.8 Q 244.7 231.1, 244.7 233.7 Q 244.7 236.3, 245.8 237.6 Q 246.9 239.0, 249.0 239.0 Q 250.5 239.0, 252.2 238.1 L 252.7 239.5 Q 252.0 240.0, 251.0 240.2 Q 249.9 240.5, 248.8 240.5 Q 245.9 240.5, 244.3 238.7 Q 242.8 237.0, 242.8 233.7 " fill="#000000"/>
<path class="atom-4" d="M 254.4 238.1 L 256.3 238.1 L 256.3 240.0 L 254.4 240.0 L 254.4 238.1 M 254.4 231.7 L 256.3 231.7 L 256.3 233.6 L 254.4 233.6 L 254.4 231.7 " fill="#000000"/>
<path class="atom-4" d="M 261.9 232.0 Q 263.1 232.0, 264.1 232.5 Q 265.0 233.0, 265.6 234.0 Q 266.1 234.9, 266.1 236.1 Q 266.1 237.5, 265.4 238.5 Q 264.8 239.4, 263.7 240.0 Q 262.6 240.5, 261.4 240.5 Q 260.2 240.5, 259.0 240.0 Q 257.9 239.6, 257.1 238.7 L 258.3 237.5 Q 258.9 238.2, 259.7 238.6 Q 260.6 238.9, 261.4 238.9 Q 262.6 238.9, 263.4 238.2 Q 264.2 237.5, 264.2 236.2 Q 264.2 234.8, 263.4 234.1 Q 262.6 233.4, 261.3 233.4 Q 260.2 233.4, 258.9 233.9 L 257.8 233.4 L 258.5 227.1 L 265.3 227.1 L 265.1 228.6 L 260.0 228.6 L 259.6 232.5 Q 260.8 232.0, 261.9 232.0 " fill="#000000"/>
<path class="atom-5" d="M 321.0 247.0 Q 321.0 243.8, 322.6 242.0 Q 324.1 240.3, 327.1 240.3 Q 329.8 240.3, 331.2 242.2 L 330.0 243.2 Q 329.0 241.8, 327.1 241.8 Q 325.1 241.8, 324.0 243.2 Q 323.0 244.5, 323.0 247.0 Q 323.0 249.7, 324.0 251.0 Q 325.1 252.4, 327.3 252.4 Q 328.7 252.4, 330.4 251.5 L 331.0 252.9 Q 330.3 253.3, 329.2 253.6 Q 328.2 253.8, 327.0 253.8 Q 324.1 253.8, 322.6 252.1 Q 321.0 250.3, 321.0 247.0 " fill="#000000"/>
<path class="atom-5" d="M 332.7 251.5 L 334.5 251.5 L 334.5 253.4 L 332.7 253.4 L 332.7 251.5 M 332.7 245.1 L 334.5 245.1 L 334.5 246.9 L 332.7 246.9 L 332.7 245.1 " fill="#000000"/>
<path class="atom-5" d="M 341.0 245.4 Q 342.1 245.4, 343.0 245.9 Q 344.0 246.4, 344.5 247.3 Q 345.0 248.3, 345.0 249.4 Q 345.0 250.7, 344.4 251.7 Q 343.8 252.7, 342.8 253.3 Q 341.8 253.8, 340.5 253.8 Q 338.2 253.8, 337.0 252.2 Q 335.8 250.6, 335.8 247.5 Q 335.8 243.9, 337.2 242.1 Q 338.7 240.3, 341.5 240.3 Q 342.4 240.3, 343.1 240.5 Q 343.8 240.7, 344.4 241.1 L 343.7 242.3 Q 342.7 241.8, 341.6 241.8 Q 339.7 241.8, 338.7 243.0 Q 337.8 244.2, 337.7 246.7 Q 338.3 246.1, 339.2 245.8 Q 340.1 245.4, 341.0 245.4 M 340.5 252.3 Q 341.2 252.3, 341.8 251.9 Q 342.4 251.5, 342.8 250.9 Q 343.1 250.2, 343.1 249.4 Q 343.1 248.3, 342.4 247.6 Q 341.8 246.9, 340.6 246.9 Q 339.8 246.9, 339.0 247.3 Q 338.2 247.6, 337.7 248.1 Q 337.8 250.3, 338.4 251.3 Q 339.1 252.3, 340.5 252.3 " fill="#000000"/>
<path class="atom-6" d="M 174.7 307.1 Q 174.7 303.8, 176.3 302.1 Q 177.8 300.3, 180.7 300.3 Q 183.5 300.3, 184.9 302.2 L 183.7 303.2 Q 182.6 301.8, 180.7 301.8 Q 178.7 301.8, 177.7 303.2 Q 176.6 304.5, 176.6 307.1 Q 176.6 309.7, 177.7 311.0 Q 178.8 312.4, 180.9 312.4 Q 182.4 312.4, 184.1 311.5 L 184.6 312.9 Q 183.9 313.3, 182.9 313.6 Q 181.8 313.9, 180.7 313.9 Q 177.8 313.9, 176.3 312.1 Q 174.7 310.3, 174.7 307.1 " fill="#000000"/>
<path class="atom-6" d="M 186.3 311.5 L 188.2 311.5 L 188.2 313.4 L 186.3 313.4 L 186.3 311.5 M 186.3 305.1 L 188.2 305.1 L 188.2 306.9 L 186.3 306.9 L 186.3 305.1 " fill="#000000"/>
<path class="atom-6" d="M 195.5 302.0 L 188.5 302.0 L 188.5 300.5 L 197.3 300.5 L 197.3 301.8 L 192.0 313.7 L 190.2 313.7 L 195.5 302.0 " fill="#000000"/>
<path class="atom-7" d="M 167.7 263.7 Q 167.7 260.4, 169.2 258.7 Q 170.8 256.9, 173.7 256.9 Q 176.4 256.9, 177.9 258.9 L 176.6 259.9 Q 175.6 258.5, 173.7 258.5 Q 171.7 258.5, 170.6 259.8 Q 169.6 261.1, 169.6 263.7 Q 169.6 266.3, 170.7 267.6 Q 171.8 269.0, 173.9 269.0 Q 175.4 269.0, 177.1 268.1 L 177.6 269.5 Q 176.9 270.0, 175.8 270.2 Q 174.8 270.5, 173.6 270.5 Q 170.8 270.5, 169.2 268.7 Q 167.7 267.0, 167.7 263.7 " fill="#000000"/>
<path class="atom-7" d="M 179.3 268.1 L 181.2 268.1 L 181.2 270.0 L 179.3 270.0 L 179.3 268.1 M 179.3 261.7 L 181.2 261.7 L 181.2 263.6 L 179.3 263.6 L 179.3 261.7 " fill="#000000"/>
<path class="atom-7" d="M 189.1 263.3 Q 190.3 263.8, 191.0 264.6 Q 191.7 265.4, 191.7 266.7 Q 191.7 267.8, 191.1 268.7 Q 190.5 269.5, 189.4 270.0 Q 188.4 270.5, 187.1 270.5 Q 184.9 270.5, 183.6 269.5 Q 182.3 268.5, 182.3 266.7 Q 182.3 265.6, 182.9 264.8 Q 183.4 264.0, 184.6 263.4 Q 183.7 262.9, 183.3 262.2 Q 182.8 261.4, 182.8 260.3 Q 182.8 258.8, 183.9 257.9 Q 185.1 256.9, 187.0 256.9 Q 188.9 256.9, 190.0 257.9 Q 191.2 258.8, 191.2 260.3 Q 191.2 261.3, 190.6 262.0 Q 190.1 262.7, 189.1 263.3 M 187.0 258.3 Q 185.9 258.3, 185.3 258.9 Q 184.7 259.4, 184.7 260.3 Q 184.7 261.0, 185.1 261.5 Q 185.5 261.9, 186.1 262.2 Q 186.7 262.4, 187.8 262.8 Q 188.6 262.3, 188.9 261.7 Q 189.3 261.1, 189.3 260.3 Q 189.3 259.4, 188.7 258.9 Q 188.1 258.3, 187.0 258.3 M 187.1 269.1 Q 188.3 269.1, 189.0 268.4 Q 189.8 267.8, 189.8 266.7 Q 189.8 266.0, 189.4 265.5 Q 189.0 265.1, 188.4 264.8 Q 187.8 264.5, 186.8 264.2 L 185.9 263.9 Q 185.0 264.5, 184.6 265.2 Q 184.2 265.8, 184.2 266.7 Q 184.2 267.8, 185.0 268.4 Q 185.7 269.1, 187.1 269.1 " fill="#000000"/>
<path class="atom-8" d="M 145.4 343.8 Q 145.4 340.5, 147.0 338.7 Q 148.5 337.0, 151.4 337.0 Q 154.2 337.0, 155.6 338.9 L 154.4 339.9 Q 153.3 338.5, 151.4 338.5 Q 149.4 338.5, 148.4 339.9 Q 147.3 341.2, 147.3 343.8 Q 147.3 346.4, 148.4 347.7 Q 149.5 349.1, 151.6 349.1 Q 153.1 349.1, 154.8 348.2 L 155.3 349.6 Q 154.6 350.0, 153.6 350.3 Q 152.5 350.6, 151.4 350.6 Q 148.5 350.6, 147.0 348.8 Q 145.4 347.0, 145.4 343.8 " fill="#000000"/>
<path class="atom-8" d="M 157.0 348.2 L 158.9 348.2 L 158.9 350.1 L 157.0 350.1 L 157.0 348.2 M 157.0 341.8 L 158.9 341.8 L 158.9 343.6 L 157.0 343.6 L 157.0 341.8 " fill="#000000"/>
<path class="atom-8" d="M 164.4 337.0 Q 166.7 337.0, 167.9 338.6 Q 169.1 340.2, 169.1 343.4 Q 169.1 346.9, 167.6 348.7 Q 166.2 350.5, 163.3 350.5 Q 162.5 350.5, 161.8 350.3 Q 161.1 350.2, 160.4 349.8 L 161.2 348.5 Q 162.2 349.0, 163.3 349.0 Q 165.2 349.0, 166.1 347.8 Q 167.1 346.6, 167.2 344.1 Q 166.5 344.8, 165.7 345.1 Q 164.8 345.4, 163.9 345.4 Q 162.8 345.4, 161.9 344.9 Q 160.9 344.4, 160.4 343.5 Q 159.9 342.6, 159.9 341.4 Q 159.9 340.1, 160.5 339.1 Q 161.1 338.1, 162.1 337.6 Q 163.1 337.0, 164.4 337.0 M 161.8 341.4 Q 161.8 342.6, 162.4 343.2 Q 163.1 343.9, 164.3 343.9 Q 165.1 343.9, 165.8 343.6 Q 166.7 343.3, 167.2 342.7 Q 167.1 340.5, 166.4 339.5 Q 165.8 338.5, 164.4 338.5 Q 163.6 338.5, 163.0 338.9 Q 162.5 339.3, 162.1 339.9 Q 161.8 340.6, 161.8 341.4 " fill="#000000"/>
<path class="atom-9" d="M 106.0 257.0 Q 106.0 253.7, 107.5 252.0 Q 109.1 250.3, 112.0 250.3 Q 114.7 250.3, 116.2 252.2 L 115.0 253.2 Q 113.9 251.8, 112.0 251.8 Q 110.0 251.8, 108.9 253.1 Q 107.9 254.5, 107.9 257.0 Q 107.9 259.6, 109.0 261.0 Q 110.1 262.3, 112.2 262.3 Q 113.7 262.3, 115.4 261.4 L 115.9 262.8 Q 115.2 263.3, 114.1 263.5 Q 113.1 263.8, 111.9 263.8 Q 109.1 263.8, 107.5 262.0 Q 106.0 260.3, 106.0 257.0 " fill="#000000"/>
<path class="atom-9" d="M 117.6 261.4 L 119.5 261.4 L 119.5 263.3 L 117.6 263.3 L 117.6 261.4 M 117.6 255.0 L 119.5 255.0 L 119.5 256.9 L 117.6 256.9 L 117.6 255.0 " fill="#000000"/>
<path class="atom-9" d="M 121.2 262.1 L 124.1 262.1 L 124.1 252.2 L 120.9 253.2 L 120.5 252.1 L 124.5 250.3 L 125.8 250.5 L 125.8 262.1 L 128.4 262.1 L 128.4 263.6 L 121.2 263.6 L 121.2 262.1 " fill="#000000"/>
<path class="atom-9" d="M 134.4 263.8 Q 132.0 263.8, 130.8 262.0 Q 129.6 260.2, 129.6 257.0 Q 129.6 253.8, 130.8 252.0 Q 132.0 250.3, 134.4 250.3 Q 136.9 250.3, 138.1 252.0 Q 139.3 253.8, 139.3 257.0 Q 139.3 260.2, 138.0 262.0 Q 136.8 263.8, 134.4 263.8 M 134.4 262.3 Q 135.9 262.3, 136.6 261.0 Q 137.4 259.6, 137.4 257.0 Q 137.4 254.4, 136.6 253.1 Q 135.9 251.7, 134.4 251.7 Q 133.0 251.7, 132.2 253.1 Q 131.4 254.4, 131.4 257.0 Q 131.4 259.6, 132.2 261.0 Q 133.0 262.3, 134.4 262.3 " fill="#000000"/>
<path class="atom-10" d="M 95.1 337.1 Q 95.1 333.8, 96.6 332.1 Q 98.2 330.3, 101.1 330.3 Q 103.8 330.3, 105.3 332.2 L 104.0 333.3 Q 103.0 331.9, 101.1 331.9 Q 99.1 331.9, 98.0 333.2 Q 97.0 334.5, 97.0 337.1 Q 97.0 339.7, 98.1 341.0 Q 99.2 342.4, 101.3 342.4 Q 102.8 342.4, 104.5 341.5 L 105.0 342.9 Q 104.3 343.3, 103.2 343.6 Q 102.2 343.9, 101.0 343.9 Q 98.2 343.9, 96.6 342.1 Q 95.1 340.4, 95.1 337.1 " fill="#000000"/>
<path class="atom-10" d="M 106.7 341.5 L 108.5 341.5 L 108.5 343.4 L 106.7 343.4 L 106.7 341.5 M 106.7 335.1 L 108.5 335.1 L 108.5 337.0 L 106.7 337.0 L 106.7 335.1 " fill="#000000"/>
<path class="atom-10" d="M 110.3 342.2 L 113.2 342.2 L 113.2 332.3 L 110.0 333.3 L 109.6 332.2 L 113.6 330.4 L 114.9 330.6 L 114.9 342.2 L 117.5 342.2 L 117.5 343.7 L 110.3 343.7 L 110.3 342.2 " fill="#000000"/>
<path class="atom-10" d="M 119.3 342.2 L 122.2 342.2 L 122.2 332.3 L 119.0 333.3 L 118.5 332.2 L 122.6 330.4 L 123.9 330.6 L 123.9 342.2 L 126.5 342.2 L 126.5 343.7 L 119.3 343.7 L 119.3 342.2 " fill="#000000"/>
<path class="atom-11" d="M 77.4 293.7 Q 77.4 290.4, 78.9 288.7 Q 80.5 286.9, 83.4 286.9 Q 86.2 286.9, 87.6 288.9 L 86.4 289.9 Q 85.3 288.5, 83.4 288.5 Q 81.4 288.5, 80.4 289.8 Q 79.3 291.1, 79.3 293.7 Q 79.3 296.3, 80.4 297.6 Q 81.5 299.0, 83.6 299.0 Q 85.1 299.0, 86.8 298.1 L 87.3 299.5 Q 86.6 300.0, 85.6 300.2 Q 84.5 300.5, 83.4 300.5 Q 80.5 300.5, 78.9 298.7 Q 77.4 297.0, 77.4 293.7 " fill="#000000"/>
<path class="atom-11" d="M 89.0 298.1 L 90.9 298.1 L 90.9 300.0 L 89.0 300.0 L 89.0 298.1 M 89.0 291.7 L 90.9 291.7 L 90.9 293.6 L 89.0 293.6 L 89.0 291.7 " fill="#000000"/>
<path class="atom-11" d="M 92.6 298.8 L 95.5 298.8 L 95.5 288.9 L 92.3 289.9 L 91.9 288.8 L 96.0 287.0 L 97.3 287.2 L 97.3 298.8 L 99.9 298.8 L 99.9 300.3 L 92.6 300.3 L 92.6 298.8 " fill="#000000"/>
<path class="atom-11" d="M 100.8 289.6 Q 101.3 288.3, 102.5 287.7 Q 103.6 286.9, 105.3 286.9 Q 107.3 286.9, 108.4 288.0 Q 109.5 289.1, 109.5 291.0 Q 109.5 293.0, 108.0 294.8 Q 106.6 296.7, 103.6 298.8 L 109.7 298.8 L 109.7 300.3 L 100.8 300.3 L 100.8 299.1 Q 103.3 297.3, 104.7 296.0 Q 106.2 294.7, 106.9 293.5 Q 107.6 292.3, 107.6 291.1 Q 107.6 289.9, 107.0 289.1 Q 106.4 288.4, 105.3 288.4 Q 104.2 288.4, 103.5 288.9 Q 102.8 289.3, 102.3 290.3 L 100.8 289.6 " fill="#000000"/>
<path class="atom-12" d="M 248.5 350.5 L 250.3 350.5 L 250.3 356.2 L 257.0 356.2 L 257.0 350.5 L 258.8 350.5 L 258.8 363.8 L 257.0 363.8 L 257.0 357.6 L 250.3 357.6 L 250.3 363.8 L 248.5 363.8 L 248.5 350.5 " fill="#000000"/>
<path class="atom-12" d="M 260.2 361.6 L 262.1 361.6 L 262.1 363.4 L 260.2 363.4 L 260.2 361.6 M 260.2 355.1 L 262.1 355.1 L 262.1 357.0 L 260.2 357.0 L 260.2 355.1 " fill="#000000"/>
<path class="atom-12" d="M 263.8 362.3 L 266.7 362.3 L 266.7 352.4 L 263.5 353.4 L 263.1 352.3 L 267.2 350.5 L 268.5 350.7 L 268.5 362.3 L 271.1 362.3 L 271.1 363.8 L 263.8 363.8 L 263.8 362.3 " fill="#000000"/>
<path class="atom-12" d="M 278.2 356.8 Q 279.5 357.2, 280.1 358.0 Q 280.8 358.8, 280.8 360.1 Q 280.8 361.3, 280.2 362.1 Q 279.7 363.0, 278.6 363.5 Q 277.6 363.9, 276.3 363.9 Q 274.8 363.9, 273.8 363.5 Q 272.7 363.0, 271.9 361.9 L 272.9 360.9 Q 273.8 361.8, 274.5 362.1 Q 275.1 362.5, 276.3 362.5 Q 277.4 362.5, 278.2 361.8 Q 278.9 361.2, 278.9 360.1 Q 278.9 358.8, 278.1 358.2 Q 277.4 357.6, 275.8 357.6 L 274.8 357.6 L 274.8 356.2 L 275.7 356.2 Q 277.1 356.2, 277.9 355.6 Q 278.6 354.9, 278.6 353.8 Q 278.6 352.9, 278.0 352.4 Q 277.4 351.9, 276.3 351.9 Q 275.2 351.9, 274.5 352.3 Q 273.8 352.7, 273.3 353.6 L 272.0 353.0 Q 272.5 351.9, 273.6 351.1 Q 274.7 350.4, 276.3 350.4 Q 278.2 350.4, 279.4 351.3 Q 280.5 352.2, 280.5 353.8 Q 280.5 354.8, 279.9 355.6 Q 279.3 356.4, 278.2 356.8 " fill="#000000"/>
<path class="atom-13" d="M 267.7 194.2 Q 267.7 190.9, 269.3 189.2 Q 270.8 187.4, 273.7 187.4 Q 276.5 187.4, 277.9 189.3 L 276.7 190.3 Q 275.6 188.9, 273.7 188.9 Q 271.7 188.9, 270.7 190.3 Q 269.6 191.6, 269.6 194.2 Q 269.6 196.8, 270.7 198.1 Q 271.8 199.5, 273.9 199.5 Q 275.4 199.5, 277.1 198.6 L 277.6 200.0 Q 276.9 200.4, 275.9 200.7 Q 274.8 201.0, 273.7 201.0 Q 270.8 201.0, 269.3 199.2 Q 267.7 197.4, 267.7 194.2 " fill="#000000"/>
<path class="atom-13" d="M 279.3 198.6 L 281.2 198.6 L 281.2 200.5 L 279.3 200.5 L 279.3 198.6 M 279.3 192.2 L 281.2 192.2 L 281.2 194.0 L 279.3 194.0 L 279.3 192.2 " fill="#000000"/>
<path class="atom-13" d="M 282.9 199.3 L 285.8 199.3 L 285.8 189.4 L 282.6 190.4 L 282.2 189.3 L 286.3 187.5 L 287.6 187.7 L 287.6 199.3 L 290.2 199.3 L 290.2 200.8 L 282.9 200.8 L 282.9 199.3 " fill="#000000"/>
<path class="atom-13" d="M 299.3 196.3 L 300.9 196.3 L 300.9 197.7 L 299.3 197.7 L 299.3 200.8 L 297.6 200.8 L 297.6 197.7 L 290.7 197.7 L 290.7 196.6 L 296.5 187.6 L 299.3 187.6 L 299.3 196.3 M 292.9 196.3 L 297.6 196.3 L 297.6 188.8 L 292.9 196.3 " fill="#000000"/>
<path class="atom-14" d="M 174.0 168.9 L 178.4 176.0 Q 178.8 176.6, 179.5 177.9 Q 180.2 179.2, 180.2 179.2 L 180.2 168.9 L 182.0 168.9 L 182.0 182.2 L 180.2 182.2 L 175.5 174.5 Q 175.0 173.6, 174.4 172.6 Q 173.8 171.6, 173.7 171.2 L 173.7 182.2 L 171.9 182.2 L 171.9 168.9 L 174.0 168.9 " fill="#0000FF"/>
<path class="atom-14" d="M 183.4 180.0 L 185.2 180.0 L 185.2 181.9 L 183.4 181.9 L 183.4 180.0 M 183.4 173.6 L 185.2 173.6 L 185.2 175.4 L 183.4 175.4 L 183.4 173.6 " fill="#0000FF"/>
<path class="atom-14" d="M 187.0 180.7 L 189.9 180.7 L 189.9 170.8 L 186.7 171.8 L 186.3 170.7 L 190.3 168.9 L 191.6 169.1 L 191.6 180.7 L 194.2 180.7 L 194.2 182.2 L 187.0 182.2 L 187.0 180.7 " fill="#0000FF"/>
<path class="atom-14" d="M 199.9 173.9 Q 201.1 173.9, 202.0 174.4 Q 203.0 174.9, 203.5 175.8 Q 204.0 176.7, 204.0 178.0 Q 204.0 179.4, 203.4 180.3 Q 202.7 181.3, 201.6 181.8 Q 200.5 182.3, 199.3 182.3 Q 198.1 182.3, 197.0 181.9 Q 195.9 181.4, 195.1 180.6 L 196.2 179.4 Q 196.8 180.1, 197.7 180.5 Q 198.5 180.8, 199.4 180.8 Q 200.5 180.8, 201.4 180.1 Q 202.2 179.4, 202.2 178.0 Q 202.2 176.6, 201.4 176.0 Q 200.5 175.3, 199.3 175.3 Q 198.1 175.3, 196.8 175.8 L 195.8 175.3 L 196.4 168.9 L 203.2 168.9 L 203.0 170.4 L 198.0 170.4 L 197.6 174.4 Q 198.7 173.9, 199.9 173.9 " fill="#0000FF"/>
<path class="atom-15" d="M 182.2 222.2 Q 182.2 218.9, 183.8 217.2 Q 185.3 215.4, 188.2 215.4 Q 191.0 215.4, 192.4 217.4 L 191.2 218.4 Q 190.1 217.0, 188.2 217.0 Q 186.2 217.0, 185.2 218.3 Q 184.1 219.7, 184.1 222.2 Q 184.1 224.8, 185.2 226.2 Q 186.3 227.5, 188.4 227.5 Q 189.9 227.5, 191.6 226.6 L 192.1 228.0 Q 191.4 228.5, 190.4 228.7 Q 189.3 229.0, 188.2 229.0 Q 185.3 229.0, 183.8 227.2 Q 182.2 225.5, 182.2 222.2 " fill="#000000"/>
<path class="atom-15" d="M 193.8 226.6 L 195.7 226.6 L 195.7 228.5 L 193.8 228.5 L 193.8 226.6 M 193.8 220.2 L 195.7 220.2 L 195.7 222.1 L 193.8 222.1 L 193.8 220.2 " fill="#000000"/>
<path class="atom-15" d="M 197.4 227.3 L 200.3 227.3 L 200.3 217.4 L 197.1 218.4 L 196.7 217.3 L 200.8 215.5 L 202.1 215.7 L 202.1 227.3 L 204.7 227.3 L 204.7 228.8 L 197.4 228.8 L 197.4 227.3 " fill="#000000"/>
<path class="atom-15" d="M 211.1 220.6 Q 212.3 220.6, 213.2 221.1 Q 214.1 221.6, 214.6 222.5 Q 215.1 223.4, 215.1 224.6 Q 215.1 225.9, 214.6 226.9 Q 214.0 227.9, 213.0 228.4 Q 212.0 229.0, 210.7 229.0 Q 208.3 229.0, 207.1 227.4 Q 206.0 225.8, 206.0 222.6 Q 206.0 219.1, 207.4 217.3 Q 208.9 215.4, 211.7 215.4 Q 212.5 215.4, 213.2 215.6 Q 213.9 215.8, 214.6 216.2 L 213.9 217.5 Q 212.9 216.9, 211.7 216.9 Q 209.9 216.9, 208.9 218.2 Q 208.0 219.4, 207.8 221.8 Q 208.5 221.2, 209.4 220.9 Q 210.2 220.6, 211.1 220.6 M 210.7 227.4 Q 211.4 227.4, 212.0 227.1 Q 212.6 226.7, 212.9 226.0 Q 213.3 225.4, 213.3 224.6 Q 213.3 223.4, 212.6 222.7 Q 212.0 222.1, 210.8 222.1 Q 210.0 222.1, 209.2 222.4 Q 208.4 222.7, 207.8 223.3 Q 207.9 225.5, 208.6 226.5 Q 209.3 227.4, 210.7 227.4 " fill="#000000"/>
<path class="atom-16" d="M 222.9 158.3 Q 222.9 155.0, 224.4 153.2 Q 226.0 151.5, 228.9 151.5 Q 231.7 151.5, 233.1 153.4 L 231.9 154.4 Q 230.8 153.0, 228.9 153.0 Q 226.9 153.0, 225.9 154.4 Q 224.8 155.7, 224.8 158.3 Q 224.8 160.9, 225.9 162.2 Q 227.0 163.6, 229.1 163.6 Q 230.6 163.6, 232.3 162.7 L 232.8 164.1 Q 232.1 164.5, 231.1 164.8 Q 230.0 165.1, 228.9 165.1 Q 226.0 165.1, 224.4 163.3 Q 222.9 161.5, 222.9 158.3 " fill="#000000"/>
<path class="atom-16" d="M 234.5 162.7 L 236.4 162.7 L 236.4 164.6 L 234.5 164.6 L 234.5 162.7 M 234.5 156.3 L 236.4 156.3 L 236.4 158.1 L 234.5 158.1 L 234.5 156.3 " fill="#000000"/>
<path class="atom-16" d="M 238.1 163.4 L 241.0 163.4 L 241.0 153.5 L 237.8 154.5 L 237.4 153.4 L 241.4 151.6 L 242.8 151.8 L 242.8 163.4 L 245.4 163.4 L 245.4 164.9 L 238.1 164.9 L 238.1 163.4 " fill="#000000"/>
<path class="atom-16" d="M 252.6 153.2 L 245.7 153.2 L 245.7 151.7 L 254.5 151.7 L 254.5 153.0 L 249.1 164.9 L 247.4 164.9 L 252.6 153.2 " fill="#000000"/>
<path class="atom-17" d="M 354.6 333.8 Q 354.6 330.5, 356.1 328.8 Q 357.7 327.1, 360.6 327.1 Q 363.3 327.1, 364.8 329.0 L 363.5 330.0 Q 362.5 328.6, 360.6 328.6 Q 358.6 328.6, 357.5 329.9 Q 356.5 331.3, 356.5 333.8 Q 356.5 336.4, 357.6 337.8 Q 358.7 339.1, 360.8 339.1 Q 362.3 339.1, 364.0 338.2 L 364.5 339.6 Q 363.8 340.1, 362.7 340.3 Q 361.7 340.6, 360.5 340.6 Q 357.7 340.6, 356.1 338.8 Q 354.6 337.1, 354.6 333.8 " fill="#000000"/>
<path class="atom-17" d="M 366.2 338.3 L 368.1 338.3 L 368.1 340.1 L 366.2 340.1 L 366.2 338.3 M 366.2 331.8 L 368.1 331.8 L 368.1 333.7 L 366.2 333.7 L 366.2 331.8 " fill="#000000"/>
<path class="atom-17" d="M 369.8 338.9 L 372.7 338.9 L 372.7 329.1 L 369.5 330.0 L 369.1 328.9 L 373.1 327.1 L 374.4 327.4 L 374.4 338.9 L 377.0 338.9 L 377.0 340.4 L 369.8 340.4 L 369.8 338.9 " fill="#000000"/>
<path class="atom-17" d="M 384.9 333.4 Q 386.2 334.0, 386.8 334.7 Q 387.5 335.5, 387.5 336.8 Q 387.5 337.9, 387.0 338.8 Q 386.4 339.7, 385.3 340.2 Q 384.3 340.6, 382.9 340.6 Q 380.7 340.6, 379.5 339.6 Q 378.2 338.6, 378.2 336.8 Q 378.2 335.7, 378.8 334.9 Q 379.3 334.1, 380.5 333.5 Q 379.6 333.0, 379.1 332.3 Q 378.7 331.6, 378.7 330.4 Q 378.7 328.9, 379.8 328.0 Q 380.9 327.1, 382.9 327.1 Q 384.8 327.1, 385.9 328.0 Q 387.1 328.9, 387.1 330.4 Q 387.1 331.4, 386.5 332.1 Q 386.0 332.9, 384.9 333.4 M 382.9 328.5 Q 381.8 328.5, 381.1 329.0 Q 380.6 329.5, 380.6 330.4 Q 380.6 331.1, 381.0 331.6 Q 381.4 332.0, 382.0 332.3 Q 382.5 332.6, 383.7 333.0 Q 384.5 332.4, 384.8 331.8 Q 385.2 331.2, 385.2 330.4 Q 385.2 329.5, 384.6 329.0 Q 384.0 328.5, 382.9 328.5 M 382.9 339.2 Q 384.2 339.2, 384.9 338.6 Q 385.7 337.9, 385.7 336.8 Q 385.7 336.1, 385.3 335.6 Q 384.9 335.2, 384.3 334.9 Q 383.7 334.7, 382.7 334.3 L 381.8 334.0 Q 380.9 334.6, 380.5 335.3 Q 380.1 335.9, 380.1 336.8 Q 380.1 337.9, 380.8 338.6 Q 381.6 339.2, 382.9 339.2 " fill="#000000"/>
<path class="atom-18" d="M 366.3 253.7 Q 366.3 250.4, 367.8 248.7 Q 369.3 247.0, 372.3 247.0 Q 375.0 247.0, 376.5 248.9 L 375.2 249.9 Q 374.2 248.5, 372.3 248.5 Q 370.3 248.5, 369.2 249.9 Q 368.2 251.2, 368.2 253.7 Q 368.2 256.3, 369.2 257.7 Q 370.3 259.0, 372.5 259.0 Q 373.9 259.0, 375.6 258.2 L 376.2 259.6 Q 375.5 260.0, 374.4 260.3 Q 373.4 260.5, 372.2 260.5 Q 369.3 260.5, 367.8 258.8 Q 366.3 257.0, 366.3 253.7 " fill="#000000"/>
<path class="atom-18" d="M 377.9 258.2 L 379.7 258.2 L 379.7 260.0 L 377.9 260.0 L 377.9 258.2 M 377.9 251.8 L 379.7 251.8 L 379.7 253.6 L 377.9 253.6 L 377.9 251.8 " fill="#000000"/>
<path class="atom-18" d="M 381.5 258.9 L 384.4 258.9 L 384.4 249.0 L 381.2 250.0 L 380.7 248.9 L 384.8 247.1 L 386.1 247.3 L 386.1 258.9 L 388.7 258.9 L 388.7 260.4 L 381.5 260.4 L 381.5 258.9 " fill="#000000"/>
<path class="atom-18" d="M 394.2 247.0 Q 396.5 247.0, 397.7 248.6 Q 398.9 250.2, 398.9 253.4 Q 398.9 256.9, 397.4 258.7 Q 396.0 260.5, 393.2 260.5 Q 392.3 260.5, 391.6 260.3 Q 390.9 260.1, 390.3 259.7 L 391.0 258.5 Q 392.0 259.0, 393.1 259.0 Q 395.0 259.0, 396.0 257.8 Q 396.9 256.6, 397.0 254.1 Q 396.4 254.7, 395.5 255.1 Q 394.7 255.4, 393.7 255.4 Q 392.6 255.4, 391.7 254.9 Q 390.8 254.4, 390.2 253.5 Q 389.7 252.6, 389.7 251.4 Q 389.7 250.1, 390.3 249.1 Q 390.9 248.1, 391.9 247.5 Q 392.9 247.0, 394.2 247.0 M 391.6 251.4 Q 391.6 252.6, 392.3 253.2 Q 392.9 253.9, 394.1 253.9 Q 394.9 253.9, 395.7 253.6 Q 396.5 253.2, 397.0 252.7 Q 397.0 250.5, 396.3 249.5 Q 395.6 248.5, 394.2 248.5 Q 393.5 248.5, 392.9 248.9 Q 392.3 249.3, 391.9 249.9 Q 391.6 250.6, 391.6 251.4 " fill="#000000"/>
<path class="atom-19" d="M 382.8 297.1 Q 382.8 293.8, 384.4 292.1 Q 385.9 290.4, 388.9 290.4 Q 391.6 290.4, 393.0 292.3 L 391.8 293.3 Q 390.7 291.9, 388.9 291.9 Q 386.9 291.9, 385.8 293.2 Q 384.7 294.6, 384.7 297.1 Q 384.7 299.7, 385.8 301.1 Q 386.9 302.4, 389.1 302.4 Q 390.5 302.4, 392.2 301.5 L 392.7 302.9 Q 392.0 303.4, 391.0 303.6 Q 390.0 303.9, 388.8 303.9 Q 385.9 303.9, 384.4 302.2 Q 382.8 300.4, 382.8 297.1 " fill="#000000"/>
<path class="atom-19" d="M 394.4 301.6 L 396.3 301.6 L 396.3 303.4 L 394.4 303.4 L 394.4 301.6 M 394.4 295.1 L 396.3 295.1 L 396.3 297.0 L 394.4 297.0 L 394.4 295.1 " fill="#000000"/>
<path class="atom-19" d="M 397.3 293.0 Q 397.8 291.8, 398.9 291.1 Q 400.1 290.4, 401.7 290.4 Q 403.7 290.4, 404.8 291.4 Q 405.9 292.5, 405.9 294.5 Q 405.9 296.4, 404.5 298.2 Q 403.0 300.1, 400.0 302.2 L 406.2 302.2 L 406.2 303.7 L 397.2 303.7 L 397.2 302.5 Q 399.7 300.7, 401.2 299.4 Q 402.6 298.1, 403.4 296.9 Q 404.1 295.8, 404.1 294.6 Q 404.1 293.3, 403.4 292.6 Q 402.8 291.9, 401.7 291.9 Q 400.6 291.9, 399.9 292.3 Q 399.2 292.7, 398.7 293.7 L 397.3 293.0 " fill="#000000"/>
<path class="atom-19" d="M 412.1 303.9 Q 409.7 303.9, 408.5 302.1 Q 407.3 300.3, 407.3 297.1 Q 407.3 293.9, 408.5 292.1 Q 409.7 290.4, 412.1 290.4 Q 414.6 290.4, 415.8 292.1 Q 417.0 293.9, 417.0 297.1 Q 417.0 300.3, 415.8 302.1 Q 414.6 303.9, 412.1 303.9 M 412.1 302.4 Q 413.6 302.4, 414.3 301.1 Q 415.1 299.7, 415.1 297.1 Q 415.1 294.5, 414.3 293.2 Q 413.6 291.9, 412.1 291.9 Q 410.7 291.9, 409.9 293.2 Q 409.2 294.5, 409.2 297.1 Q 409.2 299.7, 409.9 301.1 Q 410.7 302.4, 412.1 302.4 " fill="#000000"/>
<path class="atom-20" d="M 271.4 357.2 L 273.2 357.2 L 273.2 362.8 L 280.0 362.8 L 280.0 357.2 L 281.8 357.2 L 281.8 370.4 L 280.0 370.4 L 280.0 364.3 L 273.2 364.3 L 273.2 370.4 L 271.4 370.4 L 271.4 357.2 " fill="#000000"/>
<path class="atom-20" d="M 283.2 368.3 L 285.0 368.3 L 285.0 370.1 L 283.2 370.1 L 283.2 368.3 M 283.2 361.8 L 285.0 361.8 L 285.0 363.7 L 283.2 363.7 L 283.2 361.8 " fill="#000000"/>
<path class="atom-20" d="M 286.0 359.7 Q 286.5 358.5, 287.7 357.8 Q 288.8 357.1, 290.4 357.1 Q 292.4 357.1, 293.5 358.1 Q 294.7 359.2, 294.7 361.2 Q 294.7 363.1, 293.2 365.0 Q 291.8 366.8, 288.8 368.9 L 294.9 368.9 L 294.9 370.4 L 286.0 370.4 L 286.0 369.2 Q 288.4 367.4, 289.9 366.1 Q 291.4 364.8, 292.1 363.6 Q 292.8 362.5, 292.8 361.3 Q 292.8 360.0, 292.2 359.3 Q 291.5 358.6, 290.4 358.6 Q 289.4 358.6, 288.7 359.0 Q 287.9 359.4, 287.4 360.4 L 286.0 359.7 " fill="#000000"/>
<path class="atom-20" d="M 296.6 368.9 L 299.5 368.9 L 299.5 359.1 L 296.3 360.1 L 295.9 359.0 L 300.0 357.1 L 301.3 357.4 L 301.3 368.9 L 303.9 368.9 L 303.9 370.4 L 296.6 370.4 L 296.6 368.9 " fill="#000000"/>
<path class="atom-21" d="M 323.3 195.3 L 325.1 195.3 L 325.1 200.9 L 331.9 200.9 L 331.9 195.3 L 333.6 195.3 L 333.6 208.5 L 331.9 208.5 L 331.9 202.4 L 325.1 202.4 L 325.1 208.5 L 323.3 208.5 L 323.3 195.3 " fill="#000000"/>
<path class="atom-21" d="M 335.0 206.3 L 336.9 206.3 L 336.9 208.2 L 335.0 208.2 L 335.0 206.3 M 335.0 199.9 L 336.9 199.9 L 336.9 201.8 L 335.0 201.8 L 335.0 199.9 " fill="#000000"/>
<path class="atom-21" d="M 337.9 197.8 Q 338.4 196.5, 339.5 195.8 Q 340.7 195.1, 342.3 195.1 Q 344.3 195.1, 345.4 196.2 Q 346.5 197.3, 346.5 199.2 Q 346.5 201.2, 345.1 203.0 Q 343.6 204.8, 340.7 207.0 L 346.8 207.0 L 346.8 208.5 L 337.8 208.5 L 337.8 207.3 Q 340.3 205.5, 341.8 204.2 Q 343.2 202.9, 344.0 201.7 Q 344.7 200.5, 344.7 199.3 Q 344.7 198.0, 344.0 197.3 Q 343.4 196.6, 342.3 196.6 Q 341.2 196.6, 340.5 197.1 Q 339.8 197.5, 339.3 198.4 L 337.9 197.8 " fill="#000000"/>
<path class="atom-21" d="M 347.7 197.8 Q 348.2 196.5, 349.4 195.8 Q 350.5 195.1, 352.1 195.1 Q 354.1 195.1, 355.3 196.2 Q 356.4 197.3, 356.4 199.2 Q 356.4 201.2, 354.9 203.0 Q 353.5 204.8, 350.5 207.0 L 356.6 207.0 L 356.6 208.5 L 347.7 208.5 L 347.7 207.3 Q 350.2 205.5, 351.6 204.2 Q 353.1 202.9, 353.8 201.7 Q 354.5 200.5, 354.5 199.3 Q 354.5 198.0, 353.9 197.3 Q 353.2 196.6, 352.1 196.6 Q 351.1 196.6, 350.4 197.1 Q 349.7 197.5, 349.2 198.4 L 347.7 197.8 " fill="#000000"/>
<path class="atom-22" d="M 177.8 234.4 L 179.6 234.4 L 179.6 240.1 L 186.4 240.1 L 186.4 234.4 L 188.1 234.4 L 188.1 247.7 L 186.4 247.7 L 186.4 241.6 L 179.6 241.6 L 179.6 247.7 L 177.8 247.7 L 177.8 234.4 " fill="#000000"/>
<path class="atom-22" d="M 189.5 245.5 L 191.4 245.5 L 191.4 247.4 L 189.5 247.4 L 189.5 245.5 M 189.5 239.1 L 191.4 239.1 L 191.4 240.9 L 189.5 240.9 L 189.5 239.1 " fill="#000000"/>
<path class="atom-22" d="M 192.4 237.0 Q 192.9 235.7, 194.0 235.0 Q 195.2 234.3, 196.8 234.3 Q 198.8 234.3, 199.9 235.4 Q 201.0 236.5, 201.0 238.4 Q 201.0 240.4, 199.6 242.2 Q 198.1 244.0, 195.2 246.2 L 201.3 246.2 L 201.3 247.7 L 192.3 247.7 L 192.3 246.4 Q 194.8 244.7, 196.3 243.4 Q 197.7 242.1, 198.5 240.9 Q 199.2 239.7, 199.2 238.5 Q 199.2 237.2, 198.5 236.5 Q 197.9 235.8, 196.8 235.8 Q 195.7 235.8, 195.0 236.2 Q 194.3 236.7, 193.8 237.6 L 192.4 237.0 " fill="#000000"/>
<path class="atom-22" d="M 208.4 240.7 Q 209.7 241.1, 210.3 241.9 Q 210.9 242.7, 210.9 244.1 Q 210.9 245.2, 210.4 246.1 Q 209.8 246.9, 208.8 247.4 Q 207.8 247.9, 206.4 247.9 Q 205.0 247.9, 203.9 247.4 Q 202.9 246.9, 202.0 245.9 L 203.1 244.8 Q 203.9 245.7, 204.6 246.0 Q 205.3 246.4, 206.4 246.4 Q 207.6 246.4, 208.3 245.7 Q 209.1 245.1, 209.1 244.0 Q 209.1 242.7, 208.3 242.1 Q 207.6 241.5, 205.9 241.5 L 205.0 241.5 L 205.0 240.1 L 205.8 240.1 Q 207.3 240.1, 208.0 239.5 Q 208.8 238.9, 208.8 237.7 Q 208.8 236.8, 208.2 236.3 Q 207.5 235.8, 206.4 235.8 Q 205.3 235.8, 204.6 236.2 Q 204.0 236.6, 203.4 237.6 L 202.2 236.9 Q 202.6 235.8, 203.7 235.0 Q 204.9 234.3, 206.4 234.3 Q 208.4 234.3, 209.5 235.2 Q 210.7 236.1, 210.7 237.7 Q 210.7 238.7, 210.1 239.5 Q 209.5 240.3, 208.4 240.7 " fill="#000000"/>
<path class="atom-23" d="M 173.4 380.5 L 175.1 380.5 L 175.1 386.2 L 181.9 386.2 L 181.9 380.5 L 183.7 380.5 L 183.7 393.8 L 181.9 393.8 L 181.9 387.7 L 175.1 387.7 L 175.1 393.8 L 173.4 393.8 L 173.4 380.5 " fill="#000000"/>
<path class="atom-23" d="M 185.1 391.6 L 187.0 391.6 L 187.0 393.4 L 185.1 393.4 L 185.1 391.6 M 185.1 385.2 L 187.0 385.2 L 187.0 387.0 L 185.1 387.0 L 185.1 385.2 " fill="#000000"/>
<path class="atom-23" d="M 187.9 383.0 Q 188.4 381.8, 189.6 381.1 Q 190.7 380.4, 192.4 380.4 Q 194.4 380.4, 195.5 381.5 Q 196.6 382.6, 196.6 384.5 Q 196.6 386.4, 195.1 388.3 Q 193.7 390.1, 190.7 392.3 L 196.8 392.3 L 196.8 393.8 L 187.9 393.8 L 187.9 392.5 Q 190.4 390.8, 191.8 389.4 Q 193.3 388.1, 194.0 387.0 Q 194.7 385.8, 194.7 384.6 Q 194.7 383.3, 194.1 382.6 Q 193.5 381.9, 192.4 381.9 Q 191.3 381.9, 190.6 382.3 Q 189.9 382.7, 189.4 383.7 L 187.9 383.0 " fill="#000000"/>
<path class="atom-23" d="M 206.0 389.2 L 207.6 389.2 L 207.6 390.7 L 206.0 390.7 L 206.0 393.8 L 204.2 393.8 L 204.2 390.7 L 197.4 390.7 L 197.4 389.5 L 203.2 380.5 L 206.0 380.5 L 206.0 389.2 M 199.5 389.2 L 204.2 389.2 L 204.2 381.7 L 199.5 389.2 " fill="#000000"/>
<path class="atom-24" d="M 80.4 207.0 L 82.2 207.0 L 82.2 212.6 L 89.0 212.6 L 89.0 207.0 L 90.8 207.0 L 90.8 220.2 L 89.0 220.2 L 89.0 214.1 L 82.2 214.1 L 82.2 220.2 L 80.4 220.2 L 80.4 207.0 " fill="#000000"/>
<path class="atom-24" d="M 92.2 218.1 L 94.0 218.1 L 94.0 219.9 L 92.2 219.9 L 92.2 218.1 M 92.2 211.6 L 94.0 211.6 L 94.0 213.5 L 92.2 213.5 L 92.2 211.6 " fill="#000000"/>
<path class="atom-24" d="M 95.0 209.5 Q 95.5 208.3, 96.7 207.6 Q 97.8 206.9, 99.4 206.9 Q 101.4 206.9, 102.5 208.0 Q 103.7 209.0, 103.7 211.0 Q 103.7 212.9, 102.2 214.8 Q 100.8 216.6, 97.8 218.8 L 103.9 218.8 L 103.9 220.2 L 95.0 220.2 L 95.0 219.0 Q 97.4 217.2, 98.9 215.9 Q 100.4 214.6, 101.1 213.4 Q 101.8 212.3, 101.8 211.1 Q 101.8 209.8, 101.2 209.1 Q 100.5 208.4, 99.4 208.4 Q 98.4 208.4, 97.7 208.8 Q 96.9 209.2, 96.4 210.2 L 95.0 209.5 " fill="#000000"/>
<path class="atom-24" d="M 109.6 212.0 Q 110.7 212.0, 111.7 212.5 Q 112.6 213.0, 113.2 213.9 Q 113.7 214.8, 113.7 216.1 Q 113.7 217.4, 113.0 218.4 Q 112.4 219.4, 111.3 219.9 Q 110.2 220.4, 109.0 220.4 Q 107.8 220.4, 106.6 219.9 Q 105.5 219.5, 104.8 218.6 L 105.9 217.5 Q 106.5 218.2, 107.3 218.5 Q 108.2 218.9, 109.0 218.9 Q 110.2 218.9, 111.0 218.2 Q 111.8 217.4, 111.8 216.1 Q 111.8 214.7, 111.0 214.0 Q 110.2 213.4, 108.9 213.4 Q 107.8 213.4, 106.5 213.9 L 105.4 213.4 L 106.1 207.0 L 112.9 207.0 L 112.7 208.5 L 107.6 208.5 L 107.2 212.4 Q 108.4 212.0, 109.6 212.0 " fill="#000000"/>
<path class="atom-25" d="M 56.7 367.2 L 58.5 367.2 L 58.5 372.8 L 65.3 372.8 L 65.3 367.2 L 67.1 367.2 L 67.1 380.4 L 65.3 380.4 L 65.3 374.3 L 58.5 374.3 L 58.5 380.4 L 56.7 380.4 L 56.7 367.2 " fill="#000000"/>
<path class="atom-25" d="M 68.5 378.2 L 70.4 378.2 L 70.4 380.1 L 68.5 380.1 L 68.5 378.2 M 68.5 371.8 L 70.4 371.8 L 70.4 373.6 L 68.5 373.6 L 68.5 371.8 " fill="#000000"/>
<path class="atom-25" d="M 71.3 369.7 Q 71.8 368.4, 73.0 367.7 Q 74.1 367.0, 75.7 367.0 Q 77.7 367.0, 78.9 368.1 Q 80.0 369.2, 80.0 371.1 Q 80.0 373.1, 78.5 374.9 Q 77.1 376.7, 74.1 378.9 L 80.2 378.9 L 80.2 380.4 L 71.3 380.4 L 71.3 379.1 Q 73.8 377.4, 75.2 376.1 Q 76.7 374.8, 77.4 373.6 Q 78.1 372.4, 78.1 371.2 Q 78.1 369.9, 77.5 369.2 Q 76.8 368.5, 75.7 368.5 Q 74.7 368.5, 74.0 368.9 Q 73.3 369.4, 72.8 370.3 L 71.3 369.7 " fill="#000000"/>
<path class="atom-25" d="M 86.7 372.1 Q 87.8 372.1, 88.7 372.6 Q 89.6 373.1, 90.1 374.1 Q 90.7 375.0, 90.7 376.1 Q 90.7 377.4, 90.1 378.4 Q 89.5 379.4, 88.5 380.0 Q 87.5 380.5, 86.2 380.5 Q 83.9 380.5, 82.7 379.0 Q 81.5 377.3, 81.5 374.2 Q 81.5 370.7, 82.9 368.8 Q 84.4 367.0, 87.2 367.0 Q 88.1 367.0, 88.7 367.2 Q 89.5 367.4, 90.1 367.8 L 89.4 369.0 Q 88.4 368.5, 87.3 368.5 Q 85.4 368.5, 84.4 369.7 Q 83.5 370.9, 83.4 373.4 Q 84.0 372.8, 84.9 372.5 Q 85.7 372.1, 86.7 372.1 M 86.2 379.0 Q 86.9 379.0, 87.5 378.6 Q 88.1 378.3, 88.4 377.6 Q 88.8 377.0, 88.8 376.2 Q 88.8 375.0, 88.1 374.3 Q 87.5 373.6, 86.3 373.6 Q 85.5 373.6, 84.7 374.0 Q 83.9 374.3, 83.4 374.8 Q 83.4 377.0, 84.1 378.0 Q 84.8 379.0, 86.2 379.0 " fill="#000000"/>
<path class="atom-26" d="M 131.9 144.1 L 133.7 144.1 L 133.7 149.7 L 140.4 149.7 L 140.4 144.1 L 142.2 144.1 L 142.2 157.3 L 140.4 157.3 L 140.4 151.2 L 133.7 151.2 L 133.7 157.3 L 131.9 157.3 L 131.9 144.1 " fill="#000000"/>
<path class="atom-26" d="M 143.6 155.1 L 145.5 155.1 L 145.5 157.0 L 143.6 157.0 L 143.6 155.1 M 143.6 148.7 L 145.5 148.7 L 145.5 150.6 L 143.6 150.6 L 143.6 148.7 " fill="#000000"/>
<path class="atom-26" d="M 146.5 146.6 Q 146.9 145.3, 148.1 144.6 Q 149.3 143.9, 150.9 143.9 Q 152.9 143.9, 154.0 145.0 Q 155.1 146.1, 155.1 148.0 Q 155.1 150.0, 153.6 151.8 Q 152.2 153.6, 149.2 155.8 L 155.3 155.8 L 155.3 157.3 L 146.4 157.3 L 146.4 156.1 Q 148.9 154.3, 150.3 153.0 Q 151.8 151.7, 152.5 150.5 Q 153.2 149.3, 153.2 148.1 Q 153.2 146.8, 152.6 146.1 Q 152.0 145.4, 150.9 145.4 Q 149.8 145.4, 149.1 145.9 Q 148.4 146.3, 147.9 147.2 L 146.5 146.6 " fill="#000000"/>
<path class="atom-26" d="M 162.6 145.6 L 155.7 145.6 L 155.7 144.1 L 164.4 144.1 L 164.4 145.4 L 159.1 157.3 L 157.3 157.3 L 162.6 145.6 " fill="#000000"/>
<path class="atom-27" d="M 129.5 242.5 Q 129.5 239.3, 131.1 237.5 Q 132.6 235.8, 135.6 235.8 Q 138.5 235.8, 140.1 237.5 Q 141.6 239.3, 141.6 242.5 Q 141.6 245.7, 140.0 247.5 Q 138.5 249.3, 135.6 249.3 Q 132.6 249.3, 131.1 247.5 Q 129.5 245.7, 129.5 242.5 M 135.6 247.8 Q 137.6 247.8, 138.7 246.5 Q 139.8 245.1, 139.8 242.5 Q 139.8 239.9, 138.7 238.6 Q 137.6 237.2, 135.6 237.2 Q 133.5 237.2, 132.4 238.6 Q 131.4 239.9, 131.4 242.5 Q 131.4 245.2, 132.4 246.5 Q 133.5 247.8, 135.6 247.8 " fill="#FF0000"/>
<path class="atom-27" d="M 143.0 246.9 L 144.9 246.9 L 144.9 248.8 L 143.0 248.8 L 143.0 246.9 M 143.0 240.5 L 144.9 240.5 L 144.9 242.4 L 143.0 242.4 L 143.0 240.5 " fill="#FF0000"/>
<path class="atom-27" d="M 145.9 238.4 Q 146.4 237.2, 147.5 236.5 Q 148.7 235.8, 150.3 235.8 Q 152.3 235.8, 153.4 236.8 Q 154.5 237.9, 154.5 239.8 Q 154.5 241.8, 153.1 243.6 Q 151.6 245.5, 148.6 247.6 L 154.7 247.6 L 154.7 249.1 L 145.8 249.1 L 145.8 247.9 Q 148.3 246.1, 149.8 244.8 Q 151.2 243.5, 151.9 242.3 Q 152.7 241.2, 152.7 239.9 Q 152.7 238.7, 152.0 238.0 Q 151.4 237.2, 150.3 237.2 Q 149.2 237.2, 148.5 237.7 Q 147.8 238.1, 147.3 239.1 L 145.9 238.4 " fill="#FF0000"/>
<path class="atom-27" d="M 162.6 242.1 Q 163.9 242.6, 164.6 243.4 Q 165.2 244.2, 165.2 245.5 Q 165.2 246.6, 164.7 247.5 Q 164.1 248.4, 163.0 248.9 Q 162.0 249.3, 160.6 249.3 Q 158.4 249.3, 157.2 248.3 Q 155.9 247.3, 155.9 245.5 Q 155.9 244.4, 156.5 243.6 Q 157.0 242.8, 158.2 242.2 Q 157.3 241.7, 156.9 241.0 Q 156.4 240.3, 156.4 239.1 Q 156.4 237.6, 157.5 236.7 Q 158.6 235.8, 160.6 235.8 Q 162.5 235.8, 163.6 236.7 Q 164.8 237.6, 164.8 239.1 Q 164.8 240.1, 164.2 240.8 Q 163.7 241.5, 162.6 242.1 M 160.6 237.2 Q 159.5 237.2, 158.9 237.7 Q 158.3 238.2, 158.3 239.1 Q 158.3 239.8, 158.7 240.3 Q 159.1 240.7, 159.7 241.0 Q 160.3 241.3, 161.4 241.7 Q 162.2 241.1, 162.5 240.5 Q 162.9 239.9, 162.9 239.1 Q 162.9 238.2, 162.3 237.7 Q 161.7 237.2, 160.6 237.2 M 160.6 247.9 Q 161.9 247.9, 162.6 247.3 Q 163.4 246.6, 163.4 245.5 Q 163.4 244.8, 163.0 244.3 Q 162.6 243.9, 162.0 243.6 Q 161.4 243.4, 160.4 243.0 L 159.5 242.7 Q 158.6 243.3, 158.2 244.0 Q 157.8 244.6, 157.8 245.5 Q 157.8 246.6, 158.6 247.3 Q 159.3 247.9, 160.6 247.9 " fill="#FF0000"/>
<path class="atom-28" d="M 387.2 370.6 L 389.0 370.6 L 389.0 376.2 L 395.7 376.2 L 395.7 370.6 L 397.5 370.6 L 397.5 383.8 L 395.7 383.8 L 395.7 377.7 L 389.0 377.7 L 389.0 383.8 L 387.2 383.8 L 387.2 370.6 " fill="#000000"/>
<path class="atom-28" d="M 398.9 381.6 L 400.8 381.6 L 400.8 383.5 L 398.9 383.5 L 398.9 381.6 M 398.9 375.2 L 400.8 375.2 L 400.8 377.1 L 398.9 377.1 L 398.9 375.2 " fill="#000000"/>
<path class="atom-28" d="M 401.8 373.1 Q 402.3 371.8, 403.4 371.1 Q 404.6 370.4, 406.2 370.4 Q 408.2 370.4, 409.3 371.5 Q 410.4 372.6, 410.4 374.5 Q 410.4 376.5, 409.0 378.3 Q 407.5 380.2, 404.5 382.3 L 410.6 382.3 L 410.6 383.8 L 401.7 383.8 L 401.7 382.6 Q 404.2 380.8, 405.7 379.5 Q 407.1 378.2, 407.8 377.0 Q 408.6 375.8, 408.6 374.6 Q 408.6 373.4, 407.9 372.6 Q 407.3 371.9, 406.2 371.9 Q 405.1 371.9, 404.4 372.4 Q 403.7 372.8, 403.2 373.7 L 401.8 373.1 " fill="#000000"/>
<path class="atom-28" d="M 416.1 370.4 Q 418.5 370.4, 419.6 372.0 Q 420.8 373.6, 420.8 376.8 Q 420.8 380.3, 419.4 382.2 Q 417.9 384.0, 415.1 384.0 Q 414.3 384.0, 413.6 383.8 Q 412.9 383.6, 412.2 383.2 L 412.9 381.9 Q 413.9 382.5, 415.1 382.5 Q 416.9 382.5, 417.9 381.3 Q 418.8 380.1, 419.0 377.6 Q 418.3 378.2, 417.4 378.5 Q 416.6 378.8, 415.7 378.8 Q 414.5 378.8, 413.6 378.3 Q 412.7 377.8, 412.2 376.9 Q 411.7 376.0, 411.7 374.8 Q 411.7 373.6, 412.2 372.6 Q 412.8 371.6, 413.8 371.0 Q 414.8 370.4, 416.1 370.4 M 413.5 374.8 Q 413.5 376.0, 414.2 376.7 Q 414.8 377.4, 416.0 377.4 Q 416.8 377.4, 417.6 377.0 Q 418.4 376.7, 419.0 376.1 Q 418.9 374.0, 418.2 373.0 Q 417.5 372.0, 416.1 372.0 Q 415.4 372.0, 414.8 372.3 Q 414.2 372.7, 413.9 373.4 Q 413.5 374.0, 413.5 374.8 " fill="#000000"/>
<path class="atom-29" d="M 410.3 210.4 L 412.1 210.4 L 412.1 216.1 L 418.9 216.1 L 418.9 210.4 L 420.7 210.4 L 420.7 223.7 L 418.9 223.7 L 418.9 217.6 L 412.1 217.6 L 412.1 223.7 L 410.3 223.7 L 410.3 210.4 " fill="#000000"/>
<path class="atom-29" d="M 422.1 221.5 L 424.0 221.5 L 424.0 223.4 L 422.1 223.4 L 422.1 221.5 M 422.1 215.1 L 424.0 215.1 L 424.0 216.9 L 422.1 216.9 L 422.1 215.1 " fill="#000000"/>
<path class="atom-29" d="M 431.1 216.7 Q 432.4 217.1, 433.0 217.9 Q 433.6 218.7, 433.6 220.0 Q 433.6 221.2, 433.1 222.0 Q 432.5 222.9, 431.5 223.4 Q 430.5 223.9, 429.1 223.9 Q 427.7 223.9, 426.6 223.4 Q 425.6 222.9, 424.7 221.9 L 425.8 220.8 Q 426.6 221.7, 427.3 222.0 Q 428.0 222.4, 429.1 222.4 Q 430.3 222.4, 431.0 221.7 Q 431.8 221.1, 431.8 220.0 Q 431.8 218.7, 431.0 218.1 Q 430.3 217.5, 428.6 217.5 L 427.7 217.5 L 427.7 216.1 L 428.5 216.1 Q 430.0 216.1, 430.7 215.5 Q 431.5 214.9, 431.5 213.7 Q 431.5 212.8, 430.9 212.3 Q 430.2 211.8, 429.1 211.8 Q 428.0 211.8, 427.3 212.2 Q 426.7 212.6, 426.1 213.6 L 424.9 212.9 Q 425.3 211.8, 426.4 211.0 Q 427.6 210.3, 429.1 210.3 Q 431.1 210.3, 432.2 211.2 Q 433.4 212.1, 433.4 213.7 Q 433.4 214.7, 432.8 215.5 Q 432.2 216.3, 431.1 216.7 " fill="#000000"/>
<path class="atom-29" d="M 439.6 223.8 Q 437.2 223.8, 436.0 222.0 Q 434.8 220.2, 434.8 217.0 Q 434.8 213.8, 436.0 212.1 Q 437.2 210.3, 439.6 210.3 Q 442.1 210.3, 443.3 212.1 Q 444.5 213.8, 444.5 217.0 Q 444.5 220.2, 443.2 222.0 Q 442.0 223.8, 439.6 223.8 M 439.6 222.3 Q 441.1 222.3, 441.8 221.0 Q 442.6 219.7, 442.6 217.0 Q 442.6 214.4, 441.8 213.1 Q 441.1 211.8, 439.6 211.8 Q 438.2 211.8, 437.4 213.1 Q 436.6 214.4, 436.6 217.0 Q 436.6 219.7, 437.4 221.0 Q 438.2 222.3, 439.6 222.3 " fill="#000000"/>
<path class="atom-30" d="M 445.0 297.2 L 446.8 297.2 L 446.8 302.8 L 453.5 302.8 L 453.5 297.2 L 455.3 297.2 L 455.3 310.4 L 453.5 310.4 L 453.5 304.3 L 446.8 304.3 L 446.8 310.4 L 445.0 310.4 L 445.0 297.2 " fill="#000000"/>
<path class="atom-30" d="M 456.7 308.2 L 458.6 308.2 L 458.6 310.1 L 456.7 310.1 L 456.7 308.2 M 456.7 301.8 L 458.6 301.8 L 458.6 303.7 L 456.7 303.7 L 456.7 301.8 " fill="#000000"/>
<path class="atom-30" d="M 465.7 303.5 Q 467.0 303.8, 467.7 304.7 Q 468.3 305.5, 468.3 306.8 Q 468.3 307.9, 467.7 308.8 Q 467.2 309.7, 466.1 310.1 Q 465.1 310.6, 463.8 310.6 Q 462.3 310.6, 461.3 310.1 Q 460.2 309.6, 459.4 308.6 L 460.5 307.5 Q 461.3 308.4, 462.0 308.8 Q 462.7 309.1, 463.8 309.1 Q 465.0 309.1, 465.7 308.5 Q 466.4 307.8, 466.4 306.8 Q 466.4 305.4, 465.7 304.8 Q 464.9 304.2, 463.3 304.2 L 462.3 304.2 L 462.3 302.9 L 463.2 302.9 Q 464.6 302.9, 465.4 302.2 Q 466.1 301.6, 466.1 300.4 Q 466.1 299.6, 465.5 299.1 Q 464.9 298.5, 463.8 298.5 Q 462.7 298.5, 462.0 298.9 Q 461.3 299.3, 460.8 300.3 L 459.5 299.6 Q 460.0 298.5, 461.1 297.8 Q 462.2 297.1, 463.8 297.1 Q 465.7 297.1, 466.9 298.0 Q 468.0 298.9, 468.0 300.4 Q 468.0 301.5, 467.4 302.3 Q 466.8 303.0, 465.7 303.5 " fill="#000000"/>
<path class="atom-30" d="M 470.0 308.9 L 472.9 308.9 L 472.9 299.1 L 469.7 300.0 L 469.3 298.9 L 473.3 297.1 L 474.7 297.3 L 474.7 308.9 L 477.3 308.9 L 477.3 310.4 L 470.0 310.4 L 470.0 308.9 " fill="#000000"/>
<path class="atom-31" d="M 22.7 280.4 L 24.5 280.4 L 24.5 286.0 L 31.3 286.0 L 31.3 280.4 L 33.1 280.4 L 33.1 293.6 L 31.3 293.6 L 31.3 287.5 L 24.5 287.5 L 24.5 293.6 L 22.7 293.6 L 22.7 280.4 " fill="#000000"/>
<path class="atom-31" d="M 34.5 291.4 L 36.3 291.4 L 36.3 293.3 L 34.5 293.3 L 34.5 291.4 M 34.5 285.0 L 36.3 285.0 L 36.3 286.9 L 34.5 286.9 L 34.5 285.0 " fill="#000000"/>
<path class="atom-31" d="M 43.5 286.7 Q 44.8 287.0, 45.4 287.9 Q 46.0 288.7, 46.0 290.0 Q 46.0 291.1, 45.5 292.0 Q 44.9 292.9, 43.9 293.4 Q 42.9 293.8, 41.5 293.8 Q 40.1 293.8, 39.0 293.3 Q 38.0 292.8, 37.1 291.8 L 38.2 290.7 Q 39.0 291.6, 39.7 292.0 Q 40.4 292.3, 41.5 292.3 Q 42.7 292.3, 43.4 291.7 Q 44.2 291.0, 44.2 290.0 Q 44.2 288.6, 43.4 288.0 Q 42.6 287.4, 41.0 287.4 L 40.1 287.4 L 40.1 286.1 L 40.9 286.1 Q 42.3 286.1, 43.1 285.5 Q 43.9 284.8, 43.9 283.6 Q 43.9 282.8, 43.2 282.3 Q 42.6 281.8, 41.5 281.8 Q 40.4 281.8, 39.7 282.1 Q 39.1 282.5, 38.5 283.5 L 37.2 282.8 Q 37.7 281.7, 38.8 281.0 Q 40.0 280.3, 41.5 280.3 Q 43.5 280.3, 44.6 281.2 Q 45.7 282.1, 45.7 283.6 Q 45.7 284.7, 45.2 285.5 Q 44.6 286.2, 43.5 286.7 " fill="#000000"/>
<path class="atom-31" d="M 47.0 282.9 Q 47.5 281.7, 48.6 281.0 Q 49.8 280.3, 51.4 280.3 Q 53.4 280.3, 54.5 281.3 Q 55.6 282.4, 55.6 284.3 Q 55.6 286.3, 54.2 288.1 Q 52.8 290.0, 49.8 292.1 L 55.9 292.1 L 55.9 293.6 L 47.0 293.6 L 47.0 292.4 Q 49.4 290.6, 50.9 289.3 Q 52.4 288.0, 53.1 286.8 Q 53.8 285.7, 53.8 284.4 Q 53.8 283.2, 53.1 282.5 Q 52.5 281.8, 51.4 281.8 Q 50.3 281.8, 49.6 282.2 Q 48.9 282.6, 48.4 283.6 L 47.0 282.9 " fill="#000000"/>
<path class="atom-32" d="M 313.5 178.8 L 315.3 178.8 L 315.3 184.5 L 322.1 184.5 L 322.1 178.8 L 323.9 178.8 L 323.9 192.1 L 322.1 192.1 L 322.1 186.0 L 315.3 186.0 L 315.3 192.1 L 313.5 192.1 L 313.5 178.8 " fill="#000000"/>
<path class="atom-32" d="M 325.3 189.9 L 327.2 189.9 L 327.2 191.7 L 325.3 191.7 L 325.3 189.9 M 325.3 183.4 L 327.2 183.4 L 327.2 185.3 L 325.3 185.3 L 325.3 183.4 " fill="#000000"/>
<path class="atom-32" d="M 334.3 185.1 Q 335.6 185.5, 336.2 186.3 Q 336.8 187.1, 336.8 188.4 Q 336.8 189.6, 336.3 190.4 Q 335.7 191.3, 334.7 191.8 Q 333.7 192.2, 332.3 192.2 Q 330.9 192.2, 329.8 191.8 Q 328.8 191.3, 327.9 190.2 L 329.0 189.2 Q 329.8 190.1, 330.5 190.4 Q 331.2 190.8, 332.3 190.8 Q 333.5 190.8, 334.2 190.1 Q 335.0 189.5, 335.0 188.4 Q 335.0 187.1, 334.2 186.5 Q 333.5 185.9, 331.8 185.9 L 330.9 185.9 L 330.9 184.5 L 331.7 184.5 Q 333.2 184.5, 333.9 183.9 Q 334.7 183.2, 334.7 182.1 Q 334.7 181.2, 334.1 180.7 Q 333.4 180.2, 332.3 180.2 Q 331.2 180.2, 330.5 180.6 Q 329.9 181.0, 329.3 182.0 L 328.1 181.3 Q 328.5 180.2, 329.6 179.4 Q 330.8 178.7, 332.3 178.7 Q 334.3 178.7, 335.4 179.6 Q 336.6 180.5, 336.6 182.1 Q 336.6 183.1, 336.0 183.9 Q 335.4 184.7, 334.3 185.1 " fill="#000000"/>
<path class="atom-32" d="M 344.0 185.1 Q 345.3 185.5, 345.9 186.3 Q 346.5 187.1, 346.5 188.4 Q 346.5 189.6, 346.0 190.4 Q 345.4 191.3, 344.4 191.8 Q 343.3 192.2, 342.0 192.2 Q 340.6 192.2, 339.5 191.8 Q 338.5 191.3, 337.6 190.2 L 338.7 189.2 Q 339.5 190.1, 340.2 190.4 Q 340.9 190.8, 342.0 190.8 Q 343.2 190.8, 343.9 190.1 Q 344.6 189.5, 344.6 188.4 Q 344.6 187.1, 343.9 186.5 Q 343.1 185.9, 341.5 185.9 L 340.6 185.9 L 340.6 184.5 L 341.4 184.5 Q 342.8 184.5, 343.6 183.9 Q 344.4 183.2, 344.4 182.1 Q 344.4 181.2, 343.7 180.7 Q 343.1 180.2, 342.0 180.2 Q 340.9 180.2, 340.2 180.6 Q 339.5 181.0, 339.0 182.0 L 337.7 181.3 Q 338.2 180.2, 339.3 179.4 Q 340.4 178.7, 342.0 178.7 Q 344.0 178.7, 345.1 179.6 Q 346.2 180.5, 346.2 182.1 Q 346.2 183.1, 345.7 183.9 Q 345.1 184.7, 344.0 185.1 " fill="#000000"/>
<path class="atom-33" d="M 249.3 106.4 L 251.0 106.4 L 251.0 112.0 L 257.8 112.0 L 257.8 106.4 L 259.6 106.4 L 259.6 119.6 L 257.8 119.6 L 257.8 113.5 L 251.0 113.5 L 251.0 119.6 L 249.3 119.6 L 249.3 106.4 " fill="#000000"/>
<path class="atom-33" d="M 261.0 117.4 L 262.9 117.4 L 262.9 119.3 L 261.0 119.3 L 261.0 117.4 M 261.0 111.0 L 262.9 111.0 L 262.9 112.9 L 261.0 112.9 L 261.0 111.0 " fill="#000000"/>
<path class="atom-33" d="M 270.0 112.6 Q 271.3 113.0, 271.9 113.9 Q 272.6 114.7, 272.6 116.0 Q 272.6 117.1, 272.0 118.0 Q 271.4 118.8, 270.4 119.3 Q 269.4 119.8, 268.0 119.8 Q 266.6 119.8, 265.5 119.3 Q 264.5 118.8, 263.7 117.8 L 264.7 116.7 Q 265.5 117.6, 266.2 118.0 Q 266.9 118.3, 268.0 118.3 Q 269.2 118.3, 270.0 117.7 Q 270.7 117.0, 270.7 116.0 Q 270.7 114.6, 269.9 114.0 Q 269.2 113.4, 267.5 113.4 L 266.6 113.4 L 266.6 112.1 L 267.4 112.1 Q 268.9 112.0, 269.6 111.4 Q 270.4 110.8, 270.4 109.6 Q 270.4 108.8, 269.8 108.3 Q 269.1 107.7, 268.0 107.7 Q 266.9 107.7, 266.3 108.1 Q 265.6 108.5, 265.1 109.5 L 263.8 108.8 Q 264.2 107.7, 265.4 107.0 Q 266.5 106.2, 268.0 106.2 Q 270.0 106.2, 271.1 107.1 Q 272.3 108.1, 272.3 109.6 Q 272.3 110.7, 271.7 111.4 Q 271.1 112.2, 270.0 112.6 " fill="#000000"/>
<path class="atom-33" d="M 281.7 115.1 L 283.3 115.1 L 283.3 116.6 L 281.7 116.6 L 281.7 119.6 L 280.0 119.6 L 280.0 116.6 L 273.1 116.6 L 273.1 115.4 L 278.9 106.4 L 281.7 106.4 L 281.7 115.1 M 275.3 115.1 L 280.0 115.1 L 280.0 107.6 L 275.3 115.1 " fill="#000000"/>
<text x="288.35692593645194" y="280.3394739862082" font-size="12" font-family="Verdana" font-weight="bold" letter-spacing="0" text-anchor="start" fill="black" transform=" rotate(-81.770853 288.356926 280.339474)">1.0295</text><text x="25" y="490" font-size="12" font-family="Verdana" font-weight="bold" letter-spacing="0" text-anchor="start" fill="black">[#7:1](/[#6:2](-[#6:3]1:[#6:4](:[#6:18](:[#6:20](:[#6:19](:[#6:6]:1-[H:22])-[H:30])-[H:31])-[H:29])-[H:21])=[#6:5]1/[#6:14](=[#6:17](-[#7:15](-[#6:16]-1=[#8:28])-[H:27])-[H:34])-[H:33])(-[#6:7]1:[#6:8](:[#6:10](:[#6:12](:[#6:11](:[#6:9]:1-[H:24])-[H:26])-[H:32])-[H:25])-[H:23])-[H:13]</text></svg>
