<?xml version='1.0' encoding='ASCII' standalone='yes'?>
<svg xmlns="http://www.w3.org/2000/svg" xmlns:rdkit="http://www.rdkit.org/xml" xmlns:xlink="http://www.w3.org/1999/xlink" version="1.1" baseProfile="full" xml:space="preserve" width="500px" height="500px" viewBox="0 0 500 500">
<!-- END OF HEADER -->
<rect style="opacity:1.0;fill:#FFFFFF;stroke:none" width="500" height="500" x="0" y="0"> </rect>
<path d="M 169.569,249.855 L 215.205,328.899" style="fill:none;fill-rule:evenodd;stroke:#FF7F7F;stroke-width:19.5px;stroke-linecap:butt;stroke-linejoin:miter;stroke-opacity:1"/>
<path class="bond-0 atom-1 atom-0" d="M 369.41,249.855 L 431.424,249.855" style="fill:none;fill-rule:evenodd;stroke:#000000;stroke-width:2.0px;stroke-linecap:butt;stroke-linejoin:miter;stroke-opacity:1"/>
<path class="bond-8 atom-5 atom-1" d="M 315.341,313.547 L 343.317,265.092" style="fill:none;fill-rule:evenodd;stroke:#000000;stroke-width:2.0px;stroke-linecap:butt;stroke-linejoin:miter;stroke-opacity:1"/>
<path class="bond-8 atom-5 atom-1" d="M 303.729,297.152 L 323.311,263.233" style="fill:none;fill-rule:evenodd;stroke:#000000;stroke-width:2.0px;stroke-linecap:butt;stroke-linejoin:miter;stroke-opacity:1"/>
<path class="bond-10 atom-6 atom-1" d="M 315.341,186.162 L 347.875,242.512" style="fill:none;fill-rule:evenodd;stroke:#000000;stroke-width:2.0px;stroke-linecap:butt;stroke-linejoin:miter;stroke-opacity:1"/>
<path class="bond-1 atom-2 atom-3" d="M 178.643,265.572 L 209.455,318.94" style="fill:none;fill-rule:evenodd;stroke:#000000;stroke-width:2.0px;stroke-linecap:butt;stroke-linejoin:miter;stroke-opacity:1"/>
<path class="bond-1 atom-2 atom-3" d="M 199.074,264.45 L 220.642,301.808" style="fill:none;fill-rule:evenodd;stroke:#000000;stroke-width:2.0px;stroke-linecap:butt;stroke-linejoin:miter;stroke-opacity:1"/>
<path class="bond-2 atom-2 atom-4" d="M 178.432,234.503 L 206.408,186.048" style="fill:none;fill-rule:evenodd;stroke:#000000;stroke-width:2.0px;stroke-linecap:butt;stroke-linejoin:miter;stroke-opacity:1"/>
<path class="bond-3 atom-2 atom-9" d="M 136.851,249.855 L 89.216,249.855" style="fill:none;fill-rule:evenodd;stroke:#000000;stroke-width:2.0px;stroke-linecap:butt;stroke-linejoin:miter;stroke-opacity:1"/>
<path class="bond-4 atom-3 atom-5" d="M 233.463,328.899 L 273.671,328.899" style="fill:none;fill-rule:evenodd;stroke:#000000;stroke-width:2.0px;stroke-linecap:butt;stroke-linejoin:miter;stroke-opacity:1"/>
<path class="bond-5 atom-3 atom-10" d="M 206.7,343.63 L 178.145,393.09" style="fill:none;fill-rule:evenodd;stroke:#000000;stroke-width:2.0px;stroke-linecap:butt;stroke-linejoin:miter;stroke-opacity:1"/>
<path class="bond-6 atom-4 atom-6" d="M 232.447,170.81 L 274.574,170.81" style="fill:none;fill-rule:evenodd;stroke:#000000;stroke-width:2.0px;stroke-linecap:butt;stroke-linejoin:miter;stroke-opacity:1"/>
<path class="bond-6 atom-4 atom-6" d="M 238.766,189.065 L 268.255,189.065" style="fill:none;fill-rule:evenodd;stroke:#000000;stroke-width:2.0px;stroke-linecap:butt;stroke-linejoin:miter;stroke-opacity:1"/>
<path class="bond-7 atom-4 atom-7" d="M 206.342,155.458 L 178.387,107.04" style="fill:none;fill-rule:evenodd;stroke:#000000;stroke-width:2.0px;stroke-linecap:butt;stroke-linejoin:miter;stroke-opacity:1"/>
<path class="bond-9 atom-5 atom-8" d="M 315.51,344.543 L 343.68,393.335" style="fill:none;fill-rule:evenodd;stroke:#000000;stroke-width:2.0px;stroke-linecap:butt;stroke-linejoin:miter;stroke-opacity:1"/>
<path class="bond-11 atom-6 atom-11" d="M 315.173,155.75 L 343.501,106.683" style="fill:none;fill-rule:evenodd;stroke:#000000;stroke-width:2.0px;stroke-linecap:butt;stroke-linejoin:miter;stroke-opacity:1"/>
<path class="atom-0" d="M 433.274 237.004 L 436.778 237.004 L 436.778 247.993 L 449.995 247.993 L 449.995 237.004 L 453.5 237.004 L 453.5 262.852 L 449.995 262.852 L 449.995 250.913 L 436.778 250.913 L 436.778 262.852 L 433.274 262.852 L 433.274 237.004 " fill="#000000"/>
<path class="atom-0" d="M 456.238 258.58 L 459.889 258.58 L 459.889 262.231 L 456.238 262.231 L 456.238 258.58 M 456.238 246.021 L 459.889 246.021 L 459.889 249.672 L 456.238 249.672 L 456.238 246.021 " fill="#000000"/>
<path class="atom-0" d="M 463.284 259.931 L 468.943 259.931 L 468.943 240.618 L 462.7 242.553 L 461.86 240.399 L 469.783 236.858 L 472.375 237.296 L 472.375 259.931 L 477.449 259.931 L 477.449 262.852 L 463.284 262.852 L 463.284 259.931 " fill="#000000"/>
<path class="atom-1" d="M 321.565 249.964 Q 321.565 243.539, 324.559 240.18 Q 327.589 236.784, 333.321 236.784 Q 338.651 236.784, 341.499 240.545 L 339.089 242.516 Q 337.008 239.778, 333.321 239.778 Q 329.414 239.778, 327.333 242.407 Q 325.289 244.999, 325.289 249.964 Q 325.289 255.076, 327.406 257.704 Q 329.561 260.333, 333.723 260.333 Q 336.57 260.333, 339.893 258.617 L 340.915 261.355 Q 339.564 262.231, 337.519 262.742 Q 335.475 263.254, 333.211 263.254 Q 327.589 263.254, 324.559 259.822 Q 321.565 256.39, 321.565 249.964 " fill="#000000"/>
<path class="atom-1" d="M 344.237 258.653 L 347.888 258.653 L 347.888 262.304 L 344.237 262.304 L 344.237 258.653 M 344.237 246.094 L 347.888 246.094 L 347.888 249.745 L 344.237 249.745 L 344.237 246.094 " fill="#000000"/>
<path class="atom-1" d="M 349.787 241.969 Q 350.736 239.523, 352.999 238.172 Q 355.263 236.784, 358.403 236.784 Q 362.309 236.784, 364.5 238.902 Q 366.69 241.02, 366.69 244.78 Q 366.69 248.613, 363.842 252.191 Q 361.031 255.769, 355.19 260.004 L 367.128 260.004 L 367.128 262.925 L 349.713 262.925 L 349.713 260.479 Q 354.533 257.047, 357.38 254.491 Q 360.265 251.936, 361.652 249.636 Q 363.039 247.336, 363.039 244.963 Q 363.039 242.48, 361.798 241.093 Q 360.557 239.705, 358.403 239.705 Q 356.322 239.705, 354.934 240.545 Q 353.547 241.385, 352.561 243.247 L 349.787 241.969 " fill="#000000"/>
<path class="atom-2" d="M 139.132 249.964 Q 139.132 243.539, 142.126 240.18 Q 145.156 236.784, 150.888 236.784 Q 156.219 236.784, 159.066 240.545 L 156.657 242.516 Q 154.576 239.778, 150.888 239.778 Q 146.982 239.778, 144.901 242.407 Q 142.856 244.999, 142.856 249.964 Q 142.856 255.076, 144.974 257.704 Q 147.128 260.333, 151.29 260.333 Q 154.138 260.333, 157.46 258.617 L 158.482 261.355 Q 157.131 262.231, 155.087 262.742 Q 153.042 263.254, 150.779 263.254 Q 145.156 263.254, 142.126 259.822 Q 139.132 256.39, 139.132 249.964 " fill="#000000"/>
<path class="atom-2" d="M 161.805 258.653 L 165.455 258.653 L 165.455 262.304 L 161.805 262.304 L 161.805 258.653 M 161.805 246.094 L 165.455 246.094 L 165.455 249.745 L 161.805 249.745 L 161.805 246.094 " fill="#000000"/>
<path class="atom-2" d="M 179.402 249.307 Q 181.921 250.037, 183.126 251.68 Q 184.367 253.287, 184.367 255.842 Q 184.367 258.033, 183.272 259.749 Q 182.177 261.428, 180.169 262.377 Q 178.161 263.29, 175.532 263.29 Q 172.757 263.29, 170.676 262.341 Q 168.632 261.355, 166.989 259.384 L 169.07 257.266 Q 170.676 259.018, 172.027 259.712 Q 173.378 260.369, 175.532 260.369 Q 177.869 260.369, 179.292 259.128 Q 180.716 257.85, 180.716 255.806 Q 180.716 253.177, 179.219 252.009 Q 177.759 250.804, 174.583 250.804 L 172.721 250.804 L 172.721 248.175 L 174.364 248.175 Q 177.175 248.139, 178.672 246.934 Q 180.169 245.693, 180.169 243.393 Q 180.169 241.713, 178.927 240.727 Q 177.686 239.705, 175.568 239.705 Q 173.414 239.705, 172.064 240.472 Q 170.749 241.239, 169.727 243.174 L 167.208 241.823 Q 168.121 239.669, 170.311 238.245 Q 172.502 236.784, 175.568 236.784 Q 179.365 236.784, 181.592 238.573 Q 183.82 240.362, 183.82 243.393 Q 183.82 245.474, 182.688 246.971 Q 181.556 248.467, 179.402 249.307 " fill="#000000"/>
<path class="atom-3" d="M 183.865 329.009 Q 183.865 322.583, 186.859 319.224 Q 189.889 315.829, 195.621 315.829 Q 200.951 315.829, 203.799 319.589 L 201.389 321.561 Q 199.308 318.823, 195.621 318.823 Q 191.715 318.823, 189.634 321.451 Q 187.589 324.043, 187.589 329.009 Q 187.589 334.12, 189.707 336.749 Q 191.861 339.377, 196.023 339.377 Q 198.87 339.377, 202.193 337.661 L 203.215 340.399 Q 201.864 341.276, 199.82 341.787 Q 197.775 342.298, 195.512 342.298 Q 189.889 342.298, 186.859 338.866 Q 183.865 335.434, 183.865 329.009 " fill="#000000"/>
<path class="atom-3" d="M 206.537 337.698 L 210.188 337.698 L 210.188 341.349 L 206.537 341.349 L 206.537 337.698 M 206.537 325.139 L 210.188 325.139 L 210.188 328.79 L 206.537 328.79 L 206.537 325.139 " fill="#000000"/>
<path class="atom-3" d="M 228.078 333.098 L 231.181 333.098 L 231.181 336.018 L 228.078 336.018 L 228.078 341.969 L 224.646 341.969 L 224.646 336.018 L 211.283 336.018 L 211.283 333.718 L 222.601 316.121 L 228.078 316.121 L 228.078 333.098 M 215.518 333.098 L 224.646 333.098 L 224.646 318.457 L 215.518 333.098 " fill="#000000"/>
<path class="atom-4" d="M 184.674 170.92 Q 184.674 164.494, 187.668 161.135 Q 190.698 157.74, 196.43 157.74 Q 201.761 157.74, 204.608 161.501 L 202.199 163.472 Q 200.118 160.734, 196.43 160.734 Q 192.524 160.734, 190.443 163.363 Q 188.398 165.955, 188.398 170.92 Q 188.398 176.031, 190.516 178.66 Q 192.67 181.288, 196.832 181.288 Q 199.68 181.288, 203.002 179.573 L 204.024 182.311 Q 202.673 183.187, 200.629 183.698 Q 198.584 184.209, 196.321 184.209 Q 190.698 184.209, 187.668 180.777 Q 184.674 177.345, 184.674 170.92 " fill="#000000"/>
<path class="atom-4" d="M 207.347 179.609 L 210.997 179.609 L 210.997 183.26 L 207.347 183.26 L 207.347 179.609 M 207.347 167.05 L 210.997 167.05 L 210.997 170.701 L 207.347 170.701 L 207.347 167.05 " fill="#000000"/>
<path class="atom-4" d="M 222.06 167.707 Q 224.323 167.707, 226.185 168.693 Q 228.047 169.642, 229.106 171.468 Q 230.165 173.256, 230.165 175.703 Q 230.165 178.368, 228.85 180.303 Q 227.573 182.201, 225.455 183.187 Q 223.338 184.173, 220.928 184.173 Q 218.555 184.173, 216.364 183.296 Q 214.174 182.42, 212.677 180.741 L 214.867 178.477 Q 216.072 179.792, 217.715 180.522 Q 219.358 181.215, 221.037 181.215 Q 223.338 181.215, 224.907 179.792 Q 226.514 178.368, 226.514 175.776 Q 226.514 173.037, 224.907 171.76 Q 223.338 170.445, 220.818 170.445 Q 218.555 170.445, 216.036 171.431 L 214.028 170.482 L 215.269 158.032 L 228.558 158.032 L 228.193 160.953 L 218.263 160.953 L 217.496 168.62 Q 219.796 167.707, 222.06 167.707 " fill="#000000"/>
<path class="atom-5" d="M 275.497 329.009 Q 275.497 322.583, 278.49 319.224 Q 281.521 315.829, 287.253 315.829 Q 292.583 315.829, 295.431 319.589 L 293.021 321.561 Q 290.94 318.823, 287.253 318.823 Q 283.346 318.823, 281.265 321.451 Q 279.221 324.043, 279.221 329.009 Q 279.221 334.12, 281.338 336.749 Q 283.492 339.377, 287.654 339.377 Q 290.502 339.377, 293.824 337.661 L 294.847 340.399 Q 293.496 341.276, 291.451 341.787 Q 289.407 342.298, 287.143 342.298 Q 281.521 342.298, 278.49 338.866 Q 275.497 335.434, 275.497 329.009 " fill="#000000"/>
<path class="atom-5" d="M 298.169 337.698 L 301.82 337.698 L 301.82 341.349 L 298.169 341.349 L 298.169 337.698 M 298.169 325.139 L 301.82 325.139 L 301.82 328.79 L 298.169 328.79 L 298.169 325.139 " fill="#000000"/>
<path class="atom-5" d="M 314.415 325.832 Q 316.679 325.832, 318.468 326.818 Q 320.257 327.804, 321.243 329.593 Q 322.228 331.382, 322.228 333.645 Q 322.228 336.164, 321.097 338.136 Q 320.001 340.071, 318.03 341.166 Q 316.058 342.261, 313.539 342.261 Q 308.939 342.261, 306.602 339.158 Q 304.302 336.018, 304.302 329.812 Q 304.302 322.948, 307.15 319.407 Q 310.034 315.829, 315.547 315.829 Q 317.154 315.829, 318.504 316.194 Q 319.892 316.559, 321.206 317.326 L 319.782 319.772 Q 317.884 318.75, 315.584 318.75 Q 311.933 318.75, 310.071 321.123 Q 308.209 323.459, 307.99 328.315 Q 309.304 327.11, 310.947 326.489 Q 312.626 325.832, 314.415 325.832 M 313.576 339.268 Q 314.963 339.268, 316.095 338.537 Q 317.263 337.807, 317.92 336.529 Q 318.577 335.252, 318.577 333.682 Q 318.577 331.382, 317.3 330.067 Q 316.022 328.753, 313.758 328.753 Q 312.188 328.753, 310.618 329.41 Q 309.085 330.031, 307.99 331.126 Q 308.136 335.398, 309.487 337.333 Q 310.837 339.268, 313.576 339.268 " fill="#000000"/>
<path class="atom-6" d="M 276.425 170.92 Q 276.425 164.494, 279.418 161.135 Q 282.449 157.74, 288.181 157.74 Q 293.511 157.74, 296.359 161.501 L 293.949 163.472 Q 291.868 160.734, 288.181 160.734 Q 284.274 160.734, 282.193 163.363 Q 280.149 165.955, 280.149 170.92 Q 280.149 176.031, 282.266 178.66 Q 284.42 181.288, 288.582 181.288 Q 291.43 181.288, 294.752 179.573 L 295.774 182.311 Q 294.424 183.187, 292.379 183.698 Q 290.335 184.209, 288.071 184.209 Q 282.449 184.209, 279.418 180.777 Q 276.425 177.345, 276.425 170.92 " fill="#000000"/>
<path class="atom-6" d="M 299.097 179.609 L 302.748 179.609 L 302.748 183.26 L 299.097 183.26 L 299.097 179.609 M 299.097 167.05 L 302.748 167.05 L 302.748 170.701 L 299.097 170.701 L 299.097 167.05 " fill="#000000"/>
<path class="atom-6" d="M 316.95 160.953 L 303.405 160.953 L 303.405 158.032 L 320.564 158.032 L 320.564 160.624 L 310.123 183.881 L 306.618 183.881 L 316.95 160.953 " fill="#000000"/>
<path class="atom-7" d="M 131.563 78.9878 L 135.068 78.9878 L 135.068 89.9771 L 148.284 89.9771 L 148.284 78.9878 L 151.789 78.9878 L 151.789 104.836 L 148.284 104.836 L 148.284 92.8978 L 135.068 92.8978 L 135.068 104.836 L 131.563 104.836 L 131.563 78.9878 " fill="#000000"/>
<path class="atom-7" d="M 154.527 100.565 L 158.178 100.565 L 158.178 104.216 L 154.527 104.216 L 154.527 100.565 M 154.527 88.0056 L 158.178 88.0056 L 158.178 91.6565 L 154.527 91.6565 L 154.527 88.0056 " fill="#000000"/>
<path class="atom-7" d="M 173.621 91.1454 Q 175.994 92.1676, 177.345 93.701 Q 178.696 95.1979, 178.696 97.7535 Q 178.696 99.944, 177.564 101.66 Q 176.433 103.339, 174.388 104.289 Q 172.38 105.201, 169.715 105.201 Q 165.407 105.201, 162.924 103.23 Q 160.442 101.222, 160.442 97.7535 Q 160.442 95.636, 161.537 94.0661 Q 162.632 92.4597, 164.896 91.2549 Q 163.216 90.3056, 162.304 88.9183 Q 161.391 87.4944, 161.391 85.3039 Q 161.391 82.2737, 163.581 80.4847 Q 165.808 78.6958, 169.569 78.6958 Q 173.329 78.6958, 175.52 80.4847 Q 177.747 82.2737, 177.747 85.3039 Q 177.747 87.2024, 176.688 88.6262 Q 175.666 90.0136, 173.621 91.1454 M 169.569 81.434 Q 167.415 81.434, 166.21 82.4562 Q 165.042 83.4785, 165.042 85.3039 Q 165.042 86.6547, 165.845 87.5675 Q 166.648 88.4437, 167.78 88.9548 Q 168.948 89.4659, 171.175 90.2326 Q 172.745 89.1374, 173.402 87.9691 Q 174.096 86.8008, 174.096 85.3039 Q 174.096 83.4785, 172.891 82.4562 Q 171.723 81.434, 169.569 81.434 M 169.715 102.463 Q 172.124 102.463, 173.585 101.185 Q 175.045 99.871, 175.045 97.717 Q 175.045 96.3296, 174.279 95.4534 Q 173.512 94.5772, 172.344 94.0661 Q 171.212 93.5549, 169.167 92.8978 L 167.524 92.3501 Q 165.699 93.4454, 164.896 94.7597 Q 164.092 96.0376, 164.092 97.717 Q 164.092 99.871, 165.626 101.185 Q 167.159 102.463, 169.715 102.463 " fill="#000000"/>
<path class="atom-8" d="M 342.001 395.165 L 345.506 395.165 L 345.506 406.154 L 358.722 406.154 L 358.722 395.165 L 362.227 395.165 L 362.227 421.014 L 358.722 421.014 L 358.722 409.075 L 345.506 409.075 L 345.506 421.014 L 342.001 421.014 L 342.001 395.165 " fill="#000000"/>
<path class="atom-8" d="M 364.965 416.742 L 368.616 416.742 L 368.616 420.393 L 364.965 420.393 L 364.965 416.742 M 364.965 404.183 L 368.616 404.183 L 368.616 407.834 L 364.965 407.834 L 364.965 404.183 " fill="#000000"/>
<path class="atom-8" d="M 379.313 394.873 Q 383.913 394.873, 386.213 398.013 Q 388.55 401.116, 388.55 407.323 Q 388.55 414.186, 385.666 417.764 Q 382.818 421.306, 377.305 421.306 Q 375.699 421.306, 374.311 420.941 Q 372.961 420.576, 371.646 419.809 L 373.07 417.363 Q 374.969 418.385, 377.269 418.385 Q 380.92 418.385, 382.782 416.048 Q 384.644 413.675, 384.863 408.82 Q 383.548 410.024, 381.869 410.682 Q 380.226 411.302, 378.437 411.302 Q 376.173 411.302, 374.384 410.317 Q 372.596 409.331, 371.61 407.542 Q 370.624 405.753, 370.624 403.489 Q 370.624 400.97, 371.719 399.035 Q 372.851 397.064, 374.823 395.968 Q 376.794 394.873, 379.313 394.873 M 374.275 403.453 Q 374.275 405.753, 375.553 407.067 Q 376.831 408.382, 379.094 408.382 Q 380.664 408.382, 382.197 407.761 Q 383.767 407.104, 384.863 406.008 Q 384.717 401.737, 383.366 399.802 Q 382.015 397.867, 379.277 397.867 Q 377.889 397.867, 376.721 398.597 Q 375.589 399.327, 374.932 400.605 Q 374.275 401.883, 374.275 403.453 " fill="#000000"/>
<path class="atom-9" d="M 22.4375 237.077 L 25.9423 237.077 L 25.9423 248.066 L 39.1586 248.066 L 39.1586 237.077 L 42.6635 237.077 L 42.6635 262.925 L 39.1586 262.925 L 39.1586 250.987 L 25.9423 250.987 L 25.9423 262.925 L 22.4375 262.925 L 22.4375 237.077 " fill="#000000"/>
<path class="atom-9" d="M 45.4016 258.653 L 49.0525 258.653 L 49.0525 262.304 L 45.4016 262.304 L 45.4016 258.653 M 45.4016 246.094 L 49.0525 246.094 L 49.0525 249.745 L 45.4016 249.745 L 45.4016 246.094 " fill="#000000"/>
<path class="atom-9" d="M 52.4479 260.004 L 58.1068 260.004 L 58.1068 240.691 L 51.8637 242.626 L 51.024 240.472 L 58.9465 236.931 L 61.5386 237.369 L 61.5386 260.004 L 66.6134 260.004 L 66.6134 262.925 L 52.4479 262.925 L 52.4479 260.004 " fill="#000000"/>
<path class="atom-9" d="M 78.2963 263.217 Q 73.5501 263.217, 71.177 259.712 Q 68.8404 256.207, 68.8404 249.964 Q 68.8404 243.721, 71.177 240.253 Q 73.5136 236.784, 78.2963 236.784 Q 83.079 236.784, 85.4155 240.253 Q 87.7521 243.721, 87.7521 249.964 Q 87.7521 256.207, 85.379 259.712 Q 83.0425 263.217, 78.2963 263.217 M 78.2963 260.296 Q 81.1075 260.296, 82.6043 257.704 Q 84.1012 255.076, 84.1012 249.964 Q 84.1012 244.889, 82.6043 242.297 Q 81.1075 239.705, 78.2963 239.705 Q 75.5216 239.705, 73.9882 242.297 Q 72.4913 244.889, 72.4913 249.964 Q 72.4913 255.076, 73.9882 257.704 Q 75.5216 260.296, 78.2963 260.296 " fill="#000000"/>
<path class="atom-10" d="M 115.627 395.092 L 119.132 395.092 L 119.132 406.081 L 132.348 406.081 L 132.348 395.092 L 135.853 395.092 L 135.853 420.941 L 132.348 420.941 L 132.348 409.002 L 119.132 409.002 L 119.132 420.941 L 115.627 420.941 L 115.627 395.092 " fill="#000000"/>
<path class="atom-10" d="M 138.591 416.669 L 142.242 416.669 L 142.242 420.32 L 138.591 420.32 L 138.591 416.669 M 138.591 404.11 L 142.242 404.11 L 142.242 407.761 L 138.591 407.761 L 138.591 404.11 " fill="#000000"/>
<path class="atom-10" d="M 145.637 418.02 L 151.296 418.02 L 151.296 398.707 L 145.053 400.642 L 144.213 398.488 L 152.136 394.946 L 154.728 395.384 L 154.728 418.02 L 159.803 418.02 L 159.803 420.941 L 145.637 420.941 L 145.637 418.02 " fill="#000000"/>
<path class="atom-10" d="M 163.198 418.02 L 168.857 418.02 L 168.857 398.707 L 162.614 400.642 L 161.774 398.488 L 169.697 394.946 L 172.289 395.384 L 172.289 418.02 L 177.364 418.02 L 177.364 420.941 L 163.198 420.941 L 163.198 418.02 " fill="#000000"/>
<path class="atom-11" d="M 342.001 78.9878 L 345.506 78.9878 L 345.506 89.9771 L 358.722 89.9771 L 358.722 78.9878 L 362.227 78.9878 L 362.227 104.836 L 358.722 104.836 L 358.722 92.8978 L 345.506 92.8978 L 345.506 104.836 L 342.001 104.836 L 342.001 78.9878 " fill="#000000"/>
<path class="atom-11" d="M 364.965 100.565 L 368.616 100.565 L 368.616 104.216 L 364.965 104.216 L 364.965 100.565 M 364.965 88.0056 L 368.616 88.0056 L 368.616 91.6565 L 364.965 91.6565 L 364.965 88.0056 " fill="#000000"/>
<path class="atom-11" d="M 372.011 101.916 L 377.67 101.916 L 377.67 82.6022 L 371.427 84.5372 L 370.588 82.3832 L 378.51 78.8418 L 381.102 79.2799 L 381.102 101.916 L 386.177 101.916 L 386.177 104.836 L 372.011 104.836 L 372.011 101.916 " fill="#000000"/>
<path class="atom-11" d="M 388.075 83.8801 Q 389.025 81.434, 391.288 80.0831 Q 393.552 78.6958, 396.691 78.6958 Q 400.598 78.6958, 402.788 80.8133 Q 404.979 82.9308, 404.979 86.6912 Q 404.979 90.5247, 402.131 94.1026 Q 399.32 97.6805, 393.479 101.916 L 405.417 101.916 L 405.417 104.836 L 388.002 104.836 L 388.002 102.39 Q 392.822 98.9583, 395.669 96.4027 Q 398.553 93.847, 399.941 91.547 Q 401.328 89.2469, 401.328 86.8738 Q 401.328 84.3912, 400.087 83.0038 Q 398.846 81.6165, 396.691 81.6165 Q 394.61 81.6165, 393.223 82.4562 Q 391.836 83.2959, 390.85 85.1579 L 388.075 83.8801 " fill="#000000"/>
<text x="192.38698113580392" y="289.3769008734949" font-size="12" font-family="Verdana" font-weight="bold" letter-spacing="0" text-anchor="start" fill="black" transform=" rotate(-30.000000 192.386981 289.376901)">1.4201</text><text x="25" y="490" font-size="12" font-family="Verdana" font-weight="bold" letter-spacing="0" text-anchor="start" fill="black">[H:1]-[#6:2]1:[#6:6](:[#6:4](:[#6:3](:[#6:5](:[#6:7]:1-[H:12])-[H:8])-[H:10])-[H:11])-[H:9]</text></svg>
