<?xml version='1.0' encoding='ASCII' standalone='yes'?>
<svg xmlns="http://www.w3.org/2000/svg" xmlns:rdkit="http://www.rdkit.org/xml" xmlns:xlink="http://www.w3.org/1999/xlink" version="1.1" baseProfile="full" xml:space="preserve" width="500px" height="500px" viewBox="0 0 500 500">
<!-- END OF HEADER -->
<rect style="opacity:1.0;fill:#FFFFFF;stroke:none" width="500" height="500" x="0" y="0"> </rect>
<path d="M 392.511,250.025 L 346.268,292.267" style="fill:none;fill-rule:evenodd;stroke:#FF7F7F;stroke-width:13.4px;stroke-linecap:butt;stroke-linejoin:miter;stroke-opacity:1"/>
<path class="bond-1 atom-1 atom-0" d="M 402.487,259.758 L 421.706,265.851" style="fill:none;fill-rule:evenodd;stroke:#000000;stroke-width:2.0px;stroke-linecap:butt;stroke-linejoin:miter;stroke-opacity:1"/>
<path class="bond-1 atom-1 atom-0" d="M 421.706,265.851 L 440.926,271.944" style="fill:none;fill-rule:evenodd;stroke:#FF0000;stroke-width:2.0px;stroke-linecap:butt;stroke-linejoin:miter;stroke-opacity:1"/>
<path class="bond-1 atom-1 atom-0" d="M 406.273,247.817 L 425.492,253.91" style="fill:none;fill-rule:evenodd;stroke:#000000;stroke-width:2.0px;stroke-linecap:butt;stroke-linejoin:miter;stroke-opacity:1"/>
<path class="bond-1 atom-1 atom-0" d="M 425.492,253.91 L 444.711,260.003" style="fill:none;fill-rule:evenodd;stroke:#FF0000;stroke-width:2.0px;stroke-linecap:butt;stroke-linejoin:miter;stroke-opacity:1"/>
<path class="bond-0 atom-1 atom-10" d="M 390.193,239.49 L 381.31,199.121" style="fill:none;fill-rule:evenodd;stroke:#000000;stroke-width:2.0px;stroke-linecap:butt;stroke-linejoin:miter;stroke-opacity:1"/>
<path class="bond-3 atom-2 atom-1" d="M 357.801,281.732 L 369.48,271.063" style="fill:none;fill-rule:evenodd;stroke:#0000FF;stroke-width:2.0px;stroke-linecap:butt;stroke-linejoin:miter;stroke-opacity:1"/>
<path class="bond-3 atom-2 atom-1" d="M 369.48,271.063 L 381.159,260.395" style="fill:none;fill-rule:evenodd;stroke:#000000;stroke-width:2.0px;stroke-linecap:butt;stroke-linejoin:miter;stroke-opacity:1"/>
<path class="bond-2 atom-2 atom-4" d="M 324.161,285.258 L 310.988,281.082" style="fill:none;fill-rule:evenodd;stroke:#0000FF;stroke-width:2.0px;stroke-linecap:butt;stroke-linejoin:miter;stroke-opacity:1"/>
<path class="bond-2 atom-2 atom-4" d="M 310.988,281.082 L 297.815,276.906" style="fill:none;fill-rule:evenodd;stroke:#000000;stroke-width:2.0px;stroke-linecap:butt;stroke-linejoin:miter;stroke-opacity:1"/>
<path class="bond-4 atom-2 atom-3" d="M 348.641,303.052 L 353.078,323.214" style="fill:none;fill-rule:evenodd;stroke:#0000FF;stroke-width:2.0px;stroke-linecap:butt;stroke-linejoin:miter;stroke-opacity:1"/>
<path class="bond-4 atom-2 atom-3" d="M 353.078,323.214 L 357.515,343.377" style="fill:none;fill-rule:evenodd;stroke:#000000;stroke-width:2.0px;stroke-linecap:butt;stroke-linejoin:miter;stroke-opacity:1"/>
<path class="bond-5 atom-3 atom-11" d="M 372.257,350.678 L 412.712,341.776" style="fill:none;fill-rule:evenodd;stroke:#000000;stroke-width:2.0px;stroke-linecap:butt;stroke-linejoin:miter;stroke-opacity:1"/>
<path class="bond-6 atom-3 atom-12" d="M 336.656,358.512 L 305.497,365.369" style="fill:none;fill-rule:evenodd;stroke:#000000;stroke-width:2.0px;stroke-linecap:butt;stroke-linejoin:miter;stroke-opacity:1"/>
<path class="bond-7 atom-3 atom-13" d="M 362.046,363.97 L 370.963,404.489" style="fill:none;fill-rule:evenodd;stroke:#000000;stroke-width:2.0px;stroke-linecap:butt;stroke-linejoin:miter;stroke-opacity:1"/>
<path class="bond-14 atom-8 atom-4" d="M 275.471,222.931 L 284.35,263.28" style="fill:none;fill-rule:evenodd;stroke:#000000;stroke-width:2.0px;stroke-linecap:butt;stroke-linejoin:miter;stroke-opacity:1"/>
<path class="bond-14 atom-8 atom-4" d="M 264.569,231.675 L 270.785,259.92" style="fill:none;fill-rule:evenodd;stroke:#000000;stroke-width:2.0px;stroke-linecap:butt;stroke-linejoin:miter;stroke-opacity:1"/>
<path class="bond-16 atom-9 atom-4" d="M 251.853,305.046 L 275.212,283.709" style="fill:none;fill-rule:evenodd;stroke:#000000;stroke-width:2.0px;stroke-linecap:butt;stroke-linejoin:miter;stroke-opacity:1"/>
<path class="bond-8 atom-5 atom-6" d="M 178.689,224.95 L 202.047,203.613" style="fill:none;fill-rule:evenodd;stroke:#000000;stroke-width:2.0px;stroke-linecap:butt;stroke-linejoin:miter;stroke-opacity:1"/>
<path class="bond-8 atom-5 atom-6" d="M 190.641,230.998 L 206.992,216.062" style="fill:none;fill-rule:evenodd;stroke:#000000;stroke-width:2.0px;stroke-linecap:butt;stroke-linejoin:miter;stroke-opacity:1"/>
<path class="bond-9 atom-5 atom-7" d="M 169.518,246.22 L 178.359,286.393" style="fill:none;fill-rule:evenodd;stroke:#000000;stroke-width:2.0px;stroke-linecap:butt;stroke-linejoin:miter;stroke-opacity:1"/>
<path class="bond-20 atom-20 atom-5" d="M 125.124,222.16 L 134.959,225.278" style="fill:none;fill-rule:evenodd;stroke:#0000FF;stroke-width:2.0px;stroke-linecap:butt;stroke-linejoin:miter;stroke-opacity:1"/>
<path class="bond-20 atom-20 atom-5" d="M 134.959,225.278 L 144.794,228.395" style="fill:none;fill-rule:evenodd;stroke:#000000;stroke-width:2.0px;stroke-linecap:butt;stroke-linejoin:miter;stroke-opacity:1"/>
<path class="bond-10 atom-6 atom-8" d="M 224.631,196.804 L 264.993,209.599" style="fill:none;fill-rule:evenodd;stroke:#000000;stroke-width:2.0px;stroke-linecap:butt;stroke-linejoin:miter;stroke-opacity:1"/>
<path class="bond-11 atom-6 atom-14" d="M 211.125,182.909 L 202.188,142.295" style="fill:none;fill-rule:evenodd;stroke:#000000;stroke-width:2.0px;stroke-linecap:butt;stroke-linejoin:miter;stroke-opacity:1"/>
<path class="bond-12 atom-7 atom-9" d="M 193.022,300.586 L 211.5,306.444" style="fill:none;fill-rule:evenodd;stroke:#000000;stroke-width:2.0px;stroke-linecap:butt;stroke-linejoin:miter;stroke-opacity:1"/>
<path class="bond-12 atom-7 atom-9" d="M 199.579,289.524 L 212.513,293.625" style="fill:none;fill-rule:evenodd;stroke:#000000;stroke-width:2.0px;stroke-linecap:butt;stroke-linejoin:miter;stroke-opacity:1"/>
<path class="bond-13 atom-7 atom-15" d="M 168.837,307.414 L 141.69,332.211" style="fill:none;fill-rule:evenodd;stroke:#000000;stroke-width:2.0px;stroke-linecap:butt;stroke-linejoin:miter;stroke-opacity:1"/>
<path class="bond-15 atom-8 atom-16" d="M 287.02,202.277 L 295.809,196.029" style="fill:none;fill-rule:evenodd;stroke:#000000;stroke-width:2.0px;stroke-linecap:butt;stroke-linejoin:miter;stroke-opacity:1"/>
<path class="bond-17 atom-9 atom-17" d="M 242.639,326.115 L 251.566,366.685" style="fill:none;fill-rule:evenodd;stroke:#000000;stroke-width:2.0px;stroke-linecap:butt;stroke-linejoin:miter;stroke-opacity:1"/>
<path class="bond-18 atom-10 atom-18" d="M 385.965,187.335 L 431.891,177.229" style="fill:none;fill-rule:evenodd;stroke:#000000;stroke-width:2.0px;stroke-linecap:butt;stroke-linejoin:miter;stroke-opacity:1"/>
<path class="bond-19 atom-10 atom-19" d="M 350.335,198.975 L 344.169,201.148" style="fill:none;fill-rule:evenodd;stroke:#000000;stroke-width:2.0px;stroke-linecap:butt;stroke-linejoin:miter;stroke-opacity:1"/>
<path class="bond-23 atom-21 atom-10" d="M 367.908,138.222 L 372.361,158.457" style="fill:none;fill-rule:evenodd;stroke:#0000FF;stroke-width:2.0px;stroke-linecap:butt;stroke-linejoin:miter;stroke-opacity:1"/>
<path class="bond-23 atom-21 atom-10" d="M 372.361,158.457 L 376.814,178.691" style="fill:none;fill-rule:evenodd;stroke:#000000;stroke-width:2.0px;stroke-linecap:butt;stroke-linejoin:miter;stroke-opacity:1"/>
<path class="bond-21 atom-20 atom-22" d="M 96.3854,226.666 L 82.3738,239.465" style="fill:none;fill-rule:evenodd;stroke:#0000FF;stroke-width:2.0px;stroke-linecap:butt;stroke-linejoin:miter;stroke-opacity:1"/>
<path class="bond-21 atom-20 atom-22" d="M 82.3738,239.465 L 68.3622,252.264" style="fill:none;fill-rule:evenodd;stroke:#000000;stroke-width:2.0px;stroke-linecap:butt;stroke-linejoin:miter;stroke-opacity:1"/>
<path class="bond-22 atom-20 atom-23" d="M 105.134,206.023 L 100.692,185.838" style="fill:none;fill-rule:evenodd;stroke:#0000FF;stroke-width:2.0px;stroke-linecap:butt;stroke-linejoin:miter;stroke-opacity:1"/>
<path class="bond-22 atom-20 atom-23" d="M 100.692,185.838 L 96.2504,165.654" style="fill:none;fill-rule:evenodd;stroke:#000000;stroke-width:2.0px;stroke-linecap:butt;stroke-linejoin:miter;stroke-opacity:1"/>
<path class="bond-24 atom-21 atom-24" d="M 377.123,117.153 L 390.421,105.006" style="fill:none;fill-rule:evenodd;stroke:#0000FF;stroke-width:2.0px;stroke-linecap:butt;stroke-linejoin:miter;stroke-opacity:1"/>
<path class="bond-24 atom-21 atom-24" d="M 390.421,105.006 L 403.719,92.8587" style="fill:none;fill-rule:evenodd;stroke:#000000;stroke-width:2.0px;stroke-linecap:butt;stroke-linejoin:miter;stroke-opacity:1"/>
<path class="bond-25 atom-21 atom-25" d="M 336.595,118.495 L 324.718,114.73" style="fill:none;fill-rule:evenodd;stroke:#0000FF;stroke-width:2.0px;stroke-linecap:butt;stroke-linejoin:miter;stroke-opacity:1"/>
<path class="bond-25 atom-21 atom-25" d="M 324.718,114.73 L 312.842,110.965" style="fill:none;fill-rule:evenodd;stroke:#000000;stroke-width:2.0px;stroke-linecap:butt;stroke-linejoin:miter;stroke-opacity:1"/>
<path class="atom-0" d="M 444.073 269.002 Q 444.073 264.743, 446.177 262.363 Q 448.282 259.983, 452.215 259.983 Q 456.148 259.983, 458.253 262.363 Q 460.357 264.743, 460.357 269.002 Q 460.357 273.312, 458.228 275.767 Q 456.098 278.197, 452.215 278.197 Q 448.307 278.197, 446.177 275.767 Q 444.073 273.337, 444.073 269.002 M 452.215 276.193 Q 454.921 276.193, 456.374 274.389 Q 457.852 272.56, 457.852 269.002 Q 457.852 265.52, 456.374 263.766 Q 454.921 261.988, 452.215 261.988 Q 449.509 261.988, 448.031 263.741 Q 446.578 265.495, 446.578 269.002 Q 446.578 272.585, 448.031 274.389 Q 449.509 276.193, 452.215 276.193 " fill="#FF0000"/>
<path class="atom-0" d="M 462.236 274.99 L 464.742 274.99 L 464.742 277.495 L 462.236 277.495 L 462.236 274.99 M 462.236 266.372 L 464.742 266.372 L 464.742 268.877 L 462.236 268.877 L 462.236 266.372 " fill="#FF0000"/>
<path class="atom-0" d="M 467.071 275.917 L 470.955 275.917 L 470.955 262.664 L 466.671 263.992 L 466.094 262.514 L 471.531 260.084 L 473.31 260.384 L 473.31 275.917 L 476.792 275.917 L 476.792 277.921 L 467.071 277.921 L 467.071 275.917 " fill="#FF0000"/>
<path class="atom-1" d="M 371.548 250.1 Q 371.548 245.691, 373.602 243.386 Q 375.682 241.056, 379.615 241.056 Q 383.273 241.056, 385.227 243.637 L 383.574 244.989 Q 382.146 243.11, 379.615 243.11 Q 376.935 243.11, 375.507 244.914 Q 374.104 246.693, 374.104 250.1 Q 374.104 253.608, 375.557 255.411 Q 377.035 257.215, 379.891 257.215 Q 381.845 257.215, 384.125 256.038 L 384.826 257.917 Q 383.899 258.518, 382.496 258.869 Q 381.093 259.219, 379.54 259.219 Q 375.682 259.219, 373.602 256.864 Q 371.548 254.51, 371.548 250.1 " fill="#000000"/>
<path class="atom-1" d="M 387.106 256.063 L 389.611 256.063 L 389.611 258.568 L 387.106 258.568 L 387.106 256.063 M 387.106 247.445 L 389.611 247.445 L 389.611 249.95 L 387.106 249.95 L 387.106 247.445 " fill="#000000"/>
<path class="atom-1" d="M 390.914 244.614 Q 391.565 242.935, 393.119 242.008 Q 394.672 241.056, 396.827 241.056 Q 399.507 241.056, 401.01 242.509 Q 402.514 243.962, 402.514 246.543 Q 402.514 249.173, 400.559 251.628 Q 398.63 254.084, 394.622 256.99 L 402.814 256.99 L 402.814 258.994 L 390.864 258.994 L 390.864 257.315 Q 394.171 254.96, 396.125 253.207 Q 398.104 251.453, 399.056 249.875 Q 400.008 248.296, 400.008 246.668 Q 400.008 244.964, 399.156 244.012 Q 398.305 243.06, 396.827 243.06 Q 395.399 243.06, 394.446 243.637 Q 393.494 244.213, 392.818 245.49 L 390.914 244.614 " fill="#000000"/>
<path class="atom-2" d="M 328.532 283.498 L 334.345 292.893 Q 334.921 293.82, 335.848 295.498 Q 336.775 297.177, 336.825 297.277 L 336.825 283.498 L 339.18 283.498 L 339.18 301.235 L 336.75 301.235 L 330.511 290.964 Q 329.785 289.761, 329.008 288.383 Q 328.257 287.005, 328.031 286.58 L 328.031 301.235 L 325.726 301.235 L 325.726 283.498 L 328.532 283.498 " fill="#0000FF"/>
<path class="atom-2" d="M 341.059 298.304 L 343.564 298.304 L 343.564 300.81 L 341.059 300.81 L 341.059 298.304 M 341.059 289.686 L 343.564 289.686 L 343.564 292.191 L 341.059 292.191 L 341.059 289.686 " fill="#0000FF"/>
<path class="atom-2" d="M 353.134 291.891 Q 354.863 292.392, 355.69 293.519 Q 356.541 294.621, 356.541 296.375 Q 356.541 297.878, 355.79 299.056 Q 355.038 300.208, 353.66 300.86 Q 352.282 301.486, 350.479 301.486 Q 348.575 301.486, 347.147 300.835 Q 345.744 300.158, 344.616 298.805 L 346.044 297.352 Q 347.147 298.555, 348.074 299.031 Q 349.001 299.482, 350.479 299.482 Q 352.082 299.482, 353.059 298.63 Q 354.036 297.753, 354.036 296.35 Q 354.036 294.546, 353.009 293.745 Q 352.007 292.918, 349.827 292.918 L 348.55 292.918 L 348.55 291.114 L 349.677 291.114 Q 351.606 291.089, 352.633 290.262 Q 353.66 289.41, 353.66 287.832 Q 353.66 286.68, 352.809 286.003 Q 351.957 285.302, 350.504 285.302 Q 349.026 285.302, 348.099 285.828 Q 347.197 286.354, 346.495 287.682 L 344.767 286.755 Q 345.393 285.277, 346.896 284.3 Q 348.399 283.298, 350.504 283.298 Q 353.109 283.298, 354.637 284.525 Q 356.166 285.753, 356.166 287.832 Q 356.166 289.26, 355.389 290.287 Q 354.612 291.315, 353.134 291.891 " fill="#0000FF"/>
<path class="atom-3" d="M 338.222 353.51 Q 338.222 349.101, 340.277 346.796 Q 342.356 344.466, 346.289 344.466 Q 349.947 344.466, 351.901 347.047 L 350.248 348.4 Q 348.82 346.521, 346.289 346.521 Q 343.609 346.521, 342.181 348.324 Q 340.778 350.103, 340.778 353.51 Q 340.778 357.018, 342.231 358.822 Q 343.709 360.625, 346.565 360.625 Q 348.519 360.625, 350.799 359.448 L 351.5 361.327 Q 350.573 361.928, 349.17 362.279 Q 347.767 362.63, 346.214 362.63 Q 342.356 362.63, 340.277 360.275 Q 338.222 357.92, 338.222 353.51 " fill="#000000"/>
<path class="atom-3" d="M 353.78 359.473 L 356.285 359.473 L 356.285 361.978 L 353.78 361.978 L 353.78 359.473 M 353.78 350.855 L 356.285 350.855 L 356.285 353.36 L 353.78 353.36 L 353.78 350.855 " fill="#000000"/>
<path class="atom-3" d="M 368.561 356.316 L 370.691 356.316 L 370.691 358.321 L 368.561 358.321 L 368.561 362.404 L 366.206 362.404 L 366.206 358.321 L 357.037 358.321 L 357.037 356.742 L 364.803 344.667 L 368.561 344.667 L 368.561 356.316 M 359.943 356.316 L 366.206 356.316 L 366.206 346.27 L 359.943 356.316 " fill="#000000"/>
<path class="atom-4" d="M 265.613 273.414 Q 265.613 269.005, 267.668 266.7 Q 269.747 264.37, 273.68 264.37 Q 277.338 264.37, 279.292 266.951 L 277.639 268.304 Q 276.211 266.425, 273.68 266.425 Q 271 266.425, 269.572 268.228 Q 268.169 270.007, 268.169 273.414 Q 268.169 276.922, 269.622 278.726 Q 271.1 280.529, 273.956 280.529 Q 275.91 280.529, 278.19 279.352 L 278.891 281.231 Q 277.964 281.832, 276.561 282.183 Q 275.158 282.534, 273.605 282.534 Q 269.747 282.534, 267.668 280.179 Q 265.613 277.824, 265.613 273.414 " fill="#000000"/>
<path class="atom-4" d="M 281.171 279.377 L 283.676 279.377 L 283.676 281.882 L 281.171 281.882 L 281.171 279.377 M 281.171 270.759 L 283.676 270.759 L 283.676 273.264 L 281.171 273.264 L 281.171 270.759 " fill="#000000"/>
<path class="atom-4" d="M 291.267 271.21 Q 292.821 271.21, 294.098 271.886 Q 295.376 272.538, 296.103 273.79 Q 296.829 275.018, 296.829 276.696 Q 296.829 278.525, 295.927 279.853 Q 295.05 281.156, 293.597 281.832 Q 292.144 282.509, 290.491 282.509 Q 288.862 282.509, 287.359 281.907 Q 285.856 281.306, 284.829 280.154 L 286.332 278.6 Q 287.159 279.502, 288.286 280.003 Q 289.414 280.479, 290.566 280.479 Q 292.144 280.479, 293.222 279.502 Q 294.324 278.525, 294.324 276.746 Q 294.324 274.867, 293.222 273.991 Q 292.144 273.089, 290.416 273.089 Q 288.862 273.089, 287.134 273.765 L 285.756 273.114 L 286.608 264.571 L 295.727 264.571 L 295.476 266.575 L 288.662 266.575 L 288.136 271.836 Q 289.714 271.21, 291.267 271.21 " fill="#000000"/>
<path class="atom-5" d="M 145.896 235.56 Q 145.896 231.15, 147.951 228.846 Q 150.03 226.516, 153.963 226.516 Q 157.621 226.516, 159.575 229.096 L 157.922 230.449 Q 156.494 228.57, 153.963 228.57 Q 151.283 228.57, 149.855 230.374 Q 148.452 232.153, 148.452 235.56 Q 148.452 239.067, 149.905 240.871 Q 151.383 242.675, 154.239 242.675 Q 156.193 242.675, 158.473 241.497 L 159.174 243.376 Q 158.248 243.978, 156.845 244.328 Q 155.442 244.679, 153.888 244.679 Q 150.03 244.679, 147.951 242.324 Q 145.896 239.969, 145.896 235.56 " fill="#000000"/>
<path class="atom-5" d="M 161.454 241.522 L 163.96 241.522 L 163.96 244.028 L 161.454 244.028 L 161.454 241.522 M 161.454 232.904 L 163.96 232.904 L 163.96 235.409 L 161.454 235.409 L 161.454 232.904 " fill="#000000"/>
<path class="atom-5" d="M 172.603 233.38 Q 174.156 233.38, 175.384 234.057 Q 176.611 234.733, 177.288 235.961 Q 177.964 237.188, 177.964 238.741 Q 177.964 240.47, 177.188 241.823 Q 176.436 243.151, 175.083 243.902 Q 173.73 244.654, 172.002 244.654 Q 168.845 244.654, 167.242 242.524 Q 165.663 240.37, 165.663 236.111 Q 165.663 231.401, 167.617 228.971 Q 169.597 226.516, 173.379 226.516 Q 174.482 226.516, 175.409 226.766 Q 176.361 227.017, 177.263 227.543 L 176.286 229.221 Q 174.983 228.52, 173.405 228.52 Q 170.899 228.52, 169.622 230.148 Q 168.344 231.752, 168.194 235.084 Q 169.095 234.257, 170.223 233.831 Q 171.375 233.38, 172.603 233.38 M 172.027 242.6 Q 172.979 242.6, 173.755 242.099 Q 174.557 241.598, 175.008 240.721 Q 175.459 239.844, 175.459 238.767 Q 175.459 237.188, 174.582 236.286 Q 173.705 235.384, 172.152 235.384 Q 171.075 235.384, 169.997 235.835 Q 168.945 236.261, 168.194 237.013 Q 168.294 239.944, 169.221 241.272 Q 170.148 242.6, 172.027 242.6 " fill="#000000"/>
<path class="atom-6" d="M 192.777 193.318 Q 192.777 188.909, 194.831 186.604 Q 196.91 184.274, 200.844 184.274 Q 204.501 184.274, 206.456 186.855 L 204.802 188.208 Q 203.374 186.329, 200.844 186.329 Q 198.163 186.329, 196.735 188.132 Q 195.332 189.911, 195.332 193.318 Q 195.332 196.826, 196.785 198.63 Q 198.263 200.433, 201.119 200.433 Q 203.073 200.433, 205.353 199.256 L 206.055 201.135 Q 205.128 201.736, 203.725 202.087 Q 202.322 202.438, 200.769 202.438 Q 196.91 202.438, 194.831 200.083 Q 192.777 197.728, 192.777 193.318 " fill="#000000"/>
<path class="atom-6" d="M 208.335 199.281 L 210.84 199.281 L 210.84 201.786 L 208.335 201.786 L 208.335 199.281 M 208.335 190.663 L 210.84 190.663 L 210.84 193.168 L 208.335 193.168 L 208.335 190.663 " fill="#000000"/>
<path class="atom-6" d="M 220.585 186.479 L 211.291 186.479 L 211.291 184.475 L 223.066 184.475 L 223.066 186.253 L 215.901 202.212 L 213.495 202.212 L 220.585 186.479 " fill="#000000"/>
<path class="atom-7" d="M 159.313 296.729 Q 159.313 292.319, 161.367 290.014 Q 163.447 287.684, 167.38 287.684 Q 171.038 287.684, 172.992 290.265 L 171.338 291.618 Q 169.91 289.739, 167.38 289.739 Q 164.699 289.739, 163.271 291.543 Q 161.868 293.321, 161.868 296.729 Q 161.868 300.236, 163.322 302.04 Q 164.8 303.844, 167.656 303.844 Q 169.61 303.844, 171.89 302.666 L 172.591 304.545 Q 171.664 305.146, 170.261 305.497 Q 168.858 305.848, 167.305 305.848 Q 163.447 305.848, 161.367 303.493 Q 159.313 301.138, 159.313 296.729 " fill="#000000"/>
<path class="atom-7" d="M 174.871 302.691 L 177.376 302.691 L 177.376 305.196 L 174.871 305.196 L 174.871 302.691 M 174.871 294.073 L 177.376 294.073 L 177.376 296.578 L 174.871 296.578 L 174.871 294.073 " fill="#000000"/>
<path class="atom-7" d="M 187.974 296.227 Q 189.602 296.929, 190.529 297.981 Q 191.456 299.008, 191.456 300.762 Q 191.456 302.265, 190.679 303.443 Q 189.903 304.595, 188.5 305.247 Q 187.122 305.873, 185.293 305.873 Q 182.337 305.873, 180.633 304.52 Q 178.929 303.142, 178.929 300.762 Q 178.929 299.309, 179.681 298.232 Q 180.433 297.129, 181.986 296.303 Q 180.833 295.651, 180.207 294.699 Q 179.581 293.722, 179.581 292.219 Q 179.581 290.14, 181.084 288.912 Q 182.612 287.684, 185.193 287.684 Q 187.773 287.684, 189.276 288.912 Q 190.805 290.14, 190.805 292.219 Q 190.805 293.522, 190.078 294.499 Q 189.377 295.451, 187.974 296.227 M 185.193 289.563 Q 183.715 289.563, 182.888 290.265 Q 182.086 290.966, 182.086 292.219 Q 182.086 293.146, 182.637 293.772 Q 183.188 294.374, 183.965 294.724 Q 184.767 295.075, 186.295 295.601 Q 187.372 294.85, 187.823 294.048 Q 188.299 293.246, 188.299 292.219 Q 188.299 290.966, 187.473 290.265 Q 186.671 289.563, 185.193 289.563 M 185.293 303.994 Q 186.946 303.994, 187.949 303.117 Q 188.951 302.215, 188.951 300.737 Q 188.951 299.785, 188.425 299.184 Q 187.898 298.582, 187.097 298.232 Q 186.32 297.881, 184.917 297.43 L 183.79 297.054 Q 182.537 297.806, 181.986 298.708 Q 181.435 299.585, 181.435 300.737 Q 181.435 302.215, 182.487 303.117 Q 183.539 303.994, 185.293 303.994 " fill="#000000"/>
<path class="atom-8" d="M 266.264 212.246 Q 266.264 207.836, 268.318 205.531 Q 270.398 203.202, 274.331 203.202 Q 277.989 203.202, 279.943 205.782 L 278.289 207.135 Q 276.861 205.256, 274.331 205.256 Q 271.65 205.256, 270.222 207.06 Q 268.819 208.838, 268.819 212.246 Q 268.819 215.753, 270.272 217.557 Q 271.75 219.361, 274.607 219.361 Q 276.561 219.361, 278.84 218.183 L 279.542 220.062 Q 278.615 220.663, 277.212 221.014 Q 275.809 221.365, 274.256 221.365 Q 270.398 221.365, 268.318 219.01 Q 266.264 216.655, 266.264 212.246 " fill="#000000"/>
<path class="atom-8" d="M 281.822 218.208 L 284.327 218.208 L 284.327 220.713 L 281.822 220.713 L 281.822 218.208 M 281.822 209.59 L 284.327 209.59 L 284.327 212.095 L 281.822 212.095 L 281.822 209.59 " fill="#000000"/>
<path class="atom-8" d="M 291.668 203.202 Q 294.824 203.202, 296.403 205.356 Q 298.006 207.486, 298.006 211.745 Q 298.006 216.455, 296.027 218.91 Q 294.073 221.34, 290.29 221.34 Q 289.187 221.34, 288.235 221.089 Q 287.308 220.839, 286.406 220.313 L 287.383 218.634 Q 288.686 219.336, 290.265 219.336 Q 292.77 219.336, 294.048 217.732 Q 295.325 216.104, 295.476 212.772 Q 294.574 213.598, 293.421 214.049 Q 292.294 214.475, 291.066 214.475 Q 289.513 214.475, 288.285 213.799 Q 287.058 213.122, 286.381 211.895 Q 285.705 210.667, 285.705 209.114 Q 285.705 207.385, 286.457 206.058 Q 287.233 204.705, 288.586 203.953 Q 289.939 203.202, 291.668 203.202 M 288.21 209.089 Q 288.21 210.667, 289.087 211.569 Q 289.964 212.471, 291.517 212.471 Q 292.594 212.471, 293.647 212.045 Q 294.724 211.594, 295.476 210.843 Q 295.375 207.911, 294.448 206.584 Q 293.521 205.256, 291.642 205.256 Q 290.69 205.256, 289.889 205.757 Q 289.112 206.258, 288.661 207.135 Q 288.21 208.012, 288.21 209.089 " fill="#000000"/>
<path class="atom-9" d="M 212.74 315.656 Q 212.74 311.247, 214.795 308.942 Q 216.874 306.612, 220.807 306.612 Q 224.465 306.612, 226.419 309.192 L 224.766 310.545 Q 223.338 308.666, 220.807 308.666 Q 218.127 308.666, 216.699 310.47 Q 215.296 312.249, 215.296 315.656 Q 215.296 319.163, 216.749 320.967 Q 218.227 322.771, 221.083 322.771 Q 223.037 322.771, 225.317 321.593 L 226.018 323.472 Q 225.091 324.074, 223.688 324.424 Q 222.285 324.775, 220.732 324.775 Q 216.874 324.775, 214.795 322.42 Q 212.74 320.065, 212.74 315.656 " fill="#000000"/>
<path class="atom-9" d="M 228.298 321.618 L 230.803 321.618 L 230.803 324.124 L 228.298 324.124 L 228.298 321.618 M 228.298 313 L 230.803 313 L 230.803 315.506 L 228.298 315.506 L 228.298 313 " fill="#000000"/>
<path class="atom-9" d="M 233.133 322.545 L 237.016 322.545 L 237.016 309.292 L 232.732 310.62 L 232.156 309.142 L 237.593 306.712 L 239.371 307.013 L 239.371 322.545 L 242.854 322.545 L 242.854 324.55 L 233.133 324.55 L 233.133 322.545 " fill="#000000"/>
<path class="atom-9" d="M 250.871 324.75 Q 247.614 324.75, 245.985 322.345 Q 244.382 319.94, 244.382 315.656 Q 244.382 311.372, 245.985 308.992 Q 247.589 306.612, 250.871 306.612 Q 254.153 306.612, 255.756 308.992 Q 257.359 311.372, 257.359 315.656 Q 257.359 319.94, 255.731 322.345 Q 254.128 324.75, 250.871 324.75 M 250.871 322.746 Q 252.8 322.746, 253.827 320.967 Q 254.854 319.163, 254.854 315.656 Q 254.854 312.173, 253.827 310.395 Q 252.8 308.616, 250.871 308.616 Q 248.967 308.616, 247.914 310.395 Q 246.887 312.173, 246.887 315.656 Q 246.887 319.163, 247.914 320.967 Q 248.967 322.746, 250.871 322.746 " fill="#000000"/>
<path class="atom-10" d="M 342.235 188.931 Q 342.235 184.522, 344.29 182.217 Q 346.369 179.887, 350.303 179.887 Q 353.96 179.887, 355.914 182.468 L 354.261 183.821 Q 352.833 181.942, 350.303 181.942 Q 347.622 181.942, 346.194 183.746 Q 344.791 185.524, 344.791 188.931 Q 344.791 192.439, 346.244 194.243 Q 347.722 196.046, 350.578 196.046 Q 352.532 196.046, 354.812 194.869 L 355.514 196.748 Q 354.587 197.349, 353.184 197.7 Q 351.781 198.051, 350.227 198.051 Q 346.369 198.051, 344.29 195.696 Q 342.235 193.341, 342.235 188.931 " fill="#000000"/>
<path class="atom-10" d="M 357.793 194.894 L 360.299 194.894 L 360.299 197.399 L 357.793 197.399 L 357.793 194.894 M 357.793 186.276 L 360.299 186.276 L 360.299 188.781 L 357.793 188.781 L 357.793 186.276 " fill="#000000"/>
<path class="atom-10" d="M 362.629 195.821 L 366.512 195.821 L 366.512 182.568 L 362.228 183.896 L 361.651 182.418 L 367.088 179.988 L 368.867 180.288 L 368.867 195.821 L 372.349 195.821 L 372.349 197.825 L 362.629 197.825 L 362.629 195.821 " fill="#000000"/>
<path class="atom-10" d="M 374.679 195.821 L 378.562 195.821 L 378.562 182.568 L 374.278 183.896 L 373.702 182.418 L 379.138 179.988 L 380.917 180.288 L 380.917 195.821 L 384.4 195.821 L 384.4 197.825 L 374.679 197.825 L 374.679 195.821 " fill="#000000"/>
<path class="atom-11" d="M 413.957 331.206 L 416.362 331.206 L 416.362 338.747 L 425.431 338.747 L 425.431 331.206 L 427.837 331.206 L 427.837 348.944 L 425.431 348.944 L 425.431 340.751 L 416.362 340.751 L 416.362 348.944 L 413.957 348.944 L 413.957 331.206 " fill="#000000"/>
<path class="atom-11" d="M 429.715 346.013 L 432.221 346.013 L 432.221 348.518 L 429.715 348.518 L 429.715 346.013 M 429.715 337.394 L 432.221 337.394 L 432.221 339.9 L 429.715 339.9 L 429.715 337.394 " fill="#000000"/>
<path class="atom-11" d="M 434.551 346.94 L 438.434 346.94 L 438.434 333.687 L 434.15 335.014 L 433.574 333.536 L 439.01 331.106 L 440.789 331.407 L 440.789 346.94 L 444.271 346.94 L 444.271 348.944 L 434.551 348.944 L 434.551 346.94 " fill="#000000"/>
<path class="atom-11" d="M 445.574 334.563 Q 446.225 332.885, 447.779 331.958 Q 449.332 331.006, 451.486 331.006 Q 454.167 331.006, 455.67 332.459 Q 457.173 333.912, 457.173 336.492 Q 457.173 339.123, 455.219 341.578 Q 453.29 344.033, 449.282 346.94 L 457.474 346.94 L 457.474 348.944 L 445.524 348.944 L 445.524 347.265 Q 448.831 344.91, 450.785 343.157 Q 452.764 341.403, 453.716 339.825 Q 454.668 338.246, 454.668 336.618 Q 454.668 334.914, 453.816 333.962 Q 452.965 333.01, 451.486 333.01 Q 450.058 333.01, 449.106 333.586 Q 448.154 334.163, 447.478 335.44 L 445.574 334.563 " fill="#000000"/>
<path class="atom-12" d="M 261.231 358.127 L 263.636 358.127 L 263.636 365.668 L 272.705 365.668 L 272.705 358.127 L 275.11 358.127 L 275.11 375.865 L 272.705 375.865 L 272.705 367.672 L 263.636 367.672 L 263.636 375.865 L 261.231 375.865 L 261.231 358.127 " fill="#000000"/>
<path class="atom-12" d="M 276.989 372.933 L 279.494 372.933 L 279.494 375.439 L 276.989 375.439 L 276.989 372.933 M 276.989 364.315 L 279.494 364.315 L 279.494 366.821 L 276.989 366.821 L 276.989 364.315 " fill="#000000"/>
<path class="atom-12" d="M 281.824 373.86 L 285.707 373.86 L 285.707 360.607 L 281.423 361.935 L 280.847 360.457 L 286.283 358.027 L 288.062 358.328 L 288.062 373.86 L 291.545 373.86 L 291.545 375.865 L 281.824 375.865 L 281.824 373.86 " fill="#000000"/>
<path class="atom-12" d="M 301.115 366.52 Q 302.843 367.021, 303.67 368.148 Q 304.522 369.251, 304.522 371.004 Q 304.522 372.508, 303.77 373.685 Q 303.019 374.837, 301.641 375.489 Q 300.263 376.115, 298.459 376.115 Q 296.555 376.115, 295.127 375.464 Q 293.724 374.787, 292.597 373.435 L 294.025 371.981 Q 295.127 373.184, 296.054 373.66 Q 296.981 374.111, 298.459 374.111 Q 300.063 374.111, 301.04 373.259 Q 302.017 372.382, 302.017 370.979 Q 302.017 369.176, 300.989 368.374 Q 299.987 367.547, 297.808 367.547 L 296.53 367.547 L 296.53 365.743 L 297.657 365.743 Q 299.587 365.718, 300.614 364.891 Q 301.641 364.04, 301.641 362.461 Q 301.641 361.309, 300.789 360.632 Q 299.937 359.931, 298.484 359.931 Q 297.006 359.931, 296.079 360.457 Q 295.177 360.983, 294.476 362.311 L 292.747 361.384 Q 293.373 359.906, 294.877 358.929 Q 296.38 357.927, 298.484 357.927 Q 301.09 357.927, 302.618 359.154 Q 304.146 360.382, 304.146 362.461 Q 304.146 363.889, 303.37 364.917 Q 302.593 365.944, 301.115 366.52 " fill="#000000"/>
<path class="atom-13" d="M 366.249 405.785 L 368.654 405.785 L 368.654 413.326 L 377.723 413.326 L 377.723 405.785 L 380.128 405.785 L 380.128 423.523 L 377.723 423.523 L 377.723 415.331 L 368.654 415.331 L 368.654 423.523 L 366.249 423.523 L 366.249 405.785 " fill="#000000"/>
<path class="atom-13" d="M 382.007 420.592 L 384.512 420.592 L 384.512 423.097 L 382.007 423.097 L 382.007 420.592 M 382.007 411.973 L 384.512 411.973 L 384.512 414.479 L 382.007 414.479 L 382.007 411.973 " fill="#000000"/>
<path class="atom-13" d="M 386.842 421.519 L 390.726 421.519 L 390.726 408.266 L 386.442 409.593 L 385.865 408.115 L 391.302 405.685 L 393.081 405.986 L 393.081 421.519 L 396.563 421.519 L 396.563 423.523 L 386.842 423.523 L 386.842 421.519 " fill="#000000"/>
<path class="atom-13" d="M 408.839 417.435 L 410.968 417.435 L 410.968 419.439 L 408.839 419.439 L 408.839 423.523 L 406.484 423.523 L 406.484 419.439 L 397.315 419.439 L 397.315 417.861 L 405.081 405.785 L 408.839 405.785 L 408.839 417.435 M 400.221 417.435 L 406.484 417.435 L 406.484 407.389 L 400.221 417.435 " fill="#000000"/>
<path class="atom-14" d="M 192.999 123.256 L 195.404 123.256 L 195.404 130.797 L 204.474 130.797 L 204.474 123.256 L 206.879 123.256 L 206.879 140.993 L 204.474 140.993 L 204.474 132.801 L 195.404 132.801 L 195.404 140.993 L 192.999 140.993 L 192.999 123.256 " fill="#000000"/>
<path class="atom-14" d="M 208.758 138.062 L 211.263 138.062 L 211.263 140.567 L 208.758 140.567 L 208.758 138.062 M 208.758 129.444 L 211.263 129.444 L 211.263 131.949 L 208.758 131.949 L 208.758 129.444 " fill="#000000"/>
<path class="atom-14" d="M 213.593 138.989 L 217.476 138.989 L 217.476 125.736 L 213.192 127.064 L 212.616 125.586 L 218.052 123.156 L 219.831 123.456 L 219.831 138.989 L 223.313 138.989 L 223.313 140.993 L 213.593 140.993 L 213.593 138.989 " fill="#000000"/>
<path class="atom-14" d="M 230.904 129.895 Q 232.458 129.895, 233.735 130.571 Q 235.013 131.223, 235.74 132.475 Q 236.466 133.703, 236.466 135.381 Q 236.466 137.21, 235.564 138.538 Q 234.687 139.841, 233.234 140.517 Q 231.781 141.194, 230.128 141.194 Q 228.499 141.194, 226.996 140.592 Q 225.493 139.991, 224.466 138.839 L 225.969 137.285 Q 226.796 138.187, 227.923 138.688 Q 229.05 139.164, 230.203 139.164 Q 231.781 139.164, 232.858 138.187 Q 233.961 137.21, 233.961 135.431 Q 233.961 133.553, 232.858 132.676 Q 231.781 131.774, 230.053 131.774 Q 228.499 131.774, 226.771 132.45 L 225.393 131.799 L 226.245 123.256 L 235.364 123.256 L 235.113 125.26 L 228.299 125.26 L 227.773 130.521 Q 229.351 129.895, 230.904 129.895 " fill="#000000"/>
<path class="atom-15" d="M 96.2048 330.126 L 98.6099 330.126 L 98.6099 337.667 L 107.679 337.667 L 107.679 330.126 L 110.084 330.126 L 110.084 347.864 L 107.679 347.864 L 107.679 339.671 L 98.6099 339.671 L 98.6099 347.864 L 96.2048 347.864 L 96.2048 330.126 " fill="#000000"/>
<path class="atom-15" d="M 111.963 344.933 L 114.468 344.933 L 114.468 347.438 L 111.963 347.438 L 111.963 344.933 M 111.963 336.314 L 114.468 336.314 L 114.468 338.82 L 111.963 338.82 L 111.963 336.314 " fill="#000000"/>
<path class="atom-15" d="M 116.798 345.86 L 120.681 345.86 L 120.681 332.607 L 116.397 333.934 L 115.821 332.456 L 121.258 330.026 L 123.036 330.327 L 123.036 345.86 L 126.519 345.86 L 126.519 347.864 L 116.798 347.864 L 116.798 345.86 " fill="#000000"/>
<path class="atom-15" d="M 135.162 336.79 Q 136.715 336.79, 137.943 337.467 Q 139.171 338.143, 139.847 339.371 Q 140.523 340.598, 140.523 342.152 Q 140.523 343.88, 139.747 345.233 Q 138.995 346.561, 137.642 347.313 Q 136.289 348.064, 134.561 348.064 Q 131.404 348.064, 129.801 345.935 Q 128.222 343.78, 128.222 339.521 Q 128.222 334.811, 130.177 332.381 Q 132.156 329.926, 135.939 329.926 Q 137.041 329.926, 137.968 330.176 Q 138.92 330.427, 139.822 330.953 L 138.845 332.632 Q 137.542 331.93, 135.964 331.93 Q 133.458 331.93, 132.181 333.559 Q 130.903 335.162, 130.753 338.494 Q 131.655 337.667, 132.782 337.241 Q 133.934 336.79, 135.162 336.79 M 134.586 346.01 Q 135.538 346.01, 136.314 345.509 Q 137.116 345.008, 137.567 344.131 Q 138.018 343.254, 138.018 342.177 Q 138.018 340.598, 137.141 339.697 Q 136.264 338.795, 134.711 338.795 Q 133.634 338.795, 132.557 339.246 Q 131.504 339.671, 130.753 340.423 Q 130.853 343.354, 131.78 344.682 Q 132.707 346.01, 134.586 346.01 " fill="#000000"/>
<path class="atom-16" d="M 296.307 181.923 L 298.712 181.923 L 298.712 189.464 L 307.781 189.464 L 307.781 181.923 L 310.186 181.923 L 310.186 199.661 L 307.781 199.661 L 307.781 191.468 L 298.712 191.468 L 298.712 199.661 L 296.307 199.661 L 296.307 181.923 " fill="#000000"/>
<path class="atom-16" d="M 312.065 196.729 L 314.57 196.729 L 314.57 199.235 L 312.065 199.235 L 312.065 196.729 M 312.065 188.111 L 314.57 188.111 L 314.57 190.617 L 312.065 190.617 L 312.065 188.111 " fill="#000000"/>
<path class="atom-16" d="M 316.9 197.656 L 320.784 197.656 L 320.784 184.403 L 316.499 185.731 L 315.923 184.253 L 321.36 181.823 L 323.138 182.124 L 323.138 197.656 L 326.621 197.656 L 326.621 199.661 L 316.9 199.661 L 316.9 197.656 " fill="#000000"/>
<path class="atom-16" d="M 336.366 183.927 L 327.072 183.927 L 327.072 181.923 L 338.847 181.923 L 338.847 183.702 L 331.682 199.661 L 329.276 199.661 L 336.366 183.927 " fill="#000000"/>
<path class="atom-17" d="M 246.841 367.981 L 249.246 367.981 L 249.246 375.522 L 258.315 375.522 L 258.315 367.981 L 260.72 367.981 L 260.72 385.718 L 258.315 385.718 L 258.315 377.526 L 249.246 377.526 L 249.246 385.718 L 246.841 385.718 L 246.841 367.981 " fill="#000000"/>
<path class="atom-17" d="M 262.599 382.787 L 265.105 382.787 L 265.105 385.292 L 262.599 385.292 L 262.599 382.787 M 262.599 374.169 L 265.105 374.169 L 265.105 376.674 L 262.599 376.674 L 262.599 374.169 " fill="#000000"/>
<path class="atom-17" d="M 267.435 383.714 L 271.318 383.714 L 271.318 370.461 L 267.034 371.789 L 266.457 370.311 L 271.894 367.881 L 273.673 368.181 L 273.673 383.714 L 277.155 383.714 L 277.155 385.718 L 267.435 385.718 L 267.435 383.714 " fill="#000000"/>
<path class="atom-17" d="M 287.752 376.324 Q 289.381 377.025, 290.308 378.077 Q 291.235 379.104, 291.235 380.858 Q 291.235 382.361, 290.458 383.539 Q 289.682 384.691, 288.279 385.343 Q 286.901 385.969, 285.072 385.969 Q 282.116 385.969, 280.412 384.616 Q 278.708 383.238, 278.708 380.858 Q 278.708 379.405, 279.46 378.328 Q 280.212 377.225, 281.765 376.399 Q 280.612 375.747, 279.986 374.795 Q 279.36 373.818, 279.36 372.315 Q 279.36 370.236, 280.863 369.008 Q 282.391 367.78, 284.972 367.78 Q 287.552 367.78, 289.055 369.008 Q 290.583 370.236, 290.583 372.315 Q 290.583 373.618, 289.857 374.595 Q 289.155 375.547, 287.752 376.324 M 284.972 369.659 Q 283.493 369.659, 282.667 370.361 Q 281.865 371.062, 281.865 372.315 Q 281.865 373.242, 282.416 373.868 Q 282.967 374.47, 283.744 374.82 Q 284.546 375.171, 286.074 375.697 Q 287.151 374.946, 287.602 374.144 Q 288.078 373.342, 288.078 372.315 Q 288.078 371.062, 287.251 370.361 Q 286.45 369.659, 284.972 369.659 M 285.072 384.09 Q 286.725 384.09, 287.727 383.213 Q 288.73 382.311, 288.73 380.833 Q 288.73 379.881, 288.203 379.28 Q 287.677 378.679, 286.876 378.328 Q 286.099 377.977, 284.696 377.526 L 283.569 377.15 Q 282.316 377.902, 281.765 378.804 Q 281.214 379.681, 281.214 380.833 Q 281.214 382.311, 282.266 383.213 Q 283.318 384.09, 285.072 384.09 " fill="#000000"/>
<path class="atom-18" d="M 433.28 166.627 L 435.685 166.627 L 435.685 174.168 L 444.754 174.168 L 444.754 166.627 L 447.159 166.627 L 447.159 184.365 L 444.754 184.365 L 444.754 176.172 L 435.685 176.172 L 435.685 184.365 L 433.28 184.365 L 433.28 166.627 " fill="#000000"/>
<path class="atom-18" d="M 449.038 181.434 L 451.543 181.434 L 451.543 183.939 L 449.038 183.939 L 449.038 181.434 M 449.038 172.815 L 451.543 172.815 L 451.543 175.321 L 449.038 175.321 L 449.038 172.815 " fill="#000000"/>
<path class="atom-18" d="M 453.873 182.361 L 457.757 182.361 L 457.757 169.108 L 453.472 170.435 L 452.896 168.957 L 458.333 166.527 L 460.111 166.828 L 460.111 182.361 L 463.594 182.361 L 463.594 184.365 L 453.873 184.365 L 453.873 182.361 " fill="#000000"/>
<path class="atom-18" d="M 470.934 166.427 Q 474.091 166.427, 475.669 168.581 Q 477.273 170.711, 477.273 174.97 Q 477.273 179.68, 475.294 182.135 Q 473.339 184.565, 469.556 184.565 Q 468.454 184.565, 467.502 184.315 Q 466.575 184.064, 465.673 183.538 L 466.65 181.86 Q 467.953 182.561, 469.531 182.561 Q 472.037 182.561, 473.314 180.958 Q 474.592 179.329, 474.742 175.997 Q 473.84 176.824, 472.688 177.275 Q 471.561 177.701, 470.333 177.701 Q 468.78 177.701, 467.552 177.024 Q 466.325 176.348, 465.648 175.12 Q 464.972 173.893, 464.972 172.339 Q 464.972 170.611, 465.723 169.283 Q 466.5 167.93, 467.853 167.179 Q 469.206 166.427, 470.934 166.427 M 467.477 172.314 Q 467.477 173.893, 468.354 174.795 Q 469.231 175.696, 470.784 175.696 Q 471.861 175.696, 472.914 175.271 Q 473.991 174.82, 474.742 174.068 Q 474.642 171.137, 473.715 169.809 Q 472.788 168.481, 470.909 168.481 Q 469.957 168.481, 469.156 168.982 Q 468.379 169.483, 467.928 170.36 Q 467.477 171.237, 467.477 172.314 " fill="#000000"/>
<path class="atom-19" d="M 304.686 192.38 L 307.091 192.38 L 307.091 199.921 L 316.16 199.921 L 316.16 192.38 L 318.565 192.38 L 318.565 210.117 L 316.16 210.117 L 316.16 201.925 L 307.091 201.925 L 307.091 210.117 L 304.686 210.117 L 304.686 192.38 " fill="#000000"/>
<path class="atom-19" d="M 320.444 207.186 L 322.95 207.186 L 322.95 209.691 L 320.444 209.691 L 320.444 207.186 M 320.444 198.568 L 322.95 198.568 L 322.95 201.073 L 320.444 201.073 L 320.444 198.568 " fill="#000000"/>
<path class="atom-19" d="M 324.252 195.737 Q 324.904 194.058, 326.457 193.131 Q 328.01 192.179, 330.165 192.179 Q 332.845 192.179, 334.349 193.632 Q 335.852 195.085, 335.852 197.666 Q 335.852 200.296, 333.898 202.751 Q 331.969 205.207, 327.96 208.113 L 336.152 208.113 L 336.152 210.117 L 324.202 210.117 L 324.202 208.439 Q 327.509 206.084, 329.463 204.33 Q 331.443 202.576, 332.395 200.998 Q 333.347 199.419, 333.347 197.791 Q 333.347 196.087, 332.495 195.135 Q 331.643 194.183, 330.165 194.183 Q 328.737 194.183, 327.785 194.76 Q 326.833 195.336, 326.156 196.614 L 324.252 195.737 " fill="#000000"/>
<path class="atom-19" d="M 344.169 210.317 Q 340.913 210.317, 339.284 207.912 Q 337.681 205.507, 337.681 201.223 Q 337.681 196.939, 339.284 194.559 Q 340.887 192.179, 344.169 192.179 Q 347.451 192.179, 349.055 194.559 Q 350.658 196.939, 350.658 201.223 Q 350.658 205.507, 349.03 207.912 Q 347.426 210.317, 344.169 210.317 M 344.169 208.313 Q 346.098 208.313, 347.126 206.534 Q 348.153 204.731, 348.153 201.223 Q 348.153 197.741, 347.126 195.962 Q 346.098 194.183, 344.169 194.183 Q 342.265 194.183, 341.213 195.962 Q 340.186 197.741, 340.186 201.223 Q 340.186 204.731, 341.213 206.534 Q 342.265 208.313, 344.169 208.313 " fill="#000000"/>
<path class="atom-20" d="M 83.2728 207.789 L 89.0851 217.184 Q 89.6613 218.111, 90.5883 219.789 Q 91.5152 221.468, 91.5653 221.568 L 91.5653 207.789 L 93.9203 207.789 L 93.9203 225.526 L 91.4902 225.526 L 85.252 215.255 Q 84.5255 214.052, 83.7488 212.674 Q 82.9972 211.296, 82.7718 210.87 L 82.7718 225.526 L 80.4669 225.526 L 80.4669 207.789 L 83.2728 207.789 " fill="#0000FF"/>
<path class="atom-20" d="M 95.7993 222.595 L 98.3046 222.595 L 98.3046 225.1 L 95.7993 225.1 L 95.7993 222.595 M 95.7993 213.977 L 98.3046 213.977 L 98.3046 216.482 L 95.7993 216.482 L 95.7993 213.977 " fill="#0000FF"/>
<path class="atom-20" d="M 99.6073 211.146 Q 100.259 209.467, 101.812 208.54 Q 103.365 207.588, 105.52 207.588 Q 108.2 207.588, 109.704 209.041 Q 111.207 210.495, 111.207 213.075 Q 111.207 215.706, 109.253 218.161 Q 107.324 220.616, 103.315 223.522 L 111.507 223.522 L 111.507 225.526 L 99.5572 225.526 L 99.5572 223.848 Q 102.864 221.493, 104.818 219.739 Q 106.798 217.985, 107.75 216.407 Q 108.702 214.829, 108.702 213.2 Q 108.702 211.497, 107.85 210.545 Q 106.998 209.593, 105.52 209.593 Q 104.092 209.593, 103.14 210.169 Q 102.188 210.745, 101.511 212.023 L 99.6073 211.146 " fill="#0000FF"/>
<path class="atom-20" d="M 113.837 223.522 L 117.721 223.522 L 117.721 210.269 L 113.437 211.597 L 112.86 210.119 L 118.297 207.689 L 120.076 207.989 L 120.076 223.522 L 123.558 223.522 L 123.558 225.526 L 113.837 225.526 L 113.837 223.522 " fill="#0000FF"/>
<path class="atom-21" d="M 340.966 118.919 L 346.779 128.314 Q 347.355 129.241, 348.282 130.919 Q 349.209 132.598, 349.259 132.698 L 349.259 118.919 L 351.614 118.919 L 351.614 136.656 L 349.184 136.656 L 342.946 126.385 Q 342.219 125.182, 341.442 123.804 Q 340.691 122.426, 340.465 122.001 L 340.465 136.656 L 338.16 136.656 L 338.16 118.919 L 340.966 118.919 " fill="#0000FF"/>
<path class="atom-21" d="M 353.493 133.725 L 355.998 133.725 L 355.998 136.231 L 353.493 136.231 L 353.493 133.725 M 353.493 125.107 L 355.998 125.107 L 355.998 127.612 L 353.493 127.612 L 353.493 125.107 " fill="#0000FF"/>
<path class="atom-21" d="M 357.301 122.276 Q 357.952 120.598, 359.506 119.671 Q 361.059 118.719, 363.213 118.719 Q 365.894 118.719, 367.397 120.172 Q 368.9 121.625, 368.9 124.205 Q 368.9 126.836, 366.946 129.291 Q 365.017 131.746, 361.009 134.652 L 369.201 134.652 L 369.201 136.656 L 357.251 136.656 L 357.251 134.978 Q 360.558 132.623, 362.512 130.869 Q 364.491 129.116, 365.443 127.537 Q 366.395 125.959, 366.395 124.33 Q 366.395 122.627, 365.543 121.675 Q 364.692 120.723, 363.213 120.723 Q 361.785 120.723, 360.833 121.299 Q 359.881 121.875, 359.205 123.153 L 357.301 122.276 " fill="#0000FF"/>
<path class="atom-21" d="M 370.504 122.276 Q 371.155 120.598, 372.708 119.671 Q 374.262 118.719, 376.416 118.719 Q 379.097 118.719, 380.6 120.172 Q 382.103 121.625, 382.103 124.205 Q 382.103 126.836, 380.149 129.291 Q 378.22 131.746, 374.212 134.652 L 382.404 134.652 L 382.404 136.656 L 370.454 136.656 L 370.454 134.978 Q 373.761 132.623, 375.715 130.869 Q 377.694 129.116, 378.646 127.537 Q 379.598 125.959, 379.598 124.33 Q 379.598 122.627, 378.746 121.675 Q 377.894 120.723, 376.416 120.723 Q 374.988 120.723, 374.036 121.299 Q 373.084 121.875, 372.408 123.153 L 370.504 122.276 " fill="#0000FF"/>
<path class="atom-22" d="M 22.7273 250.03 L 25.1324 250.03 L 25.1324 257.571 L 34.2015 257.571 L 34.2015 250.03 L 36.6066 250.03 L 36.6066 267.768 L 34.2015 267.768 L 34.2015 259.575 L 25.1324 259.575 L 25.1324 267.768 L 22.7273 267.768 L 22.7273 250.03 " fill="#000000"/>
<path class="atom-22" d="M 38.4855 264.837 L 40.9908 264.837 L 40.9908 267.342 L 38.4855 267.342 L 38.4855 264.837 M 38.4855 256.218 L 40.9908 256.218 L 40.9908 258.724 L 38.4855 258.724 L 38.4855 256.218 " fill="#000000"/>
<path class="atom-22" d="M 42.2936 253.387 Q 42.945 251.709, 44.4982 250.782 Q 46.0515 249.83, 48.2061 249.83 Q 50.8867 249.83, 52.3899 251.283 Q 53.8931 252.736, 53.8931 255.316 Q 53.8931 257.947, 51.939 260.402 Q 50.0099 262.857, 46.0014 265.763 L 54.1937 265.763 L 54.1937 267.768 L 42.2435 267.768 L 42.2435 266.089 Q 45.5505 263.734, 47.5046 261.981 Q 49.4838 260.227, 50.4358 258.648 Q 51.3878 257.07, 51.3878 255.442 Q 51.3878 253.738, 50.536 252.786 Q 49.6842 251.834, 48.2061 251.834 Q 46.7781 251.834, 45.8261 252.41 Q 44.874 252.987, 44.1976 254.264 L 42.2936 253.387 " fill="#000000"/>
<path class="atom-22" d="M 63.7639 258.423 Q 65.4926 258.924, 66.3193 260.051 Q 67.1711 261.154, 67.1711 262.907 Q 67.1711 264.411, 66.4195 265.588 Q 65.668 266.741, 64.29 267.392 Q 62.9121 268.018, 61.1083 268.018 Q 59.2043 268.018, 57.7763 267.367 Q 56.3733 266.69, 55.2459 265.338 L 56.674 263.885 Q 57.7763 265.087, 58.7032 265.563 Q 59.6302 266.014, 61.1083 266.014 Q 62.7117 266.014, 63.6888 265.162 Q 64.6658 264.285, 64.6658 262.882 Q 64.6658 261.079, 63.6387 260.277 Q 62.6366 259.45, 60.4569 259.45 L 59.1792 259.45 L 59.1792 257.646 L 60.3066 257.646 Q 62.2357 257.621, 63.2629 256.795 Q 64.29 255.943, 64.29 254.364 Q 64.29 253.212, 63.4382 252.536 Q 62.5864 251.834, 61.1334 251.834 Q 59.6553 251.834, 58.7283 252.36 Q 57.8264 252.886, 57.1249 254.214 L 55.3963 253.287 Q 56.0226 251.809, 57.5258 250.832 Q 59.0289 249.83, 61.1334 249.83 Q 63.7389 249.83, 65.2671 251.057 Q 66.7953 252.285, 66.7953 254.364 Q 66.7953 255.792, 66.0187 256.82 Q 65.2421 257.847, 63.7639 258.423 " fill="#000000"/>
<path class="atom-23" d="M 87.0519 146.62 L 89.457 146.62 L 89.457 154.161 L 98.5262 154.161 L 98.5262 146.62 L 100.931 146.62 L 100.931 164.358 L 98.5262 164.358 L 98.5262 156.165 L 89.457 156.165 L 89.457 164.358 L 87.0519 164.358 L 87.0519 146.62 " fill="#000000"/>
<path class="atom-23" d="M 102.81 161.426 L 105.315 161.426 L 105.315 163.932 L 102.81 163.932 L 102.81 161.426 M 102.81 152.808 L 105.315 152.808 L 105.315 155.313 L 102.81 155.313 L 102.81 152.808 " fill="#000000"/>
<path class="atom-23" d="M 106.618 149.977 Q 107.27 148.299, 108.823 147.372 Q 110.376 146.42, 112.531 146.42 Q 115.211 146.42, 116.715 147.873 Q 118.218 149.326, 118.218 151.906 Q 118.218 154.537, 116.264 156.992 Q 114.335 159.447, 110.326 162.353 L 118.518 162.353 L 118.518 164.358 L 106.568 164.358 L 106.568 162.679 Q 109.875 160.324, 111.829 158.57 Q 113.808 156.817, 114.76 155.238 Q 115.712 153.66, 115.712 152.031 Q 115.712 150.328, 114.861 149.376 Q 114.009 148.424, 112.531 148.424 Q 111.103 148.424, 110.151 149 Q 109.199 149.576, 108.522 150.854 L 106.618 149.977 " fill="#000000"/>
<path class="atom-23" d="M 130.794 158.27 L 132.924 158.27 L 132.924 160.274 L 130.794 160.274 L 130.794 164.358 L 128.439 164.358 L 128.439 160.274 L 119.27 160.274 L 119.27 158.696 L 127.036 146.62 L 130.794 146.62 L 130.794 158.27 M 122.176 158.27 L 128.439 158.27 L 128.439 148.223 L 122.176 158.27 " fill="#000000"/>
<path class="atom-24" d="M 404.894 76.6776 L 407.299 76.6776 L 407.299 84.2185 L 416.368 84.2185 L 416.368 76.6776 L 418.773 76.6776 L 418.773 94.415 L 416.368 94.415 L 416.368 86.2227 L 407.299 86.2227 L 407.299 94.415 L 404.894 94.415 L 404.894 76.6776 " fill="#000000"/>
<path class="atom-24" d="M 420.652 91.4838 L 423.158 91.4838 L 423.158 93.9891 L 420.652 93.9891 L 420.652 91.4838 M 420.652 82.8656 L 423.158 82.8656 L 423.158 85.3709 L 420.652 85.3709 L 420.652 82.8656 " fill="#000000"/>
<path class="atom-24" d="M 424.46 80.0347 Q 425.112 78.3561, 426.665 77.4291 Q 428.218 76.4771, 430.373 76.4771 Q 433.054 76.4771, 434.557 77.9302 Q 436.06 79.3833, 436.06 81.9637 Q 436.06 84.5943, 434.106 87.0495 Q 432.177 89.5046, 428.168 92.4108 L 436.361 92.4108 L 436.361 94.415 L 424.41 94.415 L 424.41 92.7365 Q 427.717 90.3815, 429.671 88.6278 Q 431.651 86.8741, 432.603 85.2958 Q 433.555 83.7174, 433.555 82.089 Q 433.555 80.3854, 432.703 79.4334 Q 431.851 78.4814, 430.373 78.4814 Q 428.945 78.4814, 427.993 79.0576 Q 427.041 79.6338, 426.364 80.9115 L 424.46 80.0347 " fill="#000000"/>
<path class="atom-24" d="M 443.952 83.3166 Q 445.505 83.3166, 446.783 83.993 Q 448.06 84.6444, 448.787 85.897 Q 449.513 87.1246, 449.513 88.8032 Q 449.513 90.632, 448.611 91.9598 Q 447.735 93.2626, 446.282 93.939 Q 444.828 94.6154, 443.175 94.6154 Q 441.547 94.6154, 440.043 94.0142 Q 438.54 93.4129, 437.513 92.2605 L 439.016 90.7072 Q 439.843 91.6091, 440.97 92.1102 Q 442.098 92.5862, 443.25 92.5862 Q 444.828 92.5862, 445.906 91.6091 Q 447.008 90.632, 447.008 88.8533 Q 447.008 86.9743, 445.906 86.0975 Q 444.828 85.1955, 443.1 85.1955 Q 441.547 85.1955, 439.818 85.872 L 438.44 85.2206 L 439.292 76.6776 L 448.411 76.6776 L 448.16 78.6818 L 441.346 78.6818 L 440.82 83.9429 Q 442.398 83.3166, 443.952 83.3166 " fill="#000000"/>
<path class="atom-25" d="M 266.566 99.9917 L 268.971 99.9917 L 268.971 107.533 L 278.04 107.533 L 278.04 99.9917 L 280.445 99.9917 L 280.445 117.729 L 278.04 117.729 L 278.04 109.537 L 268.971 109.537 L 268.971 117.729 L 266.566 117.729 L 266.566 99.9917 " fill="#000000"/>
<path class="atom-25" d="M 282.324 114.798 L 284.829 114.798 L 284.829 117.303 L 282.324 117.303 L 282.324 114.798 M 282.324 106.18 L 284.829 106.18 L 284.829 108.685 L 282.324 108.685 L 282.324 106.18 " fill="#000000"/>
<path class="atom-25" d="M 286.132 103.349 Q 286.784 101.67, 288.337 100.743 Q 289.89 99.7913, 292.045 99.7913 Q 294.725 99.7913, 296.228 101.244 Q 297.732 102.697, 297.732 105.278 Q 297.732 107.908, 295.778 110.364 Q 293.848 112.819, 289.84 115.725 L 298.032 115.725 L 298.032 117.729 L 286.082 117.729 L 286.082 116.051 Q 289.389 113.696, 291.343 111.942 Q 293.322 110.188, 294.274 108.61 Q 295.226 107.032, 295.226 105.403 Q 295.226 103.7, 294.375 102.748 Q 293.523 101.796, 292.045 101.796 Q 290.617 101.796, 289.665 102.372 Q 288.713 102.948, 288.036 104.226 L 286.132 103.349 " fill="#000000"/>
<path class="atom-25" d="M 306.676 106.656 Q 308.229 106.656, 309.456 107.332 Q 310.684 108.009, 311.36 109.236 Q 312.037 110.464, 312.037 112.017 Q 312.037 113.746, 311.26 115.099 Q 310.509 116.426, 309.156 117.178 Q 307.803 117.93, 306.074 117.93 Q 302.918 117.93, 301.314 115.8 Q 299.736 113.646, 299.736 109.387 Q 299.736 104.677, 301.69 102.246 Q 303.669 99.7913, 307.452 99.7913 Q 308.555 99.7913, 309.481 100.042 Q 310.433 100.292, 311.335 100.818 L 310.358 102.497 Q 309.056 101.796, 307.477 101.796 Q 304.972 101.796, 303.694 103.424 Q 302.417 105.027, 302.266 108.359 Q 303.168 107.533, 304.296 107.107 Q 305.448 106.656, 306.676 106.656 M 306.099 115.875 Q 307.051 115.875, 307.828 115.374 Q 308.63 114.873, 309.081 113.996 Q 309.532 113.119, 309.532 112.042 Q 309.532 110.464, 308.655 109.562 Q 307.778 108.66, 306.225 108.66 Q 305.147 108.66, 304.07 109.111 Q 303.018 109.537, 302.266 110.288 Q 302.366 113.22, 303.293 114.547 Q 304.22 115.875, 306.099 115.875 " fill="#000000"/>
<text x="369.3894213624217" y="271.1457828651777" font-size="12" font-family="Verdana" font-weight="bold" letter-spacing="0" text-anchor="start" fill="black" transform=" rotate(47.589623 369.389421 271.145783)">0.0556</text><text x="25" y="490" font-size="12" font-family="Verdana" font-weight="bold" letter-spacing="0" text-anchor="start" fill="black">[#8:1]=[#6:2](-[#7:3](-[#6:4](-[H:12])(-[H:13])-[H:14])-[#6:5]1:[#6:9](:[#6:7](:[#6:6](:[#6:8](:[#6:10]:1-[H:18])-[H:16])-[#7:21](-[H:23])-[H:24])-[H:15])-[H:17])-[#6:11](-[H:19])(-[H:20])-[#7:22](-[H:25])-[H:26]</text></svg>
