<?xml version='1.0' encoding='ASCII' standalone='yes'?>
<svg xmlns="http://www.w3.org/2000/svg" xmlns:rdkit="http://www.rdkit.org/xml" xmlns:xlink="http://www.w3.org/1999/xlink" version="1.1" baseProfile="full" xml:space="preserve" width="500px" height="500px" viewBox="0 0 500 500">
<!-- END OF HEADER -->
<rect style="opacity:1.0;fill:#FFFFFF;stroke:none" width="500" height="500" x="0" y="0"> </rect>
<path d="M 328.447,231.706 L 279.99,222.198" style="fill:none;fill-rule:evenodd;stroke:#FF7F7F;stroke-width:10.5px;stroke-linecap:butt;stroke-linejoin:miter;stroke-opacity:1"/>
<path class="bond-0 atom-0 atom-1" d="M 359.798,237.858 L 346.877,235.322" style="fill:none;fill-rule:evenodd;stroke:#0000FF;stroke-width:2.0px;stroke-linecap:butt;stroke-linejoin:miter;stroke-opacity:1"/>
<path class="bond-0 atom-0 atom-1" d="M 346.877,235.322 L 333.956,232.787" style="fill:none;fill-rule:evenodd;stroke:#000000;stroke-width:2.0px;stroke-linecap:butt;stroke-linejoin:miter;stroke-opacity:1"/>
<path class="bond-1 atom-0 atom-14" d="M 384.115,232.948 L 393.238,222.491" style="fill:none;fill-rule:evenodd;stroke:#0000FF;stroke-width:2.0px;stroke-linecap:butt;stroke-linejoin:miter;stroke-opacity:1"/>
<path class="bond-1 atom-0 atom-14" d="M 393.238,222.491 L 402.36,212.035" style="fill:none;fill-rule:evenodd;stroke:#000000;stroke-width:2.0px;stroke-linecap:butt;stroke-linejoin:miter;stroke-opacity:1"/>
<path class="bond-2 atom-0 atom-15" d="M 379.734,249.48 L 384.945,264.702" style="fill:none;fill-rule:evenodd;stroke:#0000FF;stroke-width:2.0px;stroke-linecap:butt;stroke-linejoin:miter;stroke-opacity:1"/>
<path class="bond-2 atom-0 atom-15" d="M 384.945,264.702 L 390.157,279.925" style="fill:none;fill-rule:evenodd;stroke:#000000;stroke-width:2.0px;stroke-linecap:butt;stroke-linejoin:miter;stroke-opacity:1"/>
<path class="bond-3 atom-1 atom-5" d="M 330.077,223.4 L 336.367,191.343" style="fill:none;fill-rule:evenodd;stroke:#000000;stroke-width:2.0px;stroke-linecap:butt;stroke-linejoin:miter;stroke-opacity:1"/>
<path class="bond-4 atom-1 atom-6" d="M 327.868,239.777 L 326.146,263.812" style="fill:none;fill-rule:evenodd;stroke:#000000;stroke-width:2.0px;stroke-linecap:butt;stroke-linejoin:miter;stroke-opacity:1"/>
<path class="bond-5 atom-2 atom-1" d="M 289.231,224.011 L 307.508,227.597" style="fill:none;fill-rule:evenodd;stroke:#000000;stroke-width:2.0px;stroke-linecap:butt;stroke-linejoin:miter;stroke-opacity:1"/>
<path class="bond-6 atom-2 atom-4" d="M 282.031,212.915 L 276.773,197.558" style="fill:none;fill-rule:evenodd;stroke:#000000;stroke-width:2.0px;stroke-linecap:butt;stroke-linejoin:miter;stroke-opacity:1"/>
<path class="bond-6 atom-2 atom-4" d="M 276.773,197.558 L 271.516,182.2" style="fill:none;fill-rule:evenodd;stroke:#FF0000;stroke-width:2.0px;stroke-linecap:butt;stroke-linejoin:miter;stroke-opacity:1"/>
<path class="bond-6 atom-2 atom-4" d="M 272.688,216.114 L 267.43,200.757" style="fill:none;fill-rule:evenodd;stroke:#000000;stroke-width:2.0px;stroke-linecap:butt;stroke-linejoin:miter;stroke-opacity:1"/>
<path class="bond-6 atom-2 atom-4" d="M 267.43,200.757 L 262.172,185.399" style="fill:none;fill-rule:evenodd;stroke:#FF0000;stroke-width:2.0px;stroke-linecap:butt;stroke-linejoin:miter;stroke-opacity:1"/>
<path class="bond-8 atom-3 atom-2" d="M 254.704,251.182 L 263.766,240.796" style="fill:none;fill-rule:evenodd;stroke:#0000FF;stroke-width:2.0px;stroke-linecap:butt;stroke-linejoin:miter;stroke-opacity:1"/>
<path class="bond-8 atom-3 atom-2" d="M 263.766,240.796 L 272.827,230.409" style="fill:none;fill-rule:evenodd;stroke:#000000;stroke-width:2.0px;stroke-linecap:butt;stroke-linejoin:miter;stroke-opacity:1"/>
<path class="bond-7 atom-3 atom-7" d="M 229.608,255.893 L 219.001,253.812" style="fill:none;fill-rule:evenodd;stroke:#0000FF;stroke-width:2.0px;stroke-linecap:butt;stroke-linejoin:miter;stroke-opacity:1"/>
<path class="bond-7 atom-3 atom-7" d="M 219.001,253.812 L 208.394,251.731" style="fill:none;fill-rule:evenodd;stroke:#000000;stroke-width:2.0px;stroke-linecap:butt;stroke-linejoin:miter;stroke-opacity:1"/>
<path class="bond-9 atom-3 atom-13" d="M 250.344,267.636 L 255.548,282.838" style="fill:none;fill-rule:evenodd;stroke:#0000FF;stroke-width:2.0px;stroke-linecap:butt;stroke-linejoin:miter;stroke-opacity:1"/>
<path class="bond-9 atom-3 atom-13" d="M 255.548,282.838 L 260.752,298.04" style="fill:none;fill-rule:evenodd;stroke:#000000;stroke-width:2.0px;stroke-linecap:butt;stroke-linejoin:miter;stroke-opacity:1"/>
<path class="bond-17 atom-11 atom-7" d="M 173.853,278.806 L 191.909,258.109" style="fill:none;fill-rule:evenodd;stroke:#000000;stroke-width:2.0px;stroke-linecap:butt;stroke-linejoin:miter;stroke-opacity:1"/>
<path class="bond-17 atom-11 atom-7" d="M 169.12,269.209 L 181.759,254.721" style="fill:none;fill-rule:evenodd;stroke:#000000;stroke-width:2.0px;stroke-linecap:butt;stroke-linejoin:miter;stroke-opacity:1"/>
<path class="bond-19 atom-12 atom-7" d="M 185.987,211.686 L 196.73,243.067" style="fill:none;fill-rule:evenodd;stroke:#000000;stroke-width:2.0px;stroke-linecap:butt;stroke-linejoin:miter;stroke-opacity:1"/>
<path class="bond-10 atom-8 atom-9" d="M 105.054,239.349 L 115.411,269.601" style="fill:none;fill-rule:evenodd;stroke:#000000;stroke-width:2.0px;stroke-linecap:butt;stroke-linejoin:miter;stroke-opacity:1"/>
<path class="bond-10 atom-8 atom-9" d="M 115.951,240.688 L 123.201,261.864" style="fill:none;fill-rule:evenodd;stroke:#000000;stroke-width:2.0px;stroke-linecap:butt;stroke-linejoin:miter;stroke-opacity:1"/>
<path class="bond-11 atom-8 atom-10" d="M 109.402,222.579 L 127.906,201.369" style="fill:none;fill-rule:evenodd;stroke:#000000;stroke-width:2.0px;stroke-linecap:butt;stroke-linejoin:miter;stroke-opacity:1"/>
<path class="bond-12 atom-8 atom-27" d="M 84.2456,227.371 L 59.4154,222.499" style="fill:none;fill-rule:evenodd;stroke:#000000;stroke-width:2.0px;stroke-linecap:butt;stroke-linejoin:miter;stroke-opacity:1"/>
<path class="bond-13 atom-9 atom-11" d="M 132.819,280.483 L 144.36,282.747" style="fill:none;fill-rule:evenodd;stroke:#000000;stroke-width:2.0px;stroke-linecap:butt;stroke-linejoin:miter;stroke-opacity:1"/>
<path class="bond-14 atom-9 atom-16" d="M 110.904,285.91 L 91.2886,308.395" style="fill:none;fill-rule:evenodd;stroke:#000000;stroke-width:2.0px;stroke-linecap:butt;stroke-linejoin:miter;stroke-opacity:1"/>
<path class="bond-15 atom-10 atom-12" d="M 148.06,196.312 L 160.844,198.82" style="fill:none;fill-rule:evenodd;stroke:#000000;stroke-width:2.0px;stroke-linecap:butt;stroke-linejoin:miter;stroke-opacity:1"/>
<path class="bond-15 atom-10 atom-12" d="M 148.076,206.379 L 157.025,208.135" style="fill:none;fill-rule:evenodd;stroke:#000000;stroke-width:2.0px;stroke-linecap:butt;stroke-linejoin:miter;stroke-opacity:1"/>
<path class="bond-16 atom-10 atom-17" d="M 131.802,185.447 L 121.393,155.044" style="fill:none;fill-rule:evenodd;stroke:#000000;stroke-width:2.0px;stroke-linecap:butt;stroke-linejoin:miter;stroke-opacity:1"/>
<path class="bond-18 atom-11 atom-18" d="M 169.451,295.418 L 179.888,325.903" style="fill:none;fill-rule:evenodd;stroke:#000000;stroke-width:2.0px;stroke-linecap:butt;stroke-linejoin:miter;stroke-opacity:1"/>
<path class="bond-20 atom-12 atom-19" d="M 190.322,194.876 L 209.108,173.342" style="fill:none;fill-rule:evenodd;stroke:#000000;stroke-width:2.0px;stroke-linecap:butt;stroke-linejoin:miter;stroke-opacity:1"/>
<path class="bond-21 atom-13 atom-20" d="M 256.895,308.397 L 222.079,320.316" style="fill:none;fill-rule:evenodd;stroke:#000000;stroke-width:2.0px;stroke-linecap:butt;stroke-linejoin:miter;stroke-opacity:1"/>
<path class="bond-22 atom-13 atom-21" d="M 294.229,299.659 L 296.974,299.08" style="fill:none;fill-rule:evenodd;stroke:#000000;stroke-width:2.0px;stroke-linecap:butt;stroke-linejoin:miter;stroke-opacity:1"/>
<path class="bond-23 atom-13 atom-22" d="M 266.426,314.612 L 276.803,344.923" style="fill:none;fill-rule:evenodd;stroke:#000000;stroke-width:2.0px;stroke-linecap:butt;stroke-linejoin:miter;stroke-opacity:1"/>
<path class="bond-24 atom-14 atom-23" d="M 419.068,212.467 L 440.193,230.896" style="fill:none;fill-rule:evenodd;stroke:#000000;stroke-width:2.0px;stroke-linecap:butt;stroke-linejoin:miter;stroke-opacity:1"/>
<path class="bond-25 atom-14 atom-24" d="M 399.846,195.697 L 377.805,176.469" style="fill:none;fill-rule:evenodd;stroke:#000000;stroke-width:2.0px;stroke-linecap:butt;stroke-linejoin:miter;stroke-opacity:1"/>
<path class="bond-26 atom-14 atom-28" d="M 416.475,195.855 L 435.393,174.169" style="fill:none;fill-rule:evenodd;stroke:#000000;stroke-width:2.0px;stroke-linecap:butt;stroke-linejoin:miter;stroke-opacity:1"/>
<path class="bond-27 atom-15 atom-25" d="M 407.337,282.99 L 433.293,274.104" style="fill:none;fill-rule:evenodd;stroke:#000000;stroke-width:2.0px;stroke-linecap:butt;stroke-linejoin:miter;stroke-opacity:1"/>
<path class="bond-28 atom-15 atom-26" d="M 370.084,295.743 L 351.453,302.122" style="fill:none;fill-rule:evenodd;stroke:#000000;stroke-width:2.0px;stroke-linecap:butt;stroke-linejoin:miter;stroke-opacity:1"/>
<path class="bond-29 atom-15 atom-29" d="M 395.796,296.397 L 406.18,326.728" style="fill:none;fill-rule:evenodd;stroke:#000000;stroke-width:2.0px;stroke-linecap:butt;stroke-linejoin:miter;stroke-opacity:1"/>
<path class="atom-0" d="M 363.245 234.261 L 367.828 241.668 Q 368.282 242.399, 369.013 243.723 Q 369.744 245.046, 369.783 245.125 L 369.783 234.261 L 371.64 234.261 L 371.64 248.246 L 369.724 248.246 L 364.805 240.147 Q 364.233 239.199, 363.62 238.113 Q 363.028 237.026, 362.85 236.691 L 362.85 248.246 L 361.033 248.246 L 361.033 234.261 L 363.245 234.261 " fill="#0000FF"/>
<path class="atom-0" d="M 373.121 245.935 L 375.096 245.935 L 375.096 247.91 L 373.121 247.91 L 373.121 245.935 M 373.121 239.14 L 375.096 239.14 L 375.096 241.115 L 373.121 241.115 L 373.121 239.14 " fill="#0000FF"/>
<path class="atom-0" d="M 376.933 246.666 L 379.995 246.666 L 379.995 236.217 L 376.617 237.263 L 376.163 236.098 L 380.449 234.182 L 381.852 234.419 L 381.852 246.666 L 384.597 246.666 L 384.597 248.246 L 376.933 248.246 L 376.933 246.666 " fill="#0000FF"/>
<path class="atom-1" d="M 308.507 231.765 Q 308.507 228.289, 310.126 226.472 Q 311.766 224.635, 314.867 224.635 Q 317.751 224.635, 319.292 226.669 L 317.988 227.736 Q 316.862 226.254, 314.867 226.254 Q 312.754 226.254, 311.628 227.677 Q 310.521 229.079, 310.521 231.765 Q 310.521 234.531, 311.667 235.953 Q 312.833 237.375, 315.084 237.375 Q 316.625 237.375, 318.422 236.447 L 318.976 237.928 Q 318.245 238.402, 317.139 238.679 Q 316.032 238.955, 314.808 238.955 Q 311.766 238.955, 310.126 237.098 Q 308.507 235.242, 308.507 231.765 " fill="#000000"/>
<path class="atom-1" d="M 320.773 236.466 L 322.748 236.466 L 322.748 238.442 L 320.773 238.442 L 320.773 236.466 M 320.773 229.672 L 322.748 229.672 L 322.748 231.647 L 320.773 231.647 L 320.773 229.672 " fill="#000000"/>
<path class="atom-1" d="M 323.775 227.44 Q 324.289 226.116, 325.514 225.385 Q 326.738 224.635, 328.437 224.635 Q 330.55 224.635, 331.736 225.78 Q 332.921 226.926, 332.921 228.96 Q 332.921 231.034, 331.38 232.97 Q 329.859 234.906, 326.699 237.197 L 333.158 237.197 L 333.158 238.777 L 323.736 238.777 L 323.736 237.454 Q 326.343 235.597, 327.884 234.215 Q 329.444 232.832, 330.195 231.588 Q 330.945 230.343, 330.945 229.059 Q 330.945 227.716, 330.274 226.965 Q 329.602 226.215, 328.437 226.215 Q 327.311 226.215, 326.56 226.669 Q 325.81 227.123, 325.277 228.131 L 323.775 227.44 " fill="#000000"/>
<path class="atom-2" d="M 263.523 222.257 Q 263.523 218.781, 265.143 216.964 Q 266.782 215.127, 269.883 215.127 Q 272.767 215.127, 274.308 217.161 L 273.004 218.228 Q 271.878 216.746, 269.883 216.746 Q 267.77 216.746, 266.644 218.169 Q 265.538 219.571, 265.538 222.257 Q 265.538 225.023, 266.683 226.445 Q 267.849 227.867, 270.1 227.867 Q 271.641 227.867, 273.439 226.939 L 273.992 228.42 Q 273.261 228.894, 272.155 229.171 Q 271.049 229.447, 269.824 229.447 Q 266.782 229.447, 265.143 227.591 Q 263.523 225.734, 263.523 222.257 " fill="#000000"/>
<path class="atom-2" d="M 275.789 226.958 L 277.764 226.958 L 277.764 228.934 L 275.789 228.934 L 275.789 226.958 M 275.789 220.164 L 277.764 220.164 L 277.764 222.139 L 275.789 222.139 L 275.789 220.164 " fill="#000000"/>
<path class="atom-2" d="M 285.31 221.902 Q 286.673 222.297, 287.324 223.186 Q 287.996 224.055, 287.996 225.438 Q 287.996 226.623, 287.404 227.551 Q 286.811 228.46, 285.725 228.973 Q 284.638 229.467, 283.216 229.467 Q 281.715 229.467, 280.589 228.953 Q 279.483 228.42, 278.594 227.353 L 279.72 226.208 Q 280.589 227.156, 281.32 227.531 Q 282.051 227.887, 283.216 227.887 Q 284.48 227.887, 285.25 227.215 Q 286.021 226.524, 286.021 225.418 Q 286.021 223.996, 285.211 223.364 Q 284.421 222.712, 282.702 222.712 L 281.695 222.712 L 281.695 221.29 L 282.584 221.29 Q 284.105 221.27, 284.915 220.618 Q 285.725 219.946, 285.725 218.702 Q 285.725 217.793, 285.053 217.26 Q 284.381 216.707, 283.236 216.707 Q 282.07 216.707, 281.34 217.122 Q 280.628 217.537, 280.075 218.583 L 278.712 217.853 Q 279.206 216.687, 280.391 215.917 Q 281.577 215.127, 283.236 215.127 Q 285.29 215.127, 286.495 216.095 Q 287.7 217.062, 287.7 218.702 Q 287.7 219.828, 287.087 220.638 Q 286.475 221.448, 285.31 221.902 " fill="#000000"/>
<path class="atom-3" d="M 233.055 252.417 L 237.638 259.824 Q 238.092 260.555, 238.823 261.878 Q 239.554 263.202, 239.593 263.281 L 239.593 252.417 L 241.45 252.417 L 241.45 266.402 L 239.534 266.402 L 234.616 258.303 Q 234.043 257.355, 233.431 256.269 Q 232.838 255.182, 232.66 254.846 L 232.66 266.402 L 230.843 266.402 L 230.843 252.417 L 233.055 252.417 " fill="#0000FF"/>
<path class="atom-3" d="M 242.931 264.09 L 244.907 264.09 L 244.907 266.066 L 242.931 266.066 L 242.931 264.09 M 242.931 257.296 L 244.907 257.296 L 244.907 259.271 L 242.931 259.271 L 242.931 257.296 " fill="#0000FF"/>
<path class="atom-3" d="M 254.585 261.602 L 256.264 261.602 L 256.264 263.182 L 254.585 263.182 L 254.585 266.402 L 252.729 266.402 L 252.729 263.182 L 245.499 263.182 L 245.499 261.937 L 251.622 252.417 L 254.585 252.417 L 254.585 261.602 M 247.791 261.602 L 252.729 261.602 L 252.729 253.681 L 247.791 261.602 " fill="#0000FF"/>
<path class="atom-4" d="M 257.576 175.519 Q 257.576 172.161, 259.235 170.284 Q 260.894 168.408, 263.995 168.408 Q 267.096 168.408, 268.756 170.284 Q 270.415 172.161, 270.415 175.519 Q 270.415 178.916, 268.736 180.852 Q 267.057 182.768, 263.995 182.768 Q 260.914 182.768, 259.235 180.852 Q 257.576 178.936, 257.576 175.519 M 263.995 181.188 Q 266.129 181.188, 267.274 179.765 Q 268.44 178.323, 268.44 175.519 Q 268.44 172.773, 267.274 171.39 Q 266.129 169.988, 263.995 169.988 Q 261.862 169.988, 260.697 171.371 Q 259.551 172.753, 259.551 175.519 Q 259.551 178.343, 260.697 179.765 Q 261.862 181.188, 263.995 181.188 " fill="#FF0000"/>
<path class="atom-4" d="M 271.896 180.239 L 273.872 180.239 L 273.872 182.215 L 271.896 182.215 L 271.896 180.239 M 271.896 173.445 L 273.872 173.445 L 273.872 175.42 L 271.896 175.42 L 271.896 173.445 " fill="#FF0000"/>
<path class="atom-4" d="M 279.857 173.8 Q 281.081 173.8, 282.089 174.333 Q 283.096 174.847, 283.669 175.835 Q 284.242 176.803, 284.242 178.126 Q 284.242 179.568, 283.53 180.615 Q 282.839 181.642, 281.694 182.175 Q 280.548 182.709, 279.244 182.709 Q 277.96 182.709, 276.775 182.234 Q 275.59 181.76, 274.78 180.852 L 275.965 179.627 Q 276.617 180.338, 277.506 180.733 Q 278.395 181.109, 279.303 181.109 Q 280.548 181.109, 281.397 180.338 Q 282.266 179.568, 282.266 178.165 Q 282.266 176.684, 281.397 175.993 Q 280.548 175.282, 279.185 175.282 Q 277.96 175.282, 276.597 175.815 L 275.511 175.301 L 276.183 168.566 L 283.372 168.566 L 283.175 170.146 L 277.802 170.146 L 277.387 174.294 Q 278.632 173.8, 279.857 173.8 " fill="#FF0000"/>
<path class="atom-5" d="M 332.483 176.336 L 334.38 176.336 L 334.38 182.281 L 341.53 182.281 L 341.53 176.336 L 343.426 176.336 L 343.426 190.32 L 341.53 190.32 L 341.53 183.861 L 334.38 183.861 L 334.38 190.32 L 332.483 190.32 L 332.483 176.336 " fill="#000000"/>
<path class="atom-5" d="M 344.908 188.009 L 346.883 188.009 L 346.883 189.985 L 344.908 189.985 L 344.908 188.009 M 344.908 181.215 L 346.883 181.215 L 346.883 183.19 L 344.908 183.19 L 344.908 181.215 " fill="#000000"/>
<path class="atom-5" d="M 353.697 181.59 Q 354.922 181.59, 355.89 182.123 Q 356.858 182.656, 357.391 183.624 Q 357.924 184.592, 357.924 185.817 Q 357.924 187.18, 357.312 188.246 Q 356.72 189.293, 355.653 189.886 Q 354.586 190.478, 353.223 190.478 Q 350.735 190.478, 349.47 188.799 Q 348.226 187.101, 348.226 183.743 Q 348.226 180.029, 349.767 178.113 Q 351.327 176.178, 354.31 176.178 Q 355.179 176.178, 355.91 176.375 Q 356.66 176.573, 357.371 176.988 L 356.601 178.311 Q 355.574 177.758, 354.329 177.758 Q 352.354 177.758, 351.347 179.042 Q 350.339 180.306, 350.221 182.933 Q 350.932 182.281, 351.821 181.945 Q 352.73 181.59, 353.697 181.59 M 353.243 188.859 Q 353.994 188.859, 354.606 188.464 Q 355.238 188.069, 355.594 187.377 Q 355.949 186.686, 355.949 185.837 Q 355.949 184.592, 355.258 183.881 Q 354.566 183.17, 353.342 183.17 Q 352.492 183.17, 351.643 183.526 Q 350.814 183.861, 350.221 184.454 Q 350.3 186.765, 351.031 187.812 Q 351.762 188.859, 353.243 188.859 " fill="#000000"/>
<path class="atom-6" d="M 320.116 264.61 L 322.012 264.61 L 322.012 270.555 L 329.162 270.555 L 329.162 264.61 L 331.059 264.61 L 331.059 278.595 L 329.162 278.595 L 329.162 272.136 L 322.012 272.136 L 322.012 278.595 L 320.116 278.595 L 320.116 264.61 " fill="#000000"/>
<path class="atom-6" d="M 332.54 276.284 L 334.515 276.284 L 334.515 278.259 L 332.54 278.259 L 332.54 276.284 M 332.54 269.489 L 334.515 269.489 L 334.515 271.464 L 332.54 271.464 L 332.54 269.489 " fill="#000000"/>
<path class="atom-6" d="M 342.199 266.19 L 334.871 266.19 L 334.871 264.61 L 344.155 264.61 L 344.155 266.012 L 338.505 278.595 L 336.609 278.595 L 342.199 266.19 " fill="#000000"/>
<path class="atom-7" d="M 182.274 249.96 Q 182.274 246.484, 183.894 244.667 Q 185.533 242.83, 188.634 242.83 Q 191.518 242.83, 193.059 244.864 L 191.755 245.931 Q 190.629 244.45, 188.634 244.45 Q 186.521 244.45, 185.395 245.872 Q 184.289 247.274, 184.289 249.96 Q 184.289 252.726, 185.434 254.148 Q 186.6 255.57, 188.852 255.57 Q 190.392 255.57, 192.19 254.642 L 192.743 256.123 Q 192.012 256.597, 190.906 256.874 Q 189.8 257.15, 188.575 257.15 Q 185.533 257.15, 183.894 255.294 Q 182.274 253.437, 182.274 249.96 " fill="#000000"/>
<path class="atom-7" d="M 194.54 254.662 L 196.515 254.662 L 196.515 256.637 L 194.54 256.637 L 194.54 254.662 M 194.54 247.867 L 196.515 247.867 L 196.515 249.842 L 194.54 249.842 L 194.54 247.867 " fill="#000000"/>
<path class="atom-7" d="M 204.871 249.565 Q 206.155 250.119, 206.885 250.948 Q 207.616 251.758, 207.616 253.141 Q 207.616 254.326, 207.004 255.254 Q 206.392 256.163, 205.286 256.676 Q 204.199 257.17, 202.757 257.17 Q 200.426 257.17, 199.083 256.103 Q 197.74 255.017, 197.74 253.141 Q 197.74 251.995, 198.333 251.146 Q 198.925 250.277, 200.15 249.625 Q 199.241 249.111, 198.747 248.361 Q 198.254 247.59, 198.254 246.405 Q 198.254 244.766, 199.439 243.798 Q 200.644 242.83, 202.678 242.83 Q 204.713 242.83, 205.898 243.798 Q 207.103 244.766, 207.103 246.405 Q 207.103 247.432, 206.53 248.203 Q 205.977 248.953, 204.871 249.565 M 202.678 244.311 Q 201.513 244.311, 200.861 244.864 Q 200.229 245.417, 200.229 246.405 Q 200.229 247.136, 200.663 247.63 Q 201.098 248.104, 201.71 248.38 Q 202.342 248.657, 203.547 249.072 Q 204.397 248.479, 204.752 247.847 Q 205.128 247.215, 205.128 246.405 Q 205.128 245.417, 204.476 244.864 Q 203.844 244.311, 202.678 244.311 M 202.757 255.689 Q 204.061 255.689, 204.851 254.997 Q 205.641 254.286, 205.641 253.121 Q 205.641 252.37, 205.226 251.896 Q 204.811 251.422, 204.179 251.146 Q 203.567 250.869, 202.461 250.514 L 201.572 250.217 Q 200.584 250.81, 200.15 251.521 Q 199.715 252.212, 199.715 253.121 Q 199.715 254.286, 200.545 254.997 Q 201.375 255.689, 202.757 255.689 " fill="#000000"/>
<path class="atom-8" d="M 85.4801 230.945 Q 85.4801 227.468, 87.0998 225.651 Q 88.7392 223.814, 91.8404 223.814 Q 94.7242 223.814, 96.2649 225.849 L 94.9613 226.915 Q 93.8354 225.434, 91.8404 225.434 Q 89.7269 225.434, 88.601 226.856 Q 87.4948 228.258, 87.4948 230.945 Q 87.4948 233.71, 88.6405 235.132 Q 89.8059 236.554, 92.0577 236.554 Q 93.5983 236.554, 95.3958 235.626 L 95.9489 237.107 Q 95.218 237.581, 94.1119 237.858 Q 93.0058 238.135, 91.7811 238.135 Q 88.7392 238.135, 87.0998 236.278 Q 85.4801 234.421, 85.4801 230.945 " fill="#000000"/>
<path class="atom-8" d="M 97.7463 235.646 L 99.7216 235.646 L 99.7216 237.621 L 97.7463 237.621 L 97.7463 235.646 M 97.7463 228.851 L 99.7216 228.851 L 99.7216 230.826 L 97.7463 230.826 L 97.7463 228.851 " fill="#000000"/>
<path class="atom-8" d="M 105.509 223.814 Q 107.998 223.814, 109.242 225.513 Q 110.506 227.192, 110.506 230.55 Q 110.506 234.263, 108.946 236.199 Q 107.405 238.115, 104.423 238.115 Q 103.554 238.115, 102.803 237.917 Q 102.072 237.72, 101.361 237.305 L 102.131 235.982 Q 103.159 236.535, 104.403 236.535 Q 106.378 236.535, 107.386 235.27 Q 108.393 233.987, 108.511 231.359 Q 107.8 232.011, 106.892 232.367 Q 106.003 232.703, 105.035 232.703 Q 103.81 232.703, 102.842 232.169 Q 101.875 231.636, 101.341 230.668 Q 100.808 229.7, 100.808 228.476 Q 100.808 227.113, 101.401 226.066 Q 102.013 224.999, 103.079 224.407 Q 104.146 223.814, 105.509 223.814 M 102.783 228.456 Q 102.783 229.7, 103.475 230.411 Q 104.166 231.122, 105.391 231.122 Q 106.24 231.122, 107.069 230.787 Q 107.919 230.431, 108.511 229.839 Q 108.432 227.527, 107.702 226.481 Q 106.971 225.434, 105.489 225.434 Q 104.739 225.434, 104.107 225.829 Q 103.494 226.224, 103.139 226.915 Q 102.783 227.606, 102.783 228.456 " fill="#000000"/>
<path class="atom-9" d="M 96.4055 277.664 Q 96.4055 274.187, 98.0252 272.37 Q 99.6647 270.533, 102.766 270.533 Q 105.65 270.533, 107.19 272.567 L 105.887 273.634 Q 104.761 272.153, 102.766 272.153 Q 100.652 272.153, 99.5264 273.575 Q 98.4203 274.977, 98.4203 277.664 Q 98.4203 280.429, 99.5659 281.851 Q 100.731 283.273, 102.983 283.273 Q 104.524 283.273, 106.321 282.345 L 106.874 283.826 Q 106.143 284.3, 105.037 284.577 Q 103.931 284.853, 102.707 284.853 Q 99.6647 284.853, 98.0252 282.997 Q 96.4055 281.14, 96.4055 277.664 " fill="#000000"/>
<path class="atom-9" d="M 108.672 282.365 L 110.647 282.365 L 110.647 284.34 L 108.672 284.34 L 108.672 282.365 M 108.672 275.57 L 110.647 275.57 L 110.647 277.545 L 108.672 277.545 L 108.672 275.57 " fill="#000000"/>
<path class="atom-9" d="M 112.484 283.096 L 115.546 283.096 L 115.546 272.647 L 112.168 273.693 L 111.714 272.528 L 116 270.612 L 117.402 270.849 L 117.402 283.096 L 120.148 283.096 L 120.148 284.676 L 112.484 284.676 L 112.484 283.096 " fill="#000000"/>
<path class="atom-9" d="M 126.469 284.834 Q 123.901 284.834, 122.617 282.938 Q 121.353 281.041, 121.353 277.664 Q 121.353 274.286, 122.617 272.409 Q 123.881 270.533, 126.469 270.533 Q 129.056 270.533, 130.32 272.409 Q 131.585 274.286, 131.585 277.664 Q 131.585 281.041, 130.301 282.938 Q 129.037 284.834, 126.469 284.834 M 126.469 283.254 Q 127.99 283.254, 128.799 281.851 Q 129.609 280.429, 129.609 277.664 Q 129.609 274.918, 128.799 273.516 Q 127.99 272.113, 126.469 272.113 Q 124.968 272.113, 124.138 273.516 Q 123.328 274.918, 123.328 277.664 Q 123.328 280.429, 124.138 281.851 Q 124.968 283.254, 126.469 283.254 " fill="#000000"/>
<path class="atom-10" d="M 113.582 193.734 Q 113.582 190.257, 115.202 188.44 Q 116.842 186.603, 119.943 186.603 Q 122.827 186.603, 124.367 188.637 L 123.064 189.704 Q 121.938 188.223, 119.943 188.223 Q 117.829 188.223, 116.703 189.645 Q 115.597 191.047, 115.597 193.734 Q 115.597 196.499, 116.743 197.921 Q 117.908 199.343, 120.16 199.343 Q 121.701 199.343, 123.498 198.415 L 124.051 199.896 Q 123.32 200.37, 122.214 200.647 Q 121.108 200.923, 119.883 200.923 Q 116.842 200.923, 115.202 199.067 Q 113.582 197.21, 113.582 193.734 " fill="#000000"/>
<path class="atom-10" d="M 125.849 198.435 L 127.824 198.435 L 127.824 200.41 L 125.849 200.41 L 125.849 198.435 M 125.849 191.64 L 127.824 191.64 L 127.824 193.615 L 125.849 193.615 L 125.849 191.64 " fill="#000000"/>
<path class="atom-10" d="M 129.661 199.165 L 132.722 199.165 L 132.722 188.716 L 129.345 189.763 L 128.89 188.598 L 133.177 186.682 L 134.579 186.919 L 134.579 199.165 L 137.325 199.165 L 137.325 200.746 L 129.661 200.746 L 129.661 199.165 " fill="#000000"/>
<path class="atom-10" d="M 139.162 199.165 L 142.223 199.165 L 142.223 188.716 L 138.846 189.763 L 138.391 188.598 L 142.678 186.682 L 144.08 186.919 L 144.08 199.165 L 146.826 199.165 L 146.826 200.746 L 139.162 200.746 L 139.162 199.165 " fill="#000000"/>
<path class="atom-11" d="M 145.221 287.172 Q 145.221 283.695, 146.84 281.878 Q 148.48 280.041, 151.581 280.041 Q 154.465 280.041, 156.005 282.075 L 154.702 283.142 Q 153.576 281.661, 151.581 281.661 Q 149.467 281.661, 148.341 283.083 Q 147.235 284.485, 147.235 287.172 Q 147.235 289.937, 148.381 291.359 Q 149.546 292.781, 151.798 292.781 Q 153.339 292.781, 155.136 291.853 L 155.689 293.334 Q 154.959 293.808, 153.852 294.085 Q 152.746 294.361, 151.522 294.361 Q 148.48 294.361, 146.84 292.505 Q 145.221 290.648, 145.221 287.172 " fill="#000000"/>
<path class="atom-11" d="M 157.487 291.873 L 159.462 291.873 L 159.462 293.848 L 157.487 293.848 L 157.487 291.873 M 157.487 285.078 L 159.462 285.078 L 159.462 287.053 L 157.487 287.053 L 157.487 285.078 " fill="#000000"/>
<path class="atom-11" d="M 161.299 292.603 L 164.361 292.603 L 164.361 282.154 L 160.983 283.201 L 160.529 282.036 L 164.815 280.12 L 166.217 280.357 L 166.217 292.603 L 168.963 292.603 L 168.963 294.184 L 161.299 294.184 L 161.299 292.603 " fill="#000000"/>
<path class="atom-11" d="M 169.99 282.846 Q 170.504 281.522, 171.728 280.792 Q 172.953 280.041, 174.652 280.041 Q 176.765 280.041, 177.95 281.187 Q 179.135 282.332, 179.135 284.367 Q 179.135 286.441, 177.595 288.376 Q 176.074 290.312, 172.913 292.603 L 179.372 292.603 L 179.372 294.184 L 169.951 294.184 L 169.951 292.86 Q 172.558 291.004, 174.099 289.621 Q 175.659 288.238, 176.41 286.994 Q 177.16 285.749, 177.16 284.465 Q 177.16 283.122, 176.489 282.372 Q 175.817 281.621, 174.652 281.621 Q 173.526 281.621, 172.775 282.075 Q 172.025 282.53, 171.491 283.537 L 169.99 282.846 " fill="#000000"/>
<path class="atom-12" d="M 161.736 203.242 Q 161.736 199.765, 163.355 197.948 Q 164.995 196.111, 168.096 196.111 Q 170.98 196.111, 172.521 198.145 L 171.217 199.212 Q 170.091 197.731, 168.096 197.731 Q 165.982 197.731, 164.857 199.153 Q 163.75 200.555, 163.75 203.242 Q 163.75 206.007, 164.896 207.429 Q 166.061 208.851, 168.313 208.851 Q 169.854 208.851, 171.651 207.923 L 172.204 209.404 Q 171.474 209.878, 170.368 210.155 Q 169.261 210.431, 168.037 210.431 Q 164.995 210.431, 163.355 208.575 Q 161.736 206.718, 161.736 203.242 " fill="#000000"/>
<path class="atom-12" d="M 174.002 207.943 L 175.977 207.943 L 175.977 209.918 L 174.002 209.918 L 174.002 207.943 M 174.002 201.148 L 175.977 201.148 L 175.977 203.123 L 174.002 203.123 L 174.002 201.148 " fill="#000000"/>
<path class="atom-12" d="M 177.814 208.673 L 180.876 208.673 L 180.876 198.224 L 177.498 199.271 L 177.044 198.106 L 181.33 196.19 L 182.733 196.427 L 182.733 208.673 L 185.478 208.673 L 185.478 210.254 L 177.814 210.254 L 177.814 208.673 " fill="#000000"/>
<path class="atom-12" d="M 193.024 202.886 Q 194.386 203.281, 195.038 204.17 Q 195.71 205.039, 195.71 206.422 Q 195.71 207.607, 195.117 208.535 Q 194.525 209.444, 193.438 209.957 Q 192.352 210.451, 190.93 210.451 Q 189.429 210.451, 188.303 209.938 Q 187.197 209.404, 186.308 208.338 L 187.434 207.192 Q 188.303 208.14, 189.034 208.515 Q 189.764 208.871, 190.93 208.871 Q 192.194 208.871, 192.964 208.199 Q 193.735 207.508, 193.735 206.402 Q 193.735 204.98, 192.925 204.348 Q 192.135 203.696, 190.416 203.696 L 189.409 203.696 L 189.409 202.274 L 190.298 202.274 Q 191.819 202.254, 192.628 201.602 Q 193.438 200.93, 193.438 199.686 Q 193.438 198.777, 192.767 198.244 Q 192.095 197.691, 190.95 197.691 Q 189.784 197.691, 189.053 198.106 Q 188.342 198.521, 187.789 199.568 L 186.426 198.837 Q 186.92 197.671, 188.105 196.901 Q 189.29 196.111, 190.95 196.111 Q 193.004 196.111, 194.209 197.079 Q 195.414 198.047, 195.414 199.686 Q 195.414 200.812, 194.801 201.622 Q 194.189 202.432, 193.024 202.886 " fill="#000000"/>
<path class="atom-13" d="M 258.129 306.187 Q 258.129 302.711, 259.749 300.894 Q 261.388 299.057, 264.489 299.057 Q 267.373 299.057, 268.914 301.091 L 267.61 302.158 Q 266.484 300.676, 264.489 300.676 Q 262.376 300.676, 261.25 302.099 Q 260.144 303.501, 260.144 306.187 Q 260.144 308.953, 261.29 310.375 Q 262.455 311.797, 264.707 311.797 Q 266.247 311.797, 268.045 310.869 L 268.598 312.35 Q 267.867 312.824, 266.761 313.101 Q 265.655 313.377, 264.43 313.377 Q 261.388 313.377, 259.749 311.521 Q 258.129 309.664, 258.129 306.187 " fill="#000000"/>
<path class="atom-13" d="M 270.395 310.888 L 272.371 310.888 L 272.371 312.864 L 270.395 312.864 L 270.395 310.888 M 270.395 304.094 L 272.371 304.094 L 272.371 306.069 L 270.395 306.069 L 270.395 304.094 " fill="#000000"/>
<path class="atom-13" d="M 274.208 311.619 L 277.269 311.619 L 277.269 301.17 L 273.892 302.217 L 273.437 301.052 L 277.724 299.136 L 279.126 299.373 L 279.126 311.619 L 281.872 311.619 L 281.872 313.2 L 274.208 313.2 L 274.208 311.619 " fill="#000000"/>
<path class="atom-13" d="M 291.55 308.4 L 293.229 308.4 L 293.229 309.98 L 291.55 309.98 L 291.55 313.2 L 289.693 313.2 L 289.693 309.98 L 282.464 309.98 L 282.464 308.735 L 288.587 299.215 L 291.55 299.215 L 291.55 308.4 M 284.755 308.4 L 289.693 308.4 L 289.693 300.479 L 284.755 308.4 " fill="#000000"/>
<path class="atom-14" d="M 387.984 204.062 Q 387.984 200.586, 389.604 198.769 Q 391.244 196.932, 394.345 196.932 Q 397.229 196.932, 398.769 198.966 L 397.466 200.033 Q 396.34 198.551, 394.345 198.551 Q 392.231 198.551, 391.105 199.973 Q 389.999 201.376, 389.999 204.062 Q 389.999 206.828, 391.145 208.25 Q 392.31 209.672, 394.562 209.672 Q 396.103 209.672, 397.9 208.743 L 398.453 210.225 Q 397.722 210.699, 396.616 210.976 Q 395.51 211.252, 394.285 211.252 Q 391.244 211.252, 389.604 209.395 Q 387.984 207.539, 387.984 204.062 " fill="#000000"/>
<path class="atom-14" d="M 400.251 208.763 L 402.226 208.763 L 402.226 210.738 L 400.251 210.738 L 400.251 208.763 M 400.251 201.968 L 402.226 201.968 L 402.226 203.944 L 400.251 203.944 L 400.251 201.968 " fill="#000000"/>
<path class="atom-14" d="M 404.063 209.494 L 407.125 209.494 L 407.125 199.045 L 403.747 200.092 L 403.293 198.927 L 407.579 197.011 L 408.981 197.248 L 408.981 209.494 L 411.727 209.494 L 411.727 211.074 L 404.063 211.074 L 404.063 209.494 " fill="#000000"/>
<path class="atom-14" d="M 417.712 202.324 Q 418.936 202.324, 419.944 202.857 Q 420.951 203.371, 421.524 204.358 Q 422.097 205.326, 422.097 206.65 Q 422.097 208.092, 421.386 209.139 Q 420.694 210.166, 419.549 210.699 Q 418.403 211.232, 417.1 211.232 Q 415.816 211.232, 414.63 210.758 Q 413.445 210.284, 412.635 209.376 L 413.821 208.151 Q 414.472 208.862, 415.361 209.257 Q 416.25 209.632, 417.159 209.632 Q 418.403 209.632, 419.253 208.862 Q 420.122 208.092, 420.122 206.689 Q 420.122 205.208, 419.253 204.516 Q 418.403 203.805, 417.04 203.805 Q 415.816 203.805, 414.453 204.339 L 413.366 203.825 L 414.038 197.09 L 421.228 197.09 L 421.03 198.67 L 415.658 198.67 L 415.243 202.818 Q 416.487 202.324, 417.712 202.324 " fill="#000000"/>
<path class="atom-15" d="M 371.319 287.992 Q 371.319 284.516, 372.938 282.699 Q 374.578 280.862, 377.679 280.862 Q 380.563 280.862, 382.104 282.896 L 380.8 283.963 Q 379.674 282.481, 377.679 282.481 Q 375.565 282.481, 374.44 283.903 Q 373.333 285.306, 373.333 287.992 Q 373.333 290.758, 374.479 292.18 Q 375.645 293.602, 377.896 293.602 Q 379.437 293.602, 381.234 292.674 L 381.787 294.155 Q 381.057 294.629, 379.951 294.906 Q 378.844 295.182, 377.62 295.182 Q 374.578 295.182, 372.938 293.325 Q 371.319 291.469, 371.319 287.992 " fill="#000000"/>
<path class="atom-15" d="M 383.585 292.693 L 385.56 292.693 L 385.56 294.669 L 383.585 294.669 L 383.585 292.693 M 383.585 285.898 L 385.56 285.898 L 385.56 287.874 L 383.585 287.874 L 383.585 285.898 " fill="#000000"/>
<path class="atom-15" d="M 387.397 293.424 L 390.459 293.424 L 390.459 282.975 L 387.081 284.022 L 386.627 282.857 L 390.913 280.941 L 392.316 281.178 L 392.316 293.424 L 395.061 293.424 L 395.061 295.004 L 387.397 295.004 L 387.397 293.424 " fill="#000000"/>
<path class="atom-15" d="M 401.876 286.274 Q 403.1 286.274, 404.068 286.807 Q 405.036 287.34, 405.569 288.308 Q 406.103 289.276, 406.103 290.501 Q 406.103 291.864, 405.49 292.93 Q 404.898 293.977, 403.831 294.57 Q 402.765 295.162, 401.402 295.162 Q 398.913 295.162, 397.649 293.483 Q 396.404 291.785, 396.404 288.427 Q 396.404 284.713, 397.945 282.797 Q 399.505 280.862, 402.488 280.862 Q 403.357 280.862, 404.088 281.059 Q 404.839 281.257, 405.55 281.671 L 404.779 282.995 Q 403.752 282.442, 402.508 282.442 Q 400.533 282.442, 399.525 283.726 Q 398.518 284.99, 398.399 287.617 Q 399.11 286.965, 399.999 286.629 Q 400.908 286.274, 401.876 286.274 M 401.421 293.543 Q 402.172 293.543, 402.784 293.148 Q 403.416 292.753, 403.772 292.061 Q 404.127 291.37, 404.127 290.521 Q 404.127 289.276, 403.436 288.565 Q 402.745 287.854, 401.52 287.854 Q 400.671 287.854, 399.821 288.209 Q 398.992 288.545, 398.399 289.138 Q 398.478 291.449, 399.209 292.496 Q 399.94 293.543, 401.421 293.543 " fill="#000000"/>
<path class="atom-16" d="M 56.7901 307.863 L 58.6863 307.863 L 58.6863 313.808 L 65.8367 313.808 L 65.8367 307.863 L 67.7329 307.863 L 67.7329 321.847 L 65.8367 321.847 L 65.8367 315.388 L 58.6863 315.388 L 58.6863 321.847 L 56.7901 321.847 L 56.7901 307.863 " fill="#000000"/>
<path class="atom-16" d="M 69.2143 319.536 L 71.1896 319.536 L 71.1896 321.511 L 69.2143 321.511 L 69.2143 319.536 M 69.2143 312.741 L 71.1896 312.741 L 71.1896 314.717 L 69.2143 314.717 L 69.2143 312.741 " fill="#000000"/>
<path class="atom-16" d="M 73.0266 320.267 L 76.0882 320.267 L 76.0882 309.818 L 72.7105 310.865 L 72.2562 309.7 L 76.5425 307.784 L 77.9449 308.021 L 77.9449 320.267 L 80.6905 320.267 L 80.6905 321.847 L 73.0266 321.847 L 73.0266 320.267 " fill="#000000"/>
<path class="atom-16" d="M 88.3742 309.443 L 81.046 309.443 L 81.046 307.863 L 90.3297 307.863 L 90.3297 309.265 L 84.6805 321.847 L 82.7843 321.847 L 88.3742 309.443 " fill="#000000"/>
<path class="atom-17" d="M 113.153 140.042 L 115.049 140.042 L 115.049 145.987 L 122.199 145.987 L 122.199 140.042 L 124.096 140.042 L 124.096 154.027 L 122.199 154.027 L 122.199 147.568 L 115.049 147.568 L 115.049 154.027 L 113.153 154.027 L 113.153 140.042 " fill="#000000"/>
<path class="atom-17" d="M 125.577 151.716 L 127.552 151.716 L 127.552 153.691 L 125.577 153.691 L 125.577 151.716 M 125.577 144.921 L 127.552 144.921 L 127.552 146.896 L 125.577 146.896 L 125.577 144.921 " fill="#000000"/>
<path class="atom-17" d="M 129.389 152.447 L 132.451 152.447 L 132.451 141.997 L 129.073 143.044 L 128.619 141.879 L 132.905 139.963 L 134.308 140.2 L 134.308 152.447 L 137.053 152.447 L 137.053 154.027 L 129.389 154.027 L 129.389 152.447 " fill="#000000"/>
<path class="atom-17" d="M 145.409 146.62 Q 146.692 147.173, 147.423 148.002 Q 148.154 148.812, 148.154 150.195 Q 148.154 151.38, 147.542 152.308 Q 146.929 153.217, 145.823 153.73 Q 144.737 154.224, 143.295 154.224 Q 140.964 154.224, 139.621 153.158 Q 138.278 152.071, 138.278 150.195 Q 138.278 149.049, 138.87 148.2 Q 139.463 147.331, 140.688 146.679 Q 139.779 146.165, 139.285 145.415 Q 138.791 144.644, 138.791 143.459 Q 138.791 141.82, 139.977 140.852 Q 141.182 139.884, 143.216 139.884 Q 145.251 139.884, 146.436 140.852 Q 147.641 141.82, 147.641 143.459 Q 147.641 144.486, 147.068 145.257 Q 146.515 146.007, 145.409 146.62 M 143.216 141.365 Q 142.051 141.365, 141.399 141.918 Q 140.767 142.472, 140.767 143.459 Q 140.767 144.19, 141.201 144.684 Q 141.636 145.158, 142.248 145.434 Q 142.88 145.711, 144.085 146.126 Q 144.934 145.533, 145.29 144.901 Q 145.665 144.269, 145.665 143.459 Q 145.665 142.472, 145.013 141.918 Q 144.381 141.365, 143.216 141.365 M 143.295 152.743 Q 144.599 152.743, 145.389 152.051 Q 146.179 151.34, 146.179 150.175 Q 146.179 149.424, 145.764 148.95 Q 145.349 148.476, 144.717 148.2 Q 144.105 147.923, 142.999 147.568 L 142.11 147.271 Q 141.122 147.864, 140.688 148.575 Q 140.253 149.266, 140.253 150.175 Q 140.253 151.34, 141.083 152.051 Q 141.912 152.743, 143.295 152.743 " fill="#000000"/>
<path class="atom-18" d="M 177.13 326.918 L 179.027 326.918 L 179.027 332.863 L 186.177 332.863 L 186.177 326.918 L 188.073 326.918 L 188.073 340.903 L 186.177 340.903 L 186.177 334.444 L 179.027 334.444 L 179.027 340.903 L 177.13 340.903 L 177.13 326.918 " fill="#000000"/>
<path class="atom-18" d="M 189.555 338.592 L 191.53 338.592 L 191.53 340.567 L 189.555 340.567 L 189.555 338.592 M 189.555 331.797 L 191.53 331.797 L 191.53 333.772 L 189.555 333.772 L 189.555 331.797 " fill="#000000"/>
<path class="atom-18" d="M 193.367 339.322 L 196.429 339.322 L 196.429 328.873 L 193.051 329.92 L 192.597 328.755 L 196.883 326.839 L 198.285 327.076 L 198.285 339.322 L 201.031 339.322 L 201.031 340.903 L 193.367 340.903 L 193.367 339.322 " fill="#000000"/>
<path class="atom-18" d="M 206.818 326.76 Q 209.307 326.76, 210.552 328.459 Q 211.816 330.138, 211.816 333.495 Q 211.816 337.209, 210.255 339.145 Q 208.715 341.061, 205.732 341.061 Q 204.863 341.061, 204.112 340.863 Q 203.381 340.666, 202.67 340.251 L 203.441 338.927 Q 204.468 339.48, 205.712 339.48 Q 207.687 339.48, 208.695 338.216 Q 209.702 336.932, 209.821 334.305 Q 209.11 334.957, 208.201 335.313 Q 207.312 335.648, 206.344 335.648 Q 205.12 335.648, 204.152 335.115 Q 203.184 334.582, 202.651 333.614 Q 202.117 332.646, 202.117 331.421 Q 202.117 330.059, 202.71 329.012 Q 203.322 327.945, 204.389 327.352 Q 205.455 326.76, 206.818 326.76 M 204.093 331.402 Q 204.093 332.646, 204.784 333.357 Q 205.475 334.068, 206.7 334.068 Q 207.549 334.068, 208.379 333.733 Q 209.228 333.377, 209.821 332.784 Q 209.742 330.473, 209.011 329.426 Q 208.28 328.38, 206.799 328.38 Q 206.048 328.38, 205.416 328.775 Q 204.804 329.17, 204.448 329.861 Q 204.093 330.552, 204.093 331.402 " fill="#000000"/>
<path class="atom-19" d="M 210.067 159.058 L 211.963 159.058 L 211.963 165.003 L 219.114 165.003 L 219.114 159.058 L 221.01 159.058 L 221.01 173.043 L 219.114 173.043 L 219.114 166.584 L 211.963 166.584 L 211.963 173.043 L 210.067 173.043 L 210.067 159.058 " fill="#000000"/>
<path class="atom-19" d="M 222.491 170.732 L 224.466 170.732 L 224.466 172.707 L 222.491 172.707 L 222.491 170.732 M 222.491 163.937 L 224.466 163.937 L 224.466 165.912 L 222.491 165.912 L 222.491 163.937 " fill="#000000"/>
<path class="atom-19" d="M 225.494 161.705 Q 226.007 160.381, 227.232 159.65 Q 228.456 158.9, 230.155 158.9 Q 232.269 158.9, 233.454 160.045 Q 234.639 161.191, 234.639 163.226 Q 234.639 165.3, 233.098 167.235 Q 231.577 169.171, 228.417 171.462 L 234.876 171.462 L 234.876 173.043 L 225.454 173.043 L 225.454 171.719 Q 228.061 169.862, 229.602 168.48 Q 231.162 167.097, 231.913 165.853 Q 232.664 164.608, 232.664 163.324 Q 232.664 161.981, 231.992 161.231 Q 231.321 160.48, 230.155 160.48 Q 229.029 160.48, 228.279 160.934 Q 227.528 161.389, 226.995 162.396 L 225.494 161.705 " fill="#000000"/>
<path class="atom-19" d="M 241.197 173.201 Q 238.629 173.201, 237.345 171.304 Q 236.081 169.408, 236.081 166.03 Q 236.081 162.653, 237.345 160.776 Q 238.609 158.9, 241.197 158.9 Q 243.784 158.9, 245.048 160.776 Q 246.313 162.653, 246.313 166.03 Q 246.313 169.408, 245.029 171.304 Q 243.765 173.201, 241.197 173.201 M 241.197 171.62 Q 242.718 171.62, 243.527 170.218 Q 244.337 168.796, 244.337 166.03 Q 244.337 163.285, 243.527 161.882 Q 242.718 160.48, 241.197 160.48 Q 239.696 160.48, 238.866 161.882 Q 238.056 163.285, 238.056 166.03 Q 238.056 168.796, 238.866 170.218 Q 239.696 171.62, 241.197 171.62 " fill="#000000"/>
<path class="atom-20" d="M 186.71 315.209 L 188.606 315.209 L 188.606 321.155 L 195.756 321.155 L 195.756 315.209 L 197.653 315.209 L 197.653 329.194 L 195.756 329.194 L 195.756 322.735 L 188.606 322.735 L 188.606 329.194 L 186.71 329.194 L 186.71 315.209 " fill="#000000"/>
<path class="atom-20" d="M 199.134 326.883 L 201.109 326.883 L 201.109 328.858 L 199.134 328.858 L 199.134 326.883 M 199.134 320.088 L 201.109 320.088 L 201.109 322.063 L 199.134 322.063 L 199.134 320.088 " fill="#000000"/>
<path class="atom-20" d="M 202.136 317.856 Q 202.65 316.533, 203.875 315.802 Q 205.099 315.051, 206.798 315.051 Q 208.911 315.051, 210.097 316.197 Q 211.282 317.342, 211.282 319.377 Q 211.282 321.451, 209.741 323.387 Q 208.22 325.322, 205.06 327.614 L 211.519 327.614 L 211.519 329.194 L 202.097 329.194 L 202.097 327.871 Q 204.704 326.014, 206.245 324.631 Q 207.805 323.248, 208.556 322.004 Q 209.307 320.76, 209.307 319.476 Q 209.307 318.133, 208.635 317.382 Q 207.963 316.631, 206.798 316.631 Q 205.672 316.631, 204.922 317.086 Q 204.171 317.54, 203.638 318.547 L 202.136 317.856 " fill="#000000"/>
<path class="atom-20" d="M 213.356 327.614 L 216.417 327.614 L 216.417 317.165 L 213.04 318.212 L 212.585 317.046 L 216.872 315.13 L 218.274 315.367 L 218.274 327.614 L 221.02 327.614 L 221.02 329.194 L 213.356 329.194 L 213.356 327.614 " fill="#000000"/>
<path class="atom-21" d="M 297.19 290.969 L 299.086 290.969 L 299.086 296.914 L 306.236 296.914 L 306.236 290.969 L 308.132 290.969 L 308.132 304.953 L 306.236 304.953 L 306.236 298.494 L 299.086 298.494 L 299.086 304.953 L 297.19 304.953 L 297.19 290.969 " fill="#000000"/>
<path class="atom-21" d="M 309.614 302.642 L 311.589 302.642 L 311.589 304.618 L 309.614 304.618 L 309.614 302.642 M 309.614 295.848 L 311.589 295.848 L 311.589 297.823 L 309.614 297.823 L 309.614 295.848 " fill="#000000"/>
<path class="atom-21" d="M 312.616 293.616 Q 313.13 292.292, 314.354 291.561 Q 315.579 290.811, 317.278 290.811 Q 319.391 290.811, 320.576 291.956 Q 321.762 293.102, 321.762 295.137 Q 321.762 297.211, 320.221 299.146 Q 318.7 301.082, 315.54 303.373 L 321.999 303.373 L 321.999 304.953 L 312.577 304.953 L 312.577 303.63 Q 315.184 301.773, 316.725 300.391 Q 318.285 299.008, 319.036 297.764 Q 319.786 296.519, 319.786 295.235 Q 319.786 293.892, 319.115 293.142 Q 318.443 292.391, 317.278 292.391 Q 316.152 292.391, 315.401 292.845 Q 314.651 293.3, 314.117 294.307 L 312.616 293.616 " fill="#000000"/>
<path class="atom-21" d="M 323.026 293.616 Q 323.539 292.292, 324.764 291.561 Q 325.989 290.811, 327.687 290.811 Q 329.801 290.811, 330.986 291.956 Q 332.171 293.102, 332.171 295.137 Q 332.171 297.211, 330.63 299.146 Q 329.109 301.082, 325.949 303.373 L 332.408 303.373 L 332.408 304.953 L 322.986 304.953 L 322.986 303.63 Q 325.593 301.773, 327.134 300.391 Q 328.695 299.008, 329.445 297.764 Q 330.196 296.519, 330.196 295.235 Q 330.196 293.892, 329.524 293.142 Q 328.853 292.391, 327.687 292.391 Q 326.561 292.391, 325.811 292.845 Q 325.06 293.3, 324.527 294.307 L 323.026 293.616 " fill="#000000"/>
<path class="atom-22" d="M 274.045 345.934 L 275.941 345.934 L 275.941 351.879 L 283.091 351.879 L 283.091 345.934 L 284.987 345.934 L 284.987 359.918 L 283.091 359.918 L 283.091 353.459 L 275.941 353.459 L 275.941 359.918 L 274.045 359.918 L 274.045 345.934 " fill="#000000"/>
<path class="atom-22" d="M 286.469 357.607 L 288.444 357.607 L 288.444 359.583 L 286.469 359.583 L 286.469 357.607 M 286.469 350.813 L 288.444 350.813 L 288.444 352.788 L 286.469 352.788 L 286.469 350.813 " fill="#000000"/>
<path class="atom-22" d="M 289.471 348.581 Q 289.985 347.257, 291.209 346.526 Q 292.434 345.776, 294.133 345.776 Q 296.246 345.776, 297.431 346.921 Q 298.617 348.067, 298.617 350.102 Q 298.617 352.176, 297.076 354.111 Q 295.555 356.047, 292.395 358.338 L 298.854 358.338 L 298.854 359.918 L 289.432 359.918 L 289.432 358.595 Q 292.039 356.738, 293.58 355.356 Q 295.14 353.973, 295.891 352.729 Q 296.641 351.484, 296.641 350.2 Q 296.641 348.857, 295.97 348.107 Q 295.298 347.356, 294.133 347.356 Q 293.007 347.356, 292.256 347.81 Q 291.506 348.265, 290.972 349.272 L 289.471 348.581 " fill="#000000"/>
<path class="atom-22" d="M 306.399 352.551 Q 307.762 352.946, 308.414 353.835 Q 309.085 354.704, 309.085 356.087 Q 309.085 357.272, 308.493 358.2 Q 307.9 359.109, 306.814 359.622 Q 305.727 360.116, 304.305 360.116 Q 302.804 360.116, 301.678 359.602 Q 300.572 359.069, 299.683 358.003 L 300.809 356.857 Q 301.678 357.805, 302.409 358.18 Q 303.14 358.536, 304.305 358.536 Q 305.569 358.536, 306.34 357.864 Q 307.11 357.173, 307.11 356.067 Q 307.11 354.645, 306.3 354.013 Q 305.51 353.361, 303.792 353.361 L 302.784 353.361 L 302.784 351.939 L 303.673 351.939 Q 305.194 351.919, 306.004 351.267 Q 306.814 350.595, 306.814 349.351 Q 306.814 348.442, 306.142 347.909 Q 305.471 347.356, 304.325 347.356 Q 303.16 347.356, 302.429 347.771 Q 301.718 348.186, 301.165 349.232 L 299.802 348.502 Q 300.295 347.336, 301.481 346.566 Q 302.666 345.776, 304.325 345.776 Q 306.379 345.776, 307.584 346.744 Q 308.789 347.712, 308.789 349.351 Q 308.789 350.477, 308.177 351.287 Q 307.564 352.097, 306.399 352.551 " fill="#000000"/>
<path class="atom-23" d="M 441.106 229.552 L 443.002 229.552 L 443.002 235.498 L 450.153 235.498 L 450.153 229.552 L 452.049 229.552 L 452.049 243.537 L 450.153 243.537 L 450.153 237.078 L 443.002 237.078 L 443.002 243.537 L 441.106 243.537 L 441.106 229.552 " fill="#000000"/>
<path class="atom-23" d="M 453.53 241.226 L 455.506 241.226 L 455.506 243.201 L 453.53 243.201 L 453.53 241.226 M 453.53 234.431 L 455.506 234.431 L 455.506 236.406 L 453.53 236.406 L 453.53 234.431 " fill="#000000"/>
<path class="atom-23" d="M 456.533 232.199 Q 457.046 230.876, 458.271 230.145 Q 459.496 229.394, 461.194 229.394 Q 463.308 229.394, 464.493 230.54 Q 465.678 231.685, 465.678 233.72 Q 465.678 235.794, 464.137 237.73 Q 462.616 239.665, 459.456 241.957 L 465.915 241.957 L 465.915 243.537 L 456.493 243.537 L 456.493 242.213 Q 459.101 240.357, 460.641 238.974 Q 462.202 237.591, 462.952 236.347 Q 463.703 235.103, 463.703 233.819 Q 463.703 232.476, 463.031 231.725 Q 462.36 230.974, 461.194 230.974 Q 460.068 230.974, 459.318 231.429 Q 458.567 231.883, 458.034 232.89 L 456.533 232.199 " fill="#000000"/>
<path class="atom-23" d="M 475.594 238.737 L 477.273 238.737 L 477.273 240.317 L 475.594 240.317 L 475.594 243.537 L 473.737 243.537 L 473.737 240.317 L 466.508 240.317 L 466.508 239.073 L 472.631 229.552 L 475.594 229.552 L 475.594 238.737 M 468.799 238.737 L 473.737 238.737 L 473.737 230.816 L 468.799 238.737 " fill="#000000"/>
<path class="atom-24" d="M 341.707 164.627 L 343.603 164.627 L 343.603 170.572 L 350.754 170.572 L 350.754 164.627 L 352.65 164.627 L 352.65 178.612 L 350.754 178.612 L 350.754 172.153 L 343.603 172.153 L 343.603 178.612 L 341.707 178.612 L 341.707 164.627 " fill="#000000"/>
<path class="atom-24" d="M 354.131 176.301 L 356.107 176.301 L 356.107 178.276 L 354.131 178.276 L 354.131 176.301 M 354.131 169.506 L 356.107 169.506 L 356.107 171.481 L 354.131 171.481 L 354.131 169.506 " fill="#000000"/>
<path class="atom-24" d="M 357.134 167.274 Q 357.647 165.95, 358.872 165.22 Q 360.097 164.469, 361.795 164.469 Q 363.909 164.469, 365.094 165.615 Q 366.279 166.76, 366.279 168.795 Q 366.279 170.869, 364.738 172.804 Q 363.217 174.74, 360.057 177.031 L 366.516 177.031 L 366.516 178.612 L 357.094 178.612 L 357.094 177.288 Q 359.701 175.432, 361.242 174.049 Q 362.803 172.666, 363.553 171.422 Q 364.304 170.177, 364.304 168.893 Q 364.304 167.55, 363.632 166.8 Q 362.961 166.049, 361.795 166.049 Q 360.669 166.049, 359.919 166.503 Q 359.168 166.958, 358.635 167.965 L 357.134 167.274 " fill="#000000"/>
<path class="atom-24" d="M 372.501 169.861 Q 373.726 169.861, 374.733 170.395 Q 375.74 170.908, 376.313 171.896 Q 376.886 172.864, 376.886 174.187 Q 376.886 175.629, 376.175 176.676 Q 375.484 177.703, 374.338 178.236 Q 373.192 178.77, 371.889 178.77 Q 370.605 178.77, 369.42 178.296 Q 368.235 177.822, 367.425 176.913 L 368.61 175.688 Q 369.262 176.399, 370.151 176.794 Q 371.039 177.17, 371.948 177.17 Q 373.192 177.17, 374.042 176.399 Q 374.911 175.629, 374.911 174.227 Q 374.911 172.745, 374.042 172.054 Q 373.192 171.343, 371.829 171.343 Q 370.605 171.343, 369.242 171.876 L 368.156 171.363 L 368.827 164.627 L 376.017 164.627 L 375.819 166.207 L 370.447 166.207 L 370.032 170.355 Q 371.276 169.861, 372.501 169.861 " fill="#000000"/>
<path class="atom-25" d="M 434.146 265.025 L 436.042 265.025 L 436.042 270.971 L 443.192 270.971 L 443.192 265.025 L 445.089 265.025 L 445.089 279.01 L 443.192 279.01 L 443.192 272.551 L 436.042 272.551 L 436.042 279.01 L 434.146 279.01 L 434.146 265.025 " fill="#000000"/>
<path class="atom-25" d="M 446.57 276.699 L 448.545 276.699 L 448.545 278.674 L 446.57 278.674 L 446.57 276.699 M 446.57 269.904 L 448.545 269.904 L 448.545 271.879 L 446.57 271.879 L 446.57 269.904 " fill="#000000"/>
<path class="atom-25" d="M 449.572 267.672 Q 450.086 266.349, 451.311 265.618 Q 452.535 264.867, 454.234 264.867 Q 456.347 264.867, 457.533 266.013 Q 458.718 267.158, 458.718 269.193 Q 458.718 271.267, 457.177 273.203 Q 455.656 275.138, 452.496 277.43 L 458.955 277.43 L 458.955 279.01 L 449.533 279.01 L 449.533 277.686 Q 452.14 275.83, 453.681 274.447 Q 455.241 273.064, 455.992 271.82 Q 456.743 270.576, 456.743 269.292 Q 456.743 267.949, 456.071 267.198 Q 455.399 266.447, 454.234 266.447 Q 453.108 266.447, 452.358 266.902 Q 451.607 267.356, 451.074 268.363 L 449.572 267.672 " fill="#000000"/>
<path class="atom-25" d="M 465.769 270.279 Q 466.994 270.279, 467.962 270.813 Q 468.93 271.346, 469.463 272.314 Q 469.996 273.282, 469.996 274.506 Q 469.996 275.869, 469.384 276.936 Q 468.792 277.983, 467.725 278.575 Q 466.658 279.168, 465.295 279.168 Q 462.807 279.168, 461.542 277.489 Q 460.298 275.79, 460.298 272.432 Q 460.298 268.719, 461.839 266.803 Q 463.399 264.867, 466.382 264.867 Q 467.251 264.867, 467.982 265.065 Q 468.732 265.262, 469.443 265.677 L 468.673 267 Q 467.646 266.447, 466.401 266.447 Q 464.426 266.447, 463.419 267.731 Q 462.411 268.995, 462.293 271.623 Q 463.004 270.971, 463.893 270.635 Q 464.802 270.279, 465.769 270.279 M 465.315 277.548 Q 466.066 277.548, 466.678 277.153 Q 467.31 276.758, 467.666 276.067 Q 468.021 275.375, 468.021 274.526 Q 468.021 273.282, 467.33 272.571 Q 466.638 271.86, 465.414 271.86 Q 464.564 271.86, 463.715 272.215 Q 462.886 272.551, 462.293 273.143 Q 462.372 275.454, 463.103 276.501 Q 463.834 277.548, 465.315 277.548 " fill="#000000"/>
<path class="atom-26" d="M 316.373 297.014 L 318.269 297.014 L 318.269 302.959 L 325.419 302.959 L 325.419 297.014 L 327.316 297.014 L 327.316 310.999 L 325.419 310.999 L 325.419 304.54 L 318.269 304.54 L 318.269 310.999 L 316.373 310.999 L 316.373 297.014 " fill="#000000"/>
<path class="atom-26" d="M 328.797 308.688 L 330.772 308.688 L 330.772 310.663 L 328.797 310.663 L 328.797 308.688 M 328.797 301.893 L 330.772 301.893 L 330.772 303.868 L 328.797 303.868 L 328.797 301.893 " fill="#000000"/>
<path class="atom-26" d="M 331.799 299.661 Q 332.313 298.337, 333.538 297.607 Q 334.762 296.856, 336.461 296.856 Q 338.575 296.856, 339.76 298.002 Q 340.945 299.147, 340.945 301.182 Q 340.945 303.256, 339.404 305.192 Q 337.883 307.127, 334.723 309.419 L 341.182 309.419 L 341.182 310.999 L 331.76 310.999 L 331.76 309.675 Q 334.367 307.819, 335.908 306.436 Q 337.468 305.053, 338.219 303.809 Q 338.97 302.564, 338.97 301.281 Q 338.97 299.937, 338.298 299.187 Q 337.626 298.436, 336.461 298.436 Q 335.335 298.436, 334.585 298.89 Q 333.834 299.345, 333.301 300.352 L 331.799 299.661 " fill="#000000"/>
<path class="atom-26" d="M 348.866 298.594 L 341.537 298.594 L 341.537 297.014 L 350.821 297.014 L 350.821 298.416 L 345.172 310.999 L 343.276 310.999 L 348.866 298.594 " fill="#000000"/>
<path class="atom-27" d="M 22.7273 214.464 L 24.6235 214.464 L 24.6235 220.41 L 31.7739 220.41 L 31.7739 214.464 L 33.6701 214.464 L 33.6701 228.449 L 31.7739 228.449 L 31.7739 221.99 L 24.6235 221.99 L 24.6235 228.449 L 22.7273 228.449 L 22.7273 214.464 " fill="#000000"/>
<path class="atom-27" d="M 35.1515 226.138 L 37.1268 226.138 L 37.1268 228.113 L 35.1515 228.113 L 35.1515 226.138 M 35.1515 219.343 L 37.1268 219.343 L 37.1268 221.318 L 35.1515 221.318 L 35.1515 219.343 " fill="#000000"/>
<path class="atom-27" d="M 38.1539 217.111 Q 38.6675 215.788, 39.8921 215.057 Q 41.1168 214.306, 42.8155 214.306 Q 44.929 214.306, 46.1141 215.452 Q 47.2993 216.597, 47.2993 218.632 Q 47.2993 220.706, 45.7586 222.642 Q 44.2376 224.577, 41.0773 226.869 L 47.5363 226.869 L 47.5363 228.449 L 38.1144 228.449 L 38.1144 227.125 Q 40.7217 225.269, 42.2624 223.886 Q 43.8228 222.503, 44.5734 221.259 Q 45.324 220.015, 45.324 218.731 Q 45.324 217.387, 44.6524 216.637 Q 43.9809 215.886, 42.8155 215.886 Q 41.6896 215.886, 40.939 216.341 Q 40.1884 216.795, 39.6551 217.802 L 38.1539 217.111 " fill="#000000"/>
<path class="atom-27" d="M 55.8916 221.042 Q 57.1755 221.595, 57.9063 222.424 Q 58.6371 223.234, 58.6371 224.617 Q 58.6371 225.802, 58.0248 226.73 Q 57.4125 227.639, 56.3064 228.153 Q 55.22 228.646, 53.7781 228.646 Q 51.4473 228.646, 50.1041 227.58 Q 48.7609 226.493, 48.7609 224.617 Q 48.7609 223.471, 49.3535 222.622 Q 49.9461 221.753, 51.1707 221.101 Q 50.2621 220.587, 49.7683 219.837 Q 49.2745 219.066, 49.2745 217.881 Q 49.2745 216.242, 50.4596 215.274 Q 51.6645 214.306, 53.699 214.306 Q 55.7335 214.306, 56.9187 215.274 Q 58.1236 216.242, 58.1236 217.881 Q 58.1236 218.908, 57.5508 219.679 Q 56.9977 220.429, 55.8916 221.042 M 53.699 215.788 Q 52.5337 215.788, 51.8818 216.341 Q 51.2497 216.894, 51.2497 217.881 Q 51.2497 218.612, 51.6843 219.106 Q 52.1188 219.58, 52.7312 219.857 Q 53.3633 220.133, 54.5681 220.548 Q 55.4175 219.955, 55.773 219.323 Q 56.1483 218.691, 56.1483 217.881 Q 56.1483 216.894, 55.4965 216.341 Q 54.8644 215.788, 53.699 215.788 M 53.7781 227.165 Q 55.0817 227.165, 55.8718 226.474 Q 56.6619 225.762, 56.6619 224.597 Q 56.6619 223.847, 56.2471 223.372 Q 55.8323 222.898, 55.2002 222.622 Q 54.5879 222.345, 53.4818 221.99 L 52.5929 221.693 Q 51.6053 222.286, 51.1707 222.997 Q 50.7362 223.688, 50.7362 224.597 Q 50.7362 225.762, 51.5658 226.474 Q 52.3954 227.165, 53.7781 227.165 " fill="#000000"/>
<path class="atom-28" d="M 436.358 159.879 L 438.254 159.879 L 438.254 165.824 L 445.404 165.824 L 445.404 159.879 L 447.3 159.879 L 447.3 173.863 L 445.404 173.863 L 445.404 167.404 L 438.254 167.404 L 438.254 173.863 L 436.358 173.863 L 436.358 159.879 " fill="#000000"/>
<path class="atom-28" d="M 448.782 171.552 L 450.757 171.552 L 450.757 173.527 L 448.782 173.527 L 448.782 171.552 M 448.782 164.757 L 450.757 164.757 L 450.757 166.733 L 448.782 166.733 L 448.782 164.757 " fill="#000000"/>
<path class="atom-28" d="M 451.784 162.525 Q 452.298 161.202, 453.522 160.471 Q 454.747 159.721, 456.446 159.721 Q 458.559 159.721, 459.744 160.866 Q 460.93 162.012, 460.93 164.046 Q 460.93 166.12, 459.389 168.056 Q 457.868 169.992, 454.708 172.283 L 461.167 172.283 L 461.167 173.863 L 451.745 173.863 L 451.745 172.54 Q 454.352 170.683, 455.893 169.3 Q 457.453 167.918, 458.204 166.673 Q 458.954 165.429, 458.954 164.145 Q 458.954 162.802, 458.283 162.051 Q 457.611 161.301, 456.446 161.301 Q 455.32 161.301, 454.569 161.755 Q 453.819 162.209, 453.285 163.217 L 451.784 162.525 " fill="#000000"/>
<path class="atom-28" d="M 466.954 159.721 Q 469.443 159.721, 470.687 161.419 Q 471.951 163.098, 471.951 166.456 Q 471.951 170.17, 470.391 172.105 Q 468.85 174.021, 465.868 174.021 Q 464.999 174.021, 464.248 173.824 Q 463.517 173.626, 462.806 173.211 L 463.576 171.888 Q 464.604 172.441, 465.848 172.441 Q 467.823 172.441, 468.831 171.177 Q 469.838 169.893, 469.956 167.266 Q 469.245 167.918, 468.337 168.273 Q 467.448 168.609, 466.48 168.609 Q 465.255 168.609, 464.288 168.076 Q 463.32 167.542, 462.786 166.575 Q 462.253 165.607, 462.253 164.382 Q 462.253 163.019, 462.846 161.972 Q 463.458 160.906, 464.525 160.313 Q 465.591 159.721, 466.954 159.721 M 464.228 164.362 Q 464.228 165.607, 464.92 166.318 Q 465.611 167.029, 466.836 167.029 Q 467.685 167.029, 468.515 166.693 Q 469.364 166.338, 469.956 165.745 Q 469.877 163.434, 469.147 162.387 Q 468.416 161.34, 466.934 161.34 Q 466.184 161.34, 465.552 161.735 Q 464.939 162.13, 464.584 162.822 Q 464.228 163.513, 464.228 164.362 " fill="#000000"/>
<path class="atom-29" d="M 403.421 327.739 L 405.317 327.739 L 405.317 333.684 L 412.468 333.684 L 412.468 327.739 L 414.364 327.739 L 414.364 341.723 L 412.468 341.723 L 412.468 335.264 L 405.317 335.264 L 405.317 341.723 L 403.421 341.723 L 403.421 327.739 " fill="#000000"/>
<path class="atom-29" d="M 415.845 339.412 L 417.821 339.412 L 417.821 341.387 L 415.845 341.387 L 415.845 339.412 M 415.845 332.617 L 417.821 332.617 L 417.821 334.593 L 415.845 334.593 L 415.845 332.617 " fill="#000000"/>
<path class="atom-29" d="M 425.366 334.356 Q 426.729 334.751, 427.381 335.64 Q 428.052 336.509, 428.052 337.891 Q 428.052 339.076, 427.46 340.005 Q 426.867 340.913, 425.781 341.427 Q 424.695 341.921, 423.272 341.921 Q 421.771 341.921, 420.645 341.407 Q 419.539 340.874, 418.65 339.807 L 419.776 338.662 Q 420.645 339.61, 421.376 339.985 Q 422.107 340.341, 423.272 340.341 Q 424.537 340.341, 425.307 339.669 Q 426.077 338.978, 426.077 337.872 Q 426.077 336.449, 425.267 335.817 Q 424.477 335.165, 422.759 335.165 L 421.751 335.165 L 421.751 333.743 L 422.64 333.743 Q 424.161 333.724, 424.971 333.072 Q 425.781 332.4, 425.781 331.156 Q 425.781 330.247, 425.109 329.714 Q 424.438 329.161, 423.292 329.161 Q 422.127 329.161, 421.396 329.576 Q 420.685 329.99, 420.132 331.037 L 418.769 330.306 Q 419.263 329.141, 420.448 328.371 Q 421.633 327.581, 423.292 327.581 Q 425.346 327.581, 426.551 328.548 Q 427.756 329.516, 427.756 331.156 Q 427.756 332.282, 427.144 333.091 Q 426.532 333.901, 425.366 334.356 " fill="#000000"/>
<path class="atom-29" d="M 434.373 341.881 Q 431.805 341.881, 430.522 339.985 Q 429.257 338.089, 429.257 334.711 Q 429.257 331.334, 430.522 329.457 Q 431.786 327.581, 434.373 327.581 Q 436.961 327.581, 438.225 329.457 Q 439.489 331.334, 439.489 334.711 Q 439.489 338.089, 438.205 339.985 Q 436.941 341.881, 434.373 341.881 M 434.373 340.301 Q 435.894 340.301, 436.704 338.899 Q 437.514 337.477, 437.514 334.711 Q 437.514 331.966, 436.704 330.563 Q 435.894 329.161, 434.373 329.161 Q 432.872 329.161, 432.042 330.563 Q 431.233 331.966, 431.233 334.711 Q 431.233 337.477, 432.042 338.899 Q 432.872 340.301, 434.373 340.301 " fill="#000000"/>
<text x="304.21828035784677" y="226.95207816939643" font-size="12" font-family="Verdana" font-weight="bold" letter-spacing="0" text-anchor="start" fill="black" transform=" rotate(-78.898819 304.218280 226.952078)">0.9863</text><text x="25" y="490" font-size="12" font-family="Verdana" font-weight="bold" letter-spacing="0" text-anchor="start" fill="black">[#7:1](-[#6:2](-[#6:3](-[#7:4](-[#6:8]1:[#6:12](:[#6:10](:[#6:9](:[#6:11](:[#6:13]:1-[H:20])-[H:18])-[H:28])-[H:17])-[H:19])-[#6:14](-[H:21])(-[H:22])-[H:23])=[#8:5])(-[H:6])-[H:7])(-[#6:15](-[H:24])(-[H:25])-[H:29])-[#6:16](-[H:26])(-[H:27])-[H:30]</text></svg>
