<?xml version='1.0' encoding='ASCII' standalone='yes'?>
<svg xmlns="http://www.w3.org/2000/svg" xmlns:rdkit="http://www.rdkit.org/xml" xmlns:xlink="http://www.w3.org/1999/xlink" version="1.1" baseProfile="full" xml:space="preserve" width="500px" height="500px" viewBox="0 0 500 500">
<!-- END OF HEADER -->
<rect style="opacity:1.0;fill:#FFFFFF;stroke:none" width="500" height="500" x="0" y="0"> </rect>
<path d="M 260.3,285.088 L 189.52,303.607" style="fill:none;fill-rule:evenodd;stroke:#FF7F7F;stroke-width:15.6px;stroke-linecap:butt;stroke-linejoin:miter;stroke-opacity:1"/>
<path class="bond-0 atom-0 atom-1" d="M 305.737,273.2 L 289.623,277.416" style="fill:none;fill-rule:evenodd;stroke:#0000FF;stroke-width:2.0px;stroke-linecap:butt;stroke-linejoin:miter;stroke-opacity:1"/>
<path class="bond-0 atom-0 atom-1" d="M 289.623,277.416 L 273.51,281.632" style="fill:none;fill-rule:evenodd;stroke:#000000;stroke-width:2.0px;stroke-linecap:butt;stroke-linejoin:miter;stroke-opacity:1"/>
<path class="bond-1 atom-0 atom-4" d="M 334.439,254.322 L 340.76,231.278" style="fill:none;fill-rule:evenodd;stroke:#0000FF;stroke-width:2.0px;stroke-linecap:butt;stroke-linejoin:miter;stroke-opacity:1"/>
<path class="bond-1 atom-0 atom-4" d="M 340.76,231.278 L 347.08,208.235" style="fill:none;fill-rule:evenodd;stroke:#000000;stroke-width:2.0px;stroke-linecap:butt;stroke-linejoin:miter;stroke-opacity:1"/>
<path class="bond-2 atom-0 atom-5" d="M 343.184,278.816 L 356.978,292.774" style="fill:none;fill-rule:evenodd;stroke:#0000FF;stroke-width:2.0px;stroke-linecap:butt;stroke-linejoin:miter;stroke-opacity:1"/>
<path class="bond-2 atom-0 atom-5" d="M 356.978,292.774 L 370.772,306.731" style="fill:none;fill-rule:evenodd;stroke:#000000;stroke-width:2.0px;stroke-linecap:butt;stroke-linejoin:miter;stroke-opacity:1"/>
<path class="bond-3 atom-1 atom-7" d="M 257.081,272.782 L 244.918,226.296" style="fill:none;fill-rule:evenodd;stroke:#000000;stroke-width:2.0px;stroke-linecap:butt;stroke-linejoin:miter;stroke-opacity:1"/>
<path class="bond-4 atom-1 atom-8" d="M 263.52,297.394 L 275.744,344.114" style="fill:none;fill-rule:evenodd;stroke:#000000;stroke-width:2.0px;stroke-linecap:butt;stroke-linejoin:miter;stroke-opacity:1"/>
<path class="bond-5 atom-2 atom-1" d="M 203.212,300.025 L 234.338,291.881" style="fill:none;fill-rule:evenodd;stroke:#000000;stroke-width:2.0px;stroke-linecap:butt;stroke-linejoin:miter;stroke-opacity:1"/>
<path class="bond-6 atom-2 atom-3" d="M 179.009,314.271 L 172.704,337.26" style="fill:none;fill-rule:evenodd;stroke:#000000;stroke-width:2.0px;stroke-linecap:butt;stroke-linejoin:miter;stroke-opacity:1"/>
<path class="bond-6 atom-2 atom-3" d="M 172.704,337.26 L 166.399,360.25" style="fill:none;fill-rule:evenodd;stroke:#FF0000;stroke-width:2.0px;stroke-linecap:butt;stroke-linejoin:miter;stroke-opacity:1"/>
<path class="bond-6 atom-2 atom-3" d="M 193.121,318.141 L 186.815,341.131" style="fill:none;fill-rule:evenodd;stroke:#000000;stroke-width:2.0px;stroke-linecap:butt;stroke-linejoin:miter;stroke-opacity:1"/>
<path class="bond-6 atom-2 atom-3" d="M 186.815,341.131 L 180.51,364.12" style="fill:none;fill-rule:evenodd;stroke:#FF0000;stroke-width:2.0px;stroke-linecap:butt;stroke-linejoin:miter;stroke-opacity:1"/>
<path class="bond-13 atom-6 atom-2" d="M 150.138,263.759 L 163.96,277.744" style="fill:none;fill-rule:evenodd;stroke:#0000FF;stroke-width:2.0px;stroke-linecap:butt;stroke-linejoin:miter;stroke-opacity:1"/>
<path class="bond-13 atom-6 atom-2" d="M 163.96,277.744 L 177.782,291.73" style="fill:none;fill-rule:evenodd;stroke:#000000;stroke-width:2.0px;stroke-linecap:butt;stroke-linejoin:miter;stroke-opacity:1"/>
<path class="bond-7 atom-4 atom-9" d="M 364.252,199.803 L 411.412,212.737" style="fill:none;fill-rule:evenodd;stroke:#000000;stroke-width:2.0px;stroke-linecap:butt;stroke-linejoin:miter;stroke-opacity:1"/>
<path class="bond-8 atom-4 atom-10" d="M 324.13,188.798 L 287.271,178.689" style="fill:none;fill-rule:evenodd;stroke:#000000;stroke-width:2.0px;stroke-linecap:butt;stroke-linejoin:miter;stroke-opacity:1"/>
<path class="bond-9 atom-4 atom-13" d="M 353.743,183.94 L 366.511,137.39" style="fill:none;fill-rule:evenodd;stroke:#000000;stroke-width:2.0px;stroke-linecap:butt;stroke-linejoin:miter;stroke-opacity:1"/>
<path class="bond-10 atom-5 atom-11" d="M 394.96,306.301 L 425.048,276.565" style="fill:none;fill-rule:evenodd;stroke:#000000;stroke-width:2.0px;stroke-linecap:butt;stroke-linejoin:miter;stroke-opacity:1"/>
<path class="bond-11 atom-5 atom-12" d="M 369.79,331.176 L 338.818,361.785" style="fill:none;fill-rule:evenodd;stroke:#000000;stroke-width:2.0px;stroke-linecap:butt;stroke-linejoin:miter;stroke-opacity:1"/>
<path class="bond-12 atom-5 atom-14" d="M 394.901,331.147 L 424.442,361.037" style="fill:none;fill-rule:evenodd;stroke:#000000;stroke-width:2.0px;stroke-linecap:butt;stroke-linejoin:miter;stroke-opacity:1"/>
<path class="bond-14 atom-6 atom-15" d="M 112.576,258.246 L 94.1212,263.075" style="fill:none;fill-rule:evenodd;stroke:#0000FF;stroke-width:2.0px;stroke-linecap:butt;stroke-linejoin:miter;stroke-opacity:1"/>
<path class="bond-14 atom-6 atom-15" d="M 94.1212,263.075 L 75.6667,267.903" style="fill:none;fill-rule:evenodd;stroke:#000000;stroke-width:2.0px;stroke-linecap:butt;stroke-linejoin:miter;stroke-opacity:1"/>
<path class="bond-15 atom-6 atom-16" d="M 141.435,239.381 L 147.804,216.163" style="fill:none;fill-rule:evenodd;stroke:#0000FF;stroke-width:2.0px;stroke-linecap:butt;stroke-linejoin:miter;stroke-opacity:1"/>
<path class="bond-15 atom-6 atom-16" d="M 147.804,216.163 L 154.172,192.944" style="fill:none;fill-rule:evenodd;stroke:#000000;stroke-width:2.0px;stroke-linecap:butt;stroke-linejoin:miter;stroke-opacity:1"/>
<path class="atom-0" d="M 310.843 256.268 L 317.633 267.242 Q 318.306 268.325, 319.389 270.286 Q 320.472 272.246, 320.53 272.363 L 320.53 256.268 L 323.281 256.268 L 323.281 276.987 L 320.442 276.987 L 313.155 264.989 Q 312.307 263.584, 311.399 261.974 Q 310.522 260.365, 310.258 259.867 L 310.258 276.987 L 307.566 276.987 L 307.566 256.268 L 310.843 256.268 " fill="#0000FF"/>
<path class="atom-0" d="M 325.476 273.563 L 328.402 273.563 L 328.402 276.49 L 325.476 276.49 L 325.476 273.563 M 325.476 263.496 L 328.402 263.496 L 328.402 266.423 L 325.476 266.423 L 325.476 263.496 " fill="#0000FF"/>
<path class="atom-0" d="M 331.124 274.646 L 335.66 274.646 L 335.66 259.165 L 330.656 260.716 L 329.983 258.989 L 336.333 256.151 L 338.411 256.502 L 338.411 274.646 L 342.479 274.646 L 342.479 276.987 L 331.124 276.987 L 331.124 274.646 " fill="#0000FF"/>
<path class="atom-1" d="M 235.813 285.176 Q 235.813 280.025, 238.213 277.333 Q 240.642 274.611, 245.236 274.611 Q 249.509 274.611, 251.792 277.626 L 249.86 279.206 Q 248.192 277.011, 245.236 277.011 Q 242.105 277.011, 240.437 279.118 Q 238.798 281.196, 238.798 285.176 Q 238.798 289.273, 240.495 291.38 Q 242.222 293.487, 245.558 293.487 Q 247.841 293.487, 250.504 292.112 L 251.323 294.307 Q 250.24 295.009, 248.602 295.419 Q 246.963 295.828, 245.148 295.828 Q 240.642 295.828, 238.213 293.078 Q 235.813 290.327, 235.813 285.176 " fill="#000000"/>
<path class="atom-1" d="M 253.986 292.141 L 256.913 292.141 L 256.913 295.068 L 253.986 295.068 L 253.986 292.141 M 253.986 282.074 L 256.913 282.074 L 256.913 285 L 253.986 285 L 253.986 282.074 " fill="#000000"/>
<path class="atom-1" d="M 258.435 278.767 Q 259.196 276.806, 261.01 275.723 Q 262.824 274.611, 265.341 274.611 Q 268.473 274.611, 270.228 276.309 Q 271.984 278.006, 271.984 281.02 Q 271.984 284.093, 269.702 286.961 Q 267.448 289.829, 262.766 293.224 L 272.336 293.224 L 272.336 295.565 L 258.376 295.565 L 258.376 293.604 Q 262.239 290.853, 264.522 288.805 Q 266.834 286.756, 267.946 284.913 Q 269.058 283.069, 269.058 281.167 Q 269.058 279.177, 268.063 278.065 Q 267.068 276.952, 265.341 276.952 Q 263.673 276.952, 262.561 277.626 Q 261.449 278.299, 260.659 279.791 L 258.435 278.767 " fill="#000000"/>
<path class="atom-2" d="M 165.123 303.695 Q 165.123 298.545, 167.523 295.852 Q 169.952 293.131, 174.547 293.131 Q 178.819 293.131, 181.102 296.145 L 179.17 297.725 Q 177.502 295.53, 174.547 295.53 Q 171.415 295.53, 169.747 297.637 Q 168.108 299.715, 168.108 303.695 Q 168.108 307.792, 169.806 309.899 Q 171.532 312.006, 174.868 312.006 Q 177.151 312.006, 179.814 310.631 L 180.634 312.826 Q 179.551 313.528, 177.912 313.938 Q 176.273 314.348, 174.459 314.348 Q 169.952 314.348, 167.523 311.597 Q 165.123 308.846, 165.123 303.695 " fill="#000000"/>
<path class="atom-2" d="M 183.297 310.66 L 186.223 310.66 L 186.223 313.587 L 183.297 313.587 L 183.297 310.66 M 183.297 300.593 L 186.223 300.593 L 186.223 303.52 L 183.297 303.52 L 183.297 300.593 " fill="#000000"/>
<path class="atom-2" d="M 197.402 303.168 Q 199.422 303.754, 200.388 305.071 Q 201.383 306.358, 201.383 308.407 Q 201.383 310.163, 200.505 311.538 Q 199.627 312.884, 198.017 313.645 Q 196.407 314.377, 194.3 314.377 Q 192.076 314.377, 190.408 313.616 Q 188.769 312.826, 187.452 311.246 L 189.12 309.548 Q 190.408 310.953, 191.491 311.509 Q 192.574 312.036, 194.3 312.036 Q 196.173 312.036, 197.315 311.041 Q 198.456 310.016, 198.456 308.378 Q 198.456 306.27, 197.256 305.334 Q 196.086 304.368, 193.539 304.368 L 192.047 304.368 L 192.047 302.261 L 193.364 302.261 Q 195.617 302.232, 196.817 301.266 Q 198.017 300.271, 198.017 298.427 Q 198.017 297.081, 197.022 296.291 Q 196.027 295.472, 194.33 295.472 Q 192.603 295.472, 191.52 296.086 Q 190.467 296.701, 189.647 298.252 L 187.628 297.169 Q 188.36 295.442, 190.115 294.301 Q 191.871 293.131, 194.33 293.131 Q 197.373 293.131, 199.158 294.564 Q 200.944 295.998, 200.944 298.427 Q 200.944 300.096, 200.036 301.295 Q 199.129 302.495, 197.402 303.168 " fill="#000000"/>
<path class="atom-3" d="M 160.657 374.223 Q 160.657 369.248, 163.116 366.467 Q 165.574 363.687, 170.169 363.687 Q 174.763 363.687, 177.221 366.467 Q 179.68 369.248, 179.68 374.223 Q 179.68 379.256, 177.192 382.124 Q 174.705 384.963, 170.169 384.963 Q 165.603 384.963, 163.116 382.124 Q 160.657 379.286, 160.657 374.223 M 170.169 382.622 Q 173.329 382.622, 175.027 380.515 Q 176.753 378.378, 176.753 374.223 Q 176.753 370.155, 175.027 368.106 Q 173.329 366.028, 170.169 366.028 Q 167.008 366.028, 165.281 368.077 Q 163.584 370.126, 163.584 374.223 Q 163.584 378.408, 165.281 380.515 Q 167.008 382.622, 170.169 382.622 " fill="#FF0000"/>
<path class="atom-3" d="M 181.875 381.217 L 184.801 381.217 L 184.801 384.144 L 181.875 384.144 L 181.875 381.217 M 181.875 371.15 L 184.801 371.15 L 184.801 374.076 L 181.875 374.076 L 181.875 371.15 " fill="#FF0000"/>
<path class="atom-3" d="M 199.141 377.53 L 201.628 377.53 L 201.628 379.871 L 199.141 379.871 L 199.141 384.641 L 196.39 384.641 L 196.39 379.871 L 185.679 379.871 L 185.679 378.027 L 194.751 363.921 L 199.141 363.921 L 199.141 377.53 M 189.074 377.53 L 196.39 377.53 L 196.39 365.794 L 189.074 377.53 " fill="#FF0000"/>
<path class="atom-4" d="M 325.959 196.1 Q 325.959 190.949, 328.359 188.257 Q 330.788 185.535, 335.383 185.535 Q 339.655 185.535, 341.938 188.55 L 340.006 190.13 Q 338.338 187.935, 335.383 187.935 Q 332.251 187.935, 330.583 190.042 Q 328.944 192.12, 328.944 196.1 Q 328.944 200.197, 330.642 202.304 Q 332.368 204.411, 335.704 204.411 Q 337.987 204.411, 340.65 203.036 L 341.47 205.231 Q 340.387 205.933, 338.748 206.343 Q 337.109 206.752, 335.295 206.752 Q 330.788 206.752, 328.359 204.002 Q 325.959 201.251, 325.959 196.1 " fill="#000000"/>
<path class="atom-4" d="M 344.133 203.065 L 347.059 203.065 L 347.059 205.992 L 344.133 205.992 L 344.133 203.065 M 344.133 192.998 L 347.059 192.998 L 347.059 195.924 L 344.133 195.924 L 344.133 192.998 " fill="#000000"/>
<path class="atom-4" d="M 355.927 193.525 Q 357.741 193.525, 359.233 194.315 Q 360.726 195.076, 361.575 196.539 Q 362.423 197.973, 362.423 199.934 Q 362.423 202.07, 361.37 203.621 Q 360.346 205.143, 358.648 205.933 Q 356.951 206.723, 355.019 206.723 Q 353.117 206.723, 351.361 206.021 Q 349.605 205.318, 348.405 203.972 L 350.161 202.158 Q 351.127 203.211, 352.444 203.797 Q 353.761 204.353, 355.107 204.353 Q 356.951 204.353, 358.209 203.211 Q 359.497 202.07, 359.497 199.992 Q 359.497 197.797, 358.209 196.773 Q 356.951 195.72, 354.932 195.72 Q 353.117 195.72, 351.098 196.51 L 349.488 195.749 L 350.483 185.769 L 361.136 185.769 L 360.843 188.111 L 352.883 188.111 L 352.268 194.256 Q 354.112 193.525, 355.927 193.525 " fill="#000000"/>
<path class="atom-5" d="M 357.674 318.694 Q 357.674 313.544, 360.074 310.851 Q 362.503 308.13, 367.098 308.13 Q 371.37 308.13, 373.653 311.144 L 371.722 312.724 Q 370.054 310.529, 367.098 310.529 Q 363.966 310.529, 362.298 312.636 Q 360.659 314.714, 360.659 318.694 Q 360.659 322.791, 362.357 324.899 Q 364.083 327.006, 367.42 327.006 Q 369.702 327.006, 372.365 325.63 L 373.185 327.825 Q 372.102 328.527, 370.463 328.937 Q 368.824 329.347, 367.01 329.347 Q 362.503 329.347, 360.074 326.596 Q 357.674 323.845, 357.674 318.694 " fill="#000000"/>
<path class="atom-5" d="M 375.848 325.659 L 378.775 325.659 L 378.775 328.586 L 375.848 328.586 L 375.848 325.659 M 375.848 315.592 L 378.775 315.592 L 378.775 318.519 L 375.848 318.519 L 375.848 315.592 " fill="#000000"/>
<path class="atom-5" d="M 388.871 316.148 Q 390.685 316.148, 392.119 316.938 Q 393.553 317.729, 394.344 319.163 Q 395.134 320.597, 395.134 322.411 Q 395.134 324.43, 394.226 326.011 Q 393.348 327.562, 391.768 328.44 Q 390.188 329.318, 388.169 329.318 Q 384.481 329.318, 382.608 326.83 Q 380.765 324.313, 380.765 319.338 Q 380.765 313.836, 383.047 310.998 Q 385.359 308.13, 389.778 308.13 Q 391.066 308.13, 392.149 308.422 Q 393.261 308.715, 394.314 309.33 L 393.173 311.29 Q 391.651 310.471, 389.807 310.471 Q 386.881 310.471, 385.388 312.373 Q 383.896 314.246, 383.72 318.138 Q 384.774 317.173, 386.091 316.675 Q 387.437 316.148, 388.871 316.148 M 388.198 326.918 Q 389.31 326.918, 390.217 326.332 Q 391.154 325.747, 391.68 324.723 Q 392.207 323.699, 392.207 322.44 Q 392.207 320.597, 391.183 319.543 Q 390.159 318.489, 388.344 318.489 Q 387.086 318.489, 385.827 319.016 Q 384.598 319.514, 383.72 320.392 Q 383.837 323.816, 384.92 325.367 Q 386.003 326.918, 388.198 326.918 " fill="#000000"/>
<path class="atom-6" d="M 117.682 241.21 L 124.472 252.184 Q 125.145 253.267, 126.228 255.228 Q 127.311 257.189, 127.369 257.306 L 127.369 241.21 L 130.12 241.21 L 130.12 261.93 L 127.281 261.93 L 119.994 249.931 Q 119.146 248.526, 118.239 246.917 Q 117.361 245.307, 117.097 244.81 L 117.097 261.93 L 114.405 261.93 L 114.405 241.21 L 117.682 241.21 " fill="#0000FF"/>
<path class="atom-6" d="M 132.315 258.506 L 135.241 258.506 L 135.241 261.432 L 132.315 261.432 L 132.315 258.506 M 132.315 248.438 L 135.241 248.438 L 135.241 251.365 L 132.315 251.365 L 132.315 248.438 " fill="#0000FF"/>
<path class="atom-6" d="M 146.626 243.551 L 135.768 243.551 L 135.768 241.21 L 149.523 241.21 L 149.523 243.288 L 141.153 261.93 L 138.344 261.93 L 146.626 243.551 " fill="#0000FF"/>
<path class="atom-7" d="M 233.675 204.066 L 236.484 204.066 L 236.484 212.874 L 247.078 212.874 L 247.078 204.066 L 249.888 204.066 L 249.888 224.785 L 247.078 224.785 L 247.078 215.215 L 236.484 215.215 L 236.484 224.785 L 233.675 224.785 L 233.675 204.066 " fill="#000000"/>
<path class="atom-7" d="M 252.082 221.361 L 255.009 221.361 L 255.009 224.288 L 252.082 224.288 L 252.082 221.361 M 252.082 211.294 L 255.009 211.294 L 255.009 214.22 L 252.082 214.22 L 252.082 211.294 " fill="#000000"/>
<path class="atom-7" d="M 267.388 213.811 Q 269.29 214.63, 270.373 215.859 Q 271.456 217.059, 271.456 219.108 Q 271.456 220.864, 270.549 222.239 Q 269.641 223.585, 268.003 224.346 Q 266.393 225.078, 264.257 225.078 Q 260.803 225.078, 258.813 223.497 Q 256.823 221.888, 256.823 219.108 Q 256.823 217.41, 257.701 216.152 Q 258.579 214.864, 260.394 213.899 Q 259.047 213.138, 258.316 212.026 Q 257.584 210.884, 257.584 209.128 Q 257.584 206.699, 259.34 205.265 Q 261.125 203.831, 264.14 203.831 Q 267.154 203.831, 268.91 205.265 Q 270.695 206.699, 270.695 209.128 Q 270.695 210.65, 269.846 211.791 Q 269.027 212.904, 267.388 213.811 M 264.14 206.026 Q 262.413 206.026, 261.447 206.846 Q 260.511 207.665, 260.511 209.128 Q 260.511 210.211, 261.155 210.943 Q 261.798 211.645, 262.706 212.055 Q 263.642 212.465, 265.427 213.079 Q 266.686 212.201, 267.212 211.265 Q 267.768 210.328, 267.768 209.128 Q 267.768 207.665, 266.803 206.846 Q 265.866 206.026, 264.14 206.026 M 264.257 222.883 Q 266.188 222.883, 267.359 221.859 Q 268.529 220.805, 268.529 219.078 Q 268.529 217.966, 267.915 217.264 Q 267.3 216.562, 266.364 216.152 Q 265.457 215.742, 263.818 215.215 L 262.501 214.777 Q 261.037 215.654, 260.394 216.708 Q 259.75 217.732, 259.75 219.078 Q 259.75 220.805, 260.979 221.859 Q 262.208 222.883, 264.257 222.883 " fill="#000000"/>
<path class="atom-8" d="M 270.713 345.625 L 273.523 345.625 L 273.523 354.434 L 284.116 354.434 L 284.116 345.625 L 286.926 345.625 L 286.926 366.345 L 284.116 366.345 L 284.116 356.775 L 273.523 356.775 L 273.523 366.345 L 270.713 366.345 L 270.713 345.625 " fill="#000000"/>
<path class="atom-8" d="M 289.121 362.921 L 292.047 362.921 L 292.047 365.847 L 289.121 365.847 L 289.121 362.921 M 289.121 352.854 L 292.047 352.854 L 292.047 355.78 L 289.121 355.78 L 289.121 352.854 " fill="#000000"/>
<path class="atom-8" d="M 300.622 345.391 Q 304.309 345.391, 306.153 347.908 Q 308.026 350.395, 308.026 355.371 Q 308.026 360.872, 305.714 363.74 Q 303.431 366.579, 299.012 366.579 Q 297.725 366.579, 296.613 366.286 Q 295.53 365.994, 294.476 365.379 L 295.618 363.418 Q 297.139 364.238, 298.983 364.238 Q 301.91 364.238, 303.402 362.365 Q 304.895 360.463, 305.07 356.57 Q 304.017 357.536, 302.671 358.063 Q 301.354 358.56, 299.92 358.56 Q 298.105 358.56, 296.671 357.77 Q 295.237 356.98, 294.447 355.546 Q 293.657 354.112, 293.657 352.298 Q 293.657 350.278, 294.535 348.727 Q 295.442 347.147, 297.022 346.269 Q 298.603 345.391, 300.622 345.391 M 296.583 352.268 Q 296.583 354.112, 297.608 355.166 Q 298.632 356.219, 300.446 356.219 Q 301.705 356.219, 302.934 355.722 Q 304.192 355.195, 305.07 354.317 Q 304.953 350.893, 303.87 349.342 Q 302.788 347.791, 300.593 347.791 Q 299.481 347.791, 298.544 348.376 Q 297.637 348.962, 297.11 349.986 Q 296.583 351.01, 296.583 352.268 " fill="#000000"/>
<path class="atom-9" d="M 412.882 205.121 L 415.692 205.121 L 415.692 213.93 L 426.286 213.93 L 426.286 205.121 L 429.095 205.121 L 429.095 225.841 L 426.286 225.841 L 426.286 216.271 L 415.692 216.271 L 415.692 225.841 L 412.882 225.841 L 412.882 205.121 " fill="#000000"/>
<path class="atom-9" d="M 431.29 222.417 L 434.217 222.417 L 434.217 225.343 L 431.29 225.343 L 431.29 222.417 M 431.29 212.35 L 434.217 212.35 L 434.217 215.276 L 431.29 215.276 L 431.29 212.35 " fill="#000000"/>
<path class="atom-9" d="M 436.938 223.5 L 441.474 223.5 L 441.474 208.019 L 436.47 209.57 L 435.797 207.843 L 442.147 205.004 L 444.225 205.355 L 444.225 223.5 L 448.293 223.5 L 448.293 225.841 L 436.938 225.841 L 436.938 223.5 " fill="#000000"/>
<path class="atom-9" d="M 457.658 226.075 Q 453.853 226.075, 451.951 223.266 Q 450.078 220.456, 450.078 215.452 Q 450.078 210.447, 451.951 207.667 Q 453.824 204.887, 457.658 204.887 Q 461.492 204.887, 463.365 207.667 Q 465.238 210.447, 465.238 215.452 Q 465.238 220.456, 463.335 223.266 Q 461.462 226.075, 457.658 226.075 M 457.658 223.734 Q 459.911 223.734, 461.111 221.656 Q 462.311 219.549, 462.311 215.452 Q 462.311 211.384, 461.111 209.306 Q 459.911 207.228, 457.658 207.228 Q 455.434 207.228, 454.205 209.306 Q 453.005 211.384, 453.005 215.452 Q 453.005 219.549, 454.205 221.656 Q 455.434 223.734, 457.658 223.734 " fill="#000000"/>
<path class="atom-10" d="M 236.636 166.359 L 239.446 166.359 L 239.446 175.168 L 250.04 175.168 L 250.04 166.359 L 252.849 166.359 L 252.849 187.079 L 250.04 187.079 L 250.04 177.509 L 239.446 177.509 L 239.446 187.079 L 236.636 187.079 L 236.636 166.359 " fill="#000000"/>
<path class="atom-10" d="M 255.044 183.655 L 257.97 183.655 L 257.97 186.581 L 255.044 186.581 L 255.044 183.655 M 255.044 173.588 L 257.97 173.588 L 257.97 176.514 L 255.044 176.514 L 255.044 173.588 " fill="#000000"/>
<path class="atom-10" d="M 260.692 184.737 L 265.228 184.737 L 265.228 169.256 L 260.224 170.807 L 259.551 169.081 L 265.901 166.242 L 267.979 166.593 L 267.979 184.737 L 272.047 184.737 L 272.047 187.079 L 260.692 187.079 L 260.692 184.737 " fill="#000000"/>
<path class="atom-10" d="M 274.769 184.737 L 279.305 184.737 L 279.305 169.256 L 274.3 170.807 L 273.627 169.081 L 279.978 166.242 L 282.056 166.593 L 282.056 184.737 L 286.123 184.737 L 286.123 187.079 L 274.769 187.079 L 274.769 184.737 " fill="#000000"/>
<path class="atom-11" d="M 426.439 256.936 L 429.249 256.936 L 429.249 265.745 L 439.843 265.745 L 439.843 256.936 L 442.652 256.936 L 442.652 277.655 L 439.843 277.655 L 439.843 268.086 L 429.249 268.086 L 429.249 277.655 L 426.439 277.655 L 426.439 256.936 " fill="#000000"/>
<path class="atom-11" d="M 444.847 274.231 L 447.774 274.231 L 447.774 277.158 L 444.847 277.158 L 444.847 274.231 M 444.847 264.164 L 447.774 264.164 L 447.774 267.091 L 444.847 267.091 L 444.847 264.164 " fill="#000000"/>
<path class="atom-11" d="M 450.495 275.314 L 455.031 275.314 L 455.031 259.833 L 450.027 261.384 L 449.354 259.657 L 455.704 256.819 L 457.782 257.17 L 457.782 275.314 L 461.85 275.314 L 461.85 277.655 L 450.495 277.655 L 450.495 275.314 " fill="#000000"/>
<path class="atom-11" d="M 463.372 260.857 Q 464.133 258.896, 465.947 257.814 Q 467.762 256.702, 470.278 256.702 Q 473.41 256.702, 475.166 258.399 Q 476.922 260.096, 476.922 263.111 Q 476.922 266.183, 474.639 269.051 Q 472.385 271.919, 467.703 275.314 L 477.273 275.314 L 477.273 277.655 L 463.313 277.655 L 463.313 275.695 Q 467.176 272.944, 469.459 270.895 Q 471.771 268.847, 472.883 267.003 Q 473.995 265.159, 473.995 263.257 Q 473.995 261.267, 473 260.155 Q 472.005 259.043, 470.278 259.043 Q 468.61 259.043, 467.498 259.716 Q 466.386 260.389, 465.596 261.882 L 463.372 260.857 " fill="#000000"/>
<path class="atom-12" d="M 286.866 359.792 L 289.675 359.792 L 289.675 368.601 L 300.269 368.601 L 300.269 359.792 L 303.079 359.792 L 303.079 380.511 L 300.269 380.511 L 300.269 370.942 L 289.675 370.942 L 289.675 380.511 L 286.866 380.511 L 286.866 359.792 " fill="#000000"/>
<path class="atom-12" d="M 305.274 377.087 L 308.2 377.087 L 308.2 380.014 L 305.274 380.014 L 305.274 377.087 M 305.274 367.02 L 308.2 367.02 L 308.2 369.947 L 305.274 369.947 L 305.274 367.02 " fill="#000000"/>
<path class="atom-12" d="M 310.922 378.17 L 315.458 378.17 L 315.458 362.689 L 310.453 364.24 L 309.78 362.513 L 316.131 359.675 L 318.209 360.026 L 318.209 378.17 L 322.276 378.17 L 322.276 380.511 L 310.922 380.511 L 310.922 378.17 " fill="#000000"/>
<path class="atom-12" d="M 333.456 369.596 Q 335.475 370.181, 336.441 371.498 Q 337.436 372.785, 337.436 374.834 Q 337.436 376.59, 336.558 377.965 Q 335.68 379.312, 334.07 380.072 Q 332.461 380.804, 330.354 380.804 Q 328.129 380.804, 326.461 380.043 Q 324.823 379.253, 323.506 377.673 L 325.174 375.975 Q 326.461 377.38, 327.544 377.936 Q 328.627 378.463, 330.354 378.463 Q 332.227 378.463, 333.368 377.468 Q 334.509 376.444, 334.509 374.805 Q 334.509 372.698, 333.309 371.761 Q 332.139 370.795, 329.593 370.795 L 328.1 370.795 L 328.1 368.688 L 329.417 368.688 Q 331.671 368.659, 332.87 367.693 Q 334.07 366.698, 334.07 364.855 Q 334.07 363.508, 333.075 362.718 Q 332.08 361.899, 330.383 361.899 Q 328.656 361.899, 327.573 362.513 Q 326.52 363.128, 325.7 364.679 L 323.681 363.596 Q 324.413 361.87, 326.169 360.728 Q 327.925 359.558, 330.383 359.558 Q 333.426 359.558, 335.212 360.992 Q 336.997 362.426, 336.997 364.855 Q 336.997 366.523, 336.09 367.723 Q 335.182 368.923, 333.456 369.596 " fill="#000000"/>
<path class="atom-13" d="M 361.677 115.154 L 364.487 115.154 L 364.487 123.963 L 375.081 123.963 L 375.081 115.154 L 377.89 115.154 L 377.89 135.874 L 375.081 135.874 L 375.081 126.304 L 364.487 126.304 L 364.487 135.874 L 361.677 135.874 L 361.677 115.154 " fill="#000000"/>
<path class="atom-13" d="M 380.085 132.45 L 383.012 132.45 L 383.012 135.376 L 380.085 135.376 L 380.085 132.45 M 380.085 122.383 L 383.012 122.383 L 383.012 125.309 L 380.085 125.309 L 380.085 122.383 " fill="#000000"/>
<path class="atom-13" d="M 385.733 133.533 L 390.269 133.533 L 390.269 118.051 L 385.265 119.602 L 384.592 117.876 L 390.942 115.037 L 393.02 115.388 L 393.02 133.533 L 397.088 133.533 L 397.088 135.874 L 385.733 135.874 L 385.733 133.533 " fill="#000000"/>
<path class="atom-13" d="M 411.428 128.762 L 413.916 128.762 L 413.916 131.104 L 411.428 131.104 L 411.428 135.874 L 408.677 135.874 L 408.677 131.104 L 397.966 131.104 L 397.966 129.26 L 407.038 115.154 L 411.428 115.154 L 411.428 128.762 M 401.361 128.762 L 408.677 128.762 L 408.677 117.027 L 401.361 128.762 " fill="#000000"/>
<path class="atom-14" d="M 425.83 360.343 L 428.639 360.343 L 428.639 369.152 L 439.233 369.152 L 439.233 360.343 L 442.043 360.343 L 442.043 381.062 L 439.233 381.062 L 439.233 371.493 L 428.639 371.493 L 428.639 381.062 L 425.83 381.062 L 425.83 360.343 " fill="#000000"/>
<path class="atom-14" d="M 444.238 377.638 L 447.164 377.638 L 447.164 380.565 L 444.238 380.565 L 444.238 377.638 M 444.238 367.571 L 447.164 367.571 L 447.164 370.498 L 444.238 370.498 L 444.238 367.571 " fill="#000000"/>
<path class="atom-14" d="M 449.886 378.721 L 454.422 378.721 L 454.422 363.24 L 449.417 364.791 L 448.744 363.064 L 455.095 360.226 L 457.173 360.577 L 457.173 378.721 L 461.241 378.721 L 461.241 381.062 L 449.886 381.062 L 449.886 378.721 " fill="#000000"/>
<path class="atom-14" d="M 470.108 368.098 Q 471.922 368.098, 473.415 368.888 Q 474.907 369.649, 475.756 371.112 Q 476.605 372.546, 476.605 374.507 Q 476.605 376.643, 475.551 378.194 Q 474.527 379.716, 472.829 380.506 Q 471.132 381.297, 469.201 381.297 Q 467.298 381.297, 465.542 380.594 Q 463.787 379.892, 462.587 378.546 L 464.343 376.731 Q 465.308 377.785, 466.625 378.37 Q 467.942 378.926, 469.288 378.926 Q 471.132 378.926, 472.391 377.785 Q 473.678 376.643, 473.678 374.566 Q 473.678 372.371, 472.391 371.346 Q 471.132 370.293, 469.113 370.293 Q 467.298 370.293, 465.279 371.083 L 463.67 370.322 L 464.665 360.343 L 475.317 360.343 L 475.024 362.684 L 467.064 362.684 L 466.45 368.83 Q 468.293 368.098, 470.108 368.098 " fill="#000000"/>
<path class="atom-15" d="M 22.7273 259.846 L 25.5367 259.846 L 25.5367 268.655 L 36.1306 268.655 L 36.1306 259.846 L 38.9401 259.846 L 38.9401 280.566 L 36.1306 280.566 L 36.1306 270.996 L 25.5367 270.996 L 25.5367 280.566 L 22.7273 280.566 L 22.7273 259.846 " fill="#000000"/>
<path class="atom-15" d="M 41.135 277.142 L 44.0615 277.142 L 44.0615 280.068 L 41.135 280.068 L 41.135 277.142 M 41.135 267.075 L 44.0615 267.075 L 44.0615 270.001 L 41.135 270.001 L 41.135 267.075 " fill="#000000"/>
<path class="atom-15" d="M 46.7831 278.225 L 51.3192 278.225 L 51.3192 262.743 L 46.3149 264.295 L 45.6418 262.568 L 51.9923 259.729 L 54.0701 260.08 L 54.0701 278.225 L 58.1379 278.225 L 58.1379 280.566 L 46.7831 280.566 L 46.7831 278.225 " fill="#000000"/>
<path class="atom-15" d="M 68.2344 267.631 Q 70.0488 267.631, 71.4828 268.421 Q 72.9168 269.211, 73.7069 270.645 Q 74.4971 272.079, 74.4971 273.893 Q 74.4971 275.913, 73.5898 277.493 Q 72.7119 279.044, 71.1316 279.922 Q 69.5513 280.8, 67.532 280.8 Q 63.8446 280.8, 61.9716 278.312 Q 60.1279 275.796, 60.1279 270.821 Q 60.1279 265.319, 62.4106 262.48 Q 64.7226 259.612, 69.1416 259.612 Q 70.4292 259.612, 71.512 259.905 Q 72.6241 260.197, 73.6776 260.812 L 72.5363 262.773 Q 71.0145 261.953, 69.1708 261.953 Q 66.2443 261.953, 64.7518 263.856 Q 63.2593 265.729, 63.0837 269.621 Q 64.1373 268.655, 65.4542 268.158 Q 66.8004 267.631, 68.2344 267.631 M 67.5613 278.4 Q 68.6733 278.4, 69.5805 277.815 Q 70.517 277.23, 71.0438 276.205 Q 71.5706 275.181, 71.5706 273.923 Q 71.5706 272.079, 70.5463 271.025 Q 69.522 269.972, 67.7076 269.972 Q 66.4492 269.972, 65.1908 270.499 Q 63.9617 270.996, 63.0837 271.874 Q 63.2008 275.298, 64.2836 276.849 Q 65.3664 278.4, 67.5613 278.4 " fill="#000000"/>
<path class="atom-16" d="M 149.338 170.712 L 152.147 170.712 L 152.147 179.521 L 162.741 179.521 L 162.741 170.712 L 165.551 170.712 L 165.551 191.431 L 162.741 191.431 L 162.741 181.862 L 152.147 181.862 L 152.147 191.431 L 149.338 191.431 L 149.338 170.712 " fill="#000000"/>
<path class="atom-16" d="M 167.746 188.007 L 170.672 188.007 L 170.672 190.934 L 167.746 190.934 L 167.746 188.007 M 167.746 177.94 L 170.672 177.94 L 170.672 180.867 L 167.746 180.867 L 167.746 177.94 " fill="#000000"/>
<path class="atom-16" d="M 173.394 189.09 L 177.93 189.09 L 177.93 173.609 L 172.925 175.16 L 172.252 173.433 L 178.603 170.595 L 180.681 170.946 L 180.681 189.09 L 184.748 189.09 L 184.748 191.431 L 173.394 191.431 L 173.394 189.09 " fill="#000000"/>
<path class="atom-16" d="M 196.133 173.053 L 185.275 173.053 L 185.275 170.712 L 199.03 170.712 L 199.03 172.79 L 190.66 191.431 L 187.851 191.431 L 196.133 173.053 " fill="#000000"/>
<text x="224.91037690706884" y="294.3477709733892" font-size="12" font-family="Verdana" font-weight="bold" letter-spacing="0" text-anchor="start" fill="black" transform=" rotate(75.337533 224.910377 294.347771)">0.0152</text><text x="25" y="490" font-size="12" font-family="Verdana" font-weight="bold" letter-spacing="0" text-anchor="start" fill="black">[#7:1](-[#6:2](-[#6:3](=[#8:4])-[#7:7](-[H:16])-[H:17])(-[H:8])-[H:9])(-[#6:5](-[H:10])(-[H:11])-[H:14])-[#6:6](-[H:12])(-[H:13])-[H:15]</text></svg>
