<?xml version='1.0' encoding='ASCII' standalone='yes'?>
<svg xmlns="http://www.w3.org/2000/svg" xmlns:rdkit="http://www.rdkit.org/xml" xmlns:xlink="http://www.w3.org/1999/xlink" version="1.1" baseProfile="full" xml:space="preserve" width="500px" height="500px" viewBox="0 0 500 500">
<!-- END OF HEADER -->
<rect style="opacity:1.0;fill:#FFFFFF;stroke:none" width="500" height="500" x="0" y="0"> </rect>
<path d="M 207.196,197.139 L 250.31,189.89" style="fill:none;fill-rule:evenodd;stroke:#FF7F7F;stroke-width:9.3px;stroke-linecap:butt;stroke-linejoin:miter;stroke-opacity:1"/>
<path class="bond-0 atom-0 atom-17" d="M 163.976,166.013 L 148.659,168.588" style="fill:none;fill-rule:evenodd;stroke:#000000;stroke-width:2.0px;stroke-linecap:butt;stroke-linejoin:miter;stroke-opacity:1"/>
<path class="bond-0 atom-0 atom-17" d="M 163.128,175.022 L 152.407,176.825" style="fill:none;fill-rule:evenodd;stroke:#000000;stroke-width:2.0px;stroke-linecap:butt;stroke-linejoin:miter;stroke-opacity:1"/>
<path class="bond-1 atom-0 atom-20" d="M 182.077,156.142 L 191.969,129.622" style="fill:none;fill-rule:evenodd;stroke:#000000;stroke-width:2.0px;stroke-linecap:butt;stroke-linejoin:miter;stroke-opacity:1"/>
<path class="bond-2 atom-1 atom-0" d="M 201.124,189.786 L 185.235,170.541" style="fill:none;fill-rule:evenodd;stroke:#000000;stroke-width:2.0px;stroke-linecap:butt;stroke-linejoin:miter;stroke-opacity:1"/>
<path class="bond-3 atom-1 atom-5" d="M 204.564,204.196 L 194.589,230.937" style="fill:none;fill-rule:evenodd;stroke:#000000;stroke-width:2.0px;stroke-linecap:butt;stroke-linejoin:miter;stroke-opacity:1"/>
<path class="bond-3 atom-1 atom-5" d="M 194.875,205.151 L 187.893,223.87" style="fill:none;fill-rule:evenodd;stroke:#000000;stroke-width:2.0px;stroke-linecap:butt;stroke-linejoin:miter;stroke-opacity:1"/>
<path class="bond-5 atom-2 atom-1" d="M 234.879,192.485 L 224.984,194.149" style="fill:none;fill-rule:evenodd;stroke:#0000FF;stroke-width:2.0px;stroke-linecap:butt;stroke-linejoin:miter;stroke-opacity:1"/>
<path class="bond-5 atom-2 atom-1" d="M 224.984,194.149 L 215.09,195.812" style="fill:none;fill-rule:evenodd;stroke:#000000;stroke-width:2.0px;stroke-linecap:butt;stroke-linejoin:miter;stroke-opacity:1"/>
<path class="bond-4 atom-2 atom-3" d="M 256.526,197.419 L 264.401,206.956" style="fill:none;fill-rule:evenodd;stroke:#0000FF;stroke-width:2.0px;stroke-linecap:butt;stroke-linejoin:miter;stroke-opacity:1"/>
<path class="bond-4 atom-2 atom-3" d="M 264.401,206.956 L 272.276,216.494" style="fill:none;fill-rule:evenodd;stroke:#000000;stroke-width:2.0px;stroke-linecap:butt;stroke-linejoin:miter;stroke-opacity:1"/>
<path class="bond-6 atom-2 atom-4" d="M 253.053,182.536 L 258,169.276" style="fill:none;fill-rule:evenodd;stroke:#0000FF;stroke-width:2.0px;stroke-linecap:butt;stroke-linejoin:miter;stroke-opacity:1"/>
<path class="bond-6 atom-2 atom-4" d="M 258,169.276 L 262.946,156.015" style="fill:none;fill-rule:evenodd;stroke:#000000;stroke-width:2.0px;stroke-linecap:butt;stroke-linejoin:miter;stroke-opacity:1"/>
<path class="bond-7 atom-3 atom-11" d="M 286.891,222.133 L 301.454,219.685" style="fill:none;fill-rule:evenodd;stroke:#000000;stroke-width:2.0px;stroke-linecap:butt;stroke-linejoin:miter;stroke-opacity:1"/>
<path class="bond-11 atom-6 atom-3" d="M 265.61,257.213 L 275.476,230.761" style="fill:none;fill-rule:evenodd;stroke:#000000;stroke-width:2.0px;stroke-linecap:butt;stroke-linejoin:miter;stroke-opacity:1"/>
<path class="bond-11 atom-6 atom-3" d="M 275.282,256.301 L 282.189,237.785" style="fill:none;fill-rule:evenodd;stroke:#000000;stroke-width:2.0px;stroke-linecap:butt;stroke-linejoin:miter;stroke-opacity:1"/>
<path class="bond-8 atom-5 atom-18" d="M 186.05,239.089 L 161.267,243.256" style="fill:none;fill-rule:evenodd;stroke:#000000;stroke-width:2.0px;stroke-linecap:butt;stroke-linejoin:miter;stroke-opacity:1"/>
<path class="bond-9 atom-5 atom-21" d="M 195.261,245.101 L 198.825,252.559" style="fill:none;fill-rule:evenodd;stroke:#000000;stroke-width:2.0px;stroke-linecap:butt;stroke-linejoin:miter;stroke-opacity:1"/>
<path class="bond-10 atom-6 atom-8" d="M 267.847,272.078 L 282.299,293.877" style="fill:none;fill-rule:evenodd;stroke:#000000;stroke-width:2.0px;stroke-linecap:butt;stroke-linejoin:miter;stroke-opacity:1"/>
<path class="bond-12 atom-6 atom-9" d="M 256.999,266.199 L 233.581,272.713" style="fill:none;fill-rule:evenodd;stroke:#000000;stroke-width:2.0px;stroke-linecap:butt;stroke-linejoin:miter;stroke-opacity:1"/>
<path class="bond-13 atom-7 atom-9" d="M 219.188,312.609 L 219.814,298.031" style="fill:none;fill-rule:evenodd;stroke:#0000FF;stroke-width:2.0px;stroke-linecap:butt;stroke-linejoin:miter;stroke-opacity:1"/>
<path class="bond-13 atom-7 atom-9" d="M 219.814,298.031 L 220.439,283.453" style="fill:none;fill-rule:evenodd;stroke:#000000;stroke-width:2.0px;stroke-linecap:butt;stroke-linejoin:miter;stroke-opacity:1"/>
<path class="bond-14 atom-7 atom-10" d="M 224.338,322.001 L 232.425,325.017" style="fill:none;fill-rule:evenodd;stroke:#0000FF;stroke-width:2.0px;stroke-linecap:butt;stroke-linejoin:miter;stroke-opacity:1"/>
<path class="bond-14 atom-7 atom-10" d="M 232.425,325.017 L 240.512,328.034" style="fill:none;fill-rule:evenodd;stroke:#000000;stroke-width:2.0px;stroke-linecap:butt;stroke-linejoin:miter;stroke-opacity:1"/>
<path class="bond-15 atom-7 atom-22" d="M 207.782,327.316 L 197.569,334.087" style="fill:none;fill-rule:evenodd;stroke:#0000FF;stroke-width:2.0px;stroke-linecap:butt;stroke-linejoin:miter;stroke-opacity:1"/>
<path class="bond-15 atom-7 atom-22" d="M 197.569,334.087 L 187.357,340.858" style="fill:none;fill-rule:evenodd;stroke:#000000;stroke-width:2.0px;stroke-linecap:butt;stroke-linejoin:miter;stroke-opacity:1"/>
<path class="bond-16 atom-8 atom-10" d="M 281.158,308.393 L 265.433,328.194" style="fill:none;fill-rule:evenodd;stroke:#000000;stroke-width:2.0px;stroke-linecap:butt;stroke-linejoin:miter;stroke-opacity:1"/>
<path class="bond-16 atom-8 atom-10" d="M 271.952,305.925 L 260.945,319.786" style="fill:none;fill-rule:evenodd;stroke:#000000;stroke-width:2.0px;stroke-linecap:butt;stroke-linejoin:miter;stroke-opacity:1"/>
<path class="bond-17 atom-8 atom-32" d="M 305.501,304.083 L 324.682,307.278" style="fill:none;fill-rule:evenodd;stroke:#000000;stroke-width:2.0px;stroke-linecap:butt;stroke-linejoin:miter;stroke-opacity:1"/>
<path class="bond-18 atom-9 atom-23" d="M 206.384,264.949 L 197.278,260.809" style="fill:none;fill-rule:evenodd;stroke:#000000;stroke-width:2.0px;stroke-linecap:butt;stroke-linejoin:miter;stroke-opacity:1"/>
<path class="bond-18 atom-9 atom-23" d="M 197.278,260.809 L 188.172,256.668" style="fill:none;fill-rule:evenodd;stroke:#FF0000;stroke-width:2.0px;stroke-linecap:butt;stroke-linejoin:miter;stroke-opacity:1"/>
<path class="bond-18 atom-9 atom-23" d="M 202.765,272.909 L 193.659,268.768" style="fill:none;fill-rule:evenodd;stroke:#000000;stroke-width:2.0px;stroke-linecap:butt;stroke-linejoin:miter;stroke-opacity:1"/>
<path class="bond-18 atom-9 atom-23" d="M 193.659,268.768 L 184.552,264.628" style="fill:none;fill-rule:evenodd;stroke:#FF0000;stroke-width:2.0px;stroke-linecap:butt;stroke-linejoin:miter;stroke-opacity:1"/>
<path class="bond-19 atom-10 atom-33" d="M 261.881,342.595 L 269.599,370.339" style="fill:none;fill-rule:evenodd;stroke:#000000;stroke-width:2.0px;stroke-linecap:butt;stroke-linejoin:miter;stroke-opacity:1"/>
<path class="bond-20 atom-11 atom-12" d="M 327.332,223.708 L 343.279,243.023" style="fill:none;fill-rule:evenodd;stroke:#000000;stroke-width:2.0px;stroke-linecap:butt;stroke-linejoin:miter;stroke-opacity:1"/>
<path class="bond-20 atom-11 atom-12" d="M 336.467,221.038 L 347.629,234.558" style="fill:none;fill-rule:evenodd;stroke:#000000;stroke-width:2.0px;stroke-linecap:butt;stroke-linejoin:miter;stroke-opacity:1"/>
<path class="bond-21 atom-11 atom-13" d="M 324.003,209.001 L 333.87,182.549" style="fill:none;fill-rule:evenodd;stroke:#000000;stroke-width:2.0px;stroke-linecap:butt;stroke-linejoin:miter;stroke-opacity:1"/>
<path class="bond-22 atom-12 atom-14" d="M 354.351,249.184 L 372.32,246.163" style="fill:none;fill-rule:evenodd;stroke:#000000;stroke-width:2.0px;stroke-linecap:butt;stroke-linejoin:miter;stroke-opacity:1"/>
<path class="bond-23 atom-12 atom-24" d="M 347.295,257.596 L 340.603,285.568" style="fill:none;fill-rule:evenodd;stroke:#000000;stroke-width:2.0px;stroke-linecap:butt;stroke-linejoin:miter;stroke-opacity:1"/>
<path class="bond-24 atom-13 atom-15" d="M 349.415,173.227 L 359.782,171.483" style="fill:none;fill-rule:evenodd;stroke:#000000;stroke-width:2.0px;stroke-linecap:butt;stroke-linejoin:miter;stroke-opacity:1"/>
<path class="bond-24 atom-13 atom-15" d="M 352.42,181.588 L 359.677,180.368" style="fill:none;fill-rule:evenodd;stroke:#000000;stroke-width:2.0px;stroke-linecap:butt;stroke-linejoin:miter;stroke-opacity:1"/>
<path class="bond-25 atom-13 atom-25" d="M 330.526,168.108 L 313.854,147.916" style="fill:none;fill-rule:evenodd;stroke:#000000;stroke-width:2.0px;stroke-linecap:butt;stroke-linejoin:miter;stroke-opacity:1"/>
<path class="bond-26 atom-14 atom-16" d="M 394.927,235.535 L 404.819,209.015" style="fill:none;fill-rule:evenodd;stroke:#000000;stroke-width:2.0px;stroke-linecap:butt;stroke-linejoin:miter;stroke-opacity:1"/>
<path class="bond-26 atom-14 atom-16" d="M 388.218,228.501 L 395.142,209.937" style="fill:none;fill-rule:evenodd;stroke:#000000;stroke-width:2.0px;stroke-linecap:butt;stroke-linejoin:miter;stroke-opacity:1"/>
<path class="bond-27 atom-14 atom-26" d="M 398.397,250.312 L 414.351,269.635" style="fill:none;fill-rule:evenodd;stroke:#000000;stroke-width:2.0px;stroke-linecap:butt;stroke-linejoin:miter;stroke-opacity:1"/>
<path class="bond-28 atom-15 atom-16" d="M 385.841,175.636 L 401.676,194.815" style="fill:none;fill-rule:evenodd;stroke:#000000;stroke-width:2.0px;stroke-linecap:butt;stroke-linejoin:miter;stroke-opacity:1"/>
<path class="bond-29 atom-15 atom-27" d="M 382.397,160.788 L 392.263,134.337" style="fill:none;fill-rule:evenodd;stroke:#000000;stroke-width:2.0px;stroke-linecap:butt;stroke-linejoin:miter;stroke-opacity:1"/>
<path class="bond-30 atom-16 atom-28" d="M 419.388,199.855 L 444.968,195.554" style="fill:none;fill-rule:evenodd;stroke:#000000;stroke-width:2.0px;stroke-linecap:butt;stroke-linejoin:miter;stroke-opacity:1"/>
<path class="bond-31 atom-17 atom-19" d="M 133.503,178.029 L 123.637,204.481" style="fill:none;fill-rule:evenodd;stroke:#000000;stroke-width:2.0px;stroke-linecap:butt;stroke-linejoin:miter;stroke-opacity:1"/>
<path class="bond-32 atom-17 atom-29" d="M 130.232,163.392 L 113.797,143.485" style="fill:none;fill-rule:evenodd;stroke:#000000;stroke-width:2.0px;stroke-linecap:butt;stroke-linejoin:miter;stroke-opacity:1"/>
<path class="bond-33 atom-18 atom-19" d="M 142.789,238.068 L 126.959,218.896" style="fill:none;fill-rule:evenodd;stroke:#000000;stroke-width:2.0px;stroke-linecap:butt;stroke-linejoin:miter;stroke-opacity:1"/>
<path class="bond-33 atom-18 atom-19" d="M 147.157,229.625 L 136.076,216.204" style="fill:none;fill-rule:evenodd;stroke:#000000;stroke-width:2.0px;stroke-linecap:butt;stroke-linejoin:miter;stroke-opacity:1"/>
<path class="bond-34 atom-18 atom-30" d="M 146.059,252.705 L 136.167,279.227" style="fill:none;fill-rule:evenodd;stroke:#000000;stroke-width:2.0px;stroke-linecap:butt;stroke-linejoin:miter;stroke-opacity:1"/>
<path class="bond-35 atom-31 atom-19" d="M 90.6405,216.737 L 95.5463,215.912" style="fill:none;fill-rule:evenodd;stroke:#0000FF;stroke-width:2.0px;stroke-linecap:butt;stroke-linejoin:miter;stroke-opacity:1"/>
<path class="bond-35 atom-31 atom-19" d="M 95.5463,215.912 L 100.452,215.088" style="fill:none;fill-rule:evenodd;stroke:#000000;stroke-width:2.0px;stroke-linecap:butt;stroke-linejoin:miter;stroke-opacity:1"/>
<path class="bond-36 atom-31 atom-34" d="M 75.0443,226.416 L 70.1167,239.627" style="fill:none;fill-rule:evenodd;stroke:#0000FF;stroke-width:2.0px;stroke-linecap:butt;stroke-linejoin:miter;stroke-opacity:1"/>
<path class="bond-36 atom-31 atom-34" d="M 70.1167,239.627 L 65.1891,252.838" style="fill:none;fill-rule:evenodd;stroke:#000000;stroke-width:2.0px;stroke-linecap:butt;stroke-linejoin:miter;stroke-opacity:1"/>
<path class="bond-37 atom-31 atom-35" d="M 71.781,211.534 L 63.473,201.471" style="fill:none;fill-rule:evenodd;stroke:#0000FF;stroke-width:2.0px;stroke-linecap:butt;stroke-linejoin:miter;stroke-opacity:1"/>
<path class="bond-37 atom-31 atom-35" d="M 63.473,201.471 L 55.165,191.409" style="fill:none;fill-rule:evenodd;stroke:#000000;stroke-width:2.0px;stroke-linecap:butt;stroke-linejoin:miter;stroke-opacity:1"/>
<path class="atom-0" d="M 165.069 163.478 Q 165.069 160.401, 166.503 158.792 Q 167.954 157.165, 170.7 157.165 Q 173.253 157.165, 174.617 158.966 L 173.463 159.911 Q 172.466 158.599, 170.7 158.599 Q 168.828 158.599, 167.832 159.858 Q 166.852 161.1, 166.852 163.478 Q 166.852 165.927, 167.867 167.186 Q 168.898 168.445, 170.892 168.445 Q 172.256 168.445, 173.848 167.623 L 174.337 168.935 Q 173.69 169.354, 172.711 169.599 Q 171.731 169.844, 170.647 169.844 Q 167.954 169.844, 166.503 168.2 Q 165.069 166.556, 165.069 163.478 " fill="#000000"/>
<path class="atom-0" d="M 175.929 167.64 L 177.677 167.64 L 177.677 169.389 L 175.929 169.389 L 175.929 167.64 M 175.929 161.625 L 177.677 161.625 L 177.677 163.373 L 175.929 163.373 L 175.929 161.625 " fill="#000000"/>
<path class="atom-0" d="M 179.304 168.288 L 182.014 168.288 L 182.014 159.036 L 179.024 159.963 L 178.622 158.932 L 182.417 157.235 L 183.658 157.445 L 183.658 168.288 L 186.089 168.288 L 186.089 169.687 L 179.304 169.687 L 179.304 168.288 " fill="#000000"/>
<path class="atom-1" d="M 192.563 197.192 Q 192.563 194.114, 193.997 192.505 Q 195.448 190.879, 198.194 190.879 Q 200.747 190.879, 202.111 192.68 L 200.957 193.624 Q 199.96 192.313, 198.194 192.313 Q 196.323 192.313, 195.326 193.572 Q 194.347 194.814, 194.347 197.192 Q 194.347 199.64, 195.361 200.899 Q 196.393 202.158, 198.386 202.158 Q 199.75 202.158, 201.342 201.337 L 201.832 202.648 Q 201.184 203.068, 200.205 203.313 Q 199.226 203.558, 198.142 203.558 Q 195.448 203.558, 193.997 201.914 Q 192.563 200.27, 192.563 197.192 " fill="#000000"/>
<path class="atom-1" d="M 203.423 201.354 L 205.172 201.354 L 205.172 203.103 L 203.423 203.103 L 203.423 201.354 M 203.423 195.338 L 205.172 195.338 L 205.172 197.087 L 203.423 197.087 L 203.423 195.338 " fill="#000000"/>
<path class="atom-1" d="M 206.081 193.362 Q 206.536 192.19, 207.62 191.543 Q 208.704 190.879, 210.208 190.879 Q 212.079 190.879, 213.129 191.893 Q 214.178 192.907, 214.178 194.709 Q 214.178 196.545, 212.814 198.259 Q 211.467 199.973, 208.669 202.001 L 214.388 202.001 L 214.388 203.4 L 206.046 203.4 L 206.046 202.228 Q 208.354 200.585, 209.719 199.36 Q 211.1 198.136, 211.765 197.035 Q 212.429 195.933, 212.429 194.796 Q 212.429 193.607, 211.835 192.942 Q 211.24 192.278, 210.208 192.278 Q 209.211 192.278, 208.547 192.68 Q 207.882 193.082, 207.41 193.974 L 206.081 193.362 " fill="#000000"/>
<path class="atom-2" d="M 237.93 183.769 L 241.988 190.327 Q 242.39 190.974, 243.037 192.146 Q 243.684 193.318, 243.719 193.388 L 243.719 183.769 L 245.363 183.769 L 245.363 196.151 L 243.666 196.151 L 239.312 188.981 Q 238.805 188.141, 238.263 187.179 Q 237.738 186.218, 237.581 185.92 L 237.581 196.151 L 235.972 196.151 L 235.972 183.769 L 237.93 183.769 " fill="#0000FF"/>
<path class="atom-2" d="M 246.674 194.105 L 248.423 194.105 L 248.423 195.853 L 246.674 195.853 L 246.674 194.105 M 246.674 188.089 L 248.423 188.089 L 248.423 189.838 L 246.674 189.838 L 246.674 188.089 " fill="#0000FF"/>
<path class="atom-2" d="M 255.104 189.628 Q 256.31 189.978, 256.887 190.765 Q 257.482 191.534, 257.482 192.758 Q 257.482 193.807, 256.957 194.629 Q 256.433 195.434, 255.471 195.888 Q 254.509 196.326, 253.25 196.326 Q 251.921 196.326, 250.924 195.871 Q 249.945 195.399, 249.158 194.454 L 250.154 193.44 Q 250.924 194.28, 251.571 194.612 Q 252.218 194.927, 253.25 194.927 Q 254.369 194.927, 255.051 194.332 Q 255.733 193.72, 255.733 192.741 Q 255.733 191.482, 255.016 190.922 Q 254.317 190.345, 252.795 190.345 L 251.903 190.345 L 251.903 189.086 L 252.69 189.086 Q 254.037 189.068, 254.754 188.491 Q 255.471 187.896, 255.471 186.795 Q 255.471 185.99, 254.876 185.518 Q 254.282 185.028, 253.267 185.028 Q 252.236 185.028, 251.588 185.396 Q 250.959 185.763, 250.469 186.69 L 249.263 186.043 Q 249.7 185.011, 250.749 184.329 Q 251.798 183.629, 253.267 183.629 Q 255.086 183.629, 256.153 184.486 Q 257.22 185.343, 257.22 186.795 Q 257.22 187.792, 256.677 188.509 Q 256.135 189.226, 255.104 189.628 " fill="#0000FF"/>
<path class="atom-3" d="M 263.134 223.656 Q 263.134 220.578, 264.568 218.969 Q 266.019 217.343, 268.765 217.343 Q 271.318 217.343, 272.682 219.144 L 271.528 220.089 Q 270.531 218.777, 268.765 218.777 Q 266.894 218.777, 265.897 220.036 Q 264.918 221.278, 264.918 223.656 Q 264.918 226.104, 265.932 227.364 Q 266.964 228.623, 268.957 228.623 Q 270.321 228.623, 271.913 227.801 L 272.402 229.112 Q 271.755 229.532, 270.776 229.777 Q 269.797 230.022, 268.713 230.022 Q 266.019 230.022, 264.568 228.378 Q 263.134 226.734, 263.134 223.656 " fill="#000000"/>
<path class="atom-3" d="M 273.994 227.818 L 275.743 227.818 L 275.743 229.567 L 273.994 229.567 L 273.994 227.818 M 273.994 221.802 L 275.743 221.802 L 275.743 223.551 L 273.994 223.551 L 273.994 221.802 " fill="#000000"/>
<path class="atom-3" d="M 284.312 225.615 L 285.798 225.615 L 285.798 227.014 L 284.312 227.014 L 284.312 229.864 L 282.668 229.864 L 282.668 227.014 L 276.267 227.014 L 276.267 225.912 L 281.689 217.483 L 284.312 217.483 L 284.312 225.615 M 278.296 225.615 L 282.668 225.615 L 282.668 218.602 L 278.296 225.615 " fill="#000000"/>
<path class="atom-4" d="M 260.745 142.736 L 262.424 142.736 L 262.424 148 L 268.755 148 L 268.755 142.736 L 270.434 142.736 L 270.434 155.118 L 268.755 155.118 L 268.755 149.399 L 262.424 149.399 L 262.424 155.118 L 260.745 155.118 L 260.745 142.736 " fill="#000000"/>
<path class="atom-4" d="M 271.745 153.072 L 273.494 153.072 L 273.494 154.821 L 271.745 154.821 L 271.745 153.072 M 271.745 147.056 L 273.494 147.056 L 273.494 148.805 L 271.745 148.805 L 271.745 147.056 " fill="#000000"/>
<path class="atom-4" d="M 278.793 147.371 Q 279.877 147.371, 280.769 147.843 Q 281.661 148.298, 282.168 149.172 Q 282.675 150.029, 282.675 151.201 Q 282.675 152.477, 282.046 153.404 Q 281.434 154.313, 280.419 154.786 Q 279.405 155.258, 278.251 155.258 Q 277.114 155.258, 276.065 154.838 Q 275.015 154.418, 274.298 153.614 L 275.348 152.53 Q 275.925 153.159, 276.712 153.509 Q 277.499 153.841, 278.303 153.841 Q 279.405 153.841, 280.157 153.159 Q 280.926 152.477, 280.926 151.236 Q 280.926 149.924, 280.157 149.312 Q 279.405 148.682, 278.198 148.682 Q 277.114 148.682, 275.907 149.155 L 274.946 148.7 L 275.54 142.736 L 281.906 142.736 L 281.731 144.136 L 276.974 144.136 L 276.607 147.808 Q 277.709 147.371, 278.793 147.371 " fill="#000000"/>
<path class="atom-5" d="M 187.143 238.155 Q 187.143 235.077, 188.577 233.468 Q 190.028 231.842, 192.774 231.842 Q 195.327 231.842, 196.691 233.643 L 195.537 234.587 Q 194.54 233.276, 192.774 233.276 Q 190.903 233.276, 189.906 234.535 Q 188.926 235.776, 188.926 238.155 Q 188.926 240.603, 189.941 241.862 Q 190.972 243.121, 192.966 243.121 Q 194.33 243.121, 195.922 242.299 L 196.411 243.611 Q 195.764 244.031, 194.785 244.276 Q 193.805 244.52, 192.721 244.52 Q 190.028 244.52, 188.577 242.877 Q 187.143 241.233, 187.143 238.155 " fill="#000000"/>
<path class="atom-5" d="M 198.003 242.317 L 199.751 242.317 L 199.751 244.066 L 198.003 244.066 L 198.003 242.317 M 198.003 236.301 L 199.751 236.301 L 199.751 238.05 L 198.003 238.05 L 198.003 236.301 " fill="#000000"/>
<path class="atom-5" d="M 205.785 236.633 Q 206.869 236.633, 207.726 237.106 Q 208.583 237.578, 209.055 238.435 Q 209.527 239.292, 209.527 240.376 Q 209.527 241.582, 208.985 242.527 Q 208.46 243.454, 207.516 243.978 Q 206.572 244.503, 205.365 244.503 Q 203.162 244.503, 202.042 243.016 Q 200.941 241.513, 200.941 238.54 Q 200.941 235.252, 202.305 233.556 Q 203.686 231.842, 206.327 231.842 Q 207.096 231.842, 207.743 232.017 Q 208.408 232.191, 209.037 232.559 L 208.355 233.73 Q 207.446 233.241, 206.344 233.241 Q 204.596 233.241, 203.704 234.377 Q 202.812 235.497, 202.707 237.823 Q 203.336 237.245, 204.123 236.948 Q 204.928 236.633, 205.785 236.633 M 205.382 243.069 Q 206.047 243.069, 206.589 242.719 Q 207.149 242.369, 207.464 241.757 Q 207.778 241.145, 207.778 240.393 Q 207.778 239.292, 207.166 238.662 Q 206.554 238.032, 205.47 238.032 Q 204.718 238.032, 203.966 238.347 Q 203.231 238.645, 202.707 239.169 Q 202.777 241.215, 203.424 242.142 Q 204.071 243.069, 205.382 243.069 " fill="#000000"/>
<path class="atom-6" d="M 258.092 264.619 Q 258.092 261.541, 259.526 259.932 Q 260.978 258.306, 263.724 258.306 Q 266.277 258.306, 267.641 260.107 L 266.487 261.052 Q 265.49 259.74, 263.724 259.74 Q 261.852 259.74, 260.856 260.999 Q 259.876 262.241, 259.876 264.619 Q 259.876 267.067, 260.891 268.326 Q 261.922 269.586, 263.916 269.586 Q 265.28 269.586, 266.871 268.764 L 267.361 270.075 Q 266.714 270.495, 265.735 270.74 Q 264.755 270.985, 263.671 270.985 Q 260.978 270.985, 259.526 269.341 Q 258.092 267.697, 258.092 264.619 " fill="#000000"/>
<path class="atom-6" d="M 268.952 268.781 L 270.701 268.781 L 270.701 270.53 L 268.952 270.53 L 268.952 268.781 M 268.952 262.765 L 270.701 262.765 L 270.701 264.514 L 268.952 264.514 L 268.952 262.765 " fill="#000000"/>
<path class="atom-6" d="M 277.504 259.845 L 271.016 259.845 L 271.016 258.446 L 279.235 258.446 L 279.235 259.687 L 274.234 270.827 L 272.555 270.827 L 277.504 259.845 " fill="#000000"/>
<path class="atom-7" d="M 202.924 313.842 L 206.981 320.4 Q 207.384 321.047, 208.031 322.218 Q 208.678 323.39, 208.713 323.46 L 208.713 313.842 L 210.356 313.842 L 210.356 326.223 L 208.66 326.223 L 204.306 319.053 Q 203.799 318.214, 203.256 317.252 Q 202.732 316.29, 202.574 315.993 L 202.574 326.223 L 200.965 326.223 L 200.965 313.842 L 202.924 313.842 " fill="#0000FF"/>
<path class="atom-7" d="M 211.668 324.177 L 213.417 324.177 L 213.417 325.926 L 211.668 325.926 L 211.668 324.177 M 211.668 318.161 L 213.417 318.161 L 213.417 319.91 L 211.668 319.91 L 211.668 318.161 " fill="#0000FF"/>
<path class="atom-7" d="M 220.814 319.665 Q 221.951 320.155, 222.598 320.889 Q 223.245 321.606, 223.245 322.83 Q 223.245 323.88, 222.703 324.702 Q 222.161 325.506, 221.181 325.961 Q 220.22 326.398, 218.943 326.398 Q 216.879 326.398, 215.69 325.454 Q 214.501 324.492, 214.501 322.83 Q 214.501 321.816, 215.026 321.064 Q 215.55 320.295, 216.635 319.718 Q 215.83 319.263, 215.393 318.598 Q 214.956 317.916, 214.956 316.867 Q 214.956 315.416, 216.005 314.559 Q 217.072 313.702, 218.873 313.702 Q 220.674 313.702, 221.724 314.559 Q 222.79 315.416, 222.79 316.867 Q 222.79 317.776, 222.283 318.459 Q 221.794 319.123, 220.814 319.665 M 218.873 315.013 Q 217.841 315.013, 217.264 315.503 Q 216.705 315.993, 216.705 316.867 Q 216.705 317.514, 217.089 317.951 Q 217.474 318.371, 218.016 318.616 Q 218.576 318.861, 219.643 319.228 Q 220.395 318.703, 220.709 318.144 Q 221.042 317.584, 221.042 316.867 Q 221.042 315.993, 220.464 315.503 Q 219.905 315.013, 218.873 315.013 M 218.943 325.086 Q 220.097 325.086, 220.797 324.474 Q 221.496 323.845, 221.496 322.813 Q 221.496 322.148, 221.129 321.729 Q 220.762 321.309, 220.202 321.064 Q 219.66 320.819, 218.681 320.505 L 217.894 320.242 Q 217.019 320.767, 216.635 321.396 Q 216.25 322.009, 216.25 322.813 Q 216.25 323.845, 216.984 324.474 Q 217.719 325.086, 218.943 325.086 " fill="#0000FF"/>
<path class="atom-8" d="M 282.251 301.058 Q 282.251 297.98, 283.685 296.371 Q 285.137 294.744, 287.882 294.744 Q 290.436 294.744, 291.8 296.546 L 290.646 297.49 Q 289.649 296.178, 287.882 296.178 Q 286.011 296.178, 285.014 297.438 Q 284.035 298.679, 284.035 301.058 Q 284.035 303.506, 285.049 304.765 Q 286.081 306.024, 288.075 306.024 Q 289.439 306.024, 291.03 305.202 L 291.52 306.514 Q 290.873 306.933, 289.894 307.178 Q 288.914 307.423, 287.83 307.423 Q 285.137 307.423, 283.685 305.779 Q 282.251 304.135, 282.251 301.058 " fill="#000000"/>
<path class="atom-8" d="M 293.111 305.22 L 294.86 305.22 L 294.86 306.968 L 293.111 306.968 L 293.111 305.22 M 293.111 299.204 L 294.86 299.204 L 294.86 300.953 L 293.111 300.953 L 293.111 299.204 " fill="#000000"/>
<path class="atom-8" d="M 299.984 294.744 Q 302.188 294.744, 303.289 296.248 Q 304.408 297.735, 304.408 300.708 Q 304.408 303.995, 303.027 305.709 Q 301.663 307.406, 299.022 307.406 Q 298.253 307.406, 297.588 307.231 Q 296.941 307.056, 296.312 306.689 L 296.994 305.517 Q 297.903 306.007, 299.005 306.007 Q 300.753 306.007, 301.645 304.887 Q 302.537 303.751, 302.642 301.425 Q 302.013 302.002, 301.208 302.317 Q 300.421 302.614, 299.564 302.614 Q 298.48 302.614, 297.623 302.142 Q 296.766 301.67, 296.294 300.813 Q 295.822 299.956, 295.822 298.872 Q 295.822 297.665, 296.347 296.738 Q 296.889 295.794, 297.833 295.269 Q 298.777 294.744, 299.984 294.744 M 297.571 298.854 Q 297.571 299.956, 298.183 300.585 Q 298.795 301.215, 299.879 301.215 Q 300.631 301.215, 301.366 300.918 Q 302.118 300.603, 302.642 300.078 Q 302.572 298.032, 301.925 297.105 Q 301.278 296.178, 299.967 296.178 Q 299.302 296.178, 298.742 296.528 Q 298.2 296.878, 297.885 297.49 Q 297.571 298.102, 297.571 298.854 " fill="#000000"/>
<path class="atom-9" d="M 201.494 276.335 Q 201.494 273.258, 202.928 271.649 Q 204.38 270.022, 207.125 270.022 Q 209.678 270.022, 211.043 271.824 L 209.888 272.768 Q 208.892 271.456, 207.125 271.456 Q 205.254 271.456, 204.257 272.715 Q 203.278 273.957, 203.278 276.335 Q 203.278 278.784, 204.292 280.043 Q 205.324 281.302, 207.318 281.302 Q 208.682 281.302, 210.273 280.48 L 210.763 281.792 Q 210.116 282.211, 209.136 282.456 Q 208.157 282.701, 207.073 282.701 Q 204.38 282.701, 202.928 281.057 Q 201.494 279.413, 201.494 276.335 " fill="#000000"/>
<path class="atom-9" d="M 212.354 280.498 L 214.103 280.498 L 214.103 282.246 L 212.354 282.246 L 212.354 280.498 M 212.354 274.482 L 214.103 274.482 L 214.103 276.23 L 212.354 276.23 L 212.354 274.482 " fill="#000000"/>
<path class="atom-9" d="M 215.729 281.145 L 218.44 281.145 L 218.44 271.893 L 215.449 272.82 L 215.047 271.789 L 218.842 270.092 L 220.084 270.302 L 220.084 281.145 L 222.515 281.145 L 222.515 282.544 L 215.729 282.544 L 215.729 281.145 " fill="#000000"/>
<path class="atom-9" d="M 228.111 282.683 Q 225.837 282.683, 224.701 281.005 Q 223.581 279.326, 223.581 276.335 Q 223.581 273.345, 224.701 271.684 Q 225.82 270.022, 228.111 270.022 Q 230.402 270.022, 231.521 271.684 Q 232.64 273.345, 232.64 276.335 Q 232.64 279.326, 231.503 281.005 Q 230.384 282.683, 228.111 282.683 M 228.111 281.284 Q 229.457 281.284, 230.174 280.043 Q 230.891 278.784, 230.891 276.335 Q 230.891 273.905, 230.174 272.663 Q 229.457 271.421, 228.111 271.421 Q 226.782 271.421, 226.047 272.663 Q 225.33 273.905, 225.33 276.335 Q 225.33 278.784, 226.047 280.043 Q 226.782 281.284, 228.111 281.284 " fill="#000000"/>
<path class="atom-10" d="M 241.211 335.294 Q 241.211 332.216, 242.645 330.607 Q 244.097 328.981, 246.842 328.981 Q 249.396 328.981, 250.76 330.782 L 249.606 331.727 Q 248.609 330.415, 246.842 330.415 Q 244.971 330.415, 243.974 331.674 Q 242.995 332.916, 242.995 335.294 Q 242.995 337.742, 244.009 339.001 Q 245.041 340.261, 247.035 340.261 Q 248.399 340.261, 249.99 339.439 L 250.48 340.75 Q 249.833 341.17, 248.854 341.415 Q 247.874 341.66, 246.79 341.66 Q 244.097 341.66, 242.645 340.016 Q 241.211 338.372, 241.211 335.294 " fill="#000000"/>
<path class="atom-10" d="M 252.071 339.456 L 253.82 339.456 L 253.82 341.205 L 252.071 341.205 L 252.071 339.456 M 252.071 333.44 L 253.82 333.44 L 253.82 335.189 L 252.071 335.189 L 252.071 333.44 " fill="#000000"/>
<path class="atom-10" d="M 255.447 340.103 L 258.157 340.103 L 258.157 330.852 L 255.167 331.779 L 254.764 330.747 L 258.559 329.051 L 259.801 329.261 L 259.801 340.103 L 262.232 340.103 L 262.232 341.502 L 255.447 341.502 L 255.447 340.103 " fill="#000000"/>
<path class="atom-10" d="M 263.858 340.103 L 266.569 340.103 L 266.569 330.852 L 263.578 331.779 L 263.176 330.747 L 266.971 329.051 L 268.213 329.261 L 268.213 340.103 L 270.643 340.103 L 270.643 341.502 L 263.858 341.502 L 263.858 340.103 " fill="#000000"/>
<path class="atom-11" d="M 302.325 216.407 Q 302.325 213.329, 303.759 211.72 Q 305.211 210.094, 307.956 210.094 Q 310.51 210.094, 311.874 211.895 L 310.719 212.839 Q 309.723 211.528, 307.956 211.528 Q 306.085 211.528, 305.088 212.787 Q 304.109 214.028, 304.109 216.407 Q 304.109 218.855, 305.123 220.114 Q 306.155 221.373, 308.149 221.373 Q 309.513 221.373, 311.104 220.551 L 311.594 221.863 Q 310.947 222.283, 309.967 222.528 Q 308.988 222.772, 307.904 222.772 Q 305.211 222.772, 303.759 221.129 Q 302.325 219.485, 302.325 216.407 " fill="#000000"/>
<path class="atom-11" d="M 313.185 220.569 L 314.934 220.569 L 314.934 222.318 L 313.185 222.318 L 313.185 220.569 M 313.185 214.553 L 314.934 214.553 L 314.934 216.302 L 313.185 216.302 L 313.185 214.553 " fill="#000000"/>
<path class="atom-11" d="M 316.56 221.216 L 319.271 221.216 L 319.271 211.965 L 316.281 212.892 L 315.878 211.86 L 319.673 210.164 L 320.915 210.373 L 320.915 221.216 L 323.346 221.216 L 323.346 222.615 L 316.56 222.615 L 316.56 221.216 " fill="#000000"/>
<path class="atom-11" d="M 324.255 212.577 Q 324.71 211.405, 325.794 210.758 Q 326.878 210.094, 328.382 210.094 Q 330.253 210.094, 331.303 211.108 Q 332.352 212.122, 332.352 213.924 Q 332.352 215.76, 330.988 217.474 Q 329.641 219.187, 326.843 221.216 L 332.562 221.216 L 332.562 222.615 L 324.22 222.615 L 324.22 221.443 Q 326.528 219.799, 327.893 218.575 Q 329.274 217.351, 329.939 216.249 Q 330.603 215.148, 330.603 214.011 Q 330.603 212.822, 330.009 212.157 Q 329.414 211.493, 328.382 211.493 Q 327.385 211.493, 326.721 211.895 Q 326.056 212.297, 325.584 213.189 L 324.255 212.577 " fill="#000000"/>
<path class="atom-12" d="M 323.179 250.12 Q 323.179 247.042, 324.613 245.434 Q 326.064 243.807, 328.81 243.807 Q 331.363 243.807, 332.727 245.608 L 331.573 246.553 Q 330.576 245.241, 328.81 245.241 Q 326.938 245.241, 325.942 246.5 Q 324.962 247.742, 324.962 250.12 Q 324.962 252.569, 325.977 253.828 Q 327.008 255.087, 329.002 255.087 Q 330.366 255.087, 331.958 254.265 L 332.447 255.577 Q 331.8 255.996, 330.821 256.241 Q 329.841 256.486, 328.757 256.486 Q 326.064 256.486, 324.613 254.842 Q 323.179 253.198, 323.179 250.12 " fill="#000000"/>
<path class="atom-12" d="M 334.039 254.282 L 335.787 254.282 L 335.787 256.031 L 334.039 256.031 L 334.039 254.282 M 334.039 248.267 L 335.787 248.267 L 335.787 250.015 L 334.039 250.015 L 334.039 248.267 " fill="#000000"/>
<path class="atom-12" d="M 337.414 254.93 L 340.124 254.93 L 340.124 245.678 L 337.134 246.605 L 336.732 245.573 L 340.527 243.877 L 341.768 244.087 L 341.768 254.93 L 344.199 254.93 L 344.199 256.329 L 337.414 256.329 L 337.414 254.93 " fill="#000000"/>
<path class="atom-12" d="M 350.879 249.806 Q 352.086 250.155, 352.663 250.942 Q 353.258 251.712, 353.258 252.936 Q 353.258 253.985, 352.733 254.807 Q 352.208 255.612, 351.247 256.066 Q 350.285 256.503, 349.026 256.503 Q 347.697 256.503, 346.7 256.049 Q 345.72 255.577, 344.934 254.632 L 345.93 253.618 Q 346.7 254.457, 347.347 254.79 Q 347.994 255.104, 349.026 255.104 Q 350.145 255.104, 350.827 254.51 Q 351.509 253.898, 351.509 252.918 Q 351.509 251.659, 350.792 251.1 Q 350.092 250.523, 348.571 250.523 L 347.679 250.523 L 347.679 249.263 L 348.466 249.263 Q 349.813 249.246, 350.53 248.669 Q 351.247 248.074, 351.247 246.973 Q 351.247 246.168, 350.652 245.696 Q 350.057 245.206, 349.043 245.206 Q 348.011 245.206, 347.364 245.573 Q 346.735 245.941, 346.245 246.868 L 345.038 246.221 Q 345.476 245.189, 346.525 244.507 Q 347.574 243.807, 349.043 243.807 Q 350.862 243.807, 351.929 244.664 Q 352.995 245.521, 352.995 246.973 Q 352.995 247.969, 352.453 248.686 Q 351.911 249.403, 350.879 249.806 " fill="#000000"/>
<path class="atom-13" d="M 317.246 175.444 Q 317.246 172.366, 318.68 170.757 Q 320.131 169.131, 322.877 169.131 Q 325.43 169.131, 326.794 170.932 L 325.64 171.876 Q 324.643 170.565, 322.877 170.565 Q 321.006 170.565, 320.009 171.824 Q 319.03 173.066, 319.03 175.444 Q 319.03 177.892, 320.044 179.151 Q 321.076 180.41, 323.069 180.41 Q 324.433 180.41, 326.025 179.588 L 326.514 180.9 Q 325.867 181.32, 324.888 181.565 Q 323.909 181.809, 322.825 181.809 Q 320.131 181.809, 318.68 180.166 Q 317.246 178.522, 317.246 175.444 " fill="#000000"/>
<path class="atom-13" d="M 328.106 179.606 L 329.855 179.606 L 329.855 181.355 L 328.106 181.355 L 328.106 179.606 M 328.106 173.59 L 329.855 173.59 L 329.855 175.339 L 328.106 175.339 L 328.106 173.59 " fill="#000000"/>
<path class="atom-13" d="M 331.481 180.253 L 334.192 180.253 L 334.192 171.002 L 331.201 171.929 L 330.799 170.897 L 334.594 169.201 L 335.835 169.411 L 335.835 180.253 L 338.266 180.253 L 338.266 181.652 L 331.481 181.652 L 331.481 180.253 " fill="#000000"/>
<path class="atom-13" d="M 346.835 177.403 L 348.322 177.403 L 348.322 178.802 L 346.835 178.802 L 346.835 181.652 L 345.192 181.652 L 345.192 178.802 L 338.791 178.802 L 338.791 177.7 L 344.212 169.271 L 346.835 169.271 L 346.835 177.403 M 340.82 177.403 L 345.192 177.403 L 345.192 170.39 L 340.82 177.403 " fill="#000000"/>
<path class="atom-14" d="M 373.279 242.871 Q 373.279 239.793, 374.713 238.184 Q 376.165 236.558, 378.911 236.558 Q 381.464 236.558, 382.828 238.359 L 381.674 239.303 Q 380.677 237.992, 378.911 237.992 Q 377.039 237.992, 376.043 239.251 Q 375.063 240.493, 375.063 242.871 Q 375.063 245.319, 376.078 246.578 Q 377.109 247.838, 379.103 247.838 Q 380.467 247.838, 382.058 247.016 L 382.548 248.327 Q 381.901 248.747, 380.922 248.992 Q 379.942 249.237, 378.858 249.237 Q 376.165 249.237, 374.713 247.593 Q 373.279 245.949, 373.279 242.871 " fill="#000000"/>
<path class="atom-14" d="M 384.139 247.033 L 385.888 247.033 L 385.888 248.782 L 384.139 248.782 L 384.139 247.033 M 384.139 241.017 L 385.888 241.017 L 385.888 242.766 L 384.139 242.766 L 384.139 241.017 " fill="#000000"/>
<path class="atom-14" d="M 387.515 247.68 L 390.225 247.68 L 390.225 238.429 L 387.235 239.356 L 386.833 238.324 L 390.627 236.628 L 391.869 236.838 L 391.869 247.68 L 394.3 247.68 L 394.3 249.079 L 387.515 249.079 L 387.515 247.68 " fill="#000000"/>
<path class="atom-14" d="M 399.599 241.332 Q 400.683 241.332, 401.575 241.804 Q 402.467 242.259, 402.974 243.133 Q 403.481 243.99, 403.481 245.162 Q 403.481 246.439, 402.851 247.365 Q 402.239 248.275, 401.225 248.747 Q 400.211 249.219, 399.057 249.219 Q 397.92 249.219, 396.871 248.799 Q 395.821 248.38, 395.104 247.575 L 396.154 246.491 Q 396.731 247.121, 397.518 247.47 Q 398.305 247.803, 399.109 247.803 Q 400.211 247.803, 400.963 247.121 Q 401.732 246.439, 401.732 245.197 Q 401.732 243.885, 400.963 243.273 Q 400.211 242.644, 399.004 242.644 Q 397.92 242.644, 396.713 243.116 L 395.751 242.661 L 396.346 236.698 L 402.712 236.698 L 402.537 238.097 L 397.78 238.097 L 397.413 241.769 Q 398.514 241.332, 399.599 241.332 " fill="#000000"/>
<path class="atom-15" d="M 360.548 168.195 Q 360.548 165.117, 361.982 163.508 Q 363.434 161.881, 366.179 161.881 Q 368.733 161.881, 370.097 163.683 L 368.943 164.627 Q 367.946 163.315, 366.179 163.315 Q 364.308 163.315, 363.311 164.575 Q 362.332 165.816, 362.332 168.195 Q 362.332 170.643, 363.346 171.902 Q 364.378 173.161, 366.372 173.161 Q 367.736 173.161, 369.327 172.339 L 369.817 173.651 Q 369.17 174.07, 368.191 174.315 Q 367.211 174.56, 366.127 174.56 Q 363.434 174.56, 361.982 172.916 Q 360.548 171.272, 360.548 168.195 " fill="#000000"/>
<path class="atom-15" d="M 371.408 172.357 L 373.157 172.357 L 373.157 174.105 L 371.408 174.105 L 371.408 172.357 M 371.408 166.341 L 373.157 166.341 L 373.157 168.09 L 371.408 168.09 L 371.408 166.341 " fill="#000000"/>
<path class="atom-15" d="M 374.783 173.004 L 377.494 173.004 L 377.494 163.753 L 374.504 164.679 L 374.101 163.648 L 377.896 161.951 L 379.138 162.161 L 379.138 173.004 L 381.569 173.004 L 381.569 174.403 L 374.783 174.403 L 374.783 173.004 " fill="#000000"/>
<path class="atom-15" d="M 387.602 166.673 Q 388.686 166.673, 389.543 167.145 Q 390.4 167.617, 390.872 168.474 Q 391.345 169.331, 391.345 170.415 Q 391.345 171.622, 390.802 172.566 Q 390.278 173.493, 389.333 174.018 Q 388.389 174.543, 387.182 174.543 Q 384.979 174.543, 383.86 173.056 Q 382.758 171.552, 382.758 168.579 Q 382.758 165.292, 384.122 163.595 Q 385.504 161.881, 388.144 161.881 Q 388.914 161.881, 389.561 162.056 Q 390.225 162.231, 390.855 162.598 L 390.173 163.77 Q 389.263 163.28, 388.162 163.28 Q 386.413 163.28, 385.521 164.417 Q 384.629 165.536, 384.524 167.862 Q 385.154 167.285, 385.941 166.988 Q 386.745 166.673, 387.602 166.673 M 387.2 173.109 Q 387.864 173.109, 388.407 172.759 Q 388.966 172.409, 389.281 171.797 Q 389.596 171.185, 389.596 170.433 Q 389.596 169.331, 388.984 168.702 Q 388.372 168.072, 387.287 168.072 Q 386.535 168.072, 385.783 168.387 Q 385.049 168.684, 384.524 169.209 Q 384.594 171.255, 385.241 172.182 Q 385.888 173.109, 387.2 173.109 " fill="#000000"/>
<path class="atom-16" d="M 388.74 201.908 Q 388.74 198.83, 390.174 197.221 Q 391.626 195.595, 394.371 195.595 Q 396.924 195.595, 398.288 197.396 L 397.134 198.341 Q 396.137 197.029, 394.371 197.029 Q 392.5 197.029, 391.503 198.288 Q 390.524 199.53, 390.524 201.908 Q 390.524 204.356, 391.538 205.616 Q 392.57 206.875, 394.564 206.875 Q 395.928 206.875, 397.519 206.053 L 398.009 207.364 Q 397.362 207.784, 396.382 208.029 Q 395.403 208.274, 394.319 208.274 Q 391.626 208.274, 390.174 206.63 Q 388.74 204.986, 388.74 201.908 " fill="#000000"/>
<path class="atom-16" d="M 399.6 206.07 L 401.349 206.07 L 401.349 207.819 L 399.6 207.819 L 399.6 206.07 M 399.6 200.054 L 401.349 200.054 L 401.349 201.803 L 399.6 201.803 L 399.6 200.054 " fill="#000000"/>
<path class="atom-16" d="M 402.975 206.717 L 405.686 206.717 L 405.686 197.466 L 402.695 198.393 L 402.293 197.361 L 406.088 195.665 L 407.33 195.875 L 407.33 206.717 L 409.76 206.717 L 409.76 208.116 L 402.975 208.116 L 402.975 206.717 " fill="#000000"/>
<path class="atom-16" d="M 416.563 197.134 L 410.075 197.134 L 410.075 195.735 L 418.295 195.735 L 418.295 196.976 L 413.293 208.116 L 411.614 208.116 L 416.563 197.134 " fill="#000000"/>
<path class="atom-17" d="M 117.108 170.728 Q 117.108 167.65, 118.542 166.041 Q 119.993 164.415, 122.739 164.415 Q 125.292 164.415, 126.656 166.216 L 125.502 167.16 Q 124.505 165.849, 122.739 165.849 Q 120.868 165.849, 119.871 167.108 Q 118.892 168.349, 118.892 170.728 Q 118.892 173.176, 119.906 174.435 Q 120.938 175.694, 122.931 175.694 Q 124.295 175.694, 125.887 174.872 L 126.376 176.184 Q 125.729 176.604, 124.75 176.848 Q 123.771 177.093, 122.686 177.093 Q 119.993 177.093, 118.542 175.449 Q 117.108 173.806, 117.108 170.728 " fill="#000000"/>
<path class="atom-17" d="M 127.968 174.89 L 129.717 174.89 L 129.717 176.639 L 127.968 176.639 L 127.968 174.89 M 127.968 168.874 L 129.717 168.874 L 129.717 170.623 L 127.968 170.623 L 127.968 168.874 " fill="#000000"/>
<path class="atom-17" d="M 131.343 175.537 L 134.054 175.537 L 134.054 166.286 L 131.063 167.213 L 130.661 166.181 L 134.456 164.485 L 135.697 164.694 L 135.697 175.537 L 138.128 175.537 L 138.128 176.936 L 131.343 176.936 L 131.343 175.537 " fill="#000000"/>
<path class="atom-17" d="M 145.526 170.378 Q 146.662 170.868, 147.309 171.602 Q 147.956 172.319, 147.956 173.543 Q 147.956 174.593, 147.414 175.414 Q 146.872 176.219, 145.893 176.674 Q 144.931 177.111, 143.654 177.111 Q 141.591 177.111, 140.402 176.166 Q 139.212 175.205, 139.212 173.543 Q 139.212 172.529, 139.737 171.777 Q 140.262 171.008, 141.346 170.43 Q 140.542 169.976, 140.104 169.311 Q 139.667 168.629, 139.667 167.58 Q 139.667 166.128, 140.716 165.272 Q 141.783 164.415, 143.584 164.415 Q 145.386 164.415, 146.435 165.272 Q 147.502 166.128, 147.502 167.58 Q 147.502 168.489, 146.995 169.171 Q 146.505 169.836, 145.526 170.378 M 143.584 165.726 Q 142.553 165.726, 141.976 166.216 Q 141.416 166.706, 141.416 167.58 Q 141.416 168.227, 141.801 168.664 Q 142.185 169.084, 142.728 169.329 Q 143.287 169.574, 144.354 169.941 Q 145.106 169.416, 145.421 168.857 Q 145.753 168.297, 145.753 167.58 Q 145.753 166.706, 145.176 166.216 Q 144.616 165.726, 143.584 165.726 M 143.654 175.799 Q 144.809 175.799, 145.508 175.187 Q 146.208 174.558, 146.208 173.526 Q 146.208 172.861, 145.84 172.442 Q 145.473 172.022, 144.914 171.777 Q 144.371 171.532, 143.392 171.217 L 142.605 170.955 Q 141.731 171.48, 141.346 172.109 Q 140.961 172.721, 140.961 173.526 Q 140.961 174.558, 141.696 175.187 Q 142.43 175.799, 143.654 175.799 " fill="#000000"/>
<path class="atom-18" d="M 129.754 245.404 Q 129.754 242.326, 131.188 240.717 Q 132.639 239.091, 135.385 239.091 Q 137.938 239.091, 139.302 240.892 L 138.148 241.837 Q 137.151 240.525, 135.385 240.525 Q 133.514 240.525, 132.517 241.784 Q 131.537 243.026, 131.537 245.404 Q 131.537 247.853, 132.552 249.112 Q 133.583 250.371, 135.577 250.371 Q 136.941 250.371, 138.533 249.549 L 139.022 250.86 Q 138.375 251.28, 137.396 251.525 Q 136.417 251.77, 135.332 251.77 Q 132.639 251.77, 131.188 250.126 Q 129.754 248.482, 129.754 245.404 " fill="#000000"/>
<path class="atom-18" d="M 140.614 249.566 L 142.362 249.566 L 142.362 251.315 L 140.614 251.315 L 140.614 249.566 M 140.614 243.55 L 142.362 243.55 L 142.362 245.299 L 140.614 245.299 L 140.614 243.55 " fill="#000000"/>
<path class="atom-18" d="M 143.989 250.213 L 146.699 250.213 L 146.699 240.962 L 143.709 241.889 L 143.307 240.857 L 147.102 239.161 L 148.343 239.371 L 148.343 250.213 L 150.774 250.213 L 150.774 251.612 L 143.989 251.612 L 143.989 250.213 " fill="#000000"/>
<path class="atom-18" d="M 155.898 239.091 Q 158.102 239.091, 159.203 240.595 Q 160.322 242.082, 160.322 245.054 Q 160.322 248.342, 158.941 250.056 Q 157.577 251.752, 154.936 251.752 Q 154.167 251.752, 153.502 251.577 Q 152.855 251.403, 152.226 251.035 L 152.908 249.864 Q 153.817 250.353, 154.919 250.353 Q 156.667 250.353, 157.559 249.234 Q 158.451 248.097, 158.556 245.771 Q 157.927 246.349, 157.122 246.663 Q 156.335 246.961, 155.478 246.961 Q 154.394 246.961, 153.537 246.488 Q 152.68 246.016, 152.208 245.159 Q 151.736 244.302, 151.736 243.218 Q 151.736 242.012, 152.261 241.085 Q 152.803 240.14, 153.747 239.616 Q 154.691 239.091, 155.898 239.091 M 153.485 243.201 Q 153.485 244.302, 154.097 244.932 Q 154.709 245.562, 155.793 245.562 Q 156.545 245.562, 157.28 245.264 Q 158.032 244.95, 158.556 244.425 Q 158.486 242.379, 157.839 241.452 Q 157.192 240.525, 155.881 240.525 Q 155.216 240.525, 154.656 240.875 Q 154.114 241.225, 153.799 241.837 Q 153.485 242.449, 153.485 243.201 " fill="#000000"/>
<path class="atom-19" d="M 101.221 211.691 Q 101.221 208.613, 102.655 207.004 Q 104.106 205.378, 106.852 205.378 Q 109.405 205.378, 110.769 207.179 L 109.615 208.123 Q 108.618 206.812, 106.852 206.812 Q 104.981 206.812, 103.984 208.071 Q 103.005 209.312, 103.005 211.691 Q 103.005 214.139, 104.019 215.398 Q 105.051 216.657, 107.044 216.657 Q 108.408 216.657, 110 215.835 L 110.49 217.147 Q 109.842 217.567, 108.863 217.811 Q 107.884 218.056, 106.8 218.056 Q 104.106 218.056, 102.655 216.412 Q 101.221 214.769, 101.221 211.691 " fill="#000000"/>
<path class="atom-19" d="M 112.081 215.853 L 113.83 215.853 L 113.83 217.602 L 112.081 217.602 L 112.081 215.853 M 112.081 209.837 L 113.83 209.837 L 113.83 211.586 L 112.081 211.586 L 112.081 209.837 " fill="#000000"/>
<path class="atom-19" d="M 114.739 207.861 Q 115.194 206.689, 116.278 206.042 Q 117.362 205.378, 118.866 205.378 Q 120.737 205.378, 121.787 206.392 Q 122.836 207.406, 122.836 209.207 Q 122.836 211.044, 121.472 212.757 Q 120.125 214.471, 117.327 216.5 L 123.046 216.5 L 123.046 217.899 L 114.704 217.899 L 114.704 216.727 Q 117.013 215.083, 118.377 213.859 Q 119.758 212.635, 120.423 211.533 Q 121.087 210.432, 121.087 209.295 Q 121.087 208.106, 120.493 207.441 Q 119.898 206.777, 118.866 206.777 Q 117.869 206.777, 117.205 207.179 Q 116.54 207.581, 116.068 208.473 L 114.739 207.861 " fill="#000000"/>
<path class="atom-19" d="M 128.642 218.039 Q 126.369 218.039, 125.232 216.36 Q 124.113 214.681, 124.113 211.691 Q 124.113 208.7, 125.232 207.039 Q 126.351 205.378, 128.642 205.378 Q 130.933 205.378, 132.052 207.039 Q 133.171 208.7, 133.171 211.691 Q 133.171 214.681, 132.035 216.36 Q 130.915 218.039, 128.642 218.039 M 128.642 216.64 Q 129.989 216.64, 130.706 215.398 Q 131.423 214.139, 131.423 211.691 Q 131.423 209.26, 130.706 208.018 Q 129.989 206.777, 128.642 206.777 Q 127.313 206.777, 126.578 208.018 Q 125.861 209.26, 125.861 211.691 Q 125.861 214.139, 126.578 215.398 Q 127.313 216.64, 128.642 216.64 " fill="#000000"/>
<path class="atom-20" d="M 189.796 116.342 L 191.474 116.342 L 191.474 121.606 L 197.805 121.606 L 197.805 116.342 L 199.484 116.342 L 199.484 128.724 L 197.805 128.724 L 197.805 123.005 L 191.474 123.005 L 191.474 128.724 L 189.796 128.724 L 189.796 116.342 " fill="#000000"/>
<path class="atom-20" d="M 200.795 126.678 L 202.544 126.678 L 202.544 128.426 L 200.795 128.426 L 200.795 126.678 M 200.795 120.662 L 202.544 120.662 L 202.544 122.411 L 200.795 122.411 L 200.795 120.662 " fill="#000000"/>
<path class="atom-20" d="M 203.454 118.686 Q 203.908 117.514, 204.993 116.867 Q 206.077 116.202, 207.581 116.202 Q 209.452 116.202, 210.501 117.217 Q 211.55 118.231, 211.55 120.032 Q 211.55 121.868, 210.186 123.582 Q 208.84 125.296, 206.042 127.325 L 211.76 127.325 L 211.76 128.724 L 203.419 128.724 L 203.419 127.552 Q 205.727 125.908, 207.091 124.684 Q 208.473 123.46, 209.137 122.358 Q 209.802 121.256, 209.802 120.12 Q 209.802 118.93, 209.207 118.266 Q 208.612 117.601, 207.581 117.601 Q 206.584 117.601, 205.919 118.004 Q 205.255 118.406, 204.783 119.298 L 203.454 118.686 " fill="#000000"/>
<path class="atom-20" d="M 213.387 127.325 L 216.097 127.325 L 216.097 118.074 L 213.107 119 L 212.705 117.969 L 216.5 116.272 L 217.741 116.482 L 217.741 127.325 L 220.172 127.325 L 220.172 128.724 L 213.387 128.724 L 213.387 127.325 " fill="#000000"/>
<path class="atom-21" d="M 197.091 252.945 L 198.769 252.945 L 198.769 258.209 L 205.1 258.209 L 205.1 252.945 L 206.779 252.945 L 206.779 265.327 L 205.1 265.327 L 205.1 259.608 L 198.769 259.608 L 198.769 265.327 L 197.091 265.327 L 197.091 252.945 " fill="#000000"/>
<path class="atom-21" d="M 208.09 263.281 L 209.839 263.281 L 209.839 265.03 L 208.09 265.03 L 208.09 263.281 M 208.09 257.265 L 209.839 257.265 L 209.839 259.014 L 208.09 259.014 L 208.09 257.265 " fill="#000000"/>
<path class="atom-21" d="M 210.749 255.289 Q 211.203 254.117, 212.287 253.47 Q 213.372 252.806, 214.876 252.806 Q 216.747 252.806, 217.796 253.82 Q 218.845 254.834, 218.845 256.635 Q 218.845 258.472, 217.481 260.185 Q 216.135 261.899, 213.337 263.928 L 219.055 263.928 L 219.055 265.327 L 210.714 265.327 L 210.714 264.155 Q 213.022 262.511, 214.386 261.287 Q 215.768 260.063, 216.432 258.961 Q 217.097 257.86, 217.097 256.723 Q 217.097 255.534, 216.502 254.869 Q 215.907 254.205, 214.876 254.205 Q 213.879 254.205, 213.214 254.607 Q 212.55 255.009, 212.078 255.901 L 210.749 255.289 " fill="#000000"/>
<path class="atom-21" d="M 219.965 255.289 Q 220.419 254.117, 221.504 253.47 Q 222.588 252.806, 224.092 252.806 Q 225.963 252.806, 227.012 253.82 Q 228.062 254.834, 228.062 256.635 Q 228.062 258.472, 226.698 260.185 Q 225.351 261.899, 222.553 263.928 L 228.271 263.928 L 228.271 265.327 L 219.93 265.327 L 219.93 264.155 Q 222.238 262.511, 223.602 261.287 Q 224.984 260.063, 225.648 258.961 Q 226.313 257.86, 226.313 256.723 Q 226.313 255.534, 225.718 254.869 Q 225.124 254.205, 224.092 254.205 Q 223.095 254.205, 222.43 254.607 Q 221.766 255.009, 221.294 255.901 L 219.965 255.289 " fill="#000000"/>
<path class="atom-22" d="M 155.573 338.001 L 157.252 338.001 L 157.252 343.264 L 163.583 343.264 L 163.583 338.001 L 165.261 338.001 L 165.261 350.382 L 163.583 350.382 L 163.583 344.663 L 157.252 344.663 L 157.252 350.382 L 155.573 350.382 L 155.573 338.001 " fill="#000000"/>
<path class="atom-22" d="M 166.573 348.336 L 168.322 348.336 L 168.322 350.085 L 166.573 350.085 L 166.573 348.336 M 166.573 342.32 L 168.322 342.32 L 168.322 344.069 L 166.573 344.069 L 166.573 342.32 " fill="#000000"/>
<path class="atom-22" d="M 169.231 340.344 Q 169.686 339.172, 170.77 338.525 Q 171.854 337.861, 173.358 337.861 Q 175.23 337.861, 176.279 338.875 Q 177.328 339.889, 177.328 341.691 Q 177.328 343.527, 175.964 345.241 Q 174.618 346.954, 171.819 348.983 L 177.538 348.983 L 177.538 350.382 L 169.196 350.382 L 169.196 349.21 Q 171.505 347.566, 172.869 346.342 Q 174.25 345.118, 174.915 344.016 Q 175.579 342.915, 175.579 341.778 Q 175.579 340.589, 174.985 339.924 Q 174.39 339.26, 173.358 339.26 Q 172.362 339.26, 171.697 339.662 Q 171.032 340.064, 170.56 340.956 L 169.231 340.344 " fill="#000000"/>
<path class="atom-22" d="M 184.218 343.859 Q 185.425 344.209, 186.002 344.996 Q 186.597 345.765, 186.597 346.989 Q 186.597 348.039, 186.072 348.861 Q 185.547 349.665, 184.586 350.12 Q 183.624 350.557, 182.365 350.557 Q 181.036 350.557, 180.039 350.102 Q 179.059 349.63, 178.272 348.686 L 179.269 347.671 Q 180.039 348.511, 180.686 348.843 Q 181.333 349.158, 182.365 349.158 Q 183.484 349.158, 184.166 348.563 Q 184.848 347.951, 184.848 346.972 Q 184.848 345.713, 184.131 345.153 Q 183.431 344.576, 181.91 344.576 L 181.018 344.576 L 181.018 343.317 L 181.805 343.317 Q 183.152 343.299, 183.869 342.722 Q 184.586 342.128, 184.586 341.026 Q 184.586 340.222, 183.991 339.749 Q 183.396 339.26, 182.382 339.26 Q 181.35 339.26, 180.703 339.627 Q 180.074 339.994, 179.584 340.921 L 178.377 340.274 Q 178.815 339.242, 179.864 338.56 Q 180.913 337.861, 182.382 337.861 Q 184.201 337.861, 185.268 338.718 Q 186.334 339.574, 186.334 341.026 Q 186.334 342.023, 185.792 342.74 Q 185.25 343.457, 184.218 343.859 " fill="#000000"/>
<path class="atom-23" d="M 152.014 258.221 Q 152.014 255.248, 153.483 253.586 Q 154.952 251.925, 157.698 251.925 Q 160.443 251.925, 161.912 253.586 Q 163.381 255.248, 163.381 258.221 Q 163.381 261.229, 161.895 262.942 Q 160.408 264.639, 157.698 264.639 Q 154.97 264.639, 153.483 262.942 Q 152.014 261.246, 152.014 258.221 M 157.698 263.24 Q 159.586 263.24, 160.601 261.981 Q 161.632 260.704, 161.632 258.221 Q 161.632 255.79, 160.601 254.566 Q 159.586 253.324, 157.698 253.324 Q 155.809 253.324, 154.777 254.548 Q 153.763 255.772, 153.763 258.221 Q 153.763 260.721, 154.777 261.981 Q 155.809 263.24, 157.698 263.24 " fill="#FF0000"/>
<path class="atom-23" d="M 164.693 262.4 L 166.442 262.4 L 166.442 264.149 L 164.693 264.149 L 164.693 262.4 M 164.693 256.384 L 166.442 256.384 L 166.442 258.133 L 164.693 258.133 L 164.693 256.384 " fill="#FF0000"/>
<path class="atom-23" d="M 167.351 254.408 Q 167.806 253.237, 168.89 252.59 Q 169.974 251.925, 171.478 251.925 Q 173.349 251.925, 174.399 252.939 Q 175.448 253.954, 175.448 255.755 Q 175.448 257.591, 174.084 259.305 Q 172.737 261.019, 169.939 263.047 L 175.658 263.047 L 175.658 264.446 L 167.316 264.446 L 167.316 263.275 Q 169.624 261.631, 170.988 260.407 Q 172.37 259.183, 173.035 258.081 Q 173.699 256.979, 173.699 255.842 Q 173.699 254.653, 173.105 253.989 Q 172.51 253.324, 171.478 253.324 Q 170.481 253.324, 169.817 253.726 Q 169.152 254.129, 168.68 255.02 L 167.351 254.408 " fill="#FF0000"/>
<path class="atom-23" d="M 184.227 260.197 L 185.713 260.197 L 185.713 261.596 L 184.227 261.596 L 184.227 264.446 L 182.583 264.446 L 182.583 261.596 L 176.182 261.596 L 176.182 260.494 L 181.604 252.065 L 184.227 252.065 L 184.227 260.197 M 178.211 260.197 L 182.583 260.197 L 182.583 253.184 L 178.211 260.197 " fill="#FF0000"/>
<path class="atom-24" d="M 334.08 286.467 L 335.758 286.467 L 335.758 291.731 L 342.089 291.731 L 342.089 286.467 L 343.768 286.467 L 343.768 298.848 L 342.089 298.848 L 342.089 293.13 L 335.758 293.13 L 335.758 298.848 L 334.08 298.848 L 334.08 286.467 " fill="#000000"/>
<path class="atom-24" d="M 345.079 296.802 L 346.828 296.802 L 346.828 298.551 L 345.079 298.551 L 345.079 296.802 M 345.079 290.787 L 346.828 290.787 L 346.828 292.535 L 345.079 292.535 L 345.079 290.787 " fill="#000000"/>
<path class="atom-24" d="M 347.738 288.81 Q 348.192 287.639, 349.276 286.992 Q 350.361 286.327, 351.865 286.327 Q 353.736 286.327, 354.785 287.341 Q 355.834 288.356, 355.834 290.157 Q 355.834 291.993, 354.47 293.707 Q 353.124 295.421, 350.326 297.449 L 356.044 297.449 L 356.044 298.848 L 347.703 298.848 L 347.703 297.677 Q 350.011 296.033, 351.375 294.809 Q 352.757 293.585, 353.421 292.483 Q 354.086 291.381, 354.086 290.244 Q 354.086 289.055, 353.491 288.391 Q 352.896 287.726, 351.865 287.726 Q 350.868 287.726, 350.203 288.128 Q 349.539 288.531, 349.067 289.422 L 347.738 288.81 " fill="#000000"/>
<path class="atom-24" d="M 361.343 291.101 Q 362.427 291.101, 363.319 291.574 Q 364.211 292.028, 364.718 292.903 Q 365.225 293.759, 365.225 294.931 Q 365.225 296.208, 364.596 297.135 Q 363.984 298.044, 362.97 298.516 Q 361.955 298.988, 360.801 298.988 Q 359.664 298.988, 358.615 298.569 Q 357.566 298.149, 356.849 297.345 L 357.898 296.26 Q 358.475 296.89, 359.262 297.24 Q 360.049 297.572, 360.853 297.572 Q 361.955 297.572, 362.707 296.89 Q 363.477 296.208, 363.477 294.966 Q 363.477 293.655, 362.707 293.042 Q 361.955 292.413, 360.749 292.413 Q 359.664 292.413, 358.458 292.885 L 357.496 292.43 L 358.09 286.467 L 364.456 286.467 L 364.281 287.866 L 359.524 287.866 L 359.157 291.539 Q 360.259 291.101, 361.343 291.101 " fill="#000000"/>
<path class="atom-25" d="M 281.257 135.557 L 282.936 135.557 L 282.936 140.821 L 289.266 140.821 L 289.266 135.557 L 290.945 135.557 L 290.945 147.939 L 289.266 147.939 L 289.266 142.22 L 282.936 142.22 L 282.936 147.939 L 281.257 147.939 L 281.257 135.557 " fill="#000000"/>
<path class="atom-25" d="M 292.257 145.892 L 294.005 145.892 L 294.005 147.641 L 292.257 147.641 L 292.257 145.892 M 292.257 139.877 L 294.005 139.877 L 294.005 141.625 L 292.257 141.625 L 292.257 139.877 " fill="#000000"/>
<path class="atom-25" d="M 294.915 137.9 Q 295.37 136.729, 296.454 136.082 Q 297.538 135.417, 299.042 135.417 Q 300.913 135.417, 301.962 136.431 Q 303.012 137.446, 303.012 139.247 Q 303.012 141.083, 301.648 142.797 Q 300.301 144.511, 297.503 146.539 L 303.222 146.539 L 303.222 147.939 L 294.88 147.939 L 294.88 146.767 Q 297.188 145.123, 298.552 143.899 Q 299.934 142.675, 300.598 141.573 Q 301.263 140.471, 301.263 139.334 Q 301.263 138.145, 300.668 137.481 Q 300.074 136.816, 299.042 136.816 Q 298.045 136.816, 297.381 137.218 Q 296.716 137.621, 296.244 138.513 L 294.915 137.9 " fill="#000000"/>
<path class="atom-25" d="M 309.255 140.209 Q 310.339 140.209, 311.196 140.681 Q 312.053 141.153, 312.525 142.01 Q 312.997 142.867, 312.997 143.951 Q 312.997 145.158, 312.455 146.102 Q 311.931 147.029, 310.986 147.554 Q 310.042 148.078, 308.835 148.078 Q 306.632 148.078, 305.512 146.592 Q 304.411 145.088, 304.411 142.115 Q 304.411 138.827, 305.775 137.131 Q 307.156 135.417, 309.797 135.417 Q 310.566 135.417, 311.214 135.592 Q 311.878 135.767, 312.508 136.134 L 311.826 137.306 Q 310.916 136.816, 309.814 136.816 Q 308.066 136.816, 307.174 137.953 Q 306.282 139.072, 306.177 141.398 Q 306.807 140.821, 307.594 140.524 Q 308.398 140.209, 309.255 140.209 M 308.853 146.644 Q 309.517 146.644, 310.059 146.295 Q 310.619 145.945, 310.934 145.333 Q 311.248 144.721, 311.248 143.969 Q 311.248 142.867, 310.636 142.237 Q 310.024 141.608, 308.94 141.608 Q 308.188 141.608, 307.436 141.923 Q 306.702 142.22, 306.177 142.745 Q 306.247 144.791, 306.894 145.718 Q 307.541 146.644, 308.853 146.644 " fill="#000000"/>
<path class="atom-26" d="M 415.201 270.411 L 416.88 270.411 L 416.88 275.675 L 423.211 275.675 L 423.211 270.411 L 424.89 270.411 L 424.89 282.793 L 423.211 282.793 L 423.211 277.074 L 416.88 277.074 L 416.88 282.793 L 415.201 282.793 L 415.201 270.411 " fill="#000000"/>
<path class="atom-26" d="M 426.201 280.747 L 427.95 280.747 L 427.95 282.495 L 426.201 282.495 L 426.201 280.747 M 426.201 274.731 L 427.95 274.731 L 427.95 276.48 L 426.201 276.48 L 426.201 274.731 " fill="#000000"/>
<path class="atom-26" d="M 428.859 272.755 Q 429.314 271.583, 430.398 270.936 Q 431.483 270.271, 432.987 270.271 Q 434.858 270.271, 435.907 271.286 Q 436.956 272.3, 436.956 274.101 Q 436.956 275.938, 435.592 277.651 Q 434.246 279.365, 431.448 281.394 L 437.166 281.394 L 437.166 282.793 L 428.824 282.793 L 428.824 281.621 Q 431.133 279.977, 432.497 278.753 Q 433.878 277.529, 434.543 276.427 Q 435.207 275.325, 435.207 274.189 Q 435.207 273, 434.613 272.335 Q 434.018 271.67, 432.987 271.67 Q 431.99 271.67, 431.325 272.073 Q 430.661 272.475, 430.188 273.367 L 428.859 272.755 " fill="#000000"/>
<path class="atom-26" d="M 443.969 271.81 L 437.481 271.81 L 437.481 270.411 L 445.7 270.411 L 445.7 271.653 L 440.699 282.793 L 439.02 282.793 L 443.969 271.81 " fill="#000000"/>
<path class="atom-27" d="M 390.089 121.058 L 391.768 121.058 L 391.768 126.322 L 398.098 126.322 L 398.098 121.058 L 399.777 121.058 L 399.777 133.44 L 398.098 133.44 L 398.098 127.721 L 391.768 127.721 L 391.768 133.44 L 390.089 133.44 L 390.089 121.058 " fill="#000000"/>
<path class="atom-27" d="M 401.089 131.394 L 402.837 131.394 L 402.837 133.143 L 401.089 133.143 L 401.089 131.394 M 401.089 125.378 L 402.837 125.378 L 402.837 127.127 L 401.089 127.127 L 401.089 125.378 " fill="#000000"/>
<path class="atom-27" d="M 403.747 123.402 Q 404.202 122.23, 405.286 121.583 Q 406.37 120.918, 407.874 120.918 Q 409.745 120.918, 410.794 121.933 Q 411.844 122.947, 411.844 124.748 Q 411.844 126.585, 410.48 128.298 Q 409.133 130.012, 406.335 132.041 L 412.054 132.041 L 412.054 133.44 L 403.712 133.44 L 403.712 132.268 Q 406.02 130.624, 407.384 129.4 Q 408.766 128.176, 409.43 127.074 Q 410.095 125.972, 410.095 124.836 Q 410.095 123.647, 409.5 122.982 Q 408.906 122.318, 407.874 122.318 Q 406.877 122.318, 406.213 122.72 Q 405.548 123.122, 405.076 124.014 L 403.747 123.402 " fill="#000000"/>
<path class="atom-27" d="M 419.451 126.882 Q 420.588 127.372, 421.235 128.106 Q 421.882 128.823, 421.882 130.047 Q 421.882 131.096, 421.34 131.918 Q 420.798 132.723, 419.818 133.177 Q 418.856 133.615, 417.58 133.615 Q 415.516 133.615, 414.327 132.67 Q 413.138 131.708, 413.138 130.047 Q 413.138 129.033, 413.662 128.281 Q 414.187 127.511, 415.271 126.934 Q 414.467 126.48, 414.03 125.815 Q 413.593 125.133, 413.593 124.084 Q 413.593 122.632, 414.642 121.775 Q 415.709 120.918, 417.51 120.918 Q 419.311 120.918, 420.36 121.775 Q 421.427 122.632, 421.427 124.084 Q 421.427 124.993, 420.92 125.675 Q 420.43 126.34, 419.451 126.882 M 417.51 122.23 Q 416.478 122.23, 415.901 122.72 Q 415.341 123.209, 415.341 124.084 Q 415.341 124.731, 415.726 125.168 Q 416.111 125.588, 416.653 125.833 Q 417.213 126.077, 418.279 126.445 Q 419.031 125.92, 419.346 125.36 Q 419.678 124.801, 419.678 124.084 Q 419.678 123.209, 419.101 122.72 Q 418.542 122.23, 417.51 122.23 M 417.58 132.303 Q 418.734 132.303, 419.433 131.691 Q 420.133 131.061, 420.133 130.03 Q 420.133 129.365, 419.766 128.945 Q 419.399 128.526, 418.839 128.281 Q 418.297 128.036, 417.317 127.721 L 416.531 127.459 Q 415.656 127.984, 415.271 128.613 Q 414.887 129.225, 414.887 130.03 Q 414.887 131.061, 415.621 131.691 Q 416.356 132.303, 417.58 132.303 " fill="#000000"/>
<path class="atom-28" d="M 445.76 188.486 L 447.438 188.486 L 447.438 193.749 L 453.769 193.749 L 453.769 188.486 L 455.448 188.486 L 455.448 200.867 L 453.769 200.867 L 453.769 195.148 L 447.438 195.148 L 447.438 200.867 L 445.76 200.867 L 445.76 188.486 " fill="#000000"/>
<path class="atom-28" d="M 456.759 198.821 L 458.508 198.821 L 458.508 200.57 L 456.759 200.57 L 456.759 198.821 M 456.759 192.805 L 458.508 192.805 L 458.508 194.554 L 456.759 194.554 L 456.759 192.805 " fill="#000000"/>
<path class="atom-28" d="M 459.418 190.829 Q 459.872 189.657, 460.957 189.01 Q 462.041 188.346, 463.545 188.346 Q 465.416 188.346, 466.465 189.36 Q 467.514 190.374, 467.514 192.175 Q 467.514 194.012, 466.15 195.725 Q 464.804 197.439, 462.006 199.468 L 467.724 199.468 L 467.724 200.867 L 459.383 200.867 L 459.383 199.695 Q 461.691 198.051, 463.055 196.827 Q 464.437 195.603, 465.101 194.501 Q 465.766 193.4, 465.766 192.263 Q 465.766 191.074, 465.171 190.409 Q 464.577 189.745, 463.545 189.745 Q 462.548 189.745, 461.883 190.147 Q 461.219 190.549, 460.747 191.441 L 459.418 190.829 " fill="#000000"/>
<path class="atom-28" d="M 472.848 188.346 Q 475.052 188.346, 476.154 189.85 Q 477.273 191.336, 477.273 194.309 Q 477.273 197.597, 475.891 199.31 Q 474.527 201.007, 471.886 201.007 Q 471.117 201.007, 470.452 200.832 Q 469.805 200.657, 469.176 200.29 L 469.858 199.118 Q 470.767 199.608, 471.869 199.608 Q 473.618 199.608, 474.51 198.489 Q 475.402 197.352, 475.506 195.026 Q 474.877 195.603, 474.072 195.918 Q 473.285 196.215, 472.429 196.215 Q 471.344 196.215, 470.487 195.743 Q 469.631 195.271, 469.158 194.414 Q 468.686 193.557, 468.686 192.473 Q 468.686 191.266, 469.211 190.339 Q 469.753 189.395, 470.697 188.87 Q 471.642 188.346, 472.848 188.346 M 470.435 192.455 Q 470.435 193.557, 471.047 194.187 Q 471.659 194.816, 472.743 194.816 Q 473.495 194.816, 474.23 194.519 Q 474.982 194.204, 475.506 193.679 Q 475.437 191.633, 474.789 190.706 Q 474.142 189.78, 472.831 189.78 Q 472.166 189.78, 471.607 190.129 Q 471.065 190.479, 470.75 191.091 Q 470.435 191.703, 470.435 192.455 " fill="#000000"/>
<path class="atom-29" d="M 81.0072 130.841 L 82.686 130.841 L 82.686 136.105 L 89.0167 136.105 L 89.0167 130.841 L 90.6955 130.841 L 90.6955 143.222 L 89.0167 143.222 L 89.0167 137.504 L 82.686 137.504 L 82.686 143.222 L 81.0072 143.222 L 81.0072 130.841 " fill="#000000"/>
<path class="atom-29" d="M 92.0071 141.176 L 93.7559 141.176 L 93.7559 142.925 L 92.0071 142.925 L 92.0071 141.176 M 92.0071 135.16 L 93.7559 135.16 L 93.7559 136.909 L 92.0071 136.909 L 92.0071 135.16 " fill="#000000"/>
<path class="atom-29" d="M 100.436 136.699 Q 101.643 137.049, 102.22 137.836 Q 102.815 138.606, 102.815 139.83 Q 102.815 140.879, 102.29 141.701 Q 101.765 142.505, 100.803 142.96 Q 99.8416 143.397, 98.5825 143.397 Q 97.2534 143.397, 96.2566 142.943 Q 95.2773 142.47, 94.4904 141.526 L 95.4872 140.512 Q 96.2566 141.351, 96.9037 141.683 Q 97.5507 141.998, 98.5825 141.998 Q 99.7017 141.998, 100.384 141.404 Q 101.066 140.792, 101.066 139.812 Q 101.066 138.553, 100.349 137.993 Q 99.6493 137.416, 98.1278 137.416 L 97.236 137.416 L 97.236 136.157 L 98.0229 136.157 Q 99.3695 136.14, 100.086 135.563 Q 100.803 134.968, 100.803 133.866 Q 100.803 133.062, 100.209 132.59 Q 99.6143 132.1, 98.6 132.1 Q 97.5682 132.1, 96.9212 132.467 Q 96.2916 132.835, 95.8019 133.761 L 94.5953 133.114 Q 95.0325 132.083, 96.0818 131.401 Q 97.131 130.701, 98.6 130.701 Q 100.419 130.701, 101.486 131.558 Q 102.552 132.415, 102.552 133.866 Q 102.552 134.863, 102.01 135.58 Q 101.468 136.297, 100.436 136.699 " fill="#000000"/>
<path class="atom-29" d="M 108.411 143.362 Q 106.137 143.362, 105.001 141.683 Q 103.881 140.005, 103.881 137.014 Q 103.881 134.024, 105.001 132.362 Q 106.12 130.701, 108.411 130.701 Q 110.702 130.701, 111.821 132.362 Q 112.94 134.024, 112.94 137.014 Q 112.94 140.005, 111.803 141.683 Q 110.684 143.362, 108.411 143.362 M 108.411 141.963 Q 109.757 141.963, 110.474 140.722 Q 111.191 139.462, 111.191 137.014 Q 111.191 134.583, 110.474 133.342 Q 109.757 132.1, 108.411 132.1 Q 107.082 132.1, 106.347 133.342 Q 105.63 134.583, 105.63 137.014 Q 105.63 139.462, 106.347 140.722 Q 107.082 141.963, 108.411 141.963 " fill="#000000"/>
<path class="atom-30" d="M 107.038 280.194 L 108.717 280.194 L 108.717 285.458 L 115.047 285.458 L 115.047 280.194 L 116.726 280.194 L 116.726 292.575 L 115.047 292.575 L 115.047 286.857 L 108.717 286.857 L 108.717 292.575 L 107.038 292.575 L 107.038 280.194 " fill="#000000"/>
<path class="atom-30" d="M 118.038 290.529 L 119.786 290.529 L 119.786 292.278 L 118.038 292.278 L 118.038 290.529 M 118.038 284.513 L 119.786 284.513 L 119.786 286.262 L 118.038 286.262 L 118.038 284.513 " fill="#000000"/>
<path class="atom-30" d="M 126.467 286.052 Q 127.674 286.402, 128.251 287.189 Q 128.845 287.959, 128.845 289.183 Q 128.845 290.232, 128.321 291.054 Q 127.796 291.858, 126.834 292.313 Q 125.872 292.75, 124.613 292.75 Q 123.284 292.75, 122.287 292.296 Q 121.308 291.823, 120.521 290.879 L 121.518 289.865 Q 122.287 290.704, 122.934 291.036 Q 123.581 291.351, 124.613 291.351 Q 125.732 291.351, 126.414 290.757 Q 127.096 290.144, 127.096 289.165 Q 127.096 287.906, 126.379 287.346 Q 125.68 286.769, 124.158 286.769 L 123.267 286.769 L 123.267 285.51 L 124.054 285.51 Q 125.4 285.493, 126.117 284.916 Q 126.834 284.321, 126.834 283.219 Q 126.834 282.415, 126.24 281.943 Q 125.645 281.453, 124.631 281.453 Q 123.599 281.453, 122.952 281.82 Q 122.322 282.188, 121.833 283.114 L 120.626 282.467 Q 121.063 281.436, 122.112 280.754 Q 123.162 280.054, 124.631 280.054 Q 126.449 280.054, 127.516 280.911 Q 128.583 281.768, 128.583 283.219 Q 128.583 284.216, 128.041 284.933 Q 127.499 285.65, 126.467 286.052 " fill="#000000"/>
<path class="atom-30" d="M 130.472 291.176 L 133.182 291.176 L 133.182 281.925 L 130.192 282.852 L 129.79 281.82 L 133.584 280.124 L 134.826 280.334 L 134.826 291.176 L 137.257 291.176 L 137.257 292.575 L 130.472 292.575 L 130.472 291.176 " fill="#000000"/>
<path class="atom-31" d="M 60.7799 212.767 L 64.8371 219.325 Q 65.2393 219.972, 65.8864 221.143 Q 66.5334 222.315, 66.5684 222.385 L 66.5684 212.767 L 68.2123 212.767 L 68.2123 225.148 L 66.516 225.148 L 62.1615 217.978 Q 61.6543 217.139, 61.1122 216.177 Q 60.5876 215.215, 60.4302 214.918 L 60.4302 225.148 L 58.8213 225.148 L 58.8213 212.767 L 60.7799 212.767 " fill="#0000FF"/>
<path class="atom-31" d="M 69.5239 223.102 L 71.2727 223.102 L 71.2727 224.851 L 69.5239 224.851 L 69.5239 223.102 M 69.5239 217.086 L 71.2727 217.086 L 71.2727 218.835 L 69.5239 218.835 L 69.5239 217.086 " fill="#0000FF"/>
<path class="atom-31" d="M 77.953 218.625 Q 79.1597 218.975, 79.7368 219.762 Q 80.3314 220.531, 80.3314 221.756 Q 80.3314 222.805, 79.8067 223.627 Q 79.2821 224.431, 78.3203 224.886 Q 77.3584 225.323, 76.0993 225.323 Q 74.7702 225.323, 73.7734 224.868 Q 72.7941 224.396, 72.0072 223.452 L 73.004 222.438 Q 73.7734 223.277, 74.4205 223.609 Q 75.0675 223.924, 76.0993 223.924 Q 77.2185 223.924, 77.9006 223.329 Q 78.5826 222.717, 78.5826 221.738 Q 78.5826 220.479, 77.8656 219.919 Q 77.1661 219.342, 75.6446 219.342 L 74.7527 219.342 L 74.7527 218.083 L 75.5397 218.083 Q 76.8863 218.066, 77.6033 217.489 Q 78.3203 216.894, 78.3203 215.792 Q 78.3203 214.988, 77.7257 214.516 Q 77.1311 214.026, 76.1168 214.026 Q 75.085 214.026, 74.438 214.393 Q 73.8084 214.76, 73.3187 215.687 L 72.1121 215.04 Q 72.5493 214.008, 73.5985 213.326 Q 74.6478 212.627, 76.1168 212.627 Q 77.9355 212.627, 79.0023 213.484 Q 80.0691 214.341, 80.0691 215.792 Q 80.0691 216.789, 79.5269 217.506 Q 78.9848 218.223, 77.953 218.625 " fill="#0000FF"/>
<path class="atom-31" d="M 81.2408 215.11 Q 81.6954 213.938, 82.7797 213.291 Q 83.8639 212.627, 85.3679 212.627 Q 87.2391 212.627, 88.2884 213.641 Q 89.3376 214.655, 89.3376 216.457 Q 89.3376 218.293, 87.9736 220.007 Q 86.627 221.721, 83.829 223.749 L 89.5475 223.749 L 89.5475 225.148 L 81.2058 225.148 L 81.2058 223.977 Q 83.5142 222.333, 84.8782 221.108 Q 86.2598 219.884, 86.9243 218.783 Q 87.5889 217.681, 87.5889 216.544 Q 87.5889 215.355, 86.9943 214.69 Q 86.3997 214.026, 85.3679 214.026 Q 84.3711 214.026, 83.7065 214.428 Q 83.042 214.83, 82.5698 215.722 L 81.2408 215.11 " fill="#0000FF"/>
<path class="atom-32" d="M 325.307 302.068 L 326.986 302.068 L 326.986 307.332 L 333.316 307.332 L 333.316 302.068 L 334.995 302.068 L 334.995 314.449 L 333.316 314.449 L 333.316 308.731 L 326.986 308.731 L 326.986 314.449 L 325.307 314.449 L 325.307 302.068 " fill="#000000"/>
<path class="atom-32" d="M 336.307 312.403 L 338.056 312.403 L 338.056 314.152 L 336.307 314.152 L 336.307 312.403 M 336.307 306.387 L 338.056 306.387 L 338.056 308.136 L 336.307 308.136 L 336.307 306.387 " fill="#000000"/>
<path class="atom-32" d="M 344.736 307.926 Q 345.943 308.276, 346.52 309.063 Q 347.114 309.832, 347.114 311.057 Q 347.114 312.106, 346.59 312.928 Q 346.065 313.732, 345.103 314.187 Q 344.141 314.624, 342.882 314.624 Q 341.553 314.624, 340.556 314.169 Q 339.577 313.697, 338.79 312.753 L 339.787 311.739 Q 340.556 312.578, 341.203 312.91 Q 341.85 313.225, 342.882 313.225 Q 344.001 313.225, 344.683 312.63 Q 345.365 312.018, 345.365 311.039 Q 345.365 309.78, 344.648 309.22 Q 343.949 308.643, 342.428 308.643 L 341.536 308.643 L 341.536 307.384 L 342.323 307.384 Q 343.669 307.367, 344.386 306.789 Q 345.103 306.195, 345.103 305.093 Q 345.103 304.289, 344.509 303.817 Q 343.914 303.327, 342.9 303.327 Q 341.868 303.327, 341.221 303.694 Q 340.591 304.061, 340.102 304.988 L 338.895 304.341 Q 339.332 303.309, 340.381 302.627 Q 341.431 301.928, 342.9 301.928 Q 344.718 301.928, 345.785 302.785 Q 346.852 303.642, 346.852 305.093 Q 346.852 306.09, 346.31 306.807 Q 345.768 307.524, 344.736 307.926 " fill="#000000"/>
<path class="atom-32" d="M 353.795 307.926 Q 355.001 308.276, 355.578 309.063 Q 356.173 309.832, 356.173 311.057 Q 356.173 312.106, 355.648 312.928 Q 355.124 313.732, 354.162 314.187 Q 353.2 314.624, 351.941 314.624 Q 350.612 314.624, 349.615 314.169 Q 348.636 313.697, 347.849 312.753 L 348.846 311.739 Q 349.615 312.578, 350.262 312.91 Q 350.909 313.225, 351.941 313.225 Q 353.06 313.225, 353.742 312.63 Q 354.424 312.018, 354.424 311.039 Q 354.424 309.78, 353.707 309.22 Q 353.008 308.643, 351.486 308.643 L 350.594 308.643 L 350.594 307.384 L 351.381 307.384 Q 352.728 307.367, 353.445 306.789 Q 354.162 306.195, 354.162 305.093 Q 354.162 304.289, 353.567 303.817 Q 352.973 303.327, 351.958 303.327 Q 350.927 303.327, 350.28 303.694 Q 349.65 304.061, 349.16 304.988 L 347.954 304.341 Q 348.391 303.309, 349.44 302.627 Q 350.489 301.928, 351.958 301.928 Q 353.777 301.928, 354.844 302.785 Q 355.911 303.642, 355.911 305.093 Q 355.911 306.09, 355.369 306.807 Q 354.826 307.524, 353.795 307.926 " fill="#000000"/>
<path class="atom-33" d="M 266.708 371.241 L 268.387 371.241 L 268.387 376.505 L 274.718 376.505 L 274.718 371.241 L 276.396 371.241 L 276.396 383.623 L 274.718 383.623 L 274.718 377.904 L 268.387 377.904 L 268.387 383.623 L 266.708 383.623 L 266.708 371.241 " fill="#000000"/>
<path class="atom-33" d="M 277.708 381.577 L 279.457 381.577 L 279.457 383.325 L 277.708 383.325 L 277.708 381.577 M 277.708 375.561 L 279.457 375.561 L 279.457 377.31 L 277.708 377.31 L 277.708 375.561 " fill="#000000"/>
<path class="atom-33" d="M 286.137 377.1 Q 287.344 377.45, 287.921 378.237 Q 288.516 379.006, 288.516 380.23 Q 288.516 381.279, 287.991 382.101 Q 287.466 382.906, 286.504 383.36 Q 285.543 383.798, 284.283 383.798 Q 282.954 383.798, 281.958 383.343 Q 280.978 382.871, 280.191 381.926 L 281.188 380.912 Q 281.958 381.752, 282.605 382.084 Q 283.252 382.399, 284.283 382.399 Q 285.403 382.399, 286.085 381.804 Q 286.767 381.192, 286.767 380.213 Q 286.767 378.954, 286.05 378.394 Q 285.35 377.817, 283.829 377.817 L 282.937 377.817 L 282.937 376.558 L 283.724 376.558 Q 285.07 376.54, 285.787 375.963 Q 286.504 375.369, 286.504 374.267 Q 286.504 373.462, 285.91 372.99 Q 285.315 372.5, 284.301 372.5 Q 283.269 372.5, 282.622 372.868 Q 281.993 373.235, 281.503 374.162 L 280.296 373.515 Q 280.733 372.483, 281.783 371.801 Q 282.832 371.101, 284.301 371.101 Q 286.12 371.101, 287.186 371.958 Q 288.253 372.815, 288.253 374.267 Q 288.253 375.264, 287.711 375.981 Q 287.169 376.698, 286.137 377.1 " fill="#000000"/>
<path class="atom-33" d="M 297.085 379.373 L 298.571 379.373 L 298.571 380.772 L 297.085 380.772 L 297.085 383.623 L 295.441 383.623 L 295.441 380.772 L 289.04 380.772 L 289.04 379.671 L 294.461 371.241 L 297.085 371.241 L 297.085 379.373 M 291.069 379.373 L 295.441 379.373 L 295.441 372.361 L 291.069 379.373 " fill="#000000"/>
<path class="atom-34" d="M 35.7732 253.73 L 37.452 253.73 L 37.452 258.994 L 43.7826 258.994 L 43.7826 253.73 L 45.4615 253.73 L 45.4615 266.111 L 43.7826 266.111 L 43.7826 260.393 L 37.452 260.393 L 37.452 266.111 L 35.7732 266.111 L 35.7732 253.73 " fill="#000000"/>
<path class="atom-34" d="M 46.7731 264.065 L 48.5218 264.065 L 48.5218 265.814 L 46.7731 265.814 L 46.7731 264.065 M 46.7731 258.049 L 48.5218 258.049 L 48.5218 259.798 L 46.7731 259.798 L 46.7731 258.049 " fill="#000000"/>
<path class="atom-34" d="M 55.2022 259.588 Q 56.4089 259.938, 56.986 260.725 Q 57.5806 261.494, 57.5806 262.718 Q 57.5806 263.768, 57.0559 264.59 Q 56.5313 265.394, 55.5695 265.849 Q 54.6076 266.286, 53.3485 266.286 Q 52.0194 266.286, 51.0226 265.831 Q 50.0433 265.359, 49.2563 264.415 L 50.2531 263.4 Q 51.0226 264.24, 51.6697 264.572 Q 52.3167 264.887, 53.3485 264.887 Q 54.4677 264.887, 55.1498 264.292 Q 55.8318 263.68, 55.8318 262.701 Q 55.8318 261.442, 55.1148 260.882 Q 54.4153 260.305, 52.8938 260.305 L 52.0019 260.305 L 52.0019 259.046 L 52.7889 259.046 Q 54.1355 259.029, 54.8525 258.451 Q 55.5695 257.857, 55.5695 256.755 Q 55.5695 255.951, 54.9749 255.478 Q 54.3803 254.989, 53.366 254.989 Q 52.3342 254.989, 51.6872 255.356 Q 51.0576 255.723, 50.5679 256.65 L 49.3613 256.003 Q 49.7985 254.971, 50.8477 254.289 Q 51.897 253.59, 53.366 253.59 Q 55.1847 253.59, 56.2515 254.447 Q 57.3182 255.304, 57.3182 256.755 Q 57.3182 257.752, 56.7761 258.469 Q 56.234 259.186, 55.2022 259.588 " fill="#000000"/>
<path class="atom-34" d="M 62.8794 258.364 Q 63.9636 258.364, 64.8555 258.836 Q 65.7474 259.291, 66.2546 260.165 Q 66.7617 261.022, 66.7617 262.194 Q 66.7617 263.47, 66.1321 264.397 Q 65.5201 265.307, 64.5058 265.779 Q 63.4915 266.251, 62.3373 266.251 Q 61.2006 266.251, 60.1513 265.831 Q 59.102 265.412, 58.385 264.607 L 59.4343 263.523 Q 60.0114 264.152, 60.7983 264.502 Q 61.5853 264.834, 62.3897 264.834 Q 63.4915 264.834, 64.2434 264.152 Q 65.0129 263.47, 65.0129 262.229 Q 65.0129 260.917, 64.2434 260.305 Q 63.4915 259.676, 62.2848 259.676 Q 61.2006 259.676, 59.9939 260.148 L 59.0321 259.693 L 59.6266 253.73 L 65.9922 253.73 L 65.8174 255.129 L 61.0607 255.129 L 60.6934 258.801 Q 61.7951 258.364, 62.8794 258.364 " fill="#000000"/>
<path class="atom-35" d="M 22.7273 179.053 L 24.4061 179.053 L 24.4061 184.317 L 30.7367 184.317 L 30.7367 179.053 L 32.4156 179.053 L 32.4156 191.435 L 30.7367 191.435 L 30.7367 185.716 L 24.4061 185.716 L 24.4061 191.435 L 22.7273 191.435 L 22.7273 179.053 " fill="#000000"/>
<path class="atom-35" d="M 33.7271 189.389 L 35.4759 189.389 L 35.4759 191.137 L 33.7271 191.137 L 33.7271 189.389 M 33.7271 183.373 L 35.4759 183.373 L 35.4759 185.122 L 33.7271 185.122 L 33.7271 183.373 " fill="#000000"/>
<path class="atom-35" d="M 42.1563 184.912 Q 43.363 185.261, 43.9401 186.048 Q 44.5347 186.818, 44.5347 188.042 Q 44.5347 189.091, 44.01 189.913 Q 43.4854 190.718, 42.5236 191.172 Q 41.5617 191.61, 40.3026 191.61 Q 38.9735 191.61, 37.9767 191.155 Q 36.9974 190.683, 36.2104 189.738 L 37.2072 188.724 Q 37.9767 189.563, 38.6238 189.896 Q 39.2708 190.21, 40.3026 190.21 Q 41.4218 190.21, 42.1038 189.616 Q 42.7859 189.004, 42.7859 188.024 Q 42.7859 186.765, 42.0689 186.206 Q 41.3694 185.629, 39.8479 185.629 L 38.956 185.629 L 38.956 184.37 L 39.743 184.37 Q 41.0895 184.352, 41.8065 183.775 Q 42.5236 183.18, 42.5236 182.079 Q 42.5236 181.274, 41.929 180.802 Q 41.3344 180.312, 40.3201 180.312 Q 39.2883 180.312, 38.6412 180.68 Q 38.0117 181.047, 37.522 181.974 L 36.3154 181.327 Q 36.7526 180.295, 37.8018 179.613 Q 38.8511 178.913, 40.3201 178.913 Q 42.1388 178.913, 43.2056 179.77 Q 44.2723 180.627, 44.2723 182.079 Q 44.2723 183.075, 43.7302 183.792 Q 43.1881 184.509, 42.1563 184.912 " fill="#000000"/>
<path class="atom-35" d="M 50.568 183.705 Q 51.6522 183.705, 52.5091 184.177 Q 53.366 184.649, 53.8382 185.506 Q 54.3104 186.363, 54.3104 187.447 Q 54.3104 188.654, 53.7683 189.598 Q 53.2436 190.525, 52.2993 191.05 Q 51.3549 191.575, 50.1483 191.575 Q 47.9448 191.575, 46.8256 190.088 Q 45.7238 188.584, 45.7238 185.611 Q 45.7238 182.323, 47.0879 180.627 Q 48.4694 178.913, 51.1101 178.913 Q 51.8796 178.913, 52.5266 179.088 Q 53.1912 179.263, 53.8207 179.63 L 53.1387 180.802 Q 52.2293 180.312, 51.1276 180.312 Q 49.3788 180.312, 48.4869 181.449 Q 47.595 182.568, 47.4901 184.894 Q 48.1197 184.317, 48.9066 184.02 Q 49.7111 183.705, 50.568 183.705 M 50.1658 190.141 Q 50.8303 190.141, 51.3724 189.791 Q 51.932 189.441, 52.2468 188.829 Q 52.5616 188.217, 52.5616 187.465 Q 52.5616 186.363, 51.9495 185.734 Q 51.3374 185.104, 50.2532 185.104 Q 49.5012 185.104, 48.7492 185.419 Q 48.0147 185.716, 47.4901 186.241 Q 47.5601 188.287, 48.2071 189.214 Q 48.8542 190.141, 50.1658 190.141 " fill="#000000"/>
<text x="228.7531678756123" y="193.51479149276201" font-size="12" font-family="Verdana" font-weight="bold" letter-spacing="0" text-anchor="start" fill="black" transform=" rotate(80.455454 228.753168 193.514791)">0.0484</text><text x="25" y="490" font-size="12" font-family="Verdana" font-weight="bold" letter-spacing="0" text-anchor="start" fill="black">[#6:1]1(:[#6:2](-[#7:3](/[#6:4](=[#6:7]2/[#6:9](=[#6:11](-[#7:8](-[#6:10]-2=[#8:24])-[H:23])-[H:34])-[H:33])-[#6:12]2:[#6:13](:[#6:15](:[#6:17](:[#6:16](:[#6:14]:2-[H:26])-[H:28])-[H:29])-[H:27])-[H:25])-[H:5]):[#6:6](:[#6:19](:[#6:20](:[#6:18]:1-[H:30])-[#7:32](-[H:35])-[H:36])-[H:31])-[H:22])-[H:21]</text></svg>
