<?xml version='1.0' encoding='ASCII' standalone='yes'?>
<svg xmlns="http://www.w3.org/2000/svg" xmlns:rdkit="http://www.rdkit.org/xml" xmlns:xlink="http://www.w3.org/1999/xlink" version="1.1" baseProfile="full" xml:space="preserve" width="500px" height="500px" viewBox="0 0 500 500">
<!-- END OF HEADER -->
<rect style="opacity:1.0;fill:#FFFFFF;stroke:none" width="500" height="500" x="0" y="0"> </rect>
<path d="M 206.791,197.115 L 249.926,189.862" style="fill:none;fill-rule:evenodd;stroke:#FF7F7F;stroke-width:9.3px;stroke-linecap:butt;stroke-linejoin:miter;stroke-opacity:1"/>
<path class="bond-0 atom-0 atom-17" d="M 185.635,239.084 L 161.031,243.221" style="fill:none;fill-rule:evenodd;stroke:#000000;stroke-width:2.0px;stroke-linecap:butt;stroke-linejoin:miter;stroke-opacity:1"/>
<path class="bond-0 atom-0 atom-17" d="M 180.494,231.078 L 163.271,233.973" style="fill:none;fill-rule:evenodd;stroke:#000000;stroke-width:2.0px;stroke-linecap:butt;stroke-linejoin:miter;stroke-opacity:1"/>
<path class="bond-1 atom-0 atom-20" d="M 194.851,245.099 L 198.416,252.56" style="fill:none;fill-rule:evenodd;stroke:#000000;stroke-width:2.0px;stroke-linecap:butt;stroke-linejoin:miter;stroke-opacity:1"/>
<path class="bond-2 atom-1 atom-0" d="M 204.158,204.175 L 194.179,230.928" style="fill:none;fill-rule:evenodd;stroke:#000000;stroke-width:2.0px;stroke-linecap:butt;stroke-linejoin:miter;stroke-opacity:1"/>
<path class="bond-3 atom-1 atom-16" d="M 200.717,189.758 L 184.82,170.504" style="fill:none;fill-rule:evenodd;stroke:#000000;stroke-width:2.0px;stroke-linecap:butt;stroke-linejoin:miter;stroke-opacity:1"/>
<path class="bond-3 atom-1 atom-16" d="M 191.587,192.44 L 180.459,178.962" style="fill:none;fill-rule:evenodd;stroke:#000000;stroke-width:2.0px;stroke-linecap:butt;stroke-linejoin:miter;stroke-opacity:1"/>
<path class="bond-5 atom-2 atom-1" d="M 234.487,192.458 L 224.588,194.123" style="fill:none;fill-rule:evenodd;stroke:#0000FF;stroke-width:2.0px;stroke-linecap:butt;stroke-linejoin:miter;stroke-opacity:1"/>
<path class="bond-5 atom-2 atom-1" d="M 224.588,194.123 L 214.689,195.787" style="fill:none;fill-rule:evenodd;stroke:#000000;stroke-width:2.0px;stroke-linecap:butt;stroke-linejoin:miter;stroke-opacity:1"/>
<path class="bond-4 atom-2 atom-3" d="M 256.144,197.394 L 264.023,206.936" style="fill:none;fill-rule:evenodd;stroke:#0000FF;stroke-width:2.0px;stroke-linecap:butt;stroke-linejoin:miter;stroke-opacity:1"/>
<path class="bond-4 atom-2 atom-3" d="M 264.023,206.936 L 271.901,216.479" style="fill:none;fill-rule:evenodd;stroke:#000000;stroke-width:2.0px;stroke-linecap:butt;stroke-linejoin:miter;stroke-opacity:1"/>
<path class="bond-6 atom-2 atom-4" d="M 252.67,182.505 L 257.618,169.238" style="fill:none;fill-rule:evenodd;stroke:#0000FF;stroke-width:2.0px;stroke-linecap:butt;stroke-linejoin:miter;stroke-opacity:1"/>
<path class="bond-6 atom-2 atom-4" d="M 257.618,169.238 L 262.567,155.971" style="fill:none;fill-rule:evenodd;stroke:#000000;stroke-width:2.0px;stroke-linecap:butt;stroke-linejoin:miter;stroke-opacity:1"/>
<path class="bond-7 atom-3 atom-10" d="M 286.523,222.12 L 301.403,219.618" style="fill:none;fill-rule:evenodd;stroke:#000000;stroke-width:2.0px;stroke-linecap:butt;stroke-linejoin:miter;stroke-opacity:1"/>
<path class="bond-9 atom-5 atom-3" d="M 265.232,257.216 L 275.103,230.752" style="fill:none;fill-rule:evenodd;stroke:#000000;stroke-width:2.0px;stroke-linecap:butt;stroke-linejoin:miter;stroke-opacity:1"/>
<path class="bond-9 atom-5 atom-3" d="M 274.909,256.304 L 281.819,237.779" style="fill:none;fill-rule:evenodd;stroke:#000000;stroke-width:2.0px;stroke-linecap:butt;stroke-linejoin:miter;stroke-opacity:1"/>
<path class="bond-8 atom-5 atom-7" d="M 267.47,272.088 L 281.929,293.897" style="fill:none;fill-rule:evenodd;stroke:#000000;stroke-width:2.0px;stroke-linecap:butt;stroke-linejoin:miter;stroke-opacity:1"/>
<path class="bond-10 atom-5 atom-8" d="M 256.618,266.206 L 228.685,273.976" style="fill:none;fill-rule:evenodd;stroke:#000000;stroke-width:2.0px;stroke-linecap:butt;stroke-linejoin:miter;stroke-opacity:1"/>
<path class="bond-11 atom-6 atom-8" d="M 218.786,312.708 L 219.41,298.159" style="fill:none;fill-rule:evenodd;stroke:#0000FF;stroke-width:2.0px;stroke-linecap:butt;stroke-linejoin:miter;stroke-opacity:1"/>
<path class="bond-11 atom-6 atom-8" d="M 219.41,298.159 L 220.034,283.61" style="fill:none;fill-rule:evenodd;stroke:#000000;stroke-width:2.0px;stroke-linecap:butt;stroke-linejoin:miter;stroke-opacity:1"/>
<path class="bond-12 atom-6 atom-9" d="M 223.679,321.936 L 231.891,325" style="fill:none;fill-rule:evenodd;stroke:#0000FF;stroke-width:2.0px;stroke-linecap:butt;stroke-linejoin:miter;stroke-opacity:1"/>
<path class="bond-12 atom-6 atom-9" d="M 231.891,325 L 240.104,328.063" style="fill:none;fill-rule:evenodd;stroke:#000000;stroke-width:2.0px;stroke-linecap:butt;stroke-linejoin:miter;stroke-opacity:1"/>
<path class="bond-13 atom-6 atom-21" d="M 207.483,327.282 L 197.219,334.087" style="fill:none;fill-rule:evenodd;stroke:#0000FF;stroke-width:2.0px;stroke-linecap:butt;stroke-linejoin:miter;stroke-opacity:1"/>
<path class="bond-13 atom-6 atom-21" d="M 197.219,334.087 L 186.955,340.892" style="fill:none;fill-rule:evenodd;stroke:#000000;stroke-width:2.0px;stroke-linecap:butt;stroke-linejoin:miter;stroke-opacity:1"/>
<path class="bond-14 atom-7 atom-9" d="M 280.788,308.42 L 265.111,328.16" style="fill:none;fill-rule:evenodd;stroke:#000000;stroke-width:2.0px;stroke-linecap:butt;stroke-linejoin:miter;stroke-opacity:1"/>
<path class="bond-14 atom-7 atom-9" d="M 271.586,305.94 L 260.612,319.758" style="fill:none;fill-rule:evenodd;stroke:#000000;stroke-width:2.0px;stroke-linecap:butt;stroke-linejoin:miter;stroke-opacity:1"/>
<path class="bond-15 atom-7 atom-32" d="M 305.422,304.154 L 324.339,307.305" style="fill:none;fill-rule:evenodd;stroke:#000000;stroke-width:2.0px;stroke-linecap:butt;stroke-linejoin:miter;stroke-opacity:1"/>
<path class="bond-16 atom-8 atom-22" d="M 206.294,265.099 L 196.729,260.75" style="fill:none;fill-rule:evenodd;stroke:#000000;stroke-width:2.0px;stroke-linecap:butt;stroke-linejoin:miter;stroke-opacity:1"/>
<path class="bond-16 atom-8 atom-22" d="M 196.729,260.75 L 187.163,256.4" style="fill:none;fill-rule:evenodd;stroke:#FF0000;stroke-width:2.0px;stroke-linecap:butt;stroke-linejoin:miter;stroke-opacity:1"/>
<path class="bond-16 atom-8 atom-22" d="M 202.673,273.063 L 193.108,268.713" style="fill:none;fill-rule:evenodd;stroke:#000000;stroke-width:2.0px;stroke-linecap:butt;stroke-linejoin:miter;stroke-opacity:1"/>
<path class="bond-16 atom-8 atom-22" d="M 193.108,268.713 L 183.542,264.364" style="fill:none;fill-rule:evenodd;stroke:#FF0000;stroke-width:2.0px;stroke-linecap:butt;stroke-linejoin:miter;stroke-opacity:1"/>
<path class="bond-17 atom-9 atom-33" d="M 261.541,342.778 L 269.224,370.398" style="fill:none;fill-rule:evenodd;stroke:#000000;stroke-width:2.0px;stroke-linecap:butt;stroke-linejoin:miter;stroke-opacity:1"/>
<path class="bond-18 atom-10 atom-11" d="M 326.983,223.696 L 342.937,243.019" style="fill:none;fill-rule:evenodd;stroke:#000000;stroke-width:2.0px;stroke-linecap:butt;stroke-linejoin:miter;stroke-opacity:1"/>
<path class="bond-18 atom-10 atom-11" d="M 336.122,221.025 L 347.29,234.551" style="fill:none;fill-rule:evenodd;stroke:#000000;stroke-width:2.0px;stroke-linecap:butt;stroke-linejoin:miter;stroke-opacity:1"/>
<path class="bond-19 atom-10 atom-12" d="M 323.626,209.052 L 333.523,182.52" style="fill:none;fill-rule:evenodd;stroke:#000000;stroke-width:2.0px;stroke-linecap:butt;stroke-linejoin:miter;stroke-opacity:1"/>
<path class="bond-20 atom-11 atom-13" d="M 354.023,249.182 L 371.628,246.222" style="fill:none;fill-rule:evenodd;stroke:#000000;stroke-width:2.0px;stroke-linecap:butt;stroke-linejoin:miter;stroke-opacity:1"/>
<path class="bond-21 atom-11 atom-23" d="M 346.996,257.425 L 340.261,285.58" style="fill:none;fill-rule:evenodd;stroke:#000000;stroke-width:2.0px;stroke-linecap:butt;stroke-linejoin:miter;stroke-opacity:1"/>
<path class="bond-22 atom-12 atom-14" d="M 348.479,173.291 L 359.607,171.42" style="fill:none;fill-rule:evenodd;stroke:#000000;stroke-width:2.0px;stroke-linecap:butt;stroke-linejoin:miter;stroke-opacity:1"/>
<path class="bond-22 atom-12 atom-14" d="M 351.599,181.638 L 359.389,180.328" style="fill:none;fill-rule:evenodd;stroke:#000000;stroke-width:2.0px;stroke-linecap:butt;stroke-linejoin:miter;stroke-opacity:1"/>
<path class="bond-23 atom-12 atom-24" d="M 330.178,168.07 L 313.394,147.741" style="fill:none;fill-rule:evenodd;stroke:#000000;stroke-width:2.0px;stroke-linecap:butt;stroke-linejoin:miter;stroke-opacity:1"/>
<path class="bond-24 atom-13 atom-15" d="M 394.609,235.528 L 404.505,208.996" style="fill:none;fill-rule:evenodd;stroke:#000000;stroke-width:2.0px;stroke-linecap:butt;stroke-linejoin:miter;stroke-opacity:1"/>
<path class="bond-24 atom-13 atom-15" d="M 387.897,228.491 L 394.825,209.919" style="fill:none;fill-rule:evenodd;stroke:#000000;stroke-width:2.0px;stroke-linecap:butt;stroke-linejoin:miter;stroke-opacity:1"/>
<path class="bond-25 atom-13 atom-25" d="M 397.965,250.172 L 414.038,269.639" style="fill:none;fill-rule:evenodd;stroke:#000000;stroke-width:2.0px;stroke-linecap:butt;stroke-linejoin:miter;stroke-opacity:1"/>
<path class="bond-26 atom-14 atom-15" d="M 385.519,175.601 L 401.361,194.789" style="fill:none;fill-rule:evenodd;stroke:#000000;stroke-width:2.0px;stroke-linecap:butt;stroke-linejoin:miter;stroke-opacity:1"/>
<path class="bond-27 atom-14 atom-26" d="M 382.047,160.817 L 391.943,134.285" style="fill:none;fill-rule:evenodd;stroke:#000000;stroke-width:2.0px;stroke-linecap:butt;stroke-linejoin:miter;stroke-opacity:1"/>
<path class="bond-28 atom-15 atom-27" d="M 419.967,199.683 L 444.696,195.525" style="fill:none;fill-rule:evenodd;stroke:#000000;stroke-width:2.0px;stroke-linecap:butt;stroke-linejoin:miter;stroke-opacity:1"/>
<path class="bond-29 atom-16 atom-18" d="M 159.092,166.724 L 147.924,168.601" style="fill:none;fill-rule:evenodd;stroke:#000000;stroke-width:2.0px;stroke-linecap:butt;stroke-linejoin:miter;stroke-opacity:1"/>
<path class="bond-30 atom-16 atom-28" d="M 181.661,156.099 L 191.558,129.567" style="fill:none;fill-rule:evenodd;stroke:#000000;stroke-width:2.0px;stroke-linecap:butt;stroke-linejoin:miter;stroke-opacity:1"/>
<path class="bond-31 atom-17 atom-19" d="M 142.354,238.063 L 126.517,218.881" style="fill:none;fill-rule:evenodd;stroke:#000000;stroke-width:2.0px;stroke-linecap:butt;stroke-linejoin:miter;stroke-opacity:1"/>
<path class="bond-32 atom-17 atom-29" d="M 145.627,252.707 L 135.755,279.171" style="fill:none;fill-rule:evenodd;stroke:#000000;stroke-width:2.0px;stroke-linecap:butt;stroke-linejoin:miter;stroke-opacity:1"/>
<path class="bond-33 atom-18 atom-19" d="M 133.064,177.996 L 123.193,204.46" style="fill:none;fill-rule:evenodd;stroke:#000000;stroke-width:2.0px;stroke-linecap:butt;stroke-linejoin:miter;stroke-opacity:1"/>
<path class="bond-33 atom-18 atom-19" d="M 139.78,185.023 L 132.87,203.547" style="fill:none;fill-rule:evenodd;stroke:#000000;stroke-width:2.0px;stroke-linecap:butt;stroke-linejoin:miter;stroke-opacity:1"/>
<path class="bond-34 atom-18 atom-30" d="M 129.792,163.352 L 112.553,142.472" style="fill:none;fill-rule:evenodd;stroke:#000000;stroke-width:2.0px;stroke-linecap:butt;stroke-linejoin:miter;stroke-opacity:1"/>
<path class="bond-35 atom-31 atom-19" d="M 90.182,216.722 L 95.0901,215.897" style="fill:none;fill-rule:evenodd;stroke:#0000FF;stroke-width:2.0px;stroke-linecap:butt;stroke-linejoin:miter;stroke-opacity:1"/>
<path class="bond-35 atom-31 atom-19" d="M 95.0901,215.897 L 99.9982,215.071" style="fill:none;fill-rule:evenodd;stroke:#000000;stroke-width:2.0px;stroke-linecap:butt;stroke-linejoin:miter;stroke-opacity:1"/>
<path class="bond-36 atom-31 atom-34" d="M 71.3138,211.516 L 62.9494,201.385" style="fill:none;fill-rule:evenodd;stroke:#0000FF;stroke-width:2.0px;stroke-linecap:butt;stroke-linejoin:miter;stroke-opacity:1"/>
<path class="bond-36 atom-31 atom-34" d="M 62.9494,201.385 L 54.5851,191.255" style="fill:none;fill-rule:evenodd;stroke:#000000;stroke-width:2.0px;stroke-linecap:butt;stroke-linejoin:miter;stroke-opacity:1"/>
<path class="bond-37 atom-31 atom-35" d="M 74.5786,226.405 L 69.6749,239.552" style="fill:none;fill-rule:evenodd;stroke:#0000FF;stroke-width:2.0px;stroke-linecap:butt;stroke-linejoin:miter;stroke-opacity:1"/>
<path class="bond-37 atom-31 atom-35" d="M 69.6749,239.552 L 64.7711,252.699" style="fill:none;fill-rule:evenodd;stroke:#000000;stroke-width:2.0px;stroke-linecap:butt;stroke-linejoin:miter;stroke-opacity:1"/>
<path class="atom-0" d="M 186.729 238.149 Q 186.729 235.07, 188.163 233.46 Q 189.616 231.833, 192.362 231.833 Q 194.917 231.833, 196.281 233.635 L 195.127 234.58 Q 194.129 233.268, 192.362 233.268 Q 190.49 233.268, 189.493 234.528 Q 188.513 235.77, 188.513 238.149 Q 188.513 240.599, 189.528 241.859 Q 190.56 243.118, 192.555 243.118 Q 193.92 243.118, 195.512 242.296 L 196.002 243.608 Q 195.354 244.028, 194.374 244.273 Q 193.395 244.518, 192.31 244.518 Q 189.616 244.518, 188.163 242.873 Q 186.729 241.229, 186.729 238.149 " fill="#000000"/>
<path class="atom-0" d="M 197.594 242.313 L 199.343 242.313 L 199.343 244.063 L 197.594 244.063 L 197.594 242.313 M 197.594 236.295 L 199.343 236.295 L 199.343 238.044 L 197.594 238.044 L 197.594 236.295 " fill="#000000"/>
<path class="atom-0" d="M 200.97 242.961 L 203.682 242.961 L 203.682 233.705 L 200.69 234.633 L 200.288 233.6 L 204.085 231.903 L 205.327 232.113 L 205.327 242.961 L 207.759 242.961 L 207.759 244.36 L 200.97 244.36 L 200.97 242.961 " fill="#000000"/>
<path class="atom-1" d="M 192.152 197.168 Q 192.152 194.088, 193.586 192.479 Q 195.038 190.852, 197.785 190.852 Q 200.34 190.852, 201.704 192.654 L 200.55 193.598 Q 199.552 192.286, 197.785 192.286 Q 195.913 192.286, 194.916 193.546 Q 193.936 194.788, 193.936 197.168 Q 193.936 199.617, 194.951 200.877 Q 195.983 202.136, 197.978 202.136 Q 199.342 202.136, 200.934 201.314 L 201.424 202.626 Q 200.777 203.046, 199.797 203.291 Q 198.817 203.536, 197.733 203.536 Q 195.038 203.536, 193.586 201.891 Q 192.152 200.247, 192.152 197.168 " fill="#000000"/>
<path class="atom-1" d="M 203.016 201.332 L 204.766 201.332 L 204.766 203.081 L 203.016 203.081 L 203.016 201.332 M 203.016 195.313 L 204.766 195.313 L 204.766 197.063 L 203.016 197.063 L 203.016 195.313 " fill="#000000"/>
<path class="atom-1" d="M 205.676 193.336 Q 206.131 192.164, 207.216 191.516 Q 208.3 190.852, 209.805 190.852 Q 211.677 190.852, 212.727 191.866 Q 213.777 192.881, 213.777 194.683 Q 213.777 196.52, 212.412 198.235 Q 211.065 199.949, 208.265 201.979 L 213.986 201.979 L 213.986 203.379 L 205.641 203.379 L 205.641 202.206 Q 207.95 200.562, 209.315 199.337 Q 210.697 198.112, 211.362 197.01 Q 212.027 195.908, 212.027 194.771 Q 212.027 193.581, 211.432 192.916 Q 210.837 192.251, 209.805 192.251 Q 208.808 192.251, 208.143 192.654 Q 207.478 193.056, 207.006 193.948 L 205.676 193.336 " fill="#000000"/>
<path class="atom-2" d="M 237.54 183.739 L 241.599 190.3 Q 242.001 190.947, 242.649 192.119 Q 243.296 193.292, 243.331 193.362 L 243.331 183.739 L 244.976 183.739 L 244.976 196.126 L 243.279 196.126 L 238.922 188.953 Q 238.415 188.113, 237.872 187.15 Q 237.348 186.188, 237.19 185.891 L 237.19 196.126 L 235.58 196.126 L 235.58 183.739 L 237.54 183.739 " fill="#0000FF"/>
<path class="atom-2" d="M 246.288 194.079 L 248.038 194.079 L 248.038 195.828 L 246.288 195.828 L 246.288 194.079 M 246.288 188.06 L 248.038 188.06 L 248.038 189.81 L 246.288 189.81 L 246.288 188.06 " fill="#0000FF"/>
<path class="atom-2" d="M 254.721 189.6 Q 255.928 189.95, 256.506 190.737 Q 257.1 191.507, 257.1 192.732 Q 257.1 193.781, 256.576 194.604 Q 256.051 195.409, 255.088 195.863 Q 254.126 196.301, 252.866 196.301 Q 251.537 196.301, 250.539 195.846 Q 249.56 195.374, 248.772 194.429 L 249.77 193.414 Q 250.539 194.254, 251.187 194.586 Q 251.834 194.901, 252.866 194.901 Q 253.986 194.901, 254.669 194.306 Q 255.351 193.694, 255.351 192.714 Q 255.351 191.454, 254.634 190.895 Q 253.934 190.317, 252.412 190.317 L 251.519 190.317 L 251.519 189.058 L 252.307 189.058 Q 253.654 189.04, 254.371 188.463 Q 255.088 187.868, 255.088 186.766 Q 255.088 185.961, 254.494 185.488 Q 253.899 184.998, 252.884 184.998 Q 251.852 184.998, 251.204 185.366 Q 250.574 185.733, 250.085 186.661 L 248.877 186.013 Q 249.315 184.981, 250.364 184.299 Q 251.414 183.599, 252.884 183.599 Q 254.703 183.599, 255.771 184.456 Q 256.838 185.313, 256.838 186.766 Q 256.838 187.763, 256.296 188.48 Q 255.753 189.198, 254.721 189.6 " fill="#0000FF"/>
<path class="atom-3" d="M 262.755 223.644 Q 262.755 220.565, 264.19 218.955 Q 265.642 217.328, 268.389 217.328 Q 270.943 217.328, 272.308 219.13 L 271.153 220.075 Q 270.156 218.763, 268.389 218.763 Q 266.517 218.763, 265.519 220.022 Q 264.54 221.265, 264.54 223.644 Q 264.54 226.093, 265.554 227.353 Q 266.587 228.613, 268.581 228.613 Q 269.946 228.613, 271.538 227.791 L 272.028 229.103 Q 271.381 229.523, 270.401 229.768 Q 269.421 230.012, 268.336 230.012 Q 265.642 230.012, 264.19 228.368 Q 262.755 226.723, 262.755 223.644 " fill="#000000"/>
<path class="atom-3" d="M 273.62 227.808 L 275.37 227.808 L 275.37 229.558 L 273.62 229.558 L 273.62 227.808 M 273.62 221.789 L 275.37 221.789 L 275.37 223.539 L 273.62 223.539 L 273.62 221.789 " fill="#000000"/>
<path class="atom-3" d="M 283.943 225.604 L 285.43 225.604 L 285.43 227.003 L 283.943 227.003 L 283.943 229.855 L 282.298 229.855 L 282.298 227.003 L 275.895 227.003 L 275.895 225.901 L 281.318 217.468 L 283.943 217.468 L 283.943 225.604 M 277.924 225.604 L 282.298 225.604 L 282.298 218.588 L 277.924 225.604 " fill="#000000"/>
<path class="atom-4" d="M 260.365 142.687 L 262.045 142.687 L 262.045 147.953 L 268.379 147.953 L 268.379 142.687 L 270.058 142.687 L 270.058 155.074 L 268.379 155.074 L 268.379 149.353 L 262.045 149.353 L 262.045 155.074 L 260.365 155.074 L 260.365 142.687 " fill="#000000"/>
<path class="atom-4" d="M 271.37 153.027 L 273.12 153.027 L 273.12 154.777 L 271.37 154.777 L 271.37 153.027 M 271.37 147.008 L 273.12 147.008 L 273.12 148.758 L 271.37 148.758 L 271.37 147.008 " fill="#000000"/>
<path class="atom-4" d="M 278.421 147.323 Q 279.506 147.323, 280.398 147.796 Q 281.291 148.251, 281.798 149.125 Q 282.305 149.983, 282.305 151.155 Q 282.305 152.432, 281.676 153.359 Q 281.063 154.269, 280.048 154.742 Q 279.034 155.214, 277.879 155.214 Q 276.742 155.214, 275.692 154.794 Q 274.642 154.374, 273.925 153.569 L 274.975 152.485 Q 275.552 153.115, 276.339 153.464 Q 277.127 153.797, 277.931 153.797 Q 279.034 153.797, 279.786 153.115 Q 280.556 152.432, 280.556 151.19 Q 280.556 149.878, 279.786 149.265 Q 279.034 148.636, 277.826 148.636 Q 276.742 148.636, 275.534 149.108 L 274.572 148.653 L 275.167 142.687 L 281.536 142.687 L 281.361 144.087 L 276.602 144.087 L 276.234 147.761 Q 277.337 147.323, 278.421 147.323 " fill="#000000"/>
<path class="atom-5" d="M 257.711 264.626 Q 257.711 261.547, 259.146 259.937 Q 260.598 258.31, 263.345 258.31 Q 265.899 258.31, 267.264 260.112 L 266.109 261.057 Q 265.112 259.744, 263.345 259.744 Q 261.473 259.744, 260.476 261.004 Q 259.496 262.246, 259.496 264.626 Q 259.496 267.075, 260.511 268.335 Q 261.543 269.595, 263.537 269.595 Q 264.902 269.595, 266.494 268.772 L 266.984 270.085 Q 266.337 270.504, 265.357 270.749 Q 264.377 270.994, 263.293 270.994 Q 260.598 270.994, 259.146 269.35 Q 257.711 267.705, 257.711 264.626 " fill="#000000"/>
<path class="atom-5" d="M 268.576 268.79 L 270.326 268.79 L 270.326 270.539 L 268.576 270.539 L 268.576 268.79 M 268.576 262.771 L 270.326 262.771 L 270.326 264.521 L 268.576 264.521 L 268.576 262.771 " fill="#000000"/>
<path class="atom-5" d="M 276.362 263.104 Q 277.447 263.104, 278.304 263.576 Q 279.161 264.048, 279.634 264.906 Q 280.106 265.763, 280.106 266.848 Q 280.106 268.055, 279.564 269 Q 279.039 269.927, 278.094 270.452 Q 277.149 270.977, 275.942 270.977 Q 273.738 270.977, 272.618 269.49 Q 271.516 267.985, 271.516 265.011 Q 271.516 261.721, 272.88 260.024 Q 274.262 258.31, 276.904 258.31 Q 277.674 258.31, 278.322 258.485 Q 278.986 258.66, 279.616 259.027 L 278.934 260.199 Q 278.024 259.709, 276.922 259.709 Q 275.172 259.709, 274.28 260.847 Q 273.388 261.966, 273.283 264.293 Q 273.913 263.716, 274.7 263.419 Q 275.505 263.104, 276.362 263.104 M 275.96 269.542 Q 276.624 269.542, 277.167 269.192 Q 277.727 268.842, 278.042 268.23 Q 278.357 267.618, 278.357 266.865 Q 278.357 265.763, 277.744 265.133 Q 277.132 264.503, 276.047 264.503 Q 275.295 264.503, 274.542 264.818 Q 273.808 265.116, 273.283 265.641 Q 273.353 267.688, 274 268.615 Q 274.647 269.542, 275.96 269.542 " fill="#000000"/>
<path class="atom-6" d="M 203.55 313.801 L 207.609 320.362 Q 208.011 321.01, 208.659 322.182 Q 209.306 323.354, 209.341 323.424 L 209.341 313.801 L 210.986 313.801 L 210.986 326.188 L 209.288 326.188 L 204.932 319.015 Q 204.425 318.175, 203.882 317.213 Q 203.357 316.251, 203.2 315.953 L 203.2 326.188 L 201.59 326.188 L 201.59 313.801 L 203.55 313.801 " fill="#0000FF"/>
<path class="atom-6" d="M 212.298 324.141 L 214.047 324.141 L 214.047 325.891 L 212.298 325.891 L 212.298 324.141 M 212.298 318.123 L 214.047 318.123 L 214.047 319.872 L 212.298 319.872 L 212.298 318.123 " fill="#0000FF"/>
<path class="atom-6" d="M 220.853 315.201 L 214.362 315.201 L 214.362 313.801 L 222.585 313.801 L 222.585 315.043 L 217.581 326.188 L 215.902 326.188 L 220.853 315.201 " fill="#0000FF"/>
<path class="atom-7" d="M 281.881 301.081 Q 281.881 298.002, 283.316 296.392 Q 284.768 294.765, 287.515 294.765 Q 290.069 294.765, 291.434 296.567 L 290.279 297.512 Q 289.282 296.2, 287.515 296.2 Q 285.643 296.2, 284.646 297.459 Q 283.666 298.702, 283.666 301.081 Q 283.666 303.531, 284.681 304.79 Q 285.713 306.05, 287.707 306.05 Q 289.072 306.05, 290.664 305.228 L 291.154 306.54 Q 290.507 306.96, 289.527 307.205 Q 288.547 307.45, 287.463 307.45 Q 284.768 307.45, 283.316 305.805 Q 281.881 304.16, 281.881 301.081 " fill="#000000"/>
<path class="atom-7" d="M 292.746 305.245 L 294.496 305.245 L 294.496 306.995 L 292.746 306.995 L 292.746 305.245 M 292.746 299.227 L 294.496 299.227 L 294.496 300.976 L 292.746 300.976 L 292.746 299.227 " fill="#000000"/>
<path class="atom-7" d="M 301.897 300.731 Q 303.034 301.221, 303.681 301.956 Q 304.329 302.673, 304.329 303.898 Q 304.329 304.948, 303.786 305.77 Q 303.244 306.575, 302.264 307.03 Q 301.302 307.467, 300.025 307.467 Q 297.96 307.467, 296.77 306.522 Q 295.581 305.56, 295.581 303.898 Q 295.581 302.883, 296.106 302.131 Q 296.63 301.361, 297.715 300.784 Q 296.91 300.329, 296.473 299.664 Q 296.036 298.982, 296.036 297.932 Q 296.036 296.48, 297.085 295.622 Q 298.153 294.765, 299.955 294.765 Q 301.757 294.765, 302.806 295.622 Q 303.874 296.48, 303.874 297.932 Q 303.874 298.842, 303.366 299.524 Q 302.876 300.189, 301.897 300.731 M 299.955 296.077 Q 298.922 296.077, 298.345 296.567 Q 297.785 297.057, 297.785 297.932 Q 297.785 298.579, 298.17 299.017 Q 298.555 299.436, 299.097 299.681 Q 299.657 299.926, 300.724 300.294 Q 301.477 299.769, 301.792 299.209 Q 302.124 298.649, 302.124 297.932 Q 302.124 297.057, 301.547 296.567 Q 300.987 296.077, 299.955 296.077 M 300.025 306.155 Q 301.179 306.155, 301.879 305.543 Q 302.579 304.913, 302.579 303.88 Q 302.579 303.216, 302.212 302.796 Q 301.844 302.376, 301.284 302.131 Q 300.742 301.886, 299.762 301.571 L 298.975 301.309 Q 298.1 301.833, 297.715 302.463 Q 297.33 303.076, 297.33 303.88 Q 297.33 304.913, 298.065 305.543 Q 298.8 306.155, 300.025 306.155 " fill="#000000"/>
<path class="atom-8" d="M 205.577 276.348 Q 205.577 273.268, 207.011 271.659 Q 208.464 270.032, 211.21 270.032 Q 213.765 270.032, 215.13 271.834 L 213.975 272.778 Q 212.978 271.466, 211.21 271.466 Q 209.338 271.466, 208.341 272.726 Q 207.361 273.968, 207.361 276.348 Q 207.361 278.797, 208.376 280.057 Q 209.408 281.316, 211.403 281.316 Q 212.768 281.316, 214.36 280.494 L 214.85 281.806 Q 214.202 282.226, 213.222 282.471 Q 212.243 282.716, 211.158 282.716 Q 208.464 282.716, 207.011 281.071 Q 205.577 279.427, 205.577 276.348 " fill="#000000"/>
<path class="atom-8" d="M 216.442 280.512 L 218.191 280.512 L 218.191 282.261 L 216.442 282.261 L 216.442 280.512 M 216.442 274.493 L 218.191 274.493 L 218.191 276.243 L 216.442 276.243 L 216.442 274.493 " fill="#000000"/>
<path class="atom-8" d="M 223.318 270.032 Q 225.522 270.032, 226.624 271.536 Q 227.744 273.023, 227.744 275.998 Q 227.744 279.287, 226.362 281.001 Q 224.997 282.699, 222.355 282.699 Q 221.586 282.699, 220.921 282.524 Q 220.273 282.349, 219.643 281.981 L 220.326 280.809 Q 221.236 281.299, 222.338 281.299 Q 224.087 281.299, 224.98 280.179 Q 225.872 279.042, 225.977 276.715 Q 225.347 277.292, 224.542 277.607 Q 223.755 277.905, 222.898 277.905 Q 221.813 277.905, 220.956 277.432 Q 220.098 276.96, 219.626 276.103 Q 219.154 275.245, 219.154 274.161 Q 219.154 272.953, 219.678 272.026 Q 220.221 271.081, 221.166 270.556 Q 222.11 270.032, 223.318 270.032 M 220.903 274.143 Q 220.903 275.245, 221.516 275.875 Q 222.128 276.505, 223.213 276.505 Q 223.965 276.505, 224.7 276.208 Q 225.452 275.893, 225.977 275.368 Q 225.907 273.321, 225.26 272.393 Q 224.612 271.466, 223.3 271.466 Q 222.635 271.466, 222.075 271.816 Q 221.533 272.166, 221.218 272.778 Q 220.903 273.391, 220.903 274.143 " fill="#000000"/>
<path class="atom-9" d="M 240.195 335.333 Q 240.195 332.254, 241.629 330.645 Q 243.082 329.017, 245.828 329.017 Q 248.383 329.017, 249.748 330.819 L 248.593 331.764 Q 247.596 330.452, 245.828 330.452 Q 243.956 330.452, 242.959 331.712 Q 241.979 332.954, 241.979 335.333 Q 241.979 337.783, 242.994 339.043 Q 244.026 340.302, 246.021 340.302 Q 247.386 340.302, 248.978 339.48 L 249.468 340.792 Q 248.82 341.212, 247.84 341.457 Q 246.861 341.702, 245.776 341.702 Q 243.082 341.702, 241.629 340.057 Q 240.195 338.413, 240.195 335.333 " fill="#000000"/>
<path class="atom-9" d="M 251.06 339.497 L 252.809 339.497 L 252.809 341.247 L 251.06 341.247 L 251.06 339.497 M 251.06 333.479 L 252.809 333.479 L 252.809 335.228 L 251.06 335.228 L 251.06 333.479 " fill="#000000"/>
<path class="atom-9" d="M 254.436 340.145 L 257.148 340.145 L 257.148 330.889 L 254.157 331.817 L 253.754 330.785 L 257.551 329.087 L 258.793 329.297 L 258.793 340.145 L 261.225 340.145 L 261.225 341.545 L 254.436 341.545 L 254.436 340.145 " fill="#000000"/>
<path class="atom-9" d="M 266.824 341.684 Q 264.549 341.684, 263.412 340.005 Q 262.292 338.325, 262.292 335.333 Q 262.292 332.342, 263.412 330.68 Q 264.532 329.017, 266.824 329.017 Q 269.116 329.017, 270.235 330.68 Q 271.355 332.342, 271.355 335.333 Q 271.355 338.325, 270.218 340.005 Q 269.098 341.684, 266.824 341.684 M 266.824 340.285 Q 268.171 340.285, 268.888 339.043 Q 269.605 337.783, 269.605 335.333 Q 269.605 332.902, 268.888 331.659 Q 268.171 330.417, 266.824 330.417 Q 265.494 330.417, 264.759 331.659 Q 264.042 332.902, 264.042 335.333 Q 264.042 337.783, 264.759 339.043 Q 265.494 340.285, 266.824 340.285 " fill="#000000"/>
<path class="atom-10" d="M 302.275 216.391 Q 302.275 213.312, 303.71 211.702 Q 305.162 210.075, 307.909 210.075 Q 310.463 210.075, 311.828 211.877 L 310.673 212.822 Q 309.676 211.51, 307.909 211.51 Q 306.037 211.51, 305.039 212.77 Q 304.06 214.012, 304.06 216.391 Q 304.06 218.841, 305.074 220.1 Q 306.107 221.36, 308.101 221.36 Q 309.466 221.36, 311.058 220.538 L 311.548 221.85 Q 310.901 222.27, 309.921 222.515 Q 308.941 222.76, 307.856 222.76 Q 305.162 222.76, 303.71 221.115 Q 302.275 219.471, 302.275 216.391 " fill="#000000"/>
<path class="atom-10" d="M 313.14 220.555 L 314.89 220.555 L 314.89 222.305 L 313.14 222.305 L 313.14 220.555 M 313.14 214.537 L 314.89 214.537 L 314.89 216.286 L 313.14 216.286 L 313.14 214.537 " fill="#000000"/>
<path class="atom-10" d="M 316.517 221.203 L 319.229 221.203 L 319.229 211.947 L 316.237 212.875 L 315.834 211.842 L 319.631 210.145 L 320.873 210.355 L 320.873 221.203 L 323.305 221.203 L 323.305 222.602 L 316.517 222.602 L 316.517 221.203 " fill="#000000"/>
<path class="atom-10" d="M 324.932 221.203 L 327.644 221.203 L 327.644 211.947 L 324.652 212.875 L 324.25 211.842 L 328.047 210.145 L 329.289 210.355 L 329.289 221.203 L 331.721 221.203 L 331.721 222.602 L 324.932 222.602 L 324.932 221.203 " fill="#000000"/>
<path class="atom-11" d="M 322.679 250.12 Q 322.679 247.041, 324.113 245.431 Q 325.566 243.804, 328.312 243.804 Q 330.867 243.804, 332.232 245.606 L 331.077 246.551 Q 330.08 245.239, 328.312 245.239 Q 326.44 245.239, 325.443 246.499 Q 324.463 247.741, 324.463 250.12 Q 324.463 252.57, 325.478 253.83 Q 326.51 255.089, 328.505 255.089 Q 329.87 255.089, 331.462 254.267 L 331.952 255.579 Q 331.304 255.999, 330.324 256.244 Q 329.345 256.489, 328.26 256.489 Q 325.566 256.489, 324.113 254.844 Q 322.679 253.2, 322.679 250.12 " fill="#000000"/>
<path class="atom-11" d="M 333.544 254.284 L 335.293 254.284 L 335.293 256.034 L 333.544 256.034 L 333.544 254.284 M 333.544 248.266 L 335.293 248.266 L 335.293 250.015 L 333.544 250.015 L 333.544 248.266 " fill="#000000"/>
<path class="atom-11" d="M 336.92 254.932 L 339.632 254.932 L 339.632 245.676 L 336.641 246.604 L 336.238 245.571 L 340.035 243.874 L 341.277 244.084 L 341.277 254.932 L 343.709 254.932 L 343.709 256.331 L 336.92 256.331 L 336.92 254.932 " fill="#000000"/>
<path class="atom-11" d="M 344.619 246.289 Q 345.074 245.117, 346.158 244.469 Q 347.243 243.804, 348.748 243.804 Q 350.62 243.804, 351.67 244.819 Q 352.719 245.834, 352.719 247.636 Q 352.719 249.473, 351.355 251.188 Q 350.007 252.902, 347.208 254.932 L 352.929 254.932 L 352.929 256.331 L 344.584 256.331 L 344.584 255.159 Q 346.893 253.515, 348.258 252.29 Q 349.64 251.065, 350.305 249.963 Q 350.97 248.861, 350.97 247.723 Q 350.97 246.534, 350.375 245.869 Q 349.78 245.204, 348.748 245.204 Q 347.75 245.204, 347.086 245.606 Q 346.421 246.009, 345.948 246.901 L 344.619 246.289 " fill="#000000"/>
<path class="atom-12" d="M 317.292 175.409 Q 317.292 172.33, 318.727 170.721 Q 320.179 169.093, 322.926 169.093 Q 325.48 169.093, 326.845 170.895 L 325.69 171.84 Q 324.693 170.528, 322.926 170.528 Q 321.054 170.528, 320.057 171.788 Q 319.077 173.03, 319.077 175.409 Q 319.077 177.859, 320.092 179.119 Q 321.124 180.378, 323.118 180.378 Q 324.483 180.378, 326.075 179.556 L 326.565 180.868 Q 325.918 181.288, 324.938 181.533 Q 323.958 181.778, 322.873 181.778 Q 320.179 181.778, 318.727 180.133 Q 317.292 178.489, 317.292 175.409 " fill="#000000"/>
<path class="atom-12" d="M 328.157 179.573 L 329.907 179.573 L 329.907 181.323 L 328.157 181.323 L 328.157 179.573 M 328.157 173.555 L 329.907 173.555 L 329.907 175.304 L 328.157 175.304 L 328.157 173.555 " fill="#000000"/>
<path class="atom-12" d="M 331.534 180.221 L 334.246 180.221 L 334.246 170.965 L 331.254 171.893 L 330.852 170.86 L 334.648 169.163 L 335.89 169.373 L 335.89 180.221 L 338.322 180.221 L 338.322 181.62 L 331.534 181.62 L 331.534 180.221 " fill="#000000"/>
<path class="atom-12" d="M 345.006 175.095 Q 346.213 175.444, 346.79 176.232 Q 347.385 177.002, 347.385 178.226 Q 347.385 179.276, 346.86 180.098 Q 346.336 180.903, 345.373 181.358 Q 344.411 181.795, 343.151 181.795 Q 341.822 181.795, 340.824 181.341 Q 339.845 180.868, 339.057 179.923 L 340.054 178.909 Q 340.824 179.748, 341.472 180.081 Q 342.119 180.396, 343.151 180.396 Q 344.271 180.396, 344.953 179.801 Q 345.636 179.189, 345.636 178.209 Q 345.636 176.949, 344.918 176.389 Q 344.219 175.812, 342.696 175.812 L 341.804 175.812 L 341.804 174.552 L 342.591 174.552 Q 343.939 174.535, 344.656 173.957 Q 345.373 173.362, 345.373 172.26 Q 345.373 171.455, 344.778 170.983 Q 344.184 170.493, 343.169 170.493 Q 342.137 170.493, 341.489 170.86 Q 340.859 171.228, 340.369 172.155 L 339.162 171.508 Q 339.6 170.476, 340.649 169.793 Q 341.699 169.093, 343.169 169.093 Q 344.988 169.093, 346.056 169.951 Q 347.123 170.808, 347.123 172.26 Q 347.123 173.257, 346.58 173.975 Q 346.038 174.692, 345.006 175.095 " fill="#000000"/>
<path class="atom-13" d="M 372.588 242.868 Q 372.588 239.788, 374.023 238.179 Q 375.475 236.552, 378.222 236.552 Q 380.777 236.552, 382.141 238.354 L 380.987 239.299 Q 379.989 237.986, 378.222 237.986 Q 376.35 237.986, 375.353 239.246 Q 374.373 240.488, 374.373 242.868 Q 374.373 245.317, 375.388 246.577 Q 376.42 247.837, 378.415 247.837 Q 379.779 247.837, 381.371 247.014 L 381.861 248.326 Q 381.214 248.746, 380.234 248.991 Q 379.254 249.236, 378.17 249.236 Q 375.475 249.236, 374.023 247.592 Q 372.588 245.947, 372.588 242.868 " fill="#000000"/>
<path class="atom-13" d="M 383.453 247.032 L 385.203 247.032 L 385.203 248.781 L 383.453 248.781 L 383.453 247.032 M 383.453 241.013 L 385.203 241.013 L 385.203 242.763 L 383.453 242.763 L 383.453 241.013 " fill="#000000"/>
<path class="atom-13" d="M 386.83 247.679 L 389.542 247.679 L 389.542 238.424 L 386.55 239.351 L 386.148 238.319 L 389.944 236.622 L 391.187 236.832 L 391.187 247.679 L 393.619 247.679 L 393.619 249.079 L 386.83 249.079 L 386.83 247.679 " fill="#000000"/>
<path class="atom-13" d="M 402.192 244.827 L 403.679 244.827 L 403.679 246.227 L 402.192 246.227 L 402.192 249.079 L 400.547 249.079 L 400.547 246.227 L 394.143 246.227 L 394.143 245.125 L 399.567 236.692 L 402.192 236.692 L 402.192 244.827 M 396.173 244.827 L 400.547 244.827 L 400.547 237.811 L 396.173 244.827 " fill="#000000"/>
<path class="atom-14" d="M 360.389 168.157 Q 360.389 165.077, 361.824 163.468 Q 363.276 161.841, 366.023 161.841 Q 368.578 161.841, 369.942 163.643 L 368.788 164.588 Q 367.79 163.275, 366.023 163.275 Q 364.151 163.275, 363.154 164.535 Q 362.174 165.777, 362.174 168.157 Q 362.174 170.606, 363.189 171.866 Q 364.221 173.126, 366.216 173.126 Q 367.58 173.126, 369.172 172.303 L 369.662 173.615 Q 369.015 174.035, 368.035 174.28 Q 367.055 174.525, 365.971 174.525 Q 363.276 174.525, 361.824 172.881 Q 360.389 171.236, 360.389 168.157 " fill="#000000"/>
<path class="atom-14" d="M 371.254 172.321 L 373.004 172.321 L 373.004 174.07 L 371.254 174.07 L 371.254 172.321 M 371.254 166.302 L 373.004 166.302 L 373.004 168.052 L 371.254 168.052 L 371.254 166.302 " fill="#000000"/>
<path class="atom-14" d="M 374.631 172.968 L 377.343 172.968 L 377.343 163.713 L 374.351 164.64 L 373.949 163.608 L 377.745 161.911 L 378.988 162.121 L 378.988 172.968 L 381.42 172.968 L 381.42 174.368 L 374.631 174.368 L 374.631 172.968 " fill="#000000"/>
<path class="atom-14" d="M 386.721 166.617 Q 387.806 166.617, 388.698 167.089 Q 389.59 167.544, 390.098 168.419 Q 390.605 169.276, 390.605 170.449 Q 390.605 171.726, 389.975 172.653 Q 389.363 173.563, 388.348 174.035 Q 387.333 174.508, 386.179 174.508 Q 385.041 174.508, 383.992 174.088 Q 382.942 173.668, 382.224 172.863 L 383.274 171.778 Q 383.852 172.408, 384.639 172.758 Q 385.426 173.091, 386.231 173.091 Q 387.333 173.091, 388.086 172.408 Q 388.855 171.726, 388.855 170.484 Q 388.855 169.171, 388.086 168.559 Q 387.333 167.929, 386.126 167.929 Q 385.041 167.929, 383.834 168.402 L 382.872 167.947 L 383.467 161.981 L 389.835 161.981 L 389.66 163.38 L 384.901 163.38 L 384.534 167.054 Q 385.636 166.617, 386.721 166.617 " fill="#000000"/>
<path class="atom-15" d="M 388.063 201.886 Q 388.063 198.807, 389.497 197.197 Q 390.95 195.57, 393.696 195.57 Q 396.251 195.57, 397.616 197.372 L 396.461 198.317 Q 395.464 197.004, 393.696 197.004 Q 391.824 197.004, 390.827 198.264 Q 389.847 199.506, 389.847 201.886 Q 389.847 204.335, 390.862 205.595 Q 391.894 206.855, 393.889 206.855 Q 395.254 206.855, 396.846 206.032 L 397.336 207.345 Q 396.688 207.765, 395.708 208.009 Q 394.729 208.254, 393.644 208.254 Q 390.95 208.254, 389.497 206.61 Q 388.063 204.965, 388.063 201.886 " fill="#000000"/>
<path class="atom-15" d="M 398.928 206.05 L 400.677 206.05 L 400.677 207.799 L 398.928 207.799 L 398.928 206.05 M 398.928 200.031 L 400.677 200.031 L 400.677 201.781 L 398.928 201.781 L 398.928 200.031 " fill="#000000"/>
<path class="atom-15" d="M 402.304 206.697 L 405.016 206.697 L 405.016 197.442 L 402.025 198.369 L 401.622 197.337 L 405.419 195.64 L 406.661 195.85 L 406.661 206.697 L 409.093 206.697 L 409.093 208.097 L 402.304 208.097 L 402.304 206.697 " fill="#000000"/>
<path class="atom-15" d="M 415.129 200.364 Q 416.214 200.364, 417.071 200.836 Q 417.928 201.308, 418.401 202.166 Q 418.873 203.023, 418.873 204.108 Q 418.873 205.315, 418.331 206.26 Q 417.806 207.187, 416.861 207.712 Q 415.916 208.237, 414.709 208.237 Q 412.505 208.237, 411.385 206.75 Q 410.283 205.245, 410.283 202.271 Q 410.283 198.982, 411.647 197.284 Q 413.029 195.57, 415.671 195.57 Q 416.441 195.57, 417.089 195.745 Q 417.753 195.92, 418.383 196.287 L 417.701 197.459 Q 416.791 196.969, 415.689 196.969 Q 413.939 196.969, 413.047 198.107 Q 412.155 199.226, 412.05 201.553 Q 412.68 200.976, 413.467 200.679 Q 414.272 200.364, 415.129 200.364 M 414.727 206.802 Q 415.391 206.802, 415.934 206.452 Q 416.494 206.102, 416.809 205.49 Q 417.124 204.878, 417.124 204.125 Q 417.124 203.023, 416.511 202.393 Q 415.899 201.763, 414.814 201.763 Q 414.062 201.763, 413.309 202.078 Q 412.575 202.376, 412.05 202.901 Q 412.12 204.948, 412.767 205.875 Q 413.414 206.802, 414.727 206.802 " fill="#000000"/>
<path class="atom-16" d="M 160.185 163.438 Q 160.185 160.359, 161.62 158.749 Q 163.072 157.122, 165.819 157.122 Q 168.373 157.122, 169.738 158.924 L 168.583 159.869 Q 167.586 158.557, 165.819 158.557 Q 163.947 158.557, 162.95 159.817 Q 161.97 161.059, 161.97 163.438 Q 161.97 165.888, 162.985 167.148 Q 164.017 168.407, 166.011 168.407 Q 167.376 168.407, 168.968 167.585 L 169.458 168.897 Q 168.811 169.317, 167.831 169.562 Q 166.851 169.807, 165.766 169.807 Q 163.072 169.807, 161.62 168.162 Q 160.185 166.518, 160.185 163.438 " fill="#000000"/>
<path class="atom-16" d="M 171.05 167.602 L 172.8 167.602 L 172.8 169.352 L 171.05 169.352 L 171.05 167.602 M 171.05 161.584 L 172.8 161.584 L 172.8 163.333 L 171.05 163.333 L 171.05 161.584 " fill="#000000"/>
<path class="atom-16" d="M 174.427 168.25 L 177.139 168.25 L 177.139 158.994 L 174.147 159.922 L 173.745 158.889 L 177.541 157.192 L 178.783 157.402 L 178.783 168.25 L 181.215 168.25 L 181.215 169.649 L 174.427 169.649 L 174.427 168.25 " fill="#000000"/>
<path class="atom-16" d="M 188.021 158.662 L 181.53 158.662 L 181.53 157.262 L 189.753 157.262 L 189.753 158.505 L 184.749 169.649 L 183.07 169.649 L 188.021 158.662 " fill="#000000"/>
<path class="atom-17" d="M 129.224 245.402 Q 129.224 242.323, 130.658 240.713 Q 132.11 239.086, 134.857 239.086 Q 137.412 239.086, 138.776 240.888 L 137.622 241.833 Q 136.624 240.521, 134.857 240.521 Q 132.985 240.521, 131.988 241.78 Q 131.008 243.023, 131.008 245.402 Q 131.008 247.852, 132.023 249.111 Q 133.055 250.371, 135.05 250.371 Q 136.414 250.371, 138.007 249.549 L 138.496 250.861 Q 137.849 251.281, 136.869 251.526 Q 135.889 251.771, 134.805 251.771 Q 132.11 251.771, 130.658 250.126 Q 129.224 248.481, 129.224 245.402 " fill="#000000"/>
<path class="atom-17" d="M 140.089 249.566 L 141.838 249.566 L 141.838 251.316 L 140.089 251.316 L 140.089 249.566 M 140.089 243.548 L 141.838 243.548 L 141.838 245.297 L 140.089 245.297 L 140.089 243.548 " fill="#000000"/>
<path class="atom-17" d="M 143.465 250.213 L 146.177 250.213 L 146.177 240.958 L 143.185 241.885 L 142.783 240.853 L 146.58 239.156 L 147.822 239.366 L 147.822 250.213 L 150.254 250.213 L 150.254 251.613 L 143.465 251.613 L 143.465 250.213 " fill="#000000"/>
<path class="atom-17" d="M 157.654 245.052 Q 158.792 245.542, 159.439 246.277 Q 160.086 246.994, 160.086 248.219 Q 160.086 249.269, 159.544 250.091 Q 159.002 250.896, 158.022 251.351 Q 157.06 251.788, 155.782 251.788 Q 153.718 251.788, 152.528 250.843 Q 151.338 249.881, 151.338 248.219 Q 151.338 247.204, 151.863 246.452 Q 152.388 245.682, 153.473 245.105 Q 152.668 244.65, 152.231 243.985 Q 151.793 243.303, 151.793 242.253 Q 151.793 240.801, 152.843 239.943 Q 153.91 239.086, 155.712 239.086 Q 157.514 239.086, 158.564 239.943 Q 159.632 240.801, 159.632 242.253 Q 159.632 243.163, 159.124 243.845 Q 158.634 244.51, 157.654 245.052 M 155.712 240.398 Q 154.68 240.398, 154.103 240.888 Q 153.543 241.378, 153.543 242.253 Q 153.543 242.9, 153.928 243.338 Q 154.313 243.757, 154.855 244.002 Q 155.415 244.247, 156.482 244.615 Q 157.235 244.09, 157.549 243.53 Q 157.882 242.97, 157.882 242.253 Q 157.882 241.378, 157.305 240.888 Q 156.745 240.398, 155.712 240.398 M 155.782 250.476 Q 156.937 250.476, 157.637 249.864 Q 158.337 249.234, 158.337 248.201 Q 158.337 247.537, 157.969 247.117 Q 157.602 246.697, 157.042 246.452 Q 156.5 246.207, 155.52 245.892 L 154.733 245.63 Q 153.858 246.154, 153.473 246.784 Q 153.088 247.397, 153.088 248.201 Q 153.088 249.234, 153.823 249.864 Q 154.558 250.476, 155.782 250.476 " fill="#000000"/>
<path class="atom-18" d="M 116.751 170.691 Q 116.751 167.612, 118.186 166.002 Q 119.638 164.375, 122.385 164.375 Q 124.939 164.375, 126.304 166.177 L 125.149 167.122 Q 124.152 165.81, 122.385 165.81 Q 120.513 165.81, 119.516 167.069 Q 118.536 168.312, 118.536 170.691 Q 118.536 173.141, 119.551 174.4 Q 120.583 175.66, 122.577 175.66 Q 123.942 175.66, 125.534 174.838 L 126.024 176.15 Q 125.377 176.57, 124.397 176.815 Q 123.417 177.06, 122.332 177.06 Q 119.638 177.06, 118.186 175.415 Q 116.751 173.77, 116.751 170.691 " fill="#000000"/>
<path class="atom-18" d="M 127.616 174.855 L 129.366 174.855 L 129.366 176.605 L 127.616 176.605 L 127.616 174.855 M 127.616 168.837 L 129.366 168.837 L 129.366 170.586 L 127.616 170.586 L 127.616 168.837 " fill="#000000"/>
<path class="atom-18" d="M 130.993 175.502 L 133.705 175.502 L 133.705 166.247 L 130.713 167.174 L 130.311 166.142 L 134.107 164.445 L 135.349 164.655 L 135.349 175.502 L 137.781 175.502 L 137.781 176.902 L 130.993 176.902 L 130.993 175.502 " fill="#000000"/>
<path class="atom-18" d="M 142.908 164.375 Q 145.112 164.375, 146.214 165.88 Q 147.334 167.367, 147.334 170.341 Q 147.334 173.63, 145.952 175.345 Q 144.587 177.042, 141.945 177.042 Q 141.176 177.042, 140.511 176.867 Q 139.863 176.692, 139.233 176.325 L 139.916 175.153 Q 140.826 175.642, 141.928 175.642 Q 143.677 175.642, 144.57 174.523 Q 145.462 173.385, 145.567 171.059 Q 144.937 171.636, 144.132 171.951 Q 143.345 172.248, 142.488 172.248 Q 141.403 172.248, 140.546 171.776 Q 139.688 171.303, 139.216 170.446 Q 138.744 169.589, 138.744 168.504 Q 138.744 167.297, 139.268 166.37 Q 139.811 165.425, 140.756 164.9 Q 141.7 164.375, 142.908 164.375 M 140.493 168.487 Q 140.493 169.589, 141.106 170.219 Q 141.718 170.849, 142.803 170.849 Q 143.555 170.849, 144.29 170.551 Q 145.042 170.236, 145.567 169.711 Q 145.497 167.664, 144.85 166.737 Q 144.202 165.81, 142.89 165.81 Q 142.225 165.81, 141.665 166.16 Q 141.123 166.51, 140.808 167.122 Q 140.493 167.734, 140.493 168.487 " fill="#000000"/>
<path class="atom-19" d="M 100.767 211.673 Q 100.767 208.594, 102.202 206.984 Q 103.654 205.357, 106.401 205.357 Q 108.955 205.357, 110.32 207.159 L 109.165 208.104 Q 108.168 206.792, 106.401 206.792 Q 104.529 206.792, 103.532 208.051 Q 102.552 209.293, 102.552 211.673 Q 102.552 214.122, 103.567 215.382 Q 104.599 216.642, 106.593 216.642 Q 107.958 216.642, 109.55 215.819 L 110.04 217.132 Q 109.393 217.552, 108.413 217.797 Q 107.433 218.041, 106.349 218.041 Q 103.654 218.041, 102.202 216.397 Q 100.767 214.752, 100.767 211.673 " fill="#000000"/>
<path class="atom-19" d="M 111.632 215.837 L 113.382 215.837 L 113.382 217.587 L 111.632 217.587 L 111.632 215.837 M 111.632 209.818 L 113.382 209.818 L 113.382 211.568 L 111.632 211.568 L 111.632 209.818 " fill="#000000"/>
<path class="atom-19" d="M 114.292 207.841 Q 114.747 206.669, 115.831 206.022 Q 116.916 205.357, 118.421 205.357 Q 120.293 205.357, 121.343 206.372 Q 122.392 207.386, 122.392 209.189 Q 122.392 211.026, 121.028 212.74 Q 119.68 214.455, 116.881 216.484 L 122.602 216.484 L 122.602 217.884 L 114.257 217.884 L 114.257 216.712 Q 116.566 215.067, 117.931 213.842 Q 119.313 212.618, 119.978 211.515 Q 120.643 210.413, 120.643 209.276 Q 120.643 208.086, 120.048 207.421 Q 119.453 206.757, 118.421 206.757 Q 117.423 206.757, 116.759 207.159 Q 116.094 207.561, 115.621 208.454 L 114.292 207.841 " fill="#000000"/>
<path class="atom-19" d="M 128.201 218.024 Q 125.927 218.024, 124.789 216.344 Q 123.67 214.665, 123.67 211.673 Q 123.67 208.681, 124.789 207.019 Q 125.909 205.357, 128.201 205.357 Q 130.493 205.357, 131.613 207.019 Q 132.732 208.681, 132.732 211.673 Q 132.732 214.665, 131.595 216.344 Q 130.475 218.024, 128.201 218.024 M 128.201 216.624 Q 129.548 216.624, 130.266 215.382 Q 130.983 214.122, 130.983 211.673 Q 130.983 209.241, 130.266 207.999 Q 129.548 206.757, 128.201 206.757 Q 126.871 206.757, 126.136 207.999 Q 125.419 209.241, 125.419 211.673 Q 125.419 214.122, 126.136 215.382 Q 126.871 216.624, 128.201 216.624 " fill="#000000"/>
<path class="atom-20" d="M 196.681 252.947 L 198.361 252.947 L 198.361 258.213 L 204.694 258.213 L 204.694 252.947 L 206.374 252.947 L 206.374 265.334 L 204.694 265.334 L 204.694 259.613 L 198.361 259.613 L 198.361 265.334 L 196.681 265.334 L 196.681 252.947 " fill="#000000"/>
<path class="atom-20" d="M 207.686 263.287 L 209.436 263.287 L 209.436 265.037 L 207.686 265.037 L 207.686 263.287 M 207.686 257.268 L 209.436 257.268 L 209.436 259.018 L 207.686 259.018 L 207.686 257.268 " fill="#000000"/>
<path class="atom-20" d="M 210.346 255.291 Q 210.8 254.119, 211.885 253.472 Q 212.97 252.807, 214.475 252.807 Q 216.347 252.807, 217.396 253.822 Q 218.446 254.836, 218.446 256.638 Q 218.446 258.476, 217.081 260.19 Q 215.734 261.905, 212.935 263.934 L 218.656 263.934 L 218.656 265.334 L 210.311 265.334 L 210.311 264.162 Q 212.62 262.517, 213.985 261.292 Q 215.367 260.068, 216.032 258.965 Q 216.697 257.863, 216.697 256.726 Q 216.697 255.536, 216.102 254.871 Q 215.507 254.207, 214.475 254.207 Q 213.477 254.207, 212.812 254.609 Q 212.148 255.011, 211.675 255.904 L 210.346 255.291 " fill="#000000"/>
<path class="atom-20" d="M 220.283 263.934 L 222.995 263.934 L 222.995 254.679 L 220.003 255.606 L 219.601 254.574 L 223.397 252.877 L 224.64 253.087 L 224.64 263.934 L 227.072 263.934 L 227.072 265.334 L 220.283 265.334 L 220.283 263.934 " fill="#000000"/>
<path class="atom-21" d="M 154.996 338.041 L 156.676 338.041 L 156.676 343.308 L 163.009 343.308 L 163.009 338.041 L 164.689 338.041 L 164.689 350.428 L 163.009 350.428 L 163.009 344.707 L 156.676 344.707 L 156.676 350.428 L 154.996 350.428 L 154.996 338.041 " fill="#000000"/>
<path class="atom-21" d="M 166.001 348.381 L 167.751 348.381 L 167.751 350.131 L 166.001 350.131 L 166.001 348.381 M 166.001 342.363 L 167.751 342.363 L 167.751 344.112 L 166.001 344.112 L 166.001 342.363 " fill="#000000"/>
<path class="atom-21" d="M 168.66 340.386 Q 169.115 339.213, 170.2 338.566 Q 171.285 337.901, 172.789 337.901 Q 174.661 337.901, 175.711 338.916 Q 176.761 339.931, 176.761 341.733 Q 176.761 343.57, 175.396 345.285 Q 174.049 346.999, 171.25 349.029 L 176.971 349.029 L 176.971 350.428 L 168.625 350.428 L 168.625 349.256 Q 170.935 347.612, 172.299 346.387 Q 173.682 345.162, 174.346 344.06 Q 175.011 342.958, 175.011 341.82 Q 175.011 340.631, 174.416 339.966 Q 173.822 339.301, 172.789 339.301 Q 171.792 339.301, 171.127 339.703 Q 170.462 340.106, 169.99 340.998 L 168.66 340.386 " fill="#000000"/>
<path class="atom-21" d="M 177.881 340.386 Q 178.336 339.213, 179.42 338.566 Q 180.505 337.901, 182.01 337.901 Q 183.882 337.901, 184.932 338.916 Q 185.981 339.931, 185.981 341.733 Q 185.981 343.57, 184.617 345.285 Q 183.269 346.999, 180.47 349.029 L 186.191 349.029 L 186.191 350.428 L 177.846 350.428 L 177.846 349.256 Q 180.155 347.612, 181.52 346.387 Q 182.902 345.162, 183.567 344.06 Q 184.232 342.958, 184.232 341.82 Q 184.232 340.631, 183.637 339.966 Q 183.042 339.301, 182.01 339.301 Q 181.012 339.301, 180.348 339.703 Q 179.683 340.106, 179.21 340.998 L 177.881 340.386 " fill="#000000"/>
<path class="atom-22" d="M 151.978 258.225 Q 151.978 255.25, 153.447 253.588 Q 154.917 251.926, 157.664 251.926 Q 160.411 251.926, 161.88 253.588 Q 163.35 255.25, 163.35 258.225 Q 163.35 261.234, 161.863 262.948 Q 160.376 264.646, 157.664 264.646 Q 154.934 264.646, 153.447 262.948 Q 151.978 261.251, 151.978 258.225 M 157.664 263.246 Q 159.553 263.246, 160.568 261.986 Q 161.6 260.709, 161.6 258.225 Q 161.6 255.793, 160.568 254.568 Q 159.553 253.326, 157.664 253.326 Q 155.774 253.326, 154.742 254.55 Q 153.727 255.775, 153.727 258.225 Q 153.727 260.726, 154.742 261.986 Q 155.774 263.246, 157.664 263.246 " fill="#FF0000"/>
<path class="atom-22" d="M 164.662 262.406 L 166.412 262.406 L 166.412 264.156 L 164.662 264.156 L 164.662 262.406 M 164.662 256.387 L 166.412 256.387 L 166.412 258.137 L 164.662 258.137 L 164.662 256.387 " fill="#FF0000"/>
<path class="atom-22" d="M 167.322 254.41 Q 167.776 253.238, 168.861 252.591 Q 169.946 251.926, 171.451 251.926 Q 173.323 251.926, 174.372 252.941 Q 175.422 253.956, 175.422 255.758 Q 175.422 257.595, 174.058 259.309 Q 172.71 261.024, 169.911 263.053 L 175.632 263.053 L 175.632 264.453 L 167.287 264.453 L 167.287 263.281 Q 169.596 261.636, 170.961 260.412 Q 172.343 259.187, 173.008 258.085 Q 173.673 256.982, 173.673 255.845 Q 173.673 254.655, 173.078 253.99 Q 172.483 253.326, 171.451 253.326 Q 170.453 253.326, 169.789 253.728 Q 169.124 254.13, 168.651 255.023 L 167.322 254.41 " fill="#FF0000"/>
<path class="atom-22" d="M 182.316 257.927 Q 183.523 258.277, 184.1 259.064 Q 184.695 259.834, 184.695 261.059 Q 184.695 262.109, 184.17 262.931 Q 183.645 263.736, 182.683 264.191 Q 181.721 264.628, 180.461 264.628 Q 179.131 264.628, 178.134 264.173 Q 177.154 263.701, 176.367 262.756 L 177.364 261.741 Q 178.134 262.581, 178.781 262.913 Q 179.429 263.228, 180.461 263.228 Q 181.581 263.228, 182.263 262.633 Q 182.945 262.021, 182.945 261.041 Q 182.945 259.782, 182.228 259.222 Q 181.528 258.644, 180.006 258.644 L 179.114 258.644 L 179.114 257.385 L 179.901 257.385 Q 181.248 257.367, 181.966 256.79 Q 182.683 256.195, 182.683 255.093 Q 182.683 254.288, 182.088 253.816 Q 181.493 253.326, 180.479 253.326 Q 179.446 253.326, 178.799 253.693 Q 178.169 254.06, 177.679 254.988 L 176.472 254.34 Q 176.909 253.308, 177.959 252.626 Q 179.009 251.926, 180.479 251.926 Q 182.298 251.926, 183.365 252.783 Q 184.433 253.641, 184.433 255.093 Q 184.433 256.09, 183.89 256.807 Q 183.348 257.525, 182.316 257.927 " fill="#FF0000"/>
<path class="atom-23" d="M 333.733 286.484 L 335.413 286.484 L 335.413 291.75 L 341.747 291.75 L 341.747 286.484 L 343.426 286.484 L 343.426 298.871 L 341.747 298.871 L 341.747 293.15 L 335.413 293.15 L 335.413 298.871 L 333.733 298.871 L 333.733 286.484 " fill="#000000"/>
<path class="atom-23" d="M 344.738 296.824 L 346.488 296.824 L 346.488 298.574 L 344.738 298.574 L 344.738 296.824 M 344.738 290.805 L 346.488 290.805 L 346.488 292.555 L 344.738 292.555 L 344.738 290.805 " fill="#000000"/>
<path class="atom-23" d="M 347.398 288.828 Q 347.853 287.656, 348.937 287.009 Q 350.022 286.344, 351.527 286.344 Q 353.399 286.344, 354.449 287.359 Q 355.498 288.373, 355.498 290.176 Q 355.498 292.013, 354.134 293.727 Q 352.787 295.442, 349.987 297.471 L 355.708 297.471 L 355.708 298.871 L 347.363 298.871 L 347.363 297.699 Q 349.672 296.054, 351.037 294.829 Q 352.419 293.605, 353.084 292.502 Q 353.749 291.4, 353.749 290.263 Q 353.749 289.073, 353.154 288.408 Q 352.559 287.744, 351.527 287.744 Q 350.53 287.744, 349.865 288.146 Q 349.2 288.548, 348.727 289.441 L 347.398 288.828 " fill="#000000"/>
<path class="atom-23" d="M 364.281 294.62 L 365.769 294.62 L 365.769 296.019 L 364.281 296.019 L 364.281 298.871 L 362.637 298.871 L 362.637 296.019 L 356.233 296.019 L 356.233 294.917 L 361.657 286.484 L 364.281 286.484 L 364.281 294.62 M 358.263 294.62 L 362.637 294.62 L 362.637 287.604 L 358.263 294.62 " fill="#000000"/>
<path class="atom-24" d="M 281.376 135.504 L 283.056 135.504 L 283.056 140.771 L 289.389 140.771 L 289.389 135.504 L 291.069 135.504 L 291.069 147.891 L 289.389 147.891 L 289.389 142.17 L 283.056 142.17 L 283.056 147.891 L 281.376 147.891 L 281.376 135.504 " fill="#000000"/>
<path class="atom-24" d="M 292.381 145.844 L 294.131 145.844 L 294.131 147.594 L 292.381 147.594 L 292.381 145.844 M 292.381 139.826 L 294.131 139.826 L 294.131 141.575 L 292.381 141.575 L 292.381 139.826 " fill="#000000"/>
<path class="atom-24" d="M 295.041 137.849 Q 295.495 136.676, 296.58 136.029 Q 297.665 135.364, 299.17 135.364 Q 301.042 135.364, 302.091 136.379 Q 303.141 137.394, 303.141 139.196 Q 303.141 141.033, 301.776 142.748 Q 300.429 144.462, 297.63 146.492 L 303.351 146.492 L 303.351 147.891 L 295.006 147.891 L 295.006 146.719 Q 297.315 145.075, 298.68 143.85 Q 300.062 142.625, 300.727 141.523 Q 301.392 140.421, 301.392 139.283 Q 301.392 138.094, 300.797 137.429 Q 300.202 136.764, 299.17 136.764 Q 298.172 136.764, 297.507 137.166 Q 296.843 137.569, 296.37 138.461 L 295.041 137.849 " fill="#000000"/>
<path class="atom-24" d="M 308.652 140.141 Q 309.737 140.141, 310.629 140.613 Q 311.522 141.068, 312.029 141.943 Q 312.536 142.8, 312.536 143.972 Q 312.536 145.249, 311.907 146.177 Q 311.294 147.087, 310.28 147.559 Q 309.265 148.031, 308.11 148.031 Q 306.973 148.031, 305.923 147.611 Q 304.873 147.192, 304.156 146.387 L 305.206 145.302 Q 305.783 145.932, 306.57 146.282 Q 307.358 146.614, 308.163 146.614 Q 309.265 146.614, 310.017 145.932 Q 310.787 145.249, 310.787 144.007 Q 310.787 142.695, 310.017 142.083 Q 309.265 141.453, 308.058 141.453 Q 306.973 141.453, 305.766 141.925 L 304.803 141.47 L 305.398 135.504 L 311.767 135.504 L 311.592 136.904 L 306.833 136.904 L 306.465 140.578 Q 307.568 140.141, 308.652 140.141 " fill="#000000"/>
<path class="atom-25" d="M 414.893 270.421 L 416.572 270.421 L 416.572 275.687 L 422.906 275.687 L 422.906 270.421 L 424.585 270.421 L 424.585 282.808 L 422.906 282.808 L 422.906 277.087 L 416.572 277.087 L 416.572 282.808 L 414.893 282.808 L 414.893 270.421 " fill="#000000"/>
<path class="atom-25" d="M 425.898 280.761 L 427.647 280.761 L 427.647 282.51 L 425.898 282.51 L 425.898 280.761 M 425.898 274.742 L 427.647 274.742 L 427.647 276.492 L 425.898 276.492 L 425.898 274.742 " fill="#000000"/>
<path class="atom-25" d="M 428.557 272.765 Q 429.012 271.593, 430.097 270.946 Q 431.181 270.281, 432.686 270.281 Q 434.558 270.281, 435.608 271.296 Q 436.658 272.31, 436.658 274.112 Q 436.658 275.949, 435.293 277.664 Q 433.946 279.379, 431.146 281.408 L 436.868 281.408 L 436.868 282.808 L 428.522 282.808 L 428.522 281.636 Q 430.832 279.991, 432.196 278.766 Q 433.578 277.542, 434.243 276.439 Q 434.908 275.337, 434.908 274.2 Q 434.908 273.01, 434.313 272.345 Q 433.718 271.68, 432.686 271.68 Q 431.689 271.68, 431.024 272.083 Q 430.359 272.485, 429.887 273.378 L 428.557 272.765 " fill="#000000"/>
<path class="atom-25" d="M 442.904 275.075 Q 443.989 275.075, 444.846 275.547 Q 445.703 276.019, 446.175 276.877 Q 446.648 277.734, 446.648 278.819 Q 446.648 280.026, 446.106 280.971 Q 445.581 281.898, 444.636 282.423 Q 443.691 282.948, 442.484 282.948 Q 440.279 282.948, 439.16 281.461 Q 438.057 279.956, 438.057 276.982 Q 438.057 273.693, 439.422 271.995 Q 440.804 270.281, 443.446 270.281 Q 444.216 270.281, 444.863 270.456 Q 445.528 270.631, 446.158 270.998 L 445.476 272.17 Q 444.566 271.68, 443.464 271.68 Q 441.714 271.68, 440.822 272.818 Q 439.929 273.937, 439.824 276.264 Q 440.454 275.687, 441.242 275.39 Q 442.046 275.075, 442.904 275.075 M 442.501 281.513 Q 443.166 281.513, 443.709 281.163 Q 444.268 280.813, 444.583 280.201 Q 444.898 279.589, 444.898 278.836 Q 444.898 277.734, 444.286 277.104 Q 443.674 276.474, 442.589 276.474 Q 441.837 276.474, 441.084 276.789 Q 440.349 277.087, 439.824 277.612 Q 439.894 279.659, 440.542 280.586 Q 441.189 281.513, 442.501 281.513 " fill="#000000"/>
<path class="atom-26" d="M 389.769 120.999 L 391.448 120.999 L 391.448 126.265 L 397.782 126.265 L 397.782 120.999 L 399.461 120.999 L 399.461 133.386 L 397.782 133.386 L 397.782 127.665 L 391.448 127.665 L 391.448 133.386 L 389.769 133.386 L 389.769 120.999 " fill="#000000"/>
<path class="atom-26" d="M 400.774 131.339 L 402.523 131.339 L 402.523 133.089 L 400.774 133.089 L 400.774 131.339 M 400.774 125.32 L 402.523 125.32 L 402.523 127.07 L 400.774 127.07 L 400.774 125.32 " fill="#000000"/>
<path class="atom-26" d="M 403.433 123.343 Q 403.888 122.171, 404.973 121.524 Q 406.057 120.859, 407.562 120.859 Q 409.434 120.859, 410.484 121.874 Q 411.534 122.888, 411.534 124.69 Q 411.534 126.528, 410.169 128.242 Q 408.822 129.957, 406.022 131.986 L 411.744 131.986 L 411.744 133.386 L 403.398 133.386 L 403.398 132.214 Q 405.707 130.569, 407.072 129.344 Q 408.454 128.12, 409.119 127.017 Q 409.784 125.915, 409.784 124.778 Q 409.784 123.588, 409.189 122.923 Q 408.594 122.259, 407.562 122.259 Q 406.565 122.259, 405.9 122.661 Q 405.235 123.063, 404.763 123.956 L 403.433 123.343 " fill="#000000"/>
<path class="atom-26" d="M 418.549 122.398 L 412.058 122.398 L 412.058 120.999 L 420.282 120.999 L 420.282 122.241 L 415.278 133.386 L 413.598 133.386 L 418.549 122.398 " fill="#000000"/>
<path class="atom-27" d="M 445.465 188.457 L 447.145 188.457 L 447.145 193.723 L 453.478 193.723 L 453.478 188.457 L 455.158 188.457 L 455.158 200.844 L 453.478 200.844 L 453.478 195.123 L 447.145 195.123 L 447.145 200.844 L 445.465 200.844 L 445.465 188.457 " fill="#000000"/>
<path class="atom-27" d="M 456.47 198.797 L 458.22 198.797 L 458.22 200.547 L 456.47 200.547 L 456.47 198.797 M 456.47 192.779 L 458.22 192.779 L 458.22 194.528 L 456.47 194.528 L 456.47 192.779 " fill="#000000"/>
<path class="atom-27" d="M 459.129 190.802 Q 459.584 189.629, 460.669 188.982 Q 461.754 188.317, 463.258 188.317 Q 465.131 188.317, 466.18 189.332 Q 467.23 190.347, 467.23 192.149 Q 467.23 193.986, 465.865 195.7 Q 464.518 197.415, 461.719 199.445 L 467.44 199.445 L 467.44 200.844 L 459.094 200.844 L 459.094 199.672 Q 461.404 198.027, 462.769 196.803 Q 464.151 195.578, 464.816 194.476 Q 465.48 193.373, 465.48 192.236 Q 465.48 191.046, 464.886 190.382 Q 464.291 189.717, 463.258 189.717 Q 462.261 189.717, 461.596 190.119 Q 460.932 190.522, 460.459 191.414 L 459.129 190.802 " fill="#000000"/>
<path class="atom-27" d="M 474.841 194.283 Q 475.978 194.773, 476.625 195.508 Q 477.273 196.225, 477.273 197.45 Q 477.273 198.5, 476.73 199.322 Q 476.188 200.127, 475.208 200.582 Q 474.246 201.019, 472.969 201.019 Q 470.904 201.019, 469.714 200.074 Q 468.525 199.112, 468.525 197.45 Q 468.525 196.435, 469.05 195.683 Q 469.575 194.913, 470.659 194.336 Q 469.854 193.881, 469.417 193.216 Q 468.98 192.534, 468.98 191.484 Q 468.98 190.032, 470.029 189.174 Q 471.097 188.317, 472.899 188.317 Q 474.701 188.317, 475.751 189.174 Q 476.818 190.032, 476.818 191.484 Q 476.818 192.394, 476.31 193.076 Q 475.821 193.741, 474.841 194.283 M 472.899 189.629 Q 471.866 189.629, 471.289 190.119 Q 470.729 190.609, 470.729 191.484 Q 470.729 192.131, 471.114 192.569 Q 471.499 192.989, 472.041 193.233 Q 472.601 193.478, 473.669 193.846 Q 474.421 193.321, 474.736 192.761 Q 475.068 192.201, 475.068 191.484 Q 475.068 190.609, 474.491 190.119 Q 473.931 189.629, 472.899 189.629 M 472.969 199.707 Q 474.123 199.707, 474.823 199.095 Q 475.523 198.465, 475.523 197.433 Q 475.523 196.768, 475.156 196.348 Q 474.788 195.928, 474.228 195.683 Q 473.686 195.438, 472.706 195.123 L 471.919 194.861 Q 471.044 195.385, 470.659 196.015 Q 470.274 196.628, 470.274 197.433 Q 470.274 198.465, 471.009 199.095 Q 471.744 199.707, 472.969 199.707 " fill="#000000"/>
<path class="atom-28" d="M 189.383 116.28 L 191.062 116.28 L 191.062 121.547 L 197.396 121.547 L 197.396 116.28 L 199.076 116.28 L 199.076 128.668 L 197.396 128.668 L 197.396 122.946 L 191.062 122.946 L 191.062 128.668 L 189.383 128.668 L 189.383 116.28 " fill="#000000"/>
<path class="atom-28" d="M 200.388 126.621 L 202.137 126.621 L 202.137 128.37 L 200.388 128.37 L 200.388 126.621 M 200.388 120.602 L 202.137 120.602 L 202.137 122.352 L 200.388 122.352 L 200.388 120.602 " fill="#000000"/>
<path class="atom-28" d="M 203.047 118.625 Q 203.502 117.453, 204.587 116.805 Q 205.672 116.141, 207.176 116.141 Q 209.048 116.141, 210.098 117.155 Q 211.148 118.17, 211.148 119.972 Q 211.148 121.809, 209.783 123.524 Q 208.436 125.238, 205.637 127.268 L 211.358 127.268 L 211.358 128.668 L 203.012 128.668 L 203.012 127.495 Q 205.322 125.851, 206.686 124.626 Q 208.068 123.401, 208.733 122.299 Q 209.398 121.197, 209.398 120.06 Q 209.398 118.87, 208.803 118.205 Q 208.208 117.54, 207.176 117.54 Q 206.179 117.54, 205.514 117.943 Q 204.849 118.345, 204.377 119.237 L 203.047 118.625 " fill="#000000"/>
<path class="atom-28" d="M 216.484 116.141 Q 218.689 116.141, 219.791 117.645 Q 220.911 119.132, 220.911 122.107 Q 220.911 125.396, 219.528 127.11 Q 218.164 128.808, 215.522 128.808 Q 214.752 128.808, 214.087 128.633 Q 213.44 128.458, 212.81 128.09 L 213.492 126.918 Q 214.402 127.408, 215.504 127.408 Q 217.254 127.408, 218.146 126.288 Q 219.038 125.151, 219.143 122.824 Q 218.514 123.401, 217.709 123.716 Q 216.921 124.014, 216.064 124.014 Q 214.979 124.014, 214.122 123.541 Q 213.265 123.069, 212.792 122.212 Q 212.32 121.354, 212.32 120.27 Q 212.32 119.062, 212.845 118.135 Q 213.387 117.19, 214.332 116.665 Q 215.277 116.141, 216.484 116.141 M 214.07 120.252 Q 214.07 121.354, 214.682 121.984 Q 215.294 122.614, 216.379 122.614 Q 217.131 122.614, 217.866 122.317 Q 218.619 122.002, 219.143 121.477 Q 219.073 119.43, 218.426 118.502 Q 217.779 117.575, 216.467 117.575 Q 215.802 117.575, 215.242 117.925 Q 214.699 118.275, 214.385 118.887 Q 214.07 119.5, 214.07 120.252 " fill="#000000"/>
<path class="atom-29" d="M 105.668 280.208 L 107.348 280.208 L 107.348 285.474 L 113.681 285.474 L 113.681 280.208 L 115.361 280.208 L 115.361 292.595 L 113.681 292.595 L 113.681 286.874 L 107.348 286.874 L 107.348 292.595 L 105.668 292.595 L 105.668 280.208 " fill="#000000"/>
<path class="atom-29" d="M 116.673 290.548 L 118.423 290.548 L 118.423 292.298 L 116.673 292.298 L 116.673 290.548 M 116.673 284.529 L 118.423 284.529 L 118.423 286.279 L 116.673 286.279 L 116.673 284.529 " fill="#000000"/>
<path class="atom-29" d="M 125.106 286.069 Q 126.314 286.419, 126.891 287.206 Q 127.486 287.976, 127.486 289.201 Q 127.486 290.251, 126.961 291.073 Q 126.436 291.878, 125.474 292.333 Q 124.511 292.77, 123.252 292.77 Q 121.922 292.77, 120.925 292.315 Q 119.945 291.843, 119.158 290.898 L 120.155 289.883 Q 120.925 290.723, 121.572 291.055 Q 122.22 291.37, 123.252 291.37 Q 124.372 291.37, 125.054 290.775 Q 125.736 290.163, 125.736 289.183 Q 125.736 287.924, 125.019 287.364 Q 124.319 286.786, 122.797 286.786 L 121.905 286.786 L 121.905 285.527 L 122.692 285.527 Q 124.039 285.509, 124.756 284.932 Q 125.474 284.337, 125.474 283.235 Q 125.474 282.43, 124.879 281.957 Q 124.284 281.468, 123.269 281.468 Q 122.237 281.468, 121.59 281.835 Q 120.96 282.202, 120.47 283.13 L 119.263 282.482 Q 119.7 281.45, 120.75 280.768 Q 121.8 280.068, 123.269 280.068 Q 125.089 280.068, 126.156 280.925 Q 127.223 281.782, 127.223 283.235 Q 127.223 284.232, 126.681 284.949 Q 126.139 285.667, 125.106 286.069 " fill="#000000"/>
<path class="atom-29" d="M 133.084 292.735 Q 130.81 292.735, 129.673 291.055 Q 128.553 289.376, 128.553 286.384 Q 128.553 283.392, 129.673 281.73 Q 130.793 280.068, 133.084 280.068 Q 135.376 280.068, 136.496 281.73 Q 137.616 283.392, 137.616 286.384 Q 137.616 289.376, 136.479 291.055 Q 135.359 292.735, 133.084 292.735 M 133.084 291.335 Q 134.432 291.335, 135.149 290.093 Q 135.866 288.833, 135.866 286.384 Q 135.866 283.952, 135.149 282.71 Q 134.432 281.468, 133.084 281.468 Q 131.755 281.468, 131.02 282.71 Q 130.303 283.952, 130.303 286.384 Q 130.303 288.833, 131.02 290.093 Q 131.755 291.335, 133.084 291.335 " fill="#000000"/>
<path class="atom-30" d="M 81.4628 130.786 L 83.1424 130.786 L 83.1424 136.052 L 89.4759 136.052 L 89.4759 130.786 L 91.1555 130.786 L 91.1555 143.173 L 89.4759 143.173 L 89.4759 137.452 L 83.1424 137.452 L 83.1424 143.173 L 81.4628 143.173 L 81.4628 130.786 " fill="#000000"/>
<path class="atom-30" d="M 92.4677 141.126 L 94.2173 141.126 L 94.2173 142.876 L 92.4677 142.876 L 92.4677 141.126 M 92.4677 135.107 L 94.2173 135.107 L 94.2173 136.857 L 92.4677 136.857 L 92.4677 135.107 " fill="#000000"/>
<path class="atom-30" d="M 100.901 136.647 Q 102.108 136.997, 102.685 137.784 Q 103.28 138.554, 103.28 139.779 Q 103.28 140.829, 102.755 141.651 Q 102.23 142.456, 101.268 142.911 Q 100.306 143.348, 99.0462 143.348 Q 97.7165 143.348, 96.7192 142.893 Q 95.7395 142.421, 94.9522 141.476 L 95.9494 140.461 Q 96.7192 141.301, 97.3666 141.633 Q 98.0139 141.948, 99.0462 141.948 Q 100.166 141.948, 100.848 141.353 Q 101.531 140.741, 101.531 139.761 Q 101.531 138.502, 100.813 137.942 Q 100.113 137.364, 98.5913 137.364 L 97.699 137.364 L 97.699 136.105 L 98.4863 136.105 Q 99.8335 136.087, 100.551 135.51 Q 101.268 134.915, 101.268 133.813 Q 101.268 133.008, 100.673 132.535 Q 100.078 132.046, 99.0637 132.046 Q 98.0314 132.046, 97.3841 132.413 Q 96.7542 132.78, 96.2644 133.708 L 95.0571 133.06 Q 95.4945 132.028, 96.5443 131.346 Q 97.594 130.646, 99.0637 130.646 Q 100.883 130.646, 101.951 131.503 Q 103.018 132.361, 103.018 133.813 Q 103.018 134.81, 102.475 135.527 Q 101.933 136.245, 100.901 136.647 " fill="#000000"/>
<path class="atom-30" d="M 104.907 141.773 L 107.619 141.773 L 107.619 132.518 L 104.627 133.445 L 104.225 132.413 L 108.022 130.716 L 109.264 130.926 L 109.264 141.773 L 111.696 141.773 L 111.696 143.173 L 104.907 143.173 L 104.907 141.773 " fill="#000000"/>
<path class="atom-31" d="M 60.3076 212.75 L 64.3667 219.311 Q 64.7691 219.958, 65.4164 221.13 Q 66.0638 222.302, 66.0988 222.372 L 66.0988 212.75 L 67.7434 212.75 L 67.7434 225.137 L 66.0463 225.137 L 61.6898 217.963 Q 61.1824 217.124, 60.64 216.161 Q 60.1152 215.199, 59.9577 214.902 L 59.9577 225.137 L 58.3481 225.137 L 58.3481 212.75 L 60.3076 212.75 " fill="#0000FF"/>
<path class="atom-31" d="M 69.0556 223.09 L 70.8052 223.09 L 70.8052 224.839 L 69.0556 224.839 L 69.0556 223.09 M 69.0556 217.071 L 70.8052 217.071 L 70.8052 218.821 L 69.0556 218.821 L 69.0556 217.071 " fill="#0000FF"/>
<path class="atom-31" d="M 77.4887 218.611 Q 78.6959 218.961, 79.2732 219.748 Q 79.8681 220.518, 79.8681 221.742 Q 79.8681 222.792, 79.3432 223.615 Q 78.8183 224.419, 77.8561 224.874 Q 76.8938 225.312, 75.6341 225.312 Q 74.3044 225.312, 73.3071 224.857 Q 72.3273 224.384, 71.54 223.44 L 72.5373 222.425 Q 73.3071 223.265, 73.9545 223.597 Q 74.6018 223.912, 75.6341 223.912 Q 76.7538 223.912, 77.4362 223.317 Q 78.1185 222.705, 78.1185 221.725 Q 78.1185 220.465, 77.4012 219.905 Q 76.7013 219.328, 75.1792 219.328 L 74.2869 219.328 L 74.2869 218.068 L 75.0742 218.068 Q 76.4214 218.051, 77.1387 217.473 Q 77.8561 216.879, 77.8561 215.776 Q 77.8561 214.972, 77.2612 214.499 Q 76.6663 214.009, 75.6516 214.009 Q 74.6193 214.009, 73.972 214.377 Q 73.3421 214.744, 72.8522 215.671 L 71.645 215.024 Q 72.0824 213.992, 73.1322 213.309 Q 74.1819 212.61, 75.6516 212.61 Q 77.4712 212.61, 78.5384 213.467 Q 79.6057 214.324, 79.6057 215.776 Q 79.6057 216.774, 79.0633 217.491 Q 78.5209 218.208, 77.4887 218.611 " fill="#0000FF"/>
<path class="atom-31" d="M 80.7779 215.094 Q 81.2328 213.922, 82.3175 213.274 Q 83.4023 212.61, 84.9069 212.61 Q 86.779 212.61, 87.8288 213.624 Q 88.8785 214.639, 88.8785 216.441 Q 88.8785 218.278, 87.5138 219.993 Q 86.1666 221.708, 83.3673 223.737 L 89.0885 223.737 L 89.0885 225.137 L 80.7429 225.137 L 80.7429 223.964 Q 83.0524 222.32, 84.417 221.095 Q 85.7992 219.87, 86.4641 218.768 Q 87.1289 217.666, 87.1289 216.529 Q 87.1289 215.339, 86.5341 214.674 Q 85.9392 214.009, 84.9069 214.009 Q 83.9097 214.009, 83.2448 214.412 Q 82.58 214.814, 82.1076 215.706 L 80.7779 215.094 " fill="#0000FF"/>
<path class="atom-32" d="M 324.957 302.092 L 326.636 302.092 L 326.636 307.358 L 332.97 307.358 L 332.97 302.092 L 334.65 302.092 L 334.65 314.479 L 332.97 314.479 L 332.97 308.758 L 326.636 308.758 L 326.636 314.479 L 324.957 314.479 L 324.957 302.092 " fill="#000000"/>
<path class="atom-32" d="M 335.962 312.432 L 337.711 312.432 L 337.711 314.182 L 335.962 314.182 L 335.962 312.432 M 335.962 306.413 L 337.711 306.413 L 337.711 308.163 L 335.962 308.163 L 335.962 306.413 " fill="#000000"/>
<path class="atom-32" d="M 344.395 307.953 Q 345.602 308.303, 346.179 309.09 Q 346.774 309.86, 346.774 311.085 Q 346.774 312.134, 346.249 312.957 Q 345.724 313.762, 344.762 314.217 Q 343.8 314.654, 342.54 314.654 Q 341.21 314.654, 340.213 314.199 Q 339.233 313.727, 338.446 312.782 L 339.443 311.767 Q 340.213 312.607, 340.861 312.939 Q 341.508 313.254, 342.54 313.254 Q 343.66 313.254, 344.342 312.659 Q 345.025 312.047, 345.025 311.067 Q 345.025 309.808, 344.307 309.248 Q 343.607 308.67, 342.085 308.67 L 341.193 308.67 L 341.193 307.411 L 341.98 307.411 Q 343.328 307.393, 344.045 306.816 Q 344.762 306.221, 344.762 305.119 Q 344.762 304.314, 344.167 303.841 Q 343.572 303.352, 342.558 303.352 Q 341.525 303.352, 340.878 303.719 Q 340.248 304.086, 339.758 305.014 L 338.551 304.366 Q 338.989 303.334, 340.038 302.652 Q 341.088 301.952, 342.558 301.952 Q 344.377 301.952, 345.445 302.809 Q 346.512 303.666, 346.512 305.119 Q 346.512 306.116, 345.969 306.833 Q 345.427 307.551, 344.395 307.953 " fill="#000000"/>
<path class="atom-32" d="M 353.458 307.953 Q 354.665 308.303, 355.242 309.09 Q 355.837 309.86, 355.837 311.085 Q 355.837 312.134, 355.312 312.957 Q 354.787 313.762, 353.825 314.217 Q 352.863 314.654, 351.603 314.654 Q 350.273 314.654, 349.276 314.199 Q 348.296 313.727, 347.509 312.782 L 348.506 311.767 Q 349.276 312.607, 349.923 312.939 Q 350.571 313.254, 351.603 313.254 Q 352.723 313.254, 353.405 312.659 Q 354.088 312.047, 354.088 311.067 Q 354.088 309.808, 353.37 309.248 Q 352.67 308.67, 351.148 308.67 L 350.256 308.67 L 350.256 307.411 L 351.043 307.411 Q 352.39 307.393, 353.108 306.816 Q 353.825 306.221, 353.825 305.119 Q 353.825 304.314, 353.23 303.841 Q 352.635 303.352, 351.621 303.352 Q 350.588 303.352, 349.941 303.719 Q 349.311 304.086, 348.821 305.014 L 347.614 304.366 Q 348.051 303.334, 349.101 302.652 Q 350.151 301.952, 351.621 301.952 Q 353.44 301.952, 354.507 302.809 Q 355.575 303.666, 355.575 305.119 Q 355.575 306.116, 355.032 306.833 Q 354.49 307.551, 353.458 307.953 " fill="#000000"/>
<path class="atom-33" d="M 266.331 371.297 L 268.011 371.297 L 268.011 376.564 L 274.344 376.564 L 274.344 371.297 L 276.024 371.297 L 276.024 383.685 L 274.344 383.685 L 274.344 377.963 L 268.011 377.963 L 268.011 383.685 L 266.331 383.685 L 266.331 371.297 " fill="#000000"/>
<path class="atom-33" d="M 277.336 381.637 L 279.086 381.637 L 279.086 383.387 L 277.336 383.387 L 277.336 381.637 M 277.336 375.619 L 279.086 375.619 L 279.086 377.368 L 277.336 377.368 L 277.336 375.619 " fill="#000000"/>
<path class="atom-33" d="M 285.769 377.159 Q 286.976 377.508, 287.554 378.296 Q 288.148 379.066, 288.148 380.29 Q 288.148 381.34, 287.624 382.162 Q 287.099 382.967, 286.136 383.422 Q 285.174 383.859, 283.914 383.859 Q 282.585 383.859, 281.587 383.405 Q 280.608 382.932, 279.82 381.987 L 280.818 380.973 Q 281.587 381.812, 282.235 382.145 Q 282.882 382.46, 283.914 382.46 Q 285.034 382.46, 285.716 381.865 Q 286.399 381.253, 286.399 380.273 Q 286.399 379.013, 285.681 378.453 Q 284.982 377.876, 283.46 377.876 L 282.567 377.876 L 282.567 376.616 L 283.355 376.616 Q 284.702 376.599, 285.419 376.021 Q 286.136 375.426, 286.136 374.324 Q 286.136 373.519, 285.542 373.047 Q 284.947 372.557, 283.932 372.557 Q 282.9 372.557, 282.252 372.924 Q 281.622 373.292, 281.133 374.219 L 279.925 373.572 Q 280.363 372.54, 281.412 371.857 Q 282.462 371.157, 283.932 371.157 Q 285.751 371.157, 286.819 372.015 Q 287.886 372.872, 287.886 374.324 Q 287.886 375.321, 287.344 376.039 Q 286.801 376.756, 285.769 377.159 " fill="#000000"/>
<path class="atom-33" d="M 296.721 379.433 L 298.209 379.433 L 298.209 380.833 L 296.721 380.833 L 296.721 383.685 L 295.077 383.685 L 295.077 380.833 L 288.673 380.833 L 288.673 379.73 L 294.097 371.297 L 296.721 371.297 L 296.721 379.433 M 290.703 379.433 L 295.077 379.433 L 295.077 372.417 L 290.703 379.433 " fill="#000000"/>
<path class="atom-34" d="M 22.7273 179.02 L 24.4069 179.02 L 24.4069 184.287 L 30.7404 184.287 L 30.7404 179.02 L 32.42 179.02 L 32.42 191.408 L 30.7404 191.408 L 30.7404 185.686 L 24.4069 185.686 L 24.4069 191.408 L 22.7273 191.408 L 22.7273 179.02 " fill="#000000"/>
<path class="atom-34" d="M 33.7322 189.361 L 35.4818 189.361 L 35.4818 191.11 L 33.7322 191.11 L 33.7322 189.361 M 33.7322 183.342 L 35.4818 183.342 L 35.4818 185.092 L 33.7322 185.092 L 33.7322 183.342 " fill="#000000"/>
<path class="atom-34" d="M 42.1653 184.882 Q 43.3725 185.232, 43.9499 186.019 Q 44.5447 186.789, 44.5447 188.013 Q 44.5447 189.063, 44.0199 189.885 Q 43.495 190.69, 42.5327 191.145 Q 41.5704 191.583, 40.3107 191.583 Q 38.981 191.583, 37.9837 191.128 Q 37.004 190.655, 36.2167 189.71 L 37.2139 188.696 Q 37.9837 189.536, 38.6311 189.868 Q 39.2784 190.183, 40.3107 190.183 Q 41.4304 190.183, 42.1128 189.588 Q 42.7951 188.976, 42.7951 187.996 Q 42.7951 186.736, 42.0778 186.176 Q 41.378 185.599, 39.8558 185.599 L 38.9635 185.599 L 38.9635 184.339 L 39.7508 184.339 Q 41.098 184.322, 41.8154 183.744 Q 42.5327 183.149, 42.5327 182.047 Q 42.5327 181.242, 41.9378 180.77 Q 41.343 180.28, 40.3282 180.28 Q 39.2959 180.28, 38.6486 180.648 Q 38.0187 181.015, 37.5289 181.942 L 36.3216 181.295 Q 36.759 180.263, 37.8088 179.58 Q 38.8585 178.88, 40.3282 178.88 Q 42.1478 178.88, 43.215 179.738 Q 44.2823 180.595, 44.2823 182.047 Q 44.2823 183.045, 43.7399 183.762 Q 43.1975 184.479, 42.1653 184.882 " fill="#000000"/>
<path class="atom-34" d="M 49.846 183.657 Q 50.9308 183.657, 51.823 184.129 Q 52.7153 184.584, 53.2227 185.459 Q 53.7301 186.316, 53.7301 187.488 Q 53.7301 188.766, 53.1003 189.693 Q 52.4879 190.603, 51.4731 191.075 Q 50.4584 191.548, 49.3036 191.548 Q 48.1664 191.548, 47.1166 191.128 Q 46.0669 190.708, 45.3495 189.903 L 46.3993 188.818 Q 46.9767 189.448, 47.764 189.798 Q 48.5513 190.13, 49.3561 190.13 Q 50.4584 190.13, 51.2107 189.448 Q 51.9805 188.766, 51.9805 187.523 Q 51.9805 186.211, 51.2107 185.599 Q 50.4584 184.969, 49.2511 184.969 Q 48.1664 184.969, 46.9592 185.441 L 45.9969 184.987 L 46.5918 179.02 L 52.9603 179.02 L 52.7853 180.42 L 48.0264 180.42 L 47.659 184.094 Q 48.7613 183.657, 49.846 183.657 " fill="#000000"/>
<path class="atom-35" d="M 34.7994 253.731 L 36.479 253.731 L 36.479 258.998 L 42.8126 258.998 L 42.8126 253.731 L 44.4922 253.731 L 44.4922 266.119 L 42.8126 266.119 L 42.8126 260.397 L 36.479 260.397 L 36.479 266.119 L 34.7994 266.119 L 34.7994 253.731 " fill="#000000"/>
<path class="atom-35" d="M 45.8044 264.072 L 47.554 264.072 L 47.554 265.821 L 45.8044 265.821 L 45.8044 264.072 M 45.8044 258.053 L 47.554 258.053 L 47.554 259.803 L 45.8044 259.803 L 45.8044 258.053 " fill="#000000"/>
<path class="atom-35" d="M 54.2374 259.593 Q 55.4447 259.942, 56.022 260.73 Q 56.6169 261.5, 56.6169 262.724 Q 56.6169 263.774, 56.092 264.596 Q 55.5671 265.401, 54.6049 265.856 Q 53.6426 266.294, 52.3829 266.294 Q 51.0532 266.294, 50.0559 265.839 Q 49.0761 265.366, 48.2888 264.421 L 49.2861 263.407 Q 50.0559 264.246, 50.7033 264.579 Q 51.3506 264.894, 52.3829 264.894 Q 53.5026 264.894, 54.185 264.299 Q 54.8673 263.687, 54.8673 262.707 Q 54.8673 261.447, 54.15 260.887 Q 53.4501 260.31, 51.928 260.31 L 51.0357 260.31 L 51.0357 259.05 L 51.823 259.05 Q 53.1702 259.033, 53.8875 258.455 Q 54.6049 257.86, 54.6049 256.758 Q 54.6049 255.953, 54.01 255.481 Q 53.4151 254.991, 52.4004 254.991 Q 51.3681 254.991, 50.7208 255.359 Q 50.0909 255.726, 49.601 256.653 L 48.3938 256.006 Q 48.8312 254.974, 49.8809 254.291 Q 50.9307 253.591, 52.4004 253.591 Q 54.2199 253.591, 55.2872 254.449 Q 56.3545 255.306, 56.3545 256.758 Q 56.3545 257.755, 55.8121 258.473 Q 55.2697 259.19, 54.2374 259.593 " fill="#000000"/>
<path class="atom-35" d="M 62.653 258.385 Q 63.7377 258.385, 64.595 258.858 Q 65.4524 259.33, 65.9247 260.187 Q 66.3971 261.045, 66.3971 262.129 Q 66.3971 263.337, 65.8548 264.281 Q 65.3299 265.209, 64.3851 265.734 Q 63.4403 266.259, 62.2331 266.259 Q 60.0286 266.259, 58.9089 264.771 Q 57.8066 263.267, 57.8066 260.292 Q 57.8066 257.003, 59.1713 255.306 Q 60.5535 253.591, 63.1954 253.591 Q 63.9652 253.591, 64.6125 253.766 Q 65.2774 253.941, 65.9072 254.309 L 65.2249 255.481 Q 64.3151 254.991, 63.2129 254.991 Q 61.4633 254.991, 60.571 256.128 Q 59.6787 257.248, 59.5737 259.575 Q 60.2036 258.998, 60.9909 258.7 Q 61.7957 258.385, 62.653 258.385 M 62.2506 264.824 Q 62.9154 264.824, 63.4578 264.474 Q 64.0177 264.124, 64.3326 263.512 Q 64.6475 262.899, 64.6475 262.147 Q 64.6475 261.045, 64.0352 260.415 Q 63.4228 259.785, 62.3381 259.785 Q 61.5857 259.785, 60.8334 260.1 Q 60.0986 260.397, 59.5737 260.922 Q 59.6437 262.969, 60.291 263.897 Q 60.9384 264.824, 62.2506 264.824 " fill="#000000"/>
<text x="228.3584430726499" y="193.48870135669335" font-size="12" font-family="Verdana" font-weight="bold" letter-spacing="0" text-anchor="start" fill="black" transform=" rotate(80.455454 228.358443 193.488701)">0.032</text><text x="25" y="490" font-size="12" font-family="Verdana" font-weight="bold" letter-spacing="0" text-anchor="start" fill="black">[#6:1]1(:[#6:2](-[#7:3](/[#6:4](=[#6:6]2/[#6:8](=[#6:10](-[#7:7](-[#6:9]-2=[#8:23])-[H:22])-[H:34])-[H:33])-[#6:11]2:[#6:12](:[#6:14](:[#6:16](:[#6:15](:[#6:13]:2-[H:25])-[H:27])-[H:28])-[H:26])-[H:24])-[H:5]):[#6:17](:[#6:19](:[#6:20](:[#6:18]:1-[H:30])-[#7:32](-[H:35])-[H:36])-[H:31])-[H:29])-[H:21]</text></svg>
