<?xml version='1.0' encoding='ASCII' standalone='yes'?>
<svg xmlns="http://www.w3.org/2000/svg" xmlns:rdkit="http://www.rdkit.org/xml" xmlns:xlink="http://www.w3.org/1999/xlink" version="1.1" baseProfile="full" xml:space="preserve" width="500px" height="500px" viewBox="0 0 500 500">
<!-- END OF HEADER -->
<rect style="opacity:1.0;fill:#FFFFFF;stroke:none" width="500.0" height="500.0" x="0.0" y="0.0"> </rect>
<path d="M 325.0,274.2 L 259.7,258.1" style="fill:none;fill-rule:evenodd;stroke:#FF7F7F;stroke-width:14.4px;stroke-linecap:butt;stroke-linejoin:miter;stroke-opacity:1"/>
<path class="bond-0 atom-0 atom-11" d="M 368.8,215.9 L 356.1,172.1" style="fill:none;fill-rule:evenodd;stroke:#000000;stroke-width:2.0px;stroke-linecap:butt;stroke-linejoin:miter;stroke-opacity:1"/>
<path class="bond-1 atom-0 atom-12" d="M 382.0,235.1 L 403.6,240.4" style="fill:none;fill-rule:evenodd;stroke:#000000;stroke-width:2.0px;stroke-linecap:butt;stroke-linejoin:miter;stroke-opacity:1"/>
<path class="bond-1 atom-0 atom-12" d="M 403.6,240.4 L 425.2,245.8" style="fill:none;fill-rule:evenodd;stroke:#FF0000;stroke-width:2.0px;stroke-linecap:butt;stroke-linejoin:miter;stroke-opacity:1"/>
<path class="bond-1 atom-0 atom-12" d="M 385.3,222.1 L 406.8,227.4" style="fill:none;fill-rule:evenodd;stroke:#000000;stroke-width:2.0px;stroke-linecap:butt;stroke-linejoin:miter;stroke-opacity:1"/>
<path class="bond-1 atom-0 atom-12" d="M 406.8,227.4 L 428.4,232.7" style="fill:none;fill-rule:evenodd;stroke:#FF0000;stroke-width:2.0px;stroke-linecap:butt;stroke-linejoin:miter;stroke-opacity:1"/>
<path class="bond-3 atom-1 atom-0" d="M 335.9,262.8 L 348.4,249.8" style="fill:none;fill-rule:evenodd;stroke:#0000FF;stroke-width:2.0px;stroke-linecap:butt;stroke-linejoin:miter;stroke-opacity:1"/>
<path class="bond-3 atom-1 atom-0" d="M 348.4,249.8 L 360.9,236.8" style="fill:none;fill-rule:evenodd;stroke:#000000;stroke-width:2.0px;stroke-linecap:butt;stroke-linejoin:miter;stroke-opacity:1"/>
<path class="bond-2 atom-1 atom-2" d="M 301.2,268.3 L 286.4,264.7" style="fill:none;fill-rule:evenodd;stroke:#0000FF;stroke-width:2.0px;stroke-linecap:butt;stroke-linejoin:miter;stroke-opacity:1"/>
<path class="bond-2 atom-1 atom-2" d="M 286.4,264.7 L 271.7,261.0" style="fill:none;fill-rule:evenodd;stroke:#000000;stroke-width:2.0px;stroke-linecap:butt;stroke-linejoin:miter;stroke-opacity:1"/>
<path class="bond-4 atom-1 atom-4" d="M 328.3,285.5 L 334.5,306.7" style="fill:none;fill-rule:evenodd;stroke:#0000FF;stroke-width:2.0px;stroke-linecap:butt;stroke-linejoin:miter;stroke-opacity:1"/>
<path class="bond-4 atom-1 atom-4" d="M 334.5,306.7 L 340.6,328.0" style="fill:none;fill-rule:evenodd;stroke:#000000;stroke-width:2.0px;stroke-linecap:butt;stroke-linejoin:miter;stroke-opacity:1"/>
<path class="bond-5 atom-3 atom-2" d="M 244.3,205.0 L 256.5,247.1" style="fill:none;fill-rule:evenodd;stroke:#000000;stroke-width:2.0px;stroke-linecap:butt;stroke-linejoin:miter;stroke-opacity:1"/>
<path class="bond-5 atom-3 atom-2" d="M 233.2,215.1 L 241.8,244.5" style="fill:none;fill-rule:evenodd;stroke:#000000;stroke-width:2.0px;stroke-linecap:butt;stroke-linejoin:miter;stroke-opacity:1"/>
<path class="bond-10 atom-5 atom-2" d="M 224.0,295.3 L 249.0,269.2" style="fill:none;fill-rule:evenodd;stroke:#000000;stroke-width:2.0px;stroke-linecap:butt;stroke-linejoin:miter;stroke-opacity:1"/>
<path class="bond-6 atom-3 atom-9" d="M 253.7,183.0 L 263.7,174.9" style="fill:none;fill-rule:evenodd;stroke:#000000;stroke-width:2.0px;stroke-linecap:butt;stroke-linejoin:miter;stroke-opacity:1"/>
<path class="bond-12 atom-6 atom-3" d="M 187.7,180.3 L 232.2,191.3" style="fill:none;fill-rule:evenodd;stroke:#000000;stroke-width:2.0px;stroke-linecap:butt;stroke-linejoin:miter;stroke-opacity:1"/>
<path class="bond-7 atom-4 atom-13" d="M 356.5,335.1 L 399.6,322.6" style="fill:none;fill-rule:evenodd;stroke:#000000;stroke-width:2.0px;stroke-linecap:butt;stroke-linejoin:miter;stroke-opacity:1"/>
<path class="bond-8 atom-4 atom-14" d="M 319.6,345.8 L 286.6,355.3" style="fill:none;fill-rule:evenodd;stroke:#000000;stroke-width:2.0px;stroke-linecap:butt;stroke-linejoin:miter;stroke-opacity:1"/>
<path class="bond-9 atom-4 atom-15" d="M 347.1,350.3 L 359.4,392.6" style="fill:none;fill-rule:evenodd;stroke:#000000;stroke-width:2.0px;stroke-linecap:butt;stroke-linejoin:miter;stroke-opacity:1"/>
<path class="bond-11 atom-5 atom-10" d="M 216.4,318.1 L 228.7,360.4" style="fill:none;fill-rule:evenodd;stroke:#000000;stroke-width:2.0px;stroke-linecap:butt;stroke-linejoin:miter;stroke-opacity:1"/>
<path class="bond-17 atom-8 atom-5" d="M 160.8,293.7 L 188.9,300.6" style="fill:none;fill-rule:evenodd;stroke:#000000;stroke-width:2.0px;stroke-linecap:butt;stroke-linejoin:miter;stroke-opacity:1"/>
<path class="bond-17 atom-8 atom-5" d="M 168.3,281.7 L 187.9,286.5" style="fill:none;fill-rule:evenodd;stroke:#000000;stroke-width:2.0px;stroke-linecap:butt;stroke-linejoin:miter;stroke-opacity:1"/>
<path class="bond-13 atom-6 atom-16" d="M 172.4,166.3 L 160.1,123.7" style="fill:none;fill-rule:evenodd;stroke:#000000;stroke-width:2.0px;stroke-linecap:butt;stroke-linejoin:miter;stroke-opacity:1"/>
<path class="bond-14 atom-7 atom-6" d="M 139.9,214.6 L 164.9,188.5" style="fill:none;fill-rule:evenodd;stroke:#000000;stroke-width:2.0px;stroke-linecap:butt;stroke-linejoin:miter;stroke-opacity:1"/>
<path class="bond-14 atom-7 atom-6" d="M 153.4,220.0 L 170.9,201.8" style="fill:none;fill-rule:evenodd;stroke:#000000;stroke-width:2.0px;stroke-linecap:butt;stroke-linejoin:miter;stroke-opacity:1"/>
<path class="bond-15 atom-7 atom-8" d="M 132.4,237.5 L 144.6,279.5" style="fill:none;fill-rule:evenodd;stroke:#000000;stroke-width:2.0px;stroke-linecap:butt;stroke-linejoin:miter;stroke-opacity:1"/>
<path class="bond-16 atom-7 atom-20" d="M 104.5,219.9 L 70.5,211.5" style="fill:none;fill-rule:evenodd;stroke:#000000;stroke-width:2.0px;stroke-linecap:butt;stroke-linejoin:miter;stroke-opacity:1"/>
<path class="bond-18 atom-8 atom-17" d="M 136.7,302.1 L 109.2,330.7" style="fill:none;fill-rule:evenodd;stroke:#000000;stroke-width:2.0px;stroke-linecap:butt;stroke-linejoin:miter;stroke-opacity:1"/>
<path class="bond-19 atom-11 atom-18" d="M 327.5,171.9 L 323.3,173.7" style="fill:none;fill-rule:evenodd;stroke:#000000;stroke-width:2.0px;stroke-linecap:butt;stroke-linejoin:miter;stroke-opacity:1"/>
<path class="bond-20 atom-11 atom-19" d="M 361.0,158.7 L 408.6,144.9" style="fill:none;fill-rule:evenodd;stroke:#000000;stroke-width:2.0px;stroke-linecap:butt;stroke-linejoin:miter;stroke-opacity:1"/>
<path class="bond-21 atom-11 atom-21" d="M 349.6,149.7 L 337.3,107.4" style="fill:none;fill-rule:evenodd;stroke:#000000;stroke-width:2.0px;stroke-linecap:butt;stroke-linejoin:miter;stroke-opacity:1"/>
<path class="atom-0" d="M 349.6 225.7 Q 349.6 221.0, 351.8 218.5 Q 354.1 216.0, 358.3 216.0 Q 362.2 216.0, 364.3 218.8 L 362.5 220.2 Q 361.0 218.2, 358.3 218.2 Q 355.4 218.2, 353.9 220.1 Q 352.4 222.0, 352.4 225.7 Q 352.4 229.5, 353.9 231.4 Q 355.5 233.4, 358.6 233.4 Q 360.7 233.4, 363.1 232.1 L 363.9 234.1 Q 362.9 234.7, 361.4 235.1 Q 359.9 235.5, 358.2 235.5 Q 354.1 235.5, 351.8 233.0 Q 349.6 230.4, 349.6 225.7 " fill="#000000"/>
<path class="atom-0" d="M 366.3 232.1 L 369.0 232.1 L 369.0 234.8 L 366.3 234.8 L 366.3 232.1 M 366.3 222.9 L 369.0 222.9 L 369.0 225.5 L 366.3 225.5 L 366.3 222.9 " fill="#000000"/>
<path class="atom-0" d="M 371.5 233.1 L 375.7 233.1 L 375.7 218.9 L 371.1 220.3 L 370.5 218.7 L 376.3 216.1 L 378.2 216.4 L 378.2 233.1 L 382.0 233.1 L 382.0 235.3 L 371.5 235.3 L 371.5 233.1 " fill="#000000"/>
<path class="atom-1" d="M 305.9 264.7 L 312.1 274.8 Q 312.7 275.8, 313.7 277.6 Q 314.7 279.4, 314.8 279.5 L 314.8 264.7 L 317.3 264.7 L 317.3 283.8 L 314.7 283.8 L 308.0 272.8 Q 307.2 271.5, 306.4 270.0 Q 305.6 268.5, 305.3 268.0 L 305.3 283.8 L 302.9 283.8 L 302.9 264.7 L 305.9 264.7 " fill="#0000FF"/>
<path class="atom-1" d="M 319.3 280.6 L 322.0 280.6 L 322.0 283.3 L 319.3 283.3 L 319.3 280.6 M 319.3 271.4 L 322.0 271.4 L 322.0 274.1 L 319.3 274.1 L 319.3 271.4 " fill="#0000FF"/>
<path class="atom-1" d="M 323.4 268.3 Q 324.1 266.5, 325.8 265.5 Q 327.5 264.5, 329.8 264.5 Q 332.7 264.5, 334.3 266.1 Q 335.9 267.6, 335.9 270.4 Q 335.9 273.2, 333.8 275.9 Q 331.7 278.5, 327.4 281.6 L 336.2 281.6 L 336.2 283.8 L 323.4 283.8 L 323.4 282.0 Q 326.9 279.5, 329.0 277.6 Q 331.2 275.7, 332.2 274.0 Q 333.2 272.3, 333.2 270.6 Q 333.2 268.7, 332.3 267.7 Q 331.4 266.7, 329.8 266.7 Q 328.2 266.7, 327.2 267.3 Q 326.2 267.9, 325.5 269.3 L 323.4 268.3 " fill="#0000FF"/>
<path class="atom-2" d="M 237.3 258.2 Q 237.3 253.4, 239.5 250.9 Q 241.7 248.4, 245.9 248.4 Q 249.9 248.4, 252.0 251.2 L 250.2 252.7 Q 248.6 250.6, 245.9 250.6 Q 243.0 250.6, 241.5 252.6 Q 240.0 254.5, 240.0 258.2 Q 240.0 261.9, 241.6 263.9 Q 243.2 265.8, 246.2 265.8 Q 248.3 265.8, 250.8 264.5 L 251.5 266.5 Q 250.5 267.2, 249.0 267.6 Q 247.5 267.9, 245.8 267.9 Q 241.7 267.9, 239.5 265.4 Q 237.3 262.9, 237.3 258.2 " fill="#000000"/>
<path class="atom-2" d="M 254.0 264.6 L 256.7 264.6 L 256.7 267.2 L 254.0 267.2 L 254.0 264.6 M 254.0 255.3 L 256.7 255.3 L 256.7 258.0 L 254.0 258.0 L 254.0 255.3 " fill="#000000"/>
<path class="atom-2" d="M 266.9 257.7 Q 268.8 258.2, 269.7 259.4 Q 270.6 260.6, 270.6 262.5 Q 270.6 264.1, 269.8 265.4 Q 269.0 266.6, 267.5 267.3 Q 266.0 268.0, 264.1 268.0 Q 262.0 268.0, 260.5 267.3 Q 259.0 266.5, 257.8 265.1 L 259.3 263.5 Q 260.5 264.8, 261.5 265.3 Q 262.5 265.8, 264.1 265.8 Q 265.8 265.8, 266.9 264.9 Q 267.9 264.0, 267.9 262.5 Q 267.9 260.5, 266.8 259.7 Q 265.7 258.8, 263.4 258.8 L 262.0 258.8 L 262.0 256.8 L 263.2 256.8 Q 265.3 256.8, 266.4 255.9 Q 267.5 255.0, 267.5 253.3 Q 267.5 252.1, 266.6 251.3 Q 265.7 250.6, 264.1 250.6 Q 262.5 250.6, 261.5 251.2 Q 260.6 251.7, 259.8 253.1 L 258.0 252.2 Q 258.6 250.6, 260.2 249.5 Q 261.9 248.4, 264.1 248.4 Q 266.9 248.4, 268.6 249.8 Q 270.2 251.1, 270.2 253.3 Q 270.2 254.8, 269.4 255.9 Q 268.5 257.1, 266.9 257.7 " fill="#000000"/>
<path class="atom-3" d="M 233.6 193.5 Q 233.6 188.8, 235.8 186.3 Q 238.1 183.8, 242.3 183.8 Q 246.2 183.8, 248.3 186.6 L 246.5 188.0 Q 245.0 186.0, 242.3 186.0 Q 239.4 186.0, 237.9 188.0 Q 236.4 189.9, 236.4 193.5 Q 236.4 197.3, 237.9 199.2 Q 239.5 201.2, 242.6 201.2 Q 244.7 201.2, 247.1 199.9 L 247.9 201.9 Q 246.9 202.6, 245.4 203.0 Q 243.9 203.3, 242.2 203.3 Q 238.1 203.3, 235.8 200.8 Q 233.6 198.3, 233.6 193.5 " fill="#000000"/>
<path class="atom-3" d="M 250.3 199.9 L 253.0 199.9 L 253.0 202.6 L 250.3 202.6 L 250.3 199.9 M 250.3 190.7 L 253.0 190.7 L 253.0 193.4 L 250.3 193.4 L 250.3 190.7 " fill="#000000"/>
<path class="atom-3" d="M 266.2 196.6 L 268.5 196.6 L 268.5 198.7 L 266.2 198.7 L 266.2 203.1 L 263.7 203.1 L 263.7 198.7 L 253.8 198.7 L 253.8 197.0 L 262.2 184.0 L 266.2 184.0 L 266.2 196.6 M 256.9 196.6 L 263.7 196.6 L 263.7 185.8 L 256.9 196.6 " fill="#000000"/>
<path class="atom-4" d="M 321.2 338.9 Q 321.2 334.1, 323.5 331.6 Q 325.7 329.1, 329.9 329.1 Q 333.8 329.1, 335.9 331.9 L 334.2 333.4 Q 332.6 331.3, 329.9 331.3 Q 327.0 331.3, 325.5 333.3 Q 324.0 335.2, 324.0 338.9 Q 324.0 342.6, 325.6 344.6 Q 327.1 346.5, 330.2 346.5 Q 332.3 346.5, 334.8 345.2 L 335.5 347.2 Q 334.5 347.9, 333.0 348.3 Q 331.5 348.6, 329.8 348.6 Q 325.7 348.6, 323.5 346.1 Q 321.2 343.6, 321.2 338.9 " fill="#000000"/>
<path class="atom-4" d="M 338.0 345.3 L 340.7 345.3 L 340.7 347.9 L 338.0 347.9 L 338.0 345.3 M 338.0 336.0 L 340.7 336.0 L 340.7 338.7 L 338.0 338.7 L 338.0 336.0 " fill="#000000"/>
<path class="atom-4" d="M 348.8 336.5 Q 350.5 336.5, 351.8 337.2 Q 353.2 337.9, 354.0 339.3 Q 354.8 340.6, 354.8 342.4 Q 354.8 344.3, 353.8 345.8 Q 352.9 347.2, 351.3 347.9 Q 349.7 348.6, 348.0 348.6 Q 346.2 348.6, 344.6 348.0 Q 343.0 347.3, 341.9 346.1 L 343.5 344.4 Q 344.4 345.4, 345.6 345.9 Q 346.8 346.4, 348.1 346.4 Q 349.7 346.4, 350.9 345.4 Q 352.1 344.3, 352.1 342.4 Q 352.1 340.4, 350.9 339.5 Q 349.7 338.5, 347.9 338.5 Q 346.2 338.5, 344.4 339.2 L 342.9 338.5 L 343.8 329.4 L 353.6 329.4 L 353.3 331.5 L 346.0 331.5 L 345.4 337.2 Q 347.1 336.5, 348.8 336.5 " fill="#000000"/>
<path class="atom-5" d="M 190.3 306.7 Q 190.3 301.9, 192.5 299.5 Q 194.7 297.0, 198.9 297.0 Q 202.9 297.0, 205.0 299.7 L 203.2 301.2 Q 201.7 299.2, 198.9 299.2 Q 196.1 299.2, 194.5 301.1 Q 193.0 303.0, 193.0 306.7 Q 193.0 310.5, 194.6 312.4 Q 196.2 314.3, 199.2 314.3 Q 201.3 314.3, 203.8 313.1 L 204.5 315.1 Q 203.5 315.7, 202.0 316.1 Q 200.5 316.5, 198.9 316.5 Q 194.7 316.5, 192.5 313.9 Q 190.3 311.4, 190.3 306.7 " fill="#000000"/>
<path class="atom-5" d="M 207.0 313.1 L 209.7 313.1 L 209.7 315.8 L 207.0 315.8 L 207.0 313.1 M 207.0 303.8 L 209.7 303.8 L 209.7 306.5 L 207.0 306.5 L 207.0 303.8 " fill="#000000"/>
<path class="atom-5" d="M 219.0 304.3 Q 220.6 304.3, 221.9 305.1 Q 223.3 305.8, 224.0 307.1 Q 224.7 308.4, 224.7 310.1 Q 224.7 312.0, 223.9 313.4 Q 223.1 314.8, 221.6 315.6 Q 220.2 316.5, 218.3 316.5 Q 214.9 316.5, 213.2 314.2 Q 211.5 311.9, 211.5 307.3 Q 211.5 302.2, 213.6 299.6 Q 215.7 297.0, 219.8 297.0 Q 221.0 297.0, 222.0 297.2 Q 223.0 297.5, 224.0 298.1 L 222.9 299.9 Q 221.5 299.1, 219.8 299.1 Q 217.1 299.1, 215.8 300.9 Q 214.4 302.6, 214.2 306.2 Q 215.2 305.3, 216.4 304.8 Q 217.6 304.3, 219.0 304.3 M 218.3 314.2 Q 219.4 314.2, 220.2 313.7 Q 221.1 313.2, 221.5 312.2 Q 222.0 311.3, 222.0 310.1 Q 222.0 308.4, 221.1 307.5 Q 220.1 306.5, 218.5 306.5 Q 217.3 306.5, 216.2 307.0 Q 215.0 307.4, 214.2 308.2 Q 214.3 311.4, 215.3 312.8 Q 216.3 314.2, 218.3 314.2 " fill="#000000"/>
<path class="atom-6" d="M 153.5 177.5 Q 153.5 172.7, 155.7 170.2 Q 157.9 167.7, 162.2 167.7 Q 166.1 167.7, 168.2 170.5 L 166.4 172.0 Q 164.9 169.9, 162.2 169.9 Q 159.3 169.9, 157.7 171.9 Q 156.2 173.8, 156.2 177.5 Q 156.2 181.2, 157.8 183.2 Q 159.4 185.1, 162.4 185.1 Q 164.5 185.1, 167.0 183.8 L 167.8 185.9 Q 166.8 186.5, 165.2 186.9 Q 163.7 187.3, 162.1 187.3 Q 157.9 187.3, 155.7 184.7 Q 153.5 182.2, 153.5 177.5 " fill="#000000"/>
<path class="atom-6" d="M 170.2 183.9 L 172.9 183.9 L 172.9 186.6 L 170.2 186.6 L 170.2 183.9 M 170.2 174.6 L 172.9 174.6 L 172.9 177.3 L 170.2 177.3 L 170.2 174.6 " fill="#000000"/>
<path class="atom-6" d="M 183.4 170.1 L 173.4 170.1 L 173.4 168.0 L 186.0 168.0 L 186.0 169.9 L 178.3 187.0 L 175.7 187.0 L 183.4 170.1 " fill="#000000"/>
<path class="atom-7" d="M 106.2 226.0 Q 106.2 221.2, 108.4 218.8 Q 110.6 216.3, 114.8 216.3 Q 118.8 216.3, 120.9 219.0 L 119.1 220.5 Q 117.5 218.5, 114.8 218.5 Q 112.0 218.5, 110.4 220.4 Q 108.9 222.3, 108.9 226.0 Q 108.9 229.8, 110.5 231.7 Q 112.1 233.6, 115.1 233.6 Q 117.2 233.6, 119.7 232.4 L 120.4 234.4 Q 119.4 235.0, 117.9 235.4 Q 116.4 235.8, 114.8 235.8 Q 110.6 235.8, 108.4 233.3 Q 106.2 230.7, 106.2 226.0 " fill="#000000"/>
<path class="atom-7" d="M 122.9 232.4 L 125.6 232.4 L 125.6 235.1 L 122.9 235.1 L 122.9 232.4 M 122.9 223.1 L 125.6 223.1 L 125.6 225.8 L 122.9 225.8 L 122.9 223.1 " fill="#000000"/>
<path class="atom-7" d="M 137.0 225.4 Q 138.7 226.2, 139.7 227.3 Q 140.7 228.4, 140.7 230.3 Q 140.7 231.9, 139.9 233.2 Q 139.0 234.4, 137.5 235.1 Q 136.0 235.8, 134.1 235.8 Q 130.9 235.8, 129.1 234.4 Q 127.2 232.9, 127.2 230.3 Q 127.2 228.8, 128.0 227.6 Q 128.9 226.4, 130.5 225.5 Q 129.3 224.8, 128.6 223.8 Q 127.9 222.8, 127.9 221.1 Q 127.9 218.9, 129.6 217.6 Q 131.2 216.3, 134.0 216.3 Q 136.7 216.3, 138.4 217.6 Q 140.0 218.9, 140.0 221.1 Q 140.0 222.5, 139.2 223.6 Q 138.5 224.6, 137.0 225.4 M 134.0 218.3 Q 132.4 218.3, 131.5 219.0 Q 130.6 219.8, 130.6 221.1 Q 130.6 222.1, 131.2 222.8 Q 131.8 223.5, 132.6 223.8 Q 133.5 224.2, 135.1 224.8 Q 136.3 224.0, 136.8 223.1 Q 137.3 222.2, 137.3 221.1 Q 137.3 219.8, 136.4 219.0 Q 135.6 218.3, 134.0 218.3 M 134.1 233.8 Q 135.8 233.8, 136.9 232.8 Q 138.0 231.9, 138.0 230.3 Q 138.0 229.3, 137.4 228.6 Q 136.9 228.0, 136.0 227.6 Q 135.2 227.2, 133.7 226.7 L 132.5 226.3 Q 131.1 227.1, 130.5 228.1 Q 129.9 229.1, 129.9 230.3 Q 129.9 231.9, 131.1 232.8 Q 132.2 233.8, 134.1 233.8 " fill="#000000"/>
<path class="atom-8" d="M 125.1 290.6 Q 125.1 285.9, 127.3 283.4 Q 129.5 280.9, 133.7 280.9 Q 137.7 280.9, 139.8 283.7 L 138.0 285.1 Q 136.4 283.1, 133.7 283.1 Q 130.8 283.1, 129.3 285.0 Q 127.8 286.9, 127.8 290.6 Q 127.8 294.4, 129.4 296.3 Q 131.0 298.2, 134.0 298.2 Q 136.1 298.2, 138.6 297.0 L 139.3 299.0 Q 138.3 299.6, 136.8 300.0 Q 135.3 300.4, 133.6 300.4 Q 129.5 300.4, 127.3 297.9 Q 125.1 295.3, 125.1 290.6 " fill="#000000"/>
<path class="atom-8" d="M 141.8 297.0 L 144.5 297.0 L 144.5 299.7 L 141.8 299.7 L 141.8 297.0 M 141.8 287.7 L 144.5 287.7 L 144.5 290.4 L 141.8 290.4 L 141.8 287.7 " fill="#000000"/>
<path class="atom-8" d="M 152.3 280.9 Q 155.7 280.9, 157.4 283.2 Q 159.2 285.5, 159.2 290.1 Q 159.2 295.1, 157.0 297.8 Q 154.9 300.4, 150.9 300.4 Q 149.7 300.4, 148.7 300.1 Q 147.7 299.8, 146.7 299.3 L 147.7 297.5 Q 149.1 298.2, 150.8 298.2 Q 153.5 298.2, 154.9 296.5 Q 156.3 294.7, 156.4 291.2 Q 155.5 292.1, 154.2 292.5 Q 153.0 293.0, 151.7 293.0 Q 150.0 293.0, 148.7 292.3 Q 147.4 291.5, 146.7 290.2 Q 145.9 288.9, 145.9 287.2 Q 145.9 285.4, 146.8 284.0 Q 147.6 282.5, 149.0 281.7 Q 150.5 280.9, 152.3 280.9 M 148.6 287.2 Q 148.6 288.9, 149.6 289.9 Q 150.5 290.8, 152.2 290.8 Q 153.3 290.8, 154.5 290.4 Q 155.6 289.9, 156.4 289.1 Q 156.3 285.9, 155.3 284.5 Q 154.3 283.1, 152.3 283.1 Q 151.3 283.1, 150.4 283.6 Q 149.6 284.2, 149.1 285.1 Q 148.6 286.1, 148.6 287.2 " fill="#000000"/>
<path class="atom-9" d="M 264.3 159.0 L 266.9 159.0 L 266.9 167.1 L 276.6 167.1 L 276.6 159.0 L 279.2 159.0 L 279.2 178.0 L 276.6 178.0 L 276.6 169.2 L 266.9 169.2 L 266.9 178.0 L 264.3 178.0 L 264.3 159.0 " fill="#000000"/>
<path class="atom-9" d="M 281.2 174.9 L 283.9 174.9 L 283.9 177.5 L 281.2 177.5 L 281.2 174.9 M 281.2 165.6 L 283.9 165.6 L 283.9 168.3 L 281.2 168.3 L 281.2 165.6 " fill="#000000"/>
<path class="atom-9" d="M 286.4 175.9 L 290.6 175.9 L 290.6 161.6 L 286.0 163.0 L 285.4 161.5 L 291.2 158.8 L 293.1 159.2 L 293.1 175.9 L 296.9 175.9 L 296.9 178.0 L 286.4 178.0 L 286.4 175.9 " fill="#000000"/>
<path class="atom-9" d="M 305.5 178.2 Q 302.0 178.2, 300.2 175.6 Q 298.5 173.1, 298.5 168.5 Q 298.5 163.8, 300.2 161.3 Q 302.0 158.7, 305.5 158.7 Q 309.0 158.7, 310.7 161.3 Q 312.5 163.8, 312.5 168.5 Q 312.5 173.1, 310.7 175.6 Q 309.0 178.2, 305.5 178.2 M 305.5 176.1 Q 307.6 176.1, 308.7 174.2 Q 309.8 172.2, 309.8 168.5 Q 309.8 164.7, 308.7 162.8 Q 307.6 160.9, 305.5 160.9 Q 303.4 160.9, 302.3 162.8 Q 301.2 164.7, 301.2 168.5 Q 301.2 172.2, 302.3 174.2 Q 303.4 176.1, 305.5 176.1 " fill="#000000"/>
<path class="atom-10" d="M 224.4 361.7 L 227.0 361.7 L 227.0 369.8 L 236.7 369.8 L 236.7 361.7 L 239.3 361.7 L 239.3 380.8 L 236.7 380.8 L 236.7 372.0 L 227.0 372.0 L 227.0 380.8 L 224.4 380.8 L 224.4 361.7 " fill="#000000"/>
<path class="atom-10" d="M 241.3 377.6 L 244.0 377.6 L 244.0 380.3 L 241.3 380.3 L 241.3 377.6 M 241.3 368.4 L 244.0 368.4 L 244.0 371.1 L 241.3 371.1 L 241.3 368.4 " fill="#000000"/>
<path class="atom-10" d="M 246.5 378.6 L 250.7 378.6 L 250.7 364.4 L 246.1 365.8 L 245.5 364.2 L 251.3 361.6 L 253.2 362.0 L 253.2 378.6 L 256.9 378.6 L 256.9 380.8 L 246.5 380.8 L 246.5 378.6 " fill="#000000"/>
<path class="atom-10" d="M 259.4 378.6 L 263.6 378.6 L 263.6 364.4 L 259.0 365.8 L 258.4 364.2 L 264.2 361.6 L 266.1 362.0 L 266.1 378.6 L 269.9 378.6 L 269.9 380.8 L 259.4 380.8 L 259.4 378.6 " fill="#000000"/>
<path class="atom-11" d="M 312.8 161.1 Q 312.8 156.4, 315.0 153.9 Q 317.2 151.4, 321.4 151.4 Q 325.4 151.4, 327.5 154.2 L 325.7 155.6 Q 324.2 153.6, 321.4 153.6 Q 318.6 153.6, 317.0 155.5 Q 315.5 157.4, 315.5 161.1 Q 315.5 164.9, 317.1 166.8 Q 318.7 168.7, 321.7 168.7 Q 323.8 168.7, 326.3 167.5 L 327.0 169.5 Q 326.0 170.1, 324.5 170.5 Q 323.0 170.9, 321.4 170.9 Q 317.2 170.9, 315.0 168.4 Q 312.8 165.8, 312.8 161.1 " fill="#000000"/>
<path class="atom-11" d="M 329.5 167.5 L 332.2 167.5 L 332.2 170.2 L 329.5 170.2 L 329.5 167.5 M 329.5 158.2 L 332.2 158.2 L 332.2 160.9 L 329.5 160.9 L 329.5 158.2 " fill="#000000"/>
<path class="atom-11" d="M 334.7 168.5 L 338.8 168.5 L 338.8 154.3 L 334.2 155.7 L 333.6 154.1 L 339.5 151.5 L 341.4 151.8 L 341.4 168.5 L 345.1 168.5 L 345.1 170.6 L 334.7 170.6 L 334.7 168.5 " fill="#000000"/>
<path class="atom-11" d="M 346.5 155.2 Q 347.2 153.4, 348.9 152.4 Q 350.6 151.4, 352.9 151.4 Q 355.7 151.4, 357.4 152.9 Q 359.0 154.5, 359.0 157.3 Q 359.0 160.1, 356.9 162.7 Q 354.8 165.4, 350.5 168.5 L 359.3 168.5 L 359.3 170.6 L 346.5 170.6 L 346.5 168.8 Q 350.0 166.3, 352.1 164.4 Q 354.2 162.5, 355.3 160.9 Q 356.3 159.2, 356.3 157.4 Q 356.3 155.6, 355.4 154.6 Q 354.5 153.5, 352.9 153.5 Q 351.3 153.5, 350.3 154.2 Q 349.3 154.8, 348.6 156.1 L 346.5 155.2 " fill="#000000"/>
<path class="atom-12" d="M 428.2 241.8 Q 428.2 237.2, 430.4 234.6 Q 432.7 232.1, 436.9 232.1 Q 441.2 232.1, 443.4 234.6 Q 445.7 237.2, 445.7 241.8 Q 445.7 246.4, 443.4 249.0 Q 441.1 251.6, 436.9 251.6 Q 432.7 251.6, 430.4 249.0 Q 428.2 246.4, 428.2 241.8 M 436.9 249.5 Q 439.8 249.5, 441.4 247.6 Q 443.0 245.6, 443.0 241.8 Q 443.0 238.0, 441.4 236.1 Q 439.8 234.2, 436.9 234.2 Q 434.0 234.2, 432.4 236.1 Q 430.9 238.0, 430.9 241.8 Q 430.9 245.6, 432.4 247.6 Q 434.0 249.5, 436.9 249.5 " fill="#FF0000"/>
<path class="atom-12" d="M 447.7 248.2 L 450.4 248.2 L 450.4 250.9 L 447.7 250.9 L 447.7 248.2 M 447.7 238.9 L 450.4 238.9 L 450.4 241.6 L 447.7 241.6 L 447.7 238.9 " fill="#FF0000"/>
<path class="atom-12" d="M 452.9 249.2 L 457.1 249.2 L 457.1 235.0 L 452.5 236.4 L 451.8 234.8 L 457.7 232.2 L 459.6 232.5 L 459.6 249.2 L 463.3 249.2 L 463.3 251.3 L 452.9 251.3 L 452.9 249.2 " fill="#FF0000"/>
<path class="atom-12" d="M 473.6 241.3 Q 475.5 241.8, 476.4 243.1 Q 477.3 244.2, 477.3 246.1 Q 477.3 247.7, 476.5 249.0 Q 475.7 250.2, 474.2 250.9 Q 472.7 251.6, 470.8 251.6 Q 468.7 251.6, 467.2 250.9 Q 465.7 250.2, 464.5 248.7 L 466.0 247.2 Q 467.2 248.5, 468.2 249.0 Q 469.2 249.5, 470.8 249.5 Q 472.5 249.5, 473.5 248.5 Q 474.6 247.6, 474.6 246.1 Q 474.6 244.2, 473.5 243.3 Q 472.4 242.4, 470.1 242.4 L 468.7 242.4 L 468.7 240.5 L 469.9 240.5 Q 472.0 240.4, 473.1 239.6 Q 474.2 238.6, 474.2 236.9 Q 474.2 235.7, 473.3 235.0 Q 472.3 234.2, 470.8 234.2 Q 469.2 234.2, 468.2 234.8 Q 467.2 235.4, 466.5 236.8 L 464.6 235.8 Q 465.3 234.2, 466.9 233.2 Q 468.5 232.1, 470.8 232.1 Q 473.6 232.1, 475.2 233.4 Q 476.9 234.7, 476.9 236.9 Q 476.9 238.5, 476.0 239.6 Q 475.2 240.7, 473.6 241.3 " fill="#FF0000"/>
<path class="atom-13" d="M 400.9 310.6 L 403.5 310.6 L 403.5 318.7 L 413.2 318.7 L 413.2 310.6 L 415.8 310.6 L 415.8 329.6 L 413.2 329.6 L 413.2 320.8 L 403.5 320.8 L 403.5 329.6 L 400.9 329.6 L 400.9 310.6 " fill="#000000"/>
<path class="atom-13" d="M 417.8 326.5 L 420.5 326.5 L 420.5 329.2 L 417.8 329.2 L 417.8 326.5 M 417.8 317.2 L 420.5 317.2 L 420.5 319.9 L 417.8 319.9 L 417.8 317.2 " fill="#000000"/>
<path class="atom-13" d="M 423.0 327.5 L 427.2 327.5 L 427.2 313.2 L 422.6 314.7 L 422.0 313.1 L 427.8 310.5 L 429.7 310.8 L 429.7 327.5 L 433.5 327.5 L 433.5 329.6 L 423.0 329.6 L 423.0 327.5 " fill="#000000"/>
<path class="atom-13" d="M 446.7 323.1 L 448.9 323.1 L 448.9 325.2 L 446.7 325.2 L 446.7 329.6 L 444.1 329.6 L 444.1 325.2 L 434.3 325.2 L 434.3 323.5 L 442.6 310.6 L 446.7 310.6 L 446.7 323.1 M 437.4 323.1 L 444.1 323.1 L 444.1 312.3 L 437.4 323.1 " fill="#000000"/>
<path class="atom-14" d="M 238.9 348.0 L 241.5 348.0 L 241.5 356.1 L 251.2 356.1 L 251.2 348.0 L 253.8 348.0 L 253.8 367.1 L 251.2 367.1 L 251.2 358.3 L 241.5 358.3 L 241.5 367.1 L 238.9 367.1 L 238.9 348.0 " fill="#000000"/>
<path class="atom-14" d="M 255.8 363.9 L 258.5 363.9 L 258.5 366.6 L 255.8 366.6 L 255.8 363.9 M 255.8 354.7 L 258.5 354.7 L 258.5 357.4 L 255.8 357.4 L 255.8 354.7 " fill="#000000"/>
<path class="atom-14" d="M 261.0 364.9 L 265.2 364.9 L 265.2 350.7 L 260.6 352.1 L 260.0 350.5 L 265.8 347.9 L 267.7 348.2 L 267.7 364.9 L 271.5 364.9 L 271.5 367.1 L 261.0 367.1 L 261.0 364.9 " fill="#000000"/>
<path class="atom-14" d="M 279.6 355.2 Q 281.3 355.2, 282.6 355.9 Q 284.0 356.6, 284.8 357.9 Q 285.6 359.3, 285.6 361.1 Q 285.6 363.0, 284.6 364.4 Q 283.7 365.8, 282.1 366.6 Q 280.6 367.3, 278.8 367.3 Q 277.0 367.3, 275.4 366.7 Q 273.8 366.0, 272.7 364.8 L 274.3 363.1 Q 275.2 364.1, 276.4 364.6 Q 277.6 365.1, 278.9 365.1 Q 280.6 365.1, 281.7 364.1 Q 282.9 363.0, 282.9 361.1 Q 282.9 359.1, 281.7 358.1 Q 280.6 357.2, 278.7 357.2 Q 277.0 357.2, 275.2 357.9 L 273.7 357.2 L 274.6 348.0 L 284.4 348.0 L 284.1 350.2 L 276.8 350.2 L 276.2 355.8 Q 277.9 355.2, 279.6 355.2 " fill="#000000"/>
<path class="atom-15" d="M 355.0 394.0 L 357.6 394.0 L 357.6 402.1 L 367.4 402.1 L 367.4 394.0 L 369.9 394.0 L 369.9 413.0 L 367.4 413.0 L 367.4 404.2 L 357.6 404.2 L 357.6 413.0 L 355.0 413.0 L 355.0 394.0 " fill="#000000"/>
<path class="atom-15" d="M 372.0 409.9 L 374.6 409.9 L 374.6 412.6 L 372.0 412.6 L 372.0 409.9 M 372.0 400.6 L 374.6 400.6 L 374.6 403.3 L 372.0 403.3 L 372.0 400.6 " fill="#000000"/>
<path class="atom-15" d="M 377.2 410.9 L 381.3 410.9 L 381.3 396.6 L 376.7 398.1 L 376.1 396.5 L 381.9 393.9 L 383.9 394.2 L 383.9 410.9 L 387.6 410.9 L 387.6 413.0 L 377.2 413.0 L 377.2 410.9 " fill="#000000"/>
<path class="atom-15" d="M 396.9 401.1 Q 398.5 401.1, 399.9 401.9 Q 401.2 402.6, 401.9 403.9 Q 402.6 405.2, 402.6 406.9 Q 402.6 408.7, 401.8 410.2 Q 401.0 411.6, 399.5 412.4 Q 398.1 413.2, 396.2 413.2 Q 392.8 413.2, 391.1 410.9 Q 389.4 408.6, 389.4 404.1 Q 389.4 399.0, 391.5 396.4 Q 393.6 393.8, 397.7 393.8 Q 398.9 393.8, 399.9 394.0 Q 400.9 394.3, 401.9 394.9 L 400.8 396.7 Q 399.4 395.9, 397.7 395.9 Q 395.0 395.9, 393.7 397.7 Q 392.3 399.4, 392.1 403.0 Q 393.1 402.1, 394.3 401.6 Q 395.6 401.1, 396.9 401.1 M 396.3 411.0 Q 397.3 411.0, 398.1 410.5 Q 399.0 410.0, 399.5 409.0 Q 399.9 408.1, 399.9 406.9 Q 399.9 405.2, 399.0 404.2 Q 398.1 403.3, 396.4 403.3 Q 395.2 403.3, 394.1 403.8 Q 392.9 404.2, 392.1 405.0 Q 392.2 408.2, 393.2 409.6 Q 394.2 411.0, 396.3 411.0 " fill="#000000"/>
<path class="atom-16" d="M 149.5 103.3 L 152.0 103.3 L 152.0 111.4 L 161.8 111.4 L 161.8 103.3 L 164.4 103.3 L 164.4 122.3 L 161.8 122.3 L 161.8 113.5 L 152.0 113.5 L 152.0 122.3 L 149.5 122.3 L 149.5 103.3 " fill="#000000"/>
<path class="atom-16" d="M 166.4 119.2 L 169.1 119.2 L 169.1 121.9 L 166.4 121.9 L 166.4 119.2 M 166.4 109.9 L 169.1 109.9 L 169.1 112.6 L 166.4 112.6 L 166.4 109.9 " fill="#000000"/>
<path class="atom-16" d="M 171.6 120.2 L 175.7 120.2 L 175.7 106.0 L 171.1 107.4 L 170.5 105.8 L 176.4 103.2 L 178.3 103.5 L 178.3 120.2 L 182.0 120.2 L 182.0 122.3 L 171.6 122.3 L 171.6 120.2 " fill="#000000"/>
<path class="atom-16" d="M 192.5 105.4 L 182.5 105.4 L 182.5 103.3 L 195.1 103.3 L 195.1 105.2 L 187.4 122.3 L 184.9 122.3 L 192.5 105.4 " fill="#000000"/>
<path class="atom-17" d="M 60.2 329.6 L 62.8 329.6 L 62.8 337.7 L 72.6 337.7 L 72.6 329.6 L 75.1 329.6 L 75.1 348.7 L 72.6 348.7 L 72.6 339.9 L 62.8 339.9 L 62.8 348.7 L 60.2 348.7 L 60.2 329.6 " fill="#000000"/>
<path class="atom-17" d="M 77.2 345.5 L 79.8 345.5 L 79.8 348.2 L 77.2 348.2 L 77.2 345.5 M 77.2 336.3 L 79.8 336.3 L 79.8 339.0 L 77.2 339.0 L 77.2 336.3 " fill="#000000"/>
<path class="atom-17" d="M 82.4 346.5 L 86.5 346.5 L 86.5 332.3 L 81.9 333.7 L 81.3 332.1 L 87.1 329.5 L 89.1 329.8 L 89.1 346.5 L 92.8 346.5 L 92.8 348.7 L 82.4 348.7 L 82.4 346.5 " fill="#000000"/>
<path class="atom-17" d="M 104.2 338.6 Q 105.9 339.3, 106.9 340.5 Q 107.9 341.6, 107.9 343.5 Q 107.9 345.1, 107.1 346.3 Q 106.2 347.6, 104.7 348.3 Q 103.3 349.0, 101.3 349.0 Q 98.1 349.0, 96.3 347.5 Q 94.5 346.0, 94.5 343.5 Q 94.5 341.9, 95.3 340.7 Q 96.1 339.6, 97.7 338.7 Q 96.5 338.0, 95.8 336.9 Q 95.2 335.9, 95.2 334.3 Q 95.2 332.1, 96.8 330.7 Q 98.4 329.4, 101.2 329.4 Q 104.0 329.4, 105.6 330.7 Q 107.2 332.1, 107.2 334.3 Q 107.2 335.7, 106.4 336.7 Q 105.7 337.8, 104.2 338.6 M 101.2 331.4 Q 99.6 331.4, 98.7 332.2 Q 97.9 332.9, 97.9 334.3 Q 97.9 335.3, 98.4 336.0 Q 99.0 336.6, 99.9 337.0 Q 100.7 337.4, 102.4 337.9 Q 103.5 337.1, 104.0 336.3 Q 104.5 335.4, 104.5 334.3 Q 104.5 332.9, 103.6 332.2 Q 102.8 331.4, 101.2 331.4 M 101.3 346.9 Q 103.1 346.9, 104.1 346.0 Q 105.2 345.0, 105.2 343.4 Q 105.2 342.4, 104.7 341.8 Q 104.1 341.1, 103.2 340.7 Q 102.4 340.4, 100.9 339.9 L 99.7 339.5 Q 98.3 340.3, 97.7 341.3 Q 97.2 342.2, 97.2 343.4 Q 97.2 345.0, 98.3 346.0 Q 99.4 346.9, 101.3 346.9 " fill="#000000"/>
<path class="atom-18" d="M 275.7 167.2 L 278.3 167.2 L 278.3 175.3 L 288.0 175.3 L 288.0 167.2 L 290.6 167.2 L 290.6 186.3 L 288.0 186.3 L 288.0 177.5 L 278.3 177.5 L 278.3 186.3 L 275.7 186.3 L 275.7 167.2 " fill="#000000"/>
<path class="atom-18" d="M 292.6 183.1 L 295.3 183.1 L 295.3 185.8 L 292.6 185.8 L 292.6 183.1 M 292.6 173.9 L 295.3 173.9 L 295.3 176.6 L 292.6 176.6 L 292.6 173.9 " fill="#000000"/>
<path class="atom-18" d="M 297.8 184.1 L 302.0 184.1 L 302.0 169.9 L 297.4 171.3 L 296.8 169.7 L 302.6 167.1 L 304.5 167.4 L 304.5 184.1 L 308.3 184.1 L 308.3 186.3 L 297.8 186.3 L 297.8 184.1 " fill="#000000"/>
<path class="atom-18" d="M 316.2 167.0 Q 319.5 167.0, 321.2 169.3 Q 323.0 171.6, 323.0 176.2 Q 323.0 181.2, 320.8 183.9 Q 318.7 186.5, 314.7 186.5 Q 313.5 186.5, 312.5 186.2 Q 311.5 186.0, 310.5 185.4 L 311.6 183.6 Q 313.0 184.3, 314.6 184.3 Q 317.3 184.3, 318.7 182.6 Q 320.1 180.9, 320.2 177.3 Q 319.3 178.2, 318.0 178.7 Q 316.8 179.1, 315.5 179.1 Q 313.8 179.1, 312.5 178.4 Q 311.2 177.7, 310.5 176.3 Q 309.8 175.0, 309.8 173.4 Q 309.8 171.5, 310.6 170.1 Q 311.4 168.6, 312.8 167.8 Q 314.3 167.0, 316.2 167.0 M 312.4 173.3 Q 312.4 175.0, 313.4 176.0 Q 314.3 177.0, 316.0 177.0 Q 317.2 177.0, 318.3 176.5 Q 319.4 176.0, 320.2 175.2 Q 320.1 172.1, 319.1 170.6 Q 318.1 169.2, 316.1 169.2 Q 315.1 169.2, 314.2 169.8 Q 313.4 170.3, 312.9 171.2 Q 312.4 172.2, 312.4 173.3 " fill="#000000"/>
<path class="atom-19" d="M 410.0 132.9 L 412.6 132.9 L 412.6 141.0 L 422.4 141.0 L 422.4 132.9 L 424.9 132.9 L 424.9 151.9 L 422.4 151.9 L 422.4 143.1 L 412.6 143.1 L 412.6 151.9 L 410.0 151.9 L 410.0 132.9 " fill="#000000"/>
<path class="atom-19" d="M 427.0 148.8 L 429.7 148.8 L 429.7 151.5 L 427.0 151.5 L 427.0 148.8 M 427.0 139.5 L 429.7 139.5 L 429.7 142.2 L 427.0 142.2 L 427.0 139.5 " fill="#000000"/>
<path class="atom-19" d="M 431.1 136.5 Q 431.8 134.7, 433.4 133.7 Q 435.1 132.6, 437.4 132.6 Q 440.3 132.6, 441.9 134.2 Q 443.5 135.8, 443.5 138.5 Q 443.5 141.4, 441.4 144.0 Q 439.3 146.6, 435.0 149.8 L 443.8 149.8 L 443.8 151.9 L 431.0 151.9 L 431.0 150.1 Q 434.6 147.6, 436.7 145.7 Q 438.8 143.8, 439.8 142.1 Q 440.8 140.4, 440.8 138.7 Q 440.8 136.8, 439.9 135.8 Q 439.0 134.8, 437.4 134.8 Q 435.9 134.8, 434.8 135.4 Q 433.8 136.0, 433.1 137.4 L 431.1 136.5 " fill="#000000"/>
<path class="atom-19" d="M 452.4 152.1 Q 449.0 152.1, 447.2 149.5 Q 445.5 147.0, 445.5 142.4 Q 445.5 137.8, 447.2 135.2 Q 448.9 132.6, 452.4 132.6 Q 456.0 132.6, 457.7 135.2 Q 459.4 137.8, 459.4 142.4 Q 459.4 147.0, 457.7 149.5 Q 455.9 152.1, 452.4 152.1 M 452.4 150.0 Q 454.5 150.0, 455.6 148.1 Q 456.7 146.1, 456.7 142.4 Q 456.7 138.6, 455.6 136.7 Q 454.5 134.8, 452.4 134.8 Q 450.4 134.8, 449.3 136.7 Q 448.2 138.6, 448.2 142.4 Q 448.2 146.1, 449.3 148.1 Q 450.4 150.0, 452.4 150.0 " fill="#000000"/>
<path class="atom-20" d="M 22.7 200.4 L 25.3 200.4 L 25.3 208.5 L 35.1 208.5 L 35.1 200.4 L 37.6 200.4 L 37.6 219.5 L 35.1 219.5 L 35.1 210.7 L 25.3 210.7 L 25.3 219.5 L 22.7 219.5 L 22.7 200.4 " fill="#000000"/>
<path class="atom-20" d="M 39.7 216.3 L 42.3 216.3 L 42.3 219.0 L 39.7 219.0 L 39.7 216.3 M 39.7 207.0 L 42.3 207.0 L 42.3 209.7 L 39.7 209.7 L 39.7 207.0 " fill="#000000"/>
<path class="atom-20" d="M 43.7 204.0 Q 44.4 202.2, 46.1 201.2 Q 47.8 200.2, 50.1 200.2 Q 53.0 200.2, 54.6 201.7 Q 56.2 203.3, 56.2 206.1 Q 56.2 208.9, 54.1 211.5 Q 52.0 214.2, 47.7 217.3 L 56.5 217.3 L 56.5 219.5 L 43.7 219.5 L 43.7 217.7 Q 47.2 215.1, 49.3 213.2 Q 51.5 211.4, 52.5 209.7 Q 53.5 208.0, 53.5 206.2 Q 53.5 204.4, 52.6 203.4 Q 51.7 202.3, 50.1 202.3 Q 48.6 202.3, 47.5 203.0 Q 46.5 203.6, 45.8 204.9 L 43.7 204.0 " fill="#000000"/>
<path class="atom-20" d="M 59.0 217.3 L 63.2 217.3 L 63.2 203.1 L 58.6 204.5 L 58.0 202.9 L 63.8 200.3 L 65.7 200.6 L 65.7 217.3 L 69.5 217.3 L 69.5 219.5 L 59.0 219.5 L 59.0 217.3 " fill="#000000"/>
<path class="atom-21" d="M 326.7 87.0 L 329.3 87.0 L 329.3 95.1 L 339.0 95.1 L 339.0 87.0 L 341.6 87.0 L 341.6 106.0 L 339.0 106.0 L 339.0 97.2 L 329.3 97.2 L 329.3 106.0 L 326.7 106.0 L 326.7 87.0 " fill="#000000"/>
<path class="atom-21" d="M 343.6 102.9 L 346.3 102.9 L 346.3 105.6 L 343.6 105.6 L 343.6 102.9 M 343.6 93.6 L 346.3 93.6 L 346.3 96.3 L 343.6 96.3 L 343.6 93.6 " fill="#000000"/>
<path class="atom-21" d="M 347.7 90.6 Q 348.4 88.8, 350.1 87.8 Q 351.7 86.8, 354.1 86.8 Q 356.9 86.8, 358.6 88.3 Q 360.2 89.9, 360.2 92.7 Q 360.2 95.5, 358.1 98.1 Q 356.0 100.8, 351.7 103.9 L 360.5 103.9 L 360.5 106.0 L 347.7 106.0 L 347.7 104.2 Q 351.2 101.7, 353.3 99.8 Q 355.4 97.9, 356.5 96.2 Q 357.5 94.5, 357.5 92.8 Q 357.5 91.0, 356.6 89.9 Q 355.6 88.9, 354.1 88.9 Q 352.5 88.9, 351.5 89.5 Q 350.5 90.2, 349.8 91.5 L 347.7 90.6 " fill="#000000"/>
<path class="atom-21" d="M 361.9 90.6 Q 362.6 88.8, 364.3 87.8 Q 365.9 86.8, 368.2 86.8 Q 371.1 86.8, 372.7 88.3 Q 374.3 89.9, 374.3 92.7 Q 374.3 95.5, 372.3 98.1 Q 370.2 100.8, 365.9 103.9 L 374.7 103.9 L 374.7 106.0 L 361.8 106.0 L 361.8 104.2 Q 365.4 101.7, 367.5 99.8 Q 369.6 97.9, 370.6 96.2 Q 371.7 94.5, 371.7 92.8 Q 371.7 91.0, 370.7 89.9 Q 369.8 88.9, 368.2 88.9 Q 366.7 88.9, 365.7 89.5 Q 364.7 90.2, 363.9 91.5 L 361.9 90.6 " fill="#000000"/>
<text x="292.35779515272145" y="266.1151908495901" font-size="12" font-family="Verdana" font-weight="bold" letter-spacing="0" text-anchor="start" fill="black" transform=" rotate(-76.167575 292.357795 266.115191)">0.0399</text><text x="25" y="490" font-size="12" font-family="Verdana" font-weight="bold" letter-spacing="0" text-anchor="start" fill="black">[#6:1](-[#7:2](-[#6:3]1:[#6:4](:[#6:7](:[#6:8](:[#6:9](:[#6:6]:1-[H:11])-[H:18])-[H:21])-[H:17])-[H:10])-[#6:5](-[H:14])(-[H:15])-[H:16])(-[#6:12](-[H:19])(-[H:20])-[H:22])=[#8:13]</text></svg>
