<?xml version='1.0' encoding='ASCII' standalone='yes'?>
<svg xmlns="http://www.w3.org/2000/svg" xmlns:rdkit="http://www.rdkit.org/xml" xmlns:xlink="http://www.w3.org/1999/xlink" version="1.1" baseProfile="full" xml:space="preserve" width="500px" height="500px" viewBox="0 0 500 500">
<!-- END OF HEADER -->
<rect style="opacity:1.0;fill:#FFFFFF;stroke:none" width="500" height="500" x="0" y="0"> </rect>
<path d="M 292.555,221.491 L 263.392,257.346" style="fill:none;fill-rule:evenodd;stroke:#FF7F7F;stroke-width:9.9px;stroke-linecap:butt;stroke-linejoin:miter;stroke-opacity:1"/>
<path class="bond-0 atom-0 atom-12" d="M 339.425,221.119 L 344.299,190.765" style="fill:none;fill-rule:evenodd;stroke:#000000;stroke-width:2.0px;stroke-linecap:butt;stroke-linejoin:miter;stroke-opacity:1"/>
<path class="bond-1 atom-0 atom-13" d="M 337.908,236.373 L 337.071,258.975" style="fill:none;fill-rule:evenodd;stroke:#000000;stroke-width:2.0px;stroke-linecap:butt;stroke-linejoin:miter;stroke-opacity:1"/>
<path class="bond-2 atom-1 atom-0" d="M 301.313,222.897 L 318.98,225.734" style="fill:none;fill-rule:evenodd;stroke:#000000;stroke-width:2.0px;stroke-linecap:butt;stroke-linejoin:miter;stroke-opacity:1"/>
<path class="bond-20 atom-11 atom-0" d="M 362.947,232.795 L 352.854,231.174" style="fill:none;fill-rule:evenodd;stroke:#0000FF;stroke-width:2.0px;stroke-linecap:butt;stroke-linejoin:miter;stroke-opacity:1"/>
<path class="bond-20 atom-11 atom-0" d="M 352.854,231.174 L 342.762,229.553" style="fill:none;fill-rule:evenodd;stroke:#000000;stroke-width:2.0px;stroke-linecap:butt;stroke-linejoin:miter;stroke-opacity:1"/>
<path class="bond-3 atom-1 atom-10" d="M 294.502,213.627 L 288.903,198.948" style="fill:none;fill-rule:evenodd;stroke:#000000;stroke-width:2.0px;stroke-linecap:butt;stroke-linejoin:miter;stroke-opacity:1"/>
<path class="bond-3 atom-1 atom-10" d="M 288.903,198.948 L 283.304,184.268" style="fill:none;fill-rule:evenodd;stroke:#FF0000;stroke-width:2.0px;stroke-linecap:butt;stroke-linejoin:miter;stroke-opacity:1"/>
<path class="bond-3 atom-1 atom-10" d="M 285.866,216.922 L 280.267,202.242" style="fill:none;fill-rule:evenodd;stroke:#000000;stroke-width:2.0px;stroke-linecap:butt;stroke-linejoin:miter;stroke-opacity:1"/>
<path class="bond-3 atom-1 atom-10" d="M 280.267,202.242 L 274.668,187.562" style="fill:none;fill-rule:evenodd;stroke:#FF0000;stroke-width:2.0px;stroke-linecap:butt;stroke-linejoin:miter;stroke-opacity:1"/>
<path class="bond-5 atom-2 atom-1" d="M 269.715,249.573 L 278.008,239.377" style="fill:none;fill-rule:evenodd;stroke:#0000FF;stroke-width:2.0px;stroke-linecap:butt;stroke-linejoin:miter;stroke-opacity:1"/>
<path class="bond-5 atom-2 atom-1" d="M 278.008,239.377 L 286.301,229.181" style="fill:none;fill-rule:evenodd;stroke:#000000;stroke-width:2.0px;stroke-linecap:butt;stroke-linejoin:miter;stroke-opacity:1"/>
<path class="bond-4 atom-2 atom-3" d="M 247.079,254.727 L 236.835,253.082" style="fill:none;fill-rule:evenodd;stroke:#0000FF;stroke-width:2.0px;stroke-linecap:butt;stroke-linejoin:miter;stroke-opacity:1"/>
<path class="bond-4 atom-2 atom-3" d="M 236.835,253.082 L 226.591,251.437" style="fill:none;fill-rule:evenodd;stroke:#000000;stroke-width:2.0px;stroke-linecap:butt;stroke-linejoin:miter;stroke-opacity:1"/>
<path class="bond-6 atom-2 atom-4" d="M 266.428,265.305 L 271.703,279.137" style="fill:none;fill-rule:evenodd;stroke:#0000FF;stroke-width:2.0px;stroke-linecap:butt;stroke-linejoin:miter;stroke-opacity:1"/>
<path class="bond-6 atom-2 atom-4" d="M 271.703,279.137 L 276.979,292.969" style="fill:none;fill-rule:evenodd;stroke:#000000;stroke-width:2.0px;stroke-linecap:butt;stroke-linejoin:miter;stroke-opacity:1"/>
<path class="bond-10 atom-5 atom-3" d="M 194.919,278.1 L 211.505,257.708" style="fill:none;fill-rule:evenodd;stroke:#000000;stroke-width:2.0px;stroke-linecap:butt;stroke-linejoin:miter;stroke-opacity:1"/>
<path class="bond-10 atom-5 atom-3" d="M 190.236,269.209 L 201.846,254.934" style="fill:none;fill-rule:evenodd;stroke:#000000;stroke-width:2.0px;stroke-linecap:butt;stroke-linejoin:miter;stroke-opacity:1"/>
<path class="bond-18 atom-9 atom-3" d="M 204.31,214.757 L 214.931,242.605" style="fill:none;fill-rule:evenodd;stroke:#000000;stroke-width:2.0px;stroke-linecap:butt;stroke-linejoin:miter;stroke-opacity:1"/>
<path class="bond-7 atom-4 atom-14" d="M 273.66,302.896 L 242.096,314.934" style="fill:none;fill-rule:evenodd;stroke:#000000;stroke-width:2.0px;stroke-linecap:butt;stroke-linejoin:miter;stroke-opacity:1"/>
<path class="bond-8 atom-4 atom-15" d="M 298.786,295.855 L 310.637,292.928" style="fill:none;fill-rule:evenodd;stroke:#000000;stroke-width:2.0px;stroke-linecap:butt;stroke-linejoin:miter;stroke-opacity:1"/>
<path class="bond-9 atom-4 atom-16" d="M 282.891,308.47 L 293.491,336.263" style="fill:none;fill-rule:evenodd;stroke:#000000;stroke-width:2.0px;stroke-linecap:butt;stroke-linejoin:miter;stroke-opacity:1"/>
<path class="bond-11 atom-5 atom-17" d="M 191.618,293.796 L 202.239,321.643" style="fill:none;fill-rule:evenodd;stroke:#000000;stroke-width:2.0px;stroke-linecap:butt;stroke-linejoin:miter;stroke-opacity:1"/>
<path class="bond-14 atom-7 atom-5" d="M 152.117,280.016 L 171.985,283.206" style="fill:none;fill-rule:evenodd;stroke:#000000;stroke-width:2.0px;stroke-linecap:butt;stroke-linejoin:miter;stroke-opacity:1"/>
<path class="bond-12 atom-6 atom-7" d="M 129.458,243.136 L 140.771,272.798" style="fill:none;fill-rule:evenodd;stroke:#000000;stroke-width:2.0px;stroke-linecap:butt;stroke-linejoin:miter;stroke-opacity:1"/>
<path class="bond-12 atom-6 atom-7" d="M 139.791,244.292 L 147.71,265.055" style="fill:none;fill-rule:evenodd;stroke:#000000;stroke-width:2.0px;stroke-linecap:butt;stroke-linejoin:miter;stroke-opacity:1"/>
<path class="bond-13 atom-6 atom-8" d="M 132.695,227.737 L 149.397,207.202" style="fill:none;fill-rule:evenodd;stroke:#000000;stroke-width:2.0px;stroke-linecap:butt;stroke-linejoin:miter;stroke-opacity:1"/>
<path class="bond-23 atom-21 atom-6" d="M 94.422,230.213 L 102.442,231.5" style="fill:none;fill-rule:evenodd;stroke:#0000FF;stroke-width:2.0px;stroke-linecap:butt;stroke-linejoin:miter;stroke-opacity:1"/>
<path class="bond-23 atom-21 atom-6" d="M 102.442,231.5 L 110.463,232.788" style="fill:none;fill-rule:evenodd;stroke:#000000;stroke-width:2.0px;stroke-linecap:butt;stroke-linejoin:miter;stroke-opacity:1"/>
<path class="bond-15 atom-7 atom-18" d="M 136.505,286.486 L 119.238,307.715" style="fill:none;fill-rule:evenodd;stroke:#000000;stroke-width:2.0px;stroke-linecap:butt;stroke-linejoin:miter;stroke-opacity:1"/>
<path class="bond-16 atom-8 atom-9" d="M 164.626,200.948 L 180.008,203.418" style="fill:none;fill-rule:evenodd;stroke:#000000;stroke-width:2.0px;stroke-linecap:butt;stroke-linejoin:miter;stroke-opacity:1"/>
<path class="bond-16 atom-8 atom-9" d="M 165.468,210.445 L 176.235,212.174" style="fill:none;fill-rule:evenodd;stroke:#000000;stroke-width:2.0px;stroke-linecap:butt;stroke-linejoin:miter;stroke-opacity:1"/>
<path class="bond-17 atom-8 atom-19" d="M 153.238,193.169 L 142.142,164.076" style="fill:none;fill-rule:evenodd;stroke:#000000;stroke-width:2.0px;stroke-linecap:butt;stroke-linejoin:miter;stroke-opacity:1"/>
<path class="bond-19 atom-9 atom-20" d="M 207.611,199.061 L 224.425,178.388" style="fill:none;fill-rule:evenodd;stroke:#000000;stroke-width:2.0px;stroke-linecap:butt;stroke-linejoin:miter;stroke-opacity:1"/>
<path class="bond-21 atom-11 atom-22" d="M 390.144,228.373 L 398.505,218.094" style="fill:none;fill-rule:evenodd;stroke:#0000FF;stroke-width:2.0px;stroke-linecap:butt;stroke-linejoin:miter;stroke-opacity:1"/>
<path class="bond-21 atom-11 atom-22" d="M 398.505,218.094 L 406.865,207.815" style="fill:none;fill-rule:evenodd;stroke:#000000;stroke-width:2.0px;stroke-linecap:butt;stroke-linejoin:miter;stroke-opacity:1"/>
<path class="bond-22 atom-11 atom-23" d="M 386.786,243.921 L 392.096,257.843" style="fill:none;fill-rule:evenodd;stroke:#0000FF;stroke-width:2.0px;stroke-linecap:butt;stroke-linejoin:miter;stroke-opacity:1"/>
<path class="bond-22 atom-11 atom-23" d="M 392.096,257.843 L 397.406,271.765" style="fill:none;fill-rule:evenodd;stroke:#000000;stroke-width:2.0px;stroke-linecap:butt;stroke-linejoin:miter;stroke-opacity:1"/>
<path class="bond-24 atom-21 atom-24" d="M 77.8944,220.261 L 72.6127,206.413" style="fill:none;fill-rule:evenodd;stroke:#0000FF;stroke-width:2.0px;stroke-linecap:butt;stroke-linejoin:miter;stroke-opacity:1"/>
<path class="bond-24 atom-21 atom-24" d="M 72.6127,206.413 L 67.3311,192.565" style="fill:none;fill-rule:evenodd;stroke:#000000;stroke-width:2.0px;stroke-linecap:butt;stroke-linejoin:miter;stroke-opacity:1"/>
<path class="bond-25 atom-21 atom-29" d="M 74.5366,235.808 L 65.9631,246.349" style="fill:none;fill-rule:evenodd;stroke:#0000FF;stroke-width:2.0px;stroke-linecap:butt;stroke-linejoin:miter;stroke-opacity:1"/>
<path class="bond-25 atom-21 atom-29" d="M 65.9631,246.349 L 57.3897,256.89" style="fill:none;fill-rule:evenodd;stroke:#000000;stroke-width:2.0px;stroke-linecap:butt;stroke-linejoin:miter;stroke-opacity:1"/>
<path class="bond-26 atom-22 atom-25" d="M 422.769,208.25 L 442.878,224.606" style="fill:none;fill-rule:evenodd;stroke:#000000;stroke-width:2.0px;stroke-linecap:butt;stroke-linejoin:miter;stroke-opacity:1"/>
<path class="bond-27 atom-22 atom-26" d="M 403.426,192.518 L 382.32,175.351" style="fill:none;fill-rule:evenodd;stroke:#000000;stroke-width:2.0px;stroke-linecap:butt;stroke-linejoin:miter;stroke-opacity:1"/>
<path class="bond-28 atom-22 atom-30" d="M 419.307,192.518 L 436.121,171.845" style="fill:none;fill-rule:evenodd;stroke:#000000;stroke-width:2.0px;stroke-linecap:butt;stroke-linejoin:miter;stroke-opacity:1"/>
<path class="bond-29 atom-23 atom-27" d="M 414.231,274.014 L 437.572,265.112" style="fill:none;fill-rule:evenodd;stroke:#000000;stroke-width:2.0px;stroke-linecap:butt;stroke-linejoin:miter;stroke-opacity:1"/>
<path class="bond-30 atom-23 atom-28" d="M 379.473,287.271 L 362.245,293.841" style="fill:none;fill-rule:evenodd;stroke:#000000;stroke-width:2.0px;stroke-linecap:butt;stroke-linejoin:miter;stroke-opacity:1"/>
<path class="bond-31 atom-23 atom-31" d="M 403.257,287.104 L 413.933,315.096" style="fill:none;fill-rule:evenodd;stroke:#000000;stroke-width:2.0px;stroke-linecap:butt;stroke-linejoin:miter;stroke-opacity:1"/>
<path class="atom-0" d="M 319.914 228.874 Q 319.914 225.621, 321.429 223.92 Q 322.964 222.201, 325.866 222.201 Q 328.566 222.201, 330.008 224.105 L 328.787 225.103 Q 327.734 223.716, 325.866 223.716 Q 323.888 223.716, 322.835 225.048 Q 321.799 226.36, 321.799 228.874 Q 321.799 231.463, 322.871 232.794 Q 323.962 234.125, 326.07 234.125 Q 327.512 234.125, 329.194 233.256 L 329.712 234.642 Q 329.028 235.086, 327.992 235.345 Q 326.957 235.604, 325.811 235.604 Q 322.964 235.604, 321.429 233.866 Q 319.914 232.128, 319.914 228.874 " fill="#000000"/>
<path class="atom-0" d="M 331.394 233.274 L 333.243 233.274 L 333.243 235.123 L 331.394 235.123 L 331.394 233.274 M 331.394 226.915 L 333.243 226.915 L 333.243 228.763 L 331.394 228.763 L 331.394 226.915 " fill="#000000"/>
<path class="atom-0" d="M 334.962 233.958 L 337.828 233.958 L 337.828 224.179 L 334.666 225.158 L 334.241 224.068 L 338.253 222.274 L 339.565 222.496 L 339.565 233.958 L 342.135 233.958 L 342.135 235.437 L 334.962 235.437 L 334.962 233.958 " fill="#000000"/>
<path class="atom-1" d="M 277.086 221.546 Q 277.086 218.293, 278.602 216.592 Q 280.136 214.873, 283.039 214.873 Q 285.738 214.873, 287.18 216.777 L 285.96 217.775 Q 284.906 216.389, 283.039 216.389 Q 281.061 216.389, 280.007 217.72 Q 278.971 219.032, 278.971 221.546 Q 278.971 224.135, 280.044 225.466 Q 281.134 226.797, 283.242 226.797 Q 284.684 226.797, 286.366 225.928 L 286.884 227.314 Q 286.2 227.758, 285.165 228.017 Q 284.129 228.276, 282.983 228.276 Q 280.136 228.276, 278.602 226.538 Q 277.086 224.8, 277.086 221.546 " fill="#000000"/>
<path class="atom-1" d="M 288.566 225.946 L 290.415 225.946 L 290.415 227.795 L 288.566 227.795 L 288.566 225.946 M 288.566 219.587 L 290.415 219.587 L 290.415 221.435 L 288.566 221.435 L 288.566 219.587 " fill="#000000"/>
<path class="atom-1" d="M 291.376 217.498 Q 291.857 216.259, 293.003 215.575 Q 294.149 214.873, 295.739 214.873 Q 297.717 214.873, 298.827 215.945 Q 299.936 217.017, 299.936 218.921 Q 299.936 220.862, 298.494 222.674 Q 297.07 224.486, 294.112 226.63 L 300.158 226.63 L 300.158 228.109 L 291.339 228.109 L 291.339 226.871 Q 293.78 225.133, 295.222 223.839 Q 296.682 222.545, 297.385 221.38 Q 298.087 220.215, 298.087 219.014 Q 298.087 217.757, 297.459 217.054 Q 296.83 216.352, 295.739 216.352 Q 294.686 216.352, 293.983 216.777 Q 293.281 217.202, 292.781 218.145 L 291.376 217.498 " fill="#000000"/>
<path class="atom-2" d="M 250.305 250.876 L 254.594 257.809 Q 255.019 258.493, 255.703 259.731 Q 256.387 260.97, 256.424 261.044 L 256.424 250.876 L 258.162 250.876 L 258.162 263.965 L 256.369 263.965 L 251.765 256.385 Q 251.229 255.498, 250.656 254.481 Q 250.101 253.464, 249.935 253.15 L 249.935 263.965 L 248.234 263.965 L 248.234 250.876 L 250.305 250.876 " fill="#0000FF"/>
<path class="atom-2" d="M 259.548 261.802 L 261.397 261.802 L 261.397 263.651 L 259.548 263.651 L 259.548 261.802 M 259.548 255.442 L 261.397 255.442 L 261.397 257.291 L 259.548 257.291 L 259.548 255.442 " fill="#0000FF"/>
<path class="atom-2" d="M 268.459 257.069 Q 269.735 257.439, 270.345 258.271 Q 270.973 259.084, 270.973 260.378 Q 270.973 261.488, 270.419 262.356 Q 269.864 263.207, 268.847 263.688 Q 267.831 264.15, 266.499 264.15 Q 265.094 264.15, 264.041 263.669 Q 263.005 263.17, 262.173 262.172 L 263.227 261.099 Q 264.041 261.987, 264.725 262.338 Q 265.409 262.671, 266.499 262.671 Q 267.683 262.671, 268.404 262.042 Q 269.125 261.395, 269.125 260.36 Q 269.125 259.029, 268.367 258.437 Q 267.627 257.827, 266.019 257.827 L 265.076 257.827 L 265.076 256.496 L 265.908 256.496 Q 267.331 256.478, 268.089 255.867 Q 268.847 255.239, 268.847 254.074 Q 268.847 253.224, 268.219 252.725 Q 267.59 252.207, 266.518 252.207 Q 265.427 252.207, 264.743 252.595 Q 264.078 252.983, 263.56 253.963 L 262.284 253.279 Q 262.747 252.189, 263.856 251.468 Q 264.965 250.728, 266.518 250.728 Q 268.441 250.728, 269.568 251.634 Q 270.696 252.54, 270.696 254.074 Q 270.696 255.128, 270.123 255.886 Q 269.55 256.644, 268.459 257.069 " fill="#0000FF"/>
<path class="atom-3" d="M 201.889 250.074 Q 201.889 246.82, 203.405 245.119 Q 204.94 243.4, 207.842 243.4 Q 210.541 243.4, 211.983 245.304 L 210.763 246.303 Q 209.709 244.916, 207.842 244.916 Q 205.864 244.916, 204.81 246.247 Q 203.775 247.56, 203.775 250.074 Q 203.775 252.662, 204.847 253.993 Q 205.938 255.324, 208.045 255.324 Q 209.487 255.324, 211.17 254.455 L 211.687 255.842 Q 211.003 256.286, 209.968 256.544 Q 208.933 256.803, 207.787 256.803 Q 204.94 256.803, 203.405 255.065 Q 201.889 253.328, 201.889 250.074 " fill="#000000"/>
<path class="atom-3" d="M 213.37 254.474 L 215.218 254.474 L 215.218 256.323 L 213.37 256.323 L 213.37 254.474 M 213.37 248.114 L 215.218 248.114 L 215.218 249.963 L 213.37 249.963 L 213.37 248.114 " fill="#000000"/>
<path class="atom-3" d="M 224.277 252.145 L 225.849 252.145 L 225.849 253.623 L 224.277 253.623 L 224.277 256.637 L 222.539 256.637 L 222.539 253.623 L 215.773 253.623 L 215.773 252.459 L 221.504 243.548 L 224.277 243.548 L 224.277 252.145 M 217.918 252.145 L 222.539 252.145 L 222.539 244.731 L 217.918 252.145 " fill="#000000"/>
<path class="atom-4" d="M 274.815 300.585 Q 274.815 297.332, 276.331 295.631 Q 277.866 293.912, 280.768 293.912 Q 283.467 293.912, 284.909 295.816 L 283.689 296.814 Q 282.636 295.427, 280.768 295.427 Q 278.79 295.427, 277.736 296.759 Q 276.701 298.071, 276.701 300.585 Q 276.701 303.174, 277.773 304.505 Q 278.864 305.836, 280.972 305.836 Q 282.414 305.836, 284.096 304.967 L 284.614 306.353 Q 283.93 306.797, 282.894 307.056 Q 281.859 307.315, 280.713 307.315 Q 277.866 307.315, 276.331 305.577 Q 274.815 303.839, 274.815 300.585 " fill="#000000"/>
<path class="atom-4" d="M 286.296 304.985 L 288.145 304.985 L 288.145 306.834 L 286.296 306.834 L 286.296 304.985 M 286.296 298.626 L 288.145 298.626 L 288.145 300.474 L 286.296 300.474 L 286.296 298.626 " fill="#000000"/>
<path class="atom-4" d="M 293.746 298.959 Q 294.893 298.959, 295.835 299.458 Q 296.778 299.938, 297.314 300.863 Q 297.85 301.769, 297.85 303.007 Q 297.85 304.357, 297.185 305.337 Q 296.538 306.298, 295.466 306.797 Q 294.393 307.296, 293.173 307.296 Q 291.972 307.296, 290.862 306.853 Q 289.753 306.409, 288.995 305.558 L 290.104 304.412 Q 290.714 305.078, 291.546 305.448 Q 292.378 305.799, 293.229 305.799 Q 294.393 305.799, 295.188 305.078 Q 296.002 304.357, 296.002 303.044 Q 296.002 301.658, 295.188 301.011 Q 294.393 300.345, 293.118 300.345 Q 291.972 300.345, 290.696 300.844 L 289.679 300.364 L 290.308 294.059 L 297.037 294.059 L 296.852 295.538 L 291.824 295.538 L 291.435 299.421 Q 292.6 298.959, 293.746 298.959 " fill="#000000"/>
<path class="atom-5" d="M 172.908 285.929 Q 172.908 282.676, 174.424 280.975 Q 175.959 279.256, 178.861 279.256 Q 181.56 279.256, 183.002 281.16 L 181.782 282.158 Q 180.728 280.772, 178.861 280.772 Q 176.883 280.772, 175.829 282.103 Q 174.794 283.415, 174.794 285.929 Q 174.794 288.518, 175.866 289.849 Q 176.957 291.18, 179.064 291.18 Q 180.506 291.18, 182.189 290.311 L 182.706 291.697 Q 182.022 292.141, 180.987 292.4 Q 179.952 292.659, 178.806 292.659 Q 175.959 292.659, 174.424 290.921 Q 172.908 289.183, 172.908 285.929 " fill="#000000"/>
<path class="atom-5" d="M 184.389 290.329 L 186.237 290.329 L 186.237 292.178 L 184.389 292.178 L 184.389 290.329 M 184.389 283.97 L 186.237 283.97 L 186.237 285.819 L 184.389 285.819 L 184.389 283.97 " fill="#000000"/>
<path class="atom-5" d="M 192.616 284.321 Q 193.762 284.321, 194.668 284.82 Q 195.573 285.319, 196.073 286.225 Q 196.572 287.131, 196.572 288.277 Q 196.572 289.553, 195.999 290.551 Q 195.444 291.531, 194.446 292.086 Q 193.447 292.64, 192.172 292.64 Q 189.842 292.64, 188.659 291.069 Q 187.495 289.479, 187.495 286.336 Q 187.495 282.861, 188.937 281.067 Q 190.397 279.256, 193.189 279.256 Q 194.002 279.256, 194.686 279.44 Q 195.389 279.625, 196.054 280.014 L 195.333 281.252 Q 194.372 280.735, 193.207 280.735 Q 191.358 280.735, 190.416 281.936 Q 189.473 283.119, 189.362 285.578 Q 190.027 284.968, 190.859 284.654 Q 191.71 284.321, 192.616 284.321 M 192.19 291.124 Q 192.893 291.124, 193.466 290.755 Q 194.058 290.385, 194.39 289.738 Q 194.723 289.091, 194.723 288.296 Q 194.723 287.131, 194.076 286.466 Q 193.429 285.8, 192.283 285.8 Q 191.488 285.8, 190.693 286.133 Q 189.916 286.447, 189.362 287.002 Q 189.436 289.165, 190.12 290.145 Q 190.804 291.124, 192.19 291.124 " fill="#000000"/>
<path class="atom-6" d="M 111.275 235.418 Q 111.275 232.164, 112.791 230.463 Q 114.325 228.744, 117.227 228.744 Q 119.927 228.744, 121.369 230.648 L 120.148 231.647 Q 119.095 230.26, 117.227 230.26 Q 115.249 230.26, 114.196 231.591 Q 113.16 232.904, 113.16 235.418 Q 113.16 238.006, 114.233 239.337 Q 115.323 240.668, 117.431 240.668 Q 118.873 240.668, 120.555 239.799 L 121.073 241.186 Q 120.389 241.63, 119.353 241.889 Q 118.318 242.147, 117.172 242.147 Q 114.325 242.147, 112.791 240.41 Q 111.275 238.672, 111.275 235.418 " fill="#000000"/>
<path class="atom-6" d="M 122.755 239.818 L 124.604 239.818 L 124.604 241.667 L 122.755 241.667 L 122.755 239.818 M 122.755 233.458 L 124.604 233.458 L 124.604 235.307 L 122.755 235.307 L 122.755 233.458 " fill="#000000"/>
<path class="atom-6" d="M 131.795 230.371 L 124.937 230.371 L 124.937 228.892 L 133.626 228.892 L 133.626 230.205 L 128.338 241.981 L 126.563 241.981 L 131.795 230.371 " fill="#000000"/>
<path class="atom-7" d="M 127.243 278.601 Q 127.243 275.348, 128.759 273.647 Q 130.293 271.928, 133.196 271.928 Q 135.895 271.928, 137.337 273.832 L 136.117 274.83 Q 135.063 273.444, 133.196 273.444 Q 131.217 273.444, 130.164 274.775 Q 129.128 276.087, 129.128 278.601 Q 129.128 281.19, 130.201 282.521 Q 131.291 283.852, 133.399 283.852 Q 134.841 283.852, 136.523 282.983 L 137.041 284.369 Q 136.357 284.813, 135.322 285.072 Q 134.286 285.331, 133.14 285.331 Q 130.293 285.331, 128.759 283.593 Q 127.243 281.855, 127.243 278.601 " fill="#000000"/>
<path class="atom-7" d="M 138.723 283.001 L 140.572 283.001 L 140.572 284.85 L 138.723 284.85 L 138.723 283.001 M 138.723 276.642 L 140.572 276.642 L 140.572 278.491 L 138.723 278.491 L 138.723 276.642 " fill="#000000"/>
<path class="atom-7" d="M 148.392 278.232 Q 149.594 278.749, 150.278 279.526 Q 150.962 280.284, 150.962 281.578 Q 150.962 282.687, 150.389 283.556 Q 149.816 284.406, 148.78 284.887 Q 147.763 285.349, 146.414 285.349 Q 144.232 285.349, 142.975 284.351 Q 141.718 283.334, 141.718 281.578 Q 141.718 280.506, 142.273 279.711 Q 142.827 278.897, 143.974 278.287 Q 143.123 277.807, 142.661 277.104 Q 142.199 276.383, 142.199 275.274 Q 142.199 273.739, 143.308 272.834 Q 144.436 271.928, 146.34 271.928 Q 148.244 271.928, 149.353 272.834 Q 150.481 273.739, 150.481 275.274 Q 150.481 276.235, 149.945 276.956 Q 149.427 277.659, 148.392 278.232 M 146.34 273.314 Q 145.249 273.314, 144.639 273.832 Q 144.048 274.349, 144.048 275.274 Q 144.048 275.958, 144.454 276.42 Q 144.861 276.864, 145.434 277.123 Q 146.026 277.381, 147.153 277.77 Q 147.948 277.215, 148.281 276.623 Q 148.632 276.032, 148.632 275.274 Q 148.632 274.349, 148.022 273.832 Q 147.431 273.314, 146.34 273.314 M 146.414 283.963 Q 147.634 283.963, 148.374 283.316 Q 149.113 282.65, 149.113 281.559 Q 149.113 280.857, 148.725 280.413 Q 148.337 279.97, 147.745 279.711 Q 147.172 279.452, 146.137 279.119 L 145.305 278.842 Q 144.38 279.396, 143.974 280.062 Q 143.567 280.709, 143.567 281.559 Q 143.567 282.65, 144.343 283.316 Q 145.12 283.963, 146.414 283.963 " fill="#000000"/>
<path class="atom-8" d="M 140.048 199.563 Q 140.048 196.309, 141.564 194.608 Q 143.098 192.889, 146 192.889 Q 148.7 192.889, 150.142 194.793 L 148.921 195.791 Q 147.868 194.405, 146 194.405 Q 144.022 194.405, 142.969 195.736 Q 141.933 197.048, 141.933 199.563 Q 141.933 202.151, 143.006 203.482 Q 144.096 204.813, 146.204 204.813 Q 147.646 204.813, 149.328 203.944 L 149.846 205.33 Q 149.162 205.774, 148.126 206.033 Q 147.091 206.292, 145.945 206.292 Q 143.098 206.292, 141.564 204.554 Q 140.048 202.816, 140.048 199.563 " fill="#000000"/>
<path class="atom-8" d="M 151.528 203.962 L 153.377 203.962 L 153.377 205.811 L 151.528 205.811 L 151.528 203.962 M 151.528 197.603 L 153.377 197.603 L 153.377 199.452 L 151.528 199.452 L 151.528 197.603 " fill="#000000"/>
<path class="atom-8" d="M 158.794 192.889 Q 161.123 192.889, 162.288 194.479 Q 163.471 196.05, 163.471 199.193 Q 163.471 202.668, 162.01 204.48 Q 160.568 206.273, 157.777 206.273 Q 156.963 206.273, 156.261 206.088 Q 155.577 205.904, 154.911 205.515 L 155.632 204.277 Q 156.594 204.794, 157.758 204.794 Q 159.607 204.794, 160.55 203.611 Q 161.493 202.41, 161.604 199.951 Q 160.938 200.561, 160.088 200.894 Q 159.256 201.208, 158.35 201.208 Q 157.204 201.208, 156.298 200.709 Q 155.392 200.21, 154.893 199.304 Q 154.394 198.398, 154.394 197.252 Q 154.394 195.976, 154.948 194.996 Q 155.521 193.998, 156.52 193.443 Q 157.518 192.889, 158.794 192.889 M 156.242 197.233 Q 156.242 198.398, 156.889 199.063 Q 157.536 199.729, 158.683 199.729 Q 159.478 199.729, 160.254 199.415 Q 161.049 199.082, 161.604 198.527 Q 161.53 196.364, 160.846 195.384 Q 160.162 194.405, 158.775 194.405 Q 158.073 194.405, 157.481 194.774 Q 156.908 195.144, 156.575 195.791 Q 156.242 196.438, 156.242 197.233 " fill="#000000"/>
<path class="atom-9" d="M 180.937 206.89 Q 180.937 203.637, 182.452 201.936 Q 183.987 200.217, 186.889 200.217 Q 189.588 200.217, 191.03 202.121 L 189.81 203.119 Q 188.757 201.733, 186.889 201.733 Q 184.911 201.733, 183.857 203.064 Q 182.822 204.376, 182.822 206.89 Q 182.822 209.479, 183.894 210.81 Q 184.985 212.141, 187.093 212.141 Q 188.535 212.141, 190.217 211.272 L 190.735 212.658 Q 190.051 213.102, 189.015 213.361 Q 187.98 213.62, 186.834 213.62 Q 183.987 213.62, 182.452 211.882 Q 180.937 210.144, 180.937 206.89 " fill="#000000"/>
<path class="atom-9" d="M 192.417 211.29 L 194.266 211.29 L 194.266 213.139 L 192.417 213.139 L 192.417 211.29 M 192.417 204.931 L 194.266 204.931 L 194.266 206.78 L 192.417 206.78 L 192.417 204.931 " fill="#000000"/>
<path class="atom-9" d="M 195.985 211.974 L 198.851 211.974 L 198.851 202.195 L 195.689 203.175 L 195.264 202.084 L 199.276 200.291 L 200.588 200.512 L 200.588 211.974 L 203.158 211.974 L 203.158 213.453 L 195.985 213.453 L 195.985 211.974 " fill="#000000"/>
<path class="atom-9" d="M 209.074 213.601 Q 206.671 213.601, 205.469 211.827 Q 204.286 210.052, 204.286 206.89 Q 204.286 203.729, 205.469 201.973 Q 206.652 200.217, 209.074 200.217 Q 211.496 200.217, 212.679 201.973 Q 213.862 203.729, 213.862 206.89 Q 213.862 210.052, 212.66 211.827 Q 211.477 213.601, 209.074 213.601 M 209.074 212.122 Q 210.497 212.122, 211.255 210.81 Q 212.013 209.479, 212.013 206.89 Q 212.013 204.321, 211.255 203.008 Q 210.497 201.696, 209.074 201.696 Q 207.669 201.696, 206.892 203.008 Q 206.134 204.321, 206.134 206.89 Q 206.134 209.479, 206.892 210.81 Q 207.669 212.122, 209.074 212.122 " fill="#000000"/>
<path class="atom-10" d="M 246.995 178.344 Q 246.995 175.202, 248.548 173.445 Q 250.101 171.689, 253.003 171.689 Q 255.906 171.689, 257.459 173.445 Q 259.012 175.202, 259.012 178.344 Q 259.012 181.524, 257.44 183.336 Q 255.869 185.129, 253.003 185.129 Q 250.119 185.129, 248.548 183.336 Q 246.995 181.543, 246.995 178.344 M 253.003 183.65 Q 255 183.65, 256.072 182.319 Q 257.163 180.97, 257.163 178.344 Q 257.163 175.775, 256.072 174.481 Q 255 173.168, 253.003 173.168 Q 251.007 173.168, 249.916 174.462 Q 248.844 175.756, 248.844 178.344 Q 248.844 180.988, 249.916 182.319 Q 251.007 183.65, 253.003 183.65 " fill="#FF0000"/>
<path class="atom-10" d="M 260.398 182.763 L 262.247 182.763 L 262.247 184.612 L 260.398 184.612 L 260.398 182.763 M 260.398 176.403 L 262.247 176.403 L 262.247 178.252 L 260.398 178.252 L 260.398 176.403 " fill="#FF0000"/>
<path class="atom-10" d="M 263.966 183.447 L 266.832 183.447 L 266.832 173.667 L 263.67 174.647 L 263.245 173.556 L 267.257 171.763 L 268.569 171.985 L 268.569 183.447 L 271.139 183.447 L 271.139 184.926 L 263.966 184.926 L 263.966 183.447 " fill="#FF0000"/>
<path class="atom-10" d="M 272.858 183.447 L 275.724 183.447 L 275.724 173.667 L 272.563 174.647 L 272.137 173.556 L 276.149 171.763 L 277.462 171.985 L 277.462 183.447 L 280.032 183.447 L 280.032 184.926 L 272.858 184.926 L 272.858 183.447 " fill="#FF0000"/>
<path class="atom-11" d="M 366.173 229.676 L 370.462 236.609 Q 370.887 237.293, 371.571 238.532 Q 372.255 239.77, 372.292 239.844 L 372.292 229.676 L 374.03 229.676 L 374.03 242.765 L 372.237 242.765 L 367.633 235.186 Q 367.097 234.298, 366.524 233.281 Q 365.97 232.265, 365.803 231.95 L 365.803 242.765 L 364.102 242.765 L 364.102 229.676 L 366.173 229.676 " fill="#0000FF"/>
<path class="atom-11" d="M 375.417 240.602 L 377.265 240.602 L 377.265 242.451 L 375.417 242.451 L 375.417 240.602 M 375.417 234.243 L 377.265 234.243 L 377.265 236.091 L 375.417 236.091 L 375.417 234.243 " fill="#0000FF"/>
<path class="atom-11" d="M 378.985 241.286 L 381.85 241.286 L 381.85 231.507 L 378.689 232.486 L 378.264 231.396 L 382.275 229.602 L 383.588 229.824 L 383.588 241.286 L 386.158 241.286 L 386.158 242.765 L 378.985 242.765 L 378.985 241.286 " fill="#0000FF"/>
<path class="atom-11" d="M 387.119 232.154 Q 387.6 230.915, 388.746 230.231 Q 389.892 229.528, 391.482 229.528 Q 393.46 229.528, 394.569 230.601 Q 395.678 231.673, 395.678 233.577 Q 395.678 235.518, 394.236 237.33 Q 392.813 239.142, 389.855 241.286 L 395.9 241.286 L 395.9 242.765 L 387.082 242.765 L 387.082 241.527 Q 389.522 239.789, 390.964 238.495 Q 392.425 237.201, 393.127 236.036 Q 393.83 234.871, 393.83 233.67 Q 393.83 232.412, 393.201 231.71 Q 392.573 231.007, 391.482 231.007 Q 390.428 231.007, 389.726 231.433 Q 389.023 231.858, 388.524 232.801 L 387.119 232.154 " fill="#0000FF"/>
<path class="atom-12" d="M 340.395 176.715 L 342.17 176.715 L 342.17 182.28 L 348.862 182.28 L 348.862 176.715 L 350.637 176.715 L 350.637 189.804 L 348.862 189.804 L 348.862 183.759 L 342.17 183.759 L 342.17 189.804 L 340.395 189.804 L 340.395 176.715 " fill="#000000"/>
<path class="atom-12" d="M 352.023 187.641 L 353.872 187.641 L 353.872 189.49 L 352.023 189.49 L 352.023 187.641 M 352.023 181.282 L 353.872 181.282 L 353.872 183.13 L 352.023 183.13 L 352.023 181.282 " fill="#000000"/>
<path class="atom-12" d="M 355.592 188.325 L 358.457 188.325 L 358.457 178.545 L 355.296 179.525 L 354.871 178.435 L 358.882 176.641 L 360.195 176.863 L 360.195 188.325 L 362.765 188.325 L 362.765 189.804 L 355.592 189.804 L 355.592 188.325 " fill="#000000"/>
<path class="atom-12" d="M 369.827 182.908 Q 371.102 183.278, 371.712 184.11 Q 372.341 184.924, 372.341 186.218 Q 372.341 187.327, 371.786 188.196 Q 371.232 189.046, 370.215 189.527 Q 369.198 189.989, 367.867 189.989 Q 366.462 189.989, 365.408 189.508 Q 364.373 189.009, 363.541 188.011 L 364.595 186.939 Q 365.408 187.826, 366.092 188.177 Q 366.776 188.51, 367.867 188.51 Q 369.05 188.51, 369.771 187.881 Q 370.492 187.234, 370.492 186.199 Q 370.492 184.868, 369.734 184.276 Q 368.995 183.666, 367.386 183.666 L 366.443 183.666 L 366.443 182.335 L 367.275 182.335 Q 368.699 182.317, 369.457 181.707 Q 370.215 181.078, 370.215 179.914 Q 370.215 179.063, 369.586 178.564 Q 368.958 178.046, 367.885 178.046 Q 366.795 178.046, 366.111 178.435 Q 365.445 178.823, 364.928 179.803 L 363.652 179.119 Q 364.114 178.028, 365.223 177.307 Q 366.333 176.567, 367.885 176.567 Q 369.808 176.567, 370.936 177.473 Q 372.064 178.379, 372.064 179.914 Q 372.064 180.967, 371.49 181.725 Q 370.917 182.483, 369.827 182.908 " fill="#000000"/>
<path class="atom-13" d="M 331.681 259.722 L 333.456 259.722 L 333.456 265.287 L 340.148 265.287 L 340.148 259.722 L 341.923 259.722 L 341.923 272.811 L 340.148 272.811 L 340.148 266.766 L 333.456 266.766 L 333.456 272.811 L 331.681 272.811 L 331.681 259.722 " fill="#000000"/>
<path class="atom-13" d="M 343.31 270.648 L 345.158 270.648 L 345.158 272.497 L 343.31 272.497 L 343.31 270.648 M 343.31 264.289 L 345.158 264.289 L 345.158 266.137 L 343.31 266.137 L 343.31 264.289 " fill="#000000"/>
<path class="atom-13" d="M 346.878 271.332 L 349.743 271.332 L 349.743 261.552 L 346.582 262.532 L 346.157 261.442 L 350.168 259.648 L 351.481 259.87 L 351.481 271.332 L 354.051 271.332 L 354.051 272.811 L 346.878 272.811 L 346.878 271.332 " fill="#000000"/>
<path class="atom-13" d="M 363.109 268.319 L 364.681 268.319 L 364.681 269.798 L 363.109 269.798 L 363.109 272.811 L 361.372 272.811 L 361.372 269.798 L 354.605 269.798 L 354.605 268.633 L 360.336 259.722 L 363.109 259.722 L 363.109 268.319 M 356.75 268.319 L 361.372 268.319 L 361.372 260.905 L 356.75 268.319 " fill="#000000"/>
<path class="atom-14" d="M 209.032 310.493 L 210.806 310.493 L 210.806 316.057 L 217.499 316.057 L 217.499 310.493 L 219.273 310.493 L 219.273 323.582 L 217.499 323.582 L 217.499 317.536 L 210.806 317.536 L 210.806 323.582 L 209.032 323.582 L 209.032 310.493 " fill="#000000"/>
<path class="atom-14" d="M 220.66 321.419 L 222.509 321.419 L 222.509 323.267 L 220.66 323.267 L 220.66 321.419 M 220.66 315.059 L 222.509 315.059 L 222.509 316.908 L 220.66 316.908 L 220.66 315.059 " fill="#000000"/>
<path class="atom-14" d="M 224.228 322.103 L 227.093 322.103 L 227.093 312.323 L 223.932 313.303 L 223.507 312.212 L 227.519 310.419 L 228.831 310.641 L 228.831 322.103 L 231.401 322.103 L 231.401 323.582 L 224.228 323.582 L 224.228 322.103 " fill="#000000"/>
<path class="atom-14" d="M 237.003 315.392 Q 238.149 315.392, 239.092 315.891 Q 240.034 316.372, 240.571 317.296 Q 241.107 318.202, 241.107 319.441 Q 241.107 320.79, 240.441 321.77 Q 239.794 322.731, 238.722 323.23 Q 237.65 323.73, 236.429 323.73 Q 235.228 323.73, 234.119 323.286 Q 233.009 322.842, 232.251 321.992 L 233.361 320.846 Q 233.971 321.511, 234.803 321.881 Q 235.634 322.232, 236.485 322.232 Q 237.65 322.232, 238.445 321.511 Q 239.258 320.79, 239.258 319.478 Q 239.258 318.091, 238.445 317.444 Q 237.65 316.778, 236.374 316.778 Q 235.228 316.778, 233.952 317.278 L 232.935 316.797 L 233.564 310.493 L 240.293 310.493 L 240.108 311.972 L 235.08 311.972 L 234.692 315.854 Q 235.856 315.392, 237.003 315.392 " fill="#000000"/>
<path class="atom-15" d="M 311.086 285.082 L 312.86 285.082 L 312.86 290.646 L 319.553 290.646 L 319.553 285.082 L 321.327 285.082 L 321.327 298.171 L 319.553 298.171 L 319.553 292.125 L 312.86 292.125 L 312.86 298.171 L 311.086 298.171 L 311.086 285.082 " fill="#000000"/>
<path class="atom-15" d="M 322.714 296.008 L 324.563 296.008 L 324.563 297.856 L 322.714 297.856 L 322.714 296.008 M 322.714 289.648 L 324.563 289.648 L 324.563 291.497 L 322.714 291.497 L 322.714 289.648 " fill="#000000"/>
<path class="atom-15" d="M 326.282 296.692 L 329.147 296.692 L 329.147 286.912 L 325.986 287.892 L 325.561 286.801 L 329.573 285.008 L 330.885 285.23 L 330.885 296.692 L 333.455 296.692 L 333.455 298.171 L 326.282 298.171 L 326.282 296.692 " fill="#000000"/>
<path class="atom-15" d="M 339.833 289.999 Q 340.979 289.999, 341.885 290.498 Q 342.791 290.998, 343.29 291.903 Q 343.789 292.809, 343.789 293.955 Q 343.789 295.231, 343.216 296.229 Q 342.662 297.209, 341.663 297.764 Q 340.665 298.318, 339.389 298.318 Q 337.06 298.318, 335.877 296.747 Q 334.712 295.157, 334.712 292.014 Q 334.712 288.539, 336.154 286.746 Q 337.615 284.934, 340.406 284.934 Q 341.22 284.934, 341.904 285.119 Q 342.606 285.304, 343.272 285.692 L 342.551 286.93 Q 341.589 286.413, 340.425 286.413 Q 338.576 286.413, 337.633 287.614 Q 336.69 288.798, 336.579 291.256 Q 337.245 290.646, 338.077 290.332 Q 338.927 289.999, 339.833 289.999 M 339.408 296.803 Q 340.11 296.803, 340.683 296.433 Q 341.275 296.063, 341.608 295.416 Q 341.941 294.769, 341.941 293.974 Q 341.941 292.809, 341.293 292.144 Q 340.646 291.478, 339.5 291.478 Q 338.705 291.478, 337.91 291.811 Q 337.134 292.125, 336.579 292.68 Q 336.653 294.843, 337.337 295.823 Q 338.021 296.803, 339.408 296.803 " fill="#000000"/>
<path class="atom-16" d="M 291.212 337.206 L 292.987 337.206 L 292.987 342.771 L 299.679 342.771 L 299.679 337.206 L 301.454 337.206 L 301.454 350.295 L 299.679 350.295 L 299.679 344.25 L 292.987 344.25 L 292.987 350.295 L 291.212 350.295 L 291.212 337.206 " fill="#000000"/>
<path class="atom-16" d="M 302.84 348.132 L 304.689 348.132 L 304.689 349.981 L 302.84 349.981 L 302.84 348.132 M 302.84 341.772 L 304.689 341.772 L 304.689 343.621 L 302.84 343.621 L 302.84 341.772 " fill="#000000"/>
<path class="atom-16" d="M 306.408 348.816 L 309.274 348.816 L 309.274 339.036 L 306.113 340.016 L 305.687 338.925 L 309.699 337.132 L 311.012 337.354 L 311.012 348.816 L 313.581 348.816 L 313.581 350.295 L 306.408 350.295 L 306.408 348.816 " fill="#000000"/>
<path class="atom-16" d="M 320.773 338.685 L 313.914 338.685 L 313.914 337.206 L 322.603 337.206 L 322.603 338.519 L 317.316 350.295 L 315.541 350.295 L 320.773 338.685 " fill="#000000"/>
<path class="atom-17" d="M 199.946 322.587 L 201.72 322.587 L 201.72 328.152 L 208.413 328.152 L 208.413 322.587 L 210.187 322.587 L 210.187 335.676 L 208.413 335.676 L 208.413 329.631 L 201.72 329.631 L 201.72 335.676 L 199.946 335.676 L 199.946 322.587 " fill="#000000"/>
<path class="atom-17" d="M 211.574 333.513 L 213.423 333.513 L 213.423 335.362 L 211.574 335.362 L 211.574 333.513 M 211.574 327.153 L 213.423 327.153 L 213.423 329.002 L 211.574 329.002 L 211.574 327.153 " fill="#000000"/>
<path class="atom-17" d="M 215.142 334.197 L 218.007 334.197 L 218.007 324.417 L 214.846 325.397 L 214.421 324.306 L 218.433 322.513 L 219.745 322.735 L 219.745 334.197 L 222.315 334.197 L 222.315 335.676 L 215.142 335.676 L 215.142 334.197 " fill="#000000"/>
<path class="atom-17" d="M 230.135 328.743 Q 231.337 329.261, 232.021 330.037 Q 232.705 330.795, 232.705 332.089 Q 232.705 333.199, 232.132 334.067 Q 231.559 334.918, 230.523 335.399 Q 229.506 335.861, 228.157 335.861 Q 225.975 335.861, 224.718 334.862 Q 223.461 333.846, 223.461 332.089 Q 223.461 331.017, 224.016 330.222 Q 224.57 329.409, 225.717 328.799 Q 224.866 328.318, 224.404 327.615 Q 223.942 326.894, 223.942 325.785 Q 223.942 324.251, 225.051 323.345 Q 226.179 322.439, 228.083 322.439 Q 229.987 322.439, 231.096 323.345 Q 232.224 324.251, 232.224 325.785 Q 232.224 326.747, 231.688 327.468 Q 231.17 328.17, 230.135 328.743 M 228.083 323.826 Q 226.992 323.826, 226.382 324.343 Q 225.791 324.861, 225.791 325.785 Q 225.791 326.469, 226.197 326.931 Q 226.604 327.375, 227.177 327.634 Q 227.769 327.893, 228.896 328.281 Q 229.691 327.726, 230.024 327.135 Q 230.375 326.543, 230.375 325.785 Q 230.375 324.861, 229.765 324.343 Q 229.174 323.826, 228.083 323.826 M 228.157 334.474 Q 229.377 334.474, 230.117 333.827 Q 230.856 333.162, 230.856 332.071 Q 230.856 331.368, 230.468 330.925 Q 230.08 330.481, 229.488 330.222 Q 228.915 329.963, 227.88 329.631 L 227.048 329.353 Q 226.123 329.908, 225.717 330.573 Q 225.31 331.22, 225.31 332.071 Q 225.31 333.162, 226.086 333.827 Q 226.863 334.474, 228.157 334.474 " fill="#000000"/>
<path class="atom-18" d="M 85.8754 307.931 L 87.6501 307.931 L 87.6501 313.496 L 94.3425 313.496 L 94.3425 307.931 L 96.1172 307.931 L 96.1172 321.02 L 94.3425 321.02 L 94.3425 314.975 L 87.6501 314.975 L 87.6501 321.02 L 85.8754 321.02 L 85.8754 307.931 " fill="#000000"/>
<path class="atom-18" d="M 97.5038 318.857 L 99.3525 318.857 L 99.3525 320.706 L 97.5038 320.706 L 97.5038 318.857 M 97.5038 312.497 L 99.3525 312.497 L 99.3525 314.346 L 97.5038 314.346 L 97.5038 312.497 " fill="#000000"/>
<path class="atom-18" d="M 101.072 319.541 L 103.937 319.541 L 103.937 309.761 L 100.776 310.741 L 100.351 309.65 L 104.362 307.857 L 105.675 308.079 L 105.675 319.541 L 108.245 319.541 L 108.245 321.02 L 101.072 321.02 L 101.072 319.541 " fill="#000000"/>
<path class="atom-18" d="M 113.661 307.783 Q 115.991 307.783, 117.156 309.373 Q 118.339 310.944, 118.339 314.087 Q 118.339 317.563, 116.878 319.375 Q 115.436 321.168, 112.645 321.168 Q 111.831 321.168, 111.129 320.983 Q 110.445 320.798, 109.779 320.41 L 110.5 319.171 Q 111.462 319.689, 112.626 319.689 Q 114.475 319.689, 115.418 318.506 Q 116.361 317.304, 116.472 314.845 Q 115.806 315.455, 114.956 315.788 Q 114.124 316.102, 113.218 316.102 Q 112.072 316.102, 111.166 315.603 Q 110.26 315.104, 109.761 314.198 Q 109.262 313.292, 109.262 312.146 Q 109.262 310.87, 109.816 309.891 Q 110.389 308.892, 111.388 308.338 Q 112.386 307.783, 113.661 307.783 M 111.11 312.128 Q 111.11 313.292, 111.757 313.958 Q 112.404 314.623, 113.551 314.623 Q 114.346 314.623, 115.122 314.309 Q 115.917 313.976, 116.472 313.422 Q 116.398 311.259, 115.714 310.279 Q 115.03 309.299, 113.643 309.299 Q 112.941 309.299, 112.349 309.669 Q 111.776 310.039, 111.443 310.686 Q 111.11 311.333, 111.11 312.128 " fill="#000000"/>
<path class="atom-19" d="M 110.049 149.853 L 111.824 149.853 L 111.824 155.418 L 118.516 155.418 L 118.516 149.853 L 120.291 149.853 L 120.291 162.942 L 118.516 162.942 L 118.516 156.897 L 111.824 156.897 L 111.824 162.942 L 110.049 162.942 L 110.049 149.853 " fill="#000000"/>
<path class="atom-19" d="M 121.678 160.779 L 123.526 160.779 L 123.526 162.628 L 121.678 162.628 L 121.678 160.779 M 121.678 154.419 L 123.526 154.419 L 123.526 156.268 L 121.678 156.268 L 121.678 154.419 " fill="#000000"/>
<path class="atom-19" d="M 124.488 152.33 Q 124.968 151.092, 126.115 150.408 Q 127.261 149.705, 128.851 149.705 Q 130.829 149.705, 131.938 150.777 Q 133.047 151.85, 133.047 153.754 Q 133.047 155.695, 131.605 157.507 Q 130.182 159.318, 127.224 161.463 L 133.269 161.463 L 133.269 162.942 L 124.451 162.942 L 124.451 161.703 Q 126.891 159.966, 128.333 158.671 Q 129.794 157.377, 130.496 156.213 Q 131.199 155.048, 131.199 153.846 Q 131.199 152.589, 130.57 151.887 Q 129.941 151.184, 128.851 151.184 Q 127.797 151.184, 127.094 151.609 Q 126.392 152.035, 125.893 152.977 L 124.488 152.33 " fill="#000000"/>
<path class="atom-19" d="M 139.185 163.09 Q 136.782 163.09, 135.58 161.315 Q 134.397 159.54, 134.397 156.379 Q 134.397 153.218, 135.58 151.461 Q 136.763 149.705, 139.185 149.705 Q 141.607 149.705, 142.79 151.461 Q 143.973 153.218, 143.973 156.379 Q 143.973 159.54, 142.771 161.315 Q 141.588 163.09, 139.185 163.09 M 139.185 161.611 Q 140.608 161.611, 141.366 160.298 Q 142.124 158.967, 142.124 156.379 Q 142.124 153.809, 141.366 152.497 Q 140.608 151.184, 139.185 151.184 Q 137.78 151.184, 137.003 152.497 Q 136.246 153.809, 136.246 156.379 Q 136.246 158.967, 137.003 160.298 Q 137.78 161.611, 139.185 161.611 " fill="#000000"/>
<path class="atom-20" d="M 225.33 164.509 L 227.105 164.509 L 227.105 170.074 L 233.797 170.074 L 233.797 164.509 L 235.572 164.509 L 235.572 177.598 L 233.797 177.598 L 233.797 171.553 L 227.105 171.553 L 227.105 177.598 L 225.33 177.598 L 225.33 164.509 " fill="#000000"/>
<path class="atom-20" d="M 236.959 175.435 L 238.808 175.435 L 238.808 177.284 L 236.959 177.284 L 236.959 175.435 M 236.959 169.075 L 238.808 169.075 L 238.808 170.924 L 236.959 170.924 L 236.959 169.075 " fill="#000000"/>
<path class="atom-20" d="M 239.769 166.986 Q 240.25 165.748, 241.396 165.064 Q 242.542 164.361, 244.132 164.361 Q 246.11 164.361, 247.219 165.433 Q 248.328 166.506, 248.328 168.41 Q 248.328 170.351, 246.886 172.163 Q 245.463 173.974, 242.505 176.119 L 248.55 176.119 L 248.55 177.598 L 239.732 177.598 L 239.732 176.359 Q 242.172 174.621, 243.614 173.327 Q 245.075 172.033, 245.777 170.869 Q 246.48 169.704, 246.48 168.502 Q 246.48 167.245, 245.851 166.543 Q 245.223 165.84, 244.132 165.84 Q 243.078 165.84, 242.376 166.265 Q 241.673 166.69, 241.174 167.633 L 239.769 166.986 " fill="#000000"/>
<path class="atom-20" d="M 250.27 176.119 L 253.135 176.119 L 253.135 166.339 L 249.974 167.319 L 249.549 166.228 L 253.56 164.435 L 254.873 164.657 L 254.873 176.119 L 257.443 176.119 L 257.443 177.598 L 250.27 177.598 L 250.27 176.119 " fill="#000000"/>
<path class="atom-21" d="M 62.6889 221.564 L 66.9779 228.497 Q 67.4031 229.181, 68.0871 230.419 Q 68.7711 231.658, 68.8081 231.732 L 68.8081 221.564 L 70.5459 221.564 L 70.5459 234.653 L 68.7526 234.653 L 64.1493 227.073 Q 63.6132 226.186, 63.0401 225.169 Q 62.4855 224.152, 62.3191 223.838 L 62.3191 234.653 L 60.6183 234.653 L 60.6183 221.564 L 62.6889 221.564 " fill="#0000FF"/>
<path class="atom-21" d="M 71.9324 232.49 L 73.7811 232.49 L 73.7811 234.339 L 71.9324 234.339 L 71.9324 232.49 M 71.9324 226.13 L 73.7811 226.13 L 73.7811 227.979 L 71.9324 227.979 L 71.9324 226.13 " fill="#0000FF"/>
<path class="atom-21" d="M 74.7425 224.041 Q 75.2231 222.803, 76.3693 222.119 Q 77.5155 221.416, 79.1054 221.416 Q 81.0835 221.416, 82.1928 222.488 Q 83.302 223.561, 83.302 225.465 Q 83.302 227.406, 81.86 229.218 Q 80.4365 231.03, 77.4786 233.174 L 83.5238 233.174 L 83.5238 234.653 L 74.7055 234.653 L 74.7055 233.414 Q 77.1458 231.677, 78.5878 230.382 Q 80.0483 229.088, 80.7508 227.924 Q 81.4533 226.759, 81.4533 225.557 Q 81.4533 224.3, 80.8247 223.598 Q 80.1962 222.895, 79.1054 222.895 Q 78.0517 222.895, 77.3491 223.32 Q 76.6466 223.746, 76.1475 224.688 L 74.7425 224.041 " fill="#0000FF"/>
<path class="atom-21" d="M 84.4852 224.041 Q 84.9658 222.803, 86.112 222.119 Q 87.2582 221.416, 88.8481 221.416 Q 90.8263 221.416, 91.9355 222.488 Q 93.0447 223.561, 93.0447 225.465 Q 93.0447 227.406, 91.6027 229.218 Q 90.1792 231.03, 87.2213 233.174 L 93.2666 233.174 L 93.2666 234.653 L 84.4482 234.653 L 84.4482 233.414 Q 86.8885 231.677, 88.3305 230.382 Q 89.791 229.088, 90.4935 227.924 Q 91.196 226.759, 91.196 225.557 Q 91.196 224.3, 90.5674 223.598 Q 89.9389 222.895, 88.8481 222.895 Q 87.7944 222.895, 87.0919 223.32 Q 86.3893 223.746, 85.8902 224.688 L 84.4852 224.041 " fill="#0000FF"/>
<path class="atom-22" d="M 392.489 200.347 Q 392.489 197.093, 394.005 195.392 Q 395.539 193.673, 398.442 193.673 Q 401.141 193.673, 402.583 195.577 L 401.363 196.575 Q 400.309 195.189, 398.442 195.189 Q 396.463 195.189, 395.41 196.52 Q 394.374 197.833, 394.374 200.347 Q 394.374 202.935, 395.447 204.266 Q 396.537 205.597, 398.645 205.597 Q 400.087 205.597, 401.769 204.728 L 402.287 206.115 Q 401.603 206.559, 400.568 206.817 Q 399.532 207.076, 398.386 207.076 Q 395.539 207.076, 394.005 205.338 Q 392.489 203.601, 392.489 200.347 " fill="#000000"/>
<path class="atom-22" d="M 403.969 204.747 L 405.818 204.747 L 405.818 206.595 L 403.969 206.595 L 403.969 204.747 M 403.969 198.387 L 405.818 198.387 L 405.818 200.236 L 403.969 200.236 L 403.969 198.387 " fill="#000000"/>
<path class="atom-22" d="M 406.779 196.298 Q 407.26 195.06, 408.406 194.375 Q 409.552 193.673, 411.142 193.673 Q 413.12 193.673, 414.23 194.745 Q 415.339 195.817, 415.339 197.722 Q 415.339 199.663, 413.897 201.475 Q 412.473 203.286, 409.515 205.431 L 415.561 205.431 L 415.561 206.91 L 406.742 206.91 L 406.742 205.671 Q 409.183 203.933, 410.625 202.639 Q 412.085 201.345, 412.788 200.18 Q 413.49 199.016, 413.49 197.814 Q 413.49 196.557, 412.862 195.854 Q 412.233 195.152, 411.142 195.152 Q 410.088 195.152, 409.386 195.577 Q 408.683 196.002, 408.184 196.945 L 406.779 196.298 " fill="#000000"/>
<path class="atom-22" d="M 422.623 200.014 Q 423.898 200.384, 424.508 201.216 Q 425.137 202.029, 425.137 203.323 Q 425.137 204.432, 424.582 205.301 Q 424.028 206.152, 423.011 206.632 Q 421.994 207.095, 420.663 207.095 Q 419.258 207.095, 418.204 206.614 Q 417.169 206.115, 416.337 205.117 L 417.391 204.044 Q 418.204 204.932, 418.888 205.283 Q 419.572 205.616, 420.663 205.616 Q 421.846 205.616, 422.567 204.987 Q 423.288 204.34, 423.288 203.305 Q 423.288 201.974, 422.53 201.382 Q 421.791 200.772, 420.182 200.772 L 419.24 200.772 L 419.24 199.441 L 420.072 199.441 Q 421.495 199.422, 422.253 198.812 Q 423.011 198.184, 423.011 197.019 Q 423.011 196.169, 422.382 195.67 Q 421.754 195.152, 420.682 195.152 Q 419.591 195.152, 418.907 195.54 Q 418.241 195.928, 417.724 196.908 L 416.448 196.224 Q 416.91 195.133, 418.019 194.412 Q 419.129 193.673, 420.682 193.673 Q 422.604 193.673, 423.732 194.579 Q 424.86 195.485, 424.86 197.019 Q 424.86 198.073, 424.287 198.831 Q 423.713 199.589, 422.623 200.014 " fill="#000000"/>
<path class="atom-23" d="M 379.373 279.386 Q 379.373 276.132, 380.889 274.431 Q 382.424 272.712, 385.326 272.712 Q 388.025 272.712, 389.467 274.616 L 388.247 275.614 Q 387.193 274.228, 385.326 274.228 Q 383.348 274.228, 382.294 275.559 Q 381.259 276.872, 381.259 279.386 Q 381.259 281.974, 382.331 283.305 Q 383.422 284.636, 385.53 284.636 Q 386.972 284.636, 388.654 283.767 L 389.172 285.154 Q 388.488 285.597, 387.452 285.856 Q 386.417 286.115, 385.271 286.115 Q 382.424 286.115, 380.889 284.377 Q 379.373 282.64, 379.373 279.386 " fill="#000000"/>
<path class="atom-23" d="M 390.854 283.786 L 392.703 283.786 L 392.703 285.634 L 390.854 285.634 L 390.854 283.786 M 390.854 277.426 L 392.703 277.426 L 392.703 279.275 L 390.854 279.275 L 390.854 277.426 " fill="#000000"/>
<path class="atom-23" d="M 393.664 275.337 Q 394.145 274.098, 395.291 273.414 Q 396.437 272.712, 398.027 272.712 Q 400.005 272.712, 401.114 273.784 Q 402.224 274.856, 402.224 276.761 Q 402.224 278.702, 400.782 280.514 Q 399.358 282.325, 396.4 284.47 L 402.445 284.47 L 402.445 285.949 L 393.627 285.949 L 393.627 284.71 Q 396.067 282.972, 397.509 281.678 Q 398.97 280.384, 399.672 279.219 Q 400.375 278.055, 400.375 276.853 Q 400.375 275.596, 399.746 274.893 Q 399.118 274.191, 398.027 274.191 Q 396.973 274.191, 396.271 274.616 Q 395.568 275.041, 395.069 275.984 L 393.664 275.337 " fill="#000000"/>
<path class="atom-23" d="M 411.504 281.456 L 413.075 281.456 L 413.075 282.935 L 411.504 282.935 L 411.504 285.949 L 409.766 285.949 L 409.766 282.935 L 403 282.935 L 403 281.771 L 408.731 272.86 L 411.504 272.86 L 411.504 281.456 M 405.144 281.456 L 409.766 281.456 L 409.766 274.043 L 405.144 281.456 " fill="#000000"/>
<path class="atom-24" d="M 35.8911 178.381 L 37.6659 178.381 L 37.6659 183.945 L 44.3582 183.945 L 44.3582 178.381 L 46.133 178.381 L 46.133 191.47 L 44.3582 191.47 L 44.3582 185.424 L 37.6659 185.424 L 37.6659 191.47 L 35.8911 191.47 L 35.8911 178.381 " fill="#000000"/>
<path class="atom-24" d="M 47.5195 189.307 L 49.3682 189.307 L 49.3682 191.155 L 47.5195 191.155 L 47.5195 189.307 M 47.5195 182.947 L 49.3682 182.947 L 49.3682 184.796 L 47.5195 184.796 L 47.5195 182.947 " fill="#000000"/>
<path class="atom-24" d="M 50.3295 180.858 Q 50.8102 179.619, 51.9564 178.935 Q 53.1026 178.233, 54.6925 178.233 Q 56.6706 178.233, 57.7799 179.305 Q 58.8891 180.377, 58.8891 182.281 Q 58.8891 184.223, 57.4471 186.034 Q 56.0236 187.846, 53.0656 189.991 L 59.1109 189.991 L 59.1109 191.47 L 50.2926 191.47 L 50.2926 190.231 Q 52.7329 188.493, 54.1749 187.199 Q 55.6354 185.905, 56.3379 184.74 Q 57.0404 183.576, 57.0404 182.374 Q 57.0404 181.117, 56.4118 180.414 Q 55.7833 179.712, 54.6925 179.712 Q 53.6387 179.712, 52.9362 180.137 Q 52.2337 180.562, 51.7346 181.505 L 50.3295 180.858 " fill="#000000"/>
<path class="atom-24" d="M 64.7125 183.28 Q 65.8587 183.28, 66.8016 183.779 Q 67.7444 184.26, 68.2805 185.184 Q 68.8167 186.09, 68.8167 187.328 Q 68.8167 188.678, 68.1511 189.658 Q 67.5041 190.619, 66.4318 191.118 Q 65.3596 191.617, 64.1394 191.617 Q 62.9378 191.617, 61.8285 191.174 Q 60.7193 190.73, 59.9613 189.88 L 61.0706 188.733 Q 61.6806 189.399, 62.5126 189.769 Q 63.3445 190.12, 64.1949 190.12 Q 65.3596 190.12, 66.1545 189.399 Q 66.968 188.678, 66.968 187.365 Q 66.968 185.979, 66.1545 185.332 Q 65.3596 184.666, 64.084 184.666 Q 62.9378 184.666, 61.6622 185.165 L 60.6454 184.685 L 61.2739 178.381 L 68.0032 178.381 L 67.8184 179.86 L 62.7899 179.86 L 62.4016 183.742 Q 63.5663 183.28, 64.7125 183.28 " fill="#000000"/>
<path class="atom-25" d="M 443.719 222.984 L 445.493 222.984 L 445.493 228.548 L 452.186 228.548 L 452.186 222.984 L 453.96 222.984 L 453.96 236.073 L 452.186 236.073 L 452.186 230.027 L 445.493 230.027 L 445.493 236.073 L 443.719 236.073 L 443.719 222.984 " fill="#000000"/>
<path class="atom-25" d="M 455.347 233.91 L 457.196 233.91 L 457.196 235.758 L 455.347 235.758 L 455.347 233.91 M 455.347 227.55 L 457.196 227.55 L 457.196 229.399 L 455.347 229.399 L 455.347 227.55 " fill="#000000"/>
<path class="atom-25" d="M 458.157 225.461 Q 458.638 224.222, 459.784 223.538 Q 460.93 222.836, 462.52 222.836 Q 464.498 222.836, 465.607 223.908 Q 466.717 224.98, 466.717 226.884 Q 466.717 228.826, 465.275 230.637 Q 463.851 232.449, 460.893 234.594 L 466.938 234.594 L 466.938 236.073 L 458.12 236.073 L 458.12 234.834 Q 460.56 233.096, 462.002 231.802 Q 463.463 230.508, 464.165 229.343 Q 464.868 228.179, 464.868 226.977 Q 464.868 225.72, 464.239 225.017 Q 463.611 224.315, 462.52 224.315 Q 461.466 224.315, 460.764 224.74 Q 460.061 225.165, 459.562 226.108 L 458.157 225.461 " fill="#000000"/>
<path class="atom-25" d="M 473.316 227.901 Q 474.463 227.901, 475.369 228.4 Q 476.274 228.9, 476.774 229.805 Q 477.273 230.711, 477.273 231.857 Q 477.273 233.133, 476.7 234.131 Q 476.145 235.111, 475.147 235.666 Q 474.148 236.22, 472.873 236.22 Q 470.543 236.22, 469.36 234.649 Q 468.196 233.059, 468.196 229.916 Q 468.196 226.441, 469.638 224.648 Q 471.098 222.836, 473.89 222.836 Q 474.703 222.836, 475.387 223.021 Q 476.09 223.206, 476.755 223.594 L 476.034 224.832 Q 475.073 224.315, 473.908 224.315 Q 472.059 224.315, 471.117 225.516 Q 470.174 226.7, 470.063 229.158 Q 470.728 228.548, 471.56 228.234 Q 472.411 227.901, 473.316 227.901 M 472.891 234.705 Q 473.594 234.705, 474.167 234.335 Q 474.758 233.965, 475.091 233.318 Q 475.424 232.671, 475.424 231.876 Q 475.424 230.711, 474.777 230.046 Q 474.13 229.38, 472.984 229.38 Q 472.189 229.38, 471.394 229.713 Q 470.617 230.027, 470.063 230.582 Q 470.137 232.745, 470.821 233.725 Q 471.505 234.705, 472.891 234.705 " fill="#000000"/>
<path class="atom-26" d="M 349.231 164.658 L 351.006 164.658 L 351.006 170.223 L 357.699 170.223 L 357.699 164.658 L 359.473 164.658 L 359.473 177.747 L 357.699 177.747 L 357.699 171.702 L 351.006 171.702 L 351.006 177.747 L 349.231 177.747 L 349.231 164.658 " fill="#000000"/>
<path class="atom-26" d="M 360.86 175.584 L 362.709 175.584 L 362.709 177.433 L 360.86 177.433 L 360.86 175.584 M 360.86 169.224 L 362.709 169.224 L 362.709 171.073 L 360.86 171.073 L 360.86 169.224 " fill="#000000"/>
<path class="atom-26" d="M 363.67 167.135 Q 364.151 165.897, 365.297 165.213 Q 366.443 164.51, 368.033 164.51 Q 370.011 164.51, 371.12 165.582 Q 372.229 166.655, 372.229 168.559 Q 372.229 170.5, 370.787 172.312 Q 369.364 174.123, 366.406 176.268 L 372.451 176.268 L 372.451 177.747 L 363.633 177.747 L 363.633 176.508 Q 366.073 174.771, 367.515 173.476 Q 368.976 172.182, 369.678 171.018 Q 370.381 169.853, 370.381 168.651 Q 370.381 167.394, 369.752 166.692 Q 369.124 165.989, 368.033 165.989 Q 366.979 165.989, 366.277 166.414 Q 365.574 166.84, 365.075 167.782 L 363.67 167.135 " fill="#000000"/>
<path class="atom-26" d="M 379.643 166.137 L 372.784 166.137 L 372.784 164.658 L 381.473 164.658 L 381.473 165.971 L 376.186 177.747 L 374.411 177.747 L 379.643 166.137 " fill="#000000"/>
<path class="atom-27" d="M 438.354 256.389 L 440.129 256.389 L 440.129 261.954 L 446.821 261.954 L 446.821 256.389 L 448.596 256.389 L 448.596 269.478 L 446.821 269.478 L 446.821 263.433 L 440.129 263.433 L 440.129 269.478 L 438.354 269.478 L 438.354 256.389 " fill="#000000"/>
<path class="atom-27" d="M 449.983 267.315 L 451.831 267.315 L 451.831 269.164 L 449.983 269.164 L 449.983 267.315 M 449.983 260.956 L 451.831 260.956 L 451.831 262.805 L 449.983 262.805 L 449.983 260.956 " fill="#000000"/>
<path class="atom-27" d="M 452.793 258.867 Q 453.273 257.628, 454.419 256.944 Q 455.566 256.242, 457.156 256.242 Q 459.134 256.242, 460.243 257.314 Q 461.352 258.386, 461.352 260.29 Q 461.352 262.231, 459.91 264.043 Q 458.487 265.855, 455.529 267.999 L 461.574 267.999 L 461.574 269.478 L 452.756 269.478 L 452.756 268.24 Q 455.196 266.502, 456.638 265.208 Q 458.098 263.914, 458.801 262.749 Q 459.503 261.584, 459.503 260.383 Q 459.503 259.126, 458.875 258.423 Q 458.246 257.721, 457.156 257.721 Q 456.102 257.721, 455.399 258.146 Q 454.697 258.571, 454.198 259.514 L 452.793 258.867 " fill="#000000"/>
<path class="atom-27" d="M 469.394 262.546 Q 470.596 263.063, 471.28 263.84 Q 471.964 264.598, 471.964 265.892 Q 471.964 267.001, 471.391 267.87 Q 470.818 268.72, 469.782 269.201 Q 468.765 269.663, 467.416 269.663 Q 465.234 269.663, 463.977 268.665 Q 462.72 267.648, 462.72 265.892 Q 462.72 264.82, 463.275 264.025 Q 463.829 263.211, 464.976 262.601 Q 464.125 262.12, 463.663 261.418 Q 463.201 260.697, 463.201 259.588 Q 463.201 258.053, 464.31 257.147 Q 465.438 256.242, 467.342 256.242 Q 469.246 256.242, 470.355 257.147 Q 471.483 258.053, 471.483 259.588 Q 471.483 260.549, 470.947 261.27 Q 470.429 261.973, 469.394 262.546 M 467.342 257.628 Q 466.251 257.628, 465.641 258.146 Q 465.05 258.663, 465.05 259.588 Q 465.05 260.272, 465.456 260.734 Q 465.863 261.178, 466.436 261.436 Q 467.028 261.695, 468.155 262.084 Q 468.95 261.529, 469.283 260.937 Q 469.634 260.346, 469.634 259.588 Q 469.634 258.663, 469.024 258.146 Q 468.433 257.628, 467.342 257.628 M 467.416 268.277 Q 468.636 268.277, 469.376 267.63 Q 470.115 266.964, 470.115 265.873 Q 470.115 265.171, 469.727 264.727 Q 469.339 264.283, 468.747 264.025 Q 468.174 263.766, 467.139 263.433 L 466.307 263.156 Q 465.382 263.71, 464.976 264.376 Q 464.569 265.023, 464.569 265.873 Q 464.569 266.964, 465.345 267.63 Q 466.122 268.277, 467.416 268.277 " fill="#000000"/>
<path class="atom-28" d="M 328.333 289.33 L 330.108 289.33 L 330.108 294.895 L 336.8 294.895 L 336.8 289.33 L 338.575 289.33 L 338.575 302.419 L 336.8 302.419 L 336.8 296.374 L 330.108 296.374 L 330.108 302.419 L 328.333 302.419 L 328.333 289.33 " fill="#000000"/>
<path class="atom-28" d="M 339.961 300.256 L 341.81 300.256 L 341.81 302.105 L 339.961 302.105 L 339.961 300.256 M 339.961 293.897 L 341.81 293.897 L 341.81 295.745 L 339.961 295.745 L 339.961 293.897 " fill="#000000"/>
<path class="atom-28" d="M 342.771 291.808 Q 343.252 290.569, 344.398 289.885 Q 345.544 289.182, 347.134 289.182 Q 349.112 289.182, 350.222 290.255 Q 351.331 291.327, 351.331 293.231 Q 351.331 295.172, 349.889 296.984 Q 348.465 298.796, 345.507 300.94 L 351.553 300.94 L 351.553 302.419 L 342.734 302.419 L 342.734 301.18 Q 345.175 299.443, 346.617 298.149 Q 348.077 296.855, 348.78 295.69 Q 349.482 294.525, 349.482 293.323 Q 349.482 292.066, 348.854 291.364 Q 348.225 290.661, 347.134 290.661 Q 346.081 290.661, 345.378 291.087 Q 344.676 291.512, 344.176 292.455 L 342.771 291.808 " fill="#000000"/>
<path class="atom-28" d="M 356.969 289.182 Q 359.299 289.182, 360.464 290.772 Q 361.647 292.344, 361.647 295.486 Q 361.647 298.962, 360.186 300.774 Q 358.744 302.567, 355.953 302.567 Q 355.139 302.567, 354.437 302.382 Q 353.753 302.197, 353.087 301.809 L 353.808 300.57 Q 354.77 301.088, 355.934 301.088 Q 357.783 301.088, 358.726 299.905 Q 359.669 298.703, 359.78 296.244 Q 359.114 296.855, 358.264 297.187 Q 357.432 297.502, 356.526 297.502 Q 355.38 297.502, 354.474 297.002 Q 353.568 296.503, 353.069 295.597 Q 352.57 294.692, 352.57 293.545 Q 352.57 292.27, 353.124 291.29 Q 353.697 290.292, 354.696 289.737 Q 355.694 289.182, 356.969 289.182 M 354.418 293.527 Q 354.418 294.692, 355.065 295.357 Q 355.712 296.023, 356.859 296.023 Q 357.654 296.023, 358.43 295.708 Q 359.225 295.376, 359.78 294.821 Q 359.706 292.658, 359.022 291.678 Q 358.338 290.698, 356.951 290.698 Q 356.248 290.698, 355.657 291.068 Q 355.084 291.438, 354.751 292.085 Q 354.418 292.732, 354.418 293.527 " fill="#000000"/>
<path class="atom-29" d="M 22.7273 257.42 L 24.502 257.42 L 24.502 262.984 L 31.1944 262.984 L 31.1944 257.42 L 32.9691 257.42 L 32.9691 270.508 L 31.1944 270.508 L 31.1944 264.463 L 24.502 264.463 L 24.502 270.508 L 22.7273 270.508 L 22.7273 257.42 " fill="#000000"/>
<path class="atom-29" d="M 34.3557 268.345 L 36.2044 268.345 L 36.2044 270.194 L 34.3557 270.194 L 34.3557 268.345 M 34.3557 261.986 L 36.2044 261.986 L 36.2044 263.835 L 34.3557 263.835 L 34.3557 261.986 " fill="#000000"/>
<path class="atom-29" d="M 43.2665 263.613 Q 44.5421 263.983, 45.1522 264.814 Q 45.7807 265.628, 45.7807 266.922 Q 45.7807 268.031, 45.2261 268.9 Q 44.6715 269.751, 43.6547 270.231 Q 42.6379 270.693, 41.3068 270.693 Q 39.9018 270.693, 38.848 270.213 Q 37.8128 269.714, 36.9808 268.715 L 38.0346 267.643 Q 38.848 268.53, 39.5321 268.882 Q 40.2161 269.214, 41.3068 269.214 Q 42.49 269.214, 43.211 268.586 Q 43.932 267.939, 43.932 266.903 Q 43.932 265.572, 43.174 264.981 Q 42.4345 264.371, 40.8262 264.371 L 39.8833 264.371 L 39.8833 263.04 L 40.7152 263.04 Q 42.1388 263.021, 42.8967 262.411 Q 43.6547 261.783, 43.6547 260.618 Q 43.6547 259.767, 43.0261 259.268 Q 42.3976 258.751, 41.3253 258.751 Q 40.2346 258.751, 39.5506 259.139 Q 38.885 259.527, 38.3674 260.507 L 37.0918 259.823 Q 37.5539 258.732, 38.6632 258.011 Q 39.7724 257.272, 41.3253 257.272 Q 43.248 257.272, 44.3757 258.178 Q 45.5034 259.083, 45.5034 260.618 Q 45.5034 261.672, 44.9303 262.43 Q 44.3572 263.188, 43.2665 263.613 " fill="#000000"/>
<path class="atom-29" d="M 51.6966 270.656 Q 49.2933 270.656, 48.0916 268.882 Q 46.9084 267.107, 46.9084 263.946 Q 46.9084 260.784, 48.0916 259.028 Q 49.2748 257.272, 51.6966 257.272 Q 54.1184 257.272, 55.3016 259.028 Q 56.4848 260.784, 56.4848 263.946 Q 56.4848 267.107, 55.2831 268.882 Q 54.0999 270.656, 51.6966 270.656 M 51.6966 269.177 Q 53.1201 269.177, 53.8781 267.865 Q 54.636 266.534, 54.636 263.946 Q 54.636 261.376, 53.8781 260.063 Q 53.1201 258.751, 51.6966 258.751 Q 50.2916 258.751, 49.5151 260.063 Q 48.7571 261.376, 48.7571 263.946 Q 48.7571 266.534, 49.5151 267.865 Q 50.2916 269.177, 51.6966 269.177 " fill="#000000"/>
<path class="atom-30" d="M 437.026 157.965 L 438.801 157.965 L 438.801 163.53 L 445.493 163.53 L 445.493 157.965 L 447.268 157.965 L 447.268 171.054 L 445.493 171.054 L 445.493 165.009 L 438.801 165.009 L 438.801 171.054 L 437.026 171.054 L 437.026 157.965 " fill="#000000"/>
<path class="atom-30" d="M 448.654 168.891 L 450.503 168.891 L 450.503 170.74 L 448.654 170.74 L 448.654 168.891 M 448.654 162.532 L 450.503 162.532 L 450.503 164.38 L 448.654 164.38 L 448.654 162.532 " fill="#000000"/>
<path class="atom-30" d="M 457.565 164.159 Q 458.841 164.528, 459.451 165.36 Q 460.079 166.174, 460.079 167.468 Q 460.079 168.577, 459.525 169.446 Q 458.97 170.296, 457.953 170.777 Q 456.937 171.239, 455.605 171.239 Q 454.2 171.239, 453.147 170.758 Q 452.111 170.259, 451.279 169.261 L 452.333 168.189 Q 453.147 169.076, 453.831 169.427 Q 454.515 169.76, 455.605 169.76 Q 456.789 169.76, 457.51 169.132 Q 458.231 168.485, 458.231 167.449 Q 458.231 166.118, 457.473 165.527 Q 456.733 164.917, 455.125 164.917 L 454.182 164.917 L 454.182 163.585 L 455.014 163.585 Q 456.437 163.567, 457.195 162.957 Q 457.953 162.328, 457.953 161.164 Q 457.953 160.313, 457.325 159.814 Q 456.696 159.296, 455.624 159.296 Q 454.533 159.296, 453.849 159.685 Q 453.184 160.073, 452.666 161.053 L 451.39 160.369 Q 451.853 159.278, 452.962 158.557 Q 454.071 157.817, 455.624 157.817 Q 457.547 157.817, 458.674 158.723 Q 459.802 159.629, 459.802 161.164 Q 459.802 162.217, 459.229 162.975 Q 458.656 163.733, 457.565 164.159 " fill="#000000"/>
<path class="atom-30" d="M 461.799 169.575 L 464.664 169.575 L 464.664 159.796 L 461.503 160.775 L 461.078 159.685 L 465.089 157.891 L 466.402 158.113 L 466.402 169.575 L 468.972 169.575 L 468.972 171.054 L 461.799 171.054 L 461.799 169.575 " fill="#000000"/>
<path class="atom-31" d="M 411.641 316.043 L 413.416 316.043 L 413.416 321.608 L 420.108 321.608 L 420.108 316.043 L 421.883 316.043 L 421.883 329.132 L 420.108 329.132 L 420.108 323.087 L 413.416 323.087 L 413.416 329.132 L 411.641 329.132 L 411.641 316.043 " fill="#000000"/>
<path class="atom-31" d="M 423.269 326.969 L 425.118 326.969 L 425.118 328.818 L 423.269 328.818 L 423.269 326.969 M 423.269 320.61 L 425.118 320.61 L 425.118 322.458 L 423.269 322.458 L 423.269 320.61 " fill="#000000"/>
<path class="atom-31" d="M 432.18 322.237 Q 433.456 322.606, 434.066 323.438 Q 434.695 324.252, 434.695 325.546 Q 434.695 326.655, 434.14 327.524 Q 433.585 328.374, 432.568 328.855 Q 431.552 329.317, 430.221 329.317 Q 428.816 329.317, 427.762 328.836 Q 426.727 328.337, 425.895 327.339 L 426.948 326.267 Q 427.762 327.154, 428.446 327.505 Q 429.13 327.838, 430.221 327.838 Q 431.404 327.838, 432.125 327.21 Q 432.846 326.563, 432.846 325.527 Q 432.846 324.196, 432.088 323.605 Q 431.348 322.994, 429.74 322.994 L 428.797 322.994 L 428.797 321.663 L 429.629 321.663 Q 431.053 321.645, 431.811 321.035 Q 432.568 320.406, 432.568 319.242 Q 432.568 318.391, 431.94 317.892 Q 431.311 317.374, 430.239 317.374 Q 429.148 317.374, 428.464 317.763 Q 427.799 318.151, 427.281 319.131 L 426.006 318.447 Q 426.468 317.356, 427.577 316.635 Q 428.686 315.895, 430.239 315.895 Q 432.162 315.895, 433.289 316.801 Q 434.417 317.707, 434.417 319.242 Q 434.417 320.295, 433.844 321.053 Q 433.271 321.811, 432.18 322.237 " fill="#000000"/>
<path class="atom-31" d="M 435.656 318.521 Q 436.137 317.282, 437.283 316.598 Q 438.429 315.895, 440.019 315.895 Q 441.997 315.895, 443.106 316.968 Q 444.215 318.04, 444.215 319.944 Q 444.215 321.885, 442.773 323.697 Q 441.35 325.509, 438.392 327.653 L 444.437 327.653 L 444.437 329.132 L 435.619 329.132 L 435.619 327.894 Q 438.059 326.156, 439.501 324.862 Q 440.962 323.568, 441.664 322.403 Q 442.367 321.238, 442.367 320.037 Q 442.367 318.779, 441.738 318.077 Q 441.11 317.374, 440.019 317.374 Q 438.965 317.374, 438.263 317.8 Q 437.56 318.225, 437.061 319.168 L 435.656 318.521 " fill="#000000"/>
<text x="277.9734857857439" y="239.41870127310838" font-size="12" font-family="Verdana" font-weight="bold" letter-spacing="0" text-anchor="start" fill="black" transform=" rotate(39.122911 277.973486 239.418701)">1.1194</text><text x="25" y="490" font-size="12" font-family="Verdana" font-weight="bold" letter-spacing="0" text-anchor="start" fill="black">[#6:1](-[#6:2](-[#7:3](-[#6:4]1:[#6:6](:[#6:8](:[#6:7](:[#6:9](:[#6:10]:1-[H:21])-[H:20])-[#7:22](-[H:25])-[H:30])-[H:19])-[H:18])-[#6:5](-[H:15])(-[H:16])-[H:17])=[#8:11])(-[#7:12](-[#6:23](-[H:26])(-[H:27])-[H:31])-[#6:24](-[H:28])(-[H:29])-[H:32])(-[H:13])-[H:14]</text></svg>
