<?xml version='1.0' encoding='ASCII' standalone='yes'?>
<svg xmlns="http://www.w3.org/2000/svg" xmlns:rdkit="http://www.rdkit.org/xml" xmlns:xlink="http://www.w3.org/1999/xlink" version="1.1" baseProfile="full" xml:space="preserve" width="500px" height="500px" viewBox="0 0 500 500">
<!-- END OF HEADER -->
<rect style="opacity:1.0;fill:#FFFFFF;stroke:none" width="500" height="500" x="0" y="0"> </rect>
<path d="M 168.649,249.818 L 214.396,329.055" style="fill:none;fill-rule:evenodd;stroke:#FF7F7F;stroke-width:19.5px;stroke-linecap:butt;stroke-linejoin:miter;stroke-opacity:1"/>
<path class="bond-0 atom-0 atom-6" d="M 368.005,249.818 L 431.115,249.818" style="fill:none;fill-rule:evenodd;stroke:#000000;stroke-width:2.0px;stroke-linecap:butt;stroke-linejoin:miter;stroke-opacity:1"/>
<path class="bond-1 atom-1 atom-0" d="M 314.775,313.665 L 342.818,265.093" style="fill:none;fill-rule:evenodd;stroke:#000000;stroke-width:2.0px;stroke-linecap:butt;stroke-linejoin:miter;stroke-opacity:1"/>
<path class="bond-1 atom-1 atom-0" d="M 303.134,297.23 L 322.764,263.229" style="fill:none;fill-rule:evenodd;stroke:#000000;stroke-width:2.0px;stroke-linecap:butt;stroke-linejoin:miter;stroke-opacity:1"/>
<path class="bond-10 atom-5 atom-0" d="M 314.944,186.264 L 343.013,234.882" style="fill:none;fill-rule:evenodd;stroke:#000000;stroke-width:2.0px;stroke-linecap:butt;stroke-linejoin:miter;stroke-opacity:1"/>
<path class="bond-2 atom-1 atom-7" d="M 314.775,344.444 L 343.177,393.638" style="fill:none;fill-rule:evenodd;stroke:#000000;stroke-width:2.0px;stroke-linecap:butt;stroke-linejoin:miter;stroke-opacity:1"/>
<path class="bond-6 atom-3 atom-1" d="M 232.698,329.055 L 273.437,329.055" style="fill:none;fill-rule:evenodd;stroke:#000000;stroke-width:2.0px;stroke-linecap:butt;stroke-linejoin:miter;stroke-opacity:1"/>
<path class="bond-3 atom-2 atom-3" d="M 177.745,265.574 L 208.632,319.071" style="fill:none;fill-rule:evenodd;stroke:#000000;stroke-width:2.0px;stroke-linecap:butt;stroke-linejoin:miter;stroke-opacity:1"/>
<path class="bond-3 atom-2 atom-3" d="M 198.225,264.449 L 219.846,301.897" style="fill:none;fill-rule:evenodd;stroke:#000000;stroke-width:2.0px;stroke-linecap:butt;stroke-linejoin:miter;stroke-opacity:1"/>
<path class="bond-4 atom-2 atom-4" d="M 177.534,234.429 L 205.577,185.857" style="fill:none;fill-rule:evenodd;stroke:#000000;stroke-width:2.0px;stroke-linecap:butt;stroke-linejoin:miter;stroke-opacity:1"/>
<path class="bond-5 atom-2 atom-11" d="M 135.851,249.818 L 87.3506,249.818" style="fill:none;fill-rule:evenodd;stroke:#000000;stroke-width:2.0px;stroke-linecap:butt;stroke-linejoin:miter;stroke-opacity:1"/>
<path class="bond-7 atom-3 atom-8" d="M 205.87,343.822 L 177.288,393.328" style="fill:none;fill-rule:evenodd;stroke:#000000;stroke-width:2.0px;stroke-linecap:butt;stroke-linejoin:miter;stroke-opacity:1"/>
<path class="bond-8 atom-4 atom-5" d="M 231.679,170.582 L 272.978,170.582" style="fill:none;fill-rule:evenodd;stroke:#000000;stroke-width:2.0px;stroke-linecap:butt;stroke-linejoin:miter;stroke-opacity:1"/>
<path class="bond-8 atom-4 atom-5" d="M 237.874,188.881 L 266.783,188.881" style="fill:none;fill-rule:evenodd;stroke:#000000;stroke-width:2.0px;stroke-linecap:butt;stroke-linejoin:miter;stroke-opacity:1"/>
<path class="bond-9 atom-4 atom-9" d="M 205.511,155.193 L 177.446,106.584" style="fill:none;fill-rule:evenodd;stroke:#000000;stroke-width:2.0px;stroke-linecap:butt;stroke-linejoin:miter;stroke-opacity:1"/>
<path class="bond-11 atom-5 atom-10" d="M 314.775,155.193 L 343.05,106.218" style="fill:none;fill-rule:evenodd;stroke:#000000;stroke-width:2.0px;stroke-linecap:butt;stroke-linejoin:miter;stroke-opacity:1"/>
<path class="atom-0" d="M 321.727 249.928 Q 321.727 243.487, 324.728 240.12 Q 327.766 236.716, 333.512 236.716 Q 338.855 236.716, 341.71 240.486 L 339.294 242.462 Q 337.208 239.717, 333.512 239.717 Q 329.596 239.717, 327.51 242.352 Q 325.46 244.951, 325.46 249.928 Q 325.46 255.052, 327.583 257.687 Q 329.742 260.322, 333.914 260.322 Q 336.769 260.322, 340.099 258.602 L 341.124 261.347 Q 339.77 262.225, 337.72 262.737 Q 335.671 263.25, 333.402 263.25 Q 327.766 263.25, 324.728 259.81 Q 321.727 256.369, 321.727 249.928 " fill="#000000"/>
<path class="atom-0" d="M 344.454 258.638 L 348.114 258.638 L 348.114 262.298 L 344.454 262.298 L 344.454 258.638 M 344.454 246.049 L 348.114 246.049 L 348.114 249.709 L 344.454 249.709 L 344.454 246.049 " fill="#000000"/>
<path class="atom-0" d="M 351.518 259.993 L 357.19 259.993 L 357.19 240.632 L 350.932 242.572 L 350.09 240.413 L 358.032 236.863 L 360.631 237.302 L 360.631 259.993 L 365.718 259.993 L 365.718 262.92 L 351.518 262.92 L 351.518 259.993 " fill="#000000"/>
<path class="atom-1" d="M 275.267 329.164 Q 275.267 322.723, 278.268 319.356 Q 281.305 315.953, 287.051 315.953 Q 292.394 315.953, 295.249 319.722 L 292.834 321.698 Q 290.747 318.954, 287.051 318.954 Q 283.135 318.954, 281.049 321.589 Q 279 324.187, 279 329.164 Q 279 334.288, 281.122 336.923 Q 283.282 339.558, 287.454 339.558 Q 290.308 339.558, 293.639 337.838 L 294.663 340.583 Q 293.309 341.461, 291.26 341.974 Q 289.21 342.486, 286.941 342.486 Q 281.305 342.486, 278.268 339.046 Q 275.267 335.606, 275.267 329.164 " fill="#000000"/>
<path class="atom-1" d="M 297.994 337.875 L 301.654 337.875 L 301.654 341.534 L 297.994 341.534 L 297.994 337.875 M 297.994 325.285 L 301.654 325.285 L 301.654 328.945 L 297.994 328.945 L 297.994 325.285 " fill="#000000"/>
<path class="atom-1" d="M 303.557 321.149 Q 304.508 318.697, 306.777 317.343 Q 309.046 315.953, 312.194 315.953 Q 316.11 315.953, 318.305 318.075 Q 320.501 320.198, 320.501 323.967 Q 320.501 327.81, 317.647 331.397 Q 314.829 334.983, 308.973 339.229 L 320.94 339.229 L 320.94 342.156 L 303.483 342.156 L 303.483 339.704 Q 308.314 336.264, 311.169 333.702 Q 314.06 331.141, 315.451 328.835 Q 316.842 326.529, 316.842 324.15 Q 316.842 321.662, 315.597 320.271 Q 314.353 318.88, 312.194 318.88 Q 310.108 318.88, 308.717 319.722 Q 307.326 320.564, 306.338 322.43 L 303.557 321.149 " fill="#000000"/>
<path class="atom-2" d="M 138.138 249.928 Q 138.138 243.487, 141.139 240.12 Q 144.177 236.716, 149.923 236.716 Q 155.266 236.716, 158.121 240.486 L 155.705 242.462 Q 153.619 239.717, 149.923 239.717 Q 146.007 239.717, 143.921 242.352 Q 141.871 244.951, 141.871 249.928 Q 141.871 255.052, 143.994 257.687 Q 146.153 260.322, 150.325 260.322 Q 153.18 260.322, 156.51 258.602 L 157.535 261.347 Q 156.181 262.225, 154.132 262.737 Q 152.082 263.25, 149.813 263.25 Q 144.177 263.25, 141.139 259.81 Q 138.138 256.369, 138.138 249.928 " fill="#000000"/>
<path class="atom-2" d="M 160.866 258.638 L 164.525 258.638 L 164.525 262.298 L 160.866 262.298 L 160.866 258.638 M 160.866 246.049 L 164.525 246.049 L 164.525 249.709 L 160.866 249.709 L 160.866 246.049 " fill="#000000"/>
<path class="atom-2" d="M 178.506 249.269 Q 181.031 250.001, 182.239 251.648 Q 183.483 253.259, 183.483 255.82 Q 183.483 258.016, 182.385 259.736 Q 181.287 261.42, 179.274 262.371 Q 177.261 263.286, 174.626 263.286 Q 171.845 263.286, 169.759 262.335 Q 167.709 261.347, 166.062 259.37 L 168.149 257.248 Q 169.759 259.004, 171.113 259.7 Q 172.467 260.359, 174.626 260.359 Q 176.969 260.359, 178.396 259.114 Q 179.823 257.833, 179.823 255.784 Q 179.823 253.149, 178.323 251.978 Q 176.859 250.77, 173.675 250.77 L 171.808 250.77 L 171.808 248.135 L 173.455 248.135 Q 176.273 248.098, 177.774 246.891 Q 179.274 245.646, 179.274 243.341 Q 179.274 241.657, 178.03 240.669 Q 176.786 239.644, 174.663 239.644 Q 172.504 239.644, 171.15 240.413 Q 169.832 241.181, 168.807 243.121 L 166.282 241.767 Q 167.197 239.608, 169.393 238.18 Q 171.589 236.716, 174.663 236.716 Q 178.469 236.716, 180.701 238.51 Q 182.934 240.303, 182.934 243.341 Q 182.934 245.427, 181.799 246.927 Q 180.665 248.428, 178.506 249.269 " fill="#000000"/>
<path class="atom-3" d="M 182.98 329.164 Q 182.98 322.723, 185.981 319.356 Q 189.018 315.953, 194.764 315.953 Q 200.107 315.953, 202.962 319.722 L 200.547 321.698 Q 198.46 318.954, 194.764 318.954 Q 190.848 318.954, 188.762 321.589 Q 186.713 324.187, 186.713 329.164 Q 186.713 334.288, 188.835 336.923 Q 190.995 339.558, 195.167 339.558 Q 198.021 339.558, 201.352 337.838 L 202.376 340.583 Q 201.022 341.461, 198.973 341.974 Q 196.923 342.486, 194.654 342.486 Q 189.018 342.486, 185.981 339.046 Q 182.98 335.606, 182.98 329.164 " fill="#000000"/>
<path class="atom-3" d="M 205.707 337.875 L 209.367 337.875 L 209.367 341.534 L 205.707 341.534 L 205.707 337.875 M 205.707 325.285 L 209.367 325.285 L 209.367 328.945 L 205.707 328.945 L 205.707 325.285 " fill="#000000"/>
<path class="atom-3" d="M 227.299 333.263 L 230.41 333.263 L 230.41 336.191 L 227.299 336.191 L 227.299 342.156 L 223.859 342.156 L 223.859 336.191 L 210.464 336.191 L 210.464 333.885 L 221.81 316.245 L 227.299 316.245 L 227.299 333.263 M 214.71 333.263 L 223.859 333.263 L 223.859 318.588 L 214.71 333.263 " fill="#000000"/>
<path class="atom-4" d="M 183.791 170.692 Q 183.791 164.251, 186.792 160.884 Q 189.83 157.48, 195.575 157.48 Q 200.919 157.48, 203.773 161.25 L 201.358 163.226 Q 199.272 160.481, 195.575 160.481 Q 191.659 160.481, 189.573 163.116 Q 187.524 165.715, 187.524 170.692 Q 187.524 175.816, 189.647 178.451 Q 191.806 181.086, 195.978 181.086 Q 198.833 181.086, 202.163 179.366 L 203.188 182.11 Q 201.834 182.989, 199.784 183.501 Q 197.735 184.014, 195.466 184.014 Q 189.83 184.014, 186.792 180.573 Q 183.791 177.133, 183.791 170.692 " fill="#000000"/>
<path class="atom-4" d="M 206.518 179.402 L 210.178 179.402 L 210.178 183.062 L 206.518 183.062 L 206.518 179.402 M 206.518 166.813 L 210.178 166.813 L 210.178 170.472 L 206.518 170.472 L 206.518 166.813 " fill="#000000"/>
<path class="atom-4" d="M 221.267 167.471 Q 223.536 167.471, 225.402 168.46 Q 227.269 169.411, 228.33 171.241 Q 229.392 173.034, 229.392 175.486 Q 229.392 178.158, 228.074 180.098 Q 226.793 182.001, 224.67 182.989 Q 222.548 183.977, 220.132 183.977 Q 217.754 183.977, 215.558 183.099 Q 213.362 182.22, 211.861 180.537 L 214.057 178.268 Q 215.265 179.585, 216.912 180.317 Q 218.559 181.013, 220.242 181.013 Q 222.548 181.013, 224.122 179.585 Q 225.732 178.158, 225.732 175.56 Q 225.732 172.815, 224.122 171.534 Q 222.548 170.216, 220.023 170.216 Q 217.754 170.216, 215.228 171.204 L 213.215 170.253 L 214.46 157.773 L 227.781 157.773 L 227.415 160.701 L 217.461 160.701 L 216.692 168.386 Q 218.998 167.471, 221.267 167.471 " fill="#000000"/>
<path class="atom-5" d="M 274.834 170.692 Q 274.834 164.251, 277.835 160.884 Q 280.872 157.48, 286.618 157.48 Q 291.961 157.48, 294.816 161.25 L 292.4 163.226 Q 290.314 160.481, 286.618 160.481 Q 282.702 160.481, 280.616 163.116 Q 278.567 165.715, 278.567 170.692 Q 278.567 175.816, 280.689 178.451 Q 282.848 181.086, 287.021 181.086 Q 289.875 181.086, 293.206 179.366 L 294.23 182.11 Q 292.876 182.989, 290.827 183.501 Q 288.777 184.014, 286.508 184.014 Q 280.872 184.014, 277.835 180.573 Q 274.834 177.133, 274.834 170.692 " fill="#000000"/>
<path class="atom-5" d="M 297.561 179.402 L 301.22 179.402 L 301.22 183.062 L 297.561 183.062 L 297.561 179.402 M 297.561 166.813 L 301.22 166.813 L 301.22 170.472 L 297.561 170.472 L 297.561 166.813 " fill="#000000"/>
<path class="atom-5" d="M 313.847 167.508 Q 316.116 167.508, 317.909 168.496 Q 319.702 169.484, 320.69 171.278 Q 321.679 173.071, 321.679 175.34 Q 321.679 177.865, 320.544 179.841 Q 319.446 181.781, 317.47 182.879 Q 315.494 183.977, 312.968 183.977 Q 308.357 183.977, 306.015 180.866 Q 303.709 177.719, 303.709 171.497 Q 303.709 164.617, 306.564 161.067 Q 309.455 157.48, 314.981 157.48 Q 316.591 157.48, 317.946 157.846 Q 319.336 158.212, 320.654 158.981 L 319.227 161.433 Q 317.323 160.408, 315.018 160.408 Q 311.358 160.408, 309.492 162.787 Q 307.625 165.129, 307.405 169.997 Q 308.723 168.789, 310.37 168.167 Q 312.053 167.508, 313.847 167.508 M 313.005 180.976 Q 314.396 180.976, 315.53 180.244 Q 316.701 179.512, 317.36 178.231 Q 318.019 176.95, 318.019 175.377 Q 318.019 173.071, 316.738 171.753 Q 315.457 170.436, 313.188 170.436 Q 311.614 170.436, 310.04 171.095 Q 308.503 171.717, 307.405 172.815 Q 307.552 177.097, 308.906 179.036 Q 310.26 180.976, 313.005 180.976 " fill="#000000"/>
<path class="atom-6" d="M 432.993 236.863 L 436.507 236.863 L 436.507 247.879 L 449.755 247.879 L 449.755 236.863 L 453.268 236.863 L 453.268 262.774 L 449.755 262.774 L 449.755 250.807 L 436.507 250.807 L 436.507 262.774 L 432.993 262.774 L 432.993 236.863 " fill="#000000"/>
<path class="atom-6" d="M 456.013 258.492 L 459.673 258.492 L 459.673 262.152 L 456.013 262.152 L 456.013 258.492 M 456.013 245.902 L 459.673 245.902 L 459.673 249.562 L 456.013 249.562 L 456.013 245.902 " fill="#000000"/>
<path class="atom-6" d="M 473.909 239.791 L 460.332 239.791 L 460.332 236.863 L 477.533 236.863 L 477.533 239.461 L 467.066 262.774 L 463.552 262.774 L 473.909 239.791 " fill="#000000"/>
<path class="atom-7" d="M 341.499 395.482 L 345.013 395.482 L 345.013 406.497 L 358.261 406.497 L 358.261 395.482 L 361.774 395.482 L 361.774 421.393 L 358.261 421.393 L 358.261 409.425 L 345.013 409.425 L 345.013 421.393 L 341.499 421.393 L 341.499 395.482 " fill="#000000"/>
<path class="atom-7" d="M 364.519 417.111 L 368.179 417.111 L 368.179 420.77 L 364.519 420.77 L 364.519 417.111 M 364.519 404.521 L 368.179 404.521 L 368.179 408.181 L 364.519 408.181 L 364.519 404.521 " fill="#000000"/>
<path class="atom-7" d="M 383.66 407.669 Q 386.038 408.693, 387.393 410.23 Q 388.747 411.731, 388.747 414.293 Q 388.747 416.489, 387.612 418.209 Q 386.478 419.892, 384.428 420.844 Q 382.415 421.759, 379.744 421.759 Q 375.425 421.759, 372.937 419.782 Q 370.448 417.769, 370.448 414.293 Q 370.448 412.17, 371.546 410.596 Q 372.644 408.986, 374.913 407.778 Q 373.229 406.827, 372.314 405.436 Q 371.399 404.009, 371.399 401.813 Q 371.399 398.775, 373.595 396.982 Q 375.828 395.189, 379.597 395.189 Q 383.367 395.189, 385.563 396.982 Q 387.795 398.775, 387.795 401.813 Q 387.795 403.716, 386.734 405.143 Q 385.709 406.534, 383.66 407.669 M 379.597 397.934 Q 377.438 397.934, 376.23 398.958 Q 375.059 399.983, 375.059 401.813 Q 375.059 403.167, 375.864 404.082 Q 376.67 404.96, 377.804 405.473 Q 378.975 405.985, 381.208 406.754 Q 382.781 405.656, 383.44 404.485 Q 384.135 403.313, 384.135 401.813 Q 384.135 399.983, 382.928 398.958 Q 381.757 397.934, 379.597 397.934 M 379.744 419.014 Q 382.159 419.014, 383.623 417.733 Q 385.087 416.415, 385.087 414.256 Q 385.087 412.865, 384.318 411.987 Q 383.55 411.109, 382.379 410.596 Q 381.244 410.084, 379.195 409.425 L 377.548 408.876 Q 375.718 409.974, 374.913 411.292 Q 374.108 412.573, 374.108 414.256 Q 374.108 416.415, 375.645 417.733 Q 377.182 419.014, 379.744 419.014 " fill="#000000"/>
<path class="atom-8" d="M 130.971 395.482 L 134.485 395.482 L 134.485 406.497 L 147.733 406.497 L 147.733 395.482 L 151.247 395.482 L 151.247 421.393 L 147.733 421.393 L 147.733 409.425 L 134.485 409.425 L 134.485 421.393 L 130.971 421.393 L 130.971 395.482 " fill="#000000"/>
<path class="atom-8" d="M 153.991 417.111 L 157.651 417.111 L 157.651 420.77 L 153.991 420.77 L 153.991 417.111 M 153.991 404.521 L 157.651 404.521 L 157.651 408.181 L 153.991 408.181 L 153.991 404.521 " fill="#000000"/>
<path class="atom-8" d="M 168.374 395.189 Q 172.985 395.189, 175.291 398.336 Q 177.633 401.447, 177.633 407.669 Q 177.633 414.549, 174.742 418.135 Q 171.888 421.685, 166.361 421.685 Q 164.751 421.685, 163.36 421.319 Q 162.006 420.953, 160.689 420.185 L 162.116 417.733 Q 164.019 418.758, 166.325 418.758 Q 169.984 418.758, 171.851 416.415 Q 173.717 414.037, 173.937 409.169 Q 172.62 410.377, 170.936 411.036 Q 169.289 411.658, 167.496 411.658 Q 165.227 411.658, 163.434 410.67 Q 161.64 409.681, 160.652 407.888 Q 159.664 406.095, 159.664 403.826 Q 159.664 401.301, 160.762 399.361 Q 161.896 397.385, 163.873 396.287 Q 165.849 395.189, 168.374 395.189 M 163.324 403.789 Q 163.324 406.095, 164.605 407.412 Q 165.886 408.73, 168.155 408.73 Q 169.728 408.73, 171.265 408.108 Q 172.839 407.449, 173.937 406.351 Q 173.791 402.069, 172.437 400.129 Q 171.082 398.19, 168.338 398.19 Q 166.947 398.19, 165.776 398.922 Q 164.641 399.654, 163.982 400.935 Q 163.324 402.216, 163.324 403.789 " fill="#000000"/>
<path class="atom-9" d="M 112.654 78.5369 L 116.168 78.5369 L 116.168 89.5528 L 129.416 89.5528 L 129.416 78.5369 L 132.929 78.5369 L 132.929 104.448 L 129.416 104.448 L 129.416 92.4806 L 116.168 92.4806 L 116.168 104.448 L 112.654 104.448 L 112.654 78.5369 " fill="#000000"/>
<path class="atom-9" d="M 135.674 100.166 L 139.334 100.166 L 139.334 103.826 L 135.674 103.826 L 135.674 100.166 M 135.674 87.5765 L 139.334 87.5765 L 139.334 91.2363 L 135.674 91.2363 L 135.674 87.5765 " fill="#000000"/>
<path class="atom-9" d="M 142.738 101.52 L 148.41 101.52 L 148.41 82.1601 L 142.152 84.0998 L 141.31 81.9405 L 149.252 78.3905 L 151.85 78.8297 L 151.85 101.52 L 156.937 101.52 L 156.937 104.448 L 142.738 104.448 L 142.738 101.52 " fill="#000000"/>
<path class="atom-9" d="M 168.649 104.741 Q 163.891 104.741, 161.512 101.227 Q 159.17 97.7141, 159.17 91.4559 Q 159.17 85.1977, 161.512 81.7209 Q 163.854 78.2441, 168.649 78.2441 Q 173.443 78.2441, 175.785 81.7209 Q 178.127 85.1977, 178.127 91.4559 Q 178.127 97.7141, 175.749 101.227 Q 173.406 104.741, 168.649 104.741 M 168.649 101.813 Q 171.467 101.813, 172.967 99.2146 Q 174.468 96.5795, 174.468 91.4559 Q 174.468 86.3688, 172.967 83.7704 Q 171.467 81.1719, 168.649 81.1719 Q 165.867 81.1719, 164.33 83.7704 Q 162.83 86.3688, 162.83 91.4559 Q 162.83 96.5795, 164.33 99.2146 Q 165.867 101.813, 168.649 101.813 " fill="#000000"/>
<path class="atom-10" d="M 341.499 78.4637 L 345.013 78.4637 L 345.013 89.4796 L 358.261 89.4796 L 358.261 78.4637 L 361.774 78.4637 L 361.774 104.375 L 358.261 104.375 L 358.261 92.4074 L 345.013 92.4074 L 345.013 104.375 L 341.499 104.375 L 341.499 78.4637 " fill="#000000"/>
<path class="atom-10" d="M 364.519 100.093 L 368.179 100.093 L 368.179 103.753 L 364.519 103.753 L 364.519 100.093 M 364.519 87.5033 L 368.179 87.5033 L 368.179 91.1631 L 364.519 91.1631 L 364.519 87.5033 " fill="#000000"/>
<path class="atom-10" d="M 371.582 101.447 L 377.255 101.447 L 377.255 82.0869 L 370.997 84.0266 L 370.155 81.8673 L 378.097 78.3173 L 380.695 78.7565 L 380.695 101.447 L 385.782 101.447 L 385.782 104.375 L 371.582 104.375 L 371.582 101.447 " fill="#000000"/>
<path class="atom-10" d="M 389.186 101.447 L 394.859 101.447 L 394.859 82.0869 L 388.6 84.0266 L 387.759 81.8673 L 395.7 78.3173 L 398.299 78.7565 L 398.299 101.447 L 403.386 101.447 L 403.386 104.375 L 389.186 104.375 L 389.186 101.447 " fill="#000000"/>
<path class="atom-11" d="M 22.3131 237.009 L 25.8265 237.009 L 25.8265 248.025 L 39.0748 248.025 L 39.0748 237.009 L 42.5882 237.009 L 42.5882 262.92 L 39.0748 262.92 L 39.0748 250.953 L 25.8265 250.953 L 25.8265 262.92 L 22.3131 262.92 L 22.3131 237.009 " fill="#000000"/>
<path class="atom-11" d="M 45.333 258.638 L 48.9928 258.638 L 48.9928 262.298 L 45.333 262.298 L 45.333 258.638 M 45.333 246.049 L 48.9928 246.049 L 48.9928 249.709 L 45.333 249.709 L 45.333 246.049 " fill="#000000"/>
<path class="atom-11" d="M 52.3964 259.993 L 58.069 259.993 L 58.069 240.632 L 51.8108 242.572 L 50.969 240.413 L 58.9107 236.863 L 61.5092 237.302 L 61.5092 259.993 L 66.5962 259.993 L 66.5962 262.92 L 52.3964 262.92 L 52.3964 259.993 " fill="#000000"/>
<path class="atom-11" d="M 68.4993 241.913 Q 69.4508 239.461, 71.7199 238.107 Q 73.9889 236.716, 77.1363 236.716 Q 81.0523 236.716, 83.2481 238.839 Q 85.444 240.962, 85.444 244.731 Q 85.444 248.574, 82.5894 252.161 Q 79.7714 255.747, 73.9158 259.993 L 85.8832 259.993 L 85.8832 262.92 L 68.4261 262.92 L 68.4261 260.468 Q 73.257 257.028, 76.1116 254.466 Q 79.0028 251.904, 80.3935 249.599 Q 81.7842 247.293, 81.7842 244.914 Q 81.7842 242.426, 80.5399 241.035 Q 79.2956 239.644, 77.1363 239.644 Q 75.0503 239.644, 73.6596 240.486 Q 72.2689 241.328, 71.2807 243.194 L 68.4993 241.913 " fill="#000000"/>
<text x="191.52218081166484" y="289.4364716520574" font-size="12" font-family="Verdana" font-weight="bold" letter-spacing="0" text-anchor="start" fill="black" transform=" rotate(-30.000000 191.522181 289.436472)">1.461</text><text x="25" y="490" font-size="12" font-family="Verdana" font-weight="bold" letter-spacing="0" text-anchor="start" fill="black">[#6:1]1(:[#6:2](:[#6:4](:[#6:3](:[#6:5](:[#6:6]:1-[H:11])-[H:10])-[H:12])-[H:9])-[H:8])-[H:7]</text></svg>
