<?xml version='1.0' encoding='ASCII' standalone='yes'?>
<svg xmlns="http://www.w3.org/2000/svg" xmlns:rdkit="http://www.rdkit.org/xml" xmlns:xlink="http://www.w3.org/1999/xlink" version="1.1" baseProfile="full" xml:space="preserve" width="500px" height="500px" viewBox="0 0 500 500">
<!-- END OF HEADER -->
<rect style="opacity:1.0;fill:#FFFFFF;stroke:none" width="500" height="500" x="0" y="0"> </rect>
<path d="M 265.196,276.849 L 236.343,313.509" style="fill:none;fill-rule:evenodd;stroke:#FF7F7F;stroke-width:10.0px;stroke-linecap:butt;stroke-linejoin:miter;stroke-opacity:1"/>
<path class="bond-0 atom-0 atom-6" d="M 252.817,225.684 L 267.836,201.839" style="fill:none;fill-rule:evenodd;stroke:#000000;stroke-width:2.0px;stroke-linecap:butt;stroke-linejoin:miter;stroke-opacity:1"/>
<path class="bond-1 atom-0 atom-1" d="M 251.08,241.546 L 263.019,271.403" style="fill:none;fill-rule:evenodd;stroke:#000000;stroke-width:2.0px;stroke-linecap:butt;stroke-linejoin:miter;stroke-opacity:1"/>
<path class="bond-1 atom-0 atom-1" d="M 261.534,242.56 L 269.892,263.46" style="fill:none;fill-rule:evenodd;stroke:#000000;stroke-width:2.0px;stroke-linecap:butt;stroke-linejoin:miter;stroke-opacity:1"/>
<path class="bond-2 atom-0 atom-8" d="M 241.614,231.946 L 208.235,223.497" style="fill:none;fill-rule:evenodd;stroke:#000000;stroke-width:2.0px;stroke-linecap:butt;stroke-linejoin:miter;stroke-opacity:1"/>
<path class="bond-3 atom-1 atom-5" d="M 274.037,278.124 L 294.593,281.087" style="fill:none;fill-rule:evenodd;stroke:#000000;stroke-width:2.0px;stroke-linecap:butt;stroke-linejoin:miter;stroke-opacity:1"/>
<path class="bond-4 atom-2 atom-1" d="M 242.519,305.662 L 250.802,295.138" style="fill:none;fill-rule:evenodd;stroke:#0000FF;stroke-width:2.0px;stroke-linecap:butt;stroke-linejoin:miter;stroke-opacity:1"/>
<path class="bond-4 atom-2 atom-1" d="M 250.802,295.138 L 259.085,284.614" style="fill:none;fill-rule:evenodd;stroke:#000000;stroke-width:2.0px;stroke-linecap:butt;stroke-linejoin:miter;stroke-opacity:1"/>
<path class="bond-5 atom-2 atom-3" d="M 219.876,311.134 L 209.48,309.635" style="fill:none;fill-rule:evenodd;stroke:#0000FF;stroke-width:2.0px;stroke-linecap:butt;stroke-linejoin:miter;stroke-opacity:1"/>
<path class="bond-5 atom-2 atom-3" d="M 209.48,309.635 L 199.084,308.136" style="fill:none;fill-rule:evenodd;stroke:#000000;stroke-width:2.0px;stroke-linecap:butt;stroke-linejoin:miter;stroke-opacity:1"/>
<path class="bond-6 atom-2 atom-4" d="M 239.555,321.542 L 245.099,335.406" style="fill:none;fill-rule:evenodd;stroke:#0000FF;stroke-width:2.0px;stroke-linecap:butt;stroke-linejoin:miter;stroke-opacity:1"/>
<path class="bond-6 atom-2 atom-4" d="M 245.099,335.406 L 250.643,349.27" style="fill:none;fill-rule:evenodd;stroke:#000000;stroke-width:2.0px;stroke-linecap:butt;stroke-linejoin:miter;stroke-opacity:1"/>
<path class="bond-7 atom-3 atom-15" d="M 183.86,314.866 L 167.29,335.919" style="fill:none;fill-rule:evenodd;stroke:#000000;stroke-width:2.0px;stroke-linecap:butt;stroke-linejoin:miter;stroke-opacity:1"/>
<path class="bond-7 atom-3 atom-15" d="M 174.042,312.253 L 162.443,326.99" style="fill:none;fill-rule:evenodd;stroke:#000000;stroke-width:2.0px;stroke-linecap:butt;stroke-linejoin:miter;stroke-opacity:1"/>
<path class="bond-8 atom-3 atom-16" d="M 187.09,299.153 L 175.968,271.341" style="fill:none;fill-rule:evenodd;stroke:#000000;stroke-width:2.0px;stroke-linecap:butt;stroke-linejoin:miter;stroke-opacity:1"/>
<path class="bond-9 atom-5 atom-10" d="M 314.569,291.503 L 325.671,319.267" style="fill:none;fill-rule:evenodd;stroke:#000000;stroke-width:2.0px;stroke-linecap:butt;stroke-linejoin:miter;stroke-opacity:1"/>
<path class="bond-9 atom-5 atom-10" d="M 324.898,292.203 L 332.67,311.638" style="fill:none;fill-rule:evenodd;stroke:#000000;stroke-width:2.0px;stroke-linecap:butt;stroke-linejoin:miter;stroke-opacity:1"/>
<path class="bond-10 atom-5 atom-11" d="M 317.548,275.66 L 334.245,254.444" style="fill:none;fill-rule:evenodd;stroke:#000000;stroke-width:2.0px;stroke-linecap:butt;stroke-linejoin:miter;stroke-opacity:1"/>
<path class="bond-11 atom-6 atom-9" d="M 266.477,186.54 L 249.336,165.963" style="fill:none;fill-rule:evenodd;stroke:#000000;stroke-width:2.0px;stroke-linecap:butt;stroke-linejoin:miter;stroke-opacity:1"/>
<path class="bond-11 atom-6 atom-9" d="M 256.737,189.426 L 244.738,175.021" style="fill:none;fill-rule:evenodd;stroke:#000000;stroke-width:2.0px;stroke-linecap:butt;stroke-linejoin:miter;stroke-opacity:1"/>
<path class="bond-12 atom-6 atom-31" d="M 291.371,190.503 L 312.704,186.434" style="fill:none;fill-rule:evenodd;stroke:#000000;stroke-width:2.0px;stroke-linecap:butt;stroke-linejoin:miter;stroke-opacity:1"/>
<path class="bond-13 atom-7 atom-8" d="M 200.093,183.566 L 201.117,199.002" style="fill:none;fill-rule:evenodd;stroke:#0000FF;stroke-width:2.0px;stroke-linecap:butt;stroke-linejoin:miter;stroke-opacity:1"/>
<path class="bond-13 atom-7 atom-8" d="M 201.117,199.002 L 202.141,214.437" style="fill:none;fill-rule:evenodd;stroke:#000000;stroke-width:2.0px;stroke-linecap:butt;stroke-linejoin:miter;stroke-opacity:1"/>
<path class="bond-14 atom-7 atom-9" d="M 205.392,173.201 L 214.31,169.635" style="fill:none;fill-rule:evenodd;stroke:#0000FF;stroke-width:2.0px;stroke-linecap:butt;stroke-linejoin:miter;stroke-opacity:1"/>
<path class="bond-14 atom-7 atom-9" d="M 214.31,169.635 L 223.227,166.069" style="fill:none;fill-rule:evenodd;stroke:#000000;stroke-width:2.0px;stroke-linecap:butt;stroke-linejoin:miter;stroke-opacity:1"/>
<path class="bond-15 atom-7 atom-20" d="M 187.339,167.835 L 176.107,160.761" style="fill:none;fill-rule:evenodd;stroke:#0000FF;stroke-width:2.0px;stroke-linecap:butt;stroke-linejoin:miter;stroke-opacity:1"/>
<path class="bond-15 atom-7 atom-20" d="M 176.107,160.761 L 164.875,153.686" style="fill:none;fill-rule:evenodd;stroke:#000000;stroke-width:2.0px;stroke-linecap:butt;stroke-linejoin:miter;stroke-opacity:1"/>
<path class="bond-16 atom-8 atom-21" d="M 184.492,225.676 L 178.017,228.805" style="fill:none;fill-rule:evenodd;stroke:#000000;stroke-width:2.0px;stroke-linecap:butt;stroke-linejoin:miter;stroke-opacity:1"/>
<path class="bond-16 atom-8 atom-21" d="M 178.017,228.805 L 171.542,231.934" style="fill:none;fill-rule:evenodd;stroke:#FF0000;stroke-width:2.0px;stroke-linecap:butt;stroke-linejoin:miter;stroke-opacity:1"/>
<path class="bond-16 atom-8 atom-21" d="M 188.552,234.077 L 182.077,237.206" style="fill:none;fill-rule:evenodd;stroke:#000000;stroke-width:2.0px;stroke-linecap:butt;stroke-linejoin:miter;stroke-opacity:1"/>
<path class="bond-16 atom-8 atom-21" d="M 182.077,237.206 L 175.602,240.335" style="fill:none;fill-rule:evenodd;stroke:#FF0000;stroke-width:2.0px;stroke-linecap:butt;stroke-linejoin:miter;stroke-opacity:1"/>
<path class="bond-17 atom-9 atom-32" d="M 244.865,150.364 L 252.391,120.629" style="fill:none;fill-rule:evenodd;stroke:#000000;stroke-width:2.0px;stroke-linecap:butt;stroke-linejoin:miter;stroke-opacity:1"/>
<path class="bond-18 atom-10 atom-12" d="M 341.392,328.655 L 353.862,330.453" style="fill:none;fill-rule:evenodd;stroke:#000000;stroke-width:2.0px;stroke-linecap:butt;stroke-linejoin:miter;stroke-opacity:1"/>
<path class="bond-19 atom-10 atom-22" d="M 322.517,334.671 L 305.198,356.677" style="fill:none;fill-rule:evenodd;stroke:#000000;stroke-width:2.0px;stroke-linecap:butt;stroke-linejoin:miter;stroke-opacity:1"/>
<path class="bond-20 atom-11 atom-13" d="M 345.842,247.657 L 364.788,250.388" style="fill:none;fill-rule:evenodd;stroke:#000000;stroke-width:2.0px;stroke-linecap:butt;stroke-linejoin:miter;stroke-opacity:1"/>
<path class="bond-20 atom-11 atom-13" d="M 347.352,257.301 L 360.614,259.214" style="fill:none;fill-rule:evenodd;stroke:#000000;stroke-width:2.0px;stroke-linecap:butt;stroke-linejoin:miter;stroke-opacity:1"/>
<path class="bond-21 atom-11 atom-23" d="M 338.153,239 L 330.332,209.385" style="fill:none;fill-rule:evenodd;stroke:#000000;stroke-width:2.0px;stroke-linecap:butt;stroke-linejoin:miter;stroke-opacity:1"/>
<path class="bond-22 atom-12 atom-14" d="M 381.044,325.635 L 397.742,304.42" style="fill:none;fill-rule:evenodd;stroke:#000000;stroke-width:2.0px;stroke-linecap:butt;stroke-linejoin:miter;stroke-opacity:1"/>
<path class="bond-22 atom-12 atom-14" d="M 376.217,316.682 L 387.906,301.831" style="fill:none;fill-rule:evenodd;stroke:#000000;stroke-width:2.0px;stroke-linecap:butt;stroke-linejoin:miter;stroke-opacity:1"/>
<path class="bond-23 atom-12 atom-24" d="M 378.081,341.516 L 389.199,369.319" style="fill:none;fill-rule:evenodd;stroke:#000000;stroke-width:2.0px;stroke-linecap:butt;stroke-linejoin:miter;stroke-opacity:1"/>
<path class="bond-24 atom-13 atom-14" d="M 389.538,261.352 L 400.698,289.261" style="fill:none;fill-rule:evenodd;stroke:#000000;stroke-width:2.0px;stroke-linecap:butt;stroke-linejoin:miter;stroke-opacity:1"/>
<path class="bond-25 atom-13 atom-25" d="M 392.459,245.807 L 409.27,224.447" style="fill:none;fill-rule:evenodd;stroke:#000000;stroke-width:2.0px;stroke-linecap:butt;stroke-linejoin:miter;stroke-opacity:1"/>
<path class="bond-26 atom-14 atom-26" d="M 416.915,298.725 L 443.895,302.615" style="fill:none;fill-rule:evenodd;stroke:#000000;stroke-width:2.0px;stroke-linecap:butt;stroke-linejoin:miter;stroke-opacity:1"/>
<path class="bond-27 atom-15 atom-17" d="M 139.761,340.403 L 128.257,338.744" style="fill:none;fill-rule:evenodd;stroke:#000000;stroke-width:2.0px;stroke-linecap:butt;stroke-linejoin:miter;stroke-opacity:1"/>
<path class="bond-28 atom-15 atom-27" d="M 164.512,351.507 L 175.644,379.346" style="fill:none;fill-rule:evenodd;stroke:#000000;stroke-width:2.0px;stroke-linecap:butt;stroke-linejoin:miter;stroke-opacity:1"/>
<path class="bond-29 atom-16 atom-18" d="M 166.585,262.63 L 139.972,258.793" style="fill:none;fill-rule:evenodd;stroke:#000000;stroke-width:2.0px;stroke-linecap:butt;stroke-linejoin:miter;stroke-opacity:1"/>
<path class="bond-29 atom-16 atom-18" d="M 161.262,271.29 L 142.633,268.604" style="fill:none;fill-rule:evenodd;stroke:#000000;stroke-width:2.0px;stroke-linecap:butt;stroke-linejoin:miter;stroke-opacity:1"/>
<path class="bond-30 atom-16 atom-28" d="M 176.127,256.233 L 179.819,248.02" style="fill:none;fill-rule:evenodd;stroke:#000000;stroke-width:2.0px;stroke-linecap:butt;stroke-linejoin:miter;stroke-opacity:1"/>
<path class="bond-31 atom-17 atom-19" d="M 112.031,329.081 L 100.932,301.322" style="fill:none;fill-rule:evenodd;stroke:#000000;stroke-width:2.0px;stroke-linecap:butt;stroke-linejoin:miter;stroke-opacity:1"/>
<path class="bond-31 atom-17 atom-19" d="M 119.03,321.453 L 111.26,302.022" style="fill:none;fill-rule:evenodd;stroke:#000000;stroke-width:2.0px;stroke-linecap:butt;stroke-linejoin:miter;stroke-opacity:1"/>
<path class="bond-32 atom-17 atom-29" d="M 108.963,344.7 L 92.0359,366.207" style="fill:none;fill-rule:evenodd;stroke:#000000;stroke-width:2.0px;stroke-linecap:butt;stroke-linejoin:miter;stroke-opacity:1"/>
<path class="bond-33 atom-18 atom-19" d="M 120.495,264.722 L 103.797,285.938" style="fill:none;fill-rule:evenodd;stroke:#000000;stroke-width:2.0px;stroke-linecap:butt;stroke-linejoin:miter;stroke-opacity:1"/>
<path class="bond-34 atom-18 atom-30" d="M 123.563,249.103 L 112.404,221.195" style="fill:none;fill-rule:evenodd;stroke:#000000;stroke-width:2.0px;stroke-linecap:butt;stroke-linejoin:miter;stroke-opacity:1"/>
<path class="bond-35 atom-19 atom-33" d="M 75.5807,290.329 L 57.3324,287.698" style="fill:none;fill-rule:evenodd;stroke:#000000;stroke-width:2.0px;stroke-linecap:butt;stroke-linejoin:miter;stroke-opacity:1"/>
<path class="atom-0" d="M 242.78 233.587 Q 242.78 230.303, 244.311 228.586 Q 245.859 226.85, 248.789 226.85 Q 251.514 226.85, 252.969 228.773 L 251.738 229.78 Q 250.674 228.381, 248.789 228.381 Q 246.792 228.381, 245.729 229.724 Q 244.684 231.049, 244.684 233.587 Q 244.684 236.2, 245.766 237.543 Q 246.867 238.887, 248.994 238.887 Q 250.45 238.887, 252.148 238.01 L 252.671 239.409 Q 251.98 239.857, 250.935 240.118 Q 249.89 240.38, 248.733 240.38 Q 245.859 240.38, 244.311 238.626 Q 242.78 236.871, 242.78 233.587 " fill="#000000"/>
<path class="atom-0" d="M 254.369 238.028 L 256.235 238.028 L 256.235 239.895 L 254.369 239.895 L 254.369 238.028 M 254.369 231.609 L 256.235 231.609 L 256.235 233.475 L 254.369 233.475 L 254.369 231.609 " fill="#000000"/>
<path class="atom-0" d="M 257.97 238.719 L 260.863 238.719 L 260.863 228.847 L 257.672 229.836 L 257.243 228.735 L 261.292 226.925 L 262.617 227.149 L 262.617 238.719 L 265.211 238.719 L 265.211 240.212 L 257.97 240.212 L 257.97 238.719 " fill="#000000"/>
<path class="atom-1" d="M 249.582 276.905 Q 249.582 273.62, 251.112 271.904 Q 252.661 270.168, 255.591 270.168 Q 258.315 270.168, 259.771 272.09 L 258.539 273.098 Q 257.475 271.698, 255.591 271.698 Q 253.594 271.698, 252.53 273.042 Q 251.485 274.367, 251.485 276.905 Q 251.485 279.517, 252.568 280.861 Q 253.669 282.205, 255.796 282.205 Q 257.252 282.205, 258.95 281.327 L 259.472 282.727 Q 258.782 283.175, 257.737 283.436 Q 256.692 283.697, 255.535 283.697 Q 252.661 283.697, 251.112 281.943 Q 249.582 280.189, 249.582 276.905 " fill="#000000"/>
<path class="atom-1" d="M 261.17 281.346 L 263.036 281.346 L 263.036 283.212 L 261.17 283.212 L 261.17 281.346 M 261.17 274.927 L 263.036 274.927 L 263.036 276.793 L 261.17 276.793 L 261.17 274.927 " fill="#000000"/>
<path class="atom-1" d="M 264.007 272.818 Q 264.492 271.568, 265.649 270.877 Q 266.806 270.168, 268.411 270.168 Q 270.408 270.168, 271.527 271.251 Q 272.647 272.333, 272.647 274.255 Q 272.647 276.214, 271.191 278.043 Q 269.754 279.872, 266.769 282.037 L 272.871 282.037 L 272.871 283.529 L 263.97 283.529 L 263.97 282.279 Q 266.433 280.525, 267.888 279.219 Q 269.363 277.913, 270.072 276.737 Q 270.781 275.561, 270.781 274.348 Q 270.781 273.079, 270.146 272.37 Q 269.512 271.661, 268.411 271.661 Q 267.347 271.661, 266.638 272.09 Q 265.929 272.519, 265.425 273.471 L 264.007 272.818 " fill="#000000"/>
<path class="atom-2" d="M 223.133 306.977 L 227.462 313.975 Q 227.891 314.666, 228.582 315.916 Q 229.272 317.166, 229.309 317.241 L 229.309 306.977 L 231.064 306.977 L 231.064 320.189 L 229.253 320.189 L 224.607 312.538 Q 224.066 311.643, 223.487 310.616 Q 222.927 309.59, 222.759 309.273 L 222.759 320.189 L 221.043 320.189 L 221.043 306.977 L 223.133 306.977 " fill="#0000FF"/>
<path class="atom-2" d="M 232.463 318.006 L 234.329 318.006 L 234.329 319.872 L 232.463 319.872 L 232.463 318.006 M 232.463 311.587 L 234.329 311.587 L 234.329 313.453 L 232.463 313.453 L 232.463 311.587 " fill="#0000FF"/>
<path class="atom-2" d="M 241.458 313.229 Q 242.745 313.602, 243.361 314.442 Q 243.996 315.263, 243.996 316.569 Q 243.996 317.689, 243.436 318.566 Q 242.876 319.424, 241.85 319.909 Q 240.823 320.376, 239.48 320.376 Q 238.061 320.376, 236.998 319.891 Q 235.953 319.387, 235.113 318.379 L 236.177 317.297 Q 236.998 318.193, 237.688 318.547 Q 238.379 318.883, 239.48 318.883 Q 240.674 318.883, 241.402 318.249 Q 242.13 317.596, 242.13 316.55 Q 242.13 315.207, 241.364 314.61 Q 240.618 313.994, 238.994 313.994 L 238.043 313.994 L 238.043 312.65 L 238.883 312.65 Q 240.319 312.632, 241.085 312.016 Q 241.85 311.381, 241.85 310.206 Q 241.85 309.347, 241.215 308.843 Q 240.581 308.321, 239.498 308.321 Q 238.397 308.321, 237.707 308.713 Q 237.035 309.105, 236.513 310.094 L 235.225 309.403 Q 235.691 308.302, 236.811 307.575 Q 237.931 306.828, 239.498 306.828 Q 241.439 306.828, 242.577 307.742 Q 243.716 308.657, 243.716 310.206 Q 243.716 311.269, 243.137 312.035 Q 242.559 312.8, 241.458 313.229 " fill="#0000FF"/>
<path class="atom-3" d="M 174.149 306.907 Q 174.149 303.623, 175.679 301.906 Q 177.228 300.17, 180.158 300.17 Q 182.882 300.17, 184.338 302.092 L 183.106 303.1 Q 182.043 301.7, 180.158 301.7 Q 178.161 301.7, 177.097 303.044 Q 176.052 304.369, 176.052 306.907 Q 176.052 309.519, 177.135 310.863 Q 178.236 312.207, 180.363 312.207 Q 181.819 312.207, 183.517 311.33 L 184.039 312.729 Q 183.349 313.177, 182.304 313.438 Q 181.259 313.7, 180.102 313.7 Q 177.228 313.7, 175.679 311.945 Q 174.149 310.191, 174.149 306.907 " fill="#000000"/>
<path class="atom-3" d="M 185.737 311.348 L 187.604 311.348 L 187.604 313.214 L 185.737 313.214 L 185.737 311.348 M 185.737 304.929 L 187.604 304.929 L 187.604 306.795 L 185.737 306.795 L 185.737 304.929 " fill="#000000"/>
<path class="atom-3" d="M 196.748 308.997 L 198.334 308.997 L 198.334 310.49 L 196.748 310.49 L 196.748 313.532 L 194.993 313.532 L 194.993 310.49 L 188.163 310.49 L 188.163 309.314 L 193.948 300.32 L 196.748 300.32 L 196.748 308.997 M 190.328 308.997 L 194.993 308.997 L 194.993 301.514 L 190.328 308.997 " fill="#000000"/>
<path class="atom-4" d="M 248.496 350.22 L 250.287 350.22 L 250.287 355.837 L 257.042 355.837 L 257.042 350.22 L 258.834 350.22 L 258.834 363.432 L 257.042 363.432 L 257.042 357.33 L 250.287 357.33 L 250.287 363.432 L 248.496 363.432 L 248.496 350.22 " fill="#000000"/>
<path class="atom-4" d="M 260.233 361.249 L 262.1 361.249 L 262.1 363.115 L 260.233 363.115 L 260.233 361.249 M 260.233 354.83 L 262.1 354.83 L 262.1 356.696 L 260.233 356.696 L 260.233 354.83 " fill="#000000"/>
<path class="atom-4" d="M 267.754 355.166 Q 268.911 355.166, 269.863 355.669 Q 270.814 356.155, 271.355 357.088 Q 271.897 358.002, 271.897 359.252 Q 271.897 360.615, 271.225 361.604 Q 270.572 362.574, 269.489 363.078 Q 268.407 363.582, 267.175 363.582 Q 265.962 363.582, 264.843 363.134 Q 263.723 362.686, 262.958 361.828 L 264.078 360.671 Q 264.693 361.342, 265.533 361.716 Q 266.373 362.07, 267.231 362.07 Q 268.407 362.07, 269.209 361.342 Q 270.031 360.615, 270.031 359.29 Q 270.031 357.89, 269.209 357.237 Q 268.407 356.565, 267.119 356.565 Q 265.962 356.565, 264.675 357.069 L 263.648 356.584 L 264.283 350.22 L 271.076 350.22 L 270.889 351.713 L 265.813 351.713 L 265.421 355.632 Q 266.597 355.166, 267.754 355.166 " fill="#000000"/>
<path class="atom-5" d="M 295.536 283.563 Q 295.536 280.278, 297.066 278.561 Q 298.615 276.826, 301.545 276.826 Q 304.27 276.826, 305.725 278.748 L 304.493 279.756 Q 303.43 278.356, 301.545 278.356 Q 299.548 278.356, 298.485 279.7 Q 297.44 281.025, 297.44 283.563 Q 297.44 286.175, 298.522 287.519 Q 299.623 288.862, 301.75 288.862 Q 303.206 288.862, 304.904 287.985 L 305.426 289.385 Q 304.736 289.833, 303.691 290.094 Q 302.646 290.355, 301.489 290.355 Q 298.615 290.355, 297.066 288.601 Q 295.536 286.847, 295.536 283.563 " fill="#000000"/>
<path class="atom-5" d="M 307.125 288.004 L 308.991 288.004 L 308.991 289.87 L 307.125 289.87 L 307.125 288.004 M 307.125 281.585 L 308.991 281.585 L 308.991 283.451 L 307.125 283.451 L 307.125 281.585 " fill="#000000"/>
<path class="atom-5" d="M 315.429 281.939 Q 316.586 281.939, 317.5 282.443 Q 318.415 282.947, 318.918 283.861 Q 319.422 284.776, 319.422 285.933 Q 319.422 287.22, 318.844 288.228 Q 318.284 289.217, 317.276 289.777 Q 316.269 290.337, 314.981 290.337 Q 312.63 290.337, 311.435 288.75 Q 310.26 287.146, 310.26 283.973 Q 310.26 280.465, 311.715 278.655 Q 313.189 276.826, 316.007 276.826 Q 316.828 276.826, 317.519 277.013 Q 318.228 277.199, 318.9 277.591 L 318.172 278.841 Q 317.202 278.319, 316.026 278.319 Q 314.16 278.319, 313.208 279.532 Q 312.256 280.726, 312.144 283.208 Q 312.816 282.592, 313.656 282.275 Q 314.514 281.939, 315.429 281.939 M 315 288.806 Q 315.709 288.806, 316.287 288.433 Q 316.884 288.06, 317.22 287.407 Q 317.556 286.754, 317.556 285.951 Q 317.556 284.776, 316.903 284.104 Q 316.25 283.432, 315.093 283.432 Q 314.29 283.432, 313.488 283.768 Q 312.704 284.085, 312.144 284.645 Q 312.219 286.828, 312.91 287.817 Q 313.6 288.806, 315 288.806 " fill="#000000"/>
<path class="atom-6" d="M 267.644 194.112 Q 267.644 190.828, 269.174 189.111 Q 270.723 187.375, 273.653 187.375 Q 276.377 187.375, 277.833 189.297 L 276.601 190.305 Q 275.537 188.906, 273.653 188.906 Q 271.656 188.906, 270.592 190.249 Q 269.547 191.574, 269.547 194.112 Q 269.547 196.725, 270.629 198.068 Q 271.73 199.412, 273.858 199.412 Q 275.313 199.412, 277.012 198.535 L 277.534 199.934 Q 276.844 200.382, 275.799 200.643 Q 274.754 200.905, 273.597 200.905 Q 270.723 200.905, 269.174 199.15 Q 267.644 197.396, 267.644 194.112 " fill="#000000"/>
<path class="atom-6" d="M 279.232 198.553 L 281.098 198.553 L 281.098 200.419 L 279.232 200.419 L 279.232 198.553 M 279.232 192.134 L 281.098 192.134 L 281.098 194 L 279.232 194 L 279.232 192.134 " fill="#000000"/>
<path class="atom-6" d="M 288.357 189.018 L 281.434 189.018 L 281.434 187.525 L 290.205 187.525 L 290.205 188.85 L 284.868 200.737 L 283.076 200.737 L 288.357 189.018 " fill="#000000"/>
<path class="atom-7" d="M 182.542 169.001 L 186.871 175.999 Q 187.3 176.69, 187.991 177.94 Q 188.681 179.19, 188.718 179.265 L 188.718 169.001 L 190.473 169.001 L 190.473 182.213 L 188.662 182.213 L 184.016 174.562 Q 183.475 173.667, 182.896 172.64 Q 182.336 171.614, 182.168 171.297 L 182.168 182.213 L 180.452 182.213 L 180.452 169.001 L 182.542 169.001 " fill="#0000FF"/>
<path class="atom-7" d="M 191.872 180.03 L 193.738 180.03 L 193.738 181.896 L 191.872 181.896 L 191.872 180.03 M 191.872 173.611 L 193.738 173.611 L 193.738 175.477 L 191.872 175.477 L 191.872 173.611 " fill="#0000FF"/>
<path class="atom-7" d="M 201.632 175.216 Q 202.845 175.738, 203.535 176.522 Q 204.226 177.287, 204.226 178.593 Q 204.226 179.713, 203.647 180.59 Q 203.069 181.448, 202.024 181.934 Q 200.997 182.4, 199.635 182.4 Q 197.433 182.4, 196.164 181.392 Q 194.895 180.366, 194.895 178.593 Q 194.895 177.511, 195.455 176.708 Q 196.015 175.887, 197.172 175.272 Q 196.314 174.786, 195.847 174.077 Q 195.38 173.349, 195.38 172.23 Q 195.38 170.681, 196.5 169.767 Q 197.638 168.852, 199.561 168.852 Q 201.483 168.852, 202.602 169.767 Q 203.741 170.681, 203.741 172.23 Q 203.741 173.2, 203.199 173.928 Q 202.677 174.637, 201.632 175.216 M 199.561 170.252 Q 198.46 170.252, 197.844 170.774 Q 197.247 171.297, 197.247 172.23 Q 197.247 172.92, 197.657 173.387 Q 198.068 173.835, 198.646 174.096 Q 199.243 174.357, 200.382 174.749 Q 201.184 174.189, 201.52 173.592 Q 201.875 172.995, 201.875 172.23 Q 201.875 171.297, 201.259 170.774 Q 200.662 170.252, 199.561 170.252 M 199.635 181 Q 200.867 181, 201.613 180.347 Q 202.36 179.676, 202.36 178.575 Q 202.36 177.865, 201.968 177.418 Q 201.576 176.97, 200.979 176.708 Q 200.4 176.447, 199.355 176.111 L 198.516 175.831 Q 197.582 176.391, 197.172 177.063 Q 196.761 177.716, 196.761 178.575 Q 196.761 179.676, 197.545 180.347 Q 198.329 181, 199.635 181 " fill="#0000FF"/>
<path class="atom-8" d="M 183.586 222.139 Q 183.586 218.855, 185.116 217.138 Q 186.665 215.402, 189.595 215.402 Q 192.32 215.402, 193.775 217.325 L 192.544 218.332 Q 191.48 216.933, 189.595 216.933 Q 187.598 216.933, 186.535 218.276 Q 185.49 219.601, 185.49 222.139 Q 185.49 224.752, 186.572 226.095 Q 187.673 227.439, 189.8 227.439 Q 191.256 227.439, 192.954 226.562 L 193.477 227.961 Q 192.786 228.409, 191.741 228.67 Q 190.696 228.932, 189.539 228.932 Q 186.665 228.932, 185.116 227.178 Q 183.586 225.423, 183.586 222.139 " fill="#000000"/>
<path class="atom-8" d="M 195.175 226.58 L 197.041 226.58 L 197.041 228.447 L 195.175 228.447 L 195.175 226.58 M 195.175 220.161 L 197.041 220.161 L 197.041 222.027 L 195.175 222.027 L 195.175 220.161 " fill="#000000"/>
<path class="atom-8" d="M 202.509 215.402 Q 204.86 215.402, 206.036 217.007 Q 207.23 218.593, 207.23 221.766 Q 207.23 225.274, 205.756 227.103 Q 204.3 228.913, 201.482 228.913 Q 200.661 228.913, 199.952 228.726 Q 199.262 228.54, 198.59 228.148 L 199.318 226.898 Q 200.288 227.42, 201.464 227.42 Q 203.33 227.42, 204.281 226.226 Q 205.233 225.013, 205.345 222.531 Q 204.673 223.147, 203.815 223.483 Q 202.975 223.8, 202.061 223.8 Q 200.904 223.8, 199.989 223.296 Q 199.075 222.792, 198.571 221.878 Q 198.067 220.963, 198.067 219.806 Q 198.067 218.519, 198.627 217.53 Q 199.206 216.522, 200.213 215.962 Q 201.221 215.402, 202.509 215.402 M 199.933 219.788 Q 199.933 220.963, 200.586 221.635 Q 201.24 222.307, 202.397 222.307 Q 203.199 222.307, 203.983 221.99 Q 204.785 221.654, 205.345 221.094 Q 205.27 218.911, 204.58 217.922 Q 203.89 216.933, 202.49 216.933 Q 201.781 216.933, 201.184 217.306 Q 200.605 217.679, 200.269 218.332 Q 199.933 218.985, 199.933 219.788 " fill="#000000"/>
<path class="atom-9" d="M 222.335 158.267 Q 222.335 154.983, 223.865 153.266 Q 225.414 151.53, 228.344 151.53 Q 231.068 151.53, 232.524 153.453 L 231.292 154.46 Q 230.228 153.061, 228.344 153.061 Q 226.347 153.061, 225.283 154.404 Q 224.238 155.729, 224.238 158.267 Q 224.238 160.88, 225.321 162.223 Q 226.422 163.567, 228.549 163.567 Q 230.004 163.567, 231.703 162.69 L 232.225 164.089 Q 231.535 164.537, 230.49 164.798 Q 229.445 165.06, 228.288 165.06 Q 225.414 165.06, 223.865 163.306 Q 222.335 161.551, 222.335 158.267 " fill="#000000"/>
<path class="atom-9" d="M 233.923 162.708 L 235.789 162.708 L 235.789 164.574 L 233.923 164.574 L 233.923 162.708 M 233.923 156.289 L 235.789 156.289 L 235.789 158.155 L 233.923 158.155 L 233.923 156.289 " fill="#000000"/>
<path class="atom-9" d="M 237.525 163.399 L 240.417 163.399 L 240.417 153.527 L 237.226 154.516 L 236.797 153.415 L 240.847 151.605 L 242.172 151.829 L 242.172 163.399 L 244.765 163.399 L 244.765 164.892 L 237.525 164.892 L 237.525 163.399 " fill="#000000"/>
<path class="atom-9" d="M 250.737 165.041 Q 248.311 165.041, 247.098 163.25 Q 245.904 161.458, 245.904 158.267 Q 245.904 155.076, 247.098 153.303 Q 248.292 151.53, 250.737 151.53 Q 253.182 151.53, 254.376 153.303 Q 255.57 155.076, 255.57 158.267 Q 255.57 161.458, 254.357 163.25 Q 253.163 165.041, 250.737 165.041 M 250.737 163.548 Q 252.174 163.548, 252.939 162.223 Q 253.704 160.88, 253.704 158.267 Q 253.704 155.673, 252.939 154.348 Q 252.174 153.023, 250.737 153.023 Q 249.319 153.023, 248.535 154.348 Q 247.77 155.673, 247.77 158.267 Q 247.77 160.88, 248.535 162.223 Q 249.319 163.548, 250.737 163.548 " fill="#000000"/>
<path class="atom-10" d="M 308.819 326.88 Q 308.819 323.596, 310.349 321.879 Q 311.898 320.144, 314.828 320.144 Q 317.553 320.144, 319.008 322.066 L 317.777 323.074 Q 316.713 321.674, 314.828 321.674 Q 312.831 321.674, 311.768 323.018 Q 310.723 324.342, 310.723 326.88 Q 310.723 329.493, 311.805 330.837 Q 312.906 332.18, 315.033 332.18 Q 316.489 332.18, 318.187 331.303 L 318.71 332.703 Q 318.019 333.151, 316.974 333.412 Q 315.929 333.673, 314.772 333.673 Q 311.898 333.673, 310.349 331.919 Q 308.819 330.165, 308.819 326.88 " fill="#000000"/>
<path class="atom-10" d="M 320.408 331.322 L 322.274 331.322 L 322.274 333.188 L 320.408 333.188 L 320.408 331.322 M 320.408 324.902 L 322.274 324.902 L 322.274 326.768 L 320.408 326.768 L 320.408 324.902 " fill="#000000"/>
<path class="atom-10" d="M 324.009 332.012 L 326.902 332.012 L 326.902 322.14 L 323.711 323.13 L 323.282 322.029 L 327.331 320.218 L 328.656 320.442 L 328.656 332.012 L 331.25 332.012 L 331.25 333.505 L 324.009 333.505 L 324.009 332.012 " fill="#000000"/>
<path class="atom-10" d="M 332.985 332.012 L 335.878 332.012 L 335.878 322.14 L 332.687 323.13 L 332.258 322.029 L 336.307 320.218 L 337.632 320.442 L 337.632 332.012 L 340.226 332.012 L 340.226 333.505 L 332.985 333.505 L 332.985 332.012 " fill="#000000"/>
<path class="atom-11" d="M 312.411 246.903 Q 312.411 243.618, 313.941 241.902 Q 315.49 240.166, 318.42 240.166 Q 321.144 240.166, 322.6 242.088 L 321.368 243.096 Q 320.304 241.696, 318.42 241.696 Q 316.423 241.696, 315.359 243.04 Q 314.314 244.365, 314.314 246.903 Q 314.314 249.515, 315.396 250.859 Q 316.497 252.202, 318.625 252.202 Q 320.08 252.202, 321.779 251.325 L 322.301 252.725 Q 321.611 253.173, 320.566 253.434 Q 319.521 253.695, 318.364 253.695 Q 315.49 253.695, 313.941 251.941 Q 312.411 250.187, 312.411 246.903 " fill="#000000"/>
<path class="atom-11" d="M 323.999 251.344 L 325.865 251.344 L 325.865 253.21 L 323.999 253.21 L 323.999 251.344 M 323.999 244.925 L 325.865 244.925 L 325.865 246.791 L 323.999 246.791 L 323.999 244.925 " fill="#000000"/>
<path class="atom-11" d="M 327.601 252.035 L 330.493 252.035 L 330.493 242.163 L 327.302 243.152 L 326.873 242.051 L 330.922 240.241 L 332.247 240.465 L 332.247 252.035 L 334.841 252.035 L 334.841 253.527 L 327.601 253.527 L 327.601 252.035 " fill="#000000"/>
<path class="atom-11" d="M 335.812 242.816 Q 336.297 241.566, 337.454 240.875 Q 338.611 240.166, 340.216 240.166 Q 342.212 240.166, 343.332 241.248 Q 344.452 242.331, 344.452 244.253 Q 344.452 246.212, 342.996 248.041 Q 341.559 249.87, 338.574 252.035 L 344.676 252.035 L 344.676 253.527 L 335.774 253.527 L 335.774 252.277 Q 338.238 250.523, 339.693 249.217 Q 341.167 247.91, 341.877 246.735 Q 342.586 245.559, 342.586 244.346 Q 342.586 243.077, 341.951 242.368 Q 341.317 241.659, 340.216 241.659 Q 339.152 241.659, 338.443 242.088 Q 337.734 242.517, 337.23 243.469 L 335.812 242.816 " fill="#000000"/>
<path class="atom-12" d="M 354.707 333.538 Q 354.707 330.254, 356.238 328.537 Q 357.787 326.802, 360.716 326.802 Q 363.441 326.802, 364.896 328.724 L 363.665 329.731 Q 362.601 328.332, 360.716 328.332 Q 358.72 328.332, 357.656 329.675 Q 356.611 331, 356.611 333.538 Q 356.611 336.151, 357.693 337.494 Q 358.794 338.838, 360.922 338.838 Q 362.377 338.838, 364.075 337.961 L 364.598 339.36 Q 363.907 339.808, 362.862 340.07 Q 361.817 340.331, 360.66 340.331 Q 357.787 340.331, 356.238 338.577 Q 354.707 336.823, 354.707 333.538 " fill="#000000"/>
<path class="atom-12" d="M 366.296 337.98 L 368.162 337.98 L 368.162 339.846 L 366.296 339.846 L 366.296 337.98 M 366.296 331.56 L 368.162 331.56 L 368.162 333.426 L 366.296 333.426 L 366.296 331.56 " fill="#000000"/>
<path class="atom-12" d="M 369.898 338.67 L 372.79 338.67 L 372.79 328.798 L 369.599 329.787 L 369.17 328.686 L 373.219 326.876 L 374.544 327.1 L 374.544 338.67 L 377.138 338.67 L 377.138 340.163 L 369.898 340.163 L 369.898 338.67 " fill="#000000"/>
<path class="atom-12" d="M 384.267 333.202 Q 385.554 333.576, 386.17 334.415 Q 386.804 335.236, 386.804 336.543 Q 386.804 337.662, 386.245 338.539 Q 385.685 339.398, 384.658 339.883 Q 383.632 340.35, 382.289 340.35 Q 380.87 340.35, 379.807 339.864 Q 378.762 339.36, 377.922 338.353 L 378.986 337.27 Q 379.807 338.166, 380.497 338.521 Q 381.188 338.857, 382.289 338.857 Q 383.483 338.857, 384.211 338.222 Q 384.938 337.569, 384.938 336.524 Q 384.938 335.18, 384.173 334.583 Q 383.427 333.967, 381.803 333.967 L 380.852 333.967 L 380.852 332.624 L 381.691 332.624 Q 383.128 332.605, 383.893 331.989 Q 384.658 331.355, 384.658 330.179 Q 384.658 329.321, 384.024 328.817 Q 383.39 328.294, 382.307 328.294 Q 381.206 328.294, 380.516 328.686 Q 379.844 329.078, 379.321 330.067 L 378.034 329.377 Q 378.5 328.276, 379.62 327.548 Q 380.74 326.802, 382.307 326.802 Q 384.248 326.802, 385.386 327.716 Q 386.525 328.63, 386.525 330.179 Q 386.525 331.243, 385.946 332.008 Q 385.368 332.773, 384.267 333.202 " fill="#000000"/>
<path class="atom-13" d="M 365.812 253.561 Q 365.812 250.276, 367.343 248.559 Q 368.891 246.824, 371.821 246.824 Q 374.546 246.824, 376.001 248.746 L 374.77 249.754 Q 373.706 248.354, 371.821 248.354 Q 369.824 248.354, 368.761 249.698 Q 367.716 251.023, 367.716 253.561 Q 367.716 256.173, 368.798 257.517 Q 369.899 258.86, 372.026 258.86 Q 373.482 258.86, 375.18 257.983 L 375.703 259.383 Q 375.012 259.831, 373.967 260.092 Q 372.922 260.353, 371.765 260.353 Q 368.891 260.353, 367.343 258.599 Q 365.812 256.845, 365.812 253.561 " fill="#000000"/>
<path class="atom-13" d="M 377.401 258.002 L 379.267 258.002 L 379.267 259.868 L 377.401 259.868 L 377.401 258.002 M 377.401 251.583 L 379.267 251.583 L 379.267 253.449 L 377.401 253.449 L 377.401 251.583 " fill="#000000"/>
<path class="atom-13" d="M 381.002 258.692 L 383.895 258.692 L 383.895 248.821 L 380.704 249.81 L 380.275 248.709 L 384.324 246.899 L 385.649 247.123 L 385.649 258.692 L 388.243 258.692 L 388.243 260.185 L 381.002 260.185 L 381.002 258.692 " fill="#000000"/>
<path class="atom-13" d="M 397.387 255.651 L 398.973 255.651 L 398.973 257.144 L 397.387 257.144 L 397.387 260.185 L 395.633 260.185 L 395.633 257.144 L 388.803 257.144 L 388.803 255.968 L 394.588 246.973 L 397.387 246.973 L 397.387 255.651 M 390.967 255.651 L 395.633 255.651 L 395.633 248.168 L 390.967 255.651 " fill="#000000"/>
<path class="atom-14" d="M 383.521 296.878 Q 383.521 293.594, 385.051 291.877 Q 386.6 290.142, 389.53 290.142 Q 392.255 290.142, 393.71 292.064 L 392.479 293.071 Q 391.415 291.672, 389.53 291.672 Q 387.533 291.672, 386.47 293.015 Q 385.425 294.34, 385.425 296.878 Q 385.425 299.491, 386.507 300.834 Q 387.608 302.178, 389.735 302.178 Q 391.191 302.178, 392.889 301.301 L 393.412 302.701 Q 392.721 303.148, 391.676 303.41 Q 390.631 303.671, 389.474 303.671 Q 386.6 303.671, 385.051 301.917 Q 383.521 300.163, 383.521 296.878 " fill="#000000"/>
<path class="atom-14" d="M 395.11 301.32 L 396.976 301.32 L 396.976 303.186 L 395.11 303.186 L 395.11 301.32 M 395.11 294.9 L 396.976 294.9 L 396.976 296.766 L 395.11 296.766 L 395.11 294.9 " fill="#000000"/>
<path class="atom-14" d="M 398.711 302.01 L 401.604 302.01 L 401.604 292.138 L 398.413 293.127 L 397.984 292.026 L 402.033 290.216 L 403.358 290.44 L 403.358 302.01 L 405.952 302.01 L 405.952 303.503 L 398.711 303.503 L 398.711 302.01 " fill="#000000"/>
<path class="atom-14" d="M 411.606 295.236 Q 412.763 295.236, 413.715 295.74 Q 414.667 296.225, 415.208 297.158 Q 415.749 298.073, 415.749 299.323 Q 415.749 300.685, 415.077 301.674 Q 414.424 302.645, 413.342 303.148 Q 412.259 303.652, 411.028 303.652 Q 409.815 303.652, 408.695 303.204 Q 407.575 302.757, 406.81 301.898 L 407.93 300.741 Q 408.546 301.413, 409.385 301.786 Q 410.225 302.141, 411.084 302.141 Q 412.259 302.141, 413.062 301.413 Q 413.883 300.685, 413.883 299.36 Q 413.883 297.961, 413.062 297.308 Q 412.259 296.636, 410.972 296.636 Q 409.815 296.636, 408.527 297.14 L 407.501 296.654 L 408.135 290.291 L 414.928 290.291 L 414.741 291.784 L 409.665 291.784 L 409.274 295.703 Q 410.449 295.236, 411.606 295.236 " fill="#000000"/>
<path class="atom-15" d="M 140.927 343.567 Q 140.927 340.282, 142.458 338.566 Q 144.006 336.83, 146.936 336.83 Q 149.661 336.83, 151.116 338.752 L 149.885 339.76 Q 148.821 338.36, 146.936 338.36 Q 144.939 338.36, 143.876 339.704 Q 142.831 341.029, 142.831 343.567 Q 142.831 346.179, 143.913 347.523 Q 145.014 348.867, 147.141 348.867 Q 148.597 348.867, 150.295 347.989 L 150.818 349.389 Q 150.127 349.837, 149.082 350.098 Q 148.037 350.359, 146.88 350.359 Q 144.006 350.359, 142.458 348.605 Q 140.927 346.851, 140.927 343.567 " fill="#000000"/>
<path class="atom-15" d="M 152.516 348.008 L 154.382 348.008 L 154.382 349.874 L 152.516 349.874 L 152.516 348.008 M 152.516 341.589 L 154.382 341.589 L 154.382 343.455 L 152.516 343.455 L 152.516 341.589 " fill="#000000"/>
<path class="atom-15" d="M 156.117 348.699 L 159.01 348.699 L 159.01 338.827 L 155.819 339.816 L 155.39 338.715 L 159.439 336.905 L 160.764 337.129 L 160.764 348.699 L 163.358 348.699 L 163.358 350.191 L 156.117 350.191 L 156.117 348.699 " fill="#000000"/>
<path class="atom-15" d="M 169.796 341.943 Q 170.953 341.943, 171.867 342.447 Q 172.782 342.951, 173.286 343.865 Q 173.789 344.78, 173.789 345.937 Q 173.789 347.224, 173.211 348.232 Q 172.651 349.221, 171.643 349.781 Q 170.636 350.341, 169.348 350.341 Q 166.997 350.341, 165.803 348.755 Q 164.627 347.15, 164.627 343.977 Q 164.627 340.469, 166.082 338.659 Q 167.557 336.83, 170.374 336.83 Q 171.196 336.83, 171.886 337.017 Q 172.595 337.203, 173.267 337.595 L 172.539 338.846 Q 171.569 338.323, 170.393 338.323 Q 168.527 338.323, 167.575 339.536 Q 166.624 340.73, 166.512 343.212 Q 167.183 342.596, 168.023 342.279 Q 168.882 341.943, 169.796 341.943 M 169.367 348.811 Q 170.076 348.811, 170.654 348.437 Q 171.252 348.064, 171.587 347.411 Q 171.923 346.758, 171.923 345.955 Q 171.923 344.78, 171.27 344.108 Q 170.617 343.436, 169.46 343.436 Q 168.658 343.436, 167.855 343.772 Q 167.071 344.089, 166.512 344.649 Q 166.586 346.832, 167.277 347.822 Q 167.967 348.811, 169.367 348.811 " fill="#000000"/>
<path class="atom-16" d="M 167.752 263.589 Q 167.752 260.305, 169.282 258.588 Q 170.831 256.852, 173.761 256.852 Q 176.485 256.852, 177.941 258.775 L 176.709 259.782 Q 175.645 258.383, 173.761 258.383 Q 171.764 258.383, 170.7 259.726 Q 169.655 261.051, 169.655 263.589 Q 169.655 266.202, 170.738 267.545 Q 171.839 268.889, 173.966 268.889 Q 175.421 268.889, 177.12 268.012 L 177.642 269.411 Q 176.952 269.859, 175.907 270.121 Q 174.862 270.382, 173.705 270.382 Q 170.831 270.382, 169.282 268.628 Q 167.752 266.873, 167.752 263.589 " fill="#000000"/>
<path class="atom-16" d="M 179.34 268.03 L 181.206 268.03 L 181.206 269.897 L 179.34 269.897 L 179.34 268.03 M 179.34 261.611 L 181.206 261.611 L 181.206 263.477 L 179.34 263.477 L 179.34 261.611 " fill="#000000"/>
<path class="atom-16" d="M 182.942 268.721 L 185.834 268.721 L 185.834 258.849 L 182.643 259.838 L 182.214 258.737 L 186.264 256.927 L 187.588 257.151 L 187.588 268.721 L 190.182 268.721 L 190.182 270.214 L 182.942 270.214 L 182.942 268.721 " fill="#000000"/>
<path class="atom-16" d="M 197.442 258.495 L 190.518 258.495 L 190.518 257.002 L 199.289 257.002 L 199.289 258.327 L 193.952 270.214 L 192.16 270.214 L 197.442 258.495 " fill="#000000"/>
<path class="atom-17" d="M 94.7172 336.909 Q 94.7172 333.625, 96.2474 331.908 Q 97.7963 330.172, 100.726 330.172 Q 103.451 330.172, 104.906 332.094 L 103.675 333.102 Q 102.611 331.703, 100.726 331.703 Q 98.7293 331.703, 97.6657 333.046 Q 96.6206 334.371, 96.6206 336.909 Q 96.6206 339.521, 97.703 340.865 Q 98.804 342.209, 100.931 342.209 Q 102.387 342.209, 104.085 341.332 L 104.608 342.731 Q 103.917 343.179, 102.872 343.44 Q 101.827 343.702, 100.67 343.702 Q 97.7963 343.702, 96.2474 341.947 Q 94.7172 340.193, 94.7172 336.909 " fill="#000000"/>
<path class="atom-17" d="M 106.306 341.35 L 108.172 341.35 L 108.172 343.216 L 106.306 343.216 L 106.306 341.35 M 106.306 334.931 L 108.172 334.931 L 108.172 336.797 L 106.306 336.797 L 106.306 334.931 " fill="#000000"/>
<path class="atom-17" d="M 109.907 342.041 L 112.8 342.041 L 112.8 332.169 L 109.609 333.158 L 109.18 332.057 L 113.229 330.247 L 114.554 330.471 L 114.554 342.041 L 117.148 342.041 L 117.148 343.534 L 109.907 343.534 L 109.907 342.041 " fill="#000000"/>
<path class="atom-17" d="M 125.041 336.536 Q 126.254 337.058, 126.945 337.842 Q 127.635 338.607, 127.635 339.913 Q 127.635 341.033, 127.057 341.91 Q 126.478 342.769, 125.433 343.254 Q 124.407 343.72, 123.045 343.72 Q 120.843 343.72, 119.574 342.713 Q 118.305 341.686, 118.305 339.913 Q 118.305 338.831, 118.865 338.029 Q 119.424 337.208, 120.581 336.592 Q 119.723 336.107, 119.256 335.397 Q 118.79 334.67, 118.79 333.55 Q 118.79 332.001, 119.91 331.087 Q 121.048 330.172, 122.97 330.172 Q 124.892 330.172, 126.012 331.087 Q 127.15 332.001, 127.15 333.55 Q 127.15 334.52, 126.609 335.248 Q 126.086 335.957, 125.041 336.536 M 122.97 331.572 Q 121.869 331.572, 121.253 332.094 Q 120.656 332.617, 120.656 333.55 Q 120.656 334.24, 121.067 334.707 Q 121.477 335.155, 122.056 335.416 Q 122.653 335.677, 123.791 336.069 Q 124.594 335.509, 124.929 334.912 Q 125.284 334.315, 125.284 333.55 Q 125.284 332.617, 124.668 332.094 Q 124.071 331.572, 122.97 331.572 M 123.045 342.321 Q 124.276 342.321, 125.023 341.668 Q 125.769 340.996, 125.769 339.895 Q 125.769 339.186, 125.377 338.738 Q 124.985 338.29, 124.388 338.029 Q 123.81 337.767, 122.765 337.431 L 121.925 337.152 Q 120.992 337.711, 120.581 338.383 Q 120.171 339.036, 120.171 339.895 Q 120.171 340.996, 120.955 341.668 Q 121.738 342.321, 123.045 342.321 " fill="#000000"/>
<path class="atom-18" d="M 106.345 256.931 Q 106.345 253.647, 107.875 251.93 Q 109.424 250.195, 112.353 250.195 Q 115.078 250.195, 116.533 252.117 L 115.302 253.124 Q 114.238 251.725, 112.353 251.725 Q 110.357 251.725, 109.293 253.068 Q 108.248 254.393, 108.248 256.931 Q 108.248 259.544, 109.33 260.887 Q 110.431 262.231, 112.559 262.231 Q 114.014 262.231, 115.712 261.354 L 116.235 262.754 Q 115.544 263.201, 114.499 263.463 Q 113.454 263.724, 112.297 263.724 Q 109.424 263.724, 107.875 261.97 Q 106.345 260.216, 106.345 256.931 " fill="#000000"/>
<path class="atom-18" d="M 117.933 261.373 L 119.799 261.373 L 119.799 263.239 L 117.933 263.239 L 117.933 261.373 M 117.933 254.953 L 119.799 254.953 L 119.799 256.819 L 117.933 256.819 L 117.933 254.953 " fill="#000000"/>
<path class="atom-18" d="M 121.535 262.063 L 124.427 262.063 L 124.427 252.191 L 121.236 253.18 L 120.807 252.079 L 124.856 250.269 L 126.181 250.493 L 126.181 262.063 L 128.775 262.063 L 128.775 263.556 L 121.535 263.556 L 121.535 262.063 " fill="#000000"/>
<path class="atom-18" d="M 134.243 250.195 Q 136.594 250.195, 137.77 251.8 Q 138.964 253.386, 138.964 256.558 Q 138.964 260.066, 137.49 261.895 Q 136.034 263.705, 133.216 263.705 Q 132.395 263.705, 131.686 263.519 Q 130.996 263.332, 130.324 262.94 L 131.052 261.69 Q 132.022 262.212, 133.198 262.212 Q 135.064 262.212, 136.016 261.018 Q 136.967 259.805, 137.079 257.323 Q 136.408 257.939, 135.549 258.275 Q 134.709 258.592, 133.795 258.592 Q 132.638 258.592, 131.724 258.088 Q 130.809 257.584, 130.305 256.67 Q 129.802 255.756, 129.802 254.599 Q 129.802 253.311, 130.361 252.322 Q 130.94 251.314, 131.948 250.754 Q 132.955 250.195, 134.243 250.195 M 131.668 254.58 Q 131.668 255.756, 132.321 256.427 Q 132.974 257.099, 134.131 257.099 Q 134.933 257.099, 135.717 256.782 Q 136.519 256.446, 137.079 255.886 Q 137.005 253.703, 136.314 252.714 Q 135.624 251.725, 134.224 251.725 Q 133.515 251.725, 132.918 252.098 Q 132.339 252.471, 132.004 253.124 Q 131.668 253.778, 131.668 254.58 " fill="#000000"/>
<path class="atom-19" d="M 76.747 293.591 Q 76.747 290.307, 78.2772 288.59 Q 79.8261 286.855, 82.7559 286.855 Q 85.4804 286.855, 86.936 288.777 L 85.7043 289.784 Q 84.6407 288.385, 82.7559 288.385 Q 80.7592 288.385, 79.6955 289.728 Q 78.6505 291.053, 78.6505 293.591 Q 78.6505 296.204, 79.7328 297.547 Q 80.8338 298.891, 82.9612 298.891 Q 84.4167 298.891, 86.1149 298.014 L 86.6374 299.413 Q 85.9469 299.861, 84.9019 300.123 Q 83.8569 300.384, 82.6999 300.384 Q 79.8261 300.384, 78.2772 298.63 Q 76.747 296.876, 76.747 293.591 " fill="#000000"/>
<path class="atom-19" d="M 88.3355 298.033 L 90.2017 298.033 L 90.2017 299.899 L 88.3355 299.899 L 88.3355 298.033 M 88.3355 291.613 L 90.2017 291.613 L 90.2017 293.479 L 88.3355 293.479 L 88.3355 291.613 " fill="#000000"/>
<path class="atom-19" d="M 91.172 289.504 Q 91.6572 288.254, 92.8142 287.564 Q 93.9712 286.855, 95.576 286.855 Q 97.5728 286.855, 98.6924 287.937 Q 99.8121 289.019, 99.8121 290.941 Q 99.8121 292.901, 98.3565 294.73 Q 96.9196 296.558, 93.9339 298.723 L 100.036 298.723 L 100.036 300.216 L 91.1347 300.216 L 91.1347 298.966 Q 93.598 297.211, 95.0535 295.905 Q 96.5278 294.599, 97.2369 293.423 Q 97.946 292.248, 97.946 291.035 Q 97.946 289.766, 97.3115 289.057 Q 96.677 288.347, 95.576 288.347 Q 94.5124 288.347, 93.8032 288.777 Q 93.0941 289.206, 92.5903 290.158 L 91.172 289.504 " fill="#000000"/>
<path class="atom-19" d="M 106.008 300.365 Q 103.582 300.365, 102.369 298.574 Q 101.174 296.782, 101.174 293.591 Q 101.174 290.4, 102.369 288.627 Q 103.563 286.855, 106.008 286.855 Q 108.452 286.855, 109.646 288.627 Q 110.841 290.4, 110.841 293.591 Q 110.841 296.782, 109.628 298.574 Q 108.434 300.365, 106.008 300.365 M 106.008 298.872 Q 107.444 298.872, 108.21 297.547 Q 108.975 296.204, 108.975 293.591 Q 108.975 290.997, 108.21 289.672 Q 107.444 288.347, 106.008 288.347 Q 104.589 288.347, 103.806 289.672 Q 103.04 290.997, 103.04 293.591 Q 103.04 296.204, 103.806 297.547 Q 104.589 298.872, 106.008 298.872 " fill="#000000"/>
<path class="atom-20" d="M 131.655 144.138 L 133.447 144.138 L 133.447 149.755 L 140.202 149.755 L 140.202 144.138 L 141.994 144.138 L 141.994 157.35 L 140.202 157.35 L 140.202 151.248 L 133.447 151.248 L 133.447 157.35 L 131.655 157.35 L 131.655 144.138 " fill="#000000"/>
<path class="atom-20" d="M 143.393 155.167 L 145.259 155.167 L 145.259 157.033 L 143.393 157.033 L 143.393 155.167 M 143.393 148.747 L 145.259 148.747 L 145.259 150.613 L 143.393 150.613 L 143.393 148.747 " fill="#000000"/>
<path class="atom-20" d="M 146.23 146.639 Q 146.715 145.388, 147.872 144.698 Q 149.029 143.989, 150.634 143.989 Q 152.63 143.989, 153.75 145.071 Q 154.87 146.153, 154.87 148.076 Q 154.87 150.035, 153.414 151.864 Q 151.977 153.693, 148.991 155.857 L 155.094 155.857 L 155.094 157.35 L 146.192 157.35 L 146.192 156.1 Q 148.656 154.346, 150.111 153.039 Q 151.585 151.733, 152.294 150.557 Q 153.004 149.382, 153.004 148.169 Q 153.004 146.9, 152.369 146.191 Q 151.735 145.482, 150.634 145.482 Q 149.57 145.482, 148.861 145.911 Q 148.152 146.34, 147.648 147.292 L 146.23 146.639 " fill="#000000"/>
<path class="atom-20" d="M 156.829 155.857 L 159.722 155.857 L 159.722 145.985 L 156.531 146.975 L 156.101 145.874 L 160.151 144.063 L 161.476 144.287 L 161.476 155.857 L 164.07 155.857 L 164.07 157.35 L 156.829 157.35 L 156.829 155.857 " fill="#000000"/>
<path class="atom-21" d="M 138.011 238.563 Q 138.011 235.39, 139.579 233.617 Q 141.146 231.845, 144.076 231.845 Q 147.006 231.845, 148.573 233.617 Q 150.141 235.39, 150.141 238.563 Q 150.141 241.772, 148.555 243.601 Q 146.968 245.411, 144.076 245.411 Q 141.165 245.411, 139.579 243.601 Q 138.011 241.791, 138.011 238.563 M 144.076 243.918 Q 146.091 243.918, 147.174 242.575 Q 148.275 241.212, 148.275 238.563 Q 148.275 235.969, 147.174 234.662 Q 146.091 233.337, 144.076 233.337 Q 142.06 233.337, 140.959 234.644 Q 139.877 235.95, 139.877 238.563 Q 139.877 241.231, 140.959 242.575 Q 142.06 243.918, 144.076 243.918 " fill="#FF0000"/>
<path class="atom-21" d="M 151.54 243.023 L 153.406 243.023 L 153.406 244.889 L 151.54 244.889 L 151.54 243.023 M 151.54 236.603 L 153.406 236.603 L 153.406 238.469 L 151.54 238.469 L 151.54 236.603 " fill="#FF0000"/>
<path class="atom-21" d="M 154.377 234.494 Q 154.862 233.244, 156.019 232.554 Q 157.176 231.845, 158.781 231.845 Q 160.778 231.845, 161.897 232.927 Q 163.017 234.009, 163.017 235.931 Q 163.017 237.891, 161.561 239.72 Q 160.124 241.548, 157.139 243.713 L 163.241 243.713 L 163.241 245.206 L 154.339 245.206 L 154.339 243.956 Q 156.803 242.201, 158.258 240.895 Q 159.732 239.589, 160.442 238.413 Q 161.151 237.238, 161.151 236.025 Q 161.151 234.756, 160.516 234.047 Q 159.882 233.337, 158.781 233.337 Q 157.717 233.337, 157.008 233.767 Q 156.299 234.196, 155.795 235.148 L 154.377 234.494 " fill="#FF0000"/>
<path class="atom-21" d="M 164.211 234.494 Q 164.696 233.244, 165.853 232.554 Q 167.01 231.845, 168.615 231.845 Q 170.612 231.845, 171.732 232.927 Q 172.851 234.009, 172.851 235.931 Q 172.851 237.891, 171.396 239.72 Q 169.959 241.548, 166.973 243.713 L 173.075 243.713 L 173.075 245.206 L 164.174 245.206 L 164.174 243.956 Q 166.637 242.201, 168.093 240.895 Q 169.567 239.589, 170.276 238.413 Q 170.985 237.238, 170.985 236.025 Q 170.985 234.756, 170.351 234.047 Q 169.716 233.337, 168.615 233.337 Q 167.551 233.337, 166.842 233.767 Q 166.133 234.196, 165.629 235.148 L 164.211 234.494 " fill="#FF0000"/>
<path class="atom-22" d="M 271.177 356.953 L 272.968 356.953 L 272.968 362.57 L 279.723 362.57 L 279.723 356.953 L 281.515 356.953 L 281.515 370.165 L 279.723 370.165 L 279.723 364.063 L 272.968 364.063 L 272.968 370.165 L 271.177 370.165 L 271.177 356.953 " fill="#000000"/>
<path class="atom-22" d="M 282.914 367.982 L 284.78 367.982 L 284.78 369.848 L 282.914 369.848 L 282.914 367.982 M 282.914 361.562 L 284.78 361.562 L 284.78 363.428 L 282.914 363.428 L 282.914 361.562 " fill="#000000"/>
<path class="atom-22" d="M 285.751 359.454 Q 286.236 358.203, 287.393 357.513 Q 288.55 356.804, 290.155 356.804 Q 292.152 356.804, 293.271 357.886 Q 294.391 358.968, 294.391 360.89 Q 294.391 362.85, 292.935 364.679 Q 291.498 366.507, 288.513 368.672 L 294.615 368.672 L 294.615 370.165 L 285.713 370.165 L 285.713 368.915 Q 288.177 367.161, 289.632 365.854 Q 291.107 364.548, 291.816 363.372 Q 292.525 362.197, 292.525 360.984 Q 292.525 359.715, 291.89 359.006 Q 291.256 358.297, 290.155 358.297 Q 289.091 358.297, 288.382 358.726 Q 287.673 359.155, 287.169 360.107 L 285.751 359.454 " fill="#000000"/>
<path class="atom-22" d="M 301.743 363.204 Q 303.031 363.578, 303.647 364.417 Q 304.281 365.238, 304.281 366.545 Q 304.281 367.664, 303.721 368.541 Q 303.162 369.4, 302.135 369.885 Q 301.109 370.352, 299.765 370.352 Q 298.347 370.352, 297.283 369.866 Q 296.238 369.363, 295.399 368.355 L 296.462 367.273 Q 297.283 368.168, 297.974 368.523 Q 298.664 368.859, 299.765 368.859 Q 300.96 368.859, 301.687 368.224 Q 302.415 367.571, 302.415 366.526 Q 302.415 365.182, 301.65 364.585 Q 300.904 363.97, 299.28 363.97 L 298.328 363.97 L 298.328 362.626 L 299.168 362.626 Q 300.605 362.607, 301.37 361.991 Q 302.135 361.357, 302.135 360.181 Q 302.135 359.323, 301.501 358.819 Q 300.866 358.297, 299.784 358.297 Q 298.683 358.297, 297.992 358.688 Q 297.321 359.08, 296.798 360.069 L 295.511 359.379 Q 295.977 358.278, 297.097 357.55 Q 298.216 356.804, 299.784 356.804 Q 301.725 356.804, 302.863 357.718 Q 304.001 358.632, 304.001 360.181 Q 304.001 361.245, 303.423 362.01 Q 302.844 362.775, 301.743 363.204 " fill="#000000"/>
<path class="atom-23" d="M 323.144 195.209 L 324.935 195.209 L 324.935 200.826 L 331.69 200.826 L 331.69 195.209 L 333.482 195.209 L 333.482 208.421 L 331.69 208.421 L 331.69 202.319 L 324.935 202.319 L 324.935 208.421 L 323.144 208.421 L 323.144 195.209 " fill="#000000"/>
<path class="atom-23" d="M 334.881 206.238 L 336.748 206.238 L 336.748 208.104 L 334.881 208.104 L 334.881 206.238 M 334.881 199.819 L 336.748 199.819 L 336.748 201.685 L 334.881 201.685 L 334.881 199.819 " fill="#000000"/>
<path class="atom-23" d="M 337.718 197.71 Q 338.203 196.46, 339.36 195.769 Q 340.517 195.06, 342.122 195.06 Q 344.119 195.06, 345.238 196.142 Q 346.358 197.225, 346.358 199.147 Q 346.358 201.106, 344.902 202.935 Q 343.466 204.764, 340.48 206.928 L 346.582 206.928 L 346.582 208.421 L 337.681 208.421 L 337.681 207.171 Q 340.144 205.417, 341.599 204.111 Q 343.074 202.804, 343.783 201.629 Q 344.492 200.453, 344.492 199.24 Q 344.492 197.971, 343.857 197.262 Q 343.223 196.553, 342.122 196.553 Q 341.058 196.553, 340.349 196.982 Q 339.64 197.411, 339.136 198.363 L 337.718 197.71 " fill="#000000"/>
<path class="atom-23" d="M 355.726 203.887 L 357.312 203.887 L 357.312 205.38 L 355.726 205.38 L 355.726 208.421 L 353.972 208.421 L 353.972 205.38 L 347.142 205.38 L 347.142 204.204 L 352.927 195.209 L 355.726 195.209 L 355.726 203.887 M 349.306 203.887 L 353.972 203.887 L 353.972 196.404 L 349.306 203.887 " fill="#000000"/>
<path class="atom-24" d="M 387.021 370.269 L 388.812 370.269 L 388.812 375.886 L 395.568 375.886 L 395.568 370.269 L 397.359 370.269 L 397.359 383.481 L 395.568 383.481 L 395.568 377.378 L 388.812 377.378 L 388.812 383.481 L 387.021 383.481 L 387.021 370.269 " fill="#000000"/>
<path class="atom-24" d="M 398.759 381.297 L 400.625 381.297 L 400.625 383.163 L 398.759 383.163 L 398.759 381.297 M 398.759 374.878 L 400.625 374.878 L 400.625 376.744 L 398.759 376.744 L 398.759 374.878 " fill="#000000"/>
<path class="atom-24" d="M 401.595 372.769 Q 402.08 371.519, 403.237 370.828 Q 404.394 370.119, 405.999 370.119 Q 407.996 370.119, 409.116 371.202 Q 410.235 372.284, 410.235 374.206 Q 410.235 376.166, 408.78 377.994 Q 407.343 379.823, 404.357 381.988 L 410.459 381.988 L 410.459 383.481 L 401.558 383.481 L 401.558 382.23 Q 404.021 380.476, 405.477 379.17 Q 406.951 377.864, 407.66 376.688 Q 408.369 375.512, 408.369 374.299 Q 408.369 373.03, 407.735 372.321 Q 407.1 371.612, 405.999 371.612 Q 404.936 371.612, 404.227 372.041 Q 403.517 372.471, 403.014 373.422 L 401.595 372.769 " fill="#000000"/>
<path class="atom-24" d="M 416.114 375.214 Q 417.271 375.214, 418.222 375.718 Q 419.174 376.203, 419.715 377.136 Q 420.256 378.05, 420.256 379.301 Q 420.256 380.663, 419.585 381.652 Q 418.931 382.622, 417.849 383.126 Q 416.767 383.63, 415.535 383.63 Q 414.322 383.63, 413.202 383.182 Q 412.083 382.734, 411.318 381.876 L 412.437 380.719 Q 413.053 381.391, 413.893 381.764 Q 414.733 382.118, 415.591 382.118 Q 416.767 382.118, 417.569 381.391 Q 418.39 380.663, 418.39 379.338 Q 418.39 377.938, 417.569 377.285 Q 416.767 376.613, 415.479 376.613 Q 414.322 376.613, 413.035 377.117 L 412.008 376.632 L 412.643 370.269 L 419.435 370.269 L 419.249 371.762 L 414.173 371.762 L 413.781 375.68 Q 414.957 375.214, 416.114 375.214 " fill="#000000"/>
<path class="atom-25" d="M 410.084 210.313 L 411.876 210.313 L 411.876 215.93 L 418.631 215.93 L 418.631 210.313 L 420.423 210.313 L 420.423 223.525 L 418.631 223.525 L 418.631 217.423 L 411.876 217.423 L 411.876 223.525 L 410.084 223.525 L 410.084 210.313 " fill="#000000"/>
<path class="atom-25" d="M 421.822 221.342 L 423.688 221.342 L 423.688 223.208 L 421.822 223.208 L 421.822 221.342 M 421.822 214.923 L 423.688 214.923 L 423.688 216.789 L 421.822 216.789 L 421.822 214.923 " fill="#000000"/>
<path class="atom-25" d="M 424.659 212.814 Q 425.144 211.564, 426.301 210.873 Q 427.458 210.164, 429.063 210.164 Q 431.059 210.164, 432.179 211.246 Q 433.299 212.329, 433.299 214.251 Q 433.299 216.21, 431.843 218.039 Q 430.406 219.868, 427.421 222.032 L 433.523 222.032 L 433.523 223.525 L 424.621 223.525 L 424.621 222.275 Q 427.085 220.521, 428.54 219.215 Q 430.014 217.908, 430.724 216.733 Q 431.433 215.557, 431.433 214.344 Q 431.433 213.075, 430.798 212.366 Q 430.164 211.657, 429.063 211.657 Q 427.999 211.657, 427.29 212.086 Q 426.581 212.515, 426.077 213.467 L 424.659 212.814 " fill="#000000"/>
<path class="atom-25" d="M 439.961 215.277 Q 441.118 215.277, 442.032 215.781 Q 442.947 216.285, 443.45 217.199 Q 443.954 218.114, 443.954 219.271 Q 443.954 220.558, 443.376 221.566 Q 442.816 222.555, 441.808 223.115 Q 440.801 223.675, 439.513 223.675 Q 437.162 223.675, 435.967 222.088 Q 434.792 220.484, 434.792 217.311 Q 434.792 213.803, 436.247 211.993 Q 437.721 210.164, 440.539 210.164 Q 441.36 210.164, 442.051 210.351 Q 442.76 210.537, 443.432 210.929 L 442.704 212.179 Q 441.734 211.657, 440.558 211.657 Q 438.692 211.657, 437.74 212.87 Q 436.788 214.064, 436.676 216.546 Q 437.348 215.93, 438.188 215.613 Q 439.046 215.277, 439.961 215.277 M 439.532 222.144 Q 440.241 222.144, 440.819 221.771 Q 441.416 221.398, 441.752 220.745 Q 442.088 220.092, 442.088 219.289 Q 442.088 218.114, 441.435 217.442 Q 440.782 216.77, 439.625 216.77 Q 438.822 216.77, 438.02 217.106 Q 437.236 217.423, 436.676 217.983 Q 436.751 220.166, 437.442 221.155 Q 438.132 222.144, 439.532 222.144 " fill="#000000"/>
<path class="atom-26" d="M 444.728 296.949 L 446.519 296.949 L 446.519 302.566 L 453.275 302.566 L 453.275 296.949 L 455.066 296.949 L 455.066 310.161 L 453.275 310.161 L 453.275 304.059 L 446.519 304.059 L 446.519 310.161 L 444.728 310.161 L 444.728 296.949 " fill="#000000"/>
<path class="atom-26" d="M 456.466 307.978 L 458.332 307.978 L 458.332 309.844 L 456.466 309.844 L 456.466 307.978 M 456.466 301.558 L 458.332 301.558 L 458.332 303.424 L 456.466 303.424 L 456.466 301.558 " fill="#000000"/>
<path class="atom-26" d="M 459.302 299.449 Q 459.787 298.199, 460.944 297.509 Q 462.101 296.8, 463.706 296.8 Q 465.703 296.8, 466.823 297.882 Q 467.942 298.964, 467.942 300.886 Q 467.942 302.846, 466.487 304.674 Q 465.05 306.503, 462.064 308.668 L 468.166 308.668 L 468.166 310.161 L 459.265 310.161 L 459.265 308.911 Q 461.728 307.156, 463.184 305.85 Q 464.658 304.544, 465.367 303.368 Q 466.076 302.193, 466.076 300.98 Q 466.076 299.711, 465.442 299.002 Q 464.807 298.292, 463.706 298.292 Q 462.642 298.292, 461.933 298.722 Q 461.224 299.151, 460.72 300.103 L 459.302 299.449 " fill="#000000"/>
<path class="atom-26" d="M 475.425 298.442 L 468.502 298.442 L 468.502 296.949 L 477.273 296.949 L 477.273 298.274 L 471.936 310.161 L 470.144 310.161 L 475.425 298.442 " fill="#000000"/>
<path class="atom-27" d="M 173.467 380.297 L 175.259 380.297 L 175.259 385.914 L 182.014 385.914 L 182.014 380.297 L 183.805 380.297 L 183.805 393.509 L 182.014 393.509 L 182.014 387.407 L 175.259 387.407 L 175.259 393.509 L 173.467 393.509 L 173.467 380.297 " fill="#000000"/>
<path class="atom-27" d="M 185.205 391.326 L 187.071 391.326 L 187.071 393.192 L 185.205 393.192 L 185.205 391.326 M 185.205 384.906 L 187.071 384.906 L 187.071 386.773 L 185.205 386.773 L 185.205 384.906 " fill="#000000"/>
<path class="atom-27" d="M 188.041 382.798 Q 188.527 381.547, 189.684 380.857 Q 190.841 380.148, 192.445 380.148 Q 194.442 380.148, 195.562 381.23 Q 196.681 382.313, 196.681 384.235 Q 196.681 386.194, 195.226 388.023 Q 193.789 389.852, 190.803 392.016 L 196.905 392.016 L 196.905 393.509 L 188.004 393.509 L 188.004 392.259 Q 190.467 390.505, 191.923 389.199 Q 193.397 387.892, 194.106 386.717 Q 194.815 385.541, 194.815 384.328 Q 194.815 383.059, 194.181 382.35 Q 193.546 381.641, 192.445 381.641 Q 191.382 381.641, 190.673 382.07 Q 189.963 382.499, 189.46 383.451 L 188.041 382.798 " fill="#000000"/>
<path class="atom-27" d="M 204.799 386.511 Q 206.012 387.034, 206.702 387.818 Q 207.393 388.583, 207.393 389.889 Q 207.393 391.009, 206.814 391.886 Q 206.236 392.744, 205.191 393.229 Q 204.165 393.696, 202.802 393.696 Q 200.6 393.696, 199.331 392.688 Q 198.062 391.662, 198.062 389.889 Q 198.062 388.807, 198.622 388.004 Q 199.182 387.183, 200.339 386.567 Q 199.481 386.082, 199.014 385.373 Q 198.548 384.645, 198.548 383.526 Q 198.548 381.977, 199.667 381.062 Q 200.806 380.148, 202.728 380.148 Q 204.65 380.148, 205.769 381.062 Q 206.908 381.977, 206.908 383.526 Q 206.908 384.496, 206.367 385.224 Q 205.844 385.933, 204.799 386.511 M 202.728 381.547 Q 201.627 381.547, 201.011 382.07 Q 200.414 382.592, 200.414 383.526 Q 200.414 384.216, 200.824 384.683 Q 201.235 385.13, 201.813 385.392 Q 202.41 385.653, 203.549 386.045 Q 204.351 385.485, 204.687 384.888 Q 205.042 384.291, 205.042 383.526 Q 205.042 382.592, 204.426 382.07 Q 203.829 381.547, 202.728 381.547 M 202.802 392.296 Q 204.034 392.296, 204.78 391.643 Q 205.527 390.971, 205.527 389.87 Q 205.527 389.161, 205.135 388.713 Q 204.743 388.265, 204.146 388.004 Q 203.567 387.743, 202.522 387.407 L 201.683 387.127 Q 200.75 387.687, 200.339 388.359 Q 199.928 389.012, 199.928 389.87 Q 199.928 390.971, 200.712 391.643 Q 201.496 392.296, 202.802 392.296 " fill="#000000"/>
<path class="atom-28" d="M 177.841 234.388 L 179.633 234.388 L 179.633 240.005 L 186.388 240.005 L 186.388 234.388 L 188.179 234.388 L 188.179 247.6 L 186.388 247.6 L 186.388 241.498 L 179.633 241.498 L 179.633 247.6 L 177.841 247.6 L 177.841 234.388 " fill="#000000"/>
<path class="atom-28" d="M 189.579 245.416 L 191.445 245.416 L 191.445 247.283 L 189.579 247.283 L 189.579 245.416 M 189.579 238.997 L 191.445 238.997 L 191.445 240.863 L 189.579 240.863 L 189.579 238.997 " fill="#000000"/>
<path class="atom-28" d="M 192.415 236.888 Q 192.901 235.638, 194.058 234.948 Q 195.214 234.238, 196.819 234.238 Q 198.816 234.238, 199.936 235.321 Q 201.055 236.403, 201.055 238.325 Q 201.055 240.285, 199.6 242.113 Q 198.163 243.942, 195.177 246.107 L 201.279 246.107 L 201.279 247.6 L 192.378 247.6 L 192.378 246.35 Q 194.841 244.595, 196.297 243.289 Q 197.771 241.983, 198.48 240.807 Q 199.189 239.632, 199.189 238.419 Q 199.189 237.15, 198.555 236.44 Q 197.92 235.731, 196.819 235.731 Q 195.756 235.731, 195.047 236.161 Q 194.337 236.59, 193.834 237.541 L 192.415 236.888 " fill="#000000"/>
<path class="atom-28" d="M 206.747 234.238 Q 209.098 234.238, 210.274 235.843 Q 211.468 237.43, 211.468 240.602 Q 211.468 244.11, 209.994 245.939 Q 208.538 247.749, 205.721 247.749 Q 204.9 247.749, 204.19 247.562 Q 203.5 247.376, 202.828 246.984 L 203.556 245.734 Q 204.526 246.256, 205.702 246.256 Q 207.568 246.256, 208.52 245.062 Q 209.472 243.849, 209.584 241.367 Q 208.912 241.983, 208.053 242.319 Q 207.214 242.636, 206.299 242.636 Q 205.142 242.636, 204.228 242.132 Q 203.313 241.628, 202.81 240.714 Q 202.306 239.799, 202.306 238.642 Q 202.306 237.355, 202.866 236.366 Q 203.444 235.358, 204.452 234.798 Q 205.459 234.238, 206.747 234.238 M 204.172 238.624 Q 204.172 239.799, 204.825 240.471 Q 205.478 241.143, 206.635 241.143 Q 207.437 241.143, 208.221 240.826 Q 209.024 240.49, 209.584 239.93 Q 209.509 237.747, 208.818 236.758 Q 208.128 235.769, 206.728 235.769 Q 206.019 235.769, 205.422 236.142 Q 204.844 236.515, 204.508 237.168 Q 204.172 237.821, 204.172 238.624 " fill="#000000"/>
<path class="atom-29" d="M 57.0441 366.982 L 58.8356 366.982 L 58.8356 372.598 L 65.5909 372.598 L 65.5909 366.982 L 67.3823 366.982 L 67.3823 380.194 L 65.5909 380.194 L 65.5909 374.091 L 58.8356 374.091 L 58.8356 380.194 L 57.0441 380.194 L 57.0441 366.982 " fill="#000000"/>
<path class="atom-29" d="M 68.7819 378.01 L 70.648 378.01 L 70.648 379.876 L 68.7819 379.876 L 68.7819 378.01 M 68.7819 371.591 L 70.648 371.591 L 70.648 373.457 L 68.7819 373.457 L 68.7819 371.591 " fill="#000000"/>
<path class="atom-29" d="M 77.7765 373.233 Q 79.0642 373.606, 79.68 374.446 Q 80.3144 375.267, 80.3144 376.573 Q 80.3144 377.693, 79.7546 378.57 Q 79.1948 379.428, 78.1684 379.914 Q 77.1421 380.38, 75.7985 380.38 Q 74.3802 380.38, 73.3165 379.895 Q 72.2715 379.391, 71.4318 378.383 L 72.4955 377.301 Q 73.3165 378.197, 74.007 378.551 Q 74.6975 378.887, 75.7985 378.887 Q 76.9928 378.887, 77.7206 378.253 Q 78.4483 377.6, 78.4483 376.555 Q 78.4483 375.211, 77.6832 374.614 Q 76.9368 373.998, 75.3133 373.998 L 74.3616 373.998 L 74.3616 372.654 L 75.2013 372.654 Q 76.6382 372.636, 77.4033 372.02 Q 78.1684 371.386, 78.1684 370.21 Q 78.1684 369.351, 77.5339 368.848 Q 76.8995 368.325, 75.8171 368.325 Q 74.7161 368.325, 74.0257 368.717 Q 73.3539 369.109, 72.8314 370.098 L 71.5437 369.407 Q 72.0103 368.306, 73.1299 367.579 Q 74.2496 366.832, 75.8171 366.832 Q 77.7579 366.832, 78.8962 367.747 Q 80.0345 368.661, 80.0345 370.21 Q 80.0345 371.274, 79.456 372.039 Q 78.8775 372.804, 77.7765 373.233 " fill="#000000"/>
<path class="atom-29" d="M 86.286 380.343 Q 83.86 380.343, 82.6471 378.551 Q 81.4528 376.76, 81.4528 373.569 Q 81.4528 370.378, 82.6471 368.605 Q 83.8414 366.832, 86.286 366.832 Q 88.7306 366.832, 89.9249 368.605 Q 91.1192 370.378, 91.1192 373.569 Q 91.1192 376.76, 89.9062 378.551 Q 88.7119 380.343, 86.286 380.343 M 86.286 378.85 Q 87.7229 378.85, 88.488 377.525 Q 89.2531 376.181, 89.2531 373.569 Q 89.2531 370.975, 88.488 369.65 Q 87.7229 368.325, 86.286 368.325 Q 84.8677 368.325, 84.084 369.65 Q 83.3189 370.975, 83.3189 373.569 Q 83.3189 376.181, 84.084 377.525 Q 84.8677 378.85, 86.286 378.85 " fill="#000000"/>
<path class="atom-30" d="M 81.0872 207.026 L 82.8787 207.026 L 82.8787 212.643 L 89.634 212.643 L 89.634 207.026 L 91.4255 207.026 L 91.4255 220.238 L 89.634 220.238 L 89.634 214.136 L 82.8787 214.136 L 82.8787 220.238 L 81.0872 220.238 L 81.0872 207.026 " fill="#000000"/>
<path class="atom-30" d="M 92.8251 218.055 L 94.6912 218.055 L 94.6912 219.921 L 92.8251 219.921 L 92.8251 218.055 M 92.8251 211.635 L 94.6912 211.635 L 94.6912 213.502 L 92.8251 213.502 L 92.8251 211.635 " fill="#000000"/>
<path class="atom-30" d="M 101.82 213.278 Q 103.107 213.651, 103.723 214.491 Q 104.358 215.312, 104.358 216.618 Q 104.358 217.738, 103.798 218.615 Q 103.238 219.473, 102.212 219.958 Q 101.185 220.425, 99.8416 220.425 Q 98.4234 220.425, 97.3597 219.94 Q 96.3147 219.436, 95.4749 218.428 L 96.5386 217.346 Q 97.3597 218.241, 98.0501 218.596 Q 98.7406 218.932, 99.8416 218.932 Q 101.036 218.932, 101.764 218.297 Q 102.491 217.644, 102.491 216.599 Q 102.491 215.256, 101.726 214.659 Q 100.98 214.043, 99.3564 214.043 L 98.4047 214.043 L 98.4047 212.699 L 99.2445 212.699 Q 100.681 212.68, 101.446 212.065 Q 102.212 211.43, 102.212 210.255 Q 102.212 209.396, 101.577 208.892 Q 100.943 208.37, 99.8603 208.37 Q 98.7593 208.37, 98.0688 208.762 Q 97.397 209.154, 96.8745 210.143 L 95.5869 209.452 Q 96.0534 208.351, 97.1731 207.623 Q 98.2927 206.877, 99.8603 206.877 Q 101.801 206.877, 102.939 207.791 Q 104.078 208.706, 104.078 210.255 Q 104.078 211.318, 103.499 212.083 Q 102.921 212.848, 101.82 213.278 " fill="#000000"/>
<path class="atom-30" d="M 106.093 218.745 L 108.986 218.745 L 108.986 208.874 L 105.794 209.863 L 105.365 208.762 L 109.415 206.952 L 110.74 207.175 L 110.74 218.745 L 113.334 218.745 L 113.334 220.238 L 106.093 220.238 L 106.093 218.745 " fill="#000000"/>
<path class="atom-31" d="M 313.396 178.785 L 315.187 178.785 L 315.187 184.402 L 321.943 184.402 L 321.943 178.785 L 323.734 178.785 L 323.734 191.997 L 321.943 191.997 L 321.943 185.895 L 315.187 185.895 L 315.187 191.997 L 313.396 191.997 L 313.396 178.785 " fill="#000000"/>
<path class="atom-31" d="M 325.134 189.814 L 327 189.814 L 327 191.68 L 325.134 191.68 L 325.134 189.814 M 325.134 183.395 L 327 183.395 L 327 185.261 L 325.134 185.261 L 325.134 183.395 " fill="#000000"/>
<path class="atom-31" d="M 334.128 185.037 Q 335.416 185.41, 336.032 186.25 Q 336.666 187.071, 336.666 188.377 Q 336.666 189.497, 336.106 190.374 Q 335.546 191.232, 334.52 191.717 Q 333.494 192.184, 332.15 192.184 Q 330.732 192.184, 329.668 191.699 Q 328.623 191.195, 327.783 190.187 L 328.847 189.105 Q 329.668 190.001, 330.359 190.355 Q 331.049 190.691, 332.15 190.691 Q 333.344 190.691, 334.072 190.057 Q 334.8 189.403, 334.8 188.358 Q 334.8 187.015, 334.035 186.418 Q 333.288 185.802, 331.665 185.802 L 330.713 185.802 L 330.713 184.458 L 331.553 184.458 Q 332.99 184.44, 333.755 183.824 Q 334.52 183.189, 334.52 182.014 Q 334.52 181.155, 333.886 180.651 Q 333.251 180.129, 332.169 180.129 Q 331.068 180.129, 330.377 180.521 Q 329.706 180.913, 329.183 181.902 L 327.895 181.211 Q 328.362 180.11, 329.482 179.383 Q 330.601 178.636, 332.169 178.636 Q 334.11 178.636, 335.248 179.55 Q 336.386 180.465, 336.386 182.014 Q 336.386 183.077, 335.808 183.843 Q 335.229 184.608, 334.128 185.037 " fill="#000000"/>
<path class="atom-31" d="M 337.637 181.286 Q 338.122 180.036, 339.279 179.345 Q 340.436 178.636, 342.041 178.636 Q 344.037 178.636, 345.157 179.718 Q 346.277 180.801, 346.277 182.723 Q 346.277 184.682, 344.821 186.511 Q 343.384 188.34, 340.398 190.504 L 346.501 190.504 L 346.501 191.997 L 337.599 191.997 L 337.599 190.747 Q 340.062 188.993, 341.518 187.687 Q 342.992 186.38, 343.701 185.205 Q 344.41 184.029, 344.41 182.816 Q 344.41 181.547, 343.776 180.838 Q 343.142 180.129, 342.041 180.129 Q 340.977 180.129, 340.268 180.558 Q 339.559 180.987, 339.055 181.939 L 337.637 181.286 " fill="#000000"/>
<path class="atom-32" d="M 249.157 106.453 L 250.949 106.453 L 250.949 112.07 L 257.704 112.07 L 257.704 106.453 L 259.495 106.453 L 259.495 119.665 L 257.704 119.665 L 257.704 113.563 L 250.949 113.563 L 250.949 119.665 L 249.157 119.665 L 249.157 106.453 " fill="#000000"/>
<path class="atom-32" d="M 260.895 117.482 L 262.761 117.482 L 262.761 119.348 L 260.895 119.348 L 260.895 117.482 M 260.895 111.063 L 262.761 111.063 L 262.761 112.929 L 260.895 112.929 L 260.895 111.063 " fill="#000000"/>
<path class="atom-32" d="M 269.89 112.705 Q 271.177 113.078, 271.793 113.918 Q 272.427 114.739, 272.427 116.045 Q 272.427 117.165, 271.868 118.042 Q 271.308 118.9, 270.281 119.386 Q 269.255 119.852, 267.912 119.852 Q 266.493 119.852, 265.43 119.367 Q 264.385 118.863, 263.545 117.855 L 264.609 116.773 Q 265.43 117.669, 266.12 118.023 Q 266.811 118.359, 267.912 118.359 Q 269.106 118.359, 269.834 117.725 Q 270.561 117.072, 270.561 116.027 Q 270.561 114.683, 269.796 114.086 Q 269.05 113.47, 267.426 113.47 L 266.475 113.47 L 266.475 112.126 L 267.314 112.126 Q 268.751 112.108, 269.516 111.492 Q 270.281 110.857, 270.281 109.682 Q 270.281 108.823, 269.647 108.32 Q 269.013 107.797, 267.93 107.797 Q 266.829 107.797, 266.139 108.189 Q 265.467 108.581, 264.944 109.57 L 263.657 108.879 Q 264.123 107.778, 265.243 107.051 Q 266.363 106.304, 267.93 106.304 Q 269.871 106.304, 271.009 107.219 Q 272.148 108.133, 272.148 109.682 Q 272.148 110.746, 271.569 111.511 Q 270.991 112.276, 269.89 112.705 " fill="#000000"/>
<path class="atom-32" d="M 279.556 112.705 Q 280.844 113.078, 281.459 113.918 Q 282.094 114.739, 282.094 116.045 Q 282.094 117.165, 281.534 118.042 Q 280.974 118.9, 279.948 119.386 Q 278.922 119.852, 277.578 119.852 Q 276.16 119.852, 275.096 119.367 Q 274.051 118.863, 273.211 117.855 L 274.275 116.773 Q 275.096 117.669, 275.786 118.023 Q 276.477 118.359, 277.578 118.359 Q 278.772 118.359, 279.5 117.725 Q 280.228 117.072, 280.228 116.027 Q 280.228 114.683, 279.463 114.086 Q 278.716 113.47, 277.093 113.47 L 276.141 113.47 L 276.141 112.126 L 276.981 112.126 Q 278.418 112.108, 279.183 111.492 Q 279.948 110.857, 279.948 109.682 Q 279.948 108.823, 279.313 108.32 Q 278.679 107.797, 277.597 107.797 Q 276.496 107.797, 275.805 108.189 Q 275.133 108.581, 274.611 109.57 L 273.323 108.879 Q 273.79 107.778, 274.909 107.051 Q 276.029 106.304, 277.597 106.304 Q 279.537 106.304, 280.676 107.219 Q 281.814 108.133, 281.814 109.682 Q 281.814 110.746, 281.236 111.511 Q 280.657 112.276, 279.556 112.705 " fill="#000000"/>
<path class="atom-33" d="M 22.7273 280.346 L 24.5187 280.346 L 24.5187 285.963 L 31.274 285.963 L 31.274 280.346 L 33.0655 280.346 L 33.0655 293.558 L 31.274 293.558 L 31.274 287.456 L 24.5187 287.456 L 24.5187 293.558 L 22.7273 293.558 L 22.7273 280.346 " fill="#000000"/>
<path class="atom-33" d="M 34.4651 291.375 L 36.3312 291.375 L 36.3312 293.241 L 34.4651 293.241 L 34.4651 291.375 M 34.4651 284.955 L 36.3312 284.955 L 36.3312 286.821 L 34.4651 286.821 L 34.4651 284.955 " fill="#000000"/>
<path class="atom-33" d="M 43.4597 286.597 Q 44.7473 286.971, 45.3631 287.81 Q 45.9976 288.632, 45.9976 289.938 Q 45.9976 291.057, 45.4378 291.935 Q 44.8779 292.793, 43.8516 293.278 Q 42.8252 293.745, 41.4816 293.745 Q 40.0634 293.745, 38.9997 293.259 Q 37.9547 292.756, 37.1149 291.748 L 38.1786 290.666 Q 38.9997 291.561, 39.6902 291.916 Q 40.3806 292.252, 41.4816 292.252 Q 42.6759 292.252, 43.4037 291.617 Q 44.1315 290.964, 44.1315 289.919 Q 44.1315 288.576, 43.3664 287.978 Q 42.62 287.363, 40.9964 287.363 L 40.0447 287.363 L 40.0447 286.019 L 40.8845 286.019 Q 42.3214 286, 43.0865 285.384 Q 43.8516 284.75, 43.8516 283.574 Q 43.8516 282.716, 43.2171 282.212 Q 42.5826 281.69, 41.5003 281.69 Q 40.3993 281.69, 39.7088 282.081 Q 39.037 282.473, 38.5145 283.462 L 37.2269 282.772 Q 37.6934 281.671, 38.8131 280.943 Q 39.9328 280.197, 41.5003 280.197 Q 43.441 280.197, 44.5794 281.111 Q 45.7177 282.026, 45.7177 283.574 Q 45.7177 284.638, 45.1392 285.403 Q 44.5607 286.168, 43.4597 286.597 " fill="#000000"/>
<path class="atom-33" d="M 55.1415 289.023 L 56.7277 289.023 L 56.7277 290.516 L 55.1415 290.516 L 55.1415 293.558 L 53.3874 293.558 L 53.3874 290.516 L 46.5574 290.516 L 46.5574 289.341 L 52.3424 280.346 L 55.1415 280.346 L 55.1415 289.023 M 48.7221 289.023 L 53.3874 289.023 L 53.3874 281.54 L 48.7221 289.023 " fill="#000000"/>
<text x="250.76976851799282" y="295.17878349541394" font-size="12" font-family="Verdana" font-weight="bold" letter-spacing="0" text-anchor="start" fill="black" transform=" rotate(38.204746 250.769769 295.178783)">0.0865</text><text x="25" y="490" font-size="12" font-family="Verdana" font-weight="bold" letter-spacing="0" text-anchor="start" fill="black">[#6:1]1(=[#6:2](/[#7:3](-[#6:4]2:[#6:16](:[#6:18](:[#6:20](:[#6:19](:[#6:17]:2-[H:29])-[H:31])-[H:34])-[H:30])-[H:28])-[H:5])-[#6:6]2:[#6:11](:[#6:13](:[#6:15](:[#6:14](:[#6:12]:2-[H:24])-[H:26])-[H:27])-[H:25])-[H:23])\[#6:7](=[#6:10](-[#7:8](-[#6:9]-1=[#8:22])-[H:21])-[H:33])-[H:32]</text></svg>
