<?xml version='1.0' encoding='ASCII' standalone='yes'?>
<svg xmlns="http://www.w3.org/2000/svg" xmlns:rdkit="http://www.rdkit.org/xml" xmlns:xlink="http://www.w3.org/1999/xlink" version="1.1" baseProfile="full" xml:space="preserve" width="500px" height="500px" viewBox="0 0 500 500">
<!-- END OF HEADER -->
<rect style="opacity:1.0;fill:#FFFFFF;stroke:none" width="500" height="500" x="0" y="0"> </rect>
<path d="M 310.763,249.84 L 390.662,249.84" style="fill:none;fill-rule:evenodd;stroke:#FF7F7F;stroke-width:17.0px;stroke-linecap:butt;stroke-linejoin:miter;stroke-opacity:1"/>
<path class="bond-0 atom-1 atom-0" d="M 362.362,249.84 L 343.356,249.84" style="fill:none;fill-rule:evenodd;stroke:#0000FF;stroke-width:2.0px;stroke-linecap:butt;stroke-linejoin:miter;stroke-opacity:1"/>
<path class="bond-0 atom-1 atom-0" d="M 343.356,249.84 L 324.35,249.84" style="fill:none;fill-rule:evenodd;stroke:#000000;stroke-width:2.0px;stroke-linecap:butt;stroke-linejoin:miter;stroke-opacity:1"/>
<path class="bond-3 atom-2 atom-0" d="M 278.573,305.596 L 303.062,263.179" style="fill:none;fill-rule:evenodd;stroke:#000000;stroke-width:2.0px;stroke-linecap:butt;stroke-linejoin:miter;stroke-opacity:1"/>
<path class="bond-3 atom-2 atom-0" d="M 268.407,291.243 L 285.55,261.552" style="fill:none;fill-rule:evenodd;stroke:#000000;stroke-width:2.0px;stroke-linecap:butt;stroke-linejoin:miter;stroke-opacity:1"/>
<path class="bond-12 atom-6 atom-0" d="M 278.573,194.085 L 303.228,236.789" style="fill:none;fill-rule:evenodd;stroke:#000000;stroke-width:2.0px;stroke-linecap:butt;stroke-linejoin:miter;stroke-opacity:1"/>
<path class="bond-1 atom-1 atom-11" d="M 398.421,263.279 L 410.823,284.759" style="fill:none;fill-rule:evenodd;stroke:#0000FF;stroke-width:2.0px;stroke-linecap:butt;stroke-linejoin:miter;stroke-opacity:1"/>
<path class="bond-1 atom-1 atom-11" d="M 410.823,284.759 L 423.224,306.239" style="fill:none;fill-rule:evenodd;stroke:#000000;stroke-width:2.0px;stroke-linecap:butt;stroke-linejoin:miter;stroke-opacity:1"/>
<path class="bond-2 atom-1 atom-12" d="M 398.421,236.401 L 410.749,215.049" style="fill:none;fill-rule:evenodd;stroke:#0000FF;stroke-width:2.0px;stroke-linecap:butt;stroke-linejoin:miter;stroke-opacity:1"/>
<path class="bond-2 atom-1 atom-12" d="M 410.749,215.049 L 423.077,193.697" style="fill:none;fill-rule:evenodd;stroke:#000000;stroke-width:2.0px;stroke-linecap:butt;stroke-linejoin:miter;stroke-opacity:1"/>
<path class="bond-4 atom-2 atom-7" d="M 278.757,332.793 L 303.381,375.443" style="fill:none;fill-rule:evenodd;stroke:#000000;stroke-width:2.0px;stroke-linecap:butt;stroke-linejoin:miter;stroke-opacity:1"/>
<path class="bond-8 atom-4 atom-2" d="M 206.008,319.035 L 242.55,319.035" style="fill:none;fill-rule:evenodd;stroke:#000000;stroke-width:2.0px;stroke-linecap:butt;stroke-linejoin:miter;stroke-opacity:1"/>
<path class="bond-5 atom-3 atom-4" d="M 158.724,263.279 L 187.092,312.414" style="fill:none;fill-rule:evenodd;stroke:#000000;stroke-width:2.0px;stroke-linecap:butt;stroke-linejoin:miter;stroke-opacity:1"/>
<path class="bond-5 atom-3 atom-4" d="M 176.818,262.659 L 196.676,297.054" style="fill:none;fill-rule:evenodd;stroke:#000000;stroke-width:2.0px;stroke-linecap:butt;stroke-linejoin:miter;stroke-opacity:1"/>
<path class="bond-6 atom-3 atom-5" d="M 158.577,236.657 L 183.689,193.161" style="fill:none;fill-rule:evenodd;stroke:#000000;stroke-width:2.0px;stroke-linecap:butt;stroke-linejoin:miter;stroke-opacity:1"/>
<path class="bond-7 atom-3 atom-13" d="M 121.533,249.84 L 81.0368,249.84" style="fill:none;fill-rule:evenodd;stroke:#000000;stroke-width:2.0px;stroke-linecap:butt;stroke-linejoin:miter;stroke-opacity:1"/>
<path class="bond-9 atom-4 atom-8" d="M 182.99,332.761 L 158.495,375.187" style="fill:none;fill-rule:evenodd;stroke:#000000;stroke-width:2.0px;stroke-linecap:butt;stroke-linejoin:miter;stroke-opacity:1"/>
<path class="bond-10 atom-5 atom-6" d="M 206.7,180.646 L 242.903,180.646" style="fill:none;fill-rule:evenodd;stroke:#000000;stroke-width:2.0px;stroke-linecap:butt;stroke-linejoin:miter;stroke-opacity:1"/>
<path class="bond-10 atom-5 atom-6" d="M 212.13,196.625 L 237.472,196.625" style="fill:none;fill-rule:evenodd;stroke:#000000;stroke-width:2.0px;stroke-linecap:butt;stroke-linejoin:miter;stroke-opacity:1"/>
<path class="bond-11 atom-5 atom-9" d="M 183.156,167.207 L 158.648,124.758" style="fill:none;fill-rule:evenodd;stroke:#000000;stroke-width:2.0px;stroke-linecap:butt;stroke-linejoin:miter;stroke-opacity:1"/>
<path class="bond-13 atom-6 atom-10" d="M 278.425,167.462 L 303.261,124.446" style="fill:none;fill-rule:evenodd;stroke:#000000;stroke-width:2.0px;stroke-linecap:butt;stroke-linejoin:miter;stroke-opacity:1"/>
<path class="atom-0" d="M 284.644 249.936 Q 284.644 244.311, 287.265 241.371 Q 289.918 238.399, 294.935 238.399 Q 299.601 238.399, 302.094 241.691 L 299.985 243.416 Q 298.163 241.019, 294.935 241.019 Q 291.516 241.019, 289.694 243.32 Q 287.904 245.59, 287.904 249.936 Q 287.904 254.41, 289.758 256.712 Q 291.643 259.013, 295.287 259.013 Q 297.78 259.013, 300.688 257.511 L 301.583 259.907 Q 300.4 260.675, 298.611 261.122 Q 296.821 261.569, 294.839 261.569 Q 289.918 261.569, 287.265 258.565 Q 284.644 255.561, 284.644 249.936 " fill="#000000"/>
<path class="atom-0" d="M 304.491 257.542 L 307.687 257.542 L 307.687 260.738 L 304.491 260.738 L 304.491 257.542 M 304.491 246.548 L 307.687 246.548 L 307.687 249.744 L 304.491 249.744 L 304.491 246.548 " fill="#000000"/>
<path class="atom-0" d="M 310.659 258.725 L 315.613 258.725 L 315.613 241.818 L 310.148 243.512 L 309.413 241.627 L 316.348 238.527 L 318.617 238.91 L 318.617 258.725 L 323.06 258.725 L 323.06 261.282 L 310.659 261.282 L 310.659 258.725 " fill="#000000"/>
<path class="atom-1" d="M 367.939 238.654 L 375.354 250.639 Q 376.089 251.822, 377.271 253.963 Q 378.454 256.104, 378.518 256.232 L 378.518 238.654 L 381.522 238.654 L 381.522 261.282 L 378.422 261.282 L 370.464 248.178 Q 369.537 246.644, 368.546 244.886 Q 367.587 243.129, 367.3 242.585 L 367.3 261.282 L 364.359 261.282 L 364.359 238.654 L 367.939 238.654 " fill="#0000FF"/>
<path class="atom-1" d="M 383.919 257.542 L 387.115 257.542 L 387.115 260.738 L 383.919 260.738 L 383.919 257.542 M 383.919 246.548 L 387.115 246.548 L 387.115 249.744 L 383.919 249.744 L 383.919 246.548 " fill="#0000FF"/>
<path class="atom-1" d="M 388.777 242.937 Q 389.608 240.796, 391.589 239.613 Q 393.571 238.399, 396.319 238.399 Q 399.739 238.399, 401.656 240.252 Q 403.574 242.106, 403.574 245.398 Q 403.574 248.754, 401.081 251.886 Q 398.62 255.018, 393.507 258.725 L 403.957 258.725 L 403.957 261.282 L 388.713 261.282 L 388.713 259.14 Q 392.931 256.136, 395.424 253.899 Q 397.949 251.662, 399.163 249.648 Q 400.378 247.635, 400.378 245.558 Q 400.378 243.384, 399.291 242.17 Q 398.205 240.955, 396.319 240.955 Q 394.497 240.955, 393.283 241.691 Q 392.068 242.426, 391.206 244.056 L 388.777 242.937 " fill="#0000FF"/>
<path class="atom-2" d="M 244.17 319.131 Q 244.17 313.506, 246.791 310.565 Q 249.443 307.593, 254.461 307.593 Q 259.127 307.593, 261.62 310.885 L 259.511 312.611 Q 257.689 310.214, 254.461 310.214 Q 251.041 310.214, 249.22 312.515 Q 247.43 314.784, 247.43 319.131 Q 247.43 323.605, 249.284 325.906 Q 251.169 328.207, 254.813 328.207 Q 257.305 328.207, 260.214 326.705 L 261.109 329.102 Q 259.926 329.869, 258.136 330.317 Q 256.347 330.764, 254.365 330.764 Q 249.443 330.764, 246.791 327.76 Q 244.17 324.756, 244.17 319.131 " fill="#000000"/>
<path class="atom-2" d="M 264.017 326.737 L 267.213 326.737 L 267.213 329.933 L 264.017 329.933 L 264.017 326.737 M 264.017 315.743 L 267.213 315.743 L 267.213 318.939 L 264.017 318.939 L 264.017 315.743 " fill="#000000"/>
<path class="atom-2" d="M 279.421 318.555 Q 281.627 319.195, 282.681 320.633 Q 283.768 322.039, 283.768 324.276 Q 283.768 326.194, 282.809 327.696 Q 281.85 329.166, 280.093 329.997 Q 278.335 330.796, 276.034 330.796 Q 273.605 330.796, 271.783 329.965 Q 269.993 329.102, 268.555 327.376 L 270.377 325.523 Q 271.783 327.057, 272.966 327.664 Q 274.148 328.239, 276.034 328.239 Q 278.079 328.239, 279.326 327.153 Q 280.572 326.034, 280.572 324.244 Q 280.572 321.943, 279.262 320.92 Q 277.983 319.866, 275.203 319.866 L 273.573 319.866 L 273.573 317.565 L 275.011 317.565 Q 277.472 317.533, 278.782 316.478 Q 280.093 315.391, 280.093 313.378 Q 280.093 311.908, 279.006 311.045 Q 277.919 310.15, 276.066 310.15 Q 274.18 310.15, 272.998 310.821 Q 271.847 311.492, 270.952 313.186 L 268.747 312.004 Q 269.546 310.118, 271.464 308.872 Q 273.381 307.593, 276.066 307.593 Q 279.39 307.593, 281.339 309.159 Q 283.289 310.725, 283.289 313.378 Q 283.289 315.2, 282.298 316.51 Q 281.307 317.82, 279.421 318.555 " fill="#000000"/>
<path class="atom-3" d="M 123.531 249.936 Q 123.531 244.311, 126.151 241.371 Q 128.804 238.399, 133.822 238.399 Q 138.488 238.399, 140.98 241.691 L 138.871 243.416 Q 137.049 241.019, 133.822 241.019 Q 130.402 241.019, 128.58 243.32 Q 126.79 245.59, 126.79 249.936 Q 126.79 254.41, 128.644 256.712 Q 130.53 259.013, 134.173 259.013 Q 136.666 259.013, 139.574 257.511 L 140.469 259.907 Q 139.287 260.675, 137.497 261.122 Q 135.707 261.569, 133.726 261.569 Q 128.804 261.569, 126.151 258.565 Q 123.531 255.561, 123.531 249.936 " fill="#000000"/>
<path class="atom-3" d="M 143.377 257.542 L 146.573 257.542 L 146.573 260.738 L 143.377 260.738 L 143.377 257.542 M 143.377 246.548 L 146.573 246.548 L 146.573 249.744 L 143.377 249.744 L 143.377 246.548 " fill="#000000"/>
<path class="atom-3" d="M 162.234 253.516 L 164.95 253.516 L 164.95 256.072 L 162.234 256.072 L 162.234 261.282 L 159.229 261.282 L 159.229 256.072 L 147.532 256.072 L 147.532 254.059 L 157.44 238.654 L 162.234 238.654 L 162.234 253.516 M 151.239 253.516 L 159.229 253.516 L 159.229 240.7 L 151.239 253.516 " fill="#000000"/>
<path class="atom-4" d="M 164.188 319.131 Q 164.188 313.506, 166.809 310.565 Q 169.462 307.593, 174.479 307.593 Q 179.146 307.593, 181.638 310.885 L 179.529 312.611 Q 177.707 310.214, 174.479 310.214 Q 171.06 310.214, 169.238 312.515 Q 167.448 314.784, 167.448 319.131 Q 167.448 323.605, 169.302 325.906 Q 171.188 328.207, 174.831 328.207 Q 177.324 328.207, 180.232 326.705 L 181.127 329.102 Q 179.945 329.869, 178.155 330.317 Q 176.365 330.764, 174.384 330.764 Q 169.462 330.764, 166.809 327.76 Q 164.188 324.756, 164.188 319.131 " fill="#000000"/>
<path class="atom-4" d="M 184.035 326.737 L 187.231 326.737 L 187.231 329.933 L 184.035 329.933 L 184.035 326.737 M 184.035 315.743 L 187.231 315.743 L 187.231 318.939 L 184.035 318.939 L 184.035 315.743 " fill="#000000"/>
<path class="atom-4" d="M 196.915 316.318 Q 198.897 316.318, 200.527 317.181 Q 202.156 318.012, 203.083 319.61 Q 204.01 321.176, 204.01 323.317 Q 204.01 325.65, 202.86 327.344 Q 201.741 329.006, 199.887 329.869 Q 198.034 330.732, 195.924 330.732 Q 193.847 330.732, 191.929 329.965 Q 190.012 329.198, 188.701 327.728 L 190.619 325.746 Q 191.674 326.897, 193.112 327.536 Q 194.55 328.143, 196.02 328.143 Q 198.034 328.143, 199.408 326.897 Q 200.814 325.65, 200.814 323.381 Q 200.814 320.984, 199.408 319.866 Q 198.034 318.715, 195.828 318.715 Q 193.847 318.715, 191.642 319.578 L 189.884 318.747 L 190.971 307.849 L 202.604 307.849 L 202.284 310.406 L 193.591 310.406 L 192.92 317.117 Q 194.934 316.318, 196.915 316.318 " fill="#000000"/>
<path class="atom-5" d="M 163.794 180.742 Q 163.794 175.117, 166.415 172.176 Q 169.068 169.204, 174.085 169.204 Q 178.751 169.204, 181.244 172.496 L 179.135 174.222 Q 177.313 171.825, 174.085 171.825 Q 170.666 171.825, 168.844 174.126 Q 167.054 176.395, 167.054 180.742 Q 167.054 185.216, 168.908 187.517 Q 170.793 189.818, 174.437 189.818 Q 176.93 189.818, 179.838 188.316 L 180.733 190.713 Q 179.55 191.48, 177.761 191.927 Q 175.971 192.375, 173.989 192.375 Q 169.068 192.375, 166.415 189.371 Q 163.794 186.366, 163.794 180.742 " fill="#000000"/>
<path class="atom-5" d="M 183.641 188.348 L 186.837 188.348 L 186.837 191.544 L 183.641 191.544 L 183.641 188.348 M 183.641 177.354 L 186.837 177.354 L 186.837 180.55 L 183.641 180.55 L 183.641 177.354 " fill="#000000"/>
<path class="atom-5" d="M 197.863 177.961 Q 199.845 177.961, 201.411 178.824 Q 202.977 179.687, 203.84 181.253 Q 204.703 182.819, 204.703 184.8 Q 204.703 187.006, 203.712 188.731 Q 202.753 190.425, 201.027 191.384 Q 199.301 192.343, 197.096 192.343 Q 193.069 192.343, 191.024 189.626 Q 189.01 186.878, 189.01 181.445 Q 189.01 175.436, 191.503 172.336 Q 194.028 169.204, 198.854 169.204 Q 200.26 169.204, 201.443 169.524 Q 202.657 169.843, 203.808 170.514 L 202.561 172.656 Q 200.899 171.761, 198.886 171.761 Q 195.69 171.761, 194.06 173.838 Q 192.43 175.884, 192.238 180.134 Q 193.389 179.08, 194.827 178.536 Q 196.297 177.961, 197.863 177.961 M 197.128 189.722 Q 198.343 189.722, 199.333 189.083 Q 200.356 188.444, 200.931 187.325 Q 201.507 186.207, 201.507 184.832 Q 201.507 182.819, 200.388 181.668 Q 199.269 180.518, 197.288 180.518 Q 195.914 180.518, 194.539 181.093 Q 193.197 181.636, 192.238 182.595 Q 192.366 186.334, 193.549 188.028 Q 194.731 189.722, 197.128 189.722 " fill="#000000"/>
<path class="atom-6" d="M 244.506 180.742 Q 244.506 175.117, 247.126 172.176 Q 249.779 169.204, 254.797 169.204 Q 259.463 169.204, 261.956 172.496 L 259.846 174.222 Q 258.025 171.825, 254.797 171.825 Q 251.377 171.825, 249.555 174.126 Q 247.765 176.395, 247.765 180.742 Q 247.765 185.216, 249.619 187.517 Q 251.505 189.818, 255.148 189.818 Q 257.641 189.818, 260.549 188.316 L 261.444 190.713 Q 260.262 191.48, 258.472 191.927 Q 256.682 192.375, 254.701 192.375 Q 249.779 192.375, 247.126 189.371 Q 244.506 186.366, 244.506 180.742 " fill="#000000"/>
<path class="atom-6" d="M 264.353 188.348 L 267.548 188.348 L 267.548 191.544 L 264.353 191.544 L 264.353 188.348 M 264.353 177.354 L 267.548 177.354 L 267.548 180.55 L 264.353 180.55 L 264.353 177.354 " fill="#000000"/>
<path class="atom-6" d="M 279.981 172.017 L 268.124 172.017 L 268.124 169.46 L 283.145 169.46 L 283.145 171.729 L 274.004 192.087 L 270.936 192.087 L 279.981 172.017 " fill="#000000"/>
<path class="atom-7" d="M 301.91 377.043 L 304.979 377.043 L 304.979 386.663 L 316.548 386.663 L 316.548 377.043 L 319.616 377.043 L 319.616 399.671 L 316.548 399.671 L 316.548 389.22 L 304.979 389.22 L 304.979 399.671 L 301.91 399.671 L 301.91 377.043 " fill="#000000"/>
<path class="atom-7" d="M 322.013 395.932 L 325.209 395.932 L 325.209 399.128 L 322.013 399.128 L 322.013 395.932 M 322.013 384.938 L 325.209 384.938 L 325.209 388.133 L 322.013 388.133 L 322.013 384.938 " fill="#000000"/>
<path class="atom-7" d="M 338.728 387.686 Q 340.805 388.581, 341.988 389.923 Q 343.17 391.234, 343.17 393.471 Q 343.17 395.388, 342.179 396.89 Q 341.189 398.361, 339.399 399.191 Q 337.641 399.99, 335.308 399.99 Q 331.537 399.99, 329.364 398.265 Q 327.19 396.507, 327.19 393.471 Q 327.19 391.617, 328.149 390.243 Q 329.108 388.837, 331.09 387.782 Q 329.619 386.951, 328.82 385.736 Q 328.021 384.49, 328.021 382.572 Q 328.021 379.92, 329.939 378.354 Q 331.888 376.788, 335.18 376.788 Q 338.472 376.788, 340.39 378.354 Q 342.339 379.92, 342.339 382.572 Q 342.339 384.234, 341.412 385.481 Q 340.518 386.695, 338.728 387.686 M 335.18 379.185 Q 333.295 379.185, 332.24 380.08 Q 331.217 380.975, 331.217 382.572 Q 331.217 383.755, 331.92 384.554 Q 332.624 385.321, 333.614 385.768 Q 334.637 386.216, 336.587 386.887 Q 337.961 385.928, 338.536 384.906 Q 339.143 383.883, 339.143 382.572 Q 339.143 380.975, 338.089 380.08 Q 337.066 379.185, 335.18 379.185 M 335.308 397.594 Q 337.418 397.594, 338.696 396.475 Q 339.974 395.324, 339.974 393.439 Q 339.974 392.224, 339.303 391.457 Q 338.632 390.69, 337.609 390.243 Q 336.619 389.795, 334.829 389.22 L 333.391 388.741 Q 331.793 389.699, 331.09 390.85 Q 330.386 391.969, 330.386 393.439 Q 330.386 395.324, 331.729 396.475 Q 333.071 397.594, 335.308 397.594 " fill="#000000"/>
<path class="atom-8" d="M 118.063 377.043 L 121.131 377.043 L 121.131 386.663 L 132.7 386.663 L 132.7 377.043 L 135.768 377.043 L 135.768 399.671 L 132.7 399.671 L 132.7 389.22 L 121.131 389.22 L 121.131 399.671 L 118.063 399.671 L 118.063 377.043 " fill="#000000"/>
<path class="atom-8" d="M 138.165 395.932 L 141.361 395.932 L 141.361 399.128 L 138.165 399.128 L 138.165 395.932 M 138.165 384.938 L 141.361 384.938 L 141.361 388.133 L 138.165 388.133 L 138.165 384.938 " fill="#000000"/>
<path class="atom-8" d="M 150.725 376.788 Q 154.752 376.788, 156.766 379.536 Q 158.811 382.253, 158.811 387.686 Q 158.811 393.694, 156.286 396.826 Q 153.794 399.927, 148.968 399.927 Q 147.561 399.927, 146.347 399.607 Q 145.165 399.287, 144.014 398.616 L 145.26 396.475 Q 146.922 397.37, 148.936 397.37 Q 152.132 397.37, 153.762 395.324 Q 155.392 393.247, 155.583 388.996 Q 154.433 390.051, 152.963 390.626 Q 151.524 391.17, 149.958 391.17 Q 147.977 391.17, 146.411 390.307 Q 144.845 389.444, 143.982 387.878 Q 143.119 386.312, 143.119 384.33 Q 143.119 382.125, 144.078 380.431 Q 145.069 378.705, 146.794 377.747 Q 148.52 376.788, 150.725 376.788 M 146.315 384.298 Q 146.315 386.312, 147.434 387.462 Q 148.552 388.613, 150.534 388.613 Q 151.908 388.613, 153.25 388.07 Q 154.625 387.494, 155.583 386.535 Q 155.456 382.796, 154.273 381.102 Q 153.09 379.408, 150.694 379.408 Q 149.479 379.408, 148.456 380.048 Q 147.466 380.687, 146.89 381.805 Q 146.315 382.924, 146.315 384.298 " fill="#000000"/>
<path class="atom-9" d="M 102.067 100.265 L 105.135 100.265 L 105.135 109.885 L 116.704 109.885 L 116.704 100.265 L 119.773 100.265 L 119.773 122.893 L 116.704 122.893 L 116.704 112.442 L 105.135 112.442 L 105.135 122.893 L 102.067 122.893 L 102.067 100.265 " fill="#000000"/>
<path class="atom-9" d="M 122.17 119.153 L 125.366 119.153 L 125.366 122.349 L 122.17 122.349 L 122.17 119.153 M 122.17 108.159 L 125.366 108.159 L 125.366 111.355 L 122.17 111.355 L 122.17 108.159 " fill="#000000"/>
<path class="atom-9" d="M 128.338 120.336 L 133.292 120.336 L 133.292 103.429 L 127.826 105.123 L 127.091 103.237 L 134.027 100.137 L 136.296 100.521 L 136.296 120.336 L 140.738 120.336 L 140.738 122.893 L 128.338 122.893 L 128.338 120.336 " fill="#000000"/>
<path class="atom-9" d="M 150.965 123.148 Q 146.81 123.148, 144.733 120.08 Q 142.688 117.012, 142.688 111.547 Q 142.688 106.082, 144.733 103.046 Q 146.778 100.01, 150.965 100.01 Q 155.152 100.01, 157.197 103.046 Q 159.243 106.082, 159.243 111.547 Q 159.243 117.012, 157.165 120.08 Q 155.12 123.148, 150.965 123.148 M 150.965 120.592 Q 153.426 120.592, 154.736 118.322 Q 156.047 116.021, 156.047 111.547 Q 156.047 107.105, 154.736 104.835 Q 153.426 102.566, 150.965 102.566 Q 148.536 102.566, 147.194 104.835 Q 145.884 107.105, 145.884 111.547 Q 145.884 116.021, 147.194 118.322 Q 148.536 120.592, 150.965 120.592 " fill="#000000"/>
<path class="atom-10" d="M 301.91 100.201 L 304.979 100.201 L 304.979 109.821 L 316.548 109.821 L 316.548 100.201 L 319.616 100.201 L 319.616 122.829 L 316.548 122.829 L 316.548 112.378 L 304.979 112.378 L 304.979 122.829 L 301.91 122.829 L 301.91 100.201 " fill="#000000"/>
<path class="atom-10" d="M 322.013 119.089 L 325.209 119.089 L 325.209 122.285 L 322.013 122.285 L 322.013 119.089 M 322.013 108.095 L 325.209 108.095 L 325.209 111.291 L 322.013 111.291 L 322.013 108.095 " fill="#000000"/>
<path class="atom-10" d="M 328.181 120.272 L 333.135 120.272 L 333.135 103.365 L 327.67 105.059 L 326.935 103.174 L 333.87 100.073 L 336.139 100.457 L 336.139 120.272 L 340.582 120.272 L 340.582 122.829 L 328.181 122.829 L 328.181 120.272 " fill="#000000"/>
<path class="atom-10" d="M 343.554 120.272 L 348.507 120.272 L 348.507 103.365 L 343.042 105.059 L 342.307 103.174 L 349.243 100.073 L 351.512 100.457 L 351.512 120.272 L 355.954 120.272 L 355.954 122.829 L 343.554 122.829 L 343.554 120.272 " fill="#000000"/>
<path class="atom-11" d="M 421.759 307.849 L 424.827 307.849 L 424.827 317.469 L 436.396 317.469 L 436.396 307.849 L 439.465 307.849 L 439.465 330.476 L 436.396 330.476 L 436.396 320.026 L 424.827 320.026 L 424.827 330.476 L 421.759 330.476 L 421.759 307.849 " fill="#000000"/>
<path class="atom-11" d="M 441.861 326.737 L 445.057 326.737 L 445.057 329.933 L 441.861 329.933 L 441.861 326.737 M 441.861 315.743 L 445.057 315.743 L 445.057 318.939 L 441.861 318.939 L 441.861 315.743 " fill="#000000"/>
<path class="atom-11" d="M 448.03 327.92 L 452.983 327.92 L 452.983 311.013 L 447.518 312.707 L 446.783 310.821 L 453.718 307.721 L 455.988 308.105 L 455.988 327.92 L 460.43 327.92 L 460.43 330.476 L 448.03 330.476 L 448.03 327.92 " fill="#000000"/>
<path class="atom-11" d="M 462.092 312.131 Q 462.923 309.99, 464.904 308.808 Q 466.886 307.593, 469.634 307.593 Q 473.054 307.593, 474.972 309.447 Q 476.889 311.301, 476.889 314.592 Q 476.889 317.948, 474.396 321.08 Q 471.935 324.212, 466.822 327.92 L 477.273 327.92 L 477.273 330.476 L 462.028 330.476 L 462.028 328.335 Q 466.247 325.331, 468.74 323.094 Q 471.264 320.856, 472.479 318.843 Q 473.693 316.83, 473.693 314.752 Q 473.693 312.579, 472.607 311.364 Q 471.52 310.15, 469.634 310.15 Q 467.813 310.15, 466.598 310.885 Q 465.384 311.62, 464.521 313.25 L 462.092 312.131 " fill="#000000"/>
<path class="atom-12" d="M 421.759 169.46 L 424.827 169.46 L 424.827 179.08 L 436.396 179.08 L 436.396 169.46 L 439.465 169.46 L 439.465 192.087 L 436.396 192.087 L 436.396 181.636 L 424.827 181.636 L 424.827 192.087 L 421.759 192.087 L 421.759 169.46 " fill="#000000"/>
<path class="atom-12" d="M 441.861 188.348 L 445.057 188.348 L 445.057 191.544 L 441.861 191.544 L 441.861 188.348 M 441.861 177.354 L 445.057 177.354 L 445.057 180.55 L 441.861 180.55 L 441.861 177.354 " fill="#000000"/>
<path class="atom-12" d="M 448.03 189.53 L 452.983 189.53 L 452.983 172.624 L 447.518 174.318 L 446.783 172.432 L 453.718 169.332 L 455.988 169.715 L 455.988 189.53 L 460.43 189.53 L 460.43 192.087 L 448.03 192.087 L 448.03 189.53 " fill="#000000"/>
<path class="atom-12" d="M 472.639 180.166 Q 474.844 180.805, 475.898 182.244 Q 476.985 183.65, 476.985 185.887 Q 476.985 187.805, 476.026 189.307 Q 475.068 190.777, 473.31 191.608 Q 471.552 192.407, 469.251 192.407 Q 466.822 192.407, 465 191.576 Q 463.211 190.713, 461.772 188.987 L 463.594 187.133 Q 465 188.667, 466.183 189.275 Q 467.365 189.85, 469.251 189.85 Q 471.296 189.85, 472.543 188.763 Q 473.789 187.645, 473.789 185.855 Q 473.789 183.554, 472.479 182.531 Q 471.2 181.477, 468.42 181.477 L 466.79 181.477 L 466.79 179.175 L 468.228 179.175 Q 470.689 179.144, 471.999 178.089 Q 473.31 177.002, 473.31 174.989 Q 473.31 173.519, 472.223 172.656 Q 471.136 171.761, 469.283 171.761 Q 467.397 171.761, 466.215 172.432 Q 465.064 173.103, 464.169 174.797 L 461.964 173.615 Q 462.763 171.729, 464.681 170.482 Q 466.598 169.204, 469.283 169.204 Q 472.607 169.204, 474.556 170.77 Q 476.506 172.336, 476.506 174.989 Q 476.506 176.81, 475.515 178.121 Q 474.524 179.431, 472.639 180.166 " fill="#000000"/>
<path class="atom-13" d="M 22.7273 238.59 L 25.7954 238.59 L 25.7954 248.21 L 37.3648 248.21 L 37.3648 238.59 L 40.4329 238.59 L 40.4329 261.218 L 37.3648 261.218 L 37.3648 250.767 L 25.7954 250.767 L 25.7954 261.218 L 22.7273 261.218 L 22.7273 238.59 " fill="#000000"/>
<path class="atom-13" d="M 42.8299 257.479 L 46.0258 257.479 L 46.0258 260.675 L 42.8299 260.675 L 42.8299 257.479 M 42.8299 246.484 L 46.0258 246.484 L 46.0258 249.68 L 42.8299 249.68 L 42.8299 246.484 " fill="#000000"/>
<path class="atom-13" d="M 48.9981 258.661 L 53.9518 258.661 L 53.9518 241.754 L 48.4867 243.448 L 47.7516 241.563 L 54.6869 238.463 L 56.956 238.846 L 56.956 258.661 L 61.3984 258.661 L 61.3984 261.218 L 48.9981 261.218 L 48.9981 258.661 " fill="#000000"/>
<path class="atom-13" d="M 77.0586 253.452 L 79.7752 253.452 L 79.7752 256.008 L 77.0586 256.008 L 77.0586 261.218 L 74.0544 261.218 L 74.0544 256.008 L 62.3572 256.008 L 62.3572 253.995 L 72.2647 238.59 L 77.0586 238.59 L 77.0586 253.452 M 66.0645 253.452 L 74.0544 253.452 L 74.0544 240.636 L 66.0645 253.452 " fill="#000000"/>
<text x="350.71269914827656" y="249.84020198469128" font-size="12" font-family="Verdana" font-weight="bold" letter-spacing="0" text-anchor="start" fill="black" transform=" rotate(90.000000 350.712699 249.840202)">1.1066</text><text x="25" y="490" font-size="12" font-family="Verdana" font-weight="bold" letter-spacing="0" text-anchor="start" fill="black">[#6:1]1(-[#7:2](-[H:12])-[H:13]):[#6:3](:[#6:5](:[#6:4](:[#6:6](:[#6:7]:1-[H:11])-[H:10])-[H:14])-[H:9])-[H:8]</text></svg>
