<?xml version='1.0' encoding='ASCII' standalone='yes'?>
<svg xmlns="http://www.w3.org/2000/svg" xmlns:rdkit="http://www.rdkit.org/xml" xmlns:xlink="http://www.w3.org/1999/xlink" version="1.1" baseProfile="full" xml:space="preserve" width="500px" height="500px" viewBox="0 0 500 500">
<!-- END OF HEADER -->
<rect style="opacity:1.0;fill:#FFFFFF;stroke:none" width="500.0" height="500.0" x="0.0" y="0.0"> </rect>
<path class="bond-2 atom-1 atom-2" d="M 324.2,272.6 L 342.8,336.8" style="fill:none;fill-rule:evenodd;stroke:#FF7F7F;stroke-width:14.3px;stroke-linecap:butt;stroke-linejoin:miter;stroke-opacity:1"/>
<path class="bond-0 atom-1 atom-0" d="M 305.1,267.9 L 291.2,264.5" style="fill:none;fill-rule:evenodd;stroke:#0000FF;stroke-width:2.0px;stroke-linecap:butt;stroke-linejoin:miter;stroke-opacity:1"/>
<path class="bond-0 atom-1 atom-0" d="M 291.2,264.5 L 277.3,261.1" style="fill:none;fill-rule:evenodd;stroke:#000000;stroke-width:2.0px;stroke-linecap:butt;stroke-linejoin:miter;stroke-opacity:1"/>
<path class="bond-1 atom-1 atom-4" d="M 335.5,260.9 L 347.3,248.6" style="fill:none;fill-rule:evenodd;stroke:#0000FF;stroke-width:2.0px;stroke-linecap:butt;stroke-linejoin:miter;stroke-opacity:1"/>
<path class="bond-1 atom-1 atom-4" d="M 347.3,248.6 L 359.1,236.3" style="fill:none;fill-rule:evenodd;stroke:#000000;stroke-width:2.0px;stroke-linecap:butt;stroke-linejoin:miter;stroke-opacity:1"/>
<path class="bond-2 atom-1 atom-2" d="M 328.5,287.4 L 334.0,306.3" style="fill:none;fill-rule:evenodd;stroke:#0000FF;stroke-width:2.0px;stroke-linecap:butt;stroke-linejoin:miter;stroke-opacity:1"/>
<path class="bond-2 atom-1 atom-2" d="M 334.0,306.3 L 339.5,325.1" style="fill:none;fill-rule:evenodd;stroke:#000000;stroke-width:2.0px;stroke-linecap:butt;stroke-linejoin:miter;stroke-opacity:1"/>
<path class="bond-3 atom-2 atom-5" d="M 324.2,342.3 L 287.3,352.9" style="fill:none;fill-rule:evenodd;stroke:#000000;stroke-width:2.0px;stroke-linecap:butt;stroke-linejoin:miter;stroke-opacity:1"/>
<path class="bond-4 atom-2 atom-3" d="M 361.5,331.4 L 397.5,321.0" style="fill:none;fill-rule:evenodd;stroke:#000000;stroke-width:2.0px;stroke-linecap:butt;stroke-linejoin:miter;stroke-opacity:1"/>
<path class="bond-5 atom-2 atom-6" d="M 346.8,350.4 L 358.1,389.5" style="fill:none;fill-rule:evenodd;stroke:#000000;stroke-width:2.0px;stroke-linecap:butt;stroke-linejoin:miter;stroke-opacity:1"/>
<path class="bond-6 atom-4 atom-12" d="M 367.1,212.7 L 355.4,172.2" style="fill:none;fill-rule:evenodd;stroke:#000000;stroke-width:2.0px;stroke-linecap:butt;stroke-linejoin:miter;stroke-opacity:1"/>
<path class="bond-7 atom-4 atom-13" d="M 390.8,222.5 L 408.5,226.9" style="fill:none;fill-rule:evenodd;stroke:#000000;stroke-width:2.0px;stroke-linecap:butt;stroke-linejoin:miter;stroke-opacity:1"/>
<path class="bond-7 atom-4 atom-13" d="M 408.5,226.9 L 426.2,231.2" style="fill:none;fill-rule:evenodd;stroke:#FF0000;stroke-width:2.0px;stroke-linecap:butt;stroke-linejoin:miter;stroke-opacity:1"/>
<path class="bond-7 atom-4 atom-13" d="M 387.6,235.5 L 405.3,239.9" style="fill:none;fill-rule:evenodd;stroke:#000000;stroke-width:2.0px;stroke-linecap:butt;stroke-linejoin:miter;stroke-opacity:1"/>
<path class="bond-7 atom-4 atom-13" d="M 405.3,239.9 L 423.0,244.2" style="fill:none;fill-rule:evenodd;stroke:#FF0000;stroke-width:2.0px;stroke-linecap:butt;stroke-linejoin:miter;stroke-opacity:1"/>
<path class="bond-8 atom-7 atom-0" d="M 244.2,204.4 L 255.9,244.9" style="fill:none;fill-rule:evenodd;stroke:#000000;stroke-width:2.0px;stroke-linecap:butt;stroke-linejoin:miter;stroke-opacity:1"/>
<path class="bond-8 atom-7 atom-0" d="M 233.1,214.2 L 241.3,242.6" style="fill:none;fill-rule:evenodd;stroke:#000000;stroke-width:2.0px;stroke-linecap:butt;stroke-linejoin:miter;stroke-opacity:1"/>
<path class="bond-9 atom-7 atom-14" d="M 255.1,180.7 L 261.8,175.3" style="fill:none;fill-rule:evenodd;stroke:#000000;stroke-width:2.0px;stroke-linecap:butt;stroke-linejoin:miter;stroke-opacity:1"/>
<path class="bond-10 atom-8 atom-9" d="M 140.7,213.0 L 164.3,188.4" style="fill:none;fill-rule:evenodd;stroke:#000000;stroke-width:2.0px;stroke-linecap:butt;stroke-linejoin:miter;stroke-opacity:1"/>
<path class="bond-10 atom-8 atom-9" d="M 153.9,218.6 L 170.4,201.3" style="fill:none;fill-rule:evenodd;stroke:#000000;stroke-width:2.0px;stroke-linecap:butt;stroke-linejoin:miter;stroke-opacity:1"/>
<path class="bond-11 atom-8 atom-10" d="M 133.2,237.5 L 144.7,277.3" style="fill:none;fill-rule:evenodd;stroke:#000000;stroke-width:2.0px;stroke-linecap:butt;stroke-linejoin:miter;stroke-opacity:1"/>
<path class="bond-12 atom-8 atom-20" d="M 110.6,220.0 L 72.4,210.6" style="fill:none;fill-rule:evenodd;stroke:#000000;stroke-width:2.0px;stroke-linecap:butt;stroke-linejoin:miter;stroke-opacity:1"/>
<path class="bond-13 atom-9 atom-7" d="M 201.3,182.7 L 231.3,190.1" style="fill:none;fill-rule:evenodd;stroke:#000000;stroke-width:2.0px;stroke-linecap:butt;stroke-linejoin:miter;stroke-opacity:1"/>
<path class="bond-14 atom-9 atom-15" d="M 172.4,164.9 L 160.6,123.9" style="fill:none;fill-rule:evenodd;stroke:#000000;stroke-width:2.0px;stroke-linecap:butt;stroke-linejoin:miter;stroke-opacity:1"/>
<path class="bond-15 atom-10 atom-11" d="M 172.4,294.9 L 188.1,298.7" style="fill:none;fill-rule:evenodd;stroke:#000000;stroke-width:2.0px;stroke-linecap:butt;stroke-linejoin:miter;stroke-opacity:1"/>
<path class="bond-15 atom-10 atom-11" d="M 177.9,282.5 L 188.9,285.2" style="fill:none;fill-rule:evenodd;stroke:#000000;stroke-width:2.0px;stroke-linecap:butt;stroke-linejoin:miter;stroke-opacity:1"/>
<path class="bond-16 atom-10 atom-16" d="M 136.6,300.8 L 110.2,328.4" style="fill:none;fill-rule:evenodd;stroke:#000000;stroke-width:2.0px;stroke-linecap:butt;stroke-linejoin:miter;stroke-opacity:1"/>
<path class="bond-17 atom-11 atom-0" d="M 224.2,293.2 L 247.9,268.6" style="fill:none;fill-rule:evenodd;stroke:#000000;stroke-width:2.0px;stroke-linecap:butt;stroke-linejoin:miter;stroke-opacity:1"/>
<path class="bond-18 atom-11 atom-17" d="M 216.4,316.6 L 228.3,357.6" style="fill:none;fill-rule:evenodd;stroke:#000000;stroke-width:2.0px;stroke-linecap:butt;stroke-linejoin:miter;stroke-opacity:1"/>
<path class="bond-19 atom-12 atom-18" d="M 324.0,172.1 L 315.6,175.7" style="fill:none;fill-rule:evenodd;stroke:#000000;stroke-width:2.0px;stroke-linecap:butt;stroke-linejoin:miter;stroke-opacity:1"/>
<path class="bond-20 atom-12 atom-19" d="M 360.4,157.7 L 406.6,144.3" style="fill:none;fill-rule:evenodd;stroke:#000000;stroke-width:2.0px;stroke-linecap:butt;stroke-linejoin:miter;stroke-opacity:1"/>
<path class="bond-21 atom-12 atom-21" d="M 348.5,148.5 L 336.7,107.7" style="fill:none;fill-rule:evenodd;stroke:#000000;stroke-width:2.0px;stroke-linecap:butt;stroke-linejoin:miter;stroke-opacity:1"/>
<path class="atom-0" d="M 243.4 256.7 Q 243.4 252.0, 245.6 249.6 Q 247.8 247.1, 252.0 247.1 Q 255.9 247.1, 258.0 249.8 L 256.3 251.3 Q 254.7 249.3, 252.0 249.3 Q 249.2 249.3, 247.7 251.2 Q 246.2 253.1, 246.2 256.7 Q 246.2 260.5, 247.7 262.4 Q 249.3 264.3, 252.3 264.3 Q 254.4 264.3, 256.9 263.1 L 257.6 265.1 Q 256.6 265.7, 255.1 266.1 Q 253.6 266.5, 252.0 266.5 Q 247.8 266.5, 245.6 263.9 Q 243.4 261.4, 243.4 256.7 " fill="#000000"/>
<path class="atom-0" d="M 259.1 263.1 L 261.8 263.1 L 261.8 265.8 L 259.1 265.8 L 259.1 263.1 M 259.1 253.9 L 261.8 253.9 L 261.8 256.6 L 259.1 256.6 L 259.1 253.9 " fill="#000000"/>
<path class="atom-0" d="M 264.8 264.1 L 269.0 264.1 L 269.0 249.9 L 264.4 251.4 L 263.8 249.8 L 269.6 247.2 L 271.5 247.5 L 271.5 264.1 L 275.2 264.1 L 275.2 266.2 L 264.8 266.2 L 264.8 264.1 " fill="#000000"/>
<path class="atom-1" d="M 310.2 263.3 L 316.4 273.3 Q 317.0 274.3, 318.0 276.1 Q 319.0 277.9, 319.1 278.0 L 319.1 263.3 L 321.6 263.3 L 321.6 282.2 L 319.0 282.2 L 312.3 271.2 Q 311.6 270.0, 310.7 268.5 Q 309.9 267.0, 309.7 266.6 L 309.7 282.2 L 307.2 282.2 L 307.2 263.3 L 310.2 263.3 " fill="#0000FF"/>
<path class="atom-1" d="M 323.8 279.1 L 326.5 279.1 L 326.5 281.7 L 323.8 281.7 L 323.8 279.1 M 323.8 269.9 L 326.5 269.9 L 326.5 272.5 L 323.8 272.5 L 323.8 269.9 " fill="#0000FF"/>
<path class="atom-1" d="M 328.5 266.9 Q 329.2 265.1, 330.9 264.1 Q 332.5 263.1, 334.8 263.1 Q 337.7 263.1, 339.3 264.6 Q 340.9 266.2, 340.9 268.9 Q 340.9 271.7, 338.8 274.3 Q 336.8 277.0, 332.5 280.1 L 341.2 280.1 L 341.2 282.2 L 328.5 282.2 L 328.5 280.4 Q 332.0 277.9, 334.1 276.0 Q 336.2 274.2, 337.2 272.5 Q 338.2 270.8, 338.2 269.0 Q 338.2 267.2, 337.3 266.2 Q 336.4 265.2, 334.8 265.2 Q 333.3 265.2, 332.3 265.8 Q 331.3 266.4, 330.6 267.8 L 328.5 266.9 " fill="#0000FF"/>
<path class="atom-2" d="M 326.3 336.9 Q 326.3 332.2, 328.5 329.8 Q 330.7 327.3, 334.9 327.3 Q 338.8 327.3, 340.9 330.0 L 339.1 331.5 Q 337.6 329.5, 334.9 329.5 Q 332.1 329.5, 330.5 331.4 Q 329.0 333.3, 329.0 336.9 Q 329.0 340.7, 330.6 342.6 Q 332.2 344.5, 335.2 344.5 Q 337.3 344.5, 339.7 343.3 L 340.5 345.3 Q 339.5 345.9, 338.0 346.3 Q 336.5 346.7, 334.8 346.7 Q 330.7 346.7, 328.5 344.1 Q 326.3 341.6, 326.3 336.9 " fill="#000000"/>
<path class="atom-2" d="M 342.0 343.3 L 344.7 343.3 L 344.7 346.0 L 342.0 346.0 L 342.0 343.3 M 342.0 334.1 L 344.7 334.1 L 344.7 336.8 L 342.0 336.8 L 342.0 334.1 " fill="#000000"/>
<path class="atom-2" d="M 355.7 336.4 Q 357.6 337.0, 358.5 338.2 Q 359.4 339.4, 359.4 341.2 Q 359.4 342.8, 358.6 344.1 Q 357.8 345.3, 356.3 346.0 Q 354.8 346.7, 352.9 346.7 Q 350.9 346.7, 349.4 346.0 Q 347.9 345.3, 346.7 343.8 L 348.2 342.3 Q 349.4 343.6, 350.3 344.1 Q 351.3 344.5, 352.9 344.5 Q 354.6 344.5, 355.7 343.6 Q 356.7 342.7, 356.7 341.2 Q 356.7 339.3, 355.6 338.4 Q 354.5 337.5, 352.2 337.5 L 350.9 337.5 L 350.9 335.6 L 352.1 335.6 Q 354.1 335.6, 355.2 334.7 Q 356.3 333.8, 356.3 332.1 Q 356.3 330.9, 355.4 330.2 Q 354.5 329.4, 352.9 329.4 Q 351.4 329.4, 350.4 330.0 Q 349.4 330.5, 348.7 331.9 L 346.8 331.0 Q 347.5 329.4, 349.1 328.3 Q 350.7 327.3, 352.9 327.3 Q 355.7 327.3, 357.4 328.6 Q 359.0 329.9, 359.0 332.1 Q 359.0 333.6, 358.2 334.7 Q 357.3 335.8, 355.7 336.4 " fill="#000000"/>
<path class="atom-3" d="M 399.7 308.8 L 402.2 308.8 L 402.2 316.8 L 411.9 316.8 L 411.9 308.8 L 414.5 308.8 L 414.5 327.7 L 411.9 327.7 L 411.9 318.9 L 402.2 318.9 L 402.2 327.7 L 399.7 327.7 L 399.7 308.8 " fill="#000000"/>
<path class="atom-3" d="M 416.7 324.6 L 419.4 324.6 L 419.4 327.2 L 416.7 327.2 L 416.7 324.6 M 416.7 315.4 L 419.4 315.4 L 419.4 318.0 L 416.7 318.0 L 416.7 315.4 " fill="#000000"/>
<path class="atom-3" d="M 433.7 321.2 L 436.0 321.2 L 436.0 323.3 L 433.7 323.3 L 433.7 327.7 L 431.2 327.7 L 431.2 323.3 L 421.4 323.3 L 421.4 321.6 L 429.7 308.8 L 433.7 308.8 L 433.7 321.2 M 424.5 321.2 L 431.2 321.2 L 431.2 310.5 L 424.5 321.2 " fill="#000000"/>
<path class="atom-4" d="M 354.0 224.5 Q 354.0 219.8, 356.1 217.3 Q 358.4 214.8, 362.6 214.8 Q 366.5 214.8, 368.6 217.6 L 366.8 219.0 Q 365.3 217.0, 362.6 217.0 Q 359.7 217.0, 358.2 218.9 Q 356.7 220.8, 356.7 224.5 Q 356.7 228.2, 358.2 230.2 Q 359.8 232.1, 362.9 232.1 Q 364.9 232.1, 367.4 230.8 L 368.1 232.8 Q 367.1 233.5, 365.6 233.8 Q 364.1 234.2, 362.5 234.2 Q 358.4 234.2, 356.1 231.7 Q 354.0 229.2, 354.0 224.5 " fill="#000000"/>
<path class="atom-4" d="M 369.6 230.8 L 372.3 230.8 L 372.3 233.5 L 369.6 233.5 L 369.6 230.8 M 369.6 221.6 L 372.3 221.6 L 372.3 224.3 L 369.6 224.3 L 369.6 221.6 " fill="#000000"/>
<path class="atom-4" d="M 381.2 222.1 Q 382.8 222.1, 384.2 222.9 Q 385.6 223.5, 386.3 224.9 Q 387.1 226.2, 387.1 228.0 Q 387.1 229.9, 386.1 231.4 Q 385.2 232.7, 383.7 233.5 Q 382.1 234.2, 380.3 234.2 Q 378.6 234.2, 377.0 233.5 Q 375.4 232.9, 374.3 231.7 L 375.9 230.0 Q 376.8 231.0, 378.0 231.5 Q 379.2 232.0, 380.4 232.0 Q 382.1 232.0, 383.3 231.0 Q 384.4 229.9, 384.4 228.0 Q 384.4 226.0, 383.3 225.1 Q 382.1 224.1, 380.3 224.1 Q 378.6 224.1, 376.8 224.9 L 375.3 224.2 L 376.2 215.0 L 385.9 215.0 L 385.7 217.2 L 378.4 217.2 L 377.8 222.8 Q 379.5 222.1, 381.2 222.1 " fill="#000000"/>
<path class="atom-5" d="M 250.3 346.1 L 252.9 346.1 L 252.9 354.1 L 262.6 354.1 L 262.6 346.1 L 265.1 346.1 L 265.1 365.0 L 262.6 365.0 L 262.6 356.3 L 252.9 356.3 L 252.9 365.0 L 250.3 365.0 L 250.3 346.1 " fill="#000000"/>
<path class="atom-5" d="M 267.4 361.9 L 270.1 361.9 L 270.1 364.6 L 267.4 364.6 L 267.4 361.9 M 267.4 352.7 L 270.1 352.7 L 270.1 355.4 L 267.4 355.4 L 267.4 352.7 " fill="#000000"/>
<path class="atom-5" d="M 279.5 353.2 Q 281.1 353.2, 282.4 353.9 Q 283.8 354.7, 284.5 356.0 Q 285.2 357.3, 285.2 358.9 Q 285.2 360.8, 284.4 362.2 Q 283.6 363.6, 282.1 364.4 Q 280.7 365.2, 278.8 365.2 Q 275.5 365.2, 273.8 363.0 Q 272.1 360.7, 272.1 356.1 Q 272.1 351.1, 274.2 348.5 Q 276.3 345.9, 280.3 345.9 Q 281.5 345.9, 282.5 346.2 Q 283.5 346.4, 284.5 347.0 L 283.4 348.8 Q 282.0 348.0, 280.3 348.0 Q 277.7 348.0, 276.3 349.8 Q 274.9 351.5, 274.8 355.0 Q 275.7 354.1, 276.9 353.7 Q 278.2 353.2, 279.5 353.2 M 278.9 363.1 Q 279.9 363.1, 280.7 362.5 Q 281.6 362.0, 282.0 361.0 Q 282.5 360.1, 282.5 359.0 Q 282.5 357.3, 281.6 356.3 Q 280.7 355.3, 279.0 355.3 Q 277.8 355.3, 276.7 355.8 Q 275.6 356.3, 274.8 357.1 Q 274.9 360.2, 275.9 361.6 Q 276.9 363.1, 278.9 363.1 " fill="#000000"/>
<path class="atom-6" d="M 354.1 391.6 L 356.6 391.6 L 356.6 399.6 L 366.3 399.6 L 366.3 391.6 L 368.9 391.6 L 368.9 410.5 L 366.3 410.5 L 366.3 401.8 L 356.6 401.8 L 356.6 410.5 L 354.1 410.5 L 354.1 391.6 " fill="#000000"/>
<path class="atom-6" d="M 371.1 407.4 L 373.8 407.4 L 373.8 410.1 L 371.1 410.1 L 371.1 407.4 M 371.1 398.2 L 373.8 398.2 L 373.8 400.9 L 371.1 400.9 L 371.1 398.2 " fill="#000000"/>
<path class="atom-6" d="M 385.7 393.7 L 375.8 393.7 L 375.8 391.6 L 388.4 391.6 L 388.4 393.5 L 380.7 410.5 L 378.2 410.5 L 385.7 393.7 " fill="#000000"/>
<path class="atom-7" d="M 233.4 192.5 Q 233.4 187.8, 235.6 185.3 Q 237.8 182.9, 242.0 182.9 Q 245.9 182.9, 248.0 185.6 L 246.2 187.1 Q 244.7 185.1, 242.0 185.1 Q 239.1 185.1, 237.6 187.0 Q 236.1 188.9, 236.1 192.5 Q 236.1 196.3, 237.7 198.2 Q 239.3 200.1, 242.3 200.1 Q 244.4 200.1, 246.8 198.9 L 247.6 200.9 Q 246.6 201.5, 245.1 201.9 Q 243.6 202.2, 241.9 202.2 Q 237.8 202.2, 235.6 199.7 Q 233.4 197.2, 233.4 192.5 " fill="#000000"/>
<path class="atom-7" d="M 249.1 198.9 L 251.7 198.9 L 251.7 201.6 L 249.1 201.6 L 249.1 198.9 M 249.1 189.7 L 251.7 189.7 L 251.7 192.4 L 249.1 192.4 L 249.1 189.7 " fill="#000000"/>
<path class="atom-7" d="M 263.4 192.0 Q 265.1 192.7, 266.1 193.9 Q 267.1 194.9, 267.1 196.8 Q 267.1 198.4, 266.3 199.7 Q 265.5 200.9, 264.0 201.6 Q 262.5 202.3, 260.5 202.3 Q 257.4 202.3, 255.6 200.8 Q 253.7 199.4, 253.7 196.8 Q 253.7 195.3, 254.6 194.1 Q 255.4 192.9, 257.0 192.1 Q 255.8 191.4, 255.1 190.3 Q 254.4 189.3, 254.4 187.7 Q 254.4 185.5, 256.0 184.2 Q 257.7 182.9, 260.4 182.9 Q 263.2 182.9, 264.8 184.2 Q 266.4 185.5, 266.4 187.7 Q 266.4 189.1, 265.6 190.1 Q 264.9 191.2, 263.4 192.0 M 260.4 184.9 Q 258.9 184.9, 258.0 185.6 Q 257.1 186.4, 257.1 187.7 Q 257.1 188.7, 257.7 189.4 Q 258.3 190.0, 259.1 190.4 Q 260.0 190.7, 261.6 191.3 Q 262.8 190.5, 263.2 189.7 Q 263.8 188.8, 263.8 187.7 Q 263.8 186.4, 262.9 185.6 Q 262.0 184.9, 260.4 184.9 M 260.5 200.3 Q 262.3 200.3, 263.4 199.3 Q 264.4 198.4, 264.4 196.8 Q 264.4 195.8, 263.9 195.1 Q 263.3 194.5, 262.5 194.1 Q 261.6 193.7, 260.1 193.3 L 258.9 192.9 Q 257.6 193.7, 257.0 194.6 Q 256.4 195.6, 256.4 196.8 Q 256.4 198.4, 257.5 199.3 Q 258.7 200.3, 260.5 200.3 " fill="#000000"/>
<path class="atom-8" d="M 112.7 224.8 Q 112.7 220.1, 114.9 217.6 Q 117.2 215.1, 121.4 215.1 Q 125.3 215.1, 127.3 217.9 L 125.6 219.3 Q 124.1 217.3, 121.4 217.3 Q 118.5 217.3, 117.0 219.2 Q 115.5 221.1, 115.5 224.8 Q 115.5 228.5, 117.0 230.4 Q 118.6 232.4, 121.6 232.4 Q 123.7 232.4, 126.2 231.1 L 126.9 233.1 Q 125.9 233.7, 124.4 234.1 Q 122.9 234.5, 121.3 234.5 Q 117.2 234.5, 114.9 232.0 Q 112.7 229.5, 112.7 224.8 " fill="#000000"/>
<path class="atom-8" d="M 128.4 231.1 L 131.1 231.1 L 131.1 233.8 L 128.4 233.8 L 128.4 231.1 M 128.4 221.9 L 131.1 221.9 L 131.1 224.6 L 128.4 224.6 L 128.4 221.9 " fill="#000000"/>
<path class="atom-8" d="M 139.5 215.1 Q 142.8 215.1, 144.5 217.4 Q 146.2 219.7, 146.2 224.2 Q 146.2 229.3, 144.1 231.9 Q 142.0 234.5, 138.0 234.5 Q 136.8 234.5, 135.8 234.2 Q 134.8 233.9, 133.8 233.4 L 134.9 231.6 Q 136.3 232.3, 138.0 232.3 Q 140.6 232.3, 142.0 230.6 Q 143.4 228.9, 143.5 225.3 Q 142.6 226.2, 141.3 226.7 Q 140.1 227.1, 138.8 227.1 Q 137.2 227.1, 135.8 226.4 Q 134.5 225.7, 133.8 224.4 Q 133.1 223.1, 133.1 221.4 Q 133.1 219.6, 133.9 218.2 Q 134.7 216.7, 136.2 215.9 Q 137.6 215.1, 139.5 215.1 M 135.8 221.4 Q 135.8 223.1, 136.7 224.0 Q 137.6 225.0, 139.3 225.0 Q 140.4 225.0, 141.6 224.5 Q 142.7 224.1, 143.5 223.3 Q 143.4 220.1, 142.4 218.7 Q 141.4 217.3, 139.4 217.3 Q 138.4 217.3, 137.6 217.8 Q 136.7 218.4, 136.2 219.3 Q 135.8 220.2, 135.8 221.4 " fill="#000000"/>
<path class="atom-9" d="M 152.4 176.5 Q 152.4 171.8, 154.6 169.4 Q 156.8 166.9, 161.0 166.9 Q 164.9 166.9, 167.0 169.6 L 165.2 171.1 Q 163.7 169.1, 161.0 169.1 Q 158.2 169.1, 156.6 171.0 Q 155.1 172.9, 155.1 176.5 Q 155.1 180.3, 156.7 182.2 Q 158.3 184.1, 161.3 184.1 Q 163.4 184.1, 165.8 182.9 L 166.6 184.9 Q 165.6 185.5, 164.1 185.9 Q 162.6 186.3, 160.9 186.3 Q 156.8 186.3, 154.6 183.8 Q 152.4 181.2, 152.4 176.5 " fill="#000000"/>
<path class="atom-9" d="M 168.1 182.9 L 170.8 182.9 L 170.8 185.6 L 168.1 185.6 L 168.1 182.9 M 168.1 173.7 L 170.8 173.7 L 170.8 176.4 L 168.1 176.4 L 168.1 173.7 " fill="#000000"/>
<path class="atom-9" d="M 173.8 183.9 L 177.9 183.9 L 177.9 169.7 L 173.4 171.2 L 172.8 169.6 L 178.6 167.0 L 180.5 167.3 L 180.5 183.9 L 184.2 183.9 L 184.2 186.0 L 173.8 186.0 L 173.8 183.9 " fill="#000000"/>
<path class="atom-9" d="M 192.2 186.2 Q 188.8 186.2, 187.0 183.7 Q 185.3 181.1, 185.3 176.5 Q 185.3 172.0, 187.0 169.4 Q 188.7 166.9, 192.2 166.9 Q 195.7 166.9, 197.4 169.4 Q 199.2 172.0, 199.2 176.5 Q 199.2 181.1, 197.4 183.7 Q 195.7 186.2, 192.2 186.2 M 192.2 184.1 Q 194.3 184.1, 195.4 182.2 Q 196.5 180.3, 196.5 176.5 Q 196.5 172.8, 195.4 170.9 Q 194.3 169.0, 192.2 169.0 Q 190.2 169.0, 189.1 170.9 Q 188.0 172.8, 188.0 176.5 Q 188.0 180.3, 189.1 182.2 Q 190.2 184.1, 192.2 184.1 " fill="#000000"/>
<path class="atom-10" d="M 125.9 289.0 Q 125.9 284.3, 128.1 281.8 Q 130.4 279.3, 134.6 279.3 Q 138.5 279.3, 140.5 282.1 L 138.8 283.5 Q 137.3 281.5, 134.6 281.5 Q 131.7 281.5, 130.2 283.4 Q 128.7 285.3, 128.7 289.0 Q 128.7 292.7, 130.2 294.6 Q 131.8 296.6, 134.8 296.6 Q 136.9 296.6, 139.4 295.3 L 140.1 297.3 Q 139.1 298.0, 137.6 298.3 Q 136.1 298.7, 134.5 298.7 Q 130.4 298.7, 128.1 296.2 Q 125.9 293.7, 125.9 289.0 " fill="#000000"/>
<path class="atom-10" d="M 141.6 295.3 L 144.3 295.3 L 144.3 298.0 L 141.6 298.0 L 141.6 295.3 M 141.6 286.1 L 144.3 286.1 L 144.3 288.8 L 141.6 288.8 L 141.6 286.1 " fill="#000000"/>
<path class="atom-10" d="M 147.3 296.3 L 151.5 296.3 L 151.5 282.2 L 146.9 283.6 L 146.3 282.0 L 152.1 279.4 L 154.0 279.7 L 154.0 296.3 L 157.7 296.3 L 157.7 298.5 L 147.3 298.5 L 147.3 296.3 " fill="#000000"/>
<path class="atom-10" d="M 159.9 296.3 L 164.0 296.3 L 164.0 282.2 L 159.4 283.6 L 158.8 282.0 L 164.6 279.4 L 166.5 279.7 L 166.5 296.3 L 170.3 296.3 L 170.3 298.5 L 159.9 298.5 L 159.9 296.3 " fill="#000000"/>
<path class="atom-11" d="M 190.2 305.0 Q 190.2 300.2, 192.4 297.8 Q 194.6 295.3, 198.8 295.3 Q 202.7 295.3, 204.8 298.1 L 203.0 299.5 Q 201.5 297.5, 198.8 297.5 Q 195.9 297.5, 194.4 299.4 Q 192.9 301.3, 192.9 305.0 Q 192.9 308.7, 194.5 310.6 Q 196.0 312.5, 199.1 312.5 Q 201.2 312.5, 203.6 311.3 L 204.4 313.3 Q 203.4 313.9, 201.9 314.3 Q 200.4 314.7, 198.7 314.7 Q 194.6 314.7, 192.4 312.2 Q 190.2 309.7, 190.2 305.0 " fill="#000000"/>
<path class="atom-11" d="M 205.9 311.3 L 208.5 311.3 L 208.5 314.0 L 205.9 314.0 L 205.9 311.3 M 205.9 302.1 L 208.5 302.1 L 208.5 304.8 L 205.9 304.8 L 205.9 302.1 " fill="#000000"/>
<path class="atom-11" d="M 211.6 312.3 L 215.7 312.3 L 215.7 298.2 L 211.2 299.6 L 210.5 298.0 L 216.3 295.4 L 218.2 295.7 L 218.2 312.3 L 222.0 312.3 L 222.0 314.4 L 211.6 314.4 L 211.6 312.3 " fill="#000000"/>
<path class="atom-11" d="M 223.1 299.1 Q 223.8 297.3, 225.5 296.3 Q 227.1 295.3, 229.4 295.3 Q 232.3 295.3, 233.9 296.9 Q 235.5 298.4, 235.5 301.2 Q 235.5 304.0, 233.4 306.6 Q 231.4 309.2, 227.1 312.3 L 235.8 312.3 L 235.8 314.4 L 223.1 314.4 L 223.1 312.7 Q 226.6 310.1, 228.7 308.3 Q 230.8 306.4, 231.8 304.7 Q 232.8 303.0, 232.8 301.3 Q 232.8 299.5, 231.9 298.5 Q 231.0 297.4, 229.4 297.4 Q 227.9 297.4, 226.9 298.1 Q 225.9 298.7, 225.2 300.0 L 223.1 299.1 " fill="#000000"/>
<path class="atom-12" d="M 312.7 160.3 Q 312.7 155.6, 314.9 153.1 Q 317.1 150.6, 321.3 150.6 Q 325.2 150.6, 327.3 153.4 L 325.5 154.8 Q 324.0 152.8, 321.3 152.8 Q 318.4 152.8, 316.9 154.7 Q 315.4 156.6, 315.4 160.3 Q 315.4 164.0, 316.9 165.9 Q 318.5 167.9, 321.6 167.9 Q 323.6 167.9, 326.1 166.6 L 326.8 168.6 Q 325.8 169.3, 324.3 169.6 Q 322.8 170.0, 321.2 170.0 Q 317.1 170.0, 314.9 167.5 Q 312.7 165.0, 312.7 160.3 " fill="#000000"/>
<path class="atom-12" d="M 328.3 166.6 L 331.0 166.6 L 331.0 169.3 L 328.3 169.3 L 328.3 166.6 M 328.3 157.4 L 331.0 157.4 L 331.0 160.1 L 328.3 160.1 L 328.3 157.4 " fill="#000000"/>
<path class="atom-12" d="M 334.1 167.6 L 338.2 167.6 L 338.2 153.5 L 333.6 154.9 L 333.0 153.3 L 338.8 150.7 L 340.7 151.0 L 340.7 167.6 L 344.4 167.6 L 344.4 169.8 L 334.1 169.8 L 334.1 167.6 " fill="#000000"/>
<path class="atom-12" d="M 354.6 159.8 Q 356.5 160.3, 357.4 161.5 Q 358.3 162.7, 358.3 164.6 Q 358.3 166.2, 357.5 167.4 Q 356.7 168.7, 355.2 169.4 Q 353.7 170.0, 351.8 170.0 Q 349.8 170.0, 348.3 169.3 Q 346.8 168.6, 345.6 167.2 L 347.1 165.6 Q 348.3 166.9, 349.2 167.4 Q 350.2 167.9, 351.8 167.9 Q 353.5 167.9, 354.6 167.0 Q 355.6 166.0, 355.6 164.5 Q 355.6 162.6, 354.5 161.8 Q 353.4 160.9, 351.1 160.9 L 349.7 160.9 L 349.7 159.0 L 351.0 159.0 Q 353.0 158.9, 354.1 158.1 Q 355.2 157.1, 355.2 155.5 Q 355.2 154.2, 354.3 153.5 Q 353.4 152.8, 351.8 152.8 Q 350.3 152.8, 349.3 153.3 Q 348.3 153.9, 347.6 155.3 L 345.7 154.3 Q 346.4 152.7, 348.0 151.7 Q 349.6 150.6, 351.8 150.6 Q 354.6 150.6, 356.2 151.9 Q 357.9 153.2, 357.9 155.5 Q 357.9 157.0, 357.1 158.1 Q 356.2 159.2, 354.6 159.8 " fill="#000000"/>
<path class="atom-13" d="M 426.8 240.4 Q 426.8 235.9, 429.0 233.4 Q 431.2 230.8, 435.4 230.8 Q 439.6 230.8, 441.9 233.4 Q 444.1 235.9, 444.1 240.4 Q 444.1 245.0, 441.9 247.7 Q 439.6 250.3, 435.4 250.3 Q 431.3 250.3, 429.0 247.7 Q 426.8 245.1, 426.8 240.4 M 435.4 248.1 Q 438.3 248.1, 439.9 246.2 Q 441.5 244.2, 441.5 240.4 Q 441.5 236.7, 439.9 234.9 Q 438.3 233.0, 435.4 233.0 Q 432.6 233.0, 431.0 234.8 Q 429.4 236.7, 429.4 240.4 Q 429.4 244.3, 431.0 246.2 Q 432.6 248.1, 435.4 248.1 " fill="#FF0000"/>
<path class="atom-13" d="M 445.5 246.8 L 448.2 246.8 L 448.2 249.5 L 445.5 249.5 L 445.5 246.8 M 445.5 237.6 L 448.2 237.6 L 448.2 240.3 L 445.5 240.3 L 445.5 237.6 " fill="#FF0000"/>
<path class="atom-13" d="M 451.2 247.8 L 455.3 247.8 L 455.3 233.7 L 450.8 235.1 L 450.2 233.5 L 456.0 230.9 L 457.9 231.2 L 457.9 247.8 L 461.6 247.8 L 461.6 250.0 L 451.2 250.0 L 451.2 247.8 " fill="#FF0000"/>
<path class="atom-13" d="M 475.0 243.5 L 477.3 243.5 L 477.3 245.6 L 475.0 245.6 L 475.0 250.0 L 472.5 250.0 L 472.5 245.6 L 462.7 245.6 L 462.7 243.9 L 471.0 231.0 L 475.0 231.0 L 475.0 243.5 M 465.8 243.5 L 472.5 243.5 L 472.5 232.7 L 465.8 243.5 " fill="#FF0000"/>
<path class="atom-14" d="M 263.9 158.1 L 266.5 158.1 L 266.5 166.1 L 276.1 166.1 L 276.1 158.1 L 278.7 158.1 L 278.7 177.0 L 276.1 177.0 L 276.1 168.3 L 266.5 168.3 L 266.5 177.0 L 263.9 177.0 L 263.9 158.1 " fill="#000000"/>
<path class="atom-14" d="M 281.0 173.9 L 283.7 173.9 L 283.7 176.6 L 281.0 176.6 L 281.0 173.9 M 281.0 164.7 L 283.7 164.7 L 283.7 167.4 L 281.0 167.4 L 281.0 164.7 " fill="#000000"/>
<path class="atom-14" d="M 286.7 174.9 L 290.9 174.9 L 290.9 160.7 L 286.3 162.2 L 285.7 160.6 L 291.5 158.0 L 293.4 158.3 L 293.4 174.9 L 297.1 174.9 L 297.1 177.0 L 286.7 177.0 L 286.7 174.9 " fill="#000000"/>
<path class="atom-14" d="M 305.1 165.2 Q 306.7 165.2, 308.1 165.9 Q 309.5 166.6, 310.2 167.9 Q 311.0 169.2, 311.0 171.0 Q 311.0 173.0, 310.1 174.4 Q 309.1 175.8, 307.6 176.5 Q 306.0 177.2, 304.3 177.2 Q 302.5 177.2, 300.9 176.6 Q 299.3 176.0, 298.2 174.7 L 299.8 173.1 Q 300.7 174.0, 301.9 174.6 Q 303.1 175.1, 304.3 175.1 Q 306.0 175.1, 307.2 174.0 Q 308.3 173.0, 308.3 171.1 Q 308.3 169.1, 307.2 168.1 Q 306.0 167.2, 304.2 167.2 Q 302.5 167.2, 300.7 167.9 L 299.2 167.2 L 300.1 158.1 L 309.8 158.1 L 309.6 160.2 L 302.3 160.2 L 301.7 165.8 Q 303.4 165.2, 305.1 165.2 " fill="#000000"/>
<path class="atom-15" d="M 149.8 102.9 L 152.3 102.9 L 152.3 110.9 L 162.0 110.9 L 162.0 102.9 L 164.6 102.9 L 164.6 121.8 L 162.0 121.8 L 162.0 113.1 L 152.3 113.1 L 152.3 121.8 L 149.8 121.8 L 149.8 102.9 " fill="#000000"/>
<path class="atom-15" d="M 166.8 118.7 L 169.5 118.7 L 169.5 121.4 L 166.8 121.4 L 166.8 118.7 M 166.8 109.5 L 169.5 109.5 L 169.5 112.2 L 166.8 112.2 L 166.8 109.5 " fill="#000000"/>
<path class="atom-15" d="M 172.6 119.7 L 176.7 119.7 L 176.7 105.5 L 172.1 106.9 L 171.5 105.4 L 177.3 102.8 L 179.2 103.1 L 179.2 119.7 L 182.9 119.7 L 182.9 121.8 L 172.6 121.8 L 172.6 119.7 " fill="#000000"/>
<path class="atom-15" d="M 191.5 110.0 Q 193.1 110.0, 194.4 110.7 Q 195.8 111.4, 196.5 112.7 Q 197.2 114.1, 197.2 115.7 Q 197.2 117.6, 196.4 119.0 Q 195.6 120.4, 194.1 121.2 Q 192.7 122.0, 190.8 122.0 Q 187.5 122.0, 185.8 119.8 Q 184.1 117.5, 184.1 112.9 Q 184.1 107.9, 186.2 105.3 Q 188.3 102.7, 192.3 102.7 Q 193.5 102.7, 194.5 102.9 Q 195.5 103.2, 196.5 103.8 L 195.4 105.6 Q 194.0 104.8, 192.3 104.8 Q 189.7 104.8, 188.3 106.5 Q 186.9 108.3, 186.8 111.8 Q 187.7 110.9, 188.9 110.5 Q 190.2 110.0, 191.5 110.0 M 190.9 119.8 Q 191.9 119.8, 192.7 119.3 Q 193.6 118.8, 194.0 117.8 Q 194.5 116.9, 194.5 115.7 Q 194.5 114.1, 193.6 113.1 Q 192.7 112.1, 191.0 112.1 Q 189.8 112.1, 188.7 112.6 Q 187.6 113.1, 186.8 113.9 Q 186.9 117.0, 187.9 118.4 Q 188.9 119.8, 190.9 119.8 " fill="#000000"/>
<path class="atom-16" d="M 61.2 327.7 L 63.8 327.7 L 63.8 335.8 L 73.5 335.8 L 73.5 327.7 L 76.0 327.7 L 76.0 346.6 L 73.5 346.6 L 73.5 337.9 L 63.8 337.9 L 63.8 346.6 L 61.2 346.6 L 61.2 327.7 " fill="#000000"/>
<path class="atom-16" d="M 78.3 343.5 L 81.0 343.5 L 81.0 346.2 L 78.3 346.2 L 78.3 343.5 M 78.3 334.3 L 81.0 334.3 L 81.0 337.0 L 78.3 337.0 L 78.3 334.3 " fill="#000000"/>
<path class="atom-16" d="M 84.0 344.5 L 88.2 344.5 L 88.2 330.4 L 83.6 331.8 L 83.0 330.2 L 88.8 327.6 L 90.7 327.9 L 90.7 344.5 L 94.4 344.5 L 94.4 346.6 L 84.0 346.6 L 84.0 344.5 " fill="#000000"/>
<path class="atom-16" d="M 105.4 329.8 L 95.5 329.8 L 95.5 327.7 L 108.1 327.7 L 108.1 329.6 L 100.4 346.6 L 97.9 346.6 L 105.4 329.8 " fill="#000000"/>
<path class="atom-17" d="M 224.2 359.7 L 226.8 359.7 L 226.8 367.8 L 236.5 367.8 L 236.5 359.7 L 239.0 359.7 L 239.0 378.7 L 236.5 378.7 L 236.5 369.9 L 226.8 369.9 L 226.8 378.7 L 224.2 378.7 L 224.2 359.7 " fill="#000000"/>
<path class="atom-17" d="M 241.3 375.5 L 244.0 375.5 L 244.0 378.2 L 241.3 378.2 L 241.3 375.5 M 241.3 366.3 L 244.0 366.3 L 244.0 369.0 L 241.3 369.0 L 241.3 366.3 " fill="#000000"/>
<path class="atom-17" d="M 247.0 376.5 L 251.2 376.5 L 251.2 362.4 L 246.6 363.8 L 246.0 362.2 L 251.8 359.6 L 253.7 359.9 L 253.7 376.5 L 257.4 376.5 L 257.4 378.7 L 247.0 378.7 L 247.0 376.5 " fill="#000000"/>
<path class="atom-17" d="M 268.2 368.6 Q 269.9 369.4, 270.9 370.5 Q 271.9 371.6, 271.9 373.5 Q 271.9 375.1, 271.1 376.3 Q 270.2 377.6, 268.7 378.3 Q 267.3 378.9, 265.3 378.9 Q 262.2 378.9, 260.4 377.5 Q 258.5 376.0, 258.5 373.5 Q 258.5 371.9, 259.3 370.8 Q 260.1 369.6, 261.8 368.7 Q 260.6 368.0, 259.9 367.0 Q 259.2 366.0, 259.2 364.4 Q 259.2 362.1, 260.8 360.8 Q 262.5 359.5, 265.2 359.5 Q 268.0 359.5, 269.6 360.8 Q 271.2 362.1, 271.2 364.4 Q 271.2 365.7, 270.4 366.8 Q 269.7 367.8, 268.2 368.6 M 265.2 361.5 Q 263.6 361.5, 262.8 362.3 Q 261.9 363.0, 261.9 364.4 Q 261.9 365.3, 262.5 366.0 Q 263.1 366.7, 263.9 367.0 Q 264.8 367.4, 266.4 368.0 Q 267.5 367.2, 268.0 366.3 Q 268.5 365.4, 268.5 364.4 Q 268.5 363.0, 267.7 362.3 Q 266.8 361.5, 265.2 361.5 M 265.3 376.9 Q 267.1 376.9, 268.2 376.0 Q 269.2 375.0, 269.2 373.4 Q 269.2 372.4, 268.7 371.8 Q 268.1 371.1, 267.2 370.8 Q 266.4 370.4, 264.9 369.9 L 263.7 369.5 Q 262.4 370.3, 261.8 371.3 Q 261.2 372.2, 261.2 373.4 Q 261.2 375.0, 262.3 376.0 Q 263.5 376.9, 265.3 376.9 " fill="#000000"/>
<path class="atom-18" d="M 274.7 166.4 L 277.3 166.4 L 277.3 174.4 L 287.0 174.4 L 287.0 166.4 L 289.6 166.4 L 289.6 185.3 L 287.0 185.3 L 287.0 176.6 L 277.3 176.6 L 277.3 185.3 L 274.7 185.3 L 274.7 166.4 " fill="#000000"/>
<path class="atom-18" d="M 291.8 182.2 L 294.5 182.2 L 294.5 184.8 L 291.8 184.8 L 291.8 182.2 M 291.8 173.0 L 294.5 173.0 L 294.5 175.6 L 291.8 175.6 L 291.8 173.0 " fill="#000000"/>
<path class="atom-18" d="M 297.6 183.2 L 301.7 183.2 L 301.7 169.0 L 297.1 170.4 L 296.5 168.9 L 302.3 166.3 L 304.2 166.6 L 304.2 183.2 L 307.9 183.2 L 307.9 185.3 L 297.6 185.3 L 297.6 183.2 " fill="#000000"/>
<path class="atom-18" d="M 315.4 166.1 Q 318.8 166.1, 320.5 168.4 Q 322.2 170.7, 322.2 175.3 Q 322.2 180.3, 320.1 182.9 Q 318.0 185.5, 314.0 185.5 Q 312.8 185.5, 311.8 185.2 Q 310.8 185.0, 309.8 184.4 L 310.8 182.6 Q 312.2 183.4, 313.9 183.4 Q 316.6 183.4, 318.0 181.7 Q 319.3 179.9, 319.5 176.4 Q 318.5 177.2, 317.3 177.7 Q 316.1 178.2, 314.8 178.2 Q 313.1 178.2, 311.8 177.5 Q 310.5 176.7, 309.8 175.4 Q 309.1 174.1, 309.1 172.5 Q 309.1 170.6, 309.9 169.2 Q 310.7 167.8, 312.1 167.0 Q 313.6 166.1, 315.4 166.1 M 311.7 172.4 Q 311.7 174.1, 312.7 175.1 Q 313.6 176.0, 315.3 176.0 Q 316.4 176.0, 317.5 175.6 Q 318.7 175.1, 319.5 174.3 Q 319.4 171.2, 318.4 169.8 Q 317.4 168.3, 315.4 168.3 Q 314.4 168.3, 313.5 168.9 Q 312.7 169.4, 312.2 170.3 Q 311.7 171.3, 311.7 172.4 " fill="#000000"/>
<path class="atom-19" d="M 408.7 132.2 L 411.3 132.2 L 411.3 140.3 L 421.0 140.3 L 421.0 132.2 L 423.5 132.2 L 423.5 151.1 L 421.0 151.1 L 421.0 142.4 L 411.3 142.4 L 411.3 151.1 L 408.7 151.1 L 408.7 132.2 " fill="#000000"/>
<path class="atom-19" d="M 425.8 148.0 L 428.5 148.0 L 428.5 150.7 L 425.8 150.7 L 425.8 148.0 M 425.8 138.8 L 428.5 138.8 L 428.5 141.5 L 425.8 141.5 L 425.8 138.8 " fill="#000000"/>
<path class="atom-19" d="M 430.5 135.8 Q 431.2 134.0, 432.9 133.0 Q 434.6 132.0, 436.9 132.0 Q 439.7 132.0, 441.3 133.6 Q 442.9 135.1, 442.9 137.9 Q 442.9 140.7, 440.8 143.3 Q 438.8 145.9, 434.5 149.0 L 443.2 149.0 L 443.2 151.1 L 430.5 151.1 L 430.5 149.4 Q 434.0 146.8, 436.1 145.0 Q 438.2 143.1, 439.2 141.4 Q 440.2 139.7, 440.2 138.0 Q 440.2 136.2, 439.3 135.2 Q 438.4 134.1, 436.9 134.1 Q 435.3 134.1, 434.3 134.8 Q 433.3 135.4, 432.6 136.7 L 430.5 135.8 " fill="#000000"/>
<path class="atom-19" d="M 451.8 151.4 Q 448.3 151.4, 446.6 148.8 Q 444.8 146.2, 444.8 141.7 Q 444.8 137.1, 446.6 134.5 Q 448.3 132.0, 451.8 132.0 Q 455.3 132.0, 457.0 134.5 Q 458.7 137.1, 458.7 141.7 Q 458.7 146.2, 457.0 148.8 Q 455.3 151.4, 451.8 151.4 M 451.8 149.2 Q 453.8 149.2, 454.9 147.3 Q 456.0 145.4, 456.0 141.7 Q 456.0 137.9, 454.9 136.0 Q 453.8 134.1, 451.8 134.1 Q 449.7 134.1, 448.6 136.0 Q 447.5 137.9, 447.5 141.7 Q 447.5 145.4, 448.6 147.3 Q 449.7 149.2, 451.8 149.2 " fill="#000000"/>
<path class="atom-20" d="M 22.7 199.3 L 25.3 199.3 L 25.3 207.4 L 35.0 207.4 L 35.0 199.3 L 37.5 199.3 L 37.5 218.3 L 35.0 218.3 L 35.0 209.5 L 25.3 209.5 L 25.3 218.3 L 22.7 218.3 L 22.7 199.3 " fill="#000000"/>
<path class="atom-20" d="M 39.8 215.1 L 42.5 215.1 L 42.5 217.8 L 39.8 217.8 L 39.8 215.1 M 39.8 205.9 L 42.5 205.9 L 42.5 208.6 L 39.8 208.6 L 39.8 205.9 " fill="#000000"/>
<path class="atom-20" d="M 44.5 202.9 Q 45.2 201.1, 46.9 200.1 Q 48.6 199.1, 50.9 199.1 Q 53.7 199.1, 55.3 200.7 Q 56.9 202.2, 56.9 205.0 Q 56.9 207.8, 54.8 210.4 Q 52.8 213.0, 48.5 216.1 L 57.3 216.1 L 57.3 218.3 L 44.5 218.3 L 44.5 216.5 Q 48.0 214.0, 50.1 212.1 Q 52.2 210.2, 53.2 208.5 Q 54.3 206.8, 54.3 205.1 Q 54.3 203.3, 53.3 202.3 Q 52.4 201.3, 50.9 201.3 Q 49.3 201.3, 48.3 201.9 Q 47.3 202.5, 46.6 203.9 L 44.5 202.9 " fill="#000000"/>
<path class="atom-20" d="M 59.9 216.1 L 64.0 216.1 L 64.0 202.0 L 59.5 203.4 L 58.9 201.8 L 64.7 199.2 L 66.6 199.5 L 66.6 216.1 L 70.3 216.1 L 70.3 218.3 L 59.9 218.3 L 59.9 216.1 " fill="#000000"/>
<path class="atom-21" d="M 325.9 86.6 L 328.5 86.6 L 328.5 94.7 L 338.1 94.7 L 338.1 86.6 L 340.7 86.6 L 340.7 105.6 L 338.1 105.6 L 338.1 96.8 L 328.5 96.8 L 328.5 105.6 L 325.9 105.6 L 325.9 86.6 " fill="#000000"/>
<path class="atom-21" d="M 343.0 102.4 L 345.7 102.4 L 345.7 105.1 L 343.0 105.1 L 343.0 102.4 M 343.0 93.2 L 345.7 93.2 L 345.7 95.9 L 343.0 95.9 L 343.0 93.2 " fill="#000000"/>
<path class="atom-21" d="M 347.7 90.2 Q 348.4 88.4, 350.1 87.4 Q 351.7 86.4, 354.0 86.4 Q 356.9 86.4, 358.5 88.0 Q 360.1 89.5, 360.1 92.3 Q 360.1 95.1, 358.0 97.7 Q 356.0 100.3, 351.7 103.4 L 360.4 103.4 L 360.4 105.6 L 347.7 105.6 L 347.7 103.8 Q 351.2 101.2, 353.3 99.4 Q 355.4 97.5, 356.4 95.8 Q 357.4 94.1, 357.4 92.4 Q 357.4 90.6, 356.5 89.6 Q 355.6 88.5, 354.0 88.5 Q 352.5 88.5, 351.5 89.2 Q 350.5 89.8, 349.7 91.1 L 347.7 90.2 " fill="#000000"/>
<path class="atom-21" d="M 362.1 90.2 Q 362.8 88.4, 364.4 87.4 Q 366.1 86.4, 368.4 86.4 Q 371.2 86.4, 372.9 88.0 Q 374.5 89.5, 374.5 92.3 Q 374.5 95.1, 372.4 97.7 Q 370.3 100.3, 366.0 103.4 L 374.8 103.4 L 374.8 105.6 L 362.0 105.6 L 362.0 103.8 Q 365.6 101.2, 367.6 99.4 Q 369.7 97.5, 370.8 95.8 Q 371.8 94.1, 371.8 92.4 Q 371.8 90.6, 370.9 89.6 Q 370.0 88.5, 368.4 88.5 Q 366.9 88.5, 365.8 89.2 Q 364.8 89.8, 364.1 91.1 L 362.1 90.2 " fill="#000000"/>
<text x="333.5387857626082" y="304.735073058392" font-size="12" font-family="Verdana" font-weight="bold" letter-spacing="0" text-anchor="start" fill="black" transform=" rotate(-16.167575 333.538786 304.735073)">0.0132</text><text x="25" y="490" font-size="12" font-family="Verdana" font-weight="bold" letter-spacing="0" text-anchor="start" fill="black">[#6:1]1(-[#7:2](-[#6:3](-[H:4])(-[H:6])-[H:7])-[#6:5](-[#6:13](-[H:19])(-[H:20])-[H:22])=[#8:14]):[#6:8](:[#6:10](:[#6:9](:[#6:11](:[#6:12]:1-[H:18])-[H:17])-[H:21])-[H:16])-[H:15]</text></svg>
