<?xml version='1.0' encoding='ASCII' standalone='yes'?>
<svg xmlns="http://www.w3.org/2000/svg" xmlns:rdkit="http://www.rdkit.org/xml" xmlns:xlink="http://www.w3.org/1999/xlink" version="1.1" baseProfile="full" xml:space="preserve" width="1200px" height="400px" viewBox="0 0 1200 400">
<!-- END OF HEADER -->
<rect style="opacity:1.0;fill:#FFFFFF;stroke:none" width="1200.0" height="400.0" x="0.0" y="0.0"> </rect>
<rect style="opacity:1.0;fill:#FFFFFF;stroke:none" width="1200.0" height="400.0" x="0.0" y="0.0"> </rect>
<rect style="opacity:1.0;fill:#FFFFFF;stroke:none" width="1200.0" height="400.0" x="0.0" y="0.0"> </rect>
<path d="M 201.2,226.0 L 225.2,195.5" style="fill:none;fill-rule:evenodd;stroke:#FF7F7F;stroke-width:8.3px;stroke-linecap:butt;stroke-linejoin:miter;stroke-opacity:1"/>
<path class="bond-0 atom-0 atom-15" d="M 162.8,220.4 L 138.8,250.9" style="fill:none;fill-rule:evenodd;stroke:#000000;stroke-width:2.0px;stroke-linecap:butt;stroke-linejoin:miter;stroke-opacity:1"/>
<path class="bond-0 atom-0 atom-15" d="M 153.1,220.2 L 136.3,241.5" style="fill:none;fill-rule:evenodd;stroke:#000000;stroke-width:2.0px;stroke-linecap:butt;stroke-linejoin:miter;stroke-opacity:1"/>
<path class="bond-1 atom-0 atom-16" d="M 162.8,220.4 L 148.4,184.4" style="fill:none;fill-rule:evenodd;stroke:#000000;stroke-width:2.0px;stroke-linecap:butt;stroke-linejoin:miter;stroke-opacity:1"/>
<path class="bond-3 atom-1 atom-0" d="M 196.1,225.2 L 179.4,222.8" style="fill:none;fill-rule:evenodd;stroke:#0000FF;stroke-width:2.0px;stroke-linecap:butt;stroke-linejoin:miter;stroke-opacity:1"/>
<path class="bond-3 atom-1 atom-0" d="M 179.4,222.8 L 162.8,220.4" style="fill:none;fill-rule:evenodd;stroke:#000000;stroke-width:2.0px;stroke-linecap:butt;stroke-linejoin:miter;stroke-opacity:1"/>
<path class="bond-2 atom-1 atom-2" d="M 206.3,219.5 L 215.7,207.5" style="fill:none;fill-rule:evenodd;stroke:#0000FF;stroke-width:2.0px;stroke-linecap:butt;stroke-linejoin:miter;stroke-opacity:1"/>
<path class="bond-2 atom-1 atom-2" d="M 215.7,207.5 L 225.2,195.5" style="fill:none;fill-rule:evenodd;stroke:#000000;stroke-width:2.0px;stroke-linecap:butt;stroke-linejoin:miter;stroke-opacity:1"/>
<path class="bond-4 atom-1 atom-4" d="M 203.8,232.4 L 208.4,244.1" style="fill:none;fill-rule:evenodd;stroke:#0000FF;stroke-width:2.0px;stroke-linecap:butt;stroke-linejoin:miter;stroke-opacity:1"/>
<path class="bond-4 atom-1 atom-4" d="M 208.4,244.1 L 213.1,255.7" style="fill:none;fill-rule:evenodd;stroke:#000000;stroke-width:2.0px;stroke-linecap:butt;stroke-linejoin:miter;stroke-opacity:1"/>
<path class="bond-5 atom-2 atom-5" d="M 225.2,195.5 L 263.6,201.0" style="fill:none;fill-rule:evenodd;stroke:#000000;stroke-width:2.0px;stroke-linecap:butt;stroke-linejoin:miter;stroke-opacity:1"/>
<path class="bond-7 atom-3 atom-2" d="M 210.8,159.5 L 225.2,195.5" style="fill:none;fill-rule:evenodd;stroke:#000000;stroke-width:2.0px;stroke-linecap:butt;stroke-linejoin:miter;stroke-opacity:1"/>
<path class="bond-7 atom-3 atom-2" d="M 220.1,162.0 L 230.2,187.2" style="fill:none;fill-rule:evenodd;stroke:#000000;stroke-width:2.0px;stroke-linecap:butt;stroke-linejoin:miter;stroke-opacity:1"/>
<path class="bond-6 atom-3 atom-6" d="M 210.8,159.5 L 231.4,126.7" style="fill:none;fill-rule:evenodd;stroke:#000000;stroke-width:2.0px;stroke-linecap:butt;stroke-linejoin:miter;stroke-opacity:1"/>
<path class="bond-8 atom-3 atom-8" d="M 210.8,159.5 L 173.2,150.0" style="fill:none;fill-rule:evenodd;stroke:#000000;stroke-width:2.0px;stroke-linecap:butt;stroke-linejoin:miter;stroke-opacity:1"/>
<path class="bond-9 atom-5 atom-10" d="M 263.6,201.0 L 278.0,237.0" style="fill:none;fill-rule:evenodd;stroke:#000000;stroke-width:2.0px;stroke-linecap:butt;stroke-linejoin:miter;stroke-opacity:1"/>
<path class="bond-9 atom-5 atom-10" d="M 272.9,203.5 L 283.0,228.7" style="fill:none;fill-rule:evenodd;stroke:#000000;stroke-width:2.0px;stroke-linecap:butt;stroke-linejoin:miter;stroke-opacity:1"/>
<path class="bond-10 atom-5 atom-11" d="M 263.6,201.0 L 287.5,170.5" style="fill:none;fill-rule:evenodd;stroke:#000000;stroke-width:2.0px;stroke-linecap:butt;stroke-linejoin:miter;stroke-opacity:1"/>
<path class="bond-11 atom-6 atom-9" d="M 231.4,126.7 L 206.6,96.9" style="fill:none;fill-rule:evenodd;stroke:#000000;stroke-width:2.0px;stroke-linecap:butt;stroke-linejoin:miter;stroke-opacity:1"/>
<path class="bond-11 atom-6 atom-9" d="M 221.8,127.1 L 204.4,106.3" style="fill:none;fill-rule:evenodd;stroke:#000000;stroke-width:2.0px;stroke-linecap:butt;stroke-linejoin:miter;stroke-opacity:1"/>
<path class="bond-12 atom-6 atom-31" d="M 231.4,126.7 L 264.3,120.4" style="fill:none;fill-rule:evenodd;stroke:#000000;stroke-width:2.0px;stroke-linecap:butt;stroke-linejoin:miter;stroke-opacity:1"/>
<path class="bond-13 atom-7 atom-8" d="M 171.0,117.7 L 172.1,133.8" style="fill:none;fill-rule:evenodd;stroke:#0000FF;stroke-width:2.0px;stroke-linecap:butt;stroke-linejoin:miter;stroke-opacity:1"/>
<path class="bond-13 atom-7 atom-8" d="M 172.1,133.8 L 173.2,150.0" style="fill:none;fill-rule:evenodd;stroke:#000000;stroke-width:2.0px;stroke-linecap:butt;stroke-linejoin:miter;stroke-opacity:1"/>
<path class="bond-14 atom-7 atom-9" d="M 175.7,109.2 L 191.2,103.0" style="fill:none;fill-rule:evenodd;stroke:#0000FF;stroke-width:2.0px;stroke-linecap:butt;stroke-linejoin:miter;stroke-opacity:1"/>
<path class="bond-14 atom-7 atom-9" d="M 191.2,103.0 L 206.6,96.9" style="fill:none;fill-rule:evenodd;stroke:#000000;stroke-width:2.0px;stroke-linecap:butt;stroke-linejoin:miter;stroke-opacity:1"/>
<path class="bond-15 atom-7 atom-20" d="M 165.5,108.0 L 154.2,100.9" style="fill:none;fill-rule:evenodd;stroke:#0000FF;stroke-width:2.0px;stroke-linecap:butt;stroke-linejoin:miter;stroke-opacity:1"/>
<path class="bond-15 atom-7 atom-20" d="M 154.2,100.9 L 142.9,93.8" style="fill:none;fill-rule:evenodd;stroke:#000000;stroke-width:2.0px;stroke-linecap:butt;stroke-linejoin:miter;stroke-opacity:1"/>
<path class="bond-16 atom-8 atom-21" d="M 171.5,146.5 L 160.3,151.9" style="fill:none;fill-rule:evenodd;stroke:#000000;stroke-width:2.0px;stroke-linecap:butt;stroke-linejoin:miter;stroke-opacity:1"/>
<path class="bond-16 atom-8 atom-21" d="M 160.3,151.9 L 149.0,157.3" style="fill:none;fill-rule:evenodd;stroke:#FF0000;stroke-width:2.0px;stroke-linecap:butt;stroke-linejoin:miter;stroke-opacity:1"/>
<path class="bond-16 atom-8 atom-21" d="M 174.9,153.4 L 163.6,158.9" style="fill:none;fill-rule:evenodd;stroke:#000000;stroke-width:2.0px;stroke-linecap:butt;stroke-linejoin:miter;stroke-opacity:1"/>
<path class="bond-16 atom-8 atom-21" d="M 163.6,158.9 L 152.4,164.3" style="fill:none;fill-rule:evenodd;stroke:#FF0000;stroke-width:2.0px;stroke-linecap:butt;stroke-linejoin:miter;stroke-opacity:1"/>
<path class="bond-17 atom-9 atom-32" d="M 206.6,96.9 L 214.5,65.7" style="fill:none;fill-rule:evenodd;stroke:#000000;stroke-width:2.0px;stroke-linecap:butt;stroke-linejoin:miter;stroke-opacity:1"/>
<path class="bond-18 atom-10 atom-12" d="M 278.0,237.0 L 316.3,242.6" style="fill:none;fill-rule:evenodd;stroke:#000000;stroke-width:2.0px;stroke-linecap:butt;stroke-linejoin:miter;stroke-opacity:1"/>
<path class="bond-19 atom-10 atom-22" d="M 278.0,237.0 L 259.1,261.0" style="fill:none;fill-rule:evenodd;stroke:#000000;stroke-width:2.0px;stroke-linecap:butt;stroke-linejoin:miter;stroke-opacity:1"/>
<path class="bond-20 atom-11 atom-13" d="M 287.5,170.5 L 325.9,176.1" style="fill:none;fill-rule:evenodd;stroke:#000000;stroke-width:2.0px;stroke-linecap:butt;stroke-linejoin:miter;stroke-opacity:1"/>
<path class="bond-20 atom-11 atom-13" d="M 292.2,179.0 L 319.1,182.9" style="fill:none;fill-rule:evenodd;stroke:#000000;stroke-width:2.0px;stroke-linecap:butt;stroke-linejoin:miter;stroke-opacity:1"/>
<path class="bond-21 atom-11 atom-23" d="M 287.5,170.5 L 279.3,139.5" style="fill:none;fill-rule:evenodd;stroke:#000000;stroke-width:2.0px;stroke-linecap:butt;stroke-linejoin:miter;stroke-opacity:1"/>
<path class="bond-22 atom-12 atom-14" d="M 316.3,242.6 L 340.3,212.1" style="fill:none;fill-rule:evenodd;stroke:#000000;stroke-width:2.0px;stroke-linecap:butt;stroke-linejoin:miter;stroke-opacity:1"/>
<path class="bond-22 atom-12 atom-14" d="M 313.8,233.2 L 330.6,211.9" style="fill:none;fill-rule:evenodd;stroke:#000000;stroke-width:2.0px;stroke-linecap:butt;stroke-linejoin:miter;stroke-opacity:1"/>
<path class="bond-23 atom-12 atom-24" d="M 316.3,242.6 L 328.2,272.1" style="fill:none;fill-rule:evenodd;stroke:#000000;stroke-width:2.0px;stroke-linecap:butt;stroke-linejoin:miter;stroke-opacity:1"/>
<path class="bond-24 atom-13 atom-14" d="M 325.9,176.1 L 340.3,212.1" style="fill:none;fill-rule:evenodd;stroke:#000000;stroke-width:2.0px;stroke-linecap:butt;stroke-linejoin:miter;stroke-opacity:1"/>
<path class="bond-25 atom-13 atom-25" d="M 325.9,176.1 L 344.8,152.1" style="fill:none;fill-rule:evenodd;stroke:#000000;stroke-width:2.0px;stroke-linecap:butt;stroke-linejoin:miter;stroke-opacity:1"/>
<path class="bond-26 atom-14 atom-26" d="M 340.3,212.1 L 373.5,216.9" style="fill:none;fill-rule:evenodd;stroke:#000000;stroke-width:2.0px;stroke-linecap:butt;stroke-linejoin:miter;stroke-opacity:1"/>
<path class="bond-27 atom-15 atom-17" d="M 138.8,250.9 L 100.4,245.4" style="fill:none;fill-rule:evenodd;stroke:#000000;stroke-width:2.0px;stroke-linecap:butt;stroke-linejoin:miter;stroke-opacity:1"/>
<path class="bond-28 atom-15 atom-27" d="M 138.8,250.9 L 150.6,280.5" style="fill:none;fill-rule:evenodd;stroke:#000000;stroke-width:2.0px;stroke-linecap:butt;stroke-linejoin:miter;stroke-opacity:1"/>
<path class="bond-29 atom-16 atom-18" d="M 148.4,184.4 L 110.0,178.9" style="fill:none;fill-rule:evenodd;stroke:#000000;stroke-width:2.0px;stroke-linecap:butt;stroke-linejoin:miter;stroke-opacity:1"/>
<path class="bond-29 atom-16 atom-18" d="M 141.5,191.3 L 114.7,187.4" style="fill:none;fill-rule:evenodd;stroke:#000000;stroke-width:2.0px;stroke-linecap:butt;stroke-linejoin:miter;stroke-opacity:1"/>
<path class="bond-30 atom-16 atom-28" d="M 148.4,184.4 L 154.1,171.6" style="fill:none;fill-rule:evenodd;stroke:#000000;stroke-width:2.0px;stroke-linecap:butt;stroke-linejoin:miter;stroke-opacity:1"/>
<path class="bond-31 atom-17 atom-19" d="M 100.4,245.4 L 86.0,209.4" style="fill:none;fill-rule:evenodd;stroke:#000000;stroke-width:2.0px;stroke-linecap:butt;stroke-linejoin:miter;stroke-opacity:1"/>
<path class="bond-31 atom-17 atom-19" d="M 105.5,237.1 L 95.4,211.9" style="fill:none;fill-rule:evenodd;stroke:#000000;stroke-width:2.0px;stroke-linecap:butt;stroke-linejoin:miter;stroke-opacity:1"/>
<path class="bond-32 atom-17 atom-29" d="M 100.4,245.4 L 81.5,269.4" style="fill:none;fill-rule:evenodd;stroke:#000000;stroke-width:2.0px;stroke-linecap:butt;stroke-linejoin:miter;stroke-opacity:1"/>
<path class="bond-33 atom-18 atom-19" d="M 110.0,178.9 L 86.0,209.4" style="fill:none;fill-rule:evenodd;stroke:#000000;stroke-width:2.0px;stroke-linecap:butt;stroke-linejoin:miter;stroke-opacity:1"/>
<path class="bond-34 atom-18 atom-30" d="M 110.0,178.9 L 98.2,149.3" style="fill:none;fill-rule:evenodd;stroke:#000000;stroke-width:2.0px;stroke-linecap:butt;stroke-linejoin:miter;stroke-opacity:1"/>
<path class="bond-35 atom-19 atom-33" d="M 86.0,209.4 L 52.9,204.6" style="fill:none;fill-rule:evenodd;stroke:#000000;stroke-width:2.0px;stroke-linecap:butt;stroke-linejoin:miter;stroke-opacity:1"/>
<path class="atom-1" d="M 198.8 220.5 L 202.4 226.3 Q 202.7 226.9, 203.3 227.9 Q 203.9 228.9, 203.9 229.0 L 203.9 220.5 L 205.4 220.5 L 205.4 231.5 L 203.8 231.5 L 200.0 225.1 Q 199.5 224.3, 199.1 223.5 Q 198.6 222.6, 198.4 222.4 L 198.4 231.5 L 197.0 231.5 L 197.0 220.5 L 198.8 220.5 " fill="#0000FF"/>
<path class="atom-4" d="M 211.3 256.5 L 212.8 256.5 L 212.8 261.1 L 218.4 261.1 L 218.4 256.5 L 219.9 256.5 L 219.9 267.5 L 218.4 267.5 L 218.4 262.4 L 212.8 262.4 L 212.8 267.5 L 211.3 267.5 L 211.3 256.5 " fill="#000000"/>
<path class="atom-7" d="M 168.2 105.8 L 171.8 111.6 Q 172.1 112.2, 172.7 113.2 Q 173.3 114.2, 173.3 114.3 L 173.3 105.8 L 174.8 105.8 L 174.8 116.7 L 173.3 116.7 L 169.4 110.4 Q 169.0 109.6, 168.5 108.8 Q 168.0 107.9, 167.9 107.7 L 167.9 116.7 L 166.4 116.7 L 166.4 105.8 L 168.2 105.8 " fill="#0000FF"/>
<path class="atom-20" d="M 133.5 85.1 L 135.0 85.1 L 135.0 89.8 L 140.6 89.8 L 140.6 85.1 L 142.1 85.1 L 142.1 96.1 L 140.6 96.1 L 140.6 91.0 L 135.0 91.0 L 135.0 96.1 L 133.5 96.1 L 133.5 85.1 " fill="#000000"/>
<path class="atom-21" d="M 139.8 163.7 Q 139.8 161.0, 141.2 159.5 Q 142.5 158.1, 144.9 158.1 Q 147.3 158.1, 148.6 159.5 Q 149.9 161.0, 149.9 163.7 Q 149.9 166.3, 148.6 167.8 Q 147.3 169.3, 144.9 169.3 Q 142.5 169.3, 141.2 167.8 Q 139.8 166.3, 139.8 163.7 M 144.9 168.1 Q 146.6 168.1, 147.5 167.0 Q 148.4 165.9, 148.4 163.7 Q 148.4 161.5, 147.5 160.4 Q 146.6 159.3, 144.9 159.3 Q 143.2 159.3, 142.3 160.4 Q 141.4 161.5, 141.4 163.7 Q 141.4 165.9, 142.3 167.0 Q 143.2 168.1, 144.9 168.1 " fill="#FF0000"/>
<path class="atom-22" d="M 249.7 262.0 L 251.2 262.0 L 251.2 266.7 L 256.8 266.7 L 256.8 262.0 L 258.3 262.0 L 258.3 273.0 L 256.8 273.0 L 256.8 267.9 L 251.2 267.9 L 251.2 273.0 L 249.7 273.0 L 249.7 262.0 " fill="#000000"/>
<path class="atom-23" d="M 273.3 127.6 L 274.8 127.6 L 274.8 132.2 L 280.5 132.2 L 280.5 127.6 L 281.9 127.6 L 281.9 138.5 L 280.5 138.5 L 280.5 133.5 L 274.8 133.5 L 274.8 138.5 L 273.3 138.5 L 273.3 127.6 " fill="#000000"/>
<path class="atom-24" d="M 326.4 273.1 L 327.9 273.1 L 327.9 277.8 L 333.6 277.8 L 333.6 273.1 L 335.0 273.1 L 335.0 284.1 L 333.6 284.1 L 333.6 279.0 L 327.9 279.0 L 327.9 284.1 L 326.4 284.1 L 326.4 273.1 " fill="#000000"/>
<path class="atom-25" d="M 345.6 140.1 L 347.1 140.1 L 347.1 144.8 L 352.7 144.8 L 352.7 140.1 L 354.2 140.1 L 354.2 151.1 L 352.7 151.1 L 352.7 146.0 L 347.1 146.0 L 347.1 151.1 L 345.6 151.1 L 345.6 140.1 " fill="#000000"/>
<path class="atom-26" d="M 374.4 212.1 L 375.9 212.1 L 375.9 216.8 L 381.5 216.8 L 381.5 212.1 L 383.0 212.1 L 383.0 223.1 L 381.5 223.1 L 381.5 218.0 L 375.9 218.0 L 375.9 223.1 L 374.4 223.1 L 374.4 212.1 " fill="#000000"/>
<path class="atom-27" d="M 148.9 281.4 L 150.4 281.4 L 150.4 286.1 L 156.0 286.1 L 156.0 281.4 L 157.5 281.4 L 157.5 292.4 L 156.0 292.4 L 156.0 287.3 L 150.4 287.3 L 150.4 292.4 L 148.9 292.4 L 148.9 281.4 " fill="#000000"/>
<path class="atom-28" d="M 152.6 160.1 L 154.0 160.1 L 154.0 164.8 L 159.7 164.8 L 159.7 160.1 L 161.1 160.1 L 161.1 171.1 L 159.7 171.1 L 159.7 166.0 L 154.0 166.0 L 154.0 171.1 L 152.6 171.1 L 152.6 160.1 " fill="#000000"/>
<path class="atom-29" d="M 72.1 270.4 L 73.6 270.4 L 73.6 275.0 L 79.2 275.0 L 79.2 270.4 L 80.7 270.4 L 80.7 281.3 L 79.2 281.3 L 79.2 276.3 L 73.6 276.3 L 73.6 281.3 L 72.1 281.3 L 72.1 270.4 " fill="#000000"/>
<path class="atom-30" d="M 91.3 137.4 L 92.8 137.4 L 92.8 142.0 L 98.4 142.0 L 98.4 137.4 L 99.9 137.4 L 99.9 148.4 L 98.4 148.4 L 98.4 143.3 L 92.8 143.3 L 92.8 148.4 L 91.3 148.4 L 91.3 137.4 " fill="#000000"/>
<path class="atom-31" d="M 265.2 113.9 L 266.7 113.9 L 266.7 118.6 L 272.3 118.6 L 272.3 113.9 L 273.8 113.9 L 273.8 124.9 L 272.3 124.9 L 272.3 119.8 L 266.7 119.8 L 266.7 124.9 L 265.2 124.9 L 265.2 113.9 " fill="#000000"/>
<path class="atom-32" d="M 211.8 53.8 L 213.3 53.8 L 213.3 58.4 L 218.9 58.4 L 218.9 53.8 L 220.4 53.8 L 220.4 64.7 L 218.9 64.7 L 218.9 59.7 L 213.3 59.7 L 213.3 64.7 L 211.8 64.7 L 211.8 53.8 " fill="#000000"/>
<path class="atom-33" d="M 43.3 198.3 L 44.8 198.3 L 44.8 203.0 L 50.4 203.0 L 50.4 198.3 L 51.9 198.3 L 51.9 209.3 L 50.4 209.3 L 50.4 204.2 L 44.8 204.2 L 44.8 209.3 L 43.3 209.3 L 43.3 198.3 " fill="#000000"/>
<path d="M 155.9 390.5 L 158.4 390.5 L 158.4 382.1 L 155.6 382.9 L 155.3 382.0 L 158.7 380.4 L 159.9 380.6 L 159.9 390.5 L 162.1 390.5 L 162.1 391.8 L 155.9 391.8 L 155.9 390.5 " fill="#000000"/>
<path d="M 170.3 392.6 L 170.3 393.9 L 162.1 393.9 L 162.1 392.6 L 170.3 392.6 " fill="#000000"/>
<path d="M 176.5 381.8 L 170.6 381.8 L 170.6 380.5 L 178.1 380.5 L 178.1 381.6 L 173.5 391.8 L 172.0 391.8 L 176.5 381.8 " fill="#000000"/>
<path d="M 186.2 392.6 L 186.2 393.9 L 178.1 393.9 L 178.1 392.6 L 186.2 392.6 " fill="#000000"/>
<path d="M 187.6 380.4 L 189.2 380.4 L 189.2 391.8 L 187.6 391.8 L 187.6 380.4 " fill="#000000"/>
<path d="M 194.8 383.4 Q 196.1 383.4, 196.8 384.2 Q 197.5 385.0, 197.5 386.4 L 197.5 391.8 L 196.0 391.8 L 196.0 386.5 Q 196.0 385.5, 195.6 385.1 Q 195.2 384.6, 194.4 384.6 Q 193.6 384.6, 193.0 385.0 Q 192.4 385.3, 192.0 385.9 L 192.0 391.8 L 190.5 391.8 L 190.5 383.6 L 191.7 383.6 L 191.9 384.7 Q 193.0 383.4, 194.8 383.4 " fill="#000000"/>
<path d="M 205.7 379.7 L 205.7 391.8 L 204.5 391.8 L 204.2 390.8 Q 203.3 391.9, 201.8 391.9 Q 200.1 391.9, 199.1 390.9 Q 198.2 389.8, 198.2 387.8 Q 198.2 385.8, 199.3 384.6 Q 200.5 383.4, 202.4 383.4 Q 203.3 383.4, 204.2 383.7 L 204.2 379.7 L 205.7 379.7 M 201.9 390.8 Q 202.7 390.8, 203.3 390.3 Q 203.9 389.8, 204.2 389.0 L 204.2 384.9 Q 203.4 384.6, 202.4 384.6 Q 201.2 384.6, 200.5 385.5 Q 199.7 386.3, 199.7 387.8 Q 199.7 389.2, 200.3 390.0 Q 200.9 390.8, 201.9 390.8 " fill="#000000"/>
<path d="M 206.4 387.7 Q 206.4 385.7, 207.4 384.6 Q 208.4 383.4, 210.3 383.4 Q 212.1 383.4, 212.9 384.5 Q 213.7 385.6, 213.7 387.6 L 213.7 387.9 L 207.9 387.9 Q 208.0 389.3, 208.6 390.0 Q 209.2 390.8, 210.4 390.8 Q 211.0 390.8, 211.6 390.6 Q 212.2 390.5, 212.9 390.1 L 213.4 391.2 Q 212.6 391.6, 211.8 391.8 Q 211.1 391.9, 210.3 391.9 Q 208.5 391.9, 207.4 390.8 Q 206.4 389.7, 206.4 387.7 M 210.3 384.6 Q 209.3 384.6, 208.7 385.2 Q 208.2 385.7, 208.0 386.8 L 212.1 386.8 Q 212.0 385.7, 211.5 385.2 Q 211.1 384.6, 210.3 384.6 " fill="#000000"/>
<path d="M 216.8 387.6 L 214.0 383.6 L 215.8 383.6 L 217.8 386.4 L 219.7 383.6 L 221.4 383.6 L 218.6 387.5 L 221.6 391.8 L 219.8 391.8 L 217.6 388.7 L 215.5 391.8 L 213.8 391.8 L 216.8 387.6 " fill="#000000"/>
<path d="M 229.8 392.6 L 229.8 393.9 L 221.6 393.9 L 221.6 392.6 L 229.8 392.6 " fill="#000000"/>
<path d="M 234.9 391.9 Q 232.8 391.9, 231.8 390.4 Q 230.7 388.9, 230.7 386.1 Q 230.7 383.4, 231.8 381.9 Q 232.8 380.4, 234.9 380.4 Q 237.0 380.4, 238.0 381.9 Q 239.0 383.4, 239.0 386.1 Q 239.0 388.9, 238.0 390.4 Q 237.0 391.9, 234.9 391.9 M 234.9 390.7 Q 236.1 390.7, 236.8 389.5 Q 237.4 388.4, 237.4 386.1 Q 237.4 383.9, 236.8 382.8 Q 236.1 381.6, 234.9 381.6 Q 233.7 381.6, 233.0 382.8 Q 232.3 383.9, 232.3 386.1 Q 232.3 388.4, 233.0 389.5 Q 233.7 390.7, 234.9 390.7 " fill="#000000"/>
<path d="M 599.3,229.8 L 627.4,203.1" style="fill:none;fill-rule:evenodd;stroke:#FF7F7F;stroke-width:8.3px;stroke-linecap:butt;stroke-linejoin:miter;stroke-opacity:1"/>
<path class="bond-0 atom-0 atom-15" d="M 562.1,218.8 L 553.0,181.1" style="fill:none;fill-rule:evenodd;stroke:#000000;stroke-width:2.0px;stroke-linecap:butt;stroke-linejoin:miter;stroke-opacity:1"/>
<path class="bond-0 atom-0 atom-15" d="M 553.2,214.9 L 546.9,188.6" style="fill:none;fill-rule:evenodd;stroke:#000000;stroke-width:2.0px;stroke-linecap:butt;stroke-linejoin:miter;stroke-opacity:1"/>
<path class="bond-1 atom-0 atom-16" d="M 562.1,218.8 L 534.0,245.5" style="fill:none;fill-rule:evenodd;stroke:#000000;stroke-width:2.0px;stroke-linecap:butt;stroke-linejoin:miter;stroke-opacity:1"/>
<path class="bond-3 atom-1 atom-0" d="M 594.2,228.3 L 578.1,223.5" style="fill:none;fill-rule:evenodd;stroke:#0000FF;stroke-width:2.0px;stroke-linecap:butt;stroke-linejoin:miter;stroke-opacity:1"/>
<path class="bond-3 atom-1 atom-0" d="M 578.1,223.5 L 562.1,218.8" style="fill:none;fill-rule:evenodd;stroke:#000000;stroke-width:2.0px;stroke-linecap:butt;stroke-linejoin:miter;stroke-opacity:1"/>
<path class="bond-2 atom-1 atom-2" d="M 604.4,224.9 L 615.9,214.0" style="fill:none;fill-rule:evenodd;stroke:#0000FF;stroke-width:2.0px;stroke-linecap:butt;stroke-linejoin:miter;stroke-opacity:1"/>
<path class="bond-2 atom-1 atom-2" d="M 615.9,214.0 L 627.4,203.1" style="fill:none;fill-rule:evenodd;stroke:#000000;stroke-width:2.0px;stroke-linecap:butt;stroke-linejoin:miter;stroke-opacity:1"/>
<path class="bond-4 atom-1 atom-4" d="M 600.9,236.2 L 603.9,248.7" style="fill:none;fill-rule:evenodd;stroke:#0000FF;stroke-width:2.0px;stroke-linecap:butt;stroke-linejoin:miter;stroke-opacity:1"/>
<path class="bond-4 atom-1 atom-4" d="M 603.9,248.7 L 606.9,261.2" style="fill:none;fill-rule:evenodd;stroke:#000000;stroke-width:2.0px;stroke-linecap:butt;stroke-linejoin:miter;stroke-opacity:1"/>
<path class="bond-5 atom-2 atom-5" d="M 627.4,203.1 L 664.6,214.0" style="fill:none;fill-rule:evenodd;stroke:#000000;stroke-width:2.0px;stroke-linecap:butt;stroke-linejoin:miter;stroke-opacity:1"/>
<path class="bond-7 atom-3 atom-2" d="M 618.3,165.4 L 627.4,203.1" style="fill:none;fill-rule:evenodd;stroke:#000000;stroke-width:2.0px;stroke-linecap:butt;stroke-linejoin:miter;stroke-opacity:1"/>
<path class="bond-7 atom-3 atom-2" d="M 627.2,169.2 L 633.6,195.6" style="fill:none;fill-rule:evenodd;stroke:#000000;stroke-width:2.0px;stroke-linecap:butt;stroke-linejoin:miter;stroke-opacity:1"/>
<path class="bond-6 atom-3 atom-6" d="M 618.3,165.4 L 643.5,135.8" style="fill:none;fill-rule:evenodd;stroke:#000000;stroke-width:2.0px;stroke-linecap:butt;stroke-linejoin:miter;stroke-opacity:1"/>
<path class="bond-8 atom-3 atom-8" d="M 618.3,165.4 L 582.5,150.5" style="fill:none;fill-rule:evenodd;stroke:#000000;stroke-width:2.0px;stroke-linecap:butt;stroke-linejoin:miter;stroke-opacity:1"/>
<path class="bond-9 atom-5 atom-10" d="M 664.6,214.0 L 673.7,251.8" style="fill:none;fill-rule:evenodd;stroke:#000000;stroke-width:2.0px;stroke-linecap:butt;stroke-linejoin:miter;stroke-opacity:1"/>
<path class="bond-9 atom-5 atom-10" d="M 673.5,217.9 L 679.9,244.3" style="fill:none;fill-rule:evenodd;stroke:#000000;stroke-width:2.0px;stroke-linecap:butt;stroke-linejoin:miter;stroke-opacity:1"/>
<path class="bond-10 atom-5 atom-11" d="M 664.6,214.0 L 692.7,187.3" style="fill:none;fill-rule:evenodd;stroke:#000000;stroke-width:2.0px;stroke-linecap:butt;stroke-linejoin:miter;stroke-opacity:1"/>
<path class="bond-11 atom-6 atom-9" d="M 643.5,135.8 L 623.2,102.8" style="fill:none;fill-rule:evenodd;stroke:#000000;stroke-width:2.0px;stroke-linecap:butt;stroke-linejoin:miter;stroke-opacity:1"/>
<path class="bond-11 atom-6 atom-9" d="M 633.9,134.9 L 619.7,111.8" style="fill:none;fill-rule:evenodd;stroke:#000000;stroke-width:2.0px;stroke-linecap:butt;stroke-linejoin:miter;stroke-opacity:1"/>
<path class="bond-12 atom-6 atom-32" d="M 643.5,135.8 L 677.0,134.4" style="fill:none;fill-rule:evenodd;stroke:#000000;stroke-width:2.0px;stroke-linecap:butt;stroke-linejoin:miter;stroke-opacity:1"/>
<path class="bond-13 atom-7 atom-8" d="M 585.0,118.3 L 583.8,134.4" style="fill:none;fill-rule:evenodd;stroke:#0000FF;stroke-width:2.0px;stroke-linecap:butt;stroke-linejoin:miter;stroke-opacity:1"/>
<path class="bond-13 atom-7 atom-8" d="M 583.8,134.4 L 582.5,150.5" style="fill:none;fill-rule:evenodd;stroke:#000000;stroke-width:2.0px;stroke-linecap:butt;stroke-linejoin:miter;stroke-opacity:1"/>
<path class="bond-14 atom-7 atom-9" d="M 590.6,110.6 L 606.9,106.7" style="fill:none;fill-rule:evenodd;stroke:#0000FF;stroke-width:2.0px;stroke-linecap:butt;stroke-linejoin:miter;stroke-opacity:1"/>
<path class="bond-14 atom-7 atom-9" d="M 606.9,106.7 L 623.2,102.8" style="fill:none;fill-rule:evenodd;stroke:#000000;stroke-width:2.0px;stroke-linecap:butt;stroke-linejoin:miter;stroke-opacity:1"/>
<path class="bond-15 atom-7 atom-20" d="M 580.4,107.5 L 570.7,99.3" style="fill:none;fill-rule:evenodd;stroke:#0000FF;stroke-width:2.0px;stroke-linecap:butt;stroke-linejoin:miter;stroke-opacity:1"/>
<path class="bond-15 atom-7 atom-20" d="M 570.7,99.3 L 561.1,91.1" style="fill:none;fill-rule:evenodd;stroke:#000000;stroke-width:2.0px;stroke-linecap:butt;stroke-linejoin:miter;stroke-opacity:1"/>
<path class="bond-16 atom-8 atom-21" d="M 581.3,146.8 L 569.3,150.7" style="fill:none;fill-rule:evenodd;stroke:#000000;stroke-width:2.0px;stroke-linecap:butt;stroke-linejoin:miter;stroke-opacity:1"/>
<path class="bond-16 atom-8 atom-21" d="M 569.3,150.7 L 557.2,154.5" style="fill:none;fill-rule:evenodd;stroke:#FF0000;stroke-width:2.0px;stroke-linecap:butt;stroke-linejoin:miter;stroke-opacity:1"/>
<path class="bond-16 atom-8 atom-21" d="M 583.7,154.2 L 571.6,158.0" style="fill:none;fill-rule:evenodd;stroke:#000000;stroke-width:2.0px;stroke-linecap:butt;stroke-linejoin:miter;stroke-opacity:1"/>
<path class="bond-16 atom-8 atom-21" d="M 571.6,158.0 L 559.5,161.9" style="fill:none;fill-rule:evenodd;stroke:#FF0000;stroke-width:2.0px;stroke-linecap:butt;stroke-linejoin:miter;stroke-opacity:1"/>
<path class="bond-17 atom-9 atom-33" d="M 623.2,102.8 L 635.4,73.4" style="fill:none;fill-rule:evenodd;stroke:#000000;stroke-width:2.0px;stroke-linecap:butt;stroke-linejoin:miter;stroke-opacity:1"/>
<path class="bond-18 atom-10 atom-12" d="M 673.7,251.8 L 710.9,262.7" style="fill:none;fill-rule:evenodd;stroke:#000000;stroke-width:2.0px;stroke-linecap:butt;stroke-linejoin:miter;stroke-opacity:1"/>
<path class="bond-19 atom-10 atom-22" d="M 673.7,251.8 L 650.8,273.5" style="fill:none;fill-rule:evenodd;stroke:#000000;stroke-width:2.0px;stroke-linecap:butt;stroke-linejoin:miter;stroke-opacity:1"/>
<path class="bond-20 atom-11 atom-13" d="M 692.7,187.3 L 729.9,198.3" style="fill:none;fill-rule:evenodd;stroke:#000000;stroke-width:2.0px;stroke-linecap:butt;stroke-linejoin:miter;stroke-opacity:1"/>
<path class="bond-20 atom-11 atom-13" d="M 696.1,196.4 L 722.1,204.1" style="fill:none;fill-rule:evenodd;stroke:#000000;stroke-width:2.0px;stroke-linecap:butt;stroke-linejoin:miter;stroke-opacity:1"/>
<path class="bond-21 atom-11 atom-23" d="M 692.7,187.3 L 689.1,155.3" style="fill:none;fill-rule:evenodd;stroke:#000000;stroke-width:2.0px;stroke-linecap:butt;stroke-linejoin:miter;stroke-opacity:1"/>
<path class="bond-22 atom-12 atom-14" d="M 710.9,262.7 L 739.0,236.0" style="fill:none;fill-rule:evenodd;stroke:#000000;stroke-width:2.0px;stroke-linecap:butt;stroke-linejoin:miter;stroke-opacity:1"/>
<path class="bond-22 atom-12 atom-14" d="M 709.8,253.1 L 729.4,234.4" style="fill:none;fill-rule:evenodd;stroke:#000000;stroke-width:2.0px;stroke-linecap:butt;stroke-linejoin:miter;stroke-opacity:1"/>
<path class="bond-23 atom-12 atom-24" d="M 710.9,262.7 L 718.4,294.0" style="fill:none;fill-rule:evenodd;stroke:#000000;stroke-width:2.0px;stroke-linecap:butt;stroke-linejoin:miter;stroke-opacity:1"/>
<path class="bond-24 atom-13 atom-14" d="M 729.9,198.3 L 739.0,236.0" style="fill:none;fill-rule:evenodd;stroke:#000000;stroke-width:2.0px;stroke-linecap:butt;stroke-linejoin:miter;stroke-opacity:1"/>
<path class="bond-25 atom-13 atom-25" d="M 729.9,198.3 L 752.8,176.6" style="fill:none;fill-rule:evenodd;stroke:#000000;stroke-width:2.0px;stroke-linecap:butt;stroke-linejoin:miter;stroke-opacity:1"/>
<path class="bond-26 atom-14 atom-26" d="M 739.0,236.0 L 770.9,245.5" style="fill:none;fill-rule:evenodd;stroke:#000000;stroke-width:2.0px;stroke-linecap:butt;stroke-linejoin:miter;stroke-opacity:1"/>
<path class="bond-27 atom-15 atom-17" d="M 553.0,181.1 L 515.8,170.1" style="fill:none;fill-rule:evenodd;stroke:#000000;stroke-width:2.0px;stroke-linecap:butt;stroke-linejoin:miter;stroke-opacity:1"/>
<path class="bond-28 atom-15 atom-27" d="M 553.0,181.1 L 560.3,169.7" style="fill:none;fill-rule:evenodd;stroke:#000000;stroke-width:2.0px;stroke-linecap:butt;stroke-linejoin:miter;stroke-opacity:1"/>
<path class="bond-29 atom-16 atom-18" d="M 534.0,245.5 L 496.8,234.5" style="fill:none;fill-rule:evenodd;stroke:#000000;stroke-width:2.0px;stroke-linecap:butt;stroke-linejoin:miter;stroke-opacity:1"/>
<path class="bond-29 atom-16 atom-18" d="M 530.6,236.4 L 504.6,228.7" style="fill:none;fill-rule:evenodd;stroke:#000000;stroke-width:2.0px;stroke-linecap:butt;stroke-linejoin:miter;stroke-opacity:1"/>
<path class="bond-30 atom-16 atom-28" d="M 534.0,245.5 L 541.5,276.7" style="fill:none;fill-rule:evenodd;stroke:#000000;stroke-width:2.0px;stroke-linecap:butt;stroke-linejoin:miter;stroke-opacity:1"/>
<path class="bond-31 atom-17 atom-19" d="M 515.8,170.1 L 487.7,196.8" style="fill:none;fill-rule:evenodd;stroke:#000000;stroke-width:2.0px;stroke-linecap:butt;stroke-linejoin:miter;stroke-opacity:1"/>
<path class="bond-31 atom-17 atom-19" d="M 517.0,179.7 L 497.3,198.4" style="fill:none;fill-rule:evenodd;stroke:#000000;stroke-width:2.0px;stroke-linecap:butt;stroke-linejoin:miter;stroke-opacity:1"/>
<path class="bond-32 atom-17 atom-29" d="M 515.8,170.1 L 508.3,138.8" style="fill:none;fill-rule:evenodd;stroke:#000000;stroke-width:2.0px;stroke-linecap:butt;stroke-linejoin:miter;stroke-opacity:1"/>
<path class="bond-33 atom-18 atom-19" d="M 496.8,234.5 L 487.7,196.8" style="fill:none;fill-rule:evenodd;stroke:#000000;stroke-width:2.0px;stroke-linecap:butt;stroke-linejoin:miter;stroke-opacity:1"/>
<path class="bond-34 atom-18 atom-30" d="M 496.8,234.5 L 474.0,256.2" style="fill:none;fill-rule:evenodd;stroke:#000000;stroke-width:2.0px;stroke-linecap:butt;stroke-linejoin:miter;stroke-opacity:1"/>
<path class="bond-35 atom-31 atom-19" d="M 455.7,187.3 L 471.7,192.1" style="fill:none;fill-rule:evenodd;stroke:#0000FF;stroke-width:2.0px;stroke-linecap:butt;stroke-linejoin:miter;stroke-opacity:1"/>
<path class="bond-35 atom-31 atom-19" d="M 471.7,192.1 L 487.7,196.8" style="fill:none;fill-rule:evenodd;stroke:#000000;stroke-width:2.0px;stroke-linecap:butt;stroke-linejoin:miter;stroke-opacity:1"/>
<path class="bond-36 atom-31 atom-34" d="M 449.0,179.4 L 446.0,166.9" style="fill:none;fill-rule:evenodd;stroke:#0000FF;stroke-width:2.0px;stroke-linecap:butt;stroke-linejoin:miter;stroke-opacity:1"/>
<path class="bond-36 atom-31 atom-34" d="M 446.0,166.9 L 443.0,154.4" style="fill:none;fill-rule:evenodd;stroke:#000000;stroke-width:2.0px;stroke-linecap:butt;stroke-linejoin:miter;stroke-opacity:1"/>
<path class="bond-37 atom-31 atom-35" d="M 445.4,190.7 L 436.5,199.2" style="fill:none;fill-rule:evenodd;stroke:#0000FF;stroke-width:2.0px;stroke-linecap:butt;stroke-linejoin:miter;stroke-opacity:1"/>
<path class="bond-37 atom-31 atom-35" d="M 436.5,199.2 L 427.5,207.7" style="fill:none;fill-rule:evenodd;stroke:#000000;stroke-width:2.0px;stroke-linecap:butt;stroke-linejoin:miter;stroke-opacity:1"/>
<path class="atom-1" d="M 596.9 224.3 L 600.5 230.1 Q 600.8 230.7, 601.4 231.7 Q 602.0 232.8, 602.0 232.8 L 602.0 224.3 L 603.5 224.3 L 603.5 235.3 L 602.0 235.3 L 598.1 228.9 Q 597.7 228.2, 597.2 227.3 Q 596.7 226.5, 596.6 226.2 L 596.6 235.3 L 595.1 235.3 L 595.1 224.3 L 596.9 224.3 " fill="#0000FF"/>
<path class="atom-4" d="M 604.1 262.0 L 605.6 262.0 L 605.6 266.7 L 611.2 266.7 L 611.2 262.0 L 612.7 262.0 L 612.7 273.0 L 611.2 273.0 L 611.2 267.9 L 605.6 267.9 L 605.6 273.0 L 604.1 273.0 L 604.1 262.0 " fill="#000000"/>
<path class="atom-7" d="M 583.1 106.4 L 586.7 112.2 Q 587.0 112.8, 587.6 113.8 Q 588.2 114.8, 588.2 114.9 L 588.2 106.4 L 589.7 106.4 L 589.7 117.4 L 588.2 117.4 L 584.3 111.0 Q 583.9 110.3, 583.4 109.4 Q 582.9 108.6, 582.8 108.3 L 582.8 117.4 L 581.3 117.4 L 581.3 106.4 L 583.1 106.4 " fill="#0000FF"/>
<path class="atom-20" d="M 551.7 81.2 L 553.2 81.2 L 553.2 85.9 L 558.8 85.9 L 558.8 81.2 L 560.3 81.2 L 560.3 92.2 L 558.8 92.2 L 558.8 87.1 L 553.2 87.1 L 553.2 92.2 L 551.7 92.2 L 551.7 81.2 " fill="#000000"/>
<path class="atom-21" d="M 547.5 160.0 Q 547.5 157.4, 548.8 155.9 Q 550.1 154.4, 552.5 154.4 Q 555.0 154.4, 556.3 155.9 Q 557.6 157.4, 557.6 160.0 Q 557.6 162.7, 556.3 164.2 Q 554.9 165.7, 552.5 165.7 Q 550.1 165.7, 548.8 164.2 Q 547.5 162.7, 547.5 160.0 M 552.5 164.5 Q 554.2 164.5, 555.1 163.4 Q 556.0 162.2, 556.0 160.0 Q 556.0 157.9, 555.1 156.8 Q 554.2 155.7, 552.5 155.7 Q 550.9 155.7, 550.0 156.8 Q 549.1 157.9, 549.1 160.0 Q 549.1 162.3, 550.0 163.4 Q 550.9 164.5, 552.5 164.5 " fill="#FF0000"/>
<path class="atom-22" d="M 641.3 273.0 L 642.8 273.0 L 642.8 277.6 L 648.4 277.6 L 648.4 273.0 L 649.9 273.0 L 649.9 284.0 L 648.4 284.0 L 648.4 278.9 L 642.8 278.9 L 642.8 284.0 L 641.3 284.0 L 641.3 273.0 " fill="#000000"/>
<path class="atom-23" d="M 684.0 143.3 L 685.5 143.3 L 685.5 148.0 L 691.1 148.0 L 691.1 143.3 L 692.6 143.3 L 692.6 154.3 L 691.1 154.3 L 691.1 149.2 L 685.5 149.2 L 685.5 154.3 L 684.0 154.3 L 684.0 143.3 " fill="#000000"/>
<path class="atom-24" d="M 715.7 295.0 L 717.2 295.0 L 717.2 299.6 L 722.8 299.6 L 722.8 295.0 L 724.3 295.0 L 724.3 305.9 L 722.8 305.9 L 722.8 300.9 L 717.2 300.9 L 717.2 305.9 L 715.7 305.9 L 715.7 295.0 " fill="#000000"/>
<path class="atom-25" d="M 753.7 166.1 L 755.2 166.1 L 755.2 170.8 L 760.8 170.8 L 760.8 166.1 L 762.3 166.1 L 762.3 177.1 L 760.8 177.1 L 760.8 172.0 L 755.2 172.0 L 755.2 177.1 L 753.7 177.1 L 753.7 166.1 " fill="#000000"/>
<path class="atom-26" d="M 771.9 241.5 L 773.4 241.5 L 773.4 246.2 L 779.0 246.2 L 779.0 241.5 L 780.5 241.5 L 780.5 252.5 L 779.0 252.5 L 779.0 247.4 L 773.4 247.4 L 773.4 252.5 L 771.9 252.5 L 771.9 241.5 " fill="#000000"/>
<path class="atom-27" d="M 559.8 158.2 L 561.3 158.2 L 561.3 162.9 L 566.9 162.9 L 566.9 158.2 L 568.4 158.2 L 568.4 169.2 L 566.9 169.2 L 566.9 164.1 L 561.3 164.1 L 561.3 169.2 L 559.8 169.2 L 559.8 158.2 " fill="#000000"/>
<path class="atom-28" d="M 538.8 277.7 L 540.3 277.7 L 540.3 282.4 L 545.9 282.4 L 545.9 277.7 L 547.4 277.7 L 547.4 288.7 L 545.9 288.7 L 545.9 283.6 L 540.3 283.6 L 540.3 288.7 L 538.8 288.7 L 538.8 277.7 " fill="#000000"/>
<path class="atom-29" d="M 502.5 126.9 L 504.0 126.9 L 504.0 131.6 L 509.6 131.6 L 509.6 126.9 L 511.1 126.9 L 511.1 137.9 L 509.6 137.9 L 509.6 132.8 L 504.0 132.8 L 504.0 137.9 L 502.5 137.9 L 502.5 126.9 " fill="#000000"/>
<path class="atom-30" d="M 464.4 255.7 L 465.9 255.7 L 465.9 260.4 L 471.5 260.4 L 471.5 255.7 L 473.0 255.7 L 473.0 266.7 L 471.5 266.7 L 471.5 261.6 L 465.9 261.6 L 465.9 266.7 L 464.4 266.7 L 464.4 255.7 " fill="#000000"/>
<path class="atom-31" d="M 448.1 180.3 L 451.7 186.1 Q 452.1 186.7, 452.6 187.8 Q 453.2 188.8, 453.2 188.9 L 453.2 180.3 L 454.7 180.3 L 454.7 191.3 L 453.2 191.3 L 449.3 184.9 Q 448.9 184.2, 448.4 183.4 Q 447.9 182.5, 447.8 182.2 L 447.8 191.3 L 446.4 191.3 L 446.4 180.3 L 448.1 180.3 " fill="#0000FF"/>
<path class="atom-32" d="M 678.0 128.6 L 679.4 128.6 L 679.4 133.3 L 685.1 133.3 L 685.1 128.6 L 686.6 128.6 L 686.6 139.6 L 685.1 139.6 L 685.1 134.5 L 679.4 134.5 L 679.4 139.6 L 678.0 139.6 L 678.0 128.6 " fill="#000000"/>
<path class="atom-33" d="M 633.7 61.5 L 635.2 61.5 L 635.2 66.1 L 640.8 66.1 L 640.8 61.5 L 642.3 61.5 L 642.3 72.4 L 640.8 72.4 L 640.8 67.4 L 635.2 67.4 L 635.2 72.4 L 633.7 72.4 L 633.7 61.5 " fill="#000000"/>
<path class="atom-34" d="M 437.2 142.6 L 438.6 142.6 L 438.6 147.3 L 444.3 147.3 L 444.3 142.6 L 445.7 142.6 L 445.7 153.6 L 444.3 153.6 L 444.3 148.5 L 438.6 148.5 L 438.6 153.6 L 437.2 153.6 L 437.2 142.6 " fill="#000000"/>
<path class="atom-35" d="M 418.1 207.0 L 419.6 207.0 L 419.6 211.7 L 425.2 211.7 L 425.2 207.0 L 426.7 207.0 L 426.7 218.0 L 425.2 218.0 L 425.2 213.0 L 419.6 213.0 L 419.6 218.0 L 418.1 218.0 L 418.1 207.0 " fill="#000000"/>
<path d="M 491.5 388.6 L 493.9 388.6 L 493.9 380.2 L 491.2 381.0 L 490.8 380.1 L 494.3 378.5 L 495.4 378.7 L 495.4 388.6 L 497.7 388.6 L 497.7 389.9 L 491.5 389.9 L 491.5 388.6 " fill="#000000"/>
<path d="M 505.8 390.7 L 505.8 392.0 L 497.7 392.0 L 497.7 390.7 L 505.8 390.7 " fill="#000000"/>
<path d="M 512.1 379.9 L 506.1 379.9 L 506.1 378.6 L 513.6 378.6 L 513.6 379.7 L 509.1 389.9 L 507.5 389.9 L 512.1 379.9 " fill="#000000"/>
<path d="M 521.8 390.7 L 521.8 392.0 L 513.6 392.0 L 513.6 390.7 L 521.8 390.7 " fill="#000000"/>
<path d="M 523.2 378.5 L 524.7 378.5 L 524.7 389.9 L 523.2 389.9 L 523.2 378.5 " fill="#000000"/>
<path d="M 530.3 381.5 Q 531.6 381.5, 532.3 382.3 Q 533.0 383.0, 533.0 384.5 L 533.0 389.9 L 531.5 389.9 L 531.5 384.6 Q 531.5 383.6, 531.1 383.2 Q 530.8 382.7, 529.9 382.7 Q 529.2 382.7, 528.6 383.1 Q 527.9 383.4, 527.5 384.0 L 527.5 389.9 L 526.0 389.9 L 526.0 381.7 L 527.3 381.7 L 527.4 382.8 Q 528.5 381.5, 530.3 381.5 " fill="#000000"/>
<path d="M 541.2 377.8 L 541.2 389.9 L 540.0 389.9 L 539.8 388.9 Q 538.9 390.0, 537.4 390.0 Q 535.7 390.0, 534.7 389.0 Q 533.8 387.9, 533.8 385.9 Q 533.8 383.9, 534.9 382.7 Q 536.0 381.5, 538.0 381.5 Q 538.8 381.5, 539.7 381.8 L 539.7 377.8 L 541.2 377.8 M 537.5 388.9 Q 538.3 388.9, 538.9 388.4 Q 539.5 387.9, 539.7 387.1 L 539.7 383.0 Q 538.9 382.7, 538.0 382.7 Q 536.7 382.7, 536.0 383.6 Q 535.3 384.4, 535.3 385.9 Q 535.3 387.3, 535.9 388.1 Q 536.4 388.9, 537.5 388.9 " fill="#000000"/>
<path d="M 542.0 385.8 Q 542.0 383.8, 543.0 382.7 Q 544.0 381.5, 545.8 381.5 Q 547.6 381.5, 548.4 382.6 Q 549.3 383.7, 549.3 385.7 L 549.3 386.0 L 543.5 386.0 Q 543.5 387.4, 544.2 388.1 Q 544.8 388.9, 546.0 388.9 Q 546.6 388.9, 547.2 388.7 Q 547.8 388.6, 548.5 388.2 L 548.9 389.3 Q 548.1 389.7, 547.4 389.9 Q 546.6 390.0, 545.9 390.0 Q 544.0 390.0, 543.0 388.9 Q 542.0 387.8, 542.0 385.8 M 545.8 382.7 Q 544.9 382.7, 544.3 383.3 Q 543.7 383.8, 543.6 384.9 L 547.7 384.9 Q 547.6 383.8, 547.1 383.3 Q 546.7 382.7, 545.8 382.7 " fill="#000000"/>
<path d="M 552.4 385.7 L 549.6 381.7 L 551.3 381.7 L 553.3 384.5 L 555.3 381.7 L 556.9 381.7 L 554.1 385.6 L 557.2 389.9 L 555.4 389.9 L 553.2 386.8 L 551.0 389.9 L 549.4 389.9 L 552.4 385.7 " fill="#000000"/>
<path d="M 565.3 390.7 L 565.3 392.0 L 557.2 392.0 L 557.2 390.7 L 565.3 390.7 " fill="#000000"/>
<path d="M 570.4 390.0 Q 568.4 390.0, 567.3 388.5 Q 566.3 387.0, 566.3 384.2 Q 566.3 381.5, 567.3 380.0 Q 568.3 378.5, 570.4 378.5 Q 572.5 378.5, 573.6 380.0 Q 574.6 381.5, 574.6 384.2 Q 574.6 387.0, 573.5 388.5 Q 572.5 390.0, 570.4 390.0 M 570.4 388.8 Q 571.7 388.8, 572.3 387.6 Q 573.0 386.5, 573.0 384.2 Q 573.0 382.0, 572.3 380.9 Q 571.7 379.7, 570.4 379.7 Q 569.2 379.7, 568.5 380.9 Q 567.9 382.0, 567.9 384.2 Q 567.9 386.5, 568.5 387.6 Q 569.2 388.8, 570.4 388.8 " fill="#000000"/>
<path d="M 582.7 390.7 L 582.7 392.0 L 574.6 392.0 L 574.6 390.7 L 582.7 390.7 " fill="#000000"/>
<path d="M 592.6 384.4 L 592.6 389.1 Q 591.0 390.1, 588.6 390.1 Q 586.2 390.1, 584.9 388.6 Q 583.5 387.0, 583.5 384.2 Q 583.5 381.4, 584.9 379.9 Q 586.2 378.5, 588.7 378.5 Q 590.0 378.5, 591.0 378.9 Q 591.9 379.3, 592.6 380.1 L 591.6 381.0 Q 590.5 379.7, 588.7 379.7 Q 587.0 379.7, 586.1 380.9 Q 585.2 382.0, 585.2 384.2 Q 585.2 386.5, 586.1 387.6 Q 587.0 388.8, 588.9 388.8 Q 590.1 388.8, 591.1 388.4 L 591.1 384.4 L 592.6 384.4 " fill="#000000"/>
<path d="M 595.2 381.7 L 595.4 382.8 Q 596.3 381.5, 597.7 381.5 Q 598.1 381.5, 598.7 381.7 L 598.5 383.0 Q 597.8 382.9, 597.4 382.9 Q 596.7 382.9, 596.3 383.2 Q 595.9 383.4, 595.5 384.0 L 595.5 389.9 L 594.0 389.9 L 594.0 381.7 L 595.2 381.7 " fill="#000000"/>
<path d="M 599.5 385.8 Q 599.5 383.8, 600.5 382.7 Q 601.5 381.5, 603.4 381.5 Q 605.2 381.5, 606.2 382.7 Q 607.3 383.8, 607.3 385.8 Q 607.3 387.8, 606.2 388.9 Q 605.2 390.0, 603.4 390.0 Q 601.5 390.0, 600.5 388.9 Q 599.5 387.8, 599.5 385.8 M 601.0 385.8 Q 601.0 387.3, 601.6 388.1 Q 602.2 388.9, 603.4 388.9 Q 604.5 388.9, 605.1 388.1 Q 605.7 387.3, 605.7 385.8 Q 605.7 384.3, 605.1 383.5 Q 604.5 382.7, 603.4 382.7 Q 602.2 382.7, 601.6 383.5 Q 601.0 384.3, 601.0 385.8 " fill="#000000"/>
<path d="M 618.1 381.7 L 619.6 381.7 L 617.3 389.9 L 615.2 389.9 L 613.6 383.7 L 612.0 389.9 L 610.0 389.9 L 607.7 381.7 L 609.2 381.7 L 611.1 388.5 L 612.9 381.7 L 614.4 381.7 L 616.2 388.5 L 618.1 381.7 " fill="#000000"/>
<path d="M 620.9 378.6 L 627.7 378.6 L 627.7 379.9 L 622.4 379.9 L 622.4 383.3 L 627.1 383.3 L 627.1 384.6 L 622.4 384.6 L 622.4 389.9 L 620.9 389.9 L 620.9 378.6 " fill="#000000"/>
<path d="M 630.2 381.7 L 630.4 382.8 Q 631.3 381.5, 632.7 381.5 Q 633.1 381.5, 633.7 381.7 L 633.5 383.0 Q 632.8 382.9, 632.4 382.9 Q 631.7 382.9, 631.3 383.2 Q 630.9 383.4, 630.5 384.0 L 630.5 389.9 L 629.0 389.9 L 629.0 381.7 L 630.2 381.7 " fill="#000000"/>
<path d="M 634.4 387.7 Q 634.4 386.4, 635.5 385.7 Q 636.5 384.9, 638.5 384.9 L 639.7 384.9 L 639.7 384.6 Q 639.7 383.6, 639.3 383.2 Q 638.9 382.7, 637.8 382.7 Q 637.2 382.7, 636.7 382.9 Q 636.1 383.0, 635.3 383.3 L 634.9 382.3 Q 636.4 381.5, 637.9 381.5 Q 639.6 381.5, 640.4 382.3 Q 641.2 383.0, 641.2 384.6 L 641.2 389.9 L 640.0 389.9 Q 640.0 389.8, 640.0 389.6 Q 639.9 389.4, 639.8 389.0 Q 638.7 390.1, 637.1 390.1 Q 635.9 390.1, 635.2 389.4 Q 634.4 388.8, 634.4 387.7 M 635.9 387.7 Q 635.9 388.3, 636.3 388.6 Q 636.7 388.9, 637.4 388.9 Q 638.1 388.9, 638.7 388.6 Q 639.3 388.3, 639.7 387.8 L 639.7 386.1 L 638.6 386.1 Q 637.3 386.1, 636.6 386.5 Q 635.9 386.9, 635.9 387.7 " fill="#000000"/>
<path d="M 649.4 381.7 L 649.4 390.4 Q 649.4 393.9, 645.7 393.9 Q 643.9 393.9, 642.2 393.1 L 642.8 392.0 Q 643.6 392.4, 644.2 392.6 Q 644.9 392.7, 645.7 392.7 Q 646.9 392.7, 647.4 392.2 Q 647.9 391.7, 647.9 390.4 L 647.9 389.0 Q 647.0 390.0, 645.6 390.0 Q 643.8 390.0, 642.9 389.0 Q 641.9 387.9, 641.9 385.9 Q 641.9 383.9, 643.1 382.7 Q 644.2 381.5, 646.2 381.5 Q 647.2 381.5, 648.2 381.8 L 648.2 381.7 L 649.4 381.7 M 645.7 388.9 Q 646.5 388.9, 647.1 388.4 Q 647.7 387.9, 647.9 387.1 L 647.9 383.0 Q 647.1 382.7, 646.2 382.7 Q 644.9 382.7, 644.2 383.6 Q 643.5 384.4, 643.5 385.9 Q 643.5 387.3, 644.0 388.1 Q 644.6 388.9, 645.7 388.9 " fill="#000000"/>
<path d="M 660.2 381.5 Q 661.6 381.5, 662.3 382.3 Q 663.0 383.0, 663.0 384.5 L 663.0 389.9 L 661.5 389.9 L 661.5 384.6 Q 661.5 383.6, 661.1 383.2 Q 660.8 382.7, 659.9 382.7 Q 659.2 382.7, 658.6 383.1 Q 658.0 383.4, 657.6 384.0 Q 657.6 384.2, 657.6 384.5 L 657.6 389.9 L 656.1 389.9 L 656.1 384.6 Q 656.1 383.6, 655.7 383.2 Q 655.4 382.7, 654.5 382.7 Q 653.8 382.7, 653.2 383.1 Q 652.6 383.4, 652.2 384.0 L 652.2 389.9 L 650.7 389.9 L 650.7 381.7 L 652.0 381.7 L 652.1 382.8 Q 653.2 381.5, 654.8 381.5 Q 656.8 381.5, 657.4 383.0 Q 658.5 381.5, 660.2 381.5 " fill="#000000"/>
<path d="M 663.8 385.8 Q 663.8 383.8, 664.8 382.7 Q 665.8 381.5, 667.6 381.5 Q 669.4 381.5, 670.2 382.6 Q 671.0 383.7, 671.0 385.7 L 671.0 386.0 L 665.3 386.0 Q 665.3 387.4, 666.0 388.1 Q 666.6 388.9, 667.7 388.9 Q 668.4 388.9, 669.0 388.7 Q 669.6 388.6, 670.3 388.2 L 670.7 389.3 Q 669.9 389.7, 669.2 389.9 Q 668.4 390.0, 667.7 390.0 Q 665.8 390.0, 664.8 388.9 Q 663.8 387.8, 663.8 385.8 M 667.6 382.7 Q 666.7 382.7, 666.1 383.3 Q 665.5 383.8, 665.4 384.9 L 669.5 384.9 Q 669.3 383.8, 668.9 383.3 Q 668.5 382.7, 667.6 382.7 " fill="#000000"/>
<path d="M 676.6 381.5 Q 678.0 381.5, 678.6 382.3 Q 679.3 383.0, 679.3 384.5 L 679.3 389.9 L 677.8 389.9 L 677.8 384.6 Q 677.8 383.6, 677.5 383.2 Q 677.1 382.7, 676.3 382.7 Q 675.5 382.7, 674.9 383.1 Q 674.3 383.4, 673.9 384.0 L 673.9 389.9 L 672.4 389.9 L 672.4 381.7 L 673.6 381.7 L 673.8 382.8 Q 674.9 381.5, 676.6 381.5 " fill="#000000"/>
<path d="M 679.8 382.8 L 679.8 381.7 L 681.4 381.7 L 681.6 379.3 L 682.8 379.3 L 682.8 381.7 L 685.3 381.7 L 685.3 382.8 L 682.8 382.8 L 682.8 387.4 Q 682.8 388.8, 684.0 388.8 Q 684.4 388.8, 685.1 388.6 L 685.4 389.6 Q 684.5 390.0, 683.7 390.0 Q 682.6 390.0, 681.9 389.4 Q 681.3 388.7, 681.3 387.5 L 681.3 382.8 L 679.8 382.8 " fill="#000000"/>
<path d="M 693.6 390.7 L 693.6 392.0 L 685.4 392.0 L 685.4 390.7 L 693.6 390.7 " fill="#000000"/>
<path d="M 698.7 390.0 Q 696.6 390.0, 695.6 388.5 Q 694.5 387.0, 694.5 384.2 Q 694.5 381.5, 695.6 380.0 Q 696.6 378.5, 698.7 378.5 Q 700.8 378.5, 701.8 380.0 Q 702.8 381.5, 702.8 384.2 Q 702.8 387.0, 701.8 388.5 Q 700.8 390.0, 698.7 390.0 M 698.7 388.8 Q 699.9 388.8, 700.6 387.6 Q 701.2 386.5, 701.2 384.2 Q 701.2 382.0, 700.6 380.9 Q 699.9 379.7, 698.7 379.7 Q 697.5 379.7, 696.8 380.9 Q 696.1 382.0, 696.1 384.2 Q 696.1 386.5, 696.8 387.6 Q 697.5 388.8, 698.7 388.8 " fill="#000000"/>
<text x="199.99999999999994" y="240.29093396845843" font-size="12" font-family="Verdana" font-weight="bold" letter-spacing="0" text-anchor="start" fill="black" transform=" rotate(38.204746 200.000000 240.290934)">0.0816</text><text x="614.1059621147117" y="232.83221795811215" font-size="12" font-family="Verdana" font-weight="bold" letter-spacing="0" text-anchor="start" fill="black" transform=" rotate(46.460262 614.105962 232.832218)">0.0929</text></svg>
