<?xml version='1.0' encoding='ASCII' standalone='yes'?>
<svg xmlns="http://www.w3.org/2000/svg" xmlns:rdkit="http://www.rdkit.org/xml" xmlns:xlink="http://www.w3.org/1999/xlink" version="1.1" baseProfile="full" xml:space="preserve" width="500px" height="500px" viewBox="0 0 500 500">
<!-- END OF HEADER -->
<rect style="opacity:1.0;fill:#FFFFFF;stroke:none" width="500.0" height="500.0" x="0.0" y="0.0"> </rect>
<path d="M 235.8,186.4 L 189.8,193.1" style="fill:none;fill-rule:evenodd;stroke:#FF7F7F;stroke-width:9.9px;stroke-linecap:butt;stroke-linejoin:miter;stroke-opacity:1"/>
<path class="bond-0 atom-0 atom-11" d="M 273.0,221.8 L 289.6,219.4" style="fill:none;fill-rule:evenodd;stroke:#000000;stroke-width:2.0px;stroke-linecap:butt;stroke-linejoin:miter;stroke-opacity:1"/>
<path class="bond-1 atom-1 atom-0" d="M 242.0,194.3 L 250.3,204.9" style="fill:none;fill-rule:evenodd;stroke:#0000FF;stroke-width:2.0px;stroke-linecap:butt;stroke-linejoin:miter;stroke-opacity:1"/>
<path class="bond-1 atom-1 atom-0" d="M 250.3,204.9 L 258.7,215.4" style="fill:none;fill-rule:evenodd;stroke:#000000;stroke-width:2.0px;stroke-linecap:butt;stroke-linejoin:miter;stroke-opacity:1"/>
<path class="bond-11 atom-6 atom-0" d="M 250.5,258.4 L 261.7,230.3" style="fill:none;fill-rule:evenodd;stroke:#000000;stroke-width:2.0px;stroke-linecap:butt;stroke-linejoin:miter;stroke-opacity:1"/>
<path class="bond-11 atom-6 atom-0" d="M 260.8,257.6 L 268.7,238.0" style="fill:none;fill-rule:evenodd;stroke:#000000;stroke-width:2.0px;stroke-linecap:butt;stroke-linejoin:miter;stroke-opacity:1"/>
<path class="bond-2 atom-1 atom-2" d="M 219.3,188.8 L 208.7,190.4" style="fill:none;fill-rule:evenodd;stroke:#0000FF;stroke-width:2.0px;stroke-linecap:butt;stroke-linejoin:miter;stroke-opacity:1"/>
<path class="bond-2 atom-1 atom-2" d="M 208.7,190.4 L 198.1,191.9" style="fill:none;fill-rule:evenodd;stroke:#000000;stroke-width:2.0px;stroke-linecap:butt;stroke-linejoin:miter;stroke-opacity:1"/>
<path class="bond-3 atom-1 atom-4" d="M 239.0,178.6 L 244.5,164.7" style="fill:none;fill-rule:evenodd;stroke:#0000FF;stroke-width:2.0px;stroke-linecap:butt;stroke-linejoin:miter;stroke-opacity:1"/>
<path class="bond-3 atom-1 atom-4" d="M 244.5,164.7 L 250.1,150.8" style="fill:none;fill-rule:evenodd;stroke:#000000;stroke-width:2.0px;stroke-linecap:butt;stroke-linejoin:miter;stroke-opacity:1"/>
<path class="bond-4 atom-2 atom-3" d="M 183.6,185.3 L 166.9,164.1" style="fill:none;fill-rule:evenodd;stroke:#000000;stroke-width:2.0px;stroke-linecap:butt;stroke-linejoin:miter;stroke-opacity:1"/>
<path class="bond-4 atom-2 atom-3" d="M 173.8,187.9 L 162.1,173.1" style="fill:none;fill-rule:evenodd;stroke:#000000;stroke-width:2.0px;stroke-linecap:butt;stroke-linejoin:miter;stroke-opacity:1"/>
<path class="bond-5 atom-2 atom-5" d="M 186.8,200.6 L 175.5,228.7" style="fill:none;fill-rule:evenodd;stroke:#000000;stroke-width:2.0px;stroke-linecap:butt;stroke-linejoin:miter;stroke-opacity:1"/>
<path class="bond-6 atom-3 atom-17" d="M 143.8,159.0 L 128.1,161.3" style="fill:none;fill-rule:evenodd;stroke:#000000;stroke-width:2.0px;stroke-linecap:butt;stroke-linejoin:miter;stroke-opacity:1"/>
<path class="bond-7 atom-3 atom-20" d="M 164.0,148.9 L 175.2,120.9" style="fill:none;fill-rule:evenodd;stroke:#000000;stroke-width:2.0px;stroke-linecap:butt;stroke-linejoin:miter;stroke-opacity:1"/>
<path class="bond-8 atom-5 atom-18" d="M 166.3,237.2 L 139.7,241.1" style="fill:none;fill-rule:evenodd;stroke:#000000;stroke-width:2.0px;stroke-linecap:butt;stroke-linejoin:miter;stroke-opacity:1"/>
<path class="bond-8 atom-5 atom-18" d="M 160.9,228.6 L 142.4,231.3" style="fill:none;fill-rule:evenodd;stroke:#000000;stroke-width:2.0px;stroke-linecap:butt;stroke-linejoin:miter;stroke-opacity:1"/>
<path class="bond-9 atom-5 atom-21" d="M 175.9,243.8 L 179.5,252.0" style="fill:none;fill-rule:evenodd;stroke:#000000;stroke-width:2.0px;stroke-linecap:butt;stroke-linejoin:miter;stroke-opacity:1"/>
<path class="bond-10 atom-6 atom-8" d="M 252.4,274.2 L 267.4,298.0" style="fill:none;fill-rule:evenodd;stroke:#000000;stroke-width:2.0px;stroke-linecap:butt;stroke-linejoin:miter;stroke-opacity:1"/>
<path class="bond-12 atom-6 atom-9" d="M 241.1,267.8 L 215.9,274.2" style="fill:none;fill-rule:evenodd;stroke:#000000;stroke-width:2.0px;stroke-linecap:butt;stroke-linejoin:miter;stroke-opacity:1"/>
<path class="bond-13 atom-7 atom-9" d="M 199.7,316.3 L 200.7,300.8" style="fill:none;fill-rule:evenodd;stroke:#0000FF;stroke-width:2.0px;stroke-linecap:butt;stroke-linejoin:miter;stroke-opacity:1"/>
<path class="bond-13 atom-7 atom-9" d="M 200.7,300.8 L 201.7,285.3" style="fill:none;fill-rule:evenodd;stroke:#000000;stroke-width:2.0px;stroke-linecap:butt;stroke-linejoin:miter;stroke-opacity:1"/>
<path class="bond-14 atom-7 atom-10" d="M 205.0,326.4 L 214.1,330.1" style="fill:none;fill-rule:evenodd;stroke:#0000FF;stroke-width:2.0px;stroke-linecap:butt;stroke-linejoin:miter;stroke-opacity:1"/>
<path class="bond-14 atom-7 atom-10" d="M 214.1,330.1 L 223.2,333.7" style="fill:none;fill-rule:evenodd;stroke:#000000;stroke-width:2.0px;stroke-linecap:butt;stroke-linejoin:miter;stroke-opacity:1"/>
<path class="bond-15 atom-7 atom-22" d="M 186.8,331.9 L 175.9,338.8" style="fill:none;fill-rule:evenodd;stroke:#0000FF;stroke-width:2.0px;stroke-linecap:butt;stroke-linejoin:miter;stroke-opacity:1"/>
<path class="bond-15 atom-7 atom-22" d="M 175.9,338.8 L 165.0,345.6" style="fill:none;fill-rule:evenodd;stroke:#000000;stroke-width:2.0px;stroke-linecap:butt;stroke-linejoin:miter;stroke-opacity:1"/>
<path class="bond-16 atom-8 atom-10" d="M 265.9,313.1 L 248.7,333.9" style="fill:none;fill-rule:evenodd;stroke:#000000;stroke-width:2.0px;stroke-linecap:butt;stroke-linejoin:miter;stroke-opacity:1"/>
<path class="bond-16 atom-8 atom-10" d="M 256.2,310.3 L 244.1,324.8" style="fill:none;fill-rule:evenodd;stroke:#000000;stroke-width:2.0px;stroke-linecap:butt;stroke-linejoin:miter;stroke-opacity:1"/>
<path class="bond-17 atom-8 atom-31" d="M 291.9,309.3 L 312.1,313.2" style="fill:none;fill-rule:evenodd;stroke:#000000;stroke-width:2.0px;stroke-linecap:butt;stroke-linejoin:miter;stroke-opacity:1"/>
<path class="bond-18 atom-9 atom-23" d="M 188.1,265.7 L 178.1,260.8" style="fill:none;fill-rule:evenodd;stroke:#000000;stroke-width:2.0px;stroke-linecap:butt;stroke-linejoin:miter;stroke-opacity:1"/>
<path class="bond-18 atom-9 atom-23" d="M 178.1,260.8 L 168.1,256.0" style="fill:none;fill-rule:evenodd;stroke:#FF0000;stroke-width:2.0px;stroke-linecap:butt;stroke-linejoin:miter;stroke-opacity:1"/>
<path class="bond-18 atom-9 atom-23" d="M 184.0,274.0 L 174.1,269.2" style="fill:none;fill-rule:evenodd;stroke:#000000;stroke-width:2.0px;stroke-linecap:butt;stroke-linejoin:miter;stroke-opacity:1"/>
<path class="bond-18 atom-9 atom-23" d="M 174.1,269.2 L 164.1,264.4" style="fill:none;fill-rule:evenodd;stroke:#FF0000;stroke-width:2.0px;stroke-linecap:butt;stroke-linejoin:miter;stroke-opacity:1"/>
<path class="bond-19 atom-10 atom-32" d="M 244.4,349.2 L 252.0,379.0" style="fill:none;fill-rule:evenodd;stroke:#000000;stroke-width:2.0px;stroke-linecap:butt;stroke-linejoin:miter;stroke-opacity:1"/>
<path class="bond-20 atom-11 atom-12" d="M 316.9,224.2 L 333.6,245.4" style="fill:none;fill-rule:evenodd;stroke:#000000;stroke-width:2.0px;stroke-linecap:butt;stroke-linejoin:miter;stroke-opacity:1"/>
<path class="bond-20 atom-11 atom-12" d="M 326.7,221.6 L 338.4,236.5" style="fill:none;fill-rule:evenodd;stroke:#000000;stroke-width:2.0px;stroke-linecap:butt;stroke-linejoin:miter;stroke-opacity:1"/>
<path class="bond-21 atom-11 atom-13" d="M 313.8,208.5 L 324.9,180.7" style="fill:none;fill-rule:evenodd;stroke:#000000;stroke-width:2.0px;stroke-linecap:butt;stroke-linejoin:miter;stroke-opacity:1"/>
<path class="bond-22 atom-12 atom-14" d="M 345.1,252.1 L 364.4,249.3" style="fill:none;fill-rule:evenodd;stroke:#000000;stroke-width:2.0px;stroke-linecap:butt;stroke-linejoin:miter;stroke-opacity:1"/>
<path class="bond-23 atom-12 atom-24" d="M 337.4,260.9 L 329.6,290.4" style="fill:none;fill-rule:evenodd;stroke:#000000;stroke-width:2.0px;stroke-linecap:butt;stroke-linejoin:miter;stroke-opacity:1"/>
<path class="bond-24 atom-13 atom-15" d="M 341.7,171.1 L 352.9,169.5" style="fill:none;fill-rule:evenodd;stroke:#000000;stroke-width:2.0px;stroke-linecap:butt;stroke-linejoin:miter;stroke-opacity:1"/>
<path class="bond-24 atom-13 atom-15" d="M 344.7,180.1 L 352.5,179.0" style="fill:none;fill-rule:evenodd;stroke:#000000;stroke-width:2.0px;stroke-linecap:butt;stroke-linejoin:miter;stroke-opacity:1"/>
<path class="bond-25 atom-13 atom-25" d="M 321.8,165.4 L 304.6,143.5" style="fill:none;fill-rule:evenodd;stroke:#000000;stroke-width:2.0px;stroke-linecap:butt;stroke-linejoin:miter;stroke-opacity:1"/>
<path class="bond-26 atom-14 atom-16" d="M 388.7,238.5 L 399.8,210.6" style="fill:none;fill-rule:evenodd;stroke:#000000;stroke-width:2.0px;stroke-linecap:butt;stroke-linejoin:miter;stroke-opacity:1"/>
<path class="bond-26 atom-14 atom-16" d="M 381.7,230.9 L 389.5,211.4" style="fill:none;fill-rule:evenodd;stroke:#000000;stroke-width:2.0px;stroke-linecap:butt;stroke-linejoin:miter;stroke-opacity:1"/>
<path class="bond-27 atom-14 atom-26" d="M 391.8,254.2 L 408.5,275.4" style="fill:none;fill-rule:evenodd;stroke:#000000;stroke-width:2.0px;stroke-linecap:butt;stroke-linejoin:miter;stroke-opacity:1"/>
<path class="bond-28 atom-15 atom-16" d="M 380.3,174.4 L 396.9,195.5" style="fill:none;fill-rule:evenodd;stroke:#000000;stroke-width:2.0px;stroke-linecap:butt;stroke-linejoin:miter;stroke-opacity:1"/>
<path class="bond-29 atom-15 atom-27" d="M 377.1,158.6 L 388.2,130.9" style="fill:none;fill-rule:evenodd;stroke:#000000;stroke-width:2.0px;stroke-linecap:butt;stroke-linejoin:miter;stroke-opacity:1"/>
<path class="bond-30 atom-16 atom-28" d="M 415.5,201.2 L 442.9,197.2" style="fill:none;fill-rule:evenodd;stroke:#000000;stroke-width:2.0px;stroke-linecap:butt;stroke-linejoin:miter;stroke-opacity:1"/>
<path class="bond-31 atom-17 atom-19" d="M 111.8,171.0 L 100.7,198.8" style="fill:none;fill-rule:evenodd;stroke:#000000;stroke-width:2.0px;stroke-linecap:butt;stroke-linejoin:miter;stroke-opacity:1"/>
<path class="bond-31 atom-17 atom-19" d="M 118.8,178.7 L 111.0,198.1" style="fill:none;fill-rule:evenodd;stroke:#000000;stroke-width:2.0px;stroke-linecap:butt;stroke-linejoin:miter;stroke-opacity:1"/>
<path class="bond-32 atom-17 atom-29" d="M 108.8,155.5 L 91.8,133.9" style="fill:none;fill-rule:evenodd;stroke:#000000;stroke-width:2.0px;stroke-linecap:butt;stroke-linejoin:miter;stroke-opacity:1"/>
<path class="bond-33 atom-18 atom-19" d="M 120.3,235.2 L 103.7,214.2" style="fill:none;fill-rule:evenodd;stroke:#000000;stroke-width:2.0px;stroke-linecap:butt;stroke-linejoin:miter;stroke-opacity:1"/>
<path class="bond-34 atom-18 atom-30" d="M 123.3,250.8 L 112.2,278.7" style="fill:none;fill-rule:evenodd;stroke:#000000;stroke-width:2.0px;stroke-linecap:butt;stroke-linejoin:miter;stroke-opacity:1"/>
<path class="bond-35 atom-19 atom-33" d="M 75.5,209.6 L 57.3,212.3" style="fill:none;fill-rule:evenodd;stroke:#000000;stroke-width:2.0px;stroke-linecap:butt;stroke-linejoin:miter;stroke-opacity:1"/>
<path class="atom-0" d="M 249.4 223.1 Q 249.4 219.8, 250.9 218.1 Q 252.5 216.3, 255.4 216.3 Q 258.1 216.3, 259.6 218.3 L 258.3 219.3 Q 257.3 217.9, 255.4 217.9 Q 253.4 217.9, 252.4 219.2 Q 251.3 220.5, 251.3 223.1 Q 251.3 225.7, 252.4 227.0 Q 253.5 228.4, 255.6 228.4 Q 257.1 228.4, 258.8 227.5 L 259.3 228.9 Q 258.6 229.3, 257.5 229.6 Q 256.5 229.8, 255.4 229.8 Q 252.5 229.8, 250.9 228.1 Q 249.4 226.3, 249.4 223.1 " fill="#000000"/>
<path class="atom-0" d="M 261.0 227.5 L 262.8 227.5 L 262.8 229.4 L 261.0 229.4 L 261.0 227.5 M 261.0 221.1 L 262.8 221.1 L 262.8 223.0 L 261.0 223.0 L 261.0 221.1 " fill="#000000"/>
<path class="atom-0" d="M 264.6 228.2 L 267.5 228.2 L 267.5 218.3 L 264.3 219.3 L 263.8 218.2 L 267.9 216.4 L 269.2 216.6 L 269.2 228.2 L 271.8 228.2 L 271.8 229.7 L 264.6 229.7 L 264.6 228.2 " fill="#000000"/>
<path class="atom-1" d="M 222.6 179.9 L 226.9 186.9 Q 227.3 187.6, 228.0 188.8 Q 228.7 190.1, 228.8 190.2 L 228.8 179.9 L 230.5 179.9 L 230.5 193.1 L 228.7 193.1 L 224.1 185.5 Q 223.5 184.6, 222.9 183.6 Q 222.4 182.5, 222.2 182.2 L 222.2 193.1 L 220.5 193.1 L 220.5 179.9 L 222.6 179.9 " fill="#0000FF"/>
<path class="atom-1" d="M 231.9 190.9 L 233.8 190.9 L 233.8 192.8 L 231.9 192.8 L 231.9 190.9 M 231.9 184.5 L 233.8 184.5 L 233.8 186.4 L 231.9 186.4 L 231.9 184.5 " fill="#0000FF"/>
<path class="atom-1" d="M 234.7 182.4 Q 235.2 181.2, 236.4 180.5 Q 237.5 179.8, 239.1 179.8 Q 241.1 179.8, 242.2 180.9 Q 243.3 181.9, 243.3 183.9 Q 243.3 185.8, 241.9 187.6 Q 240.5 189.5, 237.5 191.6 L 243.6 191.6 L 243.6 193.1 L 234.7 193.1 L 234.7 191.9 Q 237.1 190.1, 238.6 188.8 Q 240.1 187.5, 240.8 186.3 Q 241.5 185.2, 241.5 184.0 Q 241.5 182.7, 240.9 182.0 Q 240.2 181.3, 239.1 181.3 Q 238.1 181.3, 237.4 181.7 Q 236.6 182.1, 236.1 183.1 L 234.7 182.4 " fill="#0000FF"/>
<path class="atom-2" d="M 174.2 193.2 Q 174.2 189.9, 175.8 188.2 Q 177.3 186.4, 180.2 186.4 Q 183.0 186.4, 184.4 188.4 L 183.2 189.4 Q 182.1 188.0, 180.2 188.0 Q 178.2 188.0, 177.2 189.3 Q 176.1 190.6, 176.1 193.2 Q 176.1 195.8, 177.2 197.1 Q 178.3 198.5, 180.4 198.5 Q 181.9 198.5, 183.6 197.6 L 184.1 199.0 Q 183.4 199.4, 182.4 199.7 Q 181.3 199.9, 180.2 199.9 Q 177.3 199.9, 175.8 198.2 Q 174.2 196.4, 174.2 193.2 " fill="#000000"/>
<path class="atom-2" d="M 185.8 197.6 L 187.7 197.6 L 187.7 199.5 L 185.8 199.5 L 185.8 197.6 M 185.8 191.2 L 187.7 191.2 L 187.7 193.1 L 185.8 193.1 L 185.8 191.2 " fill="#000000"/>
<path class="atom-2" d="M 194.8 192.8 Q 196.1 193.2, 196.7 194.0 Q 197.3 194.9, 197.3 196.2 Q 197.3 197.3, 196.8 198.2 Q 196.2 199.0, 195.2 199.5 Q 194.1 200.0, 192.8 200.0 Q 191.4 200.0, 190.3 199.5 Q 189.3 199.0, 188.4 198.0 L 189.5 196.9 Q 190.3 197.8, 191.0 198.1 Q 191.7 198.5, 192.8 198.5 Q 194.0 198.5, 194.7 197.8 Q 195.4 197.2, 195.4 196.1 Q 195.4 194.8, 194.7 194.2 Q 193.9 193.6, 192.3 193.6 L 191.4 193.6 L 191.4 192.3 L 192.2 192.3 Q 193.6 192.2, 194.4 191.6 Q 195.2 191.0, 195.2 189.8 Q 195.2 189.0, 194.5 188.5 Q 193.9 187.9, 192.8 187.9 Q 191.7 187.9, 191.0 188.3 Q 190.4 188.7, 189.8 189.7 L 188.6 189.0 Q 189.0 187.9, 190.1 187.2 Q 191.3 186.4, 192.8 186.4 Q 194.8 186.4, 195.9 187.4 Q 197.0 188.3, 197.0 189.8 Q 197.0 190.9, 196.5 191.6 Q 195.9 192.4, 194.8 192.8 " fill="#000000"/>
<path class="atom-3" d="M 145.0 156.6 Q 145.0 153.3, 146.5 151.6 Q 148.1 149.9, 151.0 149.9 Q 153.7 149.9, 155.1 151.8 L 153.9 152.8 Q 152.9 151.4, 151.0 151.4 Q 149.0 151.4, 147.9 152.7 Q 146.9 154.1, 146.9 156.6 Q 146.9 159.2, 148.0 160.5 Q 149.1 161.9, 151.2 161.9 Q 152.6 161.9, 154.3 161.0 L 154.8 162.4 Q 154.2 162.9, 153.1 163.1 Q 152.1 163.4, 150.9 163.4 Q 148.1 163.4, 146.5 161.6 Q 145.0 159.9, 145.0 156.6 " fill="#000000"/>
<path class="atom-3" d="M 156.5 161.0 L 158.4 161.0 L 158.4 162.9 L 156.5 162.9 L 156.5 161.0 M 156.5 154.6 L 158.4 154.6 L 158.4 156.5 L 156.5 156.5 L 156.5 154.6 " fill="#000000"/>
<path class="atom-3" d="M 167.5 158.7 L 169.1 158.7 L 169.1 160.2 L 167.5 160.2 L 167.5 163.2 L 165.8 163.2 L 165.8 160.2 L 159.0 160.2 L 159.0 159.0 L 164.7 150.0 L 167.5 150.0 L 167.5 158.7 M 161.1 158.7 L 165.8 158.7 L 165.8 151.2 L 161.1 158.7 " fill="#000000"/>
<path class="atom-4" d="M 247.9 136.6 L 249.7 136.6 L 249.7 142.2 L 256.5 142.2 L 256.5 136.6 L 258.2 136.6 L 258.2 149.8 L 256.5 149.8 L 256.5 143.7 L 249.7 143.7 L 249.7 149.8 L 247.9 149.8 L 247.9 136.6 " fill="#000000"/>
<path class="atom-4" d="M 259.6 147.6 L 261.5 147.6 L 261.5 149.5 L 259.6 149.5 L 259.6 147.6 M 259.6 141.2 L 261.5 141.2 L 261.5 143.1 L 259.6 143.1 L 259.6 141.2 " fill="#000000"/>
<path class="atom-4" d="M 267.1 141.6 Q 268.3 141.6, 269.2 142.1 Q 270.2 142.6, 270.7 143.5 Q 271.3 144.4, 271.3 145.6 Q 271.3 147.0, 270.6 148.0 Q 270.0 149.0, 268.9 149.5 Q 267.8 150.0, 266.6 150.0 Q 265.4 150.0, 264.2 149.5 Q 263.1 149.1, 262.4 148.2 L 263.5 147.1 Q 264.1 147.7, 264.9 148.1 Q 265.8 148.5, 266.6 148.5 Q 267.8 148.5, 268.6 147.7 Q 269.4 147.0, 269.4 145.7 Q 269.4 144.3, 268.6 143.6 Q 267.8 143.0, 266.5 143.0 Q 265.4 143.0, 264.1 143.5 L 263.1 143.0 L 263.7 136.6 L 270.5 136.6 L 270.3 138.1 L 265.2 138.1 L 264.8 142.0 Q 266.0 141.6, 267.1 141.6 " fill="#000000"/>
<path class="atom-5" d="M 167.4 236.4 Q 167.4 233.1, 168.9 231.4 Q 170.5 229.7, 173.4 229.7 Q 176.1 229.7, 177.6 231.6 L 176.4 232.6 Q 175.3 231.2, 173.4 231.2 Q 171.4 231.2, 170.4 232.5 Q 169.3 233.9, 169.3 236.4 Q 169.3 239.0, 170.4 240.3 Q 171.5 241.7, 173.6 241.7 Q 175.1 241.7, 176.8 240.8 L 177.3 242.2 Q 176.6 242.6, 175.6 242.9 Q 174.5 243.2, 173.4 243.2 Q 170.5 243.2, 168.9 241.4 Q 167.4 239.7, 167.4 236.4 " fill="#000000"/>
<path class="atom-5" d="M 179.0 240.8 L 180.8 240.8 L 180.8 242.7 L 179.0 242.7 L 179.0 240.8 M 179.0 234.4 L 180.8 234.4 L 180.8 236.3 L 179.0 236.3 L 179.0 234.4 " fill="#000000"/>
<path class="atom-5" d="M 187.3 234.8 Q 188.4 234.8, 189.3 235.3 Q 190.2 235.8, 190.7 236.7 Q 191.2 237.6, 191.2 238.8 Q 191.2 240.0, 190.7 241.0 Q 190.1 242.0, 189.1 242.6 Q 188.1 243.1, 186.8 243.1 Q 184.5 243.1, 183.3 241.6 Q 182.1 240.0, 182.1 236.8 Q 182.1 233.3, 183.6 231.5 Q 185.0 229.7, 187.8 229.7 Q 188.7 229.7, 189.4 229.9 Q 190.1 230.0, 190.7 230.4 L 190.0 231.7 Q 189.0 231.2, 187.9 231.2 Q 186.0 231.2, 185.0 232.4 Q 184.1 233.6, 184.0 236.0 Q 184.7 235.4, 185.5 235.1 Q 186.4 234.8, 187.3 234.8 M 186.8 241.6 Q 187.5 241.6, 188.1 241.2 Q 188.7 240.9, 189.1 240.2 Q 189.4 239.6, 189.4 238.8 Q 189.4 237.6, 188.7 236.9 Q 188.1 236.3, 186.9 236.3 Q 186.1 236.3, 185.3 236.6 Q 184.5 236.9, 184.0 237.5 Q 184.1 239.6, 184.8 240.6 Q 185.4 241.6, 186.8 241.6 " fill="#000000"/>
<path class="atom-6" d="M 242.3 266.3 Q 242.3 263.0, 243.8 261.3 Q 245.4 259.6, 248.3 259.6 Q 251.0 259.6, 252.4 261.5 L 251.2 262.5 Q 250.2 261.1, 248.3 261.1 Q 246.3 261.1, 245.2 262.4 Q 244.2 263.8, 244.2 266.3 Q 244.2 268.9, 245.3 270.2 Q 246.4 271.6, 248.5 271.6 Q 249.9 271.6, 251.6 270.7 L 252.2 272.1 Q 251.5 272.5, 250.4 272.8 Q 249.4 273.1, 248.2 273.1 Q 245.4 273.1, 243.8 271.3 Q 242.3 269.6, 242.3 266.3 " fill="#000000"/>
<path class="atom-6" d="M 253.8 270.7 L 255.7 270.7 L 255.7 272.6 L 253.8 272.6 L 253.8 270.7 M 253.8 264.3 L 255.7 264.3 L 255.7 266.2 L 253.8 266.2 L 253.8 264.3 " fill="#000000"/>
<path class="atom-6" d="M 262.9 261.2 L 256.0 261.2 L 256.0 259.7 L 264.8 259.7 L 264.8 261.0 L 259.5 272.9 L 257.7 272.9 L 262.9 261.2 " fill="#000000"/>
<path class="atom-7" d="M 182.2 317.6 L 186.5 324.6 Q 187.0 325.3, 187.6 326.5 Q 188.3 327.8, 188.4 327.8 L 188.4 317.6 L 190.1 317.6 L 190.1 330.8 L 188.3 330.8 L 183.7 323.1 Q 183.1 322.3, 182.6 321.2 Q 182.0 320.2, 181.8 319.9 L 181.8 330.8 L 180.1 330.8 L 180.1 317.6 L 182.2 317.6 " fill="#0000FF"/>
<path class="atom-7" d="M 191.5 328.6 L 193.4 328.6 L 193.4 330.5 L 191.5 330.5 L 191.5 328.6 M 191.5 322.2 L 193.4 322.2 L 193.4 324.1 L 191.5 324.1 L 191.5 322.2 " fill="#0000FF"/>
<path class="atom-7" d="M 201.3 323.8 Q 202.5 324.3, 203.2 325.1 Q 203.8 325.9, 203.8 327.2 Q 203.8 328.3, 203.3 329.2 Q 202.7 330.0, 201.6 330.5 Q 200.6 331.0, 199.3 331.0 Q 197.1 331.0, 195.8 330.0 Q 194.5 328.9, 194.5 327.2 Q 194.5 326.1, 195.1 325.3 Q 195.7 324.5, 196.8 323.9 Q 196.0 323.4, 195.5 322.7 Q 195.0 321.9, 195.0 320.8 Q 195.0 319.3, 196.1 318.4 Q 197.3 317.4, 199.2 317.4 Q 201.1 317.4, 202.2 318.4 Q 203.4 319.3, 203.4 320.8 Q 203.4 321.8, 202.8 322.5 Q 202.3 323.2, 201.3 323.8 M 199.2 318.8 Q 198.1 318.8, 197.5 319.4 Q 196.9 319.9, 196.9 320.8 Q 196.9 321.5, 197.3 322.0 Q 197.7 322.4, 198.3 322.7 Q 198.9 322.9, 200.0 323.3 Q 200.8 322.8, 201.1 322.2 Q 201.5 321.6, 201.5 320.8 Q 201.5 319.9, 200.9 319.4 Q 200.3 318.8, 199.2 318.8 M 199.3 329.6 Q 200.5 329.6, 201.2 328.9 Q 202.0 328.2, 202.0 327.1 Q 202.0 326.4, 201.6 326.0 Q 201.2 325.5, 200.6 325.3 Q 200.0 325.0, 199.0 324.7 L 198.1 324.4 Q 197.2 325.0, 196.8 325.6 Q 196.4 326.3, 196.4 327.1 Q 196.4 328.2, 197.2 328.9 Q 198.0 329.6, 199.3 329.6 " fill="#0000FF"/>
<path class="atom-8" d="M 267.1 305.7 Q 267.1 302.4, 268.6 300.7 Q 270.2 298.9, 273.1 298.9 Q 275.8 298.9, 277.3 300.9 L 276.0 301.9 Q 275.0 300.5, 273.1 300.5 Q 271.1 300.5, 270.0 301.8 Q 269.0 303.1, 269.0 305.7 Q 269.0 308.3, 270.1 309.6 Q 271.2 310.9, 273.3 310.9 Q 274.8 310.9, 276.5 310.1 L 277.0 311.5 Q 276.3 311.9, 275.2 312.2 Q 274.2 312.4, 273.0 312.4 Q 270.2 312.4, 268.6 310.7 Q 267.1 308.9, 267.1 305.7 " fill="#000000"/>
<path class="atom-8" d="M 278.7 310.1 L 280.5 310.1 L 280.5 312.0 L 278.7 312.0 L 278.7 310.1 M 278.7 303.7 L 280.5 303.7 L 280.5 305.5 L 278.7 305.5 L 278.7 303.7 " fill="#000000"/>
<path class="atom-8" d="M 286.0 298.9 Q 288.3 298.9, 289.5 300.5 Q 290.7 302.1, 290.7 305.3 Q 290.7 308.8, 289.2 310.6 Q 287.8 312.4, 285.0 312.4 Q 284.1 312.4, 283.4 312.2 Q 282.7 312.0, 282.1 311.7 L 282.8 310.4 Q 283.8 310.9, 284.9 310.9 Q 286.8 310.9, 287.8 309.7 Q 288.7 308.5, 288.8 306.0 Q 288.1 306.7, 287.3 307.0 Q 286.4 307.3, 285.5 307.3 Q 284.4 307.3, 283.5 306.8 Q 282.6 306.3, 282.1 305.4 Q 281.6 304.5, 281.6 303.3 Q 281.6 302.0, 282.1 301.1 Q 282.7 300.1, 283.7 299.5 Q 284.7 298.9, 286.0 298.9 M 283.4 303.3 Q 283.4 304.5, 284.1 305.2 Q 284.7 305.8, 285.9 305.8 Q 286.7 305.8, 287.5 305.5 Q 288.3 305.2, 288.8 304.6 Q 288.7 302.4, 288.0 301.5 Q 287.4 300.5, 286.0 300.5 Q 285.3 300.5, 284.7 300.8 Q 284.1 301.2, 283.7 301.9 Q 283.4 302.5, 283.4 303.3 " fill="#000000"/>
<path class="atom-9" d="M 181.8 277.7 Q 181.8 274.4, 183.3 272.7 Q 184.8 271.0, 187.8 271.0 Q 190.5 271.0, 191.9 272.9 L 190.7 273.9 Q 189.6 272.5, 187.8 272.5 Q 185.8 272.5, 184.7 273.9 Q 183.7 275.2, 183.7 277.7 Q 183.7 280.3, 184.7 281.7 Q 185.8 283.0, 188.0 283.0 Q 189.4 283.0, 191.1 282.1 L 191.6 283.5 Q 190.9 284.0, 189.9 284.2 Q 188.8 284.5, 187.7 284.5 Q 184.8 284.5, 183.3 282.8 Q 181.8 281.0, 181.8 277.7 " fill="#000000"/>
<path class="atom-9" d="M 193.3 282.2 L 195.2 282.2 L 195.2 284.0 L 193.3 284.0 L 193.3 282.2 M 193.3 275.8 L 195.2 275.8 L 195.2 277.6 L 193.3 277.6 L 193.3 275.8 " fill="#000000"/>
<path class="atom-9" d="M 196.9 282.8 L 199.8 282.8 L 199.8 273.0 L 196.6 274.0 L 196.2 272.9 L 200.2 271.1 L 201.5 271.3 L 201.5 282.8 L 204.1 282.8 L 204.1 284.3 L 196.9 284.3 L 196.9 282.8 " fill="#000000"/>
<path class="atom-9" d="M 210.1 284.5 Q 207.7 284.5, 206.5 282.7 Q 205.3 280.9, 205.3 277.7 Q 205.3 274.5, 206.5 272.8 Q 207.7 271.0, 210.1 271.0 Q 212.5 271.0, 213.7 272.8 Q 214.9 274.5, 214.9 277.7 Q 214.9 280.9, 213.7 282.7 Q 212.5 284.5, 210.1 284.5 M 210.1 283.0 Q 211.5 283.0, 212.3 281.7 Q 213.1 280.3, 213.1 277.7 Q 213.1 275.1, 212.3 273.8 Q 211.5 272.5, 210.1 272.5 Q 208.7 272.5, 207.9 273.8 Q 207.1 275.1, 207.1 277.7 Q 207.1 280.3, 207.9 281.7 Q 208.7 283.0, 210.1 283.0 " fill="#000000"/>
<path class="atom-10" d="M 222.6 341.4 Q 222.6 338.2, 224.1 336.4 Q 225.7 334.7, 228.6 334.7 Q 231.3 334.7, 232.8 336.6 L 231.5 337.6 Q 230.5 336.2, 228.6 336.2 Q 226.6 336.2, 225.5 337.6 Q 224.5 338.9, 224.5 341.4 Q 224.5 344.0, 225.6 345.4 Q 226.7 346.7, 228.8 346.7 Q 230.2 346.7, 231.9 345.8 L 232.5 347.2 Q 231.8 347.7, 230.7 347.9 Q 229.7 348.2, 228.5 348.2 Q 225.7 348.2, 224.1 346.5 Q 222.6 344.7, 222.6 341.4 " fill="#000000"/>
<path class="atom-10" d="M 234.1 345.9 L 236.0 345.9 L 236.0 347.7 L 234.1 347.7 L 234.1 345.9 M 234.1 339.5 L 236.0 339.5 L 236.0 341.3 L 234.1 341.3 L 234.1 339.5 " fill="#000000"/>
<path class="atom-10" d="M 237.7 346.6 L 240.6 346.6 L 240.6 336.7 L 237.4 337.7 L 237.0 336.6 L 241.1 334.8 L 242.4 335.0 L 242.4 346.6 L 245.0 346.6 L 245.0 348.0 L 237.7 348.0 L 237.7 346.6 " fill="#000000"/>
<path class="atom-10" d="M 246.7 346.6 L 249.6 346.6 L 249.6 336.7 L 246.4 337.7 L 246.0 336.6 L 250.0 334.8 L 251.3 335.0 L 251.3 346.6 L 253.9 346.6 L 253.9 348.0 L 246.7 348.0 L 246.7 346.6 " fill="#000000"/>
<path class="atom-11" d="M 290.5 216.4 Q 290.5 213.1, 292.1 211.4 Q 293.6 209.7, 296.5 209.7 Q 299.2 209.7, 300.7 211.6 L 299.5 212.6 Q 298.4 211.2, 296.5 211.2 Q 294.5 211.2, 293.5 212.5 Q 292.4 213.9, 292.4 216.4 Q 292.4 219.0, 293.5 220.3 Q 294.6 221.7, 296.7 221.7 Q 298.2 221.7, 299.9 220.8 L 300.4 222.2 Q 299.7 222.7, 298.7 222.9 Q 297.6 223.2, 296.5 223.2 Q 293.6 223.2, 292.1 221.4 Q 290.5 219.7, 290.5 216.4 " fill="#000000"/>
<path class="atom-11" d="M 302.1 220.8 L 304.0 220.8 L 304.0 222.7 L 302.1 222.7 L 302.1 220.8 M 302.1 214.4 L 304.0 214.4 L 304.0 216.3 L 302.1 216.3 L 302.1 214.4 " fill="#000000"/>
<path class="atom-11" d="M 305.7 221.5 L 308.6 221.5 L 308.6 211.7 L 305.4 212.7 L 305.0 211.6 L 309.0 209.8 L 310.3 210.0 L 310.3 221.5 L 312.9 221.5 L 312.9 223.0 L 305.7 223.0 L 305.7 221.5 " fill="#000000"/>
<path class="atom-11" d="M 313.9 212.3 Q 314.4 211.1, 315.5 210.4 Q 316.7 209.7, 318.3 209.7 Q 320.3 209.7, 321.4 210.8 Q 322.5 211.8, 322.5 213.8 Q 322.5 215.7, 321.0 217.5 Q 319.6 219.4, 316.6 221.5 L 322.7 221.5 L 322.7 223.0 L 313.8 223.0 L 313.8 221.8 Q 316.3 220.0, 317.8 218.7 Q 319.2 217.4, 319.9 216.2 Q 320.6 215.1, 320.6 213.9 Q 320.6 212.6, 320.0 211.9 Q 319.4 211.2, 318.3 211.2 Q 317.2 211.2, 316.5 211.6 Q 315.8 212.0, 315.3 213.0 L 313.9 212.3 " fill="#000000"/>
<path class="atom-12" d="M 311.9 253.0 Q 311.9 249.7, 313.4 248.0 Q 315.0 246.2, 317.9 246.2 Q 320.6 246.2, 322.1 248.2 L 320.8 249.2 Q 319.8 247.8, 317.9 247.8 Q 315.9 247.8, 314.8 249.1 Q 313.8 250.4, 313.8 253.0 Q 313.8 255.6, 314.9 256.9 Q 316.0 258.3, 318.1 258.3 Q 319.6 258.3, 321.2 257.4 L 321.8 258.8 Q 321.1 259.2, 320.0 259.5 Q 319.0 259.7, 317.8 259.7 Q 315.0 259.7, 313.4 258.0 Q 311.9 256.2, 311.9 253.0 " fill="#000000"/>
<path class="atom-12" d="M 323.5 257.4 L 325.3 257.4 L 325.3 259.3 L 323.5 259.3 L 323.5 257.4 M 323.5 251.0 L 325.3 251.0 L 325.3 252.9 L 323.5 252.9 L 323.5 251.0 " fill="#000000"/>
<path class="atom-12" d="M 327.1 258.1 L 329.9 258.1 L 329.9 248.2 L 326.8 249.2 L 326.3 248.1 L 330.4 246.3 L 331.7 246.5 L 331.7 258.1 L 334.3 258.1 L 334.3 259.6 L 327.1 259.6 L 327.1 258.1 " fill="#000000"/>
<path class="atom-12" d="M 341.4 252.6 Q 342.7 253.0, 343.3 253.8 Q 343.9 254.7, 343.9 256.0 Q 343.9 257.1, 343.4 258.0 Q 342.8 258.8, 341.8 259.3 Q 340.8 259.8, 339.4 259.8 Q 338.0 259.8, 336.9 259.3 Q 335.9 258.8, 335.1 257.8 L 336.1 256.7 Q 336.9 257.6, 337.6 257.9 Q 338.3 258.3, 339.4 258.3 Q 340.6 258.3, 341.3 257.6 Q 342.1 257.0, 342.1 255.9 Q 342.1 254.6, 341.3 254.0 Q 340.6 253.4, 338.9 253.4 L 338.0 253.4 L 338.0 252.1 L 338.8 252.1 Q 340.3 252.0, 341.0 251.4 Q 341.8 250.8, 341.8 249.6 Q 341.8 248.8, 341.1 248.3 Q 340.5 247.7, 339.4 247.7 Q 338.3 247.7, 337.6 248.1 Q 337.0 248.5, 336.5 249.5 L 335.2 248.8 Q 335.6 247.7, 336.8 247.0 Q 337.9 246.2, 339.4 246.2 Q 341.4 246.2, 342.5 247.2 Q 343.6 248.1, 343.6 249.6 Q 343.6 250.7, 343.1 251.4 Q 342.5 252.2, 341.4 252.6 " fill="#000000"/>
<path class="atom-13" d="M 307.4 173.2 Q 307.4 169.9, 308.9 168.2 Q 310.5 166.5, 313.4 166.5 Q 316.1 166.5, 317.6 168.4 L 316.4 169.4 Q 315.3 168.0, 313.4 168.0 Q 311.4 168.0, 310.4 169.3 Q 309.3 170.6, 309.3 173.2 Q 309.3 175.8, 310.4 177.1 Q 311.5 178.5, 313.6 178.5 Q 315.1 178.5, 316.8 177.6 L 317.3 179.0 Q 316.6 179.4, 315.6 179.7 Q 314.5 180.0, 313.4 180.0 Q 310.5 180.0, 308.9 178.2 Q 307.4 176.5, 307.4 173.2 " fill="#000000"/>
<path class="atom-13" d="M 319.0 177.6 L 320.8 177.6 L 320.8 179.5 L 319.0 179.5 L 319.0 177.6 M 319.0 171.2 L 320.8 171.2 L 320.8 173.1 L 319.0 173.1 L 319.0 171.2 " fill="#000000"/>
<path class="atom-13" d="M 322.6 178.3 L 325.5 178.3 L 325.5 168.5 L 322.3 169.4 L 321.8 168.3 L 325.9 166.5 L 327.2 166.8 L 327.2 178.3 L 329.8 178.3 L 329.8 179.8 L 322.6 179.8 L 322.6 178.3 " fill="#000000"/>
<path class="atom-13" d="M 338.9 175.3 L 340.5 175.3 L 340.5 176.8 L 338.9 176.8 L 338.9 179.8 L 337.2 179.8 L 337.2 176.8 L 330.4 176.8 L 330.4 175.6 L 336.1 166.6 L 338.9 166.6 L 338.9 175.3 M 332.5 175.3 L 337.2 175.3 L 337.2 167.8 L 332.5 175.3 " fill="#000000"/>
<path class="atom-14" d="M 365.4 246.3 Q 365.4 243.0, 366.9 241.3 Q 368.5 239.6, 371.4 239.6 Q 374.1 239.6, 375.6 241.5 L 374.3 242.5 Q 373.3 241.1, 371.4 241.1 Q 369.4 241.1, 368.3 242.4 Q 367.3 243.8, 367.3 246.3 Q 367.3 248.9, 368.4 250.2 Q 369.5 251.6, 371.6 251.6 Q 373.1 251.6, 374.7 250.7 L 375.3 252.1 Q 374.6 252.6, 373.5 252.8 Q 372.5 253.1, 371.3 253.1 Q 368.5 253.1, 366.9 251.3 Q 365.4 249.6, 365.4 246.3 " fill="#000000"/>
<path class="atom-14" d="M 377.0 250.7 L 378.8 250.7 L 378.8 252.6 L 377.0 252.6 L 377.0 250.7 M 377.0 244.3 L 378.8 244.3 L 378.8 246.2 L 377.0 246.2 L 377.0 244.3 " fill="#000000"/>
<path class="atom-14" d="M 380.6 251.4 L 383.4 251.4 L 383.4 241.6 L 380.3 242.6 L 379.8 241.5 L 383.9 239.7 L 385.2 239.9 L 385.2 251.4 L 387.8 251.4 L 387.8 252.9 L 380.6 252.9 L 380.6 251.4 " fill="#000000"/>
<path class="atom-14" d="M 393.4 244.7 Q 394.6 244.7, 395.5 245.2 Q 396.5 245.6, 397.0 246.6 Q 397.6 247.5, 397.6 248.7 Q 397.6 250.1, 396.9 251.1 Q 396.2 252.1, 395.2 252.6 Q 394.1 253.1, 392.8 253.1 Q 391.6 253.1, 390.5 252.6 Q 389.4 252.2, 388.6 251.3 L 389.8 250.2 Q 390.4 250.8, 391.2 251.2 Q 392.0 251.6, 392.9 251.6 Q 394.1 251.6, 394.9 250.8 Q 395.7 250.1, 395.7 248.8 Q 395.7 247.4, 394.9 246.7 Q 394.1 246.1, 392.8 246.1 Q 391.6 246.1, 390.3 246.6 L 389.3 246.1 L 390.0 239.7 L 396.7 239.7 L 396.5 241.2 L 391.5 241.2 L 391.1 245.1 Q 392.3 244.7, 393.4 244.7 " fill="#000000"/>
<path class="atom-15" d="M 353.7 166.5 Q 353.7 163.2, 355.2 161.5 Q 356.8 159.8, 359.7 159.8 Q 362.4 159.8, 363.8 161.7 L 362.6 162.7 Q 361.6 161.3, 359.7 161.3 Q 357.7 161.3, 356.6 162.7 Q 355.6 164.0, 355.6 166.5 Q 355.6 169.1, 356.7 170.5 Q 357.8 171.8, 359.9 171.8 Q 361.3 171.8, 363.0 170.9 L 363.5 172.3 Q 362.9 172.8, 361.8 173.0 Q 360.8 173.3, 359.6 173.3 Q 356.8 173.3, 355.2 171.5 Q 353.7 169.8, 353.7 166.5 " fill="#000000"/>
<path class="atom-15" d="M 365.2 170.9 L 367.1 170.9 L 367.1 172.8 L 365.2 172.8 L 365.2 170.9 M 365.2 164.5 L 367.1 164.5 L 367.1 166.4 L 365.2 166.4 L 365.2 164.5 " fill="#000000"/>
<path class="atom-15" d="M 368.8 171.6 L 371.7 171.6 L 371.7 161.8 L 368.5 162.8 L 368.1 161.7 L 372.1 159.9 L 373.5 160.1 L 373.5 171.6 L 376.1 171.6 L 376.1 173.1 L 368.8 173.1 L 368.8 171.6 " fill="#000000"/>
<path class="atom-15" d="M 382.5 164.9 Q 383.6 164.9, 384.5 165.4 Q 385.5 165.9, 386.0 166.8 Q 386.5 167.7, 386.5 168.9 Q 386.5 170.2, 385.9 171.2 Q 385.3 172.2, 384.3 172.7 Q 383.3 173.3, 382.0 173.3 Q 379.7 173.3, 378.5 171.7 Q 377.3 170.1, 377.3 166.9 Q 377.3 163.4, 378.8 161.6 Q 380.2 159.8, 383.1 159.8 Q 383.9 159.8, 384.6 160.0 Q 385.3 160.2, 385.9 160.6 L 385.2 161.8 Q 384.2 161.3, 383.1 161.3 Q 381.2 161.3, 380.3 162.5 Q 379.3 163.7, 379.2 166.2 Q 379.9 165.5, 380.7 165.2 Q 381.6 164.9, 382.5 164.9 M 382.1 171.7 Q 382.8 171.7, 383.3 171.4 Q 383.9 171.0, 384.3 170.4 Q 384.6 169.7, 384.6 168.9 Q 384.6 167.7, 383.9 167.1 Q 383.3 166.4, 382.1 166.4 Q 381.3 166.4, 380.5 166.7 Q 379.8 167.0, 379.2 167.6 Q 379.3 169.8, 380.0 170.8 Q 380.7 171.7, 382.1 171.7 " fill="#000000"/>
<path class="atom-16" d="M 382.9 203.1 Q 382.9 199.8, 384.4 198.1 Q 385.9 196.4, 388.9 196.4 Q 391.6 196.4, 393.0 198.3 L 391.8 199.3 Q 390.7 197.9, 388.9 197.9 Q 386.9 197.9, 385.8 199.2 Q 384.8 200.5, 384.8 203.1 Q 384.8 205.7, 385.8 207.0 Q 386.9 208.4, 389.1 208.4 Q 390.5 208.4, 392.2 207.5 L 392.7 208.9 Q 392.0 209.3, 391.0 209.6 Q 390.0 209.9, 388.8 209.9 Q 385.9 209.9, 384.4 208.1 Q 382.9 206.4, 382.9 203.1 " fill="#000000"/>
<path class="atom-16" d="M 394.4 207.5 L 396.3 207.5 L 396.3 209.4 L 394.4 209.4 L 394.4 207.5 M 394.4 201.1 L 396.3 201.1 L 396.3 203.0 L 394.4 203.0 L 394.4 201.1 " fill="#000000"/>
<path class="atom-16" d="M 398.0 208.2 L 400.9 208.2 L 400.9 198.3 L 397.7 199.3 L 397.3 198.2 L 401.3 196.4 L 402.6 196.7 L 402.6 208.2 L 405.2 208.2 L 405.2 209.7 L 398.0 209.7 L 398.0 208.2 " fill="#000000"/>
<path class="atom-16" d="M 412.5 198.0 L 405.6 198.0 L 405.6 196.5 L 414.3 196.5 L 414.3 197.8 L 409.0 209.7 L 407.2 209.7 L 412.5 198.0 " fill="#000000"/>
<path class="atom-17" d="M 94.5 163.3 Q 94.5 160.0, 96.1 158.3 Q 97.6 156.5, 100.5 156.5 Q 103.2 156.5, 104.7 158.5 L 103.5 159.5 Q 102.4 158.1, 100.5 158.1 Q 98.5 158.1, 97.5 159.4 Q 96.4 160.7, 96.4 163.3 Q 96.4 165.9, 97.5 167.2 Q 98.6 168.6, 100.7 168.6 Q 102.2 168.6, 103.9 167.7 L 104.4 169.1 Q 103.7 169.5, 102.7 169.8 Q 101.6 170.0, 100.5 170.0 Q 97.6 170.0, 96.1 168.3 Q 94.5 166.5, 94.5 163.3 " fill="#000000"/>
<path class="atom-17" d="M 106.1 167.7 L 107.9 167.7 L 107.9 169.6 L 106.1 169.6 L 106.1 167.7 M 106.1 161.3 L 107.9 161.3 L 107.9 163.2 L 106.1 163.2 L 106.1 161.3 " fill="#000000"/>
<path class="atom-17" d="M 109.7 168.4 L 112.6 168.4 L 112.6 158.5 L 109.4 159.5 L 109.0 158.4 L 113.0 156.6 L 114.3 156.8 L 114.3 168.4 L 116.9 168.4 L 116.9 169.9 L 109.7 169.9 L 109.7 168.4 " fill="#000000"/>
<path class="atom-17" d="M 124.8 162.9 Q 126.0 163.4, 126.7 164.2 Q 127.4 165.0, 127.4 166.3 Q 127.4 167.4, 126.8 168.3 Q 126.2 169.1, 125.2 169.6 Q 124.1 170.1, 122.8 170.1 Q 120.6 170.1, 119.3 169.1 Q 118.1 168.0, 118.1 166.3 Q 118.1 165.2, 118.6 164.4 Q 119.2 163.6, 120.3 162.9 Q 119.5 162.5, 119.0 161.8 Q 118.5 161.0, 118.5 159.9 Q 118.5 158.4, 119.7 157.5 Q 120.8 156.5, 122.7 156.5 Q 124.6 156.5, 125.7 157.5 Q 126.9 158.4, 126.9 159.9 Q 126.9 160.9, 126.3 161.6 Q 125.8 162.3, 124.8 162.9 M 122.7 157.9 Q 121.6 157.9, 121.0 158.5 Q 120.4 159.0, 120.4 159.9 Q 120.4 160.6, 120.8 161.1 Q 121.2 161.5, 121.8 161.8 Q 122.4 162.0, 123.5 162.4 Q 124.3 161.9, 124.7 161.3 Q 125.0 160.7, 125.0 159.9 Q 125.0 159.0, 124.4 158.5 Q 123.8 157.9, 122.7 157.9 M 122.8 168.7 Q 124.0 168.7, 124.8 168.0 Q 125.5 167.3, 125.5 166.2 Q 125.5 165.5, 125.1 165.1 Q 124.7 164.6, 124.1 164.4 Q 123.6 164.1, 122.5 163.8 L 121.7 163.5 Q 120.7 164.1, 120.3 164.7 Q 119.9 165.4, 119.9 166.2 Q 119.9 167.3, 120.7 168.0 Q 121.5 168.7, 122.8 168.7 " fill="#000000"/>
<path class="atom-18" d="M 106.2 243.0 Q 106.2 239.8, 107.7 238.1 Q 109.2 236.3, 112.2 236.3 Q 114.9 236.3, 116.3 238.2 L 115.1 239.3 Q 114.0 237.9, 112.2 237.9 Q 110.2 237.9, 109.1 239.2 Q 108.1 240.5, 108.1 243.0 Q 108.1 245.7, 109.1 247.0 Q 110.2 248.3, 112.4 248.3 Q 113.8 248.3, 115.5 247.5 L 116.0 248.9 Q 115.3 249.3, 114.3 249.6 Q 113.3 249.8, 112.1 249.8 Q 109.2 249.8, 107.7 248.1 Q 106.2 246.3, 106.2 243.0 " fill="#000000"/>
<path class="atom-18" d="M 117.7 247.5 L 119.6 247.5 L 119.6 249.3 L 117.7 249.3 L 117.7 247.5 M 117.7 241.1 L 119.6 241.1 L 119.6 242.9 L 117.7 242.9 L 117.7 241.1 " fill="#000000"/>
<path class="atom-18" d="M 121.3 248.2 L 124.2 248.2 L 124.2 238.3 L 121.0 239.3 L 120.6 238.2 L 124.6 236.4 L 125.9 236.6 L 125.9 248.2 L 128.5 248.2 L 128.5 249.7 L 121.3 249.7 L 121.3 248.2 " fill="#000000"/>
<path class="atom-18" d="M 134.0 236.3 Q 136.3 236.3, 137.5 237.9 Q 138.7 239.5, 138.7 242.7 Q 138.7 246.2, 137.2 248.0 Q 135.8 249.8, 133.0 249.8 Q 132.1 249.8, 131.4 249.6 Q 130.8 249.4, 130.1 249.0 L 130.8 247.8 Q 131.8 248.3, 132.9 248.3 Q 134.8 248.3, 135.8 247.1 Q 136.7 245.9, 136.8 243.4 Q 136.2 244.1, 135.3 244.4 Q 134.5 244.7, 133.5 244.7 Q 132.4 244.7, 131.5 244.2 Q 130.6 243.7, 130.1 242.8 Q 129.6 241.9, 129.6 240.7 Q 129.6 239.4, 130.1 238.5 Q 130.7 237.4, 131.7 236.9 Q 132.7 236.3, 134.0 236.3 M 131.4 240.7 Q 131.4 241.9, 132.1 242.5 Q 132.7 243.2, 133.9 243.2 Q 134.7 243.2, 135.5 242.9 Q 136.3 242.6, 136.8 242.0 Q 136.7 239.8, 136.1 238.8 Q 135.4 237.9, 134.0 237.9 Q 133.3 237.9, 132.7 238.2 Q 132.1 238.6, 131.8 239.3 Q 131.4 239.9, 131.4 240.7 " fill="#000000"/>
<path class="atom-19" d="M 76.6 206.5 Q 76.6 203.2, 78.1 201.5 Q 79.7 199.8, 82.6 199.8 Q 85.3 199.8, 86.8 201.7 L 85.6 202.7 Q 84.5 201.3, 82.6 201.3 Q 80.6 201.3, 79.6 202.6 Q 78.5 204.0, 78.5 206.5 Q 78.5 209.1, 79.6 210.4 Q 80.7 211.8, 82.8 211.8 Q 84.3 211.8, 86.0 210.9 L 86.5 212.3 Q 85.8 212.7, 84.8 213.0 Q 83.7 213.3, 82.6 213.3 Q 79.7 213.3, 78.1 211.5 Q 76.6 209.8, 76.6 206.5 " fill="#000000"/>
<path class="atom-19" d="M 88.2 210.9 L 90.0 210.9 L 90.0 212.8 L 88.2 212.8 L 88.2 210.9 M 88.2 204.5 L 90.0 204.5 L 90.0 206.4 L 88.2 206.4 L 88.2 204.5 " fill="#000000"/>
<path class="atom-19" d="M 91.0 202.4 Q 91.5 201.2, 92.6 200.5 Q 93.8 199.8, 95.4 199.8 Q 97.4 199.8, 98.5 200.8 Q 99.6 201.9, 99.6 203.8 Q 99.6 205.8, 98.2 207.6 Q 96.7 209.4, 93.8 211.6 L 99.9 211.6 L 99.9 213.1 L 91.0 213.1 L 91.0 211.8 Q 93.4 210.1, 94.9 208.8 Q 96.4 207.5, 97.1 206.3 Q 97.8 205.1, 97.8 203.9 Q 97.8 202.7, 97.1 202.0 Q 96.5 201.3, 95.4 201.3 Q 94.3 201.3, 93.6 201.7 Q 92.9 202.1, 92.4 203.1 L 91.0 202.4 " fill="#000000"/>
<path class="atom-19" d="M 105.8 213.2 Q 103.4 213.2, 102.2 211.5 Q 101.0 209.7, 101.0 206.5 Q 101.0 203.3, 102.2 201.5 Q 103.4 199.8, 105.8 199.8 Q 108.2 199.8, 109.4 201.5 Q 110.6 203.3, 110.6 206.5 Q 110.6 209.7, 109.4 211.5 Q 108.2 213.2, 105.8 213.2 M 105.8 211.8 Q 107.2 211.8, 108.0 210.4 Q 108.8 209.1, 108.8 206.5 Q 108.8 203.9, 108.0 202.6 Q 107.2 201.3, 105.8 201.3 Q 104.4 201.3, 103.6 202.6 Q 102.8 203.9, 102.8 206.5 Q 102.8 209.1, 103.6 210.4 Q 104.4 211.8, 105.8 211.8 " fill="#000000"/>
<path class="atom-20" d="M 173.1 106.8 L 174.9 106.8 L 174.9 112.4 L 181.6 112.4 L 181.6 106.8 L 183.4 106.8 L 183.4 120.0 L 181.6 120.0 L 181.6 113.9 L 174.9 113.9 L 174.9 120.0 L 173.1 120.0 L 173.1 106.8 " fill="#000000"/>
<path class="atom-20" d="M 184.8 117.8 L 186.6 117.8 L 186.6 119.7 L 184.8 119.7 L 184.8 117.8 M 184.8 111.4 L 186.6 111.4 L 186.6 113.3 L 184.8 113.3 L 184.8 111.4 " fill="#000000"/>
<path class="atom-20" d="M 187.6 109.3 Q 188.1 108.1, 189.2 107.4 Q 190.4 106.7, 192.0 106.7 Q 194.0 106.7, 195.1 107.7 Q 196.2 108.8, 196.2 110.7 Q 196.2 112.7, 194.8 114.5 Q 193.3 116.3, 190.4 118.5 L 196.5 118.5 L 196.5 120.0 L 187.6 120.0 L 187.6 118.7 Q 190.0 117.0, 191.5 115.7 Q 193.0 114.4, 193.7 113.2 Q 194.4 112.0, 194.4 110.8 Q 194.4 109.6, 193.7 108.9 Q 193.1 108.1, 192.0 108.1 Q 190.9 108.1, 190.2 108.6 Q 189.5 109.0, 189.0 110.0 L 187.6 109.3 " fill="#000000"/>
<path class="atom-20" d="M 198.2 118.5 L 201.1 118.5 L 201.1 108.7 L 197.9 109.6 L 197.5 108.5 L 201.5 106.7 L 202.8 107.0 L 202.8 118.5 L 205.4 118.5 L 205.4 120.0 L 198.2 120.0 L 198.2 118.5 " fill="#000000"/>
<path class="atom-21" d="M 177.5 252.4 L 179.3 252.4 L 179.3 258.0 L 186.0 258.0 L 186.0 252.4 L 187.8 252.4 L 187.8 265.6 L 186.0 265.6 L 186.0 259.5 L 179.3 259.5 L 179.3 265.6 L 177.5 265.6 L 177.5 252.4 " fill="#000000"/>
<path class="atom-21" d="M 189.2 263.4 L 191.1 263.4 L 191.1 265.2 L 189.2 265.2 L 189.2 263.4 M 189.2 257.0 L 191.1 257.0 L 191.1 258.8 L 189.2 258.8 L 189.2 257.0 " fill="#000000"/>
<path class="atom-21" d="M 192.0 254.9 Q 192.5 253.6, 193.7 252.9 Q 194.8 252.2, 196.4 252.2 Q 198.4 252.2, 199.5 253.3 Q 200.7 254.4, 200.7 256.3 Q 200.7 258.3, 199.2 260.1 Q 197.8 261.9, 194.8 264.1 L 200.9 264.1 L 200.9 265.6 L 192.0 265.6 L 192.0 264.3 Q 194.5 262.6, 195.9 261.3 Q 197.4 259.9, 198.1 258.8 Q 198.8 257.6, 198.8 256.4 Q 198.8 255.1, 198.2 254.4 Q 197.5 253.7, 196.4 253.7 Q 195.4 253.7, 194.7 254.1 Q 194.0 254.6, 193.4 255.5 L 192.0 254.9 " fill="#000000"/>
<path class="atom-21" d="M 201.8 254.9 Q 202.3 253.6, 203.5 252.9 Q 204.6 252.2, 206.2 252.2 Q 208.2 252.2, 209.3 253.3 Q 210.5 254.4, 210.5 256.3 Q 210.5 258.3, 209.0 260.1 Q 207.6 261.9, 204.6 264.1 L 210.7 264.1 L 210.7 265.6 L 201.8 265.6 L 201.8 264.3 Q 204.3 262.6, 205.7 261.3 Q 207.2 259.9, 207.9 258.8 Q 208.6 257.6, 208.6 256.4 Q 208.6 255.1, 208.0 254.4 Q 207.3 253.7, 206.2 253.7 Q 205.2 253.7, 204.5 254.1 Q 203.8 254.6, 203.3 255.5 L 201.8 254.9 " fill="#000000"/>
<path class="atom-22" d="M 131.2 342.4 L 133.0 342.4 L 133.0 348.0 L 139.8 348.0 L 139.8 342.4 L 141.5 342.4 L 141.5 355.6 L 139.8 355.6 L 139.8 349.5 L 133.0 349.5 L 133.0 355.6 L 131.2 355.6 L 131.2 342.4 " fill="#000000"/>
<path class="atom-22" d="M 142.9 353.4 L 144.8 353.4 L 144.8 355.3 L 142.9 355.3 L 142.9 353.4 M 142.9 347.0 L 144.8 347.0 L 144.8 348.9 L 142.9 348.9 L 142.9 347.0 " fill="#000000"/>
<path class="atom-22" d="M 145.8 344.9 Q 146.2 343.7, 147.4 343.0 Q 148.6 342.3, 150.2 342.3 Q 152.1 342.3, 153.3 343.3 Q 154.4 344.4, 154.4 346.3 Q 154.4 348.3, 152.9 350.1 Q 151.5 351.9, 148.5 354.1 L 154.6 354.1 L 154.6 355.6 L 145.7 355.6 L 145.7 354.4 Q 148.2 352.6, 149.6 351.3 Q 151.1 350.0, 151.8 348.8 Q 152.5 347.6, 152.5 346.4 Q 152.5 345.2, 151.9 344.5 Q 151.3 343.8, 150.2 343.8 Q 149.1 343.8, 148.4 344.2 Q 147.7 344.6, 147.2 345.6 L 145.8 344.9 " fill="#000000"/>
<path class="atom-22" d="M 161.7 348.7 Q 163.0 349.0, 163.6 349.9 Q 164.3 350.7, 164.3 352.0 Q 164.3 353.1, 163.7 354.0 Q 163.1 354.8, 162.1 355.3 Q 161.1 355.8, 159.7 355.8 Q 158.3 355.8, 157.3 355.3 Q 156.2 354.8, 155.4 353.8 L 156.4 352.7 Q 157.3 353.6, 158.0 354.0 Q 158.6 354.3, 159.7 354.3 Q 160.9 354.3, 161.7 353.7 Q 162.4 353.0, 162.4 352.0 Q 162.4 350.6, 161.6 350.0 Q 160.9 349.4, 159.3 349.4 L 158.3 349.4 L 158.3 348.1 L 159.1 348.1 Q 160.6 348.1, 161.3 347.4 Q 162.1 346.8, 162.1 345.6 Q 162.1 344.8, 161.5 344.3 Q 160.8 343.8, 159.8 343.8 Q 158.7 343.8, 158.0 344.1 Q 157.3 344.5, 156.8 345.5 L 155.5 344.8 Q 156.0 343.7, 157.1 343.0 Q 158.2 342.3, 159.8 342.3 Q 161.7 342.3, 162.8 343.2 Q 164.0 344.1, 164.0 345.6 Q 164.0 346.7, 163.4 347.5 Q 162.8 348.2, 161.7 348.7 " fill="#000000"/>
<path class="atom-23" d="M 129.5 257.5 Q 129.5 254.3, 131.1 252.5 Q 132.7 250.8, 135.6 250.8 Q 138.5 250.8, 140.1 252.5 Q 141.6 254.3, 141.6 257.5 Q 141.6 260.7, 140.1 262.5 Q 138.5 264.3, 135.6 264.3 Q 132.7 264.3, 131.1 262.5 Q 129.5 260.7, 129.5 257.5 M 135.6 262.8 Q 137.6 262.8, 138.7 261.5 Q 139.8 260.1, 139.8 257.5 Q 139.8 254.9, 138.7 253.6 Q 137.6 252.3, 135.6 252.3 Q 133.6 252.3, 132.5 253.6 Q 131.4 254.9, 131.4 257.5 Q 131.4 260.1, 132.5 261.5 Q 133.6 262.8, 135.6 262.8 " fill="#FF0000"/>
<path class="atom-23" d="M 143.0 261.9 L 144.9 261.9 L 144.9 263.8 L 143.0 263.8 L 143.0 261.9 M 143.0 255.5 L 144.9 255.5 L 144.9 257.4 L 143.0 257.4 L 143.0 255.5 " fill="#FF0000"/>
<path class="atom-23" d="M 145.9 253.4 Q 146.3 252.2, 147.5 251.5 Q 148.7 250.8, 150.3 250.8 Q 152.2 250.8, 153.4 251.9 Q 154.5 252.9, 154.5 254.8 Q 154.5 256.8, 153.0 258.6 Q 151.6 260.5, 148.6 262.6 L 154.7 262.6 L 154.7 264.1 L 145.8 264.1 L 145.8 262.9 Q 148.3 261.1, 149.7 259.8 Q 151.2 258.5, 151.9 257.3 Q 152.6 256.2, 152.6 254.9 Q 152.6 253.7, 152.0 253.0 Q 151.4 252.3, 150.3 252.3 Q 149.2 252.3, 148.5 252.7 Q 147.8 253.1, 147.3 254.1 L 145.9 253.4 " fill="#FF0000"/>
<path class="atom-23" d="M 163.8 259.6 L 165.4 259.6 L 165.4 261.1 L 163.8 261.1 L 163.8 264.1 L 162.1 264.1 L 162.1 261.1 L 155.3 261.1 L 155.3 259.9 L 161.0 250.9 L 163.8 250.9 L 163.8 259.6 M 157.4 259.6 L 162.1 259.6 L 162.1 252.1 L 157.4 259.6 " fill="#FF0000"/>
<path class="atom-24" d="M 322.5 291.4 L 324.3 291.4 L 324.3 297.0 L 331.0 297.0 L 331.0 291.4 L 332.8 291.4 L 332.8 304.6 L 331.0 304.6 L 331.0 298.5 L 324.3 298.5 L 324.3 304.6 L 322.5 304.6 L 322.5 291.4 " fill="#000000"/>
<path class="atom-24" d="M 334.2 302.4 L 336.0 302.4 L 336.0 304.3 L 334.2 304.3 L 334.2 302.4 M 334.2 296.0 L 336.0 296.0 L 336.0 297.9 L 334.2 297.9 L 334.2 296.0 " fill="#000000"/>
<path class="atom-24" d="M 337.0 293.9 Q 337.5 292.6, 338.6 292.0 Q 339.8 291.2, 341.4 291.2 Q 343.4 291.2, 344.5 292.3 Q 345.6 293.4, 345.6 295.3 Q 345.6 297.3, 344.2 299.1 Q 342.7 300.9, 339.8 303.1 L 345.9 303.1 L 345.9 304.6 L 337.0 304.6 L 337.0 303.3 Q 339.4 301.6, 340.9 300.3 Q 342.4 299.0, 343.1 297.8 Q 343.8 296.6, 343.8 295.4 Q 343.8 294.2, 343.1 293.4 Q 342.5 292.7, 341.4 292.7 Q 340.3 292.7, 339.6 293.2 Q 338.9 293.6, 338.4 294.5 L 337.0 293.9 " fill="#000000"/>
<path class="atom-24" d="M 351.5 296.3 Q 352.6 296.3, 353.6 296.8 Q 354.5 297.3, 355.1 298.2 Q 355.6 299.2, 355.6 300.4 Q 355.6 301.8, 355.0 302.8 Q 354.3 303.7, 353.2 304.2 Q 352.1 304.7, 350.9 304.7 Q 349.7 304.7, 348.6 304.3 Q 347.5 303.8, 346.7 303.0 L 347.8 301.8 Q 348.4 302.5, 349.3 302.9 Q 350.1 303.2, 351.0 303.2 Q 352.1 303.2, 352.9 302.5 Q 353.8 301.8, 353.8 300.4 Q 353.8 299.0, 352.9 298.4 Q 352.1 297.7, 350.9 297.7 Q 349.7 297.7, 348.4 298.2 L 347.4 297.7 L 348.0 291.4 L 354.8 291.4 L 354.6 292.9 L 349.6 292.9 L 349.2 296.8 Q 350.3 296.3, 351.5 296.3 " fill="#000000"/>
<path class="atom-25" d="M 269.9 130.0 L 271.7 130.0 L 271.7 135.6 L 278.5 135.6 L 278.5 130.0 L 280.2 130.0 L 280.2 143.2 L 278.5 143.2 L 278.5 137.1 L 271.7 137.1 L 271.7 143.2 L 269.9 143.2 L 269.9 130.0 " fill="#000000"/>
<path class="atom-25" d="M 281.6 141.0 L 283.5 141.0 L 283.5 142.9 L 281.6 142.9 L 281.6 141.0 M 281.6 134.6 L 283.5 134.6 L 283.5 136.5 L 281.6 136.5 L 281.6 134.6 " fill="#000000"/>
<path class="atom-25" d="M 284.5 132.5 Q 285.0 131.3, 286.1 130.6 Q 287.3 129.9, 288.9 129.9 Q 290.9 129.9, 292.0 131.0 Q 293.1 132.1, 293.1 134.0 Q 293.1 135.9, 291.6 137.8 Q 290.2 139.6, 287.2 141.7 L 293.3 141.7 L 293.3 143.2 L 284.4 143.2 L 284.4 142.0 Q 286.9 140.2, 288.3 138.9 Q 289.8 137.6, 290.5 136.5 Q 291.2 135.3, 291.2 134.1 Q 291.2 132.8, 290.6 132.1 Q 290.0 131.4, 288.9 131.4 Q 287.8 131.4, 287.1 131.8 Q 286.4 132.2, 285.9 133.2 L 284.5 132.5 " fill="#000000"/>
<path class="atom-25" d="M 299.7 135.0 Q 300.9 135.0, 301.8 135.5 Q 302.7 136.0, 303.2 136.9 Q 303.7 137.8, 303.7 139.0 Q 303.7 140.3, 303.1 141.3 Q 302.6 142.3, 301.6 142.8 Q 300.6 143.4, 299.3 143.4 Q 296.9 143.4, 295.8 141.8 Q 294.6 140.2, 294.6 137.0 Q 294.6 133.5, 296.0 131.7 Q 297.5 129.9, 300.3 129.9 Q 301.1 129.9, 301.8 130.1 Q 302.5 130.3, 303.2 130.7 L 302.5 131.9 Q 301.5 131.4, 300.3 131.4 Q 298.5 131.4, 297.5 132.6 Q 296.6 133.8, 296.5 136.3 Q 297.1 135.6, 298.0 135.3 Q 298.8 135.0, 299.7 135.0 M 299.3 141.8 Q 300.0 141.8, 300.6 141.5 Q 301.2 141.1, 301.5 140.5 Q 301.9 139.8, 301.9 139.0 Q 301.9 137.8, 301.2 137.2 Q 300.6 136.5, 299.4 136.5 Q 298.6 136.5, 297.8 136.8 Q 297.0 137.1, 296.5 137.7 Q 296.5 139.9, 297.2 140.9 Q 297.9 141.8, 299.3 141.8 " fill="#000000"/>
<path class="atom-26" d="M 409.2 276.3 L 411.0 276.3 L 411.0 281.9 L 417.7 281.9 L 417.7 276.3 L 419.5 276.3 L 419.5 289.5 L 417.7 289.5 L 417.7 283.4 L 411.0 283.4 L 411.0 289.5 L 409.2 289.5 L 409.2 276.3 " fill="#000000"/>
<path class="atom-26" d="M 420.9 287.3 L 422.8 287.3 L 422.8 289.2 L 420.9 289.2 L 420.9 287.3 M 420.9 280.9 L 422.8 280.9 L 422.8 282.8 L 420.9 282.8 L 420.9 280.9 " fill="#000000"/>
<path class="atom-26" d="M 423.7 278.8 Q 424.2 277.5, 425.4 276.8 Q 426.5 276.1, 428.1 276.1 Q 430.1 276.1, 431.2 277.2 Q 432.4 278.3, 432.4 280.2 Q 432.4 282.2, 430.9 284.0 Q 429.5 285.8, 426.5 288.0 L 432.6 288.0 L 432.6 289.5 L 423.7 289.5 L 423.7 288.2 Q 426.2 286.5, 427.6 285.2 Q 429.1 283.9, 429.8 282.7 Q 430.5 281.5, 430.5 280.3 Q 430.5 279.0, 429.9 278.3 Q 429.2 277.6, 428.1 277.6 Q 427.1 277.6, 426.4 278.1 Q 425.7 278.5, 425.2 279.4 L 423.7 278.8 " fill="#000000"/>
<path class="atom-26" d="M 439.8 277.8 L 432.9 277.8 L 432.9 276.3 L 441.7 276.3 L 441.7 277.6 L 436.3 289.5 L 434.6 289.5 L 439.8 277.8 " fill="#000000"/>
<path class="atom-27" d="M 386.1 116.7 L 387.9 116.7 L 387.9 122.3 L 394.6 122.3 L 394.6 116.7 L 396.4 116.7 L 396.4 129.9 L 394.6 129.9 L 394.6 123.8 L 387.9 123.8 L 387.9 129.9 L 386.1 129.9 L 386.1 116.7 " fill="#000000"/>
<path class="atom-27" d="M 397.8 127.7 L 399.7 127.7 L 399.7 129.6 L 397.8 129.6 L 397.8 127.7 M 397.8 121.3 L 399.7 121.3 L 399.7 123.2 L 397.8 123.2 L 397.8 121.3 " fill="#000000"/>
<path class="atom-27" d="M 400.7 119.2 Q 401.1 118.0, 402.3 117.3 Q 403.5 116.6, 405.1 116.6 Q 407.0 116.6, 408.2 117.7 Q 409.3 118.7, 409.3 120.7 Q 409.3 122.6, 407.8 124.4 Q 406.4 126.3, 403.4 128.4 L 409.5 128.4 L 409.5 129.9 L 400.6 129.9 L 400.6 128.7 Q 403.1 126.9, 404.5 125.6 Q 406.0 124.3, 406.7 123.1 Q 407.4 122.0, 407.4 120.7 Q 407.4 119.5, 406.8 118.8 Q 406.2 118.1, 405.1 118.1 Q 404.0 118.1, 403.3 118.5 Q 402.6 118.9, 402.1 119.9 L 400.7 119.2 " fill="#000000"/>
<path class="atom-27" d="M 417.4 122.9 Q 418.6 123.4, 419.3 124.2 Q 420.0 125.0, 420.0 126.3 Q 420.0 127.4, 419.4 128.3 Q 418.8 129.1, 417.8 129.6 Q 416.7 130.1, 415.4 130.1 Q 413.2 130.1, 411.9 129.1 Q 410.7 128.1, 410.7 126.3 Q 410.7 125.2, 411.2 124.4 Q 411.8 123.6, 412.9 123.0 Q 412.1 122.5, 411.6 121.8 Q 411.1 121.1, 411.1 119.9 Q 411.1 118.4, 412.3 117.5 Q 413.4 116.6, 415.3 116.6 Q 417.2 116.6, 418.3 117.5 Q 419.5 118.4, 419.5 119.9 Q 419.5 120.9, 418.9 121.6 Q 418.4 122.3, 417.4 122.9 M 415.3 118.0 Q 414.2 118.0, 413.6 118.5 Q 413.0 119.0, 413.0 119.9 Q 413.0 120.6, 413.4 121.1 Q 413.8 121.5, 414.4 121.8 Q 415.0 122.1, 416.1 122.5 Q 416.9 121.9, 417.3 121.3 Q 417.6 120.7, 417.6 119.9 Q 417.6 119.0, 417.0 118.5 Q 416.4 118.0, 415.3 118.0 M 415.4 128.7 Q 416.6 128.7, 417.4 128.0 Q 418.1 127.4, 418.1 126.3 Q 418.1 125.6, 417.7 125.1 Q 417.3 124.7, 416.7 124.4 Q 416.2 124.2, 415.1 123.8 L 414.3 123.5 Q 413.3 124.1, 412.9 124.8 Q 412.5 125.4, 412.5 126.3 Q 412.5 127.4, 413.3 128.0 Q 414.1 128.7, 415.4 128.7 " fill="#000000"/>
<path class="atom-28" d="M 443.7 189.8 L 445.5 189.8 L 445.5 195.4 L 452.3 195.4 L 452.3 189.8 L 454.0 189.8 L 454.0 203.0 L 452.3 203.0 L 452.3 196.9 L 445.5 196.9 L 445.5 203.0 L 443.7 203.0 L 443.7 189.8 " fill="#000000"/>
<path class="atom-28" d="M 455.4 200.8 L 457.3 200.8 L 457.3 202.7 L 455.4 202.7 L 455.4 200.8 M 455.4 194.4 L 457.3 194.4 L 457.3 196.3 L 455.4 196.3 L 455.4 194.4 " fill="#000000"/>
<path class="atom-28" d="M 458.3 192.3 Q 458.7 191.1, 459.9 190.4 Q 461.1 189.7, 462.7 189.7 Q 464.7 189.7, 465.8 190.8 Q 466.9 191.9, 466.9 193.8 Q 466.9 195.7, 465.4 197.6 Q 464.0 199.4, 461.0 201.5 L 467.1 201.5 L 467.1 203.0 L 458.2 203.0 L 458.2 201.8 Q 460.7 200.0, 462.1 198.7 Q 463.6 197.4, 464.3 196.2 Q 465.0 195.1, 465.0 193.9 Q 465.0 192.6, 464.4 191.9 Q 463.8 191.2, 462.7 191.2 Q 461.6 191.2, 460.9 191.6 Q 460.2 192.0, 459.7 193.0 L 458.3 192.3 " fill="#000000"/>
<path class="atom-28" d="M 472.6 189.7 Q 474.9 189.7, 476.1 191.3 Q 477.3 192.9, 477.3 196.0 Q 477.3 199.5, 475.8 201.4 Q 474.3 203.2, 471.5 203.2 Q 470.7 203.2, 470.0 203.0 Q 469.3 202.8, 468.7 202.4 L 469.4 201.2 Q 470.3 201.7, 471.5 201.7 Q 473.4 201.7, 474.3 200.5 Q 475.3 199.3, 475.4 196.8 Q 474.7 197.4, 473.9 197.8 Q 473.0 198.1, 472.1 198.1 Q 471.0 198.1, 470.0 197.6 Q 469.1 197.1, 468.6 196.2 Q 468.1 195.2, 468.1 194.1 Q 468.1 192.8, 468.7 191.8 Q 469.3 190.8, 470.3 190.3 Q 471.3 189.7, 472.6 189.7 M 470.0 194.1 Q 470.0 195.2, 470.6 195.9 Q 471.3 196.6, 472.5 196.6 Q 473.3 196.6, 474.0 196.3 Q 474.8 195.9, 475.4 195.4 Q 475.3 193.2, 474.6 192.2 Q 473.9 191.2, 472.5 191.2 Q 471.8 191.2, 471.2 191.6 Q 470.7 192.0, 470.3 192.6 Q 470.0 193.3, 470.0 194.1 " fill="#000000"/>
<path class="atom-29" d="M 56.9 120.1 L 58.7 120.1 L 58.7 125.7 L 65.5 125.7 L 65.5 120.1 L 67.2 120.1 L 67.2 133.3 L 65.5 133.3 L 65.5 127.2 L 58.7 127.2 L 58.7 133.3 L 56.9 133.3 L 56.9 120.1 " fill="#000000"/>
<path class="atom-29" d="M 68.6 131.1 L 70.5 131.1 L 70.5 133.0 L 68.6 133.0 L 68.6 131.1 M 68.6 124.7 L 70.5 124.7 L 70.5 126.6 L 68.6 126.6 L 68.6 124.7 " fill="#000000"/>
<path class="atom-29" d="M 77.6 126.4 Q 78.9 126.7, 79.5 127.6 Q 80.1 128.4, 80.1 129.7 Q 80.1 130.8, 79.6 131.7 Q 79.0 132.5, 78.0 133.0 Q 77.0 133.5, 75.6 133.5 Q 74.2 133.5, 73.2 133.0 Q 72.1 132.5, 71.3 131.5 L 72.3 130.4 Q 73.2 131.3, 73.8 131.7 Q 74.5 132.0, 75.6 132.0 Q 76.8 132.0, 77.6 131.4 Q 78.3 130.7, 78.3 129.7 Q 78.3 128.3, 77.5 127.7 Q 76.8 127.1, 75.2 127.1 L 74.2 127.1 L 74.2 125.8 L 75.0 125.8 Q 76.5 125.8, 77.2 125.2 Q 78.0 124.5, 78.0 123.4 Q 78.0 122.5, 77.4 122.0 Q 76.7 121.5, 75.7 121.5 Q 74.6 121.5, 73.9 121.9 Q 73.2 122.3, 72.7 123.2 L 71.4 122.6 Q 71.9 121.5, 73.0 120.7 Q 74.1 120.0, 75.7 120.0 Q 77.6 120.0, 78.7 120.9 Q 79.9 121.8, 79.9 123.4 Q 79.9 124.4, 79.3 125.2 Q 78.7 125.9, 77.6 126.4 " fill="#000000"/>
<path class="atom-29" d="M 86.1 133.5 Q 83.7 133.5, 82.5 131.7 Q 81.3 129.9, 81.3 126.7 Q 81.3 123.5, 82.5 121.8 Q 83.7 120.0, 86.1 120.0 Q 88.5 120.0, 89.7 121.8 Q 90.9 123.5, 90.9 126.7 Q 90.9 129.9, 89.7 131.7 Q 88.5 133.5, 86.1 133.5 M 86.1 132.0 Q 87.5 132.0, 88.3 130.7 Q 89.1 129.3, 89.1 126.7 Q 89.1 124.1, 88.3 122.8 Q 87.5 121.5, 86.1 121.5 Q 84.7 121.5, 83.9 122.8 Q 83.1 124.1, 83.1 126.7 Q 83.1 129.3, 83.9 130.7 Q 84.7 132.0, 86.1 132.0 " fill="#000000"/>
<path class="atom-30" d="M 81.0 279.7 L 82.8 279.7 L 82.8 285.3 L 89.5 285.3 L 89.5 279.7 L 91.3 279.7 L 91.3 292.9 L 89.5 292.9 L 89.5 286.8 L 82.8 286.8 L 82.8 292.9 L 81.0 292.9 L 81.0 279.7 " fill="#000000"/>
<path class="atom-30" d="M 92.7 290.7 L 94.6 290.7 L 94.6 292.6 L 92.7 292.6 L 92.7 290.7 M 92.7 284.3 L 94.6 284.3 L 94.6 286.2 L 92.7 286.2 L 92.7 284.3 " fill="#000000"/>
<path class="atom-30" d="M 101.7 285.9 Q 102.9 286.3, 103.6 287.1 Q 104.2 288.0, 104.2 289.3 Q 104.2 290.4, 103.6 291.3 Q 103.1 292.1, 102.1 292.6 Q 101.0 293.1, 99.7 293.1 Q 98.3 293.1, 97.2 292.6 Q 96.2 292.1, 95.3 291.1 L 96.4 290.0 Q 97.2 290.9, 97.9 291.2 Q 98.6 291.6, 99.7 291.6 Q 100.9 291.6, 101.6 290.9 Q 102.3 290.3, 102.3 289.3 Q 102.3 287.9, 101.6 287.3 Q 100.8 286.7, 99.2 286.7 L 98.3 286.7 L 98.3 285.4 L 99.1 285.4 Q 100.5 285.3, 101.3 284.7 Q 102.1 284.1, 102.1 282.9 Q 102.1 282.1, 101.4 281.6 Q 100.8 281.0, 99.7 281.0 Q 98.6 281.0, 97.9 281.4 Q 97.3 281.8, 96.7 282.8 L 95.4 282.1 Q 95.9 281.0, 97.0 280.3 Q 98.1 279.6, 99.7 279.6 Q 101.6 279.6, 102.8 280.5 Q 103.9 281.4, 103.9 282.9 Q 103.9 284.0, 103.3 284.7 Q 102.8 285.5, 101.7 285.9 " fill="#000000"/>
<path class="atom-30" d="M 105.9 291.4 L 108.8 291.4 L 108.8 281.5 L 105.6 282.5 L 105.2 281.4 L 109.2 279.6 L 110.6 279.8 L 110.6 291.4 L 113.2 291.4 L 113.2 292.9 L 105.9 292.9 L 105.9 291.4 " fill="#000000"/>
<path class="atom-31" d="M 312.8 307.8 L 314.5 307.8 L 314.5 313.4 L 321.3 313.4 L 321.3 307.8 L 323.1 307.8 L 323.1 321.0 L 321.3 321.0 L 321.3 314.9 L 314.5 314.9 L 314.5 321.0 L 312.8 321.0 L 312.8 307.8 " fill="#000000"/>
<path class="atom-31" d="M 324.5 318.8 L 326.3 318.8 L 326.3 320.6 L 324.5 320.6 L 324.5 318.8 M 324.5 312.4 L 326.3 312.4 L 326.3 314.2 L 324.5 314.2 L 324.5 312.4 " fill="#000000"/>
<path class="atom-31" d="M 333.4 314.0 Q 334.7 314.4, 335.3 315.2 Q 336.0 316.1, 336.0 317.4 Q 336.0 318.5, 335.4 319.3 Q 334.9 320.2, 333.8 320.7 Q 332.8 321.2, 331.5 321.2 Q 330.0 321.2, 329.0 320.7 Q 327.9 320.2, 327.1 319.2 L 328.2 318.1 Q 329.0 319.0, 329.7 319.3 Q 330.4 319.7, 331.5 319.7 Q 332.7 319.7, 333.4 319.0 Q 334.1 318.4, 334.1 317.3 Q 334.1 316.0, 333.3 315.4 Q 332.6 314.8, 331.0 314.8 L 330.0 314.8 L 330.0 313.4 L 330.9 313.4 Q 332.3 313.4, 333.1 312.8 Q 333.8 312.2, 333.8 311.0 Q 333.8 310.1, 333.2 309.6 Q 332.6 309.1, 331.5 309.1 Q 330.4 309.1, 329.7 309.5 Q 329.0 309.9, 328.5 310.9 L 327.2 310.2 Q 327.7 309.1, 328.8 308.4 Q 329.9 307.6, 331.5 307.6 Q 333.4 307.6, 334.6 308.5 Q 335.7 309.5, 335.7 311.0 Q 335.7 312.1, 335.1 312.8 Q 334.5 313.6, 333.4 314.0 " fill="#000000"/>
<path class="atom-31" d="M 336.9 310.3 Q 337.4 309.0, 338.6 308.3 Q 339.7 307.6, 341.3 307.6 Q 343.3 307.6, 344.4 308.7 Q 345.6 309.8, 345.6 311.7 Q 345.6 313.7, 344.1 315.5 Q 342.7 317.3, 339.7 319.5 L 345.8 319.5 L 345.8 321.0 L 336.9 321.0 L 336.9 319.7 Q 339.4 318.0, 340.8 316.7 Q 342.3 315.4, 343.0 314.2 Q 343.7 313.0, 343.7 311.8 Q 343.7 310.5, 343.1 309.8 Q 342.4 309.1, 341.3 309.1 Q 340.3 309.1, 339.6 309.6 Q 338.9 310.0, 338.4 310.9 L 336.9 310.3 " fill="#000000"/>
<path class="atom-32" d="M 248.7 380.0 L 250.5 380.0 L 250.5 385.6 L 257.2 385.6 L 257.2 380.0 L 259.0 380.0 L 259.0 393.2 L 257.2 393.2 L 257.2 387.1 L 250.5 387.1 L 250.5 393.2 L 248.7 393.2 L 248.7 380.0 " fill="#000000"/>
<path class="atom-32" d="M 260.4 391.0 L 262.3 391.0 L 262.3 392.8 L 260.4 392.8 L 260.4 391.0 M 260.4 384.6 L 262.3 384.6 L 262.3 386.4 L 260.4 386.4 L 260.4 384.6 " fill="#000000"/>
<path class="atom-32" d="M 269.4 386.2 Q 270.7 386.6, 271.3 387.4 Q 271.9 388.2, 271.9 389.5 Q 271.9 390.7, 271.4 391.5 Q 270.8 392.4, 269.8 392.9 Q 268.7 393.3, 267.4 393.3 Q 266.0 393.3, 264.9 392.9 Q 263.9 392.4, 263.1 391.3 L 264.1 390.3 Q 264.9 391.2, 265.6 391.5 Q 266.3 391.9, 267.4 391.9 Q 268.6 391.9, 269.3 391.2 Q 270.1 390.6, 270.1 389.5 Q 270.1 388.2, 269.3 387.6 Q 268.5 387.0, 266.9 387.0 L 266.0 387.0 L 266.0 385.6 L 266.8 385.6 Q 268.2 385.6, 269.0 385.0 Q 269.8 384.4, 269.8 383.2 Q 269.8 382.3, 269.1 381.8 Q 268.5 381.3, 267.4 381.3 Q 266.3 381.3, 265.6 381.7 Q 265.0 382.1, 264.4 383.1 L 263.2 382.4 Q 263.6 381.3, 264.7 380.6 Q 265.9 379.8, 267.4 379.8 Q 269.4 379.8, 270.5 380.7 Q 271.6 381.6, 271.6 383.2 Q 271.6 384.3, 271.1 385.0 Q 270.5 385.8, 269.4 386.2 " fill="#000000"/>
<path class="atom-32" d="M 279.0 386.2 Q 280.3 386.6, 280.9 387.4 Q 281.6 388.2, 281.6 389.5 Q 281.6 390.7, 281.0 391.5 Q 280.4 392.4, 279.4 392.9 Q 278.4 393.3, 277.1 393.3 Q 275.6 393.3, 274.6 392.9 Q 273.5 392.4, 272.7 391.3 L 273.8 390.3 Q 274.6 391.2, 275.3 391.5 Q 276.0 391.9, 277.1 391.9 Q 278.2 391.9, 279.0 391.2 Q 279.7 390.6, 279.7 389.5 Q 279.7 388.2, 278.9 387.6 Q 278.2 387.0, 276.6 387.0 L 275.6 387.0 L 275.6 385.6 L 276.5 385.6 Q 277.9 385.6, 278.7 385.0 Q 279.4 384.4, 279.4 383.2 Q 279.4 382.3, 278.8 381.8 Q 278.1 381.3, 277.1 381.3 Q 276.0 381.3, 275.3 381.7 Q 274.6 382.1, 274.1 383.1 L 272.8 382.4 Q 273.3 381.3, 274.4 380.6 Q 275.5 379.8, 277.1 379.8 Q 279.0 379.8, 280.1 380.7 Q 281.3 381.6, 281.3 383.2 Q 281.3 384.3, 280.7 385.0 Q 280.1 385.8, 279.0 386.2 " fill="#000000"/>
<path class="atom-33" d="M 22.7 206.6 L 24.5 206.6 L 24.5 212.2 L 31.3 212.2 L 31.3 206.6 L 33.0 206.6 L 33.0 219.8 L 31.3 219.8 L 31.3 213.7 L 24.5 213.7 L 24.5 219.8 L 22.7 219.8 L 22.7 206.6 " fill="#000000"/>
<path class="atom-33" d="M 34.4 217.6 L 36.3 217.6 L 36.3 219.4 L 34.4 219.4 L 34.4 217.6 M 34.4 211.2 L 36.3 211.2 L 36.3 213.0 L 34.4 213.0 L 34.4 211.2 " fill="#000000"/>
<path class="atom-33" d="M 43.4 212.8 Q 44.7 213.2, 45.3 214.0 Q 45.9 214.8, 45.9 216.1 Q 45.9 217.3, 45.4 218.1 Q 44.8 219.0, 43.8 219.5 Q 42.8 219.9, 41.4 219.9 Q 40.0 219.9, 39.0 219.5 Q 37.9 219.0, 37.1 218.0 L 38.1 216.9 Q 39.0 217.8, 39.7 218.1 Q 40.3 218.5, 41.4 218.5 Q 42.6 218.5, 43.4 217.8 Q 44.1 217.2, 44.1 216.1 Q 44.1 214.8, 43.3 214.2 Q 42.6 213.6, 41.0 213.6 L 40.0 213.6 L 40.0 212.2 L 40.8 212.2 Q 42.3 212.2, 43.0 211.6 Q 43.8 211.0, 43.8 209.8 Q 43.8 208.9, 43.2 208.4 Q 42.5 207.9, 41.5 207.9 Q 40.4 207.9, 39.7 208.3 Q 39.0 208.7, 38.5 209.7 L 37.2 209.0 Q 37.7 207.9, 38.8 207.2 Q 39.9 206.4, 41.5 206.4 Q 43.4 206.4, 44.5 207.3 Q 45.7 208.3, 45.7 209.8 Q 45.7 210.9, 45.1 211.6 Q 44.5 212.4, 43.4 212.8 " fill="#000000"/>
<path class="atom-33" d="M 55.1 215.2 L 56.6 215.2 L 56.6 216.7 L 55.1 216.7 L 55.1 219.8 L 53.3 219.8 L 53.3 216.7 L 46.5 216.7 L 46.5 215.6 L 52.3 206.6 L 55.1 206.6 L 55.1 215.2 M 48.7 215.2 L 53.3 215.2 L 53.3 207.8 L 48.7 215.2 " fill="#000000"/>
<text x="212.79594955991058" y="189.77740934995285" font-size="12" font-family="Verdana" font-weight="bold" letter-spacing="0" text-anchor="start" fill="black" transform=" rotate(81.770853 212.795950 189.777409)">0.0328</text><text x="25" y="490" font-size="12" font-family="Verdana" font-weight="bold" letter-spacing="0" text-anchor="start" fill="black">[#6:1](\[#7:2](-[#6:3]1:[#6:4](:[#6:18](:[#6:20](:[#6:19](:[#6:6]:1-[H:22])-[H:31])-[H:34])-[H:30])-[H:21])-[H:5])(=[#6:7]1/[#6:9](=[#6:11](-[#7:8](-[#6:10]-1=[#8:24])-[H:23])-[H:33])-[H:32])-[#6:12]1:[#6:13](:[#6:15](:[#6:17](:[#6:16](:[#6:14]:1-[H:26])-[H:28])-[H:29])-[H:27])-[H:25]</text></svg>
