<?xml version='1.0' encoding='ASCII' standalone='yes'?>
<svg xmlns="http://www.w3.org/2000/svg" xmlns:rdkit="http://www.rdkit.org/xml" xmlns:xlink="http://www.w3.org/1999/xlink" version="1.1" baseProfile="full" xml:space="preserve" width="500px" height="500px" viewBox="0 0 500 500">
<!-- END OF HEADER -->
<rect style="opacity:1.0;fill:#FFFFFF;stroke:none" width="500.0" height="500.0" x="0.0" y="0.0"> </rect>
<path class="bond-1 atom-1 atom-2" d="M 236.2,185.8 L 190.3,192.4" style="fill:none;fill-rule:evenodd;stroke:#FF7F7F;stroke-width:9.9px;stroke-linecap:butt;stroke-linejoin:miter;stroke-opacity:1"/>
<path class="bond-0 atom-1 atom-4" d="M 242.6,193.9 L 250.5,204.0" style="fill:none;fill-rule:evenodd;stroke:#0000FF;stroke-width:2.0px;stroke-linecap:butt;stroke-linejoin:miter;stroke-opacity:1"/>
<path class="bond-0 atom-1 atom-4" d="M 250.5,204.0 L 258.4,214.0" style="fill:none;fill-rule:evenodd;stroke:#000000;stroke-width:2.0px;stroke-linecap:butt;stroke-linejoin:miter;stroke-opacity:1"/>
<path class="bond-1 atom-1 atom-2" d="M 222.9,187.7 L 213.1,189.1" style="fill:none;fill-rule:evenodd;stroke:#0000FF;stroke-width:2.0px;stroke-linecap:butt;stroke-linejoin:miter;stroke-opacity:1"/>
<path class="bond-1 atom-1 atom-2" d="M 213.1,189.1 L 203.3,190.5" style="fill:none;fill-rule:evenodd;stroke:#000000;stroke-width:2.0px;stroke-linecap:butt;stroke-linejoin:miter;stroke-opacity:1"/>
<path class="bond-2 atom-1 atom-0" d="M 239.4,177.6 L 244.8,164.2" style="fill:none;fill-rule:evenodd;stroke:#0000FF;stroke-width:2.0px;stroke-linecap:butt;stroke-linejoin:miter;stroke-opacity:1"/>
<path class="bond-2 atom-1 atom-0" d="M 244.8,164.2 L 250.1,150.8" style="fill:none;fill-rule:evenodd;stroke:#000000;stroke-width:2.0px;stroke-linecap:butt;stroke-linejoin:miter;stroke-opacity:1"/>
<path class="bond-3 atom-2 atom-5" d="M 187.0,200.7 L 176.4,227.3" style="fill:none;fill-rule:evenodd;stroke:#000000;stroke-width:2.0px;stroke-linecap:butt;stroke-linejoin:miter;stroke-opacity:1"/>
<path class="bond-4 atom-2 atom-3" d="M 183.9,184.3 L 168.1,164.1" style="fill:none;fill-rule:evenodd;stroke:#000000;stroke-width:2.0px;stroke-linecap:butt;stroke-linejoin:miter;stroke-opacity:1"/>
<path class="bond-4 atom-2 atom-3" d="M 174.3,187.0 L 163.2,172.9" style="fill:none;fill-rule:evenodd;stroke:#000000;stroke-width:2.0px;stroke-linecap:butt;stroke-linejoin:miter;stroke-opacity:1"/>
<path class="bond-5 atom-3 atom-18" d="M 148.1,158.0 L 133.3,160.1" style="fill:none;fill-rule:evenodd;stroke:#000000;stroke-width:2.0px;stroke-linecap:butt;stroke-linejoin:miter;stroke-opacity:1"/>
<path class="bond-6 atom-3 atom-21" d="M 164.9,148.0 L 175.6,121.1" style="fill:none;fill-rule:evenodd;stroke:#000000;stroke-width:2.0px;stroke-linecap:butt;stroke-linejoin:miter;stroke-opacity:1"/>
<path class="bond-7 atom-4 atom-11" d="M 277.9,220.3 L 293.4,218.0" style="fill:none;fill-rule:evenodd;stroke:#000000;stroke-width:2.0px;stroke-linecap:butt;stroke-linejoin:miter;stroke-opacity:1"/>
<path class="bond-8 atom-5 atom-17" d="M 166.6,236.4 L 144.8,239.5" style="fill:none;fill-rule:evenodd;stroke:#000000;stroke-width:2.0px;stroke-linecap:butt;stroke-linejoin:miter;stroke-opacity:1"/>
<path class="bond-8 atom-5 atom-17" d="M 162.0,227.7 L 146.8,229.9" style="fill:none;fill-rule:evenodd;stroke:#000000;stroke-width:2.0px;stroke-linecap:butt;stroke-linejoin:miter;stroke-opacity:1"/>
<path class="bond-9 atom-5 atom-20" d="M 177.8,245.8 L 179.7,249.9" style="fill:none;fill-rule:evenodd;stroke:#000000;stroke-width:2.0px;stroke-linecap:butt;stroke-linejoin:miter;stroke-opacity:1"/>
<path class="bond-10 atom-6 atom-8" d="M 254.2,275.5 L 267.2,296.2" style="fill:none;fill-rule:evenodd;stroke:#000000;stroke-width:2.0px;stroke-linecap:butt;stroke-linejoin:miter;stroke-opacity:1"/>
<path class="bond-11 atom-6 atom-4" d="M 250.9,257.0 L 261.5,230.5" style="fill:none;fill-rule:evenodd;stroke:#000000;stroke-width:2.0px;stroke-linecap:butt;stroke-linejoin:miter;stroke-opacity:1"/>
<path class="bond-11 atom-6 atom-4" d="M 261.1,256.5 L 268.6,237.9" style="fill:none;fill-rule:evenodd;stroke:#000000;stroke-width:2.0px;stroke-linecap:butt;stroke-linejoin:miter;stroke-opacity:1"/>
<path class="bond-12 atom-6 atom-9" d="M 241.1,266.8 L 220.5,272.1" style="fill:none;fill-rule:evenodd;stroke:#000000;stroke-width:2.0px;stroke-linecap:butt;stroke-linejoin:miter;stroke-opacity:1"/>
<path class="bond-13 atom-7 atom-9" d="M 200.3,314.7 L 201.2,299.7" style="fill:none;fill-rule:evenodd;stroke:#0000FF;stroke-width:2.0px;stroke-linecap:butt;stroke-linejoin:miter;stroke-opacity:1"/>
<path class="bond-13 atom-7 atom-9" d="M 201.2,299.7 L 202.2,284.7" style="fill:none;fill-rule:evenodd;stroke:#000000;stroke-width:2.0px;stroke-linecap:butt;stroke-linejoin:miter;stroke-opacity:1"/>
<path class="bond-14 atom-7 atom-10" d="M 205.9,325.3 L 215.9,329.3" style="fill:none;fill-rule:evenodd;stroke:#0000FF;stroke-width:2.0px;stroke-linecap:butt;stroke-linejoin:miter;stroke-opacity:1"/>
<path class="bond-14 atom-7 atom-10" d="M 215.9,329.3 L 225.9,333.3" style="fill:none;fill-rule:evenodd;stroke:#000000;stroke-width:2.0px;stroke-linecap:butt;stroke-linejoin:miter;stroke-opacity:1"/>
<path class="bond-15 atom-7 atom-22" d="M 186.8,330.9 L 176.6,337.4" style="fill:none;fill-rule:evenodd;stroke:#0000FF;stroke-width:2.0px;stroke-linecap:butt;stroke-linejoin:miter;stroke-opacity:1"/>
<path class="bond-15 atom-7 atom-22" d="M 176.6,337.4 L 166.4,343.8" style="fill:none;fill-rule:evenodd;stroke:#000000;stroke-width:2.0px;stroke-linecap:butt;stroke-linejoin:miter;stroke-opacity:1"/>
<path class="bond-16 atom-8 atom-10" d="M 265.8,312.3 L 249.5,331.9" style="fill:none;fill-rule:evenodd;stroke:#000000;stroke-width:2.0px;stroke-linecap:butt;stroke-linejoin:miter;stroke-opacity:1"/>
<path class="bond-16 atom-8 atom-10" d="M 256.2,309.3 L 244.8,323.0" style="fill:none;fill-rule:evenodd;stroke:#000000;stroke-width:2.0px;stroke-linecap:butt;stroke-linejoin:miter;stroke-opacity:1"/>
<path class="bond-17 atom-8 atom-31" d="M 292.0,308.1 L 311.3,311.8" style="fill:none;fill-rule:evenodd;stroke:#000000;stroke-width:2.0px;stroke-linecap:butt;stroke-linejoin:miter;stroke-opacity:1"/>
<path class="bond-18 atom-9 atom-23" d="M 183.9,272.6 L 174.7,268.2" style="fill:none;fill-rule:evenodd;stroke:#000000;stroke-width:2.0px;stroke-linecap:butt;stroke-linejoin:miter;stroke-opacity:1"/>
<path class="bond-18 atom-9 atom-23" d="M 174.7,268.2 L 165.6,263.8" style="fill:none;fill-rule:evenodd;stroke:#FF0000;stroke-width:2.0px;stroke-linecap:butt;stroke-linejoin:miter;stroke-opacity:1"/>
<path class="bond-18 atom-9 atom-23" d="M 187.9,264.3 L 178.8,259.8" style="fill:none;fill-rule:evenodd;stroke:#000000;stroke-width:2.0px;stroke-linecap:butt;stroke-linejoin:miter;stroke-opacity:1"/>
<path class="bond-18 atom-9 atom-23" d="M 178.8,259.8 L 169.6,255.4" style="fill:none;fill-rule:evenodd;stroke:#FF0000;stroke-width:2.0px;stroke-linecap:butt;stroke-linejoin:miter;stroke-opacity:1"/>
<path class="bond-19 atom-10 atom-32" d="M 244.8,348.1 L 252.1,376.9" style="fill:none;fill-rule:evenodd;stroke:#000000;stroke-width:2.0px;stroke-linecap:butt;stroke-linejoin:miter;stroke-opacity:1"/>
<path class="bond-20 atom-11 atom-12" d="M 317.1,223.7 L 333.0,243.9" style="fill:none;fill-rule:evenodd;stroke:#000000;stroke-width:2.0px;stroke-linecap:butt;stroke-linejoin:miter;stroke-opacity:1"/>
<path class="bond-20 atom-11 atom-12" d="M 326.8,221.0 L 337.9,235.1" style="fill:none;fill-rule:evenodd;stroke:#000000;stroke-width:2.0px;stroke-linecap:butt;stroke-linejoin:miter;stroke-opacity:1"/>
<path class="bond-21 atom-11 atom-13" d="M 313.9,207.5 L 323.8,182.8" style="fill:none;fill-rule:evenodd;stroke:#000000;stroke-width:2.0px;stroke-linecap:butt;stroke-linejoin:miter;stroke-opacity:1"/>
<path class="bond-22 atom-12 atom-14" d="M 345.3,251.1 L 367.9,247.8" style="fill:none;fill-rule:evenodd;stroke:#000000;stroke-width:2.0px;stroke-linecap:butt;stroke-linejoin:miter;stroke-opacity:1"/>
<path class="bond-23 atom-12 atom-24" d="M 337.2,260.2 L 329.7,288.7" style="fill:none;fill-rule:evenodd;stroke:#000000;stroke-width:2.0px;stroke-linecap:butt;stroke-linejoin:miter;stroke-opacity:1"/>
<path class="bond-24 atom-13 atom-15" d="M 345.9,169.9 L 356.3,168.4" style="fill:none;fill-rule:evenodd;stroke:#000000;stroke-width:2.0px;stroke-linecap:butt;stroke-linejoin:miter;stroke-opacity:1"/>
<path class="bond-24 atom-13 atom-15" d="M 348.7,178.8 L 356.1,177.8" style="fill:none;fill-rule:evenodd;stroke:#000000;stroke-width:2.0px;stroke-linecap:butt;stroke-linejoin:miter;stroke-opacity:1"/>
<path class="bond-25 atom-13 atom-25" d="M 321.5,164.4 L 305.3,143.8" style="fill:none;fill-rule:evenodd;stroke:#000000;stroke-width:2.0px;stroke-linecap:butt;stroke-linejoin:miter;stroke-opacity:1"/>
<path class="bond-26 atom-14 atom-16" d="M 388.5,237.2 L 398.3,212.6" style="fill:none;fill-rule:evenodd;stroke:#000000;stroke-width:2.0px;stroke-linecap:butt;stroke-linejoin:miter;stroke-opacity:1"/>
<path class="bond-26 atom-14 atom-16" d="M 381.3,230.1 L 388.2,212.8" style="fill:none;fill-rule:evenodd;stroke:#000000;stroke-width:2.0px;stroke-linecap:butt;stroke-linejoin:miter;stroke-opacity:1"/>
<path class="bond-27 atom-14 atom-26" d="M 391.8,253.6 L 407.6,273.7" style="fill:none;fill-rule:evenodd;stroke:#000000;stroke-width:2.0px;stroke-linecap:butt;stroke-linejoin:miter;stroke-opacity:1"/>
<path class="bond-28 atom-15 atom-16" d="M 380.3,174.2 L 396.0,194.1" style="fill:none;fill-rule:evenodd;stroke:#000000;stroke-width:2.0px;stroke-linecap:butt;stroke-linejoin:miter;stroke-opacity:1"/>
<path class="bond-29 atom-15 atom-27" d="M 377.0,157.8 L 387.7,131.0" style="fill:none;fill-rule:evenodd;stroke:#000000;stroke-width:2.0px;stroke-linecap:butt;stroke-linejoin:miter;stroke-opacity:1"/>
<path class="bond-30 atom-16 atom-28" d="M 419.7,199.8 L 441.6,196.6" style="fill:none;fill-rule:evenodd;stroke:#000000;stroke-width:2.0px;stroke-linecap:butt;stroke-linejoin:miter;stroke-opacity:1"/>
<path class="bond-31 atom-17 atom-19" d="M 120.9,233.9 L 105.2,213.9" style="fill:none;fill-rule:evenodd;stroke:#000000;stroke-width:2.0px;stroke-linecap:butt;stroke-linejoin:miter;stroke-opacity:1"/>
<path class="bond-32 atom-17 atom-29" d="M 123.2,252.4 L 113.4,276.9" style="fill:none;fill-rule:evenodd;stroke:#000000;stroke-width:2.0px;stroke-linecap:butt;stroke-linejoin:miter;stroke-opacity:1"/>
<path class="bond-33 atom-18 atom-19" d="M 111.7,172.9 L 101.9,197.5" style="fill:none;fill-rule:evenodd;stroke:#000000;stroke-width:2.0px;stroke-linecap:butt;stroke-linejoin:miter;stroke-opacity:1"/>
<path class="bond-33 atom-18 atom-19" d="M 118.8,180.1 L 112.0,197.3" style="fill:none;fill-rule:evenodd;stroke:#000000;stroke-width:2.0px;stroke-linecap:butt;stroke-linejoin:miter;stroke-opacity:1"/>
<path class="bond-34 atom-18 atom-30" d="M 109.4,154.5 L 92.6,133.2" style="fill:none;fill-rule:evenodd;stroke:#000000;stroke-width:2.0px;stroke-linecap:butt;stroke-linejoin:miter;stroke-opacity:1"/>
<path class="bond-35 atom-19 atom-33" d="M 80.3,208.3 L 59.3,211.3" style="fill:none;fill-rule:evenodd;stroke:#000000;stroke-width:2.0px;stroke-linecap:butt;stroke-linejoin:miter;stroke-opacity:1"/>
<path class="atom-0" d="M 248.2 136.2 L 250.0 136.2 L 250.0 141.8 L 256.7 141.8 L 256.7 136.2 L 258.5 136.2 L 258.5 149.3 L 256.7 149.3 L 256.7 143.3 L 250.0 143.3 L 250.0 149.3 L 248.2 149.3 L 248.2 136.2 " fill="#000000"/>
<path class="atom-0" d="M 260.1 147.2 L 261.9 147.2 L 261.9 149.0 L 260.1 149.0 L 260.1 147.2 M 260.1 140.8 L 261.9 140.8 L 261.9 142.6 L 260.1 142.6 L 260.1 140.8 " fill="#000000"/>
<path class="atom-0" d="M 264.0 147.9 L 266.9 147.9 L 266.9 138.0 L 263.8 139.0 L 263.3 137.9 L 267.3 136.1 L 268.7 136.4 L 268.7 147.9 L 271.2 147.9 L 271.2 149.3 L 264.0 149.3 L 264.0 147.9 " fill="#000000"/>
<path class="atom-1" d="M 226.5 179.3 L 230.8 186.2 Q 231.2 186.9, 231.9 188.2 Q 232.6 189.4, 232.6 189.5 L 232.6 179.3 L 234.4 179.3 L 234.4 192.4 L 232.6 192.4 L 227.9 184.8 Q 227.4 183.9, 226.8 182.9 Q 226.3 181.9, 226.1 181.6 L 226.1 192.4 L 224.4 192.4 L 224.4 179.3 L 226.5 179.3 " fill="#0000FF"/>
<path class="atom-1" d="M 235.9 190.2 L 237.7 190.2 L 237.7 192.1 L 235.9 192.1 L 235.9 190.2 M 235.9 183.9 L 237.7 183.9 L 237.7 185.7 L 235.9 185.7 L 235.9 183.9 " fill="#0000FF"/>
<path class="atom-1" d="M 239.2 181.8 Q 239.7 180.5, 240.8 179.8 Q 242.0 179.1, 243.5 179.1 Q 245.5 179.1, 246.6 180.2 Q 247.8 181.3, 247.8 183.2 Q 247.8 185.1, 246.3 186.9 Q 244.9 188.8, 241.9 190.9 L 248.0 190.9 L 248.0 192.4 L 239.1 192.4 L 239.1 191.2 Q 241.6 189.4, 243.0 188.1 Q 244.5 186.8, 245.2 185.7 Q 245.9 184.5, 245.9 183.3 Q 245.9 182.0, 245.3 181.3 Q 244.6 180.6, 243.5 180.6 Q 242.5 180.6, 241.8 181.0 Q 241.1 181.5, 240.6 182.4 L 239.2 181.8 " fill="#0000FF"/>
<path class="atom-2" d="M 178.9 192.5 Q 178.9 189.2, 180.4 187.5 Q 181.9 185.8, 184.8 185.8 Q 187.5 185.8, 189.0 187.7 L 187.8 188.7 Q 186.7 187.3, 184.8 187.3 Q 182.9 187.3, 181.8 188.6 Q 180.8 189.9, 180.8 192.5 Q 180.8 195.0, 181.8 196.4 Q 182.9 197.7, 185.0 197.7 Q 186.5 197.7, 188.2 196.8 L 188.7 198.2 Q 188.0 198.7, 187.0 198.9 Q 185.9 199.2, 184.8 199.2 Q 181.9 199.2, 180.4 197.5 Q 178.9 195.7, 178.9 192.5 " fill="#000000"/>
<path class="atom-2" d="M 189.7 196.9 L 191.6 196.9 L 191.6 198.7 L 189.7 198.7 L 189.7 196.9 M 189.7 190.5 L 191.6 190.5 L 191.6 192.3 L 189.7 192.3 L 189.7 190.5 " fill="#000000"/>
<path class="atom-2" d="M 199.3 192.1 Q 200.6 192.5, 201.2 193.3 Q 201.8 194.1, 201.8 195.4 Q 201.8 196.5, 201.2 197.4 Q 200.7 198.3, 199.7 198.8 Q 198.6 199.2, 197.3 199.2 Q 195.9 199.2, 194.8 198.7 Q 193.8 198.2, 193.0 197.2 L 194.0 196.2 Q 194.8 197.0, 195.5 197.4 Q 196.2 197.7, 197.3 197.7 Q 198.5 197.7, 199.2 197.1 Q 199.9 196.5, 199.9 195.4 Q 199.9 194.1, 199.2 193.5 Q 198.4 192.9, 196.8 192.9 L 195.9 192.9 L 195.9 191.5 L 196.7 191.5 Q 198.1 191.5, 198.9 190.9 Q 199.7 190.3, 199.7 189.1 Q 199.7 188.3, 199.0 187.8 Q 198.4 187.2, 197.3 187.2 Q 196.2 187.2, 195.6 187.6 Q 194.9 188.0, 194.4 189.0 L 193.1 188.3 Q 193.6 187.2, 194.7 186.5 Q 195.8 185.8, 197.3 185.8 Q 199.3 185.8, 200.4 186.7 Q 201.5 187.6, 201.5 189.1 Q 201.5 190.2, 200.9 190.9 Q 200.4 191.7, 199.3 192.1 " fill="#000000"/>
<path class="atom-3" d="M 149.6 156.1 Q 149.6 152.8, 151.1 151.1 Q 152.6 149.4, 155.5 149.4 Q 158.2 149.4, 159.7 151.3 L 158.5 152.3 Q 157.4 150.9, 155.5 150.9 Q 153.5 150.9, 152.5 152.2 Q 151.5 153.5, 151.5 156.1 Q 151.5 158.7, 152.5 160.0 Q 153.6 161.3, 155.7 161.3 Q 157.2 161.3, 158.9 160.4 L 159.4 161.8 Q 158.7 162.3, 157.7 162.5 Q 156.6 162.8, 155.5 162.8 Q 152.6 162.8, 151.1 161.1 Q 149.6 159.3, 149.6 156.1 " fill="#000000"/>
<path class="atom-3" d="M 160.4 160.5 L 162.3 160.5 L 162.3 162.3 L 160.4 162.3 L 160.4 160.5 M 160.4 154.1 L 162.3 154.1 L 162.3 155.9 L 160.4 155.9 L 160.4 154.1 " fill="#000000"/>
<path class="atom-3" d="M 172.2 158.1 L 173.8 158.1 L 173.8 159.6 L 172.2 159.6 L 172.2 162.6 L 170.5 162.6 L 170.5 159.6 L 163.7 159.6 L 163.7 158.4 L 169.4 149.5 L 172.2 149.5 L 172.2 158.1 M 165.8 158.1 L 170.5 158.1 L 170.5 150.7 L 165.8 158.1 " fill="#000000"/>
<path class="atom-4" d="M 253.4 222.2 Q 253.4 219.0, 254.9 217.2 Q 256.4 215.5, 259.3 215.5 Q 262.0 215.5, 263.5 217.4 L 262.3 218.4 Q 261.2 217.0, 259.3 217.0 Q 257.4 217.0, 256.3 218.4 Q 255.3 219.7, 255.3 222.2 Q 255.3 224.8, 256.3 226.1 Q 257.4 227.5, 259.5 227.5 Q 261.0 227.5, 262.7 226.6 L 263.2 228.0 Q 262.5 228.4, 261.5 228.7 Q 260.4 229.0, 259.3 229.0 Q 256.4 229.0, 254.9 227.2 Q 253.4 225.5, 253.4 222.2 " fill="#000000"/>
<path class="atom-4" d="M 264.2 226.6 L 266.1 226.6 L 266.1 228.5 L 264.2 228.5 L 264.2 226.6 M 264.2 220.2 L 266.1 220.2 L 266.1 222.1 L 264.2 222.1 L 264.2 220.2 " fill="#000000"/>
<path class="atom-4" d="M 272.2 220.6 Q 273.4 220.6, 274.3 221.1 Q 275.3 221.6, 275.8 222.5 Q 276.3 223.4, 276.3 224.6 Q 276.3 226.0, 275.7 227.0 Q 275.0 227.9, 274.0 228.4 Q 272.9 228.9, 271.7 228.9 Q 270.5 228.9, 269.3 228.5 Q 268.2 228.1, 267.5 227.2 L 268.6 226.0 Q 269.2 226.7, 270.0 227.1 Q 270.9 227.4, 271.7 227.4 Q 272.9 227.4, 273.7 226.7 Q 274.5 226.0, 274.5 224.7 Q 274.5 223.3, 273.7 222.6 Q 272.9 222.0, 271.6 222.0 Q 270.5 222.0, 269.2 222.5 L 268.2 222.0 L 268.8 215.7 L 275.5 215.7 L 275.3 217.2 L 270.3 217.2 L 269.9 221.0 Q 271.1 220.6, 272.2 220.6 " fill="#000000"/>
<path class="atom-5" d="M 168.1 235.5 Q 168.1 232.2, 169.6 230.5 Q 171.2 228.8, 174.1 228.8 Q 176.8 228.8, 178.2 230.7 L 177.0 231.7 Q 175.9 230.3, 174.1 230.3 Q 172.1 230.3, 171.0 231.6 Q 170.0 233.0, 170.0 235.5 Q 170.0 238.1, 171.1 239.4 Q 172.2 240.7, 174.3 240.7 Q 175.7 240.7, 177.4 239.9 L 177.9 241.3 Q 177.2 241.7, 176.2 242.0 Q 175.2 242.2, 174.0 242.2 Q 171.2 242.2, 169.6 240.5 Q 168.1 238.7, 168.1 235.5 " fill="#000000"/>
<path class="atom-5" d="M 179.0 239.9 L 180.8 239.9 L 180.8 241.7 L 179.0 241.7 L 179.0 239.9 M 179.0 233.5 L 180.8 233.5 L 180.8 235.4 L 179.0 235.4 L 179.0 233.5 " fill="#000000"/>
<path class="atom-5" d="M 187.3 233.9 Q 188.5 233.9, 189.4 234.4 Q 190.3 234.9, 190.8 235.8 Q 191.3 236.7, 191.3 237.8 Q 191.3 239.1, 190.7 240.1 Q 190.2 241.1, 189.2 241.6 Q 188.2 242.2, 186.9 242.2 Q 184.5 242.2, 183.4 240.6 Q 182.2 239.0, 182.2 235.9 Q 182.2 232.4, 183.6 230.6 Q 185.1 228.8, 187.9 228.8 Q 188.7 228.8, 189.4 229.0 Q 190.1 229.2, 190.8 229.5 L 190.1 230.8 Q 189.1 230.3, 187.9 230.3 Q 186.1 230.3, 185.1 231.5 Q 184.2 232.7, 184.1 235.1 Q 184.7 234.5, 185.6 234.2 Q 186.4 233.9, 187.3 233.9 M 186.9 240.7 Q 187.6 240.7, 188.2 240.3 Q 188.8 239.9, 189.1 239.3 Q 189.4 238.6, 189.4 237.8 Q 189.4 236.7, 188.8 236.0 Q 188.1 235.3, 187.0 235.3 Q 186.2 235.3, 185.4 235.7 Q 184.6 236.0, 184.1 236.6 Q 184.1 238.7, 184.8 239.7 Q 185.5 240.7, 186.9 240.7 " fill="#000000"/>
<path class="atom-6" d="M 242.6 265.2 Q 242.6 262.0, 244.1 260.3 Q 245.7 258.5, 248.6 258.5 Q 251.3 258.5, 252.7 260.5 L 251.5 261.5 Q 250.5 260.1, 248.6 260.1 Q 246.6 260.1, 245.5 261.4 Q 244.5 262.7, 244.5 265.2 Q 244.5 267.8, 245.6 269.2 Q 246.7 270.5, 248.8 270.5 Q 250.2 270.5, 251.9 269.6 L 252.4 271.0 Q 251.8 271.5, 250.7 271.7 Q 249.7 272.0, 248.5 272.0 Q 245.7 272.0, 244.1 270.2 Q 242.6 268.5, 242.6 265.2 " fill="#000000"/>
<path class="atom-6" d="M 253.5 269.6 L 255.3 269.6 L 255.3 271.5 L 253.5 271.5 L 253.5 269.6 M 253.5 263.3 L 255.3 263.3 L 255.3 265.1 L 253.5 265.1 L 253.5 263.3 " fill="#000000"/>
<path class="atom-6" d="M 263.6 260.2 L 256.7 260.2 L 256.7 258.7 L 265.4 258.7 L 265.4 260.0 L 260.1 271.8 L 258.3 271.8 L 263.6 260.2 " fill="#000000"/>
<path class="atom-7" d="M 182.4 316.3 L 186.7 323.3 Q 187.2 324.0, 187.8 325.2 Q 188.5 326.4, 188.6 326.5 L 188.6 316.3 L 190.3 316.3 L 190.3 329.4 L 188.5 329.4 L 183.9 321.8 Q 183.4 320.9, 182.8 319.9 Q 182.2 318.9, 182.1 318.6 L 182.1 329.4 L 180.4 329.4 L 180.4 316.3 L 182.4 316.3 " fill="#0000FF"/>
<path class="atom-7" d="M 191.8 327.3 L 193.7 327.3 L 193.7 329.1 L 191.8 329.1 L 191.8 327.3 M 191.8 320.9 L 193.7 320.9 L 193.7 322.7 L 191.8 322.7 L 191.8 320.9 " fill="#0000FF"/>
<path class="atom-7" d="M 201.8 322.5 Q 203.0 323.0, 203.7 323.8 Q 204.4 324.5, 204.4 325.8 Q 204.4 327.0, 203.8 327.8 Q 203.2 328.7, 202.2 329.2 Q 201.1 329.6, 199.8 329.6 Q 197.6 329.6, 196.3 328.6 Q 195.1 327.6, 195.1 325.8 Q 195.1 324.8, 195.6 324.0 Q 196.2 323.2, 197.3 322.5 Q 196.5 322.1, 196.0 321.4 Q 195.6 320.6, 195.6 319.5 Q 195.6 318.0, 196.7 317.1 Q 197.8 316.2, 199.7 316.2 Q 201.6 316.2, 202.7 317.1 Q 203.9 318.0, 203.9 319.5 Q 203.9 320.5, 203.3 321.2 Q 202.8 321.9, 201.8 322.5 M 199.7 317.6 Q 198.6 317.6, 198.0 318.1 Q 197.4 318.6, 197.4 319.5 Q 197.4 320.2, 197.8 320.7 Q 198.2 321.1, 198.8 321.4 Q 199.4 321.6, 200.5 322.0 Q 201.3 321.5, 201.7 320.9 Q 202.0 320.3, 202.0 319.5 Q 202.0 318.6, 201.4 318.1 Q 200.8 317.6, 199.7 317.6 M 199.8 328.2 Q 201.0 328.2, 201.8 327.6 Q 202.5 326.9, 202.5 325.8 Q 202.5 325.1, 202.1 324.7 Q 201.7 324.2, 201.1 324.0 Q 200.6 323.7, 199.5 323.4 L 198.7 323.1 Q 197.8 323.7, 197.3 324.3 Q 196.9 325.0, 196.9 325.8 Q 196.9 326.9, 197.7 327.6 Q 198.5 328.2, 199.8 328.2 " fill="#0000FF"/>
<path class="atom-8" d="M 267.3 304.4 Q 267.3 301.2, 268.8 299.5 Q 270.4 297.7, 273.3 297.7 Q 276.0 297.7, 277.4 299.6 L 276.2 300.7 Q 275.2 299.3, 273.3 299.3 Q 271.3 299.3, 270.3 300.6 Q 269.2 301.9, 269.2 304.4 Q 269.2 307.0, 270.3 308.4 Q 271.4 309.7, 273.5 309.7 Q 274.9 309.7, 276.6 308.8 L 277.1 310.2 Q 276.5 310.7, 275.4 310.9 Q 274.4 311.2, 273.2 311.2 Q 270.4 311.2, 268.8 309.4 Q 267.3 307.7, 267.3 304.4 " fill="#000000"/>
<path class="atom-8" d="M 278.2 308.8 L 280.0 308.8 L 280.0 310.7 L 278.2 310.7 L 278.2 308.8 M 278.2 302.5 L 280.0 302.5 L 280.0 304.3 L 278.2 304.3 L 278.2 302.5 " fill="#000000"/>
<path class="atom-8" d="M 285.8 297.7 Q 288.2 297.7, 289.3 299.3 Q 290.5 300.9, 290.5 304.1 Q 290.5 307.5, 289.1 309.4 Q 287.6 311.2, 284.8 311.2 Q 284.0 311.2, 283.3 311.0 Q 282.6 310.8, 281.9 310.4 L 282.7 309.2 Q 283.6 309.7, 284.8 309.7 Q 286.7 309.7, 287.6 308.5 Q 288.5 307.3, 288.7 304.8 Q 288.0 305.4, 287.1 305.8 Q 286.3 306.1, 285.4 306.1 Q 284.2 306.1, 283.3 305.6 Q 282.4 305.1, 281.9 304.2 Q 281.4 303.3, 281.4 302.1 Q 281.4 300.8, 282.0 299.9 Q 282.6 298.9, 283.6 298.3 Q 284.6 297.7, 285.8 297.7 M 283.3 302.1 Q 283.3 303.3, 283.9 303.9 Q 284.6 304.6, 285.7 304.6 Q 286.5 304.6, 287.3 304.3 Q 288.1 303.9, 288.7 303.4 Q 288.6 301.2, 287.9 300.2 Q 287.2 299.3, 285.8 299.3 Q 285.1 299.3, 284.5 299.6 Q 283.9 300.0, 283.6 300.7 Q 283.3 301.3, 283.3 302.1 " fill="#000000"/>
<path class="atom-9" d="M 186.6 276.6 Q 186.6 273.4, 188.1 271.7 Q 189.6 269.9, 192.5 269.9 Q 195.2 269.9, 196.7 271.8 L 195.5 272.8 Q 194.4 271.5, 192.5 271.5 Q 190.6 271.5, 189.5 272.8 Q 188.5 274.1, 188.5 276.6 Q 188.5 279.2, 189.5 280.6 Q 190.6 281.9, 192.7 281.9 Q 194.2 281.9, 195.9 281.0 L 196.4 282.4 Q 195.7 282.9, 194.7 283.1 Q 193.6 283.4, 192.5 283.4 Q 189.6 283.4, 188.1 281.6 Q 186.6 279.9, 186.6 276.6 " fill="#000000"/>
<path class="atom-9" d="M 197.4 281.0 L 199.3 281.0 L 199.3 282.9 L 197.4 282.9 L 197.4 281.0 M 197.4 274.7 L 199.3 274.7 L 199.3 276.5 L 197.4 276.5 L 197.4 274.7 " fill="#000000"/>
<path class="atom-9" d="M 201.4 281.7 L 204.3 281.7 L 204.3 271.9 L 201.1 272.9 L 200.7 271.8 L 204.7 270.0 L 206.0 270.2 L 206.0 281.7 L 208.6 281.7 L 208.6 283.2 L 201.4 283.2 L 201.4 281.7 " fill="#000000"/>
<path class="atom-9" d="M 214.2 283.4 Q 211.8 283.4, 210.5 281.6 Q 209.4 279.8, 209.4 276.6 Q 209.4 273.5, 210.5 271.7 Q 211.7 269.9, 214.2 269.9 Q 216.6 269.9, 217.8 271.7 Q 219.0 273.5, 219.0 276.6 Q 219.0 279.8, 217.8 281.6 Q 216.6 283.4, 214.2 283.4 M 214.2 281.9 Q 215.6 281.9, 216.3 280.6 Q 217.1 279.2, 217.1 276.6 Q 217.1 274.1, 216.3 272.7 Q 215.6 271.4, 214.2 271.4 Q 212.8 271.4, 212.0 272.7 Q 211.2 274.1, 211.2 276.6 Q 211.2 279.2, 212.0 280.6 Q 212.8 281.9, 214.2 281.9 " fill="#000000"/>
<path class="atom-10" d="M 227.4 340.0 Q 227.4 336.8, 228.9 335.1 Q 230.4 333.4, 233.4 333.4 Q 236.1 333.4, 237.5 335.3 L 236.3 336.3 Q 235.2 334.9, 233.4 334.9 Q 231.4 334.9, 230.3 336.2 Q 229.3 337.5, 229.3 340.0 Q 229.3 342.6, 230.4 344.0 Q 231.4 345.3, 233.6 345.3 Q 235.0 345.3, 236.7 344.4 L 237.2 345.8 Q 236.5 346.3, 235.5 346.5 Q 234.5 346.8, 233.3 346.8 Q 230.4 346.8, 228.9 345.0 Q 227.4 343.3, 227.4 340.0 " fill="#000000"/>
<path class="atom-10" d="M 238.3 344.5 L 240.1 344.5 L 240.1 346.3 L 238.3 346.3 L 238.3 344.5 M 238.3 338.1 L 240.1 338.1 L 240.1 339.9 L 238.3 339.9 L 238.3 338.1 " fill="#000000"/>
<path class="atom-10" d="M 242.2 345.1 L 245.1 345.1 L 245.1 335.3 L 241.9 336.3 L 241.5 335.2 L 245.5 333.4 L 246.8 333.6 L 246.8 345.1 L 249.4 345.1 L 249.4 346.6 L 242.2 346.6 L 242.2 345.1 " fill="#000000"/>
<path class="atom-10" d="M 250.9 345.1 L 253.8 345.1 L 253.8 335.3 L 250.6 336.3 L 250.2 335.2 L 254.2 333.4 L 255.5 333.6 L 255.5 345.1 L 258.1 345.1 L 258.1 346.6 L 250.9 346.6 L 250.9 345.1 " fill="#000000"/>
<path class="atom-11" d="M 294.9 215.6 Q 294.9 212.3, 296.4 210.6 Q 298.0 208.9, 300.9 208.9 Q 303.6 208.9, 305.0 210.8 L 303.8 211.8 Q 302.7 210.4, 300.9 210.4 Q 298.9 210.4, 297.8 211.7 Q 296.8 213.1, 296.8 215.6 Q 296.8 218.2, 297.9 219.5 Q 299.0 220.8, 301.1 220.8 Q 302.5 220.8, 304.2 220.0 L 304.7 221.4 Q 304.0 221.8, 303.0 222.1 Q 302.0 222.3, 300.8 222.3 Q 298.0 222.3, 296.4 220.6 Q 294.9 218.8, 294.9 215.6 " fill="#000000"/>
<path class="atom-11" d="M 305.8 220.0 L 307.6 220.0 L 307.6 221.8 L 305.8 221.8 L 305.8 220.0 M 305.8 213.6 L 307.6 213.6 L 307.6 215.5 L 305.8 215.5 L 305.8 213.6 " fill="#000000"/>
<path class="atom-11" d="M 309.7 220.7 L 312.6 220.7 L 312.6 210.9 L 309.4 211.9 L 309.0 210.8 L 313.0 209.0 L 314.3 209.2 L 314.3 220.7 L 316.9 220.7 L 316.9 222.2 L 309.7 222.2 L 309.7 220.7 " fill="#000000"/>
<path class="atom-11" d="M 317.7 211.5 Q 318.2 210.3, 319.4 209.6 Q 320.5 208.9, 322.1 208.9 Q 324.1 208.9, 325.2 210.0 Q 326.3 211.0, 326.3 213.0 Q 326.3 214.9, 324.9 216.7 Q 323.4 218.5, 320.5 220.7 L 326.5 220.7 L 326.5 222.2 L 317.7 222.2 L 317.7 220.9 Q 320.1 219.2, 321.6 217.9 Q 323.0 216.6, 323.7 215.4 Q 324.5 214.2, 324.5 213.0 Q 324.5 211.8, 323.8 211.1 Q 323.2 210.4, 322.1 210.4 Q 321.0 210.4, 320.3 210.8 Q 319.6 211.2, 319.1 212.2 L 317.7 211.5 " fill="#000000"/>
<path class="atom-12" d="M 312.2 252.0 Q 312.2 248.7, 313.7 247.0 Q 315.2 245.3, 318.1 245.3 Q 320.8 245.3, 322.3 247.2 L 321.1 248.2 Q 320.0 246.8, 318.1 246.8 Q 316.2 246.8, 315.1 248.1 Q 314.1 249.5, 314.1 252.0 Q 314.1 254.6, 315.1 255.9 Q 316.2 257.2, 318.3 257.2 Q 319.8 257.2, 321.5 256.4 L 322.0 257.8 Q 321.3 258.2, 320.3 258.5 Q 319.2 258.7, 318.1 258.7 Q 315.2 258.7, 313.7 257.0 Q 312.2 255.2, 312.2 252.0 " fill="#000000"/>
<path class="atom-12" d="M 323.0 256.4 L 324.9 256.4 L 324.9 258.2 L 323.0 258.2 L 323.0 256.4 M 323.0 250.0 L 324.9 250.0 L 324.9 251.9 L 323.0 251.9 L 323.0 250.0 " fill="#000000"/>
<path class="atom-12" d="M 327.0 257.1 L 329.9 257.1 L 329.9 247.3 L 326.7 248.3 L 326.3 247.2 L 330.3 245.4 L 331.6 245.6 L 331.6 257.1 L 334.2 257.1 L 334.2 258.6 L 327.0 258.6 L 327.0 257.1 " fill="#000000"/>
<path class="atom-12" d="M 341.3 251.6 Q 342.5 252.0, 343.2 252.8 Q 343.8 253.7, 343.8 255.0 Q 343.8 256.1, 343.2 256.9 Q 342.7 257.8, 341.7 258.3 Q 340.6 258.7, 339.3 258.7 Q 337.9 258.7, 336.8 258.3 Q 335.8 257.8, 335.0 256.8 L 336.0 255.7 Q 336.8 256.6, 337.5 256.9 Q 338.2 257.3, 339.3 257.3 Q 340.5 257.3, 341.2 256.6 Q 341.9 256.0, 341.9 254.9 Q 341.9 253.6, 341.2 253.0 Q 340.4 252.4, 338.8 252.4 L 337.9 252.4 L 337.9 251.1 L 338.7 251.1 Q 340.1 251.0, 340.9 250.4 Q 341.7 249.8, 341.7 248.6 Q 341.7 247.8, 341.0 247.3 Q 340.4 246.8, 339.3 246.8 Q 338.2 246.8, 337.5 247.2 Q 336.9 247.5, 336.4 248.5 L 335.1 247.8 Q 335.5 246.8, 336.7 246.0 Q 337.8 245.3, 339.3 245.3 Q 341.3 245.3, 342.4 246.2 Q 343.5 247.1, 343.5 248.6 Q 343.5 249.7, 342.9 250.5 Q 342.4 251.2, 341.3 251.6 " fill="#000000"/>
<path class="atom-13" d="M 311.4 172.6 Q 311.4 169.3, 313.0 167.6 Q 314.5 165.9, 317.4 165.9 Q 320.1 165.9, 321.6 167.8 L 320.3 168.8 Q 319.3 167.4, 317.4 167.4 Q 315.4 167.4, 314.4 168.7 Q 313.3 170.0, 313.3 172.6 Q 313.3 175.2, 314.4 176.5 Q 315.5 177.8, 317.6 177.8 Q 319.1 177.8, 320.8 176.9 L 321.3 178.3 Q 320.6 178.8, 319.5 179.0 Q 318.5 179.3, 317.4 179.3 Q 314.5 179.3, 313.0 177.6 Q 311.4 175.8, 311.4 172.6 " fill="#000000"/>
<path class="atom-13" d="M 322.3 177.0 L 324.2 177.0 L 324.2 178.8 L 322.3 178.8 L 322.3 177.0 M 322.3 170.6 L 324.2 170.6 L 324.2 172.4 L 322.3 172.4 L 322.3 170.6 " fill="#000000"/>
<path class="atom-13" d="M 326.3 177.7 L 329.1 177.7 L 329.1 167.8 L 326.0 168.8 L 325.6 167.7 L 329.6 165.9 L 330.9 166.2 L 330.9 177.7 L 333.5 177.7 L 333.5 179.1 L 326.3 179.1 L 326.3 177.7 " fill="#000000"/>
<path class="atom-13" d="M 342.8 174.6 L 344.3 174.6 L 344.3 176.1 L 342.8 176.1 L 342.8 179.1 L 341.0 179.1 L 341.0 176.1 L 334.2 176.1 L 334.2 174.9 L 340.0 166.0 L 342.8 166.0 L 342.8 174.6 M 336.4 174.6 L 341.0 174.6 L 341.0 167.2 L 336.4 174.6 " fill="#000000"/>
<path class="atom-14" d="M 369.4 245.3 Q 369.4 242.1, 370.9 240.4 Q 372.5 238.7, 375.4 238.7 Q 378.1 238.7, 379.5 240.6 L 378.3 241.6 Q 377.2 240.2, 375.4 240.2 Q 373.4 240.2, 372.3 241.5 Q 371.3 242.8, 371.3 245.3 Q 371.3 247.9, 372.4 249.3 Q 373.5 250.6, 375.6 250.6 Q 377.0 250.6, 378.7 249.7 L 379.2 251.1 Q 378.5 251.6, 377.5 251.8 Q 376.5 252.1, 375.3 252.1 Q 372.5 252.1, 370.9 250.3 Q 369.4 248.6, 369.4 245.3 " fill="#000000"/>
<path class="atom-14" d="M 380.3 249.8 L 382.1 249.8 L 382.1 251.6 L 380.3 251.6 L 380.3 249.8 M 380.3 243.4 L 382.1 243.4 L 382.1 245.2 L 380.3 245.2 L 380.3 243.4 " fill="#000000"/>
<path class="atom-14" d="M 384.2 250.4 L 387.1 250.4 L 387.1 240.6 L 383.9 241.6 L 383.5 240.5 L 387.5 238.7 L 388.8 239.0 L 388.8 250.4 L 391.4 250.4 L 391.4 251.9 L 384.2 251.9 L 384.2 250.4 " fill="#000000"/>
<path class="atom-14" d="M 397.0 243.7 Q 398.1 243.7, 399.0 244.2 Q 400.0 244.7, 400.5 245.6 Q 401.1 246.5, 401.1 247.8 Q 401.1 249.1, 400.4 250.1 Q 399.8 251.1, 398.7 251.6 Q 397.6 252.1, 396.4 252.1 Q 395.2 252.1, 394.1 251.6 Q 393.0 251.2, 392.2 250.3 L 393.3 249.2 Q 393.9 249.8, 394.7 250.2 Q 395.6 250.6, 396.4 250.6 Q 397.6 250.6, 398.4 249.8 Q 399.2 249.1, 399.2 247.8 Q 399.2 246.4, 398.4 245.8 Q 397.6 245.1, 396.3 245.1 Q 395.2 245.1, 393.9 245.6 L 392.9 245.1 L 393.5 238.8 L 400.3 238.8 L 400.1 240.3 L 395.0 240.3 L 394.6 244.2 Q 395.8 243.7, 397.0 243.7 " fill="#000000"/>
<path class="atom-15" d="M 357.8 165.9 Q 357.8 162.7, 359.3 161.0 Q 360.9 159.2, 363.8 159.2 Q 366.5 159.2, 367.9 161.1 L 366.7 162.1 Q 365.6 160.8, 363.8 160.8 Q 361.8 160.8, 360.7 162.1 Q 359.7 163.4, 359.7 165.9 Q 359.7 168.5, 360.8 169.9 Q 361.9 171.2, 364.0 171.2 Q 365.4 171.2, 367.1 170.3 L 367.6 171.7 Q 366.9 172.2, 365.9 172.4 Q 364.9 172.7, 363.7 172.7 Q 360.9 172.7, 359.3 170.9 Q 357.8 169.2, 357.8 165.9 " fill="#000000"/>
<path class="atom-15" d="M 368.7 170.3 L 370.5 170.3 L 370.5 172.2 L 368.7 172.2 L 368.7 170.3 M 368.7 164.0 L 370.5 164.0 L 370.5 165.8 L 368.7 165.8 L 368.7 164.0 " fill="#000000"/>
<path class="atom-15" d="M 372.6 171.0 L 375.5 171.0 L 375.5 161.2 L 372.3 162.2 L 371.9 161.1 L 375.9 159.3 L 377.2 159.5 L 377.2 171.0 L 379.8 171.0 L 379.8 172.5 L 372.6 172.5 L 372.6 171.0 " fill="#000000"/>
<path class="atom-15" d="M 385.7 164.3 Q 386.9 164.3, 387.8 164.8 Q 388.7 165.3, 389.2 166.2 Q 389.7 167.1, 389.7 168.3 Q 389.7 169.6, 389.1 170.6 Q 388.6 171.5, 387.6 172.1 Q 386.6 172.7, 385.3 172.7 Q 382.9 172.7, 381.8 171.1 Q 380.6 169.5, 380.6 166.3 Q 380.6 162.8, 382.0 161.1 Q 383.5 159.2, 386.3 159.2 Q 387.1 159.2, 387.8 159.4 Q 388.5 159.6, 389.2 160.0 L 388.5 161.2 Q 387.5 160.7, 386.3 160.7 Q 384.5 160.7, 383.5 161.9 Q 382.6 163.1, 382.5 165.6 Q 383.1 165.0, 384.0 164.6 Q 384.8 164.3, 385.7 164.3 M 385.3 171.1 Q 386.0 171.1, 386.6 170.8 Q 387.2 170.4, 387.5 169.7 Q 387.8 169.1, 387.8 168.3 Q 387.8 167.1, 387.2 166.5 Q 386.5 165.8, 385.4 165.8 Q 384.6 165.8, 383.8 166.1 Q 383.0 166.4, 382.5 167.0 Q 382.5 169.2, 383.2 170.2 Q 383.9 171.1, 385.3 171.1 " fill="#000000"/>
<path class="atom-16" d="M 386.7 202.3 Q 386.7 199.1, 388.2 197.4 Q 389.7 195.6, 392.6 195.6 Q 395.3 195.6, 396.8 197.5 L 395.6 198.5 Q 394.5 197.1, 392.6 197.1 Q 390.6 197.1, 389.6 198.5 Q 388.6 199.8, 388.6 202.3 Q 388.6 204.9, 389.6 206.2 Q 390.7 207.6, 392.8 207.6 Q 394.3 207.6, 396.0 206.7 L 396.5 208.1 Q 395.8 208.5, 394.8 208.8 Q 393.7 209.1, 392.6 209.1 Q 389.7 209.1, 388.2 207.3 Q 386.7 205.6, 386.7 202.3 " fill="#000000"/>
<path class="atom-16" d="M 397.5 206.7 L 399.4 206.7 L 399.4 208.6 L 397.5 208.6 L 397.5 206.7 M 397.5 200.4 L 399.4 200.4 L 399.4 202.2 L 397.5 202.2 L 397.5 200.4 " fill="#000000"/>
<path class="atom-16" d="M 401.5 207.4 L 404.4 207.4 L 404.4 197.6 L 401.2 198.6 L 400.8 197.5 L 404.8 195.7 L 406.1 195.9 L 406.1 207.4 L 408.7 207.4 L 408.7 208.9 L 401.5 208.9 L 401.5 207.4 " fill="#000000"/>
<path class="atom-16" d="M 416.3 197.3 L 409.5 197.3 L 409.5 195.8 L 418.2 195.8 L 418.2 197.1 L 412.9 208.9 L 411.1 208.9 L 416.3 197.3 " fill="#000000"/>
<path class="atom-17" d="M 111.3 242.1 Q 111.3 238.8, 112.8 237.1 Q 114.3 235.4, 117.2 235.4 Q 119.9 235.4, 121.4 237.3 L 120.2 238.3 Q 119.1 236.9, 117.2 236.9 Q 115.3 236.9, 114.2 238.3 Q 113.2 239.6, 113.2 242.1 Q 113.2 244.7, 114.2 246.0 Q 115.3 247.4, 117.4 247.4 Q 118.9 247.4, 120.6 246.5 L 121.1 247.9 Q 120.4 248.3, 119.4 248.6 Q 118.3 248.9, 117.2 248.9 Q 114.3 248.9, 112.8 247.1 Q 111.3 245.4, 111.3 242.1 " fill="#000000"/>
<path class="atom-17" d="M 122.1 246.5 L 124.0 246.5 L 124.0 248.4 L 122.1 248.4 L 122.1 246.5 M 122.1 240.1 L 124.0 240.1 L 124.0 242.0 L 122.1 242.0 L 122.1 240.1 " fill="#000000"/>
<path class="atom-17" d="M 126.1 247.2 L 129.0 247.2 L 129.0 237.4 L 125.8 238.4 L 125.4 237.3 L 129.4 235.5 L 130.7 235.7 L 130.7 247.2 L 133.3 247.2 L 133.3 248.7 L 126.1 248.7 L 126.1 247.2 " fill="#000000"/>
<path class="atom-17" d="M 140.8 241.7 Q 142.0 242.3, 142.6 243.0 Q 143.3 243.8, 143.3 245.1 Q 143.3 246.2, 142.8 247.1 Q 142.2 247.9, 141.1 248.4 Q 140.1 248.9, 138.8 248.9 Q 136.6 248.9, 135.3 247.9 Q 134.1 246.9, 134.1 245.1 Q 134.1 244.0, 134.6 243.2 Q 135.2 242.4, 136.3 241.8 Q 135.5 241.3, 135.0 240.6 Q 134.5 239.9, 134.5 238.8 Q 134.5 237.2, 135.7 236.3 Q 136.8 235.4, 138.7 235.4 Q 140.6 235.4, 141.7 236.3 Q 142.8 237.2, 142.8 238.8 Q 142.8 239.7, 142.3 240.5 Q 141.8 241.2, 140.8 241.7 M 138.7 236.8 Q 137.6 236.8, 137.0 237.3 Q 136.4 237.8, 136.4 238.8 Q 136.4 239.5, 136.8 239.9 Q 137.2 240.4, 137.8 240.6 Q 138.4 240.9, 139.5 241.3 Q 140.3 240.7, 140.6 240.1 Q 141.0 239.5, 141.0 238.8 Q 141.0 237.8, 140.4 237.3 Q 139.8 236.8, 138.7 236.8 M 138.8 247.5 Q 140.0 247.5, 140.7 246.8 Q 141.5 246.2, 141.5 245.1 Q 141.5 244.4, 141.1 243.9 Q 140.7 243.5, 140.1 243.2 Q 139.5 243.0, 138.5 242.6 L 137.7 242.3 Q 136.7 242.9, 136.3 243.6 Q 135.9 244.2, 135.9 245.1 Q 135.9 246.2, 136.7 246.8 Q 137.5 247.5, 138.8 247.5 " fill="#000000"/>
<path class="atom-18" d="M 99.9 162.7 Q 99.9 159.4, 101.4 157.7 Q 102.9 156.0, 105.8 156.0 Q 108.5 156.0, 110.0 157.9 L 108.8 158.9 Q 107.7 157.5, 105.8 157.5 Q 103.9 157.5, 102.8 158.9 Q 101.8 160.2, 101.8 162.7 Q 101.8 165.3, 102.8 166.6 Q 103.9 168.0, 106.0 168.0 Q 107.5 168.0, 109.2 167.1 L 109.7 168.5 Q 109.0 168.9, 108.0 169.2 Q 106.9 169.4, 105.8 169.4 Q 102.9 169.4, 101.4 167.7 Q 99.9 165.9, 99.9 162.7 " fill="#000000"/>
<path class="atom-18" d="M 110.7 167.1 L 112.6 167.1 L 112.6 169.0 L 110.7 169.0 L 110.7 167.1 M 110.7 160.7 L 112.6 160.7 L 112.6 162.6 L 110.7 162.6 L 110.7 160.7 " fill="#000000"/>
<path class="atom-18" d="M 114.7 167.8 L 117.6 167.8 L 117.6 158.0 L 114.4 159.0 L 114.0 157.9 L 118.0 156.1 L 119.3 156.3 L 119.3 167.8 L 121.9 167.8 L 121.9 169.3 L 114.7 169.3 L 114.7 167.8 " fill="#000000"/>
<path class="atom-18" d="M 127.1 156.0 Q 129.4 156.0, 130.6 157.6 Q 131.8 159.2, 131.8 162.3 Q 131.8 165.8, 130.3 167.6 Q 128.9 169.4, 126.1 169.4 Q 125.2 169.4, 124.5 169.2 Q 123.8 169.0, 123.2 168.7 L 123.9 167.4 Q 124.9 167.9, 126.0 167.9 Q 127.9 167.9, 128.8 166.7 Q 129.8 165.5, 129.9 163.1 Q 129.2 163.7, 128.4 164.0 Q 127.5 164.3, 126.6 164.3 Q 125.5 164.3, 124.6 163.8 Q 123.7 163.3, 123.2 162.4 Q 122.7 161.5, 122.7 160.4 Q 122.7 159.1, 123.2 158.1 Q 123.8 157.1, 124.8 156.6 Q 125.8 156.0, 127.1 156.0 M 124.5 160.4 Q 124.5 161.5, 125.2 162.2 Q 125.8 162.9, 127.0 162.9 Q 127.8 162.9, 128.5 162.5 Q 129.3 162.2, 129.9 161.7 Q 129.8 159.5, 129.1 158.5 Q 128.4 157.5, 127.1 157.5 Q 126.3 157.5, 125.8 157.9 Q 125.2 158.3, 124.8 158.9 Q 124.5 159.6, 124.5 160.4 " fill="#000000"/>
<path class="atom-19" d="M 81.8 205.7 Q 81.8 202.5, 83.3 200.7 Q 84.9 199.0, 87.8 199.0 Q 90.5 199.0, 91.9 200.9 L 90.7 201.9 Q 89.6 200.5, 87.8 200.5 Q 85.8 200.5, 84.7 201.9 Q 83.7 203.2, 83.7 205.7 Q 83.7 208.3, 84.8 209.6 Q 85.9 211.0, 88.0 211.0 Q 89.4 211.0, 91.1 210.1 L 91.6 211.5 Q 90.9 211.9, 89.9 212.2 Q 88.9 212.5, 87.7 212.5 Q 84.9 212.5, 83.3 210.7 Q 81.8 209.0, 81.8 205.7 " fill="#000000"/>
<path class="atom-19" d="M 92.7 210.1 L 94.5 210.1 L 94.5 212.0 L 92.7 212.0 L 92.7 210.1 M 92.7 203.7 L 94.5 203.7 L 94.5 205.6 L 92.7 205.6 L 92.7 203.7 " fill="#000000"/>
<path class="atom-19" d="M 95.9 201.7 Q 96.4 200.4, 97.6 199.7 Q 98.7 199.0, 100.3 199.0 Q 102.3 199.0, 103.4 200.1 Q 104.5 201.2, 104.5 203.1 Q 104.5 205.0, 103.1 206.8 Q 101.7 208.7, 98.7 210.8 L 104.7 210.8 L 104.7 212.3 L 95.9 212.3 L 95.9 211.1 Q 98.4 209.3, 99.8 208.0 Q 101.3 206.7, 102.0 205.5 Q 102.7 204.4, 102.7 203.2 Q 102.7 201.9, 102.0 201.2 Q 101.4 200.5, 100.3 200.5 Q 99.3 200.5, 98.6 200.9 Q 97.9 201.4, 97.4 202.3 L 95.9 201.7 " fill="#000000"/>
<path class="atom-19" d="M 110.7 212.4 Q 108.2 212.4, 107.0 210.7 Q 105.9 208.9, 105.9 205.7 Q 105.9 202.5, 107.0 200.8 Q 108.2 199.0, 110.7 199.0 Q 113.1 199.0, 114.3 200.8 Q 115.5 202.5, 115.5 205.7 Q 115.5 208.9, 114.3 210.7 Q 113.1 212.4, 110.7 212.4 M 110.7 211.0 Q 112.1 211.0, 112.8 209.6 Q 113.6 208.3, 113.6 205.7 Q 113.6 203.1, 112.8 201.8 Q 112.1 200.5, 110.7 200.5 Q 109.2 200.5, 108.5 201.8 Q 107.7 203.1, 107.7 205.7 Q 107.7 208.3, 108.5 209.6 Q 109.2 211.0, 110.7 211.0 " fill="#000000"/>
<path class="atom-20" d="M 178.1 251.4 L 179.9 251.4 L 179.9 257.0 L 186.6 257.0 L 186.6 251.4 L 188.4 251.4 L 188.4 264.5 L 186.6 264.5 L 186.6 258.4 L 179.9 258.4 L 179.9 264.5 L 178.1 264.5 L 178.1 251.4 " fill="#000000"/>
<path class="atom-20" d="M 190.0 262.3 L 191.8 262.3 L 191.8 264.2 L 190.0 264.2 L 190.0 262.3 M 190.0 256.0 L 191.8 256.0 L 191.8 257.8 L 190.0 257.8 L 190.0 256.0 " fill="#000000"/>
<path class="atom-20" d="M 193.2 253.9 Q 193.7 252.6, 194.9 251.9 Q 196.0 251.2, 197.6 251.2 Q 199.6 251.2, 200.7 252.3 Q 201.8 253.4, 201.8 255.3 Q 201.8 257.2, 200.4 259.1 Q 199.0 260.9, 196.0 263.0 L 202.0 263.0 L 202.0 264.5 L 193.2 264.5 L 193.2 263.3 Q 195.7 261.5, 197.1 260.2 Q 198.6 258.9, 199.3 257.8 Q 200.0 256.6, 200.0 255.4 Q 200.0 254.1, 199.3 253.4 Q 198.7 252.7, 197.6 252.7 Q 196.6 252.7, 195.9 253.1 Q 195.2 253.6, 194.7 254.5 L 193.2 253.9 " fill="#000000"/>
<path class="atom-20" d="M 203.9 263.0 L 206.8 263.0 L 206.8 253.2 L 203.6 254.2 L 203.2 253.1 L 207.2 251.3 L 208.5 251.5 L 208.5 263.0 L 211.1 263.0 L 211.1 264.5 L 203.9 264.5 L 203.9 263.0 " fill="#000000"/>
<path class="atom-21" d="M 173.7 106.5 L 175.5 106.5 L 175.5 112.1 L 182.2 112.1 L 182.2 106.5 L 184.0 106.5 L 184.0 119.6 L 182.2 119.6 L 182.2 113.5 L 175.5 113.5 L 175.5 119.6 L 173.7 119.6 L 173.7 106.5 " fill="#000000"/>
<path class="atom-21" d="M 185.6 117.4 L 187.4 117.4 L 187.4 119.3 L 185.6 119.3 L 185.6 117.4 M 185.6 111.1 L 187.4 111.1 L 187.4 112.9 L 185.6 112.9 L 185.6 111.1 " fill="#000000"/>
<path class="atom-21" d="M 188.8 109.0 Q 189.3 107.7, 190.5 107.0 Q 191.6 106.3, 193.2 106.3 Q 195.2 106.3, 196.3 107.4 Q 197.4 108.5, 197.4 110.4 Q 197.4 112.3, 196.0 114.2 Q 194.5 116.0, 191.6 118.1 L 197.6 118.1 L 197.6 119.6 L 188.8 119.6 L 188.8 118.4 Q 191.2 116.6, 192.7 115.3 Q 194.2 114.0, 194.9 112.9 Q 195.6 111.7, 195.6 110.5 Q 195.6 109.2, 194.9 108.5 Q 194.3 107.8, 193.2 107.8 Q 192.2 107.8, 191.5 108.2 Q 190.7 108.7, 190.2 109.6 L 188.8 109.0 " fill="#000000"/>
<path class="atom-21" d="M 198.8 109.0 Q 199.3 107.7, 200.4 107.0 Q 201.6 106.3, 203.2 106.3 Q 205.1 106.3, 206.3 107.4 Q 207.4 108.5, 207.4 110.4 Q 207.4 112.3, 205.9 114.2 Q 204.5 116.0, 201.5 118.1 L 207.6 118.1 L 207.6 119.6 L 198.8 119.6 L 198.8 118.4 Q 201.2 116.6, 202.6 115.3 Q 204.1 114.0, 204.8 112.9 Q 205.5 111.7, 205.5 110.5 Q 205.5 109.2, 204.9 108.5 Q 204.3 107.8, 203.2 107.8 Q 202.1 107.8, 201.4 108.2 Q 200.7 108.7, 200.2 109.6 L 198.8 109.0 " fill="#000000"/>
<path class="atom-22" d="M 131.1 341.0 L 132.9 341.0 L 132.9 346.6 L 139.6 346.6 L 139.6 341.0 L 141.3 341.0 L 141.3 354.1 L 139.6 354.1 L 139.6 348.1 L 132.9 348.1 L 132.9 354.1 L 131.1 354.1 L 131.1 341.0 " fill="#000000"/>
<path class="atom-22" d="M 142.9 352.0 L 144.8 352.0 L 144.8 353.8 L 142.9 353.8 L 142.9 352.0 M 142.9 345.6 L 144.8 345.6 L 144.8 347.5 L 142.9 347.5 L 142.9 345.6 " fill="#000000"/>
<path class="atom-22" d="M 146.2 343.5 Q 146.7 342.3, 147.8 341.6 Q 149.0 340.9, 150.6 340.9 Q 152.6 340.9, 153.7 341.9 Q 154.8 343.0, 154.8 344.9 Q 154.8 346.9, 153.3 348.7 Q 151.9 350.5, 148.9 352.7 L 155.0 352.7 L 155.0 354.1 L 146.2 354.1 L 146.2 352.9 Q 148.6 351.2, 150.1 349.9 Q 151.5 348.6, 152.2 347.4 Q 152.9 346.2, 152.9 345.0 Q 152.9 343.8, 152.3 343.1 Q 151.7 342.4, 150.6 342.4 Q 149.5 342.4, 148.8 342.8 Q 148.1 343.2, 147.6 344.2 L 146.2 343.5 " fill="#000000"/>
<path class="atom-22" d="M 162.4 347.2 Q 163.7 347.6, 164.3 348.4 Q 164.9 349.3, 164.9 350.5 Q 164.9 351.7, 164.4 352.5 Q 163.8 353.4, 162.8 353.9 Q 161.8 354.3, 160.5 354.3 Q 159.0 354.3, 158.0 353.8 Q 157.0 353.3, 156.1 352.3 L 157.2 351.3 Q 158.0 352.2, 158.7 352.5 Q 159.4 352.8, 160.5 352.8 Q 161.6 352.8, 162.4 352.2 Q 163.1 351.6, 163.1 350.5 Q 163.1 349.2, 162.3 348.6 Q 161.6 348.0, 160.0 348.0 L 159.0 348.0 L 159.0 346.7 L 159.9 346.7 Q 161.3 346.6, 162.0 346.0 Q 162.8 345.4, 162.8 344.2 Q 162.8 343.4, 162.2 342.9 Q 161.5 342.4, 160.5 342.4 Q 159.4 342.4, 158.7 342.7 Q 158.0 343.1, 157.5 344.1 L 156.2 343.4 Q 156.7 342.3, 157.8 341.6 Q 158.9 340.9, 160.5 340.9 Q 162.4 340.9, 163.5 341.8 Q 164.7 342.7, 164.7 344.2 Q 164.7 345.3, 164.1 346.0 Q 163.5 346.8, 162.4 347.2 " fill="#000000"/>
<path class="atom-23" d="M 129.8 256.5 Q 129.8 253.3, 131.4 251.6 Q 132.9 249.8, 135.8 249.8 Q 138.8 249.8, 140.3 251.6 Q 141.9 253.3, 141.9 256.5 Q 141.9 259.7, 140.3 261.5 Q 138.7 263.3, 135.8 263.3 Q 133.0 263.3, 131.4 261.5 Q 129.8 259.7, 129.8 256.5 M 135.8 261.8 Q 137.9 261.8, 138.9 260.5 Q 140.0 259.1, 140.0 256.5 Q 140.0 253.9, 138.9 252.6 Q 137.9 251.3, 135.8 251.3 Q 133.8 251.3, 132.8 252.6 Q 131.7 253.9, 131.7 256.5 Q 131.7 259.1, 132.8 260.5 Q 133.8 261.8, 135.8 261.8 " fill="#FF0000"/>
<path class="atom-23" d="M 142.8 260.9 L 144.7 260.9 L 144.7 262.8 L 142.8 262.8 L 142.8 260.9 M 142.8 254.5 L 144.7 254.5 L 144.7 256.4 L 142.8 256.4 L 142.8 254.5 " fill="#FF0000"/>
<path class="atom-23" d="M 146.1 252.4 Q 146.6 251.2, 147.7 250.5 Q 148.9 249.8, 150.5 249.8 Q 152.4 249.8, 153.5 250.9 Q 154.7 251.9, 154.7 253.9 Q 154.7 255.8, 153.2 257.6 Q 151.8 259.4, 148.8 261.6 L 154.9 261.6 L 154.9 263.1 L 146.0 263.1 L 146.0 261.8 Q 148.5 260.1, 149.9 258.8 Q 151.4 257.5, 152.1 256.3 Q 152.8 255.2, 152.8 253.9 Q 152.8 252.7, 152.2 252.0 Q 151.5 251.3, 150.5 251.3 Q 149.4 251.3, 148.7 251.7 Q 148.0 252.1, 147.5 253.1 L 146.1 252.4 " fill="#FF0000"/>
<path class="atom-23" d="M 164.5 258.6 L 166.1 258.6 L 166.1 260.0 L 164.5 260.0 L 164.5 263.1 L 162.8 263.1 L 162.8 260.0 L 156.0 260.0 L 156.0 258.9 L 161.7 249.9 L 164.5 249.9 L 164.5 258.6 M 158.1 258.6 L 162.8 258.6 L 162.8 251.1 L 158.1 258.6 " fill="#FF0000"/>
<path class="atom-24" d="M 322.4 290.2 L 324.2 290.2 L 324.2 295.8 L 330.9 295.8 L 330.9 290.2 L 332.7 290.2 L 332.7 303.4 L 330.9 303.4 L 330.9 297.3 L 324.2 297.3 L 324.2 303.4 L 322.4 303.4 L 322.4 290.2 " fill="#000000"/>
<path class="atom-24" d="M 334.3 301.2 L 336.1 301.2 L 336.1 303.0 L 334.3 303.0 L 334.3 301.2 M 334.3 294.8 L 336.1 294.8 L 336.1 296.7 L 334.3 296.7 L 334.3 294.8 " fill="#000000"/>
<path class="atom-24" d="M 337.6 292.7 Q 338.0 291.5, 339.2 290.8 Q 340.3 290.1, 341.9 290.1 Q 343.9 290.1, 345.0 291.2 Q 346.1 292.2, 346.1 294.1 Q 346.1 296.1, 344.7 297.9 Q 343.3 299.7, 340.3 301.9 L 346.4 301.9 L 346.4 303.4 L 337.5 303.4 L 337.5 302.1 Q 340.0 300.4, 341.4 299.1 Q 342.9 297.8, 343.6 296.6 Q 344.3 295.4, 344.3 294.2 Q 344.3 293.0, 343.7 292.3 Q 343.0 291.6, 341.9 291.6 Q 340.9 291.6, 340.2 292.0 Q 339.5 292.4, 339.0 293.4 L 337.6 292.7 " fill="#000000"/>
<path class="atom-24" d="M 352.2 295.1 Q 353.4 295.1, 354.3 295.6 Q 355.3 296.1, 355.8 297.1 Q 356.3 298.0, 356.3 299.2 Q 356.3 300.6, 355.7 301.5 Q 355.0 302.5, 354.0 303.0 Q 352.9 303.5, 351.7 303.5 Q 350.5 303.5, 349.3 303.1 Q 348.2 302.6, 347.5 301.8 L 348.6 300.6 Q 349.2 301.3, 350.0 301.6 Q 350.9 302.0, 351.7 302.0 Q 352.9 302.0, 353.7 301.3 Q 354.5 300.6, 354.5 299.2 Q 354.5 297.9, 353.7 297.2 Q 352.9 296.5, 351.6 296.5 Q 350.5 296.5, 349.2 297.0 L 348.2 296.6 L 348.8 290.2 L 355.5 290.2 L 355.3 291.7 L 350.3 291.7 L 349.9 295.6 Q 351.1 295.1, 352.2 295.1 " fill="#000000"/>
<path class="atom-25" d="M 269.6 129.6 L 271.4 129.6 L 271.4 135.2 L 278.1 135.2 L 278.1 129.6 L 279.9 129.6 L 279.9 142.7 L 278.1 142.7 L 278.1 136.7 L 271.4 136.7 L 271.4 142.7 L 269.6 142.7 L 269.6 129.6 " fill="#000000"/>
<path class="atom-25" d="M 281.5 140.6 L 283.3 140.6 L 283.3 142.4 L 281.5 142.4 L 281.5 140.6 M 281.5 134.2 L 283.3 134.2 L 283.3 136.1 L 281.5 136.1 L 281.5 134.2 " fill="#000000"/>
<path class="atom-25" d="M 284.8 132.1 Q 285.2 130.9, 286.4 130.2 Q 287.5 129.5, 289.1 129.5 Q 291.1 129.5, 292.2 130.5 Q 293.3 131.6, 293.3 133.5 Q 293.3 135.5, 291.9 137.3 Q 290.5 139.1, 287.5 141.3 L 293.6 141.3 L 293.6 142.7 L 284.7 142.7 L 284.7 141.5 Q 287.2 139.8, 288.6 138.5 Q 290.1 137.2, 290.8 136.0 Q 291.5 134.8, 291.5 133.6 Q 291.5 132.4, 290.9 131.7 Q 290.2 131.0, 289.1 131.0 Q 288.1 131.0, 287.4 131.4 Q 286.7 131.8, 286.2 132.8 L 284.8 132.1 " fill="#000000"/>
<path class="atom-25" d="M 299.8 134.6 Q 301.0 134.6, 301.9 135.1 Q 302.8 135.6, 303.3 136.5 Q 303.8 137.4, 303.8 138.5 Q 303.8 139.8, 303.2 140.8 Q 302.6 141.8, 301.6 142.3 Q 300.6 142.9, 299.4 142.9 Q 297.0 142.9, 295.8 141.3 Q 294.7 139.7, 294.7 136.6 Q 294.7 133.1, 296.1 131.3 Q 297.6 129.5, 300.4 129.5 Q 301.2 129.5, 301.9 129.7 Q 302.6 129.8, 303.3 130.2 L 302.5 131.5 Q 301.6 131.0, 300.4 131.0 Q 298.5 131.0, 297.6 132.2 Q 296.7 133.3, 296.5 135.8 Q 297.2 135.2, 298.0 134.9 Q 298.9 134.6, 299.8 134.6 M 299.4 141.4 Q 300.1 141.4, 300.7 141.0 Q 301.3 140.6, 301.6 140.0 Q 301.9 139.3, 301.9 138.5 Q 301.9 137.4, 301.3 136.7 Q 300.6 136.0, 299.5 136.0 Q 298.7 136.0, 297.9 136.4 Q 297.1 136.7, 296.5 137.2 Q 296.6 139.4, 297.3 140.4 Q 298.0 141.4, 299.4 141.4 " fill="#000000"/>
<path class="atom-26" d="M 408.8 275.2 L 410.5 275.2 L 410.5 280.8 L 417.3 280.8 L 417.3 275.2 L 419.0 275.2 L 419.0 288.3 L 417.3 288.3 L 417.3 282.3 L 410.5 282.3 L 410.5 288.3 L 408.8 288.3 L 408.8 275.2 " fill="#000000"/>
<path class="atom-26" d="M 420.6 286.1 L 422.5 286.1 L 422.5 288.0 L 420.6 288.0 L 420.6 286.1 M 420.6 279.8 L 422.5 279.8 L 422.5 281.6 L 420.6 281.6 L 420.6 279.8 " fill="#000000"/>
<path class="atom-26" d="M 423.9 277.7 Q 424.4 276.4, 425.5 275.8 Q 426.7 275.0, 428.3 275.0 Q 430.2 275.0, 431.4 276.1 Q 432.5 277.2, 432.5 279.1 Q 432.5 281.1, 431.0 282.9 Q 429.6 284.7, 426.6 286.8 L 432.7 286.8 L 432.7 288.3 L 423.9 288.3 L 423.9 287.1 Q 426.3 285.3, 427.7 284.0 Q 429.2 282.7, 429.9 281.6 Q 430.6 280.4, 430.6 279.2 Q 430.6 277.9, 430.0 277.2 Q 429.4 276.5, 428.3 276.5 Q 427.2 276.5, 426.5 277.0 Q 425.8 277.4, 425.3 278.3 L 423.9 277.7 " fill="#000000"/>
<path class="atom-26" d="M 440.7 276.7 L 433.8 276.7 L 433.8 275.2 L 442.5 275.2 L 442.5 276.5 L 437.2 288.3 L 435.4 288.3 L 440.7 276.7 " fill="#000000"/>
<path class="atom-27" d="M 385.8 116.4 L 387.6 116.4 L 387.6 121.9 L 394.3 121.9 L 394.3 116.4 L 396.1 116.4 L 396.1 129.5 L 394.3 129.5 L 394.3 123.4 L 387.6 123.4 L 387.6 129.5 L 385.8 129.5 L 385.8 116.4 " fill="#000000"/>
<path class="atom-27" d="M 397.6 127.3 L 399.5 127.3 L 399.5 129.2 L 397.6 129.2 L 397.6 127.3 M 397.6 120.9 L 399.5 120.9 L 399.5 122.8 L 397.6 122.8 L 397.6 120.9 " fill="#000000"/>
<path class="atom-27" d="M 400.9 118.8 Q 401.4 117.6, 402.6 116.9 Q 403.7 116.2, 405.3 116.2 Q 407.3 116.2, 408.4 117.3 Q 409.5 118.4, 409.5 120.3 Q 409.5 122.2, 408.1 124.0 Q 406.6 125.8, 403.7 128.0 L 409.7 128.0 L 409.7 129.5 L 400.9 129.5 L 400.9 128.2 Q 403.3 126.5, 404.8 125.2 Q 406.2 123.9, 406.9 122.7 Q 407.6 121.6, 407.6 120.4 Q 407.6 119.1, 407.0 118.4 Q 406.4 117.7, 405.3 117.7 Q 404.2 117.7, 403.5 118.1 Q 402.8 118.5, 402.3 119.5 L 400.9 118.8 " fill="#000000"/>
<path class="atom-27" d="M 417.5 122.5 Q 418.7 123.0, 419.4 123.8 Q 420.1 124.6, 420.1 125.9 Q 420.1 127.0, 419.5 127.9 Q 419.0 128.7, 417.9 129.2 Q 416.9 129.7, 415.5 129.7 Q 413.4 129.7, 412.1 128.7 Q 410.8 127.6, 410.8 125.9 Q 410.8 124.8, 411.4 124.0 Q 411.9 123.2, 413.1 122.6 Q 412.2 122.1, 411.8 121.4 Q 411.3 120.7, 411.3 119.6 Q 411.3 118.0, 412.4 117.1 Q 413.6 116.2, 415.5 116.2 Q 417.4 116.2, 418.5 117.1 Q 419.6 118.0, 419.6 119.6 Q 419.6 120.5, 419.1 121.3 Q 418.6 122.0, 417.5 122.5 M 415.5 117.6 Q 414.4 117.6, 413.8 118.1 Q 413.2 118.6, 413.2 119.6 Q 413.2 120.2, 413.6 120.7 Q 414.0 121.2, 414.6 121.4 Q 415.2 121.7, 416.3 122.1 Q 417.1 121.5, 417.4 120.9 Q 417.8 120.3, 417.8 119.6 Q 417.8 118.6, 417.2 118.1 Q 416.6 117.6, 415.5 117.6 M 415.5 128.3 Q 416.8 128.3, 417.5 127.6 Q 418.2 127.0, 418.2 125.9 Q 418.2 125.2, 417.9 124.7 Q 417.5 124.3, 416.9 124.0 Q 416.3 123.8, 415.3 123.4 L 414.4 123.1 Q 413.5 123.7, 413.1 124.4 Q 412.7 125.0, 412.7 125.9 Q 412.7 127.0, 413.5 127.6 Q 414.2 128.3, 415.5 128.3 " fill="#000000"/>
<path class="atom-28" d="M 443.1 189.1 L 444.9 189.1 L 444.9 194.7 L 451.6 194.7 L 451.6 189.1 L 453.4 189.1 L 453.4 202.3 L 451.6 202.3 L 451.6 196.2 L 444.9 196.2 L 444.9 202.3 L 443.1 202.3 L 443.1 189.1 " fill="#000000"/>
<path class="atom-28" d="M 455.0 200.1 L 456.8 200.1 L 456.8 202.0 L 455.0 202.0 L 455.0 200.1 M 455.0 193.7 L 456.8 193.7 L 456.8 195.6 L 455.0 195.6 L 455.0 193.7 " fill="#000000"/>
<path class="atom-28" d="M 458.3 191.6 Q 458.7 190.4, 459.9 189.7 Q 461.0 189.0, 462.6 189.0 Q 464.6 189.0, 465.7 190.1 Q 466.8 191.1, 466.8 193.1 Q 466.8 195.0, 465.4 196.8 Q 464.0 198.6, 461.0 200.8 L 467.1 200.8 L 467.1 202.3 L 458.2 202.3 L 458.2 201.0 Q 460.7 199.3, 462.1 198.0 Q 463.6 196.7, 464.3 195.5 Q 465.0 194.4, 465.0 193.1 Q 465.0 191.9, 464.4 191.2 Q 463.7 190.5, 462.6 190.5 Q 461.6 190.5, 460.9 190.9 Q 460.2 191.3, 459.7 192.3 L 458.3 191.6 " fill="#000000"/>
<path class="atom-28" d="M 472.6 189.0 Q 474.9 189.0, 476.1 190.6 Q 477.3 192.2, 477.3 195.3 Q 477.3 198.8, 475.8 200.6 Q 474.4 202.4, 471.6 202.4 Q 470.7 202.4, 470.0 202.2 Q 469.4 202.0, 468.7 201.7 L 469.4 200.4 Q 470.4 200.9, 471.5 200.9 Q 473.4 200.9, 474.3 199.7 Q 475.3 198.5, 475.4 196.1 Q 474.7 196.7, 473.9 197.0 Q 473.0 197.3, 472.1 197.3 Q 471.0 197.3, 470.1 196.8 Q 469.2 196.3, 468.7 195.4 Q 468.2 194.5, 468.2 193.4 Q 468.2 192.1, 468.7 191.1 Q 469.3 190.1, 470.3 189.6 Q 471.3 189.0, 472.6 189.0 M 470.0 193.4 Q 470.0 194.5, 470.7 195.2 Q 471.3 195.9, 472.5 195.9 Q 473.3 195.9, 474.0 195.5 Q 474.8 195.2, 475.4 194.7 Q 475.3 192.5, 474.6 191.5 Q 474.0 190.5, 472.6 190.5 Q 471.9 190.5, 471.3 190.9 Q 470.7 191.3, 470.4 191.9 Q 470.0 192.6, 470.0 193.4 " fill="#000000"/>
<path class="atom-29" d="M 80.3 278.6 L 82.1 278.6 L 82.1 284.2 L 88.8 284.2 L 88.8 278.6 L 90.6 278.6 L 90.6 291.7 L 88.8 291.7 L 88.8 285.7 L 82.1 285.7 L 82.1 291.7 L 80.3 291.7 L 80.3 278.6 " fill="#000000"/>
<path class="atom-29" d="M 92.2 289.5 L 94.0 289.5 L 94.0 291.4 L 92.2 291.4 L 92.2 289.5 M 92.2 283.2 L 94.0 283.2 L 94.0 285.0 L 92.2 285.0 L 92.2 283.2 " fill="#000000"/>
<path class="atom-29" d="M 101.7 284.8 Q 103.0 285.2, 103.6 286.0 Q 104.2 286.8, 104.2 288.1 Q 104.2 289.2, 103.7 290.1 Q 103.1 291.0, 102.1 291.4 Q 101.1 291.9, 99.7 291.9 Q 98.3 291.9, 97.3 291.4 Q 96.2 290.9, 95.4 289.9 L 96.5 288.8 Q 97.3 289.7, 98.0 290.1 Q 98.6 290.4, 99.7 290.4 Q 100.9 290.4, 101.6 289.8 Q 102.4 289.1, 102.4 288.1 Q 102.4 286.8, 101.6 286.2 Q 100.9 285.6, 99.3 285.6 L 98.3 285.6 L 98.3 284.2 L 99.1 284.2 Q 100.6 284.2, 101.3 283.6 Q 102.1 283.0, 102.1 281.8 Q 102.1 280.9, 101.5 280.4 Q 100.8 279.9, 99.8 279.9 Q 98.7 279.9, 98.0 280.3 Q 97.3 280.7, 96.8 281.7 L 95.5 281.0 Q 96.0 279.9, 97.1 279.2 Q 98.2 278.4, 99.8 278.4 Q 101.7 278.4, 102.8 279.4 Q 103.9 280.3, 103.9 281.8 Q 103.9 282.9, 103.4 283.6 Q 102.8 284.4, 101.7 284.8 " fill="#000000"/>
<path class="atom-29" d="M 110.1 291.9 Q 107.7 291.9, 106.5 290.1 Q 105.3 288.3, 105.3 285.1 Q 105.3 282.0, 106.5 280.2 Q 107.7 278.4, 110.1 278.4 Q 112.5 278.4, 113.7 280.2 Q 114.9 282.0, 114.9 285.1 Q 114.9 288.3, 113.7 290.1 Q 112.5 291.9, 110.1 291.9 M 110.1 290.4 Q 111.5 290.4, 112.3 289.1 Q 113.1 287.7, 113.1 285.1 Q 113.1 282.6, 112.3 281.2 Q 111.5 279.9, 110.1 279.9 Q 108.7 279.9, 107.9 281.2 Q 107.2 282.6, 107.2 285.1 Q 107.2 287.7, 107.9 289.1 Q 108.7 290.4, 110.1 290.4 " fill="#000000"/>
<path class="atom-30" d="M 58.2 119.8 L 60.0 119.8 L 60.0 125.3 L 66.7 125.3 L 66.7 119.8 L 68.5 119.8 L 68.5 132.9 L 66.7 132.9 L 66.7 126.8 L 60.0 126.8 L 60.0 132.9 L 58.2 132.9 L 58.2 119.8 " fill="#000000"/>
<path class="atom-30" d="M 70.0 130.7 L 71.9 130.7 L 71.9 132.6 L 70.0 132.6 L 70.0 130.7 M 70.0 124.3 L 71.9 124.3 L 71.9 126.2 L 70.0 126.2 L 70.0 124.3 " fill="#000000"/>
<path class="atom-30" d="M 79.6 126.0 Q 80.9 126.3, 81.5 127.2 Q 82.1 128.0, 82.1 129.3 Q 82.1 130.4, 81.5 131.3 Q 81.0 132.1, 80.0 132.6 Q 78.9 133.1, 77.6 133.1 Q 76.2 133.1, 75.1 132.6 Q 74.1 132.1, 73.3 131.1 L 74.3 130.0 Q 75.1 130.9, 75.8 131.2 Q 76.5 131.6, 77.6 131.6 Q 78.8 131.6, 79.5 130.9 Q 80.2 130.3, 80.2 129.3 Q 80.2 127.9, 79.5 127.3 Q 78.7 126.7, 77.1 126.7 L 76.2 126.7 L 76.2 125.4 L 77.0 125.4 Q 78.4 125.4, 79.2 124.8 Q 80.0 124.1, 80.0 123.0 Q 80.0 122.1, 79.3 121.6 Q 78.7 121.1, 77.6 121.1 Q 76.5 121.1, 75.8 121.5 Q 75.2 121.9, 74.7 122.8 L 73.4 122.2 Q 73.8 121.1, 75.0 120.3 Q 76.1 119.6, 77.6 119.6 Q 79.6 119.6, 80.7 120.5 Q 81.8 121.4, 81.8 123.0 Q 81.8 124.0, 81.2 124.8 Q 80.7 125.5, 79.6 126.0 " fill="#000000"/>
<path class="atom-30" d="M 83.9 131.4 L 86.8 131.4 L 86.8 121.6 L 83.6 122.6 L 83.2 121.5 L 87.2 119.7 L 88.5 119.9 L 88.5 131.4 L 91.1 131.4 L 91.1 132.9 L 83.9 132.9 L 83.9 131.4 " fill="#000000"/>
<path class="atom-31" d="M 312.8 306.5 L 314.5 306.5 L 314.5 312.1 L 321.3 312.1 L 321.3 306.5 L 323.0 306.5 L 323.0 319.7 L 321.3 319.7 L 321.3 313.6 L 314.5 313.6 L 314.5 319.7 L 312.8 319.7 L 312.8 306.5 " fill="#000000"/>
<path class="atom-31" d="M 324.6 317.5 L 326.5 317.5 L 326.5 319.4 L 324.6 319.4 L 324.6 317.5 M 324.6 311.1 L 326.5 311.1 L 326.5 313.0 L 324.6 313.0 L 324.6 311.1 " fill="#000000"/>
<path class="atom-31" d="M 334.1 312.8 Q 335.4 313.1, 336.0 314.0 Q 336.7 314.8, 336.7 316.1 Q 336.7 317.2, 336.1 318.1 Q 335.6 318.9, 334.5 319.4 Q 333.5 319.9, 332.2 319.9 Q 330.8 319.9, 329.7 319.4 Q 328.7 318.9, 327.8 317.9 L 328.9 316.8 Q 329.7 317.7, 330.4 318.0 Q 331.1 318.4, 332.2 318.4 Q 333.4 318.4, 334.1 317.7 Q 334.8 317.1, 334.8 316.1 Q 334.8 314.7, 334.1 314.1 Q 333.3 313.5, 331.7 313.5 L 330.8 313.5 L 330.8 312.2 L 331.6 312.2 Q 333.0 312.2, 333.8 311.6 Q 334.5 310.9, 334.5 309.8 Q 334.5 308.9, 333.9 308.4 Q 333.3 307.9, 332.2 307.9 Q 331.1 307.9, 330.4 308.3 Q 329.8 308.7, 329.2 309.6 L 328.0 309.0 Q 328.4 307.9, 329.5 307.1 Q 330.6 306.4, 332.2 306.4 Q 334.1 306.4, 335.3 307.3 Q 336.4 308.2, 336.4 309.8 Q 336.4 310.8, 335.8 311.6 Q 335.2 312.3, 334.1 312.8 " fill="#000000"/>
<path class="atom-31" d="M 337.8 309.0 Q 338.3 307.8, 339.4 307.1 Q 340.6 306.4, 342.2 306.4 Q 344.2 306.4, 345.3 307.5 Q 346.4 308.5, 346.4 310.5 Q 346.4 312.4, 344.9 314.2 Q 343.5 316.0, 340.5 318.2 L 346.6 318.2 L 346.6 319.7 L 337.8 319.7 L 337.8 318.4 Q 340.2 316.7, 341.7 315.4 Q 343.1 314.1, 343.8 312.9 Q 344.5 311.8, 344.5 310.6 Q 344.5 309.3, 343.9 308.6 Q 343.3 307.9, 342.2 307.9 Q 341.1 307.9, 340.4 308.3 Q 339.7 308.7, 339.2 309.7 L 337.8 309.0 " fill="#000000"/>
<path class="atom-32" d="M 249.0 378.4 L 250.8 378.4 L 250.8 384.0 L 257.5 384.0 L 257.5 378.4 L 259.3 378.4 L 259.3 391.5 L 257.5 391.5 L 257.5 385.5 L 250.8 385.5 L 250.8 391.5 L 249.0 391.5 L 249.0 378.4 " fill="#000000"/>
<path class="atom-32" d="M 260.8 389.4 L 262.7 389.4 L 262.7 391.2 L 260.8 391.2 L 260.8 389.4 M 260.8 383.0 L 262.7 383.0 L 262.7 384.8 L 260.8 384.8 L 260.8 383.0 " fill="#000000"/>
<path class="atom-32" d="M 270.4 384.6 Q 271.7 385.0, 272.3 385.8 Q 272.9 386.6, 272.9 387.9 Q 272.9 389.0, 272.3 389.9 Q 271.8 390.8, 270.8 391.2 Q 269.8 391.7, 268.4 391.7 Q 267.0 391.7, 266.0 391.2 Q 264.9 390.7, 264.1 389.7 L 265.1 388.7 Q 266.0 389.5, 266.6 389.9 Q 267.3 390.2, 268.4 390.2 Q 269.6 390.2, 270.3 389.6 Q 271.1 389.0, 271.1 387.9 Q 271.1 386.6, 270.3 386.0 Q 269.6 385.4, 267.9 385.4 L 267.0 385.4 L 267.0 384.0 L 267.8 384.0 Q 269.3 384.0, 270.0 383.4 Q 270.8 382.8, 270.8 381.6 Q 270.8 380.8, 270.1 380.3 Q 269.5 379.7, 268.4 379.7 Q 267.3 379.7, 266.7 380.1 Q 266.0 380.5, 265.5 381.5 L 264.2 380.8 Q 264.7 379.7, 265.8 379.0 Q 266.9 378.3, 268.4 378.3 Q 270.4 378.3, 271.5 379.2 Q 272.6 380.1, 272.6 381.6 Q 272.6 382.7, 272.1 383.4 Q 271.5 384.2, 270.4 384.6 " fill="#000000"/>
<path class="atom-32" d="M 280.3 384.6 Q 281.6 385.0, 282.2 385.8 Q 282.8 386.6, 282.8 387.9 Q 282.8 389.0, 282.3 389.9 Q 281.7 390.8, 280.7 391.2 Q 279.7 391.7, 278.3 391.7 Q 276.9 391.7, 275.9 391.2 Q 274.8 390.7, 274.0 389.7 L 275.1 388.7 Q 275.9 389.5, 276.6 389.9 Q 277.2 390.2, 278.3 390.2 Q 279.5 390.2, 280.2 389.6 Q 281.0 389.0, 281.0 387.9 Q 281.0 386.6, 280.2 386.0 Q 279.5 385.4, 277.9 385.4 L 276.9 385.4 L 276.9 384.0 L 277.7 384.0 Q 279.2 384.0, 279.9 383.4 Q 280.7 382.8, 280.7 381.6 Q 280.7 380.8, 280.1 380.3 Q 279.4 379.7, 278.4 379.7 Q 277.3 379.7, 276.6 380.1 Q 275.9 380.5, 275.4 381.5 L 274.1 380.8 Q 274.6 379.7, 275.7 379.0 Q 276.8 378.3, 278.4 378.3 Q 280.3 378.3, 281.4 379.2 Q 282.5 380.1, 282.5 381.6 Q 282.5 382.7, 282.0 383.4 Q 281.4 384.2, 280.3 384.6 " fill="#000000"/>
<path class="atom-33" d="M 22.7 205.8 L 24.5 205.8 L 24.5 211.4 L 31.2 211.4 L 31.2 205.8 L 33.0 205.8 L 33.0 218.9 L 31.2 218.9 L 31.2 212.9 L 24.5 212.9 L 24.5 218.9 L 22.7 218.9 L 22.7 205.8 " fill="#000000"/>
<path class="atom-33" d="M 34.6 216.8 L 36.4 216.8 L 36.4 218.6 L 34.6 218.6 L 34.6 216.8 M 34.6 210.4 L 36.4 210.4 L 36.4 212.2 L 34.6 212.2 L 34.6 210.4 " fill="#000000"/>
<path class="atom-33" d="M 44.1 212.0 Q 45.4 212.4, 46.0 213.2 Q 46.6 214.0, 46.6 215.3 Q 46.6 216.4, 46.1 217.3 Q 45.5 218.2, 44.5 218.6 Q 43.5 219.1, 42.1 219.1 Q 40.7 219.1, 39.7 218.6 Q 38.6 218.1, 37.8 217.1 L 38.9 216.1 Q 39.7 216.9, 40.4 217.3 Q 41.1 217.6, 42.1 217.6 Q 43.3 217.6, 44.1 217.0 Q 44.8 216.3, 44.8 215.3 Q 44.8 214.0, 44.0 213.4 Q 43.3 212.8, 41.7 212.8 L 40.7 212.8 L 40.7 211.4 L 41.6 211.4 Q 43.0 211.4, 43.7 210.8 Q 44.5 210.2, 44.5 209.0 Q 44.5 208.2, 43.9 207.7 Q 43.2 207.1, 42.2 207.1 Q 41.1 207.1, 40.4 207.5 Q 39.7 207.9, 39.2 208.9 L 37.9 208.2 Q 38.4 207.1, 39.5 206.4 Q 40.6 205.7, 42.2 205.7 Q 44.1 205.7, 45.2 206.6 Q 46.4 207.5, 46.4 209.0 Q 46.4 210.1, 45.8 210.8 Q 45.2 211.6, 44.1 212.0 " fill="#000000"/>
<path class="atom-33" d="M 56.3 214.4 L 57.8 214.4 L 57.8 215.9 L 56.3 215.9 L 56.3 218.9 L 54.5 218.9 L 54.5 215.9 L 47.7 215.9 L 47.7 214.7 L 53.5 205.8 L 56.3 205.8 L 56.3 214.4 M 49.9 214.4 L 54.5 214.4 L 54.5 207.0 L 49.9 214.4 " fill="#000000"/>
<text x="213.26234598899606" y="189.07947264215542" font-size="12" font-family="Verdana" font-weight="bold" letter-spacing="0" text-anchor="start" fill="black" transform=" rotate(81.770853 213.262346 189.079473)">0.0341</text><text x="25" y="490" font-size="12" font-family="Verdana" font-weight="bold" letter-spacing="0" text-anchor="start" fill="black">[H:1]-[#7:2](-[#6:3]1:[#6:4](:[#6:19](:[#6:20](:[#6:18](:[#6:6]:1-[H:21])-[H:30])-[H:34])-[H:31])-[H:22])/[#6:5](=[#6:7]1/[#6:9](=[#6:11](-[#7:8](-[#6:10]-1=[#8:24])-[H:23])-[H:33])-[H:32])-[#6:12]1:[#6:13](:[#6:15](:[#6:17](:[#6:16](:[#6:14]:1-[H:26])-[H:28])-[H:29])-[H:27])-[H:25]</text></svg>
