<?xml version='1.0' encoding='ASCII' standalone='yes'?>
<svg xmlns="http://www.w3.org/2000/svg" xmlns:rdkit="http://www.rdkit.org/xml" xmlns:xlink="http://www.w3.org/1999/xlink" version="1.1" baseProfile="full" xml:space="preserve" width="500px" height="500px" viewBox="0 0 500 500">
<!-- END OF HEADER -->
<rect style="opacity:1.0;fill:#FFFFFF;stroke:none" width="500" height="500" x="0" y="0"> </rect>
<path d="M 279.38,218.919 L 226.46,251.68" style="fill:none;fill-rule:evenodd;stroke:#FF7F7F;stroke-width:13.3px;stroke-linecap:butt;stroke-linejoin:miter;stroke-opacity:1"/>
<path class="bond-0 atom-0 atom-1" d="M 315.028,196.851 L 290.667,211.932" style="fill:none;fill-rule:evenodd;stroke:#000000;stroke-width:2.0px;stroke-linecap:butt;stroke-linejoin:miter;stroke-opacity:1"/>
<path class="bond-1 atom-0 atom-6" d="M 338.203,175.598 L 337.568,154.919" style="fill:none;fill-rule:evenodd;stroke:#000000;stroke-width:2.0px;stroke-linecap:butt;stroke-linejoin:miter;stroke-opacity:1"/>
<path class="bond-1 atom-0 atom-6" d="M 337.568,154.919 L 336.932,134.24" style="fill:none;fill-rule:evenodd;stroke:#FF0000;stroke-width:2.0px;stroke-linecap:butt;stroke-linejoin:miter;stroke-opacity:1"/>
<path class="bond-1 atom-0 atom-6" d="M 325.761,175.98 L 325.125,155.301" style="fill:none;fill-rule:evenodd;stroke:#000000;stroke-width:2.0px;stroke-linecap:butt;stroke-linejoin:miter;stroke-opacity:1"/>
<path class="bond-1 atom-0 atom-6" d="M 325.125,155.301 L 324.49,134.622" style="fill:none;fill-rule:evenodd;stroke:#FF0000;stroke-width:2.0px;stroke-linecap:butt;stroke-linejoin:miter;stroke-opacity:1"/>
<path class="bond-13 atom-5 atom-0" d="M 368.012,205.339 L 355.452,198.593" style="fill:none;fill-rule:evenodd;stroke:#0000FF;stroke-width:2.0px;stroke-linecap:butt;stroke-linejoin:miter;stroke-opacity:1"/>
<path class="bond-13 atom-5 atom-0" d="M 355.452,198.593 L 342.893,191.847" style="fill:none;fill-rule:evenodd;stroke:#000000;stroke-width:2.0px;stroke-linecap:butt;stroke-linejoin:miter;stroke-opacity:1"/>
<path class="bond-2 atom-1 atom-7" d="M 285.861,229.388 L 305.974,261.878" style="fill:none;fill-rule:evenodd;stroke:#000000;stroke-width:2.0px;stroke-linecap:butt;stroke-linejoin:miter;stroke-opacity:1"/>
<path class="bond-3 atom-1 atom-8" d="M 272.899,208.451 L 253.033,176.359" style="fill:none;fill-rule:evenodd;stroke:#000000;stroke-width:2.0px;stroke-linecap:butt;stroke-linejoin:miter;stroke-opacity:1"/>
<path class="bond-4 atom-2 atom-1" d="M 238.225,244.397 L 250.446,236.832" style="fill:none;fill-rule:evenodd;stroke:#0000FF;stroke-width:2.0px;stroke-linecap:butt;stroke-linejoin:miter;stroke-opacity:1"/>
<path class="bond-4 atom-2 atom-1" d="M 250.446,236.832 L 262.666,229.266" style="fill:none;fill-rule:evenodd;stroke:#000000;stroke-width:2.0px;stroke-linecap:butt;stroke-linejoin:miter;stroke-opacity:1"/>
<path class="bond-5 atom-2 atom-3" d="M 207.339,241.411 L 195.437,235.018" style="fill:none;fill-rule:evenodd;stroke:#0000FF;stroke-width:2.0px;stroke-linecap:butt;stroke-linejoin:miter;stroke-opacity:1"/>
<path class="bond-5 atom-2 atom-3" d="M 195.437,235.018 L 183.535,228.626" style="fill:none;fill-rule:evenodd;stroke:#000000;stroke-width:2.0px;stroke-linecap:butt;stroke-linejoin:miter;stroke-opacity:1"/>
<path class="bond-6 atom-2 atom-4" d="M 226.789,262.398 L 227.427,283.144" style="fill:none;fill-rule:evenodd;stroke:#0000FF;stroke-width:2.0px;stroke-linecap:butt;stroke-linejoin:miter;stroke-opacity:1"/>
<path class="bond-6 atom-2 atom-4" d="M 227.427,283.144 L 228.064,303.89" style="fill:none;fill-rule:evenodd;stroke:#000000;stroke-width:2.0px;stroke-linecap:butt;stroke-linejoin:miter;stroke-opacity:1"/>
<path class="bond-7 atom-3 atom-9" d="M 152.136,211.762 L 134.731,202.414" style="fill:none;fill-rule:evenodd;stroke:#000000;stroke-width:2.0px;stroke-linecap:butt;stroke-linejoin:miter;stroke-opacity:1"/>
<path class="bond-8 atom-3 atom-10" d="M 166.232,232.276 L 147.621,266.929" style="fill:none;fill-rule:evenodd;stroke:#000000;stroke-width:2.0px;stroke-linecap:butt;stroke-linejoin:miter;stroke-opacity:1"/>
<path class="bond-9 atom-3 atom-11" d="M 177.143,211.961 L 195.611,177.576" style="fill:none;fill-rule:evenodd;stroke:#000000;stroke-width:2.0px;stroke-linecap:butt;stroke-linejoin:miter;stroke-opacity:1"/>
<path class="bond-10 atom-4 atom-12" d="M 205.996,314.579 L 173.082,315.59" style="fill:none;fill-rule:evenodd;stroke:#000000;stroke-width:2.0px;stroke-linecap:butt;stroke-linejoin:miter;stroke-opacity:1"/>
<path class="bond-11 atom-4 atom-13" d="M 240.129,313.53 L 282.424,312.23" style="fill:none;fill-rule:evenodd;stroke:#000000;stroke-width:2.0px;stroke-linecap:butt;stroke-linejoin:miter;stroke-opacity:1"/>
<path class="bond-12 atom-4 atom-16" d="M 228.699,324.559 L 229.974,366.05" style="fill:none;fill-rule:evenodd;stroke:#000000;stroke-width:2.0px;stroke-linecap:butt;stroke-linejoin:miter;stroke-opacity:1"/>
<path class="bond-14 atom-5 atom-17" d="M 399.548,207.923 L 415.757,197.888" style="fill:none;fill-rule:evenodd;stroke:#0000FF;stroke-width:2.0px;stroke-linecap:butt;stroke-linejoin:miter;stroke-opacity:1"/>
<path class="bond-14 atom-5 atom-17" d="M 415.757,197.888 L 431.966,187.854" style="fill:none;fill-rule:evenodd;stroke:#000000;stroke-width:2.0px;stroke-linecap:butt;stroke-linejoin:miter;stroke-opacity:1"/>
<path class="bond-15 atom-5 atom-18" d="M 387.46,226.276 L 388.099,247.046" style="fill:none;fill-rule:evenodd;stroke:#0000FF;stroke-width:2.0px;stroke-linecap:butt;stroke-linejoin:miter;stroke-opacity:1"/>
<path class="bond-15 atom-5 atom-18" d="M 388.099,247.046 L 388.737,267.816" style="fill:none;fill-rule:evenodd;stroke:#000000;stroke-width:2.0px;stroke-linecap:butt;stroke-linejoin:miter;stroke-opacity:1"/>
<path class="bond-16 atom-9 atom-14" d="M 122.418,182.312 L 140.809,148.071" style="fill:none;fill-rule:evenodd;stroke:#000000;stroke-width:2.0px;stroke-linecap:butt;stroke-linejoin:miter;stroke-opacity:1"/>
<path class="bond-17 atom-9 atom-15" d="M 111.173,203.25 L 92.8089,237.441" style="fill:none;fill-rule:evenodd;stroke:#000000;stroke-width:2.0px;stroke-linecap:butt;stroke-linejoin:miter;stroke-opacity:1"/>
<path class="bond-18 atom-9 atom-19" d="M 97.304,182.312 L 69.4145,167.333" style="fill:none;fill-rule:evenodd;stroke:#000000;stroke-width:2.0px;stroke-linecap:butt;stroke-linejoin:miter;stroke-opacity:1"/>
<path class="atom-0" d="M 311.954 186.233 Q 311.954 181.851, 313.996 179.561 Q 316.062 177.246, 319.971 177.246 Q 323.606 177.246, 325.548 179.81 L 323.904 181.154 Q 322.485 179.287, 319.971 179.287 Q 317.307 179.287, 315.888 181.08 Q 314.494 182.847, 314.494 186.233 Q 314.494 189.719, 315.938 191.511 Q 317.406 193.304, 320.245 193.304 Q 322.187 193.304, 324.452 192.133 L 325.149 194.001 Q 324.228 194.598, 322.834 194.947 Q 321.44 195.295, 319.896 195.295 Q 316.062 195.295, 313.996 192.955 Q 311.954 190.615, 311.954 186.233 " fill="#000000"/>
<path class="atom-0" d="M 327.415 192.158 L 329.904 192.158 L 329.904 194.648 L 327.415 194.648 L 327.415 192.158 M 327.415 183.594 L 329.904 183.594 L 329.904 186.084 L 327.415 186.084 L 327.415 183.594 " fill="#000000"/>
<path class="atom-0" d="M 332.22 193.08 L 336.079 193.08 L 336.079 179.909 L 331.821 181.229 L 331.249 179.76 L 336.651 177.345 L 338.419 177.644 L 338.419 193.08 L 341.879 193.08 L 341.879 195.071 L 332.22 195.071 L 332.22 193.08 " fill="#000000"/>
<path class="atom-1" d="M 258.548 218.994 Q 258.548 214.612, 260.59 212.322 Q 262.656 210.007, 266.565 210.007 Q 270.2 210.007, 272.142 212.571 L 270.499 213.915 Q 269.079 212.048, 266.565 212.048 Q 263.901 212.048, 262.482 213.841 Q 261.088 215.608, 261.088 218.994 Q 261.088 222.48, 262.532 224.272 Q 264.001 226.065, 266.839 226.065 Q 268.781 226.065, 271.046 224.895 L 271.743 226.762 Q 270.822 227.359, 269.428 227.708 Q 268.034 228.056, 266.49 228.056 Q 262.656 228.056, 260.59 225.716 Q 258.548 223.376, 258.548 218.994 " fill="#000000"/>
<path class="atom-1" d="M 274.009 224.919 L 276.498 224.919 L 276.498 227.409 L 274.009 227.409 L 274.009 224.919 M 274.009 216.355 L 276.498 216.355 L 276.498 218.845 L 274.009 218.845 L 274.009 216.355 " fill="#000000"/>
<path class="atom-1" d="M 277.793 213.542 Q 278.44 211.874, 279.984 210.953 Q 281.527 210.007, 283.669 210.007 Q 286.332 210.007, 287.826 211.451 Q 289.32 212.895, 289.32 215.459 Q 289.32 218.073, 287.378 220.513 Q 285.461 222.953, 281.478 225.841 L 289.619 225.841 L 289.619 227.832 L 277.743 227.832 L 277.743 226.164 Q 281.03 223.824, 282.971 222.081 Q 284.938 220.339, 285.884 218.77 Q 286.83 217.202, 286.83 215.583 Q 286.83 213.89, 285.984 212.944 Q 285.137 211.998, 283.669 211.998 Q 282.249 211.998, 281.303 212.571 Q 280.357 213.144, 279.685 214.413 L 277.793 213.542 " fill="#000000"/>
<path class="atom-2" d="M 208.835 242.967 L 214.611 252.303 Q 215.184 253.224, 216.105 254.892 Q 217.026 256.56, 217.076 256.66 L 217.076 242.967 L 219.416 242.967 L 219.416 260.593 L 217.001 260.593 L 210.802 250.386 Q 210.08 249.191, 209.308 247.822 Q 208.562 246.452, 208.338 246.029 L 208.338 260.593 L 206.047 260.593 L 206.047 242.967 L 208.835 242.967 " fill="#0000FF"/>
<path class="atom-2" d="M 221.284 257.68 L 223.773 257.68 L 223.773 260.17 L 221.284 260.17 L 221.284 257.68 M 221.284 249.116 L 223.773 249.116 L 223.773 251.606 L 221.284 251.606 L 221.284 249.116 " fill="#0000FF"/>
<path class="atom-2" d="M 233.283 251.307 Q 235.001 251.805, 235.823 252.925 Q 236.669 254.021, 236.669 255.763 Q 236.669 257.257, 235.922 258.427 Q 235.176 259.573, 233.806 260.22 Q 232.437 260.842, 230.644 260.842 Q 228.752 260.842, 227.333 260.195 Q 225.939 259.523, 224.819 258.178 L 226.238 256.734 Q 227.333 257.929, 228.254 258.402 Q 229.176 258.851, 230.644 258.851 Q 232.238 258.851, 233.209 258.004 Q 234.18 257.133, 234.18 255.739 Q 234.18 253.946, 233.159 253.149 Q 232.163 252.328, 229.997 252.328 L 228.727 252.328 L 228.727 250.535 L 229.848 250.535 Q 231.765 250.51, 232.786 249.689 Q 233.806 248.842, 233.806 247.274 Q 233.806 246.129, 232.96 245.456 Q 232.113 244.759, 230.669 244.759 Q 229.2 244.759, 228.279 245.282 Q 227.383 245.805, 226.686 247.124 L 224.968 246.203 Q 225.591 244.734, 227.084 243.764 Q 228.578 242.768, 230.669 242.768 Q 233.259 242.768, 234.777 243.988 Q 236.296 245.207, 236.296 247.274 Q 236.296 248.693, 235.524 249.714 Q 234.752 250.734, 233.283 251.307 " fill="#0000FF"/>
<path class="atom-3" d="M 150.256 222.305 Q 150.256 217.924, 152.298 215.633 Q 154.364 213.318, 158.273 213.318 Q 161.908 213.318, 163.85 215.882 L 162.207 217.227 Q 160.788 215.359, 158.273 215.359 Q 155.609 215.359, 154.19 217.152 Q 152.796 218.919, 152.796 222.305 Q 152.796 225.791, 154.24 227.583 Q 155.709 229.376, 158.547 229.376 Q 160.489 229.376, 162.754 228.206 L 163.451 230.073 Q 162.53 230.67, 161.136 231.019 Q 159.742 231.367, 158.198 231.367 Q 154.364 231.367, 152.298 229.027 Q 150.256 226.687, 150.256 222.305 " fill="#000000"/>
<path class="atom-3" d="M 165.717 228.231 L 168.207 228.231 L 168.207 230.72 L 165.717 230.72 L 165.717 228.231 M 165.717 219.666 L 168.207 219.666 L 168.207 222.156 L 165.717 222.156 L 165.717 219.666 " fill="#000000"/>
<path class="atom-3" d="M 180.406 225.094 L 182.522 225.094 L 182.522 227.085 L 180.406 227.085 L 180.406 231.143 L 178.065 231.143 L 178.065 227.085 L 168.953 227.085 L 168.953 225.517 L 176.671 213.517 L 180.406 213.517 L 180.406 225.094 M 171.841 225.094 L 178.065 225.094 L 178.065 215.11 L 171.841 225.094 " fill="#000000"/>
<path class="atom-4" d="M 207.552 313.966 Q 207.552 309.584, 209.594 307.294 Q 211.66 304.979, 215.569 304.979 Q 219.204 304.979, 221.145 307.543 L 219.502 308.887 Q 218.083 307.02, 215.569 307.02 Q 212.905 307.02, 211.486 308.813 Q 210.092 310.58, 210.092 313.966 Q 210.092 317.452, 211.536 319.244 Q 213.004 321.037, 215.843 321.037 Q 217.784 321.037, 220.05 319.866 L 220.747 321.734 Q 219.826 322.331, 218.432 322.68 Q 217.038 323.028, 215.494 323.028 Q 211.66 323.028, 209.594 320.688 Q 207.552 318.348, 207.552 313.966 " fill="#000000"/>
<path class="atom-4" d="M 223.013 319.891 L 225.502 319.891 L 225.502 322.381 L 223.013 322.381 L 223.013 319.891 M 223.013 311.327 L 225.502 311.327 L 225.502 313.817 L 223.013 313.817 L 223.013 311.327 " fill="#000000"/>
<path class="atom-4" d="M 233.046 311.775 Q 234.589 311.775, 235.859 312.447 Q 237.129 313.095, 237.851 314.34 Q 238.573 315.559, 238.573 317.227 Q 238.573 319.045, 237.676 320.364 Q 236.805 321.659, 235.361 322.331 Q 233.917 323.003, 232.274 323.003 Q 230.656 323.003, 229.162 322.406 Q 227.668 321.808, 226.647 320.663 L 228.141 319.12 Q 228.963 320.016, 230.083 320.514 Q 231.203 320.987, 232.349 320.987 Q 233.917 320.987, 234.988 320.016 Q 236.083 319.045, 236.083 317.277 Q 236.083 315.41, 234.988 314.539 Q 233.917 313.642, 232.199 313.642 Q 230.656 313.642, 228.938 314.315 L 227.569 313.667 L 228.415 305.178 L 237.477 305.178 L 237.228 307.169 L 230.457 307.169 L 229.934 312.398 Q 231.502 311.775, 233.046 311.775 " fill="#000000"/>
<path class="atom-5" d="M 369.137 206.895 L 374.913 216.231 Q 375.485 217.152, 376.407 218.82 Q 377.328 220.488, 377.378 220.587 L 377.378 206.895 L 379.718 206.895 L 379.718 224.521 L 377.303 224.521 L 371.104 214.314 Q 370.382 213.119, 369.61 211.749 Q 368.863 210.38, 368.639 209.957 L 368.639 224.521 L 366.349 224.521 L 366.349 206.895 L 369.137 206.895 " fill="#0000FF"/>
<path class="atom-5" d="M 381.585 221.608 L 384.075 221.608 L 384.075 224.098 L 381.585 224.098 L 381.585 221.608 M 381.585 213.044 L 384.075 213.044 L 384.075 215.534 L 381.585 215.534 L 381.585 213.044 " fill="#0000FF"/>
<path class="atom-5" d="M 392.664 213.517 Q 394.207 213.517, 395.427 214.189 Q 396.647 214.861, 397.319 216.081 Q 397.992 217.301, 397.992 218.845 Q 397.992 220.563, 397.22 221.907 Q 396.473 223.226, 395.128 223.973 Q 393.784 224.72, 392.066 224.72 Q 388.929 224.72, 387.336 222.604 Q 385.768 220.463, 385.768 216.231 Q 385.768 211.55, 387.709 209.135 Q 389.676 206.695, 393.436 206.695 Q 394.531 206.695, 395.452 206.944 Q 396.398 207.193, 397.294 207.716 L 396.323 209.384 Q 395.029 208.687, 393.46 208.687 Q 390.971 208.687, 389.701 210.305 Q 388.431 211.899, 388.282 215.21 Q 389.178 214.388, 390.299 213.965 Q 391.444 213.517, 392.664 213.517 M 392.091 222.679 Q 393.037 222.679, 393.809 222.181 Q 394.606 221.683, 395.054 220.812 Q 395.502 219.94, 395.502 218.87 Q 395.502 217.301, 394.631 216.405 Q 393.759 215.509, 392.216 215.509 Q 391.145 215.509, 390.075 215.957 Q 389.029 216.38, 388.282 217.127 Q 388.382 220.04, 389.303 221.359 Q 390.224 222.679, 392.091 222.679 " fill="#0000FF"/>
<path class="atom-6" d="M 322.298 123.997 Q 322.298 119.765, 324.389 117.4 Q 326.48 115.035, 330.389 115.035 Q 334.298 115.035, 336.389 117.4 Q 338.48 119.765, 338.48 123.997 Q 338.48 128.279, 336.364 130.719 Q 334.248 133.134, 330.389 133.134 Q 326.505 133.134, 324.389 130.719 Q 322.298 128.304, 322.298 123.997 M 330.389 131.142 Q 333.078 131.142, 334.522 129.35 Q 335.99 127.533, 335.99 123.997 Q 335.99 120.537, 334.522 118.794 Q 333.078 117.026, 330.389 117.026 Q 327.7 117.026, 326.231 118.769 Q 324.787 120.512, 324.787 123.997 Q 324.787 127.557, 326.231 129.35 Q 327.7 131.142, 330.389 131.142 " fill="#FF0000"/>
<path class="atom-6" d="M 340.347 129.947 L 342.837 129.947 L 342.837 132.437 L 340.347 132.437 L 340.347 129.947 M 340.347 121.383 L 342.837 121.383 L 342.837 123.873 L 340.347 123.873 L 340.347 121.383 " fill="#FF0000"/>
<path class="atom-6" d="M 352.522 117.226 L 343.285 117.226 L 343.285 115.234 L 354.986 115.234 L 354.986 117.001 L 347.866 132.86 L 345.476 132.86 L 352.522 117.226 " fill="#FF0000"/>
<path class="atom-7" d="M 305.245 263.126 L 307.635 263.126 L 307.635 270.62 L 316.647 270.62 L 316.647 263.126 L 319.037 263.126 L 319.037 280.753 L 316.647 280.753 L 316.647 272.612 L 307.635 272.612 L 307.635 280.753 L 305.245 280.753 L 305.245 263.126 " fill="#000000"/>
<path class="atom-7" d="M 320.905 277.84 L 323.394 277.84 L 323.394 280.329 L 320.905 280.329 L 320.905 277.84 M 320.905 269.276 L 323.394 269.276 L 323.394 271.765 L 320.905 271.765 L 320.905 269.276 " fill="#000000"/>
<path class="atom-7" d="M 333.925 271.417 Q 335.544 272.114, 336.465 273.159 Q 337.386 274.18, 337.386 275.923 Q 337.386 277.417, 336.614 278.587 Q 335.842 279.732, 334.448 280.379 Q 333.079 281.002, 331.261 281.002 Q 328.324 281.002, 326.631 279.657 Q 324.938 278.288, 324.938 275.923 Q 324.938 274.479, 325.685 273.408 Q 326.432 272.313, 327.975 271.491 Q 326.83 270.844, 326.208 269.898 Q 325.585 268.927, 325.585 267.433 Q 325.585 265.367, 327.079 264.147 Q 328.598 262.927, 331.162 262.927 Q 333.726 262.927, 335.22 264.147 Q 336.739 265.367, 336.739 267.433 Q 336.739 268.728, 336.017 269.699 Q 335.32 270.645, 333.925 271.417 M 331.162 264.794 Q 329.693 264.794, 328.871 265.491 Q 328.075 266.188, 328.075 267.433 Q 328.075 268.354, 328.622 268.977 Q 329.17 269.574, 329.942 269.923 Q 330.739 270.271, 332.257 270.794 Q 333.328 270.047, 333.776 269.251 Q 334.249 268.454, 334.249 267.433 Q 334.249 266.188, 333.427 265.491 Q 332.631 264.794, 331.162 264.794 M 331.261 279.134 Q 332.905 279.134, 333.9 278.263 Q 334.896 277.367, 334.896 275.898 Q 334.896 274.952, 334.373 274.354 Q 333.851 273.757, 333.054 273.408 Q 332.282 273.06, 330.888 272.612 L 329.768 272.238 Q 328.523 272.985, 327.975 273.881 Q 327.427 274.753, 327.427 275.898 Q 327.427 277.367, 328.473 278.263 Q 329.519 279.134, 331.261 279.134 " fill="#000000"/>
<path class="atom-8" d="M 220.989 157.285 L 223.379 157.285 L 223.379 164.779 L 232.391 164.779 L 232.391 157.285 L 234.781 157.285 L 234.781 174.912 L 232.391 174.912 L 232.391 166.771 L 223.379 166.771 L 223.379 174.912 L 220.989 174.912 L 220.989 157.285 " fill="#000000"/>
<path class="atom-8" d="M 236.648 171.999 L 239.138 171.999 L 239.138 174.489 L 236.648 174.489 L 236.648 171.999 M 236.648 163.435 L 239.138 163.435 L 239.138 165.924 L 236.648 165.924 L 236.648 163.435 " fill="#000000"/>
<path class="atom-8" d="M 246.432 157.086 Q 249.569 157.086, 251.138 159.227 Q 252.731 161.343, 252.731 165.576 Q 252.731 170.256, 250.764 172.696 Q 248.822 175.111, 245.063 175.111 Q 243.968 175.111, 243.022 174.862 Q 242.1 174.613, 241.204 174.09 L 242.175 172.422 Q 243.47 173.119, 245.038 173.119 Q 247.528 173.119, 248.798 171.526 Q 250.067 169.908, 250.217 166.597 Q 249.32 167.418, 248.175 167.866 Q 247.055 168.29, 245.835 168.29 Q 244.291 168.29, 243.071 167.617 Q 241.852 166.945, 241.179 165.725 Q 240.507 164.505, 240.507 162.962 Q 240.507 161.244, 241.254 159.924 Q 242.026 158.58, 243.37 157.833 Q 244.715 157.086, 246.432 157.086 M 242.997 162.937 Q 242.997 164.505, 243.868 165.402 Q 244.739 166.298, 246.283 166.298 Q 247.354 166.298, 248.399 165.875 Q 249.47 165.426, 250.217 164.68 Q 250.117 161.767, 249.196 160.447 Q 248.275 159.128, 246.408 159.128 Q 245.461 159.128, 244.665 159.626 Q 243.893 160.124, 243.445 160.995 Q 242.997 161.866, 242.997 162.937 " fill="#000000"/>
<path class="atom-9" d="M 89.3881 192.855 Q 89.3881 188.474, 91.4296 186.183 Q 93.496 183.868, 97.4047 183.868 Q 101.04 183.868, 102.981 186.432 L 101.338 187.777 Q 99.9192 185.909, 97.4047 185.909 Q 94.7408 185.909, 93.3217 187.702 Q 91.9275 189.47, 91.9275 192.855 Q 91.9275 196.341, 93.3715 198.133 Q 94.8404 199.926, 97.6785 199.926 Q 99.6204 199.926, 101.886 198.756 L 102.583 200.623 Q 101.662 201.221, 100.268 201.569 Q 98.8735 201.918, 97.33 201.918 Q 93.496 201.918, 91.4296 199.577 Q 89.3881 197.237, 89.3881 192.855 " fill="#000000"/>
<path class="atom-9" d="M 104.849 198.781 L 107.338 198.781 L 107.338 201.27 L 104.849 201.27 L 104.849 198.781 M 104.849 190.216 L 107.338 190.216 L 107.338 192.706 L 104.849 192.706 L 104.849 190.216 " fill="#000000"/>
<path class="atom-9" d="M 109.654 199.702 L 113.512 199.702 L 113.512 186.532 L 109.255 187.851 L 108.683 186.382 L 114.085 183.968 L 115.853 184.266 L 115.853 199.702 L 119.313 199.702 L 119.313 201.694 L 109.654 201.694 L 109.654 199.702 " fill="#000000"/>
<path class="atom-9" d="M 127.28 201.893 Q 124.044 201.893, 122.425 199.503 Q 120.832 197.113, 120.832 192.855 Q 120.832 188.598, 122.425 186.233 Q 124.019 183.868, 127.28 183.868 Q 130.541 183.868, 132.135 186.233 Q 133.728 188.598, 133.728 192.855 Q 133.728 197.113, 132.11 199.503 Q 130.517 201.893, 127.28 201.893 M 127.28 199.901 Q 129.197 199.901, 130.218 198.133 Q 131.238 196.341, 131.238 192.855 Q 131.238 189.395, 130.218 187.627 Q 129.197 185.86, 127.28 185.86 Q 125.388 185.86, 124.342 187.627 Q 123.322 189.395, 123.322 192.855 Q 123.322 196.341, 124.342 198.133 Q 125.388 199.901, 127.28 199.901 " fill="#000000"/>
<path class="atom-10" d="M 105.394 268.299 L 107.784 268.299 L 107.784 275.793 L 116.796 275.793 L 116.796 268.299 L 119.186 268.299 L 119.186 285.926 L 116.796 285.926 L 116.796 277.785 L 107.784 277.785 L 107.784 285.926 L 105.394 285.926 L 105.394 268.299 " fill="#000000"/>
<path class="atom-10" d="M 121.054 283.013 L 123.543 283.013 L 123.543 285.502 L 121.054 285.502 L 121.054 283.013 M 121.054 274.449 L 123.543 274.449 L 123.543 276.938 L 121.054 276.938 L 121.054 274.449 " fill="#000000"/>
<path class="atom-10" d="M 125.858 283.934 L 129.717 283.934 L 129.717 270.764 L 125.46 272.083 L 124.888 270.615 L 130.29 268.2 L 132.058 268.498 L 132.058 283.934 L 135.518 283.934 L 135.518 285.926 L 125.858 285.926 L 125.858 283.934 " fill="#000000"/>
<path class="atom-10" d="M 137.833 283.934 L 141.692 283.934 L 141.692 270.764 L 137.435 272.083 L 136.863 270.615 L 142.265 268.2 L 144.033 268.498 L 144.033 283.934 L 147.493 283.934 L 147.493 285.926 L 137.833 285.926 L 137.833 283.934 " fill="#000000"/>
<path class="atom-11" d="M 194.181 158.685 L 196.571 158.685 L 196.571 166.179 L 205.584 166.179 L 205.584 158.685 L 207.974 158.685 L 207.974 176.311 L 205.584 176.311 L 205.584 168.17 L 196.571 168.17 L 196.571 176.311 L 194.181 176.311 L 194.181 158.685 " fill="#000000"/>
<path class="atom-11" d="M 209.841 173.398 L 212.331 173.398 L 212.331 175.888 L 209.841 175.888 L 209.841 173.398 M 209.841 164.834 L 212.331 164.834 L 212.331 167.324 L 209.841 167.324 L 209.841 164.834 " fill="#000000"/>
<path class="atom-11" d="M 214.646 174.32 L 218.505 174.32 L 218.505 161.15 L 214.248 162.469 L 213.675 161 L 219.077 158.585 L 220.845 158.884 L 220.845 174.32 L 224.306 174.32 L 224.306 176.311 L 214.646 176.311 L 214.646 174.32 " fill="#000000"/>
<path class="atom-11" d="M 225.6 162.021 Q 226.248 160.353, 227.791 159.432 Q 229.335 158.486, 231.476 158.486 Q 234.14 158.486, 235.633 159.93 Q 237.127 161.374, 237.127 163.938 Q 237.127 166.552, 235.185 168.992 Q 233.268 171.432, 229.285 174.32 L 237.426 174.32 L 237.426 176.311 L 225.55 176.311 L 225.55 174.643 Q 228.837 172.303, 230.779 170.56 Q 232.745 168.818, 233.692 167.249 Q 234.638 165.681, 234.638 164.062 Q 234.638 162.37, 233.791 161.423 Q 232.945 160.477, 231.476 160.477 Q 230.057 160.477, 229.111 161.05 Q 228.165 161.623, 227.492 162.892 L 225.6 162.021 " fill="#000000"/>
<path class="atom-12" d="M 129.065 307.089 L 131.455 307.089 L 131.455 314.583 L 140.468 314.583 L 140.468 307.089 L 142.858 307.089 L 142.858 324.716 L 140.468 324.716 L 140.468 316.575 L 131.455 316.575 L 131.455 324.716 L 129.065 324.716 L 129.065 307.089 " fill="#000000"/>
<path class="atom-12" d="M 144.725 321.803 L 147.215 321.803 L 147.215 324.293 L 144.725 324.293 L 144.725 321.803 M 144.725 313.239 L 147.215 313.239 L 147.215 315.728 L 144.725 315.728 L 144.725 313.239 " fill="#000000"/>
<path class="atom-12" d="M 149.53 322.724 L 153.389 322.724 L 153.389 309.554 L 149.132 310.874 L 148.559 309.405 L 153.962 306.99 L 155.729 307.289 L 155.729 322.724 L 159.19 322.724 L 159.19 324.716 L 149.53 324.716 L 149.53 322.724 " fill="#000000"/>
<path class="atom-12" d="M 168.7 315.43 Q 170.418 315.928, 171.239 317.048 Q 172.086 318.143, 172.086 319.886 Q 172.086 321.38, 171.339 322.55 Q 170.592 323.695, 169.223 324.342 Q 167.854 324.965, 166.061 324.965 Q 164.169 324.965, 162.75 324.318 Q 161.356 323.645, 160.235 322.301 L 161.654 320.857 Q 162.75 322.052, 163.671 322.525 Q 164.592 322.973, 166.061 322.973 Q 167.654 322.973, 168.625 322.127 Q 169.596 321.255, 169.596 319.861 Q 169.596 318.069, 168.576 317.272 Q 167.58 316.45, 165.414 316.45 L 164.144 316.45 L 164.144 314.658 L 165.264 314.658 Q 167.181 314.633, 168.202 313.811 Q 169.223 312.965, 169.223 311.397 Q 169.223 310.251, 168.376 309.579 Q 167.53 308.882, 166.086 308.882 Q 164.617 308.882, 163.696 309.405 Q 162.8 309.928, 162.103 311.247 L 160.385 310.326 Q 161.007 308.857, 162.501 307.886 Q 163.995 306.89, 166.086 306.89 Q 168.675 306.89, 170.194 308.11 Q 171.712 309.33, 171.712 311.397 Q 171.712 312.816, 170.941 313.836 Q 170.169 314.857, 168.7 315.43 " fill="#000000"/>
<path class="atom-13" d="M 283.686 303.216 L 286.076 303.216 L 286.076 310.71 L 295.089 310.71 L 295.089 303.216 L 297.479 303.216 L 297.479 320.843 L 295.089 320.843 L 295.089 312.702 L 286.076 312.702 L 286.076 320.843 L 283.686 320.843 L 283.686 303.216 " fill="#000000"/>
<path class="atom-13" d="M 299.346 317.93 L 301.835 317.93 L 301.835 320.419 L 299.346 320.419 L 299.346 317.93 M 299.346 309.366 L 301.835 309.366 L 301.835 311.855 L 299.346 311.855 L 299.346 309.366 " fill="#000000"/>
<path class="atom-13" d="M 304.151 318.851 L 308.01 318.851 L 308.01 305.681 L 303.752 307 L 303.18 305.532 L 308.582 303.117 L 310.35 303.415 L 310.35 318.851 L 313.811 318.851 L 313.811 320.843 L 304.151 320.843 L 304.151 318.851 " fill="#000000"/>
<path class="atom-13" d="M 326.01 314.793 L 328.126 314.793 L 328.126 316.785 L 326.01 316.785 L 326.01 320.843 L 323.669 320.843 L 323.669 316.785 L 314.557 316.785 L 314.557 315.216 L 322.275 303.216 L 326.01 303.216 L 326.01 314.793 M 317.445 314.793 L 323.669 314.793 L 323.669 304.81 L 317.445 314.793 " fill="#000000"/>
<path class="atom-14" d="M 139.349 129.185 L 141.739 129.185 L 141.739 136.679 L 150.752 136.679 L 150.752 129.185 L 153.142 129.185 L 153.142 146.812 L 150.752 146.812 L 150.752 138.671 L 141.739 138.671 L 141.739 146.812 L 139.349 146.812 L 139.349 129.185 " fill="#000000"/>
<path class="atom-14" d="M 155.009 143.899 L 157.499 143.899 L 157.499 146.388 L 155.009 146.388 L 155.009 143.899 M 155.009 135.335 L 157.499 135.335 L 157.499 137.824 L 155.009 137.824 L 155.009 135.335 " fill="#000000"/>
<path class="atom-14" d="M 159.814 144.82 L 163.673 144.82 L 163.673 131.65 L 159.416 132.969 L 158.843 131.501 L 164.245 129.086 L 166.013 129.384 L 166.013 144.82 L 169.474 144.82 L 169.474 146.812 L 159.814 146.812 L 159.814 144.82 " fill="#000000"/>
<path class="atom-14" d="M 177.017 135.783 Q 178.561 135.783, 179.83 136.455 Q 181.1 137.102, 181.822 138.347 Q 182.544 139.567, 182.544 141.235 Q 182.544 143.052, 181.648 144.372 Q 180.776 145.666, 179.332 146.339 Q 177.888 147.011, 176.245 147.011 Q 174.627 147.011, 173.133 146.413 Q 171.64 145.816, 170.619 144.671 L 172.113 143.127 Q 172.934 144.023, 174.054 144.521 Q 175.175 144.994, 176.32 144.994 Q 177.888 144.994, 178.959 144.023 Q 180.054 143.052, 180.054 141.285 Q 180.054 139.418, 178.959 138.546 Q 177.888 137.65, 176.171 137.65 Q 174.627 137.65, 172.909 138.322 L 171.54 137.675 L 172.386 129.185 L 181.449 129.185 L 181.2 131.177 L 174.428 131.177 L 173.905 136.405 Q 175.474 135.783, 177.017 135.783 " fill="#000000"/>
<path class="atom-15" d="M 49.4165 238.899 L 51.8066 238.899 L 51.8066 246.393 L 60.819 246.393 L 60.819 238.899 L 63.209 238.899 L 63.209 256.526 L 60.819 256.526 L 60.819 248.385 L 51.8066 248.385 L 51.8066 256.526 L 49.4165 256.526 L 49.4165 238.899 " fill="#000000"/>
<path class="atom-15" d="M 65.0762 253.613 L 67.5658 253.613 L 67.5658 256.102 L 65.0762 256.102 L 65.0762 253.613 M 65.0762 245.049 L 67.5658 245.049 L 67.5658 247.538 L 65.0762 247.538 L 65.0762 245.049 " fill="#000000"/>
<path class="atom-15" d="M 69.8811 254.534 L 73.74 254.534 L 73.74 241.364 L 69.4828 242.683 L 68.9102 241.215 L 74.3127 238.8 L 76.0803 239.098 L 76.0803 254.534 L 79.5408 254.534 L 79.5408 256.526 L 69.8811 256.526 L 69.8811 254.534 " fill="#000000"/>
<path class="atom-15" d="M 88.13 245.522 Q 89.6736 245.522, 90.8935 246.194 Q 92.1134 246.866, 92.7856 248.086 Q 93.4578 249.306, 93.4578 250.849 Q 93.4578 252.567, 92.686 253.912 Q 91.9391 255.231, 90.5947 255.978 Q 89.2503 256.725, 87.5325 256.725 Q 84.3956 256.725, 82.8022 254.609 Q 81.2338 252.468, 81.2338 248.235 Q 81.2338 243.555, 83.1757 241.14 Q 85.1425 238.7, 88.9018 238.7 Q 89.9972 238.7, 90.9184 238.949 Q 91.8644 239.198, 92.7607 239.721 L 91.7897 241.389 Q 90.4951 240.692, 88.9267 240.692 Q 86.4371 240.692, 85.1674 242.31 Q 83.8977 243.903, 83.7483 247.215 Q 84.6445 246.393, 85.7649 245.97 Q 86.9101 245.522, 88.13 245.522 M 87.5574 254.683 Q 88.5034 254.683, 89.2752 254.185 Q 90.0719 253.687, 90.52 252.816 Q 90.9682 251.945, 90.9682 250.874 Q 90.9682 249.306, 90.0968 248.41 Q 89.2254 247.513, 87.6819 247.513 Q 86.6113 247.513, 85.5408 247.961 Q 84.4952 248.385, 83.7483 249.132 Q 83.8479 252.044, 84.769 253.364 Q 85.6902 254.683, 87.5574 254.683 " fill="#000000"/>
<path class="atom-16" d="M 223.387 367.339 L 225.777 367.339 L 225.777 374.833 L 234.789 374.833 L 234.789 367.339 L 237.179 367.339 L 237.179 384.965 L 234.789 384.965 L 234.789 376.824 L 225.777 376.824 L 225.777 384.965 L 223.387 384.965 L 223.387 367.339 " fill="#000000"/>
<path class="atom-16" d="M 239.047 382.052 L 241.536 382.052 L 241.536 384.542 L 239.047 384.542 L 239.047 382.052 M 239.047 373.488 L 241.536 373.488 L 241.536 375.978 L 239.047 375.978 L 239.047 373.488 " fill="#000000"/>
<path class="atom-16" d="M 243.852 382.974 L 247.711 382.974 L 247.711 369.804 L 243.453 371.123 L 242.881 369.654 L 248.283 367.239 L 250.051 367.538 L 250.051 382.974 L 253.511 382.974 L 253.511 384.965 L 243.852 384.965 L 243.852 382.974 " fill="#000000"/>
<path class="atom-16" d="M 263.196 369.331 L 253.959 369.331 L 253.959 367.339 L 265.661 367.339 L 265.661 369.107 L 258.54 384.965 L 256.15 384.965 L 263.196 369.331 " fill="#000000"/>
<path class="atom-17" d="M 433.157 174.134 L 435.547 174.134 L 435.547 181.627 L 444.559 181.627 L 444.559 174.134 L 446.949 174.134 L 446.949 191.76 L 444.559 191.76 L 444.559 183.619 L 435.547 183.619 L 435.547 191.76 L 433.157 191.76 L 433.157 174.134 " fill="#000000"/>
<path class="atom-17" d="M 448.816 188.847 L 451.306 188.847 L 451.306 191.337 L 448.816 191.337 L 448.816 188.847 M 448.816 180.283 L 451.306 180.283 L 451.306 182.773 L 448.816 182.773 L 448.816 180.283 " fill="#000000"/>
<path class="atom-17" d="M 453.621 189.768 L 457.48 189.768 L 457.48 176.598 L 453.223 177.918 L 452.65 176.449 L 458.053 174.034 L 459.821 174.333 L 459.821 189.768 L 463.281 189.768 L 463.281 191.76 L 453.621 191.76 L 453.621 189.768 " fill="#000000"/>
<path class="atom-17" d="M 473.812 182.424 Q 475.43 183.121, 476.352 184.167 Q 477.273 185.187, 477.273 186.93 Q 477.273 188.424, 476.501 189.594 Q 475.729 190.739, 474.335 191.387 Q 472.966 192.009, 471.148 192.009 Q 468.211 192.009, 466.518 190.665 Q 464.825 189.295, 464.825 186.93 Q 464.825 185.486, 465.572 184.416 Q 466.318 183.32, 467.862 182.499 Q 466.717 181.851, 466.094 180.905 Q 465.472 179.934, 465.472 178.441 Q 465.472 176.374, 466.966 175.154 Q 468.484 173.934, 471.049 173.934 Q 473.613 173.934, 475.107 175.154 Q 476.625 176.374, 476.625 178.441 Q 476.625 179.735, 475.903 180.706 Q 475.206 181.652, 473.812 182.424 M 471.049 175.802 Q 469.58 175.802, 468.758 176.499 Q 467.962 177.196, 467.962 178.441 Q 467.962 179.362, 468.509 179.984 Q 469.057 180.582, 469.829 180.93 Q 470.625 181.279, 472.144 181.802 Q 473.215 181.055, 473.663 180.258 Q 474.136 179.461, 474.136 178.441 Q 474.136 177.196, 473.314 176.499 Q 472.518 175.802, 471.049 175.802 M 471.148 190.142 Q 472.791 190.142, 473.787 189.27 Q 474.783 188.374, 474.783 186.905 Q 474.783 185.959, 474.26 185.362 Q 473.737 184.764, 472.941 184.416 Q 472.169 184.067, 470.775 183.619 L 469.655 183.246 Q 468.41 183.992, 467.862 184.889 Q 467.314 185.76, 467.314 186.905 Q 467.314 188.374, 468.36 189.27 Q 469.406 190.142, 471.148 190.142 " fill="#000000"/>
<path class="atom-18" d="M 382.148 269.106 L 384.538 269.106 L 384.538 276.599 L 393.551 276.599 L 393.551 269.106 L 395.941 269.106 L 395.941 286.732 L 393.551 286.732 L 393.551 278.591 L 384.538 278.591 L 384.538 286.732 L 382.148 286.732 L 382.148 269.106 " fill="#000000"/>
<path class="atom-18" d="M 397.808 283.819 L 400.297 283.819 L 400.297 286.309 L 397.808 286.309 L 397.808 283.819 M 397.808 275.255 L 400.297 275.255 L 400.297 277.744 L 397.808 277.744 L 397.808 275.255 " fill="#000000"/>
<path class="atom-18" d="M 402.613 284.74 L 406.472 284.74 L 406.472 271.57 L 402.214 272.89 L 401.642 271.421 L 407.044 269.006 L 408.812 269.305 L 408.812 284.74 L 412.272 284.74 L 412.272 286.732 L 402.613 286.732 L 402.613 284.74 " fill="#000000"/>
<path class="atom-18" d="M 419.567 268.906 Q 422.704 268.906, 424.272 271.047 Q 425.866 273.164, 425.866 277.396 Q 425.866 282.076, 423.899 284.516 Q 421.957 286.931, 418.198 286.931 Q 417.102 286.931, 416.156 286.682 Q 415.235 286.433, 414.339 285.91 L 415.31 284.242 Q 416.604 284.939, 418.173 284.939 Q 420.662 284.939, 421.932 283.346 Q 423.202 281.728, 423.351 278.417 Q 422.455 279.238, 421.31 279.686 Q 420.189 280.11, 418.97 280.11 Q 417.426 280.11, 416.206 279.437 Q 414.986 278.765, 414.314 277.545 Q 413.642 276.325, 413.642 274.782 Q 413.642 273.064, 414.389 271.745 Q 415.16 270.4, 416.505 269.653 Q 417.849 268.906, 419.567 268.906 M 416.131 274.757 Q 416.131 276.325, 417.003 277.222 Q 417.874 278.118, 419.418 278.118 Q 420.488 278.118, 421.534 277.695 Q 422.604 277.247, 423.351 276.5 Q 423.252 273.587, 422.33 272.267 Q 421.409 270.948, 419.542 270.948 Q 418.596 270.948, 417.799 271.446 Q 417.028 271.944, 416.579 272.815 Q 416.131 273.686, 416.131 274.757 " fill="#000000"/>
<path class="atom-19" d="M 22.7273 154.617 L 25.1173 154.617 L 25.1173 162.111 L 34.1297 162.111 L 34.1297 154.617 L 36.5197 154.617 L 36.5197 172.244 L 34.1297 172.244 L 34.1297 164.103 L 25.1173 164.103 L 25.1173 172.244 L 22.7273 172.244 L 22.7273 154.617 " fill="#000000"/>
<path class="atom-19" d="M 38.3869 169.331 L 40.8765 169.331 L 40.8765 171.82 L 38.3869 171.82 L 38.3869 169.331 M 38.3869 160.767 L 40.8765 160.767 L 40.8765 163.256 L 38.3869 163.256 L 38.3869 160.767 " fill="#000000"/>
<path class="atom-19" d="M 42.1711 157.953 Q 42.8184 156.285, 44.362 155.364 Q 45.9056 154.418, 48.0466 154.418 Q 50.7105 154.418, 52.2043 155.862 Q 53.698 157.306, 53.698 159.87 Q 53.698 162.484, 51.7561 164.924 Q 49.8391 167.364, 45.8558 170.252 L 53.9968 170.252 L 53.9968 172.244 L 42.1213 172.244 L 42.1213 170.576 Q 45.4076 168.235, 47.3495 166.493 Q 49.3163 164.75, 50.2624 163.182 Q 51.2084 161.613, 51.2084 159.995 Q 51.2084 158.302, 50.362 157.356 Q 49.5155 156.41, 48.0466 156.41 Q 46.6275 156.41, 45.6815 156.982 Q 44.7354 157.555, 44.0632 158.825 L 42.1711 157.953 " fill="#000000"/>
<path class="atom-19" d="M 61.9635 172.443 Q 58.7271 172.443, 57.1088 170.053 Q 55.5155 167.663, 55.5155 163.406 Q 55.5155 159.148, 57.1088 156.783 Q 58.7022 154.418, 61.9635 154.418 Q 65.2249 154.418, 66.8183 156.783 Q 68.4116 159.148, 68.4116 163.406 Q 68.4116 167.663, 66.7934 170.053 Q 65.2 172.443, 61.9635 172.443 M 61.9635 170.451 Q 63.8805 170.451, 64.9013 168.684 Q 65.922 166.891, 65.922 163.406 Q 65.922 159.945, 64.9013 158.177 Q 63.8805 156.41, 61.9635 156.41 Q 60.0714 156.41, 59.0258 158.177 Q 58.0051 159.945, 58.0051 163.406 Q 58.0051 166.891, 59.0258 168.684 Q 60.0714 170.451, 61.9635 170.451 " fill="#000000"/>
<text x="252.9200061525339" y="235.2999633883959" font-size="12" font-family="Verdana" font-weight="bold" letter-spacing="0" text-anchor="start" fill="black" transform=" rotate(58.239880 252.920006 235.299963)">0.0233</text><text x="25" y="490" font-size="12" font-family="Verdana" font-weight="bold" letter-spacing="0" text-anchor="start" fill="black">[#6:1](-[#6:2](-[#7:3](-[#6:4](-[#6:10](-[H:15])(-[H:16])-[H:20])(-[H:11])-[H:12])-[#6:5](-[H:13])(-[H:14])-[H:17])(-[H:8])-[H:9])(-[#7:6](-[H:18])-[H:19])=[#8:7]</text></svg>
