<?xml version='1.0' encoding='ASCII' standalone='yes'?>
<svg xmlns="http://www.w3.org/2000/svg" xmlns:rdkit="http://www.rdkit.org/xml" xmlns:xlink="http://www.w3.org/1999/xlink" version="1.1" baseProfile="full" xml:space="preserve" width="500px" height="500px" viewBox="0 0 500 500">
<!-- END OF HEADER -->
<rect style="opacity:1.0;fill:#FFFFFF;stroke:none" width="500" height="500" x="0" y="0"> </rect>
<path d="M 225.609,312.349 L 280.844,283.045" style="fill:none;fill-rule:evenodd;stroke:#FF7F7F;stroke-width:13.3px;stroke-linecap:butt;stroke-linejoin:miter;stroke-opacity:1"/>
<path class="bond-0 atom-0 atom-1" d="M 181.561,335.719 L 205.959,322.775" style="fill:none;fill-rule:evenodd;stroke:#000000;stroke-width:2.0px;stroke-linecap:butt;stroke-linejoin:miter;stroke-opacity:1"/>
<path class="bond-1 atom-0 atom-8" d="M 163.749,351.947 L 163.002,372.805" style="fill:none;fill-rule:evenodd;stroke:#000000;stroke-width:2.0px;stroke-linecap:butt;stroke-linejoin:miter;stroke-opacity:1"/>
<path class="bond-1 atom-0 atom-8" d="M 163.002,372.805 L 162.255,393.663" style="fill:none;fill-rule:evenodd;stroke:#FF0000;stroke-width:2.0px;stroke-linecap:butt;stroke-linejoin:miter;stroke-opacity:1"/>
<path class="bond-1 atom-0 atom-8" d="M 176.247,352.395 L 175.499,373.253" style="fill:none;fill-rule:evenodd;stroke:#000000;stroke-width:2.0px;stroke-linecap:butt;stroke-linejoin:miter;stroke-opacity:1"/>
<path class="bond-1 atom-0 atom-8" d="M 175.499,373.253 L 174.752,394.111" style="fill:none;fill-rule:evenodd;stroke:#FF0000;stroke-width:2.0px;stroke-linecap:butt;stroke-linejoin:miter;stroke-opacity:1"/>
<path class="bond-13 atom-7 atom-0" d="M 129.882,316.301 L 142.024,323.903" style="fill:none;fill-rule:evenodd;stroke:#0000FF;stroke-width:2.0px;stroke-linecap:butt;stroke-linejoin:miter;stroke-opacity:1"/>
<path class="bond-13 atom-7 atom-0" d="M 142.024,323.903 L 154.167,331.506" style="fill:none;fill-rule:evenodd;stroke:#000000;stroke-width:2.0px;stroke-linecap:butt;stroke-linejoin:miter;stroke-opacity:1"/>
<path class="bond-2 atom-1 atom-5" d="M 222.402,306.303 L 201.9,267.661" style="fill:none;fill-rule:evenodd;stroke:#000000;stroke-width:2.0px;stroke-linecap:butt;stroke-linejoin:miter;stroke-opacity:1"/>
<path class="bond-3 atom-1 atom-6" d="M 231.189,322.866 L 249.545,357.464" style="fill:none;fill-rule:evenodd;stroke:#000000;stroke-width:2.0px;stroke-linecap:butt;stroke-linejoin:miter;stroke-opacity:1"/>
<path class="bond-4 atom-2 atom-1" d="M 261.021,293.562 L 248.959,299.961" style="fill:none;fill-rule:evenodd;stroke:#0000FF;stroke-width:2.0px;stroke-linecap:butt;stroke-linejoin:miter;stroke-opacity:1"/>
<path class="bond-4 atom-2 atom-1" d="M 248.959,299.961 L 236.897,306.361" style="fill:none;fill-rule:evenodd;stroke:#000000;stroke-width:2.0px;stroke-linecap:butt;stroke-linejoin:miter;stroke-opacity:1"/>
<path class="bond-5 atom-2 atom-3" d="M 281.221,272.528 L 281.968,251.67" style="fill:none;fill-rule:evenodd;stroke:#0000FF;stroke-width:2.0px;stroke-linecap:butt;stroke-linejoin:miter;stroke-opacity:1"/>
<path class="bond-5 atom-2 atom-3" d="M 281.968,251.67 L 282.715,230.812" style="fill:none;fill-rule:evenodd;stroke:#000000;stroke-width:2.0px;stroke-linecap:butt;stroke-linejoin:miter;stroke-opacity:1"/>
<path class="bond-6 atom-2 atom-4" d="M 292.663,290.445 L 305.131,298.252" style="fill:none;fill-rule:evenodd;stroke:#0000FF;stroke-width:2.0px;stroke-linecap:butt;stroke-linejoin:miter;stroke-opacity:1"/>
<path class="bond-6 atom-2 atom-4" d="M 305.131,298.252 L 317.6,306.058" style="fill:none;fill-rule:evenodd;stroke:#000000;stroke-width:2.0px;stroke-linecap:butt;stroke-linejoin:miter;stroke-opacity:1"/>
<path class="bond-7 atom-3 atom-9" d="M 283.452,210.241 L 284.953,168.33" style="fill:none;fill-rule:evenodd;stroke:#000000;stroke-width:2.0px;stroke-linecap:butt;stroke-linejoin:miter;stroke-opacity:1"/>
<path class="bond-8 atom-3 atom-10" d="M 295.59,221.006 L 337.391,222.503" style="fill:none;fill-rule:evenodd;stroke:#000000;stroke-width:2.0px;stroke-linecap:butt;stroke-linejoin:miter;stroke-opacity:1"/>
<path class="bond-9 atom-3 atom-11" d="M 260.049,219.733 L 227.548,218.568" style="fill:none;fill-rule:evenodd;stroke:#000000;stroke-width:2.0px;stroke-linecap:butt;stroke-linejoin:miter;stroke-opacity:1"/>
<path class="bond-10 atom-4 atom-12" d="M 345.651,323.622 L 370.595,339.24" style="fill:none;fill-rule:evenodd;stroke:#000000;stroke-width:2.0px;stroke-linecap:butt;stroke-linejoin:miter;stroke-opacity:1"/>
<path class="bond-11 atom-4 atom-13" d="M 340.299,305.91 L 360.659,273.393" style="fill:none;fill-rule:evenodd;stroke:#000000;stroke-width:2.0px;stroke-linecap:butt;stroke-linejoin:miter;stroke-opacity:1"/>
<path class="bond-12 atom-4 atom-14" d="M 327.114,326.969 L 306.95,359.172" style="fill:none;fill-rule:evenodd;stroke:#000000;stroke-width:2.0px;stroke-linecap:butt;stroke-linejoin:miter;stroke-opacity:1"/>
<path class="bond-14 atom-7 atom-19" d="M 97.556,318.989 L 83.5901,326.399" style="fill:none;fill-rule:evenodd;stroke:#0000FF;stroke-width:2.0px;stroke-linecap:butt;stroke-linejoin:miter;stroke-opacity:1"/>
<path class="bond-14 atom-7 atom-19" d="M 83.5901,326.399 L 69.6242,333.808" style="fill:none;fill-rule:evenodd;stroke:#000000;stroke-width:2.0px;stroke-linecap:butt;stroke-linejoin:miter;stroke-opacity:1"/>
<path class="bond-15 atom-7 atom-20" d="M 117.756,297.955 L 118.503,277.097" style="fill:none;fill-rule:evenodd;stroke:#0000FF;stroke-width:2.0px;stroke-linecap:butt;stroke-linejoin:miter;stroke-opacity:1"/>
<path class="bond-15 atom-7 atom-20" d="M 118.503,277.097 L 119.25,256.239" style="fill:none;fill-rule:evenodd;stroke:#000000;stroke-width:2.0px;stroke-linecap:butt;stroke-linejoin:miter;stroke-opacity:1"/>
<path class="bond-16 atom-9 atom-15" d="M 256.224,157.028 L 229.809,156.082" style="fill:none;fill-rule:evenodd;stroke:#000000;stroke-width:2.0px;stroke-linecap:butt;stroke-linejoin:miter;stroke-opacity:1"/>
<path class="bond-17 atom-9 atom-16" d="M 303.895,158.736 L 339.781,160.022" style="fill:none;fill-rule:evenodd;stroke:#000000;stroke-width:2.0px;stroke-linecap:butt;stroke-linejoin:miter;stroke-opacity:1"/>
<path class="bond-18 atom-9 atom-21" d="M 285.694,147.654 L 287.192,105.84" style="fill:none;fill-rule:evenodd;stroke:#000000;stroke-width:2.0px;stroke-linecap:butt;stroke-linejoin:miter;stroke-opacity:1"/>
<path class="bond-19 atom-12 atom-17" d="M 380.251,359.926 L 360.044,392.198" style="fill:none;fill-rule:evenodd;stroke:#000000;stroke-width:2.0px;stroke-linecap:butt;stroke-linejoin:miter;stroke-opacity:1"/>
<path class="bond-20 atom-12 atom-18" d="M 393.421,338.892 L 413.627,306.62" style="fill:none;fill-rule:evenodd;stroke:#000000;stroke-width:2.0px;stroke-linecap:butt;stroke-linejoin:miter;stroke-opacity:1"/>
<path class="bond-21 atom-12 atom-22" d="M 404.032,360.176 L 431.848,377.592" style="fill:none;fill-rule:evenodd;stroke:#000000;stroke-width:2.0px;stroke-linecap:butt;stroke-linejoin:miter;stroke-opacity:1"/>
<path class="atom-0" d="M 149.935 341.729 Q 149.935 337.327, 151.986 335.026 Q 154.061 332.7, 157.988 332.7 Q 161.64 332.7, 163.591 335.276 L 161.94 336.627 Q 160.514 334.751, 157.988 334.751 Q 155.312 334.751, 153.886 336.552 Q 152.486 338.328, 152.486 341.729 Q 152.486 345.231, 153.936 347.031 Q 155.412 348.832, 158.263 348.832 Q 160.214 348.832, 162.49 347.657 L 163.19 349.532 Q 162.265 350.133, 160.864 350.483 Q 159.464 350.833, 157.913 350.833 Q 154.061 350.833, 151.986 348.482 Q 149.935 346.131, 149.935 341.729 " fill="#000000"/>
<path class="atom-0" d="M 165.466 347.682 L 167.967 347.682 L 167.967 350.183 L 165.466 350.183 L 165.466 347.682 M 165.466 339.078 L 167.967 339.078 L 167.967 341.579 L 165.466 341.579 L 165.466 339.078 " fill="#000000"/>
<path class="atom-0" d="M 170.293 348.607 L 174.17 348.607 L 174.17 335.376 L 169.893 336.702 L 169.318 335.226 L 174.745 332.8 L 176.521 333.1 L 176.521 348.607 L 179.998 348.607 L 179.998 350.608 L 170.293 350.608 L 170.293 348.607 " fill="#000000"/>
<path class="atom-1" d="M 204.681 312.424 Q 204.681 308.022, 206.732 305.721 Q 208.808 303.395, 212.735 303.395 Q 216.387 303.395, 218.337 305.972 L 216.687 307.322 Q 215.261 305.446, 212.735 305.446 Q 210.059 305.446, 208.633 307.247 Q 207.233 309.023, 207.233 312.424 Q 207.233 315.926, 208.683 317.727 Q 210.159 319.527, 213.01 319.527 Q 214.961 319.527, 217.237 318.352 L 217.937 320.228 Q 217.012 320.828, 215.611 321.178 Q 214.211 321.528, 212.66 321.528 Q 208.808 321.528, 206.732 319.177 Q 204.681 316.826, 204.681 312.424 " fill="#000000"/>
<path class="atom-1" d="M 220.213 318.377 L 222.714 318.377 L 222.714 320.878 L 220.213 320.878 L 220.213 318.377 M 220.213 309.773 L 222.714 309.773 L 222.714 312.274 L 220.213 312.274 L 220.213 309.773 " fill="#000000"/>
<path class="atom-1" d="M 224.015 306.947 Q 224.665 305.271, 226.216 304.346 Q 227.766 303.395, 229.917 303.395 Q 232.594 303.395, 234.094 304.846 Q 235.595 306.297, 235.595 308.873 Q 235.595 311.499, 233.644 313.95 Q 231.718 316.401, 227.716 319.302 L 235.895 319.302 L 235.895 321.303 L 223.965 321.303 L 223.965 319.627 Q 227.266 317.276, 229.217 315.526 Q 231.193 313.775, 232.143 312.199 Q 233.094 310.624, 233.094 308.998 Q 233.094 307.297, 232.243 306.347 Q 231.393 305.396, 229.917 305.396 Q 228.492 305.396, 227.541 305.972 Q 226.591 306.547, 225.916 307.822 L 224.015 306.947 " fill="#000000"/>
<path class="atom-2" d="M 263.138 274.291 L 268.941 283.67 Q 269.516 284.595, 270.441 286.271 Q 271.367 287.947, 271.417 288.047 L 271.417 274.291 L 273.768 274.291 L 273.768 291.998 L 271.342 291.998 L 265.114 281.744 Q 264.389 280.543, 263.613 279.168 Q 262.863 277.792, 262.638 277.367 L 262.638 291.998 L 260.337 291.998 L 260.337 274.291 L 263.138 274.291 " fill="#0000FF"/>
<path class="atom-2" d="M 275.644 289.072 L 278.145 289.072 L 278.145 291.573 L 275.644 291.573 L 275.644 289.072 M 275.644 280.468 L 278.145 280.468 L 278.145 282.97 L 275.644 282.97 L 275.644 280.468 " fill="#0000FF"/>
<path class="atom-2" d="M 287.699 282.669 Q 289.425 283.17, 290.25 284.295 Q 291.1 285.396, 291.1 287.146 Q 291.1 288.647, 290.35 289.822 Q 289.6 290.973, 288.224 291.623 Q 286.848 292.249, 285.048 292.249 Q 283.147 292.249, 281.721 291.598 Q 280.321 290.923, 279.195 289.572 L 280.621 288.122 Q 281.721 289.322, 282.647 289.797 Q 283.572 290.248, 285.048 290.248 Q 286.648 290.248, 287.624 289.397 Q 288.599 288.522, 288.599 287.121 Q 288.599 285.321, 287.574 284.52 Q 286.573 283.695, 284.397 283.695 L 283.122 283.695 L 283.122 281.894 L 284.247 281.894 Q 286.173 281.869, 287.199 281.044 Q 288.224 280.193, 288.224 278.618 Q 288.224 277.467, 287.374 276.792 Q 286.523 276.092, 285.073 276.092 Q 283.597 276.092, 282.672 276.617 Q 281.771 277.142, 281.071 278.468 L 279.345 277.542 Q 279.97 276.067, 281.471 275.091 Q 282.972 274.091, 285.073 274.091 Q 287.674 274.091, 289.199 275.316 Q 290.725 276.542, 290.725 278.618 Q 290.725 280.043, 289.95 281.069 Q 289.174 282.094, 287.699 282.669 " fill="#0000FF"/>
<path class="atom-3" d="M 261.613 220.633 Q 261.613 216.231, 263.664 213.93 Q 265.739 211.604, 269.666 211.604 Q 273.318 211.604, 275.269 214.18 L 273.618 215.531 Q 272.192 213.655, 269.666 213.655 Q 266.99 213.655, 265.564 215.455 Q 264.164 217.231, 264.164 220.633 Q 264.164 224.134, 265.614 225.935 Q 267.09 227.736, 269.941 227.736 Q 271.892 227.736, 274.168 226.56 L 274.868 228.436 Q 273.943 229.036, 272.542 229.386 Q 271.142 229.737, 269.591 229.737 Q 265.739 229.737, 263.664 227.386 Q 261.613 225.035, 261.613 220.633 " fill="#000000"/>
<path class="atom-3" d="M 277.144 226.585 L 279.645 226.585 L 279.645 229.086 L 277.144 229.086 L 277.144 226.585 M 277.144 217.982 L 279.645 217.982 L 279.645 220.483 L 277.144 220.483 L 277.144 217.982 " fill="#000000"/>
<path class="atom-3" d="M 291.901 223.434 L 294.027 223.434 L 294.027 225.435 L 291.901 225.435 L 291.901 229.512 L 289.55 229.512 L 289.55 225.435 L 280.396 225.435 L 280.396 223.859 L 288.149 211.804 L 291.901 211.804 L 291.901 223.434 M 283.297 223.434 L 289.55 223.434 L 289.55 213.405 L 283.297 223.434 " fill="#000000"/>
<path class="atom-4" d="M 312.924 316.302 Q 312.924 311.9, 314.975 309.599 Q 317.051 307.273, 320.978 307.273 Q 324.629 307.273, 326.58 309.849 L 324.93 311.199 Q 323.504 309.324, 320.978 309.324 Q 318.302 309.324, 316.876 311.124 Q 315.476 312.9, 315.476 316.302 Q 315.476 319.803, 316.926 321.604 Q 318.402 323.405, 321.253 323.405 Q 323.204 323.405, 325.48 322.229 L 326.18 324.105 Q 325.255 324.705, 323.854 325.055 Q 322.454 325.406, 320.903 325.406 Q 317.051 325.406, 314.975 323.055 Q 312.924 320.704, 312.924 316.302 " fill="#000000"/>
<path class="atom-4" d="M 328.456 322.254 L 330.957 322.254 L 330.957 324.755 L 328.456 324.755 L 328.456 322.254 M 328.456 313.651 L 330.957 313.651 L 330.957 316.152 L 328.456 316.152 L 328.456 313.651 " fill="#000000"/>
<path class="atom-4" d="M 338.535 314.101 Q 340.086 314.101, 341.362 314.776 Q 342.637 315.426, 343.363 316.677 Q 344.088 317.902, 344.088 319.578 Q 344.088 321.404, 343.187 322.729 Q 342.312 324.03, 340.861 324.705 Q 339.411 325.381, 337.76 325.381 Q 336.134 325.381, 334.634 324.78 Q 333.133 324.18, 332.108 323.03 L 333.608 321.479 Q 334.434 322.379, 335.559 322.88 Q 336.685 323.355, 337.835 323.355 Q 339.411 323.355, 340.486 322.379 Q 341.587 321.404, 341.587 319.628 Q 341.587 317.752, 340.486 316.877 Q 339.411 315.977, 337.685 315.977 Q 336.134 315.977, 334.409 316.652 L 333.033 316.002 L 333.883 307.473 L 342.987 307.473 L 342.737 309.474 L 335.934 309.474 L 335.409 314.726 Q 336.985 314.101, 338.535 314.101 " fill="#000000"/>
<path class="atom-5" d="M 170.231 248.361 L 172.632 248.361 L 172.632 255.889 L 181.686 255.889 L 181.686 248.361 L 184.087 248.361 L 184.087 266.069 L 181.686 266.069 L 181.686 257.89 L 172.632 257.89 L 172.632 266.069 L 170.231 266.069 L 170.231 248.361 " fill="#000000"/>
<path class="atom-5" d="M 185.963 263.142 L 188.464 263.142 L 188.464 265.643 L 185.963 265.643 L 185.963 263.142 M 185.963 254.539 L 188.464 254.539 L 188.464 257.04 L 185.963 257.04 L 185.963 254.539 " fill="#000000"/>
<path class="atom-5" d="M 197.092 255.014 Q 198.643 255.014, 199.869 255.689 Q 201.094 256.364, 201.769 257.59 Q 202.445 258.816, 202.445 260.366 Q 202.445 262.092, 201.669 263.443 Q 200.919 264.768, 199.568 265.518 Q 198.218 266.269, 196.492 266.269 Q 193.341 266.269, 191.74 264.143 Q 190.164 261.992, 190.164 257.74 Q 190.164 253.038, 192.115 250.612 Q 194.091 248.161, 197.868 248.161 Q 198.968 248.161, 199.894 248.411 Q 200.844 248.661, 201.744 249.186 L 200.769 250.862 Q 199.468 250.162, 197.893 250.162 Q 195.392 250.162, 194.116 251.788 Q 192.84 253.388, 192.69 256.715 Q 193.591 255.889, 194.716 255.464 Q 195.867 255.014, 197.092 255.014 M 196.517 264.218 Q 197.467 264.218, 198.243 263.718 Q 199.043 263.217, 199.493 262.342 Q 199.944 261.467, 199.944 260.391 Q 199.944 258.816, 199.068 257.915 Q 198.193 257.015, 196.642 257.015 Q 195.567 257.015, 194.491 257.465 Q 193.441 257.89, 192.69 258.64 Q 192.79 261.567, 193.716 262.892 Q 194.641 264.218, 196.517 264.218 " fill="#000000"/>
<path class="atom-6" d="M 247.986 358.73 L 250.387 358.73 L 250.387 366.258 L 259.441 366.258 L 259.441 358.73 L 261.842 358.73 L 261.842 376.438 L 259.441 376.438 L 259.441 368.259 L 250.387 368.259 L 250.387 376.438 L 247.986 376.438 L 247.986 358.73 " fill="#000000"/>
<path class="atom-6" d="M 263.718 373.511 L 266.219 373.511 L 266.219 376.012 L 263.718 376.012 L 263.718 373.511 M 263.718 364.908 L 266.219 364.908 L 266.219 367.409 L 263.718 367.409 L 263.718 364.908 " fill="#000000"/>
<path class="atom-6" d="M 275.948 360.731 L 266.669 360.731 L 266.669 358.73 L 278.424 358.73 L 278.424 360.506 L 271.271 376.438 L 268.87 376.438 L 275.948 360.731 " fill="#000000"/>
<path class="atom-7" d="M 99.2564 299.718 L 105.059 309.097 Q 105.634 310.023, 106.56 311.698 Q 107.485 313.374, 107.535 313.474 L 107.535 299.718 L 109.886 299.718 L 109.886 317.426 L 107.46 317.426 L 101.232 307.171 Q 100.507 305.971, 99.7316 304.595 Q 98.9813 303.22, 98.7562 302.795 L 98.7562 317.426 L 96.4552 317.426 L 96.4552 299.718 L 99.2564 299.718 " fill="#0000FF"/>
<path class="atom-7" d="M 111.762 314.5 L 114.263 314.5 L 114.263 317.001 L 111.762 317.001 L 111.762 314.5 M 111.762 305.896 L 114.263 305.896 L 114.263 308.397 L 111.762 308.397 L 111.762 305.896 " fill="#0000FF"/>
<path class="atom-7" d="M 124.842 308.047 Q 126.468 308.747, 127.394 309.798 Q 128.319 310.823, 128.319 312.574 Q 128.319 314.074, 127.544 315.25 Q 126.768 316.4, 125.368 317.051 Q 123.992 317.676, 122.166 317.676 Q 119.215 317.676, 117.514 316.325 Q 115.814 314.95, 115.814 312.574 Q 115.814 311.123, 116.564 310.048 Q 117.314 308.947, 118.865 308.122 Q 117.714 307.472, 117.089 306.521 Q 116.464 305.546, 116.464 304.045 Q 116.464 301.969, 117.964 300.744 Q 119.49 299.518, 122.066 299.518 Q 124.642 299.518, 126.143 300.744 Q 127.669 301.969, 127.669 304.045 Q 127.669 305.346, 126.943 306.321 Q 126.243 307.271, 124.842 308.047 M 122.066 301.394 Q 120.591 301.394, 119.765 302.094 Q 118.965 302.795, 118.965 304.045 Q 118.965 304.97, 119.515 305.596 Q 120.065 306.196, 120.841 306.546 Q 121.641 306.896, 123.167 307.422 Q 124.242 306.671, 124.692 305.871 Q 125.168 305.071, 125.168 304.045 Q 125.168 302.795, 124.342 302.094 Q 123.542 301.394, 122.066 301.394 M 122.166 315.8 Q 123.817 315.8, 124.817 314.925 Q 125.818 314.024, 125.818 312.549 Q 125.818 311.598, 125.293 310.998 Q 124.767 310.398, 123.967 310.048 Q 123.192 309.698, 121.791 309.247 L 120.666 308.872 Q 119.415 309.622, 118.865 310.523 Q 118.315 311.398, 118.315 312.549 Q 118.315 314.024, 119.365 314.925 Q 120.416 315.8, 122.166 315.8 " fill="#0000FF"/>
<path class="atom-8" d="M 160.008 404.191 Q 160.008 399.939, 162.109 397.563 Q 164.209 395.187, 168.136 395.187 Q 172.063 395.187, 174.164 397.563 Q 176.265 399.939, 176.265 404.191 Q 176.265 408.493, 174.139 410.944 Q 172.013 413.37, 168.136 413.37 Q 164.234 413.37, 162.109 410.944 Q 160.008 408.518, 160.008 404.191 M 168.136 411.369 Q 170.837 411.369, 172.288 409.568 Q 173.764 407.743, 173.764 404.191 Q 173.764 400.715, 172.288 398.964 Q 170.837 397.188, 168.136 397.188 Q 165.435 397.188, 163.959 398.939 Q 162.509 400.689, 162.509 404.191 Q 162.509 407.768, 163.959 409.568 Q 165.435 411.369, 168.136 411.369 " fill="#FF0000"/>
<path class="atom-8" d="M 178.14 410.169 L 180.642 410.169 L 180.642 412.67 L 178.14 412.67 L 178.14 410.169 M 178.14 401.565 L 180.642 401.565 L 180.642 404.066 L 178.14 404.066 L 178.14 401.565 " fill="#FF0000"/>
<path class="atom-8" d="M 187.97 395.187 Q 191.121 395.187, 192.697 397.338 Q 194.297 399.464, 194.297 403.716 Q 194.297 408.418, 192.322 410.869 Q 190.371 413.295, 186.594 413.295 Q 185.494 413.295, 184.543 413.045 Q 183.618 412.795, 182.717 412.269 L 183.693 410.594 Q 184.993 411.294, 186.569 411.294 Q 189.07 411.294, 190.346 409.693 Q 191.621 408.068, 191.771 404.741 Q 190.871 405.567, 189.72 406.017 Q 188.595 406.442, 187.369 406.442 Q 185.819 406.442, 184.593 405.767 Q 183.368 405.091, 182.692 403.866 Q 182.017 402.64, 182.017 401.09 Q 182.017 399.364, 182.767 398.038 Q 183.543 396.688, 184.893 395.937 Q 186.244 395.187, 187.97 395.187 M 184.518 401.065 Q 184.518 402.64, 185.394 403.541 Q 186.269 404.441, 187.82 404.441 Q 188.895 404.441, 189.946 404.016 Q 191.021 403.566, 191.771 402.815 Q 191.671 399.889, 190.746 398.564 Q 189.82 397.238, 187.945 397.238 Q 186.994 397.238, 186.194 397.738 Q 185.419 398.238, 184.968 399.114 Q 184.518 399.989, 184.518 401.065 " fill="#FF0000"/>
<path class="atom-9" d="M 257.787 158.146 Q 257.787 153.744, 259.838 151.443 Q 261.914 149.117, 265.841 149.117 Q 269.492 149.117, 271.443 151.693 L 269.792 153.044 Q 268.367 151.168, 265.841 151.168 Q 263.165 151.168, 261.739 152.969 Q 260.338 154.744, 260.338 158.146 Q 260.338 161.647, 261.789 163.448 Q 263.265 165.249, 266.116 165.249 Q 268.067 165.249, 270.343 164.073 L 271.043 165.949 Q 270.118 166.549, 268.717 166.9 Q 267.316 167.25, 265.766 167.25 Q 261.914 167.25, 259.838 164.899 Q 257.787 162.548, 257.787 158.146 " fill="#000000"/>
<path class="atom-9" d="M 273.319 164.098 L 275.82 164.098 L 275.82 166.599 L 273.319 166.599 L 273.319 164.098 M 273.319 155.495 L 275.82 155.495 L 275.82 157.996 L 273.319 157.996 L 273.319 155.495 " fill="#000000"/>
<path class="atom-9" d="M 278.146 165.024 L 282.023 165.024 L 282.023 151.793 L 277.746 153.119 L 277.171 151.643 L 282.598 149.217 L 284.374 149.517 L 284.374 165.024 L 287.85 165.024 L 287.85 167.025 L 278.146 167.025 L 278.146 165.024 " fill="#000000"/>
<path class="atom-9" d="M 295.854 167.225 Q 292.602 167.225, 290.976 164.824 Q 289.376 162.423, 289.376 158.146 Q 289.376 153.869, 290.976 151.493 Q 292.577 149.117, 295.854 149.117 Q 299.13 149.117, 300.731 151.493 Q 302.331 153.869, 302.331 158.146 Q 302.331 162.423, 300.706 164.824 Q 299.105 167.225, 295.854 167.225 M 295.854 165.224 Q 297.779 165.224, 298.805 163.448 Q 299.83 161.647, 299.83 158.146 Q 299.83 154.669, 298.805 152.894 Q 297.779 151.118, 295.854 151.118 Q 293.953 151.118, 292.902 152.894 Q 291.877 154.669, 291.877 158.146 Q 291.877 161.647, 292.902 163.448 Q 293.953 165.224, 295.854 165.224 " fill="#000000"/>
<path class="atom-10" d="M 338.641 213.992 L 341.042 213.992 L 341.042 221.521 L 350.096 221.521 L 350.096 213.992 L 352.497 213.992 L 352.497 231.7 L 350.096 231.7 L 350.096 223.522 L 341.042 223.522 L 341.042 231.7 L 338.641 231.7 L 338.641 213.992 " fill="#000000"/>
<path class="atom-10" d="M 354.373 228.774 L 356.874 228.774 L 356.874 231.275 L 354.373 231.275 L 354.373 228.774 M 354.373 220.17 L 356.874 220.17 L 356.874 222.671 L 354.373 222.671 L 354.373 220.17 " fill="#000000"/>
<path class="atom-10" d="M 359.2 229.699 L 363.077 229.699 L 363.077 216.469 L 358.8 217.794 L 358.225 216.318 L 363.652 213.892 L 365.428 214.193 L 365.428 229.699 L 368.904 229.699 L 368.904 231.7 L 359.2 231.7 L 359.2 229.699 " fill="#000000"/>
<path class="atom-10" d="M 371.23 229.699 L 375.107 229.699 L 375.107 216.469 L 370.83 217.794 L 370.255 216.318 L 375.682 213.892 L 377.458 214.193 L 377.458 229.699 L 380.934 229.699 L 380.934 231.7 L 371.23 231.7 L 371.23 229.699 " fill="#000000"/>
<path class="atom-11" d="M 183.117 209.565 L 185.518 209.565 L 185.518 217.094 L 194.572 217.094 L 194.572 209.565 L 196.973 209.565 L 196.973 227.273 L 194.572 227.273 L 194.572 219.094 L 185.518 219.094 L 185.518 227.273 L 183.117 227.273 L 183.117 209.565 " fill="#000000"/>
<path class="atom-11" d="M 198.849 224.347 L 201.35 224.347 L 201.35 226.848 L 198.849 226.848 L 198.849 224.347 M 198.849 215.743 L 201.35 215.743 L 201.35 218.244 L 198.849 218.244 L 198.849 215.743 " fill="#000000"/>
<path class="atom-11" d="M 203.676 225.272 L 207.552 225.272 L 207.552 212.041 L 203.275 213.367 L 202.7 211.891 L 208.128 209.465 L 209.903 209.765 L 209.903 225.272 L 213.38 225.272 L 213.38 227.273 L 203.676 227.273 L 203.676 225.272 " fill="#000000"/>
<path class="atom-11" d="M 214.68 212.917 Q 215.331 211.241, 216.881 210.316 Q 218.432 209.365, 220.583 209.365 Q 223.259 209.365, 224.76 210.816 Q 226.26 212.266, 226.26 214.843 Q 226.26 217.469, 224.31 219.92 Q 222.384 222.371, 218.382 225.272 L 226.561 225.272 L 226.561 227.273 L 214.63 227.273 L 214.63 225.597 Q 217.932 223.246, 219.883 221.495 Q 221.859 219.745, 222.809 218.169 Q 223.759 216.593, 223.759 214.968 Q 223.759 213.267, 222.909 212.316 Q 222.059 211.366, 220.583 211.366 Q 219.157 211.366, 218.207 211.941 Q 217.257 212.517, 216.581 213.792 L 214.68 212.917 " fill="#000000"/>
<path class="atom-12" d="M 359.815 349.484 Q 359.815 345.082, 361.865 342.781 Q 363.941 340.455, 367.868 340.455 Q 371.52 340.455, 373.471 343.031 L 371.82 344.382 Q 370.394 342.506, 367.868 342.506 Q 365.192 342.506, 363.766 344.307 Q 362.366 346.082, 362.366 349.484 Q 362.366 352.985, 363.816 354.786 Q 365.292 356.587, 368.143 356.587 Q 370.094 356.587, 372.37 355.411 L 373.07 357.287 Q 372.145 357.887, 370.744 358.238 Q 369.344 358.588, 367.793 358.588 Q 363.941 358.588, 361.865 356.237 Q 359.815 353.886, 359.815 349.484 " fill="#000000"/>
<path class="atom-12" d="M 375.346 355.436 L 377.847 355.436 L 377.847 357.937 L 375.346 357.937 L 375.346 355.436 M 375.346 346.833 L 377.847 346.833 L 377.847 349.334 L 375.346 349.334 L 375.346 346.833 " fill="#000000"/>
<path class="atom-12" d="M 380.173 356.362 L 384.05 356.362 L 384.05 343.131 L 379.773 344.457 L 379.198 342.981 L 384.625 340.555 L 386.401 340.855 L 386.401 356.362 L 389.878 356.362 L 389.878 358.363 L 380.173 358.363 L 380.173 356.362 " fill="#000000"/>
<path class="atom-12" d="M 399.432 349.034 Q 401.157 349.534, 401.983 350.659 Q 402.833 351.76, 402.833 353.511 Q 402.833 355.011, 402.083 356.187 Q 401.333 357.337, 399.957 357.987 Q 398.581 358.613, 396.781 358.613 Q 394.88 358.613, 393.454 357.962 Q 392.054 357.287, 390.928 355.937 L 392.354 354.486 Q 393.454 355.686, 394.38 356.162 Q 395.305 356.612, 396.781 356.612 Q 398.381 356.612, 399.357 355.762 Q 400.332 354.886, 400.332 353.486 Q 400.332 351.685, 399.307 350.884 Q 398.306 350.059, 396.13 350.059 L 394.855 350.059 L 394.855 348.258 L 395.98 348.258 Q 397.906 348.233, 398.931 347.408 Q 399.957 346.558, 399.957 344.982 Q 399.957 343.831, 399.107 343.156 Q 398.256 342.456, 396.806 342.456 Q 395.33 342.456, 394.405 342.981 Q 393.504 343.506, 392.804 344.832 L 391.078 343.906 Q 391.703 342.431, 393.204 341.455 Q 394.705 340.455, 396.806 340.455 Q 399.407 340.455, 400.932 341.68 Q 402.458 342.906, 402.458 344.982 Q 402.458 346.407, 401.683 347.433 Q 400.907 348.458, 399.432 349.034 " fill="#000000"/>
<path class="atom-13" d="M 360.094 254.427 L 362.495 254.427 L 362.495 261.955 L 371.549 261.955 L 371.549 254.427 L 373.95 254.427 L 373.95 272.135 L 371.549 272.135 L 371.549 263.956 L 362.495 263.956 L 362.495 272.135 L 360.094 272.135 L 360.094 254.427 " fill="#000000"/>
<path class="atom-13" d="M 375.826 269.208 L 378.327 269.208 L 378.327 271.709 L 375.826 271.709 L 375.826 269.208 M 375.826 260.605 L 378.327 260.605 L 378.327 263.106 L 375.826 263.106 L 375.826 260.605 " fill="#000000"/>
<path class="atom-13" d="M 380.653 270.134 L 384.529 270.134 L 384.529 256.903 L 380.253 258.229 L 379.677 256.753 L 385.105 254.327 L 386.88 254.627 L 386.88 270.134 L 390.357 270.134 L 390.357 272.135 L 380.653 272.135 L 380.653 270.134 " fill="#000000"/>
<path class="atom-13" d="M 402.612 266.057 L 404.738 266.057 L 404.738 268.058 L 402.612 268.058 L 402.612 272.135 L 400.261 272.135 L 400.261 268.058 L 391.107 268.058 L 391.107 266.482 L 398.861 254.427 L 402.612 254.427 L 402.612 266.057 M 394.008 266.057 L 400.261 266.057 L 400.261 256.028 L 394.008 266.057 " fill="#000000"/>
<path class="atom-14" d="M 263.254 360.419 L 265.655 360.419 L 265.655 367.947 L 274.709 367.947 L 274.709 360.419 L 277.11 360.419 L 277.11 378.126 L 274.709 378.126 L 274.709 369.948 L 265.655 369.948 L 265.655 378.126 L 263.254 378.126 L 263.254 360.419 " fill="#000000"/>
<path class="atom-14" d="M 278.986 375.2 L 281.487 375.2 L 281.487 377.701 L 278.986 377.701 L 278.986 375.2 M 278.986 366.596 L 281.487 366.596 L 281.487 369.098 L 278.986 369.098 L 278.986 366.596 " fill="#000000"/>
<path class="atom-14" d="M 283.813 376.126 L 287.69 376.126 L 287.69 362.895 L 283.413 364.22 L 282.837 362.745 L 288.265 360.319 L 290.041 360.619 L 290.041 376.126 L 293.517 376.126 L 293.517 378.126 L 283.813 378.126 L 283.813 376.126 " fill="#000000"/>
<path class="atom-14" d="M 301.095 367.047 Q 302.646 367.047, 303.922 367.722 Q 305.197 368.372, 305.922 369.623 Q 306.648 370.848, 306.648 372.524 Q 306.648 374.35, 305.747 375.675 Q 304.872 376.976, 303.421 377.651 Q 301.971 378.327, 300.32 378.327 Q 298.694 378.327, 297.194 377.726 Q 295.693 377.126, 294.668 375.976 L 296.168 374.425 Q 296.994 375.325, 298.119 375.825 Q 299.244 376.301, 300.395 376.301 Q 301.971 376.301, 303.046 375.325 Q 304.147 374.35, 304.147 372.574 Q 304.147 370.698, 303.046 369.823 Q 301.971 368.922, 300.245 368.922 Q 298.694 368.922, 296.969 369.598 L 295.593 368.947 L 296.443 360.419 L 305.547 360.419 L 305.297 362.42 L 298.494 362.42 L 297.969 367.672 Q 299.545 367.047, 301.095 367.047 " fill="#000000"/>
<path class="atom-15" d="M 184.73 147.078 L 187.131 147.078 L 187.131 154.607 L 196.185 154.607 L 196.185 147.078 L 198.586 147.078 L 198.586 164.786 L 196.185 164.786 L 196.185 156.608 L 187.131 156.608 L 187.131 164.786 L 184.73 164.786 L 184.73 147.078 " fill="#000000"/>
<path class="atom-15" d="M 200.462 161.86 L 202.963 161.86 L 202.963 164.361 L 200.462 164.361 L 200.462 161.86 M 200.462 153.256 L 202.963 153.256 L 202.963 155.757 L 200.462 155.757 L 200.462 153.256 " fill="#000000"/>
<path class="atom-15" d="M 205.289 162.785 L 209.166 162.785 L 209.166 149.554 L 204.889 150.88 L 204.314 149.404 L 209.741 146.978 L 211.517 147.279 L 211.517 162.785 L 214.993 162.785 L 214.993 164.786 L 205.289 164.786 L 205.289 162.785 " fill="#000000"/>
<path class="atom-15" d="M 223.622 153.731 Q 225.173 153.731, 226.398 154.407 Q 227.624 155.082, 228.299 156.307 Q 228.974 157.533, 228.974 159.084 Q 228.974 160.809, 228.199 162.16 Q 227.449 163.486, 226.098 164.236 Q 224.747 164.986, 223.022 164.986 Q 219.87 164.986, 218.27 162.86 Q 216.694 160.709, 216.694 156.457 Q 216.694 151.755, 218.645 149.329 Q 220.621 146.878, 224.397 146.878 Q 225.498 146.878, 226.423 147.128 Q 227.374 147.379, 228.274 147.904 L 227.298 149.58 Q 225.998 148.879, 224.422 148.879 Q 221.921 148.879, 220.646 150.505 Q 219.37 152.106, 219.22 155.432 Q 220.12 154.607, 221.246 154.181 Q 222.396 153.731, 223.622 153.731 M 223.047 162.935 Q 223.997 162.935, 224.772 162.435 Q 225.573 161.935, 226.023 161.059 Q 226.473 160.184, 226.473 159.109 Q 226.473 157.533, 225.598 156.633 Q 224.722 155.732, 223.172 155.732 Q 222.096 155.732, 221.021 156.182 Q 219.97 156.608, 219.22 157.358 Q 219.32 160.284, 220.245 161.61 Q 221.171 162.935, 223.047 162.935 " fill="#000000"/>
<path class="atom-16" d="M 340.88 151.506 L 343.281 151.506 L 343.281 159.034 L 352.335 159.034 L 352.335 151.506 L 354.736 151.506 L 354.736 169.213 L 352.335 169.213 L 352.335 161.035 L 343.281 161.035 L 343.281 169.213 L 340.88 169.213 L 340.88 151.506 " fill="#000000"/>
<path class="atom-16" d="M 356.612 166.287 L 359.113 166.287 L 359.113 168.788 L 356.612 168.788 L 356.612 166.287 M 356.612 157.683 L 359.113 157.683 L 359.113 160.184 L 356.612 160.184 L 356.612 157.683 " fill="#000000"/>
<path class="atom-16" d="M 361.439 167.212 L 365.315 167.212 L 365.315 153.982 L 361.039 155.307 L 360.463 153.832 L 365.891 151.406 L 367.666 151.706 L 367.666 167.212 L 371.143 167.212 L 371.143 169.213 L 361.439 169.213 L 361.439 167.212 " fill="#000000"/>
<path class="atom-16" d="M 380.872 153.506 L 371.593 153.506 L 371.593 151.506 L 383.348 151.506 L 383.348 153.281 L 376.195 169.213 L 373.794 169.213 L 380.872 153.506 " fill="#000000"/>
<path class="atom-17" d="M 315.587 393.651 L 317.988 393.651 L 317.988 401.179 L 327.042 401.179 L 327.042 393.651 L 329.443 393.651 L 329.443 411.359 L 327.042 411.359 L 327.042 403.18 L 317.988 403.18 L 317.988 411.359 L 315.587 411.359 L 315.587 393.651 " fill="#000000"/>
<path class="atom-17" d="M 331.319 408.432 L 333.82 408.432 L 333.82 410.933 L 331.319 410.933 L 331.319 408.432 M 331.319 399.829 L 333.82 399.829 L 333.82 402.33 L 331.319 402.33 L 331.319 399.829 " fill="#000000"/>
<path class="atom-17" d="M 336.146 409.358 L 340.023 409.358 L 340.023 396.127 L 335.746 397.453 L 335.171 395.977 L 340.598 393.551 L 342.374 393.851 L 342.374 409.358 L 345.85 409.358 L 345.85 411.359 L 336.146 411.359 L 336.146 409.358 " fill="#000000"/>
<path class="atom-17" d="M 356.43 401.98 Q 358.055 402.68, 358.981 403.73 Q 359.906 404.756, 359.906 406.506 Q 359.906 408.007, 359.131 409.183 Q 358.356 410.333, 356.955 410.983 Q 355.579 411.609, 353.754 411.609 Q 350.802 411.609, 349.102 410.258 Q 347.401 408.883, 347.401 406.506 Q 347.401 405.056, 348.151 403.98 Q 348.901 402.88, 350.452 402.055 Q 349.302 401.404, 348.676 400.454 Q 348.051 399.478, 348.051 397.978 Q 348.051 395.902, 349.552 394.676 Q 351.077 393.451, 353.654 393.451 Q 356.23 393.451, 357.73 394.676 Q 359.256 395.902, 359.256 397.978 Q 359.256 399.278, 358.531 400.254 Q 357.83 401.204, 356.43 401.98 M 353.654 395.327 Q 352.178 395.327, 351.353 396.027 Q 350.552 396.727, 350.552 397.978 Q 350.552 398.903, 351.102 399.528 Q 351.653 400.129, 352.428 400.479 Q 353.228 400.829, 354.754 401.354 Q 355.829 400.604, 356.28 399.804 Q 356.755 399.003, 356.755 397.978 Q 356.755 396.727, 355.93 396.027 Q 355.129 395.327, 353.654 395.327 M 353.754 409.733 Q 355.404 409.733, 356.405 408.857 Q 357.405 407.957, 357.405 406.481 Q 357.405 405.531, 356.88 404.931 Q 356.355 404.331, 355.554 403.98 Q 354.779 403.63, 353.378 403.18 L 352.253 402.805 Q 351.002 403.555, 350.452 404.456 Q 349.902 405.331, 349.902 406.481 Q 349.902 407.957, 350.952 408.857 Q 352.003 409.733, 353.754 409.733 " fill="#000000"/>
<path class="atom-18" d="M 413.09 287.659 L 415.491 287.659 L 415.491 295.187 L 424.545 295.187 L 424.545 287.659 L 426.946 287.659 L 426.946 305.367 L 424.545 305.367 L 424.545 297.188 L 415.491 297.188 L 415.491 305.367 L 413.09 305.367 L 413.09 287.659 " fill="#000000"/>
<path class="atom-18" d="M 428.822 302.44 L 431.323 302.44 L 431.323 304.942 L 428.822 304.942 L 428.822 302.44 M 428.822 293.837 L 431.323 293.837 L 431.323 296.338 L 428.822 296.338 L 428.822 293.837 " fill="#000000"/>
<path class="atom-18" d="M 433.649 303.366 L 437.525 303.366 L 437.525 290.135 L 433.248 291.461 L 432.673 289.985 L 438.101 287.559 L 439.876 287.859 L 439.876 303.366 L 443.353 303.366 L 443.353 305.367 L 433.649 305.367 L 433.649 303.366 " fill="#000000"/>
<path class="atom-18" d="M 450.681 287.459 Q 453.832 287.459, 455.408 289.61 Q 457.009 291.736, 457.009 295.988 Q 457.009 300.69, 455.033 303.141 Q 453.082 305.567, 449.305 305.567 Q 448.205 305.567, 447.254 305.317 Q 446.329 305.067, 445.429 304.541 L 446.404 302.866 Q 447.705 303.566, 449.28 303.566 Q 451.781 303.566, 453.057 301.965 Q 454.333 300.34, 454.483 297.013 Q 453.582 297.838, 452.432 298.289 Q 451.306 298.714, 450.081 298.714 Q 448.53 298.714, 447.305 298.039 Q 446.079 297.363, 445.404 296.138 Q 444.728 294.912, 444.728 293.362 Q 444.728 291.636, 445.479 290.31 Q 446.254 288.96, 447.605 288.209 Q 448.955 287.459, 450.681 287.459 M 447.229 293.337 Q 447.229 294.912, 448.105 295.813 Q 448.98 296.713, 450.531 296.713 Q 451.606 296.713, 452.657 296.288 Q 453.732 295.838, 454.483 295.087 Q 454.383 292.161, 453.457 290.835 Q 452.532 289.51, 450.656 289.51 Q 449.706 289.51, 448.905 290.01 Q 448.13 290.51, 447.68 291.386 Q 447.229 292.261, 447.229 293.337 " fill="#000000"/>
<path class="atom-19" d="M 22.7273 329.023 L 25.1283 329.023 L 25.1283 336.551 L 34.1822 336.551 L 34.1822 329.023 L 36.5832 329.023 L 36.5832 346.731 L 34.1822 346.731 L 34.1822 338.552 L 25.1283 338.552 L 25.1283 346.731 L 22.7273 346.731 L 22.7273 329.023 " fill="#000000"/>
<path class="atom-19" d="M 38.4591 343.804 L 40.9601 343.804 L 40.9601 346.305 L 38.4591 346.305 L 38.4591 343.804 M 38.4591 335.201 L 40.9601 335.201 L 40.9601 337.702 L 38.4591 337.702 L 38.4591 335.201 " fill="#000000"/>
<path class="atom-19" d="M 42.2607 332.374 Q 42.911 330.699, 44.4616 329.773 Q 46.0123 328.823, 48.1632 328.823 Q 50.8394 328.823, 52.34 330.274 Q 53.8407 331.724, 53.8407 334.3 Q 53.8407 336.926, 51.8899 339.377 Q 49.964 341.829, 45.9623 344.73 L 54.1408 344.73 L 54.1408 346.731 L 42.2107 346.731 L 42.2107 345.055 Q 45.5121 342.704, 47.4629 340.953 Q 49.4388 339.202, 50.3892 337.627 Q 51.3396 336.051, 51.3396 334.425 Q 51.3396 332.725, 50.4892 331.774 Q 49.6389 330.824, 48.1632 330.824 Q 46.7376 330.824, 45.7872 331.399 Q 44.8368 331.974, 44.1615 333.25 L 42.2607 332.374 " fill="#000000"/>
<path class="atom-19" d="M 62.1443 346.931 Q 58.8929 346.931, 57.2672 344.53 Q 55.6665 342.129, 55.6665 337.852 Q 55.6665 333.575, 57.2672 331.199 Q 58.8679 328.823, 62.1443 328.823 Q 65.4207 328.823, 67.0214 331.199 Q 68.6221 333.575, 68.6221 337.852 Q 68.6221 342.129, 66.9964 344.53 Q 65.3957 346.931, 62.1443 346.931 M 62.1443 344.93 Q 64.0701 344.93, 65.0955 343.154 Q 66.121 341.353, 66.121 337.852 Q 66.121 334.375, 65.0955 332.6 Q 64.0701 330.824, 62.1443 330.824 Q 60.2435 330.824, 59.193 332.6 Q 58.1676 334.375, 58.1676 337.852 Q 58.1676 341.353, 59.193 343.154 Q 60.2435 344.93, 62.1443 344.93 " fill="#000000"/>
<path class="atom-20" d="M 112.689 237.231 L 115.09 237.231 L 115.09 244.76 L 124.144 244.76 L 124.144 237.231 L 126.545 237.231 L 126.545 254.939 L 124.144 254.939 L 124.144 246.76 L 115.09 246.76 L 115.09 254.939 L 112.689 254.939 L 112.689 237.231 " fill="#000000"/>
<path class="atom-20" d="M 128.421 252.013 L 130.922 252.013 L 130.922 254.514 L 128.421 254.514 L 128.421 252.013 M 128.421 243.409 L 130.922 243.409 L 130.922 245.91 L 128.421 245.91 L 128.421 243.409 " fill="#000000"/>
<path class="atom-20" d="M 132.223 240.583 Q 132.873 238.907, 134.424 237.982 Q 135.974 237.031, 138.125 237.031 Q 140.802 237.031, 142.302 238.482 Q 143.803 239.932, 143.803 242.509 Q 143.803 245.135, 141.852 247.586 Q 139.926 250.037, 135.924 252.938 L 144.103 252.938 L 144.103 254.939 L 132.173 254.939 L 132.173 253.263 Q 135.474 250.912, 137.425 249.161 Q 139.401 247.411, 140.351 245.835 Q 141.302 244.259, 141.302 242.634 Q 141.302 240.933, 140.451 239.983 Q 139.601 239.032, 138.125 239.032 Q 136.7 239.032, 135.749 239.607 Q 134.799 240.183, 134.124 241.458 L 132.223 240.583 " fill="#000000"/>
<path class="atom-20" d="M 146.429 252.938 L 150.306 252.938 L 150.306 239.707 L 146.029 241.033 L 145.454 239.557 L 150.881 237.131 L 152.657 237.431 L 152.657 252.938 L 156.133 252.938 L 156.133 254.939 L 146.429 254.939 L 146.429 252.938 " fill="#000000"/>
<path class="atom-21" d="M 280.632 86.8301 L 283.033 86.8301 L 283.033 94.3584 L 292.086 94.3584 L 292.086 86.8301 L 294.488 86.8301 L 294.488 104.538 L 292.086 104.538 L 292.086 96.3592 L 283.033 96.3592 L 283.033 104.538 L 280.632 104.538 L 280.632 86.8301 " fill="#000000"/>
<path class="atom-21" d="M 296.363 101.612 L 298.864 101.612 L 298.864 104.113 L 296.363 104.113 L 296.363 101.612 M 296.363 93.0078 L 298.864 93.0078 L 298.864 95.5089 L 296.363 95.5089 L 296.363 93.0078 " fill="#000000"/>
<path class="atom-21" d="M 300.165 90.1816 Q 300.815 88.5058, 302.366 87.5805 Q 303.917 86.63, 306.067 86.63 Q 308.744 86.63, 310.244 88.0807 Q 311.745 89.5313, 311.745 92.1074 Q 311.745 94.7335, 309.794 97.1846 Q 307.868 99.6357, 303.867 102.537 L 312.045 102.537 L 312.045 104.538 L 300.115 104.538 L 300.115 102.862 Q 303.416 100.511, 305.367 98.7603 Q 307.343 97.0095, 308.293 95.4338 Q 309.244 93.8582, 309.244 92.2325 Q 309.244 90.5317, 308.394 89.5813 Q 307.543 88.6309, 306.067 88.6309 Q 304.642 88.6309, 303.691 89.2062 Q 302.741 89.7814, 302.066 91.057 L 300.165 90.1816 " fill="#000000"/>
<path class="atom-21" d="M 313.346 90.1816 Q 313.996 88.5058, 315.547 87.5805 Q 317.097 86.63, 319.248 86.63 Q 321.924 86.63, 323.425 88.0807 Q 324.926 89.5313, 324.926 92.1074 Q 324.926 94.7335, 322.975 97.1846 Q 321.049 99.6357, 317.047 102.537 L 325.226 102.537 L 325.226 104.538 L 313.296 104.538 L 313.296 102.862 Q 316.597 100.511, 318.548 98.7603 Q 320.524 97.0095, 321.474 95.4338 Q 322.425 93.8582, 322.425 92.2325 Q 322.425 90.5317, 321.574 89.5813 Q 320.724 88.6309, 319.248 88.6309 Q 317.823 88.6309, 316.872 89.2062 Q 315.922 89.7814, 315.246 91.057 L 313.346 90.1816 " fill="#000000"/>
<path class="atom-22" d="M 432.904 373.837 L 435.305 373.837 L 435.305 381.365 L 444.359 381.365 L 444.359 373.837 L 446.76 373.837 L 446.76 391.545 L 444.359 391.545 L 444.359 383.366 L 435.305 383.366 L 435.305 391.545 L 432.904 391.545 L 432.904 373.837 " fill="#000000"/>
<path class="atom-22" d="M 448.635 388.618 L 451.136 388.618 L 451.136 391.12 L 448.635 391.12 L 448.635 388.618 M 448.635 380.015 L 451.136 380.015 L 451.136 382.516 L 448.635 382.516 L 448.635 380.015 " fill="#000000"/>
<path class="atom-22" d="M 452.437 377.189 Q 453.087 375.513, 454.638 374.587 Q 456.189 373.637, 458.34 373.637 Q 461.016 373.637, 462.516 375.088 Q 464.017 376.538, 464.017 379.114 Q 464.017 381.741, 462.066 384.192 Q 460.14 386.643, 456.139 389.544 L 464.317 389.544 L 464.317 391.545 L 452.387 391.545 L 452.387 389.869 Q 455.688 387.518, 457.639 385.767 Q 459.615 384.016, 460.566 382.441 Q 461.516 380.865, 461.516 379.239 Q 461.516 377.539, 460.666 376.588 Q 459.815 375.638, 458.34 375.638 Q 456.914 375.638, 455.964 376.213 Q 455.013 376.788, 454.338 378.064 L 452.437 377.189 " fill="#000000"/>
<path class="atom-22" d="M 473.871 382.216 Q 475.597 382.716, 476.422 383.841 Q 477.273 384.942, 477.273 386.693 Q 477.273 388.193, 476.522 389.369 Q 475.772 390.519, 474.396 391.17 Q 473.021 391.795, 471.22 391.795 Q 469.319 391.795, 467.894 391.145 Q 466.493 390.469, 465.368 389.119 L 466.793 387.668 Q 467.894 388.869, 468.819 389.344 Q 469.744 389.794, 471.22 389.794 Q 472.821 389.794, 473.796 388.944 Q 474.772 388.068, 474.772 386.668 Q 474.772 384.867, 473.746 384.067 Q 472.746 383.241, 470.57 383.241 L 469.294 383.241 L 469.294 381.44 L 470.42 381.44 Q 472.346 381.415, 473.371 380.59 Q 474.396 379.74, 474.396 378.164 Q 474.396 377.013, 473.546 376.338 Q 472.696 375.638, 471.245 375.638 Q 469.769 375.638, 468.844 376.163 Q 467.944 376.688, 467.243 378.014 L 465.518 377.089 Q 466.143 375.613, 467.644 374.637 Q 469.144 373.637, 471.245 373.637 Q 473.846 373.637, 475.372 374.863 Q 476.898 376.088, 476.898 378.164 Q 476.898 379.59, 476.122 380.615 Q 475.347 381.64, 473.871 382.216 " fill="#000000"/>
<text x="253.22650851937442" y="297.6969374806911" font-size="12" font-family="Verdana" font-weight="bold" letter-spacing="0" text-anchor="start" fill="black" transform=" rotate(62.051735 253.226509 297.696937)">0.0217</text><text x="25" y="490" font-size="12" font-family="Verdana" font-weight="bold" letter-spacing="0" text-anchor="start" fill="black">[#6:1](-[#6:2](-[#7:3](-[#6:4](-[#6:10](-[H:16])(-[H:17])-[H:22])(-[H:11])-[H:12])-[#6:5](-[#6:13](-[H:18])(-[H:19])-[H:23])(-[H:14])-[H:15])(-[H:6])-[H:7])(-[#7:8](-[H:20])-[H:21])=[#8:9]</text></svg>
