<?xml version='1.0' encoding='ASCII' standalone='yes'?>
<svg xmlns="http://www.w3.org/2000/svg" xmlns:rdkit="http://www.rdkit.org/xml" xmlns:xlink="http://www.w3.org/1999/xlink" version="1.1" baseProfile="full" xml:space="preserve" width="500px" height="500px" viewBox="0 0 500 500">
<!-- END OF HEADER -->
<rect style="opacity:1.0;fill:#FFFFFF;stroke:none" width="500.0" height="500.0" x="0.0" y="0.0"> </rect>
<path d="M 236.3,313.5 L 265.2,276.8" style="fill:none;fill-rule:evenodd;stroke:#FF7F7F;stroke-width:10.0px;stroke-linecap:butt;stroke-linejoin:miter;stroke-opacity:1"/>
<path class="bond-0 atom-0 atom-15" d="M 183.9,314.9 L 167.3,335.9" style="fill:none;fill-rule:evenodd;stroke:#000000;stroke-width:2.0px;stroke-linecap:butt;stroke-linejoin:miter;stroke-opacity:1"/>
<path class="bond-0 atom-0 atom-15" d="M 174.0,312.3 L 162.4,327.0" style="fill:none;fill-rule:evenodd;stroke:#000000;stroke-width:2.0px;stroke-linecap:butt;stroke-linejoin:miter;stroke-opacity:1"/>
<path class="bond-1 atom-0 atom-16" d="M 188.2,302.0 L 176.0,271.4" style="fill:none;fill-rule:evenodd;stroke:#000000;stroke-width:2.0px;stroke-linecap:butt;stroke-linejoin:miter;stroke-opacity:1"/>
<path class="bond-3 atom-1 atom-0" d="M 219.8,311.1 L 209.0,309.6" style="fill:none;fill-rule:evenodd;stroke:#0000FF;stroke-width:2.0px;stroke-linecap:butt;stroke-linejoin:miter;stroke-opacity:1"/>
<path class="bond-3 atom-1 atom-0" d="M 209.0,309.6 L 198.1,308.0" style="fill:none;fill-rule:evenodd;stroke:#000000;stroke-width:2.0px;stroke-linecap:butt;stroke-linejoin:miter;stroke-opacity:1"/>
<path class="bond-2 atom-1 atom-2" d="M 242.5,305.7 L 250.8,295.1" style="fill:none;fill-rule:evenodd;stroke:#0000FF;stroke-width:2.0px;stroke-linecap:butt;stroke-linejoin:miter;stroke-opacity:1"/>
<path class="bond-2 atom-1 atom-2" d="M 250.8,295.1 L 259.1,284.6" style="fill:none;fill-rule:evenodd;stroke:#000000;stroke-width:2.0px;stroke-linecap:butt;stroke-linejoin:miter;stroke-opacity:1"/>
<path class="bond-4 atom-1 atom-4" d="M 239.5,321.4 L 245.1,335.3" style="fill:none;fill-rule:evenodd;stroke:#0000FF;stroke-width:2.0px;stroke-linecap:butt;stroke-linejoin:miter;stroke-opacity:1"/>
<path class="bond-4 atom-1 atom-4" d="M 245.1,335.3 L 250.6,349.3" style="fill:none;fill-rule:evenodd;stroke:#000000;stroke-width:2.0px;stroke-linecap:butt;stroke-linejoin:miter;stroke-opacity:1"/>
<path class="bond-5 atom-2 atom-5" d="M 273.9,278.1 L 294.6,281.1" style="fill:none;fill-rule:evenodd;stroke:#000000;stroke-width:2.0px;stroke-linecap:butt;stroke-linejoin:miter;stroke-opacity:1"/>
<path class="bond-7 atom-3 atom-2" d="M 251.1,241.5 L 262.9,271.2" style="fill:none;fill-rule:evenodd;stroke:#000000;stroke-width:2.0px;stroke-linecap:butt;stroke-linejoin:miter;stroke-opacity:1"/>
<path class="bond-7 atom-3 atom-2" d="M 261.5,242.5 L 269.8,263.3" style="fill:none;fill-rule:evenodd;stroke:#000000;stroke-width:2.0px;stroke-linecap:butt;stroke-linejoin:miter;stroke-opacity:1"/>
<path class="bond-6 atom-3 atom-6" d="M 252.8,225.7 L 267.8,201.8" style="fill:none;fill-rule:evenodd;stroke:#000000;stroke-width:2.0px;stroke-linecap:butt;stroke-linejoin:miter;stroke-opacity:1"/>
<path class="bond-8 atom-3 atom-8" d="M 241.6,231.9 L 208.2,223.5" style="fill:none;fill-rule:evenodd;stroke:#000000;stroke-width:2.0px;stroke-linecap:butt;stroke-linejoin:miter;stroke-opacity:1"/>
<path class="bond-9 atom-5 atom-10" d="M 314.6,291.5 L 325.7,319.3" style="fill:none;fill-rule:evenodd;stroke:#000000;stroke-width:2.0px;stroke-linecap:butt;stroke-linejoin:miter;stroke-opacity:1"/>
<path class="bond-9 atom-5 atom-10" d="M 324.9,292.2 L 332.7,311.6" style="fill:none;fill-rule:evenodd;stroke:#000000;stroke-width:2.0px;stroke-linecap:butt;stroke-linejoin:miter;stroke-opacity:1"/>
<path class="bond-10 atom-5 atom-11" d="M 317.5,275.7 L 334.2,254.4" style="fill:none;fill-rule:evenodd;stroke:#000000;stroke-width:2.0px;stroke-linecap:butt;stroke-linejoin:miter;stroke-opacity:1"/>
<path class="bond-11 atom-6 atom-9" d="M 266.5,186.5 L 249.3,166.0" style="fill:none;fill-rule:evenodd;stroke:#000000;stroke-width:2.0px;stroke-linecap:butt;stroke-linejoin:miter;stroke-opacity:1"/>
<path class="bond-11 atom-6 atom-9" d="M 256.7,189.4 L 244.7,175.0" style="fill:none;fill-rule:evenodd;stroke:#000000;stroke-width:2.0px;stroke-linecap:butt;stroke-linejoin:miter;stroke-opacity:1"/>
<path class="bond-12 atom-6 atom-31" d="M 291.4,190.5 L 312.7,186.4" style="fill:none;fill-rule:evenodd;stroke:#000000;stroke-width:2.0px;stroke-linecap:butt;stroke-linejoin:miter;stroke-opacity:1"/>
<path class="bond-13 atom-7 atom-8" d="M 200.1,183.6 L 201.1,199.0" style="fill:none;fill-rule:evenodd;stroke:#0000FF;stroke-width:2.0px;stroke-linecap:butt;stroke-linejoin:miter;stroke-opacity:1"/>
<path class="bond-13 atom-7 atom-8" d="M 201.1,199.0 L 202.1,214.4" style="fill:none;fill-rule:evenodd;stroke:#000000;stroke-width:2.0px;stroke-linecap:butt;stroke-linejoin:miter;stroke-opacity:1"/>
<path class="bond-14 atom-7 atom-9" d="M 205.4,173.2 L 214.3,169.6" style="fill:none;fill-rule:evenodd;stroke:#0000FF;stroke-width:2.0px;stroke-linecap:butt;stroke-linejoin:miter;stroke-opacity:1"/>
<path class="bond-14 atom-7 atom-9" d="M 214.3,169.6 L 223.2,166.1" style="fill:none;fill-rule:evenodd;stroke:#000000;stroke-width:2.0px;stroke-linecap:butt;stroke-linejoin:miter;stroke-opacity:1"/>
<path class="bond-15 atom-7 atom-20" d="M 187.3,167.8 L 176.1,160.8" style="fill:none;fill-rule:evenodd;stroke:#0000FF;stroke-width:2.0px;stroke-linecap:butt;stroke-linejoin:miter;stroke-opacity:1"/>
<path class="bond-15 atom-7 atom-20" d="M 176.1,160.8 L 164.9,153.7" style="fill:none;fill-rule:evenodd;stroke:#000000;stroke-width:2.0px;stroke-linecap:butt;stroke-linejoin:miter;stroke-opacity:1"/>
<path class="bond-16 atom-8 atom-21" d="M 184.5,225.7 L 178.0,228.8" style="fill:none;fill-rule:evenodd;stroke:#000000;stroke-width:2.0px;stroke-linecap:butt;stroke-linejoin:miter;stroke-opacity:1"/>
<path class="bond-16 atom-8 atom-21" d="M 178.0,228.8 L 171.5,231.9" style="fill:none;fill-rule:evenodd;stroke:#FF0000;stroke-width:2.0px;stroke-linecap:butt;stroke-linejoin:miter;stroke-opacity:1"/>
<path class="bond-16 atom-8 atom-21" d="M 188.6,234.1 L 182.1,237.2" style="fill:none;fill-rule:evenodd;stroke:#000000;stroke-width:2.0px;stroke-linecap:butt;stroke-linejoin:miter;stroke-opacity:1"/>
<path class="bond-16 atom-8 atom-21" d="M 182.1,237.2 L 175.6,240.3" style="fill:none;fill-rule:evenodd;stroke:#FF0000;stroke-width:2.0px;stroke-linecap:butt;stroke-linejoin:miter;stroke-opacity:1"/>
<path class="bond-17 atom-9 atom-32" d="M 244.9,150.4 L 252.4,120.6" style="fill:none;fill-rule:evenodd;stroke:#000000;stroke-width:2.0px;stroke-linecap:butt;stroke-linejoin:miter;stroke-opacity:1"/>
<path class="bond-18 atom-10 atom-12" d="M 341.4,328.7 L 353.9,330.5" style="fill:none;fill-rule:evenodd;stroke:#000000;stroke-width:2.0px;stroke-linecap:butt;stroke-linejoin:miter;stroke-opacity:1"/>
<path class="bond-19 atom-10 atom-22" d="M 322.5,334.7 L 305.2,356.7" style="fill:none;fill-rule:evenodd;stroke:#000000;stroke-width:2.0px;stroke-linecap:butt;stroke-linejoin:miter;stroke-opacity:1"/>
<path class="bond-20 atom-11 atom-13" d="M 345.8,247.7 L 364.8,250.4" style="fill:none;fill-rule:evenodd;stroke:#000000;stroke-width:2.0px;stroke-linecap:butt;stroke-linejoin:miter;stroke-opacity:1"/>
<path class="bond-20 atom-11 atom-13" d="M 347.4,257.3 L 360.6,259.2" style="fill:none;fill-rule:evenodd;stroke:#000000;stroke-width:2.0px;stroke-linecap:butt;stroke-linejoin:miter;stroke-opacity:1"/>
<path class="bond-21 atom-11 atom-23" d="M 338.2,239.0 L 330.3,209.4" style="fill:none;fill-rule:evenodd;stroke:#000000;stroke-width:2.0px;stroke-linecap:butt;stroke-linejoin:miter;stroke-opacity:1"/>
<path class="bond-22 atom-12 atom-14" d="M 381.0,325.6 L 397.7,304.4" style="fill:none;fill-rule:evenodd;stroke:#000000;stroke-width:2.0px;stroke-linecap:butt;stroke-linejoin:miter;stroke-opacity:1"/>
<path class="bond-22 atom-12 atom-14" d="M 376.2,316.7 L 387.9,301.8" style="fill:none;fill-rule:evenodd;stroke:#000000;stroke-width:2.0px;stroke-linecap:butt;stroke-linejoin:miter;stroke-opacity:1"/>
<path class="bond-23 atom-12 atom-24" d="M 378.1,341.5 L 389.2,369.3" style="fill:none;fill-rule:evenodd;stroke:#000000;stroke-width:2.0px;stroke-linecap:butt;stroke-linejoin:miter;stroke-opacity:1"/>
<path class="bond-24 atom-13 atom-14" d="M 389.5,261.4 L 400.7,289.3" style="fill:none;fill-rule:evenodd;stroke:#000000;stroke-width:2.0px;stroke-linecap:butt;stroke-linejoin:miter;stroke-opacity:1"/>
<path class="bond-25 atom-13 atom-25" d="M 392.5,245.8 L 409.3,224.4" style="fill:none;fill-rule:evenodd;stroke:#000000;stroke-width:2.0px;stroke-linecap:butt;stroke-linejoin:miter;stroke-opacity:1"/>
<path class="bond-26 atom-14 atom-26" d="M 416.9,298.7 L 443.9,302.6" style="fill:none;fill-rule:evenodd;stroke:#000000;stroke-width:2.0px;stroke-linecap:butt;stroke-linejoin:miter;stroke-opacity:1"/>
<path class="bond-27 atom-15 atom-17" d="M 139.8,340.4 L 128.3,338.7" style="fill:none;fill-rule:evenodd;stroke:#000000;stroke-width:2.0px;stroke-linecap:butt;stroke-linejoin:miter;stroke-opacity:1"/>
<path class="bond-28 atom-15 atom-27" d="M 164.5,351.5 L 175.6,379.3" style="fill:none;fill-rule:evenodd;stroke:#000000;stroke-width:2.0px;stroke-linecap:butt;stroke-linejoin:miter;stroke-opacity:1"/>
<path class="bond-29 atom-16 atom-18" d="M 166.6,262.6 L 140.0,258.8" style="fill:none;fill-rule:evenodd;stroke:#000000;stroke-width:2.0px;stroke-linecap:butt;stroke-linejoin:miter;stroke-opacity:1"/>
<path class="bond-29 atom-16 atom-18" d="M 161.3,271.3 L 142.6,268.6" style="fill:none;fill-rule:evenodd;stroke:#000000;stroke-width:2.0px;stroke-linecap:butt;stroke-linejoin:miter;stroke-opacity:1"/>
<path class="bond-30 atom-16 atom-28" d="M 176.1,256.2 L 179.8,248.0" style="fill:none;fill-rule:evenodd;stroke:#000000;stroke-width:2.0px;stroke-linecap:butt;stroke-linejoin:miter;stroke-opacity:1"/>
<path class="bond-31 atom-17 atom-19" d="M 112.0,329.1 L 100.9,301.3" style="fill:none;fill-rule:evenodd;stroke:#000000;stroke-width:2.0px;stroke-linecap:butt;stroke-linejoin:miter;stroke-opacity:1"/>
<path class="bond-31 atom-17 atom-19" d="M 119.0,321.5 L 111.3,302.0" style="fill:none;fill-rule:evenodd;stroke:#000000;stroke-width:2.0px;stroke-linecap:butt;stroke-linejoin:miter;stroke-opacity:1"/>
<path class="bond-32 atom-17 atom-29" d="M 109.0,344.7 L 92.0,366.2" style="fill:none;fill-rule:evenodd;stroke:#000000;stroke-width:2.0px;stroke-linecap:butt;stroke-linejoin:miter;stroke-opacity:1"/>
<path class="bond-33 atom-18 atom-19" d="M 120.5,264.7 L 103.8,285.9" style="fill:none;fill-rule:evenodd;stroke:#000000;stroke-width:2.0px;stroke-linecap:butt;stroke-linejoin:miter;stroke-opacity:1"/>
<path class="bond-34 atom-18 atom-30" d="M 123.6,249.1 L 112.4,221.2" style="fill:none;fill-rule:evenodd;stroke:#000000;stroke-width:2.0px;stroke-linecap:butt;stroke-linejoin:miter;stroke-opacity:1"/>
<path class="bond-35 atom-19 atom-33" d="M 75.6,290.3 L 57.3,287.7" style="fill:none;fill-rule:evenodd;stroke:#000000;stroke-width:2.0px;stroke-linecap:butt;stroke-linejoin:miter;stroke-opacity:1"/>
<path class="atom-0" d="M 174.9 306.9 Q 174.9 303.6, 176.4 301.9 Q 178.0 300.2, 180.9 300.2 Q 183.7 300.2, 185.1 302.1 L 183.9 303.1 Q 182.8 301.7, 180.9 301.7 Q 178.9 301.7, 177.9 303.0 Q 176.8 304.4, 176.8 306.9 Q 176.8 309.5, 177.9 310.9 Q 179.0 312.2, 181.1 312.2 Q 182.6 312.2, 184.3 311.3 L 184.8 312.7 Q 184.1 313.2, 183.1 313.4 Q 182.0 313.7, 180.9 313.7 Q 178.0 313.7, 176.4 311.9 Q 174.9 310.2, 174.9 306.9 " fill="#000000"/>
<path class="atom-0" d="M 186.5 311.3 L 188.4 311.3 L 188.4 313.2 L 186.5 313.2 L 186.5 311.3 M 186.5 304.9 L 188.4 304.9 L 188.4 306.8 L 186.5 306.8 L 186.5 304.9 " fill="#000000"/>
<path class="atom-0" d="M 190.1 312.0 L 193.0 312.0 L 193.0 302.2 L 189.8 303.2 L 189.4 302.1 L 193.4 300.2 L 194.8 300.5 L 194.8 312.0 L 197.3 312.0 L 197.3 313.5 L 190.1 313.5 L 190.1 312.0 " fill="#000000"/>
<path class="atom-1" d="M 223.1 307.0 L 227.4 314.0 Q 227.8 314.7, 228.5 315.9 Q 229.2 317.2, 229.3 317.2 L 229.3 307.0 L 231.0 307.0 L 231.0 320.2 L 229.2 320.2 L 224.5 312.5 Q 224.0 311.6, 223.4 310.6 Q 222.9 309.6, 222.7 309.3 L 222.7 320.2 L 221.0 320.2 L 221.0 307.0 L 223.1 307.0 " fill="#0000FF"/>
<path class="atom-1" d="M 232.4 318.0 L 234.3 318.0 L 234.3 319.9 L 232.4 319.9 L 232.4 318.0 M 232.4 311.6 L 234.3 311.6 L 234.3 313.5 L 232.4 313.5 L 232.4 311.6 " fill="#0000FF"/>
<path class="atom-1" d="M 235.2 309.5 Q 235.7 308.2, 236.9 307.5 Q 238.0 306.8, 239.6 306.8 Q 241.6 306.8, 242.8 307.9 Q 243.9 309.0, 243.9 310.9 Q 243.9 312.9, 242.4 314.7 Q 241.0 316.5, 238.0 318.7 L 244.1 318.7 L 244.1 320.2 L 235.2 320.2 L 235.2 318.9 Q 237.7 317.2, 239.1 315.9 Q 240.6 314.6, 241.3 313.4 Q 242.0 312.2, 242.0 311.0 Q 242.0 309.7, 241.4 309.0 Q 240.7 308.3, 239.6 308.3 Q 238.6 308.3, 237.9 308.8 Q 237.2 309.2, 236.7 310.1 L 235.2 309.5 " fill="#0000FF"/>
<path class="atom-2" d="M 249.6 276.9 Q 249.6 273.6, 251.2 271.9 Q 252.7 270.2, 255.6 270.2 Q 258.4 270.2, 259.8 272.1 L 258.6 273.1 Q 257.5 271.7, 255.6 271.7 Q 253.7 271.7, 252.6 273.0 Q 251.5 274.4, 251.5 276.9 Q 251.5 279.5, 252.6 280.9 Q 253.7 282.2, 255.9 282.2 Q 257.3 282.2, 259.0 281.3 L 259.5 282.7 Q 258.8 283.2, 257.8 283.4 Q 256.7 283.7, 255.6 283.7 Q 252.7 283.7, 251.2 281.9 Q 249.6 280.2, 249.6 276.9 " fill="#000000"/>
<path class="atom-2" d="M 261.2 281.3 L 263.1 281.3 L 263.1 283.2 L 261.2 283.2 L 261.2 281.3 M 261.2 274.9 L 263.1 274.9 L 263.1 276.8 L 261.2 276.8 L 261.2 274.9 " fill="#000000"/>
<path class="atom-2" d="M 270.2 276.6 Q 271.5 276.9, 272.1 277.8 Q 272.8 278.6, 272.8 279.9 Q 272.8 281.0, 272.2 281.9 Q 271.6 282.8, 270.6 283.2 Q 269.6 283.7, 268.2 283.7 Q 266.8 283.7, 265.8 283.2 Q 264.7 282.7, 263.9 281.7 L 264.9 280.6 Q 265.8 281.5, 266.5 281.9 Q 267.1 282.2, 268.2 282.2 Q 269.4 282.2, 270.2 281.6 Q 270.9 280.9, 270.9 279.9 Q 270.9 278.5, 270.1 277.9 Q 269.4 277.3, 267.8 277.3 L 266.8 277.3 L 266.8 276.0 L 267.6 276.0 Q 269.1 276.0, 269.8 275.4 Q 270.6 274.7, 270.6 273.5 Q 270.6 272.7, 270.0 272.2 Q 269.3 271.7, 268.3 271.7 Q 267.2 271.7, 266.5 272.1 Q 265.8 272.4, 265.3 273.4 L 264.0 272.7 Q 264.5 271.6, 265.6 270.9 Q 266.7 270.2, 268.3 270.2 Q 270.2 270.2, 271.3 271.1 Q 272.5 272.0, 272.5 273.5 Q 272.5 274.6, 271.9 275.4 Q 271.3 276.1, 270.2 276.6 " fill="#000000"/>
<path class="atom-3" d="M 242.8 233.6 Q 242.8 230.3, 244.3 228.6 Q 245.9 226.9, 248.8 226.9 Q 251.5 226.9, 253.0 228.8 L 251.7 229.8 Q 250.7 228.4, 248.8 228.4 Q 246.8 228.4, 245.7 229.7 Q 244.7 231.0, 244.7 233.6 Q 244.7 236.2, 245.8 237.5 Q 246.9 238.9, 249.0 238.9 Q 250.5 238.9, 252.1 238.0 L 252.7 239.4 Q 252.0 239.9, 250.9 240.1 Q 249.9 240.4, 248.7 240.4 Q 245.9 240.4, 244.3 238.6 Q 242.8 236.9, 242.8 233.6 " fill="#000000"/>
<path class="atom-3" d="M 254.4 238.0 L 256.2 238.0 L 256.2 239.9 L 254.4 239.9 L 254.4 238.0 M 254.4 231.6 L 256.2 231.6 L 256.2 233.5 L 254.4 233.5 L 254.4 231.6 " fill="#000000"/>
<path class="atom-3" d="M 265.4 235.7 L 267.0 235.7 L 267.0 237.2 L 265.4 237.2 L 265.4 240.2 L 263.6 240.2 L 263.6 237.2 L 256.8 237.2 L 256.8 236.0 L 262.6 227.0 L 265.4 227.0 L 265.4 235.7 M 259.0 235.7 L 263.6 235.7 L 263.6 228.2 L 259.0 235.7 " fill="#000000"/>
<path class="atom-4" d="M 248.5 350.2 L 250.3 350.2 L 250.3 355.8 L 257.0 355.8 L 257.0 350.2 L 258.8 350.2 L 258.8 363.4 L 257.0 363.4 L 257.0 357.3 L 250.3 357.3 L 250.3 363.4 L 248.5 363.4 L 248.5 350.2 " fill="#000000"/>
<path class="atom-4" d="M 260.2 361.2 L 262.1 361.2 L 262.1 363.1 L 260.2 363.1 L 260.2 361.2 M 260.2 354.8 L 262.1 354.8 L 262.1 356.7 L 260.2 356.7 L 260.2 354.8 " fill="#000000"/>
<path class="atom-4" d="M 267.8 355.2 Q 268.9 355.2, 269.9 355.7 Q 270.8 356.2, 271.4 357.1 Q 271.9 358.0, 271.9 359.3 Q 271.9 360.6, 271.2 361.6 Q 270.6 362.6, 269.5 363.1 Q 268.4 363.6, 267.2 363.6 Q 266.0 363.6, 264.8 363.1 Q 263.7 362.7, 263.0 361.8 L 264.1 360.7 Q 264.7 361.3, 265.5 361.7 Q 266.4 362.1, 267.2 362.1 Q 268.4 362.1, 269.2 361.3 Q 270.0 360.6, 270.0 359.3 Q 270.0 357.9, 269.2 357.2 Q 268.4 356.6, 267.1 356.6 Q 266.0 356.6, 264.7 357.1 L 263.6 356.6 L 264.3 350.2 L 271.1 350.2 L 270.9 351.7 L 265.8 351.7 L 265.4 355.6 Q 266.6 355.2, 267.8 355.2 " fill="#000000"/>
<path class="atom-5" d="M 295.5 283.6 Q 295.5 280.3, 297.1 278.6 Q 298.6 276.8, 301.5 276.8 Q 304.3 276.8, 305.7 278.7 L 304.5 279.8 Q 303.4 278.4, 301.5 278.4 Q 299.5 278.4, 298.5 279.7 Q 297.4 281.0, 297.4 283.6 Q 297.4 286.2, 298.5 287.5 Q 299.6 288.9, 301.8 288.9 Q 303.2 288.9, 304.9 288.0 L 305.4 289.4 Q 304.7 289.8, 303.7 290.1 Q 302.6 290.4, 301.5 290.4 Q 298.6 290.4, 297.1 288.6 Q 295.5 286.8, 295.5 283.6 " fill="#000000"/>
<path class="atom-5" d="M 307.1 288.0 L 309.0 288.0 L 309.0 289.9 L 307.1 289.9 L 307.1 288.0 M 307.1 281.6 L 309.0 281.6 L 309.0 283.5 L 307.1 283.5 L 307.1 281.6 " fill="#000000"/>
<path class="atom-5" d="M 315.4 281.9 Q 316.6 281.9, 317.5 282.4 Q 318.4 282.9, 318.9 283.9 Q 319.4 284.8, 319.4 285.9 Q 319.4 287.2, 318.8 288.2 Q 318.3 289.2, 317.3 289.8 Q 316.3 290.3, 315.0 290.3 Q 312.6 290.3, 311.4 288.8 Q 310.3 287.1, 310.3 284.0 Q 310.3 280.5, 311.7 278.7 Q 313.2 276.8, 316.0 276.8 Q 316.8 276.8, 317.5 277.0 Q 318.2 277.2, 318.9 277.6 L 318.2 278.8 Q 317.2 278.3, 316.0 278.3 Q 314.2 278.3, 313.2 279.5 Q 312.3 280.7, 312.1 283.2 Q 312.8 282.6, 313.7 282.3 Q 314.5 281.9, 315.4 281.9 M 315.0 288.8 Q 315.7 288.8, 316.3 288.4 Q 316.9 288.1, 317.2 287.4 Q 317.6 286.8, 317.6 286.0 Q 317.6 284.8, 316.9 284.1 Q 316.2 283.4, 315.1 283.4 Q 314.3 283.4, 313.5 283.8 Q 312.7 284.1, 312.1 284.6 Q 312.2 286.8, 312.9 287.8 Q 313.6 288.8, 315.0 288.8 " fill="#000000"/>
<path class="atom-6" d="M 267.6 194.1 Q 267.6 190.8, 269.2 189.1 Q 270.7 187.4, 273.7 187.4 Q 276.4 187.4, 277.8 189.3 L 276.6 190.3 Q 275.5 188.9, 273.7 188.9 Q 271.7 188.9, 270.6 190.2 Q 269.5 191.6, 269.5 194.1 Q 269.5 196.7, 270.6 198.1 Q 271.7 199.4, 273.9 199.4 Q 275.3 199.4, 277.0 198.5 L 277.5 199.9 Q 276.8 200.4, 275.8 200.6 Q 274.8 200.9, 273.6 200.9 Q 270.7 200.9, 269.2 199.2 Q 267.6 197.4, 267.6 194.1 " fill="#000000"/>
<path class="atom-6" d="M 279.2 198.6 L 281.1 198.6 L 281.1 200.4 L 279.2 200.4 L 279.2 198.6 M 279.2 192.1 L 281.1 192.1 L 281.1 194.0 L 279.2 194.0 L 279.2 192.1 " fill="#000000"/>
<path class="atom-6" d="M 288.4 189.0 L 281.4 189.0 L 281.4 187.5 L 290.2 187.5 L 290.2 188.8 L 284.9 200.7 L 283.1 200.7 L 288.4 189.0 " fill="#000000"/>
<path class="atom-7" d="M 182.5 169.0 L 186.9 176.0 Q 187.3 176.7, 188.0 177.9 Q 188.7 179.2, 188.7 179.3 L 188.7 169.0 L 190.5 169.0 L 190.5 182.2 L 188.7 182.2 L 184.0 174.6 Q 183.5 173.7, 182.9 172.6 Q 182.3 171.6, 182.2 171.3 L 182.2 182.2 L 180.5 182.2 L 180.5 169.0 L 182.5 169.0 " fill="#0000FF"/>
<path class="atom-7" d="M 191.9 180.0 L 193.7 180.0 L 193.7 181.9 L 191.9 181.9 L 191.9 180.0 M 191.9 173.6 L 193.7 173.6 L 193.7 175.5 L 191.9 175.5 L 191.9 173.6 " fill="#0000FF"/>
<path class="atom-7" d="M 201.6 175.2 Q 202.8 175.7, 203.5 176.5 Q 204.2 177.3, 204.2 178.6 Q 204.2 179.7, 203.6 180.6 Q 203.1 181.4, 202.0 181.9 Q 201.0 182.4, 199.6 182.4 Q 197.4 182.4, 196.2 181.4 Q 194.9 180.4, 194.9 178.6 Q 194.9 177.5, 195.5 176.7 Q 196.0 175.9, 197.2 175.3 Q 196.3 174.8, 195.8 174.1 Q 195.4 173.3, 195.4 172.2 Q 195.4 170.7, 196.5 169.8 Q 197.6 168.9, 199.6 168.9 Q 201.5 168.9, 202.6 169.8 Q 203.7 170.7, 203.7 172.2 Q 203.7 173.2, 203.2 173.9 Q 202.7 174.6, 201.6 175.2 M 199.6 170.3 Q 198.5 170.3, 197.8 170.8 Q 197.2 171.3, 197.2 172.2 Q 197.2 172.9, 197.7 173.4 Q 198.1 173.8, 198.6 174.1 Q 199.2 174.4, 200.4 174.7 Q 201.2 174.2, 201.5 173.6 Q 201.9 173.0, 201.9 172.2 Q 201.9 171.3, 201.3 170.8 Q 200.7 170.3, 199.6 170.3 M 199.6 181.0 Q 200.9 181.0, 201.6 180.3 Q 202.4 179.7, 202.4 178.6 Q 202.4 177.9, 202.0 177.4 Q 201.6 177.0, 201.0 176.7 Q 200.4 176.4, 199.4 176.1 L 198.5 175.8 Q 197.6 176.4, 197.2 177.1 Q 196.8 177.7, 196.8 178.6 Q 196.8 179.7, 197.5 180.3 Q 198.3 181.0, 199.6 181.0 " fill="#0000FF"/>
<path class="atom-8" d="M 183.6 222.1 Q 183.6 218.9, 185.1 217.1 Q 186.7 215.4, 189.6 215.4 Q 192.3 215.4, 193.8 217.3 L 192.5 218.3 Q 191.5 216.9, 189.6 216.9 Q 187.6 216.9, 186.5 218.3 Q 185.5 219.6, 185.5 222.1 Q 185.5 224.8, 186.6 226.1 Q 187.7 227.4, 189.8 227.4 Q 191.3 227.4, 193.0 226.6 L 193.5 228.0 Q 192.8 228.4, 191.7 228.7 Q 190.7 228.9, 189.5 228.9 Q 186.7 228.9, 185.1 227.2 Q 183.6 225.4, 183.6 222.1 " fill="#000000"/>
<path class="atom-8" d="M 195.2 226.6 L 197.0 226.6 L 197.0 228.4 L 195.2 228.4 L 195.2 226.6 M 195.2 220.2 L 197.0 220.2 L 197.0 222.0 L 195.2 222.0 L 195.2 220.2 " fill="#000000"/>
<path class="atom-8" d="M 202.5 215.4 Q 204.9 215.4, 206.0 217.0 Q 207.2 218.6, 207.2 221.8 Q 207.2 225.3, 205.8 227.1 Q 204.3 228.9, 201.5 228.9 Q 200.7 228.9, 200.0 228.7 Q 199.3 228.5, 198.6 228.1 L 199.3 226.9 Q 200.3 227.4, 201.5 227.4 Q 203.3 227.4, 204.3 226.2 Q 205.2 225.0, 205.3 222.5 Q 204.7 223.1, 203.8 223.5 Q 203.0 223.8, 202.1 223.8 Q 200.9 223.8, 200.0 223.3 Q 199.1 222.8, 198.6 221.9 Q 198.1 221.0, 198.1 219.8 Q 198.1 218.5, 198.6 217.5 Q 199.2 216.5, 200.2 216.0 Q 201.2 215.4, 202.5 215.4 M 199.9 219.8 Q 199.9 221.0, 200.6 221.6 Q 201.2 222.3, 202.4 222.3 Q 203.2 222.3, 204.0 222.0 Q 204.8 221.7, 205.3 221.1 Q 205.3 218.9, 204.6 217.9 Q 203.9 216.9, 202.5 216.9 Q 201.8 216.9, 201.2 217.3 Q 200.6 217.7, 200.3 218.3 Q 199.9 219.0, 199.9 219.8 " fill="#000000"/>
<path class="atom-9" d="M 222.3 158.3 Q 222.3 155.0, 223.9 153.3 Q 225.4 151.5, 228.3 151.5 Q 231.1 151.5, 232.5 153.5 L 231.3 154.5 Q 230.2 153.1, 228.3 153.1 Q 226.3 153.1, 225.3 154.4 Q 224.2 155.7, 224.2 158.3 Q 224.2 160.9, 225.3 162.2 Q 226.4 163.6, 228.5 163.6 Q 230.0 163.6, 231.7 162.7 L 232.2 164.1 Q 231.5 164.5, 230.5 164.8 Q 229.4 165.1, 228.3 165.1 Q 225.4 165.1, 223.9 163.3 Q 222.3 161.6, 222.3 158.3 " fill="#000000"/>
<path class="atom-9" d="M 233.9 162.7 L 235.8 162.7 L 235.8 164.6 L 233.9 164.6 L 233.9 162.7 M 233.9 156.3 L 235.8 156.3 L 235.8 158.2 L 233.9 158.2 L 233.9 156.3 " fill="#000000"/>
<path class="atom-9" d="M 237.5 163.4 L 240.4 163.4 L 240.4 153.5 L 237.2 154.5 L 236.8 153.4 L 240.8 151.6 L 242.2 151.8 L 242.2 163.4 L 244.8 163.4 L 244.8 164.9 L 237.5 164.9 L 237.5 163.4 " fill="#000000"/>
<path class="atom-9" d="M 250.7 165.0 Q 248.3 165.0, 247.1 163.2 Q 245.9 161.5, 245.9 158.3 Q 245.9 155.1, 247.1 153.3 Q 248.3 151.5, 250.7 151.5 Q 253.2 151.5, 254.4 153.3 Q 255.6 155.1, 255.6 158.3 Q 255.6 161.5, 254.4 163.2 Q 253.2 165.0, 250.7 165.0 M 250.7 163.5 Q 252.2 163.5, 252.9 162.2 Q 253.7 160.9, 253.7 158.3 Q 253.7 155.7, 252.9 154.3 Q 252.2 153.0, 250.7 153.0 Q 249.3 153.0, 248.5 154.3 Q 247.8 155.7, 247.8 158.3 Q 247.8 160.9, 248.5 162.2 Q 249.3 163.5, 250.7 163.5 " fill="#000000"/>
<path class="atom-10" d="M 308.8 326.9 Q 308.8 323.6, 310.3 321.9 Q 311.9 320.1, 314.8 320.1 Q 317.6 320.1, 319.0 322.1 L 317.8 323.1 Q 316.7 321.7, 314.8 321.7 Q 312.8 321.7, 311.8 323.0 Q 310.7 324.3, 310.7 326.9 Q 310.7 329.5, 311.8 330.8 Q 312.9 332.2, 315.0 332.2 Q 316.5 332.2, 318.2 331.3 L 318.7 332.7 Q 318.0 333.2, 317.0 333.4 Q 315.9 333.7, 314.8 333.7 Q 311.9 333.7, 310.3 331.9 Q 308.8 330.2, 308.8 326.9 " fill="#000000"/>
<path class="atom-10" d="M 320.4 331.3 L 322.3 331.3 L 322.3 333.2 L 320.4 333.2 L 320.4 331.3 M 320.4 324.9 L 322.3 324.9 L 322.3 326.8 L 320.4 326.8 L 320.4 324.9 " fill="#000000"/>
<path class="atom-10" d="M 324.0 332.0 L 326.9 332.0 L 326.9 322.1 L 323.7 323.1 L 323.3 322.0 L 327.3 320.2 L 328.7 320.4 L 328.7 332.0 L 331.2 332.0 L 331.2 333.5 L 324.0 333.5 L 324.0 332.0 " fill="#000000"/>
<path class="atom-10" d="M 333.0 332.0 L 335.9 332.0 L 335.9 322.1 L 332.7 323.1 L 332.3 322.0 L 336.3 320.2 L 337.6 320.4 L 337.6 332.0 L 340.2 332.0 L 340.2 333.5 L 333.0 333.5 L 333.0 332.0 " fill="#000000"/>
<path class="atom-11" d="M 312.4 246.9 Q 312.4 243.6, 313.9 241.9 Q 315.5 240.2, 318.4 240.2 Q 321.1 240.2, 322.6 242.1 L 321.4 243.1 Q 320.3 241.7, 318.4 241.7 Q 316.4 241.7, 315.4 243.0 Q 314.3 244.4, 314.3 246.9 Q 314.3 249.5, 315.4 250.9 Q 316.5 252.2, 318.6 252.2 Q 320.1 252.2, 321.8 251.3 L 322.3 252.7 Q 321.6 253.2, 320.6 253.4 Q 319.5 253.7, 318.4 253.7 Q 315.5 253.7, 313.9 251.9 Q 312.4 250.2, 312.4 246.9 " fill="#000000"/>
<path class="atom-11" d="M 324.0 251.3 L 325.9 251.3 L 325.9 253.2 L 324.0 253.2 L 324.0 251.3 M 324.0 244.9 L 325.9 244.9 L 325.9 246.8 L 324.0 246.8 L 324.0 244.9 " fill="#000000"/>
<path class="atom-11" d="M 327.6 252.0 L 330.5 252.0 L 330.5 242.2 L 327.3 243.2 L 326.9 242.1 L 330.9 240.2 L 332.2 240.5 L 332.2 252.0 L 334.8 252.0 L 334.8 253.5 L 327.6 253.5 L 327.6 252.0 " fill="#000000"/>
<path class="atom-11" d="M 335.8 242.8 Q 336.3 241.6, 337.5 240.9 Q 338.6 240.2, 340.2 240.2 Q 342.2 240.2, 343.3 241.2 Q 344.5 242.3, 344.5 244.3 Q 344.5 246.2, 343.0 248.0 Q 341.6 249.9, 338.6 252.0 L 344.7 252.0 L 344.7 253.5 L 335.8 253.5 L 335.8 252.3 Q 338.2 250.5, 339.7 249.2 Q 341.2 247.9, 341.9 246.7 Q 342.6 245.6, 342.6 244.3 Q 342.6 243.1, 342.0 242.4 Q 341.3 241.7, 340.2 241.7 Q 339.2 241.7, 338.4 242.1 Q 337.7 242.5, 337.2 243.5 L 335.8 242.8 " fill="#000000"/>
<path class="atom-12" d="M 354.7 333.5 Q 354.7 330.3, 356.2 328.5 Q 357.8 326.8, 360.7 326.8 Q 363.4 326.8, 364.9 328.7 L 363.7 329.7 Q 362.6 328.3, 360.7 328.3 Q 358.7 328.3, 357.7 329.7 Q 356.6 331.0, 356.6 333.5 Q 356.6 336.2, 357.7 337.5 Q 358.8 338.8, 360.9 338.8 Q 362.4 338.8, 364.1 338.0 L 364.6 339.4 Q 363.9 339.8, 362.9 340.1 Q 361.8 340.3, 360.7 340.3 Q 357.8 340.3, 356.2 338.6 Q 354.7 336.8, 354.7 333.5 " fill="#000000"/>
<path class="atom-12" d="M 366.3 338.0 L 368.2 338.0 L 368.2 339.8 L 366.3 339.8 L 366.3 338.0 M 366.3 331.6 L 368.2 331.6 L 368.2 333.4 L 366.3 333.4 L 366.3 331.6 " fill="#000000"/>
<path class="atom-12" d="M 369.9 338.7 L 372.8 338.7 L 372.8 328.8 L 369.6 329.8 L 369.2 328.7 L 373.2 326.9 L 374.5 327.1 L 374.5 338.7 L 377.1 338.7 L 377.1 340.2 L 369.9 340.2 L 369.9 338.7 " fill="#000000"/>
<path class="atom-12" d="M 384.3 333.2 Q 385.6 333.6, 386.2 334.4 Q 386.8 335.2, 386.8 336.5 Q 386.8 337.7, 386.2 338.5 Q 385.7 339.4, 384.7 339.9 Q 383.6 340.3, 382.3 340.3 Q 380.9 340.3, 379.8 339.9 Q 378.8 339.4, 377.9 338.4 L 379.0 337.3 Q 379.8 338.2, 380.5 338.5 Q 381.2 338.9, 382.3 338.9 Q 383.5 338.9, 384.2 338.2 Q 384.9 337.6, 384.9 336.5 Q 384.9 335.2, 384.2 334.6 Q 383.4 334.0, 381.8 334.0 L 380.9 334.0 L 380.9 332.6 L 381.7 332.6 Q 383.1 332.6, 383.9 332.0 Q 384.7 331.4, 384.7 330.2 Q 384.7 329.3, 384.0 328.8 Q 383.4 328.3, 382.3 328.3 Q 381.2 328.3, 380.5 328.7 Q 379.8 329.1, 379.3 330.1 L 378.0 329.4 Q 378.5 328.3, 379.6 327.5 Q 380.7 326.8, 382.3 326.8 Q 384.2 326.8, 385.4 327.7 Q 386.5 328.6, 386.5 330.2 Q 386.5 331.2, 385.9 332.0 Q 385.4 332.8, 384.3 333.2 " fill="#000000"/>
<path class="atom-13" d="M 365.8 253.6 Q 365.8 250.3, 367.3 248.6 Q 368.9 246.8, 371.8 246.8 Q 374.5 246.8, 376.0 248.7 L 374.8 249.8 Q 373.7 248.4, 371.8 248.4 Q 369.8 248.4, 368.8 249.7 Q 367.7 251.0, 367.7 253.6 Q 367.7 256.2, 368.8 257.5 Q 369.9 258.9, 372.0 258.9 Q 373.5 258.9, 375.2 258.0 L 375.7 259.4 Q 375.0 259.8, 374.0 260.1 Q 372.9 260.4, 371.8 260.4 Q 368.9 260.4, 367.3 258.6 Q 365.8 256.8, 365.8 253.6 " fill="#000000"/>
<path class="atom-13" d="M 377.4 258.0 L 379.3 258.0 L 379.3 259.9 L 377.4 259.9 L 377.4 258.0 M 377.4 251.6 L 379.3 251.6 L 379.3 253.4 L 377.4 253.4 L 377.4 251.6 " fill="#000000"/>
<path class="atom-13" d="M 381.0 258.7 L 383.9 258.7 L 383.9 248.8 L 380.7 249.8 L 380.3 248.7 L 384.3 246.9 L 385.6 247.1 L 385.6 258.7 L 388.2 258.7 L 388.2 260.2 L 381.0 260.2 L 381.0 258.7 " fill="#000000"/>
<path class="atom-13" d="M 397.4 255.7 L 399.0 255.7 L 399.0 257.1 L 397.4 257.1 L 397.4 260.2 L 395.6 260.2 L 395.6 257.1 L 388.8 257.1 L 388.8 256.0 L 394.6 247.0 L 397.4 247.0 L 397.4 255.7 M 391.0 255.7 L 395.6 255.7 L 395.6 248.2 L 391.0 255.7 " fill="#000000"/>
<path class="atom-14" d="M 383.5 296.9 Q 383.5 293.6, 385.1 291.9 Q 386.6 290.1, 389.5 290.1 Q 392.3 290.1, 393.7 292.1 L 392.5 293.1 Q 391.4 291.7, 389.5 291.7 Q 387.5 291.7, 386.5 293.0 Q 385.4 294.3, 385.4 296.9 Q 385.4 299.5, 386.5 300.8 Q 387.6 302.2, 389.7 302.2 Q 391.2 302.2, 392.9 301.3 L 393.4 302.7 Q 392.7 303.1, 391.7 303.4 Q 390.6 303.7, 389.5 303.7 Q 386.6 303.7, 385.1 301.9 Q 383.5 300.2, 383.5 296.9 " fill="#000000"/>
<path class="atom-14" d="M 395.1 301.3 L 397.0 301.3 L 397.0 303.2 L 395.1 303.2 L 395.1 301.3 M 395.1 294.9 L 397.0 294.9 L 397.0 296.8 L 395.1 296.8 L 395.1 294.9 " fill="#000000"/>
<path class="atom-14" d="M 398.7 302.0 L 401.6 302.0 L 401.6 292.1 L 398.4 293.1 L 398.0 292.0 L 402.0 290.2 L 403.4 290.4 L 403.4 302.0 L 406.0 302.0 L 406.0 303.5 L 398.7 303.5 L 398.7 302.0 " fill="#000000"/>
<path class="atom-14" d="M 411.6 295.2 Q 412.8 295.2, 413.7 295.7 Q 414.7 296.2, 415.2 297.2 Q 415.7 298.1, 415.7 299.3 Q 415.7 300.7, 415.1 301.7 Q 414.4 302.6, 413.3 303.1 Q 412.3 303.7, 411.0 303.7 Q 409.8 303.7, 408.7 303.2 Q 407.6 302.8, 406.8 301.9 L 407.9 300.7 Q 408.5 301.4, 409.4 301.8 Q 410.2 302.1, 411.1 302.1 Q 412.3 302.1, 413.1 301.4 Q 413.9 300.7, 413.9 299.4 Q 413.9 298.0, 413.1 297.3 Q 412.3 296.6, 411.0 296.6 Q 409.8 296.6, 408.5 297.1 L 407.5 296.7 L 408.1 290.3 L 414.9 290.3 L 414.7 291.8 L 409.7 291.8 L 409.3 295.7 Q 410.4 295.2, 411.6 295.2 " fill="#000000"/>
<path class="atom-15" d="M 140.9 343.6 Q 140.9 340.3, 142.5 338.6 Q 144.0 336.8, 146.9 336.8 Q 149.7 336.8, 151.1 338.8 L 149.9 339.8 Q 148.8 338.4, 146.9 338.4 Q 144.9 338.4, 143.9 339.7 Q 142.8 341.0, 142.8 343.6 Q 142.8 346.2, 143.9 347.5 Q 145.0 348.9, 147.1 348.9 Q 148.6 348.9, 150.3 348.0 L 150.8 349.4 Q 150.1 349.8, 149.1 350.1 Q 148.0 350.4, 146.9 350.4 Q 144.0 350.4, 142.5 348.6 Q 140.9 346.9, 140.9 343.6 " fill="#000000"/>
<path class="atom-15" d="M 152.5 348.0 L 154.4 348.0 L 154.4 349.9 L 152.5 349.9 L 152.5 348.0 M 152.5 341.6 L 154.4 341.6 L 154.4 343.5 L 152.5 343.5 L 152.5 341.6 " fill="#000000"/>
<path class="atom-15" d="M 156.1 348.7 L 159.0 348.7 L 159.0 338.8 L 155.8 339.8 L 155.4 338.7 L 159.4 336.9 L 160.8 337.1 L 160.8 348.7 L 163.4 348.7 L 163.4 350.2 L 156.1 350.2 L 156.1 348.7 " fill="#000000"/>
<path class="atom-15" d="M 169.8 341.9 Q 171.0 341.9, 171.9 342.4 Q 172.8 343.0, 173.3 343.9 Q 173.8 344.8, 173.8 345.9 Q 173.8 347.2, 173.2 348.2 Q 172.7 349.2, 171.6 349.8 Q 170.6 350.3, 169.3 350.3 Q 167.0 350.3, 165.8 348.8 Q 164.6 347.1, 164.6 344.0 Q 164.6 340.5, 166.1 338.7 Q 167.6 336.8, 170.4 336.8 Q 171.2 336.8, 171.9 337.0 Q 172.6 337.2, 173.3 337.6 L 172.5 338.8 Q 171.6 338.3, 170.4 338.3 Q 168.5 338.3, 167.6 339.5 Q 166.6 340.7, 166.5 343.2 Q 167.2 342.6, 168.0 342.3 Q 168.9 341.9, 169.8 341.9 M 169.4 348.8 Q 170.1 348.8, 170.7 348.4 Q 171.3 348.1, 171.6 347.4 Q 171.9 346.8, 171.9 346.0 Q 171.9 344.8, 171.3 344.1 Q 170.6 343.4, 169.5 343.4 Q 168.7 343.4, 167.9 343.8 Q 167.1 344.1, 166.5 344.6 Q 166.6 346.8, 167.3 347.8 Q 168.0 348.8, 169.4 348.8 " fill="#000000"/>
<path class="atom-16" d="M 167.8 263.6 Q 167.8 260.3, 169.3 258.6 Q 170.8 256.9, 173.8 256.9 Q 176.5 256.9, 177.9 258.8 L 176.7 259.8 Q 175.6 258.4, 173.8 258.4 Q 171.8 258.4, 170.7 259.7 Q 169.7 261.1, 169.7 263.6 Q 169.7 266.2, 170.7 267.5 Q 171.8 268.9, 174.0 268.9 Q 175.4 268.9, 177.1 268.0 L 177.6 269.4 Q 177.0 269.9, 175.9 270.1 Q 174.9 270.4, 173.7 270.4 Q 170.8 270.4, 169.3 268.6 Q 167.8 266.9, 167.8 263.6 " fill="#000000"/>
<path class="atom-16" d="M 179.3 268.0 L 181.2 268.0 L 181.2 269.9 L 179.3 269.9 L 179.3 268.0 M 179.3 261.6 L 181.2 261.6 L 181.2 263.5 L 179.3 263.5 L 179.3 261.6 " fill="#000000"/>
<path class="atom-16" d="M 182.9 268.7 L 185.8 268.7 L 185.8 258.8 L 182.6 259.8 L 182.2 258.7 L 186.3 256.9 L 187.6 257.2 L 187.6 268.7 L 190.2 268.7 L 190.2 270.2 L 182.9 270.2 L 182.9 268.7 " fill="#000000"/>
<path class="atom-16" d="M 197.4 258.5 L 190.5 258.5 L 190.5 257.0 L 199.3 257.0 L 199.3 258.3 L 194.0 270.2 L 192.2 270.2 L 197.4 258.5 " fill="#000000"/>
<path class="atom-17" d="M 94.7 336.9 Q 94.7 333.6, 96.2 331.9 Q 97.8 330.2, 100.7 330.2 Q 103.5 330.2, 104.9 332.1 L 103.7 333.1 Q 102.6 331.7, 100.7 331.7 Q 98.7 331.7, 97.7 333.0 Q 96.6 334.4, 96.6 336.9 Q 96.6 339.5, 97.7 340.9 Q 98.8 342.2, 100.9 342.2 Q 102.4 342.2, 104.1 341.3 L 104.6 342.7 Q 103.9 343.2, 102.9 343.4 Q 101.8 343.7, 100.7 343.7 Q 97.8 343.7, 96.2 341.9 Q 94.7 340.2, 94.7 336.9 " fill="#000000"/>
<path class="atom-17" d="M 106.3 341.4 L 108.2 341.4 L 108.2 343.2 L 106.3 343.2 L 106.3 341.4 M 106.3 334.9 L 108.2 334.9 L 108.2 336.8 L 106.3 336.8 L 106.3 334.9 " fill="#000000"/>
<path class="atom-17" d="M 109.9 342.0 L 112.8 342.0 L 112.8 332.2 L 109.6 333.2 L 109.2 332.1 L 113.2 330.2 L 114.6 330.5 L 114.6 342.0 L 117.1 342.0 L 117.1 343.5 L 109.9 343.5 L 109.9 342.0 " fill="#000000"/>
<path class="atom-17" d="M 125.0 336.5 Q 126.3 337.1, 126.9 337.8 Q 127.6 338.6, 127.6 339.9 Q 127.6 341.0, 127.1 341.9 Q 126.5 342.8, 125.4 343.3 Q 124.4 343.7, 123.0 343.7 Q 120.8 343.7, 119.6 342.7 Q 118.3 341.7, 118.3 339.9 Q 118.3 338.8, 118.9 338.0 Q 119.4 337.2, 120.6 336.6 Q 119.7 336.1, 119.3 335.4 Q 118.8 334.7, 118.8 333.5 Q 118.8 332.0, 119.9 331.1 Q 121.0 330.2, 123.0 330.2 Q 124.9 330.2, 126.0 331.1 Q 127.2 332.0, 127.2 333.5 Q 127.2 334.5, 126.6 335.2 Q 126.1 336.0, 125.0 336.5 M 123.0 331.6 Q 121.9 331.6, 121.3 332.1 Q 120.7 332.6, 120.7 333.5 Q 120.7 334.2, 121.1 334.7 Q 121.5 335.2, 122.1 335.4 Q 122.7 335.7, 123.8 336.1 Q 124.6 335.5, 124.9 334.9 Q 125.3 334.3, 125.3 333.5 Q 125.3 332.6, 124.7 332.1 Q 124.1 331.6, 123.0 331.6 M 123.0 342.3 Q 124.3 342.3, 125.0 341.7 Q 125.8 341.0, 125.8 339.9 Q 125.8 339.2, 125.4 338.7 Q 125.0 338.3, 124.4 338.0 Q 123.8 337.8, 122.8 337.4 L 121.9 337.2 Q 121.0 337.7, 120.6 338.4 Q 120.2 339.0, 120.2 339.9 Q 120.2 341.0, 121.0 341.7 Q 121.7 342.3, 123.0 342.3 " fill="#000000"/>
<path class="atom-18" d="M 106.3 256.9 Q 106.3 253.6, 107.9 251.9 Q 109.4 250.2, 112.4 250.2 Q 115.1 250.2, 116.5 252.1 L 115.3 253.1 Q 114.2 251.7, 112.4 251.7 Q 110.4 251.7, 109.3 253.1 Q 108.2 254.4, 108.2 256.9 Q 108.2 259.5, 109.3 260.9 Q 110.4 262.2, 112.6 262.2 Q 114.0 262.2, 115.7 261.4 L 116.2 262.8 Q 115.5 263.2, 114.5 263.5 Q 113.5 263.7, 112.3 263.7 Q 109.4 263.7, 107.9 262.0 Q 106.3 260.2, 106.3 256.9 " fill="#000000"/>
<path class="atom-18" d="M 117.9 261.4 L 119.8 261.4 L 119.8 263.2 L 117.9 263.2 L 117.9 261.4 M 117.9 255.0 L 119.8 255.0 L 119.8 256.8 L 117.9 256.8 L 117.9 255.0 " fill="#000000"/>
<path class="atom-18" d="M 121.5 262.1 L 124.4 262.1 L 124.4 252.2 L 121.2 253.2 L 120.8 252.1 L 124.9 250.3 L 126.2 250.5 L 126.2 262.1 L 128.8 262.1 L 128.8 263.6 L 121.5 263.6 L 121.5 262.1 " fill="#000000"/>
<path class="atom-18" d="M 134.2 250.2 Q 136.6 250.2, 137.8 251.8 Q 139.0 253.4, 139.0 256.6 Q 139.0 260.1, 137.5 261.9 Q 136.0 263.7, 133.2 263.7 Q 132.4 263.7, 131.7 263.5 Q 131.0 263.3, 130.3 262.9 L 131.1 261.7 Q 132.0 262.2, 133.2 262.2 Q 135.1 262.2, 136.0 261.0 Q 137.0 259.8, 137.1 257.3 Q 136.4 257.9, 135.5 258.3 Q 134.7 258.6, 133.8 258.6 Q 132.6 258.6, 131.7 258.1 Q 130.8 257.6, 130.3 256.7 Q 129.8 255.8, 129.8 254.6 Q 129.8 253.3, 130.4 252.3 Q 130.9 251.3, 131.9 250.8 Q 133.0 250.2, 134.2 250.2 M 131.7 254.6 Q 131.7 255.8, 132.3 256.4 Q 133.0 257.1, 134.1 257.1 Q 134.9 257.1, 135.7 256.8 Q 136.5 256.4, 137.1 255.9 Q 137.0 253.7, 136.3 252.7 Q 135.6 251.7, 134.2 251.7 Q 133.5 251.7, 132.9 252.1 Q 132.3 252.5, 132.0 253.1 Q 131.7 253.8, 131.7 254.6 " fill="#000000"/>
<path class="atom-19" d="M 76.7 293.6 Q 76.7 290.3, 78.3 288.6 Q 79.8 286.9, 82.8 286.9 Q 85.5 286.9, 86.9 288.8 L 85.7 289.8 Q 84.6 288.4, 82.8 288.4 Q 80.8 288.4, 79.7 289.7 Q 78.7 291.1, 78.7 293.6 Q 78.7 296.2, 79.7 297.5 Q 80.8 298.9, 83.0 298.9 Q 84.4 298.9, 86.1 298.0 L 86.6 299.4 Q 85.9 299.9, 84.9 300.1 Q 83.9 300.4, 82.7 300.4 Q 79.8 300.4, 78.3 298.6 Q 76.7 296.9, 76.7 293.6 " fill="#000000"/>
<path class="atom-19" d="M 88.3 298.0 L 90.2 298.0 L 90.2 299.9 L 88.3 299.9 L 88.3 298.0 M 88.3 291.6 L 90.2 291.6 L 90.2 293.5 L 88.3 293.5 L 88.3 291.6 " fill="#000000"/>
<path class="atom-19" d="M 91.2 289.5 Q 91.7 288.3, 92.8 287.6 Q 94.0 286.9, 95.6 286.9 Q 97.6 286.9, 98.7 287.9 Q 99.8 289.0, 99.8 290.9 Q 99.8 292.9, 98.4 294.7 Q 96.9 296.6, 93.9 298.7 L 100.0 298.7 L 100.0 300.2 L 91.1 300.2 L 91.1 299.0 Q 93.6 297.2, 95.1 295.9 Q 96.5 294.6, 97.2 293.4 Q 97.9 292.2, 97.9 291.0 Q 97.9 289.8, 97.3 289.1 Q 96.7 288.3, 95.6 288.3 Q 94.5 288.3, 93.8 288.8 Q 93.1 289.2, 92.6 290.2 L 91.2 289.5 " fill="#000000"/>
<path class="atom-19" d="M 106.0 300.4 Q 103.6 300.4, 102.4 298.6 Q 101.2 296.8, 101.2 293.6 Q 101.2 290.4, 102.4 288.6 Q 103.6 286.9, 106.0 286.9 Q 108.5 286.9, 109.6 288.6 Q 110.8 290.4, 110.8 293.6 Q 110.8 296.8, 109.6 298.6 Q 108.4 300.4, 106.0 300.4 M 106.0 298.9 Q 107.4 298.9, 108.2 297.5 Q 109.0 296.2, 109.0 293.6 Q 109.0 291.0, 108.2 289.7 Q 107.4 288.3, 106.0 288.3 Q 104.6 288.3, 103.8 289.7 Q 103.0 291.0, 103.0 293.6 Q 103.0 296.2, 103.8 297.5 Q 104.6 298.9, 106.0 298.9 " fill="#000000"/>
<path class="atom-20" d="M 131.7 144.1 L 133.4 144.1 L 133.4 149.8 L 140.2 149.8 L 140.2 144.1 L 142.0 144.1 L 142.0 157.4 L 140.2 157.4 L 140.2 151.2 L 133.4 151.2 L 133.4 157.4 L 131.7 157.4 L 131.7 144.1 " fill="#000000"/>
<path class="atom-20" d="M 143.4 155.2 L 145.3 155.2 L 145.3 157.0 L 143.4 157.0 L 143.4 155.2 M 143.4 148.7 L 145.3 148.7 L 145.3 150.6 L 143.4 150.6 L 143.4 148.7 " fill="#000000"/>
<path class="atom-20" d="M 146.2 146.6 Q 146.7 145.4, 147.9 144.7 Q 149.0 144.0, 150.6 144.0 Q 152.6 144.0, 153.8 145.1 Q 154.9 146.2, 154.9 148.1 Q 154.9 150.0, 153.4 151.9 Q 152.0 153.7, 149.0 155.9 L 155.1 155.9 L 155.1 157.4 L 146.2 157.4 L 146.2 156.1 Q 148.7 154.3, 150.1 153.0 Q 151.6 151.7, 152.3 150.6 Q 153.0 149.4, 153.0 148.2 Q 153.0 146.9, 152.4 146.2 Q 151.7 145.5, 150.6 145.5 Q 149.6 145.5, 148.9 145.9 Q 148.2 146.3, 147.6 147.3 L 146.2 146.6 " fill="#000000"/>
<path class="atom-20" d="M 156.8 155.9 L 159.7 155.9 L 159.7 146.0 L 156.5 147.0 L 156.1 145.9 L 160.2 144.1 L 161.5 144.3 L 161.5 155.9 L 164.1 155.9 L 164.1 157.4 L 156.8 157.4 L 156.8 155.9 " fill="#000000"/>
<path class="atom-21" d="M 138.0 238.6 Q 138.0 235.4, 139.6 233.6 Q 141.1 231.8, 144.1 231.8 Q 147.0 231.8, 148.6 233.6 Q 150.1 235.4, 150.1 238.6 Q 150.1 241.8, 148.6 243.6 Q 147.0 245.4, 144.1 245.4 Q 141.2 245.4, 139.6 243.6 Q 138.0 241.8, 138.0 238.6 M 144.1 243.9 Q 146.1 243.9, 147.2 242.6 Q 148.3 241.2, 148.3 238.6 Q 148.3 236.0, 147.2 234.7 Q 146.1 233.3, 144.1 233.3 Q 142.1 233.3, 141.0 234.6 Q 139.9 236.0, 139.9 238.6 Q 139.9 241.2, 141.0 242.6 Q 142.1 243.9, 144.1 243.9 " fill="#FF0000"/>
<path class="atom-21" d="M 151.5 243.0 L 153.4 243.0 L 153.4 244.9 L 151.5 244.9 L 151.5 243.0 M 151.5 236.6 L 153.4 236.6 L 153.4 238.5 L 151.5 238.5 L 151.5 236.6 " fill="#FF0000"/>
<path class="atom-21" d="M 154.4 234.5 Q 154.9 233.2, 156.0 232.6 Q 157.2 231.8, 158.8 231.8 Q 160.8 231.8, 161.9 232.9 Q 163.0 234.0, 163.0 235.9 Q 163.0 237.9, 161.6 239.7 Q 160.1 241.5, 157.1 243.7 L 163.2 243.7 L 163.2 245.2 L 154.3 245.2 L 154.3 244.0 Q 156.8 242.2, 158.3 240.9 Q 159.7 239.6, 160.4 238.4 Q 161.2 237.2, 161.2 236.0 Q 161.2 234.8, 160.5 234.0 Q 159.9 233.3, 158.8 233.3 Q 157.7 233.3, 157.0 233.8 Q 156.3 234.2, 155.8 235.1 L 154.4 234.5 " fill="#FF0000"/>
<path class="atom-21" d="M 164.2 234.5 Q 164.7 233.2, 165.9 232.6 Q 167.0 231.8, 168.6 231.8 Q 170.6 231.8, 171.7 232.9 Q 172.9 234.0, 172.9 235.9 Q 172.9 237.9, 171.4 239.7 Q 170.0 241.5, 167.0 243.7 L 173.1 243.7 L 173.1 245.2 L 164.2 245.2 L 164.2 244.0 Q 166.6 242.2, 168.1 240.9 Q 169.6 239.6, 170.3 238.4 Q 171.0 237.2, 171.0 236.0 Q 171.0 234.8, 170.4 234.0 Q 169.7 233.3, 168.6 233.3 Q 167.6 233.3, 166.8 233.8 Q 166.1 234.2, 165.6 235.1 L 164.2 234.5 " fill="#FF0000"/>
<path class="atom-22" d="M 271.2 357.0 L 273.0 357.0 L 273.0 362.6 L 279.7 362.6 L 279.7 357.0 L 281.5 357.0 L 281.5 370.2 L 279.7 370.2 L 279.7 364.1 L 273.0 364.1 L 273.0 370.2 L 271.2 370.2 L 271.2 357.0 " fill="#000000"/>
<path class="atom-22" d="M 282.9 368.0 L 284.8 368.0 L 284.8 369.8 L 282.9 369.8 L 282.9 368.0 M 282.9 361.6 L 284.8 361.6 L 284.8 363.4 L 282.9 363.4 L 282.9 361.6 " fill="#000000"/>
<path class="atom-22" d="M 285.8 359.5 Q 286.2 358.2, 287.4 357.5 Q 288.5 356.8, 290.2 356.8 Q 292.2 356.8, 293.3 357.9 Q 294.4 359.0, 294.4 360.9 Q 294.4 362.8, 292.9 364.7 Q 291.5 366.5, 288.5 368.7 L 294.6 368.7 L 294.6 370.2 L 285.7 370.2 L 285.7 368.9 Q 288.2 367.2, 289.6 365.9 Q 291.1 364.5, 291.8 363.4 Q 292.5 362.2, 292.5 361.0 Q 292.5 359.7, 291.9 359.0 Q 291.3 358.3, 290.2 358.3 Q 289.1 358.3, 288.4 358.7 Q 287.7 359.2, 287.2 360.1 L 285.8 359.5 " fill="#000000"/>
<path class="atom-22" d="M 301.7 363.2 Q 303.0 363.6, 303.6 364.4 Q 304.3 365.2, 304.3 366.5 Q 304.3 367.7, 303.7 368.5 Q 303.2 369.4, 302.1 369.9 Q 301.1 370.4, 299.8 370.4 Q 298.3 370.4, 297.3 369.9 Q 296.2 369.4, 295.4 368.4 L 296.5 367.3 Q 297.3 368.2, 298.0 368.5 Q 298.7 368.9, 299.8 368.9 Q 301.0 368.9, 301.7 368.2 Q 302.4 367.6, 302.4 366.5 Q 302.4 365.2, 301.7 364.6 Q 300.9 364.0, 299.3 364.0 L 298.3 364.0 L 298.3 362.6 L 299.2 362.6 Q 300.6 362.6, 301.4 362.0 Q 302.1 361.4, 302.1 360.2 Q 302.1 359.3, 301.5 358.8 Q 300.9 358.3, 299.8 358.3 Q 298.7 358.3, 298.0 358.7 Q 297.3 359.1, 296.8 360.1 L 295.5 359.4 Q 296.0 358.3, 297.1 357.6 Q 298.2 356.8, 299.8 356.8 Q 301.7 356.8, 302.9 357.7 Q 304.0 358.6, 304.0 360.2 Q 304.0 361.2, 303.4 362.0 Q 302.8 362.8, 301.7 363.2 " fill="#000000"/>
<path class="atom-23" d="M 323.1 195.2 L 324.9 195.2 L 324.9 200.8 L 331.7 200.8 L 331.7 195.2 L 333.5 195.2 L 333.5 208.4 L 331.7 208.4 L 331.7 202.3 L 324.9 202.3 L 324.9 208.4 L 323.1 208.4 L 323.1 195.2 " fill="#000000"/>
<path class="atom-23" d="M 334.9 206.2 L 336.7 206.2 L 336.7 208.1 L 334.9 208.1 L 334.9 206.2 M 334.9 199.8 L 336.7 199.8 L 336.7 201.7 L 334.9 201.7 L 334.9 199.8 " fill="#000000"/>
<path class="atom-23" d="M 337.7 197.7 Q 338.2 196.5, 339.4 195.8 Q 340.5 195.1, 342.1 195.1 Q 344.1 195.1, 345.2 196.1 Q 346.4 197.2, 346.4 199.1 Q 346.4 201.1, 344.9 202.9 Q 343.5 204.8, 340.5 206.9 L 346.6 206.9 L 346.6 208.4 L 337.7 208.4 L 337.7 207.2 Q 340.1 205.4, 341.6 204.1 Q 343.1 202.8, 343.8 201.6 Q 344.5 200.5, 344.5 199.2 Q 344.5 198.0, 343.9 197.3 Q 343.2 196.6, 342.1 196.6 Q 341.1 196.6, 340.3 197.0 Q 339.6 197.4, 339.1 198.4 L 337.7 197.7 " fill="#000000"/>
<path class="atom-23" d="M 355.7 203.9 L 357.3 203.9 L 357.3 205.4 L 355.7 205.4 L 355.7 208.4 L 354.0 208.4 L 354.0 205.4 L 347.1 205.4 L 347.1 204.2 L 352.9 195.2 L 355.7 195.2 L 355.7 203.9 M 349.3 203.9 L 354.0 203.9 L 354.0 196.4 L 349.3 203.9 " fill="#000000"/>
<path class="atom-24" d="M 387.0 370.3 L 388.8 370.3 L 388.8 375.9 L 395.6 375.9 L 395.6 370.3 L 397.4 370.3 L 397.4 383.5 L 395.6 383.5 L 395.6 377.4 L 388.8 377.4 L 388.8 383.5 L 387.0 383.5 L 387.0 370.3 " fill="#000000"/>
<path class="atom-24" d="M 398.8 381.3 L 400.6 381.3 L 400.6 383.2 L 398.8 383.2 L 398.8 381.3 M 398.8 374.9 L 400.6 374.9 L 400.6 376.7 L 398.8 376.7 L 398.8 374.9 " fill="#000000"/>
<path class="atom-24" d="M 401.6 372.8 Q 402.1 371.5, 403.2 370.8 Q 404.4 370.1, 406.0 370.1 Q 408.0 370.1, 409.1 371.2 Q 410.2 372.3, 410.2 374.2 Q 410.2 376.2, 408.8 378.0 Q 407.3 379.8, 404.4 382.0 L 410.5 382.0 L 410.5 383.5 L 401.6 383.5 L 401.6 382.2 Q 404.0 380.5, 405.5 379.2 Q 407.0 377.9, 407.7 376.7 Q 408.4 375.5, 408.4 374.3 Q 408.4 373.0, 407.7 372.3 Q 407.1 371.6, 406.0 371.6 Q 404.9 371.6, 404.2 372.0 Q 403.5 372.5, 403.0 373.4 L 401.6 372.8 " fill="#000000"/>
<path class="atom-24" d="M 416.1 375.2 Q 417.3 375.2, 418.2 375.7 Q 419.2 376.2, 419.7 377.1 Q 420.3 378.1, 420.3 379.3 Q 420.3 380.7, 419.6 381.7 Q 418.9 382.6, 417.8 383.1 Q 416.8 383.6, 415.5 383.6 Q 414.3 383.6, 413.2 383.2 Q 412.1 382.7, 411.3 381.9 L 412.4 380.7 Q 413.1 381.4, 413.9 381.8 Q 414.7 382.1, 415.6 382.1 Q 416.8 382.1, 417.6 381.4 Q 418.4 380.7, 418.4 379.3 Q 418.4 377.9, 417.6 377.3 Q 416.8 376.6, 415.5 376.6 Q 414.3 376.6, 413.0 377.1 L 412.0 376.6 L 412.6 370.3 L 419.4 370.3 L 419.2 371.8 L 414.2 371.8 L 413.8 375.7 Q 415.0 375.2, 416.1 375.2 " fill="#000000"/>
<path class="atom-25" d="M 410.1 210.3 L 411.9 210.3 L 411.9 215.9 L 418.6 215.9 L 418.6 210.3 L 420.4 210.3 L 420.4 223.5 L 418.6 223.5 L 418.6 217.4 L 411.9 217.4 L 411.9 223.5 L 410.1 223.5 L 410.1 210.3 " fill="#000000"/>
<path class="atom-25" d="M 421.8 221.3 L 423.7 221.3 L 423.7 223.2 L 421.8 223.2 L 421.8 221.3 M 421.8 214.9 L 423.7 214.9 L 423.7 216.8 L 421.8 216.8 L 421.8 214.9 " fill="#000000"/>
<path class="atom-25" d="M 424.7 212.8 Q 425.1 211.6, 426.3 210.9 Q 427.5 210.2, 429.1 210.2 Q 431.1 210.2, 432.2 211.2 Q 433.3 212.3, 433.3 214.3 Q 433.3 216.2, 431.8 218.0 Q 430.4 219.9, 427.4 222.0 L 433.5 222.0 L 433.5 223.5 L 424.6 223.5 L 424.6 222.3 Q 427.1 220.5, 428.5 219.2 Q 430.0 217.9, 430.7 216.7 Q 431.4 215.6, 431.4 214.3 Q 431.4 213.1, 430.8 212.4 Q 430.2 211.7, 429.1 211.7 Q 428.0 211.7, 427.3 212.1 Q 426.6 212.5, 426.1 213.5 L 424.7 212.8 " fill="#000000"/>
<path class="atom-25" d="M 440.0 215.3 Q 441.1 215.3, 442.0 215.8 Q 442.9 216.3, 443.5 217.2 Q 444.0 218.1, 444.0 219.3 Q 444.0 220.6, 443.4 221.6 Q 442.8 222.6, 441.8 223.1 Q 440.8 223.7, 439.5 223.7 Q 437.2 223.7, 436.0 222.1 Q 434.8 220.5, 434.8 217.3 Q 434.8 213.8, 436.2 212.0 Q 437.7 210.2, 440.5 210.2 Q 441.4 210.2, 442.1 210.4 Q 442.8 210.5, 443.4 210.9 L 442.7 212.2 Q 441.7 211.7, 440.6 211.7 Q 438.7 211.7, 437.7 212.9 Q 436.8 214.1, 436.7 216.5 Q 437.3 215.9, 438.2 215.6 Q 439.0 215.3, 440.0 215.3 M 439.5 222.1 Q 440.2 222.1, 440.8 221.8 Q 441.4 221.4, 441.8 220.7 Q 442.1 220.1, 442.1 219.3 Q 442.1 218.1, 441.4 217.4 Q 440.8 216.8, 439.6 216.8 Q 438.8 216.8, 438.0 217.1 Q 437.2 217.4, 436.7 218.0 Q 436.8 220.2, 437.4 221.2 Q 438.1 222.1, 439.5 222.1 " fill="#000000"/>
<path class="atom-26" d="M 444.7 296.9 L 446.5 296.9 L 446.5 302.6 L 453.3 302.6 L 453.3 296.9 L 455.1 296.9 L 455.1 310.2 L 453.3 310.2 L 453.3 304.1 L 446.5 304.1 L 446.5 310.2 L 444.7 310.2 L 444.7 296.9 " fill="#000000"/>
<path class="atom-26" d="M 456.5 308.0 L 458.3 308.0 L 458.3 309.8 L 456.5 309.8 L 456.5 308.0 M 456.5 301.6 L 458.3 301.6 L 458.3 303.4 L 456.5 303.4 L 456.5 301.6 " fill="#000000"/>
<path class="atom-26" d="M 459.3 299.4 Q 459.8 298.2, 460.9 297.5 Q 462.1 296.8, 463.7 296.8 Q 465.7 296.8, 466.8 297.9 Q 467.9 299.0, 467.9 300.9 Q 467.9 302.8, 466.5 304.7 Q 465.0 306.5, 462.1 308.7 L 468.2 308.7 L 468.2 310.2 L 459.3 310.2 L 459.3 308.9 Q 461.7 307.2, 463.2 305.9 Q 464.7 304.5, 465.4 303.4 Q 466.1 302.2, 466.1 301.0 Q 466.1 299.7, 465.4 299.0 Q 464.8 298.3, 463.7 298.3 Q 462.6 298.3, 461.9 298.7 Q 461.2 299.2, 460.7 300.1 L 459.3 299.4 " fill="#000000"/>
<path class="atom-26" d="M 475.4 298.4 L 468.5 298.4 L 468.5 296.9 L 477.3 296.9 L 477.3 298.3 L 471.9 310.2 L 470.1 310.2 L 475.4 298.4 " fill="#000000"/>
<path class="atom-27" d="M 173.5 380.3 L 175.3 380.3 L 175.3 385.9 L 182.0 385.9 L 182.0 380.3 L 183.8 380.3 L 183.8 393.5 L 182.0 393.5 L 182.0 387.4 L 175.3 387.4 L 175.3 393.5 L 173.5 393.5 L 173.5 380.3 " fill="#000000"/>
<path class="atom-27" d="M 185.2 391.3 L 187.1 391.3 L 187.1 393.2 L 185.2 393.2 L 185.2 391.3 M 185.2 384.9 L 187.1 384.9 L 187.1 386.8 L 185.2 386.8 L 185.2 384.9 " fill="#000000"/>
<path class="atom-27" d="M 188.0 382.8 Q 188.5 381.5, 189.7 380.9 Q 190.8 380.1, 192.4 380.1 Q 194.4 380.1, 195.6 381.2 Q 196.7 382.3, 196.7 384.2 Q 196.7 386.2, 195.2 388.0 Q 193.8 389.9, 190.8 392.0 L 196.9 392.0 L 196.9 393.5 L 188.0 393.5 L 188.0 392.3 Q 190.5 390.5, 191.9 389.2 Q 193.4 387.9, 194.1 386.7 Q 194.8 385.5, 194.8 384.3 Q 194.8 383.1, 194.2 382.3 Q 193.5 381.6, 192.4 381.6 Q 191.4 381.6, 190.7 382.1 Q 190.0 382.5, 189.5 383.5 L 188.0 382.8 " fill="#000000"/>
<path class="atom-27" d="M 204.8 386.5 Q 206.0 387.0, 206.7 387.8 Q 207.4 388.6, 207.4 389.9 Q 207.4 391.0, 206.8 391.9 Q 206.2 392.7, 205.2 393.2 Q 204.2 393.7, 202.8 393.7 Q 200.6 393.7, 199.3 392.7 Q 198.1 391.7, 198.1 389.9 Q 198.1 388.8, 198.6 388.0 Q 199.2 387.2, 200.3 386.6 Q 199.5 386.1, 199.0 385.4 Q 198.5 384.6, 198.5 383.5 Q 198.5 382.0, 199.7 381.1 Q 200.8 380.1, 202.7 380.1 Q 204.6 380.1, 205.8 381.1 Q 206.9 382.0, 206.9 383.5 Q 206.9 384.5, 206.4 385.2 Q 205.8 385.9, 204.8 386.5 M 202.7 381.5 Q 201.6 381.5, 201.0 382.1 Q 200.4 382.6, 200.4 383.5 Q 200.4 384.2, 200.8 384.7 Q 201.2 385.1, 201.8 385.4 Q 202.4 385.7, 203.5 386.0 Q 204.4 385.5, 204.7 384.9 Q 205.0 384.3, 205.0 383.5 Q 205.0 382.6, 204.4 382.1 Q 203.8 381.5, 202.7 381.5 M 202.8 392.3 Q 204.0 392.3, 204.8 391.6 Q 205.5 391.0, 205.5 389.9 Q 205.5 389.2, 205.1 388.7 Q 204.7 388.3, 204.1 388.0 Q 203.6 387.7, 202.5 387.4 L 201.7 387.1 Q 200.7 387.7, 200.3 388.4 Q 199.9 389.0, 199.9 389.9 Q 199.9 391.0, 200.7 391.6 Q 201.5 392.3, 202.8 392.3 " fill="#000000"/>
<path class="atom-28" d="M 177.8 234.4 L 179.6 234.4 L 179.6 240.0 L 186.4 240.0 L 186.4 234.4 L 188.2 234.4 L 188.2 247.6 L 186.4 247.6 L 186.4 241.5 L 179.6 241.5 L 179.6 247.6 L 177.8 247.6 L 177.8 234.4 " fill="#000000"/>
<path class="atom-28" d="M 189.6 245.4 L 191.4 245.4 L 191.4 247.3 L 189.6 247.3 L 189.6 245.4 M 189.6 239.0 L 191.4 239.0 L 191.4 240.9 L 189.6 240.9 L 189.6 239.0 " fill="#000000"/>
<path class="atom-28" d="M 192.4 236.9 Q 192.9 235.6, 194.1 234.9 Q 195.2 234.2, 196.8 234.2 Q 198.8 234.2, 199.9 235.3 Q 201.1 236.4, 201.1 238.3 Q 201.1 240.3, 199.6 242.1 Q 198.2 243.9, 195.2 246.1 L 201.3 246.1 L 201.3 247.6 L 192.4 247.6 L 192.4 246.3 Q 194.8 244.6, 196.3 243.3 Q 197.8 242.0, 198.5 240.8 Q 199.2 239.6, 199.2 238.4 Q 199.2 237.1, 198.6 236.4 Q 197.9 235.7, 196.8 235.7 Q 195.8 235.7, 195.0 236.2 Q 194.3 236.6, 193.8 237.5 L 192.4 236.9 " fill="#000000"/>
<path class="atom-28" d="M 206.7 234.2 Q 209.1 234.2, 210.3 235.8 Q 211.5 237.4, 211.5 240.6 Q 211.5 244.1, 210.0 245.9 Q 208.5 247.7, 205.7 247.7 Q 204.9 247.7, 204.2 247.6 Q 203.5 247.4, 202.8 247.0 L 203.6 245.7 Q 204.5 246.3, 205.7 246.3 Q 207.6 246.3, 208.5 245.1 Q 209.5 243.8, 209.6 241.4 Q 208.9 242.0, 208.1 242.3 Q 207.2 242.6, 206.3 242.6 Q 205.1 242.6, 204.2 242.1 Q 203.3 241.6, 202.8 240.7 Q 202.3 239.8, 202.3 238.6 Q 202.3 237.4, 202.9 236.4 Q 203.4 235.4, 204.5 234.8 Q 205.5 234.2, 206.7 234.2 M 204.2 238.6 Q 204.2 239.8, 204.8 240.5 Q 205.5 241.1, 206.6 241.1 Q 207.4 241.1, 208.2 240.8 Q 209.0 240.5, 209.6 239.9 Q 209.5 237.7, 208.8 236.8 Q 208.1 235.8, 206.7 235.8 Q 206.0 235.8, 205.4 236.1 Q 204.8 236.5, 204.5 237.2 Q 204.2 237.8, 204.2 238.6 " fill="#000000"/>
<path class="atom-29" d="M 57.0 367.0 L 58.8 367.0 L 58.8 372.6 L 65.6 372.6 L 65.6 367.0 L 67.4 367.0 L 67.4 380.2 L 65.6 380.2 L 65.6 374.1 L 58.8 374.1 L 58.8 380.2 L 57.0 380.2 L 57.0 367.0 " fill="#000000"/>
<path class="atom-29" d="M 68.8 378.0 L 70.6 378.0 L 70.6 379.9 L 68.8 379.9 L 68.8 378.0 M 68.8 371.6 L 70.6 371.6 L 70.6 373.5 L 68.8 373.5 L 68.8 371.6 " fill="#000000"/>
<path class="atom-29" d="M 77.8 373.2 Q 79.1 373.6, 79.7 374.4 Q 80.3 375.3, 80.3 376.6 Q 80.3 377.7, 79.8 378.6 Q 79.2 379.4, 78.2 379.9 Q 77.1 380.4, 75.8 380.4 Q 74.4 380.4, 73.3 379.9 Q 72.3 379.4, 71.4 378.4 L 72.5 377.3 Q 73.3 378.2, 74.0 378.6 Q 74.7 378.9, 75.8 378.9 Q 77.0 378.9, 77.7 378.3 Q 78.4 377.6, 78.4 376.6 Q 78.4 375.2, 77.7 374.6 Q 76.9 374.0, 75.3 374.0 L 74.4 374.0 L 74.4 372.7 L 75.2 372.7 Q 76.6 372.6, 77.4 372.0 Q 78.2 371.4, 78.2 370.2 Q 78.2 369.4, 77.5 368.8 Q 76.9 368.3, 75.8 368.3 Q 74.7 368.3, 74.0 368.7 Q 73.4 369.1, 72.8 370.1 L 71.5 369.4 Q 72.0 368.3, 73.1 367.6 Q 74.2 366.8, 75.8 366.8 Q 77.8 366.8, 78.9 367.7 Q 80.0 368.7, 80.0 370.2 Q 80.0 371.3, 79.5 372.0 Q 78.9 372.8, 77.8 373.2 " fill="#000000"/>
<path class="atom-29" d="M 86.3 380.3 Q 83.9 380.3, 82.6 378.6 Q 81.5 376.8, 81.5 373.6 Q 81.5 370.4, 82.6 368.6 Q 83.8 366.8, 86.3 366.8 Q 88.7 366.8, 89.9 368.6 Q 91.1 370.4, 91.1 373.6 Q 91.1 376.8, 89.9 378.6 Q 88.7 380.3, 86.3 380.3 M 86.3 378.8 Q 87.7 378.8, 88.5 377.5 Q 89.3 376.2, 89.3 373.6 Q 89.3 371.0, 88.5 369.7 Q 87.7 368.3, 86.3 368.3 Q 84.9 368.3, 84.1 369.7 Q 83.3 371.0, 83.3 373.6 Q 83.3 376.2, 84.1 377.5 Q 84.9 378.8, 86.3 378.8 " fill="#000000"/>
<path class="atom-30" d="M 81.1 207.0 L 82.9 207.0 L 82.9 212.6 L 89.6 212.6 L 89.6 207.0 L 91.4 207.0 L 91.4 220.2 L 89.6 220.2 L 89.6 214.1 L 82.9 214.1 L 82.9 220.2 L 81.1 220.2 L 81.1 207.0 " fill="#000000"/>
<path class="atom-30" d="M 92.8 218.1 L 94.7 218.1 L 94.7 219.9 L 92.8 219.9 L 92.8 218.1 M 92.8 211.6 L 94.7 211.6 L 94.7 213.5 L 92.8 213.5 L 92.8 211.6 " fill="#000000"/>
<path class="atom-30" d="M 101.8 213.3 Q 103.1 213.7, 103.7 214.5 Q 104.4 215.3, 104.4 216.6 Q 104.4 217.7, 103.8 218.6 Q 103.2 219.5, 102.2 220.0 Q 101.2 220.4, 99.8 220.4 Q 98.4 220.4, 97.4 219.9 Q 96.3 219.4, 95.5 218.4 L 96.5 217.3 Q 97.4 218.2, 98.1 218.6 Q 98.7 218.9, 99.8 218.9 Q 101.0 218.9, 101.8 218.3 Q 102.5 217.6, 102.5 216.6 Q 102.5 215.3, 101.7 214.7 Q 101.0 214.0, 99.4 214.0 L 98.4 214.0 L 98.4 212.7 L 99.2 212.7 Q 100.7 212.7, 101.4 212.1 Q 102.2 211.4, 102.2 210.3 Q 102.2 209.4, 101.6 208.9 Q 100.9 208.4, 99.9 208.4 Q 98.8 208.4, 98.1 208.8 Q 97.4 209.2, 96.9 210.1 L 95.6 209.5 Q 96.1 208.4, 97.2 207.6 Q 98.3 206.9, 99.9 206.9 Q 101.8 206.9, 102.9 207.8 Q 104.1 208.7, 104.1 210.3 Q 104.1 211.3, 103.5 212.1 Q 102.9 212.8, 101.8 213.3 " fill="#000000"/>
<path class="atom-30" d="M 106.1 218.7 L 109.0 218.7 L 109.0 208.9 L 105.8 209.9 L 105.4 208.8 L 109.4 207.0 L 110.7 207.2 L 110.7 218.7 L 113.3 218.7 L 113.3 220.2 L 106.1 220.2 L 106.1 218.7 " fill="#000000"/>
<path class="atom-31" d="M 313.4 178.8 L 315.2 178.8 L 315.2 184.4 L 321.9 184.4 L 321.9 178.8 L 323.7 178.8 L 323.7 192.0 L 321.9 192.0 L 321.9 185.9 L 315.2 185.9 L 315.2 192.0 L 313.4 192.0 L 313.4 178.8 " fill="#000000"/>
<path class="atom-31" d="M 325.1 189.8 L 327.0 189.8 L 327.0 191.7 L 325.1 191.7 L 325.1 189.8 M 325.1 183.4 L 327.0 183.4 L 327.0 185.3 L 325.1 185.3 L 325.1 183.4 " fill="#000000"/>
<path class="atom-31" d="M 334.1 185.0 Q 335.4 185.4, 336.0 186.2 Q 336.7 187.1, 336.7 188.4 Q 336.7 189.5, 336.1 190.4 Q 335.5 191.2, 334.5 191.7 Q 333.5 192.2, 332.2 192.2 Q 330.7 192.2, 329.7 191.7 Q 328.6 191.2, 327.8 190.2 L 328.8 189.1 Q 329.7 190.0, 330.4 190.4 Q 331.0 190.7, 332.2 190.7 Q 333.3 190.7, 334.1 190.1 Q 334.8 189.4, 334.8 188.4 Q 334.8 187.0, 334.0 186.4 Q 333.3 185.8, 331.7 185.8 L 330.7 185.8 L 330.7 184.5 L 331.6 184.5 Q 333.0 184.4, 333.8 183.8 Q 334.5 183.2, 334.5 182.0 Q 334.5 181.2, 333.9 180.7 Q 333.3 180.1, 332.2 180.1 Q 331.1 180.1, 330.4 180.5 Q 329.7 180.9, 329.2 181.9 L 327.9 181.2 Q 328.4 180.1, 329.5 179.4 Q 330.6 178.6, 332.2 178.6 Q 334.1 178.6, 335.2 179.6 Q 336.4 180.5, 336.4 182.0 Q 336.4 183.1, 335.8 183.8 Q 335.2 184.6, 334.1 185.0 " fill="#000000"/>
<path class="atom-31" d="M 337.6 181.3 Q 338.1 180.0, 339.3 179.3 Q 340.4 178.6, 342.0 178.6 Q 344.0 178.6, 345.2 179.7 Q 346.3 180.8, 346.3 182.7 Q 346.3 184.7, 344.8 186.5 Q 343.4 188.3, 340.4 190.5 L 346.5 190.5 L 346.5 192.0 L 337.6 192.0 L 337.6 190.7 Q 340.1 189.0, 341.5 187.7 Q 343.0 186.4, 343.7 185.2 Q 344.4 184.0, 344.4 182.8 Q 344.4 181.5, 343.8 180.8 Q 343.1 180.1, 342.0 180.1 Q 341.0 180.1, 340.3 180.6 Q 339.6 181.0, 339.1 181.9 L 337.6 181.3 " fill="#000000"/>
<path class="atom-32" d="M 249.2 106.5 L 250.9 106.5 L 250.9 112.1 L 257.7 112.1 L 257.7 106.5 L 259.5 106.5 L 259.5 119.7 L 257.7 119.7 L 257.7 113.6 L 250.9 113.6 L 250.9 119.7 L 249.2 119.7 L 249.2 106.5 " fill="#000000"/>
<path class="atom-32" d="M 260.9 117.5 L 262.8 117.5 L 262.8 119.3 L 260.9 119.3 L 260.9 117.5 M 260.9 111.1 L 262.8 111.1 L 262.8 112.9 L 260.9 112.9 L 260.9 111.1 " fill="#000000"/>
<path class="atom-32" d="M 269.9 112.7 Q 271.2 113.1, 271.8 113.9 Q 272.4 114.7, 272.4 116.0 Q 272.4 117.2, 271.9 118.0 Q 271.3 118.9, 270.3 119.4 Q 269.3 119.9, 267.9 119.9 Q 266.5 119.9, 265.4 119.4 Q 264.4 118.9, 263.5 117.9 L 264.6 116.8 Q 265.4 117.7, 266.1 118.0 Q 266.8 118.4, 267.9 118.4 Q 269.1 118.4, 269.8 117.7 Q 270.6 117.1, 270.6 116.0 Q 270.6 114.7, 269.8 114.1 Q 269.0 113.5, 267.4 113.5 L 266.5 113.5 L 266.5 112.1 L 267.3 112.1 Q 268.8 112.1, 269.5 111.5 Q 270.3 110.9, 270.3 109.7 Q 270.3 108.8, 269.6 108.3 Q 269.0 107.8, 267.9 107.8 Q 266.8 107.8, 266.1 108.2 Q 265.5 108.6, 264.9 109.6 L 263.7 108.9 Q 264.1 107.8, 265.2 107.1 Q 266.4 106.3, 267.9 106.3 Q 269.9 106.3, 271.0 107.2 Q 272.1 108.1, 272.1 109.7 Q 272.1 110.7, 271.6 111.5 Q 271.0 112.3, 269.9 112.7 " fill="#000000"/>
<path class="atom-32" d="M 279.6 112.7 Q 280.8 113.1, 281.5 113.9 Q 282.1 114.7, 282.1 116.0 Q 282.1 117.2, 281.5 118.0 Q 281.0 118.9, 279.9 119.4 Q 278.9 119.9, 277.6 119.9 Q 276.2 119.9, 275.1 119.4 Q 274.1 118.9, 273.2 117.9 L 274.3 116.8 Q 275.1 117.7, 275.8 118.0 Q 276.5 118.4, 277.6 118.4 Q 278.8 118.4, 279.5 117.7 Q 280.2 117.1, 280.2 116.0 Q 280.2 114.7, 279.5 114.1 Q 278.7 113.5, 277.1 113.5 L 276.1 113.5 L 276.1 112.1 L 277.0 112.1 Q 278.4 112.1, 279.2 111.5 Q 279.9 110.9, 279.9 109.7 Q 279.9 108.8, 279.3 108.3 Q 278.7 107.8, 277.6 107.8 Q 276.5 107.8, 275.8 108.2 Q 275.1 108.6, 274.6 109.6 L 273.3 108.9 Q 273.8 107.8, 274.9 107.1 Q 276.0 106.3, 277.6 106.3 Q 279.5 106.3, 280.7 107.2 Q 281.8 108.1, 281.8 109.7 Q 281.8 110.7, 281.2 111.5 Q 280.7 112.3, 279.6 112.7 " fill="#000000"/>
<path class="atom-33" d="M 22.7 280.3 L 24.5 280.3 L 24.5 286.0 L 31.3 286.0 L 31.3 280.3 L 33.1 280.3 L 33.1 293.6 L 31.3 293.6 L 31.3 287.5 L 24.5 287.5 L 24.5 293.6 L 22.7 293.6 L 22.7 280.3 " fill="#000000"/>
<path class="atom-33" d="M 34.5 291.4 L 36.3 291.4 L 36.3 293.2 L 34.5 293.2 L 34.5 291.4 M 34.5 285.0 L 36.3 285.0 L 36.3 286.8 L 34.5 286.8 L 34.5 285.0 " fill="#000000"/>
<path class="atom-33" d="M 43.5 286.6 Q 44.7 287.0, 45.4 287.8 Q 46.0 288.6, 46.0 289.9 Q 46.0 291.1, 45.4 291.9 Q 44.9 292.8, 43.9 293.3 Q 42.8 293.7, 41.5 293.7 Q 40.1 293.7, 39.0 293.3 Q 38.0 292.8, 37.1 291.7 L 38.2 290.7 Q 39.0 291.6, 39.7 291.9 Q 40.4 292.3, 41.5 292.3 Q 42.7 292.3, 43.4 291.6 Q 44.1 291.0, 44.1 289.9 Q 44.1 288.6, 43.4 288.0 Q 42.6 287.4, 41.0 287.4 L 40.0 287.4 L 40.0 286.0 L 40.9 286.0 Q 42.3 286.0, 43.1 285.4 Q 43.9 284.8, 43.9 283.6 Q 43.9 282.7, 43.2 282.2 Q 42.6 281.7, 41.5 281.7 Q 40.4 281.7, 39.7 282.1 Q 39.0 282.5, 38.5 283.5 L 37.2 282.8 Q 37.7 281.7, 38.8 280.9 Q 39.9 280.2, 41.5 280.2 Q 43.4 280.2, 44.6 281.1 Q 45.7 282.0, 45.7 283.6 Q 45.7 284.6, 45.1 285.4 Q 44.6 286.2, 43.5 286.6 " fill="#000000"/>
<path class="atom-33" d="M 55.1 289.0 L 56.7 289.0 L 56.7 290.5 L 55.1 290.5 L 55.1 293.6 L 53.4 293.6 L 53.4 290.5 L 46.6 290.5 L 46.6 289.3 L 52.3 280.3 L 55.1 280.3 L 55.1 289.0 M 48.7 289.0 L 53.4 289.0 L 53.4 281.5 L 48.7 289.0 " fill="#000000"/>
<text x="250.76976851799276" y="295.17878349541394" font-size="12" font-family="Verdana" font-weight="bold" letter-spacing="0" text-anchor="start" fill="black" transform=" rotate(38.204746 250.769769 295.178783)">1.1732</text><text x="25" y="490" font-size="12" font-family="Verdana" font-weight="bold" letter-spacing="0" text-anchor="start" fill="black">[#6:1]1(-[#7:2](/[#6:3](=[#6:4]2/[#6:7](=[#6:10](-[#7:8](-[#6:9]-2=[#8:22])-[H:21])-[H:33])-[H:32])-[#6:6]2:[#6:11](:[#6:13](:[#6:15](:[#6:14](:[#6:12]:2-[H:24])-[H:26])-[H:27])-[H:25])-[H:23])-[H:5]):[#6:16](:[#6:18](:[#6:20](:[#6:19](:[#6:17]:1-[H:29])-[H:31])-[H:34])-[H:30])-[H:28]</text></svg>
