<?xml version='1.0' encoding='ASCII' standalone='yes'?>
<svg xmlns="http://www.w3.org/2000/svg" xmlns:rdkit="http://www.rdkit.org/xml" xmlns:xlink="http://www.w3.org/1999/xlink" version="1.1" baseProfile="full" xml:space="preserve" width="500px" height="500px" viewBox="0 0 500 500">
<!-- END OF HEADER -->
<rect style="opacity:1.0;fill:#FFFFFF;stroke:none" width="500" height="500" x="0" y="0"> </rect>
<path d="M 189.655,193.146 L 235.688,186.488" style="fill:none;fill-rule:evenodd;stroke:#FF7F7F;stroke-width:9.9px;stroke-linecap:butt;stroke-linejoin:miter;stroke-opacity:1"/>
<path class="bond-0 atom-0 atom-17" d="M 166.162,237.243 L 139.834,241.05" style="fill:none;fill-rule:evenodd;stroke:#000000;stroke-width:2.0px;stroke-linecap:butt;stroke-linejoin:miter;stroke-opacity:1"/>
<path class="bond-0 atom-0 atom-17" d="M 160.881,228.607 L 142.452,231.273" style="fill:none;fill-rule:evenodd;stroke:#000000;stroke-width:2.0px;stroke-linecap:butt;stroke-linejoin:miter;stroke-opacity:1"/>
<path class="bond-1 atom-0 atom-20" d="M 175.754,243.786 L 179.43,251.956" style="fill:none;fill-rule:evenodd;stroke:#000000;stroke-width:2.0px;stroke-linecap:butt;stroke-linejoin:miter;stroke-opacity:1"/>
<path class="bond-2 atom-1 atom-0" d="M 186.657,200.653 L 175.448,228.719" style="fill:none;fill-rule:evenodd;stroke:#000000;stroke-width:2.0px;stroke-linecap:butt;stroke-linejoin:miter;stroke-opacity:1"/>
<path class="bond-3 atom-1 atom-16" d="M 183.492,185.322 L 166.84,164.183" style="fill:none;fill-rule:evenodd;stroke:#000000;stroke-width:2.0px;stroke-linecap:butt;stroke-linejoin:miter;stroke-opacity:1"/>
<path class="bond-3 atom-1 atom-16" d="M 173.687,187.908 L 162.03,173.11" style="fill:none;fill-rule:evenodd;stroke:#000000;stroke-width:2.0px;stroke-linecap:butt;stroke-linejoin:miter;stroke-opacity:1"/>
<path class="bond-5 atom-2 atom-1" d="M 219.271,188.862 L 208.663,190.397" style="fill:none;fill-rule:evenodd;stroke:#0000FF;stroke-width:2.0px;stroke-linecap:butt;stroke-linejoin:miter;stroke-opacity:1"/>
<path class="bond-5 atom-2 atom-1" d="M 208.663,190.397 L 198.054,191.931" style="fill:none;fill-rule:evenodd;stroke:#000000;stroke-width:2.0px;stroke-linecap:butt;stroke-linejoin:miter;stroke-opacity:1"/>
<path class="bond-4 atom-2 atom-3" d="M 241.997,194.498 L 250.253,204.977" style="fill:none;fill-rule:evenodd;stroke:#0000FF;stroke-width:2.0px;stroke-linecap:butt;stroke-linejoin:miter;stroke-opacity:1"/>
<path class="bond-4 atom-2 atom-3" d="M 250.253,204.977 L 258.508,215.457" style="fill:none;fill-rule:evenodd;stroke:#000000;stroke-width:2.0px;stroke-linecap:butt;stroke-linejoin:miter;stroke-opacity:1"/>
<path class="bond-6 atom-2 atom-4" d="M 238.813,178.665 L 244.371,164.748" style="fill:none;fill-rule:evenodd;stroke:#0000FF;stroke-width:2.0px;stroke-linecap:butt;stroke-linejoin:miter;stroke-opacity:1"/>
<path class="bond-6 atom-2 atom-4" d="M 244.371,164.748 L 249.929,150.832" style="fill:none;fill-rule:evenodd;stroke:#000000;stroke-width:2.0px;stroke-linecap:butt;stroke-linejoin:miter;stroke-opacity:1"/>
<path class="bond-7 atom-3 atom-10" d="M 273.774,221.68 L 289.761,219.368" style="fill:none;fill-rule:evenodd;stroke:#000000;stroke-width:2.0px;stroke-linecap:butt;stroke-linejoin:miter;stroke-opacity:1"/>
<path class="bond-9 atom-5 atom-3" d="M 250.343,258.397 L 261.519,230.413" style="fill:none;fill-rule:evenodd;stroke:#000000;stroke-width:2.0px;stroke-linecap:butt;stroke-linejoin:miter;stroke-opacity:1"/>
<path class="bond-9 atom-5 atom-3" d="M 260.659,257.649 L 268.482,238.061" style="fill:none;fill-rule:evenodd;stroke:#000000;stroke-width:2.0px;stroke-linecap:butt;stroke-linejoin:miter;stroke-opacity:1"/>
<path class="bond-8 atom-5 atom-7" d="M 252.257,274.211 L 267.241,297.978" style="fill:none;fill-rule:evenodd;stroke:#000000;stroke-width:2.0px;stroke-linecap:butt;stroke-linejoin:miter;stroke-opacity:1"/>
<path class="bond-10 atom-5 atom-8" d="M 240.977,267.803 L 211.001,275.404" style="fill:none;fill-rule:evenodd;stroke:#000000;stroke-width:2.0px;stroke-linecap:butt;stroke-linejoin:miter;stroke-opacity:1"/>
<path class="bond-11 atom-6 atom-8" d="M 199.586,316.315 L 200.603,300.873" style="fill:none;fill-rule:evenodd;stroke:#0000FF;stroke-width:2.0px;stroke-linecap:butt;stroke-linejoin:miter;stroke-opacity:1"/>
<path class="bond-11 atom-6 atom-8" d="M 200.603,300.873 L 201.621,285.431" style="fill:none;fill-rule:evenodd;stroke:#000000;stroke-width:2.0px;stroke-linecap:butt;stroke-linejoin:miter;stroke-opacity:1"/>
<path class="bond-12 atom-6 atom-9" d="M 204.61,326.275 L 213.832,329.958" style="fill:none;fill-rule:evenodd;stroke:#0000FF;stroke-width:2.0px;stroke-linecap:butt;stroke-linejoin:miter;stroke-opacity:1"/>
<path class="bond-12 atom-6 atom-9" d="M 213.832,329.958 L 223.054,333.641" style="fill:none;fill-rule:evenodd;stroke:#000000;stroke-width:2.0px;stroke-linecap:butt;stroke-linejoin:miter;stroke-opacity:1"/>
<path class="bond-13 atom-6 atom-21" d="M 186.784,331.813 L 175.875,338.69" style="fill:none;fill-rule:evenodd;stroke:#0000FF;stroke-width:2.0px;stroke-linecap:butt;stroke-linejoin:miter;stroke-opacity:1"/>
<path class="bond-13 atom-6 atom-21" d="M 175.875,338.69 L 164.966,345.568" style="fill:none;fill-rule:evenodd;stroke:#000000;stroke-width:2.0px;stroke-linecap:butt;stroke-linejoin:miter;stroke-opacity:1"/>
<path class="bond-14 atom-7 atom-9" d="M 265.782,313.065 L 248.578,333.736" style="fill:none;fill-rule:evenodd;stroke:#000000;stroke-width:2.0px;stroke-linecap:butt;stroke-linejoin:miter;stroke-opacity:1"/>
<path class="bond-14 atom-7 atom-9" d="M 256.052,310.215 L 244.009,324.684" style="fill:none;fill-rule:evenodd;stroke:#000000;stroke-width:2.0px;stroke-linecap:butt;stroke-linejoin:miter;stroke-opacity:1"/>
<path class="bond-15 atom-7 atom-31" d="M 291.978,309.362 L 311.908,313.154" style="fill:none;fill-rule:evenodd;stroke:#000000;stroke-width:2.0px;stroke-linecap:butt;stroke-linejoin:miter;stroke-opacity:1"/>
<path class="bond-16 atom-8 atom-22" d="M 187.949,265.641 L 177.679,260.683" style="fill:none;fill-rule:evenodd;stroke:#000000;stroke-width:2.0px;stroke-linecap:butt;stroke-linejoin:miter;stroke-opacity:1"/>
<path class="bond-16 atom-8 atom-22" d="M 177.679,260.683 L 167.41,255.726" style="fill:none;fill-rule:evenodd;stroke:#FF0000;stroke-width:2.0px;stroke-linecap:butt;stroke-linejoin:miter;stroke-opacity:1"/>
<path class="bond-16 atom-8 atom-22" d="M 183.905,274.018 L 173.635,269.06" style="fill:none;fill-rule:evenodd;stroke:#000000;stroke-width:2.0px;stroke-linecap:butt;stroke-linejoin:miter;stroke-opacity:1"/>
<path class="bond-16 atom-8 atom-22" d="M 173.635,269.06 L 163.366,264.103" style="fill:none;fill-rule:evenodd;stroke:#FF0000;stroke-width:2.0px;stroke-linecap:butt;stroke-linejoin:miter;stroke-opacity:1"/>
<path class="bond-17 atom-9 atom-32" d="M 244.291,349.287 L 251.808,378.931" style="fill:none;fill-rule:evenodd;stroke:#000000;stroke-width:2.0px;stroke-linecap:butt;stroke-linejoin:miter;stroke-opacity:1"/>
<path class="bond-18 atom-10 atom-11" d="M 316.666,224.191 L 333.377,245.405" style="fill:none;fill-rule:evenodd;stroke:#000000;stroke-width:2.0px;stroke-linecap:butt;stroke-linejoin:miter;stroke-opacity:1"/>
<path class="bond-18 atom-10 atom-11" d="M 326.48,221.617 L 338.178,236.467" style="fill:none;fill-rule:evenodd;stroke:#000000;stroke-width:2.0px;stroke-linecap:butt;stroke-linejoin:miter;stroke-opacity:1"/>
<path class="bond-19 atom-10 atom-12" d="M 313.598,208.619 L 324.713,180.788" style="fill:none;fill-rule:evenodd;stroke:#000000;stroke-width:2.0px;stroke-linecap:butt;stroke-linejoin:miter;stroke-opacity:1"/>
<path class="bond-20 atom-11 atom-13" d="M 344.885,252.095 L 363.771,249.364" style="fill:none;fill-rule:evenodd;stroke:#000000;stroke-width:2.0px;stroke-linecap:butt;stroke-linejoin:miter;stroke-opacity:1"/>
<path class="bond-21 atom-11 atom-23" d="M 337.223,260.728 L 329.398,290.408" style="fill:none;fill-rule:evenodd;stroke:#000000;stroke-width:2.0px;stroke-linecap:butt;stroke-linejoin:miter;stroke-opacity:1"/>
<path class="bond-22 atom-12 atom-14" d="M 340.817,171.284 L 352.815,169.549" style="fill:none;fill-rule:evenodd;stroke:#000000;stroke-width:2.0px;stroke-linecap:butt;stroke-linejoin:miter;stroke-opacity:1"/>
<path class="bond-22 atom-12 atom-14" d="M 343.948,180.231 L 352.347,179.016" style="fill:none;fill-rule:evenodd;stroke:#000000;stroke-width:2.0px;stroke-linecap:butt;stroke-linejoin:miter;stroke-opacity:1"/>
<path class="bond-23 atom-12 atom-24" d="M 321.65,165.424 L 304.344,143.456" style="fill:none;fill-rule:evenodd;stroke:#000000;stroke-width:2.0px;stroke-linecap:butt;stroke-linejoin:miter;stroke-opacity:1"/>
<path class="bond-24 atom-13 atom-15" d="M 388.383,238.573 L 399.528,210.67" style="fill:none;fill-rule:evenodd;stroke:#000000;stroke-width:2.0px;stroke-linecap:butt;stroke-linejoin:miter;stroke-opacity:1"/>
<path class="bond-24 atom-13 atom-15" d="M 381.416,230.938 L 389.217,211.405" style="fill:none;fill-rule:evenodd;stroke:#000000;stroke-width:2.0px;stroke-linecap:butt;stroke-linejoin:miter;stroke-opacity:1"/>
<path class="bond-25 atom-13 atom-25" d="M 391.481,254.071 L 408.251,275.359" style="fill:none;fill-rule:evenodd;stroke:#000000;stroke-width:2.0px;stroke-linecap:butt;stroke-linejoin:miter;stroke-opacity:1"/>
<path class="bond-26 atom-14 atom-15" d="M 380.068,174.488 L 396.665,195.558" style="fill:none;fill-rule:evenodd;stroke:#000000;stroke-width:2.0px;stroke-linecap:butt;stroke-linejoin:miter;stroke-opacity:1"/>
<path class="bond-27 atom-14 atom-26" d="M 376.882,158.767 L 387.997,130.936" style="fill:none;fill-rule:evenodd;stroke:#000000;stroke-width:2.0px;stroke-linecap:butt;stroke-linejoin:miter;stroke-opacity:1"/>
<path class="bond-28 atom-15 atom-27" d="M 416.17,201.086 L 442.63,197.26" style="fill:none;fill-rule:evenodd;stroke:#000000;stroke-width:2.0px;stroke-linecap:butt;stroke-linejoin:miter;stroke-opacity:1"/>
<path class="bond-29 atom-16 atom-18" d="M 139.763,159.661 L 127.725,161.402" style="fill:none;fill-rule:evenodd;stroke:#000000;stroke-width:2.0px;stroke-linecap:butt;stroke-linejoin:miter;stroke-opacity:1"/>
<path class="bond-30 atom-16 atom-28" d="M 163.968,148.859 L 175.083,121.029" style="fill:none;fill-rule:evenodd;stroke:#000000;stroke-width:2.0px;stroke-linecap:butt;stroke-linejoin:miter;stroke-opacity:1"/>
<path class="bond-31 atom-17 atom-19" d="M 120.266,235.249 L 103.674,214.186" style="fill:none;fill-rule:evenodd;stroke:#000000;stroke-width:2.0px;stroke-linecap:butt;stroke-linejoin:miter;stroke-opacity:1"/>
<path class="bond-32 atom-17 atom-29" d="M 123.246,250.821 L 112.16,278.579" style="fill:none;fill-rule:evenodd;stroke:#000000;stroke-width:2.0px;stroke-linecap:butt;stroke-linejoin:miter;stroke-opacity:1"/>
<path class="bond-33 atom-18 atom-19" d="M 111.715,171.089 L 100.629,198.848" style="fill:none;fill-rule:evenodd;stroke:#000000;stroke-width:2.0px;stroke-linecap:butt;stroke-linejoin:miter;stroke-opacity:1"/>
<path class="bond-33 atom-18 atom-19" d="M 118.691,178.703 L 110.931,198.134" style="fill:none;fill-rule:evenodd;stroke:#000000;stroke-width:2.0px;stroke-linecap:butt;stroke-linejoin:miter;stroke-opacity:1"/>
<path class="bond-34 atom-18 atom-30" d="M 108.736,155.517 L 90.946,132.934" style="fill:none;fill-rule:evenodd;stroke:#000000;stroke-width:2.0px;stroke-linecap:butt;stroke-linejoin:miter;stroke-opacity:1"/>
<path class="bond-35 atom-19 atom-33" d="M 75.4186,209.667 L 57.228,212.297" style="fill:none;fill-rule:evenodd;stroke:#000000;stroke-width:2.0px;stroke-linecap:butt;stroke-linejoin:miter;stroke-opacity:1"/>
<path class="atom-0" d="M 167.325 236.396 Q 167.325 233.121, 168.85 231.41 Q 170.394 229.68, 173.315 229.68 Q 176.032 229.68, 177.483 231.596 L 176.255 232.601 Q 175.195 231.205, 173.315 231.205 Q 171.325 231.205, 170.264 232.545 Q 169.222 233.866, 169.222 236.396 Q 169.222 239.001, 170.301 240.34 Q 171.399 241.68, 173.52 241.68 Q 174.971 241.68, 176.664 240.805 L 177.185 242.201 Q 176.497 242.647, 175.455 242.908 Q 174.413 243.168, 173.26 243.168 Q 170.394 243.168, 168.85 241.419 Q 167.325 239.67, 167.325 236.396 " fill="#000000"/>
<path class="atom-0" d="M 178.878 240.824 L 180.739 240.824 L 180.739 242.684 L 178.878 242.684 L 178.878 240.824 M 178.878 234.424 L 180.739 234.424 L 180.739 236.284 L 178.878 236.284 L 178.878 234.424 " fill="#000000"/>
<path class="atom-0" d="M 182.469 241.512 L 185.353 241.512 L 185.353 231.67 L 182.171 232.656 L 181.743 231.559 L 185.781 229.754 L 187.102 229.977 L 187.102 241.512 L 189.688 241.512 L 189.688 243.001 L 182.469 243.001 L 182.469 241.512 " fill="#000000"/>
<path class="atom-1" d="M 174.087 193.201 Q 174.087 189.927, 175.613 188.215 Q 177.157 186.485, 180.078 186.485 Q 182.794 186.485, 184.246 188.401 L 183.018 189.406 Q 181.957 188.011, 180.078 188.011 Q 178.087 188.011, 177.027 189.35 Q 175.985 190.671, 175.985 193.201 Q 175.985 195.806, 177.064 197.146 Q 178.162 198.485, 180.283 198.485 Q 181.734 198.485, 183.427 197.611 L 183.948 199.006 Q 183.259 199.453, 182.218 199.713 Q 181.176 199.974, 180.022 199.974 Q 177.157 199.974, 175.613 198.225 Q 174.087 196.476, 174.087 193.201 " fill="#000000"/>
<path class="atom-1" d="M 185.641 197.629 L 187.501 197.629 L 187.501 199.49 L 185.641 199.49 L 185.641 197.629 M 185.641 191.229 L 187.501 191.229 L 187.501 193.09 L 185.641 193.09 L 185.641 191.229 " fill="#000000"/>
<path class="atom-1" d="M 188.469 189.127 Q 188.953 187.88, 190.106 187.192 Q 191.26 186.485, 192.86 186.485 Q 194.85 186.485, 195.967 187.564 Q 197.083 188.643, 197.083 190.559 Q 197.083 192.513, 195.632 194.336 Q 194.199 196.16, 191.222 198.318 L 197.306 198.318 L 197.306 199.806 L 188.432 199.806 L 188.432 198.56 Q 190.887 196.811, 192.339 195.508 Q 193.808 194.206, 194.515 193.034 Q 195.222 191.862, 195.222 190.652 Q 195.222 189.387, 194.59 188.68 Q 193.957 187.973, 192.86 187.973 Q 191.799 187.973, 191.092 188.401 Q 190.385 188.829, 189.883 189.778 L 188.469 189.127 " fill="#000000"/>
<path class="atom-2" d="M 222.517 179.976 L 226.834 186.953 Q 227.262 187.642, 227.95 188.888 Q 228.638 190.135, 228.676 190.209 L 228.676 179.976 L 230.424 179.976 L 230.424 193.149 L 228.62 193.149 L 223.987 185.521 Q 223.448 184.628, 222.871 183.604 Q 222.313 182.581, 222.145 182.265 L 222.145 193.149 L 220.434 193.149 L 220.434 179.976 L 222.517 179.976 " fill="#0000FF"/>
<path class="atom-2" d="M 231.82 190.972 L 233.68 190.972 L 233.68 192.832 L 231.82 192.832 L 231.82 190.972 M 231.82 184.572 L 233.68 184.572 L 233.68 186.432 L 231.82 186.432 L 231.82 184.572 " fill="#0000FF"/>
<path class="atom-2" d="M 240.787 186.209 Q 242.071 186.581, 242.685 187.418 Q 243.318 188.237, 243.318 189.539 Q 243.318 190.656, 242.759 191.53 Q 242.201 192.386, 241.178 192.87 Q 240.155 193.335, 238.815 193.335 Q 237.401 193.335, 236.341 192.851 Q 235.299 192.349, 234.462 191.344 L 235.522 190.265 Q 236.341 191.158, 237.029 191.511 Q 237.718 191.846, 238.815 191.846 Q 240.006 191.846, 240.732 191.214 Q 241.457 190.563, 241.457 189.521 Q 241.457 188.181, 240.694 187.586 Q 239.95 186.972, 238.331 186.972 L 237.383 186.972 L 237.383 185.632 L 238.22 185.632 Q 239.652 185.614, 240.415 185 Q 241.178 184.367, 241.178 183.195 Q 241.178 182.339, 240.545 181.837 Q 239.913 181.316, 238.834 181.316 Q 237.736 181.316, 237.048 181.707 Q 236.378 182.097, 235.857 183.083 L 234.573 182.395 Q 235.038 181.297, 236.155 180.572 Q 237.271 179.828, 238.834 179.828 Q 240.769 179.828, 241.904 180.739 Q 243.039 181.651, 243.039 183.195 Q 243.039 184.256, 242.462 185.018 Q 241.885 185.781, 240.787 186.209 " fill="#0000FF"/>
<path class="atom-3" d="M 248.499 223.081 Q 248.499 219.807, 250.025 218.095 Q 251.569 216.365, 254.49 216.365 Q 257.206 216.365, 258.658 218.281 L 257.43 219.286 Q 256.369 217.89, 254.49 217.89 Q 252.499 217.89, 251.439 219.23 Q 250.397 220.551, 250.397 223.081 Q 250.397 225.686, 251.476 227.025 Q 252.574 228.365, 254.695 228.365 Q 256.146 228.365, 257.839 227.491 L 258.36 228.886 Q 257.672 229.332, 256.63 229.593 Q 255.588 229.853, 254.434 229.853 Q 251.569 229.853, 250.025 228.104 Q 248.499 226.356, 248.499 223.081 " fill="#000000"/>
<path class="atom-3" d="M 260.053 227.509 L 261.913 227.509 L 261.913 229.37 L 260.053 229.37 L 260.053 227.509 M 260.053 221.109 L 261.913 221.109 L 261.913 222.97 L 260.053 222.97 L 260.053 221.109 " fill="#000000"/>
<path class="atom-3" d="M 271.03 225.165 L 272.611 225.165 L 272.611 226.653 L 271.03 226.653 L 271.03 229.686 L 269.281 229.686 L 269.281 226.653 L 262.472 226.653 L 262.472 225.481 L 268.239 216.514 L 271.03 216.514 L 271.03 225.165 M 264.63 225.165 L 269.281 225.165 L 269.281 217.704 L 264.63 225.165 " fill="#000000"/>
<path class="atom-4" d="M 247.786 136.707 L 249.572 136.707 L 249.572 142.308 L 256.307 142.308 L 256.307 136.707 L 258.093 136.707 L 258.093 149.88 L 256.307 149.88 L 256.307 143.796 L 249.572 143.796 L 249.572 149.88 L 247.786 149.88 L 247.786 136.707 " fill="#000000"/>
<path class="atom-4" d="M 259.488 147.703 L 261.349 147.703 L 261.349 149.563 L 259.488 149.563 L 259.488 147.703 M 259.488 141.303 L 261.349 141.303 L 261.349 143.163 L 259.488 143.163 L 259.488 141.303 " fill="#000000"/>
<path class="atom-4" d="M 266.986 141.638 Q 268.139 141.638, 269.088 142.14 Q 270.037 142.624, 270.577 143.554 Q 271.116 144.466, 271.116 145.712 Q 271.116 147.07, 270.446 148.056 Q 269.795 149.024, 268.716 149.526 Q 267.637 150.029, 266.409 150.029 Q 265.2 150.029, 264.083 149.582 Q 262.967 149.136, 262.204 148.28 L 263.321 147.126 Q 263.935 147.796, 264.772 148.168 Q 265.609 148.522, 266.465 148.522 Q 267.637 148.522, 268.437 147.796 Q 269.256 147.07, 269.256 145.749 Q 269.256 144.354, 268.437 143.703 Q 267.637 143.033, 266.353 143.033 Q 265.2 143.033, 263.916 143.535 L 262.893 143.052 L 263.525 136.707 L 270.297 136.707 L 270.111 138.196 L 265.051 138.196 L 264.66 142.103 Q 265.832 141.638, 266.986 141.638 " fill="#000000"/>
<path class="atom-5" d="M 242.14 266.276 Q 242.14 263.001, 243.665 261.29 Q 245.21 259.559, 248.131 259.559 Q 250.847 259.559, 252.298 261.476 L 251.07 262.48 Q 250.01 261.085, 248.131 261.085 Q 246.14 261.085, 245.079 262.425 Q 244.038 263.745, 244.038 266.276 Q 244.038 268.88, 245.117 270.22 Q 246.214 271.559, 248.335 271.559 Q 249.786 271.559, 251.479 270.685 L 252 272.08 Q 251.312 272.527, 250.27 272.787 Q 249.228 273.048, 248.075 273.048 Q 245.21 273.048, 243.665 271.299 Q 242.14 269.55, 242.14 266.276 " fill="#000000"/>
<path class="atom-5" d="M 253.693 270.704 L 255.554 270.704 L 255.554 272.564 L 253.693 272.564 L 253.693 270.704 M 253.693 264.304 L 255.554 264.304 L 255.554 266.164 L 253.693 266.164 L 253.693 264.304 " fill="#000000"/>
<path class="atom-5" d="M 261.973 264.657 Q 263.126 264.657, 264.038 265.159 Q 264.949 265.662, 265.452 266.573 Q 265.954 267.485, 265.954 268.639 Q 265.954 269.922, 265.377 270.927 Q 264.819 271.913, 263.814 272.471 Q 262.81 273.029, 261.526 273.029 Q 259.182 273.029, 257.991 271.448 Q 256.819 269.848, 256.819 266.685 Q 256.819 263.187, 258.27 261.383 Q 259.74 259.559, 262.549 259.559 Q 263.368 259.559, 264.056 259.745 Q 264.763 259.931, 265.433 260.322 L 264.708 261.569 Q 263.74 261.048, 262.568 261.048 Q 260.707 261.048, 259.759 262.257 Q 258.81 263.448, 258.698 265.922 Q 259.368 265.308, 260.205 264.992 Q 261.061 264.657, 261.973 264.657 M 261.545 271.504 Q 262.252 271.504, 262.828 271.132 Q 263.424 270.759, 263.759 270.108 Q 264.094 269.457, 264.094 268.657 Q 264.094 267.485, 263.442 266.815 Q 262.791 266.145, 261.638 266.145 Q 260.838 266.145, 260.038 266.48 Q 259.256 266.797, 258.698 267.355 Q 258.773 269.532, 259.461 270.518 Q 260.149 271.504, 261.545 271.504 " fill="#000000"/>
<path class="atom-6" d="M 183.205 317.478 L 187.521 324.455 Q 187.949 325.143, 188.638 326.39 Q 189.326 327.636, 189.363 327.711 L 189.363 317.478 L 191.112 317.478 L 191.112 330.65 L 189.307 330.65 L 184.675 323.022 Q 184.135 322.129, 183.559 321.106 Q 183 320.083, 182.833 319.766 L 182.833 330.65 L 181.121 330.65 L 181.121 317.478 L 183.205 317.478 " fill="#0000FF"/>
<path class="atom-6" d="M 192.507 328.473 L 194.368 328.473 L 194.368 330.334 L 192.507 330.334 L 192.507 328.473 M 192.507 322.073 L 194.368 322.073 L 194.368 323.934 L 192.507 323.934 L 192.507 322.073 " fill="#0000FF"/>
<path class="atom-6" d="M 201.605 318.966 L 194.703 318.966 L 194.703 317.478 L 203.447 317.478 L 203.447 318.799 L 198.126 330.65 L 196.34 330.65 L 201.605 318.966 " fill="#0000FF"/>
<path class="atom-7" d="M 266.945 305.621 Q 266.945 302.347, 268.471 300.635 Q 270.015 298.905, 272.936 298.905 Q 275.652 298.905, 277.103 300.821 L 275.875 301.826 Q 274.815 300.431, 272.936 300.431 Q 270.945 300.431, 269.885 301.77 Q 268.843 303.091, 268.843 305.621 Q 268.843 308.226, 269.922 309.566 Q 271.02 310.905, 273.14 310.905 Q 274.592 310.905, 276.285 310.031 L 276.806 311.426 Q 276.117 311.873, 275.075 312.133 Q 274.033 312.393, 272.88 312.393 Q 270.015 312.393, 268.471 310.645 Q 266.945 308.896, 266.945 305.621 " fill="#000000"/>
<path class="atom-7" d="M 278.499 310.049 L 280.359 310.049 L 280.359 311.91 L 278.499 311.91 L 278.499 310.049 M 278.499 303.649 L 280.359 303.649 L 280.359 305.51 L 278.499 305.51 L 278.499 303.649 " fill="#000000"/>
<path class="atom-7" d="M 288.229 305.249 Q 289.438 305.77, 290.127 306.552 Q 290.815 307.314, 290.815 308.617 Q 290.815 309.733, 290.238 310.607 Q 289.662 311.463, 288.62 311.947 Q 287.596 312.412, 286.238 312.412 Q 284.043 312.412, 282.778 311.407 Q 281.513 310.384, 281.513 308.617 Q 281.513 307.538, 282.071 306.738 Q 282.629 305.919, 283.782 305.305 Q 282.927 304.821, 282.461 304.114 Q 281.996 303.389, 281.996 302.272 Q 281.996 300.728, 283.113 299.817 Q 284.248 298.905, 286.164 298.905 Q 288.08 298.905, 289.196 299.817 Q 290.331 300.728, 290.331 302.272 Q 290.331 303.24, 289.792 303.965 Q 289.271 304.672, 288.229 305.249 M 286.164 300.3 Q 285.066 300.3, 284.452 300.821 Q 283.857 301.342, 283.857 302.272 Q 283.857 302.961, 284.266 303.426 Q 284.675 303.872, 285.252 304.133 Q 285.848 304.393, 286.982 304.784 Q 287.782 304.226, 288.117 303.631 Q 288.471 303.035, 288.471 302.272 Q 288.471 301.342, 287.857 300.821 Q 287.262 300.3, 286.164 300.3 M 286.238 311.017 Q 287.466 311.017, 288.21 310.366 Q 288.955 309.696, 288.955 308.598 Q 288.955 307.891, 288.564 307.445 Q 288.173 306.998, 287.578 306.738 Q 287.001 306.477, 285.959 306.142 L 285.122 305.863 Q 284.192 306.421, 283.782 307.091 Q 283.373 307.742, 283.373 308.598 Q 283.373 309.696, 284.155 310.366 Q 284.936 311.017, 286.238 311.017 " fill="#000000"/>
<path class="atom-8" d="M 186.427 277.708 Q 186.427 274.434, 187.952 272.722 Q 189.497 270.992, 192.418 270.992 Q 195.134 270.992, 196.585 272.908 L 195.357 273.913 Q 194.297 272.518, 192.418 272.518 Q 190.427 272.518, 189.366 273.857 Q 188.324 275.178, 188.324 277.708 Q 188.324 280.313, 189.404 281.653 Q 190.501 282.992, 192.622 282.992 Q 194.073 282.992, 195.766 282.118 L 196.287 283.513 Q 195.599 283.96, 194.557 284.22 Q 193.515 284.481, 192.362 284.481 Q 189.497 284.481, 187.952 282.732 Q 186.427 280.983, 186.427 277.708 " fill="#000000"/>
<path class="atom-8" d="M 197.98 282.136 L 199.841 282.136 L 199.841 283.997 L 197.98 283.997 L 197.98 282.136 M 197.98 275.736 L 199.841 275.736 L 199.841 277.597 L 197.98 277.597 L 197.98 275.736 " fill="#000000"/>
<path class="atom-8" d="M 205.292 270.992 Q 207.636 270.992, 208.808 272.592 Q 209.999 274.173, 209.999 277.336 Q 209.999 280.834, 208.529 282.657 Q 207.078 284.462, 204.269 284.462 Q 203.45 284.462, 202.743 284.276 Q 202.055 284.09, 201.385 283.699 L 202.111 282.453 Q 203.078 282.974, 204.25 282.974 Q 206.111 282.974, 207.06 281.783 Q 208.008 280.574, 208.12 278.099 Q 207.45 278.713, 206.594 279.048 Q 205.757 279.364, 204.846 279.364 Q 203.692 279.364, 202.78 278.862 Q 201.869 278.36, 201.366 277.448 Q 200.864 276.536, 200.864 275.383 Q 200.864 274.099, 201.422 273.113 Q 201.999 272.108, 203.004 271.55 Q 204.008 270.992, 205.292 270.992 M 202.725 275.364 Q 202.725 276.536, 203.376 277.206 Q 204.027 277.876, 205.18 277.876 Q 205.98 277.876, 206.762 277.56 Q 207.562 277.225, 208.12 276.667 Q 208.046 274.49, 207.357 273.504 Q 206.669 272.518, 205.273 272.518 Q 204.566 272.518, 203.971 272.89 Q 203.394 273.262, 203.059 273.913 Q 202.725 274.564, 202.725 275.364 " fill="#000000"/>
<path class="atom-9" d="M 221.788 341.371 Q 221.788 338.096, 223.314 336.385 Q 224.858 334.655, 227.779 334.655 Q 230.495 334.655, 231.946 336.571 L 230.718 337.576 Q 229.658 336.18, 227.779 336.18 Q 225.788 336.18, 224.728 337.52 Q 223.686 338.841, 223.686 341.371 Q 223.686 343.976, 224.765 345.315 Q 225.862 346.655, 227.983 346.655 Q 229.435 346.655, 231.128 345.78 L 231.649 347.176 Q 230.96 347.622, 229.918 347.883 Q 228.876 348.143, 227.723 348.143 Q 224.858 348.143, 223.314 346.394 Q 221.788 344.645, 221.788 341.371 " fill="#000000"/>
<path class="atom-9" d="M 233.342 345.799 L 235.202 345.799 L 235.202 347.659 L 233.342 347.659 L 233.342 345.799 M 233.342 339.399 L 235.202 339.399 L 235.202 341.259 L 233.342 341.259 L 233.342 339.399 " fill="#000000"/>
<path class="atom-9" d="M 236.932 346.487 L 239.816 346.487 L 239.816 336.645 L 236.635 337.631 L 236.207 336.534 L 240.244 334.729 L 241.565 334.952 L 241.565 346.487 L 244.151 346.487 L 244.151 347.976 L 236.932 347.976 L 236.932 346.487 " fill="#000000"/>
<path class="atom-9" d="M 250.104 348.124 Q 247.686 348.124, 246.477 346.338 Q 245.286 344.552, 245.286 341.371 Q 245.286 338.189, 246.477 336.422 Q 247.667 334.655, 250.104 334.655 Q 252.542 334.655, 253.732 336.422 Q 254.923 338.189, 254.923 341.371 Q 254.923 344.552, 253.714 346.338 Q 252.523 348.124, 250.104 348.124 M 250.104 346.636 Q 251.537 346.636, 252.3 345.315 Q 253.063 343.976, 253.063 341.371 Q 253.063 338.785, 252.3 337.464 Q 251.537 336.143, 250.104 336.143 Q 248.691 336.143, 247.909 337.464 Q 247.146 338.785, 247.146 341.371 Q 247.146 343.976, 247.909 345.315 Q 248.691 346.636, 250.104 346.636 " fill="#000000"/>
<path class="atom-10" d="M 290.689 216.424 Q 290.689 213.149, 292.215 211.438 Q 293.759 209.707, 296.68 209.707 Q 299.396 209.707, 300.847 211.624 L 299.619 212.628 Q 298.559 211.233, 296.68 211.233 Q 294.689 211.233, 293.629 212.573 Q 292.587 213.894, 292.587 216.424 Q 292.587 219.028, 293.666 220.368 Q 294.764 221.708, 296.885 221.708 Q 298.336 221.708, 300.029 220.833 L 300.55 222.228 Q 299.861 222.675, 298.819 222.935 Q 297.778 223.196, 296.624 223.196 Q 293.759 223.196, 292.215 221.447 Q 290.689 219.698, 290.689 216.424 " fill="#000000"/>
<path class="atom-10" d="M 302.243 220.852 L 304.103 220.852 L 304.103 222.712 L 302.243 222.712 L 302.243 220.852 M 302.243 214.452 L 304.103 214.452 L 304.103 216.312 L 302.243 216.312 L 302.243 214.452 " fill="#000000"/>
<path class="atom-10" d="M 305.833 221.54 L 308.717 221.54 L 308.717 211.698 L 305.536 212.684 L 305.108 211.587 L 309.145 209.782 L 310.466 210.005 L 310.466 221.54 L 313.052 221.54 L 313.052 223.028 L 305.833 223.028 L 305.833 221.54 " fill="#000000"/>
<path class="atom-10" d="M 314.782 221.54 L 317.666 221.54 L 317.666 211.698 L 314.485 212.684 L 314.057 211.587 L 318.094 209.782 L 319.415 210.005 L 319.415 221.54 L 322.001 221.54 L 322.001 223.028 L 314.782 223.028 L 314.782 221.54 " fill="#000000"/>
<path class="atom-11" d="M 311.555 252.961 Q 311.555 249.687, 313.08 247.975 Q 314.625 246.245, 317.546 246.245 Q 320.262 246.245, 321.713 248.161 L 320.485 249.166 Q 319.425 247.77, 317.546 247.77 Q 315.555 247.77, 314.494 249.11 Q 313.452 250.431, 313.452 252.961 Q 313.452 255.566, 314.532 256.905 Q 315.629 258.245, 317.75 258.245 Q 319.201 258.245, 320.894 257.37 L 321.415 258.766 Q 320.727 259.212, 319.685 259.473 Q 318.643 259.733, 317.49 259.733 Q 314.625 259.733, 313.08 257.984 Q 311.555 256.235, 311.555 252.961 " fill="#000000"/>
<path class="atom-11" d="M 323.108 257.389 L 324.969 257.389 L 324.969 259.249 L 323.108 259.249 L 323.108 257.389 M 323.108 250.989 L 324.969 250.989 L 324.969 252.849 L 323.108 252.849 L 323.108 250.989 " fill="#000000"/>
<path class="atom-11" d="M 326.699 258.077 L 329.583 258.077 L 329.583 248.235 L 326.401 249.221 L 325.974 248.124 L 330.011 246.319 L 331.332 246.542 L 331.332 258.077 L 333.918 258.077 L 333.918 259.566 L 326.699 259.566 L 326.699 258.077 " fill="#000000"/>
<path class="atom-11" d="M 334.885 248.887 Q 335.369 247.64, 336.522 246.952 Q 337.676 246.245, 339.276 246.245 Q 341.267 246.245, 342.383 247.324 Q 343.499 248.403, 343.499 250.319 Q 343.499 252.273, 342.048 254.096 Q 340.616 255.919, 337.639 258.077 L 343.723 258.077 L 343.723 259.566 L 334.848 259.566 L 334.848 258.319 Q 337.304 256.57, 338.755 255.268 Q 340.225 253.966, 340.932 252.794 Q 341.639 251.621, 341.639 250.412 Q 341.639 249.147, 341.006 248.44 Q 340.374 247.733, 339.276 247.733 Q 338.216 247.733, 337.509 248.161 Q 336.802 248.589, 336.299 249.538 L 334.885 248.887 " fill="#000000"/>
<path class="atom-12" d="M 307.654 173.229 Q 307.654 169.955, 309.18 168.243 Q 310.724 166.513, 313.645 166.513 Q 316.361 166.513, 317.812 168.429 L 316.584 169.434 Q 315.524 168.038, 313.645 168.038 Q 311.654 168.038, 310.594 169.378 Q 309.552 170.699, 309.552 173.229 Q 309.552 175.834, 310.631 177.173 Q 311.729 178.513, 313.85 178.513 Q 315.301 178.513, 316.994 177.639 L 317.515 179.034 Q 316.826 179.48, 315.784 179.741 Q 314.743 180.001, 313.589 180.001 Q 310.724 180.001, 309.18 178.253 Q 307.654 176.504, 307.654 173.229 " fill="#000000"/>
<path class="atom-12" d="M 319.208 177.657 L 321.068 177.657 L 321.068 179.518 L 319.208 179.518 L 319.208 177.657 M 319.208 171.257 L 321.068 171.257 L 321.068 173.118 L 319.208 173.118 L 319.208 171.257 " fill="#000000"/>
<path class="atom-12" d="M 322.798 178.346 L 325.682 178.346 L 325.682 168.504 L 322.501 169.49 L 322.073 168.392 L 326.11 166.587 L 327.431 166.811 L 327.431 178.346 L 330.017 178.346 L 330.017 179.834 L 322.798 179.834 L 322.798 178.346 " fill="#000000"/>
<path class="atom-12" d="M 337.124 172.894 Q 338.408 173.266, 339.022 174.104 Q 339.654 174.922, 339.654 176.225 Q 339.654 177.341, 339.096 178.215 Q 338.538 179.071, 337.515 179.555 Q 336.492 180.02, 335.152 180.02 Q 333.738 180.02, 332.678 179.536 Q 331.636 179.034, 330.799 178.029 L 331.859 176.95 Q 332.678 177.843, 333.366 178.197 Q 334.054 178.532, 335.152 178.532 Q 336.343 178.532, 337.068 177.899 Q 337.794 177.248, 337.794 176.206 Q 337.794 174.866, 337.031 174.271 Q 336.287 173.657, 334.668 173.657 L 333.72 173.657 L 333.72 172.318 L 334.557 172.318 Q 335.989 172.299, 336.752 171.685 Q 337.515 171.052, 337.515 169.88 Q 337.515 169.025, 336.882 168.522 Q 336.25 168.001, 335.171 168.001 Q 334.073 168.001, 333.385 168.392 Q 332.715 168.783, 332.194 169.769 L 330.91 169.08 Q 331.375 167.983, 332.492 167.257 Q 333.608 166.513, 335.171 166.513 Q 337.106 166.513, 338.24 167.424 Q 339.375 168.336, 339.375 169.88 Q 339.375 170.941, 338.799 171.704 Q 338.222 172.466, 337.124 172.894 " fill="#000000"/>
<path class="atom-13" d="M 364.793 246.304 Q 364.793 243.029, 366.318 241.317 Q 367.862 239.587, 370.783 239.587 Q 373.5 239.587, 374.951 241.504 L 373.723 242.508 Q 372.662 241.113, 370.783 241.113 Q 368.793 241.113, 367.732 242.452 Q 366.69 243.773, 366.69 246.304 Q 366.69 248.908, 367.769 250.248 Q 368.867 251.587, 370.988 251.587 Q 372.439 251.587, 374.132 250.713 L 374.653 252.108 Q 373.965 252.555, 372.923 252.815 Q 371.881 253.076, 370.728 253.076 Q 367.862 253.076, 366.318 251.327 Q 364.793 249.578, 364.793 246.304 " fill="#000000"/>
<path class="atom-13" d="M 376.346 250.732 L 378.207 250.732 L 378.207 252.592 L 376.346 252.592 L 376.346 250.732 M 376.346 244.331 L 378.207 244.331 L 378.207 246.192 L 376.346 246.192 L 376.346 244.331 " fill="#000000"/>
<path class="atom-13" d="M 379.937 251.42 L 382.821 251.42 L 382.821 241.578 L 379.639 242.564 L 379.211 241.466 L 383.249 239.662 L 384.57 239.885 L 384.57 251.42 L 387.156 251.42 L 387.156 252.908 L 379.937 252.908 L 379.937 251.42 " fill="#000000"/>
<path class="atom-13" d="M 396.272 248.387 L 397.853 248.387 L 397.853 249.876 L 396.272 249.876 L 396.272 252.908 L 394.523 252.908 L 394.523 249.876 L 387.714 249.876 L 387.714 248.704 L 393.481 239.736 L 396.272 239.736 L 396.272 248.387 M 389.872 248.387 L 394.523 248.387 L 394.523 240.927 L 389.872 248.387 " fill="#000000"/>
<path class="atom-14" d="M 353.648 166.572 Q 353.648 163.297, 355.173 161.586 Q 356.718 159.855, 359.639 159.855 Q 362.355 159.855, 363.806 161.772 L 362.578 162.776 Q 361.518 161.381, 359.639 161.381 Q 357.648 161.381, 356.587 162.721 Q 355.545 164.042, 355.545 166.572 Q 355.545 169.176, 356.625 170.516 Q 357.722 171.856, 359.843 171.856 Q 361.294 171.856, 362.987 170.981 L 363.508 172.377 Q 362.82 172.823, 361.778 173.084 Q 360.736 173.344, 359.583 173.344 Q 356.718 173.344, 355.173 171.595 Q 353.648 169.846, 353.648 166.572 " fill="#000000"/>
<path class="atom-14" d="M 365.201 171 L 367.062 171 L 367.062 172.86 L 365.201 172.86 L 365.201 171 M 365.201 164.6 L 367.062 164.6 L 367.062 166.46 L 365.201 166.46 L 365.201 164.6 " fill="#000000"/>
<path class="atom-14" d="M 368.792 171.688 L 371.676 171.688 L 371.676 161.846 L 368.494 162.832 L 368.067 161.735 L 372.104 159.93 L 373.425 160.153 L 373.425 171.688 L 376.011 171.688 L 376.011 173.177 L 368.792 173.177 L 368.792 171.688 " fill="#000000"/>
<path class="atom-14" d="M 381.648 164.935 Q 382.802 164.935, 383.75 165.437 Q 384.699 165.921, 385.239 166.851 Q 385.778 167.763, 385.778 169.009 Q 385.778 170.367, 385.109 171.353 Q 384.457 172.321, 383.378 172.823 Q 382.299 173.325, 381.071 173.325 Q 379.862 173.325, 378.746 172.879 Q 377.629 172.432, 376.867 171.577 L 377.983 170.423 Q 378.597 171.093, 379.434 171.465 Q 380.271 171.818, 381.127 171.818 Q 382.299 171.818, 383.099 171.093 Q 383.918 170.367, 383.918 169.046 Q 383.918 167.651, 383.099 167 Q 382.299 166.33, 381.015 166.33 Q 379.862 166.33, 378.578 166.832 L 377.555 166.349 L 378.188 160.004 L 384.96 160.004 L 384.774 161.493 L 379.713 161.493 L 379.322 165.4 Q 380.495 164.935, 381.648 164.935 " fill="#000000"/>
<path class="atom-15" d="M 382.244 203.109 Q 382.244 199.835, 383.769 198.123 Q 385.314 196.393, 388.235 196.393 Q 390.951 196.393, 392.402 198.309 L 391.174 199.314 Q 390.114 197.918, 388.235 197.918 Q 386.244 197.918, 385.183 199.258 Q 384.141 200.579, 384.141 203.109 Q 384.141 205.714, 385.221 207.053 Q 386.318 208.393, 388.439 208.393 Q 389.89 208.393, 391.583 207.518 L 392.104 208.914 Q 391.416 209.36, 390.374 209.621 Q 389.332 209.881, 388.179 209.881 Q 385.314 209.881, 383.769 208.132 Q 382.244 206.383, 382.244 203.109 " fill="#000000"/>
<path class="atom-15" d="M 393.797 207.537 L 395.658 207.537 L 395.658 209.397 L 393.797 209.397 L 393.797 207.537 M 393.797 201.137 L 395.658 201.137 L 395.658 202.997 L 393.797 202.997 L 393.797 201.137 " fill="#000000"/>
<path class="atom-15" d="M 397.388 208.225 L 400.272 208.225 L 400.272 198.383 L 397.09 199.369 L 396.663 198.272 L 400.7 196.467 L 402.021 196.69 L 402.021 208.225 L 404.607 208.225 L 404.607 209.714 L 397.388 209.714 L 397.388 208.225 " fill="#000000"/>
<path class="atom-15" d="M 411.025 201.49 Q 412.179 201.49, 413.091 201.993 Q 414.002 202.495, 414.505 203.407 Q 415.007 204.318, 415.007 205.472 Q 415.007 206.756, 414.43 207.76 Q 413.872 208.746, 412.867 209.304 Q 411.863 209.863, 410.579 209.863 Q 408.235 209.863, 407.044 208.281 Q 405.872 206.681, 405.872 203.518 Q 405.872 200.021, 407.323 198.216 Q 408.793 196.393, 411.602 196.393 Q 412.421 196.393, 413.109 196.579 Q 413.816 196.765, 414.486 197.155 L 413.76 198.402 Q 412.793 197.881, 411.621 197.881 Q 409.76 197.881, 408.811 199.09 Q 407.863 200.281, 407.751 202.756 Q 408.421 202.142, 409.258 201.825 Q 410.114 201.49, 411.025 201.49 M 410.598 208.337 Q 411.305 208.337, 411.881 207.965 Q 412.477 207.593, 412.811 206.942 Q 413.146 206.29, 413.146 205.49 Q 413.146 204.318, 412.495 203.649 Q 411.844 202.979, 410.691 202.979 Q 409.891 202.979, 409.091 203.314 Q 408.309 203.63, 407.751 204.188 Q 407.825 206.365, 408.514 207.351 Q 409.202 208.337, 410.598 208.337 " fill="#000000"/>
<path class="atom-16" d="M 140.926 156.664 Q 140.926 153.39, 142.452 151.678 Q 143.996 149.948, 146.917 149.948 Q 149.633 149.948, 151.084 151.864 L 149.856 152.869 Q 148.796 151.473, 146.917 151.473 Q 144.926 151.473, 143.866 152.813 Q 142.824 154.134, 142.824 156.664 Q 142.824 159.269, 143.903 160.608 Q 145.001 161.948, 147.122 161.948 Q 148.573 161.948, 150.266 161.074 L 150.787 162.469 Q 150.098 162.915, 149.056 163.176 Q 148.015 163.436, 146.861 163.436 Q 143.996 163.436, 142.452 161.687 Q 140.926 159.939, 140.926 156.664 " fill="#000000"/>
<path class="atom-16" d="M 152.48 161.092 L 154.34 161.092 L 154.34 162.953 L 152.48 162.953 L 152.48 161.092 M 152.48 154.692 L 154.34 154.692 L 154.34 156.553 L 152.48 156.553 L 152.48 154.692 " fill="#000000"/>
<path class="atom-16" d="M 156.07 161.78 L 158.954 161.78 L 158.954 151.939 L 155.773 152.925 L 155.345 151.827 L 159.382 150.022 L 160.703 150.246 L 160.703 161.78 L 163.289 161.78 L 163.289 163.269 L 156.07 163.269 L 156.07 161.78 " fill="#000000"/>
<path class="atom-16" d="M 170.526 151.585 L 163.624 151.585 L 163.624 150.097 L 172.368 150.097 L 172.368 151.418 L 167.047 163.269 L 165.261 163.269 L 170.526 151.585 " fill="#000000"/>
<path class="atom-17" d="M 106.01 243.053 Q 106.01 239.779, 107.536 238.067 Q 109.08 236.337, 112.001 236.337 Q 114.717 236.337, 116.168 238.253 L 114.94 239.258 Q 113.88 237.863, 112.001 237.863 Q 110.01 237.863, 108.95 239.202 Q 107.908 240.523, 107.908 243.053 Q 107.908 245.658, 108.987 246.998 Q 110.084 248.337, 112.205 248.337 Q 113.657 248.337, 115.35 247.463 L 115.871 248.858 Q 115.182 249.305, 114.14 249.565 Q 113.098 249.825, 111.945 249.825 Q 109.08 249.825, 107.536 248.077 Q 106.01 246.328, 106.01 243.053 " fill="#000000"/>
<path class="atom-17" d="M 117.564 247.481 L 119.424 247.481 L 119.424 249.342 L 117.564 249.342 L 117.564 247.481 M 117.564 241.081 L 119.424 241.081 L 119.424 242.942 L 117.564 242.942 L 117.564 241.081 " fill="#000000"/>
<path class="atom-17" d="M 121.154 248.17 L 124.038 248.17 L 124.038 238.328 L 120.857 239.314 L 120.429 238.216 L 124.466 236.411 L 125.787 236.635 L 125.787 248.17 L 128.373 248.17 L 128.373 249.658 L 121.154 249.658 L 121.154 248.17 " fill="#000000"/>
<path class="atom-17" d="M 136.243 242.681 Q 137.452 243.202, 138.141 243.984 Q 138.829 244.746, 138.829 246.049 Q 138.829 247.165, 138.252 248.039 Q 137.675 248.895, 136.634 249.379 Q 135.61 249.844, 134.252 249.844 Q 132.057 249.844, 130.792 248.839 Q 129.526 247.816, 129.526 246.049 Q 129.526 244.97, 130.085 244.17 Q 130.643 243.351, 131.796 242.737 Q 130.94 242.253, 130.475 241.546 Q 130.01 240.821, 130.01 239.704 Q 130.01 238.16, 131.126 237.249 Q 132.261 236.337, 134.178 236.337 Q 136.094 236.337, 137.21 237.249 Q 138.345 238.16, 138.345 239.704 Q 138.345 240.672, 137.806 241.397 Q 137.285 242.104, 136.243 242.681 M 134.178 237.732 Q 133.08 237.732, 132.466 238.253 Q 131.871 238.774, 131.871 239.704 Q 131.871 240.393, 132.28 240.858 Q 132.689 241.304, 133.266 241.565 Q 133.861 241.825, 134.996 242.216 Q 135.796 241.658, 136.131 241.063 Q 136.485 240.467, 136.485 239.704 Q 136.485 238.774, 135.871 238.253 Q 135.275 237.732, 134.178 237.732 M 134.252 248.449 Q 135.48 248.449, 136.224 247.798 Q 136.968 247.128, 136.968 246.03 Q 136.968 245.323, 136.578 244.877 Q 136.187 244.43, 135.592 244.17 Q 135.015 243.909, 133.973 243.574 L 133.136 243.295 Q 132.206 243.853, 131.796 244.523 Q 131.387 245.174, 131.387 246.03 Q 131.387 247.128, 132.168 247.798 Q 132.95 248.449, 134.252 248.449 " fill="#000000"/>
<path class="atom-18" d="M 94.5744 163.322 Q 94.5744 160.047, 96.1 158.335 Q 97.6442 156.605, 100.565 156.605 Q 103.281 156.605, 104.733 158.522 L 103.505 159.526 Q 102.444 158.131, 100.565 158.131 Q 98.5744 158.131, 97.514 159.47 Q 96.4721 160.791, 96.4721 163.322 Q 96.4721 165.926, 97.5512 167.266 Q 98.6489 168.605, 100.77 168.605 Q 102.221 168.605, 103.914 167.731 L 104.435 169.126 Q 103.747 169.573, 102.705 169.833 Q 101.663 170.094, 100.509 170.094 Q 97.6442 170.094, 96.1 168.345 Q 94.5744 166.596, 94.5744 163.322 " fill="#000000"/>
<path class="atom-18" d="M 106.128 167.75 L 107.988 167.75 L 107.988 169.61 L 106.128 169.61 L 106.128 167.75 M 106.128 161.349 L 107.988 161.349 L 107.988 163.21 L 106.128 163.21 L 106.128 161.349 " fill="#000000"/>
<path class="atom-18" d="M 109.719 168.438 L 112.602 168.438 L 112.602 158.596 L 109.421 159.582 L 108.993 158.484 L 113.03 156.68 L 114.351 156.903 L 114.351 168.438 L 116.937 168.438 L 116.937 169.926 L 109.719 169.926 L 109.719 168.438 " fill="#000000"/>
<path class="atom-18" d="M 122.389 156.605 Q 124.733 156.605, 125.905 158.205 Q 127.096 159.787, 127.096 162.949 Q 127.096 166.447, 125.626 168.27 Q 124.175 170.075, 121.365 170.075 Q 120.547 170.075, 119.84 169.889 Q 119.151 169.703, 118.482 169.312 L 119.207 168.066 Q 120.175 168.587, 121.347 168.587 Q 123.207 168.587, 124.156 167.396 Q 125.105 166.187, 125.217 163.712 Q 124.547 164.326, 123.691 164.661 Q 122.854 164.977, 121.942 164.977 Q 120.789 164.977, 119.877 164.475 Q 118.965 163.973, 118.463 163.061 Q 117.961 162.149, 117.961 160.996 Q 117.961 159.712, 118.519 158.726 Q 119.096 157.722, 120.1 157.163 Q 121.105 156.605, 122.389 156.605 M 119.821 160.977 Q 119.821 162.149, 120.472 162.819 Q 121.123 163.489, 122.277 163.489 Q 123.077 163.489, 123.858 163.173 Q 124.658 162.838, 125.217 162.28 Q 125.142 160.103, 124.454 159.117 Q 123.765 158.131, 122.37 158.131 Q 121.663 158.131, 121.068 158.503 Q 120.491 158.875, 120.156 159.526 Q 119.821 160.177, 119.821 160.977 " fill="#000000"/>
<path class="atom-19" d="M 76.5814 206.516 Q 76.5814 203.242, 78.107 201.53 Q 79.6512 199.8, 82.5722 199.8 Q 85.2885 199.8, 86.7397 201.716 L 85.5117 202.721 Q 84.4513 201.325, 82.5722 201.325 Q 80.5815 201.325, 79.521 202.665 Q 78.4791 203.986, 78.4791 206.516 Q 78.4791 209.121, 79.5582 210.46 Q 80.6559 211.8, 82.7768 211.8 Q 84.228 211.8, 85.921 210.925 L 86.442 212.321 Q 85.7536 212.767, 84.7117 213.028 Q 83.6699 213.288, 82.5164 213.288 Q 79.6512 213.288, 78.107 211.539 Q 76.5814 209.791, 76.5814 206.516 " fill="#000000"/>
<path class="atom-19" d="M 88.135 210.944 L 89.9955 210.944 L 89.9955 212.805 L 88.135 212.805 L 88.135 210.944 M 88.135 204.544 L 89.9955 204.544 L 89.9955 206.404 L 88.135 206.404 L 88.135 204.544 " fill="#000000"/>
<path class="atom-19" d="M 90.963 202.442 Q 91.4467 201.195, 92.6002 200.507 Q 93.7537 199.8, 95.3537 199.8 Q 97.3444 199.8, 98.4607 200.879 Q 99.577 201.958, 99.577 203.874 Q 99.577 205.828, 98.1258 207.651 Q 96.6932 209.474, 93.7165 211.632 L 99.8002 211.632 L 99.8002 213.121 L 90.9257 213.121 L 90.9257 211.874 Q 93.3816 210.125, 94.8328 208.823 Q 96.3025 207.521, 97.0095 206.349 Q 97.7165 205.177, 97.7165 203.967 Q 97.7165 202.702, 97.0839 201.995 Q 96.4514 201.288, 95.3537 201.288 Q 94.2932 201.288, 93.5862 201.716 Q 92.8793 202.144, 92.3769 203.093 L 90.963 202.442 " fill="#000000"/>
<path class="atom-19" d="M 105.754 213.27 Q 103.335 213.27, 102.126 211.484 Q 100.935 209.698, 100.935 206.516 Q 100.935 203.335, 102.126 201.567 Q 103.317 199.8, 105.754 199.8 Q 108.191 199.8, 109.382 201.567 Q 110.572 203.335, 110.572 206.516 Q 110.572 209.698, 109.363 211.484 Q 108.172 213.27, 105.754 213.27 M 105.754 211.781 Q 107.186 211.781, 107.949 210.46 Q 108.712 209.121, 108.712 206.516 Q 108.712 203.93, 107.949 202.609 Q 107.186 201.288, 105.754 201.288 Q 104.34 201.288, 103.558 202.609 Q 102.796 203.93, 102.796 206.516 Q 102.796 209.121, 103.558 210.46 Q 104.34 211.781, 105.754 211.781 " fill="#000000"/>
<path class="atom-20" d="M 177.393 252.37 L 179.179 252.37 L 179.179 257.97 L 185.914 257.97 L 185.914 252.37 L 187.7 252.37 L 187.7 265.542 L 185.914 265.542 L 185.914 259.458 L 179.179 259.458 L 179.179 265.542 L 177.393 265.542 L 177.393 252.37 " fill="#000000"/>
<path class="atom-20" d="M 189.096 263.365 L 190.956 263.365 L 190.956 265.226 L 189.096 265.226 L 189.096 263.365 M 189.096 256.965 L 190.956 256.965 L 190.956 258.826 L 189.096 258.826 L 189.096 256.965 " fill="#000000"/>
<path class="atom-20" d="M 191.924 254.863 Q 192.407 253.616, 193.561 252.928 Q 194.714 252.221, 196.314 252.221 Q 198.305 252.221, 199.421 253.3 Q 200.538 254.379, 200.538 256.296 Q 200.538 258.249, 199.086 260.072 Q 197.654 261.896, 194.677 264.054 L 200.761 264.054 L 200.761 265.542 L 191.886 265.542 L 191.886 264.296 Q 194.342 262.547, 195.793 261.244 Q 197.263 259.942, 197.97 258.77 Q 198.677 257.598, 198.677 256.389 Q 198.677 255.123, 198.045 254.417 Q 197.412 253.71, 196.314 253.71 Q 195.254 253.71, 194.547 254.137 Q 193.84 254.565, 193.337 255.514 L 191.924 254.863 " fill="#000000"/>
<path class="atom-20" d="M 202.491 264.054 L 205.375 264.054 L 205.375 254.212 L 202.193 255.198 L 201.765 254.1 L 205.803 252.296 L 207.124 252.519 L 207.124 264.054 L 209.71 264.054 L 209.71 265.542 L 202.491 265.542 L 202.491 264.054 " fill="#000000"/>
<path class="atom-21" d="M 130.994 342.357 L 132.78 342.357 L 132.78 347.958 L 139.515 347.958 L 139.515 342.357 L 141.301 342.357 L 141.301 355.53 L 139.515 355.53 L 139.515 349.446 L 132.78 349.446 L 132.78 355.53 L 130.994 355.53 L 130.994 342.357 " fill="#000000"/>
<path class="atom-21" d="M 142.697 353.353 L 144.557 353.353 L 144.557 355.213 L 142.697 355.213 L 142.697 353.353 M 142.697 346.953 L 144.557 346.953 L 144.557 348.813 L 142.697 348.813 L 142.697 346.953 " fill="#000000"/>
<path class="atom-21" d="M 145.525 344.851 Q 146.008 343.604, 147.162 342.916 Q 148.315 342.209, 149.915 342.209 Q 151.906 342.209, 153.022 343.288 Q 154.139 344.367, 154.139 346.283 Q 154.139 348.237, 152.687 350.06 Q 151.255 351.883, 148.278 354.041 L 154.362 354.041 L 154.362 355.53 L 145.487 355.53 L 145.487 354.283 Q 147.943 352.534, 149.394 351.232 Q 150.864 349.93, 151.571 348.758 Q 152.278 347.585, 152.278 346.376 Q 152.278 345.111, 151.646 344.404 Q 151.013 343.697, 149.915 343.697 Q 148.855 343.697, 148.148 344.125 Q 147.441 344.553, 146.939 345.502 L 145.525 344.851 " fill="#000000"/>
<path class="atom-21" d="M 155.329 344.851 Q 155.813 343.604, 156.967 342.916 Q 158.12 342.209, 159.72 342.209 Q 161.711 342.209, 162.827 343.288 Q 163.943 344.367, 163.943 346.283 Q 163.943 348.237, 162.492 350.06 Q 161.06 351.883, 158.083 354.041 L 164.167 354.041 L 164.167 355.53 L 155.292 355.53 L 155.292 354.283 Q 157.748 352.534, 159.199 351.232 Q 160.669 349.93, 161.376 348.758 Q 162.083 347.585, 162.083 346.376 Q 162.083 345.111, 161.45 344.404 Q 160.818 343.697, 159.72 343.697 Q 158.66 343.697, 157.953 344.125 Q 157.246 344.553, 156.743 345.502 L 155.329 344.851 " fill="#000000"/>
<path class="atom-22" d="M 129.884 257.47 Q 129.884 254.307, 131.447 252.54 Q 133.009 250.772, 135.93 250.772 Q 138.851 250.772, 140.414 252.54 Q 141.977 254.307, 141.977 257.47 Q 141.977 260.67, 140.395 262.493 Q 138.814 264.298, 135.93 264.298 Q 133.028 264.298, 131.447 262.493 Q 129.884 260.689, 129.884 257.47 M 135.93 262.809 Q 137.94 262.809, 139.019 261.47 Q 140.116 260.112, 140.116 257.47 Q 140.116 254.884, 139.019 253.581 Q 137.94 252.261, 135.93 252.261 Q 133.921 252.261, 132.823 253.563 Q 131.744 254.865, 131.744 257.47 Q 131.744 260.13, 132.823 261.47 Q 133.921 262.809, 135.93 262.809 " fill="#FF0000"/>
<path class="atom-22" d="M 143.372 261.916 L 145.233 261.916 L 145.233 263.777 L 143.372 263.777 L 143.372 261.916 M 143.372 255.516 L 145.233 255.516 L 145.233 257.377 L 143.372 257.377 L 143.372 255.516 " fill="#FF0000"/>
<path class="atom-22" d="M 146.2 253.414 Q 146.684 252.168, 147.837 251.479 Q 148.991 250.772, 150.591 250.772 Q 152.582 250.772, 153.698 251.851 Q 154.814 252.93, 154.814 254.847 Q 154.814 256.8, 153.363 258.623 Q 151.93 260.447, 148.954 262.605 L 155.037 262.605 L 155.037 264.093 L 146.163 264.093 L 146.163 262.847 Q 148.619 261.098, 150.07 259.795 Q 151.54 258.493, 152.247 257.321 Q 152.954 256.149, 152.954 254.94 Q 152.954 253.674, 152.321 252.968 Q 151.689 252.261, 150.591 252.261 Q 149.53 252.261, 148.823 252.688 Q 148.116 253.116, 147.614 254.065 L 146.2 253.414 " fill="#FF0000"/>
<path class="atom-22" d="M 162.145 257.154 Q 163.428 257.526, 164.042 258.363 Q 164.675 259.182, 164.675 260.484 Q 164.675 261.6, 164.117 262.475 Q 163.558 263.33, 162.535 263.814 Q 161.512 264.279, 160.172 264.279 Q 158.758 264.279, 157.698 263.796 Q 156.656 263.293, 155.819 262.289 L 156.879 261.209 Q 157.698 262.102, 158.386 262.456 Q 159.075 262.791, 160.172 262.791 Q 161.363 262.791, 162.089 262.158 Q 162.814 261.507, 162.814 260.465 Q 162.814 259.126, 162.051 258.53 Q 161.307 257.916, 159.689 257.916 L 158.74 257.916 L 158.74 256.577 L 159.577 256.577 Q 161.01 256.558, 161.772 255.944 Q 162.535 255.312, 162.535 254.14 Q 162.535 253.284, 161.903 252.781 Q 161.27 252.261, 160.191 252.261 Q 159.093 252.261, 158.405 252.651 Q 157.735 253.042, 157.214 254.028 L 155.931 253.34 Q 156.396 252.242, 157.512 251.516 Q 158.628 250.772, 160.191 250.772 Q 162.126 250.772, 163.261 251.684 Q 164.396 252.595, 164.396 254.14 Q 164.396 255.2, 163.819 255.963 Q 163.242 256.726, 162.145 257.154 " fill="#FF0000"/>
<path class="atom-23" d="M 322.275 291.369 L 324.061 291.369 L 324.061 296.969 L 330.796 296.969 L 330.796 291.369 L 332.582 291.369 L 332.582 304.541 L 330.796 304.541 L 330.796 298.457 L 324.061 298.457 L 324.061 304.541 L 322.275 304.541 L 322.275 291.369 " fill="#000000"/>
<path class="atom-23" d="M 333.977 302.364 L 335.837 302.364 L 335.837 304.225 L 333.977 304.225 L 333.977 302.364 M 333.977 295.964 L 335.837 295.964 L 335.837 297.825 L 333.977 297.825 L 333.977 295.964 " fill="#000000"/>
<path class="atom-23" d="M 336.805 293.862 Q 337.289 292.615, 338.442 291.927 Q 339.596 291.22, 341.196 291.22 Q 343.186 291.22, 344.303 292.299 Q 345.419 293.378, 345.419 295.294 Q 345.419 297.248, 343.968 299.071 Q 342.535 300.894, 339.558 303.053 L 345.642 303.053 L 345.642 304.541 L 336.768 304.541 L 336.768 303.294 Q 339.224 301.546, 340.675 300.243 Q 342.144 298.941, 342.851 297.769 Q 343.558 296.597, 343.558 295.387 Q 343.558 294.122, 342.926 293.415 Q 342.293 292.708, 341.196 292.708 Q 340.135 292.708, 339.428 293.136 Q 338.721 293.564, 338.219 294.513 L 336.805 293.862 " fill="#000000"/>
<path class="atom-23" d="M 354.759 300.02 L 356.34 300.02 L 356.34 301.508 L 354.759 301.508 L 354.759 304.541 L 353.01 304.541 L 353.01 301.508 L 346.2 301.508 L 346.2 300.336 L 351.968 291.369 L 354.759 291.369 L 354.759 300.02 M 348.358 300.02 L 353.01 300.02 L 353.01 292.559 L 348.358 300.02 " fill="#000000"/>
<path class="atom-24" d="M 270.293 130.125 L 272.079 130.125 L 272.079 135.725 L 278.814 135.725 L 278.814 130.125 L 280.6 130.125 L 280.6 143.297 L 278.814 143.297 L 278.814 137.213 L 272.079 137.213 L 272.079 143.297 L 270.293 143.297 L 270.293 130.125 " fill="#000000"/>
<path class="atom-24" d="M 281.995 141.12 L 283.856 141.12 L 283.856 142.98 L 281.995 142.98 L 281.995 141.12 M 281.995 134.72 L 283.856 134.72 L 283.856 136.58 L 281.995 136.58 L 281.995 134.72 " fill="#000000"/>
<path class="atom-24" d="M 284.823 132.618 Q 285.307 131.371, 286.461 130.683 Q 287.614 129.976, 289.214 129.976 Q 291.205 129.976, 292.321 131.055 Q 293.437 132.134, 293.437 134.05 Q 293.437 136.004, 291.986 137.827 Q 290.554 139.65, 287.577 141.808 L 293.661 141.808 L 293.661 143.297 L 284.786 143.297 L 284.786 142.05 Q 287.242 140.301, 288.693 138.999 Q 290.163 137.697, 290.87 136.525 Q 291.577 135.352, 291.577 134.143 Q 291.577 132.878, 290.944 132.171 Q 290.312 131.464, 289.214 131.464 Q 288.154 131.464, 287.447 131.892 Q 286.74 132.32, 286.237 133.269 L 284.823 132.618 " fill="#000000"/>
<path class="atom-24" d="M 299.298 135.055 Q 300.451 135.055, 301.4 135.557 Q 302.349 136.041, 302.889 136.971 Q 303.428 137.883, 303.428 139.129 Q 303.428 140.487, 302.758 141.473 Q 302.107 142.441, 301.028 142.943 Q 299.949 143.446, 298.721 143.446 Q 297.512 143.446, 296.396 142.999 Q 295.279 142.553, 294.516 141.697 L 295.633 140.543 Q 296.247 141.213, 297.084 141.585 Q 297.921 141.939, 298.777 141.939 Q 299.949 141.939, 300.749 141.213 Q 301.568 140.487, 301.568 139.166 Q 301.568 137.771, 300.749 137.12 Q 299.949 136.45, 298.665 136.45 Q 297.512 136.45, 296.228 136.952 L 295.205 136.469 L 295.837 130.125 L 302.61 130.125 L 302.424 131.613 L 297.363 131.613 L 296.972 135.52 Q 298.144 135.055, 299.298 135.055 " fill="#000000"/>
<path class="atom-25" d="M 408.947 276.273 L 410.733 276.273 L 410.733 281.873 L 417.468 281.873 L 417.468 276.273 L 419.254 276.273 L 419.254 289.445 L 417.468 289.445 L 417.468 283.362 L 410.733 283.362 L 410.733 289.445 L 408.947 289.445 L 408.947 276.273 " fill="#000000"/>
<path class="atom-25" d="M 420.649 287.269 L 422.51 287.269 L 422.51 289.129 L 420.649 289.129 L 420.649 287.269 M 420.649 280.869 L 422.51 280.869 L 422.51 282.729 L 420.649 282.729 L 420.649 280.869 " fill="#000000"/>
<path class="atom-25" d="M 423.477 278.766 Q 423.961 277.52, 425.115 276.831 Q 426.268 276.124, 427.868 276.124 Q 429.859 276.124, 430.975 277.203 Q 432.091 278.283, 432.091 280.199 Q 432.091 282.152, 430.64 283.976 Q 429.208 285.799, 426.231 287.957 L 432.315 287.957 L 432.315 289.445 L 423.44 289.445 L 423.44 288.199 Q 425.896 286.45, 427.347 285.148 Q 428.817 283.845, 429.524 282.673 Q 430.231 281.501, 430.231 280.292 Q 430.231 279.027, 429.598 278.32 Q 428.966 277.613, 427.868 277.613 Q 426.808 277.613, 426.101 278.041 Q 425.394 278.469, 424.891 279.417 L 423.477 278.766 " fill="#000000"/>
<path class="atom-25" d="M 438.733 281.222 Q 439.887 281.222, 440.798 281.724 Q 441.71 282.227, 442.212 283.138 Q 442.715 284.05, 442.715 285.204 Q 442.715 286.487, 442.138 287.492 Q 441.58 288.478, 440.575 289.036 Q 439.57 289.594, 438.287 289.594 Q 435.943 289.594, 434.752 288.013 Q 433.58 286.413, 433.58 283.25 Q 433.58 279.752, 435.031 277.948 Q 436.501 276.124, 439.31 276.124 Q 440.129 276.124, 440.817 276.31 Q 441.524 276.497, 442.194 276.887 L 441.468 278.134 Q 440.501 277.613, 439.329 277.613 Q 437.468 277.613, 436.519 278.822 Q 435.57 280.013, 435.459 282.487 Q 436.129 281.873, 436.966 281.557 Q 437.822 281.222, 438.733 281.222 M 438.305 288.069 Q 439.012 288.069, 439.589 287.697 Q 440.184 287.325, 440.519 286.673 Q 440.854 286.022, 440.854 285.222 Q 440.854 284.05, 440.203 283.38 Q 439.552 282.711, 438.398 282.711 Q 437.598 282.711, 436.798 283.045 Q 436.017 283.362, 435.459 283.92 Q 435.533 286.097, 436.222 287.083 Q 436.91 288.069, 438.305 288.069 " fill="#000000"/>
<path class="atom-26" d="M 385.885 116.81 L 387.671 116.81 L 387.671 122.41 L 394.406 122.41 L 394.406 116.81 L 396.192 116.81 L 396.192 129.982 L 394.406 129.982 L 394.406 123.898 L 387.671 123.898 L 387.671 129.982 L 385.885 129.982 L 385.885 116.81 " fill="#000000"/>
<path class="atom-26" d="M 397.588 127.805 L 399.448 127.805 L 399.448 129.666 L 397.588 129.666 L 397.588 127.805 M 397.588 121.405 L 399.448 121.405 L 399.448 123.266 L 397.588 123.266 L 397.588 121.405 " fill="#000000"/>
<path class="atom-26" d="M 400.415 119.303 Q 400.899 118.056, 402.053 117.368 Q 403.206 116.661, 404.806 116.661 Q 406.797 116.661, 407.913 117.74 Q 409.029 118.819, 409.029 120.735 Q 409.029 122.689, 407.578 124.512 Q 406.146 126.335, 403.169 128.494 L 409.253 128.494 L 409.253 129.982 L 400.378 129.982 L 400.378 128.735 Q 402.834 126.987, 404.285 125.684 Q 405.755 124.382, 406.462 123.21 Q 407.169 122.038, 407.169 120.828 Q 407.169 119.563, 406.536 118.856 Q 405.904 118.149, 404.806 118.149 Q 403.746 118.149, 403.039 118.577 Q 402.332 119.005, 401.829 119.954 L 400.415 119.303 " fill="#000000"/>
<path class="atom-26" d="M 416.49 118.298 L 409.588 118.298 L 409.588 116.81 L 418.332 116.81 L 418.332 118.131 L 413.011 129.982 L 411.225 129.982 L 416.49 118.298 " fill="#000000"/>
<path class="atom-27" d="M 443.449 189.884 L 445.235 189.884 L 445.235 195.484 L 451.97 195.484 L 451.97 189.884 L 453.756 189.884 L 453.756 203.056 L 451.97 203.056 L 451.97 196.973 L 445.235 196.973 L 445.235 203.056 L 443.449 203.056 L 443.449 189.884 " fill="#000000"/>
<path class="atom-27" d="M 455.152 200.88 L 457.012 200.88 L 457.012 202.74 L 455.152 202.74 L 455.152 200.88 M 455.152 194.48 L 457.012 194.48 L 457.012 196.34 L 455.152 196.34 L 455.152 194.48 " fill="#000000"/>
<path class="atom-27" d="M 457.98 192.377 Q 458.463 191.131, 459.617 190.442 Q 460.77 189.735, 462.37 189.735 Q 464.361 189.735, 465.477 190.814 Q 466.594 191.893, 466.594 193.81 Q 466.594 195.763, 465.142 197.587 Q 463.71 199.41, 460.733 201.568 L 466.817 201.568 L 466.817 203.056 L 457.942 203.056 L 457.942 201.81 Q 460.398 200.061, 461.849 198.759 Q 463.319 197.456, 464.026 196.284 Q 464.733 195.112, 464.733 193.903 Q 464.733 192.638, 464.101 191.931 Q 463.468 191.224, 462.37 191.224 Q 461.31 191.224, 460.603 191.652 Q 459.896 192.079, 459.393 193.028 L 457.98 192.377 " fill="#000000"/>
<path class="atom-27" d="M 474.687 196.08 Q 475.896 196.6, 476.584 197.382 Q 477.273 198.145, 477.273 199.447 Q 477.273 200.563, 476.696 201.438 Q 476.119 202.294, 475.077 202.777 Q 474.054 203.242, 472.696 203.242 Q 470.501 203.242, 469.235 202.238 Q 467.97 201.214, 467.97 199.447 Q 467.97 198.368, 468.528 197.568 Q 469.087 196.749, 470.24 196.135 Q 469.384 195.652, 468.919 194.945 Q 468.454 194.219, 468.454 193.103 Q 468.454 191.559, 469.57 190.647 Q 470.705 189.735, 472.622 189.735 Q 474.538 189.735, 475.654 190.647 Q 476.789 191.559, 476.789 193.103 Q 476.789 194.07, 476.249 194.796 Q 475.729 195.503, 474.687 196.08 M 472.622 191.131 Q 471.524 191.131, 470.91 191.652 Q 470.315 192.173, 470.315 193.103 Q 470.315 193.791, 470.724 194.256 Q 471.133 194.703, 471.71 194.963 Q 472.305 195.224, 473.44 195.614 Q 474.24 195.056, 474.575 194.461 Q 474.929 193.866, 474.929 193.103 Q 474.929 192.173, 474.315 191.652 Q 473.719 191.131, 472.622 191.131 M 472.696 201.847 Q 473.924 201.847, 474.668 201.196 Q 475.412 200.526, 475.412 199.428 Q 475.412 198.721, 475.022 198.275 Q 474.631 197.828, 474.035 197.568 Q 473.459 197.307, 472.417 196.973 L 471.58 196.693 Q 470.649 197.252, 470.24 197.921 Q 469.831 198.573, 469.831 199.428 Q 469.831 200.526, 470.612 201.196 Q 471.394 201.847, 472.696 201.847 " fill="#000000"/>
<path class="atom-28" d="M 172.97 106.902 L 174.756 106.902 L 174.756 112.502 L 181.491 112.502 L 181.491 106.902 L 183.278 106.902 L 183.278 120.074 L 181.491 120.074 L 181.491 113.991 L 174.756 113.991 L 174.756 120.074 L 172.97 120.074 L 172.97 106.902 " fill="#000000"/>
<path class="atom-28" d="M 184.673 117.898 L 186.533 117.898 L 186.533 119.758 L 184.673 119.758 L 184.673 117.898 M 184.673 111.497 L 186.533 111.497 L 186.533 113.358 L 184.673 113.358 L 184.673 111.497 " fill="#000000"/>
<path class="atom-28" d="M 187.501 109.395 Q 187.985 108.149, 189.138 107.46 Q 190.292 106.753, 191.892 106.753 Q 193.882 106.753, 194.999 107.832 Q 196.115 108.911, 196.115 110.828 Q 196.115 112.781, 194.664 114.604 Q 193.231 116.428, 190.254 118.586 L 196.338 118.586 L 196.338 120.074 L 187.464 120.074 L 187.464 118.828 Q 189.919 117.079, 191.371 115.777 Q 192.84 114.474, 193.547 113.302 Q 194.254 112.13, 194.254 110.921 Q 194.254 109.656, 193.622 108.949 Q 192.989 108.242, 191.892 108.242 Q 190.831 108.242, 190.124 108.67 Q 189.417 109.097, 188.915 110.046 L 187.501 109.395 " fill="#000000"/>
<path class="atom-28" d="M 201.789 106.753 Q 204.134 106.753, 205.306 108.353 Q 206.496 109.935, 206.496 113.098 Q 206.496 116.595, 205.027 118.418 Q 203.575 120.223, 200.766 120.223 Q 199.947 120.223, 199.24 120.037 Q 198.552 119.851, 197.882 119.46 L 198.608 118.214 Q 199.575 118.735, 200.747 118.735 Q 202.608 118.735, 203.557 117.544 Q 204.506 116.335, 204.617 113.86 Q 203.947 114.474, 203.092 114.809 Q 202.254 115.125, 201.343 115.125 Q 200.189 115.125, 199.278 114.623 Q 198.366 114.121, 197.864 113.209 Q 197.361 112.297, 197.361 111.144 Q 197.361 109.86, 197.92 108.874 Q 198.496 107.87, 199.501 107.311 Q 200.506 106.753, 201.789 106.753 M 199.222 111.125 Q 199.222 112.297, 199.873 112.967 Q 200.524 113.637, 201.678 113.637 Q 202.478 113.637, 203.259 113.321 Q 204.059 112.986, 204.617 112.428 Q 204.543 110.251, 203.854 109.265 Q 203.166 108.279, 201.771 108.279 Q 201.064 108.279, 200.468 108.651 Q 199.892 109.023, 199.557 109.674 Q 199.222 110.325, 199.222 111.125 " fill="#000000"/>
<path class="atom-29" d="M 79.9658 279.68 L 81.7518 279.68 L 81.7518 285.28 L 88.4868 285.28 L 88.4868 279.68 L 90.2728 279.68 L 90.2728 292.853 L 88.4868 292.853 L 88.4868 286.769 L 81.7518 286.769 L 81.7518 292.853 L 79.9658 292.853 L 79.9658 279.68 " fill="#000000"/>
<path class="atom-29" d="M 91.6682 290.676 L 93.5287 290.676 L 93.5287 292.536 L 91.6682 292.536 L 91.6682 290.676 M 91.6682 284.276 L 93.5287 284.276 L 93.5287 286.136 L 91.6682 286.136 L 91.6682 284.276 " fill="#000000"/>
<path class="atom-29" d="M 100.636 285.913 Q 101.919 286.285, 102.533 287.122 Q 103.166 287.941, 103.166 289.243 Q 103.166 290.36, 102.608 291.234 Q 102.05 292.09, 101.026 292.574 Q 100.003 293.039, 98.6636 293.039 Q 97.2496 293.039, 96.1892 292.555 Q 95.1473 292.053, 94.3101 291.048 L 95.3706 289.969 Q 96.1892 290.862, 96.8776 291.215 Q 97.5659 291.55, 98.6636 291.55 Q 99.8543 291.55, 100.58 290.918 Q 101.305 290.267, 101.305 289.225 Q 101.305 287.885, 100.543 287.29 Q 99.7985 286.676, 98.1799 286.676 L 97.231 286.676 L 97.231 285.336 L 98.0683 285.336 Q 99.5008 285.318, 100.264 284.704 Q 101.026 284.071, 101.026 282.899 Q 101.026 282.043, 100.394 281.541 Q 99.7613 281.02, 98.6822 281.02 Q 97.5845 281.02, 96.8962 281.411 Q 96.2264 281.801, 95.7054 282.787 L 94.4217 282.099 Q 94.8868 281.001, 96.0031 280.276 Q 97.1194 279.532, 98.6822 279.532 Q 100.617 279.532, 101.752 280.443 Q 102.887 281.355, 102.887 282.899 Q 102.887 283.959, 102.31 284.722 Q 101.733 285.485, 100.636 285.913 " fill="#000000"/>
<path class="atom-29" d="M 109.12 293.001 Q 106.701 293.001, 105.492 291.215 Q 104.301 289.429, 104.301 286.248 Q 104.301 283.066, 105.492 281.299 Q 106.682 279.532, 109.12 279.532 Q 111.557 279.532, 112.747 281.299 Q 113.938 283.066, 113.938 286.248 Q 113.938 289.429, 112.729 291.215 Q 111.538 293.001, 109.12 293.001 M 109.12 291.513 Q 110.552 291.513, 111.315 290.192 Q 112.078 288.853, 112.078 286.248 Q 112.078 283.662, 111.315 282.341 Q 110.552 281.02, 109.12 281.02 Q 107.706 281.02, 106.924 282.341 Q 106.161 283.662, 106.161 286.248 Q 106.161 288.853, 106.924 290.192 Q 107.706 291.513, 109.12 291.513 " fill="#000000"/>
<path class="atom-30" d="M 57.8807 120.217 L 59.6667 120.217 L 59.6667 125.817 L 66.4017 125.817 L 66.4017 120.217 L 68.1877 120.217 L 68.1877 133.389 L 66.4017 133.389 L 66.4017 127.305 L 59.6667 127.305 L 59.6667 133.389 L 57.8807 133.389 L 57.8807 120.217 " fill="#000000"/>
<path class="atom-30" d="M 69.5831 131.212 L 71.4436 131.212 L 71.4436 133.073 L 69.5831 133.073 L 69.5831 131.212 M 69.5831 124.812 L 71.4436 124.812 L 71.4436 126.673 L 69.5831 126.673 L 69.5831 124.812 " fill="#000000"/>
<path class="atom-30" d="M 78.5506 126.449 Q 79.8344 126.822, 80.4483 127.659 Q 81.0809 128.477, 81.0809 129.78 Q 81.0809 130.896, 80.5227 131.77 Q 79.9646 132.626, 78.9413 133.11 Q 77.9181 133.575, 76.5785 133.575 Q 75.1645 133.575, 74.1041 133.091 Q 73.0622 132.589, 72.225 131.584 L 73.2855 130.505 Q 74.1041 131.398, 74.7925 131.752 Q 75.4808 132.087, 76.5785 132.087 Q 77.7692 132.087, 78.4948 131.454 Q 79.2204 130.803, 79.2204 129.761 Q 79.2204 128.422, 78.4576 127.826 Q 77.7134 127.212, 76.0948 127.212 L 75.1459 127.212 L 75.1459 125.873 L 75.9832 125.873 Q 77.4157 125.854, 78.1785 125.24 Q 78.9413 124.608, 78.9413 123.435 Q 78.9413 122.58, 78.3088 122.077 Q 77.6762 121.556, 76.5971 121.556 Q 75.4994 121.556, 74.8111 121.947 Q 74.1413 122.338, 73.6203 123.324 L 72.3366 122.635 Q 72.8017 121.538, 73.918 120.812 Q 75.0343 120.068, 76.5971 120.068 Q 78.532 120.068, 79.6669 120.98 Q 80.8018 121.891, 80.8018 123.435 Q 80.8018 124.496, 80.2251 125.259 Q 79.6483 126.022, 78.5506 126.449 " fill="#000000"/>
<path class="atom-30" d="M 82.8111 131.901 L 85.6949 131.901 L 85.6949 122.059 L 82.5135 123.045 L 82.0855 121.947 L 86.1228 120.142 L 87.4437 120.366 L 87.4437 131.901 L 90.0298 131.901 L 90.0298 133.389 L 82.8111 133.389 L 82.8111 131.901 " fill="#000000"/>
<path class="atom-31" d="M 312.563 307.747 L 314.349 307.747 L 314.349 313.347 L 321.084 313.347 L 321.084 307.747 L 322.87 307.747 L 322.87 320.919 L 321.084 320.919 L 321.084 314.836 L 314.349 314.836 L 314.349 320.919 L 312.563 320.919 L 312.563 307.747 " fill="#000000"/>
<path class="atom-31" d="M 324.265 318.743 L 326.126 318.743 L 326.126 320.603 L 324.265 320.603 L 324.265 318.743 M 324.265 312.343 L 326.126 312.343 L 326.126 314.203 L 324.265 314.203 L 324.265 312.343 " fill="#000000"/>
<path class="atom-31" d="M 333.233 313.98 Q 334.517 314.352, 335.131 315.189 Q 335.763 316.008, 335.763 317.31 Q 335.763 318.426, 335.205 319.301 Q 334.647 320.157, 333.624 320.64 Q 332.6 321.106, 331.261 321.106 Q 329.847 321.106, 328.786 320.622 Q 327.745 320.119, 326.907 319.115 L 327.968 318.036 Q 328.786 318.929, 329.475 319.282 Q 330.163 319.617, 331.261 319.617 Q 332.452 319.617, 333.177 318.985 Q 333.903 318.333, 333.903 317.292 Q 333.903 315.952, 333.14 315.357 Q 332.396 314.743, 330.777 314.743 L 329.828 314.743 L 329.828 313.403 L 330.666 313.403 Q 332.098 313.385, 332.861 312.771 Q 333.624 312.138, 333.624 310.966 Q 333.624 310.11, 332.991 309.608 Q 332.359 309.087, 331.279 309.087 Q 330.182 309.087, 329.493 309.478 Q 328.824 309.868, 328.303 310.854 L 327.019 310.166 Q 327.484 309.068, 328.6 308.343 Q 329.717 307.598, 331.279 307.598 Q 333.214 307.598, 334.349 308.51 Q 335.484 309.422, 335.484 310.966 Q 335.484 312.026, 334.907 312.789 Q 334.331 313.552, 333.233 313.98 " fill="#000000"/>
<path class="atom-31" d="M 336.731 310.24 Q 337.214 308.994, 338.368 308.305 Q 339.521 307.598, 341.121 307.598 Q 343.112 307.598, 344.228 308.678 Q 345.345 309.757, 345.345 311.673 Q 345.345 313.626, 343.894 315.45 Q 342.461 317.273, 339.484 319.431 L 345.568 319.431 L 345.568 320.919 L 336.693 320.919 L 336.693 319.673 Q 339.149 317.924, 340.601 316.622 Q 342.07 315.319, 342.777 314.147 Q 343.484 312.975, 343.484 311.766 Q 343.484 310.501, 342.852 309.794 Q 342.219 309.087, 341.121 309.087 Q 340.061 309.087, 339.354 309.515 Q 338.647 309.943, 338.145 310.891 L 336.731 310.24 " fill="#000000"/>
<path class="atom-32" d="M 248.549 379.888 L 250.335 379.888 L 250.335 385.489 L 257.07 385.489 L 257.07 379.888 L 258.856 379.888 L 258.856 393.061 L 257.07 393.061 L 257.07 386.977 L 250.335 386.977 L 250.335 393.061 L 248.549 393.061 L 248.549 379.888 " fill="#000000"/>
<path class="atom-32" d="M 260.251 390.884 L 262.112 390.884 L 262.112 392.744 L 260.251 392.744 L 260.251 390.884 M 260.251 384.484 L 262.112 384.484 L 262.112 386.344 L 260.251 386.344 L 260.251 384.484 " fill="#000000"/>
<path class="atom-32" d="M 269.219 386.121 Q 270.502 386.493, 271.116 387.33 Q 271.749 388.149, 271.749 389.451 Q 271.749 390.568, 271.191 391.442 Q 270.633 392.298, 269.609 392.782 Q 268.586 393.247, 267.247 393.247 Q 265.833 393.247, 264.772 392.763 Q 263.73 392.261, 262.893 391.256 L 263.953 390.177 Q 264.772 391.07, 265.46 391.423 Q 266.149 391.758, 267.247 391.758 Q 268.437 391.758, 269.163 391.126 Q 269.888 390.475, 269.888 389.433 Q 269.888 388.093, 269.126 387.498 Q 268.381 386.884, 266.763 386.884 L 265.814 386.884 L 265.814 385.544 L 266.651 385.544 Q 268.084 385.526, 268.847 384.912 Q 269.609 384.279, 269.609 383.107 Q 269.609 382.251, 268.977 381.749 Q 268.344 381.228, 267.265 381.228 Q 266.167 381.228, 265.479 381.619 Q 264.809 382.009, 264.288 382.995 L 263.005 382.307 Q 263.47 381.209, 264.586 380.484 Q 265.702 379.74, 267.265 379.74 Q 269.2 379.74, 270.335 380.651 Q 271.47 381.563, 271.47 383.107 Q 271.47 384.168, 270.893 384.93 Q 270.316 385.693, 269.219 386.121 " fill="#000000"/>
<path class="atom-32" d="M 278.856 386.121 Q 280.14 386.493, 280.754 387.33 Q 281.386 388.149, 281.386 389.451 Q 281.386 390.568, 280.828 391.442 Q 280.27 392.298, 279.247 392.782 Q 278.223 393.247, 276.884 393.247 Q 275.47 393.247, 274.409 392.763 Q 273.368 392.261, 272.53 391.256 L 273.591 390.177 Q 274.409 391.07, 275.098 391.423 Q 275.786 391.758, 276.884 391.758 Q 278.075 391.758, 278.8 391.126 Q 279.526 390.475, 279.526 389.433 Q 279.526 388.093, 278.763 387.498 Q 278.019 386.884, 276.4 386.884 L 275.451 386.884 L 275.451 385.544 L 276.288 385.544 Q 277.721 385.526, 278.484 384.912 Q 279.247 384.279, 279.247 383.107 Q 279.247 382.251, 278.614 381.749 Q 277.982 381.228, 276.902 381.228 Q 275.805 381.228, 275.116 381.619 Q 274.447 382.009, 273.926 382.995 L 272.642 382.307 Q 273.107 381.209, 274.223 380.484 Q 275.34 379.74, 276.902 379.74 Q 278.837 379.74, 279.972 380.651 Q 281.107 381.563, 281.107 383.107 Q 281.107 384.168, 280.53 384.93 Q 279.954 385.693, 278.856 386.121 " fill="#000000"/>
<path class="atom-33" d="M 22.7273 206.606 L 24.5133 206.606 L 24.5133 212.206 L 31.2483 212.206 L 31.2483 206.606 L 33.0343 206.606 L 33.0343 219.778 L 31.2483 219.778 L 31.2483 213.694 L 24.5133 213.694 L 24.5133 219.778 L 22.7273 219.778 L 22.7273 206.606 " fill="#000000"/>
<path class="atom-33" d="M 34.4297 217.601 L 36.2902 217.601 L 36.2902 219.462 L 34.4297 219.462 L 34.4297 217.601 M 34.4297 211.201 L 36.2902 211.201 L 36.2902 213.062 L 34.4297 213.062 L 34.4297 211.201 " fill="#000000"/>
<path class="atom-33" d="M 43.3972 212.839 Q 44.681 213.211, 45.2949 214.048 Q 45.9275 214.867, 45.9275 216.169 Q 45.9275 217.285, 45.3693 218.16 Q 44.8112 219.015, 43.7879 219.499 Q 42.7647 219.964, 41.4251 219.964 Q 40.0112 219.964, 38.9507 219.481 Q 37.9088 218.978, 37.0716 217.974 L 38.1321 216.894 Q 38.9507 217.788, 39.6391 218.141 Q 40.3274 218.476, 41.4251 218.476 Q 42.6158 218.476, 43.3414 217.843 Q 44.067 217.192, 44.067 216.15 Q 44.067 214.811, 43.3042 214.215 Q 42.56 213.601, 40.9414 213.601 L 39.9925 213.601 L 39.9925 212.262 L 40.8298 212.262 Q 42.2623 212.243, 43.0251 211.629 Q 43.7879 210.997, 43.7879 209.825 Q 43.7879 208.969, 43.1554 208.466 Q 42.5228 207.946, 41.4437 207.946 Q 40.346 207.946, 39.6577 208.336 Q 38.9879 208.727, 38.467 209.713 L 37.1832 209.025 Q 37.6483 207.927, 38.7646 207.201 Q 39.8809 206.457, 41.4437 206.457 Q 43.3786 206.457, 44.5135 207.369 Q 45.6484 208.28, 45.6484 209.825 Q 45.6484 210.885, 45.0717 211.648 Q 44.4949 212.411, 43.3972 212.839 " fill="#000000"/>
<path class="atom-33" d="M 55.0439 215.257 L 56.6253 215.257 L 56.6253 216.746 L 55.0439 216.746 L 55.0439 219.778 L 53.295 219.778 L 53.295 216.746 L 46.4856 216.746 L 46.4856 215.574 L 52.2531 206.606 L 55.0439 206.606 L 55.0439 215.257 M 48.6438 215.257 L 53.295 215.257 L 53.295 207.797 L 48.6438 215.257 " fill="#000000"/>
<text x="212.6714755208751" y="189.81684851070406" font-size="12" font-family="Verdana" font-weight="bold" letter-spacing="0" text-anchor="start" fill="black" transform=" rotate(81.770853 212.671476 189.816849)">0.0513</text><text x="25" y="490" font-size="12" font-family="Verdana" font-weight="bold" letter-spacing="0" text-anchor="start" fill="black">[#6:1]1(:[#6:2](-[#7:3](/[#6:4](=[#6:6]2/[#6:8](=[#6:10](-[#7:7](-[#6:9]-2=[#8:23])-[H:22])-[H:33])-[H:32])-[#6:11]2:[#6:12](:[#6:14](:[#6:16](:[#6:15](:[#6:13]:2-[H:25])-[H:27])-[H:28])-[H:26])-[H:24])-[H:5]):[#6:17](:[#6:19](:[#6:20](:[#6:18]:1-[H:30])-[H:34])-[H:31])-[H:29])-[H:21]</text></svg>
