<?xml version='1.0' encoding='ASCII' standalone='yes'?>
<svg xmlns="http://www.w3.org/2000/svg" xmlns:rdkit="http://www.rdkit.org/xml" xmlns:xlink="http://www.w3.org/1999/xlink" version="1.1" baseProfile="full" xml:space="preserve" width="1200px" height="400px" viewBox="0 0 1200 400">
<!-- END OF HEADER -->
<rect style="opacity:1.0;fill:#FFFFFF;stroke:none" width="1200" height="400" x="0" y="0"> </rect>
<rect style="opacity:1.0;fill:#FFFFFF;stroke:none" width="1200" height="400" x="0" y="0"> </rect>
<rect style="opacity:1.0;fill:#FFFFFF;stroke:none" width="1200" height="400" x="0" y="0"> </rect>
<path d="M 156.683,135.703 L 195.123,130.144" style="fill:none;fill-rule:evenodd;stroke:#FF7F7F;stroke-width:8.3px;stroke-linecap:butt;stroke-linejoin:miter;stroke-opacity:1"/>
<path class="bond-0 atom-0 atom-17" d="M 142.277,171.773 L 103.837,177.333" style="fill:none;fill-rule:evenodd;stroke:#000000;stroke-width:2.0px;stroke-linecap:butt;stroke-linejoin:miter;stroke-opacity:1"/>
<path class="bond-0 atom-0 atom-17" d="M 135.4,164.919 L 108.491,168.811" style="fill:none;fill-rule:evenodd;stroke:#000000;stroke-width:2.0px;stroke-linecap:butt;stroke-linejoin:miter;stroke-opacity:1"/>
<path class="bond-1 atom-0 atom-20" d="M 142.277,171.773 L 148.04,184.581" style="fill:none;fill-rule:evenodd;stroke:#000000;stroke-width:2.0px;stroke-linecap:butt;stroke-linejoin:miter;stroke-opacity:1"/>
<path class="bond-2 atom-1 atom-0" d="M 156.683,135.703 L 142.277,171.773" style="fill:none;fill-rule:evenodd;stroke:#000000;stroke-width:2.0px;stroke-linecap:butt;stroke-linejoin:miter;stroke-opacity:1"/>
<path class="bond-3 atom-1 atom-5" d="M 156.683,135.703 L 132.648,105.193" style="fill:none;fill-rule:evenodd;stroke:#000000;stroke-width:2.0px;stroke-linecap:butt;stroke-linejoin:miter;stroke-opacity:1"/>
<path class="bond-3 atom-1 atom-5" d="M 146.976,135.934 L 130.152,114.576" style="fill:none;fill-rule:evenodd;stroke:#000000;stroke-width:2.0px;stroke-linecap:butt;stroke-linejoin:miter;stroke-opacity:1"/>
<path class="bond-5 atom-2 atom-1" d="M 189.981,130.888 L 173.332,133.296" style="fill:none;fill-rule:evenodd;stroke:#0000FF;stroke-width:2.0px;stroke-linecap:butt;stroke-linejoin:miter;stroke-opacity:1"/>
<path class="bond-5 atom-2 atom-1" d="M 173.332,133.296 L 156.683,135.703" style="fill:none;fill-rule:evenodd;stroke:#000000;stroke-width:2.0px;stroke-linecap:butt;stroke-linejoin:miter;stroke-opacity:1"/>
<path class="bond-4 atom-2 atom-3" d="M 200.221,136.615 L 209.689,148.635" style="fill:none;fill-rule:evenodd;stroke:#0000FF;stroke-width:2.0px;stroke-linecap:butt;stroke-linejoin:miter;stroke-opacity:1"/>
<path class="bond-4 atom-2 atom-3" d="M 209.689,148.635 L 219.158,160.655" style="fill:none;fill-rule:evenodd;stroke:#000000;stroke-width:2.0px;stroke-linecap:butt;stroke-linejoin:miter;stroke-opacity:1"/>
<path class="bond-6 atom-2 atom-4" d="M 197.708,123.673 L 202.361,112.022" style="fill:none;fill-rule:evenodd;stroke:#0000FF;stroke-width:2.0px;stroke-linecap:butt;stroke-linejoin:miter;stroke-opacity:1"/>
<path class="bond-6 atom-2 atom-4" d="M 202.361,112.022 L 207.014,100.371" style="fill:none;fill-rule:evenodd;stroke:#000000;stroke-width:2.0px;stroke-linecap:butt;stroke-linejoin:miter;stroke-opacity:1"/>
<path class="bond-7 atom-3 atom-11" d="M 219.158,160.655 L 257.598,155.095" style="fill:none;fill-rule:evenodd;stroke:#000000;stroke-width:2.0px;stroke-linecap:butt;stroke-linejoin:miter;stroke-opacity:1"/>
<path class="bond-11 atom-6 atom-3" d="M 204.752,196.725 L 219.158,160.655" style="fill:none;fill-rule:evenodd;stroke:#000000;stroke-width:2.0px;stroke-linecap:butt;stroke-linejoin:miter;stroke-opacity:1"/>
<path class="bond-11 atom-6 atom-3" d="M 214.127,194.195 L 224.211,168.946" style="fill:none;fill-rule:evenodd;stroke:#000000;stroke-width:2.0px;stroke-linecap:butt;stroke-linejoin:miter;stroke-opacity:1"/>
<path class="bond-8 atom-5 atom-18" d="M 132.648,105.193 L 94.2081,110.752" style="fill:none;fill-rule:evenodd;stroke:#000000;stroke-width:2.0px;stroke-linecap:butt;stroke-linejoin:miter;stroke-opacity:1"/>
<path class="bond-9 atom-5 atom-21" d="M 132.648,105.193 L 144.47,75.5935" style="fill:none;fill-rule:evenodd;stroke:#000000;stroke-width:2.0px;stroke-linecap:butt;stroke-linejoin:miter;stroke-opacity:1"/>
<path class="bond-10 atom-6 atom-8" d="M 204.752,196.725 L 225.466,229.581" style="fill:none;fill-rule:evenodd;stroke:#000000;stroke-width:2.0px;stroke-linecap:butt;stroke-linejoin:miter;stroke-opacity:1"/>
<path class="bond-12 atom-6 atom-9" d="M 204.752,196.725 L 167.104,206.272" style="fill:none;fill-rule:evenodd;stroke:#000000;stroke-width:2.0px;stroke-linecap:butt;stroke-linejoin:miter;stroke-opacity:1"/>
<path class="bond-13 atom-7 atom-9" d="M 164.976,238.557 L 166.04,222.414" style="fill:none;fill-rule:evenodd;stroke:#0000FF;stroke-width:2.0px;stroke-linecap:butt;stroke-linejoin:miter;stroke-opacity:1"/>
<path class="bond-13 atom-7 atom-9" d="M 166.04,222.414 L 167.104,206.272" style="fill:none;fill-rule:evenodd;stroke:#000000;stroke-width:2.0px;stroke-linecap:butt;stroke-linejoin:miter;stroke-opacity:1"/>
<path class="bond-14 atom-7 atom-10" d="M 169.692,247.082 L 185.156,253.258" style="fill:none;fill-rule:evenodd;stroke:#0000FF;stroke-width:2.0px;stroke-linecap:butt;stroke-linejoin:miter;stroke-opacity:1"/>
<path class="bond-14 atom-7 atom-10" d="M 185.156,253.258 L 200.619,259.433" style="fill:none;fill-rule:evenodd;stroke:#000000;stroke-width:2.0px;stroke-linecap:butt;stroke-linejoin:miter;stroke-opacity:1"/>
<path class="bond-15 atom-7 atom-22" d="M 159.407,248.27 L 148.112,255.391" style="fill:none;fill-rule:evenodd;stroke:#0000FF;stroke-width:2.0px;stroke-linecap:butt;stroke-linejoin:miter;stroke-opacity:1"/>
<path class="bond-15 atom-7 atom-22" d="M 148.112,255.391 L 136.816,262.512" style="fill:none;fill-rule:evenodd;stroke:#000000;stroke-width:2.0px;stroke-linecap:butt;stroke-linejoin:miter;stroke-opacity:1"/>
<path class="bond-16 atom-8 atom-10" d="M 225.466,229.581 L 200.619,259.433" style="fill:none;fill-rule:evenodd;stroke:#000000;stroke-width:2.0px;stroke-linecap:butt;stroke-linejoin:miter;stroke-opacity:1"/>
<path class="bond-16 atom-8 atom-10" d="M 215.769,229.089 L 198.376,249.986" style="fill:none;fill-rule:evenodd;stroke:#000000;stroke-width:2.0px;stroke-linecap:butt;stroke-linejoin:miter;stroke-opacity:1"/>
<path class="bond-17 atom-8 atom-31" d="M 225.466,229.581 L 258.347,235.837" style="fill:none;fill-rule:evenodd;stroke:#000000;stroke-width:2.0px;stroke-linecap:butt;stroke-linejoin:miter;stroke-opacity:1"/>
<path class="bond-18 atom-9 atom-23" d="M 168.792,202.774 L 154.313,195.784" style="fill:none;fill-rule:evenodd;stroke:#000000;stroke-width:2.0px;stroke-linecap:butt;stroke-linejoin:miter;stroke-opacity:1"/>
<path class="bond-18 atom-9 atom-23" d="M 154.313,195.784 L 139.834,188.795" style="fill:none;fill-rule:evenodd;stroke:#FF0000;stroke-width:2.0px;stroke-linecap:butt;stroke-linejoin:miter;stroke-opacity:1"/>
<path class="bond-18 atom-9 atom-23" d="M 165.415,209.769 L 150.936,202.78" style="fill:none;fill-rule:evenodd;stroke:#000000;stroke-width:2.0px;stroke-linecap:butt;stroke-linejoin:miter;stroke-opacity:1"/>
<path class="bond-18 atom-9 atom-23" d="M 150.936,202.78 L 136.457,195.791" style="fill:none;fill-rule:evenodd;stroke:#FF0000;stroke-width:2.0px;stroke-linecap:butt;stroke-linejoin:miter;stroke-opacity:1"/>
<path class="bond-19 atom-10 atom-32" d="M 200.619,259.433 L 208.525,290.611" style="fill:none;fill-rule:evenodd;stroke:#000000;stroke-width:2.0px;stroke-linecap:butt;stroke-linejoin:miter;stroke-opacity:1"/>
<path class="bond-20 atom-11 atom-12" d="M 257.598,155.095 L 281.633,185.606" style="fill:none;fill-rule:evenodd;stroke:#000000;stroke-width:2.0px;stroke-linecap:butt;stroke-linejoin:miter;stroke-opacity:1"/>
<path class="bond-20 atom-11 atom-12" d="M 267.306,154.865 L 284.13,176.223" style="fill:none;fill-rule:evenodd;stroke:#000000;stroke-width:2.0px;stroke-linecap:butt;stroke-linejoin:miter;stroke-opacity:1"/>
<path class="bond-21 atom-11 atom-13" d="M 257.598,155.095 L 272.004,119.025" style="fill:none;fill-rule:evenodd;stroke:#000000;stroke-width:2.0px;stroke-linecap:butt;stroke-linejoin:miter;stroke-opacity:1"/>
<path class="bond-22 atom-12 atom-14" d="M 281.633,185.606 L 320.073,180.047" style="fill:none;fill-rule:evenodd;stroke:#000000;stroke-width:2.0px;stroke-linecap:butt;stroke-linejoin:miter;stroke-opacity:1"/>
<path class="bond-23 atom-12 atom-24" d="M 281.633,185.606 L 273.438,216.692" style="fill:none;fill-rule:evenodd;stroke:#000000;stroke-width:2.0px;stroke-linecap:butt;stroke-linejoin:miter;stroke-opacity:1"/>
<path class="bond-24 atom-13 atom-15" d="M 272.004,119.025 L 310.444,113.466" style="fill:none;fill-rule:evenodd;stroke:#000000;stroke-width:2.0px;stroke-linecap:butt;stroke-linejoin:miter;stroke-opacity:1"/>
<path class="bond-24 atom-13 atom-15" d="M 278.882,125.88 L 305.79,121.988" style="fill:none;fill-rule:evenodd;stroke:#000000;stroke-width:2.0px;stroke-linecap:butt;stroke-linejoin:miter;stroke-opacity:1"/>
<path class="bond-25 atom-13 atom-25" d="M 272.004,119.025 L 253.067,94.9856" style="fill:none;fill-rule:evenodd;stroke:#000000;stroke-width:2.0px;stroke-linecap:butt;stroke-linejoin:miter;stroke-opacity:1"/>
<path class="bond-26 atom-14 atom-16" d="M 320.073,180.047 L 334.479,143.977" style="fill:none;fill-rule:evenodd;stroke:#000000;stroke-width:2.0px;stroke-linecap:butt;stroke-linejoin:miter;stroke-opacity:1"/>
<path class="bond-26 atom-14 atom-16" d="M 315.02,171.755 L 325.104,146.506" style="fill:none;fill-rule:evenodd;stroke:#000000;stroke-width:2.0px;stroke-linecap:butt;stroke-linejoin:miter;stroke-opacity:1"/>
<path class="bond-27 atom-14 atom-26" d="M 320.073,180.047 L 339.011,204.087" style="fill:none;fill-rule:evenodd;stroke:#000000;stroke-width:2.0px;stroke-linecap:butt;stroke-linejoin:miter;stroke-opacity:1"/>
<path class="bond-28 atom-15 atom-16" d="M 310.444,113.466 L 334.479,143.977" style="fill:none;fill-rule:evenodd;stroke:#000000;stroke-width:2.0px;stroke-linecap:butt;stroke-linejoin:miter;stroke-opacity:1"/>
<path class="bond-29 atom-15 atom-27" d="M 310.444,113.466 L 322.266,83.867" style="fill:none;fill-rule:evenodd;stroke:#000000;stroke-width:2.0px;stroke-linecap:butt;stroke-linejoin:miter;stroke-opacity:1"/>
<path class="bond-30 atom-16 atom-28" d="M 334.479,143.977 L 367.645,139.18" style="fill:none;fill-rule:evenodd;stroke:#000000;stroke-width:2.0px;stroke-linecap:butt;stroke-linejoin:miter;stroke-opacity:1"/>
<path class="bond-31 atom-17 atom-19" d="M 103.837,177.333 L 79.8024,146.822" style="fill:none;fill-rule:evenodd;stroke:#000000;stroke-width:2.0px;stroke-linecap:butt;stroke-linejoin:miter;stroke-opacity:1"/>
<path class="bond-32 atom-17 atom-29" d="M 103.837,177.333 L 92.0157,206.932" style="fill:none;fill-rule:evenodd;stroke:#000000;stroke-width:2.0px;stroke-linecap:butt;stroke-linejoin:miter;stroke-opacity:1"/>
<path class="bond-33 atom-18 atom-19" d="M 94.2081,110.752 L 79.8024,146.822" style="fill:none;fill-rule:evenodd;stroke:#000000;stroke-width:2.0px;stroke-linecap:butt;stroke-linejoin:miter;stroke-opacity:1"/>
<path class="bond-33 atom-18 atom-19" d="M 99.2612,119.044 L 89.1773,144.293" style="fill:none;fill-rule:evenodd;stroke:#000000;stroke-width:2.0px;stroke-linecap:butt;stroke-linejoin:miter;stroke-opacity:1"/>
<path class="bond-34 atom-18 atom-30" d="M 94.2081,110.752 L 75.2708,86.7121" style="fill:none;fill-rule:evenodd;stroke:#000000;stroke-width:2.0px;stroke-linecap:butt;stroke-linejoin:miter;stroke-opacity:1"/>
<path class="bond-35 atom-19 atom-33" d="M 79.8024,146.822 L 46.6366,151.618" style="fill:none;fill-rule:evenodd;stroke:#000000;stroke-width:2.0px;stroke-linecap:butt;stroke-linejoin:miter;stroke-opacity:1"/>
<path class="atom-2" d="M 192.692 124.644 L 196.296 130.47 Q 196.654 131.045, 197.229 132.086 Q 197.803 133.127, 197.834 133.189 L 197.834 124.644 L 199.295 124.644 L 199.295 135.644 L 197.788 135.644 L 193.919 129.274 Q 193.469 128.528, 192.987 127.674 Q 192.521 126.819, 192.381 126.555 L 192.381 135.644 L 190.952 135.644 L 190.952 124.644 L 192.692 124.644 " fill="#0000FF"/>
<path class="atom-4" d="M 205.226 88.5743 L 206.717 88.5743 L 206.717 93.2507 L 212.341 93.2507 L 212.341 88.5743 L 213.833 88.5743 L 213.833 99.5739 L 212.341 99.5739 L 212.341 94.4936 L 206.717 94.4936 L 206.717 99.5739 L 205.226 99.5739 L 205.226 88.5743 " fill="#000000"/>
<path class="atom-7" d="M 162.118 239.528 L 165.722 245.354 Q 166.08 245.929, 166.655 246.97 Q 167.229 248.011, 167.26 248.073 L 167.26 239.528 L 168.721 239.528 L 168.721 250.528 L 167.214 250.528 L 163.345 244.158 Q 162.895 243.412, 162.413 242.558 Q 161.947 241.703, 161.807 241.439 L 161.807 250.528 L 160.378 250.528 L 160.378 239.528 L 162.118 239.528 " fill="#0000FF"/>
<path class="atom-20" d="M 146.444 185.097 L 147.935 185.097 L 147.935 189.773 L 153.559 189.773 L 153.559 185.097 L 155.051 185.097 L 155.051 196.097 L 153.559 196.097 L 153.559 191.016 L 147.935 191.016 L 147.935 196.097 L 146.444 196.097 L 146.444 185.097 " fill="#000000"/>
<path class="atom-21" d="M 142.751 63.623 L 144.242 63.623 L 144.242 68.2993 L 149.866 68.2993 L 149.866 63.623 L 151.358 63.623 L 151.358 74.6225 L 149.866 74.6225 L 149.866 69.5422 L 144.242 69.5422 L 144.242 74.6225 L 142.751 74.6225 L 142.751 63.623 " fill="#000000"/>
<path class="atom-22" d="M 127.39 260.242 L 128.882 260.242 L 128.882 264.918 L 134.506 264.918 L 134.506 260.242 L 135.997 260.242 L 135.997 271.241 L 134.506 271.241 L 134.506 266.161 L 128.882 266.161 L 128.882 271.241 L 127.39 271.241 L 127.39 260.242 " fill="#000000"/>
<path class="atom-23" d="M 127.076 189.418 Q 127.076 186.777, 128.381 185.301 Q 129.686 183.825, 132.126 183.825 Q 134.565 183.825, 135.87 185.301 Q 137.175 186.777, 137.175 189.418 Q 137.175 192.09, 135.854 193.613 Q 134.534 195.12, 132.126 195.12 Q 129.702 195.12, 128.381 193.613 Q 127.076 192.106, 127.076 189.418 M 132.126 193.877 Q 133.804 193.877, 134.705 192.758 Q 135.621 191.624, 135.621 189.418 Q 135.621 187.258, 134.705 186.171 Q 133.804 185.068, 132.126 185.068 Q 130.448 185.068, 129.531 186.155 Q 128.63 187.243, 128.63 189.418 Q 128.63 191.64, 129.531 192.758 Q 130.448 193.877, 132.126 193.877 " fill="#FF0000"/>
<path class="atom-24" d="M 267.428 217.663 L 268.92 217.663 L 268.92 222.34 L 274.544 222.34 L 274.544 217.663 L 276.035 217.663 L 276.035 228.663 L 274.544 228.663 L 274.544 223.583 L 268.92 223.583 L 268.92 228.663 L 267.428 228.663 L 267.428 217.663 " fill="#000000"/>
<path class="atom-25" d="M 243.666 83.015 L 245.157 83.015 L 245.157 87.6914 L 250.781 87.6914 L 250.781 83.015 L 252.273 83.015 L 252.273 94.0146 L 250.781 94.0146 L 250.781 88.9343 L 245.157 88.9343 L 245.157 94.0146 L 243.666 94.0146 L 243.666 83.015 " fill="#000000"/>
<path class="atom-26" d="M 339.805 205.058 L 341.296 205.058 L 341.296 209.734 L 346.92 209.734 L 346.92 205.058 L 348.412 205.058 L 348.412 216.057 L 346.92 216.057 L 346.92 210.977 L 341.296 210.977 L 341.296 216.057 L 339.805 216.057 L 339.805 205.058 " fill="#000000"/>
<path class="atom-27" d="M 320.547 71.8964 L 322.038 71.8964 L 322.038 76.5728 L 327.662 76.5728 L 327.662 71.8964 L 329.154 71.8964 L 329.154 82.896 L 327.662 82.896 L 327.662 77.8157 L 322.038 77.8157 L 322.038 82.896 L 320.547 82.896 L 320.547 71.8964 " fill="#000000"/>
<path class="atom-28" d="M 368.616 132.918 L 370.107 132.918 L 370.107 137.594 L 375.731 137.594 L 375.731 132.918 L 377.223 132.918 L 377.223 143.917 L 375.731 143.917 L 375.731 138.837 L 370.107 138.837 L 370.107 143.917 L 368.616 143.917 L 368.616 132.918 " fill="#000000"/>
<path class="atom-29" d="M 85.1279 207.903 L 86.6194 207.903 L 86.6194 212.579 L 92.2435 212.579 L 92.2435 207.903 L 93.7349 207.903 L 93.7349 218.902 L 92.2435 218.902 L 92.2435 213.822 L 86.6194 213.822 L 86.6194 218.902 L 85.1279 218.902 L 85.1279 207.903 " fill="#000000"/>
<path class="atom-30" d="M 65.8699 74.7416 L 67.3614 74.7416 L 67.3614 79.4179 L 72.9855 79.4179 L 72.9855 74.7416 L 74.4769 74.7416 L 74.4769 85.7411 L 72.9855 85.7411 L 72.9855 80.6608 L 67.3614 80.6608 L 67.3614 85.7411 L 65.8699 85.7411 L 65.8699 74.7416 " fill="#000000"/>
<path class="atom-31" d="M 259.318 231.34 L 260.81 231.34 L 260.81 236.017 L 266.434 236.017 L 266.434 231.34 L 267.925 231.34 L 267.925 242.34 L 266.434 242.34 L 266.434 237.26 L 260.81 237.26 L 260.81 242.34 L 259.318 242.34 L 259.318 231.34 " fill="#000000"/>
<path class="atom-32" d="M 205.863 291.582 L 207.354 291.582 L 207.354 296.259 L 212.978 296.259 L 212.978 291.582 L 214.47 291.582 L 214.47 302.582 L 212.978 302.582 L 212.978 297.502 L 207.354 297.502 L 207.354 302.582 L 205.863 302.582 L 205.863 291.582 " fill="#000000"/>
<path class="atom-33" d="M 37.0586 146.881 L 38.5501 146.881 L 38.5501 151.558 L 44.1741 151.558 L 44.1741 146.881 L 45.6656 146.881 L 45.6656 157.881 L 44.1741 157.881 L 44.1741 152.801 L 38.5501 152.801 L 38.5501 157.881 L 37.0586 157.881 L 37.0586 146.881 " fill="#000000"/>
<path d="M 151.388 390.536 L 153.868 390.536 L 153.868 382.072 L 151.132 382.92 L 150.764 381.976 L 154.236 380.424 L 155.372 380.616 L 155.372 390.536 L 157.596 390.536 L 157.596 391.816 L 151.388 391.816 L 151.388 390.536 " fill="#000000"/>
<path d="M 163.116 384.744 Q 164.108 384.744, 164.892 385.176 Q 165.676 385.608, 166.108 386.392 Q 166.54 387.176, 166.54 388.168 Q 166.54 389.272, 166.044 390.136 Q 165.564 390.984, 164.7 391.464 Q 163.836 391.944, 162.732 391.944 Q 160.716 391.944, 159.692 390.584 Q 158.684 389.208, 158.684 386.488 Q 158.684 383.48, 159.932 381.928 Q 161.196 380.36, 163.612 380.36 Q 164.316 380.36, 164.908 380.52 Q 165.516 380.68, 166.092 381.016 L 165.468 382.088 Q 164.636 381.64, 163.628 381.64 Q 162.028 381.64, 161.212 382.68 Q 160.396 383.704, 160.3 385.832 Q 160.876 385.304, 161.596 385.032 Q 162.332 384.744, 163.116 384.744 M 162.748 390.632 Q 163.356 390.632, 163.852 390.312 Q 164.364 389.992, 164.652 389.432 Q 164.94 388.872, 164.94 388.184 Q 164.94 387.176, 164.38 386.6 Q 163.82 386.024, 162.828 386.024 Q 162.14 386.024, 161.452 386.312 Q 160.78 386.584, 160.3 387.064 Q 160.364 388.936, 160.956 389.784 Q 161.548 390.632, 162.748 390.632 " fill="#000000"/>
<path d="M 174.7 392.616 L 174.7 393.928 L 166.54 393.928 L 166.54 392.616 L 174.7 392.616 " fill="#000000"/>
<path d="M 176.188 390.536 L 178.668 390.536 L 178.668 382.072 L 175.932 382.92 L 175.564 381.976 L 179.036 380.424 L 180.172 380.616 L 180.172 390.536 L 182.396 390.536 L 182.396 391.816 L 176.188 391.816 L 176.188 390.536 " fill="#000000"/>
<path d="M 190.556 392.616 L 190.556 393.928 L 182.396 393.928 L 182.396 392.616 L 190.556 392.616 " fill="#000000"/>
<path d="M 191.964 380.44 L 193.484 380.44 L 193.484 391.816 L 191.964 391.816 L 191.964 380.44 " fill="#000000"/>
<path d="M 199.084 383.448 Q 200.396 383.448, 201.084 384.2 Q 201.788 384.952, 201.788 386.376 L 201.788 391.816 L 200.284 391.816 L 200.284 386.488 Q 200.284 385.512, 199.9 385.08 Q 199.532 384.632, 198.7 384.632 Q 197.948 384.632, 197.324 384.984 Q 196.7 385.32, 196.3 385.928 L 196.3 391.816 L 194.796 391.816 L 194.796 383.592 L 196.028 383.592 L 196.204 384.744 Q 197.308 383.448, 199.084 383.448 " fill="#000000"/>
<path d="M 209.996 379.672 L 209.996 391.8 L 208.78 391.8 L 208.572 390.792 Q 207.66 391.944, 206.14 391.944 Q 204.428 391.944, 203.468 390.888 Q 202.524 389.816, 202.524 387.832 Q 202.524 385.768, 203.644 384.616 Q 204.78 383.448, 206.748 383.448 Q 207.596 383.448, 208.492 383.672 L 208.492 379.672 L 209.996 379.672 M 206.236 390.76 Q 207.068 390.76, 207.66 390.312 Q 208.268 389.848, 208.492 389.032 L 208.492 384.872 Q 207.676 384.632, 206.764 384.632 Q 205.5 384.632, 204.78 385.48 Q 204.06 386.312, 204.06 387.832 Q 204.06 389.24, 204.62 390.008 Q 205.196 390.76, 206.236 390.76 " fill="#000000"/>
<path d="M 210.732 387.688 Q 210.732 385.672, 211.74 384.568 Q 212.748 383.448, 214.588 383.448 Q 216.396 383.448, 217.196 384.536 Q 218.012 385.608, 218.012 387.64 L 218.012 387.896 L 212.268 387.896 Q 212.3 389.288, 212.924 390.024 Q 213.548 390.76, 214.716 390.76 Q 215.356 390.76, 215.948 390.616 Q 216.54 390.456, 217.26 390.136 L 217.692 391.16 Q 216.876 391.576, 216.14 391.768 Q 215.404 391.944, 214.636 391.944 Q 212.78 391.944, 211.756 390.824 Q 210.732 389.704, 210.732 387.688 M 214.588 384.632 Q 213.644 384.632, 213.068 385.176 Q 212.508 385.72, 212.332 386.776 L 216.428 386.776 Q 216.316 385.672, 215.868 385.16 Q 215.42 384.632, 214.588 384.632 " fill="#000000"/>
<path d="M 221.148 387.56 L 218.364 383.592 L 220.108 383.592 L 222.092 386.392 L 224.06 383.592 L 225.676 383.592 L 222.892 387.544 L 225.916 391.816 L 224.156 391.816 L 221.964 388.712 L 219.788 391.816 L 218.156 391.816 L 221.148 387.56 " fill="#000000"/>
<path d="M 234.076 392.616 L 234.076 393.928 L 225.916 393.928 L 225.916 392.616 L 234.076 392.616 " fill="#000000"/>
<path d="M 239.196 391.944 Q 237.116 391.944, 236.076 390.408 Q 235.052 388.872, 235.052 386.136 Q 235.052 383.4, 236.076 381.88 Q 237.1 380.36, 239.196 380.36 Q 241.292 380.36, 242.316 381.88 Q 243.34 383.4, 243.34 386.136 Q 243.34 388.872, 242.3 390.408 Q 241.276 391.944, 239.196 391.944 M 239.196 390.664 Q 240.428 390.664, 241.084 389.528 Q 241.74 388.376, 241.74 386.136 Q 241.74 383.912, 241.084 382.776 Q 240.428 381.64, 239.196 381.64 Q 237.98 381.64, 237.308 382.776 Q 236.652 383.912, 236.652 386.136 Q 236.652 388.376, 237.308 389.528 Q 237.98 390.664, 239.196 390.664 " fill="#000000"/>
<path d="M 561.426,129.81 L 600,125.27" style="fill:none;fill-rule:evenodd;stroke:#FF7F7F;stroke-width:8.3px;stroke-linecap:butt;stroke-linejoin:miter;stroke-opacity:1"/>
<path class="bond-0 atom-0 atom-17" d="M 538.207,98.6734 L 499.633,103.213" style="fill:none;fill-rule:evenodd;stroke:#000000;stroke-width:2.0px;stroke-linecap:butt;stroke-linejoin:miter;stroke-opacity:1"/>
<path class="bond-0 atom-0 atom-17" d="M 533.329,107.069 L 506.327,110.247" style="fill:none;fill-rule:evenodd;stroke:#000000;stroke-width:2.0px;stroke-linecap:butt;stroke-linejoin:miter;stroke-opacity:1"/>
<path class="bond-1 atom-0 atom-20" d="M 538.207,98.6734 L 550.778,69.4682" style="fill:none;fill-rule:evenodd;stroke:#000000;stroke-width:2.0px;stroke-linecap:butt;stroke-linejoin:miter;stroke-opacity:1"/>
<path class="bond-2 atom-1 atom-0" d="M 561.426,129.81 L 538.207,98.6734" style="fill:none;fill-rule:evenodd;stroke:#000000;stroke-width:2.0px;stroke-linecap:butt;stroke-linejoin:miter;stroke-opacity:1"/>
<path class="bond-3 atom-1 atom-5" d="M 561.426,129.81 L 546.071,165.486" style="fill:none;fill-rule:evenodd;stroke:#000000;stroke-width:2.0px;stroke-linecap:butt;stroke-linejoin:miter;stroke-opacity:1"/>
<path class="bond-3 atom-1 atom-5" d="M 551.987,132.09 L 541.239,157.063" style="fill:none;fill-rule:evenodd;stroke:#000000;stroke-width:2.0px;stroke-linecap:butt;stroke-linejoin:miter;stroke-opacity:1"/>
<path class="bond-5 atom-2 atom-1" d="M 594.858,125.875 L 578.142,127.842" style="fill:none;fill-rule:evenodd;stroke:#0000FF;stroke-width:2.0px;stroke-linecap:butt;stroke-linejoin:miter;stroke-opacity:1"/>
<path class="bond-5 atom-2 atom-1" d="M 578.142,127.842 L 561.426,129.81" style="fill:none;fill-rule:evenodd;stroke:#000000;stroke-width:2.0px;stroke-linecap:butt;stroke-linejoin:miter;stroke-opacity:1"/>
<path class="bond-4 atom-2 atom-3" d="M 604.825,131.741 L 614.022,144.073" style="fill:none;fill-rule:evenodd;stroke:#0000FF;stroke-width:2.0px;stroke-linecap:butt;stroke-linejoin:miter;stroke-opacity:1"/>
<path class="bond-4 atom-2 atom-3" d="M 614.022,144.073 L 623.219,156.406" style="fill:none;fill-rule:evenodd;stroke:#000000;stroke-width:2.0px;stroke-linecap:butt;stroke-linejoin:miter;stroke-opacity:1"/>
<path class="bond-6 atom-2 atom-4" d="M 602.785,118.799 L 607.716,107.344" style="fill:none;fill-rule:evenodd;stroke:#0000FF;stroke-width:2.0px;stroke-linecap:butt;stroke-linejoin:miter;stroke-opacity:1"/>
<path class="bond-6 atom-2 atom-4" d="M 607.716,107.344 L 612.646,95.8885" style="fill:none;fill-rule:evenodd;stroke:#000000;stroke-width:2.0px;stroke-linecap:butt;stroke-linejoin:miter;stroke-opacity:1"/>
<path class="bond-7 atom-3 atom-11" d="M 623.219,156.406 L 661.793,151.866" style="fill:none;fill-rule:evenodd;stroke:#000000;stroke-width:2.0px;stroke-linecap:butt;stroke-linejoin:miter;stroke-opacity:1"/>
<path class="bond-11 atom-6 atom-3" d="M 607.863,192.082 L 623.219,156.406" style="fill:none;fill-rule:evenodd;stroke:#000000;stroke-width:2.0px;stroke-linecap:butt;stroke-linejoin:miter;stroke-opacity:1"/>
<path class="bond-11 atom-6 atom-3" d="M 617.302,189.802 L 628.05,164.828" style="fill:none;fill-rule:evenodd;stroke:#000000;stroke-width:2.0px;stroke-linecap:butt;stroke-linejoin:miter;stroke-opacity:1"/>
<path class="bond-8 atom-5 atom-18" d="M 546.071,165.486 L 507.496,170.025" style="fill:none;fill-rule:evenodd;stroke:#000000;stroke-width:2.0px;stroke-linecap:butt;stroke-linejoin:miter;stroke-opacity:1"/>
<path class="bond-9 atom-5 atom-21" d="M 546.071,165.486 L 551.522,178.511" style="fill:none;fill-rule:evenodd;stroke:#000000;stroke-width:2.0px;stroke-linecap:butt;stroke-linejoin:miter;stroke-opacity:1"/>
<path class="bond-10 atom-6 atom-8" d="M 607.863,192.082 L 627.7,225.475" style="fill:none;fill-rule:evenodd;stroke:#000000;stroke-width:2.0px;stroke-linecap:butt;stroke-linejoin:miter;stroke-opacity:1"/>
<path class="bond-12 atom-6 atom-9" d="M 607.863,192.082 L 569.975,200.629" style="fill:none;fill-rule:evenodd;stroke:#000000;stroke-width:2.0px;stroke-linecap:butt;stroke-linejoin:miter;stroke-opacity:1"/>
<path class="bond-13 atom-7 atom-9" d="M 566.994,232.833 L 568.485,216.731" style="fill:none;fill-rule:evenodd;stroke:#0000FF;stroke-width:2.0px;stroke-linecap:butt;stroke-linejoin:miter;stroke-opacity:1"/>
<path class="bond-13 atom-7 atom-9" d="M 568.485,216.731 L 569.975,200.629" style="fill:none;fill-rule:evenodd;stroke:#000000;stroke-width:2.0px;stroke-linecap:butt;stroke-linejoin:miter;stroke-opacity:1"/>
<path class="bond-14 atom-7 atom-10" d="M 571.538,241.517 L 586.805,248.088" style="fill:none;fill-rule:evenodd;stroke:#0000FF;stroke-width:2.0px;stroke-linecap:butt;stroke-linejoin:miter;stroke-opacity:1"/>
<path class="bond-14 atom-7 atom-10" d="M 586.805,248.088 L 602.071,254.659" style="fill:none;fill-rule:evenodd;stroke:#000000;stroke-width:2.0px;stroke-linecap:butt;stroke-linejoin:miter;stroke-opacity:1"/>
<path class="bond-15 atom-7 atom-22" d="M 561.253,242.359 L 549.69,249.228" style="fill:none;fill-rule:evenodd;stroke:#0000FF;stroke-width:2.0px;stroke-linecap:butt;stroke-linejoin:miter;stroke-opacity:1"/>
<path class="bond-15 atom-7 atom-22" d="M 549.69,249.228 L 538.128,256.096" style="fill:none;fill-rule:evenodd;stroke:#000000;stroke-width:2.0px;stroke-linecap:butt;stroke-linejoin:miter;stroke-opacity:1"/>
<path class="bond-16 atom-8 atom-10" d="M 627.7,225.475 L 602.071,254.659" style="fill:none;fill-rule:evenodd;stroke:#000000;stroke-width:2.0px;stroke-linecap:butt;stroke-linejoin:miter;stroke-opacity:1"/>
<path class="bond-16 atom-8 atom-10" d="M 618.019,224.727 L 600.079,245.156" style="fill:none;fill-rule:evenodd;stroke:#000000;stroke-width:2.0px;stroke-linecap:butt;stroke-linejoin:miter;stroke-opacity:1"/>
<path class="bond-17 atom-8 atom-32" d="M 627.7,225.475 L 660.376,232.593" style="fill:none;fill-rule:evenodd;stroke:#000000;stroke-width:2.0px;stroke-linecap:butt;stroke-linejoin:miter;stroke-opacity:1"/>
<path class="bond-18 atom-9 atom-23" d="M 571.755,197.177 L 557.506,189.827" style="fill:none;fill-rule:evenodd;stroke:#000000;stroke-width:2.0px;stroke-linecap:butt;stroke-linejoin:miter;stroke-opacity:1"/>
<path class="bond-18 atom-9 atom-23" d="M 557.506,189.827 L 543.257,182.478" style="fill:none;fill-rule:evenodd;stroke:#FF0000;stroke-width:2.0px;stroke-linecap:butt;stroke-linejoin:miter;stroke-opacity:1"/>
<path class="bond-18 atom-9 atom-23" d="M 568.194,204.081 L 553.945,196.731" style="fill:none;fill-rule:evenodd;stroke:#000000;stroke-width:2.0px;stroke-linecap:butt;stroke-linejoin:miter;stroke-opacity:1"/>
<path class="bond-18 atom-9 atom-23" d="M 553.945,196.731 L 539.696,189.381" style="fill:none;fill-rule:evenodd;stroke:#FF0000;stroke-width:2.0px;stroke-linecap:butt;stroke-linejoin:miter;stroke-opacity:1"/>
<path class="bond-19 atom-10 atom-33" d="M 602.071,254.659 L 609.159,286.077" style="fill:none;fill-rule:evenodd;stroke:#000000;stroke-width:2.0px;stroke-linecap:butt;stroke-linejoin:miter;stroke-opacity:1"/>
<path class="bond-20 atom-11 atom-12" d="M 661.793,151.866 L 685.011,183.002" style="fill:none;fill-rule:evenodd;stroke:#000000;stroke-width:2.0px;stroke-linecap:butt;stroke-linejoin:miter;stroke-opacity:1"/>
<path class="bond-20 atom-11 atom-12" d="M 671.503,151.893 L 687.756,173.688" style="fill:none;fill-rule:evenodd;stroke:#000000;stroke-width:2.0px;stroke-linecap:butt;stroke-linejoin:miter;stroke-opacity:1"/>
<path class="bond-21 atom-11 atom-13" d="M 661.793,151.866 L 677.148,116.19" style="fill:none;fill-rule:evenodd;stroke:#000000;stroke-width:2.0px;stroke-linecap:butt;stroke-linejoin:miter;stroke-opacity:1"/>
<path class="bond-22 atom-12 atom-14" d="M 685.011,183.002 L 723.585,178.463" style="fill:none;fill-rule:evenodd;stroke:#000000;stroke-width:2.0px;stroke-linecap:butt;stroke-linejoin:miter;stroke-opacity:1"/>
<path class="bond-23 atom-12 atom-24" d="M 685.011,183.002 L 676.009,213.813" style="fill:none;fill-rule:evenodd;stroke:#000000;stroke-width:2.0px;stroke-linecap:butt;stroke-linejoin:miter;stroke-opacity:1"/>
<path class="bond-24 atom-13 atom-15" d="M 677.148,116.19 L 715.722,111.65" style="fill:none;fill-rule:evenodd;stroke:#000000;stroke-width:2.0px;stroke-linecap:butt;stroke-linejoin:miter;stroke-opacity:1"/>
<path class="bond-24 atom-13 atom-15" d="M 683.842,123.224 L 710.844,120.046" style="fill:none;fill-rule:evenodd;stroke:#000000;stroke-width:2.0px;stroke-linecap:butt;stroke-linejoin:miter;stroke-opacity:1"/>
<path class="bond-25 atom-13 atom-25" d="M 677.148,116.19 L 658.755,91.5248" style="fill:none;fill-rule:evenodd;stroke:#000000;stroke-width:2.0px;stroke-linecap:butt;stroke-linejoin:miter;stroke-opacity:1"/>
<path class="bond-26 atom-14 atom-16" d="M 723.585,178.463 L 738.941,142.787" style="fill:none;fill-rule:evenodd;stroke:#000000;stroke-width:2.0px;stroke-linecap:butt;stroke-linejoin:miter;stroke-opacity:1"/>
<path class="bond-26 atom-14 atom-16" d="M 718.753,170.04 L 729.502,145.067" style="fill:none;fill-rule:evenodd;stroke:#000000;stroke-width:2.0px;stroke-linecap:butt;stroke-linejoin:miter;stroke-opacity:1"/>
<path class="bond-27 atom-14 atom-26" d="M 723.585,178.463 L 741.978,203.128" style="fill:none;fill-rule:evenodd;stroke:#000000;stroke-width:2.0px;stroke-linecap:butt;stroke-linejoin:miter;stroke-opacity:1"/>
<path class="bond-28 atom-15 atom-16" d="M 715.722,111.65 L 738.941,142.787" style="fill:none;fill-rule:evenodd;stroke:#000000;stroke-width:2.0px;stroke-linecap:butt;stroke-linejoin:miter;stroke-opacity:1"/>
<path class="bond-29 atom-15 atom-27" d="M 715.722,111.65 L 728.292,82.4453" style="fill:none;fill-rule:evenodd;stroke:#000000;stroke-width:2.0px;stroke-linecap:butt;stroke-linejoin:miter;stroke-opacity:1"/>
<path class="bond-30 atom-16 atom-28" d="M 738.941,142.787 L 772.24,138.868" style="fill:none;fill-rule:evenodd;stroke:#000000;stroke-width:2.0px;stroke-linecap:butt;stroke-linejoin:miter;stroke-opacity:1"/>
<path class="bond-31 atom-17 atom-19" d="M 499.633,103.213 L 484.278,138.889" style="fill:none;fill-rule:evenodd;stroke:#000000;stroke-width:2.0px;stroke-linecap:butt;stroke-linejoin:miter;stroke-opacity:1"/>
<path class="bond-32 atom-17 atom-29" d="M 499.633,103.213 L 481.24,78.5478" style="fill:none;fill-rule:evenodd;stroke:#000000;stroke-width:2.0px;stroke-linecap:butt;stroke-linejoin:miter;stroke-opacity:1"/>
<path class="bond-33 atom-18 atom-19" d="M 507.496,170.025 L 484.278,138.889" style="fill:none;fill-rule:evenodd;stroke:#000000;stroke-width:2.0px;stroke-linecap:butt;stroke-linejoin:miter;stroke-opacity:1"/>
<path class="bond-33 atom-18 atom-19" d="M 510.241,160.711 L 493.988,138.916" style="fill:none;fill-rule:evenodd;stroke:#000000;stroke-width:2.0px;stroke-linecap:butt;stroke-linejoin:miter;stroke-opacity:1"/>
<path class="bond-34 atom-18 atom-30" d="M 507.496,170.025 L 494.926,199.231" style="fill:none;fill-rule:evenodd;stroke:#000000;stroke-width:2.0px;stroke-linecap:butt;stroke-linejoin:miter;stroke-opacity:1"/>
<path class="bond-35 atom-31 atom-19" d="M 450.846,142.824 L 467.562,140.856" style="fill:none;fill-rule:evenodd;stroke:#0000FF;stroke-width:2.0px;stroke-linecap:butt;stroke-linejoin:miter;stroke-opacity:1"/>
<path class="bond-35 atom-31 atom-19" d="M 467.562,140.856 L 484.278,138.889" style="fill:none;fill-rule:evenodd;stroke:#000000;stroke-width:2.0px;stroke-linecap:butt;stroke-linejoin:miter;stroke-opacity:1"/>
<path class="bond-36 atom-31 atom-34" d="M 442.919,149.9 L 437.988,161.355" style="fill:none;fill-rule:evenodd;stroke:#0000FF;stroke-width:2.0px;stroke-linecap:butt;stroke-linejoin:miter;stroke-opacity:1"/>
<path class="bond-36 atom-31 atom-34" d="M 437.988,161.355 L 433.058,172.81" style="fill:none;fill-rule:evenodd;stroke:#000000;stroke-width:2.0px;stroke-linecap:butt;stroke-linejoin:miter;stroke-opacity:1"/>
<path class="bond-37 atom-31 atom-35" d="M 440.879,136.958 L 434.019,127.76" style="fill:none;fill-rule:evenodd;stroke:#0000FF;stroke-width:2.0px;stroke-linecap:butt;stroke-linejoin:miter;stroke-opacity:1"/>
<path class="bond-37 atom-31 atom-35" d="M 434.019,127.76 L 427.16,118.562" style="fill:none;fill-rule:evenodd;stroke:#000000;stroke-width:2.0px;stroke-linecap:butt;stroke-linejoin:miter;stroke-opacity:1"/>
<path class="atom-2" d="M 597.569 119.77 L 601.173 125.596 Q 601.53 126.171, 602.105 127.212 Q 602.68 128.253, 602.711 128.315 L 602.711 119.77 L 604.171 119.77 L 604.171 130.77 L 602.664 130.77 L 598.796 124.4 Q 598.345 123.654, 597.864 122.8 Q 597.398 121.945, 597.258 121.681 L 597.258 130.77 L 595.829 130.77 L 595.829 119.77 L 597.569 119.77 " fill="#0000FF"/>
<path class="atom-4" d="M 611.052 84.0941 L 612.543 84.0941 L 612.543 88.7704 L 618.167 88.7704 L 618.167 84.0941 L 619.659 84.0941 L 619.659 95.0936 L 618.167 95.0936 L 618.167 90.0133 L 612.543 90.0133 L 612.543 95.0936 L 611.052 95.0936 L 611.052 84.0941 " fill="#000000"/>
<path class="atom-7" d="M 563.964 233.804 L 567.568 239.63 Q 567.926 240.205, 568.501 241.246 Q 569.075 242.287, 569.107 242.349 L 569.107 233.804 L 570.567 233.804 L 570.567 244.804 L 569.06 244.804 L 565.191 238.434 Q 564.741 237.688, 564.259 236.834 Q 563.793 235.979, 563.653 235.715 L 563.653 244.804 L 562.224 244.804 L 562.224 233.804 L 563.964 233.804 " fill="#0000FF"/>
<path class="atom-20" d="M 549.259 57.4976 L 550.751 57.4976 L 550.751 62.174 L 556.375 62.174 L 556.375 57.4976 L 557.866 57.4976 L 557.866 68.4972 L 556.375 68.4972 L 556.375 63.4169 L 550.751 63.4169 L 550.751 68.4972 L 549.259 68.4972 L 549.259 57.4976 " fill="#000000"/>
<path class="atom-21" d="M 549.736 179.027 L 551.227 179.027 L 551.227 183.703 L 556.851 183.703 L 556.851 179.027 L 558.343 179.027 L 558.343 190.026 L 556.851 190.026 L 556.851 184.946 L 551.227 184.946 L 551.227 190.026 L 549.736 190.026 L 549.736 179.027 " fill="#000000"/>
<path class="atom-22" d="M 528.699 253.641 L 530.191 253.641 L 530.191 258.317 L 535.815 258.317 L 535.815 253.641 L 537.306 253.641 L 537.306 264.64 L 535.815 264.64 L 535.815 259.56 L 530.191 259.56 L 530.191 264.64 L 528.699 264.64 L 528.699 253.641 " fill="#000000"/>
<path class="atom-23" d="M 530.407 182.855 Q 530.407 180.214, 531.712 178.738 Q 533.017 177.262, 535.456 177.262 Q 537.895 177.262, 539.2 178.738 Q 540.505 180.214, 540.505 182.855 Q 540.505 185.527, 539.185 187.05 Q 537.864 188.557, 535.456 188.557 Q 533.032 188.557, 531.712 187.05 Q 530.407 185.543, 530.407 182.855 M 535.456 187.314 Q 537.134 187.314, 538.035 186.195 Q 538.952 185.061, 538.952 182.855 Q 538.952 180.696, 538.035 179.608 Q 537.134 178.505, 535.456 178.505 Q 533.778 178.505, 532.862 179.593 Q 531.96 180.68, 531.96 182.855 Q 531.96 185.077, 532.862 186.195 Q 533.778 187.314, 535.456 187.314 " fill="#FF0000"/>
<path class="atom-24" d="M 669.815 214.784 L 671.307 214.784 L 671.307 219.461 L 676.931 219.461 L 676.931 214.784 L 678.422 214.784 L 678.422 225.784 L 676.931 225.784 L 676.931 220.704 L 671.307 220.704 L 671.307 225.784 L 669.815 225.784 L 669.815 214.784 " fill="#000000"/>
<path class="atom-25" d="M 649.626 79.5543 L 651.117 79.5543 L 651.117 84.2306 L 656.742 84.2306 L 656.742 79.5543 L 658.233 79.5543 L 658.233 90.5538 L 656.742 90.5538 L 656.742 85.4735 L 651.117 85.4735 L 651.117 90.5538 L 649.626 90.5538 L 649.626 79.5543 " fill="#000000"/>
<path class="atom-26" d="M 742.5 204.099 L 743.992 204.099 L 743.992 208.775 L 749.616 208.775 L 749.616 204.099 L 751.107 204.099 L 751.107 215.099 L 749.616 215.099 L 749.616 210.018 L 743.992 210.018 L 743.992 215.099 L 742.5 215.099 L 742.5 204.099 " fill="#000000"/>
<path class="atom-27" d="M 726.774 70.4747 L 728.265 70.4747 L 728.265 75.1511 L 733.89 75.1511 L 733.89 70.4747 L 735.381 70.4747 L 735.381 81.4743 L 733.89 81.4743 L 733.89 76.394 L 728.265 76.394 L 728.265 81.4743 L 726.774 81.4743 L 726.774 70.4747 " fill="#000000"/>
<path class="atom-28" d="M 773.211 132.747 L 774.703 132.747 L 774.703 137.423 L 780.327 137.423 L 780.327 132.747 L 781.818 132.747 L 781.818 143.747 L 780.327 143.747 L 780.327 138.666 L 774.703 138.666 L 774.703 143.747 L 773.211 143.747 L 773.211 132.747 " fill="#000000"/>
<path class="atom-29" d="M 472.111 66.5772 L 473.603 66.5772 L 473.603 71.2536 L 479.227 71.2536 L 479.227 66.5772 L 480.718 66.5772 L 480.718 77.5767 L 479.227 77.5767 L 479.227 72.4964 L 473.603 72.4964 L 473.603 77.5767 L 472.111 77.5767 L 472.111 66.5772 " fill="#000000"/>
<path class="atom-30" d="M 487.838 200.202 L 489.329 200.202 L 489.329 204.878 L 494.953 204.878 L 494.953 200.202 L 496.445 200.202 L 496.445 211.201 L 494.953 211.201 L 494.953 206.121 L 489.329 206.121 L 489.329 211.201 L 487.838 211.201 L 487.838 200.202 " fill="#000000"/>
<path class="atom-31" d="M 443.272 137.929 L 446.877 143.755 Q 447.234 144.33, 447.809 145.371 Q 448.384 146.412, 448.415 146.474 L 448.415 137.929 L 449.875 137.929 L 449.875 148.929 L 448.368 148.929 L 444.5 142.559 Q 444.049 141.813, 443.568 140.959 Q 443.102 140.104, 442.962 139.84 L 442.962 148.929 L 441.532 148.929 L 441.532 137.929 L 443.272 137.929 " fill="#0000FF"/>
<path class="atom-32" d="M 661.347 228.242 L 662.838 228.242 L 662.838 232.918 L 668.462 232.918 L 668.462 228.242 L 669.954 228.242 L 669.954 239.241 L 668.462 239.241 L 668.462 234.161 L 662.838 234.161 L 662.838 239.241 L 661.347 239.241 L 661.347 228.242 " fill="#000000"/>
<path class="atom-33" d="M 606.315 287.048 L 607.806 287.048 L 607.806 291.724 L 613.431 291.724 L 613.431 287.048 L 614.922 287.048 L 614.922 298.047 L 613.431 298.047 L 613.431 292.967 L 607.806 292.967 L 607.806 298.047 L 606.315 298.047 L 606.315 287.048 " fill="#000000"/>
<path class="atom-34" d="M 426.045 173.605 L 427.536 173.605 L 427.536 178.281 L 433.16 178.281 L 433.16 173.605 L 434.652 173.605 L 434.652 184.605 L 433.16 184.605 L 433.16 179.524 L 427.536 179.524 L 427.536 184.605 L 426.045 184.605 L 426.045 173.605 " fill="#000000"/>
<path class="atom-35" d="M 418.182 106.793 L 419.673 106.793 L 419.673 111.469 L 425.297 111.469 L 425.297 106.793 L 426.789 106.793 L 426.789 117.792 L 425.297 117.792 L 425.297 112.712 L 419.673 112.712 L 419.673 117.792 L 418.182 117.792 L 418.182 106.793 " fill="#000000"/>
<path d="M 487.016 388.632 L 489.496 388.632 L 489.496 380.168 L 486.76 381.016 L 486.392 380.072 L 489.864 378.52 L 491 378.712 L 491 388.632 L 493.224 388.632 L 493.224 389.912 L 487.016 389.912 L 487.016 388.632 " fill="#000000"/>
<path d="M 498.744 382.84 Q 499.736 382.84, 500.52 383.272 Q 501.304 383.704, 501.736 384.488 Q 502.168 385.272, 502.168 386.264 Q 502.168 387.368, 501.672 388.232 Q 501.192 389.08, 500.328 389.56 Q 499.464 390.04, 498.36 390.04 Q 496.344 390.04, 495.32 388.68 Q 494.312 387.304, 494.312 384.584 Q 494.312 381.576, 495.56 380.024 Q 496.824 378.456, 499.24 378.456 Q 499.944 378.456, 500.536 378.616 Q 501.144 378.776, 501.72 379.112 L 501.096 380.184 Q 500.264 379.736, 499.256 379.736 Q 497.656 379.736, 496.84 380.776 Q 496.024 381.8, 495.928 383.928 Q 496.504 383.4, 497.224 383.128 Q 497.96 382.84, 498.744 382.84 M 498.376 388.728 Q 498.984 388.728, 499.48 388.408 Q 499.992 388.088, 500.28 387.528 Q 500.568 386.968, 500.568 386.28 Q 500.568 385.272, 500.008 384.696 Q 499.448 384.12, 498.456 384.12 Q 497.768 384.12, 497.08 384.408 Q 496.408 384.68, 495.928 385.16 Q 495.992 387.032, 496.584 387.88 Q 497.176 388.728, 498.376 388.728 " fill="#000000"/>
<path d="M 510.328 390.712 L 510.328 392.024 L 502.168 392.024 L 502.168 390.712 L 510.328 390.712 " fill="#000000"/>
<path d="M 511.816 388.632 L 514.296 388.632 L 514.296 380.168 L 511.56 381.016 L 511.192 380.072 L 514.664 378.52 L 515.8 378.712 L 515.8 388.632 L 518.024 388.632 L 518.024 389.912 L 511.816 389.912 L 511.816 388.632 " fill="#000000"/>
<path d="M 526.184 390.712 L 526.184 392.024 L 518.024 392.024 L 518.024 390.712 L 526.184 390.712 " fill="#000000"/>
<path d="M 527.592 378.536 L 529.112 378.536 L 529.112 389.912 L 527.592 389.912 L 527.592 378.536 " fill="#000000"/>
<path d="M 534.712 381.544 Q 536.024 381.544, 536.712 382.296 Q 537.416 383.048, 537.416 384.472 L 537.416 389.912 L 535.912 389.912 L 535.912 384.584 Q 535.912 383.608, 535.528 383.176 Q 535.16 382.728, 534.328 382.728 Q 533.576 382.728, 532.952 383.08 Q 532.328 383.416, 531.928 384.024 L 531.928 389.912 L 530.424 389.912 L 530.424 381.688 L 531.656 381.688 L 531.832 382.84 Q 532.936 381.544, 534.712 381.544 " fill="#000000"/>
<path d="M 545.624 377.768 L 545.624 389.896 L 544.408 389.896 L 544.2 388.888 Q 543.288 390.04, 541.768 390.04 Q 540.056 390.04, 539.096 388.984 Q 538.152 387.912, 538.152 385.928 Q 538.152 383.864, 539.272 382.712 Q 540.408 381.544, 542.376 381.544 Q 543.224 381.544, 544.12 381.768 L 544.12 377.768 L 545.624 377.768 M 541.864 388.856 Q 542.696 388.856, 543.288 388.408 Q 543.896 387.944, 544.12 387.128 L 544.12 382.968 Q 543.304 382.728, 542.392 382.728 Q 541.128 382.728, 540.408 383.576 Q 539.688 384.408, 539.688 385.928 Q 539.688 387.336, 540.248 388.104 Q 540.824 388.856, 541.864 388.856 " fill="#000000"/>
<path d="M 546.36 385.784 Q 546.36 383.768, 547.368 382.664 Q 548.376 381.544, 550.216 381.544 Q 552.024 381.544, 552.824 382.632 Q 553.64 383.704, 553.64 385.736 L 553.64 385.992 L 547.896 385.992 Q 547.928 387.384, 548.552 388.12 Q 549.176 388.856, 550.344 388.856 Q 550.984 388.856, 551.576 388.712 Q 552.168 388.552, 552.888 388.232 L 553.32 389.256 Q 552.504 389.672, 551.768 389.864 Q 551.032 390.04, 550.264 390.04 Q 548.408 390.04, 547.384 388.92 Q 546.36 387.8, 546.36 385.784 M 550.216 382.728 Q 549.272 382.728, 548.696 383.272 Q 548.136 383.816, 547.96 384.872 L 552.056 384.872 Q 551.944 383.768, 551.496 383.256 Q 551.048 382.728, 550.216 382.728 " fill="#000000"/>
<path d="M 556.776 385.656 L 553.992 381.688 L 555.736 381.688 L 557.72 384.488 L 559.688 381.688 L 561.304 381.688 L 558.52 385.64 L 561.544 389.912 L 559.784 389.912 L 557.592 386.808 L 555.416 389.912 L 553.784 389.912 L 556.776 385.656 " fill="#000000"/>
<path d="M 569.704 390.712 L 569.704 392.024 L 561.544 392.024 L 561.544 390.712 L 569.704 390.712 " fill="#000000"/>
<path d="M 574.824 390.04 Q 572.744 390.04, 571.704 388.504 Q 570.68 386.968, 570.68 384.232 Q 570.68 381.496, 571.704 379.976 Q 572.728 378.456, 574.824 378.456 Q 576.92 378.456, 577.944 379.976 Q 578.968 381.496, 578.968 384.232 Q 578.968 386.968, 577.928 388.504 Q 576.904 390.04, 574.824 390.04 M 574.824 388.76 Q 576.056 388.76, 576.712 387.624 Q 577.368 386.472, 577.368 384.232 Q 577.368 382.008, 576.712 380.872 Q 576.056 379.736, 574.824 379.736 Q 573.608 379.736, 572.936 380.872 Q 572.28 382.008, 572.28 384.232 Q 572.28 386.472, 572.936 387.624 Q 573.608 388.76, 574.824 388.76 " fill="#000000"/>
<path d="M 587.128 390.712 L 587.128 392.024 L 578.968 392.024 L 578.968 390.712 L 587.128 390.712 " fill="#000000"/>
<path d="M 597.032 384.36 L 597.032 389.144 Q 595.416 390.056, 593.032 390.056 Q 590.568 390.056, 589.24 388.552 Q 587.928 387.048, 587.928 384.232 Q 587.928 381.416, 589.24 379.944 Q 590.568 378.456, 593.08 378.456 Q 594.392 378.456, 595.352 378.872 Q 596.312 379.272, 596.984 380.104 L 595.944 380.968 Q 594.888 379.736, 593.08 379.736 Q 591.368 379.736, 590.456 380.888 Q 589.56 382.04, 589.56 384.232 Q 589.56 386.472, 590.488 387.624 Q 591.432 388.776, 593.256 388.776 Q 594.44 388.776, 595.496 388.392 L 595.496 384.36 L 597.032 384.36 " fill="#000000"/>
<path d="M 599.608 381.688 L 599.784 382.824 Q 600.648 381.544, 602.056 381.544 Q 602.504 381.544, 603.112 381.704 L 602.872 383.048 Q 602.184 382.888, 601.8 382.888 Q 601.128 382.888, 600.68 383.16 Q 600.248 383.416, 599.896 384.04 L 599.896 389.912 L 598.392 389.912 L 598.392 381.688 L 599.608 381.688 " fill="#000000"/>
<path d="M 603.848 385.784 Q 603.848 383.784, 604.856 382.664 Q 605.88 381.544, 607.752 381.544 Q 609.624 381.544, 610.632 382.664 Q 611.656 383.784, 611.656 385.784 Q 611.656 387.784, 610.632 388.92 Q 609.624 390.04, 607.752 390.04 Q 605.88 390.04, 604.856 388.92 Q 603.848 387.784, 603.848 385.784 M 605.384 385.784 Q 605.384 387.288, 605.992 388.072 Q 606.616 388.856, 607.752 388.856 Q 608.888 388.856, 609.496 388.072 Q 610.12 387.288, 610.12 385.784 Q 610.12 384.28, 609.496 383.512 Q 608.888 382.728, 607.752 382.728 Q 606.616 382.728, 605.992 383.512 Q 605.384 384.28, 605.384 385.784 " fill="#000000"/>
<path d="M 622.44 381.688 L 623.944 381.688 L 621.64 389.912 L 619.624 389.912 L 617.992 383.736 L 616.392 389.912 L 614.408 389.912 L 612.104 381.688 L 613.608 381.688 L 615.464 388.472 L 617.24 381.688 L 618.744 381.688 L 620.6 388.472 L 622.44 381.688 " fill="#000000"/>
<path d="M 625.304 378.584 L 632.04 378.584 L 632.04 379.88 L 626.824 379.88 L 626.824 383.32 L 631.464 383.32 L 631.464 384.632 L 626.824 384.632 L 626.824 389.912 L 625.304 389.912 L 625.304 378.584 " fill="#000000"/>
<path d="M 634.616 381.688 L 634.792 382.824 Q 635.656 381.544, 637.064 381.544 Q 637.512 381.544, 638.12 381.704 L 637.88 383.048 Q 637.192 382.888, 636.808 382.888 Q 636.136 382.888, 635.688 383.16 Q 635.256 383.416, 634.904 384.04 L 634.904 389.912 L 633.4 389.912 L 633.4 381.688 L 634.616 381.688 " fill="#000000"/>
<path d="M 638.824 387.688 Q 638.824 386.376, 639.88 385.656 Q 640.936 384.936, 642.872 384.936 L 644.088 384.936 L 644.088 384.616 Q 644.088 383.592, 643.656 383.16 Q 643.24 382.728, 642.216 382.728 Q 641.56 382.728, 641.048 382.856 Q 640.536 382.968, 639.736 383.32 L 639.288 382.28 Q 640.792 381.544, 642.248 381.544 Q 643.992 381.544, 644.792 382.296 Q 645.592 383.032, 645.592 384.648 L 645.592 389.912 L 644.424 389.912 Q 644.408 389.848, 644.36 389.608 Q 644.312 389.352, 644.216 388.952 Q 643.064 390.104, 641.528 390.104 Q 640.296 390.104, 639.56 389.448 Q 638.824 388.792, 638.824 387.688 M 640.328 387.656 Q 640.328 388.264, 640.712 388.6 Q 641.096 388.92, 641.816 388.92 Q 642.456 388.92, 643.064 388.632 Q 643.672 388.328, 644.088 387.816 L 644.088 386.056 L 642.968 386.056 Q 641.656 386.056, 640.984 386.456 Q 640.328 386.856, 640.328 387.656 " fill="#000000"/>
<path d="M 653.8 381.672 L 653.8 390.392 Q 653.8 393.928, 650.056 393.928 Q 648.248 393.928, 646.632 393.096 L 647.144 391.992 Q 648.008 392.424, 648.632 392.584 Q 649.256 392.744, 650.056 392.744 Q 651.256 392.744, 651.768 392.2 Q 652.296 391.672, 652.296 390.424 L 652.296 388.984 Q 651.432 390.04, 649.944 390.04 Q 648.232 390.04, 647.272 388.984 Q 646.328 387.912, 646.328 385.928 Q 646.328 383.864, 647.448 382.712 Q 648.584 381.544, 650.552 381.544 Q 651.592 381.544, 652.552 381.848 L 652.6 381.672 L 653.8 381.672 M 650.04 388.856 Q 650.872 388.856, 651.464 388.408 Q 652.072 387.944, 652.296 387.128 L 652.296 382.968 Q 651.48 382.728, 650.568 382.728 Q 649.304 382.728, 648.584 383.576 Q 647.864 384.408, 647.864 385.928 Q 647.864 387.336, 648.424 388.104 Q 649 388.856, 650.04 388.856 " fill="#000000"/>
<path d="M 664.616 381.544 Q 666.008 381.544, 666.712 382.296 Q 667.416 383.032, 667.416 384.472 L 667.416 389.912 L 665.912 389.912 L 665.912 384.584 Q 665.912 383.608, 665.528 383.176 Q 665.16 382.728, 664.328 382.728 Q 663.608 382.728, 662.984 383.08 Q 662.376 383.416, 662.008 384.024 Q 662.024 384.168, 662.024 384.472 L 662.024 389.912 L 660.52 389.912 L 660.52 384.584 Q 660.52 383.608, 660.136 383.176 Q 659.768 382.728, 658.936 382.728 Q 658.216 382.728, 657.608 383.08 Q 657 383.416, 656.616 384.008 L 656.616 389.912 L 655.112 389.912 L 655.112 381.688 L 656.344 381.688 L 656.504 382.808 Q 657.576 381.544, 659.224 381.544 Q 661.16 381.544, 661.768 382.984 Q 662.856 381.544, 664.616 381.544 " fill="#000000"/>
<path d="M 668.152 385.784 Q 668.152 383.768, 669.16 382.664 Q 670.168 381.544, 672.008 381.544 Q 673.816 381.544, 674.616 382.632 Q 675.432 383.704, 675.432 385.736 L 675.432 385.992 L 669.688 385.992 Q 669.72 387.384, 670.344 388.12 Q 670.968 388.856, 672.136 388.856 Q 672.776 388.856, 673.368 388.712 Q 673.96 388.552, 674.68 388.232 L 675.112 389.256 Q 674.296 389.672, 673.56 389.864 Q 672.824 390.04, 672.056 390.04 Q 670.2 390.04, 669.176 388.92 Q 668.152 387.8, 668.152 385.784 M 672.008 382.728 Q 671.064 382.728, 670.488 383.272 Q 669.928 383.816, 669.752 384.872 L 673.848 384.872 Q 673.736 383.768, 673.288 383.256 Q 672.84 382.728, 672.008 382.728 " fill="#000000"/>
<path d="M 681.032 381.544 Q 682.344 381.544, 683.032 382.296 Q 683.736 383.048, 683.736 384.472 L 683.736 389.912 L 682.232 389.912 L 682.232 384.584 Q 682.232 383.608, 681.848 383.176 Q 681.48 382.728, 680.648 382.728 Q 679.896 382.728, 679.272 383.08 Q 678.648 383.416, 678.248 384.024 L 678.248 389.912 L 676.744 389.912 L 676.744 381.688 L 677.976 381.688 L 678.152 382.84 Q 679.256 381.544, 681.032 381.544 " fill="#000000"/>
<path d="M 684.2 382.84 L 684.2 381.688 L 685.768 381.688 L 686.024 379.288 L 687.144 379.288 L 687.144 381.688 L 689.656 381.688 L 689.656 382.84 L 687.144 382.84 L 687.144 387.384 Q 687.144 388.808, 688.344 388.808 Q 688.824 388.808, 689.528 388.584 L 689.784 389.64 Q 688.904 390.008, 688.072 390.008 Q 687 390.008, 686.312 389.368 Q 685.64 388.728, 685.64 387.464 L 685.64 382.84 L 684.2 382.84 " fill="#000000"/>
<path d="M 697.944 390.712 L 697.944 392.024 L 689.784 392.024 L 689.784 390.712 L 697.944 390.712 " fill="#000000"/>
<path d="M 703.064 390.04 Q 700.984 390.04, 699.944 388.504 Q 698.92 386.968, 698.92 384.232 Q 698.92 381.496, 699.944 379.976 Q 700.968 378.456, 703.064 378.456 Q 705.16 378.456, 706.184 379.976 Q 707.208 381.496, 707.208 384.232 Q 707.208 386.968, 706.168 388.504 Q 705.144 390.04, 703.064 390.04 M 703.064 388.76 Q 704.296 388.76, 704.952 387.624 Q 705.608 386.472, 705.608 384.232 Q 705.608 382.008, 704.952 380.872 Q 704.296 379.736, 703.064 379.736 Q 701.848 379.736, 701.176 380.872 Q 700.52 382.008, 700.52 384.232 Q 700.52 386.472, 701.176 387.624 Q 701.848 388.76, 703.064 388.76 " fill="#000000"/>
<text x="166.60705140639544" y="146.3588467738452" font-size="12" font-family="Verdana" font-weight="bold" letter-spacing="0" text-anchor="start" fill="black" transform=" rotate(81.770853 166.607051 146.358847)">0.0685</text><text x="580.7129865459651" y="149.76720735155604" font-size="12" font-family="Verdana" font-weight="bold" letter-spacing="0" text-anchor="start" fill="black" transform=" rotate(83.287739 580.712987 149.767207)">0.0484</text></svg>
