<?xml version='1.0' encoding='ASCII' standalone='yes'?>
<svg xmlns="http://www.w3.org/2000/svg" xmlns:rdkit="http://www.rdkit.org/xml" xmlns:xlink="http://www.w3.org/1999/xlink" version="1.1" baseProfile="full" xml:space="preserve" width="500px" height="500px" viewBox="0 0 500 500">
<!-- END OF HEADER -->
<rect style="opacity:1.0;fill:#FFFFFF;stroke:none" width="500" height="500" x="0" y="0"> </rect>
<path d="M 251.078,206.03 L 251.078,293.689" style="fill:none;fill-rule:evenodd;stroke:#FF7F7F;stroke-width:18.7px;stroke-linecap:butt;stroke-linejoin:miter;stroke-opacity:1"/>
<path class="bond-0 atom-1 atom-0" d="M 266.792,204.101 L 291.843,201.024" style="fill:none;fill-rule:evenodd;stroke:#000000;stroke-width:2.0px;stroke-linecap:butt;stroke-linejoin:miter;stroke-opacity:1"/>
<path class="bond-1 atom-1 atom-4" d="M 220.445,202.268 L 208.623,200.816" style="fill:none;fill-rule:evenodd;stroke:#000000;stroke-width:2.0px;stroke-linecap:butt;stroke-linejoin:miter;stroke-opacity:1"/>
<path class="bond-2 atom-1 atom-5" d="M 251.078,191.286 L 251.078,132.747" style="fill:none;fill-rule:evenodd;stroke:#000000;stroke-width:2.0px;stroke-linecap:butt;stroke-linejoin:miter;stroke-opacity:1"/>
<path class="bond-5 atom-2 atom-1" d="M 251.078,278.945 L 251.078,249.675" style="fill:none;fill-rule:evenodd;stroke:#0000FF;stroke-width:2.0px;stroke-linecap:butt;stroke-linejoin:miter;stroke-opacity:1"/>
<path class="bond-5 atom-2 atom-1" d="M 251.078,249.675 L 251.078,220.406" style="fill:none;fill-rule:evenodd;stroke:#000000;stroke-width:2.0px;stroke-linecap:butt;stroke-linejoin:miter;stroke-opacity:1"/>
<path class="bond-3 atom-2 atom-6" d="M 280.539,293.689 L 294.479,293.689" style="fill:none;fill-rule:evenodd;stroke:#0000FF;stroke-width:2.0px;stroke-linecap:butt;stroke-linejoin:miter;stroke-opacity:1"/>
<path class="bond-3 atom-2 atom-6" d="M 294.479,293.689 L 308.419,293.689" style="fill:none;fill-rule:evenodd;stroke:#000000;stroke-width:2.0px;stroke-linecap:butt;stroke-linejoin:miter;stroke-opacity:1"/>
<path class="bond-4 atom-2 atom-7" d="M 220.138,293.689 L 200.073,293.689" style="fill:none;fill-rule:evenodd;stroke:#0000FF;stroke-width:2.0px;stroke-linecap:butt;stroke-linejoin:miter;stroke-opacity:1"/>
<path class="bond-4 atom-2 atom-7" d="M 200.073,293.689 L 180.008,293.689" style="fill:none;fill-rule:evenodd;stroke:#000000;stroke-width:2.0px;stroke-linecap:butt;stroke-linejoin:miter;stroke-opacity:1"/>
<path class="bond-6 atom-2 atom-3" d="M 251.078,308.784 L 251.078,337.953" style="fill:none;fill-rule:evenodd;stroke:#0000FF;stroke-width:2.0px;stroke-linecap:butt;stroke-linejoin:miter;stroke-opacity:1"/>
<path class="bond-6 atom-2 atom-3" d="M 251.078,337.953 L 251.078,367.121" style="fill:none;fill-rule:evenodd;stroke:#000000;stroke-width:2.0px;stroke-linecap:butt;stroke-linejoin:miter;stroke-opacity:1"/>
<path class="bond-7 atom-6 atom-8" d="M 338.737,308.433 L 338.737,367.253" style="fill:none;fill-rule:evenodd;stroke:#000000;stroke-width:2.0px;stroke-linecap:butt;stroke-linejoin:miter;stroke-opacity:1"/>
<path class="bond-8 atom-6 atom-9" d="M 340.403,280.123 L 343.388,255.819" style="fill:none;fill-rule:evenodd;stroke:#000000;stroke-width:2.0px;stroke-linecap:butt;stroke-linejoin:miter;stroke-opacity:1"/>
<path class="bond-9 atom-6 atom-12" d="M 354.457,293.689 L 414.885,293.689" style="fill:none;fill-rule:evenodd;stroke:#000000;stroke-width:2.0px;stroke-linecap:butt;stroke-linejoin:miter;stroke-opacity:1"/>
<path class="bond-10 atom-7 atom-10" d="M 163.419,308.784 L 163.419,367.191" style="fill:none;fill-rule:evenodd;stroke:#000000;stroke-width:2.0px;stroke-linecap:butt;stroke-linejoin:miter;stroke-opacity:1"/>
<path class="bond-11 atom-7 atom-11" d="M 161.719,279.842 L 158.768,255.811" style="fill:none;fill-rule:evenodd;stroke:#000000;stroke-width:2.0px;stroke-linecap:butt;stroke-linejoin:miter;stroke-opacity:1"/>
<path class="bond-12 atom-7 atom-13" d="M 131.412,293.689 L 86.7069,293.689" style="fill:none;fill-rule:evenodd;stroke:#000000;stroke-width:2.0px;stroke-linecap:butt;stroke-linejoin:miter;stroke-opacity:1"/>
<path class="atom-0" d="M 292.741 187.379 L 296.107 187.379 L 296.107 197.933 L 308.8 197.933 L 308.8 187.379 L 312.166 187.379 L 312.166 212.203 L 308.8 212.203 L 308.8 200.738 L 296.107 200.738 L 296.107 212.203 L 292.741 212.203 L 292.741 187.379 " fill="#000000"/>
<path class="atom-0" d="M 314.796 208.101 L 318.302 208.101 L 318.302 211.607 L 314.796 211.607 L 314.796 208.101 M 314.796 196.039 L 318.302 196.039 L 318.302 199.546 L 314.796 199.546 L 314.796 196.039 " fill="#000000"/>
<path class="atom-0" d="M 321.563 209.398 L 326.998 209.398 L 326.998 190.85 L 321.002 192.708 L 320.196 190.639 L 327.805 187.238 L 330.294 187.659 L 330.294 209.398 L 335.168 209.398 L 335.168 212.203 L 321.563 212.203 L 321.563 209.398 " fill="#000000"/>
<path class="atom-1" d="M 221.739 206.136 Q 221.739 199.964, 224.614 196.739 Q 227.524 193.478, 233.029 193.478 Q 238.149 193.478, 240.883 197.089 L 238.569 198.983 Q 236.571 196.353, 233.029 196.353 Q 229.277 196.353, 227.279 198.877 Q 225.315 201.367, 225.315 206.136 Q 225.315 211.044, 227.349 213.569 Q 229.418 216.094, 233.415 216.094 Q 236.15 216.094, 239.341 214.446 L 240.322 217.075 Q 239.025 217.917, 237.062 218.408 Q 235.098 218.899, 232.924 218.899 Q 227.524 218.899, 224.614 215.603 Q 221.739 212.307, 221.739 206.136 " fill="#000000"/>
<path class="atom-1" d="M 243.513 214.481 L 247.02 214.481 L 247.02 217.987 L 243.513 217.987 L 243.513 214.481 M 243.513 202.419 L 247.02 202.419 L 247.02 205.925 L 243.513 205.925 L 243.513 202.419 " fill="#000000"/>
<path class="atom-1" d="M 248.843 198.457 Q 249.755 196.107, 251.928 194.81 Q 254.102 193.478, 257.118 193.478 Q 260.87 193.478, 262.973 195.511 Q 265.077 197.545, 265.077 201.157 Q 265.077 204.838, 262.342 208.274 Q 259.642 211.711, 254.032 215.778 L 265.498 215.778 L 265.498 218.583 L 248.773 218.583 L 248.773 216.234 Q 253.401 212.938, 256.136 210.483 Q 258.906 208.029, 260.239 205.82 Q 261.571 203.611, 261.571 201.332 Q 261.571 198.948, 260.379 197.615 Q 259.187 196.283, 257.118 196.283 Q 255.119 196.283, 253.787 197.089 Q 252.454 197.896, 251.508 199.684 L 248.843 198.457 " fill="#000000"/>
<path class="atom-2" d="M 226.256 281.417 L 234.391 294.566 Q 235.197 295.863, 236.495 298.212 Q 237.792 300.562, 237.862 300.702 L 237.862 281.417 L 241.158 281.417 L 241.158 306.242 L 237.757 306.242 L 229.026 291.866 Q 228.009 290.183, 226.922 288.254 Q 225.87 286.326, 225.555 285.73 L 225.555 306.242 L 222.329 306.242 L 222.329 281.417 L 226.256 281.417 " fill="#0000FF"/>
<path class="atom-2" d="M 243.788 302.139 L 247.294 302.139 L 247.294 305.646 L 243.788 305.646 L 243.788 302.139 M 243.788 290.078 L 247.294 290.078 L 247.294 293.584 L 243.788 293.584 L 243.788 290.078 " fill="#0000FF"/>
<path class="atom-2" d="M 260.689 293.163 Q 263.108 293.864, 264.265 295.442 Q 265.457 296.985, 265.457 299.44 Q 265.457 301.543, 264.405 303.191 Q 263.353 304.804, 261.425 305.716 Q 259.496 306.592, 256.972 306.592 Q 254.307 306.592, 252.308 305.681 Q 250.345 304.734, 248.767 302.841 L 250.766 300.807 Q 252.308 302.49, 253.606 303.156 Q 254.903 303.787, 256.972 303.787 Q 259.216 303.787, 260.583 302.595 Q 261.951 301.368, 261.951 299.404 Q 261.951 296.88, 260.513 295.758 Q 259.111 294.601, 256.06 294.601 L 254.272 294.601 L 254.272 292.076 L 255.85 292.076 Q 258.55 292.041, 259.987 290.884 Q 261.425 289.692, 261.425 287.483 Q 261.425 285.87, 260.233 284.923 Q 259.041 283.941, 257.007 283.941 Q 254.938 283.941, 253.641 284.678 Q 252.378 285.414, 251.397 287.272 L 248.977 285.975 Q 249.854 283.906, 251.958 282.539 Q 254.062 281.136, 257.007 281.136 Q 260.653 281.136, 262.792 282.854 Q 264.931 284.573, 264.931 287.483 Q 264.931 289.481, 263.844 290.919 Q 262.757 292.357, 260.689 293.163 " fill="#0000FF"/>
<path class="atom-2" d="M 267.54 285.576 L 271.914 285.576 L 271.914 280.971 L 273.858 280.971 L 273.858 285.576 L 278.347 285.576 L 278.347 287.242 L 273.858 287.242 L 273.858 291.871 L 271.914 291.871 L 271.914 287.242 L 267.54 287.242 L 267.54 285.576 " fill="#0000FF"/>
<path class="atom-3" d="M 241.366 368.935 L 244.732 368.935 L 244.732 379.489 L 257.425 379.489 L 257.425 368.935 L 260.791 368.935 L 260.791 393.76 L 257.425 393.76 L 257.425 382.295 L 244.732 382.295 L 244.732 393.76 L 241.366 393.76 L 241.366 368.935 " fill="#000000"/>
<path class="atom-3" d="M 263.421 389.658 L 266.927 389.658 L 266.927 393.164 L 263.421 393.164 L 263.421 389.658 M 263.421 377.596 L 266.927 377.596 L 266.927 381.102 L 263.421 381.102 L 263.421 377.596 " fill="#000000"/>
<path class="atom-3" d="M 284.108 385.24 L 287.088 385.24 L 287.088 388.045 L 284.108 388.045 L 284.108 393.76 L 280.812 393.76 L 280.812 388.045 L 267.979 388.045 L 267.979 385.836 L 278.848 368.935 L 284.108 368.935 L 284.108 385.24 M 272.046 385.24 L 280.812 385.24 L 280.812 371.179 L 272.046 385.24 " fill="#000000"/>
<path class="atom-4" d="M 164.131 187.308 L 167.497 187.308 L 167.497 197.862 L 180.19 197.862 L 180.19 187.308 L 183.556 187.308 L 183.556 212.133 L 180.19 212.133 L 180.19 200.668 L 167.497 200.668 L 167.497 212.133 L 164.131 212.133 L 164.131 187.308 " fill="#000000"/>
<path class="atom-4" d="M 186.186 208.031 L 189.692 208.031 L 189.692 211.537 L 186.186 211.537 L 186.186 208.031 M 186.186 195.969 L 189.692 195.969 L 189.692 199.475 L 186.186 199.475 L 186.186 195.969 " fill="#000000"/>
<path class="atom-4" d="M 200.316 196.6 Q 202.49 196.6, 204.278 197.547 Q 206.067 198.459, 207.083 200.212 Q 208.1 201.93, 208.1 204.279 Q 208.1 206.839, 206.838 208.697 Q 205.611 210.52, 203.577 211.467 Q 201.543 212.414, 199.229 212.414 Q 196.95 212.414, 194.846 211.572 Q 192.743 210.731, 191.305 209.118 L 193.409 206.944 Q 194.566 208.206, 196.144 208.907 Q 197.722 209.574, 199.334 209.574 Q 201.543 209.574, 203.051 208.206 Q 204.594 206.839, 204.594 204.349 Q 204.594 201.719, 203.051 200.492 Q 201.543 199.23, 199.124 199.23 Q 196.95 199.23, 194.531 200.177 L 192.602 199.265 L 193.794 187.308 L 206.558 187.308 L 206.207 190.113 L 196.67 190.113 L 195.933 197.477 Q 198.142 196.6, 200.316 196.6 " fill="#000000"/>
<path class="atom-5" d="M 241.366 106.099 L 244.732 106.099 L 244.732 116.654 L 257.425 116.654 L 257.425 106.099 L 260.791 106.099 L 260.791 130.924 L 257.425 130.924 L 257.425 119.459 L 244.732 119.459 L 244.732 130.924 L 241.366 130.924 L 241.366 106.099 " fill="#000000"/>
<path class="atom-5" d="M 263.421 126.822 L 266.927 126.822 L 266.927 130.328 L 263.421 130.328 L 263.421 126.822 M 263.421 114.76 L 266.927 114.76 L 266.927 118.266 L 263.421 118.266 L 263.421 114.76 " fill="#000000"/>
<path class="atom-5" d="M 279.024 115.426 Q 281.198 115.426, 282.916 116.373 Q 284.634 117.32, 285.581 119.038 Q 286.527 120.756, 286.527 122.93 Q 286.527 125.349, 285.44 127.243 Q 284.389 129.101, 282.495 130.153 Q 280.602 131.205, 278.182 131.205 Q 273.764 131.205, 271.52 128.225 Q 269.311 125.209, 269.311 119.248 Q 269.311 112.656, 272.046 109.255 Q 274.816 105.819, 280.111 105.819 Q 281.654 105.819, 282.951 106.17 Q 284.283 106.52, 285.546 107.257 L 284.178 109.606 Q 282.355 108.624, 280.146 108.624 Q 276.639 108.624, 274.851 110.903 Q 273.063 113.147, 272.853 117.811 Q 274.115 116.654, 275.693 116.057 Q 277.306 115.426, 279.024 115.426 M 278.217 128.33 Q 279.55 128.33, 280.637 127.628 Q 281.759 126.927, 282.39 125.7 Q 283.021 124.473, 283.021 122.965 Q 283.021 120.756, 281.794 119.494 Q 280.567 118.231, 278.393 118.231 Q 276.885 118.231, 275.377 118.863 Q 273.905 119.459, 272.853 120.511 Q 272.993 124.613, 274.29 126.471 Q 275.588 128.33, 278.217 128.33 " fill="#000000"/>
<path class="atom-6" d="M 309.874 293.794 Q 309.874 287.623, 312.749 284.397 Q 315.659 281.136, 321.164 281.136 Q 326.284 281.136, 329.018 284.748 L 326.704 286.641 Q 324.706 284.012, 321.164 284.012 Q 317.412 284.012, 315.414 286.536 Q 313.45 289.026, 313.45 293.794 Q 313.45 298.703, 315.484 301.228 Q 317.553 303.752, 321.55 303.752 Q 324.285 303.752, 327.476 302.104 L 328.457 304.734 Q 327.16 305.576, 325.197 306.067 Q 323.233 306.557, 321.059 306.557 Q 315.659 306.557, 312.749 303.261 Q 309.874 299.965, 309.874 293.794 " fill="#000000"/>
<path class="atom-6" d="M 331.648 302.139 L 335.155 302.139 L 335.155 305.646 L 331.648 305.646 L 331.648 302.139 M 331.648 290.078 L 335.155 290.078 L 335.155 293.584 L 331.648 293.584 L 331.648 290.078 " fill="#000000"/>
<path class="atom-6" d="M 348.794 284.222 L 335.786 284.222 L 335.786 281.417 L 352.266 281.417 L 352.266 283.906 L 342.237 306.242 L 338.871 306.242 L 348.794 284.222 " fill="#000000"/>
<path class="atom-7" d="M 133.604 293.794 Q 133.604 287.623, 136.479 284.397 Q 139.389 281.136, 144.894 281.136 Q 150.014 281.136, 152.749 284.748 L 150.434 286.641 Q 148.436 284.012, 144.894 284.012 Q 141.142 284.012, 139.144 286.536 Q 137.18 289.026, 137.18 293.794 Q 137.18 298.703, 139.214 301.228 Q 141.283 303.752, 145.28 303.752 Q 148.015 303.752, 151.206 302.104 L 152.187 304.734 Q 150.89 305.576, 148.927 306.067 Q 146.963 306.557, 144.789 306.557 Q 139.389 306.557, 136.479 303.261 Q 133.604 299.965, 133.604 293.794 " fill="#000000"/>
<path class="atom-7" d="M 155.378 302.139 L 158.885 302.139 L 158.885 305.646 L 155.378 305.646 L 155.378 302.139 M 155.378 290.078 L 158.885 290.078 L 158.885 293.584 L 155.378 293.584 L 155.378 290.078 " fill="#000000"/>
<path class="atom-7" d="M 173.716 293.093 Q 175.996 294.075, 177.293 295.547 Q 178.59 296.985, 178.59 299.44 Q 178.59 301.543, 177.503 303.191 Q 176.416 304.804, 174.453 305.716 Q 172.524 306.592, 169.965 306.592 Q 165.827 306.592, 163.443 304.699 Q 161.059 302.771, 161.059 299.44 Q 161.059 297.406, 162.11 295.898 Q 163.162 294.355, 165.336 293.198 Q 163.723 292.287, 162.847 290.954 Q 161.97 289.587, 161.97 287.483 Q 161.97 284.573, 164.074 282.854 Q 166.213 281.136, 169.824 281.136 Q 173.436 281.136, 175.54 282.854 Q 177.679 284.573, 177.679 287.483 Q 177.679 289.306, 176.662 290.674 Q 175.68 292.006, 173.716 293.093 M 169.824 283.766 Q 167.756 283.766, 166.599 284.748 Q 165.477 285.73, 165.477 287.483 Q 165.477 288.78, 166.248 289.657 Q 167.019 290.498, 168.106 290.989 Q 169.228 291.48, 171.367 292.216 Q 172.875 291.165, 173.506 290.042 Q 174.172 288.92, 174.172 287.483 Q 174.172 285.73, 173.015 284.748 Q 171.893 283.766, 169.824 283.766 M 169.965 303.963 Q 172.279 303.963, 173.681 302.735 Q 175.084 301.473, 175.084 299.404 Q 175.084 298.072, 174.348 297.231 Q 173.611 296.389, 172.489 295.898 Q 171.402 295.407, 169.439 294.776 L 167.861 294.25 Q 166.108 295.302, 165.336 296.564 Q 164.565 297.792, 164.565 299.404 Q 164.565 301.473, 166.038 302.735 Q 167.51 303.963, 169.965 303.963 " fill="#000000"/>
<path class="atom-8" d="M 329.024 369.076 L 332.39 369.076 L 332.39 379.63 L 345.083 379.63 L 345.083 369.076 L 348.449 369.076 L 348.449 393.901 L 345.083 393.901 L 345.083 382.435 L 332.39 382.435 L 332.39 393.901 L 329.024 393.901 L 329.024 369.076 " fill="#000000"/>
<path class="atom-8" d="M 351.079 389.798 L 354.586 389.798 L 354.586 393.304 L 351.079 393.304 L 351.079 389.798 M 351.079 377.736 L 354.586 377.736 L 354.586 381.243 L 351.079 381.243 L 351.079 377.736 " fill="#000000"/>
<path class="atom-8" d="M 364.859 368.795 Q 369.277 368.795, 371.486 371.811 Q 373.73 374.791, 373.73 380.752 Q 373.73 387.344, 370.96 390.78 Q 368.225 394.181, 362.931 394.181 Q 361.388 394.181, 360.056 393.83 Q 358.758 393.48, 357.496 392.743 L 358.863 390.394 Q 360.687 391.376, 362.896 391.376 Q 366.402 391.376, 368.19 389.132 Q 369.978 386.853, 370.189 382.189 Q 368.927 383.346, 367.314 383.978 Q 365.736 384.574, 364.018 384.574 Q 361.844 384.574, 360.126 383.627 Q 358.408 382.68, 357.461 380.962 Q 356.514 379.244, 356.514 377.07 Q 356.514 374.651, 357.566 372.792 Q 358.653 370.899, 360.546 369.847 Q 362.44 368.795, 364.859 368.795 M 360.02 377.035 Q 360.02 379.244, 361.248 380.506 Q 362.475 381.769, 364.649 381.769 Q 366.157 381.769, 367.629 381.172 Q 369.137 380.541, 370.189 379.489 Q 370.049 375.387, 368.751 373.529 Q 367.454 371.67, 364.824 371.67 Q 363.492 371.67, 362.37 372.372 Q 361.283 373.073, 360.652 374.3 Q 360.02 375.527, 360.02 377.035 " fill="#000000"/>
<path class="atom-9" d="M 335.334 230.041 L 338.7 230.041 L 338.7 240.595 L 351.393 240.595 L 351.393 230.041 L 354.759 230.041 L 354.759 254.866 L 351.393 254.866 L 351.393 243.4 L 338.7 243.4 L 338.7 254.866 L 335.334 254.866 L 335.334 230.041 " fill="#000000"/>
<path class="atom-9" d="M 357.389 250.764 L 360.895 250.764 L 360.895 254.27 L 357.389 254.27 L 357.389 250.764 M 357.389 238.702 L 360.895 238.702 L 360.895 242.208 L 357.389 242.208 L 357.389 238.702 " fill="#000000"/>
<path class="atom-9" d="M 364.156 252.061 L 369.591 252.061 L 369.591 233.513 L 363.595 235.371 L 362.789 233.302 L 370.397 229.901 L 372.887 230.322 L 372.887 252.061 L 377.761 252.061 L 377.761 254.866 L 364.156 254.866 L 364.156 252.061 " fill="#000000"/>
<path class="atom-9" d="M 388.981 255.147 Q 384.423 255.147, 382.144 251.781 Q 379.9 248.415, 379.9 242.419 Q 379.9 236.423, 382.144 233.092 Q 384.388 229.761, 388.981 229.761 Q 393.574 229.761, 395.818 233.092 Q 398.062 236.423, 398.062 242.419 Q 398.062 248.415, 395.783 251.781 Q 393.539 255.147, 388.981 255.147 M 388.981 252.342 Q 391.681 252.342, 393.118 249.852 Q 394.556 247.328, 394.556 242.419 Q 394.556 237.545, 393.118 235.055 Q 391.681 232.566, 388.981 232.566 Q 386.316 232.566, 384.843 235.055 Q 383.406 237.545, 383.406 242.419 Q 383.406 247.328, 384.843 249.852 Q 386.316 252.342, 388.981 252.342 " fill="#000000"/>
<path class="atom-10" d="M 153.707 369.005 L 157.073 369.005 L 157.073 379.56 L 169.766 379.56 L 169.766 369.005 L 173.132 369.005 L 173.132 393.83 L 169.766 393.83 L 169.766 382.365 L 157.073 382.365 L 157.073 393.83 L 153.707 393.83 L 153.707 369.005 " fill="#000000"/>
<path class="atom-10" d="M 175.762 389.728 L 179.268 389.728 L 179.268 393.234 L 175.762 393.234 L 175.762 389.728 M 175.762 377.666 L 179.268 377.666 L 179.268 381.172 L 175.762 381.172 L 175.762 377.666 " fill="#000000"/>
<path class="atom-10" d="M 182.529 391.025 L 187.964 391.025 L 187.964 372.477 L 181.968 374.335 L 181.162 372.266 L 188.77 368.865 L 191.26 369.286 L 191.26 391.025 L 196.134 391.025 L 196.134 393.83 L 182.529 393.83 L 182.529 391.025 " fill="#000000"/>
<path class="atom-10" d="M 199.395 391.025 L 204.829 391.025 L 204.829 372.477 L 198.834 374.335 L 198.027 372.266 L 205.636 368.865 L 208.125 369.286 L 208.125 391.025 L 212.999 391.025 L 212.999 393.83 L 199.395 393.83 L 199.395 391.025 " fill="#000000"/>
<path class="atom-11" d="M 147.397 230.041 L 150.763 230.041 L 150.763 240.595 L 163.456 240.595 L 163.456 230.041 L 166.823 230.041 L 166.823 254.866 L 163.456 254.866 L 163.456 243.4 L 150.763 243.4 L 150.763 254.866 L 147.397 254.866 L 147.397 230.041 " fill="#000000"/>
<path class="atom-11" d="M 169.452 250.764 L 172.959 250.764 L 172.959 254.27 L 169.452 254.27 L 169.452 250.764 M 169.452 238.702 L 172.959 238.702 L 172.959 242.208 L 169.452 242.208 L 169.452 238.702 " fill="#000000"/>
<path class="atom-11" d="M 176.22 252.061 L 181.654 252.061 L 181.654 233.513 L 175.659 235.371 L 174.852 233.302 L 182.461 229.901 L 184.95 230.322 L 184.95 252.061 L 189.824 252.061 L 189.824 254.866 L 176.22 254.866 L 176.22 252.061 " fill="#000000"/>
<path class="atom-11" d="M 191.647 234.74 Q 192.559 232.391, 194.733 231.093 Q 196.907 229.761, 199.922 229.761 Q 203.674 229.761, 205.778 231.794 Q 207.882 233.828, 207.882 237.44 Q 207.882 241.121, 205.147 244.558 Q 202.447 247.994, 196.837 252.061 L 208.303 252.061 L 208.303 254.866 L 191.577 254.866 L 191.577 252.517 Q 196.206 249.221, 198.941 246.767 Q 201.711 244.312, 203.043 242.103 Q 204.376 239.894, 204.376 237.615 Q 204.376 235.231, 203.183 233.898 Q 201.991 232.566, 199.922 232.566 Q 197.924 232.566, 196.591 233.372 Q 195.259 234.179, 194.312 235.967 L 191.647 234.74 " fill="#000000"/>
<path class="atom-12" d="M 416.683 281.417 L 420.049 281.417 L 420.049 291.971 L 432.742 291.971 L 432.742 281.417 L 436.108 281.417 L 436.108 306.242 L 432.742 306.242 L 432.742 294.776 L 420.049 294.776 L 420.049 306.242 L 416.683 306.242 L 416.683 281.417 " fill="#000000"/>
<path class="atom-12" d="M 438.738 302.139 L 442.244 302.139 L 442.244 305.646 L 438.738 305.646 L 438.738 302.139 M 438.738 290.078 L 442.244 290.078 L 442.244 293.584 L 438.738 293.584 L 438.738 290.078 " fill="#000000"/>
<path class="atom-12" d="M 445.505 303.437 L 450.94 303.437 L 450.94 284.888 L 444.944 286.747 L 444.138 284.678 L 451.747 281.277 L 454.236 281.697 L 454.236 303.437 L 459.11 303.437 L 459.11 306.242 L 445.505 306.242 L 445.505 303.437 " fill="#000000"/>
<path class="atom-12" d="M 472.504 293.163 Q 474.923 293.864, 476.081 295.442 Q 477.273 296.985, 477.273 299.44 Q 477.273 301.543, 476.221 303.191 Q 475.169 304.804, 473.24 305.716 Q 471.312 306.592, 468.787 306.592 Q 466.123 306.592, 464.124 305.681 Q 462.16 304.734, 460.583 302.841 L 462.581 300.807 Q 464.124 302.49, 465.421 303.156 Q 466.719 303.787, 468.787 303.787 Q 471.031 303.787, 472.399 302.595 Q 473.766 301.368, 473.766 299.404 Q 473.766 296.88, 472.329 295.758 Q 470.926 294.601, 467.876 294.601 L 466.087 294.601 L 466.087 292.076 L 467.665 292.076 Q 470.365 292.041, 471.803 290.884 Q 473.24 289.692, 473.24 287.483 Q 473.24 285.87, 472.048 284.923 Q 470.856 283.941, 468.822 283.941 Q 466.754 283.941, 465.456 284.678 Q 464.194 285.414, 463.212 287.272 L 460.793 285.975 Q 461.669 283.906, 463.773 282.539 Q 465.877 281.136, 468.822 281.136 Q 472.469 281.136, 474.608 282.854 Q 476.747 284.573, 476.747 287.483 Q 476.747 289.481, 475.66 290.919 Q 474.573 292.357, 472.504 293.163 " fill="#000000"/>
<path class="atom-13" d="M 22.7273 281.347 L 26.0934 281.347 L 26.0934 291.901 L 38.7863 291.901 L 38.7863 281.347 L 42.1524 281.347 L 42.1524 306.172 L 38.7863 306.172 L 38.7863 294.706 L 26.0934 294.706 L 26.0934 306.172 L 22.7273 306.172 L 22.7273 281.347 " fill="#000000"/>
<path class="atom-13" d="M 44.7822 302.069 L 48.2886 302.069 L 48.2886 305.576 L 44.7822 305.576 L 44.7822 302.069 M 44.7822 290.007 L 48.2886 290.007 L 48.2886 293.514 L 44.7822 293.514 L 44.7822 290.007 " fill="#000000"/>
<path class="atom-13" d="M 51.5495 303.367 L 56.9843 303.367 L 56.9843 284.818 L 50.9884 286.676 L 50.182 284.608 L 57.7908 281.206 L 60.2803 281.627 L 60.2803 303.367 L 65.1541 303.367 L 65.1541 306.172 L 51.5495 306.172 L 51.5495 303.367 " fill="#000000"/>
<path class="atom-13" d="M 82.3352 297.651 L 85.3156 297.651 L 85.3156 300.456 L 82.3352 300.456 L 82.3352 306.172 L 79.0392 306.172 L 79.0392 300.456 L 66.206 300.456 L 66.206 298.247 L 77.0757 281.347 L 82.3352 281.347 L 82.3352 297.651 M 70.2734 297.651 L 79.0392 297.651 L 79.0392 283.591 L 70.2734 297.651 " fill="#000000"/>
<text x="251.0782020848746" y="249.85974607026026" font-size="12" font-family="Verdana" font-weight="bold" letter-spacing="0" text-anchor="start" fill="black" transform=" rotate(-0.000000 251.078202 249.859746)">0.0105</text><text x="25" y="490" font-size="12" font-family="Verdana" font-weight="bold" letter-spacing="0" text-anchor="start" fill="black">[H:1]-[#6:2](-[#7+:3](-[H:4])(-[#6:7](-[H:9])(-[H:10])-[H:13])-[#6:8](-[H:11])(-[H:12])-[H:14])(-[H:5])-[H:6]</text></svg>
