<?xml version='1.0' encoding='ASCII' standalone='yes'?>
<svg xmlns="http://www.w3.org/2000/svg" xmlns:rdkit="http://www.rdkit.org/xml" xmlns:xlink="http://www.w3.org/1999/xlink" version="1.1" baseProfile="full" xml:space="preserve" width="500px" height="500px" viewBox="0 0 500 500">
<!-- END OF HEADER -->
<rect style="opacity:1.0;fill:#FFFFFF;stroke:none" width="500" height="500" x="0" y="0"> </rect>
<path d="M 294.228,210.289 L 288.278,283.82" style="fill:none;fill-rule:evenodd;stroke:#FF7F7F;stroke-width:15.7px;stroke-linecap:butt;stroke-linejoin:miter;stroke-opacity:1"/>
<path class="bond-0 atom-1 atom-0" d="M 307.452,209.74 L 328.82,208.854" style="fill:none;fill-rule:evenodd;stroke:#000000;stroke-width:2.0px;stroke-linecap:butt;stroke-linejoin:miter;stroke-opacity:1"/>
<path class="bond-1 atom-1 atom-7" d="M 268.447,204.984 L 259.369,203.116" style="fill:none;fill-rule:evenodd;stroke:#000000;stroke-width:2.0px;stroke-linecap:butt;stroke-linejoin:miter;stroke-opacity:1"/>
<path class="bond-2 atom-1 atom-8" d="M 295.232,197.88 L 299.199,148.855" style="fill:none;fill-rule:evenodd;stroke:#000000;stroke-width:2.0px;stroke-linecap:butt;stroke-linejoin:miter;stroke-opacity:1"/>
<path class="bond-5 atom-2 atom-1" d="M 289.282,271.412 L 291.266,246.899" style="fill:none;fill-rule:evenodd;stroke:#0000FF;stroke-width:2.0px;stroke-linecap:butt;stroke-linejoin:miter;stroke-opacity:1"/>
<path class="bond-5 atom-2 atom-1" d="M 291.266,246.899 L 293.249,222.386" style="fill:none;fill-rule:evenodd;stroke:#000000;stroke-width:2.0px;stroke-linecap:butt;stroke-linejoin:miter;stroke-opacity:1"/>
<path class="bond-3 atom-2 atom-3" d="M 262.239,281.713 L 245.545,280.362" style="fill:none;fill-rule:evenodd;stroke:#0000FF;stroke-width:2.0px;stroke-linecap:butt;stroke-linejoin:miter;stroke-opacity:1"/>
<path class="bond-3 atom-2 atom-3" d="M 245.545,280.362 L 228.85,279.012" style="fill:none;fill-rule:evenodd;stroke:#000000;stroke-width:2.0px;stroke-linecap:butt;stroke-linejoin:miter;stroke-opacity:1"/>
<path class="bond-4 atom-2 atom-9" d="M 302.223,284.949 L 315.026,285.985" style="fill:none;fill-rule:evenodd;stroke:#0000FF;stroke-width:2.0px;stroke-linecap:butt;stroke-linejoin:miter;stroke-opacity:1"/>
<path class="bond-4 atom-2 atom-9" d="M 315.026,285.985 L 327.83,287.021" style="fill:none;fill-rule:evenodd;stroke:#000000;stroke-width:2.0px;stroke-linecap:butt;stroke-linejoin:miter;stroke-opacity:1"/>
<path class="bond-6 atom-2 atom-10" d="M 287.25,296.524 L 285.271,320.981" style="fill:none;fill-rule:evenodd;stroke:#0000FF;stroke-width:2.0px;stroke-linecap:butt;stroke-linejoin:miter;stroke-opacity:1"/>
<path class="bond-6 atom-2 atom-10" d="M 285.271,320.981 L 283.292,345.439" style="fill:none;fill-rule:evenodd;stroke:#000000;stroke-width:2.0px;stroke-linecap:butt;stroke-linejoin:miter;stroke-opacity:1"/>
<path class="bond-7 atom-3 atom-5" d="M 213.743,290.279 L 209.756,339.541" style="fill:none;fill-rule:evenodd;stroke:#000000;stroke-width:2.0px;stroke-linecap:butt;stroke-linejoin:miter;stroke-opacity:1"/>
<path class="bond-8 atom-3 atom-6" d="M 214.273,266.453 L 213.408,245.596" style="fill:none;fill-rule:evenodd;stroke:#000000;stroke-width:2.0px;stroke-linecap:butt;stroke-linejoin:miter;stroke-opacity:1"/>
<path class="bond-9 atom-4 atom-3" d="M 155.151,273.048 L 187.921,275.7" style="fill:none;fill-rule:evenodd;stroke:#000000;stroke-width:2.0px;stroke-linecap:butt;stroke-linejoin:miter;stroke-opacity:1"/>
<path class="bond-10 atom-4 atom-11" d="M 142.2,259.748 L 146.186,210.492" style="fill:none;fill-rule:evenodd;stroke:#000000;stroke-width:2.0px;stroke-linecap:butt;stroke-linejoin:miter;stroke-opacity:1"/>
<path class="bond-11 atom-4 atom-12" d="M 140.192,284.565 L 136.225,333.597" style="fill:none;fill-rule:evenodd;stroke:#000000;stroke-width:2.0px;stroke-linecap:butt;stroke-linejoin:miter;stroke-opacity:1"/>
<path class="bond-12 atom-4 atom-15" d="M 114.694,269.774 L 76.1073,266.652" style="fill:none;fill-rule:evenodd;stroke:#000000;stroke-width:2.0px;stroke-linecap:butt;stroke-linejoin:miter;stroke-opacity:1"/>
<path class="bond-13 atom-9 atom-13" d="M 360.805,302.179 L 356.824,351.381" style="fill:none;fill-rule:evenodd;stroke:#000000;stroke-width:2.0px;stroke-linecap:butt;stroke-linejoin:miter;stroke-opacity:1"/>
<path class="bond-14 atom-9 atom-14" d="M 364.183,278.235 L 368.264,258.402" style="fill:none;fill-rule:evenodd;stroke:#000000;stroke-width:2.0px;stroke-linecap:butt;stroke-linejoin:miter;stroke-opacity:1"/>
<path class="bond-15 atom-9 atom-16" d="M 383.723,291.543 L 425.872,294.954" style="fill:none;fill-rule:evenodd;stroke:#000000;stroke-width:2.0px;stroke-linecap:butt;stroke-linejoin:miter;stroke-opacity:1"/>
<path class="atom-0" d="M 329.578 198.096 L 332.411 198.096 L 332.411 206.978 L 343.093 206.978 L 343.093 198.096 L 345.926 198.096 L 345.926 218.988 L 343.093 218.988 L 343.093 209.339 L 332.411 209.339 L 332.411 218.988 L 329.578 218.988 L 329.578 198.096 " fill="#000000"/>
<path class="atom-0" d="M 348.139 215.536 L 351.09 215.536 L 351.09 218.487 L 348.139 218.487 L 348.139 215.536 M 348.139 205.385 L 351.09 205.385 L 351.09 208.336 L 348.139 208.336 L 348.139 205.385 " fill="#000000"/>
<path class="atom-0" d="M 353.834 216.628 L 358.408 216.628 L 358.408 201.018 L 353.362 202.582 L 352.683 200.841 L 359.087 197.978 L 361.182 198.332 L 361.182 216.628 L 365.284 216.628 L 365.284 218.988 L 353.834 218.988 L 353.834 216.628 " fill="#000000"/>
<path class="atom-1" d="M 269.537 210.377 Q 269.537 205.184, 271.956 202.469 Q 274.405 199.725, 279.038 199.725 Q 283.347 199.725, 285.648 202.764 L 283.701 204.358 Q 282.019 202.144, 279.038 202.144 Q 275.881 202.144, 274.199 204.269 Q 272.546 206.364, 272.546 210.377 Q 272.546 214.509, 274.258 216.633 Q 275.999 218.758, 279.363 218.758 Q 281.665 218.758, 284.35 217.371 L 285.176 219.584 Q 284.084 220.292, 282.432 220.705 Q 280.779 221.119, 278.95 221.119 Q 274.405 221.119, 271.956 218.345 Q 269.537 215.571, 269.537 210.377 " fill="#000000"/>
<path class="atom-1" d="M 287.861 217.4 L 290.812 217.4 L 290.812 220.351 L 287.861 220.351 L 287.861 217.4 M 287.861 207.249 L 290.812 207.249 L 290.812 210.2 L 287.861 210.2 L 287.861 207.249 " fill="#000000"/>
<path class="atom-1" d="M 292.347 203.915 Q 293.114 201.938, 294.944 200.846 Q 296.773 199.725, 299.311 199.725 Q 302.468 199.725, 304.239 201.436 Q 306.009 203.148, 306.009 206.187 Q 306.009 209.286, 303.708 212.177 Q 301.435 215.069, 296.714 218.492 L 306.363 218.492 L 306.363 220.853 L 292.288 220.853 L 292.288 218.876 Q 296.183 216.102, 298.485 214.036 Q 300.816 211.971, 301.937 210.112 Q 303.058 208.253, 303.058 206.335 Q 303.058 204.328, 302.055 203.207 Q 301.052 202.085, 299.311 202.085 Q 297.629 202.085, 296.507 202.764 Q 295.386 203.443, 294.589 204.948 L 292.347 203.915 " fill="#000000"/>
<path class="atom-2" d="M 267.388 273.492 L 274.234 284.558 Q 274.913 285.65, 276.005 287.627 Q 277.097 289.604, 277.156 289.722 L 277.156 273.492 L 279.93 273.492 L 279.93 294.384 L 277.067 294.384 L 269.72 282.286 Q 268.864 280.869, 267.949 279.246 Q 267.064 277.623, 266.798 277.122 L 266.798 294.384 L 264.083 294.384 L 264.083 273.492 L 267.388 273.492 " fill="#0000FF"/>
<path class="atom-2" d="M 282.143 290.932 L 285.094 290.932 L 285.094 293.883 L 282.143 293.883 L 282.143 290.932 M 282.143 280.781 L 285.094 280.781 L 285.094 283.732 L 282.143 283.732 L 282.143 280.781 " fill="#0000FF"/>
<path class="atom-2" d="M 296.366 283.378 Q 298.402 283.968, 299.376 285.296 Q 300.379 286.594, 300.379 288.66 Q 300.379 290.43, 299.494 291.817 Q 298.609 293.175, 296.986 293.942 Q 295.363 294.679, 293.238 294.679 Q 290.995 294.679, 289.313 293.912 Q 287.661 293.116, 286.333 291.522 L 288.015 289.811 Q 289.313 291.227, 290.405 291.788 Q 291.497 292.319, 293.238 292.319 Q 295.127 292.319, 296.277 291.315 Q 297.428 290.283, 297.428 288.63 Q 297.428 286.506, 296.218 285.561 Q 295.038 284.587, 292.471 284.587 L 290.966 284.587 L 290.966 282.463 L 292.294 282.463 Q 294.566 282.433, 295.776 281.46 Q 296.986 280.456, 296.986 278.597 Q 296.986 277.24, 295.982 276.443 Q 294.979 275.617, 293.267 275.617 Q 291.526 275.617, 290.435 276.237 Q 289.372 276.856, 288.546 278.42 L 286.51 277.328 Q 287.248 275.587, 289.018 274.437 Q 290.789 273.256, 293.267 273.256 Q 296.336 273.256, 298.136 274.702 Q 299.936 276.148, 299.936 278.597 Q 299.936 280.279, 299.022 281.489 Q 298.107 282.699, 296.366 283.378 " fill="#0000FF"/>
<path class="atom-2" d="M 302.132 276.993 L 305.813 276.993 L 305.813 273.117 L 307.449 273.117 L 307.449 276.993 L 311.227 276.993 L 311.227 278.395 L 307.449 278.395 L 307.449 282.29 L 305.813 282.29 L 305.813 278.395 L 302.132 278.395 L 302.132 276.993 " fill="#0000FF"/>
<path class="atom-3" d="M 189.416 277.959 Q 189.416 272.765, 191.836 270.051 Q 194.285 267.306, 198.918 267.306 Q 203.226 267.306, 205.528 270.346 L 203.58 271.939 Q 201.898 269.726, 198.918 269.726 Q 195.76 269.726, 194.078 271.851 Q 192.426 273.946, 192.426 277.959 Q 192.426 282.09, 194.137 284.215 Q 195.878 286.339, 199.242 286.339 Q 201.544 286.339, 204.229 284.952 L 205.055 287.166 Q 203.964 287.874, 202.311 288.287 Q 200.659 288.7, 198.829 288.7 Q 194.285 288.7, 191.836 285.926 Q 189.416 283.152, 189.416 277.959 " fill="#000000"/>
<path class="atom-3" d="M 207.741 284.982 L 210.692 284.982 L 210.692 287.933 L 207.741 287.933 L 207.741 284.982 M 207.741 274.831 L 210.692 274.831 L 210.692 277.782 L 207.741 277.782 L 207.741 274.831 " fill="#000000"/>
<path class="atom-3" d="M 225.151 281.264 L 227.659 281.264 L 227.659 283.625 L 225.151 283.625 L 225.151 288.434 L 222.377 288.434 L 222.377 283.625 L 211.577 283.625 L 211.577 281.766 L 220.725 267.542 L 225.151 267.542 L 225.151 281.264 M 215 281.264 L 222.377 281.264 L 222.377 269.431 L 215 281.264 " fill="#000000"/>
<path class="atom-4" d="M 116.539 272.009 Q 116.539 266.815, 118.958 264.101 Q 121.407 261.356, 126.04 261.356 Q 130.349 261.356, 132.65 264.396 L 130.703 265.989 Q 129.021 263.776, 126.04 263.776 Q 122.883 263.776, 121.201 265.901 Q 119.548 267.996, 119.548 272.009 Q 119.548 276.14, 121.26 278.265 Q 123.001 280.389, 126.365 280.389 Q 128.667 280.389, 131.352 279.003 L 132.178 281.216 Q 131.086 281.924, 129.434 282.337 Q 127.781 282.75, 125.952 282.75 Q 121.407 282.75, 118.958 279.976 Q 116.539 277.203, 116.539 272.009 " fill="#000000"/>
<path class="atom-4" d="M 134.863 279.032 L 137.814 279.032 L 137.814 281.983 L 134.863 281.983 L 134.863 279.032 M 134.863 268.881 L 137.814 268.881 L 137.814 271.832 L 134.863 271.832 L 134.863 268.881 " fill="#000000"/>
<path class="atom-4" d="M 146.755 269.412 Q 148.585 269.412, 150.09 270.209 Q 151.595 270.976, 152.451 272.452 Q 153.306 273.898, 153.306 275.875 Q 153.306 278.029, 152.244 279.593 Q 151.211 281.127, 149.5 281.924 Q 147.788 282.721, 145.841 282.721 Q 143.923 282.721, 142.152 282.012 Q 140.382 281.304, 139.172 279.947 L 140.942 278.117 Q 141.916 279.18, 143.244 279.77 Q 144.572 280.33, 145.929 280.33 Q 147.788 280.33, 149.057 279.18 Q 150.356 278.029, 150.356 275.934 Q 150.356 273.72, 149.057 272.688 Q 147.788 271.625, 145.752 271.625 Q 143.923 271.625, 141.887 272.422 L 140.264 271.655 L 141.267 261.592 L 152.008 261.592 L 151.713 263.953 L 143.687 263.953 L 143.067 270.15 Q 144.926 269.412, 146.755 269.412 " fill="#000000"/>
<path class="atom-5" d="M 200.623 341.074 L 203.456 341.074 L 203.456 349.956 L 214.138 349.956 L 214.138 341.074 L 216.971 341.074 L 216.971 361.966 L 214.138 361.966 L 214.138 352.317 L 203.456 352.317 L 203.456 361.966 L 200.623 361.966 L 200.623 341.074 " fill="#000000"/>
<path class="atom-5" d="M 219.184 358.513 L 222.135 358.513 L 222.135 361.464 L 219.184 361.464 L 219.184 358.513 M 219.184 348.362 L 222.135 348.362 L 222.135 351.313 L 219.184 351.313 L 219.184 348.362 " fill="#000000"/>
<path class="atom-5" d="M 232.315 348.923 Q 234.145 348.923, 235.591 349.72 Q 237.037 350.517, 237.833 351.962 Q 238.63 353.408, 238.63 355.238 Q 238.63 357.274, 237.715 358.867 Q 236.83 360.431, 235.237 361.317 Q 233.643 362.202, 231.607 362.202 Q 227.889 362.202, 226 359.694 Q 224.141 357.156, 224.141 352.14 Q 224.141 346.592, 226.443 343.73 Q 228.774 340.838, 233.23 340.838 Q 234.528 340.838, 235.62 341.133 Q 236.741 341.428, 237.804 342.048 L 236.653 344.025 Q 235.118 343.198, 233.259 343.198 Q 230.309 343.198, 228.804 345.116 Q 227.299 347.005, 227.122 350.93 Q 228.184 349.956, 229.512 349.454 Q 230.869 348.923, 232.315 348.923 M 231.636 359.782 Q 232.758 359.782, 233.673 359.192 Q 234.617 358.602, 235.148 357.569 Q 235.679 356.536, 235.679 355.267 Q 235.679 353.408, 234.646 352.346 Q 233.614 351.284, 231.784 351.284 Q 230.515 351.284, 229.246 351.815 Q 228.007 352.317, 227.122 353.202 Q 227.24 356.654, 228.331 358.218 Q 229.423 359.782, 231.636 359.782 " fill="#000000"/>
<path class="atom-6" d="M 204.767 223.9 L 207.6 223.9 L 207.6 232.782 L 218.282 232.782 L 218.282 223.9 L 221.115 223.9 L 221.115 244.792 L 218.282 244.792 L 218.282 235.143 L 207.6 235.143 L 207.6 244.792 L 204.767 244.792 L 204.767 223.9 " fill="#000000"/>
<path class="atom-6" d="M 223.328 241.34 L 226.279 241.34 L 226.279 244.291 L 223.328 244.291 L 223.328 241.34 M 223.328 231.189 L 226.279 231.189 L 226.279 234.14 L 223.328 234.14 L 223.328 231.189 " fill="#000000"/>
<path class="atom-6" d="M 237.758 226.261 L 226.81 226.261 L 226.81 223.9 L 240.679 223.9 L 240.679 225.995 L 232.24 244.792 L 229.407 244.792 L 237.758 226.261 " fill="#000000"/>
<path class="atom-7" d="M 220.842 191.181 L 223.675 191.181 L 223.675 200.063 L 234.357 200.063 L 234.357 191.181 L 237.19 191.181 L 237.19 212.073 L 234.357 212.073 L 234.357 202.424 L 223.675 202.424 L 223.675 212.073 L 220.842 212.073 L 220.842 191.181 " fill="#000000"/>
<path class="atom-7" d="M 239.403 208.621 L 242.354 208.621 L 242.354 211.571 L 239.403 211.571 L 239.403 208.621 M 239.403 198.47 L 242.354 198.47 L 242.354 201.42 L 239.403 201.42 L 239.403 198.47 " fill="#000000"/>
<path class="atom-7" d="M 254.836 201.007 Q 256.754 201.834, 257.846 203.073 Q 258.938 204.283, 258.938 206.348 Q 258.938 208.119, 258.023 209.506 Q 257.108 210.863, 255.456 211.63 Q 253.833 212.368, 251.678 212.368 Q 248.196 212.368, 246.19 210.775 Q 244.183 209.152, 244.183 206.348 Q 244.183 204.637, 245.069 203.368 Q 245.954 202.07, 247.783 201.096 Q 246.426 200.329, 245.688 199.207 Q 244.95 198.056, 244.95 196.286 Q 244.95 193.837, 246.721 192.391 Q 248.521 190.945, 251.56 190.945 Q 254.6 190.945, 256.37 192.391 Q 258.17 193.837, 258.17 196.286 Q 258.17 197.82, 257.315 198.971 Q 256.488 200.093, 254.836 201.007 M 251.56 193.158 Q 249.819 193.158, 248.846 193.984 Q 247.901 194.811, 247.901 196.286 Q 247.901 197.378, 248.551 198.116 Q 249.2 198.824, 250.114 199.237 Q 251.059 199.65, 252.859 200.27 Q 254.128 199.384, 254.659 198.44 Q 255.219 197.496, 255.219 196.286 Q 255.219 194.811, 254.246 193.984 Q 253.301 193.158, 251.56 193.158 M 251.678 210.155 Q 253.626 210.155, 254.806 209.122 Q 255.987 208.06, 255.987 206.319 Q 255.987 205.198, 255.367 204.489 Q 254.747 203.781, 253.803 203.368 Q 252.888 202.955, 251.236 202.424 L 249.908 201.981 Q 248.432 202.866, 247.783 203.929 Q 247.134 204.962, 247.134 206.319 Q 247.134 208.06, 248.373 209.122 Q 249.613 210.155, 251.678 210.155 " fill="#000000"/>
<path class="atom-8" d="M 292.004 126.429 L 294.837 126.429 L 294.837 135.312 L 305.519 135.312 L 305.519 126.429 L 308.352 126.429 L 308.352 147.322 L 305.519 147.322 L 305.519 137.672 L 294.837 137.672 L 294.837 147.322 L 292.004 147.322 L 292.004 126.429 " fill="#000000"/>
<path class="atom-8" d="M 310.565 143.869 L 313.516 143.869 L 313.516 146.82 L 310.565 146.82 L 310.565 143.869 M 310.565 133.718 L 313.516 133.718 L 313.516 136.669 L 310.565 136.669 L 310.565 133.718 " fill="#000000"/>
<path class="atom-8" d="M 322.162 126.193 Q 325.88 126.193, 327.739 128.731 Q 329.628 131.239, 329.628 136.256 Q 329.628 141.803, 327.296 144.695 Q 324.995 147.558, 320.539 147.558 Q 319.24 147.558, 318.119 147.263 Q 317.027 146.967, 315.965 146.348 L 317.116 144.371 Q 318.65 145.197, 320.509 145.197 Q 323.46 145.197, 324.965 143.308 Q 326.47 141.39, 326.647 137.466 Q 325.585 138.439, 324.227 138.971 Q 322.9 139.472, 321.454 139.472 Q 319.624 139.472, 318.178 138.675 Q 316.732 137.879, 315.935 136.433 Q 315.139 134.987, 315.139 133.157 Q 315.139 131.121, 316.024 129.557 Q 316.939 127.964, 318.532 127.079 Q 320.126 126.193, 322.162 126.193 M 318.09 133.128 Q 318.09 134.987, 319.122 136.049 Q 320.155 137.112, 321.985 137.112 Q 323.254 137.112, 324.493 136.61 Q 325.762 136.079, 326.647 135.193 Q 326.529 131.741, 325.437 130.177 Q 324.345 128.613, 322.132 128.613 Q 321.011 128.613, 320.067 129.203 Q 319.152 129.793, 318.621 130.826 Q 318.09 131.859, 318.09 133.128 " fill="#000000"/>
<path class="atom-9" d="M 329.324 289.859 Q 329.324 284.665, 331.744 281.95 Q 334.193 279.206, 338.826 279.206 Q 343.134 279.206, 345.436 282.245 L 343.488 283.839 Q 341.806 281.626, 338.826 281.626 Q 335.668 281.626, 333.986 283.75 Q 332.334 285.846, 332.334 289.859 Q 332.334 293.99, 334.045 296.115 Q 335.786 298.239, 339.15 298.239 Q 341.452 298.239, 344.137 296.852 L 344.964 299.065 Q 343.872 299.774, 342.219 300.187 Q 340.567 300.6, 338.737 300.6 Q 334.193 300.6, 331.744 297.826 Q 329.324 295.052, 329.324 289.859 " fill="#000000"/>
<path class="atom-9" d="M 347.649 296.882 L 350.6 296.882 L 350.6 299.833 L 347.649 299.833 L 347.649 296.882 M 347.649 286.731 L 350.6 286.731 L 350.6 289.682 L 347.649 289.682 L 347.649 286.731 " fill="#000000"/>
<path class="atom-9" d="M 353.344 297.974 L 357.918 297.974 L 357.918 282.363 L 352.872 283.927 L 352.193 282.186 L 358.597 279.324 L 360.692 279.678 L 360.692 297.974 L 364.794 297.974 L 364.794 300.334 L 353.344 300.334 L 353.344 297.974 " fill="#000000"/>
<path class="atom-9" d="M 374.236 300.57 Q 370.4 300.57, 368.482 297.738 Q 366.594 294.905, 366.594 289.859 Q 366.594 284.813, 368.482 282.009 Q 370.371 279.206, 374.236 279.206 Q 378.102 279.206, 379.99 282.009 Q 381.879 284.813, 381.879 289.859 Q 381.879 294.905, 379.961 297.738 Q 378.072 300.57, 374.236 300.57 M 374.236 298.21 Q 376.508 298.21, 377.718 296.115 Q 378.928 293.99, 378.928 289.859 Q 378.928 285.757, 377.718 283.662 Q 376.508 281.567, 374.236 281.567 Q 371.994 281.567, 370.754 283.662 Q 369.544 285.757, 369.544 289.859 Q 369.544 293.99, 370.754 296.115 Q 371.994 298.21, 374.236 298.21 " fill="#000000"/>
<path class="atom-10" d="M 274.154 346.965 L 276.987 346.965 L 276.987 355.847 L 287.669 355.847 L 287.669 346.965 L 290.502 346.965 L 290.502 367.857 L 287.669 367.857 L 287.669 358.207 L 276.987 358.207 L 276.987 367.857 L 274.154 367.857 L 274.154 346.965 " fill="#000000"/>
<path class="atom-10" d="M 292.715 364.404 L 295.666 364.404 L 295.666 367.355 L 292.715 367.355 L 292.715 364.404 M 292.715 354.253 L 295.666 354.253 L 295.666 357.204 L 292.715 357.204 L 292.715 354.253 " fill="#000000"/>
<path class="atom-10" d="M 298.41 365.496 L 302.984 365.496 L 302.984 349.886 L 297.938 351.45 L 297.26 349.709 L 303.663 346.847 L 305.758 347.201 L 305.758 365.496 L 309.86 365.496 L 309.86 367.857 L 298.41 367.857 L 298.41 365.496 " fill="#000000"/>
<path class="atom-10" d="M 312.604 365.496 L 317.178 365.496 L 317.178 349.886 L 312.132 351.45 L 311.453 349.709 L 317.857 346.847 L 319.952 347.201 L 319.952 365.496 L 324.053 365.496 L 324.053 367.857 L 312.604 367.857 L 312.604 365.496 " fill="#000000"/>
<path class="atom-11" d="M 138.991 188.061 L 141.824 188.061 L 141.824 196.943 L 152.506 196.943 L 152.506 188.061 L 155.339 188.061 L 155.339 208.953 L 152.506 208.953 L 152.506 199.304 L 141.824 199.304 L 141.824 208.953 L 138.991 208.953 L 138.991 188.061 " fill="#000000"/>
<path class="atom-11" d="M 157.552 205.501 L 160.503 205.501 L 160.503 208.452 L 157.552 208.452 L 157.552 205.501 M 157.552 195.35 L 160.503 195.35 L 160.503 198.301 L 157.552 198.301 L 157.552 195.35 " fill="#000000"/>
<path class="atom-11" d="M 163.247 206.592 L 167.821 206.592 L 167.821 190.982 L 162.775 192.546 L 162.096 190.805 L 168.5 187.943 L 170.595 188.297 L 170.595 206.592 L 174.697 206.592 L 174.697 208.953 L 163.247 208.953 L 163.247 206.592 " fill="#000000"/>
<path class="atom-11" d="M 176.231 192.015 Q 176.998 190.038, 178.828 188.946 Q 180.657 187.825, 183.195 187.825 Q 186.353 187.825, 188.123 189.536 Q 189.894 191.248, 189.894 194.287 Q 189.894 197.386, 187.592 200.278 Q 185.32 203.169, 180.598 206.592 L 190.248 206.592 L 190.248 208.953 L 176.172 208.953 L 176.172 206.976 Q 180.067 204.202, 182.369 202.137 Q 184.7 200.071, 185.821 198.212 Q 186.943 196.353, 186.943 194.435 Q 186.943 192.428, 185.94 191.307 Q 184.936 190.186, 183.195 190.186 Q 181.513 190.186, 180.392 190.864 Q 179.271 191.543, 178.474 193.048 L 176.231 192.015 " fill="#000000"/>
<path class="atom-12" d="M 127.091 335.124 L 129.924 335.124 L 129.924 344.006 L 140.606 344.006 L 140.606 335.124 L 143.439 335.124 L 143.439 356.016 L 140.606 356.016 L 140.606 346.367 L 129.924 346.367 L 129.924 356.016 L 127.091 356.016 L 127.091 335.124 " fill="#000000"/>
<path class="atom-12" d="M 145.652 352.563 L 148.603 352.563 L 148.603 355.514 L 145.652 355.514 L 145.652 352.563 M 145.652 342.412 L 148.603 342.412 L 148.603 345.363 L 145.652 345.363 L 145.652 342.412 " fill="#000000"/>
<path class="atom-12" d="M 151.348 353.655 L 155.921 353.655 L 155.921 338.045 L 150.875 339.609 L 150.197 337.868 L 156.6 335.006 L 158.695 335.36 L 158.695 353.655 L 162.797 353.655 L 162.797 356.016 L 151.348 356.016 L 151.348 353.655 " fill="#000000"/>
<path class="atom-12" d="M 174.069 345.009 Q 176.105 345.599, 177.079 346.927 Q 178.082 348.226, 178.082 350.291 Q 178.082 352.062, 177.197 353.449 Q 176.312 354.806, 174.689 355.573 Q 173.066 356.311, 170.941 356.311 Q 168.699 356.311, 167.017 355.544 Q 165.364 354.747, 164.036 353.154 L 165.718 351.442 Q 167.017 352.859, 168.108 353.419 Q 169.2 353.95, 170.941 353.95 Q 172.83 353.95, 173.981 352.947 Q 175.132 351.914, 175.132 350.262 Q 175.132 348.137, 173.922 347.193 Q 172.741 346.219, 170.174 346.219 L 168.669 346.219 L 168.669 344.094 L 169.997 344.094 Q 172.269 344.065, 173.479 343.091 Q 174.689 342.088, 174.689 340.229 Q 174.689 338.871, 173.686 338.075 Q 172.682 337.248, 170.971 337.248 Q 169.23 337.248, 168.138 337.868 Q 167.076 338.488, 166.249 340.052 L 164.213 338.96 Q 164.951 337.219, 166.722 336.068 Q 168.492 334.888, 170.971 334.888 Q 174.04 334.888, 175.84 336.334 Q 177.64 337.78, 177.64 340.229 Q 177.64 341.911, 176.725 343.121 Q 175.81 344.331, 174.069 345.009 " fill="#000000"/>
<path class="atom-13" d="M 347.686 352.915 L 350.518 352.915 L 350.518 361.797 L 361.201 361.797 L 361.201 352.915 L 364.033 352.915 L 364.033 373.807 L 361.201 373.807 L 361.201 364.157 L 350.518 364.157 L 350.518 373.807 L 347.686 373.807 L 347.686 352.915 " fill="#000000"/>
<path class="atom-13" d="M 366.247 370.354 L 369.197 370.354 L 369.197 373.305 L 366.247 373.305 L 366.247 370.354 M 366.247 360.203 L 369.197 360.203 L 369.197 363.154 L 366.247 363.154 L 366.247 360.203 " fill="#000000"/>
<path class="atom-13" d="M 371.942 371.446 L 376.516 371.446 L 376.516 355.836 L 371.47 357.4 L 370.791 355.659 L 377.194 352.796 L 379.289 353.151 L 379.289 371.446 L 383.391 371.446 L 383.391 373.807 L 371.942 373.807 L 371.942 371.446 " fill="#000000"/>
<path class="atom-13" d="M 397.85 366.636 L 400.359 366.636 L 400.359 368.997 L 397.85 368.997 L 397.85 373.807 L 395.077 373.807 L 395.077 368.997 L 384.276 368.997 L 384.276 367.138 L 393.424 352.915 L 397.85 352.915 L 397.85 366.636 M 387.699 366.636 L 395.077 366.636 L 395.077 354.803 L 387.699 366.636 " fill="#000000"/>
<path class="atom-14" d="M 362.415 236.716 L 365.248 236.716 L 365.248 245.598 L 375.93 245.598 L 375.93 236.716 L 378.763 236.716 L 378.763 257.608 L 375.93 257.608 L 375.93 247.958 L 365.248 247.958 L 365.248 257.608 L 362.415 257.608 L 362.415 236.716 " fill="#000000"/>
<path class="atom-14" d="M 380.976 254.155 L 383.927 254.155 L 383.927 257.106 L 380.976 257.106 L 380.976 254.155 M 380.976 244.004 L 383.927 244.004 L 383.927 246.955 L 380.976 246.955 L 380.976 244.004 " fill="#000000"/>
<path class="atom-14" d="M 386.672 255.247 L 391.245 255.247 L 391.245 239.637 L 386.199 241.201 L 385.521 239.46 L 391.924 236.598 L 394.019 236.952 L 394.019 255.247 L 398.121 255.247 L 398.121 257.608 L 386.672 257.608 L 386.672 255.247 " fill="#000000"/>
<path class="atom-14" d="M 407.062 244.535 Q 408.892 244.535, 410.397 245.332 Q 411.901 246.099, 412.757 247.575 Q 413.613 249.021, 413.613 250.998 Q 413.613 253.152, 412.551 254.716 Q 411.518 256.25, 409.806 257.047 Q 408.095 257.844, 406.147 257.844 Q 404.229 257.844, 402.459 257.136 Q 400.688 256.427, 399.478 255.07 L 401.249 253.24 Q 402.223 254.303, 403.55 254.893 Q 404.878 255.454, 406.236 255.454 Q 408.095 255.454, 409.364 254.303 Q 410.662 253.152, 410.662 251.057 Q 410.662 248.844, 409.364 247.811 Q 408.095 246.749, 406.059 246.749 Q 404.229 246.749, 402.193 247.545 L 400.57 246.778 L 401.573 236.716 L 412.315 236.716 L 412.019 239.076 L 403.993 239.076 L 403.373 245.273 Q 405.232 244.535, 407.062 244.535 " fill="#000000"/>
<path class="atom-15" d="M 22.7273 255.643 L 25.5601 255.643 L 25.5601 264.525 L 36.2423 264.525 L 36.2423 255.643 L 39.0751 255.643 L 39.0751 276.535 L 36.2423 276.535 L 36.2423 266.885 L 25.5601 266.885 L 25.5601 276.535 L 22.7273 276.535 L 22.7273 255.643 " fill="#000000"/>
<path class="atom-15" d="M 41.2882 273.082 L 44.2391 273.082 L 44.2391 276.033 L 41.2882 276.033 L 41.2882 273.082 M 41.2882 262.931 L 44.2391 262.931 L 44.2391 265.882 L 41.2882 265.882 L 41.2882 262.931 " fill="#000000"/>
<path class="atom-15" d="M 46.9834 274.174 L 51.5573 274.174 L 51.5573 258.564 L 46.5113 260.128 L 45.8326 258.387 L 52.236 255.524 L 54.3311 255.879 L 54.3311 274.174 L 58.4328 274.174 L 58.4328 276.535 L 46.9834 276.535 L 46.9834 274.174 " fill="#000000"/>
<path class="atom-15" d="M 68.6133 263.492 Q 70.4428 263.492, 71.8888 264.289 Q 73.3347 265.085, 74.1314 266.531 Q 74.9282 267.977, 74.9282 269.807 Q 74.9282 271.843, 74.0134 273.436 Q 73.1281 275, 71.5347 275.885 Q 69.9412 276.771, 67.9051 276.771 Q 64.187 276.771, 62.2984 274.263 Q 60.4394 271.725, 60.4394 266.708 Q 60.4394 261.161, 62.7411 258.298 Q 65.0723 255.406, 69.5281 255.406 Q 70.8265 255.406, 71.9183 255.702 Q 73.0396 255.997, 74.1019 256.616 L 72.9511 258.593 Q 71.4166 257.767, 69.5576 257.767 Q 66.6067 257.767, 65.1018 259.685 Q 63.5968 261.574, 63.4198 265.498 Q 64.4821 264.525, 65.81 264.023 Q 67.1674 263.492, 68.6133 263.492 M 67.9346 274.351 Q 69.0559 274.351, 69.9707 273.761 Q 70.915 273.171, 71.4461 272.138 Q 71.9773 271.105, 71.9773 269.836 Q 71.9773 267.977, 70.9445 266.915 Q 69.9117 265.853, 68.0821 265.853 Q 66.8133 265.853, 65.5444 266.384 Q 64.305 266.885, 63.4198 267.771 Q 63.5378 271.223, 64.6296 272.787 Q 65.7214 274.351, 67.9346 274.351 " fill="#000000"/>
<path class="atom-16" d="M 427.167 285.333 L 430 285.333 L 430 294.215 L 440.682 294.215 L 440.682 285.333 L 443.515 285.333 L 443.515 306.225 L 440.682 306.225 L 440.682 296.576 L 430 296.576 L 430 306.225 L 427.167 306.225 L 427.167 285.333 " fill="#000000"/>
<path class="atom-16" d="M 445.728 302.773 L 448.679 302.773 L 448.679 305.724 L 445.728 305.724 L 445.728 302.773 M 445.728 292.622 L 448.679 292.622 L 448.679 295.573 L 445.728 295.573 L 445.728 292.622 " fill="#000000"/>
<path class="atom-16" d="M 451.423 303.864 L 455.997 303.864 L 455.997 288.254 L 450.951 289.818 L 450.272 288.077 L 456.676 285.215 L 458.771 285.569 L 458.771 303.864 L 462.872 303.864 L 462.872 306.225 L 451.423 306.225 L 451.423 303.864 " fill="#000000"/>
<path class="atom-16" d="M 474.351 287.694 L 463.404 287.694 L 463.404 285.333 L 477.273 285.333 L 477.273 287.428 L 468.833 306.225 L 466 306.225 L 474.351 287.694 " fill="#000000"/>
<text x="291.25298077110597" y="247.05455776106083" font-size="12" font-family="Verdana" font-weight="bold" letter-spacing="0" text-anchor="start" fill="black" transform=" rotate(4.626093 291.252981 247.054558)">0.9355</text><text x="25" y="490" font-size="12" font-family="Verdana" font-weight="bold" letter-spacing="0" text-anchor="start" fill="black">[H:1]-[#6:2](-[#7+:3](-[#6:4](-[#6:5](-[H:12])(-[H:13])-[H:16])(-[H:6])-[H:7])(-[#6:10](-[H:14])(-[H:15])-[H:17])-[H:11])(-[H:8])-[H:9]</text></svg>
