<?xml version='1.0' encoding='ASCII' standalone='yes'?>
<svg xmlns="http://www.w3.org/2000/svg" xmlns:rdkit="http://www.rdkit.org/xml" xmlns:xlink="http://www.w3.org/1999/xlink" version="1.1" baseProfile="full" xml:space="preserve" width="500px" height="500px" viewBox="0 0 500 500">
<!-- END OF HEADER -->
<rect style="opacity:1.0;fill:#FFFFFF;stroke:none" width="500.0" height="500.0" x="0.0" y="0.0"> </rect>
<path class="bond-1 atom-1 atom-2" d="M 345.9,290.6 L 392.0,248.6" style="fill:none;fill-rule:evenodd;stroke:#FF7F7F;stroke-width:13.3px;stroke-linecap:butt;stroke-linejoin:miter;stroke-opacity:1"/>
<path class="bond-0 atom-1 atom-0" d="M 328.0,284.9 L 315.7,280.9" style="fill:none;fill-rule:evenodd;stroke:#0000FF;stroke-width:2.0px;stroke-linecap:butt;stroke-linejoin:miter;stroke-opacity:1"/>
<path class="bond-0 atom-1 atom-0" d="M 315.7,280.9 L 303.3,277.0" style="fill:none;fill-rule:evenodd;stroke:#000000;stroke-width:2.0px;stroke-linecap:butt;stroke-linejoin:miter;stroke-opacity:1"/>
<path class="bond-1 atom-1 atom-2" d="M 357.9,279.6 L 368.8,269.7" style="fill:none;fill-rule:evenodd;stroke:#0000FF;stroke-width:2.0px;stroke-linecap:butt;stroke-linejoin:miter;stroke-opacity:1"/>
<path class="bond-1 atom-1 atom-2" d="M 368.8,269.7 L 379.7,259.7" style="fill:none;fill-rule:evenodd;stroke:#000000;stroke-width:2.0px;stroke-linecap:butt;stroke-linejoin:miter;stroke-opacity:1"/>
<path class="bond-2 atom-1 atom-4" d="M 348.9,304.3 L 352.9,322.4" style="fill:none;fill-rule:evenodd;stroke:#0000FF;stroke-width:2.0px;stroke-linecap:butt;stroke-linejoin:miter;stroke-opacity:1"/>
<path class="bond-2 atom-1 atom-4" d="M 352.9,322.4 L 356.8,340.5" style="fill:none;fill-rule:evenodd;stroke:#000000;stroke-width:2.0px;stroke-linecap:butt;stroke-linejoin:miter;stroke-opacity:1"/>
<path class="bond-3 atom-2 atom-3" d="M 389.6,237.7 L 381.0,198.6" style="fill:none;fill-rule:evenodd;stroke:#000000;stroke-width:2.0px;stroke-linecap:butt;stroke-linejoin:miter;stroke-opacity:1"/>
<path class="bond-4 atom-2 atom-5" d="M 411.3,248.2 L 427.2,253.3" style="fill:none;fill-rule:evenodd;stroke:#000000;stroke-width:2.0px;stroke-linecap:butt;stroke-linejoin:miter;stroke-opacity:1"/>
<path class="bond-4 atom-2 atom-5" d="M 427.2,253.3 L 443.1,258.3" style="fill:none;fill-rule:evenodd;stroke:#FF0000;stroke-width:2.0px;stroke-linecap:butt;stroke-linejoin:miter;stroke-opacity:1"/>
<path class="bond-4 atom-2 atom-5" d="M 407.5,260.1 L 423.4,265.1" style="fill:none;fill-rule:evenodd;stroke:#000000;stroke-width:2.0px;stroke-linecap:butt;stroke-linejoin:miter;stroke-opacity:1"/>
<path class="bond-4 atom-2 atom-5" d="M 423.4,265.1 L 439.3,270.2" style="fill:none;fill-rule:evenodd;stroke:#FF0000;stroke-width:2.0px;stroke-linecap:butt;stroke-linejoin:miter;stroke-opacity:1"/>
<path class="bond-5 atom-3 atom-15" d="M 387.4,185.8 L 430.6,176.4" style="fill:none;fill-rule:evenodd;stroke:#000000;stroke-width:2.0px;stroke-linecap:butt;stroke-linejoin:miter;stroke-opacity:1"/>
<path class="bond-6 atom-3 atom-16" d="M 350.9,190.3 L 345.8,190.8" style="fill:none;fill-rule:evenodd;stroke:#000000;stroke-width:2.0px;stroke-linecap:butt;stroke-linejoin:miter;stroke-opacity:1"/>
<path class="bond-7 atom-4 atom-11" d="M 376.7,347.6 L 411.2,340.1" style="fill:none;fill-rule:evenodd;stroke:#000000;stroke-width:2.0px;stroke-linecap:butt;stroke-linejoin:miter;stroke-opacity:1"/>
<path class="bond-8 atom-4 atom-12" d="M 341.7,355.2 L 306.3,363.0" style="fill:none;fill-rule:evenodd;stroke:#000000;stroke-width:2.0px;stroke-linecap:butt;stroke-linejoin:miter;stroke-opacity:1"/>
<path class="bond-9 atom-4 atom-13" d="M 362.2,365.3 L 370.2,401.5" style="fill:none;fill-rule:evenodd;stroke:#000000;stroke-width:2.0px;stroke-linecap:butt;stroke-linejoin:miter;stroke-opacity:1"/>
<path class="bond-10 atom-6 atom-0" d="M 275.6,221.9 L 284.1,260.7" style="fill:none;fill-rule:evenodd;stroke:#000000;stroke-width:2.0px;stroke-linecap:butt;stroke-linejoin:miter;stroke-opacity:1"/>
<path class="bond-10 atom-6 atom-0" d="M 264.7,230.4 L 270.7,257.6" style="fill:none;fill-rule:evenodd;stroke:#000000;stroke-width:2.0px;stroke-linecap:butt;stroke-linejoin:miter;stroke-opacity:1"/>
<path class="bond-11 atom-6 atom-17" d="M 282.0,200.5 L 290.9,190.1" style="fill:none;fill-rule:evenodd;stroke:#000000;stroke-width:2.0px;stroke-linecap:butt;stroke-linejoin:miter;stroke-opacity:1"/>
<path class="bond-12 atom-7 atom-8" d="M 179.8,222.9 L 201.6,203.0" style="fill:none;fill-rule:evenodd;stroke:#000000;stroke-width:2.0px;stroke-linecap:butt;stroke-linejoin:miter;stroke-opacity:1"/>
<path class="bond-12 atom-7 atom-8" d="M 191.4,229.1 L 206.7,215.2" style="fill:none;fill-rule:evenodd;stroke:#000000;stroke-width:2.0px;stroke-linecap:butt;stroke-linejoin:miter;stroke-opacity:1"/>
<path class="bond-13 atom-7 atom-9" d="M 170.8,247.8 L 178.7,283.9" style="fill:none;fill-rule:evenodd;stroke:#000000;stroke-width:2.0px;stroke-linecap:butt;stroke-linejoin:miter;stroke-opacity:1"/>
<path class="bond-14 atom-8 atom-6" d="M 231.4,197.5 L 264.4,208.0" style="fill:none;fill-rule:evenodd;stroke:#000000;stroke-width:2.0px;stroke-linecap:butt;stroke-linejoin:miter;stroke-opacity:1"/>
<path class="bond-15 atom-8 atom-18" d="M 211.4,180.9 L 202.9,141.9" style="fill:none;fill-rule:evenodd;stroke:#000000;stroke-width:2.0px;stroke-linecap:butt;stroke-linejoin:miter;stroke-opacity:1"/>
<path class="bond-16 atom-9 atom-10" d="M 204.9,302.3 L 217.8,306.4" style="fill:none;fill-rule:evenodd;stroke:#000000;stroke-width:2.0px;stroke-linecap:butt;stroke-linejoin:miter;stroke-opacity:1"/>
<path class="bond-16 atom-9 atom-10" d="M 210.6,291.0 L 219.6,293.9" style="fill:none;fill-rule:evenodd;stroke:#000000;stroke-width:2.0px;stroke-linecap:butt;stroke-linejoin:miter;stroke-opacity:1"/>
<path class="bond-17 atom-9 atom-19" d="M 168.8,305.9 L 143.5,329.0" style="fill:none;fill-rule:evenodd;stroke:#000000;stroke-width:2.0px;stroke-linecap:butt;stroke-linejoin:miter;stroke-opacity:1"/>
<path class="bond-18 atom-10 atom-0" d="M 252.3,302.8 L 274.3,282.8" style="fill:none;fill-rule:evenodd;stroke:#000000;stroke-width:2.0px;stroke-linecap:butt;stroke-linejoin:miter;stroke-opacity:1"/>
<path class="bond-19 atom-10 atom-20" d="M 242.8,324.5 L 251.4,363.8" style="fill:none;fill-rule:evenodd;stroke:#000000;stroke-width:2.0px;stroke-linecap:butt;stroke-linejoin:miter;stroke-opacity:1"/>
<path class="bond-20 atom-14 atom-3" d="M 367.7,137.7 L 372.0,157.4" style="fill:none;fill-rule:evenodd;stroke:#0000FF;stroke-width:2.0px;stroke-linecap:butt;stroke-linejoin:miter;stroke-opacity:1"/>
<path class="bond-20 atom-14 atom-3" d="M 372.0,157.4 L 376.3,177.0" style="fill:none;fill-rule:evenodd;stroke:#000000;stroke-width:2.0px;stroke-linecap:butt;stroke-linejoin:miter;stroke-opacity:1"/>
<path class="bond-21 atom-14 atom-23" d="M 377.2,116.1 L 389.8,104.5" style="fill:none;fill-rule:evenodd;stroke:#0000FF;stroke-width:2.0px;stroke-linecap:butt;stroke-linejoin:miter;stroke-opacity:1"/>
<path class="bond-21 atom-14 atom-23" d="M 389.8,104.5 L 402.5,93.0" style="fill:none;fill-rule:evenodd;stroke:#000000;stroke-width:2.0px;stroke-linecap:butt;stroke-linejoin:miter;stroke-opacity:1"/>
<path class="bond-22 atom-14 atom-24" d="M 341.6,119.3 L 327.8,114.9" style="fill:none;fill-rule:evenodd;stroke:#0000FF;stroke-width:2.0px;stroke-linecap:butt;stroke-linejoin:miter;stroke-opacity:1"/>
<path class="bond-22 atom-14 atom-24" d="M 327.8,114.9 L 313.9,110.5" style="fill:none;fill-rule:evenodd;stroke:#000000;stroke-width:2.0px;stroke-linecap:butt;stroke-linejoin:miter;stroke-opacity:1"/>
<path class="bond-23 atom-21 atom-7" d="M 132.9,222.7 L 141.5,225.5" style="fill:none;fill-rule:evenodd;stroke:#0000FF;stroke-width:2.0px;stroke-linecap:butt;stroke-linejoin:miter;stroke-opacity:1"/>
<path class="bond-23 atom-21 atom-7" d="M 141.5,225.5 L 150.1,228.2" style="fill:none;fill-rule:evenodd;stroke:#000000;stroke-width:2.0px;stroke-linecap:butt;stroke-linejoin:miter;stroke-opacity:1"/>
<path class="bond-24 atom-21 atom-22" d="M 96.4,225.8 L 83.3,237.7" style="fill:none;fill-rule:evenodd;stroke:#0000FF;stroke-width:2.0px;stroke-linecap:butt;stroke-linejoin:miter;stroke-opacity:1"/>
<path class="bond-24 atom-21 atom-22" d="M 83.3,237.7 L 70.3,249.7" style="fill:none;fill-rule:evenodd;stroke:#000000;stroke-width:2.0px;stroke-linecap:butt;stroke-linejoin:miter;stroke-opacity:1"/>
<path class="bond-25 atom-21 atom-25" d="M 106.0,204.0 L 101.7,184.5" style="fill:none;fill-rule:evenodd;stroke:#0000FF;stroke-width:2.0px;stroke-linecap:butt;stroke-linejoin:miter;stroke-opacity:1"/>
<path class="bond-25 atom-21 atom-25" d="M 101.7,184.5 L 97.5,165.0" style="fill:none;fill-rule:evenodd;stroke:#000000;stroke-width:2.0px;stroke-linecap:butt;stroke-linejoin:miter;stroke-opacity:1"/>
<path class="atom-0" d="M 271.7 271.7 Q 271.7 267.3, 273.8 265.0 Q 275.8 262.7, 279.7 262.7 Q 283.4 262.7, 285.3 265.3 L 283.7 266.6 Q 282.3 264.8, 279.7 264.8 Q 277.1 264.8, 275.6 266.6 Q 274.3 268.3, 274.3 271.7 Q 274.3 275.2, 275.7 277.0 Q 277.2 278.8, 280.0 278.8 Q 282.0 278.8, 284.2 277.6 L 284.9 279.5 Q 284.0 280.1, 282.6 280.4 Q 281.2 280.8, 279.7 280.8 Q 275.8 280.8, 273.8 278.5 Q 271.7 276.1, 271.7 271.7 " fill="#000000"/>
<path class="atom-0" d="M 286.3 277.7 L 288.8 277.7 L 288.8 280.1 L 286.3 280.1 L 286.3 277.7 M 286.3 269.1 L 288.8 269.1 L 288.8 271.6 L 286.3 271.6 L 286.3 269.1 " fill="#000000"/>
<path class="atom-0" d="M 291.7 278.6 L 295.5 278.6 L 295.5 265.4 L 291.3 266.7 L 290.7 265.2 L 296.1 262.8 L 297.9 263.1 L 297.9 278.6 L 301.3 278.6 L 301.3 280.6 L 291.7 280.6 L 291.7 278.6 " fill="#000000"/>
<path class="atom-1" d="M 332.8 281.8 L 338.6 291.2 Q 339.2 292.1, 340.1 293.8 Q 341.0 295.4, 341.1 295.5 L 341.1 281.8 L 343.4 281.8 L 343.4 299.5 L 341.0 299.5 L 334.8 289.3 Q 334.1 288.1, 333.3 286.7 Q 332.6 285.3, 332.3 284.9 L 332.3 299.5 L 330.0 299.5 L 330.0 281.8 L 332.8 281.8 " fill="#0000FF"/>
<path class="atom-1" d="M 345.5 296.6 L 348.0 296.6 L 348.0 299.1 L 345.5 299.1 L 345.5 296.6 M 345.5 288.0 L 348.0 288.0 L 348.0 290.5 L 345.5 290.5 L 345.5 288.0 " fill="#0000FF"/>
<path class="atom-1" d="M 349.9 285.2 Q 350.6 283.5, 352.1 282.6 Q 353.6 281.6, 355.8 281.6 Q 358.5 281.6, 359.9 283.1 Q 361.4 284.5, 361.4 287.1 Q 361.4 289.7, 359.5 292.2 Q 357.6 294.6, 353.6 297.5 L 361.7 297.5 L 361.7 299.5 L 349.9 299.5 L 349.9 297.8 Q 353.1 295.5, 355.1 293.7 Q 357.1 292.0, 358.0 290.4 Q 359.0 288.8, 359.0 287.2 Q 359.0 285.5, 358.1 284.6 Q 357.3 283.6, 355.8 283.6 Q 354.4 283.6, 353.4 284.2 Q 352.5 284.8, 351.8 286.0 L 349.9 285.2 " fill="#0000FF"/>
<path class="atom-2" d="M 376.5 248.7 Q 376.5 244.3, 378.6 242.0 Q 380.6 239.7, 384.6 239.7 Q 388.2 239.7, 390.1 242.2 L 388.5 243.6 Q 387.1 241.7, 384.6 241.7 Q 381.9 241.7, 380.5 243.5 Q 379.1 245.3, 379.1 248.7 Q 379.1 252.2, 380.5 254.0 Q 382.0 255.7, 384.8 255.7 Q 386.8 255.7, 389.0 254.6 L 389.7 256.4 Q 388.8 257.0, 387.4 257.4 Q 386.0 257.7, 384.5 257.7 Q 380.6 257.7, 378.6 255.4 Q 376.5 253.1, 376.5 248.7 " fill="#000000"/>
<path class="atom-2" d="M 391.1 254.6 L 393.6 254.6 L 393.6 257.1 L 391.1 257.1 L 391.1 254.6 M 391.1 246.0 L 393.6 246.0 L 393.6 248.5 L 391.1 248.5 L 391.1 246.0 " fill="#000000"/>
<path class="atom-2" d="M 404.0 248.2 Q 405.7 248.7, 406.5 249.8 Q 407.4 250.9, 407.4 252.7 Q 407.4 254.2, 406.6 255.3 Q 405.9 256.5, 404.5 257.1 Q 403.1 257.8, 401.3 257.8 Q 399.4 257.8, 398.0 257.1 Q 396.6 256.4, 395.5 255.1 L 396.9 253.7 Q 398.0 254.8, 398.9 255.3 Q 399.9 255.8, 401.3 255.8 Q 402.9 255.8, 403.9 254.9 Q 404.9 254.1, 404.9 252.7 Q 404.9 250.9, 403.9 250.1 Q 402.9 249.2, 400.7 249.2 L 399.4 249.2 L 399.4 247.4 L 400.5 247.4 Q 402.5 247.4, 403.5 246.6 Q 404.5 245.8, 404.5 244.2 Q 404.5 243.0, 403.7 242.4 Q 402.8 241.7, 401.4 241.7 Q 399.9 241.7, 399.0 242.2 Q 398.1 242.7, 397.4 244.0 L 395.7 243.1 Q 396.3 241.6, 397.8 240.7 Q 399.3 239.7, 401.4 239.7 Q 404.0 239.7, 405.5 240.9 Q 407.0 242.1, 407.0 244.2 Q 407.0 245.6, 406.2 246.6 Q 405.4 247.6, 404.0 248.2 " fill="#000000"/>
<path class="atom-3" d="M 352.9 187.8 Q 352.9 183.4, 354.9 181.1 Q 357.0 178.8, 360.9 178.8 Q 364.5 178.8, 366.5 181.4 L 364.8 182.7 Q 363.4 180.8, 360.9 180.8 Q 358.2 180.8, 356.8 182.6 Q 355.4 184.4, 355.4 187.8 Q 355.4 191.3, 356.9 193.1 Q 358.3 194.9, 361.2 194.9 Q 363.1 194.9, 365.4 193.7 L 366.1 195.6 Q 365.2 196.2, 363.8 196.5 Q 362.4 196.9, 360.8 196.9 Q 357.0 196.9, 354.9 194.5 Q 352.9 192.2, 352.9 187.8 " fill="#000000"/>
<path class="atom-3" d="M 367.5 193.7 L 370.0 193.7 L 370.0 196.2 L 367.5 196.2 L 367.5 193.7 M 367.5 185.2 L 370.0 185.2 L 370.0 187.6 L 367.5 187.6 L 367.5 185.2 " fill="#000000"/>
<path class="atom-3" d="M 383.3 190.6 L 385.4 190.6 L 385.4 192.6 L 383.3 192.6 L 383.3 196.6 L 381.0 196.6 L 381.0 192.6 L 371.8 192.6 L 371.8 191.0 L 379.6 179.0 L 383.3 179.0 L 383.3 190.6 M 374.7 190.6 L 381.0 190.6 L 381.0 180.6 L 374.7 190.6 " fill="#000000"/>
<path class="atom-4" d="M 343.7 351.5 Q 343.7 347.1, 345.8 344.8 Q 347.9 342.5, 351.8 342.5 Q 355.4 342.5, 357.4 345.1 L 355.7 346.4 Q 354.3 344.6, 351.8 344.6 Q 349.1 344.6, 347.7 346.3 Q 346.3 348.1, 346.3 351.5 Q 346.3 355.0, 347.7 356.8 Q 349.2 358.6, 352.0 358.6 Q 354.0 358.6, 356.3 357.4 L 357.0 359.3 Q 356.0 359.9, 354.6 360.2 Q 353.2 360.6, 351.7 360.6 Q 347.9 360.6, 345.8 358.2 Q 343.7 355.9, 343.7 351.5 " fill="#000000"/>
<path class="atom-4" d="M 358.4 357.4 L 360.8 357.4 L 360.8 359.9 L 358.4 359.9 L 358.4 357.4 M 358.4 348.9 L 360.8 348.9 L 360.8 351.4 L 358.4 351.4 L 358.4 348.9 " fill="#000000"/>
<path class="atom-4" d="M 369.1 349.3 Q 370.7 349.3, 371.9 350.0 Q 373.2 350.6, 373.9 351.9 Q 374.7 353.1, 374.7 354.8 Q 374.7 356.6, 373.8 357.9 Q 372.9 359.2, 371.4 359.9 Q 370.0 360.6, 368.3 360.6 Q 366.7 360.6, 365.2 360.0 Q 363.7 359.4, 362.7 358.2 L 364.2 356.7 Q 365.0 357.6, 366.2 358.1 Q 367.3 358.5, 368.4 358.5 Q 370.0 358.5, 371.1 357.6 Q 372.2 356.6, 372.2 354.8 Q 372.2 353.0, 371.1 352.1 Q 370.0 351.2, 368.3 351.2 Q 366.7 351.2, 365.0 351.9 L 363.6 351.2 L 364.5 342.7 L 373.6 342.7 L 373.3 344.7 L 366.5 344.7 L 366.0 349.9 Q 367.6 349.3, 369.1 349.3 " fill="#000000"/>
<path class="atom-5" d="M 443.2 267.6 Q 443.2 263.3, 445.3 260.9 Q 447.4 258.6, 451.3 258.6 Q 455.2 258.6, 457.3 260.9 Q 459.4 263.3, 459.4 267.6 Q 459.4 271.8, 457.3 274.3 Q 455.2 276.7, 451.3 276.7 Q 447.4 276.7, 445.3 274.3 Q 443.2 271.9, 443.2 267.6 M 451.3 274.7 Q 454.0 274.7, 455.5 272.9 Q 456.9 271.1, 456.9 267.6 Q 456.9 264.1, 455.5 262.3 Q 454.0 260.6, 451.3 260.6 Q 448.6 260.6, 447.2 262.3 Q 445.7 264.1, 445.7 267.6 Q 445.7 271.1, 447.2 272.9 Q 448.6 274.7, 451.3 274.7 " fill="#FF0000"/>
<path class="atom-5" d="M 460.7 273.5 L 463.2 273.5 L 463.2 276.0 L 460.7 276.0 L 460.7 273.5 M 460.7 264.9 L 463.2 264.9 L 463.2 267.4 L 460.7 267.4 L 460.7 264.9 " fill="#FF0000"/>
<path class="atom-5" d="M 471.9 265.4 Q 473.5 265.4, 474.7 266.1 Q 475.9 266.8, 476.6 268.0 Q 477.3 269.2, 477.3 270.7 Q 477.3 272.5, 476.5 273.8 Q 475.8 275.1, 474.4 275.9 Q 473.1 276.6, 471.3 276.6 Q 468.2 276.6, 466.6 274.5 Q 465.0 272.4, 465.0 268.1 Q 465.0 263.4, 467.0 261.0 Q 468.9 258.6, 472.7 258.6 Q 473.8 258.6, 474.7 258.8 Q 475.7 259.1, 476.6 259.6 L 475.6 261.3 Q 474.3 260.6, 472.7 260.6 Q 470.2 260.6, 469.0 262.2 Q 467.7 263.8, 467.6 267.1 Q 468.4 266.3, 469.6 265.9 Q 470.7 265.4, 471.9 265.4 M 471.4 274.6 Q 472.3 274.6, 473.1 274.1 Q 473.9 273.6, 474.3 272.7 Q 474.8 271.8, 474.8 270.8 Q 474.8 269.2, 473.9 268.3 Q 473.0 267.4, 471.5 267.4 Q 470.4 267.4, 469.3 267.9 Q 468.3 268.3, 467.6 269.0 Q 467.7 271.9, 468.6 273.3 Q 469.5 274.6, 471.4 274.6 " fill="#FF0000"/>
<path class="atom-6" d="M 266.4 210.8 Q 266.4 206.5, 268.4 204.2 Q 270.5 201.8, 274.4 201.8 Q 278.1 201.8, 280.0 204.4 L 278.4 205.8 Q 276.9 203.9, 274.4 203.9 Q 271.8 203.9, 270.3 205.7 Q 268.9 207.5, 268.9 210.8 Q 268.9 214.3, 270.4 216.1 Q 271.9 217.9, 274.7 217.9 Q 276.6 217.9, 278.9 216.8 L 279.6 218.6 Q 278.7 219.2, 277.3 219.6 Q 275.9 219.9, 274.4 219.9 Q 270.5 219.9, 268.4 217.6 Q 266.4 215.2, 266.4 210.8 " fill="#000000"/>
<path class="atom-6" d="M 281.0 216.8 L 283.5 216.8 L 283.5 219.3 L 281.0 219.3 L 281.0 216.8 M 281.0 208.2 L 283.5 208.2 L 283.5 210.7 L 281.0 210.7 L 281.0 208.2 " fill="#000000"/>
<path class="atom-6" d="M 294.6 204.0 L 285.4 204.0 L 285.4 202.0 L 297.1 202.0 L 297.1 203.8 L 290.0 219.7 L 287.6 219.7 L 294.6 204.0 " fill="#000000"/>
<path class="atom-7" d="M 152.1 233.9 Q 152.1 229.5, 154.1 227.2 Q 156.2 224.9, 160.1 224.9 Q 163.7 224.9, 165.7 227.5 L 164.0 228.8 Q 162.6 226.9, 160.1 226.9 Q 157.4 226.9, 156.0 228.7 Q 154.6 230.5, 154.6 233.9 Q 154.6 237.4, 156.0 239.2 Q 157.5 241.0, 160.4 241.0 Q 162.3 241.0, 164.6 239.8 L 165.3 241.7 Q 164.3 242.3, 162.9 242.6 Q 161.6 243.0, 160.0 243.0 Q 156.2 243.0, 154.1 240.6 Q 152.1 238.3, 152.1 233.9 " fill="#000000"/>
<path class="atom-7" d="M 166.7 239.8 L 169.2 239.8 L 169.2 242.3 L 166.7 242.3 L 166.7 239.8 M 166.7 231.3 L 169.2 231.3 L 169.2 233.8 L 166.7 233.8 L 166.7 231.3 " fill="#000000"/>
<path class="atom-7" d="M 180.0 233.4 Q 181.6 234.1, 182.6 235.1 Q 183.5 236.2, 183.5 237.9 Q 183.5 239.4, 182.7 240.6 Q 181.9 241.7, 180.5 242.4 Q 179.2 243.0, 177.4 243.0 Q 174.4 243.0, 172.7 241.7 Q 171.0 240.3, 171.0 237.9 Q 171.0 236.5, 171.8 235.4 Q 172.5 234.3, 174.1 233.5 Q 172.9 232.8, 172.3 231.9 Q 171.7 230.9, 171.7 229.4 Q 171.7 227.3, 173.2 226.1 Q 174.7 224.9, 177.3 224.9 Q 179.8 224.9, 181.3 226.1 Q 182.8 227.3, 182.8 229.4 Q 182.8 230.7, 182.1 231.7 Q 181.4 232.6, 180.0 233.4 M 177.3 226.8 Q 175.8 226.8, 175.0 227.5 Q 174.2 228.2, 174.2 229.4 Q 174.2 230.3, 174.7 231.0 Q 175.3 231.6, 176.0 231.9 Q 176.8 232.3, 178.3 232.8 Q 179.4 232.0, 179.9 231.2 Q 180.3 230.4, 180.3 229.4 Q 180.3 228.2, 179.5 227.5 Q 178.7 226.8, 177.3 226.8 M 177.4 241.1 Q 179.0 241.1, 180.0 240.3 Q 181.0 239.4, 181.0 237.9 Q 181.0 236.9, 180.5 236.3 Q 179.9 235.7, 179.1 235.4 Q 178.4 235.0, 177.0 234.6 L 175.9 234.2 Q 174.6 235.0, 174.1 235.9 Q 173.5 236.7, 173.5 237.9 Q 173.5 239.4, 174.6 240.3 Q 175.6 241.1, 177.4 241.1 " fill="#000000"/>
<path class="atom-8" d="M 198.2 191.9 Q 198.2 187.6, 200.3 185.3 Q 202.3 182.9, 206.3 182.9 Q 209.9 182.9, 211.8 185.5 L 210.2 186.9 Q 208.8 185.0, 206.3 185.0 Q 203.6 185.0, 202.2 186.8 Q 200.8 188.5, 200.8 191.9 Q 200.8 195.4, 202.2 197.2 Q 203.7 199.0, 206.5 199.0 Q 208.5 199.0, 210.7 197.8 L 211.4 199.7 Q 210.5 200.3, 209.1 200.7 Q 207.7 201.0, 206.2 201.0 Q 202.3 201.0, 200.3 198.7 Q 198.2 196.3, 198.2 191.9 " fill="#000000"/>
<path class="atom-8" d="M 212.8 197.9 L 215.3 197.9 L 215.3 200.4 L 212.8 200.4 L 212.8 197.9 M 212.8 189.3 L 215.3 189.3 L 215.3 191.8 L 212.8 191.8 L 212.8 189.3 " fill="#000000"/>
<path class="atom-8" d="M 223.1 182.9 Q 226.3 182.9, 227.8 185.1 Q 229.4 187.2, 229.4 191.4 Q 229.4 196.1, 227.5 198.6 Q 225.5 201.0, 221.8 201.0 Q 220.7 201.0, 219.7 200.7 Q 218.8 200.5, 217.9 200.0 L 218.9 198.3 Q 220.2 199.0, 221.7 199.0 Q 224.2 199.0, 225.5 197.4 Q 226.8 195.8, 226.9 192.5 Q 226.0 193.3, 224.9 193.7 Q 223.8 194.2, 222.5 194.2 Q 221.0 194.2, 219.8 193.5 Q 218.5 192.8, 217.9 191.6 Q 217.2 190.4, 217.2 188.8 Q 217.2 187.1, 217.9 185.8 Q 218.7 184.4, 220.1 183.7 Q 221.4 182.9, 223.1 182.9 M 219.7 188.8 Q 219.7 190.4, 220.6 191.3 Q 221.4 192.2, 223.0 192.2 Q 224.1 192.2, 225.1 191.7 Q 226.2 191.3, 226.9 190.5 Q 226.8 187.6, 225.9 186.3 Q 225.0 185.0, 223.1 185.0 Q 222.2 185.0, 221.4 185.5 Q 220.6 186.0, 220.1 186.9 Q 219.7 187.7, 219.7 188.8 " fill="#000000"/>
<path class="atom-9" d="M 159.3 294.8 Q 159.3 290.4, 161.3 288.1 Q 163.4 285.8, 167.3 285.8 Q 171.0 285.8, 172.9 288.3 L 171.3 289.7 Q 169.8 287.8, 167.3 287.8 Q 164.7 287.8, 163.2 289.6 Q 161.8 291.4, 161.8 294.8 Q 161.8 298.3, 163.3 300.1 Q 164.8 301.9, 167.6 301.9 Q 169.5 301.9, 171.8 300.7 L 172.5 302.6 Q 171.6 303.2, 170.2 303.5 Q 168.8 303.8, 167.2 303.8 Q 163.4 303.8, 161.3 301.5 Q 159.3 299.2, 159.3 294.8 " fill="#000000"/>
<path class="atom-9" d="M 173.9 300.7 L 176.4 300.7 L 176.4 303.2 L 173.9 303.2 L 173.9 300.7 M 173.9 292.1 L 176.4 292.1 L 176.4 294.6 L 173.9 294.6 L 173.9 292.1 " fill="#000000"/>
<path class="atom-9" d="M 179.2 301.6 L 183.1 301.6 L 183.1 288.4 L 178.8 289.8 L 178.3 288.3 L 183.7 285.9 L 185.4 286.2 L 185.4 301.6 L 188.9 301.6 L 188.9 303.6 L 179.2 303.6 L 179.2 301.6 " fill="#000000"/>
<path class="atom-9" d="M 196.4 303.8 Q 193.2 303.8, 191.5 301.4 Q 190.0 299.0, 190.0 294.8 Q 190.0 290.5, 191.5 288.1 Q 193.1 285.8, 196.4 285.8 Q 199.7 285.8, 201.3 288.1 Q 202.9 290.5, 202.9 294.8 Q 202.9 299.0, 201.2 301.4 Q 199.6 303.8, 196.4 303.8 M 196.4 301.8 Q 198.3 301.8, 199.3 300.1 Q 200.4 298.3, 200.4 294.8 Q 200.4 291.3, 199.3 289.5 Q 198.3 287.8, 196.4 287.8 Q 194.5 287.8, 193.5 289.5 Q 192.4 291.3, 192.4 294.8 Q 192.4 298.3, 193.5 300.1 Q 194.5 301.8, 196.4 301.8 " fill="#000000"/>
<path class="atom-10" d="M 219.8 313.7 Q 219.8 309.3, 221.8 307.0 Q 223.9 304.7, 227.8 304.7 Q 231.5 304.7, 233.4 307.3 L 231.8 308.6 Q 230.3 306.7, 227.8 306.7 Q 225.2 306.7, 223.7 308.5 Q 222.3 310.3, 222.3 313.7 Q 222.3 317.2, 223.8 319.0 Q 225.3 320.8, 228.1 320.8 Q 230.0 320.8, 232.3 319.6 L 233.0 321.5 Q 232.1 322.1, 230.7 322.4 Q 229.3 322.8, 227.8 322.8 Q 223.9 322.8, 221.8 320.4 Q 219.8 318.1, 219.8 313.7 " fill="#000000"/>
<path class="atom-10" d="M 234.4 319.6 L 236.9 319.6 L 236.9 322.1 L 234.4 322.1 L 234.4 319.6 M 234.4 311.0 L 236.9 311.0 L 236.9 313.5 L 234.4 313.5 L 234.4 311.0 " fill="#000000"/>
<path class="atom-10" d="M 239.7 320.5 L 243.6 320.5 L 243.6 307.4 L 239.3 308.7 L 238.8 307.2 L 244.2 304.8 L 245.9 305.1 L 245.9 320.5 L 249.4 320.5 L 249.4 322.5 L 239.7 322.5 L 239.7 320.5 " fill="#000000"/>
<path class="atom-10" d="M 251.4 320.5 L 255.3 320.5 L 255.3 307.4 L 251.0 308.7 L 250.5 307.2 L 255.9 304.8 L 257.6 305.1 L 257.6 320.5 L 261.1 320.5 L 261.1 322.5 L 251.4 322.5 L 251.4 320.5 " fill="#000000"/>
<path class="atom-11" d="M 413.2 329.4 L 415.6 329.4 L 415.6 336.9 L 424.6 336.9 L 424.6 329.4 L 427.0 329.4 L 427.0 347.0 L 424.6 347.0 L 424.6 338.9 L 415.6 338.9 L 415.6 347.0 L 413.2 347.0 L 413.2 329.4 " fill="#000000"/>
<path class="atom-11" d="M 429.1 344.1 L 431.6 344.1 L 431.6 346.6 L 429.1 346.6 L 429.1 344.1 M 429.1 335.6 L 431.6 335.6 L 431.6 338.0 L 429.1 338.0 L 429.1 335.6 " fill="#000000"/>
<path class="atom-11" d="M 434.4 345.0 L 438.3 345.0 L 438.3 331.9 L 434.0 333.2 L 433.5 331.7 L 438.9 329.3 L 440.6 329.6 L 440.6 345.0 L 444.1 345.0 L 444.1 347.0 L 434.4 347.0 L 434.4 345.0 " fill="#000000"/>
<path class="atom-11" d="M 445.2 332.7 Q 445.8 331.1, 447.4 330.1 Q 448.9 329.2, 451.1 329.2 Q 453.7 329.2, 455.2 330.6 Q 456.7 332.1, 456.7 334.7 Q 456.7 337.3, 454.8 339.7 Q 452.9 342.2, 448.9 345.0 L 457.0 345.0 L 457.0 347.0 L 445.1 347.0 L 445.1 345.4 Q 448.4 343.0, 450.4 341.3 Q 452.4 339.5, 453.3 338.0 Q 454.2 336.4, 454.2 334.8 Q 454.2 333.1, 453.4 332.1 Q 452.6 331.2, 451.1 331.2 Q 449.7 331.2, 448.7 331.8 Q 447.8 332.3, 447.1 333.6 L 445.2 332.7 " fill="#000000"/>
<path class="atom-12" d="M 260.4 356.0 L 262.8 356.0 L 262.8 363.5 L 271.8 363.5 L 271.8 356.0 L 274.2 356.0 L 274.2 373.7 L 271.8 373.7 L 271.8 365.5 L 262.8 365.5 L 262.8 373.7 L 260.4 373.7 L 260.4 356.0 " fill="#000000"/>
<path class="atom-12" d="M 276.3 370.7 L 278.8 370.7 L 278.8 373.2 L 276.3 373.2 L 276.3 370.7 M 276.3 362.2 L 278.8 362.2 L 278.8 364.7 L 276.3 364.7 L 276.3 362.2 " fill="#000000"/>
<path class="atom-12" d="M 281.7 371.7 L 285.5 371.7 L 285.5 358.5 L 281.3 359.8 L 280.7 358.3 L 286.1 355.9 L 287.9 356.2 L 287.9 371.7 L 291.3 371.7 L 291.3 373.7 L 281.7 373.7 L 281.7 371.7 " fill="#000000"/>
<path class="atom-12" d="M 300.9 364.4 Q 302.6 364.9, 303.4 366.0 Q 304.3 367.1, 304.3 368.8 Q 304.3 370.3, 303.5 371.5 Q 302.8 372.6, 301.4 373.3 Q 300.0 373.9, 298.2 373.9 Q 296.3 373.9, 294.9 373.3 Q 293.5 372.6, 292.4 371.2 L 293.8 369.8 Q 294.9 371.0, 295.8 371.5 Q 296.8 371.9, 298.2 371.9 Q 299.8 371.9, 300.8 371.1 Q 301.8 370.2, 301.8 368.8 Q 301.8 367.0, 300.7 366.2 Q 299.7 365.4, 297.6 365.4 L 296.3 365.4 L 296.3 363.6 L 297.4 363.6 Q 299.3 363.6, 300.4 362.7 Q 301.4 361.9, 301.4 360.3 Q 301.4 359.2, 300.5 358.5 Q 299.7 357.8, 298.3 357.8 Q 296.8 357.8, 295.9 358.3 Q 295.0 358.9, 294.3 360.2 L 292.5 359.3 Q 293.2 357.8, 294.7 356.8 Q 296.2 355.8, 298.3 355.8 Q 300.8 355.8, 302.4 357.0 Q 303.9 358.3, 303.9 360.3 Q 303.9 361.7, 303.1 362.8 Q 302.3 363.8, 300.9 364.4 " fill="#000000"/>
<path class="atom-13" d="M 365.6 403.5 L 368.0 403.5 L 368.0 411.0 L 377.0 411.0 L 377.0 403.5 L 379.4 403.5 L 379.4 421.2 L 377.0 421.2 L 377.0 413.0 L 368.0 413.0 L 368.0 421.2 L 365.6 421.2 L 365.6 403.5 " fill="#000000"/>
<path class="atom-13" d="M 381.5 418.3 L 384.0 418.3 L 384.0 420.8 L 381.5 420.8 L 381.5 418.3 M 381.5 409.7 L 384.0 409.7 L 384.0 412.2 L 381.5 412.2 L 381.5 409.7 " fill="#000000"/>
<path class="atom-13" d="M 386.9 419.2 L 390.7 419.2 L 390.7 406.0 L 386.5 407.3 L 385.9 405.8 L 391.3 403.4 L 393.1 403.7 L 393.1 419.2 L 396.5 419.2 L 396.5 421.2 L 386.9 421.2 L 386.9 419.2 " fill="#000000"/>
<path class="atom-13" d="M 409.1 415.1 L 411.2 415.1 L 411.2 417.1 L 409.1 417.1 L 409.1 421.2 L 406.7 421.2 L 406.7 417.1 L 397.6 417.1 L 397.6 415.5 L 405.3 403.5 L 409.1 403.5 L 409.1 415.1 M 400.5 415.1 L 406.7 415.1 L 406.7 405.1 L 400.5 415.1 " fill="#000000"/>
<path class="atom-14" d="M 346.4 118.1 L 352.2 127.4 Q 352.8 128.3, 353.7 130.0 Q 354.6 131.7, 354.7 131.8 L 354.7 118.1 L 357.0 118.1 L 357.0 135.7 L 354.6 135.7 L 348.4 125.5 Q 347.6 124.3, 346.9 122.9 Q 346.1 121.6, 345.9 121.1 L 345.9 135.7 L 343.6 135.7 L 343.6 118.1 L 346.4 118.1 " fill="#0000FF"/>
<path class="atom-14" d="M 359.1 132.8 L 361.6 132.8 L 361.6 135.3 L 359.1 135.3 L 359.1 132.8 M 359.1 124.2 L 361.6 124.2 L 361.6 126.7 L 359.1 126.7 L 359.1 124.2 " fill="#0000FF"/>
<path class="atom-14" d="M 364.4 133.7 L 368.3 133.7 L 368.3 120.5 L 364.0 121.9 L 363.4 120.4 L 368.8 118.0 L 370.6 118.3 L 370.6 133.7 L 374.1 133.7 L 374.1 135.7 L 364.4 135.7 L 364.4 133.7 " fill="#0000FF"/>
<path class="atom-14" d="M 381.5 124.7 Q 383.1 124.7, 384.3 125.3 Q 385.6 126.0, 386.3 127.2 Q 387.1 128.5, 387.1 130.1 Q 387.1 132.0, 386.2 133.3 Q 385.3 134.6, 383.8 135.2 Q 382.4 135.9, 380.7 135.9 Q 379.1 135.9, 377.6 135.3 Q 376.1 134.7, 375.1 133.6 L 376.6 132.0 Q 377.4 132.9, 378.6 133.4 Q 379.7 133.9, 380.8 133.9 Q 382.4 133.9, 383.5 132.9 Q 384.6 132.0, 384.6 130.2 Q 384.6 128.3, 383.5 127.4 Q 382.4 126.5, 380.7 126.5 Q 379.1 126.5, 377.4 127.2 L 376.0 126.6 L 376.9 118.1 L 386.0 118.1 L 385.7 120.1 L 378.9 120.1 L 378.4 125.3 Q 380.0 124.7, 381.5 124.7 " fill="#0000FF"/>
<path class="atom-15" d="M 432.6 165.7 L 435.0 165.7 L 435.0 173.2 L 444.0 173.2 L 444.0 165.7 L 446.4 165.7 L 446.4 183.3 L 444.0 183.3 L 444.0 175.2 L 435.0 175.2 L 435.0 183.3 L 432.6 183.3 L 432.6 165.7 " fill="#000000"/>
<path class="atom-15" d="M 448.5 180.4 L 451.0 180.4 L 451.0 182.9 L 448.5 182.9 L 448.5 180.4 M 448.5 171.8 L 451.0 171.8 L 451.0 174.3 L 448.5 174.3 L 448.5 171.8 " fill="#000000"/>
<path class="atom-15" d="M 453.9 181.3 L 457.7 181.3 L 457.7 168.2 L 453.5 169.5 L 452.9 168.0 L 458.3 165.6 L 460.1 165.9 L 460.1 181.3 L 463.5 181.3 L 463.5 183.3 L 453.9 183.3 L 453.9 181.3 " fill="#000000"/>
<path class="atom-15" d="M 471.5 172.3 Q 473.0 172.3, 474.3 173.0 Q 475.5 173.7, 476.2 174.9 Q 476.8 176.1, 476.8 177.6 Q 476.8 179.4, 476.1 180.7 Q 475.3 182.0, 474.0 182.8 Q 472.6 183.5, 470.9 183.5 Q 467.8 183.5, 466.2 181.4 Q 464.6 179.3, 464.6 175.0 Q 464.6 170.3, 466.5 167.9 Q 468.5 165.5, 472.3 165.5 Q 473.4 165.5, 474.3 165.7 Q 475.2 166.0, 476.1 166.5 L 475.2 168.2 Q 473.9 167.5, 472.3 167.5 Q 469.8 167.5, 468.5 169.1 Q 467.3 170.7, 467.1 174.0 Q 468.0 173.2, 469.1 172.8 Q 470.3 172.3, 471.5 172.3 M 470.9 181.5 Q 471.9 181.5, 472.6 181.0 Q 473.4 180.5, 473.9 179.6 Q 474.3 178.7, 474.3 177.7 Q 474.3 176.1, 473.5 175.2 Q 472.6 174.3, 471.0 174.3 Q 470.0 174.3, 468.9 174.8 Q 467.9 175.2, 467.1 175.9 Q 467.2 178.8, 468.1 180.2 Q 469.1 181.5, 470.9 181.5 " fill="#000000"/>
<path class="atom-16" d="M 300.1 182.7 L 302.5 182.7 L 302.5 190.2 L 311.5 190.2 L 311.5 182.7 L 313.9 182.7 L 313.9 200.4 L 311.5 200.4 L 311.5 192.2 L 302.5 192.2 L 302.5 200.4 L 300.1 200.4 L 300.1 182.7 " fill="#000000"/>
<path class="atom-16" d="M 316.0 197.5 L 318.5 197.5 L 318.5 200.0 L 316.0 200.0 L 316.0 197.5 M 316.0 188.9 L 318.5 188.9 L 318.5 191.4 L 316.0 191.4 L 316.0 188.9 " fill="#000000"/>
<path class="atom-16" d="M 321.4 198.4 L 325.2 198.4 L 325.2 185.2 L 321.0 186.5 L 320.4 185.1 L 325.8 182.6 L 327.6 182.9 L 327.6 198.4 L 331.0 198.4 L 331.0 200.4 L 321.4 200.4 L 321.4 198.4 " fill="#000000"/>
<path class="atom-16" d="M 341.3 184.7 L 332.1 184.7 L 332.1 182.7 L 343.8 182.7 L 343.8 184.5 L 336.7 200.4 L 334.3 200.4 L 341.3 184.7 " fill="#000000"/>
<path class="atom-17" d="M 292.9 171.0 L 295.3 171.0 L 295.3 178.5 L 304.4 178.5 L 304.4 171.0 L 306.8 171.0 L 306.8 188.7 L 304.4 188.7 L 304.4 180.5 L 295.3 180.5 L 295.3 188.7 L 292.9 188.7 L 292.9 171.0 " fill="#000000"/>
<path class="atom-17" d="M 308.9 185.8 L 311.4 185.8 L 311.4 188.3 L 308.9 188.3 L 308.9 185.8 M 308.9 177.2 L 311.4 177.2 L 311.4 179.7 L 308.9 179.7 L 308.9 177.2 " fill="#000000"/>
<path class="atom-17" d="M 314.2 186.7 L 318.1 186.7 L 318.1 173.5 L 313.8 174.8 L 313.2 173.4 L 318.6 170.9 L 320.4 171.2 L 320.4 186.7 L 323.9 186.7 L 323.9 188.7 L 314.2 188.7 L 314.2 186.7 " fill="#000000"/>
<path class="atom-17" d="M 333.9 179.3 Q 335.5 180.0, 336.5 181.1 Q 337.4 182.1, 337.4 183.8 Q 337.4 185.3, 336.6 186.5 Q 335.8 187.7, 334.4 188.3 Q 333.1 188.9, 331.3 188.9 Q 328.3 188.9, 326.6 187.6 Q 324.9 186.2, 324.9 183.8 Q 324.9 182.4, 325.7 181.3 Q 326.4 180.2, 328.0 179.4 Q 326.8 178.8, 326.2 177.8 Q 325.6 176.8, 325.6 175.3 Q 325.6 173.3, 327.1 172.1 Q 328.6 170.8, 331.2 170.8 Q 333.7 170.8, 335.2 172.1 Q 336.7 173.3, 336.7 175.3 Q 336.7 176.6, 336.0 177.6 Q 335.3 178.6, 333.9 179.3 M 331.2 172.7 Q 329.7 172.7, 328.9 173.4 Q 328.1 174.1, 328.1 175.3 Q 328.1 176.3, 328.6 176.9 Q 329.2 177.5, 329.9 177.8 Q 330.7 178.2, 332.2 178.7 Q 333.3 178.0, 333.8 177.2 Q 334.2 176.4, 334.2 175.3 Q 334.2 174.1, 333.4 173.4 Q 332.6 172.7, 331.2 172.7 M 331.3 187.1 Q 332.9 187.1, 333.9 186.2 Q 334.9 185.3, 334.9 183.8 Q 334.9 182.9, 334.4 182.3 Q 333.8 181.7, 333.0 181.3 Q 332.3 181.0, 330.9 180.5 L 329.8 180.2 Q 328.5 180.9, 328.0 181.8 Q 327.4 182.7, 327.4 183.8 Q 327.4 185.3, 328.5 186.2 Q 329.5 187.1, 331.3 187.1 " fill="#000000"/>
<path class="atom-18" d="M 193.6 122.3 L 196.0 122.3 L 196.0 129.8 L 205.0 129.8 L 205.0 122.3 L 207.4 122.3 L 207.4 139.9 L 205.0 139.9 L 205.0 131.8 L 196.0 131.8 L 196.0 139.9 L 193.6 139.9 L 193.6 122.3 " fill="#000000"/>
<path class="atom-18" d="M 209.5 137.0 L 212.0 137.0 L 212.0 139.5 L 209.5 139.5 L 209.5 137.0 M 209.5 128.4 L 212.0 128.4 L 212.0 130.9 L 209.5 130.9 L 209.5 128.4 " fill="#000000"/>
<path class="atom-18" d="M 214.9 137.9 L 218.7 137.9 L 218.7 124.7 L 214.5 126.1 L 213.9 124.6 L 219.3 122.2 L 221.1 122.5 L 221.1 137.9 L 224.5 137.9 L 224.5 139.9 L 214.9 139.9 L 214.9 137.9 " fill="#000000"/>
<path class="atom-18" d="M 231.5 122.1 Q 234.7 122.1, 236.2 124.2 Q 237.8 126.3, 237.8 130.6 Q 237.8 135.3, 235.9 137.7 Q 233.9 140.1, 230.2 140.1 Q 229.1 140.1, 228.1 139.9 Q 227.2 139.6, 226.3 139.1 L 227.3 137.4 Q 228.6 138.1, 230.1 138.1 Q 232.6 138.1, 233.9 136.5 Q 235.2 134.9, 235.3 131.6 Q 234.4 132.4, 233.3 132.9 Q 232.2 133.3, 230.9 133.3 Q 229.4 133.3, 228.2 132.6 Q 226.9 131.9, 226.3 130.7 Q 225.6 129.5, 225.6 127.9 Q 225.6 126.2, 226.3 124.9 Q 227.1 123.6, 228.5 122.8 Q 229.8 122.1, 231.5 122.1 M 228.1 127.9 Q 228.1 129.5, 229.0 130.4 Q 229.8 131.3, 231.4 131.3 Q 232.5 131.3, 233.5 130.9 Q 234.6 130.4, 235.3 129.7 Q 235.2 126.8, 234.3 125.4 Q 233.4 124.1, 231.5 124.1 Q 230.6 124.1, 229.8 124.6 Q 229.0 125.1, 228.5 126.0 Q 228.1 126.9, 228.1 127.9 " fill="#000000"/>
<path class="atom-19" d="M 94.9 327.9 L 97.3 327.9 L 97.3 335.4 L 106.3 335.4 L 106.3 327.9 L 108.7 327.9 L 108.7 345.6 L 106.3 345.6 L 106.3 337.4 L 97.3 337.4 L 97.3 345.6 L 94.9 345.6 L 94.9 327.9 " fill="#000000"/>
<path class="atom-19" d="M 110.8 342.7 L 113.3 342.7 L 113.3 345.2 L 110.8 345.2 L 110.8 342.7 M 110.8 334.1 L 113.3 334.1 L 113.3 336.6 L 110.8 336.6 L 110.8 334.1 " fill="#000000"/>
<path class="atom-19" d="M 115.2 331.3 Q 115.9 329.6, 117.4 328.7 Q 119.0 327.7, 121.1 327.7 Q 123.8 327.7, 125.3 329.2 Q 126.8 330.6, 126.8 333.2 Q 126.8 335.8, 124.8 338.3 Q 122.9 340.7, 118.9 343.6 L 127.1 343.6 L 127.1 345.6 L 115.2 345.6 L 115.2 343.9 Q 118.5 341.6, 120.4 339.8 Q 122.4 338.1, 123.3 336.5 Q 124.3 334.9, 124.3 333.3 Q 124.3 331.6, 123.4 330.7 Q 122.6 329.7, 121.1 329.7 Q 119.7 329.7, 118.7 330.3 Q 117.8 330.9, 117.1 332.2 L 115.2 331.3 " fill="#000000"/>
<path class="atom-19" d="M 135.0 345.8 Q 131.8 345.8, 130.2 343.4 Q 128.6 341.0, 128.6 336.7 Q 128.6 332.5, 130.2 330.1 Q 131.8 327.7, 135.0 327.7 Q 138.3 327.7, 139.9 330.1 Q 141.5 332.5, 141.5 336.7 Q 141.5 341.0, 139.9 343.4 Q 138.3 345.8, 135.0 345.8 M 135.0 343.8 Q 136.9 343.8, 138.0 342.0 Q 139.0 340.2, 139.0 336.7 Q 139.0 333.3, 138.0 331.5 Q 136.9 329.7, 135.0 329.7 Q 133.1 329.7, 132.1 331.5 Q 131.1 333.3, 131.1 336.7 Q 131.1 340.2, 132.1 342.0 Q 133.1 343.8, 135.0 343.8 " fill="#000000"/>
<path class="atom-20" d="M 246.9 365.8 L 249.3 365.8 L 249.3 373.3 L 258.3 373.3 L 258.3 365.8 L 260.7 365.8 L 260.7 383.4 L 258.3 383.4 L 258.3 375.3 L 249.3 375.3 L 249.3 383.4 L 246.9 383.4 L 246.9 365.8 " fill="#000000"/>
<path class="atom-20" d="M 262.8 380.5 L 265.3 380.5 L 265.3 383.0 L 262.8 383.0 L 262.8 380.5 M 262.8 371.9 L 265.3 371.9 L 265.3 374.4 L 262.8 374.4 L 262.8 371.9 " fill="#000000"/>
<path class="atom-20" d="M 267.2 369.1 Q 267.8 367.4, 269.4 366.5 Q 270.9 365.6, 273.1 365.6 Q 275.7 365.6, 277.2 367.0 Q 278.7 368.5, 278.7 371.0 Q 278.7 373.6, 276.8 376.1 Q 274.9 378.5, 270.9 381.4 L 279.0 381.4 L 279.0 383.4 L 267.1 383.4 L 267.1 381.7 Q 270.4 379.4, 272.4 377.6 Q 274.4 375.9, 275.3 374.3 Q 276.2 372.8, 276.2 371.1 Q 276.2 369.4, 275.4 368.5 Q 274.6 367.6, 273.1 367.6 Q 271.7 367.6, 270.7 368.1 Q 269.8 368.7, 269.1 370.0 L 267.2 369.1 " fill="#000000"/>
<path class="atom-20" d="M 281.5 381.4 L 285.4 381.4 L 285.4 368.2 L 281.1 369.5 L 280.5 368.1 L 285.9 365.7 L 287.7 366.0 L 287.7 381.4 L 291.2 381.4 L 291.2 383.4 L 281.5 383.4 L 281.5 381.4 " fill="#000000"/>
<path class="atom-21" d="M 88.6 206.2 L 94.4 215.5 Q 95.0 216.5, 95.9 218.1 Q 96.8 219.8, 96.9 219.9 L 96.9 206.2 L 99.2 206.2 L 99.2 223.8 L 96.8 223.8 L 90.6 213.6 Q 89.9 212.4, 89.1 211.1 Q 88.4 209.7, 88.1 209.3 L 88.1 223.8 L 85.9 223.8 L 85.9 206.2 L 88.6 206.2 " fill="#0000FF"/>
<path class="atom-21" d="M 101.3 220.9 L 103.8 220.9 L 103.8 223.4 L 101.3 223.4 L 101.3 220.9 M 101.3 212.4 L 103.8 212.4 L 103.8 214.8 L 101.3 214.8 L 101.3 212.4 " fill="#0000FF"/>
<path class="atom-21" d="M 105.7 209.5 Q 106.4 207.9, 107.9 206.9 Q 109.5 206.0, 111.6 206.0 Q 114.3 206.0, 115.8 207.4 Q 117.3 208.9, 117.3 211.5 Q 117.3 214.1, 115.3 216.5 Q 113.4 219.0, 109.4 221.8 L 117.6 221.8 L 117.6 223.8 L 105.7 223.8 L 105.7 222.2 Q 109.0 219.8, 110.9 218.1 Q 112.9 216.3, 113.8 214.8 Q 114.8 213.2, 114.8 211.6 Q 114.8 209.9, 113.9 208.9 Q 113.1 208.0, 111.6 208.0 Q 110.2 208.0, 109.2 208.6 Q 108.3 209.1, 107.6 210.4 L 105.7 209.5 " fill="#0000FF"/>
<path class="atom-21" d="M 119.1 209.5 Q 119.7 207.9, 121.3 206.9 Q 122.8 206.0, 125.0 206.0 Q 127.7 206.0, 129.1 207.4 Q 130.6 208.9, 130.6 211.5 Q 130.6 214.1, 128.7 216.5 Q 126.8 219.0, 122.8 221.8 L 130.9 221.8 L 130.9 223.8 L 119.1 223.8 L 119.1 222.2 Q 122.3 219.8, 124.3 218.1 Q 126.3 216.3, 127.2 214.8 Q 128.1 213.2, 128.1 211.6 Q 128.1 209.9, 127.3 208.9 Q 126.5 208.0, 125.0 208.0 Q 123.6 208.0, 122.6 208.6 Q 121.7 209.1, 121.0 210.4 L 119.1 209.5 " fill="#0000FF"/>
<path class="atom-22" d="M 22.7 248.2 L 25.1 248.2 L 25.1 255.7 L 34.1 255.7 L 34.1 248.2 L 36.5 248.2 L 36.5 265.8 L 34.1 265.8 L 34.1 257.7 L 25.1 257.7 L 25.1 265.8 L 22.7 265.8 L 22.7 248.2 " fill="#000000"/>
<path class="atom-22" d="M 38.7 262.9 L 41.1 262.9 L 41.1 265.4 L 38.7 265.4 L 38.7 262.9 M 38.7 254.3 L 41.1 254.3 L 41.1 256.8 L 38.7 256.8 L 38.7 254.3 " fill="#000000"/>
<path class="atom-22" d="M 43.1 251.5 Q 43.7 249.8, 45.3 248.9 Q 46.8 248.0, 48.9 248.0 Q 51.6 248.0, 53.1 249.4 Q 54.6 250.8, 54.6 253.4 Q 54.6 256.0, 52.7 258.5 Q 50.7 260.9, 46.8 263.8 L 54.9 263.8 L 54.9 265.8 L 43.0 265.8 L 43.0 264.1 Q 46.3 261.8, 48.3 260.0 Q 50.2 258.3, 51.2 256.7 Q 52.1 255.2, 52.1 253.5 Q 52.1 251.8, 51.3 250.9 Q 50.4 250.0, 48.9 250.0 Q 47.5 250.0, 46.6 250.5 Q 45.6 251.1, 45.0 252.4 L 43.1 251.5 " fill="#000000"/>
<path class="atom-22" d="M 64.9 256.5 Q 66.6 257.0, 67.4 258.1 Q 68.3 259.2, 68.3 261.0 Q 68.3 262.5, 67.5 263.6 Q 66.8 264.8, 65.4 265.4 Q 64.0 266.1, 62.2 266.1 Q 60.3 266.1, 58.9 265.4 Q 57.5 264.7, 56.4 263.4 L 57.8 261.9 Q 58.9 263.1, 59.8 263.6 Q 60.8 264.1, 62.2 264.1 Q 63.8 264.1, 64.8 263.2 Q 65.8 262.3, 65.8 260.9 Q 65.8 259.1, 64.8 258.4 Q 63.8 257.5, 61.6 257.5 L 60.3 257.5 L 60.3 255.7 L 61.4 255.7 Q 63.4 255.7, 64.4 254.9 Q 65.4 254.0, 65.4 252.5 Q 65.4 251.3, 64.6 250.7 Q 63.7 250.0, 62.3 250.0 Q 60.8 250.0, 59.9 250.5 Q 59.0 251.0, 58.3 252.3 L 56.6 251.4 Q 57.2 249.9, 58.7 249.0 Q 60.2 248.0, 62.3 248.0 Q 64.9 248.0, 66.4 249.2 Q 67.9 250.4, 67.9 252.5 Q 67.9 253.9, 67.1 254.9 Q 66.3 255.9, 64.9 256.5 " fill="#000000"/>
<path class="atom-23" d="M 404.5 76.2 L 406.9 76.2 L 406.9 83.7 L 415.9 83.7 L 415.9 76.2 L 418.3 76.2 L 418.3 93.8 L 415.9 93.8 L 415.9 85.7 L 406.9 85.7 L 406.9 93.8 L 404.5 93.8 L 404.5 76.2 " fill="#000000"/>
<path class="atom-23" d="M 420.4 90.9 L 422.9 90.9 L 422.9 93.4 L 420.4 93.4 L 420.4 90.9 M 420.4 82.3 L 422.9 82.3 L 422.9 84.8 L 420.4 84.8 L 420.4 82.3 " fill="#000000"/>
<path class="atom-23" d="M 424.8 79.5 Q 425.5 77.8, 427.0 76.9 Q 428.6 76.0, 430.7 76.0 Q 433.4 76.0, 434.9 77.4 Q 436.4 78.8, 436.4 81.4 Q 436.4 84.0, 434.4 86.5 Q 432.5 88.9, 428.5 91.8 L 436.7 91.8 L 436.7 93.8 L 424.8 93.8 L 424.8 92.1 Q 428.1 89.8, 430.0 88.0 Q 432.0 86.3, 432.9 84.7 Q 433.9 83.2, 433.9 81.5 Q 433.9 79.8, 433.0 78.9 Q 432.2 78.0, 430.7 78.0 Q 429.3 78.0, 428.3 78.5 Q 427.4 79.1, 426.7 80.4 L 424.8 79.5 " fill="#000000"/>
<path class="atom-23" d="M 449.6 87.7 L 451.7 87.7 L 451.7 89.7 L 449.6 89.7 L 449.6 93.8 L 447.3 93.8 L 447.3 89.7 L 438.2 89.7 L 438.2 88.2 L 445.9 76.2 L 449.6 76.2 L 449.6 87.7 M 441.1 87.7 L 447.3 87.7 L 447.3 77.8 L 441.1 87.7 " fill="#000000"/>
<path class="atom-24" d="M 266.3 99.2 L 268.7 99.2 L 268.7 106.7 L 277.7 106.7 L 277.7 99.2 L 280.1 99.2 L 280.1 116.9 L 277.7 116.9 L 277.7 108.7 L 268.7 108.7 L 268.7 116.9 L 266.3 116.9 L 266.3 99.2 " fill="#000000"/>
<path class="atom-24" d="M 282.2 113.9 L 284.7 113.9 L 284.7 116.4 L 282.2 116.4 L 282.2 113.9 M 282.2 105.4 L 284.7 105.4 L 284.7 107.9 L 282.2 107.9 L 282.2 105.4 " fill="#000000"/>
<path class="atom-24" d="M 286.7 102.6 Q 287.3 100.9, 288.8 100.0 Q 290.4 99.0, 292.5 99.0 Q 295.2 99.0, 296.7 100.5 Q 298.2 101.9, 298.2 104.5 Q 298.2 107.1, 296.2 109.5 Q 294.3 112.0, 290.3 114.9 L 298.5 114.9 L 298.5 116.9 L 286.6 116.9 L 286.6 115.2 Q 289.9 112.8, 291.8 111.1 Q 293.8 109.4, 294.8 107.8 Q 295.7 106.2, 295.7 104.6 Q 295.7 102.9, 294.9 102.0 Q 294.0 101.0, 292.5 101.0 Q 291.1 101.0, 290.2 101.6 Q 289.2 102.2, 288.5 103.4 L 286.7 102.6 " fill="#000000"/>
<path class="atom-24" d="M 306.4 105.8 Q 307.9 105.8, 309.2 106.5 Q 310.5 107.1, 311.2 108.4 Q 311.9 109.6, 311.9 111.3 Q 311.9 113.1, 311.0 114.4 Q 310.2 115.7, 308.7 116.4 Q 307.3 117.1, 305.6 117.1 Q 304.0 117.1, 302.5 116.5 Q 301.0 115.9, 300.0 114.7 L 301.5 113.2 Q 302.3 114.1, 303.4 114.6 Q 304.5 115.0, 305.7 115.0 Q 307.3 115.0, 308.3 114.1 Q 309.4 113.1, 309.4 111.3 Q 309.4 109.5, 308.3 108.6 Q 307.3 107.7, 305.5 107.7 Q 304.0 107.7, 302.3 108.4 L 300.9 107.7 L 301.8 99.2 L 310.8 99.2 L 310.6 101.2 L 303.8 101.2 L 303.3 106.4 Q 304.8 105.8, 306.4 105.8 " fill="#000000"/>
<path class="atom-25" d="M 88.2 145.3 L 90.6 145.3 L 90.6 152.8 L 99.6 152.8 L 99.6 145.3 L 102.0 145.3 L 102.0 163.0 L 99.6 163.0 L 99.6 154.8 L 90.6 154.8 L 90.6 163.0 L 88.2 163.0 L 88.2 145.3 " fill="#000000"/>
<path class="atom-25" d="M 104.1 160.1 L 106.6 160.1 L 106.6 162.5 L 104.1 162.5 L 104.1 160.1 M 104.1 151.5 L 106.6 151.5 L 106.6 154.0 L 104.1 154.0 L 104.1 151.5 " fill="#000000"/>
<path class="atom-25" d="M 108.5 148.7 Q 109.2 147.0, 110.7 146.1 Q 112.3 145.1, 114.4 145.1 Q 117.1 145.1, 118.6 146.6 Q 120.1 148.0, 120.1 150.6 Q 120.1 153.2, 118.1 155.6 Q 116.2 158.1, 112.2 161.0 L 120.4 161.0 L 120.4 163.0 L 108.5 163.0 L 108.5 161.3 Q 111.8 159.0, 113.7 157.2 Q 115.7 155.5, 116.6 153.9 Q 117.6 152.3, 117.6 150.7 Q 117.6 149.0, 116.7 148.1 Q 115.9 147.1, 114.4 147.1 Q 113.0 147.1, 112.0 147.7 Q 111.1 148.3, 110.4 149.5 L 108.5 148.7 " fill="#000000"/>
<path class="atom-25" d="M 128.8 152.0 Q 130.3 152.0, 131.5 152.6 Q 132.7 153.3, 133.4 154.5 Q 134.1 155.7, 134.1 157.3 Q 134.1 159.0, 133.3 160.3 Q 132.6 161.7, 131.2 162.4 Q 129.9 163.2, 128.2 163.2 Q 125.0 163.2, 123.4 161.0 Q 121.9 158.9, 121.9 154.7 Q 121.9 150.0, 123.8 147.6 Q 125.8 145.1, 129.5 145.1 Q 130.6 145.1, 131.6 145.4 Q 132.5 145.6, 133.4 146.1 L 132.4 147.8 Q 131.1 147.1, 129.6 147.1 Q 127.1 147.1, 125.8 148.7 Q 124.5 150.3, 124.4 153.6 Q 125.3 152.8, 126.4 152.4 Q 127.5 152.0, 128.8 152.0 M 128.2 161.1 Q 129.1 161.1, 129.9 160.6 Q 130.7 160.1, 131.2 159.3 Q 131.6 158.4, 131.6 157.3 Q 131.6 155.7, 130.7 154.8 Q 129.9 153.9, 128.3 153.9 Q 127.2 153.9, 126.2 154.4 Q 125.1 154.8, 124.4 155.6 Q 124.5 158.5, 125.4 159.8 Q 126.3 161.1, 128.2 161.1 " fill="#000000"/>
<text x="368.9210766344797" y="269.57382553638115" font-size="12" font-family="Verdana" font-weight="bold" letter-spacing="0" text-anchor="start" fill="black" transform=" rotate(47.665914 368.921077 269.573826)">0.1487</text><text x="25" y="490" font-size="12" font-family="Verdana" font-weight="bold" letter-spacing="0" text-anchor="start" fill="black">[#6:1]1(-[#7:2](-[#6:3](-[#6:4](-[#7:15](-[H:24])-[H:25])(-[H:16])-[H:17])=[#8:6])-[#6:5](-[H:12])(-[H:13])-[H:14]):[#6:7](:[#6:9](:[#6:8](:[#6:10](:[#6:11]:1-[H:21])-[H:20])-[#7:22](-[H:23])-[H:26])-[H:19])-[H:18]</text></svg>
