<?xml version='1.0' encoding='ASCII' standalone='yes'?>
<svg xmlns="http://www.w3.org/2000/svg" xmlns:rdkit="http://www.rdkit.org/xml" xmlns:xlink="http://www.w3.org/1999/xlink" version="1.1" baseProfile="full" xml:space="preserve" width="500px" height="500px" viewBox="0 0 500 500">
<!-- END OF HEADER -->
<rect style="opacity:1.0;fill:#FFFFFF;stroke:none" width="500" height="500" x="0" y="0"> </rect>
<path d="M 343.581,338.859 L 324.859,274.279" style="fill:none;fill-rule:evenodd;stroke:#FF7F7F;stroke-width:14.3px;stroke-linecap:butt;stroke-linejoin:miter;stroke-opacity:1"/>
<path class="bond-0 atom-1 atom-0" d="M 356.323,335.165 L 399.362,322.687" style="fill:none;fill-rule:evenodd;stroke:#000000;stroke-width:2.0px;stroke-linecap:butt;stroke-linejoin:miter;stroke-opacity:1"/>
<path class="bond-1 atom-1 atom-12" d="M 319.395,345.871 L 286.454,355.421" style="fill:none;fill-rule:evenodd;stroke:#000000;stroke-width:2.0px;stroke-linecap:butt;stroke-linejoin:miter;stroke-opacity:1"/>
<path class="bond-2 atom-1 atom-13" d="M 346.86,350.168 L 359.157,392.585" style="fill:none;fill-rule:evenodd;stroke:#000000;stroke-width:2.0px;stroke-linecap:butt;stroke-linejoin:miter;stroke-opacity:1"/>
<path class="bond-5 atom-2 atom-1" d="M 328.215,285.857 L 334.324,306.929" style="fill:none;fill-rule:evenodd;stroke:#0000FF;stroke-width:2.0px;stroke-linecap:butt;stroke-linejoin:miter;stroke-opacity:1"/>
<path class="bond-5 atom-2 atom-1" d="M 334.324,306.929 L 340.433,328" style="fill:none;fill-rule:evenodd;stroke:#000000;stroke-width:2.0px;stroke-linecap:butt;stroke-linejoin:miter;stroke-opacity:1"/>
<path class="bond-3 atom-2 atom-4" d="M 301.126,268.435 L 286.393,264.808" style="fill:none;fill-rule:evenodd;stroke:#0000FF;stroke-width:2.0px;stroke-linecap:butt;stroke-linejoin:miter;stroke-opacity:1"/>
<path class="bond-3 atom-2 atom-4" d="M 286.393,264.808 L 271.66,261.18" style="fill:none;fill-rule:evenodd;stroke:#000000;stroke-width:2.0px;stroke-linecap:butt;stroke-linejoin:miter;stroke-opacity:1"/>
<path class="bond-4 atom-2 atom-3" d="M 335.717,262.969 L 348.214,249.952" style="fill:none;fill-rule:evenodd;stroke:#0000FF;stroke-width:2.0px;stroke-linecap:butt;stroke-linejoin:miter;stroke-opacity:1"/>
<path class="bond-4 atom-2 atom-3" d="M 348.214,249.952 L 360.711,236.935" style="fill:none;fill-rule:evenodd;stroke:#000000;stroke-width:2.0px;stroke-linecap:butt;stroke-linejoin:miter;stroke-opacity:1"/>
<path class="bond-6 atom-3 atom-10" d="M 368.209,214.68 L 355.898,172.216" style="fill:none;fill-rule:evenodd;stroke:#000000;stroke-width:2.0px;stroke-linecap:butt;stroke-linejoin:miter;stroke-opacity:1"/>
<path class="bond-7 atom-3 atom-11" d="M 383.268,235.615 L 404.149,240.757" style="fill:none;fill-rule:evenodd;stroke:#000000;stroke-width:2.0px;stroke-linecap:butt;stroke-linejoin:miter;stroke-opacity:1"/>
<path class="bond-7 atom-3 atom-11" d="M 404.149,240.757 L 425.031,245.899" style="fill:none;fill-rule:evenodd;stroke:#FF0000;stroke-width:2.0px;stroke-linecap:butt;stroke-linejoin:miter;stroke-opacity:1"/>
<path class="bond-7 atom-3 atom-11" d="M 386.483,222.558 L 407.364,227.699" style="fill:none;fill-rule:evenodd;stroke:#000000;stroke-width:2.0px;stroke-linecap:butt;stroke-linejoin:miter;stroke-opacity:1"/>
<path class="bond-7 atom-3 atom-11" d="M 407.364,227.699 L 428.246,232.841" style="fill:none;fill-rule:evenodd;stroke:#FF0000;stroke-width:2.0px;stroke-linecap:butt;stroke-linejoin:miter;stroke-opacity:1"/>
<path class="bond-15 atom-8 atom-4" d="M 244.196,205.175 L 256.44,247.409" style="fill:none;fill-rule:evenodd;stroke:#000000;stroke-width:2.0px;stroke-linecap:butt;stroke-linejoin:miter;stroke-opacity:1"/>
<path class="bond-15 atom-8 atom-4" d="M 233.117,215.255 L 241.688,244.819" style="fill:none;fill-rule:evenodd;stroke:#000000;stroke-width:2.0px;stroke-linecap:butt;stroke-linejoin:miter;stroke-opacity:1"/>
<path class="bond-17 atom-9 atom-4" d="M 223.861,295.398 L 248.856,269.363" style="fill:none;fill-rule:evenodd;stroke:#000000;stroke-width:2.0px;stroke-linecap:butt;stroke-linejoin:miter;stroke-opacity:1"/>
<path class="bond-8 atom-5 atom-6" d="M 139.85,214.742 L 164.844,188.707" style="fill:none;fill-rule:evenodd;stroke:#000000;stroke-width:2.0px;stroke-linecap:butt;stroke-linejoin:miter;stroke-opacity:1"/>
<path class="bond-8 atom-5 atom-6" d="M 153.3,220.15 L 170.796,201.926" style="fill:none;fill-rule:evenodd;stroke:#000000;stroke-width:2.0px;stroke-linecap:butt;stroke-linejoin:miter;stroke-opacity:1"/>
<path class="bond-9 atom-5 atom-7" d="M 132.333,237.577 L 144.522,279.622" style="fill:none;fill-rule:evenodd;stroke:#000000;stroke-width:2.0px;stroke-linecap:butt;stroke-linejoin:miter;stroke-opacity:1"/>
<path class="bond-10 atom-5 atom-20" d="M 104.488,220.018 L 70.495,211.649" style="fill:none;fill-rule:evenodd;stroke:#000000;stroke-width:2.0px;stroke-linecap:butt;stroke-linejoin:miter;stroke-opacity:1"/>
<path class="bond-11 atom-6 atom-8" d="M 187.616,180.517 L 232.134,191.478" style="fill:none;fill-rule:evenodd;stroke:#000000;stroke-width:2.0px;stroke-linecap:butt;stroke-linejoin:miter;stroke-opacity:1"/>
<path class="bond-12 atom-6 atom-14" d="M 172.342,166.453 L 160.015,123.935" style="fill:none;fill-rule:evenodd;stroke:#000000;stroke-width:2.0px;stroke-linecap:butt;stroke-linejoin:miter;stroke-opacity:1"/>
<path class="bond-13 atom-7 atom-9" d="M 161.032,293.911 L 182.056,299.087" style="fill:none;fill-rule:evenodd;stroke:#000000;stroke-width:2.0px;stroke-linecap:butt;stroke-linejoin:miter;stroke-opacity:1"/>
<path class="bond-13 atom-7 atom-9" d="M 167.401,281.629 L 182.118,285.253" style="fill:none;fill-rule:evenodd;stroke:#000000;stroke-width:2.0px;stroke-linecap:butt;stroke-linejoin:miter;stroke-opacity:1"/>
<path class="bond-14 atom-7 atom-15" d="M 136.624,302.183 L 109.031,330.924" style="fill:none;fill-rule:evenodd;stroke:#000000;stroke-width:2.0px;stroke-linecap:butt;stroke-linejoin:miter;stroke-opacity:1"/>
<path class="bond-16 atom-8 atom-16" d="M 253.886,183.002 L 263.608,175.083" style="fill:none;fill-rule:evenodd;stroke:#000000;stroke-width:2.0px;stroke-linecap:butt;stroke-linejoin:miter;stroke-opacity:1"/>
<path class="bond-18 atom-9 atom-17" d="M 216.344,318.232 L 228.596,360.493" style="fill:none;fill-rule:evenodd;stroke:#000000;stroke-width:2.0px;stroke-linecap:butt;stroke-linejoin:miter;stroke-opacity:1"/>
<path class="bond-19 atom-10 atom-18" d="M 327.319,172.058 L 323.106,173.861" style="fill:none;fill-rule:evenodd;stroke:#000000;stroke-width:2.0px;stroke-linecap:butt;stroke-linejoin:miter;stroke-opacity:1"/>
<path class="bond-20 atom-10 atom-19" d="M 360.126,159.043 L 408.345,145.064" style="fill:none;fill-rule:evenodd;stroke:#000000;stroke-width:2.0px;stroke-linecap:butt;stroke-linejoin:miter;stroke-opacity:1"/>
<path class="bond-21 atom-10 atom-21" d="M 349.455,149.993 L 337.174,107.633" style="fill:none;fill-rule:evenodd;stroke:#000000;stroke-width:2.0px;stroke-linecap:butt;stroke-linejoin:miter;stroke-opacity:1"/>
<path class="atom-0" d="M 400.711 310.669 L 403.293 310.669 L 403.293 318.765 L 413.029 318.765 L 413.029 310.669 L 415.611 310.669 L 415.611 329.711 L 413.029 329.711 L 413.029 320.916 L 403.293 320.916 L 403.293 329.711 L 400.711 329.711 L 400.711 310.669 " fill="#000000"/>
<path class="atom-0" d="M 417.628 326.564 L 420.318 326.564 L 420.318 329.254 L 417.628 329.254 L 417.628 326.564 M 417.628 317.312 L 420.318 317.312 L 420.318 320.002 L 417.628 320.002 L 417.628 317.312 " fill="#000000"/>
<path class="atom-0" d="M 422.819 327.559 L 426.988 327.559 L 426.988 313.332 L 422.389 314.757 L 421.77 313.17 L 427.607 310.561 L 429.516 310.884 L 429.516 327.559 L 433.255 327.559 L 433.255 329.711 L 422.819 329.711 L 422.819 327.559 " fill="#000000"/>
<path class="atom-1" d="M 321.076 338.939 Q 321.076 334.206, 323.282 331.731 Q 325.514 329.23, 329.737 329.23 Q 333.663 329.23, 335.761 332 L 333.986 333.453 Q 332.453 331.436, 329.737 331.436 Q 326.859 331.436, 325.326 333.372 Q 323.82 335.282, 323.82 338.939 Q 323.82 342.705, 325.38 344.641 Q 326.966 346.578, 330.033 346.578 Q 332.13 346.578, 334.578 345.314 L 335.331 347.331 Q 334.336 347.976, 332.83 348.353 Q 331.324 348.729, 329.656 348.729 Q 325.514 348.729, 323.282 346.201 Q 321.076 343.673, 321.076 338.939 " fill="#000000"/>
<path class="atom-1" d="M 337.779 345.341 L 340.468 345.341 L 340.468 348.03 L 337.779 348.03 L 337.779 345.341 M 337.779 336.088 L 340.468 336.088 L 340.468 338.778 L 337.779 338.778 L 337.779 336.088 " fill="#000000"/>
<path class="atom-1" d="M 341.867 333.049 Q 342.566 331.247, 344.233 330.252 Q 345.901 329.23, 348.214 329.23 Q 351.092 329.23, 352.706 330.79 Q 354.319 332.35, 354.319 335.12 Q 354.319 337.944, 352.221 340.58 Q 350.15 343.216, 345.847 346.336 L 354.642 346.336 L 354.642 348.487 L 341.813 348.487 L 341.813 346.685 Q 345.363 344.157, 347.461 342.274 Q 349.586 340.392, 350.608 338.697 Q 351.63 337.003, 351.63 335.255 Q 351.63 333.426, 350.715 332.404 Q 349.801 331.382, 348.214 331.382 Q 346.681 331.382, 345.659 332 Q 344.637 332.619, 343.911 333.991 L 341.867 333.049 " fill="#000000"/>
<path class="atom-2" d="M 305.819 264.865 L 312.059 274.951 Q 312.677 275.946, 313.672 277.748 Q 314.668 279.55, 314.721 279.658 L 314.721 264.865 L 317.249 264.865 L 317.249 283.908 L 314.641 283.908 L 307.944 272.88 Q 307.164 271.589, 306.33 270.11 Q 305.523 268.631, 305.281 268.174 L 305.281 283.908 L 302.807 283.908 L 302.807 264.865 L 305.819 264.865 " fill="#0000FF"/>
<path class="atom-2" d="M 319.267 280.761 L 321.956 280.761 L 321.956 283.45 L 319.267 283.45 L 319.267 280.761 M 319.267 271.509 L 321.956 271.509 L 321.956 274.198 L 319.267 274.198 L 319.267 271.509 " fill="#0000FF"/>
<path class="atom-2" d="M 332.23 273.876 Q 334.086 274.413, 334.974 275.624 Q 335.888 276.807, 335.888 278.69 Q 335.888 280.304, 335.081 281.568 Q 334.274 282.805, 332.795 283.504 Q 331.316 284.177, 329.379 284.177 Q 327.335 284.177, 325.802 283.477 Q 324.296 282.751, 323.086 281.299 L 324.619 279.739 Q 325.802 281.03, 326.797 281.541 Q 327.793 282.025, 329.379 282.025 Q 331.101 282.025, 332.15 281.11 Q 333.199 280.169, 333.199 278.663 Q 333.199 276.726, 332.096 275.866 Q 331.02 274.978, 328.68 274.978 L 327.308 274.978 L 327.308 273.042 L 328.519 273.042 Q 330.59 273.015, 331.692 272.127 Q 332.795 271.213, 332.795 269.518 Q 332.795 268.281, 331.881 267.555 Q 330.966 266.802, 329.406 266.802 Q 327.819 266.802, 326.824 267.367 Q 325.856 267.932, 325.103 269.357 L 323.247 268.362 Q 323.92 266.775, 325.533 265.726 Q 327.147 264.65, 329.406 264.65 Q 332.203 264.65, 333.844 265.968 Q 335.485 267.286, 335.485 269.518 Q 335.485 271.051, 334.651 272.154 Q 333.817 273.257, 332.23 273.876 " fill="#0000FF"/>
<path class="atom-3" d="M 348.338 225.856 Q 348.338 221.122, 350.543 218.648 Q 352.775 216.146, 356.998 216.146 Q 360.925 216.146, 363.023 218.916 L 361.247 220.369 Q 359.714 218.352, 356.998 218.352 Q 354.12 218.352, 352.587 220.288 Q 351.081 222.198, 351.081 225.856 Q 351.081 229.621, 352.641 231.557 Q 354.228 233.494, 357.294 233.494 Q 359.392 233.494, 361.839 232.23 L 362.592 234.247 Q 361.597 234.892, 360.091 235.269 Q 358.585 235.646, 356.917 235.646 Q 352.775 235.646, 350.543 233.117 Q 348.338 230.589, 348.338 225.856 " fill="#000000"/>
<path class="atom-3" d="M 365.04 232.257 L 367.729 232.257 L 367.729 234.946 L 365.04 234.946 L 365.04 232.257 M 365.04 223.005 L 367.729 223.005 L 367.729 225.694 L 365.04 225.694 L 365.04 223.005 " fill="#000000"/>
<path class="atom-3" d="M 380.908 228.868 L 383.194 228.868 L 383.194 231.019 L 380.908 231.019 L 380.908 235.403 L 378.38 235.403 L 378.38 231.019 L 368.536 231.019 L 368.536 229.325 L 376.874 216.361 L 380.908 216.361 L 380.908 228.868 M 371.656 228.868 L 378.38 228.868 L 378.38 218.083 L 371.656 228.868 " fill="#000000"/>
<path class="atom-4" d="M 237.078 258.284 Q 237.078 253.55, 239.284 251.076 Q 241.516 248.575, 245.739 248.575 Q 249.665 248.575, 251.763 251.345 L 249.988 252.797 Q 248.455 250.78, 245.739 250.78 Q 242.861 250.78, 241.328 252.717 Q 239.822 254.626, 239.822 258.284 Q 239.822 262.049, 241.382 263.986 Q 242.968 265.922, 246.035 265.922 Q 248.132 265.922, 250.58 264.658 L 251.333 266.675 Q 250.338 267.321, 248.832 267.697 Q 247.325 268.074, 245.658 268.074 Q 241.516 268.074, 239.284 265.546 Q 237.078 263.018, 237.078 258.284 " fill="#000000"/>
<path class="atom-4" d="M 253.78 264.685 L 256.47 264.685 L 256.47 267.375 L 253.78 267.375 L 253.78 264.685 M 253.78 255.433 L 256.47 255.433 L 256.47 258.123 L 253.78 258.123 L 253.78 255.433 " fill="#000000"/>
<path class="atom-4" d="M 264.619 255.917 Q 266.287 255.917, 267.659 256.643 Q 269.03 257.343, 269.81 258.687 Q 270.59 260.005, 270.59 261.807 Q 270.59 263.771, 269.622 265.196 Q 268.681 266.595, 267.121 267.321 Q 265.561 268.047, 263.786 268.047 Q 262.037 268.047, 260.424 267.402 Q 258.81 266.756, 257.707 265.519 L 259.321 263.851 Q 260.208 264.82, 261.419 265.357 Q 262.629 265.868, 263.866 265.868 Q 265.561 265.868, 266.717 264.82 Q 267.901 263.771, 267.901 261.861 Q 267.901 259.844, 266.717 258.903 Q 265.561 257.934, 263.705 257.934 Q 262.037 257.934, 260.182 258.66 L 258.702 257.961 L 259.617 248.79 L 269.407 248.79 L 269.138 250.941 L 261.822 250.941 L 261.257 256.59 Q 262.952 255.917, 264.619 255.917 " fill="#000000"/>
<path class="atom-5" d="M 106.169 226.133 Q 106.169 221.399, 108.374 218.925 Q 110.606 216.423, 114.829 216.423 Q 118.756 216.423, 120.854 219.193 L 119.078 220.646 Q 117.545 218.629, 114.829 218.629 Q 111.951 218.629, 110.418 220.565 Q 108.912 222.475, 108.912 226.133 Q 108.912 229.898, 110.472 231.834 Q 112.059 233.771, 115.125 233.771 Q 117.223 233.771, 119.67 232.507 L 120.423 234.524 Q 119.428 235.169, 117.922 235.546 Q 116.416 235.923, 114.748 235.923 Q 110.606 235.923, 108.374 233.394 Q 106.169 230.866, 106.169 226.133 " fill="#000000"/>
<path class="atom-5" d="M 122.871 232.534 L 125.56 232.534 L 125.56 235.223 L 122.871 235.223 L 122.871 232.534 M 122.871 223.282 L 125.56 223.282 L 125.56 225.971 L 122.871 225.971 L 122.871 223.282 " fill="#000000"/>
<path class="atom-5" d="M 134.839 223.793 Q 136.507 223.793, 137.825 224.519 Q 139.143 225.245, 139.869 226.563 Q 140.595 227.881, 140.595 229.548 Q 140.595 231.404, 139.761 232.856 Q 138.954 234.282, 137.502 235.089 Q 136.05 235.896, 134.194 235.896 Q 130.805 235.896, 129.084 233.61 Q 127.389 231.296, 127.389 226.724 Q 127.389 221.668, 129.487 219.059 Q 131.612 216.423, 135.673 216.423 Q 136.856 216.423, 137.852 216.692 Q 138.874 216.961, 139.842 217.526 L 138.793 219.328 Q 137.394 218.575, 135.7 218.575 Q 133.01 218.575, 131.639 220.323 Q 130.267 222.044, 130.106 225.622 Q 131.074 224.734, 132.284 224.277 Q 133.521 223.793, 134.839 223.793 M 134.221 233.69 Q 135.243 233.69, 136.076 233.152 Q 136.937 232.614, 137.421 231.673 Q 137.905 230.732, 137.905 229.575 Q 137.905 227.881, 136.964 226.912 Q 136.023 225.944, 134.355 225.944 Q 133.199 225.944, 132.042 226.428 Q 130.913 226.886, 130.106 227.692 Q 130.213 230.839, 131.208 232.265 Q 132.203 233.69, 134.221 233.69 " fill="#000000"/>
<path class="atom-6" d="M 153.419 177.628 Q 153.419 172.895, 155.624 170.42 Q 157.856 167.919, 162.079 167.919 Q 166.006 167.919, 168.104 170.689 L 166.329 172.142 Q 164.795 170.125, 162.079 170.125 Q 159.201 170.125, 157.668 172.061 Q 156.162 173.971, 156.162 177.628 Q 156.162 181.394, 157.722 183.33 Q 159.309 185.267, 162.375 185.267 Q 164.473 185.267, 166.92 184.003 L 167.673 186.02 Q 166.678 186.665, 165.172 187.042 Q 163.666 187.418, 161.998 187.418 Q 157.856 187.418, 155.624 184.89 Q 153.419 182.362, 153.419 177.628 " fill="#000000"/>
<path class="atom-6" d="M 170.121 184.03 L 172.81 184.03 L 172.81 186.719 L 170.121 186.719 L 170.121 184.03 M 170.121 174.778 L 172.81 174.778 L 172.81 177.467 L 170.121 177.467 L 170.121 174.778 " fill="#000000"/>
<path class="atom-6" d="M 183.273 170.286 L 173.294 170.286 L 173.294 168.134 L 185.935 168.134 L 185.935 170.044 L 178.243 187.176 L 175.661 187.176 L 183.273 170.286 " fill="#000000"/>
<path class="atom-7" d="M 124.844 290.712 Q 124.844 285.979, 127.049 283.504 Q 129.282 281.003, 133.504 281.003 Q 137.431 281.003, 139.529 283.773 L 137.754 285.226 Q 136.221 283.208, 133.504 283.208 Q 130.627 283.208, 129.094 285.145 Q 127.587 287.055, 127.587 290.712 Q 127.587 294.478, 129.147 296.414 Q 130.734 298.351, 133.8 298.351 Q 135.898 298.351, 138.346 297.087 L 139.099 299.104 Q 138.104 299.749, 136.597 300.126 Q 135.091 300.502, 133.424 300.502 Q 129.282 300.502, 127.049 297.974 Q 124.844 295.446, 124.844 290.712 " fill="#000000"/>
<path class="atom-7" d="M 141.546 297.113 L 144.236 297.113 L 144.236 299.803 L 141.546 299.803 L 141.546 297.113 M 141.546 287.861 L 144.236 287.861 L 144.236 290.551 L 141.546 290.551 L 141.546 287.861 " fill="#000000"/>
<path class="atom-7" d="M 155.613 290.174 Q 157.361 290.927, 158.356 292.057 Q 159.351 293.16, 159.351 295.042 Q 159.351 296.656, 158.517 297.92 Q 157.684 299.158, 156.177 299.857 Q 154.698 300.529, 152.735 300.529 Q 149.561 300.529, 147.732 299.077 Q 145.903 297.598, 145.903 295.042 Q 145.903 293.483, 146.71 292.326 Q 147.517 291.143, 149.185 290.255 Q 147.947 289.556, 147.275 288.534 Q 146.603 287.485, 146.603 285.871 Q 146.603 283.639, 148.216 282.321 Q 149.857 281.003, 152.627 281.003 Q 155.397 281.003, 157.011 282.321 Q 158.652 283.639, 158.652 285.871 Q 158.652 287.27, 157.872 288.319 Q 157.119 289.341, 155.613 290.174 M 152.627 283.02 Q 151.04 283.02, 150.153 283.773 Q 149.292 284.526, 149.292 285.871 Q 149.292 286.866, 149.884 287.539 Q 150.476 288.184, 151.309 288.561 Q 152.17 288.937, 153.811 289.502 Q 154.967 288.695, 155.451 287.834 Q 155.962 286.974, 155.962 285.871 Q 155.962 284.526, 155.075 283.773 Q 154.214 283.02, 152.627 283.02 M 152.735 298.512 Q 154.51 298.512, 155.586 297.571 Q 156.662 296.602, 156.662 295.016 Q 156.662 293.994, 156.097 293.348 Q 155.532 292.703, 154.671 292.326 Q 153.837 291.95, 152.331 291.465 L 151.121 291.062 Q 149.776 291.869, 149.185 292.837 Q 148.593 293.778, 148.593 295.016 Q 148.593 296.602, 149.722 297.571 Q 150.852 298.512, 152.735 298.512 " fill="#000000"/>
<path class="atom-8" d="M 233.505 193.704 Q 233.505 188.971, 235.71 186.496 Q 237.942 183.995, 242.165 183.995 Q 246.092 183.995, 248.19 186.765 L 246.415 188.217 Q 244.882 186.2, 242.165 186.2 Q 239.287 186.2, 237.754 188.137 Q 236.248 190.046, 236.248 193.704 Q 236.248 197.47, 237.808 199.406 Q 239.395 201.342, 242.461 201.342 Q 244.559 201.342, 247.006 200.078 L 247.759 202.096 Q 246.764 202.741, 245.258 203.118 Q 243.752 203.494, 242.084 203.494 Q 237.942 203.494, 235.71 200.966 Q 233.505 198.438, 233.505 193.704 " fill="#000000"/>
<path class="atom-8" d="M 250.207 200.105 L 252.896 200.105 L 252.896 202.795 L 250.207 202.795 L 250.207 200.105 M 250.207 190.853 L 252.896 190.853 L 252.896 193.543 L 250.207 193.543 L 250.207 190.853 " fill="#000000"/>
<path class="atom-8" d="M 260.777 183.995 Q 264.166 183.995, 265.86 186.308 Q 267.581 188.594, 267.581 193.166 Q 267.581 198.223, 265.457 200.858 Q 263.359 203.467, 259.298 203.467 Q 258.114 203.467, 257.092 203.198 Q 256.097 202.929, 255.129 202.365 L 256.178 200.563 Q 257.576 201.316, 259.271 201.316 Q 261.96 201.316, 263.332 199.594 Q 264.704 197.846, 264.865 194.269 Q 263.897 195.157, 262.66 195.641 Q 261.449 196.098, 260.131 196.098 Q 258.464 196.098, 257.146 195.372 Q 255.828 194.645, 255.102 193.328 Q 254.376 192.01, 254.376 190.342 Q 254.376 188.486, 255.183 187.061 Q 256.016 185.609, 257.469 184.802 Q 258.921 183.995, 260.777 183.995 M 257.065 190.315 Q 257.065 192.01, 258.007 192.978 Q 258.948 193.946, 260.615 193.946 Q 261.772 193.946, 262.902 193.489 Q 264.058 193.005, 264.865 192.198 Q 264.757 189.051, 263.762 187.626 Q 262.767 186.2, 260.75 186.2 Q 259.728 186.2, 258.867 186.738 Q 258.033 187.276, 257.549 188.217 Q 257.065 189.159, 257.065 190.315 " fill="#000000"/>
<path class="atom-9" d="M 183.395 306.788 Q 183.395 302.054, 185.6 299.58 Q 187.832 297.079, 192.055 297.079 Q 195.982 297.079, 198.08 299.849 L 196.304 301.301 Q 194.771 299.284, 192.055 299.284 Q 189.177 299.284, 187.644 301.221 Q 186.138 303.13, 186.138 306.788 Q 186.138 310.553, 187.698 312.49 Q 189.285 314.426, 192.351 314.426 Q 194.449 314.426, 196.896 313.162 L 197.649 315.179 Q 196.654 315.825, 195.148 316.201 Q 193.642 316.578, 191.974 316.578 Q 187.832 316.578, 185.6 314.05 Q 183.395 311.522, 183.395 306.788 " fill="#000000"/>
<path class="atom-9" d="M 200.097 313.189 L 202.786 313.189 L 202.786 315.879 L 200.097 315.879 L 200.097 313.189 M 200.097 303.937 L 202.786 303.937 L 202.786 306.627 L 200.097 306.627 L 200.097 303.937 " fill="#000000"/>
<path class="atom-9" d="M 205.288 314.184 L 209.456 314.184 L 209.456 299.957 L 204.857 301.382 L 204.239 299.795 L 210.075 297.186 L 211.985 297.509 L 211.985 314.184 L 215.723 314.184 L 215.723 316.336 L 205.288 316.336 L 205.288 314.184 " fill="#000000"/>
<path class="atom-9" d="M 224.33 316.551 Q 220.833 316.551, 219.085 313.969 Q 217.364 311.387, 217.364 306.788 Q 217.364 302.189, 219.085 299.634 Q 220.806 297.079, 224.33 297.079 Q 227.853 297.079, 229.574 299.634 Q 231.296 302.189, 231.296 306.788 Q 231.296 311.387, 229.547 313.969 Q 227.826 316.551, 224.33 316.551 M 224.33 314.399 Q 226.401 314.399, 227.503 312.49 Q 228.606 310.553, 228.606 306.788 Q 228.606 303.05, 227.503 301.14 Q 226.401 299.23, 224.33 299.23 Q 222.286 299.23, 221.156 301.14 Q 220.053 303.05, 220.053 306.788 Q 220.053 310.553, 221.156 312.49 Q 222.286 314.399, 224.33 314.399 " fill="#000000"/>
<path class="atom-10" d="M 313.18 161.276 Q 313.18 156.542, 315.385 154.068 Q 317.617 151.566, 321.84 151.566 Q 325.767 151.566, 327.865 154.337 L 326.089 155.789 Q 324.556 153.772, 321.84 153.772 Q 318.962 153.772, 317.429 155.708 Q 315.923 157.618, 315.923 161.276 Q 315.923 165.041, 317.483 166.978 Q 319.07 168.914, 322.136 168.914 Q 324.234 168.914, 326.681 167.65 L 327.434 169.667 Q 326.439 170.313, 324.933 170.689 Q 323.427 171.066, 321.759 171.066 Q 317.617 171.066, 315.385 168.538 Q 313.18 166.009, 313.18 161.276 " fill="#000000"/>
<path class="atom-10" d="M 329.882 167.677 L 332.571 167.677 L 332.571 170.366 L 329.882 170.366 L 329.882 167.677 M 329.882 158.425 L 332.571 158.425 L 332.571 161.114 L 329.882 161.114 L 329.882 158.425 " fill="#000000"/>
<path class="atom-10" d="M 335.073 168.672 L 339.241 168.672 L 339.241 154.444 L 334.642 155.87 L 334.024 154.283 L 339.86 151.674 L 341.77 151.997 L 341.77 168.672 L 345.508 168.672 L 345.508 170.824 L 335.073 170.824 L 335.073 168.672 " fill="#000000"/>
<path class="atom-10" d="M 348.009 168.672 L 352.178 168.672 L 352.178 154.444 L 347.579 155.87 L 346.96 154.283 L 352.797 151.674 L 354.706 151.997 L 354.706 168.672 L 358.445 168.672 L 358.445 170.824 L 348.009 170.824 L 348.009 168.672 " fill="#000000"/>
<path class="atom-11" d="M 427.973 241.904 Q 427.973 237.332, 430.232 234.777 Q 432.492 232.222, 436.714 232.222 Q 440.937 232.222, 443.196 234.777 Q 445.455 237.332, 445.455 241.904 Q 445.455 246.53, 443.169 249.166 Q 440.883 251.775, 436.714 251.775 Q 432.518 251.775, 430.232 249.166 Q 427.973 246.557, 427.973 241.904 M 436.714 249.623 Q 439.619 249.623, 441.179 247.687 Q 442.766 245.724, 442.766 241.904 Q 442.766 238.166, 441.179 236.283 Q 439.619 234.374, 436.714 234.374 Q 433.809 234.374, 432.223 236.256 Q 430.663 238.139, 430.663 241.904 Q 430.663 245.75, 432.223 247.687 Q 433.809 249.623, 436.714 249.623 " fill="#FF0000"/>
<path class="atom-11" d="M 447.472 248.332 L 450.162 248.332 L 450.162 251.022 L 447.472 251.022 L 447.472 248.332 M 447.472 239.08 L 450.162 239.08 L 450.162 241.77 L 447.472 241.77 L 447.472 239.08 " fill="#FF0000"/>
<path class="atom-11" d="M 452.663 249.328 L 456.832 249.328 L 456.832 235.1 L 452.233 236.525 L 451.614 234.938 L 457.451 232.33 L 459.36 232.652 L 459.36 249.328 L 463.099 249.328 L 463.099 251.479 L 452.663 251.479 L 452.663 249.328 " fill="#FF0000"/>
<path class="atom-11" d="M 464.497 236.041 Q 465.197 234.239, 466.864 233.244 Q 468.532 232.222, 470.845 232.222 Q 473.723 232.222, 475.336 233.782 Q 476.95 235.342, 476.95 238.112 Q 476.95 240.936, 474.852 243.572 Q 472.781 246.208, 468.478 249.328 L 477.273 249.328 L 477.273 251.479 L 464.444 251.479 L 464.444 249.677 Q 467.994 247.149, 470.092 245.266 Q 472.216 243.384, 473.238 241.689 Q 474.26 239.995, 474.26 238.247 Q 474.26 236.418, 473.346 235.396 Q 472.432 234.374, 470.845 234.374 Q 469.312 234.374, 468.29 234.992 Q 467.268 235.611, 466.541 236.982 L 464.497 236.041 " fill="#FF0000"/>
<path class="atom-12" d="M 238.927 348.168 L 241.509 348.168 L 241.509 356.263 L 251.245 356.263 L 251.245 348.168 L 253.827 348.168 L 253.827 367.21 L 251.245 367.21 L 251.245 358.415 L 241.509 358.415 L 241.509 367.21 L 238.927 367.21 L 238.927 348.168 " fill="#000000"/>
<path class="atom-12" d="M 255.844 364.063 L 258.534 364.063 L 258.534 366.753 L 255.844 366.753 L 255.844 364.063 M 255.844 354.811 L 258.534 354.811 L 258.534 357.501 L 255.844 357.501 L 255.844 354.811 " fill="#000000"/>
<path class="atom-12" d="M 261.035 365.058 L 265.204 365.058 L 265.204 350.83 L 260.605 352.256 L 259.986 350.669 L 265.823 348.06 L 267.732 348.383 L 267.732 365.058 L 271.471 365.058 L 271.471 367.21 L 261.035 367.21 L 261.035 365.058 " fill="#000000"/>
<path class="atom-12" d="M 281.745 357.178 Q 283.601 357.716, 284.488 358.926 Q 285.403 360.109, 285.403 361.992 Q 285.403 363.606, 284.596 364.87 Q 283.789 366.107, 282.31 366.806 Q 280.83 367.479, 278.894 367.479 Q 276.85 367.479, 275.317 366.78 Q 273.811 366.053, 272.6 364.601 L 274.133 363.041 Q 275.317 364.332, 276.312 364.843 Q 277.307 365.327, 278.894 365.327 Q 280.615 365.327, 281.664 364.413 Q 282.713 363.471, 282.713 361.965 Q 282.713 360.029, 281.61 359.168 Q 280.535 358.281, 278.195 358.281 L 276.823 358.281 L 276.823 356.344 L 278.033 356.344 Q 280.104 356.317, 281.207 355.43 Q 282.31 354.515, 282.31 352.821 Q 282.31 351.584, 281.395 350.857 Q 280.481 350.104, 278.921 350.104 Q 277.334 350.104, 276.339 350.669 Q 275.371 351.234, 274.617 352.659 L 272.762 351.664 Q 273.434 350.077, 275.048 349.028 Q 276.662 347.953, 278.921 347.953 Q 281.718 347.953, 283.359 349.271 Q 284.999 350.588, 284.999 352.821 Q 284.999 354.354, 284.165 355.457 Q 283.332 356.559, 281.745 357.178 " fill="#000000"/>
<path class="atom-13" d="M 354.854 393.971 L 357.436 393.971 L 357.436 402.067 L 367.172 402.067 L 367.172 393.971 L 369.754 393.971 L 369.754 413.013 L 367.172 413.013 L 367.172 404.218 L 357.436 404.218 L 357.436 413.013 L 354.854 413.013 L 354.854 393.971 " fill="#000000"/>
<path class="atom-13" d="M 371.771 409.867 L 374.461 409.867 L 374.461 412.556 L 371.771 412.556 L 371.771 409.867 M 371.771 400.614 L 374.461 400.614 L 374.461 403.304 L 371.771 403.304 L 371.771 400.614 " fill="#000000"/>
<path class="atom-13" d="M 376.962 410.862 L 381.131 410.862 L 381.131 396.634 L 376.532 398.059 L 375.913 396.473 L 381.749 393.864 L 383.659 394.186 L 383.659 410.862 L 387.397 410.862 L 387.397 413.013 L 376.962 413.013 L 376.962 410.862 " fill="#000000"/>
<path class="atom-13" d="M 400.576 406.478 L 402.862 406.478 L 402.862 408.629 L 400.576 408.629 L 400.576 413.013 L 398.048 413.013 L 398.048 408.629 L 388.204 408.629 L 388.204 406.935 L 396.542 393.971 L 400.576 393.971 L 400.576 406.478 M 391.324 406.478 L 398.048 406.478 L 398.048 395.693 L 391.324 406.478 " fill="#000000"/>
<path class="atom-14" d="M 149.386 103.501 L 151.968 103.501 L 151.968 111.596 L 161.704 111.596 L 161.704 103.501 L 164.286 103.501 L 164.286 122.543 L 161.704 122.543 L 161.704 113.748 L 151.968 113.748 L 151.968 122.543 L 149.386 122.543 L 149.386 103.501 " fill="#000000"/>
<path class="atom-14" d="M 166.303 119.396 L 168.992 119.396 L 168.992 122.086 L 166.303 122.086 L 166.303 119.396 M 166.303 110.144 L 168.992 110.144 L 168.992 112.833 L 166.303 112.833 L 166.303 110.144 " fill="#000000"/>
<path class="atom-14" d="M 171.494 120.391 L 175.663 120.391 L 175.663 106.163 L 171.063 107.589 L 170.445 106.002 L 176.281 103.393 L 178.191 103.716 L 178.191 120.391 L 181.929 120.391 L 181.929 122.543 L 171.494 122.543 L 171.494 120.391 " fill="#000000"/>
<path class="atom-14" d="M 190.079 110.628 Q 191.746 110.628, 193.118 111.354 Q 194.489 112.054, 195.269 113.398 Q 196.049 114.716, 196.049 116.518 Q 196.049 118.482, 195.081 119.907 Q 194.14 121.306, 192.58 122.032 Q 191.02 122.758, 189.245 122.758 Q 187.497 122.758, 185.883 122.112 Q 184.269 121.467, 183.166 120.23 L 184.78 118.562 Q 185.668 119.531, 186.878 120.068 Q 188.088 120.579, 189.326 120.579 Q 191.02 120.579, 192.176 119.531 Q 193.36 118.482, 193.36 116.572 Q 193.36 114.555, 192.176 113.613 Q 191.02 112.645, 189.164 112.645 Q 187.497 112.645, 185.641 113.371 L 184.162 112.672 L 185.076 103.501 L 194.866 103.501 L 194.597 105.652 L 187.281 105.652 L 186.717 111.3 Q 188.411 110.628, 190.079 110.628 " fill="#000000"/>
<path class="atom-15" d="M 60.1723 329.722 L 62.7543 329.722 L 62.7543 337.818 L 72.4905 337.818 L 72.4905 329.722 L 75.0725 329.722 L 75.0725 348.764 L 72.4905 348.764 L 72.4905 339.969 L 62.7543 339.969 L 62.7543 348.764 L 60.1723 348.764 L 60.1723 329.722 " fill="#000000"/>
<path class="atom-15" d="M 77.0897 345.618 L 79.7792 345.618 L 79.7792 348.307 L 77.0897 348.307 L 77.0897 345.618 M 77.0897 336.365 L 79.7792 336.365 L 79.7792 339.055 L 77.0897 339.055 L 77.0897 336.365 " fill="#000000"/>
<path class="atom-15" d="M 82.2805 346.613 L 86.4493 346.613 L 86.4493 332.385 L 81.8502 333.81 L 81.2316 332.224 L 87.0679 329.615 L 88.9775 329.937 L 88.9775 346.613 L 92.716 346.613 L 92.716 348.764 L 82.2805 348.764 L 82.2805 346.613 " fill="#000000"/>
<path class="atom-15" d="M 101.995 336.876 Q 103.663 336.876, 104.98 337.603 Q 106.298 338.329, 107.024 339.647 Q 107.751 340.965, 107.751 342.632 Q 107.751 344.488, 106.917 345.94 Q 106.11 347.366, 104.658 348.173 Q 103.205 348.979, 101.349 348.979 Q 97.9607 348.979, 96.2393 346.693 Q 94.5449 344.38, 94.5449 339.808 Q 94.5449 334.752, 96.6428 332.143 Q 98.7675 329.507, 102.829 329.507 Q 104.012 329.507, 105.007 329.776 Q 106.029 330.045, 106.998 330.61 L 105.949 332.412 Q 104.55 331.659, 102.856 331.659 Q 100.166 331.659, 98.7944 333.407 Q 97.4227 335.128, 97.2614 338.705 Q 98.2296 337.818, 99.4399 337.361 Q 100.677 336.876, 101.995 336.876 M 101.376 346.774 Q 102.398 346.774, 103.232 346.236 Q 104.093 345.698, 104.577 344.757 Q 105.061 343.816, 105.061 342.659 Q 105.061 340.965, 104.12 339.996 Q 103.178 339.028, 101.511 339.028 Q 100.354 339.028, 99.1979 339.512 Q 98.0682 339.969, 97.2614 340.776 Q 97.369 343.923, 98.3641 345.349 Q 99.3592 346.774, 101.376 346.774 " fill="#000000"/>
<path class="atom-16" d="M 264.18 159.08 L 266.762 159.08 L 266.762 167.176 L 276.499 167.176 L 276.499 159.08 L 279.08 159.08 L 279.08 178.122 L 276.499 178.122 L 276.499 169.328 L 266.762 169.328 L 266.762 178.122 L 264.18 178.122 L 264.18 159.08 " fill="#000000"/>
<path class="atom-16" d="M 281.098 174.976 L 283.787 174.976 L 283.787 177.665 L 281.098 177.665 L 281.098 174.976 M 281.098 165.724 L 283.787 165.724 L 283.787 168.413 L 281.098 168.413 L 281.098 165.724 " fill="#000000"/>
<path class="atom-16" d="M 286.289 175.971 L 290.457 175.971 L 290.457 161.743 L 285.858 163.169 L 285.24 161.582 L 291.076 158.973 L 292.986 159.296 L 292.986 175.971 L 296.724 175.971 L 296.724 178.122 L 286.289 178.122 L 286.289 175.971 " fill="#000000"/>
<path class="atom-16" d="M 307.186 161.232 L 297.208 161.232 L 297.208 159.08 L 309.849 159.08 L 309.849 160.99 L 302.157 178.122 L 299.575 178.122 L 307.186 161.232 " fill="#000000"/>
<path class="atom-17" d="M 224.276 361.874 L 226.858 361.874 L 226.858 369.969 L 236.594 369.969 L 236.594 361.874 L 239.176 361.874 L 239.176 380.916 L 236.594 380.916 L 236.594 372.121 L 226.858 372.121 L 226.858 380.916 L 224.276 380.916 L 224.276 361.874 " fill="#000000"/>
<path class="atom-17" d="M 241.193 377.769 L 243.883 377.769 L 243.883 380.458 L 241.193 380.458 L 241.193 377.769 M 241.193 368.517 L 243.883 368.517 L 243.883 371.206 L 241.193 371.206 L 241.193 368.517 " fill="#000000"/>
<path class="atom-17" d="M 246.384 378.764 L 250.553 378.764 L 250.553 364.536 L 245.954 365.962 L 245.335 364.375 L 251.171 361.766 L 253.081 362.089 L 253.081 378.764 L 256.819 378.764 L 256.819 380.916 L 246.384 380.916 L 246.384 378.764 " fill="#000000"/>
<path class="atom-17" d="M 268.196 370.83 Q 269.944 371.583, 270.94 372.713 Q 271.935 373.815, 271.935 375.698 Q 271.935 377.312, 271.101 378.576 Q 270.267 379.813, 268.761 380.512 Q 267.282 381.185, 265.318 381.185 Q 262.145 381.185, 260.316 379.732 Q 258.487 378.253, 258.487 375.698 Q 258.487 374.138, 259.294 372.982 Q 260.101 371.798, 261.768 370.911 Q 260.531 370.211, 259.859 369.189 Q 259.186 368.14, 259.186 366.527 Q 259.186 364.294, 260.8 362.976 Q 262.441 361.658, 265.211 361.658 Q 267.981 361.658, 269.595 362.976 Q 271.235 364.294, 271.235 366.527 Q 271.235 367.925, 270.455 368.974 Q 269.702 369.996, 268.196 370.83 M 265.211 363.676 Q 263.624 363.676, 262.736 364.429 Q 261.876 365.182, 261.876 366.527 Q 261.876 367.522, 262.467 368.194 Q 263.059 368.84, 263.893 369.216 Q 264.754 369.593, 266.394 370.157 Q 267.551 369.351, 268.035 368.49 Q 268.546 367.629, 268.546 366.527 Q 268.546 365.182, 267.658 364.429 Q 266.798 363.676, 265.211 363.676 M 265.318 379.168 Q 267.093 379.168, 268.169 378.226 Q 269.245 377.258, 269.245 375.671 Q 269.245 374.649, 268.68 374.004 Q 268.116 373.358, 267.255 372.982 Q 266.421 372.605, 264.915 372.121 L 263.705 371.717 Q 262.36 372.524, 261.768 373.493 Q 261.176 374.434, 261.176 375.671 Q 261.176 377.258, 262.306 378.226 Q 263.436 379.168, 265.318 379.168 " fill="#000000"/>
<path class="atom-18" d="M 275.575 167.403 L 278.157 167.403 L 278.157 175.499 L 287.893 175.499 L 287.893 167.403 L 290.475 167.403 L 290.475 186.445 L 287.893 186.445 L 287.893 177.65 L 278.157 177.65 L 278.157 186.445 L 275.575 186.445 L 275.575 167.403 " fill="#000000"/>
<path class="atom-18" d="M 292.492 183.298 L 295.182 183.298 L 295.182 185.988 L 292.492 185.988 L 292.492 183.298 M 292.492 174.046 L 295.182 174.046 L 295.182 176.736 L 292.492 176.736 L 292.492 174.046 " fill="#000000"/>
<path class="atom-18" d="M 297.683 184.293 L 301.852 184.293 L 301.852 170.066 L 297.253 171.491 L 296.634 169.904 L 302.471 167.295 L 304.38 167.618 L 304.38 184.293 L 308.119 184.293 L 308.119 186.445 L 297.683 186.445 L 297.683 184.293 " fill="#000000"/>
<path class="atom-18" d="M 315.999 167.188 Q 319.388 167.188, 321.082 169.501 Q 322.804 171.787, 322.804 176.359 Q 322.804 181.416, 320.679 184.051 Q 318.581 186.66, 314.52 186.66 Q 313.337 186.66, 312.314 186.391 Q 311.319 186.122, 310.351 185.558 L 311.4 183.756 Q 312.799 184.509, 314.493 184.509 Q 317.183 184.509, 318.554 182.787 Q 319.926 181.039, 320.087 177.462 Q 319.119 178.35, 317.882 178.834 Q 316.672 179.291, 315.354 179.291 Q 313.686 179.291, 312.368 178.565 Q 311.05 177.838, 310.324 176.521 Q 309.598 175.203, 309.598 173.535 Q 309.598 171.679, 310.405 170.254 Q 311.239 168.802, 312.691 167.995 Q 314.143 167.188, 315.999 167.188 M 312.288 173.508 Q 312.288 175.203, 313.229 176.171 Q 314.17 177.139, 315.838 177.139 Q 316.994 177.139, 318.124 176.682 Q 319.28 176.198, 320.087 175.391 Q 319.98 172.244, 318.985 170.819 Q 317.989 169.393, 315.972 169.393 Q 314.95 169.393, 314.09 169.931 Q 313.256 170.469, 312.772 171.41 Q 312.288 172.352, 312.288 173.508 " fill="#000000"/>
<path class="atom-19" d="M 409.832 133.059 L 412.414 133.059 L 412.414 141.155 L 422.151 141.155 L 422.151 133.059 L 424.732 133.059 L 424.732 152.101 L 422.151 152.101 L 422.151 143.306 L 412.414 143.306 L 412.414 152.101 L 409.832 152.101 L 409.832 133.059 " fill="#000000"/>
<path class="atom-19" d="M 426.75 148.954 L 429.439 148.954 L 429.439 151.644 L 426.75 151.644 L 426.75 148.954 M 426.75 139.702 L 429.439 139.702 L 429.439 142.392 L 426.75 142.392 L 426.75 139.702 " fill="#000000"/>
<path class="atom-19" d="M 430.838 136.663 Q 431.537 134.861, 433.205 133.866 Q 434.872 132.844, 437.185 132.844 Q 440.063 132.844, 441.677 134.404 Q 443.29 135.964, 443.29 138.734 Q 443.29 141.558, 441.193 144.194 Q 439.122 146.83, 434.818 149.95 L 443.613 149.95 L 443.613 152.101 L 430.784 152.101 L 430.784 150.299 Q 434.334 147.771, 436.432 145.888 Q 438.557 144.006, 439.579 142.311 Q 440.601 140.617, 440.601 138.869 Q 440.601 137.04, 439.686 136.018 Q 438.772 134.996, 437.185 134.996 Q 435.652 134.996, 434.63 135.614 Q 433.608 136.233, 432.882 137.604 L 430.838 136.663 " fill="#000000"/>
<path class="atom-19" d="M 452.22 152.316 Q 448.723 152.316, 446.975 149.734 Q 445.254 147.152, 445.254 142.553 Q 445.254 137.954, 446.975 135.399 Q 448.696 132.844, 452.22 132.844 Q 455.743 132.844, 457.464 135.399 Q 459.186 137.954, 459.186 142.553 Q 459.186 147.152, 457.438 149.734 Q 455.716 152.316, 452.22 152.316 M 452.22 150.165 Q 454.291 150.165, 455.393 148.255 Q 456.496 146.319, 456.496 142.553 Q 456.496 138.815, 455.393 136.905 Q 454.291 134.996, 452.22 134.996 Q 450.176 134.996, 449.046 136.905 Q 447.943 138.815, 447.943 142.553 Q 447.943 146.319, 449.046 148.255 Q 450.176 150.165, 452.22 150.165 " fill="#000000"/>
<path class="atom-20" d="M 22.7273 200.563 L 25.3092 200.563 L 25.3092 208.658 L 35.0455 208.658 L 35.0455 200.563 L 37.6274 200.563 L 37.6274 219.605 L 35.0455 219.605 L 35.0455 210.81 L 25.3092 210.81 L 25.3092 219.605 L 22.7273 219.605 L 22.7273 200.563 " fill="#000000"/>
<path class="atom-20" d="M 39.6446 216.458 L 42.3342 216.458 L 42.3342 219.148 L 39.6446 219.148 L 39.6446 216.458 M 39.6446 207.206 L 42.3342 207.206 L 42.3342 209.895 L 39.6446 209.895 L 39.6446 207.206 " fill="#000000"/>
<path class="atom-20" d="M 43.7327 204.167 Q 44.432 202.365, 46.0995 201.37 Q 47.7671 200.348, 50.0801 200.348 Q 52.9579 200.348, 54.5717 201.907 Q 56.1854 203.467, 56.1854 206.238 Q 56.1854 209.062, 54.0875 211.697 Q 52.0166 214.333, 47.7133 217.453 L 56.5081 217.453 L 56.5081 219.605 L 43.6789 219.605 L 43.6789 217.803 Q 47.2292 215.275, 49.327 213.392 Q 51.4518 211.509, 52.4738 209.815 Q 53.4958 208.12, 53.4958 206.372 Q 53.4958 204.543, 52.5814 203.521 Q 51.6669 202.499, 50.0801 202.499 Q 48.547 202.499, 47.525 203.118 Q 46.503 203.736, 45.7768 205.108 L 43.7327 204.167 " fill="#000000"/>
<path class="atom-20" d="M 59.0094 217.453 L 63.1782 217.453 L 63.1782 203.225 L 58.5791 204.651 L 57.9605 203.064 L 63.7968 200.455 L 65.7064 200.778 L 65.7064 217.453 L 69.4449 217.453 L 69.4449 219.605 L 59.0094 219.605 L 59.0094 217.453 " fill="#000000"/>
<path class="atom-21" d="M 326.53 87.2018 L 329.112 87.2018 L 329.112 95.2974 L 338.848 95.2974 L 338.848 87.2018 L 341.43 87.2018 L 341.43 106.244 L 338.848 106.244 L 338.848 97.4491 L 329.112 97.4491 L 329.112 106.244 L 326.53 106.244 L 326.53 87.2018 " fill="#000000"/>
<path class="atom-21" d="M 343.447 103.097 L 346.137 103.097 L 346.137 105.787 L 343.447 105.787 L 343.447 103.097 M 343.447 93.845 L 346.137 93.845 L 346.137 96.5346 L 343.447 96.5346 L 343.447 93.845 " fill="#000000"/>
<path class="atom-21" d="M 347.535 90.8058 Q 348.235 89.0038, 349.902 88.0087 Q 351.57 86.9867, 353.883 86.9867 Q 356.761 86.9867, 358.374 88.5466 Q 359.988 90.1066, 359.988 92.8768 Q 359.988 95.7008, 357.89 98.3366 Q 355.819 100.972, 351.516 104.092 L 360.311 104.092 L 360.311 106.244 L 347.482 106.244 L 347.482 104.442 Q 351.032 101.914, 353.13 100.031 Q 355.255 98.1483, 356.277 96.4539 Q 357.299 94.7595, 357.299 93.0113 Q 357.299 91.1824, 356.384 90.1603 Q 355.47 89.1383, 353.883 89.1383 Q 352.35 89.1383, 351.328 89.7569 Q 350.306 90.3755, 349.58 91.7472 L 347.535 90.8058 " fill="#000000"/>
<path class="atom-21" d="M 361.709 90.8058 Q 362.409 89.0038, 364.076 88.0087 Q 365.744 86.9867, 368.057 86.9867 Q 370.935 86.9867, 372.548 88.5466 Q 374.162 90.1066, 374.162 92.8768 Q 374.162 95.7008, 372.064 98.3366 Q 369.993 100.972, 365.69 104.092 L 374.485 104.092 L 374.485 106.244 L 361.656 106.244 L 361.656 104.442 Q 365.206 101.914, 367.304 100.031 Q 369.428 98.1483, 370.451 96.4539 Q 371.473 94.7595, 371.473 93.0113 Q 371.473 91.1824, 370.558 90.1603 Q 369.644 89.1383, 368.057 89.1383 Q 366.524 89.1383, 365.502 89.7569 Q 364.48 90.3755, 363.754 91.7472 L 361.709 90.8058 " fill="#000000"/>
<text x="334.2199752578589" y="306.56882722994203" font-size="12" font-family="Verdana" font-weight="bold" letter-spacing="0" text-anchor="start" fill="black" transform=" rotate(-16.167575 334.219975 306.568827)">0.9875</text><text x="25" y="490" font-size="12" font-family="Verdana" font-weight="bold" letter-spacing="0" text-anchor="start" fill="black">[H:1]-[#6:2](-[#7:3](-[#6:4](-[#6:11](-[H:19])(-[H:20])-[H:22])=[#8:12])-[#6:5]1:[#6:9](:[#6:7](:[#6:6](:[#6:8](:[#6:10]:1-[H:18])-[H:16])-[H:21])-[H:15])-[H:17])(-[H:13])-[H:14]</text></svg>
