<?xml version='1.0' encoding='ASCII' standalone='yes'?>
<svg xmlns="http://www.w3.org/2000/svg" xmlns:rdkit="http://www.rdkit.org/xml" xmlns:xlink="http://www.w3.org/1999/xlink" version="1.1" baseProfile="full" xml:space="preserve" width="500px" height="500px" viewBox="0 0 500 500">
<!-- END OF HEADER -->
<rect style="opacity:1.0;fill:#FFFFFF;stroke:none" width="500" height="500" x="0" y="0"> </rect>
<path d="M 126.069,198.313 L 163.539,255.561" style="fill:none;fill-rule:evenodd;stroke:#FF7F7F;stroke-width:14.6px;stroke-linecap:butt;stroke-linejoin:miter;stroke-opacity:1"/>
<path class="bond-0 atom-1 atom-0" d="M 108.11,210.068 L 75.8373,231.191" style="fill:none;fill-rule:evenodd;stroke:#000000;stroke-width:2.0px;stroke-linecap:butt;stroke-linejoin:miter;stroke-opacity:1"/>
<path class="bond-1 atom-1 atom-10" d="M 139.034,189.826 L 174.413,166.67" style="fill:none;fill-rule:evenodd;stroke:#000000;stroke-width:2.0px;stroke-linecap:butt;stroke-linejoin:miter;stroke-opacity:1"/>
<path class="bond-2 atom-1 atom-11" d="M 118.536,186.804 L 95.9057,152.229" style="fill:none;fill-rule:evenodd;stroke:#000000;stroke-width:2.0px;stroke-linecap:butt;stroke-linejoin:miter;stroke-opacity:1"/>
<path class="bond-5 atom-2 atom-1" d="M 156.15,244.272 L 144.765,226.878" style="fill:none;fill-rule:evenodd;stroke:#0000FF;stroke-width:2.0px;stroke-linecap:butt;stroke-linejoin:miter;stroke-opacity:1"/>
<path class="bond-5 atom-2 atom-1" d="M 144.765,226.878 L 133.38,209.484" style="fill:none;fill-rule:evenodd;stroke:#000000;stroke-width:2.0px;stroke-linecap:butt;stroke-linejoin:miter;stroke-opacity:1"/>
<path class="bond-3 atom-2 atom-3" d="M 176.473,254.837 L 191.723,253.983" style="fill:none;fill-rule:evenodd;stroke:#0000FF;stroke-width:2.0px;stroke-linecap:butt;stroke-linejoin:miter;stroke-opacity:1"/>
<path class="bond-3 atom-2 atom-3" d="M 191.723,253.983 L 206.973,253.129" style="fill:none;fill-rule:evenodd;stroke:#000000;stroke-width:2.0px;stroke-linecap:butt;stroke-linejoin:miter;stroke-opacity:1"/>
<path class="bond-4 atom-2 atom-4" d="M 157.962,266.605 L 148.102,286.13" style="fill:none;fill-rule:evenodd;stroke:#0000FF;stroke-width:2.0px;stroke-linecap:butt;stroke-linejoin:miter;stroke-opacity:1"/>
<path class="bond-4 atom-2 atom-4" d="M 148.102,286.13 L 138.241,305.656" style="fill:none;fill-rule:evenodd;stroke:#000000;stroke-width:2.0px;stroke-linecap:butt;stroke-linejoin:miter;stroke-opacity:1"/>
<path class="bond-8 atom-5 atom-3" d="M 257.12,201.704 L 237.398,240.755" style="fill:none;fill-rule:evenodd;stroke:#000000;stroke-width:2.0px;stroke-linecap:butt;stroke-linejoin:miter;stroke-opacity:1"/>
<path class="bond-8 atom-5 atom-3" d="M 266.376,213.73 L 252.571,241.066" style="fill:none;fill-rule:evenodd;stroke:#000000;stroke-width:2.0px;stroke-linecap:butt;stroke-linejoin:miter;stroke-opacity:1"/>
<path class="bond-17 atom-9 atom-3" d="M 261.863,297.585 L 239.163,262.903" style="fill:none;fill-rule:evenodd;stroke:#000000;stroke-width:2.0px;stroke-linecap:butt;stroke-linejoin:miter;stroke-opacity:1"/>
<path class="bond-6 atom-4 atom-12" d="M 134.647,332.11 L 145.893,349.292" style="fill:none;fill-rule:evenodd;stroke:#000000;stroke-width:2.0px;stroke-linecap:butt;stroke-linejoin:miter;stroke-opacity:1"/>
<path class="bond-6 atom-4 atom-12" d="M 145.893,349.292 L 157.138,366.474" style="fill:none;fill-rule:evenodd;stroke:#FF0000;stroke-width:2.0px;stroke-linecap:butt;stroke-linejoin:miter;stroke-opacity:1"/>
<path class="bond-6 atom-4 atom-12" d="M 146.097,324.616 L 157.342,341.798" style="fill:none;fill-rule:evenodd;stroke:#000000;stroke-width:2.0px;stroke-linecap:butt;stroke-linejoin:miter;stroke-opacity:1"/>
<path class="bond-6 atom-4 atom-12" d="M 157.342,341.798 L 168.588,358.979" style="fill:none;fill-rule:evenodd;stroke:#FF0000;stroke-width:2.0px;stroke-linecap:butt;stroke-linejoin:miter;stroke-opacity:1"/>
<path class="bond-7 atom-4 atom-17" d="M 108.099,318.014 L 72.3187,320.018" style="fill:none;fill-rule:evenodd;stroke:#000000;stroke-width:2.0px;stroke-linecap:butt;stroke-linejoin:miter;stroke-opacity:1"/>
<path class="bond-9 atom-5 atom-13" d="M 255.164,179.152 L 232.498,144.522" style="fill:none;fill-rule:evenodd;stroke:#000000;stroke-width:2.0px;stroke-linecap:butt;stroke-linejoin:miter;stroke-opacity:1"/>
<path class="bond-13 atom-7 atom-5" d="M 306.028,188.234 L 275.589,189.938" style="fill:none;fill-rule:evenodd;stroke:#000000;stroke-width:2.0px;stroke-linecap:butt;stroke-linejoin:miter;stroke-opacity:1"/>
<path class="bond-10 atom-6 atom-7" d="M 360.948,232.574 L 338.497,198.273" style="fill:none;fill-rule:evenodd;stroke:#000000;stroke-width:2.0px;stroke-linecap:butt;stroke-linejoin:miter;stroke-opacity:1"/>
<path class="bond-10 atom-6 atom-7" d="M 346.131,234.923 L 330.415,210.912" style="fill:none;fill-rule:evenodd;stroke:#000000;stroke-width:2.0px;stroke-linecap:butt;stroke-linejoin:miter;stroke-opacity:1"/>
<path class="bond-11 atom-6 atom-8" d="M 362.545,255.838 L 343.283,293.978" style="fill:none;fill-rule:evenodd;stroke:#000000;stroke-width:2.0px;stroke-linecap:butt;stroke-linejoin:miter;stroke-opacity:1"/>
<path class="bond-12 atom-6 atom-18" d="M 380.751,243.396 L 427.811,240.76" style="fill:none;fill-rule:evenodd;stroke:#000000;stroke-width:2.0px;stroke-linecap:butt;stroke-linejoin:miter;stroke-opacity:1"/>
<path class="bond-14 atom-7 atom-14" d="M 336.822,175.326 L 356.232,136.891" style="fill:none;fill-rule:evenodd;stroke:#000000;stroke-width:2.0px;stroke-linecap:butt;stroke-linejoin:miter;stroke-opacity:1"/>
<path class="bond-15 atom-8 atom-9" d="M 312.821,306.547 L 289.027,307.88" style="fill:none;fill-rule:evenodd;stroke:#000000;stroke-width:2.0px;stroke-linecap:butt;stroke-linejoin:miter;stroke-opacity:1"/>
<path class="bond-15 atom-8 atom-9" d="M 308.487,293.085 L 291.831,294.017" style="fill:none;fill-rule:evenodd;stroke:#000000;stroke-width:2.0px;stroke-linecap:butt;stroke-linejoin:miter;stroke-opacity:1"/>
<path class="bond-16 atom-8 atom-15" d="M 345.313,316.885 L 367.948,351.467" style="fill:none;fill-rule:evenodd;stroke:#000000;stroke-width:2.0px;stroke-linecap:butt;stroke-linejoin:miter;stroke-opacity:1"/>
<path class="bond-18 atom-9 atom-16" d="M 263.512,320.492 L 244.046,359.036" style="fill:none;fill-rule:evenodd;stroke:#000000;stroke-width:2.0px;stroke-linecap:butt;stroke-linejoin:miter;stroke-opacity:1"/>
<path class="atom-0" d="M 41.5476 226.15 L 44.175 226.15 L 44.175 234.388 L 54.0824 234.388 L 54.0824 226.15 L 56.7097 226.15 L 56.7097 245.527 L 54.0824 245.527 L 54.0824 236.577 L 44.175 236.577 L 44.175 245.527 L 41.5476 245.527 L 41.5476 226.15 " fill="#000000"/>
<path class="atom-0" d="M 58.7624 242.324 L 61.4992 242.324 L 61.4992 245.061 L 58.7624 245.061 L 58.7624 242.324 M 58.7624 232.91 L 61.4992 232.91 L 61.4992 235.647 L 58.7624 235.647 L 58.7624 232.91 " fill="#000000"/>
<path class="atom-0" d="M 64.0445 243.337 L 68.2866 243.337 L 68.2866 228.859 L 63.6066 230.31 L 62.9771 228.695 L 68.916 226.04 L 70.8592 226.369 L 70.8592 243.337 L 74.6634 243.337 L 74.6634 245.527 L 64.0445 245.527 L 64.0445 243.337 " fill="#000000"/>
<path class="atom-1" d="M 103.168 198.395 Q 103.168 193.578, 105.412 191.06 Q 107.684 188.515, 111.981 188.515 Q 115.977 188.515, 118.111 191.334 L 116.305 192.812 Q 114.745 190.759, 111.981 190.759 Q 109.052 190.759, 107.492 192.73 Q 105.96 194.673, 105.96 198.395 Q 105.96 202.227, 107.547 204.197 Q 109.162 206.168, 112.282 206.168 Q 114.417 206.168, 116.907 204.881 L 117.673 206.934 Q 116.661 207.591, 115.128 207.974 Q 113.596 208.357, 111.899 208.357 Q 107.684 208.357, 105.412 205.784 Q 103.168 203.212, 103.168 198.395 " fill="#000000"/>
<path class="atom-1" d="M 120.164 204.909 L 122.901 204.909 L 122.901 207.646 L 120.164 207.646 L 120.164 204.909 M 120.164 195.494 L 122.901 195.494 L 122.901 198.231 L 120.164 198.231 L 120.164 195.494 " fill="#000000"/>
<path class="atom-1" d="M 124.324 192.401 Q 125.036 190.568, 126.732 189.555 Q 128.429 188.515, 130.783 188.515 Q 133.711 188.515, 135.353 190.102 Q 136.996 191.69, 136.996 194.509 Q 136.996 197.382, 134.861 200.064 Q 132.753 202.747, 128.375 205.921 L 137.324 205.921 L 137.324 208.111 L 124.269 208.111 L 124.269 206.277 Q 127.882 203.704, 130.017 201.789 Q 132.179 199.873, 133.219 198.149 Q 134.259 196.424, 134.259 194.646 Q 134.259 192.784, 133.328 191.744 Q 132.398 190.704, 130.783 190.704 Q 129.223 190.704, 128.183 191.334 Q 127.143 191.963, 126.404 193.359 L 124.324 192.401 " fill="#000000"/>
<path class="atom-2" d="M 144.165 245.982 L 150.514 256.246 Q 151.144 257.258, 152.156 259.092 Q 153.169 260.926, 153.224 261.035 L 153.224 245.982 L 155.796 245.982 L 155.796 265.359 L 153.142 265.359 L 146.327 254.138 Q 145.533 252.825, 144.685 251.319 Q 143.864 249.814, 143.617 249.349 L 143.617 265.359 L 141.099 265.359 L 141.099 245.982 L 144.165 245.982 " fill="#0000FF"/>
<path class="atom-2" d="M 157.849 262.157 L 160.586 262.157 L 160.586 264.894 L 157.849 264.894 L 157.849 262.157 M 157.849 252.742 L 160.586 252.742 L 160.586 255.479 L 157.849 255.479 L 157.849 252.742 " fill="#0000FF"/>
<path class="atom-2" d="M 171.04 255.151 Q 172.929 255.698, 173.832 256.93 Q 174.763 258.134, 174.763 260.05 Q 174.763 261.692, 173.942 262.978 Q 173.12 264.237, 171.615 264.949 Q 170.11 265.633, 168.139 265.633 Q 166.059 265.633, 164.499 264.921 Q 162.967 264.182, 161.735 262.705 L 163.295 261.117 Q 164.499 262.431, 165.512 262.951 Q 166.525 263.443, 168.139 263.443 Q 169.891 263.443, 170.958 262.513 Q 172.026 261.555, 172.026 260.022 Q 172.026 258.052, 170.904 257.176 Q 169.809 256.273, 167.428 256.273 L 166.032 256.273 L 166.032 254.302 L 167.264 254.302 Q 169.371 254.275, 170.493 253.372 Q 171.615 252.441, 171.615 250.717 Q 171.615 249.458, 170.685 248.719 Q 169.754 247.953, 168.167 247.953 Q 166.552 247.953, 165.539 248.528 Q 164.554 249.102, 163.788 250.553 L 161.899 249.54 Q 162.584 247.926, 164.226 246.858 Q 165.868 245.763, 168.167 245.763 Q 171.013 245.763, 172.683 247.105 Q 174.352 248.446, 174.352 250.717 Q 174.352 252.277, 173.504 253.399 Q 172.655 254.521, 171.04 255.151 " fill="#0000FF"/>
<path class="atom-3" d="M 208.36 251.817 Q 208.36 247, 210.604 244.483 Q 212.875 241.937, 217.172 241.937 Q 221.168 241.937, 223.303 244.756 L 221.497 246.234 Q 219.937 244.182, 217.172 244.182 Q 214.244 244.182, 212.684 246.152 Q 211.151 248.095, 211.151 251.817 Q 211.151 255.649, 212.739 257.619 Q 214.353 259.59, 217.473 259.59 Q 219.608 259.59, 222.099 258.304 L 222.865 260.356 Q 221.852 261.013, 220.32 261.396 Q 218.787 261.779, 217.09 261.779 Q 212.875 261.779, 210.604 259.207 Q 208.36 256.634, 208.36 251.817 " fill="#000000"/>
<path class="atom-3" d="M 225.355 258.331 L 228.092 258.331 L 228.092 261.068 L 225.355 261.068 L 225.355 258.331 M 225.355 248.916 L 228.092 248.916 L 228.092 251.653 L 225.355 251.653 L 225.355 248.916 " fill="#000000"/>
<path class="atom-3" d="M 241.503 254.883 L 243.829 254.883 L 243.829 257.072 L 241.503 257.072 L 241.503 261.533 L 238.93 261.533 L 238.93 257.072 L 228.913 257.072 L 228.913 255.348 L 237.398 242.156 L 241.503 242.156 L 241.503 254.883 M 232.088 254.883 L 238.93 254.883 L 238.93 243.908 L 232.088 254.883 " fill="#000000"/>
<path class="atom-4" d="M 109.809 316.718 Q 109.809 311.901, 112.053 309.383 Q 114.325 306.838, 118.622 306.838 Q 122.617 306.838, 124.752 309.657 L 122.946 311.135 Q 121.386 309.082, 118.622 309.082 Q 115.693 309.082, 114.133 311.053 Q 112.601 312.996, 112.601 316.718 Q 112.601 320.55, 114.188 322.52 Q 115.803 324.491, 118.923 324.491 Q 121.057 324.491, 123.548 323.204 L 124.314 325.257 Q 123.302 325.914, 121.769 326.297 Q 120.236 326.68, 118.54 326.68 Q 114.325 326.68, 112.053 324.108 Q 109.809 321.535, 109.809 316.718 " fill="#000000"/>
<path class="atom-4" d="M 126.805 323.232 L 129.542 323.232 L 129.542 325.969 L 126.805 325.969 L 126.805 323.232 M 126.805 313.817 L 129.542 313.817 L 129.542 316.554 L 126.805 316.554 L 126.805 313.817 " fill="#000000"/>
<path class="atom-4" d="M 137.834 314.31 Q 139.531 314.31, 140.927 315.049 Q 142.323 315.76, 143.116 317.129 Q 143.91 318.47, 143.91 320.303 Q 143.91 322.301, 142.925 323.752 Q 141.967 325.175, 140.38 325.914 Q 138.792 326.653, 136.986 326.653 Q 135.207 326.653, 133.565 325.996 Q 131.923 325.339, 130.801 324.08 L 132.443 322.383 Q 133.346 323.369, 134.577 323.916 Q 135.809 324.436, 137.068 324.436 Q 138.792 324.436, 139.969 323.369 Q 141.173 322.301, 141.173 320.358 Q 141.173 318.306, 139.969 317.348 Q 138.792 316.362, 136.904 316.362 Q 135.207 316.362, 133.318 317.101 L 131.813 316.39 L 132.744 307.057 L 142.706 307.057 L 142.432 309.247 L 134.988 309.247 L 134.413 314.994 Q 136.137 314.31, 137.834 314.31 " fill="#000000"/>
<path class="atom-5" d="M 239.472 190.743 Q 239.472 185.926, 241.716 183.408 Q 243.988 180.863, 248.285 180.863 Q 252.281 180.863, 254.415 183.682 L 252.609 185.159 Q 251.049 183.107, 248.285 183.107 Q 245.356 183.107, 243.796 185.077 Q 242.264 187.021, 242.264 190.743 Q 242.264 194.574, 243.851 196.545 Q 245.466 198.515, 248.586 198.515 Q 250.721 198.515, 253.211 197.229 L 253.977 199.282 Q 252.965 199.938, 251.432 200.322 Q 249.9 200.705, 248.203 200.705 Q 243.988 200.705, 241.716 198.132 Q 239.472 195.559, 239.472 190.743 " fill="#000000"/>
<path class="atom-5" d="M 256.468 197.256 L 259.205 197.256 L 259.205 199.993 L 256.468 199.993 L 256.468 197.256 M 256.468 187.842 L 259.205 187.842 L 259.205 190.578 L 256.468 190.578 L 256.468 187.842 " fill="#000000"/>
<path class="atom-5" d="M 268.647 188.362 Q 270.344 188.362, 271.685 189.101 Q 273.026 189.839, 273.765 191.181 Q 274.504 192.522, 274.504 194.218 Q 274.504 196.107, 273.655 197.585 Q 272.834 199.035, 271.356 199.856 Q 269.878 200.677, 267.99 200.677 Q 264.542 200.677, 262.79 198.351 Q 261.066 195.997, 261.066 191.345 Q 261.066 186.199, 263.201 183.545 Q 265.363 180.863, 269.495 180.863 Q 270.7 180.863, 271.712 181.136 Q 272.752 181.41, 273.737 181.985 L 272.67 183.818 Q 271.247 183.052, 269.523 183.052 Q 266.786 183.052, 265.39 184.831 Q 263.994 186.583, 263.83 190.223 Q 264.815 189.319, 266.047 188.854 Q 267.306 188.362, 268.647 188.362 M 268.017 198.433 Q 269.057 198.433, 269.906 197.886 Q 270.782 197.338, 271.274 196.381 Q 271.767 195.423, 271.767 194.246 Q 271.767 192.522, 270.809 191.536 Q 269.851 190.551, 268.154 190.551 Q 266.977 190.551, 265.801 191.044 Q 264.651 191.509, 263.83 192.33 Q 263.94 195.532, 264.952 196.983 Q 265.965 198.433, 268.017 198.433 " fill="#000000"/>
<path class="atom-6" d="M 345.952 244.165 Q 345.952 239.348, 348.196 236.83 Q 350.468 234.285, 354.765 234.285 Q 358.761 234.285, 360.895 237.104 L 359.089 238.582 Q 357.529 236.529, 354.765 236.529 Q 351.836 236.529, 350.276 238.5 Q 348.744 240.443, 348.744 244.165 Q 348.744 247.997, 350.331 249.967 Q 351.946 251.938, 355.066 251.938 Q 357.201 251.938, 359.691 250.651 L 360.457 252.704 Q 359.445 253.361, 357.912 253.744 Q 356.38 254.127, 354.683 254.127 Q 350.468 254.127, 348.196 251.554 Q 345.952 248.982, 345.952 244.165 " fill="#000000"/>
<path class="atom-6" d="M 362.948 250.679 L 365.685 250.679 L 365.685 253.415 L 362.948 253.415 L 362.948 250.679 M 362.948 241.264 L 365.685 241.264 L 365.685 244.001 L 362.948 244.001 L 362.948 241.264 " fill="#000000"/>
<path class="atom-6" d="M 376.331 236.693 L 366.177 236.693 L 366.177 234.504 L 379.041 234.504 L 379.041 236.447 L 371.213 253.881 L 368.586 253.881 L 376.331 236.693 " fill="#000000"/>
<path class="atom-7" d="M 307.738 186.916 Q 307.738 182.1, 309.982 179.582 Q 312.254 177.036, 316.551 177.036 Q 320.547 177.036, 322.681 179.855 L 320.875 181.333 Q 319.315 179.281, 316.551 179.281 Q 313.622 179.281, 312.062 181.251 Q 310.53 183.194, 310.53 186.916 Q 310.53 190.748, 312.117 192.719 Q 313.732 194.689, 316.852 194.689 Q 318.987 194.689, 321.477 193.403 L 322.243 195.455 Q 321.231 196.112, 319.698 196.495 Q 318.166 196.879, 316.469 196.879 Q 312.254 196.879, 309.982 194.306 Q 307.738 191.733, 307.738 186.916 " fill="#000000"/>
<path class="atom-7" d="M 324.734 193.43 L 327.471 193.43 L 327.471 196.167 L 324.734 196.167 L 324.734 193.43 M 324.734 184.015 L 327.471 184.015 L 327.471 186.752 L 324.734 186.752 L 324.734 184.015 " fill="#000000"/>
<path class="atom-7" d="M 339.048 186.369 Q 340.827 187.135, 341.839 188.285 Q 342.852 189.407, 342.852 191.323 Q 342.852 192.965, 342.003 194.251 Q 341.155 195.51, 339.622 196.222 Q 338.117 196.906, 336.119 196.906 Q 332.89 196.906, 331.029 195.428 Q 329.168 193.923, 329.168 191.323 Q 329.168 189.735, 329.989 188.559 Q 330.81 187.354, 332.507 186.451 Q 331.248 185.74, 330.563 184.7 Q 329.879 183.632, 329.879 181.99 Q 329.879 179.719, 331.521 178.378 Q 333.191 177.036, 336.01 177.036 Q 338.829 177.036, 340.471 178.378 Q 342.14 179.719, 342.14 181.99 Q 342.14 183.413, 341.347 184.481 Q 340.58 185.521, 339.048 186.369 M 336.01 179.089 Q 334.395 179.089, 333.492 179.855 Q 332.616 180.622, 332.616 181.99 Q 332.616 183.003, 333.218 183.687 Q 333.82 184.344, 334.669 184.727 Q 335.544 185.11, 337.214 185.685 Q 338.391 184.864, 338.883 183.988 Q 339.403 183.112, 339.403 181.99 Q 339.403 180.622, 338.5 179.855 Q 337.624 179.089, 336.01 179.089 M 336.119 194.853 Q 337.926 194.853, 339.02 193.895 Q 340.115 192.91, 340.115 191.295 Q 340.115 190.255, 339.54 189.599 Q 338.966 188.942, 338.09 188.559 Q 337.241 188.175, 335.709 187.683 L 334.477 187.272 Q 333.109 188.093, 332.507 189.079 Q 331.904 190.036, 331.904 191.295 Q 331.904 192.91, 333.054 193.895 Q 334.203 194.853, 336.119 194.853 " fill="#000000"/>
<path class="atom-8" d="M 314.532 305.24 Q 314.532 300.423, 316.776 297.905 Q 319.048 295.36, 323.344 295.36 Q 327.34 295.36, 329.475 298.179 L 327.669 299.656 Q 326.109 297.604, 323.344 297.604 Q 320.416 297.604, 318.856 299.574 Q 317.323 301.518, 317.323 305.24 Q 317.323 309.071, 318.911 311.042 Q 320.526 313.012, 323.646 313.012 Q 325.78 313.012, 328.271 311.726 L 329.037 313.779 Q 328.024 314.435, 326.492 314.819 Q 324.959 315.202, 323.262 315.202 Q 319.048 315.202, 316.776 312.629 Q 314.532 310.056, 314.532 305.24 " fill="#000000"/>
<path class="atom-8" d="M 331.528 311.753 L 334.264 311.753 L 334.264 314.49 L 331.528 314.49 L 331.528 311.753 M 331.528 302.339 L 334.264 302.339 L 334.264 305.075 L 331.528 305.075 L 331.528 302.339 " fill="#000000"/>
<path class="atom-8" d="M 342.283 295.36 Q 345.732 295.36, 347.456 297.713 Q 349.208 300.04, 349.208 304.692 Q 349.208 309.837, 347.045 312.52 Q 344.911 315.174, 340.778 315.174 Q 339.574 315.174, 338.534 314.901 Q 337.521 314.627, 336.536 314.052 L 337.603 312.219 Q 339.027 312.985, 340.751 312.985 Q 343.488 312.985, 344.883 311.233 Q 346.279 309.454, 346.443 305.814 Q 345.458 306.717, 344.199 307.21 Q 342.968 307.675, 341.627 307.675 Q 339.93 307.675, 338.589 306.936 Q 337.248 306.198, 336.509 304.856 Q 335.77 303.515, 335.77 301.819 Q 335.77 299.93, 336.591 298.48 Q 337.439 297.002, 338.917 296.181 Q 340.395 295.36, 342.283 295.36 M 338.507 301.791 Q 338.507 303.515, 339.464 304.501 Q 340.422 305.486, 342.119 305.486 Q 343.296 305.486, 344.445 305.021 Q 345.622 304.528, 346.443 303.707 Q 346.334 300.505, 345.321 299.054 Q 344.309 297.604, 342.256 297.604 Q 341.216 297.604, 340.34 298.151 Q 339.492 298.699, 338.999 299.656 Q 338.507 300.614, 338.507 301.791 " fill="#000000"/>
<path class="atom-9" d="M 239.195 309.066 Q 239.195 304.249, 241.439 301.731 Q 243.71 299.186, 248.007 299.186 Q 252.003 299.186, 254.138 302.005 L 252.331 303.483 Q 250.771 301.43, 248.007 301.43 Q 245.079 301.43, 243.519 303.401 Q 241.986 305.344, 241.986 309.066 Q 241.986 312.897, 243.573 314.868 Q 245.188 316.838, 248.308 316.838 Q 250.443 316.838, 252.933 315.552 L 253.7 317.605 Q 252.687 318.262, 251.154 318.645 Q 249.622 319.028, 247.925 319.028 Q 243.71 319.028, 241.439 316.455 Q 239.195 313.883, 239.195 309.066 " fill="#000000"/>
<path class="atom-9" d="M 256.19 315.579 L 258.927 315.579 L 258.927 318.316 L 256.19 318.316 L 256.19 315.579 M 256.19 306.165 L 258.927 306.165 L 258.927 308.902 L 256.19 308.902 L 256.19 306.165 " fill="#000000"/>
<path class="atom-9" d="M 261.472 316.592 L 265.714 316.592 L 265.714 302.114 L 261.034 303.565 L 260.405 301.95 L 266.344 299.295 L 268.287 299.624 L 268.287 316.592 L 272.091 316.592 L 272.091 318.782 L 261.472 318.782 L 261.472 316.592 " fill="#000000"/>
<path class="atom-9" d="M 280.849 319.001 Q 277.291 319.001, 275.512 316.373 Q 273.761 313.746, 273.761 309.066 Q 273.761 304.386, 275.512 301.786 Q 277.264 299.186, 280.849 299.186 Q 284.434 299.186, 286.186 301.786 Q 287.938 304.386, 287.938 309.066 Q 287.938 313.746, 286.159 316.373 Q 284.407 319.001, 280.849 319.001 M 280.849 316.811 Q 282.957 316.811, 284.079 314.868 Q 285.201 312.897, 285.201 309.066 Q 285.201 305.262, 284.079 303.318 Q 282.957 301.375, 280.849 301.375 Q 278.769 301.375, 277.62 303.318 Q 276.498 305.262, 276.498 309.066 Q 276.498 312.897, 277.62 314.868 Q 278.769 316.811, 280.849 316.811 " fill="#000000"/>
<path class="atom-10" d="M 175.736 151.209 L 178.364 151.209 L 178.364 159.447 L 188.271 159.447 L 188.271 151.209 L 190.898 151.209 L 190.898 170.586 L 188.271 170.586 L 188.271 161.636 L 178.364 161.636 L 178.364 170.586 L 175.736 170.586 L 175.736 151.209 " fill="#000000"/>
<path class="atom-10" d="M 192.951 167.383 L 195.688 167.383 L 195.688 170.12 L 192.951 170.12 L 192.951 167.383 M 192.951 157.969 L 195.688 157.969 L 195.688 160.706 L 192.951 160.706 L 192.951 157.969 " fill="#000000"/>
<path class="atom-10" d="M 198.233 168.396 L 202.475 168.396 L 202.475 153.918 L 197.795 155.369 L 197.166 153.754 L 203.105 151.099 L 205.048 151.428 L 205.048 168.396 L 208.852 168.396 L 208.852 170.586 L 198.233 170.586 L 198.233 168.396 " fill="#000000"/>
<path class="atom-10" d="M 211.397 168.396 L 215.639 168.396 L 215.639 153.918 L 210.959 155.369 L 210.33 153.754 L 216.269 151.099 L 218.212 151.428 L 218.212 168.396 L 222.016 168.396 L 222.016 170.586 L 211.397 170.586 L 211.397 168.396 " fill="#000000"/>
<path class="atom-11" d="M 47.5867 131.485 L 50.214 131.485 L 50.214 139.723 L 60.1214 139.723 L 60.1214 131.485 L 62.7488 131.485 L 62.7488 150.862 L 60.1214 150.862 L 60.1214 141.913 L 50.214 141.913 L 50.214 150.862 L 47.5867 150.862 L 47.5867 131.485 " fill="#000000"/>
<path class="atom-11" d="M 64.8014 147.66 L 67.5382 147.66 L 67.5382 150.397 L 64.8014 150.397 L 64.8014 147.66 M 64.8014 138.245 L 67.5382 138.245 L 67.5382 140.982 L 64.8014 140.982 L 64.8014 138.245 " fill="#000000"/>
<path class="atom-11" d="M 70.0835 148.673 L 74.3256 148.673 L 74.3256 134.195 L 69.6456 135.645 L 69.0161 134.031 L 74.9551 131.376 L 76.8982 131.704 L 76.8982 148.673 L 80.7024 148.673 L 80.7024 150.862 L 70.0835 150.862 L 70.0835 148.673 " fill="#000000"/>
<path class="atom-11" d="M 82.1256 135.153 Q 82.8372 133.319, 84.534 132.307 Q 86.2308 131.267, 88.5845 131.267 Q 91.5129 131.267, 93.155 132.854 Q 94.7971 134.441, 94.7971 137.26 Q 94.7971 140.134, 92.6624 142.816 Q 90.555 145.498, 86.1761 148.673 L 95.1256 148.673 L 95.1256 150.862 L 82.0708 150.862 L 82.0708 149.029 Q 85.6835 146.456, 87.8182 144.54 Q 89.9803 142.624, 91.0203 140.9 Q 92.0603 139.176, 92.0603 137.397 Q 92.0603 135.536, 91.1298 134.496 Q 90.1993 133.456, 88.5845 133.456 Q 87.0245 133.456, 85.9845 134.085 Q 84.9445 134.715, 84.2056 136.111 L 82.1256 135.153 " fill="#000000"/>
<path class="atom-12" d="M 161.272 373.939 Q 161.272 369.287, 163.571 366.687 Q 165.87 364.087, 170.166 364.087 Q 174.463 364.087, 176.762 366.687 Q 179.061 369.287, 179.061 373.939 Q 179.061 378.647, 176.735 381.329 Q 174.408 383.983, 170.166 383.983 Q 165.897 383.983, 163.571 381.329 Q 161.272 378.674, 161.272 373.939 M 170.166 381.794 Q 173.122 381.794, 174.71 379.823 Q 176.324 377.826, 176.324 373.939 Q 176.324 370.135, 174.71 368.219 Q 173.122 366.276, 170.166 366.276 Q 167.211 366.276, 165.596 368.192 Q 164.009 370.108, 164.009 373.939 Q 164.009 377.853, 165.596 379.823 Q 167.211 381.794, 170.166 381.794 " fill="#FF0000"/>
<path class="atom-12" d="M 181.114 380.48 L 183.851 380.48 L 183.851 383.217 L 181.114 383.217 L 181.114 380.48 M 181.114 371.066 L 183.851 371.066 L 183.851 373.802 L 181.114 373.802 L 181.114 371.066 " fill="#FF0000"/>
<path class="atom-12" d="M 186.396 381.493 L 190.638 381.493 L 190.638 367.015 L 185.958 368.466 L 185.328 366.851 L 191.267 364.196 L 193.211 364.525 L 193.211 381.493 L 197.015 381.493 L 197.015 383.682 L 186.396 383.682 L 186.396 381.493 " fill="#FF0000"/>
<path class="atom-12" d="M 207.47 373.474 Q 209.358 374.021, 210.261 375.253 Q 211.192 376.457, 211.192 378.373 Q 211.192 380.015, 210.371 381.301 Q 209.55 382.56, 208.044 383.272 Q 206.539 383.956, 204.568 383.956 Q 202.488 383.956, 200.928 383.245 Q 199.396 382.506, 198.164 381.028 L 199.724 379.44 Q 200.928 380.754, 201.941 381.274 Q 202.954 381.767, 204.568 381.767 Q 206.32 381.767, 207.387 380.836 Q 208.455 379.878, 208.455 378.346 Q 208.455 376.375, 207.333 375.499 Q 206.238 374.596, 203.857 374.596 L 202.461 374.596 L 202.461 372.626 L 203.693 372.626 Q 205.8 372.598, 206.922 371.695 Q 208.044 370.765, 208.044 369.04 Q 208.044 367.781, 207.114 367.042 Q 206.183 366.276, 204.596 366.276 Q 202.981 366.276, 201.968 366.851 Q 200.983 367.426, 200.217 368.876 L 198.328 367.863 Q 199.013 366.249, 200.655 365.181 Q 202.297 364.087, 204.596 364.087 Q 207.442 364.087, 209.112 365.428 Q 210.781 366.769, 210.781 369.04 Q 210.781 370.6, 209.933 371.722 Q 209.084 372.845, 207.47 373.474 " fill="#FF0000"/>
<path class="atom-13" d="M 183.831 123.778 L 186.459 123.778 L 186.459 132.016 L 196.366 132.016 L 196.366 123.778 L 198.993 123.778 L 198.993 143.155 L 196.366 143.155 L 196.366 134.206 L 186.459 134.206 L 186.459 143.155 L 183.831 143.155 L 183.831 123.778 " fill="#000000"/>
<path class="atom-13" d="M 201.046 139.953 L 203.783 139.953 L 203.783 142.69 L 201.046 142.69 L 201.046 139.953 M 201.046 130.538 L 203.783 130.538 L 203.783 133.275 L 201.046 133.275 L 201.046 130.538 " fill="#000000"/>
<path class="atom-13" d="M 206.328 140.966 L 210.57 140.966 L 210.57 126.488 L 205.89 127.938 L 205.261 126.324 L 211.2 123.669 L 213.143 123.997 L 213.143 140.966 L 216.947 140.966 L 216.947 143.155 L 206.328 143.155 L 206.328 140.966 " fill="#000000"/>
<path class="atom-13" d="M 230.358 136.505 L 232.684 136.505 L 232.684 138.694 L 230.358 138.694 L 230.358 143.155 L 227.785 143.155 L 227.785 138.694 L 217.768 138.694 L 217.768 136.97 L 226.252 123.778 L 230.358 123.778 L 230.358 136.505 M 220.943 136.505 L 227.785 136.505 L 227.785 125.53 L 220.943 136.505 " fill="#000000"/>
<path class="atom-14" d="M 354.273 116.126 L 356.9 116.126 L 356.9 124.364 L 366.808 124.364 L 366.808 116.126 L 369.435 116.126 L 369.435 135.503 L 366.808 135.503 L 366.808 126.553 L 356.9 126.553 L 356.9 135.503 L 354.273 135.503 L 354.273 116.126 " fill="#000000"/>
<path class="atom-14" d="M 371.488 132.301 L 374.224 132.301 L 374.224 135.038 L 371.488 135.038 L 371.488 132.301 M 371.488 122.886 L 374.224 122.886 L 374.224 125.623 L 371.488 125.623 L 371.488 122.886 " fill="#000000"/>
<path class="atom-14" d="M 376.77 133.313 L 381.012 133.313 L 381.012 118.835 L 376.332 120.286 L 375.702 118.671 L 381.641 116.017 L 383.584 116.345 L 383.584 133.313 L 387.389 133.313 L 387.389 135.503 L 376.77 135.503 L 376.77 133.313 " fill="#000000"/>
<path class="atom-14" d="M 395.681 123.379 Q 397.378 123.379, 398.774 124.118 Q 400.17 124.829, 400.963 126.198 Q 401.757 127.539, 401.757 129.372 Q 401.757 131.37, 400.772 132.821 Q 399.814 134.244, 398.226 134.983 Q 396.639 135.722, 394.833 135.722 Q 393.054 135.722, 391.412 135.065 Q 389.77 134.408, 388.647 133.149 L 390.29 131.452 Q 391.193 132.438, 392.424 132.985 Q 393.656 133.505, 394.915 133.505 Q 396.639 133.505, 397.816 132.438 Q 399.02 131.37, 399.02 129.427 Q 399.02 127.374, 397.816 126.417 Q 396.639 125.431, 394.751 125.431 Q 393.054 125.431, 391.165 126.17 L 389.66 125.459 L 390.591 116.126 L 400.553 116.126 L 400.279 118.315 L 392.835 118.315 L 392.26 124.063 Q 393.984 123.379, 395.681 123.379 " fill="#000000"/>
<path class="atom-15" d="M 367.527 352.827 L 370.154 352.827 L 370.154 361.065 L 380.062 361.065 L 380.062 352.827 L 382.689 352.827 L 382.689 372.204 L 380.062 372.204 L 380.062 363.254 L 370.154 363.254 L 370.154 372.204 L 367.527 372.204 L 367.527 352.827 " fill="#000000"/>
<path class="atom-15" d="M 384.742 369.002 L 387.479 369.002 L 387.479 371.739 L 384.742 371.739 L 384.742 369.002 M 384.742 359.587 L 387.479 359.587 L 387.479 362.324 L 384.742 362.324 L 384.742 359.587 " fill="#000000"/>
<path class="atom-15" d="M 390.024 370.014 L 394.266 370.014 L 394.266 355.537 L 389.586 356.987 L 388.957 355.372 L 394.895 352.718 L 396.839 353.046 L 396.839 370.014 L 400.643 370.014 L 400.643 372.204 L 390.024 372.204 L 390.024 370.014 " fill="#000000"/>
<path class="atom-15" d="M 410.085 360.107 Q 411.782 360.107, 413.123 360.846 Q 414.464 361.585, 415.203 362.926 Q 415.942 364.267, 415.942 365.964 Q 415.942 367.852, 415.093 369.33 Q 414.272 370.781, 412.794 371.602 Q 411.316 372.423, 409.428 372.423 Q 405.98 372.423, 404.228 370.097 Q 402.504 367.743, 402.504 363.09 Q 402.504 357.945, 404.639 355.29 Q 406.801 352.608, 410.933 352.608 Q 412.138 352.608, 413.15 352.882 Q 414.19 353.155, 415.175 353.73 L 414.108 355.564 Q 412.685 354.798, 410.961 354.798 Q 408.224 354.798, 406.828 356.577 Q 405.432 358.328, 405.268 361.968 Q 406.253 361.065, 407.485 360.6 Q 408.744 360.107, 410.085 360.107 M 409.455 370.179 Q 410.495 370.179, 411.344 369.631 Q 412.22 369.084, 412.712 368.126 Q 413.205 367.168, 413.205 365.991 Q 413.205 364.267, 412.247 363.282 Q 411.289 362.297, 409.592 362.297 Q 408.415 362.297, 407.239 362.789 Q 406.089 363.254, 405.268 364.075 Q 405.378 367.278, 406.39 368.728 Q 407.403 370.179, 409.455 370.179 " fill="#000000"/>
<path class="atom-16" d="M 198.44 360.425 L 201.068 360.425 L 201.068 368.663 L 210.975 368.663 L 210.975 360.425 L 213.602 360.425 L 213.602 379.802 L 210.975 379.802 L 210.975 370.852 L 201.068 370.852 L 201.068 379.802 L 198.44 379.802 L 198.44 360.425 " fill="#000000"/>
<path class="atom-16" d="M 215.655 376.599 L 218.392 376.599 L 218.392 379.336 L 215.655 379.336 L 215.655 376.599 M 215.655 367.185 L 218.392 367.185 L 218.392 369.922 L 215.655 369.922 L 215.655 367.185 " fill="#000000"/>
<path class="atom-16" d="M 220.937 377.612 L 225.179 377.612 L 225.179 363.134 L 220.499 364.585 L 219.87 362.97 L 225.809 360.315 L 227.752 360.644 L 227.752 377.612 L 231.556 377.612 L 231.556 379.802 L 220.937 379.802 L 220.937 377.612 " fill="#000000"/>
<path class="atom-16" d="M 242.202 362.614 L 232.049 362.614 L 232.049 360.425 L 244.912 360.425 L 244.912 362.368 L 237.085 379.802 L 234.457 379.802 L 242.202 362.614 " fill="#000000"/>
<path class="atom-17" d="M 22.7273 310.883 L 25.3546 310.883 L 25.3546 319.121 L 35.262 319.121 L 35.262 310.883 L 37.8894 310.883 L 37.8894 330.26 L 35.262 330.26 L 35.262 321.311 L 25.3546 321.311 L 25.3546 330.26 L 22.7273 330.26 L 22.7273 310.883 " fill="#000000"/>
<path class="atom-17" d="M 39.942 327.058 L 42.6788 327.058 L 42.6788 329.795 L 39.942 329.795 L 39.942 327.058 M 39.942 317.643 L 42.6788 317.643 L 42.6788 320.38 L 39.942 320.38 L 39.942 317.643 " fill="#000000"/>
<path class="atom-17" d="M 45.2241 328.071 L 49.4662 328.071 L 49.4662 313.593 L 44.7862 315.043 L 44.1567 313.429 L 50.0957 310.774 L 52.0388 311.102 L 52.0388 328.071 L 55.843 328.071 L 55.843 330.26 L 45.2241 330.26 L 45.2241 328.071 " fill="#000000"/>
<path class="atom-17" d="M 67.4199 319.997 Q 69.1988 320.763, 70.2114 321.913 Q 71.2241 323.035, 71.2241 324.951 Q 71.2241 326.593, 70.3756 327.879 Q 69.5272 329.138, 67.9946 329.85 Q 66.4893 330.534, 64.4914 330.534 Q 61.262 330.534, 59.4009 329.056 Q 57.5399 327.551, 57.5399 324.951 Q 57.5399 323.363, 58.3609 322.186 Q 59.182 320.982, 60.8788 320.079 Q 59.6199 319.367, 58.9357 318.327 Q 58.2514 317.26, 58.2514 315.618 Q 58.2514 313.346, 59.8935 312.005 Q 61.563 310.664, 64.382 310.664 Q 67.2009 310.664, 68.843 312.005 Q 70.5125 313.346, 70.5125 315.618 Q 70.5125 317.041, 69.7188 318.109 Q 68.9525 319.149, 67.4199 319.997 M 64.382 312.717 Q 62.7672 312.717, 61.8641 313.483 Q 60.9883 314.25, 60.9883 315.618 Q 60.9883 316.631, 61.5904 317.315 Q 62.1925 317.972, 63.0409 318.355 Q 63.9167 318.738, 65.5862 319.313 Q 66.763 318.492, 67.2556 317.616 Q 67.7756 316.74, 67.7756 315.618 Q 67.7756 314.25, 66.8725 313.483 Q 65.9967 312.717, 64.382 312.717 M 64.4914 328.481 Q 66.2977 328.481, 67.3925 327.523 Q 68.4872 326.538, 68.4872 324.923 Q 68.4872 323.883, 67.9125 323.226 Q 67.3377 322.57, 66.462 322.186 Q 65.6135 321.803, 64.0809 321.311 L 62.8493 320.9 Q 61.4809 321.721, 60.8788 322.706 Q 60.2767 323.664, 60.2767 324.923 Q 60.2767 326.538, 61.4262 327.523 Q 62.5756 328.481, 64.4914 328.481 " fill="#000000"/>
<path class="atom-18" d="M 429.214 230.678 L 431.841 230.678 L 431.841 238.916 L 441.749 238.916 L 441.749 230.678 L 444.376 230.678 L 444.376 250.055 L 441.749 250.055 L 441.749 241.105 L 431.841 241.105 L 431.841 250.055 L 429.214 250.055 L 429.214 230.678 " fill="#000000"/>
<path class="atom-18" d="M 446.429 246.852 L 449.165 246.852 L 449.165 249.589 L 446.429 249.589 L 446.429 246.852 M 446.429 237.438 L 449.165 237.438 L 449.165 240.175 L 446.429 240.175 L 446.429 237.438 " fill="#000000"/>
<path class="atom-18" d="M 451.711 247.865 L 455.953 247.865 L 455.953 233.387 L 451.273 234.838 L 450.643 233.223 L 456.582 230.568 L 458.525 230.897 L 458.525 247.865 L 462.33 247.865 L 462.33 250.055 L 451.711 250.055 L 451.711 247.865 " fill="#000000"/>
<path class="atom-18" d="M 470.349 230.459 Q 473.797 230.459, 475.521 232.812 Q 477.273 235.139, 477.273 239.791 Q 477.273 244.937, 475.111 247.619 Q 472.976 250.273, 468.843 250.273 Q 467.639 250.273, 466.599 250 Q 465.586 249.726, 464.601 249.151 L 465.669 247.318 Q 467.092 248.084, 468.816 248.084 Q 471.553 248.084, 472.949 246.332 Q 474.344 244.553, 474.509 240.913 Q 473.523 241.817, 472.264 242.309 Q 471.033 242.775, 469.692 242.775 Q 467.995 242.775, 466.654 242.036 Q 465.313 241.297, 464.574 239.956 Q 463.835 238.615, 463.835 236.918 Q 463.835 235.029, 464.656 233.579 Q 465.504 232.101, 466.982 231.28 Q 468.46 230.459, 470.349 230.459 M 466.572 236.89 Q 466.572 238.615, 467.53 239.6 Q 468.487 240.585, 470.184 240.585 Q 471.361 240.585, 472.511 240.12 Q 473.687 239.627, 474.509 238.806 Q 474.399 235.604, 473.386 234.153 Q 472.374 232.703, 470.321 232.703 Q 469.281 232.703, 468.405 233.25 Q 467.557 233.798, 467.064 234.756 Q 466.572 235.713, 466.572 236.89 " fill="#000000"/>
<text x="144.80398807167552" y="226.93713580083687" font-size="12" font-family="Verdana" font-weight="bold" letter-spacing="0" text-anchor="start" fill="black" transform=" rotate(-33.205721 144.803988 226.937136)">0.9863</text><text x="25" y="490" font-size="12" font-family="Verdana" font-weight="bold" letter-spacing="0" text-anchor="start" fill="black">[H:1]-[#6:2](-[#7:3](-[#6:4]1:[#6:6](:[#6:8](:[#6:7](:[#6:9](:[#6:10]:1-[H:17])-[H:16])-[H:19])-[H:15])-[H:14])-[#6:5](=[#8:13])-[H:18])(-[H:11])-[H:12]</text></svg>
