<?xml version='1.0' encoding='ASCII' standalone='yes'?>
<svg xmlns="http://www.w3.org/2000/svg" xmlns:rdkit="http://www.rdkit.org/xml" xmlns:xlink="http://www.w3.org/1999/xlink" version="1.1" baseProfile="full" xml:space="preserve" width="500px" height="500px" viewBox="0 0 500 500">
<!-- END OF HEADER -->
<rect style="opacity:1.0;fill:#FFFFFF;stroke:none" width="500" height="500" x="0" y="0"> </rect>
<path d="M 310.946,249.872 L 390.895,249.872" style="fill:none;fill-rule:evenodd;stroke:#FF7F7F;stroke-width:17.1px;stroke-linecap:butt;stroke-linejoin:miter;stroke-opacity:1"/>
<path class="bond-0 atom-0 atom-2" d="M 303.015,263.607 L 278.506,306.059" style="fill:none;fill-rule:evenodd;stroke:#000000;stroke-width:2.0px;stroke-linecap:butt;stroke-linejoin:miter;stroke-opacity:1"/>
<path class="bond-0 atom-0 atom-2" d="M 285.491,261.98 L 268.335,291.697" style="fill:none;fill-rule:evenodd;stroke:#000000;stroke-width:2.0px;stroke-linecap:butt;stroke-linejoin:miter;stroke-opacity:1"/>
<path class="bond-1 atom-0 atom-3" d="M 303.182,236.425 L 278.511,193.693" style="fill:none;fill-rule:evenodd;stroke:#000000;stroke-width:2.0px;stroke-linecap:butt;stroke-linejoin:miter;stroke-opacity:1"/>
<path class="bond-2 atom-1 atom-0" d="M 362.577,249.872 L 343.559,249.872" style="fill:none;fill-rule:evenodd;stroke:#0000FF;stroke-width:2.0px;stroke-linecap:butt;stroke-linejoin:miter;stroke-opacity:1"/>
<path class="bond-2 atom-1 atom-0" d="M 343.559,249.872 L 324.541,249.872" style="fill:none;fill-rule:evenodd;stroke:#000000;stroke-width:2.0px;stroke-linecap:butt;stroke-linejoin:miter;stroke-opacity:1"/>
<path class="bond-3 atom-1 atom-7" d="M 398.659,263.32 L 411.068,284.813" style="fill:none;fill-rule:evenodd;stroke:#0000FF;stroke-width:2.0px;stroke-linecap:butt;stroke-linejoin:miter;stroke-opacity:1"/>
<path class="bond-3 atom-1 atom-7" d="M 411.068,284.813 L 423.478,306.307" style="fill:none;fill-rule:evenodd;stroke:#000000;stroke-width:2.0px;stroke-linecap:butt;stroke-linejoin:miter;stroke-opacity:1"/>
<path class="bond-4 atom-1 atom-12" d="M 398.659,236.425 L 410.995,215.059" style="fill:none;fill-rule:evenodd;stroke:#0000FF;stroke-width:2.0px;stroke-linecap:butt;stroke-linejoin:miter;stroke-opacity:1"/>
<path class="bond-4 atom-1 atom-12" d="M 410.995,215.059 L 423.33,193.693" style="fill:none;fill-rule:evenodd;stroke:#000000;stroke-width:2.0px;stroke-linecap:butt;stroke-linejoin:miter;stroke-opacity:1"/>
<path class="bond-5 atom-2 atom-4" d="M 242.312,319.11 L 205.407,319.11" style="fill:none;fill-rule:evenodd;stroke:#000000;stroke-width:2.0px;stroke-linecap:butt;stroke-linejoin:miter;stroke-opacity:1"/>
<path class="bond-6 atom-2 atom-8" d="M 278.919,332.878 L 303.559,375.555" style="fill:none;fill-rule:evenodd;stroke:#000000;stroke-width:2.0px;stroke-linecap:butt;stroke-linejoin:miter;stroke-opacity:1"/>
<path class="bond-7 atom-3 atom-5" d="M 241.52,180.634 L 206.08,180.634" style="fill:none;fill-rule:evenodd;stroke:#000000;stroke-width:2.0px;stroke-linecap:butt;stroke-linejoin:miter;stroke-opacity:1"/>
<path class="bond-7 atom-3 atom-5" d="M 236.204,196.624 L 211.396,196.624" style="fill:none;fill-rule:evenodd;stroke:#000000;stroke-width:2.0px;stroke-linecap:butt;stroke-linejoin:miter;stroke-opacity:1"/>
<path class="bond-8 atom-3 atom-9" d="M 278.587,167.442 L 303.402,124.462" style="fill:none;fill-rule:evenodd;stroke:#000000;stroke-width:2.0px;stroke-linecap:butt;stroke-linejoin:miter;stroke-opacity:1"/>
<path class="bond-9 atom-4 atom-6" d="M 183.257,305.663 L 158.586,262.931" style="fill:none;fill-rule:evenodd;stroke:#000000;stroke-width:2.0px;stroke-linecap:butt;stroke-linejoin:miter;stroke-opacity:1"/>
<path class="bond-9 atom-4 atom-6" d="M 193.404,291.258 L 176.135,261.346" style="fill:none;fill-rule:evenodd;stroke:#000000;stroke-width:2.0px;stroke-linecap:butt;stroke-linejoin:miter;stroke-opacity:1"/>
<path class="bond-10 atom-4 atom-10" d="M 183.091,332.846 L 158.544,375.362" style="fill:none;fill-rule:evenodd;stroke:#000000;stroke-width:2.0px;stroke-linecap:butt;stroke-linejoin:miter;stroke-opacity:1"/>
<path class="bond-11 atom-5 atom-6" d="M 183.091,194.369 L 158.434,237.077" style="fill:none;fill-rule:evenodd;stroke:#000000;stroke-width:2.0px;stroke-linecap:butt;stroke-linejoin:miter;stroke-opacity:1"/>
<path class="bond-12 atom-5 atom-11" d="M 183.257,167.186 L 158.586,124.455" style="fill:none;fill-rule:evenodd;stroke:#000000;stroke-width:2.0px;stroke-linecap:butt;stroke-linejoin:miter;stroke-opacity:1"/>
<path class="bond-13 atom-6 atom-13" d="M 122.723,249.872 L 81.1019,249.872" style="fill:none;fill-rule:evenodd;stroke:#000000;stroke-width:2.0px;stroke-linecap:butt;stroke-linejoin:miter;stroke-opacity:1"/>
<path class="atom-0" d="M 284.81 249.968 Q 284.81 244.34, 287.432 241.397 Q 290.087 238.423, 295.108 238.423 Q 299.777 238.423, 302.271 241.717 L 300.16 243.444 Q 298.338 241.046, 295.108 241.046 Q 291.686 241.046, 289.863 243.348 Q 288.072 245.619, 288.072 249.968 Q 288.072 254.445, 289.927 256.748 Q 291.814 259.05, 295.459 259.05 Q 297.954 259.05, 300.864 257.547 L 301.759 259.946 Q 300.576 260.713, 298.785 261.161 Q 296.994 261.609, 295.012 261.609 Q 290.087 261.609, 287.432 258.603 Q 284.81 255.596, 284.81 249.968 " fill="#000000"/>
<path class="atom-0" d="M 304.67 257.579 L 307.868 257.579 L 307.868 260.777 L 304.67 260.777 L 304.67 257.579 M 304.67 246.578 L 307.868 246.578 L 307.868 249.776 L 304.67 249.776 L 304.67 246.578 " fill="#000000"/>
<path class="atom-0" d="M 310.842 258.762 L 315.799 258.762 L 315.799 241.845 L 310.33 243.54 L 309.594 241.653 L 316.534 238.551 L 318.805 238.935 L 318.805 258.762 L 323.25 258.762 L 323.25 261.321 L 310.842 261.321 L 310.842 258.762 " fill="#000000"/>
<path class="atom-1" d="M 368.158 238.679 L 375.577 250.672 Q 376.312 251.855, 377.496 253.997 Q 378.679 256.14, 378.743 256.268 L 378.743 238.679 L 381.749 238.679 L 381.749 261.321 L 378.647 261.321 L 370.684 248.209 Q 369.757 246.674, 368.765 244.915 Q 367.806 243.156, 367.518 242.613 L 367.518 261.321 L 364.576 261.321 L 364.576 238.679 L 368.158 238.679 " fill="#0000FF"/>
<path class="atom-1" d="M 384.147 257.579 L 387.345 257.579 L 387.345 260.777 L 384.147 260.777 L 384.147 257.579 M 384.147 246.578 L 387.345 246.578 L 387.345 249.776 L 384.147 249.776 L 384.147 246.578 " fill="#0000FF"/>
<path class="atom-1" d="M 389.008 242.964 Q 389.84 240.822, 391.823 239.639 Q 393.805 238.423, 396.556 238.423 Q 399.977 238.423, 401.896 240.278 Q 403.815 242.133, 403.815 245.427 Q 403.815 248.785, 401.321 251.919 Q 398.858 255.053, 393.741 258.762 L 404.199 258.762 L 404.199 261.321 L 388.944 261.321 L 388.944 259.178 Q 393.166 256.172, 395.66 253.934 Q 398.187 251.695, 399.402 249.68 Q 400.617 247.665, 400.617 245.587 Q 400.617 243.412, 399.53 242.197 Q 398.442 240.982, 396.556 240.982 Q 394.733 240.982, 393.518 241.717 Q 392.302 242.453, 391.439 244.084 L 389.008 242.964 " fill="#0000FF"/>
<path class="atom-2" d="M 244.31 319.206 Q 244.31 313.578, 246.933 310.636 Q 249.587 307.662, 254.608 307.662 Q 259.277 307.662, 261.771 310.956 L 259.661 312.683 Q 257.838 310.284, 254.608 310.284 Q 251.186 310.284, 249.363 312.587 Q 247.572 314.857, 247.572 319.206 Q 247.572 323.684, 249.427 325.986 Q 251.314 328.289, 254.96 328.289 Q 257.454 328.289, 260.364 326.786 L 261.26 329.184 Q 260.076 329.952, 258.285 330.399 Q 256.495 330.847, 254.512 330.847 Q 249.587 330.847, 246.933 327.841 Q 244.31 324.835, 244.31 319.206 " fill="#000000"/>
<path class="atom-2" d="M 264.17 326.818 L 267.368 326.818 L 267.368 330.016 L 264.17 330.016 L 264.17 326.818 M 264.17 315.817 L 267.368 315.817 L 267.368 319.015 L 264.17 319.015 L 264.17 315.817 " fill="#000000"/>
<path class="atom-2" d="M 279.584 318.631 Q 281.791 319.27, 282.846 320.709 Q 283.933 322.117, 283.933 324.355 Q 283.933 326.274, 282.974 327.777 Q 282.014 329.248, 280.256 330.08 Q 278.497 330.879, 276.194 330.879 Q 273.764 330.879, 271.941 330.048 Q 270.15 329.184, 268.711 327.457 L 270.534 325.602 Q 271.941 327.137, 273.124 327.745 Q 274.307 328.321, 276.194 328.321 Q 278.241 328.321, 279.488 327.233 Q 280.735 326.114, 280.735 324.323 Q 280.735 322.021, 279.424 320.997 Q 278.145 319.942, 275.363 319.942 L 273.732 319.942 L 273.732 317.639 L 275.171 317.639 Q 277.633 317.607, 278.944 316.552 Q 280.256 315.465, 280.256 313.45 Q 280.256 311.979, 279.168 311.116 Q 278.081 310.22, 276.226 310.22 Q 274.339 310.22, 273.156 310.892 Q 272.005 311.563, 271.109 313.258 L 268.903 312.075 Q 269.702 310.188, 271.621 308.941 Q 273.54 307.662, 276.226 307.662 Q 279.552 307.662, 281.503 309.229 Q 283.454 310.796, 283.454 313.45 Q 283.454 315.273, 282.462 316.584 Q 281.471 317.895, 279.584 318.631 " fill="#000000"/>
<path class="atom-3" d="M 243.519 180.73 Q 243.519 175.101, 246.141 172.159 Q 248.795 169.185, 253.816 169.185 Q 258.485 169.185, 260.98 172.479 L 258.869 174.206 Q 257.046 171.807, 253.816 171.807 Q 250.394 171.807, 248.572 174.11 Q 246.781 176.38, 246.781 180.73 Q 246.781 185.207, 248.636 187.509 Q 250.522 189.812, 254.168 189.812 Q 256.662 189.812, 259.573 188.309 L 260.468 190.707 Q 259.285 191.475, 257.494 191.923 Q 255.703 192.37, 253.72 192.37 Q 248.795 192.37, 246.141 189.364 Q 243.519 186.358, 243.519 180.73 " fill="#000000"/>
<path class="atom-3" d="M 263.378 188.341 L 266.576 188.341 L 266.576 191.539 L 263.378 191.539 L 263.378 188.341 M 263.378 177.34 L 266.576 177.34 L 266.576 180.538 L 263.378 180.538 L 263.378 177.34 " fill="#000000"/>
<path class="atom-3" d="M 282.246 184.311 L 284.965 184.311 L 284.965 186.87 L 282.246 186.87 L 282.246 192.082 L 279.24 192.082 L 279.24 186.87 L 267.536 186.87 L 267.536 184.855 L 277.449 169.441 L 282.246 169.441 L 282.246 184.311 M 271.245 184.311 L 279.24 184.311 L 279.24 171.487 L 271.245 184.311 " fill="#000000"/>
<path class="atom-4" d="M 164.278 319.206 Q 164.278 313.578, 166.9 310.636 Q 169.555 307.662, 174.576 307.662 Q 179.245 307.662, 181.739 310.956 L 179.628 312.683 Q 177.806 310.284, 174.576 310.284 Q 171.154 310.284, 169.331 312.587 Q 167.54 314.857, 167.54 319.206 Q 167.54 323.684, 169.395 325.986 Q 171.282 328.289, 174.927 328.289 Q 177.422 328.289, 180.332 326.786 L 181.227 329.184 Q 180.044 329.952, 178.253 330.399 Q 176.462 330.847, 174.48 330.847 Q 169.555 330.847, 166.9 327.841 Q 164.278 324.835, 164.278 319.206 " fill="#000000"/>
<path class="atom-4" d="M 184.138 326.818 L 187.336 326.818 L 187.336 330.016 L 184.138 330.016 L 184.138 326.818 M 184.138 315.817 L 187.336 315.817 L 187.336 319.015 L 184.138 319.015 L 184.138 315.817 " fill="#000000"/>
<path class="atom-4" d="M 197.025 316.392 Q 199.008 316.392, 200.639 317.256 Q 202.27 318.087, 203.198 319.686 Q 204.125 321.253, 204.125 323.396 Q 204.125 325.73, 202.974 327.425 Q 201.854 329.088, 200 329.952 Q 198.145 330.815, 196.034 330.815 Q 193.955 330.815, 192.037 330.048 Q 190.118 329.28, 188.807 327.809 L 190.725 325.826 Q 191.781 326.978, 193.22 327.617 Q 194.659 328.225, 196.13 328.225 Q 198.145 328.225, 199.52 326.978 Q 200.927 325.73, 200.927 323.46 Q 200.927 321.061, 199.52 319.942 Q 198.145 318.791, 195.938 318.791 Q 193.955 318.791, 191.749 319.654 L 189.99 318.823 L 191.077 307.918 L 202.718 307.918 L 202.398 310.476 L 193.699 310.476 L 193.028 317.192 Q 195.043 316.392, 197.025 316.392 " fill="#000000"/>
<path class="atom-5" d="M 163.884 180.73 Q 163.884 175.101, 166.506 172.159 Q 169.16 169.185, 174.181 169.185 Q 178.85 169.185, 181.345 172.479 L 179.234 174.206 Q 177.411 171.807, 174.181 171.807 Q 170.759 171.807, 168.936 174.11 Q 167.146 176.38, 167.146 180.73 Q 167.146 185.207, 169 187.509 Q 170.887 189.812, 174.533 189.812 Q 177.027 189.812, 179.938 188.309 L 180.833 190.707 Q 179.65 191.475, 177.859 191.923 Q 176.068 192.37, 174.085 192.37 Q 169.16 192.37, 166.506 189.364 Q 163.884 186.358, 163.884 180.73 " fill="#000000"/>
<path class="atom-5" d="M 183.743 188.341 L 186.941 188.341 L 186.941 191.539 L 183.743 191.539 L 183.743 188.341 M 183.743 177.34 L 186.941 177.34 L 186.941 180.538 L 183.743 180.538 L 183.743 177.34 " fill="#000000"/>
<path class="atom-5" d="M 197.974 177.947 Q 199.957 177.947, 201.524 178.811 Q 203.091 179.674, 203.954 181.241 Q 204.818 182.808, 204.818 184.791 Q 204.818 186.998, 203.826 188.725 Q 202.867 190.42, 201.14 191.379 Q 199.413 192.338, 197.207 192.338 Q 193.177 192.338, 191.13 189.62 Q 189.116 186.87, 189.116 181.433 Q 189.116 175.421, 191.61 172.319 Q 194.137 169.185, 198.966 169.185 Q 200.373 169.185, 201.556 169.505 Q 202.771 169.825, 203.922 170.496 L 202.675 172.639 Q 201.012 171.743, 198.997 171.743 Q 195.8 171.743, 194.169 173.822 Q 192.538 175.869, 192.346 180.122 Q 193.497 179.067, 194.936 178.523 Q 196.407 177.947, 197.974 177.947 M 197.239 189.716 Q 198.454 189.716, 199.445 189.076 Q 200.469 188.437, 201.044 187.317 Q 201.62 186.198, 201.62 184.823 Q 201.62 182.808, 200.501 181.657 Q 199.381 180.506, 197.398 180.506 Q 196.023 180.506, 194.648 181.081 Q 193.305 181.625, 192.346 182.584 Q 192.474 186.326, 193.657 188.021 Q 194.84 189.716, 197.239 189.716 " fill="#000000"/>
<path class="atom-6" d="M 124.722 249.968 Q 124.722 244.34, 127.344 241.397 Q 129.998 238.423, 135.019 238.423 Q 139.688 238.423, 142.183 241.717 L 140.072 243.444 Q 138.249 241.046, 135.019 241.046 Q 131.597 241.046, 129.774 243.348 Q 127.984 245.619, 127.984 249.968 Q 127.984 254.445, 129.838 256.748 Q 131.725 259.05, 135.371 259.05 Q 137.865 259.05, 140.776 257.547 L 141.671 259.946 Q 140.488 260.713, 138.697 261.161 Q 136.906 261.609, 134.923 261.609 Q 129.998 261.609, 127.344 258.603 Q 124.722 255.596, 124.722 249.968 " fill="#000000"/>
<path class="atom-6" d="M 144.581 257.579 L 147.779 257.579 L 147.779 260.777 L 144.581 260.777 L 144.581 257.579 M 144.581 246.578 L 147.779 246.578 L 147.779 249.776 L 144.581 249.776 L 144.581 246.578 " fill="#000000"/>
<path class="atom-6" d="M 160.219 241.238 L 148.355 241.238 L 148.355 238.679 L 163.385 238.679 L 163.385 240.95 L 154.239 261.321 L 151.169 261.321 L 160.219 241.238 " fill="#000000"/>
<path class="atom-7" d="M 422.012 307.918 L 425.082 307.918 L 425.082 317.543 L 436.658 317.543 L 436.658 307.918 L 439.728 307.918 L 439.728 330.559 L 436.658 330.559 L 436.658 320.102 L 425.082 320.102 L 425.082 330.559 L 422.012 330.559 L 422.012 307.918 " fill="#000000"/>
<path class="atom-7" d="M 442.127 326.818 L 445.325 326.818 L 445.325 330.016 L 442.127 330.016 L 442.127 326.818 M 442.127 315.817 L 445.325 315.817 L 445.325 319.015 L 442.127 319.015 L 442.127 315.817 " fill="#000000"/>
<path class="atom-7" d="M 458.852 318.567 Q 460.931 319.462, 462.114 320.805 Q 463.298 322.117, 463.298 324.355 Q 463.298 326.274, 462.306 327.777 Q 461.315 329.248, 459.524 330.08 Q 457.765 330.879, 455.43 330.879 Q 451.657 330.879, 449.482 329.152 Q 447.308 327.393, 447.308 324.355 Q 447.308 322.5, 448.267 321.125 Q 449.226 319.718, 451.209 318.663 Q 449.738 317.831, 448.939 316.616 Q 448.139 315.369, 448.139 313.45 Q 448.139 310.796, 450.058 309.229 Q 452.009 307.662, 455.303 307.662 Q 458.597 307.662, 460.515 309.229 Q 462.466 310.796, 462.466 313.45 Q 462.466 315.113, 461.539 316.36 Q 460.643 317.575, 458.852 318.567 M 455.303 310.06 Q 453.416 310.06, 452.36 310.956 Q 451.337 311.851, 451.337 313.45 Q 451.337 314.633, 452.041 315.433 Q 452.744 316.2, 453.736 316.648 Q 454.759 317.096, 456.71 317.767 Q 458.085 316.808, 458.66 315.785 Q 459.268 314.761, 459.268 313.45 Q 459.268 311.851, 458.213 310.956 Q 457.189 310.06, 455.303 310.06 M 455.43 328.481 Q 457.541 328.481, 458.82 327.361 Q 460.1 326.21, 460.1 324.323 Q 460.1 323.108, 459.428 322.34 Q 458.756 321.573, 457.733 321.125 Q 456.742 320.677, 454.951 320.102 L 453.512 319.622 Q 451.913 320.582, 451.209 321.733 Q 450.506 322.852, 450.506 324.323 Q 450.506 326.21, 451.849 327.361 Q 453.192 328.481, 455.43 328.481 " fill="#000000"/>
<path class="atom-8" d="M 302.087 377.156 L 305.157 377.156 L 305.157 386.782 L 316.734 386.782 L 316.734 377.156 L 319.804 377.156 L 319.804 399.798 L 316.734 399.798 L 316.734 389.34 L 305.157 389.34 L 305.157 399.798 L 302.087 399.798 L 302.087 377.156 " fill="#000000"/>
<path class="atom-8" d="M 322.202 396.056 L 325.4 396.056 L 325.4 399.254 L 322.202 399.254 L 322.202 396.056 M 322.202 385.055 L 325.4 385.055 L 325.4 388.253 L 322.202 388.253 L 322.202 385.055 " fill="#000000"/>
<path class="atom-8" d="M 334.771 376.9 Q 338.8 376.9, 340.815 379.65 Q 342.861 382.369, 342.861 387.805 Q 342.861 393.817, 340.335 396.951 Q 337.841 400.053, 333.012 400.053 Q 331.605 400.053, 330.389 399.734 Q 329.206 399.414, 328.055 398.742 L 329.302 396.6 Q 330.965 397.495, 332.98 397.495 Q 336.178 397.495, 337.809 395.448 Q 339.44 393.37, 339.631 389.116 Q 338.48 390.172, 337.009 390.747 Q 335.57 391.291, 334.003 391.291 Q 332.02 391.291, 330.453 390.428 Q 328.886 389.564, 328.023 387.997 Q 327.159 386.43, 327.159 384.447 Q 327.159 382.241, 328.119 380.546 Q 329.11 378.819, 330.837 377.859 Q 332.564 376.9, 334.771 376.9 M 330.357 384.415 Q 330.357 386.43, 331.477 387.581 Q 332.596 388.733, 334.579 388.733 Q 335.954 388.733, 337.297 388.189 Q 338.672 387.613, 339.631 386.654 Q 339.504 382.912, 338.32 381.217 Q 337.137 379.522, 334.739 379.522 Q 333.523 379.522, 332.5 380.162 Q 331.509 380.802, 330.933 381.921 Q 330.357 383.04, 330.357 384.415 " fill="#000000"/>
<path class="atom-9" d="M 302.087 100.202 L 305.157 100.202 L 305.157 109.828 L 316.734 109.828 L 316.734 100.202 L 319.804 100.202 L 319.804 122.844 L 316.734 122.844 L 316.734 112.387 L 305.157 112.387 L 305.157 122.844 L 302.087 122.844 L 302.087 100.202 " fill="#000000"/>
<path class="atom-9" d="M 322.202 119.102 L 325.4 119.102 L 325.4 122.3 L 322.202 122.3 L 322.202 119.102 M 322.202 108.101 L 325.4 108.101 L 325.4 111.299 L 322.202 111.299 L 322.202 108.101 " fill="#000000"/>
<path class="atom-9" d="M 328.375 120.286 L 333.331 120.286 L 333.331 103.368 L 327.863 105.063 L 327.127 103.176 L 334.067 100.074 L 336.338 100.458 L 336.338 120.286 L 340.783 120.286 L 340.783 122.844 L 328.375 122.844 L 328.375 120.286 " fill="#000000"/>
<path class="atom-9" d="M 351.016 123.1 Q 346.859 123.1, 344.78 120.03 Q 342.734 116.96, 342.734 111.491 Q 342.734 106.023, 344.78 102.985 Q 346.827 99.9465, 351.016 99.9465 Q 355.206 99.9465, 357.252 102.985 Q 359.299 106.023, 359.299 111.491 Q 359.299 116.96, 357.22 120.03 Q 355.174 123.1, 351.016 123.1 M 351.016 120.542 Q 353.479 120.542, 354.79 118.271 Q 356.101 115.968, 356.101 111.491 Q 356.101 107.046, 354.79 104.775 Q 353.479 102.505, 351.016 102.505 Q 348.586 102.505, 347.243 104.775 Q 345.932 107.046, 345.932 111.491 Q 345.932 115.968, 347.243 118.271 Q 348.586 120.542, 351.016 120.542 " fill="#000000"/>
<path class="atom-10" d="M 103.796 377.092 L 106.866 377.092 L 106.866 386.718 L 118.443 386.718 L 118.443 377.092 L 121.513 377.092 L 121.513 399.734 L 118.443 399.734 L 118.443 389.276 L 106.866 389.276 L 106.866 399.734 L 103.796 399.734 L 103.796 377.092 " fill="#000000"/>
<path class="atom-10" d="M 123.911 395.992 L 127.109 395.992 L 127.109 399.19 L 123.911 399.19 L 123.911 395.992 M 123.911 384.991 L 127.109 384.991 L 127.109 388.189 L 123.911 388.189 L 123.911 384.991 " fill="#000000"/>
<path class="atom-10" d="M 130.084 397.175 L 135.04 397.175 L 135.04 380.258 L 129.572 381.953 L 128.836 380.066 L 135.776 376.964 L 138.047 377.348 L 138.047 397.175 L 142.492 397.175 L 142.492 399.734 L 130.084 399.734 L 130.084 397.175 " fill="#000000"/>
<path class="atom-10" d="M 145.466 397.175 L 150.423 397.175 L 150.423 380.258 L 144.954 381.953 L 144.219 380.066 L 151.158 376.964 L 153.429 377.348 L 153.429 397.175 L 157.874 397.175 L 157.874 399.734 L 145.466 399.734 L 145.466 397.175 " fill="#000000"/>
<path class="atom-11" d="M 103.125 100.202 L 106.195 100.202 L 106.195 109.828 L 117.771 109.828 L 117.771 100.202 L 120.841 100.202 L 120.841 122.844 L 117.771 122.844 L 117.771 112.387 L 106.195 112.387 L 106.195 122.844 L 103.125 122.844 L 103.125 100.202 " fill="#000000"/>
<path class="atom-11" d="M 123.24 119.102 L 126.438 119.102 L 126.438 122.3 L 123.24 122.3 L 123.24 119.102 M 123.24 108.101 L 126.438 108.101 L 126.438 111.299 L 123.24 111.299 L 123.24 108.101 " fill="#000000"/>
<path class="atom-11" d="M 129.412 120.286 L 134.369 120.286 L 134.369 103.368 L 128.9 105.063 L 128.165 103.176 L 135.104 100.074 L 137.375 100.458 L 137.375 120.286 L 141.82 120.286 L 141.82 122.844 L 129.412 122.844 L 129.412 120.286 " fill="#000000"/>
<path class="atom-11" d="M 143.483 104.488 Q 144.315 102.345, 146.297 101.162 Q 148.28 99.9465, 151.03 99.9465 Q 154.452 99.9465, 156.371 101.801 Q 158.29 103.656, 158.29 106.95 Q 158.29 110.308, 155.795 113.442 Q 153.333 116.576, 148.216 120.286 L 158.674 120.286 L 158.674 122.844 L 143.419 122.844 L 143.419 120.701 Q 147.641 117.695, 150.135 115.457 Q 152.661 113.218, 153.877 111.203 Q 155.092 109.189, 155.092 107.11 Q 155.092 104.935, 154.005 103.72 Q 152.917 102.505, 151.03 102.505 Q 149.208 102.505, 147.992 103.24 Q 146.777 103.976, 145.914 105.607 L 143.483 104.488 " fill="#000000"/>
<path class="atom-12" d="M 422.012 169.441 L 425.082 169.441 L 425.082 179.067 L 436.658 179.067 L 436.658 169.441 L 439.728 169.441 L 439.728 192.082 L 436.658 192.082 L 436.658 181.625 L 425.082 181.625 L 425.082 192.082 L 422.012 192.082 L 422.012 169.441 " fill="#000000"/>
<path class="atom-12" d="M 442.127 188.341 L 445.325 188.341 L 445.325 191.539 L 442.127 191.539 L 442.127 188.341 M 442.127 177.34 L 445.325 177.34 L 445.325 180.538 L 442.127 180.538 L 442.127 177.34 " fill="#000000"/>
<path class="atom-12" d="M 448.299 189.524 L 453.256 189.524 L 453.256 172.607 L 447.787 174.302 L 447.052 172.415 L 453.991 169.313 L 456.262 169.697 L 456.262 189.524 L 460.707 189.524 L 460.707 192.082 L 448.299 192.082 L 448.299 189.524 " fill="#000000"/>
<path class="atom-12" d="M 472.923 180.154 Q 475.13 180.794, 476.185 182.233 Q 477.273 183.64, 477.273 185.878 Q 477.273 187.797, 476.313 189.3 Q 475.354 190.771, 473.595 191.603 Q 471.836 192.402, 469.534 192.402 Q 467.103 192.402, 465.28 191.571 Q 463.489 190.707, 462.05 188.98 L 463.873 187.126 Q 465.28 188.661, 466.464 189.268 Q 467.647 189.844, 469.534 189.844 Q 471.58 189.844, 472.828 188.757 Q 474.075 187.637, 474.075 185.846 Q 474.075 183.544, 472.764 182.521 Q 471.484 181.465, 468.702 181.465 L 467.071 181.465 L 467.071 179.163 L 468.51 179.163 Q 470.973 179.131, 472.284 178.075 Q 473.595 176.988, 473.595 174.973 Q 473.595 173.502, 472.508 172.639 Q 471.42 171.743, 469.566 171.743 Q 467.679 171.743, 466.496 172.415 Q 465.344 173.086, 464.449 174.781 L 462.242 173.598 Q 463.042 171.711, 464.96 170.464 Q 466.879 169.185, 469.566 169.185 Q 472.891 169.185, 474.842 170.752 Q 476.793 172.319, 476.793 174.973 Q 476.793 176.796, 475.802 178.107 Q 474.81 179.418, 472.923 180.154 " fill="#000000"/>
<path class="atom-13" d="M 22.7273 238.615 L 25.7973 238.615 L 25.7973 248.241 L 37.374 248.241 L 37.374 238.615 L 40.4441 238.615 L 40.4441 261.257 L 37.374 261.257 L 37.374 250.799 L 25.7973 250.799 L 25.7973 261.257 L 22.7273 261.257 L 22.7273 238.615 " fill="#000000"/>
<path class="atom-13" d="M 42.8426 257.515 L 46.0406 257.515 L 46.0406 260.713 L 42.8426 260.713 L 42.8426 257.515 M 42.8426 246.514 L 46.0406 246.514 L 46.0406 249.712 L 42.8426 249.712 L 42.8426 246.514 " fill="#000000"/>
<path class="atom-13" d="M 49.0147 258.699 L 53.9716 258.699 L 53.9716 241.781 L 48.503 243.476 L 47.7675 241.589 L 54.7071 238.487 L 56.9777 238.871 L 56.9777 258.699 L 61.4229 258.699 L 61.4229 261.257 L 49.0147 261.257 L 49.0147 258.699 " fill="#000000"/>
<path class="atom-13" d="M 77.093 253.486 L 79.8113 253.486 L 79.8113 256.044 L 77.093 256.044 L 77.093 261.257 L 74.0869 261.257 L 74.0869 256.044 L 62.3823 256.044 L 62.3823 254.029 L 72.296 238.615 L 77.093 238.615 L 77.093 253.486 M 66.0919 253.486 L 74.0869 253.486 L 74.0869 240.662 L 66.0919 253.486 " fill="#000000"/>
<text x="350.9203797925788" y="249.87208064036426" font-size="12" font-family="Verdana" font-weight="bold" letter-spacing="0" text-anchor="start" fill="black" transform=" rotate(-90.000000 350.920380 249.872081)">0.0703</text><text x="25" y="490" font-size="12" font-family="Verdana" font-weight="bold" letter-spacing="0" text-anchor="start" fill="black">[#6:1]1(-[#7:2](-[H:8])-[H:13]):[#6:3](:[#6:5](:[#6:7](:[#6:6](:[#6:4]:1-[H:10])-[H:12])-[H:14])-[H:11])-[H:9]</text></svg>
