<?xml version='1.0' encoding='ASCII' standalone='yes'?>
<svg xmlns="http://www.w3.org/2000/svg" xmlns:rdkit="http://www.rdkit.org/xml" xmlns:xlink="http://www.w3.org/1999/xlink" version="1.1" baseProfile="full" xml:space="preserve" width="500px" height="500px" viewBox="0 0 500 500">
<!-- END OF HEADER -->
<rect style="opacity:1.0;fill:#FFFFFF;stroke:none" width="500" height="500" x="0" y="0"> </rect>
<path d="M 287.755,327.039 L 345.04,292.055" style="fill:none;fill-rule:evenodd;stroke:#FF7F7F;stroke-width:14.3px;stroke-linecap:butt;stroke-linejoin:miter;stroke-opacity:1"/>
<path class="bond-0 atom-0 atom-6" d="M 198.163,171.154 L 166.664,175.252" style="fill:none;fill-rule:evenodd;stroke:#000000;stroke-width:2.0px;stroke-linecap:butt;stroke-linejoin:miter;stroke-opacity:1"/>
<path class="bond-0 atom-0 atom-6" d="M 195.17,185.081 L 173.121,187.949" style="fill:none;fill-rule:evenodd;stroke:#000000;stroke-width:2.0px;stroke-linecap:butt;stroke-linejoin:miter;stroke-opacity:1"/>
<path class="bond-1 atom-0 atom-9" d="M 226.436,156.898 L 242.994,117.095" style="fill:none;fill-rule:evenodd;stroke:#000000;stroke-width:2.0px;stroke-linecap:butt;stroke-linejoin:miter;stroke-opacity:1"/>
<path class="bond-3 atom-1 atom-0" d="M 253.928,210.105 L 230.148,179.016" style="fill:none;fill-rule:evenodd;stroke:#000000;stroke-width:2.0px;stroke-linecap:butt;stroke-linejoin:miter;stroke-opacity:1"/>
<path class="bond-2 atom-1 atom-5" d="M 258.057,232.229 L 241.357,272.372" style="fill:none;fill-rule:evenodd;stroke:#000000;stroke-width:2.0px;stroke-linecap:butt;stroke-linejoin:miter;stroke-opacity:1"/>
<path class="bond-2 atom-1 atom-5" d="M 243.157,233.094 L 231.467,261.194" style="fill:none;fill-rule:evenodd;stroke:#000000;stroke-width:2.0px;stroke-linecap:butt;stroke-linejoin:miter;stroke-opacity:1"/>
<path class="bond-7 atom-3 atom-1" d="M 320.463,226.041 L 275.057,222.398" style="fill:none;fill-rule:evenodd;stroke:#000000;stroke-width:2.0px;stroke-linecap:butt;stroke-linejoin:miter;stroke-opacity:1"/>
<path class="bond-4 atom-2 atom-4" d="M 300.444,319.29 L 318.424,308.31" style="fill:none;fill-rule:evenodd;stroke:#0000FF;stroke-width:2.0px;stroke-linecap:butt;stroke-linejoin:miter;stroke-opacity:1"/>
<path class="bond-4 atom-2 atom-4" d="M 318.424,308.31 L 336.404,297.329" style="fill:none;fill-rule:evenodd;stroke:#000000;stroke-width:2.0px;stroke-linecap:butt;stroke-linejoin:miter;stroke-opacity:1"/>
<path class="bond-5 atom-2 atom-5" d="M 274.828,315.964 L 259.727,303.026" style="fill:none;fill-rule:evenodd;stroke:#0000FF;stroke-width:2.0px;stroke-linecap:butt;stroke-linejoin:miter;stroke-opacity:1"/>
<path class="bond-5 atom-2 atom-5" d="M 259.727,303.026 L 244.626,290.089" style="fill:none;fill-rule:evenodd;stroke:#000000;stroke-width:2.0px;stroke-linecap:butt;stroke-linejoin:miter;stroke-opacity:1"/>
<path class="bond-6 atom-2 atom-10" d="M 286.828,338.597 L 285.042,360.852" style="fill:none;fill-rule:evenodd;stroke:#0000FF;stroke-width:2.0px;stroke-linecap:butt;stroke-linejoin:miter;stroke-opacity:1"/>
<path class="bond-6 atom-2 atom-10" d="M 285.042,360.852 L 283.256,383.107" style="fill:none;fill-rule:evenodd;stroke:#000000;stroke-width:2.0px;stroke-linecap:butt;stroke-linejoin:miter;stroke-opacity:1"/>
<path class="bond-8 atom-3 atom-11" d="M 338.478,216.25 L 363.765,186.734" style="fill:none;fill-rule:evenodd;stroke:#000000;stroke-width:2.0px;stroke-linecap:butt;stroke-linejoin:miter;stroke-opacity:1"/>
<path class="bond-8 atom-3 atom-11" d="M 332.077,203.088 L 349.778,182.428" style="fill:none;fill-rule:evenodd;stroke:#000000;stroke-width:2.0px;stroke-linecap:butt;stroke-linejoin:miter;stroke-opacity:1"/>
<path class="bond-9 atom-3 atom-4" d="M 332.22,238.296 L 342.419,281.062" style="fill:none;fill-rule:evenodd;stroke:#000000;stroke-width:2.0px;stroke-linecap:butt;stroke-linejoin:miter;stroke-opacity:1"/>
<path class="bond-10 atom-4 atom-12" d="M 370.117,309.757 L 382.449,314.888" style="fill:none;fill-rule:evenodd;stroke:#000000;stroke-width:2.0px;stroke-linecap:butt;stroke-linejoin:miter;stroke-opacity:1"/>
<path class="bond-10 atom-4 atom-12" d="M 382.449,314.888 L 394.78,320.018" style="fill:none;fill-rule:evenodd;stroke:#FF0000;stroke-width:2.0px;stroke-linecap:butt;stroke-linejoin:miter;stroke-opacity:1"/>
<path class="bond-10 atom-4 atom-12" d="M 375.273,297.363 L 387.605,302.493" style="fill:none;fill-rule:evenodd;stroke:#000000;stroke-width:2.0px;stroke-linecap:butt;stroke-linejoin:miter;stroke-opacity:1"/>
<path class="bond-10 atom-4 atom-12" d="M 387.605,302.493 L 399.936,307.623" style="fill:none;fill-rule:evenodd;stroke:#FF0000;stroke-width:2.0px;stroke-linecap:butt;stroke-linejoin:miter;stroke-opacity:1"/>
<path class="bond-11 atom-5 atom-7" d="M 207.329,287.2 L 182.773,290.395" style="fill:none;fill-rule:evenodd;stroke:#000000;stroke-width:2.0px;stroke-linecap:butt;stroke-linejoin:miter;stroke-opacity:1"/>
<path class="bond-12 atom-6 atom-8" d="M 150.716,187.574 L 134.016,227.717" style="fill:none;fill-rule:evenodd;stroke:#000000;stroke-width:2.0px;stroke-linecap:butt;stroke-linejoin:miter;stroke-opacity:1"/>
<path class="bond-13 atom-6 atom-15" d="M 146.587,165.45 L 122.357,133.773" style="fill:none;fill-rule:evenodd;stroke:#000000;stroke-width:2.0px;stroke-linecap:butt;stroke-linejoin:miter;stroke-opacity:1"/>
<path class="bond-14 atom-7 atom-8" d="M 161.585,280.738 L 137.969,249.863" style="fill:none;fill-rule:evenodd;stroke:#000000;stroke-width:2.0px;stroke-linecap:butt;stroke-linejoin:miter;stroke-opacity:1"/>
<path class="bond-14 atom-7 atom-8" d="M 168.706,267.951 L 152.174,246.338" style="fill:none;fill-rule:evenodd;stroke:#000000;stroke-width:2.0px;stroke-linecap:butt;stroke-linejoin:miter;stroke-opacity:1"/>
<path class="bond-15 atom-7 atom-13" d="M 165.714,302.861 L 148.947,343.166" style="fill:none;fill-rule:evenodd;stroke:#000000;stroke-width:2.0px;stroke-linecap:butt;stroke-linejoin:miter;stroke-opacity:1"/>
<path class="bond-16 atom-8 atom-14" d="M 105.096,241.881 L 70.3743,246.398" style="fill:none;fill-rule:evenodd;stroke:#000000;stroke-width:2.0px;stroke-linecap:butt;stroke-linejoin:miter;stroke-opacity:1"/>
<path class="bond-17 atom-11 atom-16" d="M 392.17,179.348 L 430.489,186.51" style="fill:none;fill-rule:evenodd;stroke:#000000;stroke-width:2.0px;stroke-linecap:butt;stroke-linejoin:miter;stroke-opacity:1"/>
<path class="bond-18 atom-11 atom-17" d="M 369.2,164.608 L 354.706,123.478" style="fill:none;fill-rule:evenodd;stroke:#000000;stroke-width:2.0px;stroke-linecap:butt;stroke-linejoin:miter;stroke-opacity:1"/>
<path class="atom-0" d="M 199.842 168.162 Q 199.842 163.436, 202.043 160.966 Q 204.272 158.469, 208.487 158.469 Q 212.407 158.469, 214.501 161.235 L 212.729 162.684 Q 211.199 160.671, 208.487 160.671 Q 205.614 160.671, 204.084 162.604 Q 202.58 164.51, 202.58 168.162 Q 202.58 171.92, 204.137 173.854 Q 205.721 175.787, 208.782 175.787 Q 210.876 175.787, 213.32 174.525 L 214.071 176.538 Q 213.078 177.183, 211.574 177.559 Q 210.071 177.935, 208.406 177.935 Q 204.272 177.935, 202.043 175.411 Q 199.842 172.887, 199.842 168.162 " fill="#000000"/>
<path class="atom-0" d="M 216.515 174.552 L 219.2 174.552 L 219.2 177.236 L 216.515 177.236 L 216.515 174.552 M 216.515 165.316 L 219.2 165.316 L 219.2 168 L 216.515 168 L 216.515 165.316 " fill="#000000"/>
<path class="atom-0" d="M 221.696 175.545 L 225.858 175.545 L 225.858 161.342 L 221.267 162.765 L 220.649 161.181 L 226.476 158.577 L 228.382 158.899 L 228.382 175.545 L 232.114 175.545 L 232.114 177.693 L 221.696 177.693 L 221.696 175.545 " fill="#000000"/>
<path class="atom-1" d="M 240.098 221.476 Q 240.098 216.75, 242.299 214.28 Q 244.528 211.783, 248.743 211.783 Q 252.663 211.783, 254.757 214.549 L 252.985 215.998 Q 251.455 213.985, 248.743 213.985 Q 245.87 213.985, 244.34 215.918 Q 242.836 217.824, 242.836 221.476 Q 242.836 225.235, 244.394 227.168 Q 245.978 229.101, 249.038 229.101 Q 251.133 229.101, 253.576 227.839 L 254.328 229.853 Q 253.334 230.497, 251.831 230.873 Q 250.327 231.249, 248.663 231.249 Q 244.528 231.249, 242.299 228.725 Q 240.098 226.201, 240.098 221.476 " fill="#000000"/>
<path class="atom-1" d="M 256.771 227.866 L 259.456 227.866 L 259.456 230.551 L 256.771 230.551 L 256.771 227.866 M 256.771 218.63 L 259.456 218.63 L 259.456 221.315 L 256.771 221.315 L 256.771 218.63 " fill="#000000"/>
<path class="atom-1" d="M 260.852 215.596 Q 261.55 213.797, 263.215 212.803 Q 264.879 211.783, 267.188 211.783 Q 270.061 211.783, 271.672 213.34 Q 273.283 214.898, 273.283 217.663 Q 273.283 220.482, 271.189 223.113 Q 269.121 225.745, 264.826 228.859 L 273.605 228.859 L 273.605 231.007 L 260.798 231.007 L 260.798 229.208 Q 264.342 226.684, 266.436 224.805 Q 268.558 222.926, 269.578 221.234 Q 270.598 219.543, 270.598 217.797 Q 270.598 215.972, 269.685 214.951 Q 268.772 213.931, 267.188 213.931 Q 265.658 213.931, 264.638 214.549 Q 263.617 215.166, 262.892 216.535 L 260.852 215.596 " fill="#000000"/>
<path class="atom-2" d="M 268.749 317.642 L 274.978 327.71 Q 275.595 328.704, 276.588 330.502 Q 277.582 332.301, 277.636 332.409 L 277.636 317.642 L 280.159 317.642 L 280.159 336.651 L 277.555 336.651 L 270.87 325.643 Q 270.091 324.354, 269.259 322.877 Q 268.453 321.401, 268.212 320.944 L 268.212 336.651 L 265.742 336.651 L 265.742 317.642 L 268.749 317.642 " fill="#0000FF"/>
<path class="atom-2" d="M 282.173 333.51 L 284.858 333.51 L 284.858 336.194 L 282.173 336.194 L 282.173 333.51 M 282.173 324.274 L 284.858 324.274 L 284.858 326.958 L 282.173 326.958 L 282.173 324.274 " fill="#0000FF"/>
<path class="atom-2" d="M 295.114 326.636 Q 296.967 327.173, 297.853 328.381 Q 298.766 329.563, 298.766 331.442 Q 298.766 333.053, 297.96 334.315 Q 297.155 335.55, 295.678 336.248 Q 294.201 336.919, 292.268 336.919 Q 290.228 336.919, 288.697 336.221 Q 287.194 335.496, 285.986 334.047 L 287.516 332.489 Q 288.697 333.778, 289.691 334.288 Q 290.684 334.771, 292.268 334.771 Q 293.987 334.771, 295.034 333.859 Q 296.081 332.919, 296.081 331.415 Q 296.081 329.482, 294.98 328.623 Q 293.906 327.737, 291.57 327.737 L 290.201 327.737 L 290.201 325.804 L 291.409 325.804 Q 293.476 325.777, 294.577 324.891 Q 295.678 323.978, 295.678 322.287 Q 295.678 321.052, 294.765 320.327 Q 293.852 319.575, 292.295 319.575 Q 290.711 319.575, 289.718 320.139 Q 288.751 320.703, 287.999 322.126 L 286.147 321.132 Q 286.818 319.548, 288.429 318.501 Q 290.04 317.427, 292.295 317.427 Q 295.087 317.427, 296.725 318.743 Q 298.363 320.058, 298.363 322.287 Q 298.363 323.817, 297.531 324.918 Q 296.698 326.019, 295.114 326.636 " fill="#0000FF"/>
<path class="atom-3" d="M 322.141 226.844 Q 322.141 222.119, 324.343 219.649 Q 326.571 217.152, 330.786 217.152 Q 334.706 217.152, 336.8 219.917 L 335.028 221.367 Q 333.498 219.354, 330.786 219.354 Q 327.913 219.354, 326.383 221.287 Q 324.879 223.193, 324.879 226.844 Q 324.879 230.603, 326.437 232.536 Q 328.021 234.47, 331.082 234.47 Q 333.176 234.47, 335.619 233.208 L 336.371 235.221 Q 335.377 235.866, 333.874 236.242 Q 332.37 236.617, 330.706 236.617 Q 326.571 236.617, 324.343 234.094 Q 322.141 231.57, 322.141 226.844 " fill="#000000"/>
<path class="atom-3" d="M 338.814 233.234 L 341.499 233.234 L 341.499 235.919 L 338.814 235.919 L 338.814 233.234 M 338.814 223.998 L 341.499 223.998 L 341.499 226.683 L 338.814 226.683 L 338.814 223.998 " fill="#000000"/>
<path class="atom-3" d="M 354.655 229.852 L 356.937 229.852 L 356.937 231.999 L 354.655 231.999 L 354.655 236.376 L 352.131 236.376 L 352.131 231.999 L 342.304 231.999 L 342.304 230.308 L 350.628 217.367 L 354.655 217.367 L 354.655 229.852 M 345.419 229.852 L 352.131 229.852 L 352.131 219.085 L 345.419 229.852 " fill="#000000"/>
<path class="atom-4" d="M 337.71 292.136 Q 337.71 287.411, 339.912 284.94 Q 342.14 282.444, 346.356 282.444 Q 350.276 282.444, 352.37 285.209 L 350.598 286.659 Q 349.067 284.645, 346.356 284.645 Q 343.483 284.645, 341.952 286.578 Q 340.449 288.485, 340.449 292.136 Q 340.449 295.895, 342.006 297.828 Q 343.59 299.761, 346.651 299.761 Q 348.745 299.761, 351.188 298.499 L 351.94 300.513 Q 350.947 301.157, 349.443 301.533 Q 347.94 301.909, 346.275 301.909 Q 342.14 301.909, 339.912 299.385 Q 337.71 296.861, 337.71 292.136 " fill="#000000"/>
<path class="atom-4" d="M 354.383 298.526 L 357.068 298.526 L 357.068 301.211 L 354.383 301.211 L 354.383 298.526 M 354.383 289.29 L 357.068 289.29 L 357.068 291.975 L 354.383 291.975 L 354.383 289.29 " fill="#000000"/>
<path class="atom-4" d="M 365.204 289.773 Q 366.868 289.773, 368.237 290.498 Q 369.607 291.196, 370.385 292.539 Q 371.164 293.854, 371.164 295.653 Q 371.164 297.613, 370.197 299.036 Q 369.258 300.432, 367.7 301.157 Q 366.143 301.882, 364.371 301.882 Q 362.626 301.882, 361.015 301.238 Q 359.404 300.593, 358.303 299.358 L 359.914 297.694 Q 360.8 298.66, 362.009 299.197 Q 363.217 299.707, 364.452 299.707 Q 366.143 299.707, 367.298 298.66 Q 368.479 297.613, 368.479 295.707 Q 368.479 293.693, 367.298 292.753 Q 366.143 291.787, 364.291 291.787 Q 362.626 291.787, 360.773 292.512 L 359.297 291.814 L 360.21 282.658 L 369.983 282.658 L 369.714 284.806 L 362.411 284.806 L 361.847 290.444 Q 363.539 289.773, 365.204 289.773 " fill="#000000"/>
<path class="atom-5" d="M 209.007 283.449 Q 209.007 278.724, 211.209 276.254 Q 213.437 273.757, 217.652 273.757 Q 221.572 273.757, 223.666 276.522 L 221.894 277.972 Q 220.364 275.958, 217.652 275.958 Q 214.779 275.958, 213.249 277.891 Q 211.746 279.798, 211.746 283.449 Q 211.746 287.208, 213.303 289.141 Q 214.887 291.074, 217.948 291.074 Q 220.042 291.074, 222.485 289.812 L 223.237 291.826 Q 222.243 292.47, 220.74 292.846 Q 219.236 293.222, 217.572 293.222 Q 213.437 293.222, 211.209 290.698 Q 209.007 288.174, 209.007 283.449 " fill="#000000"/>
<path class="atom-5" d="M 225.68 289.839 L 228.365 289.839 L 228.365 292.524 L 225.68 292.524 L 225.68 289.839 M 225.68 280.603 L 228.365 280.603 L 228.365 283.288 L 225.68 283.288 L 225.68 280.603 " fill="#000000"/>
<path class="atom-5" d="M 237.628 281.113 Q 239.292 281.113, 240.608 281.838 Q 241.924 282.563, 242.649 283.879 Q 243.373 285.194, 243.373 286.859 Q 243.373 288.711, 242.541 290.161 Q 241.736 291.584, 240.286 292.39 Q 238.836 293.195, 236.983 293.195 Q 233.6 293.195, 231.882 290.913 Q 230.191 288.604, 230.191 284.04 Q 230.191 278.992, 232.285 276.388 Q 234.406 273.757, 238.46 273.757 Q 239.641 273.757, 240.635 274.025 Q 241.655 274.294, 242.622 274.857 L 241.575 276.656 Q 240.178 275.905, 238.487 275.905 Q 235.802 275.905, 234.433 277.65 Q 233.063 279.368, 232.902 282.939 Q 233.869 282.053, 235.077 281.596 Q 236.312 281.113, 237.628 281.113 M 237.01 290.994 Q 238.031 290.994, 238.863 290.457 Q 239.722 289.92, 240.205 288.98 Q 240.689 288.04, 240.689 286.886 Q 240.689 285.194, 239.749 284.228 Q 238.809 283.261, 237.145 283.261 Q 235.99 283.261, 234.836 283.744 Q 233.708 284.201, 232.902 285.006 Q 233.01 288.148, 234.003 289.571 Q 234.997 290.994, 237.01 290.994 " fill="#000000"/>
<path class="atom-6" d="M 133.121 176.821 Q 133.121 172.095, 135.323 169.625 Q 137.551 167.128, 141.767 167.128 Q 145.687 167.128, 147.781 169.894 L 146.009 171.344 Q 144.478 169.33, 141.767 169.33 Q 138.894 169.33, 137.364 171.263 Q 135.86 173.169, 135.86 176.821 Q 135.86 180.58, 137.417 182.513 Q 139.001 184.446, 142.062 184.446 Q 144.156 184.446, 146.6 183.184 L 147.351 185.198 Q 146.358 185.842, 144.854 186.218 Q 143.351 186.594, 141.686 186.594 Q 137.551 186.594, 135.323 184.07 Q 133.121 181.546, 133.121 176.821 " fill="#000000"/>
<path class="atom-6" d="M 149.795 183.211 L 152.479 183.211 L 152.479 185.896 L 149.795 185.896 L 149.795 183.211 M 149.795 173.975 L 152.479 173.975 L 152.479 176.66 L 149.795 176.66 L 149.795 173.975 " fill="#000000"/>
<path class="atom-6" d="M 162.924 169.491 L 152.963 169.491 L 152.963 167.343 L 165.582 167.343 L 165.582 169.249 L 157.903 186.352 L 155.325 186.352 L 162.924 169.491 " fill="#000000"/>
<path class="atom-7" d="M 147.39 292.108 Q 147.39 287.383, 149.592 284.913 Q 151.82 282.416, 156.036 282.416 Q 159.956 282.416, 162.05 285.181 L 160.278 286.631 Q 158.747 284.618, 156.036 284.618 Q 153.163 284.618, 151.632 286.551 Q 150.129 288.457, 150.129 292.108 Q 150.129 295.867, 151.686 297.8 Q 153.27 299.733, 156.331 299.733 Q 158.425 299.733, 160.868 298.472 L 161.62 300.485 Q 160.627 301.13, 159.123 301.505 Q 157.62 301.881, 155.955 301.881 Q 151.82 301.881, 149.592 299.358 Q 147.39 296.834, 147.39 292.108 " fill="#000000"/>
<path class="atom-7" d="M 164.063 298.498 L 166.748 298.498 L 166.748 301.183 L 164.063 301.183 L 164.063 298.498 M 164.063 289.262 L 166.748 289.262 L 166.748 291.947 L 164.063 291.947 L 164.063 289.262 " fill="#000000"/>
<path class="atom-7" d="M 178.105 291.571 Q 179.851 292.323, 180.844 293.451 Q 181.837 294.552, 181.837 296.431 Q 181.837 298.042, 181.005 299.304 Q 180.173 300.539, 178.669 301.237 Q 177.193 301.908, 175.233 301.908 Q 172.064 301.908, 170.239 300.458 Q 168.413 298.982, 168.413 296.431 Q 168.413 294.874, 169.218 293.719 Q 170.024 292.538, 171.689 291.652 Q 170.453 290.954, 169.782 289.934 Q 169.111 288.886, 169.111 287.276 Q 169.111 285.047, 170.722 283.731 Q 172.36 282.416, 175.125 282.416 Q 177.891 282.416, 179.502 283.731 Q 181.139 285.047, 181.139 287.276 Q 181.139 288.672, 180.361 289.719 Q 179.609 290.739, 178.105 291.571 M 175.125 284.43 Q 173.541 284.43, 172.655 285.181 Q 171.796 285.933, 171.796 287.276 Q 171.796 288.269, 172.387 288.94 Q 172.977 289.585, 173.81 289.96 Q 174.669 290.336, 176.307 290.9 Q 177.461 290.095, 177.944 289.236 Q 178.454 288.376, 178.454 287.276 Q 178.454 285.933, 177.568 285.181 Q 176.709 284.43, 175.125 284.43 M 175.233 299.895 Q 177.005 299.895, 178.079 298.955 Q 179.153 297.988, 179.153 296.404 Q 179.153 295.384, 178.589 294.74 Q 178.025 294.095, 177.166 293.719 Q 176.333 293.343, 174.83 292.86 L 173.622 292.457 Q 172.279 293.263, 171.689 294.229 Q 171.098 295.169, 171.098 296.404 Q 171.098 297.988, 172.226 298.955 Q 173.353 299.895, 175.233 299.895 " fill="#000000"/>
<path class="atom-8" d="M 106.774 238.794 Q 106.774 234.069, 108.975 231.599 Q 111.204 229.102, 115.419 229.102 Q 119.339 229.102, 121.433 231.867 L 119.661 233.317 Q 118.131 231.303, 115.419 231.303 Q 112.546 231.303, 111.016 233.237 Q 109.512 235.143, 109.512 238.794 Q 109.512 242.553, 111.07 244.486 Q 112.654 246.419, 115.715 246.419 Q 117.809 246.419, 120.252 245.157 L 121.004 247.171 Q 120.01 247.815, 118.507 248.191 Q 117.003 248.567, 115.339 248.567 Q 111.204 248.567, 108.975 246.043 Q 106.774 243.52, 106.774 238.794 " fill="#000000"/>
<path class="atom-8" d="M 123.447 245.184 L 126.132 245.184 L 126.132 247.869 L 123.447 247.869 L 123.447 245.184 M 123.447 235.948 L 126.132 235.948 L 126.132 238.633 L 123.447 238.633 L 123.447 235.948 " fill="#000000"/>
<path class="atom-8" d="M 133.999 229.102 Q 137.382 229.102, 139.073 231.411 Q 140.791 233.693, 140.791 238.257 Q 140.791 243.305, 138.67 245.936 Q 136.576 248.54, 132.522 248.54 Q 131.341 248.54, 130.32 248.272 Q 129.327 248.003, 128.36 247.44 L 129.407 245.641 Q 130.804 246.392, 132.495 246.392 Q 135.18 246.392, 136.549 244.674 Q 137.919 242.929, 138.08 239.358 Q 137.113 240.244, 135.878 240.727 Q 134.67 241.184, 133.354 241.184 Q 131.69 241.184, 130.374 240.459 Q 129.058 239.734, 128.333 238.418 Q 127.609 237.103, 127.609 235.438 Q 127.609 233.586, 128.414 232.163 Q 129.246 230.713, 130.696 229.907 Q 132.146 229.102, 133.999 229.102 M 130.293 235.411 Q 130.293 237.103, 131.233 238.069 Q 132.173 239.036, 133.838 239.036 Q 134.992 239.036, 136.12 238.579 Q 137.274 238.096, 138.08 237.291 Q 137.972 234.149, 136.979 232.726 Q 135.985 231.303, 133.972 231.303 Q 132.952 231.303, 132.092 231.84 Q 131.26 232.377, 130.777 233.317 Q 130.293 234.257, 130.293 235.411 " fill="#000000"/>
<path class="atom-9" d="M 240.128 96.7105 L 242.706 96.7105 L 242.706 104.792 L 252.425 104.792 L 252.425 96.7105 L 255.002 96.7105 L 255.002 115.72 L 252.425 115.72 L 252.425 106.94 L 242.706 106.94 L 242.706 115.72 L 240.128 115.72 L 240.128 96.7105 " fill="#000000"/>
<path class="atom-9" d="M 257.016 112.578 L 259.701 112.578 L 259.701 115.263 L 257.016 115.263 L 257.016 112.578 M 257.016 103.342 L 259.701 103.342 L 259.701 106.027 L 257.016 106.027 L 257.016 103.342 " fill="#000000"/>
<path class="atom-9" d="M 262.198 113.572 L 266.359 113.572 L 266.359 99.3686 L 261.768 100.792 L 261.151 99.2075 L 266.977 96.6031 L 268.883 96.9253 L 268.883 113.572 L 272.615 113.572 L 272.615 115.72 L 262.198 115.72 L 262.198 113.572 " fill="#000000"/>
<path class="atom-9" d="M 281.207 115.934 Q 277.716 115.934, 275.971 113.357 Q 274.253 110.779, 274.253 106.188 Q 274.253 101.597, 275.971 99.0464 Q 277.69 96.4957, 281.207 96.4957 Q 284.724 96.4957, 286.442 99.0464 Q 288.161 101.597, 288.161 106.188 Q 288.161 110.779, 286.416 113.357 Q 284.697 115.934, 281.207 115.934 M 281.207 113.786 Q 283.274 113.786, 284.375 111.88 Q 285.476 109.947, 285.476 106.188 Q 285.476 102.456, 284.375 100.55 Q 283.274 98.6436, 281.207 98.6436 Q 279.166 98.6436, 278.039 100.55 Q 276.938 102.456, 276.938 106.188 Q 276.938 109.947, 278.039 111.88 Q 279.166 113.786, 281.207 113.786 " fill="#000000"/>
<path class="atom-10" d="M 274.949 384.495 L 277.527 384.495 L 277.527 392.577 L 287.246 392.577 L 287.246 384.495 L 289.824 384.495 L 289.824 403.504 L 287.246 403.504 L 287.246 394.725 L 277.527 394.725 L 277.527 403.504 L 274.949 403.504 L 274.949 384.495 " fill="#000000"/>
<path class="atom-10" d="M 291.837 400.363 L 294.522 400.363 L 294.522 403.048 L 291.837 403.048 L 291.837 400.363 M 291.837 391.127 L 294.522 391.127 L 294.522 393.812 L 291.837 393.812 L 291.837 391.127 " fill="#000000"/>
<path class="atom-10" d="M 297.019 401.356 L 301.181 401.356 L 301.181 387.153 L 296.59 388.576 L 295.972 386.992 L 301.798 384.388 L 303.705 384.71 L 303.705 401.356 L 307.437 401.356 L 307.437 403.504 L 297.019 403.504 L 297.019 401.356 " fill="#000000"/>
<path class="atom-10" d="M 309.933 401.356 L 314.095 401.356 L 314.095 387.153 L 309.504 388.576 L 308.886 386.992 L 314.713 384.388 L 316.619 384.71 L 316.619 401.356 L 320.351 401.356 L 320.351 403.504 L 309.933 403.504 L 309.933 401.356 " fill="#000000"/>
<path class="atom-11" d="M 344.07 175.871 Q 344.07 171.146, 346.272 168.676 Q 348.501 166.179, 352.716 166.179 Q 356.636 166.179, 358.73 168.944 L 356.958 170.394 Q 355.428 168.38, 352.716 168.38 Q 349.843 168.38, 348.313 170.313 Q 346.809 172.22, 346.809 175.871 Q 346.809 179.63, 348.366 181.563 Q 349.95 183.496, 353.011 183.496 Q 355.105 183.496, 357.549 182.234 L 358.3 184.248 Q 357.307 184.892, 355.803 185.268 Q 354.3 185.644, 352.635 185.644 Q 348.501 185.644, 346.272 183.12 Q 344.07 180.597, 344.07 175.871 " fill="#000000"/>
<path class="atom-11" d="M 360.744 182.261 L 363.429 182.261 L 363.429 184.946 L 360.744 184.946 L 360.744 182.261 M 360.744 173.025 L 363.429 173.025 L 363.429 175.71 L 360.744 175.71 L 360.744 173.025 " fill="#000000"/>
<path class="atom-11" d="M 365.925 183.255 L 370.087 183.255 L 370.087 169.052 L 365.496 170.475 L 364.878 168.89 L 370.705 166.286 L 372.611 166.608 L 372.611 183.255 L 376.343 183.255 L 376.343 185.403 L 365.925 185.403 L 365.925 183.255 " fill="#000000"/>
<path class="atom-11" d="M 377.739 169.991 Q 378.437 168.192, 380.102 167.199 Q 381.766 166.179, 384.075 166.179 Q 386.948 166.179, 388.559 167.736 Q 390.17 169.293, 390.17 172.059 Q 390.17 174.878, 388.076 177.509 Q 386.008 180.14, 381.713 183.255 L 390.492 183.255 L 390.492 185.403 L 377.685 185.403 L 377.685 183.604 Q 381.229 181.08, 383.324 179.2 Q 385.445 177.321, 386.465 175.63 Q 387.485 173.938, 387.485 172.193 Q 387.485 170.367, 386.572 169.347 Q 385.659 168.327, 384.075 168.327 Q 382.545 168.327, 381.525 168.944 Q 380.504 169.562, 379.779 170.931 L 377.739 169.991 " fill="#000000"/>
<path class="atom-12" d="M 398.288 317.891 Q 398.288 313.326, 400.543 310.776 Q 402.798 308.225, 407.013 308.225 Q 411.229 308.225, 413.484 310.776 Q 415.739 313.326, 415.739 317.891 Q 415.739 322.509, 413.457 325.14 Q 411.175 327.744, 407.013 327.744 Q 402.825 327.744, 400.543 325.14 Q 398.288 322.535, 398.288 317.891 M 407.013 325.596 Q 409.913 325.596, 411.47 323.663 Q 413.054 321.703, 413.054 317.891 Q 413.054 314.159, 411.47 312.279 Q 409.913 310.373, 407.013 310.373 Q 404.114 310.373, 402.53 312.252 Q 400.972 314.132, 400.972 317.891 Q 400.972 321.73, 402.53 323.663 Q 404.114 325.596, 407.013 325.596 " fill="#FF0000"/>
<path class="atom-12" d="M 417.753 324.307 L 420.438 324.307 L 420.438 326.992 L 417.753 326.992 L 417.753 324.307 M 417.753 315.071 L 420.438 315.071 L 420.438 317.756 L 417.753 317.756 L 417.753 315.071 " fill="#FF0000"/>
<path class="atom-12" d="M 422.935 325.301 L 427.096 325.301 L 427.096 311.098 L 422.505 312.521 L 421.888 310.937 L 427.714 308.332 L 429.62 308.655 L 429.62 325.301 L 433.352 325.301 L 433.352 327.449 L 422.935 327.449 L 422.935 325.301 " fill="#FF0000"/>
<path class="atom-12" d="M 443.608 317.434 Q 445.461 317.971, 446.347 319.179 Q 447.26 320.361, 447.26 322.24 Q 447.26 323.851, 446.454 325.113 Q 445.649 326.348, 444.172 327.046 Q 442.696 327.717, 440.762 327.717 Q 438.722 327.717, 437.192 327.019 Q 435.688 326.294, 434.48 324.844 L 436.01 323.287 Q 437.192 324.576, 438.185 325.086 Q 439.178 325.569, 440.762 325.569 Q 442.481 325.569, 443.528 324.656 Q 444.575 323.717, 444.575 322.213 Q 444.575 320.28, 443.474 319.421 Q 442.4 318.535, 440.064 318.535 L 438.695 318.535 L 438.695 316.602 L 439.903 316.602 Q 441.971 316.575, 443.071 315.689 Q 444.172 314.776, 444.172 313.085 Q 444.172 311.85, 443.259 311.125 Q 442.347 310.373, 440.789 310.373 Q 439.205 310.373, 438.212 310.937 Q 437.245 311.501, 436.493 312.924 L 434.641 311.93 Q 435.312 310.346, 436.923 309.299 Q 438.534 308.225, 440.789 308.225 Q 443.582 308.225, 445.219 309.541 Q 446.857 310.856, 446.857 313.085 Q 446.857 314.615, 446.025 315.716 Q 445.193 316.817, 443.608 317.434 " fill="#FF0000"/>
<path class="atom-13" d="M 103.83 344.55 L 106.408 344.55 L 106.408 352.632 L 116.127 352.632 L 116.127 344.55 L 118.705 344.55 L 118.705 363.559 L 116.127 363.559 L 116.127 354.78 L 106.408 354.78 L 106.408 363.559 L 103.83 363.559 L 103.83 344.55 " fill="#000000"/>
<path class="atom-13" d="M 120.718 360.418 L 123.403 360.418 L 123.403 363.103 L 120.718 363.103 L 120.718 360.418 M 120.718 351.182 L 123.403 351.182 L 123.403 353.867 L 120.718 353.867 L 120.718 351.182 " fill="#000000"/>
<path class="atom-13" d="M 125.9 361.411 L 130.062 361.411 L 130.062 347.208 L 125.471 348.631 L 124.853 347.047 L 130.679 344.443 L 132.586 344.765 L 132.586 361.411 L 136.318 361.411 L 136.318 363.559 L 125.9 363.559 L 125.9 361.411 " fill="#000000"/>
<path class="atom-13" d="M 149.474 357.035 L 151.756 357.035 L 151.756 359.183 L 149.474 359.183 L 149.474 363.559 L 146.95 363.559 L 146.95 359.183 L 137.123 359.183 L 137.123 357.492 L 145.446 344.55 L 149.474 344.55 L 149.474 357.035 M 140.237 357.035 L 146.95 357.035 L 146.95 346.269 L 140.237 357.035 " fill="#000000"/>
<path class="atom-14" d="M 22.7273 237.922 L 25.3048 237.922 L 25.3048 246.004 L 35.0241 246.004 L 35.0241 237.922 L 37.6015 237.922 L 37.6015 256.931 L 35.0241 256.931 L 35.0241 248.152 L 25.3048 248.152 L 25.3048 256.931 L 22.7273 256.931 L 22.7273 237.922 " fill="#000000"/>
<path class="atom-14" d="M 39.6152 253.79 L 42.3001 253.79 L 42.3001 256.475 L 39.6152 256.475 L 39.6152 253.79 M 39.6152 244.554 L 42.3001 244.554 L 42.3001 247.239 L 39.6152 247.239 L 39.6152 244.554 " fill="#000000"/>
<path class="atom-14" d="M 44.797 254.783 L 48.9586 254.783 L 48.9586 240.58 L 44.3675 242.003 L 43.7499 240.419 L 49.5761 237.815 L 51.4824 238.137 L 51.4824 254.783 L 55.2144 254.783 L 55.2144 256.931 L 44.797 256.931 L 44.797 254.783 " fill="#000000"/>
<path class="atom-14" d="M 63.3496 245.037 Q 65.0142 245.037, 66.3835 245.762 Q 67.7528 246.46, 68.5314 247.803 Q 69.3101 249.118, 69.3101 250.917 Q 69.3101 252.877, 68.3435 254.3 Q 67.4038 255.696, 65.8466 256.421 Q 64.2893 257.146, 62.5173 257.146 Q 60.7721 257.146, 59.1612 256.502 Q 57.5503 255.857, 56.4494 254.622 L 58.0604 252.958 Q 58.9464 253.924, 60.1546 254.461 Q 61.3628 254.971, 62.5978 254.971 Q 64.2893 254.971, 65.4438 253.924 Q 66.6252 252.877, 66.6252 250.971 Q 66.6252 248.957, 65.4438 248.017 Q 64.2893 247.051, 62.4367 247.051 Q 60.7721 247.051, 58.9195 247.776 L 57.4429 247.078 L 58.3557 237.922 L 68.1287 237.922 L 67.8602 240.07 L 60.5573 240.07 L 59.9935 245.708 Q 61.685 245.037, 63.3496 245.037 " fill="#000000"/>
<path class="atom-15" d="M 73.5384 114.029 L 76.1159 114.029 L 76.1159 122.111 L 85.8352 122.111 L 85.8352 114.029 L 88.4127 114.029 L 88.4127 133.038 L 85.8352 133.038 L 85.8352 124.259 L 76.1159 124.259 L 76.1159 133.038 L 73.5384 133.038 L 73.5384 114.029 " fill="#000000"/>
<path class="atom-15" d="M 90.4264 129.897 L 93.1113 129.897 L 93.1113 132.582 L 90.4264 132.582 L 90.4264 129.897 M 90.4264 120.661 L 93.1113 120.661 L 93.1113 123.346 L 90.4264 123.346 L 90.4264 120.661 " fill="#000000"/>
<path class="atom-15" d="M 95.6082 130.89 L 99.7698 130.89 L 99.7698 116.687 L 95.1786 118.11 L 94.5611 116.526 L 100.387 113.922 L 102.294 114.244 L 102.294 130.89 L 106.026 130.89 L 106.026 133.038 L 95.6082 133.038 L 95.6082 130.89 " fill="#000000"/>
<path class="atom-15" d="M 115.288 121.171 Q 116.953 121.171, 118.269 121.896 Q 119.584 122.621, 120.309 123.936 Q 121.034 125.252, 121.034 126.917 Q 121.034 128.769, 120.202 130.219 Q 119.396 131.642, 117.946 132.447 Q 116.497 133.253, 114.644 133.253 Q 111.261 133.253, 109.543 130.971 Q 107.851 128.662, 107.851 124.097 Q 107.851 119.05, 109.945 116.446 Q 112.067 113.814, 116.121 113.814 Q 117.302 113.814, 118.295 114.083 Q 119.316 114.351, 120.282 114.915 L 119.235 116.714 Q 117.839 115.962, 116.148 115.962 Q 113.463 115.962, 112.093 117.707 Q 110.724 119.426, 110.563 122.997 Q 111.53 122.111, 112.738 121.654 Q 113.973 121.171, 115.288 121.171 M 114.671 131.051 Q 115.691 131.051, 116.523 130.514 Q 117.383 129.977, 117.866 129.038 Q 118.349 128.098, 118.349 126.943 Q 118.349 125.252, 117.409 124.285 Q 116.47 123.319, 114.805 123.319 Q 113.651 123.319, 112.496 123.802 Q 111.368 124.259, 110.563 125.064 Q 110.67 128.205, 111.664 129.628 Q 112.657 131.051, 114.671 131.051 " fill="#000000"/>
<path class="atom-16" d="M 431.683 178.673 L 434.261 178.673 L 434.261 186.754 L 443.98 186.754 L 443.98 178.673 L 446.558 178.673 L 446.558 197.682 L 443.98 197.682 L 443.98 188.902 L 434.261 188.902 L 434.261 197.682 L 431.683 197.682 L 431.683 178.673 " fill="#000000"/>
<path class="atom-16" d="M 448.571 194.541 L 451.256 194.541 L 451.256 197.225 L 448.571 197.225 L 448.571 194.541 M 448.571 185.305 L 451.256 185.305 L 451.256 187.989 L 448.571 187.989 L 448.571 185.305 " fill="#000000"/>
<path class="atom-16" d="M 453.753 195.534 L 457.915 195.534 L 457.915 181.331 L 453.324 182.754 L 452.706 181.17 L 458.532 178.566 L 460.438 178.888 L 460.438 195.534 L 464.17 195.534 L 464.17 197.682 L 453.753 197.682 L 453.753 195.534 " fill="#000000"/>
<path class="atom-16" d="M 474.615 180.821 L 464.654 180.821 L 464.654 178.673 L 477.273 178.673 L 477.273 180.579 L 469.594 197.682 L 467.016 197.682 L 474.615 180.821 " fill="#000000"/>
<path class="atom-17" d="M 343.395 103.087 L 345.973 103.087 L 345.973 111.169 L 355.692 111.169 L 355.692 103.087 L 358.269 103.087 L 358.269 122.096 L 355.692 122.096 L 355.692 113.317 L 345.973 113.317 L 345.973 122.096 L 343.395 122.096 L 343.395 103.087 " fill="#000000"/>
<path class="atom-17" d="M 360.283 118.955 L 362.968 118.955 L 362.968 121.64 L 360.283 121.64 L 360.283 118.955 M 360.283 109.719 L 362.968 109.719 L 362.968 112.404 L 360.283 112.404 L 360.283 109.719 " fill="#000000"/>
<path class="atom-17" d="M 365.465 119.948 L 369.626 119.948 L 369.626 105.745 L 365.035 107.168 L 364.418 105.584 L 370.244 102.98 L 372.15 103.302 L 372.15 119.948 L 375.882 119.948 L 375.882 122.096 L 365.465 122.096 L 365.465 119.948 " fill="#000000"/>
<path class="atom-17" d="M 387.239 112.028 Q 388.984 112.78, 389.978 113.907 Q 390.971 115.008, 390.971 116.887 Q 390.971 118.498, 390.139 119.76 Q 389.307 120.995, 387.803 121.693 Q 386.326 122.365, 384.366 122.365 Q 381.198 122.365, 379.373 120.915 Q 377.547 119.438, 377.547 116.887 Q 377.547 115.33, 378.352 114.176 Q 379.158 112.994, 380.822 112.108 Q 379.587 111.41, 378.916 110.39 Q 378.245 109.343, 378.245 107.732 Q 378.245 105.504, 379.856 104.188 Q 381.494 102.872, 384.259 102.872 Q 387.024 102.872, 388.635 104.188 Q 390.273 105.504, 390.273 107.732 Q 390.273 109.128, 389.495 110.175 Q 388.743 111.196, 387.239 112.028 M 384.259 104.886 Q 382.675 104.886, 381.789 105.638 Q 380.93 106.39, 380.93 107.732 Q 380.93 108.725, 381.52 109.397 Q 382.111 110.041, 382.943 110.417 Q 383.803 110.793, 385.44 111.357 Q 386.595 110.551, 387.078 109.692 Q 387.588 108.833, 387.588 107.732 Q 387.588 106.39, 386.702 105.638 Q 385.843 104.886, 384.259 104.886 M 384.366 120.351 Q 386.138 120.351, 387.212 119.411 Q 388.286 118.445, 388.286 116.861 Q 388.286 115.84, 387.723 115.196 Q 387.159 114.552, 386.3 114.176 Q 385.467 113.8, 383.964 113.317 L 382.755 112.914 Q 381.413 113.719, 380.822 114.686 Q 380.232 115.626, 380.232 116.861 Q 380.232 118.445, 381.359 119.411 Q 382.487 120.351, 384.366 120.351 " fill="#000000"/>
<text x="316.39769353444274" y="309.54718528750675" font-size="12" font-family="Verdana" font-weight="bold" letter-spacing="0" text-anchor="start" fill="black" transform=" rotate(58.587734 316.397694 309.547185)">0.017</text><text x="25" y="490" font-size="12" font-family="Verdana" font-weight="bold" letter-spacing="0" text-anchor="start" fill="black">[#6:1]1(:[#6:2]2-[#6:4](-[#6:5](-[#7:3](-[#6:6]:2:[#6:8](:[#6:9](:[#6:7]:1-[H:16])-[H:15])-[H:14])-[H:11])=[#8:13])=[#6:12](-[H:17])-[H:18])-[H:10]</text></svg>
