<?xml version='1.0' encoding='ASCII' standalone='yes'?>
<svg xmlns="http://www.w3.org/2000/svg" xmlns:rdkit="http://www.rdkit.org/xml" xmlns:xlink="http://www.w3.org/1999/xlink" version="1.1" baseProfile="full" xml:space="preserve" width="500px" height="500px" viewBox="0 0 500 500">
<!-- END OF HEADER -->
<rect style="opacity:1.0;fill:#FFFFFF;stroke:none" width="500" height="500" x="0" y="0"> </rect>
<path d="M 189.764,193.108 L 235.828,186.447" style="fill:none;fill-rule:evenodd;stroke:#FF7F7F;stroke-width:9.9px;stroke-linecap:butt;stroke-linejoin:miter;stroke-opacity:1"/>
<path class="bond-0 atom-0 atom-17" d="M 166.256,237.234 L 139.911,241.045" style="fill:none;fill-rule:evenodd;stroke:#000000;stroke-width:2.0px;stroke-linecap:butt;stroke-linejoin:miter;stroke-opacity:1"/>
<path class="bond-0 atom-0 atom-17" d="M 160.972,228.593 L 142.53,231.26" style="fill:none;fill-rule:evenodd;stroke:#000000;stroke-width:2.0px;stroke-linecap:butt;stroke-linejoin:miter;stroke-opacity:1"/>
<path class="bond-1 atom-0 atom-20" d="M 175.854,243.782 L 179.533,251.957" style="fill:none;fill-rule:evenodd;stroke:#000000;stroke-width:2.0px;stroke-linecap:butt;stroke-linejoin:miter;stroke-opacity:1"/>
<path class="bond-2 atom-1 atom-0" d="M 186.764,200.62 L 175.548,228.705" style="fill:none;fill-rule:evenodd;stroke:#000000;stroke-width:2.0px;stroke-linecap:butt;stroke-linejoin:miter;stroke-opacity:1"/>
<path class="bond-3 atom-1 atom-5" d="M 183.597,185.28 L 167.051,164.275" style="fill:none;fill-rule:evenodd;stroke:#000000;stroke-width:2.0px;stroke-linecap:butt;stroke-linejoin:miter;stroke-opacity:1"/>
<path class="bond-3 atom-1 atom-5" d="M 173.803,187.889 L 162.221,173.186" style="fill:none;fill-rule:evenodd;stroke:#000000;stroke-width:2.0px;stroke-linecap:butt;stroke-linejoin:miter;stroke-opacity:1"/>
<path class="bond-5 atom-2 atom-1" d="M 219.4,188.822 L 208.784,190.358" style="fill:none;fill-rule:evenodd;stroke:#0000FF;stroke-width:2.0px;stroke-linecap:butt;stroke-linejoin:miter;stroke-opacity:1"/>
<path class="bond-5 atom-2 atom-1" d="M 208.784,190.358 L 198.169,191.893" style="fill:none;fill-rule:evenodd;stroke:#000000;stroke-width:2.0px;stroke-linecap:butt;stroke-linejoin:miter;stroke-opacity:1"/>
<path class="bond-4 atom-2 atom-3" d="M 242.141,194.461 L 250.402,204.948" style="fill:none;fill-rule:evenodd;stroke:#0000FF;stroke-width:2.0px;stroke-linecap:butt;stroke-linejoin:miter;stroke-opacity:1"/>
<path class="bond-4 atom-2 atom-3" d="M 250.402,204.948 L 258.663,215.434" style="fill:none;fill-rule:evenodd;stroke:#000000;stroke-width:2.0px;stroke-linecap:butt;stroke-linejoin:miter;stroke-opacity:1"/>
<path class="bond-6 atom-2 atom-4" d="M 238.954,178.618 L 244.516,164.692" style="fill:none;fill-rule:evenodd;stroke:#0000FF;stroke-width:2.0px;stroke-linecap:butt;stroke-linejoin:miter;stroke-opacity:1"/>
<path class="bond-6 atom-2 atom-4" d="M 244.516,164.692 L 250.077,150.767" style="fill:none;fill-rule:evenodd;stroke:#000000;stroke-width:2.0px;stroke-linecap:butt;stroke-linejoin:miter;stroke-opacity:1"/>
<path class="bond-7 atom-3 atom-11" d="M 273.939,221.661 L 289.606,219.395" style="fill:none;fill-rule:evenodd;stroke:#000000;stroke-width:2.0px;stroke-linecap:butt;stroke-linejoin:miter;stroke-opacity:1"/>
<path class="bond-11 atom-6 atom-3" d="M 250.493,258.402 L 261.676,230.401" style="fill:none;fill-rule:evenodd;stroke:#000000;stroke-width:2.0px;stroke-linecap:butt;stroke-linejoin:miter;stroke-opacity:1"/>
<path class="bond-11 atom-6 atom-3" d="M 260.815,257.654 L 268.643,238.053" style="fill:none;fill-rule:evenodd;stroke:#000000;stroke-width:2.0px;stroke-linecap:butt;stroke-linejoin:miter;stroke-opacity:1"/>
<path class="bond-8 atom-5 atom-18" d="M 144.002,159 L 127.899,161.329" style="fill:none;fill-rule:evenodd;stroke:#000000;stroke-width:2.0px;stroke-linecap:butt;stroke-linejoin:miter;stroke-opacity:1"/>
<path class="bond-9 atom-5 atom-21" d="M 164.09,148.719 L 175.183,120.942" style="fill:none;fill-rule:evenodd;stroke:#000000;stroke-width:2.0px;stroke-linecap:butt;stroke-linejoin:miter;stroke-opacity:1"/>
<path class="bond-10 atom-6 atom-8" d="M 252.407,274.227 L 267.401,298.01" style="fill:none;fill-rule:evenodd;stroke:#000000;stroke-width:2.0px;stroke-linecap:butt;stroke-linejoin:miter;stroke-opacity:1"/>
<path class="bond-12 atom-6 atom-9" d="M 241.12,267.814 L 215.916,274.206" style="fill:none;fill-rule:evenodd;stroke:#000000;stroke-width:2.0px;stroke-linecap:butt;stroke-linejoin:miter;stroke-opacity:1"/>
<path class="bond-13 atom-7 atom-9" d="M 199.706,316.284 L 200.727,300.794" style="fill:none;fill-rule:evenodd;stroke:#0000FF;stroke-width:2.0px;stroke-linecap:butt;stroke-linejoin:miter;stroke-opacity:1"/>
<path class="bond-13 atom-7 atom-9" d="M 200.727,300.794 L 201.748,285.303" style="fill:none;fill-rule:evenodd;stroke:#000000;stroke-width:2.0px;stroke-linecap:butt;stroke-linejoin:miter;stroke-opacity:1"/>
<path class="bond-14 atom-7 atom-10" d="M 205.008,326.436 L 214.106,330.07" style="fill:none;fill-rule:evenodd;stroke:#0000FF;stroke-width:2.0px;stroke-linecap:butt;stroke-linejoin:miter;stroke-opacity:1"/>
<path class="bond-14 atom-7 atom-10" d="M 214.106,330.07 L 223.204,333.703" style="fill:none;fill-rule:evenodd;stroke:#000000;stroke-width:2.0px;stroke-linecap:butt;stroke-linejoin:miter;stroke-opacity:1"/>
<path class="bond-15 atom-7 atom-22" d="M 186.773,331.941 L 175.91,338.79" style="fill:none;fill-rule:evenodd;stroke:#0000FF;stroke-width:2.0px;stroke-linecap:butt;stroke-linejoin:miter;stroke-opacity:1"/>
<path class="bond-15 atom-7 atom-22" d="M 175.91,338.79 L 165.047,345.638" style="fill:none;fill-rule:evenodd;stroke:#000000;stroke-width:2.0px;stroke-linecap:butt;stroke-linejoin:miter;stroke-opacity:1"/>
<path class="bond-16 atom-8 atom-10" d="M 265.942,313.106 L 248.664,333.865" style="fill:none;fill-rule:evenodd;stroke:#000000;stroke-width:2.0px;stroke-linecap:butt;stroke-linejoin:miter;stroke-opacity:1"/>
<path class="bond-16 atom-8 atom-10" d="M 256.195,310.265 L 244.101,324.796" style="fill:none;fill-rule:evenodd;stroke:#000000;stroke-width:2.0px;stroke-linecap:butt;stroke-linejoin:miter;stroke-opacity:1"/>
<path class="bond-17 atom-8 atom-31" d="M 291.856,309.344 L 312.09,313.194" style="fill:none;fill-rule:evenodd;stroke:#000000;stroke-width:2.0px;stroke-linecap:butt;stroke-linejoin:miter;stroke-opacity:1"/>
<path class="bond-18 atom-9 atom-23" d="M 188.058,265.651 L 178.102,260.845" style="fill:none;fill-rule:evenodd;stroke:#000000;stroke-width:2.0px;stroke-linecap:butt;stroke-linejoin:miter;stroke-opacity:1"/>
<path class="bond-18 atom-9 atom-23" d="M 178.102,260.845 L 168.147,256.039" style="fill:none;fill-rule:evenodd;stroke:#FF0000;stroke-width:2.0px;stroke-linecap:butt;stroke-linejoin:miter;stroke-opacity:1"/>
<path class="bond-18 atom-9 atom-23" d="M 184.011,274.034 L 174.056,269.228" style="fill:none;fill-rule:evenodd;stroke:#000000;stroke-width:2.0px;stroke-linecap:butt;stroke-linejoin:miter;stroke-opacity:1"/>
<path class="bond-18 atom-9 atom-23" d="M 174.056,269.228 L 164.1,264.422" style="fill:none;fill-rule:evenodd;stroke:#FF0000;stroke-width:2.0px;stroke-linecap:butt;stroke-linejoin:miter;stroke-opacity:1"/>
<path class="bond-19 atom-10 atom-32" d="M 244.399,349.203 L 251.957,379.012" style="fill:none;fill-rule:evenodd;stroke:#000000;stroke-width:2.0px;stroke-linecap:butt;stroke-linejoin:miter;stroke-opacity:1"/>
<path class="bond-20 atom-11 atom-12" d="M 316.859,224.174 L 333.581,245.402" style="fill:none;fill-rule:evenodd;stroke:#000000;stroke-width:2.0px;stroke-linecap:butt;stroke-linejoin:miter;stroke-opacity:1"/>
<path class="bond-20 atom-11 atom-12" d="M 326.679,221.598 L 338.385,236.458" style="fill:none;fill-rule:evenodd;stroke:#000000;stroke-width:2.0px;stroke-linecap:butt;stroke-linejoin:miter;stroke-opacity:1"/>
<path class="bond-21 atom-11 atom-13" d="M 313.818,208.517 L 324.912,180.741" style="fill:none;fill-rule:evenodd;stroke:#000000;stroke-width:2.0px;stroke-linecap:butt;stroke-linejoin:miter;stroke-opacity:1"/>
<path class="bond-22 atom-12 atom-14" d="M 345.087,252.098 L 364.381,249.308" style="fill:none;fill-rule:evenodd;stroke:#000000;stroke-width:2.0px;stroke-linecap:butt;stroke-linejoin:miter;stroke-opacity:1"/>
<path class="bond-23 atom-12 atom-24" d="M 337.38,260.922 L 329.598,290.44" style="fill:none;fill-rule:evenodd;stroke:#000000;stroke-width:2.0px;stroke-linecap:butt;stroke-linejoin:miter;stroke-opacity:1"/>
<path class="bond-24 atom-13 atom-15" d="M 341.661,171.141 L 352.861,169.521" style="fill:none;fill-rule:evenodd;stroke:#000000;stroke-width:2.0px;stroke-linecap:butt;stroke-linejoin:miter;stroke-opacity:1"/>
<path class="bond-24 atom-13 atom-15" d="M 344.673,180.11 L 352.513,178.977" style="fill:none;fill-rule:evenodd;stroke:#000000;stroke-width:2.0px;stroke-linecap:butt;stroke-linejoin:miter;stroke-opacity:1"/>
<path class="bond-25 atom-13 atom-25" d="M 321.846,165.369 L 304.641,143.528" style="fill:none;fill-rule:evenodd;stroke:#000000;stroke-width:2.0px;stroke-linecap:butt;stroke-linejoin:miter;stroke-opacity:1"/>
<path class="bond-26 atom-14 atom-16" d="M 388.653,238.491 L 399.775,210.642" style="fill:none;fill-rule:evenodd;stroke:#000000;stroke-width:2.0px;stroke-linecap:butt;stroke-linejoin:miter;stroke-opacity:1"/>
<path class="bond-26 atom-14 atom-16" d="M 381.677,230.861 L 389.462,211.367" style="fill:none;fill-rule:evenodd;stroke:#000000;stroke-width:2.0px;stroke-linecap:butt;stroke-linejoin:miter;stroke-opacity:1"/>
<path class="bond-27 atom-14 atom-26" d="M 391.84,254.223 L 408.507,275.381" style="fill:none;fill-rule:evenodd;stroke:#000000;stroke-width:2.0px;stroke-linecap:butt;stroke-linejoin:miter;stroke-opacity:1"/>
<path class="bond-28 atom-15 atom-16" d="M 380.302,174.439 L 396.91,195.522" style="fill:none;fill-rule:evenodd;stroke:#000000;stroke-width:2.0px;stroke-linecap:butt;stroke-linejoin:miter;stroke-opacity:1"/>
<path class="bond-29 atom-15 atom-27" d="M 377.144,158.633 L 388.238,130.856" style="fill:none;fill-rule:evenodd;stroke:#000000;stroke-width:2.0px;stroke-linecap:butt;stroke-linejoin:miter;stroke-opacity:1"/>
<path class="bond-30 atom-16 atom-28" d="M 415.485,201.191 L 442.881,197.228" style="fill:none;fill-rule:evenodd;stroke:#000000;stroke-width:2.0px;stroke-linecap:butt;stroke-linejoin:miter;stroke-opacity:1"/>
<path class="bond-31 atom-17 atom-19" d="M 120.33,235.239 L 103.727,214.162" style="fill:none;fill-rule:evenodd;stroke:#000000;stroke-width:2.0px;stroke-linecap:butt;stroke-linejoin:miter;stroke-opacity:1"/>
<path class="bond-32 atom-17 atom-29" d="M 123.312,250.821 L 112.219,278.598" style="fill:none;fill-rule:evenodd;stroke:#000000;stroke-width:2.0px;stroke-linecap:butt;stroke-linejoin:miter;stroke-opacity:1"/>
<path class="bond-33 atom-18 atom-19" d="M 111.774,171.037 L 100.68,198.814" style="fill:none;fill-rule:evenodd;stroke:#000000;stroke-width:2.0px;stroke-linecap:butt;stroke-linejoin:miter;stroke-opacity:1"/>
<path class="bond-33 atom-18 atom-19" d="M 118.754,178.656 L 110.989,198.1" style="fill:none;fill-rule:evenodd;stroke:#000000;stroke-width:2.0px;stroke-linecap:butt;stroke-linejoin:miter;stroke-opacity:1"/>
<path class="bond-34 atom-18 atom-30" d="M 108.792,155.455 L 90.9907,132.857" style="fill:none;fill-rule:evenodd;stroke:#000000;stroke-width:2.0px;stroke-linecap:butt;stroke-linejoin:miter;stroke-opacity:1"/>
<path class="bond-35 atom-19 atom-33" d="M 75.4532,209.64 L 57.2507,212.273" style="fill:none;fill-rule:evenodd;stroke:#000000;stroke-width:2.0px;stroke-linecap:butt;stroke-linejoin:miter;stroke-opacity:1"/>
<path class="atom-0" d="M 167.419 236.387 Q 167.419 233.11, 168.946 231.398 Q 170.491 229.666, 173.414 229.666 Q 176.132 229.666, 177.584 231.584 L 176.356 232.589 Q 175.294 231.193, 173.414 231.193 Q 171.422 231.193, 170.361 232.533 Q 169.318 233.855, 169.318 236.387 Q 169.318 238.993, 170.398 240.334 Q 171.497 241.674, 173.619 241.674 Q 175.071 241.674, 176.765 240.799 L 177.286 242.196 Q 176.598 242.642, 175.555 242.903 Q 174.513 243.164, 173.358 243.164 Q 170.491 243.164, 168.946 241.414 Q 167.419 239.664, 167.419 236.387 " fill="#000000"/>
<path class="atom-0" d="M 178.981 240.818 L 180.842 240.818 L 180.842 242.68 L 178.981 242.68 L 178.981 240.818 M 178.981 234.414 L 180.842 234.414 L 180.842 236.275 L 178.981 236.275 L 178.981 234.414 " fill="#000000"/>
<path class="atom-0" d="M 182.574 241.507 L 185.459 241.507 L 185.459 231.658 L 182.276 232.645 L 181.848 231.547 L 185.888 229.741 L 187.209 229.964 L 187.209 241.507 L 189.797 241.507 L 189.797 242.996 L 182.574 242.996 L 182.574 241.507 " fill="#000000"/>
<path class="atom-1" d="M 174.187 193.164 Q 174.187 189.888, 175.713 188.175 Q 177.258 186.443, 180.181 186.443 Q 182.899 186.443, 184.351 188.361 L 183.123 189.366 Q 182.062 187.97, 180.181 187.97 Q 178.189 187.97, 177.128 189.31 Q 176.085 190.632, 176.085 193.164 Q 176.085 195.771, 177.165 197.111 Q 178.264 198.451, 180.386 198.451 Q 181.838 198.451, 183.532 197.576 L 184.054 198.973 Q 183.365 199.419, 182.322 199.68 Q 181.28 199.941, 180.125 199.941 Q 177.258 199.941, 175.713 198.191 Q 174.187 196.441, 174.187 193.164 " fill="#000000"/>
<path class="atom-1" d="M 185.748 197.595 L 187.609 197.595 L 187.609 199.457 L 185.748 199.457 L 185.748 197.595 M 185.748 191.191 L 187.609 191.191 L 187.609 193.052 L 185.748 193.052 L 185.748 191.191 " fill="#000000"/>
<path class="atom-1" d="M 188.577 189.087 Q 189.061 187.84, 190.216 187.151 Q 191.37 186.443, 192.971 186.443 Q 194.963 186.443, 196.08 187.523 Q 197.197 188.603, 197.197 190.521 Q 197.197 192.475, 195.745 194.3 Q 194.311 196.124, 191.333 198.284 L 197.421 198.284 L 197.421 199.773 L 188.54 199.773 L 188.54 198.526 Q 190.998 196.776, 192.45 195.473 Q 193.921 194.169, 194.628 192.997 Q 195.335 191.824, 195.335 190.614 Q 195.335 189.348, 194.702 188.64 Q 194.069 187.933, 192.971 187.933 Q 191.91 187.933, 191.202 188.361 Q 190.495 188.789, 189.992 189.739 L 188.577 189.087 " fill="#000000"/>
<path class="atom-2" d="M 222.648 179.931 L 226.967 186.912 Q 227.396 187.601, 228.084 188.848 Q 228.773 190.095, 228.811 190.17 L 228.811 179.931 L 230.561 179.931 L 230.561 193.111 L 228.755 193.111 L 224.119 185.478 Q 223.579 184.585, 223.002 183.561 Q 222.444 182.537, 222.276 182.22 L 222.276 193.111 L 220.563 193.111 L 220.563 179.931 L 222.648 179.931 " fill="#0000FF"/>
<path class="atom-2" d="M 231.957 190.933 L 233.819 190.933 L 233.819 192.795 L 231.957 192.795 L 231.957 190.933 M 231.957 184.529 L 233.819 184.529 L 233.819 186.391 L 231.957 186.391 L 231.957 184.529 " fill="#0000FF"/>
<path class="atom-2" d="M 240.93 186.167 Q 242.215 186.54, 242.829 187.377 Q 243.462 188.197, 243.462 189.5 Q 243.462 190.617, 242.904 191.492 Q 242.345 192.348, 241.321 192.832 Q 240.297 193.298, 238.957 193.298 Q 237.542 193.298, 236.481 192.814 Q 235.438 192.311, 234.6 191.306 L 235.662 190.226 Q 236.481 191.119, 237.17 191.473 Q 237.858 191.808, 238.957 191.808 Q 240.148 191.808, 240.874 191.175 Q 241.6 190.524, 241.6 189.481 Q 241.6 188.141, 240.837 187.545 Q 240.092 186.931, 238.473 186.931 L 237.523 186.931 L 237.523 185.59 L 238.361 185.59 Q 239.795 185.572, 240.558 184.957 Q 241.321 184.324, 241.321 183.151 Q 241.321 182.295, 240.688 181.792 Q 240.055 181.271, 238.975 181.271 Q 237.877 181.271, 237.188 181.662 Q 236.518 182.053, 235.997 183.04 L 234.712 182.351 Q 235.178 181.252, 236.295 180.526 Q 237.412 179.782, 238.975 179.782 Q 240.912 179.782, 242.047 180.694 Q 243.183 181.606, 243.183 183.151 Q 243.183 184.212, 242.606 184.976 Q 242.029 185.739, 240.93 186.167 " fill="#0000FF"/>
<path class="atom-3" d="M 248.647 223.064 Q 248.647 219.787, 250.174 218.074 Q 251.719 216.343, 254.642 216.343 Q 257.36 216.343, 258.812 218.26 L 257.584 219.266 Q 256.522 217.869, 254.642 217.869 Q 252.65 217.869, 251.589 219.21 Q 250.546 220.532, 250.546 223.064 Q 250.546 225.67, 251.626 227.01 Q 252.724 228.351, 254.847 228.351 Q 256.299 228.351, 257.993 227.476 L 258.514 228.872 Q 257.826 229.319, 256.783 229.579 Q 255.74 229.84, 254.586 229.84 Q 251.719 229.84, 250.174 228.09 Q 248.647 226.34, 248.647 223.064 " fill="#000000"/>
<path class="atom-3" d="M 260.209 227.494 L 262.07 227.494 L 262.07 229.356 L 260.209 229.356 L 260.209 227.494 M 260.209 221.09 L 262.07 221.09 L 262.07 222.952 L 260.209 222.952 L 260.209 221.09 " fill="#000000"/>
<path class="atom-3" d="M 271.193 225.149 L 272.775 225.149 L 272.775 226.638 L 271.193 226.638 L 271.193 229.673 L 269.443 229.673 L 269.443 226.638 L 262.629 226.638 L 262.629 225.465 L 268.4 216.492 L 271.193 216.492 L 271.193 225.149 M 264.788 225.149 L 269.443 225.149 L 269.443 217.683 L 264.788 225.149 " fill="#000000"/>
<path class="atom-4" d="M 247.933 136.633 L 249.72 136.633 L 249.72 142.237 L 256.46 142.237 L 256.46 136.633 L 258.247 136.633 L 258.247 149.814 L 256.46 149.814 L 256.46 143.726 L 249.72 143.726 L 249.72 149.814 L 247.933 149.814 L 247.933 136.633 " fill="#000000"/>
<path class="atom-4" d="M 259.643 147.636 L 261.505 147.636 L 261.505 149.498 L 259.643 149.498 L 259.643 147.636 M 259.643 141.232 L 261.505 141.232 L 261.505 143.093 L 259.643 143.093 L 259.643 141.232 " fill="#000000"/>
<path class="atom-4" d="M 267.146 141.567 Q 268.3 141.567, 269.25 142.069 Q 270.199 142.553, 270.739 143.484 Q 271.279 144.397, 271.279 145.644 Q 271.279 147.003, 270.609 147.99 Q 269.957 148.958, 268.877 149.46 Q 267.797 149.963, 266.569 149.963 Q 265.359 149.963, 264.242 149.516 Q 263.125 149.069, 262.361 148.213 L 263.478 147.059 Q 264.093 147.729, 264.93 148.101 Q 265.768 148.455, 266.625 148.455 Q 267.797 148.455, 268.598 147.729 Q 269.417 147.003, 269.417 145.681 Q 269.417 144.285, 268.598 143.633 Q 267.797 142.963, 266.513 142.963 Q 265.359 142.963, 264.074 143.466 L 263.05 142.982 L 263.683 136.633 L 270.46 136.633 L 270.274 138.123 L 265.21 138.123 L 264.819 142.032 Q 265.992 141.567, 267.146 141.567 " fill="#000000"/>
<path class="atom-5" d="M 145.165 156.603 Q 145.165 153.326, 146.692 151.614 Q 148.237 149.882, 151.16 149.882 Q 153.878 149.882, 155.33 151.8 L 154.101 152.805 Q 153.04 151.409, 151.16 151.409 Q 149.168 151.409, 148.107 152.749 Q 147.064 154.071, 147.064 156.603 Q 147.064 159.209, 148.144 160.55 Q 149.242 161.89, 151.365 161.89 Q 152.817 161.89, 154.511 161.015 L 155.032 162.412 Q 154.343 162.858, 153.301 163.119 Q 152.258 163.38, 151.104 163.38 Q 148.237 163.38, 146.692 161.63 Q 145.165 159.88, 145.165 156.603 " fill="#000000"/>
<path class="atom-5" d="M 156.726 161.034 L 158.588 161.034 L 158.588 162.896 L 156.726 162.896 L 156.726 161.034 M 156.726 154.63 L 158.588 154.63 L 158.588 156.491 L 156.726 156.491 L 156.726 154.63 " fill="#000000"/>
<path class="atom-5" d="M 165.011 154.983 Q 166.165 154.983, 167.078 155.486 Q 167.99 155.989, 168.492 156.901 Q 168.995 157.813, 168.995 158.967 Q 168.995 160.252, 168.418 161.257 Q 167.859 162.244, 166.854 162.802 Q 165.849 163.361, 164.564 163.361 Q 162.218 163.361, 161.027 161.779 Q 159.854 160.177, 159.854 157.013 Q 159.854 153.513, 161.306 151.707 Q 162.777 149.882, 165.588 149.882 Q 166.407 149.882, 167.096 150.068 Q 167.804 150.255, 168.474 150.646 L 167.748 151.893 Q 166.78 151.372, 165.607 151.372 Q 163.745 151.372, 162.796 152.582 Q 161.846 153.773, 161.734 156.249 Q 162.405 155.635, 163.242 155.318 Q 164.099 154.983, 165.011 154.983 M 164.583 161.834 Q 165.29 161.834, 165.867 161.462 Q 166.463 161.09, 166.798 160.438 Q 167.133 159.787, 167.133 158.986 Q 167.133 157.813, 166.482 157.143 Q 165.83 156.473, 164.676 156.473 Q 163.875 156.473, 163.075 156.808 Q 162.293 157.124, 161.734 157.683 Q 161.809 159.861, 162.498 160.848 Q 163.187 161.834, 164.583 161.834 " fill="#000000"/>
<path class="atom-6" d="M 242.284 266.286 Q 242.284 263.01, 243.81 261.297 Q 245.355 259.566, 248.278 259.566 Q 250.996 259.566, 252.449 261.483 L 251.22 262.489 Q 250.159 261.092, 248.278 261.092 Q 246.286 261.092, 245.225 262.433 Q 244.183 263.754, 244.183 266.286 Q 244.183 268.893, 245.262 270.233 Q 246.361 271.574, 248.483 271.574 Q 249.935 271.574, 251.629 270.699 L 252.151 272.095 Q 251.462 272.542, 250.419 272.802 Q 249.377 273.063, 248.222 273.063 Q 245.355 273.063, 243.81 271.313 Q 242.284 269.563, 242.284 266.286 " fill="#000000"/>
<path class="atom-6" d="M 253.845 270.717 L 255.707 270.717 L 255.707 272.579 L 253.845 272.579 L 253.845 270.717 M 253.845 264.313 L 255.707 264.313 L 255.707 266.175 L 253.845 266.175 L 253.845 264.313 " fill="#000000"/>
<path class="atom-6" d="M 262.949 261.204 L 256.042 261.204 L 256.042 259.715 L 264.792 259.715 L 264.792 261.036 L 259.467 272.895 L 257.68 272.895 L 262.949 261.204 " fill="#000000"/>
<path class="atom-7" d="M 182.212 317.597 L 186.531 324.578 Q 186.959 325.267, 187.648 326.514 Q 188.337 327.761, 188.374 327.836 L 188.374 317.597 L 190.124 317.597 L 190.124 330.777 L 188.318 330.777 L 183.683 323.144 Q 183.143 322.251, 182.566 321.227 Q 182.007 320.203, 181.839 319.886 L 181.839 330.777 L 180.127 330.777 L 180.127 317.597 L 182.212 317.597 " fill="#0000FF"/>
<path class="atom-7" d="M 191.52 328.599 L 193.382 328.599 L 193.382 330.461 L 191.52 330.461 L 191.52 328.599 M 191.52 322.195 L 193.382 322.195 L 193.382 324.057 L 191.52 324.057 L 191.52 322.195 " fill="#0000FF"/>
<path class="atom-7" d="M 201.257 323.796 Q 202.467 324.317, 203.156 325.099 Q 203.845 325.863, 203.845 327.166 Q 203.845 328.283, 203.268 329.158 Q 202.691 330.014, 201.648 330.498 Q 200.624 330.964, 199.265 330.964 Q 197.068 330.964, 195.802 329.958 Q 194.536 328.934, 194.536 327.166 Q 194.536 326.086, 195.095 325.285 Q 195.653 324.466, 196.808 323.852 Q 195.951 323.368, 195.486 322.66 Q 195.02 321.934, 195.02 320.817 Q 195.02 319.272, 196.137 318.36 Q 197.273 317.448, 199.191 317.448 Q 201.108 317.448, 202.225 318.36 Q 203.361 319.272, 203.361 320.817 Q 203.361 321.785, 202.821 322.511 Q 202.3 323.219, 201.257 323.796 M 199.191 318.844 Q 198.092 318.844, 197.478 319.365 Q 196.882 319.886, 196.882 320.817 Q 196.882 321.506, 197.292 321.972 Q 197.701 322.418, 198.278 322.679 Q 198.874 322.94, 200.01 323.331 Q 200.81 322.772, 201.145 322.176 Q 201.499 321.581, 201.499 320.817 Q 201.499 319.886, 200.885 319.365 Q 200.289 318.844, 199.191 318.844 M 199.265 329.567 Q 200.494 329.567, 201.238 328.916 Q 201.983 328.245, 201.983 327.147 Q 201.983 326.44, 201.592 325.993 Q 201.201 325.546, 200.605 325.285 Q 200.028 325.025, 198.986 324.69 L 198.148 324.41 Q 197.217 324.969, 196.808 325.639 Q 196.398 326.291, 196.398 327.147 Q 196.398 328.245, 197.18 328.916 Q 197.962 329.567, 199.265 329.567 " fill="#0000FF"/>
<path class="atom-8" d="M 267.105 305.658 Q 267.105 302.381, 268.632 300.668 Q 270.177 298.937, 273.1 298.937 Q 275.818 298.937, 277.27 300.855 L 276.041 301.86 Q 274.98 300.464, 273.1 300.464 Q 271.108 300.464, 270.047 301.804 Q 269.004 303.126, 269.004 305.658 Q 269.004 308.264, 270.084 309.605 Q 271.182 310.945, 273.305 310.945 Q 274.757 310.945, 276.451 310.07 L 276.972 311.466 Q 276.283 311.913, 275.241 312.174 Q 274.198 312.434, 273.044 312.434 Q 270.177 312.434, 268.632 310.684 Q 267.105 308.934, 267.105 305.658 " fill="#000000"/>
<path class="atom-8" d="M 278.666 310.089 L 280.528 310.089 L 280.528 311.95 L 278.666 311.95 L 278.666 310.089 M 278.666 303.684 L 280.528 303.684 L 280.528 305.546 L 278.666 305.546 L 278.666 303.684 " fill="#000000"/>
<path class="atom-8" d="M 285.983 298.937 Q 288.328 298.937, 289.501 300.538 Q 290.693 302.121, 290.693 305.285 Q 290.693 308.785, 289.222 310.61 Q 287.77 312.416, 284.959 312.416 Q 284.14 312.416, 283.432 312.23 Q 282.743 312.043, 282.073 311.652 L 282.799 310.405 Q 283.767 310.926, 284.94 310.926 Q 286.802 310.926, 287.751 309.735 Q 288.701 308.525, 288.813 306.049 Q 288.142 306.663, 287.286 306.998 Q 286.448 307.315, 285.536 307.315 Q 284.382 307.315, 283.469 306.812 Q 282.557 306.309, 282.055 305.397 Q 281.552 304.485, 281.552 303.331 Q 281.552 302.046, 282.11 301.059 Q 282.688 300.054, 283.693 299.496 Q 284.698 298.937, 285.983 298.937 M 283.414 303.312 Q 283.414 304.485, 284.065 305.155 Q 284.717 305.825, 285.871 305.825 Q 286.672 305.825, 287.453 305.509 Q 288.254 305.174, 288.813 304.615 Q 288.738 302.437, 288.049 301.45 Q 287.36 300.464, 285.964 300.464 Q 285.257 300.464, 284.661 300.836 Q 284.084 301.208, 283.749 301.86 Q 283.414 302.511, 283.414 303.312 " fill="#000000"/>
<path class="atom-9" d="M 181.756 277.727 Q 181.756 274.45, 183.283 272.737 Q 184.828 271.006, 187.751 271.006 Q 190.469 271.006, 191.921 272.923 L 190.693 273.929 Q 189.631 272.532, 187.751 272.532 Q 185.759 272.532, 184.698 273.873 Q 183.655 275.195, 183.655 277.727 Q 183.655 280.333, 184.735 281.673 Q 185.834 283.014, 187.956 283.014 Q 189.408 283.014, 191.102 282.139 L 191.623 283.535 Q 190.935 283.982, 189.892 284.243 Q 188.85 284.503, 187.695 284.503 Q 184.828 284.503, 183.283 282.753 Q 181.756 281.003, 181.756 277.727 " fill="#000000"/>
<path class="atom-9" d="M 193.318 282.157 L 195.179 282.157 L 195.179 284.019 L 193.318 284.019 L 193.318 282.157 M 193.318 275.753 L 195.179 275.753 L 195.179 277.615 L 193.318 277.615 L 193.318 275.753 " fill="#000000"/>
<path class="atom-9" d="M 196.911 282.846 L 199.796 282.846 L 199.796 272.998 L 196.613 273.985 L 196.185 272.886 L 200.225 271.08 L 201.546 271.304 L 201.546 282.846 L 204.134 282.846 L 204.134 284.336 L 196.911 284.336 L 196.911 282.846 " fill="#000000"/>
<path class="atom-9" d="M 210.092 284.485 Q 207.671 284.485, 206.461 282.697 Q 205.27 280.91, 205.27 277.727 Q 205.27 274.543, 206.461 272.774 Q 207.653 271.006, 210.092 271.006 Q 212.53 271.006, 213.722 272.774 Q 214.913 274.543, 214.913 277.727 Q 214.913 280.91, 213.703 282.697 Q 212.512 284.485, 210.092 284.485 M 210.092 282.995 Q 211.525 282.995, 212.288 281.673 Q 213.052 280.333, 213.052 277.727 Q 213.052 275.139, 212.288 273.817 Q 211.525 272.495, 210.092 272.495 Q 208.677 272.495, 207.895 273.817 Q 207.131 275.139, 207.131 277.727 Q 207.131 280.333, 207.895 281.673 Q 208.677 282.995, 210.092 282.995 " fill="#000000"/>
<path class="atom-10" d="M 222.586 341.431 Q 222.586 338.154, 224.113 336.441 Q 225.658 334.71, 228.581 334.71 Q 231.299 334.71, 232.751 336.628 L 231.522 337.633 Q 230.461 336.237, 228.581 336.237 Q 226.589 336.237, 225.528 337.577 Q 224.485 338.899, 224.485 341.431 Q 224.485 344.037, 225.565 345.378 Q 226.663 346.718, 228.786 346.718 Q 230.238 346.718, 231.932 345.843 L 232.453 347.239 Q 231.764 347.686, 230.722 347.947 Q 229.679 348.207, 228.525 348.207 Q 225.658 348.207, 224.113 346.457 Q 222.586 344.707, 222.586 341.431 " fill="#000000"/>
<path class="atom-10" d="M 234.147 345.862 L 236.009 345.862 L 236.009 347.723 L 234.147 347.723 L 234.147 345.862 M 234.147 339.457 L 236.009 339.457 L 236.009 341.319 L 234.147 341.319 L 234.147 339.457 " fill="#000000"/>
<path class="atom-10" d="M 237.741 346.55 L 240.626 346.55 L 240.626 336.702 L 237.443 337.689 L 237.014 336.59 L 241.054 334.784 L 242.376 335.008 L 242.376 346.55 L 244.964 346.55 L 244.964 348.04 L 237.741 348.04 L 237.741 346.55 " fill="#000000"/>
<path class="atom-10" d="M 246.695 346.55 L 249.581 346.55 L 249.581 336.702 L 246.397 337.689 L 245.969 336.59 L 250.009 334.784 L 251.331 335.008 L 251.331 346.55 L 253.919 346.55 L 253.919 348.04 L 246.695 348.04 L 246.695 346.55 " fill="#000000"/>
<path class="atom-11" d="M 290.534 216.402 Q 290.534 213.125, 292.061 211.412 Q 293.606 209.681, 296.529 209.681 Q 299.247 209.681, 300.699 211.599 L 299.47 212.604 Q 298.409 211.208, 296.529 211.208 Q 294.537 211.208, 293.476 212.548 Q 292.433 213.87, 292.433 216.402 Q 292.433 219.008, 293.513 220.349 Q 294.611 221.689, 296.734 221.689 Q 298.186 221.689, 299.88 220.814 L 300.401 222.21 Q 299.712 222.657, 298.67 222.918 Q 297.627 223.178, 296.473 223.178 Q 293.606 223.178, 292.061 221.428 Q 290.534 219.678, 290.534 216.402 " fill="#000000"/>
<path class="atom-11" d="M 302.095 220.833 L 303.957 220.833 L 303.957 222.694 L 302.095 222.694 L 302.095 220.833 M 302.095 214.428 L 303.957 214.428 L 303.957 216.29 L 302.095 216.29 L 302.095 214.428 " fill="#000000"/>
<path class="atom-11" d="M 305.689 221.521 L 308.574 221.521 L 308.574 211.673 L 305.391 212.66 L 304.962 211.561 L 309.002 209.755 L 310.324 209.979 L 310.324 221.521 L 312.912 221.521 L 312.912 223.011 L 305.689 223.011 L 305.689 221.521 " fill="#000000"/>
<path class="atom-11" d="M 313.88 212.325 Q 314.364 211.077, 315.518 210.388 Q 316.673 209.681, 318.274 209.681 Q 320.266 209.681, 321.383 210.761 Q 322.5 211.841, 322.5 213.758 Q 322.5 215.713, 321.048 217.537 Q 319.614 219.362, 316.635 221.521 L 322.723 221.521 L 322.723 223.011 L 313.843 223.011 L 313.843 221.763 Q 316.3 220.013, 317.752 218.71 Q 319.223 217.407, 319.931 216.234 Q 320.638 215.061, 320.638 213.851 Q 320.638 212.585, 320.005 211.878 Q 319.372 211.17, 318.274 211.17 Q 317.212 211.17, 316.505 211.599 Q 315.798 212.027, 315.295 212.976 L 313.88 212.325 " fill="#000000"/>
<path class="atom-12" d="M 311.902 252.963 Q 311.902 249.686, 313.429 247.974 Q 314.974 246.242, 317.897 246.242 Q 320.615 246.242, 322.067 248.16 L 320.838 249.165 Q 319.777 247.769, 317.897 247.769 Q 315.905 247.769, 314.844 249.109 Q 313.801 250.431, 313.801 252.963 Q 313.801 255.569, 314.881 256.91 Q 315.979 258.25, 318.102 258.25 Q 319.554 258.25, 321.248 257.375 L 321.769 258.771 Q 321.08 259.218, 320.038 259.479 Q 318.995 259.739, 317.841 259.739 Q 314.974 259.739, 313.429 257.989 Q 311.902 256.239, 311.902 252.963 " fill="#000000"/>
<path class="atom-12" d="M 323.463 257.394 L 325.325 257.394 L 325.325 259.255 L 323.463 259.255 L 323.463 257.394 M 323.463 250.989 L 325.325 250.989 L 325.325 252.851 L 323.463 252.851 L 323.463 250.989 " fill="#000000"/>
<path class="atom-12" d="M 327.057 258.083 L 329.942 258.083 L 329.942 248.234 L 326.759 249.221 L 326.33 248.122 L 330.37 246.317 L 331.692 246.54 L 331.692 258.083 L 334.28 258.083 L 334.28 259.572 L 327.057 259.572 L 327.057 258.083 " fill="#000000"/>
<path class="atom-12" d="M 341.392 252.628 Q 342.676 253, 343.291 253.838 Q 343.924 254.657, 343.924 255.96 Q 343.924 257.077, 343.365 257.952 Q 342.807 258.809, 341.783 259.293 Q 340.759 259.758, 339.418 259.758 Q 338.003 259.758, 336.942 259.274 Q 335.9 258.771, 335.062 257.766 L 336.123 256.686 Q 336.942 257.58, 337.631 257.934 Q 338.32 258.269, 339.418 258.269 Q 340.61 258.269, 341.336 257.636 Q 342.062 256.984, 342.062 255.942 Q 342.062 254.601, 341.299 254.005 Q 340.554 253.391, 338.934 253.391 L 337.985 253.391 L 337.985 252.051 L 338.823 252.051 Q 340.256 252.032, 341.019 251.418 Q 341.783 250.785, 341.783 249.612 Q 341.783 248.755, 341.15 248.253 Q 340.517 247.732, 339.437 247.732 Q 338.338 247.732, 337.65 248.122 Q 336.979 248.513, 336.458 249.5 L 335.174 248.811 Q 335.639 247.713, 336.756 246.987 Q 337.873 246.242, 339.437 246.242 Q 341.373 246.242, 342.509 247.154 Q 343.644 248.067, 343.644 249.612 Q 343.644 250.673, 343.067 251.436 Q 342.49 252.2, 341.392 252.628 " fill="#000000"/>
<path class="atom-13" d="M 307.415 173.179 Q 307.415 169.902, 308.942 168.19 Q 310.487 166.458, 313.41 166.458 Q 316.128 166.458, 317.58 168.376 L 316.351 169.381 Q 315.29 167.985, 313.41 167.985 Q 311.418 167.985, 310.357 169.325 Q 309.314 170.647, 309.314 173.179 Q 309.314 175.785, 310.394 177.126 Q 311.492 178.466, 313.614 178.466 Q 315.067 178.466, 316.761 177.591 L 317.282 178.987 Q 316.593 179.434, 315.551 179.695 Q 314.508 179.955, 313.354 179.955 Q 310.487 179.955, 308.942 178.205 Q 307.415 176.455, 307.415 173.179 " fill="#000000"/>
<path class="atom-13" d="M 318.976 177.61 L 320.838 177.61 L 320.838 179.471 L 318.976 179.471 L 318.976 177.61 M 318.976 171.205 L 320.838 171.205 L 320.838 173.067 L 318.976 173.067 L 318.976 171.205 " fill="#000000"/>
<path class="atom-13" d="M 322.569 178.299 L 325.455 178.299 L 325.455 168.45 L 322.271 169.437 L 321.843 168.338 L 325.883 166.533 L 327.205 166.756 L 327.205 178.299 L 329.793 178.299 L 329.793 179.788 L 322.569 179.788 L 322.569 178.299 " fill="#000000"/>
<path class="atom-13" d="M 338.915 175.264 L 340.497 175.264 L 340.497 176.753 L 338.915 176.753 L 338.915 179.788 L 337.165 179.788 L 337.165 176.753 L 330.351 176.753 L 330.351 175.58 L 336.122 166.607 L 338.915 166.607 L 338.915 175.264 M 332.511 175.264 L 337.165 175.264 L 337.165 167.799 L 332.511 175.264 " fill="#000000"/>
<path class="atom-14" d="M 365.403 246.301 Q 365.403 243.025, 366.93 241.312 Q 368.475 239.58, 371.398 239.58 Q 374.116 239.58, 375.568 241.498 L 374.339 242.503 Q 373.278 241.107, 371.398 241.107 Q 369.406 241.107, 368.345 242.447 Q 367.302 243.769, 367.302 246.301 Q 367.302 248.908, 368.382 250.248 Q 369.48 251.588, 371.603 251.588 Q 373.055 251.588, 374.749 250.713 L 375.27 252.11 Q 374.581 252.556, 373.539 252.817 Q 372.496 253.078, 371.342 253.078 Q 368.475 253.078, 366.93 251.328 Q 365.403 249.578, 365.403 246.301 " fill="#000000"/>
<path class="atom-14" d="M 376.964 250.732 L 378.826 250.732 L 378.826 252.594 L 376.964 252.594 L 376.964 250.732 M 376.964 244.328 L 378.826 244.328 L 378.826 246.189 L 376.964 246.189 L 376.964 244.328 " fill="#000000"/>
<path class="atom-14" d="M 380.557 251.421 L 383.443 251.421 L 383.443 241.572 L 380.26 242.559 L 379.831 241.461 L 383.871 239.655 L 385.193 239.878 L 385.193 251.421 L 387.781 251.421 L 387.781 252.91 L 380.557 252.91 L 380.557 251.421 " fill="#000000"/>
<path class="atom-14" d="M 393.422 244.663 Q 394.576 244.663, 395.525 245.166 Q 396.475 245.65, 397.015 246.58 Q 397.555 247.493, 397.555 248.74 Q 397.555 250.099, 396.884 251.086 Q 396.233 252.054, 395.153 252.556 Q 394.073 253.059, 392.845 253.059 Q 391.634 253.059, 390.517 252.612 Q 389.4 252.166, 388.637 251.309 L 389.754 250.155 Q 390.369 250.825, 391.206 251.197 Q 392.044 251.551, 392.9 251.551 Q 394.073 251.551, 394.874 250.825 Q 395.693 250.099, 395.693 248.777 Q 395.693 247.381, 394.874 246.729 Q 394.073 246.059, 392.789 246.059 Q 391.634 246.059, 390.35 246.562 L 389.326 246.078 L 389.959 239.729 L 396.736 239.729 L 396.549 241.219 L 391.486 241.219 L 391.095 245.128 Q 392.267 244.663, 393.422 244.663 " fill="#000000"/>
<path class="atom-15" d="M 353.678 166.517 Q 353.678 163.241, 355.205 161.528 Q 356.75 159.796, 359.673 159.796 Q 362.391 159.796, 363.843 161.714 L 362.615 162.719 Q 361.553 161.323, 359.673 161.323 Q 357.681 161.323, 356.62 162.663 Q 355.577 163.985, 355.577 166.517 Q 355.577 169.124, 356.657 170.464 Q 357.756 171.804, 359.878 171.804 Q 361.33 171.804, 363.024 170.929 L 363.545 172.326 Q 362.857 172.772, 361.814 173.033 Q 360.772 173.294, 359.617 173.294 Q 356.75 173.294, 355.205 171.544 Q 353.678 169.794, 353.678 166.517 " fill="#000000"/>
<path class="atom-15" d="M 365.24 170.948 L 367.101 170.948 L 367.101 172.81 L 365.24 172.81 L 365.24 170.948 M 365.24 164.544 L 367.101 164.544 L 367.101 166.405 L 365.24 166.405 L 365.24 164.544 " fill="#000000"/>
<path class="atom-15" d="M 368.833 171.637 L 371.718 171.637 L 371.718 161.788 L 368.535 162.775 L 368.107 161.677 L 372.147 159.871 L 373.468 160.094 L 373.468 171.637 L 376.056 171.637 L 376.056 173.126 L 368.833 173.126 L 368.833 171.637 " fill="#000000"/>
<path class="atom-15" d="M 382.479 164.897 Q 383.633 164.897, 384.545 165.4 Q 385.458 165.903, 385.96 166.815 Q 386.463 167.727, 386.463 168.882 Q 386.463 170.166, 385.886 171.171 Q 385.327 172.158, 384.322 172.717 Q 383.317 173.275, 382.032 173.275 Q 379.686 173.275, 378.495 171.693 Q 377.322 170.092, 377.322 166.927 Q 377.322 163.427, 378.774 161.621 Q 380.245 159.796, 383.056 159.796 Q 383.875 159.796, 384.564 159.983 Q 385.272 160.169, 385.942 160.56 L 385.216 161.807 Q 384.248 161.286, 383.075 161.286 Q 381.213 161.286, 380.264 162.496 Q 379.314 163.687, 379.202 166.163 Q 379.873 165.549, 380.71 165.233 Q 381.567 164.897, 382.479 164.897 M 382.051 171.749 Q 382.758 171.749, 383.335 171.376 Q 383.931 171.004, 384.266 170.352 Q 384.601 169.701, 384.601 168.9 Q 384.601 167.727, 383.95 167.057 Q 383.298 166.387, 382.144 166.387 Q 381.343 166.387, 380.543 166.722 Q 379.761 167.038, 379.202 167.597 Q 379.277 169.775, 379.966 170.762 Q 380.655 171.749, 382.051 171.749 " fill="#000000"/>
<path class="atom-16" d="M 382.859 203.078 Q 382.859 199.802, 384.385 198.089 Q 385.93 196.358, 388.853 196.358 Q 391.571 196.358, 393.024 198.275 L 391.795 199.28 Q 390.734 197.884, 388.853 197.884 Q 386.861 197.884, 385.8 199.225 Q 384.758 200.546, 384.758 203.078 Q 384.758 205.685, 385.837 207.025 Q 386.936 208.366, 389.058 208.366 Q 390.51 208.366, 392.204 207.491 L 392.726 208.887 Q 392.037 209.334, 390.994 209.594 Q 389.952 209.855, 388.798 209.855 Q 385.93 209.855, 384.385 208.105 Q 382.859 206.355, 382.859 203.078 " fill="#000000"/>
<path class="atom-16" d="M 394.42 207.509 L 396.282 207.509 L 396.282 209.371 L 394.42 209.371 L 394.42 207.509 M 394.42 201.105 L 396.282 201.105 L 396.282 202.967 L 394.42 202.967 L 394.42 201.105 " fill="#000000"/>
<path class="atom-16" d="M 398.013 208.198 L 400.899 208.198 L 400.899 198.35 L 397.715 199.336 L 397.287 198.238 L 401.327 196.432 L 402.649 196.655 L 402.649 208.198 L 405.236 208.198 L 405.236 209.687 L 398.013 209.687 L 398.013 208.198 " fill="#000000"/>
<path class="atom-16" d="M 412.478 197.996 L 405.571 197.996 L 405.571 196.506 L 414.321 196.506 L 414.321 197.828 L 408.997 209.687 L 407.21 209.687 L 412.478 197.996 " fill="#000000"/>
<path class="atom-17" d="M 106.065 243.049 Q 106.065 239.772, 107.591 238.059 Q 109.136 236.328, 112.059 236.328 Q 114.777 236.328, 116.229 238.246 L 115.001 239.251 Q 113.94 237.855, 112.059 237.855 Q 110.067 237.855, 109.006 239.195 Q 107.963 240.517, 107.963 243.049 Q 107.963 245.655, 109.043 246.996 Q 110.142 248.336, 112.264 248.336 Q 113.716 248.336, 115.41 247.461 L 115.932 248.857 Q 115.243 249.304, 114.2 249.565 Q 113.158 249.825, 112.003 249.825 Q 109.136 249.825, 107.591 248.075 Q 106.065 246.325, 106.065 243.049 " fill="#000000"/>
<path class="atom-17" d="M 117.626 247.48 L 119.487 247.48 L 119.487 249.341 L 117.626 249.341 L 117.626 247.48 M 117.626 241.075 L 119.487 241.075 L 119.487 242.937 L 117.626 242.937 L 117.626 241.075 " fill="#000000"/>
<path class="atom-17" d="M 121.219 248.168 L 124.104 248.168 L 124.104 238.32 L 120.921 239.307 L 120.493 238.208 L 124.533 236.402 L 125.854 236.626 L 125.854 248.168 L 128.442 248.168 L 128.442 249.658 L 121.219 249.658 L 121.219 248.168 " fill="#000000"/>
<path class="atom-17" d="M 136.317 242.676 Q 137.527 243.198, 138.216 243.98 Q 138.905 244.743, 138.905 246.046 Q 138.905 247.163, 138.328 248.038 Q 137.751 248.894, 136.708 249.379 Q 135.684 249.844, 134.325 249.844 Q 132.128 249.844, 130.862 248.839 Q 129.596 247.815, 129.596 246.046 Q 129.596 244.966, 130.155 244.166 Q 130.713 243.347, 131.868 242.732 Q 131.011 242.248, 130.546 241.541 Q 130.081 240.815, 130.081 239.698 Q 130.081 238.152, 131.198 237.24 Q 132.333 236.328, 134.251 236.328 Q 136.168 236.328, 137.285 237.24 Q 138.421 238.152, 138.421 239.698 Q 138.421 240.666, 137.881 241.392 Q 137.36 242.099, 136.317 242.676 M 134.251 237.724 Q 133.152 237.724, 132.538 238.246 Q 131.942 238.767, 131.942 239.698 Q 131.942 240.387, 132.352 240.852 Q 132.761 241.299, 133.338 241.559 Q 133.934 241.82, 135.07 242.211 Q 135.87 241.652, 136.206 241.057 Q 136.559 240.461, 136.559 239.698 Q 136.559 238.767, 135.945 238.246 Q 135.349 237.724, 134.251 237.724 M 134.325 248.448 Q 135.554 248.448, 136.299 247.796 Q 137.043 247.126, 137.043 246.027 Q 137.043 245.32, 136.652 244.873 Q 136.261 244.426, 135.666 244.166 Q 135.088 243.905, 134.046 243.57 L 133.208 243.291 Q 132.277 243.849, 131.868 244.52 Q 131.458 245.171, 131.458 246.027 Q 131.458 247.126, 132.24 247.796 Q 133.022 248.448, 134.325 248.448 " fill="#000000"/>
<path class="atom-18" d="M 94.6215 163.265 Q 94.6215 159.988, 96.1481 158.275 Q 97.6933 156.544, 100.616 156.544 Q 103.334 156.544, 104.786 158.462 L 103.558 159.467 Q 102.496 158.071, 100.616 158.071 Q 98.6241 158.071, 97.563 159.411 Q 96.5204 160.733, 96.5204 163.265 Q 96.5204 165.871, 97.6002 167.212 Q 98.6986 168.552, 100.821 168.552 Q 102.273 168.552, 103.967 167.677 L 104.489 169.073 Q 103.8 169.52, 102.757 169.781 Q 101.715 170.041, 100.56 170.041 Q 97.6933 170.041, 96.1481 168.291 Q 94.6215 166.541, 94.6215 163.265 " fill="#000000"/>
<path class="atom-18" d="M 106.183 167.696 L 108.044 167.696 L 108.044 169.557 L 106.183 169.557 L 106.183 167.696 M 106.183 161.291 L 108.044 161.291 L 108.044 163.153 L 106.183 163.153 L 106.183 161.291 " fill="#000000"/>
<path class="atom-18" d="M 109.776 168.384 L 112.661 168.384 L 112.661 158.536 L 109.478 159.523 L 109.05 158.424 L 113.09 156.618 L 114.411 156.842 L 114.411 168.384 L 116.999 168.384 L 116.999 169.874 L 109.776 169.874 L 109.776 168.384 " fill="#000000"/>
<path class="atom-18" d="M 122.454 156.544 Q 124.8 156.544, 125.973 158.145 Q 127.164 159.728, 127.164 162.892 Q 127.164 166.392, 125.693 168.217 Q 124.241 170.023, 121.43 170.023 Q 120.611 170.023, 119.903 169.837 Q 119.215 169.65, 118.544 169.259 L 119.27 168.012 Q 120.239 168.533, 121.411 168.533 Q 123.273 168.533, 124.223 167.342 Q 125.172 166.132, 125.284 163.656 Q 124.614 164.27, 123.757 164.605 Q 122.919 164.922, 122.007 164.922 Q 120.853 164.922, 119.941 164.419 Q 119.028 163.916, 118.526 163.004 Q 118.023 162.092, 118.023 160.938 Q 118.023 159.653, 118.582 158.666 Q 119.159 157.661, 120.164 157.103 Q 121.169 156.544, 122.454 156.544 M 119.885 160.919 Q 119.885 162.092, 120.536 162.762 Q 121.188 163.432, 122.342 163.432 Q 123.143 163.432, 123.925 163.116 Q 124.725 162.781, 125.284 162.222 Q 125.209 160.044, 124.52 159.057 Q 123.832 158.071, 122.435 158.071 Q 121.728 158.071, 121.132 158.443 Q 120.555 158.815, 120.22 159.467 Q 119.885 160.118, 119.885 160.919 " fill="#000000"/>
<path class="atom-19" d="M 76.6167 206.488 Q 76.6167 203.211, 78.1433 201.498 Q 79.6885 199.767, 82.6114 199.767 Q 85.3295 199.767, 86.7816 201.684 L 85.5529 202.69 Q 84.4917 201.293, 82.6114 201.293 Q 80.6194 201.293, 79.5582 202.634 Q 78.5157 203.956, 78.5157 206.488 Q 78.5157 209.094, 79.5954 210.434 Q 80.6938 211.775, 82.8162 211.775 Q 84.2683 211.775, 85.9625 210.9 L 86.4837 212.296 Q 85.7949 212.743, 84.7524 213.004 Q 83.7098 213.264, 82.5555 213.264 Q 79.6885 213.264, 78.1433 211.514 Q 76.6167 209.764, 76.6167 206.488 " fill="#000000"/>
<path class="atom-19" d="M 88.1779 210.918 L 90.0396 210.918 L 90.0396 212.78 L 88.1779 212.78 L 88.1779 210.918 M 88.1779 204.514 L 90.0396 204.514 L 90.0396 206.376 L 88.1779 206.376 L 88.1779 204.514 " fill="#000000"/>
<path class="atom-19" d="M 91.0077 202.411 Q 91.4917 201.163, 92.646 200.474 Q 93.8002 199.767, 95.4013 199.767 Q 97.3933 199.767, 98.5103 200.847 Q 99.6274 201.926, 99.6274 203.844 Q 99.6274 205.799, 98.1752 207.623 Q 96.7417 209.448, 93.763 211.607 L 99.8508 211.607 L 99.8508 213.097 L 90.9704 213.097 L 90.9704 211.849 Q 93.4279 210.099, 94.88 208.796 Q 96.3508 207.493, 97.0582 206.32 Q 97.7656 205.147, 97.7656 203.937 Q 97.7656 202.671, 97.1327 201.964 Q 96.4997 201.256, 95.4013 201.256 Q 94.3401 201.256, 93.6327 201.684 Q 92.9252 202.113, 92.4226 203.062 L 91.0077 202.411 " fill="#000000"/>
<path class="atom-19" d="M 105.808 213.246 Q 103.388 213.246, 102.178 211.458 Q 100.986 209.671, 100.986 206.488 Q 100.986 203.304, 102.178 201.536 Q 103.369 199.767, 105.808 199.767 Q 108.247 199.767, 109.439 201.536 Q 110.63 203.304, 110.63 206.488 Q 110.63 209.671, 109.42 211.458 Q 108.228 213.246, 105.808 213.246 M 105.808 211.756 Q 107.242 211.756, 108.005 210.434 Q 108.768 209.094, 108.768 206.488 Q 108.768 203.9, 108.005 202.578 Q 107.242 201.256, 105.808 201.256 Q 104.393 201.256, 103.611 202.578 Q 102.848 203.9, 102.848 206.488 Q 102.848 209.094, 103.611 210.434 Q 104.393 211.756, 105.808 211.756 " fill="#000000"/>
<path class="atom-20" d="M 177.495 252.372 L 179.282 252.372 L 179.282 257.975 L 186.021 257.975 L 186.021 252.372 L 187.808 252.372 L 187.808 265.552 L 186.021 265.552 L 186.021 259.465 L 179.282 259.465 L 179.282 265.552 L 177.495 265.552 L 177.495 252.372 " fill="#000000"/>
<path class="atom-20" d="M 189.205 263.374 L 191.066 263.374 L 191.066 265.236 L 189.205 265.236 L 189.205 263.374 M 189.205 256.97 L 191.066 256.97 L 191.066 258.832 L 189.205 258.832 L 189.205 256.97 " fill="#000000"/>
<path class="atom-20" d="M 192.034 254.866 Q 192.518 253.619, 193.673 252.93 Q 194.827 252.223, 196.428 252.223 Q 198.42 252.223, 199.537 253.302 Q 200.654 254.382, 200.654 256.3 Q 200.654 258.255, 199.202 260.079 Q 197.768 261.903, 194.79 264.063 L 200.877 264.063 L 200.877 265.552 L 191.997 265.552 L 191.997 264.305 Q 194.455 262.555, 195.907 261.252 Q 197.377 259.949, 198.085 258.776 Q 198.792 257.603, 198.792 256.393 Q 198.792 255.127, 198.159 254.419 Q 197.526 253.712, 196.428 253.712 Q 195.367 253.712, 194.659 254.14 Q 193.952 254.568, 193.449 255.518 L 192.034 254.866 " fill="#000000"/>
<path class="atom-20" d="M 202.609 264.063 L 205.495 264.063 L 205.495 254.215 L 202.311 255.201 L 201.883 254.103 L 205.923 252.297 L 207.245 252.52 L 207.245 264.063 L 209.832 264.063 L 209.832 265.552 L 202.609 265.552 L 202.609 264.063 " fill="#000000"/>
<path class="atom-21" d="M 173.069 106.808 L 174.856 106.808 L 174.856 112.412 L 181.595 112.412 L 181.595 106.808 L 183.383 106.808 L 183.383 119.989 L 181.595 119.989 L 181.595 113.901 L 174.856 113.901 L 174.856 119.989 L 173.069 119.989 L 173.069 106.808 " fill="#000000"/>
<path class="atom-21" d="M 184.779 117.811 L 186.641 117.811 L 186.641 119.673 L 184.779 119.673 L 184.779 117.811 M 184.779 111.407 L 186.641 111.407 L 186.641 113.268 L 184.779 113.268 L 184.779 111.407 " fill="#000000"/>
<path class="atom-21" d="M 187.609 109.303 Q 188.093 108.056, 189.247 107.367 Q 190.401 106.659, 192.002 106.659 Q 193.994 106.659, 195.111 107.739 Q 196.228 108.819, 196.228 110.737 Q 196.228 112.691, 194.776 114.516 Q 193.343 116.34, 190.364 118.5 L 196.452 118.5 L 196.452 119.989 L 187.572 119.989 L 187.572 118.742 Q 190.029 116.992, 191.481 115.689 Q 192.952 114.385, 193.659 113.213 Q 194.367 112.04, 194.367 110.83 Q 194.367 109.564, 193.734 108.856 Q 193.101 108.149, 192.002 108.149 Q 190.941 108.149, 190.234 108.577 Q 189.526 109.005, 189.024 109.955 L 187.609 109.303 " fill="#000000"/>
<path class="atom-21" d="M 197.42 109.303 Q 197.904 108.056, 199.058 107.367 Q 200.213 106.659, 201.814 106.659 Q 203.806 106.659, 204.923 107.739 Q 206.04 108.819, 206.04 110.737 Q 206.04 112.691, 204.588 114.516 Q 203.154 116.34, 200.175 118.5 L 206.263 118.5 L 206.263 119.989 L 197.383 119.989 L 197.383 118.742 Q 199.84 116.992, 201.292 115.689 Q 202.763 114.385, 203.47 113.213 Q 204.178 112.04, 204.178 110.83 Q 204.178 109.564, 203.545 108.856 Q 202.912 108.149, 201.814 108.149 Q 200.752 108.149, 200.045 108.577 Q 199.338 109.005, 198.835 109.955 L 197.42 109.303 " fill="#000000"/>
<path class="atom-22" d="M 131.223 342.418 L 133.011 342.418 L 133.011 348.022 L 139.75 348.022 L 139.75 342.418 L 141.537 342.418 L 141.537 355.599 L 139.75 355.599 L 139.75 349.511 L 133.011 349.511 L 133.011 355.599 L 131.223 355.599 L 131.223 342.418 " fill="#000000"/>
<path class="atom-22" d="M 142.934 353.421 L 144.795 353.421 L 144.795 355.282 L 142.934 355.282 L 142.934 353.421 M 142.934 347.016 L 144.795 347.016 L 144.795 348.878 L 142.934 348.878 L 142.934 347.016 " fill="#000000"/>
<path class="atom-22" d="M 145.763 344.913 Q 146.247 343.665, 147.402 342.977 Q 148.556 342.269, 150.157 342.269 Q 152.149 342.269, 153.266 343.349 Q 154.383 344.429, 154.383 346.346 Q 154.383 348.301, 152.931 350.125 Q 151.497 351.95, 148.519 354.109 L 154.606 354.109 L 154.606 355.599 L 145.726 355.599 L 145.726 354.352 Q 148.184 352.602, 149.636 351.298 Q 151.106 349.995, 151.814 348.822 Q 152.521 347.649, 152.521 346.439 Q 152.521 345.173, 151.888 344.466 Q 151.255 343.758, 150.157 343.758 Q 149.096 343.758, 148.388 344.187 Q 147.681 344.615, 147.178 345.564 L 145.763 344.913 " fill="#000000"/>
<path class="atom-22" d="M 161.718 348.655 Q 163.003 349.027, 163.617 349.865 Q 164.25 350.684, 164.25 351.987 Q 164.25 353.104, 163.692 353.979 Q 163.133 354.836, 162.109 355.32 Q 161.085 355.785, 159.745 355.785 Q 158.33 355.785, 157.269 355.301 Q 156.226 354.798, 155.388 353.793 L 156.449 352.713 Q 157.269 353.607, 157.957 353.961 Q 158.646 354.296, 159.745 354.296 Q 160.936 354.296, 161.662 353.663 Q 162.388 353.011, 162.388 351.969 Q 162.388 350.628, 161.625 350.032 Q 160.88 349.418, 159.261 349.418 L 158.311 349.418 L 158.311 348.078 L 159.149 348.078 Q 160.582 348.059, 161.346 347.445 Q 162.109 346.812, 162.109 345.639 Q 162.109 344.782, 161.476 344.28 Q 160.843 343.758, 159.763 343.758 Q 158.665 343.758, 157.976 344.149 Q 157.306 344.54, 156.785 345.527 L 155.5 344.838 Q 155.965 343.74, 157.082 343.014 Q 158.199 342.269, 159.763 342.269 Q 161.699 342.269, 162.835 343.181 Q 163.971 344.094, 163.971 345.639 Q 163.971 346.7, 163.394 347.463 Q 162.817 348.227, 161.718 348.655 " fill="#000000"/>
<path class="atom-23" d="M 129.535 257.475 Q 129.535 254.31, 131.099 252.541 Q 132.663 250.773, 135.586 250.773 Q 138.508 250.773, 140.072 252.541 Q 141.636 254.31, 141.636 257.475 Q 141.636 260.677, 140.054 262.501 Q 138.471 264.307, 135.586 264.307 Q 132.681 264.307, 131.099 262.501 Q 129.535 260.696, 129.535 257.475 M 135.586 262.818 Q 137.596 262.818, 138.676 261.477 Q 139.774 260.118, 139.774 257.475 Q 139.774 254.887, 138.676 253.584 Q 137.596 252.262, 135.586 252.262 Q 133.575 252.262, 132.477 253.565 Q 131.397 254.868, 131.397 257.475 Q 131.397 260.137, 132.477 261.477 Q 133.575 262.818, 135.586 262.818 " fill="#FF0000"/>
<path class="atom-23" d="M 143.032 261.924 L 144.894 261.924 L 144.894 263.786 L 143.032 263.786 L 143.032 261.924 M 143.032 255.52 L 144.894 255.52 L 144.894 257.382 L 143.032 257.382 L 143.032 255.52 " fill="#FF0000"/>
<path class="atom-23" d="M 145.862 253.416 Q 146.346 252.169, 147.501 251.48 Q 148.655 250.773, 150.256 250.773 Q 152.248 250.773, 153.365 251.852 Q 154.482 252.932, 154.482 254.85 Q 154.482 256.805, 153.03 258.629 Q 151.596 260.453, 148.618 262.613 L 154.705 262.613 L 154.705 264.102 L 145.825 264.102 L 145.825 262.855 Q 148.282 261.105, 149.735 259.802 Q 151.205 258.499, 151.913 257.326 Q 152.62 256.153, 152.62 254.943 Q 152.62 253.677, 151.987 252.969 Q 151.354 252.262, 150.256 252.262 Q 149.195 252.262, 148.487 252.69 Q 147.78 253.118, 147.277 254.068 L 145.862 253.416 " fill="#FF0000"/>
<path class="atom-23" d="M 163.828 259.578 L 165.41 259.578 L 165.41 261.068 L 163.828 261.068 L 163.828 264.102 L 162.078 264.102 L 162.078 261.068 L 155.264 261.068 L 155.264 259.895 L 161.035 250.922 L 163.828 250.922 L 163.828 259.578 M 157.423 259.578 L 162.078 259.578 L 162.078 252.113 L 157.423 259.578 " fill="#FF0000"/>
<path class="atom-24" d="M 322.471 291.396 L 324.258 291.396 L 324.258 297 L 330.997 297 L 330.997 291.396 L 332.785 291.396 L 332.785 304.577 L 330.997 304.577 L 330.997 298.489 L 324.258 298.489 L 324.258 304.577 L 322.471 304.577 L 322.471 291.396 " fill="#000000"/>
<path class="atom-24" d="M 334.181 302.399 L 336.043 302.399 L 336.043 304.26 L 334.181 304.26 L 334.181 302.399 M 334.181 295.994 L 336.043 295.994 L 336.043 297.856 L 334.181 297.856 L 334.181 295.994 " fill="#000000"/>
<path class="atom-24" d="M 337.011 293.891 Q 337.495 292.643, 338.649 291.954 Q 339.803 291.247, 341.404 291.247 Q 343.396 291.247, 344.513 292.327 Q 345.63 293.407, 345.63 295.324 Q 345.63 297.279, 344.178 299.103 Q 342.745 300.928, 339.766 303.087 L 345.854 303.087 L 345.854 304.577 L 336.973 304.577 L 336.973 303.329 Q 339.431 301.579, 340.883 300.276 Q 342.354 298.973, 343.061 297.8 Q 343.769 296.627, 343.769 295.417 Q 343.769 294.151, 343.136 293.444 Q 342.503 292.736, 341.404 292.736 Q 340.343 292.736, 339.636 293.164 Q 338.928 293.593, 338.426 294.542 L 337.011 293.891 " fill="#000000"/>
<path class="atom-24" d="M 351.495 296.329 Q 352.649 296.329, 353.598 296.832 Q 354.548 297.316, 355.088 298.247 Q 355.628 299.159, 355.628 300.407 Q 355.628 301.766, 354.958 302.752 Q 354.306 303.72, 353.226 304.223 Q 352.146 304.726, 350.918 304.726 Q 349.708 304.726, 348.59 304.279 Q 347.473 303.832, 346.71 302.976 L 347.827 301.821 Q 348.442 302.492, 349.279 302.864 Q 350.117 303.218, 350.973 303.218 Q 352.146 303.218, 352.947 302.492 Q 353.766 301.766, 353.766 300.444 Q 353.766 299.047, 352.947 298.396 Q 352.146 297.726, 350.862 297.726 Q 349.708 297.726, 348.423 298.228 L 347.399 297.744 L 348.032 291.396 L 354.809 291.396 L 354.622 292.885 L 349.559 292.885 L 349.168 296.795 Q 350.34 296.329, 351.495 296.329 " fill="#000000"/>
<path class="atom-25" d="M 269.934 130.046 L 271.721 130.046 L 271.721 135.65 L 278.461 135.65 L 278.461 130.046 L 280.248 130.046 L 280.248 143.227 L 278.461 143.227 L 278.461 137.139 L 271.721 137.139 L 271.721 143.227 L 269.934 143.227 L 269.934 130.046 " fill="#000000"/>
<path class="atom-25" d="M 281.644 141.049 L 283.506 141.049 L 283.506 142.91 L 281.644 142.91 L 281.644 141.049 M 281.644 134.644 L 283.506 134.644 L 283.506 136.506 L 281.644 136.506 L 281.644 134.644 " fill="#000000"/>
<path class="atom-25" d="M 284.474 132.541 Q 284.958 131.293, 286.112 130.604 Q 287.266 129.897, 288.867 129.897 Q 290.859 129.897, 291.976 130.977 Q 293.094 132.057, 293.094 133.974 Q 293.094 135.929, 291.641 137.753 Q 290.208 139.578, 287.229 141.737 L 293.317 141.737 L 293.317 143.227 L 284.437 143.227 L 284.437 141.979 Q 286.894 140.229, 288.346 138.926 Q 289.817 137.623, 290.524 136.45 Q 291.232 135.277, 291.232 134.067 Q 291.232 132.801, 290.599 132.094 Q 289.966 131.386, 288.867 131.386 Q 287.806 131.386, 287.099 131.815 Q 286.391 132.243, 285.889 133.192 L 284.474 132.541 " fill="#000000"/>
<path class="atom-25" d="M 299.74 134.998 Q 300.894 134.998, 301.806 135.501 Q 302.719 136.003, 303.221 136.916 Q 303.724 137.828, 303.724 138.982 Q 303.724 140.267, 303.147 141.272 Q 302.588 142.259, 301.583 142.817 Q 300.578 143.376, 299.293 143.376 Q 296.947 143.376, 295.756 141.793 Q 294.583 140.192, 294.583 137.027 Q 294.583 133.527, 296.035 131.721 Q 297.506 129.897, 300.317 129.897 Q 301.136 129.897, 301.825 130.083 Q 302.532 130.269, 303.203 130.66 L 302.476 131.908 Q 301.508 131.386, 300.336 131.386 Q 298.474 131.386, 297.524 132.596 Q 296.575 133.788, 296.463 136.264 Q 297.133 135.65, 297.971 135.333 Q 298.828 134.998, 299.74 134.998 M 299.312 141.849 Q 300.019 141.849, 300.596 141.477 Q 301.192 141.104, 301.527 140.453 Q 301.862 139.801, 301.862 139.001 Q 301.862 137.828, 301.211 137.158 Q 300.559 136.487, 299.405 136.487 Q 298.604 136.487, 297.804 136.823 Q 297.022 137.139, 296.463 137.698 Q 296.538 139.876, 297.226 140.862 Q 297.915 141.849, 299.312 141.849 " fill="#000000"/>
<path class="atom-26" d="M 409.2 276.29 L 410.987 276.29 L 410.987 281.894 L 417.727 281.894 L 417.727 276.29 L 419.514 276.29 L 419.514 289.471 L 417.727 289.471 L 417.727 283.384 L 410.987 283.384 L 410.987 289.471 L 409.2 289.471 L 409.2 276.29 " fill="#000000"/>
<path class="atom-26" d="M 420.91 287.293 L 422.772 287.293 L 422.772 289.155 L 420.91 289.155 L 420.91 287.293 M 420.91 280.889 L 422.772 280.889 L 422.772 282.751 L 420.91 282.751 L 420.91 280.889 " fill="#000000"/>
<path class="atom-26" d="M 423.74 278.785 Q 424.224 277.538, 425.378 276.849 Q 426.532 276.142, 428.134 276.142 Q 430.126 276.142, 431.243 277.221 Q 432.36 278.301, 432.36 280.219 Q 432.36 282.173, 430.907 283.998 Q 429.474 285.822, 426.495 287.982 L 432.583 287.982 L 432.583 289.471 L 423.703 289.471 L 423.703 288.224 Q 426.16 286.474, 427.612 285.171 Q 429.083 283.868, 429.79 282.695 Q 430.498 281.522, 430.498 280.312 Q 430.498 279.046, 429.865 278.338 Q 429.232 277.631, 428.134 277.631 Q 427.072 277.631, 426.365 278.059 Q 425.657 278.487, 425.155 279.437 L 423.74 278.785 " fill="#000000"/>
<path class="atom-26" d="M 439.825 277.78 L 432.918 277.78 L 432.918 276.29 L 441.668 276.29 L 441.668 277.612 L 436.344 289.471 L 434.556 289.471 L 439.825 277.78 " fill="#000000"/>
<path class="atom-27" d="M 386.123 116.722 L 387.91 116.722 L 387.91 122.326 L 394.65 122.326 L 394.65 116.722 L 396.437 116.722 L 396.437 129.903 L 394.65 129.903 L 394.65 123.816 L 387.91 123.816 L 387.91 129.903 L 386.123 129.903 L 386.123 116.722 " fill="#000000"/>
<path class="atom-27" d="M 397.833 127.725 L 399.695 127.725 L 399.695 129.587 L 397.833 129.587 L 397.833 127.725 M 397.833 121.321 L 399.695 121.321 L 399.695 123.183 L 397.833 123.183 L 397.833 121.321 " fill="#000000"/>
<path class="atom-27" d="M 400.663 119.217 Q 401.147 117.97, 402.301 117.281 Q 403.456 116.574, 405.057 116.574 Q 407.049 116.574, 408.166 117.653 Q 409.283 118.733, 409.283 120.651 Q 409.283 122.605, 407.831 124.43 Q 406.397 126.254, 403.418 128.414 L 409.506 128.414 L 409.506 129.903 L 400.626 129.903 L 400.626 128.656 Q 403.083 126.906, 404.535 125.603 Q 406.006 124.3, 406.713 123.127 Q 407.421 121.954, 407.421 120.744 Q 407.421 119.478, 406.788 118.77 Q 406.155 118.063, 405.057 118.063 Q 403.995 118.063, 403.288 118.491 Q 402.581 118.919, 402.078 119.869 L 400.663 119.217 " fill="#000000"/>
<path class="atom-27" d="M 417.381 122.922 Q 418.591 123.443, 419.28 124.225 Q 419.969 124.988, 419.969 126.292 Q 419.969 127.409, 419.392 128.284 Q 418.815 129.14, 417.772 129.624 Q 416.748 130.089, 415.389 130.089 Q 413.192 130.089, 411.926 129.084 Q 410.66 128.06, 410.66 126.292 Q 410.66 125.212, 411.219 124.411 Q 411.777 123.592, 412.932 122.978 Q 412.075 122.494, 411.61 121.786 Q 411.144 121.06, 411.144 119.943 Q 411.144 118.398, 412.261 117.486 Q 413.397 116.574, 415.315 116.574 Q 417.232 116.574, 418.349 117.486 Q 419.485 118.398, 419.485 119.943 Q 419.485 120.911, 418.945 121.637 Q 418.424 122.345, 417.381 122.922 M 415.315 117.97 Q 414.216 117.97, 413.602 118.491 Q 413.006 119.012, 413.006 119.943 Q 413.006 120.632, 413.416 121.097 Q 413.825 121.544, 414.402 121.805 Q 414.998 122.066, 416.134 122.457 Q 416.934 121.898, 417.269 121.302 Q 417.623 120.707, 417.623 119.943 Q 417.623 119.012, 417.009 118.491 Q 416.413 117.97, 415.315 117.97 M 415.389 128.693 Q 416.618 128.693, 417.362 128.042 Q 418.107 127.371, 418.107 126.273 Q 418.107 125.566, 417.716 125.119 Q 417.325 124.672, 416.729 124.411 Q 416.152 124.151, 415.11 123.816 L 414.272 123.536 Q 413.341 124.095, 412.932 124.765 Q 412.522 125.417, 412.522 126.273 Q 412.522 127.371, 413.304 128.042 Q 414.086 128.693, 415.389 128.693 " fill="#000000"/>
<path class="atom-28" d="M 443.725 189.845 L 445.512 189.845 L 445.512 195.448 L 452.251 195.448 L 452.251 189.845 L 454.039 189.845 L 454.039 203.026 L 452.251 203.026 L 452.251 196.938 L 445.512 196.938 L 445.512 203.026 L 443.725 203.026 L 443.725 189.845 " fill="#000000"/>
<path class="atom-28" d="M 455.435 200.847 L 457.297 200.847 L 457.297 202.709 L 455.435 202.709 L 455.435 200.847 M 455.435 194.443 L 457.297 194.443 L 457.297 196.305 L 455.435 196.305 L 455.435 194.443 " fill="#000000"/>
<path class="atom-28" d="M 458.265 192.339 Q 458.749 191.092, 459.903 190.403 Q 461.057 189.696, 462.658 189.696 Q 464.65 189.696, 465.767 190.776 Q 466.884 191.855, 466.884 193.773 Q 466.884 195.728, 465.432 197.552 Q 463.999 199.377, 461.02 201.536 L 467.108 201.536 L 467.108 203.026 L 458.228 203.026 L 458.228 201.778 Q 460.685 200.028, 462.137 198.725 Q 463.608 197.422, 464.315 196.249 Q 465.023 195.076, 465.023 193.866 Q 465.023 192.6, 464.39 191.893 Q 463.757 191.185, 462.658 191.185 Q 461.597 191.185, 460.89 191.613 Q 460.182 192.042, 459.68 192.991 L 458.265 192.339 " fill="#000000"/>
<path class="atom-28" d="M 472.563 189.696 Q 474.908 189.696, 476.081 191.297 Q 477.273 192.879, 477.273 196.044 Q 477.273 199.544, 475.802 201.369 Q 474.35 203.175, 471.539 203.175 Q 470.72 203.175, 470.012 202.988 Q 469.323 202.802, 468.653 202.411 L 469.379 201.164 Q 470.347 201.685, 471.52 201.685 Q 473.382 201.685, 474.331 200.494 Q 475.281 199.284, 475.392 196.807 Q 474.722 197.422, 473.866 197.757 Q 473.028 198.073, 472.116 198.073 Q 470.962 198.073, 470.049 197.571 Q 469.137 197.068, 468.634 196.156 Q 468.132 195.244, 468.132 194.089 Q 468.132 192.805, 468.69 191.818 Q 469.267 190.813, 470.273 190.254 Q 471.278 189.696, 472.563 189.696 M 469.993 194.071 Q 469.993 195.244, 470.645 195.914 Q 471.297 196.584, 472.451 196.584 Q 473.251 196.584, 474.033 196.268 Q 474.834 195.932, 475.392 195.374 Q 475.318 193.196, 474.629 192.209 Q 473.94 191.222, 472.544 191.222 Q 471.837 191.222, 471.241 191.595 Q 470.664 191.967, 470.329 192.619 Q 469.993 193.27, 469.993 194.071 " fill="#000000"/>
<path class="atom-29" d="M 80.0033 279.7 L 81.7905 279.7 L 81.7905 285.304 L 88.5299 285.304 L 88.5299 279.7 L 90.3171 279.7 L 90.3171 292.881 L 88.5299 292.881 L 88.5299 286.793 L 81.7905 286.793 L 81.7905 292.881 L 80.0033 292.881 L 80.0033 279.7 " fill="#000000"/>
<path class="atom-29" d="M 91.7134 290.702 L 93.5751 290.702 L 93.5751 292.564 L 91.7134 292.564 L 91.7134 290.702 M 91.7134 284.298 L 93.5751 284.298 L 93.5751 286.16 L 91.7134 286.16 L 91.7134 284.298 " fill="#000000"/>
<path class="atom-29" d="M 100.687 285.937 Q 101.971 286.309, 102.586 287.147 Q 103.219 287.966, 103.219 289.269 Q 103.219 290.386, 102.66 291.261 Q 102.102 292.117, 101.078 292.601 Q 100.054 293.067, 98.7134 293.067 Q 97.2985 293.067, 96.2373 292.583 Q 95.1948 292.08, 94.357 291.075 L 95.4182 289.995 Q 96.2373 290.889, 96.9261 291.242 Q 97.615 291.577, 98.7134 291.577 Q 99.9049 291.577, 100.631 290.945 Q 101.357 290.293, 101.357 289.25 Q 101.357 287.91, 100.594 287.314 Q 99.849 286.7, 98.2293 286.7 L 97.2799 286.7 L 97.2799 285.359 L 98.1176 285.359 Q 99.5511 285.341, 100.314 284.726 Q 101.078 284.093, 101.078 282.921 Q 101.078 282.064, 100.445 281.562 Q 99.8118 281.04, 98.732 281.04 Q 97.6336 281.04, 96.9448 281.431 Q 96.2745 281.822, 95.7533 282.809 L 94.4687 282.12 Q 94.9341 281.022, 96.0511 280.296 Q 97.1682 279.551, 98.732 279.551 Q 100.668 279.551, 101.804 280.463 Q 102.939 281.375, 102.939 282.921 Q 102.939 283.982, 102.362 284.745 Q 101.785 285.508, 100.687 285.937 " fill="#000000"/>
<path class="atom-29" d="M 109.176 293.03 Q 106.756 293.03, 105.546 291.242 Q 104.354 289.455, 104.354 286.272 Q 104.354 283.088, 105.546 281.32 Q 106.737 279.551, 109.176 279.551 Q 111.615 279.551, 112.806 281.32 Q 113.998 283.088, 113.998 286.272 Q 113.998 289.455, 112.788 291.242 Q 111.596 293.03, 109.176 293.03 M 109.176 291.54 Q 110.61 291.54, 111.373 290.218 Q 112.136 288.878, 112.136 286.272 Q 112.136 283.684, 111.373 282.362 Q 110.61 281.04, 109.176 281.04 Q 107.761 281.04, 106.979 282.362 Q 106.216 283.684, 106.216 286.272 Q 106.216 288.878, 106.979 290.218 Q 107.761 291.54, 109.176 291.54 " fill="#000000"/>
<path class="atom-30" d="M 57.9037 120.132 L 59.6909 120.132 L 59.6909 125.736 L 66.4303 125.736 L 66.4303 120.132 L 68.2175 120.132 L 68.2175 133.313 L 66.4303 133.313 L 66.4303 127.225 L 59.6909 127.225 L 59.6909 133.313 L 57.9037 133.313 L 57.9037 120.132 " fill="#000000"/>
<path class="atom-30" d="M 69.6138 131.134 L 71.4755 131.134 L 71.4755 132.996 L 69.6138 132.996 L 69.6138 131.134 M 69.6138 124.73 L 71.4755 124.73 L 71.4755 126.592 L 69.6138 126.592 L 69.6138 124.73 " fill="#000000"/>
<path class="atom-30" d="M 78.5872 126.369 Q 79.8718 126.741, 80.4861 127.579 Q 81.1191 128.398, 81.1191 129.701 Q 81.1191 130.818, 80.5606 131.693 Q 80.0021 132.549, 78.9782 133.033 Q 77.9542 133.499, 76.6138 133.499 Q 75.1989 133.499, 74.1377 133.015 Q 73.0952 132.512, 72.2574 131.507 L 73.3186 130.427 Q 74.1377 131.321, 74.8266 131.674 Q 75.5154 132.009, 76.6138 132.009 Q 77.8053 132.009, 78.5314 131.376 Q 79.2574 130.725, 79.2574 129.682 Q 79.2574 128.342, 78.4941 127.746 Q 77.7494 127.132, 76.1298 127.132 L 75.1803 127.132 L 75.1803 125.791 L 76.0181 125.791 Q 77.4516 125.773, 78.2149 125.158 Q 78.9782 124.525, 78.9782 123.353 Q 78.9782 122.496, 78.3452 121.994 Q 77.7122 121.472, 76.6324 121.472 Q 75.534 121.472, 74.8452 121.863 Q 74.175 122.254, 73.6537 123.241 L 72.3691 122.552 Q 72.8345 121.454, 73.9516 120.728 Q 75.0686 119.983, 76.6324 119.983 Q 78.5686 119.983, 79.7042 120.895 Q 80.8399 121.807, 80.8399 123.353 Q 80.8399 124.414, 80.2627 125.177 Q 79.6856 125.94, 78.5872 126.369 " fill="#000000"/>
<path class="atom-30" d="M 82.8505 131.823 L 85.7361 131.823 L 85.7361 121.975 L 82.5526 122.962 L 82.1244 121.863 L 86.1643 120.057 L 87.4861 120.281 L 87.4861 131.823 L 90.0739 131.823 L 90.0739 133.313 L 82.8505 133.313 L 82.8505 131.823 " fill="#000000"/>
<path class="atom-31" d="M 312.753 307.785 L 314.54 307.785 L 314.54 313.389 L 321.28 313.389 L 321.28 307.785 L 323.067 307.785 L 323.067 320.966 L 321.28 320.966 L 321.28 314.878 L 314.54 314.878 L 314.54 320.966 L 312.753 320.966 L 312.753 307.785 " fill="#000000"/>
<path class="atom-31" d="M 324.463 318.788 L 326.325 318.788 L 326.325 320.649 L 324.463 320.649 L 324.463 318.788 M 324.463 312.384 L 326.325 312.384 L 326.325 314.245 L 324.463 314.245 L 324.463 312.384 " fill="#000000"/>
<path class="atom-31" d="M 333.436 314.022 Q 334.721 314.394, 335.335 315.232 Q 335.968 316.051, 335.968 317.354 Q 335.968 318.471, 335.41 319.346 Q 334.851 320.203, 333.827 320.687 Q 332.803 321.152, 331.463 321.152 Q 330.048 321.152, 328.987 320.668 Q 327.944 320.165, 327.107 319.16 L 328.168 318.08 Q 328.987 318.974, 329.676 319.328 Q 330.365 319.663, 331.463 319.663 Q 332.655 319.663, 333.381 319.03 Q 334.107 318.378, 334.107 317.336 Q 334.107 315.995, 333.343 315.399 Q 332.599 314.785, 330.979 314.785 L 330.03 314.785 L 330.03 313.445 L 330.867 313.445 Q 332.301 313.426, 333.064 312.812 Q 333.827 312.179, 333.827 311.006 Q 333.827 310.149, 333.194 309.647 Q 332.561 309.126, 331.482 309.126 Q 330.383 309.126, 329.694 309.517 Q 329.024 309.907, 328.503 310.894 L 327.218 310.205 Q 327.684 309.107, 328.801 308.381 Q 329.918 307.636, 331.482 307.636 Q 333.418 307.636, 334.553 308.548 Q 335.689 309.461, 335.689 311.006 Q 335.689 312.067, 335.112 312.83 Q 334.535 313.594, 333.436 314.022 " fill="#000000"/>
<path class="atom-31" d="M 336.936 310.28 Q 337.421 309.032, 338.575 308.344 Q 339.729 307.636, 341.33 307.636 Q 343.322 307.636, 344.439 308.716 Q 345.556 309.796, 345.556 311.713 Q 345.556 313.668, 344.104 315.493 Q 342.671 317.317, 339.692 319.477 L 345.78 319.477 L 345.78 320.966 L 336.899 320.966 L 336.899 319.719 Q 339.357 317.969, 340.809 316.665 Q 342.28 315.362, 342.987 314.189 Q 343.694 313.017, 343.694 311.806 Q 343.694 310.54, 343.061 309.833 Q 342.428 309.126, 341.33 309.126 Q 340.269 309.126, 339.561 309.554 Q 338.854 309.982, 338.351 310.931 L 336.936 310.28 " fill="#000000"/>
<path class="atom-32" d="M 248.697 379.974 L 250.484 379.974 L 250.484 385.577 L 257.223 385.577 L 257.223 379.974 L 259.01 379.974 L 259.01 393.154 L 257.223 393.154 L 257.223 387.067 L 250.484 387.067 L 250.484 393.154 L 248.697 393.154 L 248.697 379.974 " fill="#000000"/>
<path class="atom-32" d="M 260.407 390.976 L 262.268 390.976 L 262.268 392.838 L 260.407 392.838 L 260.407 390.976 M 260.407 384.572 L 262.268 384.572 L 262.268 386.434 L 260.407 386.434 L 260.407 384.572 " fill="#000000"/>
<path class="atom-32" d="M 269.38 386.21 Q 270.665 386.583, 271.279 387.42 Q 271.912 388.24, 271.912 389.543 Q 271.912 390.66, 271.354 391.535 Q 270.795 392.391, 269.771 392.875 Q 268.747 393.341, 267.407 393.341 Q 265.992 393.341, 264.931 392.857 Q 263.888 392.354, 263.05 391.349 L 264.112 390.269 Q 264.931 391.162, 265.62 391.516 Q 266.308 391.851, 267.407 391.851 Q 268.598 391.851, 269.324 391.218 Q 270.05 390.567, 270.05 389.524 Q 270.05 388.184, 269.287 387.588 Q 268.542 386.974, 266.923 386.974 L 265.973 386.974 L 265.973 385.633 L 266.811 385.633 Q 268.245 385.615, 269.008 385 Q 269.771 384.367, 269.771 383.194 Q 269.771 382.338, 269.138 381.835 Q 268.505 381.314, 267.425 381.314 Q 266.327 381.314, 265.638 381.705 Q 264.968 382.096, 264.447 383.083 L 263.162 382.394 Q 263.628 381.295, 264.745 380.569 Q 265.862 379.825, 267.425 379.825 Q 269.362 379.825, 270.497 380.737 Q 271.633 381.649, 271.633 383.194 Q 271.633 384.256, 271.056 385.019 Q 270.479 385.782, 269.38 386.21 " fill="#000000"/>
<path class="atom-32" d="M 279.024 386.21 Q 280.308 386.583, 280.923 387.42 Q 281.556 388.24, 281.556 389.543 Q 281.556 390.66, 280.997 391.535 Q 280.439 392.391, 279.415 392.875 Q 278.391 393.341, 277.05 393.341 Q 275.635 393.341, 274.574 392.857 Q 273.532 392.354, 272.694 391.349 L 273.755 390.269 Q 274.574 391.162, 275.263 391.516 Q 275.952 391.851, 277.05 391.851 Q 278.242 391.851, 278.968 391.218 Q 279.694 390.567, 279.694 389.524 Q 279.694 388.184, 278.931 387.588 Q 278.186 386.974, 276.566 386.974 L 275.617 386.974 L 275.617 385.633 L 276.455 385.633 Q 277.888 385.615, 278.651 385 Q 279.415 384.367, 279.415 383.194 Q 279.415 382.338, 278.782 381.835 Q 278.149 381.314, 277.069 381.314 Q 275.971 381.314, 275.282 381.705 Q 274.612 382.096, 274.09 383.083 L 272.806 382.394 Q 273.271 381.295, 274.388 380.569 Q 275.505 379.825, 277.069 379.825 Q 279.005 379.825, 280.141 380.737 Q 281.276 381.649, 281.276 383.194 Q 281.276 384.256, 280.699 385.019 Q 280.122 385.782, 279.024 386.21 " fill="#000000"/>
<path class="atom-33" d="M 22.7273 206.578 L 24.5145 206.578 L 24.5145 212.181 L 31.2539 212.181 L 31.2539 206.578 L 33.0411 206.578 L 33.0411 219.758 L 31.2539 219.758 L 31.2539 213.671 L 24.5145 213.671 L 24.5145 219.758 L 22.7273 219.758 L 22.7273 206.578 " fill="#000000"/>
<path class="atom-33" d="M 34.4374 217.58 L 36.2991 217.58 L 36.2991 219.442 L 34.4374 219.442 L 34.4374 217.58 M 34.4374 211.176 L 36.2991 211.176 L 36.2991 213.038 L 34.4374 213.038 L 34.4374 211.176 " fill="#000000"/>
<path class="atom-33" d="M 43.4108 212.814 Q 44.6954 213.187, 45.3097 214.024 Q 45.9427 214.844, 45.9427 216.147 Q 45.9427 217.264, 45.3842 218.139 Q 44.8257 218.995, 43.8017 219.479 Q 42.7778 219.945, 41.4374 219.945 Q 40.0225 219.945, 38.9613 219.461 Q 37.9188 218.958, 37.081 217.953 L 38.1422 216.873 Q 38.9613 217.766, 39.6501 218.12 Q 40.339 218.455, 41.4374 218.455 Q 42.6289 218.455, 43.3549 217.822 Q 44.081 217.171, 44.081 216.128 Q 44.081 214.788, 43.3177 214.192 Q 42.573 213.578, 40.9533 213.578 L 40.0039 213.578 L 40.0039 212.237 L 40.8416 212.237 Q 42.2751 212.219, 43.0384 211.604 Q 43.8017 210.971, 43.8017 209.798 Q 43.8017 208.942, 43.1688 208.439 Q 42.5358 207.918, 41.456 207.918 Q 40.3576 207.918, 39.6688 208.309 Q 38.9985 208.7, 38.4773 209.687 L 37.1927 208.998 Q 37.6581 207.899, 38.7751 207.173 Q 39.8922 206.429, 41.456 206.429 Q 43.3922 206.429, 44.5278 207.341 Q 45.6634 208.253, 45.6634 209.798 Q 45.6634 210.859, 45.0863 211.623 Q 44.5092 212.386, 43.4108 212.814 " fill="#000000"/>
<path class="atom-33" d="M 55.065 215.234 L 56.6475 215.234 L 56.6475 216.724 L 55.065 216.724 L 55.065 219.758 L 53.315 219.758 L 53.315 216.724 L 46.5012 216.724 L 46.5012 215.551 L 52.2725 206.578 L 55.065 206.578 L 55.065 215.234 M 48.6608 215.234 L 53.315 215.234 L 53.315 207.769 L 48.6608 215.234 " fill="#000000"/>
<text x="212.7959495599104" y="189.77740934995276" font-size="12" font-family="Verdana" font-weight="bold" letter-spacing="0" text-anchor="start" fill="black" transform=" rotate(81.770853 212.795950 189.777409)">1.1086</text><text x="25" y="490" font-size="12" font-family="Verdana" font-weight="bold" letter-spacing="0" text-anchor="start" fill="black">[#6:1]1(:[#6:2](-[#7:3](/[#6:4](=[#6:7]2/[#6:9](=[#6:11](-[#7:8](-[#6:10]-2=[#8:24])-[H:23])-[H:33])-[H:32])-[#6:12]2:[#6:13](:[#6:15](:[#6:17](:[#6:16](:[#6:14]:2-[H:26])-[H:28])-[H:29])-[H:27])-[H:25])-[H:5]):[#6:6](:[#6:19](:[#6:20](:[#6:18]:1-[H:30])-[H:34])-[H:31])-[H:22])-[H:21]</text></svg>
