<?xml version='1.0' encoding='ASCII' standalone='yes'?>
<svg xmlns="http://www.w3.org/2000/svg" xmlns:rdkit="http://www.rdkit.org/xml" xmlns:xlink="http://www.w3.org/1999/xlink" version="1.1" baseProfile="full" xml:space="preserve" width="1200px" height="400px" viewBox="0 0 1200 400">
<!-- END OF HEADER -->
<rect style="opacity:1.0;fill:#FFFFFF;stroke:none" width="1200" height="400" x="0" y="0"> </rect>
<rect style="opacity:1.0;fill:#FFFFFF;stroke:none" width="1200" height="400" x="0" y="0"> </rect>
<rect style="opacity:1.0;fill:#FFFFFF;stroke:none" width="1200" height="400" x="0" y="0"> </rect>
<path d="M 308.236,161.915 L 270.651,201.063" style="fill:none;fill-rule:evenodd;stroke:#FF7F7F;stroke-width:11.6px;stroke-linecap:butt;stroke-linejoin:miter;stroke-opacity:1"/>
<path class="bond-1 atom-1 atom-0" d="M 317.223,169.716 L 334.355,173.935" style="fill:none;fill-rule:evenodd;stroke:#000000;stroke-width:2.0px;stroke-linecap:butt;stroke-linejoin:miter;stroke-opacity:1"/>
<path class="bond-1 atom-1 atom-0" d="M 334.355,173.935 L 351.488,178.153" style="fill:none;fill-rule:evenodd;stroke:#FF0000;stroke-width:2.0px;stroke-linecap:butt;stroke-linejoin:miter;stroke-opacity:1"/>
<path class="bond-1 atom-1 atom-0" d="M 319.818,159.177 L 336.95,163.396" style="fill:none;fill-rule:evenodd;stroke:#000000;stroke-width:2.0px;stroke-linecap:butt;stroke-linejoin:miter;stroke-opacity:1"/>
<path class="bond-1 atom-1 atom-0" d="M 336.95,163.396 L 354.083,167.614" style="fill:none;fill-rule:evenodd;stroke:#FF0000;stroke-width:2.0px;stroke-linecap:butt;stroke-linejoin:miter;stroke-opacity:1"/>
<path class="bond-0 atom-1 atom-10" d="M 305.59,152.786 L 295.702,118.681" style="fill:none;fill-rule:evenodd;stroke:#000000;stroke-width:2.0px;stroke-linecap:butt;stroke-linejoin:miter;stroke-opacity:1"/>
<path class="bond-3 atom-2 atom-1" d="M 279.415,191.935 L 289.502,181.429" style="fill:none;fill-rule:evenodd;stroke:#0000FF;stroke-width:2.0px;stroke-linecap:butt;stroke-linejoin:miter;stroke-opacity:1"/>
<path class="bond-3 atom-2 atom-1" d="M 289.502,181.429 L 299.589,170.922" style="fill:none;fill-rule:evenodd;stroke:#000000;stroke-width:2.0px;stroke-linecap:butt;stroke-linejoin:miter;stroke-opacity:1"/>
<path class="bond-2 atom-2 atom-4" d="M 251.495,196.347 L 239.604,193.419" style="fill:none;fill-rule:evenodd;stroke:#0000FF;stroke-width:2.0px;stroke-linecap:butt;stroke-linejoin:miter;stroke-opacity:1"/>
<path class="bond-2 atom-2 atom-4" d="M 239.604,193.419 L 227.713,190.491" style="fill:none;fill-rule:evenodd;stroke:#000000;stroke-width:2.0px;stroke-linecap:butt;stroke-linejoin:miter;stroke-opacity:1"/>
<path class="bond-4 atom-2 atom-3" d="M 273.36,210.409 L 278.299,227.443" style="fill:none;fill-rule:evenodd;stroke:#0000FF;stroke-width:2.0px;stroke-linecap:butt;stroke-linejoin:miter;stroke-opacity:1"/>
<path class="bond-4 atom-2 atom-3" d="M 278.299,227.443 L 283.237,244.476" style="fill:none;fill-rule:evenodd;stroke:#000000;stroke-width:2.0px;stroke-linecap:butt;stroke-linejoin:miter;stroke-opacity:1"/>
<path class="bond-5 atom-3 atom-11" d="M 296.618,250.04 L 330.799,240.131" style="fill:none;fill-rule:evenodd;stroke:#000000;stroke-width:2.0px;stroke-linecap:butt;stroke-linejoin:miter;stroke-opacity:1"/>
<path class="bond-6 atom-3 atom-12" d="M 265.771,258.983 L 239.641,266.559" style="fill:none;fill-rule:evenodd;stroke:#000000;stroke-width:2.0px;stroke-linecap:butt;stroke-linejoin:miter;stroke-opacity:1"/>
<path class="bond-7 atom-3 atom-13" d="M 288.409,262.316 L 298.334,296.551" style="fill:none;fill-rule:evenodd;stroke:#000000;stroke-width:2.0px;stroke-linecap:butt;stroke-linejoin:miter;stroke-opacity:1"/>
<path class="bond-15 atom-8 atom-4" d="M 205.546,145.288 L 215.429,179.376" style="fill:none;fill-rule:evenodd;stroke:#000000;stroke-width:2.0px;stroke-linecap:butt;stroke-linejoin:miter;stroke-opacity:1"/>
<path class="bond-15 atom-8 atom-4" d="M 196.604,153.423 L 203.522,177.285" style="fill:none;fill-rule:evenodd;stroke:#000000;stroke-width:2.0px;stroke-linecap:butt;stroke-linejoin:miter;stroke-opacity:1"/>
<path class="bond-17 atom-9 atom-4" d="M 189.133,218.109 L 209.307,197.096" style="fill:none;fill-rule:evenodd;stroke:#000000;stroke-width:2.0px;stroke-linecap:butt;stroke-linejoin:miter;stroke-opacity:1"/>
<path class="bond-8 atom-5 atom-6" d="M 121.325,153.01 L 141.499,131.996" style="fill:none;fill-rule:evenodd;stroke:#000000;stroke-width:2.0px;stroke-linecap:butt;stroke-linejoin:miter;stroke-opacity:1"/>
<path class="bond-8 atom-5 atom-6" d="M 132.181,157.375 L 146.303,142.665" style="fill:none;fill-rule:evenodd;stroke:#000000;stroke-width:2.0px;stroke-linecap:butt;stroke-linejoin:miter;stroke-opacity:1"/>
<path class="bond-9 atom-5 atom-7" d="M 115.258,171.44 L 125.097,205.376" style="fill:none;fill-rule:evenodd;stroke:#000000;stroke-width:2.0px;stroke-linecap:butt;stroke-linejoin:miter;stroke-opacity:1"/>
<path class="bond-10 atom-5 atom-20" d="M 92.7835,157.268 L 65.3471,150.513" style="fill:none;fill-rule:evenodd;stroke:#000000;stroke-width:2.0px;stroke-linecap:butt;stroke-linejoin:miter;stroke-opacity:1"/>
<path class="bond-11 atom-6 atom-8" d="M 159.879,125.386 L 195.81,134.233" style="fill:none;fill-rule:evenodd;stroke:#000000;stroke-width:2.0px;stroke-linecap:butt;stroke-linejoin:miter;stroke-opacity:1"/>
<path class="bond-12 atom-6 atom-14" d="M 147.55,114.035 L 137.601,79.7168" style="fill:none;fill-rule:evenodd;stroke:#000000;stroke-width:2.0px;stroke-linecap:butt;stroke-linejoin:miter;stroke-opacity:1"/>
<path class="bond-13 atom-7 atom-9" d="M 138.422,216.909 L 155.391,221.087" style="fill:none;fill-rule:evenodd;stroke:#000000;stroke-width:2.0px;stroke-linecap:butt;stroke-linejoin:miter;stroke-opacity:1"/>
<path class="bond-13 atom-7 atom-9" d="M 143.562,206.996 L 155.441,209.921" style="fill:none;fill-rule:evenodd;stroke:#000000;stroke-width:2.0px;stroke-linecap:butt;stroke-linejoin:miter;stroke-opacity:1"/>
<path class="bond-14 atom-7 atom-15" d="M 118.722,223.586 L 96.4508,246.783" style="fill:none;fill-rule:evenodd;stroke:#000000;stroke-width:2.0px;stroke-linecap:butt;stroke-linejoin:miter;stroke-opacity:1"/>
<path class="bond-16 atom-8 atom-16" d="M 213.367,127.392 L 221.214,120.999" style="fill:none;fill-rule:evenodd;stroke:#000000;stroke-width:2.0px;stroke-linecap:butt;stroke-linejoin:miter;stroke-opacity:1"/>
<path class="bond-18 atom-9 atom-17" d="M 183.066,236.539 L 192.955,270.649" style="fill:none;fill-rule:evenodd;stroke:#000000;stroke-width:2.0px;stroke-linecap:butt;stroke-linejoin:miter;stroke-opacity:1"/>
<path class="bond-19 atom-10 atom-18" d="M 272.637,118.558 L 269.236,120.014" style="fill:none;fill-rule:evenodd;stroke:#000000;stroke-width:2.0px;stroke-linecap:butt;stroke-linejoin:miter;stroke-opacity:1"/>
<path class="bond-20 atom-10 atom-19" d="M 299.116,108.053 L 338.035,96.7704" style="fill:none;fill-rule:evenodd;stroke:#000000;stroke-width:2.0px;stroke-linecap:butt;stroke-linejoin:miter;stroke-opacity:1"/>
<path class="bond-21 atom-10 atom-21" d="M 290.503,100.749 L 280.591,66.5593" style="fill:none;fill-rule:evenodd;stroke:#000000;stroke-width:2.0px;stroke-linecap:butt;stroke-linejoin:miter;stroke-opacity:1"/>
<path class="atom-0" d="M 353.877 174.933 Q 353.877 171.243, 355.701 169.18 Q 357.524 167.118, 360.933 167.118 Q 364.341 167.118, 366.164 169.18 Q 367.988 171.243, 367.988 174.933 Q 367.988 178.667, 366.142 180.794 Q 364.297 182.9, 360.933 182.9 Q 357.546 182.9, 355.701 180.794 Q 353.877 178.689, 353.877 174.933 M 360.933 181.163 Q 363.277 181.163, 364.536 179.6 Q 365.817 178.016, 365.817 174.933 Q 365.817 171.916, 364.536 170.396 Q 363.277 168.855, 360.933 168.855 Q 358.588 168.855, 357.307 170.374 Q 356.048 171.894, 356.048 174.933 Q 356.048 178.037, 357.307 179.6 Q 358.588 181.163, 360.933 181.163 " fill="#FF0000"/>
<path class="atom-0" d="M 369.616 180.121 L 371.787 180.121 L 371.787 182.292 L 369.616 182.292 L 369.616 180.121 M 369.616 172.654 L 371.787 172.654 L 371.787 174.825 L 369.616 174.825 L 369.616 172.654 " fill="#FF0000"/>
<path class="atom-0" d="M 373.805 180.925 L 377.17 180.925 L 377.17 169.441 L 373.458 170.591 L 372.959 169.311 L 377.67 167.205 L 379.211 167.465 L 379.211 180.925 L 382.228 180.925 L 382.228 182.661 L 373.805 182.661 L 373.805 180.925 " fill="#FF0000"/>
<path class="atom-1" d="M 290.072 161.98 Q 290.072 158.159, 291.852 156.162 Q 293.654 154.143, 297.062 154.143 Q 300.231 154.143, 301.924 156.379 L 300.492 157.551 Q 299.254 155.923, 297.062 155.923 Q 294.739 155.923, 293.502 157.486 Q 292.286 159.027, 292.286 161.98 Q 292.286 165.019, 293.545 166.582 Q 294.826 168.145, 297.301 168.145 Q 298.994 168.145, 300.969 167.124 L 301.577 168.753 Q 300.774 169.274, 299.558 169.578 Q 298.343 169.881, 296.997 169.881 Q 293.654 169.881, 291.852 167.841 Q 290.072 165.8, 290.072 161.98 " fill="#000000"/>
<path class="atom-1" d="M 303.552 167.146 L 305.723 167.146 L 305.723 169.317 L 303.552 169.317 L 303.552 167.146 M 303.552 159.679 L 305.723 159.679 L 305.723 161.849 L 303.552 161.849 L 303.552 159.679 " fill="#000000"/>
<path class="atom-1" d="M 306.852 157.226 Q 307.417 155.771, 308.762 154.968 Q 310.108 154.143, 311.975 154.143 Q 314.298 154.143, 315.6 155.402 Q 316.903 156.661, 316.903 158.897 Q 316.903 161.176, 315.21 163.304 Q 313.538 165.431, 310.065 167.949 L 317.163 167.949 L 317.163 169.686 L 306.809 169.686 L 306.809 168.232 Q 309.674 166.191, 311.367 164.671 Q 313.082 163.152, 313.907 161.784 Q 314.732 160.417, 314.732 159.006 Q 314.732 157.529, 313.994 156.705 Q 313.256 155.88, 311.975 155.88 Q 310.738 155.88, 309.913 156.379 Q 309.088 156.878, 308.502 157.985 L 306.852 157.226 " fill="#000000"/>
<path class="atom-2" d="M 255.283 193.466 L 260.32 201.606 Q 260.819 202.409, 261.622 203.864 Q 262.425 205.318, 262.469 205.405 L 262.469 193.466 L 264.509 193.466 L 264.509 208.835 L 262.404 208.835 L 256.998 199.935 Q 256.369 198.893, 255.696 197.699 Q 255.045 196.505, 254.849 196.136 L 254.849 208.835 L 252.852 208.835 L 252.852 193.466 L 255.283 193.466 " fill="#0000FF"/>
<path class="atom-2" d="M 266.137 206.295 L 268.308 206.295 L 268.308 208.466 L 266.137 208.466 L 266.137 206.295 M 266.137 198.828 L 268.308 198.828 L 268.308 200.998 L 266.137 200.998 L 266.137 198.828 " fill="#0000FF"/>
<path class="atom-2" d="M 276.601 200.738 Q 278.099 201.172, 278.815 202.149 Q 279.553 203.104, 279.553 204.624 Q 279.553 205.926, 278.902 206.946 Q 278.251 207.945, 277.057 208.509 Q 275.863 209.052, 274.3 209.052 Q 272.65 209.052, 271.413 208.488 Q 270.197 207.902, 269.22 206.729 L 270.457 205.47 Q 271.413 206.512, 272.216 206.925 Q 273.019 207.315, 274.3 207.315 Q 275.689 207.315, 276.536 206.577 Q 277.382 205.818, 277.382 204.602 Q 277.382 203.039, 276.492 202.344 Q 275.624 201.628, 273.735 201.628 L 272.628 201.628 L 272.628 200.065 L 273.605 200.065 Q 275.277 200.043, 276.167 199.327 Q 277.057 198.589, 277.057 197.221 Q 277.057 196.223, 276.319 195.636 Q 275.581 195.029, 274.321 195.029 Q 273.041 195.029, 272.237 195.484 Q 271.456 195.94, 270.848 197.091 L 269.35 196.288 Q 269.893 195.007, 271.195 194.16 Q 272.498 193.292, 274.321 193.292 Q 276.579 193.292, 277.903 194.356 Q 279.227 195.419, 279.227 197.221 Q 279.227 198.459, 278.555 199.349 Q 277.882 200.239, 276.601 200.738 " fill="#0000FF"/>
<path class="atom-3" d="M 267.128 253.253 Q 267.128 249.432, 268.908 247.435 Q 270.71 245.416, 274.118 245.416 Q 277.287 245.416, 278.98 247.652 L 277.548 248.824 Q 276.31 247.196, 274.118 247.196 Q 271.795 247.196, 270.558 248.759 Q 269.342 250.3, 269.342 253.253 Q 269.342 256.292, 270.601 257.855 Q 271.882 259.418, 274.357 259.418 Q 276.05 259.418, 278.025 258.398 L 278.633 260.026 Q 277.83 260.547, 276.614 260.851 Q 275.399 261.154, 274.053 261.154 Q 270.71 261.154, 268.908 259.114 Q 267.128 257.073, 267.128 253.253 " fill="#000000"/>
<path class="atom-3" d="M 280.609 258.419 L 282.779 258.419 L 282.779 260.59 L 280.609 260.59 L 280.609 258.419 M 280.609 250.952 L 282.779 250.952 L 282.779 253.122 L 280.609 253.122 L 280.609 250.952 " fill="#000000"/>
<path class="atom-3" d="M 293.416 255.684 L 295.262 255.684 L 295.262 257.421 L 293.416 257.421 L 293.416 260.959 L 291.376 260.959 L 291.376 257.421 L 283.431 257.421 L 283.431 256.053 L 290.16 245.59 L 293.416 245.59 L 293.416 255.684 M 285.949 255.684 L 291.376 255.684 L 291.376 246.979 L 285.949 255.684 " fill="#000000"/>
<path class="atom-4" d="M 199.801 188.153 Q 199.801 184.333, 201.581 182.336 Q 203.383 180.317, 206.791 180.317 Q 209.96 180.317, 211.654 182.553 L 210.221 183.725 Q 208.984 182.097, 206.791 182.097 Q 204.468 182.097, 203.231 183.66 Q 202.015 185.201, 202.015 188.153 Q 202.015 191.193, 203.274 192.756 Q 204.555 194.319, 207.03 194.319 Q 208.723 194.319, 210.698 193.298 L 211.306 194.926 Q 210.503 195.447, 209.287 195.751 Q 208.072 196.055, 206.726 196.055 Q 203.383 196.055, 201.581 194.015 Q 199.801 191.974, 199.801 188.153 " fill="#000000"/>
<path class="atom-4" d="M 213.282 193.32 L 215.453 193.32 L 215.453 195.491 L 213.282 195.491 L 213.282 193.32 M 213.282 185.852 L 215.453 185.852 L 215.453 188.023 L 213.282 188.023 L 213.282 185.852 " fill="#000000"/>
<path class="atom-4" d="M 222.03 186.243 Q 223.376 186.243, 224.483 186.829 Q 225.59 187.394, 226.22 188.479 Q 226.849 189.543, 226.849 190.997 Q 226.849 192.582, 226.068 193.732 Q 225.308 194.861, 224.049 195.447 Q 222.79 196.034, 221.357 196.034 Q 219.946 196.034, 218.644 195.513 Q 217.341 194.992, 216.451 193.993 L 217.754 192.647 Q 218.47 193.429, 219.447 193.863 Q 220.424 194.275, 221.422 194.275 Q 222.79 194.275, 223.723 193.429 Q 224.679 192.582, 224.679 191.041 Q 224.679 189.413, 223.723 188.653 Q 222.79 187.871, 221.292 187.871 Q 219.946 187.871, 218.448 188.457 L 217.254 187.893 L 217.992 180.49 L 225.894 180.49 L 225.677 182.227 L 219.773 182.227 L 219.317 186.786 Q 220.684 186.243, 222.03 186.243 " fill="#000000"/>
<path class="atom-5" d="M 94.1402 162.203 Q 94.1402 158.383, 95.9203 156.385 Q 97.7221 154.367, 101.13 154.367 Q 104.3 154.367, 105.993 156.603 L 104.56 157.775 Q 103.323 156.147, 101.13 156.147 Q 98.8075 156.147, 97.5701 157.71 Q 96.3545 159.251, 96.3545 162.203 Q 96.3545 165.242, 97.6135 166.805 Q 98.8943 168.368, 101.369 168.368 Q 103.062 168.368, 105.038 167.348 L 105.646 168.976 Q 104.842 169.497, 103.627 169.801 Q 102.411 170.105, 101.065 170.105 Q 97.7221 170.105, 95.9203 168.064 Q 94.1402 166.024, 94.1402 162.203 " fill="#000000"/>
<path class="atom-5" d="M 107.621 167.37 L 109.792 167.37 L 109.792 169.541 L 107.621 169.541 L 107.621 167.37 M 107.621 159.902 L 109.792 159.902 L 109.792 162.073 L 107.621 162.073 L 107.621 159.902 " fill="#000000"/>
<path class="atom-5" d="M 117.281 160.315 Q 118.627 160.315, 119.691 160.901 Q 120.754 161.487, 121.341 162.551 Q 121.927 163.614, 121.927 164.96 Q 121.927 166.458, 121.254 167.63 Q 120.602 168.781, 119.43 169.432 Q 118.258 170.083, 116.76 170.083 Q 114.025 170.083, 112.636 168.238 Q 111.268 166.371, 111.268 162.681 Q 111.268 158.6, 112.961 156.494 Q 114.676 154.367, 117.954 154.367 Q 118.909 154.367, 119.712 154.584 Q 120.537 154.801, 121.319 155.257 L 120.472 156.711 Q 119.343 156.103, 117.976 156.103 Q 115.805 156.103, 114.698 157.514 Q 113.591 158.904, 113.461 161.791 Q 114.242 161.074, 115.219 160.705 Q 116.217 160.315, 117.281 160.315 M 116.782 168.303 Q 117.607 168.303, 118.28 167.869 Q 118.974 167.435, 119.365 166.675 Q 119.756 165.915, 119.756 164.982 Q 119.756 163.614, 118.996 162.833 Q 118.236 162.051, 116.89 162.051 Q 115.957 162.051, 115.023 162.442 Q 114.112 162.811, 113.461 163.462 Q 113.547 166.002, 114.351 167.153 Q 115.154 168.303, 116.782 168.303 " fill="#000000"/>
<path class="atom-6" d="M 132.277 123.054 Q 132.277 119.234, 134.057 117.236 Q 135.859 115.218, 139.267 115.218 Q 142.436 115.218, 144.13 117.454 L 142.697 118.626 Q 141.46 116.998, 139.267 116.998 Q 136.944 116.998, 135.707 118.561 Q 134.491 120.102, 134.491 123.054 Q 134.491 126.093, 135.75 127.656 Q 137.031 129.219, 139.506 129.219 Q 141.199 129.219, 143.175 128.199 L 143.782 129.827 Q 142.979 130.348, 141.764 130.652 Q 140.548 130.956, 139.202 130.956 Q 135.859 130.956, 134.057 128.915 Q 132.277 126.875, 132.277 123.054 " fill="#000000"/>
<path class="atom-6" d="M 145.758 128.221 L 147.929 128.221 L 147.929 130.392 L 145.758 130.392 L 145.758 128.221 M 145.758 120.753 L 147.929 120.753 L 147.929 122.924 L 145.758 122.924 L 145.758 120.753 " fill="#000000"/>
<path class="atom-6" d="M 156.373 117.128 L 148.319 117.128 L 148.319 115.391 L 158.522 115.391 L 158.522 116.933 L 152.314 130.761 L 150.23 130.761 L 156.373 117.128 " fill="#000000"/>
<path class="atom-7" d="M 109.214 214.327 Q 109.214 210.507, 110.994 208.51 Q 112.796 206.491, 116.204 206.491 Q 119.373 206.491, 121.066 208.727 L 119.634 209.899 Q 118.396 208.271, 116.204 208.271 Q 113.881 208.271, 112.644 209.834 Q 111.428 211.375, 111.428 214.327 Q 111.428 217.366, 112.687 218.929 Q 113.968 220.492, 116.443 220.492 Q 118.136 220.492, 120.111 219.472 L 120.719 221.1 Q 119.916 221.621, 118.7 221.925 Q 117.485 222.229, 116.139 222.229 Q 112.796 222.229, 110.994 220.189 Q 109.214 218.148, 109.214 214.327 " fill="#000000"/>
<path class="atom-7" d="M 122.694 219.494 L 124.865 219.494 L 124.865 221.665 L 122.694 221.665 L 122.694 219.494 M 122.694 212.026 L 124.865 212.026 L 124.865 214.197 L 122.694 214.197 L 122.694 212.026 " fill="#000000"/>
<path class="atom-7" d="M 134.048 213.893 Q 135.459 214.501, 136.262 215.413 Q 137.065 216.303, 137.065 217.822 Q 137.065 219.125, 136.392 220.145 Q 135.719 221.144, 134.504 221.708 Q 133.31 222.251, 131.725 222.251 Q 129.164 222.251, 127.687 221.079 Q 126.211 219.885, 126.211 217.822 Q 126.211 216.563, 126.862 215.63 Q 127.514 214.675, 128.86 213.958 Q 127.861 213.394, 127.318 212.569 Q 126.776 211.722, 126.776 210.42 Q 126.776 208.618, 128.078 207.554 Q 129.402 206.491, 131.638 206.491 Q 133.874 206.491, 135.177 207.554 Q 136.501 208.618, 136.501 210.42 Q 136.501 211.549, 135.871 212.395 Q 135.264 213.22, 134.048 213.893 M 131.638 208.119 Q 130.357 208.119, 129.641 208.727 Q 128.946 209.334, 128.946 210.42 Q 128.946 211.223, 129.424 211.766 Q 129.902 212.287, 130.575 212.591 Q 131.269 212.895, 132.593 213.35 Q 133.527 212.699, 133.918 212.005 Q 134.33 211.31, 134.33 210.42 Q 134.33 209.334, 133.614 208.727 Q 132.919 208.119, 131.638 208.119 M 131.725 220.623 Q 133.158 220.623, 134.026 219.863 Q 134.894 219.081, 134.894 217.801 Q 134.894 216.976, 134.439 216.455 Q 133.983 215.934, 133.288 215.63 Q 132.615 215.326, 131.399 214.935 L 130.423 214.61 Q 129.337 215.261, 128.86 216.042 Q 128.382 216.802, 128.382 217.801 Q 128.382 219.081, 129.294 219.863 Q 130.206 220.623, 131.725 220.623 " fill="#000000"/>
<path class="atom-8" d="M 196.917 136.029 Q 196.917 132.209, 198.697 130.212 Q 200.498 128.193, 203.907 128.193 Q 207.076 128.193, 208.769 130.429 L 207.337 131.601 Q 206.099 129.973, 203.907 129.973 Q 201.584 129.973, 200.347 131.536 Q 199.131 133.077, 199.131 136.029 Q 199.131 139.069, 200.39 140.632 Q 201.671 142.195, 204.145 142.195 Q 205.839 142.195, 207.814 141.174 L 208.422 142.802 Q 207.619 143.323, 206.403 143.627 Q 205.187 143.931, 203.842 143.931 Q 200.498 143.931, 198.697 141.891 Q 196.917 139.85, 196.917 136.029 " fill="#000000"/>
<path class="atom-8" d="M 210.397 141.196 L 212.568 141.196 L 212.568 143.367 L 210.397 143.367 L 210.397 141.196 M 210.397 133.728 L 212.568 133.728 L 212.568 135.899 L 210.397 135.899 L 210.397 133.728 " fill="#000000"/>
<path class="atom-8" d="M 218.929 128.193 Q 221.664 128.193, 223.032 130.06 Q 224.421 131.905, 224.421 135.595 Q 224.421 139.676, 222.706 141.804 Q 221.013 143.909, 217.735 143.909 Q 216.78 143.909, 215.955 143.692 Q 215.152 143.475, 214.37 143.019 L 215.217 141.565 Q 216.345 142.173, 217.713 142.173 Q 219.884 142.173, 220.991 140.783 Q 222.098 139.372, 222.228 136.485 Q 221.447 137.202, 220.448 137.592 Q 219.471 137.961, 218.408 137.961 Q 217.062 137.961, 215.998 137.375 Q 214.934 136.789, 214.348 135.725 Q 213.762 134.662, 213.762 133.316 Q 213.762 131.818, 214.413 130.667 Q 215.086 129.495, 216.259 128.844 Q 217.431 128.193, 218.929 128.193 M 215.933 133.294 Q 215.933 134.662, 216.693 135.443 Q 217.453 136.225, 218.798 136.225 Q 219.732 136.225, 220.644 135.856 Q 221.577 135.465, 222.228 134.814 Q 222.142 132.274, 221.338 131.123 Q 220.535 129.973, 218.907 129.973 Q 218.082 129.973, 217.387 130.407 Q 216.714 130.841, 216.324 131.601 Q 215.933 132.361, 215.933 133.294 " fill="#000000"/>
<path class="atom-9" d="M 156.471 227.302 Q 156.471 223.482, 158.251 221.485 Q 160.053 219.466, 163.461 219.466 Q 166.631 219.466, 168.324 221.702 L 166.891 222.874 Q 165.654 221.246, 163.461 221.246 Q 161.139 221.246, 159.901 222.809 Q 158.686 224.35, 158.686 227.302 Q 158.686 230.342, 159.945 231.905 Q 161.226 233.468, 163.7 233.468 Q 165.393 233.468, 167.369 232.447 L 167.977 234.075 Q 167.174 234.596, 165.958 234.9 Q 164.742 235.204, 163.396 235.204 Q 160.053 235.204, 158.251 233.164 Q 156.471 231.123, 156.471 227.302 " fill="#000000"/>
<path class="atom-9" d="M 169.952 232.469 L 172.123 232.469 L 172.123 234.64 L 169.952 234.64 L 169.952 232.469 M 169.952 225.001 L 172.123 225.001 L 172.123 227.172 L 169.952 227.172 L 169.952 225.001 " fill="#000000"/>
<path class="atom-9" d="M 174.142 233.272 L 177.507 233.272 L 177.507 221.789 L 173.795 222.939 L 173.295 221.658 L 178.006 219.553 L 179.547 219.813 L 179.547 233.272 L 182.565 233.272 L 182.565 235.009 L 174.142 235.009 L 174.142 233.272 " fill="#000000"/>
<path class="atom-9" d="M 189.511 235.182 Q 186.689 235.182, 185.278 233.099 Q 183.889 231.015, 183.889 227.302 Q 183.889 223.59, 185.278 221.528 Q 186.667 219.466, 189.511 219.466 Q 192.355 219.466, 193.744 221.528 Q 195.134 223.59, 195.134 227.302 Q 195.134 231.015, 193.723 233.099 Q 192.333 235.182, 189.511 235.182 M 189.511 233.446 Q 191.183 233.446, 192.073 231.905 Q 192.963 230.342, 192.963 227.302 Q 192.963 224.285, 192.073 222.744 Q 191.183 221.202, 189.511 221.202 Q 187.861 221.202, 186.95 222.744 Q 186.06 224.285, 186.06 227.302 Q 186.06 230.342, 186.95 231.905 Q 187.861 233.446, 189.511 233.446 " fill="#000000"/>
<path class="atom-10" d="M 261.224 109.856 Q 261.224 106.035, 263.004 104.038 Q 264.806 102.019, 268.214 102.019 Q 271.384 102.019, 273.077 104.255 L 271.644 105.427 Q 270.407 103.799, 268.214 103.799 Q 265.892 103.799, 264.654 105.362 Q 263.439 106.903, 263.439 109.856 Q 263.439 112.895, 264.698 114.458 Q 265.978 116.021, 268.453 116.021 Q 270.146 116.021, 272.122 115 L 272.73 116.629 Q 271.927 117.15, 270.711 117.453 Q 269.495 117.757, 268.149 117.757 Q 264.806 117.757, 263.004 115.717 Q 261.224 113.676, 261.224 109.856 " fill="#000000"/>
<path class="atom-10" d="M 274.705 115.022 L 276.876 115.022 L 276.876 117.193 L 274.705 117.193 L 274.705 115.022 M 274.705 107.555 L 276.876 107.555 L 276.876 109.725 L 274.705 109.725 L 274.705 107.555 " fill="#000000"/>
<path class="atom-10" d="M 278.895 115.825 L 282.26 115.825 L 282.26 104.342 L 278.548 105.492 L 278.048 104.211 L 282.759 102.106 L 284.3 102.366 L 284.3 115.825 L 287.318 115.825 L 287.318 117.562 L 278.895 117.562 L 278.895 115.825 " fill="#000000"/>
<path class="atom-10" d="M 289.336 115.825 L 292.701 115.825 L 292.701 104.342 L 288.989 105.492 L 288.49 104.211 L 293.201 102.106 L 294.742 102.366 L 294.742 115.825 L 297.759 115.825 L 297.759 117.562 L 289.336 117.562 L 289.336 115.825 " fill="#000000"/>
<path class="atom-11" d="M 331.873 230.478 L 333.957 230.478 L 333.957 237.012 L 341.816 237.012 L 341.816 230.478 L 343.9 230.478 L 343.9 245.848 L 341.816 245.848 L 341.816 238.749 L 333.957 238.749 L 333.957 245.848 L 331.873 245.848 L 331.873 230.478 " fill="#000000"/>
<path class="atom-11" d="M 345.528 243.308 L 347.699 243.308 L 347.699 245.479 L 345.528 245.479 L 345.528 243.308 M 345.528 235.84 L 347.699 235.84 L 347.699 238.011 L 345.528 238.011 L 345.528 235.84 " fill="#000000"/>
<path class="atom-11" d="M 349.717 244.111 L 353.082 244.111 L 353.082 232.627 L 349.37 233.778 L 348.871 232.497 L 353.581 230.391 L 355.123 230.652 L 355.123 244.111 L 358.14 244.111 L 358.14 245.848 L 349.717 245.848 L 349.717 244.111 " fill="#000000"/>
<path class="atom-11" d="M 359.269 233.387 Q 359.833 231.933, 361.179 231.129 Q 362.525 230.305, 364.392 230.305 Q 366.715 230.305, 368.017 231.564 Q 369.32 232.823, 369.32 235.059 Q 369.32 237.338, 367.627 239.465 Q 365.955 241.593, 362.482 244.111 L 369.58 244.111 L 369.58 245.848 L 359.226 245.848 L 359.226 244.393 Q 362.091 242.353, 363.784 240.833 Q 365.499 239.313, 366.324 237.946 Q 367.149 236.578, 367.149 235.167 Q 367.149 233.691, 366.411 232.866 Q 365.673 232.041, 364.392 232.041 Q 363.155 232.041, 362.33 232.541 Q 361.505 233.04, 360.919 234.147 L 359.269 233.387 " fill="#000000"/>
<path class="atom-12" d="M 201.293 260.701 L 203.377 260.701 L 203.377 267.235 L 211.236 267.235 L 211.236 260.701 L 213.319 260.701 L 213.319 276.071 L 211.236 276.071 L 211.236 268.972 L 203.377 268.972 L 203.377 276.071 L 201.293 276.071 L 201.293 260.701 " fill="#000000"/>
<path class="atom-12" d="M 214.948 273.531 L 217.118 273.531 L 217.118 275.702 L 214.948 275.702 L 214.948 273.531 M 214.948 266.063 L 217.118 266.063 L 217.118 268.234 L 214.948 268.234 L 214.948 266.063 " fill="#000000"/>
<path class="atom-12" d="M 219.137 274.334 L 222.502 274.334 L 222.502 262.85 L 218.79 264.001 L 218.291 262.72 L 223.001 260.614 L 224.543 260.875 L 224.543 274.334 L 227.56 274.334 L 227.56 276.071 L 219.137 276.071 L 219.137 274.334 " fill="#000000"/>
<path class="atom-12" d="M 235.853 267.973 Q 237.35 268.408, 238.067 269.384 Q 238.805 270.34, 238.805 271.859 Q 238.805 273.162, 238.154 274.182 Q 237.502 275.181, 236.308 275.745 Q 235.114 276.288, 233.552 276.288 Q 231.902 276.288, 230.664 275.723 Q 229.449 275.137, 228.472 273.965 L 229.709 272.706 Q 230.664 273.748, 231.468 274.16 Q 232.271 274.551, 233.552 274.551 Q 234.941 274.551, 235.787 273.813 Q 236.634 273.053, 236.634 271.837 Q 236.634 270.274, 235.744 269.58 Q 234.876 268.863, 232.987 268.863 L 231.88 268.863 L 231.88 267.3 L 232.857 267.3 Q 234.528 267.279, 235.418 266.562 Q 236.308 265.824, 236.308 264.457 Q 236.308 263.458, 235.57 262.872 Q 234.832 262.264, 233.573 262.264 Q 232.292 262.264, 231.489 262.72 Q 230.708 263.176, 230.1 264.326 L 228.602 263.523 Q 229.145 262.242, 230.447 261.396 Q 231.75 260.528, 233.573 260.528 Q 235.831 260.528, 237.155 261.591 Q 238.479 262.655, 238.479 264.457 Q 238.479 265.694, 237.806 266.584 Q 237.133 267.474, 235.853 267.973 " fill="#000000"/>
<path class="atom-13" d="M 294.861 297.67 L 296.945 297.67 L 296.945 304.205 L 304.803 304.205 L 304.803 297.67 L 306.887 297.67 L 306.887 313.04 L 304.803 313.04 L 304.803 305.941 L 296.945 305.941 L 296.945 313.04 L 294.861 313.04 L 294.861 297.67 " fill="#000000"/>
<path class="atom-13" d="M 308.515 310.5 L 310.686 310.5 L 310.686 312.671 L 308.515 312.671 L 308.515 310.5 M 308.515 303.032 L 310.686 303.032 L 310.686 305.203 L 308.515 305.203 L 308.515 303.032 " fill="#000000"/>
<path class="atom-13" d="M 312.705 311.303 L 316.07 311.303 L 316.07 299.819 L 312.357 300.97 L 311.858 299.689 L 316.569 297.584 L 318.11 297.844 L 318.11 311.303 L 321.128 311.303 L 321.128 313.04 L 312.705 313.04 L 312.705 311.303 " fill="#000000"/>
<path class="atom-13" d="M 331.765 307.765 L 333.61 307.765 L 333.61 309.501 L 331.765 309.501 L 331.765 313.04 L 329.724 313.04 L 329.724 309.501 L 321.779 309.501 L 321.779 308.134 L 328.508 297.67 L 331.765 297.67 L 331.765 307.765 M 324.297 307.765 L 329.724 307.765 L 329.724 299.06 L 324.297 307.765 " fill="#000000"/>
<path class="atom-14" d="M 129.022 63.2238 L 131.106 63.2238 L 131.106 69.7579 L 138.964 69.7579 L 138.964 63.2238 L 141.048 63.2238 L 141.048 78.5932 L 138.964 78.5932 L 138.964 71.4946 L 131.106 71.4946 L 131.106 78.5932 L 129.022 78.5932 L 129.022 63.2238 " fill="#000000"/>
<path class="atom-14" d="M 142.676 76.0533 L 144.847 76.0533 L 144.847 78.2241 L 142.676 78.2241 L 142.676 76.0533 M 142.676 68.5857 L 144.847 68.5857 L 144.847 70.7565 L 142.676 70.7565 L 142.676 68.5857 " fill="#000000"/>
<path class="atom-14" d="M 146.866 76.8565 L 150.231 76.8565 L 150.231 65.3729 L 146.519 66.5234 L 146.019 65.2426 L 150.73 63.137 L 152.271 63.3975 L 152.271 76.8565 L 155.289 76.8565 L 155.289 78.5932 L 146.866 78.5932 L 146.866 76.8565 " fill="#000000"/>
<path class="atom-14" d="M 161.866 68.9765 Q 163.212 68.9765, 164.319 69.5626 Q 165.426 70.127, 166.056 71.2124 Q 166.686 72.2761, 166.686 73.7305 Q 166.686 75.3152, 165.904 76.4658 Q 165.144 77.5946, 163.885 78.1807 Q 162.626 78.7668, 161.193 78.7668 Q 159.782 78.7668, 158.48 78.2458 Q 157.177 77.7248, 156.287 76.7263 L 157.59 75.3804 Q 158.306 76.1619, 159.283 76.596 Q 160.26 77.0085, 161.258 77.0085 Q 162.626 77.0085, 163.56 76.1619 Q 164.515 75.3152, 164.515 73.774 Q 164.515 72.1458, 163.56 71.3861 Q 162.626 70.6046, 161.128 70.6046 Q 159.782 70.6046, 158.284 71.1907 L 157.09 70.6263 L 157.829 63.2238 L 165.73 63.2238 L 165.513 64.9604 L 159.609 64.9604 L 159.153 69.5192 Q 160.52 68.9765, 161.866 68.9765 " fill="#000000"/>
<path class="atom-15" d="M 57.0155 245.813 L 59.0994 245.813 L 59.0994 252.347 L 66.9578 252.347 L 66.9578 245.813 L 69.0418 245.813 L 69.0418 261.183 L 66.9578 261.183 L 66.9578 254.084 L 59.0994 254.084 L 59.0994 261.183 L 57.0155 261.183 L 57.0155 245.813 " fill="#000000"/>
<path class="atom-15" d="M 70.6699 258.643 L 72.8407 258.643 L 72.8407 260.814 L 70.6699 260.814 L 70.6699 258.643 M 70.6699 251.175 L 72.8407 251.175 L 72.8407 253.346 L 70.6699 253.346 L 70.6699 251.175 " fill="#000000"/>
<path class="atom-15" d="M 74.8596 259.446 L 78.2243 259.446 L 78.2243 247.962 L 74.5122 249.113 L 74.0129 247.832 L 78.7236 245.726 L 80.2649 245.987 L 80.2649 259.446 L 83.2823 259.446 L 83.2823 261.183 L 74.8596 261.183 L 74.8596 259.446 " fill="#000000"/>
<path class="atom-15" d="M 90.7716 251.588 Q 92.1176 251.588, 93.1813 252.174 Q 94.245 252.76, 94.8311 253.824 Q 95.4172 254.887, 95.4172 256.233 Q 95.4172 257.731, 94.7442 258.903 Q 94.093 260.054, 92.9208 260.705 Q 91.7485 261.356, 90.2506 261.356 Q 87.5154 261.356, 86.1261 259.511 Q 84.7585 257.644, 84.7585 253.954 Q 84.7585 249.873, 86.4517 247.767 Q 88.1667 245.64, 91.4446 245.64 Q 92.3998 245.64, 93.203 245.857 Q 94.0279 246.074, 94.8094 246.53 L 93.9627 247.984 Q 92.8339 247.376, 91.4663 247.376 Q 89.2955 247.376, 88.1884 248.787 Q 87.0813 250.177, 86.951 253.064 Q 87.7325 252.347, 88.7094 251.978 Q 89.7079 251.588, 90.7716 251.588 M 90.2724 259.576 Q 91.0973 259.576, 91.7702 259.142 Q 92.4649 258.708, 92.8556 257.948 Q 93.2464 257.188, 93.2464 256.255 Q 93.2464 254.887, 92.4866 254.106 Q 91.7268 253.324, 90.3809 253.324 Q 89.4474 253.324, 88.514 253.715 Q 87.6023 254.084, 86.951 254.735 Q 87.0378 257.275, 87.841 258.426 Q 88.6442 259.576, 90.2724 259.576 " fill="#000000"/>
<path class="atom-16" d="M 221.676 108.084 L 223.76 108.084 L 223.76 114.618 L 231.618 114.618 L 231.618 108.084 L 233.702 108.084 L 233.702 123.453 L 231.618 123.453 L 231.618 116.354 L 223.76 116.354 L 223.76 123.453 L 221.676 123.453 L 221.676 108.084 " fill="#000000"/>
<path class="atom-16" d="M 235.33 120.913 L 237.501 120.913 L 237.501 123.084 L 235.33 123.084 L 235.33 120.913 M 235.33 113.446 L 237.501 113.446 L 237.501 115.616 L 235.33 115.616 L 235.33 113.446 " fill="#000000"/>
<path class="atom-16" d="M 239.52 121.716 L 242.885 121.716 L 242.885 110.233 L 239.173 111.383 L 238.673 110.102 L 243.384 107.997 L 244.925 108.257 L 244.925 121.716 L 247.943 121.716 L 247.943 123.453 L 239.52 123.453 L 239.52 121.716 " fill="#000000"/>
<path class="atom-16" d="M 256.387 109.82 L 248.333 109.82 L 248.333 108.084 L 258.536 108.084 L 258.536 109.625 L 252.328 123.453 L 250.244 123.453 L 256.387 109.82 " fill="#000000"/>
<path class="atom-17" d="M 189.468 271.764 L 191.552 271.764 L 191.552 278.298 L 199.41 278.298 L 199.41 271.764 L 201.494 271.764 L 201.494 287.133 L 199.41 287.133 L 199.41 280.034 L 191.552 280.034 L 191.552 287.133 L 189.468 287.133 L 189.468 271.764 " fill="#000000"/>
<path class="atom-17" d="M 203.122 284.593 L 205.293 284.593 L 205.293 286.764 L 203.122 286.764 L 203.122 284.593 M 203.122 277.125 L 205.293 277.125 L 205.293 279.296 L 203.122 279.296 L 203.122 277.125 " fill="#000000"/>
<path class="atom-17" d="M 207.312 285.396 L 210.677 285.396 L 210.677 273.913 L 206.964 275.063 L 206.465 273.782 L 211.176 271.677 L 212.717 271.937 L 212.717 285.396 L 215.735 285.396 L 215.735 287.133 L 207.312 287.133 L 207.312 285.396 " fill="#000000"/>
<path class="atom-17" d="M 224.917 278.992 Q 226.328 279.6, 227.131 280.512 Q 227.935 281.402, 227.935 282.922 Q 227.935 284.224, 227.262 285.244 Q 226.589 286.243, 225.373 286.807 Q 224.179 287.35, 222.594 287.35 Q 220.033 287.35, 218.557 286.178 Q 217.08 284.984, 217.08 282.922 Q 217.08 281.662, 217.732 280.729 Q 218.383 279.774, 219.729 279.057 Q 218.73 278.493, 218.188 277.668 Q 217.645 276.822, 217.645 275.519 Q 217.645 273.717, 218.947 272.654 Q 220.272 271.59, 222.508 271.59 Q 224.743 271.59, 226.046 272.654 Q 227.37 273.717, 227.37 275.519 Q 227.37 276.648, 226.741 277.494 Q 226.133 278.319, 224.917 278.992 M 222.508 273.218 Q 221.227 273.218, 220.51 273.826 Q 219.816 274.434, 219.816 275.519 Q 219.816 276.322, 220.293 276.865 Q 220.771 277.386, 221.444 277.69 Q 222.138 277.994, 223.463 278.45 Q 224.396 277.798, 224.787 277.104 Q 225.199 276.409, 225.199 275.519 Q 225.199 274.434, 224.483 273.826 Q 223.788 273.218, 222.508 273.218 M 222.594 285.722 Q 224.027 285.722, 224.895 284.962 Q 225.764 284.181, 225.764 282.9 Q 225.764 282.075, 225.308 281.554 Q 224.852 281.033, 224.157 280.729 Q 223.484 280.425, 222.269 280.034 L 221.292 279.709 Q 220.206 280.36, 219.729 281.141 Q 219.251 281.901, 219.251 282.9 Q 219.251 284.181, 220.163 284.962 Q 221.075 285.722, 222.594 285.722 " fill="#000000"/>
<path class="atom-18" d="M 230.873 114.801 L 232.957 114.801 L 232.957 121.335 L 240.815 121.335 L 240.815 114.801 L 242.899 114.801 L 242.899 130.17 L 240.815 130.17 L 240.815 123.072 L 232.957 123.072 L 232.957 130.17 L 230.873 130.17 L 230.873 114.801 " fill="#000000"/>
<path class="atom-18" d="M 244.527 127.631 L 246.698 127.631 L 246.698 129.801 L 244.527 129.801 L 244.527 127.631 M 244.527 120.163 L 246.698 120.163 L 246.698 122.334 L 244.527 122.334 L 244.527 120.163 " fill="#000000"/>
<path class="atom-18" d="M 248.717 128.434 L 252.082 128.434 L 252.082 116.95 L 248.37 118.101 L 247.87 116.82 L 252.581 114.714 L 254.122 114.975 L 254.122 128.434 L 257.14 128.434 L 257.14 130.17 L 248.717 130.17 L 248.717 128.434 " fill="#000000"/>
<path class="atom-18" d="M 263.5 114.627 Q 266.235 114.627, 267.603 116.494 Q 268.992 118.339, 268.992 122.03 Q 268.992 126.111, 267.277 128.238 Q 265.584 130.344, 262.306 130.344 Q 261.351 130.344, 260.526 130.127 Q 259.723 129.91, 258.941 129.454 L 259.788 128 Q 260.917 128.607, 262.285 128.607 Q 264.455 128.607, 265.562 127.218 Q 266.67 125.807, 266.8 122.92 Q 266.018 123.636, 265.02 124.027 Q 264.043 124.396, 262.979 124.396 Q 261.633 124.396, 260.57 123.81 Q 259.506 123.224, 258.92 122.16 Q 258.334 121.096, 258.334 119.75 Q 258.334 118.253, 258.985 117.102 Q 259.658 115.93, 260.83 115.279 Q 262.002 114.627, 263.5 114.627 M 260.504 119.729 Q 260.504 121.096, 261.264 121.878 Q 262.024 122.659, 263.37 122.659 Q 264.303 122.659, 265.215 122.29 Q 266.149 121.9, 266.8 121.248 Q 266.713 118.709, 265.91 117.558 Q 265.107 116.407, 263.478 116.407 Q 262.654 116.407, 261.959 116.842 Q 261.286 117.276, 260.895 118.036 Q 260.504 118.795, 260.504 119.729 " fill="#000000"/>
<path class="atom-19" d="M 339.235 87.0811 L 341.319 87.0811 L 341.319 93.6153 L 349.178 93.6153 L 349.178 87.0811 L 351.262 87.0811 L 351.262 102.451 L 349.178 102.451 L 349.178 95.3519 L 341.319 95.3519 L 341.319 102.451 L 339.235 102.451 L 339.235 87.0811 " fill="#000000"/>
<path class="atom-19" d="M 352.89 99.9107 L 355.061 99.9107 L 355.061 102.081 L 352.89 102.081 L 352.89 99.9107 M 352.89 92.443 L 355.061 92.443 L 355.061 94.6139 L 352.89 94.6139 L 352.89 92.443 " fill="#000000"/>
<path class="atom-19" d="M 356.19 89.99 Q 356.754 88.5356, 358.1 87.7324 Q 359.446 86.9075, 361.313 86.9075 Q 363.635 86.9075, 364.938 88.1665 Q 366.24 89.4256, 366.24 91.6616 Q 366.24 93.9409, 364.547 96.0683 Q 362.876 98.1957, 359.402 100.714 L 366.501 100.714 L 366.501 102.451 L 356.146 102.451 L 356.146 100.996 Q 359.012 98.9555, 360.705 97.4359 Q 362.42 95.9164, 363.245 94.5487 Q 364.07 93.1811, 364.07 91.7701 Q 364.07 90.2939, 363.332 89.469 Q 362.593 88.6441, 361.313 88.6441 Q 360.075 88.6441, 359.25 89.1434 Q 358.425 89.6427, 357.839 90.7498 L 356.19 89.99 " fill="#000000"/>
<path class="atom-19" d="M 373.448 102.624 Q 370.625 102.624, 369.214 100.54 Q 367.825 98.4562, 367.825 94.7441 Q 367.825 91.032, 369.214 88.9697 Q 370.604 86.9075, 373.448 86.9075 Q 376.291 86.9075, 377.681 88.9697 Q 379.07 91.032, 379.07 94.7441 Q 379.07 98.4562, 377.659 100.54 Q 376.27 102.624, 373.448 102.624 M 373.448 100.888 Q 375.119 100.888, 376.009 99.3462 Q 376.899 97.7833, 376.899 94.7441 Q 376.899 91.7267, 376.009 90.1854 Q 375.119 88.6441, 373.448 88.6441 Q 371.798 88.6441, 370.886 90.1854 Q 369.996 91.7267, 369.996 94.7441 Q 369.996 97.7833, 370.886 99.3462 Q 371.798 100.888, 373.448 100.888 " fill="#000000"/>
<path class="atom-20" d="M 26.7925 141.565 L 28.8765 141.565 L 28.8765 148.099 L 36.7349 148.099 L 36.7349 141.565 L 38.8189 141.565 L 38.8189 156.934 L 36.7349 156.934 L 36.7349 149.836 L 28.8765 149.836 L 28.8765 156.934 L 26.7925 156.934 L 26.7925 141.565 " fill="#000000"/>
<path class="atom-20" d="M 40.447 154.395 L 42.6178 154.395 L 42.6178 156.565 L 40.447 156.565 L 40.447 154.395 M 40.447 146.927 L 42.6178 146.927 L 42.6178 149.098 L 40.447 149.098 L 40.447 146.927 " fill="#000000"/>
<path class="atom-20" d="M 43.7466 144.474 Q 44.311 143.02, 45.6569 142.216 Q 47.0028 141.391, 48.8697 141.391 Q 51.1925 141.391, 52.495 142.651 Q 53.7975 143.91, 53.7975 146.146 Q 53.7975 148.425, 52.1042 150.552 Q 50.4327 152.68, 46.9594 155.198 L 54.058 155.198 L 54.058 156.934 L 43.7032 156.934 L 43.7032 155.48 Q 46.5687 153.439, 48.2619 151.92 Q 49.9768 150.4, 50.8018 149.033 Q 51.6267 147.665, 51.6267 146.254 Q 51.6267 144.778, 50.8886 143.953 Q 50.1505 143.128, 48.8697 143.128 Q 47.6324 143.128, 46.8075 143.627 Q 45.9825 144.127, 45.3964 145.234 L 43.7466 144.474 " fill="#000000"/>
<path class="atom-20" d="M 56.0768 155.198 L 59.4416 155.198 L 59.4416 143.714 L 55.7295 144.865 L 55.2302 143.584 L 59.9409 141.478 L 61.4822 141.739 L 61.4822 155.198 L 64.4996 155.198 L 64.4996 156.934 L 56.0768 156.934 L 56.0768 155.198 " fill="#000000"/>
<path class="atom-21" d="M 272 50.0685 L 274.084 50.0685 L 274.084 56.6027 L 281.942 56.6027 L 281.942 50.0685 L 284.026 50.0685 L 284.026 65.4379 L 281.942 65.4379 L 281.942 58.3393 L 274.084 58.3393 L 274.084 65.4379 L 272 65.4379 L 272 50.0685 " fill="#000000"/>
<path class="atom-21" d="M 285.654 62.898 L 287.825 62.898 L 287.825 65.0689 L 285.654 65.0689 L 285.654 62.898 M 285.654 55.4304 L 287.825 55.4304 L 287.825 57.6012 L 285.654 57.6012 L 285.654 55.4304 " fill="#000000"/>
<path class="atom-21" d="M 288.954 52.9774 Q 289.518 51.523, 290.864 50.7198 Q 292.21 49.8948, 294.077 49.8948 Q 296.4 49.8948, 297.702 51.1539 Q 299.005 52.413, 299.005 54.6489 Q 299.005 56.9283, 297.312 59.0557 Q 295.64 61.1831, 292.167 63.7012 L 299.265 63.7012 L 299.265 65.4379 L 288.911 65.4379 L 288.911 63.9834 Q 291.776 61.9429, 293.469 60.4233 Q 295.184 58.9037, 296.009 57.5361 Q 296.834 56.1685, 296.834 54.7575 Q 296.834 53.2813, 296.096 52.4564 Q 295.358 51.6315, 294.077 51.6315 Q 292.84 51.6315, 292.015 52.1308 Q 291.19 52.6301, 290.604 53.7372 L 288.954 52.9774 " fill="#000000"/>
<path class="atom-21" d="M 300.394 52.9774 Q 300.959 51.523, 302.305 50.7198 Q 303.65 49.8948, 305.517 49.8948 Q 307.84 49.8948, 309.143 51.1539 Q 310.445 52.413, 310.445 54.6489 Q 310.445 56.9283, 308.752 59.0557 Q 307.08 61.1831, 303.607 63.7012 L 310.706 63.7012 L 310.706 65.4379 L 300.351 65.4379 L 300.351 63.9834 Q 303.216 61.9429, 304.909 60.4233 Q 306.624 58.9037, 307.449 57.5361 Q 308.274 56.1685, 308.274 54.7575 Q 308.274 53.2813, 307.536 52.4564 Q 306.798 51.6315, 305.517 51.6315 Q 304.28 51.6315, 303.455 52.1308 Q 302.63 52.6301, 302.044 53.7372 L 300.394 52.9774 " fill="#000000"/>
<path d="M 150.133 382.632 Q 150.549 381.56, 151.541 380.968 Q 152.533 380.36, 153.909 380.36 Q 155.621 380.36, 156.581 381.288 Q 157.541 382.216, 157.541 383.864 Q 157.541 385.544, 156.293 387.112 Q 155.061 388.68, 152.501 390.536 L 157.733 390.536 L 157.733 391.816 L 150.101 391.816 L 150.101 390.744 Q 152.213 389.24, 153.461 388.12 Q 154.725 387, 155.333 385.992 Q 155.941 384.984, 155.941 383.944 Q 155.941 382.856, 155.397 382.248 Q 154.853 381.64, 153.909 381.64 Q 152.997 381.64, 152.389 382.008 Q 151.781 382.376, 151.349 383.192 L 150.133 382.632 " fill="#000000"/>
<path d="M 162.581 384.728 Q 163.573 384.728, 164.389 385.16 Q 165.205 385.576, 165.669 386.376 Q 166.133 387.16, 166.133 388.232 Q 166.133 389.4, 165.557 390.248 Q 164.997 391.08, 164.069 391.512 Q 163.141 391.944, 162.085 391.944 Q 161.045 391.944, 160.085 391.56 Q 159.125 391.176, 158.469 390.44 L 159.429 389.448 Q 159.957 390.024, 160.677 390.344 Q 161.397 390.648, 162.133 390.648 Q 163.141 390.648, 163.829 390.024 Q 164.533 389.4, 164.533 388.264 Q 164.533 387.064, 163.829 386.504 Q 163.141 385.928, 162.037 385.928 Q 161.045 385.928, 159.941 386.36 L 159.061 385.944 L 159.605 380.488 L 165.429 380.488 L 165.269 381.768 L 160.917 381.768 L 160.581 385.128 Q 161.589 384.728, 162.581 384.728 " fill="#000000"/>
<path d="M 174.293 392.616 L 174.293 393.928 L 166.133 393.928 L 166.133 392.616 L 174.293 392.616 " fill="#000000"/>
<path d="M 180.405 385.848 Q 181.509 386.168, 182.037 386.888 Q 182.581 387.592, 182.581 388.712 Q 182.581 389.672, 182.101 390.424 Q 181.621 391.16, 180.741 391.576 Q 179.861 391.976, 178.709 391.976 Q 177.493 391.976, 176.581 391.56 Q 175.685 391.128, 174.965 390.264 L 175.877 389.336 Q 176.581 390.104, 177.173 390.408 Q 177.765 390.696, 178.709 390.696 Q 179.733 390.696, 180.357 390.152 Q 180.981 389.592, 180.981 388.696 Q 180.981 387.544, 180.325 387.032 Q 179.685 386.504, 178.293 386.504 L 177.477 386.504 L 177.477 385.352 L 178.197 385.352 Q 179.429 385.336, 180.085 384.808 Q 180.741 384.264, 180.741 383.256 Q 180.741 382.52, 180.197 382.088 Q 179.653 381.64, 178.725 381.64 Q 177.781 381.64, 177.189 381.976 Q 176.613 382.312, 176.165 383.16 L 175.061 382.568 Q 175.461 381.624, 176.421 381 Q 177.381 380.36, 178.725 380.36 Q 180.389 380.36, 181.365 381.144 Q 182.341 381.928, 182.341 383.256 Q 182.341 384.168, 181.845 384.824 Q 181.349 385.48, 180.405 385.848 " fill="#000000"/>
<path d="M 190.741 392.616 L 190.741 393.928 L 182.581 393.928 L 182.581 392.616 L 190.741 392.616 " fill="#000000"/>
<path d="M 192.149 380.44 L 193.669 380.44 L 193.669 391.816 L 192.149 391.816 L 192.149 380.44 " fill="#000000"/>
<path d="M 199.269 383.448 Q 200.581 383.448, 201.269 384.2 Q 201.973 384.952, 201.973 386.376 L 201.973 391.816 L 200.469 391.816 L 200.469 386.488 Q 200.469 385.512, 200.085 385.08 Q 199.717 384.632, 198.885 384.632 Q 198.133 384.632, 197.509 384.984 Q 196.885 385.32, 196.485 385.928 L 196.485 391.816 L 194.981 391.816 L 194.981 383.592 L 196.213 383.592 L 196.389 384.744 Q 197.493 383.448, 199.269 383.448 " fill="#000000"/>
<path d="M 210.181 379.672 L 210.181 391.8 L 208.965 391.8 L 208.757 390.792 Q 207.845 391.944, 206.325 391.944 Q 204.613 391.944, 203.653 390.888 Q 202.709 389.816, 202.709 387.832 Q 202.709 385.768, 203.829 384.616 Q 204.965 383.448, 206.933 383.448 Q 207.781 383.448, 208.677 383.672 L 208.677 379.672 L 210.181 379.672 M 206.421 390.76 Q 207.253 390.76, 207.845 390.312 Q 208.453 389.848, 208.677 389.032 L 208.677 384.872 Q 207.861 384.632, 206.949 384.632 Q 205.685 384.632, 204.965 385.48 Q 204.245 386.312, 204.245 387.832 Q 204.245 389.24, 204.805 390.008 Q 205.381 390.76, 206.421 390.76 " fill="#000000"/>
<path d="M 210.917 387.688 Q 210.917 385.672, 211.925 384.568 Q 212.933 383.448, 214.773 383.448 Q 216.581 383.448, 217.381 384.536 Q 218.197 385.608, 218.197 387.64 L 218.197 387.896 L 212.453 387.896 Q 212.485 389.288, 213.109 390.024 Q 213.733 390.76, 214.901 390.76 Q 215.541 390.76, 216.133 390.616 Q 216.725 390.456, 217.445 390.136 L 217.877 391.16 Q 217.061 391.576, 216.325 391.768 Q 215.589 391.944, 214.821 391.944 Q 212.965 391.944, 211.941 390.824 Q 210.917 389.704, 210.917 387.688 M 214.773 384.632 Q 213.829 384.632, 213.253 385.176 Q 212.693 385.72, 212.517 386.776 L 216.613 386.776 Q 216.501 385.672, 216.053 385.16 Q 215.605 384.632, 214.773 384.632 " fill="#000000"/>
<path d="M 221.333 387.56 L 218.549 383.592 L 220.293 383.592 L 222.277 386.392 L 224.245 383.592 L 225.861 383.592 L 223.077 387.544 L 226.101 391.816 L 224.341 391.816 L 222.149 388.712 L 219.973 391.816 L 218.341 391.816 L 221.333 387.56 " fill="#000000"/>
<path d="M 234.261 392.616 L 234.261 393.928 L 226.101 393.928 L 226.101 392.616 L 234.261 392.616 " fill="#000000"/>
<path d="M 239.381 391.944 Q 237.301 391.944, 236.261 390.408 Q 235.237 388.872, 235.237 386.136 Q 235.237 383.4, 236.261 381.88 Q 237.285 380.36, 239.381 380.36 Q 241.477 380.36, 242.501 381.88 Q 243.525 383.4, 243.525 386.136 Q 243.525 388.872, 242.485 390.408 Q 241.461 391.944, 239.381 391.944 M 239.381 390.664 Q 240.613 390.664, 241.269 389.528 Q 241.925 388.376, 241.925 386.136 Q 241.925 383.912, 241.269 382.776 Q 240.613 381.64, 239.381 381.64 Q 238.165 381.64, 237.493 382.776 Q 236.837 383.912, 236.837 386.136 Q 236.837 388.376, 237.493 389.528 Q 238.165 390.664, 239.381 390.664 " fill="#000000"/>
<path d="M 706.984,156.459 L 672.174,198.095" style="fill:none;fill-rule:evenodd;stroke:#FF7F7F;stroke-width:11.6px;stroke-linecap:butt;stroke-linejoin:miter;stroke-opacity:1"/>
<path class="bond-1 atom-1 atom-0" d="M 706.051,161.806 L 728.576,165.736" style="fill:none;fill-rule:evenodd;stroke:#000000;stroke-width:2.0px;stroke-linecap:butt;stroke-linejoin:miter;stroke-opacity:1"/>
<path class="bond-1 atom-1 atom-0" d="M 728.576,165.736 L 751.102,169.666" style="fill:none;fill-rule:evenodd;stroke:#FF0000;stroke-width:2.0px;stroke-linecap:butt;stroke-linejoin:miter;stroke-opacity:1"/>
<path class="bond-1 atom-1 atom-0" d="M 707.917,151.113 L 730.442,155.043" style="fill:none;fill-rule:evenodd;stroke:#000000;stroke-width:2.0px;stroke-linecap:butt;stroke-linejoin:miter;stroke-opacity:1"/>
<path class="bond-1 atom-1 atom-0" d="M 730.442,155.043 L 752.968,158.974" style="fill:none;fill-rule:evenodd;stroke:#FF0000;stroke-width:2.0px;stroke-linecap:butt;stroke-linejoin:miter;stroke-opacity:1"/>
<path class="bond-0 atom-1 atom-10" d="M 706.984,156.459 L 688.331,105.495" style="fill:none;fill-rule:evenodd;stroke:#000000;stroke-width:2.0px;stroke-linecap:butt;stroke-linejoin:miter;stroke-opacity:1"/>
<path class="bond-3 atom-2 atom-1" d="M 679.359,189.501 L 693.172,172.98" style="fill:none;fill-rule:evenodd;stroke:#0000FF;stroke-width:2.0px;stroke-linecap:butt;stroke-linejoin:miter;stroke-opacity:1"/>
<path class="bond-3 atom-2 atom-1" d="M 693.172,172.98 L 706.984,156.459" style="fill:none;fill-rule:evenodd;stroke:#000000;stroke-width:2.0px;stroke-linecap:butt;stroke-linejoin:miter;stroke-opacity:1"/>
<path class="bond-2 atom-2 atom-4" d="M 664.989,196.841 L 641.85,192.804" style="fill:none;fill-rule:evenodd;stroke:#0000FF;stroke-width:2.0px;stroke-linecap:butt;stroke-linejoin:miter;stroke-opacity:1"/>
<path class="bond-2 atom-2 atom-4" d="M 641.85,192.804 L 618.711,188.767" style="fill:none;fill-rule:evenodd;stroke:#000000;stroke-width:2.0px;stroke-linecap:butt;stroke-linejoin:miter;stroke-opacity:1"/>
<path class="bond-4 atom-2 atom-3" d="M 675.483,207.137 L 683.155,228.098" style="fill:none;fill-rule:evenodd;stroke:#0000FF;stroke-width:2.0px;stroke-linecap:butt;stroke-linejoin:miter;stroke-opacity:1"/>
<path class="bond-4 atom-2 atom-3" d="M 683.155,228.098 L 690.826,249.059" style="fill:none;fill-rule:evenodd;stroke:#000000;stroke-width:2.0px;stroke-linecap:butt;stroke-linejoin:miter;stroke-opacity:1"/>
<path class="bond-5 atom-3 atom-11" d="M 690.826,249.059 L 734.421,233.104" style="fill:none;fill-rule:evenodd;stroke:#000000;stroke-width:2.0px;stroke-linecap:butt;stroke-linejoin:miter;stroke-opacity:1"/>
<path class="bond-6 atom-3 atom-12" d="M 690.826,249.059 L 647.232,265.015" style="fill:none;fill-rule:evenodd;stroke:#000000;stroke-width:2.0px;stroke-linecap:butt;stroke-linejoin:miter;stroke-opacity:1"/>
<path class="bond-7 atom-3 atom-13" d="M 690.826,249.059 L 706.17,290.982" style="fill:none;fill-rule:evenodd;stroke:#000000;stroke-width:2.0px;stroke-linecap:butt;stroke-linejoin:miter;stroke-opacity:1"/>
<path class="bond-14 atom-8 atom-4" d="M 600.059,137.802 L 618.711,188.767" style="fill:none;fill-rule:evenodd;stroke:#000000;stroke-width:2.0px;stroke-linecap:butt;stroke-linejoin:miter;stroke-opacity:1"/>
<path class="bond-14 atom-8 atom-4" d="M 592.664,149.177 L 605.721,184.852" style="fill:none;fill-rule:evenodd;stroke:#000000;stroke-width:2.0px;stroke-linecap:butt;stroke-linejoin:miter;stroke-opacity:1"/>
<path class="bond-16 atom-9 atom-4" d="M 583.901,230.402 L 618.711,188.767" style="fill:none;fill-rule:evenodd;stroke:#000000;stroke-width:2.0px;stroke-linecap:butt;stroke-linejoin:miter;stroke-opacity:1"/>
<path class="bond-8 atom-5 atom-6" d="M 511.786,170.11 L 546.596,128.474" style="fill:none;fill-rule:evenodd;stroke:#000000;stroke-width:2.0px;stroke-linecap:butt;stroke-linejoin:miter;stroke-opacity:1"/>
<path class="bond-8 atom-5 atom-6" d="M 525.335,170.826 L 549.702,141.681" style="fill:none;fill-rule:evenodd;stroke:#000000;stroke-width:2.0px;stroke-linecap:butt;stroke-linejoin:miter;stroke-opacity:1"/>
<path class="bond-9 atom-5 atom-7" d="M 511.786,170.11 L 530.439,221.074" style="fill:none;fill-rule:evenodd;stroke:#000000;stroke-width:2.0px;stroke-linecap:butt;stroke-linejoin:miter;stroke-opacity:1"/>
<path class="bond-21 atom-20 atom-5" d="M 465.509,162.035 L 488.647,166.072" style="fill:none;fill-rule:evenodd;stroke:#0000FF;stroke-width:2.0px;stroke-linecap:butt;stroke-linejoin:miter;stroke-opacity:1"/>
<path class="bond-21 atom-20 atom-5" d="M 488.647,166.072 L 511.786,170.11" style="fill:none;fill-rule:evenodd;stroke:#000000;stroke-width:2.0px;stroke-linecap:butt;stroke-linejoin:miter;stroke-opacity:1"/>
<path class="bond-10 atom-6 atom-8" d="M 546.596,128.474 L 600.059,137.802" style="fill:none;fill-rule:evenodd;stroke:#000000;stroke-width:2.0px;stroke-linecap:butt;stroke-linejoin:miter;stroke-opacity:1"/>
<path class="bond-11 atom-6 atom-14" d="M 546.596,128.474 L 531.253,86.5509" style="fill:none;fill-rule:evenodd;stroke:#000000;stroke-width:2.0px;stroke-linecap:butt;stroke-linejoin:miter;stroke-opacity:1"/>
<path class="bond-12 atom-7 atom-9" d="M 530.439,221.074 L 583.901,230.402" style="fill:none;fill-rule:evenodd;stroke:#000000;stroke-width:2.0px;stroke-linecap:butt;stroke-linejoin:miter;stroke-opacity:1"/>
<path class="bond-12 atom-7 atom-9" d="M 540.324,211.781 L 577.747,218.311" style="fill:none;fill-rule:evenodd;stroke:#000000;stroke-width:2.0px;stroke-linecap:butt;stroke-linejoin:miter;stroke-opacity:1"/>
<path class="bond-13 atom-7 atom-15" d="M 530.439,221.074 L 502.998,253.894" style="fill:none;fill-rule:evenodd;stroke:#000000;stroke-width:2.0px;stroke-linecap:butt;stroke-linejoin:miter;stroke-opacity:1"/>
<path class="bond-15 atom-8 atom-16" d="M 600.059,137.802 L 616.643,122.283" style="fill:none;fill-rule:evenodd;stroke:#000000;stroke-width:2.0px;stroke-linecap:butt;stroke-linejoin:miter;stroke-opacity:1"/>
<path class="bond-17 atom-9 atom-17" d="M 583.901,230.402 L 599.245,272.325" style="fill:none;fill-rule:evenodd;stroke:#000000;stroke-width:2.0px;stroke-linecap:butt;stroke-linejoin:miter;stroke-opacity:1"/>
<path class="bond-18 atom-10 atom-18" d="M 688.331,105.495 L 666.619,116.608" style="fill:none;fill-rule:evenodd;stroke:#000000;stroke-width:2.0px;stroke-linecap:butt;stroke-linejoin:miter;stroke-opacity:1"/>
<path class="bond-19 atom-10 atom-19" d="M 688.331,105.495 L 731.926,89.5398" style="fill:none;fill-rule:evenodd;stroke:#000000;stroke-width:2.0px;stroke-linecap:butt;stroke-linejoin:miter;stroke-opacity:1"/>
<path class="bond-20 atom-10 atom-22" d="M 688.331,105.495 L 672.988,63.5723" style="fill:none;fill-rule:evenodd;stroke:#000000;stroke-width:2.0px;stroke-linecap:butt;stroke-linejoin:miter;stroke-opacity:1"/>
<path class="bond-22 atom-20 atom-21" d="M 451.138,169.375 L 440.871,181.656" style="fill:none;fill-rule:evenodd;stroke:#0000FF;stroke-width:2.0px;stroke-linecap:butt;stroke-linejoin:miter;stroke-opacity:1"/>
<path class="bond-22 atom-20 atom-21" d="M 440.871,181.656 L 430.603,193.937" style="fill:none;fill-rule:evenodd;stroke:#000000;stroke-width:2.0px;stroke-linecap:butt;stroke-linejoin:miter;stroke-opacity:1"/>
<path class="bond-23 atom-20 atom-23" d="M 455.014,151.74 L 448.953,135.178" style="fill:none;fill-rule:evenodd;stroke:#0000FF;stroke-width:2.0px;stroke-linecap:butt;stroke-linejoin:miter;stroke-opacity:1"/>
<path class="bond-23 atom-20 atom-23" d="M 448.953,135.178 L 442.892,118.617" style="fill:none;fill-rule:evenodd;stroke:#000000;stroke-width:2.0px;stroke-linecap:butt;stroke-linejoin:miter;stroke-opacity:1"/>
<path class="atom-0" d="M 753.391 165.831 Q 753.391 162.141, 755.215 160.079 Q 757.038 158.016, 760.447 158.016 Q 763.855 158.016, 765.678 160.079 Q 767.502 162.141, 767.502 165.831 Q 767.502 169.565, 765.657 171.693 Q 763.811 173.798, 760.447 173.798 Q 757.06 173.798, 755.215 171.693 Q 753.391 169.587, 753.391 165.831 M 760.447 172.062 Q 762.791 172.062, 764.05 170.499 Q 765.331 168.914, 765.331 165.831 Q 765.331 162.814, 764.05 161.294 Q 762.791 159.753, 760.447 159.753 Q 758.102 159.753, 756.821 161.273 Q 755.562 162.792, 755.562 165.831 Q 755.562 168.936, 756.821 170.499 Q 758.102 172.062, 760.447 172.062 " fill="#FF0000"/>
<path class="atom-2" d="M 668.777 190.41 L 673.813 198.551 Q 674.312 199.354, 675.115 200.809 Q 675.919 202.263, 675.962 202.35 L 675.962 190.41 L 678.003 190.41 L 678.003 205.78 L 675.897 205.78 L 670.492 196.879 Q 669.862 195.837, 669.189 194.644 Q 668.538 193.45, 668.342 193.081 L 668.342 205.78 L 666.345 205.78 L 666.345 190.41 L 668.777 190.41 " fill="#0000FF"/>
<path class="atom-11" d="M 735.778 222.722 L 737.862 222.722 L 737.862 229.256 L 745.72 229.256 L 745.72 222.722 L 747.804 222.722 L 747.804 238.091 L 745.72 238.091 L 745.72 230.993 L 737.862 230.993 L 737.862 238.091 L 735.778 238.091 L 735.778 222.722 " fill="#000000"/>
<path class="atom-12" d="M 633.849 260.027 L 635.933 260.027 L 635.933 266.561 L 643.791 266.561 L 643.791 260.027 L 645.875 260.027 L 645.875 275.397 L 643.791 275.397 L 643.791 268.298 L 635.933 268.298 L 635.933 275.397 L 633.849 275.397 L 633.849 260.027 " fill="#000000"/>
<path class="atom-13" d="M 703.466 292.339 L 705.55 292.339 L 705.55 298.873 L 713.408 298.873 L 713.408 292.339 L 715.492 292.339 L 715.492 307.708 L 713.408 307.708 L 713.408 300.61 L 705.55 300.61 L 705.55 307.708 L 703.466 307.708 L 703.466 292.339 " fill="#000000"/>
<path class="atom-14" d="M 521.93 69.8248 L 524.014 69.8248 L 524.014 76.359 L 531.873 76.359 L 531.873 69.8248 L 533.957 69.8248 L 533.957 85.1942 L 531.873 85.1942 L 531.873 78.0956 L 524.014 78.0956 L 524.014 85.1942 L 521.93 85.1942 L 521.93 69.8248 " fill="#000000"/>
<path class="atom-15" d="M 489.615 255.025 L 491.699 255.025 L 491.699 261.559 L 499.558 261.559 L 499.558 255.025 L 501.642 255.025 L 501.642 270.394 L 499.558 270.394 L 499.558 263.296 L 491.699 263.296 L 491.699 270.394 L 489.615 270.394 L 489.615 255.025 " fill="#000000"/>
<path class="atom-16" d="M 617.444 108.221 L 619.528 108.221 L 619.528 114.755 L 627.386 114.755 L 627.386 108.221 L 629.47 108.221 L 629.47 123.59 L 627.386 123.59 L 627.386 116.492 L 619.528 116.492 L 619.528 123.59 L 617.444 123.59 L 617.444 108.221 " fill="#000000"/>
<path class="atom-17" d="M 596.541 273.682 L 598.625 273.682 L 598.625 280.216 L 606.483 280.216 L 606.483 273.682 L 608.567 273.682 L 608.567 289.051 L 606.483 289.051 L 606.483 281.953 L 598.625 281.953 L 598.625 289.051 L 596.541 289.051 L 596.541 273.682 " fill="#000000"/>
<path class="atom-18" d="M 653.791 112.411 L 655.875 112.411 L 655.875 118.945 L 663.734 118.945 L 663.734 112.411 L 665.818 112.411 L 665.818 127.78 L 663.734 127.78 L 663.734 120.682 L 655.875 120.682 L 655.875 127.78 L 653.791 127.78 L 653.791 112.411 " fill="#000000"/>
<path class="atom-19" d="M 733.283 79.1578 L 735.366 79.1578 L 735.366 85.692 L 743.225 85.692 L 743.225 79.1578 L 745.309 79.1578 L 745.309 94.5272 L 743.225 94.5272 L 743.225 87.4286 L 735.366 87.4286 L 735.366 94.5272 L 733.283 94.5272 L 733.283 79.1578 " fill="#000000"/>
<path class="atom-20" d="M 454.926 153.096 L 459.962 161.237 Q 460.462 162.04, 461.265 163.495 Q 462.068 164.949, 462.111 165.036 L 462.111 153.096 L 464.152 153.096 L 464.152 168.466 L 462.046 168.466 L 456.641 159.565 Q 456.011 158.523, 455.338 157.329 Q 454.687 156.135, 454.492 155.766 L 454.492 168.466 L 452.495 168.466 L 452.495 153.096 L 454.926 153.096 " fill="#0000FF"/>
<path class="atom-21" d="M 417.5 194.732 L 419.584 194.732 L 419.584 201.266 L 427.442 201.266 L 427.442 194.732 L 429.526 194.732 L 429.526 210.101 L 427.442 210.101 L 427.442 203.003 L 419.584 203.003 L 419.584 210.101 L 417.5 210.101 L 417.5 194.732 " fill="#000000"/>
<path class="atom-22" d="M 663.666 46.8461 L 665.75 46.8461 L 665.75 53.3803 L 673.608 53.3803 L 673.608 46.8461 L 675.692 46.8461 L 675.692 62.2155 L 673.608 62.2155 L 673.608 55.1169 L 665.75 55.1169 L 665.75 62.2155 L 663.666 62.2155 L 663.666 46.8461 " fill="#000000"/>
<path class="atom-23" d="M 433.658 102.132 L 435.742 102.132 L 435.742 108.666 L 443.6 108.666 L 443.6 102.132 L 445.684 102.132 L 445.684 117.501 L 443.6 117.501 L 443.6 110.403 L 435.742 110.403 L 435.742 117.501 L 433.658 117.501 L 433.658 102.132 " fill="#000000"/>
<path d="M 485.765 380.728 Q 486.181 379.656, 487.173 379.064 Q 488.165 378.456, 489.541 378.456 Q 491.253 378.456, 492.213 379.384 Q 493.173 380.312, 493.173 381.96 Q 493.173 383.64, 491.925 385.208 Q 490.693 386.776, 488.133 388.632 L 493.365 388.632 L 493.365 389.912 L 485.733 389.912 L 485.733 388.84 Q 487.845 387.336, 489.093 386.216 Q 490.357 385.096, 490.965 384.088 Q 491.573 383.08, 491.573 382.04 Q 491.573 380.952, 491.029 380.344 Q 490.485 379.736, 489.541 379.736 Q 488.629 379.736, 488.021 380.104 Q 487.413 380.472, 486.981 381.288 L 485.765 380.728 " fill="#000000"/>
<path d="M 498.213 382.824 Q 499.205 382.824, 500.021 383.256 Q 500.837 383.672, 501.301 384.472 Q 501.765 385.256, 501.765 386.328 Q 501.765 387.496, 501.189 388.344 Q 500.629 389.176, 499.701 389.608 Q 498.773 390.04, 497.717 390.04 Q 496.677 390.04, 495.717 389.656 Q 494.757 389.272, 494.101 388.536 L 495.061 387.544 Q 495.589 388.12, 496.309 388.44 Q 497.029 388.744, 497.765 388.744 Q 498.773 388.744, 499.461 388.12 Q 500.165 387.496, 500.165 386.36 Q 500.165 385.16, 499.461 384.6 Q 498.773 384.024, 497.669 384.024 Q 496.677 384.024, 495.573 384.456 L 494.693 384.04 L 495.237 378.584 L 501.061 378.584 L 500.901 379.864 L 496.549 379.864 L 496.213 383.224 Q 497.221 382.824, 498.213 382.824 " fill="#000000"/>
<path d="M 509.925 390.712 L 509.925 392.024 L 501.765 392.024 L 501.765 390.712 L 509.925 390.712 " fill="#000000"/>
<path d="M 516.037 383.944 Q 517.141 384.264, 517.669 384.984 Q 518.213 385.688, 518.213 386.808 Q 518.213 387.768, 517.733 388.52 Q 517.253 389.256, 516.373 389.672 Q 515.493 390.072, 514.341 390.072 Q 513.125 390.072, 512.213 389.656 Q 511.317 389.224, 510.597 388.36 L 511.509 387.432 Q 512.213 388.2, 512.805 388.504 Q 513.397 388.792, 514.341 388.792 Q 515.365 388.792, 515.989 388.248 Q 516.613 387.688, 516.613 386.792 Q 516.613 385.64, 515.957 385.128 Q 515.317 384.6, 513.925 384.6 L 513.109 384.6 L 513.109 383.448 L 513.829 383.448 Q 515.061 383.432, 515.717 382.904 Q 516.373 382.36, 516.373 381.352 Q 516.373 380.616, 515.829 380.184 Q 515.285 379.736, 514.357 379.736 Q 513.413 379.736, 512.821 380.072 Q 512.245 380.408, 511.797 381.256 L 510.693 380.664 Q 511.093 379.72, 512.053 379.096 Q 513.013 378.456, 514.357 378.456 Q 516.021 378.456, 516.997 379.24 Q 517.973 380.024, 517.973 381.352 Q 517.973 382.264, 517.477 382.92 Q 516.981 383.576, 516.037 383.944 " fill="#000000"/>
<path d="M 526.373 390.712 L 526.373 392.024 L 518.213 392.024 L 518.213 390.712 L 526.373 390.712 " fill="#000000"/>
<path d="M 527.781 378.536 L 529.301 378.536 L 529.301 389.912 L 527.781 389.912 L 527.781 378.536 " fill="#000000"/>
<path d="M 534.901 381.544 Q 536.213 381.544, 536.901 382.296 Q 537.605 383.048, 537.605 384.472 L 537.605 389.912 L 536.101 389.912 L 536.101 384.584 Q 536.101 383.608, 535.717 383.176 Q 535.349 382.728, 534.517 382.728 Q 533.765 382.728, 533.141 383.08 Q 532.517 383.416, 532.117 384.024 L 532.117 389.912 L 530.613 389.912 L 530.613 381.688 L 531.845 381.688 L 532.021 382.84 Q 533.125 381.544, 534.901 381.544 " fill="#000000"/>
<path d="M 545.813 377.768 L 545.813 389.896 L 544.597 389.896 L 544.389 388.888 Q 543.477 390.04, 541.957 390.04 Q 540.245 390.04, 539.285 388.984 Q 538.341 387.912, 538.341 385.928 Q 538.341 383.864, 539.461 382.712 Q 540.597 381.544, 542.565 381.544 Q 543.413 381.544, 544.309 381.768 L 544.309 377.768 L 545.813 377.768 M 542.053 388.856 Q 542.885 388.856, 543.477 388.408 Q 544.085 387.944, 544.309 387.128 L 544.309 382.968 Q 543.493 382.728, 542.581 382.728 Q 541.317 382.728, 540.597 383.576 Q 539.877 384.408, 539.877 385.928 Q 539.877 387.336, 540.437 388.104 Q 541.013 388.856, 542.053 388.856 " fill="#000000"/>
<path d="M 546.549 385.784 Q 546.549 383.768, 547.557 382.664 Q 548.565 381.544, 550.405 381.544 Q 552.213 381.544, 553.013 382.632 Q 553.829 383.704, 553.829 385.736 L 553.829 385.992 L 548.085 385.992 Q 548.117 387.384, 548.741 388.12 Q 549.365 388.856, 550.533 388.856 Q 551.173 388.856, 551.765 388.712 Q 552.357 388.552, 553.077 388.232 L 553.509 389.256 Q 552.693 389.672, 551.957 389.864 Q 551.221 390.04, 550.453 390.04 Q 548.597 390.04, 547.573 388.92 Q 546.549 387.8, 546.549 385.784 M 550.405 382.728 Q 549.461 382.728, 548.885 383.272 Q 548.325 383.816, 548.149 384.872 L 552.245 384.872 Q 552.133 383.768, 551.685 383.256 Q 551.237 382.728, 550.405 382.728 " fill="#000000"/>
<path d="M 556.965 385.656 L 554.181 381.688 L 555.925 381.688 L 557.909 384.488 L 559.877 381.688 L 561.493 381.688 L 558.709 385.64 L 561.733 389.912 L 559.973 389.912 L 557.781 386.808 L 555.605 389.912 L 553.973 389.912 L 556.965 385.656 " fill="#000000"/>
<path d="M 569.893 390.712 L 569.893 392.024 L 561.733 392.024 L 561.733 390.712 L 569.893 390.712 " fill="#000000"/>
<path d="M 575.013 390.04 Q 572.933 390.04, 571.893 388.504 Q 570.869 386.968, 570.869 384.232 Q 570.869 381.496, 571.893 379.976 Q 572.917 378.456, 575.013 378.456 Q 577.109 378.456, 578.133 379.976 Q 579.157 381.496, 579.157 384.232 Q 579.157 386.968, 578.117 388.504 Q 577.093 390.04, 575.013 390.04 M 575.013 388.76 Q 576.245 388.76, 576.901 387.624 Q 577.557 386.472, 577.557 384.232 Q 577.557 382.008, 576.901 380.872 Q 576.245 379.736, 575.013 379.736 Q 573.797 379.736, 573.125 380.872 Q 572.469 382.008, 572.469 384.232 Q 572.469 386.472, 573.125 387.624 Q 573.797 388.76, 575.013 388.76 " fill="#000000"/>
<path d="M 587.317 390.712 L 587.317 392.024 L 579.157 392.024 L 579.157 390.712 L 587.317 390.712 " fill="#000000"/>
<path d="M 597.221 384.36 L 597.221 389.144 Q 595.605 390.056, 593.221 390.056 Q 590.757 390.056, 589.429 388.552 Q 588.117 387.048, 588.117 384.232 Q 588.117 381.416, 589.429 379.944 Q 590.757 378.456, 593.269 378.456 Q 594.581 378.456, 595.541 378.872 Q 596.501 379.272, 597.173 380.104 L 596.133 380.968 Q 595.077 379.736, 593.269 379.736 Q 591.557 379.736, 590.645 380.888 Q 589.749 382.04, 589.749 384.232 Q 589.749 386.472, 590.677 387.624 Q 591.621 388.776, 593.445 388.776 Q 594.629 388.776, 595.685 388.392 L 595.685 384.36 L 597.221 384.36 " fill="#000000"/>
<path d="M 599.797 381.688 L 599.973 382.824 Q 600.837 381.544, 602.245 381.544 Q 602.693 381.544, 603.301 381.704 L 603.061 383.048 Q 602.373 382.888, 601.989 382.888 Q 601.317 382.888, 600.869 383.16 Q 600.437 383.416, 600.085 384.04 L 600.085 389.912 L 598.581 389.912 L 598.581 381.688 L 599.797 381.688 " fill="#000000"/>
<path d="M 604.037 385.784 Q 604.037 383.784, 605.045 382.664 Q 606.069 381.544, 607.941 381.544 Q 609.813 381.544, 610.821 382.664 Q 611.845 383.784, 611.845 385.784 Q 611.845 387.784, 610.821 388.92 Q 609.813 390.04, 607.941 390.04 Q 606.069 390.04, 605.045 388.92 Q 604.037 387.784, 604.037 385.784 M 605.573 385.784 Q 605.573 387.288, 606.181 388.072 Q 606.805 388.856, 607.941 388.856 Q 609.077 388.856, 609.685 388.072 Q 610.309 387.288, 610.309 385.784 Q 610.309 384.28, 609.685 383.512 Q 609.077 382.728, 607.941 382.728 Q 606.805 382.728, 606.181 383.512 Q 605.573 384.28, 605.573 385.784 " fill="#000000"/>
<path d="M 622.629 381.688 L 624.133 381.688 L 621.829 389.912 L 619.813 389.912 L 618.181 383.736 L 616.581 389.912 L 614.597 389.912 L 612.293 381.688 L 613.797 381.688 L 615.653 388.472 L 617.429 381.688 L 618.933 381.688 L 620.789 388.472 L 622.629 381.688 " fill="#000000"/>
<path d="M 625.493 378.584 L 632.229 378.584 L 632.229 379.88 L 627.013 379.88 L 627.013 383.32 L 631.653 383.32 L 631.653 384.632 L 627.013 384.632 L 627.013 389.912 L 625.493 389.912 L 625.493 378.584 " fill="#000000"/>
<path d="M 634.805 381.688 L 634.981 382.824 Q 635.845 381.544, 637.253 381.544 Q 637.701 381.544, 638.309 381.704 L 638.069 383.048 Q 637.381 382.888, 636.997 382.888 Q 636.325 382.888, 635.877 383.16 Q 635.445 383.416, 635.093 384.04 L 635.093 389.912 L 633.589 389.912 L 633.589 381.688 L 634.805 381.688 " fill="#000000"/>
<path d="M 639.013 387.688 Q 639.013 386.376, 640.069 385.656 Q 641.125 384.936, 643.061 384.936 L 644.277 384.936 L 644.277 384.616 Q 644.277 383.592, 643.845 383.16 Q 643.429 382.728, 642.405 382.728 Q 641.749 382.728, 641.237 382.856 Q 640.725 382.968, 639.925 383.32 L 639.477 382.28 Q 640.981 381.544, 642.437 381.544 Q 644.181 381.544, 644.981 382.296 Q 645.781 383.032, 645.781 384.648 L 645.781 389.912 L 644.613 389.912 Q 644.597 389.848, 644.549 389.608 Q 644.501 389.352, 644.405 388.952 Q 643.253 390.104, 641.717 390.104 Q 640.485 390.104, 639.749 389.448 Q 639.013 388.792, 639.013 387.688 M 640.517 387.656 Q 640.517 388.264, 640.901 388.6 Q 641.285 388.92, 642.005 388.92 Q 642.645 388.92, 643.253 388.632 Q 643.861 388.328, 644.277 387.816 L 644.277 386.056 L 643.157 386.056 Q 641.845 386.056, 641.173 386.456 Q 640.517 386.856, 640.517 387.656 " fill="#000000"/>
<path d="M 653.989 381.672 L 653.989 390.392 Q 653.989 393.928, 650.245 393.928 Q 648.437 393.928, 646.821 393.096 L 647.333 391.992 Q 648.197 392.424, 648.821 392.584 Q 649.445 392.744, 650.245 392.744 Q 651.445 392.744, 651.957 392.2 Q 652.485 391.672, 652.485 390.424 L 652.485 388.984 Q 651.621 390.04, 650.133 390.04 Q 648.421 390.04, 647.461 388.984 Q 646.517 387.912, 646.517 385.928 Q 646.517 383.864, 647.637 382.712 Q 648.773 381.544, 650.741 381.544 Q 651.781 381.544, 652.741 381.848 L 652.789 381.672 L 653.989 381.672 M 650.229 388.856 Q 651.061 388.856, 651.653 388.408 Q 652.261 387.944, 652.485 387.128 L 652.485 382.968 Q 651.669 382.728, 650.757 382.728 Q 649.493 382.728, 648.773 383.576 Q 648.053 384.408, 648.053 385.928 Q 648.053 387.336, 648.613 388.104 Q 649.189 388.856, 650.229 388.856 " fill="#000000"/>
<path d="M 664.805 381.544 Q 666.197 381.544, 666.901 382.296 Q 667.605 383.032, 667.605 384.472 L 667.605 389.912 L 666.101 389.912 L 666.101 384.584 Q 666.101 383.608, 665.717 383.176 Q 665.349 382.728, 664.517 382.728 Q 663.797 382.728, 663.173 383.08 Q 662.565 383.416, 662.197 384.024 Q 662.213 384.168, 662.213 384.472 L 662.213 389.912 L 660.709 389.912 L 660.709 384.584 Q 660.709 383.608, 660.325 383.176 Q 659.957 382.728, 659.125 382.728 Q 658.405 382.728, 657.797 383.08 Q 657.189 383.416, 656.805 384.008 L 656.805 389.912 L 655.301 389.912 L 655.301 381.688 L 656.533 381.688 L 656.693 382.808 Q 657.765 381.544, 659.413 381.544 Q 661.349 381.544, 661.957 382.984 Q 663.045 381.544, 664.805 381.544 " fill="#000000"/>
<path d="M 668.341 385.784 Q 668.341 383.768, 669.349 382.664 Q 670.357 381.544, 672.197 381.544 Q 674.005 381.544, 674.805 382.632 Q 675.621 383.704, 675.621 385.736 L 675.621 385.992 L 669.877 385.992 Q 669.909 387.384, 670.533 388.12 Q 671.157 388.856, 672.325 388.856 Q 672.965 388.856, 673.557 388.712 Q 674.149 388.552, 674.869 388.232 L 675.301 389.256 Q 674.485 389.672, 673.749 389.864 Q 673.013 390.04, 672.245 390.04 Q 670.389 390.04, 669.365 388.92 Q 668.341 387.8, 668.341 385.784 M 672.197 382.728 Q 671.253 382.728, 670.677 383.272 Q 670.117 383.816, 669.941 384.872 L 674.037 384.872 Q 673.925 383.768, 673.477 383.256 Q 673.029 382.728, 672.197 382.728 " fill="#000000"/>
<path d="M 681.221 381.544 Q 682.533 381.544, 683.221 382.296 Q 683.925 383.048, 683.925 384.472 L 683.925 389.912 L 682.421 389.912 L 682.421 384.584 Q 682.421 383.608, 682.037 383.176 Q 681.669 382.728, 680.837 382.728 Q 680.085 382.728, 679.461 383.08 Q 678.837 383.416, 678.437 384.024 L 678.437 389.912 L 676.933 389.912 L 676.933 381.688 L 678.165 381.688 L 678.341 382.84 Q 679.445 381.544, 681.221 381.544 " fill="#000000"/>
<path d="M 684.389 382.84 L 684.389 381.688 L 685.957 381.688 L 686.213 379.288 L 687.333 379.288 L 687.333 381.688 L 689.845 381.688 L 689.845 382.84 L 687.333 382.84 L 687.333 387.384 Q 687.333 388.808, 688.533 388.808 Q 689.013 388.808, 689.717 388.584 L 689.973 389.64 Q 689.093 390.008, 688.261 390.008 Q 687.189 390.008, 686.501 389.368 Q 685.829 388.728, 685.829 387.464 L 685.829 382.84 L 684.389 382.84 " fill="#000000"/>
<path d="M 698.133 390.712 L 698.133 392.024 L 689.973 392.024 L 689.973 390.712 L 698.133 390.712 " fill="#000000"/>
<path d="M 703.253 390.04 Q 701.173 390.04, 700.133 388.504 Q 699.109 386.968, 699.109 384.232 Q 699.109 381.496, 700.133 379.976 Q 701.157 378.456, 703.253 378.456 Q 705.349 378.456, 706.373 379.976 Q 707.397 381.496, 707.397 384.232 Q 707.397 386.968, 706.357 388.504 Q 705.333 390.04, 703.253 390.04 M 703.253 388.76 Q 704.485 388.76, 705.141 387.624 Q 705.797 386.472, 705.797 384.232 Q 705.797 382.008, 705.141 380.872 Q 704.485 379.736, 703.253 379.736 Q 702.037 379.736, 701.365 380.872 Q 700.709 382.008, 700.709 384.232 Q 700.709 386.472, 701.365 387.624 Q 702.037 388.76, 703.253 388.76 " fill="#000000"/>
<text x="286.89269630952253" y="200.02220901431332" font-size="12" font-family="Verdana" font-weight="bold" letter-spacing="0" text-anchor="start" fill="black" transform=" rotate(43.832425 286.892696 200.022209)">0.0621</text><text x="700.8597839288208" y="200.00000000000006" font-size="12" font-family="Verdana" font-weight="bold" letter-spacing="0" text-anchor="start" fill="black" transform=" rotate(39.897715 700.859784 200.000000)">0.0544</text></svg>
