<?xml version='1.0' encoding='ASCII' standalone='yes'?>
<svg xmlns="http://www.w3.org/2000/svg" xmlns:rdkit="http://www.rdkit.org/xml" xmlns:xlink="http://www.w3.org/1999/xlink" version="1.1" baseProfile="full" xml:space="preserve" width="1200px" height="400px" viewBox="0 0 1200 400">
<!-- END OF HEADER -->
<rect style="opacity:1.0;fill:#FFFFFF;stroke:none" width="1200.0" height="400.0" x="0.0" y="0.0"> </rect>
<path class="bond-1 atom-1 atom-2" d="M 230.7,213.4 L 279.4,195.7" style="fill:none;fill-rule:evenodd;stroke:#FF7F7F;stroke-width:11.1px;stroke-linecap:butt;stroke-linejoin:miter;stroke-opacity:1"/>
<path class="bond-0 atom-1 atom-0" d="M 223.4,207.3 L 207.2,193.7" style="fill:none;fill-rule:evenodd;stroke:#0000FF;stroke-width:2.0px;stroke-linecap:butt;stroke-linejoin:miter;stroke-opacity:1"/>
<path class="bond-0 atom-1 atom-0" d="M 207.2,193.7 L 190.9,180.0" style="fill:none;fill-rule:evenodd;stroke:#000000;stroke-width:2.0px;stroke-linecap:butt;stroke-linejoin:miter;stroke-opacity:1"/>
<path class="bond-1 atom-1 atom-2" d="M 237.9,210.8 L 258.7,203.2" style="fill:none;fill-rule:evenodd;stroke:#0000FF;stroke-width:2.0px;stroke-linecap:butt;stroke-linejoin:miter;stroke-opacity:1"/>
<path class="bond-1 atom-1 atom-2" d="M 258.7,203.2 L 279.4,195.7" style="fill:none;fill-rule:evenodd;stroke:#000000;stroke-width:2.0px;stroke-linecap:butt;stroke-linejoin:miter;stroke-opacity:1"/>
<path class="bond-2 atom-1 atom-4" d="M 229.1,222.4 L 225.3,243.4" style="fill:none;fill-rule:evenodd;stroke:#0000FF;stroke-width:2.0px;stroke-linecap:butt;stroke-linejoin:miter;stroke-opacity:1"/>
<path class="bond-2 atom-1 atom-4" d="M 225.3,243.4 L 221.6,264.5" style="fill:none;fill-rule:evenodd;stroke:#000000;stroke-width:2.0px;stroke-linecap:butt;stroke-linejoin:miter;stroke-opacity:1"/>
<path class="bond-3 atom-2 atom-3" d="M 279.4,195.7 L 288.5,144.6" style="fill:none;fill-rule:evenodd;stroke:#000000;stroke-width:2.0px;stroke-linecap:butt;stroke-linejoin:miter;stroke-opacity:1"/>
<path class="bond-4 atom-2 atom-5" d="M 282.8,191.7 L 298.4,204.9" style="fill:none;fill-rule:evenodd;stroke:#000000;stroke-width:2.0px;stroke-linecap:butt;stroke-linejoin:miter;stroke-opacity:1"/>
<path class="bond-4 atom-2 atom-5" d="M 298.4,204.9 L 314.1,218.0" style="fill:none;fill-rule:evenodd;stroke:#FF0000;stroke-width:2.0px;stroke-linecap:butt;stroke-linejoin:miter;stroke-opacity:1"/>
<path class="bond-4 atom-2 atom-5" d="M 276.1,199.7 L 291.8,212.8" style="fill:none;fill-rule:evenodd;stroke:#000000;stroke-width:2.0px;stroke-linecap:butt;stroke-linejoin:miter;stroke-opacity:1"/>
<path class="bond-4 atom-2 atom-5" d="M 291.8,212.8 L 307.4,226.0" style="fill:none;fill-rule:evenodd;stroke:#FF0000;stroke-width:2.0px;stroke-linecap:butt;stroke-linejoin:miter;stroke-opacity:1"/>
<path class="bond-5 atom-3 atom-15" d="M 288.5,144.6 L 332.2,152.3" style="fill:none;fill-rule:evenodd;stroke:#000000;stroke-width:2.0px;stroke-linecap:butt;stroke-linejoin:miter;stroke-opacity:1"/>
<path class="bond-6 atom-3 atom-16" d="M 288.5,144.6 L 263.4,136.9" style="fill:none;fill-rule:evenodd;stroke:#000000;stroke-width:2.0px;stroke-linecap:butt;stroke-linejoin:miter;stroke-opacity:1"/>
<path class="bond-7 atom-4 atom-11" d="M 221.6,264.5 L 265.3,272.2" style="fill:none;fill-rule:evenodd;stroke:#000000;stroke-width:2.0px;stroke-linecap:butt;stroke-linejoin:miter;stroke-opacity:1"/>
<path class="bond-8 atom-4 atom-12" d="M 221.6,264.5 L 177.9,256.7" style="fill:none;fill-rule:evenodd;stroke:#000000;stroke-width:2.0px;stroke-linecap:butt;stroke-linejoin:miter;stroke-opacity:1"/>
<path class="bond-9 atom-4 atom-13" d="M 221.6,264.5 L 214.2,306.6" style="fill:none;fill-rule:evenodd;stroke:#000000;stroke-width:2.0px;stroke-linecap:butt;stroke-linejoin:miter;stroke-opacity:1"/>
<path class="bond-10 atom-6 atom-0" d="M 200.0,128.9 L 190.9,180.0" style="fill:none;fill-rule:evenodd;stroke:#000000;stroke-width:2.0px;stroke-linecap:butt;stroke-linejoin:miter;stroke-opacity:1"/>
<path class="bond-10 atom-6 atom-0" d="M 188.4,134.8 L 182.1,170.5" style="fill:none;fill-rule:evenodd;stroke:#000000;stroke-width:2.0px;stroke-linecap:butt;stroke-linejoin:miter;stroke-opacity:1"/>
<path class="bond-11 atom-6 atom-17" d="M 200.0,128.9 L 222.9,117.2" style="fill:none;fill-rule:evenodd;stroke:#000000;stroke-width:2.0px;stroke-linecap:butt;stroke-linejoin:miter;stroke-opacity:1"/>
<path class="bond-12 atom-7 atom-8" d="M 111.5,113.2 L 160.3,95.5" style="fill:none;fill-rule:evenodd;stroke:#000000;stroke-width:2.0px;stroke-linecap:butt;stroke-linejoin:miter;stroke-opacity:1"/>
<path class="bond-12 atom-7 atom-8" d="M 122.4,120.3 L 156.5,107.9" style="fill:none;fill-rule:evenodd;stroke:#000000;stroke-width:2.0px;stroke-linecap:butt;stroke-linejoin:miter;stroke-opacity:1"/>
<path class="bond-13 atom-7 atom-9" d="M 111.5,113.2 L 102.4,164.3" style="fill:none;fill-rule:evenodd;stroke:#000000;stroke-width:2.0px;stroke-linecap:butt;stroke-linejoin:miter;stroke-opacity:1"/>
<path class="bond-14 atom-7 atom-21" d="M 111.5,113.2 L 79.2,86.1" style="fill:none;fill-rule:evenodd;stroke:#000000;stroke-width:2.0px;stroke-linecap:butt;stroke-linejoin:miter;stroke-opacity:1"/>
<path class="bond-15 atom-8 atom-6" d="M 160.3,95.5 L 200.0,128.9" style="fill:none;fill-rule:evenodd;stroke:#000000;stroke-width:2.0px;stroke-linecap:butt;stroke-linejoin:miter;stroke-opacity:1"/>
<path class="bond-16 atom-8 atom-18" d="M 160.3,95.5 L 167.7,53.4" style="fill:none;fill-rule:evenodd;stroke:#000000;stroke-width:2.0px;stroke-linecap:butt;stroke-linejoin:miter;stroke-opacity:1"/>
<path class="bond-17 atom-9 atom-10" d="M 102.4,164.3 L 142.2,197.7" style="fill:none;fill-rule:evenodd;stroke:#000000;stroke-width:2.0px;stroke-linecap:butt;stroke-linejoin:miter;stroke-opacity:1"/>
<path class="bond-17 atom-9 atom-10" d="M 115.1,161.4 L 142.9,184.8" style="fill:none;fill-rule:evenodd;stroke:#000000;stroke-width:2.0px;stroke-linecap:butt;stroke-linejoin:miter;stroke-opacity:1"/>
<path class="bond-18 atom-9 atom-19" d="M 102.4,164.3 L 61.1,179.3" style="fill:none;fill-rule:evenodd;stroke:#000000;stroke-width:2.0px;stroke-linecap:butt;stroke-linejoin:miter;stroke-opacity:1"/>
<path class="bond-19 atom-10 atom-0" d="M 142.2,197.7 L 190.9,180.0" style="fill:none;fill-rule:evenodd;stroke:#000000;stroke-width:2.0px;stroke-linecap:butt;stroke-linejoin:miter;stroke-opacity:1"/>
<path class="bond-20 atom-10 atom-20" d="M 142.2,197.7 L 134.7,239.8" style="fill:none;fill-rule:evenodd;stroke:#000000;stroke-width:2.0px;stroke-linecap:butt;stroke-linejoin:miter;stroke-opacity:1"/>
<path class="bond-21 atom-14 atom-3" d="M 296.0,102.5 L 292.2,123.5" style="fill:none;fill-rule:evenodd;stroke:#0000FF;stroke-width:2.0px;stroke-linecap:butt;stroke-linejoin:miter;stroke-opacity:1"/>
<path class="bond-21 atom-14 atom-3" d="M 292.2,123.5 L 288.5,144.6" style="fill:none;fill-rule:evenodd;stroke:#000000;stroke-width:2.0px;stroke-linecap:butt;stroke-linejoin:miter;stroke-opacity:1"/>
<path class="bond-22 atom-14 atom-22" d="M 304.8,90.9 L 321.9,84.7" style="fill:none;fill-rule:evenodd;stroke:#0000FF;stroke-width:2.0px;stroke-linecap:butt;stroke-linejoin:miter;stroke-opacity:1"/>
<path class="bond-22 atom-14 atom-22" d="M 321.9,84.7 L 338.9,78.5" style="fill:none;fill-rule:evenodd;stroke:#000000;stroke-width:2.0px;stroke-linecap:butt;stroke-linejoin:miter;stroke-opacity:1"/>
<path class="bond-23 atom-14 atom-23" d="M 290.3,87.4 L 277.8,76.9" style="fill:none;fill-rule:evenodd;stroke:#0000FF;stroke-width:2.0px;stroke-linecap:butt;stroke-linejoin:miter;stroke-opacity:1"/>
<path class="bond-23 atom-14 atom-23" d="M 277.8,76.9 L 265.2,66.3" style="fill:none;fill-rule:evenodd;stroke:#000000;stroke-width:2.0px;stroke-linecap:butt;stroke-linejoin:miter;stroke-opacity:1"/>
<path class="atom-1" d="M 227.4 206.0 L 232.2 213.8 Q 232.7 214.6, 233.5 216.0 Q 234.2 217.4, 234.3 217.5 L 234.3 206.0 L 236.2 206.0 L 236.2 220.7 L 234.2 220.7 L 229.1 212.2 Q 228.5 211.2, 227.8 210.1 Q 227.2 208.9, 227.0 208.6 L 227.0 220.7 L 225.1 220.7 L 225.1 206.0 L 227.4 206.0 " fill="#0000FF"/>
<path class="atom-5" d="M 312.4 229.1 Q 312.4 225.6, 314.2 223.6 Q 315.9 221.6, 319.2 221.6 Q 322.4 221.6, 324.2 223.6 Q 325.9 225.6, 325.9 229.1 Q 325.9 232.7, 324.2 234.7 Q 322.4 236.7, 319.2 236.7 Q 315.9 236.7, 314.2 234.7 Q 312.4 232.7, 312.4 229.1 M 319.2 235.1 Q 321.4 235.1, 322.6 233.6 Q 323.8 232.1, 323.8 229.1 Q 323.8 226.2, 322.6 224.8 Q 321.4 223.3, 319.2 223.3 Q 316.9 223.3, 315.7 224.8 Q 314.5 226.2, 314.5 229.1 Q 314.5 232.1, 315.7 233.6 Q 316.9 235.1, 319.2 235.1 " fill="#FF0000"/>
<path class="atom-11" d="M 267.0 266.2 L 269.0 266.2 L 269.0 272.4 L 276.5 272.4 L 276.5 266.2 L 278.5 266.2 L 278.5 280.9 L 276.5 280.9 L 276.5 274.1 L 269.0 274.1 L 269.0 280.9 L 267.0 280.9 L 267.0 266.2 " fill="#000000"/>
<path class="atom-12" d="M 164.8 248.1 L 166.8 248.1 L 166.8 254.3 L 174.3 254.3 L 174.3 248.1 L 176.3 248.1 L 176.3 262.8 L 174.3 262.8 L 174.3 256.0 L 166.8 256.0 L 166.8 262.8 L 164.8 262.8 L 164.8 248.1 " fill="#000000"/>
<path class="atom-13" d="M 206.8 308.2 L 208.8 308.2 L 208.8 314.5 L 216.3 314.5 L 216.3 308.2 L 218.3 308.2 L 218.3 322.9 L 216.3 322.9 L 216.3 316.1 L 208.8 316.1 L 208.8 322.9 L 206.8 322.9 L 206.8 308.2 " fill="#000000"/>
<path class="atom-14" d="M 294.3 86.1 L 299.1 93.9 Q 299.6 94.7, 300.4 96.1 Q 301.1 97.5, 301.2 97.6 L 301.2 86.1 L 303.1 86.1 L 303.1 100.8 L 301.1 100.8 L 295.9 92.3 Q 295.3 91.3, 294.7 90.2 Q 294.1 89.0, 293.9 88.7 L 293.9 100.8 L 292.0 100.8 L 292.0 86.1 L 294.3 86.1 " fill="#0000FF"/>
<path class="atom-15" d="M 333.8 146.3 L 335.8 146.3 L 335.8 152.5 L 343.4 152.5 L 343.4 146.3 L 345.3 146.3 L 345.3 161.0 L 343.4 161.0 L 343.4 154.2 L 335.8 154.2 L 335.8 161.0 L 333.8 161.0 L 333.8 146.3 " fill="#000000"/>
<path class="atom-16" d="M 250.2 127.3 L 252.2 127.3 L 252.2 133.5 L 259.7 133.5 L 259.7 127.3 L 261.7 127.3 L 261.7 142.0 L 259.7 142.0 L 259.7 135.2 L 252.2 135.2 L 252.2 142.0 L 250.2 142.0 L 250.2 127.3 " fill="#000000"/>
<path class="atom-17" d="M 224.6 106.1 L 226.6 106.1 L 226.6 112.4 L 234.1 112.4 L 234.1 106.1 L 236.1 106.1 L 236.1 120.8 L 234.1 120.8 L 234.1 114.0 L 226.6 114.0 L 226.6 120.8 L 224.6 120.8 L 224.6 106.1 " fill="#000000"/>
<path class="atom-18" d="M 163.6 37.1 L 165.6 37.1 L 165.6 43.3 L 173.1 43.3 L 173.1 37.1 L 175.1 37.1 L 175.1 51.8 L 173.1 51.8 L 173.1 45.0 L 165.6 45.0 L 165.6 51.8 L 163.6 51.8 L 163.6 37.1 " fill="#000000"/>
<path class="atom-19" d="M 47.9 174.7 L 49.9 174.7 L 49.9 180.9 L 57.4 180.9 L 57.4 174.7 L 59.4 174.7 L 59.4 189.4 L 57.4 189.4 L 57.4 182.6 L 49.9 182.6 L 49.9 189.4 L 47.9 189.4 L 47.9 174.7 " fill="#000000"/>
<path class="atom-20" d="M 127.4 241.5 L 129.4 241.5 L 129.4 247.7 L 136.9 247.7 L 136.9 241.5 L 138.9 241.5 L 138.9 256.2 L 136.9 256.2 L 136.9 249.4 L 129.4 249.4 L 129.4 256.2 L 127.4 256.2 L 127.4 241.5 " fill="#000000"/>
<path class="atom-21" d="M 66.0 72.5 L 68.0 72.5 L 68.0 78.7 L 75.5 78.7 L 75.5 72.5 L 77.5 72.5 L 77.5 87.2 L 75.5 87.2 L 75.5 80.4 L 68.0 80.4 L 68.0 87.2 L 66.0 87.2 L 66.0 72.5 " fill="#000000"/>
<path class="atom-22" d="M 340.6 68.4 L 342.6 68.4 L 342.6 74.7 L 350.1 74.7 L 350.1 68.4 L 352.1 68.4 L 352.1 83.1 L 350.1 83.1 L 350.1 76.3 L 342.6 76.3 L 342.6 83.1 L 340.6 83.1 L 340.6 68.4 " fill="#000000"/>
<path class="atom-23" d="M 252.1 52.8 L 254.1 52.8 L 254.1 59.0 L 261.6 59.0 L 261.6 52.8 L 263.6 52.8 L 263.6 67.4 L 261.6 67.4 L 261.6 60.7 L 254.1 60.7 L 254.1 67.4 L 252.1 67.4 L 252.1 52.8 " fill="#000000"/>
<path class="legend" d="M 158.4 381.9 Q 159.5 382.2, 160.0 383.0 Q 160.6 383.7, 160.6 384.8 Q 160.6 385.7, 160.1 386.5 Q 159.6 387.2, 158.8 387.6 Q 157.9 388.0, 156.7 388.0 Q 155.5 388.0, 154.6 387.6 Q 153.7 387.2, 153.0 386.3 L 153.9 385.4 Q 154.6 386.2, 155.2 386.5 Q 155.8 386.8, 156.7 386.8 Q 157.7 386.8, 158.4 386.2 Q 159.0 385.7, 159.0 384.8 Q 159.0 383.6, 158.3 383.1 Q 157.7 382.6, 156.3 382.6 L 155.5 382.6 L 155.5 381.4 L 156.2 381.4 Q 157.4 381.4, 158.1 380.9 Q 158.8 380.3, 158.8 379.3 Q 158.8 378.6, 158.2 378.2 Q 157.7 377.7, 156.7 377.7 Q 155.8 377.7, 155.2 378.0 Q 154.6 378.4, 154.2 379.2 L 153.1 378.6 Q 153.5 377.7, 154.4 377.1 Q 155.4 376.4, 156.7 376.4 Q 158.4 376.4, 159.4 377.2 Q 160.4 378.0, 160.4 379.3 Q 160.4 380.2, 159.9 380.9 Q 159.4 381.6, 158.4 381.9 " fill="#000000"/>
<path class="legend" d="M 169.7 388.7 L 169.7 390.0 L 161.5 390.0 L 161.5 388.7 L 169.7 388.7 " fill="#000000"/>
<path class="legend" d="M 169.7 378.7 Q 170.1 377.6, 171.1 377.0 Q 172.1 376.4, 173.5 376.4 Q 175.2 376.4, 176.2 377.4 Q 177.1 378.3, 177.1 379.9 Q 177.1 381.6, 175.9 383.2 Q 174.7 384.8, 172.1 386.6 L 177.3 386.6 L 177.3 387.9 L 169.7 387.9 L 169.7 386.8 Q 171.8 385.3, 173.1 384.2 Q 174.3 383.1, 174.9 382.1 Q 175.5 381.1, 175.5 380.0 Q 175.5 378.9, 175.0 378.3 Q 174.4 377.7, 173.5 377.7 Q 172.6 377.7, 172.0 378.1 Q 171.4 378.4, 170.9 379.3 L 169.7 378.7 " fill="#000000"/>
<path class="legend" d="M 182.4 380.8 Q 183.4 380.8, 184.2 381.2 Q 185.0 381.6, 185.5 382.4 Q 186.0 383.2, 186.0 384.3 Q 186.0 385.5, 185.4 386.3 Q 184.8 387.2, 183.9 387.6 Q 183.0 388.0, 181.9 388.0 Q 180.9 388.0, 179.9 387.6 Q 178.9 387.2, 178.3 386.5 L 179.2 385.5 Q 179.8 386.1, 180.5 386.4 Q 181.2 386.7, 182.0 386.7 Q 183.0 386.7, 183.6 386.1 Q 184.4 385.5, 184.4 384.3 Q 184.4 383.1, 183.6 382.6 Q 183.0 382.0, 181.9 382.0 Q 180.9 382.0, 179.8 382.4 L 178.9 382.0 L 179.4 376.6 L 185.2 376.6 L 185.1 377.8 L 180.7 377.8 L 180.4 381.2 Q 181.4 380.8, 182.4 380.8 " fill="#000000"/>
<path class="legend" d="M 194.9 388.7 L 194.9 390.0 L 186.7 390.0 L 186.7 388.7 L 194.9 388.7 " fill="#000000"/>
<path class="legend" d="M 194.9 376.5 L 196.4 376.5 L 196.4 387.9 L 194.9 387.9 L 194.9 376.5 " fill="#000000"/>
<path class="legend" d="M 202.1 379.5 Q 203.4 379.5, 204.1 380.3 Q 204.8 381.0, 204.8 382.4 L 204.8 387.9 L 203.3 387.9 L 203.3 382.6 Q 203.3 381.6, 202.9 381.2 Q 202.5 380.7, 201.7 380.7 Q 201.0 380.7, 200.3 381.1 Q 199.7 381.4, 199.3 382.0 L 199.3 387.9 L 197.8 387.9 L 197.8 379.7 L 199.0 379.7 L 199.2 380.8 Q 200.3 379.5, 202.1 379.5 " fill="#000000"/>
<path class="legend" d="M 213.5 375.7 L 213.5 387.9 L 212.3 387.9 L 212.1 386.9 Q 211.2 388.0, 209.6 388.0 Q 207.9 388.0, 207.0 387.0 Q 206.0 385.9, 206.0 383.9 Q 206.0 381.8, 207.2 380.7 Q 208.3 379.5, 210.3 379.5 Q 211.1 379.5, 212.0 379.7 L 212.0 375.7 L 213.5 375.7 M 209.7 386.8 Q 210.6 386.8, 211.2 386.4 Q 211.8 385.9, 212.0 385.1 L 212.0 380.9 Q 211.2 380.7, 210.3 380.7 Q 209.0 380.7, 208.3 381.6 Q 207.6 382.4, 207.6 383.9 Q 207.6 385.3, 208.1 386.1 Q 208.7 386.8, 209.7 386.8 " fill="#000000"/>
<path class="legend" d="M 214.8 383.8 Q 214.8 381.7, 215.8 380.6 Q 216.8 379.5, 218.6 379.5 Q 220.4 379.5, 221.2 380.6 Q 222.1 381.7, 222.1 383.7 L 222.1 384.0 L 216.3 384.0 Q 216.4 385.4, 217.0 386.1 Q 217.6 386.8, 218.8 386.8 Q 219.4 386.8, 220.0 386.7 Q 220.6 386.5, 221.3 386.2 L 221.7 387.2 Q 220.9 387.6, 220.2 387.8 Q 219.5 388.0, 218.7 388.0 Q 216.8 388.0, 215.8 386.9 Q 214.8 385.8, 214.8 383.8 M 218.6 380.7 Q 217.7 380.7, 217.1 381.2 Q 216.6 381.8, 216.4 382.8 L 220.5 382.8 Q 220.4 381.7, 219.9 381.2 Q 219.5 380.7, 218.6 380.7 " fill="#000000"/>
<path class="legend" d="M 225.7 383.6 L 222.9 379.7 L 224.6 379.7 L 226.6 382.5 L 228.6 379.7 L 230.2 379.7 L 227.4 383.6 L 230.4 387.9 L 228.7 387.9 L 226.5 384.8 L 224.3 387.9 L 222.7 387.9 L 225.7 383.6 " fill="#000000"/>
<path class="legend" d="M 238.7 388.7 L 238.7 390.0 L 230.6 390.0 L 230.6 388.7 L 238.7 388.7 " fill="#000000"/>
<path class="legend" d="M 242.9 388.0 Q 240.8 388.0, 239.8 386.5 Q 238.7 384.9, 238.7 382.2 Q 238.7 379.5, 239.8 378.0 Q 240.8 376.4, 242.9 376.4 Q 245.0 376.4, 246.0 378.0 Q 247.0 379.5, 247.0 382.2 Q 247.0 384.9, 246.0 386.5 Q 245.0 388.0, 242.9 388.0 M 242.9 386.7 Q 244.1 386.7, 244.8 385.6 Q 245.4 384.4, 245.4 382.2 Q 245.4 380.0, 244.8 378.8 Q 244.1 377.7, 242.9 377.7 Q 241.7 377.7, 241.0 378.8 Q 240.3 380.0, 240.3 382.2 Q 240.3 384.4, 241.0 385.6 Q 241.7 386.7, 242.9 386.7 " fill="#000000"/>
<path class="bond-1 atom-1 atom-2" d="M 653.2,230.4 L 696.3,201.6" style="fill:none;fill-rule:evenodd;stroke:#FF7F7F;stroke-width:11.1px;stroke-linecap:butt;stroke-linejoin:miter;stroke-opacity:1"/>
<path class="bond-0 atom-1 atom-0" d="M 645.9,226.8 L 626.3,217.1" style="fill:none;fill-rule:evenodd;stroke:#0000FF;stroke-width:2.0px;stroke-linecap:butt;stroke-linejoin:miter;stroke-opacity:1"/>
<path class="bond-0 atom-1 atom-0" d="M 626.3,217.1 L 606.6,207.3" style="fill:none;fill-rule:evenodd;stroke:#000000;stroke-width:2.0px;stroke-linecap:butt;stroke-linejoin:miter;stroke-opacity:1"/>
<path class="bond-1 atom-1 atom-2" d="M 660.4,225.5 L 678.4,213.6" style="fill:none;fill-rule:evenodd;stroke:#0000FF;stroke-width:2.0px;stroke-linecap:butt;stroke-linejoin:miter;stroke-opacity:1"/>
<path class="bond-1 atom-1 atom-2" d="M 678.4,213.6 L 696.3,201.6" style="fill:none;fill-rule:evenodd;stroke:#000000;stroke-width:2.0px;stroke-linecap:butt;stroke-linejoin:miter;stroke-opacity:1"/>
<path class="bond-2 atom-1 atom-4" d="M 653.7,239.4 L 655.1,260.8" style="fill:none;fill-rule:evenodd;stroke:#0000FF;stroke-width:2.0px;stroke-linecap:butt;stroke-linejoin:miter;stroke-opacity:1"/>
<path class="bond-2 atom-1 atom-4" d="M 655.1,260.8 L 656.5,282.1" style="fill:none;fill-rule:evenodd;stroke:#000000;stroke-width:2.0px;stroke-linecap:butt;stroke-linejoin:miter;stroke-opacity:1"/>
<path class="bond-3 atom-2 atom-3" d="M 696.3,201.6 L 693.0,149.8" style="fill:none;fill-rule:evenodd;stroke:#000000;stroke-width:2.0px;stroke-linecap:butt;stroke-linejoin:miter;stroke-opacity:1"/>
<path class="bond-4 atom-2 atom-5" d="M 698.6,196.9 L 717.7,206.4" style="fill:none;fill-rule:evenodd;stroke:#000000;stroke-width:2.0px;stroke-linecap:butt;stroke-linejoin:miter;stroke-opacity:1"/>
<path class="bond-4 atom-2 atom-5" d="M 717.7,206.4 L 736.7,215.8" style="fill:none;fill-rule:evenodd;stroke:#FF0000;stroke-width:2.0px;stroke-linecap:butt;stroke-linejoin:miter;stroke-opacity:1"/>
<path class="bond-4 atom-2 atom-5" d="M 694.0,206.2 L 713.1,215.7" style="fill:none;fill-rule:evenodd;stroke:#000000;stroke-width:2.0px;stroke-linecap:butt;stroke-linejoin:miter;stroke-opacity:1"/>
<path class="bond-4 atom-2 atom-5" d="M 713.1,215.7 L 732.1,225.1" style="fill:none;fill-rule:evenodd;stroke:#FF0000;stroke-width:2.0px;stroke-linecap:butt;stroke-linejoin:miter;stroke-opacity:1"/>
<path class="bond-5 atom-3 atom-15" d="M 693.0,149.8 L 666.5,148.3" style="fill:none;fill-rule:evenodd;stroke:#000000;stroke-width:2.0px;stroke-linecap:butt;stroke-linejoin:miter;stroke-opacity:1"/>
<path class="bond-6 atom-3 atom-16" d="M 693.0,149.8 L 737.4,147.0" style="fill:none;fill-rule:evenodd;stroke:#000000;stroke-width:2.0px;stroke-linecap:butt;stroke-linejoin:miter;stroke-opacity:1"/>
<path class="bond-7 atom-4 atom-11" d="M 656.5,282.1 L 700.8,279.3" style="fill:none;fill-rule:evenodd;stroke:#000000;stroke-width:2.0px;stroke-linecap:butt;stroke-linejoin:miter;stroke-opacity:1"/>
<path class="bond-8 atom-4 atom-12" d="M 656.5,282.1 L 612.1,285.0" style="fill:none;fill-rule:evenodd;stroke:#000000;stroke-width:2.0px;stroke-linecap:butt;stroke-linejoin:miter;stroke-opacity:1"/>
<path class="bond-9 atom-4 atom-13" d="M 656.5,282.1 L 659.2,324.9" style="fill:none;fill-rule:evenodd;stroke:#000000;stroke-width:2.0px;stroke-linecap:butt;stroke-linejoin:miter;stroke-opacity:1"/>
<path class="bond-10 atom-6 atom-0" d="M 603.3,155.6 L 606.6,207.3" style="fill:none;fill-rule:evenodd;stroke:#000000;stroke-width:2.0px;stroke-linecap:butt;stroke-linejoin:miter;stroke-opacity:1"/>
<path class="bond-10 atom-6 atom-0" d="M 593.5,164.0 L 595.8,200.2" style="fill:none;fill-rule:evenodd;stroke:#000000;stroke-width:2.0px;stroke-linecap:butt;stroke-linejoin:miter;stroke-opacity:1"/>
<path class="bond-11 atom-6 atom-17" d="M 603.3,155.6 L 621.7,139.8" style="fill:none;fill-rule:evenodd;stroke:#000000;stroke-width:2.0px;stroke-linecap:butt;stroke-linejoin:miter;stroke-opacity:1"/>
<path class="bond-12 atom-7 atom-8" d="M 513.6,161.3 L 556.8,132.5" style="fill:none;fill-rule:evenodd;stroke:#000000;stroke-width:2.0px;stroke-linecap:butt;stroke-linejoin:miter;stroke-opacity:1"/>
<path class="bond-12 atom-7 atom-8" d="M 525.9,165.6 L 556.1,145.5" style="fill:none;fill-rule:evenodd;stroke:#000000;stroke-width:2.0px;stroke-linecap:butt;stroke-linejoin:miter;stroke-opacity:1"/>
<path class="bond-13 atom-7 atom-9" d="M 513.6,161.3 L 516.9,213.1" style="fill:none;fill-rule:evenodd;stroke:#000000;stroke-width:2.0px;stroke-linecap:butt;stroke-linejoin:miter;stroke-opacity:1"/>
<path class="bond-14 atom-8 atom-6" d="M 556.8,132.5 L 603.3,155.6" style="fill:none;fill-rule:evenodd;stroke:#000000;stroke-width:2.0px;stroke-linecap:butt;stroke-linejoin:miter;stroke-opacity:1"/>
<path class="bond-15 atom-8 atom-18" d="M 556.8,132.5 L 554.1,89.8" style="fill:none;fill-rule:evenodd;stroke:#000000;stroke-width:2.0px;stroke-linecap:butt;stroke-linejoin:miter;stroke-opacity:1"/>
<path class="bond-16 atom-9 atom-10" d="M 516.9,213.1 L 563.5,236.1" style="fill:none;fill-rule:evenodd;stroke:#000000;stroke-width:2.0px;stroke-linecap:butt;stroke-linejoin:miter;stroke-opacity:1"/>
<path class="bond-16 atom-9 atom-10" d="M 528.5,207.3 L 561.1,223.4" style="fill:none;fill-rule:evenodd;stroke:#000000;stroke-width:2.0px;stroke-linecap:butt;stroke-linejoin:miter;stroke-opacity:1"/>
<path class="bond-17 atom-9 atom-19" d="M 516.9,213.1 L 481.2,236.9" style="fill:none;fill-rule:evenodd;stroke:#000000;stroke-width:2.0px;stroke-linecap:butt;stroke-linejoin:miter;stroke-opacity:1"/>
<path class="bond-18 atom-10 atom-0" d="M 563.5,236.1 L 606.6,207.3" style="fill:none;fill-rule:evenodd;stroke:#000000;stroke-width:2.0px;stroke-linecap:butt;stroke-linejoin:miter;stroke-opacity:1"/>
<path class="bond-19 atom-10 atom-20" d="M 563.5,236.1 L 566.2,278.9" style="fill:none;fill-rule:evenodd;stroke:#000000;stroke-width:2.0px;stroke-linecap:butt;stroke-linejoin:miter;stroke-opacity:1"/>
<path class="bond-20 atom-14 atom-3" d="M 690.3,107.0 L 691.6,128.4" style="fill:none;fill-rule:evenodd;stroke:#0000FF;stroke-width:2.0px;stroke-linecap:butt;stroke-linejoin:miter;stroke-opacity:1"/>
<path class="bond-20 atom-14 atom-3" d="M 691.6,128.4 L 693.0,149.8" style="fill:none;fill-rule:evenodd;stroke:#000000;stroke-width:2.0px;stroke-linecap:butt;stroke-linejoin:miter;stroke-opacity:1"/>
<path class="bond-21 atom-14 atom-22" d="M 696.9,93.2 L 714.9,81.2" style="fill:none;fill-rule:evenodd;stroke:#0000FF;stroke-width:2.0px;stroke-linecap:butt;stroke-linejoin:miter;stroke-opacity:1"/>
<path class="bond-21 atom-14 atom-22" d="M 714.9,81.2 L 732.9,69.3" style="fill:none;fill-rule:evenodd;stroke:#000000;stroke-width:2.0px;stroke-linecap:butt;stroke-linejoin:miter;stroke-opacity:1"/>
<path class="bond-22 atom-14 atom-26" d="M 682.5,94.4 L 666.5,86.6" style="fill:none;fill-rule:evenodd;stroke:#0000FF;stroke-width:2.0px;stroke-linecap:butt;stroke-linejoin:miter;stroke-opacity:1"/>
<path class="bond-22 atom-14 atom-26" d="M 666.5,86.6 L 650.6,78.7" style="fill:none;fill-rule:evenodd;stroke:#000000;stroke-width:2.0px;stroke-linecap:butt;stroke-linejoin:miter;stroke-opacity:1"/>
<path class="bond-23 atom-21 atom-7" d="M 474.4,141.9 L 494.0,151.6" style="fill:none;fill-rule:evenodd;stroke:#0000FF;stroke-width:2.0px;stroke-linecap:butt;stroke-linejoin:miter;stroke-opacity:1"/>
<path class="bond-23 atom-21 atom-7" d="M 494.0,151.6 L 513.6,161.3" style="fill:none;fill-rule:evenodd;stroke:#000000;stroke-width:2.0px;stroke-linecap:butt;stroke-linejoin:miter;stroke-opacity:1"/>
<path class="bond-24 atom-21 atom-23" d="M 459.9,143.1 L 445.6,152.6" style="fill:none;fill-rule:evenodd;stroke:#0000FF;stroke-width:2.0px;stroke-linecap:butt;stroke-linejoin:miter;stroke-opacity:1"/>
<path class="bond-24 atom-21 atom-23" d="M 445.6,152.6 L 431.4,162.1" style="fill:none;fill-rule:evenodd;stroke:#000000;stroke-width:2.0px;stroke-linecap:butt;stroke-linejoin:miter;stroke-opacity:1"/>
<path class="bond-25 atom-21 atom-27" d="M 466.5,129.3 L 465.5,112.4" style="fill:none;fill-rule:evenodd;stroke:#0000FF;stroke-width:2.0px;stroke-linecap:butt;stroke-linejoin:miter;stroke-opacity:1"/>
<path class="bond-25 atom-21 atom-27" d="M 465.5,112.4 L 464.4,95.5" style="fill:none;fill-rule:evenodd;stroke:#000000;stroke-width:2.0px;stroke-linecap:butt;stroke-linejoin:miter;stroke-opacity:1"/>
<path class="bond-26 atom-22 atom-24" d="M 732.9,69.3 L 710.1,35.1" style="fill:none;fill-rule:evenodd;stroke:#000000;stroke-width:2.0px;stroke-linecap:butt;stroke-linejoin:miter;stroke-opacity:1"/>
<path class="bond-27 atom-22 atom-25" d="M 732.9,69.3 L 755.6,103.4" style="fill:none;fill-rule:evenodd;stroke:#000000;stroke-width:2.0px;stroke-linecap:butt;stroke-linejoin:miter;stroke-opacity:1"/>
<path class="bond-28 atom-22 atom-28" d="M 732.9,69.3 L 768.6,45.4" style="fill:none;fill-rule:evenodd;stroke:#000000;stroke-width:2.0px;stroke-linecap:butt;stroke-linejoin:miter;stroke-opacity:1"/>
<path class="atom-1" d="M 649.9 223.0 L 654.7 230.8 Q 655.2 231.6, 656.0 233.0 Q 656.7 234.3, 656.8 234.4 L 656.8 223.0 L 658.7 223.0 L 658.7 237.7 L 656.7 237.7 L 651.5 229.2 Q 650.9 228.2, 650.3 227.1 Q 649.7 225.9, 649.5 225.6 L 649.5 237.7 L 647.6 237.7 L 647.6 223.0 L 649.9 223.0 " fill="#0000FF"/>
<path class="atom-5" d="M 736.1 224.7 Q 736.1 221.1, 737.8 219.1 Q 739.6 217.2, 742.8 217.2 Q 746.1 217.2, 747.9 219.1 Q 749.6 221.1, 749.6 224.7 Q 749.6 228.2, 747.8 230.3 Q 746.1 232.3, 742.8 232.3 Q 739.6 232.3, 737.8 230.3 Q 736.1 228.2, 736.1 224.7 M 742.8 230.6 Q 745.1 230.6, 746.3 229.1 Q 747.5 227.6, 747.5 224.7 Q 747.5 221.8, 746.3 220.3 Q 745.1 218.8, 742.8 218.8 Q 740.6 218.8, 739.4 220.3 Q 738.2 221.7, 738.2 224.7 Q 738.2 227.6, 739.4 229.1 Q 740.6 230.6, 742.8 230.6 " fill="#FF0000"/>
<path class="atom-11" d="M 702.5 271.5 L 704.5 271.5 L 704.5 277.7 L 712.0 277.7 L 712.0 271.5 L 714.0 271.5 L 714.0 286.2 L 712.0 286.2 L 712.0 279.4 L 704.5 279.4 L 704.5 286.2 L 702.5 286.2 L 702.5 271.5 " fill="#000000"/>
<path class="atom-12" d="M 598.9 278.1 L 600.9 278.1 L 600.9 284.4 L 608.4 284.4 L 608.4 278.1 L 610.4 278.1 L 610.4 292.8 L 608.4 292.8 L 608.4 286.0 L 600.9 286.0 L 600.9 292.8 L 598.9 292.8 L 598.9 278.1 " fill="#000000"/>
<path class="atom-13" d="M 654.0 326.6 L 656.0 326.6 L 656.0 332.8 L 663.6 332.8 L 663.6 326.6 L 665.5 326.6 L 665.5 341.3 L 663.6 341.3 L 663.6 334.5 L 656.0 334.5 L 656.0 341.3 L 654.0 341.3 L 654.0 326.6 " fill="#000000"/>
<path class="atom-14" d="M 686.4 90.7 L 691.3 98.5 Q 691.7 99.2, 692.5 100.6 Q 693.3 102.0, 693.3 102.1 L 693.3 90.7 L 695.3 90.7 L 695.3 105.4 L 693.3 105.4 L 688.1 96.9 Q 687.5 95.9, 686.8 94.7 Q 686.2 93.6, 686.0 93.2 L 686.0 105.4 L 684.1 105.4 L 684.1 90.7 L 686.4 90.7 " fill="#0000FF"/>
<path class="atom-15" d="M 653.3 140.5 L 655.3 140.5 L 655.3 146.7 L 662.8 146.7 L 662.8 140.5 L 664.8 140.5 L 664.8 155.2 L 662.8 155.2 L 662.8 148.4 L 655.3 148.4 L 655.3 155.2 L 653.3 155.2 L 653.3 140.5 " fill="#000000"/>
<path class="atom-16" d="M 739.1 139.1 L 741.0 139.1 L 741.0 145.4 L 748.6 145.4 L 748.6 139.1 L 750.6 139.1 L 750.6 153.8 L 748.6 153.8 L 748.6 147.0 L 741.0 147.0 L 741.0 153.8 L 739.1 153.8 L 739.1 139.1 " fill="#000000"/>
<path class="atom-17" d="M 623.4 126.0 L 625.4 126.0 L 625.4 132.3 L 632.9 132.3 L 632.9 126.0 L 634.9 126.0 L 634.9 140.7 L 632.9 140.7 L 632.9 133.9 L 625.4 133.9 L 625.4 140.7 L 623.4 140.7 L 623.4 126.0 " fill="#000000"/>
<path class="atom-18" d="M 547.7 73.4 L 549.7 73.4 L 549.7 79.7 L 557.2 79.7 L 557.2 73.4 L 559.2 73.4 L 559.2 88.1 L 557.2 88.1 L 557.2 81.3 L 549.7 81.3 L 549.7 88.1 L 547.7 88.1 L 547.7 73.4 " fill="#000000"/>
<path class="atom-19" d="M 468.0 234.5 L 470.0 234.5 L 470.0 240.8 L 477.5 240.8 L 477.5 234.5 L 479.5 234.5 L 479.5 249.2 L 477.5 249.2 L 477.5 242.4 L 470.0 242.4 L 470.0 249.2 L 468.0 249.2 L 468.0 234.5 " fill="#000000"/>
<path class="atom-20" d="M 561.0 280.6 L 563.0 280.6 L 563.0 286.8 L 570.5 286.8 L 570.5 280.6 L 572.5 280.6 L 572.5 295.3 L 570.5 295.3 L 570.5 288.5 L 563.0 288.5 L 563.0 295.3 L 561.0 295.3 L 561.0 280.6 " fill="#000000"/>
<path class="atom-21" d="M 463.9 131.0 L 468.7 138.7 Q 469.2 139.5, 469.9 140.9 Q 470.7 142.3, 470.7 142.4 L 470.7 131.0 L 472.7 131.0 L 472.7 145.6 L 470.7 145.6 L 465.5 137.1 Q 464.9 136.1, 464.3 135.0 Q 463.6 133.9, 463.5 133.5 L 463.5 145.6 L 461.5 145.6 L 461.5 131.0 L 463.9 131.0 " fill="#0000FF"/>
<path class="atom-23" d="M 418.2 159.7 L 420.2 159.7 L 420.2 166.0 L 427.7 166.0 L 427.7 159.7 L 429.7 159.7 L 429.7 174.4 L 427.7 174.4 L 427.7 167.6 L 420.2 167.6 L 420.2 174.4 L 418.2 174.4 L 418.2 159.7 " fill="#000000"/>
<path class="atom-24" d="M 698.4 18.7 L 700.4 18.7 L 700.4 25.0 L 707.9 25.0 L 707.9 18.7 L 709.9 18.7 L 709.9 33.4 L 707.9 33.4 L 707.9 26.6 L 700.4 26.6 L 700.4 33.4 L 698.4 33.4 L 698.4 18.7 " fill="#000000"/>
<path class="atom-25" d="M 755.9 105.1 L 757.9 105.1 L 757.9 111.3 L 765.4 111.3 L 765.4 105.1 L 767.4 105.1 L 767.4 119.8 L 765.4 119.8 L 765.4 113.0 L 757.9 113.0 L 757.9 119.8 L 755.9 119.8 L 755.9 105.1 " fill="#000000"/>
<path class="atom-26" d="M 637.4 67.7 L 639.4 67.7 L 639.4 73.9 L 646.9 73.9 L 646.9 67.7 L 648.9 67.7 L 648.9 82.4 L 646.9 82.4 L 646.9 75.6 L 639.4 75.6 L 639.4 82.4 L 637.4 82.4 L 637.4 67.7 " fill="#000000"/>
<path class="atom-27" d="M 458.0 79.2 L 460.0 79.2 L 460.0 85.4 L 467.6 85.4 L 467.6 79.2 L 469.5 79.2 L 469.5 93.9 L 467.6 93.9 L 467.6 87.1 L 460.0 87.1 L 460.0 93.9 L 458.0 93.9 L 458.0 79.2 " fill="#000000"/>
<path class="atom-28" d="M 770.3 33.1 L 772.3 33.1 L 772.3 39.4 L 779.8 39.4 L 779.8 33.1 L 781.8 33.1 L 781.8 47.8 L 779.8 47.8 L 779.8 41.0 L 772.3 41.0 L 772.3 47.8 L 770.3 47.8 L 770.3 33.1 " fill="#000000"/>
<path class="legend" d="M 495.6 380.0 Q 496.7 380.3, 497.3 381.1 Q 497.8 381.8, 497.8 382.9 Q 497.8 383.8, 497.3 384.6 Q 496.9 385.3, 496.0 385.7 Q 495.1 386.1, 493.9 386.1 Q 492.7 386.1, 491.8 385.7 Q 490.9 385.3, 490.2 384.4 L 491.1 383.5 Q 491.8 384.3, 492.4 384.6 Q 493.0 384.9, 493.9 384.9 Q 495.0 384.9, 495.6 384.3 Q 496.2 383.8, 496.2 382.9 Q 496.2 381.7, 495.6 381.2 Q 494.9 380.7, 493.5 380.7 L 492.7 380.7 L 492.7 379.5 L 493.4 379.5 Q 494.7 379.5, 495.3 379.0 Q 496.0 378.4, 496.0 377.4 Q 496.0 376.7, 495.4 376.3 Q 494.9 375.8, 494.0 375.8 Q 493.0 375.8, 492.4 376.1 Q 491.8 376.5, 491.4 377.3 L 490.3 376.7 Q 490.7 375.8, 491.7 375.2 Q 492.6 374.5, 494.0 374.5 Q 495.6 374.5, 496.6 375.3 Q 497.6 376.1, 497.6 377.4 Q 497.6 378.3, 497.1 379.0 Q 496.6 379.6, 495.6 380.0 " fill="#000000"/>
<path class="legend" d="M 506.9 386.8 L 506.9 388.1 L 498.8 388.1 L 498.8 386.8 L 506.9 386.8 " fill="#000000"/>
<path class="legend" d="M 507.0 376.8 Q 507.4 375.7, 508.4 375.1 Q 509.4 374.5, 510.7 374.5 Q 512.4 374.5, 513.4 375.5 Q 514.4 376.4, 514.4 378.0 Q 514.4 379.7, 513.1 381.3 Q 511.9 382.8, 509.3 384.7 L 514.6 384.7 L 514.6 386.0 L 506.9 386.0 L 506.9 384.9 Q 509.0 383.4, 510.3 382.3 Q 511.5 381.2, 512.2 380.2 Q 512.8 379.2, 512.8 378.1 Q 512.8 377.0, 512.2 376.4 Q 511.7 375.8, 510.7 375.8 Q 509.8 375.8, 509.2 376.2 Q 508.6 376.5, 508.2 377.4 L 507.0 376.8 " fill="#000000"/>
<path class="legend" d="M 519.6 378.9 Q 520.6 378.9, 521.4 379.3 Q 522.2 379.7, 522.7 380.5 Q 523.2 381.3, 523.2 382.4 Q 523.2 383.6, 522.6 384.4 Q 522.0 385.2, 521.1 385.7 Q 520.2 386.1, 519.1 386.1 Q 518.1 386.1, 517.1 385.7 Q 516.2 385.3, 515.5 384.6 L 516.5 383.6 Q 517.0 384.2, 517.7 384.5 Q 518.4 384.8, 519.2 384.8 Q 520.2 384.8, 520.9 384.2 Q 521.6 383.6, 521.6 382.4 Q 521.6 381.2, 520.9 380.7 Q 520.2 380.1, 519.1 380.1 Q 518.1 380.1, 517.0 380.5 L 516.1 380.1 L 516.6 374.7 L 522.5 374.7 L 522.3 375.9 L 518.0 375.9 L 517.6 379.3 Q 518.6 378.9, 519.6 378.9 " fill="#000000"/>
<path class="legend" d="M 532.1 386.8 L 532.1 388.1 L 523.9 388.1 L 523.9 386.8 L 532.1 386.8 " fill="#000000"/>
<path class="legend" d="M 532.1 374.6 L 533.6 374.6 L 533.6 386.0 L 532.1 386.0 L 532.1 374.6 " fill="#000000"/>
<path class="legend" d="M 539.3 377.6 Q 540.6 377.6, 541.3 378.4 Q 542.0 379.1, 542.0 380.5 L 542.0 386.0 L 540.5 386.0 L 540.5 380.7 Q 540.5 379.7, 540.1 379.2 Q 539.8 378.8, 538.9 378.8 Q 538.2 378.8, 537.6 379.2 Q 536.9 379.5, 536.5 380.1 L 536.5 386.0 L 535.0 386.0 L 535.0 377.8 L 536.3 377.8 L 536.4 378.9 Q 537.5 377.6, 539.3 377.6 " fill="#000000"/>
<path class="legend" d="M 550.7 373.8 L 550.7 386.0 L 549.5 386.0 L 549.3 385.0 Q 548.4 386.1, 546.9 386.1 Q 545.2 386.1, 544.2 385.1 Q 543.3 384.0, 543.3 382.0 Q 543.3 379.9, 544.4 378.8 Q 545.5 377.6, 547.5 377.6 Q 548.3 377.6, 549.2 377.8 L 549.2 373.8 L 550.7 373.8 M 547.0 384.9 Q 547.8 384.9, 548.4 384.5 Q 549.0 384.0, 549.2 383.2 L 549.2 379.0 Q 548.4 378.8, 547.5 378.8 Q 546.2 378.8, 545.5 379.6 Q 544.8 380.5, 544.8 382.0 Q 544.8 383.4, 545.4 384.2 Q 545.9 384.9, 547.0 384.9 " fill="#000000"/>
<path class="legend" d="M 552.0 381.9 Q 552.0 379.8, 553.0 378.7 Q 554.0 377.6, 555.9 377.6 Q 557.7 377.6, 558.5 378.7 Q 559.3 379.8, 559.3 381.8 L 559.3 382.1 L 553.5 382.1 Q 553.6 383.5, 554.2 384.2 Q 554.8 384.9, 556.0 384.9 Q 556.6 384.9, 557.2 384.8 Q 557.8 384.6, 558.5 384.3 L 559.0 385.3 Q 558.2 385.7, 557.4 385.9 Q 556.7 386.1, 555.9 386.1 Q 554.1 386.1, 553.0 385.0 Q 552.0 383.9, 552.0 381.9 M 555.9 378.8 Q 554.9 378.8, 554.3 379.3 Q 553.8 379.9, 553.6 380.9 L 557.7 380.9 Q 557.6 379.8, 557.1 379.3 Q 556.7 378.8, 555.9 378.8 " fill="#000000"/>
<path class="legend" d="M 562.9 381.7 L 560.1 377.8 L 561.8 377.8 L 563.8 380.6 L 565.8 377.8 L 567.4 377.8 L 564.6 381.7 L 567.7 386.0 L 565.9 386.0 L 563.7 382.9 L 561.5 386.0 L 559.9 386.0 L 562.9 381.7 " fill="#000000"/>
<path class="legend" d="M 576.0 386.8 L 576.0 388.1 L 567.8 388.1 L 567.8 386.8 L 576.0 386.8 " fill="#000000"/>
<path class="legend" d="M 580.1 386.1 Q 578.0 386.1, 577.0 384.6 Q 576.0 383.0, 576.0 380.3 Q 576.0 377.6, 577.0 376.0 Q 578.0 374.5, 580.1 374.5 Q 582.2 374.5, 583.2 376.0 Q 584.2 377.6, 584.2 380.3 Q 584.2 383.0, 583.2 384.6 Q 582.2 386.1, 580.1 386.1 M 580.1 384.8 Q 581.3 384.8, 582.0 383.7 Q 582.6 382.5, 582.6 380.3 Q 582.6 378.1, 582.0 376.9 Q 581.3 375.8, 580.1 375.8 Q 578.9 375.8, 578.2 376.9 Q 577.6 378.1, 577.6 380.3 Q 577.6 382.5, 578.2 383.7 Q 578.9 384.8, 580.1 384.8 " fill="#000000"/>
<path class="legend" d="M 593.4 386.8 L 593.4 388.1 L 585.3 388.1 L 585.3 386.8 L 593.4 386.8 " fill="#000000"/>
<path class="legend" d="M 602.6 380.4 L 602.6 385.2 Q 600.9 386.1, 598.6 386.1 Q 596.1 386.1, 594.8 384.6 Q 593.4 383.1, 593.4 380.3 Q 593.4 377.5, 594.8 376.0 Q 596.1 374.5, 598.6 374.5 Q 599.9 374.5, 600.9 374.9 Q 601.8 375.3, 602.5 376.2 L 601.5 377.0 Q 600.4 375.8, 598.6 375.8 Q 596.9 375.8, 596.0 377.0 Q 595.1 378.1, 595.1 380.3 Q 595.1 382.5, 596.0 383.7 Q 597.0 384.8, 598.8 384.8 Q 600.0 384.8, 601.0 384.5 L 601.0 380.4 L 602.6 380.4 " fill="#000000"/>
<path class="legend" d="M 605.0 377.8 L 605.1 378.9 Q 606.0 377.6, 607.4 377.6 Q 607.9 377.6, 608.5 377.8 L 608.2 379.1 Q 607.5 379.0, 607.2 379.0 Q 606.5 379.0, 606.0 379.2 Q 605.6 379.5, 605.3 380.1 L 605.3 386.0 L 603.8 386.0 L 603.8 377.8 L 605.0 377.8 " fill="#000000"/>
<path class="legend" d="M 608.7 381.9 Q 608.7 379.9, 609.7 378.7 Q 610.7 377.6, 612.6 377.6 Q 614.5 377.6, 615.5 378.7 Q 616.5 379.9, 616.5 381.9 Q 616.5 383.9, 615.5 385.0 Q 614.5 386.1, 612.6 386.1 Q 610.7 386.1, 609.7 385.0 Q 608.7 383.9, 608.7 381.9 M 610.2 381.9 Q 610.2 383.4, 610.9 384.1 Q 611.5 384.9, 612.6 384.9 Q 613.8 384.9, 614.4 384.1 Q 615.0 383.4, 615.0 381.9 Q 615.0 380.4, 614.4 379.6 Q 613.8 378.8, 612.6 378.8 Q 611.5 378.8, 610.9 379.6 Q 610.2 380.4, 610.2 381.9 " fill="#000000"/>
<path class="legend" d="M 627.6 377.8 L 629.1 377.8 L 626.8 386.0 L 624.8 386.0 L 623.1 379.8 L 621.5 386.0 L 619.6 386.0 L 617.3 377.8 L 618.8 377.8 L 620.6 384.5 L 622.4 377.8 L 623.9 377.8 L 625.8 384.5 L 627.6 377.8 " fill="#000000"/>
<path class="legend" d="M 629.5 374.7 L 636.3 374.7 L 636.3 376.0 L 631.1 376.0 L 631.1 379.4 L 635.7 379.4 L 635.7 380.7 L 631.1 380.7 L 631.1 386.0 L 629.5 386.0 L 629.5 374.7 " fill="#000000"/>
<path class="legend" d="M 637.8 377.8 L 638.0 378.9 Q 638.9 377.6, 640.3 377.6 Q 640.7 377.6, 641.4 377.8 L 641.1 379.1 Q 640.4 379.0, 640.0 379.0 Q 639.4 379.0, 638.9 379.2 Q 638.5 379.5, 638.1 380.1 L 638.1 386.0 L 636.6 386.0 L 636.6 377.8 L 637.8 377.8 " fill="#000000"/>
<path class="legend" d="M 641.6 383.8 Q 641.6 382.4, 642.6 381.7 Q 643.7 381.0, 645.6 381.0 L 646.9 381.0 L 646.9 380.7 Q 646.9 379.7, 646.4 379.2 Q 646.0 378.8, 645.0 378.8 Q 644.3 378.8, 643.8 378.9 Q 643.3 379.0, 642.5 379.4 L 642.1 378.4 Q 643.6 377.6, 645.0 377.6 Q 646.8 377.6, 647.6 378.4 Q 648.4 379.1, 648.4 380.7 L 648.4 386.0 L 647.2 386.0 Q 647.2 385.9, 647.1 385.7 Q 647.1 385.4, 647.0 385.0 Q 645.8 386.2, 644.3 386.2 Q 643.1 386.2, 642.3 385.5 Q 641.6 384.9, 641.6 383.8 M 643.1 383.7 Q 643.1 384.3, 643.5 384.7 Q 643.9 385.0, 644.6 385.0 Q 645.2 385.0, 645.8 384.7 Q 646.4 384.4, 646.9 383.9 L 646.9 382.1 L 645.7 382.1 Q 644.4 382.1, 643.8 382.5 Q 643.1 382.9, 643.1 383.7 " fill="#000000"/>
<path class="legend" d="M 657.1 377.7 L 657.1 386.5 Q 657.1 390.0, 653.3 390.0 Q 651.5 390.0, 649.9 389.2 L 650.4 388.1 Q 651.3 388.5, 651.9 388.7 Q 652.5 388.8, 653.3 388.8 Q 654.5 388.8, 655.0 388.3 Q 655.6 387.7, 655.6 386.5 L 655.6 385.1 Q 654.7 386.1, 653.2 386.1 Q 651.5 386.1, 650.5 385.1 Q 649.6 384.0, 649.6 382.0 Q 649.6 379.9, 650.7 378.8 Q 651.8 377.6, 653.8 377.6 Q 654.9 377.6, 655.8 377.9 L 655.9 377.7 L 657.1 377.7 M 653.3 384.9 Q 654.1 384.9, 654.7 384.5 Q 655.3 384.0, 655.6 383.2 L 655.6 379.0 Q 654.7 378.8, 653.8 378.8 Q 652.6 378.8, 651.8 379.6 Q 651.1 380.5, 651.1 382.0 Q 651.1 383.4, 651.7 384.2 Q 652.3 384.9, 653.3 384.9 " fill="#000000"/>
<path class="legend" d="M 667.9 377.6 Q 669.3 377.6, 670.0 378.4 Q 670.7 379.1, 670.7 380.5 L 670.7 386.0 L 669.2 386.0 L 669.2 380.7 Q 669.2 379.7, 668.8 379.2 Q 668.4 378.8, 667.6 378.8 Q 666.9 378.8, 666.3 379.2 Q 665.7 379.5, 665.3 380.1 Q 665.3 380.2, 665.3 380.5 L 665.3 386.0 L 663.8 386.0 L 663.8 380.7 Q 663.8 379.7, 663.4 379.2 Q 663.0 378.8, 662.2 378.8 Q 661.5 378.8, 660.9 379.2 Q 660.3 379.5, 659.9 380.1 L 659.9 386.0 L 658.4 386.0 L 658.4 377.8 L 659.6 377.8 L 659.8 378.9 Q 660.9 377.6, 662.5 377.6 Q 664.4 377.6, 665.0 379.1 Q 666.1 377.6, 667.9 377.6 " fill="#000000"/>
<path class="legend" d="M 671.9 381.9 Q 671.9 379.8, 672.9 378.7 Q 673.9 377.6, 675.8 377.6 Q 677.6 377.6, 678.4 378.7 Q 679.2 379.8, 679.2 381.8 L 679.2 382.1 L 673.5 382.1 Q 673.5 383.5, 674.1 384.2 Q 674.7 384.9, 675.9 384.9 Q 676.6 384.9, 677.1 384.8 Q 677.7 384.6, 678.5 384.3 L 678.9 385.3 Q 678.1 385.7, 677.3 385.9 Q 676.6 386.1, 675.8 386.1 Q 674.0 386.1, 673.0 385.0 Q 671.9 383.9, 671.9 381.9 M 675.8 378.8 Q 674.8 378.8, 674.3 379.3 Q 673.7 379.9, 673.5 380.9 L 677.6 380.9 Q 677.5 379.8, 677.1 379.3 Q 676.6 378.8, 675.8 378.8 " fill="#000000"/>
<path class="legend" d="M 684.1 377.6 Q 685.4 377.6, 686.1 378.4 Q 686.8 379.1, 686.8 380.5 L 686.8 386.0 L 685.3 386.0 L 685.3 380.7 Q 685.3 379.7, 684.9 379.2 Q 684.6 378.8, 683.7 378.8 Q 683.0 378.8, 682.3 379.2 Q 681.7 379.5, 681.3 380.1 L 681.3 386.0 L 679.8 386.0 L 679.8 377.8 L 681.0 377.8 L 681.2 378.9 Q 682.3 377.6, 684.1 377.6 " fill="#000000"/>
<path class="legend" d="M 688.0 378.9 L 688.0 377.8 L 689.6 377.8 L 689.9 375.4 L 691.0 375.4 L 691.0 377.8 L 693.5 377.8 L 693.5 378.9 L 691.0 378.9 L 691.0 383.5 Q 691.0 384.9, 692.2 384.9 Q 692.7 384.9, 693.4 384.7 L 693.6 385.7 Q 692.7 386.1, 691.9 386.1 Q 690.8 386.1, 690.2 385.4 Q 689.5 384.8, 689.5 383.5 L 689.5 378.9 L 688.0 378.9 " fill="#000000"/>
<path class="legend" d="M 702.2 386.8 L 702.2 388.1 L 694.0 388.1 L 694.0 386.8 L 702.2 386.8 " fill="#000000"/>
<path class="legend" d="M 707.6 380.0 Q 708.7 380.3, 709.3 381.1 Q 709.8 381.8, 709.8 382.9 Q 709.8 383.8, 709.3 384.6 Q 708.8 385.3, 708.0 385.7 Q 707.1 386.1, 705.9 386.1 Q 704.7 386.1, 703.8 385.7 Q 702.9 385.3, 702.2 384.4 L 703.1 383.5 Q 703.8 384.3, 704.4 384.6 Q 705.0 384.9, 705.9 384.9 Q 707.0 384.9, 707.6 384.3 Q 708.2 383.8, 708.2 382.9 Q 708.2 381.7, 707.5 381.2 Q 706.9 380.7, 705.5 380.7 L 704.7 380.7 L 704.7 379.5 L 705.4 379.5 Q 706.6 379.5, 707.3 379.0 Q 708.0 378.4, 708.0 377.4 Q 708.0 376.7, 707.4 376.3 Q 706.9 375.8, 705.9 375.8 Q 705.0 375.8, 704.4 376.1 Q 703.8 376.5, 703.4 377.3 L 702.3 376.7 Q 702.7 375.8, 703.6 375.2 Q 704.6 374.5, 705.9 374.5 Q 707.6 374.5, 708.6 375.3 Q 709.6 376.1, 709.6 377.4 Q 709.6 378.3, 709.1 379.0 Q 708.6 379.6, 707.6 380.0 " fill="#000000"/>
<text x="265.8228925470186" y="229.33324825359765" font-size="12" font-family="Verdana" font-weight="bold" letter-spacing="0" text-anchor="start" fill="black" transform=" rotate(70.048608 265.822893 229.333248)">0.155</text><text x="674.747330997314" y="235.97838023543113" font-size="12" font-family="Verdana" font-weight="bold" letter-spacing="0" text-anchor="start" fill="black" transform=" rotate(56.328985 674.747331 235.978380)">0.1445</text></svg>
