<?xml version='1.0' encoding='ASCII' standalone='yes'?>
<svg xmlns="http://www.w3.org/2000/svg" xmlns:rdkit="http://www.rdkit.org/xml" xmlns:xlink="http://www.w3.org/1999/xlink" version="1.1" baseProfile="full" xml:space="preserve" width="1200px" height="400px" viewBox="0 0 1200 400">
<!-- END OF HEADER -->
<rect style="opacity:1.0;fill:#FFFFFF;stroke:none" width="1200.0" height="400.0" x="0.0" y="0.0"> </rect>
<rect style="opacity:1.0;fill:#FFFFFF;stroke:none" width="1200.0" height="400.0" x="0.0" y="0.0"> </rect>
<rect style="opacity:1.0;fill:#FFFFFF;stroke:none" width="1200.0" height="400.0" x="0.0" y="0.0"> </rect>
<path d="M 191.4,223.8 L 214.3,194.8" style="fill:none;fill-rule:evenodd;stroke:#FF7F7F;stroke-width:7.9px;stroke-linecap:butt;stroke-linejoin:miter;stroke-opacity:1"/>
<path class="bond-0 atom-0 atom-15" d="M 149.9,224.8 L 136.8,241.5" style="fill:none;fill-rule:evenodd;stroke:#000000;stroke-width:2.0px;stroke-linecap:butt;stroke-linejoin:miter;stroke-opacity:1"/>
<path class="bond-0 atom-0 atom-15" d="M 142.2,222.8 L 133.0,234.4" style="fill:none;fill-rule:evenodd;stroke:#000000;stroke-width:2.0px;stroke-linecap:butt;stroke-linejoin:miter;stroke-opacity:1"/>
<path class="bond-1 atom-0 atom-16" d="M 153.4,214.6 L 143.7,190.5" style="fill:none;fill-rule:evenodd;stroke:#000000;stroke-width:2.0px;stroke-linecap:butt;stroke-linejoin:miter;stroke-opacity:1"/>
<path class="bond-3 atom-1 atom-0" d="M 178.4,221.9 L 169.8,220.6" style="fill:none;fill-rule:evenodd;stroke:#0000FF;stroke-width:2.0px;stroke-linecap:butt;stroke-linejoin:miter;stroke-opacity:1"/>
<path class="bond-3 atom-1 atom-0" d="M 169.8,220.6 L 161.2,219.4" style="fill:none;fill-rule:evenodd;stroke:#000000;stroke-width:2.0px;stroke-linecap:butt;stroke-linejoin:miter;stroke-opacity:1"/>
<path class="bond-2 atom-1 atom-2" d="M 196.3,217.6 L 202.9,209.2" style="fill:none;fill-rule:evenodd;stroke:#0000FF;stroke-width:2.0px;stroke-linecap:butt;stroke-linejoin:miter;stroke-opacity:1"/>
<path class="bond-2 atom-1 atom-2" d="M 202.9,209.2 L 209.4,200.9" style="fill:none;fill-rule:evenodd;stroke:#000000;stroke-width:2.0px;stroke-linecap:butt;stroke-linejoin:miter;stroke-opacity:1"/>
<path class="bond-4 atom-1 atom-4" d="M 193.9,230.0 L 198.3,241.0" style="fill:none;fill-rule:evenodd;stroke:#0000FF;stroke-width:2.0px;stroke-linecap:butt;stroke-linejoin:miter;stroke-opacity:1"/>
<path class="bond-4 atom-1 atom-4" d="M 198.3,241.0 L 202.7,252.1" style="fill:none;fill-rule:evenodd;stroke:#000000;stroke-width:2.0px;stroke-linecap:butt;stroke-linejoin:miter;stroke-opacity:1"/>
<path class="bond-5 atom-2 atom-5" d="M 221.2,195.8 L 237.5,198.1" style="fill:none;fill-rule:evenodd;stroke:#000000;stroke-width:2.0px;stroke-linecap:butt;stroke-linejoin:miter;stroke-opacity:1"/>
<path class="bond-7 atom-3 atom-2" d="M 203.1,166.8 L 212.5,190.3" style="fill:none;fill-rule:evenodd;stroke:#000000;stroke-width:2.0px;stroke-linecap:butt;stroke-linejoin:miter;stroke-opacity:1"/>
<path class="bond-7 atom-3 atom-2" d="M 211.4,167.6 L 217.9,184.0" style="fill:none;fill-rule:evenodd;stroke:#000000;stroke-width:2.0px;stroke-linecap:butt;stroke-linejoin:miter;stroke-opacity:1"/>
<path class="bond-6 atom-3 atom-6" d="M 204.5,154.3 L 216.3,135.4" style="fill:none;fill-rule:evenodd;stroke:#000000;stroke-width:2.0px;stroke-linecap:butt;stroke-linejoin:miter;stroke-opacity:1"/>
<path class="bond-8 atom-3 atom-8" d="M 195.6,159.2 L 169.2,152.6" style="fill:none;fill-rule:evenodd;stroke:#000000;stroke-width:2.0px;stroke-linecap:butt;stroke-linejoin:miter;stroke-opacity:1"/>
<path class="bond-9 atom-5 atom-10" d="M 253.3,206.4 L 262.1,228.3" style="fill:none;fill-rule:evenodd;stroke:#000000;stroke-width:2.0px;stroke-linecap:butt;stroke-linejoin:miter;stroke-opacity:1"/>
<path class="bond-9 atom-5 atom-10" d="M 261.5,206.9 L 267.6,222.3" style="fill:none;fill-rule:evenodd;stroke:#000000;stroke-width:2.0px;stroke-linecap:butt;stroke-linejoin:miter;stroke-opacity:1"/>
<path class="bond-10 atom-5 atom-11" d="M 255.7,193.8 L 268.9,177.0" style="fill:none;fill-rule:evenodd;stroke:#000000;stroke-width:2.0px;stroke-linecap:butt;stroke-linejoin:miter;stroke-opacity:1"/>
<path class="bond-11 atom-6 atom-9" d="M 215.3,123.3 L 201.7,107.1" style="fill:none;fill-rule:evenodd;stroke:#000000;stroke-width:2.0px;stroke-linecap:butt;stroke-linejoin:miter;stroke-opacity:1"/>
<path class="bond-11 atom-6 atom-9" d="M 207.6,125.6 L 198.1,114.2" style="fill:none;fill-rule:evenodd;stroke:#000000;stroke-width:2.0px;stroke-linecap:butt;stroke-linejoin:miter;stroke-opacity:1"/>
<path class="bond-12 atom-6 atom-31" d="M 235.0,126.5 L 251.8,123.2" style="fill:none;fill-rule:evenodd;stroke:#000000;stroke-width:2.0px;stroke-linecap:butt;stroke-linejoin:miter;stroke-opacity:1"/>
<path class="bond-13 atom-7 atom-8" d="M 162.8,121.0 L 163.6,133.2" style="fill:none;fill-rule:evenodd;stroke:#0000FF;stroke-width:2.0px;stroke-linecap:butt;stroke-linejoin:miter;stroke-opacity:1"/>
<path class="bond-13 atom-7 atom-8" d="M 163.6,133.2 L 164.4,145.4" style="fill:none;fill-rule:evenodd;stroke:#000000;stroke-width:2.0px;stroke-linecap:butt;stroke-linejoin:miter;stroke-opacity:1"/>
<path class="bond-14 atom-7 atom-9" d="M 167.0,112.8 L 174.0,110.0" style="fill:none;fill-rule:evenodd;stroke:#0000FF;stroke-width:2.0px;stroke-linecap:butt;stroke-linejoin:miter;stroke-opacity:1"/>
<path class="bond-14 atom-7 atom-9" d="M 174.0,110.0 L 181.1,107.1" style="fill:none;fill-rule:evenodd;stroke:#000000;stroke-width:2.0px;stroke-linecap:butt;stroke-linejoin:miter;stroke-opacity:1"/>
<path class="bond-15 atom-7 atom-20" d="M 152.7,108.5 L 143.8,102.9" style="fill:none;fill-rule:evenodd;stroke:#0000FF;stroke-width:2.0px;stroke-linecap:butt;stroke-linejoin:miter;stroke-opacity:1"/>
<path class="bond-15 atom-7 atom-20" d="M 143.8,102.9 L 134.9,97.3" style="fill:none;fill-rule:evenodd;stroke:#000000;stroke-width:2.0px;stroke-linecap:butt;stroke-linejoin:miter;stroke-opacity:1"/>
<path class="bond-16 atom-8 atom-21" d="M 150.4,154.3 L 145.3,156.8" style="fill:none;fill-rule:evenodd;stroke:#000000;stroke-width:2.0px;stroke-linecap:butt;stroke-linejoin:miter;stroke-opacity:1"/>
<path class="bond-16 atom-8 atom-21" d="M 145.3,156.8 L 140.2,159.2" style="fill:none;fill-rule:evenodd;stroke:#FF0000;stroke-width:2.0px;stroke-linecap:butt;stroke-linejoin:miter;stroke-opacity:1"/>
<path class="bond-16 atom-8 atom-21" d="M 153.6,160.9 L 148.5,163.4" style="fill:none;fill-rule:evenodd;stroke:#000000;stroke-width:2.0px;stroke-linecap:butt;stroke-linejoin:miter;stroke-opacity:1"/>
<path class="bond-16 atom-8 atom-21" d="M 148.5,163.4 L 143.4,165.9" style="fill:none;fill-rule:evenodd;stroke:#FF0000;stroke-width:2.0px;stroke-linecap:butt;stroke-linejoin:miter;stroke-opacity:1"/>
<path class="bond-17 atom-9 atom-32" d="M 198.2,94.7 L 204.1,71.2" style="fill:none;fill-rule:evenodd;stroke:#000000;stroke-width:2.0px;stroke-linecap:butt;stroke-linejoin:miter;stroke-opacity:1"/>
<path class="bond-18 atom-10 atom-12" d="M 274.5,235.7 L 284.4,237.2" style="fill:none;fill-rule:evenodd;stroke:#000000;stroke-width:2.0px;stroke-linecap:butt;stroke-linejoin:miter;stroke-opacity:1"/>
<path class="bond-19 atom-10 atom-22" d="M 259.6,240.5 L 245.9,257.9" style="fill:none;fill-rule:evenodd;stroke:#000000;stroke-width:2.0px;stroke-linecap:butt;stroke-linejoin:miter;stroke-opacity:1"/>
<path class="bond-20 atom-11 atom-13" d="M 278.1,171.7 L 293.0,173.8" style="fill:none;fill-rule:evenodd;stroke:#000000;stroke-width:2.0px;stroke-linecap:butt;stroke-linejoin:miter;stroke-opacity:1"/>
<path class="bond-20 atom-11 atom-13" d="M 279.2,179.3 L 289.7,180.8" style="fill:none;fill-rule:evenodd;stroke:#000000;stroke-width:2.0px;stroke-linecap:butt;stroke-linejoin:miter;stroke-opacity:1"/>
<path class="bond-21 atom-11 atom-23" d="M 272.0,164.8 L 265.8,141.4" style="fill:none;fill-rule:evenodd;stroke:#000000;stroke-width:2.0px;stroke-linecap:butt;stroke-linejoin:miter;stroke-opacity:1"/>
<path class="bond-22 atom-12 atom-14" d="M 305.9,233.4 L 319.1,216.6" style="fill:none;fill-rule:evenodd;stroke:#000000;stroke-width:2.0px;stroke-linecap:butt;stroke-linejoin:miter;stroke-opacity:1"/>
<path class="bond-22 atom-12 atom-14" d="M 302.1,226.3 L 311.3,214.5" style="fill:none;fill-rule:evenodd;stroke:#000000;stroke-width:2.0px;stroke-linecap:butt;stroke-linejoin:miter;stroke-opacity:1"/>
<path class="bond-23 atom-12 atom-24" d="M 303.6,245.9 L 312.4,267.9" style="fill:none;fill-rule:evenodd;stroke:#000000;stroke-width:2.0px;stroke-linecap:butt;stroke-linejoin:miter;stroke-opacity:1"/>
<path class="bond-24 atom-13 atom-14" d="M 312.6,182.5 L 321.4,204.6" style="fill:none;fill-rule:evenodd;stroke:#000000;stroke-width:2.0px;stroke-linecap:butt;stroke-linejoin:miter;stroke-opacity:1"/>
<path class="bond-25 atom-13 atom-25" d="M 314.9,170.2 L 328.2,153.3" style="fill:none;fill-rule:evenodd;stroke:#000000;stroke-width:2.0px;stroke-linecap:butt;stroke-linejoin:miter;stroke-opacity:1"/>
<path class="bond-26 atom-14 atom-26" d="M 334.3,212.1 L 355.6,215.2" style="fill:none;fill-rule:evenodd;stroke:#000000;stroke-width:2.0px;stroke-linecap:butt;stroke-linejoin:miter;stroke-opacity:1"/>
<path class="bond-27 atom-15 atom-17" d="M 115.0,245.0 L 105.9,243.7" style="fill:none;fill-rule:evenodd;stroke:#000000;stroke-width:2.0px;stroke-linecap:butt;stroke-linejoin:miter;stroke-opacity:1"/>
<path class="bond-28 atom-15 atom-27" d="M 134.6,253.8 L 143.4,275.8" style="fill:none;fill-rule:evenodd;stroke:#000000;stroke-width:2.0px;stroke-linecap:butt;stroke-linejoin:miter;stroke-opacity:1"/>
<path class="bond-29 atom-16 atom-18" d="M 136.3,183.5 L 115.2,180.5" style="fill:none;fill-rule:evenodd;stroke:#000000;stroke-width:2.0px;stroke-linecap:butt;stroke-linejoin:miter;stroke-opacity:1"/>
<path class="bond-29 atom-16 atom-18" d="M 132.0,190.4 L 117.3,188.2" style="fill:none;fill-rule:evenodd;stroke:#000000;stroke-width:2.0px;stroke-linecap:butt;stroke-linejoin:miter;stroke-opacity:1"/>
<path class="bond-30 atom-16 atom-28" d="M 143.8,178.5 L 146.7,172.0" style="fill:none;fill-rule:evenodd;stroke:#000000;stroke-width:2.0px;stroke-linecap:butt;stroke-linejoin:miter;stroke-opacity:1"/>
<path class="bond-31 atom-17 atom-19" d="M 93.1,236.1 L 84.3,214.1" style="fill:none;fill-rule:evenodd;stroke:#000000;stroke-width:2.0px;stroke-linecap:butt;stroke-linejoin:miter;stroke-opacity:1"/>
<path class="bond-31 atom-17 atom-19" d="M 98.6,230.1 L 92.5,214.7" style="fill:none;fill-rule:evenodd;stroke:#000000;stroke-width:2.0px;stroke-linecap:butt;stroke-linejoin:miter;stroke-opacity:1"/>
<path class="bond-32 atom-17 atom-29" d="M 90.7,248.4 L 77.3,265.5" style="fill:none;fill-rule:evenodd;stroke:#000000;stroke-width:2.0px;stroke-linecap:butt;stroke-linejoin:miter;stroke-opacity:1"/>
<path class="bond-33 atom-18 atom-19" d="M 99.8,185.2 L 86.6,202.0" style="fill:none;fill-rule:evenodd;stroke:#000000;stroke-width:2.0px;stroke-linecap:butt;stroke-linejoin:miter;stroke-opacity:1"/>
<path class="bond-34 atom-18 atom-30" d="M 102.2,172.8 L 93.4,150.7" style="fill:none;fill-rule:evenodd;stroke:#000000;stroke-width:2.0px;stroke-linecap:butt;stroke-linejoin:miter;stroke-opacity:1"/>
<path class="bond-35 atom-19 atom-33" d="M 64.3,205.4 L 49.8,203.4" style="fill:none;fill-rule:evenodd;stroke:#000000;stroke-width:2.0px;stroke-linecap:butt;stroke-linejoin:miter;stroke-opacity:1"/>
<path class="atom-0" d="M 142.8 218.5 Q 142.8 215.9, 144.1 214.6 Q 145.3 213.2, 147.6 213.2 Q 149.8 213.2, 150.9 214.7 L 149.9 215.5 Q 149.1 214.4, 147.6 214.4 Q 146.0 214.4, 145.2 215.5 Q 144.4 216.5, 144.4 218.5 Q 144.4 220.6, 145.2 221.7 Q 146.1 222.7, 147.8 222.7 Q 148.9 222.7, 150.3 222.0 L 150.7 223.2 Q 150.1 223.5, 149.3 223.7 Q 148.5 223.9, 147.6 223.9 Q 145.3 223.9, 144.1 222.5 Q 142.8 221.1, 142.8 218.5 " fill="#000000"/>
<path class="atom-0" d="M 152.0 222.1 L 153.5 222.1 L 153.5 223.5 L 152.0 223.5 L 152.0 222.1 M 152.0 217.0 L 153.5 217.0 L 153.5 218.5 L 152.0 218.5 L 152.0 217.0 " fill="#000000"/>
<path class="atom-0" d="M 154.9 222.6 L 157.2 222.6 L 157.2 214.8 L 154.6 215.6 L 154.3 214.7 L 157.5 213.3 L 158.5 213.5 L 158.5 222.6 L 160.6 222.6 L 160.6 223.8 L 154.9 223.8 L 154.9 222.6 " fill="#000000"/>
<path class="atom-1" d="M 180.9 218.6 L 184.4 224.1 Q 184.7 224.7, 185.3 225.7 Q 185.8 226.7, 185.8 226.7 L 185.8 218.6 L 187.2 218.6 L 187.2 229.1 L 185.8 229.1 L 182.1 223.0 Q 181.7 222.3, 181.2 221.5 Q 180.8 220.7, 180.6 220.4 L 180.6 229.1 L 179.3 229.1 L 179.3 218.6 L 180.9 218.6 " fill="#0000FF"/>
<path class="atom-1" d="M 188.3 227.3 L 189.8 227.3 L 189.8 228.8 L 188.3 228.8 L 188.3 227.3 M 188.3 222.2 L 189.8 222.2 L 189.8 223.7 L 188.3 223.7 L 188.3 222.2 " fill="#0000FF"/>
<path class="atom-1" d="M 190.6 220.6 Q 190.9 219.6, 191.9 219.0 Q 192.8 218.5, 194.0 218.5 Q 195.6 218.5, 196.5 219.3 Q 197.4 220.2, 197.4 221.7 Q 197.4 223.3, 196.2 224.7 Q 195.1 226.2, 192.8 227.9 L 197.6 227.9 L 197.6 229.1 L 190.5 229.1 L 190.5 228.1 Q 192.5 226.7, 193.6 225.6 Q 194.8 224.6, 195.4 223.7 Q 195.9 222.7, 195.9 221.8 Q 195.9 220.8, 195.4 220.2 Q 194.9 219.7, 194.0 219.7 Q 193.2 219.7, 192.6 220.0 Q 192.1 220.3, 191.7 221.1 L 190.6 220.6 " fill="#0000FF"/>
<path class="atom-2" d="M 202.0 194.8 Q 202.0 192.2, 203.2 190.9 Q 204.4 189.5, 206.7 189.5 Q 208.9 189.5, 210.0 191.0 L 209.0 191.8 Q 208.2 190.7, 206.7 190.7 Q 205.1 190.7, 204.3 191.8 Q 203.5 192.8, 203.5 194.8 Q 203.5 196.9, 204.3 197.9 Q 205.2 199.0, 206.9 199.0 Q 208.0 199.0, 209.4 198.3 L 209.8 199.4 Q 209.2 199.8, 208.4 200.0 Q 207.6 200.2, 206.7 200.2 Q 204.4 200.2, 203.2 198.8 Q 202.0 197.4, 202.0 194.8 " fill="#000000"/>
<path class="atom-2" d="M 211.1 198.3 L 212.6 198.3 L 212.6 199.8 L 211.1 199.8 L 211.1 198.3 M 211.1 193.2 L 212.6 193.2 L 212.6 194.7 L 211.1 194.7 L 211.1 193.2 " fill="#000000"/>
<path class="atom-2" d="M 218.2 194.5 Q 219.3 194.8, 219.7 195.5 Q 220.2 196.2, 220.2 197.2 Q 220.2 198.1, 219.8 198.8 Q 219.4 199.4, 218.5 199.8 Q 217.7 200.2, 216.7 200.2 Q 215.6 200.2, 214.7 199.8 Q 213.9 199.4, 213.2 198.6 L 214.1 197.8 Q 214.7 198.5, 215.3 198.8 Q 215.8 199.0, 216.7 199.0 Q 217.6 199.0, 218.2 198.5 Q 218.8 198.0, 218.8 197.2 Q 218.8 196.1, 218.2 195.6 Q 217.6 195.2, 216.3 195.2 L 215.5 195.2 L 215.5 194.1 L 216.2 194.1 Q 217.3 194.1, 217.9 193.6 Q 218.5 193.1, 218.5 192.2 Q 218.5 191.5, 218.0 191.1 Q 217.5 190.7, 216.7 190.7 Q 215.8 190.7, 215.3 191.0 Q 214.7 191.3, 214.3 192.1 L 213.3 191.5 Q 213.7 190.6, 214.6 190.1 Q 215.4 189.5, 216.7 189.5 Q 218.2 189.5, 219.1 190.2 Q 220.0 190.9, 220.0 192.2 Q 220.0 193.0, 219.6 193.6 Q 219.1 194.2, 218.2 194.5 " fill="#000000"/>
<path class="atom-3" d="M 196.5 160.5 Q 196.5 157.9, 197.7 156.6 Q 199.0 155.2, 201.3 155.2 Q 203.4 155.2, 204.6 156.7 L 203.6 157.5 Q 202.8 156.4, 201.3 156.4 Q 199.7 156.4, 198.9 157.5 Q 198.0 158.5, 198.0 160.5 Q 198.0 162.6, 198.9 163.7 Q 199.8 164.7, 201.4 164.7 Q 202.6 164.7, 203.9 164.0 L 204.4 165.2 Q 203.8 165.5, 203.0 165.7 Q 202.2 165.9, 201.2 165.9 Q 199.0 165.9, 197.7 164.5 Q 196.5 163.1, 196.5 160.5 " fill="#000000"/>
<path class="atom-3" d="M 205.7 164.1 L 207.2 164.1 L 207.2 165.5 L 205.7 165.5 L 205.7 164.1 M 205.7 159.0 L 207.2 159.0 L 207.2 160.5 L 205.7 160.5 L 205.7 159.0 " fill="#000000"/>
<path class="atom-3" d="M 214.4 162.2 L 215.7 162.2 L 215.7 163.4 L 214.4 163.4 L 214.4 165.8 L 213.0 165.8 L 213.0 163.4 L 207.6 163.4 L 207.6 162.5 L 212.2 155.3 L 214.4 155.3 L 214.4 162.2 M 209.3 162.2 L 213.0 162.2 L 213.0 156.3 L 209.3 162.2 " fill="#000000"/>
<path class="atom-4" d="M 201.0 252.8 L 202.5 252.8 L 202.5 257.3 L 207.8 257.3 L 207.8 252.8 L 209.2 252.8 L 209.2 263.3 L 207.8 263.3 L 207.8 258.4 L 202.5 258.4 L 202.5 263.3 L 201.0 263.3 L 201.0 252.8 " fill="#000000"/>
<path class="atom-4" d="M 210.3 261.5 L 211.8 261.5 L 211.8 263.0 L 210.3 263.0 L 210.3 261.5 M 210.3 256.5 L 211.8 256.5 L 211.8 257.9 L 210.3 257.9 L 210.3 256.5 " fill="#000000"/>
<path class="atom-4" d="M 216.3 256.7 Q 217.2 256.7, 218.0 257.1 Q 218.7 257.5, 219.1 258.2 Q 219.6 259.0, 219.6 260.0 Q 219.6 261.0, 219.0 261.8 Q 218.5 262.6, 217.7 263.0 Q 216.8 263.4, 215.8 263.4 Q 214.9 263.4, 214.0 263.0 Q 213.1 262.7, 212.5 262.0 L 213.4 261.1 Q 213.9 261.6, 214.5 261.9 Q 215.2 262.2, 215.9 262.2 Q 216.8 262.2, 217.4 261.6 Q 218.1 261.0, 218.1 260.0 Q 218.1 258.9, 217.4 258.4 Q 216.8 257.8, 215.8 257.8 Q 214.9 257.8, 213.8 258.2 L 213.0 257.8 L 213.5 252.8 L 218.9 252.8 L 218.8 254.0 L 214.7 254.0 L 214.4 257.1 Q 215.4 256.7, 216.3 256.7 " fill="#000000"/>
<path class="atom-5" d="M 238.3 200.1 Q 238.3 197.5, 239.5 196.1 Q 240.7 194.8, 243.0 194.8 Q 245.2 194.8, 246.3 196.3 L 245.3 197.1 Q 244.5 196.0, 243.0 196.0 Q 241.4 196.0, 240.6 197.0 Q 239.8 198.1, 239.8 200.1 Q 239.8 202.1, 240.6 203.2 Q 241.5 204.3, 243.2 204.3 Q 244.3 204.3, 245.7 203.6 L 246.1 204.7 Q 245.5 205.0, 244.7 205.2 Q 243.9 205.5, 243.0 205.5 Q 240.7 205.5, 239.5 204.1 Q 238.3 202.7, 238.3 200.1 " fill="#000000"/>
<path class="atom-5" d="M 247.4 203.6 L 248.9 203.6 L 248.9 205.1 L 247.4 205.1 L 247.4 203.6 M 247.4 198.5 L 248.9 198.5 L 248.9 200.0 L 247.4 200.0 L 247.4 198.5 " fill="#000000"/>
<path class="atom-5" d="M 254.0 198.8 Q 254.9 198.8, 255.6 199.2 Q 256.4 199.6, 256.8 200.3 Q 257.2 201.0, 257.2 202.0 Q 257.2 203.0, 256.7 203.8 Q 256.3 204.6, 255.5 205.0 Q 254.7 205.4, 253.6 205.4 Q 251.8 205.4, 250.8 204.2 Q 249.9 202.9, 249.9 200.4 Q 249.9 197.6, 251.1 196.2 Q 252.2 194.8, 254.5 194.8 Q 255.1 194.8, 255.7 194.9 Q 256.2 195.0, 256.7 195.4 L 256.2 196.3 Q 255.4 195.9, 254.5 195.9 Q 253.0 195.9, 252.2 196.9 Q 251.5 197.8, 251.4 199.8 Q 251.9 199.3, 252.6 199.1 Q 253.3 198.8, 254.0 198.8 M 253.7 204.2 Q 254.2 204.2, 254.7 203.9 Q 255.1 203.6, 255.4 203.1 Q 255.7 202.6, 255.7 202.0 Q 255.7 201.0, 255.2 200.5 Q 254.6 200.0, 253.7 200.0 Q 253.1 200.0, 252.5 200.2 Q 251.8 200.5, 251.4 200.9 Q 251.5 202.7, 252.0 203.4 Q 252.6 204.2, 253.7 204.2 " fill="#000000"/>
<path class="atom-6" d="M 216.2 129.3 Q 216.2 126.7, 217.4 125.4 Q 218.6 124.0, 220.9 124.0 Q 223.1 124.0, 224.3 125.5 L 223.3 126.3 Q 222.4 125.2, 220.9 125.2 Q 219.4 125.2, 218.5 126.3 Q 217.7 127.3, 217.7 129.3 Q 217.7 131.4, 218.6 132.4 Q 219.4 133.5, 221.1 133.5 Q 222.3 133.5, 223.6 132.8 L 224.0 133.9 Q 223.5 134.3, 222.6 134.5 Q 221.8 134.7, 220.9 134.7 Q 218.6 134.7, 217.4 133.3 Q 216.2 131.9, 216.2 129.3 " fill="#000000"/>
<path class="atom-6" d="M 225.4 132.8 L 226.8 132.8 L 226.8 134.3 L 225.4 134.3 L 225.4 132.8 M 225.4 127.8 L 226.8 127.8 L 226.8 129.2 L 225.4 129.2 L 225.4 127.8 " fill="#000000"/>
<path class="atom-6" d="M 232.6 125.3 L 227.1 125.3 L 227.1 124.1 L 234.0 124.1 L 234.0 125.2 L 229.8 134.6 L 228.4 134.6 L 232.6 125.3 " fill="#000000"/>
<path class="atom-7" d="M 148.9 109.5 L 152.3 115.0 Q 152.6 115.5, 153.2 116.5 Q 153.7 117.5, 153.8 117.6 L 153.8 109.5 L 155.2 109.5 L 155.2 119.9 L 153.7 119.9 L 150.0 113.9 Q 149.6 113.1, 149.2 112.3 Q 148.7 111.5, 148.6 111.3 L 148.6 119.9 L 147.2 119.9 L 147.2 109.5 L 148.9 109.5 " fill="#0000FF"/>
<path class="atom-7" d="M 156.3 118.2 L 157.7 118.2 L 157.7 119.7 L 156.3 119.7 L 156.3 118.2 M 156.3 113.1 L 157.7 113.1 L 157.7 114.6 L 156.3 114.6 L 156.3 113.1 " fill="#0000FF"/>
<path class="atom-7" d="M 164.0 114.4 Q 164.9 114.8, 165.5 115.4 Q 166.0 116.0, 166.0 117.0 Q 166.0 117.9, 165.6 118.6 Q 165.1 119.3, 164.3 119.7 Q 163.5 120.1, 162.4 120.1 Q 160.7 120.1, 159.7 119.3 Q 158.6 118.4, 158.6 117.0 Q 158.6 116.2, 159.1 115.6 Q 159.5 114.9, 160.5 114.4 Q 159.8 114.0, 159.4 113.5 Q 159.0 112.9, 159.0 112.0 Q 159.0 110.8, 159.9 110.1 Q 160.8 109.3, 162.3 109.3 Q 163.9 109.3, 164.7 110.1 Q 165.6 110.8, 165.6 112.0 Q 165.6 112.8, 165.2 113.4 Q 164.8 113.9, 164.0 114.4 M 162.3 110.4 Q 161.5 110.4, 161.0 110.9 Q 160.5 111.3, 160.5 112.0 Q 160.5 112.6, 160.8 112.9 Q 161.2 113.3, 161.6 113.5 Q 162.1 113.7, 163.0 114.0 Q 163.6 113.6, 163.9 113.1 Q 164.2 112.6, 164.2 112.0 Q 164.2 111.3, 163.7 110.9 Q 163.2 110.4, 162.3 110.4 M 162.4 118.9 Q 163.4 118.9, 164.0 118.4 Q 164.6 117.9, 164.6 117.0 Q 164.6 116.5, 164.2 116.1 Q 163.9 115.8, 163.5 115.6 Q 163.0 115.3, 162.2 115.1 L 161.5 114.9 Q 160.8 115.3, 160.5 115.8 Q 160.1 116.4, 160.1 117.0 Q 160.1 117.9, 160.7 118.4 Q 161.4 118.9, 162.4 118.9 " fill="#0000FF"/>
<path class="atom-8" d="M 149.7 151.5 Q 149.7 148.9, 150.9 147.5 Q 152.1 146.2, 154.5 146.2 Q 156.6 146.2, 157.8 147.7 L 156.8 148.5 Q 155.9 147.4, 154.5 147.4 Q 152.9 147.4, 152.0 148.4 Q 151.2 149.5, 151.2 151.5 Q 151.2 153.6, 152.1 154.6 Q 152.9 155.7, 154.6 155.7 Q 155.8 155.7, 157.1 155.0 L 157.5 156.1 Q 157.0 156.5, 156.2 156.7 Q 155.3 156.9, 154.4 156.9 Q 152.1 156.9, 150.9 155.5 Q 149.7 154.1, 149.7 151.5 " fill="#000000"/>
<path class="atom-8" d="M 158.9 155.0 L 160.3 155.0 L 160.3 156.5 L 158.9 156.5 L 158.9 155.0 M 158.9 149.9 L 160.3 149.9 L 160.3 151.4 L 158.9 151.4 L 158.9 149.9 " fill="#000000"/>
<path class="atom-8" d="M 164.7 146.2 Q 166.5 146.2, 167.5 147.4 Q 168.4 148.7, 168.4 151.2 Q 168.4 154.0, 167.2 155.4 Q 166.1 156.8, 163.9 156.8 Q 163.2 156.8, 162.6 156.7 Q 162.1 156.6, 161.6 156.2 L 162.1 155.3 Q 162.9 155.7, 163.8 155.7 Q 165.3 155.7, 166.1 154.7 Q 166.8 153.8, 166.9 151.8 Q 166.4 152.3, 165.7 152.6 Q 165.0 152.8, 164.3 152.8 Q 163.4 152.8, 162.7 152.4 Q 162.0 152.0, 161.6 151.3 Q 161.2 150.6, 161.2 149.6 Q 161.2 148.6, 161.6 147.8 Q 162.1 147.0, 162.9 146.6 Q 163.7 146.2, 164.7 146.2 M 162.6 149.6 Q 162.6 150.6, 163.2 151.1 Q 163.7 151.6, 164.6 151.6 Q 165.2 151.6, 165.8 151.4 Q 166.5 151.1, 166.9 150.7 Q 166.9 148.9, 166.3 148.2 Q 165.8 147.4, 164.7 147.4 Q 164.1 147.4, 163.6 147.7 Q 163.2 148.0, 162.9 148.5 Q 162.6 149.0, 162.6 149.6 " fill="#000000"/>
<path class="atom-9" d="M 180.4 101.0 Q 180.4 98.4, 181.6 97.0 Q 182.8 95.6, 185.1 95.6 Q 187.3 95.6, 188.4 97.2 L 187.4 98.0 Q 186.6 96.8, 185.1 96.8 Q 183.5 96.8, 182.7 97.9 Q 181.9 99.0, 181.9 101.0 Q 181.9 103.0, 182.7 104.1 Q 183.6 105.2, 185.3 105.2 Q 186.4 105.2, 187.8 104.5 L 188.2 105.6 Q 187.6 105.9, 186.8 106.1 Q 186.0 106.3, 185.1 106.3 Q 182.8 106.3, 181.6 105.0 Q 180.4 103.6, 180.4 101.0 " fill="#000000"/>
<path class="atom-9" d="M 189.5 104.5 L 191.0 104.5 L 191.0 106.0 L 189.5 106.0 L 189.5 104.5 M 189.5 99.4 L 191.0 99.4 L 191.0 100.9 L 189.5 100.9 L 189.5 99.4 " fill="#000000"/>
<path class="atom-9" d="M 192.4 105.0 L 194.7 105.0 L 194.7 97.2 L 192.1 98.0 L 191.8 97.1 L 195.0 95.7 L 196.0 95.9 L 196.0 105.0 L 198.1 105.0 L 198.1 106.2 L 192.4 106.2 L 192.4 105.0 " fill="#000000"/>
<path class="atom-9" d="M 202.8 106.3 Q 200.9 106.3, 199.9 104.9 Q 199.0 103.5, 199.0 101.0 Q 199.0 98.4, 199.9 97.0 Q 200.9 95.6, 202.8 95.6 Q 204.8 95.6, 205.7 97.0 Q 206.6 98.4, 206.6 101.0 Q 206.6 103.5, 205.7 104.9 Q 204.7 106.3, 202.8 106.3 M 202.8 105.1 Q 204.0 105.1, 204.6 104.1 Q 205.2 103.0, 205.2 101.0 Q 205.2 98.9, 204.6 97.9 Q 204.0 96.8, 202.8 96.8 Q 201.7 96.8, 201.1 97.9 Q 200.5 98.9, 200.5 101.0 Q 200.5 103.0, 201.1 104.1 Q 201.7 105.1, 202.8 105.1 " fill="#000000"/>
<path class="atom-10" d="M 248.8 234.3 Q 248.8 231.7, 250.0 230.4 Q 251.2 229.0, 253.5 229.0 Q 255.7 229.0, 256.8 230.5 L 255.9 231.3 Q 255.0 230.2, 253.5 230.2 Q 251.9 230.2, 251.1 231.3 Q 250.3 232.3, 250.3 234.3 Q 250.3 236.4, 251.1 237.5 Q 252.0 238.5, 253.7 238.5 Q 254.8 238.5, 256.2 237.8 L 256.6 239.0 Q 256.0 239.3, 255.2 239.5 Q 254.4 239.7, 253.5 239.7 Q 251.2 239.7, 250.0 238.3 Q 248.8 236.9, 248.8 234.3 " fill="#000000"/>
<path class="atom-10" d="M 257.9 237.9 L 259.4 237.9 L 259.4 239.3 L 257.9 239.3 L 257.9 237.9 M 257.9 232.8 L 259.4 232.8 L 259.4 234.3 L 257.9 234.3 L 257.9 232.8 " fill="#000000"/>
<path class="atom-10" d="M 260.8 238.4 L 263.1 238.4 L 263.1 230.6 L 260.5 231.4 L 260.2 230.5 L 263.4 229.1 L 264.5 229.3 L 264.5 238.4 L 266.5 238.4 L 266.5 239.6 L 260.8 239.6 L 260.8 238.4 " fill="#000000"/>
<path class="atom-10" d="M 267.9 238.4 L 270.2 238.4 L 270.2 230.6 L 267.6 231.4 L 267.3 230.5 L 270.5 229.1 L 271.6 229.3 L 271.6 238.4 L 273.6 238.4 L 273.6 239.6 L 267.9 239.6 L 267.9 238.4 " fill="#000000"/>
<path class="atom-11" d="M 251.6 171.1 Q 251.6 168.5, 252.8 167.1 Q 254.0 165.8, 256.4 165.8 Q 258.5 165.8, 259.7 167.3 L 258.7 168.1 Q 257.9 167.0, 256.4 167.0 Q 254.8 167.0, 253.9 168.0 Q 253.1 169.1, 253.1 171.1 Q 253.1 173.1, 254.0 174.2 Q 254.8 175.3, 256.5 175.3 Q 257.7 175.3, 259.0 174.6 L 259.4 175.7 Q 258.9 176.0, 258.1 176.2 Q 257.2 176.5, 256.3 176.5 Q 254.0 176.5, 252.8 175.1 Q 251.6 173.7, 251.6 171.1 " fill="#000000"/>
<path class="atom-11" d="M 260.8 174.6 L 262.3 174.6 L 262.3 176.1 L 260.8 176.1 L 260.8 174.6 M 260.8 169.5 L 262.3 169.5 L 262.3 171.0 L 260.8 171.0 L 260.8 169.5 " fill="#000000"/>
<path class="atom-11" d="M 263.6 175.1 L 265.9 175.1 L 265.9 167.3 L 263.4 168.1 L 263.0 167.2 L 266.3 165.8 L 267.3 166.0 L 267.3 175.1 L 269.4 175.1 L 269.4 176.3 L 263.6 176.3 L 263.6 175.1 " fill="#000000"/>
<path class="atom-11" d="M 270.1 167.8 Q 270.5 166.9, 271.4 166.3 Q 272.3 165.8, 273.6 165.8 Q 275.2 165.8, 276.1 166.6 Q 277.0 167.5, 277.0 169.0 Q 277.0 170.5, 275.8 172.0 Q 274.7 173.4, 272.3 175.1 L 277.1 175.1 L 277.1 176.3 L 270.1 176.3 L 270.1 175.3 Q 272.0 173.9, 273.2 172.9 Q 274.4 171.9, 274.9 170.9 Q 275.5 170.0, 275.5 169.1 Q 275.5 168.1, 275.0 167.5 Q 274.5 166.9, 273.6 166.9 Q 272.8 166.9, 272.2 167.3 Q 271.6 167.6, 271.2 168.4 L 270.1 167.8 " fill="#000000"/>
<path class="atom-12" d="M 285.1 239.6 Q 285.1 237.0, 286.3 235.7 Q 287.5 234.3, 289.8 234.3 Q 292.0 234.3, 293.1 235.8 L 292.2 236.6 Q 291.3 235.5, 289.8 235.5 Q 288.2 235.5, 287.4 236.6 Q 286.6 237.6, 286.6 239.6 Q 286.6 241.7, 287.4 242.7 Q 288.3 243.8, 290.0 243.8 Q 291.1 243.8, 292.5 243.1 L 292.9 244.2 Q 292.3 244.6, 291.5 244.8 Q 290.7 245.0, 289.8 245.0 Q 287.5 245.0, 286.3 243.6 Q 285.1 242.2, 285.1 239.6 " fill="#000000"/>
<path class="atom-12" d="M 294.2 243.1 L 295.7 243.1 L 295.7 244.6 L 294.2 244.6 L 294.2 243.1 M 294.2 238.0 L 295.7 238.0 L 295.7 239.5 L 294.2 239.5 L 294.2 238.0 " fill="#000000"/>
<path class="atom-12" d="M 297.1 243.7 L 299.4 243.7 L 299.4 235.9 L 296.8 236.6 L 296.5 235.8 L 299.7 234.3 L 300.8 234.5 L 300.8 243.7 L 302.8 243.7 L 302.8 244.9 L 297.1 244.9 L 297.1 243.7 " fill="#000000"/>
<path class="atom-12" d="M 308.5 239.3 Q 309.5 239.6, 310.0 240.3 Q 310.5 241.0, 310.5 242.0 Q 310.5 242.9, 310.0 243.6 Q 309.6 244.2, 308.8 244.6 Q 307.9 245.0, 306.9 245.0 Q 305.8 245.0, 304.9 244.6 Q 304.1 244.2, 303.4 243.4 L 304.3 242.6 Q 304.9 243.3, 305.5 243.6 Q 306.0 243.8, 306.9 243.8 Q 307.8 243.8, 308.4 243.3 Q 309.0 242.8, 309.0 242.0 Q 309.0 240.9, 308.4 240.4 Q 307.8 240.0, 306.5 240.0 L 305.7 240.0 L 305.7 238.9 L 306.4 238.9 Q 307.5 238.9, 308.2 238.4 Q 308.8 237.9, 308.8 237.0 Q 308.8 236.3, 308.3 235.9 Q 307.8 235.5, 306.9 235.5 Q 306.0 235.5, 305.5 235.8 Q 305.0 236.1, 304.5 236.9 L 303.5 236.3 Q 303.9 235.4, 304.8 234.9 Q 305.7 234.3, 306.9 234.3 Q 308.4 234.3, 309.3 235.0 Q 310.2 235.7, 310.2 237.0 Q 310.2 237.8, 309.8 238.4 Q 309.3 239.0, 308.5 239.3 " fill="#000000"/>
<path class="atom-13" d="M 293.9 176.3 Q 293.9 173.7, 295.1 172.4 Q 296.3 171.0, 298.6 171.0 Q 300.8 171.0, 301.9 172.5 L 300.9 173.3 Q 300.1 172.2, 298.6 172.2 Q 297.0 172.2, 296.2 173.3 Q 295.4 174.3, 295.4 176.3 Q 295.4 178.4, 296.2 179.5 Q 297.1 180.5, 298.8 180.5 Q 299.9 180.5, 301.3 179.8 L 301.7 181.0 Q 301.1 181.3, 300.3 181.5 Q 299.5 181.7, 298.6 181.7 Q 296.3 181.7, 295.1 180.3 Q 293.9 178.9, 293.9 176.3 " fill="#000000"/>
<path class="atom-13" d="M 303.0 179.9 L 304.5 179.9 L 304.5 181.3 L 303.0 181.3 L 303.0 179.9 M 303.0 174.8 L 304.5 174.8 L 304.5 176.3 L 303.0 176.3 L 303.0 174.8 " fill="#000000"/>
<path class="atom-13" d="M 305.9 180.4 L 308.2 180.4 L 308.2 172.6 L 305.6 173.4 L 305.3 172.5 L 308.5 171.1 L 309.5 171.3 L 309.5 180.4 L 311.6 180.4 L 311.6 181.6 L 305.9 181.6 L 305.9 180.4 " fill="#000000"/>
<path class="atom-13" d="M 318.8 178.0 L 320.1 178.0 L 320.1 179.2 L 318.8 179.2 L 318.8 181.6 L 317.4 181.6 L 317.4 179.2 L 312.0 179.2 L 312.0 178.3 L 316.6 171.1 L 318.8 171.1 L 318.8 178.0 M 313.8 178.0 L 317.4 178.0 L 317.4 172.1 L 313.8 178.0 " fill="#000000"/>
<path class="atom-14" d="M 307.9 210.6 Q 307.9 208.0, 309.1 206.7 Q 310.3 205.3, 312.6 205.3 Q 314.8 205.3, 315.9 206.8 L 314.9 207.6 Q 314.1 206.5, 312.6 206.5 Q 311.0 206.5, 310.2 207.6 Q 309.4 208.6, 309.4 210.6 Q 309.4 212.7, 310.2 213.7 Q 311.1 214.8, 312.8 214.8 Q 313.9 214.8, 315.3 214.1 L 315.7 215.2 Q 315.1 215.6, 314.3 215.8 Q 313.5 216.0, 312.6 216.0 Q 310.3 216.0, 309.1 214.6 Q 307.9 213.2, 307.9 210.6 " fill="#000000"/>
<path class="atom-14" d="M 317.0 214.1 L 318.5 214.1 L 318.5 215.6 L 317.0 215.6 L 317.0 214.1 M 317.0 209.0 L 318.5 209.0 L 318.5 210.5 L 317.0 210.5 L 317.0 209.0 " fill="#000000"/>
<path class="atom-14" d="M 319.9 214.7 L 322.2 214.7 L 322.2 206.9 L 319.6 207.6 L 319.3 206.8 L 322.5 205.3 L 323.6 205.5 L 323.6 214.7 L 325.6 214.7 L 325.6 215.9 L 319.9 215.9 L 319.9 214.7 " fill="#000000"/>
<path class="atom-14" d="M 330.1 209.3 Q 331.0 209.3, 331.7 209.7 Q 332.5 210.1, 332.9 210.8 Q 333.4 211.6, 333.4 212.5 Q 333.4 213.6, 332.8 214.4 Q 332.3 215.2, 331.4 215.6 Q 330.6 216.0, 329.6 216.0 Q 328.7 216.0, 327.8 215.6 Q 326.9 215.3, 326.3 214.6 L 327.2 213.7 Q 327.7 214.2, 328.3 214.5 Q 329.0 214.8, 329.7 214.8 Q 330.6 214.8, 331.2 214.2 Q 331.9 213.6, 331.9 212.6 Q 331.9 211.5, 331.2 211.0 Q 330.6 210.4, 329.6 210.4 Q 328.7 210.4, 327.6 210.8 L 326.8 210.4 L 327.3 205.4 L 332.7 205.4 L 332.6 206.6 L 328.5 206.6 L 328.2 209.7 Q 329.2 209.3, 330.1 209.3 " fill="#000000"/>
<path class="atom-15" d="M 116.0 247.5 Q 116.0 244.9, 117.2 243.6 Q 118.4 242.2, 120.7 242.2 Q 122.9 242.2, 124.0 243.7 L 123.0 244.5 Q 122.2 243.4, 120.7 243.4 Q 119.1 243.4, 118.3 244.5 Q 117.5 245.5, 117.5 247.5 Q 117.5 249.6, 118.3 250.7 Q 119.2 251.7, 120.9 251.7 Q 122.0 251.7, 123.4 251.0 L 123.8 252.2 Q 123.2 252.5, 122.4 252.7 Q 121.6 252.9, 120.7 252.9 Q 118.4 252.9, 117.2 251.5 Q 116.0 250.1, 116.0 247.5 " fill="#000000"/>
<path class="atom-15" d="M 125.1 251.1 L 126.6 251.1 L 126.6 252.5 L 125.1 252.5 L 125.1 251.1 M 125.1 246.0 L 126.6 246.0 L 126.6 247.5 L 125.1 247.5 L 125.1 246.0 " fill="#000000"/>
<path class="atom-15" d="M 128.0 251.6 L 130.3 251.6 L 130.3 243.8 L 127.7 244.6 L 127.4 243.7 L 130.6 242.3 L 131.7 242.5 L 131.7 251.6 L 133.7 251.6 L 133.7 252.8 L 128.0 252.8 L 128.0 251.6 " fill="#000000"/>
<path class="atom-15" d="M 138.8 246.3 Q 139.7 246.3, 140.4 246.7 Q 141.2 247.1, 141.6 247.8 Q 142.0 248.5, 142.0 249.4 Q 142.0 250.4, 141.5 251.2 Q 141.1 252.0, 140.3 252.5 Q 139.5 252.9, 138.4 252.9 Q 136.6 252.9, 135.6 251.6 Q 134.7 250.4, 134.7 247.9 Q 134.7 245.1, 135.9 243.7 Q 137.0 242.2, 139.3 242.2 Q 139.9 242.2, 140.4 242.4 Q 141.0 242.5, 141.5 242.8 L 141.0 243.8 Q 140.2 243.4, 139.3 243.4 Q 137.8 243.4, 137.0 244.4 Q 136.3 245.3, 136.2 247.3 Q 136.7 246.8, 137.4 246.5 Q 138.1 246.3, 138.8 246.3 M 138.5 251.7 Q 139.0 251.7, 139.5 251.4 Q 139.9 251.1, 140.2 250.6 Q 140.5 250.1, 140.5 249.4 Q 140.5 248.5, 140.0 248.0 Q 139.4 247.4, 138.5 247.4 Q 137.9 247.4, 137.3 247.7 Q 136.6 248.0, 136.2 248.4 Q 136.3 250.1, 136.8 250.9 Q 137.3 251.7, 138.5 251.7 " fill="#000000"/>
<path class="atom-16" d="M 137.2 184.3 Q 137.2 181.7, 138.4 180.3 Q 139.6 179.0, 141.9 179.0 Q 144.1 179.0, 145.2 180.5 L 144.3 181.3 Q 143.4 180.2, 141.9 180.2 Q 140.4 180.2, 139.5 181.2 Q 138.7 182.3, 138.7 184.3 Q 138.7 186.3, 139.5 187.4 Q 140.4 188.5, 142.1 188.5 Q 143.2 188.5, 144.6 187.8 L 145.0 188.9 Q 144.5 189.2, 143.6 189.4 Q 142.8 189.7, 141.9 189.7 Q 139.6 189.7, 138.4 188.3 Q 137.2 186.9, 137.2 184.3 " fill="#000000"/>
<path class="atom-16" d="M 146.3 187.8 L 147.8 187.8 L 147.8 189.3 L 146.3 189.3 L 146.3 187.8 M 146.3 182.7 L 147.8 182.7 L 147.8 184.2 L 146.3 184.2 L 146.3 182.7 " fill="#000000"/>
<path class="atom-16" d="M 149.2 188.3 L 151.5 188.3 L 151.5 180.5 L 149.0 181.3 L 148.6 180.4 L 151.8 179.0 L 152.9 179.2 L 152.9 188.3 L 154.9 188.3 L 154.9 189.5 L 149.2 189.5 L 149.2 188.3 " fill="#000000"/>
<path class="atom-16" d="M 160.7 180.2 L 155.2 180.2 L 155.2 179.1 L 162.1 179.1 L 162.1 180.1 L 157.9 189.5 L 156.5 189.5 L 160.7 180.2 " fill="#000000"/>
<path class="atom-17" d="M 79.4 242.3 Q 79.4 239.7, 80.6 238.3 Q 81.8 236.9, 84.2 236.9 Q 86.3 236.9, 87.5 238.5 L 86.5 239.3 Q 85.6 238.2, 84.2 238.2 Q 82.6 238.2, 81.7 239.2 Q 80.9 240.3, 80.9 242.3 Q 80.9 244.3, 81.8 245.4 Q 82.6 246.5, 84.3 246.5 Q 85.5 246.5, 86.8 245.8 L 87.2 246.9 Q 86.7 247.2, 85.9 247.4 Q 85.0 247.7, 84.1 247.7 Q 81.8 247.7, 80.6 246.3 Q 79.4 244.9, 79.4 242.3 " fill="#000000"/>
<path class="atom-17" d="M 88.6 245.8 L 90.0 245.8 L 90.0 247.3 L 88.6 247.3 L 88.6 245.8 M 88.6 240.7 L 90.0 240.7 L 90.0 242.2 L 88.6 242.2 L 88.6 240.7 " fill="#000000"/>
<path class="atom-17" d="M 91.4 246.3 L 93.7 246.3 L 93.7 238.5 L 91.2 239.3 L 90.8 238.4 L 94.0 237.0 L 95.1 237.2 L 95.1 246.3 L 97.1 246.3 L 97.1 247.5 L 91.4 247.5 L 91.4 246.3 " fill="#000000"/>
<path class="atom-17" d="M 103.4 242.0 Q 104.4 242.4, 104.9 243.0 Q 105.4 243.6, 105.4 244.7 Q 105.4 245.5, 105.0 246.2 Q 104.5 246.9, 103.7 247.3 Q 102.9 247.7, 101.8 247.7 Q 100.1 247.7, 99.1 246.9 Q 98.1 246.1, 98.1 244.7 Q 98.1 243.8, 98.5 243.2 Q 98.9 242.5, 99.9 242.0 Q 99.2 241.6, 98.8 241.1 Q 98.4 240.5, 98.4 239.6 Q 98.4 238.4, 99.3 237.7 Q 100.2 236.9, 101.8 236.9 Q 103.3 236.9, 104.2 237.7 Q 105.1 238.4, 105.1 239.6 Q 105.1 240.4, 104.6 241.0 Q 104.2 241.5, 103.4 242.0 M 101.8 238.1 Q 100.9 238.1, 100.4 238.5 Q 99.9 238.9, 99.9 239.6 Q 99.9 240.2, 100.2 240.5 Q 100.6 240.9, 101.0 241.1 Q 101.5 241.3, 102.4 241.6 Q 103.0 241.2, 103.3 240.7 Q 103.6 240.2, 103.6 239.6 Q 103.6 238.9, 103.1 238.5 Q 102.6 238.1, 101.8 238.1 M 101.8 246.6 Q 102.8 246.6, 103.4 246.0 Q 104.0 245.5, 104.0 244.6 Q 104.0 244.1, 103.7 243.7 Q 103.3 243.4, 102.9 243.2 Q 102.4 243.0, 101.6 242.7 L 100.9 242.5 Q 100.2 242.9, 99.9 243.4 Q 99.5 244.0, 99.5 244.6 Q 99.5 245.5, 100.2 246.0 Q 100.8 246.6, 101.8 246.6 " fill="#000000"/>
<path class="atom-18" d="M 88.6 179.0 Q 88.6 176.4, 89.8 175.1 Q 91.0 173.7, 93.4 173.7 Q 95.5 173.7, 96.7 175.2 L 95.7 176.0 Q 94.8 174.9, 93.4 174.9 Q 91.8 174.9, 90.9 176.0 Q 90.1 177.0, 90.1 179.0 Q 90.1 181.1, 91.0 182.1 Q 91.8 183.2, 93.5 183.2 Q 94.7 183.2, 96.0 182.5 L 96.4 183.6 Q 95.9 184.0, 95.1 184.2 Q 94.2 184.4, 93.3 184.4 Q 91.0 184.4, 89.8 183.0 Q 88.6 181.6, 88.6 179.0 " fill="#000000"/>
<path class="atom-18" d="M 97.8 182.5 L 99.2 182.5 L 99.2 184.0 L 97.8 184.0 L 97.8 182.5 M 97.8 177.4 L 99.2 177.4 L 99.2 178.9 L 97.8 178.9 L 97.8 177.4 " fill="#000000"/>
<path class="atom-18" d="M 100.6 183.1 L 102.9 183.1 L 102.9 175.3 L 100.4 176.0 L 100.0 175.2 L 103.2 173.7 L 104.3 173.9 L 104.3 183.1 L 106.3 183.1 L 106.3 184.3 L 100.6 184.3 L 100.6 183.1 " fill="#000000"/>
<path class="atom-18" d="M 110.7 173.7 Q 112.5 173.7, 113.5 175.0 Q 114.4 176.2, 114.4 178.7 Q 114.4 181.5, 113.2 182.9 Q 112.1 184.4, 109.9 184.4 Q 109.2 184.4, 108.6 184.2 Q 108.1 184.1, 107.6 183.8 L 108.1 182.8 Q 108.9 183.2, 109.8 183.2 Q 111.3 183.2, 112.1 182.2 Q 112.8 181.3, 112.9 179.3 Q 112.4 179.8, 111.7 180.1 Q 111.0 180.3, 110.3 180.3 Q 109.4 180.3, 108.7 179.9 Q 108.0 179.5, 107.6 178.8 Q 107.2 178.1, 107.2 177.2 Q 107.2 176.1, 107.6 175.4 Q 108.1 174.6, 108.9 174.1 Q 109.7 173.7, 110.7 173.7 M 108.6 177.2 Q 108.6 178.1, 109.2 178.6 Q 109.7 179.1, 110.6 179.1 Q 111.2 179.1, 111.8 178.9 Q 112.5 178.6, 112.9 178.2 Q 112.9 176.5, 112.3 175.7 Q 111.8 174.9, 110.7 174.9 Q 110.1 174.9, 109.6 175.2 Q 109.2 175.5, 108.9 176.0 Q 108.6 176.5, 108.6 177.2 " fill="#000000"/>
<path class="atom-19" d="M 65.2 208.0 Q 65.2 205.4, 66.4 204.1 Q 67.6 202.7, 69.9 202.7 Q 72.1 202.7, 73.2 204.2 L 72.3 205.0 Q 71.4 203.9, 69.9 203.9 Q 68.4 203.9, 67.5 205.0 Q 66.7 206.0, 66.7 208.0 Q 66.7 210.1, 67.6 211.1 Q 68.4 212.2, 70.1 212.2 Q 71.3 212.2, 72.6 211.5 L 73.0 212.6 Q 72.5 213.0, 71.6 213.2 Q 70.8 213.4, 69.9 213.4 Q 67.6 213.4, 66.4 212.0 Q 65.2 210.6, 65.2 208.0 " fill="#000000"/>
<path class="atom-19" d="M 74.4 211.5 L 75.8 211.5 L 75.8 213.0 L 74.4 213.0 L 74.4 211.5 M 74.4 206.4 L 75.8 206.4 L 75.8 207.9 L 74.4 207.9 L 74.4 206.4 " fill="#000000"/>
<path class="atom-19" d="M 76.6 204.8 Q 77.0 203.8, 77.9 203.2 Q 78.8 202.7, 80.1 202.7 Q 81.7 202.7, 82.5 203.5 Q 83.4 204.4, 83.4 205.9 Q 83.4 207.5, 82.3 208.9 Q 81.1 210.4, 78.8 212.1 L 83.6 212.1 L 83.6 213.3 L 76.6 213.3 L 76.6 212.3 Q 78.5 210.9, 79.7 209.8 Q 80.8 208.8, 81.4 207.9 Q 82.0 206.9, 82.0 206.0 Q 82.0 205.0, 81.5 204.4 Q 81.0 203.9, 80.1 203.9 Q 79.2 203.9, 78.7 204.2 Q 78.1 204.5, 77.7 205.3 L 76.6 204.8 " fill="#000000"/>
<path class="atom-19" d="M 88.3 213.4 Q 86.4 213.4, 85.5 212.0 Q 84.5 210.5, 84.5 208.0 Q 84.5 205.5, 85.5 204.1 Q 86.4 202.7, 88.3 202.7 Q 90.3 202.7, 91.2 204.1 Q 92.2 205.5, 92.2 208.0 Q 92.2 210.5, 91.2 212.0 Q 90.3 213.4, 88.3 213.4 M 88.3 212.2 Q 89.5 212.2, 90.1 211.1 Q 90.7 210.1, 90.7 208.0 Q 90.7 206.0, 90.1 204.9 Q 89.5 203.9, 88.3 203.9 Q 87.2 203.9, 86.6 204.9 Q 86.0 206.0, 86.0 208.0 Q 86.0 210.1, 86.6 211.1 Q 87.2 212.2, 88.3 212.2 " fill="#000000"/>
<path class="atom-20" d="M 108.6 89.8 L 110.0 89.8 L 110.0 94.2 L 115.4 94.2 L 115.4 89.8 L 116.8 89.8 L 116.8 100.2 L 115.4 100.2 L 115.4 95.4 L 110.0 95.4 L 110.0 100.2 L 108.6 100.2 L 108.6 89.8 " fill="#000000"/>
<path class="atom-20" d="M 117.9 98.5 L 119.4 98.5 L 119.4 100.0 L 117.9 100.0 L 117.9 98.5 M 117.9 93.4 L 119.4 93.4 L 119.4 94.9 L 117.9 94.9 L 117.9 93.4 " fill="#000000"/>
<path class="atom-20" d="M 120.2 91.8 Q 120.5 90.8, 121.5 90.2 Q 122.4 89.7, 123.6 89.7 Q 125.2 89.7, 126.1 90.5 Q 127.0 91.4, 127.0 92.9 Q 127.0 94.5, 125.8 95.9 Q 124.7 97.3, 122.3 99.1 L 127.2 99.1 L 127.2 100.2 L 120.1 100.2 L 120.1 99.3 Q 122.1 97.9, 123.2 96.8 Q 124.4 95.8, 125.0 94.9 Q 125.5 93.9, 125.5 93.0 Q 125.5 92.0, 125.0 91.4 Q 124.5 90.9, 123.6 90.9 Q 122.8 90.9, 122.2 91.2 Q 121.7 91.5, 121.3 92.3 L 120.2 91.8 " fill="#000000"/>
<path class="atom-20" d="M 128.5 99.1 L 130.8 99.1 L 130.8 91.3 L 128.3 92.0 L 128.0 91.2 L 131.2 89.7 L 132.2 89.9 L 132.2 99.1 L 134.3 99.1 L 134.3 100.2 L 128.5 100.2 L 128.5 99.1 " fill="#000000"/>
<path class="atom-21" d="M 113.7 164.5 Q 113.7 162.0, 114.9 160.6 Q 116.1 159.2, 118.4 159.2 Q 120.8 159.2, 122.0 160.6 Q 123.2 162.0, 123.2 164.5 Q 123.2 167.0, 122.0 168.5 Q 120.7 169.9, 118.4 169.9 Q 116.1 169.9, 114.9 168.5 Q 113.7 167.0, 113.7 164.5 M 118.4 168.7 Q 120.0 168.7, 120.9 167.7 Q 121.8 166.6, 121.8 164.5 Q 121.8 162.4, 120.9 161.4 Q 120.0 160.3, 118.4 160.3 Q 116.9 160.3, 116.0 161.4 Q 115.1 162.4, 115.1 164.5 Q 115.1 166.6, 116.0 167.7 Q 116.9 168.7, 118.4 168.7 " fill="#FF0000"/>
<path class="atom-21" d="M 124.4 168.0 L 125.8 168.0 L 125.8 169.5 L 124.4 169.5 L 124.4 168.0 M 124.4 162.9 L 125.8 162.9 L 125.8 164.4 L 124.4 164.4 L 124.4 162.9 " fill="#FF0000"/>
<path class="atom-21" d="M 126.6 161.3 Q 127.0 160.3, 127.9 159.7 Q 128.8 159.2, 130.1 159.2 Q 131.7 159.2, 132.5 160.0 Q 133.4 160.9, 133.4 162.4 Q 133.4 164.0, 132.3 165.4 Q 131.1 166.8, 128.8 168.6 L 133.6 168.6 L 133.6 169.7 L 126.6 169.7 L 126.6 168.7 Q 128.5 167.4, 129.7 166.3 Q 130.8 165.3, 131.4 164.4 Q 132.0 163.4, 132.0 162.5 Q 132.0 161.5, 131.5 160.9 Q 131.0 160.3, 130.1 160.3 Q 129.2 160.3, 128.7 160.7 Q 128.1 161.0, 127.7 161.8 L 126.6 161.3 " fill="#FF0000"/>
<path class="atom-21" d="M 134.4 161.3 Q 134.8 160.3, 135.7 159.7 Q 136.6 159.2, 137.9 159.2 Q 139.4 159.2, 140.3 160.0 Q 141.2 160.9, 141.2 162.4 Q 141.2 164.0, 140.1 165.4 Q 138.9 166.8, 136.6 168.6 L 141.4 168.6 L 141.4 169.7 L 134.3 169.7 L 134.3 168.7 Q 136.3 167.4, 137.4 166.3 Q 138.6 165.3, 139.2 164.4 Q 139.7 163.4, 139.7 162.5 Q 139.7 161.5, 139.2 160.9 Q 138.7 160.3, 137.9 160.3 Q 137.0 160.3, 136.5 160.7 Q 135.9 161.0, 135.5 161.8 L 134.4 161.3 " fill="#FF0000"/>
<path class="atom-22" d="M 219.0 258.1 L 220.4 258.1 L 220.4 262.6 L 225.8 262.6 L 225.8 258.1 L 227.2 258.1 L 227.2 268.6 L 225.8 268.6 L 225.8 263.8 L 220.4 263.8 L 220.4 268.6 L 219.0 268.6 L 219.0 258.1 " fill="#000000"/>
<path class="atom-22" d="M 228.3 266.9 L 229.8 266.9 L 229.8 268.3 L 228.3 268.3 L 228.3 266.9 M 228.3 261.8 L 229.8 261.8 L 229.8 263.3 L 228.3 263.3 L 228.3 261.8 " fill="#000000"/>
<path class="atom-22" d="M 230.5 260.1 Q 230.9 259.1, 231.8 258.6 Q 232.7 258.0, 234.0 258.0 Q 235.6 258.0, 236.5 258.9 Q 237.4 259.7, 237.4 261.2 Q 237.4 262.8, 236.2 264.2 Q 235.1 265.7, 232.7 267.4 L 237.5 267.4 L 237.5 268.6 L 230.5 268.6 L 230.5 267.6 Q 232.4 266.2, 233.6 265.2 Q 234.8 264.1, 235.3 263.2 Q 235.9 262.3, 235.9 261.3 Q 235.9 260.3, 235.4 259.8 Q 234.9 259.2, 234.0 259.2 Q 233.2 259.2, 232.6 259.5 Q 232.0 259.9, 231.6 260.6 L 230.5 260.1 " fill="#000000"/>
<path class="atom-22" d="M 243.2 263.1 Q 244.2 263.4, 244.7 264.0 Q 245.2 264.7, 245.2 265.7 Q 245.2 266.6, 244.7 267.3 Q 244.3 268.0, 243.5 268.4 Q 242.7 268.7, 241.6 268.7 Q 240.5 268.7, 239.6 268.3 Q 238.8 268.0, 238.2 267.2 L 239.0 266.3 Q 239.6 267.0, 240.2 267.3 Q 240.7 267.6, 241.6 267.6 Q 242.6 267.6, 243.1 267.0 Q 243.7 266.5, 243.7 265.7 Q 243.7 264.6, 243.1 264.2 Q 242.5 263.7, 241.2 263.7 L 240.5 263.7 L 240.5 262.6 L 241.1 262.6 Q 242.3 262.6, 242.9 262.1 Q 243.5 261.6, 243.5 260.7 Q 243.5 260.0, 243.0 259.6 Q 242.5 259.2, 241.6 259.2 Q 240.8 259.2, 240.2 259.5 Q 239.7 259.8, 239.3 260.6 L 238.2 260.1 Q 238.6 259.2, 239.5 258.6 Q 240.4 258.0, 241.6 258.0 Q 243.2 258.0, 244.1 258.7 Q 245.0 259.5, 245.0 260.7 Q 245.0 261.5, 244.5 262.1 Q 244.0 262.7, 243.2 263.1 " fill="#000000"/>
<path class="atom-23" d="M 260.1 130.2 L 261.5 130.2 L 261.5 134.6 L 266.9 134.6 L 266.9 130.2 L 268.3 130.2 L 268.3 140.6 L 266.9 140.6 L 266.9 135.8 L 261.5 135.8 L 261.5 140.6 L 260.1 140.6 L 260.1 130.2 " fill="#000000"/>
<path class="atom-23" d="M 269.4 138.9 L 270.9 138.9 L 270.9 140.4 L 269.4 140.4 L 269.4 138.9 M 269.4 133.8 L 270.9 133.8 L 270.9 135.3 L 269.4 135.3 L 269.4 133.8 " fill="#000000"/>
<path class="atom-23" d="M 271.6 132.2 Q 272.0 131.2, 272.9 130.6 Q 273.8 130.1, 275.1 130.1 Q 276.7 130.1, 277.6 130.9 Q 278.5 131.8, 278.5 133.3 Q 278.5 134.9, 277.3 136.3 Q 276.2 137.7, 273.8 139.5 L 278.6 139.5 L 278.6 140.6 L 271.6 140.6 L 271.6 139.7 Q 273.5 138.3, 274.7 137.2 Q 275.9 136.2, 276.4 135.3 Q 277.0 134.3, 277.0 133.4 Q 277.0 132.4, 276.5 131.8 Q 276.0 131.3, 275.1 131.3 Q 274.3 131.3, 273.7 131.6 Q 273.1 131.9, 272.8 132.7 L 271.6 132.2 " fill="#000000"/>
<path class="atom-23" d="M 285.9 137.1 L 287.1 137.1 L 287.1 138.2 L 285.9 138.2 L 285.9 140.6 L 284.5 140.6 L 284.5 138.2 L 279.1 138.2 L 279.1 137.3 L 283.7 130.2 L 285.9 130.2 L 285.9 137.1 M 280.8 137.1 L 284.5 137.1 L 284.5 131.1 L 280.8 137.1 " fill="#000000"/>
<path class="atom-24" d="M 310.6 268.7 L 312.0 268.7 L 312.0 273.1 L 317.4 273.1 L 317.4 268.7 L 318.8 268.7 L 318.8 279.1 L 317.4 279.1 L 317.4 274.3 L 312.0 274.3 L 312.0 279.1 L 310.6 279.1 L 310.6 268.7 " fill="#000000"/>
<path class="atom-24" d="M 319.9 277.4 L 321.4 277.4 L 321.4 278.9 L 319.9 278.9 L 319.9 277.4 M 319.9 272.3 L 321.4 272.3 L 321.4 273.8 L 319.9 273.8 L 319.9 272.3 " fill="#000000"/>
<path class="atom-24" d="M 322.2 270.6 Q 322.5 269.7, 323.5 269.1 Q 324.4 268.5, 325.6 268.5 Q 327.2 268.5, 328.1 269.4 Q 329.0 270.3, 329.0 271.8 Q 329.0 273.3, 327.8 274.8 Q 326.7 276.2, 324.3 277.9 L 329.2 277.9 L 329.2 279.1 L 322.1 279.1 L 322.1 278.1 Q 324.1 276.7, 325.2 275.7 Q 326.4 274.7, 327.0 273.7 Q 327.5 272.8, 327.5 271.9 Q 327.5 270.9, 327.0 270.3 Q 326.5 269.7, 325.6 269.7 Q 324.8 269.7, 324.2 270.1 Q 323.7 270.4, 323.3 271.2 L 322.2 270.6 " fill="#000000"/>
<path class="atom-24" d="M 333.6 272.6 Q 334.6 272.6, 335.3 273.0 Q 336.1 273.4, 336.5 274.1 Q 336.9 274.8, 336.9 275.8 Q 336.9 276.9, 336.4 277.7 Q 335.9 278.4, 335.0 278.8 Q 334.2 279.2, 333.2 279.2 Q 332.2 279.2, 331.3 278.9 Q 330.5 278.5, 329.8 277.8 L 330.7 276.9 Q 331.2 277.5, 331.9 277.8 Q 332.6 278.0, 333.2 278.0 Q 334.2 278.0, 334.8 277.5 Q 335.4 276.9, 335.4 275.8 Q 335.4 274.7, 334.8 274.2 Q 334.2 273.7, 333.1 273.7 Q 332.2 273.7, 331.2 274.1 L 330.4 273.7 L 330.9 268.7 L 336.3 268.7 L 336.1 269.8 L 332.1 269.8 L 331.8 272.9 Q 332.7 272.6, 333.6 272.6 " fill="#000000"/>
<path class="atom-25" d="M 328.9 142.1 L 330.3 142.1 L 330.3 146.6 L 335.6 146.6 L 335.6 142.1 L 337.1 142.1 L 337.1 152.6 L 335.6 152.6 L 335.6 147.8 L 330.3 147.8 L 330.3 152.6 L 328.9 152.6 L 328.9 142.1 " fill="#000000"/>
<path class="atom-25" d="M 338.2 150.9 L 339.6 150.9 L 339.6 152.3 L 338.2 152.3 L 338.2 150.9 M 338.2 145.8 L 339.6 145.8 L 339.6 147.3 L 338.2 147.3 L 338.2 145.8 " fill="#000000"/>
<path class="atom-25" d="M 340.4 144.1 Q 340.8 143.1, 341.7 142.6 Q 342.6 142.0, 343.9 142.0 Q 345.5 142.0, 346.4 142.9 Q 347.2 143.7, 347.2 145.3 Q 347.2 146.8, 346.1 148.2 Q 344.9 149.7, 342.6 151.4 L 347.4 151.4 L 347.4 152.6 L 340.4 152.6 L 340.4 151.6 Q 342.3 150.2, 343.5 149.2 Q 344.6 148.1, 345.2 147.2 Q 345.8 146.3, 345.8 145.3 Q 345.8 144.3, 345.3 143.8 Q 344.8 143.2, 343.9 143.2 Q 343.0 143.2, 342.5 143.5 Q 341.9 143.9, 341.5 144.6 L 340.4 144.1 " fill="#000000"/>
<path class="atom-25" d="M 352.5 146.1 Q 353.4 146.1, 354.1 146.5 Q 354.9 146.9, 355.3 147.6 Q 355.7 148.3, 355.7 149.2 Q 355.7 150.2, 355.2 151.0 Q 354.8 151.8, 354.0 152.3 Q 353.2 152.7, 352.2 152.7 Q 350.3 152.7, 349.3 151.5 Q 348.4 150.2, 348.4 147.7 Q 348.4 144.9, 349.6 143.5 Q 350.7 142.0, 353.0 142.0 Q 353.6 142.0, 354.2 142.2 Q 354.7 142.3, 355.3 142.6 L 354.7 143.6 Q 353.9 143.2, 353.0 143.2 Q 351.5 143.2, 350.7 144.2 Q 350.0 145.1, 349.9 147.1 Q 350.4 146.6, 351.1 146.3 Q 351.8 146.1, 352.5 146.1 M 352.2 151.5 Q 352.7 151.5, 353.2 151.2 Q 353.7 150.9, 353.9 150.4 Q 354.2 149.9, 354.2 149.2 Q 354.2 148.3, 353.7 147.8 Q 353.2 147.2, 352.2 147.2 Q 351.6 147.2, 351.0 147.5 Q 350.4 147.8, 349.9 148.2 Q 350.0 149.9, 350.5 150.7 Q 351.1 151.5, 352.2 151.5 " fill="#000000"/>
<path class="atom-26" d="M 356.3 210.7 L 357.7 210.7 L 357.7 215.1 L 363.0 215.1 L 363.0 210.7 L 364.5 210.7 L 364.5 221.1 L 363.0 221.1 L 363.0 216.3 L 357.7 216.3 L 357.7 221.1 L 356.3 221.1 L 356.3 210.7 " fill="#000000"/>
<path class="atom-26" d="M 365.6 219.4 L 367.0 219.4 L 367.0 220.9 L 365.6 220.9 L 365.6 219.4 M 365.6 214.3 L 367.0 214.3 L 367.0 215.8 L 365.6 215.8 L 365.6 214.3 " fill="#000000"/>
<path class="atom-26" d="M 367.8 212.6 Q 368.2 211.7, 369.1 211.1 Q 370.0 210.6, 371.3 210.6 Q 372.9 210.6, 373.8 211.4 Q 374.6 212.3, 374.6 213.8 Q 374.6 215.3, 373.5 216.8 Q 372.4 218.2, 370.0 219.9 L 374.8 219.9 L 374.8 221.1 L 367.8 221.1 L 367.8 220.1 Q 369.7 218.7, 370.9 217.7 Q 372.0 216.7, 372.6 215.7 Q 373.2 214.8, 373.2 213.9 Q 373.2 212.9, 372.7 212.3 Q 372.2 211.7, 371.3 211.7 Q 370.4 211.7, 369.9 212.1 Q 369.3 212.4, 368.9 213.2 L 367.8 212.6 " fill="#000000"/>
<path class="atom-26" d="M 380.6 211.8 L 375.1 211.8 L 375.1 210.7 L 382.0 210.7 L 382.0 211.7 L 377.8 221.1 L 376.4 221.1 L 380.6 211.8 " fill="#000000"/>
<path class="atom-27" d="M 141.7 276.6 L 143.1 276.6 L 143.1 281.0 L 148.5 281.0 L 148.5 276.6 L 149.9 276.6 L 149.9 287.1 L 148.5 287.1 L 148.5 282.2 L 143.1 282.2 L 143.1 287.1 L 141.7 287.1 L 141.7 276.6 " fill="#000000"/>
<path class="atom-27" d="M 151.0 285.3 L 152.5 285.3 L 152.5 286.8 L 151.0 286.8 L 151.0 285.3 M 151.0 280.2 L 152.5 280.2 L 152.5 281.7 L 151.0 281.7 L 151.0 280.2 " fill="#000000"/>
<path class="atom-27" d="M 153.2 278.6 Q 153.6 277.6, 154.5 277.0 Q 155.4 276.5, 156.7 276.5 Q 158.3 276.5, 159.2 277.3 Q 160.1 278.2, 160.1 279.7 Q 160.1 281.3, 158.9 282.7 Q 157.8 284.2, 155.4 285.9 L 160.2 285.9 L 160.2 287.1 L 153.2 287.1 L 153.2 286.1 Q 155.1 284.7, 156.3 283.6 Q 157.5 282.6, 158.0 281.7 Q 158.6 280.7, 158.6 279.8 Q 158.6 278.8, 158.1 278.2 Q 157.6 277.7, 156.7 277.7 Q 155.9 277.7, 155.3 278.0 Q 154.7 278.3, 154.4 279.1 L 153.2 278.6 " fill="#000000"/>
<path class="atom-27" d="M 166.5 281.5 Q 167.4 281.9, 168.0 282.5 Q 168.5 283.2, 168.5 284.2 Q 168.5 285.1, 168.1 285.8 Q 167.6 286.4, 166.8 286.8 Q 166.0 287.2, 164.9 287.2 Q 163.2 287.2, 162.2 286.4 Q 161.2 285.6, 161.2 284.2 Q 161.2 283.3, 161.6 282.7 Q 162.0 282.0, 163.0 281.6 Q 162.3 281.2, 161.9 280.6 Q 161.5 280.0, 161.5 279.2 Q 161.5 277.9, 162.4 277.2 Q 163.3 276.5, 164.8 276.5 Q 166.4 276.5, 167.3 277.2 Q 168.2 277.9, 168.2 279.2 Q 168.2 279.9, 167.7 280.5 Q 167.3 281.1, 166.5 281.5 M 164.8 277.6 Q 164.0 277.6, 163.5 278.0 Q 163.0 278.4, 163.0 279.2 Q 163.0 279.7, 163.3 280.1 Q 163.7 280.4, 164.1 280.6 Q 164.6 280.8, 165.5 281.1 Q 166.1 280.7, 166.4 280.2 Q 166.7 279.8, 166.7 279.2 Q 166.7 278.4, 166.2 278.0 Q 165.7 277.6, 164.8 277.6 M 164.9 286.1 Q 165.9 286.1, 166.5 285.6 Q 167.1 285.0, 167.1 284.2 Q 167.1 283.6, 166.7 283.3 Q 166.4 282.9, 166.0 282.7 Q 165.5 282.5, 164.7 282.2 L 164.0 282.0 Q 163.3 282.4, 163.0 283.0 Q 162.6 283.5, 162.6 284.2 Q 162.6 285.0, 163.3 285.6 Q 163.9 286.1, 164.9 286.1 " fill="#000000"/>
<path class="atom-28" d="M 145.2 161.2 L 146.6 161.2 L 146.6 165.6 L 151.9 165.6 L 151.9 161.2 L 153.3 161.2 L 153.3 171.6 L 151.9 171.6 L 151.9 166.8 L 146.6 166.8 L 146.6 171.6 L 145.2 171.6 L 145.2 161.2 " fill="#000000"/>
<path class="atom-28" d="M 154.4 169.9 L 155.9 169.9 L 155.9 171.4 L 154.4 171.4 L 154.4 169.9 M 154.4 164.8 L 155.9 164.8 L 155.9 166.3 L 154.4 166.3 L 154.4 164.8 " fill="#000000"/>
<path class="atom-28" d="M 156.7 163.2 Q 157.1 162.2, 158.0 161.6 Q 158.9 161.1, 160.2 161.1 Q 161.8 161.1, 162.6 161.9 Q 163.5 162.8, 163.5 164.3 Q 163.5 165.8, 162.4 167.3 Q 161.2 168.7, 158.9 170.5 L 163.7 170.5 L 163.7 171.6 L 156.7 171.6 L 156.7 170.6 Q 158.6 169.3, 159.8 168.2 Q 160.9 167.2, 161.5 166.3 Q 162.0 165.3, 162.0 164.4 Q 162.0 163.4, 161.5 162.8 Q 161.0 162.2, 160.2 162.2 Q 159.3 162.2, 158.8 162.6 Q 158.2 162.9, 157.8 163.7 L 156.7 163.2 " fill="#000000"/>
<path class="atom-28" d="M 168.0 161.1 Q 169.9 161.1, 170.8 162.3 Q 171.8 163.6, 171.8 166.1 Q 171.8 168.9, 170.6 170.3 Q 169.4 171.7, 167.2 171.7 Q 166.6 171.7, 166.0 171.6 Q 165.5 171.5, 164.9 171.1 L 165.5 170.2 Q 166.3 170.6, 167.2 170.6 Q 168.7 170.6, 169.4 169.6 Q 170.2 168.7, 170.3 166.7 Q 169.7 167.2, 169.1 167.5 Q 168.4 167.7, 167.7 167.7 Q 166.8 167.7, 166.0 167.3 Q 165.3 166.9, 164.9 166.2 Q 164.5 165.5, 164.5 164.5 Q 164.5 163.5, 165.0 162.7 Q 165.4 161.9, 166.2 161.5 Q 167.0 161.1, 168.0 161.1 M 166.0 164.5 Q 166.0 165.5, 166.5 166.0 Q 167.0 166.5, 167.9 166.5 Q 168.6 166.5, 169.2 166.3 Q 169.8 166.0, 170.3 165.6 Q 170.2 163.8, 169.7 163.1 Q 169.1 162.3, 168.0 162.3 Q 167.4 162.3, 167.0 162.6 Q 166.5 162.9, 166.3 163.4 Q 166.0 163.9, 166.0 164.5 " fill="#000000"/>
<path class="atom-29" d="M 49.6 266.1 L 51.0 266.1 L 51.0 270.5 L 56.4 270.5 L 56.4 266.1 L 57.8 266.1 L 57.8 276.5 L 56.4 276.5 L 56.4 271.7 L 51.0 271.7 L 51.0 276.5 L 49.6 276.5 L 49.6 266.1 " fill="#000000"/>
<path class="atom-29" d="M 58.9 274.8 L 60.4 274.8 L 60.4 276.3 L 58.9 276.3 L 58.9 274.8 M 58.9 269.7 L 60.4 269.7 L 60.4 271.2 L 58.9 271.2 L 58.9 269.7 " fill="#000000"/>
<path class="atom-29" d="M 66.0 271.0 Q 67.0 271.3, 67.5 272.0 Q 68.0 272.6, 68.0 273.7 Q 68.0 274.5, 67.6 275.2 Q 67.1 275.9, 66.3 276.3 Q 65.5 276.7, 64.4 276.7 Q 63.3 276.7, 62.5 276.3 Q 61.6 275.9, 61.0 275.1 L 61.8 274.2 Q 62.5 274.9, 63.0 275.2 Q 63.6 275.5, 64.4 275.5 Q 65.4 275.5, 66.0 275.0 Q 66.5 274.5, 66.5 273.6 Q 66.5 272.6, 65.9 272.1 Q 65.3 271.6, 64.1 271.6 L 63.3 271.6 L 63.3 270.6 L 64.0 270.6 Q 65.1 270.5, 65.7 270.1 Q 66.3 269.6, 66.3 268.6 Q 66.3 267.9, 65.8 267.5 Q 65.3 267.1, 64.5 267.1 Q 63.6 267.1, 63.0 267.4 Q 62.5 267.7, 62.1 268.5 L 61.1 268.0 Q 61.4 267.1, 62.3 266.5 Q 63.2 265.9, 64.5 265.9 Q 66.0 265.9, 66.9 266.7 Q 67.8 267.4, 67.8 268.6 Q 67.8 269.5, 67.3 270.1 Q 66.9 270.7, 66.0 271.0 " fill="#000000"/>
<path class="atom-29" d="M 72.7 276.6 Q 70.8 276.6, 69.9 275.2 Q 68.9 273.8, 68.9 271.3 Q 68.9 268.8, 69.9 267.4 Q 70.8 265.9, 72.7 265.9 Q 74.7 265.9, 75.6 267.4 Q 76.6 268.8, 76.6 271.3 Q 76.6 273.8, 75.6 275.2 Q 74.7 276.6, 72.7 276.6 M 72.7 275.5 Q 73.9 275.5, 74.5 274.4 Q 75.1 273.3, 75.1 271.3 Q 75.1 269.2, 74.5 268.2 Q 73.9 267.1, 72.7 267.1 Q 71.6 267.1, 71.0 268.2 Q 70.4 269.2, 70.4 271.3 Q 70.4 273.3, 71.0 274.4 Q 71.6 275.5, 72.7 275.5 " fill="#000000"/>
<path class="atom-30" d="M 68.6 139.5 L 70.0 139.5 L 70.0 144.0 L 75.4 144.0 L 75.4 139.5 L 76.8 139.5 L 76.8 150.0 L 75.4 150.0 L 75.4 145.2 L 70.0 145.2 L 70.0 150.0 L 68.6 150.0 L 68.6 139.5 " fill="#000000"/>
<path class="atom-30" d="M 77.9 148.3 L 79.4 148.3 L 79.4 149.7 L 77.9 149.7 L 77.9 148.3 M 77.9 143.2 L 79.4 143.2 L 79.4 144.7 L 77.9 144.7 L 77.9 143.2 " fill="#000000"/>
<path class="atom-30" d="M 85.0 144.5 Q 86.0 144.8, 86.5 145.4 Q 87.0 146.1, 87.0 147.1 Q 87.0 148.0, 86.6 148.7 Q 86.1 149.4, 85.3 149.8 Q 84.5 150.1, 83.5 150.1 Q 82.3 150.1, 81.5 149.8 Q 80.7 149.4, 80.0 148.6 L 80.8 147.7 Q 81.5 148.4, 82.0 148.7 Q 82.6 149.0, 83.5 149.0 Q 84.4 149.0, 85.0 148.5 Q 85.6 147.9, 85.6 147.1 Q 85.6 146.0, 84.9 145.6 Q 84.4 145.1, 83.1 145.1 L 82.3 145.1 L 82.3 144.0 L 83.0 144.0 Q 84.1 144.0, 84.7 143.5 Q 85.3 143.0, 85.3 142.1 Q 85.3 141.4, 84.8 141.0 Q 84.3 140.6, 83.5 140.6 Q 82.6 140.6, 82.1 140.9 Q 81.5 141.2, 81.1 142.0 L 80.1 141.5 Q 80.5 140.6, 81.3 140.0 Q 82.2 139.4, 83.5 139.4 Q 85.0 139.4, 85.9 140.1 Q 86.8 140.9, 86.8 142.1 Q 86.8 142.9, 86.4 143.5 Q 85.9 144.1, 85.0 144.5 " fill="#000000"/>
<path class="atom-30" d="M 88.4 148.8 L 90.7 148.8 L 90.7 141.0 L 88.2 141.8 L 87.8 140.9 L 91.0 139.5 L 92.1 139.7 L 92.1 148.8 L 94.1 148.8 L 94.1 150.0 L 88.4 150.0 L 88.4 148.8 " fill="#000000"/>
<path class="atom-31" d="M 252.4 117.2 L 253.8 117.2 L 253.8 121.6 L 259.1 121.6 L 259.1 117.2 L 260.6 117.2 L 260.6 127.6 L 259.1 127.6 L 259.1 122.8 L 253.8 122.8 L 253.8 127.6 L 252.4 127.6 L 252.4 117.2 " fill="#000000"/>
<path class="atom-31" d="M 261.7 125.9 L 263.1 125.9 L 263.1 127.4 L 261.7 127.4 L 261.7 125.9 M 261.7 120.8 L 263.1 120.8 L 263.1 122.3 L 261.7 122.3 L 261.7 120.8 " fill="#000000"/>
<path class="atom-31" d="M 268.8 122.1 Q 269.8 122.4, 270.3 123.1 Q 270.8 123.8, 270.8 124.8 Q 270.8 125.7, 270.4 126.4 Q 269.9 127.0, 269.1 127.4 Q 268.3 127.8, 267.2 127.8 Q 266.1 127.8, 265.3 127.4 Q 264.4 127.0, 263.8 126.2 L 264.6 125.4 Q 265.3 126.1, 265.8 126.3 Q 266.4 126.6, 267.2 126.6 Q 268.2 126.6, 268.7 126.1 Q 269.3 125.6, 269.3 124.8 Q 269.3 123.7, 268.7 123.2 Q 268.1 122.7, 266.8 122.7 L 266.1 122.7 L 266.1 121.7 L 266.8 121.7 Q 267.9 121.7, 268.5 121.2 Q 269.1 120.7, 269.1 119.7 Q 269.1 119.1, 268.6 118.7 Q 268.1 118.3, 267.2 118.3 Q 266.4 118.3, 265.8 118.6 Q 265.3 118.9, 264.9 119.7 L 263.9 119.1 Q 264.2 118.2, 265.1 117.7 Q 266.0 117.1, 267.2 117.1 Q 268.8 117.1, 269.7 117.8 Q 270.6 118.5, 270.6 119.7 Q 270.6 120.6, 270.1 121.2 Q 269.7 121.8, 268.8 122.1 " fill="#000000"/>
<path class="atom-31" d="M 271.6 119.2 Q 271.9 118.2, 272.9 117.6 Q 273.8 117.1, 275.0 117.1 Q 276.6 117.1, 277.5 117.9 Q 278.4 118.8, 278.4 120.3 Q 278.4 121.9, 277.2 123.3 Q 276.1 124.8, 273.7 126.5 L 278.6 126.5 L 278.6 127.6 L 271.5 127.6 L 271.5 126.7 Q 273.5 125.3, 274.6 124.2 Q 275.8 123.2, 276.4 122.3 Q 276.9 121.3, 276.9 120.4 Q 276.9 119.4, 276.4 118.8 Q 275.9 118.3, 275.0 118.3 Q 274.2 118.3, 273.6 118.6 Q 273.1 118.9, 272.7 119.7 L 271.6 119.2 " fill="#000000"/>
<path class="atom-32" d="M 201.6 60.0 L 203.0 60.0 L 203.0 64.4 L 208.3 64.4 L 208.3 60.0 L 209.8 60.0 L 209.8 70.4 L 208.3 70.4 L 208.3 65.6 L 203.0 65.6 L 203.0 70.4 L 201.6 70.4 L 201.6 60.0 " fill="#000000"/>
<path class="atom-32" d="M 210.9 68.7 L 212.3 68.7 L 212.3 70.2 L 210.9 70.2 L 210.9 68.7 M 210.9 63.6 L 212.3 63.6 L 212.3 65.1 L 210.9 65.1 L 210.9 63.6 " fill="#000000"/>
<path class="atom-32" d="M 218.0 64.9 Q 219.0 65.2, 219.5 65.9 Q 220.0 66.5, 220.0 67.6 Q 220.0 68.5, 219.5 69.1 Q 219.1 69.8, 218.3 70.2 Q 217.5 70.6, 216.4 70.6 Q 215.3 70.6, 214.4 70.2 Q 213.6 69.8, 213.0 69.0 L 213.8 68.1 Q 214.4 68.9, 215.0 69.1 Q 215.5 69.4, 216.4 69.4 Q 217.4 69.4, 217.9 68.9 Q 218.5 68.4, 218.5 67.6 Q 218.5 66.5, 217.9 66.0 Q 217.3 65.5, 216.0 65.5 L 215.3 65.5 L 215.3 64.5 L 215.9 64.5 Q 217.1 64.5, 217.7 64.0 Q 218.3 63.5, 218.3 62.5 Q 218.3 61.9, 217.8 61.5 Q 217.3 61.0, 216.4 61.0 Q 215.6 61.0, 215.0 61.4 Q 214.5 61.7, 214.1 62.4 L 213.0 61.9 Q 213.4 61.0, 214.3 60.5 Q 215.2 59.9, 216.4 59.9 Q 218.0 59.9, 218.9 60.6 Q 219.8 61.3, 219.8 62.5 Q 219.8 63.4, 219.3 64.0 Q 218.8 64.6, 218.0 64.9 " fill="#000000"/>
<path class="atom-32" d="M 225.6 64.9 Q 226.6 65.2, 227.1 65.9 Q 227.6 66.5, 227.6 67.6 Q 227.6 68.5, 227.2 69.1 Q 226.7 69.8, 225.9 70.2 Q 225.1 70.6, 224.1 70.6 Q 222.9 70.6, 222.1 70.2 Q 221.3 69.8, 220.6 69.0 L 221.4 68.1 Q 222.1 68.9, 222.6 69.1 Q 223.2 69.4, 224.1 69.4 Q 225.0 69.4, 225.6 68.9 Q 226.2 68.4, 226.2 67.6 Q 226.2 66.5, 225.5 66.0 Q 225.0 65.5, 223.7 65.5 L 222.9 65.5 L 222.9 64.5 L 223.6 64.5 Q 224.7 64.5, 225.3 64.0 Q 225.9 63.5, 225.9 62.5 Q 225.9 61.9, 225.4 61.5 Q 224.9 61.0, 224.1 61.0 Q 223.2 61.0, 222.7 61.4 Q 222.1 61.7, 221.7 62.4 L 220.7 61.9 Q 221.1 61.0, 221.9 60.5 Q 222.8 59.9, 224.1 59.9 Q 225.6 59.9, 226.5 60.6 Q 227.4 61.3, 227.4 62.5 Q 227.4 63.4, 226.9 64.0 Q 226.5 64.6, 225.6 64.9 " fill="#000000"/>
<path class="atom-33" d="M 22.5 197.5 L 23.9 197.5 L 23.9 202.0 L 29.2 202.0 L 29.2 197.5 L 30.6 197.5 L 30.6 208.0 L 29.2 208.0 L 29.2 203.2 L 23.9 203.2 L 23.9 208.0 L 22.5 208.0 L 22.5 197.5 " fill="#000000"/>
<path class="atom-33" d="M 31.7 206.3 L 33.2 206.3 L 33.2 207.7 L 31.7 207.7 L 31.7 206.3 M 31.7 201.2 L 33.2 201.2 L 33.2 202.7 L 31.7 202.7 L 31.7 201.2 " fill="#000000"/>
<path class="atom-33" d="M 38.9 202.5 Q 39.9 202.8, 40.4 203.4 Q 40.9 204.1, 40.9 205.1 Q 40.9 206.0, 40.4 206.7 Q 40.0 207.4, 39.2 207.8 Q 38.4 208.1, 37.3 208.1 Q 36.2 208.1, 35.3 207.7 Q 34.5 207.4, 33.8 206.6 L 34.7 205.7 Q 35.3 206.4, 35.9 206.7 Q 36.4 207.0, 37.3 207.0 Q 38.2 207.0, 38.8 206.5 Q 39.4 205.9, 39.4 205.1 Q 39.4 204.0, 38.8 203.6 Q 38.2 203.1, 36.9 203.1 L 36.2 203.1 L 36.2 202.0 L 36.8 202.0 Q 38.0 202.0, 38.6 201.5 Q 39.2 201.0, 39.2 200.1 Q 39.2 199.4, 38.7 199.0 Q 38.2 198.6, 37.3 198.6 Q 36.4 198.6, 35.9 198.9 Q 35.4 199.2, 34.9 200.0 L 33.9 199.5 Q 34.3 198.6, 35.2 198.0 Q 36.1 197.4, 37.3 197.4 Q 38.8 197.4, 39.7 198.1 Q 40.6 198.9, 40.6 200.1 Q 40.6 200.9, 40.2 201.5 Q 39.7 202.1, 38.9 202.5 " fill="#000000"/>
<path class="atom-33" d="M 48.1 204.4 L 49.4 204.4 L 49.4 205.6 L 48.1 205.6 L 48.1 208.0 L 46.7 208.0 L 46.7 205.6 L 41.3 205.6 L 41.3 204.6 L 45.9 197.5 L 48.1 197.5 L 48.1 204.4 M 43.0 204.4 L 46.7 204.4 L 46.7 198.5 L 43.0 204.4 " fill="#000000"/>
<path d="M 155.9 390.5 L 158.4 390.5 L 158.4 382.1 L 155.6 382.9 L 155.3 382.0 L 158.7 380.4 L 159.9 380.6 L 159.9 390.5 L 162.1 390.5 L 162.1 391.8 L 155.9 391.8 L 155.9 390.5 " fill="#000000"/>
<path d="M 170.3 392.6 L 170.3 393.9 L 162.1 393.9 L 162.1 392.6 L 170.3 392.6 " fill="#000000"/>
<path d="M 176.5 381.8 L 170.6 381.8 L 170.6 380.5 L 178.1 380.5 L 178.1 381.6 L 173.5 391.8 L 172.0 391.8 L 176.5 381.8 " fill="#000000"/>
<path d="M 186.2 392.6 L 186.2 393.9 L 178.1 393.9 L 178.1 392.6 L 186.2 392.6 " fill="#000000"/>
<path d="M 187.6 380.4 L 189.2 380.4 L 189.2 391.8 L 187.6 391.8 L 187.6 380.4 " fill="#000000"/>
<path d="M 194.8 383.4 Q 196.1 383.4, 196.8 384.2 Q 197.5 385.0, 197.5 386.4 L 197.5 391.8 L 196.0 391.8 L 196.0 386.5 Q 196.0 385.5, 195.6 385.1 Q 195.2 384.6, 194.4 384.6 Q 193.6 384.6, 193.0 385.0 Q 192.4 385.3, 192.0 385.9 L 192.0 391.8 L 190.5 391.8 L 190.5 383.6 L 191.7 383.6 L 191.9 384.7 Q 193.0 383.4, 194.8 383.4 " fill="#000000"/>
<path d="M 205.7 379.7 L 205.7 391.8 L 204.5 391.8 L 204.2 390.8 Q 203.3 391.9, 201.8 391.9 Q 200.1 391.9, 199.1 390.9 Q 198.2 389.8, 198.2 387.8 Q 198.2 385.8, 199.3 384.6 Q 200.5 383.4, 202.4 383.4 Q 203.3 383.4, 204.2 383.7 L 204.2 379.7 L 205.7 379.7 M 201.9 390.8 Q 202.7 390.8, 203.3 390.3 Q 203.9 389.8, 204.2 389.0 L 204.2 384.9 Q 203.4 384.6, 202.4 384.6 Q 201.2 384.6, 200.5 385.5 Q 199.7 386.3, 199.7 387.8 Q 199.7 389.2, 200.3 390.0 Q 200.9 390.8, 201.9 390.8 " fill="#000000"/>
<path d="M 206.4 387.7 Q 206.4 385.7, 207.4 384.6 Q 208.4 383.4, 210.3 383.4 Q 212.1 383.4, 212.9 384.5 Q 213.7 385.6, 213.7 387.6 L 213.7 387.9 L 207.9 387.9 Q 208.0 389.3, 208.6 390.0 Q 209.2 390.8, 210.4 390.8 Q 211.0 390.8, 211.6 390.6 Q 212.2 390.5, 212.9 390.1 L 213.4 391.2 Q 212.6 391.6, 211.8 391.8 Q 211.1 391.9, 210.3 391.9 Q 208.5 391.9, 207.4 390.8 Q 206.4 389.7, 206.4 387.7 M 210.3 384.6 Q 209.3 384.6, 208.7 385.2 Q 208.2 385.7, 208.0 386.8 L 212.1 386.8 Q 212.0 385.7, 211.5 385.2 Q 211.1 384.6, 210.3 384.6 " fill="#000000"/>
<path d="M 216.8 387.6 L 214.0 383.6 L 215.8 383.6 L 217.8 386.4 L 219.7 383.6 L 221.4 383.6 L 218.6 387.5 L 221.6 391.8 L 219.8 391.8 L 217.6 388.7 L 215.5 391.8 L 213.8 391.8 L 216.8 387.6 " fill="#000000"/>
<path d="M 229.8 392.6 L 229.8 393.9 L 221.6 393.9 L 221.6 392.6 L 229.8 392.6 " fill="#000000"/>
<path d="M 234.9 391.9 Q 232.8 391.9, 231.8 390.4 Q 230.7 388.9, 230.7 386.1 Q 230.7 383.4, 231.8 381.9 Q 232.8 380.4, 234.9 380.4 Q 237.0 380.4, 238.0 381.9 Q 239.0 383.4, 239.0 386.1 Q 239.0 388.9, 238.0 390.4 Q 237.0 391.9, 234.9 391.9 M 234.9 390.7 Q 236.1 390.7, 236.8 389.5 Q 237.4 388.4, 237.4 386.1 Q 237.4 383.9, 236.8 382.8 Q 236.1 381.6, 234.9 381.6 Q 233.7 381.6, 233.0 382.8 Q 232.3 383.9, 232.3 386.1 Q 232.3 388.4, 233.0 389.5 Q 233.7 390.7, 234.9 390.7 " fill="#000000"/>
<path d="M 589.6,227.4 L 616.4,202.0" style="fill:none;fill-rule:evenodd;stroke:#FF7F7F;stroke-width:7.9px;stroke-linecap:butt;stroke-linejoin:miter;stroke-opacity:1"/>
<path class="bond-0 atom-0 atom-15" d="M 554.3,216.9 L 545.6,181.1" style="fill:none;fill-rule:evenodd;stroke:#000000;stroke-width:2.0px;stroke-linecap:butt;stroke-linejoin:miter;stroke-opacity:1"/>
<path class="bond-0 atom-0 atom-15" d="M 545.8,213.3 L 539.7,188.2" style="fill:none;fill-rule:evenodd;stroke:#000000;stroke-width:2.0px;stroke-linecap:butt;stroke-linejoin:miter;stroke-opacity:1"/>
<path class="bond-1 atom-0 atom-16" d="M 554.3,216.9 L 527.5,242.4" style="fill:none;fill-rule:evenodd;stroke:#000000;stroke-width:2.0px;stroke-linecap:butt;stroke-linejoin:miter;stroke-opacity:1"/>
<path class="bond-3 atom-1 atom-0" d="M 584.8,226.0 L 569.5,221.4" style="fill:none;fill-rule:evenodd;stroke:#0000FF;stroke-width:2.0px;stroke-linecap:butt;stroke-linejoin:miter;stroke-opacity:1"/>
<path class="bond-3 atom-1 atom-0" d="M 569.5,221.4 L 554.3,216.9" style="fill:none;fill-rule:evenodd;stroke:#000000;stroke-width:2.0px;stroke-linecap:butt;stroke-linejoin:miter;stroke-opacity:1"/>
<path class="bond-2 atom-1 atom-2" d="M 594.5,222.8 L 605.5,212.4" style="fill:none;fill-rule:evenodd;stroke:#0000FF;stroke-width:2.0px;stroke-linecap:butt;stroke-linejoin:miter;stroke-opacity:1"/>
<path class="bond-2 atom-1 atom-2" d="M 605.5,212.4 L 616.4,202.0" style="fill:none;fill-rule:evenodd;stroke:#000000;stroke-width:2.0px;stroke-linecap:butt;stroke-linejoin:miter;stroke-opacity:1"/>
<path class="bond-4 atom-1 atom-4" d="M 591.1,233.5 L 594.0,245.4" style="fill:none;fill-rule:evenodd;stroke:#0000FF;stroke-width:2.0px;stroke-linecap:butt;stroke-linejoin:miter;stroke-opacity:1"/>
<path class="bond-4 atom-1 atom-4" d="M 594.0,245.4 L 596.8,257.3" style="fill:none;fill-rule:evenodd;stroke:#000000;stroke-width:2.0px;stroke-linecap:butt;stroke-linejoin:miter;stroke-opacity:1"/>
<path class="bond-5 atom-2 atom-5" d="M 616.4,202.0 L 651.8,212.4" style="fill:none;fill-rule:evenodd;stroke:#000000;stroke-width:2.0px;stroke-linecap:butt;stroke-linejoin:miter;stroke-opacity:1"/>
<path class="bond-7 atom-3 atom-2" d="M 607.8,166.1 L 616.4,202.0" style="fill:none;fill-rule:evenodd;stroke:#000000;stroke-width:2.0px;stroke-linecap:butt;stroke-linejoin:miter;stroke-opacity:1"/>
<path class="bond-7 atom-3 atom-2" d="M 616.2,169.8 L 622.3,194.9" style="fill:none;fill-rule:evenodd;stroke:#000000;stroke-width:2.0px;stroke-linecap:butt;stroke-linejoin:miter;stroke-opacity:1"/>
<path class="bond-6 atom-3 atom-6" d="M 607.8,166.1 L 631.7,138.0" style="fill:none;fill-rule:evenodd;stroke:#000000;stroke-width:2.0px;stroke-linecap:butt;stroke-linejoin:miter;stroke-opacity:1"/>
<path class="bond-8 atom-3 atom-8" d="M 607.8,166.1 L 573.7,152.0" style="fill:none;fill-rule:evenodd;stroke:#000000;stroke-width:2.0px;stroke-linecap:butt;stroke-linejoin:miter;stroke-opacity:1"/>
<path class="bond-9 atom-5 atom-10" d="M 651.8,212.4 L 660.4,248.3" style="fill:none;fill-rule:evenodd;stroke:#000000;stroke-width:2.0px;stroke-linecap:butt;stroke-linejoin:miter;stroke-opacity:1"/>
<path class="bond-9 atom-5 atom-10" d="M 660.3,216.1 L 666.3,241.2" style="fill:none;fill-rule:evenodd;stroke:#000000;stroke-width:2.0px;stroke-linecap:butt;stroke-linejoin:miter;stroke-opacity:1"/>
<path class="bond-10 atom-5 atom-11" d="M 651.8,212.4 L 678.5,187.0" style="fill:none;fill-rule:evenodd;stroke:#000000;stroke-width:2.0px;stroke-linecap:butt;stroke-linejoin:miter;stroke-opacity:1"/>
<path class="bond-11 atom-6 atom-9" d="M 631.7,138.0 L 612.4,106.6" style="fill:none;fill-rule:evenodd;stroke:#000000;stroke-width:2.0px;stroke-linecap:butt;stroke-linejoin:miter;stroke-opacity:1"/>
<path class="bond-11 atom-6 atom-9" d="M 622.5,137.2 L 609.0,115.1" style="fill:none;fill-rule:evenodd;stroke:#000000;stroke-width:2.0px;stroke-linecap:butt;stroke-linejoin:miter;stroke-opacity:1"/>
<path class="bond-12 atom-6 atom-32" d="M 631.7,138.0 L 663.6,136.6" style="fill:none;fill-rule:evenodd;stroke:#000000;stroke-width:2.0px;stroke-linecap:butt;stroke-linejoin:miter;stroke-opacity:1"/>
<path class="bond-13 atom-7 atom-8" d="M 576.0,121.4 L 574.9,136.7" style="fill:none;fill-rule:evenodd;stroke:#0000FF;stroke-width:2.0px;stroke-linecap:butt;stroke-linejoin:miter;stroke-opacity:1"/>
<path class="bond-13 atom-7 atom-8" d="M 574.9,136.7 L 573.7,152.0" style="fill:none;fill-rule:evenodd;stroke:#000000;stroke-width:2.0px;stroke-linecap:butt;stroke-linejoin:miter;stroke-opacity:1"/>
<path class="bond-14 atom-7 atom-9" d="M 581.4,114.0 L 596.9,110.3" style="fill:none;fill-rule:evenodd;stroke:#0000FF;stroke-width:2.0px;stroke-linecap:butt;stroke-linejoin:miter;stroke-opacity:1"/>
<path class="bond-14 atom-7 atom-9" d="M 596.9,110.3 L 612.4,106.6" style="fill:none;fill-rule:evenodd;stroke:#000000;stroke-width:2.0px;stroke-linecap:butt;stroke-linejoin:miter;stroke-opacity:1"/>
<path class="bond-15 atom-7 atom-20" d="M 571.6,111.0 L 562.5,103.2" style="fill:none;fill-rule:evenodd;stroke:#0000FF;stroke-width:2.0px;stroke-linecap:butt;stroke-linejoin:miter;stroke-opacity:1"/>
<path class="bond-15 atom-7 atom-20" d="M 562.5,103.2 L 553.3,95.4" style="fill:none;fill-rule:evenodd;stroke:#000000;stroke-width:2.0px;stroke-linecap:butt;stroke-linejoin:miter;stroke-opacity:1"/>
<path class="bond-16 atom-8 atom-21" d="M 572.5,148.5 L 561.1,152.1" style="fill:none;fill-rule:evenodd;stroke:#000000;stroke-width:2.0px;stroke-linecap:butt;stroke-linejoin:miter;stroke-opacity:1"/>
<path class="bond-16 atom-8 atom-21" d="M 561.1,152.1 L 549.6,155.7" style="fill:none;fill-rule:evenodd;stroke:#FF0000;stroke-width:2.0px;stroke-linecap:butt;stroke-linejoin:miter;stroke-opacity:1"/>
<path class="bond-16 atom-8 atom-21" d="M 574.8,155.5 L 563.3,159.1" style="fill:none;fill-rule:evenodd;stroke:#000000;stroke-width:2.0px;stroke-linecap:butt;stroke-linejoin:miter;stroke-opacity:1"/>
<path class="bond-16 atom-8 atom-21" d="M 563.3,159.1 L 551.8,162.8" style="fill:none;fill-rule:evenodd;stroke:#FF0000;stroke-width:2.0px;stroke-linecap:butt;stroke-linejoin:miter;stroke-opacity:1"/>
<path class="bond-17 atom-9 atom-33" d="M 612.4,106.6 L 624.0,78.6" style="fill:none;fill-rule:evenodd;stroke:#000000;stroke-width:2.0px;stroke-linecap:butt;stroke-linejoin:miter;stroke-opacity:1"/>
<path class="bond-18 atom-10 atom-12" d="M 660.4,248.3 L 695.8,258.8" style="fill:none;fill-rule:evenodd;stroke:#000000;stroke-width:2.0px;stroke-linecap:butt;stroke-linejoin:miter;stroke-opacity:1"/>
<path class="bond-19 atom-10 atom-22" d="M 660.4,248.3 L 638.7,269.0" style="fill:none;fill-rule:evenodd;stroke:#000000;stroke-width:2.0px;stroke-linecap:butt;stroke-linejoin:miter;stroke-opacity:1"/>
<path class="bond-20 atom-11 atom-13" d="M 678.5,187.0 L 713.9,197.5" style="fill:none;fill-rule:evenodd;stroke:#000000;stroke-width:2.0px;stroke-linecap:butt;stroke-linejoin:miter;stroke-opacity:1"/>
<path class="bond-20 atom-11 atom-13" d="M 681.8,195.7 L 706.5,203.0" style="fill:none;fill-rule:evenodd;stroke:#000000;stroke-width:2.0px;stroke-linecap:butt;stroke-linejoin:miter;stroke-opacity:1"/>
<path class="bond-21 atom-11 atom-23" d="M 678.5,187.0 L 675.0,156.5" style="fill:none;fill-rule:evenodd;stroke:#000000;stroke-width:2.0px;stroke-linecap:butt;stroke-linejoin:miter;stroke-opacity:1"/>
<path class="bond-22 atom-12 atom-14" d="M 695.8,258.8 L 722.6,233.3" style="fill:none;fill-rule:evenodd;stroke:#000000;stroke-width:2.0px;stroke-linecap:butt;stroke-linejoin:miter;stroke-opacity:1"/>
<path class="bond-22 atom-12 atom-14" d="M 694.8,249.6 L 713.5,231.8" style="fill:none;fill-rule:evenodd;stroke:#000000;stroke-width:2.0px;stroke-linecap:butt;stroke-linejoin:miter;stroke-opacity:1"/>
<path class="bond-23 atom-12 atom-24" d="M 695.8,258.8 L 703.0,288.5" style="fill:none;fill-rule:evenodd;stroke:#000000;stroke-width:2.0px;stroke-linecap:butt;stroke-linejoin:miter;stroke-opacity:1"/>
<path class="bond-24 atom-13 atom-14" d="M 713.9,197.5 L 722.6,233.3" style="fill:none;fill-rule:evenodd;stroke:#000000;stroke-width:2.0px;stroke-linecap:butt;stroke-linejoin:miter;stroke-opacity:1"/>
<path class="bond-25 atom-13 atom-25" d="M 713.9,197.5 L 735.7,176.8" style="fill:none;fill-rule:evenodd;stroke:#000000;stroke-width:2.0px;stroke-linecap:butt;stroke-linejoin:miter;stroke-opacity:1"/>
<path class="bond-26 atom-14 atom-26" d="M 722.6,233.3 L 753.0,242.3" style="fill:none;fill-rule:evenodd;stroke:#000000;stroke-width:2.0px;stroke-linecap:butt;stroke-linejoin:miter;stroke-opacity:1"/>
<path class="bond-27 atom-15 atom-17" d="M 545.6,181.1 L 510.2,170.6" style="fill:none;fill-rule:evenodd;stroke:#000000;stroke-width:2.0px;stroke-linecap:butt;stroke-linejoin:miter;stroke-opacity:1"/>
<path class="bond-28 atom-15 atom-27" d="M 545.6,181.1 L 552.5,170.2" style="fill:none;fill-rule:evenodd;stroke:#000000;stroke-width:2.0px;stroke-linecap:butt;stroke-linejoin:miter;stroke-opacity:1"/>
<path class="bond-29 atom-16 atom-18" d="M 527.5,242.4 L 492.1,231.9" style="fill:none;fill-rule:evenodd;stroke:#000000;stroke-width:2.0px;stroke-linecap:butt;stroke-linejoin:miter;stroke-opacity:1"/>
<path class="bond-29 atom-16 atom-18" d="M 524.3,233.7 L 499.5,226.4" style="fill:none;fill-rule:evenodd;stroke:#000000;stroke-width:2.0px;stroke-linecap:butt;stroke-linejoin:miter;stroke-opacity:1"/>
<path class="bond-30 atom-16 atom-28" d="M 527.5,242.4 L 534.7,272.1" style="fill:none;fill-rule:evenodd;stroke:#000000;stroke-width:2.0px;stroke-linecap:butt;stroke-linejoin:miter;stroke-opacity:1"/>
<path class="bond-31 atom-17 atom-19" d="M 510.2,170.6 L 483.5,196.0" style="fill:none;fill-rule:evenodd;stroke:#000000;stroke-width:2.0px;stroke-linecap:butt;stroke-linejoin:miter;stroke-opacity:1"/>
<path class="bond-31 atom-17 atom-19" d="M 511.3,179.8 L 492.6,197.6" style="fill:none;fill-rule:evenodd;stroke:#000000;stroke-width:2.0px;stroke-linecap:butt;stroke-linejoin:miter;stroke-opacity:1"/>
<path class="bond-32 atom-17 atom-29" d="M 510.2,170.6 L 503.1,140.9" style="fill:none;fill-rule:evenodd;stroke:#000000;stroke-width:2.0px;stroke-linecap:butt;stroke-linejoin:miter;stroke-opacity:1"/>
<path class="bond-33 atom-18 atom-19" d="M 492.1,231.9 L 483.5,196.0" style="fill:none;fill-rule:evenodd;stroke:#000000;stroke-width:2.0px;stroke-linecap:butt;stroke-linejoin:miter;stroke-opacity:1"/>
<path class="bond-34 atom-18 atom-30" d="M 492.1,231.9 L 470.4,252.6" style="fill:none;fill-rule:evenodd;stroke:#000000;stroke-width:2.0px;stroke-linecap:butt;stroke-linejoin:miter;stroke-opacity:1"/>
<path class="bond-35 atom-31 atom-19" d="M 453.0,187.0 L 468.2,191.5" style="fill:none;fill-rule:evenodd;stroke:#0000FF;stroke-width:2.0px;stroke-linecap:butt;stroke-linejoin:miter;stroke-opacity:1"/>
<path class="bond-35 atom-31 atom-19" d="M 468.2,191.5 L 483.5,196.0" style="fill:none;fill-rule:evenodd;stroke:#000000;stroke-width:2.0px;stroke-linecap:butt;stroke-linejoin:miter;stroke-opacity:1"/>
<path class="bond-36 atom-31 atom-34" d="M 446.6,179.4 L 443.7,167.6" style="fill:none;fill-rule:evenodd;stroke:#0000FF;stroke-width:2.0px;stroke-linecap:butt;stroke-linejoin:miter;stroke-opacity:1"/>
<path class="bond-36 atom-31 atom-34" d="M 443.7,167.6 L 440.9,155.7" style="fill:none;fill-rule:evenodd;stroke:#000000;stroke-width:2.0px;stroke-linecap:butt;stroke-linejoin:miter;stroke-opacity:1"/>
<path class="bond-37 atom-31 atom-35" d="M 443.2,190.2 L 434.7,198.3" style="fill:none;fill-rule:evenodd;stroke:#0000FF;stroke-width:2.0px;stroke-linecap:butt;stroke-linejoin:miter;stroke-opacity:1"/>
<path class="bond-37 atom-31 atom-35" d="M 434.7,198.3 L 426.2,206.4" style="fill:none;fill-rule:evenodd;stroke:#000000;stroke-width:2.0px;stroke-linecap:butt;stroke-linejoin:miter;stroke-opacity:1"/>
<path class="atom-1" d="M 587.3 222.2 L 590.8 227.7 Q 591.1 228.3, 591.6 229.2 Q 592.2 230.2, 592.2 230.3 L 592.2 222.2 L 593.6 222.2 L 593.6 232.6 L 592.2 232.6 L 588.5 226.6 Q 588.1 225.9, 587.6 225.1 Q 587.2 224.2, 587.0 224.0 L 587.0 232.6 L 585.7 232.6 L 585.7 222.2 L 587.3 222.2 " fill="#0000FF"/>
<path class="atom-4" d="M 594.2 258.1 L 595.6 258.1 L 595.6 262.5 L 601.0 262.5 L 601.0 258.1 L 602.4 258.1 L 602.4 268.5 L 601.0 268.5 L 601.0 263.7 L 595.6 263.7 L 595.6 268.5 L 594.2 268.5 L 594.2 258.1 " fill="#000000"/>
<path class="atom-7" d="M 574.2 110.0 L 577.6 115.5 Q 578.0 116.1, 578.5 117.1 Q 579.1 118.0, 579.1 118.1 L 579.1 110.0 L 580.5 110.0 L 580.5 120.4 L 579.1 120.4 L 575.4 114.4 Q 575.0 113.7, 574.5 112.9 Q 574.1 112.0, 573.9 111.8 L 573.9 120.4 L 572.6 120.4 L 572.6 110.0 L 574.2 110.0 " fill="#0000FF"/>
<path class="atom-20" d="M 544.4 86.0 L 545.8 86.0 L 545.8 90.5 L 551.1 90.5 L 551.1 86.0 L 552.5 86.0 L 552.5 96.5 L 551.1 96.5 L 551.1 91.7 L 545.8 91.7 L 545.8 96.5 L 544.4 96.5 L 544.4 86.0 " fill="#000000"/>
<path class="atom-21" d="M 540.4 161.0 Q 540.4 158.5, 541.6 157.1 Q 542.8 155.7, 545.2 155.7 Q 547.5 155.7, 548.7 157.1 Q 549.9 158.5, 549.9 161.0 Q 549.9 163.6, 548.7 165.0 Q 547.4 166.5, 545.2 166.5 Q 542.8 166.5, 541.6 165.0 Q 540.4 163.6, 540.4 161.0 M 545.2 165.3 Q 546.7 165.3, 547.6 164.2 Q 548.5 163.1, 548.5 161.0 Q 548.5 159.0, 547.6 158.0 Q 546.7 156.9, 545.2 156.9 Q 543.6 156.9, 542.7 157.9 Q 541.8 159.0, 541.8 161.0 Q 541.8 163.1, 542.7 164.2 Q 543.6 165.3, 545.2 165.3 " fill="#FF0000"/>
<path class="atom-22" d="M 629.6 268.5 L 631.0 268.5 L 631.0 273.0 L 636.4 273.0 L 636.4 268.5 L 637.8 268.5 L 637.8 279.0 L 636.4 279.0 L 636.4 274.1 L 631.0 274.1 L 631.0 279.0 L 629.6 279.0 L 629.6 268.5 " fill="#000000"/>
<path class="atom-23" d="M 670.3 145.1 L 671.7 145.1 L 671.7 149.6 L 677.0 149.6 L 677.0 145.1 L 678.4 145.1 L 678.4 155.6 L 677.0 155.6 L 677.0 150.7 L 671.7 150.7 L 671.7 155.6 L 670.3 155.6 L 670.3 145.1 " fill="#000000"/>
<path class="atom-24" d="M 700.4 289.4 L 701.8 289.4 L 701.8 293.9 L 707.1 293.9 L 707.1 289.4 L 708.6 289.4 L 708.6 299.9 L 707.1 299.9 L 707.1 295.0 L 701.8 295.0 L 701.8 299.9 L 700.4 299.9 L 700.4 289.4 " fill="#000000"/>
<path class="atom-25" d="M 736.6 166.8 L 738.0 166.8 L 738.0 171.3 L 743.4 171.3 L 743.4 166.8 L 744.8 166.8 L 744.8 177.3 L 743.4 177.3 L 743.4 172.4 L 738.0 172.4 L 738.0 177.3 L 736.6 177.3 L 736.6 166.8 " fill="#000000"/>
<path class="atom-26" d="M 753.9 238.6 L 755.3 238.6 L 755.3 243.0 L 760.6 243.0 L 760.6 238.6 L 762.1 238.6 L 762.1 249.0 L 760.6 249.0 L 760.6 244.2 L 755.3 244.2 L 755.3 249.0 L 753.9 249.0 L 753.9 238.6 " fill="#000000"/>
<path class="atom-27" d="M 552.1 159.3 L 553.5 159.3 L 553.5 163.7 L 558.8 163.7 L 558.8 159.3 L 560.2 159.3 L 560.2 169.7 L 558.8 169.7 L 558.8 164.9 L 553.5 164.9 L 553.5 169.7 L 552.1 169.7 L 552.1 159.3 " fill="#000000"/>
<path class="atom-28" d="M 532.1 273.0 L 533.5 273.0 L 533.5 277.5 L 538.8 277.5 L 538.8 273.0 L 540.2 273.0 L 540.2 283.5 L 538.8 283.5 L 538.8 278.6 L 533.5 278.6 L 533.5 283.5 L 532.1 283.5 L 532.1 273.0 " fill="#000000"/>
<path class="atom-29" d="M 497.5 129.5 L 498.9 129.5 L 498.9 133.9 L 504.3 133.9 L 504.3 129.5 L 505.7 129.5 L 505.7 140.0 L 504.3 140.0 L 504.3 135.1 L 498.9 135.1 L 498.9 140.0 L 497.5 140.0 L 497.5 129.5 " fill="#000000"/>
<path class="atom-30" d="M 461.3 252.1 L 462.7 252.1 L 462.7 256.5 L 468.0 256.5 L 468.0 252.1 L 469.5 252.1 L 469.5 262.6 L 468.0 262.6 L 468.0 257.7 L 462.7 257.7 L 462.7 262.6 L 461.3 262.6 L 461.3 252.1 " fill="#000000"/>
<path class="atom-31" d="M 445.8 180.3 L 449.2 185.9 Q 449.5 186.4, 450.1 187.4 Q 450.6 188.4, 450.7 188.5 L 450.7 180.3 L 452.0 180.3 L 452.0 190.8 L 450.6 190.8 L 446.9 184.7 Q 446.5 184.0, 446.1 183.2 Q 445.6 182.4, 445.5 182.2 L 445.5 190.8 L 444.1 190.8 L 444.1 180.3 L 445.8 180.3 " fill="#0000FF"/>
<path class="atom-32" d="M 664.5 131.2 L 665.9 131.2 L 665.9 135.6 L 671.2 135.6 L 671.2 131.2 L 672.7 131.2 L 672.7 141.6 L 671.2 141.6 L 671.2 136.8 L 665.9 136.8 L 665.9 141.6 L 664.5 141.6 L 664.5 131.2 " fill="#000000"/>
<path class="atom-33" d="M 622.4 67.2 L 623.8 67.2 L 623.8 71.7 L 629.2 71.7 L 629.2 67.2 L 630.6 67.2 L 630.6 77.7 L 629.2 77.7 L 629.2 72.9 L 623.8 72.9 L 623.8 77.7 L 622.4 77.7 L 622.4 67.2 " fill="#000000"/>
<path class="atom-34" d="M 435.4 144.5 L 436.8 144.5 L 436.8 148.9 L 442.1 148.9 L 442.1 144.5 L 443.5 144.5 L 443.5 154.9 L 442.1 154.9 L 442.1 150.1 L 436.8 150.1 L 436.8 154.9 L 435.4 154.9 L 435.4 144.5 " fill="#000000"/>
<path class="atom-35" d="M 417.2 205.8 L 418.7 205.8 L 418.7 210.2 L 424.0 210.2 L 424.0 205.8 L 425.4 205.8 L 425.4 216.2 L 424.0 216.2 L 424.0 211.4 L 418.7 211.4 L 418.7 216.2 L 417.2 216.2 L 417.2 205.8 " fill="#000000"/>
<path d="M 491.5 388.6 L 493.9 388.6 L 493.9 380.2 L 491.2 381.0 L 490.8 380.1 L 494.3 378.5 L 495.4 378.7 L 495.4 388.6 L 497.7 388.6 L 497.7 389.9 L 491.5 389.9 L 491.5 388.6 " fill="#000000"/>
<path d="M 505.8 390.7 L 505.8 392.0 L 497.7 392.0 L 497.7 390.7 L 505.8 390.7 " fill="#000000"/>
<path d="M 512.1 379.9 L 506.1 379.9 L 506.1 378.6 L 513.6 378.6 L 513.6 379.7 L 509.1 389.9 L 507.5 389.9 L 512.1 379.9 " fill="#000000"/>
<path d="M 521.8 390.7 L 521.8 392.0 L 513.6 392.0 L 513.6 390.7 L 521.8 390.7 " fill="#000000"/>
<path d="M 523.2 378.5 L 524.7 378.5 L 524.7 389.9 L 523.2 389.9 L 523.2 378.5 " fill="#000000"/>
<path d="M 530.3 381.5 Q 531.6 381.5, 532.3 382.3 Q 533.0 383.0, 533.0 384.5 L 533.0 389.9 L 531.5 389.9 L 531.5 384.6 Q 531.5 383.6, 531.1 383.2 Q 530.8 382.7, 529.9 382.7 Q 529.2 382.7, 528.6 383.1 Q 527.9 383.4, 527.5 384.0 L 527.5 389.9 L 526.0 389.9 L 526.0 381.7 L 527.3 381.7 L 527.4 382.8 Q 528.5 381.5, 530.3 381.5 " fill="#000000"/>
<path d="M 541.2 377.8 L 541.2 389.9 L 540.0 389.9 L 539.8 388.9 Q 538.9 390.0, 537.4 390.0 Q 535.7 390.0, 534.7 389.0 Q 533.8 387.9, 533.8 385.9 Q 533.8 383.9, 534.9 382.7 Q 536.0 381.5, 538.0 381.5 Q 538.8 381.5, 539.7 381.8 L 539.7 377.8 L 541.2 377.8 M 537.5 388.9 Q 538.3 388.9, 538.9 388.4 Q 539.5 387.9, 539.7 387.1 L 539.7 383.0 Q 538.9 382.7, 538.0 382.7 Q 536.7 382.7, 536.0 383.6 Q 535.3 384.4, 535.3 385.9 Q 535.3 387.3, 535.9 388.1 Q 536.4 388.9, 537.5 388.9 " fill="#000000"/>
<path d="M 542.0 385.8 Q 542.0 383.8, 543.0 382.7 Q 544.0 381.5, 545.8 381.5 Q 547.6 381.5, 548.4 382.6 Q 549.3 383.7, 549.3 385.7 L 549.3 386.0 L 543.5 386.0 Q 543.5 387.4, 544.2 388.1 Q 544.8 388.9, 546.0 388.9 Q 546.6 388.9, 547.2 388.7 Q 547.8 388.6, 548.5 388.2 L 548.9 389.3 Q 548.1 389.7, 547.4 389.9 Q 546.6 390.0, 545.9 390.0 Q 544.0 390.0, 543.0 388.9 Q 542.0 387.8, 542.0 385.8 M 545.8 382.7 Q 544.9 382.7, 544.3 383.3 Q 543.7 383.8, 543.6 384.9 L 547.7 384.9 Q 547.6 383.8, 547.1 383.3 Q 546.7 382.7, 545.8 382.7 " fill="#000000"/>
<path d="M 552.4 385.7 L 549.6 381.7 L 551.3 381.7 L 553.3 384.5 L 555.3 381.7 L 556.9 381.7 L 554.1 385.6 L 557.2 389.9 L 555.4 389.9 L 553.2 386.8 L 551.0 389.9 L 549.4 389.9 L 552.4 385.7 " fill="#000000"/>
<path d="M 565.3 390.7 L 565.3 392.0 L 557.2 392.0 L 557.2 390.7 L 565.3 390.7 " fill="#000000"/>
<path d="M 570.4 390.0 Q 568.4 390.0, 567.3 388.5 Q 566.3 387.0, 566.3 384.2 Q 566.3 381.5, 567.3 380.0 Q 568.3 378.5, 570.4 378.5 Q 572.5 378.5, 573.6 380.0 Q 574.6 381.5, 574.6 384.2 Q 574.6 387.0, 573.5 388.5 Q 572.5 390.0, 570.4 390.0 M 570.4 388.8 Q 571.7 388.8, 572.3 387.6 Q 573.0 386.5, 573.0 384.2 Q 573.0 382.0, 572.3 380.9 Q 571.7 379.7, 570.4 379.7 Q 569.2 379.7, 568.5 380.9 Q 567.9 382.0, 567.9 384.2 Q 567.9 386.5, 568.5 387.6 Q 569.2 388.8, 570.4 388.8 " fill="#000000"/>
<path d="M 582.7 390.7 L 582.7 392.0 L 574.6 392.0 L 574.6 390.7 L 582.7 390.7 " fill="#000000"/>
<path d="M 592.6 384.4 L 592.6 389.1 Q 591.0 390.1, 588.6 390.1 Q 586.2 390.1, 584.9 388.6 Q 583.5 387.0, 583.5 384.2 Q 583.5 381.4, 584.9 379.9 Q 586.2 378.5, 588.7 378.5 Q 590.0 378.5, 591.0 378.9 Q 591.9 379.3, 592.6 380.1 L 591.6 381.0 Q 590.5 379.7, 588.7 379.7 Q 587.0 379.7, 586.1 380.9 Q 585.2 382.0, 585.2 384.2 Q 585.2 386.5, 586.1 387.6 Q 587.0 388.8, 588.9 388.8 Q 590.1 388.8, 591.1 388.4 L 591.1 384.4 L 592.6 384.4 " fill="#000000"/>
<path d="M 595.2 381.7 L 595.4 382.8 Q 596.3 381.5, 597.7 381.5 Q 598.1 381.5, 598.7 381.7 L 598.5 383.0 Q 597.8 382.9, 597.4 382.9 Q 596.7 382.9, 596.3 383.2 Q 595.9 383.4, 595.5 384.0 L 595.5 389.9 L 594.0 389.9 L 594.0 381.7 L 595.2 381.7 " fill="#000000"/>
<path d="M 599.5 385.8 Q 599.5 383.8, 600.5 382.7 Q 601.5 381.5, 603.4 381.5 Q 605.2 381.5, 606.2 382.7 Q 607.3 383.8, 607.3 385.8 Q 607.3 387.8, 606.2 388.9 Q 605.2 390.0, 603.4 390.0 Q 601.5 390.0, 600.5 388.9 Q 599.5 387.8, 599.5 385.8 M 601.0 385.8 Q 601.0 387.3, 601.6 388.1 Q 602.2 388.9, 603.4 388.9 Q 604.5 388.9, 605.1 388.1 Q 605.7 387.3, 605.7 385.8 Q 605.7 384.3, 605.1 383.5 Q 604.5 382.7, 603.4 382.7 Q 602.2 382.7, 601.6 383.5 Q 601.0 384.3, 601.0 385.8 " fill="#000000"/>
<path d="M 618.1 381.7 L 619.6 381.7 L 617.3 389.9 L 615.2 389.9 L 613.6 383.7 L 612.0 389.9 L 610.0 389.9 L 607.7 381.7 L 609.2 381.7 L 611.1 388.5 L 612.9 381.7 L 614.4 381.7 L 616.2 388.5 L 618.1 381.7 " fill="#000000"/>
<path d="M 620.9 378.6 L 627.7 378.6 L 627.7 379.9 L 622.4 379.9 L 622.4 383.3 L 627.1 383.3 L 627.1 384.6 L 622.4 384.6 L 622.4 389.9 L 620.9 389.9 L 620.9 378.6 " fill="#000000"/>
<path d="M 630.2 381.7 L 630.4 382.8 Q 631.3 381.5, 632.7 381.5 Q 633.1 381.5, 633.7 381.7 L 633.5 383.0 Q 632.8 382.9, 632.4 382.9 Q 631.7 382.9, 631.3 383.2 Q 630.9 383.4, 630.5 384.0 L 630.5 389.9 L 629.0 389.9 L 629.0 381.7 L 630.2 381.7 " fill="#000000"/>
<path d="M 634.4 387.7 Q 634.4 386.4, 635.5 385.7 Q 636.5 384.9, 638.5 384.9 L 639.7 384.9 L 639.7 384.6 Q 639.7 383.6, 639.3 383.2 Q 638.9 382.7, 637.8 382.7 Q 637.2 382.7, 636.7 382.9 Q 636.1 383.0, 635.3 383.3 L 634.9 382.3 Q 636.4 381.5, 637.9 381.5 Q 639.6 381.5, 640.4 382.3 Q 641.2 383.0, 641.2 384.6 L 641.2 389.9 L 640.0 389.9 Q 640.0 389.8, 640.0 389.6 Q 639.9 389.4, 639.8 389.0 Q 638.7 390.1, 637.1 390.1 Q 635.9 390.1, 635.2 389.4 Q 634.4 388.8, 634.4 387.7 M 635.9 387.7 Q 635.9 388.3, 636.3 388.6 Q 636.7 388.9, 637.4 388.9 Q 638.1 388.9, 638.7 388.6 Q 639.3 388.3, 639.7 387.8 L 639.7 386.1 L 638.6 386.1 Q 637.3 386.1, 636.6 386.5 Q 635.9 386.9, 635.9 387.7 " fill="#000000"/>
<path d="M 649.4 381.7 L 649.4 390.4 Q 649.4 393.9, 645.7 393.9 Q 643.9 393.9, 642.2 393.1 L 642.8 392.0 Q 643.6 392.4, 644.2 392.6 Q 644.9 392.7, 645.7 392.7 Q 646.9 392.7, 647.4 392.2 Q 647.9 391.7, 647.9 390.4 L 647.9 389.0 Q 647.0 390.0, 645.6 390.0 Q 643.8 390.0, 642.9 389.0 Q 641.9 387.9, 641.9 385.9 Q 641.9 383.9, 643.1 382.7 Q 644.2 381.5, 646.2 381.5 Q 647.2 381.5, 648.2 381.8 L 648.2 381.7 L 649.4 381.7 M 645.7 388.9 Q 646.5 388.9, 647.1 388.4 Q 647.7 387.9, 647.9 387.1 L 647.9 383.0 Q 647.1 382.7, 646.2 382.7 Q 644.9 382.7, 644.2 383.6 Q 643.5 384.4, 643.5 385.9 Q 643.5 387.3, 644.0 388.1 Q 644.6 388.9, 645.7 388.9 " fill="#000000"/>
<path d="M 660.2 381.5 Q 661.6 381.5, 662.3 382.3 Q 663.0 383.0, 663.0 384.5 L 663.0 389.9 L 661.5 389.9 L 661.5 384.6 Q 661.5 383.6, 661.1 383.2 Q 660.8 382.7, 659.9 382.7 Q 659.2 382.7, 658.6 383.1 Q 658.0 383.4, 657.6 384.0 Q 657.6 384.2, 657.6 384.5 L 657.6 389.9 L 656.1 389.9 L 656.1 384.6 Q 656.1 383.6, 655.7 383.2 Q 655.4 382.7, 654.5 382.7 Q 653.8 382.7, 653.2 383.1 Q 652.6 383.4, 652.2 384.0 L 652.2 389.9 L 650.7 389.9 L 650.7 381.7 L 652.0 381.7 L 652.1 382.8 Q 653.2 381.5, 654.8 381.5 Q 656.8 381.5, 657.4 383.0 Q 658.5 381.5, 660.2 381.5 " fill="#000000"/>
<path d="M 663.8 385.8 Q 663.8 383.8, 664.8 382.7 Q 665.8 381.5, 667.6 381.5 Q 669.4 381.5, 670.2 382.6 Q 671.0 383.7, 671.0 385.7 L 671.0 386.0 L 665.3 386.0 Q 665.3 387.4, 666.0 388.1 Q 666.6 388.9, 667.7 388.9 Q 668.4 388.9, 669.0 388.7 Q 669.6 388.6, 670.3 388.2 L 670.7 389.3 Q 669.9 389.7, 669.2 389.9 Q 668.4 390.0, 667.7 390.0 Q 665.8 390.0, 664.8 388.9 Q 663.8 387.8, 663.8 385.8 M 667.6 382.7 Q 666.7 382.7, 666.1 383.3 Q 665.5 383.8, 665.4 384.9 L 669.5 384.9 Q 669.3 383.8, 668.9 383.3 Q 668.5 382.7, 667.6 382.7 " fill="#000000"/>
<path d="M 676.6 381.5 Q 678.0 381.5, 678.6 382.3 Q 679.3 383.0, 679.3 384.5 L 679.3 389.9 L 677.8 389.9 L 677.8 384.6 Q 677.8 383.6, 677.5 383.2 Q 677.1 382.7, 676.3 382.7 Q 675.5 382.7, 674.9 383.1 Q 674.3 383.4, 673.9 384.0 L 673.9 389.9 L 672.4 389.9 L 672.4 381.7 L 673.6 381.7 L 673.8 382.8 Q 674.9 381.5, 676.6 381.5 " fill="#000000"/>
<path d="M 679.8 382.8 L 679.8 381.7 L 681.4 381.7 L 681.6 379.3 L 682.8 379.3 L 682.8 381.7 L 685.3 381.7 L 685.3 382.8 L 682.8 382.8 L 682.8 387.4 Q 682.8 388.8, 684.0 388.8 Q 684.4 388.8, 685.1 388.6 L 685.4 389.6 Q 684.5 390.0, 683.7 390.0 Q 682.6 390.0, 681.9 389.4 Q 681.3 388.7, 681.3 387.5 L 681.3 382.8 L 679.8 382.8 " fill="#000000"/>
<path d="M 693.6 390.7 L 693.6 392.0 L 685.4 392.0 L 685.4 390.7 L 693.6 390.7 " fill="#000000"/>
<path d="M 698.7 390.0 Q 696.6 390.0, 695.6 388.5 Q 694.5 387.0, 694.5 384.2 Q 694.5 381.5, 695.6 380.0 Q 696.6 378.5, 698.7 378.5 Q 700.8 378.5, 701.8 380.0 Q 702.8 381.5, 702.8 384.2 Q 702.8 387.0, 701.8 388.5 Q 700.8 390.0, 698.7 390.0 M 698.7 388.8 Q 699.9 388.8, 700.6 387.6 Q 701.2 386.5, 701.2 384.2 Q 701.2 382.0, 700.6 380.9 Q 699.9 379.7, 698.7 379.7 Q 697.5 379.7, 696.8 380.9 Q 696.1 382.0, 696.1 384.2 Q 696.1 386.5, 696.8 387.6 Q 697.5 388.8, 698.7 388.8 " fill="#000000"/>
<text x="200.61581481439418" y="236.1430267963311" font-size="12" font-family="Verdana" font-weight="bold" letter-spacing="0" text-anchor="start" fill="black" transform=" rotate(38.204746 200.615815 236.143027)">0.0816</text><text x="614.1059621147117" y="232.83221795811215" font-size="12" font-family="Verdana" font-weight="bold" letter-spacing="0" text-anchor="start" fill="black" transform=" rotate(46.460262 614.105962 232.832218)">0.0929</text></svg>
