<?xml version='1.0' encoding='ASCII' standalone='yes'?>
<svg xmlns="http://www.w3.org/2000/svg" xmlns:rdkit="http://www.rdkit.org/xml" xmlns:xlink="http://www.w3.org/1999/xlink" version="1.1" baseProfile="full" xml:space="preserve" width="1200px" height="400px" viewBox="0 0 1200 400">
<!-- END OF HEADER -->
<rect style="opacity:1.0;fill:#FFFFFF;stroke:none" width="1200" height="400" x="0" y="0"> </rect>
<rect style="opacity:1.0;fill:#FFFFFF;stroke:none" width="1200" height="400" x="0" y="0"> </rect>
<rect style="opacity:1.0;fill:#FFFFFF;stroke:none" width="1200" height="400" x="0" y="0"> </rect>
<path d="M 320.244,161.236 L 281.194,201.91" style="fill:none;fill-rule:evenodd;stroke:#FF7F7F;stroke-width:12.0px;stroke-linecap:butt;stroke-linejoin:miter;stroke-opacity:1"/>
<path class="bond-1 atom-1 atom-0" d="M 318.896,166.711 L 341.9,172.375" style="fill:none;fill-rule:evenodd;stroke:#000000;stroke-width:2.0px;stroke-linecap:butt;stroke-linejoin:miter;stroke-opacity:1"/>
<path class="bond-1 atom-1 atom-0" d="M 341.9,172.375 L 364.905,178.04" style="fill:none;fill-rule:evenodd;stroke:#FF0000;stroke-width:2.0px;stroke-linecap:butt;stroke-linejoin:miter;stroke-opacity:1"/>
<path class="bond-1 atom-1 atom-0" d="M 321.592,155.761 L 344.597,161.425" style="fill:none;fill-rule:evenodd;stroke:#000000;stroke-width:2.0px;stroke-linecap:butt;stroke-linejoin:miter;stroke-opacity:1"/>
<path class="bond-1 atom-1 atom-0" d="M 344.597,161.425 L 367.601,167.09" style="fill:none;fill-rule:evenodd;stroke:#FF0000;stroke-width:2.0px;stroke-linecap:butt;stroke-linejoin:miter;stroke-opacity:1"/>
<path class="bond-0 atom-1 atom-10" d="M 320.244,161.236 L 304.544,107.081" style="fill:none;fill-rule:evenodd;stroke:#000000;stroke-width:2.0px;stroke-linecap:butt;stroke-linejoin:miter;stroke-opacity:1"/>
<path class="bond-3 atom-2 atom-1" d="M 288.66,194.134 L 304.452,177.685" style="fill:none;fill-rule:evenodd;stroke:#0000FF;stroke-width:2.0px;stroke-linecap:butt;stroke-linejoin:miter;stroke-opacity:1"/>
<path class="bond-3 atom-2 atom-1" d="M 304.452,177.685 L 320.244,161.236" style="fill:none;fill-rule:evenodd;stroke:#000000;stroke-width:2.0px;stroke-linecap:butt;stroke-linejoin:miter;stroke-opacity:1"/>
<path class="bond-2 atom-2 atom-4" d="M 273.729,200.072 L 250.087,194.251" style="fill:none;fill-rule:evenodd;stroke:#0000FF;stroke-width:2.0px;stroke-linecap:butt;stroke-linejoin:miter;stroke-opacity:1"/>
<path class="bond-2 atom-2 atom-4" d="M 250.087,194.251 L 226.445,188.429" style="fill:none;fill-rule:evenodd;stroke:#000000;stroke-width:2.0px;stroke-linecap:butt;stroke-linejoin:miter;stroke-opacity:1"/>
<path class="bond-4 atom-2 atom-3" d="M 283.918,211.304 L 290.406,233.684" style="fill:none;fill-rule:evenodd;stroke:#0000FF;stroke-width:2.0px;stroke-linecap:butt;stroke-linejoin:miter;stroke-opacity:1"/>
<path class="bond-4 atom-2 atom-3" d="M 290.406,233.684 L 296.895,256.065" style="fill:none;fill-rule:evenodd;stroke:#000000;stroke-width:2.0px;stroke-linecap:butt;stroke-linejoin:miter;stroke-opacity:1"/>
<path class="bond-5 atom-3 atom-11" d="M 296.895,256.065 L 343.392,242.584" style="fill:none;fill-rule:evenodd;stroke:#000000;stroke-width:2.0px;stroke-linecap:butt;stroke-linejoin:miter;stroke-opacity:1"/>
<path class="bond-6 atom-3 atom-12" d="M 296.895,256.065 L 250.397,269.545" style="fill:none;fill-rule:evenodd;stroke:#000000;stroke-width:2.0px;stroke-linecap:butt;stroke-linejoin:miter;stroke-opacity:1"/>
<path class="bond-7 atom-3 atom-13" d="M 296.895,256.065 L 309.871,300.826" style="fill:none;fill-rule:evenodd;stroke:#000000;stroke-width:2.0px;stroke-linecap:butt;stroke-linejoin:miter;stroke-opacity:1"/>
<path class="bond-15 atom-8 atom-4" d="M 210.745,134.275 L 226.445,188.429" style="fill:none;fill-rule:evenodd;stroke:#000000;stroke-width:2.0px;stroke-linecap:butt;stroke-linejoin:miter;stroke-opacity:1"/>
<path class="bond-15 atom-8 atom-4" d="M 202.269,145.538 L 213.259,183.446" style="fill:none;fill-rule:evenodd;stroke:#000000;stroke-width:2.0px;stroke-linecap:butt;stroke-linejoin:miter;stroke-opacity:1"/>
<path class="bond-17 atom-9 atom-4" d="M 187.396,229.103 L 226.445,188.429" style="fill:none;fill-rule:evenodd;stroke:#000000;stroke-width:2.0px;stroke-linecap:butt;stroke-linejoin:miter;stroke-opacity:1"/>
<path class="bond-8 atom-5 atom-6" d="M 116.946,161.468 L 155.996,120.794" style="fill:none;fill-rule:evenodd;stroke:#000000;stroke-width:2.0px;stroke-linecap:butt;stroke-linejoin:miter;stroke-opacity:1"/>
<path class="bond-8 atom-5 atom-6" d="M 130.939,163.177 L 158.273,134.705" style="fill:none;fill-rule:evenodd;stroke:#000000;stroke-width:2.0px;stroke-linecap:butt;stroke-linejoin:miter;stroke-opacity:1"/>
<path class="bond-9 atom-5 atom-7" d="M 116.946,161.468 L 132.647,215.623" style="fill:none;fill-rule:evenodd;stroke:#000000;stroke-width:2.0px;stroke-linecap:butt;stroke-linejoin:miter;stroke-opacity:1"/>
<path class="bond-10 atom-5 atom-20" d="M 116.946,161.468 L 69.854,149.873" style="fill:none;fill-rule:evenodd;stroke:#000000;stroke-width:2.0px;stroke-linecap:butt;stroke-linejoin:miter;stroke-opacity:1"/>
<path class="bond-11 atom-6 atom-8" d="M 155.996,120.794 L 210.745,134.275" style="fill:none;fill-rule:evenodd;stroke:#000000;stroke-width:2.0px;stroke-linecap:butt;stroke-linejoin:miter;stroke-opacity:1"/>
<path class="bond-12 atom-6 atom-14" d="M 155.996,120.794 L 143.019,76.0332" style="fill:none;fill-rule:evenodd;stroke:#000000;stroke-width:2.0px;stroke-linecap:butt;stroke-linejoin:miter;stroke-opacity:1"/>
<path class="bond-13 atom-7 atom-9" d="M 132.647,215.623 L 187.396,229.103" style="fill:none;fill-rule:evenodd;stroke:#000000;stroke-width:2.0px;stroke-linecap:butt;stroke-linejoin:miter;stroke-opacity:1"/>
<path class="bond-13 atom-7 atom-9" d="M 143.555,206.695 L 181.88,216.131" style="fill:none;fill-rule:evenodd;stroke:#000000;stroke-width:2.0px;stroke-linecap:butt;stroke-linejoin:miter;stroke-opacity:1"/>
<path class="bond-14 atom-7 atom-15" d="M 132.647,215.623 L 101.254,248.321" style="fill:none;fill-rule:evenodd;stroke:#000000;stroke-width:2.0px;stroke-linecap:butt;stroke-linejoin:miter;stroke-opacity:1"/>
<path class="bond-16 atom-8 atom-16" d="M 210.745,134.275 L 229.479,119.014" style="fill:none;fill-rule:evenodd;stroke:#000000;stroke-width:2.0px;stroke-linecap:butt;stroke-linejoin:miter;stroke-opacity:1"/>
<path class="bond-18 atom-9 atom-17" d="M 187.396,229.103 L 200.373,273.864" style="fill:none;fill-rule:evenodd;stroke:#000000;stroke-width:2.0px;stroke-linecap:butt;stroke-linejoin:miter;stroke-opacity:1"/>
<path class="bond-19 atom-10 atom-18" d="M 304.544,107.081 L 281.014,117.151" style="fill:none;fill-rule:evenodd;stroke:#000000;stroke-width:2.0px;stroke-linecap:butt;stroke-linejoin:miter;stroke-opacity:1"/>
<path class="bond-20 atom-10 atom-19" d="M 304.544,107.081 L 351.041,93.601" style="fill:none;fill-rule:evenodd;stroke:#000000;stroke-width:2.0px;stroke-linecap:butt;stroke-linejoin:miter;stroke-opacity:1"/>
<path class="bond-21 atom-10 atom-21" d="M 304.544,107.081 L 291.567,62.3203" style="fill:none;fill-rule:evenodd;stroke:#000000;stroke-width:2.0px;stroke-linecap:butt;stroke-linejoin:miter;stroke-opacity:1"/>
<path class="atom-0" d="M 367.663 174.762 Q 367.663 170.927, 369.558 168.785 Q 371.452 166.642, 374.993 166.642 Q 378.534 166.642, 380.428 168.785 Q 382.323 170.927, 382.323 174.762 Q 382.323 178.641, 380.406 180.851 Q 378.489 183.039, 374.993 183.039 Q 371.475 183.039, 369.558 180.851 Q 367.663 178.663, 367.663 174.762 M 374.993 181.235 Q 377.429 181.235, 378.737 179.611 Q 380.068 177.964, 380.068 174.762 Q 380.068 171.627, 378.737 170.048 Q 377.429 168.447, 374.993 168.447 Q 372.557 168.447, 371.227 170.025 Q 369.918 171.604, 369.918 174.762 Q 369.918 177.987, 371.227 179.611 Q 372.557 181.235, 374.993 181.235 " fill="#FF0000"/>
<path class="atom-2" d="M 277.665 193.926 L 282.897 202.384 Q 283.416 203.218, 284.25 204.729 Q 285.085 206.24, 285.13 206.331 L 285.13 193.926 L 287.25 193.926 L 287.25 209.894 L 285.062 209.894 L 279.447 200.647 Q 278.792 199.564, 278.093 198.324 Q 277.417 197.083, 277.214 196.7 L 277.214 209.894 L 275.139 209.894 L 275.139 193.926 L 277.665 193.926 " fill="#0000FF"/>
<path class="atom-11" d="M 344.802 232.38 L 346.967 232.38 L 346.967 239.169 L 355.131 239.169 L 355.131 232.38 L 357.297 232.38 L 357.297 248.349 L 355.131 248.349 L 355.131 240.973 L 346.967 240.973 L 346.967 248.349 L 344.802 248.349 L 344.802 232.38 " fill="#000000"/>
<path class="atom-12" d="M 236.493 263.781 L 238.658 263.781 L 238.658 270.569 L 246.822 270.569 L 246.822 263.781 L 248.987 263.781 L 248.987 279.749 L 246.822 279.749 L 246.822 272.374 L 238.658 272.374 L 238.658 279.749 L 236.493 279.749 L 236.493 263.781 " fill="#000000"/>
<path class="atom-13" d="M 306.347 302.235 L 308.512 302.235 L 308.512 309.024 L 316.677 309.024 L 316.677 302.235 L 318.842 302.235 L 318.842 318.203 L 316.677 318.203 L 316.677 310.828 L 308.512 310.828 L 308.512 318.203 L 306.347 318.203 L 306.347 302.235 " fill="#000000"/>
<path class="atom-14" d="M 134.048 58.6555 L 136.213 58.6555 L 136.213 65.4442 L 144.378 65.4442 L 144.378 58.6555 L 146.543 58.6555 L 146.543 74.6236 L 144.378 74.6236 L 144.378 67.2485 L 136.213 67.2485 L 136.213 74.6236 L 134.048 74.6236 L 134.048 58.6555 " fill="#000000"/>
<path class="atom-15" d="M 87.3499 248.313 L 89.5151 248.313 L 89.5151 255.102 L 97.6795 255.102 L 97.6795 248.313 L 99.8447 248.313 L 99.8447 264.281 L 97.6795 264.281 L 97.6795 256.906 L 89.5151 256.906 L 89.5151 264.281 L 87.3499 264.281 L 87.3499 248.313 " fill="#000000"/>
<path class="atom-16" d="M 230.311 105.263 L 232.477 105.263 L 232.477 112.052 L 240.641 112.052 L 240.641 105.263 L 242.806 105.263 L 242.806 121.231 L 240.641 121.231 L 240.641 113.856 L 232.477 113.856 L 232.477 121.231 L 230.311 121.231 L 230.311 105.263 " fill="#000000"/>
<path class="atom-17" d="M 196.849 275.274 L 199.014 275.274 L 199.014 282.063 L 207.178 282.063 L 207.178 275.274 L 209.343 275.274 L 209.343 291.242 L 207.178 291.242 L 207.178 283.867 L 199.014 283.867 L 199.014 291.242 L 196.849 291.242 L 196.849 275.274 " fill="#000000"/>
<path class="atom-18" d="M 267.687 112.197 L 269.852 112.197 L 269.852 118.986 L 278.017 118.986 L 278.017 112.197 L 280.182 112.197 L 280.182 128.165 L 278.017 128.165 L 278.017 120.79 L 269.852 120.79 L 269.852 128.165 L 267.687 128.165 L 267.687 112.197 " fill="#000000"/>
<path class="atom-19" d="M 352.451 83.3971 L 354.616 83.3971 L 354.616 90.1858 L 362.78 90.1858 L 362.78 83.3971 L 364.946 83.3971 L 364.946 99.3652 L 362.78 99.3652 L 362.78 91.9901 L 354.616 91.9901 L 354.616 99.3652 L 352.451 99.3652 L 352.451 83.3971 " fill="#000000"/>
<path class="atom-20" d="M 55.9496 140.004 L 58.1148 140.004 L 58.1148 146.792 L 66.2793 146.792 L 66.2793 140.004 L 68.4444 140.004 L 68.4444 155.972 L 66.2793 155.972 L 66.2793 148.597 L 58.1148 148.597 L 58.1148 155.972 L 55.9496 155.972 L 55.9496 140.004 " fill="#000000"/>
<path class="atom-21" d="M 282.596 44.9426 L 284.761 44.9426 L 284.761 51.7313 L 292.926 51.7313 L 292.926 44.9426 L 295.091 44.9426 L 295.091 60.9107 L 292.926 60.9107 L 292.926 53.5356 L 284.761 53.5356 L 284.761 60.9107 L 282.596 60.9107 L 282.596 44.9426 " fill="#000000"/>
<path d="M 150.133 382.632 Q 150.549 381.56, 151.541 380.968 Q 152.533 380.36, 153.909 380.36 Q 155.621 380.36, 156.581 381.288 Q 157.541 382.216, 157.541 383.864 Q 157.541 385.544, 156.293 387.112 Q 155.061 388.68, 152.501 390.536 L 157.733 390.536 L 157.733 391.816 L 150.101 391.816 L 150.101 390.744 Q 152.213 389.24, 153.461 388.12 Q 154.725 387, 155.333 385.992 Q 155.941 384.984, 155.941 383.944 Q 155.941 382.856, 155.397 382.248 Q 154.853 381.64, 153.909 381.64 Q 152.997 381.64, 152.389 382.008 Q 151.781 382.376, 151.349 383.192 L 150.133 382.632 " fill="#000000"/>
<path d="M 162.581 384.728 Q 163.573 384.728, 164.389 385.16 Q 165.205 385.576, 165.669 386.376 Q 166.133 387.16, 166.133 388.232 Q 166.133 389.4, 165.557 390.248 Q 164.997 391.08, 164.069 391.512 Q 163.141 391.944, 162.085 391.944 Q 161.045 391.944, 160.085 391.56 Q 159.125 391.176, 158.469 390.44 L 159.429 389.448 Q 159.957 390.024, 160.677 390.344 Q 161.397 390.648, 162.133 390.648 Q 163.141 390.648, 163.829 390.024 Q 164.533 389.4, 164.533 388.264 Q 164.533 387.064, 163.829 386.504 Q 163.141 385.928, 162.037 385.928 Q 161.045 385.928, 159.941 386.36 L 159.061 385.944 L 159.605 380.488 L 165.429 380.488 L 165.269 381.768 L 160.917 381.768 L 160.581 385.128 Q 161.589 384.728, 162.581 384.728 " fill="#000000"/>
<path d="M 174.293 392.616 L 174.293 393.928 L 166.133 393.928 L 166.133 392.616 L 174.293 392.616 " fill="#000000"/>
<path d="M 180.405 385.848 Q 181.509 386.168, 182.037 386.888 Q 182.581 387.592, 182.581 388.712 Q 182.581 389.672, 182.101 390.424 Q 181.621 391.16, 180.741 391.576 Q 179.861 391.976, 178.709 391.976 Q 177.493 391.976, 176.581 391.56 Q 175.685 391.128, 174.965 390.264 L 175.877 389.336 Q 176.581 390.104, 177.173 390.408 Q 177.765 390.696, 178.709 390.696 Q 179.733 390.696, 180.357 390.152 Q 180.981 389.592, 180.981 388.696 Q 180.981 387.544, 180.325 387.032 Q 179.685 386.504, 178.293 386.504 L 177.477 386.504 L 177.477 385.352 L 178.197 385.352 Q 179.429 385.336, 180.085 384.808 Q 180.741 384.264, 180.741 383.256 Q 180.741 382.52, 180.197 382.088 Q 179.653 381.64, 178.725 381.64 Q 177.781 381.64, 177.189 381.976 Q 176.613 382.312, 176.165 383.16 L 175.061 382.568 Q 175.461 381.624, 176.421 381 Q 177.381 380.36, 178.725 380.36 Q 180.389 380.36, 181.365 381.144 Q 182.341 381.928, 182.341 383.256 Q 182.341 384.168, 181.845 384.824 Q 181.349 385.48, 180.405 385.848 " fill="#000000"/>
<path d="M 190.741 392.616 L 190.741 393.928 L 182.581 393.928 L 182.581 392.616 L 190.741 392.616 " fill="#000000"/>
<path d="M 192.149 380.44 L 193.669 380.44 L 193.669 391.816 L 192.149 391.816 L 192.149 380.44 " fill="#000000"/>
<path d="M 199.269 383.448 Q 200.581 383.448, 201.269 384.2 Q 201.973 384.952, 201.973 386.376 L 201.973 391.816 L 200.469 391.816 L 200.469 386.488 Q 200.469 385.512, 200.085 385.08 Q 199.717 384.632, 198.885 384.632 Q 198.133 384.632, 197.509 384.984 Q 196.885 385.32, 196.485 385.928 L 196.485 391.816 L 194.981 391.816 L 194.981 383.592 L 196.213 383.592 L 196.389 384.744 Q 197.493 383.448, 199.269 383.448 " fill="#000000"/>
<path d="M 210.181 379.672 L 210.181 391.8 L 208.965 391.8 L 208.757 390.792 Q 207.845 391.944, 206.325 391.944 Q 204.613 391.944, 203.653 390.888 Q 202.709 389.816, 202.709 387.832 Q 202.709 385.768, 203.829 384.616 Q 204.965 383.448, 206.933 383.448 Q 207.781 383.448, 208.677 383.672 L 208.677 379.672 L 210.181 379.672 M 206.421 390.76 Q 207.253 390.76, 207.845 390.312 Q 208.453 389.848, 208.677 389.032 L 208.677 384.872 Q 207.861 384.632, 206.949 384.632 Q 205.685 384.632, 204.965 385.48 Q 204.245 386.312, 204.245 387.832 Q 204.245 389.24, 204.805 390.008 Q 205.381 390.76, 206.421 390.76 " fill="#000000"/>
<path d="M 210.917 387.688 Q 210.917 385.672, 211.925 384.568 Q 212.933 383.448, 214.773 383.448 Q 216.581 383.448, 217.381 384.536 Q 218.197 385.608, 218.197 387.64 L 218.197 387.896 L 212.453 387.896 Q 212.485 389.288, 213.109 390.024 Q 213.733 390.76, 214.901 390.76 Q 215.541 390.76, 216.133 390.616 Q 216.725 390.456, 217.445 390.136 L 217.877 391.16 Q 217.061 391.576, 216.325 391.768 Q 215.589 391.944, 214.821 391.944 Q 212.965 391.944, 211.941 390.824 Q 210.917 389.704, 210.917 387.688 M 214.773 384.632 Q 213.829 384.632, 213.253 385.176 Q 212.693 385.72, 212.517 386.776 L 216.613 386.776 Q 216.501 385.672, 216.053 385.16 Q 215.605 384.632, 214.773 384.632 " fill="#000000"/>
<path d="M 221.333 387.56 L 218.549 383.592 L 220.293 383.592 L 222.277 386.392 L 224.245 383.592 L 225.861 383.592 L 223.077 387.544 L 226.101 391.816 L 224.341 391.816 L 222.149 388.712 L 219.973 391.816 L 218.341 391.816 L 221.333 387.56 " fill="#000000"/>
<path d="M 234.261 392.616 L 234.261 393.928 L 226.101 393.928 L 226.101 392.616 L 234.261 392.616 " fill="#000000"/>
<path d="M 239.381 391.944 Q 237.301 391.944, 236.261 390.408 Q 235.237 388.872, 235.237 386.136 Q 235.237 383.4, 236.261 381.88 Q 237.285 380.36, 239.381 380.36 Q 241.477 380.36, 242.501 381.88 Q 243.525 383.4, 243.525 386.136 Q 243.525 388.872, 242.485 390.408 Q 241.461 391.944, 239.381 391.944 M 239.381 390.664 Q 240.613 390.664, 241.269 389.528 Q 241.925 388.376, 241.925 386.136 Q 241.925 383.912, 241.269 382.776 Q 240.613 381.64, 239.381 381.64 Q 238.165 381.64, 237.493 382.776 Q 236.837 383.912, 236.837 386.136 Q 236.837 388.376, 237.493 389.528 Q 238.165 390.664, 239.381 390.664 " fill="#000000"/>
<path d="M 718.943,155.568 L 682.777,198.826" style="fill:none;fill-rule:evenodd;stroke:#FF7F7F;stroke-width:12.0px;stroke-linecap:butt;stroke-linejoin:miter;stroke-opacity:1"/>
<path class="bond-1 atom-1 atom-0" d="M 717.974,161.123 L 741.377,165.206" style="fill:none;fill-rule:evenodd;stroke:#000000;stroke-width:2.0px;stroke-linecap:butt;stroke-linejoin:miter;stroke-opacity:1"/>
<path class="bond-1 atom-1 atom-0" d="M 741.377,165.206 L 764.779,169.29" style="fill:none;fill-rule:evenodd;stroke:#FF0000;stroke-width:2.0px;stroke-linecap:butt;stroke-linejoin:miter;stroke-opacity:1"/>
<path class="bond-1 atom-1 atom-0" d="M 719.912,150.014 L 743.315,154.097" style="fill:none;fill-rule:evenodd;stroke:#000000;stroke-width:2.0px;stroke-linecap:butt;stroke-linejoin:miter;stroke-opacity:1"/>
<path class="bond-1 atom-1 atom-0" d="M 743.315,154.097 L 766.718,158.181" style="fill:none;fill-rule:evenodd;stroke:#FF0000;stroke-width:2.0px;stroke-linecap:butt;stroke-linejoin:miter;stroke-opacity:1"/>
<path class="bond-0 atom-1 atom-10" d="M 718.943,155.568 L 699.564,102.619" style="fill:none;fill-rule:evenodd;stroke:#000000;stroke-width:2.0px;stroke-linecap:butt;stroke-linejoin:miter;stroke-opacity:1"/>
<path class="bond-3 atom-2 atom-1" d="M 690.242,189.897 L 704.592,172.733" style="fill:none;fill-rule:evenodd;stroke:#0000FF;stroke-width:2.0px;stroke-linecap:butt;stroke-linejoin:miter;stroke-opacity:1"/>
<path class="bond-3 atom-2 atom-1" d="M 704.592,172.733 L 718.943,155.568" style="fill:none;fill-rule:evenodd;stroke:#000000;stroke-width:2.0px;stroke-linecap:butt;stroke-linejoin:miter;stroke-opacity:1"/>
<path class="bond-2 atom-2 atom-4" d="M 675.311,197.523 L 651.271,193.329" style="fill:none;fill-rule:evenodd;stroke:#0000FF;stroke-width:2.0px;stroke-linecap:butt;stroke-linejoin:miter;stroke-opacity:1"/>
<path class="bond-2 atom-2 atom-4" d="M 651.271,193.329 L 627.231,189.134" style="fill:none;fill-rule:evenodd;stroke:#000000;stroke-width:2.0px;stroke-linecap:butt;stroke-linejoin:miter;stroke-opacity:1"/>
<path class="bond-4 atom-2 atom-3" d="M 686.215,208.22 L 694.185,229.998" style="fill:none;fill-rule:evenodd;stroke:#0000FF;stroke-width:2.0px;stroke-linecap:butt;stroke-linejoin:miter;stroke-opacity:1"/>
<path class="bond-4 atom-2 atom-3" d="M 694.185,229.998 L 702.156,251.776" style="fill:none;fill-rule:evenodd;stroke:#000000;stroke-width:2.0px;stroke-linecap:butt;stroke-linejoin:miter;stroke-opacity:1"/>
<path class="bond-5 atom-3 atom-11" d="M 702.156,251.776 L 747.449,235.199" style="fill:none;fill-rule:evenodd;stroke:#000000;stroke-width:2.0px;stroke-linecap:butt;stroke-linejoin:miter;stroke-opacity:1"/>
<path class="bond-6 atom-3 atom-12" d="M 702.156,251.776 L 656.863,268.352" style="fill:none;fill-rule:evenodd;stroke:#000000;stroke-width:2.0px;stroke-linecap:butt;stroke-linejoin:miter;stroke-opacity:1"/>
<path class="bond-7 atom-3 atom-13" d="M 702.156,251.776 L 718.097,295.332" style="fill:none;fill-rule:evenodd;stroke:#000000;stroke-width:2.0px;stroke-linecap:butt;stroke-linejoin:miter;stroke-opacity:1"/>
<path class="bond-14 atom-8 atom-4" d="M 607.852,136.184 L 627.231,189.134" style="fill:none;fill-rule:evenodd;stroke:#000000;stroke-width:2.0px;stroke-linecap:butt;stroke-linejoin:miter;stroke-opacity:1"/>
<path class="bond-14 atom-8 atom-4" d="M 600.169,148.003 L 613.735,185.067" style="fill:none;fill-rule:evenodd;stroke:#000000;stroke-width:2.0px;stroke-linecap:butt;stroke-linejoin:miter;stroke-opacity:1"/>
<path class="bond-16 atom-9 atom-4" d="M 591.065,232.392 L 627.231,189.134" style="fill:none;fill-rule:evenodd;stroke:#000000;stroke-width:2.0px;stroke-linecap:butt;stroke-linejoin:miter;stroke-opacity:1"/>
<path class="bond-8 atom-5 atom-6" d="M 516.141,169.75 L 552.307,126.492" style="fill:none;fill-rule:evenodd;stroke:#000000;stroke-width:2.0px;stroke-linecap:butt;stroke-linejoin:miter;stroke-opacity:1"/>
<path class="bond-8 atom-5 atom-6" d="M 530.217,170.495 L 555.533,140.214" style="fill:none;fill-rule:evenodd;stroke:#000000;stroke-width:2.0px;stroke-linecap:butt;stroke-linejoin:miter;stroke-opacity:1"/>
<path class="bond-9 atom-5 atom-7" d="M 516.141,169.75 L 535.52,222.7" style="fill:none;fill-rule:evenodd;stroke:#000000;stroke-width:2.0px;stroke-linecap:butt;stroke-linejoin:miter;stroke-opacity:1"/>
<path class="bond-21 atom-20 atom-5" d="M 468.061,161.361 L 492.101,165.555" style="fill:none;fill-rule:evenodd;stroke:#0000FF;stroke-width:2.0px;stroke-linecap:butt;stroke-linejoin:miter;stroke-opacity:1"/>
<path class="bond-21 atom-20 atom-5" d="M 492.101,165.555 L 516.141,169.75" style="fill:none;fill-rule:evenodd;stroke:#000000;stroke-width:2.0px;stroke-linecap:butt;stroke-linejoin:miter;stroke-opacity:1"/>
<path class="bond-10 atom-6 atom-8" d="M 552.307,126.492 L 607.852,136.184" style="fill:none;fill-rule:evenodd;stroke:#000000;stroke-width:2.0px;stroke-linecap:butt;stroke-linejoin:miter;stroke-opacity:1"/>
<path class="bond-11 atom-6 atom-14" d="M 552.307,126.492 L 536.366,82.9365" style="fill:none;fill-rule:evenodd;stroke:#000000;stroke-width:2.0px;stroke-linecap:butt;stroke-linejoin:miter;stroke-opacity:1"/>
<path class="bond-12 atom-7 atom-9" d="M 535.52,222.7 L 591.065,232.392" style="fill:none;fill-rule:evenodd;stroke:#000000;stroke-width:2.0px;stroke-linecap:butt;stroke-linejoin:miter;stroke-opacity:1"/>
<path class="bond-12 atom-7 atom-9" d="M 545.79,213.045 L 584.672,219.829" style="fill:none;fill-rule:evenodd;stroke:#000000;stroke-width:2.0px;stroke-linecap:butt;stroke-linejoin:miter;stroke-opacity:1"/>
<path class="bond-13 atom-7 atom-15" d="M 535.52,222.7 L 507.011,256.799" style="fill:none;fill-rule:evenodd;stroke:#000000;stroke-width:2.0px;stroke-linecap:butt;stroke-linejoin:miter;stroke-opacity:1"/>
<path class="bond-15 atom-8 atom-16" d="M 607.852,136.184 L 625.083,120.06" style="fill:none;fill-rule:evenodd;stroke:#000000;stroke-width:2.0px;stroke-linecap:butt;stroke-linejoin:miter;stroke-opacity:1"/>
<path class="bond-17 atom-9 atom-17" d="M 591.065,232.392 L 607.006,275.948" style="fill:none;fill-rule:evenodd;stroke:#000000;stroke-width:2.0px;stroke-linecap:butt;stroke-linejoin:miter;stroke-opacity:1"/>
<path class="bond-18 atom-10 atom-18" d="M 699.564,102.619 L 677.005,114.164" style="fill:none;fill-rule:evenodd;stroke:#000000;stroke-width:2.0px;stroke-linecap:butt;stroke-linejoin:miter;stroke-opacity:1"/>
<path class="bond-19 atom-10 atom-19" d="M 699.564,102.619 L 744.856,86.0418" style="fill:none;fill-rule:evenodd;stroke:#000000;stroke-width:2.0px;stroke-linecap:butt;stroke-linejoin:miter;stroke-opacity:1"/>
<path class="bond-20 atom-10 atom-22" d="M 699.564,102.619 L 683.622,59.0626" style="fill:none;fill-rule:evenodd;stroke:#000000;stroke-width:2.0px;stroke-linecap:butt;stroke-linejoin:miter;stroke-opacity:1"/>
<path class="bond-22 atom-20 atom-21" d="M 453.13,168.987 L 442.463,181.746" style="fill:none;fill-rule:evenodd;stroke:#0000FF;stroke-width:2.0px;stroke-linecap:butt;stroke-linejoin:miter;stroke-opacity:1"/>
<path class="bond-22 atom-20 atom-21" d="M 442.463,181.746 L 431.795,194.506" style="fill:none;fill-rule:evenodd;stroke:#000000;stroke-width:2.0px;stroke-linecap:butt;stroke-linejoin:miter;stroke-opacity:1"/>
<path class="bond-23 atom-20 atom-23" d="M 457.157,150.665 L 450.86,133.458" style="fill:none;fill-rule:evenodd;stroke:#0000FF;stroke-width:2.0px;stroke-linecap:butt;stroke-linejoin:miter;stroke-opacity:1"/>
<path class="bond-23 atom-20 atom-23" d="M 450.86,133.458 L 444.563,116.252" style="fill:none;fill-rule:evenodd;stroke:#000000;stroke-width:2.0px;stroke-linecap:butt;stroke-linejoin:miter;stroke-opacity:1"/>
<path class="atom-0" d="M 767.158 165.305 Q 767.158 161.471, 769.053 159.329 Q 770.947 157.186, 774.488 157.186 Q 778.029 157.186, 779.924 159.329 Q 781.818 161.471, 781.818 165.305 Q 781.818 169.185, 779.901 171.395 Q 777.984 173.583, 774.488 173.583 Q 770.97 173.583, 769.053 171.395 Q 767.158 169.207, 767.158 165.305 M 774.488 171.778 Q 776.924 171.778, 778.232 170.154 Q 779.563 168.508, 779.563 165.305 Q 779.563 162.17, 778.232 160.592 Q 776.924 158.99, 774.488 158.99 Q 772.052 158.99, 770.722 160.569 Q 769.414 162.148, 769.414 165.305 Q 769.414 168.53, 770.722 170.154 Q 772.052 171.778, 774.488 171.778 " fill="#FF0000"/>
<path class="atom-2" d="M 679.247 190.842 L 684.48 199.3 Q 684.998 200.134, 685.833 201.645 Q 686.667 203.156, 686.712 203.247 L 686.712 190.842 L 688.832 190.842 L 688.832 206.81 L 686.645 206.81 L 681.029 197.563 Q 680.375 196.48, 679.676 195.24 Q 678.999 193.999, 678.796 193.616 L 678.796 206.81 L 676.721 206.81 L 676.721 190.842 L 679.247 190.842 " fill="#0000FF"/>
<path class="atom-11" d="M 748.858 224.412 L 751.023 224.412 L 751.023 231.201 L 759.188 231.201 L 759.188 224.412 L 761.353 224.412 L 761.353 240.38 L 759.188 240.38 L 759.188 233.005 L 751.023 233.005 L 751.023 240.38 L 748.858 240.38 L 748.858 224.412 " fill="#000000"/>
<path class="atom-12" d="M 642.959 263.171 L 645.124 263.171 L 645.124 269.959 L 653.289 269.959 L 653.289 263.171 L 655.454 263.171 L 655.454 279.139 L 653.289 279.139 L 653.289 271.764 L 645.124 271.764 L 645.124 279.139 L 642.959 279.139 L 642.959 263.171 " fill="#000000"/>
<path class="atom-13" d="M 715.288 296.741 L 717.453 296.741 L 717.453 303.53 L 725.617 303.53 L 725.617 296.741 L 727.783 296.741 L 727.783 312.709 L 725.617 312.709 L 725.617 305.334 L 717.453 305.334 L 717.453 312.709 L 715.288 312.709 L 715.288 296.741 " fill="#000000"/>
<path class="atom-14" d="M 526.68 65.5588 L 528.845 65.5588 L 528.845 72.3475 L 537.01 72.3475 L 537.01 65.5588 L 539.175 65.5588 L 539.175 81.5269 L 537.01 81.5269 L 537.01 74.1518 L 528.845 74.1518 L 528.845 81.5269 L 526.68 81.5269 L 526.68 65.5588 " fill="#000000"/>
<path class="atom-15" d="M 493.106 257.973 L 495.272 257.973 L 495.272 264.762 L 503.436 264.762 L 503.436 257.973 L 505.601 257.973 L 505.601 273.942 L 503.436 273.942 L 503.436 266.566 L 495.272 266.566 L 495.272 273.942 L 493.106 273.942 L 493.106 257.973 " fill="#000000"/>
<path class="atom-16" d="M 625.915 105.451 L 628.08 105.451 L 628.08 112.239 L 636.245 112.239 L 636.245 105.451 L 638.41 105.451 L 638.41 121.419 L 636.245 121.419 L 636.245 114.044 L 628.08 114.044 L 628.08 121.419 L 625.915 121.419 L 625.915 105.451 " fill="#000000"/>
<path class="atom-17" d="M 604.197 277.357 L 606.362 277.357 L 606.362 284.146 L 614.527 284.146 L 614.527 277.357 L 616.692 277.357 L 616.692 293.325 L 614.527 293.325 L 614.527 285.95 L 606.362 285.95 L 606.362 293.325 L 604.197 293.325 L 604.197 277.357 " fill="#000000"/>
<path class="atom-18" d="M 663.678 109.804 L 665.843 109.804 L 665.843 116.592 L 674.008 116.592 L 674.008 109.804 L 676.173 109.804 L 676.173 125.772 L 674.008 125.772 L 674.008 118.397 L 665.843 118.397 L 665.843 125.772 L 663.678 125.772 L 663.678 109.804 " fill="#000000"/>
<path class="atom-19" d="M 746.266 75.2553 L 748.431 75.2553 L 748.431 82.044 L 756.596 82.044 L 756.596 75.2553 L 758.761 75.2553 L 758.761 91.2234 L 756.596 91.2234 L 756.596 83.8483 L 748.431 83.8483 L 748.431 91.2234 L 746.266 91.2234 L 746.266 75.2553 " fill="#000000"/>
<path class="atom-20" d="M 457.066 152.074 L 462.298 160.532 Q 462.817 161.366, 463.651 162.877 Q 464.486 164.389, 464.531 164.479 L 464.531 152.074 L 466.651 152.074 L 466.651 168.042 L 464.463 168.042 L 458.847 158.795 Q 458.193 157.713, 457.494 156.472 Q 456.818 155.232, 456.615 154.848 L 456.615 168.042 L 454.54 168.042 L 454.54 152.074 L 457.066 152.074 " fill="#0000FF"/>
<path class="atom-21" d="M 418.182 195.332 L 420.347 195.332 L 420.347 202.121 L 428.511 202.121 L 428.511 195.332 L 430.677 195.332 L 430.677 211.3 L 428.511 211.3 L 428.511 203.925 L 420.347 203.925 L 420.347 211.3 L 418.182 211.3 L 418.182 195.332 " fill="#000000"/>
<path class="atom-22" d="M 673.937 41.6849 L 676.102 41.6849 L 676.102 48.4736 L 684.267 48.4736 L 684.267 41.6849 L 686.432 41.6849 L 686.432 57.653 L 684.267 57.653 L 684.267 50.2779 L 676.102 50.2779 L 676.102 57.653 L 673.937 57.653 L 673.937 41.6849 " fill="#000000"/>
<path class="atom-23" d="M 434.969 99.1245 L 437.134 99.1245 L 437.134 105.913 L 445.298 105.913 L 445.298 99.1245 L 447.464 99.1245 L 447.464 115.093 L 445.298 115.093 L 445.298 107.718 L 437.134 107.718 L 437.134 115.093 L 434.969 115.093 L 434.969 99.1245 " fill="#000000"/>
<path d="M 485.765 380.728 Q 486.181 379.656, 487.173 379.064 Q 488.165 378.456, 489.541 378.456 Q 491.253 378.456, 492.213 379.384 Q 493.173 380.312, 493.173 381.96 Q 493.173 383.64, 491.925 385.208 Q 490.693 386.776, 488.133 388.632 L 493.365 388.632 L 493.365 389.912 L 485.733 389.912 L 485.733 388.84 Q 487.845 387.336, 489.093 386.216 Q 490.357 385.096, 490.965 384.088 Q 491.573 383.08, 491.573 382.04 Q 491.573 380.952, 491.029 380.344 Q 490.485 379.736, 489.541 379.736 Q 488.629 379.736, 488.021 380.104 Q 487.413 380.472, 486.981 381.288 L 485.765 380.728 " fill="#000000"/>
<path d="M 498.213 382.824 Q 499.205 382.824, 500.021 383.256 Q 500.837 383.672, 501.301 384.472 Q 501.765 385.256, 501.765 386.328 Q 501.765 387.496, 501.189 388.344 Q 500.629 389.176, 499.701 389.608 Q 498.773 390.04, 497.717 390.04 Q 496.677 390.04, 495.717 389.656 Q 494.757 389.272, 494.101 388.536 L 495.061 387.544 Q 495.589 388.12, 496.309 388.44 Q 497.029 388.744, 497.765 388.744 Q 498.773 388.744, 499.461 388.12 Q 500.165 387.496, 500.165 386.36 Q 500.165 385.16, 499.461 384.6 Q 498.773 384.024, 497.669 384.024 Q 496.677 384.024, 495.573 384.456 L 494.693 384.04 L 495.237 378.584 L 501.061 378.584 L 500.901 379.864 L 496.549 379.864 L 496.213 383.224 Q 497.221 382.824, 498.213 382.824 " fill="#000000"/>
<path d="M 509.925 390.712 L 509.925 392.024 L 501.765 392.024 L 501.765 390.712 L 509.925 390.712 " fill="#000000"/>
<path d="M 516.037 383.944 Q 517.141 384.264, 517.669 384.984 Q 518.213 385.688, 518.213 386.808 Q 518.213 387.768, 517.733 388.52 Q 517.253 389.256, 516.373 389.672 Q 515.493 390.072, 514.341 390.072 Q 513.125 390.072, 512.213 389.656 Q 511.317 389.224, 510.597 388.36 L 511.509 387.432 Q 512.213 388.2, 512.805 388.504 Q 513.397 388.792, 514.341 388.792 Q 515.365 388.792, 515.989 388.248 Q 516.613 387.688, 516.613 386.792 Q 516.613 385.64, 515.957 385.128 Q 515.317 384.6, 513.925 384.6 L 513.109 384.6 L 513.109 383.448 L 513.829 383.448 Q 515.061 383.432, 515.717 382.904 Q 516.373 382.36, 516.373 381.352 Q 516.373 380.616, 515.829 380.184 Q 515.285 379.736, 514.357 379.736 Q 513.413 379.736, 512.821 380.072 Q 512.245 380.408, 511.797 381.256 L 510.693 380.664 Q 511.093 379.72, 512.053 379.096 Q 513.013 378.456, 514.357 378.456 Q 516.021 378.456, 516.997 379.24 Q 517.973 380.024, 517.973 381.352 Q 517.973 382.264, 517.477 382.92 Q 516.981 383.576, 516.037 383.944 " fill="#000000"/>
<path d="M 526.373 390.712 L 526.373 392.024 L 518.213 392.024 L 518.213 390.712 L 526.373 390.712 " fill="#000000"/>
<path d="M 527.781 378.536 L 529.301 378.536 L 529.301 389.912 L 527.781 389.912 L 527.781 378.536 " fill="#000000"/>
<path d="M 534.901 381.544 Q 536.213 381.544, 536.901 382.296 Q 537.605 383.048, 537.605 384.472 L 537.605 389.912 L 536.101 389.912 L 536.101 384.584 Q 536.101 383.608, 535.717 383.176 Q 535.349 382.728, 534.517 382.728 Q 533.765 382.728, 533.141 383.08 Q 532.517 383.416, 532.117 384.024 L 532.117 389.912 L 530.613 389.912 L 530.613 381.688 L 531.845 381.688 L 532.021 382.84 Q 533.125 381.544, 534.901 381.544 " fill="#000000"/>
<path d="M 545.813 377.768 L 545.813 389.896 L 544.597 389.896 L 544.389 388.888 Q 543.477 390.04, 541.957 390.04 Q 540.245 390.04, 539.285 388.984 Q 538.341 387.912, 538.341 385.928 Q 538.341 383.864, 539.461 382.712 Q 540.597 381.544, 542.565 381.544 Q 543.413 381.544, 544.309 381.768 L 544.309 377.768 L 545.813 377.768 M 542.053 388.856 Q 542.885 388.856, 543.477 388.408 Q 544.085 387.944, 544.309 387.128 L 544.309 382.968 Q 543.493 382.728, 542.581 382.728 Q 541.317 382.728, 540.597 383.576 Q 539.877 384.408, 539.877 385.928 Q 539.877 387.336, 540.437 388.104 Q 541.013 388.856, 542.053 388.856 " fill="#000000"/>
<path d="M 546.549 385.784 Q 546.549 383.768, 547.557 382.664 Q 548.565 381.544, 550.405 381.544 Q 552.213 381.544, 553.013 382.632 Q 553.829 383.704, 553.829 385.736 L 553.829 385.992 L 548.085 385.992 Q 548.117 387.384, 548.741 388.12 Q 549.365 388.856, 550.533 388.856 Q 551.173 388.856, 551.765 388.712 Q 552.357 388.552, 553.077 388.232 L 553.509 389.256 Q 552.693 389.672, 551.957 389.864 Q 551.221 390.04, 550.453 390.04 Q 548.597 390.04, 547.573 388.92 Q 546.549 387.8, 546.549 385.784 M 550.405 382.728 Q 549.461 382.728, 548.885 383.272 Q 548.325 383.816, 548.149 384.872 L 552.245 384.872 Q 552.133 383.768, 551.685 383.256 Q 551.237 382.728, 550.405 382.728 " fill="#000000"/>
<path d="M 556.965 385.656 L 554.181 381.688 L 555.925 381.688 L 557.909 384.488 L 559.877 381.688 L 561.493 381.688 L 558.709 385.64 L 561.733 389.912 L 559.973 389.912 L 557.781 386.808 L 555.605 389.912 L 553.973 389.912 L 556.965 385.656 " fill="#000000"/>
<path d="M 569.893 390.712 L 569.893 392.024 L 561.733 392.024 L 561.733 390.712 L 569.893 390.712 " fill="#000000"/>
<path d="M 575.013 390.04 Q 572.933 390.04, 571.893 388.504 Q 570.869 386.968, 570.869 384.232 Q 570.869 381.496, 571.893 379.976 Q 572.917 378.456, 575.013 378.456 Q 577.109 378.456, 578.133 379.976 Q 579.157 381.496, 579.157 384.232 Q 579.157 386.968, 578.117 388.504 Q 577.093 390.04, 575.013 390.04 M 575.013 388.76 Q 576.245 388.76, 576.901 387.624 Q 577.557 386.472, 577.557 384.232 Q 577.557 382.008, 576.901 380.872 Q 576.245 379.736, 575.013 379.736 Q 573.797 379.736, 573.125 380.872 Q 572.469 382.008, 572.469 384.232 Q 572.469 386.472, 573.125 387.624 Q 573.797 388.76, 575.013 388.76 " fill="#000000"/>
<path d="M 587.317 390.712 L 587.317 392.024 L 579.157 392.024 L 579.157 390.712 L 587.317 390.712 " fill="#000000"/>
<path d="M 597.221 384.36 L 597.221 389.144 Q 595.605 390.056, 593.221 390.056 Q 590.757 390.056, 589.429 388.552 Q 588.117 387.048, 588.117 384.232 Q 588.117 381.416, 589.429 379.944 Q 590.757 378.456, 593.269 378.456 Q 594.581 378.456, 595.541 378.872 Q 596.501 379.272, 597.173 380.104 L 596.133 380.968 Q 595.077 379.736, 593.269 379.736 Q 591.557 379.736, 590.645 380.888 Q 589.749 382.04, 589.749 384.232 Q 589.749 386.472, 590.677 387.624 Q 591.621 388.776, 593.445 388.776 Q 594.629 388.776, 595.685 388.392 L 595.685 384.36 L 597.221 384.36 " fill="#000000"/>
<path d="M 599.797 381.688 L 599.973 382.824 Q 600.837 381.544, 602.245 381.544 Q 602.693 381.544, 603.301 381.704 L 603.061 383.048 Q 602.373 382.888, 601.989 382.888 Q 601.317 382.888, 600.869 383.16 Q 600.437 383.416, 600.085 384.04 L 600.085 389.912 L 598.581 389.912 L 598.581 381.688 L 599.797 381.688 " fill="#000000"/>
<path d="M 604.037 385.784 Q 604.037 383.784, 605.045 382.664 Q 606.069 381.544, 607.941 381.544 Q 609.813 381.544, 610.821 382.664 Q 611.845 383.784, 611.845 385.784 Q 611.845 387.784, 610.821 388.92 Q 609.813 390.04, 607.941 390.04 Q 606.069 390.04, 605.045 388.92 Q 604.037 387.784, 604.037 385.784 M 605.573 385.784 Q 605.573 387.288, 606.181 388.072 Q 606.805 388.856, 607.941 388.856 Q 609.077 388.856, 609.685 388.072 Q 610.309 387.288, 610.309 385.784 Q 610.309 384.28, 609.685 383.512 Q 609.077 382.728, 607.941 382.728 Q 606.805 382.728, 606.181 383.512 Q 605.573 384.28, 605.573 385.784 " fill="#000000"/>
<path d="M 622.629 381.688 L 624.133 381.688 L 621.829 389.912 L 619.813 389.912 L 618.181 383.736 L 616.581 389.912 L 614.597 389.912 L 612.293 381.688 L 613.797 381.688 L 615.653 388.472 L 617.429 381.688 L 618.933 381.688 L 620.789 388.472 L 622.629 381.688 " fill="#000000"/>
<path d="M 625.493 378.584 L 632.229 378.584 L 632.229 379.88 L 627.013 379.88 L 627.013 383.32 L 631.653 383.32 L 631.653 384.632 L 627.013 384.632 L 627.013 389.912 L 625.493 389.912 L 625.493 378.584 " fill="#000000"/>
<path d="M 634.805 381.688 L 634.981 382.824 Q 635.845 381.544, 637.253 381.544 Q 637.701 381.544, 638.309 381.704 L 638.069 383.048 Q 637.381 382.888, 636.997 382.888 Q 636.325 382.888, 635.877 383.16 Q 635.445 383.416, 635.093 384.04 L 635.093 389.912 L 633.589 389.912 L 633.589 381.688 L 634.805 381.688 " fill="#000000"/>
<path d="M 639.013 387.688 Q 639.013 386.376, 640.069 385.656 Q 641.125 384.936, 643.061 384.936 L 644.277 384.936 L 644.277 384.616 Q 644.277 383.592, 643.845 383.16 Q 643.429 382.728, 642.405 382.728 Q 641.749 382.728, 641.237 382.856 Q 640.725 382.968, 639.925 383.32 L 639.477 382.28 Q 640.981 381.544, 642.437 381.544 Q 644.181 381.544, 644.981 382.296 Q 645.781 383.032, 645.781 384.648 L 645.781 389.912 L 644.613 389.912 Q 644.597 389.848, 644.549 389.608 Q 644.501 389.352, 644.405 388.952 Q 643.253 390.104, 641.717 390.104 Q 640.485 390.104, 639.749 389.448 Q 639.013 388.792, 639.013 387.688 M 640.517 387.656 Q 640.517 388.264, 640.901 388.6 Q 641.285 388.92, 642.005 388.92 Q 642.645 388.92, 643.253 388.632 Q 643.861 388.328, 644.277 387.816 L 644.277 386.056 L 643.157 386.056 Q 641.845 386.056, 641.173 386.456 Q 640.517 386.856, 640.517 387.656 " fill="#000000"/>
<path d="M 653.989 381.672 L 653.989 390.392 Q 653.989 393.928, 650.245 393.928 Q 648.437 393.928, 646.821 393.096 L 647.333 391.992 Q 648.197 392.424, 648.821 392.584 Q 649.445 392.744, 650.245 392.744 Q 651.445 392.744, 651.957 392.2 Q 652.485 391.672, 652.485 390.424 L 652.485 388.984 Q 651.621 390.04, 650.133 390.04 Q 648.421 390.04, 647.461 388.984 Q 646.517 387.912, 646.517 385.928 Q 646.517 383.864, 647.637 382.712 Q 648.773 381.544, 650.741 381.544 Q 651.781 381.544, 652.741 381.848 L 652.789 381.672 L 653.989 381.672 M 650.229 388.856 Q 651.061 388.856, 651.653 388.408 Q 652.261 387.944, 652.485 387.128 L 652.485 382.968 Q 651.669 382.728, 650.757 382.728 Q 649.493 382.728, 648.773 383.576 Q 648.053 384.408, 648.053 385.928 Q 648.053 387.336, 648.613 388.104 Q 649.189 388.856, 650.229 388.856 " fill="#000000"/>
<path d="M 664.805 381.544 Q 666.197 381.544, 666.901 382.296 Q 667.605 383.032, 667.605 384.472 L 667.605 389.912 L 666.101 389.912 L 666.101 384.584 Q 666.101 383.608, 665.717 383.176 Q 665.349 382.728, 664.517 382.728 Q 663.797 382.728, 663.173 383.08 Q 662.565 383.416, 662.197 384.024 Q 662.213 384.168, 662.213 384.472 L 662.213 389.912 L 660.709 389.912 L 660.709 384.584 Q 660.709 383.608, 660.325 383.176 Q 659.957 382.728, 659.125 382.728 Q 658.405 382.728, 657.797 383.08 Q 657.189 383.416, 656.805 384.008 L 656.805 389.912 L 655.301 389.912 L 655.301 381.688 L 656.533 381.688 L 656.693 382.808 Q 657.765 381.544, 659.413 381.544 Q 661.349 381.544, 661.957 382.984 Q 663.045 381.544, 664.805 381.544 " fill="#000000"/>
<path d="M 668.341 385.784 Q 668.341 383.768, 669.349 382.664 Q 670.357 381.544, 672.197 381.544 Q 674.005 381.544, 674.805 382.632 Q 675.621 383.704, 675.621 385.736 L 675.621 385.992 L 669.877 385.992 Q 669.909 387.384, 670.533 388.12 Q 671.157 388.856, 672.325 388.856 Q 672.965 388.856, 673.557 388.712 Q 674.149 388.552, 674.869 388.232 L 675.301 389.256 Q 674.485 389.672, 673.749 389.864 Q 673.013 390.04, 672.245 390.04 Q 670.389 390.04, 669.365 388.92 Q 668.341 387.8, 668.341 385.784 M 672.197 382.728 Q 671.253 382.728, 670.677 383.272 Q 670.117 383.816, 669.941 384.872 L 674.037 384.872 Q 673.925 383.768, 673.477 383.256 Q 673.029 382.728, 672.197 382.728 " fill="#000000"/>
<path d="M 681.221 381.544 Q 682.533 381.544, 683.221 382.296 Q 683.925 383.048, 683.925 384.472 L 683.925 389.912 L 682.421 389.912 L 682.421 384.584 Q 682.421 383.608, 682.037 383.176 Q 681.669 382.728, 680.837 382.728 Q 680.085 382.728, 679.461 383.08 Q 678.837 383.416, 678.437 384.024 L 678.437 389.912 L 676.933 389.912 L 676.933 381.688 L 678.165 381.688 L 678.341 382.84 Q 679.445 381.544, 681.221 381.544 " fill="#000000"/>
<path d="M 684.389 382.84 L 684.389 381.688 L 685.957 381.688 L 686.213 379.288 L 687.333 379.288 L 687.333 381.688 L 689.845 381.688 L 689.845 382.84 L 687.333 382.84 L 687.333 387.384 Q 687.333 388.808, 688.533 388.808 Q 689.013 388.808, 689.717 388.584 L 689.973 389.64 Q 689.093 390.008, 688.261 390.008 Q 687.189 390.008, 686.501 389.368 Q 685.829 388.728, 685.829 387.464 L 685.829 382.84 L 684.389 382.84 " fill="#000000"/>
<path d="M 698.133 390.712 L 698.133 392.024 L 689.973 392.024 L 689.973 390.712 L 698.133 390.712 " fill="#000000"/>
<path d="M 703.253 390.04 Q 701.173 390.04, 700.133 388.504 Q 699.109 386.968, 699.109 384.232 Q 699.109 381.496, 700.133 379.976 Q 701.157 378.456, 703.253 378.456 Q 705.349 378.456, 706.373 379.976 Q 707.397 381.496, 707.397 384.232 Q 707.397 386.968, 706.357 388.504 Q 705.333 390.04, 703.253 390.04 M 703.253 388.76 Q 704.485 388.76, 705.141 387.624 Q 705.797 386.472, 705.797 384.232 Q 705.797 382.008, 705.141 380.872 Q 704.485 379.736, 703.253 379.736 Q 702.037 379.736, 701.365 380.872 Q 700.709 382.008, 700.709 384.232 Q 700.709 386.472, 701.365 387.624 Q 702.037 388.76, 703.253 388.76 " fill="#000000"/>
<text x="290.89727422975056" y="200.00000000000006" font-size="12" font-family="Verdana" font-weight="bold" letter-spacing="0" text-anchor="start" fill="black" transform=" rotate(43.832425 290.897274 200.000000)">0.0621</text><text x="700.8597839288208" y="200.00000000000006" font-size="12" font-family="Verdana" font-weight="bold" letter-spacing="0" text-anchor="start" fill="black" transform=" rotate(39.897715 700.859784 200.000000)">0.0544</text></svg>
