<?xml version='1.0' encoding='ASCII' standalone='yes'?>
<svg xmlns="http://www.w3.org/2000/svg" xmlns:rdkit="http://www.rdkit.org/xml" xmlns:xlink="http://www.w3.org/1999/xlink" version="1.1" baseProfile="full" xml:space="preserve" width="500px" height="500px" viewBox="0 0 500 500">
<!-- END OF HEADER -->
<rect style="opacity:1.0;fill:#FFFFFF;stroke:none" width="500" height="500" x="0" y="0"> </rect>
<path d="M 112.462,225.336 L 151.429,274.714" style="fill:none;fill-rule:evenodd;stroke:#FF7F7F;stroke-width:13.4px;stroke-linecap:butt;stroke-linejoin:miter;stroke-opacity:1"/>
<path class="bond-1 atom-1 atom-0" d="M 88.93,222.404 L 72.3062,224.823" style="fill:none;fill-rule:evenodd;stroke:#000000;stroke-width:2.0px;stroke-linecap:butt;stroke-linejoin:miter;stroke-opacity:1"/>
<path class="bond-1 atom-1 atom-0" d="M 72.3062,224.823 L 55.6823,227.242" style="fill:none;fill-rule:evenodd;stroke:#FF0000;stroke-width:2.0px;stroke-linecap:butt;stroke-linejoin:miter;stroke-opacity:1"/>
<path class="bond-1 atom-1 atom-0" d="M 90.7415,234.853 L 74.1177,237.272" style="fill:none;fill-rule:evenodd;stroke:#000000;stroke-width:2.0px;stroke-linecap:butt;stroke-linejoin:miter;stroke-opacity:1"/>
<path class="bond-1 atom-1 atom-0" d="M 74.1177,237.272 L 57.4938,239.691" style="fill:none;fill-rule:evenodd;stroke:#FF0000;stroke-width:2.0px;stroke-linecap:butt;stroke-linejoin:miter;stroke-opacity:1"/>
<path class="bond-0 atom-1 atom-10" d="M 116.676,214.756 L 131.549,177.422" style="fill:none;fill-rule:evenodd;stroke:#000000;stroke-width:2.0px;stroke-linecap:butt;stroke-linejoin:miter;stroke-opacity:1"/>
<path class="bond-3 atom-2 atom-1" d="M 143.238,264.335 L 131.894,249.961" style="fill:none;fill-rule:evenodd;stroke:#0000FF;stroke-width:2.0px;stroke-linecap:butt;stroke-linejoin:miter;stroke-opacity:1"/>
<path class="bond-3 atom-2 atom-1" d="M 131.894,249.961 L 120.55,235.586" style="fill:none;fill-rule:evenodd;stroke:#000000;stroke-width:2.0px;stroke-linecap:butt;stroke-linejoin:miter;stroke-opacity:1"/>
<path class="bond-2 atom-2 atom-4" d="M 163.319,272.984 L 177.341,270.944" style="fill:none;fill-rule:evenodd;stroke:#0000FF;stroke-width:2.0px;stroke-linecap:butt;stroke-linejoin:miter;stroke-opacity:1"/>
<path class="bond-2 atom-2 atom-4" d="M 177.341,270.944 L 191.362,268.903" style="fill:none;fill-rule:evenodd;stroke:#000000;stroke-width:2.0px;stroke-linecap:butt;stroke-linejoin:miter;stroke-opacity:1"/>
<path class="bond-4 atom-2 atom-3" d="M 147.384,284.866 L 139.78,303.955" style="fill:none;fill-rule:evenodd;stroke:#0000FF;stroke-width:2.0px;stroke-linecap:butt;stroke-linejoin:miter;stroke-opacity:1"/>
<path class="bond-4 atom-2 atom-3" d="M 139.78,303.955 L 132.176,323.044" style="fill:none;fill-rule:evenodd;stroke:#000000;stroke-width:2.0px;stroke-linecap:butt;stroke-linejoin:miter;stroke-opacity:1"/>
<path class="bond-5 atom-3 atom-11" d="M 104.979,323.919 L 76.664,312.639" style="fill:none;fill-rule:evenodd;stroke:#000000;stroke-width:2.0px;stroke-linecap:butt;stroke-linejoin:miter;stroke-opacity:1"/>
<path class="bond-6 atom-3 atom-12" d="M 140.732,338.162 L 178.382,353.161" style="fill:none;fill-rule:evenodd;stroke:#000000;stroke-width:2.0px;stroke-linecap:butt;stroke-linejoin:miter;stroke-opacity:1"/>
<path class="bond-7 atom-3 atom-13" d="M 123.935,343.73 L 108.912,381.441" style="fill:none;fill-rule:evenodd;stroke:#000000;stroke-width:2.0px;stroke-linecap:butt;stroke-linejoin:miter;stroke-opacity:1"/>
<path class="bond-14 atom-8 atom-4" d="M 232.659,218.002 L 217.694,255.568" style="fill:none;fill-rule:evenodd;stroke:#000000;stroke-width:2.0px;stroke-linecap:butt;stroke-linejoin:miter;stroke-opacity:1"/>
<path class="bond-14 atom-8 atom-4" d="M 242.101,228.293 L 231.626,254.589" style="fill:none;fill-rule:evenodd;stroke:#000000;stroke-width:2.0px;stroke-linecap:butt;stroke-linejoin:miter;stroke-opacity:1"/>
<path class="bond-16 atom-9 atom-4" d="M 244.372,304.555 L 221.92,276.104" style="fill:none;fill-rule:evenodd;stroke:#000000;stroke-width:2.0px;stroke-linecap:butt;stroke-linejoin:miter;stroke-opacity:1"/>
<path class="bond-8 atom-5 atom-6" d="M 329.818,236.961 L 307.284,208.406" style="fill:none;fill-rule:evenodd;stroke:#000000;stroke-width:2.0px;stroke-linecap:butt;stroke-linejoin:miter;stroke-opacity:1"/>
<path class="bond-8 atom-5 atom-6" d="M 316.562,240.471 L 300.788,220.483" style="fill:none;fill-rule:evenodd;stroke:#000000;stroke-width:2.0px;stroke-linecap:butt;stroke-linejoin:miter;stroke-opacity:1"/>
<path class="bond-9 atom-5 atom-7" d="M 334.123,257.694 L 318.994,295.67" style="fill:none;fill-rule:evenodd;stroke:#000000;stroke-width:2.0px;stroke-linecap:butt;stroke-linejoin:miter;stroke-opacity:1"/>
<path class="bond-21 atom-20 atom-5" d="M 371.74,242.656 L 360.805,244.247" style="fill:none;fill-rule:evenodd;stroke:#0000FF;stroke-width:2.0px;stroke-linecap:butt;stroke-linejoin:miter;stroke-opacity:1"/>
<path class="bond-21 atom-20 atom-5" d="M 360.805,244.247 L 349.87,245.838" style="fill:none;fill-rule:evenodd;stroke:#000000;stroke-width:2.0px;stroke-linecap:butt;stroke-linejoin:miter;stroke-opacity:1"/>
<path class="bond-10 atom-6 atom-8" d="M 276.916,201.406 L 244.14,206.175" style="fill:none;fill-rule:evenodd;stroke:#000000;stroke-width:2.0px;stroke-linecap:butt;stroke-linejoin:miter;stroke-opacity:1"/>
<path class="bond-11 atom-6 atom-14" d="M 303.335,187.785 L 318.396,149.978" style="fill:none;fill-rule:evenodd;stroke:#000000;stroke-width:2.0px;stroke-linecap:butt;stroke-linejoin:miter;stroke-opacity:1"/>
<path class="bond-12 atom-7 atom-9" d="M 291.921,309.319 L 270.747,312.4" style="fill:none;fill-rule:evenodd;stroke:#000000;stroke-width:2.0px;stroke-linecap:butt;stroke-linejoin:miter;stroke-opacity:1"/>
<path class="bond-12 atom-7 atom-9" d="M 286.933,297.332 L 272.111,299.489" style="fill:none;fill-rule:evenodd;stroke:#000000;stroke-width:2.0px;stroke-linecap:butt;stroke-linejoin:miter;stroke-opacity:1"/>
<path class="bond-13 atom-7 atom-15" d="M 323.436,316.809 L 345.937,345.321" style="fill:none;fill-rule:evenodd;stroke:#000000;stroke-width:2.0px;stroke-linecap:butt;stroke-linejoin:miter;stroke-opacity:1"/>
<path class="bond-15 atom-8 atom-16" d="M 229.848,200.185 L 217.153,187.613" style="fill:none;fill-rule:evenodd;stroke:#000000;stroke-width:2.0px;stroke-linecap:butt;stroke-linejoin:miter;stroke-opacity:1"/>
<path class="bond-17 atom-9 atom-17" d="M 248.427,325.615 L 233.465,363.175" style="fill:none;fill-rule:evenodd;stroke:#000000;stroke-width:2.0px;stroke-linecap:butt;stroke-linejoin:miter;stroke-opacity:1"/>
<path class="bond-18 atom-10 atom-18" d="M 153.872,176.837 L 160.932,180.705" style="fill:none;fill-rule:evenodd;stroke:#000000;stroke-width:2.0px;stroke-linecap:butt;stroke-linejoin:miter;stroke-opacity:1"/>
<path class="bond-19 atom-10 atom-19" d="M 127.299,163.538 L 85.1669,146.754" style="fill:none;fill-rule:evenodd;stroke:#000000;stroke-width:2.0px;stroke-linecap:butt;stroke-linejoin:miter;stroke-opacity:1"/>
<path class="bond-20 atom-10 atom-22" d="M 139.955,156.321 L 154.918,118.76" style="fill:none;fill-rule:evenodd;stroke:#000000;stroke-width:2.0px;stroke-linecap:butt;stroke-linejoin:miter;stroke-opacity:1"/>
<path class="bond-22 atom-20 atom-21" d="M 408.763,249.064 L 420.109,263.442" style="fill:none;fill-rule:evenodd;stroke:#0000FF;stroke-width:2.0px;stroke-linecap:butt;stroke-linejoin:miter;stroke-opacity:1"/>
<path class="bond-22 atom-20 atom-21" d="M 420.109,263.442 L 431.456,277.82" style="fill:none;fill-rule:evenodd;stroke:#000000;stroke-width:2.0px;stroke-linecap:butt;stroke-linejoin:miter;stroke-opacity:1"/>
<path class="bond-23 atom-20 atom-23" d="M 404.628,227.904 L 412.11,209.124" style="fill:none;fill-rule:evenodd;stroke:#0000FF;stroke-width:2.0px;stroke-linecap:butt;stroke-linejoin:miter;stroke-opacity:1"/>
<path class="bond-23 atom-20 atom-23" d="M 412.11,209.124 L 419.591,190.344" style="fill:none;fill-rule:evenodd;stroke:#000000;stroke-width:2.0px;stroke-linecap:butt;stroke-linejoin:miter;stroke-opacity:1"/>
<path class="atom-0" d="M 22.7273 234.444 Q 22.7273 230.167, 24.8408 227.777 Q 26.9543 225.386, 30.9045 225.386 Q 34.8547 225.386, 36.9682 227.777 Q 39.0817 230.167, 39.0817 234.444 Q 39.0817 238.772, 36.9431 241.237 Q 34.8044 243.678, 30.9045 243.678 Q 26.9794 243.678, 24.8408 241.237 Q 22.7273 238.797, 22.7273 234.444 M 30.9045 241.665 Q 33.6219 241.665, 35.0812 239.854 Q 36.5657 238.017, 36.5657 234.444 Q 36.5657 230.947, 35.0812 229.186 Q 33.6219 227.399, 30.9045 227.399 Q 28.1871 227.399, 26.7027 229.16 Q 25.2433 230.922, 25.2433 234.444 Q 25.2433 238.042, 26.7027 239.854 Q 28.1871 241.665, 30.9045 241.665 " fill="#FF0000"/>
<path class="atom-0" d="M 40.9688 240.458 L 43.4848 240.458 L 43.4848 242.974 L 40.9688 242.974 L 40.9688 240.458 M 40.9688 231.802 L 43.4848 231.802 L 43.4848 234.318 L 40.9688 234.318 L 40.9688 231.802 " fill="#FF0000"/>
<path class="atom-0" d="M 45.8248 241.388 L 49.7247 241.388 L 49.7247 228.078 L 45.4222 229.412 L 44.8435 227.927 L 50.3034 225.487 L 52.0898 225.789 L 52.0898 241.388 L 55.5871 241.388 L 55.5871 243.401 L 45.8248 243.401 L 45.8248 241.388 " fill="#FF0000"/>
<path class="atom-1" d="M 91.4083 225.412 Q 91.4083 220.983, 93.4715 218.669 Q 95.5598 216.329, 99.5101 216.329 Q 103.184 216.329, 105.146 218.92 L 103.485 220.279 Q 102.051 218.392, 99.5101 218.392 Q 96.8179 218.392, 95.3837 220.203 Q 93.9747 221.99, 93.9747 225.412 Q 93.9747 228.934, 95.434 230.746 Q 96.9185 232.557, 99.7868 232.557 Q 101.749 232.557, 104.039 231.375 L 104.743 233.262 Q 103.813 233.866, 102.404 234.218 Q 100.995 234.57, 99.4346 234.57 Q 95.5598 234.57, 93.4715 232.205 Q 91.4083 229.84, 91.4083 225.412 " fill="#000000"/>
<path class="atom-1" d="M 107.033 231.4 L 109.549 231.4 L 109.549 233.916 L 107.033 233.916 L 107.033 231.4 M 107.033 222.745 L 109.549 222.745 L 109.549 225.261 L 107.033 225.261 L 107.033 222.745 " fill="#000000"/>
<path class="atom-1" d="M 110.858 219.901 Q 111.512 218.216, 113.072 217.285 Q 114.632 216.329, 116.795 216.329 Q 119.488 216.329, 120.997 217.788 Q 122.507 219.247, 122.507 221.839 Q 122.507 224.481, 120.544 226.946 Q 118.607 229.412, 114.581 232.331 L 122.809 232.331 L 122.809 234.344 L 110.807 234.344 L 110.807 232.658 Q 114.128 230.293, 116.091 228.532 Q 118.079 226.77, 119.035 225.185 Q 119.991 223.6, 119.991 221.965 Q 119.991 220.254, 119.135 219.298 Q 118.28 218.341, 116.795 218.341 Q 115.361 218.341, 114.405 218.92 Q 113.449 219.499, 112.77 220.782 L 110.858 219.901 " fill="#000000"/>
<path class="atom-2" d="M 133.617 265.908 L 139.454 275.343 Q 140.033 276.274, 140.964 277.96 Q 141.895 279.646, 141.945 279.746 L 141.945 265.908 L 144.31 265.908 L 144.31 283.722 L 141.87 283.722 L 135.605 273.406 Q 134.875 272.198, 134.095 270.814 Q 133.34 269.43, 133.114 269.003 L 133.114 283.722 L 130.799 283.722 L 130.799 265.908 L 133.617 265.908 " fill="#0000FF"/>
<path class="atom-2" d="M 146.197 280.778 L 148.713 280.778 L 148.713 283.294 L 146.197 283.294 L 146.197 280.778 M 146.197 272.123 L 148.713 272.123 L 148.713 274.639 L 146.197 274.639 L 146.197 272.123 " fill="#0000FF"/>
<path class="atom-2" d="M 158.325 274.337 Q 160.061 274.84, 160.891 275.972 Q 161.747 277.079, 161.747 278.841 Q 161.747 280.35, 160.992 281.533 Q 160.237 282.69, 158.853 283.344 Q 157.469 283.973, 155.658 283.973 Q 153.746 283.973, 152.311 283.319 Q 150.902 282.64, 149.77 281.281 L 151.204 279.822 Q 152.311 281.029, 153.242 281.508 Q 154.173 281.96, 155.658 281.96 Q 157.268 281.96, 158.249 281.105 Q 159.231 280.224, 159.231 278.815 Q 159.231 277.004, 158.199 276.199 Q 157.193 275.368, 155.004 275.368 L 153.72 275.368 L 153.72 273.557 L 154.853 273.557 Q 156.79 273.532, 157.822 272.701 Q 158.853 271.846, 158.853 270.261 Q 158.853 269.103, 157.998 268.424 Q 157.142 267.719, 155.683 267.719 Q 154.199 267.719, 153.268 268.248 Q 152.362 268.776, 151.657 270.11 L 149.921 269.179 Q 150.55 267.694, 152.06 266.713 Q 153.569 265.707, 155.683 265.707 Q 158.3 265.707, 159.835 266.939 Q 161.369 268.172, 161.369 270.261 Q 161.369 271.695, 160.589 272.726 Q 159.809 273.758, 158.325 274.337 " fill="#0000FF"/>
<path class="atom-3" d="M 106.551 333.225 Q 106.551 328.797, 108.615 326.482 Q 110.703 324.142, 114.653 324.142 Q 118.327 324.142, 120.289 326.734 L 118.629 328.092 Q 117.194 326.205, 114.653 326.205 Q 111.961 326.205, 110.527 328.017 Q 109.118 329.803, 109.118 333.225 Q 109.118 336.748, 110.577 338.559 Q 112.062 340.371, 114.93 340.371 Q 116.892 340.371, 119.182 339.188 L 119.887 341.075 Q 118.956 341.679, 117.547 342.031 Q 116.138 342.384, 114.578 342.384 Q 110.703 342.384, 108.615 340.019 Q 106.551 337.654, 106.551 333.225 " fill="#000000"/>
<path class="atom-3" d="M 122.176 339.213 L 124.692 339.213 L 124.692 341.73 L 122.176 341.73 L 122.176 339.213 M 122.176 330.558 L 124.692 330.558 L 124.692 333.074 L 122.176 333.074 L 122.176 330.558 " fill="#000000"/>
<path class="atom-3" d="M 137.021 336.043 L 139.16 336.043 L 139.16 338.056 L 137.021 338.056 L 137.021 342.157 L 134.656 342.157 L 134.656 338.056 L 125.447 338.056 L 125.447 336.471 L 133.247 324.343 L 137.021 324.343 L 137.021 336.043 M 128.366 336.043 L 134.656 336.043 L 134.656 325.954 L 128.366 336.043 " fill="#000000"/>
<path class="atom-4" d="M 192.634 265.732 Q 192.634 261.304, 194.697 258.989 Q 196.786 256.649, 200.736 256.649 Q 204.41 256.649, 206.372 259.241 L 204.711 260.599 Q 203.277 258.712, 200.736 258.712 Q 198.044 258.712, 196.61 260.524 Q 195.201 262.31, 195.201 265.732 Q 195.201 269.255, 196.66 271.066 Q 198.144 272.878, 201.013 272.878 Q 202.975 272.878, 205.265 271.695 L 205.969 273.582 Q 205.039 274.186, 203.63 274.538 Q 202.221 274.891, 200.661 274.891 Q 196.786 274.891, 194.697 272.525 Q 192.634 270.16, 192.634 265.732 " fill="#000000"/>
<path class="atom-4" d="M 208.259 271.72 L 210.775 271.72 L 210.775 274.236 L 208.259 274.236 L 208.259 271.72 M 208.259 263.065 L 210.775 263.065 L 210.775 265.581 L 208.259 265.581 L 208.259 263.065 " fill="#000000"/>
<path class="atom-4" d="M 218.399 263.518 Q 219.959 263.518, 221.242 264.197 Q 222.525 264.851, 223.255 266.109 Q 223.985 267.342, 223.985 269.028 Q 223.985 270.865, 223.079 272.198 Q 222.198 273.507, 220.739 274.186 Q 219.279 274.865, 217.619 274.865 Q 215.983 274.865, 214.474 274.262 Q 212.964 273.658, 211.933 272.5 L 213.442 270.94 Q 214.272 271.846, 215.405 272.349 Q 216.537 272.827, 217.694 272.827 Q 219.279 272.827, 220.361 271.846 Q 221.468 270.865, 221.468 269.078 Q 221.468 267.191, 220.361 266.311 Q 219.279 265.405, 217.543 265.405 Q 215.983 265.405, 214.247 266.084 L 212.863 265.43 L 213.719 256.85 L 222.877 256.85 L 222.626 258.863 L 215.782 258.863 L 215.254 264.147 Q 216.839 263.518, 218.399 263.518 " fill="#000000"/>
<path class="atom-5" d="M 316.816 247.617 Q 316.816 243.189, 318.88 240.874 Q 320.968 238.534, 324.918 238.534 Q 328.592 238.534, 330.554 241.125 L 328.894 242.484 Q 327.459 240.597, 324.918 240.597 Q 322.226 240.597, 320.792 242.409 Q 319.383 244.195, 319.383 247.617 Q 319.383 251.139, 320.842 252.951 Q 322.327 254.762, 325.195 254.762 Q 327.157 254.762, 329.447 253.58 L 330.152 255.467 Q 329.221 256.071, 327.812 256.423 Q 326.403 256.775, 324.843 256.775 Q 320.968 256.775, 318.88 254.41 Q 316.816 252.045, 316.816 247.617 " fill="#000000"/>
<path class="atom-5" d="M 332.441 253.605 L 334.957 253.605 L 334.957 256.121 L 332.441 256.121 L 332.441 253.605 M 332.441 244.95 L 334.957 244.95 L 334.957 247.466 L 332.441 247.466 L 332.441 244.95 " fill="#000000"/>
<path class="atom-5" d="M 343.638 245.428 Q 345.198 245.428, 346.431 246.107 Q 347.663 246.787, 348.343 248.019 Q 349.022 249.252, 349.022 250.812 Q 349.022 252.548, 348.242 253.907 Q 347.487 255.241, 346.129 255.995 Q 344.77 256.75, 343.034 256.75 Q 339.864 256.75, 338.253 254.611 Q 336.668 252.448, 336.668 248.17 Q 336.668 243.44, 338.631 241 Q 340.618 238.534, 344.418 238.534 Q 345.525 238.534, 346.456 238.785 Q 347.412 239.037, 348.318 239.565 L 347.336 241.251 Q 346.028 240.547, 344.443 240.547 Q 341.927 240.547, 340.644 242.182 Q 339.36 243.792, 339.209 247.139 Q 340.115 246.308, 341.247 245.881 Q 342.405 245.428, 343.638 245.428 M 343.059 254.687 Q 344.015 254.687, 344.795 254.184 Q 345.6 253.681, 346.053 252.8 Q 346.506 251.919, 346.506 250.837 Q 346.506 249.252, 345.625 248.346 Q 344.745 247.441, 343.185 247.441 Q 342.103 247.441, 341.021 247.894 Q 339.964 248.321, 339.209 249.076 Q 339.31 252.02, 340.241 253.353 Q 341.172 254.687, 343.059 254.687 " fill="#000000"/>
<path class="atom-6" d="M 278.489 198.239 Q 278.489 193.811, 280.552 191.496 Q 282.64 189.156, 286.59 189.156 Q 290.264 189.156, 292.226 191.747 L 290.566 193.106 Q 289.132 191.219, 286.59 191.219 Q 283.898 191.219, 282.464 193.031 Q 281.055 194.817, 281.055 198.239 Q 281.055 201.761, 282.514 203.573 Q 283.999 205.384, 286.867 205.384 Q 288.83 205.384, 291.119 204.202 L 291.824 206.089 Q 290.893 206.693, 289.484 207.045 Q 288.075 207.397, 286.515 207.397 Q 282.64 207.397, 280.552 205.032 Q 278.489 202.667, 278.489 198.239 " fill="#000000"/>
<path class="atom-6" d="M 294.113 204.227 L 296.63 204.227 L 296.63 206.743 L 294.113 206.743 L 294.113 204.227 M 294.113 195.572 L 296.63 195.572 L 296.63 198.088 L 294.113 198.088 L 294.113 195.572 " fill="#000000"/>
<path class="atom-6" d="M 306.417 191.37 L 297.082 191.37 L 297.082 189.357 L 308.908 189.357 L 308.908 191.144 L 301.712 207.171 L 299.297 207.171 L 306.417 191.37 " fill="#000000"/>
<path class="atom-7" d="M 293.493 306.052 Q 293.493 301.624, 295.557 299.309 Q 297.645 296.969, 301.595 296.969 Q 305.269 296.969, 307.231 299.561 L 305.57 300.92 Q 304.136 299.033, 301.595 299.033 Q 298.903 299.033, 297.469 300.844 Q 296.06 302.631, 296.06 306.052 Q 296.06 309.575, 297.519 311.386 Q 299.004 313.198, 301.872 313.198 Q 303.834 313.198, 306.124 312.015 L 306.829 313.903 Q 305.898 314.506, 304.489 314.859 Q 303.08 315.211, 301.52 315.211 Q 297.645 315.211, 295.557 312.846 Q 293.493 310.481, 293.493 306.052 " fill="#000000"/>
<path class="atom-7" d="M 309.118 312.041 L 311.634 312.041 L 311.634 314.557 L 309.118 314.557 L 309.118 312.041 M 309.118 303.385 L 311.634 303.385 L 311.634 305.901 L 309.118 305.901 L 309.118 303.385 " fill="#000000"/>
<path class="atom-7" d="M 322.277 305.549 Q 323.913 306.254, 324.844 307.31 Q 325.775 308.342, 325.775 310.103 Q 325.775 311.613, 324.995 312.795 Q 324.215 313.953, 322.806 314.607 Q 321.422 315.236, 319.585 315.236 Q 316.616 315.236, 314.905 313.877 Q 313.194 312.494, 313.194 310.103 Q 313.194 308.644, 313.949 307.562 Q 314.704 306.455, 316.264 305.625 Q 315.106 304.97, 314.477 304.014 Q 313.848 303.033, 313.848 301.523 Q 313.848 299.435, 315.358 298.202 Q 316.893 296.969, 319.484 296.969 Q 322.076 296.969, 323.586 298.202 Q 325.12 299.435, 325.12 301.523 Q 325.12 302.832, 324.391 303.813 Q 323.686 304.769, 322.277 305.549 M 319.484 298.856 Q 318 298.856, 317.17 299.561 Q 316.364 300.265, 316.364 301.523 Q 316.364 302.454, 316.918 303.083 Q 317.471 303.687, 318.251 304.04 Q 319.057 304.392, 320.591 304.92 Q 321.673 304.165, 322.126 303.36 Q 322.604 302.555, 322.604 301.523 Q 322.604 300.265, 321.774 299.561 Q 320.969 298.856, 319.484 298.856 M 319.585 313.349 Q 321.246 313.349, 322.252 312.468 Q 323.258 311.563, 323.258 310.078 Q 323.258 309.122, 322.73 308.518 Q 322.202 307.914, 321.397 307.562 Q 320.617 307.21, 319.208 306.757 L 318.075 306.379 Q 316.817 307.134, 316.264 308.04 Q 315.71 308.921, 315.71 310.078 Q 315.71 311.563, 316.767 312.468 Q 317.824 313.349, 319.585 313.349 " fill="#000000"/>
<path class="atom-8" d="M 211.252 207.296 Q 211.252 202.868, 213.315 200.553 Q 215.404 198.213, 219.354 198.213 Q 223.027 198.213, 224.99 200.805 L 223.329 202.164 Q 221.895 200.277, 219.354 200.277 Q 216.662 200.277, 215.228 202.088 Q 213.819 203.875, 213.819 207.296 Q 213.819 210.819, 215.278 212.631 Q 216.762 214.442, 219.631 214.442 Q 221.593 214.442, 223.883 213.26 L 224.587 215.147 Q 223.656 215.75, 222.247 216.103 Q 220.838 216.455, 219.279 216.455 Q 215.404 216.455, 213.315 214.09 Q 211.252 211.725, 211.252 207.296 " fill="#000000"/>
<path class="atom-8" d="M 226.877 213.285 L 229.393 213.285 L 229.393 215.801 L 226.877 215.801 L 226.877 213.285 M 226.877 204.629 L 229.393 204.629 L 229.393 207.145 L 226.877 207.145 L 226.877 204.629 " fill="#000000"/>
<path class="atom-8" d="M 236.765 198.213 Q 239.935 198.213, 241.521 200.377 Q 243.131 202.516, 243.131 206.793 Q 243.131 211.523, 241.143 213.989 Q 239.181 216.43, 235.381 216.43 Q 234.274 216.43, 233.318 216.178 Q 232.387 215.927, 231.481 215.398 L 232.463 213.712 Q 233.771 214.417, 235.356 214.417 Q 237.872 214.417, 239.155 212.807 Q 240.439 211.171, 240.59 207.825 Q 239.684 208.655, 238.526 209.108 Q 237.394 209.536, 236.161 209.536 Q 234.601 209.536, 233.369 208.856 Q 232.136 208.177, 231.456 206.944 Q 230.777 205.711, 230.777 204.151 Q 230.777 202.415, 231.532 201.082 Q 232.312 199.723, 233.67 198.968 Q 235.029 198.213, 236.765 198.213 M 233.293 204.126 Q 233.293 205.711, 234.174 206.617 Q 235.054 207.523, 236.614 207.523 Q 237.696 207.523, 238.753 207.095 Q 239.835 206.642, 240.59 205.887 Q 240.489 202.944, 239.558 201.61 Q 238.627 200.277, 236.74 200.277 Q 235.784 200.277, 234.979 200.78 Q 234.199 201.283, 233.746 202.164 Q 233.293 203.044, 233.293 204.126 " fill="#000000"/>
<path class="atom-9" d="M 224.943 315.11 Q 224.943 310.682, 227.007 308.367 Q 229.095 306.027, 233.045 306.027 Q 236.719 306.027, 238.681 308.619 L 237.02 309.977 Q 235.586 308.09, 233.045 308.09 Q 230.353 308.09, 228.919 309.902 Q 227.51 311.688, 227.51 315.11 Q 227.51 318.633, 228.969 320.444 Q 230.454 322.256, 233.322 322.256 Q 235.284 322.256, 237.574 321.073 L 238.279 322.96 Q 237.348 323.564, 235.939 323.916 Q 234.53 324.269, 232.97 324.269 Q 229.095 324.269, 227.007 321.903 Q 224.943 319.538, 224.943 315.11 " fill="#000000"/>
<path class="atom-9" d="M 240.568 321.098 L 243.084 321.098 L 243.084 323.614 L 240.568 323.614 L 240.568 321.098 M 240.568 312.443 L 243.084 312.443 L 243.084 314.959 L 240.568 314.959 L 240.568 312.443 " fill="#000000"/>
<path class="atom-9" d="M 245.424 322.029 L 249.324 322.029 L 249.324 308.719 L 245.022 310.053 L 244.443 308.568 L 249.903 306.128 L 251.689 306.43 L 251.689 322.029 L 255.187 322.029 L 255.187 324.042 L 245.424 324.042 L 245.424 322.029 " fill="#000000"/>
<path class="atom-9" d="M 263.238 324.243 Q 259.967 324.243, 258.332 321.828 Q 256.721 319.412, 256.721 315.11 Q 256.721 310.808, 258.332 308.417 Q 259.942 306.027, 263.238 306.027 Q 266.534 306.027, 268.144 308.417 Q 269.755 310.808, 269.755 315.11 Q 269.755 319.412, 268.119 321.828 Q 266.509 324.243, 263.238 324.243 M 263.238 322.23 Q 265.175 322.23, 266.207 320.444 Q 267.238 318.633, 267.238 315.11 Q 267.238 311.613, 266.207 309.826 Q 265.175 308.04, 263.238 308.04 Q 261.326 308.04, 260.269 309.826 Q 259.237 311.613, 259.237 315.11 Q 259.237 318.633, 260.269 320.444 Q 261.326 322.23, 263.238 322.23 " fill="#000000"/>
<path class="atom-10" d="M 128.872 166.976 Q 128.872 162.548, 130.935 160.233 Q 133.023 157.893, 136.973 157.893 Q 140.647 157.893, 142.609 160.485 L 140.949 161.843 Q 139.515 159.956, 136.973 159.956 Q 134.281 159.956, 132.847 161.768 Q 131.438 163.554, 131.438 166.976 Q 131.438 170.499, 132.897 172.31 Q 134.382 174.122, 137.25 174.122 Q 139.213 174.122, 141.502 172.939 L 142.207 174.826 Q 141.276 175.43, 139.867 175.782 Q 138.458 176.135, 136.898 176.135 Q 133.023 176.135, 130.935 173.769 Q 128.872 171.404, 128.872 166.976 " fill="#000000"/>
<path class="atom-10" d="M 144.496 172.964 L 147.012 172.964 L 147.012 175.48 L 144.496 175.48 L 144.496 172.964 M 144.496 164.309 L 147.012 164.309 L 147.012 166.825 L 144.496 166.825 L 144.496 164.309 " fill="#000000"/>
<path class="atom-10" d="M 149.352 173.895 L 153.252 173.895 L 153.252 160.585 L 148.95 161.919 L 148.371 160.434 L 153.831 157.994 L 155.617 158.296 L 155.617 173.895 L 159.115 173.895 L 159.115 175.908 L 149.352 175.908 L 149.352 173.895 " fill="#000000"/>
<path class="atom-10" d="M 161.455 173.895 L 165.355 173.895 L 165.355 160.585 L 161.052 161.919 L 160.473 160.434 L 165.933 157.994 L 167.72 158.296 L 167.72 173.895 L 171.217 173.895 L 171.217 175.908 L 161.455 175.908 L 161.455 173.895 " fill="#000000"/>
<path class="atom-11" d="M 32.0109 301.065 L 34.4263 301.065 L 34.4263 308.638 L 43.5345 308.638 L 43.5345 301.065 L 45.9499 301.065 L 45.9499 318.878 L 43.5345 318.878 L 43.5345 310.651 L 34.4263 310.651 L 34.4263 318.878 L 32.0109 318.878 L 32.0109 301.065 " fill="#000000"/>
<path class="atom-11" d="M 47.8369 315.934 L 50.353 315.934 L 50.353 318.451 L 47.8369 318.451 L 47.8369 315.934 M 47.8369 307.279 L 50.353 307.279 L 50.353 309.795 L 47.8369 309.795 L 47.8369 307.279 " fill="#000000"/>
<path class="atom-11" d="M 52.693 316.865 L 56.5929 316.865 L 56.5929 303.555 L 52.2904 304.889 L 51.7117 303.404 L 57.1716 300.964 L 58.958 301.266 L 58.958 316.865 L 62.4553 316.865 L 62.4553 318.878 L 52.693 318.878 L 52.693 316.865 " fill="#000000"/>
<path class="atom-11" d="M 63.7637 304.436 Q 64.4178 302.75, 65.9778 301.819 Q 67.5378 300.863, 69.7016 300.863 Q 72.3938 300.863, 73.9034 302.323 Q 75.4131 303.782, 75.4131 306.373 Q 75.4131 309.015, 73.4505 311.481 Q 71.5132 313.947, 67.4874 316.865 L 75.715 316.865 L 75.715 318.878 L 63.7133 318.878 L 63.7133 317.193 Q 67.0346 314.827, 68.9971 313.066 Q 70.9848 311.305, 71.9409 309.72 Q 72.897 308.135, 72.897 306.499 Q 72.897 304.788, 72.0415 303.832 Q 71.1861 302.876, 69.7016 302.876 Q 68.2674 302.876, 67.3113 303.455 Q 66.3552 304.033, 65.6759 305.317 L 63.7637 304.436 " fill="#000000"/>
<path class="atom-12" d="M 179.616 347.622 L 182.031 347.622 L 182.031 355.196 L 191.139 355.196 L 191.139 347.622 L 193.555 347.622 L 193.555 365.436 L 191.139 365.436 L 191.139 357.209 L 182.031 357.209 L 182.031 365.436 L 179.616 365.436 L 179.616 347.622 " fill="#000000"/>
<path class="atom-12" d="M 195.442 362.492 L 197.958 362.492 L 197.958 365.009 L 195.442 365.009 L 195.442 362.492 M 195.442 353.837 L 197.958 353.837 L 197.958 356.353 L 195.442 356.353 L 195.442 353.837 " fill="#000000"/>
<path class="atom-12" d="M 200.298 363.423 L 204.198 363.423 L 204.198 350.113 L 199.895 351.447 L 199.317 349.962 L 204.777 347.522 L 206.563 347.824 L 206.563 363.423 L 210.06 363.423 L 210.06 365.436 L 200.298 365.436 L 200.298 363.423 " fill="#000000"/>
<path class="atom-12" d="M 219.672 356.051 Q 221.408 356.555, 222.238 357.687 Q 223.094 358.794, 223.094 360.555 Q 223.094 362.065, 222.339 363.247 Q 221.584 364.405, 220.2 365.059 Q 218.816 365.688, 217.005 365.688 Q 215.092 365.688, 213.658 365.034 Q 212.249 364.354, 211.117 362.996 L 212.551 361.536 Q 213.658 362.744, 214.589 363.222 Q 215.52 363.675, 217.005 363.675 Q 218.615 363.675, 219.596 362.82 Q 220.577 361.939, 220.577 360.53 Q 220.577 358.718, 219.546 357.913 Q 218.539 357.083, 216.35 357.083 L 215.067 357.083 L 215.067 355.271 L 216.199 355.271 Q 218.137 355.246, 219.168 354.416 Q 220.2 353.56, 220.2 351.975 Q 220.2 350.818, 219.345 350.139 Q 218.489 349.434, 217.03 349.434 Q 215.545 349.434, 214.614 349.962 Q 213.709 350.491, 213.004 351.824 L 211.268 350.893 Q 211.897 349.409, 213.407 348.428 Q 214.916 347.421, 217.03 347.421 Q 219.646 347.421, 221.181 348.654 Q 222.716 349.887, 222.716 351.975 Q 222.716 353.409, 221.936 354.441 Q 221.156 355.473, 219.672 356.051 " fill="#000000"/>
<path class="atom-13" d="M 66.8152 382.729 L 69.2307 382.729 L 69.2307 390.302 L 78.3388 390.302 L 78.3388 382.729 L 80.7542 382.729 L 80.7542 400.543 L 78.3388 400.543 L 78.3388 392.315 L 69.2307 392.315 L 69.2307 400.543 L 66.8152 400.543 L 66.8152 382.729 " fill="#000000"/>
<path class="atom-13" d="M 82.6413 397.599 L 85.1574 397.599 L 85.1574 400.115 L 82.6413 400.115 L 82.6413 397.599 M 82.6413 388.943 L 85.1574 388.943 L 85.1574 391.46 L 82.6413 391.46 L 82.6413 388.943 " fill="#000000"/>
<path class="atom-13" d="M 87.4973 398.53 L 91.3972 398.53 L 91.3972 385.22 L 87.0947 386.553 L 86.516 385.069 L 91.9759 382.628 L 93.7623 382.93 L 93.7623 398.53 L 97.2597 398.53 L 97.2597 400.543 L 87.4973 400.543 L 87.4973 398.53 " fill="#000000"/>
<path class="atom-13" d="M 109.588 394.428 L 111.727 394.428 L 111.727 396.441 L 109.588 396.441 L 109.588 400.543 L 107.223 400.543 L 107.223 396.441 L 98.0145 396.441 L 98.0145 394.856 L 105.814 382.729 L 109.588 382.729 L 109.588 394.428 M 100.933 394.428 L 107.223 394.428 L 107.223 384.339 L 100.933 394.428 " fill="#000000"/>
<path class="atom-14" d="M 315.51 130.871 L 317.925 130.871 L 317.925 138.445 L 327.033 138.445 L 327.033 130.871 L 329.449 130.871 L 329.449 148.685 L 327.033 148.685 L 327.033 140.457 L 317.925 140.457 L 317.925 148.685 L 315.51 148.685 L 315.51 130.871 " fill="#000000"/>
<path class="atom-14" d="M 331.336 145.741 L 333.852 145.741 L 333.852 148.257 L 331.336 148.257 L 331.336 145.741 M 331.336 137.086 L 333.852 137.086 L 333.852 139.602 L 331.336 139.602 L 331.336 137.086 " fill="#000000"/>
<path class="atom-14" d="M 336.192 146.672 L 340.092 146.672 L 340.092 133.362 L 335.789 134.696 L 335.21 133.211 L 340.67 130.771 L 342.457 131.072 L 342.457 146.672 L 345.954 146.672 L 345.954 148.685 L 336.192 148.685 L 336.192 146.672 " fill="#000000"/>
<path class="atom-14" d="M 353.578 137.539 Q 355.138 137.539, 356.421 138.218 Q 357.704 138.872, 358.434 140.13 Q 359.163 141.363, 359.163 143.049 Q 359.163 144.886, 358.258 146.219 Q 357.377 147.528, 355.918 148.207 Q 354.458 148.886, 352.798 148.886 Q 351.162 148.886, 349.653 148.282 Q 348.143 147.679, 347.111 146.521 L 348.621 144.961 Q 349.451 145.867, 350.584 146.37 Q 351.716 146.848, 352.873 146.848 Q 354.458 146.848, 355.54 145.867 Q 356.647 144.886, 356.647 143.099 Q 356.647 141.212, 355.54 140.332 Q 354.458 139.426, 352.722 139.426 Q 351.162 139.426, 349.426 140.105 L 348.042 139.451 L 348.898 130.871 L 358.056 130.871 L 357.805 132.884 L 350.961 132.884 L 350.433 138.168 Q 352.018 137.539, 353.578 137.539 " fill="#000000"/>
<path class="atom-15" d="M 346.886 346.549 L 349.301 346.549 L 349.301 354.122 L 358.41 354.122 L 358.41 346.549 L 360.825 346.549 L 360.825 364.362 L 358.41 364.362 L 358.41 356.135 L 349.301 356.135 L 349.301 364.362 L 346.886 364.362 L 346.886 346.549 " fill="#000000"/>
<path class="atom-15" d="M 362.712 361.419 L 365.228 361.419 L 365.228 363.935 L 362.712 363.935 L 362.712 361.419 M 362.712 352.763 L 365.228 352.763 L 365.228 355.279 L 362.712 355.279 L 362.712 352.763 " fill="#000000"/>
<path class="atom-15" d="M 367.568 362.35 L 371.468 362.35 L 371.468 349.04 L 367.166 350.373 L 366.587 348.889 L 372.047 346.448 L 373.833 346.75 L 373.833 362.35 L 377.33 362.35 L 377.33 364.362 L 367.568 364.362 L 367.568 362.35 " fill="#000000"/>
<path class="atom-15" d="M 386.011 353.241 Q 387.571 353.241, 388.804 353.921 Q 390.037 354.6, 390.716 355.833 Q 391.395 357.066, 391.395 358.626 Q 391.395 360.362, 390.615 361.721 Q 389.861 363.054, 388.502 363.809 Q 387.143 364.564, 385.407 364.564 Q 382.237 364.564, 380.627 362.425 Q 379.041 360.261, 379.041 355.984 Q 379.041 351.254, 381.004 348.813 Q 382.992 346.347, 386.791 346.347 Q 387.898 346.347, 388.829 346.599 Q 389.785 346.851, 390.691 347.379 L 389.71 349.065 Q 388.401 348.36, 386.816 348.36 Q 384.3 348.36, 383.017 349.996 Q 381.734 351.606, 381.583 354.952 Q 382.488 354.122, 383.621 353.694 Q 384.778 353.241, 386.011 353.241 M 385.432 362.501 Q 386.388 362.501, 387.168 361.997 Q 387.973 361.494, 388.426 360.613 Q 388.879 359.733, 388.879 358.651 Q 388.879 357.066, 387.999 356.16 Q 387.118 355.254, 385.558 355.254 Q 384.476 355.254, 383.394 355.707 Q 382.337 356.135, 381.583 356.89 Q 381.683 359.834, 382.614 361.167 Q 383.545 362.501, 385.432 362.501 " fill="#000000"/>
<path class="atom-16" d="M 173.752 172.229 L 176.167 172.229 L 176.167 179.803 L 185.275 179.803 L 185.275 172.229 L 187.691 172.229 L 187.691 190.043 L 185.275 190.043 L 185.275 181.816 L 176.167 181.816 L 176.167 190.043 L 173.752 190.043 L 173.752 172.229 " fill="#000000"/>
<path class="atom-16" d="M 189.578 187.099 L 192.094 187.099 L 192.094 189.615 L 189.578 189.615 L 189.578 187.099 M 189.578 178.444 L 192.094 178.444 L 192.094 180.96 L 189.578 180.96 L 189.578 178.444 " fill="#000000"/>
<path class="atom-16" d="M 194.434 188.03 L 198.334 188.03 L 198.334 174.72 L 194.031 176.054 L 193.452 174.569 L 198.912 172.129 L 200.699 172.431 L 200.699 188.03 L 204.196 188.03 L 204.196 190.043 L 194.434 190.043 L 194.434 188.03 " fill="#000000"/>
<path class="atom-16" d="M 213.983 174.242 L 204.649 174.242 L 204.649 172.229 L 216.474 172.229 L 216.474 174.016 L 209.278 190.043 L 206.863 190.043 L 213.983 174.242 " fill="#000000"/>
<path class="atom-17" d="M 191.069 364.664 L 193.484 364.664 L 193.484 372.237 L 202.592 372.237 L 202.592 364.664 L 205.008 364.664 L 205.008 382.478 L 202.592 382.478 L 202.592 374.25 L 193.484 374.25 L 193.484 382.478 L 191.069 382.478 L 191.069 364.664 " fill="#000000"/>
<path class="atom-17" d="M 206.895 379.534 L 209.411 379.534 L 209.411 382.05 L 206.895 382.05 L 206.895 379.534 M 206.895 370.879 L 209.411 370.879 L 209.411 373.395 L 206.895 373.395 L 206.895 370.879 " fill="#000000"/>
<path class="atom-17" d="M 211.751 380.465 L 215.651 380.465 L 215.651 367.155 L 211.348 368.488 L 210.769 367.004 L 216.229 364.563 L 218.016 364.865 L 218.016 380.465 L 221.513 380.465 L 221.513 382.478 L 211.751 382.478 L 211.751 380.465 " fill="#000000"/>
<path class="atom-17" d="M 232.156 373.042 Q 233.791 373.747, 234.722 374.804 Q 235.653 375.835, 235.653 377.596 Q 235.653 379.106, 234.873 380.289 Q 234.093 381.446, 232.684 382.1 Q 231.301 382.729, 229.464 382.729 Q 226.495 382.729, 224.784 381.371 Q 223.073 379.987, 223.073 377.596 Q 223.073 376.137, 223.828 375.055 Q 224.583 373.948, 226.143 373.118 Q 224.985 372.464, 224.356 371.508 Q 223.727 370.526, 223.727 369.017 Q 223.727 366.928, 225.237 365.695 Q 226.772 364.463, 229.363 364.463 Q 231.955 364.463, 233.464 365.695 Q 234.999 366.928, 234.999 369.017 Q 234.999 370.325, 234.269 371.306 Q 233.565 372.262, 232.156 373.042 M 229.363 366.35 Q 227.879 366.35, 227.048 367.054 Q 226.243 367.759, 226.243 369.017 Q 226.243 369.948, 226.797 370.577 Q 227.35 371.18, 228.13 371.533 Q 228.935 371.885, 230.47 372.413 Q 231.552 371.659, 232.005 370.853 Q 232.483 370.048, 232.483 369.017 Q 232.483 367.759, 231.653 367.054 Q 230.848 366.35, 229.363 366.35 M 229.464 380.842 Q 231.124 380.842, 232.131 379.962 Q 233.137 379.056, 233.137 377.571 Q 233.137 376.615, 232.609 376.011 Q 232.081 375.407, 231.275 375.055 Q 230.495 374.703, 229.086 374.25 L 227.954 373.873 Q 226.696 374.628, 226.143 375.533 Q 225.589 376.414, 225.589 377.571 Q 225.589 379.056, 226.646 379.962 Q 227.703 380.842, 229.464 380.842 " fill="#000000"/>
<path class="atom-18" d="M 161.344 175.944 L 163.759 175.944 L 163.759 183.517 L 172.867 183.517 L 172.867 175.944 L 175.283 175.944 L 175.283 193.758 L 172.867 193.758 L 172.867 185.53 L 163.759 185.53 L 163.759 193.758 L 161.344 193.758 L 161.344 175.944 " fill="#000000"/>
<path class="atom-18" d="M 177.17 190.814 L 179.686 190.814 L 179.686 193.33 L 177.17 193.33 L 177.17 190.814 M 177.17 182.159 L 179.686 182.159 L 179.686 184.675 L 177.17 184.675 L 177.17 182.159 " fill="#000000"/>
<path class="atom-18" d="M 182.026 191.745 L 185.926 191.745 L 185.926 178.435 L 181.623 179.768 L 181.045 178.284 L 186.504 175.843 L 188.291 176.145 L 188.291 191.745 L 191.788 191.745 L 191.788 193.758 L 182.026 193.758 L 182.026 191.745 " fill="#000000"/>
<path class="atom-18" d="M 199.16 175.743 Q 202.33 175.743, 203.916 177.906 Q 205.526 180.045, 205.526 184.322 Q 205.526 189.053, 203.538 191.518 Q 201.576 193.959, 197.776 193.959 Q 196.669 193.959, 195.713 193.707 Q 194.782 193.456, 193.877 192.927 L 194.858 191.242 Q 196.166 191.946, 197.751 191.946 Q 200.267 191.946, 201.551 190.336 Q 202.834 188.7, 202.985 185.354 Q 202.079 186.184, 200.921 186.637 Q 199.789 187.065, 198.556 187.065 Q 196.996 187.065, 195.764 186.386 Q 194.531 185.706, 193.851 184.473 Q 193.172 183.241, 193.172 181.681 Q 193.172 179.944, 193.927 178.611 Q 194.707 177.252, 196.065 176.497 Q 197.424 175.743, 199.16 175.743 M 195.688 181.655 Q 195.688 183.241, 196.569 184.146 Q 197.449 185.052, 199.009 185.052 Q 200.091 185.052, 201.148 184.624 Q 202.23 184.171, 202.985 183.417 Q 202.884 180.473, 201.953 179.139 Q 201.022 177.806, 199.135 177.806 Q 198.179 177.806, 197.374 178.309 Q 196.594 178.812, 196.141 179.693 Q 195.688 180.574, 195.688 181.655 " fill="#000000"/>
<path class="atom-19" d="M 37.6517 134.815 L 40.0671 134.815 L 40.0671 142.389 L 49.1753 142.389 L 49.1753 134.815 L 51.5907 134.815 L 51.5907 152.629 L 49.1753 152.629 L 49.1753 144.402 L 40.0671 144.402 L 40.0671 152.629 L 37.6517 152.629 L 37.6517 134.815 " fill="#000000"/>
<path class="atom-19" d="M 53.4777 149.685 L 55.9938 149.685 L 55.9938 152.201 L 53.4777 152.201 L 53.4777 149.685 M 53.4777 141.03 L 55.9938 141.03 L 55.9938 143.546 L 53.4777 143.546 L 53.4777 141.03 " fill="#000000"/>
<path class="atom-19" d="M 57.3022 138.187 Q 57.9563 136.501, 59.5163 135.57 Q 61.0763 134.614, 63.2401 134.614 Q 65.9323 134.614, 67.4419 136.073 Q 68.9516 137.533, 68.9516 140.124 Q 68.9516 142.766, 66.989 145.232 Q 65.0517 147.698, 61.0259 150.616 L 69.2535 150.616 L 69.2535 152.629 L 57.2518 152.629 L 57.2518 150.943 Q 60.5731 148.578, 62.5356 146.817 Q 64.5233 145.056, 65.4794 143.471 Q 66.4355 141.886, 66.4355 140.25 Q 66.4355 138.539, 65.58 137.583 Q 64.7246 136.627, 63.2401 136.627 Q 61.8059 136.627, 60.8498 137.206 Q 59.8937 137.784, 59.2144 139.068 L 57.3022 138.187 " fill="#000000"/>
<path class="atom-19" d="M 77.3049 152.83 Q 74.034 152.83, 72.3986 150.415 Q 70.7883 148, 70.7883 143.697 Q 70.7883 139.395, 72.3986 137.004 Q 74.0089 134.614, 77.3049 134.614 Q 80.601 134.614, 82.2113 137.004 Q 83.8215 139.395, 83.8215 143.697 Q 83.8215 148, 82.1861 150.415 Q 80.5758 152.83, 77.3049 152.83 M 77.3049 150.818 Q 79.2423 150.818, 80.2739 149.031 Q 81.3055 147.22, 81.3055 143.697 Q 81.3055 140.2, 80.2739 138.413 Q 79.2423 136.627, 77.3049 136.627 Q 75.3927 136.627, 74.336 138.413 Q 73.3044 140.2, 73.3044 143.697 Q 73.3044 147.22, 74.336 149.031 Q 75.3927 150.818, 77.3049 150.818 " fill="#000000"/>
<path class="atom-20" d="M 376.13 229.677 L 381.968 239.113 Q 382.546 240.044, 383.477 241.729 Q 384.408 243.415, 384.458 243.516 L 384.458 229.677 L 386.824 229.677 L 386.824 247.491 L 384.383 247.491 L 378.118 237.175 Q 377.388 235.968, 376.608 234.584 Q 375.854 233.2, 375.627 232.772 L 375.627 247.491 L 373.312 247.491 L 373.312 229.677 L 376.13 229.677 " fill="#0000FF"/>
<path class="atom-20" d="M 388.711 244.547 L 391.227 244.547 L 391.227 247.064 L 388.711 247.064 L 388.711 244.547 M 388.711 235.892 L 391.227 235.892 L 391.227 238.408 L 388.711 238.408 L 388.711 235.892 " fill="#0000FF"/>
<path class="atom-20" d="M 392.535 233.049 Q 393.189 231.363, 394.749 230.432 Q 396.309 229.476, 398.473 229.476 Q 401.165 229.476, 402.675 230.936 Q 404.184 232.395, 404.184 234.986 Q 404.184 237.628, 402.222 240.094 Q 400.285 242.56, 396.259 245.478 L 404.486 245.478 L 404.486 247.491 L 392.485 247.491 L 392.485 245.805 Q 395.806 243.44, 397.768 241.679 Q 399.756 239.918, 400.712 238.333 Q 401.668 236.748, 401.668 235.112 Q 401.668 233.401, 400.813 232.445 Q 399.957 231.489, 398.473 231.489 Q 397.039 231.489, 396.083 232.068 Q 395.127 232.646, 394.447 233.93 L 392.535 233.049 " fill="#0000FF"/>
<path class="atom-20" d="M 406.826 245.478 L 410.726 245.478 L 410.726 232.168 L 406.424 233.502 L 405.845 232.017 L 411.305 229.577 L 413.091 229.879 L 413.091 245.478 L 416.589 245.478 L 416.589 247.491 L 406.826 247.491 L 406.826 245.478 " fill="#0000FF"/>
<path class="atom-21" d="M 432.411 279.055 L 434.827 279.055 L 434.827 286.629 L 443.935 286.629 L 443.935 279.055 L 446.35 279.055 L 446.35 296.869 L 443.935 296.869 L 443.935 288.642 L 434.827 288.642 L 434.827 296.869 L 432.411 296.869 L 432.411 279.055 " fill="#000000"/>
<path class="atom-21" d="M 448.237 293.925 L 450.753 293.925 L 450.753 296.442 L 448.237 296.442 L 448.237 293.925 M 448.237 285.27 L 450.753 285.27 L 450.753 287.786 L 448.237 287.786 L 448.237 285.27 " fill="#000000"/>
<path class="atom-21" d="M 452.062 282.427 Q 452.716 280.741, 454.276 279.81 Q 455.836 278.854, 458 278.854 Q 460.692 278.854, 462.201 280.314 Q 463.711 281.773, 463.711 284.364 Q 463.711 287.006, 461.749 289.472 Q 459.811 291.938, 455.785 294.856 L 464.013 294.856 L 464.013 296.869 L 452.011 296.869 L 452.011 295.183 Q 455.333 292.818, 457.295 291.057 Q 459.283 289.296, 460.239 287.711 Q 461.195 286.126, 461.195 284.49 Q 461.195 282.779, 460.34 281.823 Q 459.484 280.867, 458 280.867 Q 456.565 280.867, 455.609 281.446 Q 454.653 282.024, 453.974 283.308 L 452.062 282.427 " fill="#000000"/>
<path class="atom-21" d="M 465.321 282.427 Q 465.976 280.741, 467.536 279.81 Q 469.096 278.854, 471.259 278.854 Q 473.952 278.854, 475.461 280.314 Q 476.971 281.773, 476.971 284.364 Q 476.971 287.006, 475.008 289.472 Q 473.071 291.938, 469.045 294.856 L 477.273 294.856 L 477.273 296.869 L 465.271 296.869 L 465.271 295.183 Q 468.592 292.818, 470.555 291.057 Q 472.543 289.296, 473.499 287.711 Q 474.455 286.126, 474.455 284.49 Q 474.455 282.779, 473.599 281.823 Q 472.744 280.867, 471.259 280.867 Q 469.825 280.867, 468.869 281.446 Q 467.913 282.024, 467.234 283.308 L 465.321 282.427 " fill="#000000"/>
<path class="atom-22" d="M 152.05 99.6588 L 154.465 99.6588 L 154.465 107.232 L 163.574 107.232 L 163.574 99.6588 L 165.989 99.6588 L 165.989 117.473 L 163.574 117.473 L 163.574 109.245 L 154.465 109.245 L 154.465 117.473 L 152.05 117.473 L 152.05 99.6588 " fill="#000000"/>
<path class="atom-22" d="M 167.876 114.529 L 170.392 114.529 L 170.392 117.045 L 167.876 117.045 L 167.876 114.529 M 167.876 105.873 L 170.392 105.873 L 170.392 108.39 L 167.876 108.39 L 167.876 105.873 " fill="#000000"/>
<path class="atom-22" d="M 171.7 103.03 Q 172.355 101.345, 173.915 100.414 Q 175.475 99.4575, 177.638 99.4575 Q 180.331 99.4575, 181.84 100.917 Q 183.35 102.376, 183.35 104.968 Q 183.35 107.61, 181.387 110.075 Q 179.45 112.541, 175.424 115.46 L 183.652 115.46 L 183.652 117.473 L 171.65 117.473 L 171.65 115.787 Q 174.971 113.422, 176.934 111.66 Q 178.922 109.899, 179.878 108.314 Q 180.834 106.729, 180.834 105.093 Q 180.834 103.383, 179.978 102.426 Q 179.123 101.47, 177.638 101.47 Q 176.204 101.47, 175.248 102.049 Q 174.292 102.628, 173.613 103.911 L 171.7 103.03 " fill="#000000"/>
<path class="atom-22" d="M 193.263 108.088 Q 194.999 108.591, 195.83 109.723 Q 196.685 110.83, 196.685 112.591 Q 196.685 114.101, 195.93 115.284 Q 195.175 116.441, 193.792 117.095 Q 192.408 117.724, 190.596 117.724 Q 188.684 117.724, 187.25 117.07 Q 185.841 116.391, 184.709 115.032 L 186.143 113.573 Q 187.25 114.78, 188.181 115.258 Q 189.112 115.711, 190.596 115.711 Q 192.206 115.711, 193.188 114.856 Q 194.169 113.975, 194.169 112.566 Q 194.169 110.755, 193.137 109.949 Q 192.131 109.119, 189.942 109.119 L 188.659 109.119 L 188.659 107.308 L 189.791 107.308 Q 191.728 107.282, 192.76 106.452 Q 193.792 105.597, 193.792 104.012 Q 193.792 102.854, 192.936 102.175 Q 192.081 101.47, 190.621 101.47 Q 189.137 101.47, 188.206 101.999 Q 187.3 102.527, 186.596 103.861 L 184.86 102.93 Q 185.489 101.445, 186.998 100.464 Q 188.508 99.4575, 190.621 99.4575 Q 193.238 99.4575, 194.773 100.69 Q 196.308 101.923, 196.308 104.012 Q 196.308 105.446, 195.528 106.477 Q 194.748 107.509, 193.263 108.088 " fill="#000000"/>
<path class="atom-23" d="M 416.723 171.242 L 419.138 171.242 L 419.138 178.815 L 428.247 178.815 L 428.247 171.242 L 430.662 171.242 L 430.662 189.056 L 428.247 189.056 L 428.247 180.828 L 419.138 180.828 L 419.138 189.056 L 416.723 189.056 L 416.723 171.242 " fill="#000000"/>
<path class="atom-23" d="M 432.549 186.112 L 435.065 186.112 L 435.065 188.628 L 432.549 188.628 L 432.549 186.112 M 432.549 177.457 L 435.065 177.457 L 435.065 179.973 L 432.549 179.973 L 432.549 177.457 " fill="#000000"/>
<path class="atom-23" d="M 436.373 174.613 Q 437.028 172.928, 438.588 171.997 Q 440.148 171.041, 442.311 171.041 Q 445.004 171.041, 446.513 172.5 Q 448.023 173.959, 448.023 176.551 Q 448.023 179.193, 446.06 181.658 Q 444.123 184.124, 440.097 187.043 L 448.325 187.043 L 448.325 189.056 L 436.323 189.056 L 436.323 187.37 Q 439.644 185.005, 441.607 183.244 Q 443.595 181.482, 444.551 179.897 Q 445.507 178.312, 445.507 176.677 Q 445.507 174.966, 444.651 174.01 Q 443.796 173.053, 442.311 173.053 Q 440.877 173.053, 439.921 173.632 Q 438.965 174.211, 438.286 175.494 L 436.373 174.613 " fill="#000000"/>
<path class="atom-23" d="M 460.654 182.942 L 462.792 182.942 L 462.792 184.954 L 460.654 184.954 L 460.654 189.056 L 458.288 189.056 L 458.288 184.954 L 449.08 184.954 L 449.08 183.369 L 456.879 171.242 L 460.654 171.242 L 460.654 182.942 M 451.998 182.942 L 458.288 182.942 L 458.288 172.852 L 451.998 182.942 " fill="#000000"/>
<text x="131.94513116410965" y="250.02516069540107" font-size="12" font-family="Verdana" font-weight="bold" letter-spacing="0" text-anchor="start" fill="black" transform=" rotate(-38.279149 131.945131 250.025161)">1.1208</text><text x="25" y="490" font-size="12" font-family="Verdana" font-weight="bold" letter-spacing="0" text-anchor="start" fill="black">[#8:1]=[#6:2](-[#7:3](-[#6:4](-[H:12])(-[H:13])-[H:14])-[#6:5]1:[#6:9](:[#6:7](:[#6:6](:[#6:8](:[#6:10]:1-[H:18])-[H:16])-[#7:21](-[H:22])-[H:24])-[H:15])-[H:17])-[#6:11](-[H:19])(-[H:20])-[H:23]</text></svg>
