<?xml version='1.0' encoding='ASCII' standalone='yes'?>
<svg xmlns="http://www.w3.org/2000/svg" xmlns:rdkit="http://www.rdkit.org/xml" xmlns:xlink="http://www.w3.org/1999/xlink" version="1.1" baseProfile="full" xml:space="preserve" width="500px" height="500px" viewBox="0 0 500 500">
<!-- END OF HEADER -->
<rect style="opacity:1.0;fill:#FFFFFF;stroke:none" width="500.0" height="500.0" x="0.0" y="0.0"> </rect>
<path class="bond-0 atom-1 atom-2" d="M 236.4,312.1 L 265.1,275.7" style="fill:none;fill-rule:evenodd;stroke:#FF7F7F;stroke-width:9.9px;stroke-linecap:butt;stroke-linejoin:miter;stroke-opacity:1"/>
<path class="bond-0 atom-1 atom-2" d="M 242.8,304.0 L 250.7,294.0" style="fill:none;fill-rule:evenodd;stroke:#0000FF;stroke-width:2.0px;stroke-linecap:butt;stroke-linejoin:miter;stroke-opacity:1"/>
<path class="bond-0 atom-1 atom-2" d="M 250.7,294.0 L 258.5,284.0" style="fill:none;fill-rule:evenodd;stroke:#000000;stroke-width:2.0px;stroke-linecap:butt;stroke-linejoin:miter;stroke-opacity:1"/>
<path class="bond-1 atom-1 atom-4" d="M 223.1,310.2 L 213.3,308.8" style="fill:none;fill-rule:evenodd;stroke:#0000FF;stroke-width:2.0px;stroke-linecap:butt;stroke-linejoin:miter;stroke-opacity:1"/>
<path class="bond-1 atom-1 atom-4" d="M 213.3,308.8 L 203.5,307.4" style="fill:none;fill-rule:evenodd;stroke:#000000;stroke-width:2.0px;stroke-linecap:butt;stroke-linejoin:miter;stroke-opacity:1"/>
<path class="bond-2 atom-1 atom-0" d="M 239.6,320.3 L 245.0,333.7" style="fill:none;fill-rule:evenodd;stroke:#0000FF;stroke-width:2.0px;stroke-linecap:butt;stroke-linejoin:miter;stroke-opacity:1"/>
<path class="bond-2 atom-1 atom-0" d="M 245.0,333.7 L 250.4,347.2" style="fill:none;fill-rule:evenodd;stroke:#000000;stroke-width:2.0px;stroke-linecap:butt;stroke-linejoin:miter;stroke-opacity:1"/>
<path class="bond-3 atom-2 atom-3" d="M 278.0,277.6 L 297.3,280.4" style="fill:none;fill-rule:evenodd;stroke:#000000;stroke-width:2.0px;stroke-linecap:butt;stroke-linejoin:miter;stroke-opacity:1"/>
<path class="bond-4 atom-3 atom-10" d="M 314.2,290.5 L 325.4,318.5" style="fill:none;fill-rule:evenodd;stroke:#000000;stroke-width:2.0px;stroke-linecap:butt;stroke-linejoin:miter;stroke-opacity:1"/>
<path class="bond-4 atom-3 atom-10" d="M 324.5,291.2 L 332.3,310.8" style="fill:none;fill-rule:evenodd;stroke:#000000;stroke-width:2.0px;stroke-linecap:butt;stroke-linejoin:miter;stroke-opacity:1"/>
<path class="bond-5 atom-3 atom-11" d="M 317.2,274.3 L 333.2,254.0" style="fill:none;fill-rule:evenodd;stroke:#000000;stroke-width:2.0px;stroke-linecap:butt;stroke-linejoin:miter;stroke-opacity:1"/>
<path class="bond-6 atom-4 atom-15" d="M 183.9,313.8 L 168.2,333.8" style="fill:none;fill-rule:evenodd;stroke:#000000;stroke-width:2.0px;stroke-linecap:butt;stroke-linejoin:miter;stroke-opacity:1"/>
<path class="bond-6 atom-4 atom-15" d="M 174.3,311.1 L 163.3,325.1" style="fill:none;fill-rule:evenodd;stroke:#000000;stroke-width:2.0px;stroke-linecap:butt;stroke-linejoin:miter;stroke-opacity:1"/>
<path class="bond-7 atom-4 atom-16" d="M 187.2,297.4 L 176.6,270.8" style="fill:none;fill-rule:evenodd;stroke:#000000;stroke-width:2.0px;stroke-linecap:butt;stroke-linejoin:miter;stroke-opacity:1"/>
<path class="bond-8 atom-5 atom-6" d="M 253.0,224.5 L 267.3,201.7" style="fill:none;fill-rule:evenodd;stroke:#000000;stroke-width:2.0px;stroke-linecap:butt;stroke-linejoin:miter;stroke-opacity:1"/>
<path class="bond-9 atom-5 atom-2" d="M 251.2,241.0 L 261.8,267.6" style="fill:none;fill-rule:evenodd;stroke:#000000;stroke-width:2.0px;stroke-linecap:butt;stroke-linejoin:miter;stroke-opacity:1"/>
<path class="bond-9 atom-5 atom-2" d="M 261.4,241.5 L 268.8,260.1" style="fill:none;fill-rule:evenodd;stroke:#000000;stroke-width:2.0px;stroke-linecap:butt;stroke-linejoin:miter;stroke-opacity:1"/>
<path class="bond-10 atom-5 atom-8" d="M 241.3,231.0 L 208.9,222.8" style="fill:none;fill-rule:evenodd;stroke:#000000;stroke-width:2.0px;stroke-linecap:butt;stroke-linejoin:miter;stroke-opacity:1"/>
<path class="bond-11 atom-6 atom-9" d="M 266.0,185.5 L 249.8,166.1" style="fill:none;fill-rule:evenodd;stroke:#000000;stroke-width:2.0px;stroke-linecap:butt;stroke-linejoin:miter;stroke-opacity:1"/>
<path class="bond-11 atom-6 atom-9" d="M 256.4,188.6 L 245.1,174.9" style="fill:none;fill-rule:evenodd;stroke:#000000;stroke-width:2.0px;stroke-linecap:butt;stroke-linejoin:miter;stroke-opacity:1"/>
<path class="bond-12 atom-6 atom-31" d="M 291.8,189.7 L 311.5,186.0" style="fill:none;fill-rule:evenodd;stroke:#000000;stroke-width:2.0px;stroke-linecap:butt;stroke-linejoin:miter;stroke-opacity:1"/>
<path class="bond-13 atom-7 atom-8" d="M 200.4,183.3 L 201.4,198.2" style="fill:none;fill-rule:evenodd;stroke:#0000FF;stroke-width:2.0px;stroke-linecap:butt;stroke-linejoin:miter;stroke-opacity:1"/>
<path class="bond-13 atom-7 atom-8" d="M 201.4,198.2 L 202.3,213.1" style="fill:none;fill-rule:evenodd;stroke:#000000;stroke-width:2.0px;stroke-linecap:butt;stroke-linejoin:miter;stroke-opacity:1"/>
<path class="bond-14 atom-7 atom-9" d="M 206.0,172.6 L 215.6,168.7" style="fill:none;fill-rule:evenodd;stroke:#0000FF;stroke-width:2.0px;stroke-linecap:butt;stroke-linejoin:miter;stroke-opacity:1"/>
<path class="bond-14 atom-7 atom-9" d="M 215.6,168.7 L 225.2,164.9" style="fill:none;fill-rule:evenodd;stroke:#000000;stroke-width:2.0px;stroke-linecap:butt;stroke-linejoin:miter;stroke-opacity:1"/>
<path class="bond-15 atom-7 atom-20" d="M 187.1,167.0 L 176.6,160.4" style="fill:none;fill-rule:evenodd;stroke:#0000FF;stroke-width:2.0px;stroke-linecap:butt;stroke-linejoin:miter;stroke-opacity:1"/>
<path class="bond-15 atom-7 atom-20" d="M 176.6,160.4 L 166.0,153.7" style="fill:none;fill-rule:evenodd;stroke:#000000;stroke-width:2.0px;stroke-linecap:butt;stroke-linejoin:miter;stroke-opacity:1"/>
<path class="bond-16 atom-8 atom-21" d="M 187.7,233.8 L 182.4,236.3" style="fill:none;fill-rule:evenodd;stroke:#000000;stroke-width:2.0px;stroke-linecap:butt;stroke-linejoin:miter;stroke-opacity:1"/>
<path class="bond-16 atom-8 atom-21" d="M 182.4,236.3 L 177.0,238.9" style="fill:none;fill-rule:evenodd;stroke:#FF0000;stroke-width:2.0px;stroke-linecap:butt;stroke-linejoin:miter;stroke-opacity:1"/>
<path class="bond-16 atom-8 atom-21" d="M 183.7,225.4 L 178.3,228.0" style="fill:none;fill-rule:evenodd;stroke:#000000;stroke-width:2.0px;stroke-linecap:butt;stroke-linejoin:miter;stroke-opacity:1"/>
<path class="bond-16 atom-8 atom-21" d="M 178.3,228.0 L 173.0,230.6" style="fill:none;fill-rule:evenodd;stroke:#FF0000;stroke-width:2.0px;stroke-linecap:butt;stroke-linejoin:miter;stroke-opacity:1"/>
<path class="bond-17 atom-9 atom-32" d="M 244.9,149.7 L 252.2,121.0" style="fill:none;fill-rule:evenodd;stroke:#000000;stroke-width:2.0px;stroke-linecap:butt;stroke-linejoin:miter;stroke-opacity:1"/>
<path class="bond-18 atom-10 atom-12" d="M 345.0,327.8 L 356.7,329.5" style="fill:none;fill-rule:evenodd;stroke:#000000;stroke-width:2.0px;stroke-linecap:butt;stroke-linejoin:miter;stroke-opacity:1"/>
<path class="bond-19 atom-10 atom-22" d="M 321.6,333.7 L 305.4,354.3" style="fill:none;fill-rule:evenodd;stroke:#000000;stroke-width:2.0px;stroke-linecap:butt;stroke-linejoin:miter;stroke-opacity:1"/>
<path class="bond-20 atom-11 atom-13" d="M 345.6,246.7 L 367.6,249.9" style="fill:none;fill-rule:evenodd;stroke:#000000;stroke-width:2.0px;stroke-linecap:butt;stroke-linejoin:miter;stroke-opacity:1"/>
<path class="bond-20 atom-11 atom-13" d="M 347.5,256.4 L 362.9,258.6" style="fill:none;fill-rule:evenodd;stroke:#000000;stroke-width:2.0px;stroke-linecap:butt;stroke-linejoin:miter;stroke-opacity:1"/>
<path class="bond-21 atom-11 atom-23" d="M 337.5,237.7 L 329.9,209.2" style="fill:none;fill-rule:evenodd;stroke:#000000;stroke-width:2.0px;stroke-linecap:butt;stroke-linejoin:miter;stroke-opacity:1"/>
<path class="bond-22 atom-12 atom-14" d="M 380.5,323.9 L 396.2,303.9" style="fill:none;fill-rule:evenodd;stroke:#000000;stroke-width:2.0px;stroke-linecap:butt;stroke-linejoin:miter;stroke-opacity:1"/>
<path class="bond-22 atom-12 atom-14" d="M 375.5,315.1 L 386.6,301.1" style="fill:none;fill-rule:evenodd;stroke:#000000;stroke-width:2.0px;stroke-linecap:butt;stroke-linejoin:miter;stroke-opacity:1"/>
<path class="bond-23 atom-12 atom-24" d="M 377.3,340.1 L 388.1,367.1" style="fill:none;fill-rule:evenodd;stroke:#000000;stroke-width:2.0px;stroke-linecap:butt;stroke-linejoin:miter;stroke-opacity:1"/>
<path class="bond-24 atom-13 atom-14" d="M 388.8,260.7 L 399.5,287.5" style="fill:none;fill-rule:evenodd;stroke:#000000;stroke-width:2.0px;stroke-linecap:butt;stroke-linejoin:miter;stroke-opacity:1"/>
<path class="bond-25 atom-13 atom-25" d="M 391.9,244.4 L 407.8,224.2" style="fill:none;fill-rule:evenodd;stroke:#000000;stroke-width:2.0px;stroke-linecap:butt;stroke-linejoin:miter;stroke-opacity:1"/>
<path class="bond-26 atom-14 atom-26" d="M 420.1,298.1 L 442.0,301.2" style="fill:none;fill-rule:evenodd;stroke:#000000;stroke-width:2.0px;stroke-linecap:butt;stroke-linejoin:miter;stroke-opacity:1"/>
<path class="bond-27 atom-15 atom-17" d="M 144.3,339.5 L 133.5,337.9" style="fill:none;fill-rule:evenodd;stroke:#000000;stroke-width:2.0px;stroke-linecap:butt;stroke-linejoin:miter;stroke-opacity:1"/>
<path class="bond-28 atom-15 atom-27" d="M 165.1,350.1 L 175.8,377.0" style="fill:none;fill-rule:evenodd;stroke:#000000;stroke-width:2.0px;stroke-linecap:butt;stroke-linejoin:miter;stroke-opacity:1"/>
<path class="bond-29 atom-16 atom-18" d="M 166.7,261.5 L 144.8,258.4" style="fill:none;fill-rule:evenodd;stroke:#000000;stroke-width:2.0px;stroke-linecap:butt;stroke-linejoin:miter;stroke-opacity:1"/>
<path class="bond-29 atom-16 atom-18" d="M 162.1,270.2 L 146.8,268.0" style="fill:none;fill-rule:evenodd;stroke:#000000;stroke-width:2.0px;stroke-linecap:butt;stroke-linejoin:miter;stroke-opacity:1"/>
<path class="bond-30 atom-16 atom-28" d="M 176.9,254.3 L 179.7,248.1" style="fill:none;fill-rule:evenodd;stroke:#000000;stroke-width:2.0px;stroke-linecap:butt;stroke-linejoin:miter;stroke-opacity:1"/>
<path class="bond-31 atom-17 atom-19" d="M 112.7,327.3 L 102.0,300.4" style="fill:none;fill-rule:evenodd;stroke:#000000;stroke-width:2.0px;stroke-linecap:butt;stroke-linejoin:miter;stroke-opacity:1"/>
<path class="bond-31 atom-17 atom-19" d="M 119.7,319.8 L 112.2,301.0" style="fill:none;fill-rule:evenodd;stroke:#000000;stroke-width:2.0px;stroke-linecap:butt;stroke-linejoin:miter;stroke-opacity:1"/>
<path class="bond-32 atom-17 atom-29" d="M 109.2,343.8 L 93.5,363.8" style="fill:none;fill-rule:evenodd;stroke:#000000;stroke-width:2.0px;stroke-linecap:butt;stroke-linejoin:miter;stroke-opacity:1"/>
<path class="bond-33 atom-18 atom-19" d="M 120.8,264.2 L 105.1,284.2" style="fill:none;fill-rule:evenodd;stroke:#000000;stroke-width:2.0px;stroke-linecap:butt;stroke-linejoin:miter;stroke-opacity:1"/>
<path class="bond-34 atom-18 atom-30" d="M 124.1,247.8 L 113.4,220.9" style="fill:none;fill-rule:evenodd;stroke:#000000;stroke-width:2.0px;stroke-linecap:butt;stroke-linejoin:miter;stroke-opacity:1"/>
<path class="bond-35 atom-19 atom-33" d="M 80.4,289.7 L 59.4,286.6" style="fill:none;fill-rule:evenodd;stroke:#000000;stroke-width:2.0px;stroke-linecap:butt;stroke-linejoin:miter;stroke-opacity:1"/>
<path class="atom-0" d="M 248.5 348.7 L 250.2 348.7 L 250.2 354.3 L 257.0 354.3 L 257.0 348.7 L 258.7 348.7 L 258.7 361.8 L 257.0 361.8 L 257.0 355.7 L 250.2 355.7 L 250.2 361.8 L 248.5 361.8 L 248.5 348.7 " fill="#000000"/>
<path class="atom-0" d="M 260.3 359.6 L 262.2 359.6 L 262.2 361.5 L 260.3 361.5 L 260.3 359.6 M 260.3 353.3 L 262.2 353.3 L 262.2 355.1 L 260.3 355.1 L 260.3 353.3 " fill="#000000"/>
<path class="atom-0" d="M 264.3 360.3 L 267.2 360.3 L 267.2 350.5 L 264.0 351.5 L 263.6 350.4 L 267.6 348.6 L 268.9 348.8 L 268.9 360.3 L 271.5 360.3 L 271.5 361.8 L 264.3 361.8 L 264.3 360.3 " fill="#000000"/>
<path class="atom-1" d="M 226.7 305.7 L 231.0 312.6 Q 231.4 313.3, 232.1 314.5 Q 232.8 315.8, 232.8 315.9 L 232.8 305.7 L 234.5 305.7 L 234.5 318.8 L 232.7 318.8 L 228.1 311.2 Q 227.6 310.3, 227.0 309.3 Q 226.5 308.3, 226.3 307.9 L 226.3 318.8 L 224.6 318.8 L 224.6 305.7 L 226.7 305.7 " fill="#0000FF"/>
<path class="atom-1" d="M 236.1 316.6 L 237.9 316.6 L 237.9 318.5 L 236.1 318.5 L 236.1 316.6 M 236.1 310.2 L 237.9 310.2 L 237.9 312.1 L 236.1 312.1 L 236.1 310.2 " fill="#0000FF"/>
<path class="atom-1" d="M 239.4 308.1 Q 239.8 306.9, 241.0 306.2 Q 242.1 305.5, 243.7 305.5 Q 245.7 305.5, 246.8 306.6 Q 248.0 307.7, 248.0 309.6 Q 248.0 311.5, 246.5 313.3 Q 245.1 315.2, 242.1 317.3 L 248.2 317.3 L 248.2 318.8 L 239.3 318.8 L 239.3 317.5 Q 241.8 315.8, 243.2 314.5 Q 244.7 313.2, 245.4 312.0 Q 246.1 310.9, 246.1 309.7 Q 246.1 308.4, 245.5 307.7 Q 244.8 307.0, 243.7 307.0 Q 242.7 307.0, 242.0 307.4 Q 241.3 307.8, 240.8 308.8 L 239.4 308.1 " fill="#0000FF"/>
<path class="atom-2" d="M 253.6 275.8 Q 253.6 272.5, 255.1 270.8 Q 256.6 269.1, 259.6 269.1 Q 262.3 269.1, 263.7 271.0 L 262.5 272.0 Q 261.4 270.6, 259.6 270.6 Q 257.6 270.6, 256.5 271.9 Q 255.5 273.2, 255.5 275.8 Q 255.5 278.4, 256.6 279.7 Q 257.6 281.0, 259.8 281.0 Q 261.2 281.0, 262.9 280.2 L 263.4 281.6 Q 262.7 282.0, 261.7 282.3 Q 260.7 282.5, 259.5 282.5 Q 256.6 282.5, 255.1 280.8 Q 253.6 279.0, 253.6 275.8 " fill="#000000"/>
<path class="atom-2" d="M 264.5 280.2 L 266.3 280.2 L 266.3 282.0 L 264.5 282.0 L 264.5 280.2 M 264.5 273.8 L 266.3 273.8 L 266.3 275.7 L 264.5 275.7 L 264.5 273.8 " fill="#000000"/>
<path class="atom-2" d="M 274.0 275.4 Q 275.3 275.8, 275.9 276.6 Q 276.5 277.5, 276.5 278.8 Q 276.5 279.9, 276.0 280.7 Q 275.4 281.6, 274.4 282.1 Q 273.4 282.5, 272.0 282.5 Q 270.6 282.5, 269.6 282.1 Q 268.5 281.6, 267.7 280.6 L 268.8 279.5 Q 269.6 280.4, 270.3 280.7 Q 270.9 281.1, 272.0 281.1 Q 273.2 281.1, 274.0 280.4 Q 274.7 279.8, 274.7 278.7 Q 274.7 277.4, 273.9 276.8 Q 273.2 276.2, 271.6 276.2 L 270.6 276.2 L 270.6 274.9 L 271.4 274.9 Q 272.9 274.8, 273.6 274.2 Q 274.4 273.6, 274.4 272.4 Q 274.4 271.6, 273.8 271.1 Q 273.1 270.6, 272.1 270.6 Q 271.0 270.6, 270.3 270.9 Q 269.6 271.3, 269.1 272.3 L 267.8 271.6 Q 268.3 270.5, 269.4 269.8 Q 270.5 269.1, 272.1 269.1 Q 274.0 269.1, 275.1 270.0 Q 276.3 270.9, 276.3 272.4 Q 276.3 273.5, 275.7 274.2 Q 275.1 275.0, 274.0 275.4 " fill="#000000"/>
<path class="atom-3" d="M 298.8 282.4 Q 298.8 279.1, 300.4 277.4 Q 301.9 275.7, 304.8 275.7 Q 307.5 275.7, 309.0 277.6 L 307.7 278.6 Q 306.7 277.2, 304.8 277.2 Q 302.8 277.2, 301.8 278.5 Q 300.7 279.9, 300.7 282.4 Q 300.7 285.0, 301.8 286.3 Q 302.9 287.7, 305.0 287.7 Q 306.5 287.7, 308.2 286.8 L 308.7 288.2 Q 308.0 288.6, 306.9 288.9 Q 305.9 289.1, 304.8 289.1 Q 301.9 289.1, 300.4 287.4 Q 298.8 285.6, 298.8 282.4 " fill="#000000"/>
<path class="atom-3" d="M 309.7 286.8 L 311.6 286.8 L 311.6 288.7 L 309.7 288.7 L 309.7 286.8 M 309.7 280.4 L 311.6 280.4 L 311.6 282.3 L 309.7 282.3 L 309.7 280.4 " fill="#000000"/>
<path class="atom-3" d="M 321.5 284.5 L 323.1 284.5 L 323.1 285.9 L 321.5 285.9 L 321.5 289.0 L 319.7 289.0 L 319.7 285.9 L 313.0 285.9 L 313.0 284.8 L 318.7 275.8 L 321.5 275.8 L 321.5 284.5 M 315.1 284.5 L 319.7 284.5 L 319.7 277.0 L 315.1 284.5 " fill="#000000"/>
<path class="atom-4" d="M 179.0 305.6 Q 179.0 302.3, 180.5 300.6 Q 182.0 298.9, 185.0 298.9 Q 187.7 298.9, 189.1 300.8 L 187.9 301.8 Q 186.8 300.4, 185.0 300.4 Q 183.0 300.4, 181.9 301.7 Q 180.9 303.1, 180.9 305.6 Q 180.9 308.2, 182.0 309.5 Q 183.0 310.9, 185.2 310.9 Q 186.6 310.9, 188.3 310.0 L 188.8 311.4 Q 188.1 311.8, 187.1 312.1 Q 186.1 312.3, 184.9 312.3 Q 182.0 312.3, 180.5 310.6 Q 179.0 308.9, 179.0 305.6 " fill="#000000"/>
<path class="atom-4" d="M 189.9 310.0 L 191.7 310.0 L 191.7 311.9 L 189.9 311.9 L 189.9 310.0 M 189.9 303.6 L 191.7 303.6 L 191.7 305.5 L 189.9 305.5 L 189.9 303.6 " fill="#000000"/>
<path class="atom-4" d="M 197.9 304.0 Q 199.0 304.0, 200.0 304.5 Q 200.9 304.9, 201.4 305.9 Q 202.0 306.8, 202.0 308.0 Q 202.0 309.4, 201.3 310.4 Q 200.7 311.3, 199.6 311.8 Q 198.5 312.3, 197.3 312.3 Q 196.1 312.3, 195.0 311.9 Q 193.9 311.4, 193.1 310.6 L 194.2 309.4 Q 194.8 310.1, 195.7 310.5 Q 196.5 310.8, 197.3 310.8 Q 198.5 310.8, 199.3 310.1 Q 200.1 309.4, 200.1 308.1 Q 200.1 306.7, 199.3 306.0 Q 198.5 305.3, 197.2 305.3 Q 196.1 305.3, 194.8 305.8 L 193.8 305.4 L 194.4 299.0 L 201.2 299.0 L 201.0 300.5 L 195.9 300.5 L 195.5 304.4 Q 196.7 304.0, 197.9 304.0 " fill="#000000"/>
<path class="atom-5" d="M 242.8 232.7 Q 242.8 229.4, 244.3 227.7 Q 245.8 226.0, 248.8 226.0 Q 251.5 226.0, 252.9 227.9 L 251.7 228.9 Q 250.6 227.5, 248.8 227.5 Q 246.8 227.5, 245.7 228.9 Q 244.7 230.2, 244.7 232.7 Q 244.7 235.3, 245.7 236.6 Q 246.8 238.0, 249.0 238.0 Q 250.4 238.0, 252.1 237.1 L 252.6 238.5 Q 251.9 238.9, 250.9 239.2 Q 249.8 239.5, 248.7 239.5 Q 245.8 239.5, 244.3 237.7 Q 242.8 236.0, 242.8 232.7 " fill="#000000"/>
<path class="atom-5" d="M 253.6 237.1 L 255.5 237.1 L 255.5 239.0 L 253.6 239.0 L 253.6 237.1 M 253.6 230.7 L 255.5 230.7 L 255.5 232.6 L 253.6 232.6 L 253.6 230.7 " fill="#000000"/>
<path class="atom-5" d="M 262.0 231.1 Q 263.2 231.1, 264.1 231.6 Q 265.0 232.1, 265.5 233.0 Q 266.0 233.9, 266.0 235.1 Q 266.0 236.3, 265.4 237.4 Q 264.9 238.3, 263.9 238.9 Q 262.9 239.4, 261.6 239.4 Q 259.2 239.4, 258.1 237.9 Q 256.9 236.3, 256.9 233.1 Q 256.9 229.6, 258.3 227.8 Q 259.8 226.0, 262.6 226.0 Q 263.4 226.0, 264.1 226.2 Q 264.8 226.4, 265.5 226.8 L 264.8 228.0 Q 263.8 227.5, 262.6 227.5 Q 260.8 227.5, 259.8 228.7 Q 258.9 229.9, 258.8 232.4 Q 259.4 231.7, 260.3 231.4 Q 261.1 231.1, 262.0 231.1 M 261.6 237.9 Q 262.3 237.9, 262.9 237.6 Q 263.5 237.2, 263.8 236.5 Q 264.1 235.9, 264.1 235.1 Q 264.1 233.9, 263.5 233.3 Q 262.8 232.6, 261.7 232.6 Q 260.9 232.6, 260.1 232.9 Q 259.3 233.2, 258.8 233.8 Q 258.8 236.0, 259.5 236.9 Q 260.2 237.9, 261.6 237.9 " fill="#000000"/>
<path class="atom-6" d="M 267.5 193.5 Q 267.5 190.2, 269.0 188.5 Q 270.6 186.8, 273.5 186.8 Q 276.2 186.8, 277.6 188.7 L 276.4 189.7 Q 275.3 188.3, 273.5 188.3 Q 271.5 188.3, 270.4 189.6 Q 269.4 191.0, 269.4 193.5 Q 269.4 196.1, 270.5 197.4 Q 271.6 198.7, 273.7 198.7 Q 275.1 198.7, 276.8 197.9 L 277.3 199.3 Q 276.6 199.7, 275.6 200.0 Q 274.6 200.2, 273.4 200.2 Q 270.6 200.2, 269.0 198.5 Q 267.5 196.7, 267.5 193.5 " fill="#000000"/>
<path class="atom-6" d="M 278.4 197.9 L 280.2 197.9 L 280.2 199.7 L 278.4 199.7 L 278.4 197.9 M 278.4 191.5 L 280.2 191.5 L 280.2 193.4 L 278.4 193.4 L 278.4 191.5 " fill="#000000"/>
<path class="atom-6" d="M 288.5 188.4 L 281.6 188.4 L 281.6 186.9 L 290.3 186.9 L 290.3 188.2 L 285.0 200.1 L 283.2 200.1 L 288.5 188.4 " fill="#000000"/>
<path class="atom-7" d="M 182.5 168.5 L 186.8 175.5 Q 187.2 176.2, 187.9 177.4 Q 188.6 178.6, 188.7 178.7 L 188.7 168.5 L 190.4 168.5 L 190.4 181.7 L 188.6 181.7 L 184.0 174.0 Q 183.4 173.2, 182.9 172.1 Q 182.3 171.1, 182.1 170.8 L 182.1 181.7 L 180.4 181.7 L 180.4 168.5 L 182.5 168.5 " fill="#0000FF"/>
<path class="atom-7" d="M 191.9 179.5 L 193.8 179.5 L 193.8 181.3 L 191.9 181.3 L 191.9 179.5 M 191.9 173.1 L 193.8 173.1 L 193.8 175.0 L 191.9 175.0 L 191.9 173.1 " fill="#0000FF"/>
<path class="atom-7" d="M 201.9 174.7 Q 203.1 175.2, 203.8 176.0 Q 204.5 176.8, 204.5 178.1 Q 204.5 179.2, 203.9 180.0 Q 203.3 180.9, 202.3 181.4 Q 201.2 181.8, 199.9 181.8 Q 197.7 181.8, 196.4 180.8 Q 195.2 179.8, 195.2 178.1 Q 195.2 177.0, 195.7 176.2 Q 196.3 175.4, 197.4 174.8 Q 196.6 174.3, 196.1 173.6 Q 195.7 172.8, 195.7 171.7 Q 195.7 170.2, 196.8 169.3 Q 197.9 168.4, 199.8 168.4 Q 201.7 168.4, 202.8 169.3 Q 204.0 170.2, 204.0 171.7 Q 204.0 172.7, 203.4 173.4 Q 202.9 174.1, 201.9 174.7 M 199.8 169.8 Q 198.7 169.8, 198.1 170.3 Q 197.5 170.8, 197.5 171.7 Q 197.5 172.4, 197.9 172.9 Q 198.3 173.3, 198.9 173.6 Q 199.5 173.8, 200.6 174.2 Q 201.4 173.7, 201.8 173.1 Q 202.1 172.5, 202.1 171.7 Q 202.1 170.8, 201.5 170.3 Q 200.9 169.8, 199.8 169.8 M 199.9 180.4 Q 201.1 180.4, 201.9 179.8 Q 202.6 179.1, 202.6 178.0 Q 202.6 177.3, 202.2 176.9 Q 201.8 176.4, 201.2 176.2 Q 200.7 175.9, 199.6 175.6 L 198.8 175.3 Q 197.9 175.9, 197.4 176.5 Q 197.0 177.2, 197.0 178.0 Q 197.0 179.1, 197.8 179.8 Q 198.6 180.4, 199.9 180.4 " fill="#0000FF"/>
<path class="atom-8" d="M 184.2 221.3 Q 184.2 218.1, 185.7 216.4 Q 187.3 214.6, 190.2 214.6 Q 192.9 214.6, 194.3 216.5 L 193.1 217.6 Q 192.1 216.2, 190.2 216.2 Q 188.2 216.2, 187.2 217.5 Q 186.1 218.8, 186.1 221.3 Q 186.1 223.9, 187.2 225.3 Q 188.3 226.6, 190.4 226.6 Q 191.8 226.6, 193.5 225.7 L 194.1 227.1 Q 193.4 227.6, 192.3 227.8 Q 191.3 228.1, 190.1 228.1 Q 187.3 228.1, 185.7 226.3 Q 184.2 224.6, 184.2 221.3 " fill="#000000"/>
<path class="atom-8" d="M 195.1 225.7 L 196.9 225.7 L 196.9 227.6 L 195.1 227.6 L 195.1 225.7 M 195.1 219.4 L 196.9 219.4 L 196.9 221.2 L 195.1 221.2 L 195.1 219.4 " fill="#000000"/>
<path class="atom-8" d="M 202.8 214.6 Q 205.1 214.6, 206.3 216.2 Q 207.4 217.8, 207.4 221.0 Q 207.4 224.5, 206.0 226.3 Q 204.5 228.1, 201.7 228.1 Q 200.9 228.1, 200.2 227.9 Q 199.5 227.7, 198.9 227.3 L 199.6 226.1 Q 200.5 226.6, 201.7 226.6 Q 203.6 226.6, 204.5 225.4 Q 205.5 224.2, 205.6 221.7 Q 204.9 222.3, 204.0 222.7 Q 203.2 223.0, 202.3 223.0 Q 201.2 223.0, 200.2 222.5 Q 199.3 222.0, 198.8 221.1 Q 198.3 220.2, 198.3 219.0 Q 198.3 217.7, 198.9 216.8 Q 199.5 215.8, 200.5 215.2 Q 201.5 214.6, 202.8 214.6 M 200.2 219.0 Q 200.2 220.2, 200.8 220.8 Q 201.5 221.5, 202.6 221.5 Q 203.4 221.5, 204.2 221.2 Q 205.0 220.9, 205.6 220.3 Q 205.5 218.1, 204.8 217.1 Q 204.1 216.2, 202.7 216.2 Q 202.0 216.2, 201.4 216.5 Q 200.9 216.9, 200.5 217.6 Q 200.2 218.2, 200.2 219.0 " fill="#000000"/>
<path class="atom-9" d="M 226.7 157.9 Q 226.7 154.6, 228.2 152.9 Q 229.7 151.2, 232.6 151.2 Q 235.3 151.2, 236.8 153.1 L 235.6 154.1 Q 234.5 152.7, 232.6 152.7 Q 230.7 152.7, 229.6 154.0 Q 228.6 155.3, 228.6 157.9 Q 228.6 160.4, 229.6 161.8 Q 230.7 163.1, 232.8 163.1 Q 234.3 163.1, 236.0 162.2 L 236.5 163.6 Q 235.8 164.1, 234.8 164.3 Q 233.7 164.6, 232.6 164.6 Q 229.7 164.6, 228.2 162.9 Q 226.7 161.1, 226.7 157.9 " fill="#000000"/>
<path class="atom-9" d="M 237.5 162.3 L 239.4 162.3 L 239.4 164.1 L 237.5 164.1 L 237.5 162.3 M 237.5 155.9 L 239.4 155.9 L 239.4 157.7 L 237.5 157.7 L 237.5 155.9 " fill="#000000"/>
<path class="atom-9" d="M 241.5 163.0 L 244.4 163.0 L 244.4 153.1 L 241.2 154.1 L 240.8 153.0 L 244.8 151.2 L 246.1 151.5 L 246.1 163.0 L 248.7 163.0 L 248.7 164.4 L 241.5 164.4 L 241.5 163.0 " fill="#000000"/>
<path class="atom-9" d="M 254.3 164.6 Q 251.9 164.6, 250.7 162.8 Q 249.5 161.0, 249.5 157.9 Q 249.5 154.7, 250.7 152.9 Q 251.9 151.2, 254.3 151.2 Q 256.7 151.2, 257.9 152.9 Q 259.1 154.7, 259.1 157.9 Q 259.1 161.0, 257.9 162.8 Q 256.7 164.6, 254.3 164.6 M 254.3 163.1 Q 255.7 163.1, 256.5 161.8 Q 257.2 160.4, 257.2 157.9 Q 257.2 155.3, 256.5 154.0 Q 255.7 152.6, 254.3 152.6 Q 252.9 152.6, 252.1 154.0 Q 251.3 155.3, 251.3 157.9 Q 251.3 160.4, 252.1 161.8 Q 252.9 163.1, 254.3 163.1 " fill="#000000"/>
<path class="atom-10" d="M 312.8 325.4 Q 312.8 322.2, 314.3 320.5 Q 315.9 318.7, 318.8 318.7 Q 321.5 318.7, 322.9 320.7 L 321.7 321.7 Q 320.6 320.3, 318.8 320.3 Q 316.8 320.3, 315.7 321.6 Q 314.7 322.9, 314.7 325.4 Q 314.7 328.0, 315.8 329.4 Q 316.9 330.7, 319.0 330.7 Q 320.4 330.7, 322.1 329.8 L 322.6 331.2 Q 321.9 331.7, 320.9 331.9 Q 319.9 332.2, 318.7 332.2 Q 315.9 332.2, 314.3 330.4 Q 312.8 328.7, 312.8 325.4 " fill="#000000"/>
<path class="atom-10" d="M 323.7 329.9 L 325.5 329.9 L 325.5 331.7 L 323.7 331.7 L 323.7 329.9 M 323.7 323.5 L 325.5 323.5 L 325.5 325.3 L 323.7 325.3 L 323.7 323.5 " fill="#000000"/>
<path class="atom-10" d="M 327.6 330.5 L 330.5 330.5 L 330.5 320.7 L 327.3 321.7 L 326.9 320.6 L 330.9 318.8 L 332.3 319.0 L 332.3 330.5 L 334.8 330.5 L 334.8 332.0 L 327.6 332.0 L 327.6 330.5 " fill="#000000"/>
<path class="atom-10" d="M 336.3 330.5 L 339.2 330.5 L 339.2 320.7 L 336.0 321.7 L 335.6 320.6 L 339.6 318.8 L 341.0 319.0 L 341.0 330.5 L 343.5 330.5 L 343.5 332.0 L 336.3 332.0 L 336.3 330.5 " fill="#000000"/>
<path class="atom-11" d="M 312.4 245.9 Q 312.4 242.7, 313.9 241.0 Q 315.5 239.3, 318.4 239.3 Q 321.1 239.3, 322.5 241.2 L 321.3 242.2 Q 320.2 240.8, 318.4 240.8 Q 316.4 240.8, 315.3 242.1 Q 314.3 243.4, 314.3 245.9 Q 314.3 248.5, 315.4 249.9 Q 316.5 251.2, 318.6 251.2 Q 320.0 251.2, 321.7 250.3 L 322.2 251.7 Q 321.5 252.2, 320.5 252.4 Q 319.5 252.7, 318.3 252.7 Q 315.5 252.7, 313.9 251.0 Q 312.4 249.2, 312.4 245.9 " fill="#000000"/>
<path class="atom-11" d="M 323.3 250.4 L 325.1 250.4 L 325.1 252.2 L 323.3 252.2 L 323.3 250.4 M 323.3 244.0 L 325.1 244.0 L 325.1 245.8 L 323.3 245.8 L 323.3 244.0 " fill="#000000"/>
<path class="atom-11" d="M 327.2 251.0 L 330.1 251.0 L 330.1 241.2 L 326.9 242.2 L 326.5 241.1 L 330.5 239.3 L 331.8 239.5 L 331.8 251.0 L 334.4 251.0 L 334.4 252.5 L 327.2 252.5 L 327.2 251.0 " fill="#000000"/>
<path class="atom-11" d="M 335.2 241.9 Q 335.7 240.6, 336.9 240.0 Q 338.0 239.3, 339.6 239.3 Q 341.6 239.3, 342.7 240.3 Q 343.8 241.4, 343.8 243.3 Q 343.8 245.3, 342.4 247.1 Q 341.0 248.9, 338.0 251.0 L 344.1 251.0 L 344.1 252.5 L 335.2 252.5 L 335.2 251.3 Q 337.7 249.5, 339.1 248.2 Q 340.6 246.9, 341.3 245.8 Q 342.0 244.6, 342.0 243.4 Q 342.0 242.1, 341.3 241.4 Q 340.7 240.7, 339.6 240.7 Q 338.6 240.7, 337.9 241.2 Q 337.2 241.6, 336.7 242.5 L 335.2 241.9 " fill="#000000"/>
<path class="atom-12" d="M 358.2 332.1 Q 358.2 328.8, 359.8 327.1 Q 361.3 325.4, 364.2 325.4 Q 366.9 325.4, 368.4 327.3 L 367.1 328.3 Q 366.1 326.9, 364.2 326.9 Q 362.2 326.9, 361.2 328.2 Q 360.1 329.5, 360.1 332.1 Q 360.1 334.7, 361.2 336.0 Q 362.3 337.3, 364.4 337.3 Q 365.9 337.3, 367.6 336.5 L 368.1 337.8 Q 367.4 338.3, 366.3 338.5 Q 365.3 338.8, 364.2 338.8 Q 361.3 338.8, 359.8 337.1 Q 358.2 335.3, 358.2 332.1 " fill="#000000"/>
<path class="atom-12" d="M 369.1 336.5 L 371.0 336.5 L 371.0 338.3 L 369.1 338.3 L 369.1 336.5 M 369.1 330.1 L 371.0 330.1 L 371.0 331.9 L 369.1 331.9 L 369.1 330.1 " fill="#000000"/>
<path class="atom-12" d="M 373.1 337.2 L 376.0 337.2 L 376.0 327.3 L 372.8 328.3 L 372.4 327.2 L 376.4 325.4 L 377.7 325.7 L 377.7 337.2 L 380.3 337.2 L 380.3 338.6 L 373.1 338.6 L 373.1 337.2 " fill="#000000"/>
<path class="atom-12" d="M 387.4 331.7 Q 388.6 332.1, 389.3 332.9 Q 389.9 333.7, 389.9 335.0 Q 389.9 336.2, 389.3 337.0 Q 388.8 337.9, 387.8 338.4 Q 386.7 338.8, 385.4 338.8 Q 384.0 338.8, 382.9 338.3 Q 381.9 337.8, 381.1 336.8 L 382.1 335.8 Q 382.9 336.7, 383.6 337.0 Q 384.3 337.3, 385.4 337.3 Q 386.6 337.3, 387.3 336.7 Q 388.0 336.1, 388.0 335.0 Q 388.0 333.7, 387.3 333.1 Q 386.5 332.5, 384.9 332.5 L 384.0 332.5 L 384.0 331.1 L 384.8 331.1 Q 386.2 331.1, 387.0 330.5 Q 387.8 329.9, 387.8 328.7 Q 387.8 327.9, 387.1 327.4 Q 386.5 326.8, 385.4 326.8 Q 384.3 326.8, 383.6 327.2 Q 383.0 327.6, 382.4 328.6 L 381.2 327.9 Q 381.6 326.8, 382.7 326.1 Q 383.9 325.4, 385.4 325.4 Q 387.3 325.4, 388.5 326.3 Q 389.6 327.2, 389.6 328.7 Q 389.6 329.8, 389.0 330.5 Q 388.5 331.3, 387.4 331.7 " fill="#000000"/>
<path class="atom-13" d="M 369.1 252.6 Q 369.1 249.3, 370.6 247.6 Q 372.1 245.9, 375.0 245.9 Q 377.7 245.9, 379.2 247.8 L 378.0 248.8 Q 376.9 247.4, 375.0 247.4 Q 373.1 247.4, 372.0 248.7 Q 371.0 250.0, 371.0 252.6 Q 371.0 255.2, 372.0 256.5 Q 373.1 257.8, 375.2 257.8 Q 376.7 257.8, 378.4 257.0 L 378.9 258.4 Q 378.2 258.8, 377.2 259.1 Q 376.1 259.3, 375.0 259.3 Q 372.1 259.3, 370.6 257.6 Q 369.1 255.8, 369.1 252.6 " fill="#000000"/>
<path class="atom-13" d="M 379.9 257.0 L 381.8 257.0 L 381.8 258.8 L 379.9 258.8 L 379.9 257.0 M 379.9 250.6 L 381.8 250.6 L 381.8 252.5 L 379.9 252.5 L 379.9 250.6 " fill="#000000"/>
<path class="atom-13" d="M 383.9 257.7 L 386.8 257.7 L 386.8 247.9 L 383.6 248.8 L 383.2 247.7 L 387.2 245.9 L 388.5 246.2 L 388.5 257.7 L 391.1 257.7 L 391.1 259.1 L 383.9 259.1 L 383.9 257.7 " fill="#000000"/>
<path class="atom-13" d="M 400.4 254.6 L 402.0 254.6 L 402.0 256.1 L 400.4 256.1 L 400.4 259.1 L 398.7 259.1 L 398.7 256.1 L 391.9 256.1 L 391.9 255.0 L 397.6 246.0 L 400.4 246.0 L 400.4 254.6 M 394.0 254.6 L 398.7 254.6 L 398.7 247.2 L 394.0 254.6 " fill="#000000"/>
<path class="atom-14" d="M 386.9 295.6 Q 386.9 292.4, 388.4 290.6 Q 390.0 288.9, 392.9 288.9 Q 395.6 288.9, 397.0 290.8 L 395.8 291.8 Q 394.7 290.4, 392.9 290.4 Q 390.9 290.4, 389.8 291.8 Q 388.8 293.1, 388.8 295.6 Q 388.8 298.2, 389.9 299.6 Q 391.0 300.9, 393.1 300.9 Q 394.5 300.9, 396.2 300.0 L 396.7 301.4 Q 396.0 301.9, 395.0 302.1 Q 394.0 302.4, 392.8 302.4 Q 390.0 302.4, 388.4 300.6 Q 386.9 298.9, 386.9 295.6 " fill="#000000"/>
<path class="atom-14" d="M 397.8 300.0 L 399.6 300.0 L 399.6 301.9 L 397.8 301.9 L 397.8 300.0 M 397.8 293.7 L 399.6 293.7 L 399.6 295.5 L 397.8 295.5 L 397.8 293.7 " fill="#000000"/>
<path class="atom-14" d="M 401.7 300.7 L 404.6 300.7 L 404.6 290.9 L 401.4 291.9 L 401.0 290.8 L 405.0 289.0 L 406.3 289.2 L 406.3 300.7 L 408.9 300.7 L 408.9 302.2 L 401.7 302.2 L 401.7 300.7 " fill="#000000"/>
<path class="atom-14" d="M 414.5 294.0 Q 415.6 294.0, 416.6 294.5 Q 417.5 295.0, 418.1 295.9 Q 418.6 296.8, 418.6 298.0 Q 418.6 299.4, 417.9 300.4 Q 417.3 301.4, 416.2 301.9 Q 415.1 302.4, 413.9 302.4 Q 412.7 302.4, 411.6 301.9 Q 410.5 301.5, 409.7 300.6 L 410.8 299.5 Q 411.4 300.1, 412.3 300.5 Q 413.1 300.8, 414.0 300.8 Q 415.1 300.8, 415.9 300.1 Q 416.7 299.4, 416.7 298.1 Q 416.7 296.7, 415.9 296.0 Q 415.1 295.4, 413.8 295.4 Q 412.7 295.4, 411.4 295.9 L 410.4 295.4 L 411.0 289.1 L 417.8 289.1 L 417.6 290.6 L 412.5 290.6 L 412.2 294.5 Q 413.3 294.0, 414.5 294.0 " fill="#000000"/>
<path class="atom-15" d="M 145.8 342.0 Q 145.8 338.8, 147.4 337.1 Q 148.9 335.3, 151.8 335.3 Q 154.5 335.3, 156.0 337.2 L 154.7 338.2 Q 153.7 336.8, 151.8 336.8 Q 149.8 336.8, 148.8 338.2 Q 147.7 339.5, 147.7 342.0 Q 147.7 344.6, 148.8 346.0 Q 149.9 347.3, 152.0 347.3 Q 153.5 347.3, 155.2 346.4 L 155.7 347.8 Q 155.0 348.3, 154.0 348.5 Q 152.9 348.8, 151.8 348.8 Q 148.9 348.8, 147.4 347.0 Q 145.8 345.3, 145.8 342.0 " fill="#000000"/>
<path class="atom-15" d="M 156.7 346.4 L 158.6 346.4 L 158.6 348.3 L 156.7 348.3 L 156.7 346.4 M 156.7 340.1 L 158.6 340.1 L 158.6 341.9 L 156.7 341.9 L 156.7 340.1 " fill="#000000"/>
<path class="atom-15" d="M 160.7 347.1 L 163.6 347.1 L 163.6 337.3 L 160.4 338.3 L 160.0 337.2 L 164.0 335.4 L 165.3 335.6 L 165.3 347.1 L 167.9 347.1 L 167.9 348.6 L 160.7 348.6 L 160.7 347.1 " fill="#000000"/>
<path class="atom-15" d="M 173.8 340.4 Q 174.9 340.4, 175.9 340.9 Q 176.8 341.4, 177.3 342.3 Q 177.8 343.2, 177.8 344.4 Q 177.8 345.7, 177.2 346.7 Q 176.6 347.6, 175.6 348.2 Q 174.6 348.8, 173.4 348.8 Q 171.0 348.8, 169.8 347.2 Q 168.7 345.6, 168.7 342.4 Q 168.7 338.9, 170.1 337.1 Q 171.6 335.3, 174.4 335.3 Q 175.2 335.3, 175.9 335.5 Q 176.6 335.7, 177.2 336.1 L 176.5 337.3 Q 175.6 336.8, 174.4 336.8 Q 172.5 336.8, 171.6 338.0 Q 170.6 339.2, 170.5 341.7 Q 171.2 341.1, 172.0 340.7 Q 172.9 340.4, 173.8 340.4 M 173.4 347.2 Q 174.1 347.2, 174.7 346.9 Q 175.2 346.5, 175.6 345.8 Q 175.9 345.2, 175.9 344.4 Q 175.9 343.2, 175.3 342.6 Q 174.6 341.9, 173.5 341.9 Q 172.7 341.9, 171.9 342.2 Q 171.1 342.5, 170.5 343.1 Q 170.6 345.3, 171.3 346.3 Q 172.0 347.2, 173.4 347.2 " fill="#000000"/>
<path class="atom-16" d="M 168.2 262.5 Q 168.2 259.3, 169.7 257.6 Q 171.3 255.8, 174.2 255.8 Q 176.9 255.8, 178.3 257.7 L 177.1 258.7 Q 176.1 257.4, 174.2 257.4 Q 172.2 257.4, 171.1 258.7 Q 170.1 260.0, 170.1 262.5 Q 170.1 265.1, 171.2 266.5 Q 172.3 267.8, 174.4 267.8 Q 175.8 267.8, 177.5 266.9 L 178.0 268.3 Q 177.3 268.8, 176.3 269.0 Q 175.3 269.3, 174.1 269.3 Q 171.3 269.3, 169.7 267.5 Q 168.2 265.8, 168.2 262.5 " fill="#000000"/>
<path class="atom-16" d="M 179.1 266.9 L 180.9 266.9 L 180.9 268.8 L 179.1 268.8 L 179.1 266.9 M 179.1 260.6 L 180.9 260.6 L 180.9 262.4 L 179.1 262.4 L 179.1 260.6 " fill="#000000"/>
<path class="atom-16" d="M 183.0 267.6 L 185.9 267.6 L 185.9 257.8 L 182.7 258.8 L 182.3 257.7 L 186.3 255.9 L 187.7 256.1 L 187.7 267.6 L 190.2 267.6 L 190.2 269.1 L 183.0 269.1 L 183.0 267.6 " fill="#000000"/>
<path class="atom-16" d="M 197.9 257.5 L 191.0 257.5 L 191.0 256.0 L 199.7 256.0 L 199.7 257.3 L 194.4 269.1 L 192.7 269.1 L 197.9 257.5 " fill="#000000"/>
<path class="atom-17" d="M 99.9 335.4 Q 99.9 332.1, 101.4 330.4 Q 102.9 328.7, 105.8 328.7 Q 108.5 328.7, 110.0 330.6 L 108.8 331.6 Q 107.7 330.2, 105.8 330.2 Q 103.9 330.2, 102.8 331.6 Q 101.8 332.9, 101.8 335.4 Q 101.8 338.0, 102.8 339.3 Q 103.9 340.7, 106.0 340.7 Q 107.5 340.7, 109.2 339.8 L 109.7 341.2 Q 109.0 341.6, 108.0 341.9 Q 106.9 342.2, 105.8 342.2 Q 102.9 342.2, 101.4 340.4 Q 99.9 338.7, 99.9 335.4 " fill="#000000"/>
<path class="atom-17" d="M 110.7 339.8 L 112.6 339.8 L 112.6 341.7 L 110.7 341.7 L 110.7 339.8 M 110.7 333.4 L 112.6 333.4 L 112.6 335.3 L 110.7 335.3 L 110.7 333.4 " fill="#000000"/>
<path class="atom-17" d="M 114.7 340.5 L 117.6 340.5 L 117.6 330.7 L 114.4 331.7 L 114.0 330.6 L 118.0 328.8 L 119.3 329.0 L 119.3 340.5 L 121.9 340.5 L 121.9 342.0 L 114.7 342.0 L 114.7 340.5 " fill="#000000"/>
<path class="atom-17" d="M 129.4 335.0 Q 130.6 335.6, 131.3 336.3 Q 132.0 337.1, 132.0 338.4 Q 132.0 339.5, 131.4 340.4 Q 130.8 341.2, 129.8 341.7 Q 128.7 342.2, 127.4 342.2 Q 125.2 342.2, 123.9 341.2 Q 122.7 340.2, 122.7 338.4 Q 122.7 337.3, 123.2 336.5 Q 123.8 335.7, 124.9 335.1 Q 124.1 334.6, 123.6 333.9 Q 123.2 333.2, 123.2 332.1 Q 123.2 330.5, 124.3 329.6 Q 125.4 328.7, 127.3 328.7 Q 129.2 328.7, 130.3 329.6 Q 131.5 330.5, 131.5 332.1 Q 131.5 333.0, 130.9 333.8 Q 130.4 334.5, 129.4 335.0 M 127.3 330.1 Q 126.2 330.1, 125.6 330.6 Q 125.0 331.1, 125.0 332.1 Q 125.0 332.8, 125.4 333.2 Q 125.8 333.7, 126.4 333.9 Q 127.0 334.2, 128.1 334.6 Q 128.9 334.0, 129.3 333.4 Q 129.6 332.8, 129.6 332.1 Q 129.6 331.1, 129.0 330.6 Q 128.4 330.1, 127.3 330.1 M 127.4 340.8 Q 128.6 340.8, 129.4 340.1 Q 130.1 339.5, 130.1 338.4 Q 130.1 337.7, 129.7 337.2 Q 129.3 336.8, 128.7 336.5 Q 128.2 336.3, 127.1 335.9 L 126.3 335.6 Q 125.4 336.2, 124.9 336.9 Q 124.5 337.5, 124.5 338.4 Q 124.5 339.5, 125.3 340.1 Q 126.1 340.8, 127.4 340.8 " fill="#000000"/>
<path class="atom-18" d="M 111.4 255.9 Q 111.4 252.7, 112.9 250.9 Q 114.5 249.2, 117.4 249.2 Q 120.1 249.2, 121.5 251.1 L 120.3 252.1 Q 119.3 250.7, 117.4 250.7 Q 115.4 250.7, 114.3 252.1 Q 113.3 253.4, 113.3 255.9 Q 113.3 258.5, 114.4 259.8 Q 115.5 261.2, 117.6 261.2 Q 119.0 261.2, 120.7 260.3 L 121.2 261.7 Q 120.6 262.1, 119.5 262.4 Q 118.5 262.7, 117.3 262.7 Q 114.5 262.7, 112.9 260.9 Q 111.4 259.2, 111.4 255.9 " fill="#000000"/>
<path class="atom-18" d="M 122.3 260.3 L 124.1 260.3 L 124.1 262.2 L 122.3 262.2 L 122.3 260.3 M 122.3 253.9 L 124.1 253.9 L 124.1 255.8 L 122.3 255.8 L 122.3 253.9 " fill="#000000"/>
<path class="atom-18" d="M 126.3 261.0 L 129.1 261.0 L 129.1 251.2 L 126.0 252.2 L 125.5 251.1 L 129.6 249.3 L 130.9 249.5 L 130.9 261.0 L 133.4 261.0 L 133.4 262.5 L 126.3 262.5 L 126.3 261.0 " fill="#000000"/>
<path class="atom-18" d="M 138.6 249.2 Q 141.0 249.2, 142.1 250.8 Q 143.3 252.4, 143.3 255.5 Q 143.3 259.0, 141.9 260.8 Q 140.4 262.6, 137.6 262.6 Q 136.8 262.6, 136.1 262.5 Q 135.4 262.3, 134.7 261.9 L 135.5 260.6 Q 136.4 261.2, 137.6 261.2 Q 139.5 261.2, 140.4 260.0 Q 141.4 258.8, 141.5 256.3 Q 140.8 256.9, 139.9 257.3 Q 139.1 257.6, 138.2 257.6 Q 137.0 257.6, 136.1 257.1 Q 135.2 256.6, 134.7 255.7 Q 134.2 254.7, 134.2 253.6 Q 134.2 252.3, 134.8 251.3 Q 135.4 250.3, 136.4 249.8 Q 137.4 249.2, 138.6 249.2 M 136.1 253.6 Q 136.1 254.7, 136.7 255.4 Q 137.4 256.1, 138.5 256.1 Q 139.3 256.1, 140.1 255.8 Q 140.9 255.4, 141.5 254.9 Q 141.4 252.7, 140.7 251.7 Q 140.0 250.7, 138.6 250.7 Q 137.9 250.7, 137.3 251.1 Q 136.8 251.5, 136.4 252.1 Q 136.1 252.8, 136.1 253.6 " fill="#000000"/>
<path class="atom-19" d="M 81.9 292.4 Q 81.9 289.1, 83.4 287.4 Q 84.9 285.7, 87.8 285.7 Q 90.5 285.7, 92.0 287.6 L 90.8 288.6 Q 89.7 287.2, 87.8 287.2 Q 85.8 287.2, 84.8 288.5 Q 83.7 289.8, 83.7 292.4 Q 83.7 294.9, 84.8 296.3 Q 85.9 297.6, 88.0 297.6 Q 89.5 297.6, 91.2 296.7 L 91.7 298.1 Q 91.0 298.6, 90.0 298.8 Q 88.9 299.1, 87.8 299.1 Q 84.9 299.1, 83.4 297.4 Q 81.9 295.6, 81.9 292.4 " fill="#000000"/>
<path class="atom-19" d="M 92.7 296.8 L 94.6 296.8 L 94.6 298.6 L 92.7 298.6 L 92.7 296.8 M 92.7 290.4 L 94.6 290.4 L 94.6 292.2 L 92.7 292.2 L 92.7 290.4 " fill="#000000"/>
<path class="atom-19" d="M 96.0 288.3 Q 96.5 287.0, 97.6 286.4 Q 98.8 285.7, 100.4 285.7 Q 102.4 285.7, 103.5 286.7 Q 104.6 287.8, 104.6 289.7 Q 104.6 291.7, 103.1 293.5 Q 101.7 295.3, 98.8 297.5 L 104.8 297.5 L 104.8 298.9 L 96.0 298.9 L 96.0 297.7 Q 98.4 296.0, 99.9 294.7 Q 101.3 293.4, 102.0 292.2 Q 102.7 291.0, 102.7 289.8 Q 102.7 288.6, 102.1 287.8 Q 101.5 287.1, 100.4 287.1 Q 99.3 287.1, 98.6 287.6 Q 97.9 288.0, 97.4 288.9 L 96.0 288.3 " fill="#000000"/>
<path class="atom-19" d="M 110.7 299.1 Q 108.3 299.1, 107.1 297.3 Q 105.9 295.5, 105.9 292.4 Q 105.9 289.2, 107.1 287.4 Q 108.3 285.7, 110.7 285.7 Q 113.2 285.7, 114.4 287.4 Q 115.5 289.2, 115.5 292.4 Q 115.5 295.5, 114.3 297.3 Q 113.1 299.1, 110.7 299.1 M 110.7 297.6 Q 112.2 297.6, 112.9 296.3 Q 113.7 294.9, 113.7 292.4 Q 113.7 289.8, 112.9 288.5 Q 112.2 287.1, 110.7 287.1 Q 109.3 287.1, 108.5 288.5 Q 107.8 289.8, 107.8 292.4 Q 107.8 294.9, 108.5 296.3 Q 109.3 297.6, 110.7 297.6 " fill="#000000"/>
<path class="atom-20" d="M 131.6 143.8 L 133.3 143.8 L 133.3 149.4 L 140.1 149.4 L 140.1 143.8 L 141.8 143.8 L 141.8 156.9 L 140.1 156.9 L 140.1 150.9 L 133.3 150.9 L 133.3 156.9 L 131.6 156.9 L 131.6 143.8 " fill="#000000"/>
<path class="atom-20" d="M 143.4 154.8 L 145.3 154.8 L 145.3 156.6 L 143.4 156.6 L 143.4 154.8 M 143.4 148.4 L 145.3 148.4 L 145.3 150.2 L 143.4 150.2 L 143.4 148.4 " fill="#000000"/>
<path class="atom-20" d="M 146.7 146.3 Q 147.2 145.1, 148.3 144.4 Q 149.5 143.7, 151.1 143.7 Q 153.1 143.7, 154.2 144.7 Q 155.3 145.8, 155.3 147.7 Q 155.3 149.7, 153.8 151.5 Q 152.4 153.3, 149.4 155.5 L 155.5 155.5 L 155.5 156.9 L 146.7 156.9 L 146.7 155.7 Q 149.1 154.0, 150.6 152.7 Q 152.0 151.4, 152.7 150.2 Q 153.4 149.0, 153.4 147.8 Q 153.4 146.6, 152.8 145.8 Q 152.2 145.1, 151.1 145.1 Q 150.0 145.1, 149.3 145.6 Q 148.6 146.0, 148.1 146.9 L 146.7 146.3 " fill="#000000"/>
<path class="atom-20" d="M 157.3 155.5 L 160.2 155.5 L 160.2 145.6 L 157.1 146.6 L 156.6 145.5 L 160.7 143.7 L 162.0 144.0 L 162.0 155.5 L 164.5 155.5 L 164.5 156.9 L 157.3 156.9 L 157.3 155.5 " fill="#000000"/>
<path class="atom-21" d="M 138.5 237.7 Q 138.5 234.5, 140.0 232.7 Q 141.6 231.0, 144.5 231.0 Q 147.4 231.0, 149.0 232.7 Q 150.5 234.5, 150.5 237.7 Q 150.5 240.8, 148.9 242.7 Q 147.4 244.5, 144.5 244.5 Q 141.6 244.5, 140.0 242.7 Q 138.5 240.9, 138.5 237.7 M 144.5 243.0 Q 146.5 243.0, 147.6 241.6 Q 148.7 240.3, 148.7 237.7 Q 148.7 235.1, 147.6 233.8 Q 146.5 232.5, 144.5 232.5 Q 142.5 232.5, 141.4 233.8 Q 140.3 235.1, 140.3 237.7 Q 140.3 240.3, 141.4 241.6 Q 142.5 243.0, 144.5 243.0 " fill="#FF0000"/>
<path class="atom-21" d="M 151.4 242.1 L 153.3 242.1 L 153.3 243.9 L 151.4 243.9 L 151.4 242.1 M 151.4 235.7 L 153.3 235.7 L 153.3 237.6 L 151.4 237.6 L 151.4 235.7 " fill="#FF0000"/>
<path class="atom-21" d="M 154.7 233.6 Q 155.2 232.4, 156.4 231.7 Q 157.5 231.0, 159.1 231.0 Q 161.1 231.0, 162.2 232.1 Q 163.3 233.1, 163.3 235.0 Q 163.3 237.0, 161.9 238.8 Q 160.4 240.6, 157.5 242.8 L 163.5 242.8 L 163.5 244.3 L 154.7 244.3 L 154.7 243.0 Q 157.1 241.3, 158.6 240.0 Q 160.0 238.7, 160.8 237.5 Q 161.5 236.3, 161.5 235.1 Q 161.5 233.9, 160.8 233.2 Q 160.2 232.5, 159.1 232.5 Q 158.0 232.5, 157.3 232.9 Q 156.6 233.3, 156.1 234.3 L 154.7 233.6 " fill="#FF0000"/>
<path class="atom-21" d="M 164.7 233.6 Q 165.2 232.4, 166.3 231.7 Q 167.5 231.0, 169.1 231.0 Q 171.0 231.0, 172.2 232.1 Q 173.3 233.1, 173.3 235.0 Q 173.3 237.0, 171.8 238.8 Q 170.4 240.6, 167.4 242.8 L 173.5 242.8 L 173.5 244.3 L 164.6 244.3 L 164.6 243.0 Q 167.1 241.3, 168.5 240.0 Q 170.0 238.7, 170.7 237.5 Q 171.4 236.3, 171.4 235.1 Q 171.4 233.9, 170.8 233.2 Q 170.2 232.5, 169.1 232.5 Q 168.0 232.5, 167.3 232.9 Q 166.6 233.3, 166.1 234.3 L 164.7 233.6 " fill="#FF0000"/>
<path class="atom-22" d="M 270.0 355.3 L 271.8 355.3 L 271.8 360.9 L 278.5 360.9 L 278.5 355.3 L 280.3 355.3 L 280.3 368.5 L 278.5 368.5 L 278.5 362.4 L 271.8 362.4 L 271.8 368.5 L 270.0 368.5 L 270.0 355.3 " fill="#000000"/>
<path class="atom-22" d="M 281.9 366.3 L 283.7 366.3 L 283.7 368.1 L 281.9 368.1 L 281.9 366.3 M 281.9 359.9 L 283.7 359.9 L 283.7 361.8 L 281.9 361.8 L 281.9 359.9 " fill="#000000"/>
<path class="atom-22" d="M 285.2 357.8 Q 285.6 356.6, 286.8 355.9 Q 287.9 355.2, 289.5 355.2 Q 291.5 355.2, 292.6 356.3 Q 293.7 357.3, 293.7 359.2 Q 293.7 361.2, 292.3 363.0 Q 290.9 364.8, 287.9 367.0 L 294.0 367.0 L 294.0 368.5 L 285.1 368.5 L 285.1 367.2 Q 287.6 365.5, 289.0 364.2 Q 290.5 362.9, 291.2 361.7 Q 291.9 360.5, 291.9 359.3 Q 291.9 358.1, 291.3 357.4 Q 290.6 356.7, 289.5 356.7 Q 288.5 356.7, 287.8 357.1 Q 287.1 357.5, 286.6 358.5 L 285.2 357.8 " fill="#000000"/>
<path class="atom-22" d="M 301.4 361.5 Q 302.7 361.9, 303.3 362.7 Q 303.9 363.6, 303.9 364.9 Q 303.9 366.0, 303.3 366.8 Q 302.8 367.7, 301.8 368.2 Q 300.8 368.6, 299.4 368.6 Q 298.0 368.6, 296.9 368.2 Q 295.9 367.7, 295.1 366.7 L 296.1 365.6 Q 296.9 366.5, 297.6 366.8 Q 298.3 367.2, 299.4 367.2 Q 300.6 367.2, 301.3 366.5 Q 302.1 365.9, 302.1 364.8 Q 302.1 363.5, 301.3 362.9 Q 300.5 362.3, 298.9 362.3 L 298.0 362.3 L 298.0 361.0 L 298.8 361.0 Q 300.3 360.9, 301.0 360.3 Q 301.8 359.7, 301.8 358.5 Q 301.8 357.7, 301.1 357.2 Q 300.5 356.7, 299.4 356.7 Q 298.3 356.7, 297.7 357.1 Q 297.0 357.4, 296.5 358.4 L 295.2 357.7 Q 295.7 356.6, 296.8 355.9 Q 297.9 355.2, 299.4 355.2 Q 301.4 355.2, 302.5 356.1 Q 303.6 357.0, 303.6 358.5 Q 303.6 359.6, 303.1 360.4 Q 302.5 361.1, 301.4 361.5 " fill="#000000"/>
<path class="atom-23" d="M 322.7 194.6 L 324.4 194.6 L 324.4 200.2 L 331.1 200.2 L 331.1 194.6 L 332.9 194.6 L 332.9 207.7 L 331.1 207.7 L 331.1 201.6 L 324.4 201.6 L 324.4 207.7 L 322.7 207.7 L 322.7 194.6 " fill="#000000"/>
<path class="atom-23" d="M 334.5 205.5 L 336.4 205.5 L 336.4 207.4 L 334.5 207.4 L 334.5 205.5 M 334.5 199.1 L 336.4 199.1 L 336.4 201.0 L 334.5 201.0 L 334.5 199.1 " fill="#000000"/>
<path class="atom-23" d="M 337.8 197.1 Q 338.3 195.8, 339.4 195.1 Q 340.6 194.4, 342.2 194.4 Q 344.1 194.4, 345.3 195.5 Q 346.4 196.6, 346.4 198.5 Q 346.4 200.4, 344.9 202.2 Q 343.5 204.1, 340.5 206.2 L 346.6 206.2 L 346.6 207.7 L 337.8 207.7 L 337.8 206.5 Q 340.2 204.7, 341.6 203.4 Q 343.1 202.1, 343.8 200.9 Q 344.5 199.8, 344.5 198.6 Q 344.5 197.3, 343.9 196.6 Q 343.3 195.9, 342.2 195.9 Q 341.1 195.9, 340.4 196.3 Q 339.7 196.8, 339.2 197.7 L 337.8 197.1 " fill="#000000"/>
<path class="atom-23" d="M 356.2 203.2 L 357.8 203.2 L 357.8 204.7 L 356.2 204.7 L 356.2 207.7 L 354.5 207.7 L 354.5 204.7 L 347.7 204.7 L 347.7 203.5 L 353.5 194.6 L 356.2 194.6 L 356.2 203.2 M 349.9 203.2 L 354.5 203.2 L 354.5 195.8 L 349.9 203.2 " fill="#000000"/>
<path class="atom-24" d="M 386.1 368.6 L 387.9 368.6 L 387.9 374.1 L 394.6 374.1 L 394.6 368.6 L 396.4 368.6 L 396.4 381.7 L 394.6 381.7 L 394.6 375.6 L 387.9 375.6 L 387.9 381.7 L 386.1 381.7 L 386.1 368.6 " fill="#000000"/>
<path class="atom-24" d="M 398.0 379.5 L 399.8 379.5 L 399.8 381.4 L 398.0 381.4 L 398.0 379.5 M 398.0 373.1 L 399.8 373.1 L 399.8 375.0 L 398.0 375.0 L 398.0 373.1 " fill="#000000"/>
<path class="atom-24" d="M 401.3 371.0 Q 401.8 369.8, 402.9 369.1 Q 404.1 368.4, 405.7 368.4 Q 407.6 368.4, 408.8 369.5 Q 409.9 370.6, 409.9 372.5 Q 409.9 374.4, 408.4 376.2 Q 407.0 378.1, 404.0 380.2 L 410.1 380.2 L 410.1 381.7 L 401.2 381.7 L 401.2 380.5 Q 403.7 378.7, 405.1 377.4 Q 406.6 376.1, 407.3 374.9 Q 408.0 373.8, 408.0 372.6 Q 408.0 371.3, 407.4 370.6 Q 406.7 369.9, 405.7 369.9 Q 404.6 369.9, 403.9 370.3 Q 403.2 370.8, 402.7 371.7 L 401.3 371.0 " fill="#000000"/>
<path class="atom-24" d="M 416.0 373.5 Q 417.1 373.5, 418.1 374.0 Q 419.0 374.5, 419.5 375.4 Q 420.1 376.3, 420.1 377.5 Q 420.1 378.9, 419.4 379.9 Q 418.8 380.8, 417.7 381.3 Q 416.6 381.8, 415.4 381.8 Q 414.2 381.8, 413.1 381.4 Q 412.0 381.0, 411.2 380.1 L 412.3 379.0 Q 412.9 379.6, 413.8 380.0 Q 414.6 380.3, 415.4 380.3 Q 416.6 380.3, 417.4 379.6 Q 418.2 378.9, 418.2 377.6 Q 418.2 376.2, 417.4 375.5 Q 416.6 374.9, 415.3 374.9 Q 414.2 374.9, 412.9 375.4 L 411.9 374.9 L 412.5 368.6 L 419.3 368.6 L 419.1 370.0 L 414.0 370.0 L 413.6 373.9 Q 414.8 373.5, 416.0 373.5 " fill="#000000"/>
<path class="atom-25" d="M 409.1 209.6 L 410.8 209.6 L 410.8 215.2 L 417.6 215.2 L 417.6 209.6 L 419.3 209.6 L 419.3 222.7 L 417.6 222.7 L 417.6 216.6 L 410.8 216.6 L 410.8 222.7 L 409.1 222.7 L 409.1 209.6 " fill="#000000"/>
<path class="atom-25" d="M 420.9 220.5 L 422.8 220.5 L 422.8 222.4 L 420.9 222.4 L 420.9 220.5 M 420.9 214.2 L 422.8 214.2 L 422.8 216.0 L 420.9 216.0 L 420.9 214.2 " fill="#000000"/>
<path class="atom-25" d="M 424.2 212.1 Q 424.7 210.8, 425.8 210.1 Q 427.0 209.4, 428.6 209.4 Q 430.6 209.4, 431.7 210.5 Q 432.8 211.6, 432.8 213.5 Q 432.8 215.4, 431.3 217.3 Q 429.9 219.1, 426.9 221.2 L 433.0 221.2 L 433.0 222.7 L 424.2 222.7 L 424.2 221.5 Q 426.6 219.7, 428.1 218.4 Q 429.5 217.1, 430.2 216.0 Q 430.9 214.8, 430.9 213.6 Q 430.9 212.3, 430.3 211.6 Q 429.7 210.9, 428.6 210.9 Q 427.5 210.9, 426.8 211.3 Q 426.1 211.8, 425.6 212.7 L 424.2 212.1 " fill="#000000"/>
<path class="atom-25" d="M 439.3 214.5 Q 440.4 214.5, 441.3 215.0 Q 442.2 215.5, 442.7 216.4 Q 443.2 217.3, 443.2 218.5 Q 443.2 219.8, 442.7 220.8 Q 442.1 221.7, 441.1 222.3 Q 440.1 222.9, 438.8 222.9 Q 436.5 222.9, 435.3 221.3 Q 434.1 219.7, 434.1 216.5 Q 434.1 213.0, 435.6 211.3 Q 437.0 209.4, 439.8 209.4 Q 440.7 209.4, 441.3 209.6 Q 442.0 209.8, 442.7 210.2 L 442.0 211.4 Q 441.0 210.9, 439.9 210.9 Q 438.0 210.9, 437.1 212.1 Q 436.1 213.3, 436.0 215.8 Q 436.7 215.2, 437.5 214.8 Q 438.4 214.5, 439.3 214.5 M 438.8 221.3 Q 439.5 221.3, 440.1 221.0 Q 440.7 220.6, 441.0 219.9 Q 441.4 219.3, 441.4 218.5 Q 441.4 217.3, 440.7 216.7 Q 440.1 216.0, 438.9 216.0 Q 438.1 216.0, 437.3 216.3 Q 436.6 216.6, 436.0 217.2 Q 436.1 219.4, 436.8 220.4 Q 437.4 221.3, 438.8 221.3 " fill="#000000"/>
<path class="atom-26" d="M 443.5 295.7 L 445.3 295.7 L 445.3 301.3 L 452.0 301.3 L 452.0 295.7 L 453.8 295.7 L 453.8 308.8 L 452.0 308.8 L 452.0 302.8 L 445.3 302.8 L 445.3 308.8 L 443.5 308.8 L 443.5 295.7 " fill="#000000"/>
<path class="atom-26" d="M 455.3 306.7 L 457.2 306.7 L 457.2 308.5 L 455.3 308.5 L 455.3 306.7 M 455.3 300.3 L 457.2 300.3 L 457.2 302.1 L 455.3 302.1 L 455.3 300.3 " fill="#000000"/>
<path class="atom-26" d="M 458.6 298.2 Q 459.1 296.9, 460.3 296.2 Q 461.4 295.5, 463.0 295.5 Q 465.0 295.5, 466.1 296.6 Q 467.2 297.7, 467.2 299.6 Q 467.2 301.6, 465.8 303.4 Q 464.3 305.2, 461.4 307.3 L 467.4 307.3 L 467.4 308.8 L 458.6 308.8 L 458.6 307.6 Q 461.0 305.8, 462.5 304.5 Q 464.0 303.2, 464.7 302.1 Q 465.4 300.9, 465.4 299.7 Q 465.4 298.4, 464.7 297.7 Q 464.1 297.0, 463.0 297.0 Q 462.0 297.0, 461.2 297.5 Q 460.5 297.9, 460.0 298.8 L 458.6 298.2 " fill="#000000"/>
<path class="atom-26" d="M 475.4 297.2 L 468.6 297.2 L 468.6 295.7 L 477.3 295.7 L 477.3 297.0 L 472.0 308.8 L 470.2 308.8 L 475.4 297.2 " fill="#000000"/>
<path class="atom-27" d="M 173.9 378.5 L 175.7 378.5 L 175.7 384.1 L 182.4 384.1 L 182.4 378.5 L 184.2 378.5 L 184.2 391.7 L 182.4 391.7 L 182.4 385.6 L 175.7 385.6 L 175.7 391.7 L 173.9 391.7 L 173.9 378.5 " fill="#000000"/>
<path class="atom-27" d="M 185.7 389.5 L 187.6 389.5 L 187.6 391.3 L 185.7 391.3 L 185.7 389.5 M 185.7 383.1 L 187.6 383.1 L 187.6 385.0 L 185.7 385.0 L 185.7 383.1 " fill="#000000"/>
<path class="atom-27" d="M 189.0 381.0 Q 189.5 379.8, 190.7 379.1 Q 191.8 378.4, 193.4 378.4 Q 195.4 378.4, 196.5 379.5 Q 197.6 380.5, 197.6 382.4 Q 197.6 384.4, 196.2 386.2 Q 194.7 388.0, 191.8 390.2 L 197.8 390.2 L 197.8 391.7 L 189.0 391.7 L 189.0 390.4 Q 191.4 388.7, 192.9 387.4 Q 194.3 386.1, 195.0 384.9 Q 195.8 383.7, 195.8 382.5 Q 195.8 381.3, 195.1 380.6 Q 194.5 379.9, 193.4 379.9 Q 192.3 379.9, 191.6 380.3 Q 190.9 380.7, 190.4 381.7 L 189.0 381.0 " fill="#000000"/>
<path class="atom-27" d="M 205.6 384.7 Q 206.8 385.2, 207.5 386.0 Q 208.2 386.8, 208.2 388.1 Q 208.2 389.2, 207.6 390.0 Q 207.1 390.9, 206.0 391.4 Q 205.0 391.8, 203.7 391.8 Q 201.5 391.8, 200.2 390.8 Q 198.9 389.8, 198.9 388.1 Q 198.9 387.0, 199.5 386.2 Q 200.1 385.4, 201.2 384.8 Q 200.4 384.3, 199.9 383.6 Q 199.4 382.9, 199.4 381.7 Q 199.4 380.2, 200.5 379.3 Q 201.7 378.4, 203.6 378.4 Q 205.5 378.4, 206.6 379.3 Q 207.7 380.2, 207.7 381.7 Q 207.7 382.7, 207.2 383.4 Q 206.7 384.1, 205.6 384.7 M 203.6 379.8 Q 202.5 379.8, 201.9 380.3 Q 201.3 380.8, 201.3 381.7 Q 201.3 382.4, 201.7 382.9 Q 202.1 383.3, 202.7 383.6 Q 203.3 383.9, 204.4 384.2 Q 205.2 383.7, 205.5 383.1 Q 205.9 382.5, 205.9 381.7 Q 205.9 380.8, 205.3 380.3 Q 204.7 379.8, 203.6 379.8 M 203.7 390.5 Q 204.9 390.5, 205.6 389.8 Q 206.4 389.1, 206.4 388.0 Q 206.4 387.3, 206.0 386.9 Q 205.6 386.5, 205.0 386.2 Q 204.4 385.9, 203.4 385.6 L 202.5 385.3 Q 201.6 385.9, 201.2 386.5 Q 200.8 387.2, 200.8 388.0 Q 200.8 389.1, 201.6 389.8 Q 202.4 390.5, 203.7 390.5 " fill="#000000"/>
<path class="atom-28" d="M 178.2 233.5 L 180.0 233.5 L 180.0 239.1 L 186.7 239.1 L 186.7 233.5 L 188.5 233.5 L 188.5 246.6 L 186.7 246.6 L 186.7 240.6 L 180.0 240.6 L 180.0 246.6 L 178.2 246.6 L 178.2 233.5 " fill="#000000"/>
<path class="atom-28" d="M 190.1 244.5 L 191.9 244.5 L 191.9 246.3 L 190.1 246.3 L 190.1 244.5 M 190.1 238.1 L 191.9 238.1 L 191.9 239.9 L 190.1 239.9 L 190.1 238.1 " fill="#000000"/>
<path class="atom-28" d="M 193.4 236.0 Q 193.9 234.8, 195.0 234.1 Q 196.2 233.4, 197.7 233.4 Q 199.7 233.4, 200.8 234.4 Q 202.0 235.5, 202.0 237.4 Q 202.0 239.4, 200.5 241.2 Q 199.1 243.0, 196.1 245.2 L 202.2 245.2 L 202.2 246.6 L 193.3 246.6 L 193.3 245.4 Q 195.8 243.7, 197.2 242.4 Q 198.7 241.1, 199.4 239.9 Q 200.1 238.7, 200.1 237.5 Q 200.1 236.3, 199.5 235.5 Q 198.8 234.8, 197.7 234.8 Q 196.7 234.8, 196.0 235.3 Q 195.3 235.7, 194.8 236.6 L 193.4 236.0 " fill="#000000"/>
<path class="atom-28" d="M 207.7 233.4 Q 210.0 233.4, 211.2 235.0 Q 212.4 236.5, 212.4 239.7 Q 212.4 243.2, 210.9 245.0 Q 209.5 246.8, 206.7 246.8 Q 205.9 246.8, 205.2 246.6 Q 204.5 246.4, 203.8 246.0 L 204.5 244.8 Q 205.5 245.3, 206.7 245.3 Q 208.5 245.3, 209.5 244.1 Q 210.4 242.9, 210.5 240.4 Q 209.9 241.1, 209.0 241.4 Q 208.2 241.7, 207.3 241.7 Q 206.1 241.7, 205.2 241.2 Q 204.3 240.7, 203.8 239.8 Q 203.3 238.9, 203.3 237.7 Q 203.3 236.5, 203.8 235.5 Q 204.4 234.5, 205.4 233.9 Q 206.4 233.4, 207.7 233.4 M 205.1 237.7 Q 205.1 238.9, 205.8 239.6 Q 206.4 240.2, 207.6 240.2 Q 208.4 240.2, 209.2 239.9 Q 210.0 239.6, 210.5 239.0 Q 210.5 236.8, 209.8 235.9 Q 209.1 234.9, 207.7 234.9 Q 207.0 234.9, 206.4 235.3 Q 205.8 235.6, 205.5 236.3 Q 205.1 236.9, 205.1 237.7 " fill="#000000"/>
<path class="atom-29" d="M 57.4 365.3 L 59.2 365.3 L 59.2 370.9 L 65.9 370.9 L 65.9 365.3 L 67.7 365.3 L 67.7 378.4 L 65.9 378.4 L 65.9 372.4 L 59.2 372.4 L 59.2 378.4 L 57.4 378.4 L 57.4 365.3 " fill="#000000"/>
<path class="atom-29" d="M 69.3 376.3 L 71.1 376.3 L 71.1 378.1 L 69.3 378.1 L 69.3 376.3 M 69.3 369.9 L 71.1 369.9 L 71.1 371.7 L 69.3 371.7 L 69.3 369.9 " fill="#000000"/>
<path class="atom-29" d="M 78.8 371.5 Q 80.1 371.9, 80.7 372.7 Q 81.3 373.5, 81.3 374.8 Q 81.3 375.9, 80.8 376.8 Q 80.2 377.7, 79.2 378.2 Q 78.2 378.6, 76.8 378.6 Q 75.4 378.6, 74.4 378.1 Q 73.3 377.6, 72.5 376.6 L 73.6 375.6 Q 74.4 376.4, 75.1 376.8 Q 75.8 377.1, 76.8 377.1 Q 78.0 377.1, 78.8 376.5 Q 79.5 375.9, 79.5 374.8 Q 79.5 373.5, 78.7 372.9 Q 78.0 372.3, 76.4 372.3 L 75.4 372.3 L 75.4 370.9 L 76.3 370.9 Q 77.7 370.9, 78.4 370.3 Q 79.2 369.7, 79.2 368.5 Q 79.2 367.7, 78.6 367.2 Q 77.9 366.6, 76.9 366.6 Q 75.8 366.6, 75.1 367.0 Q 74.4 367.4, 73.9 368.4 L 72.6 367.7 Q 73.1 366.6, 74.2 365.9 Q 75.3 365.1, 76.9 365.1 Q 78.8 365.1, 79.9 366.1 Q 81.1 367.0, 81.1 368.5 Q 81.1 369.6, 80.5 370.3 Q 79.9 371.1, 78.8 371.5 " fill="#000000"/>
<path class="atom-29" d="M 87.2 378.6 Q 84.8 378.6, 83.6 376.8 Q 82.4 375.0, 82.4 371.8 Q 82.4 368.7, 83.6 366.9 Q 84.8 365.1, 87.2 365.1 Q 89.7 365.1, 90.9 366.9 Q 92.0 368.7, 92.0 371.8 Q 92.0 375.0, 90.8 376.8 Q 89.6 378.6, 87.2 378.6 M 87.2 377.1 Q 88.7 377.1, 89.4 375.8 Q 90.2 374.4, 90.2 371.8 Q 90.2 369.3, 89.4 367.9 Q 88.7 366.6, 87.2 366.6 Q 85.8 366.6, 85.0 367.9 Q 84.3 369.3, 84.3 371.8 Q 84.3 374.4, 85.0 375.8 Q 85.8 377.1, 87.2 377.1 " fill="#000000"/>
<path class="atom-30" d="M 81.2 206.3 L 83.0 206.3 L 83.0 211.9 L 89.7 211.9 L 89.7 206.3 L 91.5 206.3 L 91.5 219.4 L 89.7 219.4 L 89.7 213.4 L 83.0 213.4 L 83.0 219.4 L 81.2 219.4 L 81.2 206.3 " fill="#000000"/>
<path class="atom-30" d="M 93.0 217.3 L 94.9 217.3 L 94.9 219.1 L 93.0 219.1 L 93.0 217.3 M 93.0 210.9 L 94.9 210.9 L 94.9 212.7 L 93.0 212.7 L 93.0 210.9 " fill="#000000"/>
<path class="atom-30" d="M 102.6 212.5 Q 103.9 212.9, 104.5 213.7 Q 105.1 214.5, 105.1 215.8 Q 105.1 217.0, 104.5 217.8 Q 104.0 218.7, 103.0 219.2 Q 102.0 219.6, 100.6 219.6 Q 99.2 219.6, 98.1 219.1 Q 97.1 218.6, 96.3 217.6 L 97.3 216.6 Q 98.1 217.5, 98.8 217.8 Q 99.5 218.1, 100.6 218.1 Q 101.8 218.1, 102.5 217.5 Q 103.2 216.9, 103.2 215.8 Q 103.2 214.5, 102.5 213.9 Q 101.7 213.3, 100.1 213.3 L 99.2 213.3 L 99.2 212.0 L 100.0 212.0 Q 101.5 211.9, 102.2 211.3 Q 103.0 210.7, 103.0 209.5 Q 103.0 208.7, 102.3 208.2 Q 101.7 207.6, 100.6 207.6 Q 99.5 207.6, 98.9 208.0 Q 98.2 208.4, 97.7 209.4 L 96.4 208.7 Q 96.9 207.6, 98.0 206.9 Q 99.1 206.2, 100.6 206.2 Q 102.6 206.2, 103.7 207.1 Q 104.8 208.0, 104.8 209.5 Q 104.8 210.6, 104.3 211.3 Q 103.7 212.1, 102.6 212.5 " fill="#000000"/>
<path class="atom-30" d="M 106.9 218.0 L 109.8 218.0 L 109.8 208.1 L 106.6 209.1 L 106.2 208.0 L 110.2 206.2 L 111.5 206.5 L 111.5 218.0 L 114.1 218.0 L 114.1 219.4 L 106.9 219.4 L 106.9 218.0 " fill="#000000"/>
<path class="atom-31" d="M 313.0 178.2 L 314.7 178.2 L 314.7 183.8 L 321.5 183.8 L 321.5 178.2 L 323.2 178.2 L 323.2 191.4 L 321.5 191.4 L 321.5 185.3 L 314.7 185.3 L 314.7 191.4 L 313.0 191.4 L 313.0 178.2 " fill="#000000"/>
<path class="atom-31" d="M 324.8 189.2 L 326.7 189.2 L 326.7 191.1 L 324.8 191.1 L 324.8 189.2 M 324.8 182.8 L 326.7 182.8 L 326.7 184.7 L 324.8 184.7 L 324.8 182.8 " fill="#000000"/>
<path class="atom-31" d="M 334.4 184.5 Q 335.6 184.8, 336.3 185.7 Q 336.9 186.5, 336.9 187.8 Q 336.9 188.9, 336.3 189.8 Q 335.8 190.6, 334.8 191.1 Q 333.7 191.6, 332.4 191.6 Q 331.0 191.6, 329.9 191.1 Q 328.9 190.6, 328.1 189.6 L 329.1 188.5 Q 329.9 189.4, 330.6 189.7 Q 331.3 190.1, 332.4 190.1 Q 333.6 190.1, 334.3 189.4 Q 335.0 188.8, 335.0 187.8 Q 335.0 186.4, 334.3 185.8 Q 333.5 185.2, 331.9 185.2 L 331.0 185.2 L 331.0 183.9 L 331.8 183.9 Q 333.2 183.9, 334.0 183.3 Q 334.8 182.6, 334.8 181.5 Q 334.8 180.6, 334.1 180.1 Q 333.5 179.6, 332.4 179.6 Q 331.3 179.6, 330.6 180.0 Q 330.0 180.4, 329.5 181.3 L 328.2 180.7 Q 328.6 179.6, 329.7 178.8 Q 330.9 178.1, 332.4 178.1 Q 334.3 178.1, 335.5 179.0 Q 336.6 179.9, 336.6 181.5 Q 336.6 182.5, 336.0 183.3 Q 335.5 184.0, 334.4 184.5 " fill="#000000"/>
<path class="atom-31" d="M 338.0 180.7 Q 338.5 179.5, 339.7 178.8 Q 340.8 178.1, 342.4 178.1 Q 344.4 178.1, 345.5 179.2 Q 346.6 180.2, 346.6 182.2 Q 346.6 184.1, 345.2 185.9 Q 343.7 187.7, 340.8 189.9 L 346.8 189.9 L 346.8 191.4 L 338.0 191.4 L 338.0 190.1 Q 340.4 188.4, 341.9 187.1 Q 343.3 185.8, 344.0 184.6 Q 344.8 183.5, 344.8 182.3 Q 344.8 181.0, 344.1 180.3 Q 343.5 179.6, 342.4 179.6 Q 341.3 179.6, 340.6 180.0 Q 339.9 180.4, 339.4 181.4 L 338.0 180.7 " fill="#000000"/>
<path class="atom-32" d="M 249.1 106.4 L 250.9 106.4 L 250.9 111.9 L 257.6 111.9 L 257.6 106.4 L 259.4 106.4 L 259.4 119.5 L 257.6 119.5 L 257.6 113.4 L 250.9 113.4 L 250.9 119.5 L 249.1 119.5 L 249.1 106.4 " fill="#000000"/>
<path class="atom-32" d="M 261.0 117.3 L 262.8 117.3 L 262.8 119.2 L 261.0 119.2 L 261.0 117.3 M 261.0 110.9 L 262.8 110.9 L 262.8 112.8 L 261.0 112.8 L 261.0 110.9 " fill="#000000"/>
<path class="atom-32" d="M 270.5 112.6 Q 271.8 112.9, 272.4 113.8 Q 273.0 114.6, 273.0 115.9 Q 273.0 117.0, 272.5 117.9 Q 271.9 118.7, 270.9 119.2 Q 269.9 119.7, 268.6 119.7 Q 267.1 119.7, 266.1 119.2 Q 265.0 118.7, 264.2 117.7 L 265.3 116.6 Q 266.1 117.5, 266.8 117.9 Q 267.5 118.2, 268.6 118.2 Q 269.7 118.2, 270.5 117.6 Q 271.2 116.9, 271.2 115.9 Q 271.2 114.5, 270.4 113.9 Q 269.7 113.3, 268.1 113.3 L 267.1 113.3 L 267.1 112.0 L 268.0 112.0 Q 269.4 112.0, 270.1 111.4 Q 270.9 110.7, 270.9 109.6 Q 270.9 108.7, 270.3 108.2 Q 269.6 107.7, 268.6 107.7 Q 267.5 107.7, 266.8 108.1 Q 266.1 108.5, 265.6 109.4 L 264.3 108.8 Q 264.8 107.7, 265.9 106.9 Q 267.0 106.2, 268.6 106.2 Q 270.5 106.2, 271.6 107.1 Q 272.8 108.0, 272.8 109.6 Q 272.8 110.6, 272.2 111.4 Q 271.6 112.1, 270.5 112.6 " fill="#000000"/>
<path class="atom-32" d="M 280.4 112.6 Q 281.7 112.9, 282.3 113.8 Q 283.0 114.6, 283.0 115.9 Q 283.0 117.0, 282.4 117.9 Q 281.9 118.7, 280.8 119.2 Q 279.8 119.7, 278.5 119.7 Q 277.1 119.7, 276.0 119.2 Q 275.0 118.7, 274.1 117.7 L 275.2 116.6 Q 276.0 117.5, 276.7 117.9 Q 277.4 118.2, 278.5 118.2 Q 279.7 118.2, 280.4 117.6 Q 281.1 116.9, 281.1 115.9 Q 281.1 114.5, 280.4 113.9 Q 279.6 113.3, 278.0 113.3 L 277.0 113.3 L 277.0 112.0 L 277.9 112.0 Q 279.3 112.0, 280.1 111.4 Q 280.8 110.7, 280.8 109.6 Q 280.8 108.7, 280.2 108.2 Q 279.6 107.7, 278.5 107.7 Q 277.4 107.7, 276.7 108.1 Q 276.0 108.5, 275.5 109.4 L 274.2 108.8 Q 274.7 107.7, 275.8 106.9 Q 276.9 106.2, 278.5 106.2 Q 280.4 106.2, 281.6 107.1 Q 282.7 108.0, 282.7 109.6 Q 282.7 110.6, 282.1 111.4 Q 281.5 112.1, 280.4 112.6 " fill="#000000"/>
<path class="atom-33" d="M 22.7 279.2 L 24.5 279.2 L 24.5 284.8 L 31.2 284.8 L 31.2 279.2 L 33.0 279.2 L 33.0 292.3 L 31.2 292.3 L 31.2 286.3 L 24.5 286.3 L 24.5 292.3 L 22.7 292.3 L 22.7 279.2 " fill="#000000"/>
<path class="atom-33" d="M 34.6 290.1 L 36.4 290.1 L 36.4 292.0 L 34.6 292.0 L 34.6 290.1 M 34.6 283.8 L 36.4 283.8 L 36.4 285.6 L 34.6 285.6 L 34.6 283.8 " fill="#000000"/>
<path class="atom-33" d="M 44.1 285.4 Q 45.4 285.8, 46.0 286.6 Q 46.7 287.4, 46.7 288.7 Q 46.7 289.8, 46.1 290.7 Q 45.5 291.6, 44.5 292.0 Q 43.5 292.5, 42.2 292.5 Q 40.8 292.5, 39.7 292.0 Q 38.7 291.5, 37.8 290.5 L 38.9 289.4 Q 39.7 290.3, 40.4 290.7 Q 41.1 291.0, 42.2 291.0 Q 43.4 291.0, 44.1 290.4 Q 44.8 289.7, 44.8 288.7 Q 44.8 287.4, 44.0 286.8 Q 43.3 286.2, 41.7 286.2 L 40.7 286.2 L 40.7 284.8 L 41.6 284.8 Q 43.0 284.8, 43.8 284.2 Q 44.5 283.6, 44.5 282.4 Q 44.5 281.5, 43.9 281.0 Q 43.3 280.5, 42.2 280.5 Q 41.1 280.5, 40.4 280.9 Q 39.7 281.3, 39.2 282.3 L 37.9 281.6 Q 38.4 280.5, 39.5 279.8 Q 40.6 279.0, 42.2 279.0 Q 44.1 279.0, 45.2 279.9 Q 46.4 280.9, 46.4 282.4 Q 46.4 283.5, 45.8 284.2 Q 45.2 285.0, 44.1 285.4 " fill="#000000"/>
<path class="atom-33" d="M 56.3 287.8 L 57.9 287.8 L 57.9 289.3 L 56.3 289.3 L 56.3 292.3 L 54.5 292.3 L 54.5 289.3 L 47.7 289.3 L 47.7 288.1 L 53.5 279.2 L 56.3 279.2 L 56.3 287.8 M 49.9 287.8 L 54.5 287.8 L 54.5 280.4 L 49.9 287.8 " fill="#000000"/>
<text x="250.71871940649663" y="293.9303520238709" font-size="12" font-family="Verdana" font-weight="bold" letter-spacing="0" text-anchor="start" fill="black" transform=" rotate(38.204746 250.718719 293.930352)">0.0203</text><text x="25" y="490" font-size="12" font-family="Verdana" font-weight="bold" letter-spacing="0" text-anchor="start" fill="black">[H:1]-[#7:2](/[#6:3](-[#6:4]1:[#6:11](:[#6:13](:[#6:15](:[#6:14](:[#6:12]:1-[H:24])-[H:26])-[H:27])-[H:25])-[H:23])=[#6:6]1/[#6:7](=[#6:10](-[#7:8](-[#6:9]-1=[#8:22])-[H:21])-[H:33])-[H:32])-[#6:5]1:[#6:16](:[#6:18](:[#6:20](:[#6:19](:[#6:17]:1-[H:29])-[H:31])-[H:34])-[H:30])-[H:28]</text></svg>
