<?xml version='1.0' encoding='ASCII' standalone='yes'?>
<svg xmlns="http://www.w3.org/2000/svg" xmlns:rdkit="http://www.rdkit.org/xml" xmlns:xlink="http://www.w3.org/1999/xlink" version="1.1" baseProfile="full" xml:space="preserve" width="500px" height="500px" viewBox="0 0 500 500">
<!-- END OF HEADER -->
<rect style="opacity:1.0;fill:#FFFFFF;stroke:none" width="500.0" height="500.0" x="0.0" y="0.0"> </rect>
<path d="M 280.2,222.2 L 328.7,231.7" style="fill:none;fill-rule:evenodd;stroke:#FF7F7F;stroke-width:10.5px;stroke-linecap:butt;stroke-linejoin:miter;stroke-opacity:1"/>
<path class="bond-0 atom-0 atom-7" d="M 230.6,256.1 L 219.6,253.9" style="fill:none;fill-rule:evenodd;stroke:#0000FF;stroke-width:2.0px;stroke-linecap:butt;stroke-linejoin:miter;stroke-opacity:1"/>
<path class="bond-0 atom-0 atom-7" d="M 219.6,253.9 L 208.5,251.7" style="fill:none;fill-rule:evenodd;stroke:#000000;stroke-width:2.0px;stroke-linecap:butt;stroke-linejoin:miter;stroke-opacity:1"/>
<path class="bond-1 atom-0 atom-1" d="M 254.9,251.1 L 264.0,240.8" style="fill:none;fill-rule:evenodd;stroke:#0000FF;stroke-width:2.0px;stroke-linecap:butt;stroke-linejoin:miter;stroke-opacity:1"/>
<path class="bond-1 atom-0 atom-1" d="M 264.0,240.8 L 273.0,230.4" style="fill:none;fill-rule:evenodd;stroke:#000000;stroke-width:2.0px;stroke-linecap:butt;stroke-linejoin:miter;stroke-opacity:1"/>
<path class="bond-2 atom-0 atom-13" d="M 250.5,267.7 L 255.7,282.9" style="fill:none;fill-rule:evenodd;stroke:#0000FF;stroke-width:2.0px;stroke-linecap:butt;stroke-linejoin:miter;stroke-opacity:1"/>
<path class="bond-2 atom-0 atom-13" d="M 255.7,282.9 L 260.9,298.1" style="fill:none;fill-rule:evenodd;stroke:#000000;stroke-width:2.0px;stroke-linecap:butt;stroke-linejoin:miter;stroke-opacity:1"/>
<path class="bond-3 atom-1 atom-2" d="M 289.5,224.0 L 307.9,227.6" style="fill:none;fill-rule:evenodd;stroke:#000000;stroke-width:2.0px;stroke-linecap:butt;stroke-linejoin:miter;stroke-opacity:1"/>
<path class="bond-4 atom-1 atom-4" d="M 282.3,213.2 L 277.0,197.7" style="fill:none;fill-rule:evenodd;stroke:#000000;stroke-width:2.0px;stroke-linecap:butt;stroke-linejoin:miter;stroke-opacity:1"/>
<path class="bond-4 atom-1 atom-4" d="M 277.0,197.7 L 271.7,182.2" style="fill:none;fill-rule:evenodd;stroke:#FF0000;stroke-width:2.0px;stroke-linecap:butt;stroke-linejoin:miter;stroke-opacity:1"/>
<path class="bond-4 atom-1 atom-4" d="M 273.0,216.4 L 267.6,200.9" style="fill:none;fill-rule:evenodd;stroke:#000000;stroke-width:2.0px;stroke-linecap:butt;stroke-linejoin:miter;stroke-opacity:1"/>
<path class="bond-4 atom-1 atom-4" d="M 267.6,200.9 L 262.3,185.4" style="fill:none;fill-rule:evenodd;stroke:#FF0000;stroke-width:2.0px;stroke-linecap:butt;stroke-linejoin:miter;stroke-opacity:1"/>
<path class="bond-5 atom-2 atom-5" d="M 328.1,240.0 L 326.4,263.9" style="fill:none;fill-rule:evenodd;stroke:#000000;stroke-width:2.0px;stroke-linecap:butt;stroke-linejoin:miter;stroke-opacity:1"/>
<path class="bond-6 atom-2 atom-6" d="M 330.3,223.4 L 336.6,191.2" style="fill:none;fill-rule:evenodd;stroke:#000000;stroke-width:2.0px;stroke-linecap:butt;stroke-linejoin:miter;stroke-opacity:1"/>
<path class="bond-7 atom-3 atom-2" d="M 359.2,237.7 L 346.7,235.2" style="fill:none;fill-rule:evenodd;stroke:#0000FF;stroke-width:2.0px;stroke-linecap:butt;stroke-linejoin:miter;stroke-opacity:1"/>
<path class="bond-7 atom-3 atom-2" d="M 346.7,235.2 L 334.1,232.8" style="fill:none;fill-rule:evenodd;stroke:#000000;stroke-width:2.0px;stroke-linecap:butt;stroke-linejoin:miter;stroke-opacity:1"/>
<path class="bond-8 atom-3 atom-14" d="M 380.0,249.4 L 385.2,264.7" style="fill:none;fill-rule:evenodd;stroke:#0000FF;stroke-width:2.0px;stroke-linecap:butt;stroke-linejoin:miter;stroke-opacity:1"/>
<path class="bond-8 atom-3 atom-14" d="M 385.2,264.7 L 390.4,279.9" style="fill:none;fill-rule:evenodd;stroke:#000000;stroke-width:2.0px;stroke-linecap:butt;stroke-linejoin:miter;stroke-opacity:1"/>
<path class="bond-9 atom-3 atom-15" d="M 384.3,233.0 L 393.5,222.5" style="fill:none;fill-rule:evenodd;stroke:#0000FF;stroke-width:2.0px;stroke-linecap:butt;stroke-linejoin:miter;stroke-opacity:1"/>
<path class="bond-9 atom-3 atom-15" d="M 393.5,222.5 L 402.6,212.0" style="fill:none;fill-rule:evenodd;stroke:#000000;stroke-width:2.0px;stroke-linecap:butt;stroke-linejoin:miter;stroke-opacity:1"/>
<path class="bond-17 atom-11 atom-7" d="M 174.0,278.8 L 192.0,258.1" style="fill:none;fill-rule:evenodd;stroke:#000000;stroke-width:2.0px;stroke-linecap:butt;stroke-linejoin:miter;stroke-opacity:1"/>
<path class="bond-17 atom-11 atom-7" d="M 169.2,269.2 L 181.9,254.7" style="fill:none;fill-rule:evenodd;stroke:#000000;stroke-width:2.0px;stroke-linecap:butt;stroke-linejoin:miter;stroke-opacity:1"/>
<path class="bond-19 atom-12 atom-7" d="M 186.1,211.7 L 196.9,243.1" style="fill:none;fill-rule:evenodd;stroke:#000000;stroke-width:2.0px;stroke-linecap:butt;stroke-linejoin:miter;stroke-opacity:1"/>
<path class="bond-10 atom-8 atom-9" d="M 105.1,239.3 L 115.5,269.6" style="fill:none;fill-rule:evenodd;stroke:#000000;stroke-width:2.0px;stroke-linecap:butt;stroke-linejoin:miter;stroke-opacity:1"/>
<path class="bond-10 atom-8 atom-9" d="M 116.0,240.7 L 123.3,261.9" style="fill:none;fill-rule:evenodd;stroke:#000000;stroke-width:2.0px;stroke-linecap:butt;stroke-linejoin:miter;stroke-opacity:1"/>
<path class="bond-11 atom-8 atom-10" d="M 109.5,222.6 L 128.0,201.3" style="fill:none;fill-rule:evenodd;stroke:#000000;stroke-width:2.0px;stroke-linecap:butt;stroke-linejoin:miter;stroke-opacity:1"/>
<path class="bond-12 atom-8 atom-27" d="M 84.3,227.4 L 59.4,222.5" style="fill:none;fill-rule:evenodd;stroke:#000000;stroke-width:2.0px;stroke-linecap:butt;stroke-linejoin:miter;stroke-opacity:1"/>
<path class="bond-13 atom-9 atom-11" d="M 132.9,280.5 L 144.4,282.8" style="fill:none;fill-rule:evenodd;stroke:#000000;stroke-width:2.0px;stroke-linecap:butt;stroke-linejoin:miter;stroke-opacity:1"/>
<path class="bond-14 atom-9 atom-16" d="M 111.0,285.9 L 91.3,308.4" style="fill:none;fill-rule:evenodd;stroke:#000000;stroke-width:2.0px;stroke-linecap:butt;stroke-linejoin:miter;stroke-opacity:1"/>
<path class="bond-15 atom-10 atom-12" d="M 148.1,196.3 L 160.9,198.8" style="fill:none;fill-rule:evenodd;stroke:#000000;stroke-width:2.0px;stroke-linecap:butt;stroke-linejoin:miter;stroke-opacity:1"/>
<path class="bond-15 atom-10 atom-12" d="M 148.2,206.3 L 157.1,208.1" style="fill:none;fill-rule:evenodd;stroke:#000000;stroke-width:2.0px;stroke-linecap:butt;stroke-linejoin:miter;stroke-opacity:1"/>
<path class="bond-16 atom-10 atom-17" d="M 131.9,185.4 L 121.5,155.0" style="fill:none;fill-rule:evenodd;stroke:#000000;stroke-width:2.0px;stroke-linecap:butt;stroke-linejoin:miter;stroke-opacity:1"/>
<path class="bond-18 atom-11 atom-18" d="M 169.6,295.4 L 180.0,326.0" style="fill:none;fill-rule:evenodd;stroke:#000000;stroke-width:2.0px;stroke-linecap:butt;stroke-linejoin:miter;stroke-opacity:1"/>
<path class="bond-20 atom-12 atom-19" d="M 190.4,194.8 L 209.2,173.3" style="fill:none;fill-rule:evenodd;stroke:#000000;stroke-width:2.0px;stroke-linecap:butt;stroke-linejoin:miter;stroke-opacity:1"/>
<path class="bond-21 atom-13 atom-20" d="M 294.4,299.7 L 297.2,299.1" style="fill:none;fill-rule:evenodd;stroke:#000000;stroke-width:2.0px;stroke-linecap:butt;stroke-linejoin:miter;stroke-opacity:1"/>
<path class="bond-22 atom-13 atom-21" d="M 257.1,308.4 L 222.7,320.2" style="fill:none;fill-rule:evenodd;stroke:#000000;stroke-width:2.0px;stroke-linecap:butt;stroke-linejoin:miter;stroke-opacity:1"/>
<path class="bond-23 atom-13 atom-22" d="M 266.6,314.7 L 277.0,345.0" style="fill:none;fill-rule:evenodd;stroke:#000000;stroke-width:2.0px;stroke-linecap:butt;stroke-linejoin:miter;stroke-opacity:1"/>
<path class="bond-24 atom-14 atom-23" d="M 407.1,283.2 L 433.6,274.1" style="fill:none;fill-rule:evenodd;stroke:#000000;stroke-width:2.0px;stroke-linecap:butt;stroke-linejoin:miter;stroke-opacity:1"/>
<path class="bond-25 atom-14 atom-24" d="M 370.5,295.7 L 351.8,302.1" style="fill:none;fill-rule:evenodd;stroke:#000000;stroke-width:2.0px;stroke-linecap:butt;stroke-linejoin:miter;stroke-opacity:1"/>
<path class="bond-26 atom-14 atom-28" d="M 396.1,296.4 L 406.4,326.8" style="fill:none;fill-rule:evenodd;stroke:#000000;stroke-width:2.0px;stroke-linecap:butt;stroke-linejoin:miter;stroke-opacity:1"/>
<path class="bond-27 atom-15 atom-25" d="M 419.3,212.4 L 440.5,230.9" style="fill:none;fill-rule:evenodd;stroke:#000000;stroke-width:2.0px;stroke-linecap:butt;stroke-linejoin:miter;stroke-opacity:1"/>
<path class="bond-28 atom-15 atom-26" d="M 402.1,197.4 L 378.0,176.4" style="fill:none;fill-rule:evenodd;stroke:#000000;stroke-width:2.0px;stroke-linecap:butt;stroke-linejoin:miter;stroke-opacity:1"/>
<path class="bond-29 atom-15 atom-29" d="M 416.9,195.7 L 435.7,174.1" style="fill:none;fill-rule:evenodd;stroke:#000000;stroke-width:2.0px;stroke-linecap:butt;stroke-linejoin:miter;stroke-opacity:1"/>
<path class="atom-0" d="M 234.0 252.5 L 238.6 259.9 Q 239.1 260.6, 239.8 261.9 Q 240.5 263.3, 240.6 263.3 L 240.6 252.5 L 242.4 252.5 L 242.4 266.5 L 240.5 266.5 L 235.6 258.3 Q 235.0 257.4, 234.4 256.3 Q 233.8 255.2, 233.6 254.9 L 233.6 266.5 L 231.8 266.5 L 231.8 252.5 L 234.0 252.5 " fill="#0000FF"/>
<path class="atom-0" d="M 243.9 264.1 L 245.9 264.1 L 245.9 266.1 L 243.9 266.1 L 243.9 264.1 M 243.9 257.3 L 245.9 257.3 L 245.9 259.3 L 243.9 259.3 L 243.9 257.3 " fill="#0000FF"/>
<path class="atom-0" d="M 247.7 264.9 L 250.8 264.9 L 250.8 254.4 L 247.4 255.5 L 246.9 254.3 L 251.2 252.4 L 252.6 252.6 L 252.6 264.9 L 255.4 264.9 L 255.4 266.5 L 247.7 266.5 L 247.7 264.9 " fill="#0000FF"/>
<path class="atom-1" d="M 263.6 222.2 Q 263.6 218.8, 265.3 216.9 Q 266.9 215.1, 270.0 215.1 Q 272.9 215.1, 274.4 217.1 L 273.1 218.2 Q 272.0 216.7, 270.0 216.7 Q 267.9 216.7, 266.8 218.1 Q 265.6 219.5, 265.6 222.2 Q 265.6 225.0, 266.8 226.4 Q 268.0 227.9, 270.2 227.9 Q 271.8 227.9, 273.6 226.9 L 274.1 228.4 Q 273.4 228.9, 272.3 229.2 Q 271.2 229.4, 269.9 229.4 Q 266.9 229.4, 265.3 227.6 Q 263.6 225.7, 263.6 222.2 " fill="#000000"/>
<path class="atom-1" d="M 275.9 226.9 L 277.9 226.9 L 277.9 228.9 L 275.9 228.9 L 275.9 226.9 M 275.9 220.1 L 277.9 220.1 L 277.9 222.1 L 275.9 222.1 L 275.9 220.1 " fill="#000000"/>
<path class="atom-1" d="M 278.9 217.9 Q 279.4 216.6, 280.6 215.9 Q 281.9 215.1, 283.6 215.1 Q 285.7 215.1, 286.9 216.2 Q 288.1 217.4, 288.1 219.4 Q 288.1 221.5, 286.5 223.4 Q 285.0 225.4, 281.8 227.7 L 288.3 227.7 L 288.3 229.3 L 278.9 229.3 L 278.9 227.9 Q 281.5 226.1, 283.0 224.7 Q 284.6 223.3, 285.3 222.1 Q 286.1 220.8, 286.1 219.5 Q 286.1 218.2, 285.4 217.4 Q 284.7 216.7, 283.6 216.7 Q 282.4 216.7, 281.7 217.1 Q 280.9 217.6, 280.4 218.6 L 278.9 217.9 " fill="#000000"/>
<path class="atom-2" d="M 308.9 231.8 Q 308.9 228.3, 310.5 226.5 Q 312.1 224.6, 315.2 224.6 Q 318.1 224.6, 319.7 226.7 L 318.4 227.7 Q 317.2 226.2, 315.2 226.2 Q 313.1 226.2, 312.0 227.7 Q 310.9 229.1, 310.9 231.8 Q 310.9 234.5, 312.0 235.9 Q 313.2 237.4, 315.5 237.4 Q 317.0 237.4, 318.8 236.4 L 319.3 237.9 Q 318.6 238.4, 317.5 238.7 Q 316.4 238.9, 315.2 238.9 Q 312.1 238.9, 310.5 237.1 Q 308.9 235.2, 308.9 231.8 " fill="#000000"/>
<path class="atom-2" d="M 321.1 236.5 L 323.1 236.5 L 323.1 238.4 L 321.1 238.4 L 321.1 236.5 M 321.1 229.7 L 323.1 229.7 L 323.1 231.6 L 321.1 231.6 L 321.1 229.7 " fill="#000000"/>
<path class="atom-2" d="M 330.7 231.4 Q 332.0 231.8, 332.7 232.7 Q 333.4 233.6, 333.4 234.9 Q 333.4 236.1, 332.8 237.0 Q 332.2 238.0, 331.1 238.5 Q 330.0 239.0, 328.6 239.0 Q 327.1 239.0, 326.0 238.5 Q 324.8 237.9, 324.0 236.9 L 325.1 235.7 Q 326.0 236.7, 326.7 237.0 Q 327.4 237.4, 328.6 237.4 Q 329.8 237.4, 330.6 236.7 Q 331.4 236.0, 331.4 234.9 Q 331.4 233.5, 330.6 232.9 Q 329.8 232.2, 328.1 232.2 L 327.1 232.2 L 327.1 230.8 L 327.9 230.8 Q 329.5 230.8, 330.3 230.1 Q 331.1 229.4, 331.1 228.2 Q 331.1 227.3, 330.4 226.8 Q 329.7 226.2, 328.6 226.2 Q 327.4 226.2, 326.7 226.6 Q 326.0 227.0, 325.4 228.1 L 324.1 227.3 Q 324.6 226.2, 325.8 225.4 Q 326.9 224.6, 328.6 224.6 Q 330.7 224.6, 331.9 225.6 Q 333.1 226.6, 333.1 228.2 Q 333.1 229.3, 332.5 230.1 Q 331.8 230.9, 330.7 231.4 " fill="#000000"/>
<path class="atom-3" d="M 362.7 234.2 L 367.3 241.6 Q 367.7 242.4, 368.4 243.7 Q 369.2 245.0, 369.2 245.1 L 369.2 234.2 L 371.1 234.2 L 371.1 248.2 L 369.2 248.2 L 364.2 240.1 Q 363.7 239.2, 363.0 238.1 Q 362.5 237.0, 362.3 236.6 L 362.3 248.2 L 360.5 248.2 L 360.5 234.2 L 362.7 234.2 " fill="#0000FF"/>
<path class="atom-3" d="M 372.6 245.9 L 374.5 245.9 L 374.5 247.9 L 372.6 247.9 L 372.6 245.9 M 372.6 239.1 L 374.5 239.1 L 374.5 241.1 L 372.6 241.1 L 372.6 239.1 " fill="#0000FF"/>
<path class="atom-3" d="M 384.2 243.4 L 385.9 243.4 L 385.9 245.0 L 384.2 245.0 L 384.2 248.2 L 382.4 248.2 L 382.4 245.0 L 375.1 245.0 L 375.1 243.7 L 381.2 234.2 L 384.2 234.2 L 384.2 243.4 M 377.4 243.4 L 382.4 243.4 L 382.4 235.5 L 377.4 243.4 " fill="#0000FF"/>
<path class="atom-4" d="M 257.7 175.5 Q 257.7 172.1, 259.4 170.2 Q 261.1 168.4, 264.2 168.4 Q 267.3 168.4, 268.9 170.2 Q 270.6 172.1, 270.6 175.5 Q 270.6 178.9, 268.9 180.8 Q 267.2 182.7, 264.2 182.7 Q 261.1 182.7, 259.4 180.8 Q 257.7 178.9, 257.7 175.5 M 264.2 181.1 Q 266.3 181.1, 267.4 179.7 Q 268.6 178.3, 268.6 175.5 Q 268.6 172.7, 267.4 171.3 Q 266.3 169.9, 264.2 169.9 Q 262.0 169.9, 260.9 171.3 Q 259.7 172.7, 259.7 175.5 Q 259.7 178.3, 260.9 179.7 Q 262.0 181.1, 264.2 181.1 " fill="#FF0000"/>
<path class="atom-4" d="M 272.1 180.2 L 274.0 180.2 L 274.0 182.2 L 272.1 182.2 L 272.1 180.2 M 272.1 173.4 L 274.0 173.4 L 274.0 175.4 L 272.1 175.4 L 272.1 173.4 " fill="#FF0000"/>
<path class="atom-4" d="M 280.0 173.7 Q 281.3 173.7, 282.3 174.3 Q 283.3 174.8, 283.9 175.8 Q 284.4 176.8, 284.4 178.1 Q 284.4 179.5, 283.7 180.6 Q 283.0 181.6, 281.9 182.1 Q 280.7 182.7, 279.4 182.7 Q 278.1 182.7, 277.0 182.2 Q 275.8 181.7, 275.0 180.8 L 276.1 179.6 Q 276.8 180.3, 277.7 180.7 Q 278.6 181.1, 279.5 181.1 Q 280.7 181.1, 281.6 180.3 Q 282.4 179.5, 282.4 178.1 Q 282.4 176.6, 281.6 175.9 Q 280.7 175.2, 279.4 175.2 Q 278.1 175.2, 276.8 175.8 L 275.7 175.2 L 276.4 168.5 L 283.6 168.5 L 283.4 170.1 L 278.0 170.1 L 277.6 174.2 Q 278.8 173.7, 280.0 173.7 " fill="#FF0000"/>
<path class="atom-5" d="M 320.3 264.7 L 322.2 264.7 L 322.2 270.6 L 329.4 270.6 L 329.4 264.7 L 331.3 264.7 L 331.3 278.7 L 329.4 278.7 L 329.4 272.2 L 322.2 272.2 L 322.2 278.7 L 320.3 278.7 L 320.3 264.7 " fill="#000000"/>
<path class="atom-5" d="M 332.8 276.4 L 334.7 276.4 L 334.7 278.4 L 332.8 278.4 L 332.8 276.4 M 332.8 269.6 L 334.7 269.6 L 334.7 271.6 L 332.8 271.6 L 332.8 269.6 " fill="#000000"/>
<path class="atom-5" d="M 341.6 270.0 Q 342.8 270.0, 343.7 270.5 Q 344.7 271.0, 345.2 272.0 Q 345.8 273.0, 345.8 274.2 Q 345.8 275.6, 345.2 276.6 Q 344.6 277.7, 343.5 278.3 Q 342.4 278.9, 341.1 278.9 Q 338.6 278.9, 337.3 277.2 Q 336.1 275.5, 336.1 272.1 Q 336.1 268.4, 337.6 266.5 Q 339.2 264.5, 342.2 264.5 Q 343.0 264.5, 343.8 264.7 Q 344.5 264.9, 345.2 265.4 L 344.5 266.7 Q 343.4 266.1, 342.2 266.1 Q 340.2 266.1, 339.2 267.4 Q 338.2 268.7, 338.1 271.3 Q 338.8 270.6, 339.7 270.3 Q 340.6 270.0, 341.6 270.0 M 341.1 277.2 Q 341.8 277.2, 342.5 276.8 Q 343.1 276.4, 343.4 275.7 Q 343.8 275.1, 343.8 274.2 Q 343.8 273.0, 343.1 272.2 Q 342.4 271.5, 341.2 271.5 Q 340.3 271.5, 339.5 271.9 Q 338.7 272.2, 338.1 272.8 Q 338.2 275.1, 338.9 276.2 Q 339.6 277.2, 341.1 277.2 " fill="#000000"/>
<path class="atom-6" d="M 332.7 176.2 L 334.6 176.2 L 334.6 182.2 L 341.8 182.2 L 341.8 176.2 L 343.6 176.2 L 343.6 190.2 L 341.8 190.2 L 341.8 183.7 L 334.6 183.7 L 334.6 190.2 L 332.7 190.2 L 332.7 176.2 " fill="#000000"/>
<path class="atom-6" d="M 345.1 187.9 L 347.1 187.9 L 347.1 189.9 L 345.1 189.9 L 345.1 187.9 M 345.1 181.1 L 347.1 181.1 L 347.1 183.1 L 345.1 183.1 L 345.1 181.1 " fill="#000000"/>
<path class="atom-6" d="M 354.8 177.8 L 347.5 177.8 L 347.5 176.2 L 356.8 176.2 L 356.8 177.6 L 351.1 190.2 L 349.2 190.2 L 354.8 177.8 " fill="#000000"/>
<path class="atom-7" d="M 182.4 250.0 Q 182.4 246.5, 184.0 244.7 Q 185.6 242.8, 188.7 242.8 Q 191.6 242.8, 193.2 244.9 L 191.9 245.9 Q 190.7 244.4, 188.7 244.4 Q 186.6 244.4, 185.5 245.9 Q 184.4 247.3, 184.4 250.0 Q 184.4 252.7, 185.5 254.2 Q 186.7 255.6, 189.0 255.6 Q 190.5 255.6, 192.3 254.6 L 192.9 256.1 Q 192.1 256.6, 191.0 256.9 Q 189.9 257.2, 188.7 257.2 Q 185.6 257.2, 184.0 255.3 Q 182.4 253.4, 182.4 250.0 " fill="#000000"/>
<path class="atom-7" d="M 194.7 254.7 L 196.6 254.7 L 196.6 256.6 L 194.7 256.6 L 194.7 254.7 M 194.7 247.9 L 196.6 247.9 L 196.6 249.8 L 194.7 249.8 L 194.7 247.9 " fill="#000000"/>
<path class="atom-7" d="M 205.0 249.6 Q 206.3 250.1, 207.0 250.9 Q 207.7 251.8, 207.7 253.1 Q 207.7 254.3, 207.1 255.3 Q 206.5 256.2, 205.4 256.7 Q 204.3 257.2, 202.9 257.2 Q 200.6 257.2, 199.2 256.1 Q 197.9 255.0, 197.9 253.1 Q 197.9 252.0, 198.5 251.1 Q 199.0 250.3, 200.3 249.6 Q 199.4 249.1, 198.9 248.4 Q 198.4 247.6, 198.4 246.4 Q 198.4 244.8, 199.6 243.8 Q 200.8 242.8, 202.8 242.8 Q 204.8 242.8, 206.0 243.8 Q 207.2 244.8, 207.2 246.4 Q 207.2 247.4, 206.7 248.2 Q 206.1 249.0, 205.0 249.6 M 202.8 244.3 Q 201.6 244.3, 201.0 244.9 Q 200.4 245.4, 200.4 246.4 Q 200.4 247.1, 200.8 247.6 Q 201.2 248.1, 201.8 248.4 Q 202.5 248.7, 203.7 249.1 Q 204.5 248.5, 204.9 247.8 Q 205.3 247.2, 205.3 246.4 Q 205.3 245.4, 204.6 244.9 Q 204.0 244.3, 202.8 244.3 M 202.9 255.7 Q 204.2 255.7, 205.0 255.0 Q 205.8 254.3, 205.8 253.1 Q 205.8 252.4, 205.4 251.9 Q 204.9 251.4, 204.3 251.1 Q 203.7 250.9, 202.6 250.5 L 201.7 250.2 Q 200.7 250.8, 200.3 251.5 Q 199.8 252.2, 199.8 253.1 Q 199.8 254.3, 200.7 255.0 Q 201.5 255.7, 202.9 255.7 " fill="#000000"/>
<path class="atom-8" d="M 85.5 230.9 Q 85.5 227.5, 87.1 225.6 Q 88.8 223.8, 91.9 223.8 Q 94.8 223.8, 96.3 225.8 L 95.0 226.9 Q 93.9 225.4, 91.9 225.4 Q 89.8 225.4, 88.6 226.8 Q 87.5 228.2, 87.5 230.9 Q 87.5 233.7, 88.7 235.1 Q 89.9 236.5, 92.1 236.5 Q 93.6 236.5, 95.4 235.6 L 96.0 237.1 Q 95.3 237.6, 94.2 237.8 Q 93.1 238.1, 91.8 238.1 Q 88.8 238.1, 87.1 236.3 Q 85.5 234.4, 85.5 230.9 " fill="#000000"/>
<path class="atom-8" d="M 97.8 235.6 L 99.8 235.6 L 99.8 237.6 L 97.8 237.6 L 97.8 235.6 M 97.8 228.8 L 99.8 228.8 L 99.8 230.8 L 97.8 230.8 L 97.8 228.8 " fill="#000000"/>
<path class="atom-8" d="M 105.6 223.8 Q 108.1 223.8, 109.3 225.5 Q 110.6 227.2, 110.6 230.5 Q 110.6 234.3, 109.0 236.2 Q 107.5 238.1, 104.5 238.1 Q 103.6 238.1, 102.9 237.9 Q 102.1 237.7, 101.4 237.3 L 102.2 236.0 Q 103.2 236.5, 104.5 236.5 Q 106.4 236.5, 107.4 235.3 Q 108.5 234.0, 108.6 231.3 Q 107.9 232.0, 107.0 232.4 Q 106.1 232.7, 105.1 232.7 Q 103.9 232.7, 102.9 232.2 Q 101.9 231.6, 101.4 230.7 Q 100.9 229.7, 100.9 228.5 Q 100.9 227.1, 101.5 226.0 Q 102.1 225.0, 103.1 224.4 Q 104.2 223.8, 105.6 223.8 M 102.8 228.4 Q 102.8 229.7, 103.5 230.4 Q 104.2 231.1, 105.4 231.1 Q 106.3 231.1, 107.1 230.8 Q 108.0 230.4, 108.6 229.8 Q 108.5 227.5, 107.8 226.5 Q 107.0 225.4, 105.5 225.4 Q 104.8 225.4, 104.2 225.8 Q 103.6 226.2, 103.2 226.9 Q 102.8 227.6, 102.8 228.4 " fill="#000000"/>
<path class="atom-9" d="M 96.5 277.7 Q 96.5 274.2, 98.1 272.4 Q 99.7 270.5, 102.8 270.5 Q 105.7 270.5, 107.2 272.6 L 105.9 273.7 Q 104.8 272.2, 102.8 272.2 Q 100.7 272.2, 99.6 273.6 Q 98.5 275.0, 98.5 277.7 Q 98.5 280.5, 99.6 281.9 Q 100.8 283.3, 103.0 283.3 Q 104.6 283.3, 106.4 282.4 L 106.9 283.8 Q 106.2 284.3, 105.1 284.6 Q 104.0 284.9, 102.8 284.9 Q 99.7 284.9, 98.1 283.0 Q 96.5 281.2, 96.5 277.7 " fill="#000000"/>
<path class="atom-9" d="M 108.7 282.4 L 110.7 282.4 L 110.7 284.4 L 108.7 284.4 L 108.7 282.4 M 108.7 275.6 L 110.7 275.6 L 110.7 277.6 L 108.7 277.6 L 108.7 275.6 " fill="#000000"/>
<path class="atom-9" d="M 112.5 283.1 L 115.6 283.1 L 115.6 272.7 L 112.2 273.7 L 111.8 272.5 L 116.1 270.6 L 117.5 270.9 L 117.5 283.1 L 120.2 283.1 L 120.2 284.7 L 112.5 284.7 L 112.5 283.1 " fill="#000000"/>
<path class="atom-9" d="M 126.5 284.9 Q 124.0 284.9, 122.7 283.0 Q 121.4 281.1, 121.4 277.7 Q 121.4 274.3, 122.7 272.4 Q 124.0 270.5, 126.5 270.5 Q 129.1 270.5, 130.4 272.4 Q 131.7 274.3, 131.7 277.7 Q 131.7 281.1, 130.4 283.0 Q 129.1 284.9, 126.5 284.9 M 126.5 283.3 Q 128.1 283.3, 128.9 281.9 Q 129.7 280.5, 129.7 277.7 Q 129.7 274.9, 128.9 273.5 Q 128.1 272.1, 126.5 272.1 Q 125.0 272.1, 124.2 273.5 Q 123.4 274.9, 123.4 277.7 Q 123.4 280.5, 124.2 281.9 Q 125.0 283.3, 126.5 283.3 " fill="#000000"/>
<path class="atom-10" d="M 113.6 193.7 Q 113.6 190.2, 115.3 188.4 Q 116.9 186.6, 120.0 186.6 Q 122.9 186.6, 124.4 188.6 L 123.1 189.7 Q 122.0 188.2, 120.0 188.2 Q 117.9 188.2, 116.8 189.6 Q 115.7 191.0, 115.7 193.7 Q 115.7 196.5, 116.8 197.9 Q 118.0 199.3, 120.2 199.3 Q 121.8 199.3, 123.6 198.4 L 124.1 199.9 Q 123.4 200.3, 122.3 200.6 Q 121.2 200.9, 120.0 200.9 Q 116.9 200.9, 115.3 199.0 Q 113.6 197.2, 113.6 193.7 " fill="#000000"/>
<path class="atom-10" d="M 125.9 198.4 L 127.9 198.4 L 127.9 200.4 L 125.9 200.4 L 125.9 198.4 M 125.9 191.6 L 127.9 191.6 L 127.9 193.6 L 125.9 193.6 L 125.9 191.6 " fill="#000000"/>
<path class="atom-10" d="M 129.7 199.1 L 132.8 199.1 L 132.8 188.7 L 129.4 189.7 L 129.0 188.6 L 133.3 186.6 L 134.7 186.9 L 134.7 199.1 L 137.4 199.1 L 137.4 200.7 L 129.7 200.7 L 129.7 199.1 " fill="#000000"/>
<path class="atom-10" d="M 139.2 199.1 L 142.3 199.1 L 142.3 188.7 L 138.9 189.7 L 138.5 188.6 L 142.8 186.6 L 144.2 186.9 L 144.2 199.1 L 146.9 199.1 L 146.9 200.7 L 139.2 200.7 L 139.2 199.1 " fill="#000000"/>
<path class="atom-11" d="M 145.3 287.2 Q 145.3 283.7, 146.9 281.9 Q 148.6 280.1, 151.7 280.1 Q 154.6 280.1, 156.1 282.1 L 154.8 283.2 Q 153.7 281.7, 151.7 281.7 Q 149.6 281.7, 148.4 283.1 Q 147.3 284.5, 147.3 287.2 Q 147.3 290.0, 148.5 291.4 Q 149.6 292.8, 151.9 292.8 Q 153.4 292.8, 155.2 291.9 L 155.8 293.4 Q 155.1 293.8, 153.9 294.1 Q 152.8 294.4, 151.6 294.4 Q 148.6 294.4, 146.9 292.5 Q 145.3 290.7, 145.3 287.2 " fill="#000000"/>
<path class="atom-11" d="M 157.6 291.9 L 159.6 291.9 L 159.6 293.9 L 157.6 293.9 L 157.6 291.9 M 157.6 285.1 L 159.6 285.1 L 159.6 287.1 L 157.6 287.1 L 157.6 285.1 " fill="#000000"/>
<path class="atom-11" d="M 161.4 292.6 L 164.5 292.6 L 164.5 282.2 L 161.1 283.2 L 160.6 282.1 L 164.9 280.1 L 166.3 280.4 L 166.3 292.6 L 169.1 292.6 L 169.1 294.2 L 161.4 294.2 L 161.4 292.6 " fill="#000000"/>
<path class="atom-11" d="M 170.1 282.9 Q 170.6 281.5, 171.8 280.8 Q 173.1 280.1, 174.8 280.1 Q 176.9 280.1, 178.1 281.2 Q 179.2 282.4, 179.2 284.4 Q 179.2 286.5, 177.7 288.4 Q 176.2 290.3, 173.0 292.6 L 179.5 292.6 L 179.5 294.2 L 170.1 294.2 L 170.1 292.9 Q 172.7 291.0, 174.2 289.6 Q 175.8 288.3, 176.5 287.0 Q 177.3 285.8, 177.3 284.5 Q 177.3 283.1, 176.6 282.4 Q 175.9 281.6, 174.8 281.6 Q 173.6 281.6, 172.9 282.1 Q 172.1 282.6, 171.6 283.6 L 170.1 282.9 " fill="#000000"/>
<path class="atom-12" d="M 161.8 203.2 Q 161.8 199.7, 163.5 197.9 Q 165.1 196.1, 168.2 196.1 Q 171.1 196.1, 172.6 198.1 L 171.3 199.2 Q 170.2 197.7, 168.2 197.7 Q 166.1 197.7, 165.0 199.1 Q 163.8 200.5, 163.8 203.2 Q 163.8 206.0, 165.0 207.4 Q 166.2 208.8, 168.4 208.8 Q 170.0 208.8, 171.8 207.9 L 172.3 209.4 Q 171.6 209.9, 170.5 210.1 Q 169.4 210.4, 168.1 210.4 Q 165.1 210.4, 163.5 208.5 Q 161.8 206.7, 161.8 203.2 " fill="#000000"/>
<path class="atom-12" d="M 174.1 207.9 L 176.1 207.9 L 176.1 209.9 L 174.1 209.9 L 174.1 207.9 M 174.1 201.1 L 176.1 201.1 L 176.1 203.1 L 174.1 203.1 L 174.1 201.1 " fill="#000000"/>
<path class="atom-12" d="M 177.9 208.6 L 181.0 208.6 L 181.0 198.2 L 177.6 199.2 L 177.2 198.1 L 181.4 196.2 L 182.8 196.4 L 182.8 208.6 L 185.6 208.6 L 185.6 210.2 L 177.9 210.2 L 177.9 208.6 " fill="#000000"/>
<path class="atom-12" d="M 193.1 202.9 Q 194.5 203.2, 195.2 204.1 Q 195.8 205.0, 195.8 206.4 Q 195.8 207.6, 195.2 208.5 Q 194.6 209.4, 193.6 209.9 Q 192.5 210.4, 191.0 210.4 Q 189.5 210.4, 188.4 209.9 Q 187.3 209.4, 186.4 208.3 L 187.5 207.2 Q 188.4 208.1, 189.1 208.5 Q 189.9 208.8, 191.0 208.8 Q 192.3 208.8, 193.1 208.2 Q 193.9 207.5, 193.9 206.4 Q 193.9 204.9, 193.0 204.3 Q 192.3 203.7, 190.5 203.7 L 189.5 203.7 L 189.5 202.2 L 190.4 202.2 Q 191.9 202.2, 192.7 201.6 Q 193.6 200.9, 193.6 199.7 Q 193.6 198.7, 192.9 198.2 Q 192.2 197.7, 191.1 197.7 Q 189.9 197.7, 189.2 198.1 Q 188.5 198.5, 187.9 199.5 L 186.5 198.8 Q 187.0 197.6, 188.2 196.9 Q 189.4 196.1, 191.1 196.1 Q 193.1 196.1, 194.3 197.0 Q 195.5 198.0, 195.5 199.7 Q 195.5 200.8, 194.9 201.6 Q 194.3 202.4, 193.1 202.9 " fill="#000000"/>
<path class="atom-13" d="M 258.3 306.2 Q 258.3 302.7, 259.9 300.9 Q 261.6 299.1, 264.7 299.1 Q 267.5 299.1, 269.1 301.1 L 267.8 302.2 Q 266.7 300.7, 264.7 300.7 Q 262.5 300.7, 261.4 302.1 Q 260.3 303.5, 260.3 306.2 Q 260.3 309.0, 261.5 310.4 Q 262.6 311.8, 264.9 311.8 Q 266.4 311.8, 268.2 310.9 L 268.8 312.4 Q 268.0 312.9, 266.9 313.1 Q 265.8 313.4, 264.6 313.4 Q 261.6 313.4, 259.9 311.6 Q 258.3 309.7, 258.3 306.2 " fill="#000000"/>
<path class="atom-13" d="M 270.6 310.9 L 272.5 310.9 L 272.5 312.9 L 270.6 312.9 L 270.6 310.9 M 270.6 304.1 L 272.5 304.1 L 272.5 306.1 L 270.6 306.1 L 270.6 304.1 " fill="#000000"/>
<path class="atom-13" d="M 274.4 311.7 L 277.4 311.7 L 277.4 301.2 L 274.1 302.3 L 273.6 301.1 L 277.9 299.2 L 279.3 299.4 L 279.3 311.7 L 282.1 311.7 L 282.1 313.2 L 274.4 313.2 L 274.4 311.7 " fill="#000000"/>
<path class="atom-13" d="M 291.7 308.4 L 293.4 308.4 L 293.4 310.0 L 291.7 310.0 L 291.7 313.2 L 289.9 313.2 L 289.9 310.0 L 282.6 310.0 L 282.6 308.8 L 288.8 299.2 L 291.7 299.2 L 291.7 308.4 M 284.9 308.4 L 289.9 308.4 L 289.9 300.5 L 284.9 308.4 " fill="#000000"/>
<path class="atom-14" d="M 371.8 288.0 Q 371.8 284.5, 373.4 282.7 Q 375.0 280.9, 378.1 280.9 Q 381.0 280.9, 382.6 282.9 L 381.2 284.0 Q 380.1 282.5, 378.1 282.5 Q 376.0 282.5, 374.9 283.9 Q 373.8 285.3, 373.8 288.0 Q 373.8 290.8, 374.9 292.2 Q 376.1 293.6, 378.3 293.6 Q 379.9 293.6, 381.7 292.7 L 382.2 294.2 Q 381.5 294.7, 380.4 294.9 Q 379.3 295.2, 378.1 295.2 Q 375.0 295.2, 373.4 293.4 Q 371.8 291.5, 371.8 288.0 " fill="#000000"/>
<path class="atom-14" d="M 384.0 292.7 L 386.0 292.7 L 386.0 294.7 L 384.0 294.7 L 384.0 292.7 M 384.0 285.9 L 386.0 285.9 L 386.0 287.9 L 384.0 287.9 L 384.0 285.9 " fill="#000000"/>
<path class="atom-14" d="M 387.8 293.5 L 390.9 293.5 L 390.9 283.0 L 387.5 284.0 L 387.1 282.9 L 391.4 281.0 L 392.8 281.2 L 392.8 293.5 L 395.5 293.5 L 395.5 295.0 L 387.8 295.0 L 387.8 293.5 " fill="#000000"/>
<path class="atom-14" d="M 401.5 286.3 Q 402.7 286.3, 403.7 286.8 Q 404.7 287.3, 405.3 288.3 Q 405.9 289.3, 405.9 290.6 Q 405.9 292.1, 405.2 293.1 Q 404.5 294.1, 403.3 294.7 Q 402.2 295.2, 400.9 295.2 Q 399.6 295.2, 398.4 294.7 Q 397.2 294.2, 396.4 293.3 L 397.6 292.1 Q 398.3 292.8, 399.2 293.2 Q 400.0 293.6, 401.0 293.6 Q 402.2 293.6, 403.0 292.8 Q 403.9 292.1, 403.9 290.6 Q 403.9 289.2, 403.0 288.5 Q 402.2 287.8, 400.8 287.8 Q 399.6 287.8, 398.2 288.3 L 397.2 287.8 L 397.8 281.0 L 405.0 281.0 L 404.8 282.6 L 399.5 282.6 L 399.0 286.8 Q 400.3 286.3, 401.5 286.3 " fill="#000000"/>
<path class="atom-15" d="M 388.0 204.0 Q 388.0 200.6, 389.7 198.7 Q 391.3 196.9, 394.4 196.9 Q 397.3 196.9, 398.8 198.9 L 397.5 200.0 Q 396.4 198.5, 394.4 198.5 Q 392.3 198.5, 391.2 199.9 Q 390.1 201.3, 390.1 204.0 Q 390.1 206.8, 391.2 208.2 Q 392.4 209.6, 394.6 209.6 Q 396.2 209.6, 398.0 208.7 L 398.5 210.2 Q 397.8 210.7, 396.7 210.9 Q 395.6 211.2, 394.3 211.2 Q 391.3 211.2, 389.7 209.4 Q 388.0 207.5, 388.0 204.0 " fill="#000000"/>
<path class="atom-15" d="M 400.3 208.7 L 402.3 208.7 L 402.3 210.7 L 400.3 210.7 L 400.3 208.7 M 400.3 201.9 L 402.3 201.9 L 402.3 203.9 L 400.3 203.9 L 400.3 201.9 " fill="#000000"/>
<path class="atom-15" d="M 404.1 209.5 L 407.2 209.5 L 407.2 199.0 L 403.8 200.1 L 403.4 198.9 L 407.6 197.0 L 409.1 197.2 L 409.1 209.5 L 411.8 209.5 L 411.8 211.0 L 404.1 211.0 L 404.1 209.5 " fill="#000000"/>
<path class="atom-15" d="M 418.6 202.3 Q 419.8 202.3, 420.8 202.8 Q 421.8 203.4, 422.3 204.3 Q 422.8 205.3, 422.8 206.5 Q 422.8 207.9, 422.2 209.0 Q 421.6 210.0, 420.6 210.6 Q 419.5 211.2, 418.1 211.2 Q 415.7 211.2, 414.4 209.5 Q 413.1 207.8, 413.1 204.5 Q 413.1 200.7, 414.7 198.8 Q 416.2 196.9, 419.2 196.9 Q 420.1 196.9, 420.8 197.1 Q 421.6 197.3, 422.3 197.7 L 421.5 199.0 Q 420.5 198.5, 419.3 198.5 Q 417.3 198.5, 416.3 199.8 Q 415.3 201.0, 415.1 203.7 Q 415.9 203.0, 416.7 202.7 Q 417.7 202.3, 418.6 202.3 M 418.2 209.6 Q 418.9 209.6, 419.5 209.2 Q 420.2 208.8, 420.5 208.1 Q 420.9 207.4, 420.9 206.6 Q 420.9 205.3, 420.2 204.6 Q 419.5 203.9, 418.3 203.9 Q 417.4 203.9, 416.6 204.2 Q 415.7 204.6, 415.1 205.2 Q 415.2 207.5, 416.0 208.5 Q 416.7 209.6, 418.2 209.6 " fill="#000000"/>
<path class="atom-16" d="M 56.8 307.9 L 58.7 307.9 L 58.7 313.9 L 65.9 313.9 L 65.9 307.9 L 67.8 307.9 L 67.8 321.9 L 65.9 321.9 L 65.9 315.4 L 58.7 315.4 L 58.7 321.9 L 56.8 321.9 L 56.8 307.9 " fill="#000000"/>
<path class="atom-16" d="M 69.2 319.6 L 71.2 319.6 L 71.2 321.6 L 69.2 321.6 L 69.2 319.6 M 69.2 312.8 L 71.2 312.8 L 71.2 314.8 L 69.2 314.8 L 69.2 312.8 " fill="#000000"/>
<path class="atom-16" d="M 73.1 320.3 L 76.1 320.3 L 76.1 309.9 L 72.7 310.9 L 72.3 309.7 L 76.6 307.8 L 78.0 308.1 L 78.0 320.3 L 80.7 320.3 L 80.7 321.9 L 73.1 321.9 L 73.1 320.3 " fill="#000000"/>
<path class="atom-16" d="M 88.4 309.5 L 81.1 309.5 L 81.1 307.9 L 90.4 307.9 L 90.4 309.3 L 84.7 321.9 L 82.8 321.9 L 88.4 309.5 " fill="#000000"/>
<path class="atom-17" d="M 113.2 140.0 L 115.1 140.0 L 115.1 145.9 L 122.3 145.9 L 122.3 140.0 L 124.2 140.0 L 124.2 154.0 L 122.3 154.0 L 122.3 147.5 L 115.1 147.5 L 115.1 154.0 L 113.2 154.0 L 113.2 140.0 " fill="#000000"/>
<path class="atom-17" d="M 125.6 151.6 L 127.6 151.6 L 127.6 153.6 L 125.6 153.6 L 125.6 151.6 M 125.6 144.8 L 127.6 144.8 L 127.6 146.8 L 125.6 146.8 L 125.6 144.8 " fill="#000000"/>
<path class="atom-17" d="M 129.5 152.4 L 132.5 152.4 L 132.5 141.9 L 129.1 143.0 L 128.7 141.8 L 133.0 139.9 L 134.4 140.1 L 134.4 152.4 L 137.1 152.4 L 137.1 154.0 L 129.5 154.0 L 129.5 152.4 " fill="#000000"/>
<path class="atom-17" d="M 145.5 146.5 Q 146.8 147.1, 147.5 147.9 Q 148.2 148.7, 148.2 150.1 Q 148.2 151.3, 147.6 152.2 Q 147.0 153.1, 145.9 153.7 Q 144.8 154.2, 143.4 154.2 Q 141.0 154.2, 139.7 153.1 Q 138.4 152.0, 138.4 150.1 Q 138.4 149.0, 139.0 148.1 Q 139.5 147.3, 140.8 146.6 Q 139.9 146.1, 139.4 145.3 Q 138.9 144.6, 138.9 143.4 Q 138.9 141.7, 140.1 140.8 Q 141.3 139.8, 143.3 139.8 Q 145.3 139.8, 146.5 140.8 Q 147.7 141.7, 147.7 143.4 Q 147.7 144.4, 147.2 145.2 Q 146.6 145.9, 145.5 146.5 M 143.3 141.3 Q 142.1 141.3, 141.5 141.8 Q 140.8 142.4, 140.8 143.4 Q 140.8 144.1, 141.3 144.6 Q 141.7 145.1, 142.3 145.4 Q 143.0 145.6, 144.2 146.1 Q 145.0 145.5, 145.4 144.8 Q 145.8 144.2, 145.8 143.4 Q 145.8 142.4, 145.1 141.8 Q 144.5 141.3, 143.3 141.3 M 143.4 152.7 Q 144.7 152.7, 145.5 152.0 Q 146.3 151.3, 146.3 150.1 Q 146.3 149.4, 145.8 148.9 Q 145.4 148.4, 144.8 148.1 Q 144.2 147.9, 143.1 147.5 L 142.2 147.2 Q 141.2 147.8, 140.8 148.5 Q 140.3 149.2, 140.3 150.1 Q 140.3 151.3, 141.2 152.0 Q 142.0 152.7, 143.4 152.7 " fill="#000000"/>
<path class="atom-18" d="M 177.2 327.0 L 179.1 327.0 L 179.1 332.9 L 186.3 332.9 L 186.3 327.0 L 188.2 327.0 L 188.2 341.0 L 186.3 341.0 L 186.3 334.5 L 179.1 334.5 L 179.1 341.0 L 177.2 341.0 L 177.2 327.0 " fill="#000000"/>
<path class="atom-18" d="M 189.7 338.7 L 191.6 338.7 L 191.6 340.6 L 189.7 340.6 L 189.7 338.7 M 189.7 331.9 L 191.6 331.9 L 191.6 333.8 L 189.7 333.8 L 189.7 331.9 " fill="#000000"/>
<path class="atom-18" d="M 193.5 339.4 L 196.5 339.4 L 196.5 328.9 L 193.2 330.0 L 192.7 328.8 L 197.0 326.9 L 198.4 327.1 L 198.4 339.4 L 201.2 339.4 L 201.2 341.0 L 193.5 341.0 L 193.5 339.4 " fill="#000000"/>
<path class="atom-18" d="M 206.9 326.8 Q 209.4 326.8, 210.7 328.5 Q 211.9 330.2, 211.9 333.6 Q 211.9 337.3, 210.4 339.2 Q 208.8 341.1, 205.9 341.1 Q 205.0 341.1, 204.2 340.9 Q 203.5 340.7, 202.8 340.3 L 203.6 339.0 Q 204.6 339.5, 205.8 339.5 Q 207.8 339.5, 208.8 338.3 Q 209.8 337.0, 210.0 334.4 Q 209.2 335.0, 208.3 335.4 Q 207.4 335.7, 206.5 335.7 Q 205.2 335.7, 204.3 335.2 Q 203.3 334.6, 202.8 333.7 Q 202.2 332.7, 202.2 331.5 Q 202.2 330.1, 202.8 329.1 Q 203.4 328.0, 204.5 327.4 Q 205.6 326.8, 206.9 326.8 M 204.2 331.5 Q 204.2 332.7, 204.9 333.4 Q 205.6 334.1, 206.8 334.1 Q 207.7 334.1, 208.5 333.8 Q 209.4 333.4, 210.0 332.8 Q 209.9 330.5, 209.1 329.5 Q 208.4 328.4, 206.9 328.4 Q 206.2 328.4, 205.5 328.8 Q 204.9 329.2, 204.6 329.9 Q 204.2 330.6, 204.2 331.5 " fill="#000000"/>
<path class="atom-19" d="M 210.2 159.0 L 212.1 159.0 L 212.1 164.9 L 219.3 164.9 L 219.3 159.0 L 221.1 159.0 L 221.1 173.0 L 219.3 173.0 L 219.3 166.5 L 212.1 166.5 L 212.1 173.0 L 210.2 173.0 L 210.2 159.0 " fill="#000000"/>
<path class="atom-19" d="M 222.6 170.7 L 224.6 170.7 L 224.6 172.7 L 222.6 172.7 L 222.6 170.7 M 222.6 163.9 L 224.6 163.9 L 224.6 165.9 L 222.6 165.9 L 222.6 163.9 " fill="#000000"/>
<path class="atom-19" d="M 225.6 161.6 Q 226.1 160.3, 227.4 159.6 Q 228.6 158.8, 230.3 158.8 Q 232.4 158.8, 233.6 160.0 Q 234.8 161.1, 234.8 163.2 Q 234.8 165.2, 233.2 167.2 Q 231.7 169.1, 228.6 171.4 L 235.0 171.4 L 235.0 173.0 L 225.6 173.0 L 225.6 171.7 Q 228.2 169.8, 229.7 168.4 Q 231.3 167.0, 232.1 165.8 Q 232.8 164.5, 232.8 163.3 Q 232.8 161.9, 232.1 161.2 Q 231.5 160.4, 230.3 160.4 Q 229.2 160.4, 228.4 160.9 Q 227.7 161.3, 227.1 162.3 L 225.6 161.6 " fill="#000000"/>
<path class="atom-19" d="M 241.3 173.1 Q 238.8 173.1, 237.5 171.2 Q 236.2 169.4, 236.2 166.0 Q 236.2 162.6, 237.5 160.7 Q 238.8 158.8, 241.3 158.8 Q 243.9 158.8, 245.2 160.7 Q 246.5 162.6, 246.5 166.0 Q 246.5 169.4, 245.2 171.2 Q 243.9 173.1, 241.3 173.1 M 241.3 171.6 Q 242.9 171.6, 243.7 170.2 Q 244.5 168.7, 244.5 166.0 Q 244.5 163.2, 243.7 161.8 Q 242.9 160.4, 241.3 160.4 Q 239.8 160.4, 239.0 161.8 Q 238.2 163.2, 238.2 166.0 Q 238.2 168.7, 239.0 170.2 Q 239.8 171.6, 241.3 171.6 " fill="#000000"/>
<path class="atom-20" d="M 297.4 291.0 L 299.3 291.0 L 299.3 296.9 L 306.4 296.9 L 306.4 291.0 L 308.3 291.0 L 308.3 305.0 L 306.4 305.0 L 306.4 298.5 L 299.3 298.5 L 299.3 305.0 L 297.4 305.0 L 297.4 291.0 " fill="#000000"/>
<path class="atom-20" d="M 309.8 302.7 L 311.8 302.7 L 311.8 304.7 L 309.8 304.7 L 309.8 302.7 M 309.8 295.9 L 311.8 295.9 L 311.8 297.9 L 309.8 297.9 L 309.8 295.9 " fill="#000000"/>
<path class="atom-20" d="M 312.8 293.6 Q 313.3 292.3, 314.6 291.6 Q 315.8 290.8, 317.5 290.8 Q 319.6 290.8, 320.8 292.0 Q 322.0 293.1, 322.0 295.2 Q 322.0 297.2, 320.4 299.2 Q 318.9 301.1, 315.7 303.4 L 322.2 303.4 L 322.2 305.0 L 312.8 305.0 L 312.8 303.7 Q 315.4 301.8, 316.9 300.4 Q 318.5 299.0, 319.2 297.8 Q 320.0 296.6, 320.0 295.3 Q 320.0 293.9, 319.3 293.2 Q 318.6 292.4, 317.5 292.4 Q 316.4 292.4, 315.6 292.9 Q 314.9 293.3, 314.3 294.3 L 312.8 293.6 " fill="#000000"/>
<path class="atom-20" d="M 324.0 303.4 L 327.1 303.4 L 327.1 293.0 L 323.7 294.0 L 323.3 292.8 L 327.6 290.9 L 329.0 291.2 L 329.0 303.4 L 331.7 303.4 L 331.7 305.0 L 324.0 305.0 L 324.0 303.4 " fill="#000000"/>
<path class="atom-21" d="M 186.4 315.3 L 188.3 315.3 L 188.3 321.2 L 195.5 321.2 L 195.5 315.3 L 197.4 315.3 L 197.4 329.2 L 195.5 329.2 L 195.5 322.8 L 188.3 322.8 L 188.3 329.2 L 186.4 329.2 L 186.4 315.3 " fill="#000000"/>
<path class="atom-21" d="M 198.8 326.9 L 200.8 326.9 L 200.8 328.9 L 198.8 328.9 L 198.8 326.9 M 198.8 320.1 L 200.8 320.1 L 200.8 322.1 L 198.8 322.1 L 198.8 320.1 " fill="#000000"/>
<path class="atom-21" d="M 201.8 317.9 Q 202.4 316.6, 203.6 315.8 Q 204.8 315.1, 206.5 315.1 Q 208.6 315.1, 209.8 316.2 Q 211.0 317.4, 211.0 319.4 Q 211.0 321.5, 209.5 323.4 Q 207.9 325.4, 204.8 327.7 L 211.2 327.7 L 211.2 329.2 L 201.8 329.2 L 201.8 327.9 Q 204.4 326.1, 206.0 324.7 Q 207.5 323.3, 208.3 322.1 Q 209.0 320.8, 209.0 319.5 Q 209.0 318.2, 208.3 317.4 Q 207.7 316.7, 206.5 316.7 Q 205.4 316.7, 204.6 317.1 Q 203.9 317.6, 203.3 318.6 L 201.8 317.9 " fill="#000000"/>
<path class="atom-21" d="M 212.3 317.9 Q 212.8 316.6, 214.0 315.8 Q 215.2 315.1, 216.9 315.1 Q 219.0 315.1, 220.2 316.2 Q 221.4 317.4, 221.4 319.4 Q 221.4 321.5, 219.9 323.4 Q 218.4 325.4, 215.2 327.7 L 221.7 327.7 L 221.7 329.2 L 212.2 329.2 L 212.2 327.9 Q 214.8 326.1, 216.4 324.7 Q 217.9 323.3, 218.7 322.1 Q 219.4 320.8, 219.4 319.5 Q 219.4 318.2, 218.8 317.4 Q 218.1 316.7, 216.9 316.7 Q 215.8 316.7, 215.0 317.1 Q 214.3 317.6, 213.8 318.6 L 212.3 317.9 " fill="#000000"/>
<path class="atom-22" d="M 274.2 346.0 L 276.1 346.0 L 276.1 352.0 L 283.3 352.0 L 283.3 346.0 L 285.2 346.0 L 285.2 360.0 L 283.3 360.0 L 283.3 353.5 L 276.1 353.5 L 276.1 360.0 L 274.2 360.0 L 274.2 346.0 " fill="#000000"/>
<path class="atom-22" d="M 286.7 357.7 L 288.6 357.7 L 288.6 359.7 L 286.7 359.7 L 286.7 357.7 M 286.7 350.9 L 288.6 350.9 L 288.6 352.9 L 286.7 352.9 L 286.7 350.9 " fill="#000000"/>
<path class="atom-22" d="M 289.7 348.6 Q 290.2 347.3, 291.4 346.6 Q 292.6 345.8, 294.3 345.8 Q 296.4 345.8, 297.6 347.0 Q 298.8 348.1, 298.8 350.2 Q 298.8 352.2, 297.3 354.2 Q 295.7 356.1, 292.6 358.4 L 299.0 358.4 L 299.0 360.0 L 289.6 360.0 L 289.6 358.7 Q 292.2 356.8, 293.8 355.4 Q 295.3 354.0, 296.1 352.8 Q 296.8 351.6, 296.8 350.3 Q 296.8 348.9, 296.2 348.2 Q 295.5 347.4, 294.3 347.4 Q 293.2 347.4, 292.4 347.9 Q 291.7 348.3, 291.2 349.3 L 289.7 348.6 " fill="#000000"/>
<path class="atom-22" d="M 306.6 352.6 Q 308.0 353.0, 308.6 353.9 Q 309.3 354.8, 309.3 356.2 Q 309.3 357.3, 308.7 358.3 Q 308.1 359.2, 307.0 359.7 Q 305.9 360.2, 304.5 360.2 Q 303.0 360.2, 301.9 359.7 Q 300.8 359.1, 299.9 358.1 L 301.0 356.9 Q 301.9 357.9, 302.6 358.3 Q 303.3 358.6, 304.5 358.6 Q 305.8 358.6, 306.5 357.9 Q 307.3 357.2, 307.3 356.1 Q 307.3 354.7, 306.5 354.1 Q 305.7 353.4, 304.0 353.4 L 303.0 353.4 L 303.0 352.0 L 303.9 352.0 Q 305.4 352.0, 306.2 351.3 Q 307.0 350.7, 307.0 349.4 Q 307.0 348.5, 306.3 348.0 Q 305.7 347.4, 304.5 347.4 Q 303.4 347.4, 302.6 347.8 Q 301.9 348.3, 301.4 349.3 L 300.0 348.6 Q 300.5 347.4, 301.7 346.6 Q 302.9 345.8, 304.5 345.8 Q 306.6 345.8, 307.8 346.8 Q 309.0 347.8, 309.0 349.4 Q 309.0 350.5, 308.4 351.4 Q 307.8 352.2, 306.6 352.6 " fill="#000000"/>
<path class="atom-23" d="M 434.4 265.0 L 436.3 265.0 L 436.3 271.0 L 443.5 271.0 L 443.5 265.0 L 445.4 265.0 L 445.4 279.0 L 443.5 279.0 L 443.5 272.6 L 436.3 272.6 L 436.3 279.0 L 434.4 279.0 L 434.4 265.0 " fill="#000000"/>
<path class="atom-23" d="M 446.9 276.7 L 448.8 276.7 L 448.8 278.7 L 446.9 278.7 L 446.9 276.7 M 446.9 269.9 L 448.8 269.9 L 448.8 271.9 L 446.9 271.9 L 446.9 269.9 " fill="#000000"/>
<path class="atom-23" d="M 449.9 267.7 Q 450.4 266.4, 451.6 265.6 Q 452.8 264.9, 454.5 264.9 Q 456.6 264.9, 457.8 266.0 Q 459.0 267.2, 459.0 269.2 Q 459.0 271.3, 457.5 273.2 Q 456.0 275.2, 452.8 277.4 L 459.3 277.4 L 459.3 279.0 L 449.8 279.0 L 449.8 277.7 Q 452.4 275.8, 454.0 274.5 Q 455.5 273.1, 456.3 271.8 Q 457.0 270.6, 457.0 269.3 Q 457.0 268.0, 456.4 267.2 Q 455.7 266.5, 454.5 266.5 Q 453.4 266.5, 452.7 266.9 Q 451.9 267.4, 451.4 268.4 L 449.9 267.7 " fill="#000000"/>
<path class="atom-23" d="M 468.9 274.2 L 470.6 274.2 L 470.6 275.8 L 468.9 275.8 L 468.9 279.0 L 467.1 279.0 L 467.1 275.8 L 459.9 275.8 L 459.9 274.6 L 466.0 265.0 L 468.9 265.0 L 468.9 274.2 M 462.1 274.2 L 467.1 274.2 L 467.1 266.3 L 462.1 274.2 " fill="#000000"/>
<path class="atom-24" d="M 315.9 297.0 L 317.8 297.0 L 317.8 303.0 L 325.0 303.0 L 325.0 297.0 L 326.9 297.0 L 326.9 311.0 L 325.0 311.0 L 325.0 304.6 L 317.8 304.6 L 317.8 311.0 L 315.9 311.0 L 315.9 297.0 " fill="#000000"/>
<path class="atom-24" d="M 328.4 308.7 L 330.3 308.7 L 330.3 310.7 L 328.4 310.7 L 328.4 308.7 M 328.4 301.9 L 330.3 301.9 L 330.3 303.9 L 328.4 303.9 L 328.4 301.9 " fill="#000000"/>
<path class="atom-24" d="M 331.4 299.7 Q 331.9 298.4, 333.1 297.6 Q 334.3 296.9, 336.0 296.9 Q 338.2 296.9, 339.3 298.0 Q 340.5 299.2, 340.5 301.2 Q 340.5 303.3, 339.0 305.2 Q 337.5 307.2, 334.3 309.5 L 340.8 309.5 L 340.8 311.0 L 331.3 311.0 L 331.3 309.7 Q 333.9 307.9, 335.5 306.5 Q 337.0 305.1, 337.8 303.8 Q 338.5 302.6, 338.5 301.3 Q 338.5 300.0, 337.9 299.2 Q 337.2 298.5, 336.0 298.5 Q 334.9 298.5, 334.2 298.9 Q 333.4 299.4, 332.9 300.4 L 331.4 299.7 " fill="#000000"/>
<path class="atom-24" d="M 346.8 302.3 Q 348.0 302.3, 349.0 302.8 Q 350.0 303.3, 350.6 304.3 Q 351.1 305.3, 351.1 306.6 Q 351.1 308.1, 350.4 309.1 Q 349.7 310.1, 348.6 310.7 Q 347.4 311.2, 346.1 311.2 Q 344.9 311.2, 343.7 310.7 Q 342.5 310.3, 341.7 309.3 L 342.9 308.1 Q 343.5 308.8, 344.4 309.2 Q 345.3 309.6, 346.2 309.6 Q 347.4 309.6, 348.3 308.8 Q 349.2 308.1, 349.2 306.7 Q 349.2 305.2, 348.3 304.5 Q 347.4 303.8, 346.1 303.8 Q 344.9 303.8, 343.5 304.3 L 342.4 303.8 L 343.1 297.0 L 350.3 297.0 L 350.1 298.6 L 344.7 298.6 L 344.3 302.8 Q 345.5 302.3, 346.8 302.3 " fill="#000000"/>
<path class="atom-25" d="M 441.4 229.5 L 443.3 229.5 L 443.3 235.5 L 450.5 235.5 L 450.5 229.5 L 452.3 229.5 L 452.3 243.5 L 450.5 243.5 L 450.5 237.1 L 443.3 237.1 L 443.3 243.5 L 441.4 243.5 L 441.4 229.5 " fill="#000000"/>
<path class="atom-25" d="M 453.8 241.2 L 455.8 241.2 L 455.8 243.2 L 453.8 243.2 L 453.8 241.2 M 453.8 234.4 L 455.8 234.4 L 455.8 236.4 L 453.8 236.4 L 453.8 234.4 " fill="#000000"/>
<path class="atom-25" d="M 456.8 232.2 Q 457.3 230.9, 458.6 230.1 Q 459.8 229.4, 461.5 229.4 Q 463.6 229.4, 464.8 230.5 Q 466.0 231.7, 466.0 233.7 Q 466.0 235.8, 464.4 237.7 Q 462.9 239.7, 459.8 242.0 L 466.2 242.0 L 466.2 243.5 L 456.8 243.5 L 456.8 242.2 Q 459.4 240.4, 460.9 239.0 Q 462.5 237.6, 463.3 236.3 Q 464.0 235.1, 464.0 233.8 Q 464.0 232.5, 463.3 231.7 Q 462.7 231.0, 461.5 231.0 Q 460.4 231.0, 459.6 231.4 Q 458.9 231.9, 458.3 232.9 L 456.8 232.2 " fill="#000000"/>
<path class="atom-25" d="M 473.0 234.8 Q 474.3 234.8, 475.2 235.3 Q 476.2 235.9, 476.7 236.8 Q 477.3 237.8, 477.3 239.0 Q 477.3 240.4, 476.7 241.5 Q 476.1 242.5, 475.0 243.1 Q 473.9 243.7, 472.6 243.7 Q 470.1 243.7, 468.8 242.0 Q 467.6 240.3, 467.6 237.0 Q 467.6 233.2, 469.1 231.3 Q 470.7 229.4, 473.7 229.4 Q 474.5 229.4, 475.3 229.6 Q 476.0 229.8, 476.7 230.2 L 475.9 231.5 Q 474.9 231.0, 473.7 231.0 Q 471.7 231.0, 470.7 232.2 Q 469.7 233.5, 469.6 236.1 Q 470.3 235.5, 471.2 235.2 Q 472.1 234.8, 473.0 234.8 M 472.6 242.1 Q 473.3 242.1, 474.0 241.7 Q 474.6 241.3, 474.9 240.6 Q 475.3 239.9, 475.3 239.0 Q 475.3 237.8, 474.6 237.1 Q 473.9 236.4, 472.7 236.4 Q 471.8 236.4, 471.0 236.7 Q 470.2 237.1, 469.6 237.7 Q 469.6 240.0, 470.4 241.0 Q 471.1 242.1, 472.6 242.1 " fill="#000000"/>
<path class="atom-26" d="M 342.6 164.6 L 344.5 164.6 L 344.5 170.5 L 351.6 170.5 L 351.6 164.6 L 353.5 164.6 L 353.5 178.6 L 351.6 178.6 L 351.6 172.1 L 344.5 172.1 L 344.5 178.6 L 342.6 178.6 L 342.6 164.6 " fill="#000000"/>
<path class="atom-26" d="M 355.0 176.2 L 357.0 176.2 L 357.0 178.2 L 355.0 178.2 L 355.0 176.2 M 355.0 169.4 L 357.0 169.4 L 357.0 171.4 L 355.0 171.4 L 355.0 169.4 " fill="#000000"/>
<path class="atom-26" d="M 358.0 167.2 Q 358.5 165.9, 359.7 165.2 Q 361.0 164.4, 362.7 164.4 Q 364.8 164.4, 366.0 165.6 Q 367.2 166.7, 367.2 168.7 Q 367.2 170.8, 365.6 172.8 Q 364.1 174.7, 360.9 177.0 L 367.4 177.0 L 367.4 178.6 L 358.0 178.6 L 358.0 177.2 Q 360.6 175.4, 362.1 174.0 Q 363.7 172.6, 364.4 171.4 Q 365.2 170.1, 365.2 168.8 Q 365.2 167.5, 364.5 166.7 Q 363.8 166.0, 362.7 166.0 Q 361.5 166.0, 360.8 166.4 Q 360.0 166.9, 359.5 167.9 L 358.0 167.2 " fill="#000000"/>
<path class="atom-26" d="M 375.1 166.1 L 367.8 166.1 L 367.8 164.6 L 377.0 164.6 L 377.0 166.0 L 371.4 178.6 L 369.5 178.6 L 375.1 166.1 " fill="#000000"/>
<path class="atom-27" d="M 22.7 214.4 L 24.6 214.4 L 24.6 220.4 L 31.8 220.4 L 31.8 214.4 L 33.7 214.4 L 33.7 228.4 L 31.8 228.4 L 31.8 222.0 L 24.6 222.0 L 24.6 228.4 L 22.7 228.4 L 22.7 214.4 " fill="#000000"/>
<path class="atom-27" d="M 35.2 226.1 L 37.1 226.1 L 37.1 228.1 L 35.2 228.1 L 35.2 226.1 M 35.2 219.3 L 37.1 219.3 L 37.1 221.3 L 35.2 221.3 L 35.2 219.3 " fill="#000000"/>
<path class="atom-27" d="M 38.2 217.1 Q 38.7 215.8, 39.9 215.0 Q 41.1 214.3, 42.8 214.3 Q 44.9 214.3, 46.1 215.4 Q 47.3 216.6, 47.3 218.6 Q 47.3 220.7, 45.8 222.6 Q 44.3 224.6, 41.1 226.9 L 47.6 226.9 L 47.6 228.4 L 38.1 228.4 L 38.1 227.1 Q 40.7 225.3, 42.3 223.9 Q 43.8 222.5, 44.6 221.2 Q 45.3 220.0, 45.3 218.7 Q 45.3 217.4, 44.7 216.6 Q 44.0 215.9, 42.8 215.9 Q 41.7 215.9, 41.0 216.3 Q 40.2 216.8, 39.7 217.8 L 38.2 217.1 " fill="#000000"/>
<path class="atom-27" d="M 55.9 221.0 Q 57.2 221.6, 57.9 222.4 Q 58.7 223.2, 58.7 224.6 Q 58.7 225.8, 58.0 226.7 Q 57.4 227.6, 56.3 228.1 Q 55.2 228.6, 53.8 228.6 Q 51.5 228.6, 50.1 227.6 Q 48.8 226.5, 48.8 224.6 Q 48.8 223.5, 49.4 222.6 Q 50.0 221.7, 51.2 221.1 Q 50.3 220.6, 49.8 219.8 Q 49.3 219.0, 49.3 217.9 Q 49.3 216.2, 50.5 215.2 Q 51.7 214.3, 53.7 214.3 Q 55.8 214.3, 56.9 215.2 Q 58.1 216.2, 58.1 217.9 Q 58.1 218.9, 57.6 219.7 Q 57.0 220.4, 55.9 221.0 M 53.7 215.8 Q 52.6 215.8, 51.9 216.3 Q 51.3 216.9, 51.3 217.9 Q 51.3 218.6, 51.7 219.1 Q 52.1 219.6, 52.8 219.8 Q 53.4 220.1, 54.6 220.5 Q 55.4 219.9, 55.8 219.3 Q 56.2 218.7, 56.2 217.9 Q 56.2 216.9, 55.5 216.3 Q 54.9 215.8, 53.7 215.8 M 53.8 227.1 Q 55.1 227.1, 55.9 226.5 Q 56.7 225.7, 56.7 224.6 Q 56.7 223.8, 56.3 223.4 Q 55.9 222.9, 55.2 222.6 Q 54.6 222.3, 53.5 222.0 L 52.6 221.7 Q 51.6 222.3, 51.2 223.0 Q 50.8 223.7, 50.8 224.6 Q 50.8 225.7, 51.6 226.5 Q 52.4 227.1, 53.8 227.1 " fill="#000000"/>
<path class="atom-28" d="M 403.7 327.8 L 405.6 327.8 L 405.6 333.7 L 412.7 333.7 L 412.7 327.8 L 414.6 327.8 L 414.6 341.8 L 412.7 341.8 L 412.7 335.3 L 405.6 335.3 L 405.6 341.8 L 403.7 341.8 L 403.7 327.8 " fill="#000000"/>
<path class="atom-28" d="M 416.1 339.5 L 418.1 339.5 L 418.1 341.5 L 416.1 341.5 L 416.1 339.5 M 416.1 332.7 L 418.1 332.7 L 418.1 334.7 L 416.1 334.7 L 416.1 332.7 " fill="#000000"/>
<path class="atom-28" d="M 419.1 330.4 Q 419.6 329.1, 420.9 328.4 Q 422.1 327.6, 423.8 327.6 Q 425.9 327.6, 427.1 328.8 Q 428.3 329.9, 428.3 332.0 Q 428.3 334.0, 426.7 336.0 Q 425.2 337.9, 422.0 340.2 L 428.5 340.2 L 428.5 341.8 L 419.1 341.8 L 419.1 340.5 Q 421.7 338.6, 423.2 337.2 Q 424.8 335.8, 425.5 334.6 Q 426.3 333.3, 426.3 332.1 Q 426.3 330.7, 425.6 330.0 Q 425.0 329.2, 423.8 329.2 Q 422.7 329.2, 421.9 329.7 Q 421.2 330.1, 420.6 331.1 L 419.1 330.4 " fill="#000000"/>
<path class="atom-28" d="M 434.3 327.6 Q 436.8 327.6, 438.0 329.3 Q 439.3 331.0, 439.3 334.4 Q 439.3 338.1, 437.7 340.0 Q 436.2 341.9, 433.2 341.9 Q 432.3 341.9, 431.6 341.7 Q 430.9 341.5, 430.2 341.1 L 430.9 339.8 Q 432.0 340.4, 433.2 340.4 Q 435.2 340.4, 436.2 339.1 Q 437.2 337.8, 437.3 335.2 Q 436.6 335.8, 435.7 336.2 Q 434.8 336.5, 433.8 336.5 Q 432.6 336.5, 431.6 336.0 Q 430.7 335.5, 430.1 334.5 Q 429.6 333.5, 429.6 332.3 Q 429.6 330.9, 430.2 329.9 Q 430.8 328.8, 431.9 328.2 Q 432.9 327.6, 434.3 327.6 M 431.6 332.3 Q 431.6 333.5, 432.3 334.2 Q 433.0 334.9, 434.2 334.9 Q 435.0 334.9, 435.9 334.6 Q 436.7 334.3, 437.3 333.7 Q 437.2 331.4, 436.5 330.3 Q 435.8 329.3, 434.3 329.3 Q 433.5 329.3, 432.9 329.7 Q 432.3 330.0, 431.9 330.7 Q 431.6 331.4, 431.6 332.3 " fill="#000000"/>
<path class="atom-29" d="M 436.6 159.8 L 438.5 159.8 L 438.5 165.8 L 445.7 165.8 L 445.7 159.8 L 447.6 159.8 L 447.6 173.8 L 445.7 173.8 L 445.7 167.3 L 438.5 167.3 L 438.5 173.8 L 436.6 173.8 L 436.6 159.8 " fill="#000000"/>
<path class="atom-29" d="M 449.1 171.5 L 451.1 171.5 L 451.1 173.5 L 449.1 173.5 L 449.1 171.5 M 449.1 164.7 L 451.1 164.7 L 451.1 166.7 L 449.1 166.7 L 449.1 164.7 " fill="#000000"/>
<path class="atom-29" d="M 458.6 166.4 Q 460.0 166.8, 460.6 167.7 Q 461.3 168.6, 461.3 170.0 Q 461.3 171.2, 460.7 172.1 Q 460.1 173.0, 459.0 173.5 Q 457.9 174.0, 456.5 174.0 Q 455.0 174.0, 453.9 173.5 Q 452.8 173.0, 451.9 171.9 L 453.0 170.7 Q 453.9 171.7, 454.6 172.1 Q 455.3 172.4, 456.5 172.4 Q 457.8 172.4, 458.5 171.8 Q 459.3 171.1, 459.3 170.0 Q 459.3 168.5, 458.5 167.9 Q 457.7 167.2, 456.0 167.2 L 455.0 167.2 L 455.0 165.8 L 455.9 165.8 Q 457.4 165.8, 458.2 165.2 Q 459.0 164.5, 459.0 163.2 Q 459.0 162.3, 458.3 161.8 Q 457.7 161.2, 456.5 161.2 Q 455.4 161.2, 454.6 161.7 Q 453.9 162.1, 453.4 163.1 L 452.0 162.4 Q 452.5 161.2, 453.7 160.4 Q 454.9 159.7, 456.5 159.7 Q 458.6 159.7, 459.8 160.6 Q 461.0 161.6, 461.0 163.2 Q 461.0 164.4, 460.4 165.2 Q 459.8 166.0, 458.6 166.4 " fill="#000000"/>
<path class="atom-29" d="M 467.6 174.0 Q 465.0 174.0, 463.8 172.1 Q 462.5 170.2, 462.5 166.8 Q 462.5 163.4, 463.8 161.5 Q 465.0 159.7, 467.6 159.7 Q 470.2 159.7, 471.5 161.5 Q 472.7 163.4, 472.7 166.8 Q 472.7 170.2, 471.5 172.1 Q 470.2 174.0, 467.6 174.0 M 467.6 172.4 Q 469.1 172.4, 470.0 171.0 Q 470.8 169.6, 470.8 166.8 Q 470.8 164.0, 470.0 162.6 Q 469.1 161.2, 467.6 161.2 Q 466.1 161.2, 465.3 162.6 Q 464.5 164.0, 464.5 166.8 Q 464.5 169.6, 465.3 171.0 Q 466.1 172.4, 467.6 172.4 " fill="#000000"/>
<text x="304.4141328972369" y="226.93604215440524" font-size="12" font-family="Verdana" font-weight="bold" letter-spacing="0" text-anchor="start" fill="black" transform=" rotate(-78.898819 304.414133 226.936042)">0.0055</text><text x="25" y="490" font-size="12" font-family="Verdana" font-weight="bold" letter-spacing="0" text-anchor="start" fill="black">[#7:1](-[#6:2](-[#6:3](-[#7:4](-[#6:15](-[H:24])(-[H:25])-[H:29])-[#6:16](-[H:26])(-[H:27])-[H:30])(-[H:6])-[H:7])=[#8:5])(-[#6:8]1:[#6:12](:[#6:10](:[#6:9](:[#6:11](:[#6:13]:1-[H:20])-[H:18])-[H:28])-[H:17])-[H:19])-[#6:14](-[H:21])(-[H:22])-[H:23]</text></svg>
