<?xml version='1.0' encoding='ASCII' standalone='yes'?>
<svg xmlns="http://www.w3.org/2000/svg" xmlns:rdkit="http://www.rdkit.org/xml" xmlns:xlink="http://www.w3.org/1999/xlink" version="1.1" baseProfile="full" xml:space="preserve" width="500px" height="500px" viewBox="0 0 500 500">
<!-- END OF HEADER -->
<rect style="opacity:1.0;fill:#FFFFFF;stroke:none" width="500.0" height="500.0" x="0.0" y="0.0"> </rect>
<path class="bond-3 atom-1 atom-2" d="M 280.1,221.2 L 328.5,230.7" style="fill:none;fill-rule:evenodd;stroke:#FF7F7F;stroke-width:10.5px;stroke-linecap:butt;stroke-linejoin:miter;stroke-opacity:1"/>
<path class="bond-0 atom-0 atom-7" d="M 234.1,255.7 L 223.8,253.6" style="fill:none;fill-rule:evenodd;stroke:#0000FF;stroke-width:2.0px;stroke-linecap:butt;stroke-linejoin:miter;stroke-opacity:1"/>
<path class="bond-0 atom-0 atom-7" d="M 223.8,253.6 L 213.4,251.6" style="fill:none;fill-rule:evenodd;stroke:#000000;stroke-width:2.0px;stroke-linecap:butt;stroke-linejoin:miter;stroke-opacity:1"/>
<path class="bond-1 atom-0 atom-1" d="M 255.3,249.7 L 263.9,239.9" style="fill:none;fill-rule:evenodd;stroke:#0000FF;stroke-width:2.0px;stroke-linecap:butt;stroke-linejoin:miter;stroke-opacity:1"/>
<path class="bond-1 atom-0 atom-1" d="M 263.9,239.9 L 272.4,230.1" style="fill:none;fill-rule:evenodd;stroke:#000000;stroke-width:2.0px;stroke-linecap:butt;stroke-linejoin:miter;stroke-opacity:1"/>
<path class="bond-2 atom-0 atom-13" d="M 251.5,269.2 L 256.1,282.8" style="fill:none;fill-rule:evenodd;stroke:#0000FF;stroke-width:2.0px;stroke-linecap:butt;stroke-linejoin:miter;stroke-opacity:1"/>
<path class="bond-2 atom-0 atom-13" d="M 256.1,282.8 L 260.7,296.3" style="fill:none;fill-rule:evenodd;stroke:#000000;stroke-width:2.0px;stroke-linecap:butt;stroke-linejoin:miter;stroke-opacity:1"/>
<path class="bond-3 atom-1 atom-2" d="M 294.0,223.9 L 307.2,226.5" style="fill:none;fill-rule:evenodd;stroke:#000000;stroke-width:2.0px;stroke-linecap:butt;stroke-linejoin:miter;stroke-opacity:1"/>
<path class="bond-4 atom-1 atom-4" d="M 272.5,214.1 L 267.5,199.6" style="fill:none;fill-rule:evenodd;stroke:#000000;stroke-width:2.0px;stroke-linecap:butt;stroke-linejoin:miter;stroke-opacity:1"/>
<path class="bond-4 atom-1 atom-4" d="M 267.5,199.6 L 262.6,185.1" style="fill:none;fill-rule:evenodd;stroke:#FF0000;stroke-width:2.0px;stroke-linecap:butt;stroke-linejoin:miter;stroke-opacity:1"/>
<path class="bond-4 atom-1 atom-4" d="M 281.8,211.0 L 276.9,196.4" style="fill:none;fill-rule:evenodd;stroke:#000000;stroke-width:2.0px;stroke-linecap:butt;stroke-linejoin:miter;stroke-opacity:1"/>
<path class="bond-4 atom-1 atom-4" d="M 276.9,196.4 L 271.9,181.9" style="fill:none;fill-rule:evenodd;stroke:#FF0000;stroke-width:2.0px;stroke-linecap:butt;stroke-linejoin:miter;stroke-opacity:1"/>
<path class="bond-5 atom-2 atom-5" d="M 327.9,239.6 L 326.3,262.0" style="fill:none;fill-rule:evenodd;stroke:#000000;stroke-width:2.0px;stroke-linecap:butt;stroke-linejoin:miter;stroke-opacity:1"/>
<path class="bond-6 atom-2 atom-6" d="M 330.2,222.0 L 336.3,190.9" style="fill:none;fill-rule:evenodd;stroke:#000000;stroke-width:2.0px;stroke-linecap:butt;stroke-linejoin:miter;stroke-opacity:1"/>
<path class="bond-7 atom-3 atom-2" d="M 362.1,237.3 L 348.4,234.6" style="fill:none;fill-rule:evenodd;stroke:#0000FF;stroke-width:2.0px;stroke-linecap:butt;stroke-linejoin:miter;stroke-opacity:1"/>
<path class="bond-7 atom-3 atom-2" d="M 348.4,234.6 L 334.8,231.9" style="fill:none;fill-rule:evenodd;stroke:#000000;stroke-width:2.0px;stroke-linecap:butt;stroke-linejoin:miter;stroke-opacity:1"/>
<path class="bond-8 atom-3 atom-14" d="M 379.8,248.8 L 384.9,263.5" style="fill:none;fill-rule:evenodd;stroke:#0000FF;stroke-width:2.0px;stroke-linecap:butt;stroke-linejoin:miter;stroke-opacity:1"/>
<path class="bond-8 atom-3 atom-14" d="M 384.9,263.5 L 389.9,278.2" style="fill:none;fill-rule:evenodd;stroke:#000000;stroke-width:2.0px;stroke-linecap:butt;stroke-linejoin:miter;stroke-opacity:1"/>
<path class="bond-9 atom-3 atom-15" d="M 384.4,231.6 L 393.0,221.8" style="fill:none;fill-rule:evenodd;stroke:#0000FF;stroke-width:2.0px;stroke-linecap:butt;stroke-linejoin:miter;stroke-opacity:1"/>
<path class="bond-9 atom-3 atom-15" d="M 393.0,221.8 L 401.6,211.9" style="fill:none;fill-rule:evenodd;stroke:#000000;stroke-width:2.0px;stroke-linecap:butt;stroke-linejoin:miter;stroke-opacity:1"/>
<path class="bond-10 atom-8 atom-9" d="M 105.7,238.7 L 115.7,267.9" style="fill:none;fill-rule:evenodd;stroke:#000000;stroke-width:2.0px;stroke-linecap:butt;stroke-linejoin:miter;stroke-opacity:1"/>
<path class="bond-10 atom-8 atom-9" d="M 116.5,239.9 L 123.5,260.4" style="fill:none;fill-rule:evenodd;stroke:#000000;stroke-width:2.0px;stroke-linecap:butt;stroke-linejoin:miter;stroke-opacity:1"/>
<path class="bond-11 atom-8 atom-10" d="M 110.2,221.2 L 127.3,201.6" style="fill:none;fill-rule:evenodd;stroke:#000000;stroke-width:2.0px;stroke-linecap:butt;stroke-linejoin:miter;stroke-opacity:1"/>
<path class="bond-12 atom-8 atom-27" d="M 88.7,227.2 L 60.8,221.7" style="fill:none;fill-rule:evenodd;stroke:#000000;stroke-width:2.0px;stroke-linecap:butt;stroke-linejoin:miter;stroke-opacity:1"/>
<path class="bond-13 atom-9 atom-11" d="M 137.5,280.2 L 148.6,282.4" style="fill:none;fill-rule:evenodd;stroke:#000000;stroke-width:2.0px;stroke-linecap:butt;stroke-linejoin:miter;stroke-opacity:1"/>
<path class="bond-14 atom-9 atom-16" d="M 110.9,285.4 L 92.5,306.5" style="fill:none;fill-rule:evenodd;stroke:#000000;stroke-width:2.0px;stroke-linecap:butt;stroke-linejoin:miter;stroke-opacity:1"/>
<path class="bond-15 atom-10 atom-12" d="M 153.0,196.3 L 165.0,198.6" style="fill:none;fill-rule:evenodd;stroke:#000000;stroke-width:2.0px;stroke-linecap:butt;stroke-linejoin:miter;stroke-opacity:1"/>
<path class="bond-15 atom-10 atom-12" d="M 152.9,206.3 L 161.3,207.9" style="fill:none;fill-rule:evenodd;stroke:#000000;stroke-width:2.0px;stroke-linecap:butt;stroke-linejoin:miter;stroke-opacity:1"/>
<path class="bond-16 atom-10 atom-17" d="M 132.1,184.2 L 122.1,154.8" style="fill:none;fill-rule:evenodd;stroke:#000000;stroke-width:2.0px;stroke-linecap:butt;stroke-linejoin:miter;stroke-opacity:1"/>
<path class="bond-17 atom-11 atom-7" d="M 174.5,277.3 L 191.7,257.7" style="fill:none;fill-rule:evenodd;stroke:#000000;stroke-width:2.0px;stroke-linecap:butt;stroke-linejoin:miter;stroke-opacity:1"/>
<path class="bond-17 atom-11 atom-7" d="M 169.7,267.9 L 181.7,254.2" style="fill:none;fill-rule:evenodd;stroke:#000000;stroke-width:2.0px;stroke-linecap:butt;stroke-linejoin:miter;stroke-opacity:1"/>
<path class="bond-18 atom-11 atom-18" d="M 169.9,294.7 L 180.0,324.1" style="fill:none;fill-rule:evenodd;stroke:#000000;stroke-width:2.0px;stroke-linecap:butt;stroke-linejoin:miter;stroke-opacity:1"/>
<path class="bond-19 atom-12 atom-7" d="M 186.4,210.9 L 196.4,240.2" style="fill:none;fill-rule:evenodd;stroke:#000000;stroke-width:2.0px;stroke-linecap:butt;stroke-linejoin:miter;stroke-opacity:1"/>
<path class="bond-20 atom-12 atom-19" d="M 191.0,193.6 L 208.8,173.2" style="fill:none;fill-rule:evenodd;stroke:#000000;stroke-width:2.0px;stroke-linecap:butt;stroke-linejoin:miter;stroke-opacity:1"/>
<path class="bond-21 atom-13 atom-20" d="M 294.9,298.4 L 295.7,298.2" style="fill:none;fill-rule:evenodd;stroke:#000000;stroke-width:2.0px;stroke-linecap:butt;stroke-linejoin:miter;stroke-opacity:1"/>
<path class="bond-22 atom-13 atom-21" d="M 256.7,307.4 L 223.4,318.8" style="fill:none;fill-rule:evenodd;stroke:#000000;stroke-width:2.0px;stroke-linecap:butt;stroke-linejoin:miter;stroke-opacity:1"/>
<path class="bond-23 atom-13 atom-22" d="M 266.7,313.8 L 276.8,343.1" style="fill:none;fill-rule:evenodd;stroke:#000000;stroke-width:2.0px;stroke-linecap:butt;stroke-linejoin:miter;stroke-opacity:1"/>
<path class="bond-24 atom-14 atom-23" d="M 411.3,280.5 L 432.4,273.3" style="fill:none;fill-rule:evenodd;stroke:#000000;stroke-width:2.0px;stroke-linecap:butt;stroke-linejoin:miter;stroke-opacity:1"/>
<path class="bond-25 atom-14 atom-24" d="M 374.4,293.1 L 352.5,300.6" style="fill:none;fill-rule:evenodd;stroke:#000000;stroke-width:2.0px;stroke-linecap:butt;stroke-linejoin:miter;stroke-opacity:1"/>
<path class="bond-26 atom-14 atom-28" d="M 395.8,295.5 L 405.9,324.9" style="fill:none;fill-rule:evenodd;stroke:#000000;stroke-width:2.0px;stroke-linecap:butt;stroke-linejoin:miter;stroke-opacity:1"/>
<path class="bond-27 atom-15 atom-25" d="M 419.4,211.9 L 439.4,229.3" style="fill:none;fill-rule:evenodd;stroke:#000000;stroke-width:2.0px;stroke-linecap:butt;stroke-linejoin:miter;stroke-opacity:1"/>
<path class="bond-28 atom-15 atom-26" d="M 399.3,194.4 L 378.4,176.1" style="fill:none;fill-rule:evenodd;stroke:#000000;stroke-width:2.0px;stroke-linecap:butt;stroke-linejoin:miter;stroke-opacity:1"/>
<path class="bond-29 atom-15 atom-29" d="M 416.8,194.4 L 434.6,174.0" style="fill:none;fill-rule:evenodd;stroke:#000000;stroke-width:2.0px;stroke-linecap:butt;stroke-linejoin:miter;stroke-opacity:1"/>
<path class="atom-0" d="M 237.9 251.4 L 242.5 258.8 Q 242.9 259.5, 243.7 260.9 Q 244.4 262.2, 244.4 262.3 L 244.4 251.4 L 246.3 251.4 L 246.3 265.4 L 244.4 265.4 L 239.5 257.3 Q 238.9 256.3, 238.3 255.3 Q 237.7 254.2, 237.5 253.8 L 237.5 265.4 L 235.7 265.4 L 235.7 251.4 L 237.9 251.4 " fill="#0000FF"/>
<path class="atom-0" d="M 247.9 263.1 L 249.9 263.1 L 249.9 265.0 L 247.9 265.0 L 247.9 263.1 M 247.9 256.3 L 249.9 256.3 L 249.9 258.3 L 247.9 258.3 L 247.9 256.3 " fill="#0000FF"/>
<path class="atom-0" d="M 252.1 263.8 L 255.2 263.8 L 255.2 253.4 L 251.8 254.4 L 251.4 253.3 L 255.7 251.3 L 257.1 251.6 L 257.1 263.8 L 259.8 263.8 L 259.8 265.4 L 252.1 265.4 L 252.1 263.8 " fill="#0000FF"/>
<path class="atom-1" d="M 267.9 221.3 Q 267.9 217.8, 269.6 216.0 Q 271.2 214.2, 274.3 214.2 Q 277.2 214.2, 278.7 216.2 L 277.4 217.3 Q 276.3 215.8, 274.3 215.8 Q 272.2 215.8, 271.1 217.2 Q 270.0 218.6, 270.0 221.3 Q 270.0 224.0, 271.1 225.5 Q 272.3 226.9, 274.5 226.9 Q 276.0 226.9, 277.8 225.9 L 278.4 227.4 Q 277.7 227.9, 276.6 228.2 Q 275.5 228.5, 274.2 228.5 Q 271.2 228.5, 269.6 226.6 Q 267.9 224.7, 267.9 221.3 " fill="#000000"/>
<path class="atom-1" d="M 279.5 226.0 L 281.5 226.0 L 281.5 227.9 L 279.5 227.9 L 279.5 226.0 M 279.5 219.2 L 281.5 219.2 L 281.5 221.2 L 279.5 221.2 L 279.5 219.2 " fill="#000000"/>
<path class="atom-1" d="M 283.0 217.0 Q 283.5 215.6, 284.7 214.9 Q 285.9 214.2, 287.6 214.2 Q 289.8 214.2, 290.9 215.3 Q 292.1 216.4, 292.1 218.5 Q 292.1 220.5, 290.6 222.5 Q 289.1 224.4, 285.9 226.7 L 292.4 226.7 L 292.4 228.3 L 282.9 228.3 L 282.9 227.0 Q 285.6 225.1, 287.1 223.7 Q 288.6 222.3, 289.4 221.1 Q 290.1 219.9, 290.1 218.6 Q 290.1 217.2, 289.5 216.5 Q 288.8 215.7, 287.6 215.7 Q 286.5 215.7, 285.8 216.2 Q 285.0 216.6, 284.5 217.6 L 283.0 217.0 " fill="#000000"/>
<path class="atom-2" d="M 308.8 230.8 Q 308.8 227.3, 310.4 225.5 Q 312.1 223.6, 315.2 223.6 Q 318.0 223.6, 319.6 225.7 L 318.3 226.7 Q 317.2 225.3, 315.2 225.3 Q 313.1 225.3, 311.9 226.7 Q 310.8 228.1, 310.8 230.8 Q 310.8 233.5, 312.0 234.9 Q 313.1 236.4, 315.4 236.4 Q 316.9 236.4, 318.7 235.4 L 319.3 236.9 Q 318.5 237.4, 317.4 237.7 Q 316.3 237.9, 315.1 237.9 Q 312.1 237.9, 310.4 236.1 Q 308.8 234.2, 308.8 230.8 " fill="#000000"/>
<path class="atom-2" d="M 320.4 235.5 L 322.3 235.5 L 322.3 237.4 L 320.4 237.4 L 320.4 235.5 M 320.4 228.7 L 322.3 228.7 L 322.3 230.6 L 320.4 230.6 L 320.4 228.7 " fill="#000000"/>
<path class="atom-2" d="M 330.5 230.4 Q 331.9 230.8, 332.5 231.7 Q 333.2 232.6, 333.2 233.9 Q 333.2 235.1, 332.6 236.0 Q 332.0 237.0, 330.9 237.5 Q 329.9 238.0, 328.4 238.0 Q 326.9 238.0, 325.8 237.4 Q 324.7 236.9, 323.8 235.9 L 324.9 234.7 Q 325.8 235.7, 326.5 236.0 Q 327.3 236.4, 328.4 236.4 Q 329.7 236.4, 330.5 235.7 Q 331.2 235.0, 331.2 233.9 Q 331.2 232.5, 330.4 231.9 Q 329.6 231.2, 327.9 231.2 L 326.9 231.2 L 326.9 229.8 L 327.8 229.8 Q 329.3 229.8, 330.1 229.1 Q 330.9 228.5, 330.9 227.2 Q 330.9 226.3, 330.3 225.8 Q 329.6 225.2, 328.5 225.2 Q 327.3 225.2, 326.6 225.6 Q 325.9 226.1, 325.3 227.1 L 323.9 226.4 Q 324.4 225.2, 325.6 224.4 Q 326.8 223.6, 328.5 223.6 Q 330.5 223.6, 331.7 224.6 Q 332.9 225.6, 332.9 227.2 Q 332.9 228.3, 332.3 229.1 Q 331.7 230.0, 330.5 230.4 " fill="#000000"/>
<path class="atom-3" d="M 365.9 233.2 L 370.5 240.6 Q 370.9 241.3, 371.6 242.7 Q 372.4 244.0, 372.4 244.1 L 372.4 233.2 L 374.3 233.2 L 374.3 247.2 L 372.3 247.2 L 367.4 239.1 Q 366.9 238.1, 366.3 237.1 Q 365.7 236.0, 365.5 235.6 L 365.5 247.2 L 363.7 247.2 L 363.7 233.2 L 365.9 233.2 " fill="#0000FF"/>
<path class="atom-3" d="M 375.9 244.9 L 377.9 244.9 L 377.9 246.8 L 375.9 246.8 L 375.9 244.9 M 375.9 238.1 L 377.9 238.1 L 377.9 240.1 L 375.9 240.1 L 375.9 238.1 " fill="#0000FF"/>
<path class="atom-3" d="M 388.4 242.4 L 390.1 242.4 L 390.1 244.0 L 388.4 244.0 L 388.4 247.2 L 386.6 247.2 L 386.6 244.0 L 379.3 244.0 L 379.3 242.7 L 385.5 233.2 L 388.4 233.2 L 388.4 242.4 M 381.6 242.4 L 386.6 242.4 L 386.6 234.5 L 381.6 242.4 " fill="#0000FF"/>
<path class="atom-4" d="M 257.8 174.6 Q 257.8 171.3, 259.4 169.4 Q 261.1 167.5, 264.2 167.5 Q 267.3 167.5, 268.9 169.4 Q 270.6 171.3, 270.6 174.6 Q 270.6 178.0, 268.9 179.9 Q 267.2 181.9, 264.2 181.9 Q 261.1 181.9, 259.4 179.9 Q 257.8 178.0, 257.8 174.6 M 264.2 180.3 Q 266.3 180.3, 267.5 178.9 Q 268.6 177.4, 268.6 174.6 Q 268.6 171.9, 267.5 170.5 Q 266.3 169.1, 264.2 169.1 Q 262.1 169.1, 260.9 170.5 Q 259.7 171.9, 259.7 174.6 Q 259.7 177.4, 260.9 178.9 Q 262.1 180.3, 264.2 180.3 " fill="#FF0000"/>
<path class="atom-4" d="M 271.6 179.3 L 273.6 179.3 L 273.6 181.3 L 271.6 181.3 L 271.6 179.3 M 271.6 172.6 L 273.6 172.6 L 273.6 174.5 L 271.6 174.5 L 271.6 172.6 " fill="#FF0000"/>
<path class="atom-4" d="M 280.1 172.9 Q 281.3 172.9, 282.3 173.4 Q 283.3 174.0, 283.9 174.9 Q 284.5 175.9, 284.5 177.2 Q 284.5 178.7, 283.8 179.7 Q 283.1 180.7, 281.9 181.3 Q 280.8 181.8, 279.5 181.8 Q 278.2 181.8, 277.0 181.3 Q 275.8 180.9, 275.0 179.9 L 276.2 178.7 Q 276.9 179.4, 277.7 179.8 Q 278.6 180.2, 279.5 180.2 Q 280.8 180.2, 281.6 179.4 Q 282.5 178.7, 282.5 177.3 Q 282.5 175.8, 281.6 175.1 Q 280.8 174.4, 279.4 174.4 Q 278.2 174.4, 276.8 174.9 L 275.8 174.4 L 276.4 167.7 L 283.6 167.7 L 283.4 169.3 L 278.0 169.3 L 277.6 173.4 Q 278.9 172.9, 280.1 172.9 " fill="#FF0000"/>
<path class="atom-5" d="M 320.2 263.6 L 322.1 263.6 L 322.1 269.6 L 329.2 269.6 L 329.2 263.6 L 331.1 263.6 L 331.1 277.6 L 329.2 277.6 L 329.2 271.1 L 322.1 271.1 L 322.1 277.6 L 320.2 277.6 L 320.2 263.6 " fill="#000000"/>
<path class="atom-5" d="M 332.8 275.3 L 334.8 275.3 L 334.8 277.2 L 332.8 277.2 L 332.8 275.3 M 332.8 268.5 L 334.8 268.5 L 334.8 270.5 L 332.8 270.5 L 332.8 268.5 " fill="#000000"/>
<path class="atom-5" d="M 341.7 268.9 Q 342.9 268.9, 343.9 269.4 Q 344.9 269.9, 345.4 270.9 Q 345.9 271.9, 345.9 273.1 Q 345.9 274.4, 345.3 275.5 Q 344.7 276.6, 343.7 277.2 Q 342.6 277.7, 341.2 277.7 Q 338.8 277.7, 337.5 276.1 Q 336.2 274.4, 336.2 271.0 Q 336.2 267.3, 337.8 265.4 Q 339.3 263.5, 342.3 263.5 Q 343.2 263.5, 343.9 263.7 Q 344.7 263.9, 345.4 264.3 L 344.6 265.6 Q 343.6 265.0, 342.3 265.0 Q 340.4 265.0, 339.4 266.3 Q 338.4 267.6, 338.2 270.2 Q 338.9 269.6, 339.8 269.2 Q 340.7 268.9, 341.7 268.9 M 341.3 276.1 Q 342.0 276.1, 342.6 275.7 Q 343.2 275.3, 343.6 274.6 Q 344.0 274.0, 344.0 273.1 Q 344.0 271.9, 343.3 271.2 Q 342.6 270.4, 341.4 270.4 Q 340.5 270.4, 339.7 270.8 Q 338.8 271.1, 338.2 271.7 Q 338.3 274.0, 339.0 275.1 Q 339.8 276.1, 341.3 276.1 " fill="#000000"/>
<path class="atom-6" d="M 332.5 175.4 L 334.4 175.4 L 334.4 181.3 L 341.6 181.3 L 341.6 175.4 L 343.5 175.4 L 343.5 189.3 L 341.6 189.3 L 341.6 182.9 L 334.4 182.9 L 334.4 189.3 L 332.5 189.3 L 332.5 175.4 " fill="#000000"/>
<path class="atom-6" d="M 345.1 187.0 L 347.1 187.0 L 347.1 189.0 L 345.1 189.0 L 345.1 187.0 M 345.1 180.2 L 347.1 180.2 L 347.1 182.2 L 345.1 182.2 L 345.1 180.2 " fill="#000000"/>
<path class="atom-6" d="M 355.9 176.9 L 348.6 176.9 L 348.6 175.4 L 357.9 175.4 L 357.9 176.8 L 352.2 189.3 L 350.3 189.3 L 355.9 176.9 " fill="#000000"/>
<path class="atom-7" d="M 187.0 248.9 Q 187.0 245.5, 188.6 243.6 Q 190.2 241.8, 193.3 241.8 Q 196.2 241.8, 197.7 243.8 L 196.4 244.9 Q 195.3 243.4, 193.3 243.4 Q 191.2 243.4, 190.1 244.8 Q 189.0 246.2, 189.0 248.9 Q 189.0 251.7, 190.1 253.1 Q 191.3 254.5, 193.5 254.5 Q 195.1 254.5, 196.9 253.6 L 197.4 255.1 Q 196.7 255.5, 195.6 255.8 Q 194.5 256.1, 193.2 256.1 Q 190.2 256.1, 188.6 254.2 Q 187.0 252.4, 187.0 248.9 " fill="#000000"/>
<path class="atom-7" d="M 198.5 253.6 L 200.5 253.6 L 200.5 255.6 L 198.5 255.6 L 198.5 253.6 M 198.5 246.8 L 200.5 246.8 L 200.5 248.8 L 198.5 248.8 L 198.5 246.8 " fill="#000000"/>
<path class="atom-7" d="M 209.1 248.5 Q 210.4 249.1, 211.1 249.9 Q 211.8 250.7, 211.8 252.1 Q 211.8 253.3, 211.2 254.2 Q 210.6 255.1, 209.5 255.6 Q 208.4 256.1, 207.0 256.1 Q 204.6 256.1, 203.3 255.1 Q 202.0 254.0, 202.0 252.1 Q 202.0 251.0, 202.5 250.1 Q 203.1 249.2, 204.4 248.6 Q 203.5 248.1, 203.0 247.3 Q 202.5 246.6, 202.5 245.4 Q 202.5 243.7, 203.7 242.8 Q 204.9 241.8, 206.9 241.8 Q 208.9 241.8, 210.1 242.8 Q 211.3 243.7, 211.3 245.4 Q 211.3 246.4, 210.7 247.2 Q 210.2 247.9, 209.1 248.5 M 206.9 243.3 Q 205.7 243.3, 205.1 243.8 Q 204.4 244.4, 204.4 245.4 Q 204.4 246.1, 204.9 246.6 Q 205.3 247.1, 205.9 247.3 Q 206.6 247.6, 207.8 248.0 Q 208.6 247.4, 209.0 246.8 Q 209.3 246.2, 209.3 245.4 Q 209.3 244.4, 208.7 243.8 Q 208.0 243.3, 206.9 243.3 M 207.0 254.6 Q 208.3 254.6, 209.1 254.0 Q 209.8 253.2, 209.8 252.1 Q 209.8 251.3, 209.4 250.9 Q 209.0 250.4, 208.4 250.1 Q 207.8 249.8, 206.7 249.5 L 205.8 249.2 Q 204.8 249.8, 204.4 250.5 Q 203.9 251.2, 203.9 252.1 Q 203.9 253.2, 204.8 254.0 Q 205.6 254.6, 207.0 254.6 " fill="#000000"/>
<path class="atom-8" d="M 90.3 229.9 Q 90.3 226.5, 91.9 224.7 Q 93.6 222.8, 96.7 222.8 Q 99.5 222.8, 101.1 224.9 L 99.8 225.9 Q 98.7 224.4, 96.7 224.4 Q 94.6 224.4, 93.4 225.9 Q 92.3 227.3, 92.3 229.9 Q 92.3 232.7, 93.5 234.1 Q 94.6 235.5, 96.9 235.5 Q 98.4 235.5, 100.2 234.6 L 100.8 236.1 Q 100.0 236.6, 98.9 236.8 Q 97.8 237.1, 96.6 237.1 Q 93.6 237.1, 91.9 235.3 Q 90.3 233.4, 90.3 229.9 " fill="#000000"/>
<path class="atom-8" d="M 101.9 234.6 L 103.8 234.6 L 103.8 236.6 L 101.9 236.6 L 101.9 234.6 M 101.9 227.9 L 103.8 227.9 L 103.8 229.8 L 101.9 229.8 L 101.9 227.9 " fill="#000000"/>
<path class="atom-8" d="M 110.0 222.8 Q 112.5 222.8, 113.7 224.5 Q 115.0 226.2, 115.0 229.6 Q 115.0 233.3, 113.4 235.2 Q 111.9 237.1, 108.9 237.1 Q 108.1 237.1, 107.3 236.9 Q 106.6 236.7, 105.9 236.3 L 106.6 235.0 Q 107.7 235.5, 108.9 235.5 Q 110.9 235.5, 111.9 234.3 Q 112.9 233.0, 113.0 230.4 Q 112.3 231.0, 111.4 231.4 Q 110.5 231.7, 109.5 231.7 Q 108.3 231.7, 107.3 231.2 Q 106.4 230.6, 105.8 229.7 Q 105.3 228.7, 105.3 227.5 Q 105.3 226.1, 105.9 225.1 Q 106.5 224.0, 107.6 223.4 Q 108.6 222.8, 110.0 222.8 M 107.3 227.5 Q 107.3 228.7, 108.0 229.4 Q 108.7 230.1, 109.9 230.1 Q 110.7 230.1, 111.6 229.8 Q 112.4 229.4, 113.0 228.8 Q 112.9 226.5, 112.2 225.5 Q 111.5 224.4, 110.0 224.4 Q 109.2 224.4, 108.6 224.8 Q 108.0 225.2, 107.6 225.9 Q 107.3 226.6, 107.3 227.5 " fill="#000000"/>
<path class="atom-9" d="M 101.4 276.6 Q 101.4 273.1, 103.0 271.3 Q 104.6 269.5, 107.7 269.5 Q 110.6 269.5, 112.2 271.5 L 110.9 272.6 Q 109.7 271.1, 107.7 271.1 Q 105.6 271.1, 104.5 272.5 Q 103.4 273.9, 103.4 276.6 Q 103.4 279.3, 104.5 280.8 Q 105.7 282.2, 108.0 282.2 Q 109.5 282.2, 111.3 281.2 L 111.8 282.7 Q 111.1 283.2, 110.0 283.5 Q 108.9 283.8, 107.7 283.8 Q 104.6 283.8, 103.0 281.9 Q 101.4 280.0, 101.4 276.6 " fill="#000000"/>
<path class="atom-9" d="M 112.9 281.3 L 114.9 281.3 L 114.9 283.2 L 112.9 283.2 L 112.9 281.3 M 112.9 274.5 L 114.9 274.5 L 114.9 276.5 L 112.9 276.5 L 112.9 274.5 " fill="#000000"/>
<path class="atom-9" d="M 117.2 282.0 L 120.2 282.0 L 120.2 271.6 L 116.8 272.6 L 116.4 271.4 L 120.7 269.5 L 122.1 269.8 L 122.1 282.0 L 124.8 282.0 L 124.8 283.6 L 117.2 283.6 L 117.2 282.0 " fill="#000000"/>
<path class="atom-9" d="M 130.7 283.7 Q 128.2 283.7, 126.9 281.8 Q 125.6 279.9, 125.6 276.6 Q 125.6 273.2, 126.9 271.3 Q 128.2 269.5, 130.7 269.5 Q 133.3 269.5, 134.6 271.3 Q 135.8 273.2, 135.8 276.6 Q 135.8 279.9, 134.6 281.8 Q 133.3 283.7, 130.7 283.7 M 130.7 282.2 Q 132.3 282.2, 133.1 280.8 Q 133.9 279.3, 133.9 276.6 Q 133.9 273.8, 133.1 272.4 Q 132.3 271.0, 130.7 271.0 Q 129.2 271.0, 128.4 272.4 Q 127.6 273.8, 127.6 276.6 Q 127.6 279.3, 128.4 280.8 Q 129.2 282.2, 130.7 282.2 " fill="#000000"/>
<path class="atom-10" d="M 118.7 192.8 Q 118.7 189.3, 120.3 187.5 Q 122.0 185.7, 125.1 185.7 Q 127.9 185.7, 129.5 187.7 L 128.2 188.8 Q 127.1 187.3, 125.1 187.3 Q 123.0 187.3, 121.8 188.7 Q 120.7 190.1, 120.7 192.8 Q 120.7 195.6, 121.9 197.0 Q 123.0 198.4, 125.3 198.4 Q 126.8 198.4, 128.6 197.5 L 129.2 199.0 Q 128.4 199.4, 127.3 199.7 Q 126.2 200.0, 125.0 200.0 Q 122.0 200.0, 120.3 198.1 Q 118.7 196.3, 118.7 192.8 " fill="#000000"/>
<path class="atom-10" d="M 130.3 197.5 L 132.2 197.5 L 132.2 199.5 L 130.3 199.5 L 130.3 197.5 M 130.3 190.7 L 132.2 190.7 L 132.2 192.7 L 130.3 192.7 L 130.3 190.7 " fill="#000000"/>
<path class="atom-10" d="M 134.5 198.2 L 137.5 198.2 L 137.5 187.8 L 134.2 188.8 L 133.7 187.7 L 138.0 185.8 L 139.4 186.0 L 139.4 198.2 L 142.1 198.2 L 142.1 199.8 L 134.5 199.8 L 134.5 198.2 " fill="#000000"/>
<path class="atom-10" d="M 143.7 198.2 L 146.8 198.2 L 146.8 187.8 L 143.4 188.8 L 143.0 187.7 L 147.2 185.8 L 148.6 186.0 L 148.6 198.2 L 151.4 198.2 L 151.4 199.8 L 143.7 199.8 L 143.7 198.2 " fill="#000000"/>
<path class="atom-11" d="M 150.2 286.1 Q 150.2 282.6, 151.8 280.8 Q 153.4 278.9, 156.5 278.9 Q 159.4 278.9, 160.9 281.0 L 159.6 282.0 Q 158.5 280.6, 156.5 280.6 Q 154.4 280.6, 153.3 282.0 Q 152.2 283.4, 152.2 286.1 Q 152.2 288.8, 153.3 290.2 Q 154.5 291.7, 156.7 291.7 Q 158.3 291.7, 160.1 290.7 L 160.6 292.2 Q 159.9 292.7, 158.8 293.0 Q 157.7 293.2, 156.4 293.2 Q 153.4 293.2, 151.8 291.4 Q 150.2 289.5, 150.2 286.1 " fill="#000000"/>
<path class="atom-11" d="M 161.7 290.8 L 163.7 290.8 L 163.7 292.7 L 161.7 292.7 L 161.7 290.8 M 161.7 284.0 L 163.7 284.0 L 163.7 285.9 L 161.7 285.9 L 161.7 284.0 " fill="#000000"/>
<path class="atom-11" d="M 165.9 291.5 L 169.0 291.5 L 169.0 281.1 L 165.6 282.1 L 165.2 280.9 L 169.4 279.0 L 170.8 279.3 L 170.8 291.5 L 173.6 291.5 L 173.6 293.1 L 165.9 293.1 L 165.9 291.5 " fill="#000000"/>
<path class="atom-11" d="M 174.4 281.7 Q 175.0 280.4, 176.2 279.7 Q 177.4 278.9, 179.1 278.9 Q 181.2 278.9, 182.4 280.1 Q 183.6 281.2, 183.6 283.3 Q 183.6 285.3, 182.0 287.3 Q 180.5 289.2, 177.4 291.5 L 183.8 291.5 L 183.8 293.1 L 174.4 293.1 L 174.4 291.7 Q 177.0 289.9, 178.5 288.5 Q 180.1 287.1, 180.9 285.9 Q 181.6 284.6, 181.6 283.4 Q 181.6 282.0, 180.9 281.3 Q 180.3 280.5, 179.1 280.5 Q 178.0 280.5, 177.2 281.0 Q 176.5 281.4, 175.9 282.4 L 174.4 281.7 " fill="#000000"/>
<path class="atom-12" d="M 166.6 202.3 Q 166.6 198.8, 168.2 197.0 Q 169.9 195.2, 173.0 195.2 Q 175.8 195.2, 177.4 197.2 L 176.1 198.3 Q 174.9 196.8, 173.0 196.8 Q 170.8 196.8, 169.7 198.2 Q 168.6 199.6, 168.6 202.3 Q 168.6 205.1, 169.8 206.5 Q 170.9 207.9, 173.2 207.9 Q 174.7 207.9, 176.5 207.0 L 177.1 208.4 Q 176.3 208.9, 175.2 209.2 Q 174.1 209.5, 172.9 209.5 Q 169.9 209.5, 168.2 207.6 Q 166.6 205.8, 166.6 202.3 " fill="#000000"/>
<path class="atom-12" d="M 178.2 207.0 L 180.1 207.0 L 180.1 209.0 L 178.2 209.0 L 178.2 207.0 M 178.2 200.2 L 180.1 200.2 L 180.1 202.2 L 178.2 202.2 L 178.2 200.2 " fill="#000000"/>
<path class="atom-12" d="M 182.4 207.7 L 185.4 207.7 L 185.4 197.3 L 182.1 198.3 L 181.6 197.2 L 185.9 195.3 L 187.3 195.5 L 187.3 207.7 L 190.0 207.7 L 190.0 209.3 L 182.4 209.3 L 182.4 207.7 " fill="#000000"/>
<path class="atom-12" d="M 197.6 201.9 Q 198.9 202.3, 199.6 203.2 Q 200.2 204.1, 200.2 205.5 Q 200.2 206.7, 199.6 207.6 Q 199.1 208.5, 198.0 209.0 Q 196.9 209.5, 195.5 209.5 Q 194.0 209.5, 192.8 209.0 Q 191.7 208.4, 190.9 207.4 L 192.0 206.2 Q 192.8 207.2, 193.6 207.6 Q 194.3 207.9, 195.5 207.9 Q 196.7 207.9, 197.5 207.2 Q 198.3 206.6, 198.3 205.5 Q 198.3 204.0, 197.5 203.4 Q 196.7 202.7, 195.0 202.7 L 193.9 202.7 L 193.9 201.3 L 194.8 201.3 Q 196.4 201.3, 197.2 200.7 Q 198.0 200.0, 198.0 198.7 Q 198.0 197.8, 197.3 197.3 Q 196.6 196.8, 195.5 196.8 Q 194.3 196.8, 193.6 197.2 Q 192.9 197.6, 192.3 198.6 L 191.0 197.9 Q 191.5 196.7, 192.6 196.0 Q 193.8 195.2, 195.5 195.2 Q 197.5 195.2, 198.7 196.1 Q 199.9 197.1, 199.9 198.7 Q 199.9 199.9, 199.3 200.7 Q 198.7 201.5, 197.6 201.9 " fill="#000000"/>
<path class="atom-13" d="M 258.3 305.0 Q 258.3 301.6, 259.9 299.8 Q 261.6 297.9, 264.7 297.9 Q 267.6 297.9, 269.1 300.0 L 267.8 301.0 Q 266.7 299.5, 264.7 299.5 Q 262.6 299.5, 261.4 301.0 Q 260.3 302.4, 260.3 305.0 Q 260.3 307.8, 261.5 309.2 Q 262.6 310.6, 264.9 310.6 Q 266.4 310.6, 268.2 309.7 L 268.8 311.2 Q 268.0 311.7, 266.9 311.9 Q 265.8 312.2, 264.6 312.2 Q 261.6 312.2, 259.9 310.4 Q 258.3 308.5, 258.3 305.0 " fill="#000000"/>
<path class="atom-13" d="M 269.9 309.7 L 271.9 309.7 L 271.9 311.7 L 269.9 311.7 L 269.9 309.7 M 269.9 303.0 L 271.9 303.0 L 271.9 304.9 L 269.9 304.9 L 269.9 303.0 " fill="#000000"/>
<path class="atom-13" d="M 274.1 310.5 L 277.2 310.5 L 277.2 300.0 L 273.8 301.1 L 273.3 299.9 L 277.6 298.0 L 279.0 298.2 L 279.0 310.5 L 281.8 310.5 L 281.8 312.0 L 274.1 312.0 L 274.1 310.5 " fill="#000000"/>
<path class="atom-13" d="M 291.6 307.3 L 293.3 307.3 L 293.3 308.8 L 291.6 308.8 L 291.6 312.0 L 289.8 312.0 L 289.8 308.8 L 282.6 308.8 L 282.6 307.6 L 288.7 298.1 L 291.6 298.1 L 291.6 307.3 M 284.9 307.3 L 289.8 307.3 L 289.8 299.3 L 284.9 307.3 " fill="#000000"/>
<path class="atom-14" d="M 376.0 286.9 Q 376.0 283.4, 377.6 281.6 Q 379.2 279.8, 382.3 279.8 Q 385.2 279.8, 386.8 281.8 L 385.5 282.9 Q 384.3 281.4, 382.3 281.4 Q 380.2 281.4, 379.1 282.8 Q 378.0 284.2, 378.0 286.9 Q 378.0 289.6, 379.2 291.1 Q 380.3 292.5, 382.6 292.5 Q 384.1 292.5, 385.9 291.6 L 386.4 293.0 Q 385.7 293.5, 384.6 293.8 Q 383.5 294.1, 382.3 294.1 Q 379.2 294.1, 377.6 292.2 Q 376.0 290.4, 376.0 286.9 " fill="#000000"/>
<path class="atom-14" d="M 387.5 291.6 L 389.5 291.6 L 389.5 293.5 L 387.5 293.5 L 387.5 291.6 M 387.5 284.8 L 389.5 284.8 L 389.5 286.8 L 387.5 286.8 L 387.5 284.8 " fill="#000000"/>
<path class="atom-14" d="M 391.8 292.3 L 394.8 292.3 L 394.8 281.9 L 391.5 282.9 L 391.0 281.8 L 395.3 279.8 L 396.7 280.1 L 396.7 292.3 L 399.4 292.3 L 399.4 293.9 L 391.8 293.9 L 391.8 292.3 " fill="#000000"/>
<path class="atom-14" d="M 405.3 285.1 Q 406.5 285.1, 407.5 285.7 Q 408.5 286.2, 409.1 287.2 Q 409.7 288.1, 409.7 289.5 Q 409.7 290.9, 409.0 292.0 Q 408.3 293.0, 407.1 293.5 Q 406.0 294.0, 404.7 294.0 Q 403.4 294.0, 402.2 293.6 Q 401.1 293.1, 400.2 292.2 L 401.4 291.0 Q 402.1 291.7, 403.0 292.1 Q 403.9 292.4, 404.8 292.4 Q 406.0 292.4, 406.8 291.7 Q 407.7 290.9, 407.7 289.5 Q 407.7 288.0, 406.8 287.3 Q 406.0 286.6, 404.6 286.6 Q 403.4 286.6, 402.1 287.2 L 401.0 286.6 L 401.6 279.9 L 408.8 279.9 L 408.6 281.5 L 403.3 281.5 L 402.8 285.6 Q 404.1 285.1, 405.3 285.1 " fill="#000000"/>
<path class="atom-15" d="M 392.3 203.1 Q 392.3 199.6, 393.9 197.8 Q 395.6 196.0, 398.7 196.0 Q 401.5 196.0, 403.1 198.0 L 401.8 199.1 Q 400.7 197.6, 398.7 197.6 Q 396.6 197.6, 395.4 199.0 Q 394.3 200.4, 394.3 203.1 Q 394.3 205.9, 395.5 207.3 Q 396.6 208.7, 398.9 208.7 Q 400.4 208.7, 402.2 207.8 L 402.8 209.3 Q 402.0 209.7, 400.9 210.0 Q 399.8 210.3, 398.6 210.3 Q 395.6 210.3, 393.9 208.4 Q 392.3 206.6, 392.3 203.1 " fill="#000000"/>
<path class="atom-15" d="M 403.9 207.8 L 405.8 207.8 L 405.8 209.8 L 403.9 209.8 L 403.9 207.8 M 403.9 201.0 L 405.8 201.0 L 405.8 203.0 L 403.9 203.0 L 403.9 201.0 " fill="#000000"/>
<path class="atom-15" d="M 408.1 208.5 L 411.1 208.5 L 411.1 198.1 L 407.8 199.2 L 407.3 198.0 L 411.6 196.1 L 413.0 196.3 L 413.0 208.5 L 415.7 208.5 L 415.7 210.1 L 408.1 210.1 L 408.1 208.5 " fill="#000000"/>
<path class="atom-15" d="M 422.0 201.4 Q 423.2 201.4, 424.2 201.9 Q 425.2 202.5, 425.7 203.4 Q 426.2 204.4, 426.2 205.6 Q 426.2 207.0, 425.6 208.0 Q 425.0 209.1, 424.0 209.7 Q 422.9 210.3, 421.6 210.3 Q 419.1 210.3, 417.8 208.6 Q 416.6 206.9, 416.6 203.5 Q 416.6 199.8, 418.1 197.9 Q 419.7 196.0, 422.6 196.0 Q 423.5 196.0, 424.2 196.2 Q 425.0 196.4, 425.7 196.8 L 424.9 198.1 Q 423.9 197.6, 422.7 197.6 Q 420.7 197.6, 419.7 198.9 Q 418.7 200.1, 418.6 202.7 Q 419.3 202.1, 420.2 201.8 Q 421.1 201.4, 422.0 201.4 M 421.6 208.7 Q 422.3 208.7, 422.9 208.3 Q 423.6 207.9, 423.9 207.2 Q 424.3 206.5, 424.3 205.6 Q 424.3 204.4, 423.6 203.7 Q 422.9 203.0, 421.7 203.0 Q 420.8 203.0, 420.0 203.3 Q 419.1 203.7, 418.6 204.3 Q 418.6 206.6, 419.4 207.6 Q 420.1 208.7, 421.6 208.7 " fill="#000000"/>
<path class="atom-16" d="M 56.3 306.7 L 58.2 306.7 L 58.2 312.7 L 65.3 312.7 L 65.3 306.7 L 67.2 306.7 L 67.2 320.7 L 65.3 320.7 L 65.3 314.2 L 58.2 314.2 L 58.2 320.7 L 56.3 320.7 L 56.3 306.7 " fill="#000000"/>
<path class="atom-16" d="M 68.9 318.4 L 70.9 318.4 L 70.9 320.3 L 68.9 320.3 L 68.9 318.4 M 68.9 311.6 L 70.9 311.6 L 70.9 313.6 L 68.9 313.6 L 68.9 311.6 " fill="#000000"/>
<path class="atom-16" d="M 73.1 319.1 L 76.2 319.1 L 76.2 308.7 L 72.8 309.7 L 72.3 308.6 L 76.6 306.6 L 78.0 306.9 L 78.0 319.1 L 80.8 319.1 L 80.8 320.7 L 73.1 320.7 L 73.1 319.1 " fill="#000000"/>
<path class="atom-16" d="M 88.9 308.3 L 81.6 308.3 L 81.6 306.7 L 90.9 306.7 L 90.9 308.1 L 85.2 320.7 L 83.3 320.7 L 88.9 308.3 " fill="#000000"/>
<path class="atom-17" d="M 113.6 139.2 L 115.5 139.2 L 115.5 145.2 L 122.7 145.2 L 122.7 139.2 L 124.6 139.2 L 124.6 153.2 L 122.7 153.2 L 122.7 146.7 L 115.5 146.7 L 115.5 153.2 L 113.6 153.2 L 113.6 139.2 " fill="#000000"/>
<path class="atom-17" d="M 126.2 150.9 L 128.2 150.9 L 128.2 152.8 L 126.2 152.8 L 126.2 150.9 M 126.2 144.1 L 128.2 144.1 L 128.2 146.1 L 126.2 146.1 L 126.2 144.1 " fill="#000000"/>
<path class="atom-17" d="M 130.4 151.6 L 133.5 151.6 L 133.5 141.2 L 130.1 142.2 L 129.7 141.1 L 134.0 139.1 L 135.4 139.4 L 135.4 151.6 L 138.1 151.6 L 138.1 153.2 L 130.4 153.2 L 130.4 151.6 " fill="#000000"/>
<path class="atom-17" d="M 146.0 145.8 Q 147.3 146.3, 148.1 147.2 Q 148.8 148.0, 148.8 149.4 Q 148.8 150.5, 148.2 151.5 Q 147.6 152.4, 146.5 152.9 Q 145.4 153.4, 143.9 153.4 Q 141.6 153.4, 140.3 152.3 Q 138.9 151.2, 138.9 149.4 Q 138.9 148.2, 139.5 147.4 Q 140.1 146.5, 141.3 145.8 Q 140.4 145.3, 139.9 144.6 Q 139.4 143.8, 139.4 142.6 Q 139.4 141.0, 140.6 140.0 Q 141.8 139.1, 143.9 139.1 Q 145.9 139.1, 147.1 140.0 Q 148.3 141.0, 148.3 142.6 Q 148.3 143.7, 147.7 144.4 Q 147.1 145.2, 146.0 145.8 M 143.9 140.5 Q 142.7 140.5, 142.0 141.1 Q 141.4 141.6, 141.4 142.6 Q 141.4 143.4, 141.8 143.8 Q 142.3 144.3, 142.9 144.6 Q 143.5 144.9, 144.7 145.3 Q 145.6 144.7, 145.9 144.1 Q 146.3 143.4, 146.3 142.6 Q 146.3 141.6, 145.6 141.1 Q 145.0 140.5, 143.9 140.5 M 143.9 151.9 Q 145.2 151.9, 146.0 151.2 Q 146.8 150.5, 146.8 149.3 Q 146.8 148.6, 146.4 148.1 Q 146.0 147.6, 145.4 147.4 Q 144.7 147.1, 143.6 146.7 L 142.7 146.4 Q 141.8 147.0, 141.3 147.7 Q 140.9 148.4, 140.9 149.3 Q 140.9 150.5, 141.7 151.2 Q 142.6 151.9, 143.9 151.9 " fill="#000000"/>
<path class="atom-18" d="M 177.5 325.7 L 179.4 325.7 L 179.4 331.7 L 186.5 331.7 L 186.5 325.7 L 188.4 325.7 L 188.4 339.7 L 186.5 339.7 L 186.5 333.2 L 179.4 333.2 L 179.4 339.7 L 177.5 339.7 L 177.5 325.7 " fill="#000000"/>
<path class="atom-18" d="M 190.1 337.4 L 192.1 337.4 L 192.1 339.4 L 190.1 339.4 L 190.1 337.4 M 190.1 330.6 L 192.1 330.6 L 192.1 332.6 L 190.1 332.6 L 190.1 330.6 " fill="#000000"/>
<path class="atom-18" d="M 194.3 338.1 L 197.4 338.1 L 197.4 327.7 L 194.0 328.7 L 193.5 327.6 L 197.8 325.7 L 199.2 325.9 L 199.2 338.1 L 202.0 338.1 L 202.0 339.7 L 194.3 339.7 L 194.3 338.1 " fill="#000000"/>
<path class="atom-18" d="M 207.5 325.6 Q 210.0 325.6, 211.2 327.3 Q 212.5 328.9, 212.5 332.3 Q 212.5 336.0, 210.9 337.9 Q 209.4 339.9, 206.4 339.9 Q 205.5 339.9, 204.8 339.7 Q 204.0 339.5, 203.3 339.0 L 204.1 337.7 Q 205.1 338.3, 206.4 338.3 Q 208.3 338.3, 209.3 337.0 Q 210.4 335.7, 210.5 333.1 Q 209.8 333.8, 208.9 334.1 Q 208.0 334.5, 207.0 334.5 Q 205.8 334.5, 204.8 333.9 Q 203.8 333.4, 203.3 332.4 Q 202.8 331.5, 202.8 330.2 Q 202.8 328.9, 203.4 327.8 Q 204.0 326.8, 205.0 326.2 Q 206.1 325.6, 207.5 325.6 M 204.8 330.2 Q 204.8 331.5, 205.4 332.2 Q 206.1 332.9, 207.4 332.9 Q 208.2 332.9, 209.0 332.5 Q 209.9 332.2, 210.5 331.6 Q 210.4 329.3, 209.7 328.2 Q 208.9 327.2, 207.5 327.2 Q 206.7 327.2, 206.1 327.6 Q 205.5 328.0, 205.1 328.7 Q 204.8 329.4, 204.8 330.2 " fill="#000000"/>
<path class="atom-19" d="M 210.4 158.2 L 212.3 158.2 L 212.3 164.1 L 219.4 164.1 L 219.4 158.2 L 221.3 158.2 L 221.3 172.2 L 219.4 172.2 L 219.4 165.7 L 212.3 165.7 L 212.3 172.2 L 210.4 172.2 L 210.4 158.2 " fill="#000000"/>
<path class="atom-19" d="M 223.0 169.8 L 224.9 169.8 L 224.9 171.8 L 223.0 171.8 L 223.0 169.8 M 223.0 163.1 L 224.9 163.1 L 224.9 165.0 L 223.0 165.0 L 223.0 163.1 " fill="#000000"/>
<path class="atom-19" d="M 226.4 160.8 Q 227.0 159.5, 228.2 158.8 Q 229.4 158.0, 231.1 158.0 Q 233.2 158.0, 234.4 159.2 Q 235.6 160.3, 235.6 162.4 Q 235.6 164.4, 234.0 166.4 Q 232.5 168.3, 229.4 170.6 L 235.8 170.6 L 235.8 172.2 L 226.4 172.2 L 226.4 170.8 Q 229.0 169.0, 230.5 167.6 Q 232.1 166.2, 232.9 165.0 Q 233.6 163.7, 233.6 162.5 Q 233.6 161.1, 232.9 160.4 Q 232.3 159.6, 231.1 159.6 Q 230.0 159.6, 229.2 160.1 Q 228.5 160.5, 227.9 161.5 L 226.4 160.8 " fill="#000000"/>
<path class="atom-19" d="M 242.1 172.3 Q 239.5 172.3, 238.3 170.4 Q 237.0 168.5, 237.0 165.2 Q 237.0 161.8, 238.3 159.9 Q 239.5 158.0, 242.1 158.0 Q 244.7 158.0, 245.9 159.9 Q 247.2 161.8, 247.2 165.2 Q 247.2 168.5, 245.9 170.4 Q 244.7 172.3, 242.1 172.3 M 242.1 170.7 Q 243.6 170.7, 244.4 169.3 Q 245.2 167.9, 245.2 165.2 Q 245.2 162.4, 244.4 161.0 Q 243.6 159.6, 242.1 159.6 Q 240.6 159.6, 239.8 161.0 Q 239.0 162.4, 239.0 165.2 Q 239.0 167.9, 239.8 169.3 Q 240.6 170.7, 242.1 170.7 " fill="#000000"/>
<path class="atom-20" d="M 297.3 289.9 L 299.2 289.9 L 299.2 295.8 L 306.3 295.8 L 306.3 289.9 L 308.2 289.9 L 308.2 303.8 L 306.3 303.8 L 306.3 297.4 L 299.2 297.4 L 299.2 303.8 L 297.3 303.8 L 297.3 289.9 " fill="#000000"/>
<path class="atom-20" d="M 309.9 301.5 L 311.9 301.5 L 311.9 303.5 L 309.9 303.5 L 309.9 301.5 M 309.9 294.7 L 311.9 294.7 L 311.9 296.7 L 309.9 296.7 L 309.9 294.7 " fill="#000000"/>
<path class="atom-20" d="M 313.4 292.5 Q 313.9 291.2, 315.1 290.4 Q 316.4 289.7, 318.1 289.7 Q 320.2 289.7, 321.3 290.8 Q 322.5 292.0, 322.5 294.0 Q 322.5 296.1, 321.0 298.0 Q 319.5 299.9, 316.3 302.2 L 322.8 302.2 L 322.8 303.8 L 313.4 303.8 L 313.4 302.5 Q 316.0 300.6, 317.5 299.3 Q 319.1 297.9, 319.8 296.6 Q 320.6 295.4, 320.6 294.1 Q 320.6 292.8, 319.9 292.0 Q 319.2 291.3, 318.1 291.3 Q 316.9 291.3, 316.2 291.7 Q 315.4 292.2, 314.9 293.2 L 313.4 292.5 " fill="#000000"/>
<path class="atom-20" d="M 324.7 302.2 L 327.8 302.2 L 327.8 291.8 L 324.4 292.9 L 324.0 291.7 L 328.2 289.8 L 329.6 290.0 L 329.6 302.2 L 332.4 302.2 L 332.4 303.8 L 324.7 303.8 L 324.7 302.2 " fill="#000000"/>
<path class="atom-21" d="M 185.7 314.0 L 187.6 314.0 L 187.6 320.0 L 194.8 320.0 L 194.8 314.0 L 196.7 314.0 L 196.7 328.0 L 194.8 328.0 L 194.8 321.6 L 187.6 321.6 L 187.6 328.0 L 185.7 328.0 L 185.7 314.0 " fill="#000000"/>
<path class="atom-21" d="M 198.3 325.7 L 200.3 325.7 L 200.3 327.7 L 198.3 327.7 L 198.3 325.7 M 198.3 318.9 L 200.3 318.9 L 200.3 320.9 L 198.3 320.9 L 198.3 318.9 " fill="#000000"/>
<path class="atom-21" d="M 201.8 316.7 Q 202.3 315.4, 203.6 314.6 Q 204.8 313.9, 206.5 313.9 Q 208.6 313.9, 209.8 315.0 Q 211.0 316.2, 211.0 318.2 Q 211.0 320.3, 209.4 322.2 Q 207.9 324.1, 204.8 326.4 L 211.2 326.4 L 211.2 328.0 L 201.8 328.0 L 201.8 326.7 Q 204.4 324.8, 205.9 323.5 Q 207.5 322.1, 208.2 320.8 Q 209.0 319.6, 209.0 318.3 Q 209.0 317.0, 208.3 316.2 Q 207.6 315.5, 206.5 315.5 Q 205.4 315.5, 204.6 315.9 Q 203.9 316.4, 203.3 317.4 L 201.8 316.7 " fill="#000000"/>
<path class="atom-21" d="M 212.4 316.7 Q 212.9 315.4, 214.2 314.6 Q 215.4 313.9, 217.1 313.9 Q 219.2 313.9, 220.4 315.0 Q 221.5 316.2, 221.5 318.2 Q 221.5 320.3, 220.0 322.2 Q 218.5 324.1, 215.3 326.4 L 221.8 326.4 L 221.8 328.0 L 212.4 328.0 L 212.4 326.7 Q 215.0 324.8, 216.5 323.5 Q 218.1 322.1, 218.8 320.8 Q 219.6 319.6, 219.6 318.3 Q 219.6 317.0, 218.9 316.2 Q 218.2 315.5, 217.1 315.5 Q 215.9 315.5, 215.2 315.9 Q 214.5 316.4, 213.9 317.4 L 212.4 316.7 " fill="#000000"/>
<path class="atom-22" d="M 274.2 344.7 L 276.1 344.7 L 276.1 350.6 L 283.2 350.6 L 283.2 344.7 L 285.1 344.7 L 285.1 358.7 L 283.2 358.7 L 283.2 352.2 L 276.1 352.2 L 276.1 358.7 L 274.2 358.7 L 274.2 344.7 " fill="#000000"/>
<path class="atom-22" d="M 286.8 356.4 L 288.8 356.4 L 288.8 358.3 L 286.8 358.3 L 286.8 356.4 M 286.8 349.6 L 288.8 349.6 L 288.8 351.6 L 286.8 351.6 L 286.8 349.6 " fill="#000000"/>
<path class="atom-22" d="M 290.3 347.4 Q 290.8 346.0, 292.0 345.3 Q 293.3 344.6, 295.0 344.6 Q 297.1 344.6, 298.2 345.7 Q 299.4 346.8, 299.4 348.9 Q 299.4 350.9, 297.9 352.9 Q 296.4 354.8, 293.2 357.1 L 299.7 357.1 L 299.7 358.7 L 290.3 358.7 L 290.3 357.4 Q 292.9 355.5, 294.4 354.1 Q 296.0 352.7, 296.7 351.5 Q 297.5 350.3, 297.5 349.0 Q 297.5 347.6, 296.8 346.9 Q 296.1 346.1, 295.0 346.1 Q 293.8 346.1, 293.1 346.6 Q 292.3 347.0, 291.8 348.0 L 290.3 347.4 " fill="#000000"/>
<path class="atom-22" d="M 307.6 351.3 Q 308.9 351.7, 309.6 352.6 Q 310.2 353.5, 310.2 354.8 Q 310.2 356.0, 309.6 357.0 Q 309.1 357.9, 308.0 358.4 Q 306.9 358.9, 305.5 358.9 Q 304.0 358.9, 302.8 358.4 Q 301.7 357.8, 300.9 356.8 L 302.0 355.6 Q 302.8 356.6, 303.6 356.9 Q 304.3 357.3, 305.5 357.3 Q 306.7 357.3, 307.5 356.6 Q 308.3 355.9, 308.3 354.8 Q 308.3 353.4, 307.5 352.8 Q 306.7 352.1, 305.0 352.1 L 303.9 352.1 L 303.9 350.7 L 304.8 350.7 Q 306.4 350.7, 307.2 350.0 Q 308.0 349.4, 308.0 348.1 Q 308.0 347.2, 307.3 346.7 Q 306.6 346.1, 305.5 346.1 Q 304.3 346.1, 303.6 346.5 Q 302.9 347.0, 302.3 348.0 L 301.0 347.3 Q 301.5 346.1, 302.6 345.3 Q 303.8 344.6, 305.5 344.6 Q 307.5 344.6, 308.7 345.5 Q 309.9 346.5, 309.9 348.1 Q 309.9 349.3, 309.3 350.1 Q 308.7 350.9, 307.6 351.3 " fill="#000000"/>
<path class="atom-23" d="M 434.0 264.0 L 435.9 264.0 L 435.9 269.9 L 443.0 269.9 L 443.0 264.0 L 444.9 264.0 L 444.9 277.9 L 443.0 277.9 L 443.0 271.5 L 435.9 271.5 L 435.9 277.9 L 434.0 277.9 L 434.0 264.0 " fill="#000000"/>
<path class="atom-23" d="M 446.6 275.6 L 448.6 275.6 L 448.6 277.6 L 446.6 277.6 L 446.6 275.6 M 446.6 268.8 L 448.6 268.8 L 448.6 270.8 L 446.6 270.8 L 446.6 268.8 " fill="#000000"/>
<path class="atom-23" d="M 450.1 266.6 Q 450.6 265.3, 451.8 264.6 Q 453.1 263.8, 454.8 263.8 Q 456.9 263.8, 458.0 264.9 Q 459.2 266.1, 459.2 268.1 Q 459.2 270.2, 457.7 272.1 Q 456.2 274.1, 453.0 276.3 L 459.5 276.3 L 459.5 277.9 L 450.1 277.9 L 450.1 276.6 Q 452.7 274.7, 454.2 273.4 Q 455.8 272.0, 456.5 270.7 Q 457.3 269.5, 457.3 268.2 Q 457.3 266.9, 456.6 266.1 Q 455.9 265.4, 454.8 265.4 Q 453.6 265.4, 452.9 265.8 Q 452.1 266.3, 451.6 267.3 L 450.1 266.6 " fill="#000000"/>
<path class="atom-23" d="M 469.7 273.1 L 471.4 273.1 L 471.4 274.7 L 469.7 274.7 L 469.7 277.9 L 467.9 277.9 L 467.9 274.7 L 460.6 274.7 L 460.6 273.5 L 466.8 264.0 L 469.7 264.0 L 469.7 273.1 M 462.9 273.1 L 467.9 273.1 L 467.9 265.2 L 462.9 273.1 " fill="#000000"/>
<path class="atom-24" d="M 314.9 295.9 L 316.7 295.9 L 316.7 301.8 L 323.9 301.8 L 323.9 295.9 L 325.8 295.9 L 325.8 309.8 L 323.9 309.8 L 323.9 303.4 L 316.7 303.4 L 316.7 309.8 L 314.9 309.8 L 314.9 295.9 " fill="#000000"/>
<path class="atom-24" d="M 327.5 307.5 L 329.4 307.5 L 329.4 309.5 L 327.5 309.5 L 327.5 307.5 M 327.5 300.8 L 329.4 300.8 L 329.4 302.7 L 327.5 302.7 L 327.5 300.8 " fill="#000000"/>
<path class="atom-24" d="M 330.9 298.5 Q 331.5 297.2, 332.7 296.5 Q 333.9 295.7, 335.6 295.7 Q 337.7 295.7, 338.9 296.9 Q 340.1 298.0, 340.1 300.0 Q 340.1 302.1, 338.5 304.1 Q 337.0 306.0, 333.9 308.3 L 340.3 308.3 L 340.3 309.8 L 330.9 309.8 L 330.9 308.5 Q 333.5 306.7, 335.0 305.3 Q 336.6 303.9, 337.4 302.7 Q 338.1 301.4, 338.1 300.1 Q 338.1 298.8, 337.4 298.1 Q 336.8 297.3, 335.6 297.3 Q 334.5 297.3, 333.7 297.8 Q 333.0 298.2, 332.4 299.2 L 330.9 298.5 " fill="#000000"/>
<path class="atom-24" d="M 346.6 301.1 Q 347.8 301.1, 348.8 301.6 Q 349.8 302.2, 350.4 303.1 Q 350.9 304.1, 350.9 305.4 Q 350.9 306.9, 350.2 307.9 Q 349.5 308.9, 348.4 309.5 Q 347.2 310.0, 345.9 310.0 Q 344.7 310.0, 343.5 309.5 Q 342.3 309.1, 341.5 308.2 L 342.7 306.9 Q 343.3 307.6, 344.2 308.0 Q 345.1 308.4, 346.0 308.4 Q 347.2 308.4, 348.1 307.6 Q 349.0 306.9, 349.0 305.5 Q 349.0 304.0, 348.1 303.3 Q 347.2 302.6, 345.9 302.6 Q 344.7 302.6, 343.3 303.1 L 342.2 302.6 L 342.9 295.9 L 350.1 295.9 L 349.9 297.5 L 344.5 297.5 L 344.1 301.6 Q 345.3 301.1, 346.6 301.1 " fill="#000000"/>
<path class="atom-25" d="M 441.0 228.6 L 442.9 228.6 L 442.9 234.5 L 450.0 234.5 L 450.0 228.6 L 451.9 228.6 L 451.9 242.5 L 450.0 242.5 L 450.0 236.1 L 442.9 236.1 L 442.9 242.5 L 441.0 242.5 L 441.0 228.6 " fill="#000000"/>
<path class="atom-25" d="M 453.6 240.2 L 455.5 240.2 L 455.5 242.2 L 453.6 242.2 L 453.6 240.2 M 453.6 233.4 L 455.5 233.4 L 455.5 235.4 L 453.6 235.4 L 453.6 233.4 " fill="#000000"/>
<path class="atom-25" d="M 457.0 231.2 Q 457.6 229.9, 458.8 229.1 Q 460.0 228.4, 461.7 228.4 Q 463.8 228.4, 465.0 229.5 Q 466.2 230.7, 466.2 232.7 Q 466.2 234.8, 464.6 236.7 Q 463.1 238.7, 460.0 240.9 L 466.4 240.9 L 466.4 242.5 L 457.0 242.5 L 457.0 241.2 Q 459.6 239.3, 461.1 238.0 Q 462.7 236.6, 463.5 235.3 Q 464.2 234.1, 464.2 232.8 Q 464.2 231.5, 463.5 230.7 Q 462.9 230.0, 461.7 230.0 Q 460.6 230.0, 459.8 230.4 Q 459.1 230.9, 458.5 231.9 L 457.0 231.2 " fill="#000000"/>
<path class="atom-25" d="M 473.1 233.8 Q 474.3 233.8, 475.2 234.3 Q 476.2 234.9, 476.7 235.8 Q 477.3 236.8, 477.3 238.0 Q 477.3 239.4, 476.7 240.4 Q 476.1 241.5, 475.0 242.1 Q 473.9 242.7, 472.6 242.7 Q 470.1 242.7, 468.8 241.0 Q 467.6 239.3, 467.6 235.9 Q 467.6 232.2, 469.1 230.3 Q 470.7 228.4, 473.7 228.4 Q 474.5 228.4, 475.3 228.6 Q 476.0 228.8, 476.7 229.2 L 476.0 230.5 Q 474.9 230.0, 473.7 230.0 Q 471.7 230.0, 470.7 231.3 Q 469.7 232.5, 469.6 235.1 Q 470.3 234.5, 471.2 234.2 Q 472.1 233.8, 473.1 233.8 M 472.6 241.1 Q 473.3 241.1, 474.0 240.7 Q 474.6 240.3, 474.9 239.6 Q 475.3 238.9, 475.3 238.0 Q 475.3 236.8, 474.6 236.1 Q 473.9 235.4, 472.7 235.4 Q 471.9 235.4, 471.0 235.7 Q 470.2 236.1, 469.6 236.7 Q 469.7 239.0, 470.4 240.0 Q 471.1 241.1, 472.6 241.1 " fill="#000000"/>
<path class="atom-26" d="M 340.9 163.8 L 342.8 163.8 L 342.8 169.7 L 349.9 169.7 L 349.9 163.8 L 351.8 163.8 L 351.8 177.7 L 349.9 177.7 L 349.9 171.3 L 342.8 171.3 L 342.8 177.7 L 340.9 177.7 L 340.9 163.8 " fill="#000000"/>
<path class="atom-26" d="M 353.5 175.4 L 355.4 175.4 L 355.4 177.4 L 353.5 177.4 L 353.5 175.4 M 353.5 168.6 L 355.4 168.6 L 355.4 170.6 L 353.5 170.6 L 353.5 168.6 " fill="#000000"/>
<path class="atom-26" d="M 357.0 166.4 Q 357.5 165.1, 358.7 164.3 Q 359.9 163.6, 361.6 163.6 Q 363.7 163.6, 364.9 164.7 Q 366.1 165.9, 366.1 167.9 Q 366.1 170.0, 364.5 171.9 Q 363.0 173.8, 359.9 176.1 L 366.3 176.1 L 366.3 177.7 L 356.9 177.7 L 356.9 176.4 Q 359.5 174.5, 361.1 173.2 Q 362.6 171.8, 363.4 170.5 Q 364.1 169.3, 364.1 168.0 Q 364.1 166.7, 363.4 165.9 Q 362.8 165.2, 361.6 165.2 Q 360.5 165.2, 359.7 165.6 Q 359.0 166.1, 358.5 167.1 L 357.0 166.4 " fill="#000000"/>
<path class="atom-26" d="M 374.8 165.3 L 367.5 165.3 L 367.5 163.8 L 376.8 163.8 L 376.8 165.2 L 371.1 177.7 L 369.2 177.7 L 374.8 165.3 " fill="#000000"/>
<path class="atom-27" d="M 22.7 213.5 L 24.6 213.5 L 24.6 219.4 L 31.8 219.4 L 31.8 213.5 L 33.6 213.5 L 33.6 227.5 L 31.8 227.5 L 31.8 221.0 L 24.6 221.0 L 24.6 227.5 L 22.7 227.5 L 22.7 213.5 " fill="#000000"/>
<path class="atom-27" d="M 35.3 225.1 L 37.3 225.1 L 37.3 227.1 L 35.3 227.1 L 35.3 225.1 M 35.3 218.4 L 37.3 218.4 L 37.3 220.3 L 35.3 220.3 L 35.3 218.4 " fill="#000000"/>
<path class="atom-27" d="M 38.8 216.1 Q 39.3 214.8, 40.5 214.1 Q 41.8 213.3, 43.5 213.3 Q 45.6 213.3, 46.8 214.5 Q 47.9 215.6, 47.9 217.7 Q 47.9 219.7, 46.4 221.7 Q 44.9 223.6, 41.7 225.9 L 48.2 225.9 L 48.2 227.5 L 38.8 227.5 L 38.8 226.1 Q 41.4 224.3, 42.9 222.9 Q 44.5 221.5, 45.2 220.3 Q 46.0 219.0, 46.0 217.8 Q 46.0 216.4, 45.3 215.7 Q 44.6 214.9, 43.5 214.9 Q 42.3 214.9, 41.6 215.4 Q 40.8 215.8, 40.3 216.8 L 38.8 216.1 " fill="#000000"/>
<path class="atom-27" d="M 56.5 220.1 Q 57.8 220.6, 58.5 221.4 Q 59.2 222.3, 59.2 223.6 Q 59.2 224.8, 58.6 225.7 Q 58.0 226.6, 56.9 227.2 Q 55.8 227.7, 54.4 227.7 Q 52.0 227.7, 50.7 226.6 Q 49.4 225.5, 49.4 223.6 Q 49.4 222.5, 50.0 221.6 Q 50.5 220.8, 51.8 220.1 Q 50.9 219.6, 50.4 218.9 Q 49.9 218.1, 49.9 216.9 Q 49.9 215.3, 51.1 214.3 Q 52.3 213.3, 54.3 213.3 Q 56.3 213.3, 57.5 214.3 Q 58.7 215.3, 58.7 216.9 Q 58.7 217.9, 58.1 218.7 Q 57.6 219.5, 56.5 220.1 M 54.3 214.8 Q 53.1 214.8, 52.5 215.4 Q 51.8 215.9, 51.8 216.9 Q 51.8 217.6, 52.3 218.1 Q 52.7 218.6, 53.3 218.9 Q 54.0 219.2, 55.2 219.6 Q 56.0 219.0, 56.4 218.3 Q 56.7 217.7, 56.7 216.9 Q 56.7 215.9, 56.1 215.4 Q 55.5 214.8, 54.3 214.8 M 54.4 226.2 Q 55.7 226.2, 56.5 225.5 Q 57.2 224.8, 57.2 223.6 Q 57.2 222.9, 56.8 222.4 Q 56.4 221.9, 55.8 221.6 Q 55.2 221.4, 54.1 221.0 L 53.2 220.7 Q 52.2 221.3, 51.8 222.0 Q 51.3 222.7, 51.3 223.6 Q 51.3 224.8, 52.2 225.5 Q 53.0 226.2, 54.4 226.2 " fill="#000000"/>
<path class="atom-28" d="M 403.3 326.6 L 405.2 326.6 L 405.2 332.5 L 412.4 332.5 L 412.4 326.6 L 414.3 326.6 L 414.3 340.5 L 412.4 340.5 L 412.4 334.1 L 405.2 334.1 L 405.2 340.5 L 403.3 340.5 L 403.3 326.6 " fill="#000000"/>
<path class="atom-28" d="M 415.9 338.2 L 417.9 338.2 L 417.9 340.2 L 415.9 340.2 L 415.9 338.2 M 415.9 331.4 L 417.9 331.4 L 417.9 333.4 L 415.9 333.4 L 415.9 331.4 " fill="#000000"/>
<path class="atom-28" d="M 419.4 329.2 Q 419.9 327.9, 421.2 327.1 Q 422.4 326.4, 424.1 326.4 Q 426.2 326.4, 427.4 327.5 Q 428.6 328.7, 428.6 330.7 Q 428.6 332.8, 427.0 334.7 Q 425.5 336.6, 422.4 338.9 L 428.8 338.9 L 428.8 340.5 L 419.4 340.5 L 419.4 339.2 Q 422.0 337.3, 423.5 336.0 Q 425.1 334.6, 425.8 333.3 Q 426.6 332.1, 426.6 330.8 Q 426.6 329.5, 425.9 328.7 Q 425.2 328.0, 424.1 328.0 Q 423.0 328.0, 422.2 328.4 Q 421.5 328.9, 420.9 329.9 L 419.4 329.2 " fill="#000000"/>
<path class="atom-28" d="M 434.7 326.4 Q 437.2 326.4, 438.4 328.1 Q 439.7 329.8, 439.7 333.1 Q 439.7 336.8, 438.1 338.8 Q 436.6 340.7, 433.6 340.7 Q 432.7 340.7, 432.0 340.5 Q 431.2 340.3, 430.5 339.9 L 431.3 338.5 Q 432.3 339.1, 433.6 339.1 Q 435.5 339.1, 436.5 337.8 Q 437.6 336.6, 437.7 333.9 Q 437.0 334.6, 436.1 334.9 Q 435.2 335.3, 434.2 335.3 Q 433.0 335.3, 432.0 334.7 Q 431.0 334.2, 430.5 333.2 Q 430.0 332.3, 430.0 331.1 Q 430.0 329.7, 430.6 328.6 Q 431.2 327.6, 432.2 327.0 Q 433.3 326.4, 434.7 326.4 M 432.0 331.0 Q 432.0 332.3, 432.6 333.0 Q 433.3 333.7, 434.6 333.7 Q 435.4 333.7, 436.2 333.4 Q 437.1 333.0, 437.7 332.4 Q 437.6 330.1, 436.9 329.1 Q 436.1 328.0, 434.7 328.0 Q 433.9 328.0, 433.3 328.4 Q 432.7 328.8, 432.3 329.5 Q 432.0 330.2, 432.0 331.0 " fill="#000000"/>
<path class="atom-29" d="M 436.2 159.0 L 438.1 159.0 L 438.1 164.9 L 445.2 164.9 L 445.2 159.0 L 447.1 159.0 L 447.1 173.0 L 445.2 173.0 L 445.2 166.5 L 438.1 166.5 L 438.1 173.0 L 436.2 173.0 L 436.2 159.0 " fill="#000000"/>
<path class="atom-29" d="M 448.8 170.7 L 450.8 170.7 L 450.8 172.6 L 448.8 172.6 L 448.8 170.7 M 448.8 163.9 L 450.8 163.9 L 450.8 165.9 L 448.8 165.9 L 448.8 163.9 " fill="#000000"/>
<path class="atom-29" d="M 459.0 165.6 Q 460.3 166.0, 461.0 166.9 Q 461.7 167.8, 461.7 169.1 Q 461.7 170.3, 461.1 171.3 Q 460.5 172.2, 459.4 172.7 Q 458.3 173.2, 456.9 173.2 Q 455.4 173.2, 454.3 172.7 Q 453.2 172.1, 452.3 171.1 L 453.4 169.9 Q 454.3 170.9, 455.0 171.2 Q 455.7 171.6, 456.9 171.6 Q 458.1 171.6, 458.9 170.9 Q 459.7 170.2, 459.7 169.1 Q 459.7 167.7, 458.9 167.1 Q 458.1 166.4, 456.4 166.4 L 455.4 166.4 L 455.4 165.0 L 456.2 165.0 Q 457.8 165.0, 458.6 164.3 Q 459.4 163.7, 459.4 162.4 Q 459.4 161.5, 458.7 161.0 Q 458.0 160.4, 456.9 160.4 Q 455.7 160.4, 455.0 160.8 Q 454.3 161.3, 453.7 162.3 L 452.4 161.6 Q 452.9 160.4, 454.1 159.6 Q 455.2 158.9, 456.9 158.9 Q 458.9 158.9, 460.2 159.8 Q 461.4 160.8, 461.4 162.4 Q 461.4 163.5, 460.7 164.4 Q 460.1 165.2, 459.0 165.6 " fill="#000000"/>
<path class="atom-29" d="M 467.9 173.1 Q 465.4 173.1, 464.1 171.2 Q 462.8 169.3, 462.8 166.0 Q 462.8 162.6, 464.1 160.7 Q 465.3 158.9, 467.9 158.9 Q 470.5 158.9, 471.8 160.7 Q 473.0 162.6, 473.0 166.0 Q 473.0 169.3, 471.7 171.2 Q 470.5 173.1, 467.9 173.1 M 467.9 171.6 Q 469.4 171.6, 470.2 170.2 Q 471.1 168.7, 471.1 166.0 Q 471.1 163.2, 470.2 161.8 Q 469.4 160.4, 467.9 160.4 Q 466.4 160.4, 465.6 161.8 Q 464.8 163.2, 464.8 166.0 Q 464.8 168.7, 465.6 170.2 Q 466.4 171.6, 467.9 171.6 " fill="#000000"/>
<text x="304.33167286492153" y="225.9610402486679" font-size="12" font-family="Verdana" font-weight="bold" letter-spacing="0" text-anchor="start" fill="black" transform=" rotate(-78.898819 304.331673 225.961040)">0.0022</text><text x="25" y="490" font-size="12" font-family="Verdana" font-weight="bold" letter-spacing="0" text-anchor="start" fill="black">[#7:1](-[#6:2](-[#6:3](-[#7:4](-[#6:15](-[H:24])(-[H:25])-[H:29])-[#6:16](-[H:26])(-[H:27])-[H:30])(-[H:6])-[H:7])=[#8:5])(-[#6:8]1:[#6:12](:[#6:10](:[#6:9](:[#6:11](:[#6:13]:1-[H:20])-[H:18])-[H:28])-[H:17])-[H:19])-[#6:14](-[H:21])(-[H:22])-[H:23]</text></svg>
