<?xml version='1.0' encoding='ASCII' standalone='yes'?>
<svg xmlns="http://www.w3.org/2000/svg" xmlns:rdkit="http://www.rdkit.org/xml" xmlns:xlink="http://www.w3.org/1999/xlink" version="1.1" baseProfile="full" xml:space="preserve" width="500px" height="500px" viewBox="0 0 500 500">
<!-- END OF HEADER -->
<rect style="opacity:1.0;fill:#FFFFFF;stroke:none" width="500.0" height="500.0" x="0.0" y="0.0"> </rect>
<path class="bond-1 atom-1 atom-2" d="M 247.7,258.4 L 280.1,221.2" style="fill:none;fill-rule:evenodd;stroke:#FF7F7F;stroke-width:10.5px;stroke-linecap:butt;stroke-linejoin:miter;stroke-opacity:1"/>
<path class="bond-0 atom-1 atom-0" d="M 233.6,255.6 L 223.2,253.5" style="fill:none;fill-rule:evenodd;stroke:#0000FF;stroke-width:2.0px;stroke-linecap:butt;stroke-linejoin:miter;stroke-opacity:1"/>
<path class="bond-0 atom-1 atom-0" d="M 223.2,253.5 L 212.7,251.5" style="fill:none;fill-rule:evenodd;stroke:#000000;stroke-width:2.0px;stroke-linecap:butt;stroke-linejoin:miter;stroke-opacity:1"/>
<path class="bond-1 atom-1 atom-2" d="M 255.3,249.7 L 263.9,239.9" style="fill:none;fill-rule:evenodd;stroke:#0000FF;stroke-width:2.0px;stroke-linecap:butt;stroke-linejoin:miter;stroke-opacity:1"/>
<path class="bond-1 atom-1 atom-2" d="M 263.9,239.9 L 272.4,230.1" style="fill:none;fill-rule:evenodd;stroke:#000000;stroke-width:2.0px;stroke-linecap:butt;stroke-linejoin:miter;stroke-opacity:1"/>
<path class="bond-2 atom-1 atom-4" d="M 251.0,267.9 L 255.9,282.1" style="fill:none;fill-rule:evenodd;stroke:#0000FF;stroke-width:2.0px;stroke-linecap:butt;stroke-linejoin:miter;stroke-opacity:1"/>
<path class="bond-2 atom-1 atom-4" d="M 255.9,282.1 L 260.7,296.3" style="fill:none;fill-rule:evenodd;stroke:#000000;stroke-width:2.0px;stroke-linecap:butt;stroke-linejoin:miter;stroke-opacity:1"/>
<path class="bond-3 atom-2 atom-3" d="M 293.9,223.9 L 306.5,226.4" style="fill:none;fill-rule:evenodd;stroke:#000000;stroke-width:2.0px;stroke-linecap:butt;stroke-linejoin:miter;stroke-opacity:1"/>
<path class="bond-4 atom-2 atom-5" d="M 272.5,214.2 L 267.5,199.6" style="fill:none;fill-rule:evenodd;stroke:#000000;stroke-width:2.0px;stroke-linecap:butt;stroke-linejoin:miter;stroke-opacity:1"/>
<path class="bond-4 atom-2 atom-5" d="M 267.5,199.6 L 262.6,185.1" style="fill:none;fill-rule:evenodd;stroke:#FF0000;stroke-width:2.0px;stroke-linecap:butt;stroke-linejoin:miter;stroke-opacity:1"/>
<path class="bond-4 atom-2 atom-5" d="M 281.8,211.0 L 276.9,196.4" style="fill:none;fill-rule:evenodd;stroke:#000000;stroke-width:2.0px;stroke-linecap:butt;stroke-linejoin:miter;stroke-opacity:1"/>
<path class="bond-4 atom-2 atom-5" d="M 276.9,196.4 L 271.9,181.9" style="fill:none;fill-rule:evenodd;stroke:#FF0000;stroke-width:2.0px;stroke-linecap:butt;stroke-linejoin:miter;stroke-opacity:1"/>
<path class="bond-5 atom-3 atom-15" d="M 327.9,239.4 L 326.3,262.0" style="fill:none;fill-rule:evenodd;stroke:#000000;stroke-width:2.0px;stroke-linecap:butt;stroke-linejoin:miter;stroke-opacity:1"/>
<path class="bond-6 atom-3 atom-16" d="M 330.2,222.2 L 336.3,191.0" style="fill:none;fill-rule:evenodd;stroke:#000000;stroke-width:2.0px;stroke-linecap:butt;stroke-linejoin:miter;stroke-opacity:1"/>
<path class="bond-7 atom-4 atom-11" d="M 256.7,307.4 L 223.4,318.8" style="fill:none;fill-rule:evenodd;stroke:#000000;stroke-width:2.0px;stroke-linecap:butt;stroke-linejoin:miter;stroke-opacity:1"/>
<path class="bond-8 atom-4 atom-12" d="M 284.4,300.7 L 295.7,298.3" style="fill:none;fill-rule:evenodd;stroke:#000000;stroke-width:2.0px;stroke-linecap:butt;stroke-linejoin:miter;stroke-opacity:1"/>
<path class="bond-9 atom-4 atom-13" d="M 266.7,313.8 L 276.8,343.1" style="fill:none;fill-rule:evenodd;stroke:#000000;stroke-width:2.0px;stroke-linecap:butt;stroke-linejoin:miter;stroke-opacity:1"/>
<path class="bond-10 atom-6 atom-0" d="M 174.4,277.5 L 191.7,257.7" style="fill:none;fill-rule:evenodd;stroke:#000000;stroke-width:2.0px;stroke-linecap:butt;stroke-linejoin:miter;stroke-opacity:1"/>
<path class="bond-10 atom-6 atom-0" d="M 169.6,268.1 L 181.7,254.2" style="fill:none;fill-rule:evenodd;stroke:#000000;stroke-width:2.0px;stroke-linecap:butt;stroke-linejoin:miter;stroke-opacity:1"/>
<path class="bond-11 atom-6 atom-17" d="M 170.0,294.8 L 180.0,324.1" style="fill:none;fill-rule:evenodd;stroke:#000000;stroke-width:2.0px;stroke-linecap:butt;stroke-linejoin:miter;stroke-opacity:1"/>
<path class="bond-12 atom-7 atom-8" d="M 105.7,238.8 L 115.7,267.9" style="fill:none;fill-rule:evenodd;stroke:#000000;stroke-width:2.0px;stroke-linecap:butt;stroke-linejoin:miter;stroke-opacity:1"/>
<path class="bond-12 atom-7 atom-8" d="M 116.5,239.9 L 123.5,260.3" style="fill:none;fill-rule:evenodd;stroke:#000000;stroke-width:2.0px;stroke-linecap:butt;stroke-linejoin:miter;stroke-opacity:1"/>
<path class="bond-13 atom-7 atom-9" d="M 110.2,221.2 L 127.3,201.6" style="fill:none;fill-rule:evenodd;stroke:#000000;stroke-width:2.0px;stroke-linecap:butt;stroke-linejoin:miter;stroke-opacity:1"/>
<path class="bond-14 atom-7 atom-27" d="M 88.6,227.2 L 60.8,221.7" style="fill:none;fill-rule:evenodd;stroke:#000000;stroke-width:2.0px;stroke-linecap:butt;stroke-linejoin:miter;stroke-opacity:1"/>
<path class="bond-15 atom-8 atom-6" d="M 132.6,279.3 L 153.2,283.3" style="fill:none;fill-rule:evenodd;stroke:#000000;stroke-width:2.0px;stroke-linecap:butt;stroke-linejoin:miter;stroke-opacity:1"/>
<path class="bond-16 atom-8 atom-18" d="M 110.9,285.4 L 92.7,306.3" style="fill:none;fill-rule:evenodd;stroke:#000000;stroke-width:2.0px;stroke-linecap:butt;stroke-linejoin:miter;stroke-opacity:1"/>
<path class="bond-17 atom-9 atom-10" d="M 153.9,196.5 L 165.5,198.7" style="fill:none;fill-rule:evenodd;stroke:#000000;stroke-width:2.0px;stroke-linecap:butt;stroke-linejoin:miter;stroke-opacity:1"/>
<path class="bond-17 atom-9 atom-10" d="M 153.7,206.5 L 161.8,208.1" style="fill:none;fill-rule:evenodd;stroke:#000000;stroke-width:2.0px;stroke-linecap:butt;stroke-linejoin:miter;stroke-opacity:1"/>
<path class="bond-18 atom-9 atom-19" d="M 132.1,184.2 L 122.1,154.8" style="fill:none;fill-rule:evenodd;stroke:#000000;stroke-width:2.0px;stroke-linecap:butt;stroke-linejoin:miter;stroke-opacity:1"/>
<path class="bond-19 atom-10 atom-0" d="M 186.4,210.9 L 196.4,240.2" style="fill:none;fill-rule:evenodd;stroke:#000000;stroke-width:2.0px;stroke-linecap:butt;stroke-linejoin:miter;stroke-opacity:1"/>
<path class="bond-20 atom-10 atom-20" d="M 190.9,193.7 L 208.8,173.2" style="fill:none;fill-rule:evenodd;stroke:#000000;stroke-width:2.0px;stroke-linecap:butt;stroke-linejoin:miter;stroke-opacity:1"/>
<path class="bond-21 atom-14 atom-3" d="M 358.1,236.5 L 346.8,234.3" style="fill:none;fill-rule:evenodd;stroke:#0000FF;stroke-width:2.0px;stroke-linecap:butt;stroke-linejoin:miter;stroke-opacity:1"/>
<path class="bond-21 atom-14 atom-3" d="M 346.8,234.3 L 335.5,232.1" style="fill:none;fill-rule:evenodd;stroke:#000000;stroke-width:2.0px;stroke-linecap:butt;stroke-linejoin:miter;stroke-opacity:1"/>
<path class="bond-22 atom-14 atom-21" d="M 379.8,248.8 L 384.9,263.5" style="fill:none;fill-rule:evenodd;stroke:#0000FF;stroke-width:2.0px;stroke-linecap:butt;stroke-linejoin:miter;stroke-opacity:1"/>
<path class="bond-22 atom-14 atom-21" d="M 384.9,263.5 L 389.9,278.2" style="fill:none;fill-rule:evenodd;stroke:#000000;stroke-width:2.0px;stroke-linecap:butt;stroke-linejoin:miter;stroke-opacity:1"/>
<path class="bond-23 atom-14 atom-22" d="M 384.4,231.6 L 393.0,221.8" style="fill:none;fill-rule:evenodd;stroke:#0000FF;stroke-width:2.0px;stroke-linecap:butt;stroke-linejoin:miter;stroke-opacity:1"/>
<path class="bond-23 atom-14 atom-22" d="M 393.0,221.8 L 401.6,211.9" style="fill:none;fill-rule:evenodd;stroke:#000000;stroke-width:2.0px;stroke-linecap:butt;stroke-linejoin:miter;stroke-opacity:1"/>
<path class="bond-24 atom-21 atom-23" d="M 411.9,280.3 L 432.4,273.3" style="fill:none;fill-rule:evenodd;stroke:#000000;stroke-width:2.0px;stroke-linecap:butt;stroke-linejoin:miter;stroke-opacity:1"/>
<path class="bond-25 atom-21 atom-24" d="M 373.7,293.4 L 352.5,300.6" style="fill:none;fill-rule:evenodd;stroke:#000000;stroke-width:2.0px;stroke-linecap:butt;stroke-linejoin:miter;stroke-opacity:1"/>
<path class="bond-26 atom-21 atom-28" d="M 395.8,295.5 L 405.9,325.0" style="fill:none;fill-rule:evenodd;stroke:#000000;stroke-width:2.0px;stroke-linecap:butt;stroke-linejoin:miter;stroke-opacity:1"/>
<path class="bond-27 atom-22 atom-25" d="M 419.4,211.9 L 439.4,229.3" style="fill:none;fill-rule:evenodd;stroke:#000000;stroke-width:2.0px;stroke-linecap:butt;stroke-linejoin:miter;stroke-opacity:1"/>
<path class="bond-28 atom-22 atom-26" d="M 399.3,194.4 L 378.4,176.1" style="fill:none;fill-rule:evenodd;stroke:#000000;stroke-width:2.0px;stroke-linecap:butt;stroke-linejoin:miter;stroke-opacity:1"/>
<path class="bond-29 atom-22 atom-29" d="M 416.8,194.4 L 434.6,174.0" style="fill:none;fill-rule:evenodd;stroke:#000000;stroke-width:2.0px;stroke-linecap:butt;stroke-linejoin:miter;stroke-opacity:1"/>
<path class="atom-0" d="M 187.7 248.9 Q 187.7 245.5, 189.3 243.7 Q 190.9 241.8, 194.0 241.8 Q 196.9 241.8, 198.4 243.9 L 197.1 244.9 Q 196.0 243.4, 194.0 243.4 Q 191.9 243.4, 190.8 244.9 Q 189.7 246.3, 189.7 248.9 Q 189.7 251.7, 190.8 253.1 Q 192.0 254.5, 194.2 254.5 Q 195.8 254.5, 197.6 253.6 L 198.1 255.1 Q 197.4 255.6, 196.3 255.8 Q 195.2 256.1, 194.0 256.1 Q 190.9 256.1, 189.3 254.3 Q 187.7 252.4, 187.7 248.9 " fill="#000000"/>
<path class="atom-0" d="M 199.2 253.6 L 201.2 253.6 L 201.2 255.6 L 199.2 255.6 L 199.2 253.6 M 199.2 246.9 L 201.2 246.9 L 201.2 248.8 L 199.2 248.8 L 199.2 246.9 " fill="#000000"/>
<path class="atom-0" d="M 203.4 254.4 L 206.5 254.4 L 206.5 243.9 L 203.1 245.0 L 202.7 243.8 L 207.0 241.9 L 208.4 242.1 L 208.4 254.4 L 211.1 254.4 L 211.1 255.9 L 203.4 255.9 L 203.4 254.4 " fill="#000000"/>
<path class="atom-1" d="M 237.4 251.5 L 242.0 258.9 Q 242.4 259.6, 243.2 260.9 Q 243.9 262.2, 243.9 262.3 L 243.9 251.5 L 245.8 251.5 L 245.8 265.4 L 243.9 265.4 L 239.0 257.4 Q 238.4 256.4, 237.8 255.3 Q 237.2 254.2, 237.0 253.9 L 237.0 265.4 L 235.2 265.4 L 235.2 251.5 L 237.4 251.5 " fill="#0000FF"/>
<path class="atom-1" d="M 247.4 263.1 L 249.4 263.1 L 249.4 265.1 L 247.4 265.1 L 247.4 263.1 M 247.4 256.3 L 249.4 256.3 L 249.4 258.3 L 247.4 258.3 L 247.4 256.3 " fill="#0000FF"/>
<path class="atom-1" d="M 250.9 254.1 Q 251.4 252.8, 252.7 252.1 Q 253.9 251.3, 255.6 251.3 Q 257.7 251.3, 258.9 252.5 Q 260.1 253.6, 260.1 255.6 Q 260.1 257.7, 258.5 259.6 Q 257.0 261.6, 253.8 263.9 L 260.3 263.9 L 260.3 265.4 L 250.9 265.4 L 250.9 264.1 Q 253.5 262.3, 255.0 260.9 Q 256.6 259.5, 257.3 258.3 Q 258.1 257.0, 258.1 255.7 Q 258.1 254.4, 257.4 253.6 Q 256.7 252.9, 255.6 252.9 Q 254.5 252.9, 253.7 253.3 Q 253.0 253.8, 252.4 254.8 L 250.9 254.1 " fill="#0000FF"/>
<path class="atom-2" d="M 268.0 221.3 Q 268.0 217.8, 269.6 216.0 Q 271.2 214.2, 274.3 214.2 Q 277.2 214.2, 278.7 216.2 L 277.4 217.3 Q 276.3 215.8, 274.3 215.8 Q 272.2 215.8, 271.1 217.2 Q 270.0 218.6, 270.0 221.3 Q 270.0 224.1, 271.1 225.5 Q 272.3 226.9, 274.5 226.9 Q 276.1 226.9, 277.9 226.0 L 278.4 227.4 Q 277.7 227.9, 276.6 228.2 Q 275.5 228.5, 274.2 228.5 Q 271.2 228.5, 269.6 226.6 Q 268.0 224.8, 268.0 221.3 " fill="#000000"/>
<path class="atom-2" d="M 279.5 226.0 L 281.5 226.0 L 281.5 228.0 L 279.5 228.0 L 279.5 226.0 M 279.5 219.2 L 281.5 219.2 L 281.5 221.2 L 279.5 221.2 L 279.5 219.2 " fill="#000000"/>
<path class="atom-2" d="M 289.7 220.9 Q 291.0 221.3, 291.7 222.2 Q 292.3 223.1, 292.3 224.5 Q 292.3 225.7, 291.8 226.6 Q 291.2 227.5, 290.1 228.0 Q 289.0 228.5, 287.6 228.5 Q 286.1 228.5, 284.9 228.0 Q 283.8 227.4, 283.0 226.4 L 284.1 225.2 Q 284.9 226.2, 285.7 226.6 Q 286.4 226.9, 287.6 226.9 Q 288.8 226.9, 289.6 226.2 Q 290.4 225.6, 290.4 224.4 Q 290.4 223.0, 289.6 222.4 Q 288.8 221.7, 287.1 221.7 L 286.1 221.7 L 286.1 220.3 L 286.9 220.3 Q 288.5 220.3, 289.3 219.7 Q 290.1 219.0, 290.1 217.7 Q 290.1 216.8, 289.4 216.3 Q 288.7 215.8, 287.6 215.8 Q 286.4 215.8, 285.7 216.2 Q 285.0 216.6, 284.4 217.6 L 283.1 216.9 Q 283.6 215.7, 284.8 215.0 Q 285.9 214.2, 287.6 214.2 Q 289.6 214.2, 290.8 215.1 Q 292.0 216.1, 292.0 217.7 Q 292.0 218.9, 291.4 219.7 Q 290.8 220.5, 289.7 220.9 " fill="#000000"/>
<path class="atom-3" d="M 308.1 230.8 Q 308.1 227.3, 309.8 225.5 Q 311.4 223.7, 314.5 223.7 Q 317.4 223.7, 318.9 225.7 L 317.6 226.8 Q 316.5 225.3, 314.5 225.3 Q 312.4 225.3, 311.3 226.7 Q 310.1 228.1, 310.1 230.8 Q 310.1 233.5, 311.3 235.0 Q 312.5 236.4, 314.7 236.4 Q 316.2 236.4, 318.0 235.5 L 318.6 236.9 Q 317.9 237.4, 316.8 237.7 Q 315.7 238.0, 314.4 238.0 Q 311.4 238.0, 309.8 236.1 Q 308.1 234.3, 308.1 230.8 " fill="#000000"/>
<path class="atom-3" d="M 319.7 235.5 L 321.7 235.5 L 321.7 237.4 L 319.7 237.4 L 319.7 235.5 M 319.7 228.7 L 321.7 228.7 L 321.7 230.7 L 319.7 230.7 L 319.7 228.7 " fill="#000000"/>
<path class="atom-3" d="M 332.2 233.0 L 333.9 233.0 L 333.9 234.6 L 332.2 234.6 L 332.2 237.8 L 330.4 237.8 L 330.4 234.6 L 323.1 234.6 L 323.1 233.3 L 329.3 223.8 L 332.2 223.8 L 332.2 233.0 M 325.4 233.0 L 330.4 233.0 L 330.4 225.1 L 325.4 233.0 " fill="#000000"/>
<path class="atom-4" d="M 258.3 305.1 Q 258.3 301.6, 259.9 299.8 Q 261.6 297.9, 264.7 297.9 Q 267.6 297.9, 269.1 300.0 L 267.8 301.0 Q 266.7 299.6, 264.7 299.6 Q 262.6 299.6, 261.4 301.0 Q 260.3 302.4, 260.3 305.1 Q 260.3 307.8, 261.5 309.2 Q 262.6 310.7, 264.9 310.7 Q 266.4 310.7, 268.2 309.7 L 268.8 311.2 Q 268.0 311.7, 266.9 312.0 Q 265.8 312.2, 264.6 312.2 Q 261.6 312.2, 259.9 310.4 Q 258.3 308.5, 258.3 305.1 " fill="#000000"/>
<path class="atom-4" d="M 269.9 309.8 L 271.9 309.8 L 271.9 311.7 L 269.9 311.7 L 269.9 309.8 M 269.9 303.0 L 271.9 303.0 L 271.9 304.9 L 269.9 304.9 L 269.9 303.0 " fill="#000000"/>
<path class="atom-4" d="M 278.4 303.3 Q 279.6 303.3, 280.6 303.9 Q 281.6 304.4, 282.2 305.4 Q 282.8 306.3, 282.8 307.6 Q 282.8 309.1, 282.1 310.1 Q 281.4 311.2, 280.2 311.7 Q 279.1 312.2, 277.8 312.2 Q 276.5 312.2, 275.3 311.7 Q 274.1 311.3, 273.3 310.4 L 274.5 309.1 Q 275.2 309.9, 276.1 310.2 Q 276.9 310.6, 277.8 310.6 Q 279.1 310.6, 279.9 309.9 Q 280.8 309.1, 280.8 307.7 Q 280.8 306.2, 279.9 305.5 Q 279.1 304.8, 277.7 304.8 Q 276.5 304.8, 275.1 305.3 L 274.1 304.8 L 274.7 298.1 L 281.9 298.1 L 281.7 299.7 L 276.3 299.7 L 275.9 303.8 Q 277.2 303.3, 278.4 303.3 " fill="#000000"/>
<path class="atom-5" d="M 257.8 174.6 Q 257.8 171.3, 259.4 169.4 Q 261.1 167.5, 264.2 167.5 Q 267.3 167.5, 268.9 169.4 Q 270.6 171.3, 270.6 174.6 Q 270.6 178.0, 268.9 180.0 Q 267.2 181.9, 264.2 181.9 Q 261.1 181.9, 259.4 180.0 Q 257.8 178.1, 257.8 174.6 M 264.2 180.3 Q 266.3 180.3, 267.5 178.9 Q 268.6 177.4, 268.6 174.6 Q 268.6 171.9, 267.5 170.5 Q 266.3 169.1, 264.2 169.1 Q 262.1 169.1, 260.9 170.5 Q 259.7 171.9, 259.7 174.6 Q 259.7 177.5, 260.9 178.9 Q 262.1 180.3, 264.2 180.3 " fill="#FF0000"/>
<path class="atom-5" d="M 271.6 179.4 L 273.6 179.4 L 273.6 181.3 L 271.6 181.3 L 271.6 179.4 M 271.6 172.6 L 273.6 172.6 L 273.6 174.5 L 271.6 174.5 L 271.6 172.6 " fill="#FF0000"/>
<path class="atom-5" d="M 280.5 173.0 Q 281.7 173.0, 282.7 173.5 Q 283.6 174.0, 284.2 175.0 Q 284.7 175.9, 284.7 177.2 Q 284.7 178.5, 284.1 179.6 Q 283.5 180.6, 282.4 181.2 Q 281.4 181.8, 280.0 181.8 Q 277.5 181.8, 276.3 180.1 Q 275.0 178.5, 275.0 175.1 Q 275.0 171.4, 276.6 169.5 Q 278.1 167.5, 281.1 167.5 Q 282.0 167.5, 282.7 167.7 Q 283.4 167.9, 284.2 168.4 L 283.4 169.7 Q 282.4 169.1, 281.1 169.1 Q 279.1 169.1, 278.1 170.4 Q 277.1 171.7, 277.0 174.3 Q 277.7 173.6, 278.6 173.3 Q 279.5 173.0, 280.5 173.0 M 280.0 180.2 Q 280.8 180.2, 281.4 179.8 Q 282.0 179.4, 282.4 178.7 Q 282.7 178.0, 282.7 177.2 Q 282.7 175.9, 282.0 175.2 Q 281.4 174.5, 280.1 174.5 Q 279.3 174.5, 278.4 174.9 Q 277.6 175.2, 277.0 175.8 Q 277.1 178.1, 277.8 179.2 Q 278.6 180.2, 280.0 180.2 " fill="#FF0000"/>
<path class="atom-6" d="M 154.8 286.1 Q 154.8 282.6, 156.5 280.8 Q 158.1 279.0, 161.2 279.0 Q 164.1 279.0, 165.6 281.0 L 164.3 282.1 Q 163.2 280.6, 161.2 280.6 Q 159.1 280.6, 158.0 282.0 Q 156.9 283.4, 156.9 286.1 Q 156.9 288.8, 158.0 290.3 Q 159.2 291.7, 161.4 291.7 Q 163.0 291.7, 164.7 290.8 L 165.3 292.2 Q 164.6 292.7, 163.5 293.0 Q 162.4 293.3, 161.1 293.3 Q 158.1 293.3, 156.5 291.4 Q 154.8 289.6, 154.8 286.1 " fill="#000000"/>
<path class="atom-6" d="M 166.4 290.8 L 168.4 290.8 L 168.4 292.7 L 166.4 292.7 L 166.4 290.8 M 166.4 284.0 L 168.4 284.0 L 168.4 286.0 L 166.4 286.0 L 166.4 284.0 " fill="#000000"/>
<path class="atom-6" d="M 177.2 280.7 L 169.9 280.7 L 169.9 279.1 L 179.1 279.1 L 179.1 280.5 L 173.5 293.1 L 171.6 293.1 L 177.2 280.7 " fill="#000000"/>
<path class="atom-7" d="M 90.2 230.0 Q 90.2 226.5, 91.8 224.7 Q 93.5 222.8, 96.6 222.8 Q 99.5 222.8, 101.0 224.9 L 99.7 225.9 Q 98.6 224.5, 96.6 224.5 Q 94.5 224.5, 93.3 225.9 Q 92.2 227.3, 92.2 230.0 Q 92.2 232.7, 93.4 234.1 Q 94.5 235.6, 96.8 235.6 Q 98.3 235.6, 100.1 234.6 L 100.7 236.1 Q 99.9 236.6, 98.8 236.9 Q 97.7 237.1, 96.5 237.1 Q 93.5 237.1, 91.8 235.3 Q 90.2 233.4, 90.2 230.0 " fill="#000000"/>
<path class="atom-7" d="M 101.8 234.7 L 103.7 234.7 L 103.7 236.6 L 101.8 236.6 L 101.8 234.7 M 101.8 227.9 L 103.7 227.9 L 103.7 229.8 L 101.8 229.8 L 101.8 227.9 " fill="#000000"/>
<path class="atom-7" d="M 112.3 229.6 Q 113.6 230.1, 114.4 231.0 Q 115.1 231.8, 115.1 233.1 Q 115.1 234.3, 114.5 235.2 Q 113.9 236.2, 112.8 236.7 Q 111.7 237.2, 110.2 237.2 Q 107.9 237.2, 106.6 236.1 Q 105.2 235.0, 105.2 233.1 Q 105.2 232.0, 105.8 231.1 Q 106.4 230.3, 107.6 229.6 Q 106.7 229.1, 106.2 228.4 Q 105.7 227.6, 105.7 226.4 Q 105.7 224.8, 106.9 223.8 Q 108.1 222.8, 110.2 222.8 Q 112.2 222.8, 113.4 223.8 Q 114.6 224.8, 114.6 226.4 Q 114.6 227.4, 114.0 228.2 Q 113.4 229.0, 112.3 229.6 M 110.2 224.3 Q 109.0 224.3, 108.3 224.9 Q 107.7 225.4, 107.7 226.4 Q 107.7 227.1, 108.1 227.6 Q 108.6 228.1, 109.2 228.4 Q 109.8 228.7, 111.0 229.1 Q 111.9 228.5, 112.2 227.9 Q 112.6 227.2, 112.6 226.4 Q 112.6 225.4, 112.0 224.9 Q 111.3 224.3, 110.2 224.3 M 110.2 235.7 Q 111.5 235.7, 112.3 235.0 Q 113.1 234.3, 113.1 233.1 Q 113.1 232.4, 112.7 231.9 Q 112.3 231.4, 111.7 231.1 Q 111.0 230.9, 109.9 230.5 L 109.1 230.2 Q 108.1 230.8, 107.6 231.5 Q 107.2 232.2, 107.2 233.1 Q 107.2 234.3, 108.0 235.0 Q 108.9 235.7, 110.2 235.7 " fill="#000000"/>
<path class="atom-8" d="M 106.3 276.6 Q 106.3 273.1, 107.9 271.3 Q 109.5 269.5, 112.6 269.5 Q 115.5 269.5, 117.0 271.5 L 115.7 272.6 Q 114.6 271.1, 112.6 271.1 Q 110.5 271.1, 109.4 272.5 Q 108.3 273.9, 108.3 276.6 Q 108.3 279.4, 109.4 280.8 Q 110.6 282.2, 112.8 282.2 Q 114.4 282.2, 116.2 281.3 L 116.7 282.7 Q 116.0 283.2, 114.9 283.5 Q 113.8 283.8, 112.6 283.8 Q 109.5 283.8, 107.9 281.9 Q 106.3 280.1, 106.3 276.6 " fill="#000000"/>
<path class="atom-8" d="M 117.8 281.3 L 119.8 281.3 L 119.8 283.3 L 117.8 283.3 L 117.8 281.3 M 117.8 274.5 L 119.8 274.5 L 119.8 276.5 L 117.8 276.5 L 117.8 274.5 " fill="#000000"/>
<path class="atom-8" d="M 126.0 269.5 Q 128.5 269.5, 129.7 271.2 Q 131.0 272.8, 131.0 276.2 Q 131.0 279.9, 129.4 281.8 Q 127.9 283.8, 124.9 283.8 Q 124.0 283.8, 123.3 283.6 Q 122.5 283.4, 121.8 282.9 L 122.6 281.6 Q 123.6 282.2, 124.9 282.2 Q 126.8 282.2, 127.8 280.9 Q 128.9 279.6, 129.0 277.0 Q 128.3 277.7, 127.4 278.0 Q 126.5 278.4, 125.5 278.4 Q 124.3 278.4, 123.3 277.8 Q 122.3 277.3, 121.8 276.3 Q 121.3 275.4, 121.3 274.1 Q 121.3 272.8, 121.9 271.7 Q 122.5 270.7, 123.5 270.1 Q 124.6 269.5, 126.0 269.5 M 123.3 274.1 Q 123.3 275.4, 123.9 276.1 Q 124.6 276.8, 125.9 276.8 Q 126.7 276.8, 127.5 276.4 Q 128.4 276.1, 129.0 275.5 Q 128.9 273.2, 128.2 272.1 Q 127.4 271.1, 126.0 271.1 Q 125.2 271.1, 124.6 271.5 Q 124.0 271.9, 123.6 272.6 Q 123.3 273.3, 123.3 274.1 " fill="#000000"/>
<path class="atom-9" d="M 117.8 192.8 Q 117.8 189.4, 119.4 187.5 Q 121.1 185.7, 124.2 185.7 Q 127.1 185.7, 128.6 187.7 L 127.3 188.8 Q 126.2 187.3, 124.2 187.3 Q 122.1 187.3, 120.9 188.7 Q 119.8 190.1, 119.8 192.8 Q 119.8 195.6, 121.0 197.0 Q 122.1 198.4, 124.4 198.4 Q 125.9 198.4, 127.7 197.5 L 128.3 199.0 Q 127.5 199.4, 126.4 199.7 Q 125.3 200.0, 124.1 200.0 Q 121.1 200.0, 119.4 198.1 Q 117.8 196.3, 117.8 192.8 " fill="#000000"/>
<path class="atom-9" d="M 129.4 197.5 L 131.3 197.5 L 131.3 199.5 L 129.4 199.5 L 129.4 197.5 M 129.4 190.7 L 131.3 190.7 L 131.3 192.7 L 129.4 192.7 L 129.4 190.7 " fill="#000000"/>
<path class="atom-9" d="M 133.6 198.2 L 136.7 198.2 L 136.7 187.8 L 133.3 188.9 L 132.8 187.7 L 137.1 185.8 L 138.5 186.0 L 138.5 198.2 L 141.2 198.2 L 141.2 199.8 L 133.6 199.8 L 133.6 198.2 " fill="#000000"/>
<path class="atom-9" d="M 147.2 200.0 Q 144.6 200.0, 143.3 198.1 Q 142.1 196.2, 142.1 192.8 Q 142.1 189.5, 143.3 187.6 Q 144.6 185.7, 147.2 185.7 Q 149.8 185.7, 151.0 187.6 Q 152.3 189.5, 152.3 192.8 Q 152.3 196.2, 151.0 198.1 Q 149.7 200.0, 147.2 200.0 M 147.2 198.4 Q 148.7 198.4, 149.5 197.0 Q 150.3 195.6, 150.3 192.8 Q 150.3 190.1, 149.5 188.7 Q 148.7 187.3, 147.2 187.3 Q 145.7 187.3, 144.9 188.7 Q 144.0 190.1, 144.0 192.8 Q 144.0 195.6, 144.9 197.0 Q 145.7 198.4, 147.2 198.4 " fill="#000000"/>
<path class="atom-10" d="M 167.1 202.3 Q 167.1 198.8, 168.7 197.0 Q 170.3 195.2, 173.4 195.2 Q 176.3 195.2, 177.9 197.2 L 176.5 198.3 Q 175.4 196.8, 173.4 196.8 Q 171.3 196.8, 170.2 198.2 Q 169.1 199.6, 169.1 202.3 Q 169.1 205.1, 170.2 206.5 Q 171.4 207.9, 173.7 207.9 Q 175.2 207.9, 177.0 207.0 L 177.5 208.5 Q 176.8 208.9, 175.7 209.2 Q 174.6 209.5, 173.4 209.5 Q 170.3 209.5, 168.7 207.6 Q 167.1 205.8, 167.1 202.3 " fill="#000000"/>
<path class="atom-10" d="M 178.6 207.0 L 180.6 207.0 L 180.6 209.0 L 178.6 209.0 L 178.6 207.0 M 178.6 200.2 L 180.6 200.2 L 180.6 202.2 L 178.6 202.2 L 178.6 200.2 " fill="#000000"/>
<path class="atom-10" d="M 182.9 207.7 L 185.9 207.7 L 185.9 197.3 L 182.5 198.4 L 182.1 197.2 L 186.4 195.3 L 187.8 195.5 L 187.8 207.7 L 190.5 207.7 L 190.5 209.3 L 182.9 209.3 L 182.9 207.7 " fill="#000000"/>
<path class="atom-10" d="M 192.1 207.7 L 195.2 207.7 L 195.2 197.3 L 191.8 198.4 L 191.3 197.2 L 195.6 195.3 L 197.0 195.5 L 197.0 207.7 L 199.8 207.7 L 199.8 209.3 L 192.1 209.3 L 192.1 207.7 " fill="#000000"/>
<path class="atom-11" d="M 187.1 314.1 L 189.0 314.1 L 189.0 320.0 L 196.1 320.0 L 196.1 314.1 L 198.0 314.1 L 198.0 328.0 L 196.1 328.0 L 196.1 321.6 L 189.0 321.6 L 189.0 328.0 L 187.1 328.0 L 187.1 314.1 " fill="#000000"/>
<path class="atom-11" d="M 199.7 325.7 L 201.7 325.7 L 201.7 327.7 L 199.7 327.7 L 199.7 325.7 M 199.7 318.9 L 201.7 318.9 L 201.7 320.9 L 199.7 320.9 L 199.7 318.9 " fill="#000000"/>
<path class="atom-11" d="M 203.9 326.5 L 207.0 326.5 L 207.0 316.0 L 203.6 317.1 L 203.1 315.9 L 207.4 314.0 L 208.8 314.2 L 208.8 326.5 L 211.6 326.5 L 211.6 328.0 L 203.9 328.0 L 203.9 326.5 " fill="#000000"/>
<path class="atom-11" d="M 212.4 316.7 Q 212.9 315.4, 214.2 314.7 Q 215.4 313.9, 217.1 313.9 Q 219.2 313.9, 220.4 315.1 Q 221.5 316.2, 221.5 318.2 Q 221.5 320.3, 220.0 322.2 Q 218.5 324.2, 215.3 326.5 L 221.8 326.5 L 221.8 328.0 L 212.4 328.0 L 212.4 326.7 Q 215.0 324.9, 216.5 323.5 Q 218.1 322.1, 218.8 320.9 Q 219.6 319.6, 219.6 318.3 Q 219.6 317.0, 218.9 316.2 Q 218.2 315.5, 217.1 315.5 Q 215.9 315.5, 215.2 315.9 Q 214.5 316.4, 213.9 317.4 L 212.4 316.7 " fill="#000000"/>
<path class="atom-12" d="M 297.3 289.9 L 299.2 289.9 L 299.2 295.8 L 306.3 295.8 L 306.3 289.9 L 308.2 289.9 L 308.2 303.8 L 306.3 303.8 L 306.3 297.4 L 299.2 297.4 L 299.2 303.8 L 297.3 303.8 L 297.3 289.9 " fill="#000000"/>
<path class="atom-12" d="M 309.9 301.5 L 311.9 301.5 L 311.9 303.5 L 309.9 303.5 L 309.9 301.5 M 309.9 294.7 L 311.9 294.7 L 311.9 296.7 L 309.9 296.7 L 309.9 294.7 " fill="#000000"/>
<path class="atom-12" d="M 314.1 302.3 L 317.2 302.3 L 317.2 291.8 L 313.8 292.9 L 313.4 291.7 L 317.6 289.8 L 319.0 290.0 L 319.0 302.3 L 321.8 302.3 L 321.8 303.8 L 314.1 303.8 L 314.1 302.3 " fill="#000000"/>
<path class="atom-12" d="M 329.3 296.5 Q 330.7 296.9, 331.3 297.8 Q 332.0 298.6, 332.0 300.0 Q 332.0 301.2, 331.4 302.1 Q 330.8 303.0, 329.7 303.5 Q 328.6 304.0, 327.2 304.0 Q 325.7 304.0, 324.6 303.5 Q 323.5 303.0, 322.6 301.9 L 323.7 300.8 Q 324.6 301.7, 325.3 302.1 Q 326.1 302.5, 327.2 302.5 Q 328.5 302.5, 329.3 301.8 Q 330.0 301.1, 330.0 300.0 Q 330.0 298.6, 329.2 297.9 Q 328.4 297.3, 326.7 297.3 L 325.7 297.3 L 325.7 295.9 L 326.6 295.9 Q 328.1 295.8, 328.9 295.2 Q 329.7 294.5, 329.7 293.3 Q 329.7 292.4, 329.1 291.8 Q 328.4 291.3, 327.2 291.3 Q 326.1 291.3, 325.4 291.7 Q 324.6 292.1, 324.1 293.2 L 322.7 292.4 Q 323.2 291.3, 324.4 290.5 Q 325.6 289.7, 327.2 289.7 Q 329.3 289.7, 330.5 290.7 Q 331.7 291.6, 331.7 293.3 Q 331.7 294.4, 331.1 295.2 Q 330.5 296.0, 329.3 296.5 " fill="#000000"/>
<path class="atom-13" d="M 274.2 344.7 L 276.1 344.7 L 276.1 350.6 L 283.2 350.6 L 283.2 344.7 L 285.1 344.7 L 285.1 358.7 L 283.2 358.7 L 283.2 352.2 L 276.1 352.2 L 276.1 358.7 L 274.2 358.7 L 274.2 344.7 " fill="#000000"/>
<path class="atom-13" d="M 286.8 356.3 L 288.8 356.3 L 288.8 358.3 L 286.8 358.3 L 286.8 356.3 M 286.8 349.6 L 288.8 349.6 L 288.8 351.5 L 286.8 351.5 L 286.8 349.6 " fill="#000000"/>
<path class="atom-13" d="M 291.0 357.1 L 294.1 357.1 L 294.1 346.6 L 290.7 347.7 L 290.3 346.5 L 294.5 344.6 L 295.9 344.9 L 295.9 357.1 L 298.7 357.1 L 298.7 358.7 L 291.0 358.7 L 291.0 357.1 " fill="#000000"/>
<path class="atom-13" d="M 308.6 353.9 L 310.3 353.9 L 310.3 355.4 L 308.6 355.4 L 308.6 358.7 L 306.7 358.7 L 306.7 355.4 L 299.5 355.4 L 299.5 354.2 L 305.6 344.7 L 308.6 344.7 L 308.6 353.9 M 301.8 353.9 L 306.7 353.9 L 306.7 346.0 L 301.8 353.9 " fill="#000000"/>
<path class="atom-14" d="M 361.9 233.3 L 366.5 240.7 Q 366.9 241.4, 367.7 242.7 Q 368.4 244.0, 368.4 244.1 L 368.4 233.3 L 370.3 233.3 L 370.3 247.2 L 368.4 247.2 L 363.5 239.2 Q 362.9 238.2, 362.3 237.1 Q 361.7 236.0, 361.5 235.7 L 361.5 247.2 L 359.7 247.2 L 359.7 233.3 L 361.9 233.3 " fill="#0000FF"/>
<path class="atom-14" d="M 371.9 244.9 L 373.9 244.9 L 373.9 246.9 L 371.9 246.9 L 371.9 244.9 M 371.9 238.1 L 373.9 238.1 L 373.9 240.1 L 371.9 240.1 L 371.9 238.1 " fill="#0000FF"/>
<path class="atom-14" d="M 376.1 245.7 L 379.2 245.7 L 379.2 235.2 L 375.8 236.3 L 375.4 235.1 L 379.6 233.2 L 381.0 233.4 L 381.0 245.7 L 383.8 245.7 L 383.8 247.2 L 376.1 247.2 L 376.1 245.7 " fill="#0000FF"/>
<path class="atom-14" d="M 389.7 238.5 Q 390.9 238.5, 391.9 239.0 Q 392.9 239.5, 393.5 240.5 Q 394.1 241.5, 394.1 242.8 Q 394.1 244.3, 393.4 245.3 Q 392.7 246.3, 391.5 246.9 Q 390.4 247.4, 389.1 247.4 Q 387.8 247.4, 386.6 246.9 Q 385.4 246.4, 384.6 245.5 L 385.8 244.3 Q 386.4 245.0, 387.3 245.4 Q 388.2 245.8, 389.1 245.8 Q 390.4 245.8, 391.2 245.0 Q 392.1 244.3, 392.1 242.9 Q 392.1 241.4, 391.2 240.7 Q 390.4 240.0, 389.0 240.0 Q 387.8 240.0, 386.4 240.5 L 385.3 240.0 L 386.0 233.3 L 393.2 233.3 L 393.0 234.9 L 387.6 234.9 L 387.2 239.0 Q 388.5 238.5, 389.7 238.5 " fill="#0000FF"/>
<path class="atom-15" d="M 320.2 263.6 L 322.1 263.6 L 322.1 269.6 L 329.2 269.6 L 329.2 263.6 L 331.1 263.6 L 331.1 277.6 L 329.2 277.6 L 329.2 271.2 L 322.1 271.2 L 322.1 277.6 L 320.2 277.6 L 320.2 263.6 " fill="#000000"/>
<path class="atom-15" d="M 332.8 275.3 L 334.8 275.3 L 334.8 277.3 L 332.8 277.3 L 332.8 275.3 M 332.8 268.5 L 334.8 268.5 L 334.8 270.5 L 332.8 270.5 L 332.8 268.5 " fill="#000000"/>
<path class="atom-15" d="M 337.0 276.0 L 340.1 276.0 L 340.1 265.6 L 336.7 266.6 L 336.2 265.5 L 340.5 263.6 L 341.9 263.8 L 341.9 276.0 L 344.7 276.0 L 344.7 277.6 L 337.0 277.6 L 337.0 276.0 " fill="#000000"/>
<path class="atom-15" d="M 351.0 268.9 Q 352.2 268.9, 353.1 269.4 Q 354.1 270.0, 354.6 270.9 Q 355.2 271.9, 355.2 273.1 Q 355.2 274.5, 354.6 275.5 Q 354.0 276.6, 352.9 277.2 Q 351.8 277.8, 350.5 277.8 Q 348.0 277.8, 346.7 276.1 Q 345.5 274.4, 345.5 271.0 Q 345.5 267.3, 347.0 265.4 Q 348.6 263.5, 351.6 263.5 Q 352.4 263.5, 353.2 263.7 Q 353.9 263.9, 354.6 264.3 L 353.9 265.6 Q 352.8 265.1, 351.6 265.1 Q 349.6 265.1, 348.6 266.3 Q 347.6 267.6, 347.5 270.2 Q 348.2 269.6, 349.1 269.2 Q 350.0 268.9, 351.0 268.9 M 350.5 276.1 Q 351.2 276.1, 351.9 275.8 Q 352.5 275.4, 352.8 274.7 Q 353.2 274.0, 353.2 273.1 Q 353.2 271.9, 352.5 271.2 Q 351.8 270.5, 350.6 270.5 Q 349.8 270.5, 348.9 270.8 Q 348.1 271.2, 347.5 271.7 Q 347.6 274.1, 348.3 275.1 Q 349.0 276.1, 350.5 276.1 " fill="#000000"/>
<path class="atom-16" d="M 332.5 175.4 L 334.4 175.4 L 334.4 181.4 L 341.6 181.4 L 341.6 175.4 L 343.5 175.4 L 343.5 189.4 L 341.6 189.4 L 341.6 182.9 L 334.4 182.9 L 334.4 189.4 L 332.5 189.4 L 332.5 175.4 " fill="#000000"/>
<path class="atom-16" d="M 345.1 187.1 L 347.1 187.1 L 347.1 189.0 L 345.1 189.0 L 345.1 187.1 M 345.1 180.3 L 347.1 180.3 L 347.1 182.3 L 345.1 182.3 L 345.1 180.3 " fill="#000000"/>
<path class="atom-16" d="M 349.4 187.8 L 352.4 187.8 L 352.4 177.4 L 349.0 178.4 L 348.6 177.3 L 352.9 175.3 L 354.3 175.6 L 354.3 187.8 L 357.0 187.8 L 357.0 189.4 L 349.4 189.4 L 349.4 187.8 " fill="#000000"/>
<path class="atom-16" d="M 365.2 177.0 L 357.8 177.0 L 357.8 175.4 L 367.1 175.4 L 367.1 176.8 L 361.5 189.4 L 359.6 189.4 L 365.2 177.0 " fill="#000000"/>
<path class="atom-17" d="M 177.5 325.8 L 179.4 325.8 L 179.4 331.7 L 186.5 331.7 L 186.5 325.8 L 188.4 325.8 L 188.4 339.7 L 186.5 339.7 L 186.5 333.3 L 179.4 333.3 L 179.4 339.7 L 177.5 339.7 L 177.5 325.8 " fill="#000000"/>
<path class="atom-17" d="M 190.1 337.4 L 192.1 337.4 L 192.1 339.4 L 190.1 339.4 L 190.1 337.4 M 190.1 330.6 L 192.1 330.6 L 192.1 332.6 L 190.1 332.6 L 190.1 330.6 " fill="#000000"/>
<path class="atom-17" d="M 194.3 338.1 L 197.4 338.1 L 197.4 327.7 L 194.0 328.8 L 193.5 327.6 L 197.8 325.7 L 199.2 325.9 L 199.2 338.1 L 202.0 338.1 L 202.0 339.7 L 194.3 339.7 L 194.3 338.1 " fill="#000000"/>
<path class="atom-17" d="M 209.9 332.3 Q 211.2 332.9, 211.9 333.7 Q 212.6 334.5, 212.6 335.9 Q 212.6 337.1, 212.0 338.0 Q 211.4 338.9, 210.3 339.4 Q 209.2 339.9, 207.8 339.9 Q 205.5 339.9, 204.1 338.8 Q 202.8 337.8, 202.8 335.9 Q 202.8 334.7, 203.4 333.9 Q 204.0 333.0, 205.2 332.4 Q 204.3 331.9, 203.8 331.1 Q 203.3 330.3, 203.3 329.2 Q 203.3 327.5, 204.5 326.6 Q 205.7 325.6, 207.7 325.6 Q 209.7 325.6, 210.9 326.6 Q 212.1 327.5, 212.1 329.2 Q 212.1 330.2, 211.6 331.0 Q 211.0 331.7, 209.9 332.3 M 207.7 327.1 Q 206.5 327.1, 205.9 327.6 Q 205.3 328.2, 205.3 329.2 Q 205.3 329.9, 205.7 330.4 Q 206.1 330.9, 206.7 331.1 Q 207.4 331.4, 208.6 331.8 Q 209.4 331.2, 209.8 330.6 Q 210.2 330.0, 210.2 329.2 Q 210.2 328.2, 209.5 327.6 Q 208.9 327.1, 207.7 327.1 M 207.8 338.4 Q 209.1 338.4, 209.9 337.7 Q 210.7 337.0, 210.7 335.9 Q 210.7 335.1, 210.3 334.6 Q 209.8 334.2, 209.2 333.9 Q 208.6 333.6, 207.5 333.3 L 206.6 333.0 Q 205.6 333.6, 205.2 334.3 Q 204.8 335.0, 204.8 335.9 Q 204.8 337.0, 205.6 337.7 Q 206.4 338.4, 207.8 338.4 " fill="#000000"/>
<path class="atom-18" d="M 56.1 306.8 L 58.0 306.8 L 58.0 312.7 L 65.1 312.7 L 65.1 306.8 L 67.0 306.8 L 67.0 320.7 L 65.1 320.7 L 65.1 314.3 L 58.0 314.3 L 58.0 320.7 L 56.1 320.7 L 56.1 306.8 " fill="#000000"/>
<path class="atom-18" d="M 68.7 318.4 L 70.7 318.4 L 70.7 320.4 L 68.7 320.4 L 68.7 318.4 M 68.7 311.6 L 70.7 311.6 L 70.7 313.6 L 68.7 313.6 L 68.7 311.6 " fill="#000000"/>
<path class="atom-18" d="M 72.9 319.2 L 76.0 319.2 L 76.0 308.7 L 72.6 309.8 L 72.1 308.6 L 76.4 306.7 L 77.8 306.9 L 77.8 319.2 L 80.6 319.2 L 80.6 320.7 L 72.9 320.7 L 72.9 319.2 " fill="#000000"/>
<path class="atom-18" d="M 86.1 306.6 Q 88.6 306.6, 89.8 308.3 Q 91.1 310.0, 91.1 313.3 Q 91.1 317.0, 89.5 319.0 Q 88.0 320.9, 85.0 320.9 Q 84.1 320.9, 83.4 320.7 Q 82.6 320.5, 81.9 320.1 L 82.7 318.8 Q 83.7 319.3, 85.0 319.3 Q 86.9 319.3, 87.9 318.1 Q 88.9 316.8, 89.1 314.1 Q 88.4 314.8, 87.5 315.2 Q 86.6 315.5, 85.6 315.5 Q 84.4 315.5, 83.4 315.0 Q 82.4 314.4, 81.9 313.5 Q 81.4 312.5, 81.4 311.3 Q 81.4 309.9, 82.0 308.9 Q 82.6 307.8, 83.6 307.2 Q 84.7 306.6, 86.1 306.6 M 83.3 311.3 Q 83.3 312.5, 84.0 313.2 Q 84.7 313.9, 86.0 313.9 Q 86.8 313.9, 87.6 313.6 Q 88.5 313.2, 89.1 312.6 Q 89.0 310.3, 88.3 309.3 Q 87.5 308.2, 86.1 308.2 Q 85.3 308.2, 84.7 308.6 Q 84.1 309.0, 83.7 309.7 Q 83.3 310.4, 83.3 311.3 " fill="#000000"/>
<path class="atom-19" d="M 113.6 139.2 L 115.5 139.2 L 115.5 145.2 L 122.7 145.2 L 122.7 139.2 L 124.6 139.2 L 124.6 153.2 L 122.7 153.2 L 122.7 146.7 L 115.5 146.7 L 115.5 153.2 L 113.6 153.2 L 113.6 139.2 " fill="#000000"/>
<path class="atom-19" d="M 126.2 150.9 L 128.2 150.9 L 128.2 152.9 L 126.2 152.9 L 126.2 150.9 M 126.2 144.1 L 128.2 144.1 L 128.2 146.1 L 126.2 146.1 L 126.2 144.1 " fill="#000000"/>
<path class="atom-19" d="M 129.7 141.9 Q 130.2 140.6, 131.5 139.8 Q 132.7 139.1, 134.4 139.1 Q 136.5 139.1, 137.7 140.2 Q 138.8 141.4, 138.8 143.4 Q 138.8 145.5, 137.3 147.4 Q 135.8 149.3, 132.6 151.6 L 139.1 151.6 L 139.1 153.2 L 129.7 153.2 L 129.7 151.9 Q 132.3 150.0, 133.8 148.6 Q 135.4 147.3, 136.1 146.0 Q 136.9 144.8, 136.9 143.5 Q 136.9 142.2, 136.2 141.4 Q 135.5 140.7, 134.4 140.7 Q 133.2 140.7, 132.5 141.1 Q 131.7 141.6, 131.2 142.6 L 129.7 141.9 " fill="#000000"/>
<path class="atom-19" d="M 145.4 153.4 Q 142.8 153.4, 141.5 151.5 Q 140.3 149.6, 140.3 146.2 Q 140.3 142.8, 141.5 141.0 Q 142.8 139.1, 145.4 139.1 Q 148.0 139.1, 149.2 141.0 Q 150.5 142.8, 150.5 146.2 Q 150.5 149.6, 149.2 151.5 Q 147.9 153.4, 145.4 153.4 M 145.4 151.8 Q 146.9 151.8, 147.7 150.4 Q 148.5 149.0, 148.5 146.2 Q 148.5 143.5, 147.7 142.1 Q 146.9 140.7, 145.4 140.7 Q 143.9 140.7, 143.0 142.1 Q 142.2 143.5, 142.2 146.2 Q 142.2 149.0, 143.0 150.4 Q 143.9 151.8, 145.4 151.8 " fill="#000000"/>
<path class="atom-20" d="M 210.4 158.2 L 212.3 158.2 L 212.3 164.2 L 219.4 164.2 L 219.4 158.2 L 221.3 158.2 L 221.3 172.2 L 219.4 172.2 L 219.4 165.7 L 212.3 165.7 L 212.3 172.2 L 210.4 172.2 L 210.4 158.2 " fill="#000000"/>
<path class="atom-20" d="M 223.0 169.9 L 224.9 169.9 L 224.9 171.8 L 223.0 171.8 L 223.0 169.9 M 223.0 163.1 L 224.9 163.1 L 224.9 165.1 L 223.0 165.1 L 223.0 163.1 " fill="#000000"/>
<path class="atom-20" d="M 226.4 160.9 Q 227.0 159.5, 228.2 158.8 Q 229.4 158.1, 231.1 158.1 Q 233.2 158.1, 234.4 159.2 Q 235.6 160.3, 235.6 162.4 Q 235.6 164.4, 234.0 166.4 Q 232.5 168.3, 229.4 170.6 L 235.8 170.6 L 235.8 172.2 L 226.4 172.2 L 226.4 170.9 Q 229.0 169.0, 230.5 167.6 Q 232.1 166.2, 232.9 165.0 Q 233.6 163.8, 233.6 162.5 Q 233.6 161.1, 232.9 160.4 Q 232.3 159.6, 231.1 159.6 Q 230.0 159.6, 229.2 160.1 Q 228.5 160.5, 227.9 161.5 L 226.4 160.9 " fill="#000000"/>
<path class="atom-20" d="M 237.8 170.6 L 240.8 170.6 L 240.8 160.2 L 237.4 161.2 L 237.0 160.0 L 241.3 158.1 L 242.7 158.4 L 242.7 170.6 L 245.4 170.6 L 245.4 172.2 L 237.8 172.2 L 237.8 170.6 " fill="#000000"/>
<path class="atom-21" d="M 375.3 286.9 Q 375.3 283.4, 377.0 281.6 Q 378.6 279.8, 381.7 279.8 Q 384.6 279.8, 386.1 281.8 L 384.8 282.9 Q 383.7 281.4, 381.7 281.4 Q 379.6 281.4, 378.5 282.8 Q 377.4 284.2, 377.4 286.9 Q 377.4 289.7, 378.5 291.1 Q 379.7 292.5, 381.9 292.5 Q 383.4 292.5, 385.2 291.6 L 385.8 293.1 Q 385.1 293.5, 384.0 293.8 Q 382.9 294.1, 381.6 294.1 Q 378.6 294.1, 377.0 292.2 Q 375.3 290.4, 375.3 286.9 " fill="#000000"/>
<path class="atom-21" d="M 386.9 291.6 L 388.9 291.6 L 388.9 293.6 L 386.9 293.6 L 386.9 291.6 M 386.9 284.8 L 388.9 284.8 L 388.9 286.8 L 386.9 286.8 L 386.9 284.8 " fill="#000000"/>
<path class="atom-21" d="M 390.4 282.6 Q 390.9 281.3, 392.1 280.5 Q 393.3 279.8, 395.0 279.8 Q 397.2 279.8, 398.3 280.9 Q 399.5 282.1, 399.5 284.1 Q 399.5 286.2, 398.0 288.1 Q 396.5 290.0, 393.3 292.3 L 399.8 292.3 L 399.8 293.9 L 390.3 293.9 L 390.3 292.6 Q 393.0 290.7, 394.5 289.3 Q 396.0 288.0, 396.8 286.7 Q 397.5 285.5, 397.5 284.2 Q 397.5 282.9, 396.9 282.1 Q 396.2 281.4, 395.0 281.4 Q 393.9 281.4, 393.2 281.8 Q 392.4 282.3, 391.9 283.3 L 390.4 282.6 " fill="#000000"/>
<path class="atom-21" d="M 401.0 282.6 Q 401.5 281.3, 402.7 280.5 Q 403.9 279.8, 405.6 279.8 Q 407.7 279.8, 408.9 280.9 Q 410.1 282.1, 410.1 284.1 Q 410.1 286.2, 408.6 288.1 Q 407.0 290.0, 403.9 292.3 L 410.3 292.3 L 410.3 293.9 L 400.9 293.9 L 400.9 292.6 Q 403.5 290.7, 405.1 289.3 Q 406.6 288.0, 407.4 286.7 Q 408.1 285.5, 408.1 284.2 Q 408.1 282.9, 407.5 282.1 Q 406.8 281.4, 405.6 281.4 Q 404.5 281.4, 403.8 281.8 Q 403.0 282.3, 402.5 283.3 L 401.0 282.6 " fill="#000000"/>
<path class="atom-22" d="M 391.8 203.1 Q 391.8 199.7, 393.4 197.9 Q 395.0 196.0, 398.1 196.0 Q 401.0 196.0, 402.6 198.0 L 401.3 199.1 Q 400.1 197.6, 398.1 197.6 Q 396.0 197.6, 394.9 199.1 Q 393.8 200.5, 393.8 203.1 Q 393.8 205.9, 394.9 207.3 Q 396.1 208.7, 398.4 208.7 Q 399.9 208.7, 401.7 207.8 L 402.2 209.3 Q 401.5 209.8, 400.4 210.0 Q 399.3 210.3, 398.1 210.3 Q 395.0 210.3, 393.4 208.5 Q 391.8 206.6, 391.8 203.1 " fill="#000000"/>
<path class="atom-22" d="M 403.3 207.8 L 405.3 207.8 L 405.3 209.8 L 403.3 209.8 L 403.3 207.8 M 403.3 201.0 L 405.3 201.0 L 405.3 203.0 L 403.3 203.0 L 403.3 201.0 " fill="#000000"/>
<path class="atom-22" d="M 406.8 198.8 Q 407.3 197.5, 408.6 196.8 Q 409.8 196.0, 411.5 196.0 Q 413.6 196.0, 414.8 197.2 Q 416.0 198.3, 416.0 200.3 Q 416.0 202.4, 414.4 204.3 Q 412.9 206.3, 409.8 208.6 L 416.2 208.6 L 416.2 210.1 L 406.8 210.1 L 406.8 208.8 Q 409.4 207.0, 410.9 205.6 Q 412.5 204.2, 413.2 203.0 Q 414.0 201.7, 414.0 200.4 Q 414.0 199.1, 413.3 198.3 Q 412.7 197.6, 411.5 197.6 Q 410.4 197.6, 409.6 198.0 Q 408.9 198.5, 408.3 199.5 L 406.8 198.8 " fill="#000000"/>
<path class="atom-22" d="M 424.1 202.8 Q 425.4 203.2, 426.1 204.1 Q 426.8 204.9, 426.8 206.3 Q 426.8 207.5, 426.2 208.4 Q 425.6 209.3, 424.5 209.8 Q 423.4 210.3, 422.0 210.3 Q 420.5 210.3, 419.4 209.8 Q 418.3 209.3, 417.4 208.2 L 418.5 207.1 Q 419.4 208.0, 420.1 208.4 Q 420.8 208.8, 422.0 208.8 Q 423.3 208.8, 424.0 208.1 Q 424.8 207.4, 424.8 206.3 Q 424.8 204.9, 424.0 204.2 Q 423.2 203.6, 421.5 203.6 L 420.5 203.6 L 420.5 202.2 L 421.4 202.2 Q 422.9 202.1, 423.7 201.5 Q 424.5 200.8, 424.5 199.6 Q 424.5 198.7, 423.8 198.1 Q 423.2 197.6, 422.0 197.6 Q 420.9 197.6, 420.1 198.0 Q 419.4 198.4, 418.9 199.5 L 417.5 198.7 Q 418.0 197.6, 419.2 196.8 Q 420.4 196.0, 422.0 196.0 Q 424.1 196.0, 425.3 197.0 Q 426.5 197.9, 426.5 199.6 Q 426.5 200.7, 425.9 201.5 Q 425.2 202.3, 424.1 202.8 " fill="#000000"/>
<path class="atom-23" d="M 434.0 264.0 L 435.9 264.0 L 435.9 269.9 L 443.0 269.9 L 443.0 264.0 L 444.9 264.0 L 444.9 277.9 L 443.0 277.9 L 443.0 271.5 L 435.9 271.5 L 435.9 277.9 L 434.0 277.9 L 434.0 264.0 " fill="#000000"/>
<path class="atom-23" d="M 446.6 275.6 L 448.6 275.6 L 448.6 277.6 L 446.6 277.6 L 446.6 275.6 M 446.6 268.9 L 448.6 268.9 L 448.6 270.8 L 446.6 270.8 L 446.6 268.9 " fill="#000000"/>
<path class="atom-23" d="M 450.1 266.6 Q 450.6 265.3, 451.8 264.6 Q 453.1 263.8, 454.8 263.8 Q 456.9 263.8, 458.0 265.0 Q 459.2 266.1, 459.2 268.1 Q 459.2 270.2, 457.7 272.1 Q 456.2 274.1, 453.0 276.4 L 459.5 276.4 L 459.5 277.9 L 450.1 277.9 L 450.1 276.6 Q 452.7 274.8, 454.2 273.4 Q 455.8 272.0, 456.5 270.8 Q 457.3 269.5, 457.3 268.2 Q 457.3 266.9, 456.6 266.1 Q 455.9 265.4, 454.8 265.4 Q 453.6 265.4, 452.9 265.9 Q 452.1 266.3, 451.6 267.3 L 450.1 266.6 " fill="#000000"/>
<path class="atom-23" d="M 469.7 273.1 L 471.4 273.1 L 471.4 274.7 L 469.7 274.7 L 469.7 277.9 L 467.9 277.9 L 467.9 274.7 L 460.6 274.7 L 460.6 273.5 L 466.8 264.0 L 469.7 264.0 L 469.7 273.1 M 462.9 273.1 L 467.9 273.1 L 467.9 265.2 L 462.9 273.1 " fill="#000000"/>
<path class="atom-24" d="M 314.9 295.9 L 316.7 295.9 L 316.7 301.8 L 323.9 301.8 L 323.9 295.9 L 325.8 295.9 L 325.8 309.9 L 323.9 309.9 L 323.9 303.4 L 316.7 303.4 L 316.7 309.9 L 314.9 309.9 L 314.9 295.9 " fill="#000000"/>
<path class="atom-24" d="M 327.5 307.6 L 329.4 307.6 L 329.4 309.5 L 327.5 309.5 L 327.5 307.6 M 327.5 300.8 L 329.4 300.8 L 329.4 302.7 L 327.5 302.7 L 327.5 300.8 " fill="#000000"/>
<path class="atom-24" d="M 330.9 298.6 Q 331.5 297.2, 332.7 296.5 Q 333.9 295.8, 335.6 295.8 Q 337.7 295.8, 338.9 296.9 Q 340.1 298.0, 340.1 300.1 Q 340.1 302.1, 338.5 304.1 Q 337.0 306.0, 333.9 308.3 L 340.3 308.3 L 340.3 309.9 L 330.9 309.9 L 330.9 308.5 Q 333.5 306.7, 335.0 305.3 Q 336.6 303.9, 337.4 302.7 Q 338.1 301.4, 338.1 300.2 Q 338.1 298.8, 337.4 298.1 Q 336.8 297.3, 335.6 297.3 Q 334.5 297.3, 333.7 297.8 Q 333.0 298.2, 332.4 299.2 L 330.9 298.6 " fill="#000000"/>
<path class="atom-24" d="M 346.6 301.1 Q 347.8 301.1, 348.8 301.7 Q 349.8 302.2, 350.4 303.2 Q 350.9 304.1, 350.9 305.5 Q 350.9 306.9, 350.2 307.9 Q 349.5 309.0, 348.4 309.5 Q 347.2 310.0, 345.9 310.0 Q 344.7 310.0, 343.5 309.6 Q 342.3 309.1, 341.5 308.2 L 342.7 306.9 Q 343.3 307.7, 344.2 308.1 Q 345.1 308.4, 346.0 308.4 Q 347.2 308.4, 348.1 307.7 Q 349.0 306.9, 349.0 305.5 Q 349.0 304.0, 348.1 303.3 Q 347.2 302.6, 345.9 302.6 Q 344.7 302.6, 343.3 303.1 L 342.2 302.6 L 342.9 295.9 L 350.1 295.9 L 349.9 297.5 L 344.5 297.5 L 344.1 301.6 Q 345.3 301.1, 346.6 301.1 " fill="#000000"/>
<path class="atom-25" d="M 441.0 228.6 L 442.9 228.6 L 442.9 234.5 L 450.0 234.5 L 450.0 228.6 L 451.9 228.6 L 451.9 242.5 L 450.0 242.5 L 450.0 236.1 L 442.9 236.1 L 442.9 242.5 L 441.0 242.5 L 441.0 228.6 " fill="#000000"/>
<path class="atom-25" d="M 453.6 240.2 L 455.5 240.2 L 455.5 242.2 L 453.6 242.2 L 453.6 240.2 M 453.6 233.4 L 455.5 233.4 L 455.5 235.4 L 453.6 235.4 L 453.6 233.4 " fill="#000000"/>
<path class="atom-25" d="M 457.0 231.2 Q 457.6 229.9, 458.8 229.2 Q 460.0 228.4, 461.7 228.4 Q 463.8 228.4, 465.0 229.6 Q 466.2 230.7, 466.2 232.7 Q 466.2 234.8, 464.6 236.7 Q 463.1 238.7, 460.0 241.0 L 466.4 241.0 L 466.4 242.5 L 457.0 242.5 L 457.0 241.2 Q 459.6 239.4, 461.1 238.0 Q 462.7 236.6, 463.5 235.4 Q 464.2 234.1, 464.2 232.8 Q 464.2 231.5, 463.5 230.7 Q 462.9 230.0, 461.7 230.0 Q 460.6 230.0, 459.8 230.4 Q 459.1 230.9, 458.5 231.9 L 457.0 231.2 " fill="#000000"/>
<path class="atom-25" d="M 473.1 233.8 Q 474.3 233.8, 475.2 234.4 Q 476.2 234.9, 476.7 235.9 Q 477.3 236.8, 477.3 238.0 Q 477.3 239.4, 476.7 240.5 Q 476.1 241.5, 475.0 242.1 Q 473.9 242.7, 472.6 242.7 Q 470.1 242.7, 468.8 241.0 Q 467.6 239.3, 467.6 236.0 Q 467.6 232.3, 469.1 230.4 Q 470.7 228.4, 473.7 228.4 Q 474.5 228.4, 475.3 228.6 Q 476.0 228.8, 476.7 229.2 L 476.0 230.5 Q 474.9 230.0, 473.7 230.0 Q 471.7 230.0, 470.7 231.3 Q 469.7 232.5, 469.6 235.2 Q 470.3 234.5, 471.2 234.2 Q 472.1 233.8, 473.1 233.8 M 472.6 241.1 Q 473.3 241.1, 474.0 240.7 Q 474.6 240.3, 474.9 239.6 Q 475.3 238.9, 475.3 238.1 Q 475.3 236.8, 474.6 236.1 Q 473.9 235.4, 472.7 235.4 Q 471.9 235.4, 471.0 235.8 Q 470.2 236.1, 469.6 236.7 Q 469.7 239.0, 470.4 240.0 Q 471.1 241.1, 472.6 241.1 " fill="#000000"/>
<path class="atom-26" d="M 340.9 163.8 L 342.8 163.8 L 342.8 169.7 L 349.9 169.7 L 349.9 163.8 L 351.8 163.8 L 351.8 177.7 L 349.9 177.7 L 349.9 171.3 L 342.8 171.3 L 342.8 177.7 L 340.9 177.7 L 340.9 163.8 " fill="#000000"/>
<path class="atom-26" d="M 353.5 175.4 L 355.4 175.4 L 355.4 177.4 L 353.5 177.4 L 353.5 175.4 M 353.5 168.6 L 355.4 168.6 L 355.4 170.6 L 353.5 170.6 L 353.5 168.6 " fill="#000000"/>
<path class="atom-26" d="M 357.0 166.4 Q 357.5 165.1, 358.7 164.4 Q 359.9 163.6, 361.6 163.6 Q 363.7 163.6, 364.9 164.8 Q 366.1 165.9, 366.1 167.9 Q 366.1 170.0, 364.5 171.9 Q 363.0 173.9, 359.9 176.2 L 366.3 176.2 L 366.3 177.7 L 356.9 177.7 L 356.9 176.4 Q 359.5 174.6, 361.1 173.2 Q 362.6 171.8, 363.4 170.6 Q 364.1 169.3, 364.1 168.0 Q 364.1 166.7, 363.4 165.9 Q 362.8 165.2, 361.6 165.2 Q 360.5 165.2, 359.7 165.6 Q 359.0 166.1, 358.5 167.1 L 357.0 166.4 " fill="#000000"/>
<path class="atom-26" d="M 374.8 165.4 L 367.5 165.4 L 367.5 163.8 L 376.8 163.8 L 376.8 165.2 L 371.1 177.7 L 369.2 177.7 L 374.8 165.4 " fill="#000000"/>
<path class="atom-27" d="M 22.7 213.5 L 24.6 213.5 L 24.6 219.5 L 31.8 219.5 L 31.8 213.5 L 33.6 213.5 L 33.6 227.5 L 31.8 227.5 L 31.8 221.0 L 24.6 221.0 L 24.6 227.5 L 22.7 227.5 L 22.7 213.5 " fill="#000000"/>
<path class="atom-27" d="M 35.3 225.2 L 37.3 225.2 L 37.3 227.1 L 35.3 227.1 L 35.3 225.2 M 35.3 218.4 L 37.3 218.4 L 37.3 220.4 L 35.3 220.4 L 35.3 218.4 " fill="#000000"/>
<path class="atom-27" d="M 38.8 216.2 Q 39.3 214.8, 40.5 214.1 Q 41.8 213.4, 43.5 213.4 Q 45.6 213.4, 46.8 214.5 Q 47.9 215.6, 47.9 217.7 Q 47.9 219.7, 46.4 221.7 Q 44.9 223.6, 41.7 225.9 L 48.2 225.9 L 48.2 227.5 L 38.8 227.5 L 38.8 226.2 Q 41.4 224.3, 42.9 222.9 Q 44.5 221.5, 45.2 220.3 Q 46.0 219.1, 46.0 217.8 Q 46.0 216.4, 45.3 215.7 Q 44.6 214.9, 43.5 214.9 Q 42.3 214.9, 41.6 215.4 Q 40.8 215.8, 40.3 216.8 L 38.8 216.2 " fill="#000000"/>
<path class="atom-27" d="M 56.5 220.1 Q 57.8 220.6, 58.5 221.5 Q 59.2 222.3, 59.2 223.6 Q 59.2 224.8, 58.6 225.8 Q 58.0 226.7, 56.9 227.2 Q 55.8 227.7, 54.4 227.7 Q 52.0 227.7, 50.7 226.6 Q 49.4 225.5, 49.4 223.6 Q 49.4 222.5, 50.0 221.7 Q 50.5 220.8, 51.8 220.1 Q 50.9 219.6, 50.4 218.9 Q 49.9 218.1, 49.9 216.9 Q 49.9 215.3, 51.1 214.3 Q 52.3 213.4, 54.3 213.4 Q 56.3 213.4, 57.5 214.3 Q 58.7 215.3, 58.7 216.9 Q 58.7 218.0, 58.1 218.7 Q 57.6 219.5, 56.5 220.1 M 54.3 214.8 Q 53.1 214.8, 52.5 215.4 Q 51.8 215.9, 51.8 216.9 Q 51.8 217.7, 52.3 218.1 Q 52.7 218.6, 53.3 218.9 Q 54.0 219.2, 55.2 219.6 Q 56.0 219.0, 56.4 218.4 Q 56.7 217.7, 56.7 216.9 Q 56.7 215.9, 56.1 215.4 Q 55.5 214.8, 54.3 214.8 M 54.4 226.2 Q 55.7 226.2, 56.5 225.5 Q 57.2 224.8, 57.2 223.6 Q 57.2 222.9, 56.8 222.4 Q 56.4 221.9, 55.8 221.7 Q 55.2 221.4, 54.1 221.0 L 53.2 220.7 Q 52.2 221.3, 51.8 222.0 Q 51.3 222.7, 51.3 223.6 Q 51.3 224.8, 52.2 225.5 Q 53.0 226.2, 54.4 226.2 " fill="#000000"/>
<path class="atom-28" d="M 403.3 326.6 L 405.2 326.6 L 405.2 332.5 L 412.4 332.5 L 412.4 326.6 L 414.3 326.6 L 414.3 340.5 L 412.4 340.5 L 412.4 334.1 L 405.2 334.1 L 405.2 340.5 L 403.3 340.5 L 403.3 326.6 " fill="#000000"/>
<path class="atom-28" d="M 415.9 338.2 L 417.9 338.2 L 417.9 340.2 L 415.9 340.2 L 415.9 338.2 M 415.9 331.4 L 417.9 331.4 L 417.9 333.4 L 415.9 333.4 L 415.9 331.4 " fill="#000000"/>
<path class="atom-28" d="M 419.4 329.2 Q 419.9 327.9, 421.2 327.2 Q 422.4 326.4, 424.1 326.4 Q 426.2 326.4, 427.4 327.6 Q 428.6 328.7, 428.6 330.7 Q 428.6 332.8, 427.0 334.7 Q 425.5 336.7, 422.4 339.0 L 428.8 339.0 L 428.8 340.5 L 419.4 340.5 L 419.4 339.2 Q 422.0 337.4, 423.5 336.0 Q 425.1 334.6, 425.8 333.4 Q 426.6 332.1, 426.6 330.8 Q 426.6 329.5, 425.9 328.7 Q 425.2 328.0, 424.1 328.0 Q 423.0 328.0, 422.2 328.4 Q 421.5 328.9, 420.9 329.9 L 419.4 329.2 " fill="#000000"/>
<path class="atom-28" d="M 434.7 326.4 Q 437.2 326.4, 438.4 328.1 Q 439.7 329.8, 439.7 333.1 Q 439.7 336.8, 438.1 338.8 Q 436.6 340.7, 433.6 340.7 Q 432.7 340.7, 432.0 340.5 Q 431.2 340.3, 430.5 339.9 L 431.3 338.6 Q 432.3 339.1, 433.6 339.1 Q 435.5 339.1, 436.5 337.9 Q 437.6 336.6, 437.7 333.9 Q 437.0 334.6, 436.1 335.0 Q 435.2 335.3, 434.2 335.3 Q 433.0 335.3, 432.0 334.8 Q 431.0 334.2, 430.5 333.3 Q 430.0 332.3, 430.0 331.1 Q 430.0 329.7, 430.6 328.7 Q 431.2 327.6, 432.2 327.0 Q 433.3 326.4, 434.7 326.4 M 432.0 331.1 Q 432.0 332.3, 432.6 333.0 Q 433.3 333.7, 434.6 333.7 Q 435.4 333.7, 436.2 333.4 Q 437.1 333.0, 437.7 332.4 Q 437.6 330.1, 436.9 329.1 Q 436.1 328.0, 434.7 328.0 Q 433.9 328.0, 433.3 328.4 Q 432.7 328.8, 432.3 329.5 Q 432.0 330.2, 432.0 331.1 " fill="#000000"/>
<path class="atom-29" d="M 436.2 159.0 L 438.1 159.0 L 438.1 165.0 L 445.2 165.0 L 445.2 159.0 L 447.1 159.0 L 447.1 173.0 L 445.2 173.0 L 445.2 166.5 L 438.1 166.5 L 438.1 173.0 L 436.2 173.0 L 436.2 159.0 " fill="#000000"/>
<path class="atom-29" d="M 448.8 170.7 L 450.8 170.7 L 450.8 172.7 L 448.8 172.7 L 448.8 170.7 M 448.8 163.9 L 450.8 163.9 L 450.8 165.9 L 448.8 165.9 L 448.8 163.9 " fill="#000000"/>
<path class="atom-29" d="M 459.0 165.6 Q 460.3 166.0, 461.0 166.9 Q 461.7 167.8, 461.7 169.2 Q 461.7 170.4, 461.1 171.3 Q 460.5 172.2, 459.4 172.7 Q 458.3 173.2, 456.9 173.2 Q 455.4 173.2, 454.3 172.7 Q 453.2 172.1, 452.3 171.1 L 453.4 169.9 Q 454.3 170.9, 455.0 171.3 Q 455.7 171.6, 456.9 171.6 Q 458.1 171.6, 458.9 170.9 Q 459.7 170.3, 459.7 169.1 Q 459.7 167.7, 458.9 167.1 Q 458.1 166.4, 456.4 166.4 L 455.4 166.4 L 455.4 165.0 L 456.2 165.0 Q 457.8 165.0, 458.6 164.4 Q 459.4 163.7, 459.4 162.4 Q 459.4 161.5, 458.7 161.0 Q 458.0 160.5, 456.9 160.5 Q 455.7 160.5, 455.0 160.9 Q 454.3 161.3, 453.7 162.3 L 452.4 161.6 Q 452.9 160.4, 454.1 159.7 Q 455.2 158.9, 456.9 158.9 Q 458.9 158.9, 460.2 159.8 Q 461.4 160.8, 461.4 162.4 Q 461.4 163.6, 460.7 164.4 Q 460.1 165.2, 459.0 165.6 " fill="#000000"/>
<path class="atom-29" d="M 467.9 173.2 Q 465.4 173.2, 464.1 171.3 Q 462.8 169.4, 462.8 166.0 Q 462.8 162.6, 464.1 160.8 Q 465.3 158.9, 467.9 158.9 Q 470.5 158.9, 471.8 160.8 Q 473.0 162.6, 473.0 166.0 Q 473.0 169.4, 471.7 171.3 Q 470.5 173.2, 467.9 173.2 M 467.9 171.6 Q 469.4 171.6, 470.2 170.2 Q 471.1 168.8, 471.1 166.0 Q 471.1 163.3, 470.2 161.9 Q 469.4 160.5, 467.9 160.5 Q 466.4 160.5, 465.6 161.9 Q 464.8 163.3, 464.8 166.0 Q 464.8 168.8, 465.6 170.2 Q 466.4 171.6, 467.9 171.6 " fill="#000000"/>
<text x="263.94906245102675" y="239.80588275874032" font-size="12" font-family="Verdana" font-weight="bold" letter-spacing="0" text-anchor="start" fill="black" transform=" rotate(41.101181 263.949062 239.805883)">1.1031</text><text x="25" y="490" font-size="12" font-family="Verdana" font-weight="bold" letter-spacing="0" text-anchor="start" fill="black">[#6:1]1(-[#7:2](-[#6:3](-[#6:4](-[#7:15](-[#6:22](-[H:24])(-[H:25])-[H:29])-[#6:23](-[H:26])(-[H:27])-[H:30])(-[H:16])-[H:17])=[#8:6])-[#6:5](-[H:12])(-[H:13])-[H:14]):[#6:7](:[#6:9](:[#6:8](:[#6:10](:[#6:11]:1-[H:21])-[H:20])-[H:28])-[H:19])-[H:18]</text></svg>
