<?xml version='1.0' encoding='ASCII' standalone='yes'?>
<svg xmlns="http://www.w3.org/2000/svg" xmlns:rdkit="http://www.rdkit.org/xml" xmlns:xlink="http://www.w3.org/1999/xlink" version="1.1" baseProfile="full" xml:space="preserve" width="500px" height="500px" viewBox="0 0 500 500">
<!-- END OF HEADER -->
<rect style="opacity:1.0;fill:#FFFFFF;stroke:none" width="500.0" height="500.0" x="0.0" y="0.0"> </rect>
<path d="M 280.8,283.0 L 225.6,312.3" style="fill:none;fill-rule:evenodd;stroke:#FF7F7F;stroke-width:13.3px;stroke-linecap:butt;stroke-linejoin:miter;stroke-opacity:1"/>
<path class="bond-0 atom-0 atom-9" d="M 283.5,210.1 L 285.0,168.3" style="fill:none;fill-rule:evenodd;stroke:#000000;stroke-width:2.0px;stroke-linecap:butt;stroke-linejoin:miter;stroke-opacity:1"/>
<path class="bond-1 atom-0 atom-10" d="M 294.3,221.0 L 337.4,222.5" style="fill:none;fill-rule:evenodd;stroke:#000000;stroke-width:2.0px;stroke-linecap:butt;stroke-linejoin:miter;stroke-opacity:1"/>
<path class="bond-2 atom-0 atom-11" d="M 261.1,219.8 L 227.6,218.6" style="fill:none;fill-rule:evenodd;stroke:#000000;stroke-width:2.0px;stroke-linecap:butt;stroke-linejoin:miter;stroke-opacity:1"/>
<path class="bond-4 atom-1 atom-0" d="M 281.2,272.5 L 282.0,251.7" style="fill:none;fill-rule:evenodd;stroke:#0000FF;stroke-width:2.0px;stroke-linecap:butt;stroke-linejoin:miter;stroke-opacity:1"/>
<path class="bond-4 atom-1 atom-0" d="M 282.0,251.7 L 282.7,230.8" style="fill:none;fill-rule:evenodd;stroke:#000000;stroke-width:2.0px;stroke-linecap:butt;stroke-linejoin:miter;stroke-opacity:1"/>
<path class="bond-3 atom-1 atom-2" d="M 261.0,293.6 L 248.9,300.0" style="fill:none;fill-rule:evenodd;stroke:#0000FF;stroke-width:2.0px;stroke-linecap:butt;stroke-linejoin:miter;stroke-opacity:1"/>
<path class="bond-3 atom-1 atom-2" d="M 248.9,300.0 L 236.7,306.4" style="fill:none;fill-rule:evenodd;stroke:#000000;stroke-width:2.0px;stroke-linecap:butt;stroke-linejoin:miter;stroke-opacity:1"/>
<path class="bond-5 atom-1 atom-4" d="M 292.8,290.5 L 305.2,298.3" style="fill:none;fill-rule:evenodd;stroke:#0000FF;stroke-width:2.0px;stroke-linecap:butt;stroke-linejoin:miter;stroke-opacity:1"/>
<path class="bond-5 atom-1 atom-4" d="M 305.2,298.3 L 317.6,306.1" style="fill:none;fill-rule:evenodd;stroke:#000000;stroke-width:2.0px;stroke-linecap:butt;stroke-linejoin:miter;stroke-opacity:1"/>
<path class="bond-6 atom-2 atom-5" d="M 222.3,306.1 L 201.9,267.7" style="fill:none;fill-rule:evenodd;stroke:#000000;stroke-width:2.0px;stroke-linecap:butt;stroke-linejoin:miter;stroke-opacity:1"/>
<path class="bond-7 atom-2 atom-6" d="M 231.3,323.1 L 249.5,357.5" style="fill:none;fill-rule:evenodd;stroke:#000000;stroke-width:2.0px;stroke-linecap:butt;stroke-linejoin:miter;stroke-opacity:1"/>
<path class="bond-8 atom-3 atom-2" d="M 182.9,335.0 L 206.0,322.7" style="fill:none;fill-rule:evenodd;stroke:#000000;stroke-width:2.0px;stroke-linecap:butt;stroke-linejoin:miter;stroke-opacity:1"/>
<path class="bond-9 atom-3 atom-8" d="M 163.7,351.9 L 163.0,372.8" style="fill:none;fill-rule:evenodd;stroke:#000000;stroke-width:2.0px;stroke-linecap:butt;stroke-linejoin:miter;stroke-opacity:1"/>
<path class="bond-9 atom-3 atom-8" d="M 163.0,372.8 L 162.3,393.7" style="fill:none;fill-rule:evenodd;stroke:#FF0000;stroke-width:2.0px;stroke-linecap:butt;stroke-linejoin:miter;stroke-opacity:1"/>
<path class="bond-9 atom-3 atom-8" d="M 176.2,352.4 L 175.5,373.3" style="fill:none;fill-rule:evenodd;stroke:#000000;stroke-width:2.0px;stroke-linecap:butt;stroke-linejoin:miter;stroke-opacity:1"/>
<path class="bond-9 atom-3 atom-8" d="M 175.5,373.3 L 174.8,394.1" style="fill:none;fill-rule:evenodd;stroke:#FF0000;stroke-width:2.0px;stroke-linecap:butt;stroke-linejoin:miter;stroke-opacity:1"/>
<path class="bond-13 atom-7 atom-3" d="M 129.9,316.3 L 142.0,323.9" style="fill:none;fill-rule:evenodd;stroke:#0000FF;stroke-width:2.0px;stroke-linecap:butt;stroke-linejoin:miter;stroke-opacity:1"/>
<path class="bond-13 atom-7 atom-3" d="M 142.0,323.9 L 154.2,331.5" style="fill:none;fill-rule:evenodd;stroke:#000000;stroke-width:2.0px;stroke-linecap:butt;stroke-linejoin:miter;stroke-opacity:1"/>
<path class="bond-10 atom-4 atom-12" d="M 345.7,323.6 L 370.6,339.2" style="fill:none;fill-rule:evenodd;stroke:#000000;stroke-width:2.0px;stroke-linecap:butt;stroke-linejoin:miter;stroke-opacity:1"/>
<path class="bond-11 atom-4 atom-13" d="M 340.3,305.9 L 360.7,273.4" style="fill:none;fill-rule:evenodd;stroke:#000000;stroke-width:2.0px;stroke-linecap:butt;stroke-linejoin:miter;stroke-opacity:1"/>
<path class="bond-12 atom-4 atom-14" d="M 327.1,327.0 L 307.0,359.2" style="fill:none;fill-rule:evenodd;stroke:#000000;stroke-width:2.0px;stroke-linecap:butt;stroke-linejoin:miter;stroke-opacity:1"/>
<path class="bond-14 atom-7 atom-19" d="M 97.6,319.0 L 83.6,326.4" style="fill:none;fill-rule:evenodd;stroke:#0000FF;stroke-width:2.0px;stroke-linecap:butt;stroke-linejoin:miter;stroke-opacity:1"/>
<path class="bond-14 atom-7 atom-19" d="M 83.6,326.4 L 69.6,333.8" style="fill:none;fill-rule:evenodd;stroke:#000000;stroke-width:2.0px;stroke-linecap:butt;stroke-linejoin:miter;stroke-opacity:1"/>
<path class="bond-15 atom-7 atom-20" d="M 117.8,298.0 L 118.5,277.1" style="fill:none;fill-rule:evenodd;stroke:#0000FF;stroke-width:2.0px;stroke-linecap:butt;stroke-linejoin:miter;stroke-opacity:1"/>
<path class="bond-15 atom-7 atom-20" d="M 118.5,277.1 L 119.3,256.2" style="fill:none;fill-rule:evenodd;stroke:#000000;stroke-width:2.0px;stroke-linecap:butt;stroke-linejoin:miter;stroke-opacity:1"/>
<path class="bond-16 atom-9 atom-15" d="M 256.2,157.0 L 229.8,156.1" style="fill:none;fill-rule:evenodd;stroke:#000000;stroke-width:2.0px;stroke-linecap:butt;stroke-linejoin:miter;stroke-opacity:1"/>
<path class="bond-17 atom-9 atom-16" d="M 303.9,158.7 L 339.8,160.0" style="fill:none;fill-rule:evenodd;stroke:#000000;stroke-width:2.0px;stroke-linecap:butt;stroke-linejoin:miter;stroke-opacity:1"/>
<path class="bond-18 atom-9 atom-21" d="M 285.7,147.7 L 287.2,105.8" style="fill:none;fill-rule:evenodd;stroke:#000000;stroke-width:2.0px;stroke-linecap:butt;stroke-linejoin:miter;stroke-opacity:1"/>
<path class="bond-19 atom-12 atom-17" d="M 380.3,359.9 L 360.0,392.2" style="fill:none;fill-rule:evenodd;stroke:#000000;stroke-width:2.0px;stroke-linecap:butt;stroke-linejoin:miter;stroke-opacity:1"/>
<path class="bond-20 atom-12 atom-18" d="M 393.4,338.9 L 413.6,306.6" style="fill:none;fill-rule:evenodd;stroke:#000000;stroke-width:2.0px;stroke-linecap:butt;stroke-linejoin:miter;stroke-opacity:1"/>
<path class="bond-21 atom-12 atom-22" d="M 404.0,360.2 L 431.8,377.6" style="fill:none;fill-rule:evenodd;stroke:#000000;stroke-width:2.0px;stroke-linecap:butt;stroke-linejoin:miter;stroke-opacity:1"/>
<path class="atom-0" d="M 262.6 220.6 Q 262.6 216.2, 264.7 213.9 Q 266.8 211.6, 270.7 211.6 Q 274.3 211.6, 276.3 214.2 L 274.6 215.5 Q 273.2 213.7, 270.7 213.7 Q 268.0 213.7, 266.6 215.5 Q 265.2 217.2, 265.2 220.6 Q 265.2 224.1, 266.6 225.9 Q 268.1 227.7, 271.0 227.7 Q 272.9 227.7, 275.2 226.6 L 275.9 228.4 Q 275.0 229.0, 273.6 229.4 Q 272.2 229.7, 270.6 229.7 Q 266.8 229.7, 264.7 227.4 Q 262.6 225.0, 262.6 220.6 " fill="#000000"/>
<path class="atom-0" d="M 278.2 226.6 L 280.7 226.6 L 280.7 229.1 L 278.2 229.1 L 278.2 226.6 M 278.2 218.0 L 280.7 218.0 L 280.7 220.5 L 278.2 220.5 L 278.2 218.0 " fill="#000000"/>
<path class="atom-0" d="M 283.0 227.5 L 286.9 227.5 L 286.9 214.3 L 282.6 215.6 L 282.0 214.1 L 287.5 211.7 L 289.2 212.0 L 289.2 227.5 L 292.7 227.5 L 292.7 229.5 L 283.0 229.5 L 283.0 227.5 " fill="#000000"/>
<path class="atom-1" d="M 263.1 274.3 L 268.9 283.7 Q 269.4 284.6, 270.4 286.3 Q 271.3 287.9, 271.3 288.0 L 271.3 274.3 L 273.7 274.3 L 273.7 292.0 L 271.3 292.0 L 265.0 281.7 Q 264.3 280.5, 263.5 279.2 Q 262.8 277.8, 262.6 277.4 L 262.6 292.0 L 260.3 292.0 L 260.3 274.3 L 263.1 274.3 " fill="#0000FF"/>
<path class="atom-1" d="M 275.6 289.1 L 278.1 289.1 L 278.1 291.6 L 275.6 291.6 L 275.6 289.1 M 275.6 280.5 L 278.1 280.5 L 278.1 283.0 L 275.6 283.0 L 275.6 280.5 " fill="#0000FF"/>
<path class="atom-1" d="M 279.4 277.6 Q 280.0 276.0, 281.6 275.0 Q 283.1 274.1, 285.3 274.1 Q 287.9 274.1, 289.4 275.5 Q 290.9 277.0, 290.9 279.6 Q 290.9 282.2, 289.0 284.6 Q 287.1 287.1, 283.1 290.0 L 291.2 290.0 L 291.2 292.0 L 279.3 292.0 L 279.3 290.3 Q 282.6 288.0, 284.6 286.2 Q 286.5 284.5, 287.5 282.9 Q 288.4 281.3, 288.4 279.7 Q 288.4 278.0, 287.6 277.0 Q 286.7 276.1, 285.3 276.1 Q 283.8 276.1, 282.9 276.7 Q 281.9 277.2, 281.3 278.5 L 279.4 277.6 " fill="#0000FF"/>
<path class="atom-2" d="M 204.8 312.4 Q 204.8 308.0, 206.8 305.7 Q 208.9 303.4, 212.8 303.4 Q 216.5 303.4, 218.4 306.0 L 216.8 307.3 Q 215.3 305.4, 212.8 305.4 Q 210.1 305.4, 208.7 307.2 Q 207.3 309.0, 207.3 312.4 Q 207.3 315.9, 208.8 317.7 Q 210.2 319.5, 213.1 319.5 Q 215.0 319.5, 217.3 318.4 L 218.0 320.2 Q 217.1 320.8, 215.7 321.2 Q 214.3 321.5, 212.7 321.5 Q 208.9 321.5, 206.8 319.2 Q 204.8 316.8, 204.8 312.4 " fill="#000000"/>
<path class="atom-2" d="M 220.3 318.4 L 222.8 318.4 L 222.8 320.9 L 220.3 320.9 L 220.3 318.4 M 220.3 309.8 L 222.8 309.8 L 222.8 312.3 L 220.3 312.3 L 220.3 309.8 " fill="#000000"/>
<path class="atom-2" d="M 232.3 312.0 Q 234.1 312.5, 234.9 313.6 Q 235.7 314.7, 235.7 316.5 Q 235.7 318.0, 235.0 319.1 Q 234.2 320.3, 232.9 320.9 Q 231.5 321.6, 229.7 321.6 Q 227.8 321.6, 226.4 320.9 Q 225.0 320.2, 223.8 318.9 L 225.3 317.4 Q 226.4 318.6, 227.3 319.1 Q 228.2 319.6, 229.7 319.6 Q 231.3 319.6, 232.3 318.7 Q 233.2 317.8, 233.2 316.4 Q 233.2 314.6, 232.2 313.8 Q 231.2 313.0, 229.0 313.0 L 227.8 313.0 L 227.8 311.2 L 228.9 311.2 Q 230.8 311.2, 231.8 310.3 Q 232.9 309.5, 232.9 307.9 Q 232.9 306.8, 232.0 306.1 Q 231.2 305.4, 229.7 305.4 Q 228.2 305.4, 227.3 305.9 Q 226.4 306.4, 225.7 307.8 L 224.0 306.8 Q 224.6 305.4, 226.1 304.4 Q 227.6 303.4, 229.7 303.4 Q 232.3 303.4, 233.8 304.6 Q 235.4 305.8, 235.4 307.9 Q 235.4 309.3, 234.6 310.4 Q 233.8 311.4, 232.3 312.0 " fill="#000000"/>
<path class="atom-3" d="M 148.9 341.7 Q 148.9 337.3, 151.0 335.0 Q 153.0 332.7, 157.0 332.7 Q 160.6 332.7, 162.6 335.3 L 160.9 336.6 Q 159.5 334.8, 157.0 334.8 Q 154.3 334.8, 152.9 336.6 Q 151.5 338.3, 151.5 341.7 Q 151.5 345.2, 152.9 347.0 Q 154.4 348.8, 157.2 348.8 Q 159.2 348.8, 161.5 347.7 L 162.2 349.5 Q 161.2 350.1, 159.8 350.5 Q 158.4 350.8, 156.9 350.8 Q 153.0 350.8, 151.0 348.5 Q 148.9 346.1, 148.9 341.7 " fill="#000000"/>
<path class="atom-3" d="M 164.4 347.7 L 166.9 347.7 L 166.9 350.2 L 164.4 350.2 L 164.4 347.7 M 164.4 339.1 L 166.9 339.1 L 166.9 341.6 L 164.4 341.6 L 164.4 339.1 " fill="#000000"/>
<path class="atom-3" d="M 179.2 344.5 L 181.3 344.5 L 181.3 346.5 L 179.2 346.5 L 179.2 350.6 L 176.8 350.6 L 176.8 346.5 L 167.7 346.5 L 167.7 345.0 L 175.4 332.9 L 179.2 332.9 L 179.2 344.5 M 170.6 344.5 L 176.8 344.5 L 176.8 334.5 L 170.6 344.5 " fill="#000000"/>
<path class="atom-4" d="M 312.9 316.3 Q 312.9 311.9, 315.0 309.6 Q 317.1 307.3, 321.0 307.3 Q 324.6 307.3, 326.6 309.8 L 324.9 311.2 Q 323.5 309.3, 321.0 309.3 Q 318.3 309.3, 316.9 311.1 Q 315.5 312.9, 315.5 316.3 Q 315.5 319.8, 316.9 321.6 Q 318.4 323.4, 321.3 323.4 Q 323.2 323.4, 325.5 322.2 L 326.2 324.1 Q 325.3 324.7, 323.9 325.1 Q 322.5 325.4, 320.9 325.4 Q 317.1 325.4, 315.0 323.1 Q 312.9 320.7, 312.9 316.3 " fill="#000000"/>
<path class="atom-4" d="M 328.5 322.3 L 331.0 322.3 L 331.0 324.8 L 328.5 324.8 L 328.5 322.3 M 328.5 313.7 L 331.0 313.7 L 331.0 316.2 L 328.5 316.2 L 328.5 313.7 " fill="#000000"/>
<path class="atom-4" d="M 338.5 314.1 Q 340.1 314.1, 341.4 314.8 Q 342.6 315.4, 343.4 316.7 Q 344.1 317.9, 344.1 319.6 Q 344.1 321.4, 343.2 322.7 Q 342.3 324.0, 340.9 324.7 Q 339.4 325.4, 337.8 325.4 Q 336.1 325.4, 334.6 324.8 Q 333.1 324.2, 332.1 323.0 L 333.6 321.5 Q 334.4 322.4, 335.6 322.9 Q 336.7 323.4, 337.8 323.4 Q 339.4 323.4, 340.5 322.4 Q 341.6 321.4, 341.6 319.6 Q 341.6 317.8, 340.5 316.9 Q 339.4 316.0, 337.7 316.0 Q 336.1 316.0, 334.4 316.7 L 333.0 316.0 L 333.9 307.5 L 343.0 307.5 L 342.7 309.5 L 335.9 309.5 L 335.4 314.7 Q 337.0 314.1, 338.5 314.1 " fill="#000000"/>
<path class="atom-5" d="M 170.2 248.4 L 172.6 248.4 L 172.6 255.9 L 181.7 255.9 L 181.7 248.4 L 184.1 248.4 L 184.1 266.1 L 181.7 266.1 L 181.7 257.9 L 172.6 257.9 L 172.6 266.1 L 170.2 266.1 L 170.2 248.4 " fill="#000000"/>
<path class="atom-5" d="M 186.0 263.1 L 188.5 263.1 L 188.5 265.6 L 186.0 265.6 L 186.0 263.1 M 186.0 254.5 L 188.5 254.5 L 188.5 257.0 L 186.0 257.0 L 186.0 254.5 " fill="#000000"/>
<path class="atom-5" d="M 197.1 255.0 Q 198.6 255.0, 199.9 255.7 Q 201.1 256.4, 201.8 257.6 Q 202.4 258.8, 202.4 260.4 Q 202.4 262.1, 201.7 263.4 Q 200.9 264.8, 199.6 265.5 Q 198.2 266.3, 196.5 266.3 Q 193.3 266.3, 191.7 264.1 Q 190.2 262.0, 190.2 257.7 Q 190.2 253.0, 192.1 250.6 Q 194.1 248.2, 197.9 248.2 Q 199.0 248.2, 199.9 248.4 Q 200.8 248.7, 201.7 249.2 L 200.8 250.9 Q 199.5 250.2, 197.9 250.2 Q 195.4 250.2, 194.1 251.8 Q 192.8 253.4, 192.7 256.7 Q 193.6 255.9, 194.7 255.5 Q 195.9 255.0, 197.1 255.0 M 196.5 264.2 Q 197.5 264.2, 198.2 263.7 Q 199.0 263.2, 199.5 262.3 Q 199.9 261.5, 199.9 260.4 Q 199.9 258.8, 199.1 257.9 Q 198.2 257.0, 196.6 257.0 Q 195.6 257.0, 194.5 257.5 Q 193.4 257.9, 192.7 258.6 Q 192.8 261.6, 193.7 262.9 Q 194.6 264.2, 196.5 264.2 " fill="#000000"/>
<path class="atom-6" d="M 248.0 358.7 L 250.4 358.7 L 250.4 366.3 L 259.4 366.3 L 259.4 358.7 L 261.8 358.7 L 261.8 376.4 L 259.4 376.4 L 259.4 368.3 L 250.4 368.3 L 250.4 376.4 L 248.0 376.4 L 248.0 358.7 " fill="#000000"/>
<path class="atom-6" d="M 263.7 373.5 L 266.2 373.5 L 266.2 376.0 L 263.7 376.0 L 263.7 373.5 M 263.7 364.9 L 266.2 364.9 L 266.2 367.4 L 263.7 367.4 L 263.7 364.9 " fill="#000000"/>
<path class="atom-6" d="M 275.9 360.7 L 266.7 360.7 L 266.7 358.7 L 278.4 358.7 L 278.4 360.5 L 271.3 376.4 L 268.9 376.4 L 275.9 360.7 " fill="#000000"/>
<path class="atom-7" d="M 99.3 299.7 L 105.1 309.1 Q 105.6 310.0, 106.6 311.7 Q 107.5 313.4, 107.5 313.5 L 107.5 299.7 L 109.9 299.7 L 109.9 317.4 L 107.5 317.4 L 101.2 307.2 Q 100.5 306.0, 99.7 304.6 Q 99.0 303.2, 98.8 302.8 L 98.8 317.4 L 96.5 317.4 L 96.5 299.7 L 99.3 299.7 " fill="#0000FF"/>
<path class="atom-7" d="M 111.8 314.5 L 114.3 314.5 L 114.3 317.0 L 111.8 317.0 L 111.8 314.5 M 111.8 305.9 L 114.3 305.9 L 114.3 308.4 L 111.8 308.4 L 111.8 305.9 " fill="#0000FF"/>
<path class="atom-7" d="M 124.8 308.0 Q 126.5 308.7, 127.4 309.8 Q 128.3 310.8, 128.3 312.6 Q 128.3 314.1, 127.5 315.2 Q 126.8 316.4, 125.4 317.1 Q 124.0 317.7, 122.2 317.7 Q 119.2 317.7, 117.5 316.3 Q 115.8 314.9, 115.8 312.6 Q 115.8 311.1, 116.6 310.0 Q 117.3 308.9, 118.9 308.1 Q 117.7 307.5, 117.1 306.5 Q 116.5 305.5, 116.5 304.0 Q 116.5 302.0, 118.0 300.7 Q 119.5 299.5, 122.1 299.5 Q 124.6 299.5, 126.1 300.7 Q 127.7 302.0, 127.7 304.0 Q 127.7 305.3, 126.9 306.3 Q 126.2 307.3, 124.8 308.0 M 122.1 301.4 Q 120.6 301.4, 119.8 302.1 Q 119.0 302.8, 119.0 304.0 Q 119.0 305.0, 119.5 305.6 Q 120.1 306.2, 120.8 306.5 Q 121.6 306.9, 123.2 307.4 Q 124.2 306.7, 124.7 305.9 Q 125.2 305.1, 125.2 304.0 Q 125.2 302.8, 124.3 302.1 Q 123.5 301.4, 122.1 301.4 M 122.2 315.8 Q 123.8 315.8, 124.8 314.9 Q 125.8 314.0, 125.8 312.5 Q 125.8 311.6, 125.3 311.0 Q 124.8 310.4, 124.0 310.0 Q 123.2 309.7, 121.8 309.2 L 120.7 308.9 Q 119.4 309.6, 118.9 310.5 Q 118.3 311.4, 118.3 312.5 Q 118.3 314.0, 119.4 314.9 Q 120.4 315.8, 122.2 315.8 " fill="#0000FF"/>
<path class="atom-8" d="M 160.0 404.2 Q 160.0 399.9, 162.1 397.6 Q 164.2 395.2, 168.1 395.2 Q 172.1 395.2, 174.2 397.6 Q 176.3 399.9, 176.3 404.2 Q 176.3 408.5, 174.1 410.9 Q 172.0 413.4, 168.1 413.4 Q 164.2 413.4, 162.1 410.9 Q 160.0 408.5, 160.0 404.2 M 168.1 411.4 Q 170.8 411.4, 172.3 409.6 Q 173.8 407.7, 173.8 404.2 Q 173.8 400.7, 172.3 399.0 Q 170.8 397.2, 168.1 397.2 Q 165.4 397.2, 164.0 398.9 Q 162.5 400.7, 162.5 404.2 Q 162.5 407.8, 164.0 409.6 Q 165.4 411.4, 168.1 411.4 " fill="#FF0000"/>
<path class="atom-8" d="M 178.1 410.2 L 180.6 410.2 L 180.6 412.7 L 178.1 412.7 L 178.1 410.2 M 178.1 401.6 L 180.6 401.6 L 180.6 404.1 L 178.1 404.1 L 178.1 401.6 " fill="#FF0000"/>
<path class="atom-8" d="M 188.0 395.2 Q 191.1 395.2, 192.7 397.3 Q 194.3 399.5, 194.3 403.7 Q 194.3 408.4, 192.3 410.9 Q 190.4 413.3, 186.6 413.3 Q 185.5 413.3, 184.5 413.0 Q 183.6 412.8, 182.7 412.3 L 183.7 410.6 Q 185.0 411.3, 186.6 411.3 Q 189.1 411.3, 190.3 409.7 Q 191.6 408.1, 191.8 404.7 Q 190.9 405.6, 189.7 406.0 Q 188.6 406.4, 187.4 406.4 Q 185.8 406.4, 184.6 405.8 Q 183.4 405.1, 182.7 403.9 Q 182.0 402.6, 182.0 401.1 Q 182.0 399.4, 182.8 398.0 Q 183.5 396.7, 184.9 395.9 Q 186.2 395.2, 188.0 395.2 M 184.5 401.1 Q 184.5 402.6, 185.4 403.5 Q 186.3 404.4, 187.8 404.4 Q 188.9 404.4, 189.9 404.0 Q 191.0 403.6, 191.8 402.8 Q 191.7 399.9, 190.7 398.6 Q 189.8 397.2, 187.9 397.2 Q 187.0 397.2, 186.2 397.7 Q 185.4 398.2, 185.0 399.1 Q 184.5 400.0, 184.5 401.1 " fill="#FF0000"/>
<path class="atom-9" d="M 257.8 158.1 Q 257.8 153.7, 259.8 151.4 Q 261.9 149.1, 265.8 149.1 Q 269.5 149.1, 271.4 151.7 L 269.8 153.0 Q 268.4 151.2, 265.8 151.2 Q 263.2 151.2, 261.7 153.0 Q 260.3 154.7, 260.3 158.1 Q 260.3 161.6, 261.8 163.4 Q 263.3 165.2, 266.1 165.2 Q 268.1 165.2, 270.3 164.1 L 271.0 165.9 Q 270.1 166.5, 268.7 166.9 Q 267.3 167.2, 265.8 167.2 Q 261.9 167.2, 259.8 164.9 Q 257.8 162.5, 257.8 158.1 " fill="#000000"/>
<path class="atom-9" d="M 273.3 164.1 L 275.8 164.1 L 275.8 166.6 L 273.3 166.6 L 273.3 164.1 M 273.3 155.5 L 275.8 155.5 L 275.8 158.0 L 273.3 158.0 L 273.3 155.5 " fill="#000000"/>
<path class="atom-9" d="M 278.1 165.0 L 282.0 165.0 L 282.0 151.8 L 277.7 153.1 L 277.2 151.6 L 282.6 149.2 L 284.4 149.5 L 284.4 165.0 L 287.9 165.0 L 287.9 167.0 L 278.1 167.0 L 278.1 165.0 " fill="#000000"/>
<path class="atom-9" d="M 295.9 167.2 Q 292.6 167.2, 291.0 164.8 Q 289.4 162.4, 289.4 158.1 Q 289.4 153.9, 291.0 151.5 Q 292.6 149.1, 295.9 149.1 Q 299.1 149.1, 300.7 151.5 Q 302.3 153.9, 302.3 158.1 Q 302.3 162.4, 300.7 164.8 Q 299.1 167.2, 295.9 167.2 M 295.9 165.2 Q 297.8 165.2, 298.8 163.4 Q 299.8 161.6, 299.8 158.1 Q 299.8 154.7, 298.8 152.9 Q 297.8 151.1, 295.9 151.1 Q 294.0 151.1, 292.9 152.9 Q 291.9 154.7, 291.9 158.1 Q 291.9 161.6, 292.9 163.4 Q 294.0 165.2, 295.9 165.2 " fill="#000000"/>
<path class="atom-10" d="M 338.6 214.0 L 341.0 214.0 L 341.0 221.5 L 350.1 221.5 L 350.1 214.0 L 352.5 214.0 L 352.5 231.7 L 350.1 231.7 L 350.1 223.5 L 341.0 223.5 L 341.0 231.7 L 338.6 231.7 L 338.6 214.0 " fill="#000000"/>
<path class="atom-10" d="M 354.4 228.8 L 356.9 228.8 L 356.9 231.3 L 354.4 231.3 L 354.4 228.8 M 354.4 220.2 L 356.9 220.2 L 356.9 222.7 L 354.4 222.7 L 354.4 220.2 " fill="#000000"/>
<path class="atom-10" d="M 359.2 229.7 L 363.1 229.7 L 363.1 216.5 L 358.8 217.8 L 358.2 216.3 L 363.7 213.9 L 365.4 214.2 L 365.4 229.7 L 368.9 229.7 L 368.9 231.7 L 359.2 231.7 L 359.2 229.7 " fill="#000000"/>
<path class="atom-10" d="M 371.2 229.7 L 375.1 229.7 L 375.1 216.5 L 370.8 217.8 L 370.3 216.3 L 375.7 213.9 L 377.5 214.2 L 377.5 229.7 L 380.9 229.7 L 380.9 231.7 L 371.2 231.7 L 371.2 229.7 " fill="#000000"/>
<path class="atom-11" d="M 183.1 209.6 L 185.5 209.6 L 185.5 217.1 L 194.6 217.1 L 194.6 209.6 L 197.0 209.6 L 197.0 227.3 L 194.6 227.3 L 194.6 219.1 L 185.5 219.1 L 185.5 227.3 L 183.1 227.3 L 183.1 209.6 " fill="#000000"/>
<path class="atom-11" d="M 198.8 224.3 L 201.3 224.3 L 201.3 226.8 L 198.8 226.8 L 198.8 224.3 M 198.8 215.7 L 201.3 215.7 L 201.3 218.2 L 198.8 218.2 L 198.8 215.7 " fill="#000000"/>
<path class="atom-11" d="M 203.7 225.3 L 207.6 225.3 L 207.6 212.0 L 203.3 213.4 L 202.7 211.9 L 208.1 209.5 L 209.9 209.8 L 209.9 225.3 L 213.4 225.3 L 213.4 227.3 L 203.7 227.3 L 203.7 225.3 " fill="#000000"/>
<path class="atom-11" d="M 214.7 212.9 Q 215.3 211.2, 216.9 210.3 Q 218.4 209.4, 220.6 209.4 Q 223.3 209.4, 224.8 210.8 Q 226.3 212.3, 226.3 214.8 Q 226.3 217.5, 224.3 219.9 Q 222.4 222.4, 218.4 225.3 L 226.6 225.3 L 226.6 227.3 L 214.6 227.3 L 214.6 225.6 Q 217.9 223.2, 219.9 221.5 Q 221.9 219.7, 222.8 218.2 Q 223.8 216.6, 223.8 215.0 Q 223.8 213.3, 222.9 212.3 Q 222.1 211.4, 220.6 211.4 Q 219.2 211.4, 218.2 211.9 Q 217.3 212.5, 216.6 213.8 L 214.7 212.9 " fill="#000000"/>
<path class="atom-12" d="M 359.8 349.5 Q 359.8 345.1, 361.9 342.8 Q 363.9 340.5, 367.9 340.5 Q 371.5 340.5, 373.5 343.0 L 371.8 344.4 Q 370.4 342.5, 367.9 342.5 Q 365.2 342.5, 363.8 344.3 Q 362.4 346.1, 362.4 349.5 Q 362.4 353.0, 363.8 354.8 Q 365.3 356.6, 368.1 356.6 Q 370.1 356.6, 372.4 355.4 L 373.1 357.3 Q 372.1 357.9, 370.7 358.2 Q 369.3 358.6, 367.8 358.6 Q 363.9 358.6, 361.9 356.2 Q 359.8 353.9, 359.8 349.5 " fill="#000000"/>
<path class="atom-12" d="M 375.3 355.4 L 377.8 355.4 L 377.8 357.9 L 375.3 357.9 L 375.3 355.4 M 375.3 346.8 L 377.8 346.8 L 377.8 349.3 L 375.3 349.3 L 375.3 346.8 " fill="#000000"/>
<path class="atom-12" d="M 380.2 356.4 L 384.1 356.4 L 384.1 343.1 L 379.8 344.5 L 379.2 343.0 L 384.6 340.6 L 386.4 340.9 L 386.4 356.4 L 389.9 356.4 L 389.9 358.4 L 380.2 358.4 L 380.2 356.4 " fill="#000000"/>
<path class="atom-12" d="M 399.4 349.0 Q 401.2 349.5, 402.0 350.7 Q 402.8 351.8, 402.8 353.5 Q 402.8 355.0, 402.1 356.2 Q 401.3 357.3, 400.0 358.0 Q 398.6 358.6, 396.8 358.6 Q 394.9 358.6, 393.5 358.0 Q 392.1 357.3, 390.9 355.9 L 392.4 354.5 Q 393.5 355.7, 394.4 356.2 Q 395.3 356.6, 396.8 356.6 Q 398.4 356.6, 399.4 355.8 Q 400.3 354.9, 400.3 353.5 Q 400.3 351.7, 399.3 350.9 Q 398.3 350.1, 396.1 350.1 L 394.9 350.1 L 394.9 348.3 L 396.0 348.3 Q 397.9 348.2, 398.9 347.4 Q 400.0 346.6, 400.0 345.0 Q 400.0 343.8, 399.1 343.2 Q 398.3 342.5, 396.8 342.5 Q 395.3 342.5, 394.4 343.0 Q 393.5 343.5, 392.8 344.8 L 391.1 343.9 Q 391.7 342.4, 393.2 341.5 Q 394.7 340.5, 396.8 340.5 Q 399.4 340.5, 400.9 341.7 Q 402.5 342.9, 402.5 345.0 Q 402.5 346.4, 401.7 347.4 Q 400.9 348.5, 399.4 349.0 " fill="#000000"/>
<path class="atom-13" d="M 360.1 254.4 L 362.5 254.4 L 362.5 262.0 L 371.5 262.0 L 371.5 254.4 L 373.9 254.4 L 373.9 272.1 L 371.5 272.1 L 371.5 264.0 L 362.5 264.0 L 362.5 272.1 L 360.1 272.1 L 360.1 254.4 " fill="#000000"/>
<path class="atom-13" d="M 375.8 269.2 L 378.3 269.2 L 378.3 271.7 L 375.8 271.7 L 375.8 269.2 M 375.8 260.6 L 378.3 260.6 L 378.3 263.1 L 375.8 263.1 L 375.8 260.6 " fill="#000000"/>
<path class="atom-13" d="M 380.7 270.1 L 384.5 270.1 L 384.5 256.9 L 380.3 258.2 L 379.7 256.8 L 385.1 254.3 L 386.9 254.6 L 386.9 270.1 L 390.4 270.1 L 390.4 272.1 L 380.7 272.1 L 380.7 270.1 " fill="#000000"/>
<path class="atom-13" d="M 402.6 266.1 L 404.7 266.1 L 404.7 268.1 L 402.6 268.1 L 402.6 272.1 L 400.3 272.1 L 400.3 268.1 L 391.1 268.1 L 391.1 266.5 L 398.9 254.4 L 402.6 254.4 L 402.6 266.1 M 394.0 266.1 L 400.3 266.1 L 400.3 256.0 L 394.0 266.1 " fill="#000000"/>
<path class="atom-14" d="M 263.3 360.4 L 265.7 360.4 L 265.7 367.9 L 274.7 367.9 L 274.7 360.4 L 277.1 360.4 L 277.1 378.1 L 274.7 378.1 L 274.7 369.9 L 265.7 369.9 L 265.7 378.1 L 263.3 378.1 L 263.3 360.4 " fill="#000000"/>
<path class="atom-14" d="M 279.0 375.2 L 281.5 375.2 L 281.5 377.7 L 279.0 377.7 L 279.0 375.2 M 279.0 366.6 L 281.5 366.6 L 281.5 369.1 L 279.0 369.1 L 279.0 366.6 " fill="#000000"/>
<path class="atom-14" d="M 283.8 376.1 L 287.7 376.1 L 287.7 362.9 L 283.4 364.2 L 282.8 362.7 L 288.3 360.3 L 290.0 360.6 L 290.0 376.1 L 293.5 376.1 L 293.5 378.1 L 283.8 378.1 L 283.8 376.1 " fill="#000000"/>
<path class="atom-14" d="M 301.1 367.0 Q 302.6 367.0, 303.9 367.7 Q 305.2 368.4, 305.9 369.6 Q 306.6 370.8, 306.6 372.5 Q 306.6 374.3, 305.7 375.7 Q 304.9 377.0, 303.4 377.7 Q 302.0 378.3, 300.3 378.3 Q 298.7 378.3, 297.2 377.7 Q 295.7 377.1, 294.7 376.0 L 296.2 374.4 Q 297.0 375.3, 298.1 375.8 Q 299.2 376.3, 300.4 376.3 Q 302.0 376.3, 303.0 375.3 Q 304.1 374.3, 304.1 372.6 Q 304.1 370.7, 303.0 369.8 Q 302.0 368.9, 300.2 368.9 Q 298.7 368.9, 297.0 369.6 L 295.6 368.9 L 296.4 360.4 L 305.5 360.4 L 305.3 362.4 L 298.5 362.4 L 298.0 367.7 Q 299.5 367.0, 301.1 367.0 " fill="#000000"/>
<path class="atom-15" d="M 184.7 147.1 L 187.1 147.1 L 187.1 154.6 L 196.2 154.6 L 196.2 147.1 L 198.6 147.1 L 198.6 164.8 L 196.2 164.8 L 196.2 156.6 L 187.1 156.6 L 187.1 164.8 L 184.7 164.8 L 184.7 147.1 " fill="#000000"/>
<path class="atom-15" d="M 200.5 161.9 L 203.0 161.9 L 203.0 164.4 L 200.5 164.4 L 200.5 161.9 M 200.5 153.3 L 203.0 153.3 L 203.0 155.8 L 200.5 155.8 L 200.5 153.3 " fill="#000000"/>
<path class="atom-15" d="M 205.3 162.8 L 209.2 162.8 L 209.2 149.6 L 204.9 150.9 L 204.3 149.4 L 209.7 147.0 L 211.5 147.3 L 211.5 162.8 L 215.0 162.8 L 215.0 164.8 L 205.3 164.8 L 205.3 162.8 " fill="#000000"/>
<path class="atom-15" d="M 223.6 153.7 Q 225.2 153.7, 226.4 154.4 Q 227.6 155.1, 228.3 156.3 Q 229.0 157.5, 229.0 159.1 Q 229.0 160.8, 228.2 162.2 Q 227.4 163.5, 226.1 164.2 Q 224.7 165.0, 223.0 165.0 Q 219.9 165.0, 218.3 162.9 Q 216.7 160.7, 216.7 156.5 Q 216.7 151.8, 218.6 149.3 Q 220.6 146.9, 224.4 146.9 Q 225.5 146.9, 226.4 147.1 Q 227.4 147.4, 228.3 147.9 L 227.3 149.6 Q 226.0 148.9, 224.4 148.9 Q 221.9 148.9, 220.6 150.5 Q 219.4 152.1, 219.2 155.4 Q 220.1 154.6, 221.2 154.2 Q 222.4 153.7, 223.6 153.7 M 223.0 162.9 Q 224.0 162.9, 224.8 162.4 Q 225.6 161.9, 226.0 161.1 Q 226.5 160.2, 226.5 159.1 Q 226.5 157.5, 225.6 156.6 Q 224.7 155.7, 223.2 155.7 Q 222.1 155.7, 221.0 156.2 Q 220.0 156.6, 219.2 157.4 Q 219.3 160.3, 220.2 161.6 Q 221.2 162.9, 223.0 162.9 " fill="#000000"/>
<path class="atom-16" d="M 340.9 151.5 L 343.3 151.5 L 343.3 159.0 L 352.3 159.0 L 352.3 151.5 L 354.7 151.5 L 354.7 169.2 L 352.3 169.2 L 352.3 161.0 L 343.3 161.0 L 343.3 169.2 L 340.9 169.2 L 340.9 151.5 " fill="#000000"/>
<path class="atom-16" d="M 356.6 166.3 L 359.1 166.3 L 359.1 168.8 L 356.6 168.8 L 356.6 166.3 M 356.6 157.7 L 359.1 157.7 L 359.1 160.2 L 356.6 160.2 L 356.6 157.7 " fill="#000000"/>
<path class="atom-16" d="M 361.4 167.2 L 365.3 167.2 L 365.3 154.0 L 361.0 155.3 L 360.5 153.8 L 365.9 151.4 L 367.7 151.7 L 367.7 167.2 L 371.1 167.2 L 371.1 169.2 L 361.4 169.2 L 361.4 167.2 " fill="#000000"/>
<path class="atom-16" d="M 380.9 153.5 L 371.6 153.5 L 371.6 151.5 L 383.3 151.5 L 383.3 153.3 L 376.2 169.2 L 373.8 169.2 L 380.9 153.5 " fill="#000000"/>
<path class="atom-17" d="M 315.6 393.7 L 318.0 393.7 L 318.0 401.2 L 327.0 401.2 L 327.0 393.7 L 329.4 393.7 L 329.4 411.4 L 327.0 411.4 L 327.0 403.2 L 318.0 403.2 L 318.0 411.4 L 315.6 411.4 L 315.6 393.7 " fill="#000000"/>
<path class="atom-17" d="M 331.3 408.4 L 333.8 408.4 L 333.8 410.9 L 331.3 410.9 L 331.3 408.4 M 331.3 399.8 L 333.8 399.8 L 333.8 402.3 L 331.3 402.3 L 331.3 399.8 " fill="#000000"/>
<path class="atom-17" d="M 336.1 409.4 L 340.0 409.4 L 340.0 396.1 L 335.7 397.5 L 335.2 396.0 L 340.6 393.6 L 342.4 393.9 L 342.4 409.4 L 345.9 409.4 L 345.9 411.4 L 336.1 411.4 L 336.1 409.4 " fill="#000000"/>
<path class="atom-17" d="M 356.4 402.0 Q 358.1 402.7, 359.0 403.7 Q 359.9 404.8, 359.9 406.5 Q 359.9 408.0, 359.1 409.2 Q 358.4 410.3, 357.0 411.0 Q 355.6 411.6, 353.8 411.6 Q 350.8 411.6, 349.1 410.3 Q 347.4 408.9, 347.4 406.5 Q 347.4 405.1, 348.2 404.0 Q 348.9 402.9, 350.5 402.1 Q 349.3 401.4, 348.7 400.5 Q 348.1 399.5, 348.1 398.0 Q 348.1 395.9, 349.6 394.7 Q 351.1 393.5, 353.7 393.5 Q 356.2 393.5, 357.7 394.7 Q 359.3 395.9, 359.3 398.0 Q 359.3 399.3, 358.5 400.3 Q 357.8 401.2, 356.4 402.0 M 353.7 395.3 Q 352.2 395.3, 351.4 396.0 Q 350.6 396.7, 350.6 398.0 Q 350.6 398.9, 351.1 399.5 Q 351.7 400.1, 352.4 400.5 Q 353.2 400.8, 354.8 401.4 Q 355.8 400.6, 356.3 399.8 Q 356.8 399.0, 356.8 398.0 Q 356.8 396.7, 355.9 396.0 Q 355.1 395.3, 353.7 395.3 M 353.8 409.7 Q 355.4 409.7, 356.4 408.9 Q 357.4 408.0, 357.4 406.5 Q 357.4 405.5, 356.9 404.9 Q 356.4 404.3, 355.6 404.0 Q 354.8 403.6, 353.4 403.2 L 352.3 402.8 Q 351.0 403.6, 350.5 404.5 Q 349.9 405.3, 349.9 406.5 Q 349.9 408.0, 351.0 408.9 Q 352.0 409.7, 353.8 409.7 " fill="#000000"/>
<path class="atom-18" d="M 413.1 287.7 L 415.5 287.7 L 415.5 295.2 L 424.5 295.2 L 424.5 287.7 L 426.9 287.7 L 426.9 305.4 L 424.5 305.4 L 424.5 297.2 L 415.5 297.2 L 415.5 305.4 L 413.1 305.4 L 413.1 287.7 " fill="#000000"/>
<path class="atom-18" d="M 428.8 302.4 L 431.3 302.4 L 431.3 304.9 L 428.8 304.9 L 428.8 302.4 M 428.8 293.8 L 431.3 293.8 L 431.3 296.3 L 428.8 296.3 L 428.8 293.8 " fill="#000000"/>
<path class="atom-18" d="M 433.6 303.4 L 437.5 303.4 L 437.5 290.1 L 433.2 291.5 L 432.7 290.0 L 438.1 287.6 L 439.9 287.9 L 439.9 303.4 L 443.4 303.4 L 443.4 305.4 L 433.6 305.4 L 433.6 303.4 " fill="#000000"/>
<path class="atom-18" d="M 450.7 287.5 Q 453.8 287.5, 455.4 289.6 Q 457.0 291.7, 457.0 296.0 Q 457.0 300.7, 455.0 303.1 Q 453.1 305.6, 449.3 305.6 Q 448.2 305.6, 447.3 305.3 Q 446.3 305.1, 445.4 304.5 L 446.4 302.9 Q 447.7 303.6, 449.3 303.6 Q 451.8 303.6, 453.1 302.0 Q 454.3 300.3, 454.5 297.0 Q 453.6 297.8, 452.4 298.3 Q 451.3 298.7, 450.1 298.7 Q 448.5 298.7, 447.3 298.0 Q 446.1 297.4, 445.4 296.1 Q 444.7 294.9, 444.7 293.4 Q 444.7 291.6, 445.5 290.3 Q 446.3 289.0, 447.6 288.2 Q 449.0 287.5, 450.7 287.5 M 447.2 293.3 Q 447.2 294.9, 448.1 295.8 Q 449.0 296.7, 450.5 296.7 Q 451.6 296.7, 452.7 296.3 Q 453.7 295.8, 454.5 295.1 Q 454.4 292.2, 453.5 290.8 Q 452.5 289.5, 450.7 289.5 Q 449.7 289.5, 448.9 290.0 Q 448.1 290.5, 447.7 291.4 Q 447.2 292.3, 447.2 293.3 " fill="#000000"/>
<path class="atom-19" d="M 22.7 329.0 L 25.1 329.0 L 25.1 336.6 L 34.2 336.6 L 34.2 329.0 L 36.6 329.0 L 36.6 346.7 L 34.2 346.7 L 34.2 338.6 L 25.1 338.6 L 25.1 346.7 L 22.7 346.7 L 22.7 329.0 " fill="#000000"/>
<path class="atom-19" d="M 38.5 343.8 L 41.0 343.8 L 41.0 346.3 L 38.5 346.3 L 38.5 343.8 M 38.5 335.2 L 41.0 335.2 L 41.0 337.7 L 38.5 337.7 L 38.5 335.2 " fill="#000000"/>
<path class="atom-19" d="M 42.3 332.4 Q 42.9 330.7, 44.5 329.8 Q 46.0 328.8, 48.2 328.8 Q 50.8 328.8, 52.3 330.3 Q 53.8 331.7, 53.8 334.3 Q 53.8 336.9, 51.9 339.4 Q 50.0 341.8, 46.0 344.7 L 54.1 344.7 L 54.1 346.7 L 42.2 346.7 L 42.2 345.1 Q 45.5 342.7, 47.5 341.0 Q 49.4 339.2, 50.4 337.6 Q 51.3 336.1, 51.3 334.4 Q 51.3 332.7, 50.5 331.8 Q 49.6 330.8, 48.2 330.8 Q 46.7 330.8, 45.8 331.4 Q 44.8 332.0, 44.2 333.2 L 42.3 332.4 " fill="#000000"/>
<path class="atom-19" d="M 62.1 346.9 Q 58.9 346.9, 57.3 344.5 Q 55.7 342.1, 55.7 337.9 Q 55.7 333.6, 57.3 331.2 Q 58.9 328.8, 62.1 328.8 Q 65.4 328.8, 67.0 331.2 Q 68.6 333.6, 68.6 337.9 Q 68.6 342.1, 67.0 344.5 Q 65.4 346.9, 62.1 346.9 M 62.1 344.9 Q 64.1 344.9, 65.1 343.2 Q 66.1 341.4, 66.1 337.9 Q 66.1 334.4, 65.1 332.6 Q 64.1 330.8, 62.1 330.8 Q 60.2 330.8, 59.2 332.6 Q 58.2 334.4, 58.2 337.9 Q 58.2 341.4, 59.2 343.2 Q 60.2 344.9, 62.1 344.9 " fill="#000000"/>
<path class="atom-20" d="M 112.7 237.2 L 115.1 237.2 L 115.1 244.8 L 124.1 244.8 L 124.1 237.2 L 126.5 237.2 L 126.5 254.9 L 124.1 254.9 L 124.1 246.8 L 115.1 246.8 L 115.1 254.9 L 112.7 254.9 L 112.7 237.2 " fill="#000000"/>
<path class="atom-20" d="M 128.4 252.0 L 130.9 252.0 L 130.9 254.5 L 128.4 254.5 L 128.4 252.0 M 128.4 243.4 L 130.9 243.4 L 130.9 245.9 L 128.4 245.9 L 128.4 243.4 " fill="#000000"/>
<path class="atom-20" d="M 132.2 240.6 Q 132.9 238.9, 134.4 238.0 Q 136.0 237.0, 138.1 237.0 Q 140.8 237.0, 142.3 238.5 Q 143.8 239.9, 143.8 242.5 Q 143.8 245.1, 141.9 247.6 Q 139.9 250.0, 135.9 252.9 L 144.1 252.9 L 144.1 254.9 L 132.2 254.9 L 132.2 253.3 Q 135.5 250.9, 137.4 249.2 Q 139.4 247.4, 140.4 245.8 Q 141.3 244.3, 141.3 242.6 Q 141.3 240.9, 140.5 240.0 Q 139.6 239.0, 138.1 239.0 Q 136.7 239.0, 135.7 239.6 Q 134.8 240.2, 134.1 241.5 L 132.2 240.6 " fill="#000000"/>
<path class="atom-20" d="M 146.4 252.9 L 150.3 252.9 L 150.3 239.7 L 146.0 241.0 L 145.5 239.6 L 150.9 237.1 L 152.7 237.4 L 152.7 252.9 L 156.1 252.9 L 156.1 254.9 L 146.4 254.9 L 146.4 252.9 " fill="#000000"/>
<path class="atom-21" d="M 280.6 86.8 L 283.0 86.8 L 283.0 94.4 L 292.1 94.4 L 292.1 86.8 L 294.5 86.8 L 294.5 104.5 L 292.1 104.5 L 292.1 96.4 L 283.0 96.4 L 283.0 104.5 L 280.6 104.5 L 280.6 86.8 " fill="#000000"/>
<path class="atom-21" d="M 296.4 101.6 L 298.9 101.6 L 298.9 104.1 L 296.4 104.1 L 296.4 101.6 M 296.4 93.0 L 298.9 93.0 L 298.9 95.5 L 296.4 95.5 L 296.4 93.0 " fill="#000000"/>
<path class="atom-21" d="M 300.2 90.2 Q 300.8 88.5, 302.4 87.6 Q 303.9 86.6, 306.1 86.6 Q 308.7 86.6, 310.2 88.1 Q 311.7 89.5, 311.7 92.1 Q 311.7 94.7, 309.8 97.2 Q 307.9 99.6, 303.9 102.5 L 312.0 102.5 L 312.0 104.5 L 300.1 104.5 L 300.1 102.9 Q 303.4 100.5, 305.4 98.8 Q 307.3 97.0, 308.3 95.4 Q 309.2 93.9, 309.2 92.2 Q 309.2 90.5, 308.4 89.6 Q 307.5 88.6, 306.1 88.6 Q 304.6 88.6, 303.7 89.2 Q 302.7 89.8, 302.1 91.1 L 300.2 90.2 " fill="#000000"/>
<path class="atom-21" d="M 313.3 90.2 Q 314.0 88.5, 315.5 87.6 Q 317.1 86.6, 319.2 86.6 Q 321.9 86.6, 323.4 88.1 Q 324.9 89.5, 324.9 92.1 Q 324.9 94.7, 323.0 97.2 Q 321.0 99.6, 317.0 102.5 L 325.2 102.5 L 325.2 104.5 L 313.3 104.5 L 313.3 102.9 Q 316.6 100.5, 318.5 98.8 Q 320.5 97.0, 321.5 95.4 Q 322.4 93.9, 322.4 92.2 Q 322.4 90.5, 321.6 89.6 Q 320.7 88.6, 319.2 88.6 Q 317.8 88.6, 316.9 89.2 Q 315.9 89.8, 315.2 91.1 L 313.3 90.2 " fill="#000000"/>
<path class="atom-22" d="M 432.9 373.8 L 435.3 373.8 L 435.3 381.4 L 444.4 381.4 L 444.4 373.8 L 446.8 373.8 L 446.8 391.5 L 444.4 391.5 L 444.4 383.4 L 435.3 383.4 L 435.3 391.5 L 432.9 391.5 L 432.9 373.8 " fill="#000000"/>
<path class="atom-22" d="M 448.6 388.6 L 451.1 388.6 L 451.1 391.1 L 448.6 391.1 L 448.6 388.6 M 448.6 380.0 L 451.1 380.0 L 451.1 382.5 L 448.6 382.5 L 448.6 380.0 " fill="#000000"/>
<path class="atom-22" d="M 452.4 377.2 Q 453.1 375.5, 454.6 374.6 Q 456.2 373.6, 458.3 373.6 Q 461.0 373.6, 462.5 375.1 Q 464.0 376.5, 464.0 379.1 Q 464.0 381.7, 462.1 384.2 Q 460.1 386.6, 456.1 389.5 L 464.3 389.5 L 464.3 391.5 L 452.4 391.5 L 452.4 389.9 Q 455.7 387.5, 457.6 385.8 Q 459.6 384.0, 460.6 382.4 Q 461.5 380.9, 461.5 379.2 Q 461.5 377.5, 460.7 376.6 Q 459.8 375.6, 458.3 375.6 Q 456.9 375.6, 456.0 376.2 Q 455.0 376.8, 454.3 378.1 L 452.4 377.2 " fill="#000000"/>
<path class="atom-22" d="M 473.9 382.2 Q 475.6 382.7, 476.4 383.8 Q 477.3 384.9, 477.3 386.7 Q 477.3 388.2, 476.5 389.4 Q 475.8 390.5, 474.4 391.2 Q 473.0 391.8, 471.2 391.8 Q 469.3 391.8, 467.9 391.1 Q 466.5 390.5, 465.4 389.1 L 466.8 387.7 Q 467.9 388.9, 468.8 389.3 Q 469.7 389.8, 471.2 389.8 Q 472.8 389.8, 473.8 388.9 Q 474.8 388.1, 474.8 386.7 Q 474.8 384.9, 473.7 384.1 Q 472.7 383.2, 470.6 383.2 L 469.3 383.2 L 469.3 381.4 L 470.4 381.4 Q 472.3 381.4, 473.4 380.6 Q 474.4 379.7, 474.4 378.2 Q 474.4 377.0, 473.5 376.3 Q 472.7 375.6, 471.2 375.6 Q 469.8 375.6, 468.8 376.2 Q 467.9 376.7, 467.2 378.0 L 465.5 377.1 Q 466.1 375.6, 467.6 374.6 Q 469.1 373.6, 471.2 373.6 Q 473.8 373.6, 475.4 374.9 Q 476.9 376.1, 476.9 378.2 Q 476.9 379.6, 476.1 380.6 Q 475.3 381.6, 473.9 382.2 " fill="#000000"/>
<text x="253.22650851937442" y="297.6969374806911" font-size="12" font-family="Verdana" font-weight="bold" letter-spacing="0" text-anchor="start" fill="black" transform=" rotate(62.051735 253.226509 297.696937)">0.0046</text><text x="25" y="490" font-size="12" font-family="Verdana" font-weight="bold" letter-spacing="0" text-anchor="start" fill="black">[#6:1](-[#7:2](-[#6:3](-[#6:4](-[#7:8](-[H:20])-[H:21])=[#8:9])(-[H:6])-[H:7])-[#6:5](-[#6:13](-[H:18])(-[H:19])-[H:23])(-[H:14])-[H:15])(-[#6:10](-[H:16])(-[H:17])-[H:22])(-[H:11])-[H:12]</text></svg>
