<?xml version='1.0' encoding='ASCII' standalone='yes'?>
<svg xmlns="http://www.w3.org/2000/svg" xmlns:rdkit="http://www.rdkit.org/xml" xmlns:xlink="http://www.w3.org/1999/xlink" version="1.1" baseProfile="full" xml:space="preserve" width="500px" height="500px" viewBox="0 0 500 500">
<!-- END OF HEADER -->
<rect style="opacity:1.0;fill:#FFFFFF;stroke:none" width="500.0" height="500.0" x="0.0" y="0.0"> </rect>
<path class="bond-3 atom-1 atom-2" d="M 280.4,281.5 L 225.5,310.7" style="fill:none;fill-rule:evenodd;stroke:#FF7F7F;stroke-width:13.3px;stroke-linecap:butt;stroke-linejoin:miter;stroke-opacity:1"/>
<path class="bond-0 atom-0 atom-12" d="M 283.1,208.3 L 284.5,168.1" style="fill:none;fill-rule:evenodd;stroke:#000000;stroke-width:2.0px;stroke-linecap:butt;stroke-linejoin:miter;stroke-opacity:1"/>
<path class="bond-1 atom-0 atom-13" d="M 299.5,219.9 L 335.9,221.2" style="fill:none;fill-rule:evenodd;stroke:#000000;stroke-width:2.0px;stroke-linecap:butt;stroke-linejoin:miter;stroke-opacity:1"/>
<path class="bond-2 atom-0 atom-14" d="M 265.8,218.7 L 228.5,217.4" style="fill:none;fill-rule:evenodd;stroke:#000000;stroke-width:2.0px;stroke-linecap:butt;stroke-linejoin:miter;stroke-opacity:1"/>
<path class="bond-3 atom-1 atom-2" d="M 262.6,291.0 L 252.7,296.2" style="fill:none;fill-rule:evenodd;stroke:#0000FF;stroke-width:2.0px;stroke-linecap:butt;stroke-linejoin:miter;stroke-opacity:1"/>
<path class="bond-3 atom-1 atom-2" d="M 252.7,296.2 L 242.9,301.4" style="fill:none;fill-rule:evenodd;stroke:#000000;stroke-width:2.0px;stroke-linecap:butt;stroke-linejoin:miter;stroke-opacity:1"/>
<path class="bond-4 atom-1 atom-4" d="M 298.0,292.5 L 306.8,298.0" style="fill:none;fill-rule:evenodd;stroke:#0000FF;stroke-width:2.0px;stroke-linecap:butt;stroke-linejoin:miter;stroke-opacity:1"/>
<path class="bond-4 atom-1 atom-4" d="M 306.8,298.0 L 315.7,303.6" style="fill:none;fill-rule:evenodd;stroke:#000000;stroke-width:2.0px;stroke-linecap:butt;stroke-linejoin:miter;stroke-opacity:1"/>
<path class="bond-5 atom-1 atom-0" d="M 280.7,273.6 L 281.5,253.4" style="fill:none;fill-rule:evenodd;stroke:#0000FF;stroke-width:2.0px;stroke-linecap:butt;stroke-linejoin:miter;stroke-opacity:1"/>
<path class="bond-5 atom-1 atom-0" d="M 281.5,253.4 L 282.2,233.2" style="fill:none;fill-rule:evenodd;stroke:#000000;stroke-width:2.0px;stroke-linecap:butt;stroke-linejoin:miter;stroke-opacity:1"/>
<path class="bond-6 atom-2 atom-5" d="M 219.7,299.7 L 202.2,266.8" style="fill:none;fill-rule:evenodd;stroke:#000000;stroke-width:2.0px;stroke-linecap:butt;stroke-linejoin:miter;stroke-opacity:1"/>
<path class="bond-7 atom-2 atom-6" d="M 231.4,321.9 L 248.9,354.8" style="fill:none;fill-rule:evenodd;stroke:#000000;stroke-width:2.0px;stroke-linecap:butt;stroke-linejoin:miter;stroke-opacity:1"/>
<path class="bond-8 atom-3 atom-2" d="M 188.8,330.1 L 208.0,319.9" style="fill:none;fill-rule:evenodd;stroke:#000000;stroke-width:2.0px;stroke-linecap:butt;stroke-linejoin:miter;stroke-opacity:1"/>
<path class="bond-9 atom-3 atom-8" d="M 176.2,353.9 L 175.6,372.6" style="fill:none;fill-rule:evenodd;stroke:#000000;stroke-width:2.0px;stroke-linecap:butt;stroke-linejoin:miter;stroke-opacity:1"/>
<path class="bond-9 atom-3 atom-8" d="M 175.6,372.6 L 174.9,391.3" style="fill:none;fill-rule:evenodd;stroke:#FF0000;stroke-width:2.0px;stroke-linecap:butt;stroke-linejoin:miter;stroke-opacity:1"/>
<path class="bond-9 atom-3 atom-8" d="M 163.8,353.4 L 163.1,372.1" style="fill:none;fill-rule:evenodd;stroke:#000000;stroke-width:2.0px;stroke-linecap:butt;stroke-linejoin:miter;stroke-opacity:1"/>
<path class="bond-9 atom-3 atom-8" d="M 163.1,372.1 L 162.5,390.8" style="fill:none;fill-rule:evenodd;stroke:#FF0000;stroke-width:2.0px;stroke-linecap:butt;stroke-linejoin:miter;stroke-opacity:1"/>
<path class="bond-10 atom-4 atom-9" d="M 350.7,325.5 L 368.4,336.6" style="fill:none;fill-rule:evenodd;stroke:#000000;stroke-width:2.0px;stroke-linecap:butt;stroke-linejoin:miter;stroke-opacity:1"/>
<path class="bond-11 atom-4 atom-10" d="M 339.9,303.7 L 359.4,272.7" style="fill:none;fill-rule:evenodd;stroke:#000000;stroke-width:2.0px;stroke-linecap:butt;stroke-linejoin:miter;stroke-opacity:1"/>
<path class="bond-12 atom-4 atom-11" d="M 326.2,325.7 L 307.0,356.3" style="fill:none;fill-rule:evenodd;stroke:#000000;stroke-width:2.0px;stroke-linecap:butt;stroke-linejoin:miter;stroke-opacity:1"/>
<path class="bond-13 atom-7 atom-3" d="M 135.7,318.0 L 144.3,323.4" style="fill:none;fill-rule:evenodd;stroke:#0000FF;stroke-width:2.0px;stroke-linecap:butt;stroke-linejoin:miter;stroke-opacity:1"/>
<path class="bond-13 atom-7 atom-3" d="M 144.3,323.4 L 153.0,328.9" style="fill:none;fill-rule:evenodd;stroke:#000000;stroke-width:2.0px;stroke-linecap:butt;stroke-linejoin:miter;stroke-opacity:1"/>
<path class="bond-14 atom-7 atom-19" d="M 99.6,316.4 L 85.4,323.9" style="fill:none;fill-rule:evenodd;stroke:#0000FF;stroke-width:2.0px;stroke-linecap:butt;stroke-linejoin:miter;stroke-opacity:1"/>
<path class="bond-14 atom-7 atom-19" d="M 85.4,323.9 L 71.3,331.5" style="fill:none;fill-rule:evenodd;stroke:#000000;stroke-width:2.0px;stroke-linecap:butt;stroke-linejoin:miter;stroke-opacity:1"/>
<path class="bond-15 atom-7 atom-20" d="M 118.1,298.9 L 118.8,277.2" style="fill:none;fill-rule:evenodd;stroke:#0000FF;stroke-width:2.0px;stroke-linecap:butt;stroke-linejoin:miter;stroke-opacity:1"/>
<path class="bond-15 atom-7 atom-20" d="M 118.8,277.2 L 119.6,255.6" style="fill:none;fill-rule:evenodd;stroke:#000000;stroke-width:2.0px;stroke-linecap:butt;stroke-linejoin:miter;stroke-opacity:1"/>
<path class="bond-16 atom-9 atom-15" d="M 377.2,361.4 L 359.8,389.3" style="fill:none;fill-rule:evenodd;stroke:#000000;stroke-width:2.0px;stroke-linecap:butt;stroke-linejoin:miter;stroke-opacity:1"/>
<path class="bond-17 atom-9 atom-16" d="M 392.8,336.6 L 412.1,305.7" style="fill:none;fill-rule:evenodd;stroke:#000000;stroke-width:2.0px;stroke-linecap:butt;stroke-linejoin:miter;stroke-opacity:1"/>
<path class="bond-18 atom-9 atom-21" d="M 403.8,358.7 L 429.7,375.0" style="fill:none;fill-rule:evenodd;stroke:#000000;stroke-width:2.0px;stroke-linecap:butt;stroke-linejoin:miter;stroke-opacity:1"/>
<path class="bond-19 atom-12 atom-17" d="M 261.6,156.3 L 231.0,155.2" style="fill:none;fill-rule:evenodd;stroke:#000000;stroke-width:2.0px;stroke-linecap:butt;stroke-linejoin:miter;stroke-opacity:1"/>
<path class="bond-20 atom-12 atom-18" d="M 308.2,158.0 L 338.1,159.0" style="fill:none;fill-rule:evenodd;stroke:#000000;stroke-width:2.0px;stroke-linecap:butt;stroke-linejoin:miter;stroke-opacity:1"/>
<path class="bond-21 atom-12 atom-22" d="M 285.3,146.3 L 286.7,105.9" style="fill:none;fill-rule:evenodd;stroke:#000000;stroke-width:2.0px;stroke-linecap:butt;stroke-linejoin:miter;stroke-opacity:1"/>
<path class="atom-0" d="M 267.9 219.4 Q 267.9 215.0, 269.9 212.7 Q 272.0 210.4, 275.9 210.4 Q 279.5 210.4, 281.5 213.0 L 279.8 214.3 Q 278.4 212.4, 275.9 212.4 Q 273.2 212.4, 271.8 214.2 Q 270.4 216.0, 270.4 219.4 Q 270.4 222.9, 271.9 224.7 Q 273.3 226.4, 276.2 226.4 Q 278.1 226.4, 280.4 225.3 L 281.1 227.1 Q 280.2 227.7, 278.8 228.1 Q 277.4 228.4, 275.8 228.4 Q 272.0 228.4, 269.9 226.1 Q 267.9 223.8, 267.9 219.4 " fill="#000000"/>
<path class="atom-0" d="M 282.5 225.3 L 285.0 225.3 L 285.0 227.8 L 282.5 227.8 L 282.5 225.3 M 282.5 216.7 L 285.0 216.7 L 285.0 219.2 L 282.5 219.2 L 282.5 216.7 " fill="#000000"/>
<path class="atom-0" d="M 287.8 226.2 L 291.7 226.2 L 291.7 213.1 L 287.4 214.4 L 286.8 212.9 L 292.2 210.5 L 294.0 210.8 L 294.0 226.2 L 297.5 226.2 L 297.5 228.2 L 287.8 228.2 L 287.8 226.2 " fill="#000000"/>
<path class="atom-1" d="M 267.4 272.8 L 273.2 282.1 Q 273.8 283.0, 274.7 284.7 Q 275.6 286.4, 275.6 286.5 L 275.6 272.8 L 278.0 272.8 L 278.0 290.4 L 275.6 290.4 L 269.4 280.2 Q 268.6 279.0, 267.9 277.6 Q 267.1 276.3, 266.9 275.8 L 266.9 290.4 L 264.6 290.4 L 264.6 272.8 L 267.4 272.8 " fill="#0000FF"/>
<path class="atom-1" d="M 280.0 287.5 L 282.5 287.5 L 282.5 290.0 L 280.0 290.0 L 280.0 287.5 M 280.0 278.9 L 282.5 278.9 L 282.5 281.4 L 280.0 281.4 L 280.0 278.9 " fill="#0000FF"/>
<path class="atom-1" d="M 284.5 276.1 Q 285.1 274.4, 286.6 273.5 Q 288.2 272.6, 290.3 272.6 Q 293.0 272.6, 294.5 274.0 Q 296.0 275.5, 296.0 278.0 Q 296.0 280.6, 294.0 283.1 Q 292.1 285.5, 288.1 288.4 L 296.3 288.4 L 296.3 290.4 L 284.4 290.4 L 284.4 288.7 Q 287.7 286.4, 289.6 284.7 Q 291.6 282.9, 292.5 281.3 Q 293.5 279.8, 293.5 278.2 Q 293.5 276.5, 292.6 275.5 Q 291.8 274.6, 290.3 274.6 Q 288.9 274.6, 288.0 275.1 Q 287.0 275.7, 286.3 277.0 L 284.5 276.1 " fill="#0000FF"/>
<path class="atom-2" d="M 210.1 310.7 Q 210.1 306.3, 212.1 304.1 Q 214.2 301.7, 218.1 301.7 Q 221.7 301.7, 223.7 304.3 L 222.0 305.7 Q 220.6 303.8, 218.1 303.8 Q 215.4 303.8, 214.0 305.6 Q 212.6 307.3, 212.6 310.7 Q 212.6 314.2, 214.1 316.0 Q 215.5 317.8, 218.4 317.8 Q 220.3 317.8, 222.6 316.6 L 223.3 318.5 Q 222.4 319.1, 221.0 319.4 Q 219.6 319.8, 218.0 319.8 Q 214.2 319.8, 212.1 317.5 Q 210.1 315.1, 210.1 310.7 " fill="#000000"/>
<path class="atom-2" d="M 224.7 316.7 L 227.2 316.7 L 227.2 319.1 L 224.7 319.1 L 224.7 316.7 M 224.7 308.1 L 227.2 308.1 L 227.2 310.6 L 224.7 310.6 L 224.7 308.1 " fill="#000000"/>
<path class="atom-2" d="M 237.5 310.3 Q 239.2 310.8, 240.0 311.9 Q 240.9 313.0, 240.9 314.7 Q 240.9 316.2, 240.1 317.4 Q 239.4 318.5, 238.0 319.2 Q 236.6 319.8, 234.8 319.8 Q 233.0 319.8, 231.5 319.2 Q 230.1 318.5, 229.0 317.2 L 230.4 315.7 Q 231.5 316.9, 232.5 317.4 Q 233.4 317.8, 234.8 317.8 Q 236.4 317.8, 237.4 317.0 Q 238.4 316.1, 238.4 314.7 Q 238.4 312.9, 237.4 312.1 Q 236.4 311.3, 234.2 311.3 L 232.9 311.3 L 232.9 309.5 L 234.1 309.5 Q 236.0 309.5, 237.0 308.7 Q 238.0 307.8, 238.0 306.2 Q 238.0 305.1, 237.2 304.4 Q 236.3 303.7, 234.9 303.7 Q 233.4 303.7, 232.5 304.3 Q 231.6 304.8, 230.9 306.1 L 229.2 305.2 Q 229.8 303.7, 231.3 302.7 Q 232.8 301.7, 234.9 301.7 Q 237.5 301.7, 239.0 303.0 Q 240.5 304.2, 240.5 306.2 Q 240.5 307.7, 239.7 308.7 Q 239.0 309.7, 237.5 310.3 " fill="#000000"/>
<path class="atom-3" d="M 154.3 339.9 Q 154.3 335.5, 156.3 333.2 Q 158.4 330.9, 162.3 330.9 Q 165.9 330.9, 167.8 333.5 L 166.2 334.8 Q 164.8 332.9, 162.3 332.9 Q 159.6 332.9, 158.2 334.7 Q 156.8 336.5, 156.8 339.9 Q 156.8 343.4, 158.2 345.2 Q 159.7 347.0, 162.5 347.0 Q 164.5 347.0, 166.8 345.8 L 167.4 347.7 Q 166.5 348.3, 165.1 348.6 Q 163.7 349.0, 162.2 349.0 Q 158.4 349.0, 156.3 346.6 Q 154.3 344.3, 154.3 339.9 " fill="#000000"/>
<path class="atom-3" d="M 168.8 345.8 L 171.3 345.8 L 171.3 348.3 L 168.8 348.3 L 168.8 345.8 M 168.8 337.3 L 171.3 337.3 L 171.3 339.7 L 168.8 339.7 L 168.8 337.3 " fill="#000000"/>
<path class="atom-3" d="M 184.6 342.7 L 186.8 342.7 L 186.8 344.7 L 184.6 344.7 L 184.6 348.7 L 182.3 348.7 L 182.3 344.7 L 173.2 344.7 L 173.2 343.1 L 180.9 331.1 L 184.6 331.1 L 184.6 342.7 M 176.1 342.7 L 182.3 342.7 L 182.3 332.7 L 176.1 342.7 " fill="#000000"/>
<path class="atom-4" d="M 317.8 314.6 Q 317.8 310.2, 319.8 307.9 Q 321.9 305.6, 325.8 305.6 Q 329.4 305.6, 331.3 308.2 L 329.7 309.5 Q 328.3 307.6, 325.8 307.6 Q 323.1 307.6, 321.7 309.4 Q 320.3 311.2, 320.3 314.6 Q 320.3 318.1, 321.7 319.9 Q 323.2 321.7, 326.0 321.7 Q 328.0 321.7, 330.2 320.5 L 330.9 322.4 Q 330.0 323.0, 328.6 323.3 Q 327.2 323.6, 325.7 323.6 Q 321.9 323.6, 319.8 321.3 Q 317.8 319.0, 317.8 314.6 " fill="#000000"/>
<path class="atom-4" d="M 332.3 320.5 L 334.8 320.5 L 334.8 323.0 L 332.3 323.0 L 332.3 320.5 M 332.3 311.9 L 334.8 311.9 L 334.8 314.4 L 332.3 314.4 L 332.3 311.9 " fill="#000000"/>
<path class="atom-4" d="M 343.1 312.4 Q 344.6 312.4, 345.9 313.1 Q 347.2 313.7, 347.9 315.0 Q 348.6 316.2, 348.6 317.8 Q 348.6 319.7, 347.7 321.0 Q 346.9 322.3, 345.4 323.0 Q 344.0 323.6, 342.3 323.6 Q 340.7 323.6, 339.2 323.0 Q 337.7 322.4, 336.7 321.3 L 338.2 319.7 Q 339.0 320.6, 340.1 321.1 Q 341.3 321.6, 342.4 321.6 Q 344.0 321.6, 345.0 320.6 Q 346.1 319.7, 346.1 317.9 Q 346.1 316.0, 345.0 315.2 Q 344.0 314.3, 342.2 314.3 Q 340.7 314.3, 339.0 314.9 L 337.6 314.3 L 338.5 305.8 L 347.5 305.8 L 347.3 307.8 L 340.5 307.8 L 340.0 313.0 Q 341.5 312.4, 343.1 312.4 " fill="#000000"/>
<path class="atom-5" d="M 169.9 247.0 L 172.3 247.0 L 172.3 254.5 L 181.3 254.5 L 181.3 247.0 L 183.7 247.0 L 183.7 264.6 L 181.3 264.6 L 181.3 256.5 L 172.3 256.5 L 172.3 264.6 L 169.9 264.6 L 169.9 247.0 " fill="#000000"/>
<path class="atom-5" d="M 185.8 261.7 L 188.3 261.7 L 188.3 264.2 L 185.8 264.2 L 185.8 261.7 M 185.8 253.1 L 188.3 253.1 L 188.3 255.6 L 185.8 255.6 L 185.8 253.1 " fill="#000000"/>
<path class="atom-5" d="M 197.1 253.6 Q 198.6 253.6, 199.9 254.3 Q 201.1 254.9, 201.8 256.2 Q 202.4 257.4, 202.4 258.9 Q 202.4 260.6, 201.7 262.0 Q 200.9 263.3, 199.6 264.0 Q 198.2 264.8, 196.5 264.8 Q 193.4 264.8, 191.8 262.7 Q 190.2 260.5, 190.2 256.3 Q 190.2 251.6, 192.1 249.2 Q 194.1 246.8, 197.9 246.8 Q 199.0 246.8, 199.9 247.0 Q 200.8 247.3, 201.7 247.8 L 200.8 249.5 Q 199.5 248.8, 197.9 248.8 Q 195.4 248.8, 194.1 250.4 Q 192.9 252.0, 192.7 255.3 Q 193.6 254.5, 194.7 254.0 Q 195.9 253.6, 197.1 253.6 M 196.5 262.8 Q 197.5 262.8, 198.2 262.3 Q 199.0 261.8, 199.5 260.9 Q 199.9 260.0, 199.9 258.9 Q 199.9 257.4, 199.1 256.5 Q 198.2 255.6, 196.7 255.6 Q 195.6 255.6, 194.5 256.0 Q 193.5 256.5, 192.7 257.2 Q 192.8 260.1, 193.7 261.4 Q 194.7 262.8, 196.5 262.8 " fill="#000000"/>
<path class="atom-6" d="M 247.7 356.8 L 250.1 356.8 L 250.1 364.3 L 259.1 364.3 L 259.1 356.8 L 261.5 356.8 L 261.5 374.4 L 259.1 374.4 L 259.1 366.3 L 250.1 366.3 L 250.1 374.4 L 247.7 374.4 L 247.7 356.8 " fill="#000000"/>
<path class="atom-6" d="M 263.7 371.5 L 266.1 371.5 L 266.1 374.0 L 263.7 374.0 L 263.7 371.5 M 263.7 363.0 L 266.1 363.0 L 266.1 365.4 L 263.7 365.4 L 263.7 363.0 " fill="#000000"/>
<path class="atom-6" d="M 277.2 358.8 L 268.0 358.8 L 268.0 356.8 L 279.7 356.8 L 279.7 358.6 L 272.6 374.4 L 270.2 374.4 L 277.2 358.8 " fill="#000000"/>
<path class="atom-7" d="M 104.4 298.1 L 110.2 307.4 Q 110.8 308.3, 111.7 310.0 Q 112.6 311.7, 112.7 311.8 L 112.7 298.1 L 115.0 298.1 L 115.0 315.7 L 112.6 315.7 L 106.4 305.5 Q 105.7 304.3, 104.9 302.9 Q 104.2 301.6, 103.9 301.1 L 103.9 315.7 L 101.7 315.7 L 101.7 298.1 L 104.4 298.1 " fill="#0000FF"/>
<path class="atom-7" d="M 117.1 312.8 L 119.6 312.8 L 119.6 315.3 L 117.1 315.3 L 117.1 312.8 M 117.1 304.2 L 119.6 304.2 L 119.6 306.7 L 117.1 306.7 L 117.1 304.2 " fill="#0000FF"/>
<path class="atom-7" d="M 130.4 306.4 Q 132.0 307.1, 133.0 308.1 Q 133.9 309.1, 133.9 310.9 Q 133.9 312.4, 133.1 313.5 Q 132.3 314.7, 130.9 315.3 Q 129.6 316.0, 127.8 316.0 Q 124.8 316.0, 123.1 314.6 Q 121.4 313.2, 121.4 310.9 Q 121.4 309.4, 122.2 308.4 Q 122.9 307.3, 124.5 306.4 Q 123.3 305.8, 122.7 304.9 Q 122.1 303.9, 122.1 302.4 Q 122.1 300.3, 123.6 299.1 Q 125.1 297.9, 127.7 297.9 Q 130.2 297.9, 131.7 299.1 Q 133.2 300.3, 133.2 302.4 Q 133.2 303.7, 132.5 304.7 Q 131.8 305.6, 130.4 306.4 M 127.7 299.8 Q 126.2 299.8, 125.4 300.4 Q 124.6 301.1, 124.6 302.4 Q 124.6 303.3, 125.1 303.9 Q 125.7 304.5, 126.4 304.9 Q 127.2 305.2, 128.8 305.8 Q 129.8 305.0, 130.3 304.2 Q 130.7 303.4, 130.7 302.4 Q 130.7 301.1, 129.9 300.4 Q 129.1 299.8, 127.7 299.8 M 127.8 314.1 Q 129.4 314.1, 130.4 313.2 Q 131.4 312.3, 131.4 310.9 Q 131.4 309.9, 130.9 309.3 Q 130.4 308.7, 129.6 308.4 Q 128.8 308.0, 127.4 307.6 L 126.3 307.2 Q 125.0 307.9, 124.5 308.8 Q 123.9 309.7, 123.9 310.9 Q 123.9 312.3, 125.0 313.2 Q 126.0 314.1, 127.8 314.1 " fill="#0000FF"/>
<path class="atom-8" d="M 160.2 402.1 Q 160.2 397.8, 162.3 395.5 Q 164.4 393.1, 168.3 393.1 Q 172.2 393.1, 174.3 395.5 Q 176.4 397.8, 176.4 402.1 Q 176.4 406.3, 174.3 408.8 Q 172.1 411.2, 168.3 411.2 Q 164.4 411.2, 162.3 408.8 Q 160.2 406.4, 160.2 402.1 M 168.3 409.2 Q 171.0 409.2, 172.4 407.4 Q 173.9 405.6, 173.9 402.1 Q 173.9 398.6, 172.4 396.9 Q 171.0 395.1, 168.3 395.1 Q 165.6 395.1, 164.1 396.8 Q 162.7 398.6, 162.7 402.1 Q 162.7 405.6, 164.1 407.4 Q 165.6 409.2, 168.3 409.2 " fill="#FF0000"/>
<path class="atom-8" d="M 177.6 408.0 L 180.1 408.0 L 180.1 410.5 L 177.6 410.5 L 177.6 408.0 M 177.6 399.4 L 180.1 399.4 L 180.1 401.9 L 177.6 401.9 L 177.6 399.4 " fill="#FF0000"/>
<path class="atom-8" d="M 187.9 393.1 Q 191.0 393.1, 192.6 395.2 Q 194.2 397.3, 194.2 401.6 Q 194.2 406.3, 192.2 408.7 Q 190.3 411.1, 186.5 411.1 Q 185.4 411.1, 184.5 410.9 Q 183.6 410.6, 182.7 410.1 L 183.6 408.4 Q 184.9 409.1, 186.5 409.1 Q 189.0 409.1, 190.3 407.5 Q 191.5 405.9, 191.7 402.6 Q 190.8 403.4, 189.6 403.9 Q 188.5 404.3, 187.3 404.3 Q 185.8 404.3, 184.5 403.6 Q 183.3 403.0, 182.6 401.7 Q 182.0 400.5, 182.0 399.0 Q 182.0 397.3, 182.7 395.9 Q 183.5 394.6, 184.8 393.8 Q 186.2 393.1, 187.9 393.1 M 184.5 398.9 Q 184.5 400.5, 185.3 401.4 Q 186.2 402.3, 187.7 402.3 Q 188.8 402.3, 189.9 401.9 Q 190.9 401.4, 191.7 400.7 Q 191.6 397.8, 190.7 396.5 Q 189.7 395.1, 187.9 395.1 Q 186.9 395.1, 186.1 395.6 Q 185.4 396.1, 184.9 397.0 Q 184.5 397.9, 184.5 398.9 " fill="#FF0000"/>
<path class="atom-9" d="M 364.2 347.6 Q 364.2 343.2, 366.2 340.9 Q 368.3 338.6, 372.2 338.6 Q 375.8 338.6, 377.8 341.2 L 376.1 342.5 Q 374.7 340.7, 372.2 340.7 Q 369.5 340.7, 368.1 342.5 Q 366.7 344.2, 366.7 347.6 Q 366.7 351.1, 368.2 352.9 Q 369.6 354.7, 372.5 354.7 Q 374.4 354.7, 376.7 353.5 L 377.4 355.4 Q 376.4 356.0, 375.1 356.3 Q 373.7 356.7, 372.1 356.7 Q 368.3 356.7, 366.2 354.3 Q 364.2 352.0, 364.2 347.6 " fill="#000000"/>
<path class="atom-9" d="M 378.8 353.5 L 381.2 353.5 L 381.2 356.0 L 378.8 356.0 L 378.8 353.5 M 378.8 345.0 L 381.2 345.0 L 381.2 347.5 L 378.8 347.5 L 378.8 345.0 " fill="#000000"/>
<path class="atom-9" d="M 384.1 354.5 L 387.9 354.5 L 387.9 341.3 L 383.7 342.6 L 383.1 341.1 L 388.5 338.7 L 390.3 339.0 L 390.3 354.5 L 393.7 354.5 L 393.7 356.4 L 384.1 356.4 L 384.1 354.5 " fill="#000000"/>
<path class="atom-9" d="M 401.2 356.6 Q 398.0 356.6, 396.4 354.3 Q 394.8 351.9, 394.8 347.6 Q 394.8 343.4, 396.4 341.0 Q 398.0 338.6, 401.2 338.6 Q 404.5 338.6, 406.1 341.0 Q 407.7 343.4, 407.7 347.6 Q 407.7 351.9, 406.1 354.3 Q 404.5 356.6, 401.2 356.6 M 401.2 354.7 Q 403.2 354.7, 404.2 352.9 Q 405.2 351.1, 405.2 347.6 Q 405.2 344.2, 404.2 342.4 Q 403.2 340.6, 401.2 340.6 Q 399.3 340.6, 398.3 342.4 Q 397.3 344.2, 397.3 347.6 Q 397.3 351.1, 398.3 352.9 Q 399.3 354.7, 401.2 354.7 " fill="#000000"/>
<path class="atom-10" d="M 359.3 253.0 L 361.7 253.0 L 361.7 260.5 L 370.7 260.5 L 370.7 253.0 L 373.1 253.0 L 373.1 270.6 L 370.7 270.6 L 370.7 262.5 L 361.7 262.5 L 361.7 270.6 L 359.3 270.6 L 359.3 253.0 " fill="#000000"/>
<path class="atom-10" d="M 375.2 267.7 L 377.7 267.7 L 377.7 270.2 L 375.2 270.2 L 375.2 267.7 M 375.2 259.2 L 377.7 259.2 L 377.7 261.6 L 375.2 261.6 L 375.2 259.2 " fill="#000000"/>
<path class="atom-10" d="M 380.5 268.6 L 384.4 268.6 L 384.4 255.5 L 380.1 256.8 L 379.6 255.3 L 385.0 252.9 L 386.7 253.2 L 386.7 268.6 L 390.2 268.6 L 390.2 270.6 L 380.5 270.6 L 380.5 268.6 " fill="#000000"/>
<path class="atom-10" d="M 392.2 268.6 L 396.1 268.6 L 396.1 255.5 L 391.8 256.8 L 391.2 255.3 L 396.6 252.9 L 398.4 253.2 L 398.4 268.6 L 401.9 268.6 L 401.9 270.6 L 392.2 270.6 L 392.2 268.6 " fill="#000000"/>
<path class="atom-11" d="M 262.3 358.5 L 264.7 358.5 L 264.7 366.0 L 273.7 366.0 L 273.7 358.5 L 276.1 358.5 L 276.1 376.2 L 273.7 376.2 L 273.7 368.0 L 264.7 368.0 L 264.7 376.2 L 262.3 376.2 L 262.3 358.5 " fill="#000000"/>
<path class="atom-11" d="M 278.2 373.3 L 280.7 373.3 L 280.7 375.7 L 278.2 375.7 L 278.2 373.3 M 278.2 364.7 L 280.7 364.7 L 280.7 367.2 L 278.2 367.2 L 278.2 364.7 " fill="#000000"/>
<path class="atom-11" d="M 283.5 374.2 L 287.4 374.2 L 287.4 361.0 L 283.1 362.3 L 282.6 360.9 L 288.0 358.4 L 289.7 358.7 L 289.7 374.2 L 293.2 374.2 L 293.2 376.2 L 283.5 376.2 L 283.5 374.2 " fill="#000000"/>
<path class="atom-11" d="M 294.3 361.9 Q 294.9 360.2, 296.5 359.3 Q 298.0 358.3, 300.2 358.3 Q 302.8 358.3, 304.3 359.8 Q 305.8 361.2, 305.8 363.8 Q 305.8 366.4, 303.9 368.8 Q 301.9 371.3, 298.0 374.2 L 306.1 374.2 L 306.1 376.2 L 294.2 376.2 L 294.2 374.5 Q 297.5 372.2, 299.5 370.4 Q 301.4 368.7, 302.4 367.1 Q 303.3 365.5, 303.3 363.9 Q 303.3 362.2, 302.5 361.3 Q 301.6 360.3, 300.2 360.3 Q 298.7 360.3, 297.8 360.9 Q 296.8 361.5, 296.2 362.7 L 294.3 361.9 " fill="#000000"/>
<path class="atom-12" d="M 263.7 157.2 Q 263.7 152.8, 265.7 150.5 Q 267.8 148.2, 271.7 148.2 Q 275.3 148.2, 277.3 150.8 L 275.6 152.1 Q 274.2 150.3, 271.7 150.3 Q 269.0 150.3, 267.6 152.0 Q 266.2 153.8, 266.2 157.2 Q 266.2 160.7, 267.7 162.5 Q 269.1 164.3, 272.0 164.3 Q 273.9 164.3, 276.2 163.1 L 276.9 165.0 Q 275.9 165.6, 274.5 165.9 Q 273.2 166.3, 271.6 166.3 Q 267.8 166.3, 265.7 163.9 Q 263.7 161.6, 263.7 157.2 " fill="#000000"/>
<path class="atom-12" d="M 278.3 163.1 L 280.7 163.1 L 280.7 165.6 L 278.3 165.6 L 278.3 163.1 M 278.3 154.6 L 280.7 154.6 L 280.7 157.0 L 278.3 157.0 L 278.3 154.6 " fill="#000000"/>
<path class="atom-12" d="M 283.6 164.0 L 287.4 164.0 L 287.4 150.9 L 283.2 152.2 L 282.6 150.7 L 288.0 148.3 L 289.8 148.6 L 289.8 164.0 L 293.2 164.0 L 293.2 166.0 L 283.6 166.0 L 283.6 164.0 " fill="#000000"/>
<path class="atom-12" d="M 302.7 156.7 Q 304.5 157.2, 305.3 158.4 Q 306.1 159.5, 306.1 161.2 Q 306.1 162.7, 305.4 163.9 Q 304.6 165.0, 303.3 165.7 Q 301.9 166.3, 300.1 166.3 Q 298.2 166.3, 296.8 165.6 Q 295.4 165.0, 294.3 163.6 L 295.7 162.2 Q 296.8 163.4, 297.7 163.8 Q 298.6 164.3, 300.1 164.3 Q 301.7 164.3, 302.7 163.4 Q 303.6 162.6, 303.6 161.2 Q 303.6 159.4, 302.6 158.6 Q 301.6 157.8, 299.5 157.8 L 298.2 157.8 L 298.2 156.0 L 299.3 156.0 Q 301.2 156.0, 302.3 155.1 Q 303.3 154.3, 303.3 152.7 Q 303.3 151.6, 302.4 150.9 Q 301.6 150.2, 300.1 150.2 Q 298.7 150.2, 297.7 150.7 Q 296.8 151.2, 296.2 152.6 L 294.4 151.6 Q 295.1 150.2, 296.6 149.2 Q 298.0 148.2, 300.1 148.2 Q 302.7 148.2, 304.2 149.4 Q 305.8 150.6, 305.8 152.7 Q 305.8 154.1, 305.0 155.2 Q 304.2 156.2, 302.7 156.7 " fill="#000000"/>
<path class="atom-13" d="M 338.0 212.8 L 340.4 212.8 L 340.4 220.3 L 349.4 220.3 L 349.4 212.8 L 351.8 212.8 L 351.8 230.4 L 349.4 230.4 L 349.4 222.3 L 340.4 222.3 L 340.4 230.4 L 338.0 230.4 L 338.0 212.8 " fill="#000000"/>
<path class="atom-13" d="M 353.9 227.5 L 356.4 227.5 L 356.4 230.0 L 353.9 230.0 L 353.9 227.5 M 353.9 218.9 L 356.4 218.9 L 356.4 221.4 L 353.9 221.4 L 353.9 218.9 " fill="#000000"/>
<path class="atom-13" d="M 359.2 228.4 L 363.1 228.4 L 363.1 215.2 L 358.8 216.6 L 358.2 215.1 L 363.6 212.7 L 365.4 213.0 L 365.4 228.4 L 368.9 228.4 L 368.9 230.4 L 359.2 230.4 L 359.2 228.4 " fill="#000000"/>
<path class="atom-13" d="M 381.3 224.3 L 383.5 224.3 L 383.5 226.3 L 381.3 226.3 L 381.3 230.4 L 379.0 230.4 L 379.0 226.3 L 369.9 226.3 L 369.9 224.8 L 377.6 212.8 L 381.3 212.8 L 381.3 224.3 M 372.8 224.3 L 379.0 224.3 L 379.0 214.4 L 372.8 224.3 " fill="#000000"/>
<path class="atom-14" d="M 182.6 208.3 L 185.0 208.3 L 185.0 215.8 L 194.0 215.8 L 194.0 208.3 L 196.4 208.3 L 196.4 225.9 L 194.0 225.9 L 194.0 217.8 L 185.0 217.8 L 185.0 225.9 L 182.6 225.9 L 182.6 208.3 " fill="#000000"/>
<path class="atom-14" d="M 198.5 223.0 L 201.0 223.0 L 201.0 225.5 L 198.5 225.5 L 198.5 223.0 M 198.5 214.5 L 201.0 214.5 L 201.0 217.0 L 198.5 217.0 L 198.5 214.5 " fill="#000000"/>
<path class="atom-14" d="M 203.8 223.9 L 207.7 223.9 L 207.7 210.8 L 203.4 212.1 L 202.9 210.6 L 208.3 208.2 L 210.0 208.5 L 210.0 223.9 L 213.5 223.9 L 213.5 225.9 L 203.8 225.9 L 203.8 223.9 " fill="#000000"/>
<path class="atom-14" d="M 220.9 214.9 Q 222.5 214.9, 223.7 215.6 Q 225.0 216.2, 225.7 217.5 Q 226.4 218.7, 226.4 220.4 Q 226.4 222.2, 225.6 223.5 Q 224.7 224.8, 223.2 225.5 Q 221.8 226.1, 220.2 226.1 Q 218.5 226.1, 217.0 225.5 Q 215.5 224.9, 214.5 223.8 L 216.0 222.3 Q 216.8 223.2, 218.0 223.6 Q 219.1 224.1, 220.2 224.1 Q 221.8 224.1, 222.9 223.2 Q 224.0 222.2, 224.0 220.4 Q 224.0 218.5, 222.9 217.7 Q 221.8 216.8, 220.1 216.8 Q 218.5 216.8, 216.8 217.5 L 215.4 216.8 L 216.3 208.3 L 225.4 208.3 L 225.1 210.3 L 218.3 210.3 L 217.8 215.5 Q 219.4 214.9, 220.9 214.9 " fill="#000000"/>
<path class="atom-15" d="M 314.9 391.6 L 317.2 391.6 L 317.2 399.1 L 326.3 399.1 L 326.3 391.6 L 328.6 391.6 L 328.6 409.2 L 326.3 409.2 L 326.3 401.0 L 317.2 401.0 L 317.2 409.2 L 314.9 409.2 L 314.9 391.6 " fill="#000000"/>
<path class="atom-15" d="M 330.8 406.3 L 333.3 406.3 L 333.3 408.8 L 330.8 408.8 L 330.8 406.3 M 330.8 397.7 L 333.3 397.7 L 333.3 400.2 L 330.8 400.2 L 330.8 397.7 " fill="#000000"/>
<path class="atom-15" d="M 336.1 407.2 L 339.9 407.2 L 339.9 394.0 L 335.7 395.3 L 335.1 393.9 L 340.5 391.5 L 342.3 391.8 L 342.3 407.2 L 345.7 407.2 L 345.7 409.2 L 336.1 409.2 L 336.1 407.2 " fill="#000000"/>
<path class="atom-15" d="M 353.7 398.2 Q 355.2 398.2, 356.5 398.9 Q 357.7 399.5, 358.3 400.7 Q 359.0 402.0, 359.0 403.5 Q 359.0 405.2, 358.2 406.6 Q 357.5 407.9, 356.2 408.6 Q 354.8 409.4, 353.1 409.4 Q 350.0 409.4, 348.4 407.3 Q 346.8 405.1, 346.8 400.9 Q 346.8 396.2, 348.7 393.8 Q 350.7 391.4, 354.5 391.4 Q 355.6 391.4, 356.5 391.6 Q 357.4 391.9, 358.3 392.4 L 357.3 394.1 Q 356.1 393.4, 354.5 393.4 Q 352.0 393.4, 350.7 395.0 Q 349.5 396.6, 349.3 399.9 Q 350.2 399.1, 351.3 398.6 Q 352.5 398.2, 353.7 398.2 M 353.1 407.3 Q 354.1 407.3, 354.8 406.8 Q 355.6 406.3, 356.1 405.5 Q 356.5 404.6, 356.5 403.5 Q 356.5 402.0, 355.7 401.1 Q 354.8 400.2, 353.2 400.2 Q 352.2 400.2, 351.1 400.6 Q 350.1 401.0, 349.3 401.8 Q 349.4 404.7, 350.3 406.0 Q 351.2 407.3, 353.1 407.3 " fill="#000000"/>
<path class="atom-16" d="M 412.1 286.0 L 414.4 286.0 L 414.4 293.5 L 423.5 293.5 L 423.5 286.0 L 425.8 286.0 L 425.8 303.7 L 423.5 303.7 L 423.5 295.5 L 414.4 295.5 L 414.4 303.7 L 412.1 303.7 L 412.1 286.0 " fill="#000000"/>
<path class="atom-16" d="M 428.0 300.7 L 430.4 300.7 L 430.4 303.2 L 428.0 303.2 L 428.0 300.7 M 428.0 292.2 L 430.4 292.2 L 430.4 294.7 L 428.0 294.7 L 428.0 292.2 " fill="#000000"/>
<path class="atom-16" d="M 433.3 301.7 L 437.1 301.7 L 437.1 288.5 L 432.9 289.8 L 432.3 288.3 L 437.7 285.9 L 439.5 286.2 L 439.5 301.7 L 442.9 301.7 L 442.9 303.7 L 433.3 303.7 L 433.3 301.7 " fill="#000000"/>
<path class="atom-16" d="M 453.2 288.0 L 444.0 288.0 L 444.0 286.0 L 455.7 286.0 L 455.7 287.8 L 448.6 303.7 L 446.2 303.7 L 453.2 288.0 " fill="#000000"/>
<path class="atom-17" d="M 184.6 146.2 L 186.9 146.2 L 186.9 153.7 L 196.0 153.7 L 196.0 146.2 L 198.3 146.2 L 198.3 163.8 L 196.0 163.8 L 196.0 155.7 L 186.9 155.7 L 186.9 163.8 L 184.6 163.8 L 184.6 146.2 " fill="#000000"/>
<path class="atom-17" d="M 200.5 160.9 L 203.0 160.9 L 203.0 163.4 L 200.5 163.4 L 200.5 160.9 M 200.5 152.3 L 203.0 152.3 L 203.0 154.8 L 200.5 154.8 L 200.5 152.3 " fill="#000000"/>
<path class="atom-17" d="M 205.8 161.8 L 209.6 161.8 L 209.6 148.6 L 205.4 150.0 L 204.8 148.5 L 210.2 146.1 L 212.0 146.4 L 212.0 161.8 L 215.4 161.8 L 215.4 163.8 L 205.8 163.8 L 205.8 161.8 " fill="#000000"/>
<path class="atom-17" d="M 225.5 154.5 Q 227.1 155.2, 228.0 156.2 Q 228.9 157.2, 228.9 159.0 Q 228.9 160.5, 228.2 161.6 Q 227.4 162.8, 226.0 163.4 Q 224.6 164.1, 222.8 164.1 Q 219.9 164.1, 218.2 162.7 Q 216.5 161.3, 216.5 159.0 Q 216.5 157.5, 217.2 156.5 Q 218.0 155.4, 219.5 154.5 Q 218.4 153.9, 217.8 153.0 Q 217.1 152.0, 217.1 150.5 Q 217.1 148.4, 218.6 147.2 Q 220.2 146.0, 222.7 146.0 Q 225.3 146.0, 226.8 147.2 Q 228.3 148.4, 228.3 150.5 Q 228.3 151.8, 227.6 152.8 Q 226.9 153.7, 225.5 154.5 M 222.7 147.8 Q 221.2 147.8, 220.4 148.5 Q 219.6 149.2, 219.6 150.5 Q 219.6 151.4, 220.2 152.0 Q 220.7 152.6, 221.5 153.0 Q 222.3 153.3, 223.8 153.8 Q 224.9 153.1, 225.3 152.3 Q 225.8 151.5, 225.8 150.5 Q 225.8 149.2, 225.0 148.5 Q 224.2 147.8, 222.7 147.8 M 222.8 162.2 Q 224.5 162.2, 225.5 161.3 Q 226.4 160.4, 226.4 158.9 Q 226.4 158.0, 225.9 157.4 Q 225.4 156.8, 224.6 156.5 Q 223.8 156.1, 222.4 155.7 L 221.3 155.3 Q 220.1 156.0, 219.5 156.9 Q 219.0 157.8, 219.0 158.9 Q 219.0 160.4, 220.0 161.3 Q 221.1 162.2, 222.8 162.2 " fill="#000000"/>
<path class="atom-18" d="M 340.2 150.6 L 342.6 150.6 L 342.6 158.1 L 351.6 158.1 L 351.6 150.6 L 354.0 150.6 L 354.0 168.3 L 351.6 168.3 L 351.6 160.1 L 342.6 160.1 L 342.6 168.3 L 340.2 168.3 L 340.2 150.6 " fill="#000000"/>
<path class="atom-18" d="M 356.1 165.3 L 358.6 165.3 L 358.6 167.8 L 356.1 167.8 L 356.1 165.3 M 356.1 156.8 L 358.6 156.8 L 358.6 159.3 L 356.1 159.3 L 356.1 156.8 " fill="#000000"/>
<path class="atom-18" d="M 361.4 166.3 L 365.3 166.3 L 365.3 153.1 L 361.0 154.4 L 360.5 153.0 L 365.9 150.5 L 367.6 150.8 L 367.6 166.3 L 371.1 166.3 L 371.1 168.3 L 361.4 168.3 L 361.4 166.3 " fill="#000000"/>
<path class="atom-18" d="M 378.1 150.4 Q 381.2 150.4, 382.8 152.6 Q 384.3 154.7, 384.3 158.9 Q 384.3 163.6, 382.4 166.0 Q 380.4 168.5, 376.7 168.5 Q 375.6 168.5, 374.6 168.2 Q 373.7 168.0, 372.8 167.4 L 373.8 165.8 Q 375.1 166.5, 376.7 166.5 Q 379.1 166.5, 380.4 164.9 Q 381.7 163.3, 381.8 159.9 Q 380.9 160.8, 379.8 161.2 Q 378.7 161.6, 377.5 161.6 Q 375.9 161.6, 374.7 161.0 Q 373.5 160.3, 372.8 159.1 Q 372.1 157.9, 372.1 156.3 Q 372.1 154.6, 372.9 153.3 Q 373.6 151.9, 375.0 151.2 Q 376.3 150.4, 378.1 150.4 M 374.6 156.3 Q 374.6 157.9, 375.5 158.8 Q 376.4 159.6, 377.9 159.6 Q 379.0 159.6, 380.0 159.2 Q 381.1 158.8, 381.8 158.0 Q 381.7 155.1, 380.8 153.8 Q 379.9 152.5, 378.0 152.5 Q 377.1 152.5, 376.3 153.0 Q 375.5 153.5, 375.1 154.3 Q 374.6 155.2, 374.6 156.3 " fill="#000000"/>
<path class="atom-19" d="M 22.7 327.2 L 25.1 327.2 L 25.1 334.7 L 34.1 334.7 L 34.1 327.2 L 36.5 327.2 L 36.5 344.9 L 34.1 344.9 L 34.1 336.7 L 25.1 336.7 L 25.1 344.9 L 22.7 344.9 L 22.7 327.2 " fill="#000000"/>
<path class="atom-19" d="M 38.6 342.0 L 41.1 342.0 L 41.1 344.4 L 38.6 344.4 L 38.6 342.0 M 38.6 333.4 L 41.1 333.4 L 41.1 335.9 L 38.6 335.9 L 38.6 333.4 " fill="#000000"/>
<path class="atom-19" d="M 43.0 330.6 Q 43.7 328.9, 45.2 328.0 Q 46.8 327.0, 48.9 327.0 Q 51.6 327.0, 53.1 328.5 Q 54.6 329.9, 54.6 332.5 Q 54.6 335.1, 52.6 337.6 Q 50.7 340.0, 46.7 342.9 L 54.9 342.9 L 54.9 344.9 L 43.0 344.9 L 43.0 343.2 Q 46.3 340.9, 48.2 339.1 Q 50.2 337.4, 51.1 335.8 Q 52.1 334.2, 52.1 332.6 Q 52.1 330.9, 51.2 330.0 Q 50.4 329.0, 48.9 329.0 Q 47.5 329.0, 46.5 329.6 Q 45.6 330.2, 44.9 331.5 L 43.0 330.6 " fill="#000000"/>
<path class="atom-19" d="M 62.8 345.1 Q 59.6 345.1, 57.9 342.7 Q 56.4 340.3, 56.4 336.0 Q 56.4 331.8, 57.9 329.4 Q 59.5 327.0, 62.8 327.0 Q 66.1 327.0, 67.7 329.4 Q 69.2 331.8, 69.2 336.0 Q 69.2 340.3, 67.6 342.7 Q 66.0 345.1, 62.8 345.1 M 62.8 343.1 Q 64.7 343.1, 65.7 341.3 Q 66.8 339.5, 66.8 336.0 Q 66.8 332.6, 65.7 330.8 Q 64.7 329.0, 62.8 329.0 Q 60.9 329.0, 59.9 330.8 Q 58.8 332.6, 58.8 336.0 Q 58.8 339.5, 59.9 341.3 Q 60.9 343.1, 62.8 343.1 " fill="#000000"/>
<path class="atom-20" d="M 113.1 235.9 L 115.5 235.9 L 115.5 243.4 L 124.5 243.4 L 124.5 235.9 L 126.9 235.9 L 126.9 253.5 L 124.5 253.5 L 124.5 245.4 L 115.5 245.4 L 115.5 253.5 L 113.1 253.5 L 113.1 235.9 " fill="#000000"/>
<path class="atom-20" d="M 129.0 250.6 L 131.5 250.6 L 131.5 253.1 L 129.0 253.1 L 129.0 250.6 M 129.0 242.0 L 131.5 242.0 L 131.5 244.5 L 129.0 244.5 L 129.0 242.0 " fill="#000000"/>
<path class="atom-20" d="M 133.4 239.2 Q 134.1 237.6, 135.6 236.6 Q 137.1 235.7, 139.3 235.7 Q 141.9 235.7, 143.4 237.1 Q 144.9 238.6, 144.9 241.2 Q 144.9 243.8, 143.0 246.2 Q 141.1 248.6, 137.1 251.5 L 145.2 251.5 L 145.2 253.5 L 133.4 253.5 L 133.4 251.9 Q 136.6 249.5, 138.6 247.8 Q 140.6 246.0, 141.5 244.5 Q 142.4 242.9, 142.4 241.3 Q 142.4 239.6, 141.6 238.6 Q 140.8 237.7, 139.3 237.7 Q 137.9 237.7, 136.9 238.3 Q 136.0 238.8, 135.3 240.1 L 133.4 239.2 " fill="#000000"/>
<path class="atom-20" d="M 147.7 251.5 L 151.6 251.5 L 151.6 238.4 L 147.3 239.7 L 146.7 238.2 L 152.1 235.8 L 153.9 236.1 L 153.9 251.5 L 157.4 251.5 L 157.4 253.5 L 147.7 253.5 L 147.7 251.5 " fill="#000000"/>
<path class="atom-21" d="M 431.8 371.8 L 434.2 371.8 L 434.2 379.3 L 443.2 379.3 L 443.2 371.8 L 445.6 371.8 L 445.6 389.5 L 443.2 389.5 L 443.2 381.3 L 434.2 381.3 L 434.2 389.5 L 431.8 389.5 L 431.8 371.8 " fill="#000000"/>
<path class="atom-21" d="M 447.7 386.6 L 450.2 386.6 L 450.2 389.0 L 447.7 389.0 L 447.7 386.6 M 447.7 378.0 L 450.2 378.0 L 450.2 380.5 L 447.7 380.5 L 447.7 378.0 " fill="#000000"/>
<path class="atom-21" d="M 452.1 375.2 Q 452.7 373.5, 454.3 372.6 Q 455.8 371.6, 458.0 371.6 Q 460.6 371.6, 462.1 373.1 Q 463.6 374.5, 463.6 377.1 Q 463.6 379.7, 461.7 382.2 Q 459.7 384.6, 455.8 387.5 L 463.9 387.5 L 463.9 389.5 L 452.0 389.5 L 452.0 387.8 Q 455.3 385.5, 457.3 383.7 Q 459.2 382.0, 460.2 380.4 Q 461.1 378.8, 461.1 377.2 Q 461.1 375.5, 460.3 374.6 Q 459.4 373.6, 458.0 373.6 Q 456.5 373.6, 455.6 374.2 Q 454.6 374.8, 454.0 376.1 L 452.1 375.2 " fill="#000000"/>
<path class="atom-21" d="M 465.4 375.2 Q 466.1 373.5, 467.6 372.6 Q 469.2 371.6, 471.3 371.6 Q 474.0 371.6, 475.5 373.1 Q 477.0 374.5, 477.0 377.1 Q 477.0 379.7, 475.0 382.2 Q 473.1 384.6, 469.1 387.5 L 477.3 387.5 L 477.3 389.5 L 465.4 389.5 L 465.4 387.8 Q 468.7 385.5, 470.6 383.7 Q 472.6 382.0, 473.5 380.4 Q 474.5 378.8, 474.5 377.2 Q 474.5 375.5, 473.6 374.6 Q 472.8 373.6, 471.3 373.6 Q 469.9 373.6, 469.0 374.2 Q 468.0 374.8, 467.3 376.1 L 465.4 375.2 " fill="#000000"/>
<path class="atom-22" d="M 280.2 86.2 L 282.6 86.2 L 282.6 93.7 L 291.6 93.7 L 291.6 86.2 L 294.0 86.2 L 294.0 103.8 L 291.6 103.8 L 291.6 95.7 L 282.6 95.7 L 282.6 103.8 L 280.2 103.8 L 280.2 86.2 " fill="#000000"/>
<path class="atom-22" d="M 296.1 100.9 L 298.6 100.9 L 298.6 103.4 L 296.1 103.4 L 296.1 100.9 M 296.1 92.4 L 298.6 92.4 L 298.6 94.9 L 296.1 94.9 L 296.1 92.4 " fill="#000000"/>
<path class="atom-22" d="M 300.5 89.6 Q 301.2 87.9, 302.7 87.0 Q 304.3 86.0, 306.4 86.0 Q 309.1 86.0, 310.6 87.5 Q 312.1 88.9, 312.1 91.5 Q 312.1 94.1, 310.1 96.5 Q 308.2 99.0, 304.2 101.9 L 312.4 101.9 L 312.4 103.8 L 300.5 103.8 L 300.5 102.2 Q 303.8 99.8, 305.7 98.1 Q 307.7 96.4, 308.6 94.8 Q 309.6 93.2, 309.6 91.6 Q 309.6 89.9, 308.7 89.0 Q 307.9 88.0, 306.4 88.0 Q 305.0 88.0, 304.1 88.6 Q 303.1 89.2, 302.4 90.4 L 300.5 89.6 " fill="#000000"/>
<path class="atom-22" d="M 322.3 94.6 Q 324.0 95.1, 324.9 96.2 Q 325.7 97.3, 325.7 99.0 Q 325.7 100.5, 325.0 101.7 Q 324.2 102.8, 322.8 103.5 Q 321.5 104.1, 319.7 104.1 Q 317.8 104.1, 316.4 103.4 Q 315.0 102.8, 313.9 101.4 L 315.3 100.0 Q 316.4 101.2, 317.3 101.7 Q 318.2 102.1, 319.7 102.1 Q 321.3 102.1, 322.2 101.3 Q 323.2 100.4, 323.2 99.0 Q 323.2 97.2, 322.2 96.4 Q 321.2 95.6, 319.0 95.6 L 317.8 95.6 L 317.8 93.8 L 318.9 93.8 Q 320.8 93.8, 321.8 92.9 Q 322.8 92.1, 322.8 90.5 Q 322.8 89.4, 322.0 88.7 Q 321.2 88.0, 319.7 88.0 Q 318.2 88.0, 317.3 88.5 Q 316.4 89.1, 315.7 90.4 L 314.0 89.5 Q 314.6 88.0, 316.1 87.0 Q 317.6 86.0, 319.7 86.0 Q 322.3 86.0, 323.8 87.2 Q 325.3 88.5, 325.3 90.5 Q 325.3 91.9, 324.6 93.0 Q 323.8 94.0, 322.3 94.6 " fill="#000000"/>
<text x="252.96205809814506" y="296.073242670828" font-size="12" font-family="Verdana" font-weight="bold" letter-spacing="0" text-anchor="start" fill="black" transform=" rotate(62.051735 252.962058 296.073243)">0.0097</text><text x="25" y="490" font-size="12" font-family="Verdana" font-weight="bold" letter-spacing="0" text-anchor="start" fill="black">[#6:1](-[#7:2](-[#6:3](-[#6:4](-[#7:8](-[H:20])-[H:21])=[#8:9])(-[H:6])-[H:7])-[#6:5](-[#6:10](-[H:16])(-[H:17])-[H:22])(-[H:11])-[H:12])(-[#6:13](-[H:18])(-[H:19])-[H:23])(-[H:14])-[H:15]</text></svg>
