<?xml version='1.0' encoding='ASCII' standalone='yes'?>
<svg xmlns="http://www.w3.org/2000/svg" xmlns:rdkit="http://www.rdkit.org/xml" xmlns:xlink="http://www.w3.org/1999/xlink" version="1.1" baseProfile="full" xml:space="preserve" width="500px" height="500px" viewBox="0 0 500 500">
<!-- END OF HEADER -->
<rect style="opacity:1.0;fill:#FFFFFF;stroke:none" width="500" height="500" x="0" y="0"> </rect>
<path d="M 251.118,415.126 L 251.118,194.691" style="fill:none;fill-rule:evenodd;stroke:#FF7F7F;stroke-width:47.0px;stroke-linecap:butt;stroke-linejoin:miter;stroke-opacity:1"/>
<path class="bond-0 atom-1 atom-0" d="M 229.074,214.522 L 229.074,305.157" style="fill:none;fill-rule:evenodd;stroke:#000000;stroke-width:2.0px;stroke-linecap:butt;stroke-linejoin:miter;stroke-opacity:1"/>
<path class="bond-0 atom-1 atom-0" d="M 229.074,305.157 L 229.074,395.791" style="fill:none;fill-rule:evenodd;stroke:#FF0000;stroke-width:2.0px;stroke-linecap:butt;stroke-linejoin:miter;stroke-opacity:1"/>
<path class="bond-0 atom-1 atom-0" d="M 273.161,214.522 L 273.161,305.157" style="fill:none;fill-rule:evenodd;stroke:#000000;stroke-width:2.0px;stroke-linecap:butt;stroke-linejoin:miter;stroke-opacity:1"/>
<path class="bond-0 atom-1 atom-0" d="M 273.161,305.157 L 273.161,395.791" style="fill:none;fill-rule:evenodd;stroke:#FF0000;stroke-width:2.0px;stroke-linecap:butt;stroke-linejoin:miter;stroke-opacity:1"/>
<path class="bond-1 atom-1 atom-2" d="M 273.078,182.012 L 426.063,93.6869" style="fill:none;fill-rule:evenodd;stroke:#000000;stroke-width:2.0px;stroke-linecap:butt;stroke-linejoin:miter;stroke-opacity:1"/>
<path class="bond-2 atom-1 atom-3" d="M 216.77,174.861 L 75.635,93.3766" style="fill:none;fill-rule:evenodd;stroke:#000000;stroke-width:2.0px;stroke-linecap:butt;stroke-linejoin:miter;stroke-opacity:1"/>
<path class="atom-0" d="M 238.118 415.206 Q 238.118 408.406, 241.478 404.606 Q 244.838 400.806, 251.118 400.806 Q 257.398 400.806, 260.758 404.606 Q 264.118 408.406, 264.118 415.206 Q 264.118 422.086, 260.718 426.006 Q 257.318 429.886, 251.118 429.886 Q 244.878 429.886, 241.478 426.006 Q 238.118 422.126, 238.118 415.206 M 251.118 426.686 Q 255.438 426.686, 257.758 423.806 Q 260.118 420.886, 260.118 415.206 Q 260.118 409.646, 257.758 406.846 Q 255.438 404.006, 251.118 404.006 Q 246.798 404.006, 244.438 406.806 Q 242.118 409.606, 242.118 415.206 Q 242.118 420.926, 244.438 423.806 Q 246.798 426.686, 251.118 426.686 " fill="#FF0000"/>
<path class="atom-0" d="M 267.118 424.766 L 271.118 424.766 L 271.118 428.766 L 267.118 428.766 L 267.118 424.766 M 267.118 411.006 L 271.118 411.006 L 271.118 415.006 L 267.118 415.006 L 267.118 411.006 " fill="#FF0000"/>
<path class="atom-0" d="M 274.838 426.246 L 281.038 426.246 L 281.038 405.086 L 274.198 407.206 L 273.278 404.846 L 281.958 400.966 L 284.798 401.446 L 284.798 426.246 L 290.358 426.246 L 290.358 429.446 L 274.838 429.446 L 274.838 426.246 " fill="#FF0000"/>
<path class="atom-1" d="M 217.648 194.811 Q 217.648 187.771, 220.928 184.091 Q 224.248 180.371, 230.528 180.371 Q 236.368 180.371, 239.488 184.491 L 236.848 186.651 Q 234.568 183.651, 230.528 183.651 Q 226.248 183.651, 223.968 186.531 Q 221.728 189.371, 221.728 194.811 Q 221.728 200.411, 224.048 203.291 Q 226.408 206.171, 230.968 206.171 Q 234.088 206.171, 237.728 204.291 L 238.848 207.291 Q 237.368 208.251, 235.128 208.811 Q 232.888 209.371, 230.408 209.371 Q 224.248 209.371, 220.928 205.611 Q 217.648 201.851, 217.648 194.811 " fill="#000000"/>
<path class="atom-1" d="M 242.488 204.331 L 246.488 204.331 L 246.488 208.331 L 242.488 208.331 L 242.488 204.331 M 242.488 190.571 L 246.488 190.571 L 246.488 194.571 L 242.488 194.571 L 242.488 190.571 " fill="#000000"/>
<path class="atom-1" d="M 248.568 186.051 Q 249.608 183.371, 252.088 181.891 Q 254.568 180.371, 258.008 180.371 Q 262.288 180.371, 264.688 182.691 Q 267.088 185.011, 267.088 189.131 Q 267.088 193.331, 263.968 197.251 Q 260.888 201.171, 254.488 205.811 L 267.568 205.811 L 267.568 209.011 L 248.488 209.011 L 248.488 206.331 Q 253.768 202.571, 256.888 199.771 Q 260.048 196.971, 261.568 194.451 Q 263.088 191.931, 263.088 189.331 Q 263.088 186.611, 261.728 185.091 Q 260.368 183.571, 258.008 183.571 Q 255.728 183.571, 254.208 184.491 Q 252.688 185.411, 251.608 187.451 L 248.568 186.051 " fill="#000000"/>
<path class="atom-2" d="M 430.939 70.4742 L 434.779 70.4742 L 434.779 82.5142 L 449.259 82.5142 L 449.259 70.4742 L 453.099 70.4742 L 453.099 98.7942 L 449.259 98.7942 L 449.259 85.7142 L 434.779 85.7142 L 434.779 98.7942 L 430.939 98.7942 L 430.939 70.4742 " fill="#000000"/>
<path class="atom-2" d="M 456.099 94.1142 L 460.099 94.1142 L 460.099 98.1142 L 456.099 98.1142 L 456.099 94.1142 M 456.099 80.3542 L 460.099 80.3542 L 460.099 84.3542 L 456.099 84.3542 L 456.099 80.3542 " fill="#000000"/>
<path class="atom-2" d="M 475.379 83.8742 Q 478.139 84.6742, 479.459 86.4742 Q 480.819 88.2342, 480.819 91.0342 Q 480.819 93.4342, 479.619 95.3142 Q 478.419 97.1542, 476.219 98.1942 Q 474.019 99.1942, 471.139 99.1942 Q 468.099 99.1942, 465.819 98.1542 Q 463.579 97.0742, 461.779 94.9142 L 464.059 92.5942 Q 465.819 94.5142, 467.299 95.2742 Q 468.779 95.9942, 471.139 95.9942 Q 473.699 95.9942, 475.259 94.6342 Q 476.819 93.2342, 476.819 90.9942 Q 476.819 88.1142, 475.179 86.8342 Q 473.579 85.5142, 470.099 85.5142 L 468.059 85.5142 L 468.059 82.6342 L 469.859 82.6342 Q 472.939 82.5942, 474.579 81.2742 Q 476.219 79.9142, 476.219 77.3942 Q 476.219 75.5542, 474.859 74.4742 Q 473.499 73.3542, 471.179 73.3542 Q 468.819 73.3542, 467.339 74.1942 Q 465.899 75.0342, 464.779 77.1542 L 462.019 75.6742 Q 463.019 73.3142, 465.419 71.7542 Q 467.819 70.1542, 471.179 70.1542 Q 475.339 70.1542, 477.779 72.1142 Q 480.219 74.0742, 480.219 77.3942 Q 480.219 79.6742, 478.979 81.3142 Q 477.739 82.9542, 475.379 83.8742 " fill="#000000"/>
<path class="atom-3" d="M 18.9557 70.3142 L 22.7957 70.3142 L 22.7957 82.3542 L 37.2757 82.3542 L 37.2757 70.3142 L 41.1157 70.3142 L 41.1157 98.6342 L 37.2757 98.6342 L 37.2757 85.5542 L 22.7957 85.5542 L 22.7957 98.6342 L 18.9557 98.6342 L 18.9557 70.3142 " fill="#000000"/>
<path class="atom-3" d="M 44.1157 93.9542 L 48.1157 93.9542 L 48.1157 97.9542 L 44.1157 97.9542 L 44.1157 93.9542 M 44.1157 80.1942 L 48.1157 80.1942 L 48.1157 84.1942 L 44.1157 84.1942 L 44.1157 80.1942 " fill="#000000"/>
<path class="atom-3" d="M 67.7157 88.9142 L 71.1157 88.9142 L 71.1157 92.1142 L 67.7157 92.1142 L 67.7157 98.6342 L 63.9557 98.6342 L 63.9557 92.1142 L 49.3157 92.1142 L 49.3157 89.5942 L 61.7157 70.3142 L 67.7157 70.3142 L 67.7157 88.9142 M 53.9557 88.9142 L 63.9557 88.9142 L 63.9557 72.8742 L 53.9557 88.9142 " fill="#000000"/>
<text x="251.11756443086392" y="304.90874524365074" font-size="12" font-family="Verdana" font-weight="bold" letter-spacing="0" text-anchor="start" fill="black" transform=" rotate(-0.000000 251.117564 304.908745)">2.0102</text><text x="25" y="490" font-size="12" font-family="Verdana" font-weight="bold" letter-spacing="0" text-anchor="start" fill="black">[#8:1]=[#6:2](-[H:3])-[H:4]</text></svg>
