<?xml version='1.0' encoding='ASCII' standalone='yes'?>
<svg xmlns="http://www.w3.org/2000/svg" xmlns:rdkit="http://www.rdkit.org/xml" xmlns:xlink="http://www.w3.org/1999/xlink" version="1.1" baseProfile="full" xml:space="preserve" width="500px" height="500px" viewBox="0 0 500 500">
<!-- END OF HEADER -->
<rect style="opacity:1.0;fill:#FFFFFF;stroke:none" width="500.0" height="500.0" x="0.0" y="0.0"> </rect>
<path class="bond-1 atom-1 atom-2" d="M 260.4,298.9 L 312.2,285.2" style="fill:none;fill-rule:evenodd;stroke:#FF7F7F;stroke-width:11.4px;stroke-linecap:butt;stroke-linejoin:miter;stroke-opacity:1"/>
<path class="bond-0 atom-1 atom-0" d="M 251.2,289.7 L 241.6,280.0" style="fill:none;fill-rule:evenodd;stroke:#0000FF;stroke-width:2.0px;stroke-linecap:butt;stroke-linejoin:miter;stroke-opacity:1"/>
<path class="bond-0 atom-1 atom-0" d="M 241.6,280.0 L 232.0,270.3" style="fill:none;fill-rule:evenodd;stroke:#000000;stroke-width:2.0px;stroke-linecap:butt;stroke-linejoin:miter;stroke-opacity:1"/>
<path class="bond-1 atom-1 atom-2" d="M 275.8,294.8 L 286.5,292.0" style="fill:none;fill-rule:evenodd;stroke:#0000FF;stroke-width:2.0px;stroke-linecap:butt;stroke-linejoin:miter;stroke-opacity:1"/>
<path class="bond-1 atom-1 atom-2" d="M 286.5,292.0 L 297.2,289.1" style="fill:none;fill-rule:evenodd;stroke:#000000;stroke-width:2.0px;stroke-linecap:butt;stroke-linejoin:miter;stroke-opacity:1"/>
<path class="bond-2 atom-1 atom-4" d="M 257.9,308.3 L 253.4,324.8" style="fill:none;fill-rule:evenodd;stroke:#0000FF;stroke-width:2.0px;stroke-linecap:butt;stroke-linejoin:miter;stroke-opacity:1"/>
<path class="bond-2 atom-1 atom-4" d="M 253.4,324.8 L 248.9,341.4" style="fill:none;fill-rule:evenodd;stroke:#000000;stroke-width:2.0px;stroke-linecap:butt;stroke-linejoin:miter;stroke-opacity:1"/>
<path class="bond-3 atom-2 atom-3" d="M 314.7,275.8 L 323.6,242.8" style="fill:none;fill-rule:evenodd;stroke:#000000;stroke-width:2.0px;stroke-linecap:butt;stroke-linejoin:miter;stroke-opacity:1"/>
<path class="bond-4 atom-2 atom-5" d="M 325.6,291.0 L 335.3,300.8" style="fill:none;fill-rule:evenodd;stroke:#000000;stroke-width:2.0px;stroke-linecap:butt;stroke-linejoin:miter;stroke-opacity:1"/>
<path class="bond-4 atom-2 atom-5" d="M 335.3,300.8 L 345.1,310.6" style="fill:none;fill-rule:evenodd;stroke:#FF0000;stroke-width:2.0px;stroke-linecap:butt;stroke-linejoin:miter;stroke-opacity:1"/>
<path class="bond-4 atom-2 atom-5" d="M 318.0,298.5 L 327.7,308.4" style="fill:none;fill-rule:evenodd;stroke:#000000;stroke-width:2.0px;stroke-linecap:butt;stroke-linejoin:miter;stroke-opacity:1"/>
<path class="bond-4 atom-2 atom-5" d="M 327.7,308.4 L 337.5,318.2" style="fill:none;fill-rule:evenodd;stroke:#FF0000;stroke-width:2.0px;stroke-linecap:butt;stroke-linejoin:miter;stroke-opacity:1"/>
<path class="bond-5 atom-3 atom-15" d="M 303.1,224.0 L 300.6,223.0" style="fill:none;fill-rule:evenodd;stroke:#000000;stroke-width:2.0px;stroke-linecap:butt;stroke-linejoin:miter;stroke-opacity:1"/>
<path class="bond-6 atom-3 atom-16" d="M 333.8,235.5 L 370.2,245.4" style="fill:none;fill-rule:evenodd;stroke:#000000;stroke-width:2.0px;stroke-linecap:butt;stroke-linejoin:miter;stroke-opacity:1"/>
<path class="bond-7 atom-4 atom-11" d="M 261.4,354.7 L 290.5,362.5" style="fill:none;fill-rule:evenodd;stroke:#000000;stroke-width:2.0px;stroke-linecap:butt;stroke-linejoin:miter;stroke-opacity:1"/>
<path class="bond-8 atom-4 atom-12" d="M 231.4,346.5 L 201.5,338.4" style="fill:none;fill-rule:evenodd;stroke:#000000;stroke-width:2.0px;stroke-linecap:butt;stroke-linejoin:miter;stroke-opacity:1"/>
<path class="bond-9 atom-4 atom-13" d="M 243.8,360.2 L 234.9,393.0" style="fill:none;fill-rule:evenodd;stroke:#000000;stroke-width:2.0px;stroke-linecap:butt;stroke-linejoin:miter;stroke-opacity:1"/>
<path class="bond-10 atom-6 atom-0" d="M 234.0,218.8 L 225.2,251.6" style="fill:none;fill-rule:evenodd;stroke:#000000;stroke-width:2.0px;stroke-linecap:butt;stroke-linejoin:miter;stroke-opacity:1"/>
<path class="bond-10 atom-6 atom-0" d="M 222.4,220.9 L 216.1,243.9" style="fill:none;fill-rule:evenodd;stroke:#000000;stroke-width:2.0px;stroke-linecap:butt;stroke-linejoin:miter;stroke-opacity:1"/>
<path class="bond-11 atom-6 atom-17" d="M 258.9,200.3 L 261.6,199.2" style="fill:none;fill-rule:evenodd;stroke:#000000;stroke-width:2.0px;stroke-linecap:butt;stroke-linejoin:miter;stroke-opacity:1"/>
<path class="bond-12 atom-7 atom-8" d="M 162.3,180.9 L 183.7,175.2" style="fill:none;fill-rule:evenodd;stroke:#000000;stroke-width:2.0px;stroke-linecap:butt;stroke-linejoin:miter;stroke-opacity:1"/>
<path class="bond-12 atom-7 atom-8" d="M 168.3,190.4 L 183.2,186.5" style="fill:none;fill-rule:evenodd;stroke:#000000;stroke-width:2.0px;stroke-linecap:butt;stroke-linejoin:miter;stroke-opacity:1"/>
<path class="bond-13 atom-7 atom-9" d="M 144.4,194.9 L 135.6,227.4" style="fill:none;fill-rule:evenodd;stroke:#000000;stroke-width:2.0px;stroke-linecap:butt;stroke-linejoin:miter;stroke-opacity:1"/>
<path class="bond-14 atom-8 atom-6" d="M 208.4,180.8 L 229.1,201.6" style="fill:none;fill-rule:evenodd;stroke:#000000;stroke-width:2.0px;stroke-linecap:butt;stroke-linejoin:miter;stroke-opacity:1"/>
<path class="bond-15 atom-8 atom-18" d="M 201.4,161.8 L 210.3,128.9" style="fill:none;fill-rule:evenodd;stroke:#000000;stroke-width:2.0px;stroke-linecap:butt;stroke-linejoin:miter;stroke-opacity:1"/>
<path class="bond-16 atom-9 atom-10" d="M 142.6,246.2 L 161.5,265.2" style="fill:none;fill-rule:evenodd;stroke:#000000;stroke-width:2.0px;stroke-linecap:butt;stroke-linejoin:miter;stroke-opacity:1"/>
<path class="bond-16 atom-9 atom-10" d="M 153.0,241.5 L 166.3,254.8" style="fill:none;fill-rule:evenodd;stroke:#000000;stroke-width:2.0px;stroke-linecap:butt;stroke-linejoin:miter;stroke-opacity:1"/>
<path class="bond-17 atom-9 atom-19" d="M 112.6,242.1 L 88.6,248.5" style="fill:none;fill-rule:evenodd;stroke:#000000;stroke-width:2.0px;stroke-linecap:butt;stroke-linejoin:miter;stroke-opacity:1"/>
<path class="bond-18 atom-10 atom-0" d="M 190.3,269.5 L 208.2,264.7" style="fill:none;fill-rule:evenodd;stroke:#000000;stroke-width:2.0px;stroke-linecap:butt;stroke-linejoin:miter;stroke-opacity:1"/>
<path class="bond-19 atom-10 atom-20" d="M 167.6,286.5 L 159.4,317.1" style="fill:none;fill-rule:evenodd;stroke:#000000;stroke-width:2.0px;stroke-linecap:butt;stroke-linejoin:miter;stroke-opacity:1"/>
<path class="bond-20 atom-14 atom-3" d="M 337.0,193.6 L 332.8,208.9" style="fill:none;fill-rule:evenodd;stroke:#0000FF;stroke-width:2.0px;stroke-linecap:butt;stroke-linejoin:miter;stroke-opacity:1"/>
<path class="bond-20 atom-14 atom-3" d="M 332.8,208.9 L 328.7,224.2" style="fill:none;fill-rule:evenodd;stroke:#000000;stroke-width:2.0px;stroke-linecap:butt;stroke-linejoin:miter;stroke-opacity:1"/>
<path class="bond-21 atom-14 atom-22" d="M 360.6,176.3 L 365.9,174.9" style="fill:none;fill-rule:evenodd;stroke:#0000FF;stroke-width:2.0px;stroke-linecap:butt;stroke-linejoin:miter;stroke-opacity:1"/>
<path class="bond-21 atom-14 atom-22" d="M 365.9,174.9 L 371.2,173.5" style="fill:none;fill-rule:evenodd;stroke:#000000;stroke-width:2.0px;stroke-linecap:butt;stroke-linejoin:miter;stroke-opacity:1"/>
<path class="bond-22 atom-14 atom-26" d="M 331.0,172.5 L 320.1,161.5" style="fill:none;fill-rule:evenodd;stroke:#0000FF;stroke-width:2.0px;stroke-linecap:butt;stroke-linejoin:miter;stroke-opacity:1"/>
<path class="bond-22 atom-14 atom-26" d="M 320.1,161.5 L 309.2,150.6" style="fill:none;fill-rule:evenodd;stroke:#000000;stroke-width:2.0px;stroke-linecap:butt;stroke-linejoin:miter;stroke-opacity:1"/>
<path class="bond-23 atom-21 atom-7" d="M 118.6,156.4 L 128.2,166.0" style="fill:none;fill-rule:evenodd;stroke:#0000FF;stroke-width:2.0px;stroke-linecap:butt;stroke-linejoin:miter;stroke-opacity:1"/>
<path class="bond-23 atom-21 atom-7" d="M 128.2,166.0 L 137.7,175.6" style="fill:none;fill-rule:evenodd;stroke:#000000;stroke-width:2.0px;stroke-linecap:butt;stroke-linejoin:miter;stroke-opacity:1"/>
<path class="bond-24 atom-21 atom-23" d="M 88.2,152.6 L 76.6,155.7" style="fill:none;fill-rule:evenodd;stroke:#0000FF;stroke-width:2.0px;stroke-linecap:butt;stroke-linejoin:miter;stroke-opacity:1"/>
<path class="bond-24 atom-21 atom-23" d="M 76.6,155.7 L 65.1,158.7" style="fill:none;fill-rule:evenodd;stroke:#000000;stroke-width:2.0px;stroke-linecap:butt;stroke-linejoin:miter;stroke-opacity:1"/>
<path class="bond-25 atom-21 atom-27" d="M 111.8,137.6 L 116.3,121.1" style="fill:none;fill-rule:evenodd;stroke:#0000FF;stroke-width:2.0px;stroke-linecap:butt;stroke-linejoin:miter;stroke-opacity:1"/>
<path class="bond-25 atom-21 atom-27" d="M 116.3,121.1 L 120.7,104.7" style="fill:none;fill-rule:evenodd;stroke:#000000;stroke-width:2.0px;stroke-linecap:butt;stroke-linejoin:miter;stroke-opacity:1"/>
<path class="bond-26 atom-22 atom-24" d="M 389.5,158.6 L 380.7,125.6" style="fill:none;fill-rule:evenodd;stroke:#000000;stroke-width:2.0px;stroke-linecap:butt;stroke-linejoin:miter;stroke-opacity:1"/>
<path class="bond-27 atom-22 atom-25" d="M 394.5,177.4 L 403.2,210.6" style="fill:none;fill-rule:evenodd;stroke:#000000;stroke-width:2.0px;stroke-linecap:butt;stroke-linejoin:miter;stroke-opacity:1"/>
<path class="bond-28 atom-22 atom-28" d="M 412.7,162.5 L 436.1,156.3" style="fill:none;fill-rule:evenodd;stroke:#000000;stroke-width:2.0px;stroke-linecap:butt;stroke-linejoin:miter;stroke-opacity:1"/>
<path class="atom-0" d="M 209.9 261.0 Q 209.9 257.2, 211.7 255.2 Q 213.4 253.2, 216.8 253.2 Q 219.9 253.2, 221.6 255.4 L 220.2 256.6 Q 219.0 255.0, 216.8 255.0 Q 214.5 255.0, 213.3 256.5 Q 212.1 258.1, 212.1 261.0 Q 212.1 264.0, 213.3 265.5 Q 214.6 267.1, 217.0 267.1 Q 218.7 267.1, 220.7 266.1 L 221.3 267.7 Q 220.5 268.2, 219.3 268.5 Q 218.1 268.8, 216.7 268.8 Q 213.4 268.8, 211.7 266.8 Q 209.9 264.7, 209.9 261.0 " fill="#000000"/>
<path class="atom-0" d="M 222.5 266.1 L 224.6 266.1 L 224.6 268.2 L 222.5 268.2 L 222.5 266.1 M 222.5 258.7 L 224.6 258.7 L 224.6 260.8 L 222.5 260.8 L 222.5 258.7 " fill="#000000"/>
<path class="atom-0" d="M 227.1 266.9 L 230.4 266.9 L 230.4 255.5 L 226.7 256.7 L 226.2 255.4 L 230.9 253.3 L 232.4 253.6 L 232.4 266.9 L 235.4 266.9 L 235.4 268.6 L 227.1 268.6 L 227.1 266.9 " fill="#000000"/>
<path class="atom-1" d="M 249.2 291.4 L 254.2 299.4 Q 254.7 300.2, 255.4 301.6 Q 256.2 303.1, 256.3 303.2 L 256.3 291.4 L 258.3 291.4 L 258.3 306.6 L 256.2 306.6 L 250.9 297.8 Q 250.3 296.7, 249.6 295.6 Q 249.0 294.4, 248.8 294.0 L 248.8 306.6 L 246.8 306.6 L 246.8 291.4 L 249.2 291.4 " fill="#0000FF"/>
<path class="atom-1" d="M 260.1 304.0 L 262.2 304.0 L 262.2 306.2 L 260.1 306.2 L 260.1 304.0 M 260.1 296.7 L 262.2 296.7 L 262.2 298.8 L 260.1 298.8 L 260.1 296.7 " fill="#0000FF"/>
<path class="atom-1" d="M 263.9 294.3 Q 264.4 292.8, 265.8 292.0 Q 267.1 291.2, 268.9 291.2 Q 271.2 291.2, 272.5 292.5 Q 273.8 293.7, 273.8 295.9 Q 273.8 298.2, 272.1 300.3 Q 270.5 302.4, 267.0 304.8 L 274.0 304.8 L 274.0 306.6 L 263.8 306.6 L 263.8 305.1 Q 266.7 303.1, 268.3 301.6 Q 270.0 300.1, 270.8 298.8 Q 271.6 297.4, 271.6 296.0 Q 271.6 294.6, 270.9 293.7 Q 270.2 292.9, 268.9 292.9 Q 267.7 292.9, 266.9 293.4 Q 266.1 293.9, 265.5 295.0 L 263.9 294.3 " fill="#0000FF"/>
<path class="atom-2" d="M 298.9 285.2 Q 298.9 281.4, 300.7 279.5 Q 302.5 277.5, 305.8 277.5 Q 309.0 277.5, 310.6 279.7 L 309.2 280.8 Q 308.0 279.2, 305.8 279.2 Q 303.5 279.2, 302.3 280.8 Q 301.1 282.3, 301.1 285.2 Q 301.1 288.2, 302.4 289.8 Q 303.6 291.3, 306.1 291.3 Q 307.7 291.3, 309.7 290.3 L 310.3 291.9 Q 309.5 292.4, 308.3 292.7 Q 307.1 293.0, 305.8 293.0 Q 302.5 293.0, 300.7 291.0 Q 298.9 289.0, 298.9 285.2 " fill="#000000"/>
<path class="atom-2" d="M 311.5 290.3 L 313.6 290.3 L 313.6 292.5 L 311.5 292.5 L 311.5 290.3 M 311.5 282.9 L 313.6 282.9 L 313.6 285.1 L 311.5 285.1 L 311.5 282.9 " fill="#000000"/>
<path class="atom-2" d="M 322.5 284.8 Q 324.0 285.3, 324.7 286.2 Q 325.4 287.2, 325.4 288.7 Q 325.4 289.9, 324.8 291.0 Q 324.2 291.9, 323.0 292.5 Q 321.8 293.0, 320.3 293.0 Q 318.6 293.0, 317.4 292.5 Q 316.2 291.9, 315.2 290.7 L 316.5 289.5 Q 317.4 290.5, 318.2 290.9 Q 319.0 291.3, 320.3 291.3 Q 321.6 291.3, 322.5 290.6 Q 323.3 289.8, 323.3 288.6 Q 323.3 287.1, 322.4 286.4 Q 321.6 285.7, 319.7 285.7 L 318.6 285.7 L 318.6 284.2 L 319.6 284.2 Q 321.2 284.1, 322.1 283.4 Q 323.0 282.7, 323.0 281.4 Q 323.0 280.4, 322.3 279.8 Q 321.5 279.2, 320.3 279.2 Q 319.0 279.2, 318.2 279.6 Q 317.5 280.1, 316.9 281.2 L 315.4 280.4 Q 315.9 279.2, 317.2 278.3 Q 318.5 277.5, 320.3 277.5 Q 322.5 277.5, 323.8 278.5 Q 325.1 279.6, 325.1 281.4 Q 325.1 282.6, 324.5 283.5 Q 323.8 284.3, 322.5 284.8 " fill="#000000"/>
<path class="atom-3" d="M 304.0 233.5 Q 304.0 229.7, 305.8 227.8 Q 307.6 225.8, 310.9 225.8 Q 314.1 225.8, 315.7 228.0 L 314.3 229.1 Q 313.1 227.5, 310.9 227.5 Q 308.7 227.5, 307.4 229.1 Q 306.2 230.6, 306.2 233.5 Q 306.2 236.5, 307.5 238.1 Q 308.7 239.6, 311.2 239.6 Q 312.9 239.6, 314.8 238.6 L 315.4 240.2 Q 314.6 240.7, 313.4 241.0 Q 312.2 241.3, 310.9 241.3 Q 307.6 241.3, 305.8 239.3 Q 304.0 237.3, 304.0 233.5 " fill="#000000"/>
<path class="atom-3" d="M 316.6 238.6 L 318.7 238.6 L 318.7 240.7 L 316.6 240.7 L 316.6 238.6 M 316.6 231.2 L 318.7 231.2 L 318.7 233.4 L 316.6 233.4 L 316.6 231.2 " fill="#000000"/>
<path class="atom-3" d="M 330.2 235.9 L 332.0 235.9 L 332.0 237.6 L 330.2 237.6 L 330.2 241.1 L 328.2 241.1 L 328.2 237.6 L 320.4 237.6 L 320.4 236.3 L 327.0 225.9 L 330.2 225.9 L 330.2 235.9 M 322.8 235.9 L 328.2 235.9 L 328.2 227.3 L 322.8 235.9 " fill="#000000"/>
<path class="atom-4" d="M 233.1 350.7 Q 233.1 346.9, 234.9 344.9 Q 236.7 342.9, 240.0 342.9 Q 243.2 342.9, 244.8 345.1 L 243.4 346.3 Q 242.2 344.7, 240.0 344.7 Q 237.7 344.7, 236.5 346.2 Q 235.3 347.7, 235.3 350.7 Q 235.3 353.7, 236.6 355.2 Q 237.8 356.7, 240.3 356.7 Q 241.9 356.7, 243.9 355.7 L 244.5 357.3 Q 243.7 357.9, 242.5 358.2 Q 241.3 358.5, 240.0 358.5 Q 236.7 358.5, 234.9 356.4 Q 233.1 354.4, 233.1 350.7 " fill="#000000"/>
<path class="atom-4" d="M 245.7 355.8 L 247.8 355.8 L 247.8 357.9 L 245.7 357.9 L 245.7 355.8 M 245.7 348.4 L 247.8 348.4 L 247.8 350.5 L 245.7 350.5 L 245.7 348.4 " fill="#000000"/>
<path class="atom-4" d="M 255.0 348.8 Q 256.3 348.8, 257.4 349.3 Q 258.5 349.9, 259.1 351.0 Q 259.7 352.0, 259.7 353.5 Q 259.7 355.0, 258.9 356.2 Q 258.2 357.3, 256.9 357.9 Q 255.7 358.4, 254.3 358.4 Q 252.9 358.4, 251.6 357.9 Q 250.3 357.4, 249.4 356.4 L 250.7 355.1 Q 251.4 355.9, 252.4 356.3 Q 253.4 356.7, 254.4 356.7 Q 255.7 356.7, 256.6 355.9 Q 257.6 355.0, 257.6 353.5 Q 257.6 351.9, 256.6 351.1 Q 255.7 350.4, 254.2 350.4 Q 252.9 350.4, 251.4 351.0 L 250.2 350.4 L 251.0 343.1 L 258.8 343.1 L 258.6 344.8 L 252.7 344.8 L 252.3 349.3 Q 253.6 348.8, 255.0 348.8 " fill="#000000"/>
<path class="atom-5" d="M 343.0 323.2 Q 343.0 319.5, 344.8 317.5 Q 346.6 315.5, 350.0 315.5 Q 353.3 315.5, 355.1 317.5 Q 356.9 319.5, 356.9 323.2 Q 356.9 326.9, 355.1 329.0 Q 353.3 331.0, 350.0 331.0 Q 346.6 331.0, 344.8 329.0 Q 343.0 326.9, 343.0 323.2 M 350.0 329.3 Q 352.3 329.3, 353.5 327.8 Q 354.8 326.2, 354.8 323.2 Q 354.8 320.2, 353.5 318.7 Q 352.3 317.2, 350.0 317.2 Q 347.7 317.2, 346.4 318.7 Q 345.2 320.2, 345.2 323.2 Q 345.2 326.2, 346.4 327.8 Q 347.7 329.3, 350.0 329.3 " fill="#FF0000"/>
<path class="atom-5" d="M 358.0 328.3 L 360.2 328.3 L 360.2 330.4 L 358.0 330.4 L 358.0 328.3 M 358.0 320.9 L 360.2 320.9 L 360.2 323.1 L 358.0 323.1 L 358.0 320.9 " fill="#FF0000"/>
<path class="atom-5" d="M 367.7 321.3 Q 369.0 321.3, 370.1 321.9 Q 371.1 322.5, 371.7 323.5 Q 372.3 324.6, 372.3 325.9 Q 372.3 327.4, 371.6 328.5 Q 371.0 329.7, 369.8 330.3 Q 368.7 331.0, 367.2 331.0 Q 364.5 331.0, 363.1 329.1 Q 361.8 327.3, 361.8 323.7 Q 361.8 319.6, 363.4 317.6 Q 365.1 315.5, 368.4 315.5 Q 369.3 315.5, 370.1 315.7 Q 370.9 315.9, 371.7 316.3 L 370.8 317.8 Q 369.7 317.2, 368.4 317.2 Q 366.2 317.2, 365.1 318.6 Q 364.1 319.9, 363.9 322.8 Q 364.7 322.1, 365.7 321.7 Q 366.6 321.3, 367.7 321.3 M 367.2 329.2 Q 368.0 329.2, 368.7 328.8 Q 369.4 328.4, 369.8 327.6 Q 370.1 326.9, 370.1 325.9 Q 370.1 324.6, 369.4 323.8 Q 368.6 323.0, 367.3 323.0 Q 366.4 323.0, 365.5 323.4 Q 364.6 323.8, 363.9 324.4 Q 364.0 326.9, 364.8 328.1 Q 365.6 329.2, 367.2 329.2 " fill="#FF0000"/>
<path class="atom-6" d="M 230.8 209.3 Q 230.8 205.5, 232.5 203.5 Q 234.3 201.5, 237.7 201.5 Q 240.8 201.5, 242.5 203.7 L 241.1 204.9 Q 239.8 203.3, 237.7 203.3 Q 235.4 203.3, 234.2 204.8 Q 233.0 206.4, 233.0 209.3 Q 233.0 212.3, 234.2 213.8 Q 235.5 215.4, 237.9 215.4 Q 239.6 215.4, 241.5 214.3 L 242.1 216.0 Q 241.3 216.5, 240.1 216.8 Q 238.9 217.1, 237.6 217.1 Q 234.3 217.1, 232.5 215.1 Q 230.8 213.0, 230.8 209.3 " fill="#000000"/>
<path class="atom-6" d="M 243.3 214.4 L 245.5 214.4 L 245.5 216.5 L 243.3 216.5 L 243.3 214.4 M 243.3 207.0 L 245.5 207.0 L 245.5 209.1 L 243.3 209.1 L 243.3 207.0 " fill="#000000"/>
<path class="atom-6" d="M 255.0 203.4 L 247.1 203.4 L 247.1 201.7 L 257.2 201.7 L 257.2 203.2 L 251.0 216.9 L 249.0 216.9 L 255.0 203.4 " fill="#000000"/>
<path class="atom-7" d="M 133.6 185.0 Q 133.6 181.3, 135.3 179.3 Q 137.1 177.3, 140.5 177.3 Q 143.6 177.3, 145.3 179.5 L 143.8 180.7 Q 142.6 179.0, 140.5 179.0 Q 138.2 179.0, 136.9 180.6 Q 135.7 182.1, 135.7 185.0 Q 135.7 188.0, 137.0 189.6 Q 138.3 191.1, 140.7 191.1 Q 142.4 191.1, 144.3 190.1 L 144.9 191.7 Q 144.1 192.2, 142.9 192.5 Q 141.7 192.8, 140.4 192.8 Q 137.1 192.8, 135.3 190.8 Q 133.6 188.8, 133.6 185.0 " fill="#000000"/>
<path class="atom-7" d="M 146.1 190.1 L 148.3 190.1 L 148.3 192.3 L 146.1 192.3 L 146.1 190.1 M 146.1 182.8 L 148.3 182.8 L 148.3 184.9 L 146.1 184.9 L 146.1 182.8 " fill="#000000"/>
<path class="atom-7" d="M 157.6 184.6 Q 159.0 185.2, 159.8 186.1 Q 160.6 187.0, 160.6 188.5 Q 160.6 189.8, 159.9 190.8 Q 159.3 191.8, 158.1 192.3 Q 156.9 192.8, 155.3 192.8 Q 152.8 192.8, 151.3 191.7 Q 149.9 190.5, 149.9 188.5 Q 149.9 187.2, 150.5 186.3 Q 151.2 185.4, 152.5 184.7 Q 151.5 184.1, 151.0 183.3 Q 150.4 182.5, 150.4 181.2 Q 150.4 179.4, 151.7 178.3 Q 153.0 177.3, 155.2 177.3 Q 157.4 177.3, 158.7 178.3 Q 160.0 179.4, 160.0 181.2 Q 160.0 182.3, 159.4 183.1 Q 158.8 183.9, 157.6 184.6 M 155.2 178.9 Q 154.0 178.9, 153.3 179.5 Q 152.6 180.1, 152.6 181.2 Q 152.6 182.0, 153.0 182.5 Q 153.5 183.0, 154.2 183.3 Q 154.9 183.6, 156.2 184.1 Q 157.1 183.4, 157.5 182.7 Q 157.9 182.0, 157.9 181.2 Q 157.9 180.1, 157.2 179.5 Q 156.5 178.9, 155.2 178.9 M 155.3 191.2 Q 156.7 191.2, 157.6 190.5 Q 158.4 189.7, 158.4 188.5 Q 158.4 187.6, 158.0 187.1 Q 157.5 186.6, 156.9 186.3 Q 156.2 186.0, 155.0 185.6 L 154.0 185.3 Q 153.0 185.9, 152.5 186.7 Q 152.0 187.5, 152.0 188.5 Q 152.0 189.7, 152.9 190.5 Q 153.8 191.2, 155.3 191.2 " fill="#000000"/>
<path class="atom-8" d="M 185.4 171.3 Q 185.4 167.5, 187.2 165.6 Q 189.0 163.6, 192.3 163.6 Q 195.5 163.6, 197.1 165.8 L 195.7 166.9 Q 194.5 165.3, 192.3 165.3 Q 190.0 165.3, 188.8 166.9 Q 187.6 168.4, 187.6 171.3 Q 187.6 174.3, 188.9 175.8 Q 190.1 177.4, 192.6 177.4 Q 194.2 177.4, 196.2 176.4 L 196.8 178.0 Q 196.0 178.5, 194.8 178.8 Q 193.6 179.1, 192.3 179.1 Q 189.0 179.1, 187.2 177.1 Q 185.4 175.1, 185.4 171.3 " fill="#000000"/>
<path class="atom-8" d="M 198.0 176.4 L 200.1 176.4 L 200.1 178.5 L 198.0 178.5 L 198.0 176.4 M 198.0 169.0 L 200.1 169.0 L 200.1 171.2 L 198.0 171.2 L 198.0 169.0 " fill="#000000"/>
<path class="atom-8" d="M 206.8 163.6 Q 209.5 163.6, 210.9 165.4 Q 212.3 167.2, 212.3 170.9 Q 212.3 174.9, 210.6 177.0 Q 208.9 179.1, 205.7 179.1 Q 204.7 179.1, 203.9 178.9 Q 203.1 178.6, 202.3 178.2 L 203.2 176.8 Q 204.3 177.4, 205.6 177.4 Q 207.8 177.4, 208.9 176.0 Q 210.0 174.6, 210.1 171.7 Q 209.3 172.5, 208.3 172.8 Q 207.4 173.2, 206.3 173.2 Q 205.0 173.2, 203.9 172.6 Q 202.9 172.0, 202.3 171.0 Q 201.7 169.9, 201.7 168.6 Q 201.7 167.1, 202.4 166.0 Q 203.0 164.8, 204.2 164.2 Q 205.4 163.6, 206.8 163.6 M 203.9 168.6 Q 203.9 169.9, 204.6 170.7 Q 205.4 171.5, 206.7 171.5 Q 207.6 171.5, 208.5 171.1 Q 209.5 170.7, 210.1 170.1 Q 210.0 167.6, 209.2 166.5 Q 208.4 165.3, 206.8 165.3 Q 206.0 165.3, 205.3 165.7 Q 204.7 166.2, 204.3 166.9 Q 203.9 167.7, 203.9 168.6 " fill="#000000"/>
<path class="atom-9" d="M 114.4 236.7 Q 114.4 233.0, 116.1 231.0 Q 117.9 229.0, 121.2 229.0 Q 124.4 229.0, 126.0 231.2 L 124.6 232.4 Q 123.4 230.8, 121.2 230.8 Q 119.0 230.8, 117.7 232.3 Q 116.5 233.8, 116.5 236.7 Q 116.5 239.7, 117.8 241.3 Q 119.0 242.8, 121.5 242.8 Q 123.2 242.8, 125.1 241.8 L 125.7 243.4 Q 124.9 243.9, 123.7 244.2 Q 122.5 244.5, 121.2 244.5 Q 117.9 244.5, 116.1 242.5 Q 114.4 240.5, 114.4 236.7 " fill="#000000"/>
<path class="atom-9" d="M 126.9 241.8 L 129.0 241.8 L 129.0 244.0 L 126.9 244.0 L 126.9 241.8 M 126.9 234.5 L 129.0 234.5 L 129.0 236.6 L 126.9 236.6 L 126.9 234.5 " fill="#000000"/>
<path class="atom-9" d="M 131.5 242.6 L 134.8 242.6 L 134.8 231.3 L 131.1 232.4 L 130.7 231.2 L 135.3 229.1 L 136.8 229.3 L 136.8 242.6 L 139.8 242.6 L 139.8 244.3 L 131.5 244.3 L 131.5 242.6 " fill="#000000"/>
<path class="atom-9" d="M 146.3 244.5 Q 143.5 244.5, 142.1 242.5 Q 140.7 240.4, 140.7 236.7 Q 140.7 233.1, 142.1 231.0 Q 143.4 229.0, 146.3 229.0 Q 149.1 229.0, 150.4 231.0 Q 151.8 233.1, 151.8 236.7 Q 151.8 240.4, 150.4 242.5 Q 149.0 244.5, 146.3 244.5 M 146.3 242.8 Q 147.9 242.8, 148.8 241.3 Q 149.7 239.7, 149.7 236.7 Q 149.7 233.8, 148.8 232.2 Q 147.9 230.7, 146.3 230.7 Q 144.6 230.7, 143.7 232.2 Q 142.8 233.8, 142.8 236.7 Q 142.8 239.7, 143.7 241.3 Q 144.6 242.8, 146.3 242.8 " fill="#000000"/>
<path class="atom-10" d="M 153.1 274.7 Q 153.1 270.9, 154.9 269.0 Q 156.6 267.0, 160.0 267.0 Q 163.1 267.0, 164.8 269.2 L 163.4 270.3 Q 162.2 268.7, 160.0 268.7 Q 157.7 268.7, 156.5 270.3 Q 155.3 271.8, 155.3 274.7 Q 155.3 277.7, 156.5 279.2 Q 157.8 280.8, 160.2 280.8 Q 161.9 280.8, 163.9 279.8 L 164.5 281.4 Q 163.7 281.9, 162.5 282.2 Q 161.3 282.5, 159.9 282.5 Q 156.6 282.5, 154.9 280.5 Q 153.1 278.5, 153.1 274.7 " fill="#000000"/>
<path class="atom-10" d="M 165.7 279.8 L 167.8 279.8 L 167.8 281.9 L 165.7 281.9 L 165.7 279.8 M 165.7 272.4 L 167.8 272.4 L 167.8 274.6 L 165.7 274.6 L 165.7 272.4 " fill="#000000"/>
<path class="atom-10" d="M 170.2 280.6 L 173.6 280.6 L 173.6 269.3 L 169.9 270.4 L 169.4 269.1 L 174.1 267.1 L 175.6 267.3 L 175.6 280.6 L 178.6 280.6 L 178.6 282.3 L 170.2 282.3 L 170.2 280.6 " fill="#000000"/>
<path class="atom-10" d="M 180.3 280.6 L 183.6 280.6 L 183.6 269.3 L 180.0 270.4 L 179.5 269.1 L 184.1 267.1 L 185.6 267.3 L 185.6 280.6 L 188.6 280.6 L 188.6 282.3 L 180.3 282.3 L 180.3 280.6 " fill="#000000"/>
<path class="atom-11" d="M 292.2 357.1 L 294.3 357.1 L 294.3 363.5 L 302.0 363.5 L 302.0 357.1 L 304.1 357.1 L 304.1 372.3 L 302.0 372.3 L 302.0 365.2 L 294.3 365.2 L 294.3 372.3 L 292.2 372.3 L 292.2 357.1 " fill="#000000"/>
<path class="atom-11" d="M 305.9 369.7 L 308.0 369.7 L 308.0 371.9 L 305.9 371.9 L 305.9 369.7 M 305.9 362.4 L 308.0 362.4 L 308.0 364.5 L 305.9 364.5 L 305.9 362.4 " fill="#000000"/>
<path class="atom-11" d="M 310.5 370.5 L 313.8 370.5 L 313.8 359.2 L 310.1 360.3 L 309.6 359.1 L 314.3 357.0 L 315.8 357.3 L 315.8 370.5 L 318.8 370.5 L 318.8 372.3 L 310.5 372.3 L 310.5 370.5 " fill="#000000"/>
<path class="atom-11" d="M 319.7 360.0 Q 320.3 358.5, 321.6 357.7 Q 322.9 356.9, 324.8 356.9 Q 327.1 356.9, 328.4 358.2 Q 329.6 359.4, 329.6 361.6 Q 329.6 363.9, 328.0 366.0 Q 326.3 368.1, 322.9 370.5 L 329.9 370.5 L 329.9 372.3 L 319.7 372.3 L 319.7 370.8 Q 322.5 368.8, 324.2 367.3 Q 325.9 365.8, 326.7 364.5 Q 327.5 363.1, 327.5 361.7 Q 327.5 360.3, 326.8 359.4 Q 326.0 358.6, 324.8 358.6 Q 323.6 358.6, 322.7 359.1 Q 321.9 359.6, 321.4 360.7 L 319.7 360.0 " fill="#000000"/>
<path class="atom-12" d="M 162.1 329.1 L 164.2 329.1 L 164.2 335.5 L 171.9 335.5 L 171.9 329.1 L 174.0 329.1 L 174.0 344.3 L 171.9 344.3 L 171.9 337.3 L 164.2 337.3 L 164.2 344.3 L 162.1 344.3 L 162.1 329.1 " fill="#000000"/>
<path class="atom-12" d="M 175.8 341.8 L 178.0 341.8 L 178.0 343.9 L 175.8 343.9 L 175.8 341.8 M 175.8 334.4 L 178.0 334.4 L 178.0 336.5 L 175.8 336.5 L 175.8 334.4 " fill="#000000"/>
<path class="atom-12" d="M 180.4 342.6 L 183.7 342.6 L 183.7 331.2 L 180.1 332.4 L 179.6 331.1 L 184.2 329.0 L 185.7 329.3 L 185.7 342.6 L 188.7 342.6 L 188.7 344.3 L 180.4 344.3 L 180.4 342.6 " fill="#000000"/>
<path class="atom-12" d="M 196.9 336.3 Q 198.4 336.7, 199.1 337.7 Q 199.8 338.6, 199.8 340.1 Q 199.8 341.4, 199.2 342.4 Q 198.5 343.4, 197.4 343.9 Q 196.2 344.5, 194.6 344.5 Q 193.0 344.5, 191.8 343.9 Q 190.6 343.3, 189.6 342.2 L 190.8 340.9 Q 191.8 342.0, 192.6 342.4 Q 193.4 342.8, 194.6 342.8 Q 196.0 342.8, 196.8 342.0 Q 197.7 341.3, 197.7 340.1 Q 197.7 338.5, 196.8 337.9 Q 195.9 337.2, 194.1 337.2 L 193.0 337.2 L 193.0 335.6 L 193.9 335.6 Q 195.6 335.6, 196.5 334.9 Q 197.4 334.2, 197.4 332.8 Q 197.4 331.8, 196.6 331.2 Q 195.9 330.6, 194.7 330.6 Q 193.4 330.6, 192.6 331.1 Q 191.8 331.5, 191.2 332.7 L 189.7 331.9 Q 190.3 330.6, 191.6 329.8 Q 192.9 328.9, 194.7 328.9 Q 196.9 328.9, 198.2 330.0 Q 199.5 331.0, 199.5 332.8 Q 199.5 334.0, 198.8 334.9 Q 198.2 335.8, 196.9 336.3 " fill="#000000"/>
<path class="atom-13" d="M 226.5 394.8 L 228.5 394.8 L 228.5 401.2 L 236.3 401.2 L 236.3 394.8 L 238.4 394.8 L 238.4 409.9 L 236.3 409.9 L 236.3 402.9 L 228.5 402.9 L 228.5 409.9 L 226.5 409.9 L 226.5 394.8 " fill="#000000"/>
<path class="atom-13" d="M 240.2 407.4 L 242.3 407.4 L 242.3 409.6 L 240.2 409.6 L 240.2 407.4 M 240.2 400.0 L 242.3 400.0 L 242.3 402.2 L 240.2 402.2 L 240.2 400.0 " fill="#000000"/>
<path class="atom-13" d="M 244.8 408.2 L 248.1 408.2 L 248.1 396.9 L 244.4 398.0 L 243.9 396.7 L 248.6 394.7 L 250.1 394.9 L 250.1 408.2 L 253.1 408.2 L 253.1 409.9 L 244.8 409.9 L 244.8 408.2 " fill="#000000"/>
<path class="atom-13" d="M 263.8 404.7 L 265.7 404.7 L 265.7 406.4 L 263.8 406.4 L 263.8 409.9 L 261.8 409.9 L 261.8 406.4 L 254.0 406.4 L 254.0 405.1 L 260.6 394.8 L 263.8 394.8 L 263.8 404.7 M 256.5 404.7 L 261.8 404.7 L 261.8 396.1 L 256.5 404.7 " fill="#000000"/>
<path class="atom-14" d="M 323.9 174.2 L 328.9 182.2 Q 329.4 183.0, 330.2 184.5 Q 331.0 185.9, 331.0 186.0 L 331.0 174.2 L 333.0 174.2 L 333.0 189.4 L 330.9 189.4 L 325.6 180.6 Q 325.0 179.6, 324.3 178.4 Q 323.7 177.2, 323.5 176.8 L 323.5 189.4 L 321.5 189.4 L 321.5 174.2 L 323.9 174.2 " fill="#0000FF"/>
<path class="atom-14" d="M 334.8 186.9 L 336.9 186.9 L 336.9 189.0 L 334.8 189.0 L 334.8 186.9 M 334.8 179.5 L 336.9 179.5 L 336.9 181.6 L 334.8 181.6 L 334.8 179.5 " fill="#0000FF"/>
<path class="atom-14" d="M 339.4 187.7 L 342.7 187.7 L 342.7 176.3 L 339.0 177.5 L 338.5 176.2 L 343.2 174.1 L 344.7 174.4 L 344.7 187.7 L 347.7 187.7 L 347.7 189.4 L 339.4 189.4 L 339.4 187.7 " fill="#0000FF"/>
<path class="atom-14" d="M 354.1 179.9 Q 355.4 179.9, 356.5 180.5 Q 357.6 181.0, 358.2 182.1 Q 358.9 183.1, 358.9 184.6 Q 358.9 186.1, 358.1 187.3 Q 357.3 188.4, 356.1 189.0 Q 354.9 189.5, 353.4 189.5 Q 352.0 189.5, 350.8 189.0 Q 349.5 188.5, 348.6 187.5 L 349.9 186.2 Q 350.6 187.0, 351.6 187.4 Q 352.5 187.8, 353.5 187.8 Q 354.9 187.8, 355.8 187.0 Q 356.7 186.1, 356.7 184.6 Q 356.7 183.0, 355.8 182.3 Q 354.9 181.5, 353.4 181.5 Q 352.0 181.5, 350.6 182.1 L 349.4 181.5 L 350.1 174.2 L 357.9 174.2 L 357.7 175.9 L 351.9 175.9 L 351.4 180.4 Q 352.8 179.9, 354.1 179.9 " fill="#0000FF"/>
<path class="atom-15" d="M 260.9 212.7 L 262.9 212.7 L 262.9 219.1 L 270.7 219.1 L 270.7 212.7 L 272.8 212.7 L 272.8 227.9 L 270.7 227.9 L 270.7 220.9 L 262.9 220.9 L 262.9 227.9 L 260.9 227.9 L 260.9 212.7 " fill="#000000"/>
<path class="atom-15" d="M 274.6 225.4 L 276.7 225.4 L 276.7 227.5 L 274.6 227.5 L 274.6 225.4 M 274.6 218.0 L 276.7 218.0 L 276.7 220.1 L 274.6 220.1 L 274.6 218.0 " fill="#000000"/>
<path class="atom-15" d="M 279.2 226.2 L 282.5 226.2 L 282.5 214.8 L 278.8 216.0 L 278.3 214.7 L 283.0 212.6 L 284.5 212.9 L 284.5 226.2 L 287.5 226.2 L 287.5 227.9 L 279.2 227.9 L 279.2 226.2 " fill="#000000"/>
<path class="atom-15" d="M 294.3 218.4 Q 295.6 218.4, 296.7 219.0 Q 297.7 219.6, 298.3 220.6 Q 298.9 221.7, 298.9 223.0 Q 298.9 224.5, 298.2 225.6 Q 297.6 226.8, 296.4 227.4 Q 295.3 228.0, 293.8 228.0 Q 291.1 228.0, 289.7 226.2 Q 288.4 224.4, 288.4 220.7 Q 288.4 216.7, 290.0 214.6 Q 291.7 212.5, 295.0 212.5 Q 295.9 212.5, 296.7 212.7 Q 297.5 213.0, 298.3 213.4 L 297.5 214.8 Q 296.3 214.2, 295.0 214.2 Q 292.9 214.2, 291.8 215.6 Q 290.7 217.0, 290.5 219.9 Q 291.3 219.1, 292.3 218.8 Q 293.3 218.4, 294.3 218.4 M 293.8 226.3 Q 294.6 226.3, 295.3 225.9 Q 296.0 225.4, 296.4 224.7 Q 296.8 223.9, 296.8 223.0 Q 296.8 221.7, 296.0 220.9 Q 295.3 220.1, 293.9 220.1 Q 293.0 220.1, 292.1 220.5 Q 291.2 220.9, 290.5 221.5 Q 290.6 224.0, 291.4 225.1 Q 292.2 226.3, 293.8 226.3 " fill="#000000"/>
<path class="atom-16" d="M 372.0 239.9 L 374.0 239.9 L 374.0 246.3 L 381.8 246.3 L 381.8 239.9 L 383.8 239.9 L 383.8 255.1 L 381.8 255.1 L 381.8 248.1 L 374.0 248.1 L 374.0 255.1 L 372.0 255.1 L 372.0 239.9 " fill="#000000"/>
<path class="atom-16" d="M 385.7 252.6 L 387.8 252.6 L 387.8 254.7 L 385.7 254.7 L 385.7 252.6 M 385.7 245.2 L 387.8 245.2 L 387.8 247.3 L 385.7 247.3 L 385.7 245.2 " fill="#000000"/>
<path class="atom-16" d="M 390.2 253.4 L 393.6 253.4 L 393.6 242.0 L 389.9 243.2 L 389.4 241.9 L 394.1 239.8 L 395.6 240.1 L 395.6 253.4 L 398.6 253.4 L 398.6 255.1 L 390.2 255.1 L 390.2 253.4 " fill="#000000"/>
<path class="atom-16" d="M 407.4 241.6 L 399.5 241.6 L 399.5 239.9 L 409.5 239.9 L 409.5 241.4 L 403.4 255.1 L 401.3 255.1 L 407.4 241.6 " fill="#000000"/>
<path class="atom-17" d="M 263.3 188.6 L 265.4 188.6 L 265.4 195.1 L 273.1 195.1 L 273.1 188.6 L 275.2 188.6 L 275.2 203.8 L 273.1 203.8 L 273.1 196.8 L 265.4 196.8 L 265.4 203.8 L 263.3 203.8 L 263.3 188.6 " fill="#000000"/>
<path class="atom-17" d="M 277.0 201.3 L 279.1 201.3 L 279.1 203.4 L 277.0 203.4 L 277.0 201.3 M 277.0 193.9 L 279.1 193.9 L 279.1 196.1 L 277.0 196.1 L 277.0 193.9 " fill="#000000"/>
<path class="atom-17" d="M 281.6 202.1 L 284.9 202.1 L 284.9 190.7 L 281.2 191.9 L 280.8 190.6 L 285.4 188.5 L 286.9 188.8 L 286.9 202.1 L 289.9 202.1 L 289.9 203.8 L 281.6 203.8 L 281.6 202.1 " fill="#000000"/>
<path class="atom-17" d="M 298.5 195.8 Q 299.9 196.4, 300.7 197.3 Q 301.5 198.1, 301.5 199.6 Q 301.5 200.9, 300.9 201.9 Q 300.2 202.9, 299.0 203.5 Q 297.8 204.0, 296.2 204.0 Q 293.7 204.0, 292.3 202.8 Q 290.8 201.7, 290.8 199.6 Q 290.8 198.4, 291.4 197.5 Q 292.1 196.5, 293.4 195.8 Q 292.4 195.3, 291.9 194.4 Q 291.4 193.6, 291.4 192.3 Q 291.4 190.5, 292.6 189.5 Q 294.0 188.4, 296.2 188.4 Q 298.4 188.4, 299.7 189.5 Q 301.0 190.5, 301.0 192.3 Q 301.0 193.4, 300.3 194.3 Q 299.7 195.1, 298.5 195.8 M 296.2 190.1 Q 294.9 190.1, 294.2 190.7 Q 293.5 191.3, 293.5 192.3 Q 293.5 193.1, 294.0 193.7 Q 294.4 194.2, 295.1 194.5 Q 295.8 194.8, 297.1 195.2 Q 298.0 194.6, 298.4 193.9 Q 298.8 193.2, 298.8 192.3 Q 298.8 191.3, 298.1 190.7 Q 297.4 190.1, 296.2 190.1 M 296.2 202.4 Q 297.7 202.4, 298.5 201.6 Q 299.4 200.9, 299.4 199.6 Q 299.4 198.8, 298.9 198.3 Q 298.5 197.8, 297.8 197.5 Q 297.1 197.2, 295.9 196.8 L 295.0 196.5 Q 293.9 197.1, 293.4 197.9 Q 292.9 198.6, 292.9 199.6 Q 292.9 200.9, 293.8 201.6 Q 294.7 202.4, 296.2 202.4 " fill="#000000"/>
<path class="atom-18" d="M 206.9 112.0 L 209.0 112.0 L 209.0 118.5 L 216.7 118.5 L 216.7 112.0 L 218.8 112.0 L 218.8 127.2 L 216.7 127.2 L 216.7 120.2 L 209.0 120.2 L 209.0 127.2 L 206.9 127.2 L 206.9 112.0 " fill="#000000"/>
<path class="atom-18" d="M 220.6 124.7 L 222.7 124.7 L 222.7 126.8 L 220.6 126.8 L 220.6 124.7 M 220.6 117.3 L 222.7 117.3 L 222.7 119.5 L 220.6 119.5 L 220.6 117.3 " fill="#000000"/>
<path class="atom-18" d="M 225.2 125.5 L 228.5 125.5 L 228.5 114.1 L 224.8 115.3 L 224.4 114.0 L 229.0 111.9 L 230.5 112.2 L 230.5 125.5 L 233.5 125.5 L 233.5 127.2 L 225.2 127.2 L 225.2 125.5 " fill="#000000"/>
<path class="atom-18" d="M 239.5 111.9 Q 242.2 111.9, 243.5 113.7 Q 244.9 115.5, 244.9 119.2 Q 244.9 123.2, 243.2 125.3 Q 241.6 127.4, 238.3 127.4 Q 237.4 127.4, 236.6 127.2 Q 235.8 126.9, 235.0 126.5 L 235.8 125.1 Q 237.0 125.7, 238.3 125.7 Q 240.4 125.7, 241.5 124.3 Q 242.6 122.9, 242.8 120.0 Q 242.0 120.7, 241.0 121.1 Q 240.0 121.5, 239.0 121.5 Q 237.7 121.5, 236.6 120.9 Q 235.6 120.3, 235.0 119.3 Q 234.4 118.2, 234.4 116.9 Q 234.4 115.4, 235.0 114.3 Q 235.7 113.1, 236.9 112.5 Q 238.0 111.9, 239.5 111.9 M 236.5 116.9 Q 236.5 118.2, 237.3 119.0 Q 238.0 119.8, 239.4 119.8 Q 240.3 119.8, 241.2 119.4 Q 242.1 119.0, 242.8 118.4 Q 242.7 115.9, 241.9 114.7 Q 241.1 113.6, 239.5 113.6 Q 238.7 113.6, 238.0 114.0 Q 237.3 114.5, 236.9 115.2 Q 236.5 116.0, 236.5 116.9 " fill="#000000"/>
<path class="atom-19" d="M 46.8 242.9 L 48.9 242.9 L 48.9 249.4 L 56.6 249.4 L 56.6 242.9 L 58.7 242.9 L 58.7 258.1 L 56.6 258.1 L 56.6 251.1 L 48.9 251.1 L 48.9 258.1 L 46.8 258.1 L 46.8 242.9 " fill="#000000"/>
<path class="atom-19" d="M 60.5 255.6 L 62.6 255.6 L 62.6 257.7 L 60.5 257.7 L 60.5 255.6 M 60.5 248.2 L 62.6 248.2 L 62.6 250.3 L 60.5 250.3 L 60.5 248.2 " fill="#000000"/>
<path class="atom-19" d="M 64.3 245.8 Q 64.8 244.3, 66.2 243.5 Q 67.5 242.7, 69.3 242.7 Q 71.6 242.7, 72.9 244.0 Q 74.2 245.2, 74.2 247.4 Q 74.2 249.7, 72.5 251.8 Q 70.9 253.9, 67.5 256.4 L 74.5 256.4 L 74.5 258.1 L 64.2 258.1 L 64.2 256.6 Q 67.1 254.6, 68.7 253.1 Q 70.4 251.6, 71.3 250.3 Q 72.1 248.9, 72.1 247.5 Q 72.1 246.1, 71.3 245.3 Q 70.6 244.4, 69.3 244.4 Q 68.1 244.4, 67.3 244.9 Q 66.5 245.4, 65.9 246.5 L 64.3 245.8 " fill="#000000"/>
<path class="atom-19" d="M 81.3 258.2 Q 78.5 258.2, 77.1 256.2 Q 75.8 254.1, 75.8 250.5 Q 75.8 246.8, 77.1 244.8 Q 78.5 242.7, 81.3 242.7 Q 84.1 242.7, 85.5 244.8 Q 86.8 246.8, 86.8 250.5 Q 86.8 254.1, 85.5 256.2 Q 84.1 258.2, 81.3 258.2 M 81.3 256.5 Q 83.0 256.5, 83.8 255.0 Q 84.7 253.5, 84.7 250.5 Q 84.7 247.5, 83.8 246.0 Q 83.0 244.4, 81.3 244.4 Q 79.7 244.4, 78.8 246.0 Q 77.9 247.5, 77.9 250.5 Q 77.9 253.5, 78.8 255.0 Q 79.7 256.5, 81.3 256.5 " fill="#000000"/>
<path class="atom-20" d="M 150.9 318.9 L 153.0 318.9 L 153.0 325.3 L 160.7 325.3 L 160.7 318.9 L 162.8 318.9 L 162.8 334.0 L 160.7 334.0 L 160.7 327.0 L 153.0 327.0 L 153.0 334.0 L 150.9 334.0 L 150.9 318.9 " fill="#000000"/>
<path class="atom-20" d="M 164.6 331.5 L 166.8 331.5 L 166.8 333.7 L 164.6 333.7 L 164.6 331.5 M 164.6 324.1 L 166.8 324.1 L 166.8 326.3 L 164.6 326.3 L 164.6 324.1 " fill="#000000"/>
<path class="atom-20" d="M 168.4 321.7 Q 169.0 320.3, 170.3 319.5 Q 171.6 318.7, 173.5 318.7 Q 175.8 318.7, 177.0 319.9 Q 178.3 321.2, 178.3 323.4 Q 178.3 325.6, 176.7 327.7 Q 175.0 329.8, 171.6 332.3 L 178.6 332.3 L 178.6 334.0 L 168.4 334.0 L 168.4 332.6 Q 171.2 330.6, 172.9 329.1 Q 174.6 327.6, 175.4 326.2 Q 176.2 324.9, 176.2 323.5 Q 176.2 322.0, 175.5 321.2 Q 174.7 320.4, 173.5 320.4 Q 172.2 320.4, 171.4 320.9 Q 170.6 321.4, 170.0 322.5 L 168.4 321.7 " fill="#000000"/>
<path class="atom-20" d="M 180.7 332.3 L 184.0 332.3 L 184.0 321.0 L 180.4 322.1 L 179.9 320.8 L 184.5 318.8 L 186.0 319.0 L 186.0 332.3 L 189.0 332.3 L 189.0 334.0 L 180.7 334.0 L 180.7 332.3 " fill="#000000"/>
<path class="atom-21" d="M 92.3 139.5 L 97.3 147.5 Q 97.8 148.3, 98.6 149.8 Q 99.4 151.2, 99.4 151.3 L 99.4 139.5 L 101.4 139.5 L 101.4 154.7 L 99.3 154.7 L 94.0 145.9 Q 93.4 144.8, 92.7 143.7 Q 92.1 142.5, 91.9 142.1 L 91.9 154.7 L 89.9 154.7 L 89.9 139.5 L 92.3 139.5 " fill="#0000FF"/>
<path class="atom-21" d="M 103.2 152.2 L 105.3 152.2 L 105.3 154.3 L 103.2 154.3 L 103.2 152.2 M 103.2 144.8 L 105.3 144.8 L 105.3 146.9 L 103.2 146.9 L 103.2 144.8 " fill="#0000FF"/>
<path class="atom-21" d="M 107.0 142.4 Q 107.5 140.9, 108.9 140.1 Q 110.2 139.3, 112.0 139.3 Q 114.3 139.3, 115.6 140.6 Q 116.9 141.8, 116.9 144.0 Q 116.9 146.3, 115.2 148.4 Q 113.6 150.5, 110.2 152.9 L 117.2 152.9 L 117.2 154.7 L 106.9 154.7 L 106.9 153.2 Q 109.8 151.2, 111.4 149.7 Q 113.1 148.2, 114.0 146.9 Q 114.8 145.5, 114.8 144.1 Q 114.8 142.7, 114.0 141.8 Q 113.3 141.0, 112.0 141.0 Q 110.8 141.0, 110.0 141.5 Q 109.2 142.0, 108.6 143.1 L 107.0 142.4 " fill="#0000FF"/>
<path class="atom-21" d="M 118.5 142.4 Q 119.1 140.9, 120.4 140.1 Q 121.7 139.3, 123.6 139.3 Q 125.8 139.3, 127.1 140.6 Q 128.4 141.8, 128.4 144.0 Q 128.4 146.3, 126.7 148.4 Q 125.1 150.5, 121.7 152.9 L 128.7 152.9 L 128.7 154.7 L 118.5 154.7 L 118.5 153.2 Q 121.3 151.2, 123.0 149.7 Q 124.6 148.2, 125.5 146.9 Q 126.3 145.5, 126.3 144.1 Q 126.3 142.7, 125.5 141.8 Q 124.8 141.0, 123.6 141.0 Q 122.3 141.0, 121.5 141.5 Q 120.7 142.0, 120.1 143.1 L 118.5 142.4 " fill="#0000FF"/>
<path class="atom-22" d="M 373.0 168.1 Q 373.0 164.3, 374.7 162.3 Q 376.5 160.3, 379.9 160.3 Q 383.0 160.3, 384.7 162.5 L 383.2 163.7 Q 382.0 162.1, 379.9 162.1 Q 377.6 162.1, 376.3 163.6 Q 375.1 165.2, 375.1 168.1 Q 375.1 171.1, 376.4 172.6 Q 377.6 174.2, 380.1 174.2 Q 381.8 174.2, 383.7 173.1 L 384.3 174.8 Q 383.5 175.3, 382.3 175.6 Q 381.1 175.9, 379.8 175.9 Q 376.5 175.9, 374.7 173.9 Q 373.0 171.8, 373.0 168.1 " fill="#000000"/>
<path class="atom-22" d="M 385.5 173.2 L 387.7 173.2 L 387.7 175.3 L 385.5 175.3 L 385.5 173.2 M 385.5 165.8 L 387.7 165.8 L 387.7 167.9 L 385.5 167.9 L 385.5 165.8 " fill="#000000"/>
<path class="atom-22" d="M 389.3 163.4 Q 389.9 161.9, 391.2 161.1 Q 392.5 160.3, 394.4 160.3 Q 396.7 160.3, 397.9 161.6 Q 399.2 162.8, 399.2 165.0 Q 399.2 167.3, 397.6 169.4 Q 395.9 171.5, 392.5 174.0 L 399.5 174.0 L 399.5 175.7 L 389.3 175.7 L 389.3 174.2 Q 392.1 172.2, 393.8 170.7 Q 395.5 169.2, 396.3 167.9 Q 397.1 166.5, 397.1 165.1 Q 397.1 163.7, 396.4 162.9 Q 395.6 162.0, 394.4 162.0 Q 393.1 162.0, 392.3 162.5 Q 391.5 163.0, 390.9 164.1 L 389.3 163.4 " fill="#000000"/>
<path class="atom-22" d="M 408.1 167.7 Q 409.5 168.1, 410.2 169.1 Q 411.0 170.0, 411.0 171.5 Q 411.0 172.8, 410.3 173.8 Q 409.7 174.8, 408.5 175.4 Q 407.3 175.9, 405.8 175.9 Q 404.2 175.9, 402.9 175.3 Q 401.7 174.8, 400.8 173.6 L 402.0 172.4 Q 402.9 173.4, 403.7 173.8 Q 404.5 174.2, 405.8 174.2 Q 407.2 174.2, 408.0 173.4 Q 408.8 172.7, 408.8 171.5 Q 408.8 170.0, 407.9 169.3 Q 407.1 168.6, 405.2 168.6 L 404.1 168.6 L 404.1 167.0 L 405.1 167.0 Q 406.7 167.0, 407.6 166.3 Q 408.5 165.6, 408.5 164.2 Q 408.5 163.2, 407.8 162.6 Q 407.0 162.0, 405.8 162.0 Q 404.5 162.0, 403.7 162.5 Q 403.0 162.9, 402.4 164.1 L 400.9 163.3 Q 401.4 162.0, 402.7 161.2 Q 404.0 160.3, 405.8 160.3 Q 408.0 160.3, 409.3 161.4 Q 410.6 162.4, 410.6 164.2 Q 410.6 165.4, 410.0 166.3 Q 409.3 167.2, 408.1 167.7 " fill="#000000"/>
<path class="atom-23" d="M 22.7 153.2 L 24.8 153.2 L 24.8 159.7 L 32.5 159.7 L 32.5 153.2 L 34.6 153.2 L 34.6 168.4 L 32.5 168.4 L 32.5 161.4 L 24.8 161.4 L 24.8 168.4 L 22.7 168.4 L 22.7 153.2 " fill="#000000"/>
<path class="atom-23" d="M 36.4 165.9 L 38.6 165.9 L 38.6 168.0 L 36.4 168.0 L 36.4 165.9 M 36.4 158.5 L 38.6 158.5 L 38.6 160.7 L 36.4 160.7 L 36.4 158.5 " fill="#000000"/>
<path class="atom-23" d="M 40.2 156.1 Q 40.8 154.7, 42.1 153.9 Q 43.4 153.1, 45.3 153.1 Q 47.6 153.1, 48.8 154.3 Q 50.1 155.5, 50.1 157.7 Q 50.1 160.0, 48.5 162.1 Q 46.8 164.2, 43.4 166.7 L 50.4 166.7 L 50.4 168.4 L 40.2 168.4 L 40.2 167.0 Q 43.0 164.9, 44.7 163.4 Q 46.4 161.9, 47.2 160.6 Q 48.0 159.2, 48.0 157.9 Q 48.0 156.4, 47.3 155.6 Q 46.5 154.8, 45.3 154.8 Q 44.0 154.8, 43.2 155.3 Q 42.4 155.8, 41.8 156.8 L 40.2 156.1 " fill="#000000"/>
<path class="atom-23" d="M 61.5 163.2 L 63.4 163.2 L 63.4 164.9 L 61.5 164.9 L 61.5 168.4 L 59.5 168.4 L 59.5 164.9 L 51.7 164.9 L 51.7 163.6 L 58.3 153.2 L 61.5 153.2 L 61.5 163.2 M 54.2 163.2 L 59.5 163.2 L 59.5 154.6 L 54.2 163.2 " fill="#000000"/>
<path class="atom-24" d="M 372.3 108.7 L 374.4 108.7 L 374.4 115.2 L 382.1 115.2 L 382.1 108.7 L 384.2 108.7 L 384.2 123.9 L 382.1 123.9 L 382.1 116.9 L 374.4 116.9 L 374.4 123.9 L 372.3 123.9 L 372.3 108.7 " fill="#000000"/>
<path class="atom-24" d="M 386.0 121.4 L 388.1 121.4 L 388.1 123.5 L 386.0 123.5 L 386.0 121.4 M 386.0 114.0 L 388.1 114.0 L 388.1 116.2 L 386.0 116.2 L 386.0 114.0 " fill="#000000"/>
<path class="atom-24" d="M 389.8 111.6 Q 390.3 110.2, 391.7 109.4 Q 393.0 108.6, 394.8 108.6 Q 397.1 108.6, 398.4 109.8 Q 399.7 111.0, 399.7 113.2 Q 399.7 115.5, 398.0 117.6 Q 396.4 119.7, 392.9 122.2 L 400.0 122.2 L 400.0 123.9 L 389.7 123.9 L 389.7 122.5 Q 392.6 120.4, 394.2 118.9 Q 395.9 117.4, 396.7 116.1 Q 397.6 114.7, 397.6 113.4 Q 397.6 111.9, 396.8 111.1 Q 396.1 110.3, 394.8 110.3 Q 393.6 110.3, 392.8 110.8 Q 392.0 111.3, 391.4 112.3 L 389.8 111.6 " fill="#000000"/>
<path class="atom-24" d="M 406.7 114.4 Q 408.1 114.4, 409.2 115.0 Q 410.3 115.5, 410.9 116.6 Q 411.5 117.7, 411.5 119.1 Q 411.5 120.7, 410.7 121.8 Q 410.0 122.9, 408.7 123.5 Q 407.5 124.1, 406.1 124.1 Q 404.7 124.1, 403.4 123.6 Q 402.1 123.0, 401.2 122.1 L 402.5 120.7 Q 403.2 121.5, 404.2 121.9 Q 405.2 122.3, 406.1 122.3 Q 407.5 122.3, 408.4 121.5 Q 409.4 120.7, 409.4 119.1 Q 409.4 117.5, 408.4 116.8 Q 407.5 116.0, 406.0 116.0 Q 404.7 116.0, 403.2 116.6 L 402.0 116.0 L 402.8 108.7 L 410.6 108.7 L 410.3 110.4 L 404.5 110.4 L 404.1 114.9 Q 405.4 114.4, 406.7 114.4 " fill="#000000"/>
<path class="atom-25" d="M 399.8 212.3 L 401.8 212.3 L 401.8 218.7 L 409.6 218.7 L 409.6 212.3 L 411.6 212.3 L 411.6 227.5 L 409.6 227.5 L 409.6 220.4 L 401.8 220.4 L 401.8 227.5 L 399.8 227.5 L 399.8 212.3 " fill="#000000"/>
<path class="atom-25" d="M 413.5 224.9 L 415.6 224.9 L 415.6 227.1 L 413.5 227.1 L 413.5 224.9 M 413.5 217.6 L 415.6 217.6 L 415.6 219.7 L 413.5 219.7 L 413.5 217.6 " fill="#000000"/>
<path class="atom-25" d="M 417.2 215.2 Q 417.8 213.7, 419.1 212.9 Q 420.5 212.1, 422.3 212.1 Q 424.6 212.1, 425.9 213.4 Q 427.2 214.6, 427.2 216.8 Q 427.2 219.1, 425.5 221.2 Q 423.8 223.3, 420.4 225.7 L 427.4 225.7 L 427.4 227.5 L 417.2 227.5 L 417.2 226.0 Q 420.0 224.0, 421.7 222.5 Q 423.4 221.0, 424.2 219.7 Q 425.0 218.3, 425.0 216.9 Q 425.0 215.5, 424.3 214.6 Q 423.6 213.8, 422.3 213.8 Q 421.1 213.8, 420.3 214.3 Q 419.5 214.8, 418.9 215.9 L 417.2 215.2 " fill="#000000"/>
<path class="atom-25" d="M 434.6 218.0 Q 436.0 218.0, 437.0 218.6 Q 438.1 219.1, 438.7 220.2 Q 439.2 221.2, 439.2 222.6 Q 439.2 224.0, 438.6 225.2 Q 437.9 226.3, 436.8 227.0 Q 435.6 227.6, 434.1 227.6 Q 431.4 227.6, 430.1 225.8 Q 428.7 224.0, 428.7 220.3 Q 428.7 216.3, 430.4 214.2 Q 432.1 212.1, 435.3 212.1 Q 436.3 212.1, 437.0 212.3 Q 437.9 212.5, 438.6 213.0 L 437.8 214.4 Q 436.7 213.8, 435.3 213.8 Q 433.2 213.8, 432.1 215.2 Q 431.0 216.6, 430.9 219.4 Q 431.6 218.7, 432.6 218.4 Q 433.6 218.0, 434.6 218.0 M 434.2 225.9 Q 435.0 225.9, 435.6 225.4 Q 436.3 225.0, 436.7 224.3 Q 437.1 223.5, 437.1 222.6 Q 437.1 221.2, 436.3 220.5 Q 435.6 219.7, 434.3 219.7 Q 433.3 219.7, 432.4 220.1 Q 431.5 220.4, 430.9 221.1 Q 431.0 223.6, 431.8 224.7 Q 432.5 225.9, 434.2 225.9 " fill="#000000"/>
<path class="atom-26" d="M 268.4 136.3 L 270.5 136.3 L 270.5 142.7 L 278.2 142.7 L 278.2 136.3 L 280.3 136.3 L 280.3 151.4 L 278.2 151.4 L 278.2 144.4 L 270.5 144.4 L 270.5 151.4 L 268.4 151.4 L 268.4 136.3 " fill="#000000"/>
<path class="atom-26" d="M 282.1 148.9 L 284.3 148.9 L 284.3 151.1 L 282.1 151.1 L 282.1 148.9 M 282.1 141.6 L 284.3 141.6 L 284.3 143.7 L 282.1 143.7 L 282.1 141.6 " fill="#000000"/>
<path class="atom-26" d="M 285.9 139.1 Q 286.5 137.7, 287.8 136.9 Q 289.1 136.1, 291.0 136.1 Q 293.3 136.1, 294.5 137.3 Q 295.8 138.6, 295.8 140.8 Q 295.8 143.0, 294.2 145.1 Q 292.5 147.2, 289.1 149.7 L 296.1 149.7 L 296.1 151.4 L 285.9 151.4 L 285.9 150.0 Q 288.7 148.0, 290.4 146.5 Q 292.1 145.0, 292.9 143.6 Q 293.7 142.3, 293.7 140.9 Q 293.7 139.4, 293.0 138.6 Q 292.2 137.8, 291.0 137.8 Q 289.7 137.8, 288.9 138.3 Q 288.1 138.8, 287.5 139.9 L 285.9 139.1 " fill="#000000"/>
<path class="atom-26" d="M 305.3 138.0 L 297.4 138.0 L 297.4 136.3 L 307.4 136.3 L 307.4 137.8 L 301.3 151.4 L 299.3 151.4 L 305.3 138.0 " fill="#000000"/>
<path class="atom-27" d="M 117.4 87.8 L 119.4 87.8 L 119.4 94.2 L 127.2 94.2 L 127.2 87.8 L 129.2 87.8 L 129.2 103.0 L 127.2 103.0 L 127.2 95.9 L 119.4 95.9 L 119.4 103.0 L 117.4 103.0 L 117.4 87.8 " fill="#000000"/>
<path class="atom-27" d="M 131.0 100.4 L 133.2 100.4 L 133.2 102.6 L 131.0 102.6 L 131.0 100.4 M 131.0 93.1 L 133.2 93.1 L 133.2 95.2 L 131.0 95.2 L 131.0 93.1 " fill="#000000"/>
<path class="atom-27" d="M 134.8 90.7 Q 135.4 89.2, 136.7 88.4 Q 138.0 87.6, 139.9 87.6 Q 142.2 87.6, 143.5 88.9 Q 144.8 90.1, 144.8 92.3 Q 144.8 94.6, 143.1 96.7 Q 141.4 98.8, 138.0 101.2 L 145.0 101.2 L 145.0 103.0 L 134.8 103.0 L 134.8 101.5 Q 137.6 99.5, 139.3 98.0 Q 141.0 96.5, 141.8 95.2 Q 142.6 93.8, 142.6 92.4 Q 142.6 91.0, 141.9 90.1 Q 141.2 89.3, 139.9 89.3 Q 138.7 89.3, 137.9 89.8 Q 137.0 90.3, 136.5 91.4 L 134.8 90.7 " fill="#000000"/>
<path class="atom-27" d="M 154.0 94.9 Q 155.4 95.5, 156.2 96.4 Q 157.0 97.3, 157.0 98.8 Q 157.0 100.1, 156.3 101.1 Q 155.7 102.1, 154.5 102.6 Q 153.3 103.2, 151.7 103.2 Q 149.2 103.2, 147.8 102.0 Q 146.3 100.8, 146.3 98.8 Q 146.3 97.6, 146.9 96.6 Q 147.6 95.7, 148.9 95.0 Q 147.9 94.4, 147.4 93.6 Q 146.9 92.8, 146.9 91.5 Q 146.9 89.7, 148.1 88.7 Q 149.4 87.6, 151.7 87.6 Q 153.9 87.6, 155.1 88.7 Q 156.5 89.7, 156.5 91.5 Q 156.5 92.6, 155.8 93.4 Q 155.2 94.3, 154.0 94.9 M 151.7 89.2 Q 150.4 89.2, 149.7 89.8 Q 149.0 90.4, 149.0 91.5 Q 149.0 92.3, 149.5 92.8 Q 149.9 93.3, 150.6 93.6 Q 151.3 93.9, 152.6 94.4 Q 153.5 93.7, 153.9 93.1 Q 154.3 92.4, 154.3 91.5 Q 154.3 90.4, 153.6 89.8 Q 152.9 89.2, 151.7 89.2 M 151.7 101.6 Q 153.2 101.6, 154.0 100.8 Q 154.9 100.0, 154.9 98.8 Q 154.9 98.0, 154.4 97.4 Q 154.0 96.9, 153.3 96.6 Q 152.6 96.3, 151.4 95.9 L 150.5 95.6 Q 149.4 96.3, 148.9 97.0 Q 148.4 97.8, 148.4 98.8 Q 148.4 100.0, 149.3 100.8 Q 150.2 101.6, 151.7 101.6 " fill="#000000"/>
<path class="atom-28" d="M 437.8 146.8 L 439.9 146.8 L 439.9 153.2 L 447.6 153.2 L 447.6 146.8 L 449.7 146.8 L 449.7 161.9 L 447.6 161.9 L 447.6 154.9 L 439.9 154.9 L 439.9 161.9 L 437.8 161.9 L 437.8 146.8 " fill="#000000"/>
<path class="atom-28" d="M 451.5 159.4 L 453.6 159.4 L 453.6 161.6 L 451.5 161.6 L 451.5 159.4 M 451.5 152.1 L 453.6 152.1 L 453.6 154.2 L 451.5 154.2 L 451.5 152.1 " fill="#000000"/>
<path class="atom-28" d="M 455.3 149.6 Q 455.8 148.2, 457.2 147.4 Q 458.5 146.6, 460.3 146.6 Q 462.6 146.6, 463.9 147.8 Q 465.2 149.1, 465.2 151.3 Q 465.2 153.5, 463.5 155.6 Q 461.9 157.7, 458.5 160.2 L 465.5 160.2 L 465.5 161.9 L 455.2 161.9 L 455.2 160.5 Q 458.1 158.5, 459.7 157.0 Q 461.4 155.5, 462.3 154.1 Q 463.1 152.8, 463.1 151.4 Q 463.1 149.9, 462.3 149.1 Q 461.6 148.3, 460.3 148.3 Q 459.1 148.3, 458.3 148.8 Q 457.5 149.3, 456.9 150.4 L 455.3 149.6 " fill="#000000"/>
<path class="atom-28" d="M 471.9 146.6 Q 474.6 146.6, 475.9 148.4 Q 477.3 150.3, 477.3 153.9 Q 477.3 157.9, 475.6 160.0 Q 473.9 162.1, 470.7 162.1 Q 469.7 162.1, 468.9 161.9 Q 468.1 161.7, 467.4 161.2 L 468.2 159.8 Q 469.3 160.4, 470.7 160.4 Q 472.8 160.4, 473.9 159.0 Q 475.0 157.6, 475.1 154.8 Q 474.3 155.5, 473.4 155.9 Q 472.4 156.2, 471.3 156.2 Q 470.0 156.2, 469.0 155.7 Q 467.9 155.1, 467.3 154.0 Q 466.8 153.0, 466.8 151.7 Q 466.8 150.2, 467.4 149.0 Q 468.1 147.9, 469.2 147.2 Q 470.4 146.6, 471.9 146.6 M 468.9 151.6 Q 468.9 153.0, 469.6 153.8 Q 470.4 154.5, 471.7 154.5 Q 472.6 154.5, 473.5 154.2 Q 474.5 153.8, 475.1 153.1 Q 475.0 150.6, 474.2 149.5 Q 473.4 148.4, 471.8 148.4 Q 471.0 148.4, 470.3 148.8 Q 469.7 149.2, 469.3 150.0 Q 468.9 150.7, 468.9 151.6 " fill="#000000"/>
<text x="286.30649013746046" y="292.01670585189277" font-size="12" font-family="Verdana" font-weight="bold" letter-spacing="0" text-anchor="start" fill="black" transform=" rotate(75.145127 286.306490 292.016706)">0.153</text><text x="25" y="490" font-size="12" font-family="Verdana" font-weight="bold" letter-spacing="0" text-anchor="start" fill="black">[#6:1]1(-[#7:2](-[#6:3](-[#6:4](-[#7:15](-[#6:23](-[H:25])(-[H:26])-[H:29])-[H:27])(-[H:16])-[H:17])=[#8:6])-[#6:5](-[H:12])(-[H:13])-[H:14]):[#6:7](:[#6:9](:[#6:8](:[#6:10](:[#6:11]:1-[H:21])-[H:20])-[#7:22](-[H:24])-[H:28])-[H:19])-[H:18]</text></svg>
