<?xml version='1.0' encoding='ASCII' standalone='yes'?>
<svg xmlns="http://www.w3.org/2000/svg" xmlns:rdkit="http://www.rdkit.org/xml" xmlns:xlink="http://www.w3.org/1999/xlink" version="1.1" baseProfile="full" xml:space="preserve" width="500px" height="500px" viewBox="0 0 500 500">
<!-- END OF HEADER -->
<rect style="opacity:1.0;fill:#FFFFFF;stroke:none" width="500" height="500" x="0" y="0"> </rect>
<path d="M 278.502,276.308 L 250.575,310.134" style="fill:none;fill-rule:evenodd;stroke:#FF7F7F;stroke-width:9.4px;stroke-linecap:butt;stroke-linejoin:miter;stroke-opacity:1"/>
<path class="bond-0 atom-0 atom-6" d="M 268.064,227.831 L 282.561,205.964" style="fill:none;fill-rule:evenodd;stroke:#000000;stroke-width:2.0px;stroke-linecap:butt;stroke-linejoin:miter;stroke-opacity:1"/>
<path class="bond-1 atom-0 atom-1" d="M 265.983,242.745 L 276.453,270.814" style="fill:none;fill-rule:evenodd;stroke:#000000;stroke-width:2.0px;stroke-linecap:butt;stroke-linejoin:miter;stroke-opacity:1"/>
<path class="bond-1 atom-0 atom-1" d="M 275.773,243.89 L 283.102,263.538" style="fill:none;fill-rule:evenodd;stroke:#000000;stroke-width:2.0px;stroke-linecap:butt;stroke-linejoin:miter;stroke-opacity:1"/>
<path class="bond-2 atom-0 atom-8" d="M 257.285,233.572 L 226.163,224.915" style="fill:none;fill-rule:evenodd;stroke:#000000;stroke-width:2.0px;stroke-linecap:butt;stroke-linejoin:miter;stroke-opacity:1"/>
<path class="bond-3 atom-1 atom-5" d="M 286.815,277.706 L 305.985,280.929" style="fill:none;fill-rule:evenodd;stroke:#000000;stroke-width:2.0px;stroke-linecap:butt;stroke-linejoin:miter;stroke-opacity:1"/>
<path class="bond-4 atom-2 atom-1" d="M 256.666,302.756 L 264.572,293.18" style="fill:none;fill-rule:evenodd;stroke:#0000FF;stroke-width:2.0px;stroke-linecap:butt;stroke-linejoin:miter;stroke-opacity:1"/>
<path class="bond-4 atom-2 atom-1" d="M 264.572,293.18 L 272.478,283.605" style="fill:none;fill-rule:evenodd;stroke:#000000;stroke-width:2.0px;stroke-linecap:butt;stroke-linejoin:miter;stroke-opacity:1"/>
<path class="bond-5 atom-2 atom-3" d="M 235.092,307.531 L 225.395,305.9" style="fill:none;fill-rule:evenodd;stroke:#0000FF;stroke-width:2.0px;stroke-linecap:butt;stroke-linejoin:miter;stroke-opacity:1"/>
<path class="bond-5 atom-2 atom-3" d="M 225.395,305.9 L 215.699,304.27" style="fill:none;fill-rule:evenodd;stroke:#000000;stroke-width:2.0px;stroke-linecap:butt;stroke-linejoin:miter;stroke-opacity:1"/>
<path class="bond-6 atom-2 atom-4" d="M 253.392,317.687 L 258.323,330.907" style="fill:none;fill-rule:evenodd;stroke:#0000FF;stroke-width:2.0px;stroke-linecap:butt;stroke-linejoin:miter;stroke-opacity:1"/>
<path class="bond-6 atom-2 atom-4" d="M 258.323,330.907 L 263.254,344.126" style="fill:none;fill-rule:evenodd;stroke:#000000;stroke-width:2.0px;stroke-linecap:butt;stroke-linejoin:miter;stroke-opacity:1"/>
<path class="bond-7 atom-3 atom-15" d="M 201.095,310.397 L 185.279,329.553" style="fill:none;fill-rule:evenodd;stroke:#000000;stroke-width:2.0px;stroke-linecap:butt;stroke-linejoin:miter;stroke-opacity:1"/>
<path class="bond-7 atom-3 atom-15" d="M 191.958,307.685 L 180.887,321.094" style="fill:none;fill-rule:evenodd;stroke:#000000;stroke-width:2.0px;stroke-linecap:butt;stroke-linejoin:miter;stroke-opacity:1"/>
<path class="bond-8 atom-3 atom-16" d="M 204.617,295.623 L 194.726,269.105" style="fill:none;fill-rule:evenodd;stroke:#000000;stroke-width:2.0px;stroke-linecap:butt;stroke-linejoin:miter;stroke-opacity:1"/>
<path class="bond-9 atom-5 atom-10" d="M 324.564,291.1 L 334.439,317.573" style="fill:none;fill-rule:evenodd;stroke:#000000;stroke-width:2.0px;stroke-linecap:butt;stroke-linejoin:miter;stroke-opacity:1"/>
<path class="bond-9 atom-5 atom-10" d="M 334.265,292.005 L 341.177,310.536" style="fill:none;fill-rule:evenodd;stroke:#000000;stroke-width:2.0px;stroke-linecap:butt;stroke-linejoin:miter;stroke-opacity:1"/>
<path class="bond-10 atom-5 atom-11" d="M 327.851,276.203 L 343.793,256.894" style="fill:none;fill-rule:evenodd;stroke:#000000;stroke-width:2.0px;stroke-linecap:butt;stroke-linejoin:miter;stroke-opacity:1"/>
<path class="bond-11 atom-6 atom-9" d="M 281.551,191.272 L 265.915,171.583" style="fill:none;fill-rule:evenodd;stroke:#000000;stroke-width:2.0px;stroke-linecap:butt;stroke-linejoin:miter;stroke-opacity:1"/>
<path class="bond-11 atom-6 atom-9" d="M 272.336,193.774 L 261.39,179.992" style="fill:none;fill-rule:evenodd;stroke:#000000;stroke-width:2.0px;stroke-linecap:butt;stroke-linejoin:miter;stroke-opacity:1"/>
<path class="bond-12 atom-6 atom-32" d="M 304.93,195.731 L 325.167,192.36" style="fill:none;fill-rule:evenodd;stroke:#000000;stroke-width:2.0px;stroke-linecap:butt;stroke-linejoin:miter;stroke-opacity:1"/>
<path class="bond-13 atom-7 atom-8" d="M 219.356,187.183 L 219.98,201.724" style="fill:none;fill-rule:evenodd;stroke:#0000FF;stroke-width:2.0px;stroke-linecap:butt;stroke-linejoin:miter;stroke-opacity:1"/>
<path class="bond-13 atom-7 atom-8" d="M 219.98,201.724 L 220.603,216.265" style="fill:none;fill-rule:evenodd;stroke:#000000;stroke-width:2.0px;stroke-linecap:butt;stroke-linejoin:miter;stroke-opacity:1"/>
<path class="bond-14 atom-7 atom-9" d="M 224.515,177.585 L 232.417,174.637" style="fill:none;fill-rule:evenodd;stroke:#0000FF;stroke-width:2.0px;stroke-linecap:butt;stroke-linejoin:miter;stroke-opacity:1"/>
<path class="bond-14 atom-7 atom-9" d="M 232.417,174.637 L 240.32,171.689" style="fill:none;fill-rule:evenodd;stroke:#000000;stroke-width:2.0px;stroke-linecap:butt;stroke-linejoin:miter;stroke-opacity:1"/>
<path class="bond-15 atom-7 atom-20" d="M 208.115,172.392 L 197.551,165.388" style="fill:none;fill-rule:evenodd;stroke:#0000FF;stroke-width:2.0px;stroke-linecap:butt;stroke-linejoin:miter;stroke-opacity:1"/>
<path class="bond-15 atom-7 atom-20" d="M 197.551,165.388 L 186.988,158.385" style="fill:none;fill-rule:evenodd;stroke:#000000;stroke-width:2.0px;stroke-linecap:butt;stroke-linejoin:miter;stroke-opacity:1"/>
<path class="bond-16 atom-8 atom-21" d="M 202.982,226.789 L 197.182,229.426" style="fill:none;fill-rule:evenodd;stroke:#000000;stroke-width:2.0px;stroke-linecap:butt;stroke-linejoin:miter;stroke-opacity:1"/>
<path class="bond-16 atom-8 atom-21" d="M 197.182,229.426 L 191.383,232.063" style="fill:none;fill-rule:evenodd;stroke:#FF0000;stroke-width:2.0px;stroke-linecap:butt;stroke-linejoin:miter;stroke-opacity:1"/>
<path class="bond-16 atom-8 atom-21" d="M 206.613,234.775 L 200.814,237.412" style="fill:none;fill-rule:evenodd;stroke:#000000;stroke-width:2.0px;stroke-linecap:butt;stroke-linejoin:miter;stroke-opacity:1"/>
<path class="bond-16 atom-8 atom-21" d="M 200.814,237.412 L 195.014,240.05" style="fill:none;fill-rule:evenodd;stroke:#FF0000;stroke-width:2.0px;stroke-linecap:butt;stroke-linejoin:miter;stroke-opacity:1"/>
<path class="bond-17 atom-9 atom-33" d="M 262.183,156.922 L 269.887,129.226" style="fill:none;fill-rule:evenodd;stroke:#000000;stroke-width:2.0px;stroke-linecap:butt;stroke-linejoin:miter;stroke-opacity:1"/>
<path class="bond-18 atom-10 atom-12" d="M 349.03,326.688 L 360.598,328.632" style="fill:none;fill-rule:evenodd;stroke:#000000;stroke-width:2.0px;stroke-linecap:butt;stroke-linejoin:miter;stroke-opacity:1"/>
<path class="bond-19 atom-10 atom-22" d="M 330.998,332.058 L 314.196,352.409" style="fill:none;fill-rule:evenodd;stroke:#000000;stroke-width:2.0px;stroke-linecap:butt;stroke-linejoin:miter;stroke-opacity:1"/>
<path class="bond-20 atom-11 atom-13" d="M 354.969,250.644 L 372.625,253.612" style="fill:none;fill-rule:evenodd;stroke:#000000;stroke-width:2.0px;stroke-linecap:butt;stroke-linejoin:miter;stroke-opacity:1"/>
<path class="bond-20 atom-11 atom-13" d="M 356.162,259.74 L 368.522,261.818" style="fill:none;fill-rule:evenodd;stroke:#000000;stroke-width:2.0px;stroke-linecap:butt;stroke-linejoin:miter;stroke-opacity:1"/>
<path class="bond-21 atom-11 atom-23" d="M 347.922,242.377 L 341.201,214.283" style="fill:none;fill-rule:evenodd;stroke:#000000;stroke-width:2.0px;stroke-linecap:butt;stroke-linejoin:miter;stroke-opacity:1"/>
<path class="bond-22 atom-12 atom-14" d="M 386.439,324.575 L 402.381,305.266" style="fill:none;fill-rule:evenodd;stroke:#000000;stroke-width:2.0px;stroke-linecap:butt;stroke-linejoin:miter;stroke-opacity:1"/>
<path class="bond-22 atom-12 atom-14" d="M 382.065,316.093 L 393.225,302.577" style="fill:none;fill-rule:evenodd;stroke:#000000;stroke-width:2.0px;stroke-linecap:butt;stroke-linejoin:miter;stroke-opacity:1"/>
<path class="bond-23 atom-12 atom-24" d="M 383.165,339.507 L 393.053,366.016" style="fill:none;fill-rule:evenodd;stroke:#000000;stroke-width:2.0px;stroke-linecap:butt;stroke-linejoin:miter;stroke-opacity:1"/>
<path class="bond-24 atom-13 atom-14" d="M 395.697,264.407 L 405.623,291.016" style="fill:none;fill-rule:evenodd;stroke:#000000;stroke-width:2.0px;stroke-linecap:butt;stroke-linejoin:miter;stroke-opacity:1"/>
<path class="bond-25 atom-13 atom-25" d="M 398.921,249.791 L 415.15,230.134" style="fill:none;fill-rule:evenodd;stroke:#000000;stroke-width:2.0px;stroke-linecap:butt;stroke-linejoin:miter;stroke-opacity:1"/>
<path class="bond-26 atom-14 atom-26" d="M 420.68,300.213 L 445.89,304.452" style="fill:none;fill-rule:evenodd;stroke:#000000;stroke-width:2.0px;stroke-linecap:butt;stroke-linejoin:miter;stroke-opacity:1"/>
<path class="bond-27 atom-15 atom-17" d="M 159.124,333.279 L 148.464,331.487" style="fill:none;fill-rule:evenodd;stroke:#000000;stroke-width:2.0px;stroke-linecap:butt;stroke-linejoin:miter;stroke-opacity:1"/>
<path class="bond-28 atom-15 atom-27" d="M 182.194,344.205 L 192.095,370.748" style="fill:none;fill-rule:evenodd;stroke:#000000;stroke-width:2.0px;stroke-linecap:butt;stroke-linejoin:miter;stroke-opacity:1"/>
<path class="bond-29 atom-16 atom-18" d="M 186.1,260.772 L 161.235,256.592" style="fill:none;fill-rule:evenodd;stroke:#000000;stroke-width:2.0px;stroke-linecap:butt;stroke-linejoin:miter;stroke-opacity:1"/>
<path class="bond-29 atom-16 atom-18" d="M 180.916,268.797 L 163.51,265.87" style="fill:none;fill-rule:evenodd;stroke:#000000;stroke-width:2.0px;stroke-linecap:butt;stroke-linejoin:miter;stroke-opacity:1"/>
<path class="bond-30 atom-16 atom-28" d="M 195.267,254.898 L 198.849,247.403" style="fill:none;fill-rule:evenodd;stroke:#000000;stroke-width:2.0px;stroke-linecap:butt;stroke-linejoin:miter;stroke-opacity:1"/>
<path class="bond-31 atom-17 atom-19" d="M 133.406,322.105 L 123.533,295.638" style="fill:none;fill-rule:evenodd;stroke:#000000;stroke-width:2.0px;stroke-linecap:butt;stroke-linejoin:miter;stroke-opacity:1"/>
<path class="bond-31 atom-17 atom-19" d="M 140.145,315.069 L 133.234,296.542" style="fill:none;fill-rule:evenodd;stroke:#000000;stroke-width:2.0px;stroke-linecap:butt;stroke-linejoin:miter;stroke-opacity:1"/>
<path class="bond-32 atom-17 atom-29" d="M 130.04,336.791 L 113.606,356.696" style="fill:none;fill-rule:evenodd;stroke:#000000;stroke-width:2.0px;stroke-linecap:butt;stroke-linejoin:miter;stroke-opacity:1"/>
<path class="bond-33 atom-18 atom-19" d="M 142.638,261.867 L 126.696,281.176" style="fill:none;fill-rule:evenodd;stroke:#000000;stroke-width:2.0px;stroke-linecap:butt;stroke-linejoin:miter;stroke-opacity:1"/>
<path class="bond-34 atom-18 atom-30" d="M 146.003,247.181 L 136.078,220.573" style="fill:none;fill-rule:evenodd;stroke:#000000;stroke-width:2.0px;stroke-linecap:butt;stroke-linejoin:miter;stroke-opacity:1"/>
<path class="bond-35 atom-31 atom-19" d="M 90.3744,283.199 L 95.2965,284.026" style="fill:none;fill-rule:evenodd;stroke:#0000FF;stroke-width:2.0px;stroke-linecap:butt;stroke-linejoin:miter;stroke-opacity:1"/>
<path class="bond-35 atom-31 atom-19" d="M 95.2965,284.026 L 100.219,284.854" style="fill:none;fill-rule:evenodd;stroke:#000000;stroke-width:2.0px;stroke-linecap:butt;stroke-linejoin:miter;stroke-opacity:1"/>
<path class="bond-36 atom-31 atom-34" d="M 71.3075,288.595 L 62.989,298.67" style="fill:none;fill-rule:evenodd;stroke:#0000FF;stroke-width:2.0px;stroke-linecap:butt;stroke-linejoin:miter;stroke-opacity:1"/>
<path class="bond-36 atom-31 atom-34" d="M 62.989,298.67 L 54.6704,308.746" style="fill:none;fill-rule:evenodd;stroke:#000000;stroke-width:2.0px;stroke-linecap:butt;stroke-linejoin:miter;stroke-opacity:1"/>
<path class="bond-37 atom-31 atom-35" d="M 74.7919,273.663 L 69.8683,260.464" style="fill:none;fill-rule:evenodd;stroke:#0000FF;stroke-width:2.0px;stroke-linecap:butt;stroke-linejoin:miter;stroke-opacity:1"/>
<path class="bond-37 atom-31 atom-35" d="M 69.8683,260.464 L 64.9448,247.264" style="fill:none;fill-rule:evenodd;stroke:#000000;stroke-width:2.0px;stroke-linecap:butt;stroke-linejoin:miter;stroke-opacity:1"/>
<path class="atom-0" d="M 258.382 235.262 Q 258.382 232.174, 259.821 230.56 Q 261.277 228.928, 264.032 228.928 Q 266.593 228.928, 267.962 230.735 L 266.804 231.683 Q 265.804 230.367, 264.032 230.367 Q 262.154 230.367, 261.154 231.63 Q 260.172 232.876, 260.172 235.262 Q 260.172 237.718, 261.189 238.982 Q 262.225 240.245, 264.225 240.245 Q 265.593 240.245, 267.19 239.42 L 267.681 240.736 Q 267.032 241.157, 266.05 241.403 Q 265.067 241.649, 263.979 241.649 Q 261.277 241.649, 259.821 239.999 Q 258.382 238.35, 258.382 235.262 " fill="#000000"/>
<path class="atom-0" d="M 269.278 239.438 L 271.033 239.438 L 271.033 241.193 L 269.278 241.193 L 269.278 239.438 M 269.278 233.402 L 271.033 233.402 L 271.033 235.157 L 269.278 235.157 L 269.278 233.402 " fill="#000000"/>
<path class="atom-0" d="M 272.664 240.087 L 275.384 240.087 L 275.384 230.805 L 272.384 231.735 L 271.98 230.7 L 275.788 228.998 L 277.033 229.209 L 277.033 240.087 L 279.472 240.087 L 279.472 241.491 L 272.664 241.491 L 272.664 240.087 " fill="#000000"/>
<path class="atom-1" d="M 263.821 276.361 Q 263.821 273.273, 265.259 271.658 Q 266.716 270.027, 269.47 270.027 Q 272.032 270.027, 273.401 271.834 L 272.243 272.781 Q 271.243 271.465, 269.47 271.465 Q 267.593 271.465, 266.593 272.729 Q 265.61 273.975, 265.61 276.361 Q 265.61 278.817, 266.628 280.081 Q 267.663 281.344, 269.663 281.344 Q 271.032 281.344, 272.629 280.519 L 273.12 281.835 Q 272.471 282.256, 271.488 282.502 Q 270.506 282.748, 269.418 282.748 Q 266.716 282.748, 265.259 281.098 Q 263.821 279.449, 263.821 276.361 " fill="#000000"/>
<path class="atom-1" d="M 274.717 280.537 L 276.471 280.537 L 276.471 282.291 L 274.717 282.291 L 274.717 280.537 M 274.717 274.501 L 276.471 274.501 L 276.471 276.256 L 274.717 276.256 L 274.717 274.501 " fill="#000000"/>
<path class="atom-1" d="M 277.384 272.518 Q 277.84 271.343, 278.928 270.693 Q 280.015 270.027, 281.524 270.027 Q 283.402 270.027, 284.455 271.044 Q 285.507 272.062, 285.507 273.869 Q 285.507 275.712, 284.139 277.431 Q 282.788 279.151, 279.98 281.186 L 285.718 281.186 L 285.718 282.59 L 277.348 282.59 L 277.348 281.414 Q 279.665 279.765, 281.033 278.536 Q 282.419 277.308, 283.086 276.203 Q 283.753 275.097, 283.753 273.957 Q 283.753 272.764, 283.156 272.097 Q 282.56 271.43, 281.524 271.43 Q 280.524 271.43, 279.858 271.834 Q 279.191 272.237, 278.717 273.132 L 277.384 272.518 " fill="#000000"/>
<path class="atom-2" d="M 238.154 303.993 L 242.224 310.572 Q 242.628 311.222, 243.277 312.397 Q 243.926 313.573, 243.961 313.643 L 243.961 303.993 L 245.611 303.993 L 245.611 316.415 L 243.909 316.415 L 239.54 309.221 Q 239.031 308.379, 238.487 307.414 Q 237.961 306.449, 237.803 306.151 L 237.803 316.415 L 236.188 316.415 L 236.188 303.993 L 238.154 303.993 " fill="#0000FF"/>
<path class="atom-2" d="M 246.927 314.362 L 248.681 314.362 L 248.681 316.117 L 246.927 316.117 L 246.927 314.362 M 246.927 308.327 L 248.681 308.327 L 248.681 310.081 L 246.927 310.081 L 246.927 308.327 " fill="#0000FF"/>
<path class="atom-2" d="M 255.384 309.871 Q 256.594 310.222, 257.173 311.011 Q 257.77 311.783, 257.77 313.011 Q 257.77 314.064, 257.244 314.889 Q 256.717 315.696, 255.752 316.152 Q 254.787 316.591, 253.524 316.591 Q 252.19 316.591, 251.19 316.135 Q 250.208 315.661, 249.418 314.713 L 250.418 313.696 Q 251.19 314.538, 251.839 314.871 Q 252.489 315.187, 253.524 315.187 Q 254.647 315.187, 255.331 314.591 Q 256.015 313.976, 256.015 312.994 Q 256.015 311.731, 255.296 311.169 Q 254.594 310.59, 253.068 310.59 L 252.173 310.59 L 252.173 309.327 L 252.962 309.327 Q 254.313 309.309, 255.033 308.73 Q 255.752 308.134, 255.752 307.028 Q 255.752 306.221, 255.156 305.747 Q 254.559 305.256, 253.541 305.256 Q 252.506 305.256, 251.857 305.625 Q 251.225 305.993, 250.734 306.923 L 249.523 306.274 Q 249.962 305.239, 251.015 304.554 Q 252.067 303.852, 253.541 303.852 Q 255.366 303.852, 256.436 304.712 Q 257.507 305.572, 257.507 307.028 Q 257.507 308.028, 256.963 308.748 Q 256.419 309.467, 255.384 309.871 " fill="#0000FF"/>
<path class="atom-3" d="M 192.255 302.913 Q 192.255 299.825, 193.694 298.211 Q 195.15 296.579, 197.905 296.579 Q 200.467 296.579, 201.835 298.387 L 200.677 299.334 Q 199.677 298.018, 197.905 298.018 Q 196.028 298.018, 195.027 299.281 Q 194.045 300.527, 194.045 302.913 Q 194.045 305.37, 195.063 306.633 Q 196.098 307.896, 198.098 307.896 Q 199.467 307.896, 201.063 307.072 L 201.555 308.388 Q 200.905 308.809, 199.923 309.054 Q 198.94 309.3, 197.852 309.3 Q 195.15 309.3, 193.694 307.651 Q 192.255 306.001, 192.255 302.913 " fill="#000000"/>
<path class="atom-3" d="M 203.151 307.089 L 204.906 307.089 L 204.906 308.844 L 203.151 308.844 L 203.151 307.089 M 203.151 301.054 L 204.906 301.054 L 204.906 302.808 L 203.151 302.808 L 203.151 301.054 " fill="#000000"/>
<path class="atom-3" d="M 213.503 304.879 L 214.995 304.879 L 214.995 306.282 L 213.503 306.282 L 213.503 309.142 L 211.854 309.142 L 211.854 306.282 L 205.432 306.282 L 205.432 305.177 L 210.871 296.72 L 213.503 296.72 L 213.503 304.879 M 207.468 304.879 L 211.854 304.879 L 211.854 297.843 L 207.468 304.879 " fill="#000000"/>
<path class="atom-4" d="M 261.045 345.021 L 262.729 345.021 L 262.729 350.303 L 269.081 350.303 L 269.081 345.021 L 270.765 345.021 L 270.765 357.444 L 269.081 357.444 L 269.081 351.706 L 262.729 351.706 L 262.729 357.444 L 261.045 357.444 L 261.045 345.021 " fill="#000000"/>
<path class="atom-4" d="M 272.081 355.391 L 273.836 355.391 L 273.836 357.146 L 272.081 357.146 L 272.081 355.391 M 272.081 349.355 L 273.836 349.355 L 273.836 351.11 L 272.081 351.11 L 272.081 349.355 " fill="#000000"/>
<path class="atom-4" d="M 279.152 349.671 Q 280.24 349.671, 281.135 350.145 Q 282.03 350.601, 282.538 351.478 Q 283.047 352.338, 283.047 353.514 Q 283.047 354.794, 282.416 355.724 Q 281.801 356.637, 280.784 357.111 Q 279.766 357.584, 278.608 357.584 Q 277.468 357.584, 276.415 357.163 Q 275.362 356.742, 274.643 355.935 L 275.695 354.847 Q 276.274 355.479, 277.064 355.83 Q 277.854 356.163, 278.661 356.163 Q 279.766 356.163, 280.521 355.479 Q 281.293 354.794, 281.293 353.549 Q 281.293 352.233, 280.521 351.619 Q 279.766 350.987, 278.555 350.987 Q 277.468 350.987, 276.257 351.461 L 275.292 351.005 L 275.888 345.021 L 282.275 345.021 L 282.1 346.425 L 277.327 346.425 L 276.959 350.11 Q 278.064 349.671, 279.152 349.671 " fill="#000000"/>
<path class="atom-5" d="M 306.871 283.634 Q 306.871 280.546, 308.309 278.932 Q 309.766 277.3, 312.52 277.3 Q 315.082 277.3, 316.451 279.107 L 315.293 280.055 Q 314.293 278.739, 312.52 278.739 Q 310.643 278.739, 309.643 280.002 Q 308.66 281.248, 308.66 283.634 Q 308.66 286.09, 309.678 287.354 Q 310.713 288.617, 312.713 288.617 Q 314.082 288.617, 315.679 287.792 L 316.17 289.108 Q 315.521 289.529, 314.538 289.775 Q 313.556 290.021, 312.468 290.021 Q 309.766 290.021, 308.309 288.371 Q 306.871 286.722, 306.871 283.634 " fill="#000000"/>
<path class="atom-5" d="M 317.767 287.81 L 319.521 287.81 L 319.521 289.564 L 317.767 289.564 L 317.767 287.81 M 317.767 281.774 L 319.521 281.774 L 319.521 283.529 L 317.767 283.529 L 317.767 281.774 " fill="#000000"/>
<path class="atom-5" d="M 325.575 282.107 Q 326.662 282.107, 327.522 282.581 Q 328.382 283.055, 328.856 283.915 Q 329.329 284.774, 329.329 285.862 Q 329.329 287.073, 328.786 288.02 Q 328.259 288.95, 327.312 289.477 Q 326.364 290.003, 325.153 290.003 Q 322.943 290.003, 321.82 288.512 Q 320.714 287.003, 320.714 284.02 Q 320.714 280.721, 322.083 279.019 Q 323.469 277.3, 326.119 277.3 Q 326.891 277.3, 327.54 277.475 Q 328.206 277.651, 328.838 278.019 L 328.154 279.195 Q 327.241 278.703, 326.136 278.703 Q 324.381 278.703, 323.487 279.844 Q 322.592 280.967, 322.487 283.301 Q 323.118 282.721, 323.908 282.423 Q 324.715 282.107, 325.575 282.107 M 325.171 288.564 Q 325.838 288.564, 326.382 288.213 Q 326.943 287.862, 327.259 287.248 Q 327.575 286.634, 327.575 285.88 Q 327.575 284.774, 326.961 284.143 Q 326.347 283.511, 325.259 283.511 Q 324.504 283.511, 323.75 283.827 Q 323.013 284.125, 322.487 284.652 Q 322.557 286.704, 323.206 287.634 Q 323.855 288.564, 325.171 288.564 " fill="#000000"/>
<path class="atom-6" d="M 282.621 198.702 Q 282.621 195.614, 284.059 194 Q 285.516 192.368, 288.271 192.368 Q 290.832 192.368, 292.201 194.176 L 291.043 195.123 Q 290.043 193.807, 288.271 193.807 Q 286.393 193.807, 285.393 195.07 Q 284.41 196.316, 284.41 198.702 Q 284.41 201.159, 285.428 202.422 Q 286.463 203.685, 288.464 203.685 Q 289.832 203.685, 291.429 202.861 L 291.92 204.177 Q 291.271 204.598, 290.288 204.843 Q 289.306 205.089, 288.218 205.089 Q 285.516 205.089, 284.059 203.44 Q 282.621 201.79, 282.621 198.702 " fill="#000000"/>
<path class="atom-6" d="M 293.517 202.878 L 295.271 202.878 L 295.271 204.633 L 293.517 204.633 L 293.517 202.878 M 293.517 196.843 L 295.271 196.843 L 295.271 198.597 L 293.517 198.597 L 293.517 196.843 " fill="#000000"/>
<path class="atom-6" d="M 302.097 193.912 L 295.587 193.912 L 295.587 192.509 L 303.834 192.509 L 303.834 193.754 L 298.816 204.931 L 297.131 204.931 L 302.097 193.912 " fill="#000000"/>
<path class="atom-7" d="M 203.03 173.489 L 207.101 180.069 Q 207.504 180.718, 208.153 181.893 Q 208.803 183.069, 208.838 183.139 L 208.838 173.489 L 210.487 173.489 L 210.487 185.911 L 208.785 185.911 L 204.416 178.718 Q 203.907 177.875, 203.363 176.91 Q 202.837 175.945, 202.679 175.647 L 202.679 185.911 L 201.065 185.911 L 201.065 173.489 L 203.03 173.489 " fill="#0000FF"/>
<path class="atom-7" d="M 211.803 183.858 L 213.558 183.858 L 213.558 185.613 L 211.803 185.613 L 211.803 183.858 M 211.803 177.823 L 213.558 177.823 L 213.558 179.577 L 211.803 179.577 L 211.803 177.823 " fill="#0000FF"/>
<path class="atom-7" d="M 220.98 179.332 Q 222.12 179.823, 222.769 180.56 Q 223.418 181.279, 223.418 182.507 Q 223.418 183.56, 222.874 184.385 Q 222.331 185.192, 221.348 185.648 Q 220.383 186.087, 219.102 186.087 Q 217.032 186.087, 215.839 185.139 Q 214.645 184.174, 214.645 182.507 Q 214.645 181.49, 215.172 180.735 Q 215.698 179.963, 216.786 179.384 Q 215.979 178.928, 215.54 178.261 Q 215.102 177.577, 215.102 176.524 Q 215.102 175.068, 216.154 174.208 Q 217.225 173.348, 219.032 173.348 Q 220.839 173.348, 221.892 174.208 Q 222.962 175.068, 222.962 176.524 Q 222.962 177.437, 222.453 178.121 Q 221.962 178.788, 220.98 179.332 M 219.032 174.664 Q 217.997 174.664, 217.418 175.156 Q 216.856 175.647, 216.856 176.524 Q 216.856 177.173, 217.242 177.612 Q 217.628 178.033, 218.172 178.279 Q 218.734 178.525, 219.804 178.893 Q 220.558 178.367, 220.874 177.805 Q 221.208 177.244, 221.208 176.524 Q 221.208 175.647, 220.629 175.156 Q 220.067 174.664, 219.032 174.664 M 219.102 184.771 Q 220.26 184.771, 220.962 184.157 Q 221.664 183.525, 221.664 182.49 Q 221.664 181.823, 221.295 181.402 Q 220.927 180.981, 220.365 180.735 Q 219.821 180.49, 218.839 180.174 L 218.049 179.911 Q 217.172 180.437, 216.786 181.069 Q 216.4 181.683, 216.4 182.49 Q 216.4 183.525, 217.137 184.157 Q 217.874 184.771, 219.102 184.771 " fill="#0000FF"/>
<path class="atom-8" d="M 202.988 223.507 Q 202.988 220.419, 204.427 218.805 Q 205.883 217.173, 208.638 217.173 Q 211.2 217.173, 212.568 218.98 L 211.41 219.928 Q 210.41 218.612, 208.638 218.612 Q 206.761 218.612, 205.761 219.875 Q 204.778 221.121, 204.778 223.507 Q 204.778 225.964, 205.796 227.227 Q 206.831 228.49, 208.831 228.49 Q 210.2 228.49, 211.796 227.665 L 212.288 228.981 Q 211.638 229.403, 210.656 229.648 Q 209.673 229.894, 208.586 229.894 Q 205.883 229.894, 204.427 228.244 Q 202.988 226.595, 202.988 223.507 " fill="#000000"/>
<path class="atom-8" d="M 213.884 227.683 L 215.639 227.683 L 215.639 229.438 L 213.884 229.438 L 213.884 227.683 M 213.884 221.647 L 215.639 221.647 L 215.639 223.402 L 213.884 223.402 L 213.884 221.647 " fill="#000000"/>
<path class="atom-8" d="M 220.78 217.173 Q 222.991 217.173, 224.096 218.682 Q 225.219 220.173, 225.219 223.156 Q 225.219 226.455, 223.833 228.174 Q 222.464 229.876, 219.815 229.876 Q 219.043 229.876, 218.376 229.701 Q 217.727 229.525, 217.095 229.157 L 217.78 227.981 Q 218.692 228.473, 219.797 228.473 Q 221.552 228.473, 222.447 227.35 Q 223.342 226.209, 223.447 223.876 Q 222.815 224.455, 222.008 224.77 Q 221.219 225.069, 220.359 225.069 Q 219.271 225.069, 218.411 224.595 Q 217.551 224.121, 217.078 223.261 Q 216.604 222.402, 216.604 221.314 Q 216.604 220.103, 217.13 219.173 Q 217.674 218.226, 218.622 217.699 Q 219.569 217.173, 220.78 217.173 M 218.359 221.296 Q 218.359 222.402, 218.973 223.033 Q 219.587 223.665, 220.675 223.665 Q 221.429 223.665, 222.166 223.367 Q 222.921 223.051, 223.447 222.525 Q 223.377 220.472, 222.728 219.542 Q 222.078 218.612, 220.762 218.612 Q 220.096 218.612, 219.534 218.963 Q 218.99 219.314, 218.674 219.928 Q 218.359 220.542, 218.359 221.296 " fill="#000000"/>
<path class="atom-9" d="M 240.815 164.352 Q 240.815 161.264, 242.254 159.65 Q 243.71 158.018, 246.465 158.018 Q 249.026 158.018, 250.395 159.826 L 249.237 160.773 Q 248.237 159.457, 246.465 159.457 Q 244.587 159.457, 243.587 160.72 Q 242.604 161.966, 242.604 164.352 Q 242.604 166.809, 243.622 168.072 Q 244.657 169.335, 246.658 169.335 Q 248.026 169.335, 249.623 168.511 L 250.114 169.827 Q 249.465 170.248, 248.482 170.493 Q 247.5 170.739, 246.412 170.739 Q 243.71 170.739, 242.254 169.09 Q 240.815 167.44, 240.815 164.352 " fill="#000000"/>
<path class="atom-9" d="M 251.711 168.528 L 253.465 168.528 L 253.465 170.283 L 251.711 170.283 L 251.711 168.528 M 251.711 162.493 L 253.465 162.493 L 253.465 164.247 L 251.711 164.247 L 251.711 162.493 " fill="#000000"/>
<path class="atom-9" d="M 255.097 169.178 L 257.817 169.178 L 257.817 159.896 L 254.816 160.826 L 254.413 159.79 L 258.22 158.088 L 259.466 158.299 L 259.466 169.178 L 261.905 169.178 L 261.905 170.581 L 255.097 170.581 L 255.097 169.178 " fill="#000000"/>
<path class="atom-9" d="M 267.52 170.722 Q 265.239 170.722, 264.098 169.037 Q 262.975 167.353, 262.975 164.352 Q 262.975 161.352, 264.098 159.685 Q 265.221 158.018, 267.52 158.018 Q 269.818 158.018, 270.941 159.685 Q 272.064 161.352, 272.064 164.352 Q 272.064 167.353, 270.924 169.037 Q 269.801 170.722, 267.52 170.722 M 267.52 169.318 Q 268.871 169.318, 269.59 168.072 Q 270.31 166.809, 270.31 164.352 Q 270.31 161.914, 269.59 160.668 Q 268.871 159.422, 267.52 159.422 Q 266.186 159.422, 265.449 160.668 Q 264.73 161.914, 264.73 164.352 Q 264.73 166.809, 265.449 168.072 Q 266.186 169.318, 267.52 169.318 " fill="#000000"/>
<path class="atom-10" d="M 318.404 324.733 Q 318.404 321.645, 319.842 320.03 Q 321.299 318.399, 324.053 318.399 Q 326.615 318.399, 327.984 320.206 L 326.826 321.153 Q 325.825 319.837, 324.053 319.837 Q 322.176 319.837, 321.176 321.101 Q 320.193 322.346, 320.193 324.733 Q 320.193 327.189, 321.211 328.452 Q 322.246 329.716, 324.246 329.716 Q 325.615 329.716, 327.212 328.891 L 327.703 330.207 Q 327.054 330.628, 326.071 330.874 Q 325.089 331.119, 324.001 331.119 Q 321.299 331.119, 319.842 329.47 Q 318.404 327.821, 318.404 324.733 " fill="#000000"/>
<path class="atom-10" d="M 329.3 328.909 L 331.054 328.909 L 331.054 330.663 L 329.3 330.663 L 329.3 328.909 M 329.3 322.873 L 331.054 322.873 L 331.054 324.627 L 329.3 324.627 L 329.3 322.873 " fill="#000000"/>
<path class="atom-10" d="M 332.686 329.558 L 335.406 329.558 L 335.406 320.276 L 332.405 321.206 L 332.002 320.171 L 335.809 318.469 L 337.055 318.679 L 337.055 329.558 L 339.494 329.558 L 339.494 330.961 L 332.686 330.961 L 332.686 329.558 " fill="#000000"/>
<path class="atom-10" d="M 341.126 329.558 L 343.845 329.558 L 343.845 320.276 L 340.845 321.206 L 340.441 320.171 L 344.249 318.469 L 345.494 318.679 L 345.494 329.558 L 347.933 329.558 L 347.933 330.961 L 341.126 330.961 L 341.126 329.558 " fill="#000000"/>
<path class="atom-11" d="M 323.535 249.808 Q 323.535 246.72, 324.974 245.106 Q 326.43 243.474, 329.185 243.474 Q 331.747 243.474, 333.115 245.281 L 331.957 246.229 Q 330.957 244.913, 329.185 244.913 Q 327.307 244.913, 326.307 246.176 Q 325.325 247.422, 325.325 249.808 Q 325.325 252.265, 326.342 253.528 Q 327.378 254.791, 329.378 254.791 Q 330.746 254.791, 332.343 253.967 L 332.834 255.283 Q 332.185 255.704, 331.203 255.949 Q 330.22 256.195, 329.132 256.195 Q 326.43 256.195, 324.974 254.546 Q 323.535 252.896, 323.535 249.808 " fill="#000000"/>
<path class="atom-11" d="M 334.431 253.984 L 336.186 253.984 L 336.186 255.739 L 334.431 255.739 L 334.431 253.984 M 334.431 247.948 L 336.186 247.948 L 336.186 249.703 L 334.431 249.703 L 334.431 247.948 " fill="#000000"/>
<path class="atom-11" d="M 337.818 254.633 L 340.537 254.633 L 340.537 245.352 L 337.537 246.281 L 337.133 245.246 L 340.941 243.544 L 342.186 243.755 L 342.186 254.633 L 344.625 254.633 L 344.625 256.037 L 337.818 256.037 L 337.818 254.633 " fill="#000000"/>
<path class="atom-11" d="M 345.538 245.966 Q 345.994 244.79, 347.082 244.141 Q 348.17 243.474, 349.679 243.474 Q 351.556 243.474, 352.609 244.492 Q 353.661 245.509, 353.661 247.317 Q 353.661 249.159, 352.293 250.878 Q 350.942 252.598, 348.135 254.633 L 353.872 254.633 L 353.872 256.037 L 345.503 256.037 L 345.503 254.861 Q 347.819 253.212, 349.187 251.984 Q 350.573 250.756, 351.24 249.65 Q 351.907 248.545, 351.907 247.404 Q 351.907 246.211, 351.31 245.545 Q 350.714 244.878, 349.679 244.878 Q 348.678 244.878, 348.012 245.281 Q 347.345 245.685, 346.871 246.58 L 345.538 245.966 " fill="#000000"/>
<path class="atom-12" d="M 361.391 332.006 Q 361.391 328.918, 362.83 327.303 Q 364.287 325.672, 367.041 325.672 Q 369.603 325.672, 370.972 327.479 L 369.814 328.426 Q 368.813 327.11, 367.041 327.11 Q 365.164 327.11, 364.164 328.374 Q 363.181 329.62, 363.181 332.006 Q 363.181 334.462, 364.199 335.725 Q 365.234 336.989, 367.234 336.989 Q 368.603 336.989, 370.2 336.164 L 370.691 337.48 Q 370.042 337.901, 369.059 338.147 Q 368.076 338.392, 366.989 338.392 Q 364.287 338.392, 362.83 336.743 Q 361.391 335.094, 361.391 332.006 " fill="#000000"/>
<path class="atom-12" d="M 372.287 336.182 L 374.042 336.182 L 374.042 337.936 L 372.287 337.936 L 372.287 336.182 M 372.287 330.146 L 374.042 330.146 L 374.042 331.9 L 372.287 331.9 L 372.287 330.146 " fill="#000000"/>
<path class="atom-12" d="M 375.674 336.831 L 378.393 336.831 L 378.393 327.549 L 375.393 328.479 L 374.99 327.444 L 378.797 325.742 L 380.043 325.952 L 380.043 336.831 L 382.482 336.831 L 382.482 338.235 L 375.674 338.235 L 375.674 336.831 " fill="#000000"/>
<path class="atom-12" d="M 389.184 331.69 Q 390.395 332.041, 390.974 332.83 Q 391.57 333.602, 391.57 334.831 Q 391.57 335.883, 391.044 336.708 Q 390.518 337.515, 389.553 337.971 Q 388.588 338.41, 387.324 338.41 Q 385.991 338.41, 384.991 337.954 Q 384.008 337.48, 383.219 336.533 L 384.219 335.515 Q 384.991 336.357, 385.64 336.691 Q 386.289 337.006, 387.324 337.006 Q 388.447 337.006, 389.132 336.41 Q 389.816 335.796, 389.816 334.813 Q 389.816 333.55, 389.096 332.988 Q 388.395 332.409, 386.868 332.409 L 385.973 332.409 L 385.973 331.146 L 386.763 331.146 Q 388.114 331.128, 388.833 330.549 Q 389.553 329.953, 389.553 328.847 Q 389.553 328.04, 388.956 327.567 Q 388.36 327.075, 387.342 327.075 Q 386.307 327.075, 385.657 327.444 Q 385.026 327.812, 384.535 328.742 L 383.324 328.093 Q 383.763 327.058, 384.815 326.374 Q 385.868 325.672, 387.342 325.672 Q 389.167 325.672, 390.237 326.531 Q 391.307 327.391, 391.307 328.847 Q 391.307 329.848, 390.763 330.567 Q 390.219 331.286, 389.184 331.69 " fill="#000000"/>
<path class="atom-13" d="M 373.587 257.081 Q 373.587 253.993, 375.026 252.379 Q 376.483 250.747, 379.237 250.747 Q 381.799 250.747, 383.168 252.554 L 382.01 253.502 Q 381.009 252.186, 379.237 252.186 Q 377.36 252.186, 376.36 253.449 Q 375.377 254.695, 375.377 257.081 Q 375.377 259.538, 376.395 260.801 Q 377.43 262.064, 379.43 262.064 Q 380.799 262.064, 382.396 261.24 L 382.887 262.556 Q 382.238 262.977, 381.255 263.222 Q 380.272 263.468, 379.185 263.468 Q 376.483 263.468, 375.026 261.819 Q 373.587 260.169, 373.587 257.081 " fill="#000000"/>
<path class="atom-13" d="M 384.483 261.257 L 386.238 261.257 L 386.238 263.012 L 384.483 263.012 L 384.483 261.257 M 384.483 255.221 L 386.238 255.221 L 386.238 256.976 L 384.483 256.976 L 384.483 255.221 " fill="#000000"/>
<path class="atom-13" d="M 387.87 261.906 L 390.589 261.906 L 390.589 252.625 L 387.589 253.555 L 387.186 252.519 L 390.993 250.817 L 392.239 251.028 L 392.239 261.906 L 394.678 261.906 L 394.678 263.31 L 387.87 263.31 L 387.87 261.906 " fill="#000000"/>
<path class="atom-13" d="M 403.275 259.046 L 404.767 259.046 L 404.767 260.45 L 403.275 260.45 L 403.275 263.31 L 401.626 263.31 L 401.626 260.45 L 395.204 260.45 L 395.204 259.345 L 400.643 250.888 L 403.275 250.888 L 403.275 259.046 M 397.239 259.046 L 401.626 259.046 L 401.626 252.01 L 397.239 259.046 " fill="#000000"/>
<path class="atom-14" d="M 389.282 298.18 Q 389.282 295.092, 390.72 293.478 Q 392.177 291.846, 394.931 291.846 Q 397.493 291.846, 398.862 293.653 L 397.704 294.601 Q 396.704 293.285, 394.931 293.285 Q 393.054 293.285, 392.054 294.548 Q 391.071 295.794, 391.071 298.18 Q 391.071 300.636, 392.089 301.9 Q 393.124 303.163, 395.124 303.163 Q 396.493 303.163, 398.09 302.338 L 398.581 303.654 Q 397.932 304.075, 396.949 304.321 Q 395.967 304.567, 394.879 304.567 Q 392.177 304.567, 390.72 302.917 Q 389.282 301.268, 389.282 298.18 " fill="#000000"/>
<path class="atom-14" d="M 400.178 302.356 L 401.932 302.356 L 401.932 304.111 L 400.178 304.111 L 400.178 302.356 M 400.178 296.32 L 401.932 296.32 L 401.932 298.075 L 400.178 298.075 L 400.178 296.32 " fill="#000000"/>
<path class="atom-14" d="M 403.564 303.005 L 406.284 303.005 L 406.284 293.723 L 403.283 294.653 L 402.88 293.618 L 406.687 291.916 L 407.933 292.127 L 407.933 303.005 L 410.372 303.005 L 410.372 304.409 L 403.564 304.409 L 403.564 303.005 " fill="#000000"/>
<path class="atom-14" d="M 415.688 296.636 Q 416.776 296.636, 417.671 297.11 Q 418.566 297.566, 419.075 298.443 Q 419.584 299.303, 419.584 300.479 Q 419.584 301.759, 418.952 302.689 Q 418.338 303.602, 417.32 304.075 Q 416.302 304.549, 415.144 304.549 Q 414.004 304.549, 412.951 304.128 Q 411.898 303.707, 411.179 302.9 L 412.232 301.812 Q 412.811 302.444, 413.6 302.795 Q 414.39 303.128, 415.197 303.128 Q 416.302 303.128, 417.057 302.444 Q 417.829 301.759, 417.829 300.514 Q 417.829 299.198, 417.057 298.584 Q 416.302 297.952, 415.092 297.952 Q 414.004 297.952, 412.793 298.426 L 411.828 297.969 L 412.425 291.986 L 418.812 291.986 L 418.636 293.39 L 413.864 293.39 L 413.495 297.075 Q 414.6 296.636, 415.688 296.636 " fill="#000000"/>
<path class="atom-15" d="M 160.221 336.739 Q 160.221 333.651, 161.659 332.037 Q 163.116 330.405, 165.87 330.405 Q 168.432 330.405, 169.801 332.212 L 168.643 333.16 Q 167.642 331.844, 165.87 331.844 Q 163.993 331.844, 162.993 333.107 Q 162.01 334.353, 162.01 336.739 Q 162.01 339.196, 163.028 340.459 Q 164.063 341.722, 166.063 341.722 Q 167.432 341.722, 169.029 340.897 L 169.52 342.213 Q 168.871 342.635, 167.888 342.88 Q 166.906 343.126, 165.818 343.126 Q 163.116 343.126, 161.659 341.477 Q 160.221 339.827, 160.221 336.739 " fill="#000000"/>
<path class="atom-15" d="M 171.117 340.915 L 172.871 340.915 L 172.871 342.67 L 171.117 342.67 L 171.117 340.915 M 171.117 334.879 L 172.871 334.879 L 172.871 336.634 L 171.117 336.634 L 171.117 334.879 " fill="#000000"/>
<path class="atom-15" d="M 174.503 341.564 L 177.223 341.564 L 177.223 332.282 L 174.222 333.212 L 173.819 332.177 L 177.626 330.475 L 178.872 330.686 L 178.872 341.564 L 181.311 341.564 L 181.311 342.968 L 174.503 342.968 L 174.503 341.564 " fill="#000000"/>
<path class="atom-15" d="M 187.364 335.213 Q 188.452 335.213, 189.312 335.686 Q 190.171 336.16, 190.645 337.02 Q 191.119 337.88, 191.119 338.967 Q 191.119 340.178, 190.575 341.126 Q 190.049 342.056, 189.101 342.582 Q 188.154 343.108, 186.943 343.108 Q 184.732 343.108, 183.609 341.617 Q 182.504 340.108, 182.504 337.125 Q 182.504 333.826, 183.872 332.125 Q 185.259 330.405, 187.908 330.405 Q 188.68 330.405, 189.329 330.58 Q 189.996 330.756, 190.628 331.124 L 189.943 332.3 Q 189.031 331.809, 187.926 331.809 Q 186.171 331.809, 185.276 332.949 Q 184.381 334.072, 184.276 336.406 Q 184.908 335.827, 185.697 335.528 Q 186.504 335.213, 187.364 335.213 M 186.961 341.67 Q 187.627 341.67, 188.171 341.319 Q 188.733 340.968, 189.048 340.354 Q 189.364 339.739, 189.364 338.985 Q 189.364 337.88, 188.75 337.248 Q 188.136 336.616, 187.048 336.616 Q 186.294 336.616, 185.539 336.932 Q 184.802 337.23, 184.276 337.757 Q 184.346 339.81, 184.995 340.74 Q 185.645 341.67, 186.961 341.67 " fill="#000000"/>
<path class="atom-16" d="M 187.197 261.815 Q 187.197 258.727, 188.636 257.112 Q 190.092 255.481, 192.847 255.481 Q 195.408 255.481, 196.777 257.288 L 195.619 258.235 Q 194.619 256.919, 192.847 256.919 Q 190.969 256.919, 189.969 258.183 Q 188.986 259.428, 188.986 261.815 Q 188.986 264.271, 190.004 265.534 Q 191.039 266.798, 193.04 266.798 Q 194.408 266.798, 196.005 265.973 L 196.496 267.289 Q 195.847 267.71, 194.864 267.956 Q 193.882 268.201, 192.794 268.201 Q 190.092 268.201, 188.636 266.552 Q 187.197 264.903, 187.197 261.815 " fill="#000000"/>
<path class="atom-16" d="M 198.093 265.991 L 199.847 265.991 L 199.847 267.745 L 198.093 267.745 L 198.093 265.991 M 198.093 259.955 L 199.847 259.955 L 199.847 261.709 L 198.093 261.709 L 198.093 259.955 " fill="#000000"/>
<path class="atom-16" d="M 201.479 266.64 L 204.199 266.64 L 204.199 257.358 L 201.198 258.288 L 200.795 257.253 L 204.602 255.551 L 205.848 255.761 L 205.848 266.64 L 208.287 266.64 L 208.287 268.043 L 201.479 268.043 L 201.479 266.64 " fill="#000000"/>
<path class="atom-16" d="M 215.112 257.025 L 208.603 257.025 L 208.603 255.621 L 216.849 255.621 L 216.849 256.867 L 211.831 268.043 L 210.147 268.043 L 215.112 257.025 " fill="#000000"/>
<path class="atom-17" d="M 116.93 329.466 Q 116.93 326.378, 118.369 324.764 Q 119.825 323.132, 122.58 323.132 Q 125.141 323.132, 126.51 324.939 L 125.352 325.887 Q 124.352 324.571, 122.58 324.571 Q 120.702 324.571, 119.702 325.834 Q 118.72 327.08, 118.72 329.466 Q 118.72 331.922, 119.737 333.186 Q 120.772 334.449, 122.773 334.449 Q 124.141 334.449, 125.738 333.624 L 126.229 334.94 Q 125.58 335.361, 124.598 335.607 Q 123.615 335.853, 122.527 335.853 Q 119.825 335.853, 118.369 334.203 Q 116.93 332.554, 116.93 329.466 " fill="#000000"/>
<path class="atom-17" d="M 127.826 333.642 L 129.581 333.642 L 129.581 335.397 L 127.826 335.397 L 127.826 333.642 M 127.826 327.606 L 129.581 327.606 L 129.581 329.361 L 127.826 329.361 L 127.826 327.606 " fill="#000000"/>
<path class="atom-17" d="M 131.212 334.291 L 133.932 334.291 L 133.932 325.009 L 130.932 325.939 L 130.528 324.904 L 134.336 323.202 L 135.581 323.413 L 135.581 334.291 L 138.02 334.291 L 138.02 335.695 L 131.212 335.695 L 131.212 334.291 " fill="#000000"/>
<path class="atom-17" d="M 145.442 329.115 Q 146.583 329.606, 147.232 330.343 Q 147.881 331.063, 147.881 332.291 Q 147.881 333.344, 147.337 334.168 Q 146.793 334.975, 145.811 335.432 Q 144.846 335.87, 143.565 335.87 Q 141.494 335.87, 140.301 334.923 Q 139.108 333.958, 139.108 332.291 Q 139.108 331.273, 139.634 330.519 Q 140.161 329.747, 141.249 329.168 Q 140.441 328.712, 140.003 328.045 Q 139.564 327.361, 139.564 326.308 Q 139.564 324.851, 140.617 323.992 Q 141.687 323.132, 143.494 323.132 Q 145.302 323.132, 146.354 323.992 Q 147.425 324.851, 147.425 326.308 Q 147.425 327.22, 146.916 327.904 Q 146.425 328.571, 145.442 329.115 M 143.494 324.448 Q 142.459 324.448, 141.88 324.939 Q 141.319 325.43, 141.319 326.308 Q 141.319 326.957, 141.705 327.396 Q 142.091 327.817, 142.635 328.062 Q 143.196 328.308, 144.267 328.676 Q 145.021 328.15, 145.337 327.589 Q 145.67 327.027, 145.67 326.308 Q 145.67 325.43, 145.091 324.939 Q 144.53 324.448, 143.494 324.448 M 143.565 334.554 Q 144.723 334.554, 145.425 333.94 Q 146.126 333.309, 146.126 332.273 Q 146.126 331.607, 145.758 331.186 Q 145.389 330.764, 144.828 330.519 Q 144.284 330.273, 143.301 329.957 L 142.512 329.694 Q 141.635 330.22, 141.249 330.852 Q 140.863 331.466, 140.863 332.273 Q 140.863 333.309, 141.6 333.94 Q 142.336 334.554, 143.565 334.554 " fill="#000000"/>
<path class="atom-18" d="M 129.617 254.542 Q 129.617 251.453, 131.056 249.839 Q 132.512 248.207, 135.267 248.207 Q 137.829 248.207, 139.197 250.015 L 138.039 250.962 Q 137.039 249.646, 135.267 249.646 Q 133.39 249.646, 132.389 250.91 Q 131.407 252.155, 131.407 254.542 Q 131.407 256.998, 132.425 258.261 Q 133.46 259.525, 135.46 259.525 Q 136.829 259.525, 138.425 258.7 L 138.917 260.016 Q 138.267 260.437, 137.285 260.683 Q 136.302 260.928, 135.214 260.928 Q 132.512 260.928, 131.056 259.279 Q 129.617 257.63, 129.617 254.542 " fill="#000000"/>
<path class="atom-18" d="M 140.513 258.717 L 142.268 258.717 L 142.268 260.472 L 140.513 260.472 L 140.513 258.717 M 140.513 252.682 L 142.268 252.682 L 142.268 254.436 L 140.513 254.436 L 140.513 252.682 " fill="#000000"/>
<path class="atom-18" d="M 143.9 259.367 L 146.619 259.367 L 146.619 250.085 L 143.619 251.015 L 143.215 249.98 L 147.023 248.278 L 148.269 248.488 L 148.269 259.367 L 150.707 259.367 L 150.707 260.77 L 143.9 260.77 L 143.9 259.367 " fill="#000000"/>
<path class="atom-18" d="M 155.848 248.207 Q 158.059 248.207, 159.165 249.716 Q 160.288 251.208, 160.288 254.191 Q 160.288 257.489, 158.901 259.209 Q 157.533 260.911, 154.883 260.911 Q 154.111 260.911, 153.445 260.735 Q 152.795 260.56, 152.164 260.191 L 152.848 259.016 Q 153.76 259.507, 154.866 259.507 Q 156.62 259.507, 157.515 258.384 Q 158.41 257.244, 158.515 254.91 Q 157.884 255.489, 157.077 255.805 Q 156.287 256.103, 155.427 256.103 Q 154.339 256.103, 153.48 255.629 Q 152.62 255.156, 152.146 254.296 Q 151.672 253.436, 151.672 252.348 Q 151.672 251.138, 152.199 250.208 Q 152.743 249.26, 153.69 248.734 Q 154.638 248.207, 155.848 248.207 M 153.427 252.331 Q 153.427 253.436, 154.041 254.068 Q 154.655 254.699, 155.743 254.699 Q 156.498 254.699, 157.235 254.401 Q 157.989 254.085, 158.515 253.559 Q 158.445 251.506, 157.796 250.576 Q 157.147 249.646, 155.831 249.646 Q 155.164 249.646, 154.603 249.997 Q 154.059 250.348, 153.743 250.962 Q 153.427 251.576, 153.427 252.331 " fill="#000000"/>
<path class="atom-19" d="M 100.99 288.367 Q 100.99 285.279, 102.429 283.665 Q 103.885 282.033, 106.64 282.033 Q 109.202 282.033, 110.57 283.84 L 109.412 284.788 Q 108.412 283.472, 106.64 283.472 Q 104.762 283.472, 103.762 284.735 Q 102.78 285.981, 102.78 288.367 Q 102.78 290.824, 103.797 292.087 Q 104.833 293.35, 106.833 293.35 Q 108.201 293.35, 109.798 292.526 L 110.289 293.842 Q 109.64 294.263, 108.658 294.508 Q 107.675 294.754, 106.587 294.754 Q 103.885 294.754, 102.429 293.105 Q 100.99 291.455, 100.99 288.367 " fill="#000000"/>
<path class="atom-19" d="M 111.886 292.543 L 113.641 292.543 L 113.641 294.298 L 111.886 294.298 L 111.886 292.543 M 111.886 286.507 L 113.641 286.507 L 113.641 288.262 L 111.886 288.262 L 111.886 286.507 " fill="#000000"/>
<path class="atom-19" d="M 114.553 284.525 Q 115.009 283.349, 116.097 282.7 Q 117.185 282.033, 118.694 282.033 Q 120.571 282.033, 121.624 283.051 Q 122.677 284.068, 122.677 285.876 Q 122.677 287.718, 121.308 289.438 Q 119.957 291.157, 117.15 293.192 L 122.887 293.192 L 122.887 294.596 L 114.518 294.596 L 114.518 293.42 Q 116.834 291.771, 118.203 290.543 Q 119.589 289.315, 120.255 288.209 Q 120.922 287.104, 120.922 285.963 Q 120.922 284.77, 120.326 284.104 Q 119.729 283.437, 118.694 283.437 Q 117.694 283.437, 117.027 283.84 Q 116.36 284.244, 115.887 285.139 L 114.553 284.525 " fill="#000000"/>
<path class="atom-19" d="M 128.502 294.736 Q 126.221 294.736, 125.081 293.052 Q 123.958 291.368, 123.958 288.367 Q 123.958 285.367, 125.081 283.7 Q 126.204 282.033, 128.502 282.033 Q 130.801 282.033, 131.924 283.7 Q 133.046 285.367, 133.046 288.367 Q 133.046 291.368, 131.906 293.052 Q 130.783 294.736, 128.502 294.736 M 128.502 293.333 Q 129.853 293.333, 130.573 292.087 Q 131.292 290.824, 131.292 288.367 Q 131.292 285.928, 130.573 284.683 Q 129.853 283.437, 128.502 283.437 Q 127.169 283.437, 126.432 284.683 Q 125.712 285.928, 125.712 288.367 Q 125.712 290.824, 126.432 292.087 Q 127.169 293.333, 128.502 293.333 " fill="#000000"/>
<path class="atom-20" d="M 155.741 149.25 L 157.425 149.25 L 157.425 154.531 L 163.777 154.531 L 163.777 149.25 L 165.461 149.25 L 165.461 161.673 L 163.777 161.673 L 163.777 155.935 L 157.425 155.935 L 157.425 161.673 L 155.741 161.673 L 155.741 149.25 " fill="#000000"/>
<path class="atom-20" d="M 166.777 159.62 L 168.532 159.62 L 168.532 161.374 L 166.777 161.374 L 166.777 159.62 M 166.777 153.584 L 168.532 153.584 L 168.532 155.338 L 166.777 155.338 L 166.777 153.584 " fill="#000000"/>
<path class="atom-20" d="M 169.444 151.601 Q 169.901 150.426, 170.988 149.776 Q 172.076 149.11, 173.585 149.11 Q 175.463 149.11, 176.515 150.127 Q 177.568 151.145, 177.568 152.952 Q 177.568 154.795, 176.2 156.514 Q 174.849 158.234, 172.041 160.269 L 177.779 160.269 L 177.779 161.673 L 169.409 161.673 L 169.409 160.497 Q 171.725 158.848, 173.094 157.619 Q 174.48 156.391, 175.147 155.286 Q 175.814 154.18, 175.814 153.04 Q 175.814 151.847, 175.217 151.18 Q 174.62 150.513, 173.585 150.513 Q 172.585 150.513, 171.918 150.917 Q 171.252 151.32, 170.778 152.215 L 169.444 151.601 " fill="#000000"/>
<path class="atom-20" d="M 179.411 160.269 L 182.13 160.269 L 182.13 150.987 L 179.13 151.917 L 178.726 150.882 L 182.534 149.18 L 183.779 149.39 L 183.779 160.269 L 186.218 160.269 L 186.218 161.673 L 179.411 161.673 L 179.411 160.269 " fill="#000000"/>
<path class="atom-21" d="M 159.784 238.197 Q 159.784 235.214, 161.258 233.548 Q 162.732 231.881, 165.486 231.881 Q 168.241 231.881, 169.715 233.548 Q 171.189 235.214, 171.189 238.197 Q 171.189 241.215, 169.697 242.935 Q 168.206 244.637, 165.486 244.637 Q 162.749 244.637, 161.258 242.935 Q 159.784 241.233, 159.784 238.197 M 165.486 243.233 Q 167.381 243.233, 168.399 241.97 Q 169.434 240.689, 169.434 238.197 Q 169.434 235.758, 168.399 234.53 Q 167.381 233.284, 165.486 233.284 Q 163.591 233.284, 162.556 234.513 Q 161.538 235.741, 161.538 238.197 Q 161.538 240.706, 162.556 241.97 Q 163.591 243.233, 165.486 243.233 " fill="#FF0000"/>
<path class="atom-21" d="M 172.505 242.391 L 174.259 242.391 L 174.259 244.145 L 172.505 244.145 L 172.505 242.391 M 172.505 236.355 L 174.259 236.355 L 174.259 238.109 L 172.505 238.109 L 172.505 236.355 " fill="#FF0000"/>
<path class="atom-21" d="M 175.172 234.372 Q 175.628 233.197, 176.716 232.547 Q 177.804 231.881, 179.313 231.881 Q 181.19 231.881, 182.243 232.898 Q 183.295 233.916, 183.295 235.723 Q 183.295 237.566, 181.927 239.285 Q 180.576 241.005, 177.768 243.04 L 183.506 243.04 L 183.506 244.444 L 175.137 244.444 L 175.137 243.268 Q 177.453 241.619, 178.821 240.39 Q 180.207 239.162, 180.874 238.057 Q 181.541 236.951, 181.541 235.811 Q 181.541 234.618, 180.944 233.951 Q 180.348 233.284, 179.313 233.284 Q 178.312 233.284, 177.646 233.688 Q 176.979 234.091, 176.505 234.986 L 175.172 234.372 " fill="#FF0000"/>
<path class="atom-21" d="M 184.418 234.372 Q 184.875 233.197, 185.962 232.547 Q 187.05 231.881, 188.559 231.881 Q 190.437 231.881, 191.489 232.898 Q 192.542 233.916, 192.542 235.723 Q 192.542 237.566, 191.174 239.285 Q 189.823 241.005, 187.015 243.04 L 192.753 243.04 L 192.753 244.444 L 184.383 244.444 L 184.383 243.268 Q 186.699 241.619, 188.068 240.39 Q 189.454 239.162, 190.121 238.057 Q 190.788 236.951, 190.788 235.811 Q 190.788 234.618, 190.191 233.951 Q 189.594 233.284, 188.559 233.284 Q 187.559 233.284, 186.892 233.688 Q 186.226 234.091, 185.752 234.986 L 184.418 234.372 " fill="#FF0000"/>
<path class="atom-22" d="M 282.212 352.365 L 283.896 352.365 L 283.896 357.646 L 290.248 357.646 L 290.248 352.365 L 291.932 352.365 L 291.932 364.787 L 290.248 364.787 L 290.248 359.05 L 283.896 359.05 L 283.896 364.787 L 282.212 364.787 L 282.212 352.365 " fill="#000000"/>
<path class="atom-22" d="M 293.248 362.734 L 295.003 362.734 L 295.003 364.489 L 293.248 364.489 L 293.248 362.734 M 293.248 356.698 L 295.003 356.698 L 295.003 358.453 L 293.248 358.453 L 293.248 356.698 " fill="#000000"/>
<path class="atom-22" d="M 295.915 354.716 Q 296.371 353.54, 297.459 352.891 Q 298.547 352.224, 300.056 352.224 Q 301.934 352.224, 302.986 353.242 Q 304.039 354.26, 304.039 356.067 Q 304.039 357.909, 302.67 359.629 Q 301.319 361.348, 298.512 363.383 L 304.25 363.383 L 304.25 364.787 L 295.88 364.787 L 295.88 363.612 Q 298.196 361.962, 299.565 360.734 Q 300.951 359.506, 301.618 358.4 Q 302.284 357.295, 302.284 356.155 Q 302.284 354.961, 301.688 354.295 Q 301.091 353.628, 300.056 353.628 Q 299.056 353.628, 298.389 354.032 Q 297.723 354.435, 297.249 355.33 L 295.915 354.716 " fill="#000000"/>
<path class="atom-22" d="M 310.952 358.243 Q 312.163 358.593, 312.742 359.383 Q 313.338 360.155, 313.338 361.383 Q 313.338 362.436, 312.812 363.261 Q 312.286 364.068, 311.321 364.524 Q 310.356 364.963, 309.092 364.963 Q 307.759 364.963, 306.759 364.506 Q 305.776 364.033, 304.987 363.085 L 305.987 362.068 Q 306.759 362.91, 307.408 363.243 Q 308.057 363.559, 309.092 363.559 Q 310.215 363.559, 310.9 362.962 Q 311.584 362.348, 311.584 361.366 Q 311.584 360.102, 310.864 359.541 Q 310.163 358.962, 308.636 358.962 L 307.741 358.962 L 307.741 357.699 L 308.531 357.699 Q 309.882 357.681, 310.601 357.102 Q 311.321 356.505, 311.321 355.4 Q 311.321 354.593, 310.724 354.119 Q 310.127 353.628, 309.11 353.628 Q 308.075 353.628, 307.425 353.996 Q 306.794 354.365, 306.302 355.295 L 305.092 354.646 Q 305.53 353.61, 306.583 352.926 Q 307.636 352.224, 309.11 352.224 Q 310.935 352.224, 312.005 353.084 Q 313.075 353.944, 313.075 355.4 Q 313.075 356.4, 312.531 357.12 Q 311.987 357.839, 310.952 358.243 " fill="#000000"/>
<path class="atom-23" d="M 334.621 200.953 L 336.305 200.953 L 336.305 206.235 L 342.657 206.235 L 342.657 200.953 L 344.342 200.953 L 344.342 213.376 L 342.657 213.376 L 342.657 207.638 L 336.305 207.638 L 336.305 213.376 L 334.621 213.376 L 334.621 200.953 " fill="#000000"/>
<path class="atom-23" d="M 345.657 211.323 L 347.412 211.323 L 347.412 213.078 L 345.657 213.078 L 345.657 211.323 M 345.657 205.287 L 347.412 205.287 L 347.412 207.042 L 345.657 207.042 L 345.657 205.287 " fill="#000000"/>
<path class="atom-23" d="M 348.324 203.305 Q 348.781 202.129, 349.868 201.48 Q 350.956 200.813, 352.465 200.813 Q 354.343 200.813, 355.395 201.831 Q 356.448 202.848, 356.448 204.656 Q 356.448 206.498, 355.08 208.217 Q 353.729 209.937, 350.921 211.972 L 356.659 211.972 L 356.659 213.376 L 348.289 213.376 L 348.289 212.2 Q 350.605 210.551, 351.974 209.323 Q 353.36 208.095, 354.027 206.989 Q 354.694 205.884, 354.694 204.743 Q 354.694 203.55, 354.097 202.884 Q 353.5 202.217, 352.465 202.217 Q 351.465 202.217, 350.798 202.62 Q 350.132 203.024, 349.658 203.919 L 348.324 203.305 " fill="#000000"/>
<path class="atom-23" d="M 365.256 209.112 L 366.748 209.112 L 366.748 210.516 L 365.256 210.516 L 365.256 213.376 L 363.607 213.376 L 363.607 210.516 L 357.185 210.516 L 357.185 209.411 L 362.624 200.953 L 365.256 200.953 L 365.256 209.112 M 359.22 209.112 L 363.607 209.112 L 363.607 202.076 L 359.22 209.112 " fill="#000000"/>
<path class="atom-24" d="M 390.818 366.911 L 392.502 366.911 L 392.502 372.192 L 398.854 372.192 L 398.854 366.911 L 400.538 366.911 L 400.538 379.333 L 398.854 379.333 L 398.854 373.596 L 392.502 373.596 L 392.502 379.333 L 390.818 379.333 L 390.818 366.911 " fill="#000000"/>
<path class="atom-24" d="M 401.854 377.28 L 403.609 377.28 L 403.609 379.035 L 401.854 379.035 L 401.854 377.28 M 401.854 371.245 L 403.609 371.245 L 403.609 372.999 L 401.854 372.999 L 401.854 371.245 " fill="#000000"/>
<path class="atom-24" d="M 404.521 369.262 Q 404.977 368.086, 406.065 367.437 Q 407.153 366.77, 408.662 366.77 Q 410.539 366.77, 411.592 367.788 Q 412.645 368.806, 412.645 370.613 Q 412.645 372.455, 411.276 374.175 Q 409.925 375.894, 407.118 377.93 L 412.855 377.93 L 412.855 379.333 L 404.486 379.333 L 404.486 378.158 Q 406.802 376.508, 408.171 375.28 Q 409.557 374.052, 410.223 372.947 Q 410.89 371.841, 410.89 370.701 Q 410.89 369.508, 410.294 368.841 Q 409.697 368.174, 408.662 368.174 Q 407.662 368.174, 406.995 368.578 Q 406.328 368.981, 405.854 369.876 L 404.521 369.262 " fill="#000000"/>
<path class="atom-24" d="M 418.172 371.56 Q 419.26 371.56, 420.154 372.034 Q 421.049 372.49, 421.558 373.368 Q 422.067 374.227, 422.067 375.403 Q 422.067 376.684, 421.435 377.614 Q 420.821 378.526, 419.803 379 Q 418.786 379.474, 417.628 379.474 Q 416.487 379.474, 415.435 379.053 Q 414.382 378.632, 413.662 377.824 L 414.715 376.737 Q 415.294 377.368, 416.084 377.719 Q 416.873 378.052, 417.68 378.052 Q 418.786 378.052, 419.54 377.368 Q 420.312 376.684, 420.312 375.438 Q 420.312 374.122, 419.54 373.508 Q 418.786 372.876, 417.575 372.876 Q 416.487 372.876, 415.277 373.35 L 414.312 372.894 L 414.908 366.911 L 421.295 366.911 L 421.119 368.314 L 416.347 368.314 L 415.978 371.999 Q 417.084 371.56, 418.172 371.56 " fill="#000000"/>
<path class="atom-25" d="M 416.012 217.062 L 417.697 217.062 L 417.697 222.343 L 424.048 222.343 L 424.048 217.062 L 425.733 217.062 L 425.733 229.484 L 424.048 229.484 L 424.048 223.747 L 417.697 223.747 L 417.697 229.484 L 416.012 229.484 L 416.012 217.062 " fill="#000000"/>
<path class="atom-25" d="M 427.049 227.431 L 428.803 227.431 L 428.803 229.186 L 427.049 229.186 L 427.049 227.431 M 427.049 221.396 L 428.803 221.396 L 428.803 223.15 L 427.049 223.15 L 427.049 221.396 " fill="#000000"/>
<path class="atom-25" d="M 429.716 219.413 Q 430.172 218.237, 431.26 217.588 Q 432.348 216.921, 433.857 216.921 Q 435.734 216.921, 436.787 217.939 Q 437.839 218.957, 437.839 220.764 Q 437.839 222.606, 436.471 224.326 Q 435.12 226.045, 432.312 228.081 L 438.05 228.081 L 438.05 229.484 L 429.681 229.484 L 429.681 228.309 Q 431.997 226.659, 433.365 225.431 Q 434.751 224.203, 435.418 223.098 Q 436.085 221.992, 436.085 220.852 Q 436.085 219.659, 435.488 218.992 Q 434.892 218.325, 433.857 218.325 Q 432.856 218.325, 432.19 218.729 Q 431.523 219.132, 431.049 220.027 L 429.716 219.413 " fill="#000000"/>
<path class="atom-25" d="M 444.103 221.729 Q 445.191 221.729, 446.051 222.203 Q 446.911 222.677, 447.384 223.536 Q 447.858 224.396, 447.858 225.484 Q 447.858 226.695, 447.314 227.642 Q 446.788 228.572, 445.84 229.098 Q 444.893 229.625, 443.682 229.625 Q 441.471 229.625, 440.349 228.133 Q 439.243 226.624, 439.243 223.642 Q 439.243 220.343, 440.612 218.641 Q 441.998 216.921, 444.647 216.921 Q 445.419 216.921, 446.068 217.097 Q 446.735 217.272, 447.367 217.641 L 446.683 218.816 Q 445.77 218.325, 444.665 218.325 Q 442.91 218.325, 442.015 219.466 Q 441.121 220.589, 441.015 222.922 Q 441.647 222.343, 442.436 222.045 Q 443.244 221.729, 444.103 221.729 M 443.7 228.186 Q 444.367 228.186, 444.91 227.835 Q 445.472 227.484, 445.788 226.87 Q 446.104 226.256, 446.104 225.501 Q 446.104 224.396, 445.489 223.764 Q 444.875 223.133, 443.788 223.133 Q 443.033 223.133, 442.279 223.449 Q 441.542 223.747, 441.015 224.273 Q 441.085 226.326, 441.735 227.256 Q 442.384 228.186, 443.7 228.186 " fill="#000000"/>
<path class="atom-26" d="M 446.673 299.259 L 448.357 299.259 L 448.357 304.541 L 454.709 304.541 L 454.709 299.259 L 456.393 299.259 L 456.393 311.682 L 454.709 311.682 L 454.709 305.944 L 448.357 305.944 L 448.357 311.682 L 446.673 311.682 L 446.673 299.259 " fill="#000000"/>
<path class="atom-26" d="M 457.709 309.629 L 459.464 309.629 L 459.464 311.384 L 457.709 311.384 L 457.709 309.629 M 457.709 303.593 L 459.464 303.593 L 459.464 305.348 L 457.709 305.348 L 457.709 303.593 " fill="#000000"/>
<path class="atom-26" d="M 460.376 301.611 Q 460.832 300.435, 461.92 299.786 Q 463.008 299.119, 464.517 299.119 Q 466.394 299.119, 467.447 300.137 Q 468.5 301.154, 468.5 302.962 Q 468.5 304.804, 467.131 306.523 Q 465.78 308.243, 462.973 310.278 L 468.71 310.278 L 468.71 311.682 L 460.341 311.682 L 460.341 310.506 Q 462.657 308.857, 464.026 307.629 Q 465.412 306.401, 466.078 305.295 Q 466.745 304.19, 466.745 303.049 Q 466.745 301.856, 466.149 301.189 Q 465.552 300.523, 464.517 300.523 Q 463.517 300.523, 462.85 300.926 Q 462.183 301.33, 461.709 302.225 L 460.376 301.611 " fill="#000000"/>
<path class="atom-26" d="M 475.536 300.663 L 469.026 300.663 L 469.026 299.259 L 477.273 299.259 L 477.273 300.505 L 472.255 311.682 L 470.57 311.682 L 475.536 300.663 " fill="#000000"/>
<path class="atom-27" d="M 189.859 371.644 L 191.544 371.644 L 191.544 376.925 L 197.895 376.925 L 197.895 371.644 L 199.58 371.644 L 199.58 384.067 L 197.895 384.067 L 197.895 378.329 L 191.544 378.329 L 191.544 384.067 L 189.859 384.067 L 189.859 371.644 " fill="#000000"/>
<path class="atom-27" d="M 200.896 382.014 L 202.65 382.014 L 202.65 383.768 L 200.896 383.768 L 200.896 382.014 M 200.896 375.978 L 202.65 375.978 L 202.65 377.733 L 200.896 377.733 L 200.896 375.978 " fill="#000000"/>
<path class="atom-27" d="M 203.563 373.995 Q 204.019 372.82, 205.107 372.171 Q 206.195 371.504, 207.704 371.504 Q 209.581 371.504, 210.634 372.521 Q 211.687 373.539, 211.687 375.346 Q 211.687 377.189, 210.318 378.908 Q 208.967 380.628, 206.16 382.663 L 211.897 382.663 L 211.897 384.067 L 203.528 384.067 L 203.528 382.891 Q 205.844 381.242, 207.212 380.014 Q 208.598 378.785, 209.265 377.68 Q 209.932 376.575, 209.932 375.434 Q 209.932 374.241, 209.335 373.574 Q 208.739 372.907, 207.704 372.907 Q 206.703 372.907, 206.037 373.311 Q 205.37 373.715, 204.896 374.609 L 203.563 373.995 " fill="#000000"/>
<path class="atom-27" d="M 219.319 377.487 Q 220.459 377.978, 221.109 378.715 Q 221.758 379.435, 221.758 380.663 Q 221.758 381.716, 221.214 382.54 Q 220.67 383.347, 219.687 383.804 Q 218.722 384.242, 217.442 384.242 Q 215.371 384.242, 214.178 383.295 Q 212.985 382.33, 212.985 380.663 Q 212.985 379.645, 213.511 378.891 Q 214.038 378.119, 215.126 377.54 Q 214.318 377.083, 213.88 376.417 Q 213.441 375.732, 213.441 374.68 Q 213.441 373.223, 214.494 372.364 Q 215.564 371.504, 217.371 371.504 Q 219.179 371.504, 220.231 372.364 Q 221.302 373.223, 221.302 374.68 Q 221.302 375.592, 220.793 376.276 Q 220.302 376.943, 219.319 377.487 M 217.371 372.82 Q 216.336 372.82, 215.757 373.311 Q 215.196 373.802, 215.196 374.68 Q 215.196 375.329, 215.582 375.767 Q 215.968 376.189, 216.512 376.434 Q 217.073 376.68, 218.143 377.048 Q 218.898 376.522, 219.214 375.96 Q 219.547 375.399, 219.547 374.68 Q 219.547 373.802, 218.968 373.311 Q 218.407 372.82, 217.371 372.82 M 217.442 382.926 Q 218.6 382.926, 219.301 382.312 Q 220.003 381.68, 220.003 380.645 Q 220.003 379.978, 219.635 379.557 Q 219.266 379.136, 218.705 378.891 Q 218.161 378.645, 217.178 378.329 L 216.389 378.066 Q 215.512 378.592, 215.126 379.224 Q 214.74 379.838, 214.74 380.645 Q 214.74 381.68, 215.476 382.312 Q 216.213 382.926, 217.442 382.926 " fill="#000000"/>
<path class="atom-28" d="M 197.178 234.587 L 198.862 234.587 L 198.862 239.869 L 205.214 239.869 L 205.214 234.587 L 206.898 234.587 L 206.898 247.01 L 205.214 247.01 L 205.214 241.272 L 198.862 241.272 L 198.862 247.01 L 197.178 247.01 L 197.178 234.587 " fill="#000000"/>
<path class="atom-28" d="M 208.214 244.957 L 209.969 244.957 L 209.969 246.712 L 208.214 246.712 L 208.214 244.957 M 208.214 238.921 L 209.969 238.921 L 209.969 240.676 L 208.214 240.676 L 208.214 238.921 " fill="#000000"/>
<path class="atom-28" d="M 210.881 236.939 Q 211.337 235.763, 212.425 235.114 Q 213.513 234.447, 215.022 234.447 Q 216.899 234.447, 217.952 235.465 Q 219.005 236.482, 219.005 238.29 Q 219.005 240.132, 217.636 241.851 Q 216.285 243.571, 213.478 245.606 L 219.215 245.606 L 219.215 247.01 L 210.846 247.01 L 210.846 245.834 Q 213.162 244.185, 214.53 242.957 Q 215.917 241.729, 216.583 240.623 Q 217.25 239.518, 217.25 238.377 Q 217.25 237.184, 216.654 236.517 Q 216.057 235.851, 215.022 235.851 Q 214.022 235.851, 213.355 236.254 Q 212.688 236.658, 212.214 237.553 L 210.881 236.939 " fill="#000000"/>
<path class="atom-28" d="M 224.356 234.447 Q 226.567 234.447, 227.672 235.956 Q 228.795 237.447, 228.795 240.43 Q 228.795 243.729, 227.409 245.448 Q 226.041 247.15, 223.391 247.15 Q 222.619 247.15, 221.952 246.975 Q 221.303 246.799, 220.672 246.431 L 221.356 245.255 Q 222.268 245.747, 223.374 245.747 Q 225.128 245.747, 226.023 244.624 Q 226.918 243.483, 227.023 241.15 Q 226.392 241.729, 225.584 242.044 Q 224.795 242.343, 223.935 242.343 Q 222.847 242.343, 221.987 241.869 Q 221.128 241.395, 220.654 240.535 Q 220.18 239.676, 220.18 238.588 Q 220.18 237.377, 220.707 236.447 Q 221.251 235.5, 222.198 234.973 Q 223.146 234.447, 224.356 234.447 M 221.935 238.57 Q 221.935 239.676, 222.549 240.307 Q 223.163 240.939, 224.251 240.939 Q 225.005 240.939, 225.742 240.641 Q 226.497 240.325, 227.023 239.799 Q 226.953 237.746, 226.304 236.816 Q 225.655 235.886, 224.339 235.886 Q 223.672 235.886, 223.11 236.237 Q 222.566 236.588, 222.251 237.202 Q 221.935 237.816, 221.935 238.57 " fill="#000000"/>
<path class="atom-29" d="M 80.7098 357.098 L 82.3942 357.098 L 82.3942 362.379 L 88.7458 362.379 L 88.7458 357.098 L 90.4302 357.098 L 90.4302 369.521 L 88.7458 369.521 L 88.7458 363.783 L 82.3942 363.783 L 82.3942 369.521 L 80.7098 369.521 L 80.7098 357.098 " fill="#000000"/>
<path class="atom-29" d="M 91.7462 367.468 L 93.5008 367.468 L 93.5008 369.222 L 91.7462 369.222 L 91.7462 367.468 M 91.7462 361.432 L 93.5008 361.432 L 93.5008 363.186 L 91.7462 363.186 L 91.7462 361.432 " fill="#000000"/>
<path class="atom-29" d="M 100.203 362.976 Q 101.414 363.327, 101.993 364.116 Q 102.59 364.888, 102.59 366.117 Q 102.59 367.169, 102.063 367.994 Q 101.537 368.801, 100.572 369.257 Q 99.6067 369.696, 98.3434 369.696 Q 97.0099 369.696, 96.0098 369.24 Q 95.0273 368.766, 94.2377 367.819 L 95.2378 366.801 Q 96.0098 367.643, 96.659 367.976 Q 97.3082 368.292, 98.3434 368.292 Q 99.4664 368.292, 100.151 367.696 Q 100.835 367.082, 100.835 366.099 Q 100.835 364.836, 100.116 364.274 Q 99.4137 363.695, 97.8872 363.695 L 96.9924 363.695 L 96.9924 362.432 L 97.782 362.432 Q 99.133 362.414, 99.8524 361.835 Q 100.572 361.239, 100.572 360.133 Q 100.572 359.326, 99.9752 358.853 Q 99.3786 358.361, 98.361 358.361 Q 97.3258 358.361, 96.6766 358.73 Q 96.0449 359.098, 95.5536 360.028 L 94.343 359.379 Q 94.7816 358.344, 95.8344 357.659 Q 96.8871 356.958, 98.361 356.958 Q 100.186 356.958, 101.256 357.817 Q 102.326 358.677, 102.326 360.133 Q 102.326 361.134, 101.782 361.853 Q 101.239 362.572, 100.203 362.976 " fill="#000000"/>
<path class="atom-29" d="M 108.204 369.661 Q 105.923 369.661, 104.783 367.976 Q 103.66 366.292, 103.66 363.292 Q 103.66 360.291, 104.783 358.624 Q 105.906 356.958, 108.204 356.958 Q 110.503 356.958, 111.626 358.624 Q 112.749 360.291, 112.749 363.292 Q 112.749 366.292, 111.608 367.976 Q 110.485 369.661, 108.204 369.661 M 108.204 368.257 Q 109.555 368.257, 110.275 367.011 Q 110.994 365.748, 110.994 363.292 Q 110.994 360.853, 110.275 359.607 Q 109.555 358.361, 108.204 358.361 Q 106.871 358.361, 106.134 359.607 Q 105.414 360.853, 105.414 363.292 Q 105.414 365.748, 106.134 367.011 Q 106.871 368.257, 108.204 368.257 " fill="#000000"/>
<path class="atom-30" d="M 106.826 207.249 L 108.51 207.249 L 108.51 212.53 L 114.862 212.53 L 114.862 207.249 L 116.546 207.249 L 116.546 219.672 L 114.862 219.672 L 114.862 213.934 L 108.51 213.934 L 108.51 219.672 L 106.826 219.672 L 106.826 207.249 " fill="#000000"/>
<path class="atom-30" d="M 117.862 217.619 L 119.617 217.619 L 119.617 219.373 L 117.862 219.373 L 117.862 217.619 M 117.862 211.583 L 119.617 211.583 L 119.617 213.337 L 117.862 213.337 L 117.862 211.583 " fill="#000000"/>
<path class="atom-30" d="M 126.319 213.127 Q 127.53 213.478, 128.109 214.267 Q 128.705 215.039, 128.705 216.268 Q 128.705 217.32, 128.179 218.145 Q 127.653 218.952, 126.688 219.408 Q 125.723 219.847, 124.459 219.847 Q 123.126 219.847, 122.126 219.391 Q 121.143 218.917, 120.354 217.97 L 121.354 216.952 Q 122.126 217.794, 122.775 218.128 Q 123.424 218.443, 124.459 218.443 Q 125.582 218.443, 126.267 217.847 Q 126.951 217.233, 126.951 216.25 Q 126.951 214.987, 126.231 214.425 Q 125.53 213.846, 124.003 213.846 L 123.108 213.846 L 123.108 212.583 L 123.898 212.583 Q 125.249 212.565, 125.968 211.986 Q 126.688 211.39, 126.688 210.284 Q 126.688 209.477, 126.091 209.004 Q 125.495 208.512, 124.477 208.512 Q 123.442 208.512, 122.792 208.881 Q 122.161 209.249, 121.67 210.179 L 120.459 209.53 Q 120.897 208.495, 121.95 207.81 Q 123.003 207.109, 124.477 207.109 Q 126.302 207.109, 127.372 207.968 Q 128.442 208.828, 128.442 210.284 Q 128.442 211.285, 127.898 212.004 Q 127.354 212.723, 126.319 213.127 " fill="#000000"/>
<path class="atom-30" d="M 130.337 218.268 L 133.057 218.268 L 133.057 208.986 L 130.056 209.916 L 129.653 208.881 L 133.46 207.179 L 134.706 207.389 L 134.706 218.268 L 137.145 218.268 L 137.145 219.672 L 130.337 219.672 L 130.337 218.268 " fill="#000000"/>
<path class="atom-31" d="M 60.4147 274.9 L 64.4854 281.48 Q 64.8889 282.129, 65.5381 283.305 Q 66.1873 284.481, 66.2224 284.551 L 66.2224 274.9 L 67.8717 274.9 L 67.8717 287.323 L 66.1698 287.323 L 61.8008 280.129 Q 61.292 279.287, 60.7481 278.322 Q 60.2217 277.357, 60.0638 277.059 L 60.0638 287.323 L 58.4496 287.323 L 58.4496 274.9 L 60.4147 274.9 " fill="#0000FF"/>
<path class="atom-31" d="M 69.1877 285.27 L 70.9423 285.27 L 70.9423 287.025 L 69.1877 287.025 L 69.1877 285.27 M 69.1877 279.234 L 70.9423 279.234 L 70.9423 280.989 L 69.1877 280.989 L 69.1877 279.234 " fill="#0000FF"/>
<path class="atom-31" d="M 77.6448 280.778 Q 78.8555 281.129, 79.4345 281.919 Q 80.0311 282.691, 80.0311 283.919 Q 80.0311 284.972, 79.5047 285.796 Q 78.9783 286.604, 78.0133 287.06 Q 77.0483 287.498, 75.785 287.498 Q 74.4515 287.498, 73.4513 287.042 Q 72.4688 286.568, 71.6792 285.621 L 72.6793 284.603 Q 73.4513 285.446, 74.1005 285.779 Q 74.7497 286.095, 75.785 286.095 Q 76.9079 286.095, 77.5922 285.498 Q 78.2765 284.884, 78.2765 283.901 Q 78.2765 282.638, 77.5571 282.077 Q 76.8553 281.498, 75.3288 281.498 L 74.4339 281.498 L 74.4339 280.234 L 75.2235 280.234 Q 76.5745 280.217, 77.2939 279.638 Q 78.0133 279.041, 78.0133 277.936 Q 78.0133 277.129, 77.4167 276.655 Q 76.8202 276.164, 75.8025 276.164 Q 74.7673 276.164, 74.1181 276.532 Q 73.4864 276.901, 72.9952 277.831 L 71.7845 277.181 Q 72.2231 276.146, 73.2759 275.462 Q 74.3286 274.76, 75.8025 274.76 Q 77.6273 274.76, 78.6976 275.62 Q 79.7679 276.48, 79.7679 277.936 Q 79.7679 278.936, 79.224 279.655 Q 78.68 280.375, 77.6448 280.778 " fill="#0000FF"/>
<path class="atom-31" d="M 80.9435 277.252 Q 81.3997 276.076, 82.4875 275.427 Q 83.5753 274.76, 85.0843 274.76 Q 86.9617 274.76, 88.0145 275.778 Q 89.0672 276.795, 89.0672 278.603 Q 89.0672 280.445, 87.6986 282.164 Q 86.3476 283.884, 83.5403 285.919 L 89.2778 285.919 L 89.2778 287.323 L 80.9084 287.323 L 80.9084 286.147 Q 83.2244 284.498, 84.593 283.27 Q 85.9791 282.042, 86.6459 280.936 Q 87.3126 279.831, 87.3126 278.69 Q 87.3126 277.497, 86.7161 276.83 Q 86.1195 276.164, 85.0843 276.164 Q 84.0842 276.164, 83.4174 276.567 Q 82.7507 276.971, 82.277 277.866 L 80.9435 277.252 " fill="#0000FF"/>
<path class="atom-32" d="M 325.819 185.301 L 327.504 185.301 L 327.504 190.582 L 333.855 190.582 L 333.855 185.301 L 335.54 185.301 L 335.54 197.724 L 333.855 197.724 L 333.855 191.986 L 327.504 191.986 L 327.504 197.724 L 325.819 197.724 L 325.819 185.301 " fill="#000000"/>
<path class="atom-32" d="M 336.856 195.671 L 338.61 195.671 L 338.61 197.425 L 336.856 197.425 L 336.856 195.671 M 336.856 189.635 L 338.61 189.635 L 338.61 191.389 L 336.856 191.389 L 336.856 189.635 " fill="#000000"/>
<path class="atom-32" d="M 345.313 191.179 Q 346.523 191.53, 347.102 192.319 Q 347.699 193.091, 347.699 194.32 Q 347.699 195.372, 347.173 196.197 Q 346.646 197.004, 345.681 197.46 Q 344.716 197.899, 343.453 197.899 Q 342.119 197.899, 341.119 197.443 Q 340.137 196.969, 339.347 196.022 L 340.347 195.004 Q 341.119 195.846, 341.768 196.179 Q 342.418 196.495, 343.453 196.495 Q 344.576 196.495, 345.26 195.899 Q 345.944 195.285, 345.944 194.302 Q 345.944 193.039, 345.225 192.477 Q 344.523 191.898, 342.997 191.898 L 342.102 191.898 L 342.102 190.635 L 342.891 190.635 Q 344.242 190.617, 344.962 190.038 Q 345.681 189.442, 345.681 188.336 Q 345.681 187.529, 345.085 187.056 Q 344.488 186.564, 343.47 186.564 Q 342.435 186.564, 341.786 186.933 Q 341.154 187.301, 340.663 188.231 L 339.452 187.582 Q 339.891 186.547, 340.944 185.862 Q 341.997 185.161, 343.47 185.161 Q 345.295 185.161, 346.365 186.02 Q 347.436 186.88, 347.436 188.336 Q 347.436 189.337, 346.892 190.056 Q 346.348 190.775, 345.313 191.179 " fill="#000000"/>
<path class="atom-32" d="M 354.401 191.179 Q 355.612 191.53, 356.191 192.319 Q 356.788 193.091, 356.788 194.32 Q 356.788 195.372, 356.261 196.197 Q 355.735 197.004, 354.77 197.46 Q 353.805 197.899, 352.542 197.899 Q 351.208 197.899, 350.208 197.443 Q 349.225 196.969, 348.436 196.022 L 349.436 195.004 Q 350.208 195.846, 350.857 196.179 Q 351.506 196.495, 352.542 196.495 Q 353.665 196.495, 354.349 195.899 Q 355.033 195.285, 355.033 194.302 Q 355.033 193.039, 354.314 192.477 Q 353.612 191.898, 352.085 191.898 L 351.191 191.898 L 351.191 190.635 L 351.98 190.635 Q 353.331 190.617, 354.051 190.038 Q 354.77 189.442, 354.77 188.336 Q 354.77 187.529, 354.173 187.056 Q 353.577 186.564, 352.559 186.564 Q 351.524 186.564, 350.875 186.933 Q 350.243 187.301, 349.752 188.231 L 348.541 187.582 Q 348.98 186.547, 350.033 185.862 Q 351.085 185.161, 352.559 185.161 Q 354.384 185.161, 355.454 186.02 Q 356.525 186.88, 356.525 188.336 Q 356.525 189.337, 355.981 190.056 Q 355.437 190.775, 354.401 191.179 " fill="#000000"/>
<path class="atom-33" d="M 267.025 115.898 L 268.71 115.898 L 268.71 121.18 L 275.061 121.18 L 275.061 115.898 L 276.746 115.898 L 276.746 128.321 L 275.061 128.321 L 275.061 122.583 L 268.71 122.583 L 268.71 128.321 L 267.025 128.321 L 267.025 115.898 " fill="#000000"/>
<path class="atom-33" d="M 278.062 126.268 L 279.816 126.268 L 279.816 128.022 L 278.062 128.022 L 278.062 126.268 M 278.062 120.232 L 279.816 120.232 L 279.816 121.987 L 278.062 121.987 L 278.062 120.232 " fill="#000000"/>
<path class="atom-33" d="M 286.519 121.776 Q 287.73 122.127, 288.309 122.917 Q 288.905 123.689, 288.905 124.917 Q 288.905 125.97, 288.379 126.794 Q 287.852 127.601, 286.887 128.058 Q 285.922 128.496, 284.659 128.496 Q 283.326 128.496, 282.325 128.04 Q 281.343 127.566, 280.553 126.619 L 281.553 125.601 Q 282.325 126.443, 282.975 126.777 Q 283.624 127.093, 284.659 127.093 Q 285.782 127.093, 286.466 126.496 Q 287.151 125.882, 287.151 124.899 Q 287.151 123.636, 286.431 123.075 Q 285.729 122.495, 284.203 122.495 L 283.308 122.495 L 283.308 121.232 L 284.098 121.232 Q 285.449 121.215, 286.168 120.636 Q 286.887 120.039, 286.887 118.934 Q 286.887 118.127, 286.291 117.653 Q 285.694 117.162, 284.677 117.162 Q 283.641 117.162, 282.992 117.53 Q 282.361 117.898, 281.869 118.828 L 280.659 118.179 Q 281.097 117.144, 282.15 116.46 Q 283.203 115.758, 284.677 115.758 Q 286.501 115.758, 287.572 116.618 Q 288.642 117.477, 288.642 118.934 Q 288.642 119.934, 288.098 120.653 Q 287.554 121.373, 286.519 121.776 " fill="#000000"/>
<path class="atom-33" d="M 297.503 124.057 L 298.994 124.057 L 298.994 125.461 L 297.503 125.461 L 297.503 128.321 L 295.853 128.321 L 295.853 125.461 L 289.432 125.461 L 289.432 124.355 L 294.871 115.898 L 297.503 115.898 L 297.503 124.057 M 291.467 124.057 L 295.853 124.057 L 295.853 117.021 L 291.467 124.057 " fill="#000000"/>
<path class="atom-34" d="M 22.7273 308.726 L 24.4117 308.726 L 24.4117 314.007 L 30.7633 314.007 L 30.7633 308.726 L 32.4477 308.726 L 32.4477 321.149 L 30.7633 321.149 L 30.7633 315.411 L 24.4117 315.411 L 24.4117 321.149 L 22.7273 321.149 L 22.7273 308.726 " fill="#000000"/>
<path class="atom-34" d="M 33.7637 319.096 L 35.5183 319.096 L 35.5183 320.85 L 33.7637 320.85 L 33.7637 319.096 M 33.7637 313.06 L 35.5183 313.06 L 35.5183 314.815 L 33.7637 314.815 L 33.7637 313.06 " fill="#000000"/>
<path class="atom-34" d="M 42.2208 314.604 Q 43.4315 314.955, 44.0105 315.744 Q 44.6071 316.517, 44.6071 317.745 Q 44.6071 318.797, 44.0807 319.622 Q 43.5543 320.429, 42.5893 320.885 Q 41.6242 321.324, 40.3609 321.324 Q 39.0274 321.324, 38.0273 320.868 Q 37.0448 320.394, 36.2552 319.447 L 37.2553 318.429 Q 38.0273 319.271, 38.6765 319.605 Q 39.3257 319.92, 40.3609 319.92 Q 41.4839 319.92, 42.1682 319.324 Q 42.8525 318.71, 42.8525 317.727 Q 42.8525 316.464, 42.1331 315.902 Q 41.4312 315.323, 39.9047 315.323 L 39.0099 315.323 L 39.0099 314.06 L 39.7995 314.06 Q 41.1505 314.043, 41.8699 313.464 Q 42.5893 312.867, 42.5893 311.762 Q 42.5893 310.954, 41.9927 310.481 Q 41.3961 309.989, 40.3785 309.989 Q 39.3433 309.989, 38.6941 310.358 Q 38.0624 310.726, 37.5711 311.656 L 36.3605 311.007 Q 36.7991 309.972, 37.8519 309.288 Q 38.9046 308.586, 40.3785 308.586 Q 42.2033 308.586, 43.2736 309.446 Q 44.3439 310.305, 44.3439 311.762 Q 44.3439 312.762, 43.7999 313.481 Q 43.256 314.2, 42.2208 314.604 " fill="#000000"/>
<path class="atom-34" d="M 49.9235 313.376 Q 51.0113 313.376, 51.9062 313.85 Q 52.801 314.306, 53.3098 315.183 Q 53.8187 316.043, 53.8187 317.218 Q 53.8187 318.499, 53.187 319.429 Q 52.5729 320.342, 51.5552 320.815 Q 50.5376 321.289, 49.3795 321.289 Q 48.2391 321.289, 47.1863 320.868 Q 46.1336 320.447, 45.4142 319.64 L 46.4669 318.552 Q 47.0459 319.184, 47.8355 319.534 Q 48.6251 319.868, 49.4322 319.868 Q 50.5376 319.868, 51.2921 319.184 Q 52.0641 318.499, 52.0641 317.253 Q 52.0641 315.938, 51.2921 315.323 Q 50.5376 314.692, 49.3269 314.692 Q 48.2391 314.692, 47.0284 315.165 L 46.0634 314.709 L 46.6599 308.726 L 53.0466 308.726 L 52.8712 310.13 L 48.0987 310.13 L 47.7302 313.814 Q 48.8356 313.376, 49.9235 313.376 " fill="#000000"/>
<path class="atom-35" d="M 34.8333 233.802 L 36.5178 233.802 L 36.5178 239.083 L 42.8694 239.083 L 42.8694 233.802 L 44.5538 233.802 L 44.5538 246.224 L 42.8694 246.224 L 42.8694 240.487 L 36.5178 240.487 L 36.5178 246.224 L 34.8333 246.224 L 34.8333 233.802 " fill="#000000"/>
<path class="atom-35" d="M 45.8697 244.171 L 47.6243 244.171 L 47.6243 245.926 L 45.8697 245.926 L 45.8697 244.171 M 45.8697 238.135 L 47.6243 238.135 L 47.6243 239.89 L 45.8697 239.89 L 45.8697 238.135 " fill="#000000"/>
<path class="atom-35" d="M 54.3269 239.68 Q 55.5375 240.03, 56.1166 240.82 Q 56.7131 241.592, 56.7131 242.82 Q 56.7131 243.873, 56.1867 244.698 Q 55.6604 245.505, 54.6953 245.961 Q 53.7303 246.4, 52.467 246.4 Q 51.1335 246.4, 50.1334 245.943 Q 49.1508 245.47, 48.3613 244.522 L 49.3614 243.505 Q 50.1334 244.347, 50.7826 244.68 Q 51.4318 244.996, 52.467 244.996 Q 53.5899 244.996, 54.2742 244.399 Q 54.9585 243.785, 54.9585 242.803 Q 54.9585 241.539, 54.2391 240.978 Q 53.5373 240.399, 52.0108 240.399 L 51.116 240.399 L 51.116 239.136 L 51.9055 239.136 Q 53.2566 239.118, 53.976 238.539 Q 54.6953 237.942, 54.6953 236.837 Q 54.6953 236.03, 54.0988 235.556 Q 53.5022 235.065, 52.4846 235.065 Q 51.4493 235.065, 50.8001 235.433 Q 50.1685 235.802, 49.6772 236.732 L 48.4665 236.083 Q 48.9052 235.047, 49.9579 234.363 Q 51.0107 233.661, 52.4846 233.661 Q 54.3093 233.661, 55.3796 234.521 Q 56.4499 235.381, 56.4499 236.837 Q 56.4499 237.837, 55.906 238.557 Q 55.3621 239.276, 54.3269 239.68 " fill="#000000"/>
<path class="atom-35" d="M 62.7665 238.469 Q 63.8543 238.469, 64.7141 238.943 Q 65.5738 239.416, 66.0476 240.276 Q 66.5213 241.136, 66.5213 242.224 Q 66.5213 243.434, 65.9774 244.382 Q 65.451 245.312, 64.5035 245.838 Q 63.556 246.365, 62.3454 246.365 Q 60.1346 246.365, 59.0116 244.873 Q 57.9062 243.364, 57.9062 240.381 Q 57.9062 237.083, 59.2748 235.381 Q 60.661 233.661, 63.3104 233.661 Q 64.0824 233.661, 64.7316 233.837 Q 65.3984 234.012, 66.03 234.381 L 65.3457 235.556 Q 64.4333 235.065, 63.3279 235.065 Q 61.5733 235.065, 60.6785 236.205 Q 59.7837 237.328, 59.6784 239.662 Q 60.31 239.083, 61.0996 238.785 Q 61.9067 238.469, 62.7665 238.469 M 62.3629 244.926 Q 63.0297 244.926, 63.5736 244.575 Q 64.1351 244.224, 64.4509 243.61 Q 64.7667 242.996, 64.7667 242.241 Q 64.7667 241.136, 64.1526 240.504 Q 63.5385 239.873, 62.4506 239.873 Q 61.6962 239.873, 60.9417 240.188 Q 60.2048 240.487, 59.6784 241.013 Q 59.7486 243.066, 60.3978 243.996 Q 61.047 244.926, 62.3629 244.926 " fill="#000000"/>
<text x="264.538386998247" y="293.2209985424223" font-size="12" font-family="Verdana" font-weight="bold" letter-spacing="0" text-anchor="start" fill="black" transform=" rotate(39.544104 264.538387 293.220999)">0.0831</text><text x="25" y="490" font-size="12" font-family="Verdana" font-weight="bold" letter-spacing="0" text-anchor="start" fill="black">[#6:1]1(=[#6:2](/[#7:3](-[#6:4]2:[#6:16](:[#6:18](:[#6:20](:[#6:19](:[#6:17]:2-[H:29])-[H:31])-[#7:32](-[H:35])-[H:36])-[H:30])-[H:28])-[H:5])-[#6:6]2:[#6:11](:[#6:13](:[#6:15](:[#6:14](:[#6:12]:2-[H:24])-[H:26])-[H:27])-[H:25])-[H:23])\[#6:7](=[#6:10](-[#7:8](-[#6:9]-1=[#8:22])-[H:21])-[H:34])-[H:33]</text></svg>
