<?xml version='1.0' encoding='ASCII' standalone='yes'?>
<svg xmlns="http://www.w3.org/2000/svg" xmlns:rdkit="http://www.rdkit.org/xml" xmlns:xlink="http://www.w3.org/1999/xlink" version="1.1" baseProfile="full" xml:space="preserve" width="1200px" height="400px" viewBox="0 0 1200 400">
<!-- END OF HEADER -->
<rect style="opacity:1.0;fill:#FFFFFF;stroke:none" width="1200" height="400" x="0" y="0"> </rect>
<rect style="opacity:1.0;fill:#FFFFFF;stroke:none" width="1200" height="400" x="0" y="0"> </rect>
<rect style="opacity:1.0;fill:#FFFFFF;stroke:none" width="1200" height="400" x="0" y="0"> </rect>
<path d="M 212.839,198.145 L 187.161,230.771" style="fill:none;fill-rule:evenodd;stroke:#FF7F7F;stroke-width:8.9px;stroke-linecap:butt;stroke-linejoin:miter;stroke-opacity:1"/>
<path class="bond-0 atom-0 atom-6" d="M 197.424,159.593 L 219.551,124.462" style="fill:none;fill-rule:evenodd;stroke:#000000;stroke-width:2.0px;stroke-linecap:butt;stroke-linejoin:miter;stroke-opacity:1"/>
<path class="bond-1 atom-0 atom-1" d="M 197.424,159.593 L 212.839,198.145" style="fill:none;fill-rule:evenodd;stroke:#000000;stroke-width:2.0px;stroke-linecap:butt;stroke-linejoin:miter;stroke-opacity:1"/>
<path class="bond-1 atom-0 atom-1" d="M 207.446,162.293 L 218.237,189.279" style="fill:none;fill-rule:evenodd;stroke:#000000;stroke-width:2.0px;stroke-linecap:butt;stroke-linejoin:miter;stroke-opacity:1"/>
<path class="bond-2 atom-0 atom-8" d="M 197.424,159.593 L 157.173,149.405" style="fill:none;fill-rule:evenodd;stroke:#000000;stroke-width:2.0px;stroke-linecap:butt;stroke-linejoin:miter;stroke-opacity:1"/>
<path class="bond-3 atom-1 atom-5" d="M 212.839,198.145 L 253.934,204.07" style="fill:none;fill-rule:evenodd;stroke:#000000;stroke-width:2.0px;stroke-linecap:butt;stroke-linejoin:miter;stroke-opacity:1"/>
<path class="bond-4 atom-2 atom-1" d="M 192.605,223.854 L 202.722,211" style="fill:none;fill-rule:evenodd;stroke:#0000FF;stroke-width:2.0px;stroke-linecap:butt;stroke-linejoin:miter;stroke-opacity:1"/>
<path class="bond-4 atom-2 atom-1" d="M 202.722,211 L 212.839,198.145" style="fill:none;fill-rule:evenodd;stroke:#000000;stroke-width:2.0px;stroke-linecap:butt;stroke-linejoin:miter;stroke-opacity:1"/>
<path class="bond-5 atom-2 atom-3" d="M 181.663,229.979 L 163.865,227.412" style="fill:none;fill-rule:evenodd;stroke:#0000FF;stroke-width:2.0px;stroke-linecap:butt;stroke-linejoin:miter;stroke-opacity:1"/>
<path class="bond-5 atom-2 atom-3" d="M 163.865,227.412 L 146.066,224.846" style="fill:none;fill-rule:evenodd;stroke:#000000;stroke-width:2.0px;stroke-linecap:butt;stroke-linejoin:miter;stroke-opacity:1"/>
<path class="bond-6 atom-2 atom-4" d="M 189.927,237.689 L 194.906,250.14" style="fill:none;fill-rule:evenodd;stroke:#0000FF;stroke-width:2.0px;stroke-linecap:butt;stroke-linejoin:miter;stroke-opacity:1"/>
<path class="bond-6 atom-2 atom-4" d="M 194.906,250.14 L 199.885,262.592" style="fill:none;fill-rule:evenodd;stroke:#000000;stroke-width:2.0px;stroke-linecap:butt;stroke-linejoin:miter;stroke-opacity:1"/>
<path class="bond-7 atom-3 atom-15" d="M 146.066,224.846 L 120.387,257.472" style="fill:none;fill-rule:evenodd;stroke:#000000;stroke-width:2.0px;stroke-linecap:butt;stroke-linejoin:miter;stroke-opacity:1"/>
<path class="bond-7 atom-3 atom-15" d="M 135.689,224.604 L 117.714,247.443" style="fill:none;fill-rule:evenodd;stroke:#000000;stroke-width:2.0px;stroke-linecap:butt;stroke-linejoin:miter;stroke-opacity:1"/>
<path class="bond-8 atom-3 atom-16" d="M 146.066,224.846 L 130.65,186.295" style="fill:none;fill-rule:evenodd;stroke:#000000;stroke-width:2.0px;stroke-linecap:butt;stroke-linejoin:miter;stroke-opacity:1"/>
<path class="bond-9 atom-5 atom-10" d="M 253.934,204.07 L 269.35,242.622" style="fill:none;fill-rule:evenodd;stroke:#000000;stroke-width:2.0px;stroke-linecap:butt;stroke-linejoin:miter;stroke-opacity:1"/>
<path class="bond-9 atom-5 atom-10" d="M 263.957,206.77 L 274.748,233.756" style="fill:none;fill-rule:evenodd;stroke:#000000;stroke-width:2.0px;stroke-linecap:butt;stroke-linejoin:miter;stroke-opacity:1"/>
<path class="bond-10 atom-5 atom-11" d="M 253.934,204.07 L 279.613,171.444" style="fill:none;fill-rule:evenodd;stroke:#000000;stroke-width:2.0px;stroke-linecap:butt;stroke-linejoin:miter;stroke-opacity:1"/>
<path class="bond-11 atom-6 atom-9" d="M 219.551,124.462 L 192.977,92.5607" style="fill:none;fill-rule:evenodd;stroke:#000000;stroke-width:2.0px;stroke-linecap:butt;stroke-linejoin:miter;stroke-opacity:1"/>
<path class="bond-11 atom-6 atom-9" d="M 209.185,124.991 L 190.583,102.661" style="fill:none;fill-rule:evenodd;stroke:#000000;stroke-width:2.0px;stroke-linecap:butt;stroke-linejoin:miter;stroke-opacity:1"/>
<path class="bond-12 atom-6 atom-31" d="M 219.551,124.462 L 254.697,117.759" style="fill:none;fill-rule:evenodd;stroke:#000000;stroke-width:2.0px;stroke-linecap:butt;stroke-linejoin:miter;stroke-opacity:1"/>
<path class="bond-13 atom-7 atom-8" d="M 154.884,114.894 L 156.029,132.149" style="fill:none;fill-rule:evenodd;stroke:#0000FF;stroke-width:2.0px;stroke-linecap:butt;stroke-linejoin:miter;stroke-opacity:1"/>
<path class="bond-13 atom-7 atom-8" d="M 156.029,132.149 L 157.173,149.405" style="fill:none;fill-rule:evenodd;stroke:#000000;stroke-width:2.0px;stroke-linecap:butt;stroke-linejoin:miter;stroke-opacity:1"/>
<path class="bond-14 atom-7 atom-9" d="M 159.922,105.778 L 176.45,99.1695" style="fill:none;fill-rule:evenodd;stroke:#0000FF;stroke-width:2.0px;stroke-linecap:butt;stroke-linejoin:miter;stroke-opacity:1"/>
<path class="bond-14 atom-7 atom-9" d="M 176.45,99.1695 L 192.977,92.5607" style="fill:none;fill-rule:evenodd;stroke:#000000;stroke-width:2.0px;stroke-linecap:butt;stroke-linejoin:miter;stroke-opacity:1"/>
<path class="bond-15 atom-7 atom-20" d="M 148.928,104.514 L 136.849,96.906" style="fill:none;fill-rule:evenodd;stroke:#0000FF;stroke-width:2.0px;stroke-linecap:butt;stroke-linejoin:miter;stroke-opacity:1"/>
<path class="bond-15 atom-7 atom-20" d="M 136.849,96.906 L 124.769,89.2979" style="fill:none;fill-rule:evenodd;stroke:#000000;stroke-width:2.0px;stroke-linecap:butt;stroke-linejoin:miter;stroke-opacity:1"/>
<path class="bond-16 atom-8 atom-21" d="M 155.367,145.667 L 143.346,151.476" style="fill:none;fill-rule:evenodd;stroke:#000000;stroke-width:2.0px;stroke-linecap:butt;stroke-linejoin:miter;stroke-opacity:1"/>
<path class="bond-16 atom-8 atom-21" d="M 143.346,151.476 L 131.325,157.285" style="fill:none;fill-rule:evenodd;stroke:#FF0000;stroke-width:2.0px;stroke-linecap:butt;stroke-linejoin:miter;stroke-opacity:1"/>
<path class="bond-16 atom-8 atom-21" d="M 158.98,153.143 L 146.959,158.953" style="fill:none;fill-rule:evenodd;stroke:#000000;stroke-width:2.0px;stroke-linecap:butt;stroke-linejoin:miter;stroke-opacity:1"/>
<path class="bond-16 atom-8 atom-21" d="M 146.959,158.953 L 134.938,164.762" style="fill:none;fill-rule:evenodd;stroke:#FF0000;stroke-width:2.0px;stroke-linecap:butt;stroke-linejoin:miter;stroke-opacity:1"/>
<path class="bond-17 atom-9 atom-32" d="M 192.977,92.5607 L 201.414,59.2278" style="fill:none;fill-rule:evenodd;stroke:#000000;stroke-width:2.0px;stroke-linecap:butt;stroke-linejoin:miter;stroke-opacity:1"/>
<path class="bond-18 atom-10 atom-12" d="M 269.35,242.622 L 310.444,248.547" style="fill:none;fill-rule:evenodd;stroke:#000000;stroke-width:2.0px;stroke-linecap:butt;stroke-linejoin:miter;stroke-opacity:1"/>
<path class="bond-19 atom-10 atom-22" d="M 269.35,242.622 L 249.115,268.331" style="fill:none;fill-rule:evenodd;stroke:#000000;stroke-width:2.0px;stroke-linecap:butt;stroke-linejoin:miter;stroke-opacity:1"/>
<path class="bond-20 atom-11 atom-13" d="M 279.613,171.444 L 320.707,177.369" style="fill:none;fill-rule:evenodd;stroke:#000000;stroke-width:2.0px;stroke-linecap:butt;stroke-linejoin:miter;stroke-opacity:1"/>
<path class="bond-20 atom-11 atom-13" d="M 284.592,180.552 L 313.358,184.7" style="fill:none;fill-rule:evenodd;stroke:#000000;stroke-width:2.0px;stroke-linecap:butt;stroke-linejoin:miter;stroke-opacity:1"/>
<path class="bond-21 atom-11 atom-23" d="M 279.613,171.444 L 270.838,138.218" style="fill:none;fill-rule:evenodd;stroke:#000000;stroke-width:2.0px;stroke-linecap:butt;stroke-linejoin:miter;stroke-opacity:1"/>
<path class="bond-22 atom-12 atom-14" d="M 310.444,248.547 L 336.123,215.921" style="fill:none;fill-rule:evenodd;stroke:#000000;stroke-width:2.0px;stroke-linecap:butt;stroke-linejoin:miter;stroke-opacity:1"/>
<path class="bond-22 atom-12 atom-14" d="M 307.771,238.518 L 325.746,215.679" style="fill:none;fill-rule:evenodd;stroke:#000000;stroke-width:2.0px;stroke-linecap:butt;stroke-linejoin:miter;stroke-opacity:1"/>
<path class="bond-23 atom-12 atom-24" d="M 310.444,248.547 L 323.094,280.182" style="fill:none;fill-rule:evenodd;stroke:#000000;stroke-width:2.0px;stroke-linecap:butt;stroke-linejoin:miter;stroke-opacity:1"/>
<path class="bond-24 atom-13 atom-14" d="M 320.707,177.369 L 336.123,215.921" style="fill:none;fill-rule:evenodd;stroke:#000000;stroke-width:2.0px;stroke-linecap:butt;stroke-linejoin:miter;stroke-opacity:1"/>
<path class="bond-25 atom-13 atom-25" d="M 320.707,177.369 L 340.942,151.66" style="fill:none;fill-rule:evenodd;stroke:#000000;stroke-width:2.0px;stroke-linecap:butt;stroke-linejoin:miter;stroke-opacity:1"/>
<path class="bond-26 atom-14 atom-26" d="M 336.123,215.921 L 371.579,221.033" style="fill:none;fill-rule:evenodd;stroke:#000000;stroke-width:2.0px;stroke-linecap:butt;stroke-linejoin:miter;stroke-opacity:1"/>
<path class="bond-27 atom-15 atom-17" d="M 120.387,257.472 L 79.2926,251.547" style="fill:none;fill-rule:evenodd;stroke:#000000;stroke-width:2.0px;stroke-linecap:butt;stroke-linejoin:miter;stroke-opacity:1"/>
<path class="bond-28 atom-15 atom-27" d="M 120.387,257.472 L 133.037,289.107" style="fill:none;fill-rule:evenodd;stroke:#000000;stroke-width:2.0px;stroke-linecap:butt;stroke-linejoin:miter;stroke-opacity:1"/>
<path class="bond-29 atom-16 atom-18" d="M 130.65,186.295 L 89.5556,180.369" style="fill:none;fill-rule:evenodd;stroke:#000000;stroke-width:2.0px;stroke-linecap:butt;stroke-linejoin:miter;stroke-opacity:1"/>
<path class="bond-29 atom-16 atom-18" d="M 123.301,193.625 L 94.5347,189.477" style="fill:none;fill-rule:evenodd;stroke:#000000;stroke-width:2.0px;stroke-linecap:butt;stroke-linejoin:miter;stroke-opacity:1"/>
<path class="bond-30 atom-16 atom-28" d="M 130.65,186.295 L 136.805,172.599" style="fill:none;fill-rule:evenodd;stroke:#000000;stroke-width:2.0px;stroke-linecap:butt;stroke-linejoin:miter;stroke-opacity:1"/>
<path class="bond-31 atom-17 atom-19" d="M 79.2926,251.547 L 63.8768,212.996" style="fill:none;fill-rule:evenodd;stroke:#000000;stroke-width:2.0px;stroke-linecap:butt;stroke-linejoin:miter;stroke-opacity:1"/>
<path class="bond-31 atom-17 atom-19" d="M 84.6906,242.681 L 73.8995,215.695" style="fill:none;fill-rule:evenodd;stroke:#000000;stroke-width:2.0px;stroke-linecap:butt;stroke-linejoin:miter;stroke-opacity:1"/>
<path class="bond-32 atom-17 atom-29" d="M 79.2926,251.547 L 59.0581,277.256" style="fill:none;fill-rule:evenodd;stroke:#000000;stroke-width:2.0px;stroke-linecap:butt;stroke-linejoin:miter;stroke-opacity:1"/>
<path class="bond-33 atom-18 atom-19" d="M 89.5556,180.369 L 63.8768,212.996" style="fill:none;fill-rule:evenodd;stroke:#000000;stroke-width:2.0px;stroke-linecap:butt;stroke-linejoin:miter;stroke-opacity:1"/>
<path class="bond-34 atom-18 atom-30" d="M 89.5556,180.369 L 76.9057,148.735" style="fill:none;fill-rule:evenodd;stroke:#000000;stroke-width:2.0px;stroke-linecap:butt;stroke-linejoin:miter;stroke-opacity:1"/>
<path class="bond-35 atom-19 atom-33" d="M 63.8768,212.996 L 28.4205,207.883" style="fill:none;fill-rule:evenodd;stroke:#000000;stroke-width:2.0px;stroke-linecap:butt;stroke-linejoin:miter;stroke-opacity:1"/>
<path class="atom-2" d="M 184.561 224.892 L 188.415 231.12 Q 188.796 231.735, 189.411 232.847 Q 190.025 233.96, 190.059 234.027 L 190.059 224.892 L 191.62 224.892 L 191.62 236.651 L 190.009 236.651 L 185.874 229.841 Q 185.392 229.044, 184.877 228.131 Q 184.379 227.217, 184.229 226.935 L 184.229 236.651 L 182.701 236.651 L 182.701 224.892 L 184.561 224.892 " fill="#0000FF"/>
<path class="atom-4" d="M 197.976 263.444 L 199.57 263.444 L 199.57 268.443 L 205.582 268.443 L 205.582 263.444 L 207.177 263.444 L 207.177 275.202 L 205.582 275.202 L 205.582 269.771 L 199.57 269.771 L 199.57 275.202 L 197.976 275.202 L 197.976 263.444 " fill="#000000"/>
<path class="atom-7" d="M 151.826 102.097 L 155.679 108.325 Q 156.061 108.94, 156.676 110.053 Q 157.29 111.165, 157.323 111.232 L 157.323 102.097 L 158.884 102.097 L 158.884 113.856 L 157.273 113.856 L 153.138 107.047 Q 152.656 106.249, 152.142 105.336 Q 151.643 104.422, 151.494 104.14 L 151.494 113.856 L 149.966 113.856 L 149.966 102.097 L 151.826 102.097 " fill="#0000FF"/>
<path class="atom-20" d="M 114.693 79.9697 L 116.287 79.9697 L 116.287 84.9686 L 122.299 84.9686 L 122.299 79.9697 L 123.894 79.9697 L 123.894 91.728 L 122.299 91.728 L 122.299 86.2973 L 116.287 86.2973 L 116.287 91.728 L 114.693 91.728 L 114.693 79.9697 " fill="#000000"/>
<path class="atom-21" d="M 121.495 164.071 Q 121.495 161.248, 122.89 159.67 Q 124.285 158.093, 126.893 158.093 Q 129.5 158.093, 130.895 159.67 Q 132.29 161.248, 132.29 164.071 Q 132.29 166.928, 130.879 168.555 Q 129.467 170.166, 126.893 170.166 Q 124.302 170.166, 122.89 168.555 Q 121.495 166.945, 121.495 164.071 M 126.893 168.838 Q 128.687 168.838, 129.65 167.642 Q 130.63 166.43, 130.63 164.071 Q 130.63 161.763, 129.65 160.6 Q 128.687 159.421, 126.893 159.421 Q 125.099 159.421, 124.119 160.584 Q 123.156 161.746, 123.156 164.071 Q 123.156 166.446, 124.119 167.642 Q 125.099 168.838, 126.893 168.838 " fill="#FF0000"/>
<path class="atom-22" d="M 239.071 269.369 L 240.665 269.369 L 240.665 274.368 L 246.677 274.368 L 246.677 269.369 L 248.271 269.369 L 248.271 281.128 L 246.677 281.128 L 246.677 275.697 L 240.665 275.697 L 240.665 281.128 L 239.071 281.128 L 239.071 269.369 " fill="#000000"/>
<path class="atom-23" d="M 264.411 125.422 L 266.005 125.422 L 266.005 130.421 L 272.017 130.421 L 272.017 125.422 L 273.612 125.422 L 273.612 137.18 L 272.017 137.18 L 272.017 131.749 L 266.005 131.749 L 266.005 137.18 L 264.411 137.18 L 264.411 125.422 " fill="#000000"/>
<path class="atom-24" d="M 321.26 281.22 L 322.854 281.22 L 322.854 286.219 L 328.866 286.219 L 328.866 281.22 L 330.461 281.22 L 330.461 292.978 L 328.866 292.978 L 328.866 287.547 L 322.854 287.547 L 322.854 292.978 L 321.26 292.978 L 321.26 281.22 " fill="#000000"/>
<path class="atom-25" d="M 341.786 138.864 L 343.38 138.864 L 343.38 143.863 L 349.392 143.863 L 349.392 138.864 L 350.986 138.864 L 350.986 150.622 L 349.392 150.622 L 349.392 145.191 L 343.38 145.191 L 343.38 150.622 L 341.786 150.622 L 341.786 138.864 " fill="#000000"/>
<path class="atom-26" d="M 372.617 215.967 L 374.212 215.967 L 374.212 220.966 L 380.224 220.966 L 380.224 215.967 L 381.818 215.967 L 381.818 227.725 L 380.224 227.725 L 380.224 222.295 L 374.212 222.295 L 374.212 227.725 L 372.617 227.725 L 372.617 215.967 " fill="#000000"/>
<path class="atom-27" d="M 131.203 290.145 L 132.797 290.145 L 132.797 295.144 L 138.809 295.144 L 138.809 290.145 L 140.403 290.145 L 140.403 301.903 L 138.809 301.903 L 138.809 296.473 L 132.797 296.473 L 132.797 301.903 L 131.203 301.903 L 131.203 290.145 " fill="#000000"/>
<path class="atom-28" d="M 135.095 160.289 L 136.69 160.289 L 136.69 165.288 L 142.702 165.288 L 142.702 160.289 L 144.296 160.289 L 144.296 172.048 L 142.702 172.048 L 142.702 166.617 L 136.69 166.617 L 136.69 172.048 L 135.095 172.048 L 135.095 160.289 " fill="#000000"/>
<path class="atom-29" d="M 49.0135 278.294 L 50.6079 278.294 L 50.6079 283.293 L 56.6199 283.293 L 56.6199 278.294 L 58.2142 278.294 L 58.2142 290.053 L 56.6199 290.053 L 56.6199 284.622 L 50.6079 284.622 L 50.6079 290.053 L 49.0135 290.053 L 49.0135 278.294 " fill="#000000"/>
<path class="atom-30" d="M 69.5393 135.938 L 71.1337 135.938 L 71.1337 140.937 L 77.1457 140.937 L 77.1457 135.938 L 78.7401 135.938 L 78.7401 147.697 L 77.1457 147.697 L 77.1457 142.266 L 71.1337 142.266 L 71.1337 147.697 L 69.5393 147.697 L 69.5393 135.938 " fill="#000000"/>
<path class="atom-31" d="M 255.735 110.805 L 257.33 110.805 L 257.33 115.804 L 263.342 115.804 L 263.342 110.805 L 264.936 110.805 L 264.936 122.563 L 263.342 122.563 L 263.342 117.132 L 257.33 117.132 L 257.33 122.563 L 255.735 122.563 L 255.735 110.805 " fill="#000000"/>
<path class="atom-32" d="M 198.565 46.4314 L 200.159 46.4314 L 200.159 51.4304 L 206.171 51.4304 L 206.171 46.4314 L 207.766 46.4314 L 207.766 58.1898 L 206.171 58.1898 L 206.171 52.759 L 200.159 52.759 L 200.159 58.1898 L 198.565 58.1898 L 198.565 46.4314 " fill="#000000"/>
<path class="atom-33" d="M 18.1818 201.191 L 19.7762 201.191 L 19.7762 206.19 L 25.7882 206.19 L 25.7882 201.191 L 27.3826 201.191 L 27.3826 212.949 L 25.7882 212.949 L 25.7882 207.519 L 19.7762 207.519 L 19.7762 212.949 L 18.1818 212.949 L 18.1818 201.191 " fill="#000000"/>
<path d="M 160.46 381.768 L 154.524 381.768 L 154.524 380.488 L 162.044 380.488 L 162.044 381.624 L 157.468 391.816 L 155.932 391.816 L 160.46 381.768 " fill="#000000"/>
<path d="M 170.204 392.616 L 170.204 393.928 L 162.044 393.928 L 162.044 392.616 L 170.204 392.616 " fill="#000000"/>
<path d="M 171.692 390.536 L 174.172 390.536 L 174.172 382.072 L 171.436 382.92 L 171.068 381.976 L 174.54 380.424 L 175.676 380.616 L 175.676 390.536 L 177.9 390.536 L 177.9 391.816 L 171.692 391.816 L 171.692 390.536 " fill="#000000"/>
<path d="M 186.06 392.616 L 186.06 393.928 L 177.9 393.928 L 177.9 392.616 L 186.06 392.616 " fill="#000000"/>
<path d="M 187.468 380.44 L 188.988 380.44 L 188.988 391.816 L 187.468 391.816 L 187.468 380.44 " fill="#000000"/>
<path d="M 194.588 383.448 Q 195.9 383.448, 196.588 384.2 Q 197.292 384.952, 197.292 386.376 L 197.292 391.816 L 195.788 391.816 L 195.788 386.488 Q 195.788 385.512, 195.404 385.08 Q 195.036 384.632, 194.204 384.632 Q 193.452 384.632, 192.828 384.984 Q 192.204 385.32, 191.804 385.928 L 191.804 391.816 L 190.3 391.816 L 190.3 383.592 L 191.532 383.592 L 191.708 384.744 Q 192.812 383.448, 194.588 383.448 " fill="#000000"/>
<path d="M 205.5 379.672 L 205.5 391.8 L 204.284 391.8 L 204.076 390.792 Q 203.164 391.944, 201.644 391.944 Q 199.932 391.944, 198.972 390.888 Q 198.028 389.816, 198.028 387.832 Q 198.028 385.768, 199.148 384.616 Q 200.284 383.448, 202.252 383.448 Q 203.1 383.448, 203.996 383.672 L 203.996 379.672 L 205.5 379.672 M 201.74 390.76 Q 202.572 390.76, 203.164 390.312 Q 203.772 389.848, 203.996 389.032 L 203.996 384.872 Q 203.18 384.632, 202.268 384.632 Q 201.004 384.632, 200.284 385.48 Q 199.564 386.312, 199.564 387.832 Q 199.564 389.24, 200.124 390.008 Q 200.7 390.76, 201.74 390.76 " fill="#000000"/>
<path d="M 206.236 387.688 Q 206.236 385.672, 207.244 384.568 Q 208.252 383.448, 210.092 383.448 Q 211.9 383.448, 212.7 384.536 Q 213.516 385.608, 213.516 387.64 L 213.516 387.896 L 207.772 387.896 Q 207.804 389.288, 208.428 390.024 Q 209.052 390.76, 210.22 390.76 Q 210.86 390.76, 211.452 390.616 Q 212.044 390.456, 212.764 390.136 L 213.196 391.16 Q 212.38 391.576, 211.644 391.768 Q 210.908 391.944, 210.14 391.944 Q 208.284 391.944, 207.26 390.824 Q 206.236 389.704, 206.236 387.688 M 210.092 384.632 Q 209.148 384.632, 208.572 385.176 Q 208.012 385.72, 207.836 386.776 L 211.932 386.776 Q 211.82 385.672, 211.372 385.16 Q 210.924 384.632, 210.092 384.632 " fill="#000000"/>
<path d="M 216.652 387.56 L 213.868 383.592 L 215.612 383.592 L 217.596 386.392 L 219.564 383.592 L 221.18 383.592 L 218.396 387.544 L 221.42 391.816 L 219.66 391.816 L 217.468 388.712 L 215.292 391.816 L 213.66 391.816 L 216.652 387.56 " fill="#000000"/>
<path d="M 229.58 392.616 L 229.58 393.928 L 221.42 393.928 L 221.42 392.616 L 229.58 392.616 " fill="#000000"/>
<path d="M 234.7 391.944 Q 232.62 391.944, 231.58 390.408 Q 230.556 388.872, 230.556 386.136 Q 230.556 383.4, 231.58 381.88 Q 232.604 380.36, 234.7 380.36 Q 236.796 380.36, 237.82 381.88 Q 238.844 383.4, 238.844 386.136 Q 238.844 388.872, 237.804 390.408 Q 236.78 391.944, 234.7 391.944 M 234.7 390.664 Q 235.932 390.664, 236.588 389.528 Q 237.244 388.376, 237.244 386.136 Q 237.244 383.912, 236.588 382.776 Q 235.932 381.64, 234.7 381.64 Q 233.484 381.64, 232.812 382.776 Q 232.156 383.912, 232.156 386.136 Q 232.156 388.376, 232.812 389.528 Q 233.484 390.664, 234.7 390.664 " fill="#000000"/>
<path d="M 617.491,200.745 L 615.95,159.255" style="fill:none;fill-rule:evenodd;stroke:#FF7F7F;stroke-width:8.9px;stroke-linecap:butt;stroke-linejoin:miter;stroke-opacity:1"/>
<path class="bond-0 atom-0 atom-6" d="M 582.329,222.825 L 579.525,264.25" style="fill:none;fill-rule:evenodd;stroke:#000000;stroke-width:2.0px;stroke-linecap:butt;stroke-linejoin:miter;stroke-opacity:1"/>
<path class="bond-1 atom-0 atom-1" d="M 582.329,222.825 L 617.491,200.745" style="fill:none;fill-rule:evenodd;stroke:#000000;stroke-width:2.0px;stroke-linecap:butt;stroke-linejoin:miter;stroke-opacity:1"/>
<path class="bond-1 atom-0 atom-1" d="M 592.02,226.546 L 616.633,211.09" style="fill:none;fill-rule:evenodd;stroke:#000000;stroke-width:2.0px;stroke-linecap:butt;stroke-linejoin:miter;stroke-opacity:1"/>
<path class="bond-2 atom-0 atom-8" d="M 582.329,222.825 L 543.799,207.357" style="fill:none;fill-rule:evenodd;stroke:#000000;stroke-width:2.0px;stroke-linecap:butt;stroke-linejoin:miter;stroke-opacity:1"/>
<path class="bond-3 atom-1 atom-5" d="M 617.491,200.745 L 654.194,220.157" style="fill:none;fill-rule:evenodd;stroke:#000000;stroke-width:2.0px;stroke-linecap:butt;stroke-linejoin:miter;stroke-opacity:1"/>
<path class="bond-4 atom-2 atom-1" d="M 616.207,166.172 L 616.849,183.459" style="fill:none;fill-rule:evenodd;stroke:#0000FF;stroke-width:2.0px;stroke-linecap:butt;stroke-linejoin:miter;stroke-opacity:1"/>
<path class="bond-4 atom-2 atom-1" d="M 616.849,183.459 L 617.491,200.745" style="fill:none;fill-rule:evenodd;stroke:#000000;stroke-width:2.0px;stroke-linecap:butt;stroke-linejoin:miter;stroke-opacity:1"/>
<path class="bond-5 atom-2 atom-3" d="M 610.453,156.347 L 594.85,148.095" style="fill:none;fill-rule:evenodd;stroke:#0000FF;stroke-width:2.0px;stroke-linecap:butt;stroke-linejoin:miter;stroke-opacity:1"/>
<path class="bond-5 atom-2 atom-3" d="M 594.85,148.095 L 579.248,139.843" style="fill:none;fill-rule:evenodd;stroke:#000000;stroke-width:2.0px;stroke-linecap:butt;stroke-linejoin:miter;stroke-opacity:1"/>
<path class="bond-6 atom-2 atom-4" d="M 621.448,155.803 L 633.542,148.208" style="fill:none;fill-rule:evenodd;stroke:#0000FF;stroke-width:2.0px;stroke-linecap:butt;stroke-linejoin:miter;stroke-opacity:1"/>
<path class="bond-6 atom-2 atom-4" d="M 633.542,148.208 L 645.636,140.613" style="fill:none;fill-rule:evenodd;stroke:#000000;stroke-width:2.0px;stroke-linecap:butt;stroke-linejoin:miter;stroke-opacity:1"/>
<path class="bond-7 atom-3 atom-15" d="M 579.248,139.843 L 577.707,98.3524" style="fill:none;fill-rule:evenodd;stroke:#000000;stroke-width:2.0px;stroke-linecap:butt;stroke-linejoin:miter;stroke-opacity:1"/>
<path class="bond-7 atom-3 atom-15" d="M 570.718,133.928 L 569.64,104.884" style="fill:none;fill-rule:evenodd;stroke:#000000;stroke-width:2.0px;stroke-linecap:butt;stroke-linejoin:miter;stroke-opacity:1"/>
<path class="bond-8 atom-3 atom-16" d="M 579.248,139.843 L 544.086,161.923" style="fill:none;fill-rule:evenodd;stroke:#000000;stroke-width:2.0px;stroke-linecap:butt;stroke-linejoin:miter;stroke-opacity:1"/>
<path class="bond-9 atom-5 atom-10" d="M 654.194,220.157 L 689.356,198.077" style="fill:none;fill-rule:evenodd;stroke:#000000;stroke-width:2.0px;stroke-linecap:butt;stroke-linejoin:miter;stroke-opacity:1"/>
<path class="bond-9 atom-5 atom-10" d="M 663.884,223.877 L 688.497,208.421" style="fill:none;fill-rule:evenodd;stroke:#000000;stroke-width:2.0px;stroke-linecap:butt;stroke-linejoin:miter;stroke-opacity:1"/>
<path class="bond-10 atom-5 atom-11" d="M 654.194,220.157 L 655.735,261.648" style="fill:none;fill-rule:evenodd;stroke:#000000;stroke-width:2.0px;stroke-linecap:butt;stroke-linejoin:miter;stroke-opacity:1"/>
<path class="bond-11 atom-6 atom-9" d="M 579.525,264.25 L 539.261,274.384" style="fill:none;fill-rule:evenodd;stroke:#000000;stroke-width:2.0px;stroke-linecap:butt;stroke-linejoin:miter;stroke-opacity:1"/>
<path class="bond-11 atom-6 atom-9" d="M 571.458,257.717 L 543.274,264.811" style="fill:none;fill-rule:evenodd;stroke:#000000;stroke-width:2.0px;stroke-linecap:butt;stroke-linejoin:miter;stroke-opacity:1"/>
<path class="bond-12 atom-6 atom-32" d="M 579.525,264.25 L 602.269,288.534" style="fill:none;fill-rule:evenodd;stroke:#000000;stroke-width:2.0px;stroke-linecap:butt;stroke-linejoin:miter;stroke-opacity:1"/>
<path class="bond-13 atom-7 atom-8" d="M 522.678,232.641 L 533.238,219.999" style="fill:none;fill-rule:evenodd;stroke:#0000FF;stroke-width:2.0px;stroke-linecap:butt;stroke-linejoin:miter;stroke-opacity:1"/>
<path class="bond-13 atom-7 atom-8" d="M 533.238,219.999 L 543.799,207.357" style="fill:none;fill-rule:evenodd;stroke:#000000;stroke-width:2.0px;stroke-linecap:butt;stroke-linejoin:miter;stroke-opacity:1"/>
<path class="bond-14 atom-7 atom-9" d="M 521.524,246.139 L 530.393,260.261" style="fill:none;fill-rule:evenodd;stroke:#0000FF;stroke-width:2.0px;stroke-linecap:butt;stroke-linejoin:miter;stroke-opacity:1"/>
<path class="bond-14 atom-7 atom-9" d="M 530.393,260.261 L 539.261,274.384" style="fill:none;fill-rule:evenodd;stroke:#000000;stroke-width:2.0px;stroke-linecap:butt;stroke-linejoin:miter;stroke-opacity:1"/>
<path class="bond-15 atom-7 atom-20" d="M 511.684,238.85 L 496.47,237.82" style="fill:none;fill-rule:evenodd;stroke:#0000FF;stroke-width:2.0px;stroke-linecap:butt;stroke-linejoin:miter;stroke-opacity:1"/>
<path class="bond-15 atom-7 atom-20" d="M 496.47,237.82 L 481.257,236.79" style="fill:none;fill-rule:evenodd;stroke:#000000;stroke-width:2.0px;stroke-linecap:butt;stroke-linejoin:miter;stroke-opacity:1"/>
<path class="bond-16 atom-8 atom-21" d="M 547.46,205.399 L 541.395,194.055" style="fill:none;fill-rule:evenodd;stroke:#000000;stroke-width:2.0px;stroke-linecap:butt;stroke-linejoin:miter;stroke-opacity:1"/>
<path class="bond-16 atom-8 atom-21" d="M 541.395,194.055 L 535.33,182.71" style="fill:none;fill-rule:evenodd;stroke:#FF0000;stroke-width:2.0px;stroke-linecap:butt;stroke-linejoin:miter;stroke-opacity:1"/>
<path class="bond-16 atom-8 atom-21" d="M 540.137,209.315 L 534.072,197.97" style="fill:none;fill-rule:evenodd;stroke:#000000;stroke-width:2.0px;stroke-linecap:butt;stroke-linejoin:miter;stroke-opacity:1"/>
<path class="bond-16 atom-8 atom-21" d="M 534.072,197.97 L 528.007,186.625" style="fill:none;fill-rule:evenodd;stroke:#FF0000;stroke-width:2.0px;stroke-linecap:butt;stroke-linejoin:miter;stroke-opacity:1"/>
<path class="bond-17 atom-9 atom-33" d="M 539.261,274.384 L 526.569,305.997" style="fill:none;fill-rule:evenodd;stroke:#000000;stroke-width:2.0px;stroke-linecap:butt;stroke-linejoin:miter;stroke-opacity:1"/>
<path class="bond-18 atom-10 atom-12" d="M 689.356,198.077 L 726.058,217.488" style="fill:none;fill-rule:evenodd;stroke:#000000;stroke-width:2.0px;stroke-linecap:butt;stroke-linejoin:miter;stroke-opacity:1"/>
<path class="bond-19 atom-10 atom-22" d="M 689.356,198.077 L 688.072,163.503" style="fill:none;fill-rule:evenodd;stroke:#000000;stroke-width:2.0px;stroke-linecap:butt;stroke-linejoin:miter;stroke-opacity:1"/>
<path class="bond-20 atom-11 atom-13" d="M 655.735,261.648 L 692.437,281.059" style="fill:none;fill-rule:evenodd;stroke:#000000;stroke-width:2.0px;stroke-linecap:butt;stroke-linejoin:miter;stroke-opacity:1"/>
<path class="bond-20 atom-11 atom-13" d="M 665.122,257.219 L 690.814,270.807" style="fill:none;fill-rule:evenodd;stroke:#000000;stroke-width:2.0px;stroke-linecap:butt;stroke-linejoin:miter;stroke-opacity:1"/>
<path class="bond-21 atom-11 atom-23" d="M 655.735,261.648 L 629.165,283.262" style="fill:none;fill-rule:evenodd;stroke:#000000;stroke-width:2.0px;stroke-linecap:butt;stroke-linejoin:miter;stroke-opacity:1"/>
<path class="bond-22 atom-12 atom-14" d="M 726.058,217.488 L 727.599,258.979" style="fill:none;fill-rule:evenodd;stroke:#000000;stroke-width:2.0px;stroke-linecap:butt;stroke-linejoin:miter;stroke-opacity:1"/>
<path class="bond-22 atom-12 atom-14" d="M 717.991,224.02 L 719.07,253.063" style="fill:none;fill-rule:evenodd;stroke:#000000;stroke-width:2.0px;stroke-linecap:butt;stroke-linejoin:miter;stroke-opacity:1"/>
<path class="bond-23 atom-12 atom-24" d="M 726.058,217.488 L 755.582,198.949" style="fill:none;fill-rule:evenodd;stroke:#000000;stroke-width:2.0px;stroke-linecap:butt;stroke-linejoin:miter;stroke-opacity:1"/>
<path class="bond-24 atom-13 atom-14" d="M 692.437,281.059 L 727.599,258.979" style="fill:none;fill-rule:evenodd;stroke:#000000;stroke-width:2.0px;stroke-linecap:butt;stroke-linejoin:miter;stroke-opacity:1"/>
<path class="bond-25 atom-13 atom-25" d="M 692.437,281.059 L 693.721,315.633" style="fill:none;fill-rule:evenodd;stroke:#000000;stroke-width:2.0px;stroke-linecap:butt;stroke-linejoin:miter;stroke-opacity:1"/>
<path class="bond-26 atom-14 atom-26" d="M 727.599,258.979 L 758.663,275.408" style="fill:none;fill-rule:evenodd;stroke:#000000;stroke-width:2.0px;stroke-linecap:butt;stroke-linejoin:miter;stroke-opacity:1"/>
<path class="bond-27 atom-15 atom-17" d="M 577.707,98.3524 L 541.004,78.9413" style="fill:none;fill-rule:evenodd;stroke:#000000;stroke-width:2.0px;stroke-linecap:butt;stroke-linejoin:miter;stroke-opacity:1"/>
<path class="bond-28 atom-15 atom-27" d="M 577.707,98.3524 L 607.23,79.8131" style="fill:none;fill-rule:evenodd;stroke:#000000;stroke-width:2.0px;stroke-linecap:butt;stroke-linejoin:miter;stroke-opacity:1"/>
<path class="bond-29 atom-16 atom-18" d="M 544.086,161.923 L 507.383,142.512" style="fill:none;fill-rule:evenodd;stroke:#000000;stroke-width:2.0px;stroke-linecap:butt;stroke-linejoin:miter;stroke-opacity:1"/>
<path class="bond-29 atom-16 atom-18" d="M 542.463,151.671 L 516.771,138.083" style="fill:none;fill-rule:evenodd;stroke:#000000;stroke-width:2.0px;stroke-linecap:butt;stroke-linejoin:miter;stroke-opacity:1"/>
<path class="bond-30 atom-16 atom-28" d="M 544.086,161.923 L 540.897,177.085" style="fill:none;fill-rule:evenodd;stroke:#000000;stroke-width:2.0px;stroke-linecap:butt;stroke-linejoin:miter;stroke-opacity:1"/>
<path class="bond-31 atom-17 atom-19" d="M 541.004,78.9413 L 505.842,101.021" style="fill:none;fill-rule:evenodd;stroke:#000000;stroke-width:2.0px;stroke-linecap:butt;stroke-linejoin:miter;stroke-opacity:1"/>
<path class="bond-31 atom-17 atom-19" d="M 540.146,89.2856 L 515.533,104.741" style="fill:none;fill-rule:evenodd;stroke:#000000;stroke-width:2.0px;stroke-linecap:butt;stroke-linejoin:miter;stroke-opacity:1"/>
<path class="bond-32 atom-17 atom-29" d="M 541.004,78.9413 L 539.72,44.3674" style="fill:none;fill-rule:evenodd;stroke:#000000;stroke-width:2.0px;stroke-linecap:butt;stroke-linejoin:miter;stroke-opacity:1"/>
<path class="bond-33 atom-18 atom-19" d="M 507.383,142.512 L 505.842,101.021" style="fill:none;fill-rule:evenodd;stroke:#000000;stroke-width:2.0px;stroke-linecap:butt;stroke-linejoin:miter;stroke-opacity:1"/>
<path class="bond-34 atom-18 atom-30" d="M 507.383,142.512 L 477.86,161.051" style="fill:none;fill-rule:evenodd;stroke:#000000;stroke-width:2.0px;stroke-linecap:butt;stroke-linejoin:miter;stroke-opacity:1"/>
<path class="bond-35 atom-31 atom-19" d="M 474.637,84.5173 L 490.24,92.7692" style="fill:none;fill-rule:evenodd;stroke:#0000FF;stroke-width:2.0px;stroke-linecap:butt;stroke-linejoin:miter;stroke-opacity:1"/>
<path class="bond-35 atom-31 atom-19" d="M 490.24,92.7692 L 505.842,101.021" style="fill:none;fill-rule:evenodd;stroke:#000000;stroke-width:2.0px;stroke-linecap:butt;stroke-linejoin:miter;stroke-opacity:1"/>
<path class="bond-36 atom-31 atom-34" d="M 468.883,74.6928 L 468.366,60.778" style="fill:none;fill-rule:evenodd;stroke:#0000FF;stroke-width:2.0px;stroke-linecap:butt;stroke-linejoin:miter;stroke-opacity:1"/>
<path class="bond-36 atom-31 atom-34" d="M 468.366,60.778 L 467.849,46.8631" style="fill:none;fill-rule:evenodd;stroke:#000000;stroke-width:2.0px;stroke-linecap:butt;stroke-linejoin:miter;stroke-opacity:1"/>
<path class="bond-37 atom-31 atom-35" d="M 463.643,85.0619 L 451.548,92.6565" style="fill:none;fill-rule:evenodd;stroke:#0000FF;stroke-width:2.0px;stroke-linecap:butt;stroke-linejoin:miter;stroke-opacity:1"/>
<path class="bond-37 atom-31 atom-35" d="M 451.548,92.6565 L 439.454,100.251" style="fill:none;fill-rule:evenodd;stroke:#000000;stroke-width:2.0px;stroke-linecap:butt;stroke-linejoin:miter;stroke-opacity:1"/>
<path class="atom-2" d="M 613.351 153.375 L 617.204 159.603 Q 617.586 160.218, 618.201 161.33 Q 618.815 162.443, 618.848 162.51 L 618.848 153.375 L 620.41 153.375 L 620.41 165.134 L 618.799 165.134 L 614.663 158.324 Q 614.182 157.527, 613.667 156.614 Q 613.169 155.7, 613.019 155.418 L 613.019 165.134 L 611.491 165.134 L 611.491 153.375 L 613.351 153.375 " fill="#0000FF"/>
<path class="atom-4" d="M 646.512 131.295 L 648.106 131.295 L 648.106 136.294 L 654.118 136.294 L 654.118 131.295 L 655.713 131.295 L 655.713 143.054 L 654.118 143.054 L 654.118 137.623 L 648.106 137.623 L 648.106 143.054 L 646.512 143.054 L 646.512 131.295 " fill="#000000"/>
<path class="atom-7" d="M 514.582 233.343 L 518.435 239.571 Q 518.817 240.185, 519.431 241.298 Q 520.046 242.411, 520.079 242.477 L 520.079 233.343 L 521.64 233.343 L 521.64 245.101 L 520.029 245.101 L 515.894 238.292 Q 515.412 237.495, 514.897 236.581 Q 514.399 235.668, 514.25 235.385 L 514.25 245.101 L 512.722 245.101 L 512.722 233.343 L 514.582 233.343 " fill="#0000FF"/>
<path class="atom-20" d="M 471.156 230.538 L 472.75 230.538 L 472.75 235.537 L 478.762 235.537 L 478.762 230.538 L 480.356 230.538 L 480.356 242.296 L 478.762 242.296 L 478.762 236.866 L 472.75 236.866 L 472.75 242.296 L 471.156 242.296 L 471.156 230.538 " fill="#000000"/>
<path class="atom-21" d="M 522.545 177.732 Q 522.545 174.908, 523.94 173.331 Q 525.335 171.753, 527.943 171.753 Q 530.55 171.753, 531.945 173.331 Q 533.34 174.908, 533.34 177.732 Q 533.34 180.588, 531.929 182.216 Q 530.517 183.827, 527.943 183.827 Q 525.352 183.827, 523.94 182.216 Q 522.545 180.605, 522.545 177.732 M 527.943 182.498 Q 529.736 182.498, 530.7 181.302 Q 531.679 180.09, 531.679 177.732 Q 531.679 175.423, 530.7 174.261 Q 529.736 173.082, 527.943 173.082 Q 526.149 173.082, 525.169 174.244 Q 524.206 175.407, 524.206 177.732 Q 524.206 180.107, 525.169 181.302 Q 526.149 182.498, 527.943 182.498 " fill="#FF0000"/>
<path class="atom-22" d="M 683.214 150.707 L 684.809 150.707 L 684.809 155.706 L 690.821 155.706 L 690.821 150.707 L 692.415 150.707 L 692.415 162.465 L 690.821 162.465 L 690.821 157.034 L 684.809 157.034 L 684.809 162.465 L 683.214 162.465 L 683.214 150.707 " fill="#000000"/>
<path class="atom-23" d="M 618.926 281.97 L 620.52 281.97 L 620.52 286.969 L 626.532 286.969 L 626.532 281.97 L 628.127 281.97 L 628.127 293.728 L 626.532 293.728 L 626.532 288.297 L 620.52 288.297 L 620.52 293.728 L 618.926 293.728 L 618.926 281.97 " fill="#000000"/>
<path class="atom-24" d="M 756.62 189.529 L 758.214 189.529 L 758.214 194.528 L 764.226 194.528 L 764.226 189.529 L 765.82 189.529 L 765.82 201.287 L 764.226 201.287 L 764.226 195.856 L 758.214 195.856 L 758.214 201.287 L 756.62 201.287 L 756.62 189.529 " fill="#000000"/>
<path class="atom-25" d="M 689.378 316.671 L 690.972 316.671 L 690.972 321.67 L 696.984 321.67 L 696.984 316.671 L 698.578 316.671 L 698.578 328.429 L 696.984 328.429 L 696.984 322.998 L 690.972 322.998 L 690.972 328.429 L 689.378 328.429 L 689.378 316.671 " fill="#000000"/>
<path class="atom-26" d="M 759.701 272.511 L 761.296 272.511 L 761.296 277.51 L 767.308 277.51 L 767.308 272.511 L 768.902 272.511 L 768.902 284.269 L 767.308 284.269 L 767.308 278.838 L 761.296 278.838 L 761.296 284.269 L 759.701 284.269 L 759.701 272.511 " fill="#000000"/>
<path class="atom-27" d="M 608.268 70.3934 L 609.863 70.3934 L 609.863 75.3923 L 615.875 75.3923 L 615.875 70.3934 L 617.469 70.3934 L 617.469 82.1517 L 615.875 82.1517 L 615.875 76.7209 L 609.863 76.7209 L 609.863 82.1517 L 608.268 82.1517 L 608.268 70.3934 " fill="#000000"/>
<path class="atom-28" d="M 534.944 177.637 L 536.539 177.637 L 536.539 182.636 L 542.551 182.636 L 542.551 177.637 L 544.145 177.637 L 544.145 189.395 L 542.551 189.395 L 542.551 183.965 L 536.539 183.965 L 536.539 189.395 L 534.944 189.395 L 534.944 177.637 " fill="#000000"/>
<path class="atom-29" d="M 534.863 31.5711 L 536.457 31.5711 L 536.457 36.5701 L 542.469 36.5701 L 542.469 31.5711 L 544.064 31.5711 L 544.064 43.3294 L 542.469 43.3294 L 542.469 37.8987 L 536.457 37.8987 L 536.457 43.3294 L 534.863 43.3294 L 534.863 31.5711 " fill="#000000"/>
<path class="atom-30" d="M 467.621 158.713 L 469.215 158.713 L 469.215 163.712 L 475.227 163.712 L 475.227 158.713 L 476.822 158.713 L 476.822 170.471 L 475.227 170.471 L 475.227 165.04 L 469.215 165.04 L 469.215 170.471 L 467.621 170.471 L 467.621 158.713 " fill="#000000"/>
<path class="atom-31" d="M 466.541 75.7308 L 470.394 81.9587 Q 470.776 82.5732, 471.39 83.686 Q 472.005 84.7987, 472.038 84.8651 L 472.038 75.7308 L 473.599 75.7308 L 473.599 87.4891 L 471.988 87.4891 L 467.853 80.6799 Q 467.371 79.8828, 466.856 78.9693 Q 466.358 78.0559, 466.208 77.7736 L 466.208 87.4891 L 464.681 87.4891 L 464.681 75.7308 L 466.541 75.7308 " fill="#0000FF"/>
<path class="atom-32" d="M 603.307 288.674 L 604.901 288.674 L 604.901 293.673 L 610.913 293.673 L 610.913 288.674 L 612.508 288.674 L 612.508 300.433 L 610.913 300.433 L 610.913 295.002 L 604.901 295.002 L 604.901 300.433 L 603.307 300.433 L 603.307 288.674 " fill="#000000"/>
<path class="atom-33" d="M 519.192 307.035 L 520.786 307.035 L 520.786 312.034 L 526.798 312.034 L 526.798 307.035 L 528.393 307.035 L 528.393 318.793 L 526.798 318.793 L 526.798 313.363 L 520.786 313.363 L 520.786 318.793 L 519.192 318.793 L 519.192 307.035 " fill="#000000"/>
<path class="atom-34" d="M 462.999 34.2398 L 464.593 34.2398 L 464.593 39.2388 L 470.605 39.2388 L 470.605 34.2398 L 472.199 34.2398 L 472.199 45.9982 L 470.605 45.9982 L 470.605 40.5674 L 464.593 40.5674 L 464.593 45.9982 L 462.999 45.9982 L 462.999 34.2398 " fill="#000000"/>
<path class="atom-35" d="M 429.378 97.8107 L 430.972 97.8107 L 430.972 102.81 L 436.984 102.81 L 436.984 97.8107 L 438.578 97.8107 L 438.578 109.569 L 436.984 109.569 L 436.984 104.138 L 430.972 104.138 L 430.972 109.569 L 429.378 109.569 L 429.378 97.8107 " fill="#000000"/>
<path d="M 496.026 379.864 L 490.09 379.864 L 490.09 378.584 L 497.61 378.584 L 497.61 379.72 L 493.034 389.912 L 491.498 389.912 L 496.026 379.864 " fill="#000000"/>
<path d="M 505.77 390.712 L 505.77 392.024 L 497.61 392.024 L 497.61 390.712 L 505.77 390.712 " fill="#000000"/>
<path d="M 507.258 388.632 L 509.738 388.632 L 509.738 380.168 L 507.002 381.016 L 506.634 380.072 L 510.106 378.52 L 511.242 378.712 L 511.242 388.632 L 513.466 388.632 L 513.466 389.912 L 507.258 389.912 L 507.258 388.632 " fill="#000000"/>
<path d="M 521.626 390.712 L 521.626 392.024 L 513.466 392.024 L 513.466 390.712 L 521.626 390.712 " fill="#000000"/>
<path d="M 523.034 378.536 L 524.554 378.536 L 524.554 389.912 L 523.034 389.912 L 523.034 378.536 " fill="#000000"/>
<path d="M 530.154 381.544 Q 531.466 381.544, 532.154 382.296 Q 532.858 383.048, 532.858 384.472 L 532.858 389.912 L 531.354 389.912 L 531.354 384.584 Q 531.354 383.608, 530.97 383.176 Q 530.602 382.728, 529.77 382.728 Q 529.018 382.728, 528.394 383.08 Q 527.77 383.416, 527.37 384.024 L 527.37 389.912 L 525.866 389.912 L 525.866 381.688 L 527.098 381.688 L 527.274 382.84 Q 528.378 381.544, 530.154 381.544 " fill="#000000"/>
<path d="M 541.066 377.768 L 541.066 389.896 L 539.85 389.896 L 539.642 388.888 Q 538.73 390.04, 537.21 390.04 Q 535.498 390.04, 534.538 388.984 Q 533.594 387.912, 533.594 385.928 Q 533.594 383.864, 534.714 382.712 Q 535.85 381.544, 537.818 381.544 Q 538.666 381.544, 539.562 381.768 L 539.562 377.768 L 541.066 377.768 M 537.306 388.856 Q 538.138 388.856, 538.73 388.408 Q 539.338 387.944, 539.562 387.128 L 539.562 382.968 Q 538.746 382.728, 537.834 382.728 Q 536.57 382.728, 535.85 383.576 Q 535.13 384.408, 535.13 385.928 Q 535.13 387.336, 535.69 388.104 Q 536.266 388.856, 537.306 388.856 " fill="#000000"/>
<path d="M 541.802 385.784 Q 541.802 383.768, 542.81 382.664 Q 543.818 381.544, 545.658 381.544 Q 547.466 381.544, 548.266 382.632 Q 549.082 383.704, 549.082 385.736 L 549.082 385.992 L 543.338 385.992 Q 543.37 387.384, 543.994 388.12 Q 544.618 388.856, 545.786 388.856 Q 546.426 388.856, 547.018 388.712 Q 547.61 388.552, 548.33 388.232 L 548.762 389.256 Q 547.946 389.672, 547.21 389.864 Q 546.474 390.04, 545.706 390.04 Q 543.85 390.04, 542.826 388.92 Q 541.802 387.8, 541.802 385.784 M 545.658 382.728 Q 544.714 382.728, 544.138 383.272 Q 543.578 383.816, 543.402 384.872 L 547.498 384.872 Q 547.386 383.768, 546.938 383.256 Q 546.49 382.728, 545.658 382.728 " fill="#000000"/>
<path d="M 552.218 385.656 L 549.434 381.688 L 551.178 381.688 L 553.162 384.488 L 555.13 381.688 L 556.746 381.688 L 553.962 385.64 L 556.986 389.912 L 555.226 389.912 L 553.034 386.808 L 550.858 389.912 L 549.226 389.912 L 552.218 385.656 " fill="#000000"/>
<path d="M 565.146 390.712 L 565.146 392.024 L 556.986 392.024 L 556.986 390.712 L 565.146 390.712 " fill="#000000"/>
<path d="M 570.266 390.04 Q 568.186 390.04, 567.146 388.504 Q 566.122 386.968, 566.122 384.232 Q 566.122 381.496, 567.146 379.976 Q 568.17 378.456, 570.266 378.456 Q 572.362 378.456, 573.386 379.976 Q 574.41 381.496, 574.41 384.232 Q 574.41 386.968, 573.37 388.504 Q 572.346 390.04, 570.266 390.04 M 570.266 388.76 Q 571.498 388.76, 572.154 387.624 Q 572.81 386.472, 572.81 384.232 Q 572.81 382.008, 572.154 380.872 Q 571.498 379.736, 570.266 379.736 Q 569.05 379.736, 568.378 380.872 Q 567.722 382.008, 567.722 384.232 Q 567.722 386.472, 568.378 387.624 Q 569.05 388.76, 570.266 388.76 " fill="#000000"/>
<path d="M 582.57 390.712 L 582.57 392.024 L 574.41 392.024 L 574.41 390.712 L 582.57 390.712 " fill="#000000"/>
<path d="M 592.474 384.36 L 592.474 389.144 Q 590.858 390.056, 588.474 390.056 Q 586.01 390.056, 584.682 388.552 Q 583.37 387.048, 583.37 384.232 Q 583.37 381.416, 584.682 379.944 Q 586.01 378.456, 588.522 378.456 Q 589.834 378.456, 590.794 378.872 Q 591.754 379.272, 592.426 380.104 L 591.386 380.968 Q 590.33 379.736, 588.522 379.736 Q 586.81 379.736, 585.898 380.888 Q 585.002 382.04, 585.002 384.232 Q 585.002 386.472, 585.93 387.624 Q 586.874 388.776, 588.698 388.776 Q 589.882 388.776, 590.938 388.392 L 590.938 384.36 L 592.474 384.36 " fill="#000000"/>
<path d="M 595.05 381.688 L 595.226 382.824 Q 596.09 381.544, 597.498 381.544 Q 597.946 381.544, 598.554 381.704 L 598.314 383.048 Q 597.626 382.888, 597.242 382.888 Q 596.57 382.888, 596.122 383.16 Q 595.69 383.416, 595.338 384.04 L 595.338 389.912 L 593.834 389.912 L 593.834 381.688 L 595.05 381.688 " fill="#000000"/>
<path d="M 599.29 385.784 Q 599.29 383.784, 600.298 382.664 Q 601.322 381.544, 603.194 381.544 Q 605.066 381.544, 606.074 382.664 Q 607.098 383.784, 607.098 385.784 Q 607.098 387.784, 606.074 388.92 Q 605.066 390.04, 603.194 390.04 Q 601.322 390.04, 600.298 388.92 Q 599.29 387.784, 599.29 385.784 M 600.826 385.784 Q 600.826 387.288, 601.434 388.072 Q 602.058 388.856, 603.194 388.856 Q 604.33 388.856, 604.938 388.072 Q 605.562 387.288, 605.562 385.784 Q 605.562 384.28, 604.938 383.512 Q 604.33 382.728, 603.194 382.728 Q 602.058 382.728, 601.434 383.512 Q 600.826 384.28, 600.826 385.784 " fill="#000000"/>
<path d="M 617.882 381.688 L 619.386 381.688 L 617.082 389.912 L 615.066 389.912 L 613.434 383.736 L 611.834 389.912 L 609.85 389.912 L 607.546 381.688 L 609.05 381.688 L 610.906 388.472 L 612.682 381.688 L 614.186 381.688 L 616.042 388.472 L 617.882 381.688 " fill="#000000"/>
<path d="M 620.746 378.584 L 627.482 378.584 L 627.482 379.88 L 622.266 379.88 L 622.266 383.32 L 626.906 383.32 L 626.906 384.632 L 622.266 384.632 L 622.266 389.912 L 620.746 389.912 L 620.746 378.584 " fill="#000000"/>
<path d="M 630.058 381.688 L 630.234 382.824 Q 631.098 381.544, 632.506 381.544 Q 632.954 381.544, 633.562 381.704 L 633.322 383.048 Q 632.634 382.888, 632.25 382.888 Q 631.578 382.888, 631.13 383.16 Q 630.698 383.416, 630.346 384.04 L 630.346 389.912 L 628.842 389.912 L 628.842 381.688 L 630.058 381.688 " fill="#000000"/>
<path d="M 634.266 387.688 Q 634.266 386.376, 635.322 385.656 Q 636.378 384.936, 638.314 384.936 L 639.53 384.936 L 639.53 384.616 Q 639.53 383.592, 639.098 383.16 Q 638.682 382.728, 637.658 382.728 Q 637.002 382.728, 636.49 382.856 Q 635.978 382.968, 635.178 383.32 L 634.73 382.28 Q 636.234 381.544, 637.69 381.544 Q 639.434 381.544, 640.234 382.296 Q 641.034 383.032, 641.034 384.648 L 641.034 389.912 L 639.866 389.912 Q 639.85 389.848, 639.802 389.608 Q 639.754 389.352, 639.658 388.952 Q 638.506 390.104, 636.97 390.104 Q 635.738 390.104, 635.002 389.448 Q 634.266 388.792, 634.266 387.688 M 635.77 387.656 Q 635.77 388.264, 636.154 388.6 Q 636.538 388.92, 637.258 388.92 Q 637.898 388.92, 638.506 388.632 Q 639.114 388.328, 639.53 387.816 L 639.53 386.056 L 638.41 386.056 Q 637.098 386.056, 636.426 386.456 Q 635.77 386.856, 635.77 387.656 " fill="#000000"/>
<path d="M 649.242 381.672 L 649.242 390.392 Q 649.242 393.928, 645.498 393.928 Q 643.69 393.928, 642.074 393.096 L 642.586 391.992 Q 643.45 392.424, 644.074 392.584 Q 644.698 392.744, 645.498 392.744 Q 646.698 392.744, 647.21 392.2 Q 647.738 391.672, 647.738 390.424 L 647.738 388.984 Q 646.874 390.04, 645.386 390.04 Q 643.674 390.04, 642.714 388.984 Q 641.77 387.912, 641.77 385.928 Q 641.77 383.864, 642.89 382.712 Q 644.026 381.544, 645.994 381.544 Q 647.034 381.544, 647.994 381.848 L 648.042 381.672 L 649.242 381.672 M 645.482 388.856 Q 646.314 388.856, 646.906 388.408 Q 647.514 387.944, 647.738 387.128 L 647.738 382.968 Q 646.922 382.728, 646.01 382.728 Q 644.746 382.728, 644.026 383.576 Q 643.306 384.408, 643.306 385.928 Q 643.306 387.336, 643.866 388.104 Q 644.442 388.856, 645.482 388.856 " fill="#000000"/>
<path d="M 660.058 381.544 Q 661.45 381.544, 662.154 382.296 Q 662.858 383.032, 662.858 384.472 L 662.858 389.912 L 661.354 389.912 L 661.354 384.584 Q 661.354 383.608, 660.97 383.176 Q 660.602 382.728, 659.77 382.728 Q 659.05 382.728, 658.426 383.08 Q 657.818 383.416, 657.45 384.024 Q 657.466 384.168, 657.466 384.472 L 657.466 389.912 L 655.962 389.912 L 655.962 384.584 Q 655.962 383.608, 655.578 383.176 Q 655.21 382.728, 654.378 382.728 Q 653.658 382.728, 653.05 383.08 Q 652.442 383.416, 652.058 384.008 L 652.058 389.912 L 650.554 389.912 L 650.554 381.688 L 651.786 381.688 L 651.946 382.808 Q 653.018 381.544, 654.666 381.544 Q 656.602 381.544, 657.21 382.984 Q 658.298 381.544, 660.058 381.544 " fill="#000000"/>
<path d="M 663.594 385.784 Q 663.594 383.768, 664.602 382.664 Q 665.61 381.544, 667.45 381.544 Q 669.258 381.544, 670.058 382.632 Q 670.874 383.704, 670.874 385.736 L 670.874 385.992 L 665.13 385.992 Q 665.162 387.384, 665.786 388.12 Q 666.41 388.856, 667.578 388.856 Q 668.218 388.856, 668.81 388.712 Q 669.402 388.552, 670.122 388.232 L 670.554 389.256 Q 669.738 389.672, 669.002 389.864 Q 668.266 390.04, 667.498 390.04 Q 665.642 390.04, 664.618 388.92 Q 663.594 387.8, 663.594 385.784 M 667.45 382.728 Q 666.506 382.728, 665.93 383.272 Q 665.37 383.816, 665.194 384.872 L 669.29 384.872 Q 669.178 383.768, 668.73 383.256 Q 668.282 382.728, 667.45 382.728 " fill="#000000"/>
<path d="M 676.474 381.544 Q 677.786 381.544, 678.474 382.296 Q 679.178 383.048, 679.178 384.472 L 679.178 389.912 L 677.674 389.912 L 677.674 384.584 Q 677.674 383.608, 677.29 383.176 Q 676.922 382.728, 676.09 382.728 Q 675.338 382.728, 674.714 383.08 Q 674.09 383.416, 673.69 384.024 L 673.69 389.912 L 672.186 389.912 L 672.186 381.688 L 673.418 381.688 L 673.594 382.84 Q 674.698 381.544, 676.474 381.544 " fill="#000000"/>
<path d="M 679.642 382.84 L 679.642 381.688 L 681.21 381.688 L 681.466 379.288 L 682.586 379.288 L 682.586 381.688 L 685.098 381.688 L 685.098 382.84 L 682.586 382.84 L 682.586 387.384 Q 682.586 388.808, 683.786 388.808 Q 684.266 388.808, 684.97 388.584 L 685.226 389.64 Q 684.346 390.008, 683.514 390.008 Q 682.442 390.008, 681.754 389.368 Q 681.082 388.728, 681.082 387.464 L 681.082 382.84 L 679.642 382.84 " fill="#000000"/>
<path d="M 693.386 390.712 L 693.386 392.024 L 685.226 392.024 L 685.226 390.712 L 693.386 390.712 " fill="#000000"/>
<path d="M 698.506 390.04 Q 696.426 390.04, 695.386 388.504 Q 694.362 386.968, 694.362 384.232 Q 694.362 381.496, 695.386 379.976 Q 696.41 378.456, 698.506 378.456 Q 700.602 378.456, 701.626 379.976 Q 702.65 381.496, 702.65 384.232 Q 702.65 386.968, 701.61 388.504 Q 700.586 390.04, 698.506 390.04 M 698.506 388.76 Q 699.738 388.76, 700.394 387.624 Q 701.05 386.472, 701.05 384.232 Q 701.05 382.008, 700.394 380.872 Q 699.738 379.736, 698.506 379.736 Q 697.29 379.736, 696.618 380.872 Q 695.962 382.008, 695.962 384.232 Q 695.962 386.472, 696.618 387.624 Q 697.29 388.76, 698.506 388.76 " fill="#000000"/>
<text x="199.99999999999994" y="240.29093396845838" font-size="12" font-family="Verdana" font-weight="bold" letter-spacing="0" text-anchor="start" fill="black" transform=" rotate(38.204746 200.000000 240.290934)">0.0865</text><text x="618.8294644446763" y="200.00000000000006" font-size="12" font-family="Verdana" font-weight="bold" letter-spacing="0" text-anchor="start" fill="black" transform=" rotate(-2.126726 618.829464 200.000000)">0.0831</text></svg>
