<?xml version='1.0' encoding='ASCII' standalone='yes'?>
<svg xmlns="http://www.w3.org/2000/svg" xmlns:rdkit="http://www.rdkit.org/xml" xmlns:xlink="http://www.w3.org/1999/xlink" version="1.1" baseProfile="full" xml:space="preserve" width="500px" height="500px" viewBox="0 0 500 500">
<!-- END OF HEADER -->
<rect style="opacity:1.0;fill:#FFFFFF;stroke:none" width="500" height="500" x="0" y="0"> </rect>
<path d="M 264.5,322.591 L 350.068,294.788" style="fill:none;fill-rule:evenodd;stroke:#FF7F7F;stroke-width:19.2px;stroke-linecap:butt;stroke-linejoin:miter;stroke-opacity:1"/>
<path class="bond-0 atom-1 atom-0" d="M 251.224,334.332 L 242.079,362.48" style="fill:none;fill-rule:evenodd;stroke:#000000;stroke-width:2.0px;stroke-linecap:butt;stroke-linejoin:miter;stroke-opacity:1"/>
<path class="bond-0 atom-1 atom-0" d="M 242.079,362.48 L 232.933,390.628" style="fill:none;fill-rule:evenodd;stroke:#FF0000;stroke-width:2.0px;stroke-linecap:butt;stroke-linejoin:miter;stroke-opacity:1"/>
<path class="bond-0 atom-1 atom-0" d="M 268.338,339.893 L 259.192,368.041" style="fill:none;fill-rule:evenodd;stroke:#000000;stroke-width:2.0px;stroke-linecap:butt;stroke-linejoin:miter;stroke-opacity:1"/>
<path class="bond-0 atom-1 atom-0" d="M 259.192,368.041 L 250.047,396.189" style="fill:none;fill-rule:evenodd;stroke:#FF0000;stroke-width:2.0px;stroke-linecap:butt;stroke-linejoin:miter;stroke-opacity:1"/>
<path class="bond-1 atom-2 atom-1" d="M 338.156,298.659 L 309.696,307.906" style="fill:none;fill-rule:evenodd;stroke:#0000FF;stroke-width:2.0px;stroke-linecap:butt;stroke-linejoin:miter;stroke-opacity:1"/>
<path class="bond-1 atom-2 atom-1" d="M 309.696,307.906 L 281.236,317.153" style="fill:none;fill-rule:evenodd;stroke:#000000;stroke-width:2.0px;stroke-linecap:butt;stroke-linejoin:miter;stroke-opacity:1"/>
<path class="bond-6 atom-3 atom-1" d="M 222.61,264.935 L 253.844,307.925" style="fill:none;fill-rule:evenodd;stroke:#000000;stroke-width:2.0px;stroke-linecap:butt;stroke-linejoin:miter;stroke-opacity:1"/>
<path class="bond-2 atom-2 atom-5" d="M 350.068,279.943 L 350.068,249.922" style="fill:none;fill-rule:evenodd;stroke:#0000FF;stroke-width:2.0px;stroke-linecap:butt;stroke-linejoin:miter;stroke-opacity:1"/>
<path class="bond-2 atom-2 atom-5" d="M 350.068,249.922 L 350.068,219.902" style="fill:none;fill-rule:evenodd;stroke:#000000;stroke-width:2.0px;stroke-linecap:butt;stroke-linejoin:miter;stroke-opacity:1"/>
<path class="bond-3 atom-2 atom-6" d="M 371.393,310.281 L 391.346,324.778" style="fill:none;fill-rule:evenodd;stroke:#0000FF;stroke-width:2.0px;stroke-linecap:butt;stroke-linejoin:miter;stroke-opacity:1"/>
<path class="bond-3 atom-2 atom-6" d="M 391.346,324.778 L 411.298,339.274" style="fill:none;fill-rule:evenodd;stroke:#000000;stroke-width:2.0px;stroke-linecap:butt;stroke-linejoin:miter;stroke-opacity:1"/>
<path class="bond-4 atom-3 atom-4" d="M 222.401,234.957 L 253.603,192.011" style="fill:none;fill-rule:evenodd;stroke:#000000;stroke-width:2.0px;stroke-linecap:butt;stroke-linejoin:miter;stroke-opacity:1"/>
<path class="bond-5 atom-3 atom-7" d="M 172.531,249.802 L 138.486,249.802" style="fill:none;fill-rule:evenodd;stroke:#000000;stroke-width:2.0px;stroke-linecap:butt;stroke-linejoin:miter;stroke-opacity:1"/>
<path class="bond-5 atom-3 atom-7" d="M 167.424,231.808 L 143.593,231.808" style="fill:none;fill-rule:evenodd;stroke:#000000;stroke-width:2.0px;stroke-linecap:butt;stroke-linejoin:miter;stroke-opacity:1"/>
<path class="bond-7 atom-4 atom-5" d="M 281.495,182.535 L 338.441,201.038" style="fill:none;fill-rule:evenodd;stroke:#000000;stroke-width:2.0px;stroke-linecap:butt;stroke-linejoin:miter;stroke-opacity:1"/>
<path class="bond-7 atom-4 atom-5" d="M 284.477,202.424 L 324.338,215.376" style="fill:none;fill-rule:evenodd;stroke:#000000;stroke-width:2.0px;stroke-linecap:butt;stroke-linejoin:miter;stroke-opacity:1"/>
<path class="bond-8 atom-4 atom-8" d="M 259.758,162.42 L 241.489,106.194" style="fill:none;fill-rule:evenodd;stroke:#000000;stroke-width:2.0px;stroke-linecap:butt;stroke-linejoin:miter;stroke-opacity:1"/>
<path class="bond-9 atom-5 atom-9" d="M 370.898,189.683 L 411.283,160.341" style="fill:none;fill-rule:evenodd;stroke:#000000;stroke-width:2.0px;stroke-linecap:butt;stroke-linejoin:miter;stroke-opacity:1"/>
<path class="bond-10 atom-7 atom-10" d="M 112.719,265.259 L 85.0947,313.105" style="fill:none;fill-rule:evenodd;stroke:#000000;stroke-width:2.0px;stroke-linecap:butt;stroke-linejoin:miter;stroke-opacity:1"/>
<path class="bond-11 atom-7 atom-11" d="M 112.906,234.669 L 85.1417,186.58" style="fill:none;fill-rule:evenodd;stroke:#000000;stroke-width:2.0px;stroke-linecap:butt;stroke-linejoin:miter;stroke-opacity:1"/>
<path class="atom-0" d="M 225 408.232 Q 225 402.114, 228.023 398.695 Q 231.046 395.276, 236.697 395.276 Q 242.347 395.276, 245.37 398.695 Q 248.393 402.114, 248.393 408.232 Q 248.393 414.422, 245.334 417.949 Q 242.275 421.44, 236.697 421.44 Q 231.082 421.44, 228.023 417.949 Q 225 414.458, 225 408.232 M 236.697 418.561 Q 240.583 418.561, 242.671 415.97 Q 244.794 413.342, 244.794 408.232 Q 244.794 403.229, 242.671 400.71 Q 240.583 398.155, 236.697 398.155 Q 232.81 398.155, 230.686 400.674 Q 228.599 403.193, 228.599 408.232 Q 228.599 413.378, 230.686 415.97 Q 232.81 418.561, 236.697 418.561 " fill="#FF0000"/>
<path class="atom-0" d="M 251.092 416.833 L 254.691 416.833 L 254.691 420.432 L 251.092 420.432 L 251.092 416.833 M 251.092 404.453 L 254.691 404.453 L 254.691 408.052 L 251.092 408.052 L 251.092 404.453 " fill="#FF0000"/>
<path class="atom-0" d="M 258.038 418.165 L 263.616 418.165 L 263.616 399.127 L 257.462 401.034 L 256.634 398.911 L 264.444 395.42 L 266.999 395.852 L 266.999 418.165 L 272.002 418.165 L 272.002 421.044 L 258.038 421.044 L 258.038 418.165 " fill="#FF0000"/>
<path class="atom-1" d="M 234.386 322.699 Q 234.386 316.365, 237.337 313.054 Q 240.324 309.707, 245.974 309.707 Q 251.229 309.707, 254.036 313.414 L 251.661 315.357 Q 249.609 312.658, 245.974 312.658 Q 242.123 312.658, 240.072 315.249 Q 238.057 317.805, 238.057 322.699 Q 238.057 327.738, 240.144 330.329 Q 242.267 332.92, 246.37 332.92 Q 249.177 332.92, 252.452 331.229 L 253.46 333.928 Q 252.128 334.791, 250.113 335.295 Q 248.098 335.799, 245.866 335.799 Q 240.324 335.799, 237.337 332.416 Q 234.386 329.033, 234.386 322.699 " fill="#000000"/>
<path class="atom-1" d="M 256.735 331.265 L 260.334 331.265 L 260.334 334.863 L 256.735 334.863 L 256.735 331.265 M 256.735 318.884 L 260.334 318.884 L 260.334 322.483 L 256.735 322.483 L 256.735 318.884 " fill="#000000"/>
<path class="atom-1" d="M 262.205 314.818 Q 263.141 312.406, 265.372 311.075 Q 267.604 309.707, 270.699 309.707 Q 274.549 309.707, 276.709 311.795 Q 278.868 313.882, 278.868 317.589 Q 278.868 321.368, 276.061 324.894 Q 273.29 328.421, 267.532 332.596 L 279.3 332.596 L 279.3 335.475 L 262.133 335.475 L 262.133 333.064 Q 266.884 329.681, 269.691 327.162 Q 272.534 324.643, 273.902 322.375 Q 275.269 320.108, 275.269 317.769 Q 275.269 315.321, 274.046 313.954 Q 272.822 312.586, 270.699 312.586 Q 268.647 312.586, 267.28 313.414 Q 265.912 314.242, 264.94 316.077 L 262.205 314.818 " fill="#000000"/>
<path class="atom-2" d="M 344.436 282.192 L 352.785 295.688 Q 353.613 297.02, 354.945 299.431 Q 356.276 301.842, 356.348 301.986 L 356.348 282.192 L 359.731 282.192 L 359.731 307.672 L 356.24 307.672 L 347.279 292.917 Q 346.236 291.189, 345.12 289.21 Q 344.04 287.231, 343.716 286.619 L 343.716 307.672 L 340.405 307.672 L 340.405 282.192 L 344.436 282.192 " fill="#0000FF"/>
<path class="atom-2" d="M 362.431 303.462 L 366.029 303.462 L 366.029 307.06 L 362.431 307.06 L 362.431 303.462 M 362.431 291.081 L 366.029 291.081 L 366.029 294.68 L 362.431 294.68 L 362.431 291.081 " fill="#0000FF"/>
<path class="atom-2" d="M 379.777 294.248 Q 382.26 294.968, 383.448 296.588 Q 384.672 298.171, 384.672 300.69 Q 384.672 302.85, 383.592 304.541 Q 382.512 306.197, 380.533 307.132 Q 378.554 308.032, 375.962 308.032 Q 373.227 308.032, 371.176 307.096 Q 369.16 306.125, 367.541 304.181 L 369.592 302.094 Q 371.176 303.821, 372.507 304.505 Q 373.839 305.153, 375.962 305.153 Q 378.266 305.153, 379.669 303.929 Q 381.073 302.67, 381.073 300.654 Q 381.073 298.063, 379.597 296.912 Q 378.158 295.724, 375.027 295.724 L 373.191 295.724 L 373.191 293.133 L 374.811 293.133 Q 377.582 293.097, 379.057 291.909 Q 380.533 290.685, 380.533 288.418 Q 380.533 286.763, 379.309 285.791 Q 378.086 284.783, 375.998 284.783 Q 373.875 284.783, 372.543 285.539 Q 371.248 286.295, 370.24 288.202 L 367.757 286.871 Q 368.657 284.747, 370.816 283.344 Q 372.975 281.904, 375.998 281.904 Q 379.741 281.904, 381.937 283.668 Q 384.132 285.431, 384.132 288.418 Q 384.132 290.47, 383.016 291.945 Q 381.901 293.421, 379.777 294.248 " fill="#0000FF"/>
<path class="atom-3" d="M 174.78 249.91 Q 174.78 243.576, 177.732 240.265 Q 180.719 236.918, 186.369 236.918 Q 191.623 236.918, 194.43 240.625 L 192.055 242.568 Q 190.004 239.869, 186.369 239.869 Q 182.518 239.869, 180.467 242.46 Q 178.451 245.016, 178.451 249.91 Q 178.451 254.948, 180.539 257.54 Q 182.662 260.131, 186.765 260.131 Q 189.572 260.131, 192.847 258.439 L 193.855 261.139 Q 192.523 262.002, 190.508 262.506 Q 188.492 263.01, 186.261 263.01 Q 180.719 263.01, 177.732 259.627 Q 174.78 256.244, 174.78 249.91 " fill="#000000"/>
<path class="atom-3" d="M 197.13 258.475 L 200.729 258.475 L 200.729 262.074 L 197.13 262.074 L 197.13 258.475 M 197.13 246.095 L 200.729 246.095 L 200.729 249.694 L 197.13 249.694 L 197.13 246.095 " fill="#000000"/>
<path class="atom-3" d="M 218.363 253.941 L 221.422 253.941 L 221.422 256.82 L 218.363 256.82 L 218.363 262.686 L 214.98 262.686 L 214.98 256.82 L 201.808 256.82 L 201.808 254.553 L 212.965 237.206 L 218.363 237.206 L 218.363 253.941 M 205.983 253.941 L 214.98 253.941 L 214.98 239.509 L 205.983 253.941 " fill="#000000"/>
<path class="atom-4" d="M 234.404 177.121 Q 234.404 170.787, 237.355 167.476 Q 240.342 164.129, 245.992 164.129 Q 251.247 164.129, 254.054 167.836 L 251.679 169.779 Q 249.627 167.08, 245.992 167.08 Q 242.141 167.08, 240.09 169.671 Q 238.075 172.226, 238.075 177.121 Q 238.075 182.159, 240.162 184.751 Q 242.285 187.342, 246.388 187.342 Q 249.195 187.342, 252.47 185.65 L 253.478 188.349 Q 252.146 189.213, 250.131 189.717 Q 248.116 190.221, 245.884 190.221 Q 240.342 190.221, 237.355 186.838 Q 234.404 183.455, 234.404 177.121 " fill="#000000"/>
<path class="atom-4" d="M 256.753 185.686 L 260.352 185.686 L 260.352 189.285 L 256.753 189.285 L 256.753 185.686 M 256.753 173.306 L 260.352 173.306 L 260.352 176.905 L 256.753 176.905 L 256.753 173.306 " fill="#000000"/>
<path class="atom-4" d="M 271.256 173.954 Q 273.488 173.954, 275.323 174.926 Q 277.159 175.861, 278.202 177.661 Q 279.246 179.424, 279.246 181.835 Q 279.246 184.463, 277.95 186.37 Q 276.691 188.241, 274.603 189.213 Q 272.516 190.185, 270.141 190.185 Q 267.802 190.185, 265.642 189.321 Q 263.483 188.457, 262.007 186.802 L 264.167 184.571 Q 265.354 185.866, 266.974 186.586 Q 268.593 187.27, 270.249 187.27 Q 272.516 187.27, 274.064 185.866 Q 275.647 184.463, 275.647 181.907 Q 275.647 179.208, 274.064 177.949 Q 272.516 176.653, 270.033 176.653 Q 267.802 176.653, 265.318 177.625 L 263.339 176.689 L 264.563 164.417 L 277.663 164.417 L 277.303 167.296 L 267.514 167.296 L 266.758 174.854 Q 269.025 173.954, 271.256 173.954 " fill="#000000"/>
<path class="atom-5" d="M 340.243 204.924 Q 340.243 198.59, 343.194 195.279 Q 346.182 191.932, 351.832 191.932 Q 357.086 191.932, 359.893 195.639 L 357.518 197.582 Q 355.467 194.883, 351.832 194.883 Q 347.981 194.883, 345.93 197.474 Q 343.914 200.029, 343.914 204.924 Q 343.914 209.962, 346.002 212.554 Q 348.125 215.145, 352.228 215.145 Q 355.035 215.145, 358.31 213.453 L 359.317 216.152 Q 357.986 217.016, 355.971 217.52 Q 353.955 218.024, 351.724 218.024 Q 346.182 218.024, 343.194 214.641 Q 340.243 211.258, 340.243 204.924 " fill="#000000"/>
<path class="atom-5" d="M 362.592 213.489 L 366.191 213.489 L 366.191 217.088 L 362.592 217.088 L 362.592 213.489 M 362.592 201.109 L 366.191 201.109 L 366.191 204.708 L 362.592 204.708 L 362.592 201.109 " fill="#000000"/>
<path class="atom-5" d="M 378.608 201.793 Q 380.839 201.793, 382.602 202.765 Q 384.366 203.736, 385.337 205.5 Q 386.309 207.263, 386.309 209.494 Q 386.309 211.978, 385.194 213.921 Q 384.114 215.829, 382.17 216.908 Q 380.227 217.988, 377.744 217.988 Q 373.209 217.988, 370.906 214.929 Q 368.639 211.834, 368.639 205.716 Q 368.639 198.95, 371.446 195.459 Q 374.289 191.932, 379.723 191.932 Q 381.307 191.932, 382.638 192.292 Q 384.006 192.652, 385.301 193.407 L 383.898 195.819 Q 382.026 194.811, 379.759 194.811 Q 376.16 194.811, 374.325 197.15 Q 372.489 199.454, 372.273 204.24 Q 373.569 203.052, 375.189 202.441 Q 376.844 201.793, 378.608 201.793 M 377.78 215.037 Q 379.147 215.037, 380.263 214.317 Q 381.415 213.597, 382.062 212.338 Q 382.71 211.078, 382.71 209.53 Q 382.71 207.263, 381.451 205.968 Q 380.191 204.672, 377.96 204.672 Q 376.412 204.672, 374.865 205.32 Q 373.353 205.932, 372.273 207.011 Q 372.417 211.222, 373.749 213.129 Q 375.081 215.037, 377.78 215.037 " fill="#000000"/>
<path class="atom-6" d="M 412.889 334.933 L 416.343 334.933 L 416.343 345.765 L 429.371 345.765 L 429.371 334.933 L 432.826 334.933 L 432.826 360.413 L 429.371 360.413 L 429.371 348.644 L 416.343 348.644 L 416.343 360.413 L 412.889 360.413 L 412.889 334.933 " fill="#000000"/>
<path class="atom-6" d="M 435.526 356.202 L 439.124 356.202 L 439.124 359.801 L 435.526 359.801 L 435.526 356.202 M 435.526 343.822 L 439.124 343.822 L 439.124 347.421 L 435.526 347.421 L 435.526 343.822 " fill="#000000"/>
<path class="atom-6" d="M 453.124 337.812 L 439.772 337.812 L 439.772 334.933 L 456.687 334.933 L 456.687 337.488 L 446.394 360.413 L 442.939 360.413 L 453.124 337.812 " fill="#000000"/>
<path class="atom-7" d="M 91.0403 249.91 Q 91.0403 243.576, 93.9913 240.265 Q 96.9784 236.918, 102.629 236.918 Q 107.883 236.918, 110.69 240.625 L 108.315 242.568 Q 106.264 239.869, 102.629 239.869 Q 98.7779 239.869, 96.7265 242.46 Q 94.7111 245.016, 94.7111 249.91 Q 94.7111 254.948, 96.7985 257.54 Q 98.9218 260.131, 103.025 260.131 Q 105.832 260.131, 109.107 258.439 L 110.114 261.139 Q 108.783 262.002, 106.767 262.506 Q 104.752 263.01, 102.521 263.01 Q 96.9784 263.01, 93.9913 259.627 Q 91.0403 256.244, 91.0403 249.91 " fill="#000000"/>
<path class="atom-7" d="M 113.389 258.475 L 116.988 258.475 L 116.988 262.074 L 113.389 262.074 L 113.389 258.475 M 113.389 246.095 L 116.988 246.095 L 116.988 249.694 L 113.389 249.694 L 113.389 246.095 " fill="#000000"/>
<path class="atom-7" d="M 132.212 249.19 Q 134.551 250.198, 135.882 251.709 Q 137.214 253.185, 137.214 255.704 Q 137.214 257.864, 136.098 259.555 Q 134.983 261.211, 132.967 262.146 Q 130.988 263.046, 128.361 263.046 Q 124.114 263.046, 121.667 261.103 Q 119.22 259.123, 119.22 255.704 Q 119.22 253.617, 120.299 252.069 Q 121.379 250.486, 123.61 249.298 Q 121.955 248.363, 121.055 246.995 Q 120.155 245.591, 120.155 243.432 Q 120.155 240.445, 122.315 238.681 Q 124.51 236.918, 128.217 236.918 Q 131.924 236.918, 134.083 238.681 Q 136.278 240.445, 136.278 243.432 Q 136.278 245.303, 135.235 246.707 Q 134.227 248.075, 132.212 249.19 M 128.217 239.617 Q 126.093 239.617, 124.906 240.625 Q 123.754 241.633, 123.754 243.432 Q 123.754 244.764, 124.546 245.663 Q 125.338 246.527, 126.453 247.031 Q 127.605 247.535, 129.8 248.291 Q 131.348 247.211, 131.996 246.059 Q 132.679 244.908, 132.679 243.432 Q 132.679 241.633, 131.492 240.625 Q 130.34 239.617, 128.217 239.617 M 128.361 260.347 Q 130.736 260.347, 132.176 259.087 Q 133.615 257.792, 133.615 255.668 Q 133.615 254.301, 132.859 253.437 Q 132.104 252.573, 130.952 252.069 Q 129.836 251.566, 127.821 250.918 L 126.201 250.378 Q 124.402 251.458, 123.61 252.753 Q 122.818 254.013, 122.818 255.668 Q 122.818 257.792, 124.33 259.087 Q 125.842 260.347, 128.361 260.347 " fill="#000000"/>
<path class="atom-8" d="M 226.728 78.848 L 230.183 78.848 L 230.183 89.6807 L 243.211 89.6807 L 243.211 78.848 L 246.666 78.848 L 246.666 104.328 L 243.211 104.328 L 243.211 92.5598 L 230.183 92.5598 L 230.183 104.328 L 226.728 104.328 L 226.728 78.848 " fill="#000000"/>
<path class="atom-8" d="M 249.365 100.117 L 252.964 100.117 L 252.964 103.716 L 249.365 103.716 L 249.365 100.117 M 249.365 87.7373 L 252.964 87.7373 L 252.964 91.3362 L 249.365 91.3362 L 249.365 87.7373 " fill="#000000"/>
<path class="atom-8" d="M 263.508 78.5601 Q 268.043 78.5601, 270.31 81.6552 Q 272.614 84.7142, 272.614 90.8323 Q 272.614 97.5983, 269.77 101.125 Q 266.963 104.616, 261.529 104.616 Q 259.945 104.616, 258.578 104.256 Q 257.246 103.896, 255.951 103.141 L 257.354 100.729 Q 259.226 101.737, 261.493 101.737 Q 265.092 101.737, 266.927 99.4337 Q 268.763 97.0944, 268.979 92.3079 Q 267.683 93.4955, 266.028 94.1433 Q 264.408 94.7551, 262.645 94.7551 Q 260.413 94.7551, 258.65 93.7834 Q 256.886 92.8117, 255.915 91.0483 Q 254.943 89.2848, 254.943 87.0535 Q 254.943 84.5703, 256.023 82.6629 Q 257.138 80.7195, 259.082 79.6398 Q 261.025 78.5601, 263.508 78.5601 M 258.542 87.0175 Q 258.542 89.2848, 259.801 90.5804 Q 261.061 91.876, 263.292 91.876 Q 264.84 91.876, 266.351 91.2642 Q 267.899 90.6164, 268.979 89.5367 Q 268.835 85.326, 267.503 83.4186 Q 266.172 81.5112, 263.472 81.5112 Q 262.105 81.5112, 260.953 82.231 Q 259.837 82.9508, 259.19 84.2104 Q 258.542 85.47, 258.542 87.0175 " fill="#000000"/>
<path class="atom-9" d="M 412.889 139.335 L 416.343 139.335 L 416.343 150.168 L 429.371 150.168 L 429.371 139.335 L 432.826 139.335 L 432.826 164.816 L 429.371 164.816 L 429.371 153.047 L 416.343 153.047 L 416.343 164.816 L 412.889 164.816 L 412.889 139.335 " fill="#000000"/>
<path class="atom-9" d="M 435.526 160.605 L 439.124 160.605 L 439.124 164.204 L 435.526 164.204 L 435.526 160.605 M 435.526 148.225 L 439.124 148.225 L 439.124 151.824 L 435.526 151.824 L 435.526 148.225 " fill="#000000"/>
<path class="atom-9" d="M 442.471 161.936 L 448.05 161.936 L 448.05 142.898 L 441.896 144.806 L 441.068 142.682 L 448.877 139.191 L 451.433 139.623 L 451.433 161.936 L 456.435 161.936 L 456.435 164.816 L 442.471 164.816 L 442.471 161.936 " fill="#000000"/>
<path class="atom-9" d="M 467.952 165.103 Q 463.273 165.103, 460.934 161.649 Q 458.63 158.194, 458.63 152.039 Q 458.63 145.885, 460.934 142.466 Q 463.237 139.047, 467.952 139.047 Q 472.666 139.047, 474.969 142.466 Q 477.273 145.885, 477.273 152.039 Q 477.273 158.194, 474.933 161.649 Q 472.63 165.103, 467.952 165.103 M 467.952 162.224 Q 470.723 162.224, 472.198 159.669 Q 473.674 157.078, 473.674 152.039 Q 473.674 147.037, 472.198 144.482 Q 470.723 141.927, 467.952 141.927 Q 465.216 141.927, 463.705 144.482 Q 462.229 147.037, 462.229 152.039 Q 462.229 157.078, 463.705 159.669 Q 465.216 162.224, 467.952 162.224 " fill="#000000"/>
<path class="atom-10" d="M 23.483 315.052 L 26.938 315.052 L 26.938 325.885 L 39.966 325.885 L 39.966 315.052 L 43.4209 315.052 L 43.4209 340.532 L 39.966 340.532 L 39.966 328.764 L 26.938 328.764 L 26.938 340.532 L 23.483 340.532 L 23.483 315.052 " fill="#000000"/>
<path class="atom-10" d="M 46.1201 336.322 L 49.719 336.322 L 49.719 339.921 L 46.1201 339.921 L 46.1201 336.322 M 46.1201 323.942 L 49.719 323.942 L 49.719 327.54 L 46.1201 327.54 L 46.1201 323.942 " fill="#000000"/>
<path class="atom-10" d="M 53.0659 337.653 L 58.6442 337.653 L 58.6442 318.615 L 52.4901 320.523 L 51.6624 318.399 L 59.472 314.908 L 62.0272 315.34 L 62.0272 337.653 L 67.0296 337.653 L 67.0296 340.532 L 53.0659 340.532 L 53.0659 337.653 " fill="#000000"/>
<path class="atom-10" d="M 70.3766 337.653 L 75.9549 337.653 L 75.9549 318.615 L 69.8008 320.523 L 68.973 318.399 L 76.7826 314.908 L 79.3379 315.34 L 79.3379 337.653 L 84.3403 337.653 L 84.3403 340.532 L 70.3766 340.532 L 70.3766 337.653 " fill="#000000"/>
<path class="atom-11" d="M 22.7273 159.288 L 26.1822 159.288 L 26.1822 170.12 L 39.2102 170.12 L 39.2102 159.288 L 42.6651 159.288 L 42.6651 184.768 L 39.2102 184.768 L 39.2102 172.999 L 26.1822 172.999 L 26.1822 184.768 L 22.7273 184.768 L 22.7273 159.288 " fill="#000000"/>
<path class="atom-11" d="M 45.3643 180.557 L 48.9632 180.557 L 48.9632 184.156 L 45.3643 184.156 L 45.3643 180.557 M 45.3643 168.177 L 48.9632 168.177 L 48.9632 171.776 L 45.3643 171.776 L 45.3643 168.177 " fill="#000000"/>
<path class="atom-11" d="M 52.3102 181.889 L 57.8885 181.889 L 57.8885 162.851 L 51.7343 164.758 L 50.9066 162.635 L 58.7162 159.144 L 61.2714 159.576 L 61.2714 181.889 L 66.2739 181.889 L 66.2739 184.768 L 52.3102 184.768 L 52.3102 181.889 " fill="#000000"/>
<path class="atom-11" d="M 68.1453 164.11 Q 69.081 161.699, 71.3123 160.367 Q 73.5436 159, 76.6387 159 Q 80.4895 159, 82.6488 161.087 Q 84.8082 163.174, 84.8082 166.881 Q 84.8082 170.66, 82.001 174.187 Q 79.2299 177.714, 73.4717 181.889 L 85.24 181.889 L 85.24 184.768 L 68.0733 184.768 L 68.0733 182.357 Q 72.8239 178.974, 75.631 176.454 Q 78.4741 173.935, 79.8417 171.668 Q 81.2093 169.401, 81.2093 167.061 Q 81.2093 164.614, 79.9857 163.246 Q 78.762 161.879, 76.6387 161.879 Q 74.5873 161.879, 73.2197 162.707 Q 71.8522 163.534, 70.8805 165.37 L 68.1453 164.11 " fill="#000000"/>
<text x="307.2839490548066" y="308.6897097341105" font-size="12" font-family="Verdana" font-weight="bold" letter-spacing="0" text-anchor="start" fill="black" transform=" rotate(72.000000 307.283949 308.689710)">1.0907</text><text x="25" y="490" font-size="12" font-family="Verdana" font-weight="bold" letter-spacing="0" text-anchor="start" fill="black">[#8:1]=[#6:2]1-[#7:3](-[#6:6](=[#6:5](-[#6:4]-1=[#6:8](-[H:11])-[H:12])-[H:9])-[H:10])-[H:7]</text></svg>
