<?xml version='1.0' encoding='ASCII' standalone='yes'?>
<svg xmlns="http://www.w3.org/2000/svg" xmlns:rdkit="http://www.rdkit.org/xml" xmlns:xlink="http://www.w3.org/1999/xlink" version="1.1" baseProfile="full" xml:space="preserve" width="500px" height="500px" viewBox="0 0 500 500">
<!-- END OF HEADER -->
<rect style="opacity:1.0;fill:#FFFFFF;stroke:none" width="500" height="500" x="0" y="0"> </rect>
<path d="M 208.796,281.568 L 247.843,305.636" style="fill:none;fill-rule:evenodd;stroke:#FF7F7F;stroke-width:9.8px;stroke-linecap:butt;stroke-linejoin:miter;stroke-opacity:1"/>
<path class="bond-0 atom-0 atom-6" d="M 155.911,295.636 L 137.239,284.127" style="fill:none;fill-rule:evenodd;stroke:#000000;stroke-width:2.0px;stroke-linecap:butt;stroke-linejoin:miter;stroke-opacity:1"/>
<path class="bond-0 atom-0 atom-6" d="M 157.924,286.1 L 144.853,278.044" style="fill:none;fill-rule:evenodd;stroke:#000000;stroke-width:2.0px;stroke-linecap:butt;stroke-linejoin:miter;stroke-opacity:1"/>
<path class="bond-1 atom-0 atom-9" d="M 168.207,311.066 L 167.322,341.825" style="fill:none;fill-rule:evenodd;stroke:#000000;stroke-width:2.0px;stroke-linecap:butt;stroke-linejoin:miter;stroke-opacity:1"/>
<path class="bond-2 atom-1 atom-0" d="M 194.192,289.449 L 176.22,299.147" style="fill:none;fill-rule:evenodd;stroke:#000000;stroke-width:2.0px;stroke-linecap:butt;stroke-linejoin:miter;stroke-opacity:1"/>
<path class="bond-3 atom-1 atom-5" d="M 209.018,273.853 L 209.894,243.387" style="fill:none;fill-rule:evenodd;stroke:#000000;stroke-width:2.0px;stroke-linecap:butt;stroke-linejoin:miter;stroke-opacity:1"/>
<path class="bond-3 atom-1 atom-5" d="M 199.979,269.019 L 200.593,247.693" style="fill:none;fill-rule:evenodd;stroke:#000000;stroke-width:2.0px;stroke-linecap:butt;stroke-linejoin:miter;stroke-opacity:1"/>
<path class="bond-5 atom-2 atom-1" d="M 235.564,298.067 L 226.346,292.385" style="fill:none;fill-rule:evenodd;stroke:#0000FF;stroke-width:2.0px;stroke-linecap:butt;stroke-linejoin:miter;stroke-opacity:1"/>
<path class="bond-5 atom-2 atom-1" d="M 226.346,292.385 L 217.127,286.703" style="fill:none;fill-rule:evenodd;stroke:#000000;stroke-width:2.0px;stroke-linecap:butt;stroke-linejoin:miter;stroke-opacity:1"/>
<path class="bond-4 atom-2 atom-4" d="M 256.514,300.957 L 265.289,296.222" style="fill:none;fill-rule:evenodd;stroke:#0000FF;stroke-width:2.0px;stroke-linecap:butt;stroke-linejoin:miter;stroke-opacity:1"/>
<path class="bond-4 atom-2 atom-4" d="M 265.289,296.222 L 274.063,291.487" style="fill:none;fill-rule:evenodd;stroke:#000000;stroke-width:2.0px;stroke-linecap:butt;stroke-linejoin:miter;stroke-opacity:1"/>
<path class="bond-6 atom-2 atom-3" d="M 247.616,313.534 L 247.177,328.788" style="fill:none;fill-rule:evenodd;stroke:#0000FF;stroke-width:2.0px;stroke-linecap:butt;stroke-linejoin:miter;stroke-opacity:1"/>
<path class="bond-6 atom-2 atom-3" d="M 247.177,328.788 L 246.738,344.042" style="fill:none;fill-rule:evenodd;stroke:#000000;stroke-width:2.0px;stroke-linecap:butt;stroke-linejoin:miter;stroke-opacity:1"/>
<path class="bond-7 atom-4 atom-14" d="M 296.875,279.177 L 314.43,269.705" style="fill:none;fill-rule:evenodd;stroke:#000000;stroke-width:2.0px;stroke-linecap:butt;stroke-linejoin:miter;stroke-opacity:1"/>
<path class="bond-8 atom-4 atom-25" d="M 292.453,291.715 L 306.029,316.875" style="fill:none;fill-rule:evenodd;stroke:#000000;stroke-width:2.0px;stroke-linecap:butt;stroke-linejoin:miter;stroke-opacity:1"/>
<path class="bond-9 atom-4 atom-26" d="M 285.793,279.373 L 270.522,251.074" style="fill:none;fill-rule:evenodd;stroke:#000000;stroke-width:2.0px;stroke-linecap:butt;stroke-linejoin:miter;stroke-opacity:1"/>
<path class="bond-10 atom-5 atom-7" d="M 197.597,228.003 L 179.784,217.024" style="fill:none;fill-rule:evenodd;stroke:#000000;stroke-width:2.0px;stroke-linecap:butt;stroke-linejoin:miter;stroke-opacity:1"/>
<path class="bond-11 atom-5 atom-10" d="M 219.177,230.828 L 244.51,217.158" style="fill:none;fill-rule:evenodd;stroke:#000000;stroke-width:2.0px;stroke-linecap:butt;stroke-linejoin:miter;stroke-opacity:1"/>
<path class="bond-12 atom-6 atom-8" d="M 129.599,271.715 L 130.479,241.106" style="fill:none;fill-rule:evenodd;stroke:#000000;stroke-width:2.0px;stroke-linecap:butt;stroke-linejoin:miter;stroke-opacity:1"/>
<path class="bond-13 atom-6 atom-11" d="M 114.777,287.164 L 94.1217,298.31" style="fill:none;fill-rule:evenodd;stroke:#000000;stroke-width:2.0px;stroke-linecap:butt;stroke-linejoin:miter;stroke-opacity:1"/>
<path class="bond-14 atom-7 atom-8" d="M 156.463,219.531 L 139.188,228.853" style="fill:none;fill-rule:evenodd;stroke:#000000;stroke-width:2.0px;stroke-linecap:butt;stroke-linejoin:miter;stroke-opacity:1"/>
<path class="bond-14 atom-7 atom-8" d="M 158.229,229.003 L 146.136,235.528" style="fill:none;fill-rule:evenodd;stroke:#000000;stroke-width:2.0px;stroke-linecap:butt;stroke-linejoin:miter;stroke-opacity:1"/>
<path class="bond-15 atom-7 atom-12" d="M 171.289,203.935 L 172.17,173.323" style="fill:none;fill-rule:evenodd;stroke:#000000;stroke-width:2.0px;stroke-linecap:butt;stroke-linejoin:miter;stroke-opacity:1"/>
<path class="bond-16 atom-13 atom-8" d="M 104.11,217.044 L 111.443,221.564" style="fill:none;fill-rule:evenodd;stroke:#0000FF;stroke-width:2.0px;stroke-linecap:butt;stroke-linejoin:miter;stroke-opacity:1"/>
<path class="bond-16 atom-13 atom-8" d="M 111.443,221.564 L 118.776,226.084" style="fill:none;fill-rule:evenodd;stroke:#000000;stroke-width:2.0px;stroke-linecap:butt;stroke-linejoin:miter;stroke-opacity:1"/>
<path class="bond-17 atom-13 atom-27" d="M 91.8732,201.687 L 92.3141,186.363" style="fill:none;fill-rule:evenodd;stroke:#0000FF;stroke-width:2.0px;stroke-linecap:butt;stroke-linejoin:miter;stroke-opacity:1"/>
<path class="bond-17 atom-13 atom-27" d="M 92.3141,186.363 L 92.755,171.039" style="fill:none;fill-rule:evenodd;stroke:#000000;stroke-width:2.0px;stroke-linecap:butt;stroke-linejoin:miter;stroke-opacity:1"/>
<path class="bond-18 atom-13 atom-28" d="M 77.4227,217.044 L 66.9775,222.681" style="fill:none;fill-rule:evenodd;stroke:#0000FF;stroke-width:2.0px;stroke-linecap:butt;stroke-linejoin:miter;stroke-opacity:1"/>
<path class="bond-18 atom-13 atom-28" d="M 66.9775,222.681 L 56.5322,228.317" style="fill:none;fill-rule:evenodd;stroke:#000000;stroke-width:2.0px;stroke-linecap:butt;stroke-linejoin:miter;stroke-opacity:1"/>
<path class="bond-19 atom-14 atom-15" d="M 341.333,269.932 L 355.715,278.797" style="fill:none;fill-rule:evenodd;stroke:#000000;stroke-width:2.0px;stroke-linecap:butt;stroke-linejoin:miter;stroke-opacity:1"/>
<path class="bond-19 atom-14 atom-15" d="M 348.304,263.453 L 358.371,269.658" style="fill:none;fill-rule:evenodd;stroke:#000000;stroke-width:2.0px;stroke-linecap:butt;stroke-linejoin:miter;stroke-opacity:1"/>
<path class="bond-20 atom-14 atom-16" d="M 328.797,254.429 L 329.68,223.744" style="fill:none;fill-rule:evenodd;stroke:#000000;stroke-width:2.0px;stroke-linecap:butt;stroke-linejoin:miter;stroke-opacity:1"/>
<path class="bond-21 atom-15 atom-17" d="M 381.037,278.901 L 394.094,271.855" style="fill:none;fill-rule:evenodd;stroke:#000000;stroke-width:2.0px;stroke-linecap:butt;stroke-linejoin:miter;stroke-opacity:1"/>
<path class="bond-22 atom-15 atom-20" d="M 367.403,293.853 L 366.518,324.613" style="fill:none;fill-rule:evenodd;stroke:#000000;stroke-width:2.0px;stroke-linecap:butt;stroke-linejoin:miter;stroke-opacity:1"/>
<path class="bond-23 atom-16 atom-18" d="M 342.38,209.484 L 356.317,201.963" style="fill:none;fill-rule:evenodd;stroke:#000000;stroke-width:2.0px;stroke-linecap:butt;stroke-linejoin:miter;stroke-opacity:1"/>
<path class="bond-23 atom-16 atom-18" d="M 348.827,216.429 L 358.583,211.165" style="fill:none;fill-rule:evenodd;stroke:#000000;stroke-width:2.0px;stroke-linecap:butt;stroke-linejoin:miter;stroke-opacity:1"/>
<path class="bond-24 atom-16 atom-21" d="M 317.379,208.505 L 296.004,195.33" style="fill:none;fill-rule:evenodd;stroke:#000000;stroke-width:2.0px;stroke-linecap:butt;stroke-linejoin:miter;stroke-opacity:1"/>
<path class="bond-25 atom-17 atom-19" d="M 408.212,256.713 L 409.095,226.029" style="fill:none;fill-rule:evenodd;stroke:#000000;stroke-width:2.0px;stroke-linecap:butt;stroke-linejoin:miter;stroke-opacity:1"/>
<path class="bond-25 atom-17 atom-19" d="M 399.174,251.847 L 399.792,230.368" style="fill:none;fill-rule:evenodd;stroke:#000000;stroke-width:2.0px;stroke-linecap:butt;stroke-linejoin:miter;stroke-opacity:1"/>
<path class="bond-26 atom-17 atom-22" d="M 420.807,272.254 L 441.187,284.815" style="fill:none;fill-rule:evenodd;stroke:#000000;stroke-width:2.0px;stroke-linecap:butt;stroke-linejoin:miter;stroke-opacity:1"/>
<path class="bond-27 atom-18 atom-19" d="M 383.019,202.3 L 397.401,211.165" style="fill:none;fill-rule:evenodd;stroke:#000000;stroke-width:2.0px;stroke-linecap:butt;stroke-linejoin:miter;stroke-opacity:1"/>
<path class="bond-28 atom-18 atom-23" d="M 370.483,186.796 L 371.366,156.112" style="fill:none;fill-rule:evenodd;stroke:#000000;stroke-width:2.0px;stroke-linecap:butt;stroke-linejoin:miter;stroke-opacity:1"/>
<path class="bond-29 atom-19 atom-24" d="M 423.262,210.977 L 443.845,199.87" style="fill:none;fill-rule:evenodd;stroke:#000000;stroke-width:2.0px;stroke-linecap:butt;stroke-linejoin:miter;stroke-opacity:1"/>
<path class="atom-0" d="M 153.434 303.406 Q 153.434 300.177, 154.939 298.489 Q 156.461 296.782, 159.342 296.782 Q 162.021 296.782, 163.452 298.672 L 162.241 299.663 Q 161.195 298.287, 159.342 298.287 Q 157.379 298.287, 156.333 299.608 Q 155.306 300.911, 155.306 303.406 Q 155.306 305.975, 156.37 307.296 Q 157.452 308.617, 159.544 308.617 Q 160.975 308.617, 162.645 307.754 L 163.158 309.13 Q 162.479 309.571, 161.452 309.828 Q 160.424 310.084, 159.287 310.084 Q 156.461 310.084, 154.939 308.36 Q 153.434 306.635, 153.434 303.406 " fill="#000000"/>
<path class="atom-0" d="M 164.828 307.773 L 166.663 307.773 L 166.663 309.607 L 164.828 309.607 L 164.828 307.773 M 164.828 301.461 L 166.663 301.461 L 166.663 303.296 L 164.828 303.296 L 164.828 301.461 " fill="#000000"/>
<path class="atom-0" d="M 168.369 308.451 L 171.213 308.451 L 171.213 298.746 L 168.075 299.718 L 167.653 298.636 L 171.635 296.856 L 172.938 297.076 L 172.938 308.451 L 175.488 308.451 L 175.488 309.919 L 168.369 309.919 L 168.369 308.451 " fill="#000000"/>
<path class="atom-1" d="M 193.443 281.623 Q 193.443 278.394, 194.948 276.706 Q 196.471 275, 199.351 275 Q 202.03 275, 203.461 276.89 L 202.25 277.88 Q 201.204 276.504, 199.351 276.504 Q 197.388 276.504, 196.342 277.825 Q 195.315 279.128, 195.315 281.623 Q 195.315 284.192, 196.379 285.513 Q 197.461 286.834, 199.553 286.834 Q 200.984 286.834, 202.654 285.972 L 203.167 287.348 Q 202.489 287.788, 201.461 288.045 Q 200.434 288.302, 199.296 288.302 Q 196.471 288.302, 194.948 286.577 Q 193.443 284.852, 193.443 281.623 " fill="#000000"/>
<path class="atom-1" d="M 204.837 285.99 L 206.672 285.99 L 206.672 287.825 L 204.837 287.825 L 204.837 285.99 M 204.837 279.678 L 206.672 279.678 L 206.672 281.513 L 204.837 281.513 L 204.837 279.678 " fill="#000000"/>
<path class="atom-1" d="M 207.626 277.605 Q 208.103 276.376, 209.24 275.697 Q 210.378 275, 211.956 275 Q 213.919 275, 215.02 276.064 Q 216.121 277.128, 216.121 279.018 Q 216.121 280.944, 214.69 282.742 Q 213.277 284.541, 210.341 286.669 L 216.341 286.669 L 216.341 288.137 L 207.589 288.137 L 207.589 286.907 Q 210.011 285.183, 211.442 283.898 Q 212.892 282.614, 213.589 281.458 Q 214.286 280.302, 214.286 279.11 Q 214.286 277.862, 213.662 277.165 Q 213.038 276.468, 211.956 276.468 Q 210.91 276.468, 210.213 276.89 Q 209.516 277.312, 209.02 278.247 L 207.626 277.605 " fill="#000000"/>
<path class="atom-2" d="M 234.855 299.214 L 239.111 306.094 Q 239.533 306.773, 240.212 308.003 Q 240.891 309.232, 240.928 309.305 L 240.928 299.214 L 242.652 299.214 L 242.652 312.204 L 240.873 312.204 L 236.304 304.682 Q 235.772 303.801, 235.203 302.792 Q 234.653 301.783, 234.488 301.471 L 234.488 312.204 L 232.8 312.204 L 232.8 299.214 L 234.855 299.214 " fill="#0000FF"/>
<path class="atom-2" d="M 244.029 310.057 L 245.863 310.057 L 245.863 311.892 L 244.029 311.892 L 244.029 310.057 M 244.029 303.746 L 245.863 303.746 L 245.863 305.581 L 244.029 305.581 L 244.029 303.746 " fill="#0000FF"/>
<path class="atom-2" d="M 252.872 305.36 Q 254.138 305.727, 254.744 306.553 Q 255.367 307.36, 255.367 308.645 Q 255.367 309.746, 254.817 310.608 Q 254.267 311.452, 253.257 311.929 Q 252.248 312.388, 250.927 312.388 Q 249.533 312.388, 248.487 311.911 Q 247.46 311.415, 246.634 310.424 L 247.68 309.36 Q 248.487 310.241, 249.166 310.59 Q 249.845 310.92, 250.927 310.92 Q 252.102 310.92, 252.817 310.296 Q 253.533 309.654, 253.533 308.626 Q 253.533 307.305, 252.78 306.718 Q 252.046 306.113, 250.45 306.113 L 249.514 306.113 L 249.514 304.792 L 250.34 304.792 Q 251.753 304.773, 252.505 304.168 Q 253.257 303.544, 253.257 302.388 Q 253.257 301.544, 252.634 301.049 Q 252.01 300.535, 250.946 300.535 Q 249.863 300.535, 249.184 300.92 Q 248.524 301.306, 248.01 302.278 L 246.744 301.599 Q 247.203 300.517, 248.304 299.801 Q 249.404 299.067, 250.946 299.067 Q 252.854 299.067, 253.973 299.966 Q 255.092 300.865, 255.092 302.388 Q 255.092 303.434, 254.523 304.186 Q 253.955 304.938, 252.872 305.36 " fill="#0000FF"/>
<path class="atom-3" d="M 241.442 344.991 L 243.203 344.991 L 243.203 350.513 L 249.845 350.513 L 249.845 344.991 L 251.606 344.991 L 251.606 357.981 L 249.845 357.981 L 249.845 351.981 L 243.203 351.981 L 243.203 357.981 L 241.442 357.981 L 241.442 344.991 " fill="#000000"/>
<path class="atom-3" d="M 252.983 355.834 L 254.817 355.834 L 254.817 357.669 L 252.983 357.669 L 252.983 355.834 M 252.983 349.523 L 254.817 349.523 L 254.817 351.357 L 252.983 351.357 L 252.983 349.523 " fill="#000000"/>
<path class="atom-3" d="M 263.808 353.522 L 265.367 353.522 L 265.367 354.99 L 263.808 354.99 L 263.808 357.981 L 262.083 357.981 L 262.083 354.99 L 255.368 354.99 L 255.368 353.834 L 261.055 344.991 L 263.808 344.991 L 263.808 353.522 M 257.496 353.522 L 262.083 353.522 L 262.083 346.165 L 257.496 353.522 " fill="#000000"/>
<path class="atom-4" d="M 272.867 283.908 Q 272.867 280.679, 274.372 278.991 Q 275.894 277.285, 278.775 277.285 Q 281.454 277.285, 282.885 279.174 L 281.674 280.165 Q 280.628 278.789, 278.775 278.789 Q 276.812 278.789, 275.766 280.11 Q 274.738 281.413, 274.738 283.908 Q 274.738 286.477, 275.803 287.798 Q 276.885 289.119, 278.977 289.119 Q 280.408 289.119, 282.078 288.256 L 282.591 289.633 Q 281.912 290.073, 280.885 290.33 Q 279.857 290.587, 278.72 290.587 Q 275.894 290.587, 274.372 288.862 Q 272.867 287.137, 272.867 283.908 " fill="#000000"/>
<path class="atom-4" d="M 284.261 288.275 L 286.096 288.275 L 286.096 290.11 L 284.261 290.11 L 284.261 288.275 M 284.261 281.963 L 286.096 281.963 L 286.096 283.798 L 284.261 283.798 L 284.261 281.963 " fill="#000000"/>
<path class="atom-4" d="M 291.655 282.294 Q 292.793 282.294, 293.728 282.789 Q 294.664 283.266, 295.196 284.183 Q 295.728 285.082, 295.728 286.312 Q 295.728 287.651, 295.068 288.623 Q 294.425 289.578, 293.361 290.073 Q 292.297 290.568, 291.086 290.568 Q 289.894 290.568, 288.793 290.128 Q 287.692 289.688, 286.94 288.844 L 288.041 287.706 Q 288.646 288.367, 289.472 288.734 Q 290.297 289.082, 291.141 289.082 Q 292.297 289.082, 293.086 288.367 Q 293.893 287.651, 293.893 286.348 Q 293.893 284.972, 293.086 284.33 Q 292.297 283.67, 291.031 283.67 Q 289.894 283.67, 288.628 284.165 L 287.619 283.688 L 288.242 277.431 L 294.921 277.431 L 294.737 278.899 L 289.747 278.899 L 289.362 282.752 Q 290.517 282.294, 291.655 282.294 " fill="#000000"/>
<path class="atom-5" d="M 194.545 235.773 Q 194.545 232.544, 196.05 230.856 Q 197.573 229.15, 200.453 229.15 Q 203.132 229.15, 204.563 231.039 L 203.352 232.03 Q 202.306 230.654, 200.453 230.654 Q 198.49 230.654, 197.444 231.975 Q 196.417 233.278, 196.417 235.773 Q 196.417 238.342, 197.481 239.663 Q 198.563 240.984, 200.655 240.984 Q 202.086 240.984, 203.756 240.122 L 204.269 241.498 Q 203.591 241.938, 202.563 242.195 Q 201.536 242.452, 200.398 242.452 Q 197.573 242.452, 196.05 240.727 Q 194.545 239.002, 194.545 235.773 " fill="#000000"/>
<path class="atom-5" d="M 205.939 240.14 L 207.774 240.14 L 207.774 241.975 L 205.939 241.975 L 205.939 240.14 M 205.939 233.828 L 207.774 233.828 L 207.774 235.663 L 205.939 235.663 L 205.939 233.828 " fill="#000000"/>
<path class="atom-5" d="M 214.104 234.177 Q 215.241 234.177, 216.14 234.672 Q 217.039 235.168, 217.535 236.067 Q 218.03 236.966, 218.03 238.103 Q 218.03 239.369, 217.461 240.36 Q 216.911 241.333, 215.92 241.883 Q 214.929 242.433, 213.663 242.433 Q 211.352 242.433, 210.177 240.874 Q 209.021 239.296, 209.021 236.177 Q 209.021 232.727, 210.453 230.948 Q 211.902 229.15, 214.673 229.15 Q 215.48 229.15, 216.159 229.333 Q 216.856 229.517, 217.516 229.902 L 216.801 231.131 Q 215.847 230.617, 214.691 230.617 Q 212.856 230.617, 211.92 231.81 Q 210.985 232.984, 210.875 235.425 Q 211.535 234.819, 212.361 234.507 Q 213.205 234.177, 214.104 234.177 M 213.682 240.929 Q 214.379 240.929, 214.948 240.562 Q 215.535 240.195, 215.865 239.553 Q 216.195 238.911, 216.195 238.122 Q 216.195 236.966, 215.553 236.305 Q 214.911 235.645, 213.774 235.645 Q 212.985 235.645, 212.196 235.975 Q 211.425 236.287, 210.875 236.837 Q 210.948 238.984, 211.627 239.956 Q 212.306 240.929, 213.682 240.929 " fill="#000000"/>
<path class="atom-6" d="M 114.278 279.338 Q 114.278 276.109, 115.782 274.421 Q 117.305 272.715, 120.186 272.715 Q 122.864 272.715, 124.296 274.605 L 123.085 275.596 Q 122.039 274.219, 120.186 274.219 Q 118.222 274.219, 117.177 275.54 Q 116.149 276.843, 116.149 279.338 Q 116.149 281.907, 117.213 283.228 Q 118.296 284.549, 120.387 284.549 Q 121.819 284.549, 123.488 283.687 L 124.002 285.063 Q 123.323 285.503, 122.296 285.76 Q 121.268 286.017, 120.131 286.017 Q 117.305 286.017, 115.782 284.292 Q 114.278 282.568, 114.278 279.338 " fill="#000000"/>
<path class="atom-6" d="M 125.672 283.705 L 127.506 283.705 L 127.506 285.54 L 125.672 285.54 L 125.672 283.705 M 125.672 277.394 L 127.506 277.394 L 127.506 279.228 L 125.672 279.228 L 125.672 277.394 " fill="#000000"/>
<path class="atom-6" d="M 134.644 274.33 L 127.837 274.33 L 127.837 272.862 L 136.46 272.862 L 136.46 274.164 L 131.213 285.852 L 129.451 285.852 L 134.644 274.33 " fill="#000000"/>
<path class="atom-7" d="M 155.465 211.706 Q 155.465 208.477, 156.97 206.789 Q 158.493 205.082, 161.373 205.082 Q 164.052 205.082, 165.483 206.972 L 164.272 207.963 Q 163.226 206.587, 161.373 206.587 Q 159.41 206.587, 158.364 207.908 Q 157.337 209.21, 157.337 211.706 Q 157.337 214.274, 158.401 215.595 Q 159.483 216.916, 161.575 216.916 Q 163.006 216.916, 164.676 216.054 L 165.19 217.43 Q 164.511 217.871, 163.483 218.127 Q 162.456 218.384, 161.318 218.384 Q 158.493 218.384, 156.97 216.66 Q 155.465 214.935, 155.465 211.706 " fill="#000000"/>
<path class="atom-7" d="M 166.859 216.072 L 168.694 216.072 L 168.694 217.907 L 166.859 217.907 L 166.859 216.072 M 166.859 209.761 L 168.694 209.761 L 168.694 211.596 L 166.859 211.596 L 166.859 209.761 " fill="#000000"/>
<path class="atom-7" d="M 176.455 211.339 Q 177.648 211.852, 178.326 212.623 Q 179.005 213.375, 179.005 214.66 Q 179.005 215.761, 178.437 216.623 Q 177.868 217.467, 176.84 217.944 Q 175.831 218.403, 174.492 218.403 Q 172.327 218.403, 171.079 217.412 Q 169.832 216.403, 169.832 214.66 Q 169.832 213.596, 170.382 212.807 Q 170.932 211.999, 172.07 211.394 Q 171.226 210.917, 170.767 210.22 Q 170.309 209.504, 170.309 208.403 Q 170.309 206.88, 171.409 205.981 Q 172.529 205.082, 174.418 205.082 Q 176.308 205.082, 177.409 205.981 Q 178.528 206.88, 178.528 208.403 Q 178.528 209.357, 177.996 210.073 Q 177.482 210.77, 176.455 211.339 M 174.418 206.458 Q 173.336 206.458, 172.73 206.972 Q 172.143 207.486, 172.143 208.403 Q 172.143 209.082, 172.547 209.541 Q 172.951 209.981, 173.519 210.238 Q 174.107 210.495, 175.226 210.88 Q 176.015 210.33, 176.345 209.743 Q 176.694 209.155, 176.694 208.403 Q 176.694 207.486, 176.088 206.972 Q 175.501 206.458, 174.418 206.458 M 174.492 217.027 Q 175.703 217.027, 176.437 216.384 Q 177.171 215.724, 177.171 214.641 Q 177.171 213.944, 176.785 213.504 Q 176.4 213.063, 175.813 212.807 Q 175.244 212.55, 174.217 212.219 L 173.391 211.944 Q 172.474 212.495, 172.07 213.155 Q 171.666 213.797, 171.666 214.641 Q 171.666 215.724, 172.437 216.384 Q 173.208 217.027, 174.492 217.027 " fill="#000000"/>
<path class="atom-8" d="M 115.21 233.488 Q 115.21 230.259, 116.715 228.571 Q 118.237 226.865, 121.118 226.865 Q 123.797 226.865, 125.228 228.755 L 124.017 229.745 Q 122.971 228.369, 121.118 228.369 Q 119.155 228.369, 118.109 229.69 Q 117.082 230.993, 117.082 233.488 Q 117.082 236.057, 118.146 237.378 Q 119.228 238.699, 121.32 238.699 Q 122.751 238.699, 124.421 237.837 L 124.934 239.213 Q 124.255 239.653, 123.228 239.91 Q 122.2 240.167, 121.063 240.167 Q 118.237 240.167, 116.715 238.442 Q 115.21 236.718, 115.21 233.488 " fill="#000000"/>
<path class="atom-8" d="M 126.604 237.855 L 128.439 237.855 L 128.439 239.69 L 126.604 239.69 L 126.604 237.855 M 126.604 231.543 L 128.439 231.543 L 128.439 233.378 L 126.604 233.378 L 126.604 231.543 " fill="#000000"/>
<path class="atom-8" d="M 133.815 226.865 Q 136.126 226.865, 137.282 228.443 Q 138.456 230.002, 138.456 233.121 Q 138.456 236.571, 137.007 238.369 Q 135.576 240.149, 132.805 240.149 Q 131.998 240.149, 131.301 239.965 Q 130.622 239.782, 129.962 239.396 L 130.677 238.167 Q 131.631 238.681, 132.787 238.681 Q 134.622 238.681, 135.558 237.506 Q 136.493 236.314, 136.603 233.874 Q 135.943 234.479, 135.099 234.809 Q 134.273 235.121, 133.374 235.121 Q 132.237 235.121, 131.338 234.626 Q 130.439 234.131, 129.943 233.231 Q 129.448 232.332, 129.448 231.195 Q 129.448 229.929, 129.998 228.956 Q 130.567 227.966, 131.558 227.415 Q 132.549 226.865, 133.815 226.865 M 131.283 231.177 Q 131.283 232.332, 131.925 232.993 Q 132.567 233.653, 133.704 233.653 Q 134.493 233.653, 135.264 233.342 Q 136.053 233.011, 136.603 232.461 Q 136.53 230.314, 135.851 229.342 Q 135.172 228.369, 133.796 228.369 Q 133.099 228.369, 132.512 228.736 Q 131.943 229.103, 131.613 229.745 Q 131.283 230.388, 131.283 231.177 " fill="#000000"/>
<path class="atom-9" d="M 162.027 342.779 L 163.789 342.779 L 163.789 348.302 L 170.43 348.302 L 170.43 342.779 L 172.192 342.779 L 172.192 355.769 L 170.43 355.769 L 170.43 349.77 L 163.789 349.77 L 163.789 355.769 L 162.027 355.769 L 162.027 342.779 " fill="#000000"/>
<path class="atom-9" d="M 173.568 353.623 L 175.403 353.623 L 175.403 355.457 L 173.568 355.457 L 173.568 353.623 M 173.568 347.311 L 175.403 347.311 L 175.403 349.146 L 173.568 349.146 L 173.568 347.311 " fill="#000000"/>
<path class="atom-9" d="M 177.109 354.302 L 179.953 354.302 L 179.953 344.596 L 176.815 345.568 L 176.393 344.486 L 180.375 342.706 L 181.678 342.926 L 181.678 354.302 L 184.228 354.302 L 184.228 355.769 L 177.109 355.769 L 177.109 354.302 " fill="#000000"/>
<path class="atom-9" d="M 190.099 355.916 Q 187.714 355.916, 186.521 354.155 Q 185.347 352.393, 185.347 349.256 Q 185.347 346.119, 186.521 344.376 Q 187.696 342.632, 190.099 342.632 Q 192.503 342.632, 193.677 344.376 Q 194.851 346.119, 194.851 349.256 Q 194.851 352.393, 193.659 354.155 Q 192.484 355.916, 190.099 355.916 M 190.099 354.448 Q 191.512 354.448, 192.264 353.146 Q 193.016 351.825, 193.016 349.256 Q 193.016 346.706, 192.264 345.403 Q 191.512 344.1, 190.099 344.1 Q 188.705 344.1, 187.934 345.403 Q 187.182 346.706, 187.182 349.256 Q 187.182 351.825, 187.934 353.146 Q 188.705 354.448, 190.099 354.448 " fill="#000000"/>
<path class="atom-10" d="M 245.399 207.477 L 247.161 207.477 L 247.161 213 L 253.803 213 L 253.803 207.477 L 255.564 207.477 L 255.564 220.467 L 253.803 220.467 L 253.803 214.468 L 247.161 214.468 L 247.161 220.467 L 245.399 220.467 L 245.399 207.477 " fill="#000000"/>
<path class="atom-10" d="M 256.94 218.321 L 258.775 218.321 L 258.775 220.155 L 256.94 220.155 L 256.94 218.321 M 256.94 212.009 L 258.775 212.009 L 258.775 213.844 L 256.94 213.844 L 256.94 212.009 " fill="#000000"/>
<path class="atom-10" d="M 260.481 218.999 L 263.325 218.999 L 263.325 209.294 L 260.188 210.266 L 259.766 209.183 L 263.747 207.404 L 265.05 207.624 L 265.05 218.999 L 267.6 218.999 L 267.6 220.467 L 260.481 220.467 L 260.481 218.999 " fill="#000000"/>
<path class="atom-10" d="M 269.306 218.999 L 272.15 218.999 L 272.15 209.294 L 269.013 210.266 L 268.591 209.183 L 272.572 207.404 L 273.875 207.624 L 273.875 218.999 L 276.425 218.999 L 276.425 220.467 L 269.306 220.467 L 269.306 218.999 " fill="#000000"/>
<path class="atom-11" d="M 61.52 294.644 L 63.2814 294.644 L 63.2814 300.167 L 69.9233 300.167 L 69.9233 294.644 L 71.6846 294.644 L 71.6846 307.634 L 69.9233 307.634 L 69.9233 301.635 L 63.2814 301.635 L 63.2814 307.634 L 61.52 307.634 L 61.52 294.644 " fill="#000000"/>
<path class="atom-11" d="M 73.0607 305.488 L 74.8955 305.488 L 74.8955 307.323 L 73.0607 307.323 L 73.0607 305.488 M 73.0607 299.176 L 74.8955 299.176 L 74.8955 301.011 L 73.0607 301.011 L 73.0607 299.176 " fill="#000000"/>
<path class="atom-11" d="M 76.6018 306.167 L 79.4457 306.167 L 79.4457 296.461 L 76.3082 297.433 L 75.8862 296.351 L 79.8677 294.571 L 81.1704 294.791 L 81.1704 306.167 L 83.7207 306.167 L 83.7207 307.634 L 76.6018 307.634 L 76.6018 306.167 " fill="#000000"/>
<path class="atom-11" d="M 84.6747 297.103 Q 85.1518 295.874, 86.2893 295.195 Q 87.4269 294.498, 89.0048 294.498 Q 90.968 294.498, 92.0688 295.562 Q 93.1697 296.626, 93.1697 298.516 Q 93.1697 300.442, 91.7386 302.24 Q 90.3258 304.038, 87.3902 306.167 L 93.3899 306.167 L 93.3899 307.634 L 84.6381 307.634 L 84.6381 306.405 Q 87.0599 304.68, 88.4911 303.396 Q 89.9405 302.112, 90.6377 300.956 Q 91.3349 299.8, 91.3349 298.607 Q 91.3349 297.36, 90.7111 296.663 Q 90.0873 295.965, 89.0048 295.965 Q 87.959 295.965, 87.2618 296.387 Q 86.5646 296.809, 86.0692 297.745 L 84.6747 297.103 " fill="#000000"/>
<path class="atom-12" d="M 167.304 159.379 L 169.065 159.379 L 169.065 164.902 L 175.707 164.902 L 175.707 159.379 L 177.468 159.379 L 177.468 172.369 L 175.707 172.369 L 175.707 166.369 L 169.065 166.369 L 169.065 172.369 L 167.304 172.369 L 167.304 159.379 " fill="#000000"/>
<path class="atom-12" d="M 178.844 170.222 L 180.679 170.222 L 180.679 172.057 L 178.844 172.057 L 178.844 170.222 M 178.844 163.911 L 180.679 163.911 L 180.679 165.746 L 178.844 165.746 L 178.844 163.911 " fill="#000000"/>
<path class="atom-12" d="M 182.386 170.901 L 185.229 170.901 L 185.229 161.195 L 182.092 162.168 L 181.67 161.085 L 185.651 159.306 L 186.954 159.526 L 186.954 170.901 L 189.504 170.901 L 189.504 172.369 L 182.386 172.369 L 182.386 170.901 " fill="#000000"/>
<path class="atom-12" d="M 196.513 165.525 Q 197.779 165.892, 198.385 166.718 Q 199.008 167.525, 199.008 168.81 Q 199.008 169.91, 198.458 170.773 Q 197.908 171.617, 196.899 172.094 Q 195.889 172.553, 194.568 172.553 Q 193.174 172.553, 192.128 172.075 Q 191.101 171.58, 190.275 170.589 L 191.321 169.525 Q 192.128 170.406, 192.807 170.754 Q 193.486 171.085, 194.568 171.085 Q 195.743 171.085, 196.458 170.461 Q 197.174 169.819, 197.174 168.791 Q 197.174 167.47, 196.421 166.883 Q 195.688 166.278, 194.091 166.278 L 193.156 166.278 L 193.156 164.957 L 193.981 164.957 Q 195.394 164.938, 196.146 164.333 Q 196.899 163.709, 196.899 162.553 Q 196.899 161.709, 196.275 161.214 Q 195.651 160.7, 194.587 160.7 Q 193.504 160.7, 192.825 161.085 Q 192.165 161.471, 191.651 162.443 L 190.385 161.764 Q 190.844 160.682, 191.945 159.966 Q 193.046 159.232, 194.587 159.232 Q 196.495 159.232, 197.614 160.131 Q 198.733 161.03, 198.733 162.553 Q 198.733 163.599, 198.165 164.351 Q 197.596 165.103, 196.513 165.525 " fill="#000000"/>
<path class="atom-13" d="M 73.761 202.907 L 78.0177 209.788 Q 78.4397 210.467, 79.1185 211.696 Q 79.7974 212.925, 79.8341 212.999 L 79.8341 202.907 L 81.5588 202.907 L 81.5588 215.898 L 79.7791 215.898 L 75.2105 208.375 Q 74.6784 207.494, 74.1096 206.485 Q 73.5592 205.476, 73.3941 205.164 L 73.3941 215.898 L 71.7061 215.898 L 71.7061 202.907 L 73.761 202.907 " fill="#0000FF"/>
<path class="atom-13" d="M 82.9349 213.751 L 84.7696 213.751 L 84.7696 215.586 L 82.9349 215.586 L 82.9349 213.751 M 82.9349 207.439 L 84.7696 207.439 L 84.7696 209.274 L 82.9349 209.274 L 82.9349 207.439 " fill="#0000FF"/>
<path class="atom-13" d="M 86.4759 214.43 L 89.3198 214.43 L 89.3198 204.724 L 86.1824 205.696 L 85.7604 204.614 L 89.7418 202.834 L 91.0445 203.054 L 91.0445 214.43 L 93.5948 214.43 L 93.5948 215.898 L 86.4759 215.898 L 86.4759 214.43 " fill="#0000FF"/>
<path class="atom-13" d="M 102.585 211.439 L 104.145 211.439 L 104.145 212.907 L 102.585 212.907 L 102.585 215.898 L 100.86 215.898 L 100.86 212.907 L 94.1452 212.907 L 94.1452 211.751 L 99.833 202.907 L 102.585 202.907 L 102.585 211.439 M 96.2736 211.439 L 100.86 211.439 L 100.86 204.082 L 96.2736 211.439 " fill="#0000FF"/>
<path class="atom-14" d="M 308.716 262.125 Q 308.716 258.896, 310.22 257.208 Q 311.743 255.502, 314.624 255.502 Q 317.303 255.502, 318.734 257.392 L 317.523 258.383 Q 316.477 257.006, 314.624 257.006 Q 312.661 257.006, 311.615 258.328 Q 310.587 259.63, 310.587 262.125 Q 310.587 264.694, 311.651 266.015 Q 312.734 267.336, 314.826 267.336 Q 316.257 267.336, 317.926 266.474 L 318.44 267.85 Q 317.761 268.29, 316.734 268.547 Q 315.706 268.804, 314.569 268.804 Q 311.743 268.804, 310.22 267.079 Q 308.716 265.355, 308.716 262.125 " fill="#000000"/>
<path class="atom-14" d="M 320.11 266.492 L 321.944 266.492 L 321.944 268.327 L 320.11 268.327 L 320.11 266.492 M 320.11 260.181 L 321.944 260.181 L 321.944 262.015 L 320.11 262.015 L 320.11 260.181 " fill="#000000"/>
<path class="atom-14" d="M 323.651 267.171 L 326.495 267.171 L 326.495 257.465 L 323.357 258.438 L 322.935 257.355 L 326.917 255.575 L 328.219 255.796 L 328.219 267.171 L 330.77 267.171 L 330.77 268.639 L 323.651 268.639 L 323.651 267.171 " fill="#000000"/>
<path class="atom-14" d="M 336.329 260.511 Q 337.467 260.511, 338.402 261.006 Q 339.338 261.483, 339.87 262.401 Q 340.402 263.3, 340.402 264.529 Q 340.402 265.868, 339.742 266.841 Q 339.1 267.795, 338.035 268.29 Q 336.971 268.786, 335.76 268.786 Q 334.568 268.786, 333.467 268.345 Q 332.366 267.905, 331.614 267.061 L 332.715 265.923 Q 333.32 266.584, 334.146 266.951 Q 334.971 267.299, 335.815 267.299 Q 336.971 267.299, 337.76 266.584 Q 338.567 265.868, 338.567 264.566 Q 338.567 263.19, 337.76 262.547 Q 336.971 261.887, 335.705 261.887 Q 334.568 261.887, 333.302 262.382 L 332.293 261.905 L 332.916 255.649 L 339.595 255.649 L 339.411 257.117 L 334.421 257.117 L 334.036 260.97 Q 335.191 260.511, 336.329 260.511 " fill="#000000"/>
<path class="atom-15" d="M 347.58 286.193 Q 347.58 282.964, 349.085 281.276 Q 350.607 279.569, 353.488 279.569 Q 356.167 279.569, 357.598 281.459 L 356.387 282.45 Q 355.341 281.074, 353.488 281.074 Q 351.525 281.074, 350.479 282.395 Q 349.452 283.698, 349.452 286.193 Q 349.452 288.762, 350.516 290.083 Q 351.598 291.404, 353.69 291.404 Q 355.121 291.404, 356.791 290.541 L 357.304 291.917 Q 356.626 292.358, 355.598 292.615 Q 354.571 292.871, 353.433 292.871 Q 350.607 292.871, 349.085 291.147 Q 347.58 289.422, 347.58 286.193 " fill="#000000"/>
<path class="atom-15" d="M 358.974 290.56 L 360.809 290.56 L 360.809 292.394 L 358.974 292.394 L 358.974 290.56 M 358.974 284.248 L 360.809 284.248 L 360.809 286.083 L 358.974 286.083 L 358.974 284.248 " fill="#000000"/>
<path class="atom-15" d="M 362.515 291.239 L 365.359 291.239 L 365.359 281.533 L 362.222 282.505 L 361.8 281.423 L 365.781 279.643 L 367.084 279.863 L 367.084 291.239 L 369.634 291.239 L 369.634 292.706 L 362.515 292.706 L 362.515 291.239 " fill="#000000"/>
<path class="atom-15" d="M 375.964 284.597 Q 377.101 284.597, 378 285.092 Q 378.9 285.587, 379.395 286.486 Q 379.89 287.386, 379.89 288.523 Q 379.89 289.789, 379.322 290.78 Q 378.771 291.752, 377.78 292.303 Q 376.79 292.853, 375.524 292.853 Q 373.212 292.853, 372.038 291.294 Q 370.882 289.716, 370.882 286.597 Q 370.882 283.147, 372.313 281.368 Q 373.762 279.569, 376.533 279.569 Q 377.34 279.569, 378.019 279.753 Q 378.716 279.936, 379.377 280.322 L 378.661 281.551 Q 377.707 281.037, 376.551 281.037 Q 374.716 281.037, 373.781 282.23 Q 372.845 283.404, 372.735 285.844 Q 373.395 285.239, 374.221 284.927 Q 375.065 284.597, 375.964 284.597 M 375.542 291.349 Q 376.239 291.349, 376.808 290.982 Q 377.395 290.615, 377.725 289.973 Q 378.056 289.33, 378.056 288.541 Q 378.056 287.386, 377.413 286.725 Q 376.771 286.064, 375.634 286.064 Q 374.845 286.064, 374.056 286.395 Q 373.285 286.707, 372.735 287.257 Q 372.808 289.404, 373.487 290.376 Q 374.166 291.349, 375.542 291.349 " fill="#000000"/>
<path class="atom-16" d="M 310.225 216.275 Q 310.225 213.046, 311.73 211.358 Q 313.253 209.652, 316.133 209.652 Q 318.812 209.652, 320.243 211.542 L 319.032 212.532 Q 317.986 211.156, 316.133 211.156 Q 314.17 211.156, 313.124 212.477 Q 312.097 213.78, 312.097 216.275 Q 312.097 218.844, 313.161 220.165 Q 314.243 221.486, 316.335 221.486 Q 317.766 221.486, 319.436 220.624 L 319.95 222 Q 319.271 222.44, 318.243 222.697 Q 317.216 222.954, 316.078 222.954 Q 313.253 222.954, 311.73 221.229 Q 310.225 219.505, 310.225 216.275 " fill="#000000"/>
<path class="atom-16" d="M 321.619 220.642 L 323.454 220.642 L 323.454 222.477 L 321.619 222.477 L 321.619 220.642 M 321.619 214.331 L 323.454 214.331 L 323.454 216.165 L 321.619 216.165 L 321.619 214.331 " fill="#000000"/>
<path class="atom-16" d="M 325.16 221.321 L 328.004 221.321 L 328.004 211.615 L 324.867 212.588 L 324.445 211.505 L 328.426 209.725 L 329.729 209.945 L 329.729 221.321 L 332.279 221.321 L 332.279 222.789 L 325.16 222.789 L 325.16 221.321 " fill="#000000"/>
<path class="atom-16" d="M 339.416 211.266 L 332.609 211.266 L 332.609 209.799 L 341.233 209.799 L 341.233 211.101 L 335.985 222.789 L 334.224 222.789 L 339.416 211.266 " fill="#000000"/>
<path class="atom-17" d="M 387.913 264.41 Q 387.913 261.181, 389.417 259.493 Q 390.94 257.787, 393.821 257.787 Q 396.499 257.787, 397.93 259.677 L 396.72 260.667 Q 395.674 259.291, 393.821 259.291 Q 391.857 259.291, 390.812 260.612 Q 389.784 261.915, 389.784 264.41 Q 389.784 266.979, 390.848 268.3 Q 391.931 269.621, 394.022 269.621 Q 395.454 269.621, 397.123 268.759 L 397.637 270.135 Q 396.958 270.575, 395.931 270.832 Q 394.903 271.089, 393.766 271.089 Q 390.94 271.089, 389.417 269.364 Q 387.913 267.639, 387.913 264.41 " fill="#000000"/>
<path class="atom-17" d="M 399.307 268.777 L 401.141 268.777 L 401.141 270.612 L 399.307 270.612 L 399.307 268.777 M 399.307 262.465 L 401.141 262.465 L 401.141 264.3 L 399.307 264.3 L 399.307 262.465 " fill="#000000"/>
<path class="atom-17" d="M 402.848 269.456 L 405.692 269.456 L 405.692 259.75 L 402.554 260.722 L 402.132 259.64 L 406.113 257.86 L 407.416 258.08 L 407.416 269.456 L 409.966 269.456 L 409.966 270.924 L 402.848 270.924 L 402.848 269.456 " fill="#000000"/>
<path class="atom-17" d="M 417.728 264.043 Q 418.92 264.557, 419.599 265.328 Q 420.278 266.08, 420.278 267.364 Q 420.278 268.465, 419.709 269.327 Q 419.14 270.171, 418.113 270.648 Q 417.104 271.107, 415.764 271.107 Q 413.599 271.107, 412.352 270.116 Q 411.104 269.107, 411.104 267.364 Q 411.104 266.3, 411.654 265.511 Q 412.205 264.704, 413.342 264.098 Q 412.498 263.621, 412.04 262.924 Q 411.581 262.209, 411.581 261.108 Q 411.581 259.585, 412.682 258.686 Q 413.801 257.787, 415.691 257.787 Q 417.581 257.787, 418.682 258.686 Q 419.801 259.585, 419.801 261.108 Q 419.801 262.062, 419.269 262.777 Q 418.755 263.475, 417.728 264.043 M 415.691 259.163 Q 414.608 259.163, 414.003 259.677 Q 413.416 260.19, 413.416 261.108 Q 413.416 261.787, 413.819 262.245 Q 414.223 262.686, 414.792 262.942 Q 415.379 263.199, 416.498 263.585 Q 417.287 263.034, 417.617 262.447 Q 417.966 261.86, 417.966 261.108 Q 417.966 260.19, 417.361 259.677 Q 416.773 259.163, 415.691 259.163 M 415.764 269.731 Q 416.975 269.731, 417.709 269.089 Q 418.443 268.428, 418.443 267.346 Q 418.443 266.649, 418.058 266.208 Q 417.672 265.768, 417.085 265.511 Q 416.517 265.254, 415.489 264.924 L 414.663 264.649 Q 413.746 265.199, 413.342 265.86 Q 412.939 266.502, 412.939 267.346 Q 412.939 268.428, 413.709 269.089 Q 414.48 269.731, 415.764 269.731 " fill="#000000"/>
<path class="atom-18" d="M 350.278 194.493 Q 350.278 191.264, 351.783 189.576 Q 353.305 187.869, 356.186 187.869 Q 358.865 187.869, 360.296 189.759 L 359.085 190.75 Q 358.039 189.374, 356.186 189.374 Q 354.223 189.374, 353.177 190.695 Q 352.15 191.997, 352.15 194.493 Q 352.15 197.061, 353.214 198.382 Q 354.296 199.703, 356.388 199.703 Q 357.819 199.703, 359.489 198.841 L 360.002 200.217 Q 359.323 200.658, 358.296 200.914 Q 357.269 201.171, 356.131 201.171 Q 353.305 201.171, 351.783 199.447 Q 350.278 197.722, 350.278 194.493 " fill="#000000"/>
<path class="atom-18" d="M 361.672 198.859 L 363.507 198.859 L 363.507 200.694 L 361.672 200.694 L 361.672 198.859 M 361.672 192.548 L 363.507 192.548 L 363.507 194.383 L 361.672 194.383 L 361.672 192.548 " fill="#000000"/>
<path class="atom-18" d="M 365.213 199.538 L 368.057 199.538 L 368.057 189.832 L 364.919 190.805 L 364.497 189.722 L 368.479 187.943 L 369.782 188.163 L 369.782 199.538 L 372.332 199.538 L 372.332 201.006 L 365.213 201.006 L 365.213 199.538 " fill="#000000"/>
<path class="atom-18" d="M 377.708 187.869 Q 380.02 187.869, 381.175 189.447 Q 382.35 191.007, 382.35 194.126 Q 382.35 197.575, 380.9 199.373 Q 379.469 201.153, 376.699 201.153 Q 375.891 201.153, 375.194 200.969 Q 374.515 200.786, 373.855 200.401 L 374.57 199.171 Q 375.524 199.685, 376.68 199.685 Q 378.515 199.685, 379.451 198.511 Q 380.387 197.318, 380.497 194.878 Q 379.836 195.484, 378.992 195.814 Q 378.166 196.126, 377.267 196.126 Q 376.13 196.126, 375.231 195.63 Q 374.332 195.135, 373.836 194.236 Q 373.341 193.337, 373.341 192.199 Q 373.341 190.933, 373.891 189.961 Q 374.46 188.97, 375.451 188.42 Q 376.442 187.869, 377.708 187.869 M 375.176 192.181 Q 375.176 193.337, 375.818 193.997 Q 376.46 194.658, 377.598 194.658 Q 378.387 194.658, 379.157 194.346 Q 379.946 194.016, 380.497 193.465 Q 380.423 191.319, 379.744 190.346 Q 379.065 189.374, 377.689 189.374 Q 376.992 189.374, 376.405 189.741 Q 375.836 190.108, 375.506 190.75 Q 375.176 191.392, 375.176 192.181 " fill="#000000"/>
<path class="atom-19" d="M 388.594 218.56 Q 388.594 215.331, 390.099 213.643 Q 391.622 211.937, 394.502 211.937 Q 397.181 211.937, 398.612 213.827 L 397.401 214.817 Q 396.355 213.441, 394.502 213.441 Q 392.539 213.441, 391.493 214.762 Q 390.466 216.065, 390.466 218.56 Q 390.466 221.129, 391.53 222.45 Q 392.612 223.771, 394.704 223.771 Q 396.135 223.771, 397.805 222.909 L 398.318 224.285 Q 397.64 224.725, 396.612 224.982 Q 395.585 225.239, 394.447 225.239 Q 391.622 225.239, 390.099 223.514 Q 388.594 221.789, 388.594 218.56 " fill="#000000"/>
<path class="atom-19" d="M 399.988 222.927 L 401.823 222.927 L 401.823 224.762 L 399.988 224.762 L 399.988 222.927 M 399.988 216.615 L 401.823 216.615 L 401.823 218.45 L 399.988 218.45 L 399.988 216.615 " fill="#000000"/>
<path class="atom-19" d="M 402.777 214.542 Q 403.254 213.313, 404.392 212.634 Q 405.529 211.937, 407.107 211.937 Q 409.07 211.937, 410.171 213.001 Q 411.272 214.065, 411.272 215.955 Q 411.272 217.881, 409.841 219.679 Q 408.428 221.477, 405.492 223.606 L 411.492 223.606 L 411.492 225.074 L 402.74 225.074 L 402.74 223.844 Q 405.162 222.12, 406.593 220.835 Q 408.043 219.551, 408.74 218.395 Q 409.437 217.239, 409.437 216.047 Q 409.437 214.799, 408.813 214.102 Q 408.189 213.405, 407.107 213.405 Q 406.061 213.405, 405.364 213.827 Q 404.667 214.249, 404.171 215.184 L 402.777 214.542 " fill="#000000"/>
<path class="atom-19" d="M 417.363 225.22 Q 414.978 225.22, 413.786 223.459 Q 412.611 221.698, 412.611 218.56 Q 412.611 215.423, 413.786 213.68 Q 414.96 211.937, 417.363 211.937 Q 419.767 211.937, 420.941 213.68 Q 422.115 215.423, 422.115 218.56 Q 422.115 221.698, 420.923 223.459 Q 419.748 225.22, 417.363 225.22 M 417.363 223.753 Q 418.776 223.753, 419.528 222.45 Q 420.281 221.129, 420.281 218.56 Q 420.281 216.01, 419.528 214.707 Q 418.776 213.405, 417.363 213.405 Q 415.969 213.405, 415.198 214.707 Q 414.446 216.01, 414.446 218.56 Q 414.446 221.129, 415.198 222.45 Q 415.969 223.753, 417.363 223.753 " fill="#000000"/>
<path class="atom-20" d="M 361.223 325.566 L 362.985 325.566 L 362.985 331.089 L 369.627 331.089 L 369.627 325.566 L 371.388 325.566 L 371.388 338.556 L 369.627 338.556 L 369.627 332.557 L 362.985 332.557 L 362.985 338.556 L 361.223 338.556 L 361.223 325.566 " fill="#000000"/>
<path class="atom-20" d="M 372.764 336.41 L 374.599 336.41 L 374.599 338.245 L 372.764 338.245 L 372.764 336.41 M 372.764 330.098 L 374.599 330.098 L 374.599 331.933 L 372.764 331.933 L 372.764 330.098 " fill="#000000"/>
<path class="atom-20" d="M 375.553 328.025 Q 376.03 326.796, 377.168 326.117 Q 378.305 325.42, 379.883 325.42 Q 381.846 325.42, 382.947 326.484 Q 384.048 327.548, 384.048 329.438 Q 384.048 331.364, 382.617 333.162 Q 381.204 334.96, 378.268 337.089 L 384.268 337.089 L 384.268 338.556 L 375.516 338.556 L 375.516 337.327 Q 377.938 335.602, 379.369 334.318 Q 380.819 333.034, 381.516 331.878 Q 382.213 330.722, 382.213 329.529 Q 382.213 328.282, 381.589 327.585 Q 380.966 326.887, 379.883 326.887 Q 378.837 326.887, 378.14 327.309 Q 377.443 327.731, 376.947 328.667 L 375.553 328.025 " fill="#000000"/>
<path class="atom-20" d="M 385.974 337.089 L 388.818 337.089 L 388.818 327.383 L 385.681 328.355 L 385.259 327.273 L 389.24 325.493 L 390.543 325.713 L 390.543 337.089 L 393.093 337.089 L 393.093 338.556 L 385.974 338.556 L 385.974 337.089 " fill="#000000"/>
<path class="atom-21" d="M 262.511 185.731 L 264.272 185.731 L 264.272 191.254 L 270.914 191.254 L 270.914 185.731 L 272.675 185.731 L 272.675 198.721 L 270.914 198.721 L 270.914 192.722 L 264.272 192.722 L 264.272 198.721 L 262.511 198.721 L 262.511 185.731 " fill="#000000"/>
<path class="atom-21" d="M 274.051 196.575 L 275.886 196.575 L 275.886 198.409 L 274.051 198.409 L 274.051 196.575 M 274.051 190.263 L 275.886 190.263 L 275.886 192.098 L 274.051 192.098 L 274.051 190.263 " fill="#000000"/>
<path class="atom-21" d="M 276.84 188.19 Q 277.317 186.96, 278.455 186.282 Q 279.592 185.584, 281.17 185.584 Q 283.133 185.584, 284.234 186.649 Q 285.335 187.713, 285.335 189.603 Q 285.335 191.529, 283.904 193.327 Q 282.491 195.125, 279.556 197.254 L 285.555 197.254 L 285.555 198.721 L 276.803 198.721 L 276.803 197.492 Q 279.225 195.767, 280.656 194.483 Q 282.106 193.199, 282.803 192.043 Q 283.5 190.887, 283.5 189.694 Q 283.5 188.447, 282.876 187.749 Q 282.253 187.052, 281.17 187.052 Q 280.124 187.052, 279.427 187.474 Q 278.73 187.896, 278.235 188.832 L 276.84 188.19 " fill="#000000"/>
<path class="atom-21" d="M 286.509 188.19 Q 286.986 186.96, 288.124 186.282 Q 289.261 185.584, 290.839 185.584 Q 292.803 185.584, 293.903 186.649 Q 295.004 187.713, 295.004 189.603 Q 295.004 191.529, 293.573 193.327 Q 292.16 195.125, 289.225 197.254 L 295.224 197.254 L 295.224 198.721 L 286.473 198.721 L 286.473 197.492 Q 288.895 195.767, 290.326 194.483 Q 291.775 193.199, 292.472 192.043 Q 293.17 190.887, 293.17 189.694 Q 293.17 188.447, 292.546 187.749 Q 291.922 187.052, 290.839 187.052 Q 289.794 187.052, 289.096 187.474 Q 288.399 187.896, 287.904 188.832 L 286.509 188.19 " fill="#000000"/>
<path class="atom-22" d="M 441.957 282.001 L 443.719 282.001 L 443.719 287.524 L 450.361 287.524 L 450.361 282.001 L 452.122 282.001 L 452.122 294.991 L 450.361 294.991 L 450.361 288.992 L 443.719 288.992 L 443.719 294.991 L 441.957 294.991 L 441.957 282.001 " fill="#000000"/>
<path class="atom-22" d="M 453.498 292.845 L 455.333 292.845 L 455.333 294.679 L 453.498 294.679 L 453.498 292.845 M 453.498 286.533 L 455.333 286.533 L 455.333 288.368 L 453.498 288.368 L 453.498 286.533 " fill="#000000"/>
<path class="atom-22" d="M 456.287 284.46 Q 456.764 283.23, 457.901 282.551 Q 459.039 281.854, 460.617 281.854 Q 462.58 281.854, 463.681 282.918 Q 464.782 283.983, 464.782 285.872 Q 464.782 287.799, 463.351 289.597 Q 461.938 291.395, 459.002 293.523 L 465.002 293.523 L 465.002 294.991 L 456.25 294.991 L 456.25 293.762 Q 458.672 292.037, 460.103 290.753 Q 461.553 289.469, 462.25 288.313 Q 462.947 287.157, 462.947 285.964 Q 462.947 284.717, 462.323 284.019 Q 461.699 283.322, 460.617 283.322 Q 459.571 283.322, 458.874 283.744 Q 458.177 284.166, 457.681 285.102 L 456.287 284.46 " fill="#000000"/>
<path class="atom-22" d="M 472.011 288.148 Q 473.277 288.514, 473.882 289.34 Q 474.506 290.147, 474.506 291.432 Q 474.506 292.533, 473.956 293.395 Q 473.405 294.239, 472.396 294.716 Q 471.387 295.175, 470.066 295.175 Q 468.671 295.175, 467.626 294.698 Q 466.598 294.202, 465.773 293.211 L 466.818 292.147 Q 467.626 293.028, 468.304 293.377 Q 468.983 293.707, 470.066 293.707 Q 471.24 293.707, 471.956 293.083 Q 472.671 292.441, 472.671 291.413 Q 472.671 290.092, 471.919 289.505 Q 471.185 288.9, 469.589 288.9 L 468.653 288.9 L 468.653 287.579 L 469.479 287.579 Q 470.892 287.56, 471.644 286.955 Q 472.396 286.331, 472.396 285.175 Q 472.396 284.331, 471.772 283.836 Q 471.148 283.322, 470.084 283.322 Q 469.002 283.322, 468.323 283.707 Q 467.662 284.093, 467.149 285.065 L 465.883 284.386 Q 466.341 283.304, 467.442 282.588 Q 468.543 281.854, 470.084 281.854 Q 471.992 281.854, 473.112 282.753 Q 474.231 283.652, 474.231 285.175 Q 474.231 286.221, 473.662 286.973 Q 473.093 287.726, 472.011 288.148 " fill="#000000"/>
<path class="atom-23" d="M 366.5 142.166 L 368.261 142.166 L 368.261 147.689 L 374.903 147.689 L 374.903 142.166 L 376.665 142.166 L 376.665 155.156 L 374.903 155.156 L 374.903 149.156 L 368.261 149.156 L 368.261 155.156 L 366.5 155.156 L 366.5 142.166 " fill="#000000"/>
<path class="atom-23" d="M 378.041 153.009 L 379.875 153.009 L 379.875 154.844 L 378.041 154.844 L 378.041 153.009 M 378.041 146.698 L 379.875 146.698 L 379.875 148.533 L 378.041 148.533 L 378.041 146.698 " fill="#000000"/>
<path class="atom-23" d="M 380.83 144.625 Q 381.307 143.395, 382.444 142.716 Q 383.582 142.019, 385.16 142.019 Q 387.123 142.019, 388.224 143.083 Q 389.325 144.148, 389.325 146.037 Q 389.325 147.964, 387.893 149.762 Q 386.481 151.56, 383.545 153.688 L 389.545 153.688 L 389.545 155.156 L 380.793 155.156 L 380.793 153.927 Q 383.215 152.202, 384.646 150.918 Q 386.095 149.633, 386.793 148.478 Q 387.49 147.322, 387.49 146.129 Q 387.49 144.881, 386.866 144.184 Q 386.242 143.487, 385.16 143.487 Q 384.114 143.487, 383.417 143.909 Q 382.719 144.331, 382.224 145.267 L 380.83 144.625 " fill="#000000"/>
<path class="atom-23" d="M 398.535 150.698 L 400.095 150.698 L 400.095 152.165 L 398.535 152.165 L 398.535 155.156 L 396.81 155.156 L 396.81 152.165 L 390.095 152.165 L 390.095 151.01 L 395.783 142.166 L 398.535 142.166 L 398.535 150.698 M 392.223 150.698 L 396.81 150.698 L 396.81 143.34 L 392.223 150.698 " fill="#000000"/>
<path class="atom-24" d="M 444.596 190.301 L 446.357 190.301 L 446.357 195.824 L 452.999 195.824 L 452.999 190.301 L 454.76 190.301 L 454.76 203.291 L 452.999 203.291 L 452.999 197.291 L 446.357 197.291 L 446.357 203.291 L 444.596 203.291 L 444.596 190.301 " fill="#000000"/>
<path class="atom-24" d="M 456.136 201.144 L 457.971 201.144 L 457.971 202.979 L 456.136 202.979 L 456.136 201.144 M 456.136 194.833 L 457.971 194.833 L 457.971 196.668 L 456.136 196.668 L 456.136 194.833 " fill="#000000"/>
<path class="atom-24" d="M 458.925 192.759 Q 459.402 191.53, 460.54 190.851 Q 461.677 190.154, 463.255 190.154 Q 465.218 190.154, 466.319 191.218 Q 467.42 192.282, 467.42 194.172 Q 467.42 196.099, 465.989 197.897 Q 464.576 199.695, 461.641 201.823 L 467.64 201.823 L 467.64 203.291 L 458.888 203.291 L 458.888 202.062 Q 461.31 200.337, 462.741 199.053 Q 464.191 197.768, 464.888 196.612 Q 465.585 195.457, 465.585 194.264 Q 465.585 193.016, 464.961 192.319 Q 464.338 191.622, 463.255 191.622 Q 462.209 191.622, 461.512 192.044 Q 460.815 192.466, 460.32 193.402 L 458.925 192.759 " fill="#000000"/>
<path class="atom-24" d="M 473.2 195.163 Q 474.337 195.163, 475.273 195.658 Q 476.209 196.135, 476.741 197.053 Q 477.273 197.952, 477.273 199.181 Q 477.273 200.521, 476.612 201.493 Q 475.97 202.447, 474.906 202.942 Q 473.842 203.438, 472.631 203.438 Q 471.438 203.438, 470.337 202.997 Q 469.236 202.557, 468.484 201.713 L 469.585 200.576 Q 470.191 201.236, 471.016 201.603 Q 471.842 201.952, 472.686 201.952 Q 473.842 201.952, 474.631 201.236 Q 475.438 200.521, 475.438 199.218 Q 475.438 197.842, 474.631 197.2 Q 473.842 196.539, 472.576 196.539 Q 471.438 196.539, 470.172 197.034 L 469.163 196.557 L 469.787 190.301 L 476.465 190.301 L 476.282 191.769 L 471.291 191.769 L 470.906 195.622 Q 472.062 195.163, 473.2 195.163 " fill="#000000"/>
<path class="atom-25" d="M 304.911 317.798 L 306.672 317.798 L 306.672 323.321 L 313.314 323.321 L 313.314 317.798 L 315.075 317.798 L 315.075 330.788 L 313.314 330.788 L 313.314 324.789 L 306.672 324.789 L 306.672 330.788 L 304.911 330.788 L 304.911 317.798 " fill="#000000"/>
<path class="atom-25" d="M 316.451 328.642 L 318.286 328.642 L 318.286 330.477 L 316.451 330.477 L 316.451 328.642 M 316.451 322.33 L 318.286 322.33 L 318.286 324.165 L 316.451 324.165 L 316.451 322.33 " fill="#000000"/>
<path class="atom-25" d="M 319.24 320.257 Q 319.717 319.028, 320.855 318.349 Q 321.992 317.652, 323.57 317.652 Q 325.533 317.652, 326.634 318.716 Q 327.735 319.78, 327.735 321.67 Q 327.735 323.596, 326.304 325.394 Q 324.891 327.192, 321.956 329.321 L 327.955 329.321 L 327.955 330.788 L 319.203 330.788 L 319.203 329.559 Q 321.625 327.834, 323.056 326.55 Q 324.506 325.266, 325.203 324.11 Q 325.9 322.954, 325.9 321.761 Q 325.9 320.514, 325.276 319.817 Q 324.653 319.119, 323.57 319.119 Q 322.524 319.119, 321.827 319.541 Q 321.13 319.963, 320.634 320.899 L 319.24 320.257 " fill="#000000"/>
<path class="atom-25" d="M 334.285 322.679 Q 335.423 322.679, 336.322 323.174 Q 337.221 323.67, 337.716 324.569 Q 338.212 325.468, 338.212 326.605 Q 338.212 327.871, 337.643 328.862 Q 337.092 329.834, 336.102 330.385 Q 335.111 330.935, 333.845 330.935 Q 331.533 330.935, 330.359 329.376 Q 329.203 327.798, 329.203 324.679 Q 329.203 321.229, 330.634 319.45 Q 332.083 317.652, 334.854 317.652 Q 335.661 317.652, 336.34 317.835 Q 337.037 318.018, 337.698 318.404 L 336.982 319.633 Q 336.028 319.119, 334.872 319.119 Q 333.037 319.119, 332.102 320.312 Q 331.166 321.486, 331.056 323.926 Q 331.716 323.321, 332.542 323.009 Q 333.386 322.679, 334.285 322.679 M 333.863 329.431 Q 334.56 329.431, 335.129 329.064 Q 335.716 328.697, 336.046 328.055 Q 336.377 327.412, 336.377 326.624 Q 336.377 325.468, 335.735 324.807 Q 335.092 324.147, 333.955 324.147 Q 333.166 324.147, 332.377 324.477 Q 331.606 324.789, 331.056 325.339 Q 331.129 327.486, 331.808 328.458 Q 332.487 329.431, 333.863 329.431 " fill="#000000"/>
<path class="atom-26" d="M 238.741 237.064 L 240.502 237.064 L 240.502 242.587 L 247.144 242.587 L 247.144 237.064 L 248.906 237.064 L 248.906 250.055 L 247.144 250.055 L 247.144 244.055 L 240.502 244.055 L 240.502 250.055 L 238.741 250.055 L 238.741 237.064 " fill="#000000"/>
<path class="atom-26" d="M 250.282 247.908 L 252.116 247.908 L 252.116 249.743 L 250.282 249.743 L 250.282 247.908 M 250.282 241.596 L 252.116 241.596 L 252.116 243.431 L 250.282 243.431 L 250.282 241.596 " fill="#000000"/>
<path class="atom-26" d="M 253.071 239.523 Q 253.548 238.294, 254.685 237.615 Q 255.823 236.918, 257.401 236.918 Q 259.364 236.918, 260.465 237.982 Q 261.565 239.046, 261.565 240.936 Q 261.565 242.862, 260.134 244.66 Q 258.722 246.458, 255.786 248.587 L 261.786 248.587 L 261.786 250.055 L 253.034 250.055 L 253.034 248.825 Q 255.456 247.101, 256.887 245.816 Q 258.336 244.532, 259.034 243.376 Q 259.731 242.22, 259.731 241.028 Q 259.731 239.78, 259.107 239.083 Q 258.483 238.385, 257.401 238.385 Q 256.355 238.385, 255.658 238.807 Q 254.96 239.229, 254.465 240.165 L 253.071 239.523 " fill="#000000"/>
<path class="atom-26" d="M 268.923 238.532 L 262.116 238.532 L 262.116 237.064 L 270.739 237.064 L 270.739 238.367 L 265.492 250.055 L 263.731 250.055 L 268.923 238.532 " fill="#000000"/>
<path class="atom-27" d="M 87.8891 157.094 L 89.6505 157.094 L 89.6505 162.617 L 96.2923 162.617 L 96.2923 157.094 L 98.0537 157.094 L 98.0537 170.084 L 96.2923 170.084 L 96.2923 164.085 L 89.6505 164.085 L 89.6505 170.084 L 87.8891 170.084 L 87.8891 157.094 " fill="#000000"/>
<path class="atom-27" d="M 99.4298 167.938 L 101.265 167.938 L 101.265 169.772 L 99.4298 169.772 L 99.4298 167.938 M 99.4298 161.626 L 101.265 161.626 L 101.265 163.461 L 99.4298 163.461 L 99.4298 161.626 " fill="#000000"/>
<path class="atom-27" d="M 102.219 159.553 Q 102.696 158.323, 103.833 157.645 Q 104.971 156.947, 106.549 156.947 Q 108.512 156.947, 109.613 158.011 Q 110.714 159.076, 110.714 160.965 Q 110.714 162.892, 109.282 164.69 Q 107.87 166.488, 104.934 168.616 L 110.934 168.616 L 110.934 170.084 L 102.182 170.084 L 102.182 168.855 Q 104.604 167.13, 106.035 165.846 Q 107.484 164.562, 108.182 163.406 Q 108.879 162.25, 108.879 161.057 Q 108.879 159.81, 108.255 159.112 Q 107.631 158.415, 106.549 158.415 Q 105.503 158.415, 104.806 158.837 Q 104.108 159.259, 103.613 160.195 L 102.219 159.553 " fill="#000000"/>
<path class="atom-27" d="M 118.695 163.204 Q 119.887 163.718, 120.566 164.488 Q 121.245 165.24, 121.245 166.525 Q 121.245 167.626, 120.676 168.488 Q 120.108 169.332, 119.08 169.809 Q 118.071 170.268, 116.732 170.268 Q 114.567 170.268, 113.319 169.277 Q 112.071 168.268, 112.071 166.525 Q 112.071 165.461, 112.622 164.672 Q 113.172 163.864, 114.31 163.259 Q 113.466 162.782, 113.007 162.085 Q 112.548 161.369, 112.548 160.268 Q 112.548 158.745, 113.649 157.846 Q 114.768 156.947, 116.658 156.947 Q 118.548 156.947, 119.649 157.846 Q 120.768 158.745, 120.768 160.268 Q 120.768 161.222, 120.236 161.938 Q 119.722 162.635, 118.695 163.204 M 116.658 158.323 Q 115.576 158.323, 114.97 158.837 Q 114.383 159.351, 114.383 160.268 Q 114.383 160.947, 114.787 161.406 Q 115.19 161.846, 115.759 162.103 Q 116.346 162.36, 117.465 162.745 Q 118.254 162.195, 118.585 161.608 Q 118.933 161.02, 118.933 160.268 Q 118.933 159.351, 118.328 158.837 Q 117.741 158.323, 116.658 158.323 M 116.732 168.892 Q 117.943 168.892, 118.676 168.249 Q 119.41 167.589, 119.41 166.506 Q 119.41 165.809, 119.025 165.369 Q 118.64 164.929, 118.053 164.672 Q 117.484 164.415, 116.456 164.085 L 115.631 163.809 Q 114.713 164.36, 114.31 165.02 Q 113.906 165.662, 113.906 166.506 Q 113.906 167.589, 114.677 168.249 Q 115.447 168.892, 116.732 168.892 " fill="#000000"/>
<path class="atom-28" d="M 22.7273 224.727 L 24.4886 224.727 L 24.4886 230.249 L 31.1305 230.249 L 31.1305 224.727 L 32.8919 224.727 L 32.8919 237.717 L 31.1305 237.717 L 31.1305 231.717 L 24.4886 231.717 L 24.4886 237.717 L 22.7273 237.717 L 22.7273 224.727 " fill="#000000"/>
<path class="atom-28" d="M 34.2679 235.57 L 36.1027 235.57 L 36.1027 237.405 L 34.2679 237.405 L 34.2679 235.57 M 34.2679 229.259 L 36.1027 229.259 L 36.1027 231.093 L 34.2679 231.093 L 34.2679 229.259 " fill="#000000"/>
<path class="atom-28" d="M 37.0568 227.185 Q 37.5338 225.956, 38.6714 225.277 Q 39.8089 224.58, 41.3868 224.58 Q 43.35 224.58, 44.4509 225.644 Q 45.5517 226.708, 45.5517 228.598 Q 45.5517 230.525, 44.1206 232.323 Q 42.7078 234.121, 39.7722 236.249 L 45.7719 236.249 L 45.7719 237.717 L 37.0201 237.717 L 37.0201 236.488 Q 39.442 234.763, 40.8731 233.479 Q 42.3225 232.194, 43.0197 231.038 Q 43.717 229.882, 43.717 228.69 Q 43.717 227.442, 43.0931 226.745 Q 42.4693 226.048, 41.3868 226.048 Q 40.341 226.048, 39.6438 226.47 Q 38.9466 226.892, 38.4512 227.828 L 37.0568 227.185 " fill="#000000"/>
<path class="atom-28" d="M 51.1477 224.58 Q 53.4595 224.58, 54.6154 226.158 Q 55.7897 227.717, 55.7897 230.837 Q 55.7897 234.286, 54.3402 236.084 Q 52.9091 237.864, 50.1386 237.864 Q 49.3313 237.864, 48.6341 237.68 Q 47.9553 237.497, 47.2947 237.111 L 48.0103 235.882 Q 48.9644 236.396, 50.1203 236.396 Q 51.955 236.396, 52.8908 235.222 Q 53.8265 234.029, 53.9366 231.589 Q 53.2761 232.194, 52.4321 232.525 Q 51.6064 232.836, 50.7074 232.836 Q 49.5698 232.836, 48.6708 232.341 Q 47.7718 231.846, 47.2764 230.947 Q 46.781 230.048, 46.781 228.91 Q 46.781 227.644, 47.3314 226.672 Q 47.9002 225.681, 48.891 225.13 Q 49.8818 224.58, 51.1477 224.58 M 48.6158 228.892 Q 48.6158 230.048, 49.2579 230.708 Q 49.9001 231.369, 51.0377 231.369 Q 51.8266 231.369, 52.5972 231.057 Q 53.3862 230.726, 53.9366 230.176 Q 53.8632 228.029, 53.1843 227.057 Q 52.5055 226.085, 51.1294 226.085 Q 50.4322 226.085, 49.8451 226.451 Q 49.2763 226.818, 48.946 227.461 Q 48.6158 228.103, 48.6158 228.892 " fill="#000000"/>
<text x="228.3194405063311" y="293.6019452915217" font-size="12" font-family="Verdana" font-weight="bold" letter-spacing="0" text-anchor="start" fill="black" transform=" rotate(-58.352000 228.319441 293.601945)">0.0432</text><text x="25" y="490" font-size="12" font-family="Verdana" font-weight="bold" letter-spacing="0" text-anchor="start" fill="black">[#6:1]1(:[#6:2](-[#7:3](-[H:4])-[#6:5](-[#6:15]2:[#6:16](:[#6:18](:[#6:20](:[#6:19](:[#6:17]:2-[H:22])-[H:24])-[H:25])-[H:23])-[H:21])(-[H:26])-[H:27]):[#6:6](:[#6:8](:[#6:9](:[#6:7]:1-[H:12])-[#7:14](-[H:28])-[H:29])-[H:13])-[H:11])-[H:10]</text></svg>
