<?xml version='1.0' encoding='ASCII' standalone='yes'?>
<svg xmlns="http://www.w3.org/2000/svg" xmlns:rdkit="http://www.rdkit.org/xml" xmlns:xlink="http://www.w3.org/1999/xlink" version="1.1" baseProfile="full" xml:space="preserve" width="500px" height="500px" viewBox="0 0 500 500">
<!-- END OF HEADER -->
<rect style="opacity:1.0;fill:#FFFFFF;stroke:none" width="500" height="500" x="0" y="0"> </rect>
<path d="M 362.423,204.826 L 350.88,269.967" style="fill:none;fill-rule:evenodd;stroke:#FF7F7F;stroke-width:14.1px;stroke-linecap:butt;stroke-linejoin:miter;stroke-opacity:1"/>
<path class="bond-0 atom-1 atom-0" d="M 334.624,196.301 L 326.934,193.942" style="fill:none;fill-rule:evenodd;stroke:#000000;stroke-width:2.0px;stroke-linecap:butt;stroke-linejoin:miter;stroke-opacity:1"/>
<path class="bond-1 atom-1 atom-13" d="M 370.388,206.238 L 418.782,214.813" style="fill:none;fill-rule:evenodd;stroke:#000000;stroke-width:2.0px;stroke-linecap:butt;stroke-linejoin:miter;stroke-opacity:1"/>
<path class="bond-2 atom-2 atom-1" d="M 352.852,258.839 L 360.501,215.671" style="fill:none;fill-rule:evenodd;stroke:#000000;stroke-width:2.0px;stroke-linecap:butt;stroke-linejoin:miter;stroke-opacity:1"/>
<path class="bond-21 atom-12 atom-1" d="M 371.994,150.813 L 368.169,172.397" style="fill:none;fill-rule:evenodd;stroke:#0000FF;stroke-width:2.0px;stroke-linecap:butt;stroke-linejoin:miter;stroke-opacity:1"/>
<path class="bond-21 atom-12 atom-1" d="M 368.169,172.397 L 364.345,193.981" style="fill:none;fill-rule:evenodd;stroke:#000000;stroke-width:2.0px;stroke-linecap:butt;stroke-linejoin:miter;stroke-opacity:1"/>
<path class="bond-3 atom-2 atom-11" d="M 359.003,285.437 L 373.209,297.377" style="fill:none;fill-rule:evenodd;stroke:#000000;stroke-width:2.0px;stroke-linecap:butt;stroke-linejoin:miter;stroke-opacity:1"/>
<path class="bond-3 atom-2 atom-11" d="M 373.209,297.377 L 387.415,309.318" style="fill:none;fill-rule:evenodd;stroke:#FF0000;stroke-width:2.0px;stroke-linecap:butt;stroke-linejoin:miter;stroke-opacity:1"/>
<path class="bond-3 atom-2 atom-11" d="M 367.516,275.308 L 381.723,287.249" style="fill:none;fill-rule:evenodd;stroke:#000000;stroke-width:2.0px;stroke-linecap:butt;stroke-linejoin:miter;stroke-opacity:1"/>
<path class="bond-3 atom-2 atom-11" d="M 381.723,287.249 L 395.929,299.19" style="fill:none;fill-rule:evenodd;stroke:#FF0000;stroke-width:2.0px;stroke-linecap:butt;stroke-linejoin:miter;stroke-opacity:1"/>
<path class="bond-5 atom-3 atom-2" d="M 302.054,287.691 L 314.787,283.069" style="fill:none;fill-rule:evenodd;stroke:#0000FF;stroke-width:2.0px;stroke-linecap:butt;stroke-linejoin:miter;stroke-opacity:1"/>
<path class="bond-5 atom-3 atom-2" d="M 314.787,283.069 L 327.521,278.446" style="fill:none;fill-rule:evenodd;stroke:#000000;stroke-width:2.0px;stroke-linecap:butt;stroke-linejoin:miter;stroke-opacity:1"/>
<path class="bond-4 atom-3 atom-4" d="M 275.583,281.519 L 262.852,270.818" style="fill:none;fill-rule:evenodd;stroke:#0000FF;stroke-width:2.0px;stroke-linecap:butt;stroke-linejoin:miter;stroke-opacity:1"/>
<path class="bond-4 atom-3 atom-4" d="M 262.852,270.818 L 250.122,260.118" style="fill:none;fill-rule:evenodd;stroke:#000000;stroke-width:2.0px;stroke-linecap:butt;stroke-linejoin:miter;stroke-opacity:1"/>
<path class="bond-6 atom-3 atom-10" d="M 286.742,303.562 L 282.899,325.25" style="fill:none;fill-rule:evenodd;stroke:#0000FF;stroke-width:2.0px;stroke-linecap:butt;stroke-linejoin:miter;stroke-opacity:1"/>
<path class="bond-6 atom-3 atom-10" d="M 282.899,325.25 L 279.056,346.939" style="fill:none;fill-rule:evenodd;stroke:#000000;stroke-width:2.0px;stroke-linecap:butt;stroke-linejoin:miter;stroke-opacity:1"/>
<path class="bond-14 atom-8 atom-4" d="M 247.582,196.199 L 239.937,239.346" style="fill:none;fill-rule:evenodd;stroke:#000000;stroke-width:2.0px;stroke-linecap:butt;stroke-linejoin:miter;stroke-opacity:1"/>
<path class="bond-14 atom-8 atom-4" d="M 233.408,200.362 L 228.055,230.566" style="fill:none;fill-rule:evenodd;stroke:#000000;stroke-width:2.0px;stroke-linecap:butt;stroke-linejoin:miter;stroke-opacity:1"/>
<path class="bond-16 atom-9 atom-4" d="M 195.52,265.414 L 214.793,258.417" style="fill:none;fill-rule:evenodd;stroke:#000000;stroke-width:2.0px;stroke-linecap:butt;stroke-linejoin:miter;stroke-opacity:1"/>
<path class="bond-7 atom-5 atom-6" d="M 149.84,160.096 L 175.866,150.648" style="fill:none;fill-rule:evenodd;stroke:#000000;stroke-width:2.0px;stroke-linecap:butt;stroke-linejoin:miter;stroke-opacity:1"/>
<path class="bond-7 atom-5 atom-6" d="M 158.259,171.115 L 176.477,164.502" style="fill:none;fill-rule:evenodd;stroke:#000000;stroke-width:2.0px;stroke-linecap:butt;stroke-linejoin:miter;stroke-opacity:1"/>
<path class="bond-8 atom-5 atom-7" d="M 134.761,176.179 L 127.148,219.141" style="fill:none;fill-rule:evenodd;stroke:#000000;stroke-width:2.0px;stroke-linecap:butt;stroke-linejoin:miter;stroke-opacity:1"/>
<path class="bond-9 atom-5 atom-21" d="M 123.532,153.713 L 93.661,128.605" style="fill:none;fill-rule:evenodd;stroke:#000000;stroke-width:2.0px;stroke-linecap:butt;stroke-linejoin:miter;stroke-opacity:1"/>
<path class="bond-10 atom-6 atom-8" d="M 210.819,152.239 L 241.106,177.696" style="fill:none;fill-rule:evenodd;stroke:#000000;stroke-width:2.0px;stroke-linecap:butt;stroke-linejoin:miter;stroke-opacity:1"/>
<path class="bond-11 atom-6 atom-14" d="M 200.889,131.351 L 208.584,87.9233" style="fill:none;fill-rule:evenodd;stroke:#000000;stroke-width:2.0px;stroke-linecap:butt;stroke-linejoin:miter;stroke-opacity:1"/>
<path class="bond-12 atom-7 atom-9" d="M 138.33,240.994 L 166.019,264.268" style="fill:none;fill-rule:evenodd;stroke:#000000;stroke-width:2.0px;stroke-linecap:butt;stroke-linejoin:miter;stroke-opacity:1"/>
<path class="bond-12 atom-7 atom-9" d="M 150.997,234.357 L 170.379,250.649" style="fill:none;fill-rule:evenodd;stroke:#000000;stroke-width:2.0px;stroke-linecap:butt;stroke-linejoin:miter;stroke-opacity:1"/>
<path class="bond-13 atom-7 atom-15" d="M 101.072,238.749 L 70.5501,249.829" style="fill:none;fill-rule:evenodd;stroke:#000000;stroke-width:2.0px;stroke-linecap:butt;stroke-linejoin:miter;stroke-opacity:1"/>
<path class="bond-15 atom-8 atom-16" d="M 270.361,174.275 L 280.454,169.143" style="fill:none;fill-rule:evenodd;stroke:#000000;stroke-width:2.0px;stroke-linecap:butt;stroke-linejoin:miter;stroke-opacity:1"/>
<path class="bond-17 atom-9 atom-17" d="M 173.897,283.675 L 166.21,327.055" style="fill:none;fill-rule:evenodd;stroke:#000000;stroke-width:2.0px;stroke-linecap:butt;stroke-linejoin:miter;stroke-opacity:1"/>
<path class="bond-18 atom-10 atom-18" d="M 247.316,352.394 L 219.405,347.448" style="fill:none;fill-rule:evenodd;stroke:#000000;stroke-width:2.0px;stroke-linecap:butt;stroke-linejoin:miter;stroke-opacity:1"/>
<path class="bond-19 atom-10 atom-19" d="M 295.16,360.872 L 333.766,367.713" style="fill:none;fill-rule:evenodd;stroke:#000000;stroke-width:2.0px;stroke-linecap:butt;stroke-linejoin:miter;stroke-opacity:1"/>
<path class="bond-20 atom-10 atom-20" d="M 275.18,368.808 L 267.493,412.188" style="fill:none;fill-rule:evenodd;stroke:#000000;stroke-width:2.0px;stroke-linecap:butt;stroke-linejoin:miter;stroke-opacity:1"/>
<path class="bond-22 atom-12 atom-22" d="M 360.98,128.77 L 345.916,116.108" style="fill:none;fill-rule:evenodd;stroke:#0000FF;stroke-width:2.0px;stroke-linecap:butt;stroke-linejoin:miter;stroke-opacity:1"/>
<path class="bond-22 atom-12 atom-22" d="M 345.916,116.108 L 330.852,103.447" style="fill:none;fill-rule:evenodd;stroke:#000000;stroke-width:2.0px;stroke-linecap:butt;stroke-linejoin:miter;stroke-opacity:1"/>
<path class="bond-23 atom-12 atom-23" d="M 392.734,132.873 L 410.2,126.532" style="fill:none;fill-rule:evenodd;stroke:#0000FF;stroke-width:2.0px;stroke-linecap:butt;stroke-linejoin:miter;stroke-opacity:1"/>
<path class="bond-23 atom-12 atom-23" d="M 410.2,126.532 L 427.666,120.192" style="fill:none;fill-rule:evenodd;stroke:#000000;stroke-width:2.0px;stroke-linecap:butt;stroke-linejoin:miter;stroke-opacity:1"/>
<path class="atom-0" d="M 294.557 182.785 L 297.097 182.785 L 297.097 190.75 L 306.676 190.75 L 306.676 182.785 L 309.217 182.785 L 309.217 201.52 L 306.676 201.52 L 306.676 192.867 L 297.097 192.867 L 297.097 201.52 L 294.557 201.52 L 294.557 182.785 " fill="#000000"/>
<path class="atom-0" d="M 311.201 198.424 L 313.848 198.424 L 313.848 201.07 L 311.201 201.07 L 311.201 198.424 M 311.201 189.321 L 313.848 189.321 L 313.848 191.967 L 311.201 191.967 L 311.201 189.321 " fill="#000000"/>
<path class="atom-0" d="M 316.309 199.403 L 320.41 199.403 L 320.41 185.405 L 315.885 186.807 L 315.277 185.246 L 321.019 182.679 L 322.898 182.997 L 322.898 199.403 L 326.576 199.403 L 326.576 201.52 L 316.309 201.52 L 316.309 199.403 " fill="#000000"/>
<path class="atom-1" d="M 335.709 204.906 Q 335.709 200.248, 337.879 197.814 Q 340.076 195.353, 344.23 195.353 Q 348.094 195.353, 350.158 198.078 L 348.411 199.507 Q 346.903 197.523, 344.23 197.523 Q 341.399 197.523, 339.89 199.428 Q 338.409 201.307, 338.409 204.906 Q 338.409 208.61, 339.943 210.516 Q 341.505 212.421, 344.521 212.421 Q 346.585 212.421, 348.993 211.177 L 349.734 213.162 Q 348.755 213.797, 347.273 214.167 Q 345.792 214.538, 344.151 214.538 Q 340.076 214.538, 337.879 212.05 Q 335.709 209.563, 335.709 204.906 " fill="#000000"/>
<path class="atom-1" d="M 352.142 211.204 L 354.789 211.204 L 354.789 213.85 L 352.142 213.85 L 352.142 211.204 M 352.142 202.101 L 354.789 202.101 L 354.789 204.747 L 352.142 204.747 L 352.142 202.101 " fill="#000000"/>
<path class="atom-1" d="M 356.165 199.11 Q 356.853 197.337, 358.493 196.358 Q 360.134 195.353, 362.41 195.353 Q 365.241 195.353, 366.829 196.888 Q 368.417 198.422, 368.417 201.148 Q 368.417 203.926, 366.353 206.52 Q 364.315 209.113, 360.081 212.183 L 368.734 212.183 L 368.734 214.3 L 356.112 214.3 L 356.112 212.527 Q 359.605 210.039, 361.669 208.187 Q 363.759 206.335, 364.765 204.667 Q 365.77 203, 365.77 201.28 Q 365.77 199.481, 364.871 198.475 Q 363.971 197.47, 362.41 197.47 Q 360.901 197.47, 359.896 198.078 Q 358.89 198.687, 358.176 200.037 L 356.165 199.11 " fill="#000000"/>
<path class="atom-2" d="M 328.819 270.046 Q 328.819 265.389, 330.989 262.954 Q 333.186 260.493, 337.34 260.493 Q 341.204 260.493, 343.268 263.219 L 341.521 264.648 Q 340.013 262.663, 337.34 262.663 Q 334.509 262.663, 333 264.568 Q 331.518 266.447, 331.518 270.046 Q 331.518 273.751, 333.053 275.656 Q 334.615 277.561, 337.631 277.561 Q 339.695 277.561, 342.103 276.317 L 342.844 278.302 Q 341.865 278.937, 340.383 279.308 Q 338.901 279.678, 337.261 279.678 Q 333.186 279.678, 330.989 277.191 Q 328.819 274.703, 328.819 270.046 " fill="#000000"/>
<path class="atom-2" d="M 345.252 276.344 L 347.899 276.344 L 347.899 278.99 L 345.252 278.99 L 345.252 276.344 M 345.252 267.241 L 347.899 267.241 L 347.899 269.887 L 345.252 269.887 L 345.252 267.241 " fill="#000000"/>
<path class="atom-2" d="M 358.007 269.57 Q 359.833 270.099, 360.706 271.29 Q 361.606 272.454, 361.606 274.306 Q 361.606 275.894, 360.812 277.138 Q 360.018 278.355, 358.563 279.043 Q 357.107 279.705, 355.202 279.705 Q 353.191 279.705, 351.683 279.017 Q 350.201 278.302, 349.01 276.873 L 350.518 275.338 Q 351.683 276.609, 352.662 277.111 Q 353.641 277.588, 355.202 277.588 Q 356.896 277.588, 357.928 276.688 Q 358.96 275.762, 358.96 274.28 Q 358.96 272.375, 357.875 271.528 Q 356.816 270.655, 354.514 270.655 L 353.164 270.655 L 353.164 268.749 L 354.355 268.749 Q 356.393 268.723, 357.478 267.85 Q 358.563 266.95, 358.563 265.283 Q 358.563 264.066, 357.663 263.351 Q 356.763 262.61, 355.229 262.61 Q 353.667 262.61, 352.688 263.166 Q 351.736 263.722, 350.995 265.124 L 349.169 264.145 Q 349.83 262.584, 351.418 261.552 Q 353.006 260.493, 355.229 260.493 Q 357.981 260.493, 359.595 261.79 Q 361.209 263.086, 361.209 265.283 Q 361.209 266.791, 360.389 267.876 Q 359.568 268.961, 358.007 269.57 " fill="#000000"/>
<path class="atom-3" d="M 269.307 283.173 L 275.447 293.096 Q 276.055 294.075, 277.034 295.848 Q 278.013 297.621, 278.066 297.727 L 278.066 283.173 L 280.554 283.173 L 280.554 301.908 L 277.987 301.908 L 271.398 291.058 Q 270.63 289.788, 269.81 288.333 Q 269.016 286.877, 268.778 286.428 L 268.778 301.908 L 266.344 301.908 L 266.344 283.173 L 269.307 283.173 " fill="#0000FF"/>
<path class="atom-3" d="M 282.538 298.812 L 285.185 298.812 L 285.185 301.458 L 282.538 301.458 L 282.538 298.812 M 282.538 289.709 L 285.185 289.709 L 285.185 292.355 L 282.538 292.355 L 282.538 289.709 " fill="#0000FF"/>
<path class="atom-3" d="M 298.151 295.478 L 300.4 295.478 L 300.4 297.595 L 298.151 297.595 L 298.151 301.908 L 295.664 301.908 L 295.664 297.595 L 285.978 297.595 L 285.978 295.927 L 294.182 283.173 L 298.151 283.173 L 298.151 295.478 M 289.048 295.478 L 295.664 295.478 L 295.664 284.866 L 289.048 295.478 " fill="#0000FF"/>
<path class="atom-4" d="M 215.925 250.053 Q 215.925 245.396, 218.094 242.961 Q 220.291 240.5, 224.445 240.5 Q 228.309 240.5, 230.373 243.226 L 228.626 244.655 Q 227.118 242.67, 224.445 242.67 Q 221.614 242.67, 220.106 244.575 Q 218.624 246.454, 218.624 250.053 Q 218.624 253.758, 220.158 255.663 Q 221.72 257.568, 224.736 257.568 Q 226.8 257.568, 229.209 256.324 L 229.949 258.309 Q 228.97 258.944, 227.488 259.315 Q 226.007 259.685, 224.366 259.685 Q 220.291 259.685, 218.094 257.198 Q 215.925 254.71, 215.925 250.053 " fill="#000000"/>
<path class="atom-4" d="M 232.357 256.351 L 235.004 256.351 L 235.004 258.997 L 232.357 258.997 L 232.357 256.351 M 232.357 247.248 L 235.004 247.248 L 235.004 249.894 L 232.357 249.894 L 232.357 247.248 " fill="#000000"/>
<path class="atom-4" d="M 243.022 247.724 Q 244.662 247.724, 246.012 248.439 Q 247.361 249.127, 248.129 250.45 Q 248.896 251.746, 248.896 253.519 Q 248.896 255.451, 247.944 256.854 Q 247.017 258.23, 245.483 258.944 Q 243.948 259.659, 242.201 259.659 Q 240.481 259.659, 238.894 259.024 Q 237.306 258.388, 236.221 257.171 L 237.809 255.531 Q 238.682 256.483, 239.873 257.012 Q 241.064 257.515, 242.281 257.515 Q 243.948 257.515, 245.086 256.483 Q 246.25 255.451, 246.25 253.572 Q 246.25 251.588, 245.086 250.662 Q 243.948 249.709, 242.122 249.709 Q 240.481 249.709, 238.655 250.423 L 237.2 249.735 L 238.1 240.712 L 247.732 240.712 L 247.467 242.829 L 240.27 242.829 L 239.714 248.386 Q 241.381 247.724, 243.022 247.724 " fill="#000000"/>
<path class="atom-5" d="M 114.315 164.919 Q 114.315 160.262, 116.485 157.828 Q 118.681 155.367, 122.835 155.367 Q 126.699 155.367, 128.763 158.092 L 127.017 159.521 Q 125.508 157.537, 122.835 157.537 Q 120.004 157.537, 118.496 159.442 Q 117.014 161.321, 117.014 164.919 Q 117.014 168.624, 118.549 170.529 Q 120.11 172.435, 123.127 172.435 Q 125.191 172.435, 127.599 171.191 L 128.34 173.176 Q 127.361 173.811, 125.879 174.181 Q 124.397 174.552, 122.756 174.552 Q 118.681 174.552, 116.485 172.064 Q 114.315 169.577, 114.315 164.919 " fill="#000000"/>
<path class="atom-5" d="M 130.748 171.217 L 133.394 171.217 L 133.394 173.864 L 130.748 173.864 L 130.748 171.217 M 130.748 162.114 L 133.394 162.114 L 133.394 164.761 L 130.748 164.761 L 130.748 162.114 " fill="#000000"/>
<path class="atom-5" d="M 142.523 162.617 Q 144.164 162.617, 145.461 163.332 Q 146.757 164.046, 147.472 165.343 Q 148.186 166.64, 148.186 168.28 Q 148.186 170.106, 147.366 171.535 Q 146.572 172.937, 145.143 173.731 Q 143.714 174.525, 141.888 174.525 Q 138.554 174.525, 136.86 172.276 Q 135.193 170, 135.193 165.502 Q 135.193 160.527, 137.257 157.96 Q 139.348 155.367, 143.344 155.367 Q 144.508 155.367, 145.487 155.631 Q 146.493 155.896, 147.445 156.452 L 146.413 158.225 Q 145.037 157.484, 143.37 157.484 Q 140.724 157.484, 139.374 159.204 Q 138.025 160.897, 137.866 164.417 Q 138.819 163.543, 140.009 163.094 Q 141.227 162.617, 142.523 162.617 M 141.915 172.355 Q 142.92 172.355, 143.741 171.826 Q 144.587 171.297, 145.064 170.371 Q 145.54 169.444, 145.54 168.307 Q 145.54 166.64, 144.614 165.687 Q 143.688 164.734, 142.047 164.734 Q 140.909 164.734, 139.771 165.211 Q 138.66 165.66, 137.866 166.454 Q 137.972 169.55, 138.951 170.953 Q 139.93 172.355, 141.915 172.355 " fill="#000000"/>
<path class="atom-6" d="M 177.172 142.346 Q 177.172 137.688, 179.342 135.254 Q 181.538 132.793, 185.693 132.793 Q 189.556 132.793, 191.62 135.519 L 189.874 136.948 Q 188.365 134.963, 185.693 134.963 Q 182.861 134.963, 181.353 136.868 Q 179.871 138.747, 179.871 142.346 Q 179.871 146.05, 181.406 147.956 Q 182.967 149.861, 185.984 149.861 Q 188.048 149.861, 190.456 148.617 L 191.197 150.602 Q 190.218 151.237, 188.736 151.608 Q 187.254 151.978, 185.613 151.978 Q 181.538 151.978, 179.342 149.491 Q 177.172 147.003, 177.172 142.346 " fill="#000000"/>
<path class="atom-6" d="M 193.605 148.644 L 196.251 148.644 L 196.251 151.29 L 193.605 151.29 L 193.605 148.644 M 193.605 139.541 L 196.251 139.541 L 196.251 142.187 L 193.605 142.187 L 193.605 139.541 " fill="#000000"/>
<path class="atom-6" d="M 206.545 135.122 L 196.727 135.122 L 196.727 133.005 L 209.165 133.005 L 209.165 134.884 L 201.597 151.74 L 199.056 151.74 L 206.545 135.122 " fill="#000000"/>
<path class="atom-7" d="M 102.725 230.06 Q 102.725 225.403, 104.895 222.968 Q 107.092 220.507, 111.246 220.507 Q 115.11 220.507, 117.174 223.233 L 115.427 224.662 Q 113.919 222.677, 111.246 222.677 Q 108.415 222.677, 106.906 224.582 Q 105.425 226.461, 105.425 230.06 Q 105.425 233.765, 106.959 235.67 Q 108.521 237.575, 111.537 237.575 Q 113.601 237.575, 116.009 236.331 L 116.75 238.316 Q 115.771 238.951, 114.289 239.322 Q 112.807 239.692, 111.167 239.692 Q 107.092 239.692, 104.895 237.205 Q 102.725 234.717, 102.725 230.06 " fill="#000000"/>
<path class="atom-7" d="M 119.158 236.358 L 121.805 236.358 L 121.805 239.004 L 119.158 239.004 L 119.158 236.358 M 119.158 227.255 L 121.805 227.255 L 121.805 229.901 L 119.158 229.901 L 119.158 227.255 " fill="#000000"/>
<path class="atom-7" d="M 132.998 229.531 Q 134.718 230.272, 135.697 231.383 Q 136.676 232.468, 136.676 234.32 Q 136.676 235.908, 135.856 237.152 Q 135.036 238.369, 133.554 239.057 Q 132.098 239.719, 130.167 239.719 Q 127.044 239.719, 125.245 238.29 Q 123.445 236.834, 123.445 234.32 Q 123.445 232.785, 124.239 231.648 Q 125.033 230.483, 126.674 229.61 Q 125.456 228.922, 124.795 227.916 Q 124.133 226.884, 124.133 225.297 Q 124.133 223.1, 125.721 221.804 Q 127.335 220.507, 130.061 220.507 Q 132.786 220.507, 134.374 221.804 Q 135.988 223.1, 135.988 225.297 Q 135.988 226.673, 135.221 227.705 Q 134.48 228.71, 132.998 229.531 M 130.061 222.492 Q 128.499 222.492, 127.626 223.233 Q 126.779 223.974, 126.779 225.297 Q 126.779 226.276, 127.362 226.937 Q 127.944 227.572, 128.764 227.943 Q 129.611 228.313, 131.225 228.869 Q 132.363 228.075, 132.839 227.228 Q 133.342 226.382, 133.342 225.297 Q 133.342 223.974, 132.469 223.233 Q 131.622 222.492, 130.061 222.492 M 130.167 237.734 Q 131.913 237.734, 132.972 236.808 Q 134.03 235.855, 134.03 234.294 Q 134.03 233.288, 133.474 232.653 Q 132.919 232.018, 132.072 231.648 Q 131.252 231.277, 129.77 230.801 L 128.579 230.404 Q 127.256 231.198, 126.674 232.15 Q 126.091 233.077, 126.091 234.294 Q 126.091 235.855, 127.203 236.808 Q 128.314 237.734, 130.167 237.734 " fill="#000000"/>
<path class="atom-8" d="M 242.372 184.913 Q 242.372 180.255, 244.542 177.821 Q 246.739 175.36, 250.893 175.36 Q 254.757 175.36, 256.821 178.085 L 255.074 179.514 Q 253.566 177.53, 250.893 177.53 Q 248.062 177.53, 246.553 179.435 Q 245.071 181.314, 245.071 184.913 Q 245.071 188.617, 246.606 190.522 Q 248.168 192.428, 251.184 192.428 Q 253.248 192.428, 255.656 191.184 L 256.397 193.169 Q 255.418 193.804, 253.936 194.174 Q 252.454 194.545, 250.814 194.545 Q 246.739 194.545, 244.542 192.057 Q 242.372 189.57, 242.372 184.913 " fill="#000000"/>
<path class="atom-8" d="M 258.805 191.211 L 261.451 191.211 L 261.451 193.857 L 258.805 193.857 L 258.805 191.211 M 258.805 182.108 L 261.451 182.108 L 261.451 184.754 L 258.805 184.754 L 258.805 182.108 " fill="#000000"/>
<path class="atom-8" d="M 269.205 175.36 Q 272.539 175.36, 274.206 177.635 Q 275.9 179.885, 275.9 184.383 Q 275.9 189.358, 273.809 191.951 Q 271.745 194.518, 267.749 194.518 Q 266.585 194.518, 265.58 194.254 Q 264.6 193.989, 263.648 193.433 L 264.68 191.66 Q 266.056 192.401, 267.723 192.401 Q 270.369 192.401, 271.719 190.708 Q 273.068 188.988, 273.227 185.468 Q 272.274 186.341, 271.057 186.818 Q 269.866 187.268, 268.57 187.268 Q 266.929 187.268, 265.632 186.553 Q 264.336 185.839, 263.621 184.542 Q 262.907 183.245, 262.907 181.605 Q 262.907 179.779, 263.701 178.376 Q 264.521 176.947, 265.95 176.154 Q 267.379 175.36, 269.205 175.36 M 265.553 181.578 Q 265.553 183.245, 266.479 184.198 Q 267.405 185.151, 269.046 185.151 Q 270.184 185.151, 271.295 184.701 Q 272.433 184.225, 273.227 183.431 Q 273.121 180.335, 272.142 178.932 Q 271.163 177.53, 269.178 177.53 Q 268.173 177.53, 267.326 178.059 Q 266.506 178.588, 266.029 179.514 Q 265.553 180.44, 265.553 181.578 " fill="#000000"/>
<path class="atom-9" d="M 146.737 272.627 Q 146.737 267.969, 148.907 265.535 Q 151.104 263.074, 155.258 263.074 Q 159.122 263.074, 161.186 265.799 L 159.439 267.228 Q 157.931 265.244, 155.258 265.244 Q 152.427 265.244, 150.918 267.149 Q 149.436 269.028, 149.436 272.627 Q 149.436 276.331, 150.971 278.237 Q 152.532 280.142, 155.549 280.142 Q 157.613 280.142, 160.021 278.898 L 160.762 280.883 Q 159.783 281.518, 158.301 281.888 Q 156.819 282.259, 155.179 282.259 Q 151.104 282.259, 148.907 279.771 Q 146.737 277.284, 146.737 272.627 " fill="#000000"/>
<path class="atom-9" d="M 163.17 278.925 L 165.816 278.925 L 165.816 281.571 L 163.17 281.571 L 163.17 278.925 M 163.17 269.822 L 165.816 269.822 L 165.816 272.468 L 163.17 272.468 L 163.17 269.822 " fill="#000000"/>
<path class="atom-9" d="M 168.277 279.904 L 172.379 279.904 L 172.379 265.905 L 167.854 267.308 L 167.245 265.746 L 172.988 263.18 L 174.866 263.497 L 174.866 279.904 L 178.545 279.904 L 178.545 282.021 L 168.277 282.021 L 168.277 279.904 " fill="#000000"/>
<path class="atom-9" d="M 187.013 282.232 Q 183.572 282.232, 181.852 279.692 Q 180.159 277.152, 180.159 272.627 Q 180.159 268.102, 181.852 265.588 Q 183.546 263.074, 187.013 263.074 Q 190.479 263.074, 192.173 265.588 Q 193.866 268.102, 193.866 272.627 Q 193.866 277.152, 192.146 279.692 Q 190.453 282.232, 187.013 282.232 M 187.013 280.115 Q 189.05 280.115, 190.135 278.237 Q 191.22 276.331, 191.22 272.627 Q 191.22 268.948, 190.135 267.07 Q 189.05 265.191, 187.013 265.191 Q 185.001 265.191, 183.89 267.07 Q 182.805 268.948, 182.805 272.627 Q 182.805 276.331, 183.89 278.237 Q 185.001 280.115, 187.013 280.115 " fill="#000000"/>
<path class="atom-10" d="M 248.97 357.76 Q 248.97 353.103, 251.14 350.668 Q 253.336 348.207, 257.491 348.207 Q 261.354 348.207, 263.418 350.933 L 261.672 352.362 Q 260.164 350.377, 257.491 350.377 Q 254.659 350.377, 253.151 352.282 Q 251.669 354.161, 251.669 357.76 Q 251.669 361.465, 253.204 363.37 Q 254.765 365.275, 257.782 365.275 Q 259.846 365.275, 262.254 364.032 L 262.995 366.016 Q 262.016 366.651, 260.534 367.022 Q 259.052 367.392, 257.411 367.392 Q 253.336 367.392, 251.14 364.905 Q 248.97 362.417, 248.97 357.76 " fill="#000000"/>
<path class="atom-10" d="M 265.403 364.058 L 268.049 364.058 L 268.049 366.704 L 265.403 366.704 L 265.403 364.058 M 265.403 354.955 L 268.049 354.955 L 268.049 357.601 L 265.403 357.601 L 265.403 354.955 " fill="#000000"/>
<path class="atom-10" d="M 270.51 365.037 L 274.612 365.037 L 274.612 351.039 L 270.087 352.441 L 269.478 350.88 L 275.22 348.313 L 277.099 348.631 L 277.099 365.037 L 280.777 365.037 L 280.777 367.154 L 270.51 367.154 L 270.51 365.037 " fill="#000000"/>
<path class="atom-10" d="M 283.238 365.037 L 287.34 365.037 L 287.34 351.039 L 282.815 352.441 L 282.206 350.88 L 287.949 348.313 L 289.828 348.631 L 289.828 365.037 L 293.506 365.037 L 293.506 367.154 L 283.238 367.154 L 283.238 365.037 " fill="#000000"/>
<path class="atom-11" d="M 392.921 312.586 Q 392.921 308.088, 395.144 305.574 Q 397.367 303.06, 401.522 303.06 Q 405.676 303.06, 407.899 305.574 Q 410.122 308.088, 410.122 312.586 Q 410.122 317.138, 407.873 319.731 Q 405.623 322.298, 401.522 322.298 Q 397.394 322.298, 395.144 319.731 Q 392.921 317.164, 392.921 312.586 M 401.522 320.181 Q 404.38 320.181, 405.914 318.276 Q 407.476 316.344, 407.476 312.586 Q 407.476 308.908, 405.914 307.056 Q 404.38 305.177, 401.522 305.177 Q 398.664 305.177, 397.102 307.029 Q 395.568 308.882, 395.568 312.586 Q 395.568 316.37, 397.102 318.276 Q 398.664 320.181, 401.522 320.181 " fill="#FF0000"/>
<path class="atom-11" d="M 412.106 318.911 L 414.753 318.911 L 414.753 321.557 L 412.106 321.557 L 412.106 318.911 M 412.106 309.808 L 414.753 309.808 L 414.753 312.454 L 412.106 312.454 L 412.106 309.808 " fill="#FF0000"/>
<path class="atom-11" d="M 417.214 319.89 L 421.315 319.89 L 421.315 305.891 L 416.79 307.294 L 416.182 305.733 L 421.924 303.166 L 423.803 303.483 L 423.803 319.89 L 427.481 319.89 L 427.481 322.007 L 417.214 322.007 L 417.214 319.89 " fill="#FF0000"/>
<path class="atom-11" d="M 428.857 306.818 Q 429.545 305.045, 431.186 304.065 Q 432.826 303.06, 435.102 303.06 Q 437.933 303.06, 439.521 304.595 Q 441.109 306.129, 441.109 308.855 Q 441.109 311.634, 439.045 314.227 Q 437.007 316.82, 432.773 319.89 L 441.426 319.89 L 441.426 322.007 L 428.804 322.007 L 428.804 320.234 Q 432.297 317.746, 434.361 315.894 Q 436.452 314.042, 437.457 312.375 Q 438.463 310.707, 438.463 308.987 Q 438.463 307.188, 437.563 306.182 Q 436.663 305.177, 435.102 305.177 Q 433.594 305.177, 432.588 305.785 Q 431.583 306.394, 430.868 307.744 L 428.857 306.818 " fill="#FF0000"/>
<path class="atom-12" d="M 348.767 130.424 L 354.907 140.347 Q 355.515 141.326, 356.494 143.099 Q 357.473 144.872, 357.526 144.978 L 357.526 130.424 L 360.014 130.424 L 360.014 149.159 L 357.447 149.159 L 350.858 138.31 Q 350.091 137.04, 349.27 135.584 Q 348.476 134.129, 348.238 133.679 L 348.238 149.159 L 345.804 149.159 L 345.804 130.424 L 348.767 130.424 " fill="#0000FF"/>
<path class="atom-12" d="M 361.998 146.063 L 364.645 146.063 L 364.645 148.709 L 361.998 148.709 L 361.998 146.063 M 361.998 136.96 L 364.645 136.96 L 364.645 139.606 L 361.998 139.606 L 361.998 136.96 " fill="#0000FF"/>
<path class="atom-12" d="M 367.106 147.042 L 371.207 147.042 L 371.207 133.044 L 366.682 134.446 L 366.074 132.885 L 371.816 130.318 L 373.695 130.636 L 373.695 147.042 L 377.373 147.042 L 377.373 149.159 L 367.106 149.159 L 367.106 147.042 " fill="#0000FF"/>
<path class="atom-12" d="M 387.481 139.289 Q 389.307 139.818, 390.181 141.009 Q 391.08 142.173, 391.08 144.026 Q 391.08 145.613, 390.286 146.857 Q 389.493 148.074, 388.037 148.762 Q 386.582 149.424, 384.676 149.424 Q 382.665 149.424, 381.157 148.736 Q 379.675 148.021, 378.484 146.592 L 379.993 145.058 Q 381.157 146.328, 382.136 146.831 Q 383.115 147.307, 384.676 147.307 Q 386.37 147.307, 387.402 146.407 Q 388.434 145.481, 388.434 143.999 Q 388.434 142.094, 387.349 141.247 Q 386.291 140.374, 383.988 140.374 L 382.639 140.374 L 382.639 138.469 L 383.83 138.469 Q 385.867 138.442, 386.952 137.569 Q 388.037 136.669, 388.037 135.002 Q 388.037 133.785, 387.137 133.07 Q 386.238 132.329, 384.703 132.329 Q 383.142 132.329, 382.163 132.885 Q 381.21 133.441, 380.469 134.843 L 378.643 133.864 Q 379.305 132.303, 380.892 131.271 Q 382.48 130.212, 384.703 130.212 Q 387.455 130.212, 389.069 131.509 Q 390.683 132.806, 390.683 135.002 Q 390.683 136.51, 389.863 137.595 Q 389.043 138.68, 387.481 139.289 " fill="#0000FF"/>
<path class="atom-13" d="M 420.233 207.055 L 422.774 207.055 L 422.774 215.02 L 432.353 215.02 L 432.353 207.055 L 434.893 207.055 L 434.893 225.79 L 432.353 225.79 L 432.353 217.137 L 422.774 217.137 L 422.774 225.79 L 420.233 225.79 L 420.233 207.055 " fill="#000000"/>
<path class="atom-13" d="M 436.878 222.694 L 439.524 222.694 L 439.524 225.34 L 436.878 225.34 L 436.878 222.694 M 436.878 213.591 L 439.524 213.591 L 439.524 216.237 L 436.878 216.237 L 436.878 213.591 " fill="#000000"/>
<path class="atom-13" d="M 441.985 223.673 L 446.087 223.673 L 446.087 209.674 L 441.562 211.077 L 440.953 209.516 L 446.695 206.949 L 448.574 207.266 L 448.574 223.673 L 452.252 223.673 L 452.252 225.79 L 441.985 225.79 L 441.985 223.673 " fill="#000000"/>
<path class="atom-13" d="M 465.219 219.359 L 467.468 219.359 L 467.468 221.476 L 465.219 221.476 L 465.219 225.79 L 462.731 225.79 L 462.731 221.476 L 453.046 221.476 L 453.046 219.809 L 461.25 207.055 L 465.219 207.055 L 465.219 219.359 M 456.116 219.359 L 462.731 219.359 L 462.731 208.748 L 456.116 219.359 " fill="#000000"/>
<path class="atom-14" d="M 203.168 67.8114 L 205.708 67.8114 L 205.708 75.7765 L 215.287 75.7765 L 215.287 67.8114 L 217.828 67.8114 L 217.828 86.5465 L 215.287 86.5465 L 215.287 77.8934 L 205.708 77.8934 L 205.708 86.5465 L 203.168 86.5465 L 203.168 67.8114 " fill="#000000"/>
<path class="atom-14" d="M 219.812 83.4505 L 222.459 83.4505 L 222.459 86.0967 L 219.812 86.0967 L 219.812 83.4505 M 219.812 74.3475 L 222.459 74.3475 L 222.459 76.9937 L 219.812 76.9937 L 219.812 74.3475 " fill="#000000"/>
<path class="atom-14" d="M 224.92 84.4296 L 229.021 84.4296 L 229.021 70.4311 L 224.496 71.8336 L 223.888 70.2724 L 229.63 67.7055 L 231.509 68.0231 L 231.509 84.4296 L 235.187 84.4296 L 235.187 86.5465 L 224.92 86.5465 L 224.92 84.4296 " fill="#000000"/>
<path class="atom-14" d="M 243.205 74.8238 Q 244.846 74.8238, 246.195 75.5383 Q 247.545 76.2263, 248.312 77.5494 Q 249.079 78.8461, 249.079 80.619 Q 249.079 82.5508, 248.127 83.9532 Q 247.201 85.3293, 245.666 86.0438 Q 244.131 86.7582, 242.385 86.7582 Q 240.664 86.7582, 239.077 86.1231 Q 237.489 85.488, 236.404 84.2708 L 237.992 82.6301 Q 238.865 83.5828, 240.056 84.112 Q 241.247 84.6148, 242.464 84.6148 Q 244.131 84.6148, 245.269 83.5828 Q 246.433 82.5508, 246.433 80.6719 Q 246.433 78.6873, 245.269 77.7611 Q 244.131 76.8085, 242.305 76.8085 Q 240.664 76.8085, 238.839 77.523 L 237.383 76.8349 L 238.283 67.8114 L 247.915 67.8114 L 247.65 69.9283 L 240.453 69.9283 L 239.897 75.4854 Q 241.564 74.8238, 243.205 74.8238 " fill="#000000"/>
<path class="atom-15" d="M 22.7273 243.292 L 25.2676 243.292 L 25.2676 251.258 L 34.8469 251.258 L 34.8469 243.292 L 37.3873 243.292 L 37.3873 262.028 L 34.8469 262.028 L 34.8469 253.374 L 25.2676 253.374 L 25.2676 262.028 L 22.7273 262.028 L 22.7273 243.292 " fill="#000000"/>
<path class="atom-15" d="M 39.3719 258.932 L 42.0181 258.932 L 42.0181 261.578 L 39.3719 261.578 L 39.3719 258.932 M 39.3719 249.829 L 42.0181 249.829 L 42.0181 252.475 L 39.3719 252.475 L 39.3719 249.829 " fill="#000000"/>
<path class="atom-15" d="M 44.4791 259.911 L 48.5807 259.911 L 48.5807 245.912 L 44.0557 247.315 L 43.4471 245.753 L 49.1894 243.187 L 51.0682 243.504 L 51.0682 259.911 L 54.7464 259.911 L 54.7464 262.028 L 44.4791 262.028 L 44.4791 259.911 " fill="#000000"/>
<path class="atom-15" d="M 63.8758 250.331 Q 65.5165 250.331, 66.8131 251.046 Q 68.1097 251.76, 68.8242 253.057 Q 69.5387 254.354, 69.5387 255.994 Q 69.5387 257.82, 68.7184 259.249 Q 67.9245 260.652, 66.4956 261.445 Q 65.0666 262.239, 63.2407 262.239 Q 59.9065 262.239, 58.2129 259.99 Q 56.5458 257.714, 56.5458 253.216 Q 56.5458 248.241, 58.6099 245.674 Q 60.7004 243.081, 64.6961 243.081 Q 65.8605 243.081, 66.8396 243.345 Q 67.8451 243.61, 68.7978 244.166 L 67.7657 245.939 Q 66.3897 245.198, 64.7226 245.198 Q 62.0764 245.198, 60.7268 246.918 Q 59.3773 248.611, 59.2185 252.131 Q 60.1711 251.258, 61.3619 250.808 Q 62.5792 250.331, 63.8758 250.331 M 63.2672 260.069 Q 64.2727 260.069, 65.0931 259.54 Q 65.9399 259.011, 66.4162 258.085 Q 66.8925 257.159, 66.8925 256.021 Q 66.8925 254.354, 65.9663 253.401 Q 65.0401 252.448, 63.3995 252.448 Q 62.2616 252.448, 61.1238 252.925 Q 60.0123 253.374, 59.2185 254.168 Q 59.3243 257.264, 60.3034 258.667 Q 61.2825 260.069, 63.2672 260.069 " fill="#000000"/>
<path class="atom-16" d="M 280.956 155.845 L 283.497 155.845 L 283.497 163.81 L 293.076 163.81 L 293.076 155.845 L 295.616 155.845 L 295.616 174.58 L 293.076 174.58 L 293.076 165.927 L 283.497 165.927 L 283.497 174.58 L 280.956 174.58 L 280.956 155.845 " fill="#000000"/>
<path class="atom-16" d="M 297.601 171.484 L 300.247 171.484 L 300.247 174.13 L 297.601 174.13 L 297.601 171.484 M 297.601 162.381 L 300.247 162.381 L 300.247 165.027 L 297.601 165.027 L 297.601 162.381 " fill="#000000"/>
<path class="atom-16" d="M 302.708 172.463 L 306.81 172.463 L 306.81 158.465 L 302.285 159.867 L 301.676 158.306 L 307.418 155.739 L 309.297 156.057 L 309.297 172.463 L 312.975 172.463 L 312.975 174.58 L 302.708 174.58 L 302.708 172.463 " fill="#000000"/>
<path class="atom-16" d="M 323.269 157.962 L 313.452 157.962 L 313.452 155.845 L 325.889 155.845 L 325.889 157.724 L 318.321 174.58 L 315.78 174.58 L 323.269 157.962 " fill="#000000"/>
<path class="atom-17" d="M 156.996 328.426 L 159.536 328.426 L 159.536 336.391 L 169.115 336.391 L 169.115 328.426 L 171.656 328.426 L 171.656 347.161 L 169.115 347.161 L 169.115 338.508 L 159.536 338.508 L 159.536 347.161 L 156.996 347.161 L 156.996 328.426 " fill="#000000"/>
<path class="atom-17" d="M 173.64 344.065 L 176.287 344.065 L 176.287 346.711 L 173.64 346.711 L 173.64 344.065 M 173.64 334.962 L 176.287 334.962 L 176.287 337.608 L 173.64 337.608 L 173.64 334.962 " fill="#000000"/>
<path class="atom-17" d="M 178.748 345.044 L 182.849 345.044 L 182.849 331.046 L 178.324 332.448 L 177.716 330.887 L 183.458 328.32 L 185.337 328.638 L 185.337 345.044 L 189.015 345.044 L 189.015 347.161 L 178.748 347.161 L 178.748 345.044 " fill="#000000"/>
<path class="atom-17" d="M 200.208 337.238 Q 201.928 337.979, 202.907 339.09 Q 203.887 340.175, 203.887 342.027 Q 203.887 343.615, 203.066 344.859 Q 202.246 346.076, 200.764 346.764 Q 199.309 347.426, 197.377 347.426 Q 194.254 347.426, 192.455 345.997 Q 190.655 344.541, 190.655 342.027 Q 190.655 340.493, 191.449 339.355 Q 192.243 338.19, 193.884 337.317 Q 192.667 336.629, 192.005 335.624 Q 191.344 334.592, 191.344 333.004 Q 191.344 330.807, 192.931 329.511 Q 194.545 328.214, 197.271 328.214 Q 199.997 328.214, 201.584 329.511 Q 203.199 330.807, 203.199 333.004 Q 203.199 334.38, 202.431 335.412 Q 201.69 336.417, 200.208 337.238 M 197.271 330.199 Q 195.71 330.199, 194.837 330.94 Q 193.99 331.681, 193.99 333.004 Q 193.99 333.983, 194.572 334.644 Q 195.154 335.28, 195.974 335.65 Q 196.821 336.02, 198.435 336.576 Q 199.573 335.782, 200.05 334.936 Q 200.552 334.089, 200.552 333.004 Q 200.552 331.681, 199.679 330.94 Q 198.832 330.199, 197.271 330.199 M 197.377 345.441 Q 199.123 345.441, 200.182 344.515 Q 201.24 343.562, 201.24 342.001 Q 201.24 340.995, 200.685 340.36 Q 200.129 339.725, 199.282 339.355 Q 198.462 338.984, 196.98 338.508 L 195.789 338.111 Q 194.466 338.905, 193.884 339.857 Q 193.302 340.784, 193.302 342.001 Q 193.302 343.562, 194.413 344.515 Q 195.525 345.441, 197.377 345.441 " fill="#000000"/>
<path class="atom-18" d="M 172.041 336.876 L 174.581 336.876 L 174.581 344.841 L 184.16 344.841 L 184.16 336.876 L 186.701 336.876 L 186.701 355.611 L 184.16 355.611 L 184.16 346.958 L 174.581 346.958 L 174.581 355.611 L 172.041 355.611 L 172.041 336.876 " fill="#000000"/>
<path class="atom-18" d="M 188.685 352.515 L 191.332 352.515 L 191.332 355.161 L 188.685 355.161 L 188.685 352.515 M 188.685 343.412 L 191.332 343.412 L 191.332 346.058 L 188.685 346.058 L 188.685 343.412 " fill="#000000"/>
<path class="atom-18" d="M 193.793 353.494 L 197.894 353.494 L 197.894 339.496 L 193.369 340.898 L 192.761 339.337 L 198.503 336.77 L 200.382 337.088 L 200.382 353.494 L 204.06 353.494 L 204.06 355.611 L 193.793 355.611 L 193.793 353.494 " fill="#000000"/>
<path class="atom-18" d="M 211.813 336.664 Q 215.148 336.664, 216.815 338.94 Q 218.508 341.189, 218.508 345.688 Q 218.508 350.663, 216.418 353.256 Q 214.354 355.823, 210.358 355.823 Q 209.194 355.823, 208.188 355.558 Q 207.209 355.294, 206.256 354.738 L 207.288 352.965 Q 208.664 353.706, 210.331 353.706 Q 212.978 353.706, 214.327 352.012 Q 215.677 350.292, 215.836 346.773 Q 214.883 347.646, 213.666 348.122 Q 212.475 348.572, 211.178 348.572 Q 209.538 348.572, 208.241 347.858 Q 206.944 347.143, 206.23 345.847 Q 205.515 344.55, 205.515 342.909 Q 205.515 341.083, 206.309 339.681 Q 207.13 338.252, 208.558 337.458 Q 209.987 336.664, 211.813 336.664 M 208.162 342.883 Q 208.162 344.55, 209.088 345.503 Q 210.014 346.455, 211.655 346.455 Q 212.792 346.455, 213.904 346.005 Q 215.042 345.529, 215.836 344.735 Q 215.73 341.639, 214.751 340.237 Q 213.772 338.834, 211.787 338.834 Q 210.781 338.834, 209.935 339.363 Q 209.114 339.893, 208.638 340.819 Q 208.162 341.745, 208.162 342.883 " fill="#000000"/>
<path class="atom-19" d="M 334.963 359.962 L 337.503 359.962 L 337.503 367.927 L 347.082 367.927 L 347.082 359.962 L 349.623 359.962 L 349.623 378.697 L 347.082 378.697 L 347.082 370.044 L 337.503 370.044 L 337.503 378.697 L 334.963 378.697 L 334.963 359.962 " fill="#000000"/>
<path class="atom-19" d="M 351.607 375.601 L 354.253 375.601 L 354.253 378.247 L 351.607 378.247 L 351.607 375.601 M 351.607 366.498 L 354.253 366.498 L 354.253 369.144 L 351.607 369.144 L 351.607 366.498 " fill="#000000"/>
<path class="atom-19" d="M 355.629 363.508 Q 356.317 361.735, 357.958 360.756 Q 359.599 359.75, 361.875 359.75 Q 364.706 359.75, 366.294 361.285 Q 367.881 362.82, 367.881 365.545 Q 367.881 368.324, 365.817 370.917 Q 363.78 373.511, 359.546 376.58 L 368.199 376.58 L 368.199 378.697 L 355.577 378.697 L 355.577 376.924 Q 359.07 374.437, 361.134 372.584 Q 363.224 370.732, 364.23 369.065 Q 365.235 367.398, 365.235 365.678 Q 365.235 363.878, 364.335 362.873 Q 363.436 361.867, 361.875 361.867 Q 360.366 361.867, 359.361 362.476 Q 358.355 363.084, 357.641 364.434 L 355.629 363.508 " fill="#000000"/>
<path class="atom-19" d="M 376.667 378.909 Q 373.227 378.909, 371.507 376.368 Q 369.813 373.828, 369.813 369.303 Q 369.813 364.778, 371.507 362.264 Q 373.2 359.75, 376.667 359.75 Q 380.133 359.75, 381.827 362.264 Q 383.521 364.778, 383.521 369.303 Q 383.521 373.828, 381.8 376.368 Q 380.107 378.909, 376.667 378.909 M 376.667 376.792 Q 378.704 376.792, 379.789 374.913 Q 380.874 373.008, 380.874 369.303 Q 380.874 365.625, 379.789 363.746 Q 378.704 361.867, 376.667 361.867 Q 374.656 361.867, 373.544 363.746 Q 372.459 365.625, 372.459 369.303 Q 372.459 373.008, 373.544 374.913 Q 374.656 376.792, 376.667 376.792 " fill="#000000"/>
<path class="atom-20" d="M 258.279 413.559 L 260.82 413.559 L 260.82 421.524 L 270.399 421.524 L 270.399 413.559 L 272.939 413.559 L 272.939 432.294 L 270.399 432.294 L 270.399 423.641 L 260.82 423.641 L 260.82 432.294 L 258.279 432.294 L 258.279 413.559 " fill="#000000"/>
<path class="atom-20" d="M 274.924 429.198 L 277.57 429.198 L 277.57 431.845 L 274.924 431.845 L 274.924 429.198 M 274.924 420.095 L 277.57 420.095 L 277.57 422.742 L 274.924 422.742 L 274.924 420.095 " fill="#000000"/>
<path class="atom-20" d="M 278.946 417.105 Q 279.634 415.332, 281.275 414.353 Q 282.915 413.348, 285.191 413.348 Q 288.023 413.348, 289.61 414.882 Q 291.198 416.417, 291.198 419.143 Q 291.198 421.921, 289.134 424.515 Q 287.096 427.108, 282.862 430.178 L 291.516 430.178 L 291.516 432.294 L 278.893 432.294 L 278.893 430.522 Q 282.386 428.034, 284.45 426.182 Q 286.541 424.329, 287.546 422.662 Q 288.552 420.995, 288.552 419.275 Q 288.552 417.476, 287.652 416.47 Q 286.752 415.465, 285.191 415.465 Q 283.683 415.465, 282.677 416.073 Q 281.672 416.682, 280.957 418.031 L 278.946 417.105 " fill="#000000"/>
<path class="atom-20" d="M 293.977 430.178 L 298.078 430.178 L 298.078 416.179 L 293.553 417.582 L 292.945 416.02 L 298.687 413.453 L 300.566 413.771 L 300.566 430.178 L 304.244 430.178 L 304.244 432.294 L 293.977 432.294 L 293.977 430.178 " fill="#000000"/>
<path class="atom-21" d="M 45.2576 113.012 L 47.7979 113.012 L 47.7979 120.977 L 57.3772 120.977 L 57.3772 113.012 L 59.9176 113.012 L 59.9176 131.747 L 57.3772 131.747 L 57.3772 123.094 L 47.7979 123.094 L 47.7979 131.747 L 45.2576 131.747 L 45.2576 113.012 " fill="#000000"/>
<path class="atom-21" d="M 61.9022 128.651 L 64.5484 128.651 L 64.5484 131.297 L 61.9022 131.297 L 61.9022 128.651 M 61.9022 119.548 L 64.5484 119.548 L 64.5484 122.194 L 61.9022 122.194 L 61.9022 119.548 " fill="#000000"/>
<path class="atom-21" d="M 65.9245 116.558 Q 66.6125 114.785, 68.2531 113.805 Q 69.8938 112.8, 72.1695 112.8 Q 75.0009 112.8, 76.5887 114.335 Q 78.1764 115.87, 78.1764 118.595 Q 78.1764 121.374, 76.1124 123.967 Q 74.0748 126.56, 69.8408 129.63 L 78.4939 129.63 L 78.4939 131.747 L 65.8715 131.747 L 65.8715 129.974 Q 69.3645 127.486, 71.4286 125.634 Q 73.5191 123.782, 74.5246 122.115 Q 75.5302 120.447, 75.5302 118.727 Q 75.5302 116.928, 74.6305 115.922 Q 73.7308 114.917, 72.1695 114.917 Q 70.6612 114.917, 69.6556 115.526 Q 68.65 116.134, 67.9356 117.484 L 65.9245 116.558 " fill="#000000"/>
<path class="atom-21" d="M 79.87 116.558 Q 80.558 114.785, 82.1986 113.805 Q 83.8393 112.8, 86.115 112.8 Q 88.9465 112.8, 90.5342 114.335 Q 92.1219 115.87, 92.1219 118.595 Q 92.1219 121.374, 90.0579 123.967 Q 88.0203 126.56, 83.7864 129.63 L 92.4395 129.63 L 92.4395 131.747 L 79.817 131.747 L 79.817 129.974 Q 83.31 127.486, 85.3741 125.634 Q 87.4646 123.782, 88.4701 122.115 Q 89.4757 120.447, 89.4757 118.727 Q 89.4757 116.928, 88.576 115.922 Q 87.6763 114.917, 86.115 114.917 Q 84.6067 114.917, 83.6011 115.526 Q 82.5956 116.134, 81.8811 117.484 L 79.87 116.558 " fill="#000000"/>
<path class="atom-22" d="M 282.678 87.8574 L 285.219 87.8574 L 285.219 95.8224 L 294.798 95.8224 L 294.798 87.8574 L 297.338 87.8574 L 297.338 106.593 L 294.798 106.593 L 294.798 97.9394 L 285.219 97.9394 L 285.219 106.593 L 282.678 106.593 L 282.678 87.8574 " fill="#000000"/>
<path class="atom-22" d="M 299.323 103.496 L 301.969 103.496 L 301.969 106.143 L 299.323 106.143 L 299.323 103.496 M 299.323 94.3935 L 301.969 94.3935 L 301.969 97.0397 L 299.323 97.0397 L 299.323 94.3935 " fill="#000000"/>
<path class="atom-22" d="M 303.345 91.4033 Q 304.033 89.6303, 305.674 88.6512 Q 307.315 87.6457, 309.59 87.6457 Q 312.422 87.6457, 314.01 89.1805 Q 315.597 90.7153, 315.597 93.4409 Q 315.597 96.2194, 313.533 98.8127 Q 311.496 101.406, 307.262 104.476 L 315.915 104.476 L 315.915 106.593 L 303.292 106.593 L 303.292 104.82 Q 306.785 102.332, 308.849 100.48 Q 310.94 98.6274, 311.945 96.9603 Q 312.951 95.2932, 312.951 93.5732 Q 312.951 91.7738, 312.051 90.7682 Q 311.152 89.7626, 309.59 89.7626 Q 308.082 89.7626, 307.076 90.3713 Q 306.071 90.9799, 305.356 92.3295 L 303.345 91.4033 " fill="#000000"/>
<path class="atom-22" d="M 326.023 96.7222 Q 327.849 97.2514, 328.722 98.4422 Q 329.622 99.6065, 329.622 101.459 Q 329.622 103.047, 328.828 104.29 Q 328.034 105.508, 326.579 106.196 Q 325.124 106.857, 323.218 106.857 Q 321.207 106.857, 319.699 106.169 Q 318.217 105.455, 317.026 104.026 L 318.535 102.491 Q 319.699 103.761, 320.678 104.264 Q 321.657 104.74, 323.218 104.74 Q 324.912 104.74, 325.944 103.84 Q 326.976 102.914, 326.976 101.432 Q 326.976 99.5271, 325.891 98.6804 Q 324.833 97.8071, 322.53 97.8071 L 321.181 97.8071 L 321.181 95.9018 L 322.372 95.9018 Q 324.409 95.8754, 325.494 95.0021 Q 326.579 94.1024, 326.579 92.4353 Q 326.579 91.218, 325.679 90.5036 Q 324.78 89.7626, 323.245 89.7626 Q 321.684 89.7626, 320.704 90.3183 Q 319.752 90.874, 319.011 92.2765 L 317.185 91.2974 Q 317.847 89.7362, 319.434 88.7041 Q 321.022 87.6457, 323.245 87.6457 Q 325.997 87.6457, 327.611 88.9423 Q 329.225 90.2389, 329.225 92.4353 Q 329.225 93.9436, 328.405 95.0286 Q 327.585 96.1135, 326.023 96.7222 " fill="#000000"/>
<path class="atom-23" d="M 428.821 107.85 L 431.361 107.85 L 431.361 115.816 L 440.94 115.816 L 440.94 107.85 L 443.481 107.85 L 443.481 126.586 L 440.94 126.586 L 440.94 117.932 L 431.361 117.932 L 431.361 126.586 L 428.821 126.586 L 428.821 107.85 " fill="#000000"/>
<path class="atom-23" d="M 445.465 123.49 L 448.112 123.49 L 448.112 126.136 L 445.465 126.136 L 445.465 123.49 M 445.465 114.387 L 448.112 114.387 L 448.112 117.033 L 445.465 117.033 L 445.465 114.387 " fill="#000000"/>
<path class="atom-23" d="M 449.488 111.396 Q 450.176 109.623, 451.816 108.644 Q 453.457 107.639, 455.733 107.639 Q 458.564 107.639, 460.152 109.174 Q 461.739 110.708, 461.739 113.434 Q 461.739 116.212, 459.675 118.806 Q 457.638 121.399, 453.404 124.469 L 462.057 124.469 L 462.057 126.586 L 449.435 126.586 L 449.435 124.813 Q 452.928 122.325, 454.992 120.473 Q 457.082 118.62, 458.088 116.953 Q 459.093 115.286, 459.093 113.566 Q 459.093 111.767, 458.194 110.761 Q 457.294 109.756, 455.733 109.756 Q 454.224 109.756, 453.219 110.364 Q 452.213 110.973, 451.499 112.323 L 449.488 111.396 " fill="#000000"/>
<path class="atom-23" d="M 475.023 120.155 L 477.273 120.155 L 477.273 122.272 L 475.023 122.272 L 475.023 126.586 L 472.536 126.586 L 472.536 122.272 L 462.851 122.272 L 462.851 120.605 L 471.054 107.85 L 475.023 107.85 L 475.023 120.155 M 465.92 120.155 L 472.536 120.155 L 472.536 109.544 L 465.92 120.155 " fill="#000000"/>
<text x="356.651420582289" y="237.3964024173036" font-size="12" font-family="Verdana" font-weight="bold" letter-spacing="0" text-anchor="start" fill="black" transform=" rotate(10.048608 356.651421 237.396402)">0.025</text><text x="25" y="490" font-size="12" font-family="Verdana" font-weight="bold" letter-spacing="0" text-anchor="start" fill="black">[H:1]-[#6:2](-[#6:3](-[#7:4](-[#6:5]1:[#6:9](:[#6:7](:[#6:6](:[#6:8](:[#6:10]:1-[H:18])-[H:16])-[H:22])-[H:15])-[H:17])-[#6:11](-[H:19])(-[H:20])-[H:21])=[#8:12])(-[#7:13](-[H:23])-[H:24])-[H:14]</text></svg>
