<?xml version='1.0' encoding='ASCII' standalone='yes'?>
<svg xmlns="http://www.w3.org/2000/svg" xmlns:rdkit="http://www.rdkit.org/xml" xmlns:xlink="http://www.w3.org/1999/xlink" version="1.1" baseProfile="full" xml:space="preserve" width="500px" height="500px" viewBox="0 0 500 500">
<!-- END OF HEADER -->
<rect style="opacity:1.0;fill:#FFFFFF;stroke:none" width="500" height="500" x="0" y="0"> </rect>
<path d="M 270.924,309.348 L 215.636,304.77" style="fill:none;fill-rule:evenodd;stroke:#FF7F7F;stroke-width:11.8px;stroke-linecap:butt;stroke-linejoin:miter;stroke-opacity:1"/>
<path class="bond-0 atom-0 atom-12" d="M 292.607,254.902 L 281.23,244.752" style="fill:none;fill-rule:evenodd;stroke:#000000;stroke-width:2.0px;stroke-linecap:butt;stroke-linejoin:miter;stroke-opacity:1"/>
<path class="bond-1 atom-0 atom-13" d="M 308.658,268.002 L 340.778,290.271" style="fill:none;fill-rule:evenodd;stroke:#000000;stroke-width:2.0px;stroke-linecap:butt;stroke-linejoin:miter;stroke-opacity:1"/>
<path class="bond-2 atom-1 atom-0" d="M 277.394,300.017 L 296.522,272.426" style="fill:none;fill-rule:evenodd;stroke:#000000;stroke-width:2.0px;stroke-linecap:butt;stroke-linejoin:miter;stroke-opacity:1"/>
<path class="bond-21 atom-11 atom-0" d="M 327.673,227.495 L 318.023,241.413" style="fill:none;fill-rule:evenodd;stroke:#0000FF;stroke-width:2.0px;stroke-linecap:butt;stroke-linejoin:miter;stroke-opacity:1"/>
<path class="bond-21 atom-11 atom-0" d="M 318.023,241.413 L 308.374,255.331" style="fill:none;fill-rule:evenodd;stroke:#000000;stroke-width:2.0px;stroke-linecap:butt;stroke-linejoin:miter;stroke-opacity:1"/>
<path class="bond-3 atom-1 atom-10" d="M 270.312,321.047 L 277.808,336.93" style="fill:none;fill-rule:evenodd;stroke:#000000;stroke-width:2.0px;stroke-linecap:butt;stroke-linejoin:miter;stroke-opacity:1"/>
<path class="bond-3 atom-1 atom-10" d="M 277.808,336.93 L 285.304,352.813" style="fill:none;fill-rule:evenodd;stroke:#FF0000;stroke-width:2.0px;stroke-linecap:butt;stroke-linejoin:miter;stroke-opacity:1"/>
<path class="bond-3 atom-1 atom-10" d="M 280.346,316.311 L 287.842,332.194" style="fill:none;fill-rule:evenodd;stroke:#000000;stroke-width:2.0px;stroke-linecap:butt;stroke-linejoin:miter;stroke-opacity:1"/>
<path class="bond-3 atom-1 atom-10" d="M 287.842,332.194 L 295.339,348.077" style="fill:none;fill-rule:evenodd;stroke:#FF0000;stroke-width:2.0px;stroke-linecap:butt;stroke-linejoin:miter;stroke-opacity:1"/>
<path class="bond-5 atom-2 atom-1" d="M 226.123,305.638 L 238.678,306.678" style="fill:none;fill-rule:evenodd;stroke:#0000FF;stroke-width:2.0px;stroke-linecap:butt;stroke-linejoin:miter;stroke-opacity:1"/>
<path class="bond-5 atom-2 atom-1" d="M 238.678,306.678 L 251.232,307.717" style="fill:none;fill-rule:evenodd;stroke:#000000;stroke-width:2.0px;stroke-linecap:butt;stroke-linejoin:miter;stroke-opacity:1"/>
<path class="bond-4 atom-2 atom-3" d="M 212.786,298.732 L 204.534,281.248" style="fill:none;fill-rule:evenodd;stroke:#0000FF;stroke-width:2.0px;stroke-linecap:butt;stroke-linejoin:miter;stroke-opacity:1"/>
<path class="bond-4 atom-2 atom-3" d="M 204.534,281.248 L 196.282,263.764" style="fill:none;fill-rule:evenodd;stroke:#000000;stroke-width:2.0px;stroke-linecap:butt;stroke-linejoin:miter;stroke-opacity:1"/>
<path class="bond-6 atom-2 atom-4" d="M 209.167,314.101 L 199.672,327.797" style="fill:none;fill-rule:evenodd;stroke:#0000FF;stroke-width:2.0px;stroke-linecap:butt;stroke-linejoin:miter;stroke-opacity:1"/>
<path class="bond-6 atom-2 atom-4" d="M 199.672,327.797 L 190.177,341.492" style="fill:none;fill-rule:evenodd;stroke:#000000;stroke-width:2.0px;stroke-linecap:butt;stroke-linejoin:miter;stroke-opacity:1"/>
<path class="bond-10 atom-5 atom-3" d="M 216.957,218.539 L 198.102,245.736" style="fill:none;fill-rule:evenodd;stroke:#000000;stroke-width:2.0px;stroke-linecap:butt;stroke-linejoin:miter;stroke-opacity:1"/>
<path class="bond-10 atom-5 atom-3" d="M 205.011,216.297 L 191.812,235.335" style="fill:none;fill-rule:evenodd;stroke:#000000;stroke-width:2.0px;stroke-linecap:butt;stroke-linejoin:miter;stroke-opacity:1"/>
<path class="bond-19 atom-9 atom-3" d="M 153.148,251.387 L 171.934,252.942" style="fill:none;fill-rule:evenodd;stroke:#000000;stroke-width:2.0px;stroke-linecap:butt;stroke-linejoin:miter;stroke-opacity:1"/>
<path class="bond-7 atom-4 atom-14" d="M 170.568,341.031 L 144.727,323.116" style="fill:none;fill-rule:evenodd;stroke:#000000;stroke-width:2.0px;stroke-linecap:butt;stroke-linejoin:miter;stroke-opacity:1"/>
<path class="bond-8 atom-4 atom-15" d="M 194.507,357.628 L 222.404,376.969" style="fill:none;fill-rule:evenodd;stroke:#000000;stroke-width:2.0px;stroke-linecap:butt;stroke-linejoin:miter;stroke-opacity:1"/>
<path class="bond-9 atom-4 atom-16" d="M 177.42,359.893 L 158.595,387.046" style="fill:none;fill-rule:evenodd;stroke:#000000;stroke-width:2.0px;stroke-linecap:butt;stroke-linejoin:miter;stroke-opacity:1"/>
<path class="bond-11 atom-5 atom-17" d="M 246.822,208.087 L 253.461,207.824" style="fill:none;fill-rule:evenodd;stroke:#000000;stroke-width:2.0px;stroke-linecap:butt;stroke-linejoin:miter;stroke-opacity:1"/>
<path class="bond-15 atom-7 atom-5" d="M 204.395,168.391 L 219.286,199.941" style="fill:none;fill-rule:evenodd;stroke:#000000;stroke-width:2.0px;stroke-linecap:butt;stroke-linejoin:miter;stroke-opacity:1"/>
<path class="bond-12 atom-6 atom-7" d="M 154.546,155.084 L 179.879,157.181" style="fill:none;fill-rule:evenodd;stroke:#000000;stroke-width:2.0px;stroke-linecap:butt;stroke-linejoin:miter;stroke-opacity:1"/>
<path class="bond-12 atom-6 atom-7" d="M 157.431,166.456 L 175.163,167.924" style="fill:none;fill-rule:evenodd;stroke:#000000;stroke-width:2.0px;stroke-linecap:butt;stroke-linejoin:miter;stroke-opacity:1"/>
<path class="bond-13 atom-6 atom-8" d="M 137.99,163.791 L 119.257,190.811" style="fill:none;fill-rule:evenodd;stroke:#000000;stroke-width:2.0px;stroke-linecap:butt;stroke-linejoin:miter;stroke-opacity:1"/>
<path class="bond-14 atom-6 atom-24" d="M 141.343,147.364 L 125.316,113.408" style="fill:none;fill-rule:evenodd;stroke:#000000;stroke-width:2.0px;stroke-linecap:butt;stroke-linejoin:miter;stroke-opacity:1"/>
<path class="bond-16 atom-7 atom-18" d="M 206.355,149.507 L 225.222,122.293" style="fill:none;fill-rule:evenodd;stroke:#000000;stroke-width:2.0px;stroke-linecap:butt;stroke-linejoin:miter;stroke-opacity:1"/>
<path class="bond-17 atom-8 atom-9" d="M 117.477,209.361 L 132.43,241.043" style="fill:none;fill-rule:evenodd;stroke:#000000;stroke-width:2.0px;stroke-linecap:butt;stroke-linejoin:miter;stroke-opacity:1"/>
<path class="bond-17 atom-8 atom-9" d="M 129.754,209.377 L 140.221,231.554" style="fill:none;fill-rule:evenodd;stroke:#000000;stroke-width:2.0px;stroke-linecap:butt;stroke-linejoin:miter;stroke-opacity:1"/>
<path class="bond-18 atom-8 atom-19" d="M 92.8669,198.186 L 64.3299,195.823" style="fill:none;fill-rule:evenodd;stroke:#000000;stroke-width:2.0px;stroke-linecap:butt;stroke-linejoin:miter;stroke-opacity:1"/>
<path class="bond-20 atom-9 atom-20" d="M 130.199,259.354 L 110.9,287.19" style="fill:none;fill-rule:evenodd;stroke:#000000;stroke-width:2.0px;stroke-linecap:butt;stroke-linejoin:miter;stroke-opacity:1"/>
<path class="bond-22 atom-11 atom-21" d="M 350.028,219.479 L 356.908,220.049" style="fill:none;fill-rule:evenodd;stroke:#0000FF;stroke-width:2.0px;stroke-linecap:butt;stroke-linejoin:miter;stroke-opacity:1"/>
<path class="bond-22 atom-11 atom-21" d="M 356.908,220.049 L 363.788,220.618" style="fill:none;fill-rule:evenodd;stroke:#000000;stroke-width:2.0px;stroke-linecap:butt;stroke-linejoin:miter;stroke-opacity:1"/>
<path class="bond-23 atom-11 atom-25" d="M 329.78,208.921 L 322.305,193.084" style="fill:none;fill-rule:evenodd;stroke:#0000FF;stroke-width:2.0px;stroke-linecap:butt;stroke-linejoin:miter;stroke-opacity:1"/>
<path class="bond-23 atom-11 atom-25" d="M 322.305,193.084 L 314.83,177.247" style="fill:none;fill-rule:evenodd;stroke:#000000;stroke-width:2.0px;stroke-linecap:butt;stroke-linejoin:miter;stroke-opacity:1"/>
<path class="bond-24 atom-21 atom-22" d="M 390.203,213.41 L 393.255,176.551" style="fill:none;fill-rule:evenodd;stroke:#000000;stroke-width:2.0px;stroke-linecap:butt;stroke-linejoin:miter;stroke-opacity:1"/>
<path class="bond-25 atom-21 atom-23" d="M 388.658,232.073 L 385.591,269.11" style="fill:none;fill-rule:evenodd;stroke:#000000;stroke-width:2.0px;stroke-linecap:butt;stroke-linejoin:miter;stroke-opacity:1"/>
<path class="bond-26 atom-21 atom-26" d="M 405.552,224.077 L 437.589,226.729" style="fill:none;fill-rule:evenodd;stroke:#000000;stroke-width:2.0px;stroke-linecap:butt;stroke-linejoin:miter;stroke-opacity:1"/>
<path class="atom-0" d="M 280.597 263.822 Q 280.597 259.917, 282.417 257.875 Q 284.259 255.811, 287.743 255.811 Q 290.983 255.811, 292.714 258.097 L 291.249 259.295 Q 289.984 257.631, 287.743 257.631 Q 285.368 257.631, 284.104 259.229 Q 282.861 260.804, 282.861 263.822 Q 282.861 266.929, 284.148 268.527 Q 285.457 270.125, 287.987 270.125 Q 289.718 270.125, 291.737 269.082 L 292.359 270.746 Q 291.538 271.279, 290.295 271.589 Q 289.052 271.9, 287.676 271.9 Q 284.259 271.9, 282.417 269.814 Q 280.597 267.728, 280.597 263.822 " fill="#000000"/>
<path class="atom-0" d="M 294.378 269.104 L 296.597 269.104 L 296.597 271.323 L 294.378 271.323 L 294.378 269.104 M 294.378 261.47 L 296.597 261.47 L 296.597 263.689 L 294.378 263.689 L 294.378 261.47 " fill="#000000"/>
<path class="atom-0" d="M 298.661 269.925 L 302.1 269.925 L 302.1 258.186 L 298.306 259.362 L 297.795 258.053 L 302.611 255.9 L 304.186 256.167 L 304.186 269.925 L 307.271 269.925 L 307.271 271.7 L 298.661 271.7 L 298.661 269.925 " fill="#000000"/>
<path class="atom-1" d="M 252.356 309.415 Q 252.356 305.509, 254.176 303.467 Q 256.018 301.404, 259.502 301.404 Q 262.741 301.404, 264.472 303.689 L 263.008 304.888 Q 261.743 303.223, 259.502 303.223 Q 257.127 303.223, 255.862 304.821 Q 254.62 306.397, 254.62 309.415 Q 254.62 312.521, 255.907 314.119 Q 257.216 315.717, 259.746 315.717 Q 261.477 315.717, 263.496 314.674 L 264.117 316.338 Q 263.296 316.871, 262.054 317.181 Q 260.811 317.492, 259.435 317.492 Q 256.018 317.492, 254.176 315.406 Q 252.356 313.32, 252.356 309.415 " fill="#000000"/>
<path class="atom-1" d="M 266.137 314.696 L 268.356 314.696 L 268.356 316.915 L 266.137 316.915 L 266.137 314.696 M 266.137 307.062 L 268.356 307.062 L 268.356 309.281 L 266.137 309.281 L 266.137 307.062 " fill="#000000"/>
<path class="atom-1" d="M 269.51 304.555 Q 270.087 303.068, 271.463 302.247 Q 272.838 301.404, 274.747 301.404 Q 277.121 301.404, 278.453 302.691 Q 279.784 303.978, 279.784 306.263 Q 279.784 308.594, 278.053 310.768 Q 276.345 312.943, 272.794 315.517 L 280.05 315.517 L 280.05 317.292 L 269.465 317.292 L 269.465 315.806 Q 272.395 313.72, 274.125 312.166 Q 275.879 310.613, 276.722 309.215 Q 277.565 307.817, 277.565 306.374 Q 277.565 304.865, 276.811 304.022 Q 276.056 303.179, 274.747 303.179 Q 273.482 303.179, 272.639 303.689 Q 271.795 304.2, 271.196 305.331 L 269.51 304.555 " fill="#000000"/>
<path class="atom-2" d="M 199.927 297.003 L 205.075 305.325 Q 205.585 306.146, 206.406 307.633 Q 207.228 309.12, 207.272 309.208 L 207.272 297.003 L 209.358 297.003 L 209.358 312.715 L 207.205 312.715 L 201.68 303.616 Q 201.036 302.551, 200.348 301.331 Q 199.683 300.11, 199.483 299.733 L 199.483 312.715 L 197.441 312.715 L 197.441 297.003 L 199.927 297.003 " fill="#0000FF"/>
<path class="atom-2" d="M 211.022 310.118 L 213.241 310.118 L 213.241 312.337 L 211.022 312.337 L 211.022 310.118 M 211.022 302.484 L 213.241 302.484 L 213.241 304.704 L 211.022 304.704 L 211.022 302.484 " fill="#0000FF"/>
<path class="atom-2" d="M 221.718 304.437 Q 223.249 304.881, 223.982 305.88 Q 224.736 306.856, 224.736 308.409 Q 224.736 309.741, 224.071 310.784 Q 223.405 311.805, 222.184 312.382 Q 220.964 312.936, 219.366 312.936 Q 217.68 312.936, 216.415 312.359 Q 215.172 311.76, 214.173 310.562 L 215.438 309.275 Q 216.415 310.34, 217.236 310.762 Q 218.057 311.161, 219.366 311.161 Q 220.786 311.161, 221.652 310.407 Q 222.517 309.63, 222.517 308.387 Q 222.517 306.79, 221.607 306.079 Q 220.72 305.347, 218.789 305.347 L 217.657 305.347 L 217.657 303.749 L 218.656 303.749 Q 220.365 303.727, 221.274 302.995 Q 222.184 302.24, 222.184 300.842 Q 222.184 299.822, 221.43 299.222 Q 220.675 298.601, 219.388 298.601 Q 218.079 298.601, 217.258 299.067 Q 216.459 299.533, 215.838 300.709 L 214.306 299.888 Q 214.861 298.579, 216.193 297.713 Q 217.524 296.826, 219.388 296.826 Q 221.696 296.826, 223.05 297.913 Q 224.403 299, 224.403 300.842 Q 224.403 302.107, 223.715 303.017 Q 223.028 303.927, 221.718 304.437 " fill="#0000FF"/>
<path class="atom-3" d="M 172.907 254.667 Q 172.907 250.761, 174.727 248.719 Q 176.569 246.656, 180.053 246.656 Q 183.293 246.656, 185.024 248.941 L 183.559 250.14 Q 182.294 248.475, 180.053 248.475 Q 177.678 248.475, 176.414 250.073 Q 175.171 251.649, 175.171 254.667 Q 175.171 257.773, 176.458 259.371 Q 177.767 260.969, 180.297 260.969 Q 182.028 260.969, 184.047 259.926 L 184.669 261.59 Q 183.848 262.123, 182.605 262.434 Q 181.362 262.744, 179.986 262.744 Q 176.569 262.744, 174.727 260.658 Q 172.907 258.572, 172.907 254.667 " fill="#000000"/>
<path class="atom-3" d="M 186.688 259.948 L 188.907 259.948 L 188.907 262.167 L 186.688 262.167 L 186.688 259.948 M 186.688 252.314 L 188.907 252.314 L 188.907 254.534 L 186.688 254.534 L 186.688 252.314 " fill="#000000"/>
<path class="atom-3" d="M 199.781 257.152 L 201.667 257.152 L 201.667 258.927 L 199.781 258.927 L 199.781 262.544 L 197.695 262.544 L 197.695 258.927 L 189.573 258.927 L 189.573 257.529 L 196.452 246.833 L 199.781 246.833 L 199.781 257.152 M 192.147 257.152 L 197.695 257.152 L 197.695 248.253 L 192.147 257.152 " fill="#000000"/>
<path class="atom-4" d="M 165.47 350.429 Q 165.47 346.523, 167.29 344.482 Q 169.132 342.418, 172.616 342.418 Q 175.856 342.418, 177.586 344.704 L 176.122 345.902 Q 174.857 344.238, 172.616 344.238 Q 170.241 344.238, 168.976 345.835 Q 167.734 347.411, 167.734 350.429 Q 167.734 353.536, 169.021 355.133 Q 170.33 356.731, 172.86 356.731 Q 174.591 356.731, 176.61 355.688 L 177.231 357.352 Q 176.41 357.885, 175.168 358.196 Q 173.925 358.506, 172.549 358.506 Q 169.132 358.506, 167.29 356.42 Q 165.47 354.334, 165.47 350.429 " fill="#000000"/>
<path class="atom-4" d="M 179.251 355.71 L 181.47 355.71 L 181.47 357.929 L 179.251 357.929 L 179.251 355.71 M 179.251 348.077 L 181.47 348.077 L 181.47 350.296 L 179.251 350.296 L 179.251 348.077 " fill="#000000"/>
<path class="atom-4" d="M 188.194 348.476 Q 189.57 348.476, 190.701 349.075 Q 191.833 349.652, 192.477 350.762 Q 193.12 351.849, 193.12 353.336 Q 193.12 354.956, 192.321 356.132 Q 191.545 357.286, 190.257 357.885 Q 188.97 358.484, 187.506 358.484 Q 186.063 358.484, 184.732 357.952 Q 183.4 357.419, 182.491 356.398 L 183.822 355.022 Q 184.554 355.821, 185.553 356.265 Q 186.552 356.687, 187.572 356.687 Q 188.97 356.687, 189.925 355.821 Q 190.901 354.956, 190.901 353.38 Q 190.901 351.716, 189.925 350.939 Q 188.97 350.14, 187.439 350.14 Q 186.063 350.14, 184.532 350.74 L 183.312 350.163 L 184.066 342.595 L 192.144 342.595 L 191.922 344.371 L 185.886 344.371 L 185.42 349.031 Q 186.818 348.476, 188.194 348.476 " fill="#000000"/>
<path class="atom-5" d="M 217.507 209.075 Q 217.507 205.169, 219.327 203.127 Q 221.169 201.064, 224.653 201.064 Q 227.892 201.064, 229.623 203.349 L 228.159 204.548 Q 226.894 202.883, 224.653 202.883 Q 222.278 202.883, 221.013 204.481 Q 219.771 206.057, 219.771 209.075 Q 219.771 212.181, 221.058 213.779 Q 222.367 215.377, 224.897 215.377 Q 226.628 215.377, 228.647 214.334 L 229.268 215.998 Q 228.447 216.531, 227.205 216.841 Q 225.962 217.152, 224.586 217.152 Q 221.169 217.152, 219.327 215.066 Q 217.507 212.98, 217.507 209.075 " fill="#000000"/>
<path class="atom-5" d="M 231.288 214.356 L 233.507 214.356 L 233.507 216.575 L 231.288 216.575 L 231.288 214.356 M 231.288 206.722 L 233.507 206.722 L 233.507 208.941 L 231.288 208.941 L 231.288 206.722 " fill="#000000"/>
<path class="atom-5" d="M 241.163 207.144 Q 242.539 207.144, 243.626 207.743 Q 244.713 208.342, 245.312 209.43 Q 245.912 210.517, 245.912 211.893 Q 245.912 213.424, 245.224 214.622 Q 244.558 215.798, 243.36 216.464 Q 242.161 217.13, 240.63 217.13 Q 237.834 217.13, 236.414 215.244 Q 235.016 213.335, 235.016 209.563 Q 235.016 205.391, 236.747 203.238 Q 238.5 201.064, 241.851 201.064 Q 242.827 201.064, 243.648 201.285 Q 244.491 201.507, 245.29 201.973 L 244.425 203.46 Q 243.271 202.839, 241.873 202.839 Q 239.654 202.839, 238.522 204.281 Q 237.39 205.701, 237.257 208.653 Q 238.056 207.921, 239.055 207.543 Q 240.075 207.144, 241.163 207.144 M 240.652 215.31 Q 241.496 215.31, 242.184 214.866 Q 242.894 214.423, 243.293 213.646 Q 243.692 212.869, 243.692 211.915 Q 243.692 210.517, 242.916 209.718 Q 242.139 208.919, 240.763 208.919 Q 239.809 208.919, 238.855 209.319 Q 237.923 209.696, 237.257 210.362 Q 237.346 212.958, 238.167 214.134 Q 238.988 215.31, 240.652 215.31 " fill="#000000"/>
<path class="atom-6" d="M 126.33 154.327 Q 126.33 150.421, 128.15 148.379 Q 129.992 146.316, 133.476 146.316 Q 136.716 146.316, 138.447 148.601 L 136.982 149.8 Q 135.717 148.135, 133.476 148.135 Q 131.102 148.135, 129.837 149.733 Q 128.594 151.309, 128.594 154.327 Q 128.594 157.433, 129.881 159.031 Q 131.19 160.629, 133.72 160.629 Q 135.451 160.629, 137.47 159.586 L 138.092 161.25 Q 137.271 161.783, 136.028 162.093 Q 134.785 162.404, 133.409 162.404 Q 129.992 162.404, 128.15 160.318 Q 126.33 158.232, 126.33 154.327 " fill="#000000"/>
<path class="atom-6" d="M 140.111 159.608 L 142.33 159.608 L 142.33 161.827 L 140.111 161.827 L 140.111 159.608 M 140.111 151.974 L 142.33 151.974 L 142.33 154.193 L 140.111 154.193 L 140.111 151.974 " fill="#000000"/>
<path class="atom-6" d="M 150.962 148.268 L 142.73 148.268 L 142.73 146.493 L 153.159 146.493 L 153.159 148.069 L 146.813 162.204 L 144.682 162.204 L 150.962 148.268 " fill="#000000"/>
<path class="atom-7" d="M 181.016 158.904 Q 181.016 154.999, 182.836 152.957 Q 184.677 150.894, 188.161 150.894 Q 191.401 150.894, 193.132 153.179 L 191.668 154.378 Q 190.403 152.713, 188.161 152.713 Q 185.787 152.713, 184.522 154.311 Q 183.279 155.887, 183.279 158.904 Q 183.279 162.011, 184.566 163.609 Q 185.876 165.207, 188.406 165.207 Q 190.136 165.207, 192.156 164.164 L 192.777 165.828 Q 191.956 166.361, 190.713 166.671 Q 189.471 166.982, 188.095 166.982 Q 184.677 166.982, 182.836 164.896 Q 181.016 162.81, 181.016 158.904 " fill="#000000"/>
<path class="atom-7" d="M 194.797 164.186 L 197.016 164.186 L 197.016 166.405 L 194.797 166.405 L 194.797 164.186 M 194.797 156.552 L 197.016 156.552 L 197.016 158.771 L 194.797 158.771 L 194.797 156.552 " fill="#000000"/>
<path class="atom-7" d="M 206.402 158.461 Q 207.845 159.082, 208.666 160.014 Q 209.487 160.924, 209.487 162.477 Q 209.487 163.809, 208.799 164.852 Q 208.111 165.872, 206.868 166.449 Q 205.648 167.004, 204.028 167.004 Q 201.409 167.004, 199.9 165.806 Q 198.391 164.585, 198.391 162.477 Q 198.391 161.19, 199.057 160.236 Q 199.723 159.26, 201.099 158.527 Q 200.078 157.95, 199.523 157.107 Q 198.968 156.242, 198.968 154.91 Q 198.968 153.068, 200.3 151.981 Q 201.654 150.894, 203.939 150.894 Q 206.225 150.894, 207.556 151.981 Q 208.91 153.068, 208.91 154.91 Q 208.91 156.064, 208.266 156.929 Q 207.645 157.773, 206.402 158.461 M 203.939 152.558 Q 202.63 152.558, 201.898 153.179 Q 201.188 153.801, 201.188 154.91 Q 201.188 155.731, 201.676 156.286 Q 202.164 156.819, 202.852 157.129 Q 203.562 157.44, 204.916 157.906 Q 205.87 157.24, 206.269 156.53 Q 206.691 155.82, 206.691 154.91 Q 206.691 153.801, 205.959 153.179 Q 205.248 152.558, 203.939 152.558 M 204.028 165.34 Q 205.493 165.34, 206.38 164.563 Q 207.268 163.764, 207.268 162.455 Q 207.268 161.612, 206.802 161.079 Q 206.336 160.547, 205.626 160.236 Q 204.938 159.925, 203.695 159.526 L 202.697 159.193 Q 201.587 159.859, 201.099 160.658 Q 200.611 161.434, 200.611 162.455 Q 200.611 163.764, 201.543 164.563 Q 202.475 165.34, 204.028 165.34 " fill="#000000"/>
<path class="atom-8" d="M 94.2539 199.919 Q 94.2539 196.013, 96.0735 193.972 Q 97.9154 191.908, 101.399 191.908 Q 104.639 191.908, 106.37 194.193 L 104.906 195.392 Q 103.641 193.727, 101.399 193.727 Q 99.0249 193.727, 97.76 195.325 Q 96.5173 196.901, 96.5173 199.919 Q 96.5173 203.025, 97.8044 204.623 Q 99.1137 206.221, 101.643 206.221 Q 103.374 206.221, 105.394 205.178 L 106.015 206.842 Q 105.194 207.375, 103.951 207.686 Q 102.709 207.996, 101.333 207.996 Q 97.9154 207.996, 96.0735 205.91 Q 94.2539 203.824, 94.2539 199.919 " fill="#000000"/>
<path class="atom-8" d="M 108.034 205.2 L 110.254 205.2 L 110.254 207.419 L 108.034 207.419 L 108.034 205.2 M 108.034 197.566 L 110.254 197.566 L 110.254 199.786 L 108.034 199.786 L 108.034 197.566 " fill="#000000"/>
<path class="atom-8" d="M 116.756 191.908 Q 119.552 191.908, 120.95 193.816 Q 122.37 195.702, 122.37 199.475 Q 122.37 203.647, 120.617 205.822 Q 118.886 207.974, 115.535 207.974 Q 114.559 207.974, 113.715 207.752 Q 112.894 207.53, 112.095 207.064 L 112.961 205.577 Q 114.115 206.199, 115.513 206.199 Q 117.732 206.199, 118.864 204.779 Q 119.995 203.336, 120.129 200.385 Q 119.33 201.117, 118.309 201.516 Q 117.31 201.894, 116.223 201.894 Q 114.847 201.894, 113.76 201.295 Q 112.672 200.695, 112.073 199.608 Q 111.474 198.521, 111.474 197.145 Q 111.474 195.614, 112.14 194.438 Q 112.828 193.239, 114.026 192.574 Q 115.224 191.908, 116.756 191.908 M 113.693 197.123 Q 113.693 198.521, 114.47 199.32 Q 115.247 200.118, 116.622 200.118 Q 117.577 200.118, 118.509 199.741 Q 119.463 199.342, 120.129 198.676 Q 120.04 196.08, 119.219 194.904 Q 118.398 193.727, 116.733 193.727 Q 115.89 193.727, 115.18 194.171 Q 114.492 194.615, 114.093 195.392 Q 113.693 196.168, 113.693 197.123 " fill="#000000"/>
<path class="atom-9" d="M 112.239 250.089 Q 112.239 246.183, 114.058 244.142 Q 115.9 242.078, 119.384 242.078 Q 122.624 242.078, 124.355 244.363 L 122.89 245.562 Q 121.625 243.897, 119.384 243.897 Q 117.01 243.897, 115.745 245.495 Q 114.502 247.071, 114.502 250.089 Q 114.502 253.196, 115.789 254.793 Q 117.099 256.391, 119.628 256.391 Q 121.359 256.391, 123.379 255.348 L 124 257.012 Q 123.179 257.545, 121.936 257.856 Q 120.693 258.166, 119.318 258.166 Q 115.9 258.166, 114.058 256.08 Q 112.239 253.994, 112.239 250.089 " fill="#000000"/>
<path class="atom-9" d="M 126.019 255.37 L 128.238 255.37 L 128.238 257.589 L 126.019 257.589 L 126.019 255.37 M 126.019 247.737 L 128.238 247.737 L 128.238 249.956 L 126.019 249.956 L 126.019 247.737 " fill="#000000"/>
<path class="atom-9" d="M 130.302 256.191 L 133.742 256.191 L 133.742 244.452 L 129.947 245.628 L 129.437 244.319 L 134.252 242.167 L 135.828 242.433 L 135.828 256.191 L 138.912 256.191 L 138.912 257.967 L 130.302 257.967 L 130.302 256.191 " fill="#000000"/>
<path class="atom-9" d="M 146.013 258.144 Q 143.129 258.144, 141.686 256.014 Q 140.266 253.883, 140.266 250.089 Q 140.266 246.294, 141.686 244.186 Q 143.106 242.078, 146.013 242.078 Q 148.92 242.078, 150.341 244.186 Q 151.761 246.294, 151.761 250.089 Q 151.761 253.883, 150.318 256.014 Q 148.898 258.144, 146.013 258.144 M 146.013 256.369 Q 147.722 256.369, 148.632 254.793 Q 149.542 253.196, 149.542 250.089 Q 149.542 247.004, 148.632 245.429 Q 147.722 243.853, 146.013 243.853 Q 144.327 243.853, 143.395 245.429 Q 142.485 247.004, 142.485 250.089 Q 142.485 253.196, 143.395 254.793 Q 144.327 256.369, 146.013 256.369 " fill="#000000"/>
<path class="atom-10" d="M 287.392 359.562 Q 287.392 355.79, 289.256 353.682 Q 291.12 351.574, 294.604 351.574 Q 298.088 351.574, 299.952 353.682 Q 301.816 355.79, 301.816 359.562 Q 301.816 363.379, 299.93 365.554 Q 298.044 367.707, 294.604 367.707 Q 291.142 367.707, 289.256 365.554 Q 287.392 363.401, 287.392 359.562 M 294.604 365.931 Q 297.001 365.931, 298.288 364.334 Q 299.597 362.714, 299.597 359.562 Q 299.597 356.478, 298.288 354.925 Q 297.001 353.349, 294.604 353.349 Q 292.207 353.349, 290.898 354.902 Q 289.611 356.456, 289.611 359.562 Q 289.611 362.736, 290.898 364.334 Q 292.207 365.931, 294.604 365.931 " fill="#FF0000"/>
<path class="atom-10" d="M 303.48 364.866 L 305.7 364.866 L 305.7 367.085 L 303.48 367.085 L 303.48 364.866 M 303.48 357.232 L 305.7 357.232 L 305.7 359.451 L 303.48 359.451 L 303.48 357.232 " fill="#FF0000"/>
<path class="atom-10" d="M 307.763 365.687 L 311.203 365.687 L 311.203 353.948 L 307.408 355.124 L 306.898 353.815 L 311.713 351.662 L 313.289 351.929 L 313.289 365.687 L 316.373 365.687 L 316.373 367.462 L 307.763 367.462 L 307.763 365.687 " fill="#FF0000"/>
<path class="atom-10" d="M 318.437 365.687 L 321.877 365.687 L 321.877 353.948 L 318.082 355.124 L 317.572 353.815 L 322.387 351.662 L 323.963 351.929 L 323.963 365.687 L 327.047 365.687 L 327.047 367.462 L 318.437 367.462 L 318.437 365.687 " fill="#FF0000"/>
<path class="atom-11" d="M 312.958 210.397 L 318.106 218.719 Q 318.617 219.54, 319.438 221.026 Q 320.259 222.513, 320.303 222.602 L 320.303 210.397 L 322.389 210.397 L 322.389 226.108 L 320.236 226.108 L 314.711 217.01 Q 314.067 215.945, 313.379 214.724 Q 312.714 213.504, 312.514 213.126 L 312.514 226.108 L 310.472 226.108 L 310.472 210.397 L 312.958 210.397 " fill="#0000FF"/>
<path class="atom-11" d="M 324.053 223.512 L 326.272 223.512 L 326.272 225.731 L 324.053 225.731 L 324.053 223.512 M 324.053 215.878 L 326.272 215.878 L 326.272 218.097 L 324.053 218.097 L 324.053 215.878 " fill="#0000FF"/>
<path class="atom-11" d="M 328.336 224.333 L 331.776 224.333 L 331.776 212.594 L 327.981 213.77 L 327.471 212.461 L 332.286 210.308 L 333.862 210.574 L 333.862 224.333 L 336.946 224.333 L 336.946 226.108 L 328.336 226.108 L 328.336 224.333 " fill="#0000FF"/>
<path class="atom-11" d="M 338.1 213.37 Q 338.677 211.884, 340.053 211.063 Q 341.429 210.219, 343.337 210.219 Q 345.712 210.219, 347.043 211.506 Q 348.375 212.794, 348.375 215.079 Q 348.375 217.409, 346.644 219.584 Q 344.935 221.759, 341.384 224.333 L 348.641 224.333 L 348.641 226.108 L 338.056 226.108 L 338.056 224.621 Q 340.985 222.535, 342.716 220.982 Q 344.469 219.429, 345.312 218.031 Q 346.156 216.633, 346.156 215.19 Q 346.156 213.681, 345.401 212.838 Q 344.647 211.995, 343.337 211.995 Q 342.072 211.995, 341.229 212.505 Q 340.386 213.015, 339.787 214.147 L 338.1 213.37 " fill="#0000FF"/>
<path class="atom-12" d="M 242.307 231.759 L 244.437 231.759 L 244.437 238.438 L 252.47 238.438 L 252.47 231.759 L 254.6 231.759 L 254.6 247.47 L 252.47 247.47 L 252.47 240.214 L 244.437 240.214 L 244.437 247.47 L 242.307 247.47 L 242.307 231.759 " fill="#000000"/>
<path class="atom-12" d="M 256.265 244.874 L 258.484 244.874 L 258.484 247.093 L 256.265 247.093 L 256.265 244.874 M 256.265 237.24 L 258.484 237.24 L 258.484 239.459 L 256.265 239.459 L 256.265 237.24 " fill="#000000"/>
<path class="atom-12" d="M 260.548 245.695 L 263.987 245.695 L 263.987 233.956 L 260.193 235.132 L 259.682 233.823 L 264.498 231.67 L 266.073 231.936 L 266.073 245.695 L 269.158 245.695 L 269.158 247.47 L 260.548 247.47 L 260.548 245.695 " fill="#000000"/>
<path class="atom-12" d="M 277.635 239.193 Q 279.166 239.637, 279.898 240.635 Q 280.653 241.612, 280.653 243.165 Q 280.653 244.497, 279.987 245.54 Q 279.321 246.56, 278.101 247.137 Q 276.88 247.692, 275.282 247.692 Q 273.596 247.692, 272.331 247.115 Q 271.088 246.516, 270.09 245.318 L 271.355 244.031 Q 272.331 245.096, 273.152 245.517 Q 273.973 245.917, 275.282 245.917 Q 276.703 245.917, 277.568 245.162 Q 278.434 244.386, 278.434 243.143 Q 278.434 241.545, 277.524 240.835 Q 276.636 240.103, 274.705 240.103 L 273.574 240.103 L 273.574 238.505 L 274.572 238.505 Q 276.281 238.483, 277.191 237.75 Q 278.101 236.996, 278.101 235.598 Q 278.101 234.577, 277.346 233.978 Q 276.592 233.357, 275.305 233.357 Q 273.995 233.357, 273.174 233.823 Q 272.375 234.289, 271.754 235.465 L 270.223 234.644 Q 270.778 233.334, 272.109 232.469 Q 273.441 231.581, 275.305 231.581 Q 277.612 231.581, 278.966 232.669 Q 280.32 233.756, 280.32 235.598 Q 280.32 236.863, 279.632 237.773 Q 278.944 238.683, 277.635 239.193 " fill="#000000"/>
<path class="atom-13" d="M 341.978 287.553 L 344.109 287.553 L 344.109 294.233 L 352.142 294.233 L 352.142 287.553 L 354.272 287.553 L 354.272 303.265 L 352.142 303.265 L 352.142 296.008 L 344.109 296.008 L 344.109 303.265 L 341.978 303.265 L 341.978 287.553 " fill="#000000"/>
<path class="atom-13" d="M 355.937 300.668 L 358.156 300.668 L 358.156 302.887 L 355.937 302.887 L 355.937 300.668 M 355.937 293.035 L 358.156 293.035 L 358.156 295.254 L 355.937 295.254 L 355.937 293.035 " fill="#000000"/>
<path class="atom-13" d="M 360.219 301.489 L 363.659 301.489 L 363.659 289.75 L 359.864 290.926 L 359.354 289.617 L 364.169 287.465 L 365.745 287.731 L 365.745 301.489 L 368.83 301.489 L 368.83 303.265 L 360.219 303.265 L 360.219 301.489 " fill="#000000"/>
<path class="atom-13" d="M 379.703 297.872 L 381.589 297.872 L 381.589 299.647 L 379.703 299.647 L 379.703 303.265 L 377.617 303.265 L 377.617 299.647 L 369.495 299.647 L 369.495 298.249 L 376.374 287.553 L 379.703 287.553 L 379.703 297.872 M 372.069 297.872 L 377.617 297.872 L 377.617 288.974 L 372.069 297.872 " fill="#000000"/>
<path class="atom-14" d="M 105.249 310.942 L 107.379 310.942 L 107.379 317.622 L 115.412 317.622 L 115.412 310.942 L 117.542 310.942 L 117.542 326.654 L 115.412 326.654 L 115.412 319.397 L 107.379 319.397 L 107.379 326.654 L 105.249 326.654 L 105.249 310.942 " fill="#000000"/>
<path class="atom-14" d="M 119.207 324.057 L 121.426 324.057 L 121.426 326.276 L 119.207 326.276 L 119.207 324.057 M 119.207 316.423 L 121.426 316.423 L 121.426 318.643 L 119.207 318.643 L 119.207 316.423 " fill="#000000"/>
<path class="atom-14" d="M 123.49 324.878 L 126.929 324.878 L 126.929 313.139 L 123.135 314.315 L 122.624 313.006 L 127.44 310.854 L 129.015 311.12 L 129.015 324.878 L 132.1 324.878 L 132.1 326.654 L 123.49 326.654 L 123.49 324.878 " fill="#000000"/>
<path class="atom-14" d="M 138.824 316.823 Q 140.199 316.823, 141.331 317.422 Q 142.463 317.999, 143.106 319.109 Q 143.75 320.196, 143.75 321.683 Q 143.75 323.303, 142.951 324.479 Q 142.174 325.633, 140.887 326.232 Q 139.6 326.831, 138.136 326.831 Q 136.693 326.831, 135.362 326.298 Q 134.03 325.766, 133.12 324.745 L 134.452 323.369 Q 135.184 324.168, 136.183 324.612 Q 137.181 325.034, 138.202 325.034 Q 139.6 325.034, 140.554 324.168 Q 141.531 323.303, 141.531 321.727 Q 141.531 320.063, 140.554 319.286 Q 139.6 318.487, 138.069 318.487 Q 136.693 318.487, 135.162 319.086 L 133.942 318.509 L 134.696 310.942 L 142.774 310.942 L 142.552 312.718 L 136.516 312.718 L 136.05 317.378 Q 137.448 316.823, 138.824 316.823 " fill="#000000"/>
<path class="atom-15" d="M 223.473 374.204 L 225.603 374.204 L 225.603 380.884 L 233.636 380.884 L 233.636 374.204 L 235.766 374.204 L 235.766 389.915 L 233.636 389.915 L 233.636 382.659 L 225.603 382.659 L 225.603 389.915 L 223.473 389.915 L 223.473 374.204 " fill="#000000"/>
<path class="atom-15" d="M 237.431 387.319 L 239.65 387.319 L 239.65 389.538 L 237.431 389.538 L 237.431 387.319 M 237.431 379.685 L 239.65 379.685 L 239.65 381.904 L 237.431 381.904 L 237.431 379.685 " fill="#000000"/>
<path class="atom-15" d="M 241.714 388.14 L 245.153 388.14 L 245.153 376.401 L 241.359 377.577 L 240.848 376.268 L 245.664 374.115 L 247.239 374.382 L 247.239 388.14 L 250.324 388.14 L 250.324 389.915 L 241.714 389.915 L 241.714 388.14 " fill="#000000"/>
<path class="atom-15" d="M 257.98 380.107 Q 259.355 380.107, 260.443 380.706 Q 261.53 381.305, 262.129 382.393 Q 262.728 383.48, 262.728 384.856 Q 262.728 386.387, 262.041 387.585 Q 261.375 388.761, 260.177 389.427 Q 258.978 390.093, 257.447 390.093 Q 254.651 390.093, 253.231 388.207 Q 251.833 386.298, 251.833 382.526 Q 251.833 378.354, 253.564 376.201 Q 255.317 374.027, 258.668 374.027 Q 259.644 374.027, 260.465 374.249 Q 261.308 374.47, 262.107 374.936 L 261.242 376.423 Q 260.088 375.802, 258.69 375.802 Q 256.471 375.802, 255.339 377.244 Q 254.207 378.665, 254.074 381.616 Q 254.873 380.884, 255.871 380.506 Q 256.892 380.107, 257.98 380.107 M 257.469 388.273 Q 258.312 388.273, 259 387.829 Q 259.711 387.386, 260.11 386.609 Q 260.509 385.832, 260.509 384.878 Q 260.509 383.48, 259.733 382.681 Q 258.956 381.882, 257.58 381.882 Q 256.626 381.882, 255.672 382.282 Q 254.74 382.659, 254.074 383.325 Q 254.163 385.921, 254.984 387.097 Q 255.805 388.273, 257.469 388.273 " fill="#000000"/>
<path class="atom-16" d="M 119.953 388.143 L 122.084 388.143 L 122.084 394.823 L 130.117 394.823 L 130.117 388.143 L 132.247 388.143 L 132.247 403.854 L 130.117 403.854 L 130.117 396.598 L 122.084 396.598 L 122.084 403.854 L 119.953 403.854 L 119.953 388.143 " fill="#000000"/>
<path class="atom-16" d="M 133.911 401.258 L 136.13 401.258 L 136.13 403.477 L 133.911 403.477 L 133.911 401.258 M 133.911 393.624 L 136.13 393.624 L 136.13 395.843 L 133.911 395.843 L 133.911 393.624 " fill="#000000"/>
<path class="atom-16" d="M 138.194 402.079 L 141.634 402.079 L 141.634 390.34 L 137.839 391.516 L 137.329 390.207 L 142.144 388.054 L 143.72 388.321 L 143.72 402.079 L 146.804 402.079 L 146.804 403.854 L 138.194 403.854 L 138.194 402.079 " fill="#000000"/>
<path class="atom-16" d="M 155.437 389.918 L 147.204 389.918 L 147.204 388.143 L 157.634 388.143 L 157.634 389.719 L 151.287 403.854 L 149.157 403.854 L 155.437 389.918 " fill="#000000"/>
<path class="atom-17" d="M 253.789 199.801 L 255.919 199.801 L 255.919 206.48 L 263.952 206.48 L 263.952 199.801 L 266.082 199.801 L 266.082 215.512 L 263.952 215.512 L 263.952 208.255 L 255.919 208.255 L 255.919 215.512 L 253.789 215.512 L 253.789 199.801 " fill="#000000"/>
<path class="atom-17" d="M 267.747 212.915 L 269.966 212.915 L 269.966 215.135 L 267.747 215.135 L 267.747 212.915 M 267.747 205.282 L 269.966 205.282 L 269.966 207.501 L 267.747 207.501 L 267.747 205.282 " fill="#000000"/>
<path class="atom-17" d="M 272.03 213.736 L 275.469 213.736 L 275.469 201.997 L 271.675 203.174 L 271.164 201.864 L 275.98 199.712 L 277.555 199.978 L 277.555 213.736 L 280.64 213.736 L 280.64 215.512 L 272.03 215.512 L 272.03 213.736 " fill="#000000"/>
<path class="atom-17" d="M 290.027 207.19 Q 291.469 207.811, 292.29 208.743 Q 293.111 209.653, 293.111 211.207 Q 293.111 212.538, 292.423 213.581 Q 291.735 214.602, 290.493 215.179 Q 289.272 215.734, 287.652 215.734 Q 285.034 215.734, 283.525 214.535 Q 282.016 213.315, 282.016 211.207 Q 282.016 209.92, 282.681 208.965 Q 283.347 207.989, 284.723 207.257 Q 283.702 206.68, 283.147 205.836 Q 282.593 204.971, 282.593 203.64 Q 282.593 201.798, 283.924 200.71 Q 285.278 199.623, 287.563 199.623 Q 289.849 199.623, 291.18 200.71 Q 292.534 201.798, 292.534 203.64 Q 292.534 204.793, 291.891 205.659 Q 291.269 206.502, 290.027 207.19 M 287.563 201.287 Q 286.254 201.287, 285.522 201.909 Q 284.812 202.53, 284.812 203.64 Q 284.812 204.461, 285.3 205.015 Q 285.788 205.548, 286.476 205.859 Q 287.186 206.169, 288.54 206.635 Q 289.494 205.97, 289.893 205.26 Q 290.315 204.549, 290.315 203.64 Q 290.315 202.53, 289.583 201.909 Q 288.873 201.287, 287.563 201.287 M 287.652 214.069 Q 289.117 214.069, 290.004 213.293 Q 290.892 212.494, 290.892 211.185 Q 290.892 210.341, 290.426 209.809 Q 289.96 209.276, 289.25 208.965 Q 288.562 208.655, 287.319 208.255 L 286.321 207.922 Q 285.211 208.588, 284.723 209.387 Q 284.235 210.164, 284.235 211.185 Q 284.235 212.494, 285.167 213.293 Q 286.099 214.069, 287.652 214.069 " fill="#000000"/>
<path class="atom-18" d="M 225.347 105.479 L 227.478 105.479 L 227.478 112.158 L 235.511 112.158 L 235.511 105.479 L 237.641 105.479 L 237.641 121.19 L 235.511 121.19 L 235.511 113.934 L 227.478 113.934 L 227.478 121.19 L 225.347 121.19 L 225.347 105.479 " fill="#000000"/>
<path class="atom-18" d="M 239.306 118.594 L 241.525 118.594 L 241.525 120.813 L 239.306 120.813 L 239.306 118.594 M 239.306 110.96 L 241.525 110.96 L 241.525 113.179 L 239.306 113.179 L 239.306 110.96 " fill="#000000"/>
<path class="atom-18" d="M 243.588 119.415 L 247.028 119.415 L 247.028 107.676 L 243.233 108.852 L 242.723 107.543 L 247.538 105.39 L 249.114 105.656 L 249.114 119.415 L 252.199 119.415 L 252.199 121.19 L 243.588 121.19 L 243.588 119.415 " fill="#000000"/>
<path class="atom-18" d="M 258.701 105.301 Q 261.497 105.301, 262.895 107.21 Q 264.315 109.096, 264.315 112.869 Q 264.315 117.04, 262.562 119.215 Q 260.831 121.368, 257.48 121.368 Q 256.504 121.368, 255.66 121.146 Q 254.839 120.924, 254.04 120.458 L 254.906 118.971 Q 256.06 119.592, 257.458 119.592 Q 259.677 119.592, 260.809 118.172 Q 261.94 116.73, 262.074 113.778 Q 261.275 114.511, 260.254 114.91 Q 259.255 115.287, 258.168 115.287 Q 256.792 115.287, 255.705 114.688 Q 254.617 114.089, 254.018 113.002 Q 253.419 111.914, 253.419 110.538 Q 253.419 109.007, 254.085 107.831 Q 254.773 106.633, 255.971 105.967 Q 257.169 105.301, 258.701 105.301 M 255.638 110.516 Q 255.638 111.914, 256.415 112.713 Q 257.192 113.512, 258.567 113.512 Q 259.522 113.512, 260.454 113.135 Q 261.408 112.735, 262.074 112.07 Q 261.985 109.473, 261.164 108.297 Q 260.343 107.121, 258.678 107.121 Q 257.835 107.121, 257.125 107.565 Q 256.437 108.009, 256.038 108.785 Q 255.638 109.562, 255.638 110.516 " fill="#000000"/>
<path class="atom-19" d="M 22.7273 187.507 L 24.8576 187.507 L 24.8576 194.187 L 32.8908 194.187 L 32.8908 187.507 L 35.0211 187.507 L 35.0211 203.219 L 32.8908 203.219 L 32.8908 195.962 L 24.8576 195.962 L 24.8576 203.219 L 22.7273 203.219 L 22.7273 187.507 " fill="#000000"/>
<path class="atom-19" d="M 36.6854 200.622 L 38.9045 200.622 L 38.9045 202.841 L 36.6854 202.841 L 36.6854 200.622 M 36.6854 192.989 L 38.9045 192.989 L 38.9045 195.208 L 36.6854 195.208 L 36.6854 192.989 " fill="#000000"/>
<path class="atom-19" d="M 40.0584 190.481 Q 40.6354 188.994, 42.0113 188.173 Q 43.3871 187.33, 45.2955 187.33 Q 47.67 187.33, 49.0014 188.617 Q 50.3329 189.904, 50.3329 192.19 Q 50.3329 194.52, 48.602 196.694 Q 46.8933 198.869, 43.3427 201.443 L 50.5992 201.443 L 50.5992 203.219 L 40.0141 203.219 L 40.0141 201.732 Q 42.9433 199.646, 44.6742 198.093 Q 46.4273 196.539, 47.2705 195.141 Q 48.1138 193.743, 48.1138 192.301 Q 48.1138 190.792, 47.3593 189.948 Q 46.6048 189.105, 45.2955 189.105 Q 44.0306 189.105, 43.1874 189.616 Q 42.3441 190.126, 41.745 191.258 L 40.0584 190.481 " fill="#000000"/>
<path class="atom-19" d="M 57.7003 203.396 Q 54.8155 203.396, 53.3731 201.266 Q 51.9528 199.135, 51.9528 195.341 Q 51.9528 191.546, 53.3731 189.438 Q 54.7933 187.33, 57.7003 187.33 Q 60.6073 187.33, 62.0275 189.438 Q 63.4478 191.546, 63.4478 195.341 Q 63.4478 199.135, 62.0054 201.266 Q 60.5851 203.396, 57.7003 203.396 M 57.7003 201.621 Q 59.409 201.621, 60.3188 200.045 Q 61.2287 198.448, 61.2287 195.341 Q 61.2287 192.256, 60.3188 190.681 Q 59.409 189.105, 57.7003 189.105 Q 56.0138 189.105, 55.0818 190.681 Q 54.1719 192.256, 54.1719 195.341 Q 54.1719 198.448, 55.0818 200.045 Q 56.0138 201.621, 57.7003 201.621 " fill="#000000"/>
<path class="atom-20" d="M 71.2515 287.847 L 73.3818 287.847 L 73.3818 294.527 L 81.415 294.527 L 81.415 287.847 L 83.5453 287.847 L 83.5453 303.559 L 81.415 303.559 L 81.415 296.302 L 73.3818 296.302 L 73.3818 303.559 L 71.2515 303.559 L 71.2515 287.847 " fill="#000000"/>
<path class="atom-20" d="M 85.2096 300.962 L 87.4287 300.962 L 87.4287 303.181 L 85.2096 303.181 L 85.2096 300.962 M 85.2096 293.329 L 87.4287 293.329 L 87.4287 295.548 L 85.2096 295.548 L 85.2096 293.329 " fill="#000000"/>
<path class="atom-20" d="M 88.5826 290.821 Q 89.1596 289.334, 90.5355 288.513 Q 91.9113 287.67, 93.8197 287.67 Q 96.1942 287.67, 97.5256 288.957 Q 98.8571 290.244, 98.8571 292.53 Q 98.8571 294.86, 97.1262 297.035 Q 95.4175 299.209, 91.8669 301.783 L 99.1234 301.783 L 99.1234 303.559 L 88.5383 303.559 L 88.5383 302.072 Q 91.4675 299.986, 93.1984 298.433 Q 94.9515 296.879, 95.7947 295.481 Q 96.638 294.083, 96.638 292.641 Q 96.638 291.132, 95.8835 290.288 Q 95.129 289.445, 93.8197 289.445 Q 92.5548 289.445, 91.7116 289.956 Q 90.8683 290.466, 90.2692 291.598 L 88.5826 290.821 " fill="#000000"/>
<path class="atom-20" d="M 101.187 301.783 L 104.627 301.783 L 104.627 290.044 L 100.832 291.221 L 100.322 289.911 L 105.137 287.759 L 106.713 288.025 L 106.713 301.783 L 109.797 301.783 L 109.797 303.559 L 101.187 303.559 L 101.187 301.783 " fill="#000000"/>
<path class="atom-21" d="M 364.776 222.808 Q 364.776 218.903, 366.596 216.861 Q 368.438 214.797, 371.921 214.797 Q 375.161 214.797, 376.892 217.083 L 375.428 218.281 Q 374.163 216.617, 371.921 216.617 Q 369.547 216.617, 368.282 218.215 Q 367.039 219.79, 367.039 222.808 Q 367.039 225.915, 368.327 227.513 Q 369.636 229.11, 372.166 229.11 Q 373.896 229.11, 375.916 228.067 L 376.537 229.732 Q 375.716 230.264, 374.473 230.575 Q 373.231 230.886, 371.855 230.886 Q 368.438 230.886, 366.596 228.8 Q 364.776 226.714, 364.776 222.808 " fill="#000000"/>
<path class="atom-21" d="M 378.557 228.09 L 380.776 228.09 L 380.776 230.309 L 378.557 230.309 L 378.557 228.09 M 378.557 220.456 L 380.776 220.456 L 380.776 222.675 L 378.557 222.675 L 378.557 220.456 " fill="#000000"/>
<path class="atom-21" d="M 381.93 217.948 Q 382.507 216.462, 383.882 215.641 Q 385.258 214.797, 387.167 214.797 Q 389.541 214.797, 390.873 216.084 Q 392.204 217.371, 392.204 219.657 Q 392.204 221.987, 390.473 224.162 Q 388.764 226.337, 385.214 228.911 L 392.47 228.911 L 392.47 230.686 L 381.885 230.686 L 381.885 229.199 Q 384.814 227.113, 386.545 225.56 Q 388.298 224.007, 389.142 222.608 Q 389.985 221.21, 389.985 219.768 Q 389.985 218.259, 389.23 217.416 Q 388.476 216.573, 387.167 216.573 Q 385.902 216.573, 385.059 217.083 Q 384.215 217.593, 383.616 218.725 L 381.93 217.948 " fill="#000000"/>
<path class="atom-21" d="M 393.624 217.948 Q 394.201 216.462, 395.577 215.641 Q 396.953 214.797, 398.861 214.797 Q 401.236 214.797, 402.567 216.084 Q 403.899 217.371, 403.899 219.657 Q 403.899 221.987, 402.168 224.162 Q 400.459 226.337, 396.909 228.911 L 404.165 228.911 L 404.165 230.686 L 393.58 230.686 L 393.58 229.199 Q 396.509 227.113, 398.24 225.56 Q 399.993 224.007, 400.836 222.608 Q 401.68 221.21, 401.68 219.768 Q 401.68 218.259, 400.925 217.416 Q 400.171 216.573, 398.861 216.573 Q 397.596 216.573, 396.753 217.083 Q 395.91 217.593, 395.311 218.725 L 393.624 217.948 " fill="#000000"/>
<path class="atom-22" d="M 387.861 159.686 L 389.992 159.686 L 389.992 166.366 L 398.025 166.366 L 398.025 159.686 L 400.155 159.686 L 400.155 175.398 L 398.025 175.398 L 398.025 168.141 L 389.992 168.141 L 389.992 175.398 L 387.861 175.398 L 387.861 159.686 " fill="#000000"/>
<path class="atom-22" d="M 401.819 172.801 L 404.038 172.801 L 404.038 175.02 L 401.819 175.02 L 401.819 172.801 M 401.819 165.168 L 404.038 165.168 L 404.038 167.387 L 401.819 167.387 L 401.819 165.168 " fill="#000000"/>
<path class="atom-22" d="M 405.192 162.66 Q 405.769 161.173, 407.145 160.352 Q 408.521 159.509, 410.429 159.509 Q 412.804 159.509, 414.135 160.796 Q 415.467 162.083, 415.467 164.369 Q 415.467 166.699, 413.736 168.874 Q 412.027 171.048, 408.477 173.622 L 415.733 173.622 L 415.733 175.398 L 405.148 175.398 L 405.148 173.911 Q 408.077 171.825, 409.808 170.272 Q 411.561 168.718, 412.404 167.32 Q 413.248 165.922, 413.248 164.48 Q 413.248 162.971, 412.493 162.127 Q 411.739 161.284, 410.429 161.284 Q 409.165 161.284, 408.321 161.795 Q 407.478 162.305, 406.879 163.437 L 405.192 162.66 " fill="#000000"/>
<path class="atom-22" d="M 424.21 167.12 Q 425.741 167.564, 426.474 168.563 Q 427.228 169.539, 427.228 171.093 Q 427.228 172.424, 426.562 173.467 Q 425.897 174.488, 424.676 175.065 Q 423.456 175.62, 421.858 175.62 Q 420.171 175.62, 418.906 175.043 Q 417.664 174.443, 416.665 173.245 L 417.93 171.958 Q 418.906 173.023, 419.727 173.445 Q 420.549 173.844, 421.858 173.844 Q 423.278 173.844, 424.143 173.09 Q 425.009 172.313, 425.009 171.07 Q 425.009 169.473, 424.099 168.763 Q 423.211 168.03, 421.281 168.03 L 420.149 168.03 L 420.149 166.433 L 421.148 166.433 Q 422.856 166.41, 423.766 165.678 Q 424.676 164.924, 424.676 163.526 Q 424.676 162.505, 423.922 161.906 Q 423.167 161.284, 421.88 161.284 Q 420.571 161.284, 419.75 161.75 Q 418.951 162.216, 418.329 163.392 L 416.798 162.571 Q 417.353 161.262, 418.684 160.397 Q 420.016 159.509, 421.88 159.509 Q 424.188 159.509, 425.542 160.596 Q 426.895 161.684, 426.895 163.526 Q 426.895 164.79, 426.207 165.7 Q 425.519 166.61, 424.21 167.12 " fill="#000000"/>
<path class="atom-23" d="M 378.705 270.263 L 380.836 270.263 L 380.836 276.943 L 388.869 276.943 L 388.869 270.263 L 390.999 270.263 L 390.999 285.974 L 388.869 285.974 L 388.869 278.718 L 380.836 278.718 L 380.836 285.974 L 378.705 285.974 L 378.705 270.263 " fill="#000000"/>
<path class="atom-23" d="M 392.664 283.378 L 394.883 283.378 L 394.883 285.597 L 392.664 285.597 L 392.664 283.378 M 392.664 275.744 L 394.883 275.744 L 394.883 277.963 L 392.664 277.963 L 392.664 275.744 " fill="#000000"/>
<path class="atom-23" d="M 396.037 273.237 Q 396.614 271.75, 397.989 270.929 Q 399.365 270.086, 401.274 270.086 Q 403.648 270.086, 404.98 271.373 Q 406.311 272.66, 406.311 274.945 Q 406.311 277.275, 404.58 279.45 Q 402.871 281.625, 399.321 284.199 L 406.577 284.199 L 406.577 285.974 L 395.992 285.974 L 395.992 284.488 Q 398.921 282.402, 400.652 280.848 Q 402.405 279.295, 403.249 277.897 Q 404.092 276.499, 404.092 275.056 Q 404.092 273.547, 403.337 272.704 Q 402.583 271.861, 401.274 271.861 Q 400.009 271.861, 399.166 272.371 Q 398.322 272.882, 397.723 274.013 L 396.037 273.237 " fill="#000000"/>
<path class="atom-23" d="M 417.451 280.582 L 419.337 280.582 L 419.337 282.357 L 417.451 282.357 L 417.451 285.974 L 415.365 285.974 L 415.365 282.357 L 407.243 282.357 L 407.243 280.959 L 414.122 270.263 L 417.451 270.263 L 417.451 280.582 M 409.817 280.582 L 415.365 280.582 L 415.365 271.683 L 409.817 280.582 " fill="#000000"/>
<path class="atom-24" d="M 86.7103 96.3231 L 88.8407 96.3231 L 88.8407 103.003 L 96.8738 103.003 L 96.8738 96.3231 L 99.0041 96.3231 L 99.0041 112.034 L 96.8738 112.034 L 96.8738 104.778 L 88.8407 104.778 L 88.8407 112.034 L 86.7103 112.034 L 86.7103 96.3231 " fill="#000000"/>
<path class="atom-24" d="M 100.668 109.438 L 102.888 109.438 L 102.888 111.657 L 100.668 111.657 L 100.668 109.438 M 100.668 101.804 L 102.888 101.804 L 102.888 104.023 L 100.668 104.023 L 100.668 101.804 " fill="#000000"/>
<path class="atom-24" d="M 104.042 99.2967 Q 104.618 97.8099, 105.994 96.9889 Q 107.37 96.1456, 109.279 96.1456 Q 111.653 96.1456, 112.984 97.4327 Q 114.316 98.7198, 114.316 101.005 Q 114.316 103.335, 112.585 105.51 Q 110.876 107.685, 107.326 110.259 L 114.582 110.259 L 114.582 112.034 L 103.997 112.034 L 103.997 110.548 Q 106.926 108.462, 108.657 106.908 Q 110.41 105.355, 111.254 103.957 Q 112.097 102.559, 112.097 101.116 Q 112.097 99.6074, 111.342 98.7641 Q 110.588 97.9209, 109.279 97.9209 Q 108.014 97.9209, 107.17 98.4313 Q 106.327 98.9417, 105.728 100.073 L 104.042 99.2967 " fill="#000000"/>
<path class="atom-24" d="M 121.306 102.204 Q 122.682 102.204, 123.814 102.803 Q 124.945 103.38, 125.589 104.489 Q 126.233 105.577, 126.233 107.064 Q 126.233 108.684, 125.434 109.86 Q 124.657 111.014, 123.37 111.613 Q 122.083 112.212, 120.618 112.212 Q 119.176 112.212, 117.844 111.679 Q 116.513 111.147, 115.603 110.126 L 116.934 108.75 Q 117.667 109.549, 118.665 109.993 Q 119.664 110.414, 120.685 110.414 Q 122.083 110.414, 123.037 109.549 Q 124.013 108.684, 124.013 107.108 Q 124.013 105.444, 123.037 104.667 Q 122.083 103.868, 120.552 103.868 Q 119.176 103.868, 117.645 104.467 L 116.424 103.89 L 117.179 96.3231 L 125.256 96.3231 L 125.034 98.0984 L 118.998 98.0984 L 118.532 102.759 Q 119.93 102.204, 121.306 102.204 " fill="#000000"/>
<path class="atom-25" d="M 275.634 160.227 L 277.764 160.227 L 277.764 166.906 L 285.797 166.906 L 285.797 160.227 L 287.927 160.227 L 287.927 175.938 L 285.797 175.938 L 285.797 168.682 L 277.764 168.682 L 277.764 175.938 L 275.634 175.938 L 275.634 160.227 " fill="#000000"/>
<path class="atom-25" d="M 289.592 173.342 L 291.811 173.342 L 291.811 175.561 L 289.592 175.561 L 289.592 173.342 M 289.592 165.708 L 291.811 165.708 L 291.811 167.927 L 289.592 167.927 L 289.592 165.708 " fill="#000000"/>
<path class="atom-25" d="M 292.965 163.2 Q 293.542 161.714, 294.918 160.893 Q 296.293 160.049, 298.202 160.049 Q 300.576 160.049, 301.908 161.336 Q 303.239 162.623, 303.239 164.909 Q 303.239 167.239, 301.508 169.414 Q 299.8 171.589, 296.249 174.163 L 303.505 174.163 L 303.505 175.938 L 292.92 175.938 L 292.92 174.451 Q 295.85 172.365, 297.58 170.812 Q 299.334 169.259, 300.177 167.861 Q 301.02 166.463, 301.02 165.02 Q 301.02 163.511, 300.266 162.668 Q 299.511 161.825, 298.202 161.825 Q 296.937 161.825, 296.094 162.335 Q 295.25 162.845, 294.651 163.977 L 292.965 163.2 " fill="#000000"/>
<path class="atom-25" d="M 311.161 166.13 Q 312.537 166.13, 313.625 166.729 Q 314.712 167.328, 315.311 168.415 Q 315.91 169.503, 315.91 170.879 Q 315.91 172.41, 315.222 173.608 Q 314.557 174.784, 313.358 175.45 Q 312.16 176.116, 310.629 176.116 Q 307.833 176.116, 306.412 174.229 Q 305.014 172.321, 305.014 168.548 Q 305.014 164.377, 306.745 162.224 Q 308.498 160.049, 311.849 160.049 Q 312.826 160.049, 313.647 160.271 Q 314.49 160.493, 315.289 160.959 L 314.423 162.446 Q 313.269 161.825, 311.871 161.825 Q 309.652 161.825, 308.521 163.267 Q 307.389 164.687, 307.256 167.639 Q 308.055 166.906, 309.053 166.529 Q 310.074 166.13, 311.161 166.13 M 310.651 174.296 Q 311.494 174.296, 312.182 173.852 Q 312.892 173.408, 313.292 172.632 Q 313.691 171.855, 313.691 170.901 Q 313.691 169.503, 312.914 168.704 Q 312.138 167.905, 310.762 167.905 Q 309.808 167.905, 308.853 168.304 Q 307.921 168.682, 307.256 169.347 Q 307.344 171.944, 308.166 173.12 Q 308.987 174.296, 310.651 174.296 " fill="#000000"/>
<path class="atom-26" d="M 438.572 219.553 L 440.702 219.553 L 440.702 226.232 L 448.735 226.232 L 448.735 219.553 L 450.865 219.553 L 450.865 235.264 L 448.735 235.264 L 448.735 228.007 L 440.702 228.007 L 440.702 235.264 L 438.572 235.264 L 438.572 219.553 " fill="#000000"/>
<path class="atom-26" d="M 452.53 232.668 L 454.749 232.668 L 454.749 234.887 L 452.53 234.887 L 452.53 232.668 M 452.53 225.034 L 454.749 225.034 L 454.749 227.253 L 452.53 227.253 L 452.53 225.034 " fill="#000000"/>
<path class="atom-26" d="M 455.903 222.526 Q 456.48 221.039, 457.856 220.218 Q 459.231 219.375, 461.14 219.375 Q 463.514 219.375, 464.846 220.662 Q 466.177 221.949, 466.177 224.235 Q 466.177 226.565, 464.446 228.74 Q 462.738 230.914, 459.187 233.489 L 466.444 233.489 L 466.444 235.264 L 455.858 235.264 L 455.858 233.777 Q 458.788 231.691, 460.519 230.138 Q 462.272 228.584, 463.115 227.186 Q 463.958 225.788, 463.958 224.346 Q 463.958 222.837, 463.204 221.994 Q 462.449 221.15, 461.14 221.15 Q 459.875 221.15, 459.032 221.661 Q 458.188 222.171, 457.589 223.303 L 455.903 222.526 " fill="#000000"/>
<path class="atom-26" d="M 475.076 221.328 L 466.843 221.328 L 466.843 219.553 L 477.273 219.553 L 477.273 221.128 L 470.926 235.264 L 468.796 235.264 L 475.076 221.328 " fill="#000000"/>
<text x="243.28026179189442" y="307.0590695929042" font-size="12" font-family="Verdana" font-weight="bold" letter-spacing="0" text-anchor="start" fill="black" transform=" rotate(-85.266683 243.280262 307.059070)">1.123</text><text x="25" y="490" font-size="12" font-family="Verdana" font-weight="bold" letter-spacing="0" text-anchor="start" fill="black">[#6:1](-[#6:2](-[#7:3](-[#6:4]1:[#6:6](:[#6:8](:[#6:7](:[#6:9](:[#6:10]:1-[H:21])-[H:20])-[H:25])-[H:19])-[H:18])-[#6:5](-[H:15])(-[H:16])-[H:17])=[#8:11])(-[#7:12](-[#6:22](-[H:23])(-[H:24])-[H:27])-[H:26])(-[H:13])-[H:14]</text></svg>
