<?xml version='1.0' encoding='ASCII' standalone='yes'?>
<svg xmlns="http://www.w3.org/2000/svg" xmlns:rdkit="http://www.rdkit.org/xml" xmlns:xlink="http://www.w3.org/1999/xlink" version="1.1" baseProfile="full" xml:space="preserve" width="500px" height="500px" viewBox="0 0 500 500">
<!-- END OF HEADER -->
<rect style="opacity:1.0;fill:#FFFFFF;stroke:none" width="500" height="500" x="0" y="0"> </rect>
<path d="M 287.755,326.878 L 345.04,291.894" style="fill:none;fill-rule:evenodd;stroke:#FF7F7F;stroke-width:14.3px;stroke-linecap:butt;stroke-linejoin:miter;stroke-opacity:1"/>
<path class="bond-0 atom-0 atom-5" d="M 208.564,286.878 L 182.771,290.234" style="fill:none;fill-rule:evenodd;stroke:#000000;stroke-width:2.0px;stroke-linecap:butt;stroke-linejoin:miter;stroke-opacity:1"/>
<path class="bond-2 atom-1 atom-0" d="M 274.828,315.803 L 259.297,302.497" style="fill:none;fill-rule:evenodd;stroke:#0000FF;stroke-width:2.0px;stroke-linecap:butt;stroke-linejoin:miter;stroke-opacity:1"/>
<path class="bond-2 atom-1 atom-0" d="M 259.297,302.497 L 243.767,289.191" style="fill:none;fill-rule:evenodd;stroke:#000000;stroke-width:2.0px;stroke-linecap:butt;stroke-linejoin:miter;stroke-opacity:1"/>
<path class="bond-7 atom-3 atom-0" d="M 258.001,232.2 L 241.311,272.322" style="fill:none;fill-rule:evenodd;stroke:#000000;stroke-width:2.0px;stroke-linecap:butt;stroke-linejoin:miter;stroke-opacity:1"/>
<path class="bond-7 atom-3 atom-0" d="M 243.103,233.062 L 231.42,261.147" style="fill:none;fill-rule:evenodd;stroke:#000000;stroke-width:2.0px;stroke-linecap:butt;stroke-linejoin:miter;stroke-opacity:1"/>
<path class="bond-1 atom-1 atom-4" d="M 300.603,319.032 L 318.506,308.099" style="fill:none;fill-rule:evenodd;stroke:#0000FF;stroke-width:2.0px;stroke-linecap:butt;stroke-linejoin:miter;stroke-opacity:1"/>
<path class="bond-1 atom-1 atom-4" d="M 318.506,308.099 L 336.409,297.166" style="fill:none;fill-rule:evenodd;stroke:#000000;stroke-width:2.0px;stroke-linecap:butt;stroke-linejoin:miter;stroke-opacity:1"/>
<path class="bond-3 atom-1 atom-9" d="M 286.849,338.168 L 285.051,360.58" style="fill:none;fill-rule:evenodd;stroke:#0000FF;stroke-width:2.0px;stroke-linecap:butt;stroke-linejoin:miter;stroke-opacity:1"/>
<path class="bond-3 atom-1 atom-9" d="M 285.051,360.58 L 283.253,382.993" style="fill:none;fill-rule:evenodd;stroke:#000000;stroke-width:2.0px;stroke-linecap:butt;stroke-linejoin:miter;stroke-opacity:1"/>
<path class="bond-4 atom-2 atom-3" d="M 320.463,225.88 L 275.764,222.293" style="fill:none;fill-rule:evenodd;stroke:#000000;stroke-width:2.0px;stroke-linecap:butt;stroke-linejoin:miter;stroke-opacity:1"/>
<path class="bond-5 atom-2 atom-10" d="M 338.478,216.089 L 364.023,186.272" style="fill:none;fill-rule:evenodd;stroke:#000000;stroke-width:2.0px;stroke-linecap:butt;stroke-linejoin:miter;stroke-opacity:1"/>
<path class="bond-5 atom-2 atom-10" d="M 332.115,202.882 L 349.997,182.011" style="fill:none;fill-rule:evenodd;stroke:#000000;stroke-width:2.0px;stroke-linecap:butt;stroke-linejoin:miter;stroke-opacity:1"/>
<path class="bond-6 atom-2 atom-4" d="M 332.22,238.134 L 342.419,280.901" style="fill:none;fill-rule:evenodd;stroke:#000000;stroke-width:2.0px;stroke-linecap:butt;stroke-linejoin:miter;stroke-opacity:1"/>
<path class="bond-8 atom-3 atom-6" d="M 253.928,209.944 L 230.148,178.855" style="fill:none;fill-rule:evenodd;stroke:#000000;stroke-width:2.0px;stroke-linecap:butt;stroke-linejoin:miter;stroke-opacity:1"/>
<path class="bond-9 atom-4 atom-11" d="M 370.117,309.596 L 382.449,314.726" style="fill:none;fill-rule:evenodd;stroke:#000000;stroke-width:2.0px;stroke-linecap:butt;stroke-linejoin:miter;stroke-opacity:1"/>
<path class="bond-9 atom-4 atom-11" d="M 382.449,314.726 L 394.78,319.857" style="fill:none;fill-rule:evenodd;stroke:#FF0000;stroke-width:2.0px;stroke-linecap:butt;stroke-linejoin:miter;stroke-opacity:1"/>
<path class="bond-9 atom-4 atom-11" d="M 375.273,297.202 L 387.605,302.332" style="fill:none;fill-rule:evenodd;stroke:#000000;stroke-width:2.0px;stroke-linecap:butt;stroke-linejoin:miter;stroke-opacity:1"/>
<path class="bond-9 atom-4 atom-11" d="M 387.605,302.332 L 399.936,307.462" style="fill:none;fill-rule:evenodd;stroke:#FF0000;stroke-width:2.0px;stroke-linecap:butt;stroke-linejoin:miter;stroke-opacity:1"/>
<path class="bond-10 atom-5 atom-8" d="M 161.585,280.577 L 137.969,249.702" style="fill:none;fill-rule:evenodd;stroke:#000000;stroke-width:2.0px;stroke-linecap:butt;stroke-linejoin:miter;stroke-opacity:1"/>
<path class="bond-10 atom-5 atom-8" d="M 168.706,267.79 L 152.174,246.177" style="fill:none;fill-rule:evenodd;stroke:#000000;stroke-width:2.0px;stroke-linecap:butt;stroke-linejoin:miter;stroke-opacity:1"/>
<path class="bond-11 atom-5 atom-12" d="M 165.714,302.7 L 149.014,342.843" style="fill:none;fill-rule:evenodd;stroke:#000000;stroke-width:2.0px;stroke-linecap:butt;stroke-linejoin:miter;stroke-opacity:1"/>
<path class="bond-12 atom-6 atom-7" d="M 198.005,171.013 L 167.918,174.928" style="fill:none;fill-rule:evenodd;stroke:#000000;stroke-width:2.0px;stroke-linecap:butt;stroke-linejoin:miter;stroke-opacity:1"/>
<path class="bond-12 atom-6 atom-7" d="M 195.223,184.913 L 174.163,187.653" style="fill:none;fill-rule:evenodd;stroke:#000000;stroke-width:2.0px;stroke-linecap:butt;stroke-linejoin:miter;stroke-opacity:1"/>
<path class="bond-13 atom-6 atom-13" d="M 226.391,156.845 L 243.016,116.883" style="fill:none;fill-rule:evenodd;stroke:#000000;stroke-width:2.0px;stroke-linecap:butt;stroke-linejoin:miter;stroke-opacity:1"/>
<path class="bond-14 atom-7 atom-8" d="M 150.716,187.413 L 134.016,227.556" style="fill:none;fill-rule:evenodd;stroke:#000000;stroke-width:2.0px;stroke-linecap:butt;stroke-linejoin:miter;stroke-opacity:1"/>
<path class="bond-15 atom-7 atom-15" d="M 146.587,165.289 L 122.357,133.612" style="fill:none;fill-rule:evenodd;stroke:#000000;stroke-width:2.0px;stroke-linecap:butt;stroke-linejoin:miter;stroke-opacity:1"/>
<path class="bond-16 atom-8 atom-14" d="M 105.096,241.72 L 70.3743,246.237" style="fill:none;fill-rule:evenodd;stroke:#000000;stroke-width:2.0px;stroke-linecap:butt;stroke-linejoin:miter;stroke-opacity:1"/>
<path class="bond-17 atom-10 atom-16" d="M 391.412,179.045 L 430.47,186.346" style="fill:none;fill-rule:evenodd;stroke:#000000;stroke-width:2.0px;stroke-linecap:butt;stroke-linejoin:miter;stroke-opacity:1"/>
<path class="bond-18 atom-10 atom-17" d="M 369.2,164.447 L 354.706,123.317" style="fill:none;fill-rule:evenodd;stroke:#000000;stroke-width:2.0px;stroke-linecap:butt;stroke-linejoin:miter;stroke-opacity:1"/>
<path class="atom-0" d="M 210.242 283.288 Q 210.242 278.563, 212.444 276.092 Q 214.672 273.596, 218.887 273.596 Q 222.807 273.596, 224.901 276.361 L 223.129 277.811 Q 221.599 275.797, 218.887 275.797 Q 216.014 275.797, 214.484 277.73 Q 212.981 279.637, 212.981 283.288 Q 212.981 287.047, 214.538 288.98 Q 216.122 290.913, 219.183 290.913 Q 221.277 290.913, 223.72 289.651 L 224.472 291.665 Q 223.478 292.309, 221.975 292.685 Q 220.471 293.061, 218.807 293.061 Q 214.672 293.061, 212.444 290.537 Q 210.242 288.013, 210.242 283.288 " fill="#000000"/>
<path class="atom-0" d="M 226.915 289.678 L 229.6 289.678 L 229.6 292.363 L 226.915 292.363 L 226.915 289.678 M 226.915 280.442 L 229.6 280.442 L 229.6 283.127 L 226.915 283.127 L 226.915 280.442 " fill="#000000"/>
<path class="atom-0" d="M 232.097 290.671 L 236.259 290.671 L 236.259 276.468 L 231.667 277.891 L 231.05 276.307 L 236.876 273.703 L 238.782 274.025 L 238.782 290.671 L 242.514 290.671 L 242.514 292.819 L 232.097 292.819 L 232.097 290.671 " fill="#000000"/>
<path class="atom-1" d="M 268.666 317.481 L 274.895 327.549 Q 275.512 328.543, 276.506 330.341 Q 277.499 332.14, 277.553 332.248 L 277.553 317.481 L 280.077 317.481 L 280.077 336.49 L 277.472 336.49 L 270.787 325.482 Q 270.008 324.193, 269.176 322.716 Q 268.37 321.24, 268.129 320.783 L 268.129 336.49 L 265.659 336.49 L 265.659 317.481 L 268.666 317.481 " fill="#0000FF"/>
<path class="atom-1" d="M 282.09 333.348 L 284.775 333.348 L 284.775 336.033 L 282.09 336.033 L 282.09 333.348 M 282.09 324.112 L 284.775 324.112 L 284.775 326.797 L 282.09 326.797 L 282.09 324.112 " fill="#0000FF"/>
<path class="atom-1" d="M 286.171 321.079 Q 286.869 319.28, 288.534 318.286 Q 290.199 317.266, 292.508 317.266 Q 295.38 317.266, 296.991 318.823 Q 298.602 320.38, 298.602 323.146 Q 298.602 325.965, 296.508 328.596 Q 294.441 331.227, 290.145 334.342 L 298.924 334.342 L 298.924 336.49 L 286.118 336.49 L 286.118 334.691 Q 289.662 332.167, 291.756 330.288 Q 293.877 328.408, 294.897 326.717 Q 295.917 325.025, 295.917 323.28 Q 295.917 321.454, 295.005 320.434 Q 294.092 319.414, 292.508 319.414 Q 290.977 319.414, 289.957 320.031 Q 288.937 320.649, 288.212 322.018 L 286.171 321.079 " fill="#0000FF"/>
<path class="atom-2" d="M 322.141 226.683 Q 322.141 221.958, 324.343 219.488 Q 326.571 216.991, 330.786 216.991 Q 334.706 216.991, 336.8 219.756 L 335.028 221.206 Q 333.498 219.193, 330.786 219.193 Q 327.913 219.193, 326.383 221.126 Q 324.879 223.032, 324.879 226.683 Q 324.879 230.442, 326.437 232.375 Q 328.021 234.308, 331.082 234.308 Q 333.176 234.308, 335.619 233.047 L 336.371 235.06 Q 335.377 235.705, 333.874 236.08 Q 332.37 236.456, 330.706 236.456 Q 326.571 236.456, 324.343 233.933 Q 322.141 231.409, 322.141 226.683 " fill="#000000"/>
<path class="atom-2" d="M 338.814 233.073 L 341.499 233.073 L 341.499 235.758 L 338.814 235.758 L 338.814 233.073 M 338.814 223.837 L 341.499 223.837 L 341.499 226.522 L 338.814 226.522 L 338.814 223.837 " fill="#000000"/>
<path class="atom-2" d="M 351.755 226.2 Q 353.608 226.737, 354.494 227.945 Q 355.407 229.127, 355.407 231.006 Q 355.407 232.617, 354.601 233.879 Q 353.796 235.114, 352.319 235.812 Q 350.842 236.483, 348.909 236.483 Q 346.869 236.483, 345.338 235.785 Q 343.835 235.06, 342.627 233.61 L 344.157 232.053 Q 345.338 233.342, 346.332 233.852 Q 347.325 234.335, 348.909 234.335 Q 350.628 234.335, 351.675 233.422 Q 352.722 232.483, 352.722 230.979 Q 352.722 229.046, 351.621 228.187 Q 350.547 227.301, 348.211 227.301 L 346.842 227.301 L 346.842 225.368 L 348.05 225.368 Q 350.117 225.341, 351.218 224.455 Q 352.319 223.542, 352.319 221.851 Q 352.319 220.616, 351.406 219.891 Q 350.493 219.139, 348.936 219.139 Q 347.352 219.139, 346.359 219.703 Q 345.392 220.266, 344.64 221.689 L 342.788 220.696 Q 343.459 219.112, 345.07 218.065 Q 346.681 216.991, 348.936 216.991 Q 351.728 216.991, 353.366 218.307 Q 355.004 219.622, 355.004 221.851 Q 355.004 223.381, 354.172 224.482 Q 353.339 225.583, 351.755 226.2 " fill="#000000"/>
<path class="atom-3" d="M 239.516 221.315 Q 239.516 216.589, 241.718 214.119 Q 243.946 211.622, 248.161 211.622 Q 252.081 211.622, 254.176 214.388 L 252.403 215.837 Q 250.873 213.824, 248.161 213.824 Q 245.289 213.824, 243.758 215.757 Q 242.255 217.663, 242.255 221.315 Q 242.255 225.073, 243.812 227.007 Q 245.396 228.94, 248.457 228.94 Q 250.551 228.94, 252.994 227.678 L 253.746 229.691 Q 252.753 230.336, 251.249 230.712 Q 249.745 231.088, 248.081 231.088 Q 243.946 231.088, 241.718 228.564 Q 239.516 226.04, 239.516 221.315 " fill="#000000"/>
<path class="atom-3" d="M 256.189 227.705 L 258.874 227.705 L 258.874 230.389 L 256.189 230.389 L 256.189 227.705 M 256.189 218.469 L 258.874 218.469 L 258.874 221.153 L 256.189 221.153 L 256.189 218.469 " fill="#000000"/>
<path class="atom-3" d="M 272.03 224.322 L 274.312 224.322 L 274.312 226.47 L 272.03 226.47 L 272.03 230.846 L 269.506 230.846 L 269.506 226.47 L 259.68 226.47 L 259.68 224.778 L 268.003 211.837 L 272.03 211.837 L 272.03 224.322 M 262.794 224.322 L 269.506 224.322 L 269.506 213.555 L 262.794 224.322 " fill="#000000"/>
<path class="atom-4" d="M 337.71 291.975 Q 337.71 287.249, 339.912 284.779 Q 342.14 282.282, 346.356 282.282 Q 350.276 282.282, 352.37 285.048 L 350.598 286.498 Q 349.067 284.484, 346.356 284.484 Q 343.483 284.484, 341.952 286.417 Q 340.449 288.323, 340.449 291.975 Q 340.449 295.734, 342.006 297.667 Q 343.59 299.6, 346.651 299.6 Q 348.745 299.6, 351.188 298.338 L 351.94 300.352 Q 350.947 300.996, 349.443 301.372 Q 347.94 301.748, 346.275 301.748 Q 342.14 301.748, 339.912 299.224 Q 337.71 296.7, 337.71 291.975 " fill="#000000"/>
<path class="atom-4" d="M 354.383 298.365 L 357.068 298.365 L 357.068 301.05 L 354.383 301.05 L 354.383 298.365 M 354.383 289.129 L 357.068 289.129 L 357.068 291.814 L 354.383 291.814 L 354.383 289.129 " fill="#000000"/>
<path class="atom-4" d="M 365.204 289.612 Q 366.868 289.612, 368.237 290.337 Q 369.607 291.035, 370.385 292.378 Q 371.164 293.693, 371.164 295.492 Q 371.164 297.452, 370.197 298.875 Q 369.258 300.271, 367.7 300.996 Q 366.143 301.721, 364.371 301.721 Q 362.626 301.721, 361.015 301.077 Q 359.404 300.432, 358.303 299.197 L 359.914 297.533 Q 360.8 298.499, 362.009 299.036 Q 363.217 299.546, 364.452 299.546 Q 366.143 299.546, 367.298 298.499 Q 368.479 297.452, 368.479 295.546 Q 368.479 293.532, 367.298 292.592 Q 366.143 291.626, 364.291 291.626 Q 362.626 291.626, 360.773 292.351 L 359.297 291.653 L 360.21 282.497 L 369.983 282.497 L 369.714 284.645 L 362.411 284.645 L 361.847 290.283 Q 363.539 289.612, 365.204 289.612 " fill="#000000"/>
<path class="atom-5" d="M 147.437 291.947 Q 147.437 287.222, 149.639 284.752 Q 151.867 282.255, 156.083 282.255 Q 160.003 282.255, 162.097 285.02 L 160.325 286.47 Q 158.794 284.456, 156.083 284.456 Q 153.21 284.456, 151.679 286.39 Q 150.176 288.296, 150.176 291.947 Q 150.176 295.706, 151.733 297.639 Q 153.317 299.572, 156.378 299.572 Q 158.472 299.572, 160.915 298.31 L 161.667 300.324 Q 160.674 300.968, 159.17 301.344 Q 157.667 301.72, 156.002 301.72 Q 151.867 301.72, 149.639 299.196 Q 147.437 296.673, 147.437 291.947 " fill="#000000"/>
<path class="atom-5" d="M 164.11 298.337 L 166.795 298.337 L 166.795 301.022 L 164.11 301.022 L 164.11 298.337 M 164.11 289.101 L 166.795 289.101 L 166.795 291.786 L 164.11 291.786 L 164.11 289.101 " fill="#000000"/>
<path class="atom-5" d="M 176.058 289.611 Q 177.723 289.611, 179.038 290.336 Q 180.354 291.061, 181.079 292.377 Q 181.804 293.692, 181.804 295.357 Q 181.804 297.21, 180.972 298.659 Q 180.166 300.082, 178.716 300.888 Q 177.266 301.693, 175.414 301.693 Q 172.031 301.693, 170.313 299.411 Q 168.621 297.102, 168.621 292.538 Q 168.621 287.49, 170.715 284.886 Q 172.836 282.255, 176.891 282.255 Q 178.072 282.255, 179.065 282.523 Q 180.086 282.792, 181.052 283.356 L 180.005 285.154 Q 178.609 284.403, 176.917 284.403 Q 174.232 284.403, 172.863 286.148 Q 171.494 287.866, 171.333 291.437 Q 172.299 290.551, 173.508 290.095 Q 174.743 289.611, 176.058 289.611 M 175.441 299.492 Q 176.461 299.492, 177.293 298.955 Q 178.152 298.418, 178.636 297.478 Q 179.119 296.538, 179.119 295.384 Q 179.119 293.692, 178.179 292.726 Q 177.24 291.759, 175.575 291.759 Q 174.42 291.759, 173.266 292.243 Q 172.138 292.699, 171.333 293.504 Q 171.44 296.646, 172.434 298.069 Q 173.427 299.492, 175.441 299.492 " fill="#000000"/>
<path class="atom-6" d="M 199.683 168 Q 199.683 163.275, 201.884 160.805 Q 204.113 158.308, 208.328 158.308 Q 212.248 158.308, 214.342 161.073 L 212.57 162.523 Q 211.04 160.51, 208.328 160.51 Q 205.455 160.51, 203.925 162.443 Q 202.421 164.349, 202.421 168 Q 202.421 171.759, 203.978 173.692 Q 205.563 175.626, 208.623 175.626 Q 210.718 175.626, 213.161 174.364 L 213.913 176.377 Q 212.919 177.022, 211.416 177.398 Q 209.912 177.773, 208.247 177.773 Q 204.113 177.773, 201.884 175.25 Q 199.683 172.726, 199.683 168 " fill="#000000"/>
<path class="atom-6" d="M 216.356 174.39 L 219.041 174.39 L 219.041 177.075 L 216.356 177.075 L 216.356 174.39 M 216.356 165.154 L 219.041 165.154 L 219.041 167.839 L 216.356 167.839 L 216.356 165.154 " fill="#000000"/>
<path class="atom-6" d="M 229.485 160.671 L 219.524 160.671 L 219.524 158.523 L 232.143 158.523 L 232.143 160.429 L 224.464 177.532 L 221.887 177.532 L 229.485 160.671 " fill="#000000"/>
<path class="atom-7" d="M 132.392 176.66 Q 132.392 171.934, 134.594 169.464 Q 136.822 166.967, 141.037 166.967 Q 144.957 166.967, 147.051 169.733 L 145.279 171.183 Q 143.749 169.169, 141.037 169.169 Q 138.164 169.169, 136.634 171.102 Q 135.131 173.008, 135.131 176.66 Q 135.131 180.419, 136.688 182.352 Q 138.272 184.285, 141.333 184.285 Q 143.427 184.285, 145.87 183.023 L 146.622 185.037 Q 145.628 185.681, 144.125 186.057 Q 142.621 186.433, 140.957 186.433 Q 136.822 186.433, 134.594 183.909 Q 132.392 181.385, 132.392 176.66 " fill="#000000"/>
<path class="atom-7" d="M 149.065 183.05 L 151.75 183.05 L 151.75 185.735 L 149.065 185.735 L 149.065 183.05 M 149.065 173.814 L 151.75 173.814 L 151.75 176.499 L 149.065 176.499 L 149.065 173.814 " fill="#000000"/>
<path class="atom-7" d="M 163.107 176.123 Q 164.852 176.875, 165.846 178.002 Q 166.839 179.103, 166.839 180.982 Q 166.839 182.593, 166.007 183.855 Q 165.174 185.09, 163.671 185.788 Q 162.194 186.46, 160.234 186.46 Q 157.066 186.46, 155.24 185.01 Q 153.415 183.533, 153.415 180.982 Q 153.415 179.425, 154.22 178.271 Q 155.026 177.089, 156.69 176.203 Q 155.455 175.505, 154.784 174.485 Q 154.113 173.438, 154.113 171.827 Q 154.113 169.599, 155.724 168.283 Q 157.361 166.967, 160.127 166.967 Q 162.892 166.967, 164.503 168.283 Q 166.141 169.599, 166.141 171.827 Q 166.141 173.223, 165.362 174.27 Q 164.611 175.29, 163.107 176.123 M 160.127 168.981 Q 158.543 168.981, 157.657 169.733 Q 156.798 170.485, 156.798 171.827 Q 156.798 172.82, 157.388 173.492 Q 157.979 174.136, 158.811 174.512 Q 159.67 174.888, 161.308 175.452 Q 162.463 174.646, 162.946 173.787 Q 163.456 172.928, 163.456 171.827 Q 163.456 170.485, 162.57 169.733 Q 161.711 168.981, 160.127 168.981 M 160.234 184.446 Q 162.006 184.446, 163.08 183.506 Q 164.154 182.54, 164.154 180.956 Q 164.154 179.935, 163.59 179.291 Q 163.027 178.647, 162.167 178.271 Q 161.335 177.895, 159.832 177.412 L 158.623 177.009 Q 157.281 177.814, 156.69 178.781 Q 156.1 179.721, 156.1 180.956 Q 156.1 182.54, 157.227 183.506 Q 158.355 184.446, 160.234 184.446 " fill="#000000"/>
<path class="atom-8" d="M 106.774 238.633 Q 106.774 233.908, 108.975 231.438 Q 111.204 228.941, 115.419 228.941 Q 119.339 228.941, 121.433 231.706 L 119.661 233.156 Q 118.131 231.142, 115.419 231.142 Q 112.546 231.142, 111.016 233.075 Q 109.512 234.982, 109.512 238.633 Q 109.512 242.392, 111.07 244.325 Q 112.654 246.258, 115.715 246.258 Q 117.809 246.258, 120.252 244.996 L 121.004 247.01 Q 120.01 247.654, 118.507 248.03 Q 117.003 248.406, 115.339 248.406 Q 111.204 248.406, 108.975 245.882 Q 106.774 243.359, 106.774 238.633 " fill="#000000"/>
<path class="atom-8" d="M 123.447 245.023 L 126.132 245.023 L 126.132 247.708 L 123.447 247.708 L 123.447 245.023 M 123.447 235.787 L 126.132 235.787 L 126.132 238.472 L 123.447 238.472 L 123.447 235.787 " fill="#000000"/>
<path class="atom-8" d="M 133.999 228.941 Q 137.382 228.941, 139.073 231.25 Q 140.791 233.532, 140.791 238.096 Q 140.791 243.144, 138.67 245.775 Q 136.576 248.379, 132.522 248.379 Q 131.341 248.379, 130.32 248.111 Q 129.327 247.842, 128.36 247.278 L 129.407 245.48 Q 130.804 246.231, 132.495 246.231 Q 135.18 246.231, 136.549 244.513 Q 137.919 242.768, 138.08 239.197 Q 137.113 240.083, 135.878 240.566 Q 134.67 241.023, 133.354 241.023 Q 131.69 241.023, 130.374 240.298 Q 129.058 239.573, 128.333 238.257 Q 127.609 236.942, 127.609 235.277 Q 127.609 233.424, 128.414 232.001 Q 129.246 230.552, 130.696 229.746 Q 132.146 228.941, 133.999 228.941 M 130.293 235.25 Q 130.293 236.942, 131.233 237.908 Q 132.173 238.875, 133.838 238.875 Q 134.992 238.875, 136.12 238.418 Q 137.274 237.935, 138.08 237.13 Q 137.972 233.988, 136.979 232.565 Q 135.985 231.142, 133.972 231.142 Q 132.952 231.142, 132.092 231.679 Q 131.26 232.216, 130.777 233.156 Q 130.293 234.096, 130.293 235.25 " fill="#000000"/>
<path class="atom-9" d="M 274.949 384.388 L 277.527 384.388 L 277.527 392.469 L 287.246 392.469 L 287.246 384.388 L 289.824 384.388 L 289.824 403.397 L 287.246 403.397 L 287.246 394.617 L 277.527 394.617 L 277.527 403.397 L 274.949 403.397 L 274.949 384.388 " fill="#000000"/>
<path class="atom-9" d="M 291.837 400.256 L 294.522 400.256 L 294.522 402.94 L 291.837 402.94 L 291.837 400.256 M 291.837 391.02 L 294.522 391.02 L 294.522 393.704 L 291.837 393.704 L 291.837 391.02 " fill="#000000"/>
<path class="atom-9" d="M 297.019 401.249 L 301.181 401.249 L 301.181 387.046 L 296.59 388.469 L 295.972 386.885 L 301.798 384.28 L 303.705 384.603 L 303.705 401.249 L 307.437 401.249 L 307.437 403.397 L 297.019 403.397 L 297.019 401.249 " fill="#000000"/>
<path class="atom-9" d="M 316.028 403.612 Q 312.538 403.612, 310.793 401.034 Q 309.074 398.457, 309.074 393.866 Q 309.074 389.274, 310.793 386.724 Q 312.511 384.173, 316.028 384.173 Q 319.545 384.173, 321.264 386.724 Q 322.982 389.274, 322.982 393.866 Q 322.982 398.457, 321.237 401.034 Q 319.519 403.612, 316.028 403.612 M 316.028 401.464 Q 318.096 401.464, 319.196 399.557 Q 320.297 397.624, 320.297 393.866 Q 320.297 390.134, 319.196 388.227 Q 318.096 386.321, 316.028 386.321 Q 313.988 386.321, 312.86 388.227 Q 311.759 390.134, 311.759 393.866 Q 311.759 397.624, 312.86 399.557 Q 313.988 401.464, 316.028 401.464 " fill="#000000"/>
<path class="atom-10" d="M 344.547 175.71 Q 344.547 170.985, 346.749 168.515 Q 348.977 166.018, 353.192 166.018 Q 357.112 166.018, 359.207 168.783 L 357.435 170.233 Q 355.904 168.219, 353.192 168.219 Q 350.32 168.219, 348.789 170.152 Q 347.286 172.059, 347.286 175.71 Q 347.286 179.469, 348.843 181.402 Q 350.427 183.335, 353.488 183.335 Q 355.582 183.335, 358.025 182.073 L 358.777 184.087 Q 357.784 184.731, 356.28 185.107 Q 354.776 185.483, 353.112 185.483 Q 348.977 185.483, 346.749 182.959 Q 344.547 180.435, 344.547 175.71 " fill="#000000"/>
<path class="atom-10" d="M 361.22 182.1 L 363.905 182.1 L 363.905 184.785 L 361.22 184.785 L 361.22 182.1 M 361.22 172.864 L 363.905 172.864 L 363.905 175.549 L 361.22 175.549 L 361.22 172.864 " fill="#000000"/>
<path class="atom-10" d="M 366.402 183.094 L 370.564 183.094 L 370.564 168.89 L 365.972 170.313 L 365.355 168.729 L 371.181 166.125 L 373.087 166.447 L 373.087 183.094 L 376.819 183.094 L 376.819 185.241 L 366.402 185.241 L 366.402 183.094 " fill="#000000"/>
<path class="atom-10" d="M 379.316 183.094 L 383.478 183.094 L 383.478 168.89 L 378.887 170.313 L 378.269 168.729 L 384.095 166.125 L 386.002 166.447 L 386.002 183.094 L 389.734 183.094 L 389.734 185.241 L 379.316 185.241 L 379.316 183.094 " fill="#000000"/>
<path class="atom-11" d="M 398.288 317.729 Q 398.288 313.165, 400.543 310.615 Q 402.798 308.064, 407.013 308.064 Q 411.229 308.064, 413.484 310.615 Q 415.739 313.165, 415.739 317.729 Q 415.739 322.347, 413.457 324.979 Q 411.175 327.583, 407.013 327.583 Q 402.825 327.583, 400.543 324.979 Q 398.288 322.374, 398.288 317.729 M 407.013 325.435 Q 409.913 325.435, 411.47 323.502 Q 413.054 321.542, 413.054 317.729 Q 413.054 313.997, 411.47 312.118 Q 409.913 310.212, 407.013 310.212 Q 404.114 310.212, 402.53 312.091 Q 400.972 313.971, 400.972 317.729 Q 400.972 321.569, 402.53 323.502 Q 404.114 325.435, 407.013 325.435 " fill="#FF0000"/>
<path class="atom-11" d="M 417.753 324.146 L 420.438 324.146 L 420.438 326.831 L 417.753 326.831 L 417.753 324.146 M 417.753 314.91 L 420.438 314.91 L 420.438 317.595 L 417.753 317.595 L 417.753 314.91 " fill="#FF0000"/>
<path class="atom-11" d="M 422.935 325.14 L 427.096 325.14 L 427.096 310.937 L 422.505 312.36 L 421.888 310.776 L 427.714 308.171 L 429.62 308.493 L 429.62 325.14 L 433.352 325.14 L 433.352 327.288 L 422.935 327.288 L 422.935 325.14 " fill="#FF0000"/>
<path class="atom-11" d="M 434.748 311.876 Q 435.446 310.078, 437.111 309.084 Q 438.776 308.064, 441.085 308.064 Q 443.957 308.064, 445.568 309.621 Q 447.179 311.178, 447.179 313.944 Q 447.179 316.763, 445.085 319.394 Q 443.018 322.025, 438.722 325.14 L 447.502 325.14 L 447.502 327.288 L 434.695 327.288 L 434.695 325.489 Q 438.239 322.965, 440.333 321.086 Q 442.454 319.206, 443.474 317.515 Q 444.494 315.823, 444.494 314.078 Q 444.494 312.252, 443.582 311.232 Q 442.669 310.212, 441.085 310.212 Q 439.554 310.212, 438.534 310.829 Q 437.514 311.447, 436.789 312.816 L 434.748 311.876 " fill="#FF0000"/>
<path class="atom-12" d="M 104.435 344.443 L 107.012 344.443 L 107.012 352.524 L 116.731 352.524 L 116.731 344.443 L 119.309 344.443 L 119.309 363.452 L 116.731 363.452 L 116.731 354.672 L 107.012 354.672 L 107.012 363.452 L 104.435 363.452 L 104.435 344.443 " fill="#000000"/>
<path class="atom-12" d="M 121.322 360.311 L 124.007 360.311 L 124.007 362.996 L 121.322 362.996 L 121.322 360.311 M 121.322 351.075 L 124.007 351.075 L 124.007 353.76 L 121.322 353.76 L 121.322 351.075 " fill="#000000"/>
<path class="atom-12" d="M 126.504 361.304 L 130.666 361.304 L 130.666 347.101 L 126.075 348.524 L 125.457 346.94 L 131.283 344.336 L 133.19 344.658 L 133.19 361.304 L 136.922 361.304 L 136.922 363.452 L 126.504 363.452 L 126.504 361.304 " fill="#000000"/>
<path class="atom-12" d="M 147.178 353.437 Q 149.03 353.974, 149.917 355.183 Q 150.829 356.364, 150.829 358.243 Q 150.829 359.854, 150.024 361.116 Q 149.218 362.351, 147.742 363.049 Q 146.265 363.72, 144.332 363.72 Q 142.291 363.72, 140.761 363.022 Q 139.258 362.297, 138.049 360.848 L 139.58 359.29 Q 140.761 360.579, 141.754 361.089 Q 142.748 361.573, 144.332 361.573 Q 146.05 361.573, 147.097 360.66 Q 148.144 359.72, 148.144 358.216 Q 148.144 356.283, 147.044 355.424 Q 145.97 354.538, 143.634 354.538 L 142.265 354.538 L 142.265 352.605 L 143.473 352.605 Q 145.54 352.578, 146.641 351.692 Q 147.742 350.779, 147.742 349.088 Q 147.742 347.853, 146.829 347.128 Q 145.916 346.376, 144.359 346.376 Q 142.775 346.376, 141.781 346.94 Q 140.815 347.504, 140.063 348.927 L 138.21 347.933 Q 138.882 346.349, 140.493 345.302 Q 142.103 344.228, 144.359 344.228 Q 147.151 344.228, 148.789 345.544 Q 150.427 346.859, 150.427 349.088 Q 150.427 350.618, 149.594 351.719 Q 148.762 352.82, 147.178 353.437 " fill="#000000"/>
<path class="atom-13" d="M 240.128 96.4957 L 242.706 96.4957 L 242.706 104.577 L 252.425 104.577 L 252.425 96.4957 L 255.002 96.4957 L 255.002 115.505 L 252.425 115.505 L 252.425 106.725 L 242.706 106.725 L 242.706 115.505 L 240.128 115.505 L 240.128 96.4957 " fill="#000000"/>
<path class="atom-13" d="M 257.016 112.363 L 259.701 112.363 L 259.701 115.048 L 257.016 115.048 L 257.016 112.363 M 257.016 103.127 L 259.701 103.127 L 259.701 105.812 L 257.016 105.812 L 257.016 103.127 " fill="#000000"/>
<path class="atom-13" d="M 262.198 113.357 L 266.359 113.357 L 266.359 99.1538 L 261.768 100.577 L 261.151 98.9927 L 266.977 96.3883 L 268.883 96.7105 L 268.883 113.357 L 272.615 113.357 L 272.615 115.505 L 262.198 115.505 L 262.198 113.357 " fill="#000000"/>
<path class="atom-13" d="M 285.771 108.98 L 288.053 108.98 L 288.053 111.128 L 285.771 111.128 L 285.771 115.505 L 283.247 115.505 L 283.247 111.128 L 273.421 111.128 L 273.421 109.437 L 281.744 96.4957 L 285.771 96.4957 L 285.771 108.98 M 276.535 108.98 L 283.247 108.98 L 283.247 98.2141 L 276.535 108.98 " fill="#000000"/>
<path class="atom-14" d="M 22.7273 237.761 L 25.3048 237.761 L 25.3048 245.843 L 35.0241 245.843 L 35.0241 237.761 L 37.6015 237.761 L 37.6015 256.77 L 35.0241 256.77 L 35.0241 247.991 L 25.3048 247.991 L 25.3048 256.77 L 22.7273 256.77 L 22.7273 237.761 " fill="#000000"/>
<path class="atom-14" d="M 39.6152 253.629 L 42.3001 253.629 L 42.3001 256.314 L 39.6152 256.314 L 39.6152 253.629 M 39.6152 244.393 L 42.3001 244.393 L 42.3001 247.078 L 39.6152 247.078 L 39.6152 244.393 " fill="#000000"/>
<path class="atom-14" d="M 44.797 254.622 L 48.9586 254.622 L 48.9586 240.419 L 44.3675 241.842 L 43.7499 240.258 L 49.5761 237.654 L 51.4824 237.976 L 51.4824 254.622 L 55.2144 254.622 L 55.2144 256.77 L 44.797 256.77 L 44.797 254.622 " fill="#000000"/>
<path class="atom-14" d="M 63.3496 244.876 Q 65.0142 244.876, 66.3835 245.601 Q 67.7528 246.299, 68.5314 247.641 Q 69.3101 248.957, 69.3101 250.756 Q 69.3101 252.716, 68.3435 254.139 Q 67.4038 255.535, 65.8466 256.26 Q 64.2893 256.985, 62.5173 256.985 Q 60.7721 256.985, 59.1612 256.341 Q 57.5503 255.696, 56.4494 254.461 L 58.0604 252.796 Q 58.9464 253.763, 60.1546 254.3 Q 61.3628 254.81, 62.5978 254.81 Q 64.2893 254.81, 65.4438 253.763 Q 66.6252 252.716, 66.6252 250.81 Q 66.6252 248.796, 65.4438 247.856 Q 64.2893 246.89, 62.4367 246.89 Q 60.7721 246.89, 58.9195 247.615 L 57.4429 246.917 L 58.3557 237.761 L 68.1287 237.761 L 67.8602 239.909 L 60.5573 239.909 L 59.9935 245.547 Q 61.685 244.876, 63.3496 244.876 " fill="#000000"/>
<path class="atom-15" d="M 73.5384 113.868 L 76.1159 113.868 L 76.1159 121.95 L 85.8352 121.95 L 85.8352 113.868 L 88.4127 113.868 L 88.4127 132.877 L 85.8352 132.877 L 85.8352 124.097 L 76.1159 124.097 L 76.1159 132.877 L 73.5384 132.877 L 73.5384 113.868 " fill="#000000"/>
<path class="atom-15" d="M 90.4264 129.736 L 93.1113 129.736 L 93.1113 132.421 L 90.4264 132.421 L 90.4264 129.736 M 90.4264 120.5 L 93.1113 120.5 L 93.1113 123.185 L 90.4264 123.185 L 90.4264 120.5 " fill="#000000"/>
<path class="atom-15" d="M 95.6082 130.729 L 99.7698 130.729 L 99.7698 116.526 L 95.1786 117.949 L 94.5611 116.365 L 100.387 113.761 L 102.294 114.083 L 102.294 130.729 L 106.026 130.729 L 106.026 132.877 L 95.6082 132.877 L 95.6082 130.729 " fill="#000000"/>
<path class="atom-15" d="M 115.288 121.01 Q 116.953 121.01, 118.269 121.735 Q 119.584 122.46, 120.309 123.775 Q 121.034 125.091, 121.034 126.755 Q 121.034 128.608, 120.202 130.058 Q 119.396 131.481, 117.946 132.286 Q 116.497 133.092, 114.644 133.092 Q 111.261 133.092, 109.543 130.81 Q 107.851 128.501, 107.851 123.936 Q 107.851 118.889, 109.945 116.284 Q 112.067 113.653, 116.121 113.653 Q 117.302 113.653, 118.295 113.922 Q 119.316 114.19, 120.282 114.754 L 119.235 116.553 Q 117.839 115.801, 116.148 115.801 Q 113.463 115.801, 112.093 117.546 Q 110.724 119.265, 110.563 122.836 Q 111.53 121.95, 112.738 121.493 Q 113.973 121.01, 115.288 121.01 M 114.671 130.89 Q 115.691 130.89, 116.523 130.353 Q 117.383 129.816, 117.866 128.877 Q 118.349 127.937, 118.349 126.782 Q 118.349 125.091, 117.409 124.124 Q 116.47 123.158, 114.805 123.158 Q 113.651 123.158, 112.496 123.641 Q 111.368 124.097, 110.563 124.903 Q 110.67 128.044, 111.664 129.467 Q 112.657 130.89, 114.671 130.89 " fill="#000000"/>
<path class="atom-16" d="M 431.683 178.512 L 434.261 178.512 L 434.261 186.593 L 443.98 186.593 L 443.98 178.512 L 446.558 178.512 L 446.558 197.521 L 443.98 197.521 L 443.98 188.741 L 434.261 188.741 L 434.261 197.521 L 431.683 197.521 L 431.683 178.512 " fill="#000000"/>
<path class="atom-16" d="M 448.571 194.38 L 451.256 194.38 L 451.256 197.064 L 448.571 197.064 L 448.571 194.38 M 448.571 185.143 L 451.256 185.143 L 451.256 187.828 L 448.571 187.828 L 448.571 185.143 " fill="#000000"/>
<path class="atom-16" d="M 453.753 195.373 L 457.915 195.373 L 457.915 181.17 L 453.324 182.593 L 452.706 181.009 L 458.532 178.404 L 460.438 178.727 L 460.438 195.373 L 464.17 195.373 L 464.17 197.521 L 453.753 197.521 L 453.753 195.373 " fill="#000000"/>
<path class="atom-16" d="M 474.615 180.66 L 464.654 180.66 L 464.654 178.512 L 477.273 178.512 L 477.273 180.418 L 469.594 197.521 L 467.016 197.521 L 474.615 180.66 " fill="#000000"/>
<path class="atom-17" d="M 343.395 102.926 L 345.973 102.926 L 345.973 111.008 L 355.692 111.008 L 355.692 102.926 L 358.269 102.926 L 358.269 121.935 L 355.692 121.935 L 355.692 113.155 L 345.973 113.155 L 345.973 121.935 L 343.395 121.935 L 343.395 102.926 " fill="#000000"/>
<path class="atom-17" d="M 360.283 118.794 L 362.968 118.794 L 362.968 121.479 L 360.283 121.479 L 360.283 118.794 M 360.283 109.558 L 362.968 109.558 L 362.968 112.243 L 360.283 112.243 L 360.283 109.558 " fill="#000000"/>
<path class="atom-17" d="M 365.465 119.787 L 369.626 119.787 L 369.626 105.584 L 365.035 107.007 L 364.418 105.423 L 370.244 102.819 L 372.15 103.141 L 372.15 119.787 L 375.882 119.787 L 375.882 121.935 L 365.465 121.935 L 365.465 119.787 " fill="#000000"/>
<path class="atom-17" d="M 387.239 111.867 Q 388.984 112.619, 389.978 113.746 Q 390.971 114.847, 390.971 116.726 Q 390.971 118.337, 390.139 119.599 Q 389.307 120.834, 387.803 121.532 Q 386.326 122.204, 384.366 122.204 Q 381.198 122.204, 379.373 120.754 Q 377.547 119.277, 377.547 116.726 Q 377.547 115.169, 378.352 114.015 Q 379.158 112.833, 380.822 111.947 Q 379.587 111.249, 378.916 110.229 Q 378.245 109.182, 378.245 107.571 Q 378.245 105.342, 379.856 104.027 Q 381.494 102.711, 384.259 102.711 Q 387.024 102.711, 388.635 104.027 Q 390.273 105.342, 390.273 107.571 Q 390.273 108.967, 389.495 110.014 Q 388.743 111.034, 387.239 111.867 M 384.259 104.725 Q 382.675 104.725, 381.789 105.477 Q 380.93 106.228, 380.93 107.571 Q 380.93 108.564, 381.52 109.236 Q 382.111 109.88, 382.943 110.256 Q 383.803 110.632, 385.44 111.196 Q 386.595 110.39, 387.078 109.531 Q 387.588 108.672, 387.588 107.571 Q 387.588 106.228, 386.702 105.477 Q 385.843 104.725, 384.259 104.725 M 384.366 120.19 Q 386.138 120.19, 387.212 119.25 Q 388.286 118.284, 388.286 116.7 Q 388.286 115.679, 387.723 115.035 Q 387.159 114.391, 386.3 114.015 Q 385.467 113.639, 383.964 113.155 L 382.755 112.753 Q 381.413 113.558, 380.822 114.525 Q 380.232 115.464, 380.232 116.7 Q 380.232 118.284, 381.359 119.25 Q 382.487 120.19, 384.366 120.19 " fill="#000000"/>
<text x="316.39769353444285" y="309.38609209633285" font-size="12" font-family="Verdana" font-weight="bold" letter-spacing="0" text-anchor="start" fill="black" transform=" rotate(58.587734 316.397694 309.386092)">0.017</text><text x="25" y="490" font-size="12" font-family="Verdana" font-weight="bold" letter-spacing="0" text-anchor="start" fill="black">[#6:1]12-[#7:2](-[#6:5](-[#6:3](-[#6:4]:1:[#6:7](:[#6:8](:[#6:9](:[#6:6]:2-[H:13])-[H:15])-[H:16])-[H:14])=[#6:11](-[H:17])-[H:18])=[#8:12])-[H:10]</text></svg>
