<?xml version='1.0' encoding='ASCII' standalone='yes'?>
<svg xmlns="http://www.w3.org/2000/svg" xmlns:rdkit="http://www.rdkit.org/xml" xmlns:xlink="http://www.w3.org/1999/xlink" version="1.1" baseProfile="full" xml:space="preserve" width="500px" height="500px" viewBox="0 0 500 500">
<!-- END OF HEADER -->
<rect style="opacity:1.0;fill:#FFFFFF;stroke:none" width="500" height="500" x="0" y="0"> </rect>
<path d="M 279.99,222.317 L 247.527,259.528" style="fill:none;fill-rule:evenodd;stroke:#FF7F7F;stroke-width:10.5px;stroke-linecap:butt;stroke-linejoin:miter;stroke-opacity:1"/>
<path class="bond-0 atom-0 atom-12" d="M 330.061,223.598 L 336.366,191.464" style="fill:none;fill-rule:evenodd;stroke:#000000;stroke-width:2.0px;stroke-linecap:butt;stroke-linejoin:miter;stroke-opacity:1"/>
<path class="bond-1 atom-0 atom-13" d="M 327.868,239.896 L 326.143,263.97" style="fill:none;fill-rule:evenodd;stroke:#000000;stroke-width:2.0px;stroke-linecap:butt;stroke-linejoin:miter;stroke-opacity:1"/>
<path class="bond-2 atom-1 atom-0" d="M 289.347,224.153 L 307.925,227.798" style="fill:none;fill-rule:evenodd;stroke:#000000;stroke-width:2.0px;stroke-linecap:butt;stroke-linejoin:miter;stroke-opacity:1"/>
<path class="bond-21 atom-11 atom-0" d="M 354.601,236.956 L 343.966,234.87" style="fill:none;fill-rule:evenodd;stroke:#0000FF;stroke-width:2.0px;stroke-linecap:butt;stroke-linejoin:miter;stroke-opacity:1"/>
<path class="bond-21 atom-11 atom-0" d="M 343.966,234.87 L 333.33,232.783" style="fill:none;fill-rule:evenodd;stroke:#000000;stroke-width:2.0px;stroke-linecap:butt;stroke-linejoin:miter;stroke-opacity:1"/>
<path class="bond-3 atom-1 atom-10" d="M 282.128,213.318 L 276.823,197.822" style="fill:none;fill-rule:evenodd;stroke:#000000;stroke-width:2.0px;stroke-linecap:butt;stroke-linejoin:miter;stroke-opacity:1"/>
<path class="bond-3 atom-1 atom-10" d="M 276.823,197.822 L 271.518,182.326" style="fill:none;fill-rule:evenodd;stroke:#FF0000;stroke-width:2.0px;stroke-linecap:butt;stroke-linejoin:miter;stroke-opacity:1"/>
<path class="bond-3 atom-1 atom-10" d="M 272.785,216.517 L 267.48,201.021" style="fill:none;fill-rule:evenodd;stroke:#000000;stroke-width:2.0px;stroke-linecap:butt;stroke-linejoin:miter;stroke-opacity:1"/>
<path class="bond-3 atom-1 atom-10" d="M 267.48,201.021 L 262.174,185.525" style="fill:none;fill-rule:evenodd;stroke:#FF0000;stroke-width:2.0px;stroke-linecap:butt;stroke-linejoin:miter;stroke-opacity:1"/>
<path class="bond-5 atom-2 atom-1" d="M 254.773,251.222 L 263.801,240.873" style="fill:none;fill-rule:evenodd;stroke:#0000FF;stroke-width:2.0px;stroke-linecap:butt;stroke-linejoin:miter;stroke-opacity:1"/>
<path class="bond-5 atom-2 atom-1" d="M 263.801,240.873 L 272.829,230.525" style="fill:none;fill-rule:evenodd;stroke:#000000;stroke-width:2.0px;stroke-linecap:butt;stroke-linejoin:miter;stroke-opacity:1"/>
<path class="bond-4 atom-2 atom-3" d="M 230.097,256.108 L 219.301,253.989" style="fill:none;fill-rule:evenodd;stroke:#0000FF;stroke-width:2.0px;stroke-linecap:butt;stroke-linejoin:miter;stroke-opacity:1"/>
<path class="bond-4 atom-2 atom-3" d="M 219.301,253.989 L 208.504,251.871" style="fill:none;fill-rule:evenodd;stroke:#000000;stroke-width:2.0px;stroke-linecap:butt;stroke-linejoin:miter;stroke-opacity:1"/>
<path class="bond-6 atom-2 atom-4" d="M 250.438,268.031 L 255.597,283.098" style="fill:none;fill-rule:evenodd;stroke:#0000FF;stroke-width:2.0px;stroke-linecap:butt;stroke-linejoin:miter;stroke-opacity:1"/>
<path class="bond-6 atom-2 atom-4" d="M 255.597,283.098 L 260.755,298.165" style="fill:none;fill-rule:evenodd;stroke:#000000;stroke-width:2.0px;stroke-linecap:butt;stroke-linejoin:miter;stroke-opacity:1"/>
<path class="bond-10 atom-5 atom-3" d="M 173.853,278.925 L 191.909,258.228" style="fill:none;fill-rule:evenodd;stroke:#000000;stroke-width:2.0px;stroke-linecap:butt;stroke-linejoin:miter;stroke-opacity:1"/>
<path class="bond-10 atom-5 atom-3" d="M 169.12,269.328 L 181.759,254.84" style="fill:none;fill-rule:evenodd;stroke:#000000;stroke-width:2.0px;stroke-linecap:butt;stroke-linejoin:miter;stroke-opacity:1"/>
<path class="bond-19 atom-9 atom-3" d="M 185.973,211.765 L 196.357,242.096" style="fill:none;fill-rule:evenodd;stroke:#000000;stroke-width:2.0px;stroke-linecap:butt;stroke-linejoin:miter;stroke-opacity:1"/>
<path class="bond-7 atom-4 atom-14" d="M 256.895,308.515 L 222.593,320.259" style="fill:none;fill-rule:evenodd;stroke:#000000;stroke-width:2.0px;stroke-linecap:butt;stroke-linejoin:miter;stroke-opacity:1"/>
<path class="bond-8 atom-4 atom-15" d="M 283.741,301.987 L 296.706,299.255" style="fill:none;fill-rule:evenodd;stroke:#000000;stroke-width:2.0px;stroke-linecap:butt;stroke-linejoin:miter;stroke-opacity:1"/>
<path class="bond-9 atom-4 atom-16" d="M 266.426,314.73 L 276.79,345.002" style="fill:none;fill-rule:evenodd;stroke:#000000;stroke-width:2.0px;stroke-linecap:butt;stroke-linejoin:miter;stroke-opacity:1"/>
<path class="bond-11 atom-5 atom-17" d="M 169.505,295.695 L 179.889,326.026" style="fill:none;fill-rule:evenodd;stroke:#000000;stroke-width:2.0px;stroke-linecap:butt;stroke-linejoin:miter;stroke-opacity:1"/>
<path class="bond-15 atom-7 atom-5" d="M 127.931,279.642 L 148.861,283.749" style="fill:none;fill-rule:evenodd;stroke:#000000;stroke-width:2.0px;stroke-linecap:butt;stroke-linejoin:miter;stroke-opacity:1"/>
<path class="bond-12 atom-6 atom-7" d="M 105,239.31 L 115.805,270.873" style="fill:none;fill-rule:evenodd;stroke:#000000;stroke-width:2.0px;stroke-linecap:butt;stroke-linejoin:miter;stroke-opacity:1"/>
<path class="bond-12 atom-6 atom-7" d="M 115.964,240.845 L 123.528,262.94" style="fill:none;fill-rule:evenodd;stroke:#000000;stroke-width:2.0px;stroke-linecap:butt;stroke-linejoin:miter;stroke-opacity:1"/>
<path class="bond-13 atom-6 atom-8" d="M 109.264,222.856 L 127.453,202.006" style="fill:none;fill-rule:evenodd;stroke:#000000;stroke-width:2.0px;stroke-linecap:butt;stroke-linejoin:miter;stroke-opacity:1"/>
<path class="bond-14 atom-6 atom-27" d="M 84.662,227.571 L 59.426,222.62" style="fill:none;fill-rule:evenodd;stroke:#000000;stroke-width:2.0px;stroke-linecap:butt;stroke-linejoin:miter;stroke-opacity:1"/>
<path class="bond-16 atom-7 atom-18" d="M 110.749,286.207 L 91.4901,308.283" style="fill:none;fill-rule:evenodd;stroke:#000000;stroke-width:2.0px;stroke-linecap:butt;stroke-linejoin:miter;stroke-opacity:1"/>
<path class="bond-17 atom-8 atom-9" d="M 144.204,195.674 L 160.34,198.84" style="fill:none;fill-rule:evenodd;stroke:#000000;stroke-width:2.0px;stroke-linecap:butt;stroke-linejoin:miter;stroke-opacity:1"/>
<path class="bond-17 atom-8 atom-9" d="M 144.722,205.84 L 156.018,208.056" style="fill:none;fill-rule:evenodd;stroke:#000000;stroke-width:2.0px;stroke-linecap:butt;stroke-linejoin:miter;stroke-opacity:1"/>
<path class="bond-18 atom-8 atom-19" d="M 132.036,186.249 L 121.4,155.18" style="fill:none;fill-rule:evenodd;stroke:#000000;stroke-width:2.0px;stroke-linecap:butt;stroke-linejoin:miter;stroke-opacity:1"/>
<path class="bond-20 atom-9 atom-20" d="M 190.322,194.995 L 209.108,173.461" style="fill:none;fill-rule:evenodd;stroke:#000000;stroke-width:2.0px;stroke-linecap:butt;stroke-linejoin:miter;stroke-opacity:1"/>
<path class="bond-22 atom-11 atom-21" d="M 384.15,233.027 L 393.255,222.589" style="fill:none;fill-rule:evenodd;stroke:#0000FF;stroke-width:2.0px;stroke-linecap:butt;stroke-linejoin:miter;stroke-opacity:1"/>
<path class="bond-22 atom-11 atom-21" d="M 393.255,222.589 L 402.361,212.152" style="fill:none;fill-rule:evenodd;stroke:#000000;stroke-width:2.0px;stroke-linecap:butt;stroke-linejoin:miter;stroke-opacity:1"/>
<path class="bond-23 atom-11 atom-22" d="M 379.747,249.638 L 384.939,264.802" style="fill:none;fill-rule:evenodd;stroke:#0000FF;stroke-width:2.0px;stroke-linecap:butt;stroke-linejoin:miter;stroke-opacity:1"/>
<path class="bond-23 atom-11 atom-22" d="M 384.939,264.802 L 390.13,279.965" style="fill:none;fill-rule:evenodd;stroke:#000000;stroke-width:2.0px;stroke-linecap:butt;stroke-linejoin:miter;stroke-opacity:1"/>
<path class="bond-24 atom-21 atom-23" d="M 418.887,212.427 L 440.187,231.009" style="fill:none;fill-rule:evenodd;stroke:#000000;stroke-width:2.0px;stroke-linecap:butt;stroke-linejoin:miter;stroke-opacity:1"/>
<path class="bond-25 atom-21 atom-24" d="M 401.416,197.186 L 377.857,176.633" style="fill:none;fill-rule:evenodd;stroke:#000000;stroke-width:2.0px;stroke-linecap:butt;stroke-linejoin:miter;stroke-opacity:1"/>
<path class="bond-26 atom-21 atom-28" d="M 416.612,195.816 L 435.399,174.281" style="fill:none;fill-rule:evenodd;stroke:#000000;stroke-width:2.0px;stroke-linecap:butt;stroke-linejoin:miter;stroke-opacity:1"/>
<path class="bond-27 atom-22 atom-25" d="M 407.117,283.183 L 433.287,274.224" style="fill:none;fill-rule:evenodd;stroke:#000000;stroke-width:2.0px;stroke-linecap:butt;stroke-linejoin:miter;stroke-opacity:1"/>
<path class="bond-28 atom-22 atom-26" d="M 369.766,295.971 L 351.444,302.243" style="fill:none;fill-rule:evenodd;stroke:#000000;stroke-width:2.0px;stroke-linecap:butt;stroke-linejoin:miter;stroke-opacity:1"/>
<path class="bond-29 atom-22 atom-29" d="M 395.809,296.555 L 406.18,326.847" style="fill:none;fill-rule:evenodd;stroke:#000000;stroke-width:2.0px;stroke-linecap:butt;stroke-linejoin:miter;stroke-opacity:1"/>
<path class="atom-0" d="M 308.922 231.884 Q 308.922 228.407, 310.541 226.59 Q 312.181 224.753, 315.282 224.753 Q 318.166 224.753, 319.706 226.788 L 318.403 227.854 Q 317.277 226.373, 315.282 226.373 Q 313.168 226.373, 312.042 227.795 Q 310.936 229.197, 310.936 231.884 Q 310.936 234.649, 312.082 236.071 Q 313.247 237.493, 315.499 237.493 Q 317.04 237.493, 318.837 236.565 L 319.39 238.047 Q 318.659 238.521, 317.553 238.797 Q 316.447 239.074, 315.223 239.074 Q 312.181 239.074, 310.541 237.217 Q 308.922 235.36, 308.922 231.884 " fill="#000000"/>
<path class="atom-0" d="M 321.188 236.585 L 323.163 236.585 L 323.163 238.56 L 321.188 238.56 L 321.188 236.585 M 321.188 229.79 L 323.163 229.79 L 323.163 231.765 L 321.188 231.765 L 321.188 229.79 " fill="#000000"/>
<path class="atom-0" d="M 325 237.316 L 328.062 237.316 L 328.062 226.867 L 324.684 227.914 L 324.23 226.748 L 328.516 224.832 L 329.918 225.069 L 329.918 237.316 L 332.664 237.316 L 332.664 238.896 L 325 238.896 L 325 237.316 " fill="#000000"/>
<path class="atom-1" d="M 263.462 222.376 Q 263.462 218.899, 265.082 217.082 Q 266.721 215.245, 269.822 215.245 Q 272.706 215.245, 274.247 217.28 L 272.943 218.346 Q 271.817 216.865, 269.822 216.865 Q 267.709 216.865, 266.583 218.287 Q 265.477 219.69, 265.477 222.376 Q 265.477 225.141, 266.622 226.563 Q 267.788 227.986, 270.039 227.986 Q 271.58 227.986, 273.378 227.057 L 273.931 228.539 Q 273.2 229.013, 272.094 229.289 Q 270.988 229.566, 269.763 229.566 Q 266.721 229.566, 265.082 227.709 Q 263.462 225.852, 263.462 222.376 " fill="#000000"/>
<path class="atom-1" d="M 275.728 227.077 L 277.703 227.077 L 277.703 229.052 L 275.728 229.052 L 275.728 227.077 M 275.728 220.282 L 277.703 220.282 L 277.703 222.257 L 275.728 222.257 L 275.728 220.282 " fill="#000000"/>
<path class="atom-1" d="M 278.731 218.05 Q 279.244 216.727, 280.469 215.996 Q 281.693 215.245, 283.392 215.245 Q 285.506 215.245, 286.691 216.391 Q 287.876 217.537, 287.876 219.571 Q 287.876 221.645, 286.335 223.581 Q 284.814 225.517, 281.654 227.808 L 288.113 227.808 L 288.113 229.388 L 278.691 229.388 L 278.691 228.065 Q 281.298 226.208, 282.839 224.825 Q 284.399 223.443, 285.15 222.198 Q 285.901 220.954, 285.901 219.67 Q 285.901 218.327, 285.229 217.576 Q 284.558 216.825, 283.392 216.825 Q 282.266 216.825, 281.516 217.28 Q 280.765 217.734, 280.232 218.741 L 278.731 218.05 " fill="#000000"/>
<path class="atom-2" d="M 233.544 252.614 L 238.127 260.021 Q 238.581 260.752, 239.312 262.076 Q 240.043 263.399, 240.082 263.478 L 240.082 252.614 L 241.939 252.614 L 241.939 266.599 L 240.023 266.599 L 235.105 258.501 Q 234.532 257.552, 233.919 256.466 Q 233.327 255.38, 233.149 255.044 L 233.149 266.599 L 231.332 266.599 L 231.332 252.614 L 233.544 252.614 " fill="#0000FF"/>
<path class="atom-2" d="M 243.42 264.288 L 245.396 264.288 L 245.396 266.263 L 243.42 266.263 L 243.42 264.288 M 243.42 257.493 L 245.396 257.493 L 245.396 259.468 L 243.42 259.468 L 243.42 257.493 " fill="#0000FF"/>
<path class="atom-2" d="M 252.941 259.231 Q 254.304 259.626, 254.956 260.515 Q 255.627 261.384, 255.627 262.767 Q 255.627 263.952, 255.035 264.881 Q 254.442 265.789, 253.356 266.303 Q 252.269 266.797, 250.847 266.797 Q 249.346 266.797, 248.22 266.283 Q 247.114 265.75, 246.225 264.683 L 247.351 263.537 Q 248.22 264.486, 248.951 264.861 Q 249.682 265.216, 250.847 265.216 Q 252.111 265.216, 252.882 264.545 Q 253.652 263.853, 253.652 262.747 Q 253.652 261.325, 252.842 260.693 Q 252.052 260.041, 250.334 260.041 L 249.326 260.041 L 249.326 258.619 L 250.215 258.619 Q 251.736 258.599, 252.546 257.947 Q 253.356 257.276, 253.356 256.032 Q 253.356 255.123, 252.684 254.59 Q 252.013 254.037, 250.867 254.037 Q 249.702 254.037, 248.971 254.451 Q 248.26 254.866, 247.707 255.913 L 246.344 255.182 Q 246.837 254.017, 248.023 253.246 Q 249.208 252.456, 250.867 252.456 Q 252.921 252.456, 254.126 253.424 Q 255.331 254.392, 255.331 256.032 Q 255.331 257.157, 254.719 257.967 Q 254.106 258.777, 252.941 259.231 " fill="#0000FF"/>
<path class="atom-3" d="M 182.114 250.079 Q 182.114 246.603, 183.734 244.785 Q 185.373 242.948, 188.475 242.948 Q 191.358 242.948, 192.899 244.983 L 191.595 246.05 Q 190.47 244.568, 188.475 244.568 Q 186.361 244.568, 185.235 245.99 Q 184.129 247.393, 184.129 250.079 Q 184.129 252.844, 185.275 254.267 Q 186.44 255.689, 188.692 255.689 Q 190.233 255.689, 192.03 254.76 L 192.583 256.242 Q 191.852 256.716, 190.746 256.992 Q 189.64 257.269, 188.415 257.269 Q 185.373 257.269, 183.734 255.412 Q 182.114 253.555, 182.114 250.079 " fill="#000000"/>
<path class="atom-3" d="M 194.381 254.78 L 196.356 254.78 L 196.356 256.755 L 194.381 256.755 L 194.381 254.78 M 194.381 247.985 L 196.356 247.985 L 196.356 249.96 L 194.381 249.96 L 194.381 247.985 " fill="#000000"/>
<path class="atom-3" d="M 206.034 252.291 L 207.713 252.291 L 207.713 253.871 L 206.034 253.871 L 206.034 257.091 L 204.178 257.091 L 204.178 253.871 L 196.948 253.871 L 196.948 252.627 L 203.072 243.106 L 206.034 243.106 L 206.034 252.291 M 199.24 252.291 L 204.178 252.291 L 204.178 244.371 L 199.24 252.291 " fill="#000000"/>
<path class="atom-4" d="M 258.129 306.306 Q 258.129 302.829, 259.749 301.012 Q 261.388 299.175, 264.489 299.175 Q 267.373 299.175, 268.914 301.21 L 267.61 302.276 Q 266.484 300.795, 264.489 300.795 Q 262.376 300.795, 261.25 302.217 Q 260.144 303.62, 260.144 306.306 Q 260.144 309.071, 261.29 310.493 Q 262.455 311.916, 264.707 311.916 Q 266.247 311.916, 268.045 310.987 L 268.598 312.469 Q 267.867 312.943, 266.761 313.219 Q 265.655 313.496, 264.43 313.496 Q 261.388 313.496, 259.749 311.639 Q 258.129 309.782, 258.129 306.306 " fill="#000000"/>
<path class="atom-4" d="M 270.395 311.007 L 272.371 311.007 L 272.371 312.982 L 270.395 312.982 L 270.395 311.007 M 270.395 304.212 L 272.371 304.212 L 272.371 306.187 L 270.395 306.187 L 270.395 304.212 " fill="#000000"/>
<path class="atom-4" d="M 278.356 304.568 Q 279.58 304.568, 280.588 305.101 Q 281.595 305.615, 282.168 306.602 Q 282.741 307.57, 282.741 308.893 Q 282.741 310.335, 282.03 311.382 Q 281.338 312.409, 280.193 312.943 Q 279.047 313.476, 277.743 313.476 Q 276.459 313.476, 275.274 313.002 Q 274.089 312.528, 273.279 311.619 L 274.464 310.395 Q 275.116 311.106, 276.005 311.501 Q 276.894 311.876, 277.803 311.876 Q 279.047 311.876, 279.896 311.106 Q 280.765 310.335, 280.765 308.933 Q 280.765 307.452, 279.896 306.76 Q 279.047 306.049, 277.684 306.049 Q 276.459 306.049, 275.096 306.582 L 274.01 306.069 L 274.682 299.333 L 281.872 299.333 L 281.674 300.914 L 276.301 300.914 L 275.887 305.062 Q 277.131 304.568, 278.356 304.568 " fill="#000000"/>
<path class="atom-5" d="M 149.846 287.29 Q 149.846 283.814, 151.466 281.996 Q 153.105 280.159, 156.206 280.159 Q 159.09 280.159, 160.631 282.194 L 159.327 283.261 Q 158.201 281.779, 156.206 281.779 Q 154.093 281.779, 152.967 283.201 Q 151.861 284.604, 151.861 287.29 Q 151.861 290.055, 153.006 291.478 Q 154.172 292.9, 156.423 292.9 Q 157.964 292.9, 159.762 291.971 L 160.315 293.453 Q 159.584 293.927, 158.478 294.203 Q 157.372 294.48, 156.147 294.48 Q 153.105 294.48, 151.466 292.623 Q 149.846 290.766, 149.846 287.29 " fill="#000000"/>
<path class="atom-5" d="M 162.112 291.991 L 164.087 291.991 L 164.087 293.966 L 162.112 293.966 L 162.112 291.991 M 162.112 285.196 L 164.087 285.196 L 164.087 287.172 L 162.112 287.172 L 162.112 285.196 " fill="#000000"/>
<path class="atom-5" d="M 170.902 285.572 Q 172.127 285.572, 173.095 286.105 Q 174.062 286.638, 174.596 287.606 Q 175.129 288.574, 175.129 289.799 Q 175.129 291.162, 174.517 292.228 Q 173.924 293.275, 172.857 293.868 Q 171.791 294.46, 170.428 294.46 Q 167.939 294.46, 166.675 292.781 Q 165.431 291.083, 165.431 287.725 Q 165.431 284.011, 166.971 282.095 Q 168.532 280.159, 171.514 280.159 Q 172.383 280.159, 173.114 280.357 Q 173.865 280.554, 174.576 280.969 L 173.806 282.293 Q 172.778 281.74, 171.534 281.74 Q 169.559 281.74, 168.551 283.024 Q 167.544 284.288, 167.426 286.915 Q 168.137 286.263, 169.026 285.927 Q 169.934 285.572, 170.902 285.572 M 170.448 292.84 Q 171.198 292.84, 171.811 292.445 Q 172.443 292.05, 172.798 291.359 Q 173.154 290.668, 173.154 289.818 Q 173.154 288.574, 172.462 287.863 Q 171.771 287.152, 170.546 287.152 Q 169.697 287.152, 168.848 287.507 Q 168.018 287.843, 167.426 288.436 Q 167.505 290.747, 168.235 291.794 Q 168.966 292.84, 170.448 292.84 " fill="#000000"/>
<path class="atom-6" d="M 85.8965 231.063 Q 85.8965 227.587, 87.5162 225.77 Q 89.1557 223.933, 92.2568 223.933 Q 95.1407 223.933, 96.6814 225.967 L 95.3777 227.034 Q 94.2518 225.552, 92.2568 225.552 Q 90.1433 225.552, 89.0174 226.974 Q 87.9113 228.377, 87.9113 231.063 Q 87.9113 233.828, 89.0569 235.251 Q 90.2223 236.673, 92.4741 236.673 Q 94.0148 236.673, 95.8123 235.744 L 96.3653 237.226 Q 95.6345 237.7, 94.5283 237.976 Q 93.4222 238.253, 92.1976 238.253 Q 89.1557 238.253, 87.5162 236.396 Q 85.8965 234.54, 85.8965 231.063 " fill="#000000"/>
<path class="atom-6" d="M 98.1628 235.764 L 100.138 235.764 L 100.138 237.739 L 98.1628 237.739 L 98.1628 235.764 M 98.1628 228.969 L 100.138 228.969 L 100.138 230.945 L 98.1628 230.945 L 98.1628 228.969 " fill="#000000"/>
<path class="atom-6" d="M 107.822 225.671 L 100.494 225.671 L 100.494 224.091 L 109.777 224.091 L 109.777 225.493 L 104.128 238.075 L 102.232 238.075 L 107.822 225.671 " fill="#000000"/>
<path class="atom-7" d="M 101.354 277.782 Q 101.354 274.306, 102.974 272.488 Q 104.613 270.652, 107.715 270.652 Q 110.598 270.652, 112.139 272.686 L 110.836 273.753 Q 109.71 272.271, 107.715 272.271 Q 105.601 272.271, 104.475 273.693 Q 103.369 275.096, 103.369 277.782 Q 103.369 280.547, 104.515 281.97 Q 105.68 283.392, 107.932 283.392 Q 109.473 283.392, 111.27 282.463 L 111.823 283.945 Q 111.092 284.419, 109.986 284.695 Q 108.88 284.972, 107.655 284.972 Q 104.613 284.972, 102.974 283.115 Q 101.354 281.259, 101.354 277.782 " fill="#000000"/>
<path class="atom-7" d="M 113.621 282.483 L 115.596 282.483 L 115.596 284.458 L 113.621 284.458 L 113.621 282.483 M 113.621 275.688 L 115.596 275.688 L 115.596 277.664 L 113.621 277.664 L 113.621 275.688 " fill="#000000"/>
<path class="atom-7" d="M 123.951 277.387 Q 125.235 277.94, 125.966 278.77 Q 126.697 279.58, 126.697 280.962 Q 126.697 282.147, 126.084 283.076 Q 125.472 283.984, 124.366 284.498 Q 123.28 284.992, 121.838 284.992 Q 119.507 284.992, 118.164 283.925 Q 116.82 282.839, 116.82 280.962 Q 116.82 279.817, 117.413 278.967 Q 118.006 278.098, 119.23 277.446 Q 118.322 276.933, 117.828 276.182 Q 117.334 275.412, 117.334 274.227 Q 117.334 272.587, 118.519 271.619 Q 119.724 270.652, 121.759 270.652 Q 123.793 270.652, 124.978 271.619 Q 126.183 272.587, 126.183 274.227 Q 126.183 275.254, 125.61 276.024 Q 125.057 276.775, 123.951 277.387 M 121.759 272.133 Q 120.593 272.133, 119.941 272.686 Q 119.309 273.239, 119.309 274.227 Q 119.309 274.958, 119.744 275.451 Q 120.178 275.925, 120.791 276.202 Q 121.423 276.478, 122.628 276.893 Q 123.477 276.301, 123.833 275.669 Q 124.208 275.037, 124.208 274.227 Q 124.208 273.239, 123.556 272.686 Q 122.924 272.133, 121.759 272.133 M 121.838 283.51 Q 123.141 283.51, 123.931 282.819 Q 124.721 282.108, 124.721 280.943 Q 124.721 280.192, 124.307 279.718 Q 123.892 279.244, 123.26 278.967 Q 122.647 278.691, 121.541 278.335 L 120.652 278.039 Q 119.665 278.631, 119.23 279.343 Q 118.796 280.034, 118.796 280.943 Q 118.796 282.108, 119.625 282.819 Q 120.455 283.51, 121.838 283.51 " fill="#000000"/>
<path class="atom-8" d="M 117.943 193.852 Q 117.943 190.376, 119.562 188.558 Q 121.202 186.721, 124.303 186.721 Q 127.187 186.721, 128.728 188.756 L 127.424 189.823 Q 126.298 188.341, 124.303 188.341 Q 122.189 188.341, 121.064 189.763 Q 119.957 191.166, 119.957 193.852 Q 119.957 196.617, 121.103 198.04 Q 122.268 199.462, 124.52 199.462 Q 126.061 199.462, 127.858 198.533 L 128.411 200.015 Q 127.681 200.489, 126.575 200.765 Q 125.468 201.042, 124.244 201.042 Q 121.202 201.042, 119.562 199.185 Q 117.943 197.329, 117.943 193.852 " fill="#000000"/>
<path class="atom-8" d="M 130.209 198.553 L 132.184 198.553 L 132.184 200.528 L 130.209 200.528 L 130.209 198.553 M 130.209 191.758 L 132.184 191.758 L 132.184 193.734 L 130.209 193.734 L 130.209 191.758 " fill="#000000"/>
<path class="atom-8" d="M 137.972 186.721 Q 140.46 186.721, 141.705 188.42 Q 142.969 190.099, 142.969 193.457 Q 142.969 197.171, 141.409 199.106 Q 139.868 201.022, 136.885 201.022 Q 136.016 201.022, 135.266 200.825 Q 134.535 200.627, 133.824 200.212 L 134.594 198.889 Q 135.621 199.442, 136.866 199.442 Q 138.841 199.442, 139.848 198.178 Q 140.856 196.894, 140.974 194.267 Q 140.263 194.919, 139.354 195.274 Q 138.465 195.61, 137.498 195.61 Q 136.273 195.61, 135.305 195.077 Q 134.337 194.543, 133.804 193.576 Q 133.271 192.608, 133.271 191.383 Q 133.271 190.02, 133.863 188.973 Q 134.475 187.907, 135.542 187.314 Q 136.609 186.721, 137.972 186.721 M 135.246 191.363 Q 135.246 192.608, 135.937 193.319 Q 136.628 194.03, 137.853 194.03 Q 138.702 194.03, 139.532 193.694 Q 140.381 193.339, 140.974 192.746 Q 140.895 190.435, 140.164 189.388 Q 139.433 188.341, 137.952 188.341 Q 137.201 188.341, 136.569 188.736 Q 135.957 189.131, 135.601 189.823 Q 135.246 190.514, 135.246 191.363 " fill="#000000"/>
<path class="atom-9" d="M 161.331 203.36 Q 161.331 199.884, 162.95 198.066 Q 164.59 196.229, 167.691 196.229 Q 170.575 196.229, 172.116 198.264 L 170.812 199.331 Q 169.686 197.849, 167.691 197.849 Q 165.578 197.849, 164.452 199.271 Q 163.346 200.674, 163.346 203.36 Q 163.346 206.125, 164.491 207.548 Q 165.657 208.97, 167.908 208.97 Q 169.449 208.97, 171.246 208.041 L 171.8 209.523 Q 171.069 209.997, 169.963 210.273 Q 168.856 210.55, 167.632 210.55 Q 164.59 210.55, 162.95 208.693 Q 161.331 206.836, 161.331 203.36 " fill="#000000"/>
<path class="atom-9" d="M 173.597 208.061 L 175.572 208.061 L 175.572 210.036 L 173.597 210.036 L 173.597 208.061 M 173.597 201.266 L 175.572 201.266 L 175.572 203.242 L 173.597 203.242 L 173.597 201.266 " fill="#000000"/>
<path class="atom-9" d="M 177.409 208.792 L 180.471 208.792 L 180.471 198.343 L 177.093 199.39 L 176.639 198.224 L 180.925 196.308 L 182.328 196.545 L 182.328 208.792 L 185.073 208.792 L 185.073 210.372 L 177.409 210.372 L 177.409 208.792 " fill="#000000"/>
<path class="atom-9" d="M 191.394 210.53 Q 188.826 210.53, 187.542 208.634 Q 186.278 206.738, 186.278 203.36 Q 186.278 199.982, 187.542 198.106 Q 188.806 196.229, 191.394 196.229 Q 193.982 196.229, 195.246 198.106 Q 196.51 199.982, 196.51 203.36 Q 196.51 206.738, 195.226 208.634 Q 193.962 210.53, 191.394 210.53 M 191.394 208.95 Q 192.915 208.95, 193.725 207.548 Q 194.535 206.125, 194.535 203.36 Q 194.535 200.614, 193.725 199.212 Q 192.915 197.81, 191.394 197.81 Q 189.893 197.81, 189.063 199.212 Q 188.253 200.614, 188.253 203.36 Q 188.253 206.125, 189.063 207.548 Q 189.893 208.95, 191.394 208.95 " fill="#000000"/>
<path class="atom-10" d="M 257.576 175.637 Q 257.576 172.279, 259.235 170.403 Q 260.894 168.526, 263.995 168.526 Q 267.096 168.526, 268.756 170.403 Q 270.415 172.279, 270.415 175.637 Q 270.415 179.035, 268.736 180.97 Q 267.057 182.886, 263.995 182.886 Q 260.914 182.886, 259.235 180.97 Q 257.576 179.054, 257.576 175.637 M 263.995 181.306 Q 266.129 181.306, 267.274 179.884 Q 268.44 178.442, 268.44 175.637 Q 268.44 172.892, 267.274 171.509 Q 266.129 170.106, 263.995 170.106 Q 261.862 170.106, 260.697 171.489 Q 259.551 172.872, 259.551 175.637 Q 259.551 178.462, 260.697 179.884 Q 261.862 181.306, 263.995 181.306 " fill="#FF0000"/>
<path class="atom-10" d="M 271.896 180.358 L 273.872 180.358 L 273.872 182.333 L 271.896 182.333 L 271.896 180.358 M 271.896 173.563 L 273.872 173.563 L 273.872 175.538 L 271.896 175.538 L 271.896 173.563 " fill="#FF0000"/>
<path class="atom-10" d="M 275.709 181.089 L 278.77 181.089 L 278.77 170.64 L 275.392 171.687 L 274.938 170.521 L 279.224 168.605 L 280.627 168.842 L 280.627 181.089 L 283.372 181.089 L 283.372 182.669 L 275.709 182.669 L 275.709 181.089 " fill="#FF0000"/>
<path class="atom-10" d="M 285.209 181.089 L 288.271 181.089 L 288.271 170.64 L 284.893 171.687 L 284.439 170.521 L 288.725 168.605 L 290.128 168.842 L 290.128 181.089 L 292.873 181.089 L 292.873 182.669 L 285.209 182.669 L 285.209 181.089 " fill="#FF0000"/>
<path class="atom-11" d="M 358.048 234.419 L 362.63 241.826 Q 363.085 242.557, 363.815 243.881 Q 364.546 245.204, 364.586 245.283 L 364.586 234.419 L 366.442 234.419 L 366.442 248.404 L 364.526 248.404 L 359.608 240.305 Q 359.035 239.357, 358.423 238.271 Q 357.83 237.184, 357.653 236.849 L 357.653 248.404 L 355.835 248.404 L 355.835 234.419 L 358.048 234.419 " fill="#0000FF"/>
<path class="atom-11" d="M 367.924 246.093 L 369.899 246.093 L 369.899 248.068 L 367.924 248.068 L 367.924 246.093 M 367.924 239.298 L 369.899 239.298 L 369.899 241.273 L 367.924 241.273 L 367.924 239.298 " fill="#0000FF"/>
<path class="atom-11" d="M 371.736 246.824 L 374.798 246.824 L 374.798 236.375 L 371.42 237.422 L 370.966 236.256 L 375.252 234.34 L 376.654 234.577 L 376.654 246.824 L 379.4 246.824 L 379.4 248.404 L 371.736 248.404 L 371.736 246.824 " fill="#0000FF"/>
<path class="atom-11" d="M 380.427 237.066 Q 380.941 235.743, 382.165 235.012 Q 383.39 234.261, 385.089 234.261 Q 387.202 234.261, 388.387 235.407 Q 389.573 236.552, 389.573 238.587 Q 389.573 240.661, 388.032 242.597 Q 386.511 244.532, 383.351 246.824 L 389.81 246.824 L 389.81 248.404 L 380.388 248.404 L 380.388 247.08 Q 382.995 245.224, 384.536 243.841 Q 386.096 242.458, 386.847 241.214 Q 387.597 239.97, 387.597 238.686 Q 387.597 237.342, 386.926 236.592 Q 386.254 235.841, 385.089 235.841 Q 383.963 235.841, 383.212 236.296 Q 382.462 236.75, 381.928 237.757 L 380.427 237.066 " fill="#0000FF"/>
<path class="atom-12" d="M 332.483 176.454 L 334.38 176.454 L 334.38 182.4 L 341.53 182.4 L 341.53 176.454 L 343.426 176.454 L 343.426 190.439 L 341.53 190.439 L 341.53 183.98 L 334.38 183.98 L 334.38 190.439 L 332.483 190.439 L 332.483 176.454 " fill="#000000"/>
<path class="atom-12" d="M 344.908 188.128 L 346.883 188.128 L 346.883 190.103 L 344.908 190.103 L 344.908 188.128 M 344.908 181.333 L 346.883 181.333 L 346.883 183.308 L 344.908 183.308 L 344.908 181.333 " fill="#000000"/>
<path class="atom-12" d="M 348.72 188.859 L 351.781 188.859 L 351.781 178.41 L 348.404 179.457 L 347.949 178.291 L 352.236 176.375 L 353.638 176.612 L 353.638 188.859 L 356.384 188.859 L 356.384 190.439 L 348.72 190.439 L 348.72 188.859 " fill="#000000"/>
<path class="atom-12" d="M 363.929 183.071 Q 365.292 183.466, 365.944 184.355 Q 366.615 185.224, 366.615 186.607 Q 366.615 187.792, 366.023 188.72 Q 365.43 189.629, 364.344 190.143 Q 363.258 190.636, 361.835 190.636 Q 360.334 190.636, 359.208 190.123 Q 358.102 189.59, 357.213 188.523 L 358.339 187.377 Q 359.208 188.325, 359.939 188.701 Q 360.67 189.056, 361.835 189.056 Q 363.1 189.056, 363.87 188.385 Q 364.64 187.693, 364.64 186.587 Q 364.64 185.165, 363.83 184.533 Q 363.04 183.881, 361.322 183.881 L 360.314 183.881 L 360.314 182.459 L 361.203 182.459 Q 362.724 182.439, 363.534 181.787 Q 364.344 181.116, 364.344 179.871 Q 364.344 178.963, 363.672 178.429 Q 363.001 177.876, 361.855 177.876 Q 360.69 177.876, 359.959 178.291 Q 359.248 178.706, 358.695 179.753 L 357.332 179.022 Q 357.826 177.857, 359.011 177.086 Q 360.196 176.296, 361.855 176.296 Q 363.909 176.296, 365.114 177.264 Q 366.319 178.232, 366.319 179.871 Q 366.319 180.997, 365.707 181.807 Q 365.095 182.617, 363.929 183.071 " fill="#000000"/>
<path class="atom-13" d="M 320.116 264.768 L 322.012 264.768 L 322.012 270.713 L 329.162 270.713 L 329.162 264.768 L 331.059 264.768 L 331.059 278.753 L 329.162 278.753 L 329.162 272.294 L 322.012 272.294 L 322.012 278.753 L 320.116 278.753 L 320.116 264.768 " fill="#000000"/>
<path class="atom-13" d="M 332.54 276.442 L 334.515 276.442 L 334.515 278.417 L 332.54 278.417 L 332.54 276.442 M 332.54 269.647 L 334.515 269.647 L 334.515 271.622 L 332.54 271.622 L 332.54 269.647 " fill="#000000"/>
<path class="atom-13" d="M 336.352 277.172 L 339.414 277.172 L 339.414 266.723 L 336.036 267.77 L 335.582 266.605 L 339.868 264.689 L 341.271 264.926 L 341.271 277.172 L 344.016 277.172 L 344.016 278.753 L 336.352 278.753 L 336.352 277.172 " fill="#000000"/>
<path class="atom-13" d="M 353.695 273.953 L 355.374 273.953 L 355.374 275.533 L 353.695 275.533 L 353.695 278.753 L 351.838 278.753 L 351.838 275.533 L 344.609 275.533 L 344.609 274.289 L 350.732 264.768 L 353.695 264.768 L 353.695 273.953 M 346.9 273.953 L 351.838 273.953 L 351.838 266.032 L 346.9 273.953 " fill="#000000"/>
<path class="atom-14" d="M 187.263 315.288 L 189.159 315.288 L 189.159 321.234 L 196.309 321.234 L 196.309 315.288 L 198.206 315.288 L 198.206 329.273 L 196.309 329.273 L 196.309 322.814 L 189.159 322.814 L 189.159 329.273 L 187.263 329.273 L 187.263 315.288 " fill="#000000"/>
<path class="atom-14" d="M 199.687 326.962 L 201.662 326.962 L 201.662 328.937 L 199.687 328.937 L 199.687 326.962 M 199.687 320.167 L 201.662 320.167 L 201.662 322.142 L 199.687 322.142 L 199.687 320.167 " fill="#000000"/>
<path class="atom-14" d="M 203.499 327.693 L 206.561 327.693 L 206.561 317.244 L 203.183 318.291 L 202.729 317.125 L 207.015 315.209 L 208.418 315.446 L 208.418 327.693 L 211.163 327.693 L 211.163 329.273 L 203.499 329.273 L 203.499 327.693 " fill="#000000"/>
<path class="atom-14" d="M 217.148 320.523 Q 218.373 320.523, 219.38 321.056 Q 220.388 321.569, 220.96 322.557 Q 221.533 323.525, 221.533 324.848 Q 221.533 326.29, 220.822 327.337 Q 220.131 328.364, 218.985 328.898 Q 217.84 329.431, 216.536 329.431 Q 215.252 329.431, 214.067 328.957 Q 212.882 328.483, 212.072 327.574 L 213.257 326.35 Q 213.909 327.061, 214.798 327.456 Q 215.687 327.831, 216.595 327.831 Q 217.84 327.831, 218.689 327.061 Q 219.558 326.29, 219.558 324.888 Q 219.558 323.406, 218.689 322.715 Q 217.84 322.004, 216.477 322.004 Q 215.252 322.004, 213.889 322.537 L 212.803 322.024 L 213.474 315.288 L 220.664 315.288 L 220.467 316.868 L 215.094 316.868 L 214.679 321.016 Q 215.924 320.523, 217.148 320.523 " fill="#000000"/>
<path class="atom-15" d="M 297.19 291.087 L 299.086 291.087 L 299.086 297.033 L 306.236 297.033 L 306.236 291.087 L 308.132 291.087 L 308.132 305.072 L 306.236 305.072 L 306.236 298.613 L 299.086 298.613 L 299.086 305.072 L 297.19 305.072 L 297.19 291.087 " fill="#000000"/>
<path class="atom-15" d="M 309.614 302.761 L 311.589 302.761 L 311.589 304.736 L 309.614 304.736 L 309.614 302.761 M 309.614 295.966 L 311.589 295.966 L 311.589 297.941 L 309.614 297.941 L 309.614 295.966 " fill="#000000"/>
<path class="atom-15" d="M 313.426 303.492 L 316.488 303.492 L 316.488 293.043 L 313.11 294.09 L 312.656 292.924 L 316.942 291.008 L 318.344 291.245 L 318.344 303.492 L 321.09 303.492 L 321.09 305.072 L 313.426 305.072 L 313.426 303.492 " fill="#000000"/>
<path class="atom-15" d="M 327.905 296.341 Q 329.129 296.341, 330.097 296.875 Q 331.065 297.408, 331.598 298.376 Q 332.132 299.344, 332.132 300.568 Q 332.132 301.931, 331.519 302.998 Q 330.927 304.045, 329.86 304.637 Q 328.793 305.23, 327.43 305.23 Q 324.942 305.23, 323.678 303.551 Q 322.433 301.852, 322.433 298.494 Q 322.433 294.781, 323.974 292.865 Q 325.534 290.929, 328.517 290.929 Q 329.386 290.929, 330.117 291.127 Q 330.867 291.324, 331.578 291.739 L 330.808 293.063 Q 329.781 292.509, 328.537 292.509 Q 326.561 292.509, 325.554 293.793 Q 324.547 295.058, 324.428 297.685 Q 325.139 297.033, 326.028 296.697 Q 326.937 296.341, 327.905 296.341 M 327.45 303.61 Q 328.201 303.61, 328.813 303.215 Q 329.445 302.82, 329.801 302.129 Q 330.156 301.438, 330.156 300.588 Q 330.156 299.344, 329.465 298.633 Q 328.774 297.922, 327.549 297.922 Q 326.7 297.922, 325.85 298.277 Q 325.021 298.613, 324.428 299.206 Q 324.507 301.517, 325.238 302.563 Q 325.969 303.61, 327.45 303.61 " fill="#000000"/>
<path class="atom-16" d="M 274.045 346.013 L 275.941 346.013 L 275.941 351.958 L 283.091 351.958 L 283.091 346.013 L 284.987 346.013 L 284.987 359.997 L 283.091 359.997 L 283.091 353.538 L 275.941 353.538 L 275.941 359.997 L 274.045 359.997 L 274.045 346.013 " fill="#000000"/>
<path class="atom-16" d="M 286.469 357.686 L 288.444 357.686 L 288.444 359.662 L 286.469 359.662 L 286.469 357.686 M 286.469 350.892 L 288.444 350.892 L 288.444 352.867 L 286.469 352.867 L 286.469 350.892 " fill="#000000"/>
<path class="atom-16" d="M 290.281 358.417 L 293.343 358.417 L 293.343 347.968 L 289.965 349.015 L 289.511 347.85 L 293.797 345.934 L 295.199 346.171 L 295.199 358.417 L 297.945 358.417 L 297.945 359.997 L 290.281 359.997 L 290.281 358.417 " fill="#000000"/>
<path class="atom-16" d="M 305.629 347.593 L 298.3 347.593 L 298.3 346.013 L 307.584 346.013 L 307.584 347.415 L 301.935 359.997 L 300.039 359.997 L 305.629 347.593 " fill="#000000"/>
<path class="atom-17" d="M 177.13 327.036 L 179.027 327.036 L 179.027 332.982 L 186.177 332.982 L 186.177 327.036 L 188.073 327.036 L 188.073 341.021 L 186.177 341.021 L 186.177 334.562 L 179.027 334.562 L 179.027 341.021 L 177.13 341.021 L 177.13 327.036 " fill="#000000"/>
<path class="atom-17" d="M 189.555 338.71 L 191.53 338.71 L 191.53 340.685 L 189.555 340.685 L 189.555 338.71 M 189.555 331.915 L 191.53 331.915 L 191.53 333.891 L 189.555 333.891 L 189.555 331.915 " fill="#000000"/>
<path class="atom-17" d="M 193.367 339.441 L 196.429 339.441 L 196.429 328.992 L 193.051 330.039 L 192.597 328.873 L 196.883 326.957 L 198.285 327.194 L 198.285 339.441 L 201.031 339.441 L 201.031 341.021 L 193.367 341.021 L 193.367 339.441 " fill="#000000"/>
<path class="atom-17" d="M 209.386 333.614 Q 210.67 334.167, 211.401 334.997 Q 212.132 335.807, 212.132 337.189 Q 212.132 338.374, 211.519 339.303 Q 210.907 340.211, 209.801 340.725 Q 208.715 341.219, 207.273 341.219 Q 204.942 341.219, 203.599 340.152 Q 202.256 339.066, 202.256 337.189 Q 202.256 336.044, 202.848 335.194 Q 203.441 334.325, 204.665 333.673 Q 203.757 333.16, 203.263 332.409 Q 202.769 331.639, 202.769 330.454 Q 202.769 328.814, 203.954 327.846 Q 205.159 326.878, 207.194 326.878 Q 209.228 326.878, 210.413 327.846 Q 211.618 328.814, 211.618 330.454 Q 211.618 331.481, 211.045 332.251 Q 210.492 333.002, 209.386 333.614 M 207.194 328.36 Q 206.028 328.36, 205.376 328.913 Q 204.744 329.466, 204.744 330.454 Q 204.744 331.184, 205.179 331.678 Q 205.613 332.152, 206.226 332.429 Q 206.858 332.705, 208.063 333.12 Q 208.912 332.528, 209.268 331.896 Q 209.643 331.263, 209.643 330.454 Q 209.643 329.466, 208.991 328.913 Q 208.359 328.36, 207.194 328.36 M 207.273 339.737 Q 208.576 339.737, 209.366 339.046 Q 210.157 338.335, 210.157 337.169 Q 210.157 336.419, 209.742 335.945 Q 209.327 335.471, 208.695 335.194 Q 208.083 334.918, 206.976 334.562 L 206.088 334.266 Q 205.1 334.858, 204.665 335.569 Q 204.231 336.261, 204.231 337.169 Q 204.231 338.335, 205.06 339.046 Q 205.89 339.737, 207.273 339.737 " fill="#000000"/>
<path class="atom-18" d="M 55.8518 308.021 L 57.7481 308.021 L 57.7481 313.966 L 64.8984 313.966 L 64.8984 308.021 L 66.7947 308.021 L 66.7947 322.005 L 64.8984 322.005 L 64.8984 315.546 L 57.7481 315.546 L 57.7481 322.005 L 55.8518 322.005 L 55.8518 308.021 " fill="#000000"/>
<path class="atom-18" d="M 68.2761 319.694 L 70.2514 319.694 L 70.2514 321.669 L 68.2761 321.669 L 68.2761 319.694 M 68.2761 312.899 L 70.2514 312.899 L 70.2514 314.875 L 68.2761 314.875 L 68.2761 312.899 " fill="#000000"/>
<path class="atom-18" d="M 72.0883 320.425 L 75.1499 320.425 L 75.1499 309.976 L 71.7723 311.023 L 71.318 309.858 L 75.6043 307.942 L 77.0067 308.179 L 77.0067 320.425 L 79.7523 320.425 L 79.7523 322.005 L 72.0883 322.005 L 72.0883 320.425 " fill="#000000"/>
<path class="atom-18" d="M 85.5397 307.863 Q 88.0285 307.863, 89.2729 309.561 Q 90.5371 311.24, 90.5371 314.598 Q 90.5371 318.312, 88.9766 320.247 Q 87.4359 322.163, 84.4533 322.163 Q 83.5842 322.163, 82.8336 321.966 Q 82.1028 321.768, 81.3917 321.353 L 82.162 320.03 Q 83.1892 320.583, 84.4336 320.583 Q 86.4088 320.583, 87.4162 319.319 Q 88.4236 318.035, 88.5421 315.408 Q 87.831 316.06, 86.9224 316.415 Q 86.0335 316.751, 85.0657 316.751 Q 83.841 316.751, 82.8731 316.218 Q 81.9053 315.685, 81.372 314.717 Q 80.8386 313.749, 80.8386 312.524 Q 80.8386 311.161, 81.4312 310.114 Q 82.0435 309.048, 83.1102 308.455 Q 84.1768 307.863, 85.5397 307.863 M 82.8139 312.504 Q 82.8139 313.749, 83.5052 314.46 Q 84.1965 315.171, 85.4212 315.171 Q 86.2705 315.171, 87.1002 314.835 Q 87.9495 314.48, 88.5421 313.887 Q 88.4631 311.576, 87.7322 310.529 Q 87.0014 309.482, 85.52 309.482 Q 84.7694 309.482, 84.1373 309.877 Q 83.525 310.272, 83.1694 310.964 Q 82.8139 311.655, 82.8139 312.504 " fill="#000000"/>
<path class="atom-19" d="M 113.153 140.161 L 115.049 140.161 L 115.049 146.106 L 122.199 146.106 L 122.199 140.161 L 124.096 140.161 L 124.096 154.145 L 122.199 154.145 L 122.199 147.686 L 115.049 147.686 L 115.049 154.145 L 113.153 154.145 L 113.153 140.161 " fill="#000000"/>
<path class="atom-19" d="M 125.577 151.834 L 127.552 151.834 L 127.552 153.809 L 125.577 153.809 L 125.577 151.834 M 125.577 145.039 L 127.552 145.039 L 127.552 147.015 L 125.577 147.015 L 125.577 145.039 " fill="#000000"/>
<path class="atom-19" d="M 128.579 142.807 Q 129.093 141.484, 130.318 140.753 Q 131.542 140.003, 133.241 140.003 Q 135.355 140.003, 136.54 141.148 Q 137.725 142.294, 137.725 144.328 Q 137.725 146.402, 136.184 148.338 Q 134.663 150.274, 131.503 152.565 L 137.962 152.565 L 137.962 154.145 L 128.54 154.145 L 128.54 152.822 Q 131.147 150.965, 132.688 149.582 Q 134.248 148.2, 134.999 146.955 Q 135.75 145.711, 135.75 144.427 Q 135.75 143.084, 135.078 142.333 Q 134.406 141.583, 133.241 141.583 Q 132.115 141.583, 131.365 142.037 Q 130.614 142.491, 130.081 143.499 L 128.579 142.807 " fill="#000000"/>
<path class="atom-19" d="M 144.283 154.303 Q 141.715 154.303, 140.431 152.407 Q 139.167 150.511, 139.167 147.133 Q 139.167 143.755, 140.431 141.879 Q 141.695 140.003, 144.283 140.003 Q 146.87 140.003, 148.134 141.879 Q 149.399 143.755, 149.399 147.133 Q 149.399 150.511, 148.115 152.407 Q 146.85 154.303, 144.283 154.303 M 144.283 152.723 Q 145.804 152.723, 146.613 151.321 Q 147.423 149.898, 147.423 147.133 Q 147.423 144.388, 146.613 142.985 Q 145.804 141.583, 144.283 141.583 Q 142.781 141.583, 141.952 142.985 Q 141.142 144.388, 141.142 147.133 Q 141.142 149.898, 141.952 151.321 Q 142.781 152.723, 144.283 152.723 " fill="#000000"/>
<path class="atom-20" d="M 210.067 159.176 L 211.963 159.176 L 211.963 165.122 L 219.114 165.122 L 219.114 159.176 L 221.01 159.176 L 221.01 173.161 L 219.114 173.161 L 219.114 166.702 L 211.963 166.702 L 211.963 173.161 L 210.067 173.161 L 210.067 159.176 " fill="#000000"/>
<path class="atom-20" d="M 222.491 170.85 L 224.466 170.85 L 224.466 172.825 L 222.491 172.825 L 222.491 170.85 M 222.491 164.055 L 224.466 164.055 L 224.466 166.03 L 222.491 166.03 L 222.491 164.055 " fill="#000000"/>
<path class="atom-20" d="M 225.494 161.823 Q 226.007 160.5, 227.232 159.769 Q 228.456 159.018, 230.155 159.018 Q 232.269 159.018, 233.454 160.164 Q 234.639 161.31, 234.639 163.344 Q 234.639 165.418, 233.098 167.354 Q 231.577 169.29, 228.417 171.581 L 234.876 171.581 L 234.876 173.161 L 225.454 173.161 L 225.454 171.838 Q 228.061 169.981, 229.602 168.598 Q 231.162 167.216, 231.913 165.971 Q 232.664 164.727, 232.664 163.443 Q 232.664 162.1, 231.992 161.349 Q 231.321 160.599, 230.155 160.599 Q 229.029 160.599, 228.279 161.053 Q 227.528 161.507, 226.995 162.515 L 225.494 161.823 " fill="#000000"/>
<path class="atom-20" d="M 236.713 171.581 L 239.775 171.581 L 239.775 161.132 L 236.397 162.179 L 235.943 161.013 L 240.229 159.097 L 241.631 159.334 L 241.631 171.581 L 244.377 171.581 L 244.377 173.161 L 236.713 173.161 L 236.713 171.581 " fill="#000000"/>
<path class="atom-21" d="M 387.422 204.181 Q 387.422 200.704, 389.041 198.887 Q 390.681 197.05, 393.782 197.05 Q 396.666 197.05, 398.206 199.085 L 396.903 200.151 Q 395.777 198.67, 393.782 198.67 Q 391.668 198.67, 390.542 200.092 Q 389.436 201.494, 389.436 204.181 Q 389.436 206.946, 390.582 208.368 Q 391.747 209.79, 393.999 209.79 Q 395.54 209.79, 397.337 208.862 L 397.89 210.343 Q 397.159 210.817, 396.053 211.094 Q 394.947 211.371, 393.723 211.371 Q 390.681 211.371, 389.041 209.514 Q 387.422 207.657, 387.422 204.181 " fill="#000000"/>
<path class="atom-21" d="M 399.688 208.882 L 401.663 208.882 L 401.663 210.857 L 399.688 210.857 L 399.688 208.882 M 399.688 202.087 L 401.663 202.087 L 401.663 204.062 L 399.688 204.062 L 399.688 202.087 " fill="#000000"/>
<path class="atom-21" d="M 402.69 199.855 Q 403.204 198.532, 404.428 197.801 Q 405.653 197.05, 407.352 197.05 Q 409.465 197.05, 410.65 198.196 Q 411.835 199.341, 411.835 201.376 Q 411.835 203.45, 410.295 205.386 Q 408.774 207.321, 405.613 209.613 L 412.073 209.613 L 412.073 211.193 L 402.651 211.193 L 402.651 209.869 Q 405.258 208.013, 406.799 206.63 Q 408.359 205.247, 409.11 204.003 Q 409.86 202.759, 409.86 201.475 Q 409.86 200.131, 409.189 199.381 Q 408.517 198.63, 407.352 198.63 Q 406.226 198.63, 405.475 199.085 Q 404.725 199.539, 404.191 200.546 L 402.69 199.855 " fill="#000000"/>
<path class="atom-21" d="M 413.1 199.855 Q 413.613 198.532, 414.838 197.801 Q 416.063 197.05, 417.761 197.05 Q 419.875 197.05, 421.06 198.196 Q 422.245 199.341, 422.245 201.376 Q 422.245 203.45, 420.704 205.386 Q 419.183 207.321, 416.023 209.613 L 422.482 209.613 L 422.482 211.193 L 413.06 211.193 L 413.06 209.869 Q 415.667 208.013, 417.208 206.63 Q 418.769 205.247, 419.519 204.003 Q 420.27 202.759, 420.27 201.475 Q 420.27 200.131, 419.598 199.381 Q 418.927 198.63, 417.761 198.63 Q 416.635 198.63, 415.885 199.085 Q 415.134 199.539, 414.601 200.546 L 413.1 199.855 " fill="#000000"/>
<path class="atom-22" d="M 371 288.111 Q 371 284.634, 372.62 282.817 Q 374.259 280.98, 377.36 280.98 Q 380.244 280.98, 381.785 283.015 L 380.481 284.081 Q 379.355 282.6, 377.36 282.6 Q 375.247 282.6, 374.121 284.022 Q 373.015 285.424, 373.015 288.111 Q 373.015 290.876, 374.161 292.298 Q 375.326 293.72, 377.578 293.72 Q 379.118 293.72, 380.916 292.792 L 381.469 294.273 Q 380.738 294.748, 379.632 295.024 Q 378.526 295.301, 377.301 295.301 Q 374.259 295.301, 372.62 293.444 Q 371 291.587, 371 288.111 " fill="#000000"/>
<path class="atom-22" d="M 383.266 292.812 L 385.242 292.812 L 385.242 294.787 L 383.266 294.787 L 383.266 292.812 M 383.266 286.017 L 385.242 286.017 L 385.242 287.992 L 383.266 287.992 L 383.266 286.017 " fill="#000000"/>
<path class="atom-22" d="M 386.269 283.785 Q 386.782 282.462, 388.007 281.731 Q 389.232 280.98, 390.93 280.98 Q 393.044 280.98, 394.229 282.126 Q 395.414 283.271, 395.414 285.306 Q 395.414 287.38, 393.874 289.316 Q 392.353 291.251, 389.192 293.543 L 395.651 293.543 L 395.651 295.123 L 386.229 295.123 L 386.229 293.799 Q 388.837 291.943, 390.377 290.56 Q 391.938 289.177, 392.688 287.933 Q 393.439 286.689, 393.439 285.405 Q 393.439 284.061, 392.767 283.311 Q 392.096 282.56, 390.93 282.56 Q 389.805 282.56, 389.054 283.015 Q 388.303 283.469, 387.77 284.476 L 386.269 283.785 " fill="#000000"/>
<path class="atom-22" d="M 403.197 287.755 Q 404.56 288.15, 405.211 289.039 Q 405.883 289.908, 405.883 291.291 Q 405.883 292.476, 405.29 293.404 Q 404.698 294.313, 403.611 294.827 Q 402.525 295.32, 401.103 295.32 Q 399.602 295.32, 398.476 294.807 Q 397.37 294.273, 396.481 293.207 L 397.607 292.061 Q 398.476 293.009, 399.207 293.385 Q 399.937 293.74, 401.103 293.74 Q 402.367 293.74, 403.137 293.069 Q 403.908 292.377, 403.908 291.271 Q 403.908 289.849, 403.098 289.217 Q 402.308 288.565, 400.589 288.565 L 399.582 288.565 L 399.582 287.143 L 400.471 287.143 Q 401.992 287.123, 402.802 286.471 Q 403.611 285.8, 403.611 284.555 Q 403.611 283.647, 402.94 283.113 Q 402.268 282.56, 401.123 282.56 Q 399.957 282.56, 399.226 282.975 Q 398.515 283.39, 397.962 284.437 L 396.599 283.706 Q 397.093 282.541, 398.278 281.77 Q 399.463 280.98, 401.123 280.98 Q 403.177 280.98, 404.382 281.948 Q 405.587 282.916, 405.587 284.555 Q 405.587 285.681, 404.974 286.491 Q 404.362 287.301, 403.197 287.755 " fill="#000000"/>
<path class="atom-23" d="M 441.106 229.671 L 443.002 229.671 L 443.002 235.616 L 450.153 235.616 L 450.153 229.671 L 452.049 229.671 L 452.049 243.655 L 450.153 243.655 L 450.153 237.196 L 443.002 237.196 L 443.002 243.655 L 441.106 243.655 L 441.106 229.671 " fill="#000000"/>
<path class="atom-23" d="M 453.53 241.344 L 455.506 241.344 L 455.506 243.32 L 453.53 243.32 L 453.53 241.344 M 453.53 234.55 L 455.506 234.55 L 455.506 236.525 L 453.53 236.525 L 453.53 234.55 " fill="#000000"/>
<path class="atom-23" d="M 456.533 232.318 Q 457.046 230.994, 458.271 230.263 Q 459.496 229.513, 461.194 229.513 Q 463.308 229.513, 464.493 230.658 Q 465.678 231.804, 465.678 233.838 Q 465.678 235.912, 464.137 237.848 Q 462.616 239.784, 459.456 242.075 L 465.915 242.075 L 465.915 243.655 L 456.493 243.655 L 456.493 242.332 Q 459.101 240.475, 460.641 239.093 Q 462.202 237.71, 462.952 236.466 Q 463.703 235.221, 463.703 233.937 Q 463.703 232.594, 463.031 231.843 Q 462.36 231.093, 461.194 231.093 Q 460.068 231.093, 459.318 231.547 Q 458.567 232.001, 458.034 233.009 L 456.533 232.318 " fill="#000000"/>
<path class="atom-23" d="M 475.594 238.856 L 477.273 238.856 L 477.273 240.436 L 475.594 240.436 L 475.594 243.655 L 473.737 243.655 L 473.737 240.436 L 466.508 240.436 L 466.508 239.191 L 472.631 229.671 L 475.594 229.671 L 475.594 238.856 M 468.799 238.856 L 473.737 238.856 L 473.737 230.935 L 468.799 238.856 " fill="#000000"/>
<path class="atom-24" d="M 341.707 164.745 L 343.603 164.745 L 343.603 170.691 L 350.754 170.691 L 350.754 164.745 L 352.65 164.745 L 352.65 178.73 L 350.754 178.73 L 350.754 172.271 L 343.603 172.271 L 343.603 178.73 L 341.707 178.73 L 341.707 164.745 " fill="#000000"/>
<path class="atom-24" d="M 354.131 176.419 L 356.107 176.419 L 356.107 178.394 L 354.131 178.394 L 354.131 176.419 M 354.131 169.624 L 356.107 169.624 L 356.107 171.6 L 354.131 171.6 L 354.131 169.624 " fill="#000000"/>
<path class="atom-24" d="M 357.134 167.392 Q 357.647 166.069, 358.872 165.338 Q 360.097 164.587, 361.795 164.587 Q 363.909 164.587, 365.094 165.733 Q 366.279 166.879, 366.279 168.913 Q 366.279 170.987, 364.738 172.923 Q 363.217 174.859, 360.057 177.15 L 366.516 177.15 L 366.516 178.73 L 357.094 178.73 L 357.094 177.407 Q 359.701 175.55, 361.242 174.167 Q 362.803 172.785, 363.553 171.54 Q 364.304 170.296, 364.304 169.012 Q 364.304 167.669, 363.632 166.918 Q 362.961 166.168, 361.795 166.168 Q 360.669 166.168, 359.919 166.622 Q 359.168 167.076, 358.635 168.084 L 357.134 167.392 " fill="#000000"/>
<path class="atom-24" d="M 372.501 169.98 Q 373.726 169.98, 374.733 170.513 Q 375.74 171.027, 376.313 172.014 Q 376.886 172.982, 376.886 174.306 Q 376.886 175.748, 376.175 176.794 Q 375.484 177.822, 374.338 178.355 Q 373.192 178.888, 371.889 178.888 Q 370.605 178.888, 369.42 178.414 Q 368.235 177.94, 367.425 177.031 L 368.61 175.807 Q 369.262 176.518, 370.151 176.913 Q 371.039 177.288, 371.948 177.288 Q 373.192 177.288, 374.042 176.518 Q 374.911 175.748, 374.911 174.345 Q 374.911 172.864, 374.042 172.172 Q 373.192 171.461, 371.829 171.461 Q 370.605 171.461, 369.242 171.995 L 368.156 171.481 L 368.827 164.745 L 376.017 164.745 L 375.819 166.326 L 370.447 166.326 L 370.032 170.474 Q 371.276 169.98, 372.501 169.98 " fill="#000000"/>
<path class="atom-25" d="M 434.146 265.144 L 436.042 265.144 L 436.042 271.089 L 443.192 271.089 L 443.192 265.144 L 445.089 265.144 L 445.089 279.128 L 443.192 279.128 L 443.192 272.669 L 436.042 272.669 L 436.042 279.128 L 434.146 279.128 L 434.146 265.144 " fill="#000000"/>
<path class="atom-25" d="M 446.57 276.817 L 448.545 276.817 L 448.545 278.793 L 446.57 278.793 L 446.57 276.817 M 446.57 270.023 L 448.545 270.023 L 448.545 271.998 L 446.57 271.998 L 446.57 270.023 " fill="#000000"/>
<path class="atom-25" d="M 449.572 267.791 Q 450.086 266.467, 451.311 265.736 Q 452.535 264.986, 454.234 264.986 Q 456.347 264.986, 457.533 266.131 Q 458.718 267.277, 458.718 269.311 Q 458.718 271.385, 457.177 273.321 Q 455.656 275.257, 452.496 277.548 L 458.955 277.548 L 458.955 279.128 L 449.533 279.128 L 449.533 277.805 Q 452.14 275.948, 453.681 274.566 Q 455.241 273.183, 455.992 271.939 Q 456.743 270.694, 456.743 269.41 Q 456.743 268.067, 456.071 267.316 Q 455.399 266.566, 454.234 266.566 Q 453.108 266.566, 452.358 267.02 Q 451.607 267.475, 451.074 268.482 L 449.572 267.791 " fill="#000000"/>
<path class="atom-25" d="M 465.769 270.398 Q 466.994 270.398, 467.962 270.931 Q 468.93 271.464, 469.463 272.432 Q 469.996 273.4, 469.996 274.625 Q 469.996 275.988, 469.384 277.054 Q 468.792 278.101, 467.725 278.694 Q 466.658 279.286, 465.295 279.286 Q 462.807 279.286, 461.542 277.607 Q 460.298 275.909, 460.298 272.551 Q 460.298 268.837, 461.839 266.921 Q 463.399 264.986, 466.382 264.986 Q 467.251 264.986, 467.982 265.183 Q 468.732 265.381, 469.443 265.796 L 468.673 267.119 Q 467.646 266.566, 466.401 266.566 Q 464.426 266.566, 463.419 267.85 Q 462.411 269.114, 462.293 271.741 Q 463.004 271.089, 463.893 270.753 Q 464.802 270.398, 465.769 270.398 M 465.315 277.667 Q 466.066 277.667, 466.678 277.272 Q 467.31 276.877, 467.666 276.185 Q 468.021 275.494, 468.021 274.645 Q 468.021 273.4, 467.33 272.689 Q 466.638 271.978, 465.414 271.978 Q 464.564 271.978, 463.715 272.334 Q 462.886 272.669, 462.293 273.262 Q 462.372 275.573, 463.103 276.62 Q 463.834 277.667, 465.315 277.667 " fill="#000000"/>
<path class="atom-26" d="M 316.373 297.133 L 318.269 297.133 L 318.269 303.078 L 325.419 303.078 L 325.419 297.133 L 327.316 297.133 L 327.316 311.117 L 325.419 311.117 L 325.419 304.658 L 318.269 304.658 L 318.269 311.117 L 316.373 311.117 L 316.373 297.133 " fill="#000000"/>
<path class="atom-26" d="M 328.797 308.806 L 330.772 308.806 L 330.772 310.781 L 328.797 310.781 L 328.797 308.806 M 328.797 302.011 L 330.772 302.011 L 330.772 303.987 L 328.797 303.987 L 328.797 302.011 " fill="#000000"/>
<path class="atom-26" d="M 331.799 299.779 Q 332.313 298.456, 333.538 297.725 Q 334.762 296.975, 336.461 296.975 Q 338.575 296.975, 339.76 298.12 Q 340.945 299.266, 340.945 301.3 Q 340.945 303.374, 339.404 305.31 Q 337.883 307.246, 334.723 309.537 L 341.182 309.537 L 341.182 311.117 L 331.76 311.117 L 331.76 309.794 Q 334.367 307.937, 335.908 306.554 Q 337.468 305.172, 338.219 303.927 Q 338.97 302.683, 338.97 301.399 Q 338.97 300.056, 338.298 299.305 Q 337.626 298.555, 336.461 298.555 Q 335.335 298.555, 334.585 299.009 Q 333.834 299.463, 333.301 300.471 L 331.799 299.779 " fill="#000000"/>
<path class="atom-26" d="M 348.866 298.713 L 341.537 298.713 L 341.537 297.133 L 350.821 297.133 L 350.821 298.535 L 345.172 311.117 L 343.276 311.117 L 348.866 298.713 " fill="#000000"/>
<path class="atom-27" d="M 22.7273 214.583 L 24.6235 214.583 L 24.6235 220.528 L 31.7739 220.528 L 31.7739 214.583 L 33.6701 214.583 L 33.6701 228.567 L 31.7739 228.567 L 31.7739 222.108 L 24.6235 222.108 L 24.6235 228.567 L 22.7273 228.567 L 22.7273 214.583 " fill="#000000"/>
<path class="atom-27" d="M 35.1515 226.256 L 37.1268 226.256 L 37.1268 228.232 L 35.1515 228.232 L 35.1515 226.256 M 35.1515 219.461 L 37.1268 219.461 L 37.1268 221.437 L 35.1515 221.437 L 35.1515 219.461 " fill="#000000"/>
<path class="atom-27" d="M 38.1539 217.229 Q 38.6675 215.906, 39.8921 215.175 Q 41.1168 214.425, 42.8155 214.425 Q 44.929 214.425, 46.1141 215.57 Q 47.2993 216.716, 47.2993 218.75 Q 47.2993 220.824, 45.7586 222.76 Q 44.2376 224.696, 41.0773 226.987 L 47.5363 226.987 L 47.5363 228.567 L 38.1144 228.567 L 38.1144 227.244 Q 40.7217 225.387, 42.2624 224.005 Q 43.8228 222.622, 44.5734 221.377 Q 45.324 220.133, 45.324 218.849 Q 45.324 217.506, 44.6524 216.755 Q 43.9809 216.005, 42.8155 216.005 Q 41.6896 216.005, 40.939 216.459 Q 40.1884 216.913, 39.6551 217.921 L 38.1539 217.229 " fill="#000000"/>
<path class="atom-27" d="M 55.8916 221.16 Q 57.1755 221.713, 57.9063 222.543 Q 58.6371 223.353, 58.6371 224.735 Q 58.6371 225.921, 58.0248 226.849 Q 57.4125 227.757, 56.3064 228.271 Q 55.22 228.765, 53.7781 228.765 Q 51.4473 228.765, 50.1041 227.698 Q 48.7609 226.612, 48.7609 224.735 Q 48.7609 223.59, 49.3535 222.74 Q 49.9461 221.871, 51.1707 221.219 Q 50.2621 220.706, 49.7683 219.955 Q 49.2745 219.185, 49.2745 218 Q 49.2745 216.36, 50.4596 215.392 Q 51.6645 214.425, 53.699 214.425 Q 55.7335 214.425, 56.9187 215.392 Q 58.1236 216.36, 58.1236 218 Q 58.1236 219.027, 57.5508 219.797 Q 56.9977 220.548, 55.8916 221.16 M 53.699 215.906 Q 52.5337 215.906, 51.8818 216.459 Q 51.2497 217.012, 51.2497 218 Q 51.2497 218.731, 51.6843 219.224 Q 52.1188 219.698, 52.7312 219.975 Q 53.3633 220.252, 54.5681 220.666 Q 55.4175 220.074, 55.773 219.442 Q 56.1483 218.81, 56.1483 218 Q 56.1483 217.012, 55.4965 216.459 Q 54.8644 215.906, 53.699 215.906 M 53.7781 227.283 Q 55.0817 227.283, 55.8718 226.592 Q 56.6619 225.881, 56.6619 224.716 Q 56.6619 223.965, 56.2471 223.491 Q 55.8323 223.017, 55.2002 222.74 Q 54.5879 222.464, 53.4818 222.108 L 52.5929 221.812 Q 51.6053 222.405, 51.1707 223.116 Q 50.7362 223.807, 50.7362 224.716 Q 50.7362 225.881, 51.5658 226.592 Q 52.3954 227.283, 53.7781 227.283 " fill="#000000"/>
<path class="atom-28" d="M 436.358 159.997 L 438.254 159.997 L 438.254 165.943 L 445.404 165.943 L 445.404 159.997 L 447.3 159.997 L 447.3 173.982 L 445.404 173.982 L 445.404 167.523 L 438.254 167.523 L 438.254 173.982 L 436.358 173.982 L 436.358 159.997 " fill="#000000"/>
<path class="atom-28" d="M 448.782 171.671 L 450.757 171.671 L 450.757 173.646 L 448.782 173.646 L 448.782 171.671 M 448.782 164.876 L 450.757 164.876 L 450.757 166.851 L 448.782 166.851 L 448.782 164.876 " fill="#000000"/>
<path class="atom-28" d="M 451.784 162.644 Q 452.298 161.32, 453.522 160.59 Q 454.747 159.839, 456.446 159.839 Q 458.559 159.839, 459.744 160.985 Q 460.93 162.13, 460.93 164.165 Q 460.93 166.239, 459.389 168.175 Q 457.868 170.11, 454.708 172.402 L 461.167 172.402 L 461.167 173.982 L 451.745 173.982 L 451.745 172.658 Q 454.352 170.802, 455.893 169.419 Q 457.453 168.036, 458.204 166.792 Q 458.954 165.547, 458.954 164.264 Q 458.954 162.92, 458.283 162.17 Q 457.611 161.419, 456.446 161.419 Q 455.32 161.419, 454.569 161.874 Q 453.819 162.328, 453.285 163.335 L 451.784 162.644 " fill="#000000"/>
<path class="atom-28" d="M 466.954 159.839 Q 469.443 159.839, 470.687 161.538 Q 471.951 163.217, 471.951 166.575 Q 471.951 170.288, 470.391 172.224 Q 468.85 174.14, 465.868 174.14 Q 464.999 174.14, 464.248 173.942 Q 463.517 173.745, 462.806 173.33 L 463.576 172.007 Q 464.604 172.56, 465.848 172.56 Q 467.823 172.56, 468.831 171.295 Q 469.838 170.012, 469.956 167.384 Q 469.245 168.036, 468.337 168.392 Q 467.448 168.728, 466.48 168.728 Q 465.255 168.728, 464.288 168.194 Q 463.32 167.661, 462.786 166.693 Q 462.253 165.725, 462.253 164.501 Q 462.253 163.138, 462.846 162.091 Q 463.458 161.024, 464.525 160.432 Q 465.591 159.839, 466.954 159.839 M 464.228 164.481 Q 464.228 165.725, 464.92 166.436 Q 465.611 167.147, 466.836 167.147 Q 467.685 167.147, 468.515 166.812 Q 469.364 166.456, 469.956 165.864 Q 469.877 163.552, 469.147 162.506 Q 468.416 161.459, 466.934 161.459 Q 466.184 161.459, 465.552 161.854 Q 464.939 162.249, 464.584 162.94 Q 464.228 163.631, 464.228 164.481 " fill="#000000"/>
<path class="atom-29" d="M 403.421 327.857 L 405.317 327.857 L 405.317 333.803 L 412.468 333.803 L 412.468 327.857 L 414.364 327.857 L 414.364 341.842 L 412.468 341.842 L 412.468 335.383 L 405.317 335.383 L 405.317 341.842 L 403.421 341.842 L 403.421 327.857 " fill="#000000"/>
<path class="atom-29" d="M 415.845 339.531 L 417.821 339.531 L 417.821 341.506 L 415.845 341.506 L 415.845 339.531 M 415.845 332.736 L 417.821 332.736 L 417.821 334.711 L 415.845 334.711 L 415.845 332.736 " fill="#000000"/>
<path class="atom-29" d="M 425.366 334.474 Q 426.729 334.869, 427.381 335.758 Q 428.052 336.627, 428.052 338.01 Q 428.052 339.195, 427.46 340.123 Q 426.867 341.032, 425.781 341.546 Q 424.695 342.039, 423.272 342.039 Q 421.771 342.039, 420.645 341.526 Q 419.539 340.992, 418.65 339.926 L 419.776 338.78 Q 420.645 339.728, 421.376 340.104 Q 422.107 340.459, 423.272 340.459 Q 424.537 340.459, 425.307 339.788 Q 426.077 339.096, 426.077 337.99 Q 426.077 336.568, 425.267 335.936 Q 424.477 335.284, 422.759 335.284 L 421.751 335.284 L 421.751 333.862 L 422.64 333.862 Q 424.161 333.842, 424.971 333.19 Q 425.781 332.519, 425.781 331.274 Q 425.781 330.366, 425.109 329.832 Q 424.438 329.279, 423.292 329.279 Q 422.127 329.279, 421.396 329.694 Q 420.685 330.109, 420.132 331.156 L 418.769 330.425 Q 419.263 329.26, 420.448 328.489 Q 421.633 327.699, 423.292 327.699 Q 425.346 327.699, 426.551 328.667 Q 427.756 329.635, 427.756 331.274 Q 427.756 332.4, 427.144 333.21 Q 426.532 334.02, 425.366 334.474 " fill="#000000"/>
<path class="atom-29" d="M 434.373 342 Q 431.805 342, 430.522 340.104 Q 429.257 338.207, 429.257 334.83 Q 429.257 331.452, 430.522 329.576 Q 431.786 327.699, 434.373 327.699 Q 436.961 327.699, 438.225 329.576 Q 439.489 331.452, 439.489 334.83 Q 439.489 338.207, 438.205 340.104 Q 436.941 342, 434.373 342 M 434.373 340.42 Q 435.894 340.42, 436.704 339.017 Q 437.514 337.595, 437.514 334.83 Q 437.514 332.084, 436.704 330.682 Q 435.894 329.279, 434.373 329.279 Q 432.872 329.279, 432.042 330.682 Q 431.233 332.084, 431.233 334.83 Q 431.233 337.595, 432.042 339.017 Q 432.872 340.42, 434.373 340.42 " fill="#000000"/>
<text x="263.75845707297196" y="240.92215448966016" font-size="12" font-family="Verdana" font-weight="bold" letter-spacing="0" text-anchor="start" fill="black" transform=" rotate(41.101181 263.758457 240.922154)">1.1115</text><text x="25" y="490" font-size="12" font-family="Verdana" font-weight="bold" letter-spacing="0" text-anchor="start" fill="black">[#6:1](-[#6:2](-[#7:3](-[#6:4]1:[#6:6](:[#6:8](:[#6:7](:[#6:9](:[#6:10]:1-[H:21])-[H:20])-[H:28])-[H:19])-[H:18])-[#6:5](-[H:15])(-[H:16])-[H:17])=[#8:11])(-[#7:12](-[#6:22](-[H:24])(-[H:25])-[H:29])-[#6:23](-[H:26])(-[H:27])-[H:30])(-[H:13])-[H:14]</text></svg>
