<?xml version='1.0' encoding='ASCII' standalone='yes'?>
<svg xmlns="http://www.w3.org/2000/svg" xmlns:rdkit="http://www.rdkit.org/xml" xmlns:xlink="http://www.w3.org/1999/xlink" version="1.1" baseProfile="full" xml:space="preserve" width="1200px" height="400px" viewBox="0 0 1200 400">
<!-- END OF HEADER -->
<rect style="opacity:1.0;fill:#FFFFFF;stroke:none" width="1200.0" height="400.0" x="0.0" y="0.0"> </rect>
<path class="bond-1 atom-1 atom-2" d="M 231.3,212.2 L 280.1,194.5" style="fill:none;fill-rule:evenodd;stroke:#FF7F7F;stroke-width:11.1px;stroke-linecap:butt;stroke-linejoin:miter;stroke-opacity:1"/>
<path class="bond-0 atom-1 atom-0" d="M 220.7,203.3 L 211.5,195.6" style="fill:none;fill-rule:evenodd;stroke:#0000FF;stroke-width:2.0px;stroke-linecap:butt;stroke-linejoin:miter;stroke-opacity:1"/>
<path class="bond-0 atom-1 atom-0" d="M 211.5,195.6 L 202.4,187.9" style="fill:none;fill-rule:evenodd;stroke:#000000;stroke-width:2.0px;stroke-linecap:butt;stroke-linejoin:miter;stroke-opacity:1"/>
<path class="bond-1 atom-1 atom-2" d="M 246.2,206.8 L 255.9,203.3" style="fill:none;fill-rule:evenodd;stroke:#0000FF;stroke-width:2.0px;stroke-linecap:butt;stroke-linejoin:miter;stroke-opacity:1"/>
<path class="bond-1 atom-1 atom-2" d="M 255.9,203.3 L 265.6,199.8" style="fill:none;fill-rule:evenodd;stroke:#000000;stroke-width:2.0px;stroke-linecap:butt;stroke-linejoin:miter;stroke-opacity:1"/>
<path class="bond-2 atom-1 atom-4" d="M 229.3,223.5 L 226.6,238.9" style="fill:none;fill-rule:evenodd;stroke:#0000FF;stroke-width:2.0px;stroke-linecap:butt;stroke-linejoin:miter;stroke-opacity:1"/>
<path class="bond-2 atom-1 atom-4" d="M 226.6,238.9 L 223.8,254.4" style="fill:none;fill-rule:evenodd;stroke:#000000;stroke-width:2.0px;stroke-linecap:butt;stroke-linejoin:miter;stroke-opacity:1"/>
<path class="bond-3 atom-2 atom-3" d="M 281.7,185.4 L 287.5,152.5" style="fill:none;fill-rule:evenodd;stroke:#000000;stroke-width:2.0px;stroke-linecap:butt;stroke-linejoin:miter;stroke-opacity:1"/>
<path class="bond-4 atom-2 atom-5" d="M 294.5,199.8 L 304.6,208.3" style="fill:none;fill-rule:evenodd;stroke:#000000;stroke-width:2.0px;stroke-linecap:butt;stroke-linejoin:miter;stroke-opacity:1"/>
<path class="bond-4 atom-2 atom-5" d="M 304.6,208.3 L 314.7,216.9" style="fill:none;fill-rule:evenodd;stroke:#FF0000;stroke-width:2.0px;stroke-linecap:butt;stroke-linejoin:miter;stroke-opacity:1"/>
<path class="bond-4 atom-2 atom-5" d="M 287.8,207.8 L 297.9,216.3" style="fill:none;fill-rule:evenodd;stroke:#000000;stroke-width:2.0px;stroke-linecap:butt;stroke-linejoin:miter;stroke-opacity:1"/>
<path class="bond-4 atom-2 atom-5" d="M 297.9,216.3 L 308.0,224.8" style="fill:none;fill-rule:evenodd;stroke:#FF0000;stroke-width:2.0px;stroke-linecap:butt;stroke-linejoin:miter;stroke-opacity:1"/>
<path class="bond-5 atom-3 atom-15" d="M 296.4,144.7 L 332.8,151.2" style="fill:none;fill-rule:evenodd;stroke:#000000;stroke-width:2.0px;stroke-linecap:butt;stroke-linejoin:miter;stroke-opacity:1"/>
<path class="bond-6 atom-3 atom-16" d="M 266.0,136.3 L 263.1,135.4" style="fill:none;fill-rule:evenodd;stroke:#000000;stroke-width:2.0px;stroke-linecap:butt;stroke-linejoin:miter;stroke-opacity:1"/>
<path class="bond-7 atom-4 atom-11" d="M 236.8,265.9 L 265.9,271.1" style="fill:none;fill-rule:evenodd;stroke:#000000;stroke-width:2.0px;stroke-linecap:butt;stroke-linejoin:miter;stroke-opacity:1"/>
<path class="bond-8 atom-4 atom-12" d="M 207.7,260.7 L 177.7,255.4" style="fill:none;fill-rule:evenodd;stroke:#000000;stroke-width:2.0px;stroke-linecap:butt;stroke-linejoin:miter;stroke-opacity:1"/>
<path class="bond-9 atom-4 atom-13" d="M 220.2,274.9 L 214.8,305.4" style="fill:none;fill-rule:evenodd;stroke:#000000;stroke-width:2.0px;stroke-linecap:butt;stroke-linejoin:miter;stroke-opacity:1"/>
<path class="bond-10 atom-6 atom-0" d="M 199.0,137.0 L 192.7,172.2" style="fill:none;fill-rule:evenodd;stroke:#000000;stroke-width:2.0px;stroke-linecap:butt;stroke-linejoin:miter;stroke-opacity:1"/>
<path class="bond-10 atom-6 atom-0" d="M 187.8,140.5 L 183.5,165.1" style="fill:none;fill-rule:evenodd;stroke:#000000;stroke-width:2.0px;stroke-linecap:butt;stroke-linejoin:miter;stroke-opacity:1"/>
<path class="bond-11 atom-6 atom-17" d="M 218.2,118.8 L 223.6,116.1" style="fill:none;fill-rule:evenodd;stroke:#000000;stroke-width:2.0px;stroke-linecap:butt;stroke-linejoin:miter;stroke-opacity:1"/>
<path class="bond-12 atom-7 atom-8" d="M 126.9,106.7 L 146.2,99.7" style="fill:none;fill-rule:evenodd;stroke:#000000;stroke-width:2.0px;stroke-linecap:butt;stroke-linejoin:miter;stroke-opacity:1"/>
<path class="bond-12 atom-7 atom-8" d="M 133.3,115.4 L 146.9,110.5" style="fill:none;fill-rule:evenodd;stroke:#000000;stroke-width:2.0px;stroke-linecap:butt;stroke-linejoin:miter;stroke-opacity:1"/>
<path class="bond-13 atom-7 atom-9" d="M 110.1,123.7 L 104.7,154.1" style="fill:none;fill-rule:evenodd;stroke:#000000;stroke-width:2.0px;stroke-linecap:butt;stroke-linejoin:miter;stroke-opacity:1"/>
<path class="bond-14 atom-7 atom-21" d="M 101.3,103.0 L 79.0,84.2" style="fill:none;fill-rule:evenodd;stroke:#000000;stroke-width:2.0px;stroke-linecap:butt;stroke-linejoin:miter;stroke-opacity:1"/>
<path class="bond-15 atom-8 atom-6" d="M 171.9,103.6 L 193.3,121.6" style="fill:none;fill-rule:evenodd;stroke:#000000;stroke-width:2.0px;stroke-linecap:butt;stroke-linejoin:miter;stroke-opacity:1"/>
<path class="bond-16 atom-8 atom-18" d="M 162.5,85.2 L 168.3,52.3" style="fill:none;fill-rule:evenodd;stroke:#000000;stroke-width:2.0px;stroke-linecap:butt;stroke-linejoin:miter;stroke-opacity:1"/>
<path class="bond-17 atom-9 atom-10" d="M 114.1,172.4 L 132.0,187.4" style="fill:none;fill-rule:evenodd;stroke:#000000;stroke-width:2.0px;stroke-linecap:butt;stroke-linejoin:miter;stroke-opacity:1"/>
<path class="bond-17 atom-9 atom-10" d="M 123.4,166.7 L 136.0,177.2" style="fill:none;fill-rule:evenodd;stroke:#000000;stroke-width:2.0px;stroke-linecap:butt;stroke-linejoin:miter;stroke-opacity:1"/>
<path class="bond-18 atom-9 atom-19" d="M 83.3,170.3 L 61.3,178.3" style="fill:none;fill-rule:evenodd;stroke:#000000;stroke-width:2.0px;stroke-linecap:butt;stroke-linejoin:miter;stroke-opacity:1"/>
<path class="bond-19 atom-10 atom-0" d="M 161.7,189.7 L 177.6,183.9" style="fill:none;fill-rule:evenodd;stroke:#000000;stroke-width:2.0px;stroke-linecap:butt;stroke-linejoin:miter;stroke-opacity:1"/>
<path class="bond-20 atom-10 atom-20" d="M 140.7,208.1 L 135.3,238.7" style="fill:none;fill-rule:evenodd;stroke:#000000;stroke-width:2.0px;stroke-linecap:butt;stroke-linejoin:miter;stroke-opacity:1"/>
<path class="bond-21 atom-14 atom-3" d="M 296.2,103.8 L 293.4,119.1" style="fill:none;fill-rule:evenodd;stroke:#0000FF;stroke-width:2.0px;stroke-linecap:butt;stroke-linejoin:miter;stroke-opacity:1"/>
<path class="bond-21 atom-14 atom-3" d="M 293.4,119.1 L 290.7,134.5" style="fill:none;fill-rule:evenodd;stroke:#000000;stroke-width:2.0px;stroke-linecap:butt;stroke-linejoin:miter;stroke-opacity:1"/>
<path class="bond-22 atom-14 atom-22" d="M 317.9,85.1 L 328.7,81.2" style="fill:none;fill-rule:evenodd;stroke:#0000FF;stroke-width:2.0px;stroke-linecap:butt;stroke-linejoin:miter;stroke-opacity:1"/>
<path class="bond-22 atom-14 atom-22" d="M 328.7,81.2 L 339.5,77.3" style="fill:none;fill-rule:evenodd;stroke:#000000;stroke-width:2.0px;stroke-linecap:butt;stroke-linejoin:miter;stroke-opacity:1"/>
<path class="bond-23 atom-14 atom-23" d="M 287.5,83.3 L 276.6,74.2" style="fill:none;fill-rule:evenodd;stroke:#0000FF;stroke-width:2.0px;stroke-linecap:butt;stroke-linejoin:miter;stroke-opacity:1"/>
<path class="bond-23 atom-14 atom-23" d="M 276.6,74.2 L 265.8,65.1" style="fill:none;fill-rule:evenodd;stroke:#000000;stroke-width:2.0px;stroke-linecap:butt;stroke-linejoin:miter;stroke-opacity:1"/>
<path class="atom-0" d="M 179.2 178.9 Q 179.2 175.2, 180.9 173.3 Q 182.7 171.4, 185.9 171.4 Q 189.0 171.4, 190.6 173.5 L 189.2 174.7 Q 188.0 173.1, 185.9 173.1 Q 183.7 173.1, 182.5 174.6 Q 181.4 176.1, 181.4 178.9 Q 181.4 181.8, 182.6 183.3 Q 183.8 184.8, 186.2 184.8 Q 187.8 184.8, 189.7 183.8 L 190.2 185.4 Q 189.5 185.9, 188.3 186.2 Q 187.1 186.4, 185.9 186.4 Q 182.7 186.4, 180.9 184.5 Q 179.2 182.5, 179.2 178.9 " fill="#000000"/>
<path class="atom-0" d="M 191.4 183.8 L 193.5 183.8 L 193.5 185.9 L 191.4 185.9 L 191.4 183.8 M 191.4 176.7 L 193.5 176.7 L 193.5 178.8 L 191.4 178.8 L 191.4 176.7 " fill="#000000"/>
<path class="atom-0" d="M 195.8 184.6 L 199.1 184.6 L 199.1 173.6 L 195.5 174.7 L 195.0 173.5 L 199.5 171.5 L 201.0 171.7 L 201.0 184.6 L 203.9 184.6 L 203.9 186.3 L 195.8 186.3 L 195.8 184.6 " fill="#000000"/>
<path class="atom-1" d="M 220.4 205.0 L 225.2 212.7 Q 225.7 213.5, 226.5 214.9 Q 227.2 216.3, 227.3 216.4 L 227.3 205.0 L 229.2 205.0 L 229.2 219.6 L 227.2 219.6 L 222.1 211.1 Q 221.5 210.1, 220.8 209.0 Q 220.2 207.9, 220.0 207.5 L 220.0 219.6 L 218.1 219.6 L 218.1 205.0 L 220.4 205.0 " fill="#0000FF"/>
<path class="atom-1" d="M 231.0 217.2 L 233.0 217.2 L 233.0 219.3 L 231.0 219.3 L 231.0 217.2 M 231.0 210.1 L 233.0 210.1 L 233.0 212.2 L 231.0 212.2 L 231.0 210.1 " fill="#0000FF"/>
<path class="atom-1" d="M 234.6 207.7 Q 235.2 206.3, 236.5 205.6 Q 237.7 204.8, 239.5 204.8 Q 241.8 204.8, 243.0 206.0 Q 244.2 207.2, 244.2 209.3 Q 244.2 211.5, 242.6 213.5 Q 241.0 215.6, 237.7 218.0 L 244.5 218.0 L 244.5 219.6 L 234.6 219.6 L 234.6 218.3 Q 237.3 216.3, 239.0 214.9 Q 240.6 213.4, 241.4 212.1 Q 242.2 210.8, 242.2 209.4 Q 242.2 208.0, 241.5 207.2 Q 240.8 206.4, 239.5 206.4 Q 238.3 206.4, 237.6 206.9 Q 236.8 207.4, 236.2 208.5 L 234.6 207.7 " fill="#0000FF"/>
<path class="atom-2" d="M 267.2 194.6 Q 267.2 190.9, 268.9 189.0 Q 270.7 187.1, 273.9 187.1 Q 276.9 187.1, 278.6 189.2 L 277.2 190.3 Q 276.0 188.8, 273.9 188.8 Q 271.7 188.8, 270.5 190.3 Q 269.3 191.7, 269.3 194.6 Q 269.3 197.5, 270.6 199.0 Q 271.8 200.5, 274.1 200.5 Q 275.8 200.5, 277.7 199.5 L 278.2 201.0 Q 277.5 201.5, 276.3 201.8 Q 275.1 202.1, 273.9 202.1 Q 270.7 202.1, 268.9 200.2 Q 267.2 198.2, 267.2 194.6 " fill="#000000"/>
<path class="atom-2" d="M 279.4 199.5 L 281.5 199.5 L 281.5 201.6 L 279.4 201.6 L 279.4 199.5 M 279.4 192.4 L 281.5 192.4 L 281.5 194.4 L 279.4 194.4 L 279.4 192.4 " fill="#000000"/>
<path class="atom-2" d="M 290.1 194.2 Q 291.5 194.6, 292.2 195.5 Q 292.9 196.5, 292.9 197.9 Q 292.9 199.2, 292.3 200.1 Q 291.7 201.1, 290.5 201.6 Q 289.4 202.1, 287.9 202.1 Q 286.3 202.1, 285.1 201.6 Q 284.0 201.0, 283.0 199.9 L 284.2 198.7 Q 285.1 199.7, 285.9 200.1 Q 286.7 200.5, 287.9 200.5 Q 289.2 200.5, 290.0 199.8 Q 290.8 199.1, 290.8 197.9 Q 290.8 196.4, 290.0 195.7 Q 289.2 195.0, 287.3 195.0 L 286.3 195.0 L 286.3 193.6 L 287.2 193.6 Q 288.8 193.5, 289.7 192.8 Q 290.5 192.1, 290.5 190.8 Q 290.5 189.9, 289.8 189.3 Q 289.1 188.7, 287.9 188.7 Q 286.7 188.7, 285.9 189.2 Q 285.2 189.6, 284.6 190.7 L 283.2 189.9 Q 283.7 188.7, 284.9 187.9 Q 286.2 187.1, 287.9 187.1 Q 290.1 187.1, 291.3 188.1 Q 292.6 189.1, 292.6 190.8 Q 292.6 192.0, 292.0 192.9 Q 291.3 193.7, 290.1 194.2 " fill="#000000"/>
<path class="atom-3" d="M 267.7 143.5 Q 267.7 139.8, 269.4 137.9 Q 271.1 136.0, 274.4 136.0 Q 277.4 136.0, 279.0 138.1 L 277.6 139.2 Q 276.5 137.7, 274.4 137.7 Q 272.1 137.7, 271.0 139.2 Q 269.8 140.7, 269.8 143.5 Q 269.8 146.4, 271.0 147.9 Q 272.2 149.4, 274.6 149.4 Q 276.2 149.4, 278.1 148.4 L 278.7 150.0 Q 277.9 150.5, 276.7 150.7 Q 275.6 151.0, 274.3 151.0 Q 271.1 151.0, 269.4 149.1 Q 267.7 147.1, 267.7 143.5 " fill="#000000"/>
<path class="atom-3" d="M 279.8 148.4 L 281.9 148.4 L 281.9 150.5 L 279.8 150.5 L 279.8 148.4 M 279.8 141.3 L 281.9 141.3 L 281.9 143.4 L 279.8 143.4 L 279.8 141.3 " fill="#000000"/>
<path class="atom-3" d="M 293.0 145.8 L 294.8 145.8 L 294.8 147.5 L 293.0 147.5 L 293.0 150.8 L 291.1 150.8 L 291.1 147.5 L 283.5 147.5 L 283.5 146.2 L 289.9 136.1 L 293.0 136.1 L 293.0 145.8 M 285.9 145.8 L 291.1 145.8 L 291.1 137.5 L 285.9 145.8 " fill="#000000"/>
<path class="atom-4" d="M 209.4 263.4 Q 209.4 259.7, 211.1 257.8 Q 212.8 255.9, 216.1 255.9 Q 219.1 255.9, 220.7 258.0 L 219.3 259.1 Q 218.1 257.6, 216.1 257.6 Q 213.8 257.6, 212.6 259.1 Q 211.5 260.6, 211.5 263.4 Q 211.5 266.3, 212.7 267.8 Q 213.9 269.3, 216.3 269.3 Q 217.9 269.3, 219.8 268.3 L 220.4 269.9 Q 219.6 270.3, 218.4 270.6 Q 217.3 270.9, 216.0 270.9 Q 212.8 270.9, 211.1 269.0 Q 209.4 267.0, 209.4 263.4 " fill="#000000"/>
<path class="atom-4" d="M 221.5 268.3 L 223.6 268.3 L 223.6 270.4 L 221.5 270.4 L 221.5 268.3 M 221.5 261.2 L 223.6 261.2 L 223.6 263.3 L 221.5 263.3 L 221.5 261.2 " fill="#000000"/>
<path class="atom-4" d="M 230.5 261.5 Q 231.8 261.5, 232.8 262.1 Q 233.9 262.6, 234.5 263.7 Q 235.1 264.7, 235.1 266.1 Q 235.1 267.6, 234.4 268.7 Q 233.6 269.8, 232.4 270.3 Q 231.2 270.9, 229.9 270.9 Q 228.5 270.9, 227.3 270.4 Q 226.0 269.9, 225.2 269.0 L 226.4 267.7 Q 227.1 268.4, 228.0 268.8 Q 229.0 269.2, 229.9 269.2 Q 231.2 269.2, 232.1 268.4 Q 233.0 267.6, 233.0 266.1 Q 233.0 264.6, 232.1 263.9 Q 231.2 263.1, 229.8 263.1 Q 228.5 263.1, 227.1 263.7 L 225.9 263.1 L 226.6 256.0 L 234.2 256.0 L 234.0 257.7 L 228.3 257.7 L 227.9 262.1 Q 229.2 261.5, 230.5 261.5 " fill="#000000"/>
<path class="atom-5" d="M 313.0 227.9 Q 313.0 224.4, 314.8 222.4 Q 316.5 220.5, 319.8 220.5 Q 323.1 220.5, 324.8 222.4 Q 326.5 224.4, 326.5 227.9 Q 326.5 231.5, 324.8 233.5 Q 323.0 235.6, 319.8 235.6 Q 316.6 235.6, 314.8 233.5 Q 313.0 231.5, 313.0 227.9 M 319.8 233.9 Q 322.0 233.9, 323.2 232.4 Q 324.5 230.9, 324.5 227.9 Q 324.5 225.1, 323.2 223.6 Q 322.0 222.1, 319.8 222.1 Q 317.6 222.1, 316.3 223.6 Q 315.1 225.0, 315.1 227.9 Q 315.1 230.9, 316.3 232.4 Q 317.6 233.9, 319.8 233.9 " fill="#FF0000"/>
<path class="atom-5" d="M 327.6 232.9 L 329.7 232.9 L 329.7 235.0 L 327.6 235.0 L 327.6 232.9 M 327.6 225.8 L 329.7 225.8 L 329.7 227.8 L 327.6 227.8 L 327.6 225.8 " fill="#FF0000"/>
<path class="atom-5" d="M 337.0 226.2 Q 338.2 226.2, 339.3 226.7 Q 340.3 227.3, 340.8 228.3 Q 341.4 229.3, 341.4 230.6 Q 341.4 232.0, 340.8 233.2 Q 340.1 234.3, 339.0 234.9 Q 337.9 235.5, 336.5 235.5 Q 333.8 235.5, 332.5 233.7 Q 331.2 231.9, 331.2 228.4 Q 331.2 224.5, 332.8 222.5 Q 334.5 220.5, 337.6 220.5 Q 338.5 220.5, 339.3 220.7 Q 340.1 220.9, 340.8 221.3 L 340.0 222.7 Q 338.9 222.1, 337.6 222.1 Q 335.5 222.1, 334.5 223.5 Q 333.4 224.8, 333.3 227.6 Q 334.1 226.9, 335.0 226.5 Q 335.9 226.2, 337.0 226.2 M 336.5 233.8 Q 337.3 233.8, 337.9 233.4 Q 338.6 233.0, 339.0 232.2 Q 339.3 231.5, 339.3 230.6 Q 339.3 229.3, 338.6 228.6 Q 337.9 227.8, 336.6 227.8 Q 335.7 227.8, 334.8 228.2 Q 333.9 228.5, 333.3 229.2 Q 333.4 231.6, 334.2 232.7 Q 334.9 233.8, 336.5 233.8 " fill="#FF0000"/>
<path class="atom-6" d="M 195.0 127.8 Q 195.0 124.1, 196.7 122.2 Q 198.4 120.3, 201.6 120.3 Q 204.7 120.3, 206.3 122.4 L 204.9 123.6 Q 203.7 122.0, 201.6 122.0 Q 199.4 122.0, 198.2 123.5 Q 197.1 125.0, 197.1 127.8 Q 197.1 130.7, 198.3 132.2 Q 199.5 133.7, 201.9 133.7 Q 203.5 133.7, 205.4 132.7 L 206.0 134.3 Q 205.2 134.8, 204.0 135.1 Q 202.9 135.3, 201.6 135.3 Q 198.4 135.3, 196.7 133.4 Q 195.0 131.4, 195.0 127.8 " fill="#000000"/>
<path class="atom-6" d="M 207.1 132.7 L 209.2 132.7 L 209.2 134.8 L 207.1 134.8 L 207.1 132.7 M 207.1 125.6 L 209.2 125.6 L 209.2 127.7 L 207.1 127.7 L 207.1 125.6 " fill="#000000"/>
<path class="atom-6" d="M 218.5 122.1 L 210.8 122.1 L 210.8 120.5 L 220.5 120.5 L 220.5 121.9 L 214.6 135.2 L 212.6 135.2 L 218.5 122.1 " fill="#000000"/>
<path class="atom-7" d="M 99.0 112.1 Q 99.0 108.5, 100.7 106.5 Q 102.5 104.6, 105.7 104.6 Q 108.7 104.6, 110.4 106.8 L 109.0 107.9 Q 107.8 106.3, 105.7 106.3 Q 103.5 106.3, 102.3 107.8 Q 101.2 109.3, 101.2 112.1 Q 101.2 115.0, 102.4 116.5 Q 103.6 118.0, 105.9 118.0 Q 107.6 118.0, 109.5 117.0 L 110.0 118.6 Q 109.3 119.1, 108.1 119.4 Q 106.9 119.7, 105.7 119.7 Q 102.5 119.7, 100.7 117.7 Q 99.0 115.8, 99.0 112.1 " fill="#000000"/>
<path class="atom-7" d="M 111.2 117.1 L 113.3 117.1 L 113.3 119.1 L 111.2 119.1 L 111.2 117.1 M 111.2 109.9 L 113.3 109.9 L 113.3 112.0 L 111.2 112.0 L 111.2 109.9 " fill="#000000"/>
<path class="atom-7" d="M 122.3 111.7 Q 123.7 112.3, 124.4 113.1 Q 125.2 114.0, 125.2 115.5 Q 125.2 116.7, 124.6 117.7 Q 123.9 118.6, 122.8 119.2 Q 121.6 119.7, 120.1 119.7 Q 117.7 119.7, 116.2 118.6 Q 114.8 117.4, 114.8 115.5 Q 114.8 114.2, 115.5 113.4 Q 116.1 112.4, 117.4 111.8 Q 116.4 111.2, 115.9 110.4 Q 115.4 109.6, 115.4 108.4 Q 115.4 106.7, 116.6 105.6 Q 117.9 104.6, 120.0 104.6 Q 122.2 104.6, 123.4 105.6 Q 124.7 106.7, 124.7 108.4 Q 124.7 109.5, 124.1 110.3 Q 123.5 111.1, 122.3 111.7 M 120.0 106.2 Q 118.8 106.2, 118.1 106.8 Q 117.4 107.3, 117.4 108.4 Q 117.4 109.1, 117.9 109.7 Q 118.4 110.2, 119.0 110.5 Q 119.7 110.7, 120.9 111.2 Q 121.8 110.6, 122.2 109.9 Q 122.6 109.2, 122.6 108.4 Q 122.6 107.3, 121.9 106.8 Q 121.2 106.2, 120.0 106.2 M 120.1 118.1 Q 121.5 118.1, 122.3 117.4 Q 123.1 116.7, 123.1 115.4 Q 123.1 114.6, 122.7 114.1 Q 122.3 113.6, 121.6 113.4 Q 121.0 113.1, 119.8 112.7 L 118.9 112.4 Q 117.8 113.0, 117.4 113.8 Q 116.9 114.5, 116.9 115.4 Q 116.9 116.7, 117.8 117.4 Q 118.6 118.1, 120.1 118.1 " fill="#000000"/>
<path class="atom-8" d="M 147.9 94.4 Q 147.9 90.8, 149.6 88.8 Q 151.3 86.9, 154.6 86.9 Q 157.6 86.9, 159.2 89.0 L 157.9 90.2 Q 156.7 88.6, 154.6 88.6 Q 152.4 88.6, 151.2 90.1 Q 150.0 91.6, 150.0 94.4 Q 150.0 97.3, 151.2 98.8 Q 152.5 100.3, 154.8 100.3 Q 156.4 100.3, 158.3 99.3 L 158.9 100.9 Q 158.1 101.4, 157.0 101.7 Q 155.8 102.0, 154.5 102.0 Q 151.3 102.0, 149.6 100.0 Q 147.9 98.1, 147.9 94.4 " fill="#000000"/>
<path class="atom-8" d="M 160.1 99.3 L 162.1 99.3 L 162.1 101.4 L 160.1 101.4 L 160.1 99.3 M 160.1 92.2 L 162.1 92.2 L 162.1 94.3 L 160.1 94.3 L 160.1 92.2 " fill="#000000"/>
<path class="atom-8" d="M 168.6 86.9 Q 171.3 86.9, 172.6 88.7 Q 173.9 90.5, 173.9 94.0 Q 173.9 97.9, 172.3 99.9 Q 170.6 101.9, 167.5 101.9 Q 166.6 101.9, 165.8 101.7 Q 165.0 101.5, 164.3 101.1 L 165.1 99.7 Q 166.2 100.3, 167.5 100.3 Q 169.6 100.3, 170.6 98.9 Q 171.7 97.6, 171.8 94.8 Q 171.0 95.5, 170.1 95.9 Q 169.2 96.3, 168.1 96.3 Q 166.9 96.3, 165.8 95.7 Q 164.8 95.1, 164.3 94.1 Q 163.7 93.1, 163.7 91.8 Q 163.7 90.4, 164.3 89.3 Q 165.0 88.2, 166.1 87.5 Q 167.2 86.9, 168.6 86.9 M 165.8 91.8 Q 165.8 93.1, 166.5 93.8 Q 167.2 94.6, 168.5 94.6 Q 169.4 94.6, 170.3 94.2 Q 171.2 93.9, 171.8 93.2 Q 171.7 90.8, 170.9 89.7 Q 170.2 88.6, 168.6 88.6 Q 167.8 88.6, 167.2 89.0 Q 166.5 89.4, 166.2 90.2 Q 165.8 90.9, 165.8 91.8 " fill="#000000"/>
<path class="atom-9" d="M 84.9 163.2 Q 84.9 159.6, 86.6 157.6 Q 88.4 155.7, 91.6 155.7 Q 94.6 155.7, 96.3 157.9 L 94.9 159.0 Q 93.7 157.4, 91.6 157.4 Q 89.4 157.4, 88.2 158.9 Q 87.0 160.4, 87.0 163.2 Q 87.0 166.1, 88.2 167.6 Q 89.5 169.1, 91.8 169.1 Q 93.5 169.1, 95.3 168.1 L 95.9 169.7 Q 95.2 170.2, 94.0 170.5 Q 92.8 170.8, 91.5 170.8 Q 88.4 170.8, 86.6 168.8 Q 84.9 166.9, 84.9 163.2 " fill="#000000"/>
<path class="atom-9" d="M 97.1 168.1 L 99.2 168.1 L 99.2 170.2 L 97.1 170.2 L 97.1 168.1 M 97.1 161.0 L 99.2 161.0 L 99.2 163.1 L 97.1 163.1 L 97.1 161.0 " fill="#000000"/>
<path class="atom-9" d="M 101.5 168.9 L 104.7 168.9 L 104.7 157.9 L 101.2 159.0 L 100.7 157.8 L 105.2 155.8 L 106.7 156.0 L 106.7 168.9 L 109.6 168.9 L 109.6 170.6 L 101.5 170.6 L 101.5 168.9 " fill="#000000"/>
<path class="atom-9" d="M 115.8 170.7 Q 113.1 170.7, 111.8 168.7 Q 110.5 166.8, 110.5 163.2 Q 110.5 159.7, 111.8 157.7 Q 113.1 155.7, 115.8 155.7 Q 118.6 155.7, 119.9 157.7 Q 121.2 159.7, 121.2 163.2 Q 121.2 166.8, 119.9 168.7 Q 118.5 170.7, 115.8 170.7 M 115.8 169.1 Q 117.4 169.1, 118.3 167.6 Q 119.1 166.1, 119.1 163.2 Q 119.1 160.3, 118.3 158.8 Q 117.4 157.4, 115.8 157.4 Q 114.3 157.4, 113.4 158.8 Q 112.5 160.3, 112.5 163.2 Q 112.5 166.1, 113.4 167.6 Q 114.3 169.1, 115.8 169.1 " fill="#000000"/>
<path class="atom-10" d="M 125.6 196.6 Q 125.6 192.9, 127.3 191.0 Q 129.0 189.1, 132.3 189.1 Q 135.3 189.1, 136.9 191.2 L 135.6 192.4 Q 134.4 190.8, 132.3 190.8 Q 130.1 190.8, 128.9 192.3 Q 127.7 193.8, 127.7 196.6 Q 127.7 199.5, 128.9 201.0 Q 130.1 202.5, 132.5 202.5 Q 134.1 202.5, 136.0 201.5 L 136.6 203.1 Q 135.8 203.6, 134.7 203.9 Q 133.5 204.2, 132.2 204.2 Q 129.0 204.2, 127.3 202.2 Q 125.6 200.2, 125.6 196.6 " fill="#000000"/>
<path class="atom-10" d="M 137.8 201.5 L 139.8 201.5 L 139.8 203.6 L 137.8 203.6 L 137.8 201.5 M 137.8 194.4 L 139.8 194.4 L 139.8 196.5 L 137.8 196.5 L 137.8 194.4 " fill="#000000"/>
<path class="atom-10" d="M 142.2 202.3 L 145.4 202.3 L 145.4 191.3 L 141.9 192.4 L 141.4 191.2 L 145.9 189.2 L 147.4 189.4 L 147.4 202.3 L 150.3 202.3 L 150.3 204.0 L 142.2 204.0 L 142.2 202.3 " fill="#000000"/>
<path class="atom-10" d="M 151.9 202.3 L 155.2 202.3 L 155.2 191.3 L 151.6 192.4 L 151.1 191.2 L 155.6 189.2 L 157.1 189.4 L 157.1 202.3 L 160.0 202.3 L 160.0 204.0 L 151.9 204.0 L 151.9 202.3 " fill="#000000"/>
<path class="atom-11" d="M 267.6 265.1 L 269.6 265.1 L 269.6 271.4 L 277.1 271.4 L 277.1 265.1 L 279.1 265.1 L 279.1 279.8 L 277.1 279.8 L 277.1 273.0 L 269.6 273.0 L 269.6 279.8 L 267.6 279.8 L 267.6 265.1 " fill="#000000"/>
<path class="atom-11" d="M 280.8 277.4 L 282.9 277.4 L 282.9 279.4 L 280.8 279.4 L 280.8 277.4 M 280.8 270.2 L 282.9 270.2 L 282.9 272.3 L 280.8 272.3 L 280.8 270.2 " fill="#000000"/>
<path class="atom-11" d="M 285.3 278.1 L 288.5 278.1 L 288.5 267.2 L 285.0 268.3 L 284.5 267.0 L 289.0 265.0 L 290.5 265.3 L 290.5 278.1 L 293.3 278.1 L 293.3 279.8 L 285.3 279.8 L 285.3 278.1 " fill="#000000"/>
<path class="atom-11" d="M 294.3 267.9 Q 294.8 266.5, 296.1 265.7 Q 297.4 264.9, 299.2 264.9 Q 301.4 264.9, 302.6 266.1 Q 303.9 267.3, 303.9 269.5 Q 303.9 271.7, 302.2 273.7 Q 300.6 275.7, 297.3 278.1 L 304.1 278.1 L 304.1 279.8 L 294.2 279.8 L 294.2 278.4 Q 297.0 276.5, 298.6 275.0 Q 300.2 273.6, 301.0 272.2 Q 301.8 270.9, 301.8 269.6 Q 301.8 268.2, 301.1 267.4 Q 300.4 266.6, 299.2 266.6 Q 298.0 266.6, 297.2 267.1 Q 296.4 267.6, 295.8 268.6 L 294.3 267.9 " fill="#000000"/>
<path class="atom-12" d="M 139.6 247.0 L 141.6 247.0 L 141.6 253.2 L 149.1 253.2 L 149.1 247.0 L 151.1 247.0 L 151.1 261.7 L 149.1 261.7 L 149.1 254.9 L 141.6 254.9 L 141.6 261.7 L 139.6 261.7 L 139.6 247.0 " fill="#000000"/>
<path class="atom-12" d="M 152.8 259.3 L 154.9 259.3 L 154.9 261.3 L 152.8 261.3 L 152.8 259.3 M 152.8 252.1 L 154.9 252.1 L 154.9 254.2 L 152.8 254.2 L 152.8 252.1 " fill="#000000"/>
<path class="atom-12" d="M 157.3 260.0 L 160.5 260.0 L 160.5 249.0 L 156.9 250.1 L 156.5 248.9 L 161.0 246.9 L 162.4 247.2 L 162.4 260.0 L 165.3 260.0 L 165.3 261.7 L 157.3 261.7 L 157.3 260.0 " fill="#000000"/>
<path class="atom-12" d="M 173.3 253.9 Q 174.7 254.4, 175.4 255.3 Q 176.1 256.2, 176.1 257.7 Q 176.1 258.9, 175.5 259.9 Q 174.8 260.8, 173.7 261.4 Q 172.6 261.9, 171.1 261.9 Q 169.5 261.9, 168.3 261.4 Q 167.1 260.8, 166.2 259.7 L 167.4 258.5 Q 168.3 259.5, 169.1 259.9 Q 169.8 260.2, 171.1 260.2 Q 172.4 260.2, 173.2 259.5 Q 174.0 258.8, 174.0 257.6 Q 174.0 256.1, 173.2 255.5 Q 172.3 254.8, 170.5 254.8 L 169.5 254.8 L 169.5 253.3 L 170.4 253.3 Q 172.0 253.3, 172.8 252.6 Q 173.7 251.9, 173.7 250.6 Q 173.7 249.6, 173.0 249.1 Q 172.3 248.5, 171.1 248.5 Q 169.9 248.5, 169.1 248.9 Q 168.3 249.4, 167.8 250.5 L 166.3 249.7 Q 166.8 248.5, 168.1 247.7 Q 169.3 246.8, 171.1 246.8 Q 173.2 246.8, 174.5 247.8 Q 175.8 248.9, 175.8 250.6 Q 175.8 251.8, 175.1 252.6 Q 174.5 253.5, 173.3 253.9 " fill="#000000"/>
<path class="atom-13" d="M 207.4 307.1 L 209.4 307.1 L 209.4 313.4 L 216.9 313.4 L 216.9 307.1 L 218.9 307.1 L 218.9 321.8 L 216.9 321.8 L 216.9 315.0 L 209.4 315.0 L 209.4 321.8 L 207.4 321.8 L 207.4 307.1 " fill="#000000"/>
<path class="atom-13" d="M 220.7 319.4 L 222.8 319.4 L 222.8 321.4 L 220.7 321.4 L 220.7 319.4 M 220.7 312.2 L 222.8 312.2 L 222.8 314.3 L 220.7 314.3 L 220.7 312.2 " fill="#000000"/>
<path class="atom-13" d="M 225.1 320.1 L 228.4 320.1 L 228.4 309.2 L 224.8 310.3 L 224.3 309.0 L 228.8 307.0 L 230.3 307.3 L 230.3 320.1 L 233.2 320.1 L 233.2 321.8 L 225.1 321.8 L 225.1 320.1 " fill="#000000"/>
<path class="atom-13" d="M 243.6 316.8 L 245.4 316.8 L 245.4 318.4 L 243.6 318.4 L 243.6 321.8 L 241.7 321.8 L 241.7 318.4 L 234.1 318.4 L 234.1 317.1 L 240.5 307.1 L 243.6 307.1 L 243.6 316.8 M 236.5 316.8 L 241.7 316.8 L 241.7 308.4 L 236.5 316.8 " fill="#000000"/>
<path class="atom-14" d="M 282.4 85.0 L 287.2 92.8 Q 287.7 93.6, 288.5 95.0 Q 289.2 96.3, 289.3 96.4 L 289.3 85.0 L 291.2 85.0 L 291.2 99.7 L 289.2 99.7 L 284.1 91.2 Q 283.5 90.2, 282.8 89.1 Q 282.2 87.9, 282.0 87.6 L 282.0 99.7 L 280.1 99.7 L 280.1 85.0 L 282.4 85.0 " fill="#0000FF"/>
<path class="atom-14" d="M 293.0 97.3 L 295.0 97.3 L 295.0 99.4 L 293.0 99.4 L 293.0 97.3 M 293.0 90.1 L 295.0 90.1 L 295.0 92.2 L 293.0 92.2 L 293.0 90.1 " fill="#0000FF"/>
<path class="atom-14" d="M 297.4 98.0 L 300.6 98.0 L 300.6 87.1 L 297.1 88.2 L 296.6 86.9 L 301.1 84.9 L 302.6 85.2 L 302.6 98.0 L 305.5 98.0 L 305.5 99.7 L 297.4 99.7 L 297.4 98.0 " fill="#0000FF"/>
<path class="atom-14" d="M 311.7 90.5 Q 312.9 90.5, 314.0 91.1 Q 315.1 91.6, 315.7 92.6 Q 316.3 93.7, 316.3 95.1 Q 316.3 96.6, 315.5 97.7 Q 314.8 98.8, 313.6 99.3 Q 312.4 99.9, 311.0 99.9 Q 309.7 99.9, 308.4 99.4 Q 307.2 98.9, 306.3 97.9 L 307.6 96.6 Q 308.3 97.4, 309.2 97.8 Q 310.1 98.2, 311.1 98.2 Q 312.4 98.2, 313.3 97.4 Q 314.2 96.6, 314.2 95.1 Q 314.2 93.5, 313.3 92.8 Q 312.4 92.1, 311.0 92.1 Q 309.7 92.1, 308.2 92.6 L 307.1 92.1 L 307.8 85.0 L 315.4 85.0 L 315.1 86.7 L 309.5 86.7 L 309.1 91.0 Q 310.4 90.5, 311.7 90.5 " fill="#0000FF"/>
<path class="atom-15" d="M 334.5 145.2 L 336.5 145.2 L 336.5 151.5 L 344.0 151.5 L 344.0 145.2 L 346.0 145.2 L 346.0 159.9 L 344.0 159.9 L 344.0 153.1 L 336.5 153.1 L 336.5 159.9 L 334.5 159.9 L 334.5 145.2 " fill="#000000"/>
<path class="atom-15" d="M 347.7 157.5 L 349.8 157.5 L 349.8 159.5 L 347.7 159.5 L 347.7 157.5 M 347.7 150.3 L 349.8 150.3 L 349.8 152.4 L 347.7 152.4 L 347.7 150.3 " fill="#000000"/>
<path class="atom-15" d="M 352.2 158.2 L 355.4 158.2 L 355.4 147.3 L 351.8 148.4 L 351.4 147.1 L 355.9 145.1 L 357.3 145.4 L 357.3 158.2 L 360.2 158.2 L 360.2 159.9 L 352.2 159.9 L 352.2 158.2 " fill="#000000"/>
<path class="atom-15" d="M 366.9 150.7 Q 368.1 150.7, 369.2 151.3 Q 370.2 151.8, 370.7 152.9 Q 371.3 153.9, 371.3 155.2 Q 371.3 156.6, 370.6 157.7 Q 370.0 158.8, 368.9 159.4 Q 367.8 160.1, 366.4 160.1 Q 363.7 160.1, 362.4 158.3 Q 361.1 156.5, 361.1 153.0 Q 361.1 149.1, 362.7 147.1 Q 364.4 145.0, 367.5 145.0 Q 368.4 145.0, 369.2 145.2 Q 370.0 145.5, 370.7 145.9 L 369.9 147.3 Q 368.8 146.7, 367.5 146.7 Q 365.4 146.7, 364.4 148.0 Q 363.3 149.4, 363.2 152.1 Q 363.9 151.5, 364.9 151.1 Q 365.8 150.7, 366.9 150.7 M 366.4 158.4 Q 367.2 158.4, 367.8 157.9 Q 368.5 157.5, 368.8 156.8 Q 369.2 156.1, 369.2 155.2 Q 369.2 153.9, 368.5 153.1 Q 367.8 152.4, 366.5 152.4 Q 365.6 152.4, 364.7 152.8 Q 363.8 153.1, 363.2 153.7 Q 363.3 156.2, 364.0 157.3 Q 364.8 158.4, 366.4 158.4 " fill="#000000"/>
<path class="atom-16" d="M 225.1 126.1 L 227.1 126.1 L 227.1 132.4 L 234.6 132.4 L 234.6 126.1 L 236.6 126.1 L 236.6 140.8 L 234.6 140.8 L 234.6 134.0 L 227.1 134.0 L 227.1 140.8 L 225.1 140.8 L 225.1 126.1 " fill="#000000"/>
<path class="atom-16" d="M 238.3 138.4 L 240.4 138.4 L 240.4 140.5 L 238.3 140.5 L 238.3 138.4 M 238.3 131.3 L 240.4 131.3 L 240.4 133.3 L 238.3 133.3 L 238.3 131.3 " fill="#000000"/>
<path class="atom-16" d="M 242.8 139.2 L 246.0 139.2 L 246.0 128.2 L 242.4 129.3 L 242.0 128.1 L 246.5 126.0 L 247.9 126.3 L 247.9 139.2 L 250.8 139.2 L 250.8 140.8 L 242.8 140.8 L 242.8 139.2 " fill="#000000"/>
<path class="atom-16" d="M 259.4 127.8 L 251.7 127.8 L 251.7 126.1 L 261.5 126.1 L 261.5 127.6 L 255.5 140.8 L 253.5 140.8 L 259.4 127.8 " fill="#000000"/>
<path class="atom-17" d="M 225.2 105.0 L 227.2 105.0 L 227.2 111.3 L 234.7 111.3 L 234.7 105.0 L 236.7 105.0 L 236.7 119.7 L 234.7 119.7 L 234.7 112.9 L 227.2 112.9 L 227.2 119.7 L 225.2 119.7 L 225.2 105.0 " fill="#000000"/>
<path class="atom-17" d="M 238.5 117.3 L 240.6 117.3 L 240.6 119.4 L 238.5 119.4 L 238.5 117.3 M 238.5 110.2 L 240.6 110.2 L 240.6 112.2 L 238.5 112.2 L 238.5 110.2 " fill="#000000"/>
<path class="atom-17" d="M 242.9 118.1 L 246.1 118.1 L 246.1 107.1 L 242.6 108.2 L 242.1 107.0 L 246.6 105.0 L 248.1 105.2 L 248.1 118.1 L 251.0 118.1 L 251.0 119.7 L 242.9 119.7 L 242.9 118.1 " fill="#000000"/>
<path class="atom-17" d="M 259.3 111.9 Q 260.7 112.5, 261.5 113.4 Q 262.2 114.3, 262.2 115.7 Q 262.2 116.9, 261.6 117.9 Q 260.9 118.9, 259.8 119.4 Q 258.6 119.9, 257.1 119.9 Q 254.7 119.9, 253.3 118.8 Q 251.9 117.7, 251.9 115.7 Q 251.9 114.5, 252.5 113.6 Q 253.1 112.7, 254.4 112.0 Q 253.4 111.5, 252.9 110.7 Q 252.4 109.9, 252.4 108.6 Q 252.4 106.9, 253.6 105.9 Q 254.9 104.9, 257.0 104.9 Q 259.2 104.9, 260.4 105.9 Q 261.7 106.9, 261.7 108.6 Q 261.7 109.7, 261.1 110.5 Q 260.5 111.3, 259.3 111.9 M 257.0 106.4 Q 255.8 106.4, 255.1 107.0 Q 254.5 107.6, 254.5 108.6 Q 254.5 109.4, 254.9 109.9 Q 255.4 110.4, 256.0 110.7 Q 256.7 111.0, 258.0 111.4 Q 258.8 110.8, 259.2 110.1 Q 259.6 109.5, 259.6 108.6 Q 259.6 107.6, 258.9 107.0 Q 258.3 106.4, 257.0 106.4 M 257.1 118.4 Q 258.5 118.4, 259.3 117.7 Q 260.2 116.9, 260.2 115.7 Q 260.2 114.9, 259.7 114.4 Q 259.3 113.9, 258.6 113.6 Q 258.0 113.3, 256.8 112.9 L 255.9 112.6 Q 254.8 113.3, 254.4 114.0 Q 253.9 114.7, 253.9 115.7 Q 253.9 116.9, 254.8 117.7 Q 255.7 118.4, 257.1 118.4 " fill="#000000"/>
<path class="atom-18" d="M 164.2 36.0 L 166.2 36.0 L 166.2 42.2 L 173.7 42.2 L 173.7 36.0 L 175.7 36.0 L 175.7 50.7 L 173.7 50.7 L 173.7 43.9 L 166.2 43.9 L 166.2 50.7 L 164.2 50.7 L 164.2 36.0 " fill="#000000"/>
<path class="atom-18" d="M 177.5 48.2 L 179.5 48.2 L 179.5 50.3 L 177.5 50.3 L 177.5 48.2 M 177.5 41.1 L 179.5 41.1 L 179.5 43.2 L 177.5 43.2 L 177.5 41.1 " fill="#000000"/>
<path class="atom-18" d="M 181.9 49.0 L 185.1 49.0 L 185.1 38.0 L 181.6 39.1 L 181.1 37.9 L 185.6 35.9 L 187.1 36.1 L 187.1 49.0 L 190.0 49.0 L 190.0 50.7 L 181.9 50.7 L 181.9 49.0 " fill="#000000"/>
<path class="atom-18" d="M 195.8 35.8 Q 198.4 35.8, 199.7 37.6 Q 201.0 39.4, 201.0 42.9 Q 201.0 46.8, 199.4 48.8 Q 197.8 50.8, 194.6 50.8 Q 193.7 50.8, 192.9 50.6 Q 192.2 50.4, 191.4 50.0 L 192.2 48.6 Q 193.3 49.2, 194.6 49.2 Q 196.7 49.2, 197.7 47.9 Q 198.8 46.5, 198.9 43.7 Q 198.2 44.4, 197.2 44.8 Q 196.3 45.2, 195.3 45.2 Q 194.0 45.2, 193.0 44.6 Q 192.0 44.0, 191.4 43.0 Q 190.8 42.0, 190.8 40.7 Q 190.8 39.3, 191.5 38.2 Q 192.1 37.1, 193.2 36.4 Q 194.3 35.8, 195.8 35.8 M 192.9 40.7 Q 192.9 42.0, 193.6 42.7 Q 194.4 43.5, 195.7 43.5 Q 196.5 43.5, 197.4 43.1 Q 198.3 42.8, 198.9 42.1 Q 198.8 39.7, 198.1 38.6 Q 197.3 37.5, 195.8 37.5 Q 195.0 37.5, 194.3 37.9 Q 193.7 38.3, 193.3 39.1 Q 192.9 39.8, 192.9 40.7 " fill="#000000"/>
<path class="atom-19" d="M 20.9 173.6 L 22.9 173.6 L 22.9 179.8 L 30.4 179.8 L 30.4 173.6 L 32.4 173.6 L 32.4 188.3 L 30.4 188.3 L 30.4 181.5 L 22.9 181.5 L 22.9 188.3 L 20.9 188.3 L 20.9 173.6 " fill="#000000"/>
<path class="atom-19" d="M 34.1 185.9 L 36.2 185.9 L 36.2 187.9 L 34.1 187.9 L 34.1 185.9 M 34.1 178.7 L 36.2 178.7 L 36.2 180.8 L 34.1 180.8 L 34.1 178.7 " fill="#000000"/>
<path class="atom-19" d="M 37.8 176.4 Q 38.3 175.0, 39.6 174.2 Q 40.9 173.4, 42.7 173.4 Q 44.9 173.4, 46.2 174.6 Q 47.4 175.8, 47.4 178.0 Q 47.4 180.1, 45.8 182.2 Q 44.2 184.2, 40.9 186.6 L 47.7 186.6 L 47.7 188.3 L 37.8 188.3 L 37.8 186.9 Q 40.5 184.9, 42.1 183.5 Q 43.8 182.0, 44.6 180.7 Q 45.3 179.4, 45.3 178.1 Q 45.3 176.7, 44.6 175.9 Q 43.9 175.1, 42.7 175.1 Q 41.5 175.1, 40.7 175.6 Q 39.9 176.0, 39.4 177.1 L 37.8 176.4 " fill="#000000"/>
<path class="atom-19" d="M 54.3 188.4 Q 51.6 188.4, 50.2 186.5 Q 48.9 184.5, 48.9 180.9 Q 48.9 177.4, 50.2 175.4 Q 51.6 173.4, 54.3 173.4 Q 57.0 173.4, 58.3 175.4 Q 59.7 177.4, 59.7 180.9 Q 59.7 184.5, 58.3 186.5 Q 57.0 188.4, 54.3 188.4 M 54.3 186.8 Q 55.9 186.8, 56.7 185.3 Q 57.6 183.8, 57.6 180.9 Q 57.6 178.0, 56.7 176.6 Q 55.9 175.1, 54.3 175.1 Q 52.7 175.1, 51.8 176.6 Q 51.0 178.0, 51.0 180.9 Q 51.0 183.8, 51.8 185.3 Q 52.7 186.8, 54.3 186.8 " fill="#000000"/>
<path class="atom-20" d="M 128.0 240.4 L 130.0 240.4 L 130.0 246.6 L 137.5 246.6 L 137.5 240.4 L 139.5 240.4 L 139.5 255.1 L 137.5 255.1 L 137.5 248.3 L 130.0 248.3 L 130.0 255.1 L 128.0 255.1 L 128.0 240.4 " fill="#000000"/>
<path class="atom-20" d="M 141.3 252.6 L 143.3 252.6 L 143.3 254.7 L 141.3 254.7 L 141.3 252.6 M 141.3 245.5 L 143.3 245.5 L 143.3 247.6 L 141.3 247.6 L 141.3 245.5 " fill="#000000"/>
<path class="atom-20" d="M 144.9 243.1 Q 145.5 241.8, 146.8 241.0 Q 148.0 240.2, 149.8 240.2 Q 152.0 240.2, 153.3 241.4 Q 154.5 242.6, 154.5 244.7 Q 154.5 246.9, 152.9 249.0 Q 151.3 251.0, 148.0 253.4 L 154.8 253.4 L 154.8 255.1 L 144.9 255.1 L 144.9 253.7 Q 147.6 251.7, 149.2 250.3 Q 150.9 248.8, 151.7 247.5 Q 152.5 246.2, 152.5 244.8 Q 152.5 243.4, 151.8 242.6 Q 151.0 241.9, 149.8 241.9 Q 148.6 241.9, 147.9 242.3 Q 147.1 242.8, 146.5 243.9 L 144.9 243.1 " fill="#000000"/>
<path class="atom-20" d="M 156.8 253.4 L 160.1 253.4 L 160.1 242.4 L 156.5 243.5 L 156.0 242.3 L 160.5 240.3 L 162.0 240.5 L 162.0 253.4 L 164.9 253.4 L 164.9 255.1 L 156.8 255.1 L 156.8 253.4 " fill="#000000"/>
<path class="atom-21" d="M 39.4 71.4 L 41.4 71.4 L 41.4 77.6 L 48.9 77.6 L 48.9 71.4 L 50.9 71.4 L 50.9 86.1 L 48.9 86.1 L 48.9 79.3 L 41.4 79.3 L 41.4 86.1 L 39.4 86.1 L 39.4 71.4 " fill="#000000"/>
<path class="atom-21" d="M 52.7 83.7 L 54.7 83.7 L 54.7 85.7 L 52.7 85.7 L 52.7 83.7 M 52.7 76.5 L 54.7 76.5 L 54.7 78.6 L 52.7 78.6 L 52.7 76.5 " fill="#000000"/>
<path class="atom-21" d="M 56.3 74.2 Q 56.9 72.8, 58.2 72.0 Q 59.5 71.2, 61.2 71.2 Q 63.5 71.2, 64.7 72.4 Q 66.0 73.6, 66.0 75.8 Q 66.0 78.0, 64.3 80.0 Q 62.7 82.0, 59.4 84.4 L 66.2 84.4 L 66.2 86.1 L 56.3 86.1 L 56.3 84.7 Q 59.0 82.7, 60.7 81.3 Q 62.3 79.8, 63.1 78.5 Q 63.9 77.2, 63.9 75.9 Q 63.9 74.5, 63.2 73.7 Q 62.5 72.9, 61.2 72.9 Q 60.1 72.9, 59.3 73.4 Q 58.5 73.8, 57.9 74.9 L 56.3 74.2 " fill="#000000"/>
<path class="atom-21" d="M 67.5 74.2 Q 68.0 72.8, 69.3 72.0 Q 70.6 71.2, 72.4 71.2 Q 74.6 71.2, 75.9 72.4 Q 77.1 73.6, 77.1 75.8 Q 77.1 78.0, 75.5 80.0 Q 73.9 82.0, 70.6 84.4 L 77.3 84.4 L 77.3 86.1 L 67.4 86.1 L 67.4 84.7 Q 70.2 82.7, 71.8 81.3 Q 73.4 79.8, 74.2 78.5 Q 75.0 77.2, 75.0 75.9 Q 75.0 74.5, 74.3 73.7 Q 73.6 72.9, 72.4 72.9 Q 71.2 72.9, 70.4 73.4 Q 69.6 73.8, 69.1 74.9 L 67.5 74.2 " fill="#000000"/>
<path class="atom-22" d="M 341.2 67.3 L 343.2 67.3 L 343.2 73.6 L 350.7 73.6 L 350.7 67.3 L 352.7 67.3 L 352.7 82.0 L 350.7 82.0 L 350.7 75.3 L 343.2 75.3 L 343.2 82.0 L 341.2 82.0 L 341.2 67.3 " fill="#000000"/>
<path class="atom-22" d="M 354.5 79.6 L 356.5 79.6 L 356.5 81.7 L 354.5 81.7 L 354.5 79.6 M 354.5 72.5 L 356.5 72.5 L 356.5 74.5 L 354.5 74.5 L 354.5 72.5 " fill="#000000"/>
<path class="atom-22" d="M 358.1 70.1 Q 358.7 68.7, 360.0 68.0 Q 361.3 67.2, 363.0 67.2 Q 365.3 67.2, 366.5 68.4 Q 367.8 69.6, 367.8 71.7 Q 367.8 73.9, 366.1 75.9 Q 364.5 78.0, 361.2 80.4 L 368.0 80.4 L 368.0 82.0 L 358.1 82.0 L 358.1 80.7 Q 360.8 78.7, 362.5 77.2 Q 364.1 75.8, 364.9 74.5 Q 365.7 73.2, 365.7 71.8 Q 365.7 70.4, 365.0 69.6 Q 364.3 68.8, 363.0 68.8 Q 361.9 68.8, 361.1 69.3 Q 360.3 69.8, 359.7 70.9 L 358.1 70.1 " fill="#000000"/>
<path class="atom-22" d="M 376.3 74.3 Q 377.7 74.7, 378.4 75.6 Q 379.1 76.6, 379.1 78.0 Q 379.1 79.3, 378.5 80.2 Q 377.9 81.2, 376.7 81.7 Q 375.6 82.2, 374.1 82.2 Q 372.5 82.2, 371.3 81.7 Q 370.2 81.1, 369.2 80.0 L 370.4 78.8 Q 371.3 79.8, 372.1 80.2 Q 372.9 80.6, 374.1 80.6 Q 375.4 80.6, 376.2 79.9 Q 377.1 79.2, 377.1 78.0 Q 377.1 76.5, 376.2 75.8 Q 375.4 75.2, 373.6 75.2 L 372.5 75.2 L 372.5 73.7 L 373.4 73.7 Q 375.0 73.6, 375.9 73.0 Q 376.7 72.2, 376.7 70.9 Q 376.7 70.0, 376.0 69.4 Q 375.3 68.8, 374.1 68.8 Q 372.9 68.8, 372.1 69.3 Q 371.4 69.7, 370.8 70.8 L 369.4 70.0 Q 369.9 68.8, 371.1 68.0 Q 372.4 67.2, 374.1 67.2 Q 376.3 67.2, 377.6 68.2 Q 378.8 69.2, 378.8 70.9 Q 378.8 72.1, 378.2 73.0 Q 377.5 73.8, 376.3 74.3 " fill="#000000"/>
<path class="atom-23" d="M 224.8 51.7 L 226.7 51.7 L 226.7 57.9 L 234.3 57.9 L 234.3 51.7 L 236.3 51.7 L 236.3 66.4 L 234.3 66.4 L 234.3 59.6 L 226.7 59.6 L 226.7 66.4 L 224.8 66.4 L 224.8 51.7 " fill="#000000"/>
<path class="atom-23" d="M 238.0 63.9 L 240.1 63.9 L 240.1 66.0 L 238.0 66.0 L 238.0 63.9 M 238.0 56.8 L 240.1 56.8 L 240.1 58.9 L 238.0 58.9 L 238.0 56.8 " fill="#000000"/>
<path class="atom-23" d="M 241.7 54.4 Q 242.2 53.1, 243.5 52.3 Q 244.8 51.5, 246.6 51.5 Q 248.8 51.5, 250.1 52.7 Q 251.3 53.9, 251.3 56.0 Q 251.3 58.2, 249.7 60.3 Q 248.1 62.3, 244.8 64.7 L 251.6 64.7 L 251.6 66.4 L 241.7 66.4 L 241.7 65.0 Q 244.4 63.0, 246.0 61.6 Q 247.7 60.1, 248.4 58.8 Q 249.2 57.5, 249.2 56.1 Q 249.2 54.7, 248.5 53.9 Q 247.8 53.2, 246.6 53.2 Q 245.4 53.2, 244.6 53.6 Q 243.8 54.1, 243.3 55.2 L 241.7 54.4 " fill="#000000"/>
<path class="atom-23" d="M 262.3 61.3 L 264.1 61.3 L 264.1 63.0 L 262.3 63.0 L 262.3 66.4 L 260.4 66.4 L 260.4 63.0 L 252.8 63.0 L 252.8 61.7 L 259.2 51.7 L 262.3 51.7 L 262.3 61.3 M 255.2 61.3 L 260.4 61.3 L 260.4 53.0 L 255.2 61.3 " fill="#000000"/>
<path class="legend" d="M 158.4 381.9 Q 159.5 382.2, 160.0 383.0 Q 160.6 383.7, 160.6 384.8 Q 160.6 385.7, 160.1 386.5 Q 159.6 387.2, 158.8 387.6 Q 157.9 388.0, 156.7 388.0 Q 155.5 388.0, 154.6 387.6 Q 153.7 387.2, 153.0 386.3 L 153.9 385.4 Q 154.6 386.2, 155.2 386.5 Q 155.8 386.8, 156.7 386.8 Q 157.7 386.8, 158.4 386.2 Q 159.0 385.7, 159.0 384.8 Q 159.0 383.6, 158.3 383.1 Q 157.7 382.6, 156.3 382.6 L 155.5 382.6 L 155.5 381.4 L 156.2 381.4 Q 157.4 381.4, 158.1 380.9 Q 158.8 380.3, 158.8 379.3 Q 158.8 378.6, 158.2 378.2 Q 157.7 377.7, 156.7 377.7 Q 155.8 377.7, 155.2 378.0 Q 154.6 378.4, 154.2 379.2 L 153.1 378.6 Q 153.5 377.7, 154.4 377.1 Q 155.4 376.4, 156.7 376.4 Q 158.4 376.4, 159.4 377.2 Q 160.4 378.0, 160.4 379.3 Q 160.4 380.2, 159.9 380.9 Q 159.4 381.6, 158.4 381.9 " fill="#000000"/>
<path class="legend" d="M 169.7 388.7 L 169.7 390.0 L 161.5 390.0 L 161.5 388.7 L 169.7 388.7 " fill="#000000"/>
<path class="legend" d="M 169.7 378.7 Q 170.1 377.6, 171.1 377.0 Q 172.1 376.4, 173.5 376.4 Q 175.2 376.4, 176.2 377.4 Q 177.1 378.3, 177.1 379.9 Q 177.1 381.6, 175.9 383.2 Q 174.7 384.8, 172.1 386.6 L 177.3 386.6 L 177.3 387.9 L 169.7 387.9 L 169.7 386.8 Q 171.8 385.3, 173.1 384.2 Q 174.3 383.1, 174.9 382.1 Q 175.5 381.1, 175.5 380.0 Q 175.5 378.9, 175.0 378.3 Q 174.4 377.7, 173.5 377.7 Q 172.6 377.7, 172.0 378.1 Q 171.4 378.4, 170.9 379.3 L 169.7 378.7 " fill="#000000"/>
<path class="legend" d="M 182.4 380.8 Q 183.4 380.8, 184.2 381.2 Q 185.0 381.6, 185.5 382.4 Q 186.0 383.2, 186.0 384.3 Q 186.0 385.5, 185.4 386.3 Q 184.8 387.2, 183.9 387.6 Q 183.0 388.0, 181.9 388.0 Q 180.9 388.0, 179.9 387.6 Q 178.9 387.2, 178.3 386.5 L 179.2 385.5 Q 179.8 386.1, 180.5 386.4 Q 181.2 386.7, 182.0 386.7 Q 183.0 386.7, 183.6 386.1 Q 184.4 385.5, 184.4 384.3 Q 184.4 383.1, 183.6 382.6 Q 183.0 382.0, 181.9 382.0 Q 180.9 382.0, 179.8 382.4 L 178.9 382.0 L 179.4 376.6 L 185.2 376.6 L 185.1 377.8 L 180.7 377.8 L 180.4 381.2 Q 181.4 380.8, 182.4 380.8 " fill="#000000"/>
<path class="legend" d="M 194.9 388.7 L 194.9 390.0 L 186.7 390.0 L 186.7 388.7 L 194.9 388.7 " fill="#000000"/>
<path class="legend" d="M 194.9 376.5 L 196.4 376.5 L 196.4 387.9 L 194.9 387.9 L 194.9 376.5 " fill="#000000"/>
<path class="legend" d="M 202.1 379.5 Q 203.4 379.5, 204.1 380.3 Q 204.8 381.0, 204.8 382.4 L 204.8 387.9 L 203.3 387.9 L 203.3 382.6 Q 203.3 381.6, 202.9 381.2 Q 202.5 380.7, 201.7 380.7 Q 201.0 380.7, 200.3 381.1 Q 199.7 381.4, 199.3 382.0 L 199.3 387.9 L 197.8 387.9 L 197.8 379.7 L 199.0 379.7 L 199.2 380.8 Q 200.3 379.5, 202.1 379.5 " fill="#000000"/>
<path class="legend" d="M 213.5 375.7 L 213.5 387.9 L 212.3 387.9 L 212.1 386.9 Q 211.2 388.0, 209.6 388.0 Q 207.9 388.0, 207.0 387.0 Q 206.0 385.9, 206.0 383.9 Q 206.0 381.8, 207.2 380.7 Q 208.3 379.5, 210.3 379.5 Q 211.1 379.5, 212.0 379.7 L 212.0 375.7 L 213.5 375.7 M 209.7 386.8 Q 210.6 386.8, 211.2 386.4 Q 211.8 385.9, 212.0 385.1 L 212.0 380.9 Q 211.2 380.7, 210.3 380.7 Q 209.0 380.7, 208.3 381.6 Q 207.6 382.4, 207.6 383.9 Q 207.6 385.3, 208.1 386.1 Q 208.7 386.8, 209.7 386.8 " fill="#000000"/>
<path class="legend" d="M 214.8 383.8 Q 214.8 381.7, 215.8 380.6 Q 216.8 379.5, 218.6 379.5 Q 220.4 379.5, 221.2 380.6 Q 222.1 381.7, 222.1 383.7 L 222.1 384.0 L 216.3 384.0 Q 216.4 385.4, 217.0 386.1 Q 217.6 386.8, 218.8 386.8 Q 219.4 386.8, 220.0 386.7 Q 220.6 386.5, 221.3 386.2 L 221.7 387.2 Q 220.9 387.6, 220.2 387.8 Q 219.5 388.0, 218.7 388.0 Q 216.8 388.0, 215.8 386.9 Q 214.8 385.8, 214.8 383.8 M 218.6 380.7 Q 217.7 380.7, 217.1 381.2 Q 216.6 381.8, 216.4 382.8 L 220.5 382.8 Q 220.4 381.7, 219.9 381.2 Q 219.5 380.7, 218.6 380.7 " fill="#000000"/>
<path class="legend" d="M 225.7 383.6 L 222.9 379.7 L 224.6 379.7 L 226.6 382.5 L 228.6 379.7 L 230.2 379.7 L 227.4 383.6 L 230.4 387.9 L 228.7 387.9 L 226.5 384.8 L 224.3 387.9 L 222.7 387.9 L 225.7 383.6 " fill="#000000"/>
<path class="legend" d="M 238.7 388.7 L 238.7 390.0 L 230.6 390.0 L 230.6 388.7 L 238.7 388.7 " fill="#000000"/>
<path class="legend" d="M 242.9 388.0 Q 240.8 388.0, 239.8 386.5 Q 238.7 384.9, 238.7 382.2 Q 238.7 379.5, 239.8 378.0 Q 240.8 376.4, 242.9 376.4 Q 245.0 376.4, 246.0 378.0 Q 247.0 379.5, 247.0 382.2 Q 247.0 384.9, 246.0 386.5 Q 245.0 388.0, 242.9 388.0 M 242.9 386.7 Q 244.1 386.7, 244.8 385.6 Q 245.4 384.4, 245.4 382.2 Q 245.4 380.0, 244.8 378.8 Q 244.1 377.7, 242.9 377.7 Q 241.7 377.7, 241.0 378.8 Q 240.3 380.0, 240.3 382.2 Q 240.3 384.4, 241.0 385.6 Q 241.7 386.7, 242.9 386.7 " fill="#000000"/>
<path class="bond-1 atom-1 atom-2" d="M 653.2,230.4 L 696.3,201.6" style="fill:none;fill-rule:evenodd;stroke:#FF7F7F;stroke-width:11.1px;stroke-linecap:butt;stroke-linejoin:miter;stroke-opacity:1"/>
<path class="bond-0 atom-1 atom-0" d="M 645.9,226.8 L 626.3,217.1" style="fill:none;fill-rule:evenodd;stroke:#0000FF;stroke-width:2.0px;stroke-linecap:butt;stroke-linejoin:miter;stroke-opacity:1"/>
<path class="bond-0 atom-1 atom-0" d="M 626.3,217.1 L 606.6,207.3" style="fill:none;fill-rule:evenodd;stroke:#000000;stroke-width:2.0px;stroke-linecap:butt;stroke-linejoin:miter;stroke-opacity:1"/>
<path class="bond-1 atom-1 atom-2" d="M 660.4,225.5 L 678.4,213.6" style="fill:none;fill-rule:evenodd;stroke:#0000FF;stroke-width:2.0px;stroke-linecap:butt;stroke-linejoin:miter;stroke-opacity:1"/>
<path class="bond-1 atom-1 atom-2" d="M 678.4,213.6 L 696.3,201.6" style="fill:none;fill-rule:evenodd;stroke:#000000;stroke-width:2.0px;stroke-linecap:butt;stroke-linejoin:miter;stroke-opacity:1"/>
<path class="bond-2 atom-1 atom-4" d="M 653.7,239.4 L 655.1,260.8" style="fill:none;fill-rule:evenodd;stroke:#0000FF;stroke-width:2.0px;stroke-linecap:butt;stroke-linejoin:miter;stroke-opacity:1"/>
<path class="bond-2 atom-1 atom-4" d="M 655.1,260.8 L 656.5,282.1" style="fill:none;fill-rule:evenodd;stroke:#000000;stroke-width:2.0px;stroke-linecap:butt;stroke-linejoin:miter;stroke-opacity:1"/>
<path class="bond-3 atom-2 atom-3" d="M 696.3,201.6 L 693.0,149.8" style="fill:none;fill-rule:evenodd;stroke:#000000;stroke-width:2.0px;stroke-linecap:butt;stroke-linejoin:miter;stroke-opacity:1"/>
<path class="bond-4 atom-2 atom-5" d="M 698.6,196.9 L 717.7,206.4" style="fill:none;fill-rule:evenodd;stroke:#000000;stroke-width:2.0px;stroke-linecap:butt;stroke-linejoin:miter;stroke-opacity:1"/>
<path class="bond-4 atom-2 atom-5" d="M 717.7,206.4 L 736.7,215.8" style="fill:none;fill-rule:evenodd;stroke:#FF0000;stroke-width:2.0px;stroke-linecap:butt;stroke-linejoin:miter;stroke-opacity:1"/>
<path class="bond-4 atom-2 atom-5" d="M 694.0,206.2 L 713.1,215.7" style="fill:none;fill-rule:evenodd;stroke:#000000;stroke-width:2.0px;stroke-linecap:butt;stroke-linejoin:miter;stroke-opacity:1"/>
<path class="bond-4 atom-2 atom-5" d="M 713.1,215.7 L 732.1,225.1" style="fill:none;fill-rule:evenodd;stroke:#FF0000;stroke-width:2.0px;stroke-linecap:butt;stroke-linejoin:miter;stroke-opacity:1"/>
<path class="bond-5 atom-3 atom-15" d="M 693.0,149.8 L 666.5,148.3" style="fill:none;fill-rule:evenodd;stroke:#000000;stroke-width:2.0px;stroke-linecap:butt;stroke-linejoin:miter;stroke-opacity:1"/>
<path class="bond-6 atom-3 atom-16" d="M 693.0,149.8 L 737.4,147.0" style="fill:none;fill-rule:evenodd;stroke:#000000;stroke-width:2.0px;stroke-linecap:butt;stroke-linejoin:miter;stroke-opacity:1"/>
<path class="bond-7 atom-4 atom-11" d="M 656.5,282.1 L 700.8,279.3" style="fill:none;fill-rule:evenodd;stroke:#000000;stroke-width:2.0px;stroke-linecap:butt;stroke-linejoin:miter;stroke-opacity:1"/>
<path class="bond-8 atom-4 atom-12" d="M 656.5,282.1 L 612.1,285.0" style="fill:none;fill-rule:evenodd;stroke:#000000;stroke-width:2.0px;stroke-linecap:butt;stroke-linejoin:miter;stroke-opacity:1"/>
<path class="bond-9 atom-4 atom-13" d="M 656.5,282.1 L 659.2,324.9" style="fill:none;fill-rule:evenodd;stroke:#000000;stroke-width:2.0px;stroke-linecap:butt;stroke-linejoin:miter;stroke-opacity:1"/>
<path class="bond-10 atom-6 atom-0" d="M 603.3,155.6 L 606.6,207.3" style="fill:none;fill-rule:evenodd;stroke:#000000;stroke-width:2.0px;stroke-linecap:butt;stroke-linejoin:miter;stroke-opacity:1"/>
<path class="bond-10 atom-6 atom-0" d="M 593.5,164.0 L 595.8,200.2" style="fill:none;fill-rule:evenodd;stroke:#000000;stroke-width:2.0px;stroke-linecap:butt;stroke-linejoin:miter;stroke-opacity:1"/>
<path class="bond-11 atom-6 atom-17" d="M 603.3,155.6 L 621.7,139.8" style="fill:none;fill-rule:evenodd;stroke:#000000;stroke-width:2.0px;stroke-linecap:butt;stroke-linejoin:miter;stroke-opacity:1"/>
<path class="bond-12 atom-7 atom-8" d="M 513.6,161.3 L 556.8,132.5" style="fill:none;fill-rule:evenodd;stroke:#000000;stroke-width:2.0px;stroke-linecap:butt;stroke-linejoin:miter;stroke-opacity:1"/>
<path class="bond-12 atom-7 atom-8" d="M 525.9,165.6 L 556.1,145.5" style="fill:none;fill-rule:evenodd;stroke:#000000;stroke-width:2.0px;stroke-linecap:butt;stroke-linejoin:miter;stroke-opacity:1"/>
<path class="bond-13 atom-7 atom-9" d="M 513.6,161.3 L 516.9,213.1" style="fill:none;fill-rule:evenodd;stroke:#000000;stroke-width:2.0px;stroke-linecap:butt;stroke-linejoin:miter;stroke-opacity:1"/>
<path class="bond-14 atom-8 atom-6" d="M 556.8,132.5 L 603.3,155.6" style="fill:none;fill-rule:evenodd;stroke:#000000;stroke-width:2.0px;stroke-linecap:butt;stroke-linejoin:miter;stroke-opacity:1"/>
<path class="bond-15 atom-8 atom-18" d="M 556.8,132.5 L 554.1,89.8" style="fill:none;fill-rule:evenodd;stroke:#000000;stroke-width:2.0px;stroke-linecap:butt;stroke-linejoin:miter;stroke-opacity:1"/>
<path class="bond-16 atom-9 atom-10" d="M 516.9,213.1 L 563.5,236.1" style="fill:none;fill-rule:evenodd;stroke:#000000;stroke-width:2.0px;stroke-linecap:butt;stroke-linejoin:miter;stroke-opacity:1"/>
<path class="bond-16 atom-9 atom-10" d="M 528.5,207.3 L 561.1,223.4" style="fill:none;fill-rule:evenodd;stroke:#000000;stroke-width:2.0px;stroke-linecap:butt;stroke-linejoin:miter;stroke-opacity:1"/>
<path class="bond-17 atom-9 atom-19" d="M 516.9,213.1 L 481.2,236.9" style="fill:none;fill-rule:evenodd;stroke:#000000;stroke-width:2.0px;stroke-linecap:butt;stroke-linejoin:miter;stroke-opacity:1"/>
<path class="bond-18 atom-10 atom-0" d="M 563.5,236.1 L 606.6,207.3" style="fill:none;fill-rule:evenodd;stroke:#000000;stroke-width:2.0px;stroke-linecap:butt;stroke-linejoin:miter;stroke-opacity:1"/>
<path class="bond-19 atom-10 atom-20" d="M 563.5,236.1 L 566.2,278.9" style="fill:none;fill-rule:evenodd;stroke:#000000;stroke-width:2.0px;stroke-linecap:butt;stroke-linejoin:miter;stroke-opacity:1"/>
<path class="bond-20 atom-14 atom-3" d="M 690.3,107.0 L 691.6,128.4" style="fill:none;fill-rule:evenodd;stroke:#0000FF;stroke-width:2.0px;stroke-linecap:butt;stroke-linejoin:miter;stroke-opacity:1"/>
<path class="bond-20 atom-14 atom-3" d="M 691.6,128.4 L 693.0,149.8" style="fill:none;fill-rule:evenodd;stroke:#000000;stroke-width:2.0px;stroke-linecap:butt;stroke-linejoin:miter;stroke-opacity:1"/>
<path class="bond-21 atom-14 atom-22" d="M 696.9,93.2 L 714.9,81.2" style="fill:none;fill-rule:evenodd;stroke:#0000FF;stroke-width:2.0px;stroke-linecap:butt;stroke-linejoin:miter;stroke-opacity:1"/>
<path class="bond-21 atom-14 atom-22" d="M 714.9,81.2 L 732.9,69.3" style="fill:none;fill-rule:evenodd;stroke:#000000;stroke-width:2.0px;stroke-linecap:butt;stroke-linejoin:miter;stroke-opacity:1"/>
<path class="bond-22 atom-14 atom-26" d="M 682.5,94.4 L 666.5,86.6" style="fill:none;fill-rule:evenodd;stroke:#0000FF;stroke-width:2.0px;stroke-linecap:butt;stroke-linejoin:miter;stroke-opacity:1"/>
<path class="bond-22 atom-14 atom-26" d="M 666.5,86.6 L 650.6,78.7" style="fill:none;fill-rule:evenodd;stroke:#000000;stroke-width:2.0px;stroke-linecap:butt;stroke-linejoin:miter;stroke-opacity:1"/>
<path class="bond-23 atom-21 atom-7" d="M 474.4,141.9 L 494.0,151.6" style="fill:none;fill-rule:evenodd;stroke:#0000FF;stroke-width:2.0px;stroke-linecap:butt;stroke-linejoin:miter;stroke-opacity:1"/>
<path class="bond-23 atom-21 atom-7" d="M 494.0,151.6 L 513.6,161.3" style="fill:none;fill-rule:evenodd;stroke:#000000;stroke-width:2.0px;stroke-linecap:butt;stroke-linejoin:miter;stroke-opacity:1"/>
<path class="bond-24 atom-21 atom-23" d="M 459.9,143.1 L 445.6,152.6" style="fill:none;fill-rule:evenodd;stroke:#0000FF;stroke-width:2.0px;stroke-linecap:butt;stroke-linejoin:miter;stroke-opacity:1"/>
<path class="bond-24 atom-21 atom-23" d="M 445.6,152.6 L 431.4,162.1" style="fill:none;fill-rule:evenodd;stroke:#000000;stroke-width:2.0px;stroke-linecap:butt;stroke-linejoin:miter;stroke-opacity:1"/>
<path class="bond-25 atom-21 atom-27" d="M 466.5,129.3 L 465.5,112.4" style="fill:none;fill-rule:evenodd;stroke:#0000FF;stroke-width:2.0px;stroke-linecap:butt;stroke-linejoin:miter;stroke-opacity:1"/>
<path class="bond-25 atom-21 atom-27" d="M 465.5,112.4 L 464.4,95.5" style="fill:none;fill-rule:evenodd;stroke:#000000;stroke-width:2.0px;stroke-linecap:butt;stroke-linejoin:miter;stroke-opacity:1"/>
<path class="bond-26 atom-22 atom-24" d="M 732.9,69.3 L 710.1,35.1" style="fill:none;fill-rule:evenodd;stroke:#000000;stroke-width:2.0px;stroke-linecap:butt;stroke-linejoin:miter;stroke-opacity:1"/>
<path class="bond-27 atom-22 atom-25" d="M 732.9,69.3 L 755.6,103.4" style="fill:none;fill-rule:evenodd;stroke:#000000;stroke-width:2.0px;stroke-linecap:butt;stroke-linejoin:miter;stroke-opacity:1"/>
<path class="bond-28 atom-22 atom-28" d="M 732.9,69.3 L 768.6,45.4" style="fill:none;fill-rule:evenodd;stroke:#000000;stroke-width:2.0px;stroke-linecap:butt;stroke-linejoin:miter;stroke-opacity:1"/>
<path class="atom-1" d="M 649.9 223.0 L 654.7 230.8 Q 655.2 231.6, 656.0 233.0 Q 656.7 234.3, 656.8 234.4 L 656.8 223.0 L 658.7 223.0 L 658.7 237.7 L 656.7 237.7 L 651.5 229.2 Q 650.9 228.2, 650.3 227.1 Q 649.7 225.9, 649.5 225.6 L 649.5 237.7 L 647.6 237.7 L 647.6 223.0 L 649.9 223.0 " fill="#0000FF"/>
<path class="atom-5" d="M 736.1 224.7 Q 736.1 221.1, 737.8 219.1 Q 739.6 217.2, 742.8 217.2 Q 746.1 217.2, 747.9 219.1 Q 749.6 221.1, 749.6 224.7 Q 749.6 228.2, 747.8 230.3 Q 746.1 232.3, 742.8 232.3 Q 739.6 232.3, 737.8 230.3 Q 736.1 228.2, 736.1 224.7 M 742.8 230.6 Q 745.1 230.6, 746.3 229.1 Q 747.5 227.6, 747.5 224.7 Q 747.5 221.8, 746.3 220.3 Q 745.1 218.8, 742.8 218.8 Q 740.6 218.8, 739.4 220.3 Q 738.2 221.7, 738.2 224.7 Q 738.2 227.6, 739.4 229.1 Q 740.6 230.6, 742.8 230.6 " fill="#FF0000"/>
<path class="atom-11" d="M 702.5 271.5 L 704.5 271.5 L 704.5 277.7 L 712.0 277.7 L 712.0 271.5 L 714.0 271.5 L 714.0 286.2 L 712.0 286.2 L 712.0 279.4 L 704.5 279.4 L 704.5 286.2 L 702.5 286.2 L 702.5 271.5 " fill="#000000"/>
<path class="atom-12" d="M 598.9 278.1 L 600.9 278.1 L 600.9 284.4 L 608.4 284.4 L 608.4 278.1 L 610.4 278.1 L 610.4 292.8 L 608.4 292.8 L 608.4 286.0 L 600.9 286.0 L 600.9 292.8 L 598.9 292.8 L 598.9 278.1 " fill="#000000"/>
<path class="atom-13" d="M 654.0 326.6 L 656.0 326.6 L 656.0 332.8 L 663.6 332.8 L 663.6 326.6 L 665.5 326.6 L 665.5 341.3 L 663.6 341.3 L 663.6 334.5 L 656.0 334.5 L 656.0 341.3 L 654.0 341.3 L 654.0 326.6 " fill="#000000"/>
<path class="atom-14" d="M 686.4 90.7 L 691.3 98.5 Q 691.7 99.2, 692.5 100.6 Q 693.3 102.0, 693.3 102.1 L 693.3 90.7 L 695.3 90.7 L 695.3 105.4 L 693.3 105.4 L 688.1 96.9 Q 687.5 95.9, 686.8 94.7 Q 686.2 93.6, 686.0 93.2 L 686.0 105.4 L 684.1 105.4 L 684.1 90.7 L 686.4 90.7 " fill="#0000FF"/>
<path class="atom-15" d="M 653.3 140.5 L 655.3 140.5 L 655.3 146.7 L 662.8 146.7 L 662.8 140.5 L 664.8 140.5 L 664.8 155.2 L 662.8 155.2 L 662.8 148.4 L 655.3 148.4 L 655.3 155.2 L 653.3 155.2 L 653.3 140.5 " fill="#000000"/>
<path class="atom-16" d="M 739.1 139.1 L 741.0 139.1 L 741.0 145.4 L 748.6 145.4 L 748.6 139.1 L 750.6 139.1 L 750.6 153.8 L 748.6 153.8 L 748.6 147.0 L 741.0 147.0 L 741.0 153.8 L 739.1 153.8 L 739.1 139.1 " fill="#000000"/>
<path class="atom-17" d="M 623.4 126.0 L 625.4 126.0 L 625.4 132.3 L 632.9 132.3 L 632.9 126.0 L 634.9 126.0 L 634.9 140.7 L 632.9 140.7 L 632.9 133.9 L 625.4 133.9 L 625.4 140.7 L 623.4 140.7 L 623.4 126.0 " fill="#000000"/>
<path class="atom-18" d="M 547.7 73.4 L 549.7 73.4 L 549.7 79.7 L 557.2 79.7 L 557.2 73.4 L 559.2 73.4 L 559.2 88.1 L 557.2 88.1 L 557.2 81.3 L 549.7 81.3 L 549.7 88.1 L 547.7 88.1 L 547.7 73.4 " fill="#000000"/>
<path class="atom-19" d="M 468.0 234.5 L 470.0 234.5 L 470.0 240.8 L 477.5 240.8 L 477.5 234.5 L 479.5 234.5 L 479.5 249.2 L 477.5 249.2 L 477.5 242.4 L 470.0 242.4 L 470.0 249.2 L 468.0 249.2 L 468.0 234.5 " fill="#000000"/>
<path class="atom-20" d="M 561.0 280.6 L 563.0 280.6 L 563.0 286.8 L 570.5 286.8 L 570.5 280.6 L 572.5 280.6 L 572.5 295.3 L 570.5 295.3 L 570.5 288.5 L 563.0 288.5 L 563.0 295.3 L 561.0 295.3 L 561.0 280.6 " fill="#000000"/>
<path class="atom-21" d="M 463.9 131.0 L 468.7 138.7 Q 469.2 139.5, 469.9 140.9 Q 470.7 142.3, 470.7 142.4 L 470.7 131.0 L 472.7 131.0 L 472.7 145.6 L 470.7 145.6 L 465.5 137.1 Q 464.9 136.1, 464.3 135.0 Q 463.6 133.9, 463.5 133.5 L 463.5 145.6 L 461.5 145.6 L 461.5 131.0 L 463.9 131.0 " fill="#0000FF"/>
<path class="atom-23" d="M 418.2 159.7 L 420.2 159.7 L 420.2 166.0 L 427.7 166.0 L 427.7 159.7 L 429.7 159.7 L 429.7 174.4 L 427.7 174.4 L 427.7 167.6 L 420.2 167.6 L 420.2 174.4 L 418.2 174.4 L 418.2 159.7 " fill="#000000"/>
<path class="atom-24" d="M 698.4 18.7 L 700.4 18.7 L 700.4 25.0 L 707.9 25.0 L 707.9 18.7 L 709.9 18.7 L 709.9 33.4 L 707.9 33.4 L 707.9 26.6 L 700.4 26.6 L 700.4 33.4 L 698.4 33.4 L 698.4 18.7 " fill="#000000"/>
<path class="atom-25" d="M 755.9 105.1 L 757.9 105.1 L 757.9 111.3 L 765.4 111.3 L 765.4 105.1 L 767.4 105.1 L 767.4 119.8 L 765.4 119.8 L 765.4 113.0 L 757.9 113.0 L 757.9 119.8 L 755.9 119.8 L 755.9 105.1 " fill="#000000"/>
<path class="atom-26" d="M 637.4 67.7 L 639.4 67.7 L 639.4 73.9 L 646.9 73.9 L 646.9 67.7 L 648.9 67.7 L 648.9 82.4 L 646.9 82.4 L 646.9 75.6 L 639.4 75.6 L 639.4 82.4 L 637.4 82.4 L 637.4 67.7 " fill="#000000"/>
<path class="atom-27" d="M 458.0 79.2 L 460.0 79.2 L 460.0 85.4 L 467.6 85.4 L 467.6 79.2 L 469.5 79.2 L 469.5 93.9 L 467.6 93.9 L 467.6 87.1 L 460.0 87.1 L 460.0 93.9 L 458.0 93.9 L 458.0 79.2 " fill="#000000"/>
<path class="atom-28" d="M 770.3 33.1 L 772.3 33.1 L 772.3 39.4 L 779.8 39.4 L 779.8 33.1 L 781.8 33.1 L 781.8 47.8 L 779.8 47.8 L 779.8 41.0 L 772.3 41.0 L 772.3 47.8 L 770.3 47.8 L 770.3 33.1 " fill="#000000"/>
<path class="legend" d="M 495.6 380.0 Q 496.7 380.3, 497.3 381.1 Q 497.8 381.8, 497.8 382.9 Q 497.8 383.8, 497.3 384.6 Q 496.9 385.3, 496.0 385.7 Q 495.1 386.1, 493.9 386.1 Q 492.7 386.1, 491.8 385.7 Q 490.9 385.3, 490.2 384.4 L 491.1 383.5 Q 491.8 384.3, 492.4 384.6 Q 493.0 384.9, 493.9 384.9 Q 495.0 384.9, 495.6 384.3 Q 496.2 383.8, 496.2 382.9 Q 496.2 381.7, 495.6 381.2 Q 494.9 380.7, 493.5 380.7 L 492.7 380.7 L 492.7 379.5 L 493.4 379.5 Q 494.7 379.5, 495.3 379.0 Q 496.0 378.4, 496.0 377.4 Q 496.0 376.7, 495.4 376.3 Q 494.9 375.8, 494.0 375.8 Q 493.0 375.8, 492.4 376.1 Q 491.8 376.5, 491.4 377.3 L 490.3 376.7 Q 490.7 375.8, 491.7 375.2 Q 492.6 374.5, 494.0 374.5 Q 495.6 374.5, 496.6 375.3 Q 497.6 376.1, 497.6 377.4 Q 497.6 378.3, 497.1 379.0 Q 496.6 379.6, 495.6 380.0 " fill="#000000"/>
<path class="legend" d="M 506.9 386.8 L 506.9 388.1 L 498.8 388.1 L 498.8 386.8 L 506.9 386.8 " fill="#000000"/>
<path class="legend" d="M 507.0 376.8 Q 507.4 375.7, 508.4 375.1 Q 509.4 374.5, 510.7 374.5 Q 512.4 374.5, 513.4 375.5 Q 514.4 376.4, 514.4 378.0 Q 514.4 379.7, 513.1 381.3 Q 511.9 382.8, 509.3 384.7 L 514.6 384.7 L 514.6 386.0 L 506.9 386.0 L 506.9 384.9 Q 509.0 383.4, 510.3 382.3 Q 511.5 381.2, 512.2 380.2 Q 512.8 379.2, 512.8 378.1 Q 512.8 377.0, 512.2 376.4 Q 511.7 375.8, 510.7 375.8 Q 509.8 375.8, 509.2 376.2 Q 508.6 376.5, 508.2 377.4 L 507.0 376.8 " fill="#000000"/>
<path class="legend" d="M 519.6 378.9 Q 520.6 378.9, 521.4 379.3 Q 522.2 379.7, 522.7 380.5 Q 523.2 381.3, 523.2 382.4 Q 523.2 383.6, 522.6 384.4 Q 522.0 385.2, 521.1 385.7 Q 520.2 386.1, 519.1 386.1 Q 518.1 386.1, 517.1 385.7 Q 516.2 385.3, 515.5 384.6 L 516.5 383.6 Q 517.0 384.2, 517.7 384.5 Q 518.4 384.8, 519.2 384.8 Q 520.2 384.8, 520.9 384.2 Q 521.6 383.6, 521.6 382.4 Q 521.6 381.2, 520.9 380.7 Q 520.2 380.1, 519.1 380.1 Q 518.1 380.1, 517.0 380.5 L 516.1 380.1 L 516.6 374.7 L 522.5 374.7 L 522.3 375.9 L 518.0 375.9 L 517.6 379.3 Q 518.6 378.9, 519.6 378.9 " fill="#000000"/>
<path class="legend" d="M 532.1 386.8 L 532.1 388.1 L 523.9 388.1 L 523.9 386.8 L 532.1 386.8 " fill="#000000"/>
<path class="legend" d="M 532.1 374.6 L 533.6 374.6 L 533.6 386.0 L 532.1 386.0 L 532.1 374.6 " fill="#000000"/>
<path class="legend" d="M 539.3 377.6 Q 540.6 377.6, 541.3 378.4 Q 542.0 379.1, 542.0 380.5 L 542.0 386.0 L 540.5 386.0 L 540.5 380.7 Q 540.5 379.7, 540.1 379.2 Q 539.8 378.8, 538.9 378.8 Q 538.2 378.8, 537.6 379.2 Q 536.9 379.5, 536.5 380.1 L 536.5 386.0 L 535.0 386.0 L 535.0 377.8 L 536.3 377.8 L 536.4 378.9 Q 537.5 377.6, 539.3 377.6 " fill="#000000"/>
<path class="legend" d="M 550.7 373.8 L 550.7 386.0 L 549.5 386.0 L 549.3 385.0 Q 548.4 386.1, 546.9 386.1 Q 545.2 386.1, 544.2 385.1 Q 543.3 384.0, 543.3 382.0 Q 543.3 379.9, 544.4 378.8 Q 545.5 377.6, 547.5 377.6 Q 548.3 377.6, 549.2 377.8 L 549.2 373.8 L 550.7 373.8 M 547.0 384.9 Q 547.8 384.9, 548.4 384.5 Q 549.0 384.0, 549.2 383.2 L 549.2 379.0 Q 548.4 378.8, 547.5 378.8 Q 546.2 378.8, 545.5 379.6 Q 544.8 380.5, 544.8 382.0 Q 544.8 383.4, 545.4 384.2 Q 545.9 384.9, 547.0 384.9 " fill="#000000"/>
<path class="legend" d="M 552.0 381.9 Q 552.0 379.8, 553.0 378.7 Q 554.0 377.6, 555.9 377.6 Q 557.7 377.6, 558.5 378.7 Q 559.3 379.8, 559.3 381.8 L 559.3 382.1 L 553.5 382.1 Q 553.6 383.5, 554.2 384.2 Q 554.8 384.9, 556.0 384.9 Q 556.6 384.9, 557.2 384.8 Q 557.8 384.6, 558.5 384.3 L 559.0 385.3 Q 558.2 385.7, 557.4 385.9 Q 556.7 386.1, 555.9 386.1 Q 554.1 386.1, 553.0 385.0 Q 552.0 383.9, 552.0 381.9 M 555.9 378.8 Q 554.9 378.8, 554.3 379.3 Q 553.8 379.9, 553.6 380.9 L 557.7 380.9 Q 557.6 379.8, 557.1 379.3 Q 556.7 378.8, 555.9 378.8 " fill="#000000"/>
<path class="legend" d="M 562.9 381.7 L 560.1 377.8 L 561.8 377.8 L 563.8 380.6 L 565.8 377.8 L 567.4 377.8 L 564.6 381.7 L 567.7 386.0 L 565.9 386.0 L 563.7 382.9 L 561.5 386.0 L 559.9 386.0 L 562.9 381.7 " fill="#000000"/>
<path class="legend" d="M 576.0 386.8 L 576.0 388.1 L 567.8 388.1 L 567.8 386.8 L 576.0 386.8 " fill="#000000"/>
<path class="legend" d="M 580.1 386.1 Q 578.0 386.1, 577.0 384.6 Q 576.0 383.0, 576.0 380.3 Q 576.0 377.6, 577.0 376.0 Q 578.0 374.5, 580.1 374.5 Q 582.2 374.5, 583.2 376.0 Q 584.2 377.6, 584.2 380.3 Q 584.2 383.0, 583.2 384.6 Q 582.2 386.1, 580.1 386.1 M 580.1 384.8 Q 581.3 384.8, 582.0 383.7 Q 582.6 382.5, 582.6 380.3 Q 582.6 378.1, 582.0 376.9 Q 581.3 375.8, 580.1 375.8 Q 578.9 375.8, 578.2 376.9 Q 577.6 378.1, 577.6 380.3 Q 577.6 382.5, 578.2 383.7 Q 578.9 384.8, 580.1 384.8 " fill="#000000"/>
<path class="legend" d="M 593.4 386.8 L 593.4 388.1 L 585.3 388.1 L 585.3 386.8 L 593.4 386.8 " fill="#000000"/>
<path class="legend" d="M 602.6 380.4 L 602.6 385.2 Q 600.9 386.1, 598.6 386.1 Q 596.1 386.1, 594.8 384.6 Q 593.4 383.1, 593.4 380.3 Q 593.4 377.5, 594.8 376.0 Q 596.1 374.5, 598.6 374.5 Q 599.9 374.5, 600.9 374.9 Q 601.8 375.3, 602.5 376.2 L 601.5 377.0 Q 600.4 375.8, 598.6 375.8 Q 596.9 375.8, 596.0 377.0 Q 595.1 378.1, 595.1 380.3 Q 595.1 382.5, 596.0 383.7 Q 597.0 384.8, 598.8 384.8 Q 600.0 384.8, 601.0 384.5 L 601.0 380.4 L 602.6 380.4 " fill="#000000"/>
<path class="legend" d="M 605.0 377.8 L 605.1 378.9 Q 606.0 377.6, 607.4 377.6 Q 607.9 377.6, 608.5 377.8 L 608.2 379.1 Q 607.5 379.0, 607.2 379.0 Q 606.5 379.0, 606.0 379.2 Q 605.6 379.5, 605.3 380.1 L 605.3 386.0 L 603.8 386.0 L 603.8 377.8 L 605.0 377.8 " fill="#000000"/>
<path class="legend" d="M 608.7 381.9 Q 608.7 379.9, 609.7 378.7 Q 610.7 377.6, 612.6 377.6 Q 614.5 377.6, 615.5 378.7 Q 616.5 379.9, 616.5 381.9 Q 616.5 383.9, 615.5 385.0 Q 614.5 386.1, 612.6 386.1 Q 610.7 386.1, 609.7 385.0 Q 608.7 383.9, 608.7 381.9 M 610.2 381.9 Q 610.2 383.4, 610.9 384.1 Q 611.5 384.9, 612.6 384.9 Q 613.8 384.9, 614.4 384.1 Q 615.0 383.4, 615.0 381.9 Q 615.0 380.4, 614.4 379.6 Q 613.8 378.8, 612.6 378.8 Q 611.5 378.8, 610.9 379.6 Q 610.2 380.4, 610.2 381.9 " fill="#000000"/>
<path class="legend" d="M 627.6 377.8 L 629.1 377.8 L 626.8 386.0 L 624.8 386.0 L 623.1 379.8 L 621.5 386.0 L 619.6 386.0 L 617.3 377.8 L 618.8 377.8 L 620.6 384.5 L 622.4 377.8 L 623.9 377.8 L 625.8 384.5 L 627.6 377.8 " fill="#000000"/>
<path class="legend" d="M 629.5 374.7 L 636.3 374.7 L 636.3 376.0 L 631.1 376.0 L 631.1 379.4 L 635.7 379.4 L 635.7 380.7 L 631.1 380.7 L 631.1 386.0 L 629.5 386.0 L 629.5 374.7 " fill="#000000"/>
<path class="legend" d="M 637.8 377.8 L 638.0 378.9 Q 638.9 377.6, 640.3 377.6 Q 640.7 377.6, 641.4 377.8 L 641.1 379.1 Q 640.4 379.0, 640.0 379.0 Q 639.4 379.0, 638.9 379.2 Q 638.5 379.5, 638.1 380.1 L 638.1 386.0 L 636.6 386.0 L 636.6 377.8 L 637.8 377.8 " fill="#000000"/>
<path class="legend" d="M 641.6 383.8 Q 641.6 382.4, 642.6 381.7 Q 643.7 381.0, 645.6 381.0 L 646.9 381.0 L 646.9 380.7 Q 646.9 379.7, 646.4 379.2 Q 646.0 378.8, 645.0 378.8 Q 644.3 378.8, 643.8 378.9 Q 643.3 379.0, 642.5 379.4 L 642.1 378.4 Q 643.6 377.6, 645.0 377.6 Q 646.8 377.6, 647.6 378.4 Q 648.4 379.1, 648.4 380.7 L 648.4 386.0 L 647.2 386.0 Q 647.2 385.9, 647.1 385.7 Q 647.1 385.4, 647.0 385.0 Q 645.8 386.2, 644.3 386.2 Q 643.1 386.2, 642.3 385.5 Q 641.6 384.9, 641.6 383.8 M 643.1 383.7 Q 643.1 384.3, 643.5 384.7 Q 643.9 385.0, 644.6 385.0 Q 645.2 385.0, 645.8 384.7 Q 646.4 384.4, 646.9 383.9 L 646.9 382.1 L 645.7 382.1 Q 644.4 382.1, 643.8 382.5 Q 643.1 382.9, 643.1 383.7 " fill="#000000"/>
<path class="legend" d="M 657.1 377.7 L 657.1 386.5 Q 657.1 390.0, 653.3 390.0 Q 651.5 390.0, 649.9 389.2 L 650.4 388.1 Q 651.3 388.5, 651.9 388.7 Q 652.5 388.8, 653.3 388.8 Q 654.5 388.8, 655.0 388.3 Q 655.6 387.7, 655.6 386.5 L 655.6 385.1 Q 654.7 386.1, 653.2 386.1 Q 651.5 386.1, 650.5 385.1 Q 649.6 384.0, 649.6 382.0 Q 649.6 379.9, 650.7 378.8 Q 651.8 377.6, 653.8 377.6 Q 654.9 377.6, 655.8 377.9 L 655.9 377.7 L 657.1 377.7 M 653.3 384.9 Q 654.1 384.9, 654.7 384.5 Q 655.3 384.0, 655.6 383.2 L 655.6 379.0 Q 654.7 378.8, 653.8 378.8 Q 652.6 378.8, 651.8 379.6 Q 651.1 380.5, 651.1 382.0 Q 651.1 383.4, 651.7 384.2 Q 652.3 384.9, 653.3 384.9 " fill="#000000"/>
<path class="legend" d="M 667.9 377.6 Q 669.3 377.6, 670.0 378.4 Q 670.7 379.1, 670.7 380.5 L 670.7 386.0 L 669.2 386.0 L 669.2 380.7 Q 669.2 379.7, 668.8 379.2 Q 668.4 378.8, 667.6 378.8 Q 666.9 378.8, 666.3 379.2 Q 665.7 379.5, 665.3 380.1 Q 665.3 380.2, 665.3 380.5 L 665.3 386.0 L 663.8 386.0 L 663.8 380.7 Q 663.8 379.7, 663.4 379.2 Q 663.0 378.8, 662.2 378.8 Q 661.5 378.8, 660.9 379.2 Q 660.3 379.5, 659.9 380.1 L 659.9 386.0 L 658.4 386.0 L 658.4 377.8 L 659.6 377.8 L 659.8 378.9 Q 660.9 377.6, 662.5 377.6 Q 664.4 377.6, 665.0 379.1 Q 666.1 377.6, 667.9 377.6 " fill="#000000"/>
<path class="legend" d="M 671.9 381.9 Q 671.9 379.8, 672.9 378.7 Q 673.9 377.6, 675.8 377.6 Q 677.6 377.6, 678.4 378.7 Q 679.2 379.8, 679.2 381.8 L 679.2 382.1 L 673.5 382.1 Q 673.5 383.5, 674.1 384.2 Q 674.7 384.9, 675.9 384.9 Q 676.6 384.9, 677.1 384.8 Q 677.7 384.6, 678.5 384.3 L 678.9 385.3 Q 678.1 385.7, 677.3 385.9 Q 676.6 386.1, 675.8 386.1 Q 674.0 386.1, 673.0 385.0 Q 671.9 383.9, 671.9 381.9 M 675.8 378.8 Q 674.8 378.8, 674.3 379.3 Q 673.7 379.9, 673.5 380.9 L 677.6 380.9 Q 677.5 379.8, 677.1 379.3 Q 676.6 378.8, 675.8 378.8 " fill="#000000"/>
<path class="legend" d="M 684.1 377.6 Q 685.4 377.6, 686.1 378.4 Q 686.8 379.1, 686.8 380.5 L 686.8 386.0 L 685.3 386.0 L 685.3 380.7 Q 685.3 379.7, 684.9 379.2 Q 684.6 378.8, 683.7 378.8 Q 683.0 378.8, 682.3 379.2 Q 681.7 379.5, 681.3 380.1 L 681.3 386.0 L 679.8 386.0 L 679.8 377.8 L 681.0 377.8 L 681.2 378.9 Q 682.3 377.6, 684.1 377.6 " fill="#000000"/>
<path class="legend" d="M 688.0 378.9 L 688.0 377.8 L 689.6 377.8 L 689.9 375.4 L 691.0 375.4 L 691.0 377.8 L 693.5 377.8 L 693.5 378.9 L 691.0 378.9 L 691.0 383.5 Q 691.0 384.9, 692.2 384.9 Q 692.7 384.9, 693.4 384.7 L 693.6 385.7 Q 692.7 386.1, 691.9 386.1 Q 690.8 386.1, 690.2 385.4 Q 689.5 384.8, 689.5 383.5 L 689.5 378.9 L 688.0 378.9 " fill="#000000"/>
<path class="legend" d="M 702.2 386.8 L 702.2 388.1 L 694.0 388.1 L 694.0 386.8 L 702.2 386.8 " fill="#000000"/>
<path class="legend" d="M 707.6 380.0 Q 708.7 380.3, 709.3 381.1 Q 709.8 381.8, 709.8 382.9 Q 709.8 383.8, 709.3 384.6 Q 708.8 385.3, 708.0 385.7 Q 707.1 386.1, 705.9 386.1 Q 704.7 386.1, 703.8 385.7 Q 702.9 385.3, 702.2 384.4 L 703.1 383.5 Q 703.8 384.3, 704.4 384.6 Q 705.0 384.9, 705.9 384.9 Q 707.0 384.9, 707.6 384.3 Q 708.2 383.8, 708.2 382.9 Q 708.2 381.7, 707.5 381.2 Q 706.9 380.7, 705.5 380.7 L 704.7 380.7 L 704.7 379.5 L 705.4 379.5 Q 706.6 379.5, 707.3 379.0 Q 708.0 378.4, 708.0 377.4 Q 708.0 376.7, 707.4 376.3 Q 706.9 375.8, 705.9 375.8 Q 705.0 375.8, 704.4 376.1 Q 703.8 376.5, 703.4 377.3 L 702.3 376.7 Q 702.7 375.8, 703.6 375.2 Q 704.6 374.5, 705.9 374.5 Q 707.6 374.5, 708.6 375.3 Q 709.6 376.1, 709.6 377.4 Q 709.6 378.3, 709.1 379.0 Q 708.6 379.6, 707.6 380.0 " fill="#000000"/>
<text x="256.5165299796598" y="223.71393311169854" font-size="12" font-family="Verdana" font-weight="bold" letter-spacing="0" text-anchor="start" fill="black" transform=" rotate(70.048608 256.516530 223.713933)">0.155</text><text x="674.747330997314" y="235.97838023543113" font-size="12" font-family="Verdana" font-weight="bold" letter-spacing="0" text-anchor="start" fill="black" transform=" rotate(56.328985 674.747331 235.978380)">0.1445</text></svg>
