<?xml version='1.0' encoding='ASCII' standalone='yes'?>
<svg xmlns="http://www.w3.org/2000/svg" xmlns:rdkit="http://www.rdkit.org/xml" xmlns:xlink="http://www.w3.org/1999/xlink" version="1.1" baseProfile="full" xml:space="preserve" width="1200px" height="800px" viewBox="0 0 1200 800">
<!-- END OF HEADER -->
<rect style="opacity:1.0;fill:#FFFFFF;stroke:none" width="1200" height="800" x="0" y="0"> </rect>
<rect style="opacity:1.0;fill:#FFFFFF;stroke:none" width="1200" height="800" x="0" y="0"> </rect>
<rect style="opacity:1.0;fill:#FFFFFF;stroke:none" width="1200" height="800" x="0" y="0"> </rect>
<rect style="opacity:1.0;fill:#FFFFFF;stroke:none" width="1200" height="800" x="0" y="0"> </rect>
<rect style="opacity:1.0;fill:#FFFFFF;stroke:none" width="1200" height="800" x="0" y="0"> </rect>
<path d="M 320.244,179.295 L 281.194,219.969" style="fill:none;fill-rule:evenodd;stroke:#FF7F7F;stroke-width:12.0px;stroke-linecap:butt;stroke-linejoin:miter;stroke-opacity:1"/>
<path class="bond-1 atom-1 atom-0" d="M 318.896,184.77 L 341.9,190.434" style="fill:none;fill-rule:evenodd;stroke:#000000;stroke-width:2.0px;stroke-linecap:butt;stroke-linejoin:miter;stroke-opacity:1"/>
<path class="bond-1 atom-1 atom-0" d="M 341.9,190.434 L 364.905,196.099" style="fill:none;fill-rule:evenodd;stroke:#FF0000;stroke-width:2.0px;stroke-linecap:butt;stroke-linejoin:miter;stroke-opacity:1"/>
<path class="bond-1 atom-1 atom-0" d="M 321.592,173.82 L 344.597,179.484" style="fill:none;fill-rule:evenodd;stroke:#000000;stroke-width:2.0px;stroke-linecap:butt;stroke-linejoin:miter;stroke-opacity:1"/>
<path class="bond-1 atom-1 atom-0" d="M 344.597,179.484 L 367.601,185.149" style="fill:none;fill-rule:evenodd;stroke:#FF0000;stroke-width:2.0px;stroke-linecap:butt;stroke-linejoin:miter;stroke-opacity:1"/>
<path class="bond-0 atom-1 atom-10" d="M 320.244,179.295 L 304.544,125.14" style="fill:none;fill-rule:evenodd;stroke:#000000;stroke-width:2.0px;stroke-linecap:butt;stroke-linejoin:miter;stroke-opacity:1"/>
<path class="bond-3 atom-2 atom-1" d="M 288.66,212.193 L 304.452,195.744" style="fill:none;fill-rule:evenodd;stroke:#0000FF;stroke-width:2.0px;stroke-linecap:butt;stroke-linejoin:miter;stroke-opacity:1"/>
<path class="bond-3 atom-2 atom-1" d="M 304.452,195.744 L 320.244,179.295" style="fill:none;fill-rule:evenodd;stroke:#000000;stroke-width:2.0px;stroke-linecap:butt;stroke-linejoin:miter;stroke-opacity:1"/>
<path class="bond-2 atom-2 atom-4" d="M 273.729,218.131 L 250.087,212.31" style="fill:none;fill-rule:evenodd;stroke:#0000FF;stroke-width:2.0px;stroke-linecap:butt;stroke-linejoin:miter;stroke-opacity:1"/>
<path class="bond-2 atom-2 atom-4" d="M 250.087,212.31 L 226.445,206.488" style="fill:none;fill-rule:evenodd;stroke:#000000;stroke-width:2.0px;stroke-linecap:butt;stroke-linejoin:miter;stroke-opacity:1"/>
<path class="bond-4 atom-2 atom-3" d="M 283.918,229.363 L 290.406,251.743" style="fill:none;fill-rule:evenodd;stroke:#0000FF;stroke-width:2.0px;stroke-linecap:butt;stroke-linejoin:miter;stroke-opacity:1"/>
<path class="bond-4 atom-2 atom-3" d="M 290.406,251.743 L 296.895,274.124" style="fill:none;fill-rule:evenodd;stroke:#000000;stroke-width:2.0px;stroke-linecap:butt;stroke-linejoin:miter;stroke-opacity:1"/>
<path class="bond-5 atom-3 atom-11" d="M 296.895,274.124 L 343.392,260.643" style="fill:none;fill-rule:evenodd;stroke:#000000;stroke-width:2.0px;stroke-linecap:butt;stroke-linejoin:miter;stroke-opacity:1"/>
<path class="bond-6 atom-3 atom-12" d="M 296.895,274.124 L 250.397,287.604" style="fill:none;fill-rule:evenodd;stroke:#000000;stroke-width:2.0px;stroke-linecap:butt;stroke-linejoin:miter;stroke-opacity:1"/>
<path class="bond-7 atom-3 atom-13" d="M 296.895,274.124 L 309.871,318.885" style="fill:none;fill-rule:evenodd;stroke:#000000;stroke-width:2.0px;stroke-linecap:butt;stroke-linejoin:miter;stroke-opacity:1"/>
<path class="bond-15 atom-8 atom-4" d="M 210.745,152.334 L 226.445,206.488" style="fill:none;fill-rule:evenodd;stroke:#000000;stroke-width:2.0px;stroke-linecap:butt;stroke-linejoin:miter;stroke-opacity:1"/>
<path class="bond-15 atom-8 atom-4" d="M 202.269,163.597 L 213.259,201.505" style="fill:none;fill-rule:evenodd;stroke:#000000;stroke-width:2.0px;stroke-linecap:butt;stroke-linejoin:miter;stroke-opacity:1"/>
<path class="bond-17 atom-9 atom-4" d="M 187.396,247.163 L 226.445,206.488" style="fill:none;fill-rule:evenodd;stroke:#000000;stroke-width:2.0px;stroke-linecap:butt;stroke-linejoin:miter;stroke-opacity:1"/>
<path class="bond-8 atom-5 atom-6" d="M 116.946,179.527 L 155.996,138.853" style="fill:none;fill-rule:evenodd;stroke:#000000;stroke-width:2.0px;stroke-linecap:butt;stroke-linejoin:miter;stroke-opacity:1"/>
<path class="bond-8 atom-5 atom-6" d="M 130.939,181.236 L 158.273,152.764" style="fill:none;fill-rule:evenodd;stroke:#000000;stroke-width:2.0px;stroke-linecap:butt;stroke-linejoin:miter;stroke-opacity:1"/>
<path class="bond-9 atom-5 atom-7" d="M 116.946,179.527 L 132.647,233.682" style="fill:none;fill-rule:evenodd;stroke:#000000;stroke-width:2.0px;stroke-linecap:butt;stroke-linejoin:miter;stroke-opacity:1"/>
<path class="bond-10 atom-5 atom-20" d="M 116.946,179.527 L 69.854,167.932" style="fill:none;fill-rule:evenodd;stroke:#000000;stroke-width:2.0px;stroke-linecap:butt;stroke-linejoin:miter;stroke-opacity:1"/>
<path class="bond-11 atom-6 atom-8" d="M 155.996,138.853 L 210.745,152.334" style="fill:none;fill-rule:evenodd;stroke:#000000;stroke-width:2.0px;stroke-linecap:butt;stroke-linejoin:miter;stroke-opacity:1"/>
<path class="bond-12 atom-6 atom-14" d="M 155.996,138.853 L 143.019,94.0923" style="fill:none;fill-rule:evenodd;stroke:#000000;stroke-width:2.0px;stroke-linecap:butt;stroke-linejoin:miter;stroke-opacity:1"/>
<path class="bond-13 atom-7 atom-9" d="M 132.647,233.682 L 187.396,247.163" style="fill:none;fill-rule:evenodd;stroke:#000000;stroke-width:2.0px;stroke-linecap:butt;stroke-linejoin:miter;stroke-opacity:1"/>
<path class="bond-13 atom-7 atom-9" d="M 143.555,224.754 L 181.88,234.191" style="fill:none;fill-rule:evenodd;stroke:#000000;stroke-width:2.0px;stroke-linecap:butt;stroke-linejoin:miter;stroke-opacity:1"/>
<path class="bond-14 atom-7 atom-15" d="M 132.647,233.682 L 101.254,266.38" style="fill:none;fill-rule:evenodd;stroke:#000000;stroke-width:2.0px;stroke-linecap:butt;stroke-linejoin:miter;stroke-opacity:1"/>
<path class="bond-16 atom-8 atom-16" d="M 210.745,152.334 L 229.479,137.073" style="fill:none;fill-rule:evenodd;stroke:#000000;stroke-width:2.0px;stroke-linecap:butt;stroke-linejoin:miter;stroke-opacity:1"/>
<path class="bond-18 atom-9 atom-17" d="M 187.396,247.163 L 200.373,291.923" style="fill:none;fill-rule:evenodd;stroke:#000000;stroke-width:2.0px;stroke-linecap:butt;stroke-linejoin:miter;stroke-opacity:1"/>
<path class="bond-19 atom-10 atom-18" d="M 304.544,125.14 L 281.014,135.21" style="fill:none;fill-rule:evenodd;stroke:#000000;stroke-width:2.0px;stroke-linecap:butt;stroke-linejoin:miter;stroke-opacity:1"/>
<path class="bond-20 atom-10 atom-19" d="M 304.544,125.14 L 351.041,111.66" style="fill:none;fill-rule:evenodd;stroke:#000000;stroke-width:2.0px;stroke-linecap:butt;stroke-linejoin:miter;stroke-opacity:1"/>
<path class="bond-21 atom-10 atom-21" d="M 304.544,125.14 L 291.567,80.3794" style="fill:none;fill-rule:evenodd;stroke:#000000;stroke-width:2.0px;stroke-linecap:butt;stroke-linejoin:miter;stroke-opacity:1"/>
<path class="atom-0" d="M 367.663 192.821 Q 367.663 188.987, 369.558 186.844 Q 371.452 184.701, 374.993 184.701 Q 378.534 184.701, 380.428 186.844 Q 382.323 188.987, 382.323 192.821 Q 382.323 196.7, 380.406 198.91 Q 378.489 201.098, 374.993 201.098 Q 371.475 201.098, 369.558 198.91 Q 367.663 196.723, 367.663 192.821 M 374.993 199.294 Q 377.429 199.294, 378.737 197.67 Q 380.068 196.023, 380.068 192.821 Q 380.068 189.686, 378.737 188.107 Q 377.429 186.506, 374.993 186.506 Q 372.557 186.506, 371.227 188.084 Q 369.918 189.663, 369.918 192.821 Q 369.918 196.046, 371.227 197.67 Q 372.557 199.294, 374.993 199.294 " fill="#FF0000"/>
<path class="atom-2" d="M 277.665 211.985 L 282.897 220.443 Q 283.416 221.277, 284.25 222.788 Q 285.085 224.299, 285.13 224.39 L 285.13 211.985 L 287.25 211.985 L 287.25 227.953 L 285.062 227.953 L 279.447 218.706 Q 278.792 217.623, 278.093 216.383 Q 277.417 215.143, 277.214 214.759 L 277.214 227.953 L 275.139 227.953 L 275.139 211.985 L 277.665 211.985 " fill="#0000FF"/>
<path class="atom-11" d="M 344.802 250.439 L 346.967 250.439 L 346.967 257.228 L 355.131 257.228 L 355.131 250.439 L 357.297 250.439 L 357.297 266.408 L 355.131 266.408 L 355.131 259.032 L 346.967 259.032 L 346.967 266.408 L 344.802 266.408 L 344.802 250.439 " fill="#000000"/>
<path class="atom-12" d="M 236.493 281.84 L 238.658 281.84 L 238.658 288.628 L 246.822 288.628 L 246.822 281.84 L 248.987 281.84 L 248.987 297.808 L 246.822 297.808 L 246.822 290.433 L 238.658 290.433 L 238.658 297.808 L 236.493 297.808 L 236.493 281.84 " fill="#000000"/>
<path class="atom-13" d="M 306.347 320.294 L 308.512 320.294 L 308.512 327.083 L 316.677 327.083 L 316.677 320.294 L 318.842 320.294 L 318.842 336.262 L 316.677 336.262 L 316.677 328.887 L 308.512 328.887 L 308.512 336.262 L 306.347 336.262 L 306.347 320.294 " fill="#000000"/>
<path class="atom-14" d="M 134.048 76.7146 L 136.213 76.7146 L 136.213 83.5033 L 144.378 83.5033 L 144.378 76.7146 L 146.543 76.7146 L 146.543 92.6827 L 144.378 92.6827 L 144.378 85.3076 L 136.213 85.3076 L 136.213 92.6827 L 134.048 92.6827 L 134.048 76.7146 " fill="#000000"/>
<path class="atom-15" d="M 87.3499 266.372 L 89.5151 266.372 L 89.5151 273.161 L 97.6795 273.161 L 97.6795 266.372 L 99.8447 266.372 L 99.8447 282.34 L 97.6795 282.34 L 97.6795 274.965 L 89.5151 274.965 L 89.5151 282.34 L 87.3499 282.34 L 87.3499 266.372 " fill="#000000"/>
<path class="atom-16" d="M 230.311 123.322 L 232.477 123.322 L 232.477 130.111 L 240.641 130.111 L 240.641 123.322 L 242.806 123.322 L 242.806 139.29 L 240.641 139.29 L 240.641 131.915 L 232.477 131.915 L 232.477 139.29 L 230.311 139.29 L 230.311 123.322 " fill="#000000"/>
<path class="atom-17" d="M 196.849 293.333 L 199.014 293.333 L 199.014 300.122 L 207.178 300.122 L 207.178 293.333 L 209.343 293.333 L 209.343 309.301 L 207.178 309.301 L 207.178 301.926 L 199.014 301.926 L 199.014 309.301 L 196.849 309.301 L 196.849 293.333 " fill="#000000"/>
<path class="atom-18" d="M 267.687 130.256 L 269.852 130.256 L 269.852 137.045 L 278.017 137.045 L 278.017 130.256 L 280.182 130.256 L 280.182 146.224 L 278.017 146.224 L 278.017 138.849 L 269.852 138.849 L 269.852 146.224 L 267.687 146.224 L 267.687 130.256 " fill="#000000"/>
<path class="atom-19" d="M 352.451 101.456 L 354.616 101.456 L 354.616 108.245 L 362.78 108.245 L 362.78 101.456 L 364.946 101.456 L 364.946 117.424 L 362.78 117.424 L 362.78 110.049 L 354.616 110.049 L 354.616 117.424 L 352.451 117.424 L 352.451 101.456 " fill="#000000"/>
<path class="atom-20" d="M 55.9496 158.063 L 58.1148 158.063 L 58.1148 164.851 L 66.2793 164.851 L 66.2793 158.063 L 68.4444 158.063 L 68.4444 174.031 L 66.2793 174.031 L 66.2793 166.656 L 58.1148 166.656 L 58.1148 174.031 L 55.9496 174.031 L 55.9496 158.063 " fill="#000000"/>
<path class="atom-21" d="M 282.596 63.0017 L 284.761 63.0017 L 284.761 69.7904 L 292.926 69.7904 L 292.926 63.0017 L 295.091 63.0017 L 295.091 78.9698 L 292.926 78.9698 L 292.926 71.5947 L 284.761 71.5947 L 284.761 78.9698 L 282.596 78.9698 L 282.596 63.0017 " fill="#000000"/>
<path d="M 150.133 382.632 Q 150.549 381.56, 151.541 380.968 Q 152.533 380.36, 153.909 380.36 Q 155.621 380.36, 156.581 381.288 Q 157.541 382.216, 157.541 383.864 Q 157.541 385.544, 156.293 387.112 Q 155.061 388.68, 152.501 390.536 L 157.733 390.536 L 157.733 391.816 L 150.101 391.816 L 150.101 390.744 Q 152.213 389.24, 153.461 388.12 Q 154.725 387, 155.333 385.992 Q 155.941 384.984, 155.941 383.944 Q 155.941 382.856, 155.397 382.248 Q 154.853 381.64, 153.909 381.64 Q 152.997 381.64, 152.389 382.008 Q 151.781 382.376, 151.349 383.192 L 150.133 382.632 " fill="#000000"/>
<path d="M 162.581 384.728 Q 163.573 384.728, 164.389 385.16 Q 165.205 385.576, 165.669 386.376 Q 166.133 387.16, 166.133 388.232 Q 166.133 389.4, 165.557 390.248 Q 164.997 391.08, 164.069 391.512 Q 163.141 391.944, 162.085 391.944 Q 161.045 391.944, 160.085 391.56 Q 159.125 391.176, 158.469 390.44 L 159.429 389.448 Q 159.957 390.024, 160.677 390.344 Q 161.397 390.648, 162.133 390.648 Q 163.141 390.648, 163.829 390.024 Q 164.533 389.4, 164.533 388.264 Q 164.533 387.064, 163.829 386.504 Q 163.141 385.928, 162.037 385.928 Q 161.045 385.928, 159.941 386.36 L 159.061 385.944 L 159.605 380.488 L 165.429 380.488 L 165.269 381.768 L 160.917 381.768 L 160.581 385.128 Q 161.589 384.728, 162.581 384.728 " fill="#000000"/>
<path d="M 174.293 392.616 L 174.293 393.928 L 166.133 393.928 L 166.133 392.616 L 174.293 392.616 " fill="#000000"/>
<path d="M 180.405 385.848 Q 181.509 386.168, 182.037 386.888 Q 182.581 387.592, 182.581 388.712 Q 182.581 389.672, 182.101 390.424 Q 181.621 391.16, 180.741 391.576 Q 179.861 391.976, 178.709 391.976 Q 177.493 391.976, 176.581 391.56 Q 175.685 391.128, 174.965 390.264 L 175.877 389.336 Q 176.581 390.104, 177.173 390.408 Q 177.765 390.696, 178.709 390.696 Q 179.733 390.696, 180.357 390.152 Q 180.981 389.592, 180.981 388.696 Q 180.981 387.544, 180.325 387.032 Q 179.685 386.504, 178.293 386.504 L 177.477 386.504 L 177.477 385.352 L 178.197 385.352 Q 179.429 385.336, 180.085 384.808 Q 180.741 384.264, 180.741 383.256 Q 180.741 382.52, 180.197 382.088 Q 179.653 381.64, 178.725 381.64 Q 177.781 381.64, 177.189 381.976 Q 176.613 382.312, 176.165 383.16 L 175.061 382.568 Q 175.461 381.624, 176.421 381 Q 177.381 380.36, 178.725 380.36 Q 180.389 380.36, 181.365 381.144 Q 182.341 381.928, 182.341 383.256 Q 182.341 384.168, 181.845 384.824 Q 181.349 385.48, 180.405 385.848 " fill="#000000"/>
<path d="M 190.741 392.616 L 190.741 393.928 L 182.581 393.928 L 182.581 392.616 L 190.741 392.616 " fill="#000000"/>
<path d="M 192.149 380.44 L 193.669 380.44 L 193.669 391.816 L 192.149 391.816 L 192.149 380.44 " fill="#000000"/>
<path d="M 199.269 383.448 Q 200.581 383.448, 201.269 384.2 Q 201.973 384.952, 201.973 386.376 L 201.973 391.816 L 200.469 391.816 L 200.469 386.488 Q 200.469 385.512, 200.085 385.08 Q 199.717 384.632, 198.885 384.632 Q 198.133 384.632, 197.509 384.984 Q 196.885 385.32, 196.485 385.928 L 196.485 391.816 L 194.981 391.816 L 194.981 383.592 L 196.213 383.592 L 196.389 384.744 Q 197.493 383.448, 199.269 383.448 " fill="#000000"/>
<path d="M 210.181 379.672 L 210.181 391.8 L 208.965 391.8 L 208.757 390.792 Q 207.845 391.944, 206.325 391.944 Q 204.613 391.944, 203.653 390.888 Q 202.709 389.816, 202.709 387.832 Q 202.709 385.768, 203.829 384.616 Q 204.965 383.448, 206.933 383.448 Q 207.781 383.448, 208.677 383.672 L 208.677 379.672 L 210.181 379.672 M 206.421 390.76 Q 207.253 390.76, 207.845 390.312 Q 208.453 389.848, 208.677 389.032 L 208.677 384.872 Q 207.861 384.632, 206.949 384.632 Q 205.685 384.632, 204.965 385.48 Q 204.245 386.312, 204.245 387.832 Q 204.245 389.24, 204.805 390.008 Q 205.381 390.76, 206.421 390.76 " fill="#000000"/>
<path d="M 210.917 387.688 Q 210.917 385.672, 211.925 384.568 Q 212.933 383.448, 214.773 383.448 Q 216.581 383.448, 217.381 384.536 Q 218.197 385.608, 218.197 387.64 L 218.197 387.896 L 212.453 387.896 Q 212.485 389.288, 213.109 390.024 Q 213.733 390.76, 214.901 390.76 Q 215.541 390.76, 216.133 390.616 Q 216.725 390.456, 217.445 390.136 L 217.877 391.16 Q 217.061 391.576, 216.325 391.768 Q 215.589 391.944, 214.821 391.944 Q 212.965 391.944, 211.941 390.824 Q 210.917 389.704, 210.917 387.688 M 214.773 384.632 Q 213.829 384.632, 213.253 385.176 Q 212.693 385.72, 212.517 386.776 L 216.613 386.776 Q 216.501 385.672, 216.053 385.16 Q 215.605 384.632, 214.773 384.632 " fill="#000000"/>
<path d="M 221.333 387.56 L 218.549 383.592 L 220.293 383.592 L 222.277 386.392 L 224.245 383.592 L 225.861 383.592 L 223.077 387.544 L 226.101 391.816 L 224.341 391.816 L 222.149 388.712 L 219.973 391.816 L 218.341 391.816 L 221.333 387.56 " fill="#000000"/>
<path d="M 234.261 392.616 L 234.261 393.928 L 226.101 393.928 L 226.101 392.616 L 234.261 392.616 " fill="#000000"/>
<path d="M 239.381 391.944 Q 237.301 391.944, 236.261 390.408 Q 235.237 388.872, 235.237 386.136 Q 235.237 383.4, 236.261 381.88 Q 237.285 380.36, 239.381 380.36 Q 241.477 380.36, 242.501 381.88 Q 243.525 383.4, 243.525 386.136 Q 243.525 388.872, 242.485 390.408 Q 241.461 391.944, 239.381 391.944 M 239.381 390.664 Q 240.613 390.664, 241.269 389.528 Q 241.925 388.376, 241.925 386.136 Q 241.925 383.912, 241.269 382.776 Q 240.613 381.64, 239.381 381.64 Q 238.165 381.64, 237.493 382.776 Q 236.837 383.912, 236.837 386.136 Q 236.837 388.376, 237.493 389.528 Q 238.165 390.664, 239.381 390.664 " fill="#000000"/>
<path d="M 721.504,188.459 L 678.252,224.632" style="fill:none;fill-rule:evenodd;stroke:#FF7F7F;stroke-width:12.0px;stroke-linecap:butt;stroke-linejoin:miter;stroke-opacity:1"/>
<path class="bond-1 atom-1 atom-0" d="M 719.566,193.754 L 741.673,201.841" style="fill:none;fill-rule:evenodd;stroke:#000000;stroke-width:2.0px;stroke-linecap:butt;stroke-linejoin:miter;stroke-opacity:1"/>
<path class="bond-1 atom-1 atom-0" d="M 741.673,201.841 L 763.78,209.928" style="fill:none;fill-rule:evenodd;stroke:#FF0000;stroke-width:2.0px;stroke-linecap:butt;stroke-linejoin:miter;stroke-opacity:1"/>
<path class="bond-1 atom-1 atom-0" d="M 723.441,183.163 L 745.547,191.25" style="fill:none;fill-rule:evenodd;stroke:#000000;stroke-width:2.0px;stroke-linecap:butt;stroke-linejoin:miter;stroke-opacity:1"/>
<path class="bond-1 atom-1 atom-0" d="M 745.547,191.25 L 767.654,199.337" style="fill:none;fill-rule:evenodd;stroke:#FF0000;stroke-width:2.0px;stroke-linecap:butt;stroke-linejoin:miter;stroke-opacity:1"/>
<path class="bond-0 atom-1 atom-10" d="M 721.504,188.459 L 711.803,132.915" style="fill:none;fill-rule:evenodd;stroke:#000000;stroke-width:2.0px;stroke-linecap:butt;stroke-linejoin:miter;stroke-opacity:1"/>
<path class="bond-3 atom-2 atom-1" d="M 685.717,218.388 L 703.61,203.423" style="fill:none;fill-rule:evenodd;stroke:#0000FF;stroke-width:2.0px;stroke-linecap:butt;stroke-linejoin:miter;stroke-opacity:1"/>
<path class="bond-3 atom-2 atom-1" d="M 703.61,203.423 L 721.504,188.459" style="fill:none;fill-rule:evenodd;stroke:#000000;stroke-width:2.0px;stroke-linecap:butt;stroke-linejoin:miter;stroke-opacity:1"/>
<path class="bond-2 atom-2 atom-4" d="M 670.786,221.901 L 648.043,213.581" style="fill:none;fill-rule:evenodd;stroke:#0000FF;stroke-width:2.0px;stroke-linecap:butt;stroke-linejoin:miter;stroke-opacity:1"/>
<path class="bond-2 atom-2 atom-4" d="M 648.043,213.581 L 625.299,205.261" style="fill:none;fill-rule:evenodd;stroke:#000000;stroke-width:2.0px;stroke-linecap:butt;stroke-linejoin:miter;stroke-opacity:1"/>
<path class="bond-4 atom-2 atom-3" d="M 679.892,234.025 L 683.922,257.1" style="fill:none;fill-rule:evenodd;stroke:#0000FF;stroke-width:2.0px;stroke-linecap:butt;stroke-linejoin:miter;stroke-opacity:1"/>
<path class="bond-4 atom-2 atom-3" d="M 683.922,257.1 L 687.952,280.176" style="fill:none;fill-rule:evenodd;stroke:#000000;stroke-width:2.0px;stroke-linecap:butt;stroke-linejoin:miter;stroke-opacity:1"/>
<path class="bond-5 atom-3 atom-11" d="M 687.952,280.176 L 735.839,271.812" style="fill:none;fill-rule:evenodd;stroke:#000000;stroke-width:2.0px;stroke-linecap:butt;stroke-linejoin:miter;stroke-opacity:1"/>
<path class="bond-6 atom-3 atom-12" d="M 687.952,280.176 L 640.066,288.539" style="fill:none;fill-rule:evenodd;stroke:#000000;stroke-width:2.0px;stroke-linecap:butt;stroke-linejoin:miter;stroke-opacity:1"/>
<path class="bond-7 atom-3 atom-13" d="M 687.952,280.176 L 696.013,326.326" style="fill:none;fill-rule:evenodd;stroke:#000000;stroke-width:2.0px;stroke-linecap:butt;stroke-linejoin:miter;stroke-opacity:1"/>
<path class="bond-15 atom-8 atom-4" d="M 582.047,241.434 L 625.299,205.261" style="fill:none;fill-rule:evenodd;stroke:#000000;stroke-width:2.0px;stroke-linecap:butt;stroke-linejoin:miter;stroke-opacity:1"/>
<path class="bond-15 atom-8 atom-4" d="M 581.3,227.358 L 611.576,202.036" style="fill:none;fill-rule:evenodd;stroke:#000000;stroke-width:2.0px;stroke-linecap:butt;stroke-linejoin:miter;stroke-opacity:1"/>
<path class="bond-17 atom-9 atom-4" d="M 615.598,149.717 L 625.299,205.261" style="fill:none;fill-rule:evenodd;stroke:#000000;stroke-width:2.0px;stroke-linecap:butt;stroke-linejoin:miter;stroke-opacity:1"/>
<path class="bond-8 atom-5 atom-6" d="M 519.393,166.519 L 529.094,222.063" style="fill:none;fill-rule:evenodd;stroke:#000000;stroke-width:2.0px;stroke-linecap:butt;stroke-linejoin:miter;stroke-opacity:1"/>
<path class="bond-8 atom-5 atom-6" d="M 531.957,172.911 L 538.748,211.791" style="fill:none;fill-rule:evenodd;stroke:#000000;stroke-width:2.0px;stroke-linecap:butt;stroke-linejoin:miter;stroke-opacity:1"/>
<path class="bond-9 atom-5 atom-7" d="M 519.393,166.519 L 562.645,130.346" style="fill:none;fill-rule:evenodd;stroke:#000000;stroke-width:2.0px;stroke-linecap:butt;stroke-linejoin:miter;stroke-opacity:1"/>
<path class="bond-10 atom-5 atom-21" d="M 519.393,166.519 L 474.098,149.95" style="fill:none;fill-rule:evenodd;stroke:#000000;stroke-width:2.0px;stroke-linecap:butt;stroke-linejoin:miter;stroke-opacity:1"/>
<path class="bond-11 atom-6 atom-8" d="M 529.094,222.063 L 582.047,241.434" style="fill:none;fill-rule:evenodd;stroke:#000000;stroke-width:2.0px;stroke-linecap:butt;stroke-linejoin:miter;stroke-opacity:1"/>
<path class="bond-12 atom-6 atom-14" d="M 529.094,222.063 L 493.499,251.832" style="fill:none;fill-rule:evenodd;stroke:#000000;stroke-width:2.0px;stroke-linecap:butt;stroke-linejoin:miter;stroke-opacity:1"/>
<path class="bond-13 atom-7 atom-9" d="M 562.645,130.346 L 615.598,149.717" style="fill:none;fill-rule:evenodd;stroke:#000000;stroke-width:2.0px;stroke-linecap:butt;stroke-linejoin:miter;stroke-opacity:1"/>
<path class="bond-13 atom-7 atom-9" d="M 566.714,143.842 L 603.781,157.402" style="fill:none;fill-rule:evenodd;stroke:#000000;stroke-width:2.0px;stroke-linecap:butt;stroke-linejoin:miter;stroke-opacity:1"/>
<path class="bond-14 atom-7 atom-15" d="M 562.645,130.346 L 554.585,84.1962" style="fill:none;fill-rule:evenodd;stroke:#000000;stroke-width:2.0px;stroke-linecap:butt;stroke-linejoin:miter;stroke-opacity:1"/>
<path class="bond-16 atom-8 atom-16" d="M 582.047,241.434 L 590.107,287.584" style="fill:none;fill-rule:evenodd;stroke:#000000;stroke-width:2.0px;stroke-linecap:butt;stroke-linejoin:miter;stroke-opacity:1"/>
<path class="bond-18 atom-9 atom-17" d="M 615.598,149.717 L 636.471,136.211" style="fill:none;fill-rule:evenodd;stroke:#000000;stroke-width:2.0px;stroke-linecap:butt;stroke-linejoin:miter;stroke-opacity:1"/>
<path class="bond-19 atom-10 atom-18" d="M 711.803,132.915 L 759.69,124.551" style="fill:none;fill-rule:evenodd;stroke:#000000;stroke-width:2.0px;stroke-linecap:butt;stroke-linejoin:miter;stroke-opacity:1"/>
<path class="bond-20 atom-10 atom-19" d="M 711.803,132.915 L 687.027,140.446" style="fill:none;fill-rule:evenodd;stroke:#000000;stroke-width:2.0px;stroke-linecap:butt;stroke-linejoin:miter;stroke-opacity:1"/>
<path class="bond-21 atom-20 atom-10" d="M 703.743,86.7648 L 707.773,109.84" style="fill:none;fill-rule:evenodd;stroke:#0000FF;stroke-width:2.0px;stroke-linecap:butt;stroke-linejoin:miter;stroke-opacity:1"/>
<path class="bond-21 atom-20 atom-10" d="M 707.773,109.84 L 711.803,132.915" style="fill:none;fill-rule:evenodd;stroke:#000000;stroke-width:2.0px;stroke-linecap:butt;stroke-linejoin:miter;stroke-opacity:1"/>
<path class="bond-22 atom-20 atom-22" d="M 709.567,71.1276 L 723.754,59.263" style="fill:none;fill-rule:evenodd;stroke:#0000FF;stroke-width:2.0px;stroke-linecap:butt;stroke-linejoin:miter;stroke-opacity:1"/>
<path class="bond-22 atom-20 atom-22" d="M 723.754,59.263 L 737.94,47.3984" style="fill:none;fill-rule:evenodd;stroke:#000000;stroke-width:2.0px;stroke-linecap:butt;stroke-linejoin:miter;stroke-opacity:1"/>
<path class="bond-23 atom-20 atom-23" d="M 694.637,74.6402 L 675.622,67.6844" style="fill:none;fill-rule:evenodd;stroke:#0000FF;stroke-width:2.0px;stroke-linecap:butt;stroke-linejoin:miter;stroke-opacity:1"/>
<path class="bond-23 atom-20 atom-23" d="M 675.622,67.6844 L 656.608,60.7287" style="fill:none;fill-rule:evenodd;stroke:#000000;stroke-width:2.0px;stroke-linecap:butt;stroke-linejoin:miter;stroke-opacity:1"/>
<path class="atom-0" d="M 767.126 207.875 Q 767.126 204.04, 769.021 201.898 Q 770.915 199.755, 774.456 199.755 Q 777.997 199.755, 779.892 201.898 Q 781.786 204.04, 781.786 207.875 Q 781.786 211.754, 779.869 213.964 Q 777.952 216.152, 774.456 216.152 Q 770.938 216.152, 769.021 213.964 Q 767.126 211.776, 767.126 207.875 M 774.456 214.348 Q 776.892 214.348, 778.2 212.724 Q 779.531 211.077, 779.531 207.875 Q 779.531 204.74, 778.2 203.161 Q 776.892 201.56, 774.456 201.56 Q 772.02 201.56, 770.69 203.138 Q 769.382 204.717, 769.382 207.875 Q 769.382 211.1, 770.69 212.724 Q 772.02 214.348, 774.456 214.348 " fill="#FF0000"/>
<path class="atom-2" d="M 674.722 216.648 L 679.954 225.105 Q 680.473 225.94, 681.308 227.451 Q 682.142 228.962, 682.187 229.052 L 682.187 216.648 L 684.307 216.648 L 684.307 232.616 L 682.12 232.616 L 676.504 223.369 Q 675.85 222.286, 675.15 221.046 Q 674.474 219.805, 674.271 219.422 L 674.271 232.616 L 672.196 232.616 L 672.196 216.648 L 674.722 216.648 " fill="#0000FF"/>
<path class="atom-11" d="M 737.249 262.491 L 739.414 262.491 L 739.414 269.279 L 747.578 269.279 L 747.578 262.491 L 749.744 262.491 L 749.744 278.459 L 747.578 278.459 L 747.578 271.084 L 739.414 271.084 L 739.414 278.459 L 737.249 278.459 L 737.249 262.491 " fill="#000000"/>
<path class="atom-12" d="M 626.161 281.892 L 628.326 281.892 L 628.326 288.681 L 636.491 288.681 L 636.491 281.892 L 638.656 281.892 L 638.656 297.86 L 636.491 297.86 L 636.491 290.485 L 628.326 290.485 L 628.326 297.86 L 626.161 297.86 L 626.161 281.892 " fill="#000000"/>
<path class="atom-13" d="M 691.406 327.735 L 693.571 327.735 L 693.571 334.524 L 701.735 334.524 L 701.735 327.735 L 703.901 327.735 L 703.901 343.703 L 701.735 343.703 L 701.735 336.328 L 693.571 336.328 L 693.571 343.703 L 691.406 343.703 L 691.406 327.735 " fill="#000000"/>
<path class="atom-14" d="M 479.595 250.252 L 481.76 250.252 L 481.76 257.041 L 489.924 257.041 L 489.924 250.252 L 492.09 250.252 L 492.09 266.22 L 489.924 266.22 L 489.924 258.845 L 481.76 258.845 L 481.76 266.22 L 479.595 266.22 L 479.595 250.252 " fill="#000000"/>
<path class="atom-15" d="M 546.697 66.8185 L 548.862 66.8185 L 548.862 73.6072 L 557.027 73.6072 L 557.027 66.8185 L 559.192 66.8185 L 559.192 82.7866 L 557.027 82.7866 L 557.027 75.4115 L 548.862 75.4115 L 548.862 82.7866 L 546.697 82.7866 L 546.697 66.8185 " fill="#000000"/>
<path class="atom-16" d="M 585.5 288.994 L 587.665 288.994 L 587.665 295.782 L 595.83 295.782 L 595.83 288.994 L 597.995 288.994 L 597.995 304.962 L 595.83 304.962 L 595.83 297.587 L 587.665 297.587 L 587.665 304.962 L 585.5 304.962 L 585.5 288.994 " fill="#000000"/>
<path class="atom-17" d="M 637.304 123.646 L 639.469 123.646 L 639.469 130.434 L 647.633 130.434 L 647.633 123.646 L 649.799 123.646 L 649.799 139.614 L 647.633 139.614 L 647.633 132.239 L 639.469 132.239 L 639.469 139.614 L 637.304 139.614 L 637.304 123.646 " fill="#000000"/>
<path class="atom-18" d="M 761.099 115.23 L 763.264 115.23 L 763.264 122.019 L 771.429 122.019 L 771.429 115.23 L 773.594 115.23 L 773.594 131.198 L 771.429 131.198 L 771.429 123.823 L 763.264 123.823 L 763.264 131.198 L 761.099 131.198 L 761.099 115.23 " fill="#000000"/>
<path class="atom-19" d="M 673.7 134.614 L 675.865 134.614 L 675.865 141.403 L 684.03 141.403 L 684.03 134.614 L 686.195 134.614 L 686.195 150.582 L 684.03 150.582 L 684.03 143.207 L 675.865 143.207 L 675.865 150.582 L 673.7 150.582 L 673.7 134.614 " fill="#000000"/>
<path class="atom-20" d="M 698.572 69.387 L 703.805 77.8447 Q 704.324 78.6792, 705.158 80.1903 Q 705.993 81.7014, 706.038 81.7917 L 706.038 69.387 L 708.158 69.387 L 708.158 85.3552 L 705.97 85.3552 L 700.354 76.1081 Q 699.7 75.0255, 699.001 73.785 Q 698.324 72.5446, 698.121 72.1612 L 698.121 85.3552 L 696.046 85.3552 L 696.046 69.387 L 698.572 69.387 " fill="#0000FF"/>
<path class="atom-21" d="M 460.193 139.164 L 462.358 139.164 L 462.358 145.953 L 470.523 145.953 L 470.523 139.164 L 472.688 139.164 L 472.688 155.133 L 470.523 155.133 L 470.523 147.758 L 462.358 147.758 L 462.358 155.133 L 460.193 155.133 L 460.193 139.164 " fill="#000000"/>
<path class="atom-22" d="M 739.107 33.214 L 741.272 33.214 L 741.272 40.0027 L 749.436 40.0027 L 749.436 33.214 L 751.601 33.214 L 751.601 49.1821 L 749.436 49.1821 L 749.436 41.807 L 741.272 41.807 L 741.272 49.1821 L 739.107 49.1821 L 739.107 33.214 " fill="#000000"/>
<path class="atom-23" d="M 642.902 50.0163 L 645.067 50.0163 L 645.067 56.805 L 653.232 56.805 L 653.232 50.0163 L 655.397 50.0163 L 655.397 65.9844 L 653.232 65.9844 L 653.232 58.6093 L 645.067 58.6093 L 645.067 65.9844 L 642.902 65.9844 L 642.902 50.0163 " fill="#000000"/>
<path d="M 486.16 380.728 Q 486.576 379.656, 487.568 379.064 Q 488.56 378.456, 489.936 378.456 Q 491.648 378.456, 492.608 379.384 Q 493.568 380.312, 493.568 381.96 Q 493.568 383.64, 492.32 385.208 Q 491.088 386.776, 488.528 388.632 L 493.76 388.632 L 493.76 389.912 L 486.128 389.912 L 486.128 388.84 Q 488.24 387.336, 489.488 386.216 Q 490.752 385.096, 491.36 384.088 Q 491.968 383.08, 491.968 382.04 Q 491.968 380.952, 491.424 380.344 Q 490.88 379.736, 489.936 379.736 Q 489.024 379.736, 488.416 380.104 Q 487.808 380.472, 487.376 381.288 L 486.16 380.728 " fill="#000000"/>
<path d="M 498.608 382.824 Q 499.6 382.824, 500.416 383.256 Q 501.232 383.672, 501.696 384.472 Q 502.16 385.256, 502.16 386.328 Q 502.16 387.496, 501.584 388.344 Q 501.024 389.176, 500.096 389.608 Q 499.168 390.04, 498.112 390.04 Q 497.072 390.04, 496.112 389.656 Q 495.152 389.272, 494.496 388.536 L 495.456 387.544 Q 495.984 388.12, 496.704 388.44 Q 497.424 388.744, 498.16 388.744 Q 499.168 388.744, 499.856 388.12 Q 500.56 387.496, 500.56 386.36 Q 500.56 385.16, 499.856 384.6 Q 499.168 384.024, 498.064 384.024 Q 497.072 384.024, 495.968 384.456 L 495.088 384.04 L 495.632 378.584 L 501.456 378.584 L 501.296 379.864 L 496.944 379.864 L 496.608 383.224 Q 497.616 382.824, 498.608 382.824 " fill="#000000"/>
<path d="M 510.32 390.712 L 510.32 392.024 L 502.16 392.024 L 502.16 390.712 L 510.32 390.712 " fill="#000000"/>
<path d="M 516.432 383.944 Q 517.536 384.264, 518.064 384.984 Q 518.608 385.688, 518.608 386.808 Q 518.608 387.768, 518.128 388.52 Q 517.648 389.256, 516.768 389.672 Q 515.888 390.072, 514.736 390.072 Q 513.52 390.072, 512.608 389.656 Q 511.712 389.224, 510.992 388.36 L 511.904 387.432 Q 512.608 388.2, 513.2 388.504 Q 513.792 388.792, 514.736 388.792 Q 515.76 388.792, 516.384 388.248 Q 517.008 387.688, 517.008 386.792 Q 517.008 385.64, 516.352 385.128 Q 515.712 384.6, 514.32 384.6 L 513.504 384.6 L 513.504 383.448 L 514.224 383.448 Q 515.456 383.432, 516.112 382.904 Q 516.768 382.36, 516.768 381.352 Q 516.768 380.616, 516.224 380.184 Q 515.68 379.736, 514.752 379.736 Q 513.808 379.736, 513.216 380.072 Q 512.64 380.408, 512.192 381.256 L 511.088 380.664 Q 511.488 379.72, 512.448 379.096 Q 513.408 378.456, 514.752 378.456 Q 516.416 378.456, 517.392 379.24 Q 518.368 380.024, 518.368 381.352 Q 518.368 382.264, 517.872 382.92 Q 517.376 383.576, 516.432 383.944 " fill="#000000"/>
<path d="M 526.768 390.712 L 526.768 392.024 L 518.608 392.024 L 518.608 390.712 L 526.768 390.712 " fill="#000000"/>
<path d="M 528.176 378.536 L 529.696 378.536 L 529.696 389.912 L 528.176 389.912 L 528.176 378.536 " fill="#000000"/>
<path d="M 535.296 381.544 Q 536.608 381.544, 537.296 382.296 Q 538 383.048, 538 384.472 L 538 389.912 L 536.496 389.912 L 536.496 384.584 Q 536.496 383.608, 536.112 383.176 Q 535.744 382.728, 534.912 382.728 Q 534.16 382.728, 533.536 383.08 Q 532.912 383.416, 532.512 384.024 L 532.512 389.912 L 531.008 389.912 L 531.008 381.688 L 532.24 381.688 L 532.416 382.84 Q 533.52 381.544, 535.296 381.544 " fill="#000000"/>
<path d="M 546.208 377.768 L 546.208 389.896 L 544.992 389.896 L 544.784 388.888 Q 543.872 390.04, 542.352 390.04 Q 540.64 390.04, 539.68 388.984 Q 538.736 387.912, 538.736 385.928 Q 538.736 383.864, 539.856 382.712 Q 540.992 381.544, 542.96 381.544 Q 543.808 381.544, 544.704 381.768 L 544.704 377.768 L 546.208 377.768 M 542.448 388.856 Q 543.28 388.856, 543.872 388.408 Q 544.48 387.944, 544.704 387.128 L 544.704 382.968 Q 543.888 382.728, 542.976 382.728 Q 541.712 382.728, 540.992 383.576 Q 540.272 384.408, 540.272 385.928 Q 540.272 387.336, 540.832 388.104 Q 541.408 388.856, 542.448 388.856 " fill="#000000"/>
<path d="M 546.944 385.784 Q 546.944 383.768, 547.952 382.664 Q 548.96 381.544, 550.8 381.544 Q 552.608 381.544, 553.408 382.632 Q 554.224 383.704, 554.224 385.736 L 554.224 385.992 L 548.48 385.992 Q 548.512 387.384, 549.136 388.12 Q 549.76 388.856, 550.928 388.856 Q 551.568 388.856, 552.16 388.712 Q 552.752 388.552, 553.472 388.232 L 553.904 389.256 Q 553.088 389.672, 552.352 389.864 Q 551.616 390.04, 550.848 390.04 Q 548.992 390.04, 547.968 388.92 Q 546.944 387.8, 546.944 385.784 M 550.8 382.728 Q 549.856 382.728, 549.28 383.272 Q 548.72 383.816, 548.544 384.872 L 552.64 384.872 Q 552.528 383.768, 552.08 383.256 Q 551.632 382.728, 550.8 382.728 " fill="#000000"/>
<path d="M 557.36 385.656 L 554.576 381.688 L 556.32 381.688 L 558.304 384.488 L 560.272 381.688 L 561.888 381.688 L 559.104 385.64 L 562.128 389.912 L 560.368 389.912 L 558.176 386.808 L 556 389.912 L 554.368 389.912 L 557.36 385.656 " fill="#000000"/>
<path d="M 570.288 390.712 L 570.288 392.024 L 562.128 392.024 L 562.128 390.712 L 570.288 390.712 " fill="#000000"/>
<path d="M 575.408 390.04 Q 573.328 390.04, 572.288 388.504 Q 571.264 386.968, 571.264 384.232 Q 571.264 381.496, 572.288 379.976 Q 573.312 378.456, 575.408 378.456 Q 577.504 378.456, 578.528 379.976 Q 579.552 381.496, 579.552 384.232 Q 579.552 386.968, 578.512 388.504 Q 577.488 390.04, 575.408 390.04 M 575.408 388.76 Q 576.64 388.76, 577.296 387.624 Q 577.952 386.472, 577.952 384.232 Q 577.952 382.008, 577.296 380.872 Q 576.64 379.736, 575.408 379.736 Q 574.192 379.736, 573.52 380.872 Q 572.864 382.008, 572.864 384.232 Q 572.864 386.472, 573.52 387.624 Q 574.192 388.76, 575.408 388.76 " fill="#000000"/>
<path d="M 587.712 390.712 L 587.712 392.024 L 579.552 392.024 L 579.552 390.712 L 587.712 390.712 " fill="#000000"/>
<path d="M 597.616 384.36 L 597.616 389.144 Q 596 390.056, 593.616 390.056 Q 591.152 390.056, 589.824 388.552 Q 588.512 387.048, 588.512 384.232 Q 588.512 381.416, 589.824 379.944 Q 591.152 378.456, 593.664 378.456 Q 594.976 378.456, 595.936 378.872 Q 596.896 379.272, 597.568 380.104 L 596.528 380.968 Q 595.472 379.736, 593.664 379.736 Q 591.952 379.736, 591.04 380.888 Q 590.144 382.04, 590.144 384.232 Q 590.144 386.472, 591.072 387.624 Q 592.016 388.776, 593.84 388.776 Q 595.024 388.776, 596.08 388.392 L 596.08 384.36 L 597.616 384.36 " fill="#000000"/>
<path d="M 600.192 381.688 L 600.368 382.824 Q 601.232 381.544, 602.64 381.544 Q 603.088 381.544, 603.696 381.704 L 603.456 383.048 Q 602.768 382.888, 602.384 382.888 Q 601.712 382.888, 601.264 383.16 Q 600.832 383.416, 600.48 384.04 L 600.48 389.912 L 598.976 389.912 L 598.976 381.688 L 600.192 381.688 " fill="#000000"/>
<path d="M 604.432 385.784 Q 604.432 383.784, 605.44 382.664 Q 606.464 381.544, 608.336 381.544 Q 610.208 381.544, 611.216 382.664 Q 612.24 383.784, 612.24 385.784 Q 612.24 387.784, 611.216 388.92 Q 610.208 390.04, 608.336 390.04 Q 606.464 390.04, 605.44 388.92 Q 604.432 387.784, 604.432 385.784 M 605.968 385.784 Q 605.968 387.288, 606.576 388.072 Q 607.2 388.856, 608.336 388.856 Q 609.472 388.856, 610.08 388.072 Q 610.704 387.288, 610.704 385.784 Q 610.704 384.28, 610.08 383.512 Q 609.472 382.728, 608.336 382.728 Q 607.2 382.728, 606.576 383.512 Q 605.968 384.28, 605.968 385.784 " fill="#000000"/>
<path d="M 623.024 381.688 L 624.528 381.688 L 622.224 389.912 L 620.208 389.912 L 618.576 383.736 L 616.976 389.912 L 614.992 389.912 L 612.688 381.688 L 614.192 381.688 L 616.048 388.472 L 617.824 381.688 L 619.328 381.688 L 621.184 388.472 L 623.024 381.688 " fill="#000000"/>
<path d="M 625.888 378.584 L 632.624 378.584 L 632.624 379.88 L 627.408 379.88 L 627.408 383.32 L 632.048 383.32 L 632.048 384.632 L 627.408 384.632 L 627.408 389.912 L 625.888 389.912 L 625.888 378.584 " fill="#000000"/>
<path d="M 635.2 381.688 L 635.376 382.824 Q 636.24 381.544, 637.648 381.544 Q 638.096 381.544, 638.704 381.704 L 638.464 383.048 Q 637.776 382.888, 637.392 382.888 Q 636.72 382.888, 636.272 383.16 Q 635.84 383.416, 635.488 384.04 L 635.488 389.912 L 633.984 389.912 L 633.984 381.688 L 635.2 381.688 " fill="#000000"/>
<path d="M 639.408 387.688 Q 639.408 386.376, 640.464 385.656 Q 641.52 384.936, 643.456 384.936 L 644.672 384.936 L 644.672 384.616 Q 644.672 383.592, 644.24 383.16 Q 643.824 382.728, 642.8 382.728 Q 642.144 382.728, 641.632 382.856 Q 641.12 382.968, 640.32 383.32 L 639.872 382.28 Q 641.376 381.544, 642.832 381.544 Q 644.576 381.544, 645.376 382.296 Q 646.176 383.032, 646.176 384.648 L 646.176 389.912 L 645.008 389.912 Q 644.992 389.848, 644.944 389.608 Q 644.896 389.352, 644.8 388.952 Q 643.648 390.104, 642.112 390.104 Q 640.88 390.104, 640.144 389.448 Q 639.408 388.792, 639.408 387.688 M 640.912 387.656 Q 640.912 388.264, 641.296 388.6 Q 641.68 388.92, 642.4 388.92 Q 643.04 388.92, 643.648 388.632 Q 644.256 388.328, 644.672 387.816 L 644.672 386.056 L 643.552 386.056 Q 642.24 386.056, 641.568 386.456 Q 640.912 386.856, 640.912 387.656 " fill="#000000"/>
<path d="M 654.384 381.672 L 654.384 390.392 Q 654.384 393.928, 650.64 393.928 Q 648.832 393.928, 647.216 393.096 L 647.728 391.992 Q 648.592 392.424, 649.216 392.584 Q 649.84 392.744, 650.64 392.744 Q 651.84 392.744, 652.352 392.2 Q 652.88 391.672, 652.88 390.424 L 652.88 388.984 Q 652.016 390.04, 650.528 390.04 Q 648.816 390.04, 647.856 388.984 Q 646.912 387.912, 646.912 385.928 Q 646.912 383.864, 648.032 382.712 Q 649.168 381.544, 651.136 381.544 Q 652.176 381.544, 653.136 381.848 L 653.184 381.672 L 654.384 381.672 M 650.624 388.856 Q 651.456 388.856, 652.048 388.408 Q 652.656 387.944, 652.88 387.128 L 652.88 382.968 Q 652.064 382.728, 651.152 382.728 Q 649.888 382.728, 649.168 383.576 Q 648.448 384.408, 648.448 385.928 Q 648.448 387.336, 649.008 388.104 Q 649.584 388.856, 650.624 388.856 " fill="#000000"/>
<path d="M 665.2 381.544 Q 666.592 381.544, 667.296 382.296 Q 668 383.032, 668 384.472 L 668 389.912 L 666.496 389.912 L 666.496 384.584 Q 666.496 383.608, 666.112 383.176 Q 665.744 382.728, 664.912 382.728 Q 664.192 382.728, 663.568 383.08 Q 662.96 383.416, 662.592 384.024 Q 662.608 384.168, 662.608 384.472 L 662.608 389.912 L 661.104 389.912 L 661.104 384.584 Q 661.104 383.608, 660.72 383.176 Q 660.352 382.728, 659.52 382.728 Q 658.8 382.728, 658.192 383.08 Q 657.584 383.416, 657.2 384.008 L 657.2 389.912 L 655.696 389.912 L 655.696 381.688 L 656.928 381.688 L 657.088 382.808 Q 658.16 381.544, 659.808 381.544 Q 661.744 381.544, 662.352 382.984 Q 663.44 381.544, 665.2 381.544 " fill="#000000"/>
<path d="M 668.736 385.784 Q 668.736 383.768, 669.744 382.664 Q 670.752 381.544, 672.592 381.544 Q 674.4 381.544, 675.2 382.632 Q 676.016 383.704, 676.016 385.736 L 676.016 385.992 L 670.272 385.992 Q 670.304 387.384, 670.928 388.12 Q 671.552 388.856, 672.72 388.856 Q 673.36 388.856, 673.952 388.712 Q 674.544 388.552, 675.264 388.232 L 675.696 389.256 Q 674.88 389.672, 674.144 389.864 Q 673.408 390.04, 672.64 390.04 Q 670.784 390.04, 669.76 388.92 Q 668.736 387.8, 668.736 385.784 M 672.592 382.728 Q 671.648 382.728, 671.072 383.272 Q 670.512 383.816, 670.336 384.872 L 674.432 384.872 Q 674.32 383.768, 673.872 383.256 Q 673.424 382.728, 672.592 382.728 " fill="#000000"/>
<path d="M 681.616 381.544 Q 682.928 381.544, 683.616 382.296 Q 684.32 383.048, 684.32 384.472 L 684.32 389.912 L 682.816 389.912 L 682.816 384.584 Q 682.816 383.608, 682.432 383.176 Q 682.064 382.728, 681.232 382.728 Q 680.48 382.728, 679.856 383.08 Q 679.232 383.416, 678.832 384.024 L 678.832 389.912 L 677.328 389.912 L 677.328 381.688 L 678.56 381.688 L 678.736 382.84 Q 679.84 381.544, 681.616 381.544 " fill="#000000"/>
<path d="M 684.784 382.84 L 684.784 381.688 L 686.352 381.688 L 686.608 379.288 L 687.728 379.288 L 687.728 381.688 L 690.24 381.688 L 690.24 382.84 L 687.728 382.84 L 687.728 387.384 Q 687.728 388.808, 688.928 388.808 Q 689.408 388.808, 690.112 388.584 L 690.368 389.64 Q 689.488 390.008, 688.656 390.008 Q 687.584 390.008, 686.896 389.368 Q 686.224 388.728, 686.224 387.464 L 686.224 382.84 L 684.784 382.84 " fill="#000000"/>
<path d="M 698.528 390.712 L 698.528 392.024 L 690.368 392.024 L 690.368 390.712 L 698.528 390.712 " fill="#000000"/>
<path d="M 700.016 388.632 L 702.496 388.632 L 702.496 380.168 L 699.76 381.016 L 699.392 380.072 L 702.864 378.52 L 704 378.712 L 704 388.632 L 706.224 388.632 L 706.224 389.912 L 700.016 389.912 L 700.016 388.632 " fill="#000000"/>
<path d="M 1118.94,173.627 L 1082.78,216.885" style="fill:none;fill-rule:evenodd;stroke:#FF7F7F;stroke-width:12.0px;stroke-linecap:butt;stroke-linejoin:miter;stroke-opacity:1"/>
<path class="bond-1 atom-1 atom-0" d="M 1117.97,179.182 L 1141.38,183.265" style="fill:none;fill-rule:evenodd;stroke:#000000;stroke-width:2.0px;stroke-linecap:butt;stroke-linejoin:miter;stroke-opacity:1"/>
<path class="bond-1 atom-1 atom-0" d="M 1141.38,183.265 L 1164.78,187.349" style="fill:none;fill-rule:evenodd;stroke:#FF0000;stroke-width:2.0px;stroke-linecap:butt;stroke-linejoin:miter;stroke-opacity:1"/>
<path class="bond-1 atom-1 atom-0" d="M 1119.91,168.073 L 1143.31,172.156" style="fill:none;fill-rule:evenodd;stroke:#000000;stroke-width:2.0px;stroke-linecap:butt;stroke-linejoin:miter;stroke-opacity:1"/>
<path class="bond-1 atom-1 atom-0" d="M 1143.31,172.156 L 1166.72,176.24" style="fill:none;fill-rule:evenodd;stroke:#FF0000;stroke-width:2.0px;stroke-linecap:butt;stroke-linejoin:miter;stroke-opacity:1"/>
<path class="bond-0 atom-1 atom-10" d="M 1118.94,173.627 L 1099.56,120.678" style="fill:none;fill-rule:evenodd;stroke:#000000;stroke-width:2.0px;stroke-linecap:butt;stroke-linejoin:miter;stroke-opacity:1"/>
<path class="bond-3 atom-2 atom-1" d="M 1090.24,207.956 L 1104.59,190.792" style="fill:none;fill-rule:evenodd;stroke:#0000FF;stroke-width:2.0px;stroke-linecap:butt;stroke-linejoin:miter;stroke-opacity:1"/>
<path class="bond-3 atom-2 atom-1" d="M 1104.59,190.792 L 1118.94,173.627" style="fill:none;fill-rule:evenodd;stroke:#000000;stroke-width:2.0px;stroke-linecap:butt;stroke-linejoin:miter;stroke-opacity:1"/>
<path class="bond-2 atom-2 atom-4" d="M 1075.31,215.582 L 1051.27,211.388" style="fill:none;fill-rule:evenodd;stroke:#0000FF;stroke-width:2.0px;stroke-linecap:butt;stroke-linejoin:miter;stroke-opacity:1"/>
<path class="bond-2 atom-2 atom-4" d="M 1051.27,211.388 L 1027.23,207.193" style="fill:none;fill-rule:evenodd;stroke:#000000;stroke-width:2.0px;stroke-linecap:butt;stroke-linejoin:miter;stroke-opacity:1"/>
<path class="bond-4 atom-2 atom-3" d="M 1086.21,226.279 L 1094.19,248.057" style="fill:none;fill-rule:evenodd;stroke:#0000FF;stroke-width:2.0px;stroke-linecap:butt;stroke-linejoin:miter;stroke-opacity:1"/>
<path class="bond-4 atom-2 atom-3" d="M 1094.19,248.057 L 1102.16,269.835" style="fill:none;fill-rule:evenodd;stroke:#000000;stroke-width:2.0px;stroke-linecap:butt;stroke-linejoin:miter;stroke-opacity:1"/>
<path class="bond-5 atom-3 atom-11" d="M 1102.16,269.835 L 1147.45,253.258" style="fill:none;fill-rule:evenodd;stroke:#000000;stroke-width:2.0px;stroke-linecap:butt;stroke-linejoin:miter;stroke-opacity:1"/>
<path class="bond-6 atom-3 atom-12" d="M 1102.16,269.835 L 1056.86,286.411" style="fill:none;fill-rule:evenodd;stroke:#000000;stroke-width:2.0px;stroke-linecap:butt;stroke-linejoin:miter;stroke-opacity:1"/>
<path class="bond-7 atom-3 atom-13" d="M 1102.16,269.835 L 1118.1,313.391" style="fill:none;fill-rule:evenodd;stroke:#000000;stroke-width:2.0px;stroke-linecap:butt;stroke-linejoin:miter;stroke-opacity:1"/>
<path class="bond-14 atom-8 atom-4" d="M 1007.85,154.243 L 1027.23,207.193" style="fill:none;fill-rule:evenodd;stroke:#000000;stroke-width:2.0px;stroke-linecap:butt;stroke-linejoin:miter;stroke-opacity:1"/>
<path class="bond-14 atom-8 atom-4" d="M 1000.17,166.062 L 1013.73,203.127" style="fill:none;fill-rule:evenodd;stroke:#000000;stroke-width:2.0px;stroke-linecap:butt;stroke-linejoin:miter;stroke-opacity:1"/>
<path class="bond-16 atom-9 atom-4" d="M 991.065,250.451 L 1027.23,207.193" style="fill:none;fill-rule:evenodd;stroke:#000000;stroke-width:2.0px;stroke-linecap:butt;stroke-linejoin:miter;stroke-opacity:1"/>
<path class="bond-8 atom-5 atom-6" d="M 916.141,187.809 L 952.307,144.552" style="fill:none;fill-rule:evenodd;stroke:#000000;stroke-width:2.0px;stroke-linecap:butt;stroke-linejoin:miter;stroke-opacity:1"/>
<path class="bond-8 atom-5 atom-6" d="M 930.217,188.554 L 955.533,158.273" style="fill:none;fill-rule:evenodd;stroke:#000000;stroke-width:2.0px;stroke-linecap:butt;stroke-linejoin:miter;stroke-opacity:1"/>
<path class="bond-9 atom-5 atom-7" d="M 916.141,187.809 L 935.52,240.759" style="fill:none;fill-rule:evenodd;stroke:#000000;stroke-width:2.0px;stroke-linecap:butt;stroke-linejoin:miter;stroke-opacity:1"/>
<path class="bond-20 atom-20 atom-5" d="M 868.061,179.42 L 892.101,183.615" style="fill:none;fill-rule:evenodd;stroke:#0000FF;stroke-width:2.0px;stroke-linecap:butt;stroke-linejoin:miter;stroke-opacity:1"/>
<path class="bond-20 atom-20 atom-5" d="M 892.101,183.615 L 916.141,187.809" style="fill:none;fill-rule:evenodd;stroke:#000000;stroke-width:2.0px;stroke-linecap:butt;stroke-linejoin:miter;stroke-opacity:1"/>
<path class="bond-10 atom-6 atom-8" d="M 952.307,144.552 L 1007.85,154.243" style="fill:none;fill-rule:evenodd;stroke:#000000;stroke-width:2.0px;stroke-linecap:butt;stroke-linejoin:miter;stroke-opacity:1"/>
<path class="bond-11 atom-6 atom-14" d="M 952.307,144.552 L 936.366,100.996" style="fill:none;fill-rule:evenodd;stroke:#000000;stroke-width:2.0px;stroke-linecap:butt;stroke-linejoin:miter;stroke-opacity:1"/>
<path class="bond-12 atom-7 atom-9" d="M 935.52,240.759 L 991.065,250.451" style="fill:none;fill-rule:evenodd;stroke:#000000;stroke-width:2.0px;stroke-linecap:butt;stroke-linejoin:miter;stroke-opacity:1"/>
<path class="bond-12 atom-7 atom-9" d="M 945.79,231.104 L 984.672,237.888" style="fill:none;fill-rule:evenodd;stroke:#000000;stroke-width:2.0px;stroke-linecap:butt;stroke-linejoin:miter;stroke-opacity:1"/>
<path class="bond-13 atom-7 atom-15" d="M 935.52,240.759 L 907.011,274.858" style="fill:none;fill-rule:evenodd;stroke:#000000;stroke-width:2.0px;stroke-linecap:butt;stroke-linejoin:miter;stroke-opacity:1"/>
<path class="bond-15 atom-8 atom-16" d="M 1007.85,154.243 L 1025.08,138.119" style="fill:none;fill-rule:evenodd;stroke:#000000;stroke-width:2.0px;stroke-linecap:butt;stroke-linejoin:miter;stroke-opacity:1"/>
<path class="bond-17 atom-9 atom-17" d="M 991.065,250.451 L 1007.01,294.007" style="fill:none;fill-rule:evenodd;stroke:#000000;stroke-width:2.0px;stroke-linecap:butt;stroke-linejoin:miter;stroke-opacity:1"/>
<path class="bond-18 atom-10 atom-18" d="M 1099.56,120.678 L 1144.86,104.101" style="fill:none;fill-rule:evenodd;stroke:#000000;stroke-width:2.0px;stroke-linecap:butt;stroke-linejoin:miter;stroke-opacity:1"/>
<path class="bond-19 atom-10 atom-19" d="M 1099.56,120.678 L 1077.01,132.223" style="fill:none;fill-rule:evenodd;stroke:#000000;stroke-width:2.0px;stroke-linecap:butt;stroke-linejoin:miter;stroke-opacity:1"/>
<path class="bond-23 atom-21 atom-10" d="M 1083.62,77.1217 L 1091.59,98.8997" style="fill:none;fill-rule:evenodd;stroke:#0000FF;stroke-width:2.0px;stroke-linecap:butt;stroke-linejoin:miter;stroke-opacity:1"/>
<path class="bond-23 atom-21 atom-10" d="M 1091.59,98.8997 L 1099.56,120.678" style="fill:none;fill-rule:evenodd;stroke:#000000;stroke-width:2.0px;stroke-linecap:butt;stroke-linejoin:miter;stroke-opacity:1"/>
<path class="bond-21 atom-20 atom-22" d="M 853.13,187.046 L 842.463,199.806" style="fill:none;fill-rule:evenodd;stroke:#0000FF;stroke-width:2.0px;stroke-linecap:butt;stroke-linejoin:miter;stroke-opacity:1"/>
<path class="bond-21 atom-20 atom-22" d="M 842.463,199.806 L 831.795,212.565" style="fill:none;fill-rule:evenodd;stroke:#000000;stroke-width:2.0px;stroke-linecap:butt;stroke-linejoin:miter;stroke-opacity:1"/>
<path class="bond-22 atom-20 atom-23" d="M 857.157,168.724 L 850.86,151.517" style="fill:none;fill-rule:evenodd;stroke:#0000FF;stroke-width:2.0px;stroke-linecap:butt;stroke-linejoin:miter;stroke-opacity:1"/>
<path class="bond-22 atom-20 atom-23" d="M 850.86,151.517 L 844.563,134.311" style="fill:none;fill-rule:evenodd;stroke:#000000;stroke-width:2.0px;stroke-linecap:butt;stroke-linejoin:miter;stroke-opacity:1"/>
<path class="bond-24 atom-21 atom-24" d="M 1087.65,58.7989 L 1098.32,46.0398" style="fill:none;fill-rule:evenodd;stroke:#0000FF;stroke-width:2.0px;stroke-linecap:butt;stroke-linejoin:miter;stroke-opacity:1"/>
<path class="bond-24 atom-21 atom-24" d="M 1098.32,46.0398 L 1108.98,33.2808" style="fill:none;fill-rule:evenodd;stroke:#000000;stroke-width:2.0px;stroke-linecap:butt;stroke-linejoin:miter;stroke-opacity:1"/>
<path class="bond-25 atom-21 atom-25" d="M 1072.72,66.4254 L 1052.41,62.8823" style="fill:none;fill-rule:evenodd;stroke:#0000FF;stroke-width:2.0px;stroke-linecap:butt;stroke-linejoin:miter;stroke-opacity:1"/>
<path class="bond-25 atom-21 atom-25" d="M 1052.41,62.8823 L 1032.11,59.3391" style="fill:none;fill-rule:evenodd;stroke:#000000;stroke-width:2.0px;stroke-linecap:butt;stroke-linejoin:miter;stroke-opacity:1"/>
<path class="atom-0" d="M 1167.16 183.364 Q 1167.16 179.53, 1169.05 177.388 Q 1170.95 175.245, 1174.49 175.245 Q 1178.03 175.245, 1179.92 177.388 Q 1181.82 179.53, 1181.82 183.364 Q 1181.82 187.244, 1179.9 189.454 Q 1177.98 191.642, 1174.49 191.642 Q 1170.97 191.642, 1169.05 189.454 Q 1167.16 187.266, 1167.16 183.364 M 1174.49 189.837 Q 1176.92 189.837, 1178.23 188.213 Q 1179.56 186.567, 1179.56 183.364 Q 1179.56 180.229, 1178.23 178.651 Q 1176.92 177.049, 1174.49 177.049 Q 1172.05 177.049, 1170.72 178.628 Q 1169.41 180.207, 1169.41 183.364 Q 1169.41 186.59, 1170.72 188.213 Q 1172.05 189.837, 1174.49 189.837 " fill="#FF0000"/>
<path class="atom-2" d="M 1079.25 208.901 L 1084.48 217.359 Q 1085 218.193, 1085.83 219.704 Q 1086.67 221.215, 1086.71 221.306 L 1086.71 208.901 L 1088.83 208.901 L 1088.83 224.869 L 1086.64 224.869 L 1081.03 215.622 Q 1080.37 214.539, 1079.68 213.299 Q 1079 212.059, 1078.8 211.675 L 1078.8 224.869 L 1076.72 224.869 L 1076.72 208.901 L 1079.25 208.901 " fill="#0000FF"/>
<path class="atom-11" d="M 1148.86 242.471 L 1151.02 242.471 L 1151.02 249.26 L 1159.19 249.26 L 1159.19 242.471 L 1161.35 242.471 L 1161.35 258.44 L 1159.19 258.44 L 1159.19 251.064 L 1151.02 251.064 L 1151.02 258.44 L 1148.86 258.44 L 1148.86 242.471 " fill="#000000"/>
<path class="atom-12" d="M 1042.96 281.23 L 1045.12 281.23 L 1045.12 288.019 L 1053.29 288.019 L 1053.29 281.23 L 1055.45 281.23 L 1055.45 297.198 L 1053.29 297.198 L 1053.29 289.823 L 1045.12 289.823 L 1045.12 297.198 L 1042.96 297.198 L 1042.96 281.23 " fill="#000000"/>
<path class="atom-13" d="M 1115.29 314.8 L 1117.45 314.8 L 1117.45 321.589 L 1125.62 321.589 L 1125.62 314.8 L 1127.78 314.8 L 1127.78 330.768 L 1125.62 330.768 L 1125.62 323.393 L 1117.45 323.393 L 1117.45 330.768 L 1115.29 330.768 L 1115.29 314.8 " fill="#000000"/>
<path class="atom-14" d="M 926.68 83.6178 L 928.845 83.6178 L 928.845 90.4065 L 937.01 90.4065 L 937.01 83.6178 L 939.175 83.6178 L 939.175 99.5859 L 937.01 99.5859 L 937.01 92.2108 L 928.845 92.2108 L 928.845 99.5859 L 926.68 99.5859 L 926.68 83.6178 " fill="#000000"/>
<path class="atom-15" d="M 893.106 276.033 L 895.272 276.033 L 895.272 282.821 L 903.436 282.821 L 903.436 276.033 L 905.601 276.033 L 905.601 292.001 L 903.436 292.001 L 903.436 284.626 L 895.272 284.626 L 895.272 292.001 L 893.106 292.001 L 893.106 276.033 " fill="#000000"/>
<path class="atom-16" d="M 1025.91 123.51 L 1028.08 123.51 L 1028.08 130.299 L 1036.24 130.299 L 1036.24 123.51 L 1038.41 123.51 L 1038.41 139.478 L 1036.24 139.478 L 1036.24 132.103 L 1028.08 132.103 L 1028.08 139.478 L 1025.91 139.478 L 1025.91 123.51 " fill="#000000"/>
<path class="atom-17" d="M 1004.2 295.416 L 1006.36 295.416 L 1006.36 302.205 L 1014.53 302.205 L 1014.53 295.416 L 1016.69 295.416 L 1016.69 311.385 L 1014.53 311.385 L 1014.53 304.009 L 1006.36 304.009 L 1006.36 311.385 L 1004.2 311.385 L 1004.2 295.416 " fill="#000000"/>
<path class="atom-18" d="M 1146.27 93.3144 L 1148.43 93.3144 L 1148.43 100.103 L 1156.6 100.103 L 1156.6 93.3144 L 1158.76 93.3144 L 1158.76 109.283 L 1156.6 109.283 L 1156.6 101.907 L 1148.43 101.907 L 1148.43 109.283 L 1146.27 109.283 L 1146.27 93.3144 " fill="#000000"/>
<path class="atom-19" d="M 1063.68 127.863 L 1065.84 127.863 L 1065.84 134.651 L 1074.01 134.651 L 1074.01 127.863 L 1076.17 127.863 L 1076.17 143.831 L 1074.01 143.831 L 1074.01 136.456 L 1065.84 136.456 L 1065.84 143.831 L 1063.68 143.831 L 1063.68 127.863 " fill="#000000"/>
<path class="atom-20" d="M 857.066 170.133 L 862.298 178.591 Q 862.817 179.425, 863.651 180.937 Q 864.486 182.448, 864.531 182.538 L 864.531 170.133 L 866.651 170.133 L 866.651 186.101 L 864.463 186.101 L 858.847 176.854 Q 858.193 175.772, 857.494 174.531 Q 856.818 173.291, 856.615 172.907 L 856.615 186.101 L 854.54 186.101 L 854.54 170.133 L 857.066 170.133 " fill="#0000FF"/>
<path class="atom-21" d="M 1076.65 59.744 L 1081.89 68.2017 Q 1082.41 69.0362, 1083.24 70.5473 Q 1084.07 72.0584, 1084.12 72.1486 L 1084.12 59.744 L 1086.24 59.744 L 1086.24 75.7121 L 1084.05 75.7121 L 1078.44 66.465 Q 1077.78 65.3824, 1077.08 64.142 Q 1076.41 62.9015, 1076.2 62.5181 L 1076.2 75.7121 L 1074.13 75.7121 L 1074.13 59.744 L 1076.65 59.744 " fill="#0000FF"/>
<path class="atom-22" d="M 818.182 213.391 L 820.347 213.391 L 820.347 220.18 L 828.511 220.18 L 828.511 213.391 L 830.677 213.391 L 830.677 229.359 L 828.511 229.359 L 828.511 221.984 L 820.347 221.984 L 820.347 229.359 L 818.182 229.359 L 818.182 213.391 " fill="#000000"/>
<path class="atom-23" d="M 834.969 117.184 L 837.134 117.184 L 837.134 123.972 L 845.298 123.972 L 845.298 117.184 L 847.464 117.184 L 847.464 133.152 L 845.298 133.152 L 845.298 125.777 L 837.134 125.777 L 837.134 133.152 L 834.969 133.152 L 834.969 117.184 " fill="#000000"/>
<path class="atom-24" d="M 1110.1 16.4863 L 1112.27 16.4863 L 1112.27 23.275 L 1120.43 23.275 L 1120.43 16.4863 L 1122.6 16.4863 L 1122.6 32.4544 L 1120.43 32.4544 L 1120.43 25.0793 L 1112.27 25.0793 L 1112.27 32.4544 L 1110.1 32.4544 L 1110.1 16.4863 " fill="#000000"/>
<path class="atom-25" d="M 1018.39 50.0521 L 1020.56 50.0521 L 1020.56 56.8408 L 1028.72 56.8408 L 1028.72 50.0521 L 1030.89 50.0521 L 1030.89 66.0202 L 1028.72 66.0202 L 1028.72 58.6451 L 1020.56 58.6451 L 1020.56 66.0202 L 1018.39 66.0202 L 1018.39 50.0521 " fill="#000000"/>
<path d="M 885.948 380.728 Q 886.364 379.656, 887.356 379.064 Q 888.348 378.456, 889.724 378.456 Q 891.436 378.456, 892.396 379.384 Q 893.356 380.312, 893.356 381.96 Q 893.356 383.64, 892.108 385.208 Q 890.876 386.776, 888.316 388.632 L 893.548 388.632 L 893.548 389.912 L 885.916 389.912 L 885.916 388.84 Q 888.028 387.336, 889.276 386.216 Q 890.54 385.096, 891.148 384.088 Q 891.756 383.08, 891.756 382.04 Q 891.756 380.952, 891.212 380.344 Q 890.668 379.736, 889.724 379.736 Q 888.812 379.736, 888.204 380.104 Q 887.596 380.472, 887.164 381.288 L 885.948 380.728 " fill="#000000"/>
<path d="M 898.396 382.824 Q 899.388 382.824, 900.204 383.256 Q 901.02 383.672, 901.484 384.472 Q 901.948 385.256, 901.948 386.328 Q 901.948 387.496, 901.372 388.344 Q 900.812 389.176, 899.884 389.608 Q 898.956 390.04, 897.9 390.04 Q 896.86 390.04, 895.9 389.656 Q 894.94 389.272, 894.284 388.536 L 895.244 387.544 Q 895.772 388.12, 896.492 388.44 Q 897.212 388.744, 897.948 388.744 Q 898.956 388.744, 899.644 388.12 Q 900.348 387.496, 900.348 386.36 Q 900.348 385.16, 899.644 384.6 Q 898.956 384.024, 897.852 384.024 Q 896.86 384.024, 895.756 384.456 L 894.876 384.04 L 895.42 378.584 L 901.244 378.584 L 901.084 379.864 L 896.732 379.864 L 896.396 383.224 Q 897.404 382.824, 898.396 382.824 " fill="#000000"/>
<path d="M 910.108 390.712 L 910.108 392.024 L 901.948 392.024 L 901.948 390.712 L 910.108 390.712 " fill="#000000"/>
<path d="M 916.22 383.944 Q 917.324 384.264, 917.852 384.984 Q 918.396 385.688, 918.396 386.808 Q 918.396 387.768, 917.916 388.52 Q 917.436 389.256, 916.556 389.672 Q 915.676 390.072, 914.524 390.072 Q 913.308 390.072, 912.396 389.656 Q 911.5 389.224, 910.78 388.36 L 911.692 387.432 Q 912.396 388.2, 912.988 388.504 Q 913.58 388.792, 914.524 388.792 Q 915.548 388.792, 916.172 388.248 Q 916.796 387.688, 916.796 386.792 Q 916.796 385.64, 916.14 385.128 Q 915.5 384.6, 914.108 384.6 L 913.292 384.6 L 913.292 383.448 L 914.012 383.448 Q 915.244 383.432, 915.9 382.904 Q 916.556 382.36, 916.556 381.352 Q 916.556 380.616, 916.012 380.184 Q 915.468 379.736, 914.54 379.736 Q 913.596 379.736, 913.004 380.072 Q 912.428 380.408, 911.98 381.256 L 910.876 380.664 Q 911.276 379.72, 912.236 379.096 Q 913.196 378.456, 914.54 378.456 Q 916.204 378.456, 917.18 379.24 Q 918.156 380.024, 918.156 381.352 Q 918.156 382.264, 917.66 382.92 Q 917.164 383.576, 916.22 383.944 " fill="#000000"/>
<path d="M 926.556 390.712 L 926.556 392.024 L 918.396 392.024 L 918.396 390.712 L 926.556 390.712 " fill="#000000"/>
<path d="M 927.964 378.536 L 929.484 378.536 L 929.484 389.912 L 927.964 389.912 L 927.964 378.536 " fill="#000000"/>
<path d="M 935.084 381.544 Q 936.396 381.544, 937.084 382.296 Q 937.788 383.048, 937.788 384.472 L 937.788 389.912 L 936.284 389.912 L 936.284 384.584 Q 936.284 383.608, 935.9 383.176 Q 935.532 382.728, 934.7 382.728 Q 933.948 382.728, 933.324 383.08 Q 932.7 383.416, 932.3 384.024 L 932.3 389.912 L 930.796 389.912 L 930.796 381.688 L 932.028 381.688 L 932.204 382.84 Q 933.308 381.544, 935.084 381.544 " fill="#000000"/>
<path d="M 945.996 377.768 L 945.996 389.896 L 944.78 389.896 L 944.572 388.888 Q 943.66 390.04, 942.14 390.04 Q 940.428 390.04, 939.468 388.984 Q 938.524 387.912, 938.524 385.928 Q 938.524 383.864, 939.644 382.712 Q 940.78 381.544, 942.748 381.544 Q 943.596 381.544, 944.492 381.768 L 944.492 377.768 L 945.996 377.768 M 942.236 388.856 Q 943.068 388.856, 943.66 388.408 Q 944.268 387.944, 944.492 387.128 L 944.492 382.968 Q 943.676 382.728, 942.764 382.728 Q 941.5 382.728, 940.78 383.576 Q 940.06 384.408, 940.06 385.928 Q 940.06 387.336, 940.62 388.104 Q 941.196 388.856, 942.236 388.856 " fill="#000000"/>
<path d="M 946.732 385.784 Q 946.732 383.768, 947.74 382.664 Q 948.748 381.544, 950.588 381.544 Q 952.396 381.544, 953.196 382.632 Q 954.012 383.704, 954.012 385.736 L 954.012 385.992 L 948.268 385.992 Q 948.3 387.384, 948.924 388.12 Q 949.548 388.856, 950.716 388.856 Q 951.356 388.856, 951.948 388.712 Q 952.54 388.552, 953.26 388.232 L 953.692 389.256 Q 952.876 389.672, 952.14 389.864 Q 951.404 390.04, 950.636 390.04 Q 948.78 390.04, 947.756 388.92 Q 946.732 387.8, 946.732 385.784 M 950.588 382.728 Q 949.644 382.728, 949.068 383.272 Q 948.508 383.816, 948.332 384.872 L 952.428 384.872 Q 952.316 383.768, 951.868 383.256 Q 951.42 382.728, 950.588 382.728 " fill="#000000"/>
<path d="M 957.148 385.656 L 954.364 381.688 L 956.108 381.688 L 958.092 384.488 L 960.06 381.688 L 961.676 381.688 L 958.892 385.64 L 961.916 389.912 L 960.156 389.912 L 957.964 386.808 L 955.788 389.912 L 954.156 389.912 L 957.148 385.656 " fill="#000000"/>
<path d="M 970.076 390.712 L 970.076 392.024 L 961.916 392.024 L 961.916 390.712 L 970.076 390.712 " fill="#000000"/>
<path d="M 975.196 390.04 Q 973.116 390.04, 972.076 388.504 Q 971.052 386.968, 971.052 384.232 Q 971.052 381.496, 972.076 379.976 Q 973.1 378.456, 975.196 378.456 Q 977.292 378.456, 978.316 379.976 Q 979.34 381.496, 979.34 384.232 Q 979.34 386.968, 978.3 388.504 Q 977.276 390.04, 975.196 390.04 M 975.196 388.76 Q 976.428 388.76, 977.084 387.624 Q 977.74 386.472, 977.74 384.232 Q 977.74 382.008, 977.084 380.872 Q 976.428 379.736, 975.196 379.736 Q 973.98 379.736, 973.308 380.872 Q 972.652 382.008, 972.652 384.232 Q 972.652 386.472, 973.308 387.624 Q 973.98 388.76, 975.196 388.76 " fill="#000000"/>
<path d="M 987.5 390.712 L 987.5 392.024 L 979.34 392.024 L 979.34 390.712 L 987.5 390.712 " fill="#000000"/>
<path d="M 997.404 384.36 L 997.404 389.144 Q 995.788 390.056, 993.404 390.056 Q 990.94 390.056, 989.612 388.552 Q 988.3 387.048, 988.3 384.232 Q 988.3 381.416, 989.612 379.944 Q 990.94 378.456, 993.452 378.456 Q 994.764 378.456, 995.724 378.872 Q 996.684 379.272, 997.356 380.104 L 996.316 380.968 Q 995.26 379.736, 993.452 379.736 Q 991.74 379.736, 990.828 380.888 Q 989.932 382.04, 989.932 384.232 Q 989.932 386.472, 990.86 387.624 Q 991.804 388.776, 993.628 388.776 Q 994.812 388.776, 995.868 388.392 L 995.868 384.36 L 997.404 384.36 " fill="#000000"/>
<path d="M 999.98 381.688 L 1000.16 382.824 Q 1001.02 381.544, 1002.43 381.544 Q 1002.88 381.544, 1003.48 381.704 L 1003.24 383.048 Q 1002.56 382.888, 1002.17 382.888 Q 1001.5 382.888, 1001.05 383.16 Q 1000.62 383.416, 1000.27 384.04 L 1000.27 389.912 L 998.764 389.912 L 998.764 381.688 L 999.98 381.688 " fill="#000000"/>
<path d="M 1004.22 385.784 Q 1004.22 383.784, 1005.23 382.664 Q 1006.25 381.544, 1008.12 381.544 Q 1010 381.544, 1011 382.664 Q 1012.03 383.784, 1012.03 385.784 Q 1012.03 387.784, 1011 388.92 Q 1010 390.04, 1008.12 390.04 Q 1006.25 390.04, 1005.23 388.92 Q 1004.22 387.784, 1004.22 385.784 M 1005.76 385.784 Q 1005.76 387.288, 1006.36 388.072 Q 1006.99 388.856, 1008.12 388.856 Q 1009.26 388.856, 1009.87 388.072 Q 1010.49 387.288, 1010.49 385.784 Q 1010.49 384.28, 1009.87 383.512 Q 1009.26 382.728, 1008.12 382.728 Q 1006.99 382.728, 1006.36 383.512 Q 1005.76 384.28, 1005.76 385.784 " fill="#000000"/>
<path d="M 1022.81 381.688 L 1024.32 381.688 L 1022.01 389.912 L 1020 389.912 L 1018.36 383.736 L 1016.76 389.912 L 1014.78 389.912 L 1012.48 381.688 L 1013.98 381.688 L 1015.84 388.472 L 1017.61 381.688 L 1019.12 381.688 L 1020.97 388.472 L 1022.81 381.688 " fill="#000000"/>
<path d="M 1025.68 378.584 L 1032.41 378.584 L 1032.41 379.88 L 1027.2 379.88 L 1027.2 383.32 L 1031.84 383.32 L 1031.84 384.632 L 1027.2 384.632 L 1027.2 389.912 L 1025.68 389.912 L 1025.68 378.584 " fill="#000000"/>
<path d="M 1034.99 381.688 L 1035.16 382.824 Q 1036.03 381.544, 1037.44 381.544 Q 1037.88 381.544, 1038.49 381.704 L 1038.25 383.048 Q 1037.56 382.888, 1037.18 382.888 Q 1036.51 382.888, 1036.06 383.16 Q 1035.63 383.416, 1035.28 384.04 L 1035.28 389.912 L 1033.77 389.912 L 1033.77 381.688 L 1034.99 381.688 " fill="#000000"/>
<path d="M 1039.2 387.688 Q 1039.2 386.376, 1040.25 385.656 Q 1041.31 384.936, 1043.24 384.936 L 1044.46 384.936 L 1044.46 384.616 Q 1044.46 383.592, 1044.03 383.16 Q 1043.61 382.728, 1042.59 382.728 Q 1041.93 382.728, 1041.42 382.856 Q 1040.91 382.968, 1040.11 383.32 L 1039.66 382.28 Q 1041.16 381.544, 1042.62 381.544 Q 1044.36 381.544, 1045.16 382.296 Q 1045.96 383.032, 1045.96 384.648 L 1045.96 389.912 L 1044.8 389.912 Q 1044.78 389.848, 1044.73 389.608 Q 1044.68 389.352, 1044.59 388.952 Q 1043.44 390.104, 1041.9 390.104 Q 1040.67 390.104, 1039.93 389.448 Q 1039.2 388.792, 1039.2 387.688 M 1040.7 387.656 Q 1040.7 388.264, 1041.08 388.6 Q 1041.47 388.92, 1042.19 388.92 Q 1042.83 388.92, 1043.44 388.632 Q 1044.04 388.328, 1044.46 387.816 L 1044.46 386.056 L 1043.34 386.056 Q 1042.03 386.056, 1041.36 386.456 Q 1040.7 386.856, 1040.7 387.656 " fill="#000000"/>
<path d="M 1054.17 381.672 L 1054.17 390.392 Q 1054.17 393.928, 1050.43 393.928 Q 1048.62 393.928, 1047 393.096 L 1047.52 391.992 Q 1048.38 392.424, 1049 392.584 Q 1049.63 392.744, 1050.43 392.744 Q 1051.63 392.744, 1052.14 392.2 Q 1052.67 391.672, 1052.67 390.424 L 1052.67 388.984 Q 1051.8 390.04, 1050.32 390.04 Q 1048.6 390.04, 1047.64 388.984 Q 1046.7 387.912, 1046.7 385.928 Q 1046.7 383.864, 1047.82 382.712 Q 1048.96 381.544, 1050.92 381.544 Q 1051.96 381.544, 1052.92 381.848 L 1052.97 381.672 L 1054.17 381.672 M 1050.41 388.856 Q 1051.24 388.856, 1051.84 388.408 Q 1052.44 387.944, 1052.67 387.128 L 1052.67 382.968 Q 1051.85 382.728, 1050.94 382.728 Q 1049.68 382.728, 1048.96 383.576 Q 1048.24 384.408, 1048.24 385.928 Q 1048.24 387.336, 1048.8 388.104 Q 1049.37 388.856, 1050.41 388.856 " fill="#000000"/>
<path d="M 1064.99 381.544 Q 1066.38 381.544, 1067.08 382.296 Q 1067.79 383.032, 1067.79 384.472 L 1067.79 389.912 L 1066.28 389.912 L 1066.28 384.584 Q 1066.28 383.608, 1065.9 383.176 Q 1065.53 382.728, 1064.7 382.728 Q 1063.98 382.728, 1063.36 383.08 Q 1062.75 383.416, 1062.38 384.024 Q 1062.4 384.168, 1062.4 384.472 L 1062.4 389.912 L 1060.89 389.912 L 1060.89 384.584 Q 1060.89 383.608, 1060.51 383.176 Q 1060.14 382.728, 1059.31 382.728 Q 1058.59 382.728, 1057.98 383.08 Q 1057.37 383.416, 1056.99 384.008 L 1056.99 389.912 L 1055.48 389.912 L 1055.48 381.688 L 1056.72 381.688 L 1056.88 382.808 Q 1057.95 381.544, 1059.6 381.544 Q 1061.53 381.544, 1062.14 382.984 Q 1063.23 381.544, 1064.99 381.544 " fill="#000000"/>
<path d="M 1068.52 385.784 Q 1068.52 383.768, 1069.53 382.664 Q 1070.54 381.544, 1072.38 381.544 Q 1074.19 381.544, 1074.99 382.632 Q 1075.8 383.704, 1075.8 385.736 L 1075.8 385.992 L 1070.06 385.992 Q 1070.09 387.384, 1070.72 388.12 Q 1071.34 388.856, 1072.51 388.856 Q 1073.15 388.856, 1073.74 388.712 Q 1074.33 388.552, 1075.05 388.232 L 1075.48 389.256 Q 1074.67 389.672, 1073.93 389.864 Q 1073.2 390.04, 1072.43 390.04 Q 1070.57 390.04, 1069.55 388.92 Q 1068.52 387.8, 1068.52 385.784 M 1072.38 382.728 Q 1071.44 382.728, 1070.86 383.272 Q 1070.3 383.816, 1070.12 384.872 L 1074.22 384.872 Q 1074.11 383.768, 1073.66 383.256 Q 1073.21 382.728, 1072.38 382.728 " fill="#000000"/>
<path d="M 1081.4 381.544 Q 1082.72 381.544, 1083.4 382.296 Q 1084.11 383.048, 1084.11 384.472 L 1084.11 389.912 L 1082.6 389.912 L 1082.6 384.584 Q 1082.6 383.608, 1082.22 383.176 Q 1081.85 382.728, 1081.02 382.728 Q 1080.27 382.728, 1079.64 383.08 Q 1079.02 383.416, 1078.62 384.024 L 1078.62 389.912 L 1077.12 389.912 L 1077.12 381.688 L 1078.35 381.688 L 1078.52 382.84 Q 1079.63 381.544, 1081.4 381.544 " fill="#000000"/>
<path d="M 1084.57 382.84 L 1084.57 381.688 L 1086.14 381.688 L 1086.4 379.288 L 1087.52 379.288 L 1087.52 381.688 L 1090.03 381.688 L 1090.03 382.84 L 1087.52 382.84 L 1087.52 387.384 Q 1087.52 388.808, 1088.72 388.808 Q 1089.2 388.808, 1089.9 388.584 L 1090.16 389.64 Q 1089.28 390.008, 1088.44 390.008 Q 1087.37 390.008, 1086.68 389.368 Q 1086.01 388.728, 1086.01 387.464 L 1086.01 382.84 L 1084.57 382.84 " fill="#000000"/>
<path d="M 1098.32 390.712 L 1098.32 392.024 L 1090.16 392.024 L 1090.16 390.712 L 1098.32 390.712 " fill="#000000"/>
<path d="M 1099.15 380.728 Q 1099.56 379.656, 1100.56 379.064 Q 1101.55 378.456, 1102.92 378.456 Q 1104.64 378.456, 1105.6 379.384 Q 1106.56 380.312, 1106.56 381.96 Q 1106.56 383.64, 1105.31 385.208 Q 1104.08 386.776, 1101.52 388.632 L 1106.75 388.632 L 1106.75 389.912 L 1099.12 389.912 L 1099.12 388.84 Q 1101.23 387.336, 1102.48 386.216 Q 1103.74 385.096, 1104.35 384.088 Q 1104.96 383.08, 1104.96 382.04 Q 1104.96 380.952, 1104.41 380.344 Q 1103.87 379.736, 1102.92 379.736 Q 1102.01 379.736, 1101.4 380.104 Q 1100.8 380.472, 1100.36 381.288 L 1099.15 380.728 " fill="#000000"/>
<path d="M 318.943,573.627 L 282.777,616.885" style="fill:none;fill-rule:evenodd;stroke:#FF7F7F;stroke-width:12.0px;stroke-linecap:butt;stroke-linejoin:miter;stroke-opacity:1"/>
<path class="bond-1 atom-1 atom-0" d="M 317.974,579.182 L 341.377,583.265" style="fill:none;fill-rule:evenodd;stroke:#000000;stroke-width:2.0px;stroke-linecap:butt;stroke-linejoin:miter;stroke-opacity:1"/>
<path class="bond-1 atom-1 atom-0" d="M 341.377,583.265 L 364.779,587.349" style="fill:none;fill-rule:evenodd;stroke:#FF0000;stroke-width:2.0px;stroke-linecap:butt;stroke-linejoin:miter;stroke-opacity:1"/>
<path class="bond-1 atom-1 atom-0" d="M 319.912,568.073 L 343.315,572.156" style="fill:none;fill-rule:evenodd;stroke:#000000;stroke-width:2.0px;stroke-linecap:butt;stroke-linejoin:miter;stroke-opacity:1"/>
<path class="bond-1 atom-1 atom-0" d="M 343.315,572.156 L 366.718,576.24" style="fill:none;fill-rule:evenodd;stroke:#FF0000;stroke-width:2.0px;stroke-linecap:butt;stroke-linejoin:miter;stroke-opacity:1"/>
<path class="bond-0 atom-1 atom-10" d="M 318.943,573.627 L 299.564,520.678" style="fill:none;fill-rule:evenodd;stroke:#000000;stroke-width:2.0px;stroke-linecap:butt;stroke-linejoin:miter;stroke-opacity:1"/>
<path class="bond-3 atom-2 atom-1" d="M 290.242,607.956 L 304.592,590.792" style="fill:none;fill-rule:evenodd;stroke:#0000FF;stroke-width:2.0px;stroke-linecap:butt;stroke-linejoin:miter;stroke-opacity:1"/>
<path class="bond-3 atom-2 atom-1" d="M 304.592,590.792 L 318.943,573.627" style="fill:none;fill-rule:evenodd;stroke:#000000;stroke-width:2.0px;stroke-linecap:butt;stroke-linejoin:miter;stroke-opacity:1"/>
<path class="bond-2 atom-2 atom-4" d="M 275.311,615.582 L 251.271,611.388" style="fill:none;fill-rule:evenodd;stroke:#0000FF;stroke-width:2.0px;stroke-linecap:butt;stroke-linejoin:miter;stroke-opacity:1"/>
<path class="bond-2 atom-2 atom-4" d="M 251.271,611.388 L 227.231,607.193" style="fill:none;fill-rule:evenodd;stroke:#000000;stroke-width:2.0px;stroke-linecap:butt;stroke-linejoin:miter;stroke-opacity:1"/>
<path class="bond-4 atom-2 atom-3" d="M 286.215,626.279 L 294.185,648.057" style="fill:none;fill-rule:evenodd;stroke:#0000FF;stroke-width:2.0px;stroke-linecap:butt;stroke-linejoin:miter;stroke-opacity:1"/>
<path class="bond-4 atom-2 atom-3" d="M 294.185,648.057 L 302.156,669.835" style="fill:none;fill-rule:evenodd;stroke:#000000;stroke-width:2.0px;stroke-linecap:butt;stroke-linejoin:miter;stroke-opacity:1"/>
<path class="bond-5 atom-3 atom-11" d="M 302.156,669.835 L 347.449,653.258" style="fill:none;fill-rule:evenodd;stroke:#000000;stroke-width:2.0px;stroke-linecap:butt;stroke-linejoin:miter;stroke-opacity:1"/>
<path class="bond-6 atom-3 atom-12" d="M 302.156,669.835 L 256.863,686.411" style="fill:none;fill-rule:evenodd;stroke:#000000;stroke-width:2.0px;stroke-linecap:butt;stroke-linejoin:miter;stroke-opacity:1"/>
<path class="bond-7 atom-3 atom-13" d="M 302.156,669.835 L 318.097,713.391" style="fill:none;fill-rule:evenodd;stroke:#000000;stroke-width:2.0px;stroke-linecap:butt;stroke-linejoin:miter;stroke-opacity:1"/>
<path class="bond-14 atom-8 atom-4" d="M 207.852,554.243 L 227.231,607.193" style="fill:none;fill-rule:evenodd;stroke:#000000;stroke-width:2.0px;stroke-linecap:butt;stroke-linejoin:miter;stroke-opacity:1"/>
<path class="bond-14 atom-8 atom-4" d="M 200.169,566.062 L 213.735,603.127" style="fill:none;fill-rule:evenodd;stroke:#000000;stroke-width:2.0px;stroke-linecap:butt;stroke-linejoin:miter;stroke-opacity:1"/>
<path class="bond-16 atom-9 atom-4" d="M 191.065,650.451 L 227.231,607.193" style="fill:none;fill-rule:evenodd;stroke:#000000;stroke-width:2.0px;stroke-linecap:butt;stroke-linejoin:miter;stroke-opacity:1"/>
<path class="bond-8 atom-5 atom-6" d="M 116.141,587.809 L 152.307,544.552" style="fill:none;fill-rule:evenodd;stroke:#000000;stroke-width:2.0px;stroke-linecap:butt;stroke-linejoin:miter;stroke-opacity:1"/>
<path class="bond-8 atom-5 atom-6" d="M 130.217,588.554 L 155.533,558.273" style="fill:none;fill-rule:evenodd;stroke:#000000;stroke-width:2.0px;stroke-linecap:butt;stroke-linejoin:miter;stroke-opacity:1"/>
<path class="bond-9 atom-5 atom-7" d="M 116.141,587.809 L 135.52,640.759" style="fill:none;fill-rule:evenodd;stroke:#000000;stroke-width:2.0px;stroke-linecap:butt;stroke-linejoin:miter;stroke-opacity:1"/>
<path class="bond-21 atom-20 atom-5" d="M 68.0607,579.42 L 92.1007,583.615" style="fill:none;fill-rule:evenodd;stroke:#0000FF;stroke-width:2.0px;stroke-linecap:butt;stroke-linejoin:miter;stroke-opacity:1"/>
<path class="bond-21 atom-20 atom-5" d="M 92.1007,583.615 L 116.141,587.809" style="fill:none;fill-rule:evenodd;stroke:#000000;stroke-width:2.0px;stroke-linecap:butt;stroke-linejoin:miter;stroke-opacity:1"/>
<path class="bond-10 atom-6 atom-8" d="M 152.307,544.552 L 207.852,554.243" style="fill:none;fill-rule:evenodd;stroke:#000000;stroke-width:2.0px;stroke-linecap:butt;stroke-linejoin:miter;stroke-opacity:1"/>
<path class="bond-11 atom-6 atom-14" d="M 152.307,544.552 L 136.366,500.996" style="fill:none;fill-rule:evenodd;stroke:#000000;stroke-width:2.0px;stroke-linecap:butt;stroke-linejoin:miter;stroke-opacity:1"/>
<path class="bond-12 atom-7 atom-9" d="M 135.52,640.759 L 191.065,650.451" style="fill:none;fill-rule:evenodd;stroke:#000000;stroke-width:2.0px;stroke-linecap:butt;stroke-linejoin:miter;stroke-opacity:1"/>
<path class="bond-12 atom-7 atom-9" d="M 145.79,631.104 L 184.672,637.888" style="fill:none;fill-rule:evenodd;stroke:#000000;stroke-width:2.0px;stroke-linecap:butt;stroke-linejoin:miter;stroke-opacity:1"/>
<path class="bond-13 atom-7 atom-15" d="M 135.52,640.759 L 107.011,674.858" style="fill:none;fill-rule:evenodd;stroke:#000000;stroke-width:2.0px;stroke-linecap:butt;stroke-linejoin:miter;stroke-opacity:1"/>
<path class="bond-15 atom-8 atom-16" d="M 207.852,554.243 L 225.083,538.119" style="fill:none;fill-rule:evenodd;stroke:#000000;stroke-width:2.0px;stroke-linecap:butt;stroke-linejoin:miter;stroke-opacity:1"/>
<path class="bond-17 atom-9 atom-17" d="M 191.065,650.451 L 207.006,694.007" style="fill:none;fill-rule:evenodd;stroke:#000000;stroke-width:2.0px;stroke-linecap:butt;stroke-linejoin:miter;stroke-opacity:1"/>
<path class="bond-18 atom-10 atom-18" d="M 299.564,520.678 L 277.005,532.223" style="fill:none;fill-rule:evenodd;stroke:#000000;stroke-width:2.0px;stroke-linecap:butt;stroke-linejoin:miter;stroke-opacity:1"/>
<path class="bond-19 atom-10 atom-19" d="M 299.564,520.678 L 344.856,504.101" style="fill:none;fill-rule:evenodd;stroke:#000000;stroke-width:2.0px;stroke-linecap:butt;stroke-linejoin:miter;stroke-opacity:1"/>
<path class="bond-20 atom-10 atom-22" d="M 299.564,520.678 L 283.622,477.122" style="fill:none;fill-rule:evenodd;stroke:#000000;stroke-width:2.0px;stroke-linecap:butt;stroke-linejoin:miter;stroke-opacity:1"/>
<path class="bond-22 atom-20 atom-21" d="M 53.13,587.046 L 42.4627,599.806" style="fill:none;fill-rule:evenodd;stroke:#0000FF;stroke-width:2.0px;stroke-linecap:butt;stroke-linejoin:miter;stroke-opacity:1"/>
<path class="bond-22 atom-20 atom-21" d="M 42.4627,599.806 L 31.7953,612.565" style="fill:none;fill-rule:evenodd;stroke:#000000;stroke-width:2.0px;stroke-linecap:butt;stroke-linejoin:miter;stroke-opacity:1"/>
<path class="bond-23 atom-20 atom-23" d="M 57.1573,568.724 L 50.86,551.517" style="fill:none;fill-rule:evenodd;stroke:#0000FF;stroke-width:2.0px;stroke-linecap:butt;stroke-linejoin:miter;stroke-opacity:1"/>
<path class="bond-23 atom-20 atom-23" d="M 50.86,551.517 L 44.5626,534.311" style="fill:none;fill-rule:evenodd;stroke:#000000;stroke-width:2.0px;stroke-linecap:butt;stroke-linejoin:miter;stroke-opacity:1"/>
<path class="atom-0" d="M 367.158 583.364 Q 367.158 579.53, 369.053 577.388 Q 370.947 575.245, 374.488 575.245 Q 378.029 575.245, 379.924 577.388 Q 381.818 579.53, 381.818 583.364 Q 381.818 587.244, 379.901 589.454 Q 377.984 591.642, 374.488 591.642 Q 370.97 591.642, 369.053 589.454 Q 367.158 587.266, 367.158 583.364 M 374.488 589.837 Q 376.924 589.837, 378.232 588.213 Q 379.563 586.567, 379.563 583.364 Q 379.563 580.229, 378.232 578.651 Q 376.924 577.049, 374.488 577.049 Q 372.052 577.049, 370.722 578.628 Q 369.414 580.207, 369.414 583.364 Q 369.414 586.59, 370.722 588.213 Q 372.052 589.837, 374.488 589.837 " fill="#FF0000"/>
<path class="atom-2" d="M 279.247 608.901 L 284.48 617.359 Q 284.998 618.193, 285.833 619.704 Q 286.667 621.215, 286.712 621.306 L 286.712 608.901 L 288.832 608.901 L 288.832 624.869 L 286.645 624.869 L 281.029 615.622 Q 280.375 614.539, 279.676 613.299 Q 278.999 612.059, 278.796 611.675 L 278.796 624.869 L 276.721 624.869 L 276.721 608.901 L 279.247 608.901 " fill="#0000FF"/>
<path class="atom-11" d="M 348.858 642.471 L 351.023 642.471 L 351.023 649.26 L 359.188 649.26 L 359.188 642.471 L 361.353 642.471 L 361.353 658.44 L 359.188 658.44 L 359.188 651.064 L 351.023 651.064 L 351.023 658.44 L 348.858 658.44 L 348.858 642.471 " fill="#000000"/>
<path class="atom-12" d="M 242.959 681.23 L 245.124 681.23 L 245.124 688.019 L 253.289 688.019 L 253.289 681.23 L 255.454 681.23 L 255.454 697.198 L 253.289 697.198 L 253.289 689.823 L 245.124 689.823 L 245.124 697.198 L 242.959 697.198 L 242.959 681.23 " fill="#000000"/>
<path class="atom-13" d="M 315.288 714.8 L 317.453 714.8 L 317.453 721.589 L 325.617 721.589 L 325.617 714.8 L 327.783 714.8 L 327.783 730.768 L 325.617 730.768 L 325.617 723.393 L 317.453 723.393 L 317.453 730.768 L 315.288 730.768 L 315.288 714.8 " fill="#000000"/>
<path class="atom-14" d="M 126.68 483.618 L 128.845 483.618 L 128.845 490.407 L 137.01 490.407 L 137.01 483.618 L 139.175 483.618 L 139.175 499.586 L 137.01 499.586 L 137.01 492.211 L 128.845 492.211 L 128.845 499.586 L 126.68 499.586 L 126.68 483.618 " fill="#000000"/>
<path class="atom-15" d="M 93.1064 676.033 L 95.2715 676.033 L 95.2715 682.821 L 103.436 682.821 L 103.436 676.033 L 105.601 676.033 L 105.601 692.001 L 103.436 692.001 L 103.436 684.626 L 95.2715 684.626 L 95.2715 692.001 L 93.1064 692.001 L 93.1064 676.033 " fill="#000000"/>
<path class="atom-16" d="M 225.915 523.51 L 228.08 523.51 L 228.08 530.299 L 236.245 530.299 L 236.245 523.51 L 238.41 523.51 L 238.41 539.478 L 236.245 539.478 L 236.245 532.103 L 228.08 532.103 L 228.08 539.478 L 225.915 539.478 L 225.915 523.51 " fill="#000000"/>
<path class="atom-17" d="M 204.197 695.416 L 206.362 695.416 L 206.362 702.205 L 214.527 702.205 L 214.527 695.416 L 216.692 695.416 L 216.692 711.385 L 214.527 711.385 L 214.527 704.009 L 206.362 704.009 L 206.362 711.385 L 204.197 711.385 L 204.197 695.416 " fill="#000000"/>
<path class="atom-18" d="M 263.678 527.863 L 265.843 527.863 L 265.843 534.651 L 274.008 534.651 L 274.008 527.863 L 276.173 527.863 L 276.173 543.831 L 274.008 543.831 L 274.008 536.456 L 265.843 536.456 L 265.843 543.831 L 263.678 543.831 L 263.678 527.863 " fill="#000000"/>
<path class="atom-19" d="M 346.266 493.314 L 348.431 493.314 L 348.431 500.103 L 356.596 500.103 L 356.596 493.314 L 358.761 493.314 L 358.761 509.283 L 356.596 509.283 L 356.596 501.907 L 348.431 501.907 L 348.431 509.283 L 346.266 509.283 L 346.266 493.314 " fill="#000000"/>
<path class="atom-20" d="M 57.0657 570.133 L 62.2982 578.591 Q 62.8169 579.425, 63.6514 580.937 Q 64.4859 582.448, 64.531 582.538 L 64.531 570.133 L 66.6511 570.133 L 66.6511 586.101 L 64.4633 586.101 L 58.8474 576.854 Q 58.1934 575.772, 57.4942 574.531 Q 56.8176 573.291, 56.6146 572.907 L 56.6146 586.101 L 54.5397 586.101 L 54.5397 570.133 L 57.0657 570.133 " fill="#0000FF"/>
<path class="atom-21" d="M 18.1818 613.391 L 20.347 613.391 L 20.347 620.18 L 28.5115 620.18 L 28.5115 613.391 L 30.6766 613.391 L 30.6766 629.359 L 28.5115 629.359 L 28.5115 621.984 L 20.347 621.984 L 20.347 629.359 L 18.1818 629.359 L 18.1818 613.391 " fill="#000000"/>
<path class="atom-22" d="M 273.937 459.744 L 276.102 459.744 L 276.102 466.533 L 284.267 466.533 L 284.267 459.744 L 286.432 459.744 L 286.432 475.712 L 284.267 475.712 L 284.267 468.337 L 276.102 468.337 L 276.102 475.712 L 273.937 475.712 L 273.937 459.744 " fill="#000000"/>
<path class="atom-23" d="M 34.9687 517.184 L 37.1339 517.184 L 37.1339 523.972 L 45.2984 523.972 L 45.2984 517.184 L 47.4636 517.184 L 47.4636 533.152 L 45.2984 533.152 L 45.2984 525.777 L 37.1339 525.777 L 37.1339 533.152 L 34.9687 533.152 L 34.9687 517.184 " fill="#000000"/>
<path d="M 85.7652 780.728 Q 86.1812 779.656, 87.1732 779.064 Q 88.1652 778.456, 89.5412 778.456 Q 91.2532 778.456, 92.2132 779.384 Q 93.1732 780.312, 93.1732 781.96 Q 93.1732 783.64, 91.9252 785.208 Q 90.6932 786.776, 88.1332 788.632 L 93.3652 788.632 L 93.3652 789.912 L 85.7332 789.912 L 85.7332 788.84 Q 87.8452 787.336, 89.0932 786.216 Q 90.3572 785.096, 90.9652 784.088 Q 91.5732 783.08, 91.5732 782.04 Q 91.5732 780.952, 91.0292 780.344 Q 90.4852 779.736, 89.5412 779.736 Q 88.6292 779.736, 88.0212 780.104 Q 87.4132 780.472, 86.9812 781.288 L 85.7652 780.728 " fill="#000000"/>
<path d="M 98.2132 782.824 Q 99.2052 782.824, 100.021 783.256 Q 100.837 783.672, 101.301 784.472 Q 101.765 785.256, 101.765 786.328 Q 101.765 787.496, 101.189 788.344 Q 100.629 789.176, 99.7012 789.608 Q 98.7732 790.04, 97.7172 790.04 Q 96.6772 790.04, 95.7172 789.656 Q 94.7572 789.272, 94.1012 788.536 L 95.0612 787.544 Q 95.5892 788.12, 96.3092 788.44 Q 97.0292 788.744, 97.7652 788.744 Q 98.7732 788.744, 99.4612 788.12 Q 100.165 787.496, 100.165 786.36 Q 100.165 785.16, 99.4612 784.6 Q 98.7732 784.024, 97.6692 784.024 Q 96.6772 784.024, 95.5732 784.456 L 94.6932 784.04 L 95.2372 778.584 L 101.061 778.584 L 100.901 779.864 L 96.5492 779.864 L 96.2132 783.224 Q 97.2212 782.824, 98.2132 782.824 " fill="#000000"/>
<path d="M 109.925 790.712 L 109.925 792.024 L 101.765 792.024 L 101.765 790.712 L 109.925 790.712 " fill="#000000"/>
<path d="M 116.037 783.944 Q 117.141 784.264, 117.669 784.984 Q 118.213 785.688, 118.213 786.808 Q 118.213 787.768, 117.733 788.52 Q 117.253 789.256, 116.373 789.672 Q 115.493 790.072, 114.341 790.072 Q 113.125 790.072, 112.213 789.656 Q 111.317 789.224, 110.597 788.36 L 111.509 787.432 Q 112.213 788.2, 112.805 788.504 Q 113.397 788.792, 114.341 788.792 Q 115.365 788.792, 115.989 788.248 Q 116.613 787.688, 116.613 786.792 Q 116.613 785.64, 115.957 785.128 Q 115.317 784.6, 113.925 784.6 L 113.109 784.6 L 113.109 783.448 L 113.829 783.448 Q 115.061 783.432, 115.717 782.904 Q 116.373 782.36, 116.373 781.352 Q 116.373 780.616, 115.829 780.184 Q 115.285 779.736, 114.357 779.736 Q 113.413 779.736, 112.821 780.072 Q 112.245 780.408, 111.797 781.256 L 110.693 780.664 Q 111.093 779.72, 112.053 779.096 Q 113.013 778.456, 114.357 778.456 Q 116.021 778.456, 116.997 779.24 Q 117.973 780.024, 117.973 781.352 Q 117.973 782.264, 117.477 782.92 Q 116.981 783.576, 116.037 783.944 " fill="#000000"/>
<path d="M 126.373 790.712 L 126.373 792.024 L 118.213 792.024 L 118.213 790.712 L 126.373 790.712 " fill="#000000"/>
<path d="M 127.781 778.536 L 129.301 778.536 L 129.301 789.912 L 127.781 789.912 L 127.781 778.536 " fill="#000000"/>
<path d="M 134.901 781.544 Q 136.213 781.544, 136.901 782.296 Q 137.605 783.048, 137.605 784.472 L 137.605 789.912 L 136.101 789.912 L 136.101 784.584 Q 136.101 783.608, 135.717 783.176 Q 135.349 782.728, 134.517 782.728 Q 133.765 782.728, 133.141 783.08 Q 132.517 783.416, 132.117 784.024 L 132.117 789.912 L 130.613 789.912 L 130.613 781.688 L 131.845 781.688 L 132.021 782.84 Q 133.125 781.544, 134.901 781.544 " fill="#000000"/>
<path d="M 145.813 777.768 L 145.813 789.896 L 144.597 789.896 L 144.389 788.888 Q 143.477 790.04, 141.957 790.04 Q 140.245 790.04, 139.285 788.984 Q 138.341 787.912, 138.341 785.928 Q 138.341 783.864, 139.461 782.712 Q 140.597 781.544, 142.565 781.544 Q 143.413 781.544, 144.309 781.768 L 144.309 777.768 L 145.813 777.768 M 142.053 788.856 Q 142.885 788.856, 143.477 788.408 Q 144.085 787.944, 144.309 787.128 L 144.309 782.968 Q 143.493 782.728, 142.581 782.728 Q 141.317 782.728, 140.597 783.576 Q 139.877 784.408, 139.877 785.928 Q 139.877 787.336, 140.437 788.104 Q 141.013 788.856, 142.053 788.856 " fill="#000000"/>
<path d="M 146.549 785.784 Q 146.549 783.768, 147.557 782.664 Q 148.565 781.544, 150.405 781.544 Q 152.213 781.544, 153.013 782.632 Q 153.829 783.704, 153.829 785.736 L 153.829 785.992 L 148.085 785.992 Q 148.117 787.384, 148.741 788.12 Q 149.365 788.856, 150.533 788.856 Q 151.173 788.856, 151.765 788.712 Q 152.357 788.552, 153.077 788.232 L 153.509 789.256 Q 152.693 789.672, 151.957 789.864 Q 151.221 790.04, 150.453 790.04 Q 148.597 790.04, 147.573 788.92 Q 146.549 787.8, 146.549 785.784 M 150.405 782.728 Q 149.461 782.728, 148.885 783.272 Q 148.325 783.816, 148.149 784.872 L 152.245 784.872 Q 152.133 783.768, 151.685 783.256 Q 151.237 782.728, 150.405 782.728 " fill="#000000"/>
<path d="M 156.965 785.656 L 154.181 781.688 L 155.925 781.688 L 157.909 784.488 L 159.877 781.688 L 161.493 781.688 L 158.709 785.64 L 161.733 789.912 L 159.973 789.912 L 157.781 786.808 L 155.605 789.912 L 153.973 789.912 L 156.965 785.656 " fill="#000000"/>
<path d="M 169.893 790.712 L 169.893 792.024 L 161.733 792.024 L 161.733 790.712 L 169.893 790.712 " fill="#000000"/>
<path d="M 175.013 790.04 Q 172.933 790.04, 171.893 788.504 Q 170.869 786.968, 170.869 784.232 Q 170.869 781.496, 171.893 779.976 Q 172.917 778.456, 175.013 778.456 Q 177.109 778.456, 178.133 779.976 Q 179.157 781.496, 179.157 784.232 Q 179.157 786.968, 178.117 788.504 Q 177.093 790.04, 175.013 790.04 M 175.013 788.76 Q 176.245 788.76, 176.901 787.624 Q 177.557 786.472, 177.557 784.232 Q 177.557 782.008, 176.901 780.872 Q 176.245 779.736, 175.013 779.736 Q 173.797 779.736, 173.125 780.872 Q 172.469 782.008, 172.469 784.232 Q 172.469 786.472, 173.125 787.624 Q 173.797 788.76, 175.013 788.76 " fill="#000000"/>
<path d="M 187.317 790.712 L 187.317 792.024 L 179.157 792.024 L 179.157 790.712 L 187.317 790.712 " fill="#000000"/>
<path d="M 197.221 784.36 L 197.221 789.144 Q 195.605 790.056, 193.221 790.056 Q 190.757 790.056, 189.429 788.552 Q 188.117 787.048, 188.117 784.232 Q 188.117 781.416, 189.429 779.944 Q 190.757 778.456, 193.269 778.456 Q 194.581 778.456, 195.541 778.872 Q 196.501 779.272, 197.173 780.104 L 196.133 780.968 Q 195.077 779.736, 193.269 779.736 Q 191.557 779.736, 190.645 780.888 Q 189.749 782.04, 189.749 784.232 Q 189.749 786.472, 190.677 787.624 Q 191.621 788.776, 193.445 788.776 Q 194.629 788.776, 195.685 788.392 L 195.685 784.36 L 197.221 784.36 " fill="#000000"/>
<path d="M 199.797 781.688 L 199.973 782.824 Q 200.837 781.544, 202.245 781.544 Q 202.693 781.544, 203.301 781.704 L 203.061 783.048 Q 202.373 782.888, 201.989 782.888 Q 201.317 782.888, 200.869 783.16 Q 200.437 783.416, 200.085 784.04 L 200.085 789.912 L 198.581 789.912 L 198.581 781.688 L 199.797 781.688 " fill="#000000"/>
<path d="M 204.037 785.784 Q 204.037 783.784, 205.045 782.664 Q 206.069 781.544, 207.941 781.544 Q 209.813 781.544, 210.821 782.664 Q 211.845 783.784, 211.845 785.784 Q 211.845 787.784, 210.821 788.92 Q 209.813 790.04, 207.941 790.04 Q 206.069 790.04, 205.045 788.92 Q 204.037 787.784, 204.037 785.784 M 205.573 785.784 Q 205.573 787.288, 206.181 788.072 Q 206.805 788.856, 207.941 788.856 Q 209.077 788.856, 209.685 788.072 Q 210.309 787.288, 210.309 785.784 Q 210.309 784.28, 209.685 783.512 Q 209.077 782.728, 207.941 782.728 Q 206.805 782.728, 206.181 783.512 Q 205.573 784.28, 205.573 785.784 " fill="#000000"/>
<path d="M 222.629 781.688 L 224.133 781.688 L 221.829 789.912 L 219.813 789.912 L 218.181 783.736 L 216.581 789.912 L 214.597 789.912 L 212.293 781.688 L 213.797 781.688 L 215.653 788.472 L 217.429 781.688 L 218.933 781.688 L 220.789 788.472 L 222.629 781.688 " fill="#000000"/>
<path d="M 225.493 778.584 L 232.229 778.584 L 232.229 779.88 L 227.013 779.88 L 227.013 783.32 L 231.653 783.32 L 231.653 784.632 L 227.013 784.632 L 227.013 789.912 L 225.493 789.912 L 225.493 778.584 " fill="#000000"/>
<path d="M 234.805 781.688 L 234.981 782.824 Q 235.845 781.544, 237.253 781.544 Q 237.701 781.544, 238.309 781.704 L 238.069 783.048 Q 237.381 782.888, 236.997 782.888 Q 236.325 782.888, 235.877 783.16 Q 235.445 783.416, 235.093 784.04 L 235.093 789.912 L 233.589 789.912 L 233.589 781.688 L 234.805 781.688 " fill="#000000"/>
<path d="M 239.013 787.688 Q 239.013 786.376, 240.069 785.656 Q 241.125 784.936, 243.061 784.936 L 244.277 784.936 L 244.277 784.616 Q 244.277 783.592, 243.845 783.16 Q 243.429 782.728, 242.405 782.728 Q 241.749 782.728, 241.237 782.856 Q 240.725 782.968, 239.925 783.32 L 239.477 782.28 Q 240.981 781.544, 242.437 781.544 Q 244.181 781.544, 244.981 782.296 Q 245.781 783.032, 245.781 784.648 L 245.781 789.912 L 244.613 789.912 Q 244.597 789.848, 244.549 789.608 Q 244.501 789.352, 244.405 788.952 Q 243.253 790.104, 241.717 790.104 Q 240.485 790.104, 239.749 789.448 Q 239.013 788.792, 239.013 787.688 M 240.517 787.656 Q 240.517 788.264, 240.901 788.6 Q 241.285 788.92, 242.005 788.92 Q 242.645 788.92, 243.253 788.632 Q 243.861 788.328, 244.277 787.816 L 244.277 786.056 L 243.157 786.056 Q 241.845 786.056, 241.173 786.456 Q 240.517 786.856, 240.517 787.656 " fill="#000000"/>
<path d="M 253.989 781.672 L 253.989 790.392 Q 253.989 793.928, 250.245 793.928 Q 248.437 793.928, 246.821 793.096 L 247.333 791.992 Q 248.197 792.424, 248.821 792.584 Q 249.445 792.744, 250.245 792.744 Q 251.445 792.744, 251.957 792.2 Q 252.485 791.672, 252.485 790.424 L 252.485 788.984 Q 251.621 790.04, 250.133 790.04 Q 248.421 790.04, 247.461 788.984 Q 246.517 787.912, 246.517 785.928 Q 246.517 783.864, 247.637 782.712 Q 248.773 781.544, 250.741 781.544 Q 251.781 781.544, 252.741 781.848 L 252.789 781.672 L 253.989 781.672 M 250.229 788.856 Q 251.061 788.856, 251.653 788.408 Q 252.261 787.944, 252.485 787.128 L 252.485 782.968 Q 251.669 782.728, 250.757 782.728 Q 249.493 782.728, 248.773 783.576 Q 248.053 784.408, 248.053 785.928 Q 248.053 787.336, 248.613 788.104 Q 249.189 788.856, 250.229 788.856 " fill="#000000"/>
<path d="M 264.805 781.544 Q 266.197 781.544, 266.901 782.296 Q 267.605 783.032, 267.605 784.472 L 267.605 789.912 L 266.101 789.912 L 266.101 784.584 Q 266.101 783.608, 265.717 783.176 Q 265.349 782.728, 264.517 782.728 Q 263.797 782.728, 263.173 783.08 Q 262.565 783.416, 262.197 784.024 Q 262.213 784.168, 262.213 784.472 L 262.213 789.912 L 260.709 789.912 L 260.709 784.584 Q 260.709 783.608, 260.325 783.176 Q 259.957 782.728, 259.125 782.728 Q 258.405 782.728, 257.797 783.08 Q 257.189 783.416, 256.805 784.008 L 256.805 789.912 L 255.301 789.912 L 255.301 781.688 L 256.533 781.688 L 256.693 782.808 Q 257.765 781.544, 259.413 781.544 Q 261.349 781.544, 261.957 782.984 Q 263.045 781.544, 264.805 781.544 " fill="#000000"/>
<path d="M 268.341 785.784 Q 268.341 783.768, 269.349 782.664 Q 270.357 781.544, 272.197 781.544 Q 274.005 781.544, 274.805 782.632 Q 275.621 783.704, 275.621 785.736 L 275.621 785.992 L 269.877 785.992 Q 269.909 787.384, 270.533 788.12 Q 271.157 788.856, 272.325 788.856 Q 272.965 788.856, 273.557 788.712 Q 274.149 788.552, 274.869 788.232 L 275.301 789.256 Q 274.485 789.672, 273.749 789.864 Q 273.013 790.04, 272.245 790.04 Q 270.389 790.04, 269.365 788.92 Q 268.341 787.8, 268.341 785.784 M 272.197 782.728 Q 271.253 782.728, 270.677 783.272 Q 270.117 783.816, 269.941 784.872 L 274.037 784.872 Q 273.925 783.768, 273.477 783.256 Q 273.029 782.728, 272.197 782.728 " fill="#000000"/>
<path d="M 281.221 781.544 Q 282.533 781.544, 283.221 782.296 Q 283.925 783.048, 283.925 784.472 L 283.925 789.912 L 282.421 789.912 L 282.421 784.584 Q 282.421 783.608, 282.037 783.176 Q 281.669 782.728, 280.837 782.728 Q 280.085 782.728, 279.461 783.08 Q 278.837 783.416, 278.437 784.024 L 278.437 789.912 L 276.933 789.912 L 276.933 781.688 L 278.165 781.688 L 278.341 782.84 Q 279.445 781.544, 281.221 781.544 " fill="#000000"/>
<path d="M 284.389 782.84 L 284.389 781.688 L 285.957 781.688 L 286.213 779.288 L 287.333 779.288 L 287.333 781.688 L 289.845 781.688 L 289.845 782.84 L 287.333 782.84 L 287.333 787.384 Q 287.333 788.808, 288.533 788.808 Q 289.013 788.808, 289.717 788.584 L 289.973 789.64 Q 289.093 790.008, 288.261 790.008 Q 287.189 790.008, 286.501 789.368 Q 285.829 788.728, 285.829 787.464 L 285.829 782.84 L 284.389 782.84 " fill="#000000"/>
<path d="M 298.133 790.712 L 298.133 792.024 L 289.973 792.024 L 289.973 790.712 L 298.133 790.712 " fill="#000000"/>
<path d="M 303.253 790.04 Q 301.173 790.04, 300.133 788.504 Q 299.109 786.968, 299.109 784.232 Q 299.109 781.496, 300.133 779.976 Q 301.157 778.456, 303.253 778.456 Q 305.349 778.456, 306.373 779.976 Q 307.397 781.496, 307.397 784.232 Q 307.397 786.968, 306.357 788.504 Q 305.333 790.04, 303.253 790.04 M 303.253 788.76 Q 304.485 788.76, 305.141 787.624 Q 305.797 786.472, 305.797 784.232 Q 305.797 782.008, 305.141 780.872 Q 304.485 779.736, 303.253 779.736 Q 302.037 779.736, 301.365 780.872 Q 300.709 782.008, 300.709 784.232 Q 300.709 786.472, 301.365 787.624 Q 302.037 788.76, 303.253 788.76 " fill="#000000"/>
<text x="290.89727422975056" y="200.00000000000006" font-size="12" font-family="Verdana" font-weight="bold" letter-spacing="0" text-anchor="start" fill="black" transform=" rotate(43.832425 290.897274 200.000000)">0.0621</text><text x="689.2011717813002" y="220.45103966700356" font-size="12" font-family="Verdana" font-weight="bold" letter-spacing="0" text-anchor="start" fill="black" transform=" rotate(50.093172 689.201172 220.451040)">0.0632</text><text x="1100.8597839288207" y="221.6288552407386" font-size="12" font-family="Verdana" font-weight="bold" letter-spacing="0" text-anchor="start" fill="black" transform=" rotate(39.897715 1100.859784 221.628855)">0.0556</text><text x="300.8597839288208" y="600.0" font-size="12" font-family="Verdana" font-weight="bold" letter-spacing="0" text-anchor="start" fill="black" transform=" rotate(39.897715 300.859784 600.000000)">0.0544</text></svg>
