<?xml version='1.0' encoding='ASCII' standalone='yes'?>
<svg xmlns="http://www.w3.org/2000/svg" xmlns:rdkit="http://www.rdkit.org/xml" xmlns:xlink="http://www.w3.org/1999/xlink" version="1.1" baseProfile="full" xml:space="preserve" width="500px" height="500px" viewBox="0 0 500 500">
<!-- END OF HEADER -->
<rect style="opacity:1.0;fill:#FFFFFF;stroke:none" width="500" height="500" x="0" y="0"> </rect>
<path d="M 150.787,294.861 L 236.495,322.709" style="fill:none;fill-rule:evenodd;stroke:#FF7F7F;stroke-width:19.2px;stroke-linecap:butt;stroke-linejoin:miter;stroke-opacity:1"/>
<path class="bond-0 atom-0 atom-1" d="M 278.453,234.644 L 247.168,191.584" style="fill:none;fill-rule:evenodd;stroke:#000000;stroke-width:2.0px;stroke-linecap:butt;stroke-linejoin:miter;stroke-opacity:1"/>
<path class="bond-1 atom-0 atom-5" d="M 325.207,249.802 L 347.635,249.802" style="fill:none;fill-rule:evenodd;stroke:#000000;stroke-width:2.0px;stroke-linecap:butt;stroke-linejoin:miter;stroke-opacity:1"/>
<path class="bond-1 atom-0 atom-5" d="M 328.571,231.778 L 344.271,231.778" style="fill:none;fill-rule:evenodd;stroke:#000000;stroke-width:2.0px;stroke-linecap:butt;stroke-linejoin:miter;stroke-opacity:1"/>
<path class="bond-2 atom-0 atom-3" d="M 278.217,265.284 L 246.951,308.318" style="fill:none;fill-rule:evenodd;stroke:#000000;stroke-width:2.0px;stroke-linecap:butt;stroke-linejoin:miter;stroke-opacity:1"/>
<path class="bond-3 atom-1 atom-4" d="M 204.08,187.427 L 160.822,201.482" style="fill:none;fill-rule:evenodd;stroke:#000000;stroke-width:2.0px;stroke-linecap:butt;stroke-linejoin:miter;stroke-opacity:1"/>
<path class="bond-3 atom-1 atom-4" d="M 203.16,206.677 L 172.88,216.515" style="fill:none;fill-rule:evenodd;stroke:#000000;stroke-width:2.0px;stroke-linecap:butt;stroke-linejoin:miter;stroke-opacity:1"/>
<path class="bond-4 atom-1 atom-8" d="M 241.42,161.736 L 259.548,105.946" style="fill:none;fill-rule:evenodd;stroke:#000000;stroke-width:2.0px;stroke-linecap:butt;stroke-linejoin:miter;stroke-opacity:1"/>
<path class="bond-5 atom-2 atom-3" d="M 161.62,298.381 L 182.601,305.198" style="fill:none;fill-rule:evenodd;stroke:#0000FF;stroke-width:2.0px;stroke-linecap:butt;stroke-linejoin:miter;stroke-opacity:1"/>
<path class="bond-5 atom-2 atom-3" d="M 182.601,305.198 L 203.583,312.015" style="fill:none;fill-rule:evenodd;stroke:#000000;stroke-width:2.0px;stroke-linecap:butt;stroke-linejoin:miter;stroke-opacity:1"/>
<path class="bond-6 atom-2 atom-4" d="M 150.787,279.703 L 150.787,249.756" style="fill:none;fill-rule:evenodd;stroke:#0000FF;stroke-width:2.0px;stroke-linecap:butt;stroke-linejoin:miter;stroke-opacity:1"/>
<path class="bond-6 atom-2 atom-4" d="M 150.787,249.756 L 150.787,219.81" style="fill:none;fill-rule:evenodd;stroke:#000000;stroke-width:2.0px;stroke-linecap:butt;stroke-linejoin:miter;stroke-opacity:1"/>
<path class="bond-7 atom-2 atom-6" d="M 129.924,310.019 L 108.942,325.264" style="fill:none;fill-rule:evenodd;stroke:#0000FF;stroke-width:2.0px;stroke-linecap:butt;stroke-linejoin:miter;stroke-opacity:1"/>
<path class="bond-7 atom-2 atom-6" d="M 108.942,325.264 L 87.9593,340.508" style="fill:none;fill-rule:evenodd;stroke:#000000;stroke-width:2.0px;stroke-linecap:butt;stroke-linejoin:miter;stroke-opacity:1"/>
<path class="bond-8 atom-3 atom-7" d="M 232.85,340.652 L 241.913,368.547" style="fill:none;fill-rule:evenodd;stroke:#000000;stroke-width:2.0px;stroke-linecap:butt;stroke-linejoin:miter;stroke-opacity:1"/>
<path class="bond-8 atom-3 atom-7" d="M 241.913,368.547 L 250.977,396.442" style="fill:none;fill-rule:evenodd;stroke:#FF0000;stroke-width:2.0px;stroke-linecap:butt;stroke-linejoin:miter;stroke-opacity:1"/>
<path class="bond-8 atom-3 atom-7" d="M 249.991,335.082 L 259.055,362.978" style="fill:none;fill-rule:evenodd;stroke:#000000;stroke-width:2.0px;stroke-linecap:butt;stroke-linejoin:miter;stroke-opacity:1"/>
<path class="bond-8 atom-3 atom-7" d="M 259.055,362.978 L 268.119,390.873" style="fill:none;fill-rule:evenodd;stroke:#FF0000;stroke-width:2.0px;stroke-linecap:butt;stroke-linejoin:miter;stroke-opacity:1"/>
<path class="bond-9 atom-4 atom-9" d="M 129.924,189.584 L 88.8244,159.724" style="fill:none;fill-rule:evenodd;stroke:#000000;stroke-width:2.0px;stroke-linecap:butt;stroke-linejoin:miter;stroke-opacity:1"/>
<path class="bond-10 atom-5 atom-10" d="M 388.502,265.248 L 416.274,313.351" style="fill:none;fill-rule:evenodd;stroke:#000000;stroke-width:2.0px;stroke-linecap:butt;stroke-linejoin:miter;stroke-opacity:1"/>
<path class="bond-11 atom-5 atom-11" d="M 388.336,234.644 L 416.145,186.477" style="fill:none;fill-rule:evenodd;stroke:#000000;stroke-width:2.0px;stroke-linecap:butt;stroke-linejoin:miter;stroke-opacity:1"/>
<path class="atom-0" d="M 279.625 249.91 Q 279.625 243.566, 282.581 240.249 Q 285.572 236.897, 291.232 236.897 Q 296.495 236.897, 299.307 240.61 L 296.927 242.556 Q 294.873 239.853, 291.232 239.853 Q 287.375 239.853, 285.32 242.448 Q 283.301 245.007, 283.301 249.91 Q 283.301 254.957, 285.392 257.552 Q 287.519 260.147, 291.628 260.147 Q 294.44 260.147, 297.72 258.453 L 298.73 261.157 Q 297.396 262.022, 295.377 262.526 Q 293.359 263.031, 291.124 263.031 Q 285.572 263.031, 282.581 259.643 Q 279.625 256.254, 279.625 249.91 " fill="#000000"/>
<path class="atom-0" d="M 302.01 258.489 L 305.615 258.489 L 305.615 262.094 L 302.01 262.094 L 302.01 258.489 M 302.01 246.089 L 305.615 246.089 L 305.615 249.694 L 302.01 249.694 L 302.01 246.089 " fill="#000000"/>
<path class="atom-0" d="M 308.967 259.823 L 314.555 259.823 L 314.555 240.754 L 308.39 242.664 L 307.561 240.538 L 315.384 237.041 L 317.943 237.474 L 317.943 259.823 L 322.954 259.823 L 322.954 262.707 L 308.967 262.707 L 308.967 259.823 " fill="#000000"/>
<path class="atom-1" d="M 206.333 177.002 Q 206.333 170.658, 209.288 167.342 Q 212.28 163.989, 217.94 163.989 Q 223.203 163.989, 226.014 167.702 L 223.635 169.649 Q 221.581 166.945, 217.94 166.945 Q 214.083 166.945, 212.028 169.541 Q 210.009 172.1, 210.009 177.002 Q 210.009 182.049, 212.1 184.644 Q 214.227 187.24, 218.336 187.24 Q 221.148 187.24, 224.428 185.546 L 225.438 188.249 Q 224.104 189.114, 222.085 189.619 Q 220.067 190.124, 217.832 190.124 Q 212.28 190.124, 209.288 186.735 Q 206.333 183.347, 206.333 177.002 " fill="#000000"/>
<path class="atom-1" d="M 228.718 185.582 L 232.323 185.582 L 232.323 189.186 L 228.718 189.186 L 228.718 185.582 M 228.718 173.181 L 232.323 173.181 L 232.323 176.786 L 228.718 176.786 L 228.718 173.181 " fill="#000000"/>
<path class="atom-1" d="M 234.197 169.108 Q 235.134 166.693, 237.369 165.359 Q 239.604 163.989, 242.704 163.989 Q 246.561 163.989, 248.724 166.08 Q 250.887 168.171, 250.887 171.884 Q 250.887 175.669, 248.075 179.201 Q 245.3 182.734, 239.532 186.915 L 251.32 186.915 L 251.32 189.799 L 234.125 189.799 L 234.125 187.384 Q 238.883 183.996, 241.695 181.472 Q 244.543 178.949, 245.913 176.678 Q 247.282 174.407, 247.282 172.064 Q 247.282 169.613, 246.057 168.243 Q 244.831 166.873, 242.704 166.873 Q 240.65 166.873, 239.28 167.702 Q 237.91 168.531, 236.937 170.37 L 234.197 169.108 " fill="#000000"/>
<path class="atom-2" d="M 119.066 282.244 L 127.429 295.762 Q 128.258 297.096, 129.591 299.511 Q 130.925 301.926, 130.997 302.071 L 130.997 282.244 L 134.386 282.244 L 134.386 307.766 L 130.889 307.766 L 121.913 292.987 Q 120.868 291.256, 119.75 289.274 Q 118.669 287.291, 118.345 286.678 L 118.345 307.766 L 115.028 307.766 L 115.028 282.244 L 119.066 282.244 " fill="#0000FF"/>
<path class="atom-2" d="M 137.089 303.548 L 140.694 303.548 L 140.694 307.153 L 137.089 307.153 L 137.089 303.548 M 137.089 291.148 L 140.694 291.148 L 140.694 294.753 L 137.089 294.753 L 137.089 291.148 " fill="#0000FF"/>
<path class="atom-2" d="M 154.464 294.32 Q 156.951 295.041, 158.141 296.663 Q 159.367 298.249, 159.367 300.773 Q 159.367 302.936, 158.285 304.63 Q 157.204 306.288, 155.221 307.225 Q 153.239 308.126, 150.643 308.126 Q 147.904 308.126, 145.849 307.189 Q 143.83 306.216, 142.208 304.269 L 144.263 302.179 Q 145.849 303.909, 147.183 304.594 Q 148.516 305.243, 150.643 305.243 Q 152.95 305.243, 154.356 304.017 Q 155.762 302.755, 155.762 300.737 Q 155.762 298.141, 154.284 296.988 Q 152.842 295.798, 149.706 295.798 L 147.867 295.798 L 147.867 293.203 L 149.49 293.203 Q 152.265 293.167, 153.743 291.977 Q 155.221 290.752, 155.221 288.481 Q 155.221 286.822, 153.996 285.849 Q 152.77 284.84, 150.679 284.84 Q 148.552 284.84, 147.219 285.597 Q 145.921 286.354, 144.912 288.264 L 142.424 286.931 Q 143.326 284.804, 145.488 283.398 Q 147.651 281.956, 150.679 281.956 Q 154.428 281.956, 156.627 283.722 Q 158.826 285.489, 158.826 288.481 Q 158.826 290.535, 157.708 292.013 Q 156.591 293.491, 154.464 294.32 " fill="#0000FF"/>
<path class="atom-3" d="M 205.551 322.817 Q 205.551 316.473, 208.507 313.157 Q 211.499 309.804, 217.159 309.804 Q 222.422 309.804, 225.233 313.517 L 222.854 315.464 Q 220.8 312.76, 217.159 312.76 Q 213.302 312.76, 211.247 315.356 Q 209.228 317.915, 209.228 322.817 Q 209.228 327.864, 211.319 330.459 Q 213.446 333.055, 217.555 333.055 Q 220.367 333.055, 223.647 331.361 L 224.657 334.064 Q 223.323 334.929, 221.304 335.434 Q 219.286 335.939, 217.051 335.939 Q 211.499 335.939, 208.507 332.55 Q 205.551 329.162, 205.551 322.817 " fill="#000000"/>
<path class="atom-3" d="M 227.937 331.397 L 231.542 331.397 L 231.542 335.001 L 227.937 335.001 L 227.937 331.397 M 227.937 318.996 L 231.542 318.996 L 231.542 322.601 L 227.937 322.601 L 227.937 318.996 " fill="#000000"/>
<path class="atom-3" d="M 249.205 326.855 L 252.269 326.855 L 252.269 329.738 L 249.205 329.738 L 249.205 335.614 L 245.816 335.614 L 245.816 329.738 L 232.623 329.738 L 232.623 327.467 L 243.798 310.093 L 249.205 310.093 L 249.205 326.855 M 236.805 326.855 L 245.816 326.855 L 245.816 312.4 L 236.805 326.855 " fill="#000000"/>
<path class="atom-4" d="M 114.506 204.851 Q 114.506 198.506, 117.461 195.19 Q 120.453 191.837, 126.113 191.837 Q 131.376 191.837, 134.187 195.55 L 131.808 197.497 Q 129.754 194.793, 126.113 194.793 Q 122.256 194.793, 120.201 197.389 Q 118.182 199.948, 118.182 204.851 Q 118.182 209.897, 120.273 212.493 Q 122.4 215.088, 126.509 215.088 Q 129.321 215.088, 132.601 213.394 L 133.611 216.097 Q 132.277 216.963, 130.258 217.467 Q 128.24 217.972, 126.005 217.972 Q 120.453 217.972, 117.461 214.583 Q 114.506 211.195, 114.506 204.851 " fill="#000000"/>
<path class="atom-4" d="M 136.891 213.43 L 140.496 213.43 L 140.496 217.035 L 136.891 217.035 L 136.891 213.43 M 136.891 201.03 L 140.496 201.03 L 140.496 204.634 L 136.891 204.634 L 136.891 201.03 " fill="#000000"/>
<path class="atom-4" d="M 151.418 201.678 Q 153.653 201.678, 155.492 202.652 Q 157.33 203.589, 158.375 205.391 Q 159.421 207.158, 159.421 209.573 Q 159.421 212.204, 158.123 214.115 Q 156.861 215.989, 154.771 216.963 Q 152.68 217.936, 150.301 217.936 Q 147.958 217.936, 145.795 217.071 Q 143.632 216.206, 142.154 214.547 L 144.317 212.312 Q 145.506 213.61, 147.129 214.331 Q 148.751 215.016, 150.409 215.016 Q 152.68 215.016, 154.23 213.61 Q 155.816 212.204, 155.816 209.645 Q 155.816 206.941, 154.23 205.68 Q 152.68 204.382, 150.193 204.382 Q 147.958 204.382, 145.47 205.355 L 143.488 204.418 L 144.713 192.126 L 157.835 192.126 L 157.474 195.01 L 147.669 195.01 L 146.912 202.58 Q 149.183 201.678, 151.418 201.678 " fill="#000000"/>
<path class="atom-5" d="M 348.995 249.91 Q 348.995 243.566, 351.951 240.249 Q 354.943 236.897, 360.602 236.897 Q 365.865 236.897, 368.677 240.61 L 366.298 242.556 Q 364.243 239.853, 360.602 239.853 Q 356.745 239.853, 354.69 242.448 Q 352.672 245.007, 352.672 249.91 Q 352.672 254.957, 354.763 257.552 Q 356.889 260.147, 360.999 260.147 Q 363.81 260.147, 367.091 258.453 L 368.1 261.157 Q 366.766 262.022, 364.748 262.526 Q 362.729 263.031, 360.494 263.031 Q 354.943 263.031, 351.951 259.643 Q 348.995 256.254, 348.995 249.91 " fill="#000000"/>
<path class="atom-5" d="M 371.38 258.489 L 374.985 258.489 L 374.985 262.094 L 371.38 262.094 L 371.38 258.489 M 371.38 246.089 L 374.985 246.089 L 374.985 249.694 L 371.38 249.694 L 371.38 246.089 " fill="#000000"/>
<path class="atom-5" d="M 387.421 246.774 Q 389.656 246.774, 391.423 247.747 Q 393.189 248.72, 394.162 250.487 Q 395.136 252.253, 395.136 254.488 Q 395.136 256.975, 394.018 258.922 Q 392.937 260.832, 390.99 261.914 Q 389.044 262.995, 386.556 262.995 Q 382.014 262.995, 379.707 259.931 Q 377.436 256.831, 377.436 250.703 Q 377.436 243.926, 380.248 240.429 Q 383.096 236.897, 388.539 236.897 Q 390.125 236.897, 391.459 237.257 Q 392.829 237.618, 394.126 238.375 L 392.72 240.79 Q 390.846 239.781, 388.575 239.781 Q 384.97 239.781, 383.132 242.124 Q 381.293 244.431, 381.077 249.225 Q 382.375 248.035, 383.997 247.423 Q 385.655 246.774, 387.421 246.774 M 386.592 260.039 Q 387.962 260.039, 389.08 259.318 Q 390.233 258.597, 390.882 257.336 Q 391.531 256.074, 391.531 254.524 Q 391.531 252.253, 390.269 250.955 Q 389.008 249.658, 386.773 249.658 Q 385.223 249.658, 383.673 250.306 Q 382.159 250.919, 381.077 252.001 Q 381.221 256.218, 382.555 258.129 Q 383.889 260.039, 386.592 260.039 " fill="#000000"/>
<path class="atom-6" d="M 42.4813 335.071 L 45.9418 335.071 L 45.9418 345.921 L 58.991 345.921 L 58.991 335.071 L 62.4515 335.071 L 62.4515 360.592 L 58.991 360.592 L 58.991 348.805 L 45.9418 348.805 L 45.9418 360.592 L 42.4813 360.592 L 42.4813 335.071 " fill="#000000"/>
<path class="atom-6" d="M 65.1551 356.375 L 68.7598 356.375 L 68.7598 359.979 L 65.1551 359.979 L 65.1551 356.375 M 65.1551 343.974 L 68.7598 343.974 L 68.7598 347.579 L 65.1551 347.579 L 65.1551 343.974 " fill="#000000"/>
<path class="atom-6" d="M 82.7823 337.954 L 69.4087 337.954 L 69.4087 335.071 L 86.351 335.071 L 86.351 337.63 L 76.0414 360.592 L 72.5809 360.592 L 82.7823 337.954 " fill="#000000"/>
<path class="atom-7" d="M 252.628 408.489 Q 252.628 402.361, 255.656 398.937 Q 258.684 395.512, 264.343 395.512 Q 270.003 395.512, 273.031 398.937 Q 276.059 402.361, 276.059 408.489 Q 276.059 414.689, 272.995 418.222 Q 269.931 421.719, 264.343 421.719 Q 258.72 421.719, 255.656 418.222 Q 252.628 414.725, 252.628 408.489 M 264.343 418.835 Q 268.236 418.835, 270.327 416.239 Q 272.454 413.608, 272.454 408.489 Q 272.454 403.479, 270.327 400.955 Q 268.236 398.396, 264.343 398.396 Q 260.45 398.396, 258.323 400.919 Q 256.233 403.443, 256.233 408.489 Q 256.233 413.644, 258.323 416.239 Q 260.45 418.835, 264.343 418.835 " fill="#FF0000"/>
<path class="atom-7" d="M 278.762 417.105 L 282.367 417.105 L 282.367 420.709 L 278.762 420.709 L 278.762 417.105 M 278.762 404.704 L 282.367 404.704 L 282.367 408.309 L 278.762 408.309 L 278.762 404.704 " fill="#FF0000"/>
<path class="atom-7" d="M 297.615 407.804 Q 299.958 408.814, 301.292 410.328 Q 302.626 411.806, 302.626 414.329 Q 302.626 416.492, 301.508 418.186 Q 300.391 419.844, 298.372 420.781 Q 296.39 421.683, 293.758 421.683 Q 289.504 421.683, 287.053 419.736 Q 284.602 417.753, 284.602 414.329 Q 284.602 412.238, 285.683 410.688 Q 286.765 409.102, 289 407.912 Q 287.342 406.975, 286.44 405.605 Q 285.539 404.2, 285.539 402.037 Q 285.539 399.045, 287.702 397.278 Q 289.901 395.512, 293.614 395.512 Q 297.327 395.512, 299.49 397.278 Q 301.689 399.045, 301.689 402.037 Q 301.689 403.911, 300.643 405.317 Q 299.634 406.687, 297.615 407.804 M 293.614 398.216 Q 291.487 398.216, 290.298 399.225 Q 289.144 400.234, 289.144 402.037 Q 289.144 403.37, 289.937 404.272 Q 290.73 405.137, 291.848 405.641 Q 293.001 406.146, 295.2 406.903 Q 296.75 405.822, 297.399 404.668 Q 298.084 403.515, 298.084 402.037 Q 298.084 400.234, 296.894 399.225 Q 295.741 398.216, 293.614 398.216 M 293.758 418.979 Q 296.137 418.979, 297.579 417.717 Q 299.021 416.42, 299.021 414.293 Q 299.021 412.923, 298.264 412.058 Q 297.507 411.193, 296.354 410.688 Q 295.236 410.183, 293.217 409.535 L 291.595 408.994 Q 289.793 410.075, 289 411.373 Q 288.207 412.635, 288.207 414.293 Q 288.207 416.42, 289.721 417.717 Q 291.235 418.979, 293.758 418.979 " fill="#FF0000"/>
<path class="atom-8" d="M 254.358 78.5698 L 257.819 78.5698 L 257.819 89.4201 L 270.868 89.4201 L 270.868 78.5698 L 274.329 78.5698 L 274.329 104.091 L 270.868 104.091 L 270.868 92.3039 L 257.819 92.3039 L 257.819 104.091 L 254.358 104.091 L 254.358 78.5698 " fill="#000000"/>
<path class="atom-8" d="M 277.032 99.8738 L 280.637 99.8738 L 280.637 103.479 L 277.032 103.479 L 277.032 99.8738 M 277.032 87.4735 L 280.637 87.4735 L 280.637 91.0782 L 277.032 91.0782 L 277.032 87.4735 " fill="#000000"/>
<path class="atom-8" d="M 291.199 78.2814 Q 295.741 78.2814, 298.012 81.3815 Q 300.319 84.4455, 300.319 90.5736 Q 300.319 97.3505, 297.471 100.883 Q 294.659 104.38, 289.216 104.38 Q 287.63 104.38, 286.26 104.019 Q 284.926 103.659, 283.629 102.902 L 285.035 100.487 Q 286.909 101.496, 289.18 101.496 Q 292.785 101.496, 294.623 99.1889 Q 296.462 96.8458, 296.678 92.0515 Q 295.38 93.2411, 293.722 93.8899 Q 292.1 94.5028, 290.334 94.5028 Q 288.099 94.5028, 286.332 93.5295 Q 284.566 92.5562, 283.593 90.7899 Q 282.619 89.0235, 282.619 86.7886 Q 282.619 84.3013, 283.701 82.3908 Q 284.818 80.4443, 286.765 79.3628 Q 288.711 78.2814, 291.199 78.2814 M 286.224 86.7526 Q 286.224 89.0235, 287.486 90.3213 Q 288.747 91.619, 290.982 91.619 Q 292.532 91.619, 294.046 91.0062 Q 295.597 90.3573, 296.678 89.2759 Q 296.534 85.0583, 295.2 83.1478 Q 293.866 81.2373, 291.163 81.2373 Q 289.793 81.2373, 288.639 81.9582 Q 287.522 82.6792, 286.873 83.9409 Q 286.224 85.2025, 286.224 86.7526 " fill="#000000"/>
<path class="atom-9" d="M 22.7273 139.155 L 26.1878 139.155 L 26.1878 150.006 L 39.237 150.006 L 39.237 139.155 L 42.6976 139.155 L 42.6976 164.677 L 39.237 164.677 L 39.237 152.89 L 26.1878 152.89 L 26.1878 164.677 L 22.7273 164.677 L 22.7273 139.155 " fill="#000000"/>
<path class="atom-9" d="M 45.4011 160.459 L 49.0059 160.459 L 49.0059 164.064 L 45.4011 164.064 L 45.4011 160.459 M 45.4011 148.059 L 49.0059 148.059 L 49.0059 151.664 L 45.4011 151.664 L 45.4011 148.059 " fill="#000000"/>
<path class="atom-9" d="M 52.3583 161.793 L 57.9456 161.793 L 57.9456 142.724 L 51.7815 144.635 L 50.9524 142.508 L 58.7747 139.011 L 61.3341 139.444 L 61.3341 161.793 L 66.3447 161.793 L 66.3447 164.677 L 52.3583 164.677 L 52.3583 161.793 " fill="#000000"/>
<path class="atom-9" d="M 77.8799 164.965 Q 73.1937 164.965, 70.8506 161.505 Q 68.5436 158.044, 68.5436 151.88 Q 68.5436 145.716, 70.8506 142.292 Q 73.1576 138.867, 77.8799 138.867 Q 82.6021 138.867, 84.9091 142.292 Q 87.2161 145.716, 87.2161 151.88 Q 87.2161 158.044, 84.8731 161.505 Q 82.566 164.965, 77.8799 164.965 M 77.8799 162.082 Q 80.6555 162.082, 82.1334 159.522 Q 83.6114 156.927, 83.6114 151.88 Q 83.6114 146.87, 82.1334 144.31 Q 80.6555 141.751, 77.8799 141.751 Q 75.1402 141.751, 73.6263 144.31 Q 72.1483 146.87, 72.1483 151.88 Q 72.1483 156.927, 73.6263 159.522 Q 75.1402 162.082, 77.8799 162.082 " fill="#000000"/>
<path class="atom-10" d="M 414.658 315.158 L 418.119 315.158 L 418.119 326.008 L 431.168 326.008 L 431.168 315.158 L 434.629 315.158 L 434.629 340.68 L 431.168 340.68 L 431.168 328.892 L 418.119 328.892 L 418.119 340.68 L 414.658 340.68 L 414.658 315.158 " fill="#000000"/>
<path class="atom-10" d="M 437.332 336.462 L 440.937 336.462 L 440.937 340.067 L 437.332 340.067 L 437.332 336.462 M 437.332 324.062 L 440.937 324.062 L 440.937 327.666 L 437.332 327.666 L 437.332 324.062 " fill="#000000"/>
<path class="atom-10" d="M 444.289 337.796 L 449.877 337.796 L 449.877 318.727 L 443.713 320.637 L 442.883 318.51 L 450.706 315.014 L 453.265 315.446 L 453.265 337.796 L 458.276 337.796 L 458.276 340.68 L 444.289 340.68 L 444.289 337.796 " fill="#000000"/>
<path class="atom-10" d="M 461.628 337.796 L 467.215 337.796 L 467.215 318.727 L 461.051 320.637 L 460.222 318.51 L 468.045 315.014 L 470.604 315.446 L 470.604 337.796 L 475.615 337.796 L 475.615 340.68 L 461.628 340.68 L 461.628 337.796 " fill="#000000"/>
<path class="atom-11" d="M 414.658 159.14 L 418.119 159.14 L 418.119 169.99 L 431.168 169.99 L 431.168 159.14 L 434.629 159.14 L 434.629 184.662 L 431.168 184.662 L 431.168 172.874 L 418.119 172.874 L 418.119 184.662 L 414.658 184.662 L 414.658 159.14 " fill="#000000"/>
<path class="atom-11" d="M 437.332 180.444 L 440.937 180.444 L 440.937 184.049 L 437.332 184.049 L 437.332 180.444 M 437.332 168.044 L 440.937 168.044 L 440.937 171.649 L 437.332 171.649 L 437.332 168.044 " fill="#000000"/>
<path class="atom-11" d="M 444.289 181.778 L 449.877 181.778 L 449.877 162.709 L 443.713 164.619 L 442.883 162.493 L 450.706 158.996 L 453.265 159.429 L 453.265 181.778 L 458.276 181.778 L 458.276 184.662 L 444.289 184.662 L 444.289 181.778 " fill="#000000"/>
<path class="atom-11" d="M 460.15 163.971 Q 461.087 161.555, 463.322 160.222 Q 465.557 158.852, 468.657 158.852 Q 472.514 158.852, 474.677 160.943 Q 476.84 163.033, 476.84 166.746 Q 476.84 170.531, 474.028 174.064 Q 471.253 177.596, 465.485 181.778 L 477.273 181.778 L 477.273 184.662 L 460.078 184.662 L 460.078 182.247 Q 464.836 178.858, 467.648 176.335 Q 470.496 173.811, 471.866 171.54 Q 473.235 169.269, 473.235 166.926 Q 473.235 164.475, 472.01 163.105 Q 470.784 161.736, 468.657 161.736 Q 466.603 161.736, 465.233 162.565 Q 463.863 163.394, 462.89 165.232 L 460.15 163.971 " fill="#000000"/>
<text x="193.64126227116898" y="308.7851239085425" font-size="12" font-family="Verdana" font-weight="bold" letter-spacing="0" text-anchor="start" fill="black" transform=" rotate(-72.000000 193.641262 308.785124)">1.0907</text><text x="25" y="490" font-size="12" font-family="Verdana" font-weight="bold" letter-spacing="0" text-anchor="start" fill="black">[#6:1]1(-[#6:2](=[#6:5](-[#7:3](-[#6:4]-1=[#8:8])-[H:7])-[H:10])-[H:9])=[#6:6](-[H:11])-[H:12]</text></svg>
