<?xml version='1.0' encoding='ASCII' standalone='yes'?>
<svg xmlns="http://www.w3.org/2000/svg" xmlns:rdkit="http://www.rdkit.org/xml" xmlns:xlink="http://www.w3.org/1999/xlink" version="1.1" baseProfile="full" xml:space="preserve" width="500px" height="500px" viewBox="0 0 500 500">
<!-- END OF HEADER -->
<rect style="opacity:1.0;fill:#FFFFFF;stroke:none" width="500" height="500" x="0" y="0"> </rect>
<path d="M 312.235,286.563 L 260.201,300.365" style="fill:none;fill-rule:evenodd;stroke:#FF7F7F;stroke-width:11.5px;stroke-linecap:butt;stroke-linejoin:miter;stroke-opacity:1"/>
<path class="bond-0 atom-0 atom-12" d="M 305.19,226.007 L 299.024,223.498" style="fill:none;fill-rule:evenodd;stroke:#000000;stroke-width:2.0px;stroke-linecap:butt;stroke-linejoin:miter;stroke-opacity:1"/>
<path class="bond-1 atom-0 atom-13" d="M 332.243,236.208 L 371.107,246.727" style="fill:none;fill-rule:evenodd;stroke:#000000;stroke-width:2.0px;stroke-linecap:butt;stroke-linejoin:miter;stroke-opacity:1"/>
<path class="bond-2 atom-1 atom-0" d="M 314.686,277.508 L 323.913,243.419" style="fill:none;fill-rule:evenodd;stroke:#000000;stroke-width:2.0px;stroke-linecap:butt;stroke-linejoin:miter;stroke-opacity:1"/>
<path class="bond-20 atom-11 atom-0" d="M 337.914,191.69 L 333.289,208.777" style="fill:none;fill-rule:evenodd;stroke:#0000FF;stroke-width:2.0px;stroke-linecap:butt;stroke-linejoin:miter;stroke-opacity:1"/>
<path class="bond-20 atom-11 atom-0" d="M 333.289,208.777 L 328.664,225.865" style="fill:none;fill-rule:evenodd;stroke:#000000;stroke-width:2.0px;stroke-linecap:butt;stroke-linejoin:miter;stroke-opacity:1"/>
<path class="bond-3 atom-1 atom-10" d="M 317.428,299.415 L 327.896,309.936" style="fill:none;fill-rule:evenodd;stroke:#000000;stroke-width:2.0px;stroke-linecap:butt;stroke-linejoin:miter;stroke-opacity:1"/>
<path class="bond-3 atom-1 atom-10" d="M 327.896,309.936 L 338.364,320.457" style="fill:none;fill-rule:evenodd;stroke:#FF0000;stroke-width:2.0px;stroke-linecap:butt;stroke-linejoin:miter;stroke-opacity:1"/>
<path class="bond-3 atom-1 atom-10" d="M 325.061,291.821 L 335.528,302.342" style="fill:none;fill-rule:evenodd;stroke:#000000;stroke-width:2.0px;stroke-linecap:butt;stroke-linejoin:miter;stroke-opacity:1"/>
<path class="bond-3 atom-1 atom-10" d="M 335.528,302.342 L 345.996,312.863" style="fill:none;fill-rule:evenodd;stroke:#FF0000;stroke-width:2.0px;stroke-linecap:butt;stroke-linejoin:miter;stroke-opacity:1"/>
<path class="bond-5 atom-2 atom-1" d="M 270.377,297.665 L 281.756,294.647" style="fill:none;fill-rule:evenodd;stroke:#0000FF;stroke-width:2.0px;stroke-linecap:butt;stroke-linejoin:miter;stroke-opacity:1"/>
<path class="bond-5 atom-2 atom-1" d="M 281.756,294.647 L 293.134,291.629" style="fill:none;fill-rule:evenodd;stroke:#000000;stroke-width:2.0px;stroke-linecap:butt;stroke-linejoin:miter;stroke-opacity:1"/>
<path class="bond-4 atom-2 atom-3" d="M 251.363,291.482 L 241.146,281.213" style="fill:none;fill-rule:evenodd;stroke:#0000FF;stroke-width:2.0px;stroke-linecap:butt;stroke-linejoin:miter;stroke-opacity:1"/>
<path class="bond-4 atom-2 atom-3" d="M 241.146,281.213 L 230.928,270.944" style="fill:none;fill-rule:evenodd;stroke:#000000;stroke-width:2.0px;stroke-linecap:butt;stroke-linejoin:miter;stroke-opacity:1"/>
<path class="bond-6 atom-2 atom-4" d="M 257.692,309.635 L 253.083,326.66" style="fill:none;fill-rule:evenodd;stroke:#0000FF;stroke-width:2.0px;stroke-linecap:butt;stroke-linejoin:miter;stroke-opacity:1"/>
<path class="bond-6 atom-2 atom-4" d="M 253.083,326.66 L 248.475,343.686" style="fill:none;fill-rule:evenodd;stroke:#000000;stroke-width:2.0px;stroke-linecap:butt;stroke-linejoin:miter;stroke-opacity:1"/>
<path class="bond-10 atom-5 atom-3" d="M 233.793,219.487 L 224.57,253.559" style="fill:none;fill-rule:evenodd;stroke:#000000;stroke-width:2.0px;stroke-linecap:butt;stroke-linejoin:miter;stroke-opacity:1"/>
<path class="bond-10 atom-5 atom-3" d="M 222.016,221.785 L 215.561,245.635" style="fill:none;fill-rule:evenodd;stroke:#000000;stroke-width:2.0px;stroke-linecap:butt;stroke-linejoin:miter;stroke-opacity:1"/>
<path class="bond-18 atom-9 atom-3" d="M 186.188,271.762 L 202.814,267.352" style="fill:none;fill-rule:evenodd;stroke:#000000;stroke-width:2.0px;stroke-linecap:butt;stroke-linejoin:miter;stroke-opacity:1"/>
<path class="bond-7 atom-4 atom-14" d="M 226.783,347.09 L 200.174,339.888" style="fill:none;fill-rule:evenodd;stroke:#000000;stroke-width:2.0px;stroke-linecap:butt;stroke-linejoin:miter;stroke-opacity:1"/>
<path class="bond-8 atom-4 atom-15" d="M 256.305,355.081 L 291.052,364.486" style="fill:none;fill-rule:evenodd;stroke:#000000;stroke-width:2.0px;stroke-linecap:butt;stroke-linejoin:miter;stroke-opacity:1"/>
<path class="bond-9 atom-4 atom-16" d="M 243.638,361.556 L 234.422,395.606" style="fill:none;fill-rule:evenodd;stroke:#000000;stroke-width:2.0px;stroke-linecap:butt;stroke-linejoin:miter;stroke-opacity:1"/>
<path class="bond-11 atom-5 atom-17" d="M 257.716,201.646 L 262.807,199.604" style="fill:none;fill-rule:evenodd;stroke:#000000;stroke-width:2.0px;stroke-linecap:butt;stroke-linejoin:miter;stroke-opacity:1"/>
<path class="bond-14 atom-7 atom-5" d="M 207.549,181.346 L 229.398,203.305" style="fill:none;fill-rule:evenodd;stroke:#000000;stroke-width:2.0px;stroke-linecap:butt;stroke-linejoin:miter;stroke-opacity:1"/>
<path class="bond-12 atom-6 atom-7" d="M 155.946,183.316 L 178.919,177.223" style="fill:none;fill-rule:evenodd;stroke:#000000;stroke-width:2.0px;stroke-linecap:butt;stroke-linejoin:miter;stroke-opacity:1"/>
<path class="bond-12 atom-6 atom-7" d="M 162.152,192.809 L 178.234,188.544" style="fill:none;fill-rule:evenodd;stroke:#000000;stroke-width:2.0px;stroke-linecap:butt;stroke-linejoin:miter;stroke-opacity:1"/>
<path class="bond-13 atom-6 atom-8" d="M 143.841,194.932 L 134.614,229.021" style="fill:none;fill-rule:evenodd;stroke:#000000;stroke-width:2.0px;stroke-linecap:butt;stroke-linejoin:miter;stroke-opacity:1"/>
<path class="bond-23 atom-21 atom-6" d="M 117.331,156.769 L 127.466,166.955" style="fill:none;fill-rule:evenodd;stroke:#0000FF;stroke-width:2.0px;stroke-linecap:butt;stroke-linejoin:miter;stroke-opacity:1"/>
<path class="bond-23 atom-21 atom-6" d="M 127.466,166.955 L 137.6,177.141" style="fill:none;fill-rule:evenodd;stroke:#000000;stroke-width:2.0px;stroke-linecap:butt;stroke-linejoin:miter;stroke-opacity:1"/>
<path class="bond-15 atom-7 atom-18" d="M 200.777,163.021 L 210.004,128.932" style="fill:none;fill-rule:evenodd;stroke:#000000;stroke-width:2.0px;stroke-linecap:butt;stroke-linejoin:miter;stroke-opacity:1"/>
<path class="bond-16 atom-8 atom-9" d="M 141.407,247.068 L 162.159,267.925" style="fill:none;fill-rule:evenodd;stroke:#000000;stroke-width:2.0px;stroke-linecap:butt;stroke-linejoin:miter;stroke-opacity:1"/>
<path class="bond-16 atom-8 atom-9" d="M 152.152,242.603 L 166.678,257.203" style="fill:none;fill-rule:evenodd;stroke:#000000;stroke-width:2.0px;stroke-linecap:butt;stroke-linejoin:miter;stroke-opacity:1"/>
<path class="bond-17 atom-8 atom-19" d="M 112.701,243.02 L 86.6101,249.94" style="fill:none;fill-rule:evenodd;stroke:#000000;stroke-width:2.0px;stroke-linecap:butt;stroke-linejoin:miter;stroke-opacity:1"/>
<path class="bond-19 atom-9 atom-20" d="M 167.746,285.058 L 158.472,319.319" style="fill:none;fill-rule:evenodd;stroke:#000000;stroke-width:2.0px;stroke-linecap:butt;stroke-linejoin:miter;stroke-opacity:1"/>
<path class="bond-21 atom-11 atom-22" d="M 355.78,178.546 L 361.68,176.982" style="fill:none;fill-rule:evenodd;stroke:#0000FF;stroke-width:2.0px;stroke-linecap:butt;stroke-linejoin:miter;stroke-opacity:1"/>
<path class="bond-21 atom-11 atom-22" d="M 361.68,176.982 L 367.58,175.417" style="fill:none;fill-rule:evenodd;stroke:#000000;stroke-width:2.0px;stroke-linecap:butt;stroke-linejoin:miter;stroke-opacity:1"/>
<path class="bond-22 atom-11 atom-26" d="M 332.546,174.776 L 320.535,162.704" style="fill:none;fill-rule:evenodd;stroke:#0000FF;stroke-width:2.0px;stroke-linecap:butt;stroke-linejoin:miter;stroke-opacity:1"/>
<path class="bond-22 atom-11 atom-26" d="M 320.535,162.704 L 308.524,150.633" style="fill:none;fill-rule:evenodd;stroke:#000000;stroke-width:2.0px;stroke-linecap:butt;stroke-linejoin:miter;stroke-opacity:1"/>
<path class="bond-24 atom-21 atom-23" d="M 83.3995,154.325 L 73.1279,157.049" style="fill:none;fill-rule:evenodd;stroke:#0000FF;stroke-width:2.0px;stroke-linecap:butt;stroke-linejoin:miter;stroke-opacity:1"/>
<path class="bond-24 atom-21 atom-23" d="M 73.1279,157.049 L 62.8564,159.774" style="fill:none;fill-rule:evenodd;stroke:#000000;stroke-width:2.0px;stroke-linecap:butt;stroke-linejoin:miter;stroke-opacity:1"/>
<path class="bond-25 atom-21 atom-27" d="M 110.773,138.66 L 115.386,121.615" style="fill:none;fill-rule:evenodd;stroke:#0000FF;stroke-width:2.0px;stroke-linecap:butt;stroke-linejoin:miter;stroke-opacity:1"/>
<path class="bond-25 atom-21 atom-27" d="M 115.386,121.615 L 119.999,104.571" style="fill:none;fill-rule:evenodd;stroke:#000000;stroke-width:2.0px;stroke-linecap:butt;stroke-linejoin:miter;stroke-opacity:1"/>
<path class="bond-26 atom-22 atom-24" d="M 389.998,159.779 L 380.938,125.62" style="fill:none;fill-rule:evenodd;stroke:#000000;stroke-width:2.0px;stroke-linecap:butt;stroke-linejoin:miter;stroke-opacity:1"/>
<path class="bond-27 atom-22 atom-25" d="M 394.801,177.889 L 403.907,212.22" style="fill:none;fill-rule:evenodd;stroke:#000000;stroke-width:2.0px;stroke-linecap:butt;stroke-linejoin:miter;stroke-opacity:1"/>
<path class="bond-28 atom-22 atom-28" d="M 407.901,164.722 L 437.524,156.865" style="fill:none;fill-rule:evenodd;stroke:#000000;stroke-width:2.0px;stroke-linecap:butt;stroke-linejoin:miter;stroke-opacity:1"/>
<path class="atom-0" d="M 305.014 234.664 Q 305.014 230.874, 306.78 228.893 Q 308.567 226.89, 311.948 226.89 Q 315.092 226.89, 316.772 229.108 L 315.35 230.271 Q 314.123 228.656, 311.948 228.656 Q 309.644 228.656, 308.416 230.206 Q 307.211 231.735, 307.211 234.664 Q 307.211 237.678, 308.46 239.229 Q 309.73 240.779, 312.185 240.779 Q 313.864 240.779, 315.824 239.767 L 316.427 241.382 Q 315.63 241.899, 314.424 242.2 Q 313.218 242.502, 311.883 242.502 Q 308.567 242.502, 306.78 240.478 Q 305.014 238.454, 305.014 234.664 " fill="#000000"/>
<path class="atom-0" d="M 318.387 239.789 L 320.54 239.789 L 320.54 241.942 L 318.387 241.942 L 318.387 239.789 M 318.387 232.381 L 320.54 232.381 L 320.54 234.535 L 318.387 234.535 L 318.387 232.381 " fill="#000000"/>
<path class="atom-0" d="M 322.542 240.585 L 325.88 240.585 L 325.88 229.194 L 322.198 230.336 L 321.703 229.065 L 326.375 226.976 L 327.904 227.235 L 327.904 240.585 L 330.897 240.585 L 330.897 242.308 L 322.542 242.308 L 322.542 240.585 " fill="#000000"/>
<path class="atom-1" d="M 294.217 286.628 Q 294.217 282.838, 295.983 280.857 Q 297.77 278.854, 301.151 278.854 Q 304.295 278.854, 305.974 281.072 L 304.553 282.235 Q 303.326 280.62, 301.151 280.62 Q 298.847 280.62, 297.619 282.17 Q 296.413 283.699, 296.413 286.628 Q 296.413 289.642, 297.662 291.193 Q 298.933 292.743, 301.388 292.743 Q 303.067 292.743, 305.027 291.731 L 305.63 293.346 Q 304.833 293.863, 303.627 294.164 Q 302.421 294.466, 301.086 294.466 Q 297.77 294.466, 295.983 292.442 Q 294.217 290.418, 294.217 286.628 " fill="#000000"/>
<path class="atom-1" d="M 307.589 291.753 L 309.743 291.753 L 309.743 293.906 L 307.589 293.906 L 307.589 291.753 M 307.589 284.345 L 309.743 284.345 L 309.743 286.499 L 307.589 286.499 L 307.589 284.345 " fill="#000000"/>
<path class="atom-1" d="M 310.862 281.912 Q 311.422 280.469, 312.757 279.672 Q 314.092 278.854, 315.944 278.854 Q 318.248 278.854, 319.54 280.103 Q 320.832 281.352, 320.832 283.57 Q 320.832 285.831, 319.153 287.941 Q 317.495 290.052, 314.049 292.549 L 321.091 292.549 L 321.091 294.272 L 310.819 294.272 L 310.819 292.829 Q 313.662 290.805, 315.341 289.298 Q 317.043 287.791, 317.861 286.434 Q 318.679 285.077, 318.679 283.678 Q 318.679 282.213, 317.947 281.395 Q 317.215 280.577, 315.944 280.577 Q 314.717 280.577, 313.899 281.072 Q 313.08 281.567, 312.499 282.666 L 310.862 281.912 " fill="#000000"/>
<path class="atom-2" d="M 244.957 292.828 L 249.952 300.903 Q 250.448 301.7, 251.244 303.142 Q 252.041 304.585, 252.084 304.671 L 252.084 292.828 L 254.108 292.828 L 254.108 308.074 L 252.02 308.074 L 246.658 299.245 Q 246.033 298.211, 245.366 297.027 Q 244.72 295.843, 244.526 295.477 L 244.526 308.074 L 242.545 308.074 L 242.545 292.828 L 244.957 292.828 " fill="#0000FF"/>
<path class="atom-2" d="M 255.723 305.554 L 257.877 305.554 L 257.877 307.708 L 255.723 307.708 L 255.723 305.554 M 255.723 298.147 L 257.877 298.147 L 257.877 300.3 L 255.723 300.3 L 255.723 298.147 " fill="#0000FF"/>
<path class="atom-2" d="M 266.103 300.042 Q 267.588 300.472, 268.299 301.441 Q 269.031 302.389, 269.031 303.896 Q 269.031 305.188, 268.385 306.2 Q 267.739 307.191, 266.555 307.751 Q 265.37 308.289, 263.82 308.289 Q 262.184 308.289, 260.956 307.729 Q 259.75 307.148, 258.781 305.985 L 260.009 304.736 Q 260.956 305.77, 261.753 306.179 Q 262.55 306.566, 263.82 306.566 Q 265.198 306.566, 266.038 305.834 Q 266.878 305.08, 266.878 303.875 Q 266.878 302.324, 265.995 301.635 Q 265.134 300.924, 263.26 300.924 L 262.162 300.924 L 262.162 299.374 L 263.131 299.374 Q 264.789 299.353, 265.672 298.642 Q 266.555 297.91, 266.555 296.553 Q 266.555 295.563, 265.823 294.981 Q 265.091 294.378, 263.842 294.378 Q 262.571 294.378, 261.774 294.83 Q 260.999 295.283, 260.396 296.424 L 258.91 295.627 Q 259.449 294.357, 260.741 293.517 Q 262.033 292.656, 263.842 292.656 Q 266.081 292.656, 267.395 293.711 Q 268.708 294.766, 268.708 296.553 Q 268.708 297.781, 268.041 298.663 Q 267.373 299.546, 266.103 300.042 " fill="#0000FF"/>
<path class="atom-3" d="M 203.746 262.267 Q 203.746 258.477, 205.512 256.496 Q 207.299 254.493, 210.68 254.493 Q 213.824 254.493, 215.504 256.711 L 214.082 257.874 Q 212.855 256.259, 210.68 256.259 Q 208.376 256.259, 207.148 257.809 Q 205.943 259.338, 205.943 262.267 Q 205.943 265.281, 207.192 266.832 Q 208.462 268.382, 210.917 268.382 Q 212.596 268.382, 214.556 267.37 L 215.159 268.985 Q 214.362 269.502, 213.156 269.803 Q 211.95 270.105, 210.615 270.105 Q 207.299 270.105, 205.512 268.081 Q 203.746 266.057, 203.746 262.267 " fill="#000000"/>
<path class="atom-3" d="M 217.119 267.392 L 219.272 267.392 L 219.272 269.545 L 217.119 269.545 L 217.119 267.392 M 217.119 259.984 L 219.272 259.984 L 219.272 262.137 L 217.119 262.137 L 217.119 259.984 " fill="#000000"/>
<path class="atom-3" d="M 229.823 264.678 L 231.654 264.678 L 231.654 266.401 L 229.823 266.401 L 229.823 269.911 L 227.799 269.911 L 227.799 266.401 L 219.918 266.401 L 219.918 265.044 L 226.593 254.665 L 229.823 254.665 L 229.823 264.678 M 222.416 264.678 L 227.799 264.678 L 227.799 256.043 L 222.416 264.678 " fill="#000000"/>
<path class="atom-4" d="M 228.128 352.393 Q 228.128 348.603, 229.894 346.622 Q 231.681 344.62, 235.062 344.62 Q 238.206 344.62, 239.886 346.838 L 238.464 348 Q 237.237 346.385, 235.062 346.385 Q 232.758 346.385, 231.531 347.936 Q 230.325 349.465, 230.325 352.393 Q 230.325 355.408, 231.574 356.958 Q 232.844 358.509, 235.299 358.509 Q 236.979 358.509, 238.938 357.497 L 239.541 359.112 Q 238.744 359.628, 237.538 359.93 Q 236.333 360.231, 234.998 360.231 Q 231.681 360.231, 229.894 358.207 Q 228.128 356.183, 228.128 352.393 " fill="#000000"/>
<path class="atom-4" d="M 241.501 357.518 L 243.654 357.518 L 243.654 359.672 L 241.501 359.672 L 241.501 357.518 M 241.501 350.111 L 243.654 350.111 L 243.654 352.264 L 241.501 352.264 L 241.501 350.111 " fill="#000000"/>
<path class="atom-4" d="M 250.179 350.498 Q 251.514 350.498, 252.612 351.08 Q 253.71 351.64, 254.335 352.716 Q 254.959 353.771, 254.959 355.214 Q 254.959 356.786, 254.184 357.927 Q 253.43 359.047, 252.181 359.628 Q 250.932 360.21, 249.511 360.21 Q 248.111 360.21, 246.819 359.693 Q 245.527 359.176, 244.645 358.186 L 245.937 356.851 Q 246.647 357.626, 247.616 358.057 Q 248.585 358.466, 249.576 358.466 Q 250.932 358.466, 251.858 357.626 Q 252.806 356.786, 252.806 355.257 Q 252.806 353.642, 251.858 352.888 Q 250.932 352.113, 249.447 352.113 Q 248.111 352.113, 246.626 352.695 L 245.441 352.135 L 246.173 344.792 L 254.012 344.792 L 253.796 346.515 L 247.939 346.515 L 247.487 351.037 Q 248.844 350.498, 250.179 350.498 " fill="#000000"/>
<path class="atom-5" d="M 230.417 210.303 Q 230.417 206.513, 232.183 204.532 Q 233.97 202.529, 237.351 202.529 Q 240.495 202.529, 242.174 204.747 L 240.753 205.91 Q 239.526 204.295, 237.351 204.295 Q 235.047 204.295, 233.819 205.845 Q 232.614 207.374, 232.614 210.303 Q 232.614 213.317, 233.863 214.868 Q 235.133 216.418, 237.588 216.418 Q 239.267 216.418, 241.227 215.406 L 241.83 217.021 Q 241.033 217.538, 239.827 217.839 Q 238.621 218.141, 237.286 218.141 Q 233.97 218.141, 232.183 216.117 Q 230.417 214.093, 230.417 210.303 " fill="#000000"/>
<path class="atom-5" d="M 243.789 215.428 L 245.943 215.428 L 245.943 217.581 L 243.789 217.581 L 243.789 215.428 M 243.789 208.02 L 245.943 208.02 L 245.943 210.173 L 243.789 210.173 L 243.789 208.02 " fill="#000000"/>
<path class="atom-5" d="M 253.372 208.429 Q 254.707 208.429, 255.762 209.011 Q 256.817 209.592, 257.399 210.647 Q 257.98 211.702, 257.98 213.037 Q 257.98 214.523, 257.313 215.686 Q 256.667 216.827, 255.504 217.473 Q 254.341 218.119, 252.855 218.119 Q 250.142 218.119, 248.764 216.289 Q 247.407 214.437, 247.407 210.776 Q 247.407 206.728, 249.087 204.639 Q 250.788 202.529, 254.039 202.529 Q 254.987 202.529, 255.784 202.744 Q 256.602 202.96, 257.377 203.412 L 256.537 204.855 Q 255.418 204.252, 254.061 204.252 Q 251.908 204.252, 250.809 205.651 Q 249.711 207.03, 249.582 209.894 Q 250.357 209.183, 251.326 208.817 Q 252.317 208.429, 253.372 208.429 M 252.877 216.354 Q 253.695 216.354, 254.362 215.923 Q 255.052 215.492, 255.439 214.739 Q 255.827 213.985, 255.827 213.059 Q 255.827 211.702, 255.073 210.927 Q 254.319 210.152, 252.984 210.152 Q 252.058 210.152, 251.132 210.54 Q 250.228 210.906, 249.582 211.552 Q 249.668 214.071, 250.465 215.212 Q 251.262 216.354, 252.877 216.354 " fill="#000000"/>
<path class="atom-6" d="M 128.566 185.942 Q 128.566 182.152, 130.332 180.171 Q 132.119 178.168, 135.5 178.168 Q 138.644 178.168, 140.323 180.386 L 138.902 181.549 Q 137.675 179.934, 135.5 179.934 Q 133.196 179.934, 131.968 181.484 Q 130.762 183.013, 130.762 185.942 Q 130.762 188.956, 132.011 190.507 Q 133.282 192.057, 135.737 192.057 Q 137.416 192.057, 139.376 191.045 L 139.979 192.66 Q 139.182 193.177, 137.976 193.478 Q 136.77 193.78, 135.435 193.78 Q 132.119 193.78, 130.332 191.756 Q 128.566 189.731, 128.566 185.942 " fill="#000000"/>
<path class="atom-6" d="M 141.938 191.067 L 144.092 191.067 L 144.092 193.22 L 141.938 193.22 L 141.938 191.067 M 141.938 183.659 L 144.092 183.659 L 144.092 185.812 L 141.938 185.812 L 141.938 183.659 " fill="#000000"/>
<path class="atom-6" d="M 152.468 180.063 L 144.479 180.063 L 144.479 178.34 L 154.6 178.34 L 154.6 179.869 L 148.441 193.586 L 146.374 193.586 L 152.468 180.063 " fill="#000000"/>
<path class="atom-7" d="M 180.015 172.14 Q 180.015 168.35, 181.781 166.369 Q 183.568 164.367, 186.949 164.367 Q 190.093 164.367, 191.773 166.584 L 190.352 167.747 Q 189.124 166.132, 186.949 166.132 Q 184.645 166.132, 183.418 167.683 Q 182.212 169.212, 182.212 172.14 Q 182.212 175.155, 183.461 176.705 Q 184.731 178.256, 187.186 178.256 Q 188.866 178.256, 190.825 177.244 L 191.428 178.859 Q 190.631 179.375, 189.426 179.677 Q 188.22 179.978, 186.885 179.978 Q 183.568 179.978, 181.781 177.954 Q 180.015 175.93, 180.015 172.14 " fill="#000000"/>
<path class="atom-7" d="M 193.388 177.265 L 195.541 177.265 L 195.541 179.418 L 193.388 179.418 L 193.388 177.265 M 193.388 169.858 L 195.541 169.858 L 195.541 172.011 L 193.388 172.011 L 193.388 169.858 " fill="#000000"/>
<path class="atom-7" d="M 204.65 171.709 Q 206.049 172.312, 206.846 173.217 Q 207.643 174.1, 207.643 175.607 Q 207.643 176.899, 206.975 177.911 Q 206.308 178.902, 205.102 179.462 Q 203.918 180, 202.346 180 Q 199.805 180, 198.34 178.837 Q 196.876 177.653, 196.876 175.607 Q 196.876 174.358, 197.522 173.432 Q 198.168 172.485, 199.503 171.774 Q 198.513 171.214, 197.974 170.396 Q 197.436 169.556, 197.436 168.264 Q 197.436 166.477, 198.728 165.422 Q 200.042 164.367, 202.26 164.367 Q 204.478 164.367, 205.77 165.422 Q 207.083 166.477, 207.083 168.264 Q 207.083 169.384, 206.459 170.224 Q 205.856 171.042, 204.65 171.709 M 202.26 165.982 Q 200.989 165.982, 200.278 166.584 Q 199.589 167.187, 199.589 168.264 Q 199.589 169.061, 200.063 169.599 Q 200.537 170.116, 201.204 170.417 Q 201.893 170.719, 203.207 171.171 Q 204.133 170.525, 204.521 169.836 Q 204.93 169.147, 204.93 168.264 Q 204.93 167.187, 204.219 166.584 Q 203.53 165.982, 202.26 165.982 M 202.346 178.385 Q 203.767 178.385, 204.628 177.631 Q 205.49 176.856, 205.49 175.586 Q 205.49 174.767, 205.037 174.25 Q 204.585 173.734, 203.896 173.432 Q 203.229 173.131, 202.023 172.743 L 201.054 172.42 Q 199.977 173.066, 199.503 173.841 Q 199.03 174.595, 199.03 175.586 Q 199.03 176.856, 199.934 177.631 Q 200.838 178.385, 202.346 178.385 " fill="#000000"/>
<path class="atom-8" d="M 114.047 237.906 Q 114.047 234.116, 115.813 232.135 Q 117.6 230.132, 120.981 230.132 Q 124.125 230.132, 125.804 232.35 L 124.383 233.513 Q 123.156 231.898, 120.981 231.898 Q 118.677 231.898, 117.449 233.448 Q 116.243 234.977, 116.243 237.906 Q 116.243 240.92, 117.492 242.471 Q 118.763 244.021, 121.218 244.021 Q 122.897 244.021, 124.857 243.009 L 125.46 244.624 Q 124.663 245.141, 123.457 245.442 Q 122.251 245.744, 120.916 245.744 Q 117.6 245.744, 115.813 243.72 Q 114.047 241.695, 114.047 237.906 " fill="#000000"/>
<path class="atom-8" d="M 127.419 243.031 L 129.573 243.031 L 129.573 245.184 L 127.419 245.184 L 127.419 243.031 M 127.419 235.623 L 129.573 235.623 L 129.573 237.776 L 127.419 237.776 L 127.419 235.623 " fill="#000000"/>
<path class="atom-8" d="M 135.882 230.132 Q 138.595 230.132, 139.952 231.984 Q 141.33 233.814, 141.33 237.475 Q 141.33 241.523, 139.629 243.634 Q 137.949 245.722, 134.698 245.722 Q 133.75 245.722, 132.932 245.507 Q 132.135 245.292, 131.36 244.839 L 132.2 243.397 Q 133.319 244, 134.676 244 Q 136.829 244, 137.928 242.621 Q 139.026 241.222, 139.155 238.358 Q 138.38 239.068, 137.389 239.456 Q 136.42 239.822, 135.365 239.822 Q 134.03 239.822, 132.975 239.241 Q 131.92 238.659, 131.338 237.604 Q 130.757 236.549, 130.757 235.214 Q 130.757 233.728, 131.403 232.587 Q 132.071 231.424, 133.233 230.778 Q 134.396 230.132, 135.882 230.132 M 132.91 235.192 Q 132.91 236.549, 133.664 237.324 Q 134.418 238.099, 135.753 238.099 Q 136.679 238.099, 137.583 237.733 Q 138.509 237.346, 139.155 236.7 Q 139.069 234.18, 138.272 233.039 Q 137.475 231.898, 135.86 231.898 Q 135.042 231.898, 134.353 232.328 Q 133.686 232.759, 133.298 233.513 Q 132.91 234.266, 132.91 235.192 " fill="#000000"/>
<path class="atom-9" d="M 146.491 276.068 Q 146.491 272.278, 148.256 270.297 Q 150.044 268.295, 153.424 268.295 Q 156.568 268.295, 158.248 270.512 L 156.827 271.675 Q 155.599 270.06, 153.424 270.06 Q 151.12 270.06, 149.893 271.611 Q 148.687 273.14, 148.687 276.068 Q 148.687 279.083, 149.936 280.633 Q 151.206 282.184, 153.661 282.184 Q 155.341 282.184, 157.3 281.172 L 157.903 282.787 Q 157.107 283.303, 155.901 283.605 Q 154.695 283.906, 153.36 283.906 Q 150.044 283.906, 148.256 281.882 Q 146.491 279.858, 146.491 276.068 " fill="#000000"/>
<path class="atom-9" d="M 159.863 281.193 L 162.016 281.193 L 162.016 283.346 L 159.863 283.346 L 159.863 281.193 M 159.863 273.786 L 162.016 273.786 L 162.016 275.939 L 159.863 275.939 L 159.863 273.786 " fill="#000000"/>
<path class="atom-9" d="M 164.019 281.99 L 167.357 281.99 L 167.357 270.599 L 163.674 271.74 L 163.179 270.469 L 167.852 268.381 L 169.381 268.639 L 169.381 281.99 L 172.374 281.99 L 172.374 283.713 L 164.019 283.713 L 164.019 281.99 " fill="#000000"/>
<path class="atom-9" d="M 179.265 283.885 Q 176.465 283.885, 175.066 281.818 Q 173.687 279.75, 173.687 276.068 Q 173.687 272.386, 175.066 270.34 Q 176.444 268.295, 179.265 268.295 Q 182.086 268.295, 183.464 270.34 Q 184.842 272.386, 184.842 276.068 Q 184.842 279.75, 183.442 281.818 Q 182.064 283.885, 179.265 283.885 M 179.265 282.162 Q 180.923 282.162, 181.806 280.633 Q 182.688 279.083, 182.688 276.068 Q 182.688 273.075, 181.806 271.546 Q 180.923 270.017, 179.265 270.017 Q 177.628 270.017, 176.724 271.546 Q 175.841 273.075, 175.841 276.068 Q 175.841 279.083, 176.724 280.633 Q 177.628 282.162, 179.265 282.162 " fill="#000000"/>
<path class="atom-10" d="M 343.207 324.769 Q 343.207 321.108, 345.015 319.062 Q 346.824 317.017, 350.205 317.017 Q 353.586 317.017, 355.394 319.062 Q 357.203 321.108, 357.203 324.769 Q 357.203 328.473, 355.373 330.583 Q 353.543 332.672, 350.205 332.672 Q 346.846 332.672, 345.015 330.583 Q 343.207 328.494, 343.207 324.769 M 350.205 330.949 Q 352.531 330.949, 353.779 329.398 Q 355.05 327.827, 355.05 324.769 Q 355.05 321.776, 353.779 320.268 Q 352.531 318.739, 350.205 318.739 Q 347.879 318.739, 346.609 320.247 Q 345.36 321.754, 345.36 324.769 Q 345.36 327.848, 346.609 329.398 Q 347.879 330.949, 350.205 330.949 " fill="#FF0000"/>
<path class="atom-10" d="M 358.818 329.915 L 360.972 329.915 L 360.972 332.069 L 358.818 332.069 L 358.818 329.915 M 358.818 322.508 L 360.972 322.508 L 360.972 324.661 L 358.818 324.661 L 358.818 322.508 " fill="#FF0000"/>
<path class="atom-10" d="M 362.974 330.712 L 366.312 330.712 L 366.312 319.321 L 362.63 320.462 L 362.134 319.192 L 366.807 317.103 L 368.336 317.361 L 368.336 330.712 L 371.329 330.712 L 371.329 332.435 L 362.974 332.435 L 362.974 330.712 " fill="#FF0000"/>
<path class="atom-10" d="M 373.332 330.712 L 376.67 330.712 L 376.67 319.321 L 372.987 320.462 L 372.492 319.192 L 377.165 317.103 L 378.694 317.361 L 378.694 330.712 L 381.687 330.712 L 381.687 332.435 L 373.332 332.435 L 373.332 330.712 " fill="#FF0000"/>
<path class="atom-11" d="M 319.809 175.098 L 324.804 183.174 Q 325.3 183.97, 326.096 185.413 Q 326.893 186.856, 326.936 186.942 L 326.936 175.098 L 328.96 175.098 L 328.96 190.344 L 326.872 190.344 L 321.51 181.515 Q 320.885 180.482, 320.218 179.297 Q 319.572 178.113, 319.378 177.747 L 319.378 190.344 L 317.397 190.344 L 317.397 175.098 L 319.809 175.098 " fill="#0000FF"/>
<path class="atom-11" d="M 330.575 187.825 L 332.729 187.825 L 332.729 189.978 L 330.575 189.978 L 330.575 187.825 M 330.575 180.417 L 332.729 180.417 L 332.729 182.571 L 330.575 182.571 L 330.575 180.417 " fill="#0000FF"/>
<path class="atom-11" d="M 334.731 188.621 L 338.069 188.621 L 338.069 177.23 L 334.387 178.372 L 333.891 177.101 L 338.564 175.012 L 340.093 175.271 L 340.093 188.621 L 343.086 188.621 L 343.086 190.344 L 334.731 190.344 L 334.731 188.621 " fill="#0000FF"/>
<path class="atom-11" d="M 344.206 177.984 Q 344.766 176.541, 346.101 175.744 Q 347.436 174.926, 349.288 174.926 Q 351.592 174.926, 352.884 176.175 Q 354.176 177.424, 354.176 179.642 Q 354.176 181.903, 352.496 184.013 Q 350.838 186.124, 347.393 188.621 L 354.434 188.621 L 354.434 190.344 L 344.163 190.344 L 344.163 188.901 Q 347.005 186.877, 348.685 185.37 Q 350.386 183.863, 351.204 182.506 Q 352.023 181.149, 352.023 179.75 Q 352.023 178.285, 351.291 177.467 Q 350.558 176.649, 349.288 176.649 Q 348.061 176.649, 347.242 177.144 Q 346.424 177.639, 345.843 178.738 L 344.206 177.984 " fill="#0000FF"/>
<path class="atom-12" d="M 261.501 213.747 L 263.568 213.747 L 263.568 220.229 L 271.363 220.229 L 271.363 213.747 L 273.43 213.747 L 273.43 228.993 L 271.363 228.993 L 271.363 221.952 L 263.568 221.952 L 263.568 228.993 L 261.501 228.993 L 261.501 213.747 " fill="#000000"/>
<path class="atom-12" d="M 275.045 226.474 L 277.199 226.474 L 277.199 228.627 L 275.045 228.627 L 275.045 226.474 M 275.045 219.066 L 277.199 219.066 L 277.199 221.22 L 275.045 221.22 L 275.045 219.066 " fill="#000000"/>
<path class="atom-12" d="M 279.201 227.27 L 282.539 227.27 L 282.539 215.879 L 278.857 217.021 L 278.361 215.75 L 283.034 213.661 L 284.563 213.92 L 284.563 227.27 L 287.556 227.27 L 287.556 228.993 L 279.201 228.993 L 279.201 227.27 " fill="#000000"/>
<path class="atom-12" d="M 295.782 220.961 Q 297.268 221.392, 297.978 222.361 Q 298.711 223.308, 298.711 224.816 Q 298.711 226.108, 298.065 227.12 Q 297.419 228.11, 296.234 228.67 Q 295.05 229.208, 293.499 229.208 Q 291.863 229.208, 290.636 228.649 Q 289.43 228.067, 288.461 226.904 L 289.688 225.655 Q 290.636 226.689, 291.432 227.098 Q 292.229 227.486, 293.499 227.486 Q 294.878 227.486, 295.717 226.754 Q 296.557 226, 296.557 224.794 Q 296.557 223.244, 295.674 222.555 Q 294.813 221.844, 292.94 221.844 L 291.841 221.844 L 291.841 220.294 L 292.81 220.294 Q 294.468 220.272, 295.351 219.561 Q 296.234 218.829, 296.234 217.473 Q 296.234 216.482, 295.502 215.901 Q 294.77 215.298, 293.521 215.298 Q 292.251 215.298, 291.454 215.75 Q 290.679 216.202, 290.076 217.344 L 288.59 216.547 Q 289.128 215.276, 290.42 214.436 Q 291.712 213.575, 293.521 213.575 Q 295.76 213.575, 297.074 214.63 Q 298.388 215.685, 298.388 217.473 Q 298.388 218.7, 297.72 219.583 Q 297.052 220.466, 295.782 220.961 " fill="#000000"/>
<path class="atom-13" d="M 372.299 241.084 L 374.367 241.084 L 374.367 247.566 L 382.162 247.566 L 382.162 241.084 L 384.229 241.084 L 384.229 256.33 L 382.162 256.33 L 382.162 249.289 L 374.367 249.289 L 374.367 256.33 L 372.299 256.33 L 372.299 241.084 " fill="#000000"/>
<path class="atom-13" d="M 385.844 253.811 L 387.997 253.811 L 387.997 255.964 L 385.844 255.964 L 385.844 253.811 M 385.844 246.403 L 387.997 246.403 L 387.997 248.556 L 385.844 248.556 L 385.844 246.403 " fill="#000000"/>
<path class="atom-13" d="M 390 254.607 L 393.338 254.607 L 393.338 243.216 L 389.655 244.357 L 389.16 243.087 L 393.833 240.998 L 395.362 241.257 L 395.362 254.607 L 398.355 254.607 L 398.355 256.33 L 390 256.33 L 390 254.607 " fill="#000000"/>
<path class="atom-13" d="M 408.906 251.097 L 410.737 251.097 L 410.737 252.82 L 408.906 252.82 L 408.906 256.33 L 406.882 256.33 L 406.882 252.82 L 399.001 252.82 L 399.001 251.463 L 405.676 241.084 L 408.906 241.084 L 408.906 251.097 M 401.499 251.097 L 406.882 251.097 L 406.882 242.462 L 401.499 251.097 " fill="#000000"/>
<path class="atom-14" d="M 161.968 330.684 L 164.036 330.684 L 164.036 337.166 L 171.831 337.166 L 171.831 330.684 L 173.898 330.684 L 173.898 345.93 L 171.831 345.93 L 171.831 338.888 L 164.036 338.888 L 164.036 345.93 L 161.968 345.93 L 161.968 330.684 " fill="#000000"/>
<path class="atom-14" d="M 175.513 343.41 L 177.666 343.41 L 177.666 345.564 L 175.513 345.564 L 175.513 343.41 M 175.513 336.003 L 177.666 336.003 L 177.666 338.156 L 175.513 338.156 L 175.513 336.003 " fill="#000000"/>
<path class="atom-14" d="M 179.669 344.207 L 183.007 344.207 L 183.007 332.816 L 179.324 333.957 L 178.829 332.687 L 183.502 330.598 L 185.031 330.856 L 185.031 344.207 L 188.024 344.207 L 188.024 345.93 L 179.669 345.93 L 179.669 344.207 " fill="#000000"/>
<path class="atom-14" d="M 194.549 336.39 Q 195.884 336.39, 196.982 336.972 Q 198.08 337.532, 198.705 338.608 Q 199.329 339.663, 199.329 341.106 Q 199.329 342.678, 198.554 343.819 Q 197.8 344.939, 196.551 345.521 Q 195.302 346.102, 193.881 346.102 Q 192.481 346.102, 191.189 345.585 Q 189.897 345.068, 189.014 344.078 L 190.306 342.743 Q 191.017 343.518, 191.986 343.949 Q 192.955 344.358, 193.946 344.358 Q 195.302 344.358, 196.228 343.518 Q 197.176 342.678, 197.176 341.149 Q 197.176 339.534, 196.228 338.781 Q 195.302 338.005, 193.816 338.005 Q 192.481 338.005, 190.996 338.587 L 189.811 338.027 L 190.543 330.684 L 198.382 330.684 L 198.166 332.407 L 192.309 332.407 L 191.857 336.929 Q 193.214 336.39, 194.549 336.39 " fill="#000000"/>
<path class="atom-15" d="M 292.135 358.857 L 294.202 358.857 L 294.202 365.338 L 301.997 365.338 L 301.997 358.857 L 304.065 358.857 L 304.065 374.102 L 301.997 374.102 L 301.997 367.061 L 294.202 367.061 L 294.202 374.102 L 292.135 374.102 L 292.135 358.857 " fill="#000000"/>
<path class="atom-15" d="M 305.68 371.583 L 307.833 371.583 L 307.833 373.736 L 305.68 373.736 L 305.68 371.583 M 305.68 364.176 L 307.833 364.176 L 307.833 366.329 L 305.68 366.329 L 305.68 364.176 " fill="#000000"/>
<path class="atom-15" d="M 309.836 372.38 L 313.173 372.38 L 313.173 360.989 L 309.491 362.13 L 308.996 360.859 L 313.668 358.771 L 315.197 359.029 L 315.197 372.38 L 318.191 372.38 L 318.191 374.102 L 309.836 374.102 L 309.836 372.38 " fill="#000000"/>
<path class="atom-15" d="M 325.62 364.585 Q 326.955 364.585, 328.01 365.166 Q 329.065 365.747, 329.646 366.803 Q 330.228 367.858, 330.228 369.193 Q 330.228 370.679, 329.56 371.841 Q 328.914 372.983, 327.751 373.629 Q 326.589 374.275, 325.103 374.275 Q 322.39 374.275, 321.011 372.444 Q 319.655 370.593, 319.655 366.932 Q 319.655 362.884, 321.334 360.795 Q 323.036 358.684, 326.287 358.684 Q 327.235 358.684, 328.031 358.9 Q 328.85 359.115, 329.625 359.567 L 328.785 361.01 Q 327.665 360.407, 326.309 360.407 Q 324.155 360.407, 323.057 361.807 Q 321.959 363.185, 321.83 366.049 Q 322.605 365.338, 323.574 364.972 Q 324.564 364.585, 325.62 364.585 M 325.124 372.509 Q 325.943 372.509, 326.61 372.078 Q 327.299 371.648, 327.687 370.894 Q 328.074 370.14, 328.074 369.214 Q 328.074 367.858, 327.321 367.083 Q 326.567 366.307, 325.232 366.307 Q 324.306 366.307, 323.38 366.695 Q 322.476 367.061, 321.83 367.707 Q 321.916 370.226, 322.713 371.368 Q 323.509 372.509, 325.124 372.509 " fill="#000000"/>
<path class="atom-16" d="M 226.106 396.713 L 228.173 396.713 L 228.173 403.194 L 235.968 403.194 L 235.968 396.713 L 238.036 396.713 L 238.036 411.959 L 235.968 411.959 L 235.968 404.917 L 228.173 404.917 L 228.173 411.959 L 226.106 411.959 L 226.106 396.713 " fill="#000000"/>
<path class="atom-16" d="M 239.651 409.439 L 241.804 409.439 L 241.804 411.592 L 239.651 411.592 L 239.651 409.439 M 239.651 402.032 L 241.804 402.032 L 241.804 404.185 L 239.651 404.185 L 239.651 402.032 " fill="#000000"/>
<path class="atom-16" d="M 243.807 410.236 L 247.144 410.236 L 247.144 398.845 L 243.462 399.986 L 242.967 398.715 L 247.64 396.627 L 249.168 396.885 L 249.168 410.236 L 252.162 410.236 L 252.162 411.959 L 243.807 411.959 L 243.807 410.236 " fill="#000000"/>
<path class="atom-16" d="M 260.538 398.435 L 252.549 398.435 L 252.549 396.713 L 262.67 396.713 L 262.67 398.242 L 256.511 411.959 L 254.444 411.959 L 260.538 398.435 " fill="#000000"/>
<path class="atom-17" d="M 263.113 189.552 L 265.18 189.552 L 265.18 196.034 L 272.975 196.034 L 272.975 189.552 L 275.042 189.552 L 275.042 204.798 L 272.975 204.798 L 272.975 197.756 L 265.18 197.756 L 265.18 204.798 L 263.113 204.798 L 263.113 189.552 " fill="#000000"/>
<path class="atom-17" d="M 276.657 202.279 L 278.81 202.279 L 278.81 204.432 L 276.657 204.432 L 276.657 202.279 M 276.657 194.871 L 278.81 194.871 L 278.81 197.024 L 276.657 197.024 L 276.657 194.871 " fill="#000000"/>
<path class="atom-17" d="M 280.813 203.075 L 284.151 203.075 L 284.151 191.684 L 280.469 192.825 L 279.973 191.555 L 284.646 189.466 L 286.175 189.724 L 286.175 203.075 L 289.168 203.075 L 289.168 204.798 L 280.813 204.798 L 280.813 203.075 " fill="#000000"/>
<path class="atom-17" d="M 298.277 196.723 Q 299.676 197.326, 300.473 198.23 Q 301.27 199.113, 301.27 200.62 Q 301.27 201.912, 300.602 202.925 Q 299.935 203.915, 298.729 204.475 Q 297.545 205.013, 295.973 205.013 Q 293.432 205.013, 291.967 203.85 Q 290.503 202.666, 290.503 200.62 Q 290.503 199.372, 291.149 198.446 Q 291.795 197.498, 293.13 196.787 Q 292.14 196.228, 291.601 195.409 Q 291.063 194.57, 291.063 193.278 Q 291.063 191.49, 292.355 190.435 Q 293.669 189.38, 295.887 189.38 Q 298.105 189.38, 299.397 190.435 Q 300.71 191.49, 300.71 193.278 Q 300.71 194.397, 300.086 195.237 Q 299.483 196.055, 298.277 196.723 M 295.887 190.995 Q 294.616 190.995, 293.905 191.598 Q 293.216 192.201, 293.216 193.278 Q 293.216 194.074, 293.69 194.613 Q 294.164 195.129, 294.831 195.431 Q 295.52 195.732, 296.834 196.185 Q 297.76 195.539, 298.148 194.849 Q 298.557 194.16, 298.557 193.278 Q 298.557 192.201, 297.846 191.598 Q 297.157 190.995, 295.887 190.995 M 295.973 203.398 Q 297.394 203.398, 298.255 202.645 Q 299.117 201.869, 299.117 200.599 Q 299.117 199.781, 298.664 199.264 Q 298.212 198.747, 297.523 198.446 Q 296.856 198.144, 295.65 197.756 L 294.681 197.433 Q 293.604 198.079, 293.13 198.855 Q 292.657 199.608, 292.657 200.599 Q 292.657 201.869, 293.561 202.645 Q 294.465 203.398, 295.973 203.398 " fill="#000000"/>
<path class="atom-18" d="M 206.426 112.575 L 208.493 112.575 L 208.493 119.056 L 216.289 119.056 L 216.289 112.575 L 218.356 112.575 L 218.356 127.821 L 216.289 127.821 L 216.289 120.779 L 208.493 120.779 L 208.493 127.821 L 206.426 127.821 L 206.426 112.575 " fill="#000000"/>
<path class="atom-18" d="M 219.971 125.301 L 222.124 125.301 L 222.124 127.454 L 219.971 127.454 L 219.971 125.301 M 219.971 117.894 L 222.124 117.894 L 222.124 120.047 L 219.971 120.047 L 219.971 117.894 " fill="#000000"/>
<path class="atom-18" d="M 224.127 126.098 L 227.464 126.098 L 227.464 114.707 L 223.782 115.848 L 223.287 114.577 L 227.96 112.489 L 229.489 112.747 L 229.489 126.098 L 232.482 126.098 L 232.482 127.821 L 224.127 127.821 L 224.127 126.098 " fill="#000000"/>
<path class="atom-18" d="M 238.791 112.403 Q 241.504 112.403, 242.861 114.254 Q 244.239 116.085, 244.239 119.745 Q 244.239 123.794, 242.538 125.904 Q 240.858 127.993, 237.607 127.993 Q 236.659 127.993, 235.841 127.777 Q 235.044 127.562, 234.269 127.11 L 235.109 125.667 Q 236.229 126.27, 237.585 126.27 Q 239.739 126.27, 240.837 124.892 Q 241.935 123.492, 242.064 120.628 Q 241.289 121.339, 240.298 121.727 Q 239.329 122.093, 238.274 122.093 Q 236.939 122.093, 235.884 121.511 Q 234.829 120.93, 234.248 119.875 Q 233.666 118.82, 233.666 117.484 Q 233.666 115.999, 234.312 114.857 Q 234.98 113.695, 236.142 113.049 Q 237.305 112.403, 238.791 112.403 M 235.819 117.463 Q 235.819 118.82, 236.573 119.595 Q 237.327 120.37, 238.662 120.37 Q 239.588 120.37, 240.492 120.004 Q 241.418 119.616, 242.064 118.97 Q 241.978 116.451, 241.181 115.31 Q 240.385 114.168, 238.77 114.168 Q 237.951 114.168, 237.262 114.599 Q 236.595 115.03, 236.207 115.783 Q 235.819 116.537, 235.819 117.463 " fill="#000000"/>
<path class="atom-19" d="M 46.2553 244.106 L 48.3225 244.106 L 48.3225 250.587 L 56.1176 250.587 L 56.1176 244.106 L 58.1848 244.106 L 58.1848 259.351 L 56.1176 259.351 L 56.1176 252.31 L 48.3225 252.31 L 48.3225 259.351 L 46.2553 259.351 L 46.2553 244.106 " fill="#000000"/>
<path class="atom-19" d="M 59.7998 256.832 L 61.9532 256.832 L 61.9532 258.985 L 59.7998 258.985 L 59.7998 256.832 M 59.7998 249.424 L 61.9532 249.424 L 61.9532 251.578 L 59.7998 251.578 L 59.7998 249.424 " fill="#000000"/>
<path class="atom-19" d="M 63.0729 246.991 Q 63.6328 245.548, 64.9679 244.752 Q 66.303 243.933, 68.1548 243.933 Q 70.4589 243.933, 71.7509 245.182 Q 73.043 246.431, 73.043 248.649 Q 73.043 250.91, 71.3633 253.021 Q 69.7053 255.131, 66.2599 257.629 L 73.3014 257.629 L 73.3014 259.351 L 63.0299 259.351 L 63.0299 257.909 Q 65.8723 255.885, 67.5519 254.377 Q 69.2531 252.87, 70.0713 251.513 Q 70.8896 250.157, 70.8896 248.757 Q 70.8896 247.293, 70.1575 246.474 Q 69.4253 245.656, 68.1548 245.656 Q 66.9274 245.656, 66.1092 246.151 Q 65.2909 246.647, 64.7095 247.745 L 63.0729 246.991 " fill="#000000"/>
<path class="atom-19" d="M 80.1921 259.524 Q 77.3927 259.524, 75.993 257.456 Q 74.6149 255.389, 74.6149 251.707 Q 74.6149 248.025, 75.993 245.979 Q 77.3712 243.933, 80.1921 243.933 Q 83.013 243.933, 84.3911 245.979 Q 85.7693 248.025, 85.7693 251.707 Q 85.7693 255.389, 84.3696 257.456 Q 82.9914 259.524, 80.1921 259.524 M 80.1921 257.801 Q 81.8502 257.801, 82.733 256.272 Q 83.6159 254.722, 83.6159 251.707 Q 83.6159 248.714, 82.733 247.185 Q 81.8502 245.656, 80.1921 245.656 Q 78.5555 245.656, 77.6511 247.185 Q 76.7683 248.714, 76.7683 251.707 Q 76.7683 254.722, 77.6511 256.272 Q 78.5555 257.801, 80.1921 257.801 " fill="#000000"/>
<path class="atom-20" d="M 150.167 320.431 L 152.234 320.431 L 152.234 326.912 L 160.029 326.912 L 160.029 320.431 L 162.096 320.431 L 162.096 335.677 L 160.029 335.677 L 160.029 328.635 L 152.234 328.635 L 152.234 335.677 L 150.167 335.677 L 150.167 320.431 " fill="#000000"/>
<path class="atom-20" d="M 163.711 333.157 L 165.865 333.157 L 165.865 335.31 L 163.711 335.31 L 163.711 333.157 M 163.711 325.75 L 165.865 325.75 L 165.865 327.903 L 163.711 327.903 L 163.711 325.75 " fill="#000000"/>
<path class="atom-20" d="M 166.984 323.316 Q 167.544 321.874, 168.879 321.077 Q 170.214 320.259, 172.066 320.259 Q 174.37 320.259, 175.662 321.507 Q 176.954 322.756, 176.954 324.974 Q 176.954 327.235, 175.275 329.346 Q 173.617 331.456, 170.171 333.954 L 177.213 333.954 L 177.213 335.677 L 166.941 335.677 L 166.941 334.234 Q 169.784 332.21, 171.463 330.702 Q 173.164 329.195, 173.983 327.838 Q 174.801 326.482, 174.801 325.082 Q 174.801 323.618, 174.069 322.799 Q 173.337 321.981, 172.066 321.981 Q 170.839 321.981, 170.021 322.476 Q 169.202 322.972, 168.621 324.07 L 166.984 323.316 " fill="#000000"/>
<path class="atom-20" d="M 179.215 333.954 L 182.553 333.954 L 182.553 322.563 L 178.871 323.704 L 178.376 322.433 L 183.048 320.345 L 184.577 320.603 L 184.577 333.954 L 187.57 333.954 L 187.57 335.677 L 179.215 335.677 L 179.215 333.954 " fill="#000000"/>
<path class="atom-21" d="M 87.1571 140.178 L 92.1529 148.253 Q 92.6481 149.05, 93.4449 150.492 Q 94.2416 151.935, 94.2847 152.021 L 94.2847 140.178 L 96.3088 140.178 L 96.3088 155.423 L 94.2201 155.423 L 88.8582 146.595 Q 88.2338 145.561, 87.5662 144.377 Q 86.9202 143.192, 86.7264 142.826 L 86.7264 155.423 L 84.7453 155.423 L 84.7453 140.178 L 87.1571 140.178 " fill="#0000FF"/>
<path class="atom-21" d="M 97.9238 152.904 L 100.077 152.904 L 100.077 155.057 L 97.9238 155.057 L 97.9238 152.904 M 97.9238 145.497 L 100.077 145.497 L 100.077 147.65 L 97.9238 147.65 L 97.9238 145.497 " fill="#0000FF"/>
<path class="atom-21" d="M 101.197 143.063 Q 101.757 141.62, 103.092 140.824 Q 104.427 140.005, 106.279 140.005 Q 108.583 140.005, 109.875 141.254 Q 111.167 142.503, 111.167 144.721 Q 111.167 146.982, 109.487 149.093 Q 107.829 151.203, 104.384 153.701 L 111.425 153.701 L 111.425 155.423 L 101.154 155.423 L 101.154 153.981 Q 103.996 151.957, 105.676 150.449 Q 107.377 148.942, 108.195 147.585 Q 109.014 146.229, 109.014 144.829 Q 109.014 143.365, 108.281 142.546 Q 107.549 141.728, 106.279 141.728 Q 105.051 141.728, 104.233 142.223 Q 103.415 142.719, 102.833 143.817 L 101.197 143.063 " fill="#0000FF"/>
<path class="atom-21" d="M 112.545 143.063 Q 113.105 141.62, 114.44 140.824 Q 115.775 140.005, 117.627 140.005 Q 119.931 140.005, 121.223 141.254 Q 122.515 142.503, 122.515 144.721 Q 122.515 146.982, 120.836 149.093 Q 119.177 151.203, 115.732 153.701 L 122.774 153.701 L 122.774 155.423 L 112.502 155.423 L 112.502 153.981 Q 115.344 151.957, 117.024 150.449 Q 118.725 148.942, 119.543 147.585 Q 120.362 146.229, 120.362 144.829 Q 120.362 143.365, 119.63 142.546 Q 118.897 141.728, 117.627 141.728 Q 116.4 141.728, 115.581 142.223 Q 114.763 142.719, 114.182 143.817 L 112.545 143.063 " fill="#0000FF"/>
<path class="atom-22" d="M 368.527 168.898 Q 368.527 165.108, 370.293 163.127 Q 372.08 161.125, 375.461 161.125 Q 378.605 161.125, 380.284 163.343 L 378.863 164.505 Q 377.636 162.89, 375.461 162.89 Q 373.157 162.89, 371.929 164.441 Q 370.723 165.97, 370.723 168.898 Q 370.723 171.913, 371.972 173.463 Q 373.243 175.014, 375.698 175.014 Q 377.377 175.014, 379.337 174.002 L 379.94 175.617 Q 379.143 176.134, 377.937 176.435 Q 376.731 176.737, 375.396 176.737 Q 372.08 176.737, 370.293 174.712 Q 368.527 172.688, 368.527 168.898 " fill="#000000"/>
<path class="atom-22" d="M 381.899 174.023 L 384.053 174.023 L 384.053 176.177 L 381.899 176.177 L 381.899 174.023 M 381.899 166.616 L 384.053 166.616 L 384.053 168.769 L 381.899 168.769 L 381.899 166.616 " fill="#000000"/>
<path class="atom-22" d="M 385.172 164.182 Q 385.732 162.74, 387.067 161.943 Q 388.402 161.125, 390.254 161.125 Q 392.558 161.125, 393.85 162.374 Q 395.142 163.623, 395.142 165.841 Q 395.142 168.102, 393.463 170.212 Q 391.805 172.322, 388.359 174.82 L 395.401 174.82 L 395.401 176.543 L 385.129 176.543 L 385.129 175.1 Q 387.972 173.076, 389.651 171.568 Q 391.352 170.061, 392.171 168.705 Q 392.989 167.348, 392.989 165.948 Q 392.989 164.484, 392.257 163.666 Q 391.525 162.847, 390.254 162.847 Q 389.027 162.847, 388.209 163.343 Q 387.39 163.838, 386.809 164.936 L 385.172 164.182 " fill="#000000"/>
<path class="atom-22" d="M 403.627 168.511 Q 405.112 168.941, 405.823 169.91 Q 406.555 170.858, 406.555 172.365 Q 406.555 173.657, 405.909 174.669 Q 405.263 175.66, 404.079 176.22 Q 402.894 176.758, 401.344 176.758 Q 399.707 176.758, 398.48 176.198 Q 397.274 175.617, 396.305 174.454 L 397.533 173.205 Q 398.48 174.239, 399.277 174.648 Q 400.074 175.035, 401.344 175.035 Q 402.722 175.035, 403.562 174.303 Q 404.402 173.55, 404.402 172.344 Q 404.402 170.793, 403.519 170.104 Q 402.658 169.394, 400.784 169.394 L 399.686 169.394 L 399.686 167.843 L 400.655 167.843 Q 402.313 167.822, 403.196 167.111 Q 404.079 166.379, 404.079 165.022 Q 404.079 164.032, 403.347 163.45 Q 402.614 162.847, 401.366 162.847 Q 400.095 162.847, 399.298 163.3 Q 398.523 163.752, 397.92 164.893 L 396.434 164.096 Q 396.973 162.826, 398.265 161.986 Q 399.557 161.125, 401.366 161.125 Q 403.605 161.125, 404.919 162.18 Q 406.232 163.235, 406.232 165.022 Q 406.232 166.25, 405.565 167.133 Q 404.897 168.015, 403.627 168.511 " fill="#000000"/>
<path class="atom-23" d="M 22.7273 153.979 L 24.7945 153.979 L 24.7945 160.461 L 32.5896 160.461 L 32.5896 153.979 L 34.6568 153.979 L 34.6568 169.225 L 32.5896 169.225 L 32.5896 162.183 L 24.7945 162.183 L 24.7945 169.225 L 22.7273 169.225 L 22.7273 153.979 " fill="#000000"/>
<path class="atom-23" d="M 36.2719 166.705 L 38.4252 166.705 L 38.4252 168.859 L 36.2719 168.859 L 36.2719 166.705 M 36.2719 159.298 L 38.4252 159.298 L 38.4252 161.451 L 36.2719 161.451 L 36.2719 159.298 " fill="#000000"/>
<path class="atom-23" d="M 39.5449 156.865 Q 40.1048 155.422, 41.4399 154.625 Q 42.775 153.807, 44.6269 153.807 Q 46.9309 153.807, 48.223 155.056 Q 49.515 156.305, 49.515 158.523 Q 49.515 160.784, 47.8354 162.894 Q 46.1773 165.004, 42.7319 167.502 L 49.7734 167.502 L 49.7734 169.225 L 39.5019 169.225 L 39.5019 167.782 Q 42.3443 165.758, 44.0239 164.251 Q 45.7251 162.743, 46.5433 161.387 Q 47.3616 160.03, 47.3616 158.63 Q 47.3616 157.166, 46.6295 156.348 Q 45.8973 155.53, 44.6269 155.53 Q 43.3994 155.53, 42.5812 156.025 Q 41.7629 156.52, 41.1815 157.618 L 39.5449 156.865 " fill="#000000"/>
<path class="atom-23" d="M 60.3248 163.992 L 62.1551 163.992 L 62.1551 165.715 L 60.3248 165.715 L 60.3248 169.225 L 58.3006 169.225 L 58.3006 165.715 L 50.4194 165.715 L 50.4194 164.358 L 57.0948 153.979 L 60.3248 153.979 L 60.3248 163.992 M 52.9173 163.992 L 58.3006 163.992 L 58.3006 155.357 L 52.9173 163.992 " fill="#000000"/>
<path class="atom-24" d="M 372.633 109.262 L 374.701 109.262 L 374.701 115.744 L 382.496 115.744 L 382.496 109.262 L 384.563 109.262 L 384.563 124.508 L 382.496 124.508 L 382.496 117.467 L 374.701 117.467 L 374.701 124.508 L 372.633 124.508 L 372.633 109.262 " fill="#000000"/>
<path class="atom-24" d="M 386.178 121.989 L 388.331 121.989 L 388.331 124.142 L 386.178 124.142 L 386.178 121.989 M 386.178 114.581 L 388.331 114.581 L 388.331 116.735 L 386.178 116.735 L 386.178 114.581 " fill="#000000"/>
<path class="atom-24" d="M 389.451 112.148 Q 390.011 110.705, 391.346 109.908 Q 392.681 109.09, 394.533 109.09 Q 396.837 109.09, 398.129 110.339 Q 399.421 111.588, 399.421 113.806 Q 399.421 116.067, 397.741 118.177 Q 396.083 120.288, 392.638 122.785 L 399.679 122.785 L 399.679 124.508 L 389.408 124.508 L 389.408 123.065 Q 392.25 121.041, 393.93 119.534 Q 395.631 118.027, 396.449 116.67 Q 397.268 115.313, 397.268 113.914 Q 397.268 112.449, 396.536 111.631 Q 395.803 110.813, 394.533 110.813 Q 393.305 110.813, 392.487 111.308 Q 391.669 111.803, 391.088 112.902 L 389.451 112.148 " fill="#000000"/>
<path class="atom-24" d="M 406.204 114.969 Q 407.539 114.969, 408.637 115.55 Q 409.736 116.11, 410.36 117.187 Q 410.984 118.242, 410.984 119.685 Q 410.984 121.257, 410.209 122.398 Q 409.456 123.518, 408.207 124.099 Q 406.958 124.68, 405.537 124.68 Q 404.137 124.68, 402.845 124.164 Q 401.553 123.647, 400.67 122.656 L 401.962 121.321 Q 402.673 122.096, 403.642 122.527 Q 404.611 122.936, 405.601 122.936 Q 406.958 122.936, 407.884 122.096 Q 408.831 121.257, 408.831 119.728 Q 408.831 118.113, 407.884 117.359 Q 406.958 116.584, 405.472 116.584 Q 404.137 116.584, 402.651 117.165 L 401.467 116.605 L 402.199 109.262 L 410.037 109.262 L 409.822 110.985 L 403.965 110.985 L 403.512 115.507 Q 404.869 114.969, 406.204 114.969 " fill="#000000"/>
<path class="atom-25" d="M 400.236 213.332 L 402.303 213.332 L 402.303 219.813 L 410.099 219.813 L 410.099 213.332 L 412.166 213.332 L 412.166 228.577 L 410.099 228.577 L 410.099 221.536 L 402.303 221.536 L 402.303 228.577 L 400.236 228.577 L 400.236 213.332 " fill="#000000"/>
<path class="atom-25" d="M 413.781 226.058 L 415.934 226.058 L 415.934 228.211 L 413.781 228.211 L 413.781 226.058 M 413.781 218.65 L 415.934 218.65 L 415.934 220.804 L 413.781 220.804 L 413.781 218.65 " fill="#000000"/>
<path class="atom-25" d="M 417.054 216.217 Q 417.614 214.774, 418.949 213.978 Q 420.284 213.159, 422.136 213.159 Q 424.44 213.159, 425.732 214.408 Q 427.024 215.657, 427.024 217.875 Q 427.024 220.136, 425.344 222.246 Q 423.686 224.357, 420.241 226.855 L 427.282 226.855 L 427.282 228.577 L 417.011 228.577 L 417.011 227.135 Q 419.853 225.11, 421.533 223.603 Q 423.234 222.096, 424.052 220.739 Q 424.871 219.382, 424.871 217.983 Q 424.871 216.519, 424.138 215.7 Q 423.406 214.882, 422.136 214.882 Q 420.908 214.882, 420.09 215.377 Q 419.272 215.873, 418.69 216.971 L 417.054 216.217 " fill="#000000"/>
<path class="atom-25" d="M 434.711 219.059 Q 436.046 219.059, 437.102 219.641 Q 438.157 220.222, 438.738 221.277 Q 439.32 222.333, 439.32 223.668 Q 439.32 225.153, 438.652 226.316 Q 438.006 227.458, 436.843 228.104 Q 435.68 228.75, 434.195 228.75 Q 431.481 228.75, 430.103 226.919 Q 428.747 225.067, 428.747 221.407 Q 428.747 217.358, 430.426 215.27 Q 432.127 213.159, 435.379 213.159 Q 436.326 213.159, 437.123 213.375 Q 437.941 213.59, 438.717 214.042 L 437.877 215.485 Q 436.757 214.882, 435.4 214.882 Q 433.247 214.882, 432.149 216.282 Q 431.051 217.66, 430.921 220.524 Q 431.697 219.813, 432.666 219.447 Q 433.656 219.059, 434.711 219.059 M 434.216 226.984 Q 435.034 226.984, 435.702 226.553 Q 436.391 226.122, 436.779 225.369 Q 437.166 224.615, 437.166 223.689 Q 437.166 222.333, 436.413 221.557 Q 435.659 220.782, 434.324 220.782 Q 433.398 220.782, 432.472 221.17 Q 431.567 221.536, 430.921 222.182 Q 431.008 224.701, 431.804 225.843 Q 432.601 226.984, 434.216 226.984 " fill="#000000"/>
<path class="atom-26" d="M 269.901 136.936 L 271.968 136.936 L 271.968 143.417 L 279.764 143.417 L 279.764 136.936 L 281.831 136.936 L 281.831 152.182 L 279.764 152.182 L 279.764 145.14 L 271.968 145.14 L 271.968 152.182 L 269.901 152.182 L 269.901 136.936 " fill="#000000"/>
<path class="atom-26" d="M 283.446 149.662 L 285.599 149.662 L 285.599 151.816 L 283.446 151.816 L 283.446 149.662 M 283.446 142.255 L 285.599 142.255 L 285.599 144.408 L 283.446 144.408 L 283.446 142.255 " fill="#000000"/>
<path class="atom-26" d="M 286.719 139.821 Q 287.279 138.379, 288.614 137.582 Q 289.949 136.764, 291.801 136.764 Q 294.105 136.764, 295.397 138.013 Q 296.689 139.262, 296.689 141.479 Q 296.689 143.74, 295.009 145.851 Q 293.351 147.961, 289.906 150.459 L 296.947 150.459 L 296.947 152.182 L 286.676 152.182 L 286.676 150.739 Q 289.518 148.715, 291.198 147.207 Q 292.899 145.7, 293.717 144.343 Q 294.536 142.987, 294.536 141.587 Q 294.536 140.123, 293.803 139.305 Q 293.071 138.486, 291.801 138.486 Q 290.573 138.486, 289.755 138.982 Q 288.937 139.477, 288.355 140.575 L 286.719 139.821 " fill="#000000"/>
<path class="atom-26" d="M 305.324 138.659 L 297.335 138.659 L 297.335 136.936 L 307.456 136.936 L 307.456 138.465 L 301.297 152.182 L 299.23 152.182 L 305.324 138.659 " fill="#000000"/>
<path class="atom-27" d="M 116.422 88.2137 L 118.489 88.2137 L 118.489 94.6953 L 126.284 94.6953 L 126.284 88.2137 L 128.351 88.2137 L 128.351 103.459 L 126.284 103.459 L 126.284 96.418 L 118.489 96.418 L 118.489 103.459 L 116.422 103.459 L 116.422 88.2137 " fill="#000000"/>
<path class="atom-27" d="M 129.967 100.94 L 132.12 100.94 L 132.12 103.093 L 129.967 103.093 L 129.967 100.94 M 129.967 93.5325 L 132.12 93.5325 L 132.12 95.6859 L 129.967 95.6859 L 129.967 93.5325 " fill="#000000"/>
<path class="atom-27" d="M 133.24 91.0992 Q 133.799 89.6565, 135.135 88.8597 Q 136.47 88.0415, 138.322 88.0415 Q 140.626 88.0415, 141.918 89.2904 Q 143.21 90.5394, 143.21 92.7573 Q 143.21 95.0183, 141.53 97.1286 Q 139.872 99.2389, 136.427 101.737 L 143.468 101.737 L 143.468 103.459 L 133.197 103.459 L 133.197 102.017 Q 136.039 99.9926, 137.719 98.4852 Q 139.42 96.9779, 140.238 95.6213 Q 141.056 94.2647, 141.056 92.865 Q 141.056 91.4007, 140.324 90.5824 Q 139.592 89.7642, 138.322 89.7642 Q 137.094 89.7642, 136.276 90.2594 Q 135.458 90.7547, 134.876 91.8529 L 133.24 91.0992 " fill="#000000"/>
<path class="atom-27" d="M 152.577 95.3844 Q 153.976 95.9873, 154.773 96.8917 Q 155.57 97.7746, 155.57 99.282 Q 155.57 100.574, 154.902 101.586 Q 154.235 102.577, 153.029 103.136 Q 151.845 103.675, 150.273 103.675 Q 147.732 103.675, 146.267 102.512 Q 144.803 101.328, 144.803 99.282 Q 144.803 98.033, 145.449 97.1071 Q 146.095 96.1596, 147.43 95.449 Q 146.44 94.8891, 145.901 94.0709 Q 145.363 93.231, 145.363 91.939 Q 145.363 90.1518, 146.655 89.0966 Q 147.969 88.0415, 150.186 88.0415 Q 152.404 88.0415, 153.696 89.0966 Q 155.01 90.1518, 155.01 91.939 Q 155.01 93.0588, 154.386 93.8986 Q 153.783 94.7169, 152.577 95.3844 M 150.186 89.6565 Q 148.916 89.6565, 148.205 90.2594 Q 147.516 90.8624, 147.516 91.939 Q 147.516 92.7358, 147.99 93.2741 Q 148.464 93.7909, 149.131 94.0924 Q 149.82 94.3939, 151.134 94.8461 Q 152.06 94.2001, 152.448 93.511 Q 152.857 92.8219, 152.857 91.939 Q 152.857 90.8624, 152.146 90.2594 Q 151.457 89.6565, 150.186 89.6565 M 150.273 102.06 Q 151.694 102.06, 152.555 101.306 Q 153.417 100.531, 153.417 99.2604 Q 153.417 98.4422, 152.964 97.9254 Q 152.512 97.4086, 151.823 97.1071 Q 151.155 96.8056, 149.95 96.418 L 148.981 96.095 Q 147.904 96.741, 147.43 97.5162 Q 146.956 98.2699, 146.956 99.2604 Q 146.956 100.531, 147.861 101.306 Q 148.765 102.06, 150.273 102.06 " fill="#000000"/>
<path class="atom-28" d="M 438.469 147.496 L 440.537 147.496 L 440.537 153.977 L 448.332 153.977 L 448.332 147.496 L 450.399 147.496 L 450.399 162.741 L 448.332 162.741 L 448.332 155.7 L 440.537 155.7 L 440.537 162.741 L 438.469 162.741 L 438.469 147.496 " fill="#000000"/>
<path class="atom-28" d="M 452.014 160.222 L 454.167 160.222 L 454.167 162.375 L 452.014 162.375 L 452.014 160.222 M 452.014 152.814 L 454.167 152.814 L 454.167 154.968 L 452.014 154.968 L 452.014 152.814 " fill="#000000"/>
<path class="atom-28" d="M 455.287 150.381 Q 455.847 148.938, 457.182 148.142 Q 458.517 147.323, 460.369 147.323 Q 462.673 147.323, 463.965 148.572 Q 465.257 149.821, 465.257 152.039 Q 465.257 154.3, 463.577 156.41 Q 461.919 158.521, 458.474 161.019 L 465.515 161.019 L 465.515 162.741 L 455.244 162.741 L 455.244 161.299 Q 458.086 159.274, 459.766 157.767 Q 461.467 156.26, 462.285 154.903 Q 463.104 153.546, 463.104 152.147 Q 463.104 150.682, 462.372 149.864 Q 461.639 149.046, 460.369 149.046 Q 459.142 149.046, 458.323 149.541 Q 457.505 150.036, 456.924 151.135 L 455.287 150.381 " fill="#000000"/>
<path class="atom-28" d="M 471.825 147.323 Q 474.538 147.323, 475.895 149.175 Q 477.273 151.005, 477.273 154.666 Q 477.273 158.714, 475.572 160.825 Q 473.892 162.914, 470.64 162.914 Q 469.693 162.914, 468.875 162.698 Q 468.078 162.483, 467.303 162.031 L 468.143 160.588 Q 469.262 161.191, 470.619 161.191 Q 472.772 161.191, 473.87 159.813 Q 474.969 158.413, 475.098 155.549 Q 474.323 156.26, 473.332 156.647 Q 472.363 157.013, 471.308 157.013 Q 469.973 157.013, 468.918 156.432 Q 467.863 155.851, 467.281 154.795 Q 466.7 153.74, 466.7 152.405 Q 466.7 150.919, 467.346 149.778 Q 468.013 148.615, 469.176 147.969 Q 470.339 147.323, 471.825 147.323 M 468.853 152.384 Q 468.853 153.74, 469.607 154.515 Q 470.36 155.291, 471.696 155.291 Q 472.621 155.291, 473.526 154.925 Q 474.452 154.537, 475.098 153.891 Q 475.012 151.372, 474.215 150.23 Q 473.418 149.089, 471.803 149.089 Q 470.985 149.089, 470.296 149.52 Q 469.628 149.95, 469.241 150.704 Q 468.853 151.458, 468.853 152.384 " fill="#000000"/>
<text x="286.21791845768325" y="293.46388437490356" font-size="12" font-family="Verdana" font-weight="bold" letter-spacing="0" text-anchor="start" fill="black" transform=" rotate(75.145127 286.217918 293.463884)">0.0557</text><text x="25" y="490" font-size="12" font-family="Verdana" font-weight="bold" letter-spacing="0" text-anchor="start" fill="black">[#6:1](-[#6:2](-[#7:3](-[#6:4]1:[#6:6](:[#6:8](:[#6:7](:[#6:9](:[#6:10]:1-[H:21])-[H:20])-[#7:22](-[H:24])-[H:28])-[H:19])-[H:18])-[#6:5](-[H:15])(-[H:16])-[H:17])=[#8:11])(-[#7:12](-[#6:23](-[H:25])(-[H:26])-[H:29])-[H:27])(-[H:13])-[H:14]</text></svg>
