<?xml version='1.0' encoding='ASCII' standalone='yes'?>
<svg xmlns="http://www.w3.org/2000/svg" xmlns:rdkit="http://www.rdkit.org/xml" xmlns:xlink="http://www.w3.org/1999/xlink" version="1.1" baseProfile="full" xml:space="preserve" width="500px" height="500px" viewBox="0 0 500 500">
<!-- END OF HEADER -->
<rect style="opacity:1.0;fill:#FFFFFF;stroke:none" width="500" height="500" x="0" y="0"> </rect>
<path d="M 212.053,274.246 L 172.795,230.496" style="fill:none;fill-rule:evenodd;stroke:#FF7F7F;stroke-width:12.5px;stroke-linecap:butt;stroke-linejoin:miter;stroke-opacity:1"/>
<path class="bond-0 atom-0 atom-9" d="M 272.77,252.33 L 284.683,215.879" style="fill:none;fill-rule:evenodd;stroke:#000000;stroke-width:2.0px;stroke-linecap:butt;stroke-linejoin:miter;stroke-opacity:1"/>
<path class="bond-0 atom-0 atom-9" d="M 285.732,250.514 L 294.07,224.999" style="fill:none;fill-rule:evenodd;stroke:#000000;stroke-width:2.0px;stroke-linecap:butt;stroke-linejoin:miter;stroke-opacity:1"/>
<path class="bond-1 atom-0 atom-1" d="M 248.885,266.483 L 222.663,272.01" style="fill:none;fill-rule:evenodd;stroke:#000000;stroke-width:2.0px;stroke-linecap:butt;stroke-linejoin:miter;stroke-opacity:1"/>
<path class="bond-8 atom-5 atom-0" d="M 299.956,295.986 L 278.144,271.678" style="fill:none;fill-rule:evenodd;stroke:#000000;stroke-width:2.0px;stroke-linecap:butt;stroke-linejoin:miter;stroke-opacity:1"/>
<path class="bond-2 atom-1 atom-2" d="M 203.181,264.359 L 192.38,252.322" style="fill:none;fill-rule:evenodd;stroke:#000000;stroke-width:2.0px;stroke-linecap:butt;stroke-linejoin:miter;stroke-opacity:1"/>
<path class="bond-2 atom-1 atom-2" d="M 192.38,252.322 L 181.58,240.286" style="fill:none;fill-rule:evenodd;stroke:#FF0000;stroke-width:2.0px;stroke-linecap:butt;stroke-linejoin:miter;stroke-opacity:1"/>
<path class="bond-3 atom-1 atom-4" d="M 203.365,281.907 L 197.36,300.281" style="fill:none;fill-rule:evenodd;stroke:#000000;stroke-width:2.0px;stroke-linecap:butt;stroke-linejoin:miter;stroke-opacity:1"/>
<path class="bond-3 atom-1 atom-4" d="M 197.36,300.281 L 191.355,318.655" style="fill:none;fill-rule:evenodd;stroke:#FF0000;stroke-width:2.0px;stroke-linecap:butt;stroke-linejoin:miter;stroke-opacity:1"/>
<path class="bond-3 atom-1 atom-4" d="M 214.539,285.559 L 208.535,303.933" style="fill:none;fill-rule:evenodd;stroke:#000000;stroke-width:2.0px;stroke-linecap:butt;stroke-linejoin:miter;stroke-opacity:1"/>
<path class="bond-3 atom-1 atom-4" d="M 208.535,303.933 L 202.53,322.307" style="fill:none;fill-rule:evenodd;stroke:#FF0000;stroke-width:2.0px;stroke-linecap:butt;stroke-linejoin:miter;stroke-opacity:1"/>
<path class="bond-4 atom-2 atom-3" d="M 149.483,235.41 L 137.962,237.838" style="fill:none;fill-rule:evenodd;stroke:#FF0000;stroke-width:2.0px;stroke-linecap:butt;stroke-linejoin:miter;stroke-opacity:1"/>
<path class="bond-4 atom-2 atom-3" d="M 137.962,237.838 L 126.441,240.266" style="fill:none;fill-rule:evenodd;stroke:#000000;stroke-width:2.0px;stroke-linecap:butt;stroke-linejoin:miter;stroke-opacity:1"/>
<path class="bond-5 atom-3 atom-10" d="M 113.234,232.92 L 105.177,194.694" style="fill:none;fill-rule:evenodd;stroke:#000000;stroke-width:2.0px;stroke-linecap:butt;stroke-linejoin:miter;stroke-opacity:1"/>
<path class="bond-6 atom-3 atom-11" d="M 117.362,252.506 L 125.41,290.69" style="fill:none;fill-rule:evenodd;stroke:#000000;stroke-width:2.0px;stroke-linecap:butt;stroke-linejoin:miter;stroke-opacity:1"/>
<path class="bond-7 atom-3 atom-12" d="M 93.625,247.183 L 64.273,253.369" style="fill:none;fill-rule:evenodd;stroke:#000000;stroke-width:2.0px;stroke-linecap:butt;stroke-linejoin:miter;stroke-opacity:1"/>
<path class="bond-9 atom-5 atom-13" d="M 305.727,315.36 L 293.671,352.249" style="fill:none;fill-rule:evenodd;stroke:#000000;stroke-width:2.0px;stroke-linecap:butt;stroke-linejoin:miter;stroke-opacity:1"/>
<path class="bond-11 atom-6 atom-5" d="M 345.52,298.139 L 319.908,303.537" style="fill:none;fill-rule:evenodd;stroke:#000000;stroke-width:2.0px;stroke-linecap:butt;stroke-linejoin:miter;stroke-opacity:1"/>
<path class="bond-11 atom-6 atom-5" d="M 339.254,287.445 L 321.326,291.224" style="fill:none;fill-rule:evenodd;stroke:#000000;stroke-width:2.0px;stroke-linecap:butt;stroke-linejoin:miter;stroke-opacity:1"/>
<path class="bond-10 atom-6 atom-7" d="M 369.514,284.051 L 381.587,247.109" style="fill:none;fill-rule:evenodd;stroke:#000000;stroke-width:2.0px;stroke-linecap:butt;stroke-linejoin:miter;stroke-opacity:1"/>
<path class="bond-12 atom-6 atom-16" d="M 375.216,303.637 L 397.952,328.974" style="fill:none;fill-rule:evenodd;stroke:#000000;stroke-width:2.0px;stroke-linecap:butt;stroke-linejoin:miter;stroke-opacity:1"/>
<path class="bond-13 atom-7 atom-8" d="M 375.733,227.99 L 354.09,203.87" style="fill:none;fill-rule:evenodd;stroke:#000000;stroke-width:2.0px;stroke-linecap:butt;stroke-linejoin:miter;stroke-opacity:1"/>
<path class="bond-13 atom-7 atom-8" d="M 363.736,232.224 L 348.586,215.34" style="fill:none;fill-rule:evenodd;stroke:#000000;stroke-width:2.0px;stroke-linecap:butt;stroke-linejoin:miter;stroke-opacity:1"/>
<path class="bond-14 atom-7 atom-17" d="M 396.247,235.423 L 434.437,227.374" style="fill:none;fill-rule:evenodd;stroke:#000000;stroke-width:2.0px;stroke-linecap:butt;stroke-linejoin:miter;stroke-opacity:1"/>
<path class="bond-15 atom-8 atom-9" d="M 324.027,198.621 L 304.746,202.685" style="fill:none;fill-rule:evenodd;stroke:#000000;stroke-width:2.0px;stroke-linecap:butt;stroke-linejoin:miter;stroke-opacity:1"/>
<path class="bond-16 atom-8 atom-14" d="M 348.578,184.24 L 360.476,147.834" style="fill:none;fill-rule:evenodd;stroke:#000000;stroke-width:2.0px;stroke-linecap:butt;stroke-linejoin:miter;stroke-opacity:1"/>
<path class="bond-17 atom-9 atom-15" d="M 279.042,196.457 L 255.485,170.204" style="fill:none;fill-rule:evenodd;stroke:#000000;stroke-width:2.0px;stroke-linecap:butt;stroke-linejoin:miter;stroke-opacity:1"/>
<path class="atom-0" d="M 250.354 262.193 Q 250.354 258.055, 252.282 255.892 Q 254.234 253.706, 257.925 253.706 Q 261.358 253.706, 263.192 256.127 L 261.64 257.397 Q 260.3 255.634, 257.925 255.634 Q 255.41 255.634, 254.069 257.326 Q 252.753 258.996, 252.753 262.193 Q 252.753 265.485, 254.116 267.178 Q 255.504 268.871, 258.184 268.871 Q 260.018 268.871, 262.158 267.766 L 262.816 269.529 Q 261.946 270.094, 260.629 270.423 Q 259.313 270.752, 257.855 270.752 Q 254.234 270.752, 252.282 268.542 Q 250.354 266.332, 250.354 262.193 " fill="#000000"/>
<path class="atom-0" d="M 264.956 267.789 L 267.307 267.789 L 267.307 270.141 L 264.956 270.141 L 264.956 267.789 M 264.956 259.701 L 267.307 259.701 L 267.307 262.052 L 264.956 262.052 L 264.956 259.701 " fill="#000000"/>
<path class="atom-0" d="M 269.494 268.659 L 273.138 268.659 L 273.138 256.221 L 269.117 257.468 L 268.577 256.08 L 273.679 253.8 L 275.348 254.082 L 275.348 268.659 L 278.616 268.659 L 278.616 270.54 L 269.494 270.54 L 269.494 268.659 " fill="#000000"/>
<path class="atom-1" d="M 192.379 274.316 Q 192.379 270.178, 194.307 268.015 Q 196.258 265.828, 199.95 265.828 Q 203.382 265.828, 205.216 268.25 L 203.665 269.52 Q 202.324 267.757, 199.95 267.757 Q 197.434 267.757, 196.094 269.449 Q 194.777 271.119, 194.777 274.316 Q 194.777 277.608, 196.141 279.301 Q 197.528 280.994, 200.208 280.994 Q 202.042 280.994, 204.182 279.889 L 204.84 281.652 Q 203.97 282.217, 202.654 282.546 Q 201.337 282.875, 199.879 282.875 Q 196.258 282.875, 194.307 280.665 Q 192.379 278.455, 192.379 274.316 " fill="#000000"/>
<path class="atom-1" d="M 206.98 279.912 L 209.331 279.912 L 209.331 282.264 L 206.98 282.264 L 206.98 279.912 M 206.98 271.824 L 209.331 271.824 L 209.331 274.175 L 206.98 274.175 L 206.98 271.824 " fill="#000000"/>
<path class="atom-1" d="M 210.554 269.167 Q 211.165 267.592, 212.623 266.722 Q 214.081 265.828, 216.103 265.828 Q 218.619 265.828, 220.029 267.192 Q 221.44 268.556, 221.44 270.978 Q 221.44 273.446, 219.606 275.751 Q 217.796 278.055, 214.034 280.782 L 221.722 280.782 L 221.722 282.663 L 210.507 282.663 L 210.507 281.088 Q 213.61 278.878, 215.444 277.232 Q 217.302 275.586, 218.195 274.105 Q 219.089 272.624, 219.089 271.095 Q 219.089 269.496, 218.289 268.603 Q 217.49 267.709, 216.103 267.709 Q 214.762 267.709, 213.869 268.25 Q 212.976 268.791, 212.341 269.99 L 210.554 269.167 " fill="#000000"/>
<path class="atom-2" d="M 150.952 230.543 Q 150.952 226.546, 152.927 224.312 Q 154.902 222.079, 158.594 222.079 Q 162.285 222.079, 164.26 224.312 Q 166.235 226.546, 166.235 230.543 Q 166.235 234.587, 164.237 236.891 Q 162.238 239.172, 158.594 239.172 Q 154.926 239.172, 152.927 236.891 Q 150.952 234.611, 150.952 230.543 M 158.594 237.291 Q 161.133 237.291, 162.497 235.598 Q 163.884 233.882, 163.884 230.543 Q 163.884 227.275, 162.497 225.629 Q 161.133 223.96, 158.594 223.96 Q 156.054 223.96, 154.667 225.605 Q 153.303 227.251, 153.303 230.543 Q 153.303 233.905, 154.667 235.598 Q 156.054 237.291, 158.594 237.291 " fill="#FF0000"/>
<path class="atom-2" d="M 167.999 236.162 L 170.35 236.162 L 170.35 238.514 L 167.999 238.514 L 167.999 236.162 M 167.999 228.074 L 170.35 228.074 L 170.35 230.425 L 167.999 230.425 L 167.999 228.074 " fill="#FF0000"/>
<path class="atom-2" d="M 179.332 230.143 Q 180.954 230.614, 181.73 231.672 Q 182.529 232.706, 182.529 234.352 Q 182.529 235.763, 181.824 236.868 Q 181.119 237.949, 179.825 238.561 Q 178.532 239.149, 176.839 239.149 Q 175.052 239.149, 173.712 238.537 Q 172.396 237.902, 171.337 236.633 L 172.678 235.269 Q 173.712 236.398, 174.582 236.844 Q 175.452 237.268, 176.839 237.268 Q 178.344 237.268, 179.261 236.468 Q 180.178 235.645, 180.178 234.329 Q 180.178 232.636, 179.214 231.883 Q 178.274 231.107, 176.228 231.107 L 175.029 231.107 L 175.029 229.414 L 176.087 229.414 Q 177.897 229.391, 178.861 228.615 Q 179.825 227.816, 179.825 226.334 Q 179.825 225.253, 179.026 224.618 Q 178.227 223.96, 176.863 223.96 Q 175.476 223.96, 174.606 224.453 Q 173.759 224.947, 173.101 226.193 L 171.479 225.323 Q 172.066 223.936, 173.477 223.019 Q 174.888 222.079, 176.863 222.079 Q 179.308 222.079, 180.742 223.231 Q 182.177 224.383, 182.177 226.334 Q 182.177 227.675, 181.448 228.639 Q 180.719 229.603, 179.332 230.143 " fill="#FF0000"/>
<path class="atom-3" d="M 95.0946 242.689 Q 95.0946 238.551, 97.0226 236.388 Q 98.9741 234.202, 102.666 234.202 Q 106.098 234.202, 107.932 236.623 L 106.381 237.893 Q 105.04 236.13, 102.666 236.13 Q 100.15 236.13, 98.8095 237.822 Q 97.4928 239.492, 97.4928 242.689 Q 97.4928 245.981, 98.8565 247.674 Q 100.244 249.367, 102.924 249.367 Q 104.758 249.367, 106.898 248.262 L 107.556 250.025 Q 106.686 250.59, 105.369 250.919 Q 104.053 251.248, 102.595 251.248 Q 98.9741 251.248, 97.0226 249.038 Q 95.0946 246.828, 95.0946 242.689 " fill="#000000"/>
<path class="atom-3" d="M 109.696 248.285 L 112.047 248.285 L 112.047 250.637 L 109.696 250.637 L 109.696 248.285 M 109.696 240.197 L 112.047 240.197 L 112.047 242.548 L 109.696 242.548 L 109.696 240.197 " fill="#000000"/>
<path class="atom-3" d="M 123.568 245.323 L 125.567 245.323 L 125.567 247.204 L 123.568 247.204 L 123.568 251.036 L 121.358 251.036 L 121.358 247.204 L 112.752 247.204 L 112.752 245.723 L 120.041 234.39 L 123.568 234.39 L 123.568 245.323 M 115.48 245.323 L 121.358 245.323 L 121.358 235.894 L 115.48 245.323 " fill="#000000"/>
<path class="atom-4" d="M 186.151 330.166 Q 186.151 326.169, 188.126 323.935 Q 190.101 321.701, 193.793 321.701 Q 197.484 321.701, 199.459 323.935 Q 201.434 326.169, 201.434 330.166 Q 201.434 334.21, 199.436 336.514 Q 197.437 338.795, 193.793 338.795 Q 190.125 338.795, 188.126 336.514 Q 186.151 334.233, 186.151 330.166 M 193.793 336.914 Q 196.332 336.914, 197.696 335.221 Q 199.083 333.505, 199.083 330.166 Q 199.083 326.898, 197.696 325.252 Q 196.332 323.582, 193.793 323.582 Q 191.253 323.582, 189.866 325.228 Q 188.503 326.874, 188.503 330.166 Q 188.503 333.528, 189.866 335.221 Q 191.253 336.914, 193.793 336.914 " fill="#FF0000"/>
<path class="atom-4" d="M 203.198 335.785 L 205.549 335.785 L 205.549 338.137 L 203.198 338.137 L 203.198 335.785 M 203.198 327.697 L 205.549 327.697 L 205.549 330.048 L 203.198 330.048 L 203.198 327.697 " fill="#FF0000"/>
<path class="atom-4" d="M 212.673 328.12 Q 214.131 328.12, 215.33 328.755 Q 216.529 329.366, 217.211 330.542 Q 217.893 331.694, 217.893 333.269 Q 217.893 334.986, 217.047 336.232 Q 216.224 337.455, 214.86 338.09 Q 213.496 338.724, 211.944 338.724 Q 210.416 338.724, 209.005 338.16 Q 207.595 337.596, 206.631 336.514 L 208.041 335.056 Q 208.817 335.903, 209.875 336.373 Q 210.933 336.82, 212.015 336.82 Q 213.496 336.82, 214.507 335.903 Q 215.542 334.986, 215.542 333.316 Q 215.542 331.553, 214.507 330.73 Q 213.496 329.884, 211.874 329.884 Q 210.416 329.884, 208.794 330.519 L 207.501 329.907 L 208.3 321.889 L 216.858 321.889 L 216.623 323.77 L 210.228 323.77 L 209.734 328.708 Q 211.216 328.12, 212.673 328.12 " fill="#FF0000"/>
<path class="atom-5" d="M 288.875 305.943 Q 288.875 301.805, 290.803 299.642 Q 292.755 297.455, 296.446 297.455 Q 299.879 297.455, 301.713 299.877 L 300.161 301.147 Q 298.821 299.383, 296.446 299.383 Q 293.93 299.383, 292.59 301.076 Q 291.273 302.746, 291.273 305.943 Q 291.273 309.235, 292.637 310.928 Q 294.024 312.621, 296.705 312.621 Q 298.539 312.621, 300.678 311.516 L 301.337 313.279 Q 300.467 313.844, 299.15 314.173 Q 297.833 314.502, 296.376 314.502 Q 292.755 314.502, 290.803 312.292 Q 288.875 310.082, 288.875 305.943 " fill="#000000"/>
<path class="atom-5" d="M 303.476 311.539 L 305.828 311.539 L 305.828 313.891 L 303.476 313.891 L 303.476 311.539 M 303.476 303.451 L 305.828 303.451 L 305.828 305.802 L 303.476 305.802 L 303.476 303.451 " fill="#000000"/>
<path class="atom-5" d="M 313.939 303.898 Q 315.397 303.898, 316.549 304.533 Q 317.701 305.168, 318.336 306.32 Q 318.971 307.472, 318.971 308.929 Q 318.971 310.552, 318.242 311.822 Q 317.537 313.068, 316.267 313.773 Q 314.997 314.478, 313.375 314.478 Q 310.412 314.478, 308.908 312.48 Q 307.426 310.458, 307.426 306.461 Q 307.426 302.04, 309.26 299.76 Q 311.118 297.455, 314.668 297.455 Q 315.703 297.455, 316.573 297.691 Q 317.466 297.926, 318.313 298.419 L 317.396 299.995 Q 316.173 299.336, 314.692 299.336 Q 312.34 299.336, 311.141 300.865 Q 309.942 302.37, 309.801 305.497 Q 310.648 304.721, 311.706 304.321 Q 312.787 303.898, 313.939 303.898 M 313.399 312.55 Q 314.292 312.55, 315.021 312.08 Q 315.773 311.61, 316.197 310.787 Q 316.62 309.964, 316.62 308.953 Q 316.62 307.472, 315.797 306.625 Q 314.974 305.779, 313.516 305.779 Q 312.505 305.779, 311.494 306.202 Q 310.507 306.602, 309.801 307.307 Q 309.895 310.058, 310.765 311.304 Q 311.635 312.55, 313.399 312.55 " fill="#000000"/>
<path class="atom-6" d="M 346.99 293.82 Q 346.99 289.682, 348.918 287.519 Q 350.87 285.332, 354.561 285.332 Q 357.994 285.332, 359.828 287.754 L 358.276 289.024 Q 356.936 287.261, 354.561 287.261 Q 352.045 287.261, 350.705 288.953 Q 349.388 290.623, 349.388 293.82 Q 349.388 297.112, 350.752 298.805 Q 352.139 300.498, 354.82 300.498 Q 356.654 300.498, 358.793 299.393 L 359.452 301.156 Q 358.582 301.721, 357.265 302.05 Q 355.948 302.379, 354.49 302.379 Q 350.87 302.379, 348.918 300.169 Q 346.99 297.959, 346.99 293.82 " fill="#000000"/>
<path class="atom-6" d="M 361.591 299.416 L 363.942 299.416 L 363.942 301.768 L 361.591 301.768 L 361.591 299.416 M 361.591 291.328 L 363.942 291.328 L 363.942 293.679 L 361.591 293.679 L 361.591 291.328 " fill="#000000"/>
<path class="atom-6" d="M 373.089 287.402 L 364.366 287.402 L 364.366 285.521 L 375.416 285.521 L 375.416 287.19 L 368.692 302.167 L 366.435 302.167 L 373.089 287.402 " fill="#000000"/>
<path class="atom-7" d="M 364.611 237.948 Q 364.611 233.809, 366.539 231.646 Q 368.491 229.46, 372.182 229.46 Q 375.615 229.46, 377.449 231.881 L 375.897 233.151 Q 374.557 231.388, 372.182 231.388 Q 369.666 231.388, 368.326 233.081 Q 367.009 234.75, 367.009 237.948 Q 367.009 241.239, 368.373 242.932 Q 369.76 244.625, 372.441 244.625 Q 374.275 244.625, 376.414 243.52 L 377.073 245.283 Q 376.203 245.848, 374.886 246.177 Q 373.569 246.506, 372.112 246.506 Q 368.491 246.506, 366.539 244.296 Q 364.611 242.086, 364.611 237.948 " fill="#000000"/>
<path class="atom-7" d="M 379.212 243.544 L 381.564 243.544 L 381.564 245.895 L 379.212 245.895 L 379.212 243.544 M 379.212 235.455 L 381.564 235.455 L 381.564 237.807 L 379.212 237.807 L 379.212 235.455 " fill="#000000"/>
<path class="atom-7" d="M 391.509 237.477 Q 393.038 238.136, 393.908 239.123 Q 394.777 240.087, 394.777 241.733 Q 394.777 243.144, 394.049 244.249 Q 393.32 245.33, 392.003 245.942 Q 390.71 246.53, 388.993 246.53 Q 386.219 246.53, 384.62 245.26 Q 383.021 243.967, 383.021 241.733 Q 383.021 240.369, 383.727 239.358 Q 384.432 238.324, 385.89 237.548 Q 384.808 236.937, 384.22 236.043 Q 383.633 235.126, 383.633 233.715 Q 383.633 231.764, 385.043 230.612 Q 386.478 229.46, 388.899 229.46 Q 391.321 229.46, 392.732 230.612 Q 394.166 231.764, 394.166 233.715 Q 394.166 234.938, 393.484 235.855 Q 392.826 236.748, 391.509 237.477 M 388.899 231.223 Q 387.512 231.223, 386.736 231.881 Q 385.984 232.54, 385.984 233.715 Q 385.984 234.585, 386.501 235.173 Q 387.018 235.737, 387.747 236.067 Q 388.5 236.396, 389.934 236.89 Q 390.945 236.184, 391.368 235.432 Q 391.815 234.679, 391.815 233.715 Q 391.815 232.54, 391.039 231.881 Q 390.287 231.223, 388.899 231.223 M 388.993 244.766 Q 390.545 244.766, 391.486 243.943 Q 392.426 243.097, 392.426 241.71 Q 392.426 240.816, 391.932 240.252 Q 391.439 239.687, 390.686 239.358 Q 389.957 239.029, 388.641 238.606 L 387.583 238.253 Q 386.407 238.959, 385.89 239.805 Q 385.373 240.628, 385.373 241.71 Q 385.373 243.097, 386.36 243.943 Q 387.348 244.766, 388.993 244.766 " fill="#000000"/>
<path class="atom-8" d="M 325.497 194.198 Q 325.497 190.059, 327.425 187.896 Q 329.376 185.71, 333.068 185.71 Q 336.5 185.71, 338.334 188.131 L 336.783 189.401 Q 335.442 187.638, 333.068 187.638 Q 330.552 187.638, 329.212 189.331 Q 327.895 191, 327.895 194.198 Q 327.895 197.489, 329.259 199.182 Q 330.646 200.875, 333.326 200.875 Q 335.16 200.875, 337.3 199.77 L 337.958 201.534 Q 337.088 202.098, 335.772 202.427 Q 334.455 202.756, 332.997 202.756 Q 329.376 202.756, 327.425 200.546 Q 325.497 198.336, 325.497 194.198 " fill="#000000"/>
<path class="atom-8" d="M 340.098 199.794 L 342.449 199.794 L 342.449 202.145 L 340.098 202.145 L 340.098 199.794 M 340.098 191.705 L 342.449 191.705 L 342.449 194.057 L 340.098 194.057 L 340.098 191.705 " fill="#000000"/>
<path class="atom-8" d="M 349.338 185.71 Q 352.301 185.71, 353.782 187.732 Q 355.287 189.73, 355.287 193.727 Q 355.287 198.148, 353.429 200.452 Q 351.595 202.733, 348.045 202.733 Q 347.011 202.733, 346.117 202.498 Q 345.247 202.262, 344.401 201.769 L 345.318 200.193 Q 346.54 200.852, 348.022 200.852 Q 350.373 200.852, 351.572 199.347 Q 352.771 197.819, 352.912 194.691 Q 352.066 195.467, 350.984 195.891 Q 349.926 196.29, 348.774 196.29 Q 347.316 196.29, 346.164 195.655 Q 345.012 195.021, 344.377 193.868 Q 343.742 192.716, 343.742 191.259 Q 343.742 189.636, 344.448 188.39 Q 345.177 187.12, 346.446 186.415 Q 347.716 185.71, 349.338 185.71 M 346.094 191.235 Q 346.094 192.716, 346.916 193.563 Q 347.739 194.409, 349.197 194.409 Q 350.208 194.409, 351.196 194.01 Q 352.207 193.586, 352.912 192.881 Q 352.818 190.13, 351.948 188.884 Q 351.078 187.638, 349.315 187.638 Q 348.421 187.638, 347.669 188.108 Q 346.94 188.578, 346.517 189.401 Q 346.094 190.224, 346.094 191.235 " fill="#000000"/>
<path class="atom-9" d="M 261.946 206.321 Q 261.946 202.182, 263.874 200.019 Q 265.825 197.833, 269.517 197.833 Q 272.949 197.833, 274.783 200.254 L 273.232 201.524 Q 271.891 199.761, 269.517 199.761 Q 267.001 199.761, 265.661 201.454 Q 264.344 203.123, 264.344 206.321 Q 264.344 209.612, 265.708 211.305 Q 267.095 212.998, 269.775 212.998 Q 271.609 212.998, 273.749 211.893 L 274.407 213.656 Q 273.537 214.221, 272.22 214.55 Q 270.904 214.879, 269.446 214.879 Q 265.825 214.879, 263.874 212.669 Q 261.946 210.459, 261.946 206.321 " fill="#000000"/>
<path class="atom-9" d="M 276.547 211.917 L 278.898 211.917 L 278.898 214.268 L 276.547 214.268 L 276.547 211.917 M 276.547 203.828 L 278.898 203.828 L 278.898 206.18 L 276.547 206.18 L 276.547 203.828 " fill="#000000"/>
<path class="atom-9" d="M 281.085 212.787 L 284.729 212.787 L 284.729 200.348 L 280.708 201.595 L 280.168 200.207 L 285.27 197.927 L 286.939 198.209 L 286.939 212.787 L 290.207 212.787 L 290.207 214.668 L 281.085 214.668 L 281.085 212.787 " fill="#000000"/>
<path class="atom-9" d="M 297.731 214.856 Q 294.675 214.856, 293.147 212.598 Q 291.642 210.341, 291.642 206.321 Q 291.642 202.3, 293.147 200.066 Q 294.651 197.833, 297.731 197.833 Q 300.812 197.833, 302.316 200.066 Q 303.821 202.3, 303.821 206.321 Q 303.821 210.341, 302.293 212.598 Q 300.788 214.856, 297.731 214.856 M 297.731 212.975 Q 299.542 212.975, 300.506 211.305 Q 301.47 209.612, 301.47 206.321 Q 301.47 203.052, 300.506 201.383 Q 299.542 199.714, 297.731 199.714 Q 295.944 199.714, 294.957 201.383 Q 293.993 203.052, 293.993 206.321 Q 293.993 209.612, 294.957 211.305 Q 295.944 212.975, 297.731 212.975 " fill="#000000"/>
<path class="atom-10" d="M 96.6421 176.825 L 98.8993 176.825 L 98.8993 183.903 L 107.411 183.903 L 107.411 176.825 L 109.668 176.825 L 109.668 193.472 L 107.411 193.472 L 107.411 185.784 L 98.8993 185.784 L 98.8993 193.472 L 96.6421 193.472 L 96.6421 176.825 " fill="#000000"/>
<path class="atom-10" d="M 111.431 190.721 L 113.783 190.721 L 113.783 193.072 L 111.431 193.072 L 111.431 190.721 M 111.431 182.633 L 113.783 182.633 L 113.783 184.984 L 111.431 184.984 L 111.431 182.633 " fill="#000000"/>
<path class="atom-10" d="M 115.969 191.591 L 119.614 191.591 L 119.614 179.153 L 115.593 180.399 L 115.052 179.012 L 120.154 176.731 L 121.824 177.013 L 121.824 191.591 L 125.092 191.591 L 125.092 193.472 L 115.969 193.472 L 115.969 191.591 " fill="#000000"/>
<path class="atom-10" d="M 127.279 191.591 L 130.923 191.591 L 130.923 179.153 L 126.903 180.399 L 126.362 179.012 L 131.464 176.731 L 133.133 177.013 L 133.133 191.591 L 136.402 191.591 L 136.402 193.472 L 127.279 193.472 L 127.279 191.591 " fill="#000000"/>
<path class="atom-11" d="M 120.888 291.907 L 123.145 291.907 L 123.145 298.984 L 131.657 298.984 L 131.657 291.907 L 133.914 291.907 L 133.914 308.554 L 131.657 308.554 L 131.657 300.865 L 123.145 300.865 L 123.145 308.554 L 120.888 308.554 L 120.888 291.907 " fill="#000000"/>
<path class="atom-11" d="M 135.677 305.803 L 138.029 305.803 L 138.029 308.154 L 135.677 308.154 L 135.677 305.803 M 135.677 297.714 L 138.029 297.714 L 138.029 300.066 L 135.677 300.066 L 135.677 297.714 " fill="#000000"/>
<path class="atom-11" d="M 140.215 306.673 L 143.86 306.673 L 143.86 294.235 L 139.839 295.481 L 139.298 294.094 L 144.4 291.813 L 146.07 292.095 L 146.07 306.673 L 149.338 306.673 L 149.338 308.554 L 140.215 308.554 L 140.215 306.673 " fill="#000000"/>
<path class="atom-11" d="M 150.561 295.058 Q 151.172 293.482, 152.63 292.612 Q 154.088 291.719, 156.11 291.719 Q 158.625 291.719, 160.036 293.082 Q 161.447 294.446, 161.447 296.868 Q 161.447 299.337, 159.613 301.641 Q 157.802 303.945, 154.04 306.673 L 161.729 306.673 L 161.729 308.554 L 150.514 308.554 L 150.514 306.978 Q 153.617 304.768, 155.451 303.122 Q 157.309 301.476, 158.202 299.995 Q 159.096 298.514, 159.096 296.986 Q 159.096 295.387, 158.296 294.493 Q 157.497 293.6, 156.11 293.6 Q 154.769 293.6, 153.876 294.141 Q 152.982 294.681, 152.348 295.88 L 150.561 295.058 " fill="#000000"/>
<path class="atom-12" d="M 22.7273 246.513 L 24.9845 246.513 L 24.9845 253.59 L 33.4959 253.59 L 33.4959 246.513 L 35.7531 246.513 L 35.7531 263.159 L 33.4959 263.159 L 33.4959 255.471 L 24.9845 255.471 L 24.9845 263.159 L 22.7273 263.159 L 22.7273 246.513 " fill="#000000"/>
<path class="atom-12" d="M 37.5166 260.408 L 39.8678 260.408 L 39.8678 262.76 L 37.5166 262.76 L 37.5166 260.408 M 37.5166 252.32 L 39.8678 252.32 L 39.8678 254.671 L 37.5166 254.671 L 37.5166 252.32 " fill="#000000"/>
<path class="atom-12" d="M 42.0545 261.278 L 45.6989 261.278 L 45.6989 248.84 L 41.6783 250.086 L 41.1375 248.699 L 46.2397 246.419 L 47.909 246.701 L 47.909 261.278 L 51.1773 261.278 L 51.1773 263.159 L 42.0545 263.159 L 42.0545 261.278 " fill="#000000"/>
<path class="atom-12" d="M 60.159 254.389 Q 61.7813 254.859, 62.5573 255.918 Q 63.3567 256.952, 63.3567 258.598 Q 63.3567 260.009, 62.6513 261.114 Q 61.9459 262.195, 60.6527 262.807 Q 59.3596 263.394, 57.6667 263.394 Q 55.8797 263.394, 54.5395 262.783 Q 53.2228 262.148, 52.1648 260.879 L 53.505 259.515 Q 54.5395 260.644, 55.4095 261.09 Q 56.2794 261.513, 57.6667 261.513 Q 59.1715 261.513, 60.0885 260.714 Q 61.0054 259.891, 61.0054 258.574 Q 61.0054 256.882, 60.0414 256.129 Q 59.1009 255.353, 57.0554 255.353 L 55.8562 255.353 L 55.8562 253.66 L 56.9143 253.66 Q 58.7247 253.637, 59.6887 252.861 Q 60.6527 252.062, 60.6527 250.58 Q 60.6527 249.499, 59.8533 248.864 Q 59.0539 248.205, 57.6902 248.205 Q 56.303 248.205, 55.433 248.699 Q 54.5866 249.193, 53.9282 250.439 L 52.3059 249.569 Q 52.8937 248.182, 54.3044 247.265 Q 55.7151 246.324, 57.6902 246.324 Q 60.1355 246.324, 61.5697 247.477 Q 63.004 248.629, 63.004 250.58 Q 63.004 251.92, 62.2751 252.884 Q 61.5462 253.848, 60.159 254.389 " fill="#000000"/>
<path class="atom-13" d="M 284.055 353.469 L 286.312 353.469 L 286.312 360.547 L 294.823 360.547 L 294.823 353.469 L 297.08 353.469 L 297.08 370.116 L 294.823 370.116 L 294.823 362.428 L 286.312 362.428 L 286.312 370.116 L 284.055 370.116 L 284.055 353.469 " fill="#000000"/>
<path class="atom-13" d="M 298.844 367.365 L 301.195 367.365 L 301.195 369.716 L 298.844 369.716 L 298.844 367.365 M 298.844 359.277 L 301.195 359.277 L 301.195 361.628 L 298.844 361.628 L 298.844 359.277 " fill="#000000"/>
<path class="atom-13" d="M 303.382 368.235 L 307.026 368.235 L 307.026 355.797 L 303.006 357.043 L 302.465 355.656 L 307.567 353.375 L 309.236 353.658 L 309.236 368.235 L 312.505 368.235 L 312.505 370.116 L 303.382 370.116 L 303.382 368.235 " fill="#000000"/>
<path class="atom-13" d="M 324.026 364.403 L 326.024 364.403 L 326.024 366.284 L 324.026 366.284 L 324.026 370.116 L 321.815 370.116 L 321.815 366.284 L 313.21 366.284 L 313.21 364.802 L 320.499 353.469 L 324.026 353.469 L 324.026 364.403 M 315.937 364.403 L 321.815 364.403 L 321.815 354.974 L 315.937 364.403 " fill="#000000"/>
<path class="atom-14" d="M 357.094 129.978 L 359.351 129.978 L 359.351 137.055 L 367.863 137.055 L 367.863 129.978 L 370.12 129.978 L 370.12 146.625 L 367.863 146.625 L 367.863 138.936 L 359.351 138.936 L 359.351 146.625 L 357.094 146.625 L 357.094 129.978 " fill="#000000"/>
<path class="atom-14" d="M 371.883 143.874 L 374.234 143.874 L 374.234 146.225 L 371.883 146.225 L 371.883 143.874 M 371.883 135.785 L 374.234 135.785 L 374.234 138.137 L 371.883 138.137 L 371.883 135.785 " fill="#000000"/>
<path class="atom-14" d="M 376.421 144.744 L 380.066 144.744 L 380.066 132.306 L 376.045 133.552 L 375.504 132.165 L 380.606 129.884 L 382.276 130.166 L 382.276 144.744 L 385.544 144.744 L 385.544 146.625 L 376.421 146.625 L 376.421 144.744 " fill="#000000"/>
<path class="atom-14" d="M 392.668 136.209 Q 394.126 136.209, 395.325 136.843 Q 396.524 137.455, 397.206 138.63 Q 397.888 139.783, 397.888 141.358 Q 397.888 143.074, 397.041 144.32 Q 396.219 145.543, 394.855 146.178 Q 393.491 146.813, 391.939 146.813 Q 390.411 146.813, 389 146.248 Q 387.59 145.684, 386.625 144.603 L 388.036 143.145 Q 388.812 143.991, 389.87 144.461 Q 390.928 144.908, 392.01 144.908 Q 393.491 144.908, 394.502 143.991 Q 395.537 143.074, 395.537 141.405 Q 395.537 139.641, 394.502 138.819 Q 393.491 137.972, 391.869 137.972 Q 390.411 137.972, 388.789 138.607 L 387.495 137.996 L 388.295 129.978 L 396.853 129.978 L 396.618 131.859 L 390.223 131.859 L 389.729 136.796 Q 391.21 136.209, 392.668 136.209 " fill="#000000"/>
<path class="atom-15" d="M 212.751 154.271 L 215.008 154.271 L 215.008 161.348 L 223.52 161.348 L 223.52 154.271 L 225.777 154.271 L 225.777 170.918 L 223.52 170.918 L 223.52 163.229 L 215.008 163.229 L 215.008 170.918 L 212.751 170.918 L 212.751 154.271 " fill="#000000"/>
<path class="atom-15" d="M 227.541 168.167 L 229.892 168.167 L 229.892 170.518 L 227.541 170.518 L 227.541 168.167 M 227.541 160.078 L 229.892 160.078 L 229.892 162.43 L 227.541 162.43 L 227.541 160.078 " fill="#000000"/>
<path class="atom-15" d="M 232.078 169.037 L 235.723 169.037 L 235.723 156.599 L 231.702 157.845 L 231.161 156.457 L 236.264 154.177 L 237.933 154.459 L 237.933 169.037 L 241.201 169.037 L 241.201 170.918 L 232.078 170.918 L 232.078 169.037 " fill="#000000"/>
<path class="atom-15" d="M 249.313 160.525 Q 250.771 160.525, 251.923 161.16 Q 253.075 161.795, 253.71 162.947 Q 254.345 164.099, 254.345 165.557 Q 254.345 167.179, 253.616 168.449 Q 252.91 169.695, 251.641 170.4 Q 250.371 171.106, 248.749 171.106 Q 245.786 171.106, 244.281 169.107 Q 242.8 167.085, 242.8 163.088 Q 242.8 158.668, 244.634 156.387 Q 246.492 154.083, 250.042 154.083 Q 251.076 154.083, 251.946 154.318 Q 252.84 154.553, 253.686 155.047 L 252.769 156.622 Q 251.547 155.964, 250.065 155.964 Q 247.714 155.964, 246.515 157.492 Q 245.316 158.997, 245.175 162.124 Q 246.021 161.348, 247.079 160.948 Q 248.161 160.525, 249.313 160.525 M 248.772 169.178 Q 249.666 169.178, 250.395 168.707 Q 251.147 168.237, 251.57 167.414 Q 251.993 166.591, 251.993 165.58 Q 251.993 164.099, 251.17 163.253 Q 250.348 162.406, 248.89 162.406 Q 247.879 162.406, 246.868 162.829 Q 245.88 163.229, 245.175 163.934 Q 245.269 166.685, 246.139 167.932 Q 247.009 169.178, 248.772 169.178 " fill="#000000"/>
<path class="atom-16" d="M 399.089 329.223 L 401.346 329.223 L 401.346 336.301 L 409.858 336.301 L 409.858 329.223 L 412.115 329.223 L 412.115 345.87 L 409.858 345.87 L 409.858 338.182 L 401.346 338.182 L 401.346 345.87 L 399.089 345.87 L 399.089 329.223 " fill="#000000"/>
<path class="atom-16" d="M 413.878 343.119 L 416.23 343.119 L 416.23 345.471 L 413.878 345.471 L 413.878 343.119 M 413.878 335.031 L 416.23 335.031 L 416.23 337.382 L 413.878 337.382 L 413.878 335.031 " fill="#000000"/>
<path class="atom-16" d="M 418.416 343.989 L 422.061 343.989 L 422.061 331.551 L 418.04 332.797 L 417.499 331.41 L 422.601 329.129 L 424.271 329.412 L 424.271 343.989 L 427.539 343.989 L 427.539 345.87 L 418.416 345.87 L 418.416 343.989 " fill="#000000"/>
<path class="atom-16" d="M 436.685 331.104 L 427.962 331.104 L 427.962 329.223 L 439.013 329.223 L 439.013 330.893 L 432.289 345.87 L 430.031 345.87 L 436.685 331.104 " fill="#000000"/>
<path class="atom-17" d="M 435.609 217.525 L 437.866 217.525 L 437.866 224.602 L 446.377 224.602 L 446.377 217.525 L 448.635 217.525 L 448.635 234.172 L 446.377 234.172 L 446.377 226.483 L 437.866 226.483 L 437.866 234.172 L 435.609 234.172 L 435.609 217.525 " fill="#000000"/>
<path class="atom-17" d="M 450.398 231.421 L 452.749 231.421 L 452.749 233.772 L 450.398 233.772 L 450.398 231.421 M 450.398 223.332 L 452.749 223.332 L 452.749 225.684 L 450.398 225.684 L 450.398 223.332 " fill="#000000"/>
<path class="atom-17" d="M 454.936 232.291 L 458.58 232.291 L 458.58 219.852 L 454.56 221.099 L 454.019 219.711 L 459.121 217.431 L 460.791 217.713 L 460.791 232.291 L 464.059 232.291 L 464.059 234.172 L 454.936 234.172 L 454.936 232.291 " fill="#000000"/>
<path class="atom-17" d="M 474.005 225.354 Q 475.533 226.013, 476.403 227 Q 477.273 227.964, 477.273 229.61 Q 477.273 231.021, 476.544 232.126 Q 475.815 233.208, 474.498 233.819 Q 473.205 234.407, 471.489 234.407 Q 468.714 234.407, 467.115 233.137 Q 465.517 231.844, 465.517 229.61 Q 465.517 228.246, 466.222 227.235 Q 466.927 226.201, 468.385 225.425 Q 467.303 224.814, 466.716 223.92 Q 466.128 223.003, 466.128 221.592 Q 466.128 219.641, 467.539 218.489 Q 468.973 217.337, 471.395 217.337 Q 473.816 217.337, 475.227 218.489 Q 476.661 219.641, 476.661 221.592 Q 476.661 222.815, 475.98 223.732 Q 475.321 224.625, 474.005 225.354 M 471.395 219.1 Q 470.007 219.1, 469.231 219.758 Q 468.479 220.417, 468.479 221.592 Q 468.479 222.462, 468.996 223.05 Q 469.514 223.614, 470.243 223.944 Q 470.995 224.273, 472.429 224.767 Q 473.44 224.061, 473.863 223.309 Q 474.31 222.556, 474.31 221.592 Q 474.31 220.417, 473.534 219.758 Q 472.782 219.1, 471.395 219.1 M 471.489 232.643 Q 473.04 232.643, 473.981 231.82 Q 474.921 230.974, 474.921 229.587 Q 474.921 228.693, 474.428 228.129 Q 473.934 227.565, 473.182 227.235 Q 472.453 226.906, 471.136 226.483 L 470.078 226.13 Q 468.902 226.836, 468.385 227.682 Q 467.868 228.505, 467.868 229.587 Q 467.868 230.974, 468.855 231.82 Q 469.843 232.643, 471.489 232.643 " fill="#000000"/>
<text x="192.423958288994" y="252.37095598054785" font-size="12" font-family="Verdana" font-weight="bold" letter-spacing="0" text-anchor="start" fill="black" transform=" rotate(-41.902072 192.423958 252.370956)">0.0307</text><text x="25" y="490" font-size="12" font-family="Verdana" font-weight="bold" letter-spacing="0" text-anchor="start" fill="black">[#6:1]1(-[#6:2](-[#8:3]-[#6:4](-[H:11])(-[H:12])-[H:13])=[#8:5]):[#6:6](:[#6:7](:[#6:8](:[#6:9](:[#6:10]:1-[H:16])-[H:15])-[H:18])-[H:17])-[H:14]</text></svg>
