<?xml version='1.0' encoding='ASCII' standalone='yes'?>
<svg xmlns="http://www.w3.org/2000/svg" xmlns:rdkit="http://www.rdkit.org/xml" xmlns:xlink="http://www.w3.org/1999/xlink" version="1.1" baseProfile="full" xml:space="preserve" width="500px" height="500px" viewBox="0 0 500 500">
<!-- END OF HEADER -->
<rect style="opacity:1.0;fill:#FFFFFF;stroke:none" width="500" height="500" x="0" y="0"> </rect>
<path d="M 212.511,274.204 L 269.929,262.102" style="fill:none;fill-rule:evenodd;stroke:#FF7F7F;stroke-width:12.5px;stroke-linecap:butt;stroke-linejoin:miter;stroke-opacity:1"/>
<path class="bond-0 atom-0 atom-10" d="M 150.435,235.354 L 140.864,237.371" style="fill:none;fill-rule:evenodd;stroke:#FF0000;stroke-width:2.0px;stroke-linecap:butt;stroke-linejoin:miter;stroke-opacity:1"/>
<path class="bond-0 atom-0 atom-10" d="M 140.864,237.371 L 131.292,239.388" style="fill:none;fill-rule:evenodd;stroke:#000000;stroke-width:2.0px;stroke-linecap:butt;stroke-linejoin:miter;stroke-opacity:1"/>
<path class="bond-1 atom-1 atom-0" d="M 203.655,264.334 L 192.768,252.201" style="fill:none;fill-rule:evenodd;stroke:#000000;stroke-width:2.0px;stroke-linecap:butt;stroke-linejoin:miter;stroke-opacity:1"/>
<path class="bond-1 atom-1 atom-0" d="M 192.768,252.201 L 181.881,240.068" style="fill:none;fill-rule:evenodd;stroke:#FF0000;stroke-width:2.0px;stroke-linecap:butt;stroke-linejoin:miter;stroke-opacity:1"/>
<path class="bond-2 atom-1 atom-9" d="M 203.839,281.852 L 197.844,300.194" style="fill:none;fill-rule:evenodd;stroke:#000000;stroke-width:2.0px;stroke-linecap:butt;stroke-linejoin:miter;stroke-opacity:1"/>
<path class="bond-2 atom-1 atom-9" d="M 197.844,300.194 L 191.85,318.537" style="fill:none;fill-rule:evenodd;stroke:#FF0000;stroke-width:2.0px;stroke-linecap:butt;stroke-linejoin:miter;stroke-opacity:1"/>
<path class="bond-2 atom-1 atom-9" d="M 214.994,285.498 L 208.999,303.84" style="fill:none;fill-rule:evenodd;stroke:#000000;stroke-width:2.0px;stroke-linecap:butt;stroke-linejoin:miter;stroke-opacity:1"/>
<path class="bond-2 atom-1 atom-9" d="M 208.999,303.84 L 203.005,322.182" style="fill:none;fill-rule:evenodd;stroke:#FF0000;stroke-width:2.0px;stroke-linecap:butt;stroke-linejoin:miter;stroke-opacity:1"/>
<path class="bond-4 atom-2 atom-1" d="M 248.895,266.535 L 223.094,271.974" style="fill:none;fill-rule:evenodd;stroke:#000000;stroke-width:2.0px;stroke-linecap:butt;stroke-linejoin:miter;stroke-opacity:1"/>
<path class="bond-3 atom-2 atom-3" d="M 273.155,252.232 L 285.017,215.936" style="fill:none;fill-rule:evenodd;stroke:#000000;stroke-width:2.0px;stroke-linecap:butt;stroke-linejoin:miter;stroke-opacity:1"/>
<path class="bond-3 atom-2 atom-3" d="M 286.089,250.433 L 294.393,225.026" style="fill:none;fill-rule:evenodd;stroke:#000000;stroke-width:2.0px;stroke-linecap:butt;stroke-linejoin:miter;stroke-opacity:1"/>
<path class="bond-6 atom-4 atom-2" d="M 300.262,295.906 L 278.699,271.875" style="fill:none;fill-rule:evenodd;stroke:#000000;stroke-width:2.0px;stroke-linecap:butt;stroke-linejoin:miter;stroke-opacity:1"/>
<path class="bond-5 atom-3 atom-8" d="M 279.301,196.456 L 255.866,170.339" style="fill:none;fill-rule:evenodd;stroke:#000000;stroke-width:2.0px;stroke-linecap:butt;stroke-linejoin:miter;stroke-opacity:1"/>
<path class="bond-13 atom-7 atom-3" d="M 324.149,198.74 L 299.348,203.967" style="fill:none;fill-rule:evenodd;stroke:#000000;stroke-width:2.0px;stroke-linecap:butt;stroke-linejoin:miter;stroke-opacity:1"/>
<path class="bond-7 atom-4 atom-11" d="M 306.024,315.247 L 293.973,352.119" style="fill:none;fill-rule:evenodd;stroke:#000000;stroke-width:2.0px;stroke-linecap:butt;stroke-linejoin:miter;stroke-opacity:1"/>
<path class="bond-9 atom-5 atom-4" d="M 345.152,298.182 L 319.657,303.555" style="fill:none;fill-rule:evenodd;stroke:#000000;stroke-width:2.0px;stroke-linecap:butt;stroke-linejoin:miter;stroke-opacity:1"/>
<path class="bond-9 atom-5 atom-4" d="M 338.907,287.504 L 321.061,291.266" style="fill:none;fill-rule:evenodd;stroke:#000000;stroke-width:2.0px;stroke-linecap:butt;stroke-linejoin:miter;stroke-opacity:1"/>
<path class="bond-8 atom-5 atom-6" d="M 369.762,283.804 L 381.624,247.508" style="fill:none;fill-rule:evenodd;stroke:#000000;stroke-width:2.0px;stroke-linecap:butt;stroke-linejoin:miter;stroke-opacity:1"/>
<path class="bond-10 atom-5 atom-16" d="M 375.561,303.732 L 398.095,328.844" style="fill:none;fill-rule:evenodd;stroke:#000000;stroke-width:2.0px;stroke-linecap:butt;stroke-linejoin:miter;stroke-opacity:1"/>
<path class="bond-11 atom-6 atom-7" d="M 375.908,228.028 L 354.345,203.997" style="fill:none;fill-rule:evenodd;stroke:#000000;stroke-width:2.0px;stroke-linecap:butt;stroke-linejoin:miter;stroke-opacity:1"/>
<path class="bond-11 atom-6 atom-7" d="M 363.939,232.261 L 348.844,215.439" style="fill:none;fill-rule:evenodd;stroke:#000000;stroke-width:2.0px;stroke-linecap:butt;stroke-linejoin:miter;stroke-opacity:1"/>
<path class="bond-12 atom-6 atom-17" d="M 395.288,235.68 L 434.483,227.419" style="fill:none;fill-rule:evenodd;stroke:#000000;stroke-width:2.0px;stroke-linecap:butt;stroke-linejoin:miter;stroke-opacity:1"/>
<path class="bond-14 atom-7 atom-12" d="M 348.801,184.354 L 360.663,148.058" style="fill:none;fill-rule:evenodd;stroke:#000000;stroke-width:2.0px;stroke-linecap:butt;stroke-linejoin:miter;stroke-opacity:1"/>
<path class="bond-15 atom-10 atom-13" d="M 113.844,232.856 L 105.82,194.787" style="fill:none;fill-rule:evenodd;stroke:#000000;stroke-width:2.0px;stroke-linecap:butt;stroke-linejoin:miter;stroke-opacity:1"/>
<path class="bond-16 atom-10 atom-14" d="M 117.984,252.502 L 126.009,290.573" style="fill:none;fill-rule:evenodd;stroke:#000000;stroke-width:2.0px;stroke-linecap:butt;stroke-linejoin:miter;stroke-opacity:1"/>
<path class="bond-17 atom-10 atom-15" d="M 89.4398,248.21 L 65.0396,253.352" style="fill:none;fill-rule:evenodd;stroke:#000000;stroke-width:2.0px;stroke-linecap:butt;stroke-linejoin:miter;stroke-opacity:1"/>
<path class="atom-0" d="M 151.902 230.577 Q 151.902 226.586, 153.874 224.357 Q 155.845 222.127, 159.53 222.127 Q 163.215 222.127, 165.187 224.357 Q 167.159 226.586, 167.159 230.577 Q 167.159 234.614, 165.164 236.914 Q 163.168 239.191, 159.53 239.191 Q 155.869 239.191, 153.874 236.914 Q 151.902 234.637, 151.902 230.577 M 159.53 237.313 Q 162.065 237.313, 163.427 235.623 Q 164.812 233.91, 164.812 230.577 Q 164.812 227.314, 163.427 225.671 Q 162.065 224.005, 159.53 224.005 Q 156.995 224.005, 155.611 225.648 Q 154.249 227.291, 154.249 230.577 Q 154.249 233.933, 155.611 235.623 Q 156.995 237.313, 159.53 237.313 " fill="#FF0000"/>
<path class="atom-0" d="M 168.919 236.186 L 171.266 236.186 L 171.266 238.534 L 168.919 238.534 L 168.919 236.186 M 168.919 228.112 L 171.266 228.112 L 171.266 230.459 L 168.919 230.459 L 168.919 228.112 " fill="#FF0000"/>
<path class="atom-0" d="M 173.449 237.055 L 177.087 237.055 L 177.087 224.638 L 173.074 225.882 L 172.534 224.498 L 177.627 222.221 L 179.294 222.502 L 179.294 237.055 L 182.556 237.055 L 182.556 238.933 L 173.449 238.933 L 173.449 237.055 " fill="#FF0000"/>
<path class="atom-1" d="M 192.872 274.274 Q 192.872 270.143, 194.796 267.984 Q 196.744 265.801, 200.429 265.801 Q 203.856 265.801, 205.687 268.219 L 204.138 269.486 Q 202.8 267.726, 200.429 267.726 Q 197.918 267.726, 196.58 269.416 Q 195.266 271.082, 195.266 274.274 Q 195.266 277.56, 196.627 279.25 Q 198.012 280.94, 200.688 280.94 Q 202.518 280.94, 204.654 279.837 L 205.312 281.598 Q 204.443 282.161, 203.129 282.489 Q 201.814 282.818, 200.359 282.818 Q 196.744 282.818, 194.796 280.612 Q 192.872 278.405, 192.872 274.274 " fill="#000000"/>
<path class="atom-1" d="M 207.447 279.861 L 209.795 279.861 L 209.795 282.208 L 207.447 282.208 L 207.447 279.861 M 207.447 271.786 L 209.795 271.786 L 209.795 274.134 L 207.447 274.134 L 207.447 271.786 " fill="#000000"/>
<path class="atom-1" d="M 211.015 269.134 Q 211.625 267.561, 213.081 266.693 Q 214.536 265.801, 216.554 265.801 Q 219.066 265.801, 220.474 267.162 Q 221.883 268.524, 221.883 270.941 Q 221.883 273.406, 220.052 275.706 Q 218.244 278.006, 214.489 280.729 L 222.164 280.729 L 222.164 282.607 L 210.968 282.607 L 210.968 281.034 Q 214.066 278.828, 215.897 277.185 Q 217.752 275.542, 218.643 274.063 Q 219.535 272.584, 219.535 271.059 Q 219.535 269.463, 218.737 268.571 Q 217.939 267.679, 216.554 267.679 Q 215.217 267.679, 214.325 268.219 Q 213.433 268.759, 212.799 269.956 L 211.015 269.134 " fill="#000000"/>
<path class="atom-2" d="M 250.362 262.172 Q 250.362 258.041, 252.286 255.882 Q 254.234 253.699, 257.92 253.699 Q 261.346 253.699, 263.177 256.117 L 261.628 257.384 Q 260.29 255.624, 257.92 255.624 Q 255.408 255.624, 254.07 257.314 Q 252.756 258.98, 252.756 262.172 Q 252.756 265.458, 254.117 267.148 Q 255.502 268.838, 258.178 268.838 Q 260.009 268.838, 262.144 267.735 L 262.802 269.496 Q 261.933 270.059, 260.619 270.388 Q 259.304 270.716, 257.849 270.716 Q 254.234 270.716, 252.286 268.51 Q 250.362 266.303, 250.362 262.172 " fill="#000000"/>
<path class="atom-2" d="M 264.938 267.759 L 267.285 267.759 L 267.285 270.106 L 264.938 270.106 L 264.938 267.759 M 264.938 259.684 L 267.285 259.684 L 267.285 262.032 L 264.938 262.032 L 264.938 259.684 " fill="#000000"/>
<path class="atom-2" d="M 276.251 261.75 Q 277.87 262.219, 278.645 263.276 Q 279.443 264.308, 279.443 265.951 Q 279.443 267.36, 278.739 268.463 Q 278.035 269.543, 276.744 270.153 Q 275.453 270.74, 273.763 270.74 Q 271.979 270.74, 270.641 270.129 Q 269.327 269.496, 268.271 268.228 L 269.608 266.867 Q 270.641 267.993, 271.51 268.439 Q 272.378 268.862, 273.763 268.862 Q 275.265 268.862, 276.181 268.064 Q 277.096 267.242, 277.096 265.928 Q 277.096 264.238, 276.134 263.487 Q 275.195 262.712, 273.153 262.712 L 271.956 262.712 L 271.956 261.022 L 273.012 261.022 Q 274.819 260.999, 275.782 260.224 Q 276.744 259.426, 276.744 257.947 Q 276.744 256.868, 275.946 256.234 Q 275.148 255.577, 273.786 255.577 Q 272.402 255.577, 271.533 256.07 Q 270.688 256.563, 270.031 257.807 L 268.411 256.938 Q 268.998 255.553, 270.406 254.638 Q 271.815 253.699, 273.786 253.699 Q 276.227 253.699, 277.659 254.849 Q 279.091 255.999, 279.091 257.947 Q 279.091 259.285, 278.363 260.248 Q 277.636 261.21, 276.251 261.75 " fill="#000000"/>
<path class="atom-3" d="M 268.009 206.396 Q 268.009 202.265, 269.934 200.106 Q 271.882 197.923, 275.567 197.923 Q 278.994 197.923, 280.825 200.34 L 279.275 201.608 Q 277.938 199.848, 275.567 199.848 Q 273.055 199.848, 271.718 201.538 Q 270.403 203.204, 270.403 206.396 Q 270.403 209.682, 271.764 211.372 Q 273.149 213.062, 275.825 213.062 Q 277.656 213.062, 279.792 211.959 L 280.449 213.719 Q 279.581 214.283, 278.266 214.611 Q 276.952 214.94, 275.496 214.94 Q 271.882 214.94, 269.934 212.734 Q 268.009 210.527, 268.009 206.396 " fill="#000000"/>
<path class="atom-3" d="M 282.585 211.982 L 284.932 211.982 L 284.932 214.33 L 282.585 214.33 L 282.585 211.982 M 282.585 203.908 L 284.932 203.908 L 284.932 206.255 L 282.585 206.255 L 282.585 203.908 " fill="#000000"/>
<path class="atom-3" d="M 296.433 209.025 L 298.428 209.025 L 298.428 210.903 L 296.433 210.903 L 296.433 214.729 L 294.227 214.729 L 294.227 210.903 L 285.636 210.903 L 285.636 209.424 L 292.912 198.111 L 296.433 198.111 L 296.433 209.025 M 288.359 209.025 L 294.227 209.025 L 294.227 199.613 L 288.359 209.025 " fill="#000000"/>
<path class="atom-4" d="M 289.491 305.847 Q 289.491 301.716, 291.415 299.556 Q 293.363 297.373, 297.048 297.373 Q 300.475 297.373, 302.306 299.791 L 300.757 301.058 Q 299.419 299.298, 297.048 299.298 Q 294.537 299.298, 293.199 300.988 Q 291.885 302.654, 291.885 305.847 Q 291.885 309.133, 293.246 310.823 Q 294.631 312.513, 297.307 312.513 Q 299.137 312.513, 301.273 311.409 L 301.931 313.17 Q 301.062 313.733, 299.748 314.062 Q 298.433 314.39, 296.978 314.39 Q 293.363 314.39, 291.415 312.184 Q 289.491 309.978, 289.491 305.847 " fill="#000000"/>
<path class="atom-4" d="M 304.066 311.433 L 306.414 311.433 L 306.414 313.78 L 304.066 313.78 L 304.066 311.433 M 304.066 303.359 L 306.414 303.359 L 306.414 305.706 L 304.066 305.706 L 304.066 303.359 " fill="#000000"/>
<path class="atom-4" d="M 313.526 303.781 Q 314.981 303.781, 316.178 304.415 Q 317.375 305.025, 318.056 306.199 Q 318.736 307.349, 318.736 308.921 Q 318.736 310.635, 317.891 311.879 Q 317.07 313.099, 315.708 313.733 Q 314.347 314.367, 312.798 314.367 Q 311.272 314.367, 309.864 313.804 Q 308.456 313.24, 307.493 312.161 L 308.902 310.705 Q 309.676 311.55, 310.732 312.02 Q 311.789 312.466, 312.868 312.466 Q 314.347 312.466, 315.356 311.55 Q 316.389 310.635, 316.389 308.968 Q 316.389 307.208, 315.356 306.387 Q 314.347 305.542, 312.728 305.542 Q 311.272 305.542, 309.653 306.175 L 308.362 305.565 L 309.16 297.561 L 317.704 297.561 L 317.469 299.439 L 311.084 299.439 L 310.592 304.368 Q 312.07 303.781, 313.526 303.781 " fill="#000000"/>
<path class="atom-5" d="M 346.619 293.745 Q 346.619 289.614, 348.543 287.454 Q 350.492 285.271, 354.177 285.271 Q 357.604 285.271, 359.434 287.689 L 357.885 288.956 Q 356.547 287.196, 354.177 287.196 Q 351.665 287.196, 350.327 288.886 Q 349.013 290.553, 349.013 293.745 Q 349.013 297.031, 350.374 298.721 Q 351.759 300.411, 354.435 300.411 Q 356.266 300.411, 358.402 299.307 L 359.059 301.068 Q 358.19 301.631, 356.876 301.96 Q 355.562 302.288, 354.106 302.288 Q 350.492 302.288, 348.543 300.082 Q 346.619 297.876, 346.619 293.745 " fill="#000000"/>
<path class="atom-5" d="M 361.195 299.331 L 363.542 299.331 L 363.542 301.678 L 361.195 301.678 L 361.195 299.331 M 361.195 291.257 L 363.542 291.257 L 363.542 293.604 L 361.195 293.604 L 361.195 291.257 " fill="#000000"/>
<path class="atom-5" d="M 371.64 291.703 Q 373.095 291.703, 374.245 292.336 Q 375.395 292.97, 376.029 294.12 Q 376.663 295.27, 376.663 296.726 Q 376.663 298.345, 375.935 299.613 Q 375.231 300.857, 373.963 301.561 Q 372.696 302.265, 371.076 302.265 Q 368.119 302.265, 366.617 300.27 Q 365.138 298.251, 365.138 294.261 Q 365.138 289.848, 366.969 287.572 Q 368.823 285.271, 372.367 285.271 Q 373.4 285.271, 374.268 285.506 Q 375.16 285.741, 376.005 286.234 L 375.09 287.806 Q 373.869 287.149, 372.391 287.149 Q 370.044 287.149, 368.847 288.675 Q 367.649 290.177, 367.509 293.299 Q 368.354 292.524, 369.41 292.125 Q 370.49 291.703, 371.64 291.703 M 371.1 300.34 Q 371.992 300.34, 372.719 299.871 Q 373.47 299.401, 373.893 298.58 Q 374.315 297.758, 374.315 296.749 Q 374.315 295.27, 373.494 294.425 Q 372.672 293.58, 371.217 293.58 Q 370.208 293.58, 369.199 294.003 Q 368.213 294.402, 367.509 295.106 Q 367.603 297.852, 368.471 299.096 Q 369.339 300.34, 371.1 300.34 " fill="#000000"/>
<path class="atom-6" d="M 365.444 237.968 Q 365.444 233.837, 367.368 231.678 Q 369.316 229.495, 373.002 229.495 Q 376.428 229.495, 378.259 231.913 L 376.71 233.18 Q 375.372 231.42, 373.002 231.42 Q 370.49 231.42, 369.152 233.11 Q 367.838 234.776, 367.838 237.968 Q 367.838 241.254, 369.199 242.944 Q 370.584 244.634, 373.26 244.634 Q 375.09 244.634, 377.226 243.531 L 377.884 245.292 Q 377.015 245.855, 375.701 246.184 Q 374.386 246.512, 372.931 246.512 Q 369.316 246.512, 367.368 244.306 Q 365.444 242.099, 365.444 237.968 " fill="#000000"/>
<path class="atom-6" d="M 380.02 243.555 L 382.367 243.555 L 382.367 245.902 L 380.02 245.902 L 380.02 243.555 M 380.02 235.48 L 382.367 235.48 L 382.367 237.828 L 380.02 237.828 L 380.02 235.48 " fill="#000000"/>
<path class="atom-6" d="M 391.497 231.561 L 382.789 231.561 L 382.789 229.683 L 393.821 229.683 L 393.821 231.349 L 387.108 246.301 L 384.855 246.301 L 391.497 231.561 " fill="#000000"/>
<path class="atom-7" d="M 325.616 194.294 Q 325.616 190.163, 327.541 188.004 Q 329.489 185.821, 333.174 185.821 Q 336.601 185.821, 338.432 188.238 L 336.883 189.506 Q 335.545 187.746, 333.174 187.746 Q 330.663 187.746, 329.325 189.436 Q 328.011 191.102, 328.011 194.294 Q 328.011 197.58, 329.372 199.27 Q 330.757 200.96, 333.433 200.96 Q 335.263 200.96, 337.399 199.857 L 338.056 201.617 Q 337.188 202.181, 335.874 202.509 Q 334.559 202.838, 333.104 202.838 Q 329.489 202.838, 327.541 200.632 Q 325.616 198.425, 325.616 194.294 " fill="#000000"/>
<path class="atom-7" d="M 340.192 199.88 L 342.54 199.88 L 342.54 202.228 L 340.192 202.228 L 340.192 199.88 M 340.192 191.806 L 342.54 191.806 L 342.54 194.153 L 340.192 194.153 L 340.192 191.806 " fill="#000000"/>
<path class="atom-7" d="M 352.468 193.825 Q 353.994 194.482, 354.862 195.468 Q 355.731 196.43, 355.731 198.073 Q 355.731 199.481, 355.003 200.585 Q 354.275 201.664, 352.961 202.275 Q 351.67 202.861, 349.957 202.861 Q 347.187 202.861, 345.591 201.594 Q 343.995 200.303, 343.995 198.073 Q 343.995 196.712, 344.699 195.702 Q 345.403 194.67, 346.858 193.895 Q 345.779 193.285, 345.192 192.393 Q 344.605 191.478, 344.605 190.069 Q 344.605 188.121, 346.013 186.971 Q 347.445 185.821, 349.863 185.821 Q 352.28 185.821, 353.689 186.971 Q 355.12 188.121, 355.12 190.069 Q 355.12 191.29, 354.44 192.205 Q 353.783 193.097, 352.468 193.825 M 349.863 187.581 Q 348.478 187.581, 347.703 188.238 Q 346.952 188.896, 346.952 190.069 Q 346.952 190.938, 347.469 191.525 Q 347.985 192.088, 348.713 192.416 Q 349.464 192.745, 350.895 193.238 Q 351.905 192.534, 352.327 191.783 Q 352.773 191.032, 352.773 190.069 Q 352.773 188.896, 351.999 188.238 Q 351.248 187.581, 349.863 187.581 M 349.957 201.101 Q 351.506 201.101, 352.445 200.279 Q 353.383 199.434, 353.383 198.05 Q 353.383 197.158, 352.891 196.594 Q 352.398 196.031, 351.647 195.702 Q 350.919 195.374, 349.605 194.951 L 348.548 194.599 Q 347.375 195.303, 346.858 196.148 Q 346.342 196.97, 346.342 198.05 Q 346.342 199.434, 347.328 200.279 Q 348.314 201.101, 349.957 201.101 " fill="#000000"/>
<path class="atom-8" d="M 224.804 154.436 L 227.057 154.436 L 227.057 161.501 L 235.554 161.501 L 235.554 154.436 L 237.807 154.436 L 237.807 171.054 L 235.554 171.054 L 235.554 163.379 L 227.057 163.379 L 227.057 171.054 L 224.804 171.054 L 224.804 154.436 " fill="#000000"/>
<path class="atom-8" d="M 239.568 168.308 L 241.915 168.308 L 241.915 170.655 L 239.568 170.655 L 239.568 168.308 M 239.568 160.234 L 241.915 160.234 L 241.915 162.581 L 239.568 162.581 L 239.568 160.234 " fill="#000000"/>
<path class="atom-8" d="M 248.792 154.249 Q 251.749 154.249, 253.228 156.267 Q 254.73 158.262, 254.73 162.252 Q 254.73 166.665, 252.876 168.965 Q 251.045 171.242, 247.501 171.242 Q 246.468 171.242, 245.576 171.007 Q 244.708 170.773, 243.863 170.28 L 244.778 168.707 Q 245.999 169.364, 247.478 169.364 Q 249.825 169.364, 251.022 167.862 Q 252.219 166.337, 252.36 163.215 Q 251.515 163.989, 250.435 164.412 Q 249.379 164.811, 248.229 164.811 Q 246.773 164.811, 245.623 164.177 Q 244.473 163.543, 243.839 162.393 Q 243.206 161.243, 243.206 159.788 Q 243.206 158.168, 243.91 156.924 Q 244.637 155.657, 245.905 154.953 Q 247.172 154.249, 248.792 154.249 M 245.553 159.764 Q 245.553 161.243, 246.374 162.088 Q 247.196 162.933, 248.651 162.933 Q 249.66 162.933, 250.646 162.534 Q 251.655 162.112, 252.36 161.408 Q 252.266 158.661, 251.397 157.417 Q 250.529 156.173, 248.768 156.173 Q 247.877 156.173, 247.125 156.643 Q 246.398 157.112, 245.975 157.934 Q 245.553 158.755, 245.553 159.764 " fill="#000000"/>
<path class="atom-9" d="M 186.655 330.027 Q 186.655 326.037, 188.627 323.807 Q 190.598 321.577, 194.283 321.577 Q 197.968 321.577, 199.94 323.807 Q 201.912 326.037, 201.912 330.027 Q 201.912 334.064, 199.916 336.365 Q 197.921 338.641, 194.283 338.641 Q 190.622 338.641, 188.627 336.365 Q 186.655 334.088, 186.655 330.027 M 194.283 336.764 Q 196.818 336.764, 198.18 335.074 Q 199.564 333.36, 199.564 330.027 Q 199.564 326.765, 198.18 325.122 Q 196.818 323.455, 194.283 323.455 Q 191.748 323.455, 190.363 325.098 Q 189.002 326.741, 189.002 330.027 Q 189.002 333.384, 190.363 335.074 Q 191.748 336.764, 194.283 336.764 " fill="#FF0000"/>
<path class="atom-9" d="M 203.672 335.637 L 206.019 335.637 L 206.019 337.984 L 203.672 337.984 L 203.672 335.637 M 203.672 327.563 L 206.019 327.563 L 206.019 329.91 L 203.672 329.91 L 203.672 327.563 " fill="#FF0000"/>
<path class="atom-9" d="M 208.202 336.505 L 211.84 336.505 L 211.84 324.089 L 207.826 325.333 L 207.287 323.948 L 212.38 321.671 L 214.046 321.953 L 214.046 336.505 L 217.309 336.505 L 217.309 338.383 L 208.202 338.383 L 208.202 336.505 " fill="#FF0000"/>
<path class="atom-9" d="M 224.82 338.571 Q 221.769 338.571, 220.243 336.318 Q 218.741 334.064, 218.741 330.051 Q 218.741 326.037, 220.243 323.807 Q 221.745 321.577, 224.82 321.577 Q 227.895 321.577, 229.397 323.807 Q 230.899 326.037, 230.899 330.051 Q 230.899 334.064, 229.373 336.318 Q 227.871 338.571, 224.82 338.571 M 224.82 336.693 Q 226.627 336.693, 227.59 335.027 Q 228.552 333.337, 228.552 330.051 Q 228.552 326.788, 227.59 325.122 Q 226.627 323.455, 224.82 323.455 Q 223.036 323.455, 222.05 325.122 Q 221.088 326.788, 221.088 330.051 Q 221.088 333.337, 222.05 335.027 Q 223.036 336.693, 224.82 336.693 " fill="#FF0000"/>
<path class="atom-10" d="M 90.9068 242.702 Q 90.9068 238.571, 92.8315 236.412 Q 94.7796 234.229, 98.4647 234.229 Q 101.892 234.229, 103.722 236.646 L 102.173 237.914 Q 100.835 236.154, 98.4647 236.154 Q 95.9532 236.154, 94.6153 237.843 Q 93.3009 239.51, 93.3009 242.702 Q 93.3009 245.988, 94.6623 247.678 Q 96.0471 249.368, 98.7229 249.368 Q 100.554 249.368, 102.69 248.265 L 103.347 250.025 Q 102.478 250.589, 101.164 250.917 Q 99.8495 251.246, 98.3943 251.246 Q 94.7796 251.246, 92.8315 249.039 Q 90.9068 246.833, 90.9068 242.702 " fill="#000000"/>
<path class="atom-10" d="M 105.483 248.288 L 107.83 248.288 L 107.83 250.636 L 105.483 250.636 L 105.483 248.288 M 105.483 240.214 L 107.83 240.214 L 107.83 242.561 L 105.483 242.561 L 105.483 240.214 " fill="#000000"/>
<path class="atom-10" d="M 110.013 249.157 L 113.651 249.157 L 113.651 236.74 L 109.637 237.984 L 109.097 236.599 L 114.191 234.323 L 115.857 234.604 L 115.857 249.157 L 119.12 249.157 L 119.12 251.035 L 110.013 251.035 L 110.013 249.157 " fill="#000000"/>
<path class="atom-10" d="M 121.303 249.157 L 124.941 249.157 L 124.941 236.74 L 120.927 237.984 L 120.387 236.599 L 125.481 234.323 L 127.147 234.604 L 127.147 249.157 L 130.41 249.157 L 130.41 251.035 L 121.303 251.035 L 121.303 249.157 " fill="#000000"/>
<path class="atom-11" d="M 284.389 353.337 L 286.642 353.337 L 286.642 360.402 L 295.139 360.402 L 295.139 353.337 L 297.392 353.337 L 297.392 369.955 L 295.139 369.955 L 295.139 362.28 L 286.642 362.28 L 286.642 369.955 L 284.389 369.955 L 284.389 353.337 " fill="#000000"/>
<path class="atom-11" d="M 299.153 367.209 L 301.5 367.209 L 301.5 369.556 L 299.153 369.556 L 299.153 367.209 M 299.153 359.135 L 301.5 359.135 L 301.5 361.482 L 299.153 361.482 L 299.153 359.135 " fill="#000000"/>
<path class="atom-11" d="M 303.683 368.078 L 307.321 368.078 L 307.321 355.661 L 303.307 356.905 L 302.767 355.52 L 307.861 353.243 L 309.527 353.525 L 309.527 368.078 L 312.79 368.078 L 312.79 369.955 L 303.683 369.955 L 303.683 368.078 " fill="#000000"/>
<path class="atom-11" d="M 314.01 356.483 Q 314.62 354.91, 316.076 354.042 Q 317.531 353.15, 319.549 353.15 Q 322.061 353.15, 323.469 354.511 Q 324.878 355.872, 324.878 358.29 Q 324.878 360.754, 323.047 363.055 Q 321.239 365.355, 317.484 368.078 L 325.159 368.078 L 325.159 369.955 L 313.963 369.955 L 313.963 368.383 Q 317.061 366.176, 318.892 364.533 Q 320.747 362.89, 321.638 361.412 Q 322.53 359.933, 322.53 358.407 Q 322.53 356.811, 321.732 355.919 Q 320.934 355.027, 319.549 355.027 Q 318.212 355.027, 317.32 355.567 Q 316.428 356.107, 315.794 357.304 L 314.01 356.483 " fill="#000000"/>
<path class="atom-12" d="M 357.302 130.232 L 359.555 130.232 L 359.555 137.297 L 368.052 137.297 L 368.052 130.232 L 370.305 130.232 L 370.305 146.85 L 368.052 146.85 L 368.052 139.175 L 359.555 139.175 L 359.555 146.85 L 357.302 146.85 L 357.302 130.232 " fill="#000000"/>
<path class="atom-12" d="M 372.066 144.104 L 374.413 144.104 L 374.413 146.451 L 372.066 146.451 L 372.066 144.104 M 372.066 136.03 L 374.413 136.03 L 374.413 138.377 L 372.066 138.377 L 372.066 136.03 " fill="#000000"/>
<path class="atom-12" d="M 376.596 144.973 L 380.234 144.973 L 380.234 132.556 L 376.22 133.8 L 375.68 132.415 L 380.774 130.139 L 382.44 130.42 L 382.44 144.973 L 385.703 144.973 L 385.703 146.85 L 376.596 146.85 L 376.596 144.973 " fill="#000000"/>
<path class="atom-12" d="M 394.669 138.095 Q 396.288 138.565, 397.063 139.621 Q 397.861 140.654, 397.861 142.297 Q 397.861 143.705, 397.157 144.808 Q 396.453 145.888, 395.162 146.498 Q 393.871 147.085, 392.181 147.085 Q 390.397 147.085, 389.059 146.475 Q 387.745 145.841, 386.688 144.574 L 388.026 143.212 Q 389.059 144.339, 389.928 144.785 Q 390.796 145.207, 392.181 145.207 Q 393.683 145.207, 394.598 144.409 Q 395.514 143.588, 395.514 142.273 Q 395.514 140.583, 394.551 139.832 Q 393.613 139.058, 391.571 139.058 L 390.373 139.058 L 390.373 137.368 L 391.43 137.368 Q 393.237 137.344, 394.199 136.57 Q 395.162 135.772, 395.162 134.293 Q 395.162 133.213, 394.364 132.58 Q 393.566 131.922, 392.204 131.922 Q 390.819 131.922, 389.951 132.415 Q 389.106 132.908, 388.449 134.152 L 386.829 133.284 Q 387.416 131.899, 388.824 130.984 Q 390.233 130.045, 392.204 130.045 Q 394.645 130.045, 396.077 131.195 Q 397.509 132.345, 397.509 134.293 Q 397.509 135.631, 396.781 136.593 Q 396.054 137.556, 394.669 138.095 " fill="#000000"/>
<path class="atom-13" d="M 97.3005 176.952 L 99.5538 176.952 L 99.5538 184.017 L 108.051 184.017 L 108.051 176.952 L 110.304 176.952 L 110.304 193.57 L 108.051 193.57 L 108.051 185.895 L 99.5538 185.895 L 99.5538 193.57 L 97.3005 193.57 L 97.3005 176.952 " fill="#000000"/>
<path class="atom-13" d="M 112.064 190.824 L 114.411 190.824 L 114.411 193.171 L 112.064 193.171 L 112.064 190.824 M 112.064 182.749 L 114.411 182.749 L 114.411 185.097 L 112.064 185.097 L 112.064 182.749 " fill="#000000"/>
<path class="atom-13" d="M 116.594 191.692 L 120.232 191.692 L 120.232 179.276 L 116.219 180.52 L 115.679 179.135 L 120.772 176.858 L 122.439 177.14 L 122.439 191.692 L 125.701 191.692 L 125.701 193.57 L 116.594 193.57 L 116.594 191.692 " fill="#000000"/>
<path class="atom-13" d="M 137.202 187.866 L 139.198 187.866 L 139.198 189.744 L 137.202 189.744 L 137.202 193.57 L 134.996 193.57 L 134.996 189.744 L 126.405 189.744 L 126.405 188.265 L 133.682 176.952 L 137.202 176.952 L 137.202 187.866 M 129.128 187.866 L 134.996 187.866 L 134.996 178.454 L 129.128 187.866 " fill="#000000"/>
<path class="atom-14" d="M 121.505 291.787 L 123.758 291.787 L 123.758 298.852 L 132.255 298.852 L 132.255 291.787 L 134.508 291.787 L 134.508 308.405 L 132.255 308.405 L 132.255 300.73 L 123.758 300.73 L 123.758 308.405 L 121.505 308.405 L 121.505 291.787 " fill="#000000"/>
<path class="atom-14" d="M 136.268 305.659 L 138.615 305.659 L 138.615 308.006 L 136.268 308.006 L 136.268 305.659 M 136.268 297.585 L 138.615 297.585 L 138.615 299.932 L 136.268 299.932 L 136.268 297.585 " fill="#000000"/>
<path class="atom-14" d="M 140.798 306.528 L 144.436 306.528 L 144.436 294.111 L 140.423 295.355 L 139.883 293.97 L 144.976 291.694 L 146.643 291.975 L 146.643 306.528 L 149.905 306.528 L 149.905 308.405 L 140.798 308.405 L 140.798 306.528 " fill="#000000"/>
<path class="atom-14" d="M 157.017 298.007 Q 158.472 298.007, 159.67 298.641 Q 160.867 299.251, 161.547 300.425 Q 162.228 301.575, 162.228 303.148 Q 162.228 304.861, 161.383 306.105 Q 160.561 307.326, 159.2 307.959 Q 157.839 308.593, 156.29 308.593 Q 154.764 308.593, 153.356 308.03 Q 151.947 307.467, 150.985 306.387 L 152.393 304.932 Q 153.168 305.777, 154.224 306.246 Q 155.28 306.692, 156.36 306.692 Q 157.839 306.692, 158.848 305.777 Q 159.881 304.861, 159.881 303.195 Q 159.881 301.434, 158.848 300.613 Q 157.839 299.768, 156.219 299.768 Q 154.764 299.768, 153.144 300.402 L 151.853 299.791 L 152.651 291.787 L 161.195 291.787 L 160.96 293.665 L 154.576 293.665 L 154.083 298.594 Q 155.562 298.007, 157.017 298.007 " fill="#000000"/>
<path class="atom-15" d="M 22.7273 246.519 L 24.9806 246.519 L 24.9806 253.584 L 33.4773 253.584 L 33.4773 246.519 L 35.7306 246.519 L 35.7306 263.137 L 33.4773 263.137 L 33.4773 255.461 L 24.9806 255.461 L 24.9806 263.137 L 22.7273 263.137 L 22.7273 246.519 " fill="#000000"/>
<path class="atom-15" d="M 37.491 260.39 L 39.8382 260.39 L 39.8382 262.738 L 37.491 262.738 L 37.491 260.39 M 37.491 252.316 L 39.8382 252.316 L 39.8382 254.663 L 37.491 254.663 L 37.491 252.316 " fill="#000000"/>
<path class="atom-15" d="M 42.021 261.259 L 45.6591 261.259 L 45.6591 248.842 L 41.6455 250.086 L 41.1056 248.701 L 46.199 246.425 L 47.8655 246.706 L 47.8655 261.259 L 51.128 261.259 L 51.128 263.137 L 42.021 263.137 L 42.021 261.259 " fill="#000000"/>
<path class="atom-15" d="M 59.2258 252.762 Q 60.681 252.762, 61.8311 253.396 Q 62.9813 254.03, 63.615 255.18 Q 64.2487 256.33, 64.2487 257.785 Q 64.2487 259.405, 63.5211 260.672 Q 62.817 261.916, 61.5495 262.62 Q 60.282 263.324, 58.6625 263.324 Q 55.705 263.324, 54.2028 261.329 Q 52.7241 259.311, 52.7241 255.321 Q 52.7241 250.908, 54.5549 248.631 Q 56.4092 246.331, 59.9534 246.331 Q 60.9862 246.331, 61.8546 246.566 Q 62.7465 246.8, 63.5915 247.293 L 62.6761 248.866 Q 61.4556 248.209, 59.9769 248.209 Q 57.6297 248.209, 56.4327 249.734 Q 55.2356 251.236, 55.0948 254.358 Q 55.9397 253.584, 56.996 253.185 Q 58.0757 252.762, 59.2258 252.762 M 58.6859 261.4 Q 59.5779 261.4, 60.3055 260.93 Q 61.0566 260.461, 61.4791 259.639 Q 61.9016 258.818, 61.9016 257.809 Q 61.9016 256.33, 61.08 255.485 Q 60.2585 254.64, 58.8033 254.64 Q 57.794 254.64, 56.7847 255.062 Q 55.7989 255.461, 55.0948 256.165 Q 55.1886 258.912, 56.0571 260.156 Q 56.9256 261.4, 58.6859 261.4 " fill="#000000"/>
<path class="atom-16" d="M 399.224 329.086 L 401.478 329.086 L 401.478 336.151 L 409.974 336.151 L 409.974 329.086 L 412.228 329.086 L 412.228 345.704 L 409.974 345.704 L 409.974 338.029 L 401.478 338.029 L 401.478 345.704 L 399.224 345.704 L 399.224 329.086 " fill="#000000"/>
<path class="atom-16" d="M 413.988 342.958 L 416.335 342.958 L 416.335 345.305 L 413.988 345.305 L 413.988 342.958 M 413.988 334.884 L 416.335 334.884 L 416.335 337.231 L 413.988 337.231 L 413.988 334.884 " fill="#000000"/>
<path class="atom-16" d="M 418.518 343.827 L 422.156 343.827 L 422.156 331.41 L 418.143 332.654 L 417.603 331.269 L 422.696 328.993 L 424.363 329.274 L 424.363 343.827 L 427.625 343.827 L 427.625 345.704 L 418.518 345.704 L 418.518 343.827 " fill="#000000"/>
<path class="atom-16" d="M 436.756 330.964 L 428.048 330.964 L 428.048 329.086 L 439.079 329.086 L 439.079 330.753 L 432.366 345.704 L 430.113 345.704 L 436.756 330.964 " fill="#000000"/>
<path class="atom-17" d="M 435.681 217.581 L 437.934 217.581 L 437.934 224.646 L 446.431 224.646 L 446.431 217.581 L 448.684 217.581 L 448.684 234.199 L 446.431 234.199 L 446.431 226.524 L 437.934 226.524 L 437.934 234.199 L 435.681 234.199 L 435.681 217.581 " fill="#000000"/>
<path class="atom-17" d="M 450.445 231.453 L 452.792 231.453 L 452.792 233.8 L 450.445 233.8 L 450.445 231.453 M 450.445 223.378 L 452.792 223.378 L 452.792 225.726 L 450.445 225.726 L 450.445 223.378 " fill="#000000"/>
<path class="atom-17" d="M 454.975 232.321 L 458.613 232.321 L 458.613 219.905 L 454.599 221.149 L 454.059 219.764 L 459.153 217.487 L 460.819 217.769 L 460.819 232.321 L 464.082 232.321 L 464.082 234.199 L 454.975 234.199 L 454.975 232.321 " fill="#000000"/>
<path class="atom-17" d="M 474.01 225.397 Q 475.536 226.054, 476.404 227.04 Q 477.273 228.002, 477.273 229.645 Q 477.273 231.054, 476.545 232.157 Q 475.817 233.237, 474.503 233.847 Q 473.212 234.434, 471.499 234.434 Q 468.729 234.434, 467.133 233.166 Q 465.537 231.875, 465.537 229.645 Q 465.537 228.284, 466.241 227.275 Q 466.945 226.242, 468.4 225.467 Q 467.321 224.857, 466.734 223.965 Q 466.147 223.05, 466.147 221.642 Q 466.147 219.693, 467.555 218.543 Q 468.987 217.393, 471.405 217.393 Q 473.822 217.393, 475.231 218.543 Q 476.662 219.693, 476.662 221.642 Q 476.662 222.862, 475.982 223.777 Q 475.325 224.669, 474.01 225.397 M 471.405 219.154 Q 470.02 219.154, 469.245 219.811 Q 468.494 220.468, 468.494 221.642 Q 468.494 222.51, 469.011 223.097 Q 469.527 223.66, 470.255 223.989 Q 471.006 224.317, 472.438 224.81 Q 473.447 224.106, 473.869 223.355 Q 474.315 222.604, 474.315 221.642 Q 474.315 220.468, 473.541 219.811 Q 472.79 219.154, 471.405 219.154 M 471.499 232.673 Q 473.048 232.673, 473.987 231.852 Q 474.926 231.007, 474.926 229.622 Q 474.926 228.73, 474.433 228.167 Q 473.94 227.603, 473.189 227.275 Q 472.461 226.946, 471.147 226.524 L 470.09 226.172 Q 468.917 226.876, 468.4 227.721 Q 467.884 228.542, 467.884 229.622 Q 467.884 231.007, 468.87 231.852 Q 469.856 232.673, 471.499 232.673 " fill="#000000"/>
<text x="241.220345982893" y="268.1529836795307" font-size="12" font-family="Verdana" font-weight="bold" letter-spacing="0" text-anchor="start" fill="black" transform=" rotate(78.097928 241.220346 268.152984)">1.0298</text><text x="25" y="490" font-size="12" font-family="Verdana" font-weight="bold" letter-spacing="0" text-anchor="start" fill="black">[#8:1](-[#6:2](-[#6:3]1:[#6:4](:[#6:8](:[#6:7](:[#6:6](:[#6:5]:1-[H:12])-[H:17])-[H:18])-[H:13])-[H:9])=[#8:10])-[#6:11](-[H:14])(-[H:15])-[H:16]</text></svg>
