<?xml version='1.0' encoding='ASCII' standalone='yes'?>
<svg xmlns="http://www.w3.org/2000/svg" xmlns:rdkit="http://www.rdkit.org/xml" xmlns:xlink="http://www.w3.org/1999/xlink" version="1.1" baseProfile="full" xml:space="preserve" width="500px" height="500px" viewBox="0 0 500 500">
<!-- END OF HEADER -->
<rect style="opacity:1.0;fill:#FFFFFF;stroke:none" width="500" height="500" x="0" y="0"> </rect>
<path d="M 264.5,322.591 L 350.068,294.788" style="fill:none;fill-rule:evenodd;stroke:#FF7F7F;stroke-width:19.2px;stroke-linecap:butt;stroke-linejoin:miter;stroke-opacity:1"/>
<path class="bond-0 atom-0 atom-5" d="M 251.224,334.332 L 242.079,362.48" style="fill:none;fill-rule:evenodd;stroke:#000000;stroke-width:2.0px;stroke-linecap:butt;stroke-linejoin:miter;stroke-opacity:1"/>
<path class="bond-0 atom-0 atom-5" d="M 242.079,362.48 L 232.933,390.628" style="fill:none;fill-rule:evenodd;stroke:#FF0000;stroke-width:2.0px;stroke-linecap:butt;stroke-linejoin:miter;stroke-opacity:1"/>
<path class="bond-0 atom-0 atom-5" d="M 268.338,339.893 L 259.192,368.041" style="fill:none;fill-rule:evenodd;stroke:#000000;stroke-width:2.0px;stroke-linecap:butt;stroke-linejoin:miter;stroke-opacity:1"/>
<path class="bond-0 atom-0 atom-5" d="M 259.192,368.041 L 250.047,396.189" style="fill:none;fill-rule:evenodd;stroke:#FF0000;stroke-width:2.0px;stroke-linecap:butt;stroke-linejoin:miter;stroke-opacity:1"/>
<path class="bond-1 atom-1 atom-0" d="M 338.156,298.659 L 309.219,308.061" style="fill:none;fill-rule:evenodd;stroke:#0000FF;stroke-width:2.0px;stroke-linecap:butt;stroke-linejoin:miter;stroke-opacity:1"/>
<path class="bond-1 atom-1 atom-0" d="M 309.219,308.061 L 280.282,317.463" style="fill:none;fill-rule:evenodd;stroke:#000000;stroke-width:2.0px;stroke-linecap:butt;stroke-linejoin:miter;stroke-opacity:1"/>
<path class="bond-6 atom-2 atom-0" d="M 222.43,264.687 L 253.839,307.918" style="fill:none;fill-rule:evenodd;stroke:#000000;stroke-width:2.0px;stroke-linecap:butt;stroke-linejoin:miter;stroke-opacity:1"/>
<path class="bond-2 atom-1 atom-4" d="M 350.068,279.943 L 350.068,249.922" style="fill:none;fill-rule:evenodd;stroke:#0000FF;stroke-width:2.0px;stroke-linecap:butt;stroke-linejoin:miter;stroke-opacity:1"/>
<path class="bond-2 atom-1 atom-4" d="M 350.068,249.922 L 350.068,219.902" style="fill:none;fill-rule:evenodd;stroke:#000000;stroke-width:2.0px;stroke-linecap:butt;stroke-linejoin:miter;stroke-opacity:1"/>
<path class="bond-3 atom-1 atom-6" d="M 370.898,309.922 L 391.09,324.592" style="fill:none;fill-rule:evenodd;stroke:#0000FF;stroke-width:2.0px;stroke-linecap:butt;stroke-linejoin:miter;stroke-opacity:1"/>
<path class="bond-3 atom-1 atom-6" d="M 391.09,324.592 L 411.283,339.263" style="fill:none;fill-rule:evenodd;stroke:#000000;stroke-width:2.0px;stroke-linecap:butt;stroke-linejoin:miter;stroke-opacity:1"/>
<path class="bond-4 atom-2 atom-3" d="M 222.43,234.917 L 253.603,192.01" style="fill:none;fill-rule:evenodd;stroke:#000000;stroke-width:2.0px;stroke-linecap:butt;stroke-linejoin:miter;stroke-opacity:1"/>
<path class="bond-5 atom-2 atom-7" d="M 173.341,249.802 L 138.507,249.802" style="fill:none;fill-rule:evenodd;stroke:#000000;stroke-width:2.0px;stroke-linecap:butt;stroke-linejoin:miter;stroke-opacity:1"/>
<path class="bond-5 atom-2 atom-7" d="M 168.116,231.808 L 143.732,231.808" style="fill:none;fill-rule:evenodd;stroke:#000000;stroke-width:2.0px;stroke-linecap:butt;stroke-linejoin:miter;stroke-opacity:1"/>
<path class="bond-7 atom-3 atom-4" d="M 282.497,182.861 L 338.467,201.046" style="fill:none;fill-rule:evenodd;stroke:#000000;stroke-width:2.0px;stroke-linecap:butt;stroke-linejoin:miter;stroke-opacity:1"/>
<path class="bond-7 atom-3 atom-4" d="M 285.332,202.702 L 324.511,215.432" style="fill:none;fill-rule:evenodd;stroke:#000000;stroke-width:2.0px;stroke-linecap:butt;stroke-linejoin:miter;stroke-opacity:1"/>
<path class="bond-8 atom-3 atom-8" d="M 259.676,162.167 L 241.487,106.187" style="fill:none;fill-rule:evenodd;stroke:#000000;stroke-width:2.0px;stroke-linecap:butt;stroke-linejoin:miter;stroke-opacity:1"/>
<path class="bond-9 atom-4 atom-9" d="M 370.501,189.97 L 411.271,160.35" style="fill:none;fill-rule:evenodd;stroke:#000000;stroke-width:2.0px;stroke-linecap:butt;stroke-linejoin:miter;stroke-opacity:1"/>
<path class="bond-10 atom-7 atom-10" d="M 112.719,265.259 L 85.0947,313.105" style="fill:none;fill-rule:evenodd;stroke:#000000;stroke-width:2.0px;stroke-linecap:butt;stroke-linejoin:miter;stroke-opacity:1"/>
<path class="bond-11 atom-7 atom-11" d="M 112.906,234.669 L 85.1417,186.58" style="fill:none;fill-rule:evenodd;stroke:#000000;stroke-width:2.0px;stroke-linecap:butt;stroke-linejoin:miter;stroke-opacity:1"/>
<path class="atom-0" d="M 235.088 322.699 Q 235.088 316.365, 238.039 313.054 Q 241.026 309.707, 246.676 309.707 Q 251.93 309.707, 254.738 313.414 L 252.362 315.357 Q 250.311 312.658, 246.676 312.658 Q 242.825 312.658, 240.774 315.249 Q 238.758 317.805, 238.758 322.699 Q 238.758 327.738, 240.846 330.329 Q 242.969 332.92, 247.072 332.92 Q 249.879 332.92, 253.154 331.229 L 254.162 333.928 Q 252.83 334.791, 250.815 335.295 Q 248.799 335.799, 246.568 335.799 Q 241.026 335.799, 238.039 332.416 Q 235.088 329.033, 235.088 322.699 " fill="#000000"/>
<path class="atom-0" d="M 257.437 331.265 L 261.036 331.265 L 261.036 334.863 L 257.437 334.863 L 257.437 331.265 M 257.437 318.884 L 261.036 318.884 L 261.036 322.483 L 257.437 322.483 L 257.437 318.884 " fill="#000000"/>
<path class="atom-0" d="M 264.383 332.596 L 269.961 332.596 L 269.961 313.558 L 263.807 315.465 L 262.979 313.342 L 270.789 309.851 L 273.344 310.283 L 273.344 332.596 L 278.346 332.596 L 278.346 335.475 L 264.383 335.475 L 264.383 332.596 " fill="#000000"/>
<path class="atom-1" d="M 344.436 282.192 L 352.785 295.688 Q 353.613 297.02, 354.945 299.431 Q 356.276 301.842, 356.348 301.986 L 356.348 282.192 L 359.731 282.192 L 359.731 307.672 L 356.24 307.672 L 347.279 292.917 Q 346.236 291.189, 345.12 289.21 Q 344.04 287.231, 343.716 286.619 L 343.716 307.672 L 340.405 307.672 L 340.405 282.192 L 344.436 282.192 " fill="#0000FF"/>
<path class="atom-1" d="M 362.431 303.462 L 366.029 303.462 L 366.029 307.06 L 362.431 307.06 L 362.431 303.462 M 362.431 291.081 L 366.029 291.081 L 366.029 294.68 L 362.431 294.68 L 362.431 291.081 " fill="#0000FF"/>
<path class="atom-1" d="M 367.901 287.015 Q 368.837 284.603, 371.068 283.272 Q 373.299 281.904, 376.394 281.904 Q 380.245 281.904, 382.404 283.992 Q 384.564 286.079, 384.564 289.786 Q 384.564 293.565, 381.757 297.092 Q 378.985 300.618, 373.227 304.793 L 384.996 304.793 L 384.996 307.672 L 367.829 307.672 L 367.829 305.261 Q 372.579 301.878, 375.387 299.359 Q 378.23 296.84, 379.597 294.572 Q 380.965 292.305, 380.965 289.966 Q 380.965 287.518, 379.741 286.151 Q 378.518 284.783, 376.394 284.783 Q 374.343 284.783, 372.975 285.611 Q 371.608 286.439, 370.636 288.274 L 367.901 287.015 " fill="#0000FF"/>
<path class="atom-2" d="M 175.59 249.91 Q 175.59 243.576, 178.541 240.265 Q 181.528 236.918, 187.179 236.918 Q 192.433 236.918, 195.24 240.625 L 192.865 242.568 Q 190.814 239.869, 187.179 239.869 Q 183.328 239.869, 181.276 242.46 Q 179.261 245.016, 179.261 249.91 Q 179.261 254.948, 181.348 257.54 Q 183.472 260.131, 187.575 260.131 Q 190.382 260.131, 193.657 258.439 L 194.664 261.139 Q 193.333 262.002, 191.317 262.506 Q 189.302 263.01, 187.071 263.01 Q 181.528 263.01, 178.541 259.627 Q 175.59 256.244, 175.59 249.91 " fill="#000000"/>
<path class="atom-2" d="M 197.939 258.475 L 201.538 258.475 L 201.538 262.074 L 197.939 262.074 L 197.939 258.475 M 197.939 246.095 L 201.538 246.095 L 201.538 249.694 L 197.939 249.694 L 197.939 246.095 " fill="#000000"/>
<path class="atom-2" d="M 215.286 249.262 Q 217.769 249.982, 218.957 251.602 Q 220.181 253.185, 220.181 255.704 Q 220.181 257.864, 219.101 259.555 Q 218.021 261.211, 216.042 262.146 Q 214.062 263.046, 211.471 263.046 Q 208.736 263.046, 206.685 262.11 Q 204.669 261.139, 203.05 259.195 L 205.101 257.108 Q 206.685 258.835, 208.016 259.519 Q 209.348 260.167, 211.471 260.167 Q 213.774 260.167, 215.178 258.943 Q 216.582 257.684, 216.582 255.668 Q 216.582 253.077, 215.106 251.925 Q 213.667 250.738, 210.535 250.738 L 208.7 250.738 L 208.7 248.147 L 210.32 248.147 Q 213.091 248.111, 214.566 246.923 Q 216.042 245.699, 216.042 243.432 Q 216.042 241.777, 214.818 240.805 Q 213.595 239.797, 211.507 239.797 Q 209.384 239.797, 208.052 240.553 Q 206.757 241.309, 205.749 243.216 L 203.266 241.884 Q 204.165 239.761, 206.325 238.358 Q 208.484 236.918, 211.507 236.918 Q 215.25 236.918, 217.445 238.681 Q 219.641 240.445, 219.641 243.432 Q 219.641 245.483, 218.525 246.959 Q 217.409 248.434, 215.286 249.262 " fill="#000000"/>
<path class="atom-3" d="M 233.606 177.121 Q 233.606 170.787, 236.557 167.476 Q 239.544 164.129, 245.195 164.129 Q 250.449 164.129, 253.256 167.836 L 250.881 169.779 Q 248.829 167.08, 245.195 167.08 Q 241.344 167.08, 239.292 169.671 Q 237.277 172.226, 237.277 177.121 Q 237.277 182.159, 239.364 184.751 Q 241.488 187.342, 245.59 187.342 Q 248.398 187.342, 251.673 185.65 L 252.68 188.349 Q 251.349 189.213, 249.333 189.717 Q 247.318 190.221, 245.087 190.221 Q 239.544 190.221, 236.557 186.838 Q 233.606 183.455, 233.606 177.121 " fill="#000000"/>
<path class="atom-3" d="M 255.955 185.686 L 259.554 185.686 L 259.554 189.285 L 255.955 189.285 L 255.955 185.686 M 255.955 173.306 L 259.554 173.306 L 259.554 176.905 L 255.955 176.905 L 255.955 173.306 " fill="#000000"/>
<path class="atom-3" d="M 277.189 181.152 L 280.248 181.152 L 280.248 184.031 L 277.189 184.031 L 277.189 189.897 L 273.806 189.897 L 273.806 184.031 L 260.634 184.031 L 260.634 181.763 L 271.79 164.417 L 277.189 164.417 L 277.189 181.152 M 264.808 181.152 L 273.806 181.152 L 273.806 166.72 L 264.808 181.152 " fill="#000000"/>
<path class="atom-4" d="M 340.243 204.924 Q 340.243 198.59, 343.194 195.279 Q 346.182 191.932, 351.832 191.932 Q 357.086 191.932, 359.893 195.639 L 357.518 197.582 Q 355.467 194.883, 351.832 194.883 Q 347.981 194.883, 345.93 197.474 Q 343.914 200.029, 343.914 204.924 Q 343.914 209.962, 346.002 212.554 Q 348.125 215.145, 352.228 215.145 Q 355.035 215.145, 358.31 213.453 L 359.317 216.152 Q 357.986 217.016, 355.971 217.52 Q 353.955 218.024, 351.724 218.024 Q 346.182 218.024, 343.194 214.641 Q 340.243 211.258, 340.243 204.924 " fill="#000000"/>
<path class="atom-4" d="M 362.592 213.489 L 366.191 213.489 L 366.191 217.088 L 362.592 217.088 L 362.592 213.489 M 362.592 201.109 L 366.191 201.109 L 366.191 204.708 L 362.592 204.708 L 362.592 201.109 " fill="#000000"/>
<path class="atom-4" d="M 377.096 201.757 Q 379.327 201.757, 381.163 202.729 Q 382.998 203.664, 384.042 205.464 Q 385.086 207.227, 385.086 209.638 Q 385.086 212.266, 383.79 214.173 Q 382.53 216.044, 380.443 217.016 Q 378.356 217.988, 375.98 217.988 Q 373.641 217.988, 371.482 217.124 Q 369.322 216.26, 367.847 214.605 L 370.006 212.374 Q 371.194 213.669, 372.813 214.389 Q 374.433 215.073, 376.088 215.073 Q 378.356 215.073, 379.903 213.669 Q 381.487 212.266, 381.487 209.71 Q 381.487 207.011, 379.903 205.752 Q 378.356 204.456, 375.872 204.456 Q 373.641 204.456, 371.158 205.428 L 369.178 204.492 L 370.402 192.22 L 383.502 192.22 L 383.142 195.099 L 373.353 195.099 L 372.597 202.657 Q 374.865 201.757, 377.096 201.757 " fill="#000000"/>
<path class="atom-5" d="M 225 408.232 Q 225 402.114, 228.023 398.695 Q 231.046 395.276, 236.697 395.276 Q 242.347 395.276, 245.37 398.695 Q 248.393 402.114, 248.393 408.232 Q 248.393 414.422, 245.334 417.949 Q 242.275 421.44, 236.697 421.44 Q 231.082 421.44, 228.023 417.949 Q 225 414.458, 225 408.232 M 236.697 418.561 Q 240.583 418.561, 242.671 415.97 Q 244.794 413.342, 244.794 408.232 Q 244.794 403.229, 242.671 400.71 Q 240.583 398.155, 236.697 398.155 Q 232.81 398.155, 230.686 400.674 Q 228.599 403.193, 228.599 408.232 Q 228.599 413.378, 230.686 415.97 Q 232.81 418.561, 236.697 418.561 " fill="#FF0000"/>
<path class="atom-5" d="M 251.092 416.833 L 254.691 416.833 L 254.691 420.432 L 251.092 420.432 L 251.092 416.833 M 251.092 404.453 L 254.691 404.453 L 254.691 408.052 L 251.092 408.052 L 251.092 404.453 " fill="#FF0000"/>
<path class="atom-5" d="M 267.107 405.137 Q 269.339 405.137, 271.102 406.109 Q 272.865 407.08, 273.837 408.844 Q 274.809 410.607, 274.809 412.839 Q 274.809 415.322, 273.693 417.265 Q 272.614 419.173, 270.67 420.252 Q 268.727 421.332, 266.244 421.332 Q 261.709 421.332, 259.406 418.273 Q 257.138 415.178, 257.138 409.06 Q 257.138 402.294, 259.945 398.803 Q 262.789 395.276, 268.223 395.276 Q 269.806 395.276, 271.138 395.636 Q 272.506 395.996, 273.801 396.751 L 272.398 399.163 Q 270.526 398.155, 268.259 398.155 Q 264.66 398.155, 262.825 400.494 Q 260.989 402.798, 260.773 407.584 Q 262.069 406.397, 263.688 405.785 Q 265.344 405.137, 267.107 405.137 M 266.279 418.381 Q 267.647 418.381, 268.763 417.661 Q 269.914 416.941, 270.562 415.682 Q 271.21 414.422, 271.21 412.875 Q 271.21 410.607, 269.95 409.312 Q 268.691 408.016, 266.459 408.016 Q 264.912 408.016, 263.364 408.664 Q 261.853 409.276, 260.773 410.355 Q 260.917 414.566, 262.249 416.473 Q 263.58 418.381, 266.279 418.381 " fill="#FF0000"/>
<path class="atom-6" d="M 412.889 334.933 L 416.343 334.933 L 416.343 345.765 L 429.371 345.765 L 429.371 334.933 L 432.826 334.933 L 432.826 360.413 L 429.371 360.413 L 429.371 348.644 L 416.343 348.644 L 416.343 360.413 L 412.889 360.413 L 412.889 334.933 " fill="#000000"/>
<path class="atom-6" d="M 435.526 356.202 L 439.124 356.202 L 439.124 359.801 L 435.526 359.801 L 435.526 356.202 M 435.526 343.822 L 439.124 343.822 L 439.124 347.421 L 435.526 347.421 L 435.526 343.822 " fill="#000000"/>
<path class="atom-6" d="M 453.124 337.812 L 439.772 337.812 L 439.772 334.933 L 456.687 334.933 L 456.687 337.488 L 446.394 360.413 L 442.939 360.413 L 453.124 337.812 " fill="#000000"/>
<path class="atom-7" d="M 91.0403 249.91 Q 91.0403 243.576, 93.9913 240.265 Q 96.9784 236.918, 102.629 236.918 Q 107.883 236.918, 110.69 240.625 L 108.315 242.568 Q 106.264 239.869, 102.629 239.869 Q 98.7779 239.869, 96.7265 242.46 Q 94.7111 245.016, 94.7111 249.91 Q 94.7111 254.948, 96.7985 257.54 Q 98.9218 260.131, 103.025 260.131 Q 105.832 260.131, 109.107 258.439 L 110.114 261.139 Q 108.783 262.002, 106.767 262.506 Q 104.752 263.01, 102.521 263.01 Q 96.9784 263.01, 93.9913 259.627 Q 91.0403 256.244, 91.0403 249.91 " fill="#000000"/>
<path class="atom-7" d="M 113.389 258.475 L 116.988 258.475 L 116.988 262.074 L 113.389 262.074 L 113.389 258.475 M 113.389 246.095 L 116.988 246.095 L 116.988 249.694 L 113.389 249.694 L 113.389 246.095 " fill="#000000"/>
<path class="atom-7" d="M 132.212 249.19 Q 134.551 250.198, 135.882 251.709 Q 137.214 253.185, 137.214 255.704 Q 137.214 257.864, 136.098 259.555 Q 134.983 261.211, 132.967 262.146 Q 130.988 263.046, 128.361 263.046 Q 124.114 263.046, 121.667 261.103 Q 119.22 259.123, 119.22 255.704 Q 119.22 253.617, 120.299 252.069 Q 121.379 250.486, 123.61 249.298 Q 121.955 248.363, 121.055 246.995 Q 120.155 245.591, 120.155 243.432 Q 120.155 240.445, 122.315 238.681 Q 124.51 236.918, 128.217 236.918 Q 131.924 236.918, 134.083 238.681 Q 136.278 240.445, 136.278 243.432 Q 136.278 245.303, 135.235 246.707 Q 134.227 248.075, 132.212 249.19 M 128.217 239.617 Q 126.093 239.617, 124.906 240.625 Q 123.754 241.633, 123.754 243.432 Q 123.754 244.764, 124.546 245.663 Q 125.338 246.527, 126.453 247.031 Q 127.605 247.535, 129.8 248.291 Q 131.348 247.211, 131.996 246.059 Q 132.679 244.908, 132.679 243.432 Q 132.679 241.633, 131.492 240.625 Q 130.34 239.617, 128.217 239.617 M 128.361 260.347 Q 130.736 260.347, 132.176 259.087 Q 133.615 257.792, 133.615 255.668 Q 133.615 254.301, 132.859 253.437 Q 132.104 252.573, 130.952 252.069 Q 129.836 251.566, 127.821 250.918 L 126.201 250.378 Q 124.402 251.458, 123.61 252.753 Q 122.818 254.013, 122.818 255.668 Q 122.818 257.792, 124.33 259.087 Q 125.842 260.347, 128.361 260.347 " fill="#000000"/>
<path class="atom-8" d="M 226.728 78.848 L 230.183 78.848 L 230.183 89.6807 L 243.211 89.6807 L 243.211 78.848 L 246.666 78.848 L 246.666 104.328 L 243.211 104.328 L 243.211 92.5598 L 230.183 92.5598 L 230.183 104.328 L 226.728 104.328 L 226.728 78.848 " fill="#000000"/>
<path class="atom-8" d="M 249.365 100.117 L 252.964 100.117 L 252.964 103.716 L 249.365 103.716 L 249.365 100.117 M 249.365 87.7373 L 252.964 87.7373 L 252.964 91.3362 L 249.365 91.3362 L 249.365 87.7373 " fill="#000000"/>
<path class="atom-8" d="M 263.508 78.5601 Q 268.043 78.5601, 270.31 81.6552 Q 272.614 84.7142, 272.614 90.8323 Q 272.614 97.5983, 269.77 101.125 Q 266.963 104.616, 261.529 104.616 Q 259.945 104.616, 258.578 104.256 Q 257.246 103.896, 255.951 103.141 L 257.354 100.729 Q 259.226 101.737, 261.493 101.737 Q 265.092 101.737, 266.927 99.4337 Q 268.763 97.0944, 268.979 92.3079 Q 267.683 93.4955, 266.028 94.1433 Q 264.408 94.7551, 262.645 94.7551 Q 260.413 94.7551, 258.65 93.7834 Q 256.886 92.8117, 255.915 91.0483 Q 254.943 89.2848, 254.943 87.0535 Q 254.943 84.5703, 256.023 82.6629 Q 257.138 80.7195, 259.082 79.6398 Q 261.025 78.5601, 263.508 78.5601 M 258.542 87.0175 Q 258.542 89.2848, 259.801 90.5804 Q 261.061 91.876, 263.292 91.876 Q 264.84 91.876, 266.351 91.2642 Q 267.899 90.6164, 268.979 89.5367 Q 268.835 85.326, 267.503 83.4186 Q 266.172 81.5112, 263.472 81.5112 Q 262.105 81.5112, 260.953 82.231 Q 259.837 82.9508, 259.19 84.2104 Q 258.542 85.47, 258.542 87.0175 " fill="#000000"/>
<path class="atom-9" d="M 412.889 139.335 L 416.343 139.335 L 416.343 150.168 L 429.371 150.168 L 429.371 139.335 L 432.826 139.335 L 432.826 164.816 L 429.371 164.816 L 429.371 153.047 L 416.343 153.047 L 416.343 164.816 L 412.889 164.816 L 412.889 139.335 " fill="#000000"/>
<path class="atom-9" d="M 435.526 160.605 L 439.124 160.605 L 439.124 164.204 L 435.526 164.204 L 435.526 160.605 M 435.526 148.225 L 439.124 148.225 L 439.124 151.824 L 435.526 151.824 L 435.526 148.225 " fill="#000000"/>
<path class="atom-9" d="M 442.471 161.936 L 448.05 161.936 L 448.05 142.898 L 441.896 144.806 L 441.068 142.682 L 448.877 139.191 L 451.433 139.623 L 451.433 161.936 L 456.435 161.936 L 456.435 164.816 L 442.471 164.816 L 442.471 161.936 " fill="#000000"/>
<path class="atom-9" d="M 467.952 165.103 Q 463.273 165.103, 460.934 161.649 Q 458.63 158.194, 458.63 152.039 Q 458.63 145.885, 460.934 142.466 Q 463.237 139.047, 467.952 139.047 Q 472.666 139.047, 474.969 142.466 Q 477.273 145.885, 477.273 152.039 Q 477.273 158.194, 474.933 161.649 Q 472.63 165.103, 467.952 165.103 M 467.952 162.224 Q 470.723 162.224, 472.198 159.669 Q 473.674 157.078, 473.674 152.039 Q 473.674 147.037, 472.198 144.482 Q 470.723 141.927, 467.952 141.927 Q 465.216 141.927, 463.705 144.482 Q 462.229 147.037, 462.229 152.039 Q 462.229 157.078, 463.705 159.669 Q 465.216 162.224, 467.952 162.224 " fill="#000000"/>
<path class="atom-10" d="M 23.483 315.052 L 26.938 315.052 L 26.938 325.885 L 39.966 325.885 L 39.966 315.052 L 43.4209 315.052 L 43.4209 340.532 L 39.966 340.532 L 39.966 328.764 L 26.938 328.764 L 26.938 340.532 L 23.483 340.532 L 23.483 315.052 " fill="#000000"/>
<path class="atom-10" d="M 46.1201 336.322 L 49.719 336.322 L 49.719 339.921 L 46.1201 339.921 L 46.1201 336.322 M 46.1201 323.942 L 49.719 323.942 L 49.719 327.54 L 46.1201 327.54 L 46.1201 323.942 " fill="#000000"/>
<path class="atom-10" d="M 53.0659 337.653 L 58.6442 337.653 L 58.6442 318.615 L 52.4901 320.523 L 51.6624 318.399 L 59.472 314.908 L 62.0272 315.34 L 62.0272 337.653 L 67.0296 337.653 L 67.0296 340.532 L 53.0659 340.532 L 53.0659 337.653 " fill="#000000"/>
<path class="atom-10" d="M 70.3766 337.653 L 75.9549 337.653 L 75.9549 318.615 L 69.8008 320.523 L 68.973 318.399 L 76.7826 314.908 L 79.3379 315.34 L 79.3379 337.653 L 84.3403 337.653 L 84.3403 340.532 L 70.3766 340.532 L 70.3766 337.653 " fill="#000000"/>
<path class="atom-11" d="M 22.7273 159.288 L 26.1822 159.288 L 26.1822 170.12 L 39.2102 170.12 L 39.2102 159.288 L 42.6651 159.288 L 42.6651 184.768 L 39.2102 184.768 L 39.2102 172.999 L 26.1822 172.999 L 26.1822 184.768 L 22.7273 184.768 L 22.7273 159.288 " fill="#000000"/>
<path class="atom-11" d="M 45.3643 180.557 L 48.9632 180.557 L 48.9632 184.156 L 45.3643 184.156 L 45.3643 180.557 M 45.3643 168.177 L 48.9632 168.177 L 48.9632 171.776 L 45.3643 171.776 L 45.3643 168.177 " fill="#000000"/>
<path class="atom-11" d="M 52.3102 181.889 L 57.8885 181.889 L 57.8885 162.851 L 51.7343 164.758 L 50.9066 162.635 L 58.7162 159.144 L 61.2714 159.576 L 61.2714 181.889 L 66.2739 181.889 L 66.2739 184.768 L 52.3102 184.768 L 52.3102 181.889 " fill="#000000"/>
<path class="atom-11" d="M 68.1453 164.11 Q 69.081 161.699, 71.3123 160.367 Q 73.5436 159, 76.6387 159 Q 80.4895 159, 82.6488 161.087 Q 84.8082 163.174, 84.8082 166.881 Q 84.8082 170.66, 82.001 174.187 Q 79.2299 177.714, 73.4717 181.889 L 85.24 181.889 L 85.24 184.768 L 68.0733 184.768 L 68.0733 182.357 Q 72.8239 178.974, 75.631 176.454 Q 78.4741 173.935, 79.8417 171.668 Q 81.2093 169.401, 81.2093 167.061 Q 81.2093 164.614, 79.9857 163.246 Q 78.762 161.879, 76.6387 161.879 Q 74.5873 161.879, 73.2197 162.707 Q 71.8522 163.534, 70.8805 165.37 L 68.1453 164.11 " fill="#000000"/>
<text x="307.2839490548067" y="308.68970973411047" font-size="12" font-family="Verdana" font-weight="bold" letter-spacing="0" text-anchor="start" fill="black" transform=" rotate(72.000000 307.283949 308.689710)">1.0907</text><text x="25" y="490" font-size="12" font-family="Verdana" font-weight="bold" letter-spacing="0" text-anchor="start" fill="black">[#6:1]1(-[#7:2](-[#6:5](=[#6:4](-[#6:3]-1=[#6:8](-[H:11])-[H:12])-[H:9])-[H:10])-[H:7])=[#8:6]</text></svg>
