<?xml version='1.0' encoding='ASCII' standalone='yes'?>
<svg xmlns="http://www.w3.org/2000/svg" xmlns:rdkit="http://www.rdkit.org/xml" xmlns:xlink="http://www.w3.org/1999/xlink" version="1.1" baseProfile="full" xml:space="preserve" width="500px" height="500px" viewBox="0 0 500 500">
<!-- END OF HEADER -->
<rect style="opacity:1.0;fill:#FFFFFF;stroke:none" width="500.0" height="500.0" x="0.0" y="0.0"> </rect>
<path class="bond-1 atom-1 atom-2" d="M 289.7,290.9 L 351.6,268.4" style="fill:none;fill-rule:evenodd;stroke:#FF7F7F;stroke-width:14.0px;stroke-linecap:butt;stroke-linejoin:miter;stroke-opacity:1"/>
<path class="bond-0 atom-1 atom-0" d="M 276.2,279.5 L 264.6,269.8" style="fill:none;fill-rule:evenodd;stroke:#0000FF;stroke-width:2.0px;stroke-linecap:butt;stroke-linejoin:miter;stroke-opacity:1"/>
<path class="bond-0 atom-1 atom-0" d="M 264.6,269.8 L 253.0,260.1" style="fill:none;fill-rule:evenodd;stroke:#000000;stroke-width:2.0px;stroke-linecap:butt;stroke-linejoin:miter;stroke-opacity:1"/>
<path class="bond-1 atom-1 atom-2" d="M 308.6,284.0 L 320.9,279.6" style="fill:none;fill-rule:evenodd;stroke:#0000FF;stroke-width:2.0px;stroke-linecap:butt;stroke-linejoin:miter;stroke-opacity:1"/>
<path class="bond-1 atom-1 atom-2" d="M 320.9,279.6 L 333.2,275.1" style="fill:none;fill-rule:evenodd;stroke:#000000;stroke-width:2.0px;stroke-linecap:butt;stroke-linejoin:miter;stroke-opacity:1"/>
<path class="bond-2 atom-1 atom-4" d="M 287.2,305.2 L 283.7,324.8" style="fill:none;fill-rule:evenodd;stroke:#0000FF;stroke-width:2.0px;stroke-linecap:butt;stroke-linejoin:miter;stroke-opacity:1"/>
<path class="bond-2 atom-1 atom-4" d="M 283.7,324.8 L 280.2,344.4" style="fill:none;fill-rule:evenodd;stroke:#000000;stroke-width:2.0px;stroke-linecap:butt;stroke-linejoin:miter;stroke-opacity:1"/>
<path class="bond-3 atom-2 atom-3" d="M 353.6,256.9 L 361.0,215.1" style="fill:none;fill-rule:evenodd;stroke:#000000;stroke-width:2.0px;stroke-linecap:butt;stroke-linejoin:miter;stroke-opacity:1"/>
<path class="bond-4 atom-2 atom-5" d="M 369.9,275.2 L 382.7,286.0" style="fill:none;fill-rule:evenodd;stroke:#000000;stroke-width:2.0px;stroke-linecap:butt;stroke-linejoin:miter;stroke-opacity:1"/>
<path class="bond-4 atom-2 atom-5" d="M 382.7,286.0 L 395.6,296.8" style="fill:none;fill-rule:evenodd;stroke:#FF0000;stroke-width:2.0px;stroke-linecap:butt;stroke-linejoin:miter;stroke-opacity:1"/>
<path class="bond-4 atom-2 atom-5" d="M 361.4,285.3 L 374.2,296.0" style="fill:none;fill-rule:evenodd;stroke:#000000;stroke-width:2.0px;stroke-linecap:butt;stroke-linejoin:miter;stroke-opacity:1"/>
<path class="bond-4 atom-2 atom-5" d="M 374.2,296.0 L 387.1,306.8" style="fill:none;fill-rule:evenodd;stroke:#FF0000;stroke-width:2.0px;stroke-linecap:butt;stroke-linejoin:miter;stroke-opacity:1"/>
<path class="bond-5 atom-3 atom-15" d="M 372.4,205.2 L 418.5,213.4" style="fill:none;fill-rule:evenodd;stroke:#000000;stroke-width:2.0px;stroke-linecap:butt;stroke-linejoin:miter;stroke-opacity:1"/>
<path class="bond-6 atom-3 atom-16" d="M 333.7,194.6 L 330.1,193.5" style="fill:none;fill-rule:evenodd;stroke:#000000;stroke-width:2.0px;stroke-linecap:butt;stroke-linejoin:miter;stroke-opacity:1"/>
<path class="bond-7 atom-4 atom-11" d="M 296.7,359.0 L 333.6,365.5" style="fill:none;fill-rule:evenodd;stroke:#000000;stroke-width:2.0px;stroke-linecap:butt;stroke-linejoin:miter;stroke-opacity:1"/>
<path class="bond-8 atom-4 atom-12" d="M 259.8,352.4 L 221.8,345.7" style="fill:none;fill-rule:evenodd;stroke:#000000;stroke-width:2.0px;stroke-linecap:butt;stroke-linejoin:miter;stroke-opacity:1"/>
<path class="bond-9 atom-4 atom-13" d="M 275.6,370.4 L 268.7,409.2" style="fill:none;fill-rule:evenodd;stroke:#000000;stroke-width:2.0px;stroke-linecap:butt;stroke-linejoin:miter;stroke-opacity:1"/>
<path class="bond-10 atom-6 atom-0" d="M 248.7,195.5 L 240.8,240.2" style="fill:none;fill-rule:evenodd;stroke:#000000;stroke-width:2.0px;stroke-linecap:butt;stroke-linejoin:miter;stroke-opacity:1"/>
<path class="bond-10 atom-6 atom-0" d="M 234.5,199.9 L 229.0,231.2" style="fill:none;fill-rule:evenodd;stroke:#000000;stroke-width:2.0px;stroke-linecap:butt;stroke-linejoin:miter;stroke-opacity:1"/>
<path class="bond-11 atom-6 atom-17" d="M 273.1,172.4 L 279.9,168.9" style="fill:none;fill-rule:evenodd;stroke:#000000;stroke-width:2.0px;stroke-linecap:butt;stroke-linejoin:miter;stroke-opacity:1"/>
<path class="bond-12 atom-7 atom-8" d="M 157.2,157.0 L 181.8,148.1" style="fill:none;fill-rule:evenodd;stroke:#000000;stroke-width:2.0px;stroke-linecap:butt;stroke-linejoin:miter;stroke-opacity:1"/>
<path class="bond-12 atom-7 atom-8" d="M 165.4,168.0 L 182.6,161.8" style="fill:none;fill-rule:evenodd;stroke:#000000;stroke-width:2.0px;stroke-linecap:butt;stroke-linejoin:miter;stroke-opacity:1"/>
<path class="bond-13 atom-7 atom-9" d="M 135.9,178.6 L 129.0,217.2" style="fill:none;fill-rule:evenodd;stroke:#000000;stroke-width:2.0px;stroke-linecap:butt;stroke-linejoin:miter;stroke-opacity:1"/>
<path class="bond-14 atom-7 atom-21" d="M 124.8,152.2 L 96.5,128.5" style="fill:none;fill-rule:evenodd;stroke:#000000;stroke-width:2.0px;stroke-linecap:butt;stroke-linejoin:miter;stroke-opacity:1"/>
<path class="bond-15 atom-8 atom-6" d="M 214.4,153.1 L 241.5,175.9" style="fill:none;fill-rule:evenodd;stroke:#000000;stroke-width:2.0px;stroke-linecap:butt;stroke-linejoin:miter;stroke-opacity:1"/>
<path class="bond-16 atom-8 atom-18" d="M 202.4,129.8 L 209.8,88.0" style="fill:none;fill-rule:evenodd;stroke:#000000;stroke-width:2.0px;stroke-linecap:butt;stroke-linejoin:miter;stroke-opacity:1"/>
<path class="bond-17 atom-9 atom-10" d="M 141.0,240.4 L 163.7,259.4" style="fill:none;fill-rule:evenodd;stroke:#000000;stroke-width:2.0px;stroke-linecap:butt;stroke-linejoin:miter;stroke-opacity:1"/>
<path class="bond-17 atom-9 atom-10" d="M 152.9,233.1 L 168.8,246.5" style="fill:none;fill-rule:evenodd;stroke:#000000;stroke-width:2.0px;stroke-linecap:butt;stroke-linejoin:miter;stroke-opacity:1"/>
<path class="bond-18 atom-9 atom-19" d="M 101.9,237.7 L 74.1,247.8" style="fill:none;fill-rule:evenodd;stroke:#000000;stroke-width:2.0px;stroke-linecap:butt;stroke-linejoin:miter;stroke-opacity:1"/>
<path class="bond-19 atom-10 atom-0" d="M 201.3,262.3 L 221.5,255.0" style="fill:none;fill-rule:evenodd;stroke:#000000;stroke-width:2.0px;stroke-linecap:butt;stroke-linejoin:miter;stroke-opacity:1"/>
<path class="bond-20 atom-10 atom-20" d="M 174.8,285.6 L 167.9,324.5" style="fill:none;fill-rule:evenodd;stroke:#000000;stroke-width:2.0px;stroke-linecap:butt;stroke-linejoin:miter;stroke-opacity:1"/>
<path class="bond-21 atom-14 atom-3" d="M 372.0,153.3 L 368.5,172.8" style="fill:none;fill-rule:evenodd;stroke:#0000FF;stroke-width:2.0px;stroke-linecap:butt;stroke-linejoin:miter;stroke-opacity:1"/>
<path class="bond-21 atom-14 atom-3" d="M 368.5,172.8 L 365.1,192.3" style="fill:none;fill-rule:evenodd;stroke:#000000;stroke-width:2.0px;stroke-linecap:butt;stroke-linejoin:miter;stroke-opacity:1"/>
<path class="bond-22 atom-14 atom-22" d="M 399.6,129.7 L 413.3,124.7" style="fill:none;fill-rule:evenodd;stroke:#0000FF;stroke-width:2.0px;stroke-linecap:butt;stroke-linejoin:miter;stroke-opacity:1"/>
<path class="bond-22 atom-14 atom-22" d="M 413.3,124.7 L 427.0,119.7" style="fill:none;fill-rule:evenodd;stroke:#000000;stroke-width:2.0px;stroke-linecap:butt;stroke-linejoin:miter;stroke-opacity:1"/>
<path class="bond-23 atom-14 atom-23" d="M 361.0,127.4 L 347.2,115.8" style="fill:none;fill-rule:evenodd;stroke:#0000FF;stroke-width:2.0px;stroke-linecap:butt;stroke-linejoin:miter;stroke-opacity:1"/>
<path class="bond-23 atom-14 atom-23" d="M 347.2,115.8 L 333.5,104.2" style="fill:none;fill-rule:evenodd;stroke:#000000;stroke-width:2.0px;stroke-linecap:butt;stroke-linejoin:miter;stroke-opacity:1"/>
<path class="atom-0" d="M 223.7 248.6 Q 223.7 244.0, 225.8 241.5 Q 228.0 239.1, 232.1 239.1 Q 236.0 239.1, 238.0 241.8 L 236.3 243.2 Q 234.8 241.2, 232.1 241.2 Q 229.3 241.2, 227.8 243.1 Q 226.3 245.0, 226.3 248.6 Q 226.3 252.3, 227.9 254.2 Q 229.4 256.1, 232.4 256.1 Q 234.5 256.1, 236.9 254.8 L 237.6 256.8 Q 236.6 257.4, 235.2 257.8 Q 233.7 258.2, 232.1 258.2 Q 228.0 258.2, 225.8 255.7 Q 223.7 253.2, 223.7 248.6 " fill="#000000"/>
<path class="atom-0" d="M 239.1 254.9 L 241.7 254.9 L 241.7 257.5 L 239.1 257.5 L 239.1 254.9 M 239.1 245.8 L 241.7 245.8 L 241.7 248.4 L 239.1 248.4 L 239.1 245.8 " fill="#000000"/>
<path class="atom-0" d="M 244.7 255.8 L 248.8 255.8 L 248.8 241.9 L 244.3 243.3 L 243.7 241.7 L 249.4 239.2 L 251.3 239.5 L 251.3 255.8 L 254.9 255.8 L 254.9 257.9 L 244.7 257.9 L 244.7 255.8 " fill="#000000"/>
<path class="atom-1" d="M 275.9 281.7 L 282.0 291.5 Q 282.6 292.5, 283.6 294.3 Q 284.6 296.0, 284.6 296.1 L 284.6 281.7 L 287.1 281.7 L 287.1 300.3 L 284.5 300.3 L 278.0 289.5 Q 277.2 288.2, 276.4 286.8 Q 275.6 285.3, 275.4 284.9 L 275.4 300.3 L 273.0 300.3 L 273.0 281.7 L 275.9 281.7 " fill="#0000FF"/>
<path class="atom-1" d="M 289.3 297.2 L 291.9 297.2 L 291.9 299.9 L 289.3 299.9 L 289.3 297.2 M 289.3 288.2 L 291.9 288.2 L 291.9 290.8 L 289.3 290.8 L 289.3 288.2 " fill="#0000FF"/>
<path class="atom-1" d="M 293.9 285.2 Q 294.6 283.4, 296.3 282.4 Q 297.9 281.4, 300.2 281.4 Q 303.0 281.4, 304.6 283.0 Q 306.1 284.5, 306.1 287.2 Q 306.1 290.0, 304.1 292.6 Q 302.1 295.1, 297.8 298.2 L 306.5 298.2 L 306.5 300.3 L 293.9 300.3 L 293.9 298.5 Q 297.4 296.1, 299.4 294.2 Q 301.5 292.4, 302.5 290.7 Q 303.5 289.1, 303.5 287.3 Q 303.5 285.6, 302.6 284.6 Q 301.7 283.6, 300.2 283.6 Q 298.7 283.6, 297.7 284.2 Q 296.7 284.8, 295.9 286.1 L 293.9 285.2 " fill="#0000FF"/>
<path class="atom-2" d="M 335.3 268.5 Q 335.3 263.9, 337.5 261.4 Q 339.6 259.0, 343.8 259.0 Q 347.6 259.0, 349.7 261.7 L 347.9 263.1 Q 346.4 261.1, 343.8 261.1 Q 341.0 261.1, 339.5 263.0 Q 338.0 264.9, 338.0 268.5 Q 338.0 272.2, 339.5 274.1 Q 341.1 276.0, 344.1 276.0 Q 346.1 276.0, 348.5 274.7 L 349.3 276.7 Q 348.3 277.3, 346.8 277.7 Q 345.3 278.1, 343.7 278.1 Q 339.6 278.1, 337.5 275.6 Q 335.3 273.1, 335.3 268.5 " fill="#000000"/>
<path class="atom-2" d="M 350.7 274.8 L 353.4 274.8 L 353.4 277.4 L 350.7 277.4 L 350.7 274.8 M 350.7 265.7 L 353.4 265.7 L 353.4 268.3 L 350.7 268.3 L 350.7 265.7 " fill="#000000"/>
<path class="atom-2" d="M 364.3 268.0 Q 366.1 268.5, 367.0 269.7 Q 367.9 270.9, 367.9 272.7 Q 367.9 274.3, 367.1 275.5 Q 366.3 276.8, 364.8 277.4 Q 363.4 278.1, 361.5 278.1 Q 359.5 278.1, 358.0 277.4 Q 356.5 276.7, 355.3 275.3 L 356.8 273.8 Q 358.0 275.0, 359.0 275.5 Q 360.0 276.0, 361.5 276.0 Q 363.2 276.0, 364.2 275.1 Q 365.2 274.2, 365.2 272.7 Q 365.2 270.8, 364.2 270.0 Q 363.1 269.1, 360.8 269.1 L 359.5 269.1 L 359.5 267.2 L 360.7 267.2 Q 362.7 267.2, 363.8 266.3 Q 364.8 265.4, 364.8 263.7 Q 364.8 262.5, 364.0 261.8 Q 363.1 261.1, 361.5 261.1 Q 360.0 261.1, 359.0 261.6 Q 358.1 262.2, 357.3 263.6 L 355.5 262.6 Q 356.2 261.1, 357.7 260.0 Q 359.3 259.0, 361.5 259.0 Q 364.3 259.0, 365.9 260.3 Q 367.5 261.6, 367.5 263.7 Q 367.5 265.2, 366.7 266.3 Q 365.9 267.4, 364.3 268.0 " fill="#000000"/>
<path class="atom-3" d="M 335.9 203.7 Q 335.9 199.0, 338.0 196.6 Q 340.2 194.2, 344.3 194.2 Q 348.2 194.2, 350.2 196.9 L 348.5 198.3 Q 347.0 196.3, 344.3 196.3 Q 341.5 196.3, 340.0 198.2 Q 338.5 200.1, 338.5 203.7 Q 338.5 207.3, 340.1 209.2 Q 341.6 211.1, 344.6 211.1 Q 346.7 211.1, 349.1 209.9 L 349.8 211.9 Q 348.8 212.5, 347.4 212.9 Q 345.9 213.2, 344.3 213.2 Q 340.2 213.2, 338.0 210.8 Q 335.9 208.3, 335.9 203.7 " fill="#000000"/>
<path class="atom-3" d="M 351.3 209.9 L 353.9 209.9 L 353.9 212.6 L 351.3 212.6 L 351.3 209.9 M 351.3 200.9 L 353.9 200.9 L 353.9 203.5 L 351.3 203.5 L 351.3 200.9 " fill="#000000"/>
<path class="atom-3" d="M 368.0 206.6 L 370.3 206.6 L 370.3 208.7 L 368.0 208.7 L 368.0 213.0 L 365.5 213.0 L 365.5 208.7 L 355.9 208.7 L 355.9 207.1 L 364.1 194.4 L 368.0 194.4 L 368.0 206.6 M 359.0 206.6 L 365.5 206.6 L 365.5 196.0 L 359.0 206.6 " fill="#000000"/>
<path class="atom-4" d="M 261.9 355.8 Q 261.9 351.1, 264.0 348.7 Q 266.2 346.3, 270.4 346.3 Q 274.2 346.3, 276.3 349.0 L 274.5 350.4 Q 273.0 348.4, 270.4 348.4 Q 267.5 348.4, 266.0 350.3 Q 264.6 352.2, 264.6 355.8 Q 264.6 359.5, 266.1 361.4 Q 267.7 363.3, 270.7 363.3 Q 272.7 363.3, 275.1 362.0 L 275.8 364.0 Q 274.9 364.6, 273.4 365.0 Q 271.9 365.4, 270.3 365.4 Q 266.2 365.4, 264.0 362.9 Q 261.9 360.4, 261.9 355.8 " fill="#000000"/>
<path class="atom-4" d="M 277.3 362.1 L 280.0 362.1 L 280.0 364.7 L 277.3 364.7 L 277.3 362.1 M 277.3 353.0 L 280.0 353.0 L 280.0 355.6 L 277.3 355.6 L 277.3 353.0 " fill="#000000"/>
<path class="atom-4" d="M 288.7 353.5 Q 290.3 353.5, 291.7 354.2 Q 293.0 354.9, 293.8 356.2 Q 294.5 357.5, 294.5 359.2 Q 294.5 361.2, 293.6 362.6 Q 292.7 363.9, 291.1 364.6 Q 289.6 365.3, 287.9 365.3 Q 286.2 365.3, 284.6 364.7 Q 283.0 364.1, 281.9 362.9 L 283.5 361.2 Q 284.4 362.2, 285.6 362.7 Q 286.7 363.2, 288.0 363.2 Q 289.6 363.2, 290.7 362.2 Q 291.9 361.2, 291.9 359.3 Q 291.9 357.3, 290.7 356.4 Q 289.6 355.4, 287.8 355.4 Q 286.2 355.4, 284.4 356.2 L 282.9 355.5 L 283.8 346.5 L 293.4 346.5 L 293.1 348.6 L 286.0 348.6 L 285.4 354.1 Q 287.1 353.5, 288.7 353.5 " fill="#000000"/>
<path class="atom-5" d="M 393.4 310.8 Q 393.4 306.3, 395.6 303.8 Q 397.9 301.3, 402.0 301.3 Q 406.1 301.3, 408.3 303.8 Q 410.5 306.3, 410.5 310.8 Q 410.5 315.4, 408.3 317.9 Q 406.1 320.5, 402.0 320.5 Q 397.9 320.5, 395.6 317.9 Q 393.4 315.4, 393.4 310.8 M 402.0 318.4 Q 404.8 318.4, 406.4 316.5 Q 407.9 314.6, 407.9 310.8 Q 407.9 307.2, 406.4 305.3 Q 404.8 303.5, 402.0 303.5 Q 399.1 303.5, 397.6 305.3 Q 396.1 307.1, 396.1 310.8 Q 396.1 314.6, 397.6 316.5 Q 399.1 318.4, 402.0 318.4 " fill="#FF0000"/>
<path class="atom-5" d="M 411.9 317.1 L 414.5 317.1 L 414.5 319.8 L 411.9 319.8 L 411.9 317.1 M 411.9 308.1 L 414.5 308.1 L 414.5 310.7 L 411.9 310.7 L 411.9 308.1 " fill="#FF0000"/>
<path class="atom-5" d="M 423.8 308.6 Q 425.4 308.6, 426.7 309.3 Q 428.0 310.0, 428.7 311.3 Q 429.4 312.6, 429.4 314.2 Q 429.4 316.0, 428.6 317.4 Q 427.8 318.8, 426.4 319.6 Q 425.0 320.4, 423.1 320.4 Q 419.8 320.4, 418.1 318.2 Q 416.5 315.9, 416.5 311.4 Q 416.5 306.5, 418.5 303.9 Q 420.6 301.3, 424.6 301.3 Q 425.7 301.3, 426.7 301.6 Q 427.7 301.9, 428.7 302.4 L 427.6 304.2 Q 426.3 303.5, 424.6 303.5 Q 422.0 303.5, 420.6 305.2 Q 419.3 306.8, 419.1 310.4 Q 420.1 309.5, 421.3 309.0 Q 422.5 308.6, 423.8 308.6 M 423.2 318.3 Q 424.2 318.3, 425.0 317.7 Q 425.8 317.2, 426.3 316.3 Q 426.8 315.4, 426.8 314.2 Q 426.8 312.6, 425.8 311.6 Q 424.9 310.7, 423.3 310.7 Q 422.2 310.7, 421.0 311.1 Q 419.9 311.6, 419.1 312.4 Q 419.2 315.5, 420.2 316.9 Q 421.2 318.3, 423.2 318.3 " fill="#FF0000"/>
<path class="atom-6" d="M 243.6 183.8 Q 243.6 179.1, 245.8 176.7 Q 247.9 174.3, 252.1 174.3 Q 255.9 174.3, 258.0 177.0 L 256.2 178.4 Q 254.7 176.4, 252.1 176.4 Q 249.3 176.4, 247.8 178.3 Q 246.3 180.2, 246.3 183.8 Q 246.3 187.4, 247.8 189.3 Q 249.4 191.2, 252.4 191.2 Q 254.4 191.2, 256.8 190.0 L 257.6 192.0 Q 256.6 192.6, 255.1 193.0 Q 253.6 193.3, 252.0 193.3 Q 247.9 193.3, 245.8 190.9 Q 243.6 188.4, 243.6 183.8 " fill="#000000"/>
<path class="atom-6" d="M 259.0 190.0 L 261.7 190.0 L 261.7 192.7 L 259.0 192.7 L 259.0 190.0 M 259.0 181.0 L 261.7 181.0 L 261.7 183.6 L 259.0 183.6 L 259.0 181.0 " fill="#000000"/>
<path class="atom-6" d="M 273.4 176.6 L 263.6 176.6 L 263.6 174.5 L 276.0 174.5 L 276.0 176.3 L 268.5 193.1 L 266.0 193.1 L 273.4 176.6 " fill="#000000"/>
<path class="atom-7" d="M 121.9 163.9 Q 121.9 159.2, 124.1 156.8 Q 126.2 154.4, 130.4 154.4 Q 134.2 154.4, 136.3 157.1 L 134.5 158.5 Q 133.0 156.5, 130.4 156.5 Q 127.6 156.5, 126.1 158.4 Q 124.6 160.3, 124.6 163.9 Q 124.6 167.6, 126.1 169.4 Q 127.7 171.3, 130.7 171.3 Q 132.7 171.3, 135.1 170.1 L 135.9 172.1 Q 134.9 172.7, 133.4 173.1 Q 131.9 173.5, 130.3 173.5 Q 126.2 173.5, 124.1 171.0 Q 121.9 168.5, 121.9 163.9 " fill="#000000"/>
<path class="atom-7" d="M 137.3 170.1 L 140.0 170.1 L 140.0 172.8 L 137.3 172.8 L 137.3 170.1 M 137.3 161.1 L 140.0 161.1 L 140.0 163.7 L 137.3 163.7 L 137.3 161.1 " fill="#000000"/>
<path class="atom-7" d="M 151.4 163.3 Q 153.2 164.1, 154.1 165.2 Q 155.1 166.3, 155.1 168.1 Q 155.1 169.7, 154.3 170.9 Q 153.5 172.1, 152.0 172.8 Q 150.6 173.5, 148.6 173.5 Q 145.5 173.5, 143.7 172.1 Q 141.9 170.6, 141.9 168.1 Q 141.9 166.6, 142.7 165.4 Q 143.5 164.3, 145.2 163.4 Q 143.9 162.7, 143.3 161.7 Q 142.6 160.7, 142.6 159.1 Q 142.6 156.9, 144.2 155.6 Q 145.8 154.4, 148.5 154.4 Q 151.2 154.4, 152.8 155.6 Q 154.4 156.9, 154.4 159.1 Q 154.4 160.5, 153.7 161.5 Q 152.9 162.5, 151.4 163.3 M 148.5 156.3 Q 147.0 156.3, 146.1 157.1 Q 145.3 157.8, 145.3 159.1 Q 145.3 160.1, 145.8 160.8 Q 146.4 161.4, 147.2 161.8 Q 148.1 162.1, 149.7 162.7 Q 150.8 161.9, 151.3 161.0 Q 151.8 160.2, 151.8 159.1 Q 151.8 157.8, 150.9 157.1 Q 150.1 156.3, 148.5 156.3 M 148.6 171.5 Q 150.4 171.5, 151.4 170.6 Q 152.5 169.6, 152.5 168.1 Q 152.5 167.1, 151.9 166.4 Q 151.4 165.8, 150.5 165.4 Q 149.7 165.1, 148.2 164.6 L 147.0 164.2 Q 145.7 165.0, 145.2 165.9 Q 144.6 166.9, 144.6 168.1 Q 144.6 169.6, 145.7 170.6 Q 146.8 171.5, 148.6 171.5 " fill="#000000"/>
<path class="atom-8" d="M 183.9 141.4 Q 183.9 136.8, 186.1 134.3 Q 188.2 131.9, 192.4 131.9 Q 196.2 131.9, 198.3 134.6 L 196.5 136.0 Q 195.0 134.1, 192.4 134.1 Q 189.6 134.1, 188.1 135.9 Q 186.6 137.8, 186.6 141.4 Q 186.6 145.1, 188.1 147.0 Q 189.7 148.9, 192.7 148.9 Q 194.7 148.9, 197.1 147.6 L 197.9 149.6 Q 196.9 150.2, 195.4 150.6 Q 193.9 151.0, 192.3 151.0 Q 188.2 151.0, 186.1 148.5 Q 183.9 146.0, 183.9 141.4 " fill="#000000"/>
<path class="atom-8" d="M 199.3 147.7 L 202.0 147.7 L 202.0 150.3 L 199.3 150.3 L 199.3 147.7 M 199.3 138.6 L 202.0 138.6 L 202.0 141.2 L 199.3 141.2 L 199.3 138.6 " fill="#000000"/>
<path class="atom-8" d="M 210.2 131.9 Q 213.5 131.9, 215.2 134.2 Q 216.9 136.4, 216.9 140.9 Q 216.9 145.8, 214.8 148.4 Q 212.7 151.0, 208.8 151.0 Q 207.6 151.0, 206.6 150.7 Q 205.6 150.4, 204.7 149.9 L 205.7 148.1 Q 207.1 148.9, 208.7 148.9 Q 211.4 148.9, 212.7 147.2 Q 214.1 145.5, 214.2 142.0 Q 213.3 142.8, 212.1 143.3 Q 210.9 143.7, 209.6 143.7 Q 207.9 143.7, 206.7 143.0 Q 205.4 142.3, 204.7 141.0 Q 203.9 139.7, 203.9 138.1 Q 203.9 136.3, 204.7 134.9 Q 205.6 133.5, 207.0 132.7 Q 208.4 131.9, 210.2 131.9 M 206.6 138.1 Q 206.6 139.7, 207.5 140.7 Q 208.4 141.6, 210.1 141.6 Q 211.2 141.6, 212.3 141.2 Q 213.4 140.7, 214.2 139.9 Q 214.1 136.8, 213.1 135.4 Q 212.2 134.1, 210.2 134.1 Q 209.2 134.1, 208.3 134.6 Q 207.5 135.1, 207.1 136.0 Q 206.6 136.9, 206.6 138.1 " fill="#000000"/>
<path class="atom-9" d="M 104.0 228.7 Q 104.0 224.1, 106.2 221.6 Q 108.3 219.2, 112.5 219.2 Q 116.3 219.2, 118.4 221.9 L 116.6 223.3 Q 115.1 221.3, 112.5 221.3 Q 109.7 221.3, 108.2 223.2 Q 106.7 225.1, 106.7 228.7 Q 106.7 232.4, 108.2 234.3 Q 109.8 236.2, 112.8 236.2 Q 114.8 236.2, 117.2 234.9 L 118.0 236.9 Q 117.0 237.5, 115.5 237.9 Q 114.0 238.3, 112.4 238.3 Q 108.3 238.3, 106.2 235.8 Q 104.0 233.3, 104.0 228.7 " fill="#000000"/>
<path class="atom-9" d="M 119.4 235.0 L 122.1 235.0 L 122.1 237.6 L 119.4 237.6 L 119.4 235.0 M 119.4 225.9 L 122.1 225.9 L 122.1 228.5 L 119.4 228.5 L 119.4 225.9 " fill="#000000"/>
<path class="atom-9" d="M 125.1 235.9 L 129.1 235.9 L 129.1 222.0 L 124.6 223.4 L 124.0 221.8 L 129.8 219.3 L 131.6 219.6 L 131.6 235.9 L 135.3 235.9 L 135.3 238.0 L 125.1 238.0 L 125.1 235.9 " fill="#000000"/>
<path class="atom-9" d="M 143.2 238.3 Q 139.8 238.3, 138.1 235.7 Q 136.4 233.2, 136.4 228.7 Q 136.4 224.2, 138.1 221.7 Q 139.8 219.2, 143.2 219.2 Q 146.7 219.2, 148.3 221.7 Q 150.0 224.2, 150.0 228.7 Q 150.0 233.2, 148.3 235.7 Q 146.6 238.3, 143.2 238.3 M 143.2 236.1 Q 145.2 236.1, 146.3 234.3 Q 147.4 232.4, 147.4 228.7 Q 147.4 225.0, 146.3 223.2 Q 145.2 221.3, 143.2 221.3 Q 141.2 221.3, 140.1 223.2 Q 139.0 225.0, 139.0 228.7 Q 139.0 232.4, 140.1 234.3 Q 141.2 236.1, 143.2 236.1 " fill="#000000"/>
<path class="atom-10" d="M 155.6 271.1 Q 155.6 266.4, 157.8 264.0 Q 159.9 261.5, 164.1 261.5 Q 167.9 261.5, 170.0 264.3 L 168.2 265.7 Q 166.7 263.7, 164.1 263.7 Q 161.3 263.7, 159.8 265.6 Q 158.3 267.5, 158.3 271.1 Q 158.3 274.7, 159.8 276.6 Q 161.4 278.5, 164.4 278.5 Q 166.4 278.5, 168.8 277.3 L 169.6 279.3 Q 168.6 279.9, 167.1 280.3 Q 165.6 280.6, 164.0 280.6 Q 159.9 280.6, 157.8 278.2 Q 155.6 275.7, 155.6 271.1 " fill="#000000"/>
<path class="atom-10" d="M 171.0 277.3 L 173.7 277.3 L 173.7 280.0 L 171.0 280.0 L 171.0 277.3 M 171.0 268.3 L 173.7 268.3 L 173.7 270.9 L 171.0 270.9 L 171.0 268.3 " fill="#000000"/>
<path class="atom-10" d="M 176.7 278.3 L 180.7 278.3 L 180.7 264.4 L 176.2 265.8 L 175.6 264.2 L 181.4 261.7 L 183.2 262.0 L 183.2 278.3 L 186.9 278.3 L 186.9 280.4 L 176.7 280.4 L 176.7 278.3 " fill="#000000"/>
<path class="atom-10" d="M 189.0 278.3 L 193.1 278.3 L 193.1 264.4 L 188.6 265.8 L 188.0 264.2 L 193.7 261.7 L 195.6 262.0 L 195.6 278.3 L 199.2 278.3 L 199.2 280.4 L 189.0 280.4 L 189.0 278.3 " fill="#000000"/>
<path class="atom-11" d="M 335.7 358.0 L 338.3 358.0 L 338.3 365.9 L 347.8 365.9 L 347.8 358.0 L 350.3 358.0 L 350.3 376.6 L 347.8 376.6 L 347.8 368.0 L 338.3 368.0 L 338.3 376.6 L 335.7 376.6 L 335.7 358.0 " fill="#000000"/>
<path class="atom-11" d="M 352.6 373.5 L 355.2 373.5 L 355.2 376.2 L 352.6 376.2 L 352.6 373.5 M 352.6 364.5 L 355.2 364.5 L 355.2 367.1 L 352.6 367.1 L 352.6 364.5 " fill="#000000"/>
<path class="atom-11" d="M 358.2 374.5 L 362.3 374.5 L 362.3 360.6 L 357.8 362.0 L 357.2 360.4 L 362.9 357.9 L 364.8 358.2 L 364.8 374.5 L 368.4 374.5 L 368.4 376.6 L 358.2 376.6 L 358.2 374.5 " fill="#000000"/>
<path class="atom-11" d="M 369.6 361.5 Q 370.3 359.7, 371.9 358.8 Q 373.5 357.8, 375.8 357.8 Q 378.6 357.8, 380.2 359.3 Q 381.8 360.8, 381.8 363.5 Q 381.8 366.3, 379.7 368.9 Q 377.7 371.5, 373.5 374.5 L 382.1 374.5 L 382.1 376.6 L 369.5 376.6 L 369.5 374.9 Q 373.0 372.4, 375.1 370.5 Q 377.1 368.7, 378.1 367.0 Q 379.1 365.4, 379.1 363.7 Q 379.1 361.9, 378.3 360.9 Q 377.4 359.9, 375.8 359.9 Q 374.3 359.9, 373.3 360.5 Q 372.3 361.1, 371.6 362.4 L 369.6 361.5 " fill="#000000"/>
<path class="atom-12" d="M 173.3 335.0 L 175.9 335.0 L 175.9 342.9 L 185.4 342.9 L 185.4 335.0 L 187.9 335.0 L 187.9 353.6 L 185.4 353.6 L 185.4 345.0 L 175.9 345.0 L 175.9 353.6 L 173.3 353.6 L 173.3 335.0 " fill="#000000"/>
<path class="atom-12" d="M 190.2 350.6 L 192.8 350.6 L 192.8 353.2 L 190.2 353.2 L 190.2 350.6 M 190.2 341.5 L 192.8 341.5 L 192.8 344.1 L 190.2 344.1 L 190.2 341.5 " fill="#000000"/>
<path class="atom-12" d="M 195.8 351.5 L 199.9 351.5 L 199.9 337.6 L 195.4 339.0 L 194.8 337.4 L 200.5 334.9 L 202.4 335.2 L 202.4 351.5 L 206.0 351.5 L 206.0 353.6 L 195.8 353.6 L 195.8 351.5 " fill="#000000"/>
<path class="atom-12" d="M 216.1 343.8 Q 217.9 344.3, 218.8 345.5 Q 219.7 346.7, 219.7 348.5 Q 219.7 350.1, 218.9 351.4 Q 218.1 352.6, 216.6 353.2 Q 215.2 353.9, 213.3 353.9 Q 211.3 353.9, 209.8 353.2 Q 208.3 352.5, 207.1 351.1 L 208.6 349.6 Q 209.8 350.8, 210.8 351.3 Q 211.7 351.8, 213.3 351.8 Q 215.0 351.8, 216.0 350.9 Q 217.0 350.0, 217.0 348.5 Q 217.0 346.6, 215.9 345.8 Q 214.9 344.9, 212.6 344.9 L 211.3 344.9 L 211.3 343.0 L 212.4 343.0 Q 214.5 343.0, 215.5 342.1 Q 216.6 341.2, 216.6 339.6 Q 216.6 338.3, 215.7 337.6 Q 214.8 336.9, 213.3 336.9 Q 211.8 336.9, 210.8 337.4 Q 209.8 338.0, 209.1 339.4 L 207.3 338.4 Q 207.9 336.9, 209.5 335.8 Q 211.1 334.8, 213.3 334.8 Q 216.0 334.8, 217.7 336.1 Q 219.3 337.4, 219.3 339.6 Q 219.3 341.1, 218.4 342.1 Q 217.6 343.2, 216.1 343.8 " fill="#000000"/>
<path class="atom-13" d="M 259.4 411.3 L 262.0 411.3 L 262.0 419.2 L 271.5 419.2 L 271.5 411.3 L 274.0 411.3 L 274.0 429.9 L 271.5 429.9 L 271.5 421.3 L 262.0 421.3 L 262.0 429.9 L 259.4 429.9 L 259.4 411.3 " fill="#000000"/>
<path class="atom-13" d="M 276.3 426.8 L 278.9 426.8 L 278.9 429.5 L 276.3 429.5 L 276.3 426.8 M 276.3 417.8 L 278.9 417.8 L 278.9 420.4 L 276.3 420.4 L 276.3 417.8 " fill="#000000"/>
<path class="atom-13" d="M 281.9 427.8 L 286.0 427.8 L 286.0 413.9 L 281.5 415.3 L 280.9 413.7 L 286.6 411.2 L 288.5 411.5 L 288.5 427.8 L 292.1 427.8 L 292.1 429.9 L 281.9 429.9 L 281.9 427.8 " fill="#000000"/>
<path class="atom-13" d="M 305.3 423.5 L 307.6 423.5 L 307.6 425.6 L 305.3 425.6 L 305.3 429.9 L 302.9 429.9 L 302.9 425.6 L 293.2 425.6 L 293.2 424.0 L 301.4 411.3 L 305.3 411.3 L 305.3 423.5 M 296.3 423.5 L 302.9 423.5 L 302.9 412.9 L 296.3 423.5 " fill="#000000"/>
<path class="atom-14" d="M 354.6 129.5 L 360.7 139.4 Q 361.3 140.3, 362.3 142.1 Q 363.2 143.9, 363.3 144.0 L 363.3 129.5 L 365.8 129.5 L 365.8 148.1 L 363.2 148.1 L 356.6 137.3 Q 355.9 136.1, 355.1 134.6 Q 354.3 133.2, 354.0 132.7 L 354.0 148.1 L 351.6 148.1 L 351.6 129.5 L 354.6 129.5 " fill="#0000FF"/>
<path class="atom-14" d="M 367.9 145.0 L 370.6 145.0 L 370.6 147.7 L 367.9 147.7 L 367.9 145.0 M 367.9 136.0 L 370.6 136.0 L 370.6 138.6 L 367.9 138.6 L 367.9 136.0 " fill="#0000FF"/>
<path class="atom-14" d="M 373.6 146.0 L 377.7 146.0 L 377.7 132.1 L 373.2 133.5 L 372.6 131.9 L 378.3 129.4 L 380.1 129.7 L 380.1 146.0 L 383.8 146.0 L 383.8 148.1 L 373.6 148.1 L 373.6 146.0 " fill="#0000FF"/>
<path class="atom-14" d="M 391.7 136.5 Q 393.3 136.5, 394.6 137.2 Q 396.0 137.9, 396.8 139.2 Q 397.5 140.5, 397.5 142.2 Q 397.5 144.2, 396.6 145.5 Q 395.6 146.9, 394.1 147.6 Q 392.6 148.3, 390.9 148.3 Q 389.1 148.3, 387.6 147.7 Q 386.0 147.1, 384.9 145.9 L 386.5 144.2 Q 387.4 145.2, 388.5 145.7 Q 389.7 146.2, 390.9 146.2 Q 392.6 146.2, 393.7 145.2 Q 394.9 144.2, 394.9 142.3 Q 394.9 140.3, 393.7 139.4 Q 392.6 138.4, 390.8 138.4 Q 389.1 138.4, 387.3 139.1 L 385.9 138.5 L 386.8 129.5 L 396.4 129.5 L 396.1 131.6 L 388.9 131.6 L 388.4 137.1 Q 390.0 136.5, 391.7 136.5 " fill="#0000FF"/>
<path class="atom-15" d="M 420.6 205.9 L 423.1 205.9 L 423.1 213.8 L 432.7 213.8 L 432.7 205.9 L 435.2 205.9 L 435.2 224.5 L 432.7 224.5 L 432.7 215.9 L 423.1 215.9 L 423.1 224.5 L 420.6 224.5 L 420.6 205.9 " fill="#000000"/>
<path class="atom-15" d="M 437.4 221.4 L 440.1 221.4 L 440.1 224.0 L 437.4 224.0 L 437.4 221.4 M 437.4 212.4 L 440.1 212.4 L 440.1 215.0 L 437.4 215.0 L 437.4 212.4 " fill="#000000"/>
<path class="atom-15" d="M 443.1 222.4 L 447.2 222.4 L 447.2 208.5 L 442.7 209.9 L 442.0 208.3 L 447.8 205.7 L 449.6 206.1 L 449.6 222.4 L 453.3 222.4 L 453.3 224.5 L 443.1 224.5 L 443.1 222.4 " fill="#000000"/>
<path class="atom-15" d="M 461.7 212.9 Q 463.3 212.9, 464.6 213.6 Q 465.9 214.3, 466.6 215.6 Q 467.3 216.9, 467.3 218.5 Q 467.3 220.3, 466.5 221.7 Q 465.7 223.1, 464.3 223.9 Q 462.9 224.7, 461.1 224.7 Q 457.7 224.7, 456.1 222.5 Q 454.4 220.2, 454.4 215.7 Q 454.4 210.8, 456.5 208.2 Q 458.5 205.6, 462.5 205.6 Q 463.7 205.6, 464.6 205.9 Q 465.6 206.2, 466.6 206.7 L 465.6 208.5 Q 464.2 207.7, 462.5 207.7 Q 459.9 207.7, 458.6 209.5 Q 457.2 211.1, 457.1 214.6 Q 458.0 213.8, 459.2 213.3 Q 460.4 212.9, 461.7 212.9 M 461.1 222.5 Q 462.1 222.5, 462.9 222.0 Q 463.7 221.5, 464.2 220.6 Q 464.7 219.7, 464.7 218.5 Q 464.7 216.9, 463.8 215.9 Q 462.9 215.0, 461.2 215.0 Q 460.1 215.0, 459.0 215.4 Q 457.8 215.9, 457.1 216.7 Q 457.2 219.8, 458.1 221.2 Q 459.1 222.5, 461.1 222.5 " fill="#000000"/>
<path class="atom-16" d="M 281.8 181.6 L 284.3 181.6 L 284.3 189.6 L 293.9 189.6 L 293.9 181.6 L 296.4 181.6 L 296.4 200.3 L 293.9 200.3 L 293.9 191.7 L 284.3 191.7 L 284.3 200.3 L 281.8 200.3 L 281.8 181.6 " fill="#000000"/>
<path class="atom-16" d="M 298.6 197.2 L 301.3 197.2 L 301.3 199.8 L 298.6 199.8 L 298.6 197.2 M 298.6 188.1 L 301.3 188.1 L 301.3 190.8 L 298.6 190.8 L 298.6 188.1 " fill="#000000"/>
<path class="atom-16" d="M 304.3 198.2 L 308.3 198.2 L 308.3 184.3 L 303.8 185.6 L 303.2 184.1 L 309.0 181.5 L 310.8 181.9 L 310.8 198.2 L 314.5 198.2 L 314.5 200.3 L 304.3 200.3 L 304.3 198.2 " fill="#000000"/>
<path class="atom-16" d="M 325.4 183.8 L 315.6 183.8 L 315.6 181.6 L 328.0 181.6 L 328.0 183.5 L 320.4 200.3 L 317.9 200.3 L 325.4 183.8 " fill="#000000"/>
<path class="atom-17" d="M 282.0 154.9 L 284.5 154.9 L 284.5 162.8 L 294.1 162.8 L 294.1 154.9 L 296.6 154.9 L 296.6 173.5 L 294.1 173.5 L 294.1 164.9 L 284.5 164.9 L 284.5 173.5 L 282.0 173.5 L 282.0 154.9 " fill="#000000"/>
<path class="atom-17" d="M 298.8 170.5 L 301.5 170.5 L 301.5 173.1 L 298.8 173.1 L 298.8 170.5 M 298.8 161.4 L 301.5 161.4 L 301.5 164.0 L 298.8 164.0 L 298.8 161.4 " fill="#000000"/>
<path class="atom-17" d="M 304.5 171.4 L 308.5 171.4 L 308.5 157.5 L 304.0 158.9 L 303.4 157.3 L 309.2 154.8 L 311.0 155.1 L 311.0 171.4 L 314.7 171.4 L 314.7 173.5 L 304.5 173.5 L 304.5 171.4 " fill="#000000"/>
<path class="atom-17" d="M 325.3 163.7 Q 327.0 164.4, 328.0 165.5 Q 329.0 166.6, 329.0 168.4 Q 329.0 170.0, 328.1 171.2 Q 327.3 172.5, 325.8 173.1 Q 324.4 173.8, 322.5 173.8 Q 319.4 173.8, 317.6 172.4 Q 315.8 170.9, 315.8 168.4 Q 315.8 166.9, 316.6 165.8 Q 317.4 164.6, 319.0 163.7 Q 317.8 163.1, 317.1 162.0 Q 316.5 161.0, 316.5 159.4 Q 316.5 157.3, 318.1 156.0 Q 319.7 154.7, 322.4 154.7 Q 325.1 154.7, 326.7 156.0 Q 328.3 157.3, 328.3 159.4 Q 328.3 160.8, 327.5 161.8 Q 326.8 162.8, 325.3 163.7 M 322.4 156.7 Q 320.8 156.7, 319.9 157.4 Q 319.1 158.1, 319.1 159.4 Q 319.1 160.4, 319.7 161.1 Q 320.3 161.7, 321.1 162.1 Q 321.9 162.4, 323.5 163.0 Q 324.7 162.2, 325.1 161.4 Q 325.6 160.5, 325.6 159.4 Q 325.6 158.1, 324.8 157.4 Q 323.9 156.7, 322.4 156.7 M 322.5 171.8 Q 324.2 171.8, 325.3 170.9 Q 326.3 170.0, 326.3 168.4 Q 326.3 167.4, 325.8 166.8 Q 325.2 166.1, 324.4 165.8 Q 323.6 165.4, 322.1 164.9 L 320.9 164.5 Q 319.6 165.3, 319.0 166.3 Q 318.4 167.2, 318.4 168.4 Q 318.4 170.0, 319.5 170.9 Q 320.6 171.8, 322.5 171.8 " fill="#000000"/>
<path class="atom-18" d="M 204.6 67.3 L 207.1 67.3 L 207.1 75.2 L 216.6 75.2 L 216.6 67.3 L 219.2 67.3 L 219.2 85.9 L 216.6 85.9 L 216.6 77.3 L 207.1 77.3 L 207.1 85.9 L 204.6 85.9 L 204.6 67.3 " fill="#000000"/>
<path class="atom-18" d="M 221.4 82.8 L 224.0 82.8 L 224.0 85.5 L 221.4 85.5 L 221.4 82.8 M 221.4 73.8 L 224.0 73.8 L 224.0 76.4 L 221.4 76.4 L 221.4 73.8 " fill="#000000"/>
<path class="atom-18" d="M 227.0 83.8 L 231.1 83.8 L 231.1 69.9 L 226.6 71.3 L 226.0 69.7 L 231.7 67.2 L 233.6 67.5 L 233.6 83.8 L 237.3 83.8 L 237.3 85.9 L 227.0 85.9 L 227.0 83.8 " fill="#000000"/>
<path class="atom-18" d="M 244.6 67.1 Q 248.0 67.1, 249.6 69.3 Q 251.3 71.6, 251.3 76.0 Q 251.3 81.0, 249.2 83.6 Q 247.2 86.1, 243.2 86.1 Q 242.0 86.1, 241.0 85.9 Q 240.1 85.6, 239.1 85.0 L 240.1 83.3 Q 241.5 84.0, 243.2 84.0 Q 245.8 84.0, 247.1 82.3 Q 248.5 80.6, 248.6 77.1 Q 247.7 78.0, 246.5 78.5 Q 245.3 78.9, 244.0 78.9 Q 242.4 78.9, 241.1 78.2 Q 239.8 77.5, 239.1 76.2 Q 238.4 74.9, 238.4 73.3 Q 238.4 71.5, 239.2 70.1 Q 240.0 68.6, 241.4 67.9 Q 242.8 67.1, 244.6 67.1 M 241.0 73.3 Q 241.0 74.9, 241.9 75.9 Q 242.8 76.8, 244.5 76.8 Q 245.6 76.8, 246.7 76.4 Q 247.9 75.9, 248.6 75.1 Q 248.5 72.0, 247.6 70.6 Q 246.6 69.2, 244.6 69.2 Q 243.6 69.2, 242.8 69.7 Q 242.0 70.3, 241.5 71.2 Q 241.0 72.1, 241.0 73.3 " fill="#000000"/>
<path class="atom-19" d="M 22.7 241.9 L 25.3 241.9 L 25.3 249.8 L 34.8 249.8 L 34.8 241.9 L 37.3 241.9 L 37.3 260.5 L 34.8 260.5 L 34.8 251.9 L 25.3 251.9 L 25.3 260.5 L 22.7 260.5 L 22.7 241.9 " fill="#000000"/>
<path class="atom-19" d="M 39.6 257.4 L 42.2 257.4 L 42.2 260.1 L 39.6 260.1 L 39.6 257.4 M 39.6 248.4 L 42.2 248.4 L 42.2 251.0 L 39.6 251.0 L 39.6 248.4 " fill="#000000"/>
<path class="atom-19" d="M 44.2 245.4 Q 44.9 243.6, 46.5 242.7 Q 48.2 241.7, 50.4 241.7 Q 53.3 241.7, 54.8 243.2 Q 56.4 244.7, 56.4 247.4 Q 56.4 250.2, 54.4 252.8 Q 52.3 255.3, 48.1 258.4 L 56.7 258.4 L 56.7 260.5 L 44.2 260.5 L 44.2 258.7 Q 47.6 256.3, 49.7 254.4 Q 51.8 252.6, 52.8 250.9 Q 53.8 249.3, 53.8 247.6 Q 53.8 245.8, 52.9 244.8 Q 52.0 243.8, 50.4 243.8 Q 48.9 243.8, 47.9 244.4 Q 46.9 245.0, 46.2 246.3 L 44.2 245.4 " fill="#000000"/>
<path class="atom-19" d="M 65.1 260.7 Q 61.7 260.7, 60.0 258.2 Q 58.3 255.7, 58.3 251.2 Q 58.3 246.7, 60.0 244.2 Q 61.7 241.7, 65.1 241.7 Q 68.6 241.7, 70.3 244.2 Q 71.9 246.7, 71.9 251.2 Q 71.9 255.7, 70.2 258.2 Q 68.6 260.7, 65.1 260.7 M 65.1 258.6 Q 67.2 258.6, 68.2 256.7 Q 69.3 254.8, 69.3 251.2 Q 69.3 247.5, 68.2 245.6 Q 67.2 243.8, 65.1 243.8 Q 63.1 243.8, 62.0 245.6 Q 60.9 247.5, 60.9 251.2 Q 60.9 254.8, 62.0 256.7 Q 63.1 258.6, 65.1 258.6 " fill="#000000"/>
<path class="atom-20" d="M 158.6 326.6 L 161.2 326.6 L 161.2 334.5 L 170.7 334.5 L 170.7 326.6 L 173.2 326.6 L 173.2 345.2 L 170.7 345.2 L 170.7 336.6 L 161.2 336.6 L 161.2 345.2 L 158.6 345.2 L 158.6 326.6 " fill="#000000"/>
<path class="atom-20" d="M 175.5 342.2 L 178.1 342.2 L 178.1 344.8 L 175.5 344.8 L 175.5 342.2 M 175.5 333.1 L 178.1 333.1 L 178.1 335.7 L 175.5 335.7 L 175.5 333.1 " fill="#000000"/>
<path class="atom-20" d="M 180.1 330.1 Q 180.8 328.4, 182.4 327.4 Q 184.1 326.4, 186.3 326.4 Q 189.2 326.4, 190.7 327.9 Q 192.3 329.4, 192.3 332.1 Q 192.3 334.9, 190.3 337.5 Q 188.2 340.1, 184.0 343.1 L 192.6 343.1 L 192.6 345.2 L 180.1 345.2 L 180.1 343.5 Q 183.5 341.0, 185.6 339.2 Q 187.7 337.3, 188.7 335.6 Q 189.7 334.0, 189.7 332.3 Q 189.7 330.5, 188.8 329.5 Q 187.9 328.5, 186.3 328.5 Q 184.8 328.5, 183.8 329.1 Q 182.8 329.7, 182.1 331.0 L 180.1 330.1 " fill="#000000"/>
<path class="atom-20" d="M 195.2 343.1 L 199.3 343.1 L 199.3 329.2 L 194.8 330.6 L 194.2 329.0 L 199.9 326.5 L 201.8 326.8 L 201.8 343.1 L 205.5 343.1 L 205.5 345.2 L 195.2 345.2 L 195.2 343.1 " fill="#000000"/>
<path class="atom-21" d="M 46.2 112.2 L 48.8 112.2 L 48.8 120.1 L 58.3 120.1 L 58.3 112.2 L 60.8 112.2 L 60.8 130.9 L 58.3 130.9 L 58.3 122.2 L 48.8 122.2 L 48.8 130.9 L 46.2 130.9 L 46.2 112.2 " fill="#000000"/>
<path class="atom-21" d="M 63.1 127.8 L 65.7 127.8 L 65.7 130.4 L 63.1 130.4 L 63.1 127.8 M 63.1 118.7 L 65.7 118.7 L 65.7 121.3 L 63.1 121.3 L 63.1 118.7 " fill="#000000"/>
<path class="atom-21" d="M 67.7 115.7 Q 68.4 114.0, 70.1 113.0 Q 71.7 112.0, 73.9 112.0 Q 76.8 112.0, 78.3 113.5 Q 79.9 115.0, 79.9 117.8 Q 79.9 120.5, 77.9 123.1 Q 75.8 125.7, 71.6 128.7 L 80.2 128.7 L 80.2 130.9 L 67.7 130.9 L 67.7 129.1 Q 71.2 126.6, 73.2 124.8 Q 75.3 122.9, 76.3 121.3 Q 77.3 119.6, 77.3 117.9 Q 77.3 116.1, 76.4 115.1 Q 75.5 114.1, 73.9 114.1 Q 72.4 114.1, 71.4 114.7 Q 70.4 115.3, 69.7 116.7 L 67.7 115.7 " fill="#000000"/>
<path class="atom-21" d="M 81.9 115.7 Q 82.6 114.0, 84.2 113.0 Q 85.8 112.0, 88.1 112.0 Q 90.9 112.0, 92.5 113.5 Q 94.1 115.0, 94.1 117.8 Q 94.1 120.5, 92.0 123.1 Q 90.0 125.7, 85.8 128.7 L 94.4 128.7 L 94.4 130.9 L 81.8 130.9 L 81.8 129.1 Q 85.3 126.6, 87.4 124.8 Q 89.4 122.9, 90.4 121.3 Q 91.4 119.6, 91.4 117.9 Q 91.4 116.1, 90.5 115.1 Q 89.6 114.1, 88.1 114.1 Q 86.6 114.1, 85.6 114.7 Q 84.6 115.3, 83.9 116.7 L 81.9 115.7 " fill="#000000"/>
<path class="atom-22" d="M 429.2 107.1 L 431.7 107.1 L 431.7 115.0 L 441.2 115.0 L 441.2 107.1 L 443.7 107.1 L 443.7 125.7 L 441.2 125.7 L 441.2 117.1 L 431.7 117.1 L 431.7 125.7 L 429.2 125.7 L 429.2 107.1 " fill="#000000"/>
<path class="atom-22" d="M 446.0 122.6 L 448.6 122.6 L 448.6 125.3 L 446.0 125.3 L 446.0 122.6 M 446.0 113.6 L 448.6 113.6 L 448.6 116.2 L 446.0 116.2 L 446.0 113.6 " fill="#000000"/>
<path class="atom-22" d="M 450.6 110.6 Q 451.3 108.8, 453.0 107.9 Q 454.6 106.9, 456.9 106.9 Q 459.7 106.9, 461.3 108.4 Q 462.8 109.9, 462.8 112.6 Q 462.8 115.4, 460.8 118.0 Q 458.8 120.6, 454.5 123.6 L 463.2 123.6 L 463.2 125.7 L 450.6 125.7 L 450.6 123.9 Q 454.1 121.5, 456.1 119.6 Q 458.2 117.8, 459.2 116.1 Q 460.2 114.5, 460.2 112.8 Q 460.2 111.0, 459.3 110.0 Q 458.4 109.0, 456.9 109.0 Q 455.4 109.0, 454.4 109.6 Q 453.4 110.2, 452.6 111.5 L 450.6 110.6 " fill="#000000"/>
<path class="atom-22" d="M 473.7 115.9 Q 475.5 116.4, 476.4 117.6 Q 477.3 118.8, 477.3 120.6 Q 477.3 122.2, 476.5 123.4 Q 475.7 124.6, 474.2 125.3 Q 472.8 126.0, 470.9 126.0 Q 468.9 126.0, 467.4 125.3 Q 465.9 124.6, 464.7 123.2 L 466.2 121.6 Q 467.4 122.9, 468.4 123.4 Q 469.3 123.9, 470.9 123.9 Q 472.6 123.9, 473.6 123.0 Q 474.6 122.1, 474.6 120.6 Q 474.6 118.7, 473.6 117.8 Q 472.5 117.0, 470.2 117.0 L 468.9 117.0 L 468.9 115.1 L 470.1 115.1 Q 472.1 115.0, 473.2 114.2 Q 474.2 113.3, 474.2 111.6 Q 474.2 110.4, 473.3 109.7 Q 472.5 109.0, 470.9 109.0 Q 469.4 109.0, 468.4 109.5 Q 467.4 110.1, 466.7 111.5 L 464.9 110.5 Q 465.6 108.9, 467.1 107.9 Q 468.7 106.9, 470.9 106.9 Q 473.7 106.9, 475.3 108.1 Q 476.9 109.4, 476.9 111.6 Q 476.9 113.1, 476.1 114.2 Q 475.2 115.3, 473.7 115.9 " fill="#000000"/>
<path class="atom-23" d="M 281.4 87.2 L 283.9 87.2 L 283.9 95.1 L 293.5 95.1 L 293.5 87.2 L 296.0 87.2 L 296.0 105.8 L 293.5 105.8 L 293.5 97.2 L 283.9 97.2 L 283.9 105.8 L 281.4 105.8 L 281.4 87.2 " fill="#000000"/>
<path class="atom-23" d="M 298.2 102.7 L 300.9 102.7 L 300.9 105.4 L 298.2 105.4 L 298.2 102.7 M 298.2 93.7 L 300.9 93.7 L 300.9 96.3 L 298.2 96.3 L 298.2 93.7 " fill="#000000"/>
<path class="atom-23" d="M 302.9 90.7 Q 303.6 88.9, 305.2 88.0 Q 306.8 87.0, 309.1 87.0 Q 311.9 87.0, 313.5 88.5 Q 315.1 90.0, 315.1 92.7 Q 315.1 95.5, 313.0 98.1 Q 311.0 100.7, 306.8 103.7 L 315.4 103.7 L 315.4 105.8 L 302.8 105.8 L 302.8 104.1 Q 306.3 101.6, 308.4 99.7 Q 310.5 97.9, 311.5 96.2 Q 312.5 94.6, 312.5 92.9 Q 312.5 91.1, 311.6 90.1 Q 310.7 89.1, 309.1 89.1 Q 307.6 89.1, 306.6 89.7 Q 305.6 90.3, 304.9 91.6 L 302.9 90.7 " fill="#000000"/>
<path class="atom-23" d="M 329.1 99.4 L 331.3 99.4 L 331.3 101.5 L 329.1 101.5 L 329.1 105.8 L 326.6 105.8 L 326.6 101.5 L 317.0 101.5 L 317.0 99.9 L 325.2 87.2 L 329.1 87.2 L 329.1 99.4 M 320.0 99.4 L 326.6 99.4 L 326.6 88.9 L 320.0 99.4 " fill="#000000"/>
<text x="320.6456624745748" y="279.6424163896232" font-size="12" font-family="Verdana" font-weight="bold" letter-spacing="0" text-anchor="start" fill="black" transform=" rotate(70.048608 320.645662 279.642416)">0.155</text><text x="25" y="490" font-size="12" font-family="Verdana" font-weight="bold" letter-spacing="0" text-anchor="start" fill="black">[#6:1]1(-[#7:2](-[#6:3](-[#6:4](-[#7:15](-[H:23])-[H:24])(-[H:16])-[H:17])=[#8:6])-[#6:5](-[H:12])(-[H:13])-[H:14]):[#6:7](:[#6:9](:[#6:8](:[#6:10](:[#6:11]:1-[H:21])-[H:20])-[H:22])-[H:19])-[H:18]</text></svg>
