<?xml version='1.0' encoding='ASCII' standalone='yes'?>
<svg xmlns="http://www.w3.org/2000/svg" xmlns:rdkit="http://www.rdkit.org/xml" xmlns:xlink="http://www.w3.org/1999/xlink" version="1.1" baseProfile="full" xml:space="preserve" width="500px" height="500px" viewBox="0 0 500 500">
<!-- END OF HEADER -->
<rect style="opacity:1.0;fill:#FFFFFF;stroke:none" width="500.0" height="500.0" x="0.0" y="0.0"> </rect>
<path class="bond-5 atom-1 atom-2" d="M 251.4,217.2 L 251.4,279.9" style="fill:none;fill-rule:evenodd;stroke:#FF7F7F;stroke-width:13.4px;stroke-linecap:butt;stroke-linejoin:miter;stroke-opacity:1"/>
<path class="bond-0 atom-1 atom-0" d="M 268.8,215.0 L 279.4,213.7" style="fill:none;fill-rule:evenodd;stroke:#000000;stroke-width:2.0px;stroke-linecap:butt;stroke-linejoin:miter;stroke-opacity:1"/>
<path class="bond-1 atom-1 atom-4" d="M 234.0,215.0 L 222.5,213.6" style="fill:none;fill-rule:evenodd;stroke:#000000;stroke-width:2.0px;stroke-linecap:butt;stroke-linejoin:miter;stroke-opacity:1"/>
<path class="bond-2 atom-1 atom-5" d="M 251.4,206.3 L 251.4,165.3" style="fill:none;fill-rule:evenodd;stroke:#000000;stroke-width:2.0px;stroke-linecap:butt;stroke-linejoin:miter;stroke-opacity:1"/>
<path class="bond-3 atom-2 atom-6" d="M 278.5,279.9 L 287.7,279.9" style="fill:none;fill-rule:evenodd;stroke:#0000FF;stroke-width:2.0px;stroke-linecap:butt;stroke-linejoin:miter;stroke-opacity:1"/>
<path class="bond-3 atom-2 atom-6" d="M 287.7,279.9 L 296.8,279.9" style="fill:none;fill-rule:evenodd;stroke:#000000;stroke-width:2.0px;stroke-linecap:butt;stroke-linejoin:miter;stroke-opacity:1"/>
<path class="bond-4 atom-2 atom-7" d="M 233.6,279.9 L 220.0,279.9" style="fill:none;fill-rule:evenodd;stroke:#0000FF;stroke-width:2.0px;stroke-linecap:butt;stroke-linejoin:miter;stroke-opacity:1"/>
<path class="bond-4 atom-2 atom-7" d="M 220.0,279.9 L 206.4,279.9" style="fill:none;fill-rule:evenodd;stroke:#000000;stroke-width:2.0px;stroke-linecap:butt;stroke-linejoin:miter;stroke-opacity:1"/>
<path class="bond-5 atom-2 atom-1" d="M 251.4,272.1 L 251.4,251.6" style="fill:none;fill-rule:evenodd;stroke:#0000FF;stroke-width:2.0px;stroke-linecap:butt;stroke-linejoin:miter;stroke-opacity:1"/>
<path class="bond-5 atom-2 atom-1" d="M 251.4,251.6 L 251.4,231.0" style="fill:none;fill-rule:evenodd;stroke:#000000;stroke-width:2.0px;stroke-linecap:butt;stroke-linejoin:miter;stroke-opacity:1"/>
<path class="bond-6 atom-2 atom-3" d="M 251.4,293.7 L 251.4,312.8" style="fill:none;fill-rule:evenodd;stroke:#0000FF;stroke-width:2.0px;stroke-linecap:butt;stroke-linejoin:miter;stroke-opacity:1"/>
<path class="bond-6 atom-2 atom-3" d="M 251.4,312.8 L 251.4,331.9" style="fill:none;fill-rule:evenodd;stroke:#000000;stroke-width:2.0px;stroke-linecap:butt;stroke-linejoin:miter;stroke-opacity:1"/>
<path class="bond-7 atom-6 atom-9" d="M 314.2,293.7 L 314.2,332.0" style="fill:none;fill-rule:evenodd;stroke:#000000;stroke-width:2.0px;stroke-linecap:butt;stroke-linejoin:miter;stroke-opacity:1"/>
<path class="bond-8 atom-6 atom-10" d="M 315.1,272.1 L 317.4,254.0" style="fill:none;fill-rule:evenodd;stroke:#000000;stroke-width:2.0px;stroke-linecap:butt;stroke-linejoin:miter;stroke-opacity:1"/>
<path class="bond-9 atom-7 atom-12" d="M 188.7,293.9 L 188.7,332.0" style="fill:none;fill-rule:evenodd;stroke:#000000;stroke-width:2.0px;stroke-linecap:butt;stroke-linejoin:miter;stroke-opacity:1"/>
<path class="bond-10 atom-7 atom-13" d="M 187.3,269.1 L 185.5,254.0" style="fill:none;fill-rule:evenodd;stroke:#000000;stroke-width:2.0px;stroke-linecap:butt;stroke-linejoin:miter;stroke-opacity:1"/>
<path class="bond-11 atom-8 atom-6" d="M 359.3,279.9 L 331.5,279.9" style="fill:none;fill-rule:evenodd;stroke:#000000;stroke-width:2.0px;stroke-linecap:butt;stroke-linejoin:miter;stroke-opacity:1"/>
<path class="bond-12 atom-8 atom-14" d="M 376.9,293.9 L 376.9,332.0" style="fill:none;fill-rule:evenodd;stroke:#000000;stroke-width:2.0px;stroke-linecap:butt;stroke-linejoin:miter;stroke-opacity:1"/>
<path class="bond-13 atom-8 atom-15" d="M 376.9,271.9 L 376.9,228.1" style="fill:none;fill-rule:evenodd;stroke:#000000;stroke-width:2.0px;stroke-linecap:butt;stroke-linejoin:miter;stroke-opacity:1"/>
<path class="bond-14 atom-8 atom-18" d="M 394.5,279.9 L 430.8,279.9" style="fill:none;fill-rule:evenodd;stroke:#000000;stroke-width:2.0px;stroke-linecap:butt;stroke-linejoin:miter;stroke-opacity:1"/>
<path class="bond-15 atom-11 atom-7" d="M 149.2,279.9 L 170.9,279.9" style="fill:none;fill-rule:evenodd;stroke:#000000;stroke-width:2.0px;stroke-linecap:butt;stroke-linejoin:miter;stroke-opacity:1"/>
<path class="bond-16 atom-11 atom-16" d="M 125.9,269.2 L 125.9,228.0" style="fill:none;fill-rule:evenodd;stroke:#000000;stroke-width:2.0px;stroke-linecap:butt;stroke-linejoin:miter;stroke-opacity:1"/>
<path class="bond-17 atom-11 atom-17" d="M 125.9,290.8 L 125.9,332.0" style="fill:none;fill-rule:evenodd;stroke:#000000;stroke-width:2.0px;stroke-linecap:butt;stroke-linejoin:miter;stroke-opacity:1"/>
<path class="bond-18 atom-11 atom-19" d="M 102.6,279.9 L 71.5,279.9" style="fill:none;fill-rule:evenodd;stroke:#000000;stroke-width:2.0px;stroke-linecap:butt;stroke-linejoin:miter;stroke-opacity:1"/>
<path class="atom-0" d="M 281.2 203.8 L 283.7 203.8 L 283.7 211.4 L 292.7 211.4 L 292.7 203.8 L 295.2 203.8 L 295.2 221.6 L 292.7 221.6 L 292.7 213.4 L 283.7 213.4 L 283.7 221.6 L 281.2 221.6 L 281.2 203.8 " fill="#000000"/>
<path class="atom-0" d="M 297.3 218.7 L 299.8 218.7 L 299.8 221.2 L 297.3 221.2 L 297.3 218.7 M 297.3 210.0 L 299.8 210.0 L 299.8 212.5 L 297.3 212.5 L 297.3 210.0 " fill="#000000"/>
<path class="atom-0" d="M 302.7 219.6 L 306.6 219.6 L 306.6 206.3 L 302.3 207.6 L 301.7 206.2 L 307.1 203.7 L 308.9 204.0 L 308.9 219.6 L 312.4 219.6 L 312.4 221.6 L 302.7 221.6 L 302.7 219.6 " fill="#000000"/>
<path class="atom-1" d="M 235.9 217.3 Q 235.9 212.8, 237.9 210.5 Q 240.0 208.2, 244.0 208.2 Q 247.6 208.2, 249.6 210.8 L 247.9 212.1 Q 246.5 210.2, 244.0 210.2 Q 241.3 210.2, 239.8 212.1 Q 238.4 213.8, 238.4 217.3 Q 238.4 220.8, 239.9 222.6 Q 241.4 224.4, 244.2 224.4 Q 246.2 224.4, 248.5 223.2 L 249.2 225.1 Q 248.3 225.7, 246.8 226.0 Q 245.4 226.4, 243.9 226.4 Q 240.0 226.4, 237.9 224.0 Q 235.9 221.7, 235.9 217.3 " fill="#000000"/>
<path class="atom-1" d="M 250.6 223.2 L 253.1 223.2 L 253.1 225.7 L 250.6 225.7 L 250.6 223.2 M 250.6 214.6 L 253.1 214.6 L 253.1 217.1 L 250.6 217.1 L 250.6 214.6 " fill="#000000"/>
<path class="atom-1" d="M 255.0 211.8 Q 255.7 210.1, 257.2 209.1 Q 258.8 208.2, 261.0 208.2 Q 263.6 208.2, 265.1 209.6 Q 266.7 211.1, 266.7 213.7 Q 266.7 216.3, 264.7 218.8 Q 262.8 221.2, 258.7 224.2 L 267.0 224.2 L 267.0 226.2 L 255.0 226.2 L 255.0 224.5 Q 258.3 222.1, 260.3 220.4 Q 262.2 218.6, 263.2 217.0 Q 264.1 215.4, 264.1 213.8 Q 264.1 212.1, 263.3 211.2 Q 262.4 210.2, 261.0 210.2 Q 259.5 210.2, 258.6 210.8 Q 257.6 211.4, 256.9 212.6 L 255.0 211.8 " fill="#000000"/>
<path class="atom-2" d="M 238.3 271.1 L 244.1 280.6 Q 244.7 281.5, 245.6 283.2 Q 246.5 284.9, 246.6 285.0 L 246.6 271.1 L 248.9 271.1 L 248.9 288.9 L 246.5 288.9 L 240.3 278.6 Q 239.5 277.4, 238.8 276.0 Q 238.0 274.7, 237.8 274.2 L 237.8 288.9 L 235.5 288.9 L 235.5 271.1 L 238.3 271.1 " fill="#0000FF"/>
<path class="atom-2" d="M 251.0 286.0 L 253.5 286.0 L 253.5 288.5 L 251.0 288.5 L 251.0 286.0 M 251.0 277.4 L 253.5 277.4 L 253.5 279.9 L 251.0 279.9 L 251.0 277.4 " fill="#0000FF"/>
<path class="atom-2" d="M 264.0 279.6 Q 265.7 280.1, 266.5 281.2 Q 267.4 282.3, 267.4 284.1 Q 267.4 285.6, 266.6 286.7 Q 265.9 287.9, 264.5 288.5 Q 263.1 289.2, 261.3 289.2 Q 259.4 289.2, 258.0 288.5 Q 256.6 287.8, 255.4 286.5 L 256.9 285.0 Q 258.0 286.2, 258.9 286.7 Q 259.8 287.2, 261.3 287.2 Q 262.9 287.2, 263.9 286.3 Q 264.9 285.4, 264.9 284.0 Q 264.9 282.2, 263.8 281.4 Q 262.8 280.6, 260.6 280.6 L 259.4 280.6 L 259.4 278.8 L 260.5 278.8 Q 262.4 278.8, 263.5 277.9 Q 264.5 277.1, 264.5 275.5 Q 264.5 274.3, 263.6 273.7 Q 262.8 273.0, 261.3 273.0 Q 259.8 273.0, 258.9 273.5 Q 258.0 274.0, 257.3 275.3 L 255.6 274.4 Q 256.2 272.9, 257.7 272.0 Q 259.2 270.9, 261.3 270.9 Q 263.9 270.9, 265.5 272.2 Q 267.0 273.4, 267.0 275.5 Q 267.0 276.9, 266.2 278.0 Q 265.4 279.0, 264.0 279.6 " fill="#0000FF"/>
<path class="atom-2" d="M 268.9 274.1 L 272.0 274.1 L 272.0 270.8 L 273.4 270.8 L 273.4 274.1 L 276.6 274.1 L 276.6 275.3 L 273.4 275.3 L 273.4 278.6 L 272.0 278.6 L 272.0 275.3 L 268.9 275.3 L 268.9 274.1 " fill="#0000FF"/>
<path class="atom-3" d="M 244.5 333.8 L 246.9 333.8 L 246.9 341.4 L 256.0 341.4 L 256.0 333.8 L 258.4 333.8 L 258.4 351.6 L 256.0 351.6 L 256.0 343.4 L 246.9 343.4 L 246.9 351.6 L 244.5 351.6 L 244.5 333.8 " fill="#000000"/>
<path class="atom-3" d="M 260.5 348.6 L 263.0 348.6 L 263.0 351.2 L 260.5 351.2 L 260.5 348.6 M 260.5 340.0 L 263.0 340.0 L 263.0 342.5 L 260.5 342.5 L 260.5 340.0 " fill="#000000"/>
<path class="atom-3" d="M 276.4 345.5 L 278.6 345.5 L 278.6 347.5 L 276.4 347.5 L 276.4 351.6 L 274.1 351.6 L 274.1 347.5 L 264.9 347.5 L 264.9 345.9 L 272.7 333.8 L 276.4 333.8 L 276.4 345.5 M 267.8 345.5 L 274.1 345.5 L 274.1 335.4 L 267.8 345.5 " fill="#000000"/>
<path class="atom-4" d="M 188.2 203.8 L 190.6 203.8 L 190.6 211.3 L 199.7 211.3 L 199.7 203.8 L 202.1 203.8 L 202.1 221.5 L 199.7 221.5 L 199.7 213.3 L 190.6 213.3 L 190.6 221.5 L 188.2 221.5 L 188.2 203.8 " fill="#000000"/>
<path class="atom-4" d="M 204.2 218.6 L 206.7 218.6 L 206.7 221.1 L 204.2 221.1 L 204.2 218.6 M 204.2 210.0 L 206.7 210.0 L 206.7 212.5 L 204.2 212.5 L 204.2 210.0 " fill="#000000"/>
<path class="atom-4" d="M 215.1 210.4 Q 216.6 210.4, 217.9 211.1 Q 219.2 211.8, 219.9 213.0 Q 220.6 214.2, 220.6 215.9 Q 220.6 217.8, 219.7 219.1 Q 218.9 220.4, 217.4 221.1 Q 216.0 221.7, 214.3 221.7 Q 212.7 221.7, 211.2 221.1 Q 209.7 220.5, 208.6 219.4 L 210.1 217.8 Q 211.0 218.7, 212.1 219.2 Q 213.2 219.7, 214.4 219.7 Q 216.0 219.7, 217.0 218.7 Q 218.1 217.8, 218.1 216.0 Q 218.1 214.1, 217.0 213.2 Q 216.0 212.3, 214.2 212.3 Q 212.7 212.3, 210.9 213.0 L 209.6 212.3 L 210.4 203.8 L 219.5 203.8 L 219.3 205.8 L 212.5 205.8 L 211.9 211.1 Q 213.5 210.4, 215.1 210.4 " fill="#000000"/>
<path class="atom-5" d="M 244.5 145.6 L 246.9 145.6 L 246.9 153.2 L 256.0 153.2 L 256.0 145.6 L 258.4 145.6 L 258.4 163.4 L 256.0 163.4 L 256.0 155.2 L 246.9 155.2 L 246.9 163.4 L 244.5 163.4 L 244.5 145.6 " fill="#000000"/>
<path class="atom-5" d="M 260.5 160.5 L 263.0 160.5 L 263.0 163.0 L 260.5 163.0 L 260.5 160.5 M 260.5 151.8 L 263.0 151.8 L 263.0 154.3 L 260.5 154.3 L 260.5 151.8 " fill="#000000"/>
<path class="atom-5" d="M 271.9 152.3 Q 273.4 152.3, 274.6 153.0 Q 275.9 153.7, 276.5 154.9 Q 277.2 156.1, 277.2 157.7 Q 277.2 159.4, 276.4 160.8 Q 275.7 162.1, 274.3 162.9 Q 273.0 163.6, 271.2 163.6 Q 268.1 163.6, 266.5 161.5 Q 264.9 159.3, 264.9 155.0 Q 264.9 150.3, 266.9 147.9 Q 268.8 145.4, 272.6 145.4 Q 273.7 145.4, 274.7 145.7 Q 275.6 145.9, 276.5 146.5 L 275.5 148.1 Q 274.2 147.4, 272.7 147.4 Q 270.1 147.4, 268.9 149.1 Q 267.6 150.7, 267.4 154.0 Q 268.3 153.2, 269.5 152.8 Q 270.6 152.3, 271.9 152.3 M 271.3 161.5 Q 272.2 161.5, 273.0 161.0 Q 273.8 160.5, 274.3 159.7 Q 274.7 158.8, 274.7 157.7 Q 274.7 156.1, 273.8 155.2 Q 273.0 154.3, 271.4 154.3 Q 270.3 154.3, 269.2 154.8 Q 268.2 155.2, 267.4 156.0 Q 267.5 158.9, 268.5 160.2 Q 269.4 161.5, 271.3 161.5 " fill="#000000"/>
<path class="atom-6" d="M 298.7 280.0 Q 298.7 275.6, 300.8 273.3 Q 302.9 270.9, 306.8 270.9 Q 310.5 270.9, 312.4 273.5 L 310.8 274.9 Q 309.3 273.0, 306.8 273.0 Q 304.1 273.0, 302.7 274.8 Q 301.3 276.6, 301.3 280.0 Q 301.3 283.5, 302.7 285.3 Q 304.2 287.1, 307.1 287.1 Q 309.0 287.1, 311.3 286.0 L 312.0 287.8 Q 311.1 288.4, 309.7 288.8 Q 308.3 289.1, 306.7 289.1 Q 302.9 289.1, 300.8 286.8 Q 298.7 284.4, 298.7 280.0 " fill="#000000"/>
<path class="atom-6" d="M 313.4 286.0 L 315.9 286.0 L 315.9 288.5 L 313.4 288.5 L 313.4 286.0 M 313.4 277.4 L 315.9 277.4 L 315.9 279.9 L 313.4 279.9 L 313.4 277.4 " fill="#000000"/>
<path class="atom-6" d="M 327.1 273.2 L 317.8 273.2 L 317.8 271.1 L 329.6 271.1 L 329.6 272.9 L 322.4 288.9 L 320.0 288.9 L 327.1 273.2 " fill="#000000"/>
<path class="atom-7" d="M 172.8 280.0 Q 172.8 275.6, 174.9 273.3 Q 177.0 270.9, 180.9 270.9 Q 184.6 270.9, 186.5 273.5 L 184.9 274.9 Q 183.5 273.0, 180.9 273.0 Q 178.2 273.0, 176.8 274.8 Q 175.4 276.6, 175.4 280.0 Q 175.4 283.5, 176.8 285.3 Q 178.3 287.1, 181.2 287.1 Q 183.1 287.1, 185.4 286.0 L 186.1 287.8 Q 185.2 288.4, 183.8 288.8 Q 182.4 289.1, 180.8 289.1 Q 177.0 289.1, 174.9 286.8 Q 172.8 284.4, 172.8 280.0 " fill="#000000"/>
<path class="atom-7" d="M 187.5 286.0 L 190.1 286.0 L 190.1 288.5 L 187.5 288.5 L 187.5 286.0 M 187.5 277.4 L 190.1 277.4 L 190.1 279.9 L 187.5 279.9 L 187.5 277.4 " fill="#000000"/>
<path class="atom-7" d="M 201.0 279.5 Q 202.6 280.2, 203.6 281.3 Q 204.5 282.3, 204.5 284.1 Q 204.5 285.6, 203.7 286.7 Q 202.9 287.9, 201.5 288.5 Q 200.1 289.2, 198.3 289.2 Q 195.4 289.2, 193.6 287.8 Q 191.9 286.4, 191.9 284.1 Q 191.9 282.6, 192.7 281.5 Q 193.4 280.4, 195.0 279.6 Q 193.8 278.9, 193.2 278.0 Q 192.6 277.0, 192.6 275.5 Q 192.6 273.4, 194.1 272.2 Q 195.6 270.9, 198.2 270.9 Q 200.8 270.9, 202.3 272.2 Q 203.8 273.4, 203.8 275.5 Q 203.8 276.8, 203.1 277.8 Q 202.4 278.7, 201.0 279.5 M 198.2 272.8 Q 196.7 272.8, 195.9 273.5 Q 195.1 274.2, 195.1 275.5 Q 195.1 276.4, 195.7 277.0 Q 196.2 277.7, 197.0 278.0 Q 197.8 278.4, 199.3 278.9 Q 200.4 278.1, 200.8 277.3 Q 201.3 276.5, 201.3 275.5 Q 201.3 274.2, 200.5 273.5 Q 199.7 272.8, 198.2 272.8 M 198.3 287.3 Q 200.0 287.3, 201.0 286.4 Q 202.0 285.5, 202.0 284.0 Q 202.0 283.1, 201.5 282.5 Q 200.9 281.9, 200.1 281.5 Q 199.3 281.2, 197.9 280.7 L 196.8 280.3 Q 195.6 281.1, 195.0 282.0 Q 194.4 282.9, 194.4 284.0 Q 194.4 285.5, 195.5 286.4 Q 196.6 287.3, 198.3 287.3 " fill="#000000"/>
<path class="atom-8" d="M 361.2 280.0 Q 361.2 275.6, 363.3 273.3 Q 365.4 270.9, 369.3 270.9 Q 373.0 270.9, 374.9 273.5 L 373.3 274.9 Q 371.8 273.0, 369.3 273.0 Q 366.6 273.0, 365.2 274.8 Q 363.8 276.6, 363.8 280.0 Q 363.8 283.5, 365.2 285.3 Q 366.7 287.1, 369.6 287.1 Q 371.5 287.1, 373.8 286.0 L 374.5 287.8 Q 373.6 288.4, 372.2 288.8 Q 370.8 289.1, 369.2 289.1 Q 365.4 289.1, 363.3 286.8 Q 361.2 284.4, 361.2 280.0 " fill="#000000"/>
<path class="atom-8" d="M 375.9 286.0 L 378.4 286.0 L 378.4 288.5 L 375.9 288.5 L 375.9 286.0 M 375.9 277.4 L 378.4 277.4 L 378.4 279.9 L 375.9 279.9 L 375.9 277.4 " fill="#000000"/>
<path class="atom-8" d="M 386.3 270.9 Q 389.5 270.9, 391.0 273.1 Q 392.6 275.2, 392.6 279.5 Q 392.6 284.2, 390.7 286.7 Q 388.7 289.1, 384.9 289.1 Q 383.8 289.1, 382.9 288.9 Q 381.9 288.6, 381.0 288.1 L 382.0 286.4 Q 383.3 287.1, 384.9 287.1 Q 387.4 287.1, 388.7 285.5 Q 390.0 283.9, 390.1 280.5 Q 389.2 281.4, 388.1 281.8 Q 386.9 282.2, 385.7 282.2 Q 384.1 282.2, 382.9 281.6 Q 381.7 280.9, 381.0 279.7 Q 380.3 278.4, 380.3 276.9 Q 380.3 275.1, 381.1 273.8 Q 381.9 272.5, 383.2 271.7 Q 384.6 270.9, 386.3 270.9 M 382.8 276.8 Q 382.8 278.4, 383.7 279.3 Q 384.6 280.2, 386.1 280.2 Q 387.2 280.2, 388.3 279.8 Q 389.4 279.4, 390.1 278.6 Q 390.0 275.7, 389.1 274.3 Q 388.2 273.0, 386.3 273.0 Q 385.3 273.0, 384.5 273.5 Q 383.7 274.0, 383.3 274.9 Q 382.8 275.8, 382.8 276.8 " fill="#000000"/>
<path class="atom-9" d="M 307.2 333.9 L 309.6 333.9 L 309.6 341.5 L 318.7 341.5 L 318.7 333.9 L 321.1 333.9 L 321.1 351.7 L 318.7 351.7 L 318.7 343.5 L 309.6 343.5 L 309.6 351.7 L 307.2 351.7 L 307.2 333.9 " fill="#000000"/>
<path class="atom-9" d="M 323.3 348.7 L 325.8 348.7 L 325.8 351.3 L 323.3 351.3 L 323.3 348.7 M 323.3 340.1 L 325.8 340.1 L 325.8 342.6 L 323.3 342.6 L 323.3 340.1 " fill="#000000"/>
<path class="atom-9" d="M 328.6 349.7 L 332.5 349.7 L 332.5 336.4 L 328.2 337.7 L 327.7 336.2 L 333.1 333.8 L 334.9 334.1 L 334.9 349.7 L 338.4 349.7 L 338.4 351.7 L 328.6 351.7 L 328.6 349.7 " fill="#000000"/>
<path class="atom-9" d="M 345.9 351.9 Q 342.7 351.9, 341.0 349.5 Q 339.4 347.1, 339.4 342.8 Q 339.4 338.5, 341.0 336.1 Q 342.6 333.7, 345.9 333.7 Q 349.2 333.7, 350.8 336.1 Q 352.4 338.5, 352.4 342.8 Q 352.4 347.1, 350.8 349.5 Q 349.2 351.9, 345.9 351.9 M 345.9 349.9 Q 347.9 349.9, 348.9 348.1 Q 349.9 346.3, 349.9 342.8 Q 349.9 339.3, 348.9 337.5 Q 347.9 335.7, 345.9 335.7 Q 344.0 335.7, 343.0 337.5 Q 341.9 339.3, 341.9 342.8 Q 341.9 346.3, 343.0 348.1 Q 344.0 349.9, 345.9 349.9 " fill="#000000"/>
<path class="atom-10" d="M 311.7 234.3 L 314.2 234.3 L 314.2 241.9 L 323.2 241.9 L 323.2 234.3 L 325.6 234.3 L 325.6 252.1 L 323.2 252.1 L 323.2 243.9 L 314.2 243.9 L 314.2 252.1 L 311.7 252.1 L 311.7 234.3 " fill="#000000"/>
<path class="atom-10" d="M 327.8 249.2 L 330.3 249.2 L 330.3 251.7 L 327.8 251.7 L 327.8 249.2 M 327.8 240.5 L 330.3 240.5 L 330.3 243.0 L 327.8 243.0 L 327.8 240.5 " fill="#000000"/>
<path class="atom-10" d="M 333.2 250.1 L 337.0 250.1 L 337.0 236.8 L 332.8 238.1 L 332.2 236.7 L 337.6 234.2 L 339.4 234.5 L 339.4 250.1 L 342.9 250.1 L 342.9 252.1 L 333.2 252.1 L 333.2 250.1 " fill="#000000"/>
<path class="atom-10" d="M 344.9 250.1 L 348.8 250.1 L 348.8 236.8 L 344.5 238.1 L 343.9 236.7 L 349.4 234.2 L 351.2 234.5 L 351.2 250.1 L 354.7 250.1 L 354.7 252.1 L 344.9 252.1 L 344.9 250.1 " fill="#000000"/>
<path class="atom-11" d="M 104.5 280.0 Q 104.5 275.6, 106.5 273.3 Q 108.6 270.9, 112.6 270.9 Q 116.2 270.9, 118.2 273.5 L 116.5 274.9 Q 115.1 273.0, 112.6 273.0 Q 109.9 273.0, 108.4 274.8 Q 107.0 276.6, 107.0 280.0 Q 107.0 283.5, 108.5 285.3 Q 110.0 287.1, 112.8 287.1 Q 114.8 287.1, 117.1 286.0 L 117.8 287.8 Q 116.9 288.4, 115.4 288.8 Q 114.0 289.1, 112.5 289.1 Q 108.6 289.1, 106.5 286.8 Q 104.5 284.4, 104.5 280.0 " fill="#000000"/>
<path class="atom-11" d="M 119.2 286.0 L 121.7 286.0 L 121.7 288.5 L 119.2 288.5 L 119.2 286.0 M 119.2 277.4 L 121.7 277.4 L 121.7 279.9 L 119.2 279.9 L 119.2 277.4 " fill="#000000"/>
<path class="atom-11" d="M 124.6 286.9 L 128.4 286.9 L 128.4 273.6 L 124.2 275.0 L 123.6 273.5 L 129.0 271.0 L 130.8 271.4 L 130.8 286.9 L 134.3 286.9 L 134.3 288.9 L 124.6 288.9 L 124.6 286.9 " fill="#000000"/>
<path class="atom-11" d="M 135.4 274.5 Q 136.1 272.8, 137.6 271.9 Q 139.2 270.9, 141.3 270.9 Q 144.0 270.9, 145.5 272.4 Q 147.0 273.9, 147.0 276.4 Q 147.0 279.1, 145.1 281.5 Q 143.1 284.0, 139.1 286.9 L 147.3 286.9 L 147.3 288.9 L 135.4 288.9 L 135.4 287.2 Q 138.7 284.9, 140.6 283.1 Q 142.6 281.4, 143.6 279.8 Q 144.5 278.2, 144.5 276.6 Q 144.5 274.9, 143.7 273.9 Q 142.8 273.0, 141.3 273.0 Q 139.9 273.0, 138.9 273.5 Q 138.0 274.1, 137.3 275.4 L 135.4 274.5 " fill="#000000"/>
<path class="atom-12" d="M 181.7 333.9 L 184.1 333.9 L 184.1 341.5 L 193.2 341.5 L 193.2 333.9 L 195.6 333.9 L 195.6 351.7 L 193.2 351.7 L 193.2 343.5 L 184.1 343.5 L 184.1 351.7 L 181.7 351.7 L 181.7 333.9 " fill="#000000"/>
<path class="atom-12" d="M 197.7 348.7 L 200.3 348.7 L 200.3 351.3 L 197.7 351.3 L 197.7 348.7 M 197.7 340.1 L 200.3 340.1 L 200.3 342.6 L 197.7 342.6 L 197.7 340.1 " fill="#000000"/>
<path class="atom-12" d="M 203.1 349.7 L 207.0 349.7 L 207.0 336.4 L 202.7 337.7 L 202.1 336.2 L 207.6 333.8 L 209.4 334.1 L 209.4 349.7 L 212.9 349.7 L 212.9 351.7 L 203.1 351.7 L 203.1 349.7 " fill="#000000"/>
<path class="atom-12" d="M 222.4 342.3 Q 224.2 342.8, 225.0 343.9 Q 225.9 345.1, 225.9 346.8 Q 225.9 348.3, 225.1 349.5 Q 224.4 350.7, 223.0 351.3 Q 221.6 351.9, 219.8 351.9 Q 217.9 351.9, 216.4 351.3 Q 215.0 350.6, 213.9 349.2 L 215.3 347.8 Q 216.4 349.0, 217.4 349.5 Q 218.3 349.9, 219.8 349.9 Q 221.4 349.9, 222.4 349.1 Q 223.4 348.2, 223.4 346.8 Q 223.4 345.0, 222.3 344.2 Q 221.3 343.3, 219.1 343.3 L 217.9 343.3 L 217.9 341.5 L 219.0 341.5 Q 220.9 341.5, 221.9 340.7 Q 223.0 339.8, 223.0 338.3 Q 223.0 337.1, 222.1 336.4 Q 221.3 335.7, 219.8 335.7 Q 218.3 335.7, 217.4 336.2 Q 216.5 336.8, 215.8 338.1 L 214.1 337.2 Q 214.7 335.7, 216.2 334.7 Q 217.7 333.7, 219.8 333.7 Q 222.4 333.7, 224.0 334.9 Q 225.5 336.2, 225.5 338.3 Q 225.5 339.7, 224.7 340.7 Q 223.9 341.7, 222.4 342.3 " fill="#000000"/>
<path class="atom-13" d="M 177.2 234.3 L 179.6 234.3 L 179.6 241.9 L 188.7 241.9 L 188.7 234.3 L 191.1 234.3 L 191.1 252.1 L 188.7 252.1 L 188.7 243.9 L 179.6 243.9 L 179.6 252.1 L 177.2 252.1 L 177.2 234.3 " fill="#000000"/>
<path class="atom-13" d="M 193.2 249.2 L 195.7 249.2 L 195.7 251.7 L 193.2 251.7 L 193.2 249.2 M 193.2 240.5 L 195.7 240.5 L 195.7 243.0 L 193.2 243.0 L 193.2 240.5 " fill="#000000"/>
<path class="atom-13" d="M 198.6 250.1 L 202.5 250.1 L 202.5 236.8 L 198.2 238.1 L 197.6 236.7 L 203.1 234.2 L 204.9 234.5 L 204.9 250.1 L 208.3 250.1 L 208.3 252.1 L 198.6 252.1 L 198.6 250.1 " fill="#000000"/>
<path class="atom-13" d="M 220.9 246.0 L 223.1 246.0 L 223.1 248.0 L 220.9 248.0 L 220.9 252.1 L 218.6 252.1 L 218.6 248.0 L 209.4 248.0 L 209.4 246.4 L 217.2 234.3 L 220.9 234.3 L 220.9 246.0 M 212.3 246.0 L 218.6 246.0 L 218.6 235.9 L 212.3 246.0 " fill="#000000"/>
<path class="atom-14" d="M 370.0 333.9 L 372.4 333.9 L 372.4 341.4 L 381.5 341.4 L 381.5 333.9 L 383.9 333.9 L 383.9 351.6 L 381.5 351.6 L 381.5 343.4 L 372.4 343.4 L 372.4 351.6 L 370.0 351.6 L 370.0 333.9 " fill="#000000"/>
<path class="atom-14" d="M 386.0 348.7 L 388.5 348.7 L 388.5 351.2 L 386.0 351.2 L 386.0 348.7 M 386.0 340.1 L 388.5 340.1 L 388.5 342.6 L 386.0 342.6 L 386.0 340.1 " fill="#000000"/>
<path class="atom-14" d="M 391.4 349.6 L 395.3 349.6 L 395.3 336.3 L 391.0 337.7 L 390.4 336.2 L 395.9 333.8 L 397.6 334.1 L 397.6 349.6 L 401.1 349.6 L 401.1 351.6 L 391.4 351.6 L 391.4 349.6 " fill="#000000"/>
<path class="atom-14" d="M 408.6 340.5 Q 410.2 340.5, 411.5 341.2 Q 412.8 341.8, 413.5 343.1 Q 414.2 344.3, 414.2 346.0 Q 414.2 347.8, 413.3 349.2 Q 412.4 350.5, 411.0 351.2 Q 409.5 351.8, 407.9 351.8 Q 406.2 351.8, 404.7 351.2 Q 403.2 350.6, 402.2 349.5 L 403.7 347.9 Q 404.5 348.8, 405.7 349.3 Q 406.8 349.8, 407.9 349.8 Q 409.5 349.8, 410.6 348.8 Q 411.7 347.8, 411.7 346.1 Q 411.7 344.2, 410.6 343.3 Q 409.5 342.4, 407.8 342.4 Q 406.2 342.4, 404.5 343.1 L 403.1 342.4 L 404.0 333.9 L 413.1 333.9 L 412.9 335.9 L 406.0 335.9 L 405.5 341.1 Q 407.1 340.5, 408.6 340.5 " fill="#000000"/>
<path class="atom-15" d="M 370.0 208.4 L 372.4 208.4 L 372.4 215.9 L 381.5 215.9 L 381.5 208.4 L 383.9 208.4 L 383.9 226.2 L 381.5 226.2 L 381.5 218.0 L 372.4 218.0 L 372.4 226.2 L 370.0 226.2 L 370.0 208.4 " fill="#000000"/>
<path class="atom-15" d="M 386.0 223.2 L 388.5 223.2 L 388.5 225.7 L 386.0 225.7 L 386.0 223.2 M 386.0 214.6 L 388.5 214.6 L 388.5 217.1 L 386.0 217.1 L 386.0 214.6 " fill="#000000"/>
<path class="atom-15" d="M 391.4 224.2 L 395.3 224.2 L 395.3 210.9 L 391.0 212.2 L 390.4 210.7 L 395.9 208.3 L 397.6 208.6 L 397.6 224.2 L 401.1 224.2 L 401.1 226.2 L 391.4 226.2 L 391.4 224.2 " fill="#000000"/>
<path class="atom-15" d="M 409.1 215.1 Q 410.7 215.1, 411.9 215.7 Q 413.2 216.4, 413.8 217.7 Q 414.5 218.9, 414.5 220.4 Q 414.5 222.2, 413.7 223.5 Q 413.0 224.9, 411.6 225.6 Q 410.3 226.4, 408.5 226.4 Q 405.4 226.4, 403.8 224.2 Q 402.2 222.1, 402.2 217.8 Q 402.2 213.1, 404.1 210.7 Q 406.1 208.2, 409.9 208.2 Q 411.0 208.2, 412.0 208.4 Q 412.9 208.7, 413.8 209.2 L 412.8 210.9 Q 411.5 210.2, 409.9 210.2 Q 407.4 210.2, 406.2 211.8 Q 404.9 213.4, 404.7 216.8 Q 405.6 215.9, 406.8 215.5 Q 407.9 215.1, 409.1 215.1 M 408.6 224.3 Q 409.5 224.3, 410.3 223.8 Q 411.1 223.3, 411.6 222.4 Q 412.0 221.5, 412.0 220.5 Q 412.0 218.9, 411.1 218.0 Q 410.2 217.1, 408.7 217.1 Q 407.6 217.1, 406.5 217.5 Q 405.5 218.0, 404.7 218.7 Q 404.8 221.6, 405.8 223.0 Q 406.7 224.3, 408.6 224.3 " fill="#000000"/>
<path class="atom-16" d="M 118.9 208.3 L 121.4 208.3 L 121.4 215.9 L 130.4 215.9 L 130.4 208.3 L 132.9 208.3 L 132.9 226.1 L 130.4 226.1 L 130.4 217.9 L 121.4 217.9 L 121.4 226.1 L 118.9 226.1 L 118.9 208.3 " fill="#000000"/>
<path class="atom-16" d="M 135.0 223.2 L 137.5 223.2 L 137.5 225.7 L 135.0 225.7 L 135.0 223.2 M 135.0 214.5 L 137.5 214.5 L 137.5 217.1 L 135.0 217.1 L 135.0 214.5 " fill="#000000"/>
<path class="atom-16" d="M 140.4 224.1 L 144.3 224.1 L 144.3 210.8 L 140.0 212.2 L 139.4 210.7 L 144.8 208.2 L 146.6 208.5 L 146.6 224.1 L 150.1 224.1 L 150.1 226.1 L 140.4 226.1 L 140.4 224.1 " fill="#000000"/>
<path class="atom-16" d="M 160.5 210.3 L 151.2 210.3 L 151.2 208.3 L 163.0 208.3 L 163.0 210.1 L 155.8 226.1 L 153.4 226.1 L 160.5 210.3 " fill="#000000"/>
<path class="atom-17" d="M 118.9 333.9 L 121.4 333.9 L 121.4 341.5 L 130.4 341.5 L 130.4 333.9 L 132.9 333.9 L 132.9 351.7 L 130.4 351.7 L 130.4 343.5 L 121.4 343.5 L 121.4 351.7 L 118.9 351.7 L 118.9 333.9 " fill="#000000"/>
<path class="atom-17" d="M 135.0 348.7 L 137.5 348.7 L 137.5 351.3 L 135.0 351.3 L 135.0 348.7 M 135.0 340.1 L 137.5 340.1 L 137.5 342.6 L 135.0 342.6 L 135.0 340.1 " fill="#000000"/>
<path class="atom-17" d="M 140.4 349.7 L 144.3 349.7 L 144.3 336.4 L 140.0 337.7 L 139.4 336.2 L 144.8 333.8 L 146.6 334.1 L 146.6 349.7 L 150.1 349.7 L 150.1 351.7 L 140.4 351.7 L 140.4 349.7 " fill="#000000"/>
<path class="atom-17" d="M 160.2 342.3 Q 161.8 343.0, 162.8 344.0 Q 163.7 345.1, 163.7 346.8 Q 163.7 348.3, 162.9 349.5 Q 162.2 350.7, 160.7 351.3 Q 159.4 351.9, 157.5 351.9 Q 154.6 351.9, 152.9 350.6 Q 151.2 349.2, 151.2 346.8 Q 151.2 345.4, 151.9 344.3 Q 152.7 343.2, 154.2 342.3 Q 153.1 341.7, 152.4 340.7 Q 151.8 339.8, 151.8 338.3 Q 151.8 336.2, 153.3 334.9 Q 154.8 333.7, 157.4 333.7 Q 160.0 333.7, 161.5 334.9 Q 163.1 336.2, 163.1 338.3 Q 163.1 339.6, 162.3 340.5 Q 161.6 341.5, 160.2 342.3 M 157.4 335.6 Q 156.0 335.6, 155.1 336.3 Q 154.3 337.0, 154.3 338.3 Q 154.3 339.2, 154.9 339.8 Q 155.4 340.4, 156.2 340.8 Q 157.0 341.1, 158.5 341.6 Q 159.6 340.9, 160.1 340.1 Q 160.5 339.3, 160.5 338.3 Q 160.5 337.0, 159.7 336.3 Q 158.9 335.6, 157.4 335.6 M 157.5 350.0 Q 159.2 350.0, 160.2 349.2 Q 161.2 348.3, 161.2 346.8 Q 161.2 345.8, 160.7 345.2 Q 160.1 344.6, 159.3 344.3 Q 158.6 343.9, 157.2 343.5 L 156.0 343.1 Q 154.8 343.8, 154.2 344.8 Q 153.7 345.6, 153.7 346.8 Q 153.7 348.3, 154.7 349.2 Q 155.8 350.0, 157.5 350.0 " fill="#000000"/>
<path class="atom-18" d="M 432.7 271.1 L 435.1 271.1 L 435.1 278.7 L 444.2 278.7 L 444.2 271.1 L 446.6 271.1 L 446.6 288.9 L 444.2 288.9 L 444.2 280.7 L 435.1 280.7 L 435.1 288.9 L 432.7 288.9 L 432.7 271.1 " fill="#000000"/>
<path class="atom-18" d="M 448.8 286.0 L 451.3 286.0 L 451.3 288.5 L 448.8 288.5 L 448.8 286.0 M 448.8 277.4 L 451.3 277.4 L 451.3 279.9 L 448.8 279.9 L 448.8 277.4 " fill="#000000"/>
<path class="atom-18" d="M 454.2 286.9 L 458.0 286.9 L 458.0 273.6 L 453.8 275.0 L 453.2 273.5 L 458.6 271.0 L 460.4 271.4 L 460.4 286.9 L 463.9 286.9 L 463.9 288.9 L 454.2 288.9 L 454.2 286.9 " fill="#000000"/>
<path class="atom-18" d="M 470.9 270.9 Q 474.1 270.9, 475.7 273.1 Q 477.3 275.2, 477.3 279.5 Q 477.3 284.2, 475.3 286.7 Q 473.3 289.1, 469.5 289.1 Q 468.4 289.1, 467.5 288.9 Q 466.6 288.6, 465.6 288.1 L 466.6 286.4 Q 467.9 287.1, 469.5 287.1 Q 472.0 287.1, 473.3 285.5 Q 474.6 283.9, 474.7 280.5 Q 473.8 281.4, 472.7 281.8 Q 471.5 282.2, 470.3 282.2 Q 468.8 282.2, 467.5 281.6 Q 466.3 280.9, 465.6 279.7 Q 464.9 278.4, 464.9 276.9 Q 464.9 275.1, 465.7 273.8 Q 466.5 272.5, 467.8 271.7 Q 469.2 270.9, 470.9 270.9 M 467.5 276.8 Q 467.5 278.4, 468.3 279.3 Q 469.2 280.2, 470.8 280.2 Q 471.9 280.2, 472.9 279.8 Q 474.0 279.4, 474.7 278.6 Q 474.6 275.7, 473.7 274.3 Q 472.8 273.0, 470.9 273.0 Q 469.9 273.0, 469.1 273.5 Q 468.4 274.0, 467.9 274.9 Q 467.5 275.8, 467.5 276.8 " fill="#000000"/>
<path class="atom-19" d="M 22.7 271.1 L 25.1 271.1 L 25.1 278.7 L 34.2 278.7 L 34.2 271.1 L 36.6 271.1 L 36.6 288.9 L 34.2 288.9 L 34.2 280.7 L 25.1 280.7 L 25.1 288.9 L 22.7 288.9 L 22.7 271.1 " fill="#000000"/>
<path class="atom-19" d="M 38.8 286.0 L 41.3 286.0 L 41.3 288.5 L 38.8 288.5 L 38.8 286.0 M 38.8 277.4 L 41.3 277.4 L 41.3 279.9 L 38.8 279.9 L 38.8 277.4 " fill="#000000"/>
<path class="atom-19" d="M 43.2 274.5 Q 43.9 272.8, 45.4 271.9 Q 47.0 270.9, 49.1 270.9 Q 51.8 270.9, 53.3 272.4 Q 54.8 273.9, 54.8 276.4 Q 54.8 279.1, 52.9 281.5 Q 50.9 284.0, 46.9 286.9 L 55.1 286.9 L 55.1 288.9 L 43.2 288.9 L 43.2 287.2 Q 46.5 284.9, 48.4 283.1 Q 50.4 281.4, 51.4 279.8 Q 52.3 278.2, 52.3 276.6 Q 52.3 274.9, 51.5 273.9 Q 50.6 273.0, 49.1 273.0 Q 47.7 273.0, 46.8 273.5 Q 45.8 274.1, 45.1 275.4 L 43.2 274.5 " fill="#000000"/>
<path class="atom-19" d="M 63.1 289.1 Q 59.9 289.1, 58.2 286.7 Q 56.6 284.3, 56.6 280.0 Q 56.6 275.7, 58.2 273.3 Q 59.9 270.9, 63.1 270.9 Q 66.4 270.9, 68.0 273.3 Q 69.6 275.7, 69.6 280.0 Q 69.6 284.3, 68.0 286.7 Q 66.4 289.1, 63.1 289.1 M 63.1 287.1 Q 65.1 287.1, 66.1 285.3 Q 67.1 283.5, 67.1 280.0 Q 67.1 276.5, 66.1 274.7 Q 65.1 273.0, 63.1 273.0 Q 61.2 273.0, 60.2 274.7 Q 59.2 276.5, 59.2 280.0 Q 59.2 283.5, 60.2 285.3 Q 61.2 287.1, 63.1 287.1 " fill="#000000"/>
<text x="251.4183364545103" y="248.55656024540986" font-size="12" font-family="Verdana" font-weight="bold" letter-spacing="0" text-anchor="start" fill="black" transform=" rotate(-0.000000 251.418336 248.556560)">0.9455</text><text x="25" y="490" font-size="12" font-family="Verdana" font-weight="bold" letter-spacing="0" text-anchor="start" fill="black">[H:1]-[#6:2](-[#7+:3](-[H:4])(-[#6:7](-[#6:9](-[H:15])(-[H:16])-[H:19])(-[H:10])-[H:11])-[#6:8](-[#6:12](-[H:17])(-[H:18])-[H:20])(-[H:13])-[H:14])(-[H:5])-[H:6]</text></svg>
