<?xml version='1.0' encoding='ASCII' standalone='yes'?>
<svg xmlns="http://www.w3.org/2000/svg" xmlns:rdkit="http://www.rdkit.org/xml" xmlns:xlink="http://www.w3.org/1999/xlink" version="1.1" baseProfile="full" xml:space="preserve" width="500px" height="500px" viewBox="0 0 500 500">
<!-- END OF HEADER -->
<rect style="opacity:1.0;fill:#FFFFFF;stroke:none" width="500" height="500" x="0" y="0"> </rect>
<path d="M 443.362,83.8123 L 251.381,194.653" style="fill:none;fill-rule:evenodd;stroke:#FF7F7F;stroke-width:47.3px;stroke-linecap:butt;stroke-linejoin:miter;stroke-opacity:1"/>
<path class="bond-0 atom-1 atom-0" d="M 273.563,181.846 L 350.472,137.443" style="fill:none;fill-rule:evenodd;stroke:#0000FF;stroke-width:2.0px;stroke-linecap:butt;stroke-linejoin:miter;stroke-opacity:1"/>
<path class="bond-0 atom-1 atom-0" d="M 350.472,137.443 L 427.38,93.0393" style="fill:none;fill-rule:evenodd;stroke:#000000;stroke-width:2.0px;stroke-linecap:butt;stroke-linejoin:miter;stroke-opacity:1"/>
<path class="bond-1 atom-1 atom-2" d="M 217.533,175.111 L 145.509,133.527" style="fill:none;fill-rule:evenodd;stroke:#0000FF;stroke-width:2.0px;stroke-linecap:butt;stroke-linejoin:miter;stroke-opacity:1"/>
<path class="bond-1 atom-1 atom-2" d="M 145.509,133.527 L 73.485,91.9442" style="fill:none;fill-rule:evenodd;stroke:#000000;stroke-width:2.0px;stroke-linecap:butt;stroke-linejoin:miter;stroke-opacity:1"/>
<path class="bond-2 atom-1 atom-3" d="M 251.381,214.515 L 251.381,305.821" style="fill:none;fill-rule:evenodd;stroke:#0000FF;stroke-width:2.0px;stroke-linecap:butt;stroke-linejoin:miter;stroke-opacity:1"/>
<path class="bond-2 atom-1 atom-3" d="M 251.381,305.821 L 251.381,397.128" style="fill:none;fill-rule:evenodd;stroke:#000000;stroke-width:2.0px;stroke-linecap:butt;stroke-linejoin:miter;stroke-opacity:1"/>
<path class="atom-0" d="M 432.282 69.7323 L 436.122 69.7323 L 436.122 81.7723 L 450.602 81.7723 L 450.602 69.7323 L 454.442 69.7323 L 454.442 98.0523 L 450.602 98.0523 L 450.602 84.9723 L 436.122 84.9723 L 436.122 98.0523 L 432.282 98.0523 L 432.282 69.7323 " fill="#000000"/>
<path class="atom-0" d="M 457.442 93.3723 L 461.442 93.3723 L 461.442 97.3723 L 457.442 97.3723 L 457.442 93.3723 M 457.442 79.6123 L 461.442 79.6123 L 461.442 83.6123 L 457.442 83.6123 L 457.442 79.6123 " fill="#000000"/>
<path class="atom-0" d="M 465.162 94.8523 L 471.362 94.8523 L 471.362 73.6923 L 464.522 75.8123 L 463.602 73.4523 L 472.282 69.5723 L 475.122 70.0523 L 475.122 94.8523 L 480.682 94.8523 L 480.682 98.0523 L 465.162 98.0523 L 465.162 94.8523 " fill="#000000"/>
<path class="atom-1" d="M 222.941 180.653 L 232.221 195.653 Q 233.141 197.133, 234.621 199.813 Q 236.101 202.493, 236.181 202.653 L 236.181 180.653 L 239.941 180.653 L 239.941 208.973 L 236.061 208.973 L 226.101 192.573 Q 224.941 190.653, 223.701 188.453 Q 222.501 186.253, 222.141 185.573 L 222.141 208.973 L 218.461 208.973 L 218.461 180.653 L 222.941 180.653 " fill="#0000FF"/>
<path class="atom-1" d="M 242.941 204.293 L 246.941 204.293 L 246.941 208.293 L 242.941 208.293 L 242.941 204.293 M 242.941 190.533 L 246.941 190.533 L 246.941 194.533 L 242.941 194.533 L 242.941 190.533 " fill="#0000FF"/>
<path class="atom-1" d="M 249.021 186.013 Q 250.061 183.333, 252.541 181.853 Q 255.021 180.333, 258.461 180.333 Q 262.741 180.333, 265.141 182.653 Q 267.541 184.973, 267.541 189.093 Q 267.541 193.293, 264.421 197.213 Q 261.341 201.133, 254.941 205.773 L 268.021 205.773 L 268.021 208.973 L 248.941 208.973 L 248.941 206.293 Q 254.221 202.533, 257.341 199.733 Q 260.501 196.933, 262.021 194.413 Q 263.541 191.893, 263.541 189.293 Q 263.541 186.573, 262.181 185.053 Q 260.821 183.533, 258.461 183.533 Q 256.181 183.533, 254.661 184.453 Q 253.141 185.373, 252.061 187.413 L 249.021 186.013 " fill="#0000FF"/>
<path class="atom-2" d="M 19.0401 69.8123 L 22.8801 69.8123 L 22.8801 81.8523 L 37.3601 81.8523 L 37.3601 69.8123 L 41.2001 69.8123 L 41.2001 98.1323 L 37.3601 98.1323 L 37.3601 85.0523 L 22.8801 85.0523 L 22.8801 98.1323 L 19.0401 98.1323 L 19.0401 69.8123 " fill="#000000"/>
<path class="atom-2" d="M 44.2001 93.4523 L 48.2001 93.4523 L 48.2001 97.4523 L 44.2001 97.4523 L 44.2001 93.4523 M 44.2001 79.6923 L 48.2001 79.6923 L 48.2001 83.6923 L 44.2001 83.6923 L 44.2001 79.6923 " fill="#000000"/>
<path class="atom-2" d="M 63.4801 83.2123 Q 66.2401 84.0123, 67.5601 85.8123 Q 68.9201 87.5723, 68.9201 90.3723 Q 68.9201 92.7723, 67.7201 94.6523 Q 66.5201 96.4923, 64.3201 97.5323 Q 62.1201 98.5323, 59.2401 98.5323 Q 56.2001 98.5323, 53.9201 97.4923 Q 51.6801 96.4123, 49.8801 94.2523 L 52.1601 91.9323 Q 53.9201 93.8523, 55.4001 94.6123 Q 56.8801 95.3323, 59.2401 95.3323 Q 61.8001 95.3323, 63.3601 93.9723 Q 64.9201 92.5723, 64.9201 90.3323 Q 64.9201 87.4523, 63.2801 86.1723 Q 61.6801 84.8523, 58.2001 84.8523 L 56.1601 84.8523 L 56.1601 81.9723 L 57.9601 81.9723 Q 61.0401 81.9323, 62.6801 80.6123 Q 64.3201 79.2523, 64.3201 76.7323 Q 64.3201 74.8923, 62.9601 73.8123 Q 61.6001 72.6923, 59.2801 72.6923 Q 56.9201 72.6923, 55.4401 73.5323 Q 54.0001 74.3723, 52.8801 76.4923 L 50.1201 75.0123 Q 51.1201 72.6523, 53.5201 71.0923 Q 55.9201 69.4923, 59.2801 69.4923 Q 63.4401 69.4923, 65.8801 71.4523 Q 68.3201 73.4123, 68.3201 76.7323 Q 68.3201 79.0123, 67.0801 80.6523 Q 65.8401 82.2923, 63.4801 83.2123 " fill="#000000"/>
<path class="atom-3" d="M 240.301 402.173 L 244.141 402.173 L 244.141 414.213 L 258.621 414.213 L 258.621 402.173 L 262.461 402.173 L 262.461 430.493 L 258.621 430.493 L 258.621 417.413 L 244.141 417.413 L 244.141 430.493 L 240.301 430.493 L 240.301 402.173 " fill="#000000"/>
<path class="atom-3" d="M 265.461 425.813 L 269.461 425.813 L 269.461 429.813 L 265.461 429.813 L 265.461 425.813 M 265.461 412.053 L 269.461 412.053 L 269.461 416.053 L 265.461 416.053 L 265.461 412.053 " fill="#000000"/>
<path class="atom-3" d="M 289.061 420.773 L 292.461 420.773 L 292.461 423.973 L 289.061 423.973 L 289.061 430.493 L 285.301 430.493 L 285.301 423.973 L 270.661 423.973 L 270.661 421.453 L 283.061 402.173 L 289.061 402.173 L 289.061 420.773 M 275.301 420.773 L 285.301 420.773 L 285.301 404.733 L 275.301 420.773 " fill="#000000"/>
<text x="347.3716444389787" y="139.23240221029747" font-size="12" font-family="Verdana" font-weight="bold" letter-spacing="0" text-anchor="start" fill="black" transform=" rotate(60.000000 347.371644 139.232402)">0.0732</text><text x="25" y="490" font-size="12" font-family="Verdana" font-weight="bold" letter-spacing="0" text-anchor="start" fill="black">[H:1]-[#7:2](-[H:3])-[H:4]</text></svg>
