<?xml version='1.0' encoding='ASCII' standalone='yes'?>
<svg xmlns="http://www.w3.org/2000/svg" xmlns:rdkit="http://www.rdkit.org/xml" xmlns:xlink="http://www.w3.org/1999/xlink" version="1.1" baseProfile="full" xml:space="preserve" width="500px" height="500px" viewBox="0 0 500 500">
<!-- END OF HEADER -->
<rect style="opacity:1.0;fill:#FFFFFF;stroke:none" width="500.0" height="500.0" x="0.0" y="0.0"> </rect>
<path class="bond-3 atom-1 atom-2" d="M 265.2,275.8 L 311.3,282.5" style="fill:none;fill-rule:evenodd;stroke:#FF7F7F;stroke-width:9.9px;stroke-linecap:butt;stroke-linejoin:miter;stroke-opacity:1"/>
<path class="bond-0 atom-0 atom-1" d="M 242.8,304.2 L 250.7,294.2" style="fill:none;fill-rule:evenodd;stroke:#0000FF;stroke-width:2.0px;stroke-linecap:butt;stroke-linejoin:miter;stroke-opacity:1"/>
<path class="bond-0 atom-0 atom-1" d="M 250.7,294.2 L 258.6,284.2" style="fill:none;fill-rule:evenodd;stroke:#000000;stroke-width:2.0px;stroke-linecap:butt;stroke-linejoin:miter;stroke-opacity:1"/>
<path class="bond-1 atom-0 atom-6" d="M 223.5,310.5 L 213.5,309.0" style="fill:none;fill-rule:evenodd;stroke:#0000FF;stroke-width:2.0px;stroke-linecap:butt;stroke-linejoin:miter;stroke-opacity:1"/>
<path class="bond-1 atom-0 atom-6" d="M 213.5,309.0 L 203.4,307.6" style="fill:none;fill-rule:evenodd;stroke:#000000;stroke-width:2.0px;stroke-linecap:butt;stroke-linejoin:miter;stroke-opacity:1"/>
<path class="bond-2 atom-0 atom-12" d="M 240.0,321.2 L 245.2,334.4" style="fill:none;fill-rule:evenodd;stroke:#0000FF;stroke-width:2.0px;stroke-linecap:butt;stroke-linejoin:miter;stroke-opacity:1"/>
<path class="bond-2 atom-0 atom-12" d="M 245.2,334.4 L 250.5,347.5" style="fill:none;fill-rule:evenodd;stroke:#000000;stroke-width:2.0px;stroke-linecap:butt;stroke-linejoin:miter;stroke-opacity:1"/>
<path class="bond-3 atom-1 atom-2" d="M 278.3,277.7 L 298.2,280.6" style="fill:none;fill-rule:evenodd;stroke:#000000;stroke-width:2.0px;stroke-linecap:butt;stroke-linejoin:miter;stroke-opacity:1"/>
<path class="bond-4 atom-2 atom-5" d="M 317.7,274.3 L 331.8,256.4" style="fill:none;fill-rule:evenodd;stroke:#000000;stroke-width:2.0px;stroke-linecap:butt;stroke-linejoin:miter;stroke-opacity:1"/>
<path class="bond-5 atom-2 atom-3" d="M 314.6,290.8 L 325.2,317.5" style="fill:none;fill-rule:evenodd;stroke:#000000;stroke-width:2.0px;stroke-linecap:butt;stroke-linejoin:miter;stroke-opacity:1"/>
<path class="bond-5 atom-2 atom-3" d="M 324.8,291.4 L 332.3,310.0" style="fill:none;fill-rule:evenodd;stroke:#000000;stroke-width:2.0px;stroke-linecap:butt;stroke-linejoin:miter;stroke-opacity:1"/>
<path class="bond-6 atom-3 atom-18" d="M 342.2,327.7 L 357.0,329.8" style="fill:none;fill-rule:evenodd;stroke:#000000;stroke-width:2.0px;stroke-linecap:butt;stroke-linejoin:miter;stroke-opacity:1"/>
<path class="bond-7 atom-3 atom-21" d="M 321.9,334.0 L 305.7,354.7" style="fill:none;fill-rule:evenodd;stroke:#000000;stroke-width:2.0px;stroke-linecap:butt;stroke-linejoin:miter;stroke-opacity:1"/>
<path class="bond-8 atom-4 atom-13" d="M 253.1,224.4 L 267.5,201.6" style="fill:none;fill-rule:evenodd;stroke:#000000;stroke-width:2.0px;stroke-linecap:butt;stroke-linejoin:miter;stroke-opacity:1"/>
<path class="bond-9 atom-4 atom-1" d="M 251.3,241.0 L 262.0,267.6" style="fill:none;fill-rule:evenodd;stroke:#000000;stroke-width:2.0px;stroke-linecap:butt;stroke-linejoin:miter;stroke-opacity:1"/>
<path class="bond-9 atom-4 atom-1" d="M 261.5,241.5 L 269.0,260.2" style="fill:none;fill-rule:evenodd;stroke:#000000;stroke-width:2.0px;stroke-linecap:butt;stroke-linejoin:miter;stroke-opacity:1"/>
<path class="bond-10 atom-4 atom-15" d="M 241.4,230.9 L 220.4,225.6" style="fill:none;fill-rule:evenodd;stroke:#000000;stroke-width:2.0px;stroke-linecap:butt;stroke-linejoin:miter;stroke-opacity:1"/>
<path class="bond-11 atom-5 atom-17" d="M 346.1,246.8 L 368.5,250.0" style="fill:none;fill-rule:evenodd;stroke:#000000;stroke-width:2.0px;stroke-linecap:butt;stroke-linejoin:miter;stroke-opacity:1"/>
<path class="bond-11 atom-5 atom-17" d="M 348.1,256.5 L 363.8,258.8" style="fill:none;fill-rule:evenodd;stroke:#000000;stroke-width:2.0px;stroke-linecap:butt;stroke-linejoin:miter;stroke-opacity:1"/>
<path class="bond-12 atom-5 atom-20" d="M 337.9,237.8 L 330.3,209.1" style="fill:none;fill-rule:evenodd;stroke:#000000;stroke-width:2.0px;stroke-linecap:butt;stroke-linejoin:miter;stroke-opacity:1"/>
<path class="bond-13 atom-6 atom-7" d="M 187.1,297.5 L 176.5,270.8" style="fill:none;fill-rule:evenodd;stroke:#000000;stroke-width:2.0px;stroke-linecap:butt;stroke-linejoin:miter;stroke-opacity:1"/>
<path class="bond-13 atom-6 atom-7" d="M 176.9,297.0 L 169.4,278.3" style="fill:none;fill-rule:evenodd;stroke:#000000;stroke-width:2.0px;stroke-linecap:butt;stroke-linejoin:miter;stroke-opacity:1"/>
<path class="bond-14 atom-6 atom-8" d="M 183.8,314.0 L 168.0,334.1" style="fill:none;fill-rule:evenodd;stroke:#000000;stroke-width:2.0px;stroke-linecap:butt;stroke-linejoin:miter;stroke-opacity:1"/>
<path class="bond-15 atom-7 atom-9" d="M 166.5,261.5 L 144.9,258.4" style="fill:none;fill-rule:evenodd;stroke:#000000;stroke-width:2.0px;stroke-linecap:butt;stroke-linejoin:miter;stroke-opacity:1"/>
<path class="bond-16 atom-7 atom-22" d="M 176.8,254.3 L 179.6,248.1" style="fill:none;fill-rule:evenodd;stroke:#000000;stroke-width:2.0px;stroke-linecap:butt;stroke-linejoin:miter;stroke-opacity:1"/>
<path class="bond-17 atom-8 atom-10" d="M 148.4,340.3 L 132.5,338.0" style="fill:none;fill-rule:evenodd;stroke:#000000;stroke-width:2.0px;stroke-linecap:butt;stroke-linejoin:miter;stroke-opacity:1"/>
<path class="bond-17 atom-8 atom-10" d="M 147.4,330.8 L 136.2,329.2" style="fill:none;fill-rule:evenodd;stroke:#000000;stroke-width:2.0px;stroke-linecap:butt;stroke-linejoin:miter;stroke-opacity:1"/>
<path class="bond-18 atom-8 atom-23" d="M 164.9,350.6 L 175.7,377.4" style="fill:none;fill-rule:evenodd;stroke:#000000;stroke-width:2.0px;stroke-linecap:butt;stroke-linejoin:miter;stroke-opacity:1"/>
<path class="bond-19 atom-9 atom-11" d="M 120.2,264.6 L 104.7,284.2" style="fill:none;fill-rule:evenodd;stroke:#000000;stroke-width:2.0px;stroke-linecap:butt;stroke-linejoin:miter;stroke-opacity:1"/>
<path class="bond-19 atom-9 atom-11" d="M 125.2,273.3 L 114.4,287.0" style="fill:none;fill-rule:evenodd;stroke:#000000;stroke-width:2.0px;stroke-linecap:butt;stroke-linejoin:miter;stroke-opacity:1"/>
<path class="bond-20 atom-9 atom-24" d="M 123.9,247.7 L 113.2,221.0" style="fill:none;fill-rule:evenodd;stroke:#000000;stroke-width:2.0px;stroke-linecap:butt;stroke-linejoin:miter;stroke-opacity:1"/>
<path class="bond-21 atom-10 atom-11" d="M 112.8,328.6 L 101.6,300.6" style="fill:none;fill-rule:evenodd;stroke:#000000;stroke-width:2.0px;stroke-linecap:butt;stroke-linejoin:miter;stroke-opacity:1"/>
<path class="bond-22 atom-10 atom-25" d="M 109.0,343.9 L 92.9,364.4" style="fill:none;fill-rule:evenodd;stroke:#000000;stroke-width:2.0px;stroke-linecap:butt;stroke-linejoin:miter;stroke-opacity:1"/>
<path class="bond-23 atom-11 atom-31" d="M 80.9,289.9 L 58.2,286.6" style="fill:none;fill-rule:evenodd;stroke:#000000;stroke-width:2.0px;stroke-linecap:butt;stroke-linejoin:miter;stroke-opacity:1"/>
<path class="bond-24 atom-13 atom-16" d="M 266.2,185.3 L 249.8,165.7" style="fill:none;fill-rule:evenodd;stroke:#000000;stroke-width:2.0px;stroke-linecap:butt;stroke-linejoin:miter;stroke-opacity:1"/>
<path class="bond-24 atom-13 atom-16" d="M 256.6,188.3 L 245.1,174.6" style="fill:none;fill-rule:evenodd;stroke:#000000;stroke-width:2.0px;stroke-linecap:butt;stroke-linejoin:miter;stroke-opacity:1"/>
<path class="bond-25 atom-13 atom-32" d="M 302.2,187.7 L 311.8,185.8" style="fill:none;fill-rule:evenodd;stroke:#000000;stroke-width:2.0px;stroke-linecap:butt;stroke-linejoin:miter;stroke-opacity:1"/>
<path class="bond-26 atom-14 atom-15" d="M 200.4,183.0 L 201.3,198.1" style="fill:none;fill-rule:evenodd;stroke:#0000FF;stroke-width:2.0px;stroke-linecap:butt;stroke-linejoin:miter;stroke-opacity:1"/>
<path class="bond-26 atom-14 atom-15" d="M 201.3,198.1 L 202.3,213.1" style="fill:none;fill-rule:evenodd;stroke:#000000;stroke-width:2.0px;stroke-linecap:butt;stroke-linejoin:miter;stroke-opacity:1"/>
<path class="bond-27 atom-14 atom-16" d="M 205.8,172.4 L 215.7,168.4" style="fill:none;fill-rule:evenodd;stroke:#0000FF;stroke-width:2.0px;stroke-linecap:butt;stroke-linejoin:miter;stroke-opacity:1"/>
<path class="bond-27 atom-14 atom-16" d="M 215.7,168.4 L 225.7,164.4" style="fill:none;fill-rule:evenodd;stroke:#000000;stroke-width:2.0px;stroke-linecap:butt;stroke-linejoin:miter;stroke-opacity:1"/>
<path class="bond-28 atom-14 atom-26" d="M 186.9,166.6 L 176.6,160.1" style="fill:none;fill-rule:evenodd;stroke:#0000FF;stroke-width:2.0px;stroke-linecap:butt;stroke-linejoin:miter;stroke-opacity:1"/>
<path class="bond-28 atom-14 atom-26" d="M 176.6,160.1 L 166.3,153.7" style="fill:none;fill-rule:evenodd;stroke:#000000;stroke-width:2.0px;stroke-linecap:butt;stroke-linejoin:miter;stroke-opacity:1"/>
<path class="bond-29 atom-15 atom-27" d="M 187.6,233.7 L 178.4,238.2" style="fill:none;fill-rule:evenodd;stroke:#000000;stroke-width:2.0px;stroke-linecap:butt;stroke-linejoin:miter;stroke-opacity:1"/>
<path class="bond-29 atom-15 atom-27" d="M 178.4,238.2 L 169.2,242.6" style="fill:none;fill-rule:evenodd;stroke:#FF0000;stroke-width:2.0px;stroke-linecap:butt;stroke-linejoin:miter;stroke-opacity:1"/>
<path class="bond-29 atom-15 atom-27" d="M 183.6,225.3 L 174.3,229.8" style="fill:none;fill-rule:evenodd;stroke:#000000;stroke-width:2.0px;stroke-linecap:butt;stroke-linejoin:miter;stroke-opacity:1"/>
<path class="bond-29 atom-15 atom-27" d="M 174.3,229.8 L 165.1,234.2" style="fill:none;fill-rule:evenodd;stroke:#FF0000;stroke-width:2.0px;stroke-linecap:butt;stroke-linejoin:miter;stroke-opacity:1"/>
<path class="bond-30 atom-16 atom-33" d="M 245.1,149.4 L 252.4,120.6" style="fill:none;fill-rule:evenodd;stroke:#000000;stroke-width:2.0px;stroke-linecap:butt;stroke-linejoin:miter;stroke-opacity:1"/>
<path class="bond-31 atom-17 atom-19" d="M 389.4,260.8 L 400.1,287.6" style="fill:none;fill-rule:evenodd;stroke:#000000;stroke-width:2.0px;stroke-linecap:butt;stroke-linejoin:miter;stroke-opacity:1"/>
<path class="bond-32 atom-17 atom-28" d="M 392.5,244.4 L 408.4,224.2" style="fill:none;fill-rule:evenodd;stroke:#000000;stroke-width:2.0px;stroke-linecap:butt;stroke-linejoin:miter;stroke-opacity:1"/>
<path class="bond-33 atom-18 atom-19" d="M 381.0,324.2 L 395.8,305.3" style="fill:none;fill-rule:evenodd;stroke:#000000;stroke-width:2.0px;stroke-linecap:butt;stroke-linejoin:miter;stroke-opacity:1"/>
<path class="bond-33 atom-18 atom-19" d="M 375.9,315.6 L 386.3,302.4" style="fill:none;fill-rule:evenodd;stroke:#000000;stroke-width:2.0px;stroke-linecap:butt;stroke-linejoin:miter;stroke-opacity:1"/>
<path class="bond-34 atom-18 atom-29" d="M 377.8,340.5 L 388.6,367.5" style="fill:none;fill-rule:evenodd;stroke:#000000;stroke-width:2.0px;stroke-linecap:butt;stroke-linejoin:miter;stroke-opacity:1"/>
<path class="bond-35 atom-19 atom-30" d="M 421.7,298.5 L 442.7,301.5" style="fill:none;fill-rule:evenodd;stroke:#000000;stroke-width:2.0px;stroke-linecap:butt;stroke-linejoin:miter;stroke-opacity:1"/>
<path class="atom-0" d="M 227.1 305.8 L 231.5 312.8 Q 231.9 313.5, 232.6 314.7 Q 233.3 316.0, 233.3 316.0 L 233.3 305.8 L 235.1 305.8 L 235.1 319.0 L 233.2 319.0 L 228.6 311.4 Q 228.1 310.5, 227.5 309.4 Q 226.9 308.4, 226.8 308.1 L 226.8 319.0 L 225.1 319.0 L 225.1 305.8 L 227.1 305.8 " fill="#0000FF"/>
<path class="atom-0" d="M 236.6 316.8 L 238.5 316.8 L 238.5 318.7 L 236.6 318.7 L 236.6 316.8 M 236.6 310.4 L 238.5 310.4 L 238.5 312.3 L 236.6 312.3 L 236.6 310.4 " fill="#0000FF"/>
<path class="atom-0" d="M 240.6 317.5 L 243.5 317.5 L 243.5 307.7 L 240.3 308.6 L 239.9 307.5 L 243.9 305.7 L 245.2 306.0 L 245.2 317.5 L 247.8 317.5 L 247.8 319.0 L 240.6 319.0 L 240.6 317.5 " fill="#0000FF"/>
<path class="atom-1" d="M 253.7 275.9 Q 253.7 272.6, 255.2 270.9 Q 256.8 269.2, 259.7 269.2 Q 262.4 269.2, 263.9 271.1 L 262.6 272.1 Q 261.6 270.7, 259.7 270.7 Q 257.7 270.7, 256.6 272.0 Q 255.6 273.3, 255.6 275.9 Q 255.6 278.5, 256.7 279.8 Q 257.8 281.2, 259.9 281.2 Q 261.3 281.2, 263.0 280.3 L 263.6 281.7 Q 262.9 282.1, 261.8 282.4 Q 260.8 282.6, 259.6 282.6 Q 256.8 282.6, 255.2 280.9 Q 253.7 279.1, 253.7 275.9 " fill="#000000"/>
<path class="atom-1" d="M 264.6 280.3 L 266.5 280.3 L 266.5 282.2 L 264.6 282.2 L 264.6 280.3 M 264.6 273.9 L 266.5 273.9 L 266.5 275.8 L 264.6 275.8 L 264.6 273.9 " fill="#000000"/>
<path class="atom-1" d="M 267.9 271.8 Q 268.4 270.6, 269.5 269.9 Q 270.7 269.2, 272.3 269.2 Q 274.3 269.2, 275.4 270.2 Q 276.5 271.3, 276.5 273.2 Q 276.5 275.2, 275.1 277.0 Q 273.6 278.8, 270.7 281.0 L 276.7 281.0 L 276.7 282.5 L 267.9 282.5 L 267.9 281.2 Q 270.3 279.5, 271.8 278.2 Q 273.2 276.9, 273.9 275.7 Q 274.7 274.5, 274.7 273.3 Q 274.7 272.1, 274.0 271.4 Q 273.4 270.6, 272.3 270.6 Q 271.2 270.6, 270.5 271.1 Q 269.8 271.5, 269.3 272.4 L 267.9 271.8 " fill="#000000"/>
<path class="atom-2" d="M 299.7 282.5 Q 299.7 279.3, 301.3 277.5 Q 302.8 275.8, 305.7 275.8 Q 308.5 275.8, 309.9 277.7 L 308.7 278.7 Q 307.6 277.3, 305.7 277.3 Q 303.7 277.3, 302.7 278.7 Q 301.6 280.0, 301.6 282.5 Q 301.6 285.1, 302.7 286.5 Q 303.8 287.8, 305.9 287.8 Q 307.4 287.8, 309.1 286.9 L 309.6 288.3 Q 308.9 288.8, 307.9 289.0 Q 306.8 289.3, 305.7 289.3 Q 302.8 289.3, 301.3 287.6 Q 299.7 285.8, 299.7 282.5 " fill="#000000"/>
<path class="atom-2" d="M 310.7 287.0 L 312.5 287.0 L 312.5 288.8 L 310.7 288.8 L 310.7 287.0 M 310.7 280.6 L 312.5 280.6 L 312.5 282.4 L 310.7 282.4 L 310.7 280.6 " fill="#000000"/>
<path class="atom-2" d="M 320.2 282.2 Q 321.5 282.6, 322.1 283.4 Q 322.8 284.2, 322.8 285.5 Q 322.8 286.6, 322.2 287.5 Q 321.6 288.4, 320.6 288.9 Q 319.6 289.3, 318.3 289.3 Q 316.8 289.3, 315.8 288.8 Q 314.7 288.3, 313.9 287.3 L 315.0 286.3 Q 315.8 287.1, 316.5 287.5 Q 317.2 287.8, 318.3 287.8 Q 319.5 287.8, 320.2 287.2 Q 320.9 286.5, 320.9 285.5 Q 320.9 284.2, 320.1 283.6 Q 319.4 283.0, 317.8 283.0 L 316.8 283.0 L 316.8 281.6 L 317.7 281.6 Q 319.1 281.6, 319.9 281.0 Q 320.6 280.4, 320.6 279.2 Q 320.6 278.3, 320.0 277.8 Q 319.4 277.3, 318.3 277.3 Q 317.2 277.3, 316.5 277.7 Q 315.8 278.1, 315.3 279.1 L 314.0 278.4 Q 314.5 277.3, 315.6 276.6 Q 316.7 275.8, 318.3 275.8 Q 320.2 275.8, 321.4 276.7 Q 322.5 277.6, 322.5 279.2 Q 322.5 280.2, 321.9 281.0 Q 321.3 281.8, 320.2 282.2 " fill="#000000"/>
<path class="atom-3" d="M 316.4 325.7 Q 316.4 322.5, 317.9 320.7 Q 319.4 319.0, 322.4 319.0 Q 325.1 319.0, 326.5 320.9 L 325.3 321.9 Q 324.2 320.5, 322.4 320.5 Q 320.4 320.5, 319.3 321.9 Q 318.3 323.2, 318.3 325.7 Q 318.3 328.3, 319.3 329.7 Q 320.4 331.0, 322.6 331.0 Q 324.0 331.0, 325.7 330.1 L 326.2 331.5 Q 325.5 332.0, 324.5 332.2 Q 323.5 332.5, 322.3 332.5 Q 319.4 332.5, 317.9 330.8 Q 316.4 329.0, 316.4 325.7 " fill="#000000"/>
<path class="atom-3" d="M 327.3 330.2 L 329.1 330.2 L 329.1 332.0 L 327.3 332.0 L 327.3 330.2 M 327.3 323.8 L 329.1 323.8 L 329.1 325.6 L 327.3 325.6 L 327.3 323.8 " fill="#000000"/>
<path class="atom-3" d="M 339.1 327.8 L 340.7 327.8 L 340.7 329.3 L 339.1 329.3 L 339.1 332.3 L 337.3 332.3 L 337.3 329.3 L 330.5 329.3 L 330.5 328.1 L 336.3 319.2 L 339.1 319.2 L 339.1 327.8 M 332.7 327.8 L 337.3 327.8 L 337.3 320.4 L 332.7 327.8 " fill="#000000"/>
<path class="atom-4" d="M 242.9 232.7 Q 242.9 229.4, 244.4 227.7 Q 246.0 226.0, 248.9 226.0 Q 251.6 226.0, 253.0 227.9 L 251.8 228.9 Q 250.8 227.5, 248.9 227.5 Q 246.9 227.5, 245.8 228.8 Q 244.8 230.1, 244.8 232.7 Q 244.8 235.3, 245.9 236.6 Q 247.0 238.0, 249.1 238.0 Q 250.5 238.0, 252.2 237.1 L 252.7 238.5 Q 252.1 238.9, 251.0 239.2 Q 250.0 239.4, 248.8 239.4 Q 246.0 239.4, 244.4 237.7 Q 242.9 235.9, 242.9 232.7 " fill="#000000"/>
<path class="atom-4" d="M 253.8 237.1 L 255.6 237.1 L 255.6 239.0 L 253.8 239.0 L 253.8 237.1 M 253.8 230.7 L 255.6 230.7 L 255.6 232.6 L 253.8 232.6 L 253.8 230.7 " fill="#000000"/>
<path class="atom-4" d="M 261.8 231.0 Q 263.0 231.0, 263.9 231.5 Q 264.9 232.0, 265.4 232.9 Q 266.0 233.9, 266.0 235.1 Q 266.0 236.5, 265.3 237.5 Q 264.6 238.4, 263.6 238.9 Q 262.5 239.4, 261.2 239.4 Q 260.0 239.4, 258.9 239.0 Q 257.8 238.5, 257.0 237.7 L 258.2 236.5 Q 258.8 237.2, 259.6 237.6 Q 260.4 237.9, 261.3 237.9 Q 262.5 237.9, 263.3 237.2 Q 264.1 236.5, 264.1 235.1 Q 264.1 233.7, 263.3 233.1 Q 262.5 232.4, 261.2 232.4 Q 260.0 232.4, 258.8 232.9 L 257.7 232.4 L 258.4 226.1 L 265.1 226.1 L 265.0 227.6 L 259.9 227.6 L 259.5 231.5 Q 260.7 231.0, 261.8 231.0 " fill="#000000"/>
<path class="atom-5" d="M 321.3 246.0 Q 321.3 242.7, 322.8 241.0 Q 324.4 239.3, 327.3 239.3 Q 330.0 239.3, 331.5 241.2 L 330.2 242.2 Q 329.2 240.8, 327.3 240.8 Q 325.3 240.8, 324.3 242.1 Q 323.2 243.5, 323.2 246.0 Q 323.2 248.6, 324.3 249.9 Q 325.4 251.3, 327.5 251.3 Q 329.0 251.3, 330.7 250.4 L 331.2 251.8 Q 330.5 252.2, 329.4 252.5 Q 328.4 252.8, 327.3 252.8 Q 324.4 252.8, 322.8 251.0 Q 321.3 249.3, 321.3 246.0 " fill="#000000"/>
<path class="atom-5" d="M 332.2 250.4 L 334.1 250.4 L 334.1 252.3 L 332.2 252.3 L 332.2 250.4 M 332.2 244.0 L 334.1 244.0 L 334.1 245.9 L 332.2 245.9 L 332.2 244.0 " fill="#000000"/>
<path class="atom-5" d="M 340.6 244.4 Q 341.8 244.4, 342.7 244.9 Q 343.6 245.4, 344.1 246.3 Q 344.6 247.2, 344.6 248.4 Q 344.6 249.6, 344.0 250.6 Q 343.5 251.6, 342.5 252.2 Q 341.5 252.7, 340.2 252.7 Q 337.8 252.7, 336.6 251.2 Q 335.5 249.6, 335.5 246.4 Q 335.5 242.9, 336.9 241.1 Q 338.4 239.3, 341.2 239.3 Q 342.0 239.3, 342.7 239.5 Q 343.4 239.6, 344.1 240.0 L 343.4 241.3 Q 342.4 240.8, 341.2 240.8 Q 339.4 240.8, 338.4 242.0 Q 337.5 243.2, 337.4 245.6 Q 338.0 245.0, 338.9 244.7 Q 339.7 244.4, 340.6 244.4 M 340.2 251.2 Q 340.9 251.2, 341.5 250.8 Q 342.1 250.5, 342.4 249.8 Q 342.8 249.2, 342.8 248.4 Q 342.8 247.2, 342.1 246.5 Q 341.4 245.9, 340.3 245.9 Q 339.5 245.9, 338.7 246.2 Q 337.9 246.5, 337.4 247.1 Q 337.4 249.2, 338.1 250.2 Q 338.8 251.2, 340.2 251.2 " fill="#000000"/>
<path class="atom-6" d="M 178.9 305.8 Q 178.9 302.5, 180.5 300.8 Q 182.0 299.0, 184.9 299.0 Q 187.6 299.0, 189.1 301.0 L 187.9 302.0 Q 186.8 300.6, 184.9 300.6 Q 182.9 300.6, 181.9 301.9 Q 180.8 303.2, 180.8 305.8 Q 180.8 308.4, 181.9 309.7 Q 183.0 311.0, 185.1 311.0 Q 186.6 311.0, 188.3 310.2 L 188.8 311.6 Q 188.1 312.0, 187.1 312.3 Q 186.0 312.5, 184.9 312.5 Q 182.0 312.5, 180.5 310.8 Q 178.9 309.0, 178.9 305.8 " fill="#000000"/>
<path class="atom-6" d="M 189.8 310.2 L 191.7 310.2 L 191.7 312.0 L 189.8 312.0 L 189.8 310.2 M 189.8 303.8 L 191.7 303.8 L 191.7 305.6 L 189.8 305.6 L 189.8 303.8 " fill="#000000"/>
<path class="atom-6" d="M 200.0 300.7 L 193.1 300.7 L 193.1 299.2 L 201.8 299.2 L 201.8 300.5 L 196.5 312.4 L 194.7 312.4 L 200.0 300.7 " fill="#000000"/>
<path class="atom-7" d="M 168.1 262.6 Q 168.1 259.3, 169.6 257.6 Q 171.1 255.8, 174.0 255.8 Q 176.8 255.8, 178.2 257.8 L 177.0 258.8 Q 175.9 257.4, 174.0 257.4 Q 172.1 257.4, 171.0 258.7 Q 170.0 260.0, 170.0 262.6 Q 170.0 265.2, 171.0 266.5 Q 172.1 267.8, 174.3 267.8 Q 175.7 267.8, 177.4 267.0 L 177.9 268.4 Q 177.2 268.8, 176.2 269.1 Q 175.1 269.3, 174.0 269.3 Q 171.1 269.3, 169.6 267.6 Q 168.1 265.8, 168.1 262.6 " fill="#000000"/>
<path class="atom-7" d="M 179.0 267.0 L 180.8 267.0 L 180.8 268.8 L 179.0 268.8 L 179.0 267.0 M 179.0 260.6 L 180.8 260.6 L 180.8 262.4 L 179.0 262.4 L 179.0 260.6 " fill="#000000"/>
<path class="atom-7" d="M 188.9 262.2 Q 190.1 262.7, 190.8 263.5 Q 191.5 264.2, 191.5 265.6 Q 191.5 266.7, 190.9 267.5 Q 190.4 268.4, 189.3 268.9 Q 188.3 269.3, 186.9 269.3 Q 184.7 269.3, 183.5 268.3 Q 182.2 267.3, 182.2 265.6 Q 182.2 264.5, 182.8 263.7 Q 183.3 262.9, 184.5 262.2 Q 183.6 261.8, 183.2 261.0 Q 182.7 260.3, 182.7 259.2 Q 182.7 257.7, 183.8 256.7 Q 185.0 255.8, 186.9 255.8 Q 188.8 255.8, 189.9 256.7 Q 191.0 257.7, 191.0 259.2 Q 191.0 260.2, 190.5 260.9 Q 190.0 261.6, 188.9 262.2 M 186.9 257.2 Q 185.8 257.2, 185.2 257.8 Q 184.6 258.3, 184.6 259.2 Q 184.6 259.9, 185.0 260.4 Q 185.4 260.8, 186.0 261.1 Q 186.6 261.3, 187.7 261.7 Q 188.5 261.2, 188.8 260.6 Q 189.2 260.0, 189.2 259.2 Q 189.2 258.3, 188.6 257.8 Q 188.0 257.2, 186.9 257.2 M 186.9 268.0 Q 188.2 268.0, 188.9 267.3 Q 189.7 266.6, 189.7 265.5 Q 189.7 264.8, 189.3 264.4 Q 188.9 263.9, 188.3 263.7 Q 187.7 263.4, 186.7 263.1 L 185.8 262.8 Q 184.9 263.4, 184.5 264.0 Q 184.1 264.7, 184.1 265.5 Q 184.1 266.6, 184.9 267.3 Q 185.6 268.0, 186.9 268.0 " fill="#000000"/>
<path class="atom-8" d="M 150.0 342.3 Q 150.0 339.0, 151.5 337.3 Q 153.0 335.6, 155.9 335.6 Q 158.7 335.6, 160.1 337.5 L 158.9 338.5 Q 157.8 337.1, 155.9 337.1 Q 154.0 337.1, 152.9 338.4 Q 151.9 339.8, 151.9 342.3 Q 151.9 344.9, 152.9 346.2 Q 154.0 347.6, 156.2 347.6 Q 157.6 347.6, 159.3 346.7 L 159.8 348.1 Q 159.1 348.6, 158.1 348.8 Q 157.0 349.1, 155.9 349.1 Q 153.0 349.1, 151.5 347.3 Q 150.0 345.6, 150.0 342.3 " fill="#000000"/>
<path class="atom-8" d="M 160.9 346.7 L 162.7 346.7 L 162.7 348.6 L 160.9 348.6 L 160.9 346.7 M 160.9 340.3 L 162.7 340.3 L 162.7 342.2 L 160.9 342.2 L 160.9 340.3 " fill="#000000"/>
<path class="atom-8" d="M 168.5 335.6 Q 170.9 335.6, 172.1 337.2 Q 173.3 338.8, 173.3 341.9 Q 173.3 345.4, 171.8 347.2 Q 170.3 349.1, 167.5 349.1 Q 166.7 349.1, 166.0 348.9 Q 165.3 348.7, 164.6 348.3 L 165.4 347.0 Q 166.3 347.6, 167.5 347.6 Q 169.4 347.6, 170.3 346.4 Q 171.3 345.2, 171.4 342.7 Q 170.7 343.3, 169.8 343.6 Q 169.0 344.0, 168.1 344.0 Q 166.9 344.0, 166.0 343.5 Q 165.1 343.0, 164.6 342.0 Q 164.1 341.1, 164.1 340.0 Q 164.1 338.7, 164.7 337.7 Q 165.2 336.7, 166.3 336.1 Q 167.3 335.6, 168.5 335.6 M 166.0 340.0 Q 166.0 341.1, 166.6 341.8 Q 167.3 342.5, 168.4 342.5 Q 169.2 342.5, 170.0 342.2 Q 170.8 341.8, 171.4 341.3 Q 171.3 339.1, 170.6 338.1 Q 169.9 337.1, 168.5 337.1 Q 167.8 337.1, 167.2 337.5 Q 166.6 337.9, 166.3 338.5 Q 166.0 339.2, 166.0 340.0 " fill="#000000"/>
<path class="atom-9" d="M 110.8 255.9 Q 110.8 252.6, 112.4 250.9 Q 113.9 249.2, 116.8 249.2 Q 119.5 249.2, 121.0 251.1 L 119.8 252.1 Q 118.7 250.7, 116.8 250.7 Q 114.8 250.7, 113.8 252.0 Q 112.7 253.4, 112.7 255.9 Q 112.7 258.5, 113.8 259.8 Q 114.9 261.2, 117.0 261.2 Q 118.5 261.2, 120.2 260.3 L 120.7 261.7 Q 120.0 262.1, 119.0 262.4 Q 117.9 262.7, 116.8 262.7 Q 113.9 262.7, 112.4 260.9 Q 110.8 259.2, 110.8 255.9 " fill="#000000"/>
<path class="atom-9" d="M 121.7 260.3 L 123.6 260.3 L 123.6 262.2 L 121.7 262.2 L 121.7 260.3 M 121.7 253.9 L 123.6 253.9 L 123.6 255.8 L 121.7 255.8 L 121.7 253.9 " fill="#000000"/>
<path class="atom-9" d="M 125.7 261.0 L 128.6 261.0 L 128.6 251.2 L 125.4 252.2 L 125.0 251.1 L 129.0 249.3 L 130.4 249.5 L 130.4 261.0 L 132.9 261.0 L 132.9 262.5 L 125.7 262.5 L 125.7 261.0 " fill="#000000"/>
<path class="atom-9" d="M 138.5 262.7 Q 136.1 262.7, 134.9 260.9 Q 133.7 259.1, 133.7 255.9 Q 133.7 252.7, 134.9 250.9 Q 136.1 249.2, 138.5 249.2 Q 141.0 249.2, 142.2 250.9 Q 143.4 252.7, 143.4 255.9 Q 143.4 259.1, 142.1 260.9 Q 141.0 262.7, 138.5 262.7 M 138.5 261.2 Q 140.0 261.2, 140.7 259.8 Q 141.5 258.5, 141.5 255.9 Q 141.5 253.3, 140.7 252.0 Q 140.0 250.7, 138.5 250.7 Q 137.1 250.7, 136.3 252.0 Q 135.6 253.3, 135.6 255.9 Q 135.6 258.5, 136.3 259.8 Q 137.1 261.2, 138.5 261.2 " fill="#000000"/>
<path class="atom-10" d="M 100.1 335.6 Q 100.1 332.4, 101.7 330.7 Q 103.2 328.9, 106.1 328.9 Q 108.9 328.9, 110.3 330.8 L 109.1 331.8 Q 108.0 330.4, 106.1 330.4 Q 104.1 330.4, 103.1 331.8 Q 102.0 333.1, 102.0 335.6 Q 102.0 338.2, 103.1 339.6 Q 104.2 340.9, 106.3 340.9 Q 107.8 340.9, 109.5 340.1 L 110.0 341.4 Q 109.3 341.9, 108.3 342.2 Q 107.2 342.4, 106.1 342.4 Q 103.2 342.4, 101.7 340.7 Q 100.1 338.9, 100.1 335.6 " fill="#000000"/>
<path class="atom-10" d="M 111.0 340.1 L 112.9 340.1 L 112.9 341.9 L 111.0 341.9 L 111.0 340.1 M 111.0 333.7 L 112.9 333.7 L 112.9 335.5 L 111.0 335.5 L 111.0 333.7 " fill="#000000"/>
<path class="atom-10" d="M 115.0 340.8 L 117.9 340.8 L 117.9 330.9 L 114.7 331.9 L 114.3 330.8 L 118.3 329.0 L 119.7 329.2 L 119.7 340.8 L 122.3 340.8 L 122.3 342.2 L 115.0 342.2 L 115.0 340.8 " fill="#000000"/>
<path class="atom-10" d="M 123.8 340.8 L 126.6 340.8 L 126.6 330.9 L 123.5 331.9 L 123.0 330.8 L 127.1 329.0 L 128.4 329.2 L 128.4 340.8 L 131.0 340.8 L 131.0 342.2 L 123.8 342.2 L 123.8 340.8 " fill="#000000"/>
<path class="atom-11" d="M 82.4 292.4 Q 82.4 289.2, 84.0 287.5 Q 85.5 285.7, 88.4 285.7 Q 91.1 285.7, 92.6 287.6 L 91.4 288.6 Q 90.3 287.2, 88.4 287.2 Q 86.4 287.2, 85.4 288.6 Q 84.3 289.9, 84.3 292.4 Q 84.3 295.0, 85.4 296.4 Q 86.5 297.7, 88.6 297.7 Q 90.1 297.7, 91.8 296.8 L 92.3 298.2 Q 91.6 298.7, 90.6 299.0 Q 89.5 299.2, 88.4 299.2 Q 85.5 299.2, 84.0 297.5 Q 82.4 295.7, 82.4 292.4 " fill="#000000"/>
<path class="atom-11" d="M 93.3 296.9 L 95.2 296.9 L 95.2 298.7 L 93.3 298.7 L 93.3 296.9 M 93.3 290.5 L 95.2 290.5 L 95.2 292.3 L 93.3 292.3 L 93.3 290.5 " fill="#000000"/>
<path class="atom-11" d="M 97.3 297.6 L 100.2 297.6 L 100.2 287.7 L 97.0 288.7 L 96.6 287.6 L 100.6 285.8 L 101.9 286.0 L 101.9 297.6 L 104.5 297.6 L 104.5 299.0 L 97.3 299.0 L 97.3 297.6 " fill="#000000"/>
<path class="atom-11" d="M 105.4 288.4 Q 105.8 287.1, 107.0 286.4 Q 108.1 285.7, 109.7 285.7 Q 111.7 285.7, 112.9 286.8 Q 114.0 287.9, 114.0 289.8 Q 114.0 291.8, 112.5 293.6 Q 111.1 295.4, 108.1 297.6 L 114.2 297.6 L 114.2 299.0 L 105.3 299.0 L 105.3 297.8 Q 107.8 296.0, 109.2 294.7 Q 110.7 293.4, 111.4 292.3 Q 112.1 291.1, 112.1 289.9 Q 112.1 288.6, 111.5 287.9 Q 110.8 287.2, 109.7 287.2 Q 108.7 287.2, 108.0 287.6 Q 107.3 288.1, 106.8 289.0 L 105.4 288.4 " fill="#000000"/>
<path class="atom-12" d="M 248.5 349.0 L 250.3 349.0 L 250.3 354.6 L 257.1 354.6 L 257.1 349.0 L 258.8 349.0 L 258.8 362.2 L 257.1 362.2 L 257.1 356.1 L 250.3 356.1 L 250.3 362.2 L 248.5 362.2 L 248.5 349.0 " fill="#000000"/>
<path class="atom-12" d="M 260.4 360.0 L 262.3 360.0 L 262.3 361.9 L 260.4 361.9 L 260.4 360.0 M 260.4 353.6 L 262.3 353.6 L 262.3 355.5 L 260.4 355.5 L 260.4 353.6 " fill="#000000"/>
<path class="atom-12" d="M 264.4 360.7 L 267.3 360.7 L 267.3 350.9 L 264.1 351.9 L 263.7 350.8 L 267.7 349.0 L 269.0 349.2 L 269.0 360.7 L 271.6 360.7 L 271.6 362.2 L 264.4 362.2 L 264.4 360.7 " fill="#000000"/>
<path class="atom-12" d="M 278.7 355.3 Q 280.0 355.7, 280.6 356.5 Q 281.3 357.3, 281.3 358.6 Q 281.3 359.7, 280.7 360.6 Q 280.1 361.5, 279.1 361.9 Q 278.1 362.4, 276.8 362.4 Q 275.3 362.4, 274.3 361.9 Q 273.2 361.4, 272.4 360.4 L 273.5 359.3 Q 274.3 360.2, 275.0 360.6 Q 275.7 360.9, 276.8 360.9 Q 277.9 360.9, 278.7 360.3 Q 279.4 359.6, 279.4 358.6 Q 279.4 357.3, 278.6 356.7 Q 277.9 356.0, 276.3 356.0 L 275.3 356.0 L 275.3 354.7 L 276.2 354.7 Q 277.6 354.7, 278.4 354.1 Q 279.1 353.4, 279.1 352.3 Q 279.1 351.4, 278.5 350.9 Q 277.9 350.4, 276.8 350.4 Q 275.7 350.4, 275.0 350.8 Q 274.3 351.2, 273.8 352.2 L 272.5 351.5 Q 273.0 350.4, 274.1 349.6 Q 275.2 348.9, 276.8 348.9 Q 278.7 348.9, 279.8 349.8 Q 281.0 350.7, 281.0 352.3 Q 281.0 353.3, 280.4 354.1 Q 279.8 354.9, 278.7 355.3 " fill="#000000"/>
<path class="atom-13" d="M 267.7 193.3 Q 267.7 190.0, 269.2 188.3 Q 270.8 186.6, 273.7 186.6 Q 276.4 186.6, 277.9 188.5 L 276.6 189.5 Q 275.6 188.1, 273.7 188.1 Q 271.7 188.1, 270.6 189.5 Q 269.6 190.8, 269.6 193.3 Q 269.6 195.9, 270.7 197.3 Q 271.8 198.6, 273.9 198.6 Q 275.3 198.6, 277.0 197.7 L 277.6 199.1 Q 276.9 199.6, 275.8 199.8 Q 274.8 200.1, 273.6 200.1 Q 270.8 200.1, 269.2 198.3 Q 267.7 196.6, 267.7 193.3 " fill="#000000"/>
<path class="atom-13" d="M 278.6 197.7 L 280.5 197.7 L 280.5 199.6 L 278.6 199.6 L 278.6 197.7 M 278.6 191.3 L 280.5 191.3 L 280.5 193.2 L 278.6 193.2 L 278.6 191.3 " fill="#000000"/>
<path class="atom-13" d="M 282.6 198.4 L 285.5 198.4 L 285.5 188.6 L 282.3 189.6 L 281.9 188.5 L 285.9 186.7 L 287.2 186.9 L 287.2 198.4 L 289.8 198.4 L 289.8 199.9 L 282.6 199.9 L 282.6 198.4 " fill="#000000"/>
<path class="atom-13" d="M 299.1 195.4 L 300.7 195.4 L 300.7 196.9 L 299.1 196.9 L 299.1 199.9 L 297.4 199.9 L 297.4 196.9 L 290.6 196.9 L 290.6 195.7 L 296.3 186.7 L 299.1 186.7 L 299.1 195.4 M 292.7 195.4 L 297.4 195.4 L 297.4 187.9 L 292.7 195.4 " fill="#000000"/>
<path class="atom-14" d="M 173.9 168.2 L 178.2 175.2 Q 178.7 175.9, 179.4 177.1 Q 180.0 178.4, 180.1 178.4 L 180.1 168.2 L 181.8 168.2 L 181.8 181.4 L 180.0 181.4 L 175.4 173.8 Q 174.8 172.9, 174.3 171.8 Q 173.7 170.8, 173.5 170.5 L 173.5 181.4 L 171.8 181.4 L 171.8 168.2 L 173.9 168.2 " fill="#0000FF"/>
<path class="atom-14" d="M 183.4 179.2 L 185.2 179.2 L 185.2 181.1 L 183.4 181.1 L 183.4 179.2 M 183.4 172.8 L 185.2 172.8 L 185.2 174.7 L 183.4 174.7 L 183.4 172.8 " fill="#0000FF"/>
<path class="atom-14" d="M 187.4 179.9 L 190.2 179.9 L 190.2 170.1 L 187.1 171.0 L 186.6 169.9 L 190.7 168.1 L 192.0 168.4 L 192.0 179.9 L 194.6 179.9 L 194.6 181.4 L 187.4 181.4 L 187.4 179.9 " fill="#0000FF"/>
<path class="atom-14" d="M 200.1 173.1 Q 201.3 173.1, 202.2 173.6 Q 203.2 174.1, 203.7 175.1 Q 204.3 176.0, 204.3 177.2 Q 204.3 178.6, 203.6 179.6 Q 202.9 180.5, 201.9 181.0 Q 200.8 181.5, 199.6 181.5 Q 198.4 181.5, 197.2 181.1 Q 196.1 180.6, 195.4 179.8 L 196.5 178.6 Q 197.1 179.3, 197.9 179.7 Q 198.8 180.0, 199.6 180.0 Q 200.8 180.0, 201.6 179.3 Q 202.4 178.6, 202.4 177.3 Q 202.4 175.9, 201.6 175.2 Q 200.8 174.5, 199.5 174.5 Q 198.4 174.5, 197.1 175.0 L 196.0 174.6 L 196.7 168.2 L 203.4 168.2 L 203.3 169.7 L 198.2 169.7 L 197.8 173.6 Q 199.0 173.1, 200.1 173.1 " fill="#0000FF"/>
<path class="atom-15" d="M 186.9 221.2 Q 186.9 218.0, 188.4 216.2 Q 189.9 214.5, 192.9 214.5 Q 195.6 214.5, 197.0 216.4 L 195.8 217.4 Q 194.7 216.0, 192.9 216.0 Q 190.9 216.0, 189.8 217.4 Q 188.8 218.7, 188.8 221.2 Q 188.8 223.8, 189.8 225.2 Q 190.9 226.5, 193.1 226.5 Q 194.5 226.5, 196.2 225.6 L 196.7 227.0 Q 196.0 227.5, 195.0 227.7 Q 193.9 228.0, 192.8 228.0 Q 189.9 228.0, 188.4 226.3 Q 186.9 224.5, 186.9 221.2 " fill="#000000"/>
<path class="atom-15" d="M 197.8 225.7 L 199.6 225.7 L 199.6 227.5 L 197.8 227.5 L 197.8 225.7 M 197.8 219.3 L 199.6 219.3 L 199.6 221.1 L 197.8 221.1 L 197.8 219.3 " fill="#000000"/>
<path class="atom-15" d="M 201.7 226.4 L 204.6 226.4 L 204.6 216.5 L 201.4 217.5 L 201.0 216.4 L 205.1 214.6 L 206.4 214.8 L 206.4 226.4 L 209.0 226.4 L 209.0 227.8 L 201.7 227.8 L 201.7 226.4 " fill="#000000"/>
<path class="atom-15" d="M 214.9 219.6 Q 216.1 219.6, 217.0 220.1 Q 217.9 220.6, 218.4 221.5 Q 218.9 222.4, 218.9 223.6 Q 218.9 224.9, 218.3 225.9 Q 217.7 226.9, 216.7 227.4 Q 215.7 228.0, 214.5 228.0 Q 212.1 228.0, 210.9 226.4 Q 209.7 224.8, 209.7 221.6 Q 209.7 218.1, 211.2 216.3 Q 212.7 214.5, 215.5 214.5 Q 216.3 214.5, 217.0 214.7 Q 217.7 214.9, 218.4 215.3 L 217.6 216.5 Q 216.7 216.0, 215.5 216.0 Q 213.6 216.0, 212.7 217.2 Q 211.7 218.4, 211.6 220.9 Q 212.3 220.3, 213.1 220.0 Q 214.0 219.6, 214.9 219.6 M 214.5 226.5 Q 215.2 226.5, 215.8 226.1 Q 216.4 225.7, 216.7 225.1 Q 217.0 224.4, 217.0 223.6 Q 217.0 222.4, 216.4 221.8 Q 215.7 221.1, 214.6 221.1 Q 213.8 221.1, 213.0 221.4 Q 212.2 221.8, 211.6 222.3 Q 211.7 224.5, 212.4 225.5 Q 213.1 226.5, 214.5 226.5 " fill="#000000"/>
<path class="atom-16" d="M 227.2 157.6 Q 227.2 154.3, 228.7 152.6 Q 230.3 150.8, 233.2 150.8 Q 235.9 150.8, 237.4 152.8 L 236.1 153.8 Q 235.1 152.4, 233.2 152.4 Q 231.2 152.4, 230.1 153.7 Q 229.1 155.0, 229.1 157.6 Q 229.1 160.2, 230.2 161.5 Q 231.3 162.8, 233.4 162.8 Q 234.8 162.8, 236.5 162.0 L 237.1 163.4 Q 236.4 163.8, 235.3 164.1 Q 234.3 164.3, 233.1 164.3 Q 230.3 164.3, 228.7 162.6 Q 227.2 160.8, 227.2 157.6 " fill="#000000"/>
<path class="atom-16" d="M 238.1 162.0 L 240.0 162.0 L 240.0 163.9 L 238.1 163.9 L 238.1 162.0 M 238.1 155.6 L 240.0 155.6 L 240.0 157.5 L 238.1 157.5 L 238.1 155.6 " fill="#000000"/>
<path class="atom-16" d="M 242.1 162.7 L 245.0 162.7 L 245.0 152.8 L 241.8 153.8 L 241.4 152.7 L 245.4 150.9 L 246.7 151.1 L 246.7 162.7 L 249.3 162.7 L 249.3 164.2 L 242.1 164.2 L 242.1 162.7 " fill="#000000"/>
<path class="atom-16" d="M 257.0 152.5 L 250.1 152.5 L 250.1 151.0 L 258.8 151.0 L 258.8 152.3 L 253.5 164.2 L 251.7 164.2 L 257.0 152.5 " fill="#000000"/>
<path class="atom-17" d="M 370.0 252.6 Q 370.0 249.4, 371.5 247.7 Q 373.1 245.9, 376.0 245.9 Q 378.7 245.9, 380.1 247.8 L 378.9 248.8 Q 377.9 247.5, 376.0 247.5 Q 374.0 247.5, 372.9 248.8 Q 371.9 250.1, 371.9 252.6 Q 371.9 255.3, 373.0 256.6 Q 374.1 257.9, 376.2 257.9 Q 377.6 257.9, 379.3 257.1 L 379.9 258.5 Q 379.2 258.9, 378.1 259.2 Q 377.1 259.4, 375.9 259.4 Q 373.1 259.4, 371.5 257.7 Q 370.0 255.9, 370.0 252.6 " fill="#000000"/>
<path class="atom-17" d="M 380.9 257.1 L 382.8 257.1 L 382.8 258.9 L 380.9 258.9 L 380.9 257.1 M 380.9 250.7 L 382.8 250.7 L 382.8 252.5 L 380.9 252.5 L 380.9 250.7 " fill="#000000"/>
<path class="atom-17" d="M 384.9 257.8 L 387.8 257.8 L 387.8 247.9 L 384.6 248.9 L 384.1 247.8 L 388.2 246.0 L 389.5 246.2 L 389.5 257.8 L 392.1 257.8 L 392.1 259.3 L 384.9 259.3 L 384.9 257.8 " fill="#000000"/>
<path class="atom-17" d="M 399.6 252.3 Q 400.8 252.8, 401.5 253.6 Q 402.2 254.3, 402.2 255.6 Q 402.2 256.8, 401.6 257.6 Q 401.0 258.5, 400.0 259.0 Q 399.0 259.4, 397.6 259.4 Q 395.4 259.4, 394.1 258.4 Q 392.9 257.4, 392.9 255.6 Q 392.9 254.6, 393.4 253.8 Q 394.0 252.9, 395.1 252.3 Q 394.3 251.8, 393.8 251.1 Q 393.4 250.4, 393.4 249.3 Q 393.4 247.8, 394.5 246.8 Q 395.6 245.9, 397.5 245.9 Q 399.4 245.9, 400.6 246.8 Q 401.7 247.8, 401.7 249.3 Q 401.7 250.3, 401.2 251.0 Q 400.6 251.7, 399.6 252.3 M 397.5 247.3 Q 396.4 247.3, 395.8 247.8 Q 395.2 248.4, 395.2 249.3 Q 395.2 250.0, 395.6 250.4 Q 396.0 250.9, 396.6 251.2 Q 397.2 251.4, 398.3 251.8 Q 399.1 251.3, 399.5 250.7 Q 399.8 250.1, 399.8 249.3 Q 399.8 248.4, 399.2 247.8 Q 398.6 247.3, 397.5 247.3 M 397.6 258.0 Q 398.8 258.0, 399.6 257.4 Q 400.3 256.7, 400.3 255.6 Q 400.3 254.9, 399.9 254.5 Q 399.5 254.0, 398.9 253.8 Q 398.4 253.5, 397.3 253.2 L 396.5 252.9 Q 395.6 253.4, 395.1 254.1 Q 394.7 254.8, 394.7 255.6 Q 394.7 256.7, 395.5 257.4 Q 396.3 258.0, 397.6 258.0 " fill="#000000"/>
<path class="atom-18" d="M 358.5 332.4 Q 358.5 329.1, 360.1 327.4 Q 361.6 325.7, 364.5 325.7 Q 367.2 325.7, 368.7 327.6 L 367.5 328.6 Q 366.4 327.2, 364.5 327.2 Q 362.5 327.2, 361.5 328.5 Q 360.4 329.9, 360.4 332.4 Q 360.4 335.0, 361.5 336.3 Q 362.6 337.7, 364.7 337.7 Q 366.2 337.7, 367.9 336.8 L 368.4 338.2 Q 367.7 338.6, 366.7 338.9 Q 365.6 339.2, 364.5 339.2 Q 361.6 339.2, 360.1 337.4 Q 358.5 335.7, 358.5 332.4 " fill="#000000"/>
<path class="atom-18" d="M 369.4 336.8 L 371.3 336.8 L 371.3 338.7 L 369.4 338.7 L 369.4 336.8 M 369.4 330.4 L 371.3 330.4 L 371.3 332.3 L 369.4 332.3 L 369.4 330.4 " fill="#000000"/>
<path class="atom-18" d="M 373.4 337.5 L 376.3 337.5 L 376.3 327.7 L 373.1 328.7 L 372.7 327.6 L 376.7 325.7 L 378.1 326.0 L 378.1 337.5 L 380.6 337.5 L 380.6 339.0 L 373.4 339.0 L 373.4 337.5 " fill="#000000"/>
<path class="atom-18" d="M 385.9 325.7 Q 388.2 325.7, 389.4 327.3 Q 390.6 328.9, 390.6 332.0 Q 390.6 335.5, 389.1 337.3 Q 387.6 339.1, 384.8 339.1 Q 384.0 339.1, 383.3 339.0 Q 382.6 338.8, 381.9 338.4 L 382.7 337.1 Q 383.6 337.7, 384.8 337.7 Q 386.7 337.7, 387.6 336.5 Q 388.6 335.3, 388.7 332.8 Q 388.0 333.4, 387.2 333.7 Q 386.3 334.0, 385.4 334.0 Q 384.3 334.0, 383.3 333.5 Q 382.4 333.0, 381.9 332.1 Q 381.4 331.2, 381.4 330.1 Q 381.4 328.8, 382.0 327.8 Q 382.6 326.8, 383.6 326.2 Q 384.6 325.7, 385.9 325.7 M 383.3 330.0 Q 383.3 331.2, 383.9 331.9 Q 384.6 332.6, 385.7 332.6 Q 386.5 332.6, 387.3 332.2 Q 388.1 331.9, 388.7 331.3 Q 388.6 329.2, 387.9 328.2 Q 387.2 327.2, 385.8 327.2 Q 385.1 327.2, 384.5 327.6 Q 384.0 327.9, 383.6 328.6 Q 383.3 329.2, 383.3 330.0 " fill="#000000"/>
<path class="atom-19" d="M 386.4 295.8 Q 386.4 292.6, 388.0 290.9 Q 389.5 289.1, 392.4 289.1 Q 395.2 289.1, 396.6 291.0 L 395.4 292.1 Q 394.3 290.7, 392.4 290.7 Q 390.4 290.7, 389.4 292.0 Q 388.3 293.3, 388.3 295.8 Q 388.3 298.5, 389.4 299.8 Q 390.5 301.1, 392.6 301.1 Q 394.1 301.1, 395.8 300.3 L 396.3 301.7 Q 395.6 302.1, 394.6 302.4 Q 393.5 302.6, 392.4 302.6 Q 389.5 302.6, 388.0 300.9 Q 386.4 299.1, 386.4 295.8 " fill="#000000"/>
<path class="atom-19" d="M 397.3 300.3 L 399.2 300.3 L 399.2 302.1 L 397.3 302.1 L 397.3 300.3 M 397.3 293.9 L 399.2 293.9 L 399.2 295.7 L 397.3 295.7 L 397.3 293.9 " fill="#000000"/>
<path class="atom-19" d="M 400.6 291.8 Q 401.1 290.5, 402.3 289.8 Q 403.4 289.1, 405.0 289.1 Q 407.0 289.1, 408.1 290.2 Q 409.3 291.3, 409.3 293.2 Q 409.3 295.2, 407.8 297.0 Q 406.4 298.8, 403.4 301.0 L 409.5 301.0 L 409.5 302.5 L 400.6 302.5 L 400.6 301.2 Q 403.1 299.5, 404.5 298.2 Q 406.0 296.9, 406.7 295.7 Q 407.4 294.5, 407.4 293.3 Q 407.4 292.0, 406.8 291.3 Q 406.1 290.6, 405.0 290.6 Q 404.0 290.6, 403.3 291.0 Q 402.6 291.5, 402.1 292.4 L 400.6 291.8 " fill="#000000"/>
<path class="atom-19" d="M 415.4 302.6 Q 413.0 302.6, 411.8 300.8 Q 410.6 299.0, 410.6 295.8 Q 410.6 292.7, 411.8 290.9 Q 413.0 289.1, 415.4 289.1 Q 417.9 289.1, 419.0 290.9 Q 420.2 292.7, 420.2 295.8 Q 420.2 299.0, 419.0 300.8 Q 417.8 302.6, 415.4 302.6 M 415.4 301.1 Q 416.8 301.1, 417.6 299.8 Q 418.4 298.5, 418.4 295.8 Q 418.4 293.3, 417.6 291.9 Q 416.8 290.6, 415.4 290.6 Q 414.0 290.6, 413.2 291.9 Q 412.5 293.3, 412.5 295.8 Q 412.5 298.5, 413.2 299.8 Q 414.0 301.1, 415.4 301.1 " fill="#000000"/>
<path class="atom-20" d="M 323.0 194.4 L 324.8 194.4 L 324.8 200.0 L 331.6 200.0 L 331.6 194.4 L 333.3 194.4 L 333.3 207.6 L 331.6 207.6 L 331.6 201.5 L 324.8 201.5 L 324.8 207.6 L 323.0 207.6 L 323.0 194.4 " fill="#000000"/>
<path class="atom-20" d="M 334.9 205.4 L 336.8 205.4 L 336.8 207.3 L 334.9 207.3 L 334.9 205.4 M 334.9 199.0 L 336.8 199.0 L 336.8 200.9 L 334.9 200.9 L 334.9 199.0 " fill="#000000"/>
<path class="atom-20" d="M 338.2 196.9 Q 338.7 195.7, 339.9 195.0 Q 341.0 194.3, 342.6 194.3 Q 344.6 194.3, 345.7 195.4 Q 346.8 196.4, 346.8 198.4 Q 346.8 200.3, 345.4 202.1 Q 343.9 204.0, 341.0 206.1 L 347.1 206.1 L 347.1 207.6 L 338.2 207.6 L 338.2 206.4 Q 340.6 204.6, 342.1 203.3 Q 343.6 202.0, 344.3 200.8 Q 345.0 199.7, 345.0 198.5 Q 345.0 197.2, 344.3 196.5 Q 343.7 195.8, 342.6 195.8 Q 341.5 195.8, 340.8 196.2 Q 340.1 196.6, 339.6 197.6 L 338.2 196.9 " fill="#000000"/>
<path class="atom-20" d="M 348.9 206.1 L 351.8 206.1 L 351.8 196.3 L 348.6 197.3 L 348.2 196.2 L 352.2 194.4 L 353.5 194.6 L 353.5 206.1 L 356.1 206.1 L 356.1 207.6 L 348.9 207.6 L 348.9 206.1 " fill="#000000"/>
<path class="atom-21" d="M 270.1 355.7 L 271.9 355.7 L 271.9 361.3 L 278.7 361.3 L 278.7 355.7 L 280.5 355.7 L 280.5 368.9 L 278.7 368.9 L 278.7 362.8 L 271.9 362.8 L 271.9 368.9 L 270.1 368.9 L 270.1 355.7 " fill="#000000"/>
<path class="atom-21" d="M 282.0 366.7 L 283.9 366.7 L 283.9 368.6 L 282.0 368.6 L 282.0 366.7 M 282.0 360.3 L 283.9 360.3 L 283.9 362.2 L 282.0 362.2 L 282.0 360.3 " fill="#000000"/>
<path class="atom-21" d="M 285.3 358.2 Q 285.8 357.0, 287.0 356.3 Q 288.1 355.6, 289.7 355.6 Q 291.7 355.6, 292.8 356.6 Q 293.9 357.7, 293.9 359.6 Q 293.9 361.6, 292.5 363.4 Q 291.1 365.2, 288.1 367.4 L 294.2 367.4 L 294.2 368.9 L 285.3 368.9 L 285.3 367.6 Q 287.8 365.9, 289.2 364.6 Q 290.7 363.3, 291.4 362.1 Q 292.1 360.9, 292.1 359.7 Q 292.1 358.5, 291.5 357.8 Q 290.8 357.0, 289.7 357.0 Q 288.7 357.0, 288.0 357.5 Q 287.2 357.9, 286.7 358.9 L 285.3 358.2 " fill="#000000"/>
<path class="atom-21" d="M 295.3 358.2 Q 295.8 357.0, 297.0 356.3 Q 298.1 355.6, 299.7 355.6 Q 301.7 355.6, 302.8 356.6 Q 303.9 357.7, 303.9 359.6 Q 303.9 361.6, 302.5 363.4 Q 301.1 365.2, 298.1 367.4 L 304.2 367.4 L 304.2 368.9 L 295.3 368.9 L 295.3 367.6 Q 297.7 365.9, 299.2 364.6 Q 300.7 363.3, 301.4 362.1 Q 302.1 360.9, 302.1 359.7 Q 302.1 358.5, 301.4 357.8 Q 300.8 357.0, 299.7 357.0 Q 298.7 357.0, 297.9 357.5 Q 297.2 357.9, 296.7 358.9 L 295.3 358.2 " fill="#000000"/>
<path class="atom-22" d="M 178.1 233.4 L 179.9 233.4 L 179.9 239.0 L 186.6 239.0 L 186.6 233.4 L 188.4 233.4 L 188.4 246.6 L 186.6 246.6 L 186.6 240.5 L 179.9 240.5 L 179.9 246.6 L 178.1 246.6 L 178.1 233.4 " fill="#000000"/>
<path class="atom-22" d="M 190.0 244.4 L 191.9 244.4 L 191.9 246.3 L 190.0 246.3 L 190.0 244.4 M 190.0 238.0 L 191.9 238.0 L 191.9 239.9 L 190.0 239.9 L 190.0 238.0 " fill="#000000"/>
<path class="atom-22" d="M 193.3 235.9 Q 193.8 234.7, 194.9 234.0 Q 196.1 233.3, 197.7 233.3 Q 199.7 233.3, 200.8 234.4 Q 201.9 235.5, 201.9 237.4 Q 201.9 239.3, 200.5 241.1 Q 199.0 243.0, 196.1 245.1 L 202.1 245.1 L 202.1 246.6 L 193.3 246.6 L 193.3 245.4 Q 195.7 243.6, 197.2 242.3 Q 198.7 241.0, 199.4 239.8 Q 200.1 238.7, 200.1 237.5 Q 200.1 236.2, 199.4 235.5 Q 198.8 234.8, 197.7 234.8 Q 196.6 234.8, 195.9 235.2 Q 195.2 235.6, 194.7 236.6 L 193.3 235.9 " fill="#000000"/>
<path class="atom-22" d="M 209.6 239.7 Q 210.9 240.0, 211.5 240.9 Q 212.1 241.7, 212.1 243.0 Q 212.1 244.1, 211.6 245.0 Q 211.0 245.9, 210.0 246.3 Q 209.0 246.8, 207.6 246.8 Q 206.2 246.8, 205.1 246.3 Q 204.1 245.8, 203.3 244.8 L 204.3 243.7 Q 205.1 244.6, 205.8 245.0 Q 206.5 245.3, 207.6 245.3 Q 208.8 245.3, 209.5 244.7 Q 210.3 244.0, 210.3 243.0 Q 210.3 241.6, 209.5 241.1 Q 208.8 240.4, 207.1 240.4 L 206.2 240.4 L 206.2 239.1 L 207.0 239.1 Q 208.5 239.1, 209.2 238.5 Q 210.0 237.8, 210.0 236.7 Q 210.0 235.8, 209.3 235.3 Q 208.7 234.8, 207.6 234.8 Q 206.5 234.8, 205.9 235.2 Q 205.2 235.6, 204.7 236.5 L 203.4 235.9 Q 203.8 234.8, 205.0 234.0 Q 206.1 233.3, 207.6 233.3 Q 209.6 233.3, 210.7 234.2 Q 211.8 235.1, 211.8 236.7 Q 211.8 237.7, 211.3 238.5 Q 210.7 239.2, 209.6 239.7 " fill="#000000"/>
<path class="atom-23" d="M 173.7 378.9 L 175.5 378.9 L 175.5 384.5 L 182.2 384.5 L 182.2 378.9 L 184.0 378.9 L 184.0 392.1 L 182.2 392.1 L 182.2 386.0 L 175.5 386.0 L 175.5 392.1 L 173.7 392.1 L 173.7 378.9 " fill="#000000"/>
<path class="atom-23" d="M 185.6 389.9 L 187.5 389.9 L 187.5 391.8 L 185.6 391.8 L 185.6 389.9 M 185.6 383.5 L 187.5 383.5 L 187.5 385.4 L 185.6 385.4 L 185.6 383.5 " fill="#000000"/>
<path class="atom-23" d="M 188.9 381.4 Q 189.4 380.2, 190.5 379.5 Q 191.7 378.8, 193.3 378.8 Q 195.3 378.8, 196.4 379.9 Q 197.5 380.9, 197.5 382.9 Q 197.5 384.8, 196.1 386.6 Q 194.6 388.5, 191.6 390.6 L 197.7 390.6 L 197.7 392.1 L 188.8 392.1 L 188.8 390.9 Q 191.3 389.1, 192.8 387.8 Q 194.2 386.5, 194.9 385.3 Q 195.6 384.2, 195.6 383.0 Q 195.6 381.7, 195.0 381.0 Q 194.4 380.3, 193.3 380.3 Q 192.2 380.3, 191.5 380.7 Q 190.8 381.1, 190.3 382.1 L 188.9 381.4 " fill="#000000"/>
<path class="atom-23" d="M 207.4 387.6 L 209.0 387.6 L 209.0 389.1 L 207.4 389.1 L 207.4 392.1 L 205.7 392.1 L 205.7 389.1 L 198.8 389.1 L 198.8 387.9 L 204.6 378.9 L 207.4 378.9 L 207.4 387.6 M 201.0 387.6 L 205.7 387.6 L 205.7 380.1 L 201.0 387.6 " fill="#000000"/>
<path class="atom-24" d="M 80.2 206.1 L 82.0 206.1 L 82.0 211.7 L 88.8 211.7 L 88.8 206.1 L 90.6 206.1 L 90.6 219.3 L 88.8 219.3 L 88.8 213.2 L 82.0 213.2 L 82.0 219.3 L 80.2 219.3 L 80.2 206.1 " fill="#000000"/>
<path class="atom-24" d="M 92.1 217.1 L 94.0 217.1 L 94.0 219.0 L 92.1 219.0 L 92.1 217.1 M 92.1 210.7 L 94.0 210.7 L 94.0 212.6 L 92.1 212.6 L 92.1 210.7 " fill="#000000"/>
<path class="atom-24" d="M 95.4 208.6 Q 95.9 207.4, 97.1 206.7 Q 98.2 206.0, 99.8 206.0 Q 101.8 206.0, 102.9 207.1 Q 104.0 208.1, 104.0 210.1 Q 104.0 212.0, 102.6 213.8 Q 101.2 215.7, 98.2 217.8 L 104.3 217.8 L 104.3 219.3 L 95.4 219.3 L 95.4 218.1 Q 97.8 216.3, 99.3 215.0 Q 100.8 213.7, 101.5 212.5 Q 102.2 211.4, 102.2 210.1 Q 102.2 208.9, 101.6 208.2 Q 100.9 207.5, 99.8 207.5 Q 98.8 207.5, 98.1 207.9 Q 97.3 208.3, 96.8 209.3 L 95.4 208.6 " fill="#000000"/>
<path class="atom-24" d="M 110.2 211.1 Q 111.3 211.1, 112.3 211.6 Q 113.2 212.0, 113.8 213.0 Q 114.3 213.9, 114.3 215.1 Q 114.3 216.5, 113.6 217.5 Q 113.0 218.4, 111.9 218.9 Q 110.8 219.4, 109.6 219.4 Q 108.4 219.4, 107.3 219.0 Q 106.1 218.6, 105.4 217.7 L 106.5 216.5 Q 107.1 217.2, 108.0 217.6 Q 108.8 217.9, 109.6 217.9 Q 110.8 217.9, 111.6 217.2 Q 112.4 216.5, 112.4 215.2 Q 112.4 213.8, 111.6 213.1 Q 110.8 212.5, 109.5 212.5 Q 108.4 212.5, 107.1 213.0 L 106.1 212.5 L 106.7 206.1 L 113.5 206.1 L 113.3 207.6 L 108.2 207.6 L 107.8 211.5 Q 109.0 211.1, 110.2 211.1 " fill="#000000"/>
<path class="atom-25" d="M 57.1 365.6 L 58.9 365.6 L 58.9 371.2 L 65.6 371.2 L 65.6 365.6 L 67.4 365.6 L 67.4 378.8 L 65.6 378.8 L 65.6 372.7 L 58.9 372.7 L 58.9 378.8 L 57.1 378.8 L 57.1 365.6 " fill="#000000"/>
<path class="atom-25" d="M 69.0 376.6 L 70.8 376.6 L 70.8 378.5 L 69.0 378.5 L 69.0 376.6 M 69.0 370.2 L 70.8 370.2 L 70.8 372.1 L 69.0 372.1 L 69.0 370.2 " fill="#000000"/>
<path class="atom-25" d="M 72.3 368.1 Q 72.7 366.9, 73.9 366.2 Q 75.0 365.5, 76.6 365.5 Q 78.6 365.5, 79.8 366.5 Q 80.9 367.6, 80.9 369.5 Q 80.9 371.5, 79.4 373.3 Q 78.0 375.1, 75.0 377.3 L 81.1 377.3 L 81.1 378.8 L 72.2 378.8 L 72.2 377.5 Q 74.7 375.8, 76.1 374.5 Q 77.6 373.2, 78.3 372.0 Q 79.0 370.8, 79.0 369.6 Q 79.0 368.4, 78.4 367.7 Q 77.7 367.0, 76.6 367.0 Q 75.6 367.0, 74.9 367.4 Q 74.2 367.8, 73.7 368.8 L 72.3 368.1 " fill="#000000"/>
<path class="atom-25" d="M 87.4 370.6 Q 88.5 370.6, 89.4 371.1 Q 90.3 371.6, 90.8 372.5 Q 91.3 373.4, 91.3 374.5 Q 91.3 375.8, 90.8 376.8 Q 90.2 377.8, 89.2 378.4 Q 88.2 378.9, 86.9 378.9 Q 84.6 378.9, 83.4 377.4 Q 82.2 375.8, 82.2 372.6 Q 82.2 369.1, 83.7 367.3 Q 85.1 365.5, 87.9 365.5 Q 88.8 365.5, 89.4 365.7 Q 90.2 365.8, 90.8 366.2 L 90.1 367.5 Q 89.1 367.0, 88.0 367.0 Q 86.1 367.0, 85.1 368.2 Q 84.2 369.4, 84.1 371.8 Q 84.8 371.2, 85.6 370.9 Q 86.4 370.6, 87.4 370.6 M 86.9 377.4 Q 87.6 377.4, 88.2 377.0 Q 88.8 376.7, 89.1 376.0 Q 89.5 375.4, 89.5 374.6 Q 89.5 373.4, 88.8 372.7 Q 88.2 372.1, 87.0 372.1 Q 86.2 372.1, 85.4 372.4 Q 84.6 372.7, 84.1 373.3 Q 84.2 375.4, 84.8 376.4 Q 85.5 377.4, 86.9 377.4 " fill="#000000"/>
<path class="atom-26" d="M 130.9 143.4 L 132.7 143.4 L 132.7 149.0 L 139.5 149.0 L 139.5 143.4 L 141.3 143.4 L 141.3 156.6 L 139.5 156.6 L 139.5 150.5 L 132.7 150.5 L 132.7 156.6 L 130.9 156.6 L 130.9 143.4 " fill="#000000"/>
<path class="atom-26" d="M 142.8 154.4 L 144.7 154.4 L 144.7 156.3 L 142.8 156.3 L 142.8 154.4 M 142.8 148.0 L 144.7 148.0 L 144.7 149.9 L 142.8 149.9 L 142.8 148.0 " fill="#000000"/>
<path class="atom-26" d="M 146.1 145.9 Q 146.6 144.7, 147.8 144.0 Q 148.9 143.3, 150.5 143.3 Q 152.5 143.3, 153.6 144.4 Q 154.7 145.4, 154.7 147.4 Q 154.7 149.3, 153.3 151.1 Q 151.9 153.0, 148.9 155.1 L 155.0 155.1 L 155.0 156.6 L 146.1 156.6 L 146.1 155.4 Q 148.5 153.6, 150.0 152.3 Q 151.5 151.0, 152.2 149.8 Q 152.9 148.7, 152.9 147.5 Q 152.9 146.2, 152.3 145.5 Q 151.6 144.8, 150.5 144.8 Q 149.5 144.8, 148.8 145.2 Q 148.0 145.6, 147.5 146.6 L 146.1 145.9 " fill="#000000"/>
<path class="atom-26" d="M 163.0 144.9 L 156.1 144.9 L 156.1 143.4 L 164.8 143.4 L 164.8 144.8 L 159.5 156.6 L 157.7 156.6 L 163.0 144.9 " fill="#000000"/>
<path class="atom-27" d="M 130.1 241.4 Q 130.1 238.3, 131.6 236.5 Q 133.2 234.7, 136.1 234.7 Q 139.0 234.7, 140.6 236.5 Q 142.1 238.3, 142.1 241.4 Q 142.1 244.6, 140.6 246.5 Q 139.0 248.3, 136.1 248.3 Q 133.2 248.3, 131.6 246.5 Q 130.1 244.7, 130.1 241.4 M 136.1 246.8 Q 138.1 246.8, 139.2 245.4 Q 140.3 244.1, 140.3 241.4 Q 140.3 238.9, 139.2 237.6 Q 138.1 236.2, 136.1 236.2 Q 134.1 236.2, 133.0 237.5 Q 131.9 238.8, 131.9 241.4 Q 131.9 244.1, 133.0 245.4 Q 134.1 246.8, 136.1 246.8 " fill="#FF0000"/>
<path class="atom-27" d="M 143.1 245.9 L 144.9 245.9 L 144.9 247.7 L 143.1 247.7 L 143.1 245.9 M 143.1 239.5 L 144.9 239.5 L 144.9 241.3 L 143.1 241.3 L 143.1 239.5 " fill="#FF0000"/>
<path class="atom-27" d="M 146.4 237.4 Q 146.9 236.1, 148.0 235.4 Q 149.2 234.7, 150.8 234.7 Q 152.8 234.7, 153.9 235.8 Q 155.0 236.9, 155.0 238.8 Q 155.0 240.8, 153.5 242.6 Q 152.1 244.4, 149.1 246.6 L 155.2 246.6 L 155.2 248.1 L 146.3 248.1 L 146.3 246.8 Q 148.8 245.1, 150.2 243.8 Q 151.7 242.5, 152.4 241.3 Q 153.1 240.1, 153.1 238.9 Q 153.1 237.6, 152.5 236.9 Q 151.9 236.2, 150.8 236.2 Q 149.7 236.2, 149.0 236.7 Q 148.3 237.1, 147.8 238.0 L 146.4 237.4 " fill="#FF0000"/>
<path class="atom-27" d="M 163.0 241.1 Q 164.3 241.6, 164.9 242.4 Q 165.6 243.2, 165.6 244.5 Q 165.6 245.6, 165.1 246.4 Q 164.5 247.3, 163.4 247.8 Q 162.4 248.3, 161.1 248.3 Q 158.9 248.3, 157.6 247.2 Q 156.3 246.2, 156.3 244.5 Q 156.3 243.4, 156.9 242.6 Q 157.4 241.8, 158.6 241.1 Q 157.7 240.7, 157.3 240.0 Q 156.8 239.2, 156.8 238.1 Q 156.8 236.6, 157.9 235.7 Q 159.1 234.7, 161.0 234.7 Q 162.9 234.7, 164.0 235.7 Q 165.1 236.6, 165.1 238.1 Q 165.1 239.1, 164.6 239.8 Q 164.1 240.5, 163.0 241.1 M 161.0 236.1 Q 159.9 236.1, 159.3 236.7 Q 158.7 237.2, 158.7 238.1 Q 158.7 238.8, 159.1 239.3 Q 159.5 239.7, 160.1 240.0 Q 160.7 240.2, 161.8 240.6 Q 162.6 240.1, 162.9 239.5 Q 163.3 238.9, 163.3 238.1 Q 163.3 237.2, 162.7 236.7 Q 162.1 236.1, 161.0 236.1 M 161.1 246.9 Q 162.3 246.9, 163.0 246.2 Q 163.8 245.5, 163.8 244.4 Q 163.8 243.7, 163.4 243.3 Q 163.0 242.8, 162.4 242.6 Q 161.8 242.3, 160.8 242.0 L 159.9 241.7 Q 159.0 242.3, 158.6 242.9 Q 158.2 243.6, 158.2 244.4 Q 158.2 245.5, 159.0 246.2 Q 159.7 246.9, 161.1 246.9 " fill="#FF0000"/>
<path class="atom-28" d="M 409.7 209.5 L 411.5 209.5 L 411.5 215.1 L 418.2 215.1 L 418.2 209.5 L 420.0 209.5 L 420.0 222.7 L 418.2 222.7 L 418.2 216.6 L 411.5 216.6 L 411.5 222.7 L 409.7 222.7 L 409.7 209.5 " fill="#000000"/>
<path class="atom-28" d="M 421.6 220.5 L 423.5 220.5 L 423.5 222.4 L 421.6 222.4 L 421.6 220.5 M 421.6 214.1 L 423.5 214.1 L 423.5 216.0 L 421.6 216.0 L 421.6 214.1 " fill="#000000"/>
<path class="atom-28" d="M 424.9 212.0 Q 425.4 210.8, 426.5 210.1 Q 427.7 209.4, 429.3 209.4 Q 431.3 209.4, 432.4 210.5 Q 433.5 211.5, 433.5 213.5 Q 433.5 215.4, 432.1 217.2 Q 430.6 219.1, 427.7 221.2 L 433.7 221.2 L 433.7 222.7 L 424.9 222.7 L 424.9 221.5 Q 427.3 219.7, 428.8 218.4 Q 430.2 217.1, 430.9 215.9 Q 431.7 214.8, 431.7 213.6 Q 431.7 212.3, 431.0 211.6 Q 430.4 210.9, 429.3 210.9 Q 428.2 210.9, 427.5 211.3 Q 426.8 211.7, 426.3 212.7 L 424.9 212.0 " fill="#000000"/>
<path class="atom-28" d="M 439.3 209.4 Q 441.6 209.4, 442.8 211.0 Q 444.0 212.6, 444.0 215.7 Q 444.0 219.2, 442.5 221.1 Q 441.1 222.9, 438.3 222.9 Q 437.4 222.9, 436.7 222.7 Q 436.0 222.5, 435.4 222.1 L 436.1 220.8 Q 437.1 221.4, 438.2 221.4 Q 440.1 221.4, 441.1 220.2 Q 442.0 219.0, 442.1 216.5 Q 441.4 217.1, 440.6 217.4 Q 439.8 217.8, 438.8 217.8 Q 437.7 217.8, 436.8 217.3 Q 435.9 216.8, 435.4 215.8 Q 434.9 214.9, 434.9 213.8 Q 434.9 212.5, 435.4 211.5 Q 436.0 210.5, 437.0 209.9 Q 438.0 209.4, 439.3 209.4 M 436.7 213.8 Q 436.7 214.9, 437.4 215.6 Q 438.0 216.3, 439.2 216.3 Q 440.0 216.3, 440.8 216.0 Q 441.6 215.6, 442.1 215.1 Q 442.0 212.9, 441.4 211.9 Q 440.7 210.9, 439.3 210.9 Q 438.6 210.9, 438.0 211.3 Q 437.4 211.7, 437.1 212.3 Q 436.7 213.0, 436.7 213.8 " fill="#000000"/>
<path class="atom-29" d="M 386.7 369.0 L 388.4 369.0 L 388.4 374.6 L 395.2 374.6 L 395.2 369.0 L 397.0 369.0 L 397.0 382.2 L 395.2 382.2 L 395.2 376.1 L 388.4 376.1 L 388.4 382.2 L 386.7 382.2 L 386.7 369.0 " fill="#000000"/>
<path class="atom-29" d="M 398.5 380.0 L 400.4 380.0 L 400.4 381.9 L 398.5 381.9 L 398.5 380.0 M 398.5 373.6 L 400.4 373.6 L 400.4 375.5 L 398.5 375.5 L 398.5 373.6 " fill="#000000"/>
<path class="atom-29" d="M 408.1 375.3 Q 409.4 375.6, 410.0 376.5 Q 410.7 377.3, 410.7 378.6 Q 410.7 379.7, 410.1 380.6 Q 409.5 381.4, 408.5 381.9 Q 407.5 382.4, 406.2 382.4 Q 404.7 382.4, 403.7 381.9 Q 402.6 381.4, 401.8 380.4 L 402.9 379.3 Q 403.7 380.2, 404.4 380.6 Q 405.1 380.9, 406.2 380.9 Q 407.3 380.9, 408.1 380.3 Q 408.8 379.6, 408.8 378.6 Q 408.8 377.2, 408.0 376.6 Q 407.3 376.0, 405.7 376.0 L 404.7 376.0 L 404.7 374.7 L 405.6 374.7 Q 407.0 374.7, 407.8 374.0 Q 408.5 373.4, 408.5 372.2 Q 408.5 371.4, 407.9 370.9 Q 407.3 370.4, 406.2 370.4 Q 405.1 370.4, 404.4 370.8 Q 403.7 371.1, 403.2 372.1 L 401.9 371.4 Q 402.4 370.3, 403.5 369.6 Q 404.6 368.9, 406.2 368.9 Q 408.1 368.9, 409.2 369.8 Q 410.4 370.7, 410.4 372.2 Q 410.4 373.3, 409.8 374.1 Q 409.2 374.8, 408.1 375.3 " fill="#000000"/>
<path class="atom-29" d="M 416.6 382.3 Q 414.2 382.3, 412.9 380.6 Q 411.8 378.8, 411.8 375.6 Q 411.8 372.4, 412.9 370.6 Q 414.1 368.9, 416.6 368.9 Q 419.0 368.9, 420.2 370.6 Q 421.4 372.4, 421.4 375.6 Q 421.4 378.8, 420.2 380.6 Q 419.0 382.3, 416.6 382.3 M 416.6 380.9 Q 418.0 380.9, 418.8 379.5 Q 419.5 378.2, 419.5 375.6 Q 419.5 373.0, 418.8 371.7 Q 418.0 370.4, 416.6 370.4 Q 415.2 370.4, 414.4 371.7 Q 413.6 373.0, 413.6 375.6 Q 413.6 378.2, 414.4 379.5 Q 415.2 380.9, 416.6 380.9 " fill="#000000"/>
<path class="atom-30" d="M 444.2 295.9 L 446.0 295.9 L 446.0 301.5 L 452.7 301.5 L 452.7 295.9 L 454.5 295.9 L 454.5 309.1 L 452.7 309.1 L 452.7 303.0 L 446.0 303.0 L 446.0 309.1 L 444.2 309.1 L 444.2 295.9 " fill="#000000"/>
<path class="atom-30" d="M 456.1 306.9 L 458.0 306.9 L 458.0 308.8 L 456.1 308.8 L 456.1 306.9 M 456.1 300.5 L 458.0 300.5 L 458.0 302.4 L 456.1 302.4 L 456.1 300.5 " fill="#000000"/>
<path class="atom-30" d="M 465.7 302.2 Q 467.0 302.5, 467.6 303.4 Q 468.2 304.2, 468.2 305.5 Q 468.2 306.6, 467.7 307.5 Q 467.1 308.3, 466.1 308.8 Q 465.1 309.3, 463.7 309.3 Q 462.3 309.3, 461.3 308.8 Q 460.2 308.3, 459.4 307.3 L 460.4 306.2 Q 461.3 307.1, 461.9 307.5 Q 462.6 307.8, 463.7 307.8 Q 464.9 307.8, 465.6 307.2 Q 466.4 306.5, 466.4 305.5 Q 466.4 304.1, 465.6 303.5 Q 464.9 302.9, 463.2 302.9 L 462.3 302.9 L 462.3 301.6 L 463.1 301.6 Q 464.6 301.6, 465.3 301.0 Q 466.1 300.3, 466.1 299.2 Q 466.1 298.3, 465.5 297.8 Q 464.8 297.3, 463.7 297.3 Q 462.6 297.3, 462.0 297.7 Q 461.3 298.1, 460.8 299.0 L 459.5 298.4 Q 459.9 297.3, 461.1 296.5 Q 462.2 295.8, 463.7 295.8 Q 465.7 295.8, 466.8 296.7 Q 468.0 297.6, 468.0 299.2 Q 468.0 300.2, 467.4 301.0 Q 466.8 301.7, 465.7 302.2 " fill="#000000"/>
<path class="atom-30" d="M 470.1 307.6 L 472.9 307.6 L 472.9 297.8 L 469.8 298.8 L 469.3 297.7 L 473.4 295.9 L 474.7 296.1 L 474.7 307.6 L 477.3 307.6 L 477.3 309.1 L 470.1 309.1 L 470.1 307.6 " fill="#000000"/>
<path class="atom-31" d="M 22.7 279.2 L 24.5 279.2 L 24.5 284.8 L 31.2 284.8 L 31.2 279.2 L 33.0 279.2 L 33.0 292.4 L 31.2 292.4 L 31.2 286.3 L 24.5 286.3 L 24.5 292.4 L 22.7 292.4 L 22.7 279.2 " fill="#000000"/>
<path class="atom-31" d="M 34.6 290.2 L 36.5 290.2 L 36.5 292.1 L 34.6 292.1 L 34.6 290.2 M 34.6 283.8 L 36.5 283.8 L 36.5 285.7 L 34.6 285.7 L 34.6 283.8 " fill="#000000"/>
<path class="atom-31" d="M 44.2 285.4 Q 45.5 285.8, 46.1 286.7 Q 46.7 287.5, 46.7 288.8 Q 46.7 289.9, 46.2 290.8 Q 45.6 291.6, 44.6 292.1 Q 43.6 292.6, 42.2 292.6 Q 40.8 292.6, 39.8 292.1 Q 38.7 291.6, 37.9 290.6 L 38.9 289.5 Q 39.8 290.4, 40.4 290.7 Q 41.1 291.1, 42.2 291.1 Q 43.4 291.1, 44.1 290.5 Q 44.9 289.8, 44.9 288.8 Q 44.9 287.4, 44.1 286.8 Q 43.4 286.2, 41.7 286.2 L 40.8 286.2 L 40.8 284.9 L 41.6 284.9 Q 43.1 284.9, 43.8 284.2 Q 44.6 283.6, 44.6 282.4 Q 44.6 281.6, 44.0 281.1 Q 43.3 280.6, 42.2 280.6 Q 41.1 280.6, 40.5 280.9 Q 39.8 281.3, 39.3 282.3 L 38.0 281.6 Q 38.5 280.5, 39.6 279.8 Q 40.7 279.1, 42.2 279.1 Q 44.2 279.1, 45.3 280.0 Q 46.5 280.9, 46.5 282.4 Q 46.5 283.5, 45.9 284.3 Q 45.3 285.0, 44.2 285.4 " fill="#000000"/>
<path class="atom-31" d="M 47.9 281.7 Q 48.4 280.5, 49.5 279.8 Q 50.7 279.1, 52.3 279.1 Q 54.2 279.1, 55.4 280.1 Q 56.5 281.2, 56.5 283.1 Q 56.5 285.1, 55.0 286.9 Q 53.6 288.7, 50.6 290.9 L 56.7 290.9 L 56.7 292.4 L 47.8 292.4 L 47.8 291.1 Q 50.3 289.4, 51.7 288.1 Q 53.2 286.8, 53.9 285.6 Q 54.6 284.4, 54.6 283.2 Q 54.6 282.0, 54.0 281.3 Q 53.4 280.6, 52.3 280.6 Q 51.2 280.6, 50.5 281.0 Q 49.8 281.4, 49.3 282.4 L 47.9 281.7 " fill="#000000"/>
<path class="atom-32" d="M 313.3 178.1 L 315.1 178.1 L 315.1 183.7 L 321.8 183.7 L 321.8 178.1 L 323.6 178.1 L 323.6 191.2 L 321.8 191.2 L 321.8 185.1 L 315.1 185.1 L 315.1 191.2 L 313.3 191.2 L 313.3 178.1 " fill="#000000"/>
<path class="atom-32" d="M 325.2 189.1 L 327.1 189.1 L 327.1 190.9 L 325.2 190.9 L 325.2 189.1 M 325.2 182.7 L 327.1 182.7 L 327.1 184.5 L 325.2 184.5 L 325.2 182.7 " fill="#000000"/>
<path class="atom-32" d="M 334.8 184.3 Q 336.1 184.7, 336.7 185.5 Q 337.3 186.3, 337.3 187.6 Q 337.3 188.7, 336.8 189.6 Q 336.2 190.5, 335.2 191.0 Q 334.2 191.4, 332.8 191.4 Q 331.4 191.4, 330.3 190.9 Q 329.3 190.4, 328.5 189.4 L 329.5 188.3 Q 330.3 189.2, 331.0 189.6 Q 331.7 189.9, 332.8 189.9 Q 334.0 189.9, 334.7 189.3 Q 335.5 188.6, 335.5 187.6 Q 335.5 186.3, 334.7 185.7 Q 334.0 185.1, 332.3 185.1 L 331.4 185.1 L 331.4 183.7 L 332.2 183.7 Q 333.7 183.7, 334.4 183.1 Q 335.2 182.4, 335.2 181.3 Q 335.2 180.4, 334.5 179.9 Q 333.9 179.4, 332.8 179.4 Q 331.7 179.4, 331.1 179.8 Q 330.4 180.2, 329.9 181.2 L 328.6 180.5 Q 329.0 179.4, 330.2 178.7 Q 331.3 177.9, 332.8 177.9 Q 334.8 177.9, 335.9 178.8 Q 337.0 179.7, 337.0 181.3 Q 337.0 182.3, 336.5 183.1 Q 335.9 183.9, 334.8 184.3 " fill="#000000"/>
<path class="atom-32" d="M 344.7 184.3 Q 346.0 184.7, 346.6 185.5 Q 347.3 186.3, 347.3 187.6 Q 347.3 188.7, 346.7 189.6 Q 346.2 190.5, 345.1 191.0 Q 344.1 191.4, 342.8 191.4 Q 341.4 191.4, 340.3 190.9 Q 339.3 190.4, 338.4 189.4 L 339.5 188.3 Q 340.3 189.2, 341.0 189.6 Q 341.7 189.9, 342.8 189.9 Q 344.0 189.9, 344.7 189.3 Q 345.4 188.6, 345.4 187.6 Q 345.4 186.3, 344.7 185.7 Q 343.9 185.1, 342.3 185.1 L 341.3 185.1 L 341.3 183.7 L 342.2 183.7 Q 343.6 183.7, 344.4 183.1 Q 345.1 182.4, 345.1 181.3 Q 345.1 180.4, 344.5 179.9 Q 343.9 179.4, 342.8 179.4 Q 341.7 179.4, 341.0 179.8 Q 340.3 180.2, 339.8 181.2 L 338.5 180.5 Q 339.0 179.4, 340.1 178.7 Q 341.2 177.9, 342.8 177.9 Q 344.7 177.9, 345.9 178.8 Q 347.0 179.7, 347.0 181.3 Q 347.0 182.3, 346.4 183.1 Q 345.8 183.9, 344.7 184.3 " fill="#000000"/>
<path class="atom-33" d="M 249.3 105.9 L 251.1 105.9 L 251.1 111.5 L 257.8 111.5 L 257.8 105.9 L 259.6 105.9 L 259.6 119.1 L 257.8 119.1 L 257.8 113.0 L 251.1 113.0 L 251.1 119.1 L 249.3 119.1 L 249.3 105.9 " fill="#000000"/>
<path class="atom-33" d="M 261.2 116.9 L 263.0 116.9 L 263.0 118.8 L 261.2 118.8 L 261.2 116.9 M 261.2 110.5 L 263.0 110.5 L 263.0 112.4 L 261.2 112.4 L 261.2 110.5 " fill="#000000"/>
<path class="atom-33" d="M 270.8 112.1 Q 272.1 112.5, 272.7 113.3 Q 273.3 114.2, 273.3 115.5 Q 273.3 116.6, 272.7 117.5 Q 272.2 118.3, 271.2 118.8 Q 270.1 119.3, 268.8 119.3 Q 267.4 119.3, 266.3 118.8 Q 265.3 118.3, 264.4 117.3 L 265.5 116.2 Q 266.3 117.1, 267.0 117.4 Q 267.7 117.8, 268.8 117.8 Q 270.0 117.8, 270.7 117.1 Q 271.4 116.5, 271.4 115.4 Q 271.4 114.1, 270.7 113.5 Q 269.9 112.9, 268.3 112.9 L 267.4 112.9 L 267.4 111.6 L 268.2 111.6 Q 269.6 111.5, 270.4 110.9 Q 271.2 110.3, 271.2 109.1 Q 271.2 108.3, 270.5 107.8 Q 269.9 107.2, 268.8 107.2 Q 267.7 107.2, 267.0 107.6 Q 266.4 108.0, 265.8 109.0 L 264.6 108.3 Q 265.0 107.2, 266.1 106.5 Q 267.2 105.8, 268.8 105.8 Q 270.7 105.8, 271.9 106.7 Q 273.0 107.6, 273.0 109.1 Q 273.0 110.2, 272.4 110.9 Q 271.9 111.7, 270.8 112.1 " fill="#000000"/>
<path class="atom-33" d="M 283.0 114.6 L 284.5 114.6 L 284.5 116.0 L 283.0 116.0 L 283.0 119.1 L 281.2 119.1 L 281.2 116.0 L 274.4 116.0 L 274.4 114.9 L 280.2 105.9 L 283.0 105.9 L 283.0 114.6 M 276.6 114.6 L 281.2 114.6 L 281.2 107.1 L 276.6 114.6 " fill="#000000"/>
<text x="288.2371187205986" y="279.14531976661465" font-size="12" font-family="Verdana" font-weight="bold" letter-spacing="0" text-anchor="start" fill="black" transform=" rotate(-81.770853 288.237119 279.145320)">0.0102</text><text x="25" y="490" font-size="12" font-family="Verdana" font-weight="bold" letter-spacing="0" text-anchor="start" fill="black">[#7:1](/[#6:2](-[#6:3]1:[#6:4](:[#6:19](:[#6:20](:[#6:18](:[#6:6]:1-[H:21])-[H:29])-[H:31])-[H:30])-[H:22])=[#6:5]1/[#6:14](=[#6:17](-[#7:15](-[#6:16]-1=[#8:28])-[H:27])-[H:34])-[H:33])(-[#6:7]1:[#6:8](:[#6:10](:[#6:12](:[#6:11](:[#6:9]:1-[H:24])-[H:26])-[H:32])-[H:25])-[H:23])-[H:13]</text></svg>
