<?xml version='1.0' encoding='ASCII' standalone='yes'?>
<svg xmlns="http://www.w3.org/2000/svg" xmlns:rdkit="http://www.rdkit.org/xml" xmlns:xlink="http://www.w3.org/1999/xlink" version="1.1" baseProfile="full" xml:space="preserve" width="500px" height="500px" viewBox="0 0 500 500">
<!-- END OF HEADER -->
<rect style="opacity:1.0;fill:#FFFFFF;stroke:none" width="500" height="500" x="0" y="0"> </rect>
<path d="M 170.745,268.705 L 237.25,259.366" style="fill:none;fill-rule:evenodd;stroke:#FF7F7F;stroke-width:14.3px;stroke-linecap:butt;stroke-linejoin:miter;stroke-opacity:1"/>
<path class="bond-1 atom-1 atom-0" d="M 160.138,277.028 L 151.948,297.292" style="fill:none;fill-rule:evenodd;stroke:#000000;stroke-width:2.0px;stroke-linecap:butt;stroke-linejoin:miter;stroke-opacity:1"/>
<path class="bond-1 atom-1 atom-0" d="M 151.948,297.292 L 143.758,317.557" style="fill:none;fill-rule:evenodd;stroke:#FF0000;stroke-width:2.0px;stroke-linecap:butt;stroke-linejoin:miter;stroke-opacity:1"/>
<path class="bond-1 atom-1 atom-0" d="M 172.591,282.061 L 164.401,302.325" style="fill:none;fill-rule:evenodd;stroke:#000000;stroke-width:2.0px;stroke-linecap:butt;stroke-linejoin:miter;stroke-opacity:1"/>
<path class="bond-1 atom-1 atom-0" d="M 164.401,302.325 L 156.211,322.589" style="fill:none;fill-rule:evenodd;stroke:#FF0000;stroke-width:2.0px;stroke-linecap:butt;stroke-linejoin:miter;stroke-opacity:1"/>
<path class="bond-0 atom-1 atom-9" d="M 161.922,257.409 L 150.051,242.211" style="fill:none;fill-rule:evenodd;stroke:#000000;stroke-width:2.0px;stroke-linecap:butt;stroke-linejoin:miter;stroke-opacity:1"/>
<path class="bond-0 atom-1 atom-9" d="M 150.051,242.211 L 138.179,227.013" style="fill:none;fill-rule:evenodd;stroke:#FF0000;stroke-width:2.0px;stroke-linecap:butt;stroke-linejoin:miter;stroke-opacity:1"/>
<path class="bond-3 atom-2 atom-1" d="M 213.176,262.747 L 182.864,267.003" style="fill:none;fill-rule:evenodd;stroke:#000000;stroke-width:2.0px;stroke-linecap:butt;stroke-linejoin:miter;stroke-opacity:1"/>
<path class="bond-2 atom-2 atom-3" d="M 241.815,248.07 L 258.154,207.642" style="fill:none;fill-rule:evenodd;stroke:#000000;stroke-width:2.0px;stroke-linecap:butt;stroke-linejoin:miter;stroke-opacity:1"/>
<path class="bond-2 atom-2 atom-3" d="M 256.719,247.039 L 268.156,218.739" style="fill:none;fill-rule:evenodd;stroke:#000000;stroke-width:2.0px;stroke-linecap:butt;stroke-linejoin:miter;stroke-opacity:1"/>
<path class="bond-5 atom-4 atom-2" d="M 269.767,300.995 L 246.003,270.572" style="fill:none;fill-rule:evenodd;stroke:#000000;stroke-width:2.0px;stroke-linecap:butt;stroke-linejoin:miter;stroke-opacity:1"/>
<path class="bond-4 atom-3 atom-8" d="M 253.591,185.806 L 228.99,154.31" style="fill:none;fill-rule:evenodd;stroke:#000000;stroke-width:2.0px;stroke-linecap:butt;stroke-linejoin:miter;stroke-opacity:1"/>
<path class="bond-12 atom-7 atom-3" d="M 304.398,191.206 L 275.229,195.302" style="fill:none;fill-rule:evenodd;stroke:#000000;stroke-width:2.0px;stroke-linecap:butt;stroke-linejoin:miter;stroke-opacity:1"/>
<path class="bond-6 atom-4 atom-10" d="M 274.209,323.13 L 257.851,363.605" style="fill:none;fill-rule:evenodd;stroke:#000000;stroke-width:2.0px;stroke-linecap:butt;stroke-linejoin:miter;stroke-opacity:1"/>
<path class="bond-8 atom-5 atom-4" d="M 320.62,306.389 L 290.658,310.596" style="fill:none;fill-rule:evenodd;stroke:#000000;stroke-width:2.0px;stroke-linecap:butt;stroke-linejoin:miter;stroke-opacity:1"/>
<path class="bond-8 atom-5 atom-4" d="M 314.258,293.719 L 293.285,296.664" style="fill:none;fill-rule:evenodd;stroke:#000000;stroke-width:2.0px;stroke-linecap:butt;stroke-linejoin:miter;stroke-opacity:1"/>
<path class="bond-7 atom-5 atom-6" d="M 349.66,291.656 L 366.001,251.222" style="fill:none;fill-rule:evenodd;stroke:#000000;stroke-width:2.0px;stroke-linecap:butt;stroke-linejoin:miter;stroke-opacity:1"/>
<path class="bond-9 atom-5 atom-12" d="M 354.086,314.463 L 378.065,345.161" style="fill:none;fill-rule:evenodd;stroke:#000000;stroke-width:2.0px;stroke-linecap:butt;stroke-linejoin:miter;stroke-opacity:1"/>
<path class="bond-10 atom-6 atom-7" d="M 361.436,229.392 L 337.672,198.969" style="fill:none;fill-rule:evenodd;stroke:#000000;stroke-width:2.0px;stroke-linecap:butt;stroke-linejoin:miter;stroke-opacity:1"/>
<path class="bond-10 atom-6 atom-7" d="M 347.286,233.097 L 330.652,211.8" style="fill:none;fill-rule:evenodd;stroke:#000000;stroke-width:2.0px;stroke-linecap:butt;stroke-linejoin:miter;stroke-opacity:1"/>
<path class="bond-11 atom-6 atom-13" d="M 382.303,238.997 L 427.948,232.587" style="fill:none;fill-rule:evenodd;stroke:#000000;stroke-width:2.0px;stroke-linecap:butt;stroke-linejoin:miter;stroke-opacity:1"/>
<path class="bond-13 atom-7 atom-11" d="M 333.484,176.467 L 349.641,136.49" style="fill:none;fill-rule:evenodd;stroke:#000000;stroke-width:2.0px;stroke-linecap:butt;stroke-linejoin:miter;stroke-opacity:1"/>
<path class="bond-14 atom-9 atom-14" d="M 118.996,217.242 L 94.8731,220.629" style="fill:none;fill-rule:evenodd;stroke:#FF0000;stroke-width:2.0px;stroke-linecap:butt;stroke-linejoin:miter;stroke-opacity:1"/>
<path class="bond-14 atom-9 atom-14" d="M 94.8731,220.629 L 70.7504,224.017" style="fill:none;fill-rule:evenodd;stroke:#000000;stroke-width:2.0px;stroke-linecap:butt;stroke-linejoin:miter;stroke-opacity:1"/>
<path class="atom-0" d="M 116.233 331.023 Q 116.233 326.456, 118.49 323.904 Q 120.746 321.352, 124.964 321.352 Q 129.181 321.352, 131.438 323.904 Q 133.694 326.456, 133.694 331.023 Q 133.694 335.643, 131.411 338.276 Q 129.127 340.882, 124.964 340.882 Q 120.773 340.882, 118.49 338.276 Q 116.233 335.67, 116.233 331.023 M 124.964 338.733 Q 127.865 338.733, 129.423 336.798 Q 131.008 334.837, 131.008 331.023 Q 131.008 327.289, 129.423 325.409 Q 127.865 323.501, 124.964 323.501 Q 122.063 323.501, 120.478 325.382 Q 118.92 327.262, 118.92 331.023 Q 118.92 334.864, 120.478 336.798 Q 122.063 338.733, 124.964 338.733 " fill="#FF0000"/>
<path class="atom-0" d="M 135.709 337.443 L 138.395 337.443 L 138.395 340.129 L 135.709 340.129 L 135.709 337.443 M 135.709 328.202 L 138.395 328.202 L 138.395 330.889 L 135.709 330.889 L 135.709 328.202 " fill="#FF0000"/>
<path class="atom-0" d="M 140.893 338.437 L 145.057 338.437 L 145.057 324.227 L 140.464 325.65 L 139.846 324.065 L 145.675 321.46 L 147.582 321.782 L 147.582 338.437 L 151.316 338.437 L 151.316 340.586 L 140.893 340.586 L 140.893 338.437 " fill="#FF0000"/>
<path class="atom-1" d="M 148.268 268.786 Q 148.268 264.058, 150.471 261.586 Q 152.7 259.088, 156.918 259.088 Q 160.84 259.088, 162.935 261.855 L 161.162 263.306 Q 159.631 261.291, 156.918 261.291 Q 154.043 261.291, 152.512 263.225 Q 151.008 265.132, 151.008 268.786 Q 151.008 272.546, 152.566 274.48 Q 154.151 276.415, 157.213 276.415 Q 159.308 276.415, 161.753 275.152 L 162.505 277.167 Q 161.511 277.811, 160.007 278.188 Q 158.503 278.564, 156.837 278.564 Q 152.7 278.564, 150.471 276.039 Q 148.268 273.513, 148.268 268.786 " fill="#000000"/>
<path class="atom-1" d="M 164.95 275.179 L 167.636 275.179 L 167.636 277.865 L 164.95 277.865 L 164.95 275.179 M 164.95 265.938 L 167.636 265.938 L 167.636 268.624 L 164.95 268.624 L 164.95 265.938 " fill="#000000"/>
<path class="atom-1" d="M 169.033 262.903 Q 169.731 261.103, 171.397 260.109 Q 173.062 259.088, 175.372 259.088 Q 178.247 259.088, 179.859 260.646 Q 181.47 262.204, 181.47 264.971 Q 181.47 267.792, 179.375 270.424 Q 177.307 273.057, 173.009 276.173 L 181.793 276.173 L 181.793 278.322 L 168.979 278.322 L 168.979 276.522 Q 172.525 273.997, 174.62 272.117 Q 176.742 270.236, 177.763 268.544 Q 178.784 266.851, 178.784 265.105 Q 178.784 263.279, 177.871 262.258 Q 176.957 261.237, 175.372 261.237 Q 173.841 261.237, 172.82 261.855 Q 171.8 262.473, 171.074 263.843 L 169.033 262.903 " fill="#000000"/>
<path class="atom-2" d="M 214.855 259.447 Q 214.855 254.719, 217.058 252.247 Q 219.288 249.749, 223.505 249.749 Q 227.427 249.749, 229.522 252.516 L 227.749 253.966 Q 226.218 251.952, 223.505 251.952 Q 220.631 251.952, 219.1 253.886 Q 217.595 255.793, 217.595 259.447 Q 217.595 263.207, 219.153 265.141 Q 220.738 267.076, 223.801 267.076 Q 225.896 267.076, 228.34 265.813 L 229.093 267.828 Q 228.099 268.472, 226.594 268.849 Q 225.09 269.225, 223.424 269.225 Q 219.288 269.225, 217.058 266.699 Q 214.855 264.174, 214.855 259.447 " fill="#000000"/>
<path class="atom-2" d="M 231.537 265.84 L 234.223 265.84 L 234.223 268.526 L 231.537 268.526 L 231.537 265.84 M 231.537 256.599 L 234.223 256.599 L 234.223 259.285 L 231.537 259.285 L 231.537 256.599 " fill="#000000"/>
<path class="atom-2" d="M 244.485 258.963 Q 246.338 259.5, 247.225 260.709 Q 248.138 261.891, 248.138 263.771 Q 248.138 265.383, 247.332 266.646 Q 246.527 267.881, 245.049 268.58 Q 243.572 269.251, 241.637 269.251 Q 239.596 269.251, 238.065 268.553 Q 236.56 267.828, 235.352 266.377 L 236.883 264.819 Q 238.065 266.108, 239.059 266.619 Q 240.053 267.102, 241.637 267.102 Q 243.357 267.102, 244.404 266.189 Q 245.452 265.249, 245.452 263.745 Q 245.452 261.81, 244.351 260.951 Q 243.276 260.064, 240.939 260.064 L 239.569 260.064 L 239.569 258.13 L 240.778 258.13 Q 242.846 258.103, 243.948 257.217 Q 245.049 256.304, 245.049 254.611 Q 245.049 253.376, 244.136 252.65 Q 243.222 251.898, 241.664 251.898 Q 240.079 251.898, 239.086 252.462 Q 238.118 253.026, 237.366 254.45 L 235.513 253.456 Q 236.184 251.871, 237.796 250.824 Q 239.408 249.749, 241.664 249.749 Q 244.458 249.749, 246.097 251.065 Q 247.735 252.382, 247.735 254.611 Q 247.735 256.142, 246.903 257.244 Q 246.07 258.345, 244.485 258.963 " fill="#000000"/>
<path class="atom-3" d="M 239.355 197.182 Q 239.355 192.454, 241.558 189.983 Q 243.787 187.485, 248.005 187.485 Q 251.927 187.485, 254.022 190.252 L 252.249 191.702 Q 250.718 189.688, 248.005 189.688 Q 245.13 189.688, 243.599 191.622 Q 242.095 193.529, 242.095 197.182 Q 242.095 200.943, 243.653 202.877 Q 245.238 204.811, 248.3 204.811 Q 250.395 204.811, 252.84 203.549 L 253.592 205.564 Q 252.598 206.208, 251.094 206.584 Q 249.59 206.96, 247.924 206.96 Q 243.787 206.96, 241.558 204.435 Q 239.355 201.91, 239.355 197.182 " fill="#000000"/>
<path class="atom-3" d="M 256.037 203.576 L 258.723 203.576 L 258.723 206.262 L 256.037 206.262 L 256.037 203.576 M 256.037 194.335 L 258.723 194.335 L 258.723 197.021 L 256.037 197.021 L 256.037 194.335 " fill="#000000"/>
<path class="atom-3" d="M 271.886 200.191 L 274.169 200.191 L 274.169 202.34 L 271.886 202.34 L 271.886 206.719 L 269.361 206.719 L 269.361 202.34 L 259.529 202.34 L 259.529 200.648 L 267.856 187.7 L 271.886 187.7 L 271.886 200.191 M 262.645 200.191 L 269.361 200.191 L 269.361 189.419 L 262.645 200.191 " fill="#000000"/>
<path class="atom-4" d="M 256.126 312.372 Q 256.126 307.644, 258.329 305.172 Q 260.558 302.674, 264.776 302.674 Q 268.698 302.674, 270.793 305.441 L 269.02 306.892 Q 267.489 304.877, 264.776 304.877 Q 261.902 304.877, 260.37 306.811 Q 258.866 308.718, 258.866 312.372 Q 258.866 316.132, 260.424 318.067 Q 262.009 320.001, 265.071 320.001 Q 267.167 320.001, 269.611 318.738 L 270.363 320.753 Q 269.369 321.398, 267.865 321.774 Q 266.361 322.15, 264.695 322.15 Q 260.558 322.15, 258.329 319.625 Q 256.126 317.099, 256.126 312.372 " fill="#000000"/>
<path class="atom-4" d="M 272.808 318.765 L 275.494 318.765 L 275.494 321.451 L 272.808 321.451 L 272.808 318.765 M 272.808 309.524 L 275.494 309.524 L 275.494 312.21 L 272.808 312.21 L 272.808 309.524 " fill="#000000"/>
<path class="atom-4" d="M 283.634 310.008 Q 285.299 310.008, 286.669 310.733 Q 288.039 311.431, 288.818 312.775 Q 289.597 314.091, 289.597 315.891 Q 289.597 317.852, 288.63 319.275 Q 287.69 320.672, 286.132 321.398 Q 284.574 322.123, 282.801 322.123 Q 281.055 322.123, 279.443 321.478 Q 277.831 320.833, 276.73 319.598 L 278.342 317.932 Q 279.228 318.899, 280.437 319.437 Q 281.646 319.947, 282.881 319.947 Q 284.574 319.947, 285.729 318.899 Q 286.911 317.852, 286.911 315.944 Q 286.911 313.93, 285.729 312.989 Q 284.574 312.022, 282.72 312.022 Q 281.055 312.022, 279.201 312.748 L 277.724 312.049 L 278.637 302.889 L 288.415 302.889 L 288.146 305.038 L 280.84 305.038 L 280.276 310.679 Q 281.968 310.008, 283.634 310.008 " fill="#000000"/>
<path class="atom-5" d="M 322.299 303.033 Q 322.299 298.305, 324.502 295.833 Q 326.732 293.335, 330.949 293.335 Q 334.871 293.335, 336.966 296.102 L 335.193 297.553 Q 333.662 295.538, 330.949 295.538 Q 328.075 295.538, 326.544 297.472 Q 325.039 299.379, 325.039 303.033 Q 325.039 306.793, 326.597 308.727 Q 328.182 310.662, 331.245 310.662 Q 333.34 310.662, 335.784 309.399 L 336.537 311.414 Q 335.543 312.058, 334.038 312.435 Q 332.534 312.811, 330.868 312.811 Q 326.732 312.811, 324.502 310.286 Q 322.299 307.76, 322.299 303.033 " fill="#000000"/>
<path class="atom-5" d="M 338.981 309.426 L 341.667 309.426 L 341.667 312.112 L 338.981 312.112 L 338.981 309.426 M 338.981 300.185 L 341.667 300.185 L 341.667 302.871 L 338.981 302.871 L 338.981 300.185 " fill="#000000"/>
<path class="atom-5" d="M 350.935 300.695 Q 352.601 300.695, 353.917 301.421 Q 355.233 302.146, 355.958 303.462 Q 356.684 304.779, 356.684 306.444 Q 356.684 308.298, 355.851 309.748 Q 355.045 311.172, 353.594 311.978 Q 352.144 312.784, 350.29 312.784 Q 346.906 312.784, 345.186 310.5 Q 343.494 308.19, 343.494 303.624 Q 343.494 298.573, 345.589 295.968 Q 347.711 293.335, 351.768 293.335 Q 352.95 293.335, 353.944 293.604 Q 354.964 293.872, 355.932 294.436 L 354.884 296.236 Q 353.487 295.484, 351.795 295.484 Q 349.108 295.484, 347.738 297.23 Q 346.368 298.949, 346.207 302.522 Q 347.174 301.636, 348.383 301.179 Q 349.619 300.695, 350.935 300.695 M 350.317 310.581 Q 351.338 310.581, 352.171 310.044 Q 353.03 309.506, 353.514 308.566 Q 353.997 307.626, 353.997 306.471 Q 353.997 304.779, 353.057 303.812 Q 352.117 302.845, 350.451 302.845 Q 349.296 302.845, 348.141 303.328 Q 347.013 303.785, 346.207 304.591 Q 346.315 307.734, 347.309 309.157 Q 348.302 310.581, 350.317 310.581 " fill="#000000"/>
<path class="atom-6" d="M 348.146 240.768 Q 348.146 236.041, 350.349 233.569 Q 352.579 231.071, 356.796 231.071 Q 360.718 231.071, 362.814 233.838 L 361.041 235.288 Q 359.509 233.274, 356.796 233.274 Q 353.922 233.274, 352.391 235.208 Q 350.886 237.115, 350.886 240.768 Q 350.886 244.529, 352.444 246.463 Q 354.029 248.397, 357.092 248.397 Q 359.187 248.397, 361.632 247.135 L 362.384 249.15 Q 361.39 249.794, 359.885 250.17 Q 358.381 250.546, 356.716 250.546 Q 352.579 250.546, 350.349 248.021 Q 348.146 245.496, 348.146 240.768 " fill="#000000"/>
<path class="atom-6" d="M 364.828 247.162 L 367.515 247.162 L 367.515 249.848 L 364.828 249.848 L 364.828 247.162 M 364.828 237.921 L 367.515 237.921 L 367.515 240.607 L 364.828 240.607 L 364.828 237.921 " fill="#000000"/>
<path class="atom-6" d="M 377.964 233.435 L 367.998 233.435 L 367.998 231.286 L 380.624 231.286 L 380.624 233.193 L 372.941 250.305 L 370.362 250.305 L 377.964 233.435 " fill="#000000"/>
<path class="atom-7" d="M 306.077 187.843 Q 306.077 183.115, 308.279 180.644 Q 310.509 178.146, 314.726 178.146 Q 318.648 178.146, 320.744 180.913 L 318.971 182.363 Q 317.439 180.349, 314.726 180.349 Q 311.852 180.349, 310.321 182.283 Q 308.817 184.19, 308.817 187.843 Q 308.817 191.604, 310.375 193.538 Q 311.959 195.472, 315.022 195.472 Q 317.117 195.472, 319.562 194.21 L 320.314 196.224 Q 319.32 196.869, 317.816 197.245 Q 316.311 197.621, 314.646 197.621 Q 310.509 197.621, 308.279 195.096 Q 306.077 192.571, 306.077 187.843 " fill="#000000"/>
<path class="atom-7" d="M 322.758 194.237 L 325.445 194.237 L 325.445 196.923 L 322.758 196.923 L 322.758 194.237 M 322.758 184.996 L 325.445 184.996 L 325.445 187.682 L 322.758 187.682 L 322.758 184.996 " fill="#000000"/>
<path class="atom-7" d="M 336.808 187.306 Q 338.554 188.058, 339.548 189.186 Q 340.542 190.288, 340.542 192.168 Q 340.542 193.78, 339.709 195.043 Q 338.876 196.278, 337.372 196.977 Q 335.894 197.648, 333.933 197.648 Q 330.763 197.648, 328.937 196.198 Q 327.11 194.72, 327.11 192.168 Q 327.11 190.61, 327.916 189.455 Q 328.722 188.273, 330.387 187.387 Q 329.152 186.688, 328.48 185.667 Q 327.809 184.62, 327.809 183.008 Q 327.809 180.778, 329.42 179.462 Q 331.059 178.146, 333.826 178.146 Q 336.593 178.146, 338.204 179.462 Q 339.843 180.778, 339.843 183.008 Q 339.843 184.405, 339.064 185.452 Q 338.312 186.473, 336.808 187.306 M 333.826 180.161 Q 332.241 180.161, 331.354 180.913 Q 330.495 181.665, 330.495 183.008 Q 330.495 184.002, 331.086 184.673 Q 331.677 185.318, 332.51 185.694 Q 333.369 186.07, 335.008 186.634 Q 336.163 185.829, 336.646 184.969 Q 337.157 184.109, 337.157 183.008 Q 337.157 181.665, 336.27 180.913 Q 335.411 180.161, 333.826 180.161 M 333.933 195.634 Q 335.706 195.634, 336.781 194.693 Q 337.855 193.726, 337.855 192.141 Q 337.855 191.121, 337.291 190.476 Q 336.727 189.831, 335.867 189.455 Q 335.035 189.079, 333.53 188.595 L 332.321 188.193 Q 330.978 188.998, 330.387 189.965 Q 329.796 190.906, 329.796 192.141 Q 329.796 193.726, 330.925 194.693 Q 332.053 195.634, 333.933 195.634 " fill="#000000"/>
<path class="atom-8" d="M 193.419 134.775 L 195.998 134.775 L 195.998 142.86 L 205.722 142.86 L 205.722 134.775 L 208.301 134.775 L 208.301 153.794 L 205.722 153.794 L 205.722 145.009 L 195.998 145.009 L 195.998 153.794 L 193.419 153.794 L 193.419 134.775 " fill="#000000"/>
<path class="atom-8" d="M 210.316 150.651 L 213.002 150.651 L 213.002 153.337 L 210.316 153.337 L 210.316 150.651 M 210.316 141.41 L 213.002 141.41 L 213.002 144.096 L 210.316 144.096 L 210.316 141.41 " fill="#000000"/>
<path class="atom-8" d="M 220.873 134.56 Q 224.257 134.56, 225.95 136.87 Q 227.669 139.153, 227.669 143.72 Q 227.669 148.77, 225.547 151.403 Q 223.452 154.008, 219.395 154.008 Q 218.213 154.008, 217.192 153.74 Q 216.199 153.471, 215.232 152.907 L 216.279 151.107 Q 217.676 151.859, 219.368 151.859 Q 222.055 151.859, 223.425 150.14 Q 224.795 148.394, 224.956 144.821 Q 223.989 145.708, 222.753 146.191 Q 221.544 146.648, 220.228 146.648 Q 218.562 146.648, 217.246 145.923 Q 215.93 145.197, 215.205 143.881 Q 214.479 142.565, 214.479 140.899 Q 214.479 139.046, 215.285 137.622 Q 216.118 136.172, 217.569 135.366 Q 219.019 134.56, 220.873 134.56 M 217.166 140.873 Q 217.166 142.565, 218.106 143.532 Q 219.046 144.499, 220.712 144.499 Q 221.867 144.499, 222.995 144.042 Q 224.15 143.559, 224.956 142.753 Q 224.848 139.61, 223.854 138.186 Q 222.861 136.763, 220.846 136.763 Q 219.825 136.763, 218.965 137.3 Q 218.133 137.837, 217.649 138.777 Q 217.166 139.717, 217.166 140.873 " fill="#000000"/>
<path class="atom-9" d="M 120.675 215.834 Q 120.675 211.267, 122.931 208.715 Q 125.188 206.163, 129.405 206.163 Q 133.623 206.163, 135.879 208.715 Q 138.136 211.267, 138.136 215.834 Q 138.136 220.454, 135.852 223.087 Q 133.569 225.692, 129.405 225.692 Q 125.215 225.692, 122.931 223.087 Q 120.675 220.481, 120.675 215.834 M 129.405 223.543 Q 132.306 223.543, 133.864 221.609 Q 135.449 219.648, 135.449 215.834 Q 135.449 212.1, 133.864 210.219 Q 132.306 208.312, 129.405 208.312 Q 126.504 208.312, 124.919 210.192 Q 123.361 212.073, 123.361 215.834 Q 123.361 219.675, 124.919 221.609 Q 126.504 223.543, 129.405 223.543 " fill="#FF0000"/>
<path class="atom-9" d="M 140.15 222.254 L 142.837 222.254 L 142.837 224.94 L 140.15 224.94 L 140.15 222.254 M 140.15 213.013 L 142.837 213.013 L 142.837 215.699 L 140.15 215.699 L 140.15 213.013 " fill="#FF0000"/>
<path class="atom-9" d="M 145.335 223.248 L 149.499 223.248 L 149.499 209.037 L 144.905 210.461 L 144.287 208.876 L 150.116 206.27 L 152.024 206.593 L 152.024 223.248 L 155.758 223.248 L 155.758 225.397 L 145.335 225.397 L 145.335 223.248 " fill="#FF0000"/>
<path class="atom-9" d="M 164.354 225.612 Q 160.862 225.612, 159.115 223.033 Q 157.396 220.454, 157.396 215.86 Q 157.396 211.267, 159.115 208.715 Q 160.835 206.163, 164.354 206.163 Q 167.873 206.163, 169.592 208.715 Q 171.311 211.267, 171.311 215.86 Q 171.311 220.454, 169.565 223.033 Q 167.846 225.612, 164.354 225.612 M 164.354 223.463 Q 166.422 223.463, 167.524 221.555 Q 168.625 219.621, 168.625 215.86 Q 168.625 212.127, 167.524 210.219 Q 166.422 208.312, 164.354 208.312 Q 162.312 208.312, 161.184 210.219 Q 160.083 212.127, 160.083 215.86 Q 160.083 219.621, 161.184 221.555 Q 162.312 223.463, 164.354 223.463 " fill="#FF0000"/>
<path class="atom-10" d="M 213.736 365.099 L 216.315 365.099 L 216.315 373.185 L 226.039 373.185 L 226.039 365.099 L 228.618 365.099 L 228.618 384.118 L 226.039 384.118 L 226.039 375.334 L 216.315 375.334 L 216.315 384.118 L 213.736 384.118 L 213.736 365.099 " fill="#000000"/>
<path class="atom-10" d="M 230.633 380.975 L 233.319 380.975 L 233.319 383.662 L 230.633 383.662 L 230.633 380.975 M 230.633 371.735 L 233.319 371.735 L 233.319 374.421 L 230.633 374.421 L 230.633 371.735 " fill="#000000"/>
<path class="atom-10" d="M 235.817 381.969 L 239.981 381.969 L 239.981 367.759 L 235.387 369.183 L 234.769 367.598 L 240.599 364.992 L 242.506 365.314 L 242.506 381.969 L 246.24 381.969 L 246.24 384.118 L 235.817 384.118 L 235.817 381.969 " fill="#000000"/>
<path class="atom-10" d="M 248.738 381.969 L 252.902 381.969 L 252.902 367.759 L 248.308 369.183 L 247.69 367.598 L 253.52 364.992 L 255.427 365.314 L 255.427 381.969 L 259.161 381.969 L 259.161 384.118 L 248.738 384.118 L 248.738 381.969 " fill="#000000"/>
<path class="atom-11" d="M 346.642 116.097 L 349.221 116.097 L 349.221 124.182 L 358.945 124.182 L 358.945 116.097 L 361.524 116.097 L 361.524 135.115 L 358.945 135.115 L 358.945 126.331 L 349.221 126.331 L 349.221 135.115 L 346.642 135.115 L 346.642 116.097 " fill="#000000"/>
<path class="atom-11" d="M 363.539 131.972 L 366.225 131.972 L 366.225 134.659 L 363.539 134.659 L 363.539 131.972 M 363.539 122.732 L 366.225 122.732 L 366.225 125.418 L 363.539 125.418 L 363.539 122.732 " fill="#000000"/>
<path class="atom-11" d="M 368.724 132.966 L 372.887 132.966 L 372.887 118.756 L 368.294 120.18 L 367.676 118.595 L 373.505 115.989 L 375.412 116.311 L 375.412 132.966 L 379.146 132.966 L 379.146 135.115 L 368.724 135.115 L 368.724 132.966 " fill="#000000"/>
<path class="atom-11" d="M 380.543 119.696 Q 381.242 117.896, 382.907 116.902 Q 384.573 115.882, 386.883 115.882 Q 389.757 115.882, 391.369 117.44 Q 392.981 118.998, 392.981 121.765 Q 392.981 124.585, 390.885 127.218 Q 388.817 129.85, 384.519 132.966 L 393.303 132.966 L 393.303 135.115 L 380.489 135.115 L 380.489 133.316 Q 384.035 130.791, 386.131 128.91 Q 388.253 127.03, 389.274 125.337 Q 390.294 123.645, 390.294 121.899 Q 390.294 120.072, 389.381 119.051 Q 388.468 118.031, 386.883 118.031 Q 385.352 118.031, 384.331 118.649 Q 383.31 119.266, 382.585 120.636 L 380.543 119.696 " fill="#000000"/>
<path class="atom-12" d="M 378.994 346.475 L 381.573 346.475 L 381.573 354.561 L 391.297 354.561 L 391.297 346.475 L 393.876 346.475 L 393.876 365.494 L 391.297 365.494 L 391.297 356.71 L 381.573 356.71 L 381.573 365.494 L 378.994 365.494 L 378.994 346.475 " fill="#000000"/>
<path class="atom-12" d="M 395.89 362.351 L 398.577 362.351 L 398.577 365.037 L 395.89 365.037 L 395.89 362.351 M 395.89 353.11 L 398.577 353.11 L 398.577 355.796 L 395.89 355.796 L 395.89 353.11 " fill="#000000"/>
<path class="atom-12" d="M 401.075 363.345 L 405.239 363.345 L 405.239 349.135 L 400.645 350.558 L 400.027 348.973 L 405.857 346.368 L 407.764 346.69 L 407.764 363.345 L 411.498 363.345 L 411.498 365.494 L 401.075 365.494 L 401.075 363.345 " fill="#000000"/>
<path class="atom-12" d="M 421.759 355.474 Q 423.613 356.011, 424.499 357.22 Q 425.413 358.402, 425.413 360.283 Q 425.413 361.894, 424.607 363.157 Q 423.801 364.393, 422.323 365.091 Q 420.846 365.763, 418.912 365.763 Q 416.87 365.763, 415.339 365.064 Q 413.835 364.339, 412.626 362.888 L 414.157 361.33 Q 415.339 362.62, 416.333 363.13 Q 417.327 363.614, 418.912 363.614 Q 420.631 363.614, 421.679 362.7 Q 422.726 361.76, 422.726 360.256 Q 422.726 358.322, 421.625 357.462 Q 420.551 356.576, 418.213 356.576 L 416.843 356.576 L 416.843 354.641 L 418.052 354.641 Q 420.121 354.615, 421.222 353.728 Q 422.323 352.815, 422.323 351.122 Q 422.323 349.887, 421.41 349.161 Q 420.497 348.409, 418.939 348.409 Q 417.354 348.409, 416.36 348.973 Q 415.393 349.537, 414.641 350.961 L 412.787 349.967 Q 413.459 348.382, 415.071 347.335 Q 416.682 346.26, 418.939 346.26 Q 421.733 346.26, 423.371 347.576 Q 425.01 348.893, 425.01 351.122 Q 425.01 352.654, 424.177 353.755 Q 423.344 354.856, 421.759 355.474 " fill="#000000"/>
<path class="atom-13" d="M 429.323 221.893 L 431.901 221.893 L 431.901 229.979 L 441.626 229.979 L 441.626 221.893 L 444.205 221.893 L 444.205 240.912 L 441.626 240.912 L 441.626 232.128 L 431.901 232.128 L 431.901 240.912 L 429.323 240.912 L 429.323 221.893 " fill="#000000"/>
<path class="atom-13" d="M 446.219 237.769 L 448.906 237.769 L 448.906 240.455 L 446.219 240.455 L 446.219 237.769 M 446.219 228.528 L 448.906 228.528 L 448.906 231.214 L 446.219 231.214 L 446.219 228.528 " fill="#000000"/>
<path class="atom-13" d="M 451.404 238.763 L 455.568 238.763 L 455.568 224.552 L 450.974 225.976 L 450.356 224.391 L 456.185 221.786 L 458.093 222.108 L 458.093 238.763 L 461.827 238.763 L 461.827 240.912 L 451.404 240.912 L 451.404 238.763 " fill="#000000"/>
<path class="atom-13" d="M 474.989 234.384 L 477.273 234.384 L 477.273 236.533 L 474.989 236.533 L 474.989 240.912 L 472.464 240.912 L 472.464 236.533 L 462.632 236.533 L 462.632 234.841 L 470.96 221.893 L 474.989 221.893 L 474.989 234.384 M 465.749 234.384 L 472.464 234.384 L 472.464 223.612 L 465.749 234.384 " fill="#000000"/>
<path class="atom-14" d="M 22.7273 215.663 L 25.3061 215.663 L 25.3061 223.749 L 35.0305 223.749 L 35.0305 215.663 L 37.6093 215.663 L 37.6093 234.682 L 35.0305 234.682 L 35.0305 225.898 L 25.3061 225.898 L 25.3061 234.682 L 22.7273 234.682 L 22.7273 215.663 " fill="#000000"/>
<path class="atom-14" d="M 39.624 231.539 L 42.3103 231.539 L 42.3103 234.225 L 39.624 234.225 L 39.624 231.539 M 39.624 222.298 L 42.3103 222.298 L 42.3103 224.985 L 39.624 224.985 L 39.624 222.298 " fill="#000000"/>
<path class="atom-14" d="M 44.8085 232.533 L 48.9723 232.533 L 48.9723 218.323 L 44.3787 219.746 L 43.7609 218.161 L 49.5901 215.556 L 51.4974 215.878 L 51.4974 232.533 L 55.2313 232.533 L 55.2313 234.682 L 44.8085 234.682 L 44.8085 232.533 " fill="#000000"/>
<path class="atom-14" d="M 63.3707 222.782 Q 65.0362 222.782, 66.4062 223.507 Q 67.7762 224.206, 68.5553 225.549 Q 69.3343 226.865, 69.3343 228.665 Q 69.3343 230.626, 68.3672 232.05 Q 67.427 233.446, 65.869 234.172 Q 64.3109 234.897, 62.538 234.897 Q 60.7919 234.897, 59.1801 234.252 Q 57.5684 233.608, 56.467 232.372 L 58.0788 230.706 Q 58.9652 231.673, 60.1741 232.211 Q 61.3829 232.721, 62.6186 232.721 Q 64.3109 232.721, 65.466 231.673 Q 66.648 230.626, 66.648 228.719 Q 66.648 226.704, 65.466 225.764 Q 64.3109 224.797, 62.4574 224.797 Q 60.7919 224.797, 58.9384 225.522 L 57.4609 224.823 L 58.3743 215.663 L 68.1523 215.663 L 67.8837 217.812 L 60.577 217.812 L 60.0129 223.453 Q 61.7052 222.782, 63.3707 222.782 " fill="#000000"/>
<text x="203.99762195634696" y="264.03545667181066" font-size="12" font-family="Verdana" font-weight="bold" letter-spacing="0" text-anchor="start" fill="black" transform=" rotate(82.006373 203.997622 264.035457)">1.025</text><text x="25" y="490" font-size="12" font-family="Verdana" font-weight="bold" letter-spacing="0" text-anchor="start" fill="black">[#8:1]=[#6:2](-[#6:3]1:[#6:4](:[#6:8](:[#6:7](:[#6:6](:[#6:5]:1-[H:11])-[H:13])-[H:14])-[H:12])-[H:9])-[#8:10]-[H:15]</text></svg>
