<?xml version='1.0' encoding='ASCII' standalone='yes'?>
<svg xmlns="http://www.w3.org/2000/svg" xmlns:rdkit="http://www.rdkit.org/xml" xmlns:xlink="http://www.w3.org/1999/xlink" version="1.1" baseProfile="full" xml:space="preserve" width="500px" height="500px" viewBox="0 0 500 500">
<!-- END OF HEADER -->
<rect style="opacity:1.0;fill:#FFFFFF;stroke:none" width="500" height="500" x="0" y="0"> </rect>
<path d="M 125.038,228.994 L 181.346,250.416" style="fill:none;fill-rule:evenodd;stroke:#FF7F7F;stroke-width:12.9px;stroke-linecap:butt;stroke-linejoin:miter;stroke-opacity:1"/>
<path class="bond-1 atom-1 atom-0" d="M 108.528,234.673 L 94.6478,245.982" style="fill:none;fill-rule:evenodd;stroke:#000000;stroke-width:2.0px;stroke-linecap:butt;stroke-linejoin:miter;stroke-opacity:1"/>
<path class="bond-1 atom-1 atom-0" d="M 94.6478,245.982 L 80.7672,257.291" style="fill:none;fill-rule:evenodd;stroke:#FF0000;stroke-width:2.0px;stroke-linecap:butt;stroke-linejoin:miter;stroke-opacity:1"/>
<path class="bond-1 atom-1 atom-0" d="M 116.139,244.014 L 102.258,255.323" style="fill:none;fill-rule:evenodd;stroke:#000000;stroke-width:2.0px;stroke-linecap:butt;stroke-linejoin:miter;stroke-opacity:1"/>
<path class="bond-1 atom-1 atom-0" d="M 102.258,255.323 L 88.3778,266.632" style="fill:none;fill-rule:evenodd;stroke:#FF0000;stroke-width:2.0px;stroke-linecap:butt;stroke-linejoin:miter;stroke-opacity:1"/>
<path class="bond-0 atom-1 atom-12" d="M 123.402,218.86 L 120.238,199.26" style="fill:none;fill-rule:evenodd;stroke:#000000;stroke-width:2.0px;stroke-linecap:butt;stroke-linejoin:miter;stroke-opacity:1"/>
<path class="bond-0 atom-1 atom-12" d="M 120.238,199.26 L 117.073,179.66" style="fill:none;fill-rule:evenodd;stroke:#FF0000;stroke-width:2.0px;stroke-linecap:butt;stroke-linejoin:miter;stroke-opacity:1"/>
<path class="bond-3 atom-2 atom-1" d="M 159.75,242.2 L 135.877,233.117" style="fill:none;fill-rule:evenodd;stroke:#000000;stroke-width:2.0px;stroke-linecap:butt;stroke-linejoin:miter;stroke-opacity:1"/>
<path class="bond-2 atom-2 atom-10" d="M 183.021,260.79 L 189.37,300.118" style="fill:none;fill-rule:evenodd;stroke:#000000;stroke-width:2.0px;stroke-linecap:butt;stroke-linejoin:miter;stroke-opacity:1"/>
<path class="bond-2 atom-2 atom-10" d="M 195.868,264.769 L 200.313,292.298" style="fill:none;fill-rule:evenodd;stroke:#000000;stroke-width:2.0px;stroke-linecap:butt;stroke-linejoin:miter;stroke-opacity:1"/>
<path class="bond-4 atom-3 atom-2" d="M 215.349,222.713 L 192.21,241.565" style="fill:none;fill-rule:evenodd;stroke:#000000;stroke-width:2.0px;stroke-linecap:butt;stroke-linejoin:miter;stroke-opacity:1"/>
<path class="bond-5 atom-3 atom-9" d="M 226.448,202.422 L 220.046,162.769" style="fill:none;fill-rule:evenodd;stroke:#000000;stroke-width:2.0px;stroke-linecap:butt;stroke-linejoin:miter;stroke-opacity:1"/>
<path class="bond-7 atom-4 atom-3" d="M 258.6,223.985 L 239.415,216.686" style="fill:none;fill-rule:evenodd;stroke:#000000;stroke-width:2.0px;stroke-linecap:butt;stroke-linejoin:miter;stroke-opacity:1"/>
<path class="bond-7 atom-4 atom-3" d="M 251.438,234.152 L 238.008,229.042" style="fill:none;fill-rule:evenodd;stroke:#000000;stroke-width:2.0px;stroke-linecap:butt;stroke-linejoin:miter;stroke-opacity:1"/>
<path class="bond-6 atom-4 atom-8" d="M 286.028,244.112 L 292.369,283.39" style="fill:none;fill-rule:evenodd;stroke:#000000;stroke-width:2.0px;stroke-linecap:butt;stroke-linejoin:miter;stroke-opacity:1"/>
<path class="bond-11 atom-6 atom-4" d="M 317.794,216.625 L 291.072,230.341" style="fill:none;fill-rule:evenodd;stroke:#000000;stroke-width:2.0px;stroke-linecap:butt;stroke-linejoin:miter;stroke-opacity:1"/>
<path class="bond-8 atom-5 atom-7" d="M 358.522,292.568 L 367.057,275.694" style="fill:none;fill-rule:evenodd;stroke:#0000FF;stroke-width:2.0px;stroke-linecap:butt;stroke-linejoin:miter;stroke-opacity:1"/>
<path class="bond-8 atom-5 atom-7" d="M 367.057,275.694 L 375.591,258.82" style="fill:none;fill-rule:evenodd;stroke:#000000;stroke-width:2.0px;stroke-linecap:butt;stroke-linejoin:miter;stroke-opacity:1"/>
<path class="bond-9 atom-5 atom-8" d="M 345.518,301.27 L 325.486,298.158" style="fill:none;fill-rule:evenodd;stroke:#0000FF;stroke-width:2.0px;stroke-linecap:butt;stroke-linejoin:miter;stroke-opacity:1"/>
<path class="bond-9 atom-5 atom-8" d="M 325.486,298.158 L 305.455,295.046" style="fill:none;fill-rule:evenodd;stroke:#000000;stroke-width:2.0px;stroke-linecap:butt;stroke-linejoin:miter;stroke-opacity:1"/>
<path class="bond-10 atom-5 atom-13" d="M 358.696,312.642 L 367.36,329.522" style="fill:none;fill-rule:evenodd;stroke:#0000FF;stroke-width:2.0px;stroke-linecap:butt;stroke-linejoin:miter;stroke-opacity:1"/>
<path class="bond-10 atom-5 atom-13" d="M 367.36,329.522 L 376.024,346.402" style="fill:none;fill-rule:evenodd;stroke:#000000;stroke-width:2.0px;stroke-linecap:butt;stroke-linejoin:miter;stroke-opacity:1"/>
<path class="bond-12 atom-6 atom-14" d="M 339.503,196.334 L 345.671,156.625" style="fill:none;fill-rule:evenodd;stroke:#000000;stroke-width:2.0px;stroke-linecap:butt;stroke-linejoin:miter;stroke-opacity:1"/>
<path class="bond-12 atom-6 atom-14" d="M 328.522,188.529 L 332.839,160.732" style="fill:none;fill-rule:evenodd;stroke:#000000;stroke-width:2.0px;stroke-linecap:butt;stroke-linejoin:miter;stroke-opacity:1"/>
<path class="bond-13 atom-6 atom-7" d="M 348.153,216.408 L 372.96,241.068" style="fill:none;fill-rule:evenodd;stroke:#000000;stroke-width:2.0px;stroke-linecap:butt;stroke-linejoin:miter;stroke-opacity:1"/>
<path class="bond-14 atom-7 atom-15" d="M 407.491,250.523 L 419.965,248.51" style="fill:none;fill-rule:evenodd;stroke:#000000;stroke-width:2.0px;stroke-linecap:butt;stroke-linejoin:miter;stroke-opacity:1"/>
<path class="bond-14 atom-7 atom-15" d="M 419.965,248.51 L 432.438,246.496" style="fill:none;fill-rule:evenodd;stroke:#FF0000;stroke-width:2.0px;stroke-linecap:butt;stroke-linejoin:miter;stroke-opacity:1"/>
<path class="bond-14 atom-7 atom-15" d="M 405.571,238.628 L 418.044,236.614" style="fill:none;fill-rule:evenodd;stroke:#000000;stroke-width:2.0px;stroke-linecap:butt;stroke-linejoin:miter;stroke-opacity:1"/>
<path class="bond-14 atom-7 atom-15" d="M 418.044,236.614 L 430.518,234.601" style="fill:none;fill-rule:evenodd;stroke:#FF0000;stroke-width:2.0px;stroke-linecap:butt;stroke-linejoin:miter;stroke-opacity:1"/>
<path class="bond-15 atom-8 atom-11" d="M 281.259,303.612 L 259.191,321.591" style="fill:none;fill-rule:evenodd;stroke:#000000;stroke-width:2.0px;stroke-linecap:butt;stroke-linejoin:miter;stroke-opacity:1"/>
<path class="bond-15 atom-8 atom-11" d="M 270.338,296.967 L 254.89,309.553" style="fill:none;fill-rule:evenodd;stroke:#000000;stroke-width:2.0px;stroke-linecap:butt;stroke-linejoin:miter;stroke-opacity:1"/>
<path class="bond-16 atom-10 atom-16" d="M 178.244,320.242 L 151.001,342.438" style="fill:none;fill-rule:evenodd;stroke:#000000;stroke-width:2.0px;stroke-linecap:butt;stroke-linejoin:miter;stroke-opacity:1"/>
<path class="bond-17 atom-11 atom-10" d="M 220.621,321.181 L 206.634,315.86" style="fill:none;fill-rule:evenodd;stroke:#000000;stroke-width:2.0px;stroke-linecap:butt;stroke-linejoin:miter;stroke-opacity:1"/>
<path class="bond-18 atom-11 atom-17" d="M 248.892,341.448 L 255.294,381.106" style="fill:none;fill-rule:evenodd;stroke:#000000;stroke-width:2.0px;stroke-linecap:butt;stroke-linejoin:miter;stroke-opacity:1"/>
<path class="bond-19 atom-12 atom-18" d="M 106.098,165.965 L 86.1991,158.395" style="fill:none;fill-rule:evenodd;stroke:#FF0000;stroke-width:2.0px;stroke-linecap:butt;stroke-linejoin:miter;stroke-opacity:1"/>
<path class="bond-19 atom-12 atom-18" d="M 86.1991,158.395 L 66.3003,150.824" style="fill:none;fill-rule:evenodd;stroke:#000000;stroke-width:2.0px;stroke-linecap:butt;stroke-linejoin:miter;stroke-opacity:1"/>
<path class="bond-20 atom-14 atom-19" d="M 364.244,140.145 L 395.661,127.977" style="fill:none;fill-rule:evenodd;stroke:#000000;stroke-width:2.0px;stroke-linecap:butt;stroke-linejoin:miter;stroke-opacity:1"/>
<path class="bond-21 atom-14 atom-20" d="M 334.616,136.61 L 306.521,113.997" style="fill:none;fill-rule:evenodd;stroke:#000000;stroke-width:2.0px;stroke-linecap:butt;stroke-linejoin:miter;stroke-opacity:1"/>
<path class="atom-0" d="M 52.0036 267.095 Q 52.0036 262.998, 54.0279 260.709 Q 56.0521 258.419, 59.8356 258.419 Q 63.619 258.419, 65.6433 260.709 Q 67.6675 262.998, 67.6675 267.095 Q 67.6675 271.24, 65.6192 273.601 Q 63.5708 275.939, 59.8356 275.939 Q 56.0762 275.939, 54.0279 273.601 Q 52.0036 271.264, 52.0036 267.095 M 59.8356 274.011 Q 62.4382 274.011, 63.8359 272.276 Q 65.2577 270.517, 65.2577 267.095 Q 65.2577 263.745, 63.8359 262.058 Q 62.4382 260.347, 59.8356 260.347 Q 57.233 260.347, 55.8112 262.034 Q 54.4135 263.721, 54.4135 267.095 Q 54.4135 270.541, 55.8112 272.276 Q 57.233 274.011, 59.8356 274.011 " fill="#FF0000"/>
<path class="atom-0" d="M 69.4749 272.854 L 71.8847 272.854 L 71.8847 275.264 L 69.4749 275.264 L 69.4749 272.854 M 69.4749 264.565 L 71.8847 264.565 L 71.8847 266.974 L 69.4749 266.974 L 69.4749 264.565 " fill="#FF0000"/>
<path class="atom-0" d="M 74.1259 273.746 L 77.8611 273.746 L 77.8611 260.998 L 73.7403 262.275 L 73.186 260.853 L 78.4154 258.516 L 80.1264 258.805 L 80.1264 273.746 L 83.476 273.746 L 83.476 275.674 L 74.1259 275.674 L 74.1259 273.746 " fill="#FF0000"/>
<path class="atom-1" d="M 104.873 229.066 Q 104.873 224.825, 106.85 222.608 Q 108.85 220.366, 112.633 220.366 Q 116.151 220.366, 118.031 222.848 L 116.441 224.15 Q 115.067 222.342, 112.633 222.342 Q 110.055 222.342, 108.681 224.077 Q 107.331 225.788, 107.331 229.066 Q 107.331 232.44, 108.729 234.175 Q 110.151 235.91, 112.898 235.91 Q 114.778 235.91, 116.971 234.777 L 117.646 236.585 Q 116.754 237.163, 115.404 237.5 Q 114.055 237.838, 112.561 237.838 Q 108.85 237.838, 106.85 235.572 Q 104.873 233.307, 104.873 229.066 " fill="#000000"/>
<path class="atom-1" d="M 119.839 234.801 L 122.248 234.801 L 122.248 237.211 L 119.839 237.211 L 119.839 234.801 M 119.839 226.511 L 122.248 226.511 L 122.248 228.921 L 119.839 228.921 L 119.839 226.511 " fill="#000000"/>
<path class="atom-1" d="M 123.501 223.788 Q 124.128 222.174, 125.622 221.282 Q 127.116 220.366, 129.189 220.366 Q 131.767 220.366, 133.213 221.764 Q 134.659 223.162, 134.659 225.644 Q 134.659 228.174, 132.779 230.536 Q 130.924 232.897, 127.068 235.693 L 134.948 235.693 L 134.948 237.621 L 123.453 237.621 L 123.453 236.006 Q 126.634 233.741, 128.514 232.054 Q 130.418 230.367, 131.333 228.849 Q 132.249 227.331, 132.249 225.764 Q 132.249 224.126, 131.43 223.21 Q 130.61 222.294, 129.189 222.294 Q 127.815 222.294, 126.899 222.848 Q 125.984 223.403, 125.333 224.632 L 123.501 223.788 " fill="#000000"/>
<path class="atom-2" d="M 161.256 250.488 Q 161.256 246.247, 163.232 244.03 Q 165.232 241.789, 169.016 241.789 Q 172.534 241.789, 174.414 244.271 L 172.823 245.572 Q 171.45 243.765, 169.016 243.765 Q 166.437 243.765, 165.064 245.5 Q 163.714 247.211, 163.714 250.488 Q 163.714 253.862, 165.112 255.597 Q 166.534 257.332, 169.281 257.332 Q 171.16 257.332, 173.353 256.2 L 174.028 258.007 Q 173.137 258.585, 171.787 258.923 Q 170.438 259.26, 168.943 259.26 Q 165.232 259.26, 163.232 256.995 Q 161.256 254.73, 161.256 250.488 " fill="#000000"/>
<path class="atom-2" d="M 176.221 256.224 L 178.631 256.224 L 178.631 258.634 L 176.221 258.634 L 176.221 256.224 M 176.221 247.934 L 178.631 247.934 L 178.631 250.344 L 176.221 250.344 L 176.221 247.934 " fill="#000000"/>
<path class="atom-2" d="M 187.837 250.055 Q 189.499 250.537, 190.295 251.621 Q 191.114 252.681, 191.114 254.368 Q 191.114 255.814, 190.391 256.947 Q 189.668 258.055, 188.343 258.682 Q 187.017 259.284, 185.282 259.284 Q 183.451 259.284, 182.077 258.658 Q 180.728 258.007, 179.643 256.706 L 181.017 255.308 Q 182.077 256.465, 182.969 256.923 Q 183.86 257.356, 185.282 257.356 Q 186.824 257.356, 187.764 256.537 Q 188.704 255.694, 188.704 254.344 Q 188.704 252.609, 187.716 251.838 Q 186.752 251.043, 184.656 251.043 L 183.427 251.043 L 183.427 249.308 L 184.511 249.308 Q 186.367 249.284, 187.355 248.488 Q 188.343 247.669, 188.343 246.151 Q 188.343 245.042, 187.523 244.392 Q 186.704 243.717, 185.306 243.717 Q 183.884 243.717, 182.993 244.223 Q 182.125 244.729, 181.45 246.006 L 179.788 245.115 Q 180.39 243.693, 181.836 242.753 Q 183.282 241.789, 185.306 241.789 Q 187.812 241.789, 189.282 242.97 Q 190.752 244.151, 190.752 246.151 Q 190.752 247.524, 190.005 248.512 Q 189.258 249.5, 187.837 250.055 " fill="#000000"/>
<path class="atom-3" d="M 207.366 212.435 Q 207.366 208.194, 209.342 205.977 Q 211.343 203.736, 215.126 203.736 Q 218.644 203.736, 220.524 206.218 L 218.934 207.519 Q 217.56 205.712, 215.126 205.712 Q 212.547 205.712, 211.174 207.447 Q 209.824 209.158, 209.824 212.435 Q 209.824 215.809, 211.222 217.544 Q 212.644 219.279, 215.391 219.279 Q 217.271 219.279, 219.464 218.147 L 220.138 219.954 Q 219.247 220.532, 217.897 220.87 Q 216.548 221.207, 215.054 221.207 Q 211.343 221.207, 209.342 218.942 Q 207.366 216.677, 207.366 212.435 " fill="#000000"/>
<path class="atom-3" d="M 222.331 218.171 L 224.741 218.171 L 224.741 220.581 L 222.331 220.581 L 222.331 218.171 M 222.331 209.881 L 224.741 209.881 L 224.741 212.291 L 222.331 212.291 L 222.331 209.881 " fill="#000000"/>
<path class="atom-3" d="M 236.549 215.134 L 238.598 215.134 L 238.598 217.062 L 236.549 217.062 L 236.549 220.99 L 234.284 220.99 L 234.284 217.062 L 225.464 217.062 L 225.464 215.544 L 232.935 203.929 L 236.549 203.929 L 236.549 215.134 M 228.26 215.134 L 234.284 215.134 L 234.284 205.471 L 228.26 215.134 " fill="#000000"/>
<path class="atom-4" d="M 260.106 233.858 Q 260.106 229.617, 262.082 227.4 Q 264.082 225.158, 267.866 225.158 Q 271.384 225.158, 273.264 227.641 L 271.673 228.942 Q 270.3 227.135, 267.866 227.135 Q 265.287 227.135, 263.914 228.87 Q 262.564 230.581, 262.564 233.858 Q 262.564 237.232, 263.962 238.967 Q 265.384 240.702, 268.131 240.702 Q 270.01 240.702, 272.203 239.569 L 272.878 241.377 Q 271.987 241.955, 270.637 242.292 Q 269.288 242.63, 267.793 242.63 Q 264.082 242.63, 262.082 240.365 Q 260.106 238.099, 260.106 233.858 " fill="#000000"/>
<path class="atom-4" d="M 275.071 239.593 L 277.481 239.593 L 277.481 242.003 L 275.071 242.003 L 275.071 239.593 M 275.071 231.304 L 277.481 231.304 L 277.481 233.713 L 275.071 233.713 L 275.071 231.304 " fill="#000000"/>
<path class="atom-4" d="M 284.783 231.737 Q 286.277 231.737, 287.506 232.388 Q 288.735 233.015, 289.434 234.219 Q 290.133 235.4, 290.133 237.015 Q 290.133 238.774, 289.265 240.051 Q 288.422 241.304, 287.024 241.955 Q 285.626 242.606, 284.036 242.606 Q 282.469 242.606, 281.023 242.027 Q 279.578 241.449, 278.589 240.34 L 280.035 238.846 Q 280.831 239.714, 281.915 240.196 Q 282.999 240.654, 284.108 240.654 Q 285.626 240.654, 286.662 239.714 Q 287.723 238.774, 287.723 237.063 Q 287.723 235.256, 286.662 234.412 Q 285.626 233.545, 283.963 233.545 Q 282.469 233.545, 280.807 234.195 L 279.481 233.569 L 280.3 225.351 L 289.072 225.351 L 288.831 227.279 L 282.277 227.279 L 281.77 232.34 Q 283.289 231.737, 284.783 231.737 " fill="#000000"/>
<path class="atom-5" d="M 349.723 294.074 L 355.314 303.111 Q 355.868 304.003, 356.76 305.617 Q 357.651 307.232, 357.7 307.328 L 357.7 294.074 L 359.965 294.074 L 359.965 311.136 L 357.627 311.136 L 351.627 301.256 Q 350.928 300.099, 350.181 298.773 Q 349.458 297.448, 349.241 297.038 L 349.241 311.136 L 347.024 311.136 L 347.024 294.074 L 349.723 294.074 " fill="#0000FF"/>
<path class="atom-5" d="M 361.772 308.316 L 364.182 308.316 L 364.182 310.726 L 361.772 310.726 L 361.772 308.316 M 361.772 300.027 L 364.182 300.027 L 364.182 302.436 L 361.772 302.436 L 361.772 300.027 " fill="#0000FF"/>
<path class="atom-5" d="M 372.496 300.484 Q 373.99 300.484, 375.171 301.135 Q 376.352 301.786, 377.002 302.967 Q 377.653 304.147, 377.653 305.641 Q 377.653 307.304, 376.906 308.606 Q 376.183 309.883, 374.882 310.606 Q 373.58 311.329, 371.918 311.329 Q 368.881 311.329, 367.339 309.28 Q 365.821 307.208, 365.821 303.111 Q 365.821 298.581, 367.7 296.243 Q 369.604 293.882, 373.243 293.882 Q 374.303 293.882, 375.195 294.123 Q 376.111 294.363, 376.978 294.87 L 376.038 296.484 Q 374.785 295.809, 373.267 295.809 Q 370.857 295.809, 369.628 297.376 Q 368.399 298.918, 368.255 302.123 Q 369.122 301.328, 370.207 300.918 Q 371.315 300.484, 372.496 300.484 M 371.942 309.353 Q 372.858 309.353, 373.605 308.871 Q 374.376 308.389, 374.809 307.545 Q 375.243 306.702, 375.243 305.666 Q 375.243 304.147, 374.4 303.28 Q 373.556 302.412, 372.062 302.412 Q 371.026 302.412, 369.99 302.846 Q 368.978 303.256, 368.255 303.979 Q 368.351 306.798, 369.243 308.075 Q 370.134 309.353, 371.942 309.353 " fill="#0000FF"/>
<path class="atom-6" d="M 318.122 206.347 Q 318.122 202.106, 320.098 199.889 Q 322.098 197.648, 325.881 197.648 Q 329.4 197.648, 331.279 200.13 L 329.689 201.431 Q 328.315 199.624, 325.881 199.624 Q 323.303 199.624, 321.929 201.359 Q 320.58 203.07, 320.58 206.347 Q 320.58 209.721, 321.978 211.456 Q 323.399 213.191, 326.147 213.191 Q 328.026 213.191, 330.219 212.059 L 330.894 213.866 Q 330.002 214.444, 328.653 214.782 Q 327.303 215.119, 325.809 215.119 Q 322.098 215.119, 320.098 212.854 Q 318.122 210.589, 318.122 206.347 " fill="#000000"/>
<path class="atom-6" d="M 333.087 212.083 L 335.497 212.083 L 335.497 214.492 L 333.087 214.492 L 333.087 212.083 M 333.087 203.793 L 335.497 203.793 L 335.497 206.203 L 333.087 206.203 L 333.087 203.793 " fill="#000000"/>
<path class="atom-6" d="M 344.871 199.768 L 335.93 199.768 L 335.93 197.841 L 347.257 197.841 L 347.257 199.552 L 340.365 214.902 L 338.051 214.902 L 344.871 199.768 " fill="#000000"/>
<path class="atom-7" d="M 374.107 248.82 Q 374.107 244.579, 376.083 242.362 Q 378.083 240.121, 381.866 240.121 Q 385.385 240.121, 387.264 242.603 L 385.674 243.904 Q 384.3 242.097, 381.866 242.097 Q 379.288 242.097, 377.914 243.832 Q 376.565 245.543, 376.565 248.82 Q 376.565 252.194, 377.962 253.929 Q 379.384 255.664, 382.131 255.664 Q 384.011 255.664, 386.204 254.532 L 386.879 256.339 Q 385.987 256.917, 384.638 257.255 Q 383.288 257.592, 381.794 257.592 Q 378.083 257.592, 376.083 255.327 Q 374.107 253.062, 374.107 248.82 " fill="#000000"/>
<path class="atom-7" d="M 389.072 254.556 L 391.482 254.556 L 391.482 256.966 L 389.072 256.966 L 389.072 254.556 M 389.072 246.266 L 391.482 246.266 L 391.482 248.676 L 389.072 248.676 L 389.072 246.266 " fill="#000000"/>
<path class="atom-7" d="M 401.675 248.338 Q 403.242 249.013, 404.133 250.025 Q 405.025 251.013, 405.025 252.7 Q 405.025 254.146, 404.278 255.279 Q 403.531 256.387, 402.181 257.014 Q 400.856 257.616, 399.097 257.616 Q 396.253 257.616, 394.614 256.315 Q 392.976 254.99, 392.976 252.7 Q 392.976 251.303, 393.699 250.266 Q 394.422 249.206, 395.916 248.411 Q 394.807 247.784, 394.205 246.868 Q 393.602 245.929, 393.602 244.483 Q 393.602 242.483, 395.048 241.302 Q 396.518 240.121, 399 240.121 Q 401.482 240.121, 402.928 241.302 Q 404.398 242.483, 404.398 244.483 Q 404.398 245.736, 403.699 246.676 Q 403.025 247.591, 401.675 248.338 M 399 241.928 Q 397.579 241.928, 396.783 242.603 Q 396.012 243.278, 396.012 244.483 Q 396.012 245.374, 396.542 245.977 Q 397.072 246.555, 397.819 246.893 Q 398.591 247.23, 400.061 247.736 Q 401.097 247.013, 401.531 246.242 Q 401.988 245.471, 401.988 244.483 Q 401.988 243.278, 401.193 242.603 Q 400.422 241.928, 399 241.928 M 399.097 255.809 Q 400.687 255.809, 401.651 254.966 Q 402.615 254.098, 402.615 252.676 Q 402.615 251.76, 402.109 251.182 Q 401.603 250.604, 400.832 250.266 Q 400.085 249.929, 398.735 249.495 L 397.651 249.134 Q 396.446 249.857, 395.916 250.724 Q 395.386 251.568, 395.386 252.676 Q 395.386 254.098, 396.398 254.966 Q 397.41 255.809, 399.097 255.809 " fill="#000000"/>
<path class="atom-8" d="M 273.618 293.334 Q 273.618 289.092, 275.594 286.875 Q 277.594 284.634, 281.377 284.634 Q 284.896 284.634, 286.775 287.116 L 285.185 288.418 Q 283.811 286.61, 281.377 286.61 Q 278.799 286.61, 277.425 288.345 Q 276.076 290.056, 276.076 293.334 Q 276.076 296.707, 277.473 298.443 Q 278.895 300.178, 281.642 300.178 Q 283.522 300.178, 285.715 299.045 L 286.39 300.852 Q 285.498 301.431, 284.149 301.768 Q 282.799 302.105, 281.305 302.105 Q 277.594 302.105, 275.594 299.84 Q 273.618 297.575, 273.618 293.334 " fill="#000000"/>
<path class="atom-8" d="M 288.583 299.069 L 290.993 299.069 L 290.993 301.479 L 288.583 301.479 L 288.583 299.069 M 288.583 290.779 L 290.993 290.779 L 290.993 293.189 L 288.583 293.189 L 288.583 290.779 " fill="#000000"/>
<path class="atom-8" d="M 298.053 284.634 Q 301.09 284.634, 302.608 286.707 Q 304.15 288.755, 304.15 292.852 Q 304.15 297.382, 302.246 299.744 Q 300.367 302.081, 296.728 302.081 Q 295.668 302.081, 294.752 301.84 Q 293.86 301.599, 292.993 301.093 L 293.933 299.479 Q 295.186 300.154, 296.704 300.154 Q 299.114 300.154, 300.343 298.611 Q 301.572 297.045, 301.716 293.84 Q 300.849 294.635, 299.74 295.069 Q 298.656 295.478, 297.475 295.478 Q 295.981 295.478, 294.8 294.828 Q 293.619 294.177, 292.969 292.996 Q 292.318 291.815, 292.318 290.321 Q 292.318 288.659, 293.041 287.381 Q 293.788 286.08, 295.089 285.357 Q 296.391 284.634, 298.053 284.634 M 294.728 290.297 Q 294.728 291.815, 295.571 292.683 Q 296.415 293.551, 297.909 293.551 Q 298.945 293.551, 299.957 293.141 Q 300.993 292.707, 301.716 291.984 Q 301.62 289.165, 300.728 287.887 Q 299.837 286.61, 298.029 286.61 Q 297.114 286.61, 296.342 287.092 Q 295.595 287.574, 295.162 288.418 Q 294.728 289.261, 294.728 290.297 " fill="#000000"/>
<path class="atom-9" d="M 211.776 144.453 L 214.089 144.453 L 214.089 151.706 L 222.813 151.706 L 222.813 144.453 L 225.126 144.453 L 225.126 161.515 L 222.813 161.515 L 222.813 153.634 L 214.089 153.634 L 214.089 161.515 L 211.776 161.515 L 211.776 144.453 " fill="#000000"/>
<path class="atom-9" d="M 226.934 158.695 L 229.344 158.695 L 229.344 161.105 L 226.934 161.105 L 226.934 158.695 M 226.934 150.405 L 229.344 150.405 L 229.344 152.815 L 226.934 152.815 L 226.934 150.405 " fill="#000000"/>
<path class="atom-9" d="M 231.585 159.587 L 235.32 159.587 L 235.32 146.839 L 231.199 148.116 L 230.645 146.694 L 235.874 144.357 L 237.585 144.646 L 237.585 159.587 L 240.935 159.587 L 240.935 161.515 L 231.585 161.515 L 231.585 159.587 " fill="#000000"/>
<path class="atom-9" d="M 248.646 161.707 Q 245.513 161.707, 243.947 159.394 Q 242.405 157.08, 242.405 152.96 Q 242.405 148.839, 243.947 146.549 Q 245.489 144.26, 248.646 144.26 Q 251.803 144.26, 253.345 146.549 Q 254.888 148.839, 254.888 152.96 Q 254.888 157.08, 253.321 159.394 Q 251.779 161.707, 248.646 161.707 M 248.646 159.779 Q 250.502 159.779, 251.49 158.068 Q 252.478 156.333, 252.478 152.96 Q 252.478 149.61, 251.49 147.899 Q 250.502 146.188, 248.646 146.188 Q 246.815 146.188, 245.803 147.899 Q 244.815 149.61, 244.815 152.96 Q 244.815 156.333, 245.803 158.068 Q 246.815 159.779, 248.646 159.779 " fill="#000000"/>
<path class="atom-10" d="M 165.283 309.964 Q 165.283 305.723, 167.259 303.506 Q 169.259 301.265, 173.043 301.265 Q 176.561 301.265, 178.441 303.747 L 176.85 305.048 Q 175.477 303.241, 173.043 303.241 Q 170.464 303.241, 169.09 304.976 Q 167.741 306.687, 167.741 309.964 Q 167.741 313.338, 169.139 315.073 Q 170.56 316.808, 173.308 316.808 Q 175.187 316.808, 177.38 315.676 L 178.055 317.483 Q 177.163 318.061, 175.814 318.399 Q 174.464 318.736, 172.97 318.736 Q 169.259 318.736, 167.259 316.471 Q 165.283 314.206, 165.283 309.964 " fill="#000000"/>
<path class="atom-10" d="M 180.248 315.7 L 182.658 315.7 L 182.658 318.109 L 180.248 318.109 L 180.248 315.7 M 180.248 307.41 L 182.658 307.41 L 182.658 309.82 L 180.248 309.82 L 180.248 307.41 " fill="#000000"/>
<path class="atom-10" d="M 184.899 316.591 L 188.634 316.591 L 188.634 303.843 L 184.513 305.12 L 183.959 303.699 L 189.188 301.361 L 190.899 301.65 L 190.899 316.591 L 194.249 316.591 L 194.249 318.519 L 184.899 318.519 L 184.899 316.591 " fill="#000000"/>
<path class="atom-10" d="M 196.49 316.591 L 200.226 316.591 L 200.226 303.843 L 196.105 305.12 L 195.55 303.699 L 200.78 301.361 L 202.491 301.65 L 202.491 316.591 L 205.84 316.591 L 205.84 318.519 L 196.49 318.519 L 196.49 316.591 " fill="#000000"/>
<path class="atom-11" d="M 221.164 331.387 Q 221.164 327.146, 223.14 324.928 Q 225.14 322.687, 228.923 322.687 Q 232.442 322.687, 234.321 325.169 L 232.731 326.471 Q 231.357 324.663, 228.923 324.663 Q 226.345 324.663, 224.971 326.398 Q 223.622 328.109, 223.622 331.387 Q 223.622 334.761, 225.019 336.496 Q 226.441 338.231, 229.188 338.231 Q 231.068 338.231, 233.261 337.098 L 233.936 338.905 Q 233.044 339.484, 231.694 339.821 Q 230.345 340.159, 228.851 340.159 Q 225.14 340.159, 223.14 337.893 Q 221.164 335.628, 221.164 331.387 " fill="#000000"/>
<path class="atom-11" d="M 236.129 337.122 L 238.538 337.122 L 238.538 339.532 L 236.129 339.532 L 236.129 337.122 M 236.129 328.832 L 238.538 328.832 L 238.538 331.242 L 236.129 331.242 L 236.129 328.832 " fill="#000000"/>
<path class="atom-11" d="M 240.78 338.014 L 244.515 338.014 L 244.515 325.266 L 240.394 326.543 L 239.84 325.121 L 245.069 322.784 L 246.78 323.073 L 246.78 338.014 L 250.13 338.014 L 250.13 339.942 L 240.78 339.942 L 240.78 338.014 " fill="#000000"/>
<path class="atom-11" d="M 251.383 326.109 Q 252.009 324.495, 253.503 323.603 Q 254.998 322.687, 257.07 322.687 Q 259.649 322.687, 261.094 324.085 Q 262.54 325.483, 262.54 327.965 Q 262.54 330.495, 260.661 332.857 Q 258.805 335.218, 254.949 338.014 L 262.83 338.014 L 262.83 339.942 L 251.335 339.942 L 251.335 338.327 Q 254.516 336.062, 256.395 334.375 Q 258.299 332.688, 259.215 331.17 Q 260.13 329.652, 260.13 328.085 Q 260.13 326.447, 259.311 325.531 Q 258.492 324.615, 257.07 324.615 Q 255.696 324.615, 254.781 325.169 Q 253.865 325.724, 253.214 326.953 L 251.383 326.109 " fill="#000000"/>
<path class="atom-12" d="M 107.604 169.566 Q 107.604 165.469, 109.628 163.18 Q 111.653 160.891, 115.436 160.891 Q 119.22 160.891, 121.244 163.18 Q 123.268 165.469, 123.268 169.566 Q 123.268 173.711, 121.22 176.073 Q 119.171 178.41, 115.436 178.41 Q 111.677 178.41, 109.628 176.073 Q 107.604 173.735, 107.604 169.566 M 115.436 176.482 Q 118.039 176.482, 119.436 174.747 Q 120.858 172.988, 120.858 169.566 Q 120.858 166.216, 119.436 164.529 Q 118.039 162.818, 115.436 162.818 Q 112.833 162.818, 111.412 164.505 Q 110.014 166.192, 110.014 169.566 Q 110.014 173.012, 111.412 174.747 Q 112.833 176.482, 115.436 176.482 " fill="#FF0000"/>
<path class="atom-12" d="M 125.075 175.326 L 127.485 175.326 L 127.485 177.735 L 125.075 177.735 L 125.075 175.326 M 125.075 167.036 L 127.485 167.036 L 127.485 169.446 L 125.075 169.446 L 125.075 167.036 " fill="#FF0000"/>
<path class="atom-12" d="M 129.726 176.217 L 133.462 176.217 L 133.462 163.469 L 129.341 164.746 L 128.787 163.325 L 134.016 160.987 L 135.727 161.276 L 135.727 176.217 L 139.077 176.217 L 139.077 178.145 L 129.726 178.145 L 129.726 176.217 " fill="#FF0000"/>
<path class="atom-12" d="M 148.282 169.156 Q 149.945 169.638, 150.74 170.723 Q 151.559 171.783, 151.559 173.47 Q 151.559 174.916, 150.837 176.048 Q 150.114 177.157, 148.788 177.784 Q 147.463 178.386, 145.728 178.386 Q 143.896 178.386, 142.523 177.759 Q 141.173 177.109, 140.089 175.807 L 141.462 174.41 Q 142.523 175.566, 143.414 176.024 Q 144.306 176.458, 145.728 176.458 Q 147.27 176.458, 148.21 175.639 Q 149.15 174.795, 149.15 173.446 Q 149.15 171.711, 148.162 170.94 Q 147.198 170.144, 145.101 170.144 L 143.872 170.144 L 143.872 168.409 L 144.957 168.409 Q 146.812 168.385, 147.8 167.59 Q 148.788 166.771, 148.788 165.252 Q 148.788 164.144, 147.969 163.493 Q 147.149 162.818, 145.752 162.818 Q 144.33 162.818, 143.438 163.325 Q 142.571 163.831, 141.896 165.108 L 140.233 164.216 Q 140.836 162.794, 142.282 161.855 Q 143.728 160.891, 145.752 160.891 Q 148.258 160.891, 149.728 162.071 Q 151.198 163.252, 151.198 165.252 Q 151.198 166.626, 150.451 167.614 Q 149.704 168.602, 148.282 169.156 " fill="#FF0000"/>
<path class="atom-13" d="M 374.33 347.624 L 376.643 347.624 L 376.643 354.877 L 385.367 354.877 L 385.367 347.624 L 387.68 347.624 L 387.68 364.685 L 385.367 364.685 L 385.367 356.805 L 376.643 356.805 L 376.643 364.685 L 374.33 364.685 L 374.33 347.624 " fill="#000000"/>
<path class="atom-13" d="M 389.488 361.866 L 391.898 361.866 L 391.898 364.276 L 389.488 364.276 L 389.488 361.866 M 389.488 353.576 L 391.898 353.576 L 391.898 355.986 L 389.488 355.986 L 389.488 353.576 " fill="#000000"/>
<path class="atom-13" d="M 394.139 362.758 L 397.874 362.758 L 397.874 350.01 L 393.753 351.287 L 393.199 349.865 L 398.428 347.527 L 400.139 347.817 L 400.139 362.758 L 403.489 362.758 L 403.489 364.685 L 394.139 364.685 L 394.139 362.758 " fill="#000000"/>
<path class="atom-13" d="M 415.297 358.83 L 417.345 358.83 L 417.345 360.757 L 415.297 360.757 L 415.297 364.685 L 413.032 364.685 L 413.032 360.757 L 404.212 360.757 L 404.212 359.239 L 411.682 347.624 L 415.297 347.624 L 415.297 358.83 M 407.007 358.83 L 413.032 358.83 L 413.032 349.166 L 407.007 358.83 " fill="#000000"/>
<path class="atom-14" d="M 321.12 146.815 Q 321.12 142.574, 323.096 140.357 Q 325.096 138.116, 328.879 138.116 Q 332.398 138.116, 334.277 140.598 L 332.687 141.899 Q 331.313 140.092, 328.879 140.092 Q 326.301 140.092, 324.927 141.827 Q 323.578 143.538, 323.578 146.815 Q 323.578 150.189, 324.975 151.924 Q 326.397 153.659, 329.144 153.659 Q 331.024 153.659, 333.217 152.527 L 333.892 154.334 Q 333 154.912, 331.651 155.25 Q 330.301 155.587, 328.807 155.587 Q 325.096 155.587, 323.096 153.322 Q 321.12 151.057, 321.12 146.815 " fill="#000000"/>
<path class="atom-14" d="M 336.085 152.551 L 338.495 152.551 L 338.495 154.961 L 336.085 154.961 L 336.085 152.551 M 336.085 144.261 L 338.495 144.261 L 338.495 146.671 L 336.085 146.671 L 336.085 144.261 " fill="#000000"/>
<path class="atom-14" d="M 340.736 153.442 L 344.471 153.442 L 344.471 140.694 L 340.35 141.972 L 339.796 140.55 L 345.025 138.212 L 346.736 138.501 L 346.736 153.442 L 350.086 153.442 L 350.086 155.37 L 340.736 155.37 L 340.736 153.442 " fill="#000000"/>
<path class="atom-14" d="M 357.388 144.695 Q 358.882 144.695, 360.111 145.345 Q 361.34 145.972, 362.039 147.177 Q 362.737 148.358, 362.737 149.972 Q 362.737 151.731, 361.87 153.009 Q 361.026 154.262, 359.629 154.912 Q 358.231 155.563, 356.641 155.563 Q 355.074 155.563, 353.628 154.985 Q 352.182 154.406, 351.194 153.298 L 352.64 151.804 Q 353.435 152.671, 354.52 153.153 Q 355.604 153.611, 356.713 153.611 Q 358.231 153.611, 359.267 152.671 Q 360.328 151.731, 360.328 150.02 Q 360.328 148.213, 359.267 147.37 Q 358.231 146.502, 356.568 146.502 Q 355.074 146.502, 353.411 147.153 L 352.086 146.526 L 352.905 138.309 L 361.677 138.309 L 361.436 140.237 L 354.881 140.237 L 354.375 145.297 Q 355.894 144.695, 357.388 144.695 " fill="#000000"/>
<path class="atom-15" d="M 432.329 239.195 Q 432.329 235.098, 434.354 232.809 Q 436.378 230.519, 440.161 230.519 Q 443.945 230.519, 445.969 232.809 Q 447.993 235.098, 447.993 239.195 Q 447.993 243.34, 445.945 245.701 Q 443.897 248.039, 440.161 248.039 Q 436.402 248.039, 434.354 245.701 Q 432.329 243.364, 432.329 239.195 M 440.161 246.111 Q 442.764 246.111, 444.162 244.376 Q 445.583 242.617, 445.583 239.195 Q 445.583 235.845, 444.162 234.158 Q 442.764 232.447, 440.161 232.447 Q 437.559 232.447, 436.137 234.134 Q 434.739 235.821, 434.739 239.195 Q 434.739 242.641, 436.137 244.376 Q 437.559 246.111, 440.161 246.111 " fill="#FF0000"/>
<path class="atom-15" d="M 449.801 244.954 L 452.21 244.954 L 452.21 247.364 L 449.801 247.364 L 449.801 244.954 M 449.801 236.664 L 452.21 236.664 L 452.21 239.074 L 449.801 239.074 L 449.801 236.664 " fill="#FF0000"/>
<path class="atom-15" d="M 454.452 245.846 L 458.187 245.846 L 458.187 233.098 L 454.066 234.375 L 453.512 232.953 L 458.741 230.616 L 460.452 230.905 L 460.452 245.846 L 463.802 245.846 L 463.802 247.774 L 454.452 247.774 L 454.452 245.846 " fill="#FF0000"/>
<path class="atom-15" d="M 472.116 237.122 Q 473.61 237.122, 474.791 237.773 Q 475.971 238.424, 476.622 239.604 Q 477.273 240.785, 477.273 242.279 Q 477.273 243.942, 476.526 245.243 Q 475.803 246.521, 474.501 247.244 Q 473.2 247.966, 471.537 247.966 Q 468.501 247.966, 466.959 245.918 Q 465.44 243.846, 465.44 239.749 Q 465.44 235.218, 467.32 232.881 Q 469.224 230.519, 472.863 230.519 Q 473.923 230.519, 474.815 230.76 Q 475.73 231.001, 476.598 231.507 L 475.658 233.122 Q 474.405 232.447, 472.887 232.447 Q 470.477 232.447, 469.248 234.014 Q 468.019 235.556, 467.874 238.761 Q 468.742 237.966, 469.826 237.556 Q 470.935 237.122, 472.116 237.122 M 471.561 245.99 Q 472.477 245.99, 473.224 245.508 Q 473.995 245.027, 474.429 244.183 Q 474.863 243.34, 474.863 242.303 Q 474.863 240.785, 474.019 239.918 Q 473.176 239.05, 471.682 239.05 Q 470.646 239.05, 469.609 239.484 Q 468.597 239.894, 467.874 240.617 Q 467.971 243.436, 468.862 244.713 Q 469.754 245.99, 471.561 245.99 " fill="#FF0000"/>
<path class="atom-16" d="M 108.985 339.462 L 111.299 339.462 L 111.299 346.716 L 120.022 346.716 L 120.022 339.462 L 122.336 339.462 L 122.336 356.524 L 120.022 356.524 L 120.022 348.644 L 111.299 348.644 L 111.299 356.524 L 108.985 356.524 L 108.985 339.462 " fill="#000000"/>
<path class="atom-16" d="M 124.143 353.705 L 126.553 353.705 L 126.553 356.114 L 124.143 356.114 L 124.143 353.705 M 124.143 345.415 L 126.553 345.415 L 126.553 347.825 L 124.143 347.825 L 124.143 345.415 " fill="#000000"/>
<path class="atom-16" d="M 128.794 354.596 L 132.529 354.596 L 132.529 341.848 L 128.408 343.125 L 127.854 341.704 L 133.083 339.366 L 134.794 339.655 L 134.794 354.596 L 138.144 354.596 L 138.144 356.524 L 128.794 356.524 L 128.794 354.596 " fill="#000000"/>
<path class="atom-16" d="M 147.518 341.39 L 138.578 341.39 L 138.578 339.462 L 149.904 339.462 L 149.904 341.173 L 143.012 356.524 L 140.699 356.524 L 147.518 341.39 " fill="#000000"/>
<path class="atom-17" d="M 250.182 382.356 L 252.496 382.356 L 252.496 389.609 L 261.219 389.609 L 261.219 382.356 L 263.533 382.356 L 263.533 399.417 L 261.219 399.417 L 261.219 391.537 L 252.496 391.537 L 252.496 399.417 L 250.182 399.417 L 250.182 382.356 " fill="#000000"/>
<path class="atom-17" d="M 265.34 396.598 L 267.75 396.598 L 267.75 399.008 L 265.34 399.008 L 265.34 396.598 M 265.34 388.308 L 267.75 388.308 L 267.75 390.718 L 265.34 390.718 L 265.34 388.308 " fill="#000000"/>
<path class="atom-17" d="M 269.991 397.49 L 273.726 397.49 L 273.726 384.742 L 269.606 386.019 L 269.051 384.597 L 274.281 382.259 L 275.992 382.549 L 275.992 397.49 L 279.341 397.49 L 279.341 399.417 L 269.991 399.417 L 269.991 397.49 " fill="#000000"/>
<path class="atom-17" d="M 289.535 390.381 Q 291.101 391.055, 291.993 392.067 Q 292.885 393.055, 292.885 394.742 Q 292.885 396.188, 292.138 397.321 Q 291.39 398.429, 290.041 399.056 Q 288.716 399.658, 286.956 399.658 Q 284.113 399.658, 282.474 398.357 Q 280.835 397.032, 280.835 394.742 Q 280.835 393.345, 281.558 392.308 Q 282.281 391.248, 283.775 390.453 Q 282.667 389.826, 282.064 388.911 Q 281.462 387.971, 281.462 386.525 Q 281.462 384.525, 282.908 383.344 Q 284.378 382.163, 286.86 382.163 Q 289.342 382.163, 290.788 383.344 Q 292.258 384.525, 292.258 386.525 Q 292.258 387.778, 291.559 388.718 Q 290.884 389.634, 289.535 390.381 M 286.86 383.97 Q 285.438 383.97, 284.643 384.645 Q 283.872 385.32, 283.872 386.525 Q 283.872 387.416, 284.402 388.019 Q 284.932 388.597, 285.679 388.935 Q 286.45 389.272, 287.92 389.778 Q 288.957 389.055, 289.39 388.284 Q 289.848 387.513, 289.848 386.525 Q 289.848 385.32, 289.053 384.645 Q 288.282 383.97, 286.86 383.97 M 286.956 397.851 Q 288.547 397.851, 289.511 397.008 Q 290.475 396.14, 290.475 394.718 Q 290.475 393.803, 289.969 393.224 Q 289.463 392.646, 288.691 392.308 Q 287.944 391.971, 286.595 391.537 L 285.51 391.176 Q 284.306 391.899, 283.775 392.766 Q 283.245 393.61, 283.245 394.718 Q 283.245 396.14, 284.257 397.008 Q 285.27 397.851, 286.956 397.851 " fill="#000000"/>
<path class="atom-18" d="M 22.7273 139.661 L 25.0407 139.661 L 25.0407 146.914 L 33.7643 146.914 L 33.7643 139.661 L 36.0777 139.661 L 36.0777 156.722 L 33.7643 156.722 L 33.7643 148.842 L 25.0407 148.842 L 25.0407 156.722 L 22.7273 156.722 L 22.7273 139.661 " fill="#000000"/>
<path class="atom-18" d="M 37.8851 153.903 L 40.2949 153.903 L 40.2949 156.313 L 37.8851 156.313 L 37.8851 153.903 M 37.8851 145.613 L 40.2949 145.613 L 40.2949 148.023 L 37.8851 148.023 L 37.8851 145.613 " fill="#000000"/>
<path class="atom-18" d="M 42.5361 154.795 L 46.2713 154.795 L 46.2713 142.047 L 42.1505 143.324 L 41.5963 141.902 L 46.8256 139.564 L 48.5366 139.854 L 48.5366 154.795 L 51.8862 154.795 L 51.8862 156.722 L 42.5361 156.722 L 42.5361 154.795 " fill="#000000"/>
<path class="atom-18" d="M 58.947 139.468 Q 61.9834 139.468, 63.5016 141.54 Q 65.0439 143.589, 65.0439 147.686 Q 65.0439 152.216, 63.1401 154.578 Q 61.2605 156.915, 57.6216 156.915 Q 56.5613 156.915, 55.6456 156.674 Q 54.7539 156.433, 53.8864 155.927 L 54.8262 154.313 Q 56.0793 154.987, 57.5975 154.987 Q 60.0074 154.987, 61.2364 153.445 Q 62.4654 151.879, 62.61 148.674 Q 61.7424 149.469, 60.6339 149.903 Q 59.5495 150.312, 58.3687 150.312 Q 56.8746 150.312, 55.6938 149.662 Q 54.5129 149.011, 53.8623 147.83 Q 53.2116 146.649, 53.2116 145.155 Q 53.2116 143.492, 53.9346 142.215 Q 54.6816 140.914, 55.9829 140.191 Q 57.2843 139.468, 58.947 139.468 M 55.6215 145.131 Q 55.6215 146.649, 56.4649 147.517 Q 57.3084 148.384, 58.8024 148.384 Q 59.8387 148.384, 60.8508 147.975 Q 61.887 147.541, 62.61 146.818 Q 62.5136 143.998, 61.622 142.721 Q 60.7303 141.444, 58.9229 141.444 Q 58.0072 141.444, 57.2361 141.926 Q 56.489 142.408, 56.0552 143.251 Q 55.6215 144.095, 55.6215 145.131 " fill="#000000"/>
<path class="atom-19" d="M 396.711 116.551 L 399.024 116.551 L 399.024 123.805 L 407.748 123.805 L 407.748 116.551 L 410.061 116.551 L 410.061 133.613 L 407.748 133.613 L 407.748 125.733 L 399.024 125.733 L 399.024 133.613 L 396.711 133.613 L 396.711 116.551 " fill="#000000"/>
<path class="atom-19" d="M 411.868 130.793 L 414.278 130.793 L 414.278 133.203 L 411.868 133.203 L 411.868 130.793 M 411.868 122.503 L 414.278 122.503 L 414.278 124.913 L 411.868 124.913 L 411.868 122.503 " fill="#000000"/>
<path class="atom-19" d="M 415.531 119.78 Q 416.158 118.166, 417.652 117.274 Q 419.146 116.358, 421.219 116.358 Q 423.797 116.358, 425.243 117.756 Q 426.689 119.154, 426.689 121.636 Q 426.689 124.166, 424.809 126.528 Q 422.954 128.89, 419.098 131.685 L 426.978 131.685 L 426.978 133.613 L 415.483 133.613 L 415.483 131.998 Q 418.664 129.733, 420.544 128.046 Q 422.448 126.359, 423.363 124.841 Q 424.279 123.323, 424.279 121.756 Q 424.279 120.118, 423.46 119.202 Q 422.64 118.286, 421.219 118.286 Q 419.845 118.286, 418.929 118.841 Q 418.014 119.395, 417.363 120.624 L 415.531 119.78 " fill="#000000"/>
<path class="atom-19" d="M 434.69 133.806 Q 431.557 133.806, 429.99 131.492 Q 428.448 129.179, 428.448 125.058 Q 428.448 120.937, 429.99 118.648 Q 431.533 116.358, 434.69 116.358 Q 437.846 116.358, 439.389 118.648 Q 440.931 120.937, 440.931 125.058 Q 440.931 129.179, 439.365 131.492 Q 437.822 133.806, 434.69 133.806 M 434.69 131.878 Q 436.545 131.878, 437.533 130.167 Q 438.521 128.432, 438.521 125.058 Q 438.521 121.708, 437.533 119.997 Q 436.545 118.286, 434.69 118.286 Q 432.858 118.286, 431.846 119.997 Q 430.858 121.708, 430.858 125.058 Q 430.858 128.432, 431.846 130.167 Q 432.858 131.878, 434.69 131.878 " fill="#000000"/>
<path class="atom-20" d="M 263.56 100.534 L 265.873 100.534 L 265.873 107.788 L 274.597 107.788 L 274.597 100.534 L 276.91 100.534 L 276.91 117.596 L 274.597 117.596 L 274.597 109.716 L 265.873 109.716 L 265.873 117.596 L 263.56 117.596 L 263.56 100.534 " fill="#000000"/>
<path class="atom-20" d="M 278.718 114.776 L 281.128 114.776 L 281.128 117.186 L 278.718 117.186 L 278.718 114.776 M 278.718 106.487 L 281.128 106.487 L 281.128 108.896 L 278.718 108.896 L 278.718 106.487 " fill="#000000"/>
<path class="atom-20" d="M 282.381 103.764 Q 283.007 102.149, 284.501 101.257 Q 285.995 100.342, 288.068 100.342 Q 290.646 100.342, 292.092 101.739 Q 293.538 103.137, 293.538 105.619 Q 293.538 108.149, 291.658 110.511 Q 289.803 112.873, 285.947 115.668 L 293.827 115.668 L 293.827 117.596 L 282.332 117.596 L 282.332 115.981 Q 285.513 113.716, 287.393 112.029 Q 289.297 110.342, 290.213 108.824 Q 291.128 107.306, 291.128 105.74 Q 291.128 104.101, 290.309 103.185 Q 289.49 102.269, 288.068 102.269 Q 286.694 102.269, 285.778 102.824 Q 284.863 103.378, 284.212 104.607 L 282.381 103.764 " fill="#000000"/>
<path class="atom-20" d="M 296.068 115.668 L 299.804 115.668 L 299.804 102.92 L 295.683 104.197 L 295.129 102.775 L 300.358 100.438 L 302.069 100.727 L 302.069 115.668 L 305.419 115.668 L 305.419 117.596 L 296.068 117.596 L 296.068 115.668 " fill="#000000"/>
<text x="153.19187319234527" y="239.70486248489556" font-size="12" font-family="Verdana" font-weight="bold" letter-spacing="0" text-anchor="start" fill="black" transform=" rotate(-69.170579 153.191873 239.704862)">0.0222</text><text x="25" y="490" font-size="12" font-family="Verdana" font-weight="bold" letter-spacing="0" text-anchor="start" fill="black">[#8:1]=[#6:2](-[#6:3]1:[#6:4](:[#6:5]2-[#6:7](-[#6:8](-[#7:6](-[#6:9]:2:[#6:12](:[#6:11]:1-[H:17])-[H:18])-[H:14])=[#8:16])=[#6:15](-[H:20])-[H:21])-[H:10])-[#8:13]-[H:19]</text></svg>
