<?xml version='1.0' encoding='ASCII' standalone='yes'?>
<svg xmlns="http://www.w3.org/2000/svg" xmlns:rdkit="http://www.rdkit.org/xml" xmlns:xlink="http://www.w3.org/1999/xlink" version="1.1" baseProfile="full" xml:space="preserve" width="500px" height="500px" viewBox="0 0 500 500">
<!-- END OF HEADER -->
<rect style="opacity:1.0;fill:#FFFFFF;stroke:none" width="500" height="500" x="0" y="0"> </rect>
<path d="M 179.271,268.535 L 231.139,274.775" style="fill:none;fill-rule:evenodd;stroke:#FF7F7F;stroke-width:11.1px;stroke-linecap:butt;stroke-linejoin:miter;stroke-opacity:1"/>
<path class="bond-0 atom-0 atom-13" d="M 150.642,219.522 L 136.348,217.802" style="fill:none;fill-rule:evenodd;stroke:#FF0000;stroke-width:2.0px;stroke-linecap:butt;stroke-linejoin:miter;stroke-opacity:1"/>
<path class="bond-0 atom-0 atom-13" d="M 136.348,217.802 L 122.053,216.083" style="fill:none;fill-rule:evenodd;stroke:#000000;stroke-width:2.0px;stroke-linecap:butt;stroke-linejoin:miter;stroke-opacity:1"/>
<path class="bond-1 atom-1 atom-0" d="M 176.591,262.264 L 169.556,245.803" style="fill:none;fill-rule:evenodd;stroke:#000000;stroke-width:2.0px;stroke-linecap:butt;stroke-linejoin:miter;stroke-opacity:1"/>
<path class="bond-1 atom-1 atom-0" d="M 169.556,245.803 L 162.521,229.343" style="fill:none;fill-rule:evenodd;stroke:#FF0000;stroke-width:2.0px;stroke-linecap:butt;stroke-linejoin:miter;stroke-opacity:1"/>
<path class="bond-2 atom-1 atom-12" d="M 168.362,274.377 L 159.057,286.788" style="fill:none;fill-rule:evenodd;stroke:#000000;stroke-width:2.0px;stroke-linecap:butt;stroke-linejoin:miter;stroke-opacity:1"/>
<path class="bond-2 atom-1 atom-12" d="M 159.057,286.788 L 149.752,299.199" style="fill:none;fill-rule:evenodd;stroke:#FF0000;stroke-width:2.0px;stroke-linecap:butt;stroke-linejoin:miter;stroke-opacity:1"/>
<path class="bond-2 atom-1 atom-12" d="M 176.722,280.644 L 167.417,293.056" style="fill:none;fill-rule:evenodd;stroke:#000000;stroke-width:2.0px;stroke-linecap:butt;stroke-linejoin:miter;stroke-opacity:1"/>
<path class="bond-2 atom-1 atom-12" d="M 167.417,293.056 L 158.112,305.467" style="fill:none;fill-rule:evenodd;stroke:#FF0000;stroke-width:2.0px;stroke-linecap:butt;stroke-linejoin:miter;stroke-opacity:1"/>
<path class="bond-4 atom-2 atom-1" d="M 212.412,272.522 L 188.699,269.669" style="fill:none;fill-rule:evenodd;stroke:#000000;stroke-width:2.0px;stroke-linecap:butt;stroke-linejoin:miter;stroke-opacity:1"/>
<path class="bond-3 atom-2 atom-10" d="M 234.984,283.771 L 248.055,314.355" style="fill:none;fill-rule:evenodd;stroke:#000000;stroke-width:2.0px;stroke-linecap:butt;stroke-linejoin:miter;stroke-opacity:1"/>
<path class="bond-3 atom-2 atom-10" d="M 246.553,284.252 L 255.702,305.661" style="fill:none;fill-rule:evenodd;stroke:#000000;stroke-width:2.0px;stroke-linecap:butt;stroke-linejoin:miter;stroke-opacity:1"/>
<path class="bond-5 atom-3 atom-2" d="M 255.748,241.95 L 237.517,266.268" style="fill:none;fill-rule:evenodd;stroke:#000000;stroke-width:2.0px;stroke-linecap:butt;stroke-linejoin:miter;stroke-opacity:1"/>
<path class="bond-6 atom-3 atom-9" d="M 258.926,224.666 L 245.677,193.664" style="fill:none;fill-rule:evenodd;stroke:#000000;stroke-width:2.0px;stroke-linecap:butt;stroke-linejoin:miter;stroke-opacity:1"/>
<path class="bond-8 atom-4 atom-3" d="M 292.007,236.527 L 272.365,234.164" style="fill:none;fill-rule:evenodd;stroke:#000000;stroke-width:2.0px;stroke-linecap:butt;stroke-linejoin:miter;stroke-opacity:1"/>
<path class="bond-8 atom-4 atom-3" d="M 287.813,246.546 L 274.063,244.892" style="fill:none;fill-rule:evenodd;stroke:#000000;stroke-width:2.0px;stroke-linecap:butt;stroke-linejoin:miter;stroke-opacity:1"/>
<path class="bond-7 atom-4 atom-8" d="M 318.173,248.168 L 332.388,281.43" style="fill:none;fill-rule:evenodd;stroke:#000000;stroke-width:2.0px;stroke-linecap:butt;stroke-linejoin:miter;stroke-opacity:1"/>
<path class="bond-12 atom-6 atom-4" d="M 343.416,213.818 L 320.316,233.999" style="fill:none;fill-rule:evenodd;stroke:#000000;stroke-width:2.0px;stroke-linecap:butt;stroke-linejoin:miter;stroke-opacity:1"/>
<path class="bond-9 atom-5 atom-7" d="M 388.877,273.952 L 392.707,257.173" style="fill:none;fill-rule:evenodd;stroke:#0000FF;stroke-width:2.0px;stroke-linecap:butt;stroke-linejoin:miter;stroke-opacity:1"/>
<path class="bond-9 atom-5 atom-7" d="M 392.707,257.173 L 396.537,240.394" style="fill:none;fill-rule:evenodd;stroke:#000000;stroke-width:2.0px;stroke-linecap:butt;stroke-linejoin:miter;stroke-opacity:1"/>
<path class="bond-10 atom-5 atom-8" d="M 379.992,283.194 L 362.418,284.775" style="fill:none;fill-rule:evenodd;stroke:#0000FF;stroke-width:2.0px;stroke-linecap:butt;stroke-linejoin:miter;stroke-opacity:1"/>
<path class="bond-10 atom-5 atom-8" d="M 362.418,284.775 L 344.843,286.357" style="fill:none;fill-rule:evenodd;stroke:#000000;stroke-width:2.0px;stroke-linecap:butt;stroke-linejoin:miter;stroke-opacity:1"/>
<path class="bond-11 atom-5 atom-14" d="M 394.275,291.004 L 404.37,302.56" style="fill:none;fill-rule:evenodd;stroke:#0000FF;stroke-width:2.0px;stroke-linecap:butt;stroke-linejoin:miter;stroke-opacity:1"/>
<path class="bond-11 atom-5 atom-14" d="M 404.37,302.56 L 414.465,314.115" style="fill:none;fill-rule:evenodd;stroke:#000000;stroke-width:2.0px;stroke-linecap:butt;stroke-linejoin:miter;stroke-opacity:1"/>
<path class="bond-13 atom-6 atom-15" d="M 352.914,196.223 L 349.779,161.382" style="fill:none;fill-rule:evenodd;stroke:#000000;stroke-width:2.0px;stroke-linecap:butt;stroke-linejoin:miter;stroke-opacity:1"/>
<path class="bond-13 atom-6 atom-15" d="M 342.037,191.933 L 339.843,167.544" style="fill:none;fill-rule:evenodd;stroke:#000000;stroke-width:2.0px;stroke-linecap:butt;stroke-linejoin:miter;stroke-opacity:1"/>
<path class="bond-14 atom-6 atom-7" d="M 363.058,210.441 L 391.798,227.614" style="fill:none;fill-rule:evenodd;stroke:#000000;stroke-width:2.0px;stroke-linecap:butt;stroke-linejoin:miter;stroke-opacity:1"/>
<path class="bond-15 atom-7 atom-16" d="M 421.15,227.657 L 431.12,223.396" style="fill:none;fill-rule:evenodd;stroke:#000000;stroke-width:2.0px;stroke-linecap:butt;stroke-linejoin:miter;stroke-opacity:1"/>
<path class="bond-15 atom-7 atom-16" d="M 431.12,223.396 L 441.09,219.135" style="fill:none;fill-rule:evenodd;stroke:#FF0000;stroke-width:2.0px;stroke-linecap:butt;stroke-linejoin:miter;stroke-opacity:1"/>
<path class="bond-15 atom-7 atom-16" d="M 417.043,218.049 L 427.013,213.788" style="fill:none;fill-rule:evenodd;stroke:#000000;stroke-width:2.0px;stroke-linecap:butt;stroke-linejoin:miter;stroke-opacity:1"/>
<path class="bond-15 atom-7 atom-16" d="M 427.013,213.788 L 436.983,209.527" style="fill:none;fill-rule:evenodd;stroke:#FF0000;stroke-width:2.0px;stroke-linecap:butt;stroke-linejoin:miter;stroke-opacity:1"/>
<path class="bond-16 atom-8 atom-11" d="M 328.148,296.228 L 309.916,320.546" style="fill:none;fill-rule:evenodd;stroke:#000000;stroke-width:2.0px;stroke-linecap:butt;stroke-linejoin:miter;stroke-opacity:1"/>
<path class="bond-16 atom-8 atom-11" d="M 317.053,293.609 L 304.291,310.631" style="fill:none;fill-rule:evenodd;stroke:#000000;stroke-width:2.0px;stroke-linecap:butt;stroke-linejoin:miter;stroke-opacity:1"/>
<path class="bond-17 atom-10 atom-17" d="M 245.082,331.601 L 226.588,356.269" style="fill:none;fill-rule:evenodd;stroke:#000000;stroke-width:2.0px;stroke-linecap:butt;stroke-linejoin:miter;stroke-opacity:1"/>
<path class="bond-18 atom-11 atom-10" d="M 279.607,326.174 L 265.288,324.452" style="fill:none;fill-rule:evenodd;stroke:#000000;stroke-width:2.0px;stroke-linecap:butt;stroke-linejoin:miter;stroke-opacity:1"/>
<path class="bond-19 atom-11 atom-18" d="M 307.294,337.84 L 320.488,368.711" style="fill:none;fill-rule:evenodd;stroke:#000000;stroke-width:2.0px;stroke-linecap:butt;stroke-linejoin:miter;stroke-opacity:1"/>
<path class="bond-20 atom-13 atom-19" d="M 107.918,205.553 L 112.08,170.956" style="fill:none;fill-rule:evenodd;stroke:#000000;stroke-width:2.0px;stroke-linecap:butt;stroke-linejoin:miter;stroke-opacity:1"/>
<path class="bond-21 atom-13 atom-20" d="M 105.814,223.044 L 101.642,257.727" style="fill:none;fill-rule:evenodd;stroke:#000000;stroke-width:2.0px;stroke-linecap:butt;stroke-linejoin:miter;stroke-opacity:1"/>
<path class="bond-22 atom-13 atom-21" d="M 82.5106,211.326 L 60.6793,208.7" style="fill:none;fill-rule:evenodd;stroke:#000000;stroke-width:2.0px;stroke-linecap:butt;stroke-linejoin:miter;stroke-opacity:1"/>
<path class="bond-23 atom-15 atom-22" d="M 361.492,144.024 L 385.016,127.466" style="fill:none;fill-rule:evenodd;stroke:#000000;stroke-width:2.0px;stroke-linecap:butt;stroke-linejoin:miter;stroke-opacity:1"/>
<path class="bond-24 atom-15 atom-23" d="M 330.042,144.024 L 308.084,133.85" style="fill:none;fill-rule:evenodd;stroke:#000000;stroke-width:2.0px;stroke-linecap:butt;stroke-linejoin:miter;stroke-opacity:1"/>
<path class="atom-0" d="M 151.948 220.538 Q 151.948 216.985, 153.704 215 Q 155.459 213.015, 158.74 213.015 Q 162.021 213.015, 163.776 215 Q 165.531 216.985, 165.531 220.538 Q 165.531 224.132, 163.755 226.18 Q 161.979 228.207, 158.74 228.207 Q 155.48 228.207, 153.704 226.18 Q 151.948 224.153, 151.948 220.538 M 158.74 226.535 Q 160.997 226.535, 162.209 225.031 Q 163.442 223.505, 163.442 220.538 Q 163.442 217.633, 162.209 216.17 Q 160.997 214.687, 158.74 214.687 Q 156.483 214.687, 155.25 216.149 Q 154.038 217.612, 154.038 220.538 Q 154.038 223.526, 155.25 225.031 Q 156.483 226.535, 158.74 226.535 " fill="#FF0000"/>
<path class="atom-0" d="M 167.099 225.532 L 169.188 225.532 L 169.188 227.622 L 167.099 227.622 L 167.099 225.532 M 167.099 218.344 L 169.188 218.344 L 169.188 220.433 L 167.099 220.433 L 167.099 218.344 " fill="#FF0000"/>
<path class="atom-0" d="M 171.132 226.305 L 174.371 226.305 L 174.371 215.251 L 170.797 216.358 L 170.317 215.126 L 174.851 213.099 L 176.335 213.349 L 176.335 226.305 L 179.24 226.305 L 179.24 227.977 L 171.132 227.977 L 171.132 226.305 " fill="#FF0000"/>
<path class="atom-1" d="M 161.785 268.598 Q 161.785 264.92, 163.499 262.998 Q 165.233 261.054, 168.514 261.054 Q 171.565 261.054, 173.195 263.206 L 171.816 264.335 Q 170.625 262.768, 168.514 262.768 Q 166.278 262.768, 165.087 264.272 Q 163.917 265.756, 163.917 268.598 Q 163.917 271.524, 165.129 273.028 Q 166.362 274.533, 168.744 274.533 Q 170.374 274.533, 172.276 273.551 L 172.861 275.118 Q 172.087 275.619, 170.917 275.912 Q 169.747 276.204, 168.451 276.204 Q 165.233 276.204, 163.499 274.24 Q 161.785 272.276, 161.785 268.598 " fill="#000000"/>
<path class="atom-1" d="M 174.762 273.571 L 176.852 273.571 L 176.852 275.661 L 174.762 275.661 L 174.762 273.571 M 174.762 266.383 L 176.852 266.383 L 176.852 268.473 L 174.762 268.473 L 174.762 266.383 " fill="#000000"/>
<path class="atom-1" d="M 177.939 264.021 Q 178.482 262.621, 179.778 261.848 Q 181.073 261.054, 182.87 261.054 Q 185.106 261.054, 186.36 262.266 Q 187.614 263.478, 187.614 265.631 Q 187.614 267.825, 185.984 269.873 Q 184.375 271.921, 181.031 274.345 L 187.865 274.345 L 187.865 276.016 L 177.897 276.016 L 177.897 274.616 Q 180.655 272.652, 182.285 271.189 Q 183.936 269.726, 184.73 268.41 Q 185.524 267.093, 185.524 265.735 Q 185.524 264.314, 184.814 263.52 Q 184.103 262.726, 182.87 262.726 Q 181.679 262.726, 180.885 263.206 Q 180.091 263.687, 179.527 264.753 L 177.939 264.021 " fill="#000000"/>
<path class="atom-2" d="M 213.718 274.837 Q 213.718 271.159, 215.432 269.237 Q 217.166 267.293, 220.447 267.293 Q 223.498 267.293, 225.128 269.446 L 223.749 270.574 Q 222.558 269.007, 220.447 269.007 Q 218.211 269.007, 217.02 270.512 Q 215.85 271.995, 215.85 274.837 Q 215.85 277.763, 217.062 279.267 Q 218.295 280.772, 220.677 280.772 Q 222.307 280.772, 224.209 279.79 L 224.794 281.357 Q 224.02 281.859, 222.85 282.151 Q 221.68 282.444, 220.384 282.444 Q 217.166 282.444, 215.432 280.479 Q 213.718 278.515, 213.718 274.837 " fill="#000000"/>
<path class="atom-2" d="M 226.695 279.811 L 228.785 279.811 L 228.785 281.9 L 226.695 281.9 L 226.695 279.811 M 226.695 272.622 L 228.785 272.622 L 228.785 274.712 L 226.695 274.712 L 226.695 272.622 " fill="#000000"/>
<path class="atom-2" d="M 236.768 274.461 Q 238.21 274.879, 238.899 275.819 Q 239.61 276.739, 239.61 278.202 Q 239.61 279.455, 238.983 280.438 Q 238.356 281.399, 237.206 281.942 Q 236.057 282.465, 234.553 282.465 Q 232.964 282.465, 231.773 281.921 Q 230.603 281.357, 229.663 280.229 L 230.854 279.017 Q 231.773 280.02, 232.546 280.417 Q 233.32 280.793, 234.553 280.793 Q 235.89 280.793, 236.705 280.082 Q 237.52 279.351, 237.52 278.181 Q 237.52 276.676, 236.663 276.007 Q 235.827 275.318, 234.009 275.318 L 232.943 275.318 L 232.943 273.813 L 233.884 273.813 Q 235.493 273.792, 236.35 273.103 Q 237.206 272.392, 237.206 271.076 Q 237.206 270.115, 236.496 269.55 Q 235.785 268.965, 234.573 268.965 Q 233.341 268.965, 232.567 269.404 Q 231.815 269.843, 231.23 270.95 L 229.788 270.177 Q 230.31 268.944, 231.564 268.129 Q 232.818 267.293, 234.573 267.293 Q 236.747 267.293, 238.021 268.317 Q 239.296 269.341, 239.296 271.076 Q 239.296 272.267, 238.648 273.124 Q 238.001 273.98, 236.768 274.461 " fill="#000000"/>
<path class="atom-3" d="M 244.539 233.037 Q 244.539 229.36, 246.252 227.437 Q 247.987 225.494, 251.268 225.494 Q 254.319 225.494, 255.949 227.646 L 254.569 228.774 Q 253.378 227.207, 251.268 227.207 Q 249.032 227.207, 247.84 228.712 Q 246.67 230.195, 246.67 233.037 Q 246.67 235.963, 247.882 237.468 Q 249.115 238.972, 251.497 238.972 Q 253.127 238.972, 255.029 237.99 L 255.614 239.557 Q 254.841 240.059, 253.671 240.351 Q 252.501 240.644, 251.205 240.644 Q 247.987 240.644, 246.252 238.68 Q 244.539 236.715, 244.539 233.037 " fill="#000000"/>
<path class="atom-3" d="M 257.516 238.011 L 259.605 238.011 L 259.605 240.101 L 257.516 240.101 L 257.516 238.011 M 257.516 230.822 L 259.605 230.822 L 259.605 232.912 L 257.516 232.912 L 257.516 230.822 " fill="#000000"/>
<path class="atom-3" d="M 269.845 235.378 L 271.621 235.378 L 271.621 237.05 L 269.845 237.05 L 269.845 240.456 L 267.881 240.456 L 267.881 237.05 L 260.232 237.05 L 260.232 235.733 L 266.71 225.661 L 269.845 225.661 L 269.845 235.378 M 262.656 235.378 L 267.881 235.378 L 267.881 226.998 L 262.656 235.378 " fill="#000000"/>
<path class="atom-4" d="M 293.313 239.277 Q 293.313 235.599, 295.026 233.676 Q 296.761 231.733, 300.042 231.733 Q 303.093 231.733, 304.723 233.885 L 303.343 235.014 Q 302.152 233.446, 300.042 233.446 Q 297.806 233.446, 296.615 234.951 Q 295.444 236.435, 295.444 239.277 Q 295.444 242.202, 296.656 243.707 Q 297.889 245.211, 300.272 245.211 Q 301.902 245.211, 303.803 244.229 L 304.388 245.797 Q 303.615 246.298, 302.445 246.591 Q 301.275 246.883, 299.979 246.883 Q 296.761 246.883, 295.026 244.919 Q 293.313 242.955, 293.313 239.277 " fill="#000000"/>
<path class="atom-4" d="M 306.29 244.25 L 308.38 244.25 L 308.38 246.34 L 306.29 246.34 L 306.29 244.25 M 306.29 237.062 L 308.38 237.062 L 308.38 239.151 L 306.29 239.151 L 306.29 237.062 " fill="#000000"/>
<path class="atom-4" d="M 314.711 237.438 Q 316.007 237.438, 317.073 238.002 Q 318.138 238.545, 318.745 239.59 Q 319.351 240.614, 319.351 242.014 Q 319.351 243.54, 318.598 244.647 Q 317.867 245.734, 316.655 246.298 Q 315.443 246.862, 314.064 246.862 Q 312.705 246.862, 311.451 246.361 Q 310.198 245.859, 309.341 244.898 L 310.595 243.602 Q 311.284 244.355, 312.225 244.773 Q 313.165 245.17, 314.126 245.17 Q 315.443 245.17, 316.341 244.355 Q 317.261 243.54, 317.261 242.056 Q 317.261 240.489, 316.341 239.757 Q 315.443 239.005, 314.001 239.005 Q 312.705 239.005, 311.263 239.569 L 310.114 239.026 L 310.825 231.9 L 318.431 231.9 L 318.222 233.572 L 312.538 233.572 L 312.099 237.96 Q 313.416 237.438, 314.711 237.438 " fill="#000000"/>
<path class="atom-5" d="M 383.639 275.258 L 388.487 283.095 Q 388.967 283.868, 389.74 285.268 Q 390.514 286.668, 390.555 286.752 L 390.555 275.258 L 392.52 275.258 L 392.52 290.053 L 390.493 290.053 L 385.289 281.485 Q 384.683 280.482, 384.036 279.333 Q 383.409 278.184, 383.221 277.828 L 383.221 290.053 L 381.298 290.053 L 381.298 275.258 L 383.639 275.258 " fill="#0000FF"/>
<path class="atom-5" d="M 394.087 287.608 L 396.177 287.608 L 396.177 289.698 L 394.087 289.698 L 394.087 287.608 M 394.087 280.42 L 396.177 280.42 L 396.177 282.509 L 394.087 282.509 L 394.087 280.42 " fill="#0000FF"/>
<path class="atom-5" d="M 403.386 280.817 Q 404.682 280.817, 405.706 281.381 Q 406.73 281.945, 407.294 282.969 Q 407.858 283.993, 407.858 285.289 Q 407.858 286.731, 407.21 287.859 Q 406.583 288.967, 405.455 289.594 Q 404.327 290.22, 402.885 290.22 Q 400.252 290.22, 398.914 288.444 Q 397.598 286.647, 397.598 283.095 Q 397.598 279.166, 399.228 277.139 Q 400.879 275.091, 404.034 275.091 Q 404.954 275.091, 405.727 275.3 Q 406.521 275.509, 407.273 275.948 L 406.458 277.348 Q 405.371 276.763, 404.055 276.763 Q 401.965 276.763, 400.899 278.121 Q 399.834 279.458, 399.708 282.238 Q 400.461 281.548, 401.401 281.193 Q 402.362 280.817, 403.386 280.817 M 402.906 288.507 Q 403.7 288.507, 404.347 288.089 Q 405.016 287.671, 405.392 286.94 Q 405.768 286.208, 405.768 285.31 Q 405.768 283.993, 405.037 283.241 Q 404.306 282.489, 403.01 282.489 Q 402.112 282.489, 401.213 282.865 Q 400.335 283.22, 399.708 283.847 Q 399.792 286.292, 400.565 287.399 Q 401.338 288.507, 402.906 288.507 " fill="#0000FF"/>
<path class="atom-6" d="M 336.488 204.906 Q 336.488 201.228, 338.201 199.305 Q 339.936 197.362, 343.216 197.362 Q 346.267 197.362, 347.897 199.514 L 346.518 200.643 Q 345.327 199.076, 343.216 199.076 Q 340.98 199.076, 339.789 200.58 Q 338.619 202.064, 338.619 204.906 Q 338.619 207.831, 339.831 209.336 Q 341.064 210.841, 343.446 210.841 Q 345.076 210.841, 346.978 209.858 L 347.563 211.426 Q 346.79 211.927, 345.62 212.22 Q 344.449 212.512, 343.154 212.512 Q 339.936 212.512, 338.201 210.548 Q 336.488 208.584, 336.488 204.906 " fill="#000000"/>
<path class="atom-6" d="M 349.465 209.879 L 351.554 209.879 L 351.554 211.969 L 349.465 211.969 L 349.465 209.879 M 349.465 202.691 L 351.554 202.691 L 351.554 204.78 L 349.465 204.78 L 349.465 202.691 " fill="#000000"/>
<path class="atom-6" d="M 359.683 199.201 L 351.93 199.201 L 351.93 197.529 L 361.752 197.529 L 361.752 199.013 L 355.775 212.324 L 353.769 212.324 L 359.683 199.201 " fill="#000000"/>
<path class="atom-7" d="M 392.831 231.703 Q 392.831 228.025, 394.545 226.102 Q 396.279 224.159, 399.56 224.159 Q 402.611 224.159, 404.241 226.311 L 402.862 227.44 Q 401.67 225.872, 399.56 225.872 Q 397.324 225.872, 396.133 227.377 Q 394.962 228.861, 394.962 231.703 Q 394.962 234.628, 396.174 236.133 Q 397.407 237.637, 399.79 237.637 Q 401.42 237.637, 403.321 236.655 L 403.906 238.222 Q 403.133 238.724, 401.963 239.016 Q 400.793 239.309, 399.497 239.309 Q 396.279 239.309, 394.545 237.345 Q 392.831 235.38, 392.831 231.703 " fill="#000000"/>
<path class="atom-7" d="M 405.808 236.676 L 407.898 236.676 L 407.898 238.766 L 405.808 238.766 L 405.808 236.676 M 405.808 229.487 L 407.898 229.487 L 407.898 231.577 L 405.808 231.577 L 405.808 229.487 " fill="#000000"/>
<path class="atom-7" d="M 416.737 231.285 Q 418.095 231.87, 418.869 232.747 Q 419.642 233.604, 419.642 235.067 Q 419.642 236.321, 418.994 237.303 Q 418.346 238.264, 417.176 238.808 Q 416.027 239.33, 414.501 239.33 Q 412.035 239.33, 410.614 238.202 Q 409.193 237.052, 409.193 235.067 Q 409.193 233.855, 409.82 232.956 Q 410.447 232.037, 411.743 231.347 Q 410.781 230.804, 410.259 230.01 Q 409.737 229.195, 409.737 227.941 Q 409.737 226.207, 410.99 225.183 Q 412.265 224.159, 414.418 224.159 Q 416.57 224.159, 417.824 225.183 Q 419.098 226.207, 419.098 227.941 Q 419.098 229.028, 418.492 229.843 Q 417.907 230.637, 416.737 231.285 M 414.418 225.726 Q 413.185 225.726, 412.495 226.311 Q 411.826 226.896, 411.826 227.941 Q 411.826 228.714, 412.286 229.237 Q 412.746 229.738, 413.394 230.031 Q 414.062 230.323, 415.337 230.762 Q 416.236 230.135, 416.612 229.467 Q 417.009 228.798, 417.009 227.941 Q 417.009 226.896, 416.319 226.311 Q 415.65 225.726, 414.418 225.726 M 414.501 237.763 Q 415.88 237.763, 416.716 237.031 Q 417.552 236.279, 417.552 235.046 Q 417.552 234.252, 417.113 233.75 Q 416.674 233.249, 416.006 232.956 Q 415.358 232.664, 414.188 232.288 L 413.247 231.974 Q 412.202 232.601, 411.743 233.353 Q 411.283 234.085, 411.283 235.046 Q 411.283 236.279, 412.161 237.031 Q 413.038 237.763, 414.501 237.763 " fill="#000000"/>
<path class="atom-8" d="M 317.234 287.316 Q 317.234 283.638, 318.948 281.716 Q 320.682 279.772, 323.963 279.772 Q 327.014 279.772, 328.644 281.924 L 327.265 283.053 Q 326.074 281.486, 323.963 281.486 Q 321.727 281.486, 320.536 282.99 Q 319.366 284.474, 319.366 287.316 Q 319.366 290.241, 320.578 291.746 Q 321.811 293.251, 324.193 293.251 Q 325.823 293.251, 327.725 292.268 L 328.31 293.836 Q 327.536 294.337, 326.366 294.63 Q 325.196 294.922, 323.9 294.922 Q 320.682 294.922, 318.948 292.958 Q 317.234 290.994, 317.234 287.316 " fill="#000000"/>
<path class="atom-8" d="M 330.211 292.289 L 332.301 292.289 L 332.301 294.379 L 330.211 294.379 L 330.211 292.289 M 330.211 285.101 L 332.301 285.101 L 332.301 287.191 L 330.211 287.191 L 330.211 285.101 " fill="#000000"/>
<path class="atom-8" d="M 338.424 279.772 Q 341.057 279.772, 342.373 281.569 Q 343.711 283.345, 343.711 286.898 Q 343.711 290.827, 342.06 292.875 Q 340.43 294.902, 337.274 294.902 Q 336.355 294.902, 335.561 294.693 Q 334.788 294.484, 334.035 294.045 L 334.85 292.645 Q 335.937 293.23, 337.254 293.23 Q 339.343 293.23, 340.409 291.892 Q 341.475 290.534, 341.6 287.755 Q 340.848 288.444, 339.887 288.82 Q 338.946 289.176, 337.922 289.176 Q 336.627 289.176, 335.603 288.612 Q 334.579 288.047, 334.015 287.023 Q 333.45 285.999, 333.45 284.704 Q 333.45 283.262, 334.077 282.154 Q 334.725 281.026, 335.854 280.399 Q 336.982 279.772, 338.424 279.772 M 335.54 284.683 Q 335.54 285.999, 336.271 286.752 Q 337.003 287.504, 338.298 287.504 Q 339.197 287.504, 340.075 287.149 Q 340.973 286.773, 341.6 286.146 Q 341.517 283.701, 340.743 282.593 Q 339.97 281.486, 338.403 281.486 Q 337.609 281.486, 336.94 281.904 Q 336.292 282.322, 335.916 283.053 Q 335.54 283.784, 335.54 284.683 " fill="#000000"/>
<path class="atom-9" d="M 209.974 177.622 L 211.98 177.622 L 211.98 183.912 L 219.545 183.912 L 219.545 177.622 L 221.551 177.622 L 221.551 192.417 L 219.545 192.417 L 219.545 185.583 L 211.98 185.583 L 211.98 192.417 L 209.974 192.417 L 209.974 177.622 " fill="#000000"/>
<path class="atom-9" d="M 223.118 189.972 L 225.208 189.972 L 225.208 192.061 L 223.118 192.061 L 223.118 189.972 M 223.118 182.783 L 225.208 182.783 L 225.208 184.873 L 223.118 184.873 L 223.118 182.783 " fill="#000000"/>
<path class="atom-9" d="M 227.151 190.745 L 230.39 190.745 L 230.39 179.69 L 226.817 180.798 L 226.336 179.565 L 230.871 177.538 L 232.354 177.789 L 232.354 190.745 L 235.259 190.745 L 235.259 192.417 L 227.151 192.417 L 227.151 190.745 " fill="#000000"/>
<path class="atom-9" d="M 241.946 192.584 Q 239.23 192.584, 237.871 190.578 Q 236.534 188.572, 236.534 184.998 Q 236.534 181.425, 237.871 179.44 Q 239.209 177.454, 241.946 177.454 Q 244.684 177.454, 246.021 179.44 Q 247.359 181.425, 247.359 184.998 Q 247.359 188.572, 246 190.578 Q 244.663 192.584, 241.946 192.584 M 241.946 190.912 Q 243.555 190.912, 244.412 189.428 Q 245.269 187.924, 245.269 184.998 Q 245.269 182.094, 244.412 180.61 Q 243.555 179.126, 241.946 179.126 Q 240.358 179.126, 239.48 180.61 Q 238.624 182.094, 238.624 184.998 Q 238.624 187.924, 239.48 189.428 Q 240.358 190.912, 241.946 190.912 " fill="#000000"/>
<path class="atom-10" d="M 229.415 322.876 Q 229.415 319.199, 231.128 317.276 Q 232.863 315.333, 236.144 315.333 Q 239.195 315.333, 240.825 317.485 L 239.446 318.613 Q 238.254 317.046, 236.144 317.046 Q 233.908 317.046, 232.717 318.551 Q 231.546 320.034, 231.546 322.876 Q 231.546 325.802, 232.758 327.307 Q 233.991 328.811, 236.374 328.811 Q 238.004 328.811, 239.905 327.829 L 240.49 329.396 Q 239.717 329.898, 238.547 330.19 Q 237.377 330.483, 236.081 330.483 Q 232.863 330.483, 231.128 328.519 Q 229.415 326.554, 229.415 322.876 " fill="#000000"/>
<path class="atom-10" d="M 242.392 327.85 L 244.482 327.85 L 244.482 329.94 L 242.392 329.94 L 242.392 327.85 M 242.392 320.661 L 244.482 320.661 L 244.482 322.751 L 242.392 322.751 L 242.392 320.661 " fill="#000000"/>
<path class="atom-10" d="M 246.425 328.623 L 249.664 328.623 L 249.664 317.569 L 246.091 318.676 L 245.61 317.443 L 250.145 315.416 L 251.628 315.667 L 251.628 328.623 L 254.533 328.623 L 254.533 330.295 L 246.425 330.295 L 246.425 328.623 " fill="#000000"/>
<path class="atom-10" d="M 256.477 328.623 L 259.716 328.623 L 259.716 317.569 L 256.142 318.676 L 255.662 317.443 L 260.196 315.416 L 261.68 315.667 L 261.68 328.623 L 264.585 328.623 L 264.585 330.295 L 256.477 330.295 L 256.477 328.623 " fill="#000000"/>
<path class="atom-11" d="M 280.913 329.116 Q 280.913 325.438, 282.626 323.515 Q 284.361 321.572, 287.641 321.572 Q 290.692 321.572, 292.322 323.724 L 290.943 324.853 Q 289.752 323.286, 287.641 323.286 Q 285.405 323.286, 284.214 324.79 Q 283.044 326.274, 283.044 329.116 Q 283.044 332.041, 284.256 333.546 Q 285.489 335.051, 287.871 335.051 Q 289.501 335.051, 291.403 334.068 L 291.988 335.636 Q 291.215 336.137, 290.045 336.43 Q 288.874 336.722, 287.579 336.722 Q 284.361 336.722, 282.626 334.758 Q 280.913 332.794, 280.913 329.116 " fill="#000000"/>
<path class="atom-11" d="M 293.89 334.089 L 295.979 334.089 L 295.979 336.179 L 293.89 336.179 L 293.89 334.089 M 293.89 326.901 L 295.979 326.901 L 295.979 328.99 L 293.89 328.99 L 293.89 326.901 " fill="#000000"/>
<path class="atom-11" d="M 297.923 334.862 L 301.162 334.862 L 301.162 323.808 L 297.588 324.915 L 297.108 323.683 L 301.642 321.656 L 303.126 321.906 L 303.126 334.862 L 306.031 334.862 L 306.031 336.534 L 297.923 336.534 L 297.923 334.862 " fill="#000000"/>
<path class="atom-11" d="M 307.117 324.539 Q 307.661 323.139, 308.956 322.366 Q 310.252 321.572, 312.049 321.572 Q 314.285 321.572, 315.539 322.784 Q 316.793 323.996, 316.793 326.148 Q 316.793 328.343, 315.163 330.39 Q 313.554 332.438, 310.21 334.862 L 317.044 334.862 L 317.044 336.534 L 307.076 336.534 L 307.076 335.134 Q 309.834 333.17, 311.464 331.707 Q 313.115 330.244, 313.909 328.928 Q 314.703 327.611, 314.703 326.253 Q 314.703 324.832, 313.993 324.038 Q 313.282 323.244, 312.049 323.244 Q 310.858 323.244, 310.064 323.724 Q 309.27 324.205, 308.706 325.271 L 307.117 324.539 " fill="#000000"/>
<path class="atom-12" d="M 114.79 310.377 Q 114.79 306.824, 116.546 304.839 Q 118.301 302.854, 121.582 302.854 Q 124.863 302.854, 126.618 304.839 Q 128.373 306.824, 128.373 310.377 Q 128.373 313.971, 126.597 316.019 Q 124.821 318.046, 121.582 318.046 Q 118.322 318.046, 116.546 316.019 Q 114.79 313.992, 114.79 310.377 M 121.582 316.374 Q 123.839 316.374, 125.051 314.87 Q 126.284 313.344, 126.284 310.377 Q 126.284 307.472, 125.051 306.009 Q 123.839 304.526, 121.582 304.526 Q 119.325 304.526, 118.092 305.989 Q 116.88 307.451, 116.88 310.377 Q 116.88 313.365, 118.092 314.87 Q 119.325 316.374, 121.582 316.374 " fill="#FF0000"/>
<path class="atom-12" d="M 129.941 315.371 L 132.03 315.371 L 132.03 317.461 L 129.941 317.461 L 129.941 315.371 M 129.941 308.183 L 132.03 308.183 L 132.03 310.272 L 129.941 310.272 L 129.941 308.183 " fill="#FF0000"/>
<path class="atom-12" d="M 133.974 316.144 L 137.213 316.144 L 137.213 305.09 L 133.64 306.197 L 133.159 304.965 L 137.694 302.938 L 139.177 303.188 L 139.177 316.144 L 142.082 316.144 L 142.082 317.816 L 133.974 317.816 L 133.974 316.144 " fill="#FF0000"/>
<path class="atom-12" d="M 150.065 310.022 Q 151.506 310.44, 152.196 311.38 Q 152.907 312.299, 152.907 313.762 Q 152.907 315.016, 152.28 315.998 Q 151.653 316.959, 150.503 317.503 Q 149.354 318.025, 147.849 318.025 Q 146.261 318.025, 145.07 317.482 Q 143.9 316.918, 142.96 315.789 L 144.151 314.577 Q 145.07 315.58, 145.843 315.977 Q 146.617 316.353, 147.849 316.353 Q 149.187 316.353, 150.002 315.643 Q 150.817 314.912, 150.817 313.741 Q 150.817 312.237, 149.96 311.568 Q 149.124 310.878, 147.306 310.878 L 146.24 310.878 L 146.24 309.374 L 147.181 309.374 Q 148.79 309.353, 149.647 308.663 Q 150.503 307.953, 150.503 306.636 Q 150.503 305.675, 149.793 305.111 Q 149.082 304.526, 147.87 304.526 Q 146.637 304.526, 145.864 304.965 Q 145.112 305.403, 144.527 306.511 L 143.085 305.738 Q 143.607 304.505, 144.861 303.69 Q 146.115 302.854, 147.87 302.854 Q 150.044 302.854, 151.318 303.878 Q 152.593 304.902, 152.593 306.636 Q 152.593 307.827, 151.945 308.684 Q 151.297 309.541, 150.065 310.022 " fill="#FF0000"/>
<path class="atom-13" d="M 83.8167 214.319 Q 83.8167 210.642, 85.5302 208.719 Q 87.2647 206.776, 90.5455 206.776 Q 93.5965 206.776, 95.2264 208.928 L 93.8472 210.056 Q 92.6561 208.489, 90.5455 208.489 Q 88.3095 208.489, 87.1184 209.994 Q 85.9482 211.477, 85.9482 214.319 Q 85.9482 217.245, 87.1602 218.75 Q 88.3931 220.254, 90.7754 220.254 Q 92.4053 220.254, 94.307 219.272 L 94.8921 220.839 Q 94.1189 221.341, 92.9487 221.633 Q 91.7784 221.926, 90.4828 221.926 Q 87.2647 221.926, 85.5302 219.962 Q 83.8167 217.997, 83.8167 214.319 " fill="#000000"/>
<path class="atom-13" d="M 96.7937 219.293 L 98.8834 219.293 L 98.8834 221.383 L 96.7937 221.383 L 96.7937 219.293 M 96.7937 212.104 L 98.8834 212.104 L 98.8834 214.194 L 96.7937 214.194 L 96.7937 212.104 " fill="#000000"/>
<path class="atom-13" d="M 100.827 220.066 L 104.066 220.066 L 104.066 209.012 L 100.492 210.119 L 100.012 208.886 L 104.547 206.859 L 106.03 207.11 L 106.03 220.066 L 108.935 220.066 L 108.935 221.738 L 100.827 221.738 L 100.827 220.066 " fill="#000000"/>
<path class="atom-13" d="M 119.174 216.66 L 120.951 216.66 L 120.951 218.332 L 119.174 218.332 L 119.174 221.738 L 117.21 221.738 L 117.21 218.332 L 109.562 218.332 L 109.562 217.015 L 116.04 206.943 L 119.174 206.943 L 119.174 216.66 M 111.986 216.66 L 117.21 216.66 L 117.21 208.28 L 111.986 216.66 " fill="#000000"/>
<path class="atom-14" d="M 415.491 314.56 L 417.498 314.56 L 417.498 320.85 L 425.062 320.85 L 425.062 314.56 L 427.068 314.56 L 427.068 329.355 L 425.062 329.355 L 425.062 322.522 L 417.498 322.522 L 417.498 329.355 L 415.491 329.355 L 415.491 314.56 " fill="#000000"/>
<path class="atom-14" d="M 428.636 326.91 L 430.725 326.91 L 430.725 329 L 428.636 329 L 428.636 326.91 M 428.636 319.722 L 430.725 319.722 L 430.725 321.811 L 428.636 321.811 L 428.636 319.722 " fill="#000000"/>
<path class="atom-14" d="M 432.669 327.683 L 435.908 327.683 L 435.908 316.629 L 432.334 317.736 L 431.854 316.503 L 436.388 314.476 L 437.872 314.727 L 437.872 327.683 L 440.777 327.683 L 440.777 329.355 L 432.669 329.355 L 432.669 327.683 " fill="#000000"/>
<path class="atom-14" d="M 447.109 320.098 Q 448.404 320.098, 449.47 320.662 Q 450.536 321.205, 451.142 322.25 Q 451.748 323.274, 451.748 324.674 Q 451.748 326.2, 450.995 327.307 Q 450.264 328.394, 449.052 328.958 Q 447.84 329.522, 446.461 329.522 Q 445.102 329.522, 443.849 329.021 Q 442.595 328.519, 441.738 327.558 L 442.992 326.262 Q 443.681 327.015, 444.622 327.433 Q 445.562 327.83, 446.523 327.83 Q 447.84 327.83, 448.739 327.015 Q 449.658 326.2, 449.658 324.716 Q 449.658 323.149, 448.739 322.417 Q 447.84 321.665, 446.398 321.665 Q 445.102 321.665, 443.661 322.229 L 442.511 321.686 L 443.222 314.56 L 450.828 314.56 L 450.619 316.232 L 444.935 316.232 L 444.496 320.62 Q 445.813 320.098, 447.109 320.098 " fill="#000000"/>
<path class="atom-15" d="M 326.178 152.873 Q 326.178 149.196, 327.892 147.273 Q 329.626 145.33, 332.907 145.33 Q 335.958 145.33, 337.588 147.482 L 336.209 148.61 Q 335.018 147.043, 332.907 147.043 Q 330.671 147.043, 329.48 148.548 Q 328.31 150.031, 328.31 152.873 Q 328.31 155.799, 329.522 157.304 Q 330.755 158.808, 333.137 158.808 Q 334.767 158.808, 336.668 157.826 L 337.254 159.393 Q 336.48 159.895, 335.31 160.187 Q 334.14 160.48, 332.844 160.48 Q 329.626 160.48, 327.892 158.516 Q 326.178 156.551, 326.178 152.873 " fill="#000000"/>
<path class="atom-15" d="M 339.155 157.847 L 341.245 157.847 L 341.245 159.937 L 339.155 159.937 L 339.155 157.847 M 339.155 150.658 L 341.245 150.658 L 341.245 152.748 L 339.155 152.748 L 339.155 150.658 " fill="#000000"/>
<path class="atom-15" d="M 343.188 158.62 L 346.427 158.62 L 346.427 147.566 L 342.854 148.673 L 342.373 147.44 L 346.908 145.413 L 348.392 145.664 L 348.392 158.62 L 351.296 158.62 L 351.296 160.292 L 343.188 160.292 L 343.188 158.62 " fill="#000000"/>
<path class="atom-15" d="M 358.506 151.055 Q 359.801 151.055, 360.825 151.62 Q 361.849 152.184, 362.414 153.208 Q 362.978 154.232, 362.978 155.527 Q 362.978 156.969, 362.33 158.098 Q 361.703 159.205, 360.575 159.832 Q 359.446 160.459, 358.004 160.459 Q 355.371 160.459, 354.034 158.683 Q 352.717 156.886, 352.717 153.333 Q 352.717 149.404, 354.347 147.377 Q 355.998 145.33, 359.154 145.33 Q 360.073 145.33, 360.846 145.539 Q 361.64 145.748, 362.393 146.186 L 361.578 147.586 Q 360.491 147.001, 359.175 147.001 Q 357.085 147.001, 356.019 148.36 Q 354.953 149.697, 354.828 152.476 Q 355.58 151.787, 356.521 151.431 Q 357.482 151.055, 358.506 151.055 M 358.025 158.745 Q 358.819 158.745, 359.467 158.328 Q 360.136 157.91, 360.512 157.178 Q 360.888 156.447, 360.888 155.548 Q 360.888 154.232, 360.157 153.479 Q 359.425 152.727, 358.13 152.727 Q 357.231 152.727, 356.333 153.103 Q 355.455 153.459, 354.828 154.085 Q 354.912 156.53, 355.685 157.638 Q 356.458 158.745, 358.025 158.745 " fill="#000000"/>
<path class="atom-16" d="M 439.783 211.151 Q 439.783 207.598, 441.539 205.613 Q 443.294 203.628, 446.575 203.628 Q 449.856 203.628, 451.611 205.613 Q 453.367 207.598, 453.367 211.151 Q 453.367 214.745, 451.59 216.793 Q 449.814 218.82, 446.575 218.82 Q 443.315 218.82, 441.539 216.793 Q 439.783 214.766, 439.783 211.151 M 446.575 217.148 Q 448.832 217.148, 450.044 215.644 Q 451.277 214.118, 451.277 211.151 Q 451.277 208.246, 450.044 206.783 Q 448.832 205.3, 446.575 205.3 Q 444.318 205.3, 443.085 206.762 Q 441.873 208.225, 441.873 211.151 Q 441.873 214.139, 443.085 215.644 Q 444.318 217.148, 446.575 217.148 " fill="#FF0000"/>
<path class="atom-16" d="M 454.934 216.145 L 457.024 216.145 L 457.024 218.235 L 454.934 218.235 L 454.934 216.145 M 454.934 208.957 L 457.024 208.957 L 457.024 211.046 L 454.934 211.046 L 454.934 208.957 " fill="#FF0000"/>
<path class="atom-16" d="M 458.967 216.918 L 462.206 216.918 L 462.206 205.864 L 458.633 206.971 L 458.152 205.738 L 462.687 203.711 L 464.17 203.962 L 464.17 216.918 L 467.075 216.918 L 467.075 218.59 L 458.967 218.59 L 458.967 216.918 " fill="#FF0000"/>
<path class="atom-16" d="M 475.204 205.467 L 467.451 205.467 L 467.451 203.795 L 477.273 203.795 L 477.273 205.279 L 471.296 218.59 L 469.29 218.59 L 475.204 205.467 " fill="#FF0000"/>
<path class="atom-17" d="M 188.527 357.3 L 190.533 357.3 L 190.533 363.59 L 198.098 363.59 L 198.098 357.3 L 200.104 357.3 L 200.104 372.095 L 198.098 372.095 L 198.098 365.261 L 190.533 365.261 L 190.533 372.095 L 188.527 372.095 L 188.527 357.3 " fill="#000000"/>
<path class="atom-17" d="M 201.672 369.65 L 203.761 369.65 L 203.761 371.739 L 201.672 371.739 L 201.672 369.65 M 201.672 362.461 L 203.761 362.461 L 203.761 364.551 L 201.672 364.551 L 201.672 362.461 " fill="#000000"/>
<path class="atom-17" d="M 205.705 370.423 L 208.944 370.423 L 208.944 359.368 L 205.37 360.476 L 204.89 359.243 L 209.424 357.216 L 210.908 357.467 L 210.908 370.423 L 213.813 370.423 L 213.813 372.095 L 205.705 372.095 L 205.705 370.423 " fill="#000000"/>
<path class="atom-17" d="M 222.652 364.258 Q 224.01 364.843, 224.784 365.721 Q 225.557 366.578, 225.557 368.041 Q 225.557 369.295, 224.909 370.277 Q 224.261 371.238, 223.091 371.781 Q 221.942 372.304, 220.416 372.304 Q 217.95 372.304, 216.529 371.175 Q 215.108 370.026, 215.108 368.041 Q 215.108 366.829, 215.735 365.93 Q 216.362 365.011, 217.658 364.321 Q 216.696 363.778, 216.174 362.984 Q 215.652 362.169, 215.652 360.915 Q 215.652 359.18, 216.905 358.156 Q 218.18 357.132, 220.333 357.132 Q 222.485 357.132, 223.739 358.156 Q 225.013 359.18, 225.013 360.915 Q 225.013 362.001, 224.407 362.816 Q 223.822 363.611, 222.652 364.258 M 220.333 358.7 Q 219.1 358.7, 218.41 359.285 Q 217.741 359.87, 217.741 360.915 Q 217.741 361.688, 218.201 362.21 Q 218.661 362.712, 219.309 363.005 Q 219.977 363.297, 221.252 363.736 Q 222.151 363.109, 222.527 362.44 Q 222.924 361.772, 222.924 360.915 Q 222.924 359.87, 222.234 359.285 Q 221.565 358.7, 220.333 358.7 M 220.416 370.736 Q 221.795 370.736, 222.631 370.005 Q 223.467 369.253, 223.467 368.02 Q 223.467 367.226, 223.028 366.724 Q 222.589 366.223, 221.921 365.93 Q 221.273 365.638, 220.103 365.261 L 219.162 364.948 Q 218.117 365.575, 217.658 366.327 Q 217.198 367.059, 217.198 368.02 Q 217.198 369.253, 218.076 370.005 Q 218.953 370.736, 220.416 370.736 " fill="#000000"/>
<path class="atom-18" d="M 318.281 369.778 L 320.287 369.778 L 320.287 376.068 L 327.852 376.068 L 327.852 369.778 L 329.858 369.778 L 329.858 384.573 L 327.852 384.573 L 327.852 377.74 L 320.287 377.74 L 320.287 384.573 L 318.281 384.573 L 318.281 369.778 " fill="#000000"/>
<path class="atom-18" d="M 331.425 382.128 L 333.515 382.128 L 333.515 384.218 L 331.425 384.218 L 331.425 382.128 M 331.425 374.94 L 333.515 374.94 L 333.515 377.03 L 331.425 377.03 L 331.425 374.94 " fill="#000000"/>
<path class="atom-18" d="M 335.459 382.902 L 338.698 382.902 L 338.698 371.847 L 335.124 372.955 L 334.644 371.722 L 339.178 369.695 L 340.662 369.945 L 340.662 382.902 L 343.567 382.902 L 343.567 384.573 L 335.459 384.573 L 335.459 382.902 " fill="#000000"/>
<path class="atom-18" d="M 349.689 369.611 Q 352.322 369.611, 353.639 371.408 Q 354.976 373.185, 354.976 376.737 Q 354.976 380.666, 353.326 382.714 Q 351.696 384.741, 348.54 384.741 Q 347.621 384.741, 346.827 384.532 Q 346.053 384.323, 345.301 383.884 L 346.116 382.484 Q 347.203 383.069, 348.519 383.069 Q 350.609 383.069, 351.675 381.731 Q 352.74 380.373, 352.866 377.594 Q 352.114 378.283, 351.152 378.66 Q 350.212 379.015, 349.188 379.015 Q 347.892 379.015, 346.868 378.451 Q 345.844 377.886, 345.28 376.862 Q 344.716 375.838, 344.716 374.543 Q 344.716 373.101, 345.343 371.993 Q 345.991 370.865, 347.119 370.238 Q 348.248 369.611, 349.689 369.611 M 346.806 374.522 Q 346.806 375.838, 347.537 376.591 Q 348.268 377.343, 349.564 377.343 Q 350.463 377.343, 351.34 376.988 Q 352.239 376.612, 352.866 375.985 Q 352.782 373.54, 352.009 372.432 Q 351.236 371.325, 349.669 371.325 Q 348.874 371.325, 348.206 371.743 Q 347.558 372.161, 347.182 372.892 Q 346.806 373.623, 346.806 374.522 " fill="#000000"/>
<path class="atom-19" d="M 107.322 155.074 L 109.328 155.074 L 109.328 161.364 L 116.893 161.364 L 116.893 155.074 L 118.899 155.074 L 118.899 169.869 L 116.893 169.869 L 116.893 163.036 L 109.328 163.036 L 109.328 169.869 L 107.322 169.869 L 107.322 155.074 " fill="#000000"/>
<path class="atom-19" d="M 120.466 167.424 L 122.556 167.424 L 122.556 169.514 L 120.466 169.514 L 120.466 167.424 M 120.466 160.236 L 122.556 160.236 L 122.556 162.325 L 120.466 162.325 L 120.466 160.236 " fill="#000000"/>
<path class="atom-19" d="M 123.643 157.874 Q 124.186 156.474, 125.482 155.701 Q 126.777 154.907, 128.574 154.907 Q 130.81 154.907, 132.064 156.119 Q 133.318 157.331, 133.318 159.483 Q 133.318 161.678, 131.688 163.726 Q 130.079 165.773, 126.735 168.197 L 133.569 168.197 L 133.569 169.869 L 123.601 169.869 L 123.601 168.469 Q 126.359 166.505, 127.989 165.042 Q 129.64 163.579, 130.434 162.263 Q 131.228 160.946, 131.228 159.588 Q 131.228 158.167, 130.518 157.373 Q 129.807 156.579, 128.574 156.579 Q 127.383 156.579, 126.589 157.059 Q 125.795 157.54, 125.231 158.606 L 123.643 157.874 " fill="#000000"/>
<path class="atom-19" d="M 140.256 170.036 Q 137.539 170.036, 136.181 168.03 Q 134.844 166.024, 134.844 162.451 Q 134.844 158.877, 136.181 156.892 Q 137.518 154.907, 140.256 154.907 Q 142.993 154.907, 144.331 156.892 Q 145.668 158.877, 145.668 162.451 Q 145.668 166.024, 144.31 168.03 Q 142.972 170.036, 140.256 170.036 M 140.256 168.365 Q 141.865 168.365, 142.722 166.881 Q 143.578 165.376, 143.578 162.451 Q 143.578 159.546, 142.722 158.062 Q 141.865 156.579, 140.256 156.579 Q 138.668 156.579, 137.79 158.062 Q 136.933 159.546, 136.933 162.451 Q 136.933 165.376, 137.79 166.881 Q 138.668 168.365, 140.256 168.365 " fill="#000000"/>
<path class="atom-20" d="M 94.8435 258.811 L 96.8496 258.811 L 96.8496 265.101 L 104.414 265.101 L 104.414 258.811 L 106.42 258.811 L 106.42 273.606 L 104.414 273.606 L 104.414 266.773 L 96.8496 266.773 L 96.8496 273.606 L 94.8435 273.606 L 94.8435 258.811 " fill="#000000"/>
<path class="atom-20" d="M 107.988 271.161 L 110.077 271.161 L 110.077 273.251 L 107.988 273.251 L 107.988 271.161 M 107.988 263.973 L 110.077 263.973 L 110.077 266.063 L 107.988 266.063 L 107.988 263.973 " fill="#000000"/>
<path class="atom-20" d="M 111.164 261.612 Q 111.707 260.211, 113.003 259.438 Q 114.299 258.644, 116.096 258.644 Q 118.332 258.644, 119.586 259.856 Q 120.839 261.068, 120.839 263.221 Q 120.839 265.415, 119.209 267.463 Q 117.6 269.511, 114.257 271.935 L 121.09 271.935 L 121.09 273.606 L 111.122 273.606 L 111.122 272.206 Q 113.881 270.242, 115.511 268.779 Q 117.162 267.316, 117.956 266 Q 118.75 264.683, 118.75 263.325 Q 118.75 261.904, 118.039 261.11 Q 117.329 260.316, 116.096 260.316 Q 114.905 260.316, 114.111 260.797 Q 113.316 261.277, 112.752 262.343 L 111.164 261.612 " fill="#000000"/>
<path class="atom-20" d="M 123.034 271.935 L 126.273 271.935 L 126.273 260.88 L 122.699 261.988 L 122.219 260.755 L 126.753 258.728 L 128.237 258.979 L 128.237 271.935 L 131.142 271.935 L 131.142 273.606 L 123.034 273.606 L 123.034 271.935 " fill="#000000"/>
<path class="atom-21" d="M 22.7273 200.703 L 24.7334 200.703 L 24.7334 206.993 L 32.2981 206.993 L 32.2981 200.703 L 34.3042 200.703 L 34.3042 215.499 L 32.2981 215.499 L 32.2981 208.665 L 24.7334 208.665 L 24.7334 215.499 L 22.7273 215.499 L 22.7273 200.703 " fill="#000000"/>
<path class="atom-21" d="M 35.8715 213.054 L 37.9612 213.054 L 37.9612 215.143 L 35.8715 215.143 L 35.8715 213.054 M 35.8715 205.865 L 37.9612 205.865 L 37.9612 207.955 L 35.8715 207.955 L 35.8715 205.865 " fill="#000000"/>
<path class="atom-21" d="M 39.0478 203.504 Q 39.5912 202.104, 40.8868 201.33 Q 42.1824 200.536, 43.9795 200.536 Q 46.2155 200.536, 47.4693 201.748 Q 48.7231 202.96, 48.7231 205.113 Q 48.7231 207.307, 47.0932 209.355 Q 45.4841 211.403, 42.1406 213.827 L 48.9739 213.827 L 48.9739 215.499 L 39.006 215.499 L 39.006 214.098 Q 41.7644 212.134, 43.3944 210.671 Q 45.0453 209.209, 45.8394 207.892 Q 46.6334 206.575, 46.6334 205.217 Q 46.6334 203.796, 45.923 203.002 Q 45.2125 202.208, 43.9795 202.208 Q 42.7884 202.208, 41.9943 202.689 Q 41.2002 203.169, 40.636 204.235 L 39.0478 203.504 " fill="#000000"/>
<path class="atom-21" d="M 50.0606 203.504 Q 50.6039 202.104, 51.8995 201.33 Q 53.1951 200.536, 54.9923 200.536 Q 57.2282 200.536, 58.4821 201.748 Q 59.7359 202.96, 59.7359 205.113 Q 59.7359 207.307, 58.1059 209.355 Q 56.4968 211.403, 53.1533 213.827 L 59.9866 213.827 L 59.9866 215.499 L 50.0188 215.499 L 50.0188 214.098 Q 52.7772 212.134, 54.4071 210.671 Q 56.058 209.209, 56.8521 207.892 Q 57.6462 206.575, 57.6462 205.217 Q 57.6462 203.796, 56.9357 203.002 Q 56.2252 202.208, 54.9923 202.208 Q 53.8011 202.208, 53.007 202.689 Q 52.2129 203.169, 51.6487 204.235 L 50.0606 203.504 " fill="#000000"/>
<path class="atom-22" d="M 385.941 115.427 L 387.947 115.427 L 387.947 121.717 L 395.511 121.717 L 395.511 115.427 L 397.517 115.427 L 397.517 130.222 L 395.511 130.222 L 395.511 123.388 L 387.947 123.388 L 387.947 130.222 L 385.941 130.222 L 385.941 115.427 " fill="#000000"/>
<path class="atom-22" d="M 399.085 127.777 L 401.174 127.777 L 401.174 129.866 L 399.085 129.866 L 399.085 127.777 M 399.085 120.588 L 401.174 120.588 L 401.174 122.678 L 399.085 122.678 L 399.085 120.588 " fill="#000000"/>
<path class="atom-22" d="M 402.261 118.227 Q 402.804 116.827, 404.1 116.054 Q 405.396 115.259, 407.193 115.259 Q 409.429 115.259, 410.683 116.471 Q 411.936 117.683, 411.936 119.836 Q 411.936 122.03, 410.306 124.078 Q 408.697 126.126, 405.354 128.55 L 412.187 128.55 L 412.187 130.222 L 402.219 130.222 L 402.219 128.822 Q 404.978 126.857, 406.608 125.394 Q 408.259 123.932, 409.053 122.615 Q 409.847 121.299, 409.847 119.94 Q 409.847 118.519, 409.136 117.725 Q 408.426 116.931, 407.193 116.931 Q 406.002 116.931, 405.208 117.412 Q 404.413 117.892, 403.849 118.958 L 402.261 118.227 " fill="#000000"/>
<path class="atom-22" d="M 420.17 122.427 Q 421.612 122.845, 422.301 123.785 Q 423.012 124.705, 423.012 126.168 Q 423.012 127.421, 422.385 128.404 Q 421.758 129.365, 420.609 129.908 Q 419.459 130.431, 417.955 130.431 Q 416.367 130.431, 415.175 129.887 Q 414.005 129.323, 413.065 128.195 L 414.256 126.983 Q 415.175 127.986, 415.949 128.383 Q 416.722 128.759, 417.955 128.759 Q 419.292 128.759, 420.107 128.048 Q 420.922 127.317, 420.922 126.147 Q 420.922 124.642, 420.065 123.973 Q 419.229 123.284, 417.411 123.284 L 416.346 123.284 L 416.346 121.779 L 417.286 121.779 Q 418.895 121.758, 419.752 121.069 Q 420.609 120.358, 420.609 119.042 Q 420.609 118.081, 419.898 117.516 Q 419.188 116.931, 417.976 116.931 Q 416.743 116.931, 415.97 117.37 Q 415.217 117.809, 414.632 118.916 L 413.19 118.143 Q 413.713 116.91, 414.966 116.095 Q 416.22 115.259, 417.976 115.259 Q 420.149 115.259, 421.424 116.283 Q 422.698 117.307, 422.698 119.042 Q 422.698 120.233, 422.051 121.09 Q 421.403 121.946, 420.17 122.427 " fill="#000000"/>
<path class="atom-23" d="M 269.038 123.535 L 271.044 123.535 L 271.044 129.825 L 278.609 129.825 L 278.609 123.535 L 280.615 123.535 L 280.615 138.33 L 278.609 138.33 L 278.609 131.496 L 271.044 131.496 L 271.044 138.33 L 269.038 138.33 L 269.038 123.535 " fill="#000000"/>
<path class="atom-23" d="M 282.182 135.885 L 284.272 135.885 L 284.272 137.974 L 282.182 137.974 L 282.182 135.885 M 282.182 128.696 L 284.272 128.696 L 284.272 130.786 L 282.182 130.786 L 282.182 128.696 " fill="#000000"/>
<path class="atom-23" d="M 285.359 126.335 Q 285.902 124.935, 287.198 124.161 Q 288.493 123.367, 290.291 123.367 Q 292.527 123.367, 293.78 124.579 Q 295.034 125.791, 295.034 127.944 Q 295.034 130.138, 293.404 132.186 Q 291.795 134.234, 288.452 136.658 L 295.285 136.658 L 295.285 138.33 L 285.317 138.33 L 285.317 136.929 Q 288.075 134.965, 289.705 133.502 Q 291.356 132.04, 292.15 130.723 Q 292.944 129.407, 292.944 128.048 Q 292.944 126.627, 292.234 125.833 Q 291.523 125.039, 290.291 125.039 Q 289.099 125.039, 288.305 125.52 Q 287.511 126, 286.947 127.066 L 285.359 126.335 " fill="#000000"/>
<path class="atom-23" d="M 305.524 133.252 L 307.301 133.252 L 307.301 134.923 L 305.524 134.923 L 305.524 138.33 L 303.56 138.33 L 303.56 134.923 L 295.912 134.923 L 295.912 133.607 L 302.39 123.535 L 305.524 123.535 L 305.524 133.252 M 298.336 133.252 L 303.56 133.252 L 303.56 124.872 L 298.336 133.252 " fill="#000000"/>
<text x="205.20507459330736" y="271.6548933400508" font-size="12" font-family="Verdana" font-weight="bold" letter-spacing="0" text-anchor="start" fill="black" transform=" rotate(-83.140787 205.205075 271.654893)">0.027</text><text x="25" y="490" font-size="12" font-family="Verdana" font-weight="bold" letter-spacing="0" text-anchor="start" fill="black">[#8:1](-[#6:2](-[#6:3]1:[#6:4](:[#6:5]2-[#6:7](-[#6:8](-[#7:6](-[#6:9]:2:[#6:12](:[#6:11]:1-[H:18])-[H:19])-[H:15])=[#8:17])=[#6:16](-[H:23])-[H:24])-[H:10])=[#8:13])-[#6:14](-[H:20])(-[H:21])-[H:22]</text></svg>
