<?xml version='1.0' encoding='ASCII' standalone='yes'?>
<svg xmlns="http://www.w3.org/2000/svg" xmlns:rdkit="http://www.rdkit.org/xml" xmlns:xlink="http://www.w3.org/1999/xlink" version="1.1" baseProfile="full" xml:space="preserve" width="500px" height="500px" viewBox="0 0 500 500">
<!-- END OF HEADER -->
<rect style="opacity:1.0;fill:#FFFFFF;stroke:none" width="500" height="500" x="0" y="0"> </rect>
<path d="M 249.834,206.141 L 301.04,199.852" style="fill:none;fill-rule:evenodd;stroke:#FF7F7F;stroke-width:18.6px;stroke-linecap:butt;stroke-linejoin:miter;stroke-opacity:1"/>
<path class="bond-0 atom-0 atom-1" d="M 249.834,278.884 L 249.834,249.677" style="fill:none;fill-rule:evenodd;stroke:#0000FF;stroke-width:2.0px;stroke-linecap:butt;stroke-linejoin:miter;stroke-opacity:1"/>
<path class="bond-0 atom-0 atom-1" d="M 249.834,249.677 L 249.834,220.471" style="fill:none;fill-rule:evenodd;stroke:#000000;stroke-width:2.0px;stroke-linecap:butt;stroke-linejoin:miter;stroke-opacity:1"/>
<path class="bond-1 atom-0 atom-2" d="M 278.478,293.51 L 292.539,293.51" style="fill:none;fill-rule:evenodd;stroke:#0000FF;stroke-width:2.0px;stroke-linecap:butt;stroke-linejoin:miter;stroke-opacity:1"/>
<path class="bond-1 atom-0 atom-2" d="M 292.539,293.51 L 306.6,293.51" style="fill:none;fill-rule:evenodd;stroke:#000000;stroke-width:2.0px;stroke-linecap:butt;stroke-linejoin:miter;stroke-opacity:1"/>
<path class="bond-2 atom-0 atom-3" d="M 219.569,293.51 L 199.377,293.51" style="fill:none;fill-rule:evenodd;stroke:#0000FF;stroke-width:2.0px;stroke-linecap:butt;stroke-linejoin:miter;stroke-opacity:1"/>
<path class="bond-2 atom-0 atom-3" d="M 199.377,293.51 L 179.185,293.51" style="fill:none;fill-rule:evenodd;stroke:#000000;stroke-width:2.0px;stroke-linecap:butt;stroke-linejoin:miter;stroke-opacity:1"/>
<path class="bond-3 atom-0 atom-4" d="M 249.834,308.135 L 249.834,337.412" style="fill:none;fill-rule:evenodd;stroke:#0000FF;stroke-width:2.0px;stroke-linecap:butt;stroke-linejoin:miter;stroke-opacity:1"/>
<path class="bond-3 atom-0 atom-4" d="M 249.834,337.412 L 249.834,366.689" style="fill:none;fill-rule:evenodd;stroke:#000000;stroke-width:2.0px;stroke-linecap:butt;stroke-linejoin:miter;stroke-opacity:1"/>
<path class="bond-4 atom-1 atom-5" d="M 265.496,204.217 L 290.464,201.151" style="fill:none;fill-rule:evenodd;stroke:#000000;stroke-width:2.0px;stroke-linecap:butt;stroke-linejoin:miter;stroke-opacity:1"/>
<path class="bond-5 atom-1 atom-6" d="M 219.302,202.391 L 207.362,200.925" style="fill:none;fill-rule:evenodd;stroke:#000000;stroke-width:2.0px;stroke-linecap:butt;stroke-linejoin:miter;stroke-opacity:1"/>
<path class="bond-6 atom-1 atom-12" d="M 249.834,191.445 L 249.834,133.1" style="fill:none;fill-rule:evenodd;stroke:#000000;stroke-width:2.0px;stroke-linecap:butt;stroke-linejoin:miter;stroke-opacity:1"/>
<path class="bond-7 atom-2 atom-7" d="M 337.203,308.555 L 337.203,366.839" style="fill:none;fill-rule:evenodd;stroke:#000000;stroke-width:2.0px;stroke-linecap:butt;stroke-linejoin:miter;stroke-opacity:1"/>
<path class="bond-8 atom-2 atom-8" d="M 338.898,279.709 L 341.839,255.757" style="fill:none;fill-rule:evenodd;stroke:#000000;stroke-width:2.0px;stroke-linecap:butt;stroke-linejoin:miter;stroke-opacity:1"/>
<path class="bond-9 atom-2 atom-13" d="M 353.553,293.51 L 413.116,293.51" style="fill:none;fill-rule:evenodd;stroke:#000000;stroke-width:2.0px;stroke-linecap:butt;stroke-linejoin:miter;stroke-opacity:1"/>
<path class="bond-10 atom-3 atom-9" d="M 162.465,308.205 L 162.465,366.83" style="fill:none;fill-rule:evenodd;stroke:#000000;stroke-width:2.0px;stroke-linecap:butt;stroke-linejoin:miter;stroke-opacity:1"/>
<path class="bond-11 atom-3 atom-10" d="M 160.805,279.988 L 157.821,255.694" style="fill:none;fill-rule:evenodd;stroke:#000000;stroke-width:2.0px;stroke-linecap:butt;stroke-linejoin:miter;stroke-opacity:1"/>
<path class="bond-12 atom-3 atom-11" d="M 130.281,293.51 L 84.8108,293.51" style="fill:none;fill-rule:evenodd;stroke:#000000;stroke-width:2.0px;stroke-linecap:butt;stroke-linejoin:miter;stroke-opacity:1"/>
<path class="atom-0" d="M 225.668 281.208 L 233.776 294.314 Q 234.579 295.607, 235.872 297.948 Q 237.166 300.29, 237.235 300.429 L 237.235 281.208 L 240.52 281.208 L 240.52 305.951 L 237.131 305.951 L 228.429 291.623 Q 227.415 289.945, 226.332 288.023 Q 225.283 286.101, 224.969 285.507 L 224.969 305.951 L 221.754 305.951 L 221.754 281.208 L 225.668 281.208 " fill="#0000FF"/>
<path class="atom-0" d="M 243.142 301.862 L 246.636 301.862 L 246.636 305.357 L 243.142 305.357 L 243.142 301.862 M 243.142 289.84 L 246.636 289.84 L 246.636 293.335 L 243.142 293.335 L 243.142 289.84 " fill="#0000FF"/>
<path class="atom-0" d="M 249.886 303.155 L 255.303 303.155 L 255.303 284.668 L 249.327 286.52 L 248.523 284.458 L 256.107 281.068 L 258.588 281.488 L 258.588 303.155 L 263.446 303.155 L 263.446 305.951 L 249.886 305.951 L 249.886 303.155 " fill="#0000FF"/>
<path class="atom-0" d="M 265.522 285.598 L 269.881 285.598 L 269.881 281.008 L 271.819 281.008 L 271.819 285.598 L 276.293 285.598 L 276.293 287.259 L 271.819 287.259 L 271.819 291.872 L 269.881 291.872 L 269.881 287.259 L 265.522 287.259 L 265.522 285.598 " fill="#0000FF"/>
<path class="atom-1" d="M 220.592 206.246 Q 220.592 200.095, 223.457 196.88 Q 226.358 193.63, 231.845 193.63 Q 236.947 193.63, 239.673 197.229 L 237.366 199.116 Q 235.374 196.495, 231.845 196.495 Q 228.105 196.495, 226.113 199.012 Q 224.156 201.493, 224.156 206.246 Q 224.156 211.138, 226.183 213.655 Q 228.245 216.171, 232.229 216.171 Q 234.955 216.171, 238.135 214.528 L 239.114 217.149 Q 237.821 217.988, 235.864 218.477 Q 233.907 218.967, 231.74 218.967 Q 226.358 218.967, 223.457 215.681 Q 220.592 212.396, 220.592 206.246 " fill="#000000"/>
<path class="atom-1" d="M 242.294 214.563 L 245.789 214.563 L 245.789 218.058 L 242.294 218.058 L 242.294 214.563 M 242.294 202.541 L 245.789 202.541 L 245.789 206.036 L 242.294 206.036 L 242.294 202.541 " fill="#000000"/>
<path class="atom-1" d="M 247.606 198.592 Q 248.515 196.251, 250.681 194.958 Q 252.848 193.63, 255.854 193.63 Q 259.593 193.63, 261.69 195.657 Q 263.787 197.684, 263.787 201.283 Q 263.787 204.953, 261.061 208.377 Q 258.37 211.802, 252.778 215.856 L 264.206 215.856 L 264.206 218.652 L 247.536 218.652 L 247.536 216.311 Q 252.149 213.025, 254.875 210.579 Q 257.636 208.133, 258.964 205.931 Q 260.292 203.729, 260.292 201.458 Q 260.292 199.081, 259.104 197.753 Q 257.916 196.425, 255.854 196.425 Q 253.862 196.425, 252.534 197.229 Q 251.206 198.033, 250.262 199.815 L 247.606 198.592 " fill="#000000"/>
<path class="atom-2" d="M 308.068 293.615 Q 308.068 287.464, 310.934 284.249 Q 313.835 280.998, 319.321 280.998 Q 324.424 280.998, 327.15 284.598 L 324.843 286.485 Q 322.851 283.864, 319.321 283.864 Q 315.582 283.864, 313.59 286.38 Q 311.633 288.862, 311.633 293.615 Q 311.633 298.507, 313.66 301.023 Q 315.722 303.54, 319.706 303.54 Q 322.432 303.54, 325.612 301.897 L 326.59 304.518 Q 325.297 305.357, 323.34 305.846 Q 321.383 306.335, 319.217 306.335 Q 313.835 306.335, 310.934 303.05 Q 308.068 299.765, 308.068 293.615 " fill="#000000"/>
<path class="atom-2" d="M 329.771 301.932 L 333.265 301.932 L 333.265 305.427 L 329.771 305.427 L 329.771 301.932 M 329.771 289.91 L 333.265 289.91 L 333.265 293.405 L 329.771 293.405 L 329.771 289.91 " fill="#000000"/>
<path class="atom-2" d="M 346.615 292.986 Q 349.027 293.684, 350.18 295.257 Q 351.368 296.795, 351.368 299.241 Q 351.368 301.338, 350.32 302.981 Q 349.271 304.588, 347.349 305.497 Q 345.427 306.37, 342.911 306.37 Q 340.255 306.37, 338.263 305.462 Q 336.306 304.518, 334.733 302.631 L 336.725 300.604 Q 338.263 302.282, 339.556 302.946 Q 340.849 303.575, 342.911 303.575 Q 345.148 303.575, 346.511 302.386 Q 347.874 301.163, 347.874 299.206 Q 347.874 296.69, 346.441 295.572 Q 345.043 294.418, 342.002 294.418 L 340.22 294.418 L 340.22 291.902 L 341.793 291.902 Q 344.484 291.867, 345.916 290.714 Q 347.349 289.526, 347.349 287.324 Q 347.349 285.716, 346.161 284.773 Q 344.973 283.794, 342.946 283.794 Q 340.884 283.794, 339.591 284.528 Q 338.333 285.262, 337.354 287.114 L 334.943 285.821 Q 335.817 283.759, 337.914 282.396 Q 340.01 280.998, 342.946 280.998 Q 346.58 280.998, 348.712 282.711 Q 350.844 284.423, 350.844 287.324 Q 350.844 289.316, 349.761 290.749 Q 348.677 292.182, 346.615 292.986 " fill="#000000"/>
<path class="atom-3" d="M 132.466 293.615 Q 132.466 287.464, 135.331 284.249 Q 138.232 280.998, 143.719 280.998 Q 148.821 280.998, 151.547 284.598 L 149.24 286.485 Q 147.248 283.864, 143.719 283.864 Q 139.979 283.864, 137.987 286.38 Q 136.03 288.862, 136.03 293.615 Q 136.03 298.507, 138.057 301.023 Q 140.119 303.54, 144.103 303.54 Q 146.829 303.54, 150.009 301.897 L 150.988 304.518 Q 149.695 305.357, 147.738 305.846 Q 145.781 306.335, 143.614 306.335 Q 138.232 306.335, 135.331 303.05 Q 132.466 299.765, 132.466 293.615 " fill="#000000"/>
<path class="atom-3" d="M 154.168 301.932 L 157.663 301.932 L 157.663 305.427 L 154.168 305.427 L 154.168 301.932 M 154.168 289.91 L 157.663 289.91 L 157.663 293.405 L 154.168 293.405 L 154.168 289.91 " fill="#000000"/>
<path class="atom-3" d="M 174.787 297.529 L 177.758 297.529 L 177.758 300.324 L 174.787 300.324 L 174.787 306.021 L 171.502 306.021 L 171.502 300.324 L 158.711 300.324 L 158.711 298.123 L 169.545 281.278 L 174.787 281.278 L 174.787 297.529 M 162.765 297.529 L 171.502 297.529 L 171.502 283.515 L 162.765 297.529 " fill="#000000"/>
<path class="atom-4" d="M 240.154 368.507 L 243.508 368.507 L 243.508 379.026 L 256.16 379.026 L 256.16 368.507 L 259.514 368.507 L 259.514 393.25 L 256.16 393.25 L 256.16 381.822 L 243.508 381.822 L 243.508 393.25 L 240.154 393.25 L 240.154 368.507 " fill="#000000"/>
<path class="atom-4" d="M 262.136 389.161 L 265.63 389.161 L 265.63 392.656 L 262.136 392.656 L 262.136 389.161 M 262.136 377.139 L 265.63 377.139 L 265.63 380.634 L 262.136 380.634 L 262.136 377.139 " fill="#000000"/>
<path class="atom-4" d="M 276.219 377.768 Q 278.386 377.768, 280.168 378.712 Q 281.951 379.621, 282.964 381.368 Q 283.978 383.08, 283.978 385.422 Q 283.978 387.973, 282.72 389.825 Q 281.496 391.642, 279.47 392.586 Q 277.443 393.53, 275.136 393.53 Q 272.864 393.53, 270.768 392.691 Q 268.671 391.852, 267.238 390.245 L 269.335 388.078 Q 270.488 389.336, 272.061 390.035 Q 273.633 390.699, 275.241 390.699 Q 277.443 390.699, 278.945 389.336 Q 280.483 387.973, 280.483 385.492 Q 280.483 382.871, 278.945 381.647 Q 277.443 380.389, 275.031 380.389 Q 272.864 380.389, 270.453 381.333 L 268.531 380.424 L 269.719 368.507 L 282.44 368.507 L 282.091 371.303 L 272.585 371.303 L 271.851 378.642 Q 274.053 377.768, 276.219 377.768 " fill="#000000"/>
<path class="atom-5" d="M 291.359 187.62 L 294.714 187.62 L 294.714 198.14 L 307.365 198.14 L 307.365 187.62 L 310.72 187.62 L 310.72 212.363 L 307.365 212.363 L 307.365 200.936 L 294.714 200.936 L 294.714 212.363 L 291.359 212.363 L 291.359 187.62 " fill="#000000"/>
<path class="atom-5" d="M 313.341 208.274 L 316.836 208.274 L 316.836 211.769 L 313.341 211.769 L 313.341 208.274 M 313.341 196.253 L 316.836 196.253 L 316.836 199.747 L 313.341 199.747 L 313.341 196.253 " fill="#000000"/>
<path class="atom-5" d="M 328.893 196.917 Q 331.06 196.917, 332.772 197.86 Q 334.485 198.804, 335.428 200.516 Q 336.372 202.229, 336.372 204.395 Q 336.372 206.807, 335.288 208.694 Q 334.24 210.546, 332.353 211.595 Q 330.466 212.643, 328.054 212.643 Q 323.651 212.643, 321.414 209.672 Q 319.212 206.667, 319.212 200.726 Q 319.212 194.156, 321.938 190.766 Q 324.699 187.341, 329.976 187.341 Q 331.514 187.341, 332.807 187.69 Q 334.135 188.04, 335.393 188.774 L 334.03 191.115 Q 332.213 190.137, 330.011 190.137 Q 326.517 190.137, 324.734 192.408 Q 322.952 194.645, 322.742 199.293 Q 324 198.14, 325.573 197.546 Q 327.181 196.917, 328.893 196.917 M 328.089 209.777 Q 329.417 209.777, 330.501 209.078 Q 331.619 208.379, 332.248 207.156 Q 332.877 205.933, 332.877 204.43 Q 332.877 202.229, 331.654 200.97 Q 330.431 199.712, 328.264 199.712 Q 326.761 199.712, 325.258 200.341 Q 323.791 200.936, 322.742 201.984 Q 322.882 206.073, 324.175 207.925 Q 325.468 209.777, 328.089 209.777 " fill="#000000"/>
<path class="atom-6" d="M 164.31 187.481 L 167.665 187.481 L 167.665 198 L 180.316 198 L 180.316 187.481 L 183.671 187.481 L 183.671 212.224 L 180.316 212.224 L 180.316 200.796 L 167.665 200.796 L 167.665 212.224 L 164.31 212.224 L 164.31 187.481 " fill="#000000"/>
<path class="atom-6" d="M 186.292 208.135 L 189.787 208.135 L 189.787 211.629 L 186.292 211.629 L 186.292 208.135 M 186.292 196.113 L 189.787 196.113 L 189.787 199.608 L 186.292 199.608 L 186.292 196.113 " fill="#000000"/>
<path class="atom-6" d="M 203.381 190.277 L 190.416 190.277 L 190.416 187.481 L 206.841 187.481 L 206.841 189.962 L 196.846 212.224 L 193.491 212.224 L 203.381 190.277 " fill="#000000"/>
<path class="atom-7" d="M 327.522 368.647 L 330.877 368.647 L 330.877 379.166 L 343.528 379.166 L 343.528 368.647 L 346.883 368.647 L 346.883 393.39 L 343.528 393.39 L 343.528 381.962 L 330.877 381.962 L 330.877 393.39 L 327.522 393.39 L 327.522 368.647 " fill="#000000"/>
<path class="atom-7" d="M 349.504 389.301 L 352.999 389.301 L 352.999 392.796 L 349.504 392.796 L 349.504 389.301 M 349.504 377.279 L 352.999 377.279 L 352.999 380.774 L 349.504 380.774 L 349.504 377.279 " fill="#000000"/>
<path class="atom-7" d="M 367.782 380.285 Q 370.054 381.263, 371.347 382.731 Q 372.64 384.164, 372.64 386.61 Q 372.64 388.707, 371.556 390.349 Q 370.473 391.957, 368.516 392.866 Q 366.594 393.739, 364.043 393.739 Q 359.919 393.739, 357.542 391.852 Q 355.166 389.93, 355.166 386.61 Q 355.166 384.583, 356.214 383.08 Q 357.263 381.543, 359.43 380.389 Q 357.822 379.481, 356.948 378.153 Q 356.075 376.79, 356.075 374.693 Q 356.075 371.792, 358.171 370.08 Q 360.303 368.367, 363.903 368.367 Q 367.502 368.367, 369.599 370.08 Q 371.731 371.792, 371.731 374.693 Q 371.731 376.51, 370.718 377.873 Q 369.739 379.201, 367.782 380.285 M 363.903 370.988 Q 361.841 370.988, 360.688 371.967 Q 359.569 372.946, 359.569 374.693 Q 359.569 375.986, 360.338 376.86 Q 361.107 377.698, 362.19 378.188 Q 363.309 378.677, 365.441 379.411 Q 366.943 378.362, 367.572 377.244 Q 368.236 376.126, 368.236 374.693 Q 368.236 372.946, 367.083 371.967 Q 365.965 370.988, 363.903 370.988 M 364.043 391.118 Q 366.349 391.118, 367.747 389.895 Q 369.145 388.637, 369.145 386.575 Q 369.145 385.247, 368.411 384.408 Q 367.677 383.57, 366.559 383.08 Q 365.475 382.591, 363.518 381.962 L 361.946 381.438 Q 360.198 382.486, 359.43 383.744 Q 358.661 384.967, 358.661 386.575 Q 358.661 388.637, 360.129 389.895 Q 361.596 391.118, 364.043 391.118 " fill="#000000"/>
<path class="atom-8" d="M 333.811 230.072 L 337.166 230.072 L 337.166 240.592 L 349.817 240.592 L 349.817 230.072 L 353.172 230.072 L 353.172 254.815 L 349.817 254.815 L 349.817 243.387 L 337.166 243.387 L 337.166 254.815 L 333.811 254.815 L 333.811 230.072 " fill="#000000"/>
<path class="atom-8" d="M 355.793 250.726 L 359.288 250.726 L 359.288 254.221 L 355.793 254.221 L 355.793 250.726 M 355.793 238.704 L 359.288 238.704 L 359.288 242.199 L 355.793 242.199 L 355.793 238.704 " fill="#000000"/>
<path class="atom-8" d="M 369.528 229.793 Q 373.931 229.793, 376.133 232.798 Q 378.369 235.769, 378.369 241.71 Q 378.369 248.28, 375.608 251.705 Q 372.882 255.095, 367.605 255.095 Q 366.068 255.095, 364.74 254.745 Q 363.447 254.396, 362.189 253.662 L 363.551 251.32 Q 365.369 252.299, 367.57 252.299 Q 371.065 252.299, 372.848 250.062 Q 374.63 247.791, 374.84 243.143 Q 373.581 244.296, 371.974 244.925 Q 370.401 245.519, 368.689 245.519 Q 366.522 245.519, 364.81 244.576 Q 363.097 243.632, 362.154 241.92 Q 361.21 240.207, 361.21 238.04 Q 361.21 235.629, 362.258 233.777 Q 363.342 231.89, 365.229 230.841 Q 367.116 229.793, 369.528 229.793 M 364.705 238.005 Q 364.705 240.207, 365.928 241.465 Q 367.151 242.723, 369.318 242.723 Q 370.821 242.723, 372.288 242.129 Q 373.791 241.5, 374.84 240.452 Q 374.7 236.363, 373.407 234.511 Q 372.114 232.658, 369.493 232.658 Q 368.165 232.658, 367.046 233.357 Q 365.963 234.056, 365.334 235.28 Q 364.705 236.503, 364.705 238.005 " fill="#000000"/>
<path class="atom-9" d="M 152.785 368.647 L 156.14 368.647 L 156.14 379.166 L 168.791 379.166 L 168.791 368.647 L 172.146 368.647 L 172.146 393.39 L 168.791 393.39 L 168.791 381.962 L 156.14 381.962 L 156.14 393.39 L 152.785 393.39 L 152.785 368.647 " fill="#000000"/>
<path class="atom-9" d="M 174.767 389.301 L 178.261 389.301 L 178.261 392.796 L 174.767 392.796 L 174.767 389.301 M 174.767 377.279 L 178.261 377.279 L 178.261 380.774 L 174.767 380.774 L 174.767 377.279 " fill="#000000"/>
<path class="atom-9" d="M 181.512 390.594 L 186.928 390.594 L 186.928 372.107 L 180.952 373.959 L 180.149 371.897 L 187.732 368.507 L 190.213 368.927 L 190.213 390.594 L 195.071 390.594 L 195.071 393.39 L 181.512 393.39 L 181.512 390.594 " fill="#000000"/>
<path class="atom-9" d="M 206.254 393.669 Q 201.711 393.669, 199.44 390.314 Q 197.203 386.959, 197.203 380.983 Q 197.203 375.007, 199.44 371.687 Q 201.676 368.367, 206.254 368.367 Q 210.833 368.367, 213.069 371.687 Q 215.306 375.007, 215.306 380.983 Q 215.306 386.959, 213.034 390.314 Q 210.798 393.669, 206.254 393.669 M 206.254 390.874 Q 208.945 390.874, 210.378 388.392 Q 211.811 385.876, 211.811 380.983 Q 211.811 376.126, 210.378 373.644 Q 208.945 371.163, 206.254 371.163 Q 203.598 371.163, 202.131 373.644 Q 200.698 376.126, 200.698 380.983 Q 200.698 385.876, 202.131 388.392 Q 203.598 390.874, 206.254 390.874 " fill="#000000"/>
<path class="atom-10" d="M 146.496 230.002 L 149.851 230.002 L 149.851 240.522 L 162.502 240.522 L 162.502 230.002 L 165.857 230.002 L 165.857 254.745 L 162.502 254.745 L 162.502 243.317 L 149.851 243.317 L 149.851 254.745 L 146.496 254.745 L 146.496 230.002 " fill="#000000"/>
<path class="atom-10" d="M 168.478 250.656 L 171.973 250.656 L 171.973 254.151 L 168.478 254.151 L 168.478 250.656 M 168.478 238.634 L 171.973 238.634 L 171.973 242.129 L 168.478 242.129 L 168.478 238.634 " fill="#000000"/>
<path class="atom-10" d="M 175.223 251.949 L 180.64 251.949 L 180.64 233.462 L 174.664 235.314 L 173.86 233.253 L 181.444 229.863 L 183.925 230.282 L 183.925 251.949 L 188.782 251.949 L 188.782 254.745 L 175.223 254.745 L 175.223 251.949 " fill="#000000"/>
<path class="atom-10" d="M 192.033 251.949 L 197.449 251.949 L 197.449 233.462 L 191.473 235.314 L 190.67 233.253 L 198.253 229.863 L 200.735 230.282 L 200.735 251.949 L 205.592 251.949 L 205.592 254.745 L 192.033 254.745 L 192.033 251.949 " fill="#000000"/>
<path class="atom-11" d="M 22.7273 281.278 L 26.0822 281.278 L 26.0822 291.797 L 38.7333 291.797 L 38.7333 281.278 L 42.0882 281.278 L 42.0882 306.021 L 38.7333 306.021 L 38.7333 294.593 L 26.0822 294.593 L 26.0822 306.021 L 22.7273 306.021 L 22.7273 281.278 " fill="#000000"/>
<path class="atom-11" d="M 44.7093 301.932 L 48.204 301.932 L 48.204 305.427 L 44.7093 305.427 L 44.7093 301.932 M 44.7093 289.91 L 48.204 289.91 L 48.204 293.405 L 44.7093 293.405 L 44.7093 289.91 " fill="#000000"/>
<path class="atom-11" d="M 51.4542 303.225 L 56.871 303.225 L 56.871 284.738 L 50.895 286.59 L 50.0912 284.528 L 57.6748 281.138 L 60.1561 281.558 L 60.1561 303.225 L 65.0138 303.225 L 65.0138 306.021 L 51.4542 306.021 L 51.4542 303.225 " fill="#000000"/>
<path class="atom-11" d="M 66.8311 285.961 Q 67.7397 283.62, 69.9065 282.326 Q 72.0732 280.998, 75.0787 280.998 Q 78.8181 280.998, 80.915 283.025 Q 83.0118 285.052, 83.0118 288.652 Q 83.0118 292.321, 80.2859 295.746 Q 77.5949 299.171, 72.0033 303.225 L 83.4312 303.225 L 83.4312 306.021 L 66.7612 306.021 L 66.7612 303.679 Q 71.3743 300.394, 74.1002 297.948 Q 76.861 295.502, 78.1891 293.3 Q 79.5171 291.098, 79.5171 288.827 Q 79.5171 286.45, 78.3288 285.122 Q 77.1406 283.794, 75.0787 283.794 Q 73.0867 283.794, 71.7587 284.598 Q 70.4307 285.402, 69.4871 287.184 L 66.8311 285.961 " fill="#000000"/>
<path class="atom-12" d="M 240.154 106.54 L 243.508 106.54 L 243.508 117.059 L 256.16 117.059 L 256.16 106.54 L 259.514 106.54 L 259.514 131.283 L 256.16 131.283 L 256.16 119.855 L 243.508 119.855 L 243.508 131.283 L 240.154 131.283 L 240.154 106.54 " fill="#000000"/>
<path class="atom-12" d="M 262.136 127.194 L 265.63 127.194 L 265.63 130.689 L 262.136 130.689 L 262.136 127.194 M 262.136 115.172 L 265.63 115.172 L 265.63 118.667 L 262.136 118.667 L 262.136 115.172 " fill="#000000"/>
<path class="atom-12" d="M 268.88 128.487 L 274.297 128.487 L 274.297 110 L 268.321 111.852 L 267.517 109.79 L 275.101 106.4 L 277.582 106.82 L 277.582 128.487 L 282.44 128.487 L 282.44 131.283 L 268.88 131.283 L 268.88 128.487 " fill="#000000"/>
<path class="atom-12" d="M 295.79 118.248 Q 298.201 118.947, 299.355 120.519 Q 300.543 122.057, 300.543 124.503 Q 300.543 126.6, 299.494 128.243 Q 298.446 129.85, 296.524 130.759 Q 294.602 131.633, 292.086 131.633 Q 289.43 131.633, 287.438 130.724 Q 285.481 129.78, 283.908 127.893 L 285.9 125.866 Q 287.438 127.544, 288.731 128.208 Q 290.024 128.837, 292.086 128.837 Q 294.322 128.837, 295.685 127.649 Q 297.048 126.425, 297.048 124.468 Q 297.048 121.952, 295.615 120.834 Q 294.217 119.681, 291.177 119.681 L 289.395 119.681 L 289.395 117.164 L 290.967 117.164 Q 293.658 117.129, 295.091 115.976 Q 296.524 114.788, 296.524 112.586 Q 296.524 110.979, 295.336 110.035 Q 294.148 109.056, 292.121 109.056 Q 290.059 109.056, 288.766 109.79 Q 287.507 110.524, 286.529 112.377 L 284.118 111.083 Q 284.991 109.022, 287.088 107.659 Q 289.185 106.261, 292.121 106.261 Q 295.755 106.261, 297.887 107.973 Q 300.019 109.686, 300.019 112.586 Q 300.019 114.578, 298.935 116.011 Q 297.852 117.444, 295.79 118.248 " fill="#000000"/>
<path class="atom-13" d="M 414.891 281.208 L 418.246 281.208 L 418.246 291.727 L 430.897 291.727 L 430.897 281.208 L 434.252 281.208 L 434.252 305.951 L 430.897 305.951 L 430.897 294.523 L 418.246 294.523 L 418.246 305.951 L 414.891 305.951 L 414.891 281.208 " fill="#000000"/>
<path class="atom-13" d="M 436.873 301.862 L 440.368 301.862 L 440.368 305.357 L 436.873 305.357 L 436.873 301.862 M 436.873 289.84 L 440.368 289.84 L 440.368 293.335 L 436.873 293.335 L 436.873 289.84 " fill="#000000"/>
<path class="atom-13" d="M 443.618 303.155 L 449.035 303.155 L 449.035 284.668 L 443.059 286.52 L 442.255 284.458 L 449.839 281.068 L 452.32 281.488 L 452.32 303.155 L 457.178 303.155 L 457.178 305.951 L 443.618 305.951 L 443.618 303.155 " fill="#000000"/>
<path class="atom-13" d="M 474.302 297.459 L 477.273 297.459 L 477.273 300.255 L 474.302 300.255 L 474.302 305.951 L 471.017 305.951 L 471.017 300.255 L 458.226 300.255 L 458.226 298.053 L 469.06 281.208 L 474.302 281.208 L 474.302 297.459 M 462.28 297.459 L 471.017 297.459 L 471.017 283.445 L 462.28 297.459 " fill="#000000"/>
<text x="275.4368723552169" y="202.99647269757958" font-size="12" font-family="Verdana" font-weight="bold" letter-spacing="0" text-anchor="start" fill="black" transform=" rotate(82.998456 275.436872 202.996473)">0.9685</text><text x="25" y="490" font-size="12" font-family="Verdana" font-weight="bold" letter-spacing="0" text-anchor="start" fill="black">[#7+:1](-[#6:2](-[H:6])(-[H:7])-[H:13])(-[#6:3](-[H:8])(-[H:9])-[H:14])(-[#6:4](-[H:10])(-[H:11])-[H:12])-[H:5]</text></svg>
