<?xml version='1.0' encoding='ASCII' standalone='yes'?>
<svg xmlns="http://www.w3.org/2000/svg" xmlns:rdkit="http://www.rdkit.org/xml" xmlns:xlink="http://www.w3.org/1999/xlink" version="1.1" baseProfile="full" xml:space="preserve" width="500px" height="500px" viewBox="0 0 500 500">
<!-- END OF HEADER -->
<rect style="opacity:1.0;fill:#FFFFFF;stroke:none" width="500" height="500" x="0" y="0"> </rect>
<path d="M 215.601,250.073 L 112.248,250.073" style="fill:none;fill-rule:evenodd;stroke:#FF7F7F;stroke-width:22.0px;stroke-linecap:butt;stroke-linejoin:miter;stroke-opacity:1"/>
<path class="bond-0 atom-0 atom-2" d="M 233.574,250.073 L 283.472,250.073" style="fill:none;fill-rule:evenodd;stroke:#000000;stroke-width:2.0px;stroke-linecap:butt;stroke-linejoin:miter;stroke-opacity:1"/>
<path class="bond-1 atom-0 atom-3" d="M 215.601,266.977 L 215.601,337.104" style="fill:none;fill-rule:evenodd;stroke:#000000;stroke-width:2.0px;stroke-linecap:butt;stroke-linejoin:miter;stroke-opacity:1"/>
<path class="bond-2 atom-0 atom-4" d="M 215.601,233.329 L 215.601,163.045" style="fill:none;fill-rule:evenodd;stroke:#000000;stroke-width:2.0px;stroke-linecap:butt;stroke-linejoin:miter;stroke-opacity:1"/>
<path class="bond-3 atom-1 atom-0" d="M 131.471,250.073 L 156.139,250.073" style="fill:none;fill-rule:evenodd;stroke:#0000FF;stroke-width:2.0px;stroke-linecap:butt;stroke-linejoin:miter;stroke-opacity:1"/>
<path class="bond-3 atom-1 atom-0" d="M 156.139,250.073 L 180.807,250.073" style="fill:none;fill-rule:evenodd;stroke:#000000;stroke-width:2.0px;stroke-linecap:butt;stroke-linejoin:miter;stroke-opacity:1"/>
<path class="bond-4 atom-1 atom-7" d="M 102.673,233.489 L 86.479,205.44" style="fill:none;fill-rule:evenodd;stroke:#0000FF;stroke-width:2.0px;stroke-linecap:butt;stroke-linejoin:miter;stroke-opacity:1"/>
<path class="bond-4 atom-1 atom-7" d="M 86.479,205.44 L 70.2851,177.392" style="fill:none;fill-rule:evenodd;stroke:#000000;stroke-width:2.0px;stroke-linecap:butt;stroke-linejoin:miter;stroke-opacity:1"/>
<path class="bond-5 atom-1 atom-8" d="M 102.488,266.977 L 86.2685,295.07" style="fill:none;fill-rule:evenodd;stroke:#0000FF;stroke-width:2.0px;stroke-linecap:butt;stroke-linejoin:miter;stroke-opacity:1"/>
<path class="bond-5 atom-1 atom-8" d="M 86.2685,295.07 L 70.0488,323.163" style="fill:none;fill-rule:evenodd;stroke:#000000;stroke-width:2.0px;stroke-linecap:butt;stroke-linejoin:miter;stroke-opacity:1"/>
<path class="bond-6 atom-2 atom-5" d="M 318.954,233.169 L 318.954,163.201" style="fill:none;fill-rule:evenodd;stroke:#000000;stroke-width:2.0px;stroke-linecap:butt;stroke-linejoin:miter;stroke-opacity:1"/>
<path class="bond-7 atom-2 atom-6" d="M 318.954,267.377 L 318.954,337.114" style="fill:none;fill-rule:evenodd;stroke:#000000;stroke-width:2.0px;stroke-linecap:butt;stroke-linejoin:miter;stroke-opacity:1"/>
<path class="bond-8 atom-2 atom-9" d="M 337.751,250.073 L 409.113,250.073" style="fill:none;fill-rule:evenodd;stroke:#000000;stroke-width:2.0px;stroke-linecap:butt;stroke-linejoin:miter;stroke-opacity:1"/>
<path class="atom-0" d="M 182.911 250.193 Q 182.911 243.153, 186.191 239.473 Q 189.511 235.753, 195.791 235.753 Q 201.631 235.753, 204.751 239.873 L 202.111 242.033 Q 199.831 239.033, 195.791 239.033 Q 191.511 239.033, 189.231 241.913 Q 186.991 244.753, 186.991 250.193 Q 186.991 255.793, 189.311 258.673 Q 191.671 261.553, 196.231 261.553 Q 199.351 261.553, 202.991 259.673 L 204.111 262.673 Q 202.631 263.633, 200.391 264.193 Q 198.151 264.753, 195.671 264.753 Q 189.511 264.753, 186.191 260.993 Q 182.911 257.233, 182.911 250.193 " fill="#000000"/>
<path class="atom-0" d="M 207.751 259.713 L 211.751 259.713 L 211.751 263.713 L 207.751 263.713 L 207.751 259.713 M 207.751 245.953 L 211.751 245.953 L 211.751 249.953 L 207.751 249.953 L 207.751 245.953 " fill="#000000"/>
<path class="atom-0" d="M 215.471 261.193 L 221.671 261.193 L 221.671 240.033 L 214.831 242.153 L 213.911 239.793 L 222.591 235.913 L 225.431 236.393 L 225.431 261.193 L 230.991 261.193 L 230.991 264.393 L 215.471 264.393 L 215.471 261.193 " fill="#000000"/>
<path class="atom-1" d="M 83.8076 236.073 L 93.0876 251.073 Q 94.0076 252.553, 95.4876 255.233 Q 96.9676 257.913, 97.0476 258.073 L 97.0476 236.073 L 100.808 236.073 L 100.808 264.393 L 96.9276 264.393 L 86.9676 247.993 Q 85.8076 246.073, 84.5676 243.873 Q 83.3676 241.673, 83.0076 240.993 L 83.0076 264.393 L 79.3276 264.393 L 79.3276 236.073 L 83.8076 236.073 " fill="#0000FF"/>
<path class="atom-1" d="M 103.808 259.713 L 107.808 259.713 L 107.808 263.713 L 103.808 263.713 L 103.808 259.713 M 103.808 245.953 L 107.808 245.953 L 107.808 249.953 L 103.808 249.953 L 103.808 245.953 " fill="#0000FF"/>
<path class="atom-1" d="M 109.888 241.433 Q 110.928 238.753, 113.408 237.273 Q 115.888 235.753, 119.328 235.753 Q 123.608 235.753, 126.008 238.073 Q 128.408 240.393, 128.408 244.513 Q 128.408 248.713, 125.288 252.633 Q 122.208 256.553, 115.808 261.193 L 128.888 261.193 L 128.888 264.393 L 109.808 264.393 L 109.808 261.713 Q 115.088 257.953, 118.208 255.153 Q 121.368 252.353, 122.888 249.833 Q 124.408 247.313, 124.408 244.713 Q 124.408 241.993, 123.048 240.473 Q 121.688 238.953, 119.328 238.953 Q 117.048 238.953, 115.528 239.873 Q 114.008 240.793, 112.928 242.833 L 109.888 241.433 " fill="#0000FF"/>
<path class="atom-2" d="M 285.607 250.193 Q 285.607 243.153, 288.887 239.473 Q 292.207 235.753, 298.487 235.753 Q 304.327 235.753, 307.447 239.873 L 304.807 242.033 Q 302.527 239.033, 298.487 239.033 Q 294.207 239.033, 291.927 241.913 Q 289.687 244.753, 289.687 250.193 Q 289.687 255.793, 292.007 258.673 Q 294.367 261.553, 298.927 261.553 Q 302.047 261.553, 305.687 259.673 L 306.807 262.673 Q 305.327 263.633, 303.087 264.193 Q 300.847 264.753, 298.367 264.753 Q 292.207 264.753, 288.887 260.993 Q 285.607 257.233, 285.607 250.193 " fill="#000000"/>
<path class="atom-2" d="M 310.447 259.713 L 314.447 259.713 L 314.447 263.713 L 310.447 263.713 L 310.447 259.713 M 310.447 245.953 L 314.447 245.953 L 314.447 249.953 L 310.447 249.953 L 310.447 245.953 " fill="#000000"/>
<path class="atom-2" d="M 329.727 249.473 Q 332.487 250.273, 333.807 252.073 Q 335.167 253.833, 335.167 256.633 Q 335.167 259.033, 333.967 260.913 Q 332.767 262.753, 330.567 263.793 Q 328.367 264.793, 325.487 264.793 Q 322.447 264.793, 320.167 263.753 Q 317.927 262.673, 316.127 260.513 L 318.407 258.193 Q 320.167 260.113, 321.647 260.873 Q 323.127 261.593, 325.487 261.593 Q 328.047 261.593, 329.607 260.233 Q 331.167 258.833, 331.167 256.593 Q 331.167 253.713, 329.527 252.433 Q 327.927 251.113, 324.447 251.113 L 322.407 251.113 L 322.407 248.233 L 324.207 248.233 Q 327.287 248.193, 328.927 246.873 Q 330.567 245.513, 330.567 242.993 Q 330.567 241.153, 329.207 240.073 Q 327.847 238.953, 325.527 238.953 Q 323.167 238.953, 321.687 239.793 Q 320.247 240.633, 319.127 242.753 L 316.367 241.273 Q 317.367 238.913, 319.767 237.353 Q 322.167 235.753, 325.527 235.753 Q 329.687 235.753, 332.127 237.713 Q 334.567 239.673, 334.567 242.993 Q 334.567 245.273, 333.327 246.913 Q 332.087 248.553, 329.727 249.473 " fill="#000000"/>
<path class="atom-3" d="M 204.521 339.266 L 208.361 339.266 L 208.361 351.306 L 222.841 351.306 L 222.841 339.266 L 226.681 339.266 L 226.681 367.586 L 222.841 367.586 L 222.841 354.506 L 208.361 354.506 L 208.361 367.586 L 204.521 367.586 L 204.521 339.266 " fill="#000000"/>
<path class="atom-3" d="M 229.681 362.906 L 233.681 362.906 L 233.681 366.906 L 229.681 366.906 L 229.681 362.906 M 229.681 349.146 L 233.681 349.146 L 233.681 353.146 L 229.681 353.146 L 229.681 349.146 " fill="#000000"/>
<path class="atom-3" d="M 253.281 357.866 L 256.681 357.866 L 256.681 361.066 L 253.281 361.066 L 253.281 367.586 L 249.521 367.586 L 249.521 361.066 L 234.881 361.066 L 234.881 358.546 L 247.281 339.266 L 253.281 339.266 L 253.281 357.866 M 239.521 357.866 L 249.521 357.866 L 249.521 341.826 L 239.521 357.866 " fill="#000000"/>
<path class="atom-4" d="M 204.521 132.56 L 208.361 132.56 L 208.361 144.6 L 222.841 144.6 L 222.841 132.56 L 226.681 132.56 L 226.681 160.88 L 222.841 160.88 L 222.841 147.8 L 208.361 147.8 L 208.361 160.88 L 204.521 160.88 L 204.521 132.56 " fill="#000000"/>
<path class="atom-4" d="M 229.681 156.2 L 233.681 156.2 L 233.681 160.2 L 229.681 160.2 L 229.681 156.2 M 229.681 142.44 L 233.681 142.44 L 233.681 146.44 L 229.681 146.44 L 229.681 142.44 " fill="#000000"/>
<path class="atom-4" d="M 245.801 143.16 Q 248.281 143.16, 250.321 144.24 Q 252.361 145.28, 253.521 147.28 Q 254.681 149.24, 254.681 151.92 Q 254.681 154.84, 253.241 156.96 Q 251.841 159.04, 249.521 160.12 Q 247.201 161.2, 244.561 161.2 Q 241.961 161.2, 239.561 160.24 Q 237.161 159.28, 235.521 157.44 L 237.921 154.96 Q 239.241 156.4, 241.041 157.2 Q 242.841 157.96, 244.681 157.96 Q 247.201 157.96, 248.921 156.4 Q 250.681 154.84, 250.681 152 Q 250.681 149, 248.921 147.6 Q 247.201 146.16, 244.441 146.16 Q 241.961 146.16, 239.201 147.24 L 237.001 146.2 L 238.361 132.56 L 252.921 132.56 L 252.521 135.76 L 241.641 135.76 L 240.801 144.16 Q 243.321 143.16, 245.801 143.16 " fill="#000000"/>
<path class="atom-5" d="M 307.874 132.72 L 311.714 132.72 L 311.714 144.76 L 326.194 144.76 L 326.194 132.72 L 330.034 132.72 L 330.034 161.04 L 326.194 161.04 L 326.194 147.96 L 311.714 147.96 L 311.714 161.04 L 307.874 161.04 L 307.874 132.72 " fill="#000000"/>
<path class="atom-5" d="M 333.034 156.36 L 337.034 156.36 L 337.034 160.36 L 333.034 160.36 L 333.034 156.36 M 333.034 142.6 L 337.034 142.6 L 337.034 146.6 L 333.034 146.6 L 333.034 142.6 " fill="#000000"/>
<path class="atom-5" d="M 350.834 143.36 Q 353.314 143.36, 355.274 144.44 Q 357.234 145.52, 358.314 147.48 Q 359.394 149.44, 359.394 151.92 Q 359.394 154.68, 358.154 156.84 Q 356.954 158.96, 354.794 160.16 Q 352.634 161.36, 349.874 161.36 Q 344.834 161.36, 342.274 157.96 Q 339.754 154.52, 339.754 147.72 Q 339.754 140.2, 342.874 136.32 Q 346.034 132.4, 352.074 132.4 Q 353.834 132.4, 355.314 132.8 Q 356.834 133.2, 358.274 134.04 L 356.714 136.72 Q 354.634 135.6, 352.114 135.6 Q 348.114 135.6, 346.074 138.2 Q 344.034 140.76, 343.794 146.08 Q 345.234 144.76, 347.034 144.08 Q 348.874 143.36, 350.834 143.36 M 349.914 158.08 Q 351.434 158.08, 352.674 157.28 Q 353.954 156.48, 354.674 155.08 Q 355.394 153.68, 355.394 151.96 Q 355.394 149.44, 353.994 148 Q 352.594 146.56, 350.114 146.56 Q 348.394 146.56, 346.674 147.28 Q 344.994 147.96, 343.794 149.16 Q 343.954 153.84, 345.434 155.96 Q 346.914 158.08, 349.914 158.08 " fill="#000000"/>
<path class="atom-6" d="M 307.874 339.266 L 311.714 339.266 L 311.714 351.306 L 326.194 351.306 L 326.194 339.266 L 330.034 339.266 L 330.034 367.586 L 326.194 367.586 L 326.194 354.506 L 311.714 354.506 L 311.714 367.586 L 307.874 367.586 L 307.874 339.266 " fill="#000000"/>
<path class="atom-6" d="M 333.034 362.906 L 337.034 362.906 L 337.034 366.906 L 333.034 366.906 L 333.034 362.906 M 333.034 349.146 L 337.034 349.146 L 337.034 353.146 L 333.034 353.146 L 333.034 349.146 " fill="#000000"/>
<path class="atom-6" d="M 352.594 342.466 L 337.754 342.466 L 337.754 339.266 L 356.554 339.266 L 356.554 342.106 L 345.114 367.586 L 341.274 367.586 L 352.594 342.466 " fill="#000000"/>
<path class="atom-7" d="M 18.9311 146.566 L 22.7711 146.566 L 22.7711 158.606 L 37.2511 158.606 L 37.2511 146.566 L 41.0911 146.566 L 41.0911 174.886 L 37.2511 174.886 L 37.2511 161.806 L 22.7711 161.806 L 22.7711 174.886 L 18.9311 174.886 L 18.9311 146.566 " fill="#000000"/>
<path class="atom-7" d="M 44.0911 170.206 L 48.0911 170.206 L 48.0911 174.206 L 44.0911 174.206 L 44.0911 170.206 M 44.0911 156.446 L 48.0911 156.446 L 48.0911 160.446 L 44.0911 160.446 L 44.0911 156.446 " fill="#000000"/>
<path class="atom-7" d="M 65.0111 159.886 Q 67.6111 161.006, 69.0911 162.686 Q 70.5711 164.326, 70.5711 167.126 Q 70.5711 169.526, 69.3311 171.406 Q 68.0911 173.246, 65.8511 174.286 Q 63.6511 175.286, 60.7311 175.286 Q 56.0111 175.286, 53.2911 173.126 Q 50.5711 170.926, 50.5711 167.126 Q 50.5711 164.806, 51.7711 163.086 Q 52.9711 161.326, 55.4511 160.006 Q 53.6111 158.966, 52.6111 157.446 Q 51.6111 155.886, 51.6111 153.486 Q 51.6111 150.166, 54.0111 148.206 Q 56.4511 146.246, 60.5711 146.246 Q 64.6911 146.246, 67.0911 148.206 Q 69.5311 150.166, 69.5311 153.486 Q 69.5311 155.566, 68.3711 157.126 Q 67.2511 158.646, 65.0111 159.886 M 60.5711 149.246 Q 58.2111 149.246, 56.8911 150.366 Q 55.6111 151.486, 55.6111 153.486 Q 55.6111 154.966, 56.4911 155.966 Q 57.3711 156.926, 58.6111 157.486 Q 59.8911 158.046, 62.3311 158.886 Q 64.0511 157.686, 64.7711 156.406 Q 65.5311 155.126, 65.5311 153.486 Q 65.5311 151.486, 64.2111 150.366 Q 62.9311 149.246, 60.5711 149.246 M 60.7311 172.286 Q 63.3711 172.286, 64.9711 170.886 Q 66.5711 169.446, 66.5711 167.086 Q 66.5711 165.566, 65.7311 164.606 Q 64.8911 163.646, 63.6111 163.086 Q 62.3711 162.526, 60.1311 161.806 L 58.3311 161.206 Q 56.3311 162.406, 55.4511 163.846 Q 54.5711 165.246, 54.5711 167.086 Q 54.5711 169.446, 56.2511 170.886 Q 57.9311 172.286, 60.7311 172.286 " fill="#000000"/>
<path class="atom-8" d="M 19.3911 325.579 L 23.2311 325.579 L 23.2311 337.619 L 37.7111 337.619 L 37.7111 325.579 L 41.5511 325.579 L 41.5511 353.899 L 37.7111 353.899 L 37.7111 340.819 L 23.2311 340.819 L 23.2311 353.899 L 19.3911 353.899 L 19.3911 325.579 " fill="#000000"/>
<path class="atom-8" d="M 44.5511 349.219 L 48.5511 349.219 L 48.5511 353.219 L 44.5511 353.219 L 44.5511 349.219 M 44.5511 335.459 L 48.5511 335.459 L 48.5511 339.459 L 44.5511 339.459 L 44.5511 335.459 " fill="#000000"/>
<path class="atom-8" d="M 60.2711 325.259 Q 65.3111 325.259, 67.8311 328.699 Q 70.3911 332.099, 70.3911 338.899 Q 70.3911 346.419, 67.2311 350.339 Q 64.1111 354.219, 58.0711 354.219 Q 56.3111 354.219, 54.7911 353.819 Q 53.3111 353.419, 51.8711 352.579 L 53.4311 349.899 Q 55.5111 351.019, 58.0311 351.019 Q 62.0311 351.019, 64.0711 348.459 Q 66.1111 345.859, 66.3511 340.539 Q 64.9111 341.859, 63.0711 342.579 Q 61.2711 343.259, 59.3111 343.259 Q 56.8311 343.259, 54.8711 342.179 Q 52.9111 341.099, 51.8311 339.139 Q 50.7511 337.179, 50.7511 334.699 Q 50.7511 331.939, 51.9511 329.819 Q 53.1911 327.659, 55.3511 326.459 Q 57.5111 325.259, 60.2711 325.259 M 54.7511 334.659 Q 54.7511 337.179, 56.1511 338.619 Q 57.5511 340.059, 60.0311 340.059 Q 61.7511 340.059, 63.4311 339.379 Q 65.1511 338.659, 66.3511 337.459 Q 66.1911 332.779, 64.7111 330.659 Q 63.2311 328.539, 60.2311 328.539 Q 58.7111 328.539, 57.4311 329.339 Q 56.1911 330.139, 55.4711 331.539 Q 54.7511 332.939, 54.7511 334.659 " fill="#000000"/>
<path class="atom-9" d="M 411.226 236.073 L 415.066 236.073 L 415.066 248.113 L 429.546 248.113 L 429.546 236.073 L 433.386 236.073 L 433.386 264.393 L 429.546 264.393 L 429.546 251.313 L 415.066 251.313 L 415.066 264.393 L 411.226 264.393 L 411.226 236.073 " fill="#000000"/>
<path class="atom-9" d="M 436.386 259.713 L 440.386 259.713 L 440.386 263.713 L 436.386 263.713 L 436.386 259.713 M 436.386 245.953 L 440.386 245.953 L 440.386 249.953 L 436.386 249.953 L 436.386 245.953 " fill="#000000"/>
<path class="atom-9" d="M 444.106 261.193 L 450.306 261.193 L 450.306 240.033 L 443.466 242.153 L 442.546 239.793 L 451.226 235.913 L 454.066 236.393 L 454.066 261.193 L 459.626 261.193 L 459.626 264.393 L 444.106 264.393 L 444.106 261.193 " fill="#000000"/>
<path class="atom-9" d="M 472.426 264.713 Q 467.226 264.713, 464.626 260.873 Q 462.066 257.033, 462.066 250.193 Q 462.066 243.353, 464.626 239.553 Q 467.186 235.753, 472.426 235.753 Q 477.666 235.753, 480.226 239.553 Q 482.786 243.353, 482.786 250.193 Q 482.786 257.033, 480.186 260.873 Q 477.626 264.713, 472.426 264.713 M 472.426 261.513 Q 475.506 261.513, 477.146 258.673 Q 478.786 255.793, 478.786 250.193 Q 478.786 244.633, 477.146 241.793 Q 475.506 238.953, 472.426 238.953 Q 469.386 238.953, 467.706 241.793 Q 466.066 244.633, 466.066 250.193 Q 466.066 255.793, 467.706 258.673 Q 469.386 261.513, 472.426 261.513 " fill="#000000"/>
<text x="163.92406835791618" y="250.07270670364386" font-size="12" font-family="Verdana" font-weight="bold" letter-spacing="0" text-anchor="start" fill="black" transform=" rotate(-90.000000 163.924068 250.072707)">0.0296</text><text x="25" y="490" font-size="12" font-family="Verdana" font-weight="bold" letter-spacing="0" text-anchor="start" fill="black">[#6:1](-[#7:2](-[H:8])-[H:9])(-[#6:3](-[H:6])(-[H:7])-[H:10])(-[H:4])-[H:5]</text></svg>
